<svg xmlns="http://www.w3.org/2000/svg" height="1024" preserveAspectRatio="none" style="display: block;" version="1.1" viewBox="0 0 2048 2048" width="1024">
<defs>
	<linearGradient gradientUnits="userSpaceOnUse" id="Gradient1" x1="546.071" x2="547.795" y1="1350.68" y2="1363.34">
		<stop class="stop0" offset="0" stop-color="rgb(69,86,105)" stop-opacity="1"></stop>
		<stop class="stop1" offset="1" stop-color="rgb(97,97,108)" stop-opacity="1"></stop>
	</linearGradient>
	<linearGradient gradientUnits="userSpaceOnUse" id="Gradient2" x1="1028.61" x2="1033.66" y1="417.072" y2="416.92">
		<stop class="stop0" offset="0" stop-color="rgb(38,54,68)" stop-opacity="1"></stop>
		<stop class="stop1" offset="1" stop-color="rgb(59,81,107)" stop-opacity="1"></stop>
	</linearGradient>
	<linearGradient gradientUnits="userSpaceOnUse" id="Gradient3" x1="1306.59" x2="1243.54" y1="492.523" y2="440.127">
		<stop class="stop0" offset="0" stop-color="rgb(45,68,86)" stop-opacity="1"></stop>
		<stop class="stop1" offset="1" stop-color="rgb(84,94,112)" stop-opacity="1"></stop>
	</linearGradient>
</defs>

<path d="M 945.643 640.962 C 1023.92 642.519 1238.35 685.777 1293.21 742.712 C 1308.8 758.884 1322.64 787.896 1332.71 808.4 C 1231.45 784.623 1123.12 759.466 1018.87 774.509 C 971.717 781.314 919.447 787.323 873.37 799.906 C 887.781 762.007 903.742 725.065 917.97 687.167 C 922.359 675.475 931.593 653.921 934.398 642.461 C 936.313 641.084 942.33 641.296 945.643 640.962 z" fill="rgb(65,83,102)" transform="translate(0,0)"></path>
<path d="M 1043.6 792.427 C 1052.85 792.108 1064.8 792.771 1074.23 793.033 C 1093.93 833.461 1118.84 876.177 1140.84 915.779 L 742.954 921.266 C 742.087 921.35 741.219 921.425 740.35 921.491 C 711.017 923.762 668.412 924.125 645.239 904.318 C 681.984 866.554 871.676 818.573 929.512 806.52 C 960.691 800.022 1011.32 793.586 1043.6 792.427 z" fill="rgb(65,83,102)" transform="translate(0,0)"></path>
<path d="M 1128.13 934.003 L 1152.24 934.203 C 1145.09 946.314 1138.81 968.186 1135.58 981.714 C 1129.59 1005.18 1130.69 1046.62 1143.14 1067.99 C 1164.48 1104.64 1184.74 1134.72 1180.92 1179.84 C 1179.17 1200.43 1171.17 1219.51 1160.78 1237.82 C 1141.66 1271.5 1131.72 1308.95 1137.84 1347.75 C 1141.02 1370.36 1153.03 1396.94 1175.44 1405.78 C 1193.87 1413.05 1211.18 1416.26 1228.29 1428.81 C 1249.21 1443.88 1262.45 1467.38 1264.51 1493.08 C 1265.64 1507.11 1265.17 1518.32 1267.16 1532.84 C 1277.64 1609.45 1364.84 1602.4 1408.22 1655.72 C 1437.64 1691.04 1418.95 1726.73 1458.24 1759.25 C 1506.42 1799.14 1606.39 1818.53 1617.4 1890.33 C 1616.67 1891.54 1616.7 1891.93 1615.47 1890.97 C 1608.56 1856.04 1569.13 1830.12 1538.02 1818.17 C 1483.63 1797.39 1403.76 1789.45 1389.04 1720.95 C 1384.19 1698.37 1385.76 1681.31 1368.8 1662.94 C 1346.84 1639.14 1318.93 1625.43 1290.6 1610.77 C 1275.46 1602.93 1257.56 1594.93 1248.27 1579.7 C 1231.21 1550.25 1242.37 1513.3 1230.78 1481.79 C 1221.39 1452.2 1190.25 1428.52 1161.43 1419.2 C 1117.8 1405.09 1098.13 1373.43 1101.46 1328.02 C 1103.1 1305.73 1108.37 1283.28 1118.82 1263.26 C 1124.32 1252.71 1132.92 1243.32 1138.4 1232.47 C 1159.94 1189.79 1157.56 1137.53 1133.72 1096.29 C 1124.32 1079.72 1112.16 1062.74 1106.23 1044.71 C 1093.67 1006.52 1111 967.889 1128.13 934.003 z" fill="rgb(212,122,57)" transform="translate(0,0)"></path>
<path d="M 1044.06 933.028 L 1078.79 933.392 C 1070.62 946.967 1065.2 963.127 1061.19 978.373 C 1037.06 1070.06 1103.56 1107.21 1096.28 1191.96 C 1093.72 1221.77 1079.46 1234.39 1064.73 1258.77 C 1056.21 1273.06 1050.1 1288.65 1046.65 1304.92 C 1041.96 1326.71 1041.5 1345.42 1048.78 1366.5 C 1070.11 1428.24 1137.97 1409.49 1166.14 1462.95 C 1185.35 1499.76 1168.05 1548.75 1190.4 1583.98 C 1209.36 1613.88 1262.82 1622.81 1295.67 1629.44 L 1299.75 1627.38 L 1300 1627.41 C 1300.55 1627.5 1301.67 1627.89 1301.83 1627.05 C 1301.32 1625.89 1299.19 1624.92 1298.04 1623.63 C 1303.22 1621.37 1303.95 1627.99 1307.73 1631.77 C 1330.57 1640.28 1357.11 1658.84 1366.68 1681.42 C 1380.57 1714.18 1370.25 1725.78 1393.39 1757.84 C 1435.94 1816.8 1548.99 1819.15 1549.24 1902.12 L 1546.97 1901.11 C 1551.77 1845.42 1464.09 1825.18 1425.48 1813.46 C 1385.38 1801.29 1339.46 1767.67 1333.19 1723.48 C 1328.82 1692.66 1330.08 1672.91 1302.61 1651.7 C 1268.87 1622.48 1230.04 1620.69 1189.1 1607.29 C 1106.22 1580.17 1166.3 1490.57 1117.19 1438.87 C 1084.95 1402.4 1037.91 1414.66 1017.09 1371.55 C 1001.14 1338.99 1015.66 1290.34 1034.34 1261.83 C 1046.77 1248.15 1057.74 1236.82 1063.13 1218.33 C 1080.48 1158.76 1045.46 1102.81 1032.64 1047.2 C 1029.11 1031.25 1027.73 1014.9 1028.53 998.576 C 1029.68 975.049 1035.99 954.95 1044.06 933.028 z" fill="rgb(212,122,57)" transform="translate(0,0)"></path>
<path d="M 1298.04 1623.63 C 1303.22 1621.37 1303.95 1627.99 1307.73 1631.77 C 1303.68 1630.85 1300.54 1630.31 1296.54 1629.6 L 1295.67 1629.44 L 1299.75 1627.38 L 1300 1627.41 C 1300.55 1627.5 1301.67 1627.89 1301.83 1627.05 C 1301.32 1625.89 1299.19 1624.92 1298.04 1623.63 z" fill="rgb(236,237,236)" transform="translate(0,0)"></path>
<path d="M 688.697 934.443 C 745.441 931.985 810.243 934.671 868.19 933.884 C 845.871 982.582 830.657 1022.88 846.498 1076.63 C 851.933 1095.07 858.569 1112.76 863.922 1131.36 C 848.833 1122.8 838.897 1115.24 825.282 1104.79 C 784.855 1074 756.866 1061.34 708.513 1048.33 C 678.863 1037.92 642.541 1021.79 619.362 1000.44 C 552.778 939.114 651.658 936.17 688.697 934.443 z" fill="rgb(65,83,102)" transform="translate(0,0)"></path>
<path d="M 1094.22 793.222 C 1167.59 793.826 1273.53 809.194 1343.21 833.451 C 1357.54 855.141 1371.05 879.008 1384.78 901.215 C 1389.28 908.489 1405.48 933.435 1407.68 939.895 C 1400.46 940.087 1384.42 937.315 1376.75 936.243 C 1361.43 934.148 1346.09 932.229 1330.72 930.487 C 1276.08 924.683 1221.39 919.389 1166.65 914.606 C 1160.45 900.958 1144.42 876.443 1136.21 863.064 L 1094.22 793.222 z" fill="rgb(65,83,102)" transform="translate(0,0)"></path>
<path d="M 595.786 1029.4 C 622.386 1036.01 658.065 1049.2 685.293 1057.19 C 719.54 1068.68 759.082 1074.97 790.766 1092.34 C 840.399 1119.55 855.849 1181.27 846.581 1232.66 L 845.763 1233.56 C 834.156 1230.75 819.384 1223.82 807.603 1219.91 C 715.84 1189.4 610.221 1136.89 595.786 1029.4 z" fill="rgb(65,83,102)" transform="translate(0,0)"></path>
<path d="M 1401.76 1117.26 C 1455.17 1096.64 1507.98 1075.07 1561.89 1055.43 C 1526.81 1112.02 1492.45 1170.73 1457.67 1227.92 C 1472.51 1229.47 1485.8 1232.45 1500.28 1235.88 C 1518.44 1240.2 1534.48 1231.3 1551.81 1230.21 L 1555.21 1232.42 C 1530.71 1238.39 1514.91 1246.36 1489.68 1238.84 C 1478.76 1235.59 1467.3 1232.98 1455.9 1232.56 C 1449.11 1241.82 1442.91 1251.49 1437.33 1261.52 C 1477.64 1251.83 1480.04 1265.85 1518.04 1267.84 C 1528.82 1268.4 1550.15 1259.17 1563.38 1263.98 L 1562.73 1265.3 L 1555.75 1264.64 C 1553.75 1264.83 1554.01 1264.87 1552.21 1264.46 C 1540.9 1265.83 1524.32 1272.94 1512.09 1271.78 C 1474.66 1268.24 1473.47 1256.71 1435.29 1267.3 L 1429.43 1274.18 C 1395.25 1282.34 1359.74 1283.31 1325.15 1277.05 C 1351.16 1226.41 1376.56 1169.03 1401.76 1117.26 z" fill="rgb(65,83,102)" transform="translate(0,0)"></path>
<path d="M 1552.21 1264.46 C 1553.85 1263.65 1554.24 1263.64 1555.75 1264.64 C 1553.75 1264.83 1554.01 1264.87 1552.21 1264.46 z" fill="rgb(147,150,153)" transform="translate(0,0)"></path>
<path d="M 901.747 684.512 L 903.894 684.43 C 903.889 688.823 854.143 794.45 847.92 808.299 C 839.14 811.733 829.33 814.956 820.335 817.912 C 766.178 835.704 713.182 857.618 659.263 875.92 L 656.757 875.832 C 656.505 874.238 656.504 873.808 657.21 872.309 C 680.687 822.471 706.025 773.167 728.425 722.825 C 780.598 705.033 847.286 688.691 901.747 684.512 z" fill="rgb(65,83,102)" transform="translate(0,0)"></path>
<path d="M 1082.69 933.001 C 1094.32 933.085 1105.94 933.248 1117.56 933.489 C 1101.05 953.827 1091.63 983.336 1089.82 1009.25 C 1086.81 1052.34 1115.69 1082.08 1129.7 1120.76 C 1142.21 1151.3 1147.26 1198.77 1128.27 1228.39 C 1100.71 1271.37 1073.8 1318.06 1093.43 1370.93 C 1107.96 1410.09 1127.89 1411.38 1163.29 1426.25 C 1195.85 1439.93 1224.68 1476.23 1225.31 1512.83 C 1226.61 1576.09 1239.42 1597.58 1298.04 1623.63 C 1299.19 1624.92 1301.32 1625.89 1301.83 1627.05 C 1301.67 1627.89 1300.55 1627.5 1300 1627.41 L 1299.75 1627.38 C 1285.48 1624.34 1271.4 1620.46 1257.59 1615.77 C 1150.41 1578.81 1220.1 1509.52 1163.63 1443.78 C 1137.41 1413.25 1083.33 1418.38 1061.81 1371.41 C 1045.07 1334.86 1057.59 1289.33 1076.82 1256.33 C 1086.29 1240.95 1099.81 1227.11 1105.13 1209.46 C 1117.89 1167.16 1105.55 1128.27 1085.43 1090.94 C 1057.91 1039.87 1064.18 986.134 1082.69 933.001 z" fill="rgb(212,122,57)" transform="translate(0,0)"></path>
<path d="M 709.518 730.328 C 709.36 734.995 611.536 915.489 601.566 934.353 C 556.833 942.312 512.548 951.291 467.828 959.038 C 467.641 957.791 468.531 956.44 469.187 955.525 L 603.052 767.796 C 625.707 758.845 649.021 750.845 671.852 742.295 C 683.968 737.757 696.93 733.211 709.518 730.328 z" fill="rgb(65,83,102)" transform="translate(0,0)"></path>
<path d="M 907.414 932.991 L 936.489 933.036 C 914.1 971.203 902.006 1018.64 913.304 1062.16 C 923.983 1103.29 950.197 1130.53 944.792 1175.23 C 943.006 1190 940.238 1201.69 932.763 1215 C 921.792 1234.53 901.831 1248 885.135 1262.65 C 856.623 1287.66 851.144 1317.68 860.469 1353.45 C 865.179 1371.52 874.05 1387.4 891.175 1396.18 C 919.304 1410.6 965.98 1426.7 983.056 1455.97 C 983.272 1471.16 985.115 1486.21 985.483 1501.75 C 986.18 1531.15 980.994 1554.8 990.984 1583.49 C 994.966 1594.92 1012.42 1614.99 1013.77 1618.65 C 983.753 1600.52 960.373 1578.45 962.728 1540.39 C 963.413 1529.32 964.826 1517.33 964.959 1506.33 C 965.018 1479.8 954.468 1454.35 935.658 1435.65 C 910.719 1410.47 881.868 1402.89 847.771 1402.95 C 827.636 1357.44 819.584 1309.07 843.565 1263.38 L 841.222 1262.47 C 839.821 1260.63 842.795 1256.28 843.7 1253.85 L 845.427 1257.85 C 847.276 1255.89 849.07 1253.89 850.805 1251.83 L 853.163 1253.24 C 878.825 1238.97 903.659 1217.55 911.785 1188.32 C 922.35 1150.31 903.882 1120.98 891.549 1087.04 C 871.984 1033.2 879.223 982.076 907.414 932.991 z" fill="rgb(65,83,102)" transform="translate(0,0)"></path>
<path d="M 850.805 1251.83 L 853.163 1253.24 C 846.192 1258.57 847.931 1259.15 843.565 1263.38 L 841.222 1262.47 C 839.821 1260.63 842.795 1256.28 843.7 1253.85 L 845.427 1257.85 C 847.276 1255.89 849.07 1253.89 850.805 1251.83 z" fill="rgb(236,237,236)" transform="translate(0,0)"></path>
<path d="M 843.7 1253.85 L 845.427 1257.85 C 843.89 1259.72 842.983 1260.8 841.222 1262.47 C 839.821 1260.63 842.795 1256.28 843.7 1253.85 z" fill="rgb(76,82,100)" transform="translate(0,0)"></path>
<path d="M 1487.96 812.448 C 1498.89 813.786 1519.35 823.456 1530.13 828.443 C 1593.8 857.901 1652.79 898.949 1699.8 951.24 C 1706.71 958.925 1731.19 990.584 1730.63 999.588 L 1727.94 1001.2 C 1696.59 1010.74 1645.52 1005.25 1613.73 996.428 C 1582.46 987.752 1564.08 954.881 1548.32 928.605 C 1526.12 891.596 1507.12 851.377 1487.96 812.448 z" fill="rgb(65,83,102)" transform="translate(0,0)"></path>
<path d="M 1326.41 757.862 C 1355.21 759.067 1415.57 773.199 1446.1 780.486 C 1456.94 804.163 1473.39 833.142 1485.83 856.455 C 1505.28 893.201 1524.42 930.107 1543.25 967.169 C 1506.45 959.924 1473.37 953 1435.98 946.367 C 1401.49 883.852 1362.5 819.874 1326.41 757.862 z" fill="rgb(65,83,102)" transform="translate(0,0)"></path>
<path d="M 985.719 1385.91 C 986.87 1372.93 985.49 1359.24 987.123 1344.88 C 991.205 1309.01 1007.25 1283.43 1029.98 1256.07 C 1034.46 1250.67 1038.99 1241.19 1044.49 1236.72 L 1043.97 1238.03 C 1035.14 1259.85 1027.03 1262.73 1017.65 1278.05 C 1003.54 1301.06 995.21 1347.04 1006.99 1372.75 C 1015.01 1390.26 1029.16 1402.15 1047.02 1408.64 C 1080.23 1420.05 1106.48 1432.1 1121.77 1465.62 C 1143.88 1514.08 1113.74 1583.86 1177.75 1606.68 C 1221.75 1622.38 1288.34 1637.17 1308.61 1685.24 C 1320.59 1713.63 1320.72 1747.03 1342.65 1772.05 C 1387.64 1829.16 1488.33 1839.53 1485.84 1928.02 C 1485.81 1929.94 1485.84 1930.54 1485.46 1932.35 L 1484.88 1932.6 L 1485.15 1933.45 L 1484.83 1933.05 C 1484.79 1933.19 1484.75 1933.33 1484.71 1933.47 C 1483.29 1931.78 1484.07 1921.77 1484.21 1919.36 C 1474.54 1831.39 1345.68 1830.56 1299.12 1772.29 C 1281.01 1749.62 1279.41 1740.92 1275.8 1712.3 C 1272.68 1687.65 1258.45 1664.64 1239.02 1648.95 C 1224.44 1637.33 1208.2 1627.97 1190.83 1621.19 C 1166.35 1611.45 1124.12 1603.27 1108.17 1584.7 C 1073.74 1544.64 1104.84 1496.55 1078.66 1449.8 C 1052.93 1403.86 1007.37 1411.81 985.719 1385.91 z" fill="rgb(212,122,57)" transform="translate(0,0)"></path>
<path d="M 1484.21 1919.36 C 1485.54 1923.6 1485.37 1923.31 1485.84 1928.02 C 1485.81 1929.94 1485.84 1930.54 1485.46 1932.35 L 1484.88 1932.6 L 1485.15 1933.45 L 1484.83 1933.05 C 1484.79 1933.19 1484.75 1933.33 1484.71 1933.47 C 1483.29 1931.78 1484.07 1921.77 1484.21 1919.36 z" fill="rgb(212,170,144)" transform="translate(0,0)"></path>
<path d="M 1202.5 934.93 C 1259.04 935.285 1311.69 945.503 1365.82 960.757 C 1388.78 967.228 1408.86 971.779 1431.05 981.733 C 1406.1 1003.09 1393.69 1010.89 1361.63 1019.4 C 1344.77 1023.58 1326.16 1025.19 1308.99 1028.06 C 1262.19 1035.88 1235.46 1047.4 1198.24 1074.71 C 1176.01 1032.39 1191.84 978.782 1202.5 934.93 z" fill="rgb(65,83,102)" transform="translate(0,0)"></path>
<path d="M 1415.44 1019.15 L 1416.77 1019.65 C 1417.62 1024.42 1406.36 1060.27 1403.73 1067.44 C 1394.91 1091.15 1377.63 1123.24 1354.51 1135.82 C 1338.63 1144.47 1315.52 1150.4 1298.34 1157.67 C 1275.18 1167.47 1253.84 1179.44 1231.17 1190.08 C 1231.96 1186.05 1232.41 1182.3 1232.92 1178.25 C 1235.69 1137.41 1231.08 1131.33 1214.96 1096.22 C 1229.1 1045.05 1305.08 1045.66 1346.41 1037.59 C 1369.77 1033.02 1392.48 1025.38 1415.44 1019.15 z" fill="rgb(65,83,102)" transform="translate(0,0)"></path>
<path d="M 982.464 1423.54 C 1006.7 1437.47 1028.77 1451.91 1036.32 1480.58 C 1047.73 1523.92 1015.57 1568.85 1065.63 1598.78 C 1081.35 1608.17 1099.41 1613.18 1116.25 1620.18 C 1153.96 1635.87 1195.77 1661.81 1206.64 1703.84 C 1212.15 1725.14 1211.52 1745.55 1222.66 1765.37 C 1256.48 1825.52 1367.55 1852.96 1363.7 1930.88 C 1362.57 1931.43 1363.05 1931.25 1361.86 1930.73 C 1363.5 1879.86 1285.56 1852.93 1248.87 1832.57 C 1228.82 1821.45 1215.86 1815.65 1197.29 1801.06 C 1133.89 1751.22 1185.39 1715.46 1131.52 1659.75 C 1120.25 1648.13 1107.36 1638.21 1093.24 1630.3 C 1067.08 1615.59 1029.97 1606.51 1014.19 1578.72 C 992.368 1540.29 1026.66 1499.71 982.556 1443.4 C 982.939 1438.42 982.536 1428.86 982.464 1423.54 z" fill="rgb(212,122,57)" transform="translate(0,0)"></path>
<path d="M 850.453 1405.39 C 886.456 1409.85 911.583 1418.68 935.531 1447.93 C 977.212 1498.85 936.192 1540.04 971.097 1591.04 C 998.309 1630.8 1040.34 1632.87 1068.59 1664.48 C 1097.38 1697.79 1075.53 1741.69 1102.61 1777.68 C 1118.59 1798.92 1132.01 1811.54 1154.13 1826.24 C 1196.45 1854.37 1262.6 1906.42 1258.73 1963.77 C 1257.2 1961.11 1257.03 1959.37 1256.13 1956.39 C 1255.87 1953.38 1255.54 1950.41 1254.81 1947.48 C 1250.97 1931.99 1242.08 1918.11 1231.92 1906.02 C 1196.31 1863.65 1149.83 1845.89 1104.15 1818.33 C 1012.26 1762.9 1071.63 1723.11 1036.93 1678.87 C 1007.93 1641.89 950.151 1630.47 930.524 1589.99 C 919.434 1567.12 925.56 1540.19 922.796 1515.68 C 921.319 1502.58 917.054 1490.31 913.89 1477.59 L 911.802 1473.97 C 907.175 1465.43 898.901 1450.42 890.329 1445.24 C 889.466 1444.13 887.995 1442.66 886.999 1441.59 C 874.442 1429.9 862.539 1423.04 850.448 1409.34 L 850.453 1405.39 z" fill="rgb(65,83,102)" transform="translate(0,0)"></path>
<path d="M 318.382 986.006 C 332.545 989.435 355.679 992.348 370.798 994.973 L 472.575 1013.19 C 480.387 1031 488.491 1053.38 495.804 1071.75 C 512.644 1114.01 528.882 1156.5 544.513 1199.22 C 449.752 1152.01 371.074 1077.83 318.382 986.006 z" fill="rgb(65,83,102)" transform="translate(0,0)"></path>
<path d="M 983.142 1394.39 C 1018.36 1418.17 1071.11 1424.52 1079.39 1475.61 C 1085.06 1510.63 1068.35 1566.12 1103.49 1592.98 C 1116.35 1602.81 1140.13 1606.83 1155.39 1613.07 C 1199.44 1629.13 1254.65 1656.11 1264.04 1707.13 C 1267.56 1726.28 1267.79 1745.1 1279.05 1762.06 C 1317.18 1819.42 1400.13 1840.38 1418.45 1914.68 C 1420.56 1923.26 1420.46 1938.77 1417.49 1947.27 C 1417.17 1941.18 1417.8 1926.11 1417.12 1922.15 C 1413.94 1904.85 1404.4 1886.28 1390.73 1874.94 C 1348.21 1839.64 1298.14 1828.25 1255.56 1791.21 C 1200.08 1742.95 1241.26 1699.01 1182.68 1649.68 C 1167.03 1636.75 1149.53 1626.23 1130.78 1618.45 C 1097.17 1604.43 1049.14 1598.28 1049.48 1552.1 C 1049.77 1511.94 1059.46 1472.8 1025.44 1441.99 C 1013.18 1430.89 997.432 1423.3 982.581 1415.32 C 983.162 1410.26 983.05 1399.87 983.142 1394.39 z" fill="rgb(212,122,57)" transform="translate(0,0)"></path>
<path d="M 1193.46 1317.97 C 1201.67 1213.22 1277.22 1177.57 1365.6 1146.42 C 1352.36 1179.12 1334.33 1214.99 1317.8 1246.09 C 1310.63 1259.59 1302.28 1275.78 1294.23 1288.46 C 1335.32 1270.7 1346.49 1294.81 1384.01 1296.24 C 1399.97 1296.85 1424.99 1282.02 1444.28 1285.32 C 1487.89 1292.78 1482.19 1312.21 1532.51 1300.81 L 1532.94 1302.15 C 1488.26 1316.42 1483.53 1299.02 1442.1 1292.53 C 1427.76 1290.28 1399.86 1307.84 1382.97 1305.91 C 1338.65 1305.53 1340.19 1277.91 1291.41 1295.18 C 1283.69 1305.17 1279.53 1311.2 1269.77 1319.43 C 1301.66 1309.67 1315.34 1307.24 1346.88 1321.32 C 1355.06 1324.98 1368.1 1328.52 1377.12 1328.6 C 1417.26 1328.94 1421.3 1308.59 1463.22 1325.8 L 1462.07 1327.56 C 1441.69 1315.79 1415.28 1328.94 1394.41 1333.41 C 1360.4 1340.69 1345.22 1323.61 1314.44 1318.85 C 1297 1315.94 1277.95 1328.03 1261.56 1328.72 C 1241.26 1329.56 1213.73 1321.74 1193.46 1317.97 z" fill="rgb(65,83,102)" transform="translate(0,0)"></path>
<path d="M 943.626 932.93 L 975.023 933 C 953.558 969.939 932.381 1030.81 955.246 1070.57 C 987.677 1126.96 1000.92 1190.48 956.153 1245.32 C 945.331 1258.58 931.252 1268.31 921.169 1283.85 C 908.672 1303.03 904.342 1326.4 909.139 1348.79 C 914.82 1375.16 932.39 1396.07 955.609 1409.28 C 962.357 1413.12 975.474 1418.83 981.163 1422.65 L 982.464 1423.54 C 982.536 1428.86 982.939 1438.42 982.556 1443.4 C 972.448 1433.47 952.216 1417.77 939.571 1411.81 C 909.932 1397.85 888.761 1397.16 876.269 1362.47 C 863.363 1326.63 862.848 1293.99 893.418 1267.18 C 903.437 1258.39 914.844 1251.19 923.925 1241.41 C 950.959 1213.02 962.326 1164.15 947.816 1127.35 C 941.09 1110.28 932.406 1094.04 925.911 1076.5 C 907.007 1025.43 921.607 980.198 943.626 932.93 z" fill="rgb(65,83,102)" transform="translate(0,0)"></path>
<path d="M 530.243 1123.11 C 558.611 1122.22 586.174 1120.18 614.376 1118.53 C 644.222 1173.65 668.735 1231.74 698.392 1286.99 C 699.581 1289.21 699.957 1289.05 702.009 1289.88 C 703.829 1290.25 703.938 1290.43 705.858 1291.32 C 671.797 1302.53 651.081 1309.99 617.196 1294.2 C 581.018 1277.35 561.178 1301.28 527.5 1300.31 C 505.993 1299.69 496.371 1284.81 471.066 1292.24 L 469.765 1290.63 C 496.53 1279.81 509.334 1293.88 528.958 1292.27 C 567.113 1289.15 571.007 1274.12 612.555 1281.62 C 608.516 1275.54 604.765 1268.81 600.741 1262.55 C 596.416 1250.97 582.642 1226.43 576.509 1214.59 C 560.756 1184.27 545.333 1153.77 530.243 1123.11 z" fill="rgb(65,83,102)" transform="translate(0,0)"></path>
<path d="M 658.249 1174.28 C 697.951 1191 736.622 1206.3 776.698 1221.96 C 793.201 1228.41 825.293 1240.22 839.264 1247.82 C 825.039 1281.06 816.651 1309.12 820.485 1346.01 L 821.07 1351.37 L 819.908 1352.57 C 805.785 1350.87 797.999 1360.91 782.876 1362.22 C 758.682 1364.31 741.239 1351.72 718.105 1350.85 C 676.578 1354.07 668.66 1376.6 625.131 1350.86 L 627.617 1349.25 C 665.55 1367.07 682.105 1344.32 718.584 1342.26 C 738.332 1341.14 755.14 1352.86 774.507 1355 C 787.112 1356.39 800.05 1349.99 811.055 1350.09 L 811.872 1348.23 C 809.879 1348.08 807.888 1347.92 805.899 1347.74 C 760.895 1343.57 747.371 1322.68 720.525 1290.44 C 719.823 1289.11 719.802 1288.84 718.788 1287.78 C 693.285 1249.12 680.136 1213.69 658.249 1174.28 z" fill="rgb(65,83,102)" transform="translate(0,0)"></path>
<path d="M 819.181 1346.85 C 815.761 1350.09 815.864 1349.84 811.055 1350.09 L 811.872 1348.23 C 814.583 1347.83 816.515 1347.46 819.181 1346.85 z" fill="rgb(147,150,153)" transform="translate(0,0)"></path>
<path d="M 1693.1 1013.4 C 1704.21 1011.85 1723 1013.42 1734.39 1014.42 C 1696.94 1071.62 1624.38 1129.52 1567.41 1166.4 C 1553.56 1175.37 1534.1 1186.01 1519.42 1194.38 C 1509.75 1199.38 1501.52 1204.62 1491.23 1208.43 C 1498.3 1193.06 1515.05 1167.41 1524.37 1151.65 L 1595.05 1032.63 C 1630.08 1022.93 1656.44 1017.09 1693.1 1013.4 z" fill="rgb(65,83,102)" transform="translate(0,0)"></path>
<path d="M 1231.99 1415.35 C 1256.86 1421.74 1272.54 1425.89 1287.01 1449.62 C 1307.58 1483.37 1295.3 1523.14 1317.6 1555.62 C 1336.6 1583.29 1357.45 1588.8 1386.76 1600.65 C 1401.2 1606.5 1424.41 1620.72 1435.3 1631.94 C 1483.13 1681.28 1450.79 1714.77 1522.65 1758.54 C 1579.91 1793.42 1640.25 1792.79 1686.16 1842.62 C 1683.73 1842.81 1681.31 1843.05 1678.89 1843.33 C 1621.32 1797.66 1548.18 1809.29 1483.84 1767.32 C 1420.72 1726.13 1452.8 1696.91 1413.14 1648.47 C 1388.14 1617.94 1331.01 1607.17 1300.54 1582.81 C 1263.53 1553.32 1273.35 1519.04 1270.45 1478.84 C 1268.6 1453.01 1259.38 1441.36 1239.96 1425.7 C 1238.29 1421.63 1235.02 1418.67 1231.99 1415.35 z" fill="rgb(65,83,102)" transform="translate(0,0)"></path>
<path d="M 981.796 932.923 L 1012.49 933.226 C 991.763 960.342 978.472 1020.13 987.874 1052.1 C 1002.63 1102.27 1031.9 1142.6 1021.37 1198.71 C 1010.43 1256.96 949.871 1282.73 957.476 1348.53 C 959.909 1369.58 967.898 1380.51 983.142 1394.39 C 983.05 1399.87 983.162 1410.26 982.581 1415.32 C 956.339 1402.57 929.778 1386.69 921.719 1358 C 904.906 1298.14 952.427 1267.62 979.654 1225.8 C 998.746 1193.6 995.594 1130.07 976.875 1099.35 C 938.498 1036.36 947.479 996.234 981.796 932.923 z" fill="rgb(65,83,102)" transform="translate(0,0)"></path>
<path d="M 549.281 807.928 L 550.343 808.078 C 550.37 810.476 436.343 976.32 428.911 985.219 C 403.122 985.384 355.838 980.728 329.242 978.325 L 318.789 977.531 C 375.732 897.636 459.243 843.669 549.281 807.928 z" fill="rgb(65,83,102)" transform="translate(0,0)"></path>
<path d="M 359.8 579.332 L 361.082 579.561 C 375.191 582.214 387.143 591.088 399.6 591.166 C 424.85 591.324 439.628 576.171 467.039 575.071 C 492.36 574.055 507.525 588.962 529.47 586.923 C 550.109 585.006 564.944 574.753 587.688 574.874 C 608.45 574.984 626.472 587.266 644.395 585.657 C 664.12 583.885 676.648 574.476 698.607 573.873 C 720.895 573.262 738.858 585.653 757.485 584.769 C 778.485 583.772 791.008 571.603 815.339 573.553 C 834.414 575.082 853.388 586.904 869.464 586.657 C 890.665 586.332 901.715 573.441 926.599 574.606 C 948.345 575.623 962.852 587.055 981.964 587.056 C 1003.2 587.058 1018.89 573.599 1043.01 574.48 C 1067.65 575.38 1078.76 589.586 1102.27 587.746 C 1124.11 586.036 1138.38 574.246 1161.21 574.751 C 1183.28 575.238 1195.36 588.592 1216.53 588.89 C 1236.12 589.166 1251.5 579.346 1271.18 576.94 C 1293.99 574.153 1311.41 586.313 1331.79 586.437 C 1349.85 586.547 1366.92 574.89 1387.54 575.069 C 1408.55 575.251 1422.82 585.528 1441.83 586.917 C 1459.35 588.198 1476.89 575.586 1495.96 575.788 C 1517.88 576.019 1529.88 587.561 1550.75 589.885 C 1567.25 591.72 1589.43 577.596 1603.93 577.87 C 1646 578.665 1642.63 598.964 1689.19 582.884 C 1673.17 592.451 1661.16 597.409 1641.49 592.673 C 1634.32 590.947 1623.42 586.604 1616.56 585.856 C 1591.66 583.142 1578.21 599.839 1551.71 599.091 C 1532.73 598.555 1514.95 587.995 1499.04 589.76 C 1478.77 592.007 1465.64 603.023 1443.35 603.189 C 1422.64 603.343 1405.31 590.29 1387.5 590.726 C 1367.64 591.211 1352.15 603.877 1329.47 601.288 C 1310.66 599.139 1295.97 587.14 1279.01 586.463 C 1256.22 585.552 1239.56 598.21 1214.87 596.24 C 1194.84 594.642 1180.12 582.096 1162.51 581.724 C 1140.33 581.255 1124.04 594.75 1099.77 595.15 C 1074.62 595.565 1063.51 581.845 1040.65 581.568 C 1020.36 581.322 1005.4 595.7 983.595 596.524 C 962.453 597.324 947.595 584.46 928.499 584.782 C 907.692 585.132 893.381 599.525 870.513 599.916 C 847.955 600.302 834.17 587.991 813.457 587.682 C 795.032 587.407 778.559 598.199 758.549 598.677 C 736.855 599.194 719.926 586.737 700.362 586.313 C 681.241 585.898 666.842 597.402 645.696 598.223 C 620.546 599.2 610.318 585.806 587.997 584.5 C 570.631 583.483 551.304 595.568 532.555 596.909 C 505.759 598.824 494.184 582.635 467.347 582.567 C 440.933 582.501 425.97 599.316 400.231 597.328 C 384.234 596.093 373.303 586.078 358.988 581.651 L 359.8 579.332 z" fill="rgb(65,83,102)" transform="translate(0,0)"></path>
<path d="M 1160.66 934.174 L 1193.35 934.589 C 1185.68 953.164 1180.15 972.554 1176.88 992.383 C 1168.23 1045.41 1183.47 1066.46 1206.48 1110.79 C 1216.78 1130.64 1218.25 1160.13 1217.62 1182.18 C 1216.59 1217.74 1193.43 1243.97 1184.86 1277.46 C 1172.69 1324.44 1174.05 1400.37 1231.99 1415.35 C 1235.02 1418.67 1238.29 1421.63 1239.96 1425.7 C 1222.12 1415.38 1211.52 1411.7 1191.96 1405.74 C 1178.16 1401.54 1164.19 1390.69 1158.5 1377.07 C 1143.62 1341.46 1145.99 1294.06 1161.06 1258.91 C 1167.88 1243.01 1177.97 1228.25 1183.93 1212.66 C 1197.22 1179.63 1192.65 1133.02 1174.35 1102.55 C 1153.76 1068.26 1139.91 1045.14 1142.85 1003 C 1144.65 977.263 1151.28 958.437 1160.66 934.174 z" fill="rgb(212,122,57)" transform="translate(0,0)"></path>
<path d="M 983.056 1455.97 C 1011.79 1495.33 981.901 1551.19 1008.4 1585.47 C 1036.96 1622.41 1087.31 1626.28 1123.12 1663.6 C 1170.84 1713.33 1134.3 1743.09 1175.84 1789.45 C 1200.06 1816.47 1219.5 1823.61 1245.6 1844.03 C 1277.72 1869.15 1313.12 1903.62 1308.75 1947.58 L 1306.67 1947.22 C 1307.19 1941.96 1306.95 1936.64 1305.96 1931.44 C 1289.78 1842.13 1113.16 1844.22 1107.07 1740.5 C 1106 1722.29 1105.53 1692.99 1092.59 1678.44 C 1071.66 1654.91 1039.92 1636.31 1013.77 1618.65 C 1012.42 1614.99 994.966 1594.92 990.984 1583.49 C 980.994 1554.8 986.18 1531.15 985.483 1501.75 C 985.115 1486.21 983.272 1471.16 983.056 1455.97 z" fill="rgb(212,122,57)" transform="translate(0,0)"></path>
<path d="M 1447.1 965.728 C 1506.35 970.694 1571.77 994.223 1629.04 1010.22 C 1616.21 1016.76 1600.05 1022.31 1586.56 1027.53 C 1570.49 1033.89 1554.47 1040.38 1538.5 1046.99 C 1494.28 1064.78 1452.91 1082.67 1408.04 1099.76 C 1420.56 1058.38 1436.99 1007.07 1447.1 965.728 z" fill="rgb(65,83,102)" transform="translate(0,0)"></path>
<path d="M 614.36 1678.9 C 591.845 1653.95 591.172 1621.85 616.941 1598.86 C 647.704 1571.43 702.682 1579.74 720.854 1617.96 C 730.66 1638.59 726.875 1663.46 709.716 1678.86 C 737.812 1683.79 750.646 1670.28 777.521 1673.3 C 789.243 1674.61 801.379 1683.89 814.167 1681.57 L 817.549 1683.14 C 796.148 1685.29 785.458 1677.73 766.488 1678.41 C 748.763 1679.05 731.788 1692.18 711.31 1689.82 C 692.749 1687.69 678.021 1679.98 659.702 1679.16 C 641.151 1679.73 627.75 1690.61 606.502 1690.31 C 579.615 1689.94 565.449 1670.87 539.482 1674.9 C 530.704 1676.26 517.772 1681.43 508.39 1684.2 C 565.958 1647.73 572.135 1687.96 614.36 1678.9 z" fill="rgb(211,13,9)" transform="translate(0,0)"></path>
<path d="M 645.811 1667.08 C 628.682 1659.69 622.75 1645.32 630.575 1627.63 C 645.27 1594.4 691.827 1601.55 698.888 1636 C 701.486 1648.67 695.781 1662.25 683.882 1669.25 C 668.342 1667.79 662.613 1665.39 645.811 1667.08 z" fill="rgb(211,13,9)" transform="translate(0,0)"></path>
<path d="M 661.955 1613.23 C 702.457 1614.79 700.688 1667.7 668.775 1664.89 C 662.027 1663.81 651.562 1663.44 645.888 1659.52 C 625.387 1645.32 636.87 1618.2 658.554 1613.87 L 661.955 1613.23 z" fill="rgb(255,255,255)" transform="translate(0,0)"></path>
<path d="M 645.042 1636.03 C 659.651 1608.24 695.786 1625.78 679.326 1651.27 C 676.834 1655.1 672.95 1657.81 668.498 1658.82 C 657.337 1661.36 648.665 1655.12 644.259 1645.36 C 644.407 1641.95 644.704 1639.37 645.042 1636.03 z" fill="rgb(211,13,9)" transform="translate(0,0)"></path>
<path d="M 647.495 1639.15 L 648.317 1637.58 C 660.639 1613.17 693.232 1641.24 666.021 1651.87 C 661.24 1653.73 651.547 1646.94 647.883 1643.08 C 647.765 1641.74 647.648 1640.49 647.495 1639.15 z" fill="rgb(255,255,255)" transform="translate(0,0)"></path>
<path d="M 645.811 1667.08 C 662.613 1665.39 668.342 1667.79 683.882 1669.25 C 686.078 1670.03 687.616 1670.59 689.754 1671.55 C 693.256 1673.84 694.489 1674.82 698.18 1674.52 L 703.005 1676.58 C 705.799 1678.38 706.473 1678.25 709.716 1678.86 C 737.812 1683.79 750.646 1670.28 777.521 1673.3 C 789.243 1674.61 801.379 1683.89 814.167 1681.57 L 817.549 1683.14 C 796.148 1685.29 785.458 1677.73 766.488 1678.41 C 748.763 1679.05 731.788 1692.18 711.31 1689.82 C 692.749 1687.69 678.021 1679.98 659.702 1679.16 C 641.151 1679.73 627.75 1690.61 606.502 1690.31 C 579.615 1689.94 565.449 1670.87 539.482 1674.9 C 530.704 1676.26 517.772 1681.43 508.39 1684.2 C 565.958 1647.73 572.135 1687.96 614.36 1678.9 C 617.07 1678.21 617.744 1677.48 620.052 1675.89 C 622.315 1674.58 624.558 1673.96 627.032 1673.13 C 630.684 1672.01 631.495 1671.63 634.8 1669.94 C 638.285 1668.43 642.154 1668.02 645.811 1667.08 z" fill="rgb(74,87,103)" transform="translate(0,0)"></path>
<path d="M 627.032 1673.13 C 608.999 1651.5 606.789 1628.52 629.005 1606.92 C 638.332 1597.85 654.158 1593.2 666.915 1594.52 C 686.713 1597.44 698.125 1611.27 710.494 1625.5 C 715.703 1631.49 712.625 1639.07 712.961 1645 C 713.622 1656.67 699.767 1668.53 698.18 1674.52 C 694.489 1674.82 693.256 1673.84 689.754 1671.55 C 687.616 1670.59 686.078 1670.03 683.882 1669.25 C 695.781 1662.25 701.486 1648.67 698.888 1636 C 691.827 1601.55 645.27 1594.4 630.575 1627.63 C 622.75 1645.32 628.682 1659.69 645.811 1667.08 C 642.154 1668.02 638.285 1668.43 634.8 1669.94 C 631.495 1671.63 630.684 1672.01 627.032 1673.13 z" fill="rgb(211,13,9)" transform="translate(0,0)"></path>
<path d="M 634.8 1669.94 C 604.37 1642.24 625.282 1604.57 660.996 1601.14 C 700.248 1597.38 724.928 1647.58 689.754 1671.55 C 687.616 1670.59 686.078 1670.03 683.882 1669.25 C 695.781 1662.25 701.486 1648.67 698.888 1636 C 691.827 1601.55 645.27 1594.4 630.575 1627.63 C 622.75 1645.32 628.682 1659.69 645.811 1667.08 C 642.154 1668.02 638.285 1668.43 634.8 1669.94 z" fill="rgb(255,255,255)" transform="translate(0,0)"></path>
<path d="M 620.052 1675.89 C 610.804 1662.74 602.678 1651.28 605.406 1634.02 C 607.429 1621.22 614.749 1610.13 625.214 1602.61 C 638.9 1592.69 656.053 1588.83 672.667 1591.92 C 715.587 1599.71 737.441 1644.7 703.005 1676.58 L 698.18 1674.52 C 699.767 1668.53 713.622 1656.67 712.961 1645 C 712.625 1639.07 715.703 1631.49 710.494 1625.5 C 698.125 1611.27 686.713 1597.44 666.915 1594.52 C 654.158 1593.2 638.332 1597.85 629.005 1606.92 C 606.789 1628.52 608.999 1651.5 627.032 1673.13 C 624.558 1673.96 622.315 1674.58 620.052 1675.89 z" fill="rgb(255,255,255)" transform="translate(0,0)"></path>
<path d="M 559.534 964.392 C 561.144 964.073 563.371 964.11 565.073 964.057 C 565.572 964.411 566.072 964.766 566.571 965.121 C 566.582 972.842 566.57 986.42 567.003 993.54 C 569.211 1029.89 586.63 1065.71 605.175 1096.4 C 584.916 1102 563.147 1109.24 542.82 1115.41 C 538.59 1109.04 535.899 1104.3 532.26 1097.55 L 464.608 973.877 C 495.732 970.426 528.182 967.666 559.534 964.392 z" fill="rgb(65,83,102)" transform="translate(0,0)"></path>
<path d="M 1014.25 932.882 L 1035.64 933.103 C 1028.73 950.82 1024.15 964.621 1020.48 983.466 C 1001.07 1083.23 1087.15 1137 1044.49 1236.72 C 1038.99 1241.19 1034.46 1250.67 1029.98 1256.07 C 1007.25 1283.43 991.205 1309.01 987.123 1344.88 C 985.49 1359.24 986.87 1372.93 985.719 1385.91 C 960.571 1354.57 967.607 1311.85 986.493 1278.85 C 1001.55 1252.54 1020.1 1236.24 1026.96 1204.51 C 1035.72 1164 1024.99 1127.85 1009.75 1090.43 C 1000.01 1067.96 995.058 1050.4 993.695 1026.15 C 991.661 989.977 1006.98 965.082 1014.25 932.882 z" fill="rgb(65,83,102)" transform="translate(0,0)"></path>
<path d="M 877.71 933.089 L 900.961 933.056 C 868.12 990.188 862.574 1041.43 889.745 1102.13 C 898.116 1120.83 907.486 1143.36 907.876 1163.8 C 908.351 1188.63 897.651 1209.8 879.336 1226.16 C 870.684 1233.89 859.501 1242.44 851.802 1250.74 L 850.805 1251.83 C 849.07 1253.89 847.276 1255.89 845.427 1257.85 L 843.7 1253.85 C 849.143 1240.96 856.098 1229.32 862.667 1217.1 C 880.685 1183.56 879.846 1150.41 867.599 1115.18 C 863.173 1102.45 858.204 1090.34 853.893 1077.31 C 837.24 1026.98 853.563 978.385 877.71 933.089 z" fill="rgb(65,83,102)" transform="translate(0,0)"></path>
<path d="M 1482.04 276.205 C 1482.28 265.445 1484.43 212.308 1480.75 209.485 C 1464.31 196.877 1464.06 180.475 1471.49 157.879 C 1473.46 151.865 1483.87 151.342 1488.64 156.645 C 1501.51 170.965 1497.82 195.128 1484.91 208.355 C 1484.97 223.614 1485.87 238.775 1485.86 254.47 C 1488.52 250.834 1490.83 246.602 1493.12 242.687 C 1492.85 241.804 1492.6 240.917 1492.36 240.025 C 1488.78 226.513 1491.75 199.54 1508.43 196.093 C 1531.35 191.357 1517.72 232.176 1509.61 236.277 C 1495.31 243.516 1495.75 246.889 1485.72 257.972 C 1485.36 267.732 1485.89 279.965 1486.04 289.901 C 1489.57 285.961 1492.47 281.737 1495.57 277.452 C 1495.05 267.989 1497.77 257.193 1504.56 250.349 C 1535.06 219.603 1541.81 261.177 1519.08 278.478 C 1510.97 284.651 1506.31 284.126 1496.46 282.871 C 1491 287.81 1490.09 288.901 1485.94 294.786 C 1485.85 300.89 1484.7 320.108 1487.54 323.845 L 1489.22 325.181 C 1482.42 334.405 1485.28 350.592 1485.13 362.665 L 1486.12 361.608 C 1489.9 357.515 1493.58 350.997 1495.48 344.531 C 1499.97 329.209 1530.35 319.056 1533.16 339.587 C 1534.26 347.705 1514.65 365.094 1505.69 362.908 C 1491.98 360.459 1496.9 355.96 1485.47 367.1 C 1485.41 379.189 1484.02 462.866 1485.94 467.963 L 1481.72 469.757 C 1481.62 439.074 1481.68 408.461 1482.03 377.782 C 1482.12 370.247 1482.59 366.165 1477.5 361.24 L 1480.07 360.607 L 1481.62 359.563 C 1484.95 341.676 1481.3 320.526 1468.4 307.224 C 1465.92 304.673 1456.82 309.458 1446.89 297.005 C 1439.66 287.941 1430.77 258.719 1449.89 261.735 C 1463.59 263.895 1474.62 287.168 1470.04 301.856 C 1474.8 308.623 1478.19 313.51 1482.22 320.682 C 1482.21 307.214 1482.1 293.745 1481.9 280.278 C 1476.65 272.643 1476 268.35 1471.92 260.507 C 1470.55 257.872 1461.4 255.302 1459.14 251.692 C 1454.72 244.429 1451.19 229.582 1453.17 221.349 C 1456.85 206.065 1466.74 207.583 1473.05 220.253 C 1481.09 236.384 1476.08 246.046 1477.22 262.472 C 1477.4 265.112 1480.92 273.431 1482.04 276.205 z" fill="rgb(65,83,102)" transform="translate(0,0)"></path>
<path d="M 1030.91 276.482 C 1030.93 265.716 1032.24 216.368 1029.55 209.796 C 1020.83 202.826 1016.38 197.146 1015.11 185.941 C 1014.28 178.507 1015.78 161.002 1021.36 156.532 C 1040.22 141.437 1047.45 175.295 1044.08 188.001 C 1040.89 200.001 1040.55 200.171 1034.15 208.041 C 1034.84 222.308 1033.44 236.853 1034.26 252.278 C 1035.01 250.975 1038.41 245.012 1038.54 243.728 C 1040.22 227.733 1037.69 203.874 1055.13 195.728 C 1057.36 194.683 1062.97 194.898 1064.84 196.209 C 1075.87 203.949 1065.32 226.211 1059.13 233.632 C 1054.44 239.26 1050.76 242.489 1044.07 241.559 C 1032.81 256.268 1033.26 273.895 1033.21 291.718 C 1036.15 287.802 1039.49 283.108 1042.65 279.462 C 1044.02 263.69 1049.59 253.799 1061 243.052 C 1072.06 232.637 1084.55 245.226 1081.61 256.51 C 1076.36 276.684 1063.66 283.628 1044.99 282.851 C 1040.31 287.451 1037.43 290.446 1033.22 295.49 L 1033.25 324.669 L 1043.41 315.854 C 1046.79 304.109 1048.95 295.65 1060.31 289.653 C 1092.43 272.696 1087.82 315.609 1065.41 322.521 C 1057.61 324.926 1052.18 323.284 1045.68 318.404 L 1033.17 327.966 L 1033.13 358.339 L 1030.12 358.812 L 1029.91 323.357 C 1025.77 318.092 1016.89 304.463 1010.66 305.652 C 998.541 307.969 988.496 288.381 986.644 277.487 C 982.291 251.88 1010.87 260.627 1016.09 278.462 C 1020.04 290.083 1021 291.869 1018.62 304.027 C 1023.52 309.509 1025.97 312.353 1030.12 318.407 C 1030.5 299.65 1033.16 274.704 1018.61 261.087 C 1005.78 249.091 1000.65 243.817 1000.65 224.486 C 1000.65 219.464 1000.91 215.416 1004.74 211.815 C 1025.32 205.063 1029.81 247.019 1021.89 258.822 L 1030.91 276.482 z" fill="rgb(65,83,102)" transform="translate(0,0)"></path>
<path d="M 439.288 619.907 C 491.22 599.456 485.057 622.256 533.776 621.858 C 549.431 621.73 568.679 610.185 586.934 610.797 C 609.088 611.539 623.426 623.401 645.682 621.863 C 664.645 620.553 679.36 611.951 698.43 612.088 C 719.077 612.235 735.139 623.641 755.512 623.277 C 775.99 622.91 791.196 611.759 812.048 612.398 C 830.644 612.947 846.16 623.003 864.998 622.638 C 881.933 622.31 899.021 612.178 915.452 612.483 C 940.669 612.952 952.517 624.945 979.126 620.733 L 979.103 622.232 C 954.212 630.026 937.382 616.064 914.745 616.906 C 897.796 617.536 883.391 627.601 863.444 627.506 C 843.651 627.412 823.897 615.603 806.571 617.378 C 788.029 619.277 775.886 628.378 754.561 628.544 C 733.59 628.707 714.188 616.368 696.289 617.216 C 678.476 618.059 663.757 628.116 642.112 628.131 C 620.463 628.146 604.456 616.188 586.293 616.365 C 569.75 616.526 550.897 628.065 531.035 627.966 C 492.085 627.773 481.677 605.168 441.285 621.434 L 439.288 619.907 z" fill="rgb(74,87,103)" transform="translate(0,0)"></path>
<path d="M 801.072 210.155 C 793.45 206.84 792.657 204.695 789.293 196.77 C 784.772 186.122 783.274 158.387 797.411 154.17 C 819.331 147.633 816.78 190 810.23 201.041 C 808.769 203.508 806.95 205.744 804.831 207.676 C 804.284 222.494 804.076 237.323 804.208 252.151 C 806.825 249.485 811.014 245.81 812.256 242.528 L 811.997 241.366 C 809.186 228.138 813.78 182.014 836.897 197.718 C 845.987 203.894 836.298 230.889 828.051 235.261 C 816.878 243.758 812.266 247.713 804.572 258.903 L 800.976 253.576 L 801.072 210.155 z" fill="rgb(65,83,102)" transform="translate(0,0)"></path>
<path d="M 800.976 253.576 L 804.572 258.903 C 804.341 269.063 804.295 279.227 804.434 289.389 C 810.797 282.614 814.08 280.953 814.735 271.959 C 814.957 275.644 814.662 278.471 815.771 281.983 C 811.403 286.528 808.178 289.794 804.398 294.853 C 803.82 304.713 803.986 314.215 804.066 324.072 C 805.465 324.517 806.646 324.977 808.012 325.499 C 807.682 325.848 804.894 328.799 804.894 328.8 C 803.623 334.963 801.907 354.507 804.606 359.543 L 811.895 356.18 C 811.787 356.861 811.679 357.542 811.57 358.224 L 804.182 365.791 C 803.928 398.514 802.388 437.403 803.425 469.309 C 807.614 462.072 813.025 452.377 818.091 445.945 L 819.263 446.421 C 815.874 457.692 805.641 466.904 803.681 479.359 C 801.709 491.896 806.313 558.337 801.311 564.17 L 801.375 564.193 C 798.102 547.83 802.135 528.971 798.815 511.938 C 794.655 490.592 784.643 469.001 781.24 447.806 L 782.281 447.504 C 787.263 455.082 793.91 481.853 796.955 492.13 L 800.088 488.845 C 799.433 447.868 800.419 406.102 799.88 364.854 C 795.919 360.168 790.416 356.053 785.703 350.77 C 786.284 350.409 786.865 350.048 787.446 349.688 C 792.07 353.089 795.71 356.324 799.996 360.087 C 800.873 332.181 804.128 327.595 786.599 305.672 C 787.219 304.762 787.977 303.711 788.523 302.748 L 799.99 317.735 C 800.215 305.804 801.122 290.668 799.538 279.082 C 799.16 276.316 792.064 263.942 790.271 260.04 C 791.196 259.858 792.119 259.664 793.04 259.457 C 795.529 264.272 798.123 269.031 800.821 273.733 L 800.976 253.576 z" fill="rgb(74,87,103)" transform="translate(0,0)"></path>
<path d="M 800.088 488.845 C 800.105 491.102 800.532 495.903 799.59 497.986 C 799.198 498.853 798.084 496.584 798.021 496.066 C 797.897 495.042 797.266 493.225 796.955 492.13 L 800.088 488.845 z" fill="rgb(236,237,236)" transform="translate(0,0)"></path>
<path d="M 582.399 240.808 C 582.956 241.467 583.514 242.125 584.071 242.784 L 573.874 256.269 C 573.856 262.86 574.204 278.32 573.199 284.134 C 571.815 286.847 572.586 292.386 572.849 295.451 C 573.467 305.715 573.078 316.244 573.855 326.27 C 576.676 322.531 579.093 319.06 582.428 315.761 C 583.173 316.436 583.846 317.101 584.565 317.802 C 579.239 322.534 576.912 325.223 573.169 331.498 C 572.99 338.214 572.002 354.924 573.907 360.279 C 576.218 359.945 575.11 360.322 577.033 358.551 L 579.242 358.9 C 577.269 361.444 575.345 363.865 573.53 366.531 L 573.218 470.077 C 575.46 465.949 587.178 446.335 587.777 444.479 C 591.885 443.93 593.087 444.006 597.32 444.047 C 593.818 444.791 592.068 444.446 590.179 447.627 C 584.491 457.21 578.996 466.856 573.12 476.328 C 573.164 490.171 574.319 556.33 572.196 565.713 C 568.431 557.227 571.259 526.58 569.134 512.716 C 566.329 494.409 553.163 462.862 551.574 446.976 L 554.199 447.363 C 558.731 460.561 563.521 476.79 566.4 490.374 L 570.119 490.847 C 570.175 448.444 569.942 406.042 569.42 363.643 C 564.662 359.505 560.155 356.193 556.858 350.877 L 558.521 349.332 C 562.379 352.869 566.008 356.64 569.686 360.366 C 569.533 349.986 571.951 327.004 567.344 319.023 C 568.452 317.845 568.486 317.572 569.781 317.044 C 568.439 299.455 572.169 279.393 562.453 263.588 C 559.365 258.563 559.422 259.254 554.584 258.106 C 557.131 258.07 559.677 257.994 562.222 257.877 C 563.8 260.855 565.652 263.907 566.608 267.07 C 567.869 266.664 569.126 266.247 570.38 265.82 L 570.795 264.475 C 570.991 262.853 571.197 261.232 571.413 259.612 C 572.157 253.673 572.748 255.337 574.006 251.112 C 576.654 248.314 579.92 243.925 582.399 240.808 z" fill="rgb(74,87,103)" transform="translate(0,0)"></path>
<path d="M 570.119 490.847 C 570.08 494.62 569.745 502.411 567.309 493.543 C 567.012 492.485 566.709 491.429 566.4 490.374 L 570.119 490.847 z" fill="rgb(236,237,236)" transform="translate(0,0)"></path>
<path d="M 570.38 265.82 L 570.209 269.535 C 569.907 276.344 567.184 268.457 566.608 267.07 C 567.869 266.664 569.126 266.247 570.38 265.82 z" fill="rgb(236,237,236)" transform="translate(0,0)"></path>
<path d="M 571.041 1708.36 C 581.191 1710.41 592.193 1714.91 601.499 1715.78 C 622.296 1717.71 641.858 1703.01 662.482 1702.9 C 680.749 1702.79 696.982 1712.9 714.544 1715.08 C 736.142 1717.77 766.553 1696.99 785.557 1714.64 C 784.153 1714.9 784.553 1715.05 783.605 1714.44 C 775.996 1709.61 759.806 1711.16 751.783 1714.28 C 727.278 1723.8 713.257 1724.78 688.382 1716.25 C 682.377 1714.19 671.416 1711.04 664.652 1711.02 C 642.519 1710.96 629.776 1724.6 606.396 1722.85 C 589.408 1721.58 579.915 1713.14 565.134 1710.75 L 563.787 1710.52 C 567.024 1708.3 567.052 1708.85 571.041 1708.36 z" fill="rgb(74,87,103)" transform="translate(0,0)"></path>
<path d="M 570.458 208.851 C 560.573 203.384 556.252 195.197 555.729 184.204 C 553.754 142.718 588.421 141.952 584.135 184.562 C 583.169 194.168 581.459 200.823 573.78 207.356 C 573.574 221.669 573.418 236.853 574.006 251.112 C 572.748 255.337 572.157 253.673 571.413 259.612 C 571.197 261.232 570.991 262.853 570.795 264.475 C 569.438 256.211 570.398 219.135 570.458 208.851 z" fill="rgb(65,83,102)" transform="translate(0,0)"></path>
<path d="M 612.64 1383 C 626.368 1378.56 647.341 1389.87 663.888 1388.12 C 686.212 1385.75 700.314 1374.09 723.377 1373.8 C 744.872 1373.54 759.768 1383.97 780.176 1385.48 C 796.493 1386.68 807.859 1376.71 824.438 1380.76 L 822.67 1382.31 C 811.627 1380.95 798.65 1391.55 781.883 1392.66 C 760 1394.11 739.869 1381.3 724.439 1381.27 C 702.12 1381.24 683.418 1397.72 655.736 1394.2 C 638.809 1392.04 632.485 1385.83 619.8 1383.41 C 619.176 1383.5 618.551 1383.58 617.927 1383.67 L 613.064 1384.36 L 612.64 1383 z" fill="rgb(74,87,103)" transform="translate(0,0)"></path>
<path d="M 617.927 1383.67 C 619.106 1383.08 618.609 1382.94 619.8 1383.41 C 619.176 1383.5 618.551 1383.58 617.927 1383.67 z" fill="rgb(147,150,153)" transform="translate(0,0)"></path>
<path d="M 1259.66 467.612 C 1263.1 465.941 1269.5 454.007 1270.11 450.257 C 1274.13 425.653 1295.19 406.301 1312.56 388.404 C 1307.65 400.901 1294.58 438.32 1283.63 443.026 L 1282.17 443.64 C 1273.55 447.346 1260.5 473.082 1260.09 482.338 C 1258.9 508.502 1260.99 535.483 1259.61 561.595 C 1259.8 562.667 1259.96 563.006 1259.85 564.044 L 1259.33 564.713 L 1259.43 564.811 C 1256.84 564.834 1256.65 558.598 1256.46 557.215 C 1255.15 537.205 1258.64 518.777 1251.65 499.207 C 1245.85 482.971 1242.93 463.095 1236.32 447.281 L 1238.75 446.012 C 1245.75 464.531 1250.2 486.543 1256.39 502.197 C 1257.18 490.905 1255.96 480.123 1256.53 470.293 C 1257.12 469.487 1258.78 468.31 1259.66 467.612 z" fill="url(#Gradient3)" transform="translate(0,0)"></path>
<path d="M 1256.46 557.215 L 1256.74 556.193 C 1256.97 555.138 1257.22 553.151 1257.98 552.343 L 1258.19 552.3 C 1258.43 552.517 1259.27 560.184 1259.61 561.595 C 1259.8 562.667 1259.96 563.006 1259.85 564.044 L 1259.33 564.713 L 1259.43 564.811 C 1256.84 564.834 1256.65 558.598 1256.46 557.215 z" fill="rgb(65,83,102)" transform="translate(0,0)"></path>
<path d="M 1256.57 209.539 C 1254.18 207.859 1250.09 206.812 1248.6 204.644 C 1242.67 195.871 1241.58 184.334 1242.36 174.003 C 1242.78 166.455 1244.98 155.391 1253.48 153.091 C 1266.61 149.541 1269.64 164.582 1270.45 174.526 C 1271.2 183.809 1270.87 198.73 1262.6 205.326 C 1260.99 206.609 1260.09 207.467 1258.81 208.905 C 1258.12 209.194 1257.3 209.358 1256.57 209.539 z" fill="rgb(65,83,102)" transform="translate(0,0)"></path>
<path d="M 987.567 388.188 C 993.427 397.71 1015.15 429.816 1015.97 441.058 C 1016.02 441.687 1013.58 446.782 1014.18 448.911 C 1018.42 464.017 1024.32 486.695 1029.48 500.984 C 1029.55 494.646 1029.33 482.915 1029.92 476.999 L 1033.28 476.267 C 1032.66 488.808 1035.2 557.055 1032.1 564.45 C 1027.45 560.96 1032.35 525.196 1028.04 510.591 C 1023.27 494.427 1016.18 465.638 1010.4 448.638 C 1010.43 448.715 1002.67 444.531 1001.89 443.924 C 992.685 436.765 987.056 401.069 984.67 390.064 L 987.567 388.188 z" fill="rgb(65,83,102)" transform="translate(0,0)"></path>
<path d="M 1261.72 287.313 C 1269.16 283.049 1269.18 278.879 1270.05 271.003 C 1271.57 257.389 1284.22 239.084 1299.5 240.165 C 1306.79 240.682 1309.55 249.259 1307.81 255.485 C 1304.85 266.081 1299.29 275.628 1289.97 281.81 C 1284.23 285.614 1280.15 283.944 1274.02 282.787 C 1270.64 285.152 1267.4 287.687 1264 290.11 L 1261.72 287.313 z" fill="rgb(65,83,102)" transform="translate(0,0)"></path>
<path d="M 573.199 284.134 C 573.358 284.643 574.051 287.335 574.58 287.738 C 576.021 287.388 582.108 279.721 582.434 278.614 C 585.956 266.657 586.239 253.224 598.478 245.481 C 631.049 224.874 624.41 270.17 603.955 280.481 C 593.564 285.719 595.214 284.328 583.829 282.758 C 577.478 288.795 577.995 288.505 572.849 295.451 C 572.586 292.386 571.815 286.847 573.199 284.134 z" fill="rgb(65,83,102)" transform="translate(0,0)"></path>
<path d="M 571.487 1742.66 C 593.836 1737.63 601.014 1748.84 620.665 1748.41 C 638.695 1748.03 658.163 1735.52 677.505 1737.5 C 695.902 1739.37 710.583 1749.01 729.008 1749.07 C 744.993 1749.13 758.072 1737.96 773.513 1742.79 L 771.637 1744.27 C 756.923 1742.98 745.077 1756.07 723.868 1755.2 C 702.997 1754.34 689.552 1744.27 671.47 1744.39 C 656.618 1744.49 637.154 1756.46 619.945 1754.83 C 600.984 1753.04 592.412 1742.33 573.365 1744.38 L 571.487 1742.66 z" fill="rgb(74,87,103)" transform="translate(0,0)"></path>
<path d="M 814.735 271.959 C 817.383 244.504 856.37 222.829 851.013 258.004 C 848.894 271.921 833.302 288.443 815.771 281.983 C 814.662 278.471 814.957 275.644 814.735 271.959 z" fill="rgb(65,83,102)" transform="translate(0,0)"></path>
<path d="M 1262.29 323.533 C 1264.55 320.067 1267.61 316.848 1269.41 313.663 C 1270.45 311.813 1270.94 308.002 1272.5 304.98 C 1277.2 296.016 1286.66 288.543 1296.51 286.149 C 1299.37 285.453 1303.48 285.721 1306.07 287.512 C 1314.97 293.666 1307.12 308.541 1302.47 314.935 C 1299.29 319.303 1292.1 323.337 1286.54 323.458 C 1281.27 323.768 1276.42 323.776 1272.46 320.014 C 1272.16 319.729 1270.95 319.05 1270.62 319.221 C 1268.29 320.444 1264.36 325.208 1262.64 327.038 L 1262.29 323.533 z" fill="rgb(65,83,102)" transform="translate(0,0)"></path>
<path d="M 567.344 319.023 C 564.23 317.547 556.465 305.953 555.318 305.676 C 548.111 304.989 544.216 307.398 538.806 301.162 C 518.877 278.186 525.363 238.659 554.619 275.344 C 561.598 284.096 560.488 293.403 558.066 302.999 C 561.378 307.619 565.505 313.348 569.781 317.044 C 568.486 317.572 568.452 317.845 567.344 319.023 z" fill="rgb(65,83,102)" transform="translate(0,0)"></path>
<path d="M 813.257 316.312 C 813.565 315.006 813.767 313.924 814.058 312.502 C 815.931 303.343 820.462 298.138 827.522 292.032 C 833.766 286.632 846.099 282.138 852.178 290.423 C 854.076 293.01 853.221 300.248 852.512 303.085 C 848.824 317.047 833.927 327.435 819.62 322.42 C 818.147 321.904 815.718 320.167 814.048 321.058 C 811.855 322.357 810.312 324.28 808.012 325.499 C 806.646 324.977 805.465 324.517 804.066 324.072 C 807.318 323.049 810.739 318.884 813.257 316.312 z" fill="rgb(65,83,102)" transform="translate(0,0)"></path>
<path d="M 1261.19 250.936 C 1267.91 244.548 1267.29 244.001 1266.28 235.984 C 1265.61 222.903 1267.51 211.893 1275.14 200.974 C 1282.05 191.08 1296.06 193.685 1296.13 204.988 C 1296.24 221.957 1287.39 237.756 1271.91 243.867 C 1271.28 244.118 1262.38 255.624 1260.82 257.508 C 1260.74 263.147 1260.86 267.77 1260.14 273.381 C 1259.48 268.507 1259.19 262.626 1259.63 257.738 C 1259.92 254.509 1257.61 254.887 1258.08 252.551 C 1258.63 251.9 1260.39 251.288 1261.19 250.936 z" fill="rgb(65,83,102)" transform="translate(0,0)"></path>
<path d="M 1242.94 306.021 C 1232.6 307.76 1233 307.334 1225.46 301.118 C 1204.66 283.968 1209.9 239.524 1238.65 272.338 C 1247.87 282.872 1246.58 292.627 1245.29 305.183 C 1244.51 305.463 1243.73 305.742 1242.94 306.021 z" fill="rgb(65,83,102)" transform="translate(0,0)"></path>
<path d="M 786.599 305.672 C 773.204 308.198 769.948 303.163 762.398 290.659 C 758.232 283.761 756.682 272.763 758.923 264.977 C 760.871 258.208 769.14 261.488 773.579 263.826 C 781.358 268.008 787.141 275.128 789.639 283.599 C 791.645 290.293 791.831 296.45 788.523 302.748 C 787.977 303.711 787.219 304.762 786.599 305.672 z" fill="rgb(65,83,102)" transform="translate(0,0)"></path>
<path d="M 1256.57 209.539 C 1257.3 209.358 1258.12 209.194 1258.81 208.905 C 1260.27 222.539 1260.7 237.169 1261.19 250.936 C 1260.39 251.288 1258.63 251.9 1258.08 252.551 C 1257.61 254.887 1259.92 254.509 1259.63 257.738 C 1259.19 262.626 1259.48 268.507 1260.14 273.381 C 1260.22 277.78 1259.35 285.034 1261.72 287.313 L 1264 290.11 C 1260.12 293.903 1259.89 295.184 1259.92 300.953 C 1259.95 305.858 1258.97 319.088 1260.95 323.116 L 1262.29 323.533 L 1262.64 327.038 C 1258.75 331.848 1258.34 354.914 1261.04 360.348 C 1263.64 359.718 1262.4 360.243 1264.48 357.994 L 1266.48 358.672 L 1260.03 367.248 L 1259.66 467.612 C 1258.78 468.31 1257.12 469.487 1256.53 470.293 C 1257.3 436.917 1256.78 401.483 1256.8 367.944 C 1250.36 357.512 1247.86 359.372 1241.23 351.141 C 1244.16 349.702 1244.43 350.124 1245.48 347.279 C 1246.44 352.075 1253.12 357.951 1256.75 361.774 L 1256.99 326.111 C 1252.02 317.878 1248.93 313.651 1242.94 306.021 C 1243.73 305.742 1244.51 305.463 1245.29 305.183 C 1248.25 307.394 1254.09 315.394 1256.71 318.76 C 1257.06 295.024 1259.91 281.249 1245.48 260.882 L 1248.25 259.446 C 1250.16 262.611 1252.9 266.874 1254.42 270.112 C 1255.46 269.477 1256.49 268.823 1257.5 268.149 C 1257.47 248.609 1257.16 229.07 1256.57 209.539 z" fill="rgb(74,87,103)" transform="translate(0,0)"></path>
<path d="M 1257.5 268.149 C 1258.08 273.966 1257.78 277.824 1254.42 270.112 C 1255.46 269.477 1256.49 268.823 1257.5 268.149 z" fill="rgb(236,237,236)" transform="translate(0,0)"></path>
<path d="M 556.858 350.877 C 544.457 351.829 541.364 351.159 532.544 340.839 C 527.807 336.91 522.528 320.051 524.953 314.472 C 535.152 291.006 565.549 331.037 558.947 348.147 L 558.521 349.332 L 556.858 350.877 z" fill="rgb(65,83,102)" transform="translate(0,0)"></path>
<path d="M 990.982 307.805 C 1008.47 311.29 1021.59 330.408 1018.76 348.002 C 1018.37 350.409 1013.66 352.105 1011.87 352.903 C 992.2 349.486 984.719 335.408 984.444 315.986 C 984.398 312.686 987.447 310.18 989.92 308.533 L 990.982 307.805 z" fill="rgb(65,83,102)" transform="translate(0,0)"></path>
<path d="M 505.116 1319.2 C 552.709 1329.57 547.065 1314.1 590.812 1311.83 C 609.718 1310.84 632.563 1325.3 654.676 1327.53 C 688.084 1330.9 708.657 1306.19 738.863 1323.65 C 706.303 1313.28 696.329 1332.12 662.247 1332.97 C 636.302 1333.62 613.048 1316.76 594.286 1316.97 C 548.403 1317.49 554.195 1335.98 504.952 1321.55 L 505.116 1319.2 z" fill="rgb(74,87,103)" transform="translate(0,0)"></path>
<path d="M 1468.35 350.05 C 1466.04 350.599 1464.27 352.489 1462.51 352.364 C 1446.46 351.157 1435.53 332.374 1436.25 317.483 C 1437.22 297.57 1458.53 314.473 1464 321.995 C 1471.4 332.167 1471.72 337.94 1470.32 349.574 L 1468.35 350.05 z" fill="rgb(65,83,102)" transform="translate(0,0)"></path>
<path d="M 582.428 315.761 C 582.87 314.405 584.086 310.89 584.159 309.501 C 585.221 289.389 632.986 272.305 621.929 303.489 C 619.224 311.249 613.477 317.574 606.011 321.008 C 597.599 324.842 591.396 323.763 584.565 317.802 C 583.846 317.101 583.173 316.436 582.428 315.761 z" fill="rgb(65,83,102)" transform="translate(0,0)"></path>
<path d="M 1492.79 318.474 C 1495.27 314.319 1496.19 310.375 1497.8 305.988 C 1506.67 281.873 1550.27 275.042 1529.82 310.965 C 1527.24 315.496 1522.74 318.429 1518.42 320.788 C 1509.23 327.675 1498.36 317.74 1494.4 318.8 L 1492.79 318.474 z" fill="rgb(65,83,102)" transform="translate(0,0)"></path>
<path d="M 1206.2 1335.28 C 1216.24 1339.16 1229.62 1344.77 1240.21 1346.15 C 1267.35 1349.72 1282.3 1335.61 1311 1340.27 C 1337.14 1344.52 1354.82 1363.29 1379.12 1364.95 C 1402.72 1366.56 1417.96 1350.27 1444.28 1357.96 L 1442.73 1359.37 C 1420.91 1353.17 1405.97 1370.72 1381.1 1369.59 C 1350.46 1368.19 1339.84 1350.61 1311.95 1345.03 C 1285.03 1339.65 1263.01 1355.59 1236.43 1350.1 C 1224.8 1347.7 1213.47 1341.79 1202.19 1337.34 L 1206.2 1335.28 z" fill="rgb(74,87,103)" transform="translate(0,0)"></path>
<path d="M 577.033 358.551 C 579.172 355.02 581.067 351.646 582.253 346.585 C 585.539 332.552 615.047 317.384 620.531 336.612 C 623.514 347.073 606.472 362.553 596.512 363.022 C 589.712 364.198 585.322 361.108 579.242 358.9 L 577.033 358.551 z" fill="rgb(65,83,102)" transform="translate(0,0)"></path>
<path d="M 1241.23 351.141 C 1221.95 357.014 1203.35 326.073 1213.6 310.579 C 1214.39 309.576 1216.18 308.545 1217.46 308.734 C 1235.4 311.379 1246.77 329.659 1245.48 347.279 C 1244.43 350.124 1244.16 349.702 1241.23 351.141 z" fill="rgb(65,83,102)" transform="translate(0,0)"></path>
<path d="M 582.399 240.808 C 572.544 230.642 583.339 194.015 600.511 195.168 C 602.921 195.326 605.17 196.43 606.769 198.238 C 616.404 209.292 601.164 232.406 592.859 240.762 C 589.841 241.479 586.941 241.855 584.071 242.784 C 583.514 242.125 582.956 241.467 582.399 240.808 z" fill="rgb(65,83,102)" transform="translate(0,0)"></path>
<path d="M 785.703 350.77 C 754.896 355.675 742.946 300.255 768.544 309.845 C 780.33 314.26 794.052 335.699 787.446 349.688 C 786.865 350.048 786.284 350.409 785.703 350.77 z" fill="rgb(65,83,102)" transform="translate(0,0)"></path>
<path d="M 811.895 356.18 C 811.867 353.449 811.274 349.833 812.411 347.256 C 817.468 335.804 830.166 326.645 842.983 328.127 C 845.51 328.419 849.111 330.497 850.021 332.544 C 856.784 347.745 835.18 365.321 820.984 363.704 C 816.343 363.175 814.381 360.786 811.57 358.224 C 811.679 357.542 811.787 356.861 811.895 356.18 z" fill="rgb(65,83,102)" transform="translate(0,0)"></path>
<path d="M 1264.48 357.994 C 1267.65 353.552 1267.56 354.319 1268.12 349.503 C 1269.31 339.24 1285.87 326.308 1295.98 327.319 C 1303.66 328.086 1309.16 334.022 1307.01 342 C 1303.88 353.606 1287.9 365.994 1275.48 362.246 C 1272.23 361.257 1269.71 359.667 1266.48 358.672 L 1264.48 357.994 z" fill="rgb(65,83,102)" transform="translate(0,0)"></path>
<path d="M 1039.88 356.555 C 1043.05 348.794 1042.44 337.973 1052.6 333.186 C 1104.55 308.706 1073.76 382.075 1040.95 358.239 L 1039.88 356.555 z" fill="rgb(65,83,102)" transform="translate(0,0)"></path>
<path d="M 1287.6 617.598 C 1310.46 614.011 1315.46 621.819 1336.76 622.629 C 1348.25 623.066 1365.14 613.799 1377.84 613.083 C 1396.96 612.005 1406.91 621.318 1425.92 621.906 C 1444.67 622.487 1455.88 613.261 1473.43 613.868 C 1483.64 614.221 1494.71 618.982 1504.38 621.973 L 1504.14 623.228 C 1494.11 622.473 1481.55 615.67 1470.66 617.074 C 1453.13 619.335 1443.76 628.322 1424.75 627.48 C 1408.43 626.758 1395.15 616.97 1379.51 618.102 C 1365.99 619.08 1353.2 627.424 1338.8 627.279 C 1317.94 627.068 1309.31 617.084 1287.9 619.339 L 1287.6 617.598 z" fill="rgb(74,87,103)" transform="translate(0,0)"></path>
<path d="M 1245.48 260.882 C 1234.1 254.051 1230.42 249.221 1227.29 235.987 C 1226.03 230.692 1225.11 218.435 1228.75 214.829 C 1243.84 199.856 1250.68 229.253 1251.72 238.004 C 1253.07 249.344 1251.27 251.632 1248.25 259.446 L 1245.48 260.882 z" fill="rgb(65,83,102)" transform="translate(0,0)"></path>
<path d="M 790.271 260.04 C 772.16 251.611 769.451 236.296 771.076 217.501 C 771.481 212.999 779.095 209.326 782.725 211.404 C 798.5 220.438 797.783 244.89 793.04 259.457 C 792.119 259.664 791.196 259.858 790.271 260.04 z" fill="rgb(65,83,102)" transform="translate(0,0)"></path>
<path d="M 554.584 258.106 C 538.848 251.339 532.556 202.234 554.778 212.571 C 563.986 216.854 568.805 247.287 562.222 257.877 C 559.677 257.994 557.131 258.07 554.584 258.106 z" fill="rgb(65,83,102)" transform="translate(0,0)"></path>
<path d="M 738.19 1436.41 C 764.004 1431.91 768.369 1443.22 791.597 1443.34 C 809.894 1443.44 828.49 1431.78 848.303 1432.72 C 863.145 1433.42 874.434 1442.77 886.999 1441.59 C 887.995 1442.66 889.466 1444.13 890.329 1445.24 C 871.584 1445.85 864.889 1439.24 848.027 1438.56 C 834.072 1438 817.654 1447.35 802.73 1449.63 C 797.912 1450.32 793.03 1450.48 788.176 1450.1 C 768.798 1448.54 761.64 1435.66 741.547 1438.41 L 738.19 1436.41 z" fill="rgb(74,87,103)" transform="translate(0,0)"></path>
<path d="M 1485.94 467.963 C 1486.43 466.994 1486.95 466.037 1487.46 465.077 C 1489.38 461.455 1499.57 445.776 1498.83 443.048 C 1498.65 442.398 1498.48 442.091 1498.22 441.432 C 1497.31 439.137 1497.9 436.661 1498.9 434.476 C 1505.45 420.018 1526.54 401.239 1537.48 388.667 C 1531.9 403.434 1526.65 419.47 1519.56 432.587 C 1513.19 444.373 1511.2 443.651 1503.6 444.459 C 1502.01 444.628 1490.92 466.088 1488.77 470.073 L 1485.94 467.963 z" fill="rgb(65,83,102)" transform="translate(0,0)"></path>
<path d="M 1036.05 462.811 C 1046.83 442.338 1051.25 452.255 1045.56 438.098 C 1043.5 432.984 1078.29 396.755 1085.55 388.839 C 1078.86 404.541 1073.34 421.127 1065 436.011 C 1060.88 443.347 1057.04 443.622 1050.18 446.64 C 1045.75 453.308 1036.64 472.341 1033.28 476.267 C 1033.14 474.42 1033.08 473.196 1033.04 471.33 C 1033.03 469.081 1033.03 466.831 1033.04 464.581 L 1036.05 462.811 z" fill="rgb(65,83,102)" transform="translate(0,0)"></path>
<path d="M 1036.05 462.811 C 1034.99 467.178 1035.27 467.721 1033.04 471.33 C 1033.03 469.081 1033.03 466.831 1033.04 464.581 L 1036.05 462.811 z" fill="rgb(147,150,153)" transform="translate(0,0)"></path>
<path d="M 756.799 1473.76 C 769.561 1470.07 787.525 1477.03 801.303 1475.99 C 817.765 1474.99 833.71 1464.48 850.367 1465.08 C 872.104 1465.86 888.983 1480.31 911.802 1473.97 L 913.89 1477.59 C 885.146 1485.09 877.611 1472.96 851.434 1470.72 C 837.7 1469.55 821.777 1480.02 805.472 1481.1 C 784.957 1482.46 776.758 1473.66 757.468 1475.34 L 756.799 1473.76 z" fill="rgb(74,87,103)" transform="translate(0,0)"></path>
<path d="M 781.24 447.806 C 778.306 445.318 772.154 444.77 770.718 442.273 C 762.806 428.516 757.881 402.173 755.222 386.989 L 753.948 379.577 C 764.902 396.076 774.511 414.879 784.519 432.049 C 789.21 440.097 787.05 441.683 782.281 447.504 L 781.24 447.806 z" fill="rgb(65,83,102)" transform="translate(0,0)"></path>
<path d="M 1434.8 380.218 C 1442.7 392.596 1465.81 426.336 1468.38 441.465 C 1468.68 443.181 1466.46 445.07 1465.22 446.133 L 1462.77 447.2 C 1449.32 443.365 1448.83 439.061 1445.29 424.984 C 1442.04 412.204 1439 399.371 1436.17 386.49 C 1435.71 384.347 1435.31 382.372 1434.8 380.218 z" fill="rgb(65,83,102)" transform="translate(0,0)"></path>
<path d="M 1213.42 387.185 C 1218.47 395.245 1251.32 441.264 1238.75 446.012 L 1236.32 447.281 C 1231.66 445.809 1230.91 445.333 1226.6 442.903 C 1222.05 434.999 1220.42 429.886 1218.26 420.985 L 1217.28 416.985 C 1215.27 408.54 1212.97 399.95 1211.3 391.45 L 1213.42 387.185 z" fill="rgb(65,83,102)" transform="translate(0,0)"></path>
<path d="M 525.249 381.751 C 529.38 386.639 556.656 432.356 558.151 441.538 C 558.465 443.469 555.608 446.019 554.199 447.363 L 551.574 446.976 C 548.248 446.55 544.228 446.107 542.436 443.02 C 535.221 430.595 528.11 397.693 525.584 383.569 L 525.249 381.751 z" fill="rgb(65,83,102)" transform="translate(0,0)"></path>
<path d="M 818.091 445.945 C 816.485 441.916 814.79 439.238 817.147 435.019 C 826.617 418.068 841.67 402.816 855.746 389.579 C 850.273 404.451 840.297 433.564 827.517 444.518 C 825.998 445.82 822.157 444.06 819.263 446.421 L 818.091 445.945 z" fill="rgb(65,83,102)" transform="translate(0,0)"></path>
<path d="M 587.777 444.479 C 586.661 442.014 585.248 439.095 586.506 436.48 C 594.115 420.675 614.401 401.066 626.38 388.033 C 621.746 399.548 608.089 439.454 597.32 444.047 C 593.087 444.006 591.885 443.93 587.777 444.479 z" fill="rgb(65,83,102)" transform="translate(0,0)"></path>
<path d="M 1462.77 447.2 L 1465.22 446.133 C 1469.95 462.036 1474.53 477.981 1478.97 493.969 L 1482.18 491.878 C 1482.12 484.503 1481.97 477.128 1481.72 469.757 L 1485.94 467.963 L 1488.77 470.073 C 1480.43 485.934 1489.54 556.082 1483.79 563.384 C 1480.66 561.25 1481.49 546.469 1481.75 542.154 C 1483.79 508.639 1470.03 479.966 1462.77 447.2 z" fill="rgb(74,87,103)" transform="translate(0,0)"></path>
<path d="M 1482.18 491.878 C 1482.13 493.31 1482.32 497.233 1481.37 498.175 C 1480.17 498.514 1479.21 494.613 1478.97 493.969 L 1482.18 491.878 z" fill="rgb(236,237,236)" transform="translate(0,0)"></path>
<path d="M 588.363 642.996 C 605.096 644.091 617.586 651.968 634.372 653.065 C 651.654 654.196 666.375 647.926 682.894 645.065 C 690.972 643.665 718.798 646.726 724.512 651.954 L 724.677 652.991 C 714.377 652.332 707.065 647.076 693.467 648.542 C 674.123 650.628 656.913 658.445 637.579 657.458 C 619.046 656.573 604.991 645.198 588.817 644.622 L 588.363 642.996 z" fill="rgb(74,87,103)" transform="translate(0,0)"></path>
<path d="M 1014.28 348.983 C 1018.63 351.789 1025.88 358.115 1030.12 358.812 L 1033.13 358.339 L 1034.08 361.588 L 1035.46 360.35 C 1037.17 358.785 1038.07 357.956 1039.88 356.555 L 1040.95 358.239 C 1038.58 360.817 1036.6 363.259 1034.32 365.875 C 1032.79 372.411 1032.98 398.544 1033.07 406.995 C 1033.27 425.7 1032.54 446.008 1033.04 464.581 C 1033.03 466.831 1033.03 469.081 1033.04 471.33 C 1033.08 473.196 1033.14 474.42 1033.28 476.267 L 1029.92 476.999 C 1028.97 451.894 1029.52 416.705 1029.85 391.322 C 1028.99 383.333 1029.29 374.115 1029.69 366.081 C 1022.88 359.724 1020.23 356.322 1014.28 348.983 z" fill="url(#Gradient2)" transform="translate(0,0)"></path>
<path d="M 1014.28 348.983 C 1018.63 351.789 1025.88 358.115 1030.12 358.812 C 1030.89 366.12 1030.69 384.144 1029.85 391.322 C 1028.99 383.333 1029.29 374.115 1029.69 366.081 C 1022.88 359.724 1020.23 356.322 1014.28 348.983 z" fill="rgb(74,87,103)" transform="translate(0,0)"></path>
<path d="M 1034.08 361.588 L 1035.46 360.35 C 1037.17 358.785 1038.07 357.956 1039.88 356.555 L 1040.95 358.239 C 1038.58 360.817 1036.6 363.259 1034.32 365.875 C 1033.66 363.784 1032.52 362.939 1034.08 361.588 z" fill="rgb(74,87,103)" transform="translate(0,0)"></path>
<path d="M 476.241 1256.7 C 496.594 1245.74 513.293 1261.54 531.658 1261.57 C 558.699 1261.61 573.169 1244.47 600.741 1262.55 C 594.656 1262.44 583.422 1256.87 573.92 1257.87 C 559.077 1259.43 548.113 1266.54 533.25 1265.85 C 519.285 1265.2 508.495 1256.13 495.281 1254.84 C 490.108 1254.34 481.649 1255.97 476.241 1256.7 z" fill="rgb(74,87,103)" transform="translate(0,0)"></path>
<path d="M 770.932 1409.38 C 802.255 1420.93 820.831 1401.56 850.453 1405.39 L 850.448 1409.34 L 846.618 1407.43 C 831.957 1408.8 823.915 1413.72 810.012 1417.21 C 794.851 1421.01 782.714 1416 768.715 1411.55 L 770.932 1409.38 z" fill="rgb(74,87,103)" transform="translate(0,0)"></path>
<path d="M 850.453 1405.39 L 850.448 1409.34 L 846.618 1407.43 C 847.943 1406.7 849.093 1406.08 850.453 1405.39 z" fill="rgb(76,82,100)" transform="translate(0,0)"></path>
<path d="M 1353.38 647.689 C 1354.23 647.795 1355.09 647.901 1355.95 648.006 C 1368.4 649.095 1382.85 658.107 1395.47 657.165 C 1410.23 656.063 1425.04 648.695 1440.24 650.098 C 1446.36 650.665 1452.32 652.471 1456.38 657.299 C 1437.57 649.312 1429.78 654.469 1411.52 659.069 C 1393.09 663.712 1383.87 661.164 1367.46 653.128 C 1363.69 651.282 1357.42 650.059 1353.38 647.689 z" fill="rgb(74,87,103)" transform="translate(0,0)"></path>
<path d="M 1063.35 605.315 C 1081.97 605.609 1086.91 614.205 1104.13 615.221 C 1105.76 615.317 1105.15 614.982 1106.03 615.719 C 1093.28 619.183 1080.86 610.008 1068.22 609.515 C 1061.44 609.25 1051.78 612.739 1045.04 614.851 C 1023.34 617.791 1020.8 609.669 999.443 608.445 C 1000.11 608.353 1000.78 608.261 1001.45 608.17 C 1010.73 604.914 1018.72 611.843 1031.67 611.156 C 1044.73 610.464 1050.92 607.36 1063.35 605.315 z" fill="rgb(74,87,103)" transform="translate(0,0)"></path>
<path d="M 505.848 1355.04 C 521.268 1358.12 532.471 1354.44 547.011 1350.34 C 564.673 1345.36 579.949 1354.05 595.808 1360.93 L 587.822 1359.21 C 577.006 1356.84 567.864 1352.28 555.5 1354 C 535.054 1356.86 529.277 1363.62 507.002 1358.37 L 505.848 1355.04 z" fill="url(#Gradient1)" transform="translate(0,0)"></path>
<path d="M 826.811 635.062 C 835.611 637.076 846.741 641.086 854.916 641.888 C 873.576 643.716 888.752 634.23 907.929 634.154 C 926.465 634.082 928.382 642.257 943.472 640.551 C 944.515 640.433 944.538 640.587 945.643 640.962 C 942.33 641.296 936.313 641.084 934.398 642.461 C 908.181 627.015 886.069 645.166 860.535 644.94 C 849.109 644.839 837.751 640.366 827.073 636.553 L 826.811 635.062 z" fill="rgb(95,100,107)" transform="translate(0,0)"></path>
<path d="M 1232.84 1373.3 C 1246.05 1372.35 1253.57 1367.5 1267 1367.8 C 1279.53 1368.08 1287.56 1374.69 1299.02 1374.08 C 1299.87 1374.03 1300.8 1373.96 1301.65 1374.08 C 1302.23 1379.1 1280.3 1373.9 1277.99 1373.34 C 1258.62 1368.6 1247.68 1380.58 1227.92 1375.5 C 1230.22 1374.14 1230.29 1374.02 1232.84 1373.3 z" fill="rgb(74,87,103)" transform="translate(0,0)"></path>
<path d="M 1323.25 655.218 C 1293.63 641.183 1289.37 653.318 1260 653.082 C 1258.66 653.071 1232.57 644.594 1232.55 644.563 C 1232.57 644.545 1232.59 644.518 1232.62 644.508 C 1233.22 644.278 1235.05 644.305 1235.62 644.665 C 1236.45 645.194 1236.97 645.371 1237.96 645.489 C 1239.73 645.698 1241.68 645.873 1243.4 646.327 C 1247.01 647.283 1250.79 648.423 1254.5 648.916 C 1255 648.982 1255.5 649.032 1256 649.094 C 1274.06 651.346 1290.1 640.391 1308.18 646.456 C 1312.79 648.005 1316.56 650.59 1320.87 652.69 C 1321.47 652.983 1322.08 653.255 1322.69 653.537 L 1323.25 655.218 z" fill="rgb(74,87,103)" transform="translate(0,0)"></path>
<path d="M 676.459 1419.94 C 683.1 1420.99 693.38 1421.76 699.997 1420.83 C 713.931 1418.87 722.161 1414.07 736.66 1416.18 L 734.592 1418.4 C 722.527 1418.83 715.357 1423.04 704.005 1425.24 L 701.999 1425.65 C 693.116 1427.37 684.396 1425.56 675.851 1423.39 L 676.459 1419.94 z" fill="rgb(65,83,102)" transform="translate(0,0)"></path>
<path d="M 1686.16 1842.62 C 1698.79 1854.78 1710.55 1878.31 1711.99 1896 C 1712.11 1897.47 1712.23 1906.03 1711.39 1907.04 C 1710.88 1907.22 1711.15 1907.21 1710.6 1907.05 C 1709.88 1906.31 1710.15 1904.46 1710.17 1903.51 C 1710.66 1877.94 1695.01 1860.52 1678.89 1843.33 C 1681.31 1843.05 1683.73 1842.81 1686.16 1842.62 z" fill="rgb(212,122,57)" transform="translate(0,0)"></path>
<path d="M 1353.77 1403.46 C 1338.55 1398.27 1328.21 1396.14 1312.93 1401.67 C 1306.58 1403.97 1298.45 1403.62 1292 1402.28 C 1289.19 1401.7 1280.18 1398.26 1278.43 1398.63 C 1277.28 1399.72 1278.32 1399.81 1277.46 1400.77 C 1276.79 1400.78 1276.89 1400.77 1276.24 1400.52 C 1272.85 1395.15 1286.62 1399.18 1286.97 1399.3 C 1303.72 1405.02 1317.35 1393.06 1334.02 1395 C 1343.06 1396.05 1350.02 1400.24 1358.77 1402.27 C 1357.1 1402.64 1355.43 1403.04 1353.77 1403.46 z" fill="rgb(74,87,103)" transform="translate(0,0)"></path>
<path d="M 1387.75 715.398 C 1397.94 714.035 1416.36 722.768 1427.51 722.357 C 1453.93 721.383 1456.19 710.658 1483.75 717.893 C 1482.16 718.474 1476.37 717.252 1474.21 716.923 C 1473.87 716.923 1473.53 716.923 1473.19 716.923 L 1471.49 716.963 C 1455.84 717.214 1442.88 725.725 1427.36 724.87 C 1410.3 723.93 1397.1 714.101 1379.53 718.112 L 1378.01 718.471 C 1378.85 717.381 1385.79 715.918 1387.75 715.398 z" fill="rgb(95,100,107)" transform="translate(0,0)"></path>
<path d="M 1154.56 615.814 C 1156.64 616.153 1159.96 616.788 1161.99 617.304 C 1179.6 621.772 1194.5 610.013 1212.02 613.145 C 1217.94 614.132 1222.1 616.296 1227.66 618.094 L 1225.56 619.429 C 1222.23 618.119 1218.56 617.322 1215.01 616.88 C 1189.56 613.714 1184.8 625.698 1157.49 617.906 L 1154.04 616.952 L 1154.56 615.814 z" fill="rgb(74,87,103)" transform="translate(0,0)"></path>
<path d="M 622.203 682.756 C 632.081 684.061 642.768 685.354 652.488 681.719 C 669.045 675.526 678.416 681.192 693.587 686.644 C 696.042 687.527 701.026 686.91 702.269 687.734 C 702.127 687.89 701.985 688.045 701.843 688.201 C 693.434 690.822 680.573 682.548 671.495 682.128 C 654.724 681.354 644.106 691.215 625.986 685.07 C 624.992 684.733 621.949 684.258 620.694 684.087 L 622.203 682.756 z" fill="rgb(95,100,107)" transform="translate(0,0)"></path>
<path d="M 507.06 671.887 C 510.712 673.536 517.935 674.938 522.004 674.994 C 532.713 675.142 542.662 668.543 553.498 669.057 C 564.664 669.233 570.787 674.933 580.606 675.78 L 577.298 677.607 C 568.513 674.652 558.32 670.769 549 672.416 C 538.955 674.192 528.996 678.524 518.635 676.471 C 514.078 675.568 510.369 673.801 505.772 673.093 L 507.06 671.887 z" fill="rgb(74,87,103)" transform="translate(0,0)"></path>
<path d="M 1315.95 694.567 C 1318.53 694.915 1325.92 696.181 1328 695.719 C 1352.09 690.363 1356.93 688.723 1380.4 695.954 L 1379.7 697.335 C 1375.25 696.471 1369.76 694.529 1365.5 694.046 C 1344.93 691.717 1336.81 701.076 1314.87 695.993 L 1315.95 694.567 z" fill="rgb(74,87,103)" transform="translate(0,0)"></path>
<path d="M 561.198 701.254 C 594.092 715.055 609.718 692.41 637.466 700.528 C 630.807 701.732 627.073 698.224 617.514 701.081 C 596.255 707.435 580.379 712.303 559.251 702.666 L 561.198 701.254 z" fill="rgb(95,100,107)" transform="translate(0,0)"></path>
<path d="M 1410.9 679.629 C 1425.72 680.99 1433.49 675.034 1447.03 678.749 L 1451.03 679.85 C 1452.19 680.17 1455.45 680.601 1456.18 681.455 C 1455 682.899 1440.84 678.75 1439 679.119 C 1428.64 681.197 1420.84 683.408 1410.16 681.138 L 1409.77 681.058 L 1410.9 679.629 z" fill="rgb(95,100,107)" transform="translate(0,0)"></path>
<path d="M 1551.81 1230.21 C 1559.84 1229.57 1567.01 1229.62 1574.57 1232.73 C 1575.37 1233.06 1581.04 1234.35 1580.56 1235.84 C 1581.73 1235.14 1559.89 1232.02 1555.21 1232.42 L 1551.81 1230.21 z" fill="rgb(95,100,107)" transform="translate(0,0)"></path>
<path d="M 1256.13 1956.39 C 1257.03 1959.37 1257.2 1961.11 1258.73 1963.77 C 1258.42 1966.65 1255.29 1986.57 1252.39 1986.51 C 1251.72 1984.8 1254.33 1978.5 1254.86 1975.99 C 1256.29 1969.13 1256.06 1963.39 1256.13 1956.39 z" fill="rgb(128,132,138)" transform="translate(0,0)"></path>
<path d="M 563.787 1710.52 C 560.033 1711.22 557.709 1710.71 553.572 1711.35 C 550.206 1711.87 545.913 1714.33 542.87 1714.55 C 542.734 1714.56 542.739 1714.42 542.713 1714.29 C 548.951 1708.53 563.019 1707.35 571.041 1708.36 C 567.052 1708.85 567.024 1708.3 563.787 1710.52 z" fill="rgb(95,100,107)" transform="translate(0,0)"></path>
<path d="M 358.988 581.651 C 352.438 580.936 348.872 581.107 342.556 582.321 C 340.572 582.703 332.553 585.162 332.502 585.148 C 331.967 581.13 354.853 578.305 359.8 579.332 L 358.988 581.651 z" fill="rgb(95,100,107)" transform="translate(0,0)"></path>
<path d="M 498.653 1320.26 C 493.071 1320.04 477.129 1323.25 475.556 1322.58 C 476.811 1319.99 496.012 1317.4 499.911 1318.55 L 498.653 1320.26 z" fill="rgb(128,132,138)" transform="translate(0,0)"></path>
<path d="M 760.32 1408.53 C 762.041 1407.7 762.972 1407.74 764.722 1408.51 L 770.932 1409.38 L 768.715 1411.55 C 768.4 1411.49 766.534 1411.18 766.419 1411.08 C 763.647 1408.66 748.31 1412.45 747.18 1411.41 L 747.238 1410.77 C 748.728 1409.87 758.533 1408.67 760.32 1408.53 z" fill="rgb(147,150,153)" transform="translate(0,0)"></path>
<path d="M 760.32 1408.53 C 762.041 1407.7 762.972 1407.74 764.722 1408.51 C 762.706 1408.64 762.334 1408.65 760.32 1408.53 z" fill="rgb(181,180,183)" transform="translate(0,0)"></path>
<path d="M 675.851 1423.39 C 665.45 1419.4 663.585 1419.63 653.082 1420.66 L 652.988 1420.57 L 652.865 1420.6 C 661.438 1417.12 667.607 1418.63 676.459 1419.94 L 675.851 1423.39 z" fill="rgb(128,132,138)" transform="translate(0,0)"></path>
<path d="M 1617.4 1890.33 C 1618.4 1892.85 1618.4 1906.95 1616.94 1908.85 L 1616.78 1908.4 L 1617.26 1908.81 C 1616.91 1909.22 1617.11 1909.13 1616.72 1909.21 C 1615.85 1908.57 1615.29 1893.14 1615.47 1890.97 C 1616.7 1891.93 1616.67 1891.54 1617.4 1890.33 z" fill="rgb(212,170,144)" transform="translate(0,0)"></path>
<path d="M 625.131 1350.86 C 616.577 1350.23 609.688 1353.27 603.401 1352.83 L 602.845 1352.45 L 602.572 1352.55 C 609.102 1349.67 620.6 1348.03 627.617 1349.25 L 625.131 1350.86 z" fill="rgb(181,180,183)" transform="translate(0,0)"></path>
<path d="M 827.073 636.553 C 825.06 636.314 804.229 635.994 804.715 636.436 L 804.768 636.295 C 806.187 635.16 807.857 635.241 809.537 634.782 C 815.206 633.24 821.195 633.337 826.811 635.062 L 827.073 636.553 z" fill="rgb(181,180,183)" transform="translate(0,0)"></path>
<path d="M 1470.32 349.574 C 1473.15 352.385 1477.49 357.517 1480.07 360.607 L 1477.5 361.24 C 1472.48 357.381 1471.55 355.116 1468.35 350.05 L 1470.32 349.574 z" fill="rgb(74,87,103)" transform="translate(0,0)"></path>
<path d="M 1227.92 1375.5 C 1224.14 1374.43 1220.24 1372.23 1216.42 1371.21 C 1214.84 1370.78 1212.66 1370.06 1210.99 1369.92 C 1210.7 1369.89 1208.61 1370.03 1208.33 1369.4 C 1211.08 1367.65 1228 1372.81 1232.84 1373.3 C 1230.29 1374.02 1230.22 1374.14 1227.92 1375.5 z" fill="rgb(128,132,138)" transform="translate(0,0)"></path>
<path d="M 718.788 1287.78 C 719.802 1288.84 719.823 1289.11 720.525 1290.44 C 715.31 1290.58 710.833 1291.12 705.858 1291.32 C 703.938 1290.43 703.829 1290.25 702.009 1289.88 C 707.313 1288.24 713.11 1289.03 718.788 1287.78 z" fill="rgb(128,132,138)" transform="translate(0,0)"></path>
<path d="M 559.251 702.666 C 557.723 702.3 553.886 701.042 552.505 701.063 C 549.086 701.114 545.797 699.384 542.571 700.12 C 541.733 700.312 539.837 701.796 539.052 700.477 C 540.894 696.062 558.104 700.709 561.198 701.254 L 559.251 702.666 z" fill="rgb(147,150,153)" transform="translate(0,0)"></path>
<path d="M 1306.67 1947.22 L 1308.75 1947.58 C 1308.28 1952.01 1306.71 1959.37 1304.56 1963.27 C 1304.32 1963.34 1304.44 1963.35 1304.21 1963.24 C 1303.51 1961.88 1306.17 1949.38 1306.67 1947.22 z" fill="rgb(212,170,144)" transform="translate(0,0)"></path>
<path d="M 1361.86 1930.73 C 1363.05 1931.25 1362.57 1931.43 1363.7 1930.88 C 1363.54 1932.48 1361.71 1946.35 1359.46 1945.16 C 1359.52 1943.03 1361.12 1932.68 1361.86 1930.73 z" fill="rgb(212,170,144)" transform="translate(0,0)"></path>
<path d="M 488.521 1349.67 C 493.729 1351.13 498.312 1352.75 503.424 1354.3 L 505.848 1355.04 L 507.002 1358.37 C 500.351 1355.34 495.026 1353.11 488.521 1349.67 z" fill="rgb(95,100,107)" transform="translate(0,0)"></path>
<path d="M 723.455 1442.82 C 728.69 1439.78 732.449 1438.43 738.19 1436.41 L 741.547 1438.41 C 734.521 1439.97 730.575 1440.93 723.455 1442.82 z" fill="rgb(147,150,153)" transform="translate(0,0)"></path>
<path d="M 1227.66 618.094 C 1228.73 618.33 1239.9 619.73 1238.59 619.117 C 1246.09 622.639 1228.18 620.074 1225.56 619.429 L 1227.66 618.094 z" fill="rgb(181,180,183)" transform="translate(0,0)"></path>
<path d="M 1192.38 1335.18 C 1194.44 1332.82 1197.18 1334.24 1200.16 1334.84 C 1202.27 1334.94 1204.1 1335.08 1206.2 1335.28 L 1202.19 1337.34 C 1197.85 1336.67 1196.64 1336.23 1192.38 1335.18 z" fill="rgb(95,100,107)" transform="translate(0,0)"></path>
<path d="M 1192.38 1335.18 C 1194.44 1332.82 1197.18 1334.24 1200.16 1334.84 C 1197.2 1335.07 1195.33 1335.22 1192.38 1335.18 z" fill="rgb(181,180,183)" transform="translate(0,0)"></path>
<path d="M 757.468 1475.34 C 754.513 1476.12 751.589 1477.02 748.702 1478.03 C 747.685 1478.39 744.625 1479.51 743.641 1479.15 C 743.611 1479.02 743.581 1478.89 743.552 1478.76 C 744.719 1477.17 754.702 1474.27 756.799 1473.76 L 757.468 1475.34 z" fill="rgb(147,150,153)" transform="translate(0,0)"></path>
<path d="M 588.817 644.622 C 586.587 645.038 576.704 648.755 576.226 647.478 C 576.542 645.336 586.589 643.371 588.363 642.996 L 588.817 644.622 z" fill="rgb(181,180,183)" transform="translate(0,0)"></path>
<path d="M 1314.87 695.993 L 1314.19 695.853 C 1312.67 695.527 1302.28 693.77 1301.82 692.656 L 1301.98 692.43 C 1304.36 692.047 1313.72 693.443 1315.95 694.567 L 1314.87 695.993 z" fill="rgb(181,180,183)" transform="translate(0,0)"></path>
<path d="M 1380.4 695.954 C 1382.19 696.361 1392.89 698.093 1393.19 699.418 C 1390.65 700.429 1382.41 698.174 1379.7 697.335 L 1380.4 695.954 z" fill="rgb(181,180,183)" transform="translate(0,0)"></path>
<path d="M 573.365 1744.38 C 571.679 1744.8 561.274 1747.83 560.785 1747.52 C 560.778 1747.4 560.771 1747.28 560.765 1747.16 C 562.668 1745.3 568.946 1743.35 571.487 1742.66 L 573.365 1744.38 z" fill="rgb(147,150,153)" transform="translate(0,0)"></path>
<path d="M 1287.9 619.339 C 1286.59 619.685 1276.39 621.463 1275.66 621.122 L 1275.64 620.885 C 1276.81 619.441 1285.34 617.862 1287.6 617.598 L 1287.9 619.339 z" fill="rgb(128,132,138)" transform="translate(0,0)"></path>
<path d="M 1211.3 391.45 C 1211.07 390.034 1209.13 383.014 1210.56 382.591 C 1211.84 383.272 1212.87 385.954 1213.42 387.185 L 1211.3 391.45 z" fill="rgb(74,87,103)" transform="translate(0,0)"></path>
<path d="M 1546.97 1901.11 L 1549.24 1902.12 C 1548.9 1903.84 1548.34 1908.45 1546.66 1909.29 C 1544.77 1909.16 1546.75 1902.02 1546.97 1901.11 z" fill="rgb(212,170,144)" transform="translate(0,0)"></path>
<path d="M 1504.38 621.973 L 1508.49 621.949 C 1510.7 621.94 1513.55 620.528 1514.67 621.335 C 1515.4 623.511 1506.16 623.734 1504.14 623.228 L 1504.38 621.973 z" fill="rgb(181,180,183)" transform="translate(0,0)"></path>
<path d="M 984.67 390.064 C 984.499 389.276 982.811 382.817 983.784 382.527 C 984.968 382.927 986.994 387.047 987.567 388.188 L 984.67 390.064 z" fill="rgb(76,82,100)" transform="translate(0,0)"></path>
<path d="M 1492.79 318.474 L 1494.4 318.8 C 1492.43 321.45 1491.47 322.777 1489.22 325.181 L 1487.54 323.845 C 1489.2 322.053 1490.94 320.008 1492.79 318.474 z" fill="rgb(95,100,107)" transform="translate(0,0)"></path>
<path d="M 736.66 1416.18 C 739.074 1417.05 740.873 1417.23 743.5 1418.12 L 742.446 1419.55 C 739.828 1419.14 737.212 1418.79 734.592 1418.4 L 736.66 1416.18 z" fill="rgb(95,100,107)" transform="translate(0,0)"></path>
<path d="M 1358.77 1402.27 C 1360.78 1402.23 1362.8 1401.84 1364.25 1403.02 L 1363.16 1402.54 L 1364.48 1402.94 C 1364.5 1405.04 1355.17 1403.69 1353.77 1403.46 C 1355.43 1403.04 1357.1 1402.64 1358.77 1402.27 z" fill="rgb(147,150,153)" transform="translate(0,0)"></path>
<path d="M 773.513 1742.79 C 775.075 1743.35 778.896 1744.76 779.885 1746.08 C 779.867 1746.17 779.849 1746.27 779.832 1746.36 C 778.922 1747.28 772.976 1744.68 771.637 1744.27 L 773.513 1742.79 z" fill="rgb(128,132,138)" transform="translate(0,0)"></path>
<path d="M 1409.77 681.058 C 1408.36 680.565 1402.9 679.203 1402.33 678.252 L 1402.39 678.236 L 1402.63 678.369 L 1403.38 677.812 C 1405.59 677.888 1408.98 678.549 1410.9 679.629 L 1409.77 681.058 z" fill="rgb(147,150,153)" transform="translate(0,0)"></path>
<path d="M 1154.04 616.952 C 1152.41 616.54 1145.62 615.37 1144.7 614.478 L 1144.75 614.371 C 1147.39 613.521 1152.02 615.05 1154.56 615.814 L 1154.04 616.952 z" fill="rgb(181,180,183)" transform="translate(0,0)"></path>
<path d="M 580.606 675.78 C 590.221 675.83 585.251 678.503 577.298 677.607 L 580.606 675.78 z" fill="rgb(181,180,183)" transform="translate(0,0)"></path>
<path d="M 471.066 1292.24 C 469.726 1292.71 463.537 1295.97 463.364 1294.28 C 464.727 1292.68 467.909 1291.53 469.765 1290.63 L 471.066 1292.24 z" fill="rgb(128,132,138)" transform="translate(0,0)"></path>
<path d="M 1563.38 1263.98 C 1565.41 1264.54 1569.49 1265.77 1570.88 1267.48 L 1570.81 1267.66 C 1569.82 1268.09 1564.36 1265.79 1562.73 1265.3 L 1563.38 1263.98 z" fill="rgb(128,132,138)" transform="translate(0,0)"></path>
<path d="M 499.911 1318.55 L 505.116 1319.2 L 504.952 1321.55 C 502.859 1321.09 500.758 1320.66 498.653 1320.26 L 499.911 1318.55 z" fill="rgb(74,87,103)" transform="translate(0,0)"></path>
<path d="M 979.126 620.733 C 980.397 619.977 983.502 617.882 985.055 618.656 C 984.71 620.295 980.384 621.667 979.103 622.232 L 979.126 620.733 z" fill="rgb(147,150,153)" transform="translate(0,0)"></path>
<path d="M 505.772 673.093 C 497.61 671 500.272 668.931 507.06 671.887 L 505.772 673.093 z" fill="rgb(181,180,183)" transform="translate(0,0)"></path>
<path d="M 441.285 621.434 C 440.307 621.699 435.542 623.609 434.795 622.436 C 435.102 621.328 438.372 620.284 439.288 619.907 L 441.285 621.434 z" fill="rgb(147,150,153)" transform="translate(0,0)"></path>
<path d="M 1444.28 1357.96 C 1445.14 1358.28 1448.82 1359.35 1449.15 1360.51 C 1448.46 1361.63 1443.81 1359.69 1442.73 1359.37 L 1444.28 1357.96 z" fill="rgb(181,180,183)" transform="translate(0,0)"></path>
<path d="M 620.694 684.087 C 619.799 683.851 616.994 683.413 616.547 682.46 C 617.561 681.104 620.981 682.338 622.203 682.756 L 620.694 684.087 z" fill="rgb(181,180,183)" transform="translate(0,0)"></path>
<path d="M 824.438 1380.76 C 825.256 1381.08 828.435 1381.98 828.296 1383.26 C 827.201 1383.76 823.754 1382.59 822.67 1382.31 L 824.438 1380.76 z" fill="rgb(128,132,138)" transform="translate(0,0)"></path>
<path d="M 814.167 1681.57 C 815.506 1681.34 819.119 1680.48 820.385 1681.3 C 820.792 1682.22 818.033 1682.94 817.549 1683.14 L 814.167 1681.57 z" fill="rgb(147,150,153)" transform="translate(0,0)"></path>
<path d="M 1532.51 1300.81 C 1533.47 1300.54 1536.89 1299.1 1537.57 1299.95 C 1537.28 1301.05 1533.69 1301.89 1532.94 1302.15 L 1532.51 1300.81 z" fill="rgb(147,150,153)" transform="translate(0,0)"></path>
<path d="M 1463.22 1325.8 C 1464.13 1326.34 1466.31 1327.37 1466.6 1328.53 C 1466.2 1329.67 1462.55 1327.76 1462.07 1327.56 L 1463.22 1325.8 z" fill="rgb(147,150,153)" transform="translate(0,0)"></path>
<path d="M 613.064 1384.36 C 612.145 1384.6 610.197 1385.48 609.256 1384.71 C 609.147 1383.54 612.011 1383.16 612.64 1383 L 613.064 1384.36 z" fill="rgb(128,132,138)" transform="translate(0,0)"></path>
<path d="M 1322.69 653.537 C 1323.93 654.184 1324.22 654.204 1325.06 655.075 L 1325.05 655.284 C 1324.67 655.558 1324.09 655.337 1323.25 655.218 L 1322.69 653.537 z" fill="rgb(236,237,236)" transform="translate(0,0)"></path>
<path d="M 743.5 1418.12 C 744.156 1418.41 745.238 1418.72 745.562 1419.41 C 745.453 1420.58 742.9 1419.67 742.446 1419.55 L 743.5 1418.12 z" fill="rgb(181,180,183)" transform="translate(0,0)"></path>
<metadata><recraft-signature>{"signed_by": "recraft", "signature_b64": "fejv1HJMXuXYQSEhzoYAMze5EFVrhUWxAiACmIOdfaAaFncyTKdXli2/F6khCLK8E/SQRdOZ1ki9rHqMomDRAw==", "signing_algo": "Ed25519", "generation_timestamp": 1777250510, "identifier": "25568d53-069f-498b-a1a0-ed3084728f9e"}</recraft-signature></metadata></svg>