<svg xmlns="http://www.w3.org/2000/svg" height="1024" preserveAspectRatio="none" style="display: block;" version="1.1" viewBox="0 0 2048 2048" width="1024">

<path d="M 395.398 965.5 C 470.981 963.891 552.189 965.052 627.969 965.179 C 623.111 1031.3 576.721 1076.17 511.645 1083.32 C 512.518 1117.05 511.317 1151.28 511.062 1185.06 C 531.768 1185.83 555.692 1185.16 576.681 1185.13 L 698.938 1184.99 C 699.813 1244.55 719.731 1293.24 751.241 1342.48 C 760.941 1356.96 785.121 1388.07 798.32 1398.99 C 786.5 1401.76 774.448 1403.43 762.319 1403.98 C 696.838 1407.28 632.737 1384.37 584.172 1340.33 C 541.176 1301.03 511.065 1243.97 508.614 1185.28 C 504.38 1185.26 502.468 1185.52 498.515 1184.24 C 497.336 1176.53 498.429 1164.25 498.272 1156.02 C 497.829 1132.71 499.374 1106.91 497.859 1083.89 C 430.078 1073.54 389.784 1035 382.728 965.779 L 395.398 965.5 z" fill="rgb(12,38,57)" transform="translate(0,0)"></path>
<path d="M 1013.31 519.897 L 1015.57 520.033 C 1009.04 539.978 999.35 590.815 994.904 612.495 C 983.35 667.295 972.415 722.223 962.1 777.27 L 926.464 958.532 C 912.775 1033.72 900.434 1109.14 889.448 1184.77 C 887.835 1192.59 888.731 1211.2 886.377 1216.26 C 884.257 1207.44 883.089 1189.62 881.902 1186.13 C 878.86 1184.54 869.604 1184.55 869.304 1189.2 C 867.647 1214.9 881.049 1243.27 892.476 1264.42 C 898.267 1273.54 904.988 1281.45 912.609 1289.05 C 906.539 1295.11 899.24 1301.66 892.832 1307.63 C 884.525 1317.61 870.095 1330.74 860.432 1340.04 C 843.223 1356.37 826.28 1372.97 809.607 1389.84 C 803.48 1383.88 787.941 1369.06 783.429 1362.48 C 774.143 1352.44 766.877 1340.67 759.484 1329.26 C 730.393 1284.38 716.147 1238.27 712.301 1185.03 L 824.916 1184.73 C 846.252 1103.45 868.277 1022.35 890.987 941.442 C 930.735 800.631 971.511 660.112 1013.31 519.897 z" fill="rgb(0,0,0)" transform="translate(0,0)"></path>
<path d="M 824.916 1184.73 C 814.469 1225.5 804.522 1266.39 795.074 1307.39 C 792.582 1318.45 784.731 1351.81 783.429 1362.48 C 774.143 1352.44 766.877 1340.67 759.484 1329.26 C 730.393 1284.38 716.147 1238.27 712.301 1185.03 L 824.916 1184.73 z" fill="rgb(183,108,35)" transform="translate(0,0)"></path>
<path d="M 892.476 1264.42 C 898.267 1273.54 904.988 1281.45 912.609 1289.05 C 906.539 1295.11 899.24 1301.66 892.832 1307.63 C 892.254 1298.1 891.41 1273.88 892.476 1264.42 z" fill="rgb(183,108,35)" transform="translate(0,0)"></path>
<path d="M 1030.95 478.997 C 1039.67 570.579 1045.45 666.185 1051.47 758.012 L 1064.93 947.357 L 1076.73 1105.2 C 1078.7 1131.4 1081.78 1159.08 1081.95 1185.27 C 1082.14 1214.69 1058.24 1238.38 1028.96 1240.78 C 1013.95 1242 999.077 1237.07 987.764 1227.11 C 976.357 1217.1 969.399 1202.97 968.424 1187.82 C 967.724 1175.32 970.474 1154.33 971.612 1141.32 L 979.275 1054.14 L 1004.49 767.529 L 1021.98 569.177 L 1026.89 505.352 C 1027.44 498.851 1028.33 484.458 1029.5 478.46 L 1030.95 478.997 z" fill="rgb(12,38,57)" transform="translate(0,0)"></path>
<path d="M 513.604 1267.16 C 540.908 1328.6 591.404 1376.75 654.074 1401.1 C 698.933 1418.91 747.925 1423.6 795.349 1414.65 C 794.482 1428.68 793.05 1443.56 793.378 1457.56 C 795.69 1556.16 858.356 1642.19 950.302 1677.34 L 945.808 1679.55 C 862.059 1664.25 802.117 1643.89 730.7 1596.35 C 618.559 1521.72 539.206 1403.31 511.438 1272.16 L 513.604 1267.16 z" fill="rgb(12,38,57)" transform="translate(0,0)"></path>
<path d="M 1533.62 1275.15 L 1537.66 1275.65 C 1528.31 1310.19 1521.55 1334.91 1507.44 1367.91 C 1462.26 1471.96 1385.11 1558.91 1287.17 1616.15 C 1230.34 1649.01 1167.67 1670.53 1102.64 1679.49 L 1098.29 1677.52 C 1136.52 1663.28 1170.57 1639.66 1197.28 1608.82 C 1246.79 1551.28 1261.52 1490.2 1255.74 1416.51 C 1304.38 1423.02 1339.45 1424.74 1387.49 1407.42 C 1454.44 1383.29 1503.13 1338.93 1533.62 1275.15 z" fill="rgb(12,38,57)" transform="translate(0,0)"></path>
<path d="M 1350.01 1185.39 L 1540.33 1184.88 C 1542.5 1186.17 1541.91 1189.92 1542.24 1192.53 C 1541.82 1202.75 1539 1217.86 1536.58 1227.71 C 1521.48 1288.57 1482.78 1340.93 1429.02 1373.22 C 1373.07 1406.63 1313.78 1415.63 1250.56 1399.49 C 1296.49 1357.62 1330.69 1294.21 1344.19 1233.62 C 1347.91 1216.92 1348.93 1202.28 1350.01 1185.39 z" fill="rgb(12,38,57)" transform="translate(0,0)"></path>
<path d="M 1239.81 1408.91 C 1241.59 1410.93 1241.96 1421.81 1242.24 1424.98 C 1253.61 1550.09 1163.79 1668.31 1034.5 1677.46 C 1033.41 1677.52 1034.18 1677.57 1032.46 1676.36 C 1031.44 1670.11 1032.08 1631.14 1032.07 1621.91 L 1031.93 1494.96 C 1115.85 1489.54 1176.7 1463.55 1239.81 1408.91 z" fill="rgb(12,38,57)" transform="translate(0,0)"></path>
<path d="M 810.796 1410.86 C 865.837 1460.75 942.25 1494.55 1017.03 1495.07 L 1017.19 1629.82 C 1017.2 1636.86 1018.08 1674.24 1015.96 1677.43 C 1012.59 1677.35 1009.65 1677.05 1006.32 1676.64 C 947.13 1669.56 893.245 1639.06 856.714 1591.96 C 814.472 1537.35 802.289 1478.51 810.796 1410.86 z" fill="rgb(12,38,57)" transform="translate(0,0)"></path>
<path d="M 1181.12 1185.35 L 1337.08 1185.6 C 1331.08 1255.31 1310.05 1310.21 1265.97 1364.62 C 1257.68 1374.89 1249.81 1382.85 1240.17 1391.82 C 1218.02 1368.8 1195.32 1347.67 1172.1 1325.8 C 1159.37 1313.8 1148.03 1301.43 1134.9 1289.48 C 1164.17 1260.39 1179.18 1226.57 1181.12 1185.35 z" fill="rgb(183,108,35)" transform="translate(0,0)"></path>
<path d="M 77.8535 965.356 C 156.389 963.61 244.361 964.707 323.2 965.287 C 317.371 1025.55 280.587 1069.36 220.755 1081.61 L 207.666 1083.22 C 205.894 1111.29 207.414 1154.93 207.073 1184.31 L 193.406 1184.61 L 193.037 1083.64 C 165.891 1081.66 137.963 1069.5 117.866 1051.19 C 93.5909 1029.08 79.1806 998.165 77.8535 965.356 z" fill="rgb(12,38,57)" transform="translate(0,0)"></path>
<path d="M 1726.97 965.08 L 1972.73 965.091 C 1968.09 1025.4 1929.75 1068.87 1870.84 1081.71 C 1866.32 1082.48 1861.51 1082.86 1856.93 1083.33 C 1856.4 1116.81 1856.96 1150.97 1856.59 1184.64 L 1843.04 1184.89 L 1843.09 1083.2 C 1816.05 1082.16 1787.73 1069.77 1767.69 1051.69 C 1743.09 1029.42 1728.42 998.232 1726.97 965.08 z" fill="rgb(12,38,57)" transform="translate(0,0)"></path>
<path d="M 1424.88 965.366 L 1669.84 965.186 C 1665.99 1029.36 1618.02 1077.38 1554.32 1083.48 L 1554.17 1144.18 C 1554.18 1155.91 1554.64 1171.52 1553.69 1182.94 C 1551.07 1184.69 1549.92 1184.12 1546.23 1184.33 C 1541.55 1184.97 1542.89 1188.02 1542.24 1192.53 C 1541.91 1189.92 1542.5 1186.17 1540.33 1184.88 C 1539.82 1181.72 1539.98 1157.09 1540.22 1153.29 C 1539.98 1130.04 1539.86 1106.79 1539.87 1083.54 C 1477.28 1077.08 1426.13 1029.96 1424.88 965.366 z" fill="rgb(12,38,57)" transform="translate(0,0)"></path>
<path d="M 1540.22 1153.29 C 1542.78 1155.89 1541.09 1175.42 1540.94 1180.05 C 1540.84 1183.4 1543.49 1183.53 1546.23 1184.33 C 1541.55 1184.97 1542.89 1188.02 1542.24 1192.53 C 1541.91 1189.92 1542.5 1186.17 1540.33 1184.88 C 1539.82 1181.72 1539.98 1157.09 1540.22 1153.29 z" fill="rgb(27,52,74)" transform="translate(0,0)"></path>
<path d="M 923.115 1298.97 C 951.562 1321.42 981.135 1334.25 1017.45 1336.13 L 1017.05 1481.13 C 987.519 1480.9 956.592 1473.22 928.619 1464.04 C 888.249 1449.79 850.994 1427.92 818.882 1399.6 C 852.499 1367 890.733 1332 923.115 1298.97 z" fill="rgb(12,38,57)" transform="translate(0,0)"></path>
<path d="M 1123.51 1299.76 C 1127.17 1301.1 1216.78 1389.59 1229.82 1401.32 C 1197.38 1430.33 1163.52 1448.98 1123.09 1464.07 C 1094.53 1473.82 1062.35 1480.45 1032.19 1481.51 L 1031.96 1336.26 C 1068.94 1331.91 1094.1 1323.45 1123.51 1299.76 z" fill="rgb(12,38,57)" transform="translate(0,0)"></path>
<path d="M 1126.28 1185.49 C 1139.88 1185.36 1153.48 1185.33 1167.08 1185.41 C 1166.44 1193.11 1165.62 1203.45 1163.68 1210.99 C 1157.34 1235.66 1144.99 1262.44 1126.02 1279.74 C 1125.49 1280.23 1122.68 1277.39 1122.59 1277.31 C 1107.92 1262.96 1090.97 1247.05 1075.93 1232.78 C 1088.18 1218.64 1094.88 1204.58 1097.38 1185.92 C 1107.01 1185.7 1116.65 1185.56 1126.28 1185.49 z" fill="rgb(183,108,35)" transform="translate(0,0)"></path>
<path d="M 889.448 1184.77 C 910.502 1185 931.558 1185.03 952.613 1184.88 C 953.03 1187.93 953.556 1190.97 954.191 1193.99 C 957.325 1209.01 962.658 1220.7 973.096 1231.95 C 959.913 1246.33 937.42 1266.25 922.338 1280.39 C 906.555 1263.84 890.705 1239.02 886.377 1216.26 C 888.731 1211.2 887.835 1192.59 889.448 1184.77 z" fill="rgb(183,108,35)" transform="translate(0,0)"></path>
<path d="M 982.92 1241 C 994.701 1250.28 1003.33 1252.04 1017.5 1254.33 C 1017.23 1276.86 1017.76 1299.86 1017.8 1322.43 C 1002.82 1321.37 990.621 1319.04 976.257 1314.22 C 959.882 1308.83 945.798 1299.55 931.723 1289.88 C 948.199 1273.53 966.002 1257 982.92 1241 z" fill="rgb(183,108,35)" transform="translate(0,0)"></path>
<path d="M 1065.33 1241.98 C 1065.76 1242.08 1110.85 1285.31 1115.41 1289.69 C 1102.91 1298.44 1089.66 1306.06 1075.8 1312.44 C 1075.21 1312.72 1074.61 1313.01 1074.02 1313.29 C 1058.07 1318.72 1048.9 1320.88 1031.99 1322.69 L 1031.89 1254.18 C 1047.43 1251.79 1051.66 1250.54 1065.33 1241.98 z" fill="rgb(183,108,35)" transform="translate(0,0)"></path>
<path d="M 1002.77 352.232 C 1017.14 354.05 1023.89 365.555 1025.58 378.782 C 1039.56 387.106 1069.06 402.501 1066.94 422.511 C 1065.85 432.845 1053.68 442.071 1045.86 448.142 C 1029.24 458.84 1023.3 463.139 1010.49 445.089 C 993.973 421.816 1009.62 403.579 1009.5 379.484 C 1009.47 373.115 1000.64 363.129 998.251 356.023 C 999.946 352.789 998.778 354.259 1002.77 352.232 z" fill="rgb(192,20,29)" transform="translate(0,0)"></path>
<path d="M 1031.03 463.145 C 1039.72 456.609 1046.79 454.782 1055.94 446.482 C 1073.96 430.142 1081.44 403.796 1110.49 406.084 C 1113.88 406.351 1122.8 411.083 1117.57 411.962 C 1106.92 413.755 1107.13 412.665 1097.71 419.078 C 1091.33 431.471 1089.72 442.49 1077.74 451.706 C 1066.1 460.655 1056.33 463.273 1042.02 464.165 C 1037.3 464.167 1034.75 465.069 1031.03 463.145 z" fill="rgb(192,20,29)" transform="translate(0,0)"></path>
<path d="M 1030.44 364.181 C 1030.19 355.347 1034.86 350.527 1043.5 350.642 C 1049.75 350.725 1054.51 356.413 1059.1 360.168 C 1063.08 359.522 1072.18 357.213 1075.45 360.007 C 1081.37 365.073 1086.88 377.048 1074.73 377.87 C 1072.94 378.431 1072.76 378.358 1071.4 379.502 C 1062.23 383.699 1061.24 384.542 1054.98 391.632 C 1051.84 389.517 1021.31 372.93 1031.65 368.907 C 1031.43 366.948 1031.05 366.081 1030.44 364.181 z" fill="rgb(192,20,29)" transform="translate(0,0)"></path>
<path d="M 1031.65 368.907 C 1043.42 372.69 1054.23 375.804 1066.5 377.036 C 1068.19 377.207 1070 378.585 1071.4 379.502 C 1062.23 383.699 1061.24 384.542 1054.98 391.632 C 1051.84 389.517 1021.31 372.93 1031.65 368.907 z" fill="rgb(192,20,29)" transform="translate(0,0)"></path>
<path d="M 1030.44 364.181 L 1032.19 364.828 C 1037.99 367.126 1046.63 367.621 1052.95 370.397 C 1055.12 371.355 1065.77 371.118 1068.83 371.17 C 1071.13 373.459 1072.86 375.209 1074.73 377.87 C 1072.94 378.431 1072.76 378.358 1071.4 379.502 C 1070 378.585 1068.19 377.207 1066.5 377.036 C 1054.23 375.804 1043.42 372.69 1031.65 368.907 C 1031.43 366.948 1031.05 366.081 1030.44 364.181 z" fill="rgb(242,222,227)" transform="translate(0,0)"></path>
<path d="M 1079.18 381.18 C 1081.68 380.987 1112.07 380.561 1107.89 389.42 C 1105.49 394.51 1105.34 401.714 1101.02 401.624 C 1093.22 401.463 1087.54 405.872 1081.31 410.315 C 1078.31 413.309 1076.3 415.817 1073.55 418.911 C 1068.91 405.516 1067.7 404.267 1057.44 393.921 C 1066.52 386.395 1067.84 385.933 1079.18 381.18 z" fill="rgb(192,20,29)" transform="translate(0,0)"></path>
<path d="M 1031.03 463.145 C 1034.75 465.069 1037.3 464.167 1042.02 464.165 C 1027.3 466.016 1031.04 461.748 1030.95 478.997 L 1029.5 478.46 C 1029.32 477.459 1029.14 475.412 1028.46 474.792 C 1026.87 475.182 1016.67 515.044 1015.57 520.033 L 1013.31 519.897 C 1014.81 509.793 1026.69 473.621 1031.03 463.145 z" fill="rgb(98,100,104)" transform="translate(0,0)"></path>
<path d="M 1533.62 1275.15 C 1534.67 1272.76 1541.13 1255.82 1541.49 1255.58 C 1541.91 1257.78 1538.31 1272.4 1537.66 1275.65 L 1533.62 1275.15 z" fill="rgb(98,100,104)" transform="translate(0,0)"></path>
<path d="M 511.438 1272.16 L 509.838 1262.01 C 509.373 1258.94 509.277 1257.27 509.17 1254.11 C 510.593 1258.56 512.132 1262.75 513.604 1267.16 L 511.438 1272.16 z" fill="rgb(54,57,60)" transform="translate(0,0)"></path>
<path d="M 950.302 1677.34 C 953.843 1678.34 956.315 1679.23 960.027 1680.02 L 958.714 1681.28 C 954.719 1680.79 949.739 1680.22 945.808 1679.55 L 950.302 1677.34 z" fill="rgb(54,57,60)" transform="translate(0,0)"></path>
<path d="M 1097.57 1680.28 C 1093.96 1681.03 1087.52 1681.87 1083.82 1681.85 L 1083.23 1681.23 L 1082.99 1681.79 L 1082.41 1681.56 L 1082.34 1681.58 C 1085.82 1680.17 1088.19 1679.98 1091.78 1679.21 C 1093.72 1679.54 1095.65 1679.9 1097.57 1680.28 z" fill="rgb(169,169,169)" transform="translate(0,0)"></path>
<path d="M 1091.78 1679.21 L 1098.29 1677.52 L 1102.64 1679.49 L 1097.57 1680.28 C 1095.65 1679.9 1093.72 1679.54 1091.78 1679.21 z" fill="rgb(54,57,60)" transform="translate(0,0)"></path>
<path d="M 960.027 1680.02 C 961.068 1680.16 966.47 1680.81 967.25 1681.58 C 967.064 1683.01 959.882 1681.61 958.714 1681.28 L 960.027 1680.02 z" fill="rgb(169,169,169)" transform="translate(0,0)"></path>
<metadata><recraft-signature>{"signed_by": "recraft", "signature_b64": "t8PfiI39jyNwaiCadaKXxRKPdbqlySAm7+pdPjF1w18agc2h5s+51HcNAUza+4aGFMsvkfM/CSUbNbiMtbBvCQ==", "signing_algo": "Ed25519", "generation_timestamp": 1777250609, "identifier": "fa9ba66c-d4d5-4349-b196-a4ef0fd5864c"}</recraft-signature></metadata></svg>