<svg xmlns="http://www.w3.org/2000/svg" height="1024" preserveAspectRatio="none" style="display: block;" version="1.1" viewBox="0 0 2048 2048" width="1024">

<path d="M 804.35 1854.31 C 766.255 1843.58 759.715 1818.05 747.761 1785.09 C 741.341 1770.25 731.277 1754.37 719.375 1743.56 C 688.81 1715.81 639.343 1717.88 634.141 1667.75 C 630.251 1630.27 658.685 1611.52 665.758 1576.9 C 673.803 1537.51 635.979 1521.69 617.589 1493.87 C 596.731 1463.56 603.1 1435.48 623.489 1406.75 C 635.228 1390.21 654.023 1377.65 653.313 1354.96 C 652.133 1317.22 621.601 1288.71 628.873 1248.52 C 634.123 1219.51 656.802 1206.96 679.613 1191.16 C 704.083 1174.21 712.665 1150.39 716.838 1121.64 C 718.242 1111.97 717.724 1101.7 719.429 1091.31 C 725.307 1053.02 764.726 1029.18 798.829 1019.22 C 826.082 1011.26 849.624 1006.45 872.698 988.604 C 883.724 980.075 904.378 963.798 905.417 948.471 C 907.393 919.293 876.342 896.34 861.254 874.552 C 846.009 853.266 837.045 821.901 854.477 799.692 C 864.557 787.37 876.202 777.684 882.094 762.419 C 895.164 728.559 902.251 695.788 907.032 660.024 C 911.36 627.652 932.591 595.285 959.77 577.137 C 986.745 559.124 1017.84 548.679 1050.65 555.759 C 1108.91 567.956 1146.89 602.161 1157.38 661.653 C 1159.98 676.389 1159.72 687.585 1161.33 701.903 C 1163.14 717.951 1168.96 738.122 1174.14 753.509 C 1180.43 772.219 1190.62 783.203 1202.08 798.49 C 1208.95 808.153 1210.12 817.947 1210.42 829.082 C 1211.78 881.143 1141.92 902.853 1170.43 958.23 C 1198.73 1013.21 1273.3 988.869 1305.5 1036.85 C 1338.72 1086.35 1297.54 1139.57 1286.86 1188.32 C 1281.28 1217.35 1288.14 1257.67 1310.9 1278.28 C 1325.01 1291.05 1352.45 1311.89 1354.96 1332.02 C 1357.04 1348.78 1346.03 1383.46 1341.9 1400.82 C 1326.37 1466.11 1358.31 1498.96 1394.8 1546.42 C 1409.8 1567.03 1417.96 1595.19 1412.27 1620.63 C 1404.5 1655.32 1385.62 1664.8 1358.15 1683.11 C 1364.65 1707.32 1371.35 1735.24 1378.65 1758.86 C 1388.8 1765 1415.01 1775.81 1421.34 1782.85 C 1431.13 1793.72 1439.33 1806.4 1450.93 1818.51 C 1437.25 1838.52 1436.39 1856.84 1423.34 1870.51 C 1423.78 1859.97 1425.14 1852.36 1426.96 1842.09 C 1418.88 1854.95 1412.85 1861.3 1404.26 1873.13 C 1404.22 1873.89 1403.94 1874.86 1403.77 1875.6 C 1408.9 1879.9 1419.79 1885.79 1407.15 1886.12 C 1407.5 1890.67 1408.7 1917.07 1407.57 1920.89 C 1403.12 1935.91 1411.82 1925.06 1411.94 1930.65 C 1411.19 1931.44 1409.96 1931.23 1409.24 1931.98 C 1409.31 1933.89 1414.35 1935.72 1415.74 1936.35 C 1414.72 1937.64 1413.86 1938.71 1412.77 1939.95 C 1404.24 1944.5 1386.3 1948.96 1376.72 1949.06 C 1374.76 1949.86 1373.61 1949.77 1373.2 1951.73 C 1395 1956.63 1425.99 1957.56 1443.61 1944.17 C 1473.93 1921.14 1480.9 1895.67 1527.29 1904.26 C 1560.57 1910.42 1587.79 1904.64 1614.09 1881 C 1610.12 1892.74 1605.32 1904.5 1602.19 1916.34 C 1593.2 1917.74 1584.93 1919.03 1579.31 1927.18 C 1566.82 1945.29 1573.63 1969.59 1565.42 1989.84 C 1560.75 2001.33 1552.22 2004.53 1546.95 2011.56 C 1542.68 2017.26 1532.54 2040.92 1530.13 2048 L 1258.71 2048 L 1102.17 2048 L 1057 2048 L 510.051 2048 C 515.414 2041.86 519.011 2037.62 522.293 2030.18 C 591.563 1946.28 653.198 2016.17 733.101 1977.63 C 773.927 1957.94 792.615 1895.73 804.35 1854.31 z" fill="rgb(28,42,48)" transform="translate(0,0)"></path>
<path d="M 1244.83 1777.69 C 1265.99 1760.58 1294.74 1733.53 1315.89 1714.93 C 1305.63 1752.07 1314.51 1764.84 1341.15 1790.47 C 1343.25 1803.09 1343.36 1841.75 1359.95 1843.98 L 1361.33 1842.9 C 1363.27 1836.82 1358.47 1822.34 1357 1814.58 C 1365.92 1821.16 1380.6 1834.31 1391.4 1834.33 C 1391.03 1842.62 1394.79 1858.41 1388.87 1862.28 L 1389.14 1862.9 L 1390.59 1863.04 C 1392.33 1863.16 1392.92 1863.57 1394.25 1864.68 L 1395.16 1864.35 C 1398.33 1869.5 1397.05 1871.34 1403 1873.46 L 1404.26 1873.13 C 1404.22 1873.89 1403.94 1874.86 1403.77 1875.6 C 1408.9 1879.9 1419.79 1885.79 1407.15 1886.12 C 1407.5 1890.67 1408.7 1917.07 1407.57 1920.89 C 1403.12 1935.91 1411.82 1925.06 1411.94 1930.65 C 1411.19 1931.44 1409.96 1931.23 1409.24 1931.98 C 1409.31 1933.89 1414.35 1935.72 1415.74 1936.35 C 1414.72 1937.64 1413.86 1938.71 1412.77 1939.95 C 1404.24 1944.5 1386.3 1948.96 1376.72 1949.06 C 1374.76 1949.86 1373.61 1949.77 1373.2 1951.73 C 1395 1956.63 1425.99 1957.56 1443.61 1944.17 C 1473.93 1921.14 1480.9 1895.67 1527.29 1904.26 C 1560.57 1910.42 1587.79 1904.64 1614.09 1881 C 1610.12 1892.74 1605.32 1904.5 1602.19 1916.34 C 1593.2 1917.74 1584.93 1919.03 1579.31 1927.18 C 1566.82 1945.29 1573.63 1969.59 1565.42 1989.84 C 1560.75 2001.33 1552.22 2004.53 1546.95 2011.56 C 1542.68 2017.26 1532.54 2040.92 1530.13 2048 L 1258.71 2048 C 1243.35 2026.92 1227.96 1972.87 1215.78 1947.02 C 1203.71 1921.4 1190.23 1896.45 1178.06 1870.93 C 1211.18 1847.26 1263.17 1829.22 1244.83 1777.69 z" fill="rgb(254,255,253)" transform="translate(0,0)"></path>
<path d="M 1381.93 1886.53 C 1385.51 1882.85 1404.13 1881.96 1407.15 1886.12 C 1407.5 1890.67 1408.7 1917.07 1407.57 1920.89 C 1403.12 1935.91 1411.82 1925.06 1411.94 1930.65 C 1411.19 1931.44 1409.96 1931.23 1409.24 1931.98 C 1409.31 1933.89 1414.35 1935.72 1415.74 1936.35 C 1414.72 1937.64 1413.86 1938.71 1412.77 1939.95 C 1405.55 1939.69 1398.18 1939.55 1391.03 1939.15 C 1386.65 1938.53 1380.26 1939.97 1376.37 1938.18 C 1375.49 1937.22 1377.47 1935.11 1377.98 1934.83 C 1381.74 1932.77 1379.27 1931.8 1379.34 1929.56 C 1379.42 1926.87 1382.62 1930.18 1383.57 1928.88 C 1383.69 1927.76 1383.38 1927.5 1383.11 1926.5 C 1380.33 1916.05 1382.21 1898.04 1381.93 1886.53 z" fill="rgb(231,20,27)" transform="translate(0,0)"></path>
<path d="M 1394.25 1864.68 L 1395.16 1864.35 C 1398.33 1869.5 1397.05 1871.34 1403 1873.46 L 1404.26 1873.13 C 1404.22 1873.89 1403.94 1874.86 1403.77 1875.6 C 1408.9 1879.9 1419.79 1885.79 1407.15 1886.12 C 1404.13 1881.96 1385.51 1882.85 1381.93 1886.53 L 1381.18 1885.87 L 1381.49 1882.55 L 1381.36 1881.28 C 1383.67 1878.91 1384.92 1874.78 1386.96 1874.06 C 1392.23 1872.21 1393 1869.6 1394.25 1864.68 z" fill="rgb(231,20,27)" transform="translate(0,0)"></path>
<path d="M 1403.77 1875.6 C 1408.9 1879.9 1419.79 1885.79 1407.15 1886.12 C 1404.13 1881.96 1385.51 1882.85 1381.93 1886.53 L 1381.18 1885.87 L 1381.49 1882.55 C 1386.55 1881.35 1403.41 1883.57 1404.47 1881.02 C 1403.76 1878.05 1403.16 1881.46 1403.77 1875.6 z" fill="rgb(238,77,82)" transform="translate(0,0)"></path>
<path d="M 1373.2 1951.73 C 1371.85 1951.5 1368.04 1951.16 1367.6 1949.73 C 1368.33 1948.4 1375.26 1949 1376.72 1949.06 C 1374.76 1949.86 1373.61 1949.77 1373.2 1951.73 z" fill="rgb(137,78,64)" transform="translate(0,0)"></path>
<path d="M 1389.14 1862.9 C 1387.31 1864.68 1383.07 1870.8 1382.71 1870.65 C 1381.48 1866.58 1385.77 1863.72 1388.87 1862.28 L 1389.14 1862.9 z" fill="rgb(167,169,172)" transform="translate(0,0)"></path>
<path d="M 1381.36 1881.28 L 1381.49 1882.55 L 1381.18 1885.87 C 1379.85 1886.52 1379.17 1887.06 1377.76 1886.75 C 1376.23 1885.34 1378.99 1883.23 1379.94 1882.47 L 1381.36 1881.28 z" fill="rgb(231,20,27)" transform="translate(0,0)"></path>
<path d="M 1057 2048 C 1057.03 2040.97 1056.63 2011.97 1058.09 2004.59 C 1058.19 2004.06 1063.2 2001.03 1063.81 2001.58 C 1073.41 2010.16 1095.37 2039.26 1102.17 2048 L 1057 2048 z" fill="rgb(254,255,253)" transform="translate(0,0)"></path>
<path d="M 1414.53 1800.02 C 1424.73 1808.01 1425.94 1811.54 1434.58 1820.25 C 1427.01 1832.33 1416.57 1840.64 1409.32 1853.22 C 1405.07 1860.59 1406.25 1866.28 1403 1873.46 C 1397.05 1871.34 1398.33 1869.5 1395.16 1864.35 L 1394.25 1864.68 C 1392.92 1863.57 1392.33 1863.16 1390.59 1863.04 L 1389.14 1862.9 L 1388.87 1862.28 C 1394.79 1858.41 1391.03 1842.62 1391.4 1834.33 L 1393.54 1834.48 C 1395.21 1834.8 1395.46 1834.79 1396.84 1835.22 C 1400.11 1832.79 1392.01 1823.76 1389.78 1820.52 C 1396.18 1825.38 1402.14 1830.19 1408.87 1834.57 L 1410.43 1833.85 C 1418 1830.59 1413.96 1827.99 1411.16 1821.84 C 1413.75 1823.39 1423.53 1829.91 1425.92 1828.88 C 1434.2 1825.29 1426.34 1818.06 1424.39 1815.63 L 1421.31 1811.73 C 1418.16 1807.68 1416.78 1804.48 1414.53 1800.02 z" fill="rgb(254,255,253)" transform="translate(0,0)"></path>
<path d="M 1391.4 1834.33 L 1393.54 1834.48 L 1393.51 1860.76 C 1395.4 1860.2 1401.33 1858.08 1402.64 1859.38 C 1402.96 1862.55 1396 1860.09 1395.16 1864.35 L 1394.25 1864.68 C 1392.92 1863.57 1392.33 1863.16 1390.59 1863.04 L 1389.14 1862.9 L 1388.87 1862.28 C 1394.79 1858.41 1391.03 1842.62 1391.4 1834.33 z" fill="rgb(167,169,172)" transform="translate(0,0)"></path>
<path d="M 948.582 741.18 C 983.417 738.243 1000.19 748.013 1022.23 774.272 C 1007.13 790.21 996.105 797.456 974.754 802.627 C 942.959 808.421 920.503 796.143 898.64 774.327 C 909.836 757.301 928.708 745.15 948.582 741.18 z" fill="rgb(254,255,253)" transform="translate(0,0)"></path>
<path d="M 953.94 746.53 C 967.448 743.227 981.059 751.561 984.26 765.093 C 987.46 778.625 979.023 792.173 965.467 795.271 C 952.055 798.335 938.683 790.007 935.518 776.62 C 932.352 763.232 940.577 749.797 953.94 746.53 z" fill="rgb(174,114,58)" transform="translate(0,0)"></path>
<path d="M 1084.14 741.242 C 1119.33 738.77 1132.92 748.974 1156.8 773.306 C 1140.89 790.315 1129.79 797.233 1106.78 802.668 C 1077.42 807.097 1052.15 796.7 1033.4 773.676 C 1049.31 756.153 1060.85 745.912 1084.14 741.242 z" fill="rgb(254,255,253)" transform="translate(0,0)"></path>
<path d="M 1090.83 745.847 C 1099.83 744.347 1108.92 747.863 1114.57 755.021 C 1120.21 762.179 1121.51 771.844 1117.96 780.239 C 1114.41 788.635 1106.56 794.429 1097.49 795.358 C 1084.07 796.734 1071.98 787.203 1070.18 773.828 C 1068.38 760.454 1077.52 748.067 1090.83 745.847 z" fill="rgb(174,114,58)" transform="translate(0,0)"></path>
<path d="M 307.156 1782.77 C 279.568 1769.51 289.715 1755.55 272.663 1735.24 C 264.788 1725.86 244.275 1722.07 237.478 1709.37 C 227.505 1690.73 241.008 1680.18 245.541 1663.96 C 250.643 1645.69 233.68 1638.88 225.844 1626.17 C 208.653 1598.28 239.711 1588.4 237.081 1565.55 C 235.446 1551.34 222.817 1536.37 228.498 1520.09 C 234.379 1503.23 251.472 1500.98 259.431 1486.4 C 264.261 1477.55 263.173 1466.42 265.836 1457.68 C 273.598 1428.41 305.719 1430.04 326.587 1418.13 C 353.699 1402.66 339.114 1386.47 325.432 1368.84 C 321.608 1363.91 318.421 1355.91 320.117 1349.58 C 323.508 1336.92 334.382 1327.07 338.362 1314.42 C 343.568 1299.79 343.762 1283.91 350.838 1269.93 C 360.806 1250.23 381.845 1240.34 403.279 1245.07 C 411.833 1246.94 419.809 1250.85 426.533 1256.46 C 445.699 1272.58 443.199 1293.25 450.259 1315.11 C 454.511 1328.28 468.566 1339.82 468.277 1353.77 C 467.873 1373.23 439.154 1380.33 450.358 1402.42 C 461.773 1424.93 489.886 1414.67 503.322 1434.21 C 509.601 1442.86 509.551 1460.35 505.759 1469.44 C 491.388 1503.88 489.232 1520.61 516.089 1549.13 C 525.53 1559.16 517.632 1579.47 514.702 1592.08 C 509.556 1614.22 523.945 1629.89 535.225 1646.98 C 542.116 1657.61 546.711 1668.2 543.531 1681.18 C 540.326 1694.28 530.698 1701.23 520.114 1707.98 L 523.761 1731.76 C 538.003 1746.32 537.721 1748.92 543.445 1767.99 C 540.105 1772.8 534.177 1784.83 530.742 1787.35 L 530.157 1786.31 C 528.695 1783.3 528.414 1783.21 525.942 1781.04 C 522.487 1782.67 517.074 1786.63 513.735 1788.91 C 517.123 1782.29 518.16 1779.88 522.976 1774.17 C 516.452 1777.96 513.02 1779.51 506.018 1782.42 C 510.185 1777.85 517.542 1771.68 522.379 1767.51 C 517.244 1763.56 516.248 1762.73 512.032 1757.71 C 510.922 1758.9 510.196 1759.99 509.235 1761.3 L 508.271 1763.57 C 505.593 1763.03 504.741 1761.23 502.942 1758.5 C 502.334 1757.56 501.737 1756.61 501.153 1755.66 C 501.576 1748.52 502.237 1744.27 503.454 1737.21 L 495.668 1728.76 C 491.664 1732.23 470.285 1750.74 469.889 1753.09 C 466.442 1773.52 463.446 1779.73 441.436 1790.99 C 450.099 1814.95 458.208 1838.7 466.126 1862.92 C 467.925 1868.42 474.772 1877.82 477.012 1884.06 C 481.196 1895.7 480.07 1911.81 483.783 1923.04 C 492.506 1949.43 502.057 1975.77 510.955 2002.14 C 514.024 2011.23 519.246 2021.08 522.293 2030.18 C 519.011 2037.62 515.414 2041.86 510.051 2048 L 506.347 2048 L 298.998 2048 L 265.037 2048 C 271.091 2036.22 276.05 2023.16 282.572 2012.11 C 284.045 2009.62 293.421 2001.27 296.37 1997.79 C 298.941 1994.8 300.946 1991.37 302.285 1987.66 C 309.069 1969.43 303.227 1945.01 313.866 1928.25 C 319.439 1919.47 328.195 1918.18 337.418 1916.46 C 340.707 1903.9 344.824 1894.09 349.659 1882.12 C 306.087 1924.55 281.426 1892.11 236.436 1905.56 C 219.868 1910.52 203.898 1936.73 183.616 1946.8 C 158.242 1959.39 130.721 1958.71 104.196 1950.48 C 108.475 1948.36 110.669 1950.28 113.778 1948.61 C 123.48 1947.22 129.753 1945.4 138.812 1941.69 C 171.333 1928.35 165.667 1897.45 174.909 1873.61 C 208.045 1788.12 274.776 1895.41 307.156 1782.77 z" fill="rgb(0,0,0)" transform="translate(0,0)"></path>
<path d="M 299.819 2022.58 C 309.322 2009.18 318.603 1995.62 327.66 1981.91 C 335.024 1970.77 342.886 1957.82 351.415 1947.55 C 363.945 1932.46 376.537 1929.56 386.072 1911.02 C 392.405 1898.7 389.074 1850.57 392.107 1845.49 C 395.263 1845.82 396.983 1847.88 398.989 1850.54 C 414.561 1871.18 419.648 1881.74 440.226 1898.01 C 443.38 1907.33 447.683 1915.38 450.704 1924.37 C 453.178 1931.73 452.083 1945.77 455.986 1952.66 C 469.416 1976.34 487.468 2000.56 502.87 2023.08 L 498.932 2033.18 C 501.219 2039.92 502.641 2041.95 506.347 2048 L 298.998 2048 C 297.777 2045.82 296.996 2044.77 296.43 2042.34 C 299.592 2032.88 300.479 2032.71 299.819 2022.58 z" fill="rgb(254,255,253)" transform="translate(0,0)"></path>
<path d="M 525.942 1781.04 C 533.382 1778.61 530.745 1775.13 530.157 1786.31 C 528.695 1783.3 528.414 1783.21 525.942 1781.04 z" fill="rgb(254,255,253)" transform="translate(0,0)"></path>
<path d="M 509.235 1761.3 C 507.502 1753.57 505.694 1747.28 512.032 1757.71 C 510.922 1758.9 510.196 1759.99 509.235 1761.3 z" fill="rgb(254,255,253)" transform="translate(0,0)"></path>
<path d="M 521.796 1759.83 C 526.312 1762.97 530.503 1767.9 527.499 1773.35 C 524.849 1772.63 526.682 1771.77 526.653 1770.31 C 526.616 1768.4 522.995 1762.55 522.207 1760.77 L 521.796 1759.83 z" fill="rgb(167,169,172)" transform="translate(0,0)"></path>
<path d="M 531.159 1760.55 C 535.262 1762.68 534.106 1764.63 533.806 1769.22 C 531.356 1766.62 531.877 1764.64 531.159 1760.55 z" fill="rgb(167,169,172)" transform="translate(0,0)"></path>
<path d="M 1578.65 1783.06 C 1552.05 1770.68 1560.17 1753.35 1542.5 1734.3 C 1534.9 1726.11 1517.38 1721.49 1510.36 1711.81 C 1493.87 1689.03 1514.01 1679.25 1516.66 1658.91 C 1518.23 1646.87 1506.77 1638.4 1500.1 1630.47 C 1475.42 1601.1 1505.52 1591.7 1506.42 1566.99 C 1506.75 1557.91 1494.88 1538.69 1496.62 1525.47 C 1499.14 1506.35 1511.79 1506.04 1521.7 1492.63 C 1531.68 1479.1 1527.09 1460.12 1536.69 1446.6 C 1551.4 1425.86 1583.5 1429.22 1601.28 1413.15 C 1626.09 1390.72 1582.08 1372.52 1586.88 1349.13 C 1589.73 1335.29 1595.86 1336.42 1601.62 1323.04 C 1611.46 1300.2 1607.47 1272.16 1628.01 1255.94 C 1638.71 1247.49 1650.87 1242.28 1664.53 1244.21 C 1678.59 1246.2 1690.77 1251.25 1699.54 1262.66 C 1713.59 1280.92 1710.95 1300.35 1717.56 1321.19 C 1721.18 1332.76 1734.98 1343.02 1732.67 1356.05 C 1729.24 1375.4 1705.35 1382.14 1716.7 1403.99 C 1728 1425.76 1755.21 1416.41 1768.15 1433.97 C 1784.18 1455.74 1764.81 1479.16 1761.15 1501.02 C 1757.47 1526.1 1769.44 1532.15 1782.66 1548.35 C 1792.39 1560.29 1784.35 1578.94 1782.29 1593.08 C 1779.08 1615.13 1788.67 1627.46 1801.15 1644.09 C 1808.74 1654.21 1814.53 1665.7 1811.86 1678.76 C 1808.88 1693.33 1798.82 1700.23 1787.43 1707.84 C 1789.83 1733.63 1791.77 1730.37 1804.53 1751.82 C 1805.97 1754.23 1808.93 1766.1 1809.82 1769.58 C 1805.51 1775.82 1802.85 1784.76 1796.84 1788.75 C 1795.46 1787.32 1796.88 1783.06 1796.74 1779.01 C 1794.65 1778.52 1787.47 1785.66 1783.11 1788.27 L 1781.78 1787.92 C 1782.19 1784.81 1782.72 1784.66 1784.41 1781.84 C 1782.52 1781.31 1780.61 1780.82 1778.7 1780.38 C 1777.73 1779.6 1778.28 1780.18 1777.67 1778.21 C 1782.02 1776.2 1785.34 1772.31 1788.8 1768.88 C 1784.07 1763.72 1777.83 1760.61 1774.86 1755.08 L 1772.37 1756.2 C 1773.43 1759.62 1774.6 1760.89 1773.45 1763.27 C 1770.17 1761.64 1768.6 1759.28 1766.19 1756.48 C 1767.02 1750.78 1768.2 1743.81 1768.73 1738.2 L 1761.54 1727.64 C 1752.74 1736.52 1743.2 1744.62 1733.01 1751.86 C 1733.08 1775.04 1723.28 1779.79 1705.09 1790.99 C 1709.98 1803.23 1715.04 1815.3 1719.37 1827.62 C 1721.47 1833.59 1727.15 1857.34 1729.34 1860.57 C 1744.17 1882.48 1743.93 1891.53 1747.05 1916.76 C 1748.88 1931.52 1760.2 1954.36 1764.08 1969.5 C 1773.62 2001.41 1780.7 2021.05 1800 2048 L 1771.23 2048 L 1562.23 2048 L 1530.13 2048 C 1532.54 2040.92 1542.68 2017.26 1546.95 2011.56 C 1552.22 2004.53 1560.75 2001.33 1565.42 1989.84 C 1573.63 1969.59 1566.82 1945.29 1579.31 1927.18 C 1584.93 1919.03 1593.2 1917.74 1602.19 1916.34 C 1605.32 1904.5 1610.12 1892.74 1614.09 1881 C 1587.79 1904.64 1560.57 1910.42 1527.29 1904.26 C 1480.9 1895.67 1473.93 1921.14 1443.61 1944.17 C 1425.99 1957.56 1395 1956.63 1373.2 1951.73 C 1373.61 1949.77 1374.76 1949.86 1376.72 1949.06 C 1386.3 1948.96 1404.24 1944.5 1412.77 1939.95 C 1413.86 1938.71 1414.72 1937.64 1415.74 1936.35 C 1429.69 1914.38 1426.01 1895.7 1434.67 1873.03 C 1458.99 1809.37 1502.57 1855.92 1545.09 1834.59 C 1565.5 1824.35 1572.06 1802.52 1578.65 1783.06 z" fill="rgb(0,0,0)" transform="translate(0,0)"></path>
<path d="M 1656.34 1842.64 C 1673.46 1860.26 1682.32 1881.75 1703.79 1895.7 C 1707.16 1904.15 1712.39 1916.1 1715.03 1924.36 C 1717.28 1931.38 1716.64 1943.09 1720.06 1951.24 C 1726.53 1966.61 1738.03 1979.64 1747.41 1993.57 C 1753.95 2003.29 1760.95 2015.16 1767.78 2024.05 L 1762.9 2034.72 C 1765.61 2040.94 1767.12 2042.64 1771.23 2048 L 1562.23 2048 C 1560.68 2044.58 1559.56 2043.49 1561.31 2039.68 C 1564.31 2033.17 1564.71 2030.82 1564.8 2023.91 L 1564.8 2022.41 C 1584.01 1998.32 1595.2 1973.59 1613.87 1949.81 C 1623.3 1937.8 1648.37 1922.73 1652.21 1909.06 C 1657.06 1891.81 1655.52 1861.45 1656.34 1842.64 z" fill="rgb(254,255,253)" transform="translate(0,0)"></path>
<path d="M 1778.7 1780.38 C 1782.69 1780 1789.04 1776.56 1789.31 1776.68 C 1789.94 1778.13 1785.36 1781.19 1784.41 1781.84 C 1782.52 1781.31 1780.61 1780.82 1778.7 1780.38 z" fill="rgb(222,222,226)" transform="translate(0,0)"></path>
<path d="M 1772.37 1756.2 C 1772.98 1752.53 1774.34 1747.71 1774.86 1755.08 L 1772.37 1756.2 z" fill="rgb(125,123,135)" transform="translate(0,0)"></path>
<path d="M 1789.08 1763.38 C 1795.17 1766.01 1795.4 1766.33 1796.04 1773.18 C 1795.74 1773.15 1794.07 1773.15 1793.51 1772.75 C 1793.11 1772.46 1792.85 1772.01 1792.81 1771.51 C 1792.49 1767.12 1791.94 1767.2 1789.08 1763.38 z" fill="rgb(222,222,226)" transform="translate(0,0)"></path>
<path d="M 1797.63 1759.61 C 1801.18 1762.55 1800.98 1764.73 1800.9 1769.2 C 1798.35 1766.39 1798.23 1763.44 1797.63 1759.61 z" fill="rgb(167,169,172)" transform="translate(0,0)"></path>
<path d="M 0 1249.04 C 31.044 1265.17 25.5015 1286.94 32.6652 1315.13 C 36.2246 1329.13 59.0967 1349.26 47.7807 1364.19 C 35.3625 1380.58 17.6964 1397.51 45.0963 1415.09 C 58.5922 1423.75 83.6819 1421.06 88.334 1443.19 C 96.3408 1470.04 68.866 1492.2 77.3186 1519.46 C 82.6573 1536.67 96.1191 1540.7 103.026 1557.97 C 101.73 1580.42 88.785 1604.39 103.821 1625.67 C 128.497 1660.61 142.844 1680.94 99.3657 1709.65 C 100.316 1716.62 101.411 1726.9 102.972 1733.51 C 115.027 1745.21 117.932 1751.93 121.94 1768.91 C 116.145 1778.82 113.935 1783.77 105.262 1791.39 C 106.601 1787.8 108.525 1783.79 108.368 1780.08 C 104.977 1780.06 100.855 1785.41 94.9595 1786.98 L 94.4247 1785.55 C 96.6072 1780.81 100.083 1777.64 103.586 1773.7 C 99.3892 1775.79 95.6463 1778.08 91.074 1778.79 C 90.8299 1774.86 96.1678 1772.9 98.1616 1770.36 L 98.0645 1768.29 C 95.0534 1763.41 89.8811 1754.48 86.5429 1750.29 C 84.1717 1754.09 87.7094 1760.11 85.189 1762.66 C 76.313 1759.27 79.6671 1744.62 81.3933 1737.38 C 78.6287 1733.42 76.7806 1730.9 73.6209 1727.26 C 63.4471 1736.49 53.7001 1744.12 42.9045 1752.63 C 43.881 1775.19 33.9873 1778.64 17.303 1791.09 C 24.067 1814.16 34.8821 1839.46 42.4603 1862.61 C 45.5894 1870.17 50.4612 1876.49 53.5719 1884.12 C 58.0362 1895.08 56.5573 1909.87 60.0734 1920.68 C 71.2166 1954.93 81.5197 1990.61 95.878 2023.63 C 99.6941 2032.4 107.059 2040.22 112.117 2048 L 83.5631 2048 L 0 2048 L 0 1883.3 L 0 1249.04 z" fill="rgb(0,0,0)" transform="translate(0,0)"></path>
<path d="M 0 1883.3 C 5.42163 1888.98 10.1788 1892.63 16.7978 1896.9 C 19.9282 1907.99 23.4514 1913.79 26.9884 1923.8 C 29.4297 1932.36 28.0368 1943.3 31.6859 1951.42 C 38.0225 1965.53 48.3011 1978.26 56.9958 1991.07 C 64.4066 2001.99 71.7126 2014.87 79.901 2025.09 L 74.6177 2036.39 C 77.8935 2041.21 79.5563 2043.54 83.5631 2048 L 0 2048 L 0 1883.3 z" fill="rgb(254,255,253)" transform="translate(0,0)"></path>
<path d="M 102.531 1765.3 C 102.691 1763.77 102.038 1761.17 102.511 1760.39 C 105.067 1760.25 108.286 1774.59 103.607 1772.36 C 103.622 1772.37 103.118 1768.06 102.714 1766.96 C 102.574 1766.27 102.412 1765.92 102.531 1765.3 z" fill="rgb(125,123,135)" transform="translate(0,0)"></path>
<path d="M 98.0645 1768.29 L 102.531 1765.3 C 102.412 1765.92 102.574 1766.27 102.714 1766.96 C 101.215 1768.12 99.6973 1769.25 98.1616 1770.36 L 98.0645 1768.29 z" fill="rgb(167,169,172)" transform="translate(0,0)"></path>
<path d="M 111.178 1759.77 C 113.428 1762.19 113.703 1762.6 113.616 1765.72 C 111.16 1766.26 111.626 1762.1 111.178 1759.77 z" fill="rgb(167,169,172)" transform="translate(0,0)"></path>
<path d="M 113.368 1773.28 C 113.646 1773.26 113.923 1773.23 114.201 1773.21 C 114.135 1773.46 114.07 1773.72 114.004 1773.97 C 113.618 1774.04 113.232 1774.11 112.846 1774.18 L 112.812 1774.11 C 112.948 1773.75 112.821 1774 113.368 1773.28 z" fill="rgb(102,100,101)" transform="translate(0,0)"></path>
<path d="M 2048 1412.74 L 2048 1888.68 C 2032.6 1901.98 2015.44 1906.37 1995.8 1904.3 C 1969.42 1901.51 1946.37 1896.19 1924.13 1915.22 C 1917.28 1921.07 1911.38 1928.54 1904.87 1934.79 C 1881.51 1956.64 1851.52 1956.57 1821.93 1951.12 L 1821.25 1948.76 C 1830.1 1949.25 1846.99 1947.24 1854.52 1942.93 C 1896.08 1919.1 1865.21 1843.59 1927.46 1837.69 C 1948.49 1835.7 1968.53 1844.64 1989.04 1833.34 C 2008.91 1822.39 2012.58 1803.73 2018.61 1783.99 C 1990.31 1768.27 2000.84 1755.23 1981.47 1733.92 C 1973.71 1725.38 1954.26 1720.94 1948.16 1709.93 C 1937.97 1691.55 1950.73 1679.59 1955.32 1663.39 C 1959.62 1647.71 1943.85 1637.88 1936.4 1625.99 C 1919.65 1599.26 1950.83 1588.1 1950.63 1567.11 C 1950.5 1552.94 1935.6 1534.96 1942.14 1518.27 C 1948.72 1501.46 1967.8 1501.14 1973.9 1484.31 C 1978.6 1472.65 1976.1 1466.1 1978.6 1456.81 C 1984.64 1434.34 2011.15 1429.38 2029.7 1422.39 C 2035.68 1420.14 2042.45 1416.04 2048 1412.74 z" fill="rgb(0,0,0)" transform="translate(0,0)"></path>
<path d="M 2006.79 0 L 2048 0 L 2048 430.327 C 2009.1 445.677 1998.59 428.566 1962.6 434.612 C 1947.13 437.21 1935.63 452.372 1924.81 462.785 C 1901.1 485.598 1872.14 489.02 1841.18 481.435 C 1841.88 480.311 1842.03 479.942 1842.85 479.05 C 1908.31 478.855 1882.37 420.185 1910.82 384.849 C 1933.14 357.13 1968.16 381.04 1995.01 369.696 C 2014.9 361.296 2023.34 335.467 2030.62 316.934 C 2006.14 307.229 2012.9 292.973 1998.77 274.381 C 1993.05 266.862 1982.43 263.19 1974.98 257.63 C 1945.73 235.803 1976.82 219.157 1977.1 197.136 C 1977.29 182.388 1957.08 178.578 1954.6 161.455 C 1951.41 139.465 1968.6 136.061 1969.83 117.034 C 1970.41 108.03 1964.06 95.56 1962.62 85.8177 C 1958.7 59.1612 1982.83 59.4638 1990.27 43.4988 C 1999.01 24.747 1993.09 18.1165 2006.79 0 z" fill="rgb(28,42,48)" transform="translate(0,0)"></path>
<path d="M 0 0 L 64.9506 0 C 65.0417 4.90227 65.2752 11.2845 64.5094 15.9771 C 61.7944 32.6141 51.107 53.9593 59.5709 70.4341 C 66.3858 83.6993 76.2212 85.7579 82.9161 101.508 C 81.4995 115.517 75.7062 134.949 78.9327 147.473 C 89.1949 187.304 141.204 201.092 92.8913 244.346 C 93.5547 263.537 99.3634 263.574 107.811 280.145 C 109.231 282.93 110.942 291.901 111.701 295.443 C 109.493 299.363 106.928 304.226 104.477 307.9 C 103.042 307.615 101.611 307.315 100.183 307 L 99.5666 304.602 C 94.9964 305.526 92.0467 310.17 86.1159 312.726 L 85.4259 311.383 C 86.2921 306.61 87.2699 306.105 90.6933 302.315 C 93.1925 302.111 93.6139 301.334 95.7076 299.608 C 95.2005 292.915 94.7397 294.668 93.0529 288.87 C 82.8718 290.119 88.7274 288.193 80.382 284.109 C 78.0871 281.364 76.8645 279.614 74.8657 276.631 C 75.8618 281.391 77.2611 285.009 75.6352 289.395 L 74.4712 290.387 C 66.8377 283.566 71.323 271.94 71.0974 262.786 C 62.2155 269.856 51.5077 278.148 43.2386 285.755 C 43.5758 289.188 44.1418 293.61 44.1766 296.986 C 36.1717 310.965 30.8479 314.251 16.5621 321.671 C 24.3484 344.541 31.2188 367.279 37.7818 390.523 C 39.3074 395.926 48.9923 407.934 49.5221 412.472 C 52.9778 442.079 59.0756 464.694 70.082 492.678 C 82.359 523.893 90.4637 567.129 122.289 585.23 C 131.332 590.136 145.066 589.114 148.699 596.745 L 147.913 598.717 C 139.28 601.301 104.985 598.688 94.6785 598.252 C 87.8175 597.961 84.149 599.911 73.9382 599.424 C 74.0541 589.186 74.0489 579.888 75.8233 569.715 C 73.5318 566.327 71.4989 563.482 69.6285 559.802 C 71.2771 556.039 72.8761 552.204 74.7533 548.555 C 68.0984 540.675 59.9163 525.85 53.6983 516.608 C 44.9645 503.627 33.7447 490.953 27.3292 476.86 C 23.981 469.505 24.501 457.901 22.4743 450.821 C 20.0588 442.383 15.6342 433.685 12.8462 424.909 C 7.64582 420.325 5.90757 419.328 0 415.878 L 0 0 z" fill="rgb(28,42,48)" transform="translate(0,0)"></path>
<path d="M 93.0529 288.87 C 93.1864 288.506 93.3199 288.143 93.4534 287.779 C 95.7098 287.826 99.8718 294.335 95.7076 299.608 C 95.2005 292.915 94.7397 294.668 93.0529 288.87 z" fill="rgb(222,222,226)" transform="translate(0,0)"></path>
<path d="M 100.905 283.559 C 103.569 288.404 104.008 289.981 104.045 295.239 C 100.209 292.175 101.009 288.26 100.905 283.559 z" fill="rgb(222,222,226)" transform="translate(0,0)"></path>
<path d="M 1975.33 2048 C 1977.69 2040.21 1986.23 2018.42 1990.94 2012.19 C 1995.83 2005.74 2005.35 2001.91 2009.58 1991.35 C 2017.7 1971.12 2012.13 1950.2 2021.68 1930.45 C 2027.79 1917.81 2035.84 1919.68 2046.24 1915.75 L 2048 1915.06 L 2048 1964.79 L 2048 2048 L 2007.18 2048 L 1975.33 2048 z" fill="rgb(0,0,0)" transform="translate(0,0)"></path>
<path d="M 2009.14 2023.15 C 2021.31 2008.02 2036.32 1981.93 2048 1964.79 L 2048 2048 L 2007.18 2048 C 2001.16 2037.74 2007.08 2044.3 2008.26 2031 C 2008.47 2028.64 2008.74 2024.68 2009.02 2023.09 L 2009.06 2023.06 L 2009.14 2023.15 z" fill="rgb(254,255,253)" transform="translate(0,0)"></path>
<path d="M 2048 449.851 L 2048 508.867 L 2048 592.178 L 2048 598.9 C 2028.24 599.193 2005.4 600.14 1985.65 598.802 C 1983.28 598.641 1983.54 598.284 1982.5 596.798 C 1982.02 581.533 1997.22 549.678 2005.43 536.337 C 2011.33 529.325 2020.54 523.296 2023.75 514.355 C 2032.64 489.513 2018.11 463.859 2048 449.851 z" fill="rgb(28,42,48)" transform="translate(0,0)"></path>
<path d="M 2021.35 549.215 C 2030.97 535.604 2039.2 522.948 2048 508.867 L 2048 592.178 C 2040.03 588.772 2037.66 587.579 2029.33 585.374 C 2027.95 582.919 2018.08 567.515 2018.93 566.658 C 2024.09 561.435 2020.69 553.903 2021.35 549.215 z" fill="rgb(254,255,253)" transform="translate(0,0)"></path>
<path d="M 2048 1322.35 L 2048 1379.51 C 2025.22 1350.31 2030.7 1351.3 2048 1322.35 z" fill="rgb(0,0,0)" transform="translate(0,0)"></path>
<path d="M 80.382 284.109 C 88.7274 288.193 82.8718 290.119 93.0529 288.87 C 94.7397 294.668 95.2005 292.915 95.7076 299.608 C 93.6139 301.334 93.1925 302.111 90.6933 302.315 C 87.8104 302.52 78.9461 306.326 74.2038 307.401 C 79.1953 302.289 85.0941 298.494 90.7721 293.98 L 88.4393 292.455 C 84.7519 290.092 83.6068 289.354 81.288 285.542 L 80.382 284.109 z" fill="rgb(42,54,60)" transform="translate(0,0)"></path>
<path d="M 100.183 307 C 101.611 307.315 103.042 307.615 104.477 307.9 C 99.8607 315.845 96.9185 318.169 100.183 307 z" fill="rgb(42,54,60)" transform="translate(0,0)"></path>
<path d="M 104.196 1950.48 C 103.529 1950.3 100.82 1949.75 100.563 1948.66 C 100.548 1948.6 100.576 1948.36 100.679 1948.34 C 103.921 1947.71 110.655 1948.33 113.778 1948.61 C 110.669 1950.28 108.475 1948.36 104.196 1950.48 z" fill="rgb(42,54,60)" transform="translate(0,0)"></path>
<path d="M 1841.18 481.435 C 1840.31 481.255 1833.61 480.289 1833.64 479.284 C 1833.94 479.527 1834.38 479.636 1834.75 479.756 L 1835.5 478.9 C 1837.95 478.967 1840.39 478.974 1842.85 479.05 C 1842.03 479.942 1841.88 480.311 1841.18 481.435 z" fill="rgb(42,54,60)" transform="translate(0,0)"></path>
<path d="M 1821.93 1951.12 C 1812.31 1948.94 1815.17 1946.99 1821.25 1948.76 L 1821.93 1951.12 z" fill="rgb(102,100,101)" transform="translate(0,0)"></path>
<metadata><recraft-signature>{"signed_by": "recraft", "signature_b64": "W1Dp3tztUxUUWXoQKbEtIGPllgEWJLXp/suDU1SUuJg7LIhvsIr3uXX+OMpEx9UlUhLZU7b48+rxaLbs5FXTCQ==", "signing_algo": "Ed25519", "generation_timestamp": 1777250625, "identifier": "d47d4096-80b5-433e-bdd7-ec973653cc9e"}</recraft-signature></metadata></svg>