<svg xmlns="http://www.w3.org/2000/svg" height="1024" preserveAspectRatio="none" style="display: block;" version="1.1" viewBox="0 0 2048 2048" width="1024">

<path d="M 566.023 1890.05 C 673.917 1889.04 781.817 1888.89 889.713 1889.59 L 1330.27 1889.24 C 1381.1 1889.19 1431.9 1890.38 1482.8 1889.77 C 1482.8 1918.78 1482.15 1930.7 1514.76 1935.4 C 1512.39 1969.79 1525.34 1974.95 1557.16 1974.95 C 1557.97 1986.2 1558.29 1997.52 1567.44 2005.6 C 1588.8 2024.47 1629.08 1995.26 1648.41 2048 L 402.885 2048 C 408.608 2034.35 416.825 2021.08 431.456 2016.77 C 461.122 2008.03 491.842 2021.77 492.317 1974.96 C 526.132 1975.07 534.252 1968 533.759 1934.14 C 565.198 1933.65 566.054 1915.88 566.023 1890.05 z" fill="rgb(4,16,25)" transform="translate(0,0)"></path>
<path d="M 1291.68 1948.37 C 1319.91 1945.08 1349.36 1958.25 1377.97 1956.15 C 1383.73 1955.73 1396.42 1952.68 1401.25 1954.03 L 1400.32 1955.57 C 1365.53 1965.17 1345.35 1955.79 1312.13 1951.38 C 1289.05 1948.76 1271.28 1957.52 1248.86 1959.01 C 1237.72 1959.75 1215.1 1957.19 1205.56 1951.72 C 1210.5 1951.15 1232.28 1956.02 1243.36 1955.82 C 1263.3 1955.46 1273.13 1950.74 1291.68 1948.37 z" fill="rgb(63,83,97)" transform="translate(0,0)"></path>
<path d="M 1035.8 2008.43 C 1059.39 2008.9 1076.37 2013.05 1099.47 2015.77 C 1109.44 2016.95 1124.44 2014.25 1133.15 2016.41 L 1131.89 2016.17 L 1132.41 2017.18 L 1132.37 2016.28 L 1131.45 2016.16 L 1131.15 2017.57 L 1130.9 2016.14 L 1130.38 2016.11 L 1129.64 2017.92 C 1097.26 2024.06 1078.06 2013.95 1047.25 2011.98 C 1006.16 2010.24 978.186 2027.92 941.203 2013.2 C 952.947 2013.74 968.513 2017 979.789 2015.8 C 999.59 2013.69 1015.38 2009.39 1035.8 2008.43 z" fill="rgb(63,83,97)" transform="translate(0,0)"></path>
<path d="M 814.174 2008.44 C 842.812 2007.71 867.701 2018.31 895.984 2016.88 C 902.026 2016.58 907.299 2014.23 913.661 2014.8 L 913.504 2015.88 C 892.772 2027.16 851.053 2013.7 828.251 2011.94 C 795.185 2010.43 776.96 2019.93 745.484 2019.36 C 742.467 2019.3 727.818 2016.53 726.303 2014.85 C 737.771 2013.95 748.682 2017.26 761.325 2015.77 C 779.99 2013.57 795.18 2009.36 814.174 2008.44 z" fill="rgb(63,83,97)" transform="translate(0,0)"></path>
<path d="M 581.711 2009.41 C 610.7 2004.79 640.18 2017.75 668.917 2016.47 C 674.701 2016.21 681.991 2013.63 687.342 2014.66 L 687.831 2016.03 C 684.976 2018.58 681.25 2018.27 677.654 2018.88 C 655.61 2022.63 634.972 2016.04 613.244 2013.17 C 601.675 2012.19 593.765 2011.84 582.226 2012.89 C 560.721 2014.85 525.091 2023.77 504.69 2014.37 C 510.404 2013.46 525.677 2016.01 534.292 2015.48 C 551.009 2014.45 565.252 2011.14 581.711 2009.41 z" fill="rgb(63,83,97)" transform="translate(0,0)"></path>
<path d="M 684.439 1918.41 C 704.728 1915.17 731.048 1925.32 752.657 1925.55 C 770.472 1925.74 783.989 1920.38 800.46 1919.65 C 768.637 1931.32 750.691 1930.5 717.744 1923.74 C 666.621 1913.13 651.366 1939.93 599.163 1923.54 C 609.193 1922.74 622.139 1926.38 632.496 1925.9 C 649.466 1925.1 665.774 1920.01 682.802 1918.54 L 684.439 1918.41 z" fill="rgb(63,83,97)" transform="translate(0,0)"></path>
<path d="M 1011.62 1917.4 C 1041.96 1912.37 1074.88 1928.03 1105.68 1923.68 C 1111.23 1922.89 1120.36 1920.33 1125.44 1921.03 L 1125.52 1922.08 C 1112.67 1929.38 1084.22 1927.87 1069.76 1925.72 C 1047.56 1920.94 1030.99 1917.73 1008.04 1920.86 C 990.618 1923.24 976.288 1928.33 958.82 1926.66 L 957.772 1924.99 L 957.293 1925.12 L 957.312 1926.49 L 955.684 1925.73 C 961.849 1923.61 971.54 1923.67 978.442 1922.56 C 989.617 1920.76 1000.35 1918.46 1011.62 1917.4 z" fill="rgb(63,83,97)" transform="translate(0,0)"></path>
<path d="M 639.759 1978.44 C 661.478 1978.21 673.138 1982.24 694.201 1985.38 C 699.375 1986.15 711.891 1983.91 720.13 1984.57 L 720.692 1985.32 C 692.874 1994.65 675.676 1982.33 646.007 1981.75 C 619.937 1981.51 585.593 1994.05 563.82 1982.25 C 566.753 1981.48 584.257 1984.42 591.345 1984.09 C 608.518 1983.31 622.817 1979.28 639.759 1978.44 z" fill="rgb(63,83,97)" transform="translate(0,0)"></path>
<path d="M 847.676 1948.19 C 848.106 1948.13 850.784 1948.22 851.304 1948.23 L 851.641 1949.08 C 847.718 1952.45 815.081 1959 808.906 1959.17 C 771.074 1960.22 747.482 1947.6 709.289 1956.73 C 707.316 1957.09 707.819 1956.92 705.69 1956.47 L 705.078 1954.66 C 707.7 1952.27 711.368 1952.58 715.318 1951.8 C 744.66 1946.03 770.618 1956.07 799.672 1955.89 C 816.518 1955.78 831.33 1952.01 847.676 1948.19 z" fill="rgb(63,83,97)" transform="translate(0,0)"></path>
<path d="M 1195.73 2009.41 C 1225.54 2006.86 1246.6 2014.87 1275.96 2016.7 C 1291.03 2017.63 1303.22 2012.98 1316.04 2013.28 L 1315.86 2014.11 C 1310.58 2016.96 1306.62 2017.26 1300.77 2018.21 C 1266.85 2023.22 1247 2015.08 1214.24 2012.14 C 1201.02 2010.96 1186.83 2014.8 1176.18 2013.98 C 1180.74 2010.76 1190.23 2009.94 1195.73 2009.41 z" fill="rgb(63,83,97)" transform="translate(0,0)"></path>
<path d="M 1430.68 2009.37 C 1454.65 2005.21 1486.13 2015.73 1510.81 2016.75 C 1517.52 2017.03 1545.91 2013.56 1546.84 2013.81 L 1545.87 2015.37 C 1541.35 2018.14 1538.25 2018.15 1532.99 2018.92 C 1497.99 2024.67 1464.97 2008.23 1430.04 2012.52 C 1424.6 2013.18 1417.93 2014.67 1412.67 2014.25 C 1415.92 2010.43 1425.66 2009.93 1430.68 2009.37 z" fill="rgb(63,83,97)" transform="translate(0,0)"></path>
<path d="M 1038.13 1980.4 C 1058.72 1977.69 1077.93 1984.32 1098.3 1985.56 C 1104.15 1985.91 1118.94 1983.31 1121.55 1984.46 L 1120.48 1985.86 C 1101.86 1992.78 1078.79 1985.67 1059.43 1983.06 C 1037.61 1982.24 1027.37 1985.6 1006.14 1987.96 C 999.461 1988.7 980.928 1987.56 976.261 1983.37 C 984.094 1982.6 993.061 1985.22 1001.46 1985.03 C 1013.71 1984.75 1025.83 1982.07 1038.13 1980.4 z" fill="rgb(63,83,97)" transform="translate(0,0)"></path>
<path d="M 848.574 1979.41 C 866.241 1977.06 882.007 1982.01 899.217 1984.52 C 905.993 1985.5 918.571 1983.79 924.5 1986.14 C 921.534 1986.65 910.51 1988.6 908.235 1988.47 C 889.467 1987.37 878.47 1982.12 858.707 1981.7 C 836.716 1982.09 802.789 1991.64 781.532 1982.55 L 781.408 1980.89 C 785.766 1980.34 798.152 1983.38 805.204 1983.43 C 820.82 1983.53 833.214 1981.19 848.574 1979.41 z" fill="rgb(63,83,97)" transform="translate(0,0)"></path>
<path d="M 926.556 1950.39 C 948.597 1947.62 963.987 1951.53 985.386 1953.9 C 992.076 1954.64 999.822 1953.29 1007.55 1954.15 L 1006.76 1955.03 C 985.635 1960.94 968.137 1952.97 946.168 1952.17 L 944.449 1952.11 C 920.255 1952.24 886.579 1963.57 864.732 1953.46 L 864.24 1952.1 C 869.317 1951.87 881.348 1954.86 887.248 1954.83 C 900.131 1954.77 913.633 1952.05 926.556 1950.39 z" fill="rgb(63,83,97)" transform="translate(0,0)"></path>
<path d="M 1180.59 1979.31 C 1200.32 1976.69 1231.31 1985.27 1253.17 1985.17 C 1269.91 1985.1 1283.59 1980.52 1298.07 1980.26 L 1298.32 1981.23 C 1294.31 1983.52 1288.89 1984.14 1284.22 1985.04 C 1267.61 1987.14 1252.1 1989.54 1235.2 1987.42 C 1220.27 1985.55 1207.2 1982.42 1192.06 1981.66 C 1183.78 1981.24 1170.2 1984.86 1165.29 1983.68 L 1166.06 1982.32 C 1171.48 1980.45 1174.97 1980.13 1180.59 1979.31 z" fill="rgb(63,83,97)" transform="translate(0,0)"></path>
<path d="M 1486.73 1982.26 L 1487.96 1983.52 L 1487.07 1985.12 C 1459.97 1997.58 1431.49 1988.25 1403.81 1986.32 C 1393.28 1985.59 1381.51 1987.66 1371.23 1989.72 L 1370.31 1989.35 L 1369.83 1988.14 C 1379.49 1977.16 1436.53 1987.48 1450.69 1987.99 C 1463.26 1988.44 1474.58 1985.57 1486.73 1982.26 z" fill="rgb(63,83,97)" transform="translate(0,0)"></path>
<path d="M 651.634 1949 C 653.786 1948.59 653.95 1948.3 655.35 1949.92 C 652.573 1952.78 646.818 1953.86 643.24 1955.22 C 619.688 1964.16 597.474 1955.79 573.611 1954.6 C 564.416 1954.14 556.442 1955.9 547.212 1958 L 545.891 1958.36 L 544.504 1957.78 L 544.815 1958.59 L 543.623 1958.33 L 543.414 1956.93 C 560.018 1944.92 599.074 1956.16 617.79 1956.05 C 630.486 1955.97 639.681 1953.03 651.634 1949 z" fill="rgb(63,83,97)" transform="translate(0,0)"></path>
<path d="M 892.894 1919.39 C 902.84 1918.4 938.19 1919.72 944.691 1926.4 C 941.222 1926.8 919.902 1922.79 914.497 1922.31 C 901.734 1921.17 894.605 1922 881.88 1923.81 C 868.116 1926.37 840.89 1925.35 826.815 1922.56 L 826.89 1921.91 C 839.994 1919.85 852.521 1922.01 865.545 1922.26 C 874.193 1922.42 884.285 1920.71 892.894 1919.39 z" fill="rgb(63,83,97)" transform="translate(0,0)"></path>
<path d="M 1161.54 1920.36 C 1180.09 1916.75 1207.67 1925.32 1227 1923.76 C 1229.03 1923.59 1233.45 1922.87 1230.87 1926.42 C 1230.11 1927.46 1217.16 1926.83 1215.75 1926.76 C 1194.6 1924.52 1172.48 1920.46 1151.53 1925.24 C 1149.62 1925.67 1145.1 1927.21 1143.88 1925.01 C 1143.9 1921.88 1158.72 1920.74 1161.54 1920.36 z" fill="rgb(63,83,97)" transform="translate(0,0)"></path>
<path d="M 1477.15 1918.25 C 1477.86 1918.32 1477.97 1918.24 1478.44 1918.53 C 1478.54 1918.74 1478.51 1918.6 1478.41 1919.02 C 1475.06 1922.64 1459.9 1926.09 1455 1926.96 C 1441.44 1929.37 1429.56 1927.79 1416.27 1925.3 C 1415.13 1924.8 1412.98 1922.93 1415.4 1922.89 C 1421.69 1923.15 1428.12 1924.31 1434.5 1924.81 C 1450.01 1926.04 1462.46 1921.64 1477.15 1918.25 z" fill="rgb(63,83,97)" transform="translate(0,0)"></path>
<path d="M 1474.17 1953.29 C 1479.2 1952.7 1506.28 1952.68 1508.54 1957.48 L 1508.35 1957.83 C 1505.44 1958.12 1497.95 1956.58 1494.95 1956.07 C 1486.76 1955.92 1478.61 1955.4 1470.5 1956.87 C 1468.2 1957.29 1459.56 1959.77 1458.22 1958.36 C 1457.68 1955.33 1471.91 1953.64 1474.17 1953.29 z" fill="rgb(63,83,97)" transform="translate(0,0)"></path>
<path d="M 1072.4 1953.21 C 1073.49 1953.1 1077.09 1952.7 1077.99 1953.27 C 1084.64 1957.56 1100.7 1951.43 1104.33 1955.74 C 1095.71 1958.75 1080.17 1958.51 1072.4 1953.21 z" fill="rgb(63,83,97)" transform="translate(0,0)"></path>
<path d="M 1002.02 67.7965 C 1020.84 63.1561 1090.74 70.7608 1107.14 78.7878 C 1180.95 96.9945 1243.75 152.413 1282.75 216.372 L 1283.42 217.484 C 1294.56 214.55 1309.59 211.533 1321.16 210.804 C 1333.52 206.312 1385.26 209.785 1398.08 214.729 C 1473.6 231.094 1549.25 297.781 1565.32 374.794 C 1567.73 380.867 1569.19 389.206 1570.55 395.759 C 1578.46 396.423 1598.57 398.6 1605.5 401.839 C 1654.83 412.049 1709.05 450.353 1736.82 493.532 C 1737.11 494.095 1737.4 494.658 1737.69 495.222 C 1741.99 501.386 1751.36 515.874 1753.67 522.85 C 1761.3 536.496 1768.47 559.803 1771.79 575.016 C 1772.75 579.479 1773.57 583.974 1774.23 588.494 C 1775.42 596.481 1776.02 603.289 1776.18 611.353 C 1777.26 615.912 1777.18 623.412 1776.09 627.966 C 1775.77 641.042 1774.79 652.386 1772.45 665.281 C 1778.73 669.737 1784.62 673.843 1791.16 679.253 C 1828.47 710.092 1855.44 755.285 1864.74 802.816 C 1864.78 803.441 1864.82 804.066 1864.86 804.691 C 1875.85 842.948 1868.13 899.515 1851.26 935.625 C 1850.74 936.732 1850.3 937.344 1849.67 938.307 L 1848.83 940.133 C 1839.95 960.566 1822.22 984.235 1807.06 1000.38 L 1808.39 1001.53 C 1816.29 1008.24 1822.27 1011.56 1830.84 1019.75 C 1853.61 1041.74 1867.58 1071.29 1870.12 1102.85 C 1873.12 1138.16 1861.86 1173.19 1838.84 1200.13 C 1825.58 1215.57 1813.48 1223.45 1795.85 1232.97 C 1791.71 1284.71 1765.68 1324.94 1716.44 1344.69 C 1700.51 1351.08 1687.76 1352.5 1670.89 1353.97 C 1652.31 1432.09 1578.52 1467.36 1504.36 1439.91 C 1490.56 1472.2 1466.01 1492.26 1433.91 1505.22 C 1366.37 1532.49 1299.2 1504.39 1239.08 1473.71 C 1229.42 1497.93 1209.49 1516.71 1185.63 1526.79 C 1174.98 1531.21 1163.72 1533.98 1152.24 1534.97 C 1141.42 1535.87 1125.33 1531.87 1118.23 1535.85 C 1108.03 1544.94 1085.69 1557.06 1072.24 1560.35 C 1053.26 1569.65 1006.34 1570.41 986.756 1562.74 C 972.165 1560.78 952.39 1549.77 940.013 1542.04 C 936.265 1539.7 929.914 1534.01 925.835 1534.1 L 923.802 1534.16 L 921.788 1534.19 C 921.336 1534.39 920.884 1534.59 920.432 1534.79 C 883.833 1539.07 844.975 1523.81 822.479 1494.46 C 816.042 1486.07 813.639 1480.68 810.391 1473.1 C 802.283 1478.35 793.869 1483.12 785.194 1487.37 C 765.305 1497.05 736.819 1506.98 714.992 1511.32 C 650.454 1524.15 578.771 1502.3 548.625 1440.3 C 477.807 1470.01 398.803 1428.07 379.829 1354.05 C 374.349 1353.89 368.88 1353.46 363.44 1352.78 C 263.702 1340.38 219.66 1230.48 246.552 1142.51 C 248.31 1136.75 252.534 1125.53 252.98 1120.27 C 243.1 1115.05 227.325 1101.38 220.536 1092.35 L 219.917 1091.6 C 202.336 1073.26 184.389 1036.45 181.779 1011.14 C 177.313 1000.5 178.016 951.956 182.744 940.125 C 187.117 912.4 202.24 883.874 220.647 862.889 C 223.923 859.154 234.563 849.738 235.553 846.643 L 232.346 841.222 C 213.971 821.502 203.069 763.482 207.914 737.475 C 209.56 689.425 236.881 645.92 272.875 615.737 C 273.251 602.393 274.705 590.948 277.048 577.823 C 277.657 572.5 279.703 563.74 281.672 558.787 C 287.63 531.827 308.319 496.492 325.899 475.624 C 362.724 431.91 416.071 401.819 473.259 396.548 L 474.97 395.826 C 476.902 393.296 477.912 385.95 479.381 381.742 L 479.685 380.893 C 484.74 356.754 499.931 325.49 514.713 306.044 C 516.634 302.63 521.588 296.482 524.339 293.699 C 560.251 247.059 624.401 213.109 683.153 209.76 C 689.065 208.012 716.381 207.909 722.215 209.831 C 734.654 210.202 753.237 214.158 765.575 216.688 C 773.821 202.015 791.351 178.898 802.303 166.551 C 853.331 108.692 925.066 73.2208 1002.02 67.7965 z" fill="rgb(63,83,97)" transform="translate(0,0)"></path>
<path d="M 1002.02 67.7965 C 1020.84 63.1561 1090.74 70.7608 1107.14 78.7878 C 1180.95 96.9945 1243.75 152.413 1282.75 216.372 L 1283.42 217.484 C 1294.56 214.55 1309.59 211.533 1321.16 210.804 C 1333.52 206.312 1385.26 209.785 1398.08 214.729 C 1473.6 231.094 1549.25 297.781 1565.32 374.794 C 1567.73 380.867 1569.19 389.206 1570.55 395.759 C 1578.46 396.423 1598.57 398.6 1605.5 401.839 C 1654.83 412.049 1709.05 450.353 1736.82 493.532 C 1737.11 494.095 1737.4 494.658 1737.69 495.222 C 1741.99 501.386 1751.36 515.874 1753.67 522.85 C 1761.3 536.496 1768.47 559.803 1771.79 575.016 C 1772.75 579.479 1773.57 583.974 1774.23 588.494 C 1775.42 596.481 1776.02 603.289 1776.18 611.353 C 1777.26 615.912 1777.18 623.412 1776.09 627.966 C 1775.77 641.042 1774.79 652.386 1772.45 665.281 C 1778.73 669.737 1784.62 673.843 1791.16 679.253 C 1828.47 710.092 1855.44 755.285 1864.74 802.816 C 1864.78 803.441 1864.82 804.066 1864.86 804.691 C 1875.85 842.948 1868.13 899.515 1851.26 935.625 C 1850.74 936.732 1850.3 937.344 1849.67 938.307 L 1848.83 940.133 C 1839.95 960.566 1822.22 984.235 1807.06 1000.38 L 1806.35 998.955 C 1805.58 999.173 1804.8 999.391 1804.03 999.608 C 1788.61 991.486 1771.7 986.416 1754.29 985.118 C 1747.7 984.627 1741.38 984.775 1734.82 985.01 C 1714.25 924.329 1671.95 885.088 1605.79 884.542 C 1588.1 836.349 1564.83 818.232 1516.22 804.321 C 1506.84 746.111 1484.92 700.639 1435.81 665.211 C 1399.27 638.332 1354.14 625.806 1308.98 630.013 C 1296.56 598.915 1283.91 572.442 1263.45 546.046 C 1181.96 440.914 1043.32 398.951 918.474 447.536 C 846.447 475.567 781.071 534.448 750.614 605.972 C 747.402 613.492 744.431 621.113 741.704 628.822 C 634.27 627.667 548.664 694.678 537.241 803.763 C 491.37 816.019 466.517 838.529 450.563 882.979 C 390.854 900.024 348.712 940.968 345.113 1005.02 C 303.416 1034.53 274.312 1072.16 254.429 1119.24 L 252.98 1120.27 C 243.1 1115.05 227.325 1101.38 220.536 1092.35 L 219.917 1091.6 C 202.336 1073.26 184.389 1036.45 181.779 1011.14 C 177.313 1000.5 178.016 951.956 182.744 940.125 C 187.117 912.4 202.24 883.874 220.647 862.889 C 223.923 859.154 234.563 849.738 235.553 846.643 L 232.346 841.222 C 213.971 821.502 203.069 763.482 207.914 737.475 C 209.56 689.425 236.881 645.92 272.875 615.737 C 273.251 602.393 274.705 590.948 277.048 577.823 C 277.657 572.5 279.703 563.74 281.672 558.787 C 287.63 531.827 308.319 496.492 325.899 475.624 C 362.724 431.91 416.071 401.819 473.259 396.548 L 474.97 395.826 C 476.902 393.296 477.912 385.95 479.381 381.742 L 479.685 380.893 C 484.74 356.754 499.931 325.49 514.713 306.044 C 516.634 302.63 521.588 296.482 524.339 293.699 C 560.251 247.059 624.401 213.109 683.153 209.76 C 689.065 208.012 716.381 207.909 722.215 209.831 C 734.654 210.202 753.237 214.158 765.575 216.688 C 773.821 202.015 791.351 178.898 802.303 166.551 C 853.331 108.692 925.066 73.2208 1002.02 67.7965 z" fill="rgb(63,83,97)" transform="translate(0,0)"></path>
<path d="M 1321.16 210.804 C 1333.52 206.312 1385.26 209.785 1398.08 214.729 C 1473.6 231.094 1549.25 297.781 1565.32 374.794 C 1567.73 380.867 1569.19 389.206 1570.55 395.759 C 1578.46 396.423 1598.57 398.6 1605.5 401.839 C 1654.83 412.049 1709.05 450.353 1736.82 493.532 C 1737.11 494.095 1737.4 494.658 1737.69 495.222 C 1741.99 501.386 1751.36 515.874 1753.67 522.85 C 1761.3 536.496 1768.47 559.803 1771.79 575.016 C 1772.75 579.479 1773.57 583.974 1774.23 588.494 C 1775.42 596.481 1776.02 603.289 1776.18 611.353 C 1777.26 615.912 1777.18 623.412 1776.09 627.966 C 1773.73 639.959 1772.83 651.491 1770.37 663.869 C 1731.38 640.392 1697.32 630.829 1651.81 630.986 C 1636.73 545.228 1569.31 488.037 1483.89 479.982 C 1464.74 403.969 1398.73 354.694 1323.16 343.917 C 1317.27 293.281 1309.55 264.998 1285.02 219.577 C 1294.01 217.111 1314.69 213.582 1321.16 210.804 z" fill="rgb(63,83,97)" transform="translate(0,0)"></path>
<path d="M 1398.08 214.729 C 1473.6 231.094 1549.25 297.781 1565.32 374.794 C 1563.66 373.664 1552.22 342.136 1549.57 336.879 C 1539 316.057 1525.45 296.89 1509.34 279.984 C 1489.8 259.915 1466.75 243.585 1441.34 231.798 C 1435.51 229.141 1399.87 216.883 1398.08 214.729 z" fill="rgb(4,16,25)" transform="translate(0,0)"></path>
<path d="M 1605.5 401.839 C 1654.83 412.049 1709.05 450.353 1736.82 493.532 C 1737.11 494.095 1737.4 494.658 1737.69 495.222 L 1737.12 495.695 L 1736.06 495.528 C 1732.34 489.392 1727.41 484.006 1722.92 478.43 C 1700.02 449.973 1672.08 429.844 1638.7 415.244 C 1632.03 412.329 1609.43 404.785 1605.5 401.839 z" fill="rgb(4,16,25)" transform="translate(0,0)"></path>
<path d="M 1776.18 611.353 C 1775.97 611.824 1775.76 612.294 1775.56 612.764 C 1775.61 612.844 1774.64 606.685 1774.62 606.486 C 1773.71 598.084 1772.88 589.749 1771.01 581.487 C 1770.26 578.181 1769.71 574.795 1768.9 571.484 L 1767.89 567.48 C 1765.68 558.808 1753.36 527.492 1753.67 522.85 C 1761.3 536.496 1768.47 559.803 1771.79 575.016 C 1772.75 579.479 1773.57 583.974 1774.23 588.494 C 1775.42 596.481 1776.02 603.289 1776.18 611.353 z" fill="rgb(4,16,25)" transform="translate(0,0)"></path>
<path d="M 683.153 209.76 C 689.065 208.012 716.381 207.909 722.215 209.831 L 721.931 210.498 C 732.657 214.284 752.096 215.6 764.358 219.263 C 740.431 259.809 729.784 297.02 725.735 343.71 C 668.564 352.927 627.131 375.803 591.328 423.128 C 578.828 439.651 572.23 456.664 565.352 475.923 C 499.934 482.728 450.152 517.247 421.101 576.256 C 368.336 570.467 319.612 578.206 276.966 612.236 L 275.423 613.487 C 275.69 602.728 276.288 588.227 278.007 577.671 L 277.048 577.823 C 277.657 572.5 279.703 563.74 281.672 558.787 C 287.63 531.827 308.319 496.492 325.899 475.624 C 362.724 431.91 416.071 401.819 473.259 396.548 L 474.97 395.826 C 476.902 393.296 477.912 385.95 479.381 381.742 L 479.685 380.893 C 484.74 356.754 499.931 325.49 514.713 306.044 C 516.634 302.63 521.588 296.482 524.339 293.699 C 560.251 247.059 624.401 213.109 683.153 209.76 z" fill="rgb(63,83,97)" transform="translate(0,0)"></path>
<path d="M 281.672 558.787 C 287.63 531.827 308.319 496.492 325.899 475.624 C 362.724 431.91 416.071 401.819 473.259 396.548 L 474.496 397.775 C 472.227 399.211 465.135 399.349 461.97 399.886 C 401.178 410.181 338.039 449.748 308.044 504.851 C 307.617 505.445 307.685 505.394 307.401 506.111 C 298.524 519.967 291.853 533.596 286.379 549.129 C 285.41 551.881 283.864 558.29 282.01 558.946 L 281.672 558.787 z" fill="rgb(4,16,25)" transform="translate(0,0)"></path>
<path d="M 524.339 293.699 C 560.251 247.059 624.401 213.109 683.153 209.76 C 675.239 212.91 663.951 213.696 655.372 215.565 C 633.555 220.356 612.56 228.322 593.057 239.21 C 571.839 251.24 553.702 264.528 537.337 282.386 C 534.672 285.295 527.647 293.138 524.339 293.699 z" fill="rgb(4,16,25)" transform="translate(0,0)"></path>
<path d="M 514.713 306.044 L 514.676 307.434 C 514.671 309.298 509.153 317.905 508.364 318.413 C 502.495 322.187 479.435 381.982 480.696 381.126 C 480.269 381.138 480.565 381.169 479.685 380.893 C 484.74 356.754 499.931 325.49 514.713 306.044 z" fill="rgb(4,16,25)" transform="translate(0,0)"></path>
<path d="M 765.575 216.688 C 773.821 202.015 791.351 178.898 802.303 166.551 C 853.331 108.692 925.066 73.2208 1002.02 67.7965 C 991.903 70.2696 981.738 71.5763 971.544 73.4145 C 911.878 84.1731 857.364 113.8 814.706 156.684 C 808.221 163.204 800.286 171.136 795.154 178.866 C 794.585 179.233 794.633 179.307 794.259 179.963 C 792.216 182.535 790.014 185.192 788.134 187.861 C 787.499 188.324 787.63 188.246 786.969 188.955 L 785.418 191.722 C 784.761 192.176 784.805 192.252 784.311 193.014 C 782.695 195.078 781.442 196.543 780.075 198.798 C 779.554 199.212 779.571 199.319 779.216 199.955 C 748.892 239.334 732.799 297.233 728.134 345.778 C 650.504 355.72 591.41 404.285 567.19 478.745 C 503.62 480.907 449.273 523.495 422.316 579.513 C 321.962 563.553 227.09 625.391 210.715 726.539 C 210.035 730.738 209.754 740.678 208.45 743.881 L 207.945 741.866 L 208.874 743.444 C 208.287 741.22 207.987 739.771 207.914 737.475 C 209.56 689.425 236.881 645.92 272.875 615.737 C 273.251 602.393 274.705 590.948 277.048 577.823 L 278.007 577.671 C 276.288 588.227 275.69 602.728 275.423 613.487 L 276.966 612.236 C 319.612 578.206 368.336 570.467 421.101 576.256 C 450.152 517.247 499.934 482.728 565.352 475.923 C 572.23 456.664 578.828 439.651 591.328 423.128 C 627.131 375.803 668.564 352.927 725.735 343.71 C 729.784 297.02 740.431 259.809 764.358 219.263 C 752.096 215.6 732.657 214.284 721.931 210.498 L 722.215 209.831 C 734.654 210.202 753.237 214.158 765.575 216.688 z" fill="rgb(4,16,25)" transform="translate(0,0)"></path>
<path d="M 1107.14 78.7878 C 1180.95 96.9945 1243.75 152.413 1282.75 216.372 L 1283.42 217.484 C 1294.56 214.55 1309.59 211.533 1321.16 210.804 C 1314.69 213.582 1294.01 217.111 1285.02 219.577 C 1309.55 264.998 1317.27 293.281 1323.16 343.917 C 1398.73 354.694 1464.74 403.969 1483.89 479.982 C 1569.31 488.037 1636.73 545.228 1651.81 630.986 C 1697.32 630.829 1731.38 640.392 1770.37 663.869 C 1772.83 651.491 1773.73 639.959 1776.09 627.966 C 1775.77 641.042 1774.79 652.386 1772.45 665.281 C 1778.73 669.737 1784.62 673.843 1791.16 679.253 C 1828.47 710.092 1855.44 755.285 1864.74 802.816 C 1864.78 803.441 1864.82 804.066 1864.86 804.691 C 1862.86 803.775 1861.31 793.765 1860.41 790.858 C 1849.51 755.639 1831.58 720.078 1804.48 694.81 C 1802.37 694.11 1801.08 691.937 1799.8 690.148 C 1797.32 686.913 1792.77 683.261 1789.54 680.634 C 1759.76 656.352 1723.59 640.581 1685.53 635.312 C 1672.99 633.576 1661.87 633.556 1649.35 633.84 C 1644.19 601.127 1630.16 570.455 1608.78 545.163 C 1576.11 506.945 1532.29 486.407 1482.59 482.448 C 1474.49 457.19 1463.38 433.961 1446.44 413.304 C 1415.11 375.295 1369.99 351.258 1320.97 346.463 C 1316.23 304.064 1304.12 251.629 1279.66 216.077 C 1279.25 215.319 1279.36 215.435 1278.83 214.841 L 1277.22 211.583 C 1276.62 210.824 1276.23 210.3 1275.55 209.601 C 1274.74 208.491 1274.16 207.8 1273.57 206.574 C 1272.75 205.494 1272.16 204.828 1271.56 203.627 C 1270.72 202.466 1270.12 201.747 1269.49 200.474 C 1268.8 199.558 1268.28 198.999 1267.82 197.962 C 1242.09 152.827 1181.51 107.572 1132.42 89.4729 C 1123.93 86.3426 1115.47 82.898 1106.97 79.6765 L 1107.14 78.7878 z" fill="rgb(4,16,25)" transform="translate(0,0)"></path>
<path d="M 1799.8 690.148 C 1802.02 691.709 1803.46 692.359 1804.48 694.81 C 1802.37 694.11 1801.08 691.937 1799.8 690.148 z" fill="rgb(66,65,66)" transform="translate(0,0)"></path>
<path d="M 232.346 841.222 C 235.01 841.616 235.629 842.564 237.734 844.333 C 245.732 842.627 264.79 822.714 285.272 821.376 C 283.497 822.954 269.294 828.626 265.047 830.867 C 239.095 844.562 217.583 865.367 203.029 890.846 C 198.196 899.436 194.658 907.874 190.855 916.827 C 188.858 921.528 184.885 937.399 182.744 940.125 C 187.117 912.4 202.24 883.874 220.647 862.889 C 223.923 859.154 234.563 849.738 235.553 846.643 L 232.346 841.222 z" fill="rgb(4,16,25)" transform="translate(0,0)"></path>
<path d="M 181.779 1011.14 C 183.898 1012.74 183.639 1012.84 184.139 1015.45 C 189.199 1041.81 202.568 1066.35 218.533 1087.68 C 219.625 1089.13 219.661 1089.85 219.917 1091.6 C 202.336 1073.26 184.389 1036.45 181.779 1011.14 z" fill="rgb(4,16,25)" transform="translate(0,0)"></path>
<path d="M 1806.35 998.955 C 1808.37 995.765 1810.84 993.378 1813.31 990.576 C 1826.88 975.246 1837.76 958.259 1846.87 939.97 C 1847.53 938.657 1848.38 938.584 1849.67 938.307 L 1848.83 940.133 C 1839.95 960.566 1822.22 984.235 1807.06 1000.38 L 1806.35 998.955 z" fill="rgb(4,16,25)" transform="translate(0,0)"></path>
<path d="M 220.536 1092.35 C 224.269 1092.64 230.876 1101.31 234.532 1104.45 C 240.958 1109.96 247.923 1114.11 254.429 1119.24 L 252.98 1120.27 C 243.1 1115.05 227.325 1101.38 220.536 1092.35 z" fill="rgb(4,16,25)" transform="translate(0,0)"></path>
<path d="M 741.704 628.822 C 744.431 621.113 747.402 613.492 750.614 605.972 C 781.071 534.448 846.447 475.567 918.474 447.536 C 1043.32 398.951 1181.96 440.914 1263.45 546.046 C 1283.91 572.442 1296.56 598.915 1308.98 630.013 C 1354.14 625.806 1399.27 638.332 1435.81 665.211 C 1484.92 700.639 1506.84 746.111 1516.22 804.321 C 1564.83 818.232 1588.1 836.349 1605.79 884.542 C 1671.95 885.088 1714.25 924.329 1734.82 985.01 C 1741.38 984.775 1747.7 984.627 1754.29 985.118 C 1771.7 986.416 1788.61 991.486 1804.03 999.608 C 1804.8 999.391 1805.58 999.173 1806.35 998.955 L 1807.06 1000.38 L 1808.39 1001.53 C 1816.29 1008.24 1822.27 1011.56 1830.84 1019.75 C 1853.61 1041.74 1867.58 1071.29 1870.12 1102.85 C 1873.12 1138.16 1861.86 1173.19 1838.84 1200.13 C 1825.58 1215.57 1813.48 1223.45 1795.85 1232.97 C 1791.71 1284.71 1765.68 1324.94 1716.44 1344.69 C 1700.51 1351.08 1687.76 1352.5 1670.89 1353.97 C 1652.31 1432.09 1578.52 1467.36 1504.36 1439.91 C 1490.56 1472.2 1466.01 1492.26 1433.91 1505.22 C 1366.37 1532.49 1299.2 1504.39 1239.08 1473.71 C 1229.42 1497.93 1209.49 1516.71 1185.63 1526.79 C 1174.98 1531.21 1163.72 1533.98 1152.24 1534.97 C 1141.42 1535.87 1125.33 1531.87 1118.23 1535.85 L 1116.49 1535.42 L 1117.26 1534.8 C 1152.6 1505.95 1171.08 1469.1 1175.78 1424.2 C 1233.12 1420.35 1268.16 1391.33 1289.17 1338.95 C 1295.05 1342.5 1301.36 1345.31 1307.94 1347.3 C 1335.31 1355.61 1364.86 1352.6 1389.99 1338.96 C 1418.44 1323.66 1434.6 1301.48 1443.84 1271.12 C 1455.7 1275.3 1464.24 1275.89 1476.71 1275.67 C 1523.79 1274.83 1564.88 1243.13 1580.3 1199.09 C 1585.55 1184.11 1586.32 1169.83 1586.51 1153.99 C 1607.18 1150.84 1626.28 1144.01 1642.64 1130.59 C 1666.6 1110.69 1681.69 1082.11 1684.63 1051.1 C 1690.09 988.854 1644.7 931.942 1581.91 926.59 C 1568.27 875.071 1532.48 839.82 1478.95 832.344 C 1479.26 815.605 1476.08 796.571 1470.93 780.676 C 1458.08 741.992 1430.24 710.091 1393.64 692.137 C 1353.3 671.882 1319.98 672.647 1278.48 686.187 C 1273.89 657.347 1264.01 629.603 1249.35 604.351 C 1215.92 545.86 1157.07 502.495 1092.26 485.054 C 1025.88 467.027 955.034 476.53 895.75 511.411 C 827.702 551.222 788.641 608.505 769.189 683.515 C 670.544 650.052 576.384 731.136 572.823 831.425 C 520.738 844.121 482.772 872.249 471.232 926.853 C 420.968 929.303 377.667 975.422 370.467 1024.12 C 365.804 1054.46 373.473 1085.41 391.765 1110.07 C 410.453 1135.15 436.188 1149.7 466.887 1154.2 C 466.345 1208.15 491.163 1251.12 543.81 1270.13 C 565.717 1278.04 587.855 1276.31 610.337 1271.91 C 611.76 1278.42 615.2 1286.52 618.262 1292.39 C 631.948 1318.71 655.698 1338.38 684.11 1346.91 C 712.24 1355.5 736.069 1352.5 761.472 1338.79 C 782.611 1391.79 817.451 1419.88 875.273 1423.85 C 879.522 1471.98 894.237 1497.91 928.037 1530.65 C 926.813 1531.03 921.191 1532.72 920.725 1533.39 C 920.825 1533.85 921.058 1533.8 921.788 1534.19 C 921.336 1534.39 920.884 1534.59 920.432 1534.79 C 883.833 1539.07 844.975 1523.81 822.479 1494.46 C 816.042 1486.07 813.639 1480.68 810.391 1473.1 C 802.283 1478.35 793.869 1483.12 785.194 1487.37 C 765.305 1497.05 736.819 1506.98 714.992 1511.32 C 650.454 1524.15 578.771 1502.3 548.625 1440.3 C 477.807 1470.01 398.803 1428.07 379.829 1354.05 C 374.349 1353.89 368.88 1353.46 363.44 1352.78 C 263.702 1340.38 219.66 1230.48 246.552 1142.51 C 248.31 1136.75 252.534 1125.53 252.98 1120.27 L 254.429 1119.24 C 274.312 1072.16 303.416 1034.53 345.113 1005.02 C 348.712 940.968 390.854 900.024 450.563 882.979 C 466.517 838.529 491.37 816.019 537.241 803.763 C 548.664 694.678 634.27 627.667 741.704 628.822 z" fill="rgb(4,16,25)" transform="translate(0,0)"></path>
<path d="M 1713.33 1068.8 C 1713.87 1069.39 1714.71 1070.17 1714.82 1070.99 C 1720.82 1117.81 1698.34 1168.42 1656.39 1190.27 C 1656 1248.6 1610.86 1299.19 1555.11 1312.26 C 1537.46 1316.39 1521.82 1317.34 1503.87 1318.07 L 1503.28 1323.35 C 1495.9 1387.77 1440.18 1430.88 1380.07 1421.77 C 1372.58 1420.64 1361.01 1422.29 1354.99 1427.47 C 1333.39 1446.04 1360.52 1441.66 1360.18 1451.85 C 1350.96 1467.85 1344.59 1449.15 1338.55 1446.99 C 1324.44 1446.58 1308.24 1475.75 1316.99 1484.86 C 1320.45 1483.62 1320.93 1483.5 1324.56 1482.92 C 1330.11 1485.11 1330.72 1493.04 1325.69 1495.58 C 1299.43 1492.06 1316.53 1443.56 1339.36 1444.38 C 1343.76 1444.54 1344.49 1438.36 1345.68 1434.58 C 1356.21 1418.97 1368.04 1417.53 1385.91 1419.44 C 1449.07 1426.17 1494.32 1378.46 1501.45 1318.39 C 1476.98 1321.53 1468.47 1325.86 1448.93 1339.53 C 1461.89 1322.04 1481.63 1318.87 1501.81 1315.4 C 1501.81 1312.16 1501.41 1306.53 1503.05 1304.14 C 1504.57 1307.02 1504.11 1311.58 1504.08 1315.05 C 1585.79 1315.56 1643.96 1275.37 1654.29 1191.7 C 1646.15 1195.19 1624.28 1204.08 1615.62 1201.16 L 1616.01 1199.64 C 1632.45 1196.3 1639 1195.8 1654.29 1189.05 C 1654.19 1184.89 1653.45 1178.18 1655.55 1174.97 C 1657.28 1179.21 1656.97 1182.69 1657.08 1187.3 C 1663.47 1183.41 1669.48 1178.93 1675.03 1173.92 C 1697.98 1153.33 1709.08 1127.29 1712.28 1096.78 C 1713.24 1087.68 1712.84 1078.11 1713.33 1068.8 z" fill="rgb(179,112,54)" transform="translate(0,0)"></path>
<path d="M 1345.09 1446.01 C 1351.77 1446.11 1357.01 1444.69 1357.2 1452.5 L 1357.28 1454.52 C 1352.04 1455.18 1347.45 1455.88 1345.9 1449.46 L 1345.09 1446.01 z" fill="rgb(4,16,25)" transform="translate(0,0)"></path>
<path d="M 1319.1 1485.71 C 1325.52 1485.48 1328.62 1486.46 1325.97 1493.42 L 1324.86 1493.25 C 1319.68 1492.54 1316.85 1491.17 1319.1 1485.71 z" fill="rgb(4,16,25)" transform="translate(0,0)"></path>
<path d="M 339.332 1069.66 C 340.956 1073.59 340.459 1092.01 341.115 1097.98 C 345.365 1136.55 363.057 1167.69 396.788 1188.17 C 397.066 1185.14 397.321 1177.84 399.26 1175.92 C 400.555 1180.31 399.894 1184.98 399.641 1189.66 C 414.031 1195.46 423.436 1195.72 436.533 1200.29 L 436.513 1201.02 C 421.914 1201.16 413.167 1197.39 399.689 1192.1 C 400.958 1220.18 415.291 1251.59 434.798 1271.62 C 463.978 1301.59 501.191 1313.16 541.98 1314.21 C 541.952 1310.55 541.547 1307.63 543.025 1304.34 C 544.628 1306.97 544.349 1311.18 544.458 1314.47 C 555.169 1316.14 598.945 1324.31 601.434 1336.34 C 597.463 1335.96 586.56 1327.13 579.78 1325 C 566.305 1320.76 558.695 1318.89 544.626 1317.62 C 544.831 1320.37 545.159 1323.09 545.606 1325.81 C 553.593 1374.35 585.954 1411.21 636.202 1419.09 C 660.544 1422.91 677.382 1411.04 699.63 1427.05 C 704.547 1432.73 706.047 1436.81 708.742 1443.54 C 744.93 1447.97 747.206 1497.3 725.588 1494.62 C 722.652 1492.84 722.783 1492.55 721.203 1489.59 C 721.961 1481.5 732.249 1486.08 736.34 1482.37 C 738.832 1474.15 734.676 1464.36 729.51 1457.87 C 711.063 1434.7 708.621 1455.46 698.823 1457.62 C 694.065 1456.95 689.831 1453.61 689.797 1448.6 C 692.551 1444.07 699.613 1444.17 704.712 1441.97 L 704.978 1439.43 C 693.851 1411.6 659.042 1425.42 636.716 1422 C 580.328 1413.34 548.119 1371.41 542.196 1317.03 C 529.364 1316.2 517.57 1315.37 504.96 1312.62 C 442.049 1298.91 403.734 1253.97 396.741 1190.88 C 358.578 1167.86 339.048 1131.63 337.636 1087.31 C 337.461 1081.83 337.116 1074.69 339.332 1069.66 z" fill="rgb(179,112,54)" transform="translate(0,0)"></path>
<path d="M 697.631 1445.02 C 704.796 1445.31 709.514 1447.55 702.705 1454.4 L 701.545 1455.64 C 692.577 1454.16 689.843 1451.54 697.631 1445.02 z" fill="rgb(4,16,25)" transform="translate(0,0)"></path>
<path d="M 726.195 1485.55 C 733.643 1486.67 735.252 1486.34 730.728 1492.84 C 723.632 1492.64 722.677 1491.51 726.195 1485.55 z" fill="rgb(4,16,25)" transform="translate(0,0)"></path>
<path d="M 733.167 1381.64 C 736.689 1383.21 740.512 1393.55 742.397 1397.87 C 752.2 1418.85 776.467 1436.75 799.105 1440.83 C 810.63 1442.9 840.117 1444.09 845.182 1455.4 C 841.062 1455.29 832.476 1448.97 828.134 1447.98 C 822.893 1446.91 817.32 1446.3 811.982 1445.75 C 774.692 1441.89 742.572 1419.13 733.167 1381.64 z" fill="rgb(179,112,54)" transform="translate(0,0)"></path>
<path d="M 1316.6 1381.71 L 1317.53 1382.65 C 1318.42 1387.23 1313.28 1396.41 1310.95 1400.69 C 1298.81 1423.04 1277.6 1439.46 1252.38 1443.91 C 1242.69 1445.54 1232.69 1445.75 1223.11 1447.9 C 1216.82 1449.31 1212.83 1452.02 1207.56 1455.45 L 1206.68 1453.83 C 1223.4 1430.82 1284.05 1464.57 1316.6 1381.71 z" fill="rgb(179,112,54)" transform="translate(0,0)"></path>
<path d="M 921.788 1534.19 C 921.058 1533.8 920.825 1533.85 920.725 1533.39 C 921.191 1532.72 926.813 1531.03 928.037 1530.65 C 940.648 1540.33 955.13 1549.62 970.009 1555.27 C 972.773 1556.32 986.331 1561.4 986.756 1562.74 C 972.165 1560.78 952.39 1549.77 940.013 1542.04 C 936.265 1539.7 929.914 1534.01 925.835 1534.1 L 923.802 1534.16 L 921.788 1534.19 z" fill="rgb(4,16,25)" transform="translate(0,0)"></path>
<path d="M 1116.49 1535.42 L 1118.23 1535.85 C 1108.03 1544.94 1085.69 1557.06 1072.24 1560.35 C 1071.76 1559.7 1071.85 1559.92 1071.78 1559.61 C 1072.14 1559.2 1073 1558.72 1073.47 1558.56 C 1090.19 1552.67 1101.89 1544.27 1116.49 1535.42 z" fill="rgb(4,16,25)" transform="translate(0,0)"></path>
<path d="M 1145.74 1694.05 L 1146.41 1694.56 C 1131.13 1711.78 1136.84 1728.52 1155.13 1739.64 C 1189.18 1728.69 1205.74 1728.47 1239.29 1739.88 C 1262.59 1728.02 1260.06 1710.9 1246.65 1692.31 C 1278.2 1711.26 1282.19 1740.54 1252.43 1763.87 C 1253.1 1778.54 1252.68 1787.41 1250.75 1801.99 C 1245.83 1829.8 1211.05 1900.27 1176.16 1863.84 C 1146.36 1832.71 1142.9 1805.55 1142.87 1764.96 C 1137.22 1759.77 1132.05 1755.13 1128.11 1748.5 C 1115 1726.48 1124.88 1705.46 1145.74 1694.05 z" fill="rgb(63,83,97)" transform="translate(0,0)"></path>
<path d="M 1154.06 1799.18 C 1161.2 1798.97 1167.76 1798.81 1174.92 1798.88 C 1178.36 1801.58 1180.69 1803.51 1183.94 1806.4 C 1183.15 1807.76 1183.24 1807.78 1182.85 1809.44 C 1168.59 1813.86 1163.62 1808.88 1154.06 1799.18 z" fill="rgb(255,255,255)" transform="translate(0,0)"></path>
<path d="M 1210.16 1833.61 C 1205.61 1820.74 1202.43 1815.41 1213.57 1804.87 C 1213.94 1806.64 1214.1 1807.48 1214.32 1809.28 C 1201.9 1815.06 1210.92 1824.43 1211.68 1833.59 C 1212.14 1839.16 1186.4 1834.22 1182.5 1833.46 C 1184.75 1825.87 1189.68 1815.65 1182.85 1809.44 C 1183.24 1807.78 1183.15 1807.76 1183.94 1806.4 C 1187.31 1809.51 1187.66 1812.68 1189.05 1816.79 L 1189.37 1817.7 L 1189.03 1819 L 1185.69 1831.84 C 1194.2 1832.74 1201.8 1832.87 1210.16 1833.61 z" fill="rgb(199,124,66)" transform="translate(0,0)"></path>
<path d="M 1213.57 1804.87 C 1225.17 1797.56 1227.04 1798.72 1240.91 1799.53 L 1239.53 1800.85 C 1232.69 1807.51 1226.43 1812.58 1216.71 1809.91 C 1215.92 1809.69 1215.12 1809.48 1214.32 1809.28 C 1214.1 1807.48 1213.94 1806.64 1213.57 1804.87 z" fill="rgb(255,255,255)" transform="translate(0,0)"></path>
<path d="M 1161.98 1768.05 C 1180.01 1766.96 1182.97 1770.05 1194.42 1783.06 C 1188.86 1779.72 1186.95 1777.89 1181.84 1773.72 C 1172.9 1770.12 1163.32 1768.17 1154.96 1774.9 C 1154.19 1775.52 1153.44 1776.25 1152.41 1776.36 C 1150.87 1772.82 1159.78 1768.95 1161.98 1768.05 z" fill="rgb(199,124,66)" transform="translate(0,0)"></path>
<path d="M 1221.36 1768.03 C 1229.41 1767.52 1237.04 1767.27 1242.74 1774.24 C 1243.07 1774.65 1244.36 1776.32 1243.33 1776.74 C 1234.75 1772.82 1238.3 1770.57 1225.72 1770.32 C 1213.08 1772.68 1215.57 1773.9 1206.62 1780.39 C 1206.23 1780.44 1206.5 1780.46 1205.71 1780.15 C 1204.49 1775.09 1217.6 1769.19 1221.36 1768.03 z" fill="rgb(199,124,66)" transform="translate(0,0)"></path>
<path d="M 1194.11 1851.13 C 1199.44 1850.87 1218.43 1855.04 1220.23 1858.72 C 1218.39 1861.16 1207.07 1855.44 1204.64 1854.31 C 1187.4 1851.98 1183.92 1859.67 1177.79 1858.37 L 1177.46 1857.54 C 1179.11 1855.41 1191.1 1851.94 1194.11 1851.13 z" fill="rgb(199,124,66)" transform="translate(0,0)"></path>
<path d="M 814.963 1740.77 C 846.15 1726.64 862.341 1729.77 892.934 1737.91 C 905.107 1741.15 917.512 1727.7 916.126 1715.27 C 914.743 1702.86 914.03 1701.17 905.179 1692.37 L 908.727 1694.12 C 915.793 1697.58 919.98 1700.67 924.724 1707.24 C 930.424 1715.18 932.664 1725.08 930.932 1734.7 C 928.738 1747.4 921.869 1755.07 912.025 1762.36 C 911.902 1806.77 908.378 1826.39 880.129 1861.5 L 878.978 1862.64 C 861.606 1880.84 848.468 1876.74 832.254 1860.27 C 805.018 1832.61 800.58 1800.11 801.376 1762.73 C 794.631 1757.55 789.695 1753.56 785.688 1745.7 C 781.365 1737.08 780.633 1727.1 783.653 1717.95 C 787.797 1705.55 796.698 1698.85 807.659 1693.16 C 791.446 1711.15 793.321 1728.97 814.963 1740.77 z" fill="rgb(63,83,97)" transform="translate(0,0)"></path>
<path d="M 858.637 1852.35 L 857.598 1852.6 C 853.921 1853.45 835.913 1860.42 834.599 1859.69 C 834.308 1858.8 834.733 1858.57 835.567 1858.17 C 854.196 1849.23 863.463 1846.24 880.129 1861.5 L 878.978 1862.64 C 870.854 1857.12 868.035 1855.13 858.637 1852.35 z" fill="rgb(199,124,66)" transform="translate(0,0)"></path>
<path d="M 869.664 1833.38 C 865.525 1821.01 860.794 1814.41 872.376 1804.37 C 872.417 1805.54 872.273 1807.13 872.201 1808.29 C 860.373 1813.49 876.242 1834.49 869.357 1834.78 C 861.844 1835.1 849.382 1835.21 841.358 1835.64 C 844.685 1825.17 849.96 1817.88 841.113 1809.01 C 841.286 1807.87 841.439 1806.81 841.657 1805.67 C 850.393 1813.84 848.89 1822.11 844.833 1832.1 C 857.08 1831.9 857.977 1831.82 869.664 1833.38 z" fill="rgb(199,124,66)" transform="translate(0,0)"></path>
<path d="M 872.376 1804.37 C 884.444 1796.18 886.46 1798.51 900.522 1799.38 C 891.711 1806.72 883.4 1814.37 872.201 1808.29 C 872.273 1807.13 872.417 1805.54 872.376 1804.37 z" fill="rgb(255,255,255)" transform="translate(0,0)"></path>
<path d="M 841.113 1809.01 C 828.33 1812.67 821.104 1808.31 812.849 1798.95 C 823.413 1799.2 831.448 1797.27 840.054 1804.42 L 841.657 1805.67 C 841.439 1806.81 841.286 1807.87 841.113 1809.01 z" fill="rgb(255,255,255)" transform="translate(0,0)"></path>
<path d="M 878.089 1768.07 C 884.859 1767.72 896.98 1767.27 901.76 1775.81 C 902.586 1777.29 899.592 1776.71 898.384 1775.5 C 895.061 1772.17 890.465 1771.26 885.973 1770.65 C 869.457 1772.02 874.572 1775.25 860.037 1782.54 C 867.176 1775.21 868.7 1772.13 878.089 1768.07 z" fill="rgb(199,124,66)" transform="translate(0,0)"></path>
<path d="M 827.725 1767.16 C 842.204 1768.63 843.417 1771.06 851.386 1782.57 C 844.211 1777.7 843.565 1774.59 834.907 1770.92 C 817.349 1768.64 811.864 1777.63 810.543 1777.57 C 807.883 1771.58 823.817 1767.76 827.725 1767.16 z" fill="rgb(199,124,66)" transform="translate(0,0)"></path>
<path d="M 1319.94 1694.69 L 1321.1 1695.11 C 1320.33 1697.06 1319.7 1697.69 1318.74 1699.44 C 1308.28 1718.53 1313.52 1729.19 1331.03 1739.83 C 1363.16 1729.71 1381.68 1728.31 1413.74 1739.63 C 1419.94 1736.61 1422.16 1735.18 1426.56 1730.13 C 1439.69 1715.06 1425.27 1701.26 1424.74 1695.15 C 1428.08 1695.2 1432.77 1699.33 1434.92 1701.74 C 1457.16 1726.67 1446.82 1745.73 1426.83 1763.77 C 1427.47 1779.2 1427.63 1790.45 1425.47 1805.85 C 1418.36 1832.48 1401.14 1868.41 1372 1875.5 C 1361.96 1873.21 1355.51 1869.13 1348.61 1861.38 C 1320.73 1830.02 1316.46 1803.89 1317.93 1764 C 1293.44 1740.93 1289.15 1714.61 1319.94 1694.69 z" fill="rgb(63,83,97)" transform="translate(0,0)"></path>
<path d="M 1385.14 1832.18 C 1380.47 1818.79 1378.73 1809.74 1393 1801.34 C 1391.49 1804.8 1390.57 1806.63 1388.6 1809.78 C 1379.34 1813.61 1386.32 1825.86 1387.25 1831.6 C 1388.28 1837.94 1360.39 1834.98 1356.64 1834.72 C 1358.94 1828.38 1366.7 1813.01 1357.25 1809.45 C 1357.96 1808.17 1358.21 1807.84 1359.09 1806.6 C 1366.05 1812.15 1364.31 1821 1361.53 1828.23 L 1360.04 1832.06 C 1368.41 1832.03 1376.77 1832.07 1385.14 1832.18 z" fill="rgb(199,124,66)" transform="translate(0,0)"></path>
<path d="M 1329.01 1798.18 C 1344.49 1799.21 1347.44 1797.16 1359.09 1806.6 C 1358.21 1807.84 1357.96 1808.17 1357.25 1809.45 C 1342.64 1811.54 1338.99 1808.53 1329.01 1798.18 z" fill="rgb(255,255,255)" transform="translate(0,0)"></path>
<path d="M 1393 1801.34 C 1403.04 1798.74 1404.87 1798.94 1415.51 1799.53 C 1406.22 1809.68 1401.51 1810.49 1388.6 1809.78 C 1390.57 1806.63 1391.49 1804.8 1393 1801.34 z" fill="rgb(255,255,255)" transform="translate(0,0)"></path>
<path d="M 1399.83 1767.27 C 1406.52 1767.79 1412.87 1769.36 1417.87 1774.12 C 1418.31 1774.55 1419.27 1776.36 1418.43 1776.68 C 1406.72 1771.94 1412.55 1770.72 1396.75 1770.88 C 1388.87 1773.02 1388.34 1772.94 1382.72 1778.91 C 1379.67 1782.15 1380.23 1777.86 1382.59 1775.09 C 1388.03 1768.71 1392.28 1768.47 1399.83 1767.27 z" fill="rgb(199,124,66)" transform="translate(0,0)"></path>
<path d="M 1344.74 1767.2 C 1349.85 1767.72 1353.49 1768.29 1358.08 1770.82 C 1359.6 1771.66 1367.3 1777.71 1365.76 1779.54 C 1364.59 1779.83 1358.25 1773.81 1353.7 1771.5 C 1346.26 1769.66 1339.26 1769.2 1332.39 1773.42 C 1331.98 1773.67 1328.8 1776.17 1328.12 1775.32 C 1327.83 1770.49 1341.19 1767.77 1344.74 1767.2 z" fill="rgb(199,124,66)" transform="translate(0,0)"></path>
<path d="M 1366.76 1851.15 C 1373.09 1850.68 1392.1 1852.87 1394.22 1859.31 C 1392.93 1860.08 1382.73 1854.96 1379.69 1854.04 C 1368.64 1851.97 1364.22 1854.61 1353.97 1858.6 C 1353.24 1858.89 1352.54 1858.9 1351.89 1858.49 C 1352.28 1855.88 1364.52 1851.92 1366.76 1851.15 z" fill="rgb(199,124,66)" transform="translate(0,0)"></path>
<path d="M 633.747 1691.5 C 621.13 1708.3 617.881 1729.55 640.421 1739.15 C 669.623 1729.57 691.782 1727.51 720.676 1739.43 C 744.408 1730.1 745.013 1712.6 731.737 1693.56 C 752.191 1705.81 763.478 1725.01 750.501 1748.07 C 746.821 1754.61 741.875 1758.72 736.464 1763.83 C 736.301 1805.64 732.986 1826.6 706.42 1859.45 L 704.569 1861.03 L 703.392 1862.3 C 686.715 1879.96 674.018 1877.76 657.743 1860.86 C 628.805 1830.81 626.401 1801.67 627.33 1762.41 C 596.096 1739.47 603.957 1710.95 633.747 1691.5 z" fill="rgb(63,83,97)" transform="translate(0,0)"></path>
<path d="M 704.569 1861.03 C 688.242 1854.63 683.451 1851 665.821 1857.19 C 664.982 1857.48 662.334 1858.19 661.348 1857.6 C 661.125 1854.9 679.602 1850.68 683.426 1851.42 C 691.527 1852.99 699.002 1855.95 706.42 1859.45 L 704.569 1861.03 z" fill="rgb(199,124,66)" transform="translate(0,0)"></path>
<path d="M 636.827 1798.36 C 651.792 1797.97 654.848 1796.38 666.539 1805.34 C 666.013 1807.56 666 1807.49 666.126 1809.77 C 651.305 1812.88 647.035 1807.15 636.827 1798.36 z" fill="rgb(255,255,255)" transform="translate(0,0)"></path>
<path d="M 696.056 1806.06 C 707.651 1797.3 711.531 1798.85 725.888 1799.73 L 723.467 1801.71 C 713.696 1809.56 708.734 1813.74 696.762 1808.48 C 696.556 1807.59 696.474 1806.83 696.056 1806.06 z" fill="rgb(255,255,255)" transform="translate(0,0)"></path>
<path d="M 666.539 1805.34 C 676.377 1813.62 672.734 1821.66 669.234 1831.71 C 680.768 1831.94 680.517 1831.49 692.038 1833.74 C 690.233 1834.29 688.435 1834.86 686.645 1835.46 C 680.525 1833.92 672.457 1834.13 665.79 1833.6 C 668.081 1827.32 675.392 1814 666.126 1809.77 C 666 1807.49 666.013 1807.56 666.539 1805.34 z" fill="rgb(199,124,66)" transform="translate(0,0)"></path>
<path d="M 704.366 1768.05 C 709.416 1767.93 711.545 1767.81 716.494 1768.96 C 718.905 1769.52 729.764 1775.36 728.353 1778.11 C 726.864 1778.29 720.468 1772.17 711.081 1770.62 C 703.004 1771.28 698.442 1771.48 692.466 1777.88 C 691.543 1778.87 689.748 1780.96 688.532 1781.49 C 688.348 1774.58 698.932 1769.68 704.366 1768.05 z" fill="rgb(179,112,54)" transform="translate(0,0)"></path>
<path d="M 646.097 1768.26 C 656.678 1767.17 665.094 1767.04 671.991 1776.55 C 672.377 1777.08 673.37 1779.3 672.389 1779.61 C 673.045 1779.98 665.247 1773.51 662.936 1771.96 C 647.368 1767.22 635.806 1776.61 635.424 1776.49 C 634.656 1773.22 643.891 1769.14 646.097 1768.26 z" fill="rgb(199,124,66)" transform="translate(0,0)"></path>
<path d="M 692.038 1833.74 C 696.902 1827.28 682.456 1818.64 696.056 1806.06 C 696.474 1806.83 696.556 1807.59 696.762 1808.48 C 682.61 1817.98 708.599 1838.35 686.645 1835.46 C 688.435 1834.86 690.233 1834.29 692.038 1833.74 z" fill="rgb(179,112,54)" transform="translate(0,0)"></path>
<path d="M 1079.39 1694.01 C 1100.18 1704.33 1109.55 1724.93 1098.35 1746.51 C 1094.35 1754.2 1089.1 1758.66 1082.91 1764.57 C 1083.74 1808.22 1082.41 1822.74 1054.46 1858.83 L 1052.94 1860.73 C 1047.48 1867.07 1039.11 1875.49 1030.49 1874.71 C 1003.95 1872.28 982.173 1833.66 977.682 1810.3 C 974.536 1793.93 974.859 1779.05 974.936 1763.73 C 968.103 1757.96 962.88 1753.63 958.672 1745.36 C 954.284 1736.7 953.572 1726.63 956.699 1717.44 C 960.859 1704.98 969.04 1699.22 980.009 1693.7 C 965.407 1710.18 967.605 1728.49 987.261 1739.25 C 1018.32 1730.5 1038.19 1728.94 1068.79 1739.98 C 1091.21 1729.59 1093.21 1712.85 1079.39 1694.01 z" fill="rgb(63,83,97)" transform="translate(0,0)"></path>
<path d="M 1003.07 1860.09 C 1012.94 1854.33 1027.68 1847.78 1039.05 1852.53 C 1045 1855.02 1047.53 1857.31 1054.46 1858.83 L 1052.94 1860.73 C 1028.14 1849.79 1027.96 1854.05 1003.07 1860.09 z" fill="rgb(199,124,66)" transform="translate(0,0)"></path>
<path d="M 1045.33 1803.97 C 1056.69 1797.15 1060.84 1798.55 1074.05 1798.43 L 1071.34 1801.3 C 1062.69 1810.32 1056.6 1811.37 1044.9 1809.43 C 1045.54 1806.64 1045.51 1806.77 1045.33 1803.97 z" fill="rgb(255,255,255)" transform="translate(0,0)"></path>
<path d="M 1040.85 1832.12 C 1037.71 1820.37 1034.64 1813.27 1045.33 1803.97 C 1045.51 1806.77 1045.54 1806.64 1044.9 1809.43 L 1043.86 1809.72 C 1035.41 1812.13 1042.46 1829.89 1044.04 1835.02 C 1034.52 1835.48 1023.51 1835.07 1013.7 1835.19 C 1016.06 1826.78 1023.37 1813.17 1012.87 1808.35 C 1013.13 1806.89 1013.1 1806.73 1013.72 1805.39 C 1024.95 1810.03 1019.25 1823.73 1017.13 1831.99 C 1025.04 1831.87 1032.95 1831.92 1040.85 1832.12 z" fill="rgb(199,124,66)" transform="translate(0,0)"></path>
<path d="M 984.937 1799.44 C 998.101 1799.14 1003.52 1796.61 1013.72 1805.39 C 1013.1 1806.73 1013.13 1806.89 1012.87 1808.35 C 1000.63 1812.9 993.864 1807.95 984.937 1799.44 z" fill="rgb(255,255,255)" transform="translate(0,0)"></path>
<path d="M 996.572 1768.12 C 1003.78 1767.88 1009.52 1768.09 1015.71 1772.32 C 1016.57 1772.91 1024.6 1778.56 1022.34 1780.09 C 1020.95 1780 1014.01 1774.49 1012.19 1773.22 C 996.234 1767.22 984.945 1777.01 983.607 1776.35 C 982.991 1772.1 993.776 1768.83 996.572 1768.12 z" fill="rgb(199,124,66)" transform="translate(0,0)"></path>
<path d="M 1051.47 1768.06 C 1057.33 1767.77 1074.45 1768.93 1075.6 1776.77 L 1075.15 1777.31 C 1074.16 1777.43 1067.24 1772.09 1059.13 1770.63 C 1051.52 1771.18 1046.33 1771.59 1040.66 1777.41 C 1040.05 1778.02 1037.4 1780.92 1036.4 1780.77 C 1033.49 1776.77 1048.57 1769.18 1051.47 1768.06 z" fill="rgb(199,124,66)" transform="translate(0,0)"></path>
<path d="M 1639.09 1506.32 C 1701.73 1504.71 1700.93 1439.76 1705.92 1437.08 C 1707.26 1446.12 1700.13 1464.01 1696.1 1472.12 C 1684.25 1495.92 1665.58 1508.84 1638.56 1508.07 C 1636.42 1545.37 1617.16 1577.33 1575.18 1573.81 C 1536.07 1570.54 1496.88 1542.4 1460.23 1572.93 C 1436.17 1592.97 1471.15 1591.74 1472.59 1607.71 C 1473.93 1624.53 1458.08 1634.9 1442.39 1636.88 C 1416.58 1640.13 1383.95 1611.9 1361.32 1632.45 C 1348.65 1643.95 1365.29 1677.26 1345.89 1669.94 C 1343.43 1667.51 1343.47 1667.75 1342.47 1664.48 C 1344.25 1659.75 1352.76 1660.15 1352.74 1654.9 C 1352.78 1625.9 1370.98 1619.12 1397.1 1625.34 C 1414.87 1629.58 1439.92 1640.59 1457.35 1630.59 C 1468.06 1624.45 1474.01 1613.46 1467.46 1602.18 C 1461.87 1592.55 1448.75 1596.84 1449.82 1584.92 C 1452.04 1575.97 1461.95 1568.61 1469.36 1564.4 C 1516.02 1537.93 1563.99 1590.75 1609.55 1564.41 C 1626.84 1554.42 1633.65 1533.13 1636.49 1514.71 L 1635.82 1508.72 C 1625.74 1513.43 1612.08 1519.61 1600.83 1515.42 C 1592.19 1512.21 1587.89 1504.2 1592.45 1495.61 C 1598.55 1484.13 1618.13 1475.58 1630.05 1482.84 C 1638.26 1488.01 1639.31 1497.64 1639.09 1506.32 z" fill="rgb(66,65,66)" transform="translate(0,0)"></path>
<path d="M 1635.82 1508.72 C 1638.68 1507.91 1636.78 1513.76 1636.49 1514.71 L 1635.82 1508.72 z" fill="rgb(140,138,142)" transform="translate(0,0)"></path>
<path d="M 1635.07 1505.55 C 1626.69 1512.05 1601.68 1520.13 1595.19 1509.12 C 1580.05 1483.47 1644.82 1467.47 1636.1 1504.88 L 1635.07 1505.55 z" fill="rgb(255,255,255)" transform="translate(0,0)"></path>
<path d="M 1630.39 1499.69 C 1632.65 1501.95 1633.63 1502.92 1636.1 1504.88 L 1635.07 1505.55 C 1631.36 1503.5 1630.89 1502.86 1627.54 1500.05 L 1630.39 1499.69 z" fill="rgb(63,83,97)" transform="translate(0,0)"></path>
<path d="M 1627.54 1500.05 C 1626.88 1499.13 1624.87 1496.94 1625.52 1495.76 C 1626.78 1495.57 1629.6 1498.94 1630.39 1499.69 L 1627.54 1500.05 z" fill="rgb(4,16,25)" transform="translate(0,0)"></path>
<path d="M 1347.32 1661.31 C 1349.22 1659.77 1352 1659.97 1353.65 1661.78 C 1355.31 1663.58 1355.28 1666.36 1353.58 1668.13 C 1352.38 1669.37 1350.59 1669.85 1348.94 1669.37 C 1347.28 1668.89 1346.03 1667.52 1345.69 1665.83 C 1345.35 1664.14 1345.97 1662.39 1347.32 1661.31 z" fill="rgb(255,255,255)" transform="translate(0,0)"></path>
<path d="M 1002.81 1627.97 C 1008.46 1627.9 1039.02 1627.03 1046.34 1628.76 C 1046.82 1628.87 1046.5 1630.72 1046.37 1631.48 L 1046.73 1634.43 L 1051.35 1634.26 L 1054.74 1633.4 C 1058.66 1643.24 1055.42 1648.43 1046.42 1653.88 L 1044.73 1654.4 C 1038.53 1656.04 1039.54 1659.61 1034.7 1663.69 C 1032.09 1665.89 1030.06 1666.91 1027.22 1668.7 C 1027.22 1677.64 1027.25 1682.89 1028.05 1691.66 C 1031.39 1692.34 1035.69 1692.33 1038.29 1694.53 L 1037.49 1694.22 L 1038.79 1695.08 C 1039.81 1698.24 1018.13 1697.08 1013.91 1697.71 L 1015.95 1693.17 C 1017.38 1693.07 1020.82 1692.67 1021.41 1691.57 C 1023.1 1688.38 1022.19 1671.26 1022.13 1667.63 C 1012.76 1661.69 1006.59 1657.86 1005.05 1646.01 L 1002.81 1627.97 z" fill="rgb(199,50,50)" transform="translate(0,0)"></path>
<path d="M 1051.35 1634.26 L 1054.74 1633.4 C 1058.66 1643.24 1055.42 1648.43 1046.42 1653.88 C 1045.32 1653.53 1044.22 1653.18 1043.11 1652.85 C 1043.29 1646.74 1044.33 1640.06 1046.73 1634.43 L 1051.35 1634.26 z" fill="rgb(255,255,255)" transform="translate(0,0)"></path>
<path d="M 1051.35 1634.26 L 1054.74 1633.4 C 1058.66 1643.24 1055.42 1648.43 1046.42 1653.88 C 1045.32 1653.53 1044.22 1653.18 1043.11 1652.85 C 1051.37 1648.91 1056.66 1643.07 1051.35 1634.26 z" fill="rgb(213,61,41)" transform="translate(0,0)"></path>
<path d="M 418.522 1506.42 C 420.648 1489.8 425.386 1476.98 444.503 1480.97 C 476.268 1487.6 473.296 1522.68 439.512 1515.92 C 433.305 1514.68 428.197 1510.64 421.819 1509.31 L 419.682 1508.61 C 413.766 1507.78 409.847 1509.12 402.439 1507.31 C 390.943 1504.51 387.663 1501.79 378.279 1496.07 C 377.032 1494.19 376.441 1493.01 375.428 1491.02 C 392.702 1503.78 396.418 1506.09 418.522 1506.42 z" fill="rgb(66,65,66)" transform="translate(0,0)"></path>
<path d="M 433.744 1482.51 C 438.732 1481.55 438.997 1481.53 443.935 1482.62 C 449.978 1484.45 452.158 1485.53 457.563 1489.02 C 460.033 1490.94 460.202 1491.02 462.066 1493.53 C 477.867 1523.47 424.513 1514.54 422.91 1505.49 L 421.97 1503.65 C 420.056 1492.69 424.936 1487.34 433.744 1482.51 z" fill="rgb(255,255,255)" transform="translate(0,0)"></path>
<path d="M 421.97 1503.65 C 425.833 1501.15 431.105 1494.83 432.385 1494.74 C 434.529 1496.72 424.375 1504.38 422.91 1505.49 L 421.97 1503.65 z" fill="rgb(66,65,66)" transform="translate(0,0)"></path>
<path d="M 433.744 1482.51 C 438.732 1481.55 438.997 1481.53 443.935 1482.62 C 439.215 1482.93 438.491 1482.92 433.744 1482.51 z" fill="rgb(140,145,139)" transform="translate(0,0)"></path>
<path d="M 1258.69 1574.91 C 1248.81 1582.05 1223.76 1594.24 1229.91 1567.37 C 1233 1553.87 1257.08 1551.39 1259.12 1568.73 C 1259.33 1570.46 1260.56 1570.8 1262.05 1571.88 L 1262.64 1572.9 C 1258.75 1575.66 1259.51 1596.32 1247.22 1607.77 C 1227.21 1626.41 1210.15 1610.6 1187.67 1612.04 C 1150.81 1614.41 1163.66 1646.43 1156.34 1654.38 C 1152.37 1655.55 1154.35 1655.45 1150.16 1654.47 C 1147.46 1652.2 1147.53 1652.44 1146.69 1649.04 C 1148.31 1641.39 1154.19 1645.01 1154.91 1643.56 C 1160.55 1632.13 1157.46 1624.3 1170 1615.64 C 1184.43 1604.98 1200.74 1611.24 1216.78 1613.9 C 1244.66 1618.51 1255.46 1599.26 1258.69 1574.91 z" fill="rgb(66,65,66)" transform="translate(0,0)"></path>
<path d="M 1241.89 1559.07 C 1244.44 1559.01 1249.72 1558.47 1251.55 1560.02 C 1266.53 1572.75 1250.09 1578.37 1244.02 1581.53 C 1241.63 1581.91 1238.03 1582.48 1235.65 1581.76 C 1233.29 1581.04 1231.31 1579.41 1230.15 1577.23 C 1226.05 1569.54 1236.21 1562.04 1241.89 1559.07 z" fill="rgb(255,255,255)" transform="translate(0,0)"></path>
<path d="M 1148.88 1645.64 C 1156.3 1645.9 1158.44 1644.95 1158.63 1652.73 C 1152.54 1653.22 1148.89 1654.58 1148.9 1647.57 L 1148.88 1645.64 z" fill="rgb(255,255,255)" transform="translate(0,0)"></path>
<path d="M 419.682 1508.61 L 421.819 1509.31 C 423.206 1529.28 428.132 1546.68 443.628 1560.78 C 453.834 1569.82 472.68 1574.23 485.981 1572.09 C 522.832 1566.16 560.378 1541.81 594.892 1569.95 C 599.184 1572.01 611.327 1587.23 604.271 1591.62 C 596.657 1596.35 586.655 1599.88 584.231 1610.53 C 581.507 1622.5 600.347 1632.77 609.96 1634.47 C 636.795 1639.22 673.197 1608.05 695.292 1631.6 C 698.385 1635.24 700.025 1639.44 701.38 1643.78 C 702.337 1649.28 702.273 1649.93 701.226 1655.35 C 701.03 1657.88 700.87 1656.64 701.729 1659.07 C 704.756 1659.54 706.232 1659.83 709.19 1660.6 C 712.146 1663.69 711.259 1661.94 712.17 1665.93 C 709.665 1671.07 706.011 1672.21 700.405 1671.01 C 699.663 1670.44 698.921 1669.87 698.179 1669.3 C 698.901 1656.81 701.584 1645.13 694.361 1633.6 C 674.759 1608.12 633.137 1645 606.26 1635.4 C 590.276 1629.69 578.189 1621.52 584.771 1603.25 C 588.211 1593.69 600.417 1596.48 603.802 1587.06 C 603.119 1580.42 598.087 1574.76 592.97 1570.87 C 557.509 1542.41 519.649 1571.19 482.566 1574.57 C 442.387 1578.23 421.453 1544.04 419.682 1508.61 z" fill="rgb(66,65,66)" transform="translate(0,0)"></path>
<path d="M 701.38 1643.78 C 702.337 1649.28 702.273 1649.93 701.226 1655.35 C 701.038 1650.76 701.078 1648.4 701.38 1643.78 z" fill="rgb(140,138,142)" transform="translate(0,0)"></path>
<path d="M 700.996 1661.5 C 704.596 1660.99 704.534 1661.01 708.217 1661.46 C 714.696 1671.8 694.796 1672.15 700.19 1662.93 L 700.996 1661.5 z" fill="rgb(255,255,255)" transform="translate(0,0)"></path>
<path d="M 700.996 1661.5 C 704.596 1660.99 704.534 1661.01 708.217 1661.46 C 705.46 1661.59 703.706 1661.76 700.996 1661.5 z" fill="rgb(140,145,139)" transform="translate(0,0)"></path>
<path d="M 784.324 1570.86 C 791.151 1553.46 802.729 1549.98 815.715 1568.6 C 818.851 1573.1 814.338 1583.89 808.433 1583.72 C 798.545 1585.82 792.973 1579.69 786.202 1573.92 C 789.639 1590.71 789.785 1597.54 802.816 1610.17 L 799.579 1610.01 C 789.065 1597.12 786.183 1590.13 784.638 1573.34 C 770.737 1568.44 767.017 1567.49 753.773 1560.36 C 752.976 1559.76 752.294 1559.28 751.556 1558.6 L 753.169 1557.69 C 765.433 1564.82 770.181 1567.15 784.324 1570.86 z" fill="rgb(66,65,66)" transform="translate(0,0)"></path>
<path d="M 796.021 1558.38 C 798.267 1558 798.183 1557.91 800.393 1558.37 C 813.457 1563.01 822.752 1576.82 805.294 1582.87 C 803.948 1582.97 803.841 1582.96 802.505 1582.76 C 788.201 1577.28 779.517 1568.18 796.021 1558.38 z" fill="rgb(255,255,255)" transform="translate(0,0)"></path>
<path d="M 805.704 1611.59 C 819.078 1618.53 830.631 1613.01 844.495 1610.79 C 866.29 1607.3 888.222 1617.04 888.378 1641.58 C 888.397 1644.58 899.629 1642.13 897.313 1651.57 C 896.87 1653.37 893.886 1654.26 892.447 1654.74 C 887.06 1655.84 881.904 1649.67 885.745 1644.82 C 887.075 1641.56 885.471 1633.2 884.382 1630.38 C 878.058 1614.05 859.023 1610.3 843.503 1613.1 C 827.224 1616.03 821.171 1620.05 805.064 1613.64 L 805.704 1611.59 z" fill="rgb(66,65,66)" transform="translate(0,0)"></path>
<path d="M 889.988 1644.39 C 896.922 1647.42 897.36 1649.11 892.321 1654.03 L 891.462 1653.64 C 884.668 1650.59 885.42 1649.02 889.988 1644.39 z" fill="rgb(255,255,255)" transform="translate(0,0)"></path>
<path d="M 1262.05 1571.88 C 1271.74 1567.31 1280.15 1566.16 1289.83 1558.77 C 1298.53 1552.11 1307.62 1539.55 1309.08 1527.99 C 1309.45 1525.08 1310.83 1524.06 1311.83 1526.53 C 1306.63 1552.18 1286.65 1567.52 1262.64 1572.9 L 1262.05 1571.88 z" fill="rgb(66,65,66)" transform="translate(0,0)"></path>
<path d="M 371.615 1489.49 C 360.299 1476.03 352.755 1459.82 349.752 1442.5 C 349.452 1440.77 347.928 1436.13 350.478 1435.52 C 350.946 1435.71 351.762 1441.13 351.822 1441.51 C 354.744 1460.02 361.479 1474.39 373.689 1488.61 L 371.615 1489.49 z" fill="rgb(66,65,66)" transform="translate(0,0)"></path>
<path d="M 751.556 1558.6 C 741.782 1549.73 734.488 1539.79 731.971 1525.94 C 731.869 1525.38 731.886 1523.84 732.334 1523.33 C 733.798 1522.8 733.961 1526.44 734.063 1526.95 C 735.371 1533.49 738.415 1539.97 742.066 1545.46 C 745.217 1550.2 749.452 1553.56 753.169 1557.69 L 751.556 1558.6 z" fill="rgb(66,65,66)" transform="translate(0,0)"></path>
<path d="M 802.816 1610.17 C 804.348 1610.73 804.224 1610.72 805.704 1611.59 L 805.064 1613.64 C 802.893 1612.62 801.474 1611.49 799.579 1610.01 L 802.816 1610.17 z" fill="rgb(140,138,142)" transform="translate(0,0)"></path>
<path d="M 373.689 1488.61 C 374.747 1489.7 374.869 1489.69 375.428 1491.02 C 376.441 1493.01 377.032 1494.19 378.279 1496.07 C 375.921 1494.02 373.695 1491.82 371.615 1489.49 L 373.689 1488.61 z" fill="rgb(140,138,142)" transform="translate(0,0)"></path>
<path d="M 1046.37 1631.48 C 1049.49 1632.04 1051.69 1632.85 1054.74 1633.4 L 1051.35 1634.26 L 1046.73 1634.43 L 1046.37 1631.48 z" fill="rgb(165,68,55)" transform="translate(0,0)"></path>
<path d="M 1013.91 1697.71 C 1008.23 1695.94 1012.81 1694.67 1015.95 1693.17 L 1013.91 1697.71 z" fill="rgb(213,61,41)" transform="translate(0,0)"></path>
<metadata><recraft-signature>{"signed_by": "recraft", "signature_b64": "5qUU2OMxJbto9TRV9IfSfrc5yGnlejEpDjcK8uIERxlz2MN2mJYES6iNs5ozk+d16pqlBW5S32mNLRCetQ6aCA==", "signing_algo": "Ed25519", "generation_timestamp": 1777250738, "identifier": "b60b1bcb-6c55-4fa2-baf6-e2e0f3a2b229"}</recraft-signature></metadata></svg>