<svg xmlns="http://www.w3.org/2000/svg" width="1024" height="1024" preserveAspectRatio="none" style="display:block" viewBox="0 0 2048 2048"><path fill="#46525e" d="M827.217 329.8c109.693-50.056 243.413-55.458 357.073-14.034 7.89 2.878 29.2 11.86 36.16 13.375 27.36 5.951 50.17 10.531 76.85 19.373a506.14 506.14 0 0 1 224.8 149.894c9.96 11.712 19.49 23.862 28.64 36.21 6.9 9.301 12.84 19.301 20.16 28.285 11.94 12.453 25.41 24.148 37.43 36.964a490 490 0 0 1 85.9 128.622 438.6 438.6 0 0 1 31.64 106.38c2.3 14.179 3.19 28.827 5.72 42.888 2.14 11.868 7.5 23.996 9.77 35.934 10.61 47.143 12.88 86.779 9.37 134.759a379 379 0 0 1-7.38 53.58c-2.3 10.62-8.9 34.32-9.14 43.7 3.56 18.66-7.61 78.31-13.03 97.07-6.42 22.23-23.16 74.94-36.76 91.36-26.24 49.5-56.47 95.58-98.23 133.66-1.02 1.32-1.73 1.98-2.91 3.14l-.75.97c-8.35 10.96-17.82 26.2-25.65 36.93-11.4 15.6-65.1 82.28-78.9 85.94-5.06 3.3-19.42 16.63-25.65 21.45-17.15 13.27-37.23 27.99-55.94 38.72-38.79 22.45-80.23 40-123.36 52.24-13.67 3.79-37.39 7.05-48.77 11.57-72.92 28.97-135.29 41.39-214.59 39.52a453.7 453.7 0 0 1-129.922-21.66c-20.417-6.44-38.567-15.8-59.705-18.93-6.116-.9-12.934-2.47-19.035-3.71a469 469 0 0 1-43.014-11.16 507.87 507.87 0 0 1-227.953-148.01c-17.801-20.27-32.363-41.77-48.781-62.7-7.394-9.43-25.993-22.78-35.592-32.93a466.6 466.6 0 0 1-117.698-217.24c-5.563-24.8-5.314-49.25-12.593-73.22-1.942-6.39-3.841-12.57-5.387-19.09a469 469 0 0 1-12.927-121.15 464 464 0 0 1 7.582-69.494c3.249-16.873 7.983-29.595 8.481-46.946-2.315-55.074 11.176-113.448 33.048-163.795 26.04-62.374 75.517-132.757 125.115-178.383 21.221-42.973 54.425-82.164 90.583-113.484 72.28-67.426 168.006-111.415 265.345-126.598"/><path fill="#e19857" d="M620.668 426.737c-7.955 8.348-19.698 17.721-28.517 25.647a705 705 0 0 0-34.228 33.35c-32.152 33.275-52.097 61.174-87.775 93.233l-1.366-.248-4.373 3.464.293-1.784-.148.346c1.639-3.835 4.079-5.62 7.168-8.396l-.433-2.467c21.221-42.973 54.425-82.164 90.583-113.484l.886 4.281c-13.812 12.622-23.095 23.44-34.958 37.942l1.492.997c20.439-21.868 65.508-58.221 91.376-72.881"/><path fill="#b67f50" d="m527.8 498.621 1.492.997c-3.794 3.441-4.999 1.694-1.492-.997"/><path fill="#e19857" d="M378.387 707.838c-12.108 30.016-22.763 55.772-31.599 86.917a2909 2909 0 0 0-14.2 52.315c-2.354 9.244-5.108 22.521-8.03 30.973-3.218.969-1.531.151-4.197-2.779a656 656 0 0 0-7.235 36.796c-2.315-55.074 11.176-113.448 33.048-163.795l2.405 3.148c-2.908 7.905-4.826 14.121-7.119 22.247l3.346-1.068c10.951-23.819 19.555-42.618 33.581-64.754"/><path fill="#6d543e" d="M322.928 853.75c2.236 9.999.29 15.43 1.63 24.293-3.218.969-1.531.151-4.197-2.779.702-7.024 1.626-13.655 2.095-20.724z"/><path fill="#575352" d="m341.46 773.66 3.346-1.068c-2.786 8.559-6.489 18.787-11.148 26.311 2.369-7.847 5.013-17.723 7.802-25.243"/><path fill="#d18b4d" d="M322.456 854.54c-.043-.764-.555-2.638.473-3.078.664.657.235 1.402-.001 2.288z"/><path fill="#e19857" d="M1574.45 1472.83c5.24-.59 6.35-6.89 8.28-2.95l.55 1.08-.75.97c-8.35 10.96-17.82 26.2-25.65 36.93-11.4 15.6-65.1 82.28-78.9 85.94 5.53-6.08 46.81-48.72 47.25-52.91-4.58 2.54-20.78 18.93-25.88 23.62a822 822 0 0 1-27.94 24.15c-12.38 10.35-24.84 18.08-35.31 26.68l-.67-2.01a728 728 0 0 0 72.07-70.32c17.89-20.16 32.22-40.65 53.5-57.44 3.85-3.04 9.88-10 13.45-13.74m159.76-327.1c3.56 18.66-7.61 78.31-13.03 97.07-6.42 22.23-23.16 74.94-36.76 91.36 3.39-11.29 11.16-25.65 15.4-37.11 5.25-14.2 7.86-26.6 11.55-41.04l-1.8-.09c-9.04 27.85-22.71 58.76-38.34 83.62 1.11 3.43 41.03-115.06 40.88-124.28 0-.47 7.08-30.99 7.92-32.87l1.14.41.98 2.79c1.76 2.62 1.84 2.52 2.59 5.51 2-12.92 6.63-32.2 9.47-45.37"/><path fill="#505a61" d="M1722.15 1185.59c1.76 2.62 1.84 2.52 2.59 5.51-.54 3.15-1.03 5.88-1.74 9.01-.49-2.14-.96-4.29-1.41-6.43.31-2.88.44-5.21.56-8.09"/><path fill="#997955" d="M1721.59 1193.68c.45 2.14.92 4.29 1.41 6.43-1.78 8.73-1.49-5.82-1.41-6.43"/><path fill="#6d543e" d="M1709.57 1255.92c.34-1.13 1.17-5.57 2.69-5.41.73.84-.64 4.6-.89 5.5z"/><path fill="#e19857" d="M561.872 456.398c72.28-67.426 168.006-111.415 265.345-126.598-30.93 14.606-51.978 17.35-83.826 28.081-74.479 25.095-121.735 52.481-180.633 102.798zM346.174 748.265c26.04-62.374 75.517-132.757 125.115-178.383l.433 2.467c-3.089 2.776-5.529 4.561-7.168 8.396l.148-.346-.293 1.784 4.373-3.464 1.366.248-.993 1.299c-5.139 6.624-20.892 22.046-27.802 29.987-40.277 46.284-69.288 83.723-92.774 141.16z"/><path fill="#e2a264" d="M1591.95 1455.7c-2.07 3.87-5.34 8-5.76 12.12-1.02 1.32-1.73 1.98-2.91 3.14l-.55-1.08c-1.93-3.94-3.04 2.36-8.28 2.95 4.73-6.06 11.71-11.86 17.5-17.13"/><path fill="#997955" d="m1435.43 1614.33.67 2.01c-.68.41-3.92 2.88-4.53 1.23.32-1.36 2.84-2.59 3.86-3.24"/><path fill="#fcfcfb" d="M1035.44 412.766c-2.24.113-13.07-.38-14.33-1.909l.07-.161c2.41-1.649 23.98-.377 27.86.183 34.85.968 86.63.616 119.9 8.057 17.06 3.816 62.22 32.861 79.39 42.18 12.39 6.724 26.3 11.26 37.99 17.181 19.78 10.017 45.48 22.413 64.35 33.67 28.14 16.778 55.22 40.208 82.96 58.666 13.65 9.084 41.36 24.761 50.85 34.968 7.2 7.745 26.92 33.12 32.47 42.308l-2.3 1.269c-7.22-9.267-13.92-17.732-21.58-26.667l-2.54 1.039c19.15 29.22 54.35 76.291 71.05 100.488 17.94 25.988 96.72 164.163 98.46 185.893-1.92-.505-1.59-.436-3.36-1.335-.53 2.004 3.63 39.052 4.63 42.078 5.66 17.115 12.9 35.047 19.07 52.166 4.7 7.44 2.99 10.94.39 19.67a695 695 0 0 1-14.39 47.24c-8.88 25.49-17.83 39.55-13.62 67.11l11.75-7.99c-5.5 16.93-16.48 40.5-24.35 56.66a848.4 848.4 0 0 1-61.2 107.39c-14.05 20.79-32 44.06-44.89 65.07-6.29 10.67-13.42 20.89-19.56 32-3.15 5.7-8.64 16.48-11.95 21.06-.73 2.51-3.83 9.23-5 11.95 13.21-12.96 47.27-56.51 57.82-71.47l1.65 1.43c-17.14 27.88-42.21 63.76-68.01 83.94-39.15 30.62-82.39 61.89-123.41 90.17-29.8 20.55-67.16 36.79-98.44 55.48-29.29 15.87-60.97 34.22-90.7 48.36l11.56-11.17c-13.45.83-71.13 4.26-80.59 2.34-41.31 2.54-93.8-2.05-135.511-4.19-20.726-1.06-44.501-4.97-65.059-4.93-6.364-1.99-23.842-5.2-32.056-7.15-20.054-4.77-41.808-11.2-61.706-15.36-3.796-2.34-8.818-4.8-12.841-6.92-6.51-.65-21.976-7.92-28.649-10.56-53.353-21.11-97.854-53.34-144.26-86.31-22.871-16.25-49.405-30.96-71.022-49.33-5.103-4.33-11.893-16.04-16.724-22.17l1.672-1.91c3.315 3.55 11.58 11.99 14.123 15.47l1.306-2.95c-1.528-3.84-7.829-13.49-10.21-17.57-17.939-30.75-44.734-57.02-63.002-87.5-13.365-22.29-26.212-47.52-38.717-70.53a3329 3329 0 0 0-61.062-107.82l1.832-1.95c3.656 4.27 13.669 17.53 16.885 19.82 1.302-1.79 1.037-1.28 1.311-1.94-2.272-9.14-3.005-18.54-4.329-27.9-4.318-20.54-23.213-55.2-30.383-81.32-.672 5.93-.683 10.32-1.981 16.27l-.829-.49c-1.377-6.21-2.545-19.06.541-24.85.276-6.87.611-11.59 2.505-18.32 3.396-25.56 20.222-60.945 27.904-85.712 2.572-8.293 3.023-20.075 3.516-28.917l-1.009 1.053c-3.64 3.765-5.332 6.388-10.291 6.459-3.639-6.511 7.432-26.321 10.531-33.987 22.311-55.189 54.625-105.066 88.898-153.431 4.551-6.424 14.447-21.787 19.92-26.318 11.583-16.539 22.934-34.141 34.498-50.881 11.03-15.968 25.061-35.391 34.53-51.921 1.179-1.172 1.244-1.195 2.088-2.642 4.855-5.031 26.207-17.891 33.199-22.278 39.214-24.606 79.661-47.692 119.906-70.623 34.587-19.707 68.645-42.43 102.752-62.314-4.029-1.394-39.863 10.75-45.836 12.651 17.766-11.919 59.545-33.319 79.752-42.066 2.862 3.428 3.753 4.797 7.709 6.75l2.939 1.464 1.339.652c-2.056 2.012-3.456 3.167-4.962 5.663l7.898.082c18.843.364 33.633-1.362 52.609-.142 47.047-1.662 100.466 2.158 147.536 5.056 19.75 1.216 40.52 4.47 60.27 6.059-6.27-2.588-15.62-4.685-22.47-6.668-28-8.102-58-14.089-87.06-16.893"/><path fill="#e19857" d="M1035.44 412.766c-2.24.113-13.07-.38-14.33-1.909l.07-.161c2.41-1.649 23.98-.377 27.86.183 34.85.968 86.63.616 119.9 8.057 17.06 3.816 62.22 32.861 79.39 42.18 12.39 6.724 26.3 11.26 37.99 17.181 19.78 10.017 45.48 22.413 64.35 33.67 28.14 16.778 55.22 40.208 82.96 58.666 13.65 9.084 41.36 24.761 50.85 34.968 7.2 7.745 26.92 33.12 32.47 42.308l-2.3 1.269c-7.22-9.267-13.92-17.732-21.58-26.667l-2.54 1.039c19.15 29.22 54.35 76.291 71.05 100.488 17.94 25.988 96.72 164.163 98.46 185.893-1.92-.505-1.59-.436-3.36-1.335-.53 2.004 3.63 39.052 4.63 42.078 5.66 17.115 12.9 35.047 19.07 52.166 4.7 7.44 2.99 10.94.39 19.67a695 695 0 0 1-14.39 47.24c-8.88 25.49-17.83 39.55-13.62 67.11l11.75-7.99c-5.5 16.93-16.48 40.5-24.35 56.66a848.4 848.4 0 0 1-61.2 107.39c-14.05 20.79-32 44.06-44.89 65.07l-2.62-.49c15.66-23.45 25.91-47.19 39.4-72.3 29.86-55.61 57.41-112.5 79.08-171.9 1.78-6.65 2.03-13.58 2.38-20.43 2.54-49.97 4.05-99.728.52-149.695-1.5-21.242-11.61-38.786-20.45-57.843a1629 1629 0 0 0-111.6-201.252 1621 1621 0 0 0-46.08-65.583c-2.99-4.052-16.43-22.551-19.41-24.608-5.05-3.482-21.17-12.514-27.34-16.242l-87.41-52.702a7062 7062 0 0 1-74.51-45.791c-8.28-5.19-36.38-23.551-44.23-26.713-20.48-6.545-42.34-9.979-63.4-14.268-4.61-.938-9.12-.657-13.43-1.846-6.27-2.588-15.62-4.685-22.47-6.668-28-8.102-58-14.089-87.06-16.893"/><path fill="#997955" d="M1035.44 412.766c-2.24.113-13.07-.38-14.33-1.909l.07-.161c2.41-1.649 23.98-.377 27.86.183-2.78.227-13.11-.493-13.6 1.887"/><path fill="#fcfcfb" d="M1680.38 1002.84c4.7 7.44 2.99 10.94.39 19.67-1.09-5.48-1.49-14.18-.39-19.67"/><path fill="#585344" d="M1490.53 623.55c-.31-.61-2.4-3.899-1.84-4.769 1.24-.271 3.76 3.054 4.38 3.73z"/><path fill="#e19857" d="m399.421 1130.38 3.822 4.02c1.096 1.65 5.32 12.31 6.111 14.39l.475.81c5.209 9.1 10.668 21.16 15.028 30.9 14.783 32.99 31.429 64 50.41 94.78 5.899 9.57 10.706 21.17 16.455 31.2a899 899 0 0 0 79.538 117.75c6.55 8.2 18.191 25.99 24.853 30.1 12.613 7.8 26.787 15.06 39.512 22.98a5581 5581 0 0 1 119.443 76.08c7.534 4.92 39.9 25.31 45.199 30.14-6.51-.65-21.976-7.92-28.649-10.56-53.353-21.11-97.854-53.34-144.26-86.31-22.871-16.25-49.405-30.96-71.022-49.33-5.103-4.33-11.893-16.04-16.724-22.17l1.672-1.91c3.315 3.55 11.58 11.99 14.123 15.47l1.306-2.95c-1.528-3.84-7.829-13.49-10.21-17.57-17.939-30.75-44.734-57.02-63.002-87.5-13.365-22.29-26.212-47.52-38.717-70.53a3329 3329 0 0 0-61.062-107.82l1.832-1.95c3.656 4.27 13.669 17.53 16.885 19.82 1.302-1.79 1.037-1.28 1.311-1.94-2.272-9.14-3.005-18.54-4.329-27.9"/><path fill="#e19857" d="m399.421 1130.38 3.822 4.02c1.096 1.65 5.32 12.31 6.111 14.39-3.963-1.64-3.684-6.66-5.509-7.21-.659.43.624 13.14-.095 16.7-2.272-9.14-3.005-18.54-4.329-27.9"/><path fill="#575352" d="m555.407 1428.72 1.306-2.95 1.026 1.69c2.985 4.53 1.403 4.46-2.332 1.26"/><path fill="#e19857" d="m400.694 907.041-1.009 1.053c-3.64 3.765-5.332 6.388-10.291 6.459-3.639-6.511 7.432-26.321 10.531-33.987 22.311-55.189 54.625-105.066 88.898-153.431 4.551-6.424 14.447-21.787 19.92-26.318-3.15 8.038-7.666 15.542-11.536 23.254l-20.927 42.547c-13.797 27.927-26.91 57.117-40.48 85.186-10.379 21.47-32.156 61.498-35.929 84.42-5.386 32.721-4.852 84.626-3.116 117.776 1.03 19.66 1.327 64.87 6.488 80.4l-3.822-4.02c-4.318-20.54-23.213-55.2-30.383-81.32-.672 5.93-.683 10.32-1.981 16.27l-.829-.49c-1.377-6.21-2.545-19.06.541-24.85.276-6.87.611-11.59 2.505-18.32 3.396-25.56 20.222-60.945 27.904-85.712 2.572-8.293 3.023-20.075 3.516-28.917"/><path fill="#fcfcfb" d="M369.274 1021.67c.633 4.49 2.927 17.38-2.505 18.32.276-6.87.611-11.59 2.505-18.32"/><path fill="#e19857" d="m1555.38 1351.53 1.65 1.43c-17.14 27.88-42.21 63.76-68.01 83.94-39.15 30.62-82.39 61.89-123.41 90.17-29.8 20.55-67.16 36.79-98.44 55.48-29.29 15.87-60.97 34.22-90.7 48.36l11.56-11.17c-13.45.83-71.13 4.26-80.59 2.34 8.16-2.1 21.59-4.13 30.23-5.7 17.64-3.1 35.21-6.59 52.7-10.45 31.4-6.89 31.7-8.74 58.67-25.91l65.92-42.08c39.28-24.61 80.48-45.36 118.16-72.46 13.97-10.05 29.62-18.36 40.35-32.08 12.28-15.69 23.98-32.48 37.18-47.38-.64 3.73-4.99 12.32-4.42 13.35-.26 3.26-2.95 6.28-3.67 11.68-.73 2.51-3.83 9.23-5 11.95 13.21-12.96 47.27-56.51 57.82-71.47M869.632 410.743c2.862 3.428 3.753 4.797 7.709 6.75l2.939 1.464 1.339.652c-2.056 2.012-3.456 3.167-4.962 5.663l7.898.082c18.843.364 33.633-1.362 52.609-.142-7.585 1.357-16.547 2.353-24.326 3.431-10.642 1.844-70.032 12.184-77.122 11.515-4.029-1.394-39.863 10.75-45.836 12.651 17.766-11.919 59.545-33.319 79.752-42.066"/><path fill="#d18b4d" d="M884.555 425.354c18.843.364 33.633-1.362 52.609-.142-7.585 1.357-16.547 2.353-24.326 3.431-4.906-3.09-19.19.218-28.283-3.289M1531.45 1357.5l2.62.49c-6.29 10.67-13.42 20.89-19.56 32-3.15 5.7-8.64 16.48-11.95 21.06.72-5.4 3.41-8.42 3.67-11.68-.57-1.03 3.78-9.62 4.42-13.35 3.59-6.52 15.86-21.91 20.8-28.52"/><path fill="#46525e" d="M712.65 713.998c56.141-56.884 110.949-89.734 189.485-107.678 9.039-2.065 21.534-7.564 31.238-10.322a357.5 357.5 0 0 1 90.187-13.027 309 309 0 0 1 89.01 12.615c17.24 5.118 33.48 12.492 51.11 16.034 8.58 1.725 17.6 3.789 25.95 6.346a307.1 307.1 0 0 1 126.5 76.086c16.63 16.418 24.85 28.846 38.67 46.41 34.27 43.555 56.98 72.448 76.85 124.609 12.56 14.737 22.37 71.555 22.71 91.094 8.18 47.325 9.48 87.475 1.02 134.765-1.99 11.09.25 26.42-1.92 37.94-5.29 44.49-22.96 92.81-48.77 129.5a282 282 0 0 1-28.8 34.97c-5.96 6.05-14.73 13.59-19.98 19.67-11.43 13.23-26.12 35.89-39.95 46.21-3.25 3.62-27.8 21.89-32.09 24.33-41.37 30.1-75.03 42.79-124.14 53.04-8.49 1.77-25.06 9.39-34.56 12.4a319.3 319.3 0 0 1-101.07 14.88c-52.904-.75-86.042-10.66-134.851-29.19-18.496-5.35-37.442-8.39-55.56-15.22-52.844-19.9-99.593-55.61-133.885-100.37-10.057-13.26-22.482-23.43-34.143-35.38-39.981-40.99-62.187-94.09-67.311-150.7-2.251-24.87-9.847-46.9-11.776-71.71-2.022-26-1.077-52.95 3.521-78.65 3.416-17.128 7.595-27.722 7.884-45.554-.27-1.327-.675-3.198-.66-4.602.435-42.199 14.21-86.476 38.583-120.94 8.466-11.971 17.775-20.751 27.402-30.853 12.11-22.804 26.509-51.603 49.346-66.703"/><path fill="#e19857" d="M663.304 780.701c3.032-2.121 3.229-1.855 6.781-3.115l.908-.327c-30.592 34.908-51.914 88.294-63.191 133.349l-3.771-.403c-2.567 2.596-4.148 20.492-6.052 26.891-.27-1.327-.675-3.198-.66-4.602.435-42.199 14.21-86.476 38.583-120.94 8.466-11.971 17.775-20.751 27.402-30.853"/><path fill="#fcfcfb" d="M1237.89 1376.65c22.27-5.32 43.9-13.07 64.47-23.12-5.47 4.85-16.33 13.66-20.51 18.53-2.19 1.26-6.85 3.94-7.94 6.15-8.39 4.61-17.44 11-26.6 15.94-20.79 11.23-36.26 15.85-58.45 22.25 19.2-13.15 32.46-23.5 49.03-39.75"/><path fill="#e19857" d="M1281.85 1372.06c1.13-.07 34.31-25.12 40.86-28.57-2.84 3.15-7.81 7.94-9.98 10.55-2.14 6.14-2.62 3.81-5.52 7.28l-.31.01c2.37 2.15 4.92-.81 7.93-1.75l1.13-.36c-3.25 3.62-27.8 21.89-32.09 24.33-.33-1.89-.52-3.45-.74-5.35-10.54 8.02-20.22 13.41-32.01 19.11 7.59-7.13 16.78-11.78 22.79-19.1 1.09-2.21 5.75-4.89 7.94-6.15"/><path fill="#78685c" d="M1283.13 1378.2c2.91-2.43 7.65-4.89 10.28-7.36 5.93-5.57 12.56-12.26 19.32-16.8-2.14 6.14-2.62 3.81-5.52 7.28l-.31.01c2.37 2.15 4.92-.81 7.93-1.75l1.13-.36c-3.25 3.62-27.8 21.89-32.09 24.33-.33-1.89-.52-3.45-.74-5.35"/><path fill="#e19857" d="M663.304 780.701c12.11-22.804 26.509-51.603 49.346-66.703-4.205 8.689-12.171 16.374-17.454 26.549-3.577 1.982-16.7 22.702-16.928 28.206-1.597 2.464-5.004 6.676-7.275 8.506l-.908.327c-3.552 1.26-3.749.994-6.781 3.115"/><path fill="#d18b4d" d="M1431.65 865.071c12.56 14.737 22.37 71.555 22.71 91.094-8.44-15.793-10.17-32.192-12.59-49.653-2.02-14.668-7.49-27.685-10.12-41.441M695.196 740.547c10.844-7.931 19.291-20.006 34.25-30.655-8.316 11.868-16.462 19.803-26.085 30.463-8.206 9.089-16.747 19.567-25.093 28.398.228-5.504 13.351-26.224 16.928-28.206m-91.165 169.658 3.771.403c-.504 1.564-.922 3.147-1.512 4.682l.104-.314-1.147 1.437.197.21c-2.161-.006-.688-3.671-1.413-6.418"/><path fill="#fcfcfb" d="M880.35 681.997c13.895-2.678 34.911-16.091 49.656-18.293 2.076.647 3.857 1.114 5.967 1.642l1.932 3.36c1.846-.684 2.698-1.078 4.558-1.453l1.162 1.283c4.236 4.891 41.804 1.238 51.926 3.27a1206 1206 0 0 1 61.189 2.439c10.66.676 25.63 3.035 35.66 1.906-6.3-1.6-36.77-8.222-39.96-9.775 6.08-3.653 79.92 4.272 93.49 5.298 6.24 6.516 14.77 9.978 22.9 13.983-4.59-.159-9.79-.469-14.34-.475 9.33 4.454 37.75 17.423 43.99 22.937l2.18 1.289 3.18-.272c3.52-4.835 3.36.804 9.17-3.42 3.5 2.342 5.62 4.383 8.85 6.933 5.3 4.119 18.41 12.031 22.16 15.67-2.58.689-3.38 1.098-5.86 2.208a248 248 0 0 1 27.43 18.137c5.15 3.692 11.16 8.472 16.35 11.735 39.19 26.114 64.66 62.03 88.94 101.57 12.59 20.517 27.08 44.631 29.25 68.915l-3.56.834-2.47-3.121-1.27.08c-.15 3.591-.03 5.176.31 8.776a632 632 0 0 0 5.69 31.441c4.88 17.41 8.91 38.956 12.85 56.906 1.72 7.82-3.64 25.16-4.26 33.31-2.63 20.63-12.15 64.27-11.88 84.16 1.42 1.2 2.64 1.83 4.11 3.11-3.6 8.49-8.01 19.67-13.14 27.2-23.2 34.02-51.07 65.46-78.74 95.9-4 4.4-12.31 17.02-15.12 18.93-34.92 23.76-74.66 47.77-113.59 63.57l-1.09.43 20.06-.38c-13.57 8.74-48.57 20.22-64.62 22.3 4.11-2.65 8.78-5.5 12.74-8.27-7.37.47-27.55 2.31-33.82 1.01-16.65 1.69-39.25 1.49-56.07 1.42-35.36-.15-70.712-1.07-106.031-2.77-12.664-3.19-24.927-1.24-42.004-6.45-4.933-.41-6.469-1.11-10.988-3.18l-1.35.7a257 257 0 0 1 2.119 4.83c-17.718-15.15-39.566-17.49-60.101-25.94-2.983-1.23-15.105-10.2-19.016-12.65-14.358-8.97-28.698-18.38-42.745-27.86.396-1.91-6.134-6.95-8.438-10.66-4.202-2.68-8.545-5.13-12.724-7.85-7.691-11.03-20.209-23.5-29.241-35.77-15.998-11.15-71.435-96.4-73.588-113.72l3.265-.72c-.217-4.46-3.291-14.59-4.582-19.32-7.233-22.45-9.65-37.11-19.556-59.83-2.419-6.83-3.97-15.83-1.116-22.75 2.034-4.56 4.866-17.52 6.555-22.91 5.085-16.248 9.525-33.908 15.388-49.826l3.742-10.501 1.78-11.477c-3.042-1.945-1.821.179-5.139-.951 9.058-28.481 32.308-71.546 54.32-92.476 3.067-3.692 5.736-7.719 8.507-11.636 10.569-14.945 21.86-29.401 32.181-44.519 2.209-2.317 10.892-13.91 13.427-17.134 3.982-1.9 9.622-5.689 13.574-8.183 41.153-25.968 84.922-47.506 126.426-72.82-6.375-.21-11.092 1.135-17.256 2.43z"/><path fill="#e19857" d="M1398.83 968.894c4.88 17.41 8.91 38.956 12.85 56.906 1.72 7.82-3.64 25.16-4.26 33.31-2.63 20.63-12.15 64.27-11.88 84.16 1.42 1.2 2.64 1.83 4.11 3.11-3.6 8.49-8.01 19.67-13.14 27.2-23.2 34.02-51.07 65.46-78.74 95.9-4 4.4-12.31 17.02-15.12 18.93-34.92 23.76-74.66 47.77-113.59 63.57l-1.09.43 20.06-.38c-13.57 8.74-48.57 20.22-64.62 22.3 4.11-2.65 8.78-5.5 12.74-8.27-7.37.47-27.55 2.31-33.82 1.01 14.64-3.89 34.84-5.25 49.34-10.2 3.51-1.19 19-11.6 22.84-14.07 9.92-6.38 20.05-12.43 30.36-18.15 18.07-10.06 71.67-35.63 83.37-46.49 20.51-19.04 95.95-147.19 99.92-177.58 3.71-28.45 3.24-71.69 2.5-100.731-.24-9.419-2.81-19.622-2.03-28.924.05-.678.13-1.354.2-2.031M880.35 681.997c13.895-2.678 34.911-16.091 49.656-18.293 2.076.647 3.857 1.114 5.967 1.642l1.932 3.36c1.846-.684 2.698-1.078 4.558-1.453l1.162 1.283c4.236 4.891 41.804 1.238 51.926 3.27a1206 1206 0 0 1 61.189 2.439c10.66.676 25.63 3.035 35.66 1.906-6.3-1.6-36.77-8.222-39.96-9.775 6.08-3.653 79.92 4.272 93.49 5.298 6.24 6.516 14.77 9.978 22.9 13.983-4.59-.159-9.79-.469-14.34-.475 9.33 4.454 37.75 17.423 43.99 22.937l2.18 1.289 3.18-.272c3.52-4.835 3.36.804 9.17-3.42 3.5 2.342 5.62 4.383 8.85 6.933 5.3 4.119 18.41 12.031 22.16 15.67-2.58.689-3.38 1.098-5.86 2.208a248 248 0 0 1 27.43 18.137l-7.22 1.472c-21.93-12.385-44.23-27.111-65.86-40.477-10.77-5.151-24.17-16.187-35.15-19.383-53.44-15.624-109.64-12.61-164.69-16.258-10.06-.667-85.289 4.945-91.745 8.099-6.375-.21-11.092 1.135-17.256 2.43z"/><path fill="#78685c" d="M1213.01 705.716c3.5 2.342 5.62 4.383 8.85 6.933 5.3 4.119 18.41 12.031 22.16 15.67-2.58.689-3.38 1.098-5.86 2.208-7.21-4.705-14.71-8.579-22.06-13.061-.75-.492-.61-.347-1.17-.966-3.17-4.433-5.74-4.601-11.09-7.364 3.52-4.835 3.36.804 9.17-3.42"/><path fill="#505a61" d="M1214.93 716.5c.39-.307.6-.626 1.03-.64.01.156.14 1.337.14 1.606-.75-.492-.61-.347-1.17-.966"/><path fill="#585344" d="M937.905 668.706c1.846-.684 2.698-1.078 4.558-1.453l1.162 1.283c4.236 4.891 41.804 1.238 51.926 3.27-15.758.644-31.696.004-47.492-.085-3.513-.02-13.784.201-16.516-.221l.011-.143c1.159-1.163 4.725-2.116 6.351-2.651"/><path fill="#505a61" d="M1203.84 709.136c5.35 2.763 7.92 2.931 11.09 7.364-5.48-2.008-9.48-3.492-14.27-7.092z"/><path fill="#e19857" d="M1281.94 760.399c39.19 26.114 64.66 62.03 88.94 101.57 12.59 20.517 27.08 44.631 29.25 68.915l-3.56.834-2.47-3.121-1.27.08c-.15 3.591-.03 5.176.31 8.776-5.7-8.406-12.36-26.677-17.87-37.328-20.5-39.671-41.64-83.309-69.67-118.178-5.02-6.245-16.24-12.856-23.03-17.031zM652.107 951.814c-1.29 27.881-6.896 130.416 1.599 152.016l-2.87 3.3c-7.233-22.45-9.65-37.11-19.556-59.83-2.419-6.83-3.97-15.83-1.116-22.75 2.034-4.56 4.866-17.52 6.555-22.91 5.085-16.248 9.525-33.908 15.388-49.826"/><path fill="#fcfcfb" d="M630.164 1024.55c2.127 5.83 2.121 16.63 1.116 22.75-2.419-6.83-3.97-15.83-1.116-22.75"/><path fill="#e19857" d="M653.706 1103.83a844 844 0 0 0 42.218 85.84c6.758 11.7 24.615 39.96 29.817 51.22-15.998-11.15-71.435-96.4-73.588-113.72l3.265-.72c-.217-4.46-3.291-14.59-4.582-19.32zm114 180.68c41.217 21.13 80.566 44.49 121.956 65.18 5.964 2.98 12.889 6.2 18.563 9.58-4.933-.41-6.469-1.11-10.988-3.18l-1.35.7a257 257 0 0 1 2.119 4.83c-17.718-15.15-39.566-17.49-60.101-25.94-2.983-1.23-15.105-10.2-19.016-12.65-14.358-8.97-28.698-18.38-42.745-27.86.396-1.91-6.134-6.95-8.438-10.66M706.81 836.409l-.475.912c-3.873 7.268-10.502 15.566-13.622 22.062-4.065 8.466-8.102 18.77-12.04 27.554l-24.824 54.376 1.78-11.477c-3.042-1.945-1.821.179-5.139-.951 9.058-28.481 32.308-71.546 54.32-92.476"/><path fill="#575352" d="M660.98 911.964c-.934 5.004-2.096 13.221-3.351 17.872-3.042-1.945-1.821.179-5.139-.951l1.418-1.384c2.782-2.646 5.502-11.483 7.072-15.537"/><path fill="#e2a264" d="M1265.59 748.664c5.15 3.692 11.16 8.472 16.35 11.735l.63 4.517c-5.8-2.829-18.1-11.027-24.2-14.78z"/><path fill="#fcfcfb" d="M831.101 987.491c-.403-18.476 7.283-48.139 14.802-65.276 10.295-23.464 27.624-41.721 47.025-58.364 97.574-83.707 262.102-50.994 312.872 68.844 5.65 13.332 13.27 55.06 7.46 67.655l-1.63.56c-5.04-4.351-7.59-16.376-10.21-23.715-1.31 2.79-1.06 2.71-1.46 5.948l-.26 1.987c.41 4.521 1.6 11.535.17 15.51 3.81-.33 4.28-.26 8.15.16 18.59 2.89 22.45 31.37 6.34 41.01-5.25 3.14-15.14 2.46-20.28-.53l.16 1.32c.15 1.53.55 2.39 1.37 3.7l2.08-1.8c4.73 2.19 2.38 12.54 1.74 16.98.41 2.35.85 4.09 1.43 6.39 2.73-7.4 4.97-14.25 7.34-21.78 1.75-.64 5.7-2.71 7.57-3.62-1.72 53.82-6.25 83.81-44.71 125.99-33.88 37.17-85.28 61.7-135.99 62.93a216.8 216.8 0 0 1-158.627-61.47c-33.861-32.56-44.647-72.64-45.641-118.46-.69-3.86-.815-7.06-1.254-10.93-1.566-13.25-.729-40.08 1.553-53.039"/><path fill="#46525e" d="M831.101 987.491c-.403-18.476 7.283-48.139 14.802-65.276 10.295-23.464 27.624-41.721 47.025-58.364 97.574-83.707 262.102-50.994 312.872 68.844 5.65 13.332 13.27 55.06 7.46 67.655l-1.63.56c-5.04-4.351-7.59-16.376-10.21-23.715-1.31 2.79-1.06 2.71-1.46 5.948l-.26 1.987c.41 4.521 1.6 11.535.17 15.51 3.81-.33 4.28-.26 8.15.16-6.35.46-9.14.16-15.27 2.49-4.93-20.236-18.85-44.592-26.47-64.298-2.64-6.842-8.33-12.325-11.06-20.074-3.95-5.442-8.61-9.927-13.31-14.736-15.37-14.396-16.82-23.742-35.93-27.66-31.57-12.066-58.22-22.127-92.27-23.836-14.977 5.128-30.973 10.314-45.734 15.837-12.42 3.452-26.657 8.507-39.035 12.429-2.658 2.149-5.294 4.342-7.982 6.451-8.728 8.679-26.451 25.589-33.114 34.655-2.857 7.543-8.211 14.691-12.182 21.709-3.926 6.937-7.263 14.22-11.069 21.195-2.881 3.173-3.702 4.854-5.312 9.06-1.434 3.307-7.329 21.91-8.01 25.612 2.21 3.476 2.725 5.476 4.15 9.406-.01 15.18 2.111 30.46 2.625 45.22.949 4.88 1.057 6.37 2.443 11.13 1.313 4.76 7.812 18.97 10.201 23.92 6.697 13.85 13.114 29.95 19.827 43.55 2.728 1.38 10.709 9.77 13.163 12.27 1.513 1.36 3.01 2.73 4.491 4.12 3.702 15.33 14.754 15.98 25.966 24.56.45.27.9.55 1.351.82-.194.51-.232.48-.7.96.625 1.78 5.254 3.17 6.956 3.98.79.09 1.578.19 2.365.31 6.223.95 8.579 3.31 13.004-.69 2.535.6 4.48 1.06 6.995 1.76 13.179 2.85 24.894 7.51 37.351 10.34l4.03.91c18.11 3.91 20.21 4.49 38.61-.15 12.81-2.66 65.36-16.15 73.34-22.38 9.34-7.28 16.15-17.7 25.4-24.93.4-.32.81-.63 1.22-.94 7.15-7.91 18.22-20.43 26.16-26.93 8.89-5.34 11.17-16.93 15.28-25.81 6.45-13.92 8.97-24.31 9.79-39.41.48-1.22.5-2.25.39-3.55l-.07-1.8 2.08-1.8c4.73 2.19 2.38 12.54 1.74 16.98.41 2.35.85 4.09 1.43 6.39 2.73-7.4 4.97-14.25 7.34-21.78 1.75-.64 5.7-2.71 7.57-3.62-1.72 53.82-6.25 83.81-44.71 125.99-33.88 37.17-85.28 61.7-135.99 62.93a216.8 216.8 0 0 1-158.627-61.47c-33.861-32.56-44.647-72.64-45.641-118.46-.69-3.86-.815-7.06-1.254-10.93-1.566-13.25-.729-40.08 1.553-53.039"/><path fill="#d18b4d" d="M1144.06 1143.8c7.37-3.45 13.21-11.83 20.82-16.1.06 2.17-.85 2.46-2.56 4.71-8.54 9.5-16.25 16.69-25.58 25.43-4.15 3.81-16.83 15.51-20.87 16.96-11.98 4.33-60.51 22.88-71.23 19.51l-.54-2.26c12.81-2.66 65.36-16.15 73.34-22.38 9.34-7.28 16.15-17.7 25.4-24.93.4-.32.81-.63 1.22-.94"/><path fill="#e2a264" d="M860.49 1065.39c1.313 4.76 7.812 18.97 10.201 23.92 6.697 13.85 13.114 29.95 19.827 43.55-3.415-2.34-7.26-6.02-8.728-9.86-3.083-2.83-7.295-6.69-9.007-10.53l-2.05-2.54c-8.587-12.81-13.989-15-13.71-31.08-.005-1.99-.103-3.18-.218-5.11l-.1-1.89c1.059-1.62 2.072-3.23 2.959-4.95z"/><path fill="#fcfcfb" d="M857.023 1078.85c4.282 5.98 6.569 13.98 10.286 19.54 1.556 4.14 4.996 10.53 5.474 14.08l-2.05-2.54c-8.587-12.81-13.989-15-13.71-31.08"/><path fill="#d18b4d" d="M867.309 1098.39c4.964 1.63 13.998 19.56 14.481 24.61-3.083-2.83-7.295-6.69-9.007-10.53-.478-3.55-3.918-9.94-5.474-14.08"/><path fill="#e19857" d="M1155.22 918.918c4.48 3.737 8.11 8.733 11.29 13.614 1.37 4.924 15.83 35.339 18.62 37.68 4.33 7.769 11.78 27.484 14.74 30.428 3.81-.33 4.28-.26 8.15.16-6.35.46-9.14.16-15.27 2.49-4.93-20.236-18.85-44.592-26.47-64.298-2.64-6.842-8.33-12.325-11.06-20.074m-303.948 80.716c2.21 3.476 2.725 5.476 4.15 9.406-.01 15.18 2.111 30.46 2.625 45.22.949 4.88 1.057 6.37 2.443 11.13l-.826 1.51c-.887 1.72-1.9 3.33-2.959 4.95-.827-7.07-2.595-13.19-3.553-19.97-2.795-8.13-2.643-14.94-4.041-23.39-.226-1.37-.888-5.11-.316-6.44 3.138-7.27 2.4-14.64 2.477-22.416m112.837 181.316c13.179 2.85 24.894 7.51 37.351 10.34l4.03.91c18.11 3.91 20.21 4.49 38.61-.15l.54 2.26c-1.69 1.6-3.5 4.69-4.36 5.05-11.33 5.2-20.92 2.02-31.81-2.25-3.45-1.36-11.997-2.35-14.881-4.31-7.234-4.93-14.764-4.71-22.435-7.32-.931-1.38-5.043-3.15-7.045-4.53m-60.428-35.82c1.513 1.36 3.01 2.73 4.491 4.12 3.702 15.33 14.754 15.98 25.966 24.56.45.27.9.55 1.351.82-.194.51-.232.48-.7.96.625 1.78 5.254 3.17 6.956 3.98.79.09 1.578.19 2.365.31 1.898 1.65 2.974 2.53 5.047 3.98-1.385-.24-2.772-.47-4.161-.68-7.729-1.09-14.849-5.13-22.282-4.6-.689.47-1.056.94-1.827.64-2.214-11.16-14.211-20.03-18.959-28.17-2.454-4.49-4.961-5.6.388-5.76z"/><path fill="#505a61" d="M873.356 1124.36c-1.597-1.67-14.256-23.84-2.623-14.43l2.05 2.54c1.712 3.84 5.924 7.7 9.007 10.53 1.468 3.84 5.313 7.52 8.728 9.86 2.728 1.38 10.709 9.77 13.163 12.27l-1.365.16c-5.349.16-2.842 1.27-.388 5.76l-2.005 1.97c-3.968-3.65-23.103-30.09-26.567-28.66"/><path fill="#e19857" d="M1013.71 852.686c20.5-4.423 40.55 5.432 60.31 8.024 16.48 2.16 17.42 6.861 31.26 13.468l.7 2.344c-31.57-12.066-58.22-22.127-92.27-23.836"/><path fill="#fcfcfb" d="M954.102 1190.06c5.705-.12 11.355 1.94 16.93 3.42 4.143 1.16 8.304 2.26 12.482 3.29l1.964.48c6.081 1.52 8.687 2.74 15.462 3.73l1.29 2.64c-3.459-.35-6.796-.35-10.229.28-16.077 2.93-25.62-3.57-37.899-13.84m-86.765-255.693c10.466-22.501 10.597-33.733 35.553-42.819-3.241 3.681-12.149 14.098-14.356 17.817-6.064 6.463-15.039 17.87-21.197 25.002m37.362 236.183c5.672 2.87 10.709 5.29 16.188 8.67.771.3 1.138-.17 1.827-.64 9.998 7.24 20.179 15.5 30.07 23.06-25.693-7.58-28.853-12.69-48.085-31.09"/><path fill="#575352" d="M871.286 939.408c1.659 1.627.185 1.412 1.548 2.641 4.011-2.26 7.106-14.482 15.011-19.991-2.857 7.543-8.211 14.691-12.182 21.709-3.926 6.937-7.263 14.22-11.069 21.195-2.881 3.173-3.702 4.854-5.312 9.06-2.071-.567-1.82-.518-3.79-1.778 1.733-2.464 15.085-30.326 15.794-32.836"/><path fill="#e19857" d="M1105.28 874.178c6.14 2.304 14.76 5.287 21.3 7.081 2.65.726 17.5 7.452 15.82 10.555-2.97 5.484-.99 6.861-.49 12.368-15.37-14.396-16.82-23.742-35.93-27.66z"/><path fill="#fcfcfb" d="M873.356 1124.36c3.464-1.43 22.599 25.01 26.567 28.66.638 1.18 2.511 4.57-.947 3.37-15.833-5.48-18.567-18.37-25.62-32.03"/><path fill="#d18b4d" d="M957.114 1179.19c2.535.6 4.48 1.06 6.995 1.76 2.002 1.38 6.114 3.15 7.045 4.53-1.024-.01-2.405-.34-2.737.75.551.85 4.535 2.96 5.463 3.52 2.094 1.78-1.217 2.66-2.848 3.73-5.575-1.48-11.225-3.54-16.93-3.42-2.467-.98-.76-1.94-.099-4.41-1.798-.6-3.122-.97-4.846-1.79-2.073-1.45-3.149-2.33-5.047-3.98 6.223.95 8.579 3.31 13.004-.69"/><path fill="#505a61" d="M954.003 1185.65c5.822 1.38 13.951 3.89 19.877 4.1 2.094 1.78-1.217 2.66-2.848 3.73-5.575-1.48-11.225-3.54-16.93-3.42-2.467-.98-.76-1.94-.099-4.41"/><path fill="#b67f50" d="M925.76 876.69c.695-.205 4.898-1.507 5.263-1.498 6.251.148 31.86-14.092 35.551-11.838.228 1.009-2.285 2.691-2.799 3.132.643.682 3.288 1.657 4.201 2.037-12.42 3.452-26.657 8.507-39.035 12.429-.615-4.487 1.972-1.14 3.35-3.616l-.077-.114c-1.349-.258-4.748-.311-6.454-.532"/><path fill="#505a61" d="M1168.6 930.323c3.15 7.682 12.83 22.201 18.31 34.938.52 1.49.59 1.382 1.72 2.695-1.63.942-1.94 1.147-3.5 2.256-2.79-2.341-17.25-32.756-18.62-37.68z"/><path fill="#fcfcfb" d="M1168.6 930.323c.12-.669.01-.514.2-.691.98.493 4.73 4.489 5.72 5.444 9.58 9.326 9.33 9.359 13.97 20.623-.53 3.207-.99 6.365-1.58 9.562-5.48-12.737-15.16-27.256-18.31-34.938"/><path fill="#d18b4d" d="M925.76 876.69c1.706.221 5.105.274 6.454.532l.077.114c-1.378 2.476-3.965-.871-3.35 3.616-2.658 2.149-5.294 4.342-7.982 6.451-7.195 1.4-23.821 22.92-15.361 6.823 2.306-1.397 5.125-5.38 7.194-7.74 4.015-4.188 7.05-8.042 12.968-9.796"/><path fill="#b67f50" d="M831.101 987.491c2.267 11.189.814 29.059 2.328 41.409-3.804 6.89-3.259 3.97-3.881 11.63-1.566-13.25-.729-40.08 1.553-53.039"/><path fill="#e2e3e5" d="M871.286 939.408c-.709 2.51-14.061 30.372-15.794 32.836 1.052-12.651 6.858-23.934 15.794-32.836"/><path fill="#505a61" d="M912.792 886.486c-2.069 2.36-4.888 6.343-7.194 7.74-5.937.733-12.833 14.724-16.316 17.227-.617-.258-.64-1.579-.748-2.088 2.207-3.719 11.115-14.136 14.356-17.817 4.188-2.744 4.934-3.525 9.902-5.062"/><path fill="#575352" d="m833.429 1028.9.651.36c-.003 3.24.097 4.57.558 7.78-4.241 8.42-3.647 4.48-3.836 14.42-.69-3.86-.815-7.06-1.254-10.93.622-7.66.077-4.74 3.881-11.63"/><path fill="#c2ac90" d="M834.08 1029.26c-.069.13 4.91-12.01 5.056-6.45.009.35-3.971 12.74-4.498 14.23-.461-3.21-.561-4.54-.558-7.78"/><path fill="#b7bbbf" d="M1200.86 1067.87c-.29 1.32-.98 4.8-2.2 5.35-.8-.68.47-10.38.77-11.74.41 2.35.85 4.09 1.43 6.39"/><path fill="#e2e3e5" d="M1188.49 955.699c.46 4.436.73 7.876.14 12.257-1.13-1.313-1.2-1.205-1.72-2.695.59-3.197 1.05-6.355 1.58-9.562m11.21 29.431c-.26-1.917-1.49-10.556-.25-11.502l.12.017c1.18.882 1.43 2.093 1.85 3.55-1.31 2.79-1.06 2.71-1.46 5.948z"/><path fill="#b7bbbf" d="m1000.94 1200.98 2.03.2c6.39.25 3.7 1.43-.74 2.44z"/><path fill="#fcfcfb" d="M1020.51 829.218c12.55-1.126 27.13 4.954 38.24 10.515-9.41.756-18.15.997-27.53 1.5-13.92-.424-27.29-1.191-40.953-3.967 10.383-3.29 19.423-6.023 30.243-8.048M855.687 1134.87c13.229 7.97 7.479 12.67 26.633 19.14 6.714 12.52 15.754 23.19 25.608 33.38-16.509-3.24-48.206-36.8-52.241-52.52m134.018 76.49c20.975.49 42.125-1.14 63.115 1.01 2.4.24-4.06 3.27-3.16 2.86-23.18 8.56-38.06 10-59.955-3.87M1176.6 909.244c17.99 17.595 23.49 28.775 29.99 52.189.22 1.893.89 7.111.03 8.729l-.18.099c-.6-.307-.96-1.249-1.28-1.869l-.47-1.061c-3.13-7.176-10.7-14.48-11.37-16.515-4.43-13.516-11.12-28.835-16.72-41.572"/><path fill="#e2e3e5" d="M1206.59 961.433c.22 1.893.89 7.111.03 8.729l-.18.099c-.6-.307-.96-1.249-1.28-1.869.51-2.314.98-4.634 1.43-6.959"/><path fill="#fcfcfb" d="m1204.58 1080.05 2.7 2.05c-.34 1.13-.71 2.31-1 3.45l-1.02 3.99c-4.4 18.94-14.22 34.55-27.52 48.57 10.57-26.43 10.01-34.34 26.84-58.06M860.466 905.83q.713-1 1.446-1.988c8.844-11.958 16.142-23.038 28.46-32.143 1.323-.978 14.292-11.412 15.471-9.863-.089.788-.457.904-1.1 1.38-.742 1.381-.805 1.465-1.808 2.623-2.825 4.082-10.716 12.391-12.375 15.337-7.822 13.891-16.633 15.003-28.264 26.03zm325.564 233.65 2.29.81c-13.78 22.12-25.09 34.83-47.85 47.51 7.76-9.36 16.95-20.41 24.41-29.9 3.54-4.49 15.75-13 21.15-18.42m-41.7-275.957c14.3 4.603 40.72 34.666 46.24 48.94-3.47-1.803-5.04-3.864-7.59-6.947-4.34-5.241-9.02-6.86-14.79-9.929-9.66-16.575-13.12-17.618-23.86-32.064m-281.162 55.643 3.516-.019c-8.932 11.941-7.513 20.218-11.952 27.832-3.568 6.118-11.679 18.65-15.918 25.668 4.327-23.433 6.468-35.699 24.354-53.481m-21.321 166.124 3.208-1.23 1.029 1.49c1.209 1.78 7.228 9.64 7.536 10.73 3.877 13.71 10.315 26.23 15.671 39.25-17.209-17.52-21.937-26.64-27.444-50.24m96.376-241.286c13.742-9.405 40.149-18.71 56.962-18.999l-.732 2.693c-3.432 1.317-24.694 11.362-24.93 11.362-11.148-.033-20.571 2.747-31.3 4.944m9.42 6.008c.553.039 1.114.009 1.596.304.257 1.539-9.384 6.014-10.819 7.542-11.287 12.027-19.314 14.589-32.699 21.821l-3.374 1.828c-.866.289-2.77.508-1.569-.901 13.141-15.412 27.979-24.572 46.865-30.594m152.887.686c17.86 2.468 37.93 19.604 49.82 32.439-1.63-.52-21.4-10.14-22.39-10.976-8.87-7.469-18-14.503-27.43-21.463m-47.19 371.012c6.34-2.66 12.16-5.21 18.27-8.39 6.83-3.56 15.76-2.91 23.54-3.94 1.63.24 2.71.77 4.28 1.37-13.4 7.61-24.21 10.57-39.27 12.64-3.09-.56-3.99-.58-6.82-1.68m-79.38-374.334c10.155-.605 14.566-.388 24.359 1.011-10.819 3.231-19.672 5.963-30.323 9.661-7.128 2.391-13.983 4.719-21.171 6.999 6.876-5.577 18.876-15.726 27.135-17.671m168.22 43.984c7.46 2.934 14.68 4.93 21.72 7.649 3.9 9.996 6.15 16.004 11.5 25.695l-2.5.27c-7.93-9.603-22.06-24.547-30.72-33.614m-79.95-43.748c17.27-1.863 25.72 7.036 40.54 17.714-4.85-1.61-9.68-3.278-14.5-5.003-14.73-4.569-28.27-8.295-43.28-11.926 5.71-.343 11.71-.383 17.24-.785m.79-21.184c16.61 2.955 31.26 9.715 45.6 18.317-9.43-2.174-18.11-3.788-27.11-4.913-3.97-.497-18.82-8.969-24.31-11.35a99 99 0 0 1 5.82-2.054m37.94 371.162c10.62-7.89 23.51-16.36 35.67-21.27l1.45 2.91c-16.67 14.94-15.66 13.76-34.83 21.27zm63.31-63.35c4.63-4.96 8.33-9.62 13.4-14.27-11.86 24.48-12.42 30.16-36.04 41.58 5.28-7.44 16.39-19.68 22.64-27.31m-109.28 66.66c14.17-5.04 28.04-8.9 42.35-13.64-10.58 7.87-23.56 19.32-37.46 17.14-2.27-.35-2.51-.39-4.85-.47zm-104.612 7.36c7.498 1.64 18.439 1.95 24.623 4.75 4.536 2.06 9.818 5.26 14.505 7.51l-1.899 2.11c-8.193-1.92-15.896-3.12-23.87-6.1-5.13-1.92-10.283-4.45-15.451-5.98zM846.485 980.07c.464-1.768 1.018-4.071 2.174-5.486.303-.07.152-.075.453.018.675.744-.497 10.085-.661 11.588a670 670 0 0 0-.56 14.24 645 645 0 0 1-7.422 11.72c-.533-11.52 1.831-21.4 6.016-32.08"/><path fill="#e2e3e5" d="M846.485 980.07c.464-1.768 1.018-4.071 2.174-5.486.303-.07.152-.075.453.018.675.744-.497 10.085-.661 11.588-.628-3.147-.53-3.282-1.966-6.12"/><path fill="#fcfcfb" d="M842.241 1034.06c9.8 22.63 4.613 9.17 7.268 34.03l-1.67 3.3c-4.461-17.38-6.22-17.83-5.598-37.33"/><path fill="#e2e3e5" d="M1057.2 828.482c-1.22-.342-3.91-.942-4.73-2.026.49-1.396 9.18-.177 10.55-.028a99 99 0 0 0-5.82 2.054m147.38 251.568c.45-.88 2.41-5.43 3.75-5.3.8 1.1-.72 6.07-1.05 7.35zm-151.24 141.66c2.83 1.1 3.73 1.12 6.82 1.68-2.43.3-10.25 1.33-12.3.19 1.83-1.12 3.37-1.45 5.48-1.87m41.81-12.33c1.32-.37 9.5-2.07 10.05-1.67v.05c-1.13 1.12-4.13 2.6-5.77 2.99-1.57-.6-2.65-1.13-4.28-1.37m-40.12-5.45c-.73.04-7.38.76-7.22-.67.71-1.01 5.78-1.91 7.18-2.36zm48.22-3.43c-1.05.19-6.77 1.67-7.64.81l.08-.14-.01-.28.24.28.95-1.35-.1.08c1.4-.82 2.7-1.68 4.19-2.31zm33.38-24.18c1.32-.76 5.16-3.22 6.53-3.08 2.13.21-5.08 5.99-5.08 5.99zm-294.783-91.03c-.342-1.53-1.563-6.12-1.111-7.44 1.127-.7 3.925 5.42 4.319 6.21zm153.338-260.285c.982-.009 4.469-.355 5.225.63-.31 1.211-5.135 1.877-5.957 2.063zm177.715 99.969 2.5-.27c.31.57 3.08 4.861 1.96 5.562-1.39-.281-3.72-4.216-4.46-5.292m-310.604-17.768c-.862.951-3.308 4.214-4.611 4.144-.697-1.486 1.83-4.364 2.781-5.52zm323.734 232.274c5.07-6.06 6.09-5.44 2.29.81zm-196.524 81.04c1.295.32 3.513.6 3.933 2.01-.787 1.04-4.866.22-5.832.1zm-139.997-152.43c.35 1.26 1.201 5.62.019 6.35-.78-.69-1.246-2.03-1.689-3.05zm13.659-148.924c.387-.43 3.387-4.344 4.341-3.538.425 1.126-.457 2.506-.825 3.519zm85.118 291.384c-.597-.43-2.347-1.43-2.698-2.19.637-1.01 3.8-.23 4.79-.1z"/><path fill="#d82129" d="M1208.02 1000.8c18.59 2.89 22.45 31.37 6.34 41.01-5.25 3.14-15.14 2.46-20.28-.53-.75-1.59-1.44-1.57-3.04-2.17-14.23-11.3-8.06-24.47 1.71-35.82 6.13-2.33 8.92-2.03 15.27-2.49"/><path fill="#d18b4d" d="M1187.97 1055.56c.54-.22 3.52-2.08 3.98-1.41 1.55-.17 2.36-1.41 3.34-2.5-.82 15.1-3.34 25.49-9.79 39.41-4.11 8.88-6.39 20.47-15.28 25.81 8.96-16.51 9.52-18.21 13.64-36.88l.97-5 .97-5c.84-4.33 1.86-10.05 2.17-14.43"/><path fill="#e2a264" d="M908.172 1149.25c9.743 8.41 20.403 20.61 32.169 25.02 5.624 1.76 11.305 3.06 16.773 4.92-4.425 4-6.781 1.64-13.004.69-.787-.12-1.575-.22-2.365-.31-1.702-.81-6.331-2.2-6.956-3.98.468-.48.506-.45.7-.96-.451-.27-.901-.55-1.351-.82-11.212-8.58-22.264-9.23-25.966-24.56m-43.578-184.288c-3.713 16.632-7.07 26.455-9.172 44.078-1.425-3.93-1.94-5.93-4.15-9.406.681-3.702 6.576-22.305 8.01-25.612 1.61-4.206 2.431-5.887 5.312-9.06"/><path fill="#e19857" d="M1191.04 1039.11c1.6.6 2.29.58 3.04 2.17l.16 1.32c.15 1.53.55 2.39 1.37 3.7l.07 1.8c.11 1.3.09 2.33-.39 3.55-.98 1.09-1.79 2.33-3.34 2.5-.46-.67-3.44 1.19-3.98 1.41.49-5.25.25-12.17 3.07-16.45"/><path fill="#46525e" d="M1012.12 940.428c46.05-6.679 88.81 25.207 95.55 71.252 6.73 46.04-25.1 88.84-71.14 95.63-46.115 6.8-89.001-25.1-95.747-71.22-6.746-46.124 25.207-88.972 71.337-95.662"/><path fill="#141415" d="M1304.24 1001.49c12.72-3.5 25.86 4.02 29.29 16.76s-4.17 25.83-16.93 29.18c-12.65 3.33-25.61-4.19-29.01-16.82-3.4-12.64 4.04-25.64 16.65-29.12m-572.499.39a23.62 23.62 0 0 1 22.993 6.23 23.63 23.63 0 0 1 5.89 23.08 23.62 23.62 0 0 1-17.196 16.49c-12.571 3.03-25.241-4.61-28.437-17.14s4.266-25.3 16.75-28.66"/><path fill="#fcfcfb" d="M832.121 1372.19c20.9 4.25 47.787 10.86 68.2 13.1 8.163.9 81.068 32.07 86.947 36.26-48.647-1.67-90.642-6-132.412-32.99-7.874-5.08-16.77-8.69-22.735-16.37M1080.2 628.402c-1.01-.227-1.78-.342-2.77-.719l.14.017-.7-.937-.37.3-.08-.362c1.12-1.714 16.24-.242 18.78.198 37.76.738 85.7 19.235 115.33 42.608-13.05-3.171-24.89-6.039-37.99-8.451-8.16-1.505-29.61-4.212-36.29-7.116-18.64-8.104-37.11-17.406-56.05-25.538"/><path fill="#e2e3e5" d="M1080.2 628.402c-1.01-.227-1.78-.342-2.77-.719l.14.017-.7-.937-.37.3-.08-.362c1.12-1.714 16.24-.242 18.78.198-5.98.615-10.96-.589-15 1.503"/><path fill="#fcfcfb" d="M962.798 1441.05c20.084-.06 38.732-1.78 58.712-4.04 25.67-2.89 55.47 2.57 81.59 4.96-43.15 13.47-95.59 12.06-139.477 2.03zM741.009 703.497c29.614-30.136 83.963-61.845 123.628-75.012l-.984 3.015c-6.203 3.916-13.753 9.866-19.532 14.549-9.681 7.57-23.369 18.871-33.272 25.332-3.868 2.523-22.314 9.715-27.953 12.101a421 421 0 0 0-41.887 20.015m-6.923 637.163c-2.379-.38 69.185 31.03 69.261 31.09 10.477 8.88 35.69 29.4 48.564 39.45-5.085-.28-11.017-2.68-15.826-4.45-38.158-14.01-72.688-38.5-101.999-66.09m221.127-738.446c49.477-8.235 83.257-12.813 133.717.398 1.22.262 4.57.709 5.23 1.939-.75 1.033-12.41.397-14.24.344-17.36.274-39.41 6.058-51.41 5.844-19.09-.34-52.841-6.019-73.297-8.525"/><path fill="#e2e3e5" d="M1088.93 602.612c1.22.262 4.57.709 5.23 1.939-.75 1.033-12.41.397-14.24.344 4.18-.756 5.44-.038 9.01-2.283"/><path fill="#fcfcfb" d="m1203.1 1383.32.4.23c-4.78 7.73-53.6 28.77-63.79 31.65-16.05 4.53-34.82 6.39-51.47 5.19l-1.58-.81c.93-1.15 60.02-25.66 66.31-26.42 16.71-2.01 33.22-5.16 50.13-9.84M679.734 798.945c23.892-42.631 44.879-67 90.802-87.561l.907 1.847c-12.966 11.914-21.48 24.703-33.254 36.972-11.738 12.23-30.432 23.354-43.111 34.939-5.097 4.657-10.212 9.295-15.344 13.803m205.398-156.647c19.824-9.293 52.924-15.18 75.02-15.655-18.006 8.682-38.002 16.688-55.837 25.89-9.036 4.661-46.634 9.997-58.042 10.456 1.431-1.525 1.259-1.471 2.942-2.677-5.882-.711-8.606 1.315-14.75 3.084 7.248-4.91 13.21-8.837 20.205-14.333 6.062 2.053 10.614-.328 14.669 2.13 5.216-2.961 10.747-5.753 15.793-8.895"/><path fill="#d18b4d" d="M834.465 663.396c7.248-4.91 13.21-8.837 20.205-14.333 6.062 2.053 10.614-.328 14.669 2.13-3.352 1.9-16.621 8.539-20.124 9.119-5.882-.711-8.606 1.315-14.75 3.084"/><path fill="#fcfcfb" d="M1190.51 632.152c52.23 17.759 74.85 32.085 116.31 68.881l-2.01 1.037a279 279 0 0 0-33.71-16.563c-29.13-11.927-27.03-9.811-51.09-30.82a248.5 248.5 0 0 0-29.5-22.535M769.648 1331.4c-23.898-8.47-52.679-24.86-67.577-46.41-6.654-9.63-13.047-19.6-18.518-29.92-.312-.59-.306-1.12.28-1.36.763.26 1.439 1 2.03 1.51.561.43 1.123.87 1.685 1.31 10.897 7.23 24.772 18.63 35.983 26.37 3.091 2.13 16.483 18.33 20.328 22.36 8.422 8.82 17.178 17.45 25.789 26.14m-153.032-169.65c11.278 21.61 22.249 37.34 36.366 56.56 5.567 7.58 7.359 34.99 15.784 47.56l-2.958.11c-26.298-32.28-42.219-60.39-51.303-101.38zm569.874-474.918c3.79 1.096 8.14 2.174 11.65 3.859 2.13.473 4.24.973 6.35 1.501 3.76.955 6.51 1.999 10.06 3.497l1.55.632c5.47.997 11.92 4.224 16.67 5.572 21.63 6.137 26.19 14.93 41.05 31.898l-.98 2.604c-3.78-2.174-7.61-4.235-11.54-6.127.96 2.648.97 2.371 3.08 4.5-4.26-.395-6.98-.694-11.37-.864-3.02-1.828-5.87-3.888-8.99-5.585-3.75-3.639-16.86-11.551-22.16-15.67-3.23-2.55-5.35-4.591-8.85-6.933-8.12-6.133-17.61-12.239-26.52-18.884"/><path fill="#d18b4d" d="M1221.86 712.649c6.23-2.348 5.13.567 12.07 1.919 2.43.778 21.97 13.029 27.37 15.7.96 2.648.97 2.371 3.08 4.5-4.26-.395-6.98-.694-11.37-.864-3.02-1.828-5.87-3.888-8.99-5.585-3.75-3.639-16.86-11.551-22.16-15.67"/><path fill="#e2a264" d="M1186.49 686.832c3.79 1.096 8.14 2.174 11.65 3.859 1.42 2.477 5.49 4.782 8.07 5.795 8.66 6.511 18.88 10.2 27.72 18.082-6.94-1.352-5.84-4.267-12.07-1.919-3.23-2.55-5.35-4.591-8.85-6.933-8.12-6.133-17.61-12.239-26.52-18.884"/><path fill="#e2e3e5" d="M1198.14 690.691c2.13.473 4.24.973 6.35 1.501 3.76.955 6.51 1.999 10.06 3.497l1.55.632c-6.88.683-5.38-1.834-9.89.165-2.58-1.013-6.65-3.318-8.07-5.795"/><path fill="#fcfcfb" d="M980.837 1393.38c38.223 5.4 56.673 3.48 93.813 2.52 5.73-1.03 14.3-1.34 20.63-1.98-3.57 1.44-6.54 2.73-10.26 3.67-56.14 20.36-50.84 19.16-107.492-2.04z"/><path fill="#e2e3e5" d="M1095.28 1393.92c-3.57 1.44-6.54 2.73-10.26 3.67-3.65-2-5.66-1.24-10.37-1.69 5.73-1.03 14.3-1.34 20.63-1.98"/><path fill="#fcfcfb" d="M954.231 649.585c17.223-4.94 51.349-14.753 68.649-12.916 10.05 1.068 30.7 9.023 40.89 12.927l2.98.738-.41 2.178c-3.97-.548-7.43-.696-11.44-1.357-28.83-1.075-67.986-2.047-96.91.277z"/><path fill="#e2e3e5" d="m1063.77 649.596 2.98.738-.41 2.178c-3.97-.548-7.43-.696-11.44-1.357 3.66-.394 5.66.052 8.87-1.559"/><path fill="#fcfcfb" d="M657.148 1160.81c4.717 4.16 41.168 70.68 47.664 80.73 1.574 2.44 6.931 10.15 8.376 12.7-8.81-3.82-38.237-34.55-43.961-43.36-3.461-5.33-10.396-41.76-12.079-50.07m629.312-442.394c15.11 6.909 28.51 15.261 41.75 25.302 14.11 10.7 21.12 27.5 29.44 42.659l-1.81.695c-3.22-3.299-11.1-11.024-14.81-13.243-22.62-13.524-35.88-35.827-55.49-53.549zm72.23 548.644c-.2 3.7-5.56 10.11-7.61 13.59-16.24 27.71-40.91 45.53-69.18 59.61-.18-2.45 7.92-10.58 9.85-12.29 8.43-7.46 17.14-22.05 25.57-28.63 14.09-11.01 27.76-20.42 41.37-32.28m-591.2 38.54c12.637 3.9 77.878 41.32 86.009 51.15-14.437-3.82-28.264-9.23-42.549-13.39l-1.936-.55c-14.52-4.05-13.717-5.79-24.483-17.34-6.024-6.47-11.411-13.08-17.041-19.87m622.97-495.374c20.35 30.721 32.35 59.733 41.81 95.231.3 1.123.85 2.376 1.3 3.47l-2.05.54-1.44-2.993c-6.53-13.617-26.99-40.182-29.47-49.87-.14-.54-.3-1.074-.43-1.616-.16-.653-.29-1.314-.44-1.969-.34-1.508-.69-2.987-1-4.504-.31-1.507-.61-2.988-.88-4.501-1.02-5.501-2.01-11.024-3.14-16.501a218 218 0 0 0-2.96-12.095c-.47-1.674-.88-3.498-1.3-5.192m-201.04 550.854c10.35-4.5 23.8-12.84 33.73-18.55 13.35-7.66 28.96-15.34 41.48-23.96l1.78 1.93c-7.57 7.86-16.94 17.96-23.98 26.26-13.47 15.85-30.5 12.95-50.95 17.47z"/><path fill="#e19857" d="M898.006 1361.62a257 257 0 0 0-2.119-4.83l1.35-.7c4.519 2.07 6.055 2.77 10.988 3.18 17.077 5.21 29.34 3.26 42.004 6.45 10.973 4.7 41.882 9.52 53.661 10.62 3.09.42 6.64.53 9.56 1.3l.37.52-.04-.41-.02.1.66.38c-.16 1.45-8.51.78-9.42.78-4.16-.04-8.316.01-12.476-.14-24.04.32-66.561-5.62-91.3-12.37-1.715-.47-2.68-3.16-3.218-4.88"/><path fill="#b67f50" d="M1003.89 1376.34c3.09.42 6.64.53 9.56 1.3l.37.52-.04-.41-.02.1.66.38c-.16 1.45-8.51.78-9.42.78-4.16-.04-8.316.01-12.476-.14 4.675-.74 7.536-.02 11.366-2.53"/><path fill="#fcfcfb" d="M616.878 1095.35c-.472-3.05-1.859-23.76-.023-24.53 1.138 1.12 1.151 1.85 1.443 3.42 2.273 5.18 13.151 31.44 13.72 35.76 1.426 10.79 2.987 28.24 4.242 39.87.278 1.7 1.63 10.66.54 11.81-1.052.2-2.003-3.32-2.177-3.91-5.279-10.74-13.112-29.78-15.472-41.28a103 103 0 0 1-2.273-21.14"/><path fill="#e2e3e5" d="M616.878 1095.35c-.472-3.05-1.859-23.76-.023-24.53 1.138 1.12 1.151 1.85 1.443 3.42-2.06 4.25-.9 14.59-1.42 21.11"/><path fill="#fcfcfb" d="M1427.22 1066.65c8.89 25.63-1.62 70.63-14.62 93.87-1.65.44-1.58-.01-1.18-1.79 4.55-17.64 4.07-37.49 6.84-55.24 1.5-9.61 6.18-27.14 8.96-36.84m-44.64 122.19 2.88 1.4c-.45 3.53-.63 5.48-1.49 8.95l-.4 1.69c-2.12 5.59-5.45 12.93-6.33 18.37-4.22 10.96-27.91 27.89-38.32 35.54-1.33 1.11-1.25 1.07-2.72 1.87-.66.83-.49.78-1.32 1.12l-.33-.15c.08 1.04 43.95-63.19 48.03-68.79m47.97-16.05c.43 6.72-14.1 39.29-18.3 46.29-6.71 11.18-18.26 30.97-27.03 40.15-.86-6.2 13.14-37.16 16.22-44.58.68-1.64 8.17-10.22 10.03-12.78 6.12-8.32 11.82-16.95 17.08-25.84.32-.51.65-1.03.97-1.54zM787.124 726.413c7.718-7.188 30.304-30.944 39.384-33.189l4.015-.966c8.648-1.998 17.293-4.003 25.94-6.005-8.579 5.592-19.521 13.242-27.999 18.147l1.481 1.666c-4.351 3.301-20.858 14.778-25.113 17.059-.479-2.416-1.029-1.744-3.984-1.759-4.686 2.114-7.583 3.784-11.881 6.686z"/><path fill="#505a61" d="m828.464 704.4 1.481 1.666c-4.351 3.301-20.858 14.778-25.113 17.059-.479-2.416-1.029-1.744-3.984-1.759 1.145-1.588 24.416-15.166 27.616-16.966"/><path fill="#fcfcfb" d="M659.719 809.109c-.348 2.366-2.347 11.793-1.67 13.36 1.174.665 3.91-2.913 5.656-3.91l.673.536c.039 2.42-4.047 5.491-4.95 11.257 1.532.249 2.831.533 4.341.863-7.639 7.441-11.875 16.624-19.347 23.714-11.484 11.905-14.867 19.935-23.375 33.448 5.472-18.142 17.948-48.813 29.698-63.46.937-1.145 7.557-13.376 8.974-15.808"/><path fill="#d18b4d" d="M659.719 809.109c-.348 2.366-2.347 11.793-1.67 13.36 1.174.665 3.91-2.913 5.656-3.91l.673.536c.039 2.42-4.047 5.491-4.95 11.257 1.532.249 2.831.533 4.341.863-7.639 7.441-11.875 16.624-19.347 23.714 2.409-10.051 7.228-20.61 6.323-30.012.937-1.145 7.557-13.376 8.974-15.808"/><path fill="#fcfcfb" d="M638.576 900.747c1.353 8.356-6.89 37.81-5.755 49.255.504 5.085-8.522 29.708-11.355 35.478-4.113-29.302 2.856-58.995 17.11-84.733m63.565-92.15 1.076 1.701c-5.565 6.626-30.795 49.445-35.05 58.124-1.924 4.369-5.469 10.554-3.394.772 3.149-40.135 9.825-35.939 37.368-60.597m637.759-9.877c2.89 1.485 19.63 14.253 21.67 16.704 11.22 13.425 16.84 36 19.66 52.876-2.63-2.177-37.41-62.441-41.33-69.58M599.89 985.909c.76 3.617 8.204 36.651 7.978 37.591-2.386 10-7.366 30.19-8.207 43.25-.514 9.78-2.737-4.47-2.837-6.42.502-8.17-.683-16.17-.737-24.33-.112-17 1.58-33.28 3.803-50.091"/><path fill="#b7bbbf" d="M596.824 1060.33c.878 2.19 1.693 4.37 2.837 6.42-.514 9.78-2.737-4.47-2.837-6.42"/><path fill="#fcfcfb" d="m1408.84 906.675.75.73c1.69 1.655 3.98 6.933 5.04 9.213 10.04 21.723 11.06 46.199 11.11 69.849-5.51-4.246-7.74-17.176-8.61-23.977-2.3-17.994-6.69-37.924-8.29-55.815"/><path fill="#d18b4d" d="M861.152 639.404c6.215-3.23 12.191-5.594 17.841-8.448 6.486-3.275 5.395-3.867 13.475-7.105-2.952 2.675-27.322 21.472-26.875 20.497l.015.156c5.584 4.067 9.595-5.256 19.524-2.206-5.046 3.142-10.577 5.934-15.793 8.895-4.055-2.458-8.607-.077-14.669-2.13-1.914-3.516-6.688 7.811-10.549-3.014 5.779-4.683 13.329-10.633 19.532-14.549 1.318-.091 2.522-.177 3.84-.312l-.553.7c-2.36 2.95-3.593 4.23-5.788 7.516"/><path fill="#fcfcfb" d="M1438.41 1027.87c2.42-12.08 5.08-24.07 7.36-36.177 2.79 24.087 2.9 34.997 2.23 58.647l-2.93-.83c-1.87-6.75-3.57-13.6-6.11-20.14z"/><path fill="#e19857" d="M1383.57 1200.88c.21.13.41.25.61.38.09.03.19.06.28.09-.16.07 4.81-6.51 5.19-6.98l5.2-6.42c4.7-5.88 9.74-12.61 14.62-17.98.4-.44 1.62.55 1.36 1.02-7.65 13.58-22.55 37.88-33.59 48.26.88-5.44 4.21-12.78 6.33-18.37"/><path fill="#d18b4d" d="M721.228 805.409c9.914-18.754 18.762-33.556 39.697-42.289-2.535 3.224-11.218 14.817-13.427 17.134-4.682 1.653-21.222 20.128-26.27 25.155m108.717-99.343.765-.432c4.162-2.392 7.394-4.097 11.751-6.239-10.365 9.056-43.241 32.734-55.526 38.377q-1.98.933-3.946 1.898c7.444-6.189 14.246-10.813 21.843-16.545 4.255-2.281 20.762-13.758 25.113-17.059m526.095 95.586c.09.092-10.18-9.072-6.84-8.403s8.07 7.348 11.24 8.944c4.13 2.085 8.35 5.815 12.16 8.049 2.22 5.401 3.5 10.053 5.06 15.669-6.69-7.825-13.12-15.963-20.47-23.118z"/><path fill="#e2a264" d="m1410.9 1110.51 1.6 2.05c-4.68 10.8-7.53 22.27-12.85 33.82-1.47-1.28-2.69-1.91-4.11-3.11 2.36-2.77 12.41-26.76 15.36-32.76"/><path fill="#d18b4d" d="M738.255 1269.37c5.586 2.61 11.717 7.03 16.727 7.29 4.179 2.72 8.522 5.17 12.724 7.85 2.304 3.71 8.834 8.75 8.438 10.66-8.302-3.81-30.603-19.4-37.889-25.8"/><path fill="#e2a264" d="M1372.6 810.242c-.21-.412-.42-.824-.62-1.236-5.2-6.173-6.02-13.836-9.79-20.616-.24-.424-1.02-1.897-.8-2.462.71-1.743 3.94 3.155 4.26 3.551 1.39 2.502 23.33 37.073 6.95 20.763"/><path fill="#d18b4d" d="M1406.73 1187.74c3.81 3.81-21.16 30.22-26.05 33.73-.3-.23-1.28-.95-1.14-1.1 3.59-4 13.94-15.94 16.59-19.36l3.05-3.95c2.41-3.19 4.93-6.29 7.55-9.32"/><path fill="#e2a264" d="m986.981 621.399.403.144.057.158c-3.885 6.391-18.229 7.572-25.215 6.568l-1.186-.361-.022.038-1.006-.347c.552-1.582 11.365-3.106 13.009-3.402l4.997-.935c3.041-.6 5.93-1.301 8.963-1.863"/><path fill="#d18b4d" d="M1253.01 733.904c4.39.17 7.11.469 11.37.864 4.79 3.409 7.03 6.723 10.59 11.27-8.95-3.8-13.85-6.202-21.96-12.134m-317.037-68.558 3.523-.877c4.239-1.047 11.049-2.377 15.402-2.969l.149.154c-.112.613-9.381 4.283-10.29 4.662l-2.294.937c-1.86.375-2.712.769-4.558 1.453z"/><path fill="#e2a264" d="M864.637 628.485c3.424-1.969 9.229-3.565 13.192-4.816l-10.336 7.519c-1.318.135-2.522.221-3.84.312z"/><path fill="#949294" d="M1357.65 786.377c1.75 1.476 7.14 10.375 6.25 12.601l-.39.214c-1.12-1.214-5.56-9.245-7.67-12.12z"/><path fill="#997955" d="M659.428 830.352c3.816-1.213 5.268-2.279 8.104-5.074.449-.442 1.276-1.077 1.885-1.24l.116.022c1.43 2.256-4.036 6.28-5.764 7.155-1.51-.33-2.809-.614-4.341-.863"/><path fill="#e2e3e5" d="M966.447 1391.08c2.751.44 12.29 1.77 14.39 2.3l-3.309 2.17c-4.264-1.16-7.164-2.71-11.081-4.47m225.033-26.85c-1.32.26-6.66 1.46-7.75.96-.32-1.76 4.48-3.51 5.69-4.11z"/><path fill="#d18b4d" d="m1400.13 930.884.22 1.931c.16 1.384.72 4.1.19 5.36l-.16.113c-1.12-.47-3.14-5.244-3.81-6.57z"/><path fill="#e2e3e5" d="M963.623 1444c-1.542-.41-6.97-1.42-7.854-2.63l.06-.16c1.346-.8 5.421-.27 6.969-.16z"/><path fill="#b7bbbf" d="M788.967 728.052c-6.761 5.116-9.281 5.268-1.843-1.639z"/><path fill="#e2e3e5" d="M1382.58 1188.84c.61-1.34 1.73-3.69 3.16-4.29.33.04.18-.01.44.17.42 1.03-.3 3.35-.48 4.35l-.24 1.17z"/><path fill="#b7bbbf" d="M957.99 651.432c-1.432.22-8.033 1.365-9.151.069l.073-.193c1.442-1.151 3.516-1.394 5.319-1.723z"/><path fill="#e2e3e5" d="M614.505 1164.6c-.174-1.02-1.908-7.47-.938-7.85 1.301.68 2.444 3.72 3.049 5zm659.315-430.809c4.76 4.51 5.84 6.591-.98 2.604zM1448 1050.34c-.02 1.21.15 3.86-.53 4.77-1.05.45-2.26-5.15-2.4-5.6zm-183.37 268.23c.78-.55 1.56-1.08 2.37-1.58.32-.2.64-.42.97-.62.43-.26 1.49-.94 2.06-.76.06.02.12.07.17.11.12 1.33-2.91 3.9-3.79 4.78z"/><path fill="#d18b4d" d="M883.669 684.547c-4.261.697-10.236 2.453-3.319-2.55z"/><path fill="#b7bbbf" d="M1306.82 701.033c.49.469 4.25 3.529 3.43 4.393-1.23.339-4.57-2.662-5.44-3.356z"/><path fill="#997955" d="M1410.9 1110.51c.51-1.67.92-2.89 1.87-4.38l.66.7-.13-1.02.11-.09c.98.56-.71 5.97-.91 6.84z"/><path fill="#949294" d="M1066.75 650.334c6.53 1.907 6.29 3.493-.41 2.178z"/><path fill="#e2e3e5" d="M770.536 711.384c1.13-.785 3.295-2.484 4.77-1.89.355 1.076-3.315 3.355-3.863 3.737z"/><path fill="#b7bbbf" d="M702.141 808.597c1.005-.822 2.994-2.765 4.274-2.955 1.343.795-2.865 4.331-3.198 4.656z"/><path fill="#e2e3e5" d="M1285.54 720.28c-.56-.4-3.99-2.518-3.71-3.64 1.25-.728 3.67 1.111 4.63 1.776z"/><path fill="#b7bbbf" d="M668.766 1265.87c.16.41 1.547 3 .628 3.49-1.226-.16-2.827-2.45-3.586-3.38zm762.754-356.403 2.05-.54c.2 1.032 1.04 3.285.17 4.267-1.25-.076-1.93-2.728-2.22-3.727"/><path fill="#141415" d="M496.054 999.468c13.452-3.299 27.014 4.992 30.204 18.472 3.189 13.48-5.218 26.98-18.722 30.05-13.348 3.05-26.653-5.24-29.805-18.56-3.153-13.33 5.027-26.7 18.323-29.962m1044.816.208c13.18-3.328 26.58 4.584 30.03 17.734 3.46 13.16-4.33 26.63-17.45 30.21-13.3 3.62-26.99-4.29-30.49-17.62s4.55-26.95 17.91-30.324"/><path fill="#fcfcfb" d="M550.018 1548.77c3.263 1.23 18.792 10.86 22.737 13.17a651 651 0 0 0 42.646 23.05 422 422 0 0 0 34.758 14.89c6.12 2.36 27.823 9.88 31.948 13.76 28.345 26.71 58.099 48.72 89.708 71.41-10.41-.48-31.234-8.5-41.541-12.39a443.75 443.75 0 0 1-180.256-123.89m413.845 163.31c21.308-3.06 57.127-8.73 77.797-8.23 7.95.19 39.34 8.06 49.22 9.8 8.06 1.42 35.72 4.88 41.65 6.67l.72 1.05c-2.7 2.09-4.7 1.72-8.17 1.82l-.16 1.96c2.34-.05 14.78-.51 16.12.27l.09.18c-1.15 1.54-3.64 1.7-5.38 2.07a438.74 438.74 0 0 1-212.572 1.01c-1.339-.15-5.283-.4-6.014-1.69.015-.12.009-.45.162-.48 4.486-.92 22.221-.55 26.196-.37 18.97-.32 50.335-3.05 68.678-5.92l.14-.75c.24-1.21-.35-1.61-1.15-2.49q-23.954-1.5-47.941-2.31z"/><path fill="#e19857" d="M963.863 1712.08c21.308-3.06 57.127-8.73 77.797-8.23 7.95.19 39.34 8.06 49.22 9.8 8.06 1.42 35.72 4.88 41.65 6.67l.72 1.05c-2.7 2.09-4.7 1.72-8.17 1.82l-.16 1.96c-5.34.06-9.58.18-14.85-.75l-1.85 1.01c-18.18-.91-68.23-8.44-83.1-6.74-4.55.43-8.39 1.19-12.92 1.55l.14-.75c.24-1.21-.35-1.61-1.15-2.49q-23.954-1.5-47.941-2.31z"/><path fill="#6d543e" d="M1011.19 1716.98c2.17-.01 12.65-.39 14.2.65.1.34-.1.61-.27 1.04-4.55.43-8.39 1.19-12.92 1.55l.14-.75c.24-1.21-.35-1.61-1.15-2.49"/><path fill="#b67f50" d="M1110.07 1724.4c2.97-2.16 11.47-1.8 15.01-1.21l-.16 1.96c-5.34.06-9.58.18-14.85-.75"/><path fill="#e2e3e5" d="M1110.07 1724.4c5.27.93 9.51.81 14.85.75 2.34-.05 14.78-.51 16.12.27l.09.18c-1.15 1.54-3.64 1.7-5.38 2.07-.8-3.16-22.15-.63-27.53-2.26z"/><path fill="#b7bbbf" d="M923.178 1728.68c-1.339-.15-5.283-.4-6.014-1.69.015-.12.009-.45.162-.48 4.486-.92 22.221-.55 26.196-.37-4.28.69-19.258-.05-20.344 2.54"/><path fill="#fcfcfb" d="M915.598 320.342c65.475-23.539 145.042-17.011 211.452-.882l-2.61 2.604c-35.77-1.046-64.85 1.819-100.56 6.264 8.06.996 15.3.341 23.64 1.566 7.81.135 20.88.458 28.24 2.473l-.57.748c-16.19 2.46-46.59 9.021-61.53 7.983-33.1-2.3-66.228-10.332-99.94-11.702l.138-3.125a164 164 0 0 0-4.032-.121l-2.415-1.955c1.456-2.805 5.17-3.459 8.187-3.853"/><path fill="#e19857" d="M907.411 324.195c1.456-2.805 5.17-3.459 8.187-3.853 4.921 3.753 7.157 1.52 15.425 2.53l.796.047c6.756.34 11.331.491 18.277 1.121 19.538-1.596 56.904 6.441 70.904 4.317l2.88-.029c8.06.996 15.3.341 23.64 1.566 7.81.135 20.88.458 28.24 2.473l-.57.748c-16.19 2.46-46.59 9.021-61.53 7.983-33.1-2.3-66.228-10.332-99.94-11.702l.138-3.125a164 164 0 0 0-4.032-.121z"/><path fill="#575352" d="M907.411 324.195c1.456-2.805 5.17-3.459 8.187-3.853 4.921 3.753 7.157 1.52 15.425 2.53l.796.047c6.756.34 11.331.491 18.277 1.121-4.917.877-28.355 1.635-36.238 2.231a164 164 0 0 0-4.032-.121z"/><path fill="#e2e3e5" d="M907.411 324.195c1.456-2.805 5.17-3.459 8.187-3.853 4.921 3.753 7.157 1.52 15.425 2.53-9.454.359-13.917.243-23.612 1.323"/><path fill="#997955" d="m1021 328.357 2.88-.029c8.06.996 15.3.341 23.64 1.566-5.77.262-22.11 1.183-26.52-1.537"/><path fill="#fcfcfb" d="M1099.76 351.416c87.4-4.052 135.99 17.609 205.91 67.546l-13.45-4.168c-23.69-5.682-46.74-11.362-70.75-15.737-11.9-2.168-29.23-2.738-40.06-5.838-7.31-2.093-22.57-9.891-30.08-13.142-22.44-9.723-44.98-20.943-68.52-27.718zm-318.281 6.408c-5.725 4.76-16.029 10.502-22.766 15.071-14.162 9.603-27.546 19.652-41.439 29.567-15.067 10.754-29.272 26.241-43.909 36.058-4.507 3.022-24.646 9.111-31.642 12.321-28.718 13.175-52.927 24.9-79.093 42.506l-2.927-.58c19.653-19.992 39.385-40.336 61.565-57.599 47.045-36.615 102.982-61.817 160.211-77.344M737.123 1627.99c10.68.09 43.773 10.87 57.024 13.2 14.708 2.14 32.393 7.05 47.04 8.14 29.341 2.19 49.357 14.11 75.214 26.41 13.717 6.53 28.67 11.62 42.605 18.16-16.8.93-34.954-2.09-51.55-2.19-68.744-.38-114.757-25.23-170.333-63.72M1279.69 363.859c6.82.223 29.17 8.005 36.02 10.644 66.8 25.739 129.56 68.812 177.59 121.897-4.1-1.589-15.84-9.382-20.31-12.012-12.35-7.816-24.03-13.823-37.01-20.65-19.43-10.225-46.07-17.097-64.96-26.313-7.8-3.81-25.46-23.441-33.84-29.887a5687 5687 0 0 0-57.49-43.679m26.36 1262.601c3.81.23 4.03-.28 7 1.8-3.07 1.52-6.38 3.79-9.04 4.96-37.17 24.11-76.24 50.29-121.03 54.92-22.41 2.31-47.15 5-69.64 5 13.11-6.88 27.53-13.67 40.74-20.31 6.06-3.05 28.04-15.53 32.78-16.66 19.28-4.6 37.34-4.33 57.27-10.27l-5.55-1.22c-3.02.34-29.68.94-30.92-.45-.05-1.5 3.36-1.55 4.51-1.73 6.5-1.06 67.05-14.87 65.95-15.57.23.62-.08 2.85.51 2.88 7.79.48 19.77-2.03 27.42-3.35"/><path fill="#e19857" d="M1306.05 1626.46c3.81.23 4.03-.28 7 1.8-3.07 1.52-6.38 3.79-9.04 4.96-13.35 1.04-30.57 7.47-44.5 8.96-4.66.5-10.64 2.74-15.38 3.72l-5.55-1.22c-3.02.34-29.68.94-30.92-.45-.05-1.5 3.36-1.55 4.51-1.73 6.5-1.06 67.05-14.87 65.95-15.57.23.62-.08 2.85.51 2.88 7.79.48 19.77-2.03 27.42-3.35"/><path fill="#d18b4d" d="M1238.58 1644.68c-3.02.34-29.68.94-30.92-.45-.05-1.5 3.36-1.55 4.51-1.73 5.59 3.19 17.47.23 26.41 2.18"/><path fill="#fcfcfb" d="m1482.29 1556.56.84 2.69c-63.73 68.73-115.03 99.43-203.6 127.67 33.58-22.73 64.23-48.29 94.22-75.34 4.49-4.04 33.09-14.21 40.76-17.59a418 418 0 0 0 67.78-37.43M467.968 1402.45c6.942 4.07 24.124 21.63 31.637 28.43 15.45 14 38.225 26.48 53.37 39.15 7.733 6.47 22.331 28.35 30.035 37.25 12.485 14.42 27.253 29.38 38.873 43.93-6.591-2.42-16.942-8.96-23.521-12.28-58.176-29.3-104.672-76.36-130.394-136.48M910.637 352.576c9.431-.63 18.845-.632 28.295-.735a868 868 0 0 0-61.756 28.001c-7.122 3.558-26.437 14.614-32.484 16.443-6.501 1.967-26.253 4.206-34.14 5.489a472 472 0 0 0-50.942 11.106c-7.054 1.917-12.587 3.552-19.847 4.515 58.203-38.636 96.788-61.748 170.874-64.819M444.95 619.184c2.525-2.702 10.839-8.481 14.814-12.377-5.499 11.311-11.272 22.542-16.57 33.975-9.24 19.941-21.527 57.985-35.398 73.736-1.26 7.609-15.587 26.662-20.549 34.735a494 494 0 0 0-40.245 79.19l-1.71-3.258a461 461 0 0 1 99.658-206.001"/><path fill="#e19857" d="M444.95 619.184c2.525-2.702 10.839-8.481 14.814-12.377-5.499 11.311-11.272 22.542-16.57 33.975-9.24 19.941-21.527 57.985-35.398 73.736 1.433-14.253 11.642-40.564 17.288-54.119 3.407-8.178 19.643-35.376 19.866-41.215"/><path fill="#fcfcfb" d="M1429.58 499.016c70.74 35.896 108.94 66.927 146.15 139.488l-1.99.979c-9.43-9.79-21.84-19.034-32.18-27.767-20.32-17.162-41.02-25.379-56.95-47.491-16.42-22.797-35.63-44.84-55.03-65.209M346.59 1238.78c20.067 40.03 41.582 76.33 70.415 110.45 2.211 2.61 8.203 25.63 10.101 31.14a403.5 403.5 0 0 0 24.575 57.57c-32.652-31.35-56.308-69.5-76.583-109.72-14.483-28.72-21.78-56.02-30.604-86.67zm1229.04 168.09c.48 5.52-11.19 23.87-14.28 29.43-21.63 38.78-54.85 67.73-92.46 90.52-10.15 6.15-20.89 13.21-31.81 17.97l-.02-1.17c11.73-13.12 21.59-24.14 32.43-37.92 8.23-10.44 20.62-29.41 29.67-37.76 6.02-5.55 22.95-16.66 30.47-22.09 16.41-11.66 31.8-24.7 46-38.98M1701.31 1225l2.15 2.3c-1.7 4.96-3.42 11.47-4.83 16.59-20.22 73.3-47.27 135.2-100.57 191.29 10.87-22.1 20.44-41.13 28.45-64.73 3.34-9.88 5.84-26.34 9.71-34.63 5.53-9.92 13.35-17.89 19.72-27.4 18.28-27.26 31.93-53.52 45.37-83.42M469.408 642.097c29.451-55.705 47.693-81.236 101.885-117.012 13.297-8.778 29.482-19.834 44.235-26.161-24.614 23.567-44.28 51.724-66.636 77.352-2.159 2.474-8.679 7.143-11.39 9.205-23.685 18.019-46.445 35.304-66.156 57.825zm783.472-204.131c12.33-.16 93.37 23.299 105.84 30.326 18.24 10.28 54.3 52.13 70.46 69.722-7.73-2.443-38.13-21.457-47.19-26.28-43.91-23.357-86.5-48.163-129.11-73.768m348.61 180.747c5.57 3.452 15.31 18.221 19.93 23.936 36.81 45.621 73.56 115.08 82.61 173.543-2.68-4.032-7.42-14.054-10.08-19.061a610 610 0 0 0-20.72-35.864c-6.3-9.892-34.58-45.768-36.72-53.05-9.38-31.769-21.74-59.29-35.02-89.504M617.714 1509.59c8.558 2.96 35.895 19.4 45.19 24.29 43.219 22.78 84.783 48.91 126.948 73.07-14.622.05-84.231-21.92-103.152-27.24-9.547-10.28-20.76-20.13-30.671-30.15-12.933-13.08-25.84-26.46-38.315-39.97M781.726 438.442l1.476 1.893a1864 1864 0 0 0-101.531 58.589c-19.278 11.699-47.329 28.154-64.648 42.048l-5.794 1.23c11.125-11.42 60.163-67.595 69.744-72.617 13.371-7.01 83.368-26.132 100.753-31.143m748.034 199.13c21.69 20.43 70.74 66.604 83.61 93.937 2.7 5.741 12.07 59.116 14.98 70.357-12.79-24.553-36.49-59.685-51.68-84.043-14.7-23.576-32.6-55.859-47.74-77.718zM349.231 1097.84c2.84 3.48 7.008 13.12 9.092 17.4 9.888 20.29 17.216 35.31 19.587 58.1 3.332 32.03 9.501 64.54 16.456 96.08-3.203-2.65-5.279-7.57-7.485-11.21-31.701-52.2-39.378-100.63-37.65-160.37m70.75 147.99c28.504 48.44 58.066 96.8 87.162 144.93 3.576 5.91 8.151 12.55 12.279 18.1l-1.786.69c-19.14-18.08-66.561-62.19-79.029-83.98-3.55-6.21-16.006-68.17-18.626-79.74m1211.489-13.11c.72 4.26-17.36 83.53-19.61 86.91-17.29 25.9-47.5 54.92-71.62 75.23 1-3.97 14.38-24.98 17.34-29.97 25.82-43.39 48.83-88.37 73.89-132.17m-352.31 364.44c14.25-6.18 39.26-23.71 53.75-32.46 30.73-18.54 62.79-36.44 93.09-55.47l1.41 2.2c-9.54 10.96-44.37 51.23-54.28 57.58-18.21 11.67-69.73 24.23-91.76 30.54zM515.968 640.957l.58 1.371c-35.538 49.851-70.816 111.457-98.203 165.892-2.49-2.523 6.296-33.968 7.964-38.855 4.164-12.193 10.713-44.321 17.512-53.738 18.99-26.3 47.706-53.35 72.147-74.67m-129.31 162.929.425.474c.576 2.548-3.718 21.457-4.409 26.058a453 453 0 0 0-3.719 34.455c-.505 8.314-.507 25.133-2.835 32.709-6.229 20.275-14.378 40.169-19.75 60.814-1.623 6.24-3.507 13.653-5.853 19.568-8.184-71.884 6.068-111.65 36.141-174.078m535.539-411.185c15.795-7.537 64.208-24.828 81.173-26.417 20.18-1.888 64.32 14.88 85.34 22.081-.51 1.197-.44.972-1.42 2.015-48.69-2.884-115.957.103-165.093 2.321"/><path fill="#e19857" d="M813.108 1590.45c19.898 4.16 41.652 10.59 61.706 15.36 8.214 1.95 25.692 5.16 32.056 7.15 8.918 5.18 75.702 19.36 88.06 21.44 5.33.67 7.8 1.32 12.96 2.68-7.63.05-21.866.2-28.929-1.01-30.015.05-73.355-1.68-101.771-8.62-9.624-2.35-55.377-29.84-64.082-37"/><path fill="#b67f50" d="M994.93 1634.4c5.33.67 7.8 1.32 12.96 2.68-7.63.05-21.866.2-28.929-1.01 5.898-.58 11.96.49 15.969-1.67"/><path fill="#fcfcfb" d="M1697.47 1080.7c1.65 7.53 1.69 21.49 1.73 29.69.25 51.67-13.97 90.26-36.04 135.56l-.78-.83c0 .37 5.45-32.52 5.92-35.44 3.32-20.89 3.43-41.44 6.53-62 .59-3.92 7.66-22.08 9.39-26.76 5-13.21 9.43-26.63 13.25-40.22m-37.66-277.204 2.58-2.608c30.33 50.504 35.34 91.143 34.36 148.222-3.99-6.257-3.88-13.102-7.15-18.279-3.41-11.572-14.51-34.515-16.19-43.364-5.32-27.873-7.31-55.59-13.6-83.971M956.572 1657.99c15.558-.47 32.165 1.43 47.428.72 35.75-1.67 71.54-1.14 107.22-2.09.94.6 1.72 1.17 2.62 1.82-11.78 4.16-61.21 21.52-71.63 21.15-18.25-.66-67.107-15.68-85.638-21.6M1728.4 949.78c9.14 10.369 8.22 115.21.28 129.23l-1.01-2.24c-2.16-18.55-7.39-35.33-10.44-53.56-.43-4.94.69-10.33 1.79-15.08 4.46-19.269 6.76-38.76 9.38-58.35M319.161 982.889c-.392-6.835 1.316-8.496 2.472-.667 2.874 16.297 7.443 33.288 10.256 48.688.774 4.24-5.33 32.95-6.453 40.05-1.665 10.5-2.452 24.8-4.175 34.79-8.088-51.91-7.501-70.4-2.1-122.861"/><path fill="#e2e3e5" d="M319.161 982.889c-.392-6.835 1.316-8.496 2.472-.667-1.128.214-1.388.299-2.472.667"/><path fill="#e19857" d="M1696.75 949.11c.88 5.662 2.65 10.95 4.19 16.416 1.24 4.402-4.68 4.899-7.36 5.9-.99.37-.09 7.929-2.61 8.489-2.6-.336-4.59-20.566-4.84-22.918-1.96-18.291-5.98-36.097-9.32-54.121 3.35 7.727 8.36 21.672 12.79 27.955 3.27 5.177 3.16 12.022 7.15 18.279"/><path fill="#d18b4d" d="m712.279 492.101.78 2.456c-39.777 24.367-80.998 54.564-119.573 80.77l-1.758-1.122c28.339-21.277 56.345-43.362 86.905-61.396 11.266-6.649 22.589-13.72 33.646-20.708m-55.437-7.96c-1.063 4.39-64.456 56.672-71.349 65.758-1.473 1.942-11.088 10.795-13.523 13.09-.483-1.593-.437-1.583.791-3.076 21.3-25.919 46.79-46.882 72.855-67.707 3.721-2.973 7.12-5.592 11.226-8.065m-76.983 111.232c-.844 1.447-.909 1.47-2.088 2.642-5.595 4.871-8.841 9.741-13.994 14.773-13.214 12.905-24.404 27.388-37.722 40.18 8.344-15.436 20.732-33.002 34.964-43.464 6.019-4.424 12.018-11.836 18.84-14.131m-40.247 819.787c-4.596-4.85-9.696-11.99-13.354-17.59 3.469 3.44 12.503 12.08 15.026 15.68zm766.438 211.3c6.03-1.15 11.76-2.15 17.81-3.42-2.85 1.46-7.89 4.21-10.81 5.22-2.97-2.08-3.19-1.57-7-1.8"/><path fill="#e2a264" d="m1514.65 649.178 2.3-1.269c3.29 5.061 4.3 7.839 6.33 13.401-2.8-3.954-5.99-8.138-8.63-12.132"/><path fill="#997955" d="M593.486 575.327c-7.738 6.548-16.074 8.917-1.758-1.122zm970.004 764.693c-2.2 5.46-2.88 8.14-6.46 12.94l-1.65-1.43c2.68-4.78 4.82-7.27 8.11-11.51"/><path fill="#b7bbbf" d="M617.023 540.972c-3.729 3.012-8.415 5.955-12.411 8.62 2.609-3.464 3.531-4.585 6.617-7.39zM1482.29 1556.56c1.4-1.22 2.84-2.41 4.3-3.57 5.92-4.75-2.48 5.3-3.46 6.26z"/><path fill="#78685c" d="m712.279 492.101 1.45-.918c.041-.026 8.645-5.491 6.847-2.234-.74 1.34-5.596 4.029-7.517 5.608z"/><path fill="#e2e3e5" d="M1127.05 319.46c2.35.425 4.3.47 6.1 1.872l.13-.07.15.161c-.39.97-7.8.641-8.99.641z"/><path fill="#d18b4d" d="M909.826 326.15q2.017.036 4.032.121l-.138 3.125c-2.624-.184-9.099.209-3.894-3.246"/><path fill="#e2e3e5" d="M1701.31 1225c.88-1.96 1.7-3.97 2.67-5.88l-.29.52 1.41-1.54.02.72-.21-.94.36-.03c.41 1.22-1.42 7.68-1.81 9.45zm-41.5-421.504c-.23-.972-2.09-7.242-1.1-7.725 1.55.777 2.93 3.569 3.68 5.117z"/><path fill="#b7bbbf" d="M347.002 828.443c-.514 1.53-1.356 4.499-2.458 5.581-.853-1 .424-7.524.748-8.839zm741.708-440.078c1.72.414 4.23.706 5.45 2.073l.04.17c-1.12 1.157-5.47.32-6.91-.228.98-1.043.91-.818 1.42-2.015"/><path fill="#e2e3e5" d="M344.494 1241.55c-.194-1.1-1.955-7.41-.868-7.88 1.263.57 2.417 3.86 2.964 5.11z"/><path fill="#b67f50" d="M383.722 1142.35c-3.854-5.86-4.705-9.05 1.832-1.95z"/><path fill="#b7bbbf" d="M1111.22 1656.62c1.29-.52 5.41-1.43 6.29.04-.1 1.39-2.79 1.59-3.67 1.78-.9-.65-1.68-1.22-2.62-1.82"/><path fill="#e2e3e5" d="M1281.37 1599.55c-1.72.28-5.28 1.28-6.72.83-.82-.26 1.56-1.66 1.74-1.74.91-.4 1.88-.99 2.77-1.48zM781.726 438.442c.944-.282 4.673-1.677 5.653-1.126.587 1.025-3.516 2.661-4.177 3.019zm747.204 201.663c-2.71-3.369-6.68-9.122.83-2.533zM1426 1509.23c.75-.5 3.36-2.58 4.38-1.66.02 1-1.38 2.23-1.98 2.84l-.99 1.02zM559.703 492.767l2.927.58c-1.319.957-3.238 2.415-4.746 2.958-3.441 1.239 1.789-3.509 1.819-3.538m-88.357 150.539c-.003.004-3.413 4.752-3.921 2.878-.235-.866 1.473-3.304 1.983-4.087zm1104.384-4.802c.46.529 2.7 3.165 1.64 3.828-1-.004-1.99-1.178-2.63-1.829l-1-1.02z"/><path fill="#d18b4d" d="M963.249 1714.67c-5.265-1.28-3.918-2.59.614-2.59z"/><path fill="#e2e3e5" d="M519.422 1408.86c.588.69 1.734 1.58 1.544 2.63-1.126.69-2.566-1.2-3.33-1.94z"/><metadata><recraft-signature>{&quot;signed_by&quot;: &quot;recraft&quot;, &quot;signature_b64&quot;: &quot;0/jYl5h7DoAQWbf3dkNQzxX8+ygQ/aeeE9AH7WfAlAXdlcxy7mUt1DhTYjZhETnMB7Zu4D5YGBH59vWTPxwLCg==&quot;, &quot;signing_algo&quot;: &quot;Ed25519&quot;, &quot;generation_timestamp&quot;: 1777235923, &quot;identifier&quot;: &quot;b849eb96-352a-4ab7-a242-c8f26270d2f3&quot;}</recraft-signature></metadata></svg>