<svg xmlns="http://www.w3.org/2000/svg" width="1024" height="1024" preserveAspectRatio="none" style="display:block" viewBox="0 0 2048 2048"><defs><linearGradient id="c" x1="1808.03" x2="1807.98" y1="1948.48" y2="1935.21" gradientUnits="userSpaceOnUse"><stop class="stop0" offset="0" stop-color="#05080b"/><stop class="stop1" offset="1" stop-color="#2e3645"/></linearGradient><linearGradient id="b" x1="1062.13" x2="1062.91" y1="1951.15" y2="1932.94" gradientUnits="userSpaceOnUse"><stop class="stop0" offset="0" stop-color="#070a0c"/><stop class="stop1" offset="1" stop-color="#222a3a"/></linearGradient><linearGradient id="a" x1="1310.43" x2="1332.28" y1="1038.98" y2="974.128" gradientUnits="userSpaceOnUse"><stop class="stop0" offset="0" stop-color="#0b1016"/><stop class="stop1" offset="1" stop-color="#29323e"/></linearGradient></defs><path fill="#080808" d="M1014.23 877.597c-3.88-13.222-3.96-11.577-.36-23.106 10.88-34.874 25.73-16.981 31.16 8.013 1.49 6.836-2.02 9.278-2.29 13.862 1.13.772 9.19.746 11.19.88 12.35 1.633 13.59 14.608-4.91 18.412 11.25 38.269 23.37 33.129 45.44 58.882 18.07 21.089 20.94 40.08 46.44 59.02 10.61.15 24.95-.01 35.19.76 33.25-29.114 57.67-37.507 101.22-35.16 5.77-.005 11.17.085 16.98-.09 8.54-5.133 15.71-12.878 26.81-10.492 9.48 2.035 13.51 12.553 11.55 21.374-.64 2.866-2.36 6.431-3.33 9.449l-.47 1.419c5.89 8.9 5.81 7.66 3.62 17.59l.05-.15c10.27 10.02 20.2 21.28 24.99 35.18 21.11 55.58-4.69 112.65-38.72 155.96-14.06 17.89-30.09 33.81-45.15 50.8-24.69 31.36-80.39 99.51-64.61 141.52 3.94 10.49 9.47 17.04 18.4 23.13 5.86-16.07 16.93-29.58 36.82-22.1 27.17 10.22 17.15 52.58-7.55 60.06-11.11 3.94-19.67 1.84-29.77-1.51 10.99 34.99 8.47 60.95-9.64 93.12-23.21 41.21-53.97 62.15-92.55 86.47 4.83 4.5 12.88 9.37 16.19 12.75 1.73 3.49 2.55 4.51 1.2 8.44-1.16 1.64-2.33 3.26-3.51 4.88 2.9 3.17 7.3 5.35 11.28 6.77 19.36 6.87 26 15.03 32.99 33.71-65.95.95-133.33.07-199.436.26l-60.281.19c-5.815.01-26.151.26-31.034-.63-8.865-16.78 30.545-33.7 41.379-38.96.411-2.16.543-1.06-.741-3.24-3.425-3.03-2.974-9.54.112-12.84 4.982-1.34 9.483-1.11 10.842-6.53-3.91-3.95-28.318-14.36-35.706-19.17-44.518-29-74.983-69.71-80.407-123.41-11.392 3.72-28.714 2.19-39.353-2.64-87.664-39.83-46.875-143.42-19.148-209.46 22.202-52.71 33.756-110.04 1.975-161.82-16.914-27.56-60.284-59.44-93.492-44.53-.426-.13-1.14-.28-1.438-.53l-.001-.12.134-.01c1.956-3.32 10.842-2.7 11.066-6.46-.596-.25-1.944-.56-2.286-1.01l.113-.28c.78-.36 1.462-.24 2.317-.17l1.494.09c12.299-13.81 8.525-33.1 2.68-48.63l1.298-2.34c23.173 5.85 42.7 11.92 63.611 23.79 61.648 35 85.667 102.64 89.461 170.15 1.796 31.96.353 64.15 2.782 96.05.638 8.39.908 24 6.454 30.41 2.485 2.86 8.923 6.1 13.157 6.46 6.395.55 8.275-11.18 14.273-15.6 2.861-2.64 6.829-4.76 10.973-4.35 8.432.83 17.245 8.67 22.193 14.99a3200 3200 0 0 0 16.26-62.63c4.296-16.89 9.11-34.41 12.522-51.43 13.073-65.23 18.57-159.29-38.218-205.75-7.977.08-21.113 2.55-25.101-5.28.7-12.65 24.047-8.92 33.749-8.83 22.488-18.221 28.614-39.455 45.873-59.491 21.795-25.301 37.991-23.23 49.944-58.952-5.93-.579-9.23-.557-14.797-2.789-3.164-2.065-4.054-3.472-3.849-7.453.48-9.28 16.316-7.737 21.966-6.898"/><path fill="#607281" d="M691.679 1027.54c34.4 7.43 72.35 23.55 96.92 49.48.562.3.6.49 1.015 1.07 43.108 46.37 52.354 97.24 54.654 158.15-.772 4.93-.056 25.76.572 31.1.126 16.3-.02 32.65 1.512 48.88-.149 1.44-.246 1.43.339 2.72 1.205 16.72 1.532 32.54 21.524 35.62 1.4-.21 1.301-.29 2.537-.04 4.796-1.11 12.505-3.2 15.3 2.44 4.461 8.99 6.54 28.27 4.592 38.08-6.229 31.33-34.764 55.18-52.364 80.68-2.356 2.77-10.716 23.73-12.473 24.46-25.252 10.6-60.881-12.05-72.069-29.94-47.536-76.04 23.763-163.41 36.932-239.12 6.862-39.45 1.699-77.11-21.597-109.7-13.333-18.73-32.027-32.36-54.037-39.79-6.54-2.21-18.785-2.81-25.988-3.96l-.049-1.5c12.299-13.81 8.525-33.1 2.68-48.63"/><path fill="#404b56" d="M868.215 1354.56c1.4-.21 1.301-.29 2.537-.04-1.32.56-1.191.55-2.537.04"/><path fill="#607281" d="M1294.29 979.07c8.54-5.133 15.71-12.878 26.81-10.492 9.48 2.035 13.51 12.553 11.55 21.374-.64 2.866-2.36 6.431-3.33 9.449l-.47 1.419c5.89 8.9 5.81 7.66 3.62 17.59l.05-.15c10.27 10.02 20.2 21.28 24.99 35.18l-1.88 1.82c12.38 34.84 6.93 71.44-8.61 104.31a250.2 250.2 0 0 1-30.26 48.22c-7.66 9.66-16.54 20.29-25.06 29.1-31.19 32.23-57.29 68.03-77.63 108.11-15.28 30.13-17.47 63.8 14.84 84.34 2.32-6.96 6.37-20.21 14.28-22.86 40.39-13.56 45.84 38.8 13.93 53.64-34.2 15.9-67.84-41.02-71.53-68.4-.81-1.54-.63-1.55-.37-3.4l.03-8.58c-.22-1.89-.43-1.91.4-3.52 1.27-15.72 5.41-27.04 11.15-41.55 29.17-73.72 99.23-118.95 130.34-191.21 20.34-47.25 13.02-106.9-39.73-128.13-41.01-16.514-99.32.47-115.67 44.14-6.29 16.78-7.74 40.52-1.6 57.46 2.95 7.94 16.37 16.92 24.28 19.47l.02 1.03c-15.11 3.01-31.21-7.64-39.16-19.87-14.07-21.68-11.01-50.23-.35-72.64 3.44-7.24 5.76-11.68 13.37-15.59 5.48-2.71 5.79-8.71 9.72-12.96 13.12-12.86 29.36-22.66 46.63-28.845 31.17-10.468 37.47-7.378 64.67 5.458.67-4.257-13.34-9.044-13.96-10.475.64-1.463 4.47-.549 1.95-3.348 5.77-.005 11.17.085 16.98-.09"/><path fill="url(#a)" d="M1294.29 979.07c8.54-5.133 15.71-12.878 26.81-10.492 9.48 2.035 13.51 12.553 11.55 21.374-.64 2.866-2.36 6.431-3.33 9.449l-.47 1.419c5.89 8.9 5.81 7.66 3.62 17.59l.05-.15c10.27 10.02 20.2 21.28 24.99 35.18l-1.88 1.82c-16.52-34.63-35.35-41.45-65.49-61.718l-.82-.559c.67-4.257-13.34-9.044-13.96-10.475.64-1.463 4.47-.549 1.95-3.348 5.77-.005 11.17.085 16.98-.09"/><path fill="#404b56" d="M1185.25 1379.74c-.22-1.89-.43-1.91.4-3.52.24 1.91.44 1.94-.4 3.52m-.03 8.58c.84 1.52.6 1.56.37 3.4-.81-1.54-.63-1.55-.37-3.4"/><path fill="#080808" d="M932.777 1665.06c-3.425-3.03-2.974-9.54.112-12.84 2.78 1.16 11.005 2.13 13.529 1.75 13.159-1.99 191.282 1.54 194.512-.33 1.73 3.49 2.55 4.51 1.2 8.44-1.16 1.64-2.33 3.26-3.51 4.88 2.9 3.17 7.3 5.35 11.28 6.77 19.36 6.87 26 15.03 32.99 33.71-65.95.95-133.33.07-199.436.26l-60.281.19c-5.815.01-26.151.26-31.034-.63-8.865-16.78 30.545-33.7 41.379-38.96.411-2.16.543-1.06-.741-3.24"/><path fill="#1c252f" d="M932.777 1665.06c-3.425-3.03-2.974-9.54.112-12.84 2.78 1.16 11.005 2.13 13.529 1.75 13.159-1.99 191.282 1.54 194.512-.33 1.73 3.49 2.55 4.51 1.2 8.44-7.47-.49-23.49.21-31.68.32l-56.01.27c-34.63.1-87.291-1.48-120.481.88z"/><path fill="#607281" d="M939.621 1666.47c23.839-.91 51.527-.38 75.539-.41l117.55.07c16.9 12.89 38.15 13.49 45.47 37.02l-.79 1.47c-6.37 1.45-35.89.57-43.89.5l-241.085-.27c13.392-28.66 32.213-25.19 47.206-38.38"/><path fill="#080808" d="M1014.23 877.597c-3.88-13.222-3.96-11.577-.36-23.106 10.88-34.874 25.73-16.981 31.16 8.013 1.49 6.836-2.02 9.278-2.29 13.862 1.13.772 9.19.746 11.19.88-1.47 4.065-44.37 4.583-45.52 1.219 1.98-.19 3.88-.409 5.82-.868"/><path fill="#607281" d="M1035.93 843.618c1.98 5.742 12.29 31.601 2.05 32.565-9.99.939-25.84 5.024-24.1-10.689.84-7.594 6.72-27.689 15.3-27.45l1.67.028c2.98 2.165 3.47 2.322 5.08 5.546"/><path fill="#505e6a" d="M1030.85 838.072c2.98 2.165 3.47 2.322 5.08 5.546-2.61-2.018-3.2-2.844-5.08-5.546"/><path fill="#1c252f" d="M996.113 891.948c-3.164-2.065-4.054-3.472-3.849-7.453.48-9.28 16.316-7.737 21.966-6.898-1.94.459-3.84.678-5.82.868 1.15 3.364 44.05 2.846 45.52-1.219 12.35 1.633 13.59 14.608-4.91 18.412.99-.759 1.37-1.08 2.53-1.542l.53-.855.03.025-.12-.373c-2.85-2.197-53.505-2.406-55.877-.965"/><path fill="#404b56" d="M844.268 1236.24c1.491 2.31.831 26.5.572 31.1-.628-5.34-1.344-26.17-.572-31.1m2.084 79.98c.626 1.19.462 1.19.339 2.72-.585-1.29-.488-1.28-.339-2.72"/><path fill="#fcfbfb" d="M1243.67 1012.36c41.84-3.18 80.18 17.43 88.97 59.96 13.48 67.57-35.69 118.3-74.98 165.25-38.74 46.31-85.99 107.34-71.27 170.77-11.84-11.32-19.7-20.52-29.35-33.75-35.75-54.82-48.45-124.78-47.93-189.72.06-8.03 0-22.23 2.24-29.52 6.09-19.87 30.31-25.68 48.55-26.4 8.81 5.91 17.06 11.16 28.28 11.56 27.05.97 46.21-35.24 24.77-54.58-5.5-4.96-14.66-7.43-22.03-6.61-10.27 1.15-15.74 8.13-21.43 15.75-3.83-47.8 28.9-77.07 74.18-82.71"/><path fill="#607281" d="M1026.35 1336.74c6.61.15 11.13 4.79 11.32 11.5 1.79 62.25-4.46 161.76 68.45 187.18 32.91 11.47 83.31 4.63 117.57-.97-14.54 39.69-48.92 72.25-84.1 94.26-6.68 4.18-13.33 8.29-19.93 12.61 4.6 3.12 7.48 5.57 11.65 9.12-22.03 1.75-65.28.35-88.87.28-19.13-.25-38.26-.25-57.388.01-12.265.16-26.318.79-38.403-.12-2.747-2.42 2.486-2.69.866-8.03a183 183 0 0 1-5.085-1.82c-51.233-19.26-82.977-53.37-104.945-102.16 29.837 6.67 81.492 8.21 109.016-3.67 58.739-25.34 71.279-100.88 71.369-157.69.02-13.11-.24-30.12 8.48-40.5m21.9-309.42c31.97-.47 64.01.31 95.98-.25 5.61-.1 11.24-.08 16.84.11l.5.73-1.39.71c-17.85 8.76-35.79 18.89-41.41 39.47-9.14 33.49-14.91 114.35-11.64 146.71-17.44.82-40.3 4.27-55.22-7.18-8.54-6.55-3.32-10.54-1.96-17.08-2.89-1.81-8.69-.3-8.98-.63-3.2-3.71-5.61-15.18-14.21-6.44-1.22 5.2-.25 9.14-2.63 11.9l-3.09.5-1.02.22-.1.72-1.74-2.76-1.66-.24c-1.17 6.41-.72 10.97-6.37 15.59-12.496 10.22-43.341 5.88-59.375 3.55a295 295 0 0 0 2.892-92.79c-.425-.93-.421-.83-.259-1.83-4.106-35.4-15.484-66.91-42.664-90.52 45.692.42 91.636-.89 137.506-.49"/><path fill="#505e6a" d="M1048.25 1027.32c31.97-.47 64.01.31 95.98-.25 5.61-.1 11.24-.08 16.84.11l.5.73-1.39.71c-16.89-3.55-104.92 2.85-111.93-1.3"/><path fill="#080808" d="M978.951 1182.63c4.16.47 6.169.32 9.181 3.83a7.28 7.28 0 0 1 1.744 5.55c-.408 3.81-3.679 5.89-6.499 7.95-13.827.24-11.52-9.26-4.426-17.33"/><path fill="#e69760" d="M979.016 1186.6a5.468 5.468 0 0 1 7.899 5.43 5.47 5.47 0 0 1-3.302 4.49 5.475 5.475 0 0 1-7.102-2.74c-1.242-2.67-.133-5.85 2.505-7.18"/><path fill="#080808" d="M1080.59 1185.65c2.68-.95 5.67-.38 7.81 1.5a7.86 7.86 0 0 1 2.48 7.56 7.82 7.82 0 0 1-5.39 5.84c-4.08 1.24-8.4-1-9.73-5.05s.81-8.43 4.83-9.85"/><path fill="#e69760" d="M1080.92 1188.24a5.34 5.34 0 0 1 5.44.79 5.39 5.39 0 0 1 1.87 5.17 5.38 5.38 0 0 1-3.68 4.09c-2.72.84-5.63-.61-6.6-3.29-.98-2.69.33-5.66 2.97-6.76m-59.88 7.63c18.48 9.68 14.46-3.71 24.42-3.22-8.69 30.92 44.53 26.02 61.27 24.61.61 10.64 2.32 21.41 3.81 31.98-12.52-.28-27.55 2.45-35.79 12.09-49.19 57.55-30.39 160.71 19.95 211.25 25.41 25.51 57.77 35.85 90.71 35.89 15.14-.02 30.25-1.33 45.17-3.91-.97 11.25-1.55 16.06-5.55 26.58-29.16 7.72-90.47 10.66-118.86 1.56-6.93-2.93-12.14-5.13-18.36-9.51-44.72-32.6-45.01-92.79-46.72-143.18-.44-12.81 2.5-39.77-10.22-47.14-18.07.08-15.48 40.27-16.02 53.1a451 451 0 0 1-3.47 38.67c-5.07 36.89-17.132 73.6-47.988 96.93-6.02 3.85-8.968 5.67-15.438 8.65-.921.68-1.836 1.36-2.744 2.05-2.398.26-14.311 4.53-19.587 5.3-32.926 4.79-56.613 4.49-89.05-1.78-4.028-13.89-5.586-18.83-5.794-33.08 28.44 10 67.582 4.72 94.612-6.96 33.979-14.68 58.058-51.02 69.883-85.29 14.106-40.9 27.146-96.65 8.126-138.1-6.735-14.68-15.963-20.16-30.141-25.05-4.185-.45-7.782-1.19-12.083-1.61-5.423.18-11.599 1.45-17.021 2.36 2.854-10.29 4.923-21.41 7.087-31.92 19.831 1.66 66.558 10.94 68.678-19.33l.1-.72z"/><path fill="#080808" d="M979.274 1226.31c5.26 1.62 10.461 3.14 15.265 5.66 13.341 6.92 33.791 23.4 49.391 14.49 14.1-8.05 30.31-24.23 48.29-20.07 7 1.62 10.41 6.49 8.71 13.57-5.47 7.28-19.26 4.42-25.68 8.18-14.98 8.76-22.14 26.52-41.37 29.1-27.28 3.67-24.87-29.7-50.59-31.43-4.28.37-6.215-.05-10.031 1.5-4.185-.45-7.782-1.19-12.083-1.61l.062-1.49c-4.614-13.02 8.633-14.72 18.036-17.9"/><path fill="#a5673c" d="M961.238 1244.21c4.802.16 17.731.96 22.052 1.6-4.28.37-6.215-.05-10.031 1.5-4.185-.45-7.782-1.19-12.083-1.61z"/><path fill="#607281" d="M1080.72 1229.16c5.8-.46 19.94-1.87 18.66 7.89-5.15 6.01-20.31 5.67-25.86 8.75-10.68 5.93-21.57 23.31-33.75 26.91-28.69 8.48-27.42-18.57-47.273-27.49l-1.156-.51c-7.335-1.8-29.359.23-28.485-7.69 12.01-15.38 38.114 1.56 50.094 8.76 30.6 18.4 39.89-8.63 66.39-16.23z"/><path fill="#080808" d="M938.41 1506.03c2.782-.12 5.541.18 8.358.31l-.635 1.49c10.482.33 13.719-.1 15.078 11.15-2.982 2.12-3.511 3.09-7.186 2.87-2.592-.16-4.91-4.05-6.157-1.85-.45 2.41-.625 5.65-1.054 8.23-1.247.57-2.396 1.11-3.626 1.72-6.495-2.15-9.418-2.98-13.492-9.1-.854-1.29-3.888-6.02-5.715-5.5-3.604 1.02-4.489-3.37-1.914-5.3 3.484-2.85 6.987-.04 10.835-1.92 2.536-.74 3.225-.87 5.508-2.1"/><path fill="#a5673c" d="M938.41 1506.03c2.782-.12 5.541.18 8.358.31l-.635 1.49c-4.993.41-8.293.24-13.231.3 2.536-.74 3.225-.87 5.508-2.1"/><path fill="#cf8652" d="M941.472 1510.24c5.551 1.11 4.292.85 4.023 7.15-.858 20-11.749 2.98-17.777-3.45-4.817-3.72 6.441-2.7 5.357.56-.716 2.16 9.708 14.33 9.363 5.75-.157-3.92-1.824-5.51-1.395-7.82zm8.96 7.45c-1.722-2.43-5.717-7.6.557-6.65 1.662.26 5.348-.46 3.384 2.21-.442.75-.885 1.5-1.327 2.26z"/><path fill="#cf8652" d="M953.723 1515.99c5.376-3.6 6.457 1.89-.129 3.57-.85-.52-2.238-1.42-3.162-1.87l2.614-2.18z"/><path fill="#603c2a" d="m950.432 1517.69 2.614-2.18.677.48c-.152.95-.12 2.65-.129 3.57-.85-.52-2.238-1.42-3.162-1.87"/><path fill="#897054" d="M936.735 1511.54c.506 0 1.012.01 1.517.02.24 3-.119 4.1.374 7.66-1.592-1.55-5.592-6.68-1.891-7.68"/><path fill="#080808" d="M1099.68 1505.09c7.15 3.6 7.83 1.46 13.14-3.46.18 1.63.36 3.27.53 4.9 27.05-8.18 2.87 18.12-6.82 22.85-3.97-2.31-4.43-3.65-7.01-7.47-.29-1.13-.39-1.54-.74-2.57 3.47-11.49 4.6-11.45-6.64-14.51 3.52-.44 4.07-.34 7.54.26"/><path fill="#cf8652" d="M1099.68 1505.09c7.15 3.6 7.83 1.46 13.14-3.46.18 1.63.36 3.27.53 4.9-1.37.56-2.65 1.27-3.97 1.95l-2.3 2.64c2.34.43 10.02 2.55 9.74 5.35-.41 4.1-1.9 3.82-4.42.72-5.78-7.12-10.82.74-12.88 4.72-.29-1.13-.39-1.54-.74-2.57 3.47-11.49 4.6-11.45-6.64-14.51 3.52-.44 4.07-.34 7.54.26"/><path fill="#603c2a" d="M1107.08 1511.12c-.55-.19-2.94-.68-2.85-1.62.67-.61 4.17-.87 5.15-1.02z"/><path fill="#cf8652" d="M1105.9 1518.54c1.81-1.01 4.1-.37 5.11 1.44 1.02 1.8.39 4.09-1.42 5.12a3.765 3.765 0 0 1-5.14-1.43 3.76 3.76 0 0 1 1.45-5.13"/><path fill="#a5673c" d="M1114.02 1508.33c5.62.43 9.39-2.35 8.69 3.41l-.13 1.36c-4.43 1.3-6.87-.19-8.56-4.77"/><path fill="#080808" d="M1092.14 1504.83c11.24 3.06 10.11 3.02 6.64 14.51-3.82 2.2-4.5 1.59-8.91 2.21-8.09-7.94-6.44-11.44 2.27-16.72"/><path fill="#cf8652" d="M1091.14 1511.5c2.67.88 3.2.71 5.86-.27 3.95 3.28-8.01 14.5-9.56 1.14z"/><path fill="#b48655" d="m1087.44 1512.37.88-1.14c1.8-2.42 7.16-5.16 7.75-1.78-1.5 1.26-3.45-.58-4.93 2.05z"/><path fill="#080808" d="M1099.68 1505.09c-9.78-14.72 14.24-19.07 13.14-3.46-5.31 4.92-5.99 7.06-13.14 3.46"/><path fill="#a5673c" d="M1104.95 1493.61c5.22 1.94 7.1 4.54 2.77 9.15l-2.48 2.61c-7.23-6.85-8.21-5.44-.29-11.76"/><path fill="#080808" d="m938.41 1506.03-1.198-1.44c-10.824-11.94 20.83-12.75 9.556 1.75-2.817-.13-5.576-.43-8.358-.31"/><path fill="#a5673c" d="m937.801 1497.84 1.201.05c5.371.21 7.766.18 7.578 5.86l-1.481.12c-5.476.42-7.14-.4-7.298-6.03"/><path fill="#cf8652" d="M1089.87 1521.55c4.41-.62 5.09-.01 8.91-2.21.35 1.03.45 1.44.74 2.57 2.58 3.82 3.04 5.16 7.01 7.47-.11 1.15-.2 2.18-.36 3.32-6.93-2.93-12.14-5.13-18.36-9.51zm-143.056 6.68 1.14 1.99c-.921.68-1.836 1.36-2.744 2.05-.693-.75-1.355-1.54-2.022-2.32 1.23-.61 2.379-1.15 3.626-1.72"/><path fill="#080808" d="M865.178 1514.73c8.232 3.92 11.216 14.47 2.559 17.85l-1.722.73-1.624-.63c-10.656-3.99-8.055-12.79.787-17.95"/><path fill="#cf8652" d="M859.999 1520.87c8.49.05 10.351-.12 9.692 8.1-7.989 1.49-8.182-.21-9.692-8.1"/><path fill="#080808" d="M890.777 1526.73c-1.011 2.9-1.943 6.31-5.276 7.33-1.358.41-2.827.2-4.022-.56-4.619-2.9-5.88-10.09-2.543-14.54a7.38 7.38 0 0 1 5.068-2.94c5.832-.72 6.098 3.88 6.447 8.12.003.78.206 1.82.326 2.59"/><path fill="#cf8652" d="M890.777 1526.73c-1.618-.66-6.733-3-7.295.98-.086.61 2.734.13 3.573 1.45-.078 6.29-11.126-1-6.853-6.55 7.103-9.22 2.726.94 10.249 1.53.003.78.206 1.82.326 2.59"/><path fill="#080808" d="M1176.42 1516.79a7.675 7.675 0 0 1 8.21 12.96 7.65 7.65 0 0 1-7.83.52 7.67 7.67 0 0 1-4.19-6.62 7.65 7.65 0 0 1 3.81-6.86"/><path fill="#a5673c" d="M1178.49 1519.03a4.585 4.585 0 0 1 4.05 8.19c-1.48.9-3.35.88-4.81-.04a4.572 4.572 0 0 1 .76-8.15"/><path fill="#080808" d="M1155.64 1517.43c11.36.2 14.36 7.07 7.55 15.86-11.42 1.96-11.41-8-7.55-15.86"/><path fill="#cf8652" d="M1158.99 1520.27c4.41 2.24 5.35 4.07 3.76 8.97l-.49 1.62c-7.59-1.49-5.59-4.47-3.27-10.59"/><path fill="#080808" d="M906.855 1527.97c-1.968 12.82-18.701 4.83-13.09-5.69 1.613-3.02 12.955-5.07 13.034 3.16z"/><path fill="#b48655" d="M906.855 1527.97c-2.842-.87-5.45-1.68-8.432-1.68-.768 0-2.076-.09-2.485-.92-.49-.99.731-2.01 1.55-2.32 1.889-.7 4.019-.25 5.752.65 1.321.7 1.553.83 2.723 1.37l.836.37zm-12.529 1.25 1.336-.07c2.338-.14 6.602-1.38 5.972 1.71-3.276 1.62-4.244.22-7.308-1.64"/><path fill="#080808" d="M1142.86 1516.44c9.96 3.97 10.59 11.05 3.43 18.14-6.96-3.68-11.81-10.53-4.74-16.89z"/><path fill="#b48655" d="M1143.75 1519.49c2.36 1.34 5.74 2.78 3.26 5.77l-.82 1.02c-5.67-2.09-6.39-1.98-2.44-6.79m-3.29 7.51 1.73.21c3.28.36 4.24-.05 6.05 2.55-4.89 1.12-4.24.97-7.78-2.76"/><path fill="#080808" d="M1203.61 1517.66a6.297 6.297 0 0 1 8.64 1.16 6.31 6.31 0 0 1-.77 8.69 6.32 6.32 0 0 1-6.37 1.16 6.33 6.33 0 0 1-4.04-5.06 6.31 6.31 0 0 1 2.54-5.95"/><path fill="#a5673c" d="M1205.48 1519.29c1.86-.82 4.02.01 4.87 1.85a3.71 3.71 0 0 1-1.78 4.89c-1.21.58-2.63.46-3.73-.31a3.73 3.73 0 0 1-1.56-3.4 3.73 3.73 0 0 1 2.2-3.03"/><path fill="#080808" d="M841.665 1517.66a6.133 6.133 0 0 1 6.976 5.14c.512 3.34-1.777 6.46-5.118 6.99a6.14 6.14 0 0 1-7.012-5.14 6.13 6.13 0 0 1 5.154-6.99"/><path fill="#a5673c" d="M842.48 1520.61a3.54 3.54 0 0 1-.001 7.05 3.535 3.535 0 0 1-3.315-5.38 3.55 3.55 0 0 1 3.316-1.67"/><path fill="#080808" d="M1126.06 1522.31a5.91 5.91 0 0 1 7.61 2.76c1.42 2.78.44 6.18-2.25 7.78a5.91 5.91 0 0 1-6.15-.06 5.92 5.92 0 0 1-2.79-5.48c.17-2.2 1.54-4.13 3.58-5"/><path fill="#a5673c" d="M1125.96 1525.53c.79-.84 1.98-1.19 3.1-.89 1.12.29 1.99 1.17 2.27 2.3.28 1.12-.09 2.31-.94 3.09a3.153 3.153 0 0 1-4.38-.12 3.15 3.15 0 0 1-.05-4.38"/><path fill="#080808" d="M918.065 1521.99a5.895 5.895 0 0 1 5.809 5.68 5.895 5.895 0 0 1-5.366 6.09 5.88 5.88 0 0 1-5.468-2.65 5.898 5.898 0 0 1 5.025-9.12"/><path fill="#cf8652" d="M916.705 1525.14a2.93 2.93 0 0 1 3.16.27c.91.7 1.327 1.87 1.07 2.99a2.93 2.93 0 0 1-2.268 2.21 2.934 2.934 0 0 1-1.962-5.47"/><path fill="#080808" d="M1081.67 1489.17a5.66 5.66 0 0 1 5.85.71 5.7 5.7 0 0 1 2.05 5.54 5.69 5.69 0 0 1-3.98 4.35c-2.86.82-5.87-.69-6.9-3.48a5.66 5.66 0 0 1 2.98-7.12"/><path fill="#b48655" d="M1084.38 1491.57c1.18.11 2.14 1.02 2.3 2.19.17 1.18-.49 2.32-1.6 2.75-.98.39-2.11.13-2.82-.65-.72-.78-.88-1.92-.41-2.87a2.58 2.58 0 0 1 2.53-1.42"/><path fill="#080808" d="M958.678 1495.42a5.34 5.34 0 0 1 5.509-.65 5.36 5.36 0 0 1 3.12 4.59 5.34 5.34 0 0 1-2.626 4.88 5.333 5.333 0 0 1-7.139-1.6 5.34 5.34 0 0 1 1.136-7.22"/><path fill="#cf8652" d="M960.467 1499.13c2.722-1.27 4.928-1.25 1.635 1.51-2.018 1.12-3.14.43-1.635-1.51"/><path fill="#607281" d="m1099.21 1252.27 11.11-.46c9.18 50.41 23.32 103.09 58.39 141.91 5.92 6.56 13.17 12.77 18.52 19.71 7.46 9.66 13.04 21.05 20.71 30.62 5.17 6.74 14.16 13.67 16.98 20.46 4.55 10.97 5.8 25.53 6.13 37.27-14.92 3.3-33.91 4.18-49.07 4.13-25.6-1.57-47.74-6.56-68.91-21.79-61.65-44.38-84.82-147.63-43.1-212.47 6.81-10.59 17.13-17.2 29.24-19.38"/><path fill="#1c252f" d="M1137.84 1392.37c3.4-1.01 6.98.92 7.99 4.32 1.02 3.39-.92 6.97-4.31 7.99-3.4 1.01-6.98-.92-7.99-4.32-1.02-3.39.91-6.97 4.31-7.99m-2.83 65.23c3.22-.98 6.64.72 7.8 3.87a6.35 6.35 0 0 1-3.43 8.01c-2.16.93-4.65.59-6.48-.88a6.31 6.31 0 0 1-2.26-6.14 6.32 6.32 0 0 1 4.37-4.86m34.82-29.33a6.273 6.273 0 0 1 8.96 6.25 6.25 6.25 0 0 1-3.7 5.13c-3.13 1.39-6.8.01-8.24-3.1a6.276 6.276 0 0 1 2.98-8.28m-63.76 3.43a6.25 6.25 0 0 1 8.23 3c1.47 3.07.21 6.75-2.83 8.29a6.28 6.28 0 0 1-6.32-.41 6.25 6.25 0 0 1-2.73-5.71 6.25 6.25 0 0 1 3.65-5.17m-12.69-38.23c2.98-1.3 6.47-.08 7.99 2.79 1.52 2.88.56 6.45-2.2 8.18a6.24 6.24 0 0 1-6.48.07c-2-1.19-3.17-3.4-3.02-5.73a6.21 6.21 0 0 1 3.71-5.31m-14.44-67.85a6.2 6.2 0 0 1 7.32 4.82 6.214 6.214 0 0 1-4.81 7.34c-3.36.7-6.66-1.46-7.36-4.82-.69-3.37 1.48-6.66 4.85-7.34m86.72 138.05a6.05 6.05 0 0 1 6.31-.14 6.06 6.06 0 0 1 3.02 5.54 6.08 6.08 0 0 1-3.53 5.23 6.07 6.07 0 0 1-7.86-2.61c-1.53-2.8-.63-6.3 2.06-8.02m-92.23-99.15a6.08 6.08 0 0 1 6.2.37 6.08 6.08 0 0 1 2.6 5.63 6.04 6.04 0 0 1-3.72 4.97 6.05 6.05 0 0 1-7.79-3.05 6.06 6.06 0 0 1 2.71-7.92m12.03-77.8a5.96 5.96 0 0 1 5.99-.67c1.98.88 3.32 2.76 3.51 4.91s-.8 4.24-2.58 5.45a5.96 5.96 0 0 1-8.2-1.46 5.96 5.96 0 0 1 1.28-8.23m31.43 69.93a5.863 5.863 0 0 1 6.97 4.41c.72 3.14-1.21 6.27-4.34 7.02-2.05.5-4.21-.15-5.65-1.69a5.87 5.87 0 0 1-1.33-5.75 5.87 5.87 0 0 1 4.35-3.99m85.97 109.42a5.81 5.81 0 0 1 6.84 4.43c.68 3.1-1.24 6.17-4.33 6.9a5.8 5.8 0 0 1-5.6-1.7 5.82 5.82 0 0 1-1.27-5.72 5.83 5.83 0 0 1 4.36-3.91"/><path fill="#607281" d="M961.075 1248.34c30.73-.95 45.415 27.25 48.085 54.1 5.03 50.68-12.565 114.64-42.478 156.02-21.114 29.2-50.291 40.8-84.677 45.36-18.964 3.37-34.29 2.1-52.23-4.01 9.451-27.97 41.072-58.23 57.616-86.07 23.903-40.22 31.087-64.15 42.236-108.81 4.543-18.02 9.266-35.99 14.17-53.92 5.761-1.47 11.381-1.98 17.278-2.67"/><path fill="#1c252f" d="M979.213 1360.24a6.62 6.62 0 0 1 6.677.61 6.63 6.63 0 0 1 2.743 6.11 6.634 6.634 0 0 1-12.654 2 6.635 6.635 0 0 1 3.234-8.72m-13.19-81.47a6.59 6.59 0 0 1 6.689.56 6.6 6.6 0 0 1 2.739 6.13 6.6 6.6 0 0 1-4.048 5.35 6.6 6.6 0 0 1-8.527-3.41c-1.455-3.25-.061-7.07 3.147-8.63m-30.795 82.86a6.38 6.38 0 0 1 6.401-.32 6.365 6.365 0 0 1 .405 11.07 6.37 6.37 0 0 1-8.71-2.02 6.357 6.357 0 0 1 1.904-8.73m13.028 66.9a6.29 6.29 0 0 1 7.775 4.21 6.297 6.297 0 1 1-12.149.38 6.28 6.28 0 0 1 4.374-4.59m15.082-33.89a6.27 6.27 0 0 1 6.48.37 6.28 6.28 0 0 1 2.665 5.92 6.25 6.25 0 0 1-4.013 5.1 6.246 6.246 0 0 1-7.911-3.29 6.255 6.255 0 0 1 2.779-8.1m-49.839 64.97a6.207 6.207 0 0 1 7.68 4 6.204 6.204 0 0 1-3.811 7.78 6.22 6.22 0 0 1-6.17-1.19 6.2 6.2 0 0 1 2.301-10.59m-26.202-27.04a6.106 6.106 0 0 1 8.041 2.7 6.106 6.106 0 0 1-8.651 7.99 6.11 6.11 0 0 1-2.861-5.53 6.11 6.11 0 0 1 3.471-5.16m31.995-31.8a5.97 5.97 0 0 1 2.076 11.75 5.968 5.968 0 1 1-2.076-11.75m54.172-78.21a5.956 5.956 0 0 1 6.012 10.28 5.97 5.97 0 0 1-6.003.09 5.954 5.954 0 0 1-.009-10.37m-109.206 144.88a5.82 5.82 0 0 1 5.849.75 5.814 5.814 0 1 1-8.967 6.74 5.81 5.81 0 0 1 3.118-7.49"/><path fill="#607281" d="M919.691 1013.2c11.968-11.72 18.539-20.474 27.998-34.12 1.656-2.389 4.493-5.4 7.372-5.01 19.728 2.673 37.972 17.759 59.329 20.6 36.71 4.882 55.69-14.76 90.72-18.832l12.53 18.06c.63.488.54.502 1 1.173l3.02 3.806c1.09.807 1.02.871 1.77 2.043l5.73 5.73c1.21.76 1.21.62 1.91 1.71 2.62 2.15 2.59 1.62 4 4.43-2.65 1.18-197.571.43-215.379.41m94.369-119.083c10.31-.112 20.63-.039 30.94.218 4.67 12.258 7.65 19.543 14.65 30.543.6.489.51.484.95 1.203 8.71 10.754 17.09 15.301 27.09 24.627-22.37 4.126-55.04 23.561-73.03 19.221-15.875-3.831-28.311-13.25-49.761-16.419 3.505-3.332 15.751-16.087 19.187-13.337 2.846 2.278 7.25 6.893 12.388-.973-.295-8.439-7.689-6.148-.145-13.099 9.131-8.409 13.471-20.569 17.731-31.984"/><path fill="#080808" d="M1039.04 939.184c4.35-1.534 9.11.772 10.61 5.135a8.29 8.29 0 0 1-5.23 10.565c-4.32 1.438-8.99-.876-10.47-5.184a8.29 8.29 0 0 1 5.09-10.516"/><path fill="#e69760" d="M1040 942.217c2.75-.887 5.7.564 6.68 3.28a5.35 5.35 0 0 1-8.45 5.926 5.347 5.347 0 0 1 1.77-9.206"/><path fill="#080808" d="M1009.9 944.407a7.92 7.92 0 0 1 7.65 2.645 7.911 7.911 0 0 1-5.06 12.951 7.904 7.904 0 0 1-8.79-6.555 7.903 7.903 0 0 1 6.2-9.041"/><path fill="#e69760" d="M1010.17 947.348a5.037 5.037 0 0 1 6.08 3.756 5.035 5.035 0 0 1-3.78 6.06 5.036 5.036 0 0 1-6.03-3.767c-.64-2.701 1.04-5.405 3.73-6.049"/><path fill="#607281" d="M886.842 1016.19c62.805-1.89 133.838.29 197.468.34l58.65.01c5.86-.01 21.82-.65 26.74.35 2.78 2.33 2.01.88 2.41 4.46-1.74 3.12-.49 2.32-3.36 3.16-23.08-1.08-52.07-.32-75.48-.32l-131.438-.03c-15.487.05-30.973.21-46.458.46-8.25.12-26.493 2.43-31.693-3.55.533-3.65-.197-1.93 3.161-4.88m311.958 119.43c-15.06-5.18-32.7-17.5-27.4-36.01a24.2 24.2 0 0 1 11.6-14.68c5.8-3.23 12.67-3.93 19-1.94 8.73 2.65 13.38 9.2 17.38 16.86.97 5.53 1 7.65.08 13.17-4.56 12.21-8.99 17.16-20.66 22.6"/><path fill="#404b56" d="M1219.38 1099.85c.97 5.53 1 7.65.08 13.17-.19-4.22-.22-8.94-.08-13.17"/><path fill="#607281" d="M1139.71 1081.01c2.04.23 3.18-.07 3.13 2.45-.38 17.28 4.95 29.6 15.45 42.79-16.37 1.7-21.66 2.32-36.04 11.18-6.33 4.9-6.26 5.24-11.37 11.36.89-17.31 1.9-39.68 5.5-56.37 7.8-5.21 14.34-8.36 23.33-11.41"/><path fill="#e69760" d="M1083.54 954.104c2.59-.206 2.85-.138 5.45.025 4.27 2.156 6.14 5.469 9.1 9.356-20.81 1.03-32.03 8.8-51.1 15.892-27.29 10.148-47.183-1.951-71.333-13.421-5.213-2.38-13.682-3.653-16.184-5.266l.598-2.145c12.799-8.597 45.179 16.222 61.079 15.229 22-1.374 39.21-13.794 62.39-19.67"/><path fill="#e69760" d="M958.358 964.199c11.932 1.347 26.939 9.124 37.629 14.164 34.253 16.148 50.583 4.138 82.293-8.175 5.86-2.274 14.94-5.502 20.98-2.734 1.89 2.172 3.05 3.059 3.58 5.887l-1.71.234c-28.76 1.96-53.17 24.062-87.75 17.862-23.278-4.172-34.785-15.293-56.074-20.162-2.715-.621-1.076.619-4.169-1.26 1.093-2.844 2.85-3.859 5.221-5.816"/><path fill="#607281" d="M888.104 1336.08c13.164-.75 19.34 3.66 26.283 14.51-5.536 16.15-10.812 27.56-18.364 42.89-.397.68-1.784 3.62-2.489 3.84l-.163-.14c-.459-1.38 1.359-16.91-.174-22.18-1.892-6.51-.917-12.8-5.544-19.72-4.105-6.14-6.215-3.59-10.315-5.78-1.345-5.64 6.96-11.03 10.766-13.42"/><path fill="#fcfbfb" d="M1155.95 1034.01c1.11 1.06 1.08 1.23.3 2.57-6.53 11.3-11.09 24.52-13.15 37.43-.17 1.06-.15 2.52-.33 3.72-9.98 2.98-15.28 5.23-24.43 10.23-2.35-2.41 3.74-21.7 5.06-24.66 6.74-15.19 18.72-21.9 32.55-29.29"/><path fill="#e69760" d="M1031 1183.37c7.48 3.17 7.26 7.47 3.62 13.53-8.8-2.26-8.5-6.57-3.62-13.53m-42.012-249.889a3.686 3.686 0 1 1 2.043 7.084 3.686 3.686 0 0 1-2.043-7.084"/><path fill="#080808" d="M1087.69 1766.67c26.98-.2 54.84-.6 81.78-.24-.21 7.13-.8 29.89-3.21 35.71-7.19 56.6-27.68 101.79-75.63 134.26 16.58 2.06 88.1-4.03 96.09 3.84.68 3.31.76 1.65-.79 5.11-2.61 2.22-4.67 1.97-8.13 2.26-15.56.67-48.57 23.99-61.09 34.12-57.66 1.47-123.088.61-180.949.24a202 202 0 0 0-44.758-27.33c-10.597 5.24-29.119 14.13-41.431 7.02-3.175-2.31-5.522-6.52-9.604-7.2-3.687-.62-4.343-.44-5.718-3.36 1.883-8.59 11.881-9.38 16.438-15.29 20.703-26.86 15.095-40.35 51.7-50.81-9.644-2.57-19.192-3.78-28.754-7.14-19.432-6.03-45.043-23.35-44.939-46.49.186-41.06 39.94-58.94 70.355-31.14-1.918-10.04-3.842-23.78-4.419-33.79 62.229 1.61 130.539.62 193.059.23"/><path fill="#607281" d="M1087.69 1766.67c26.98-.2 54.84-.6 81.78-.24-.21 7.13-.8 29.89-3.21 35.71-2.97 2.84-1.87 3.98-3.83 7.4l-1.43-.45c-.76 1.57-1.53 2.8-2.25 4.32 1.07 2.91 1.09 5.95 1.49 9.02-3.86 17.89-9.99 39.47-20.05 54.9-62.91 18.75-76.24-32.96-130.76-38.4-41.858-4.18-61.684 22.9-94.196 22.09-7.308-29.23-14.628-61.7-18.075-91.51l32.954.14c.545-2.46 11.589-1.62 14.651-1.62l98.316.05c9.25.06 38.67 3.59 44.61-1.41"/><path fill="#1c252f" d="M1087.69 1766.67c26.98-.2 54.84-.6 81.78-.24-.21 7.13-.8 29.89-3.21 35.71-2.97 2.84-1.87 3.98-3.83 7.4l-1.43-.45c-.76 1.57-1.53 2.8-2.25 4.32-7.67 8.46-15.83 14.07-27.26 16.51-16.22 3.35-33.1.07-46.88-9.11-10.68-7.12-15.39-15.27-18.02-27.6-1.9-4.53-2.46-17.93-2.85-23.52-33.39 1.02-67.387-.31-100.839.23-10.741.17-22.085.14-32.788-.27.545-2.46 11.589-1.62 14.651-1.62l98.316.05c9.25.06 38.67 3.59 44.61-1.41"/><path fill="#080808" d="M1066.59 1793.21c3.19 2.32.73 2.01 5.29 3.91 1.14 2.78 1.09 2.9 1.5 6.01 3.4 8.89 13.03 16.3 21.35 20.17 19.99 9.28 45.25 5.91 60.45-10.61 2.09-2.27 4.74-9.7 7.32-9.68 1.07.08-1.25 5.42-1.5 6.08-.76 1.57-1.53 2.8-2.25 4.32-7.67 8.46-15.83 14.07-27.26 16.51-16.22 3.35-33.1.07-46.88-9.11-10.68-7.12-15.39-15.27-18.02-27.6"/><path fill="#e69760" d="m1071.88 1797.12.69-1.04c4.11-6.31 9.56-5.85 11.02 1.52.9 4.49-7.97 4.99-10.21 5.53-.41-3.11-.36-3.23-1.5-6.01m63.63 6.79c2.79-.86 5.76.67 6.67 3.45.91 2.77-.57 5.77-3.33 6.72-1.83.64-3.86.24-5.31-1.04a5.35 5.35 0 0 1-1.68-5.14c.4-1.9 1.8-3.42 3.65-3.99"/><path fill="#cf8652" d="M1157.66 1772.48a4.93 4.93 0 0 1 4.97-.48c1.63.75 2.72 2.32 2.86 4.1a4.953 4.953 0 0 1-9 3.24 4.955 4.955 0 0 1 1.17-6.86"/><path fill="#e69760" d="M1150.05 1789.62a4.91 4.91 0 0 1 4.93-.73c1.65.67 2.8 2.19 3.01 3.97.2 1.77-.58 3.52-2.03 4.55a4.895 4.895 0 0 1-6.72-1.04c-1.6-2.1-1.24-5.08.81-6.75"/><path fill="#1c252f" d="M1130.73 1847.5a6.26 6.26 0 0 1 6.49.13 6.29 6.29 0 0 1 2.91 5.8 6.3 6.3 0 0 1-3.79 5.28c-3.06 1.3-6.6 0-8.09-2.97a6.275 6.275 0 0 1 2.48-8.24m-119.13-35.92a6.12 6.12 0 0 1 7.95 3.24 6.12 6.12 0 0 1-3.1 8.01 6.126 6.126 0 1 1-4.85-11.25m-83.025 4.02c9.59 3.08 9.096 8.7 2.051 15.05-7.398-4.85-8.72-8.66-2.051-15.05m42.974-3.96a6.007 6.007 0 1 1 4.665 11.07 6.007 6.007 0 0 1-4.665-11.07m137.621 43.93c3.17-.53 6.2 1.55 6.83 4.71a5.95 5.95 0 0 1-4.49 6.98c-2.12.49-4.34-.2-5.79-1.82a5.96 5.96 0 0 1-1.19-5.95 5.99 5.99 0 0 1 4.64-3.92m-53.7-36.84c3.21-.55 6.27 1.6 6.85 4.81a5.94 5.94 0 0 1-4.75 6.88c-3.24.62-6.36-1.53-6.95-4.78a5.954 5.954 0 0 1 4.85-6.91m28.5 18.87c1.93-.85 4.17-.6 5.87.67a5.82 5.82 0 0 1 2.29 5.44 5.83 5.83 0 0 1-3.63 4.66 5.84 5.84 0 0 1-7.55-3.16c-1.24-2.93.1-6.31 3.02-7.61m-85.837-59.08a5.7 5.7 0 0 1 7.117 3.79 5.71 5.71 0 0 1-3.79 7.13 5.71 5.71 0 0 1-7.125-3.8c-.921-3.01.78-6.2 3.798-7.12m-40.648 4.26a5.58 5.58 0 0 1 6.777 3.92c.81 2.94-.886 5.99-3.81 6.84a5.58 5.58 0 0 1-5.472-1.36 5.57 5.57 0 0 1-1.498-5.43 5.58 5.58 0 0 1 4.003-3.97m79.535 6.6c2.91-.93 6.03.66 6.99 3.56.95 2.91-.62 6.04-3.52 7.01-2.92.98-6.09-.6-7.05-3.54-.96-2.93.65-6.08 3.58-7.03"/><path fill="#607281" d="M1084.52 1937.38c-3.18.87-5.25.88-8.49 1.1l.47.55c5.74.38 9.67 1.55 14.13-2.63 16.58 2.06 88.1-4.03 96.09 3.84.68 3.31.76 1.65-.79 5.11-2.61 2.22-4.67 1.97-8.13 2.26-5.61-1.27-9.09-3.68-14.04.11l-3.55.29-.62 3.21c-9.12 3.86-42.8 27.49-45.04 28.07-8.33 1.41-40.38 1.18-50.6.9-19.99-.54-44.96.74-64.472-.31-20.793.54-42.074-.22-62.903-.71-9.244-7.5-16.924-13.38-27.9-18.5-2.938-1.37-11.182-5.38-12.502-8.14 3.668-3.11 35.1-4.07 42.676-4.65l1.44-.93c.62-2.38.659-3.1.874-5.58l4.007-2.91c3.124-1.55 1.669-1.52 4.608-1.25l-.595 1.16c7.513 1.04 11.744.9 19.391.77l-6.632-.97c3.471-.57 20.441.3 25.081.38 12.012.22 21.037-.31 33.007-1.49 10.21-.65 55.17-.64 64.49.32"/><path fill="url(#b)" d="M1084.52 1937.38c-3.18.87-5.25.88-8.49 1.1l.47.55c5.74.38 9.67 1.55 14.13-2.63 16.58 2.06 88.1-4.03 96.09 3.84.68 3.31.76 1.65-.79 5.11-2.61 2.22-4.67 1.97-8.13 2.26-5.61-1.27-9.09-3.68-14.04.11l-3.55.29c-73.22-.94-147.91.13-221.361-.13l1.44-.93c.62-2.38.659-3.1.874-5.58l4.007-2.91c3.124-1.55 1.669-1.52 4.608-1.25l-.595 1.16c7.513 1.04 11.744.9 19.391.77l-6.632-.97c3.471-.57 20.441.3 25.081.38 12.012.22 21.037-.31 33.007-1.49 10.21-.65 55.17-.64 64.49.32"/><path fill="#505e6a" d="M999.478 1979.88c14.932-2.26 49.222-.46 65.572-.68 11.93-.16 38.67-.87 49.5.09-8.33 1.41-40.38 1.18-50.6.9-19.99-.54-44.96.74-64.472-.31"/><path fill="#607281" d="M923.775 1888.3c33.046-2.2 48.048-23.53 80.255-21.88 23.51 1.2 34.23 14.77 53.64 25.38 20.56 11.24 43.21 13.04 66.21 11.22-8.54 10.52-27.39 28.4-39.36 34.36-9.32-.96-54.28-.97-64.49-.32-13.22-.18-50.55 2.01-61.117-5.04-3.245-2.16-2.252-9.58-2.101-13.73-5.592-9.68-6.425-9.88-17.564-9.68-3.017-2.08-11.878-15.85-15.473-20.31"/><path fill="#080808" d="M989.485 1878.53c4.415-1.39 9.122 1.06 10.507 5.48 1.388 4.42-1.079 9.12-5.498 10.5a8.373 8.373 0 0 1-5.009-15.98"/><path fill="#fdcb97" d="M990.711 1881.48a5.207 5.207 0 0 1 6.382 3.66 5.22 5.22 0 0 1-3.637 6.4 5.22 5.22 0 0 1-6.424-3.66c-.76-2.78.89-5.66 3.679-6.4"/><path fill="#080808" d="M957.6 1894.5a8.075 8.075 0 0 1 11.627 7.91 8.09 8.09 0 0 1-4.683 6.67c-4.01 1.83-8.754.11-10.651-3.87s-.247-8.75 3.707-10.71"/><path fill="#e69760" d="M958.952 1897.53a4.88 4.88 0 0 1 5.115.42 4.875 4.875 0 0 1-1.544 8.59 4.868 4.868 0 0 1-3.571-9.01"/><path fill="#080808" d="M1020.75 1877.05c10.15 2.35 15.82 10.26 5.42 15.84l-1.39.83c-9.48-3.45-15.06-10.56-4.03-16.67"/><path fill="#e69760" d="M1021.5 1879.77c1.27.33 3.31.77 4.44 1.33 1.22.59 2.13 1.68 2.5 2.99.71 2.64-1.31 5.53-2.56 7.73-5.89-3.28-11.44-6.73-4.38-12.05"/><path fill="#080808" d="M1045.15 1898.01c9.85-.91 17.87 4.73 10.4 13.4-11.24 1.43-17.15-2.03-10.4-13.4"/><path fill="#e69760" d="M1048.07 1900.26c2.39-.97 5.14.03 6.33 2.32 1.2 2.29.46 5.12-1.71 6.52a5 5 0 0 1-5.28.11 5 5 0 0 1-2.44-4.68 5.02 5.02 0 0 1 3.1-4.27"/><path fill="#dd3534" d="M941.163 1941.37c-14.519 7.16-26.913 4.35-41.951 7.31-13.624 2.68-42.136 24.26-53.799 5.89l.986-1.5c8.023-3.89 17.649-3.9 24.639-7.02 19.987-8.93 40.115-18.67 59.259-29.29 7.024-3.9 13.999-8.5 21.345-2.47 5.19 9.01-.283 17.57-6.472 24.17z"/><path fill="#505e6a" d="m1161 1809.09 1.43.45c-.88 4.49-1.36 8.57-2.19 12.89-.4-3.07-.42-6.11-1.49-9.02.72-1.52 1.49-2.75 2.25-4.32m2.76 138.63c-1.19 2.37-1.75 2.29-4.17 3.5l.62-3.21z"/><path fill="#607281" d="M858.227 1852.53c18.106 13.45 54.571 12.57 62.942 35.46 1.134 3.1-6.651.09-7.651-.19l-1.547-.46c-5.994-1.71-12.306-5.93-16.302-6.81-26.289-5.82-51.732-13.06-62.535-41.05-10.344-30.26 21.205-61.25 52.597-46.12 12.269 5.92 19.355 19.77 18.737 37.05-.052 1.45-4.982 1.24-6.372-3.91-3.49-12.91-12.579-21.83-26.6-22.41a23.63 23.63 0 0 0-17.001 6.4c-13.559 12.73-9.194 29.16 2.571 41.09.722.39.602.32 1.161.95"/><path fill="#dd3534" d="M897.838 1889.18c20.029-1.1 28.926 4.39 37.479 21.36-15.261 9.28-48.422 26.41-65.765 32.52-7.683 2.44-15.426 4.53-23.037 7.13-1.113.62-7.503 1.71-8.584.87-2.911-2.29 12.316-10.97 14.102-12.94 17.763-19.56 16.201-40.93 45.805-48.94"/><path fill="#fcfbfb" d="M865.278 1807.18c21.582-1.18 24.281 7.86 32.597 24.87 2.21 4.52 8.062-4.96 9.886 10.47.776 6.55 6.87 25.4 8.897 32.84l-12.259-6.76c-6.361-3.1-10.114-4.47-16.974-6.27l-1.912-.49c-13.617-3.57-28.815-8.95-34.653-22.84-6.351-15.1 1.281-25.61 14.418-31.82"/><path fill="#e69760" d="M999.546 1841.46c56.344.77 64.104 42.34 118.304 42.54 6.47.03 12.6-1.85 19.07-2.67l.83 1.18-.57 2.61c-6.74 7.2-31.79 5.13-41.23 3.81-16.68-2.35-29.76-9.43-43.3-18.95-6.67-5.26-13.04-10.34-20.9-13.73-45.519-19.67-91.667 24.27-111.486 18.13-2.5-2.58-3.184-6.54-4.21-10.13 22.29-.92 34.336-10.74 54.991-17.7 10.781-3.64 17.228-4.3 28.501-5.09"/><path fill="#e69760" d="M1000.42 1854.41c45.96-1.34 46.5 26.76 87.78 35.66 10.02 2.16 15.66 2.98 25.96 3.11 4.47.06 15.98-2.26 17.72-1.27l-.08 2.73c-5.46 8.57-27.02 6.51-36 5.71-16.8-1.49-30.72-6.84-45.01-15.49-25.49-17.51-38.82-27.52-70.788-18.42-15.467 4.4-39.012 19.56-53.934 18.69-2.712-1.07-3.922-3.93-5.586-6.57 31.214-6.42 52.381-22.41 79.938-24.15"/><path fill="#adafb0" d="M955.158 1930.83c2.611 2.59 5.909 3.93 3.461 6.72-7.817-1.23-8.14.23-3.461-6.72"/><path fill="#080808" d="m683.871 1022.55 1.256.35c2.616.77 5.238 1.52 7.85 2.3l-1.298 2.34c5.845 15.53 9.619 34.82-2.68 48.63l-1.494-.09c-.855-.07-1.537-.19-2.317.17l-.113.28c.342.45 1.69.76 2.286 1.01-.224 3.76-9.11 3.14-11.066 6.46l-.134.01.001.12c.298.25 1.012.4 1.438.53-6.835 4.43-14.28 7.74-22.475 5.44-2.972.66-3.433.78-5.041 3.86-13.536 25.91-3.765 57.86-3.947 85.6.354 15.04-2.729 30.77-2.562 45.72.149 13.36 4.476 28.74 3.984 41.87-1.192 30.25-8.226 57.53-1.554 87.94 1.044 4.75 2.103 20.86 1.733 25.91-2.324 31.67-7.152 59.55-2.783 91.56 1.148 8.41-4.589 26.4-3.771 35.86.344 14.05 2.794 27.63 3.765 41.7.91 13.19-4.382 29.21-3.703 41.51 1.383 25.04 3.129 48.28 3 73.47q-.398 39.36.164 78.72c.103 4.78-.014 19.19 1.176 22.88 13.397-.99 31.772-.49 45.476-.49l78.315.02c-.038 4.17.132 20.87-1.128 23.43-1.931 40.68-23.746 105.33-55.226 131.21-6.414 5.28-12.246 10.13-18.976 15.1-1.474 2.76-.418 1.69-3.512 3.07-3.453-.2-3.67-.01-6.848-1.61-4.862-1.56-107.816-1.97-113.999-.67l-2.339 1.21a50 50 0 0 1-4.207-2.08c-13.263-6.61-27.159-30.48-33.687-43.2-4.986 10.62-18.062 28.95-31.802 10.45-4.909-6.61-.171-13.18 7.678-16.42-1.524-2.24-23.225-7.69-29.275-9.37-46.063-12.8-64.117-76.64-8.451-90.14 11.811-2.86 25.595 4.55 35.81 12.52-1.926-10.12-3.213-23.08-4.529-33.49 41.715.38 84.308-.11 126.086-.18.008-14.92 3.202-29.99 3.863-44.96.668-15.11-2.556-30.24-2.369-45.38.161-13.09 3.329-26.07 3.434-39.16.106-13.08-2.621-26.11-2.512-39.17.1-12.02 2.742-24.07 2.257-36.09-.689-17.11-3.571-33.88-3.246-51.06.292-15.39 3.998-30.53 4.044-45.95.13-43.67 1.377-88.16-.719-131.75-.816-16.97-6.324-33.48-6.224-50.59.088-14.97 5.337-29.04 6.311-43.84.923-14.05-1.507-28.47-1.152-42.61.476-18.95 3.606-37.79 4.488-56.73.728-15.64-4.394-33.15-.051-48.31 7.84-27.37 44.873-30.66 50.931-46.07.122-.31.235-.62.353-.93-.341-3.85-.076-14.62-.509-20.91"/><path fill="#607281" d="M645.586 1766.7c13.397-.99 31.772-.49 45.476-.49l78.315.02c-.038 4.17.132 20.87-1.128 23.43l-2.436 1.07-.739 2.37c-3.409 29.01-9.732 56.91-22.985 83.17-77.812 18.5-71.618-28.66-134.194-34.81-34.402-3.38-50.852 18.18-87.991 20.34-7.966-23.4-16.108-68.26-17.127-92.86 51.77-.54 104.8-.25 156.608.02-.129 7.33.317 12.97.897 20.3 1.502-7.86.657-12.36 1.501-19.59l7.267-1.91c-3.371-.99-17.846-.19-23.464-1.06"/><path fill="#1c252f" d="M645.586 1766.7c13.397-.99 31.772-.49 45.476-.49l78.315.02c-.038 4.17.132 20.87-1.128 23.43l-2.436 1.07-.739 2.37c-2.091 2.95-5.307 8.91-7.192 12.29-23.174 41.51-89.416 33.4-97.6-16.13 1.502-7.86.657-12.36 1.501-19.59l7.267-1.91c-3.371-.99-17.846-.19-23.464-1.06"/><path fill="#cf8652" d="M752.513 1773.79c10.967.26 10.847 3.75 5.082 12.31l-.691-.35c-6.829-3.42-9.257-5.96-4.391-11.96"/><path fill="#e69760" d="M673.444 1792.42c7.796 2.27 8.984 5.63 2.655 10.84l-1.497 1.28c-10.031-2.15-7.023-7.22-1.158-12.12"/><path fill="#cf8652" d="M728.507 1812.22a5.28 5.28 0 0 1 5.346 1.27 5.3 5.3 0 0 1-2.738 8.99 5.306 5.306 0 0 1-6.127-3.9 5.307 5.307 0 0 1 3.519-6.36"/><path fill="#e69760" d="M743.058 1793.82a5.13 5.13 0 0 1 5.219-.47 5.128 5.128 0 0 1 .457 9 5.126 5.126 0 0 1-5.676-8.53"/><path fill="#1c252f" d="M638.222 1777.48a6.25 6.25 0 0 1 6.16 1.51 6.24 6.24 0 0 1 1.675 6.11 6.24 6.24 0 0 1-4.534 4.43 6.245 6.245 0 0 1-7.523-4.41 6.255 6.255 0 0 1 4.222-7.64m7.751 43.86a6.21 6.21 0 0 1 6.237.26 6.2 6.2 0 0 1 2.845 5.56 6.19 6.19 0 0 1-3.436 5.21 6.195 6.195 0 0 1-8.266-2.72 6.207 6.207 0 0 1 2.62-8.31m-66.082-36.66a6.16 6.16 0 0 1 6.312-.22 6.164 6.164 0 0 1-.096 10.85c-2.919 1.55-6.535.51-8.201-2.34a6.16 6.16 0 0 1 1.985-8.29m-18.625 31.13a6.154 6.154 0 0 1 7.904 3.11 6.163 6.163 0 0 1-9.043 7.7 6.17 6.17 0 0 1-2.673-5.75 6.15 6.15 0 0 1 3.812-5.06m166.387 30a5.992 5.992 0 0 1 8.287 6.62 5.993 5.993 0 0 1-11.512.95c-1.1-2.98.314-6.3 3.225-7.57m-183.338-63.13a5.95 5.95 0 0 1 8.021 2.11 5.95 5.95 0 0 1-1.894 8.08 5.96 5.96 0 0 1-6.035.22 5.97 5.97 0 0 1-3.112-5.18 5.96 5.96 0 0 1 3.02-5.23m73.752 13.95a5.932 5.932 0 0 1 7.19 7.46 5.93 5.93 0 0 1-4.426 4.07 5.925 5.925 0 0 1-7.014-4.42 5.924 5.924 0 0 1 4.25-7.11m-90.896 18.91a5.916 5.916 0 0 1 7.406 3.49 5.91 5.91 0 0 1-3.166 7.54 5.91 5.91 0 0 1-8.184-6.43 5.91 5.91 0 0 1 3.944-4.6m69.743 4a5.81 5.81 0 0 1 7.832 1.97 5.807 5.807 0 0 1-1.699 7.89 5.81 5.81 0 0 1-5.915.33 5.81 5.81 0 0 1-3.129-5.03 5.8 5.8 0 0 1 2.911-5.16m85.785 24.84a5.697 5.697 0 0 1 7.22 2.95 5.71 5.71 0 0 1-2.498 7.4 5.71 5.71 0 0 1-5.896-.32 5.71 5.71 0 0 1-2.451-5.37 5.68 5.68 0 0 1 3.625-4.66m22.521 15.24a5.664 5.664 0 0 1 7.402 6.53 5.66 5.66 0 0 1-3.85 4.22 5.662 5.662 0 0 1-3.552-10.75"/><path fill="#607281" d="M531.044 1890c24.9-3.37 47.419-20.5 72.413-19.96 46.828 1.02 48.502 42.65 123.457 31.95-11.424 14.12-26.417 28.06-43.227 35.44-4.862-1.56-107.816-1.97-113.999-.67-18.942-12.05-28.572-26.47-38.644-46.76"/><path fill="#080808" d="M592.427 1882.69a8.278 8.278 0 0 1 11.184 9.08 8.29 8.29 0 0 1-5.335 6.41c-4.26 1.55-8.972-.62-10.573-4.86a8.273 8.273 0 0 1 4.724-10.63"/><path fill="#fdcb97" d="M593.342 1885.66a5.244 5.244 0 0 1 6.638 2.91 5.254 5.254 0 0 1-2.6 6.77 5.27 5.27 0 0 1-5.365-.53 5.245 5.245 0 0 1 1.327-9.15"/><path fill="#080808" d="M654.209 1906.64a8.28 8.28 0 0 1 8.314.54 8.29 8.29 0 0 1 3.631 7.5 8.28 8.28 0 0 1-15.705 2.98c-1.976-4.09-.3-9 3.76-11.02"/><path fill="#e69760" d="M654.585 1909.45a5.42 5.42 0 0 1 5.541-.45 5.419 5.419 0 0 1 .311 9.54 5.41 5.41 0 0 1-7.263-1.76 5.4 5.4 0 0 1 1.411-7.33"/><path fill="#080808" d="M561.434 1892.79a8.25 8.25 0 0 1 8.255 1.04 8.25 8.25 0 0 1 3.152 7.7 8.25 8.25 0 0 1-5.157 6.53 8.251 8.251 0 0 1-6.25-15.27"/><path fill="#e69760" d="M561.934 1895.65a5.43 5.43 0 0 1 5.517-.15 5.43 5.43 0 0 1 2.807 4.75 5.43 5.43 0 0 1-2.795 4.76 5.44 5.44 0 0 1-7.325-1.99 5.434 5.434 0 0 1 1.796-7.37"/><path fill="#080808" d="M623.975 1888.98a8.08 8.08 0 0 1 8.247.69 8.09 8.09 0 0 1 3.301 7.59 8.07 8.07 0 0 1-5.116 6.51c-4.033 1.55-8.569-.36-10.292-4.32a8.07 8.07 0 0 1 3.86-10.47"/><path fill="#e69760" d="M625.352 1891.74a5.153 5.153 0 0 1 6.913 2.14 5.163 5.163 0 0 1-2.031 6.95 5.14 5.14 0 0 1-5.209-.11 5.15 5.15 0 0 1-2.464-4.58 5.15 5.15 0 0 1 2.791-4.4"/><path fill="#1c252f" d="m683.871 1022.55 1.256.35c2.616.77 5.238 1.52 7.85 2.3l-1.298 2.34c5.845 15.53 9.619 34.82-2.68 48.63l-1.494-.09c-.855-.07-1.537-.19-2.317.17l-.113.28c.342.45 1.69.76 2.286 1.01-.224 3.76-9.11 3.14-11.066 6.46l-.134.01.001.12c.298.25 1.012.4 1.438.53-6.835 4.43-14.28 7.74-22.475 5.44 2.397-1.86 1.436-1.45 2.157-4.47-.649-1.39 4.589-4.15 4.207-4.14-2.532.06 6.818-8.26 4.944-7.65.374.2.748.41 1.122.61.064-.04 4.042-5.53 3.966-5.24-.238-.26-.477-.52-.715-.77.89-2.08 4.05-2.07 5.042-3.98-.204-.49-.71-.58-.997-1.01.861-.79 4.878-4.82 5.62-5.72-.073-.8-.031-.47-.631-1.29.037-1.5 10.263-6.41 4.54-12.98-.341-3.85-.076-14.62-.509-20.91"/><path fill="#607281" d="M677.997 1055.03c-14.289 17.86-34.931 35.76-37.077 59.52-1.907 21.1 1.824 42.54 2.519 63.68.497 15.13-2.256 29.55-2.636 44.58.738 14.59 3.431 28.87 4.004 43.5.655 16.71-3.669 33-4.458 49.52-.748 15.68 2.215 32.63 4.028 48.38.569 1.21.419 1.23.34 2.74.306 10.53.53 19.4-.335 29.97-.838 10.25-2.921 21.54-3.531 31.57.217 6.19.225 12.38.022 18.56 1.6 23.28-.265 40.61-2.146 63.53.393 15.06 3.539 28.97 3.526 44.11-.011 11.68-4.249 26.93-3.512 37.85 2.638 39.02 3.245 77.54 2.802 116.66-.215 18.92.874 37.84.445 56.76l-14.153.09c.879-12.9 2.72-27.37 3.327-39.76-.162-6.53-.256-14.01-.015-20.52-.873-24.68-2.028-43.52 1.391-68.44 1.425-10.38-2.771-28.48-1.69-40.08 1.057-11.33 1.207-23.43 1.941-34.83-.781-18.27-3.925-33.81-3.558-52.66.248-12.76 3.792-27.84 3.926-39.2.257-21.84.136-44.65-.022-66.53-.78-24.31 1.008-50.66-.654-74.79-1.995-21.62-9.485-45.27-3.746-66.92 6.018-22.71 3.192-43.55 2.686-66.78-.359-16.42 5.216-42.86 4.328-57.79-2.942-49.49-5.242-59.99 42.248-82.72"/><path fill="#505e6a" d="M640.873 1447.05c-1.461-6.98-1.55-11.63-.022-18.56.217 6.19.225 12.38.022 18.56"/><path fill="#404b56" d="M631.147 1705.77c1.06 6.78 1.329 13.76.015 20.52-.162-6.53-.256-14.01-.015-20.52m13.23-341.56c.569 1.21.419 1.23.34 2.74-.576-1.3-.482-1.29-.34-2.74"/><path fill="#607281" d="M457.427 1846.94c14.444 16.36 37.865 16.15 55.853 26.58 7.749 4.65 16.129 11.46 12.204 21.42-5.019 12.74-22.297 20.18-27.485 3.1 1.566-6.94 5.797-6.01 12.633-10.35l-.158-1.56c-4.614-4.05-12.187-5.59-18.114-7.06-19.896-4.93-42.92-13.52-52.099-33.73-15.159-33.37 13.921-66.97 49.707-51.84.802.21.672.19 1.353.75 11.979 6.55 11.952 12.22 16.691 24.83 1.532 4.08 2.084 7.61.061 11.46l-1.568.28c-9.236-7.69-4.905-21.89-29.159-26.44-2.069.42-1.943.42-4.059.08l-8.155 2.15c-.596.86-.68.71-1.914.98-8.027 5.9-9.879 8.5-12.764 18.19.378 2.74.365 2.67-.034 5.47 1.354 5 1.837 7.12 4.16 11.69.879.55 1.314 1.64 1.864 2.47.616.82.616.73.983 1.53"/><path fill="#404b56" d="M473.287 1804.46c1.86-.61 2.048-.47 4.059-.08-2.069.42-1.943.42-4.059.08m-22.833 21.32c.378 2.74.365 2.67-.034 5.47-.572-2.49-.384-2.83.034-5.47"/><path fill="#fcfbfb" d="M469.996 1807.2c11.76-.49 19.627 1.24 26.257 12.21 2.292 3.79 4.938 13.91 10.256 13.61 4.887-.27 4.23 4.74 5.309 9.49l.929 4.01c2.182 9.66 5.773 19.3 8.643 28.95-3.999-2.52-6.504-4.26-10.748-6.56-10.32-4.25-22.494-8.25-33.269-11.48-24.815-7.44-35.971-39.33-7.377-50.23"/><path fill="#e69760" d="M600.641 1855.38c52.035-3.68 49.216 48.84 134.601 33.51-2.376 3.47-4.534 6.13-7.18 9.41-27.171 5.34-46.437 3.33-70.643-9.22-33.57-21.27-49.889-31.01-89.734-13.4-12.869 5.69-23.254 9.41-37.12 11.95l-4.828-9.54c30.389-5.86 48.379-19.8 74.904-22.71"/><path fill="#e69760" d="M594.747 1844.39c49.961-5.26 59.304 29.62 103.932 38.14 17.559 3.35 27.147-2.27 40.651-3.12.917 2.44.741 1.16-.085 3.92-5.911 6.06-22.185 5.47-30.305 5.82-17.472.76-32.208-4.14-47.514-12.03-16.584-11.09-28.851-22.12-49.345-24.6-32.676-3.97-55.514 20.05-87.824 22.67l-4.15-10.78c33.462-.95 44.562-17.04 74.64-20.02"/><path fill="#607281" d="M184.264 1766.47c64.158-.15 129.34-.91 193.422-.17-.124 36.76-5.591 78.51-23.907 111.04-9.104 16.74-19.486 32.45-33.714 45.37-3.298 2.99-14.627 11.21-16.556 13.71l7.487.49c-1.871 1.45-4.424 3.14-6.858 3.16-24.8.26-49.698-.59-74.507-.37-15.937.15-31.774.47-47.697.24-5.237-.08-6.525-.31-10.134-4.16-15.927-13.52-24.471-24.86-33.331-43.27-2.162 5.52-3.99 10.66-8.821 14.55-6.594 5.31-17.098 4.76-21.728-2.97a11.54 11.54 0 0 1-1.076-9.34c1.807-5.58 6.037-6.87 11.04-9.27-28.05-5.95-67.246-15.9-74.393-48.72a41.56 41.56 0 0 1 6.374-32.42 39.9 39.9 0 0 1 26.138-17c15.233-2.7 24.817 2.92 36.434 11.05a932 932 0 0 1-4.673-31.98z"/><path fill="#080808" d="m107.764 1766.41 76.5.06c2.995 1.84 77.981 1.03 88.496 1.02.488 10.1 2.357 21.32-.432 30.91-1.545-9.11-2.24-20.07-2.507-29.39-51.422.78-107.795.65-159.319.15 4.423 27.52 10.14 65.12 18.185 91.79 36.018 1.71 47.213-22.43 89.071-19.62 48.52 3.26 61.27 44.74 112.925 38.72 4.666-.54 16.157-1.59 19.998-3.08l3.098.37c-9.104 16.74-19.486 32.45-33.714 45.37-3.298 2.99-14.627 11.21-16.556 13.71l7.487.49c-1.871 1.45-4.424 3.14-6.858 3.16-24.8.26-49.698-.59-74.507-.37-15.937.15-31.774.47-47.697.24-5.237-.08-6.525-.31-10.134-4.16-15.927-13.52-24.471-24.86-33.331-43.27-2.162 5.52-3.99 10.66-8.821 14.55-6.594 5.31-17.098 4.76-21.728-2.97a11.54 11.54 0 0 1-1.076-9.34c1.807-5.58 6.037-6.87 11.04-9.27-28.05-5.95-67.246-15.9-74.393-48.72a41.56 41.56 0 0 1 6.374-32.42 39.9 39.9 0 0 1 26.138-17c15.233-2.7 24.817 2.92 36.434 11.05a932 932 0 0 1-4.673-31.98"/><path fill="#607281" d="M204.551 1870.28c35.855-4.56 50.861 22.03 82.417 30.56 14.135 3.82 32.901 2.71 47.538 2.02-10.183 13.96-23.532 24.99-38.103 34.12l-24.467.04-95.134.05c-17.798-15.88-26.209-26.71-37.269-47.61 26.959-1.66 41.483-15.52 65.018-19.18"/><path fill="#080808" d="M264.127 1907.79a8.22 8.22 0 0 1 8.275-.69 8.21 8.21 0 0 1 4.652 6.88 8.22 8.22 0 0 1-3.725 7.42 8.21 8.21 0 0 1-11.276-2.29 8.216 8.216 0 0 1 2.074-11.32"/><path fill="#fdcb97" d="M265.179 1910.67a5.25 5.25 0 0 1 5.378-.93 5.25 5.25 0 0 1 3.309 4.34 5.27 5.27 0 0 1-2.322 4.94 5.263 5.263 0 0 1-7.096-1.2 5.25 5.25 0 0 1 .731-7.15"/><path fill="#080808" d="M202.584 1883.29c4.244-1.31 8.751 1.04 10.108 5.26 1.358 4.23-.938 8.77-5.15 10.17-2.769.93-5.822.3-7.992-1.66a8.102 8.102 0 0 1 3.034-13.77"/><path fill="#e69760" d="M202.845 1886.3a5.11 5.11 0 0 1 5.193.52 5.119 5.119 0 0 1-1.166 8.9 5.116 5.116 0 0 1-6.575-2.76 5.126 5.126 0 0 1 2.548-6.66"/><path fill="#080808" d="M172.459 1891.86c4.227-1.34 8.742.98 10.123 5.19s-.887 8.75-5.085 10.18a8.09 8.09 0 0 1-7.975-1.62 8.08 8.08 0 0 1-2.535-7.73 8.07 8.07 0 0 1 5.472-6.02"/><path fill="#e69760" d="M173.374 1894.73a5.234 5.234 0 0 1 6.427 3.02 5.239 5.239 0 0 1-7.959 6.19 5.24 5.24 0 0 1-2.06-5.08 5.23 5.23 0 0 1 3.592-4.13"/><path fill="#080808" d="M233.46 1889.68c3.734-2.3 8.628-1.2 11.011 2.48 2.384 3.69 1.381 8.61-2.257 11.06a8.06 8.06 0 0 1-8.141.53 8.08 8.08 0 0 1-4.43-6.86 8.08 8.08 0 0 1 3.817-7.21"/><path fill="#607281" d="M125.054 1875.24c25.985 18.18-6.695 43.97-16.647 26.76-.906-6.5 7.13-9.47 9.539-16.42-2.225-5.46-23.344-8.56-30.206-10.71-29.658-9.28-59.556-43.45-31.963-73.51a36.02 36.02 0 0 1 25.977-11.71c12.998-.35 21.313 4.76 30.415 13.1 1.647 6.28 6.887 22.57 4.619 27.61-6.696.08-7.989-17.56-18.102-23.02-19.728-11.37-45.47 7.85-36.815 30.2 9.372 24.21 38.1 23.95 59.13 35 .741.31.761.41 1.415.98.708.41 2.02 1.03 2.638 1.72"/><path fill="#fcfbfb" d="M78.91 1807.1c11.505-.82 19.785.08 26.361 10.7 2.069 2.75 5.071 13.76 7.691 15.13 3.799 1.98 6.561-4.63 7.95 5.07 1.78 12.43 5.752 25.58 9.307 37.99-3.369-2.43-5.821-4.29-9.481-6.41-19.007-10.37-43.965-9.05-55.05-29.44-7.526-13.84-.389-26.9 13.222-33.04"/><path fill="#e69760" d="M206.534 1856.34c40.366-6.24 49.391 22.02 82.806 32.09 18.047 5.44 34.939 3.55 53.293 2.01-2.981 5.13-4.535 8.5-10.791 9.56-24.942 4.26-45.963-.12-67.03-12.09-36.167-22.68-49.811-29.08-91.315-10.15-10.912 4.98-23.56 8.34-35.543 9.41l-3.026-8.77c31.257-5.28 45.09-18.82 71.606-22.06"/><path fill="#e69760" d="M203.564 1844.34c48.602-4.13 56.133 23.37 93.336 35.13a80.5 80.5 0 0 0 27.269 3.71c4.947-.2 21.536-2.99 24.294-2.12l-.261 2.32c-4.859 6.53-16.19 5.35-23.679 5.79-20.641 1.21-35.547-1.66-53.404-12.06-9.247-6.23-17.336-13.43-27.593-18.26-42.956-20.23-68.03 11.17-109.7 16.67a512 512 0 0 1-3.547-11.09c32.448-.33 40.98-16.35 73.285-20.09"/><path fill="#1c252f" d="M184.264 1766.47c64.158-.15 129.34-.91 193.422-.17-.124 36.76-5.591 78.51-23.907 111.04l-3.098-.37a203.7 203.7 0 0 0 21.357-68.61 379 379 0 0 1-.751-8.48c-1.395 3.03-2.725 5.67-4.492 8.51a52.24 52.24 0 0 1-32.9 23.18c-23.71 5.19-56.183-7.2-61.567-33.17 2.789-9.59.92-20.81.432-30.91-10.515.01-85.501.82-88.496-1.02"/><path fill="#505e6a" d="M371.287 1799.88c3.138-5.4.834 8.05.751 8.48a379 379 0 0 1-.751-8.48"/><path fill="#e69760" d="M278.779 1793.97c7.356-.58 13.918-.7 8.42 8.59-6.587.4-10.944-.7-8.42-8.59"/><path fill="#cf8652" d="M338.159 1811.49a5.143 5.143 0 0 1 6.892 1.76 5.14 5.14 0 0 1-1.462 6.96 5.15 5.15 0 0 1-5.257.33 5.143 5.143 0 0 1-.173-9.05m25.17-38.05a5.05 5.05 0 0 1 6.125 3.69 5.05 5.05 0 0 1-3.707 6.12 5.052 5.052 0 0 1-2.418-9.81m-9.656 20.37a4.931 4.931 0 1 1 6.155 7.709 4.931 4.931 0 0 1-6.155-7.709"/><path fill="#1c252f" d="M154.496 1782.54a6.21 6.21 0 0 1 7.523 4.43 6.206 6.206 0 0 1-4.336 7.57c-2.154.6-4.464 0-6.048-1.58a6.21 6.21 0 0 1 2.861-10.42m38.047 1.1a6.122 6.122 0 0 1 6.895 8.27 6.11 6.11 0 0 1-4.975 3.81 6.125 6.125 0 0 1-6.756-5.12 6.12 6.12 0 0 1 4.836-6.96m144.998 62.05a6.067 6.067 0 0 1 4.872 11.11 6.066 6.066 0 0 1-4.872-11.11m-130.313-27.14a5.95 5.95 0 0 1 5.246 10.66 5.96 5.96 0 0 1-6.15-.17 5.949 5.949 0 0 1 .904-10.49m48.065 2.83a5.94 5.94 0 0 1 6.202.1 5.92 5.92 0 0 1 2.733 5.56 5.937 5.937 0 1 1-8.935-5.66m-85.139-4.88a5.88 5.88 0 0 1 7.967 1.93 5.88 5.88 0 0 1-1.728 8.02 5.874 5.874 0 1 1-6.239-9.95m77.26-38.13a5.813 5.813 0 0 1 7.595 2.48 5.81 5.81 0 0 1-2.079 7.72 5.79 5.79 0 0 1-5.98.04 5.8 5.8 0 0 1-2.846-5.26 5.81 5.81 0 0 1 3.31-4.98m-110.581 37.18a5.71 5.71 0 0 1 5.882.95 5.72 5.72 0 0 1-2.337 9.9 5.723 5.723 0 0 1-6.828-3.77 5.723 5.723 0 0 1 3.283-7.08m155.2 27.98a5.73 5.73 0 0 1 5.681 1.21 5.73 5.73 0 0 1 1.694 5.56 5.74 5.74 0 0 1-4.039 4.18 5.73 5.73 0 0 1-7-3.85 5.724 5.724 0 0 1 3.664-7.1m-66.184-45.86a5.65 5.65 0 0 1 5.794-.87 5.634 5.634 0 0 1 .787 9.98 5.634 5.634 0 0 1-6.581-9.11m88.171 63.81a5.45 5.45 0 0 1 5.871.06 5.44 5.44 0 0 1 2.41 5.35 5.44 5.44 0 0 1-3.849 4.44 5.46 5.46 0 0 1-6.513-2.99 5.45 5.45 0 0 1 2.081-6.86"/><path fill="#607281" d="M1680.24 1766.29c46.14-.48 92.87-.11 139.05.05 41.01-.57 89.82-1.16 130.55 0-.47 33.48-5.46 67.18-18.22 98.45-.93 2.28-4.46 9.91-5.9 11.52-10.7 22.98-30.36 46.9-52.53 59.47l-.52.61-1.7-1.57-4.33 2.56c-1.1.54-44.51 2.26-48.32 1.72-13.8-1.97-66.46 5.59-74.69-2.64-18.05-16.22-21.68-23.5-33.52-44.83-1.36 5.17-2.84 10.02-6.68 13.96-5.86 6.01-16.37 7.19-22.14.23a11.8 11.8 0 0 1-2.55-9.21c.84-5.77 4.93-8.19 9.28-11.61-7.64-2.23-15.77-3.27-23.54-5.68-22.46-6.95-45.58-20.04-49.27-45.43a42.47 42.47 0 0 1 9.11-32.48c16.86-21.19 40.8-18.23 60.22-2.66a473 473 0 0 1-4.3-32.46"/><path fill="#080808" d="M1680.24 1766.29c46.14-.48 92.87-.11 139.05.05 3.15 1.99 19.53 1.19 24.2 1.15.18 7.15.88 15.24-1.26 21.96-.9-7.65-1.32-12.5-1.39-20.17-16.91.65-36.15-.07-53.27-.16-34.74-.15-69.48-.11-104.23.12 3.5 31.04 9.37 61.76 17.55 91.9 37.74-.09 53.69-25.35 95.51-19.68 41.81 5.66 53.09 42.6 101.82 39.16 6.99-.5 18.49-1.68 24.62-4.87l2.88.56c-10.7 22.98-30.36 46.9-52.53 59.47l-.52.61-1.7-1.57-4.33 2.56c-1.1.54-44.51 2.26-48.32 1.72-13.8-1.97-66.46 5.59-74.69-2.64-18.05-16.22-21.68-23.5-33.52-44.83-1.36 5.17-2.84 10.02-6.68 13.96-5.86 6.01-16.37 7.19-22.14.23a11.8 11.8 0 0 1-2.55-9.21c.84-5.77 4.93-8.19 9.28-11.61-7.64-2.23-15.77-3.27-23.54-5.68-22.46-6.95-45.58-20.04-49.27-45.43a42.47 42.47 0 0 1 9.11-32.48c16.86-21.19 40.8-18.23 60.22-2.66a473 473 0 0 1-4.3-32.46"/><path fill="#607281" d="M1712.77 1891.86c24.21-5.27 44.37-18.9 67.22-21.83 28.55-3.66 54.49 26.5 81.71 31.7 15.55 2.97 29.48 2.2 45.33.49-10.04 12.08-23.43 23.33-36.06 32.6l-4.33 2.56c-6.15-.85-29.69-.3-37.5-.29-26.98.13-53.97.11-80.95-.03-20.86-17.81-21.24-23.92-35.42-45.2"/><path fill="#080808" d="M1744.52 1891.56c3.11-.73 6.37.3 8.5 2.68a8.73 8.73 0 0 1 1.69 8.75c-1.09 3-3.73 5.17-6.88 5.65a8.69 8.69 0 0 1-9.86-6.95c-.89-4.59 2-9.06 6.55-10.13"/><path fill="#e69760" d="M1745.05 1894.4a5.622 5.622 0 0 1 6.78 7.18 5.64 5.64 0 0 1-4.32 3.79 5.62 5.62 0 0 1-6.51-4.3 5.623 5.623 0 0 1 4.05-6.67"/><path fill="#080808" d="M1773.25 1883.58c4.04-2.03 8.97-.38 10.98 3.67s.36 8.96-3.7 10.97c-4.04 2-8.94.35-10.95-3.69-2-4.04-.36-8.94 3.67-10.95"/><path fill="#fdcb97" d="M1774.12 1886.36a5.235 5.235 0 0 1 7.07 1.99c1.42 2.48.59 5.64-1.86 7.1a5.26 5.26 0 0 1-5.3.05 5.24 5.24 0 0 1 .09-9.14"/><path fill="#080808" d="M1836.01 1904.66c10.17 1.39 15.9 8.2 7.69 16.49-12.71 1.86-15.68-5.89-8.74-15.04z"/><path fill="#e69760" d="M1838.46 1908.63a5.357 5.357 0 0 1 6.16 3.74 5.367 5.367 0 0 1-8.71 5.53 5.36 5.36 0 0 1 2.55-9.27"/><path fill="#080808" d="M1808.11 1888.32c4.21-.98 8.42 1.66 9.38 5.89a7.806 7.806 0 0 1-15.23 3.44c-.95-4.19 1.67-8.36 5.85-9.33"/><path fill="#e69760" d="M1806.95 1891.4c2.33-1.5 5.43-.83 6.94 1.5 1.51 2.32.86 5.42-1.46 6.95a5.043 5.043 0 0 1-6.99-1.47 5.037 5.037 0 0 1 1.51-6.98"/><path fill="#607281" d="M1694.38 1872.21c6.2 4.43 11.74 11.84 12.32 19.6.64 8.58-5.83 16.07-14.44 16.36-10.67.36-15.51-11.96-5.51-17.45 1.91-1.06 2.74-1.72 3.41-3.81-.61-1.75-1.29-3.79-3.37-4.33-28.55-7.42-66.58-16.93-69.07-52.92-1.3-15.1 9.27-31.77 22.79-37.53 16.52-7.04 43.54-.86 45.59 19.68.65 6.45 3.33 11.57 3.14 18.62l-1.14.68c-6.86-5.68-8.31-19.03-19.89-24.95-20.06-10.25-43.23 10.77-33.9 32.02 10.95 24.95 37.41 23.95 58.75 33.28.75.26.66.25 1.32.75"/><path fill="#404b56" d="M1698.36 1897.6c1.33-.69 1.53-1.21 2.14.39-.08.04-.15.09-.22.13-.4.21-.81.42-1.21.62-.46-.31-.41-.48-.71-1.14"/><path fill="#fcfbfb" d="M1657.22 1806.33c20.64 2.32 17.64 13.28 26.65 25.82 3.92 5.46 7.73-5.33 9.92 10.86 1.24 9.18 6.32 22.91 8.63 31.59-5.49-3.63-8.33-5-14.09-7.83-18.32-5.94-49.79-11.48-53.17-34.77-.88-6.26.81-12.61 4.68-17.6 4.99-6.33 10.09-7.07 17.38-8.07"/><path fill="#e69760" d="M1775.48 1856.24c52.61-4.9 46.37 22.58 91 33.58 15.33 3.78 32.97 1.81 48.65.5-2.56 3.62-4.34 5.86-7.26 9.2-28.52 2.69-43.04 3.47-68.37-10.01-45.51-27.06-53.09-30.42-103.88-7.61-6.91 3.1-15.94 5.77-23.65 4.69-2.82-2.14-3.36-5.39-4.56-8.89 26.68-2.81 41.89-16.48 68.07-21.46"/><path fill="#e69760" d="M1778.22 1844.4c62.83-6.13 61.56 54.14 143.2 34.56-2.59 5.36-3.34 7.82-9.5 8.95-23.91 4.4-49.73.7-70.37-11.41-8.77-5.53-15.57-12.89-25.36-17.62-42.72-20.6-72.18 13.11-109.88 15.84l-4.39-10.53c35.26-1.38 42.61-17 76.3-19.79"/><path fill="#1c252f" d="M1819.29 1766.34c41.01-.57 89.82-1.16 130.55 0-.47 33.48-5.46 67.18-18.22 98.45-.93 2.28-4.46 9.91-5.9 11.52l-2.88-.56c11.51-17.53 22.38-61.41 21.73-82.46-9.92 18.56-16.99 33.08-39.93 38.26a54.46 54.46 0 0 1-41.91-8.01c-13.19-8.92-17.78-19.25-20.5-34.09 2.14-6.72 1.44-14.81 1.26-21.96-4.67.04-21.05.84-24.2-1.15"/><path fill="#cf8652" d="M1909.06 1810.55a5.53 5.53 0 0 1 5.59.48 5.53 5.53 0 0 1 2.3 5.12 5.56 5.56 0 0 1-3.35 4.5 5.535 5.535 0 0 1-7.2-2.83 5.533 5.533 0 0 1 2.66-7.27"/><path fill="#e69760" d="M1854.32 1792.64c8.52 2.32 8.09 6.67 1.39 11.32-7.63-.73-9.31-5.88-2.92-10.18zm70.45.07a5.424 5.424 0 1 1 5.03 9.61 5.43 5.43 0 0 1-7.3-2.31 5.42 5.42 0 0 1 2.27-7.3"/><path fill="#cf8652" d="M1935.09 1773.25c2.61-.78 5.38.62 6.3 3.19a5.14 5.14 0 0 1-2.85 6.47c-1.75.73-3.77.44-5.24-.76a5.15 5.15 0 0 1-1.78-4.99 5.13 5.13 0 0 1 3.57-3.91"/><path fill="#1c252f" d="M1908.96 1845.58c3.15-1.26 6.72.28 7.98 3.43a6.14 6.14 0 0 1-3.43 7.97 6.136 6.136 0 1 1-4.55-11.4m-183.52-63.19c3.12-.95 6.43.73 7.51 3.8a6.073 6.073 0 0 1-3.49 7.66c-2.07.83-4.43.45-6.15-.98a6.09 6.09 0 0 1-2.06-5.87 6.1 6.1 0 0 1 4.19-4.61m138.11 60.86c2.13-.6 4.42 0 5.98 1.58a6.06 6.06 0 0 1 1.51 5.99 6.1 6.1 0 0 1-4.52 4.23 6.096 6.096 0 0 1-7.22-4.46c-.8-3.19 1.08-6.45 4.25-7.34m-85.94-23.68a6.07 6.07 0 0 1 6.21-.13c1.93 1.1 3.1 3.18 3.04 5.41a6.03 6.03 0 0 1-3.34 5.23 6.02 6.02 0 0 1-7.95-2.44 6.04 6.04 0 0 1 2.04-8.07m20.65-21.78a5.99 5.99 0 0 1 7.84 2.55c1.53 2.8.61 6.3-2.1 7.98a5.98 5.98 0 0 1-6.2.08 5.98 5.98 0 0 1-2.97-5.44 5.98 5.98 0 0 1 3.43-5.17m-90.46 17.95a5.976 5.976 0 0 1 8.49 6.26 5.97 5.97 0 0 1-3.88 4.76c-3 1.09-6.33-.37-7.56-3.31a5.984 5.984 0 0 1 2.95-7.71m119.91 4.89c3.11-.98 6.43.71 7.46 3.81 1.02 3.1-.64 6.45-3.73 7.51a5.98 5.98 0 0 1-5.88-1.18 5.97 5.97 0 0 1-1.88-5.69c.45-2.1 1.99-3.8 4.03-4.45m-85.44-5c1.92-.97 4.22-.83 6 .37a5.95 5.95 0 0 1 2.62 5.41 5.98 5.98 0 0 1-3.45 4.93c-2.94 1.35-6.42.09-7.83-2.82a5.95 5.95 0 0 1 2.66-7.89m18.97-31.1a5.91 5.91 0 0 1 6.03-.34c1.93 1 3.15 2.96 3.2 5.13a5.92 5.92 0 0 1-2.97 5.27c-2.77 1.59-6.3.7-7.99-2.01a5.933 5.933 0 0 1 1.73-8.05m58.08-6.09a5.72 5.72 0 0 1 5.83.11 5.71 5.71 0 0 1 2.69 5.18 5.7 5.7 0 0 1-3.27 4.83c-2.77 1.3-6.08.18-7.49-2.53a5.715 5.715 0 0 1 2.24-7.59m65.98 83.24a5.14 5.14 0 0 1 5.19-.81 5.16 5.16 0 0 1 3.19 4.18c.21 1.87-.61 3.71-2.16 4.8a5.15 5.15 0 0 1-7.04-1.09 5.144 5.144 0 0 1 .82-7.08"/><path fill="#080808" d="M1406.36 1766.23c46.2-.65 103.15-1.18 148.99.47-.07 6.05-.16 27.25-1.91 31.97-5.96 48.94-23.42 98.53-63.47 129.85-3.39 2.64-6.81 5.25-10.25 7.82l-2.92-1.13c-6.01 2.67-118.61 2.89-124.87-.05l-1.13 1.96-.98-.34c-18.66-13.84-26.17-24.72-36.1-45.58-4.72 34.85-47.87 14.75-23.12-6.62-26.92-6.82-64.02-15.61-70.6-47.86a41.6 41.6 0 0 1 6.79-32.41 40.26 40.26 0 0 1 26.27-16.82c15.15-2.54 24.7 3.34 36.1 11.6-2.04-10.93-3.88-21.92-4.19-33.05 40.37.49 80.96-.13 121.39.19"/><path fill="#607281" d="M1287.66 1768.83c52.03.11 106.87 1.22 158.6.15.92 26.53 4.73 50.96 34.65 59.43 27.12 11.47 52.64-7.07 66.81-29.05.53 1.42.08 12.3.27 14.77a175.9 175.9 0 0 1-19.6 61.43c-21.58 7.14-47.8 6.44-67.92-4.34-11.71-6.27-21.52-13.74-32.4-20.3-17.89-10.76-47.68-12.64-67.21-5.83-21.94 7.65-30.49 16.71-55.18 16.93-6.09-24.35-16.08-69.31-18.02-93.19"/><path fill="#1c252f" d="M1344.71 1815.58a6.2 6.2 0 0 1 6.33-.57c2.06.99 3.41 3.03 3.52 5.3.1 2.28-1.05 4.44-3 5.62a6.223 6.223 0 0 1-8.39-1.9 6.205 6.205 0 0 1 1.54-8.45m168.92 28.97c2-.89 4.32-.61 6.05.73a5.943 5.943 0 0 1-1.69 10.33 5.957 5.957 0 0 1-7.48-3.44 5.95 5.95 0 0 1 3.12-7.62m-184.3-61.04a5.918 5.918 0 0 1 8.94 5.11 5.93 5.93 0 0 1-3.03 5.14c-2.82 1.58-6.4.6-8.02-2.2a5.917 5.917 0 0 1 2.11-8.05m-18.3 32.34a5.89 5.89 0 0 1 6.16-.6c2 .98 3.28 3 3.31 5.23a5.91 5.91 0 0 1-3.19 5.31 5.91 5.91 0 0 1-7.71-2.09c-1.63-2.59-1.01-6 1.43-7.85m156.01 28.41a5.893 5.893 0 0 1 7.78 2.6c1.47 2.83.44 6.31-2.33 7.87a5.92 5.92 0 0 1-6.03-.13 5.9 5.9 0 0 1-2.77-5.34c.12-2.16 1.4-4.08 3.35-5m-97.85-59.72c3.04-.82 6.18.95 7.06 3.98s-.83 6.2-3.84 7.13c-2 .62-4.18.12-5.7-1.32a5.79 5.79 0 0 1-1.62-5.62 5.79 5.79 0 0 1 4.1-4.17m35.65 12.31c2.95-.9 6.07.72 7.04 3.65.97 2.92-.57 6.08-3.47 7.13-1.94.7-4.11.29-5.66-1.07a5.68 5.68 0 0 1-1.82-5.47 5.67 5.67 0 0 1 3.91-4.24m-19.45 21.54c2.96-.23 5.6 1.85 6.05 4.79a5.674 5.674 0 0 1-9.94 4.53 5.69 5.69 0 0 1-.9-5.85c.82-1.96 2.66-3.3 4.79-3.47m38.41-39.79c1.77-1.12 4-1.17 5.82-.14a5.68 5.68 0 0 1 2.88 5.06 5.68 5.68 0 0 1-3.11 4.93c-2.7 1.36-5.99.37-7.49-2.26a5.68 5.68 0 0 1 1.9-7.59m8.72 41.92a5.67 5.67 0 0 1 5.87.67 5.64 5.64 0 0 1 2.06 5.53 5.65 5.65 0 0 1-3.98 4.35c-2.84.81-5.81-.7-6.85-3.45a5.665 5.665 0 0 1 2.9-7.1m61.24 38.02a5.577 5.577 0 0 1 6.27 4.69 5.57 5.57 0 0 1-4.56 6.35c-2 .35-4.02-.41-5.29-1.98a5.58 5.58 0 0 1-.87-5.58 5.6 5.6 0 0 1 4.45-3.48"/><path fill="#607281" d="M1315.93 1889.9c29.29-4.7 44.49-19.14 71.36-20.67 28.49-1.63 44.02 19.5 68.05 28.7 17.54 6.72 38.38 6.04 56.92 3.67-10.11 14.32-21.74 22.99-35.46 33.61-6.01 2.67-118.61 2.89-124.87-.05-17.47-12.83-26.88-25.27-36-45.26"/><path fill="#080808" d="M1410.74 1885.6c11.62 1.57 15.37 9.55 6.55 17.97-12.15-2.29-14.08-8.39-6.55-17.97"/><path fill="#e69760" d="M1412.26 1889.86c1.85-.69 3.94-.31 5.43 1a5.4 5.4 0 0 1 1.68 5.26 5.41 5.41 0 0 1-3.84 3.97c-2.78.74-5.64-.82-6.52-3.56-.87-2.73.56-5.67 3.25-6.67"/><path fill="#080808" d="M1441.13 1906.34c4-1.53 8.5.36 10.2 4.29 1.71 3.93.01 8.51-3.84 10.38a8.03 8.03 0 0 1-8.17-.7 8 8 0 0 1-3.26-7.53 8.02 8.02 0 0 1 5.07-6.44"/><path fill="#e69760" d="M1441.02 1909.4a5.22 5.22 0 0 1 5.32-.36 5.197 5.197 0 0 1 .2 9.16c-2.41 1.37-5.48.59-6.96-1.76s-.84-5.45 1.44-7.04"/><path fill="#080808" d="M1377.78 1883.53a7.97 7.97 0 0 1 8.25-.34 7.98 7.98 0 0 1 4.11 7.16 7.95 7.95 0 0 1-4.43 6.96 7.966 7.966 0 0 1-7.93-13.78"/><path fill="#fdcb97" d="M1381.8 1885.16a5.2 5.2 0 0 1 4.59 2.66c.92 1.66.85 3.7-.18 5.3a5.14 5.14 0 0 1-4.74 2.35 5.157 5.157 0 0 1-4.76-5.31 5.167 5.167 0 0 1 5.09-5"/><path fill="#080808" d="M1348.15 1890.87c13.28-.69 13.39 10.93 5.37 16.91l-1-.26c-11.24-2.79-11.09-8.75-4.37-16.65"/><path fill="#e69760" d="M1348.94 1894.41c1.67-.93 3.71-.87 5.3.17a5.15 5.15 0 0 1 2.32 4.77 5.14 5.14 0 0 1-3.15 4.27 5.12 5.12 0 0 1-6.57-2.5 5.13 5.13 0 0 1 2.1-6.71"/><path fill="#1c252f" d="M1406.36 1766.23c46.2-.65 103.15-1.18 148.99.47-.07 6.05-.16 27.25-1.91 31.97l-1.43-1.65-1.52.92c-.52-5.34-2.06-.88-2.77 1.42-14.17 21.98-39.69 40.52-66.81 29.05-2.84-6.68-22.14-9.07-25.08-26.09-.54-2.27-.66-3.29-1.6-5.41-5.21-7.22-4.63-20.51-4.71-29.48-8.78.14-35.77 1.13-43.16-1.2"/><path fill="#e69760" d="M1454.23 1796.91c3.49-5.33 11.11-7.07 11.08 1.09-.01 5.15-5.78 4.08-9.48 4.32-.54-2.27-.66-3.29-1.6-5.41"/><path fill="#cf8652" d="M1515.32 1806.7c2.78-.54 5.47 1.26 6.05 4.03a5.19 5.19 0 0 1-3.93 6.11 5.19 5.19 0 0 1-4.99-1.58 5.2 5.2 0 0 1-1.07-5.12c.6-1.78 2.1-3.09 3.94-3.44m14.62-17.03c8.49 2.93 9.99 4.23 4.22 10.87-8.59-1.47-10.15-4.31-4.22-10.87"/><path fill="#e69760" d="M1537.88 1773.75a5.07 5.07 0 0 1 5.2-1.37 5.085 5.085 0 1 1-5.34 8.19 5.087 5.087 0 0 1 .14-6.82"/><path fill="#505e6a" d="M1547.72 1799.36c.71-2.3 2.25-6.76 2.77-1.42-.57 5.11-1.19 11.21-2.5 16.19-.19-2.47.26-13.35-.27-14.77"/><path fill="#607281" d="M1295.47 1907.73c-4.24-1.98-9.35-4.48-11.31-9.01 1.02-7.44 7.95-6.67 10.6-12.44-2.92-5.78-29.13-11.29-36.58-14-22.53-8.19-43.32-29.98-34.52-56.02a40.3 40.3 0 0 1 20.25-23.02 35.45 35.45 0 0 1 28.96-.98c6.06 2.41 11.68 6.43 16.41 10.89 1.83 5.73 7.62 21.61 4.67 26.83l-1.61.21c-9.46-7.71-10.45-28.76-32.35-26.2-15.02 1.76-26.27 13.95-23.05 29.6 6.52 31.64 50.05 26.79 68.8 45.92 8.34 8.35 5.77 22.9-4.58 28.07-2.8.47-2.81.43-5.69.15"/><path fill="#404b56" d="M1295.47 1907.73c2.36-.37 3.22-.23 5.69-.15-2.8.47-2.81.43-5.69.15"/><path fill="#fcfbfb" d="M1256.27 1807.09c11.08-.44 12.23-.26 22.06 5.14 3.68 5.65 6.93 15.16 11.21 19.82 2.37 2.58 6.13-1.92 7.32 3.89 2.69 13.14 5.91 26.59 9.46 39.47-5.02-3.43-5.72-4.07-11.31-6.71-10.21-4.11-21.25-7.76-31.73-11.24-24.1-8-36.13-39.97-7.01-50.37"/><path fill="#e69760" d="M1382.41 1855.34c23.56-3.36 40.61 6.49 58.24 20.04 23.26 17.87 51.98 18.6 80.18 13.74l-6 9.46c-26.07 3.73-45.55 3.52-69.23-8.16-7.96-4.27-17.11-11.27-24.89-15.57-37.26-20.59-60.64-.15-95.73 11.14-3.29 1.06-7.91 1.59-11.11-.31-1.33-4.14-2.2-4.18-.85-7.12 5.24-3.1 11.32-2.46 17.2-4.69 20.02-7.57 30.39-15.56 52.19-18.53"/><path fill="#e69760" d="M1377.69 1844.35c59.27-6.34 61.76 35.58 117.23 38.76 15.18.87 17.77-2.13 30.82-3.73.67 2.41.58 1.15-.51 3.86-14.94 12.85-59.6 3.87-76.53-5.53-6.93-4.64-13.36-11.04-20.05-15.37-15.78-10.18-42.79-13.48-60.59-7.01-21.66 7.88-33.84 15.75-57.57 19.82l-3.61-9.95c33.55-2.41 41.6-17.39 70.81-20.85"/><path fill="#080808" d="M563.142 1935.89c1.551.85 2.587 1.36 4.207 2.08l2.339-1.21c6.183-1.3 109.137-.89 113.999.67 3.178 1.6 3.395 1.41 6.848 1.61 3.094-1.38 2.038-.31 3.512-3.07 29.803 2.35 61.047-1.18 90.945.77 2.867.19 3.935 1.51 5.677 3.46.399 3.88.757 2.08-1.322 5.57-3.943 1.77-1.875 1.33-6.515.91-15.373 1.46-49.705 23.67-61.082 35.34-58.368.78-124.227.99-182.518-.23-14.112-13.04-40.117-26.93-58.047-34.19-5.956-.41-12.569.4-15.378-5.79l.676-1.5c9.327-7.68 79.203-1.95 96.659-4.42"/><path fill="#1c252f" d="M563.142 1935.89c1.551.85 2.587 1.36 4.207 2.08l2.339-1.21c6.183-1.3 109.137-.89 113.999.67 3.178 1.6 3.395 1.41 6.848 1.61 3.094-1.38 2.038-.31 3.512-3.07 29.803 2.35 61.047-1.18 90.945.77 2.867.19 3.935 1.51 5.677 3.46.399 3.88.757 2.08-1.322 5.57-3.943 1.77-1.875 1.33-6.515.91-5.784-3.17-48.94-2.08-59.647-2.15a5193 5193 0 0 0-190.93.44c-9.3.18-44.861-.22-51.07 2.63-5.956-.41-12.569.4-15.378-5.79l.676-1.5c9.327-7.68 79.203-1.95 96.659-4.42"/><path fill="#607281" d="m489.197 1947.94 154.607-.11c41.051-.18 82.876-.81 123.875.04-16.428 9.92-33.318 18.13-46.777 31.47-5.864 1.07-11.293.85-17.242.51-21.735.15-43.47.15-65.205-.02-14.018.7-30.721.09-44.91.21-9.25.08-27.563.42-36.069-.84l-17.791-.22c-12.423-12.63-34.271-23.05-50.488-31.04"/><path fill="#404b56" d="M557.476 1979.2c9.794-.71 26.225-.28 36.656-.11 12.081.21 32.921-.53 44.323.74-14.018.7-30.721.09-44.91.21-9.25.08-27.563.42-36.069-.84m146.184.65a92 92 0 0 1 17.242-.51c-5.864 1.07-11.293.85-17.242.51"/><path fill="#607281" d="M1351.93 1935.16c6.26 2.94 118.86 2.72 124.87.05l2.92 1.13 1.3.09c16.1.91 82.32-1.67 91.92 1.51 2.17 3.14 1.49 1.4 1.67 5.55-3.07 6.28-11.95 3.55-19.38 7.07-18.11 9.05-35.14 16.63-49.24 31.32-24.8.75-52.27.28-77.26.35-35.1.24-70.21.23-105.31-.01-16.56-15.92-35.77-24.94-56.46-34.4-5.4-.38-11.32.34-14.59-4.39-.07-3.83-.49-2.07 1.34-5.46 5.2-3.31 83.64-1.32 96.11-1.19l.98.34z"/><path fill="#1c252f" d="M1351.93 1935.16c6.26 2.94 118.86 2.72 124.87.05l2.92 1.13 1.3.09c16.1.91 82.32-1.67 91.92 1.51 2.17 3.14 1.49 1.4 1.67 5.55-3.07 6.28-11.95 3.55-19.38 7.07l-2.95-1.74c-6.32-1.33-45.14-.59-53.77-.64-41.77-.24-83.74.31-125.53-.3 8.66-1.02 13.68-1 22.48-.88-4.25-3.41-119.91-3.29-128.5.82-5.4-.38-11.32.34-14.59-4.39-.07-3.83-.49-2.07 1.34-5.46 5.2-3.31 83.64-1.32 96.11-1.19l.98.34z"/><path fill="#080808" d="M1266.96 1947.82c8.59-4.11 124.25-4.23 128.5-.82-8.8-.12-13.82-.14-22.48.88-32.73.21-65.45.25-98.18.11 18.86 9.94 34.41 17.03 49.81 31.99 56.41.67 123.78 1.15 179.97-1.05 15.91-13.97 29.23-20.33 47.7-30.11l2.95 1.74c-18.11 9.05-35.14 16.63-49.24 31.32-24.8.75-52.27.28-77.26.35-35.1.24-70.21.23-105.31-.01-16.56-15.92-35.77-24.94-56.46-34.4"/><path fill="#607281" d="m1866.64 1937.38 4.33-2.56 1.7 1.57.52-.61c15.82 1.79 87.51-1.63 95.09 2.32 1.96 3.51 1.43 1.64 1.32 5.9-3.49 4.94-9.15 2.09-15.3 5.08-20.88 10.21-34.61 16.19-51.13 32.82-57.86 1.97-125.02.26-183.33.13-13.5-13.66-44.87-30.44-63.98-34.72-2.6-.58-4.42-.2-7.83-1.3-.16-4.3-.47-5.08 1.63-8.14 5.12-2.81 81.57-1.44 93.97-1.41 8.23 8.23 60.89.67 74.69 2.64 3.81.54 47.22-1.18 48.32-1.72"/><path fill="url(#c)" d="m1866.64 1937.38 4.33-2.56 1.7 1.57.52-.61c15.82 1.79 87.51-1.63 95.09 2.32 1.96 3.51 1.43 1.64 1.32 5.9-3.49 4.94-9.15 2.09-15.3 5.08l-4.43-.94c-21.63-.93-48.73-.19-70.92-.17-50.04.25-100.08.18-150.11-.22-1.02-.99-1.88-1.56-3.01-2.42-12.08-1.57-66.63-1.65-77.8.68-.16-4.3-.47-5.08 1.63-8.14 5.12-2.81 81.57-1.44 93.97-1.41 8.23 8.23 60.89.67 74.69 2.64 3.81.54 47.22-1.18 48.32-1.72"/><path fill="#080808" d="M1648.03 1946.01c11.17-2.33 65.72-2.25 77.8-.68 1.13.86 1.99 1.43 3.01 2.42-20.05-.43-40.1-.67-60.14-.71 16.73 10.1 37.98 18.59 52.1 32.05 55.13.17 109.38 1.19 164.68.76 5.9-.81 9.14-.84 15.06-.6 1.64-.47 12.34-9.79 15.94-12.21 11.03-7.4 21.67-12.74 33.39-18.9l4.43.94c-20.88 10.21-34.61 16.19-51.13 32.82-57.86 1.97-125.02.26-183.33.13-13.5-13.66-44.87-30.44-63.98-34.72-2.6-.58-4.42-.2-7.83-1.3"/><path fill="#404b56" d="M1885.48 1979.85c5.9-.81 9.14-.84 15.06-.6-6.06 1.05-8.97.89-15.06.6"/><path fill="#080808" d="M171.8 1935.78c3.609 3.85 4.897 4.08 10.134 4.16 15.923.23 31.76-.09 47.697-.24 24.809-.22 49.707.63 74.507.37 2.434-.02 4.987-1.71 6.858-3.16 14.481-.89 78.409-3.68 87.607 2.55l1.119 1.99c-1.171 3.36-4.364 5.05-7.545 6.23-15.787-1.67-51.756 23.2-63.003 34.21-20.651.83-44.976.26-65.894.23l-115.735-.2c-14.37-12.69-47.704-34.39-67.477-34.59l-3.062-1.84c-1.832-3.35-1.44-1.63-1.366-5.34 9.056-9.28 81.034 0 96.16-4.37"/><path fill="#1c252f" d="M171.8 1935.78c3.609 3.85 4.897 4.08 10.134 4.16 15.923.23 31.76-.09 47.697-.24 24.809-.22 49.707.63 74.507.37 2.434-.02 4.987-1.71 6.858-3.16 14.481-.89 78.409-3.68 87.607 2.55l1.119 1.99c-1.171 3.36-4.364 5.05-7.545 6.23l-2.834-2.86c-5.177-.81-16.011-.65-21.788-.5-94.081 2.39-188.528-2.73-282.414 1.15 1.367-.05-6.053 2.15-5.073 1.86l-3.062-1.84c-1.832-3.35-1.44-1.63-1.366-5.34 9.056-9.28 81.034 0 96.16-4.37"/><path fill="#607281" d="m96.428 1947.04 281.063.13c-19.102 10.38-33.744 17-49.365 32.11-5.221 1.17-14.941.85-20.344.57-25.437.16-50.875.16-76.312.01-8.436.44-39.737.67-47.007-.6-12.071.48-24.042-.32-36.064-.04-17.192-14.62-32.13-21.78-51.97-32.18"/><path fill="#404b56" d="M184.463 1979.26c9.04-.73 38.294-.35 47.007.6-8.436.44-39.737.67-47.007-.6m123.319.59c5.42-.69 14.878-1.13 20.344-.57-5.221 1.17-14.941.85-20.344.57"/><metadata><recraft-signature>{&quot;signed_by&quot;: &quot;recraft&quot;, &quot;signature_b64&quot;: &quot;ihx8TgiPCYtrvlu4ro5xFDTeOC07O/tsJn8zhssUxRNDY8O2/8nEYh3nu7AnHDvdeE9C7IoM9+P3cC5aLS3rDg==&quot;, &quot;signing_algo&quot;: &quot;Ed25519&quot;, &quot;generation_timestamp&quot;: 1777235045, &quot;identifier&quot;: &quot;b62f74b9-1003-44f8-8b90-c07d529c6321&quot;}</recraft-signature></metadata></svg>