<svg xmlns="http://www.w3.org/2000/svg" width="1024" height="1024" preserveAspectRatio="none" style="display:block" viewBox="0 0 2048 2048"><path fill="#617a8f" d="M1936.13 1689.6c2.34-1.51 6.28-3.48 8.73-1.46 3.93 1.88 94.62 16.32 103.14 17.08V2048h-992.77c-6.03-4.01-18.02-8.69-25.23-10.05-1.83.92-3.29-1.31-7.77.17l-1.3-1.15c-4.43-3.49-9.86-4.42-15.06-6.53-4.39-.92-24.741-8.93-29.742-10.82l-64.601-24.75c-40.839-15.83-93.365-33.64-132.406-50.97-6.895-1.81-32.038-12.11-39.117-15.16l-3.195-1.21c-4.122-6.45-31.428-9.15-15.799-12.62 1.739-.38 3.596-.38 2.854-2.19 4.059-1.89 20.249-6.45 25.289-7.97l60.82-17.93c51.926-15.8 103.95-31.27 156.068-46.42 7.285-2.11 44.239-13.33 49.849-13.5 1.48-.04 12.26-.41 13.2-.96.68-2.77 1.71-2.18 4.47-3.5 4.59-.16 22.15-5.58 27.38-7.09 21.44-6.2 42.86-12.5 64.23-18.92l94.35-28.22c18.54-5.45 39.6-10.96 57.58-16.93-1.87-2.22-2.46-2.16-5.11-3.6l.2-.96c6.65.96 9.26 1.79 15.87-.31 33.2-9.7 68.19-21.9 101.63-29.99.88-.33 1.84-.71 2.73-.98l1.58-.47c28.44-8.61 56.58-16.62 85.05-24.91l1.18 1.43c4.91-1.4 9.05-.67 12.56-3.3 8.53 6.82 203.15 34.7 228.98 43.06 6.96 2.25 29.14 3.59 37.41 7.39 11.46 1.29 27.19 7.48 37.73 4.03 19.12-8.39 45.82-17.5 66.12-25.36 15.76-6.1 43.15-17.29 58.07-21.69 4.86-2.06 10.05-3.93 15.03-6.02"/><path fill="#f9f9f8" d="M1480.23 1691.49c4.91-1.4 9.05-.67 12.56-3.3 8.53 6.82 203.15 34.7 228.98 43.06 6.96 2.25 29.14 3.59 37.41 7.39-.32.81-.26.54-.3.92.59 1.07 25.93 5.46 29 6.16-2.46 1.18-15.61 6.44-16.22 6.93-.16.46-.03.53.12 1.17-10.36 4.7-24.76 9.5-35.67 13.48-20.45 7.44-40.86 15-61.22 22.68l-51.76 20.1c-5.34 2.07-19.78 8.01-24.86 9.39-6.46-.48-5.59 1.07-11.77 1.47-1.01.63-2.01 1.27-3.01 1.92l-14.8 5.63c-19.44 5.61-49.42 17.96-69.5 25.38-16.04 5.92-49.09 17.48-63.39 24.5-19.48 6.52-40.36 15.26-59.82 22.35-5.56 2.02-23.31 8.6-27.97 10.96-3.08 1-5.26 1.48-8.08 3.05-9.57 1.85-12.91-1.23-22.37-3.09-9.54-3.81-27.42-8.58-37.74-11.64l-68.69-20.51q-69.45-21.45-139.32-41.49c-13.97-3.95-28.73-8.65-42.72-12.06.68-2.77 1.71-2.18 4.47-3.5 4.59-.16 22.15-5.58 27.38-7.09 21.44-6.2 42.86-12.5 64.23-18.92l94.35-28.22c18.54-5.45 39.6-10.96 57.58-16.93-1.87-2.22-2.46-2.16-5.11-3.6l.2-.96c6.65.96 9.26 1.79 15.87-.31 33.2-9.7 68.19-21.9 101.63-29.99.88-.33 1.84-.71 2.73-.98l1.58-.47c28.44-8.61 56.58-16.62 85.05-24.91z"/><path fill="#617a8f" d="M1480.23 1691.49c4.91-1.4 9.05-.67 12.56-3.3 8.53 6.82 203.15 34.7 228.98 43.06 6.96 2.25 29.14 3.59 37.41 7.39-.32.81-.26.54-.3.92.59 1.07 25.93 5.46 29 6.16-2.46 1.18-15.61 6.44-16.22 6.93-.16.46-.03.53.12 1.17-10.36 4.7-24.76 9.5-35.67 13.48-20.45 7.44-40.86 15-61.22 22.68l-51.76 20.1c-5.34 2.07-19.78 8.01-24.86 9.39-6.46-.48-5.59 1.07-11.77 1.47-12.67-4.61-51.89-11.97-67.5-15.77l-175.42-42.12c-16.3-3.86-37.82-8.3-54.13-13.25-1.24-.38-1.03-1.59-1.39-3.39 33.2-9.7 68.19-21.9 101.63-29.99.88-.33 1.84-.71 2.73-.98l1.58-.47c28.44-8.61 56.58-16.62 85.05-24.91z"/><path fill="#444e56" d="M1389.69 1716.42c.88-.33 1.84-.71 2.73-.98l1.58-.47c28.44-8.61 56.58-16.62 85.05-24.91l1.18 1.43c-2.65 1.64-3.55 1.11-6.22 1.81-17.71 4.62-35.54 10.82-53.23 15.27-5.61 1.41-25.16 8.67-29.47 8.07z"/><path fill="#485966" d="M1272.19 1746.72c6.65.96 9.26 1.79 15.87-.31.36 1.8.15 3.01 1.39 3.39 16.31 4.95 37.83 9.39 54.13 13.25l175.42 42.12c15.61 3.8 54.83 11.16 67.5 15.77-1.01.63-2.01 1.27-3.01 1.92-6.03-2.81-25.27-6.84-32.75-8.59l-55.73-13.19-136.9-32.7c-13.19-3.14-71.7-18.43-81.01-17.1-1.87-2.22-2.46-2.16-5.11-3.6z"/><path fill="#617a8f" d="M1029.09 1825.94c13.99 3.41 28.75 8.11 42.72 12.06q69.87 20.04 139.32 41.49l68.69 20.51c10.32 3.06 28.2 7.83 37.74 11.64 2.03 2.98 12.36 4.63 16.19 5.64-4.07 1.28-11.24 2.9-13.32 6.13-13.78 6.83-51.46 19.99-67.99 26.37q-70.68 27.645-141.66 54.51l-54.41 20.68c-5.26 2.02-22.72 9.21-26.73 9.81-1.11 1.86-.97 1.6.36 3.17-1.83.92-3.29-1.31-7.77.17l-1.3-1.15c-4.43-3.49-9.86-4.42-15.06-6.53-4.39-.92-24.741-8.93-29.742-10.82l-64.601-24.75c-40.839-15.83-93.365-33.64-132.406-50.97-6.895-1.81-32.038-12.11-39.117-15.16l-3.195-1.21c-4.122-6.45-31.428-9.15-15.799-12.62 1.739-.38 3.596-.38 2.854-2.19 4.059-1.89 20.249-6.45 25.289-7.97l60.82-17.93c51.926-15.8 103.95-31.27 156.068-46.42 7.285-2.11 44.239-13.33 49.849-13.5 1.48-.04 12.26-.41 13.2-.96"/><path fill="#323b42" d="m740.004 1928.74 1.43.14c3.804.34 35.917 12.01 37.891 13.79.138.47-.015.58-.204 1.23-6.895-1.81-32.038-12.11-39.117-15.16"/><path fill="#111314" d="M1005.87 2030.44c3.51-.3 10.97 1.48 13.74 3.08 4.62 2.67 7.8-.18 10.03 1.26-1.11 1.86-.97 1.6.36 3.17-1.83.92-3.29-1.31-7.77.17l-1.3-1.15c-4.43-3.49-9.86-4.42-15.06-6.53"/><path fill="#f9f9f8" d="M1936.13 1689.6c2.34-1.51 6.28-3.48 8.73-1.46 3.93 1.88 94.62 16.32 103.14 17.08v231.69c-.71-.22-1.42-.47-2.14-.63-.94-.2-1.9-.36-2.84-.57-13.63-3.1-27-7.46-40.61-10.6-3.98-.92-51.04-12.5-51.12-12.68-.21-.56.03-1.23.28-1.73.11-.22.25-.43.35-.66.2-.44.39-.89.58-1.34-5.41 3-6.84 2.55-12.98 1.07-3.96-1.75-16.88-4.77-21.64-5.97l-43.79-11.04c-71.14-17.95-203.52-51.27-280.06-70.05-.31-.44-.62-.88-.94-1.32l5.18-1.92c5.08-1.38 19.52-7.32 24.86-9.39l51.76-20.1c20.36-7.68 40.77-15.24 61.22-22.68 10.91-3.98 25.31-8.78 35.67-13.48-.15-.64-.28-.71-.12-1.17.61-.49 13.76-5.75 16.22-6.93-3.07-.7-28.41-5.09-29-6.16.04-.38-.02-.11.3-.92 11.46 1.29 27.19 7.48 37.73 4.03 19.12-8.39 45.82-17.5 66.12-25.36 15.76-6.1 43.15-17.29 58.07-21.69 4.86-2.06 10.05-3.93 15.03-6.02"/><path fill="#617a8f" d="M1936.13 1689.6c2.34-1.51 6.28-3.48 8.73-1.46 3.93 1.88 94.62 16.32 103.14 17.08v91.85c-60.61-12.7-122.1-23.01-182.74-35.78-11.63-2.45-26.33-4.35-37.37-7.94.98-1.93-1.38-1.76-2.84-2.19-3.21-.95-27.38-4.79-28.37-5.78.1-.91.19-1.8.23-2.71 19.12-8.39 45.82-17.5 66.12-25.36 15.76-6.1 43.15-17.29 58.07-21.69 4.86-2.06 10.05-3.93 15.03-6.02"/><path fill="#111314" d="M1936.13 1689.6c2.34-1.51 6.28-3.48 8.73-1.46-1.15 1.8-20.71 7.58-23.76 7.48 4.86-2.06 10.05-3.93 15.03-6.02"/><path fill="#617a8f" d="M2048 1862.36v74.55c-.71-.22-1.42-.47-2.14-.63-.94-.2-1.9-.36-2.84-.57-13.63-3.1-27-7.46-40.61-10.6-3.98-.92-51.04-12.5-51.12-12.68-.21-.56.03-1.23.28-1.73.11-.22.25-.43.35-.66.2-.44.39-.89.58-1.34l1.63-.7c13.46-.82 75-39.66 93.87-45.64"/><path fill="#444e56" d="M2048 1860.09v2.27c-18.87 5.98-80.41 44.82-93.87 45.64 16.08-9.63 39.06-19.72 55.99-28.83 7.79-4.19 30.48-16.36 37.88-19.08"/><path fill="#323b42" d="M1759.18 1738.64c11.46 1.29 27.19 7.48 37.73 4.03-.04.91-.13 1.8-.23 2.71.99.99 25.16 4.83 28.37 5.78 1.46.43 3.82.26 2.84 2.19-11.59-1.56-24.24-4.58-36.02-6.56-3.47 1.36-16.91 6.27-20.09 7.03-.15-.64-.28-.71-.12-1.17.61-.49 13.76-5.75 16.22-6.93-3.07-.7-28.41-5.09-29-6.16.04-.38-.02-.11.3-.92"/><path fill="#f9f9f8" d="M1317.56 1911.64c9.46 1.86 12.8 4.94 22.37 3.09 1.12 2.25-2.57 2.41 4.48 5.07 5.1 1.92 24.01 5.91 26.17 9.47 8.45 4.12 45.51 15.14 55.46 18.24l113.61 35.13 99.49 31.35c11.76 3.59 30.21 9.72 41.84 12.28 5.71-2.96 26.03 10.81 34.92 6.09.62-.3 1.24-.6 1.87-.88l.19 2.08c-4.12 2.4 4.52 3.47 6.34 3.95 6.47 1.07 25.12 7.62 30.98 10.49h-700.05c-6.03-4.01-18.02-8.69-25.23-10.05-1.33-1.57-1.47-1.31-.36-3.17 4.01-.6 21.47-7.79 26.73-9.81l54.41-20.68q70.98-26.865 141.66-54.51c16.53-6.38 54.21-19.54 67.99-26.37 2.08-3.23 9.25-4.85 13.32-6.13-3.83-1.01-14.16-2.66-16.19-5.64"/><path fill="#617a8f" d="M1711.97 2035.98c6.56 1.34 6.37 2.36 12.33 1.53 6.47 1.07 25.12 7.62 30.98 10.49h-71.9c2.98-1.81 12.23-6.34 15.72-7.1 5.99-.16 7.19-1.8 12.87-4.92"/><path fill="#444e56" d="M1317.56 1911.64c9.46 1.86 12.8 4.94 22.37 3.09 1.12 2.25-2.57 2.41 4.48 5.07 5.1 1.92 24.01 5.91 26.17 9.47-9.2-1.86-20.69-6.52-30.09-9.17l-5.45-1.5c-4.55 1.55-10.06 3.57-14.61 4.81 2.08-3.23 9.25-4.85 13.32-6.13-3.83-1.01-14.16-2.66-16.19-5.64"/><path fill="#323b42" d="M1680.98 2026.27c5.71-2.96 26.03 10.81 34.92 6.09.62-.3 1.24-.6 1.87-.88l.19 2.08c-4.12 2.4 4.52 3.47 6.34 3.95-5.96.83-5.77-.19-12.33-1.53-5.68 3.12-6.88 4.76-12.87 4.92 3.63-1.87 6.3-3.39 9.78-5.47-7.18-2.51-21.77-6.51-27.9-9.16"/><path fill="#f9f9f8" d="M1939.52 1909.77c6.14 1.48 7.57 1.93 12.98-1.07-.19.45-.38.9-.58 1.34-.1.23-.24.44-.35.66-.25.5-.49 1.17-.28 1.73.08.18 47.14 11.76 51.12 12.68 13.61 3.14 26.98 7.5 40.61 10.6.94.21 1.9.37 2.84.57.72.16 1.43.41 2.14.63V2048h-292.72c-5.86-2.87-24.51-9.42-30.98-10.49-1.82-.48-10.46-1.55-6.34-3.95l-.19-2.08c1.68-1.89 12.86-7.03 16.3-6.86 3.95-1.3 16.33-8.16 20.53-10.36l41.63-21.77 80.14-42.09c19.66-10.17 45.22-22.7 63.88-33.86.82-1.64 1.24-2.54 1.88-4.25z"/><path fill="#323b42" d="M1939.52 1909.77c6.14 1.48 7.57 1.93 12.98-1.07-.19.45-.38.9-.58 1.34-.1.23-.24.44-.35.66-.25.5-.49 1.17-.28 1.73.08.18 47.14 11.76 51.12 12.68 13.61 3.14 26.98 7.5 40.61 10.6.94.21 1.9.37 2.84.57.72.16 1.43.41 2.14.63v1.76c-29.83-6.5-69.87-19.49-101.02-24.53-1.65-.27-5.07 1.53-6.73 2.4.82-1.64 1.24-2.54 1.88-4.25z"/><path fill="#444e56" d="M1717.77 2031.48c1.68-1.89 12.86-7.03 16.3-6.86-5.06 3-9.98 5.14-15.02 8.28l-1.09.66z"/><path fill="#485966" d="M1435.8 1878.37c-1.95 3.68-11.51 6.36-15.68 7.87-20.6 7.47-41.21 15.12-61.6 23.17-3.08 1.22-7.95 4.11-10.51 2.27 4.66-2.36 22.41-8.94 27.97-10.96 19.46-7.09 40.34-15.83 59.82-22.35"/><path fill="#111314" d="M1586.5 1820.94c6.18-.4 5.31-1.95 11.77-1.47l-5.18 1.92c-4.79 2.27-19.26 7.25-24.4 7.1l14.8-5.63c1-.65 2-1.29 3.01-1.92"/><path fill="#617a8f" d="M387.517 1646.1c4.244-.44 17.372-2.53 20.471-1.95 13.667 2.55 28.309 8.66 41.981 12.61 35.391 10.22 70.259 19.86 105.314 31.28 3.955 2.25 12.498 4.43 16.901 3.66 9.696 1.83 27.503 7.49 37.86 10.47a5848 5848 0 0 1 76.706 22.52c10.778 3.21 54.312 15.24 61.569 18.83l.898.21c5.992 1.47 11.487 3.48 17.677 4.19 6.408 3.92 56.425 16.36 57.479 17.96-.13.38-.261.76-.391 1.15 15.397 5.4 53.457 16.71 69.006 20.23 28.501 9.64 59.442 17.24 88.247 26.25 10.381 3.25 27.165 7.23 36.665 11.07l-2.01 2.32c-5.61.17-42.564 11.39-49.849 13.5a13039 13039 0 0 0-156.068 46.42l-60.82 17.93c-5.04 1.52-21.23 6.08-25.289 7.97.742 1.81-1.115 1.81-2.854 2.19-15.629 3.47 11.677 6.17 15.799 12.62l3.195 1.21c7.079 3.05 32.222 13.35 39.117 15.16 39.041 17.33 91.567 35.14 132.406 50.97l64.601 24.75c5.001 1.89 25.352 9.9 29.742 10.82 5.2 2.11 10.63 3.04 15.06 6.53-4.55 1.33-14.76 4.85-19.12 6.62-4.03.95-8.188 2.9-12.085 4.41H0v-342.64c13.327-1.55 92.048-13.46 101.249-17.83l2.719 1.72c3.781.41 3.755.46 7.315 1.91.524-.51 1.044-1.01 1.56-1.52 1.664-.79 3.892-1.6 5.646-2.29 4.999.24 24.657-3.34 31.227-4.38l64.055-9.82 118.323-18.04c9.322-1.4 49.208-6.86 55.423-9.01"/><path fill="#617a8f" d="M387.517 1646.1c4.244-.44 17.372-2.53 20.471-1.95 13.667 2.55 28.309 8.66 41.981 12.61 35.391 10.22 70.259 19.86 105.314 31.28 3.955 2.25 12.498 4.43 16.901 3.66 9.696 1.83 27.503 7.49 37.86 10.47a5848 5848 0 0 1 76.706 22.52c10.778 3.21 54.312 15.24 61.569 18.83l.898.21c5.992 1.47 11.487 3.48 17.677 4.19 6.408 3.92 56.425 16.36 57.479 17.96-.13.38-.261.76-.391 1.15 15.397 5.4 53.457 16.71 69.006 20.23 28.501 9.64 59.442 17.24 88.247 26.25 10.381 3.25 27.165 7.23 36.665 11.07l-2.01 2.32c-5.61.17-42.564 11.39-49.849 13.5a13039 13039 0 0 0-156.068 46.42l-60.82 17.93c-5.04 1.52-21.23 6.08-25.289 7.97-12.039 2.87-8.141 4.14-19.446.77-2.912-1.69-15.333-6.03-19.078-7.42l-38.614-14.55-86.987-32.6c-10.975-4.1-33.532-13.19-44.018-15.88-4.862-3.44-46.607-16.56-51.252-20.41l5.926-2.37c-1.738-.06-1.276-.09-2.681 0l-3.691.26c-14.269 1.11-57.45-22.78-65.037-20.2-16.748-4.92-44.256-16.22-61.226-22.72-22.03-8.44-49.97-17.72-70.912-27.1-2.207-3.31-2.996-2-5.519-3.9-.937-.71 1.735-1.41-.936-2.8-7.643.47-7.848.4-15.193-2.33-4-2.35-26.004-10.62-31.408-12.6-17.383-6.35-36.366-14.63-53.797-20.23-9.378-4.94-41.281-15.21-47.152-19 1.664-.79 3.892-1.6 5.646-2.29 4.999.24 24.657-3.34 31.227-4.38l64.055-9.82 118.323-18.04c9.322-1.4 49.208-6.86 55.423-9.01"/><path fill="#f9f9f8" d="m748.319 1743.52.898.21c5.992 1.47 11.487 3.48 17.677 4.19 6.408 3.92 56.425 16.36 57.479 17.96-.13.38-.261.76-.391 1.15 15.397 5.4 53.457 16.71 69.006 20.23 28.501 9.64 59.442 17.24 88.247 26.25 10.381 3.25 27.165 7.23 36.665 11.07l-2.01 2.32c-5.61.17-42.564 11.39-49.849 13.5a13039 13039 0 0 0-156.068 46.42l-60.82 17.93c-5.04 1.52-21.23 6.08-25.289 7.97-12.039 2.87-8.141 4.14-19.446.77-2.912-1.69-15.333-6.03-19.078-7.42l-38.614-14.55-86.987-32.6c-10.975-4.1-33.532-13.19-44.018-15.88-4.862-3.44-46.607-16.56-51.252-20.41l5.926-2.37c5.584.37 262.584-61.46 275.651-65.88-1.17-3.45 6.083-1.72 9.768-3.66 6.904-3.63-4.573-2.87-7.495-7.2"/><path fill="#444e56" d="m748.319 1743.52.898.21c5.992 1.47 11.487 3.48 17.677 4.19 6.408 3.92 56.425 16.36 57.479 17.96-.13.38-.261.76-.391 1.15-5.815-1.2-15.439-4.39-21.458-6.15l-1.639-.48-1.864-.53c-8.001-2.29-25.736-8.07-34.019-9.41-1.253-.2-15.583 3.43-18.956 3.92-1.17-3.45 6.083-1.72 9.768-3.66 6.904-3.63-4.573-2.87-7.495-7.2"/><path fill="#f9f9f8" d="M387.517 1646.1c4.244-.44 17.372-2.53 20.471-1.95 13.667 2.55 28.309 8.66 41.981 12.61 35.391 10.22 70.259 19.86 105.314 31.28-14.413 5.4-36.816 7.5-52.495 10.53-40.551 7.83-89.841 15.54-129.567 23.63-16.178 3.29-107.454 18.01-112.828 21.6-7.643.47-7.848.4-15.193-2.33-4-2.35-26.004-10.62-31.408-12.6-17.383-6.35-36.366-14.63-53.797-20.23-9.378-4.94-41.281-15.21-47.152-19 1.664-.79 3.892-1.6 5.646-2.29 4.999.24 24.657-3.34 31.227-4.38l64.055-9.82 118.323-18.04c9.322-1.4 49.208-6.86 55.423-9.01"/><path fill="#f9f9f8" d="m101.249 1687.53 2.719 1.72c3.781.41 3.755.46 7.315 1.91.524-.51 1.044-1.01 1.56-1.52 5.871 3.79 37.774 14.06 47.152 19 17.431 5.6 36.414 13.88 53.797 20.23 5.404 1.98 27.408 10.25 31.408 12.6 7.345 2.73 7.55 2.8 15.193 2.33 2.671 1.39-.001 2.09.936 2.8 2.523 1.9 3.312.59 5.519 3.9 20.942 9.38 48.882 18.66 70.912 27.1 16.97 6.5 44.478 17.8 61.226 22.72 18.423 7 38.132 14.04 56.185 21.61-50.694 14.38-106.047 25.29-157.64 39.5-10.681 1.75-28.137 6.75-39.004 9.53l-70.19 17.94c-10.982 2.8-52.053 11.55-60.484 15.81-8.702 2.2-17.27 4.33-25.882 6.89a6642 6642 0 0 0-83.432-41.92l-.632-.14c-5.21-.27-13.1-5.5-17.907-8.29v-155.89c13.327-1.55 92.048-13.46 101.249-17.83"/><path fill="#617a8f" d="m101.249 1687.53 2.719 1.72c3.781.41 3.755.46 7.315 1.91.524-.51 1.044-1.01 1.56-1.52 5.871 3.79 37.774 14.06 47.152 19 17.431 5.6 36.414 13.88 53.797 20.23 5.404 1.98 27.408 10.25 31.408 12.6 1.281 2.7 2.487 2.02 2.857 4.17-1.12 1.14-12.786 2.7-17.317 5.62-4.303 1.76-47.58 9.7-54.361 11.02l-118.388 23.39c-15.004 2.99-44.052 7.84-57.991 11.73v-92.04c13.327-1.55 92.048-13.46 101.249-17.83"/><path fill="#444e56" d="m101.249 1687.53 2.719 1.72c-6.478 2.35-18.612 3.99-25.78 5.2q-21.398 3.75-42.896 6.9c-9.033 1.33-26.49 3.67-35.292 6.18v-2.17c13.327-1.55 92.048-13.46 101.249-17.83"/><path fill="#485966" d="M111.283 1691.16c.524-.51 1.044-1.01 1.56-1.52 5.871 3.79 37.774 14.06 47.152 19-2.969 2.2-33.121-11.87-38.023-13.15-3.865-1.02-7.297-2.24-10.689-4.33"/><path fill="#444e56" d="M245.2 1741.47c7.345 2.73 7.55 2.8 15.193 2.33 2.671 1.39-.001 2.09.936 2.8 2.523 1.9 3.312.59 5.519 3.9-4.305-1.38-8.159-2.85-12.367-4.29-7.843 1.86-15.751 3.93-23.741 5.05 4.531-2.92 16.197-4.48 17.317-5.62-.37-2.15-1.576-1.47-2.857-4.17"/><path fill="#323b42" d="M0 1859.47c5.937 3.61 12.217 6.18 17.907 10.07-5.21-.27-13.1-5.5-17.907-8.29z"/><path fill="#f9f9f8" d="M723.864 1912.72c.742 1.81-1.115 1.81-2.854 2.19-15.629 3.47 11.677 6.17 15.799 12.62l3.195 1.21c7.079 3.05 32.222 13.35 39.117 15.16 39.041 17.33 91.567 35.14 132.406 50.97l64.601 24.75c5.001 1.89 25.352 9.9 29.742 10.82 5.2 2.11 10.63 3.04 15.06 6.53-4.55 1.33-14.76 4.85-19.12 6.62-4.03.95-8.188 2.9-12.085 4.41H362.387c-3.023-2.21-19.511-10.77-23.148-11.94 2.133-2.95 5.613-2.92 9.757-4.24l1.092-.35c8.806-1.53 44.257-13.72 55.906-17.41l112.63-35.28a8101 8101 0 0 1 114.105-35.4c18.597-5.64 54.106-15.65 71.559-22.89.365-.62.751-1.45 1.358-1.91.47-.37 2.021-1.05 1.945-1.47-.086-.33-.371-.6-.647-.79-1.318-.9-1.72-1.48-2.526-2.83 11.305 3.37 7.407 2.1 19.446-.77"/><path fill="#323b42" d="M723.864 1912.72c.742 1.81-1.115 1.81-2.854 2.19-15.629 3.47 11.677 6.17 15.799 12.62l-1.893-.69c-4.475-1.62-8.92-3.31-13.333-5.09-9.536-3.83-8.006-3.55-17.295-1.26.365-.62.751-1.45 1.358-1.91.47-.37 2.021-1.05 1.945-1.47-.086-.33-.371-.6-.647-.79-1.318-.9-1.72-1.48-2.526-2.83 11.305 3.37 7.407 2.1 19.446-.77"/><path fill="#f9f9f8" d="M0 1861.25c4.807 2.79 12.698 8.02 17.907 8.29l.632.14a6638 6638 0 0 1 83.432 41.92c8.612-2.56 17.18-4.69 25.882-6.89l.021 1.14c-7.951 2.87-16.153 4.17-24.209 6.46 10.365 5.32 86.364 43.67 88.093 48.24 14.119 9.37 138.051 70.69 139.162 75.03 2.77-1.6 15.564-4.26 19.168-4.11l-1.092.35c-4.144 1.32-7.624 1.29-9.757 4.24 3.637 1.17 20.125 9.73 23.148 11.94H0z"/><path fill="#617a8f" d="M0 1861.25c4.807 2.79 12.698 8.02 17.907 8.29l.632.14c.427 1.6.604 1.98 2.377 2.89 25.902 13.31 52.456 25.91 78.138 39.59l-.92.23a818 818 0 0 0-18.614 4.85l-5.023 1.42c-.507.14-1.288.41-1.709.72.098.3.196.61.294.91-3.068 1.6-8.602 2.54-12.105 3.5l-4 .99c-4.16 1.05-8.34 2.03-12.498 3.09l-4 1.01-4 1.03-30.5 8c-2.026.5-3.992 1.1-5.979 1.73zm339.239 174.81c3.637 1.17 20.125 9.73 23.148 11.94h-66.232c4.644-3.03 10.613-2.07 14.473-4.45l1.495-.88c6.347-2.25 17.549-5.17 24.386-6.45.982-.19.942.41 2.73-.16"/><path fill="#323b42" d="M18.54 1869.68a6644 6644 0 0 1 83.431 41.92c8.612-2.56 17.18-4.69 25.882-6.89l.021 1.14c-7.951 2.87-16.153 4.17-24.209 6.46 10.365 5.32 86.364 43.67 88.093 48.24-29.821-14.13-60.271-32.93-90.593-47.3a1694 1694 0 0 1-28.083 7.04c-.098-.3-.196-.61-.294-.91.42-.31 1.202-.58 1.71-.72l5.022-1.42a818 818 0 0 1 18.614-4.85l.92-.23c-25.682-13.68-52.236-26.28-78.138-39.59-1.773-.91-1.95-1.29-2.377-2.89"/><path fill="#111314" d="M330.92 2035.58c2.77-1.6 15.564-4.26 19.168-4.11l-1.092.35c-4.144 1.32-7.624 1.29-9.757 4.24-1.788.57-1.748-.03-2.73.16-6.837 1.28-18.039 4.2-24.386 6.45l-4.441-.36a897 897 0 0 1 23.238-6.73"/><path fill="#485966" d="M288.687 2048c5.851-1.97 12.994-4.28 18.995-5.69l4.441.36-1.495.88c-3.86 2.38-9.829 1.42-14.473 4.45z"/><path fill="#323b42" d="M398.986 1800.32c7.587-2.58 50.768 21.31 65.037 20.2l3.691-.26c1.405-.09.943-.06 2.681 0l-5.926 2.37c4.645 3.85 46.39 16.97 51.252 20.41-4.436 1.31-49.044-17.68-58.244-19.74-14.988 4.21-154.716 38.94-159.946 38.13 51.593-14.21 106.946-25.12 157.64-39.5-18.053-7.57-37.762-14.61-56.185-21.61"/><path fill="#617a8f" d="M883.975 1524.82c2.049-5.73 6.248-10.26 10.786-14.12l.597 1.75c-7.863 6.68-10.194 11.62-12.141 21.69 3.088 2.13 22.79.93 27.953.88l73.69-.29c9.481 0 29.64-.52 38.65.39l-.42 1.89 11.83.14c8.09 1.51 17.7-.81 23.06 2.33 1.06-.25 1.86-.2 3.01-.23 4.83-1.06 9.39-1.87 14.35-1.98 29.92-.64 59.99.31 89.89-.48 4.47 1.54 10.58 4.45 14.86 6.67.36.35 2.48 2.49 2.83 2.69 8.74 11.9 11.07 14.13 11.35 28.6 6.41.12 12.75 2.14 19.03 3.74l5.77.72c.56.04 1.11.08 1.67.13 29.75-7.19 78.81-14.41 109.4-18.93l2.11.91c6.21-.86 32.76-1.43 35.15-3.02q42.9 4.515 85.68 9.99c6.52.81 28.48 2.97 33.56 4.27 7.01.49 21.32 1.59 27.87 2.65l.51 2.18c-5.75 2.07-15.03 4.25-21.12 5.62-10.46 3.71-78.02 21.52-89.16 22.83l-.77-1.29c-6.04.97-7.53 1.38-13.15 3.08-43.73 9.86-91.9 20.59-135.14 31.79-1.6.35-3.55.65-4.97 1.33l-2.87 2.77c18.69 5.28 47.9 9.16 68.08 13.64l-.12 1.16c20.25 6.31 158.93 26.1 164.44 31.53l-1.19.21c-28.47 8.29-56.61 16.3-85.05 24.91l-1.58.47c-.89.27-1.85.65-2.73.98-33.44 8.09-68.43 20.29-101.63 29.99-6.61 2.1-9.22 1.27-15.87.31l-.2.96c2.65 1.44 3.24 1.38 5.11 3.6-17.98 5.97-39.04 11.48-57.58 16.93l-94.35 28.22c-21.37 6.42-42.79 12.72-64.23 18.92-5.23 1.51-22.79 6.93-27.38 7.09-2.76 1.32-3.79.73-4.47 3.5-.94.55-11.72.92-13.2.96l2.01-2.32c-9.5-3.84-26.284-7.82-36.665-11.07-28.805-9.01-59.746-16.61-88.247-26.25-15.549-3.52-53.609-14.83-69.006-20.23.13-.39.261-.77.391-1.15-1.054-1.6-51.071-14.04-57.479-17.96-6.19-.71-11.685-2.72-17.677-4.19l-.898-.21c-7.257-3.59-50.791-15.62-61.569-18.83a5848 5848 0 0 0-76.706-22.52c-10.357-2.98-28.164-8.64-37.86-10.47-2.314-.82-3.27-1.13-5.424-2.26l2.036-1.58c7.86-.41 20.88-3.25 29.182-4.79l51.298-9.51 54.678-9.93c6.42-1.17 22.027-3.63 27.471-5.47 16.666-1.14 67.715-14.28 80.025-12.96 3.112-1.67 5.613-2.86 8.836-4.31-5.471.58-11.81 1.28-17.216.18-23.615-4.78-47.783-10.8-71.279-16.23-16.462-3.75-32.89-7.64-49.282-11.68-6.88-1.69-16.529-3.51-22.732-5.83l.259-1.57-.702-1.48c-11.017 1.36-16.688-2.38-23.642-.71-15.187-2.97-34.732-8.82-50.165-12.52-11.189-2.68-30.57-7.05-40.674-10.6-.138-.67-.167-1.95-1.592-2.19-.244-.3-.488-.61-.732-.91.912-2.77 9.59-1.41 10.805-2.86l-.025-.13c-.372-.34-.897-.47-1.382-.66l2.011-.4c8.843-.77 17.547-2.01 26.406-2.69 4.955-1.17 25.926-3.29 32.002-3.81 10.684-.93 32.311-4.59 42.106-4.53l5.781-1.02c8.503-.67 23.734-1.82 31.682-3.48l-1.443-2.19h-2.049c1.86-1.18 18.588.62 22.95.51l.231 1.02 1.38.88c3.423-.71 5.659-.96 9.09-1.32l86.634-9.4c8.197-.88 34.971-3.19 41.94-4.92-6.503-.93 2.046-3.92 3.684-4.71 8.123 1.07 9.647.37 16.737 0 9.198-.49 9.489.39 11.861-9.7.468-1.19.702-1.89 1.045-3.12"/><path fill="#617a8f" d="M731.425 1658.16c16.666-1.14 67.715-14.28 80.025-12.96a4222 4222 0 0 0 90.957 20.68c7.957 1.73 29.601 7.06 36.09 7.7 6.021-.6 28.488 4.57 35.528 6.28l4 .95c10.991 2.59 25.135 4.64 35.635 7.92 6.28 1.96 21.26.79 20.66.51.31.49.16 1.01.14 1.71l-1.02.15-.01 1.87c5.36.14 12.43 2.33 17.79 3.56 57.57 12.46 115.04 25.41 172.4 38.83 8.26 1.93 43.56 8.94 48.57 11.36l-.2.96c2.65 1.44 3.24 1.38 5.11 3.6-17.98 5.97-39.04 11.48-57.58 16.93l-94.35 28.22c-21.37 6.42-42.79 12.72-64.23 18.92-5.23 1.51-22.79 6.93-27.38 7.09-2.76 1.32-3.79.73-4.47 3.5-.94.55-11.72.92-13.2.96l2.01-2.32c-9.5-3.84-26.284-7.82-36.665-11.07-28.805-9.01-59.746-16.61-88.247-26.25-15.549-3.52-53.609-14.83-69.006-20.23.13-.39.261-.77.391-1.15-1.054-1.6-51.071-14.04-57.479-17.96-6.19-.71-11.685-2.72-17.677-4.19l-.898-.21c-7.257-3.59-50.791-15.62-61.569-18.83a5848 5848 0 0 0-76.706-22.52c-10.357-2.98-28.164-8.64-37.86-10.47-2.314-.82-3.27-1.13-5.424-2.26l2.036-1.58c7.86-.41 20.88-3.25 29.182-4.79l51.298-9.51 54.678-9.93c6.42-1.17 22.027-3.63 27.471-5.47"/><path fill="#f9f9f8" d="M731.425 1658.16c16.666-1.14 67.715-14.28 80.025-12.96a4222 4222 0 0 0 90.957 20.68c7.957 1.73 29.601 7.06 36.09 7.7 6.021-.6 28.488 4.57 35.528 6.28l4 .95c10.991 2.59 25.135 4.64 35.635 7.92 6.28 1.96 21.26.79 20.66.51.31.49.16 1.01.14 1.71l-1.02.15c-3.01 1.31-38.52 6.87-41.548 6.42-34.064 6.08-72.871 15.56-106.808 23.39a10155 10155 0 0 0-118.19 27.01c-6.19-.71-11.685-2.72-17.677-4.19l-.898-.21c-7.257-3.59-50.791-15.62-61.569-18.83a5848 5848 0 0 0-76.706-22.52c-10.357-2.98-28.164-8.64-37.86-10.47-2.314-.82-3.27-1.13-5.424-2.26l2.036-1.58c7.86-.41 20.88-3.25 29.182-4.79l51.298-9.51 54.678-9.93c6.42-1.17 22.027-3.63 27.471-5.47"/><path fill="#323b42" d="M938.497 1673.58c6.021-.6 28.488 4.57 35.528 6.28l4 .95c10.991 2.59 25.135 4.64 35.635 7.92 6.28 1.96 21.26.79 20.66.51.31.49.16 1.01.14 1.71l-1.02.15c-3.01 1.31-38.52 6.87-41.548 6.42 9.198-2.06 18.398-3.93 27.618-5.88-5-1.17-10.02-2.27-15.03-3.41l-16.228-3.67c-.588-.14-1.177-.28-1.766-.43l-9.009-1.91c-12.861-2.82-26.311-5.17-38.98-8.64"/><path fill="#444e56" d="m892.988 1787.26 1.975-.93c11.707 5.19 119.197 32.42 123.507 36.56l-.57 1.69c-9.5-3.84-26.284-7.82-36.665-11.07-28.805-9.01-59.746-16.61-88.247-26.25"/><path fill="#111314" d="M1018.47 1822.89c7.75 2.48 8.14-.85 15.09-.45-2.76 1.32-3.79.73-4.47 3.5-.94.55-11.72.92-13.2.96l2.01-2.32z"/><path fill="#323b42" d="M1033.43 1692.97c5.36.14 12.43 2.33 17.79 3.56-3.89.71-16.95-1.05-19.65-3l.02-.09c.51-.3 1.28-.37 1.84-.47"/><path fill="#f9f9f8" d="M1200.24 1653.32c6.4-1.15 33.62-7.66 37.21-7.7 23.26-.25 54.93 10.64 78.35 12.7 20.25 6.31 158.93 26.1 164.44 31.53l-1.19.21c-28.47 8.29-56.61 16.3-85.05 24.91l-1.58.47c-.89.27-1.85.65-2.73.98-33.44 8.09-68.43 20.29-101.63 29.99-6.61 2.1-9.22 1.27-15.87.31-5.01-2.42-40.31-9.43-48.57-11.36-57.36-13.42-114.83-26.37-172.4-38.83-5.36-1.23-12.43-3.42-17.79-3.56l.01-1.87 1.02-.15c28.13-5.55 59.25-13.92 87.94-19.99 17.41-3.68 61.84-12.25 77.84-17.64"/><path fill="#617a8f" d="M1017.51 1608.2c-1.2-.48 4.85 1.34 3.05 2.13 3.1-1.36 13.43 1.02 16.1-.16 22.63 2.99 45.77 7.32 68.47 10.44 4.52.62 33.35 4.83 36.26 6.1 27.11 2.51 86.8 18.73 109.32 14.04l-2.87 2.77c18.69 5.28 47.9 9.16 68.08 13.64l-.12 1.16c-23.42-2.06-55.09-12.95-78.35-12.7-3.59.04-30.81 6.55-37.21 7.7-16 5.39-60.43 13.96-77.84 17.64-28.69 6.07-59.81 14.44-87.94 19.99.02-.7.17-1.22-.14-1.71.6.28-14.38 1.45-20.66-.51-10.5-3.28-24.644-5.33-35.635-7.92l-4-.95c-7.04-1.71-29.507-6.88-35.528-6.28-6.489-.64-28.133-5.97-36.09-7.7a4222 4222 0 0 1-90.957-20.68c3.112-1.67 5.613-2.86 8.836-4.31 6.992-3 22.021-3.57 28.272-5.47 23.151-7.03 158.802-19.53 168.952-27.22"/><path fill="#444e56" d="M1141.39 1626.71c27.11 2.51 86.8 18.73 109.32 14.04l-2.87 2.77c18.69 5.28 47.9 9.16 68.08 13.64l-.12 1.16c-23.42-2.06-55.09-12.95-78.35-12.7-3.59.04-30.81 6.55-37.21 7.7 2.15-2.81 25.28-7.17 32.09-9.6-11.09-2.68-87.37-13.81-90.94-17.01"/><path fill="#f9f9f8" d="M1037.67 1607.86c18.23-1.87 38.4-5.47 56.69-8.15l83.01-11.54c19.97-2.8 38.96-8.93 58.77-4.91 49.7 10.09 104.15 12.69 153.43 23.02.41.45.83.9 1.25 1.35-43.73 9.86-91.9 20.59-135.14 31.79-1.6.35-3.55.65-4.97 1.33-22.52 4.69-82.21-11.53-109.32-14.04-2.91-1.27-31.74-5.48-36.26-6.1-22.7-3.12-45.84-7.45-68.47-10.44-.7-.31-1.41-.35-1.46-1.18.57-.86 1.38-.84 2.47-1.13m-377.634-2.1c39.641-3.92 82.361-12.39 122.118-17.05 12.806-1.51 42.82-7.63 54.363-7.16 6.22 1.01 11.927 2.29 18.263 2.77 3.751 1.06 4.124 1.05 8.062 1.31 8.593.92 17.359 2.96 25.931 3.7 14.814 4.22 54.268 8 71.638 10.85 11.315 1.85 44.909 7.19 54.879 7.7l2.22.32c-10.15 7.69-145.801 20.19-168.952 27.22-6.251 1.9-21.28 2.47-28.272 5.47-5.471.58-11.81 1.28-17.216.18-23.615-4.78-47.783-10.8-71.279-16.23-16.462-3.75-32.89-7.64-49.282-11.68-6.88-1.69-16.529-3.51-22.732-5.83zm223.939-80.94c2.049-5.73 6.248-10.26 10.786-14.12l.597 1.75c-7.863 6.68-10.194 11.62-12.141 21.69 3.088 2.13 22.79.93 27.953.88l73.69-.29c9.481 0 29.64-.52 38.65.39l-.42 1.89 11.83.14c8.09 1.51 17.7-.81 23.06 2.33-15.51 5.19-32.51 12.65-34.37 31.17l-.98 3.14c-8.19 3.69-127.047-2.94-147.99 1.21-4.566 1.49-16.432 2.75-20.8 1.68 8.201-5.03 2.097-3.33 4.396-16.1 1.425-7.92 5.001-12.89 9.423-19.27-5.84.5-11.221.63-17.011 1.04-6.503-.93 2.046-3.92 3.684-4.71 8.123 1.07 9.647.37 16.737 0 9.198-.49 9.489.39 11.861-9.7.468-1.19.702-1.89 1.045-3.12"/><path fill="#797778" d="M882.859 1537.81c-.038-1.86-.132-1.92.358-3.67 3.088 2.13 22.79.93 27.953.88l73.69-.29c9.481 0 29.64-.52 38.65.39l-.42 1.89-91.124.39c-10.909.16-40.282 1.41-49.107.41"/><path fill="#323b42" d="M883.975 1524.82c2.049-5.73 6.248-10.26 10.786-14.12l.597 1.75c-7.863 6.68-10.194 11.62-12.141 21.69-.49 1.75-.396 1.81-.358 3.67-5.145 1.59-9.774 3.19-14.771 5.24l-2.099 3.09c-6.925 10.28-6.255 17.41-5.507 28.72 4.603.25 9.501.1 14.158.14-4.566 1.49-16.432 2.75-20.8 1.68 8.201-5.03 2.097-3.33 4.396-16.1 1.425-7.92 5.001-12.89 9.423-19.27-5.84.5-11.221.63-17.011 1.04-6.503-.93 2.046-3.92 3.684-4.71 8.123 1.07 9.647.37 16.737 0 9.198-.49 9.489.39 11.861-9.7.468-1.19.702-1.89 1.045-3.12"/><path fill="#071725" d="M1165.23 1536.79c4.47 1.54 10.58 4.45 14.86 6.67.36.35 2.48 2.49 2.83 2.69 8.74 11.9 11.07 14.13 11.35 28.6-4.08 3-122.61-.13-140.69 1.41-8.11.03-21.6.46-29.24-.55l-.73-4.96c1.86-18.52 18.86-25.98 34.37-31.17 1.06-.25 1.86-.2 3.01-.23 4.83-1.06 9.39-1.87 14.35-1.98 29.92-.64 59.99.31 89.89-.48"/><path fill="#f9f9f8" d="M850.648 1542.35c5.79-.41 11.171-.54 17.011-1.04-4.422 6.38-7.998 11.35-9.423 19.27-2.299 12.77 3.805 11.07-4.396 16.1-5.947-.43-19.289 2.75-22.996 2.02-14.642-2.92-111.438-17.39-117.86-20.71 3.423-.71 5.659-.96 9.09-1.32l86.634-9.4c8.197-.88 34.971-3.19 41.94-4.92"/><path fill="#323b42" d="M1194.27 1574.75c6.41.12 12.75 2.14 19.03 3.74-2.23.73-32.3-1.53-37.96-1.53l-78.36-.11c-13.43-.06-30.2.3-43.4-.69 18.08-1.54 136.61 1.59 140.69-1.41"/><path fill="#444e56" d="M1493.9 1583.01c-.07-.35-.15-.71-.23-1.06 1.71-2.16 12.8-2.61 12.39-4.95-2.74-2.44-17.48-1.77-20.97-3.2l.07-.02c-.68-.39-.45-.15-.78-.59.03-.13.07-.27.1-.4.72-.43 1.22-.26 2.16-.23 7.01.49 21.32 1.59 27.87 2.65l.51 2.18c-5.75 2.07-15.03 4.25-21.12 5.62"/><path fill="#111314" d="M688.423 1555.58c1.86-1.18 18.588.62 22.95.51l.231 1.02c-.362.8-.685 1.94-1.201 2.63-.305.03-18.658-.49-18.176-.3.356-.52 1.187-1.01 1.648-1.34l-1.96-.33-1.443-2.19z"/><path fill="#d5d6d4" d="M690.472 1555.58c1.71.35 4.387.72 5.784 1.63.019.09.039.17.058.26-.638.52-1.659.48-2.439.63l-1.96-.33z"/><path fill="#111314" d="M1015.29 1607.88c.65-.49 21.43-.55 22.38-.02-1.09.29-1.9.27-2.47 1.13.05.83.76.87 1.46 1.18-2.67 1.18-13-1.2-16.1.16 1.8-.79-4.25-2.61-3.05-2.13z"/><path fill="#323b42" d="M862.842 1585.63c4.039-2.41 27.164.91 25.931 3.7-8.572-.74-17.338-2.78-25.931-3.7m-308.904-12.33c8.843-.77 17.547-2.01 26.406-2.69.578.18 1.482.37 2.027.76l.059.12c-.216.4-23.972 4.8-28.492 1.81m282.579 8.25c3.881-1.04 19.899-.61 18.263 2.77-6.336-.48-12.043-1.76-18.263-2.77"/><path fill="#6f8391" d="m654.452 1562.27 5.781-1.02c3.887 2.66-1.289 4.12-5.781 1.02"/><path fill="#617a8f" d="M248.605 1570.89c3.563-1.38 26.723-3.29 31.589-3.7 49.626-4.15 99.998-11.21 149.643-14.08l1.802 1.73 1.846-.06c4.293-.12 9.743-.05 13.999.49l.758-1.2c10.508 2.02 66.377 14.81 73.861 18.6-.37 2.91 1.944.73 4.911 3.21l.125.64c-.95 1.01-5.894.55-6.81 1.82.228.53.552.57 1.441 1.03 9.587-.75 11.952-1.51 21.258.67l1.825.41c10.104 3.55 29.485 7.92 40.674 10.6 15.433 3.7 34.978 9.55 50.165 12.52 6.954-1.67 12.625 2.07 23.642.71l.702 1.48-.259 1.57c6.203 2.32 15.852 4.14 22.732 5.83 16.392 4.04 32.82 7.93 49.282 11.68 23.496 5.43 47.664 11.45 71.279 16.23 5.406 1.1 11.745.4 17.216-.18-3.223 1.45-5.724 2.64-8.836 4.31-12.31-1.32-63.359 11.82-80.025 12.96-5.444 1.84-21.051 4.3-27.471 5.47l-54.678 9.93-51.298 9.51c-8.302 1.54-21.322 4.38-29.182 4.79l-2.036 1.58c2.154 1.13 3.11 1.44 5.424 2.26-4.403.77-12.946-1.41-16.901-3.66-35.055-11.42-69.923-21.06-105.314-31.28-13.672-3.95-28.314-10.06-41.981-12.61-3.099-.58-16.227 1.51-20.471 1.95-6.215 2.15-46.101 7.61-55.423 9.01l-118.323 18.04-64.055 9.82c-6.57 1.04-26.228 4.62-31.227 4.38-1.754.69-3.982 1.5-5.646 2.29-.516.51-1.036 1.01-1.56 1.52-3.56-1.45-3.534-1.5-7.315-1.91l-2.719-1.72c-9.201 4.37-87.922 16.28-101.249 17.83v-62.85c10.015-2.28 26.725-3.89 37.573-5.16 15.296-1.8 32.718-4.4 47.842-5.47 4.12-1.79 33.424-4.72 39.33-5.43 52.02-6.25 103.948-13.72 155.988-19.73-12.425-4.48-29.11-8.29-42.612-12.72.882-3.55-19.486-6.37-22.161-8-1.332-.81-31.969-6.81-15.462-9.26 7.758-1.16 19.833-.98 28.008-2.43 3.935-.73 17.858-1.77 20.099-3.42"/><path fill="#617a8f" d="M521.77 1579.37c9.587-.75 11.952-1.51 21.258.67l1.825.41c10.104 3.55 29.485 7.92 40.674 10.6 15.433 3.7 34.978 9.55 50.165 12.52 6.954-1.67 12.625 2.07 23.642.71l.702 1.48-.259 1.57c6.203 2.32 15.852 4.14 22.732 5.83 16.392 4.04 32.82 7.93 49.282 11.68 23.496 5.43 47.664 11.45 71.279 16.23 5.406 1.1 11.745.4 17.216-.18-3.223 1.45-5.724 2.64-8.836 4.31-12.31-1.32-63.359 11.82-80.025 12.96-5.444 1.84-21.051 4.3-27.471 5.47l-54.678 9.93-51.298 9.51c-8.302 1.54-21.322 4.38-29.182 4.79l-2.036 1.58c2.154 1.13 3.11 1.44 5.424 2.26-4.403.77-12.946-1.41-16.901-3.66-35.055-11.42-69.923-21.06-105.314-31.28-13.672-3.95-28.314-10.06-41.981-12.61-3.099-.58-16.227 1.51-20.471 1.95 2.568-1.59 12.609-3.1 16.413-3.81-33.769-11.39-70.283-18.42-104.062-30.44-5.379-1.91-17.21-3.02-20.582-6.65l.907-.83c6.934 2.02 9.253.02 14.903 1.17l-2.621 1.55 1.258.9c5.246-2.1 34.454-5.26 42.149-6.23 44.647-5.59 89.327-10.91 134.035-15.99 7.506-.9 46.904-4.94 51.853-6.4"/><path fill="#f9f9f8" d="M521.77 1579.37c9.587-.75 11.952-1.51 21.258.67l1.825.41c10.104 3.55 29.485 7.92 40.674 10.6 15.433 3.7 34.978 9.55 50.165 12.52l8.356 2.01c-5.522 2.23-29.458 5.48-36.9 6.74-41.31 6.99-83.128 11.65-124.592 17.63-4.04.59-27.289 3.62-29.303 4.63-14.466 1.36-29.686 5.82-44.127 5.71-17.478-.12-93.971-25.53-115.393-32.3 5.246-2.1 34.454-5.26 42.149-6.23 44.647-5.59 89.327-10.91 134.035-15.99 7.506-.9 46.904-4.94 51.853-6.4"/><path fill="#323b42" d="M403.93 1642.29c-33.769-11.39-70.283-18.42-104.062-30.44-5.379-1.91-17.21-3.02-20.582-6.65l.907-.83c6.934 2.02 9.253.02 14.903 1.17l-2.621 1.55 1.258.9c21.422 6.77 97.915 32.18 115.393 32.3 14.441.11 29.661-4.35 44.127-5.71l1.084 1c-12.804 3.3-27.413 2.76-42.392 6.92 44.36 18.72 101.031 27.22 146.666 44.19 2.317.86 6.297.61 8.795.38l1.39.79-2.036 1.58c2.154 1.13 3.11 1.44 5.424 2.26-4.403.77-12.946-1.41-16.901-3.66-35.055-11.42-69.923-21.06-105.314-31.28-13.672-3.95-28.314-10.06-41.981-12.61-3.099-.58-16.227 1.51-20.471 1.95 2.568-1.59 12.609-3.1 16.413-3.81"/><path fill="#444e56" d="M635.692 1603.57c6.954-1.67 12.625 2.07 23.642.71l.702 1.48-.259 1.57c6.203 2.32 15.852 4.14 22.732 5.83 16.392 4.04 32.82 7.93 49.282 11.68 23.496 5.43 47.664 11.45 71.279 16.23 5.406 1.1 11.745.4 17.216-.18-3.223 1.45-5.724 2.64-8.836 4.31-12.31-1.32-63.359 11.82-80.025 12.96 6.093-4.21 58.972-9.82 68.277-14.26l-.175-1.04c-4.599-2.4-49.918-12.24-58.005-14.04a2848 2848 0 0 1-72.407-16.88c-5.657-1.37-21.002-4.16-25.067-6.36z"/><path fill="#f9f9f8" d="M0 1645.96c33.898 13.36 67.433 28.4 101.249 41.57-9.201 4.37-87.922 16.28-101.249 17.83z"/><path fill="#323b42" d="M0 1642.51c10.015-2.28 26.725-3.89 37.573-5.16 15.296-1.8 32.718-4.4 47.842-5.47-3.079 2.31-75.583 10.65-85.415 11.85 22.326 8.88 97.107 43.87 115.613 43.42 1.624-.04.954-.04 2.876.2-1.754.69-3.982 1.5-5.646 2.29-.516.51-1.036 1.01-1.56 1.52-3.56-1.45-3.534-1.5-7.315-1.91l-2.719-1.72c-33.816-13.17-67.35-28.21-101.249-41.57z"/><path fill="#071725" d="M1116.04 1182.91c11.97 1.59 19.87 12.74 17.93 24.6a21 21 0 0 1-9.41 14.47c-9.94 6.25-34.92 2.96-47.89 3.08-.4 69.95-.41 139.91-.03 209.87l26.29-.03c-.1 22.96 3.56 39.16 19.77 56.66 14.34 15.49 30.58 14.57 40.57 33.18l1.24 3.57 1.13 3.62.08 2.51-.49 2.35c-29.9.79-59.97-.16-89.89.48-4.96.11-9.52.92-14.35 1.98-1.15.03-1.95-.02-3.01.23-5.36-3.14-14.97-.82-23.06-2.33l-11.83-.14.42-1.89c-1.17-7.81-.33-19.71-.62-27.89-.76-21.92 1.38-49.11-.38-70.58l-.42-1.4.27-1.16c1.12-4.18.73-34.74.73-40.47l-.21-107.93c-.08-19.4-.5-38.83.04-58.21.53-18.87 12.35-25.8 27.92-32.12-3.91-2.19-11.08-.61-18.12-1.49-3.55.01-5 .2-8.46-.82-2-3.61-1.23-4.26-1.24-9.06 29.28.99 63.71-.13 93.02-1.08"/><path fill="#323b42" d="M1062.83 1536.59c4.82-2.22 92.28-2.62 102.89-2.15l-.49 2.35c-29.9.79-59.97-.16-89.89.48-4.96.11-9.52.92-14.35 1.98z"/><path fill="#d5d6d4" d="M1034.92 1537.15c9.24-.39 18.94.27 27.91-.56l-1.84 2.66c-1.15.03-1.95-.02-3.01.23-5.36-3.14-14.97-.82-23.06-2.33m17.95-344.68.93 2.15c-1.15.33-1.8.49-2.96.74-3.91-2.19-11.08-.61-18.12-1.49 6.99-.89 13.56-.42 20.15-1.4"/><path fill="#686b6e" d="M1052.87 1192.47c5.76-1.16 10.2-.22 16.02.22-5.44.8-9.55 1.42-15.09 1.93z"/><path fill="#f9f9f8" d="M1608.37 1636.82c10.79.44 21.92 3.02 32.63 4.2 2.8.31 9.91-1.84 12.92-2.57l-.84.67c-1.51 1.2-3.17 2.17-4.68 3.35.32 2.22 15.68 2.56 18.1 3.37 3.56 1.19 24.65 3.43 26.17 4.58-.18.46-.62.59-1.36 1.01 10.7 2.88 46.34 7.13 59.18 9.12l139.32 21.28c6.1.92 42.8 6.03 46.32 7.77-4.98 2.09-10.17 3.96-15.03 6.02-14.92 4.4-42.31 15.59-58.07 21.69-20.3 7.86-47 16.97-66.12 25.36-10.54 3.45-26.27-2.74-37.73-4.03-8.27-3.8-30.45-5.14-37.41-7.39-25.83-8.36-220.45-36.24-228.98-43.06l1.25-.47c3.56-.96 9.82-2.92 13.27-4.19 17.28-3.58 48.15-14.79 66.73-19.7 11.98-3.18 48.88-13.27 58.33-17.33 1.25-1.99 1.5-1.4 2.85-3.02-.23-4.64-23.29-2.89-26.85-6.66"/><path fill="#444e56" d="M1608.37 1636.82c10.79.44 21.92 3.02 32.63 4.2 2.8.31 9.91-1.84 12.92-2.57l-.84.67c-1.51 1.2-3.17 2.17-4.68 3.35.32 2.22 15.68 2.56 18.1 3.37 3.56 1.19 24.65 3.43 26.17 4.58-.18.46-.62.59-1.36 1.01-13.66-1.13-28.59-4.51-42.32-6.33-9.72-1.29-6.63-.96-16.62 1.4 1.25-1.99 1.5-1.4 2.85-3.02-.23-4.64-23.29-2.89-26.85-6.66"/><path fill="#617a8f" d="m1769.94 1603.85-.8 2.25c8.02 2.95 55.56 7.69 67.18 9.11l141.76 17.45c21.24 2.62 49.32 5.04 69.92 8.63v63.93c-8.52-.76-99.21-15.2-103.14-17.08-2.45-2.02-6.39-.05-8.73 1.46-3.52-1.74-40.22-6.85-46.32-7.77l-139.32-21.28c-12.84-1.99-48.48-6.24-59.18-9.12.74-.42 1.18-.55 1.36-1.01-1.52-1.15-22.61-3.39-26.17-4.58-2.42-.81-17.78-1.15-18.1-3.37 1.51-1.18 3.17-2.15 4.68-3.35l.84-.67c7.82-3.38 32.94-10.06 42.36-12.75 14.74-4.21 33.06-10.61 47.49-14.16 3.78-1.35 7.6-2.57 11.37-3.98 1.51-.69 1.83-.8 3.19-1.77 4.45.09 7.47-.19 11.61-1.94"/><path fill="#f9f9f8" d="M2048 1645.46v59.76c-8.52-.76-99.21-15.2-103.14-17.08 26.46-7.63 56.78-24.17 83-33.96 6.7-2.5 13.48-6.49 20.14-8.72"/><path fill="#111314" d="m1769.94 1603.85-.8 2.25c-3.01 1.34-22.27 5.66-25.37 5.44 3.78-1.35 7.6-2.57 11.37-3.98 1.51-.69 1.83-.8 3.19-1.77 4.45.09 7.47-.19 11.61-1.94"/><path fill="#617a8f" d="M1390.82 1607.63c5.62-1.7 7.11-2.11 13.15-3.08l.77 1.29c8.11 2.77 40.37 7.09 50.48 8.62l115.96 17.1c5.74.83 33.39 3.71 37.19 5.26 3.56 3.77 26.62 2.02 26.85 6.66-1.35 1.62-1.6 1.03-2.85 3.02-9.45 4.06-46.35 14.15-58.33 17.33-18.58 4.91-49.45 16.12-66.73 19.7-3.45 1.27-9.71 3.23-13.27 4.19l-1.25.47c-3.51 2.63-7.65 1.9-12.56 3.3l-1.18-1.43 1.19-.21c-5.51-5.43-144.19-25.22-164.44-31.53l.12-1.16c-20.18-4.48-49.39-8.36-68.08-13.64l2.87-2.77c1.42-.68 3.37-.98 4.97-1.33 43.24-11.2 91.41-21.93 135.14-31.79"/><path fill="#323b42" d="M1390.82 1607.63c5.62-1.7 7.11-2.11 13.15-3.08l.77 1.29c-7.16 2.75-15.63 4.01-23.18 5.69-39.31 8.76-78.35 18.72-117.72 27.24-2.95.64-5.09 1.07-8.16.65 43.24-11.2 91.41-21.93 135.14-31.79"/><path fill="#111314" d="m1493.12 1685.95.92 1.77-1.25.47c-3.51 2.63-7.65 1.9-12.56 3.3l-1.18-1.43 1.19-.21c4.29-1.34 8.93-2.17 12.88-3.9"/><path fill="#485966" d="M1493.12 1685.95c5.18-1.93 8.9-3.58 14.19-2.42-3.45 1.27-9.71 3.23-13.27 4.19z"/><path fill="#071725" d="m1067.05 970.943 75.48.07c.04 51.297 6.3 101.537-33.24 141.487-16.48 16.65-34.9 26.01-57.2 31.99 4.91 2.84 10.76.46 18.49 2.05 19.5 5.84 23.44 15.37 28.1 33.68-7.48 3.27-63.23 1.67-75.71 1.76v-33.78c-3.8-.29-7.1-.28-10.9-.19l.23-.88c3.67-.4 6.16.29 9.39-1.21 1.68-3.39 1.11-72.4 1.15-81.89l4.23-1.48c50.55-11.53 39.43-51.36 39.98-91.607"/><path fill="#d5d6d4" d="M1052.09 1144.49c4.91 2.84 10.76.46 18.49 2.05-2.66.24-22.96.99-23.79-.19l.13-.3 1.02.4-.57-.21c1.32-1.53 2.68-1.32 4.72-1.75"/><path fill="#f9f9f8" d="M921.011 1217.69c-10.722-12.83-6.197-32.04 11.647-33.92 7.491-.78 17.508.32 25.305.36l65.057-.14c.01 4.8-.76 5.45 1.24 9.06 3.46 1.02 4.91.83 8.46.82 7.04.88 14.21-.7 18.12 1.49-15.57 6.32-27.39 13.25-27.92 32.12-.54 19.38-.12 38.81-.04 58.21l.21 107.93c0 5.73.39 36.29-.73 40.47l-.27 1.16c-8.81.2-34.051.17-42.209-.42-2.534.13-3.73.51-5.885-.71-1.748-4.23-.879-192.77-.928-211.18-17.357-.49-38.055 3.49-52.057-5.25"/><path fill="#a5a7a6" d="M979.881 1434.83c9.366-1.45 32.139-.83 42.479-.74l-.27 1.16c-8.81.2-34.051.17-42.209-.42"/><path fill="#e8984c" d="m907.001 972.844 69.97-.334c-.004 16.052-.356 33.81.369 49.72-.064 1.01-.081.91.281 1.88 4.067 26.25 20.328 37.18 45.219 39.92-.04 9.49.53 78.5-1.15 81.89-3.23 1.5-5.72.81-9.39 1.21-3.76.01-7.42-.13-11.18-.18-1.368-1.42-1.619-2.06-3.507-2.5-4.36-1.24-10.305-3.05-14.555-4.63l1.684-1.24c-46.072-16.79-73.439-52.2-76.835-101.17.382-13.18.696-53.424-.906-64.566"/><path fill="#111314" d="M984.742 1138.58c14.271 5.77 23.178 4.44 36.948 7.34-3.23 1.5-5.72.81-9.39 1.21-3.76.01-7.42-.13-11.18-.18-1.368-1.42-1.619-2.06-3.507-2.5-4.36-1.24-10.305-3.05-14.555-4.63z"/><path fill="#f9f9f8" d="M1515.02 1577.39c51.23 6.83 102.53 13.19 153.88 19.07 6.89.77 42.91 5.42 47.67 5.13 6.43.84 34.25 3.97 38.57 5.97-3.77 1.41-7.59 2.63-11.37 3.98-14.43 3.55-32.75 9.95-47.49 14.16-9.42 2.69-34.54 9.37-42.36 12.75-3.01.73-10.12 2.88-12.92 2.57-10.71-1.18-21.84-3.76-32.63-4.2-3.8-1.55-31.45-4.43-37.19-5.26l-115.96-17.1c-10.11-1.53-42.37-5.85-50.48-8.62 11.14-1.31 78.7-19.12 89.16-22.83 6.09-1.37 15.37-3.55 21.12-5.62"/><path fill="#617a8f" d="M1605.03 1551.93c5.72-1.8 16.43-4.91 22.12-4.49-4.61 1.41-7.78 2.38-12.31 4.18 7.69 1.18 15.07 2.2 22.85 2.75l3.08.31c18.86 1.09 37.78 4.07 56.52 5.69 30.3 1.63 65.84 6.37 96.55 9.37 19.26 1.88 55 4.42 72.9 7.87-21.1 6.15-61.74 19.71-81.53 23.78-5.79-1.03-9.56.66-15.27 2.46-4.14 1.75-7.16 2.03-11.61 1.94-1.36.97-1.68 1.08-3.19 1.77-4.32-2-32.14-5.13-38.57-5.97-4.76.29-40.78-4.36-47.67-5.13a8370 8370 0 0 1-153.88-19.07l-.51-2.18c10.04-.83 37.66-8.97 49.27-11.67l24.7-6.74c2.01-.55 4.02-1.08 6.04-1.59q3.075-.735 6.12-1.56l2.24-.86c.78-.27 1.44-.46 2.15-.86"/><path fill="#111314" d="M1605.03 1551.93c5.72-1.8 16.43-4.91 22.12-4.49-4.61 1.41-7.78 2.38-12.31 4.18 7.69 1.18 15.07 2.2 22.85 2.75-4.68 2.75-23.77-3.31-35.55.96l-1.5-1.68 2.24-.86c.78-.27 1.44-.46 2.15-.86"/><path fill="#323b42" d="M1640.77 1554.68c18.86 1.09 37.78 4.07 56.52 5.69-4.24.61-8.55.6-12.79-.03-11.35-1.58-23.49-2.09-34.97-3.3-.84-.08-11.33-.25-10.79-1.89.57-.44 1.32-.38 2.03-.47"/><path fill="#444e56" d="m1563.78 1563.54 24.7-6.74c2.01-.55 4.02-1.08 6.04-1.59q3.075-.735 6.12-1.56l1.5 1.68c-7.66 2.06-32.06 9.26-38.36 8.21m152.79 38.05c6.87-.75 34.62 2.4 41.76 4.2-1.36.97-1.68 1.08-3.19 1.77-4.32-2-32.14-5.13-38.57-5.97"/><path fill="#f9f9f8" d="M998.075 1436.1c7.395.05 17.265-.15 24.435.55 1.76 21.47-.38 48.66.38 70.58.29 8.18-.55 20.08.62 27.89-9.01-.91-29.169-.39-38.65-.39l-73.69.29c-5.163.05-24.865 1.25-27.953-.88 1.947-10.07 4.278-15.01 12.141-21.69 9.186-6.53 20.101-10.23 28.693-18.16 17.713-16.34 21.996-35.07 23.589-57.73 5.593.68 19.942.54 25.904.25l9.892-.01c5.68.17 8.999.16 14.639-.7"/><path fill="#617a8f" d="M1331.71 1525.89c14.78.36 29.59-.46 44.42-.2 7.01.13 17.86 3.69 23.82 3.02l5.35.53c3.27.17 20.26 1.34 22.48 2.37l-1.21.96c7.74 1.41 17.72 1.47 24.31 3.65l-.24.6-2.57.49c-.3 1.79-.4 1.08-.15 2.14-19.17 5.28-40.84 8.49-60.42 12.71-4.62.99-21.78 3.82-25.33 5.31l5.23.83c-2.39 1.59-28.94 2.16-35.15 3.02l-2.11-.91c-30.59 4.52-79.65 11.74-109.4 18.93-.56-.05-1.11-.09-1.67-.13l-5.77-.72c-6.28-1.6-12.62-3.62-19.03-3.74-.28-14.47-2.61-16.7-11.35-28.6-.35-.2-2.47-2.34-2.83-2.69-4.28-2.22-10.39-5.13-14.86-6.67l.49-2.35-.08-2.51c5.52-.03 8.36-.01 13.71.98 14.34.16 37.86 5.35 49.46 4.84 24.03-1.07 52.81-5.49 77.22-7.96 5.3.67 18.13-2.27 23.48-3.88z"/><path fill="#f9f9f8" d="M1182.92 1546.15c7.46-1.82 41.82-5.21 49.3-4.63 12.05.94 32 4.35 44.6 6.28 22.49 3.46 45.03 6.48 67.63 9.09-5.44 1.63-8.59 2.53-14.31 3.52-30.59 4.52-79.65 11.74-109.4 18.93-.56-.05-1.11-.09-1.67-.13l-5.77-.72c-6.28-1.6-12.62-3.62-19.03-3.74-.28-14.47-2.61-16.7-11.35-28.6"/><path fill="#323b42" d="M1331.71 1525.89c14.78.36 29.59-.46 44.42-.2 7.01.13 17.86 3.69 23.82 3.02l5.35.53c-.95.53-1.91 1.05-2.87 1.58-13.8-.36-27.42-1.88-41.28-2.56-34.91-1.71-69.25 6.17-103.98 8.49-6.06.4-12.59 1.05-18.58 1.92 8.11 3.85 53.57 9.53 64.77 10.64.8.06.92.08 1.69.3 7.08 1.04 14.18 1.96 21.29 2.74.93.06.82.03 1.7.34l7.31.62c.81.06.91.07 1.7.31 4.54.77 24.92 2.19 25.21 2.54l-.5.73.41.58 5.23.83c-2.39 1.59-28.94 2.16-35.15 3.02l-2.11-.91c5.72-.99 8.87-1.89 14.31-3.52-22.6-2.61-45.14-5.63-67.63-9.09-12.6-1.93-32.55-5.34-44.6-6.28-7.48-.58-41.84 2.81-49.3 4.63-.35-.2-2.47-2.34-2.83-2.69-4.28-2.22-10.39-5.13-14.86-6.67l.49-2.35-.08-2.51c5.52-.03 8.36-.01 13.71.98 14.34.16 37.86 5.35 49.46 4.84 24.03-1.07 52.81-5.49 77.22-7.96 5.3.67 18.13-2.27 23.48-3.88z"/><path fill="#6f8391" d="M1165.64 1531.93c5.52-.03 8.36-.01 13.71.98-.87.08-8.82.59-8.79.59.39 1.25 21.74 1.96 24.94 2.52 8.31 1.45 17.26 1.91 25.73 3.01-12.8 3.02-27.99 4.02-41.14 4.43-4.28-2.22-10.39-5.13-14.86-6.67l.49-2.35z"/><path fill="#f9f9f8" d="M575.7 1539.33c15.631-1.52 18.806-1.55 34.144.93l.683.35c4.191.88 8.246 1.75 12.46 2.56l5 .99c4.117.8 7.603 1.67 11.837 2.2 7.703 2.47 26.043 5.41 34.415 6.85 4.24.9 8.506 1.67 12.822 2.08l1.362.29h2.049l1.443 2.19c-7.948 1.66-23.179 2.81-31.682 3.48l-5.781 1.02c-9.795-.06-31.422 3.6-42.106 4.53-6.076.52-27.047 2.64-32.002 3.81-8.859.68-17.563 1.92-26.406 2.69l-2.011.4c.485.19 1.01.32 1.382.66l.025.13c-1.215 1.45-9.893.09-10.805 2.86.244.3.488.61.732.91 1.425.24 1.454 1.52 1.592 2.19l-1.825-.41c-9.306-2.18-11.671-1.42-21.258-.67-.889-.46-1.213-.5-1.441-1.03.916-1.27 5.86-.81 6.81-1.82l-.125-.64c-2.967-2.48-5.281-.3-4.911-3.21-7.484-3.79-63.353-16.58-73.861-18.6l-.453-.62c1.733-1.15 80.653-8.87 89.749-9.8 7.162-.57 32.355-2.56 38.162-4.32"/><path fill="#323b42" d="m522.103 1572.67 1.011.17c16.342 2.83 12.223 2.02 28.813.86.485.19 1.01.32 1.382.66l.025.13c-1.215 1.45-9.893.09-10.805 2.86.244.3.488.61.732.91 1.425.24 1.454 1.52 1.592 2.19l-1.825-.41c-9.306-2.18-11.671-1.42-21.258-.67-.889-.46-1.213-.5-1.441-1.03.916-1.27 5.86-.81 6.81-1.82l-.125-.64c-2.967-2.48-5.281-.3-4.911-3.21"/><path fill="#f9f9f8" d="M1447.92 1539.45c25.51-4.98 47.4 3.37 70.65 3.62 4.99 1.49 11.88 1.95 17.19 2.54 19.06 1.72 49.36 3.21 67.12 7.18l-2.24.86q-3.045.825-6.12 1.56c-2.02.51-4.03 1.04-6.04 1.59l-24.7 6.74c-11.61 2.7-39.23 10.84-49.27 11.67-6.55-1.06-20.86-2.16-27.87-2.65-5.08-1.3-27.04-3.46-33.56-4.27q-42.78-5.475-85.68-9.99l-5.23-.83c3.55-1.49 20.71-4.32 25.33-5.31 19.58-4.22 41.25-7.43 60.42-12.71"/><path fill="#617a8f" d="M638.52 1531.23c4.679 3.14 16.129 1.4 21.933.68 35.496-4.4 70.87-4.37 106.565-3.68 7.745.15 26.834 3.89 32.358 1.3l1.469-.15c16.824 1.92 36.859 4.93 53.487 8.26-1.638.79-10.187 3.78-3.684 4.71-6.969 1.73-33.743 4.04-41.94 4.92l-86.634 9.4c-3.431.36-5.667.61-9.09 1.32l-1.38-.88-.231-1.02c-4.362.11-21.09-1.69-22.95-.51l-1.362-.29c-4.316-.41-8.582-1.18-12.822-2.08-8.372-1.44-26.712-4.38-34.415-6.85-4.234-.53-7.72-1.4-11.837-2.2l-5-.99c-4.214-.81-8.269-1.68-12.46-2.56l-.683-.35c-.536-.71-3.386-2.72-4.348-3.5 2.563-1.46 6.537-1.5 9.724-2.23l-1.876-.88c1.463-.7 22.589-2.37 25.176-2.42"/><path fill="#323b42" d="M610.527 1540.61c4.418-1.66 28.642 3.18 29.559 4.76-.003.42.037.13-.262.99-4.234-.53-7.72-1.4-11.837-2.2l-5-.99c-4.214-.81-8.269-1.68-12.46-2.56m63.712 12.6c1.312-1.63 11.838-1.56 12.822 2.08-4.316-.41-8.582-1.18-12.822-2.08"/><path fill="#444e56" d="M711.373 1556.09c5.228-1.38 6.354-2.17 10.701.58-3.431.36-5.667.61-9.09 1.32l-1.38-.88z"/><path fill="#617a8f" d="M1552.02 1525.15c27.48.37 58.63-.26 85.52.82 7.24-.59 47.56-.64 53 1.03-1.95 2.6-44.18 14.99-50.31 16.54-5.12 1.84-7.68 2.74-13.08 3.9-5.69-.42-16.4 2.69-22.12 4.49-.71.4-1.37.59-2.15.86-17.76-3.97-48.06-5.46-67.12-7.18-5.31-.59-12.2-1.05-17.19-2.54-23.25-.25-45.14-8.6-70.65-3.62-.25-1.06-.15-.35.15-2.14l2.57-.49.24-.6c-6.59-2.18-16.57-2.24-24.31-3.65l1.21-.96c11.17 1.13 28.59 3.34 39.44 2.79 16.71-.83 33.91-3.67 50.83-4.62 6.3.47 23.39-4.05 33.97-4.63"/><path fill="#323b42" d="M1552.02 1525.15c27.48.37 58.63-.26 85.52.82l-8.25 1c-8.52 1.53-62.39 2.11-71.03.78-21.29.72-44.53 5.29-66.13 6.4-1.88.1-4.12 1.34-5.49 2.64 4.85 4.09 23.51 3.04 31.93 6.28-23.25-.25-45.14-8.6-70.65-3.62-.25-1.06-.15-.35.15-2.14l2.57-.49.24-.6c-6.59-2.18-16.57-2.24-24.31-3.65l1.21-.96c11.17 1.13 28.59 3.34 39.44 2.79 16.71-.83 33.91-3.67 50.83-4.62 6.3.47 23.39-4.05 33.97-4.63"/><path fill="#6f8391" d="M1558.26 1527.75c2.18-1.33 64.98-1.12 71.03-.78-8.52 1.53-62.39 2.11-71.03.78"/><path fill="#323b42" d="M1535.76 1545.61c6.09-1.84 66.45 3.46 69.27 6.32-.71.4-1.37.59-2.15.86-17.76-3.97-48.06-5.46-67.12-7.18"/><path fill="#444e56" d="M1640.23 1543.54c3.09-4.93 32.64-10.58 39.18-14.63 4.6-2.85 5.62-1.78 11.13-1.91-1.95 2.6-44.18 14.99-50.31 16.54"/><path fill="#617a8f" d="M537.538 1543.65c-14.081-3.98-77.424 8.53-96.655 6.77-12.748-1.16-30.592-8.55-43.107-12.29-5.151-1.54-24.461-7.48-27.335-9.59l1.604-1.25c52.058-2.84 108.122 1.24 160.448.51 5.871-.08 41.851 5.61 46.686 7.76l-.518 1.23-4.465 1.46 1.504 1.08c-5.807 1.76-31 3.75-38.162 4.32"/><path fill="#f9f9f8" d="M1001.12 1146.95c3.76.05 7.42.19 11.18.18l-.23.88c3.8-.09 7.1-.1 10.9.19v33.78c-22.86.36-51.571.81-74.149.3 5.945-21.07 11.688-32.38 35.002-34.37 6.499-1.2 10.923-.62 17.297-.96"/><path fill="#a5a7a6" d="M1001.12 1146.95c3.76.05 7.42.19 11.18.18l-.23.88c-8.37.22-19.767.03-28.247-.1 6.499-1.2 10.923-.62 17.297-.96"/><path fill="#323b42" d="M355.238 1526.09c108.905-1.32 217.821-1.43 326.729-.33 32.381.42 62.921-1.8 95.873.2 7.992 1.83 13.331 2.72 21.536 3.57-5.524 2.59-24.613-1.15-32.358-1.3-35.695-.69-71.069-.72-106.565 3.68-5.804.72-17.254 2.46-21.933-.68-2.587.05-23.713 1.72-25.176 2.42l1.876.88c-3.187.73-7.161.77-9.724 2.23.962.78 3.812 2.79 4.348 3.5-15.338-2.48-18.513-2.45-34.144-.93l-1.504-1.08 4.465-1.46.518-1.23c-4.835-2.15-40.815-7.84-46.686-7.76-52.326.73-108.39-3.35-160.448-.51l-1.604 1.25c2.874 2.11 22.184 8.05 27.335 9.59 12.515 3.74 30.359 11.13 43.107 12.29 19.231 1.76 82.574-10.75 96.655-6.77-9.096.93-88.016 8.65-89.749 9.8l.453.62-.758 1.2c-4.256-.54-9.706-.61-13.999-.49l-1.846.06-1.802-1.73 3.036-.7c-4.552-4.33-65.39-20.26-77.635-26.32"/><path fill="#f9f9f8" d="M563.796 1526.79c20.578.18 44.648-.6 64.843.32 8.003 1.17 22.589-.02 27.496 2.53-6.03.48-11.494 1.18-17.615 1.59-2.587.05-23.713 1.72-25.176 2.42-11.882.82-19.532 1.84-31.313-.09-7.747-1.27-15.88-2.82-23.551-3.97 1.766-.95 3.538-1.88 5.316-2.8"/><path fill="#d5d6d4" d="M628.639 1527.11c8.22-.44 16.526-.18 24.769-.24 2.336-.01 16.335-.94 16.897 1.21-1.833.72-12.168 1.56-14.17 1.56-4.907-2.55-19.493-1.36-27.496-2.53m-70.159 2.48c-1.61-.14-6.977-.37-7.701-1.76.163-1.21 1.722-1.24 2.686-1.21 3.443.1 6.887.16 10.331.17-1.778.92-3.55 1.85-5.316 2.8"/><path fill="#f9f9f8" d="M1164.51 1528.31c4-2.4 136.73-1.62 141.11.36l.41 1.12c-24.41 2.47-53.19 6.89-77.22 7.96-11.6.51-35.12-4.68-49.46-4.84-5.35-.99-8.19-1.01-13.71-.98z"/><path fill="#444e56" d="M921.011 1217.69c14.002 8.74 34.7 4.76 52.057 5.25.049 18.41-.82 206.95.928 211.18 2.155 1.22 3.351.84 5.885.71 8.158.59 33.399.62 42.209.42l.42 1.4c-7.17-.7-17.04-.5-24.435-.55-5.64.86-8.959.87-14.639.7l-9.892.01c-5.962.29-20.311.43-25.904-.25-1.593 22.66-5.876 41.39-23.589 57.73-8.592 7.93-19.507 11.63-28.693 18.16l-.597-1.75c8.323-6.69 21.646-11.09 31.395-20.97 15.631-15.84 18.629-33.61 19.127-54.77 9.102-.33 16.764-.43 25.86-.17l-.113-209.86c-16.79-.62-39.944 3.85-52.489-7.06z"/><path fill="#a5a7a6" d="M947.64 1436.56c6.152-1.38 19.69-.91 25.904.25-5.962.29-20.311.43-25.904-.25m35.796.24c6.205-1.46 8.098-1.23 14.639-.7-5.64.86-8.959.87-14.639.7"/><path fill="#402c1e" d="m905.99 971.08 72.981-.008c.437 41.428-10.207 88.738 48.099 91.478l-4.23 1.48c-24.891-2.74-41.152-13.67-45.219-39.92-.362-.97-.345-.87-.281-1.88-.725-15.91-.373-33.668-.369-49.72l-69.97.334c1.602 11.142 1.288 51.386.906 64.566 3.396 48.97 30.763 84.38 76.835 101.17l-1.684 1.24c-15.064-4.89-33.416-16.5-44.497-27.81-39.987-40.82-32.811-88.83-32.571-140.93"/><path fill="#976332" d="M907.001 972.844c1.602 11.142 1.288 51.386.906 64.566-1.193-5.56-1.848-58.965-.906-64.566"/><path fill="#f9f9f8" d="M800.845 1529.38c.243-.05 9.833-1.99 8.687-2.1 13.449 1.29 63.418-2.89 73.398.66-2.372 10.09-2.663 9.21-11.861 9.7-7.09.37-8.614 1.07-16.737 0-16.628-3.33-36.663-6.34-53.487-8.26m599.105-.67 1.01-1.75c10.83-.48 111.48-.66 116.7 1.61l.39 1.21c-16.92.95-34.12 3.79-50.83 4.62-10.85.55-28.27-1.66-39.44-2.79-2.22-1.03-19.21-2.2-22.48-2.37z"/><path fill="#686b6e" d="M997.613 1144.45c1.888.44 2.139 1.08 3.507 2.5-6.374.34-10.798-.24-17.297.96-23.314 1.99-29.057 13.3-35.002 34.37 22.578.51 51.289.06 74.149-.3 12.48-.09 68.23 1.51 75.71-1.76l.54 1.55c5.87 1.26 11.01-.04 16.82 1.14-29.31.95-63.74 2.07-93.02 1.08l-65.057.14c-7.797-.04-17.814-1.14-25.305-.36-17.844 1.88-22.369 21.09-11.647 33.92l-2.47.18c-11.203-15.67-4.787-28.5 11.223-36.83 5.621-.1 11.708.49 17.354.89 7.199-31.63 20.371-35.97 49.883-36.35z"/><path fill="#797778" d="M1331.71 1525.89c9.1-1.66 45.45-.94 56.77-1.06 54.51-.67 109.03-.57 163.54.32-10.58.58-27.67 5.1-33.97 4.63l-.39-1.21c-5.22-2.27-105.87-2.09-116.7-1.61l-1.01 1.75c-5.96.67-16.81-2.89-23.82-3.02-14.83-.26-29.64.56-44.42.2m-168.44-1.15 119.26.21c10.17.1 38.62-.23 46.98.96-5.35 1.61-18.18 4.55-23.48 3.88l-.41-1.12c-4.38-1.98-137.11-2.76-141.11-.36zm-385.43 1.22c6.478-1.42 28.715-1.04 36.346-1.05l69.789-.09a28 28 0 0 1-1.045 3.12c-9.98-3.55-59.949.63-73.398-.66 1.146.11-8.444 2.05-8.687 2.1l-1.469.15c-8.205-.85-13.544-1.74-21.536-3.57"/><path fill="#323b42" d="M181.154 1576.89c15.751-1.42 31.612-2.28 47.341-4.06 6.861-.78 13.176-1.68 20.11-1.94-2.241 1.65-16.164 2.69-20.099 3.42-8.175 1.45-20.25 1.27-28.008 2.43-16.507 2.45 14.13 8.45 15.462 9.26 2.675 1.63 23.043 4.45 22.161 8-9.058-1.83-48.289-13.7-56.967-17.11"/><path fill="#444e56" d="M1769.94 1603.85c5.71-1.8 9.48-3.49 15.27-2.46-5.35 1.54-10.74 3.12-16.07 4.71z"/><path fill="#e8984c" d="m1023.51 287.021 105.76 104.117a2559 2559 0 0 1 39.97 39.514c34.76.265 72.59-.82 106.78.224-.1 18.898.38 41.395-.52 60a127.33 127.33 0 0 1 93.27-23.463 115.75 115.75 0 0 1 76.23 46.105c20.22 27.427 26.96 62.473 21.47 95.527-11.26 67.758-73.86 115.419-137.42 131.095-37.31 9.204-71.58 9.435-109.32 8.726a226 226 0 0 1-88.72 71.258c-10.01 4.52-25.01 9.316-33.57 13.483 5.63 22.485 12.31 27.063 33.36 35.228 16.37 6.349 27.37 20.994 31.73 37.879.8 3.073 1.51 6.17 2.12 9.285l2 1.283c22.95-1.04 36.25-1.258 40.85 24.971-4.11 12.631-9.37 20.453-23.92 20.715-24.17.436-48.39.161-72.58.141l-146.131-.108c-21.556-11.893-31.182-18.131-38.691-42.954-1.876-2.402-46.054-.123-53.274-2.485 1.505-.422 4.572-.41 6.625-.766 1.781-16.977 10.1-37.392 26.309-45.287l1.899-.899c22.082-9.341 33.556-11.054 41.144-36.544-52.656-18.11-106.569-51.14-135.667-99.972-3.731-2.523-15.149-23.882-17.046-29.029-12.939-22.175-21.804-54.014-25.707-79.191a201 201 0 0 1-2.487-24.649c-.662-17.667-1.512-163.507 1.091-171.024l50.543.079c4.784-.006 23.729-.166 27.784.624 9.689-.426 19.947-.205 29.687-.159 14.016-15.83 47.954-47.449 63.727-62.643z"/><path fill="#071725" d="M1275.5 490.876a127.33 127.33 0 0 1 93.27-23.463 115.75 115.75 0 0 1 76.23 46.105c20.22 27.427 26.96 62.473 21.47 95.527-11.26 67.758-73.86 115.419-137.42 131.095-37.31 9.204-71.58 9.435-109.32 8.726a226 226 0 0 1-88.72 71.258c-10.01 4.52-25.01 9.316-33.57 13.483 5.63 22.485 12.31 27.063 33.36 35.228 16.37 6.349 27.37 20.994 31.73 37.879.8 3.073 1.51 6.17 2.12 9.285l2 1.283c22.95-1.04 36.25-1.258 40.85 24.971-4.11 12.631-9.37 20.453-23.92 20.715-24.17.436-48.39.161-72.58.141l-146.131-.108c-21.556-11.893-31.182-18.131-38.691-42.954-1.876-2.402-46.054-.123-53.274-2.485 1.505-.422 4.572-.41 6.625-.766 1.781-16.977 10.1-37.392 26.309-45.287l1.899-.899c4.03.295 16.149-4.015 19.802-6.122 13.44-7.755 18.812-16.022 23.057-30.107q7.254 1.645 14.488 3.378l1.93-1.237c5.28 1.306 11.89 2.148 17.349 3.008 28.417-11.931 59.507-36.064 81.417-57.631 37.56-36.96 64.08-81.647 78.49-132.335 3.6-12.656 8-27.309 8.1-40.591l.34-1.233c26.84-.482 53.98.289 80.83.111 12.31-.081 28.74.603 40.67-.484l1.17-.254c.41-8.2-.68-34.549 1.7-39.865l.61-1.455c-1.76-.228-2.06-.251-3.72-.697-.68-23.474-.06-50.16-.05-73.884z"/><path fill="#f9f9f8" d="M1277.69 565.793c20.23-37.251 60.53-56.197 99.78-34.849a68.3 68.3 0 0 1 32.54 40.708c15.48 54.325-38.11 102.383-86.07 113.436-23.81 5.488-44.5 7.611-68.91 7.288 10.45-28.861 18.66-53.946 20.35-85.263.41-8.2-.68-34.549 1.7-39.865z"/><path fill="#071725" d="M1166.65 917.282c22.95-1.04 36.25-1.258 40.85 24.971-4.11 12.631-9.37 20.453-23.92 20.715-24.17.436-48.39.161-72.58.141l-146.131-.108c-21.556-11.893-31.182-18.131-38.691-42.954 4.394-1.223 8.458-.613 14.329-2.099l51.172-.114c21.871 1.697 160.451 4.538 174.971-.552"/><path fill="#617a8f" d="M950.596 834.381q7.254 1.645 14.488 3.378c20.893 4.28 34.367 5.425 55.206 5.302-1.26 21.166-.33 51.955-.28 73.849-9.18.213-19.24.24-28.331.924l-51.172.114c-5.871 1.486-9.935.876-14.329 2.099-1.876-2.402-46.054-.123-53.274-2.485 1.505-.422 4.572-.41 6.625-.766 1.781-16.977 10.1-37.392 26.309-45.287l1.899-.899c4.03.295 16.149-4.015 19.802-6.122 13.44-7.755 18.812-16.022 23.057-30.107"/><path fill="#323b42" d="M905.838 871.509c-1.066 2.798-7.978 7.844-10.693 11.185-8.436 10.382-12.16 20.886-13.596 33.965 17.262.222 42.268-1.651 58.958 1.289-5.871 1.486-9.935.876-14.329 2.099-1.876-2.402-46.054-.123-53.274-2.485 1.505-.422 4.572-.41 6.625-.766 1.781-16.977 10.1-37.392 26.309-45.287m114.452-28.448c1.52 20.108.7 53.083.7 74.065l91.1-.151c14.87-.021 38.19.586 52.56-.976l2 1.283c-14.52 5.09-153.1 2.249-174.971.552 9.091-.684 19.151-.711 28.331-.924-.05-21.894-.98-52.683.28-73.849"/><path fill="#617a8f" d="M770.226 609.338c57.057.933 116.019.13 173.273.138 69.621.3 139.251.132 208.871-.503-.1 13.282-4.5 27.935-8.1 40.591-14.41 50.688-40.93 95.375-78.49 132.335-21.91 21.567-53 45.7-81.417 57.631-5.459-.86-12.069-1.702-17.349-3.008l-1.93 1.237a1241 1241 0 0 0-14.488-3.378c-4.245 14.085-9.617 22.352-23.057 30.107-3.653 2.107-15.772 6.417-19.802 6.122 22.082-9.341 33.556-11.054 41.144-36.544-52.656-18.11-106.569-51.14-135.667-99.972-3.731-2.523-15.149-23.882-17.046-29.029-.554-6.052-14.031-35.463-16.712-45.484-4.608-17.229-7.214-32.499-9.23-50.243"/><path fill="#323b42" d="M813.214 734.094c4.663 3.359 18.174 21.748 24.871 28.61.775 1.306.875 1.416 2.156 2.307 34 36.853 78.118 60.476 126.773 71.511l-1.93 1.237a1241 1241 0 0 0-14.488-3.378c-4.245 14.085-9.617 22.352-23.057 30.107-3.653 2.107-15.772 6.417-19.802 6.122 22.082-9.341 33.556-11.054 41.144-36.544-52.656-18.11-106.569-51.14-135.667-99.972"/><path fill="#e72422" d="m1023.51 287.021 105.76 104.117c1.08 4.817 31.71 33.65 37.16 39.104-28.2 1.794-72.2.462-101.37.439l-186.199.208c8.091-7.403 60.922-57.454 61.945-62.787z"/><path fill="#323b42" d="M796.168 705.065c-12.939-22.175-21.804-54.014-25.707-79.191a201 201 0 0 1-2.487-24.649c-.662-17.667-1.512-163.507 1.091-171.024l1.258 2.103-.585.786q.516 54.705.35 109.412c-.013 20.284.629 45.395-.343 65.367l264.115-.115 76.01-.106c13.33-.046 29.88-.567 42.84.092l-.34 1.233c-69.62.635-139.25.803-208.871.503-57.254-.008-116.216.795-173.273-.138 2.016 17.744 4.622 33.014 9.23 50.243 2.681 10.021 16.158 39.432 16.712 45.484"/><path fill="#976332" d="M769.745 607.869c-1.904-8.843-1.315-171.498-.007-174.779q.516 54.705.35 109.412c-.013 20.284.629 45.395-.343 65.367"/><path fill="#402c1e" d="M940.806 368.102c-1.023 5.333-53.854 55.384-61.945 62.787l186.199-.208c29.17.023 73.17 1.355 101.37-.439-5.45-5.454-36.08-34.287-37.16-39.104a2559 2559 0 0 1 39.97 39.514c34.76.265 72.59-.82 106.78.224-.1 18.898.38 41.395-.52 60l-1.58.336c-.79-10.187 1.48-54.557-1.69-58.841l-3.19-.355c-9.93-.896-22.01-.241-32.06-.468-24.94-.564-50.3.828-75.08.915l-231.663-.059c-13.735-.055-73.432.987-82.845-1.5 9.689-.426 19.947-.205 29.687-.159 14.016-15.83 47.954-47.449 63.727-62.643"/><path fill="#976332" d="m769.065 430.201 50.543.079c4.784-.006 23.729-.166 27.784.624 9.413 2.487 69.11 1.445 82.845 1.5l231.663.059c24.78-.087 50.14-1.479 75.08-.915 10.05.227 22.13-.428 32.06.468-5.31 1.108-35.37.887-42.63.917l-97.37.215c-118.38.026-240.665 1.503-358.717-.844z"/><path fill="#111314" d="M1273.97 565.096c1.66.446 1.96.469 3.72.697l-.61 1.455c-2.38 5.316-1.29 31.665-1.7 39.865l-1.17.254c.36-13.871-.56-28.474-.24-42.271"/><path fill="#f9f9f8" d="m523.163 1244.38-1.23 1.73q7.161-.24 14.327-.21c1.535.13 3.07.24 4.607.34 15.344 2 10.847-.51 10.971 20.44 15.148.6 34.944 1.54 49.901.15 2.381 1.92 5.485 1.14 9.582 2.02 4.25 1.09 7.044 2.2 9.455 6.18a14.24 14.24 0 0 1 1.552 10.88c-3.399 13.35-24.77 10.07-35.414 9.99-.509 41.44-.589 82.87-.24 124.31l16.377.25c3.179 52.33 29.356 34.13 41.496 63.57.104 1.89.632 1.77 2.205 2.67 8.401 4.76 14.524 15.6 10.809 24.61-1.192 2.89-31.146 1.85-35.766 1.85l-70.986-.1-65.195.48c-8.829.06-30.452.8-37.925-1.05-7.075-8.09-1.045-23.92 10.219-25.91 11.258-32.35 42.883-16.44 43.162-66.77l16.937.15q.86-62.325.514-124.65c-6.608.81-19.117 1.23-25.66.05-10.082-2.43-17.575-11.63-9.7-21 6.256-7.44 10.437-7.42 19.408-8.48 4.346-12.15 8.042-17.47 20.594-21.5"/><path fill="#071725" d="m550.954 1274.29 1.571-4.43c.492-.21 54.152-1.13 58.796-1.01 4.25 1.09 7.044 2.2 9.455 6.18a14.24 14.24 0 0 1 1.552 10.88c-3.399 13.35-24.77 10.07-35.414 9.99-.509 41.44-.589 82.87-.24 124.31l16.377.25c3.179 52.33 29.356 34.13 41.496 63.57.104 1.89.632 1.77 2.205 2.67 8.401 4.76 14.524 15.6 10.809 24.61-1.192 2.89-31.146 1.85-35.766 1.85l-70.986-.1-.041-2.13c.764-13.53 8.801-18.35 20.614-22.45l3.716-.49 1.765-2.35c-5.492.21-21.35 1.07-25.846-.41.028-20.72.344-42.71-.076-63.37l.42-1.83c-.34-5.98-.272-12.67-.121-18.71.908-36.31-1.193-72.94.724-109.15.313-5.91 7.578-11.06 11.956-14l-.787-3.38c-1.382.04-2.79.12-4.167.04-2.625.17-5.376-.26-8.012-.54"/><path fill="#071725" d="M644.547 1484.03c.104 1.89.632 1.77 2.205 2.67 8.401 4.76 14.524 15.6 10.809 24.61-1.192 2.89-31.146 1.85-35.766 1.85l-70.986-.1-.041-2.13c.764-13.53 8.801-18.35 20.614-22.45l3.716-.49 1.765-2.35c14.215-2.11 56.656 1.2 67.684-1.61"/><path fill="#686b6e" d="M644.547 1484.03c.104 1.89.632 1.77 2.205 2.67-23.493 2.27-49.764-.53-71.654 1.29l1.765-2.35c14.215-2.11 56.656 1.2 67.684-1.61"/><path fill="#a5a7a6" d="M558.966 1274.83c1.764-.24 11.981-1.61 12.707-.07-.579 1.21-2.587 1.4-3.702 1.7l-4.051 1.71-.787-3.38c-1.382.04-2.79.12-4.167.04"/><path fill="#d5d6d4" d="M563.133 1274.79c1.835.53 3.163.8 4.838 1.67l-4.051 1.71z"/><path fill="#f9f9f8" d="M503.305 1421.93c15.796-.13 31.847-.31 47.636-.07.42 20.66.104 42.65.076 63.37 4.496 1.48 20.354.62 25.846.41l-1.765 2.35-3.716.49c-11.813 4.1-19.85 8.92-20.614 22.45l.041 2.13-65.195.48c-8.829.06-30.452.8-37.925-1.05-7.075-8.09-1.045-23.92 10.219-25.91 3.439.74 9.17.31 12.917.23l-1.381-.54-.095.73 1.115-.44.188.33-.904.14c-1.512-1.2-6.743-1.07-9.191-1.21 6.622-27.08 40.595-13.81 42.748-63.89"/><path fill="#f9f9f8" d="M551.017 1485.23c4.496 1.48 20.354.62 25.846.41l-1.765 2.35-3.716.49c-11.813 4.1-19.85 8.92-20.614 22.45l.041 2.13-65.195.48c-8.829.06-30.452.8-37.925-1.05-7.075-8.09-1.045-23.92 10.219-25.91 3.439.74 9.17.31 12.917.23l-1.381-.54-.095.73 1.115-.44.188.33-.904.14c-1.512-1.2-6.743-1.07-9.191-1.21 12.774-.99 80.146-2.75 90.46-.59"/><path fill="#797778" d="M551.017 1485.23c4.496 1.48 20.354.62 25.846.41l-1.765 2.35-3.716.49c-6.087-3.31-103.149-1.01-115.441-.45-5.626 4.74-12.975 13.28-7.845 21.02 1.968 2.97 11.381 1.97 14.6 2.31 29.251.28 58.841-.73 88.072-.43l.041 2.13-65.195.48c-8.829.06-30.452.8-37.925-1.05-7.075-8.09-1.045-23.92 10.219-25.91 3.439.74 9.17.31 12.917.23l-1.381-.54-.095.73 1.115-.44.188.33-.904.14c-1.512-1.2-6.743-1.07-9.191-1.21 12.774-.99 80.146-2.75 90.46-.59"/><path fill="#686b6e" d="m523.163 1244.38-1.23 1.73q7.161-.24 14.327-.21c1.535.13 3.07.24 4.607.34 15.344 2 10.847-.51 10.971 20.44 15.148.6 34.944 1.54 49.901.15 2.381 1.92 5.485 1.14 9.582 2.02-4.644-.12-58.304.8-58.796 1.01l-1.571 4.43c-.045-3.91.751-2.97-1.039-4.93-14.531-.88-29.315-.34-43.874-.42-11.334-.06-17.195-1.63-23.62 9.17.326 2.51.255 4.1.251 6.66 7.261 13.6 24.881 8.51 38.251 8.96-.06 42.05-.341 84.11-.845 126.16l31.283.14-.42 1.83c-15.789-.24-31.84-.06-47.636.07-2.153 50.08-36.126 36.81-42.748 63.89 2.448.14 7.679.01 9.191 1.21l.904-.14-.188-.33-1.115.44.095-.73 1.381.54c-3.747.08-9.478.51-12.917-.23 11.258-32.35 42.883-16.44 43.162-66.77l16.937.15q.86-62.325.514-124.65c-6.608.81-19.117 1.23-25.66.05-10.082-2.43-17.575-11.63-9.7-21 6.256-7.44 10.437-7.42 19.408-8.48 4.346-12.15 8.042-17.47 20.594-21.5"/><path fill="#f9f9f8" d="M536.26 1245.9c1.535.13 3.07.24 4.607.34 15.344 2 10.847-.51 10.971 20.44-11.516.92-33.783.08-46.728.18 3.527-13.82 4.821-14.14 16.823-20.75q7.161-.24 14.327-.21"/><path fill="#a5a7a6" d="M492.861 1295.36c5.657-.2 20.655-.77 25.66-.05-6.608.81-19.117 1.23-25.66.05"/><path fill="#f9f9f8" d="M755.846 1242.38c5.967.49 4.938.01 9.284 3.87.881.01.347.02 1.6-.11 3.862.54 6.732.61 10.618.83 1.178 4.37.722 14.14.673 19.18 6.605.01 43.364.62 47.726-.99l.266 2.95c7.346.01 11.867-.42 17.434 5.04 5.933 5.81 7.585 14.26-.41 19.21-8.331 5.15-21.609 3.37-31.161 3.04-1.071 40.45-.754 84.26-.308 124.81l17.025.13c2.411 53.89 32.294 36.14 41.583 64.48l3.066 2.19c7.71 5.17 12.68 16.09 7.828 24.08-2.057 3.38-32.916 2.06-37.245 2.05l-66.382-.11c-28.088.7-56.43-.09-84.54.29-6.246.08-12.466.1-18.682-.57-2.515-1.75-1.813-.71-2.97-3.7-5.83-15.09 12.386-21.28 14.836-28.87 4.904-18.71 40.071-10.25 40.294-60.68l17.408.2.479-123.96c-10.073.19-24.77 1.76-33.25-3.02-1.103-.73-.679-.39-1.328-.95-11.073-16.38 1.76-24.79 17.855-24.96 6.23-18.35 9.273-20.17 27.443-23.05z"/><path fill="#071725" d="M826.013 1268.11c7.346.01 11.867-.42 17.434 5.04 5.933 5.81 7.585 14.26-.41 19.21-8.331 5.15-21.609 3.37-31.161 3.04-1.071 40.45-.754 84.26-.308 124.81l17.025.13c2.411 53.89 32.294 36.14 41.583 64.48-10.001 1.12-24.234.76-34.713.83l-58.295.21c.1-22.19.901-49.96-.289-71.78l.135-124.02c4.205-6.73 8.154-10.34 15.274-13.56l-.637-1.83c-7.891.81-13.467 3.35-15.74-5.24 3.994-1.99 42.591-1.24 50.102-1.32"/><path fill="#323b42" d="M791.651 1274.67c1.977-.94 7.51-1.68 9.294-1.05l.078.09c-.517 1.39-7.243 2.62-8.735 2.79z"/><path fill="#f9f9f8" d="M728.897 1421.64c15.803.5 31.727.04 47.546.38.194 20.84-.012 42-.091 62.85-20.799-.59-41.605-.35-62.43-.45-8.225-.04-17.43-.51-25.539.27l-1.196-2c6.685-21.47 38.701-11.1 41.71-61.05"/><path fill="#f9f9f8" d="m686.087 1480.18 1.1 2.51 1.196 2-.284 1.09c12.061.33 101.661-.56 108.531 1.72l.423 1.11c-11.703 3.78-20.099 8.98-20.302 22.54l.692 1.88c-28.088.7-56.43-.09-84.54.29-6.246.08-12.466.1-18.682-.57-2.515-1.75-1.813-.71-2.97-3.7-5.83-15.09 12.386-21.28 14.836-28.87"/><path fill="#797778" d="m686.087 1480.18 1.1 2.51 1.196 2-.284 1.09c-10.986 2.02-17.129 12.03-14.991 22.79 1.822 2.2 1.831 2.3 5.039 2.38 32.771.85 65.844-.34 98.604.2l.692 1.88c-28.088.7-56.43-.09-84.54.29-6.246.08-12.466.1-18.682-.57-2.515-1.75-1.813-.71-2.97-3.7-5.83-15.09 12.386-21.28 14.836-28.87"/><path fill="#071725" d="M873.242 1487.01c7.71 5.17 12.68 16.09 7.828 24.08-2.057 3.38-32.916 2.06-37.245 2.05l-66.382-.11-.692-1.88c.203-13.56 8.599-18.76 20.302-22.54 20.583-2.25 53.283-.48 76.189-1.6"/><path fill="#686b6e" d="M755.846 1242.38c5.967.49 4.938.01 9.284 3.87.881.01.347.02 1.6-.11 3.862.54 6.732.61 10.618.83 1.178 4.37.722 14.14.673 19.18 6.605.01 43.364.62 47.726-.99l.266 2.95c-7.511.08-46.108-.67-50.102 1.32-10.927-.55-56.645-3.02-63.353 2.76-3.163 2.72-4.853 6.13-4.839 10.33.009 2.91 1.084 5.17 3.153 7.21 6.962 6.87 25.923 4.1 35.332 4.21l-.355 126.06c6.502.11 25.086 1.52 29.936-1.39.409-1.58.737-2.93 1.094-4.53 1.19 21.82.389 49.59.289 71.78l58.295-.21c10.479-.07 24.712.29 34.713-.83l3.066 2.19c-22.906 1.12-55.606-.65-76.189 1.6l-.423-1.11c-6.87-2.28-96.47-1.39-108.531-1.72l.284-1.09c8.109-.78 17.314-.31 25.539-.27 20.825.1 41.631-.14 62.43.45.079-20.85.285-42.01.091-62.85-15.819-.34-31.743.12-47.546-.38-3.009 49.95-35.025 39.58-41.71 61.05l-1.1-2.51c4.904-18.71 40.071-10.25 40.294-60.68l17.408.2.479-123.96c-10.073.19-24.77 1.76-33.25-3.02-1.103-.73-.679-.39-1.328-.95-11.073-16.38 1.76-24.79 17.855-24.96 6.23-18.35 9.273-20.17 27.443-23.05z"/><path fill="#f9f9f8" d="M765.13 1246.25c.881.01.347.02 1.6-.11 3.862.54 6.732.61 10.618.83-.669 4.89-.332 14.79-.306 20-6.37.02-38.191.72-45.63-.89-.3-.06-.644-1.38-.514-2.07 1.484-7.83 5.628-11.43 11.098-16.17 9.206-1.44 13.973-1.45 23.134-1.59m704.55-3.82c1.19.22 5.9 2.53 9.78 3.38 5.19 1.01 7.04 1.29 12.33 1.09l1.66 1.21c1.03 6.04.71 12.84.68 19.05 16.63-1.05 31.8-.78 48.41.02 3.41 1.52 7.9.92 12 1.61 3.87 1.02 6.26 2.43 8.38 6.08 1.99 3.44 2.5 7.55 1.4 11.38a12.26 12.26 0 0 1-6.04 7.56c-5.79 3.07-22.15 2.26-29.29 2.25l-.03 124.36 16.54.43c4.4 52.26 29.75 34.2 42.19 63.02l-.09 1.61c9.47 4.64 15.83 15.09 11.84 25.51-.56.52-1.11 1.03-1.67 1.54-29.08 1.36-76.72-.08-104.01.72l-.72.15c-32.25.74-64.53-.18-96.79.48-2.44.05-4.52-.53-6.32-1.96-5.48-9.88 7.53-23.11 11.97-30.52 7.77-13 16.52-13.74 27.66-21.92 8.07-5.92 12.92-21.69 13.78-31.86-.22-2.7.04-3.01.73-5.67l.35-1.36c3.26-1.11 12.07-.54 15.96-.46 1.37-39.12.42-84.97.54-124.37-8.13.16-22.89 1.57-29.47-2.13a13.73 13.73 0 0 1-6.63-8.74c-1.08-4.24-.07-9.06 2.28-12.79 3.61-5.72 9.21-4.17 15.89-5.47 8.04-5.68 1.27-19.66 25.94-23.07z"/><path fill="#071725" d="m1493.21 1274.32 1.31-4.7c5.64-1.97 49.95-.52 60.02-.83 3.87 1.02 6.26 2.43 8.38 6.08 1.99 3.44 2.5 7.55 1.4 11.38a12.26 12.26 0 0 1-6.04 7.56c-5.79 3.07-22.15 2.26-29.29 2.25l-.03 124.36 16.54.43c4.4 52.26 29.75 34.2 42.19 63.02l-.09 1.61c9.47 4.64 15.83 15.09 11.84 25.51-.56.52-1.11 1.03-1.67 1.54-29.08 1.36-76.72-.08-104.01.72l-.48-1.74c1.86-13.79 6.27-15.42 18.01-21.4l1.07-3.12-18.37.06-.17-1.76c.35-19.44.49-43.79-.08-63.19 1.1-9.1.64-34.32.57-44.53-.07-11.89.74-36.17-.45-47.22.29-19.87-6.82-41.58 12.72-52.29l.31-3.08c-5.82.12-7.89.12-13.68-.66"/><path fill="#071725" d="M1587.6 1485.48c9.47 4.64 15.83 15.09 11.84 25.51-.56.52-1.11 1.03-1.67 1.54-29.08 1.36-76.72-.08-104.01.72l-.48-1.74c1.86-13.79 6.27-15.42 18.01-21.4l3.97-1.31c16.59-3.11 55.26 1.19 72.34-3.32"/><path fill="#686b6e" d="m1587.69 1483.87-.09 1.61c-17.08 4.51-55.75.21-72.34 3.32l.37-2.19c3.76-1.4 61.86-1.95 72.06-2.74"/><path fill="#a5a7a6" d="M1508.59 1274.74c1.88-.54 7.29-1.48 8.65-.02-.39 1.34-5.17 1.68-6.43 1.94-.77-1.44-.68-1.31-2.22-1.92"/><path fill="#d5d6d4" d="m1515.63 1486.61-.37 2.19-3.97 1.31 1.07-3.12c1.09-.13 2.18-.26 3.27-.38m-7.04-211.87c1.54.61 1.45.48 2.22 1.92-1.42.46-2.82.92-4.23 1.4l.31-3.08z"/><path fill="#f9f9f8" d="M1445.56 1421.75c14.65.31 34.3-.63 48.18.35.57 19.4.43 43.75.08 63.19-19.64.23-39.92.86-59.82.53-4.36-.07-24.18-.4-29.53-1.44-.22-.04-.41-1-.33-1.39 2.56-12.76 19.71-15.22 27.08-22.71 11.82-11.99 13.27-23.94 14.34-38.53m-25.8 65.39c11.08-.82 27.01-.09 38.59-.09 9.96-.01 24.9-.63 34.31.07l1.33-.07 18.37-.06-1.07 3.12c-11.74 5.98-16.15 7.61-18.01 21.4l-61.97.32c-9.41.04-30.14.78-38.28-1.22-5.54-7.57 2.35-17.81 7.36-23.79z"/><path fill="#a5a7a6" d="M1419.76 1487.14c11.08-.82 27.01-.09 38.59-.09 9.96-.01 24.9-.63 34.31.07-9.47 1.29-63.53 1.41-72.9.02"/><path fill="#686b6e" d="M1469.68 1242.43c1.19.22 5.9 2.53 9.78 3.38 5.19 1.01 7.04 1.29 12.33 1.09l1.66 1.21c1.03 6.04.71 12.84.68 19.05 16.63-1.05 31.8-.78 48.41.02 3.41 1.52 7.9.92 12 1.61-10.07.31-54.38-1.14-60.02.83l-1.31 4.7-.25-3.83c-2.83-2.16-44.53-2.21-51.3-1.38-18.13 2.21-21.83 13.22-6.41 24.74 9.3.15 18.6.2 27.91.16l-.41 126.14 30.51-.04c.28-13.34-1.44-83.27.6-89.76 1.19 11.05.38 35.33.45 47.22.07 10.21.53 35.43-.57 44.53-13.88-.98-33.53-.04-48.18-.35-1.07 14.59-2.52 26.54-14.34 38.53-7.37 7.49-24.52 9.95-27.08 22.71-.08.39.11 1.35.33 1.39 5.35 1.04 25.17 1.37 29.53 1.44 19.9.33 40.18-.3 59.82-.53l.17 1.76-1.33.07c-9.41-.7-24.35-.08-34.31-.07-11.58 0-27.51-.73-38.59.09l-19.37-.32c-5.01 5.98-12.9 16.22-7.36 23.79 8.14 2 28.87 1.26 38.28 1.22l61.97-.32.48 1.74-.72.15c-32.25.74-64.53-.18-96.79.48-2.44.05-4.52-.53-6.32-1.96-5.48-9.88 7.53-23.11 11.97-30.52 7.77-13 16.52-13.74 27.66-21.92 8.07-5.92 12.92-21.69 13.78-31.86-.22-2.7.04-3.01.73-5.67l.35-1.36c3.26-1.11 12.07-.54 15.96-.46 1.37-39.12.42-84.97.54-124.37-8.13.16-22.89 1.57-29.47-2.13a13.73 13.73 0 0 1-6.63-8.74c-1.08-4.24-.07-9.06 2.28-12.79 3.61-5.72 9.21-4.17 15.89-5.47 8.04-5.68 1.27-19.66 25.94-23.07z"/><path fill="#f9f9f8" d="M1446.53 1266.81c5.68-20.49 13.3-21.31 32.93-21 5.19 1.01 7.04 1.29 12.33 1.09l1.66 1.21c-.72 5.58-.38 13.14-.36 18.92-15.52.02-31.04-.05-46.56-.22m-213.57 28.66c-7.77.37-23.14 1.75-29.18-2.87-19.04-14.56-1.06-24.27 13.59-25.77l-6.52 2.5 55.23-.2c12.66.56 37.75 1.85 49.27-.9 13.03-1.11 29.05 7.35 19.47 22.97-3.64 5.94-24.48 4.73-32.7 4.59l-.25 124.32 16.62.24c.53 14.84 1.69 25.93 13.08 37.39 6.93 6.97 16.33 10.31 23.15 15.62l4.96 10.91c.4 1.35.58 1.5 1.33 2.87 10.9 2.82 13.63 15.33 10.71 24.95-4.6 2.05-93.46.98-105.39.95-12.74.22-97.59 2.01-103.26-1.42-6.08-12.8 5.23-20.34 11.08-30.03 9.65-16.01 29.83-18.12 37.45-35.14 3.51-7.82 3.81-18.05 4.06-26.4l17.32.12z"/><path fill="#071725" d="M1315.35 1268.23c13.03-1.11 29.05 7.35 19.47 22.97-3.64 5.94-24.48 4.73-32.7 4.59l-.25 124.32 16.62.24c.53 14.84 1.69 25.93 13.08 37.39 6.93 6.97 16.33 10.31 23.15 15.62l4.96 10.91c.4 1.35.58 1.5 1.33 2.87 10.9 2.82 13.63 15.33 10.71 24.95-4.6 2.05-93.46.98-105.39.95l-.89-1.88c2.52-12.15 6.12-16.43 17.11-21.91l-2.86-2.19h-13.62l.69-1.67c-1.29-15.49-.18-46.23-.38-63.28l.55-1.37c-1.66-13.41-1.52-125.61 1.09-132.21 2.55-6.45 7.69-8.66 13.75-11.17-4.48-2.24-8.19-.62-14.41-1.54l-1.28-6.69c12.66.56 37.75 1.85 49.27-.9"/><path fill="#071725" d="M1361.01 1487.14c10.9 2.82 13.63 15.33 10.71 24.95-4.6 2.05-93.46.98-105.39.95l-.89-1.88c2.52-12.15 6.12-16.43 17.11-21.91l2.51-.45c15.86-2.89 41.2.05 58.23-.89 5.64-.31 12.22.7 17.72-.77"/><path fill="#686b6e" d="M1359.68 1484.27c.4 1.35.58 1.5 1.33 2.87-5.5 1.47-12.08.46-17.72.77-17.03.94-42.37-2-58.23.89l.43-2.26c13.62-4.43 64.22 2.72 74.19-2.27"/><path fill="#d5d6d4" d="m1285.86 1274.74-.43 2.07-3.66.55c-4.48-2.24-8.19-.62-14.41-1.54 6.21-.84 12.18-.64 18.5-1.08"/><path fill="#444e56" d="M1285.86 1274.74c2.47-1.08 3.94-.63 6.53-1.06l.9 1.16 1.65-.36.05.07c-.74 1.35-7.76 1.89-9.56 2.26z"/><path fill="#d5d6d4" d="M1279.69 1487.06c1.93-.15 3.87-.32 5.8-.52l-.43 2.26-2.51.45z"/><path fill="#f9f9f8" d="m1210.85 1269.33 55.23-.2 1.28 6.69c6.22.92 9.93-.7 14.41 1.54-6.06 2.51-11.2 4.72-13.75 11.17-2.61 6.6-2.75 118.8-1.09 132.21-7.87-1.17-23.25-.65-31.72-.58l-.1-126.26c-9.69.18-31.74 2.7-35.31-7.88-3.46-10.26 2.81-14.18 11.05-16.69m55.22 217.73h13.62l2.86 2.19c-10.99 5.48-14.59 9.76-17.11 21.91-11.32-.18-97.88.98-101.24-1.64-4.78-7.77 2.9-16.72 8.45-21.72 31.13-.54 62.18.12 93.42-.74"/><path fill="#686b6e" d="M1232.96 1295.47c-7.77.37-23.14 1.75-29.18-2.87-19.04-14.56-1.06-24.27 13.59-25.77l-6.52 2.5c-8.24 2.51-14.51 6.43-11.05 16.69 3.57 10.58 25.62 8.06 35.31 7.88l.1 126.26c8.47-.07 23.85-.59 31.72.58l-.55 1.37c-15.68-.42-32.44-.05-48.24-.08-.92 23.73-7.92 38.61-31.06 48.24-6.34 2.64-8.95 10.05-12.05 15.62l38.94-.02c6.94-.91 18.63-.97 25.58-.62 9.2.23 17.79-.56 27.21.14l-.69 1.67c-31.24.86-62.29.2-93.42.74-5.55 5-13.23 13.95-8.45 21.72 3.36 2.62 89.92 1.46 101.24 1.64l.89 1.88c-12.74.22-97.59 2.01-103.26-1.42-6.08-12.8 5.23-20.34 11.08-30.03 9.65-16.01 29.83-18.12 37.45-35.14 3.51-7.82 3.81-18.05 4.06-26.4l17.32.12z"/><path fill="#a5a7a6" d="M1213.97 1485.87c6.94-.91 18.63-.97 25.58-.62-6.66 1.3-18.77 1.11-25.58.62"/><path fill="#071725" d="M1192.37 1130.86a986 986 0 0 1 50.73.13c.31 21.23-6.18 42.39 13.07 55.84 18.56 7.4 32.25-1.04 34.73-20.43 1.37-10.7.21-24.51.32-35.45l49.08.11c.11 33.78 5.01 67.78-20.98 92.97-10.57 10.24-20.83 15.86-35.12 19.42 15.89 2.29 29.85 3.24 31.12 23.39l.03 1.39c-11.52 2.75-36.61 1.46-49.27.9l-55.23.2 6.52-2.5c5.63-19.23 9.25-21.09 28.61-23.28l.71-1.15c-4.79-1.17-8.21-2.74-12.76-4.37-7.02-3.16-14.96-9.2-20.46-14.63-26.07-25.77-21.43-58.63-21.1-92.54"/><path fill="#e8984c" d="M1192.37 1130.86a986 986 0 0 1 50.73.13c.31 21.23-6.18 42.39 13.07 55.84l-1.38.86c3.84 1.36 7.44 2.69 11.39 3.73l.17 36.81c1.92 2.86.53 13.88.23 17.54-4.91 1.27-5.25 1.34-10.4.07-2.14-.58-8.91-3.36-9.49-3.44-4.79-1.17-8.21-2.74-12.76-4.37-7.02-3.16-14.96-9.2-20.46-14.63-26.07-25.77-21.43-58.63-21.1-92.54"/><path fill="#976332" d="M1192.37 1130.86a986 986 0 0 1 50.73.13c.31 21.23-6.18 42.39 13.07 55.84l-1.38.86c-19.32-10.08-13.48-36.02-13.68-54.72-16.04-.81-30.73.32-46.16-.11.09 48.93-6.75 74.85 39.64 103.63l-.66 1.54c-7.02-3.16-14.96-9.2-20.46-14.63-26.07-25.77-21.43-58.63-21.1-92.54"/><path fill="#111314" d="M1266.35 1228.23c1.92 2.86.53 13.88.23 17.54-4.91 1.27-5.25 1.34-10.4.07-2.14-.58-8.91-3.36-9.49-3.44-4.79-1.17-8.21-2.74-12.76-4.37l.66-1.54c10.48 5.3 20.26 5.62 31.71 6.42 0-4.87-.11-9.82.05-14.68"/><path fill="#f9f9f8" d="M1246.69 1242.4c.58.08 7.35 2.86 9.49 3.44 5.15 1.27 5.49 1.2 10.4-.07.52 6.87.29 14.54.32 21.5 13.09.07 36.38 1 48.42-.43l.03 1.39c-11.52 2.75-36.61 1.46-49.27.9l-55.23.2 6.52-2.5c5.63-19.23 9.25-21.09 28.61-23.28z"/><path fill="#686b6e" d="M1246.69 1242.4c.58.08 7.35 2.86 9.49 3.44-23.25-.34-29.48-1.17-37.48 21.27 15.5.32 33.05-.57 48.2.16 13.09.07 36.38 1 48.42-.43l.03 1.39c-11.52 2.75-36.61 1.46-49.27.9l-55.23.2 6.52-2.5c5.63-19.23 9.25-21.09 28.61-23.28z"/><path fill="#071725" d="m576.478 1130.87 50.301.13c.015 12.75-.018 25.53-.105 38.27-.256 37.5-22.356 64.17-58.127 74.27 21.285 1.54 26.333 1.89 33.192 23.29-14.957 1.39-34.753.45-49.901-.15-.124-20.95 4.373-18.44-10.971-20.44 3.079-.46 5.532 0 7.6-2.3 2.302-7.37 1.124-42.22.815-51.77l.486-2.25c33.879-5.2 26.979-31.41 26.71-59.05m942.652.07 48.77.16c.16 31.59 4.36 67.41-19.83 91.21-8.65 8.5-22.36 16.81-33.96 20.13.74 2.56 7.65 1.87 10.93 2.5 12.24 1.7 16.62 10.97 17.5 22.24-16.61-.8-31.78-1.07-48.41-.02.03-6.21.35-13.01-.68-19.05l-1.66-1.21c-.12-.67-.23-1.34-.35-2.01 1.36-7.97.53-42.89.41-52.39l.45-1.59c35.2-8.26 26.34-30.83 26.83-59.97"/><path fill="#686b6e" d="M1525.04 1244.94c-2.35.13-17.48.64-18.23-.61.82-1.76 5.66-1.78 7.3-1.89.74 2.56 7.65 1.87 10.93 2.5"/><path fill="#071725" d="m801.245 1131.04 49.818-.05c.096 50.52 3.032 94.69-55.948 112.6 19.573 1.57 25.845.88 30.632 21.57-4.362 1.61-41.121 1-47.726.99.049-5.04.505-14.81-.673-19.18-3.886-.22-6.756-.29-10.618-.83 4.678-.54 8.64 1.12 9.052-3.2 1.644-4.14.752-42.99.753-50.61-5.84-1.65-7.41-2.49-12.684-5.21l.876-1.48c5.223 2.85 6.485 3.28 12.24 4.87 24.47-5.44 25.677-16 24.71-39.67-.261-6.39-.589-13.41-.432-19.8"/><path fill="#e8984c" d="m1416.04 1130.84 51.02-.21c.28 28.6-8.68 51.3 25.24 60.28l-.45 1.59c.12 9.5.95 44.42-.41 52.39.12.67.23 1.34.35 2.01-5.29.2-7.14-.08-12.33-1.09-3.88-.85-8.59-3.16-9.78-3.38-5.04-1.34-8.1-2.66-12.89-4.6-6.5-2.58-15.12-9.08-20.06-14.12-25.41-25.96-20.93-59.33-20.69-92.87"/><path fill="#976332" d="m1416.04 1130.84 51.02-.21c.28 28.6-8.68 51.3 25.24 60.28l-.45 1.59c-34.39-7.99-26.63-31.89-26.88-60.03-15.69.43-31.39.53-47.09.32.04 43.71-4.72 80.54 40.49 103.95l-1.58 1.09c-6.5-2.58-15.12-9.08-20.06-14.12-25.41-25.96-20.93-59.33-20.69-92.87"/><path fill="#111314" d="M1458.37 1236.74c9.96 5.51 22.46 5.24 33.07 8.15.12.67.23 1.34.35 2.01-5.29.2-7.14-.08-12.33-1.09-3.88-.85-8.59-3.16-9.78-3.38-5.04-1.34-8.1-2.66-12.89-4.6z"/><path fill="#e8984c" d="M473.813 1131.46c11.255-1.56 38.217-.62 51.073-.74.139 28.19-8.167 52.06 24.882 59.2l-.486 2.25c.309 9.55 1.487 44.4-.815 51.77-2.068 2.3-4.521 1.84-7.6 2.3-1.537-.1-3.072-.21-4.607-.34-5.314-1.3-6.983.63-8.065-4.4-3.13-1.34-6.838-2.39-10.138-3.61l-.542 1.68c-8.079-3.44-15.858-8.94-21.971-15.21-26.558-27.21-22.076-58.14-21.731-92.9"/><path fill="#976332" d="M517.515 1239.57c-8.079-3.44-15.858-8.94-21.971-15.21-26.558-27.21-22.076-58.14-21.731-92.9 9.558 1.19 44.724-.81 49.253 1.47q-23.777.33-47.556.12c-.194 43.99-3.373 81.82 42.547 104.84z"/><path fill="#402c1e" d="M473.813 1131.46c11.255-1.56 38.217-.62 51.073-.74.139 28.19-8.167 52.06 24.882 59.2l-.486 2.25c-32.922-7.54-26.536-31.25-26.216-59.24-4.529-2.28-39.695-.28-49.253-1.47"/><path fill="#111314" d="M528.195 1241.5c8.345 1.69 12.677 1.25 20.272 2.44-2.068 2.3-4.521 1.84-7.6 2.3-1.537-.1-3.072-.21-4.607-.34-5.314-1.3-6.983.63-8.065-4.4"/><path fill="#e8984c" d="M702.924 1130.69c17.169.06 34.338-.01 51.505-.22-.057 10.36-.341 21.37-.159 31.66.199 11.27 2.803 16.18 10.457 23.51l-.876 1.48c5.274 2.72 6.844 3.56 12.684 5.21-.001 7.62.891 46.47-.753 50.61-.412 4.32-4.374 2.66-9.052 3.2-1.253.13-.719.12-1.6.11-4.346-3.86-3.317-3.38-9.284-3.87-4.782-1.24-7.955-2.74-12.446-4.54-5.897-2.58-14.328-9.04-18.924-13.65-26.318-26.38-21.777-59.2-21.552-93.5"/><path fill="#976332" d="M702.924 1130.69c17.169.06 34.338-.01 51.505-.22-.057 10.36-.341 21.37-.159 31.66.199 11.27 2.803 16.18 10.457 23.51l-.876 1.48c-16.231-13.4-11.05-35.35-11.042-54.76-15.943.47-31.896.48-47.84.05-.019 44.93-4.764 79.08 40.323 104.39l-1.892 1.04c-5.897-2.58-14.328-9.04-18.924-13.65-26.318-26.38-21.777-59.2-21.552-93.5"/><path fill="#111314" d="M745.292 1236.8c9.388 5.06 20.027 6.06 30.49 6.14-.412 4.32-4.374 2.66-9.052 3.2-1.253.13-.719.12-1.6.11-4.346-3.86-3.317-3.38-9.284-3.87-4.782-1.24-7.955-2.74-12.446-4.54z"/><path fill="#617a8f" d="M859.267 916.602c3.918-1.554 15.763-.243 20.262.194-2.053.356-5.12.344-6.625.766 7.22 2.362 51.398.083 53.274 2.485 7.509 24.823 17.135 31.061 38.691 42.954-18.625 1.383-102.233 3.429-115.146-2.975-7.984-3.959-10.937-11.493-13.514-19.424 1.234-4.662 1.731-7.626 4.203-11.808.68-1.216 1.311-2.484 2.153-3.591a21.47 21.47 0 0 1 13.968-8.247z"/><path fill="#111314" d="M840.412 928.794c.68-1.216 1.311-2.484 2.153-3.591a21.47 21.47 0 0 1 13.968-8.247l2.734-.354 1.233.702.022.134c-.032.023-.559.243-.363.26-8.254-.699-15.829 10.043-19.747 11.096"/><path fill="#686b6e" d="M518.057 1237.89c3.3 1.22 7.008 2.27 10.138 3.61 1.082 5.03 2.751 3.1 8.065 4.4q-7.166-.03-14.327.21l1.23-1.73c.052-.01 2.168-.25 2.43-.97.056-.15.034-.27-.032-.41-.226-.49-.984-.75-1.444-.9-1.747-.57-3.523-1.08-5.197-1.85-.472-.22-.937-.45-1.405-.68z"/><path fill="#617a8f" d="M1001.81 2043.59c4.36-1.77 14.57-5.29 19.12-6.62l1.3 1.15c4.48-1.48 5.94.75 7.77-.17 7.21 1.36 19.2 6.04 25.23 10.05h-65.505c3.897-1.51 8.055-3.46 12.085-4.41"/><path fill="#444e56" d="M1001.81 2043.59c4.36-1.77 14.57-5.29 19.12-6.62l1.3 1.15c-4.4 2.28-15.56 5.9-20.42 5.47"/><metadata><recraft-signature>{&quot;signed_by&quot;: &quot;recraft&quot;, &quot;signature_b64&quot;: &quot;ZzzukXCUyiHKKNWNfr1LC09L/r06NA8g9HMTtUnLhCQ1nlk2we+CykTXW/QKhPbfV8OLv5AF71EYJMB08sgXCQ==&quot;, &quot;signing_algo&quot;: &quot;Ed25519&quot;, &quot;generation_timestamp&quot;: 1777235387, &quot;identifier&quot;: &quot;9eb6b32d-cbc3-4532-9d2d-1a3f1cfbeb25&quot;}</recraft-signature></metadata></svg>