<svg xmlns="http://www.w3.org/2000/svg" width="1024" height="1024" preserveAspectRatio="none" style="display:block" viewBox="0 0 2048 2048"><path fill="#384954" d="M1215.48 652.077c-14.76 97.687-32.02 201.362-77.18 289.411-14.61 28.504-40.32 52.465-14.39 84.242 20.88 25.68 49.14 46.63 82.12 52.82 49.21 9.24 40.55-64.42 41.85-94.715 1.45-28.655 3.84-57.255 7.17-85.754 22.58-191.737 93.8-377.051 243.38-504.715 66.71-56.932 156.08-104.018 243.15-118.911 38.26-6.544 75.97-6.77 114.46-5.3l-.05 49.379c-25.07 3.903-45.35 7.525-69.72 14.334-93.02 25.987-170.29 86.64-226.86 164.152a648 648 0 0 0-58.86 99.78c-101.06 208.36-91.36 446.23-81.72 671.55.8 18.88-4.3 32.01-.48 53.31-7.5 16.15-9.71 25.23-12.06 43.11-1.23 9.35-1.78 29.06-5.34 36.83l-1.89.06c-3.54.14-10.16.13-11.98 3.62-9.14 17.6-2.72 39.67-15.62 56.71-2.02 2.67-2.94 5.63-6.31 6.93l-6.74-.76c-8.64 9.47 18.78 21.44-9.34 41.35.06 4.37.58 7.37-1.5 11.13-2.29 1.89-3.1 1.67-6.07 2.08-3.03 4.31-3.45 13.22-5.13 18.15-1.11 3.28-2.96 7.34-4.37 10.55 5.66 21.47 4.72 25.86-16.15 35.76.1 9.75-4.24 34.43-14.22 38.42-6.89-2.58-5.97-13.67-6.28-20.08-1.65 10.26-3.85 22.63-10.42 30.93-8.6 10.86-7.69 23.46-13.35 33.59l-1.73 1.16c-5.09-2.24-3.18-4.43-7.6-5.16-7.49 4.6-7.25 27.99-13.95 39.35l-1.01.13-1.59-3.49c-3.69 2.76.34 16.85-.99 23.36-4.65 2.97-4.88-1.64-6.92 1.88.6 3.8 1.32 7.85 1.82 11.63-2.46 5.63-5.03 11.22-7.71 16.74 4.27 8.1 8.81 22.73 4.58 31.25-7.42-.45-15.98-38.46-19.81-45.23-.65-1.15-5.08-2.56-6.26-2.96-6.54-6.62-3.72-27.01.57-35.13-6.38-17.18-7.79-32.43-12.27-44.69-3.16 1.34-8.71 4.28-11.68 3.62l-4.41-4.15c-5.04 5.64 1.03 29.24-20.11 36.24-2.5 8.18-4.01 14.18-5.78 22.56l-.98.1-3.03-4.09-1.14.41-.36 1.74c-1.46 7-1.91 8.32-5.54 14.48 3.55 3.78 3.48 2.55 4.11 6.8-1.3 3.83-1.1 3.74-4.12 6.32-3.3.94-3.06.94-6.28-.24-2.72-2.19-3.23-6.22-4.17-9.79-7.63-3.77-12.64-5.62-20.72-8.48l-.35 1.3c-3.13 12.06-4.48 36.09-9.83 44.57l-1.82.52c-2.58-2.23-2.95-2.69-5.02-5.22l-1.15.13c-2.61 4.57-4.08 7.7-7.74 11.53 2.13 4.21 5.43 9.08 3.45 13.77-5.09 1.42-5.96-1.52-7.37 2.09-3.07 7.9-6.74 16.82-9.61 24.7-16.86-6.21-14.75-8.46-11.34-25.01-4.16-4.01-4.64-4.63-7.26-9.78l-6.18 22.26-3.4-15.95-.46 1.87c-3.97 16.58-2.28 49.85-18.11 55.95 1.76 14.58 1.08 26.28-1.46 40.73-.94 5.32-2.32 14.16-.78 19.34 10.47 6.19 39.87 6.22 51.89 5.44 73.41-4.82 145.18-25.01 209.99-59.77 26.3-14.11 67.99-33.3 97.35-33.42 33.38-.15 59-3.79 78.17-36 .62-1.04 1.22-2.09 1.81-3.14l2.27 2.15c-11.66 36.05-31.96 62.35-65.95 79.85-20.73 10.67-43.12 17.27-65.62 23.05-45.48 11.67-201.01 36.44-216.78 87.19-.56 1.8-1.03 3.64-1.46 5.48 9.87 45.67 89.52 56.94 126.81 69.97H802.827c26.48-7.09 56.936-14.48 81.558-26.35 118.025-56.93-28.302-101.27-78.286-116.76 3.323-.49 6.041-.82 9.399-1.16 33.651 1.4 167.578 15.83 189.202 6.09 2.16-3.37 4.08-18.44 6.43-24.9l3.59-10.18c-1.05-3.34-7.59-.35-11.04-1.42-3.64-1.14-7.318-3.58-10.549-5.53-.686-6.54-1.739-24.63-6.099-28.55l-3.43 1.36-1.337-1.2c-4.144-14.23-2.887-34.28 2.142-48.52l-3.381.86-1.989 1.27c-7.786-1.73-7.787-9.78-8.29-16.48-5.138 9.71-13.617 36.5-28.482 28.97-3.024-5.63 3.459-5.75-5.873-13.23l-.927-.72c-.844-2.73 7.62-16.22 9.831-24.17l.446-1.63c-.669.7-34.455 47.53-34.599 48.01-6.184 20.49-6.325 26.4-19.964 45.44-.223-9.6-.39-18.02-1.352-27.61-2.43 2.56-5.046 5.88-7.33 8.64-6.85-10.67-3.429-16.06-8.442-23.38-2.181-.59-3.019-.81-5.224-1l-1.695-.13c-.905-4.8 2.548-9.83 1.399-14.86-3.397.72-4.014 4.86-9.048 6.91l-1.484-.83c-4.365-10.99 8.643-25.39-.055-31.61l-2.304 2.32-1.615-.04-4.36-5.52-4.072 3.54c-3.738 3.28-4.516 4.64-9.531 2.58-3.432-4.74-2.507-24.42-3.161-32.7a89 89 0 0 1-1.68-2.07c-5.125-6.52-5.762-9.41-4.817-17.35-2.371.07-3.823.1-6.218-.04-.562-8.95 1.958-44.51 4.212-54.73-.358-.41-.716-.83-1.074-1.24-8.826 1.46-13.524 20.04-14.935 27.59-21.923 11.69-22.113 31.49-24.407 53.87-.19 1.85-5.266 5.81-6.711 7.59-.409 4.6.136 7.05.782 11.61-19.52 28.76-13.352 29.44-22.685 60.05-3.831-7.22-6.127-12.01-7.752-20.07-.22-1.1-.439-1.3-1.011-2.42l-2.657-.35c-2.713-3.85-6.038-18.39-7.33-23.57 4.014-8.43 5.439-12.57 7.441-21.9-4.707-1.58-8.506-2.26-11.875-5.75-2.177-6.61 3.902-11.43.305-19.31-2.685.09-3.497.73-5.95 1.86l-1.781-.66c-3.281-9.17 5.926-13.97-3.386-26.7.708-3.63 3.162-7.3 3.378-8.99.873-6.78.359-17.09.203-24.01-8.674 11.44-12.773 20.04-25.712 26.64-2.164-2.74-4.36-5.45-6.588-8.14-4.227 2.63-1.364 6.74-6.26 7.26l-1.446-1.6c1.219-12.11 9.73-29.99 4.047-39.54-6.173-3.71-4.133.15-7.149-2.28.106-6.86 2.964-17.27 4.599-24.24-5.654-4.33-15.882-10.36-16.273-16.96-.626-10.55 6.229-22.15 8.561-32.48 2.012-8.9-3.783-13.54-4.173-22-.406-8.81 4.543-19.6 4.193-28.01-2.14-1.53-1.438-1.13-3.857-2.06-2.536-10.86 15.53-15.26-.544-25.21-.755-.47-1.514-.93-2.276-1.39 1.492-12.12 1.784-27.13-6.255-37.34-2.681-.31-1.49-.58-3.586 1.03-.062 3.01 1.807 5.3 1.892 7.83.014.41-16.107 27.34-18.15 32.05 9.048 17.78-3.185 14.87-4.327 24.3-2.922 24.13 3.126 18.81-11.498 39.65-.137-6.14-.015-16.11-1.326-21.71-5.055-.71-3.793.17-7.253-2.7-4.56-10.95 3.898-23.12-.267-32.46l-1.605.18-5.452 6.93-1.715.17c-3.489-4.33-3.51-11.19-3.567-16.51l-.043-4.07c-2.431 3.37-4.985 7.06-7.486 10.33-1.791-13.07-2.019-13.24 3.323-25.18l-4.849-11.6c7.606-15.29 13.698-20.04 1.054-33.71 1.269-12.43 3.029-16.99-2.578-27.85l-.815-1.61c4.943-24.68 15.698-47.38 19.698-72.6 2.5-15.76 2.859-29.85 4.069-45.69 1.521-17.73 3.134-35.46 4.838-53.18a1951 1951 0 0 0 7.762-193.83c-.945-184.663-24.792-371.672-128.018-529.754-64.455-98.707-161.809-175.898-278.919-197.718-12.041-2.243-22.793-3.643-34.961-5.083a1627 1627 0 0 0-.046-48.802c130.208-12.336 252.186 35.324 351.663 117.444 128.46 106.047 202.343 260.272 235.38 421.178 10.773 55.685 17.887 115.458 20.854 171.772.838 21.913-3.896 78.693 15.334 93.123 33.601 22.21 86.197-21.77 106.284-45.17 32.618-38.001 1.085-61.216-16.107-94.506-35.193-68.149-49.416-147.6-63.413-222.456-3.505-18.744-7.478-40.426-9.517-58.977q28.183-.254 56.365-.02c.586 27.866 2.942 63.392 5.539 91.231 23.369-3.261 45.589-7.84 69.267-10.652a592.4 592.4 0 0 1 188.832 7.752c3.06-22.351 6.4-65.309 6.54-88.303 18.75-.097 37.74-.027 56.46-.322"/><path fill="#edebeb" d="M981.026 1791.74c2.968-10.5 7.258-16.43 3.381-.86zm-160.836-65.69c4.065-5.71 4.64-7.45 6.218.04-2.371.07-3.823.1-6.218-.04"/><path fill="#fafaf9" d="M1022.09 1072.44c86.37 1.92 165.83 59.33 176.42 150.57 1.67 14.43-11.3 50.42-22.1 61.04-17.39 17.09-50.45 12.19-72.91 13.19-25.44.86-51.85.79-77.5.69-24.23-.35-48.792-.41-72.957-.85-23.175-.42-60.888 5.53-78.153-11.9-43.679-44.1-22.652-113.37 15.392-153.69 36.4-38.58 79.527-56.69 131.808-59.05"/><path fill="#fc0200" d="M1018.13 1181.51c29.29-3.36 55.76 17.63 59.17 46.91s-17.54 55.79-46.81 59.24c-29.34 3.46-55.925-17.54-59.34-46.89-3.415-29.34 17.633-55.89 46.98-59.26"/><path fill="#fafaf9" d="M1006.02 787.429a557.2 557.2 0 0 1 135.32 12.345c-9.78 61.048-36.65 137.929-100.6 159.966q-2.835.702-5.7 1.249c-37.55 7.024-72.404-22.543-91.656-51.875-21.674-33.023-30.247-71.205-36.936-109.469 29.516-7.509 69.172-10.564 99.572-12.216"/><path fill="#db9648" d="M928.924 1417.18c1.686-.1 3.375-.15 5.065-.16 12.76.06 25.202 7.28 33.818 16.28 40.953 42.74 31.579 176.07 30.228 234.14-19.074-1.67-37.391-6.85-55.643-12.37-25.068-8.45-63.346-22.57-80.333-42.8-3.183-51.41-1.899-120.01 25.444-164.68 9.888-16.15 22.992-26.05 41.421-30.41m181.306-.01c.92-.09 1.84-.14 2.76-.16 12.89-.28 25.2 5.77 34.36 14.57 41.63 40.03 36.05 126.89 37.14 180.47-23.13 18.94-47.38 31.67-75.2 42.27-19.11 6.36-38.28 10.45-58.04 14.13-3.21-20.73-2.92-42.73-3.09-63.68-.41-48.17-2.3-119.31 24.71-160.86 9.21-14.16 20.59-23.07 37.36-26.74m119.85-115.25c8.39 1.61 16.4 7.7 21.82 13.88 26.75 30.49 62.4 81.5 60.28 123.2-2.55 50.26-38.51 100.63-72.72 133.89l-10 8.28c-9.58-34.05-8.43-74.76-21.42-108.7-7.93-21.7-20.78-40.23-34.09-59.26-23.23-33.2 6.68-49.95 25.05-74.34 7.8-10.36 21.09-30.25 31.08-36.95m-415.621-.09c5.972.13 8.684 2.58 12.362 7.03 7.359 9.75 15.739 19.79 22.439 30.02 12.303 18.78 38.46 38.9 27.983 63.92-4.456 10.65-14.449 19.48-19.942 29.22-26.128 46.33-35.972 94.72-39.479 147.04-3.503-2.37-6.745-5.1-10.042-7.75-25.426-22.15-45.727-52.92-60.203-83.46-14.609-30.81-19.893-54.34-7.99-86.89 10.083-27.58 48.68-86.86 74.872-99.13m445.151-151.36c6.2 2.15 13.06 6.32 17.9 10.88 37.25 35.1 78.63 90.93 82.57 142.74 1.58 20.89-.4 59.11-13.93 75.1-9.73 1.46-11.68-4.41-16.21-11.72-7.91-12.76-15.48-25.63-23.71-38.19a768 768 0 0 0-27.64-39.85c-17.33-23.6-36.14-42.96-31.83-74.3 2.12-15.43 3.93-52.78 12.85-64.66m25.12-225.797c14.88 10.945 22.35 48.392 27.66 66.688 13.04 44.929 44.73 80.489 59.64 123.779 8.27 24.02 18.61 82.53 6.67 106.42-6.11.91-11.08-3.28-14.34-7.94-13.34-19.08-26.6-39.93-40.49-58.53-36.76-49.2-44.15-110.64-42.98-170.278.36-18.647.58-41.537 3.84-60.139M778.572 1151.79c2.441.32 6.433 1.57 7.052 4.21 11.209 47.72 21.556 77.08-11.353 119.1-21.925 28-41.071 62.8-57.894 93.84-2.358 4.35-6.263 6.53-10.372 8.73-27.252-4.89-17.246-84.31-12.302-103.23a170.2 170.2 0 0 1 13.627-35.69c12.087-23.23 48.749-73.9 71.242-86.96m-20.005-225.034c3.855 3.91 4.461 33.579 4.69 40.568 1.803 55.206 1.625 114.476-25.538 164.226-11.537 21.12-26.802 39.45-40.497 59.13-6.557 9.27-16.751 31.93-27.158 34.97-3.234-3.21-5.289-7.08-5.858-11.67-3.825-30.89-.284-61.74 8.187-91.32 7.669-26.77 16.9-39.25 29.553-62.49a530 530 0 0 0 19.437-39.99c10.16-23.273 26.531-76.97 37.184-93.424m554.563-173.034c5.19 7.048 14.12 72.6 21.11 92.663 14.08 40.446 40.36 58.47 48.78 97.719 4.32 20.142 4.77 58.346-6.96 76.356-2.42 1.1-1.46.88-4.15.76-8.82-4.93-21.39-26.989-26.64-35.754-35.54-59.278-51.03-164.557-32.14-231.744m-578.943 1.803c3.438 2.944 5.078 14.789 5.669 19.337 8.696 66.941-2.311 137.137-29.292 198.877-4.985 11.405-24.905 44.361-36.682 48.551a33 33 0 0 1-1.847-2.73c-6.714-10.88-6.779-24.361-8.3-35.822-8.602-64.814 27.33-81.559 49.079-135.491 13.844-34.328 13.383-59.893 21.373-92.722m-49.25-134.78c8.315 4.932 12.681 33.843 14.212 42.847 8.383 49.293 7.622 99.56-5.804 147.945-3.103 11.182-8.756 34.741-19.85 41.502-2.642 1.296-5.095-.341-7.639-1.408-21.729-19.742-27.61-54.726-12.996-80.312 4.201-7.355 12.041-14.227 15.691-21.54 11.599-21.945 15.188-43.364 18.044-67.408 2.387-20.101-3.744-43.245-1.658-61.626m677.223-.283c5.07 4.302 1.27 22.713.73 29.699a210 210 0 0 0 1.47 46.617c1.64 11.696 7.53 39.496 13.67 49.486 9.33 15.207 23.45 24.453 25.65 45.139 2.36 22.245-4.87 40.278-18.08 57.573-2.73 2.457-6.6 6.427-10.69 3.545-4.5-3.336-7.18-10.007-9.38-15.077-24.54-56.631-25.51-122.508-13.59-182.42 2.16-10.844 4.3-25.334 10.22-34.562"/><path fill="#fafaf9" d="M1005.54 1314.44c13.61-.79 48.9-.78 61.29 2.64l.31 1.21c-4.75 4.99-25.48 11-33.34 13.92l-.22 1.17c16.82 18.39 67.13 17.35 90.14 17.11-20.27 14.85-49.76 25.63-74.54 29.28-43 6.94-85.951-4.18-121.235-29.28 29.804 3.94 51.093 1.97 78.235-11.45 3.37-1.67 7.1-2.71 8.41-6.11-3.51-4.1-30.349-7.12-33.902-15.14 3.871-3.7 18.709-3.17 24.852-3.35"/><path fill="#db9648" d="M622.828 515.436c2.777 1.072 4.526 3.794 6.019 6.367 25.505 44.199 32.632 96.943 30.556 147.373-.567 13.77-.672 44.474-14.026 53.641-2.473 1.697-5.073.491-7.736-.236-21.979-17.693-36.922-48.156-22.165-75.486 3.145-5.825 11.257-12.761 15.94-18.343 4.889-21.54 2.723-53.736-1.112-75.366-2.247-12.672-5.69-24.743-7.476-37.95m801.812.413c2.09 3.003-1.73 17.426-2.67 21.933-6.66 31.72-7.08 59.81-5.8 91.912 13.83 14.899 23.03 20.131 21.22 44.29-1.41 18.937-9.86 33.552-24.13 45.965-3.77 2.184-9.83 4.84-12.67.146-12.36-20.384-9.81-60.51-9.21-83.558.74-28.214 14.66-104.278 33.26-120.688m66.09-78.022c1.31 2.132 1.15 2.83.33 5.991-6.73 25.812-18.99 57.655-20.52 84.196 26.47 24.225 16.76 55.855-11.07 72.605-1.69.724-3.8 1.366-5.57 1.967-8.77-1.509-10.34-9.99-10.11-17.879 1.38-47.121 14.04-112.114 46.94-146.88m-932.115.944c1.85.977 3.124 1.968 4.48 3.638 25.139 31.22 33.819 71.912 39.258 110.851 1.462 10.469 6.372 39.884-3.513 48.414-1.766 1.523-5.072.473-7.321.069-28.721-12.703-40.342-51.296-12.161-72.137-1.227-17.347-5.183-35.218-9.686-51.937-2.741-10.179-10.76-29.557-11.057-38.898m994.495-56.201c1.08.346.35.043 1.92 1.405-.22 4.091-14.01 34.821-16.64 41.796a489 489 0 0 0-11.06 32.727c19.54 21.72 14.03 38.215-11.7 50.016-3.18 1.053-8.02 2.42-11.15 1.109-1.88-2.539-3.06-5.872-2.5-9.011 6.41-35.865 24.4-93.724 51.13-118.042m-1059.002.977c9.416 4.949 24.411 30.767 28.427 40.46 5.671 13.689 26.647 73.748 22.178 85.297-2.345 1.897-4.567 1.505-7.698 1.578-26.029-7.213-41.469-32.785-16.016-50.837-8.842-29.407-15.643-48.136-26.891-76.498"/><path fill="#fafaf9" d="M1107.8 1313.32c14.55.21 30.99.63 44.59 5.97-18.95 22.3-27.88 20.55-55.63 18.49-16.62-1.86-31.92-1.29-47.88-6.92 12.06-1.82 28.29-1.83 39.18-6.58 7.04-3.07 11.4-8.07 19.74-10.96m-185.952 1.26c9.052-.74 17.376-.69 26.442-.61 4.834 5.67 8.979 12.95 16.701 13.98 11.013 1.46 22.745 1.64 34.065 2.6-10.442 2.9-20.431 4.88-31.296 5.57-13.5 1.76-33.042 3.58-46.27 1.06-10.442-2-20.282-12.76-27.029-20.57 9.309-1.03 18.209-1.23 27.387-2.03"/><path fill="#db9648" d="M428.867 337.741c24.02 9.736 44.339 66.802 51.922 90.163 1.148 3.538 2.892 9.311 1.006 12.807-2.738.846-4.983-.075-7.856-.758-17.153-7.679-37.693-21.651-13.415-37.376-9.822-32.949-17.167-38.368-31.657-64.836m1188.643.089c.13.501.23 2.543.03 2.799-15.59 20.655-25.85 37.728-33.59 62.623 19.34 18.607 5.33 31.917-15.71 38.709-3.47.25-5.76.534-8.09-2.041-.67-11.076 17.73-42.795 23.12-54.681 7.39-16.297 19.8-36.471 34.24-47.409m24.77 15.891c4.73.625 8.88 1.803 10.31 6.886 4.26 15.036-12.98 20.856-23.83 23.227-1.85.136-11.19 1.648-9.13-2.794 4.69-10.123 13.15-21.518 22.65-27.319m-1236.509.834c8.432 2.888 17.603 19.388 21.301 27.477 1.892 4.138-7.306 3.252-9.202 3.291-17.144-4.835-32.428-17.563-12.099-30.768m-63.115-25.764c9.966.542 17.477 5.995 23.902 13.904 2.944 3.623 2.044 6.101-1.807 8.124-11.658-.003-33.718-8.355-22.095-22.028m1359.254-1.975c4.4 3.038 6.93 8.69 3.36 13.42-4.48 5.937-12.56 7.329-19.5 8.307-16.91-3.217 11.73-19.418 16.14-21.727M366.512 304.742c17.621 5.091 32.153 27.697 36.697 44.802-3.619-1.807-34.035-39.974-36.697-44.802m1316.218.112c3.35 3.093-9.29 12.891-12.32 16.549-7.08 8.538-14.18 17.16-21.35 25.597-6.62-6.804 23.84-36.237 30.69-40.375zm-1388.494 10.41c5.104-.158 32.335 1.946 17.573 10.413-6.878 2.488-12.356 3.795-18.703-1.134-4.1-3.185-1.768-6.351 1.13-9.279m1448.274-.324c14.55.659 20.09 7.197 3.86 11.635-15.93-.152-20.7-5.244-3.86-11.635M312.158 294.977c13.741-.828 27.924 11.391 28.867 25.087-.119-.071-28.961-25.212-28.867-25.087m1423.522-.94c.33.426.82.902.94 1.447.41-1.396-21.59 17.355-24.78 21.511l-1.21 1.614-1.16 1.488c-1.42-1.103-1-1.882-.25-3.501 5.38-11.678 14.72-18.119 26.46-22.559m37.68.169c13.52 1.332-12.5 8.893-15.05 9.855-1.75.507-3.51 1.453-4.51-.281 1.54-5.88 14.52-8.685 19.56-9.574m-1504.879-1.245c9.846-.034 20.235.702 25.75 9.592-8.13-.492-19.009-5.009-25.75-9.592"/><path fill="#384954" d="M1451.81 1481.84c-5.93-7.46-16.05-22.88-5.74-31.08l2.15-.25c4.86 5.05 2.97 13.68 10.93 16.87 18.51 7.41 44.25 10.26 64.01 12.04 105.52 9.5 214.92 7.91 307.47 67.98 17.11 11.1 41.31 28.15 53.99 44.78-68.8-4.16-134.57-11.74-203.08 3.35-37.86 8.34-84.36 24.97-86.4 70.71-1.54 31.16 17.97 38.4 42.36 49.23 13 5.69 25.94 11.52 38.82 17.48 28.51 13.22 58.46 27.06 60.14 63.35.66 14.04-9.17 31.58-19.9 40.86-17.63 15.25-41.39 24.65-62.28 34.68-38.75 16.55-116.9 38.32-120.24 89.26-3.03 46.4 75.39 72.99 109.94 82.83 4.26 1.22 8.52 2.34 12.54 4.07h-334.37c-7.66-10.25-14.47-27.81-11.06-40.77 15.5-59.02 81.89-86.21 132.22-110.17 39.7-18.91 188.21-43.34 144.05-112.27-28.51-44.5-119.1-19.99-145.45-74.87-42.59-99.65 108.64-122.01 173.51-133.17 28.41-4.88 88.25-10.87 67.63-52.53-6.41-12.25-32.26-17.21-44.68-18.75-49.75-5.03-114.6-17.05-160.7 6.35-18.54 9.41-1.98 28.25-5.77 42.04l-1.42.03c-5.22-6.49-5.44-10.5-7.2-18.62-32.37-16.7-21.6-26.23-11.47-53.43M161.948 1592.21c10.239-10.04 20.058-19.74 31.441-28.53 52.654-40.66 118.176-62.8 183.597-71.73 49.581-6.76 100.233-7.62 149.79-15.61 4.554-.74 18.838-4.56 21.822-4.19-12.241 6.73-6.346 18.25-11.42 26.9l-4.176 1.5c-1.735 4.53-2.011 22.33-3.253 29.4-8.212-13.12-19.351-22.87-35.782-25.73-36.818-6.42-87.135-6.03-120.971 11.35-13.116 6.74-17.464 24.51-9.62 36.13 9.14 13.24 27.636 15.98 42.232 18.9 53.514 10.69 99.49 17.7 150.864 37.94 55.452 21.84 79.577 79.14 30.462 122.83-19.061 16.95-46.521 17.6-70.142 22.93-32.327 5.35-88.241 37.07-57.368 76.07 26.611 33.62 83.832 42.49 122.243 56.81 48.833 18.89 163.475 69.97 154.334 134.76-1.413 10.02-4.671 17.06-9.572 26.06H385.631c37.631-8.5 100.799-27.26 121.868-61.71a44.7 44.7 0 0 0 5.228-34.88c-10.126-37.1-64.917-57.57-97.431-71.8-34.271-14.99-88.333-29.81-102.509-69.04-4.004-12.82-1.248-25.46 5.119-37.6 28.662-54.62 150.496-44.55 133.406-119.89-3.48-15.34-18.633-31.4-32.298-38.59-57.358-30.18-134.215-29.98-197.521-26.82-20.715 1.03-39.834 3.37-59.545 4.54"/><path fill="#384954" d="M1439.94 1297.31c20.48-.75 43.57-.16 64.25-.24 49.65-.28 99.3-.3 148.95-.07l233.86-.57c42.36-.08 85.86 2.06 128.08-1.45 11.08-.92 21.77-1.99 32.92-2.27v365.34c-24.94-4.59-79.6 9.1-88.8-24.74a23.8 23.8 0 0 1 3.03-19.23c17.06-26.02 55.24-17.86 70.08-40.55 1.75-2.67 2.25-8.21.98-11.4-13.9-35.18-71.14-25.37-101.41-28.1-15.63-1.13-31.21-3.06-45.3-10.28-13.2-6.76-27.16-24.22-17.1-38.91 12.97-18.96 42.9-26.66 63.83-32.06-27.51-6.34-75.26-5.8-101.89 4.9-10.8 4.34-24.5 16.9-37.18 16.23-19.44-.79-37.9-10.63-57.19-12.83-39.03-4.45-80.92-7.6-120.11-7.98l-1.9-2.64c18.18-5.92 38.02-7.83 56.62-9.31 23.25-1.85 95.97 8.36 113.13-4.95 6.28-13.16-22.66-13.69-29.92-15-55.19-9.9-109.27-6.01-164.64-2.58-7.34.45-20.38-1.33-21.77-10.33 5.63-11.48 33.7-6.61 39.55-11.75l-.66-1.11c-18.69-3.03-43.54-2.5-62.72-3.09-22.53-.69-45.27-1.43-67.79-1.6 30.81-14.97 101.93-23.36 133.93-12.28 32.56 11.27 55.29 26.51 92.49 18.56 8.46-1.81 40.66-6.5 36.5-19.98-6.05-5.31-22.23-.61-28.28-2.5-9.01-2.8-23.92-12.3-33.8-12.79-17.55-.87-32.88 3.6-51.7 3.75-25.38.2-47.8-6.67-71.85-7.32-44.81-1.22-65.62 10.4-111.05-1.82l.01-20.07c18.8-.64 49.94-2.5 67.44 1.83 10.62 2.63 19.96 9.77 34.76 11.65 12.89 1.63 66.73 3.95 75.08-2.11l.06-1.45c-2.07-1.41-4.55-2.32-7.04-2.36-18.72-.12-36.87-.52-55.46-3.03-23.19-3.14-44.59-12.31-67.82-14.76-15.92-1.68-32.3-1.17-48.32-1.13-1.09-9.05-1.46-18.5-1.85-27.62"/><path fill="#fafaf9" d="M2048 1505.29c-32.27-2.04-79.12 3.72-107.28-9.91-16.7-8.08-7.24-28.54 14.47-30.92 31.99-3.5 61.29 5.25 92.81.34zm0-69.08c-6.5.35-13.01.42-19.51.21-29.85-.9-29.1-13.16-54.77-19.35-10.32-2.49-37.1-.08-44.4-7.76l.53-1.29c6.91-1.68 32.83-1.12 41.57-1.59 25.68-1.36 50.85-2.54 76.58-2.69zm0-74.43c-20.6-3.81-39.9-5.91-60.92-5.01-20.03.86-37.38 3.8-57.47 1.55-2.99-3.4-1.84-7.5 1.19-10.05 12.67-10.63 40.2.17 56.78-.17 21.78-.43 39.72-4.02 60.42-5.25zm0-26.2c-13.42-8.16-34.73-11.99-51.01-6.9-10.3 5.36-45.33 13.32-45.13-6.68.16-15.85 48.59-6.88 57.14-6.11 12.97 1.26 25.98 1.99 39 2.2zm-252.72 63.92c27.36-2.69 68.46-1.55 94.14 7.68 12.01 4.31 22.03 11.96 34.76 14.69 10.61 2.28 28.87.17 37.45 4.47l-.99 1.61c-14.15 7.4-29.24 5.3-44.4 3.51-34.16-5.26-66.01 3.1-99.79 2.42 5.31-4.53 11.42-8.33 17.17-12.28-1.63-2.07-3.29-2.61-5.8-3.22-8.13-1.99-16.98-2.41-25.27-3.9-12.38-2.22-24.07-7.01-35.68-11.7 9.3-1.86 18.98-2.38 28.41-3.28m67.26-28.23c4-.47 8.06-.45 12.09-.44 21.95.04 43.89 3.18 65.81 4.36 27.66 1.49 55.49 1.09 83.05 4.21 3.05.35 5.31.3 7.51 2.51l-.67 1.72c-6.09 5.22-15.16 7.28-22.71 9.5-23.34 5.15-44.25-3.42-67.38-4.05-28.5-.77-60.28 14.09-87.55-1.62-3.07-1.76-6.68-5.11-7.38-8.7-.23-1.16-.25-1.31.49-2.19 3.21-3.85 12-4.44 16.74-5.3m-247.6-56.86c14.51-1.75 74.4-2.31 89.85 4.17.94.98 2.52 1.72 2.3 3.23-1.72 11.51-19.34 11.12-27.09 11.18-20.02.1-40.55-1.68-60.67-1.52-8.99.08-26.98.38-32.3-7.56-1.09-8.77 21.11-8.83 27.91-9.5m90.53 29.03c31.24-1.37 45.43 7.15 73.78 15.39 5.69 1.65 19.63 1.76 26.34 2.42 12.42 1.21 22.5 2.99 34.66 6-14.18 3.41-37.28 5.03-52.01 6.36-7.41.85-16.24.57-23.66.28-6.99-5.96-10.91-14.71-17.65-18.96-14.66-9.23-30.44 1.29-45.4 1.79-15.9.52-29.93-3.24-43.71-10.62 12.21-2.68 34.03-2.12 47.65-2.66m80.1-31.03c21.36-1.51 64.09-.71 85.78 4.8 2.6.65 3.51 3.26 4.45 5.31-1.38 9.57-22.45 7.81-30.41 7.92-13.86-.69-28.05-1.38-41.9-1.95-9.2-.38-43.84 2.3-49.14-5.97l.73-1.79c10.46-6.92 18.5-7.37 30.49-8.32m-.88 26.02c30.04-2.78 50.18 14.06 75.63 11.85 26.81-2.32 25.66-18.6 57.44.9-5.98.98-10.18 1.64-16.02 3.28-29.1 11.06-49.18-.76-76.27-3.52-26.07-2.65-40.27-3.49-66.31-8.92 10.06-2.53 15.24-2.89 25.53-3.59m-288.12-23.22c12.99-.56 28.93-.96 41.73.22.68.06 1.16 2.58-.04 3.3-8.13 4.87-21.52 2.92-30.76 2.99-14.36-1.34-30.3-1.98-44.29-4.22l-1.22-.31c-1.19-.28-2.87-.55-3.53-1.72.85-.37 34.3-.35 38.11-.26"/><path fill="#b1b2b5" d="m1463.21 1317.5-1.22-.31c-1.19-.28-2.87-.55-3.53-1.72.85-.37 34.3-.35 38.11-.26-10.53 2.48-26.96-.68-33.36 2.29"/><path fill="#384954" d="M0 1292.9c24.148-.03 48.298 3.63 73.12 3.82l282.094.13c80.807.19 168.524 1.58 248.856-.46-.671 8.8-1.203 18.8-2.372 27.45-17.345.2-41.07.4-57.795 4.15-22.452 5.04-40.775 10.84-63.918 14.27-18.761 2.77-41.058.19-57.971 3.7 20.582 7.53 68.771 8.44 88.756 1.45 34.636-12.1 50.558-12.85 88.524-10.44-3.581 7.88-7.35 16.7-11.106 24.4-31.871 3.5-60.82-3.95-92.571-3.01-19.433.58-38.4 3.46-57.529 6.78-23.425 4.08-45.084-4.35-67.923-3.7-9.5.27-23.022 10.95-33.013 12.04-9.163 2.09-28.384-4.5-27.676 9.22 5.97 8.52 26.491 10.6 35.871 12.94 36.559 9.13 57.401-5.19 89.69-15.82 32.017-10.53 99.664-4.49 132.017 8.6-.697.78-1.55 2.15-2.121 3.01-13.381-1.07-116.007 1.33-124.101 5.65 5.779 3.11 34.012 1.65 38.36 10.28-4.058 19.24-69.088 8.77-85.491 8.17-22.043-.81-121.374 2.12-131.325 16.4.334 19.76 101.598 7.9 117.045 9.17 19.883 1.64 36.616 3.61 55.92 8.73l-4.747 3.58c-38.67.56-81.566 3.52-120.037 8.17-19.374 2.34-36.178 12.15-54.62 12.8-14.556.52-32.092-14.36-44.109-18.63-26.582-9.44-74.071-7.65-101.637-3.59 19.187 5.24 59.672 14.73 67.569 32.51 16.582 37.34-35.037 47.23-59.833 48.99-31.705 2.26-87.267-6.93-102.083 27.09-11.542 39.41 84.278 23.67 71.955 72.79-7.889 31.44-61.933 21.72-87.799 24.72z"/><path fill="#fafaf9" d="M0 1464.78c32.733 4.63 59.766-4 91.681-.91 33.602 3.25 34.07 31.62 1.01 37.15-31.249 6.83-61.687 1.03-92.691 4.5zm0-60.57c30.796-.12 61.619 2.29 92.433 2.53 9.434.07 19.291.1 28.553 1.79-19.317 9.23-34.61 4.6-54.693 10.67-11.336 3.43-19.318 13.08-30.94 14.89-11.384 1.77-23.831 1.41-35.353 1.37zm0-60.98c20.98 1.29 41.765 5.01 62.488 5.62 13.134.39 54.669-16.12 59.778 5.57-.607 1.82-.941 3.5-3.538 4.11-21.133 4.99-45.911-2.91-67.62-1.91-19.325.89-33.106 2.83-51.108 5.91zm0-26.21c9.518.1 17.079.21 28.51-.14 14.94-.46 53.84-9.97 66.055-.12 8.533 10.8-11.384 20.57-20.071 19.34-5.314-.75-9.117-2.72-13.307-4.25-21.798-8-40.458-7.1-61.187 2.11zm203.318 82.4c22.337-2.98 54.284-.39 76.416 3.55-10.529 5.29-22.163 9.65-33.823 11.56-10.139 1.67-21.319 1.95-30.985 5.63l-.419 1.7c3.723 4.72 10.486 5.18 14.573 9.56l-.815 1.36c-10.343 3.43-38.887-2.31-51.024-3.58-9.001-.48-18.376-.64-27.365-.09-15.495.96-44.77 7.74-59.028.94-2.005-.96-2.207-.97-3.015-3.12 5.12-4.3 33.007-3.55 41.641-5.68 9.636-2.37 16.574-8.59 25.25-12.85 14.541-7.15 32.733-7.55 48.594-8.98m-51.119-27c9.705-1.07 42.291-2.63 50.253 3.26.704 2.44.879 2.93-.473 5.3-2.527 4.42-7.966 6.94-12.486 8.65-26.505 10.05-50.062-.49-76.492-1.12-12.055-.28-24.305 2.97-36.065 5.33-4.842.93-10.003 1.38-14.938 1.45-16.31.23-33.32-3.43-45.312-15.13 31.31-6.1 62.687-4.45 94.342-5.06 13.736-.26 27.483-1.57 41.171-2.68m223.13-58.99c11.934-.6 85.478-2.15 87.604 9.74-5.979 9.62-24.317 8.46-34.592 8.73-18.202-.95-78.547 6.53-87.084-8.43-.122-2.13-.637-2.9.462-4.24 4.68-5.71 26.077-5.4 33.61-5.8m-47.932 29.95c11.005-.92 48.169-.88 56.803 3.14l.036 1.36c-9.37 7.7-29.59 11.34-41.165 8.97-11.194-2.32-19.791-6.85-31.581-6.02-18.91 1.34-16.525 22.48-33.747 24.12-22.158-.76-48.257-4.34-71.133-5.91 9.844-3.58 24.824-8.03 34.912-8.4 20.905-.78 35.021-2.65 54.319-11.39 7.095-3.22 23.2-4.84 31.556-5.87m-104.673-30.92c23.975-1.06 56.248-1.42 77.271 10.35-19.074 6.12-32.536 4.19-52.53 5.04-14.829.38-68.543 8.06-75.925-5.93 1.803-10.02 42.252-9.15 51.184-9.46m26.257 25.97c14.081-.54 23.572.82 37.024 4.31-6.645 1.54-31.658 6.81-37.039 6.52-24.719-1.36-65.767 13.19-87.214 9.07-13.481-4.15-18.072-4.94-32.213-5.51 33.123-24.2 42.749-.2 70.552-3.2 13.985-1.51 26.934-9.81 48.89-11.19m302.691-22.95c14.84-.13 30.202-.9 44.671 1.44-15.222 1.81-29.767 2.1-44.73 3.94-9.737.56-27.699 4.17-36.097.62-19.348-8.17 33.083-5.93 36.156-6"/><path fill="#384954" d="M1861.04 1952.83c6.43 9.15 14.99 14.99 26.64 15.82 55.45 4.43 125.45-27.24 132-88.77 9.42-88.53-92.55-125.55-160.4-147.66-39.53-12.89-93.16-20.47-122.93-51.43-4.29-4.47-6.47-13.69-5.26-19.69 6.63-32.27 54.53-40.63 80.69-43.74 30.44-3.62 59.38-4.07 89.06-.07-.62 2.67-7.73 1.86-11.38 2.58-14.36.61-54.52 2.38-51.98 24.69 1.36 11.92 10.36 23.4 20.09 29.83 50.19 33.89 131.58 39.82 190.43 40.5V2048h-179.87c-5.19-3.12-15.51-6.47-21.89-9.5-30.42-14.71-71.39-25.25-95.02-50-20.03-23.12-10.68-51.44 11.95-67.23 38.23-26.67 99.83-29.1 103.15-86.83 1.49-25.95-10.91-45.15-27.14-63.83 34.44 23.53 83.95 72.93 62.87 119.38-9.43 20.79-34.52 25.97-40.67 47.81-1.03 3.66-.51 11.04-.34 15.03M151.872 1616.31c42.141-6.9 112.678-2.09 149.063 21.92 14.077 9.29 22.034 31.92 9.136 44.69-31.165 29.87-83.163 35.83-123.228 49.2-65.812 21.97-165.702 58.15-159.282 143.69 4.775 63.63 73.67 96.61 130.998 92.87 17.281-1.13 26.295-8.41 29.937-25.3-6.163-25.12-16.794-23.52-32.083-38.71-44.303-44.04 12.838-111.15 53.357-133.3-16.32 17.23-29.601 37.91-28.507 62.65a60.2 60.2 0 0 0 20.473 43.15c29.611 26.02 101.715 34.01 105.241 80.36 3.944 51.84-92.501 71.79-127.094 90.47H0v-333.05c60.9.45 136.468-7.15 189.738-39.65 11.998-7.32 28.767-29.98 17.926-43.87-8.825-11.3-39.075-11.56-53.133-12.38z"/><path fill="#b1b2b5" d="M1900.84 1617.29c5.38.61 7.22.9 12.29 2.31-7.81.14-15.93.57-23.67.27 3.65-.72 10.76.09 11.38-2.58"/><path fill="#384954" d="M138.071 1618.57c4.774-.95 8.938-1.76 13.801-2.26l2.659 2.74c-6.111 0-10.398-.05-16.46-.48m297.27-168.74c1.051.5 3.55 1.37 4.009 2.55-.381 1.32-7.475.98-8.756 1.03z"/><path fill="#53595f" d="M803.262 1902.48c4.157.49 8.076.71 12.236 1.25-3.358.34-6.076.67-9.399 1.16-1.795-.23-2.356-.39-4.179-.84zm813.678-449.38c-.92-.02-6.5.15-7.08-.72.4-1.1 4.15-1.61 5.18-1.92zm-151.66 327.21c4.29-8.52 3.5-5.19 2.27 2.15z"/><path fill="#b1b2b5" d="M801.92 1904.05c-1.204-.4-4.458-1.07-5.252-1.89l-.002-.32c1.635.32 3.87-.15 6.596.64z"/><path fill="#384954" d="M567.054 1388.42c1.056.48 1.76.66 2.357 1.63-.044 1.28-2.714 1.18-3.461 1.26l-1.017.12c.571-.86 1.424-2.23 2.121-3.01m-304.347-167.74 1.812 1.61c-2.853 10.54-4.776 22.95-14.921 29.28-5.131 3.19-10.417 2.35-16.186 2.77.586 4.29 2.664 29.63-1.51 30.62-1.383-6.17-.834-23.56-.846-30.82-15.725-1.59-24.593-6.03-27.955-23.15l-1.636-8.68 1.662-.95c12 3.37 11.168 1.22 23.448 7.96 1.69 3.01 3.217 6.09 4.829 9.15.241-4.47-.356-11.44-.416-16.4l2.523.48c-.01 6.67-.273 9.37 1.083 15.83 11.961-19.88 21.922-11.87 28.113-17.7"/><path fill="#b1b2b5" d="m230.988 1222.07 2.523.48c-.01 6.67-.273 9.37 1.083 15.83-1.141 3.72-2.283 6.73-3.19.09.241-4.47-.356-11.44-.416-16.4"/><path fill="#283135" d="M233.412 1254.34c.586 4.29 2.664 29.63-1.51 30.62.374-6.27-.325-26.46 1.51-30.62"/><path fill="#384954" d="m1955.71 1222.93 1.75-.94c12.11.61 19.3 3.1 26.65 13.24l1.33-2.91c.85 1.89 1.18 3.96 1.7 5.96l.45 2.28c5.75-12.32 12.62-17.39 26.36-18.69l1.94-.2 1.67 1.96-1.7 7.36c-4.32 18.35-9.79 21.53-27.08 23.35 0 6.67.31 13.27-.64 19.85.25 13.71-3.65 11.59-2.85.4l-.03-20.21c-4.74-.54-8.14-.13-12.81-1.87-9.96-3.7-16.5-19.7-16.74-29.58"/><path fill="#283135" d="M1985.29 1274.59c1.19-4.63.95-18.23 1.6-19.39l-.11-.29c.23-.18.1-.14.39-.13.39.41.66 16.59.97 19.41.25 13.71-3.65 11.59-2.85.4"/><path fill="#b1b2b5" d="M1985.44 1232.32c.85 1.89 1.18 3.96 1.7 5.96l.45 2.28c-1.67-.08-2.98-3.78-3.48-5.33z"/><path fill="#384954" d="M1620.71 1189.3c14.07 2.92 20-.31 27.91 15.87.48-5.52-.03-9.58.63-15.25l1.8.22.84-.53c.16 5.37-.77 11.18 1.45 15.41 6.86-14.41 11.61-13.87 26.71-14.32l1.49 1.81c-4.77 19.46-6.56 31-30.36 29.34-.68.19-1.36.37-2.04.56-6.94-.48-8.65.7-14.83-2.77-12.06-6.76-12.14-16.58-14.78-29.23z"/><path fill="#53595f" d="m1651.05 1190.14.84-.53c.16 5.37-.77 11.18 1.45 15.41-.42 1.92-2.42 9.2-3.43 3.06-.53-.98-1.18-1.85-1.29-2.91.48-5.52-.03-9.58.63-15.25z"/><path fill="#b1b2b5" d="m1651.05 1190.14.84-.53c.16 5.37-.77 11.18 1.45 15.41-.42 1.92-2.42 9.2-3.43 3.06 1.61-6.24 1.13-11.44 1.14-17.94"/><path fill="#384954" d="m261.737 1155.72 1.731.57-.145.97c-1.425 9.87-1.606 22.22-10.695 28.12-6.988 4.53-11.505 3.66-19.035 5.35l-1.821-.24c-6.705-1.78-11.487.58-18.398-4.26-8.449-5.92-10.684-19.48-11.339-29.05l1.135-.09c8.449 2.52 17.752.91 24.275 9.44 1.137 1.49 3.592 5.96 4.404 6.77l.198.04c.225-.17.206-.36.277-.69l2.011-1.07.593-.88c6.554-9.94 16.018-11.71 26.809-14.98m-227.494 65.56c13.727 2.27 18.932 3 27.563 14.72.324.8 3.452 14.24 3.694 4.78l.535-1.41c1.806-4.86 3.768-8.4 7.448-12.11l1.338-1.38c5.853-1.88 11.388-3.08 17.427-4.16l1.874-.37 1.393 2.34c-2.944 14.73-9.628 31.45-27.016 30.25-.609-.04-1.848.09-2.448.14-.042 7.77.297 18.93-.874 26.34-.089 1.14-.143 2.71-1.476 3.1-1.633-1.72-.76-25.54-.246-29.27-6.138-.91-10.8.19-16.373-3.47-9.416-6.17-12.06-17.2-14.651-27.4z"/><path fill="#283135" d="M63.455 1254.25c1.99 4.08 1.19 19.82 1.722 26.17-.089 1.14-.143 2.71-1.476 3.1-1.633-1.72-.76-25.54-.246-29.27"/><path fill="#384954" d="m429.763 1188.3 1.755.95c-5.45 24.21-4.509 30.23-30.619 32.55-.909.49-1.217.46-2.214.14-6.374-1.5-10.617.49-16.597-3.19-9.795-6.02-10.802-17.98-13.137-28.08l1.633-.63c20.326 1.29 24.748 12.99 27.133 13.23.363-4.3.325-8.27.584-12.57l2.255-.87c1.177.36 2.374.78 3.577 1.03-3.143 4.46-4.335 6.73-1.087 12.33 11.697-16.06 23.548-10.86 26.717-14.89"/><path fill="#53595f" d="m398.301 1190.7 2.255-.87c1.177.36 2.374.78 3.577 1.03-3.143 4.46-4.335 6.73-1.087 12.33-.357.83-1.652 4.79-2.451 5.05-.663-.53-.76-3.55-.819-4.08l-2.059-.89c.363-4.3.325-8.27.584-12.57"/><path fill="#edebeb" d="M400.556 1189.83c1.177.36 2.374.78 3.577 1.03-3.143 4.46-4.335 6.73-1.087 12.33-.357.83-1.652 4.79-2.451 5.05-.663-.53-.76-3.55-.819-4.08 1.442-5.17 1.07-8.91.78-14.33"/><path fill="#384954" d="m2015.9 1155.81 1.65 2.72-.16.89c-4.05 23.36-6.2 28.38-29.46 30.57l-2-.52c-27.26.51-25.77-10.47-30.24-34.23l2.47 1.49c5.36 4.7 14.81-3.83 27.41 15.33.73 1.07.76 1.22 1.44 1.95 1.75 1.03 4.93-5.24 5.41-6.37 4.04-9.57 19.94-8.73 23.48-11.83m-228.53 2.52 1.74-1.01c2.95.7 2.32-.25 3.45-.08 12.72 1.9 18.94 6.1 25.17 16.56 1.19 2.71 2.48 1.89 2.58-.65 2.44-5 3.54-6.67 6.95-10.97 9.13-3.63 11.16-4.54 21.14-5.31l.37.37c.05 14.2-6.61 31.98-23.77 33.25-3.29.24-2.4-.88-5.76.18l-2.25-.14c-5.74-1.32-10.15.49-15.89-2.75-9.38-5.3-11.48-19.62-13.73-29.45m22.11 62.72c4.4-.18 5.8-1.09 9.71.88-.05 3.93-.48 11.37.89 14.77 10.01-18.46 16.86-9.49 26.65-14.99l2.27.31c-2.29 9.95-4.22 22.28-13.63 28.38-5.63 3.64-10.3 2.41-16.17 3.88l-2.09-.18c-7.77-.74-12.99.29-19.52-5.24-7.62-6.45-9.82-17.3-10.69-26.67l1.52-.45c14.25 1.66 18.85 1.87 27.37 14.24 1.79-3.75 1.44-9.79.74-13.78-.05-.34-6.13-.97-7.05-1.15"/><path fill="#85888c" d="M1809.48 1221.05c4.4-.18 5.8-1.09 9.71.88-.05 3.93-.48 11.37.89 14.77.12 1.55.64 6.04-.81 6.86-1.15-.39-2.67-5.91-3.48-7.58 1.79-3.75 1.44-9.79.74-13.78-.05-.34-6.13-.97-7.05-1.15"/><path fill="#384954" d="m1680.03 1157.4 1.38 3.69c-1.44 9.21-2.14 19.1-10.75 24.52-6.98 4.41-11.34 3.03-18.77 4l-.84.53-1.8-.22c-9.48-2.82-22.44-.35-25.96-15.92-1.16-5.14-1.82-10.46-2.81-15.64l1.65-1.49c11.69 1.59 20.61 3.24 26.67 14.1.03 1.27.84 5.49 2.58 5.22.82-.66.79-.96 1.06-2.04 6.07-14.6 13.41-15.17 27.59-16.75m-1303.934 24.96c-2.383-6.4-14.322-31.64 1.425-24.64 9.062 4.03 14.266 2.2 19.046 13.24.203 2.47 1.347 3.53 2.992 5.46.482-.04.501-.22.993-.66l1.23-2.24c7.936-12.35 12.366-14.01 27.061-16.14l1.628 2.01-.143.93c-3.414 23.24-4.131 25.18-26.195 30.54-1.203-.25-2.4-.67-3.577-1.03l-2.255.87c-11.236-.86-13.627-.89-22.205-8.34m-290.052-57.65c3.309.55 4.846.45 8.21.52-2.644 10.89-1.252 20.85-10.64 28.35-7.022 5.61-13.948 3.34-18.903 5.36 1.15 4.72.828 8.32 1.495 13.05-.966 1.4-1.428 4.24-2.456 4.8l-.095-.02c-.238-.38-.081-.92-.014-1.75-.018-2.53-.31-15.12-1.602-16.53-25.004 1.42-31.291-32.78-24.496-33.15l1.294-.09c1.01.3 2.356.55 3.38.77 9.864 2.06 16.518 6.83 20.217 16.21.276 4.52 2.83 2.69 2.903-.06 6.19-10.92 8.446-13.04 20.707-17.46"/><path fill="#71767b" d="M62.039 1158.49c-.057-1.93-.265-3.34.594-5.12l.596-.06-.029-.11c1.142 1.01.096 3.5 1.51 5.74 1.152 4.72.829 8.32 1.496 13.05-.966 1.4-1.428 4.24-2.456 4.8l-.095-.02c-.238-.38-.081-.92-.014-1.75-.018-2.53-.31-15.12-1.602-16.53"/><path fill="#384954" d="M66.135 1205.08c5.489-11.51 15.442-14.48 27.51-15.59l1.892.69c-2.631 12.77-5.02 26.74-19.06 31.11-5.882-.41-8.47-.36-14.087.16-17.108-.58-25.784-4.46-27.287-24.09q-.036-3.075-.172-6.15c11.947-2.21 19.65 2.64 26.824 11.73.387-4.45.204-8.5.203-12.97l1.109-.01-.107 1.13 2.236-1.01c-.233 5.61.135 7.78-1.055 13.25z"/><path fill="#b1b2b5" d="m61.958 1189.97 1.109-.01-.107 1.13 2.236-1.01c-.233 5.61.135 7.78-1.055 13.25l1.994 1.75c-.39.86-1.098 3.55-2.37 3.31-1.047-.89-1.655-4.19-2.01-5.45.387-4.45.204-8.5.203-12.97"/><path fill="#71767b" d="M65.196 1190.08c-.233 5.61.135 7.78-1.055 13.25-1.813-3.27-1.237-8.37-1.18-12.24z"/><path fill="#384954" d="m262.943 1187.34 1.639.98c-4.484 16.6-2.967 24.01-18.694 33.51-4.286.17-8.164.04-12.377.72l-2.523-.48c-24.042-1.38-23.079-10.11-29.18-30.59l1.711-.89c18.615-3.96 25.887 14.67 28.579 15.84.626-.31.387-.99.358-1.69l1.785-2c12.642-14.33 21.33-9.65 28.702-15.4m-229.351-29.46 1.858-.67c13.545 2.36 22.581 3.72 28.19 17.81-.066.83-.223 1.37.015 1.75l.095.02c1.028-.56 1.49-3.4 2.456-4.8 4.84-7.24 9.81-11.95 18.793-13.92 2.599-.56 5.208-1.08 7.827-1.54l1.663 1.98-.145.89c-1.583 10.14-1.791 19.88-10.904 26.54-6.436 4.71-11.721 2.45-18.244 4.14l-2.236 1.01.107-1.13-1.11.01-.55-.76c-21.018.25-24.01-7.98-27.243-27.21z"/><path fill="#53595f" d="M61.408 1189.21c.178-1.41.225-5.91 1.984-6.36 1.453 1.05-.092 5.99-.325 7.11l-1.11.01z"/><path fill="#384954" d="m429.855 1221.23 1.636 1.03c-1.936 9.97-4.329 22.64-13.655 28.47-5.689 3.56-10.939 2.48-17.167 3.56-2.054.66-1.371 9.82-1.792 13.1-.708-5.2-.644-8.98-.733-14.19-22.991-.72-24.816-8.64-28.698-30.75l1.555-1.16c1.569 1.49 3.312 1.96 5.484 1.71 9.914-1.15 15.871 9.39 20.243 11.63.553-.03.202.02 1.016-.32l2.373.5.642-1.01 3.068.24c11.063-13.47 23.869-10.61 26.028-12.81"/><path fill="#b1b2b5" d="m400.759 1233.8 3.068.24c-1.167 3.29-3.011 7.04-4.388 10.38-.082-3.79.374-5.93.678-9.61z"/><path fill="#384954" d="m254.504 1125.53 2.305-1.43c8.51 1.75 4.905 3.08 4.064 11.39-.977 9.67-2.664 12.03-9.461 17.93-6.496 5.63-14.14 3.69-17.197 5.84l-2.216-.51c-5.695-1.03-13.39-1.12-18.847-5.05-5.496-3.96-9.368-20.3-8.875-27.04.032-.44 2.134-.91 2.553-1.01l1.763-.43 2.736.39c12.538 6.16 8.616-.15 18.995 13.73.166.94.872 1.76 1.405 2.59l.22.34c2.69.51 9.558-13.52 22.555-16.74m1532.416 64.1 1.54-.52c12.96 1.43 23.05 4.58 28.6 17.4l.68 1.52c2.98-1.1.49-1.36 2.5-3.26 6.94-11.82 14.1-14.04 27.26-14.85l.87 3.24-1.46 7.33c-3.07 15.99-12.28 21.5-27.72 21.44-3.91-1.97-5.31-1.06-9.71-.88-16.67-.93-20.15-17.99-22.56-31.42m228.93-.78 1.68 2.81c-2.43 10.92-3.88 21.11-14.28 27.66-5.5 3.47-10.16 1.97-16.2 2.19-.18.45-.19.84-.58 1.01-.53-.35-1.02-.83-1.49-1.29-13.37 1.73-22.11-3.11-25.77-16.74-1.04-3.9-1.98-7.83-2.85-11.77 2.12-2.91 5.89-1.68 9.7-1.87 10.71 3.74 13.25 6.16 19.71 15.22.96 1.91 1.51 1.77 2.56-.01 7.18-12.78 12.6-15.79 27.52-17.21m-4.69-63.78c7.54-.6 4.51 1.27 4.21 7.89-.76 16.68-10.8 25.56-27.36 24.84-.15-.53-.15-1.07-.56-1.38-.45.11-1.2 1.36-1.47 1.68-16.55-1.29-22.52-3.37-26.9-21.6-2.24-9.32-4.52-11.85 3.83-10.63.67.25 1.35.5 2.02.75 5.29 1.26 8.06 2.24 13.03 4.2 3.12 4.34 4.66 9.44 7.93 10.01l2.58.36c8.97-10.26 2.37-10.15 20.55-15.36.71-.25 1.42-.5 2.14-.76m-1612.292 33.41c-6.27-1.16-11.065-.56-16.869-4.31-9.35-6.04-9.675-18.24-10.005-28.24-.092-2.79 2.187-1.88 4.35-1.53 1.104 1.01.979.86 2.359 1.65 15.165 2.81 18.16 15.69 20.664 16.46l-.014-.01.48-.52c-.166-.92-.151-1.65-.087-2.59l1.74-.49c1.953-.49 10.311-9.9 20.19-13.05l2.284-1.39 2.016.33c5.803.79 2.97 5.83 2.253 10.74-.95 6.51-3.995 14.75-9.774 18.31-6.409 4.34-11.193 2.19-17.396 3.96-.792.32-1.38.69-2.191.68m1275.102-33.95c9.69.83 6.1 1.8 4.39 11.48-3.03 17.11-8.88 22.82-26.7 21.12-.02-.59-.1-1.52-.19-2.09l-.16-.02c-.19.95-.23 2.29-.81 3.13-.3-.19-.61-.37-.91-.55-6.42-.99-11.69.26-17.42-3.86-8.04-5.79-8.86-15.74-10.31-24.75-.5-3.09.23-3.53 3.06-3.84 1.01.2 2.02.39 3.02.59 12.16 3.88 14.26 4.37 21.59 15.49.89 1.18.75 1.78 1.49 2.81.97.23.56.12 1.28-.76 5.21-10.37 8.87-13.98 19.69-17.64zM642.869 1835.29c13.662 16.52 28.416 21.32 45.775 32.1 9.84 6.12 13.455 9.68 24.691 15.08l-2.749 3.03c-32.769-3.64-53.854-18.57-68.879-48.09zM1680.4 1221.55l1.03 4.25c-1.27 5.73-2.34 10.79-5.38 16.2-4.37 7.77-12.97 11.31-21.57 11.88-.48.03-1.91.18-2.26.72-.7 1.69-.37 5.08-.5 7.13-2.41-2.78.17-4.35-2.09-7.76.01-4.75.33-3.84-.47-8.52.11-2.5.18-2.45 1.1-4.85.34-.52.68-1.04 1.02-1.57 10.6-15.49 11.91-13.11 29.12-17.48m109.97-95.56c1.96-.54 3.62-.93 5.59-1.39 10.04 4.77 13.43 4.17 19.53 14.94.6 2.2 1.55 4.27 2.29 6.42l.8.01c.45 3.8 1.24 6.61 1.79 10.3l-1.43.01.17 1.66-2.14-.98c-9.27 1.44-17.13-.67-22.34-9.33-2.91-4.84-5.83-16.07-4.26-21.64"/><path fill="#53595f" d="m1817.78 1145.96.8.01c.45 3.8 1.24 6.61 1.79 10.3l-1.43.01c-1.56-4.25-.93-5.52-1.16-10.32"/><path fill="#384954" d="M1820.45 1140.29c5.23-8.66 8.65-12.53 19.09-15.2 11.15-2.85 7.44 6.68 6.37 13.91-.9 5.99-5.01 12.72-10.53 15.6-5.16 2.63-9.96 5.26-15.01 1.67-.55-3.69-1.34-6.5-1.79-10.3.62-2.11 1.09-3.63 1.87-5.68m-198.73 82.55c10.22-.94 21.62 3.78 26.88 12.79.18 2.3.4 2.43 1.44 4.53l.22.44c-.92 2.4-.99 2.35-1.1 4.85.8 4.68.48 3.77.47 8.52l-2.53.27c-3.88-.57-9.31-.74-12.67-2.7-8.25-4.84-12.68-16.78-13.71-25.71z"/><path fill="#53595f" d="M1649.16 1245.45c.8 4.68.48 3.77.47 8.52l-2.53.27c.91-2.93 1.25-5.68 2.06-8.79"/><path fill="#384954" d="M1433.37 1370.01c1.25-.45 1.11-.49 2.33-.57 2.72 25.18 13.1 41.14 6.4 66.68l-1.49-1.27c-11.43-9.67-6.3-12.54 1.23-22.63-3.44-6.11-7.14-10.46-10.84-16.3-.04-12.13 1.16-14.77 2.37-25.91"/><path fill="#71767b" d="M1620.72 1225.83c-.37-1.76-.63-3.52-1.02-5.28-.76-3.37-1.57-6.73-2.44-10.07.1.4-.51-2.46-.51-2.46l-1.01-4c-1.53-6.12-3-12.41-4.47-18.57l-1.1-4.48c-.62-2.77-1.24-5.76-1.94-8.5l-1.07-4.5c-.44-1.99-.93-3.97-1.45-5.95l-1.02-4c-.32-1.24-5.18-16.84-2.32-15.51 1.33 1.89 5.67 21.04 6.46 24.51l1.05 4.5c1.64 7.32 2.93 14.2 4.94 21.51l1.01 4c.48 1.98.98 3.96 1.42 5.95l.99 4c1.42 5.6 2.56 10.13 3.48 15.86z"/><path fill="#283135" d="M1817.65 1138.56c-1.03-5.33-2.26-50.23.24-51.22l.53.5-.17-.64c1.48 3.41.7 37.33.87 43.6.49 3.56.59 5.86 1.33 9.49-.78 2.05-1.25 3.57-1.87 5.68l-.8-.01c-.74-2.15-1.69-4.22-2.29-6.42z"/><path fill="#b1b2b5" d="M1819.12 1130.8c.49 3.56.59 5.86 1.33 9.49-.78 2.05-1.25 3.57-1.87 5.68l-.8-.01c-.74-2.15-1.69-4.22-2.29-6.42l2.16-.98c.59.53.4.43.67.52.5-.53.72-7.38.8-8.28"/><path fill="#85888c" d="M1955.71 1222.93c-3.41-14.31-6.03-29.07-9.69-43.44-1.13-4.3-2.16-8.63-3.08-12.98-.77-3.76-6.6-21.63-6.21-23.7.13-.04.26-.07.39-.1 2.64 2.3 8.95 29.85 10.11 34.76l.98 4c1.02 4.33 2.01 8.67 3.05 13l1 4 2.17 8.93c1.26 4.79 2.39 9.68 3.03 14.59zm-168.81-.74c-.83-2.85-1.41-5.78-2.11-8.66l-.96-4.01c-1.45-5.98-3.2-11.98-4.62-18.06l-1.03-4.49c-2.22-11.5-4.81-22.96-7.19-34.43-.26-1.24-3.1-8.92-1.4-9.31 2.32 1.6 11.18 47.11 12.68 53.24l1 4c.49 1.99 1.08 4.06 1.6 6.06l1.02 3.99.89 3.5.98 4c.33 1.32.45 2.33.66 3.72zm-1417.454.26c-.757-4.14-1.516-7.86-2.361-11.97l-.967-4.5c-1.927-9.36-4.624-18.72-6.899-28.01l-2.528-9.94c-.814-3.22-7.3-24.71-6.135-26.31l.449.02c.872.68 7.521 27.49 8.365 30.65l.934 3.58 2.963 11.01 1.028 3.99 1.024 4c1.705 6.55 5.456 19.9 5.682 26.32zm-167.981-.14c-.446-2.37-.837-4.47-1.329-6.83l-.989-4.51c-1.149-5.57-2.734-10.99-3.977-16.49l-.945-4.02c-1.149-4.8-10.957-47.24-9.45-48.39 1.732.09 2.658 9.38 3.14 11.45 2.777 11.91 6.428 31.17 9.363 42.45l1.03 4c.528 2.02 1.005 4.04 1.529 6.06l1.029 4.49c.804 3.67 1.662 7.12 2.261 10.84zm-169.035 1.07c-.288-1.78-.487-3.59-.837-5.36-.184-.84-.367-1.69-.551-2.53l-.467-2.9c-.187-.87-.375-1.73-.562-2.6l-.398-2.43c-.706-3.16-1.3-6.36-1.934-9.54-.802-4.02-1.584-8.05-2.517-12.04-.14-.82-.282-1.64-.422-2.45l-.6-2.55c-.178-1.53-.637-3-.941-4.5-.14-.82-.281-1.63-.422-2.45-.494-1.64-.746-3.33-1.098-5.01-.2-.84-.4-1.69-.6-2.54-.5-2.86-1.218-5.69-1.915-8.51-.158-.8-.316-1.6-.474-2.39-.556-1.84-.874-3.74-1.498-5.56-.097-.31-2.125-7.42-.655-7.48 1.677 1.5 3.233 10.86 3.82 13.45l1.91 8.49c4.468 18.7 7.746 38.09 11.974 56.8zm1647.97-1.83c1.86-20.28 12.68-46.5 15.3-67.57.17-1.38 1.49-11.58 3.92-11.05.76.73-2.83 14.52-3.33 16.61l-.89 4.05c-1.29 5.9-2.67 11.59-4.14 17.44l-1.57 6.4c-3.41 12.81-6.39 25.25-8.26 38.37zm-1586.278-.2c.35-2.68.764-5.34 1.399-7.97l1.658-6.85c1.294-5.17 2.927-10.27 3.939-15.5l.649-2.56c.814-2.79 1.187-5.68 1.88-8.49 2.48-10.07 4.177-20.36 6.526-30.45.299-.18.983-9.63 3.09-6.5.265 3.66-2.282 10.11-2.901 13.55-.646 3.59-1.453 5.93-2.073 8.99-1.258 6.19-2.505 11.61-3.865 17.71-.23 1.07-.46 2.13-.691 3.2l-.85 4-.62 2.55-.95 3.99-2.41 10.46c-1.24 5.46-2.375 10.69-3.388 16.21z"/><path fill="#71767b" d="M1649.53 1141.23c.34-7.63-1.55-43.33.88-53.62.15-.03.29-.05.44-.08 1.59 1.09.64 48.59 1.45 55.75-.72.88-.31.99-1.28.76-.74-1.03-.6-1.63-1.49-2.81"/><path fill="#85888c" d="M262.707 1220.68c.31-1.27.62-2.55.931-3.82l.446-1.84c.587-2.34 1.098-4.7 1.698-7.04l1.02-4 .974-4c3.138-12.43 5.008-25.44 7.987-38l.944-3.99c.348-1.75 1.678-8.96 2.298-10.47 6.094-14.82-1.151 12.49-1.715 15.02l-1.486 6.94c-2.8 13.28-5.504 26.28-8.536 39.54l-1.911 8.55c-.277 1.57-.557 3.15-.838 4.72zm1753.183.99c.88-3.92 1.39-7.69 2.27-11.65l.95-4.49c4.81-18.98 9.38-38.02 14.13-57.01l.39-1.53c.35-1.38.19-4.28 2.1-4.59 1.11 1.18-7.11 30.19-7.98 34.08l-1.42 6.1c-1 4.32-2.02 8.65-3.01 12.97l-1.42 6.42c-1.83 7.26-3.09 14.3-4.34 21.66zm-1586.035-.44c.354-4.51 1.658-8.89 2.795-13.25l3.147-12c1.485-5.76 2.539-11.74 3.965-17.51l.972-4.01c.651-3.35 6.656-30.88 7.231-31.34l.695-.02c1.064 1.62-2.373 13.96-2.911 16.37l-.889 4.02c-.928 3.67-1.702 7.37-2.568 11.05l-.948 4.04c-.601 3.01-1.338 5.99-2.01 8.99l-4.531 19.41c-1.203 5.16-2.235 10.1-3.312 15.28zm1416.875.48 1.17-4.71c1.92-7.56 16.39-72.13 17.99-73.46.36-.03.19-.06.5.09-.08-.14-15.87 72.26-17.39 78.39z"/><path fill="#53595f" d="M62.434 1142.23c.148-9.39-.636-46.11.924-53.33l.592-.24-.324-.43c.273-.08.759-.2.842.36 2.475 16.94-1.044 36.89.869 53.58-.074 2.75-2.627 4.58-2.903.06"/><path fill="#384954" d="M230.324 1139.34c.999-6.86 1.054-41.72 2.679-50.25.18.15.36.29.54.44.955 10.97.726 44.1-1.594 52.74l-.22-.34c-.533-.83-1.239-1.65-1.405-2.59"/><path fill="#85888c" d="M33.592 1157.88c-1.44-6.99-10.434-56.3-9.081-59.45l-.338.2c1.596-1.51 1.816 4.31 1.831 4.39.845 4.46 1.397 9 2.106 13.47 1.512 9.53 3.555 19 5.285 28.5l1.459 7.02c.343 1.71.41 3.47.596 5.2z"/><path fill="#71767b" d="M1620.48 1158.36c-1.24-6.24-11.43-59.07-10.19-61.06 1.87-.58 2.51 8.78 2.67 9.72 2.92 16.49 5.77 33.44 9.17 49.85z"/><path fill="#85888c" d="M428.843 1157.38c1.1-7.09 3.396-14.07 4.231-21.37.524-4.58 1.413-9.24 1.889-14 .405-4.04 1.598-7.51 2.026-11.97.083-.87 1.779-10.82 2.863-12.12 2.65-.13-.815 7.95-.48 9.09-.041-.14-.517 3.42-.43 2.98-1.213 6.13-2.043 12.33-2.94 18.51-.602 4.14-1.419 8.36-2.115 12.49-1.322 6.17-2.346 12.2-3.416 18.4z"/><path fill="#384954" d="M399.746 1139.39c-2.078-10.92-.184-25.07-.798-36.39-.075-1.39-.567-13.63 1.21-14.07l.037.46c1.385 1.38 1.022 43.33 1.291 49.51z"/><path fill="#85888c" d="M1680.03 1157.4c-.03-6.08 7.93-56.27 10.14-58.47 1.87-.48-1.03 10.17-1.28 11.56-2.33 12.46-4.41 24.93-5.9 37.5-.51 4.29-.99 8.89-1.58 13.1zm335.87-1.59c.02-12 6.46-30.04 7.1-42.79.14-2.98 1.59-9.59 2.65-12.41.17-.03.34-.07.52-.1 1.2 3.15-1.34 8.34-1.23 11.98.01.19-.86 5.33-.98 6-1.39 7.85-2.3 16.24-4.02 23.99-1.3 5.84-1.57 10.33-2.39 16.05z"/><path fill="#71767b" d="M92.826 1156.53c-.004-2.47.063-3.7.75-6.11.72-2.53.967-5.37 1.442-7.91.598-3.21 1.066-6.36 1.718-9.54.425-2.07.225-4.42.988-6.5l.344-2.46c.511-1.79.64-3.73.99-5.5.38-1.93.632-4.12 1.014-5.99.768-3 .808-6.12 1.63-9.1-.001.01.386-2.95 1.15-3 .695-.05.779.62.691 1.32-.449 3.57-1.124 7.18-1.662 10.74-.288 1.86-.892 3.62-.926 5.51-.181.87-.363 1.74-.544 2.62-.295.94-.29 1.92-.434 2.89-.417 2.06-.726 3.91-1.027 5.99-.345 2.38-.79 4.04-.968 6.5-.159 2.23-.836 4.61-.987 7-.173 2.74-1.221 6.23-1.547 9.04-.385 2.21-.524 4.15-.96 6.48zm1694.544 1.8c-2.57-16.62-5.17-33.32-8.19-49.85-.32-1.75-3-9.11-.95-9.27 1.8 1.2 10.49 52.96 10.88 58.11z"/><path fill="#85888c" d="m35.103 1197.36-.46-1.1c-4.909-11.49-5.544-26.07-8.558-38.28-.506-2.05-4.9-19.49-3.64-19.99 3.917 2.55 10.116 51.26 12.486 53.22q.136 3.075.172 6.15"/><path fill="#53595f" d="M1985.94 1090.01c.12-.7.12-1.92.75-2.4.1.02.2.04.29.06 1.45 1.77.97 6.62.95 8.99-.04 7.71-.33 39.13.54 44.53l-2.58-.36c.24-14.55.63-36.62.05-50.82"/><path fill="#85888c" d="M1985.94 1090.01c.12-.7.12-1.92.75-2.4.1.02.2.04.29.06 1.45 1.77.97 6.62.95 8.99-1.03-2.84-1.42-3.76-1.99-6.65"/><path fill="#71767b" d="M202.035 1157.18c-1.182-5.52-10.555-56.85-9.584-58.66l-.11.01.074-.04c2.475 4.08 10.556 52.4 10.755 58.6zm59.702-1.46c.528-5 9.444-56.11 10.513-57.42.344-.13.177-.13.501-.02.777 1.1-8.207 52.17-9.283 58.01zm1693.953-.48c-1.3-4.19-1.88-11.19-2.78-15.73-2.39-12.05-4.47-24.32-5.95-36.5-.1-.79-.91-4.05.32-4.34 1.06.3 2.87 15.7 3.32 17.92 2.54 12.65 4.07 27.86 7.56 40.14z"/><path fill="#85888c" d="M358.983 1098.55c3.28 2.34 10.618 48.47 10.985 54.73-3.346-3.13-9.527-47.13-10.985-54.73m1489.417 58.32c-.06-8.04 5.83-53.04 9.27-58.26l.56-.02c1.44 1.63-8.14 39.66-7.18 45.41.11.68-1.93 11.95-2.28 13.24zm107.96 35.85c-2.34-8.65-4.35-18.36-6.24-27.19l-.98-4.55-.98-4.51c-.39-1.9-4.75-16.68-1.76-15.76 3.53 6.1 7.14 40.47 11 48.83.17.37 7.63 1.1 8.66 1.31-3.81.19-7.58-1.04-9.7 1.87m-169.44-3.09c-1.57-4.89-11.18-49.39-10.31-51.12.36-.16.2-.13.49-.11l.38 1.03c.34.8.99 4.48 1.25 5.59l1.62 6.96c2.4 9.67 4.31 19.36 6.54 29.04l1.01 4.5c.27 1.21.39 2.36.56 3.59zm60.58.29c0-6.2 2.64-14.8 4.18-20.95l1-4.01c.5-2.66 5.15-25.56 6.51-25.64 1.24.78-3.27 18-3.86 20.7-2.42 11.02-4.63 22.12-6.96 33.14z"/><path fill="#71767b" d="m1680.05 1190.7.87-4.7c.55-2.95 9.93-46.36 9.95-46.39.13.01.27.03.4.05 1.45 2.6-8.7 47.13-9.73 52.85z"/><path fill="#85888c" d="M1619.53 1190.41c-1.77-9.31-3.74-20.24-5.87-29.38l-1.02-4.45-1.98-8c-.39-1.37-2.75-8.57-1.35-9.56 3.34 2.42 9.62 43.05 11.4 50.28zm-1250.579.26c-1.888-8.08-3.375-16.9-5.201-25.15l-.971-4.5c-.734-3.49-5.406-20.24-4.256-22.38.075-.03.151-.05.226-.08 1.055 1.45 2.377 8.81 3.009 11.01l1.016 3.98.539 2.42.947 4c.363 1.59.675 2.87 1.034 4.5l1.012 4.51 2.46 11.04c.611 3.38 1.246 6.62 1.818 10.02zm60.812-2.37c.798-8.72 5.131-18.73 6.349-27.78.314-2.33 3.544-20.98 4.884-21.18 1.05.58.346 2.76.191 3.66-2.662 15.56-6.365 30.82-9.669 46.25zm-336.118 1.19c.665-5.69 1.646-10.51 3.021-16.05l1.07-4.47.91-3.99c.325-1.79.922-5.87 1.494-7.47.923-2.58 2.703-17.82 4.748-17.24.82 1.05-5.791 30.27-6.608 33.76l-.883 3.99c-.85 3.78-1.2 8.3-1.86 12.16z"/><path fill="#71767b" d="M2015.85 1188.85c1.49-5.79 8.6-47.13 11.52-47.98.11.1-8.99 45.63-9.84 50.79z"/><path fill="#85888c" d="M201.808 1191.48c-.759-2.83-1.439-6.06-2.029-8.95l-1.012-4.5c-1.126-4.4-8.442-36.72-7.977-38.48.101-.01.203-.03.305-.04 1.323 1.05 2.876 9.09 3.233 10.93l1.868 9.04.629 2.55.926 3.99 1.442 6.45c.68 3 1.375 6 2.077 8.99l.978 4.02c.448 1.69.881 3.39 1.271 5.11z"/><path fill="#71767b" d="M262.943 1187.34c1.867-10.94 5.939-22.24 7.781-33.37.35-2.12 1.779-16.38 3.863-14.81.158 2.21.071 1.44-.335 3.89l-1.333 7.94c-2.72 11.76-6.22 25.64-8.337 37.33z"/><path fill="#b1b2b5" d="M1624.92 1125.15c3.22-6.16-.58-33.28 2.84-35.02 1.65.61.82 10.88.83 12.87.08 7.58-.13 15.17-.65 22.74-1-.2-2.01-.39-3.02-.59"/><path fill="#283135" d="M1649.63 1253.97c2.26 3.41-.32 4.98 2.09 7.76.12 3.41 1.38 23.04-1.02 24.08-2.6-1.05-1.87-28.03-1.07-31.84m-1250.753 13.42c.421-3.28-.262-12.44 1.792-13.1.696 4.44 1.9 28.3.38 31.4-3.645 1.44-2.313-16.53-2.172-18.3"/><path fill="#85888c" d="M1962.91 1125.87c-.04-3.03-.74-29.95.48-35.29.03-.11.29-.15.34-.14 1.36.43 1.02 3.38 1.02 4.06.03 10.63.6 21.53.18 32.12-.67-.25-1.35-.5-2.02-.75"/><path fill="#b1b2b5" d="M254.504 1125.53c-.357-3.97-.651-34.28.781-36.23.79-.28 1.315.7 1.34 1.31.3 7.28.113 14.97-.276 22.25-.139 2.56-.225 5.13-.258 7.69-.022 1.76-.003 1.98.718 3.55zm167.172.32c-.416-4.2-.404-35.23.935-36.97 3.091 1-.065 29.95 1.349 35.58z"/><path fill="#85888c" d="M1790.37 1125.99c.73-.47 3.61-1.93 3.72-3.02.98-9.85-.92-22.22.79-31.61.93-5.16 1.66 9.72 1.64 6.65.07 8.79.1 17.84-.56 26.59-1.97.46-3.63.85-5.59 1.39m-1704.326-1.28c-.114-3.81-.3-33.01.394-34.29.514-.02 1.198.78 1.228 1.18.647 8.73.355 19.13.302 27.74-.037 6.02.366 4.23 6.286 5.89-3.364-.07-4.901.03-8.21-.52m-47.207.54c5.134-3.54.638-17.83 1.979-23.75.269-1.19-1.639-15.13 1.622-10.12.412.72.595 11.15.54 12.95-.206 6.65.982 15.33-.762 21.69-1.023-.22-2.369-.47-3.38-.77m337.508-.85c1.336-5.27-1.923-33.33 1.095-33.89 1.044 1.75 1.503 31.76 1.264 35.54-1.38-.79-1.255-.64-2.359-1.65"/><path fill="#283135" d="m1817.11 1254.1 2.09.18c.13 3.74 1.11 29.83-1.4 30.87l-.35-.19c-1.12-2.58-.54-26.57-.34-30.86"/><path fill="#b1b2b5" d="M208.593 1125.22c2.03-6 .947-12.47 1.12-18.72.05-1.83-1.364-15.49.961-15.72l.864.69c.403 2.52-.018 31.18-.209 34.14z"/><path fill="#85888c" d="M2009.02 1125.83c-1.3-4.06-1.94-34.59.44-35.74l.21.14c2.26 5.95-1.76 27.78 1.49 34.84-.72.26-1.43.51-2.14.76m-337.03-.19c-.03-4.24-.99-34.79 1.41-35.34 1.2.92.4 30.31.57 34.23zm168.21-35.07c3.5 2.89 1.54 15.61 1.27 20.42l-.59 12.46c-3.49-2.72-1.05-27.12-.68-32.88M62.39 1221.45c5.617-.52 8.206-.57 14.087-.16-5.663.94-5.647.57-11.39.49-.094 3.32-2.321 18.36.413 19-.242 9.46-3.37-3.98-3.693-4.78.443-4.8.443-9.73.583-14.55"/><path fill="#71767b" d="M1649.59 1157.6c.3.18.61.36.91.55.58-.84.62-2.18.81-3.13l.16.02c.09.57.17 1.5.19 2.09-.2 5.68.06 11.37.78 17.02-.27 1.08-.24 1.38-1.06 2.04-1.74.27-2.55-3.95-2.58-5.22 1.34-3.28.09-8.66.79-13.37"/><path fill="#85888c" d="M398.868 1158.48c.811.01 1.399-.36 2.191-.68-.042 3.52-.063 6.37-.381 9.9-.665 3.98-.735 4.12-.126 8.06-.492.44-.511.62-.993.66-1.645-1.93-2.789-2.99-2.992-5.46 2.796-.94 1.078-8.16 2.301-12.48"/><path fill="#53595f" d="m1816.97 1156.96 2.14.98c.32 5.36.03 9.97 1.2 15.21-.1 2.54-1.39 3.36-2.58.65-.56-7.02-.69-9.7-.76-16.84"/><path fill="#71767b" d="M1649.14 1222.41c.68-.19 1.36-.37 2.04-.56-.05 5.75-.27 11.45.1 17.18-.34.53-.68 1.05-1.02 1.57l-.22-.44c-1.04-2.1-1.26-2.23-1.44-4.53.53-4.7.16-8.61.54-13.22"/><path fill="#53595f" d="m1816.99 1190.53 2.25.14c.15 4.45-.42 10.32 1 14.1-2.01 1.9.48 2.16-2.5 3.26.27-5.53-.87-11.44-.75-17.5"/><path fill="#71767b" d="m1985.93 1189.47 2 .52c.08 5.36-.17 10.81.4 16.07-1.05 1.78-1.6 1.92-2.56.01.44-5.01.26-11.51.16-16.6m-1587.245 32.47c.997.32 1.305.35 2.214-.14.027 4-.02 8.01-.14 12l-.642 1.01-2.373-.5c.516-4.32.362-7.92.941-12.37m1586.295-.71c.47.46.96.94 1.49 1.29.39-.17.4-.56.58-1.01 1.07 5.43.64 11.28.09 16.77-.52-2-.85-4.07-1.7-5.96-.33-4.05-.36-7.05-.46-11.09m1-63.13c.27-.32 1.02-1.57 1.47-1.68.41.31.41.85.56 1.38-.35 6.02.52 10.28-1 16.21-.68-.73-.71-.88-1.44-1.95.54-4.82.35-9.12.41-13.96"/><path fill="#85888c" d="m231.772 1190.49 1.821.24c.308 4.12.216 7.91.648 12.01l-1.785 2c-.832-5.12-.77-9.1-.684-14.25"/><path fill="#53595f" d="m231.999 1158.75 2.216.51c.009 4.16-.276 8.23.12 12.32l-2.011 1.07c-.303-4.78-.298-9.11-.325-13.9m481.336 723.72c9.861 3.75 3.643 4.07-2.749 3.03z"/><path fill="#71767b" d="M641.707 1837.41c-2.926-5.28-3.861-8.65-5.533-14.4 2.17 4.02 4.631 8.26 6.695 12.28z"/><path fill="#85888c" d="M1433.37 1370.01c.46-5.69 2.97-8.54 2.33-.57-1.22.08-1.08.12-2.33.57"/><metadata><recraft-signature>{&quot;signed_by&quot;: &quot;recraft&quot;, &quot;signature_b64&quot;: &quot;XQlbW/Bsk+gIKHLnZ9hSrlb0t5vKcN2ZYrEgCQ3RM0uaUx5EDpYNILr4EwiRbLcY8aJ6K3fwCnV72rpJEAXLDQ==&quot;, &quot;signing_algo&quot;: &quot;Ed25519&quot;, &quot;generation_timestamp&quot;: 1777235747, &quot;identifier&quot;: &quot;43f95bd8-0b16-4526-848b-563f33e2b057&quot;}</recraft-signature></metadata></svg>