<svg xmlns="http://www.w3.org/2000/svg" height="1024" preserveAspectRatio="none" style="display: block;" version="1.1" viewBox="0 0 2048 2048" width="1024">
<defs>
	<linearGradient gradientUnits="userSpaceOnUse" id="Gradient1" x1="1337.43" x2="1326.16" y1="1996.54" y2="1950.79">
		<stop class="stop0" offset="0" stop-color="rgb(58,75,83)" stop-opacity="1"></stop>
		<stop class="stop1" offset="1" stop-color="rgb(78,79,89)" stop-opacity="1"></stop>
	</linearGradient>
	<linearGradient gradientUnits="userSpaceOnUse" id="Gradient2" x1="122.773" x2="115.073" y1="1992.75" y2="1954.48">
		<stop class="stop0" offset="0" stop-color="rgb(56,73,80)" stop-opacity="1"></stop>
		<stop class="stop1" offset="1" stop-color="rgb(76,76,87)" stop-opacity="1"></stop>
	</linearGradient>
</defs>

<path d="M 825.594 551.347 C 851.792 567.32 874.698 581.165 903.796 591.253 C 907.375 593.059 916.915 595.212 919.432 597.901 C 935.919 615.512 946.332 639.118 966.409 653.66 L 963.779 657.374 C 920.677 648.526 865.72 653.803 829.203 678.295 C 756.375 727.141 783.87 828.396 824.966 886.96 C 897.359 990.124 1001.94 1056.04 1112.08 1112.4 C 1164.7 1139.2 1221.64 1157.51 1276.22 1179.83 C 1282.66 1182.47 1289.34 1185.42 1295.98 1187.48 L 1296.91 1191.18 C 1281.39 1191.7 1269.6 1192.95 1254.43 1195.07 C 1262.83 1201.42 1269.85 1206.79 1277.82 1213.77 C 1240.44 1212.99 1206.06 1208.15 1167.61 1213.62 C 1210.07 1228.82 1254.52 1249.02 1296.2 1266.67 C 1316.85 1275.42 1339.84 1285.35 1359.85 1295.42 C 1366.94 1298.99 1380.35 1309.96 1387.1 1315.27 L 1218.63 1259.15 C 1196.51 1251.82 1170.36 1244.7 1149.03 1236.49 C 1156.69 1221.91 1156.79 1218.83 1157.89 1202.2 C 1150.11 1210.53 1126.48 1245.23 1114.86 1242.55 C 1088.45 1236.46 1074.74 1202.02 1058.06 1183.18 C 1059.02 1202.99 1059.99 1222.74 1062.3 1242.45 C 994.043 1224.34 923.304 1202.1 862.009 1167.33 C 752.388 1105.15 648.25 1011.58 627.353 881.179 C 615.863 809.479 626.922 761.784 662.01 700.33 C 667.824 734.925 669.997 744.324 690.664 772.696 C 691.184 751.081 691.928 730.128 703.99 711.353 C 724.031 680.155 759.178 669.389 792.798 661.367 C 784.32 657.895 779.83 654.782 772.9 649.147 C 783.015 641.696 793.502 634.354 802.345 625.46 C 796.139 618.299 791.48 614.941 784.168 609.119 C 791.059 602.087 813.593 584.121 812.47 575.222 C 809.512 571.449 805.333 569.435 801.15 566.906 C 809.61 561.178 816.684 556.506 825.594 551.347 z" fill="rgb(66,81,90)" transform="translate(0,0)"></path>
<path d="M 1226.47 1600.58 C 1194.03 1604.51 1159.33 1595.35 1126.28 1590.11 C 1084.84 1583.62 1043.46 1576.75 1002.15 1569.5 C 944.434 1559.44 884.142 1550.27 826.005 1540.64 L 676.774 1516.78 C 651.503 1512.61 625.356 1509.15 600.487 1503.02 C 592.137 1500.96 585.415 1496.95 578.743 1491.65 C 560.322 1477.02 550.819 1455.49 548.333 1432.41 C 545.587 1406.9 551.737 1380.26 568.023 1360.07 C 581.597 1343.25 602.343 1329.36 624.236 1326.87 C 638.258 1325.28 757.258 1338.31 771.898 1342.22 C 737.927 1366.94 717.864 1397.5 731.432 1440.67 C 738.068 1431.93 746.197 1423.36 753.616 1415.19 C 748.434 1442.8 750.364 1459.02 762.617 1484.79 C 768.601 1469.57 775.061 1452.82 780.304 1437.36 C 784.905 1459.05 788.143 1473.76 800.295 1492.8 C 808.233 1469.79 816.838 1437.35 826.325 1414.62 C 828.891 1408.48 855.131 1388.32 862.954 1384.45 C 881.618 1376.02 902.231 1373.31 922.157 1372.22 L 914.242 1360.3 C 923.227 1360.83 930.83 1361.43 939.754 1362.53 C 914.382 1390.27 904.763 1396.82 906.899 1437.25 C 907.829 1454.85 912.341 1467.6 920.817 1483.52 C 924.893 1469.87 941.568 1416.13 949.123 1407.49 L 950.866 1407.14 C 951.673 1409.46 947.501 1420.96 946.48 1424.41 C 934.081 1466.41 945.799 1499.17 981.264 1524.28 C 980.647 1511.57 978.765 1499.94 978.872 1487.27 C 978.464 1484.7 977.031 1467.7 978.919 1466.88 L 979.362 1467.1 L 979.045 1467.04 C 980.356 1468.3 980.19 1471.23 980.373 1473.19 C 985.591 1490.1 992.032 1501.54 1003.84 1514.99 C 1006.47 1484.29 1006.77 1450.51 1014.74 1420.82 C 1017.12 1411.95 1029.78 1397.08 1036.78 1391.3 C 1054.09 1388.47 1071.65 1387.02 1089.1 1385.13 L 1076.64 1370.81 C 1098.03 1371.14 1118.68 1374.63 1139.83 1376.75 C 1171.95 1379.97 1205.78 1384.35 1237.92 1386.59 C 1231.27 1388.84 1224.36 1391.12 1217.98 1394.05 C 1166.68 1417.62 1133.04 1480.45 1152.52 1535.67 C 1161.59 1560.74 1180.31 1581.13 1204.5 1592.31 C 1211.32 1595.51 1219.3 1598.17 1226.47 1600.58 z" fill="rgb(66,81,90)" transform="translate(0,0)"></path>
<path d="M 978.872 1487.27 C 978.464 1484.7 977.031 1467.7 978.919 1466.88 L 979.362 1467.1 L 979.045 1467.04 C 980.356 1468.3 980.19 1471.23 980.373 1473.19 C 978.216 1477.45 979.218 1481.72 978.872 1487.27 z" fill="rgb(137,136,139)" transform="translate(0,0)"></path>
<path d="M 578.12 465.306 C 598.134 439.771 652.116 418.591 683.594 415.976 C 764.653 409.243 849.58 453.033 885.606 527.221 C 895 546.564 907.232 566.032 915.607 585.887 C 895.867 578.474 878.09 571.951 859.903 561.057 C 838.492 548.232 816.652 536.207 795.732 522.553 L 794.676 518.572 C 803.629 519.774 812.939 521.172 821.909 521.923 C 811.626 516.464 797.464 510.217 786.421 507.408 C 769.619 503.135 764.527 500.389 751.17 490.025 C 739.67 481.102 716.441 476.404 702.076 474.391 C 677.667 454.272 644.504 465.506 646.225 499.844 C 647.138 518.062 670.895 527.634 686.102 521.995 C 706.987 516.079 710.186 501.765 707.888 482.9 C 728.21 487.536 743.015 492.606 758.646 507.061 C 776.142 523.242 797.346 533.116 816.688 546.602 C 805.432 553.797 795.82 560.538 784.972 568.359 L 803.066 578.954 C 794.365 588.301 777.292 605.44 770.068 614.772 C 778.186 618.527 783.263 621.519 790.481 626.959 C 777.752 638.183 763.807 642.02 750.983 650.461 L 764.31 657.231 C 723.601 679.72 699.858 686.358 685.168 737.172 C 684.396 739.855 683.648 742.546 682.924 745.243 C 670.71 723.003 671.747 713.473 670.529 687.894 C 668.428 643.716 653.884 616.946 620.236 589.511 C 625.61 585.094 628.939 581.89 629.71 574.535 C 631.135 560.928 622.268 545.934 620.408 532.707 C 619.304 524.851 621.605 515.476 621.43 506.955 C 614.397 493.713 590.762 473.667 578.12 465.306 z" fill="rgb(66,81,90)" transform="translate(0,0)"></path>
<path d="M 920.393 660.432 C 921.259 660.383 922.125 660.335 922.991 660.286 C 1020.6 659.485 1105.27 739.764 1170.08 801.261 C 1136.18 838 1107.12 844.87 1058.77 845.731 C 980.496 842.392 895.026 815.794 830.868 768.514 C 819.269 759.588 807.176 744.579 806.563 729.473 C 804.418 676.633 882.725 662.402 920.393 660.432 z" fill="rgb(66,81,90)" transform="translate(0,0)"></path>
<path d="M 1531.98 1734.9 L 1533.36 1733.77 C 1541.53 1733.25 1556.54 1733.03 1562.45 1739.09 C 1574.99 1751.94 1568.18 1769.3 1551.59 1773.18 L 1552.68 1775.91 C 1543.84 1813.27 1554.07 1852.44 1582.78 1879.18 C 1585.74 1881.94 1591.72 1885.98 1593.86 1888.93 L 1594.23 1890.45 C 1595.54 1891.38 1596.89 1892.19 1598.29 1892.97 L 1597.4 1893.99 C 1570.26 1895.93 1244.37 1896.78 1236.89 1893.28 L 1237.63 1892.17 C 1246.52 1892.29 1265.76 1892.28 1274.26 1891.63 L 1274.16 1890.91 C 1269.81 1890.93 1260.1 1891.66 1257.13 1889.45 C 1259.45 1885.45 1268.56 1877.98 1271.96 1873.7 C 1285.29 1856.88 1296.69 1835.75 1301.19 1814.85 C 1302.47 1808.85 1303.25 1802.76 1303.51 1796.64 C 1303.75 1791.12 1302.17 1780.23 1303.72 1776.66 C 1306.87 1775.58 1305.96 1775.97 1309.92 1777.39 L 1311.35 1775.44 C 1315.36 1774.52 1324.95 1775.14 1330.02 1774.92 L 1331.04 1773.56 C 1320.82 1765.3 1319.33 1763.29 1316.35 1751.09 C 1320.55 1740.05 1325.09 1733.39 1337.57 1733.38 C 1375.74 1733.35 1415.56 1732.17 1453.56 1733.14 C 1470.31 1733.57 1518.14 1731.19 1531.98 1734.9 z" fill="rgb(66,81,90)" transform="translate(0,0)"></path>
<path d="M 1316.35 1751.09 C 1320.55 1740.05 1325.09 1733.39 1337.57 1733.38 C 1375.74 1733.35 1415.56 1732.17 1453.56 1733.14 C 1470.31 1733.57 1518.14 1731.19 1531.98 1734.9 C 1547.64 1748.95 1545.66 1759.82 1530.58 1772.81 L 1393.47 1773.05 C 1383.38 1773.05 1338.89 1772.34 1331.04 1773.56 C 1320.82 1765.3 1319.33 1763.29 1316.35 1751.09 z" fill="rgb(215,133,59)" transform="translate(0,0)"></path>
<path d="M 1531.98 1734.9 L 1533.36 1733.77 C 1541.53 1733.25 1556.54 1733.03 1562.45 1739.09 C 1574.99 1751.94 1568.18 1769.3 1551.59 1773.18 L 1552.68 1775.91 C 1476.24 1778.21 1388.16 1777.95 1311.65 1776.31 C 1323.54 1820.43 1314.27 1862.81 1275.04 1889.47 L 1510.68 1889.46 C 1520.91 1889.47 1587.64 1890.87 1593.86 1888.93 L 1594.23 1890.45 C 1595.54 1891.38 1596.89 1892.19 1598.29 1892.97 L 1597.4 1893.99 C 1570.26 1895.93 1244.37 1896.78 1236.89 1893.28 L 1237.63 1892.17 C 1246.52 1892.29 1265.76 1892.28 1274.26 1891.63 L 1274.16 1890.91 C 1269.81 1890.93 1260.1 1891.66 1257.13 1889.45 C 1259.45 1885.45 1268.56 1877.98 1271.96 1873.7 C 1285.29 1856.88 1296.69 1835.75 1301.19 1814.85 C 1302.47 1808.85 1303.25 1802.76 1303.51 1796.64 C 1303.75 1791.12 1302.17 1780.23 1303.72 1776.66 C 1306.87 1775.58 1305.96 1775.97 1309.92 1777.39 L 1311.35 1775.44 C 1315.36 1774.52 1324.95 1775.14 1330.02 1774.92 L 1331.04 1773.56 C 1338.89 1772.34 1383.38 1773.05 1393.47 1773.05 L 1530.58 1772.81 C 1545.66 1759.82 1547.64 1748.95 1531.98 1734.9 z" fill="rgb(198,199,199)" transform="translate(0,0)"></path>
<path d="M 1257.13 1889.45 C 1259.45 1885.45 1268.56 1877.98 1271.96 1873.7 C 1285.29 1856.88 1296.69 1835.75 1301.19 1814.85 C 1302.47 1808.85 1303.25 1802.76 1303.51 1796.64 C 1303.75 1791.12 1302.17 1780.23 1303.72 1776.66 C 1306.87 1775.58 1305.96 1775.97 1309.92 1777.39 C 1317.06 1808.88 1316.71 1832.93 1299.52 1862 C 1293.14 1872.79 1281.22 1885.52 1268.63 1888.52 C 1265.91 1889.17 1260.2 1889.06 1257.13 1889.45 z" fill="rgb(215,133,59)" transform="translate(0,0)"></path>
<path d="M 1533.36 1733.77 C 1541.53 1733.25 1556.54 1733.03 1562.45 1739.09 C 1574.99 1751.94 1568.18 1769.3 1551.59 1773.18 C 1548.23 1772.61 1540.51 1772.86 1536.63 1772.83 C 1542.5 1765.52 1550.26 1757.45 1546.28 1747.02 C 1543.54 1739.83 1540.29 1736.88 1533.36 1733.77 z" fill="rgb(66,81,90)" transform="translate(0,0)"></path>
<path d="M 718.943 139.579 C 722.536 138.531 723.704 137.396 726.208 138.611 C 743.603 139.018 762.01 134.191 762.284 159.007 C 762.377 167.467 754.874 175.073 747.275 177.791 C 746.118 179.944 746.22 178.868 746.675 180.976 C 739.658 202.498 745.887 233.159 755.968 252.826 C 764.975 270.399 776.033 281.596 793.291 290.766 C 763.956 289.299 472.433 291.584 468.197 288.97 C 468.591 288.297 468.986 287.624 469.38 286.95 L 468.707 285.923 C 464.378 288.076 455.773 291.159 451.283 288.959 L 450.899 287.282 C 479.818 256.56 499.329 223.637 493.835 180.133 L 490.186 177.982 C 481.613 173.665 475.083 167.574 475.958 157.506 C 477.771 136.662 496.523 139.154 509.118 139.155 C 511.604 139.131 513.652 139.005 516.12 138.839 L 519.4 139.797 C 522.43 138.939 525.888 138.313 529.037 138.293 C 566.904 138.064 606.301 138.243 644.006 138.402 C 656.976 138.457 709.789 137.23 718.943 139.579 z" fill="rgb(66,81,90)" transform="translate(0,0)"></path>
<path d="M 519.4 139.797 C 522.43 138.939 525.888 138.313 529.037 138.293 C 566.904 138.064 606.301 138.243 644.006 138.402 C 656.976 138.457 709.789 137.23 718.943 139.579 C 733.993 151.428 736.284 166.924 718.305 177.372 C 663.127 180.981 603.751 175.999 548.239 177.83 C 539.473 178.119 528.881 177.962 520.147 177.375 C 505.444 166.675 504.519 150.764 519.4 139.797 z" fill="rgb(66,81,90)" transform="translate(0,0)"></path>
<path d="M 718.943 139.579 C 722.536 138.531 723.704 137.396 726.208 138.611 C 743.603 139.018 762.01 134.191 762.284 159.007 C 762.377 167.467 754.874 175.073 747.275 177.791 C 746.118 179.944 746.22 178.868 746.675 180.976 C 666.189 181.868 585.698 182.089 505.209 181.638 C 512.92 219.685 505.602 265.523 469.38 286.95 L 468.707 285.923 C 464.378 288.076 455.773 291.159 451.283 288.959 L 450.899 287.282 C 479.818 256.56 499.329 223.637 493.835 180.133 L 490.186 177.982 C 481.613 173.665 475.083 167.574 475.958 157.506 C 477.771 136.662 496.523 139.154 509.118 139.155 C 511.604 139.131 513.652 139.005 516.12 138.839 L 519.4 139.797 C 504.519 150.764 505.444 166.675 520.147 177.375 C 528.881 177.962 539.473 178.119 548.239 177.83 C 603.751 175.999 663.127 180.981 718.305 177.372 C 736.284 166.924 733.993 151.428 718.943 139.579 z" fill="rgb(247,245,246)" transform="translate(0,0)"></path>
<path d="M 493.835 180.133 C 496.013 180.353 501.397 180.654 502.237 182.881 C 515.467 217.965 497.636 265.803 468.707 285.923 C 464.378 288.076 455.773 291.159 451.283 288.959 L 450.899 287.282 C 479.818 256.56 499.329 223.637 493.835 180.133 z" fill="rgb(215,133,59)" transform="translate(0,0)"></path>
<path d="M 490.186 177.982 C 481.613 173.665 475.083 167.574 475.958 157.506 C 477.771 136.662 496.523 139.154 509.118 139.155 C 511.604 139.131 513.652 139.005 516.12 138.839 C 508.159 146.116 507.593 144.907 504.97 155.486 C 502.495 165.465 512.784 175.347 512.932 176.93 C 512.288 177.909 510.677 178.181 509.69 178.577 C 503.601 177.442 496.566 178.138 490.186 177.982 z" fill="rgb(215,133,59)" transform="translate(0,0)"></path>
<path d="M 516.12 138.839 C 508.159 146.116 507.593 144.907 504.97 155.486 C 502.495 165.465 512.784 175.347 512.932 176.93 C 512.288 177.909 510.677 178.181 509.69 178.577 C 494.401 168.005 488.282 145.225 509.118 139.155 C 511.604 139.131 513.652 139.005 516.12 138.839 z" fill="rgb(66,81,90)" transform="translate(0,0)"></path>
<path d="M 726.208 138.611 C 743.603 139.018 762.01 134.191 762.284 159.007 C 762.377 167.467 754.874 175.073 747.275 177.791 C 742.886 176.862 730.696 177.178 725.465 177.034 C 725.791 176.673 726.116 176.311 726.442 175.95 L 727.763 174.541 C 746.584 154.212 725.101 141.188 726.208 138.611 z" fill="rgb(66,81,90)" transform="translate(0,0)"></path>
<path d="M 1294.25 141.131 C 1300.33 140.681 1306.65 140.289 1312.76 140.572 C 1316.37 140.604 1319.66 140.667 1323.28 140.839 L 1326.05 140.753 C 1312.77 154.476 1312.83 175.432 1333.38 179.609 C 1360.49 182.587 1528.67 178.205 1536.08 182.453 L 1549.74 181.996 C 1544.09 225.073 1557.62 264.573 1594 289.679 C 1595.51 291.433 1596.59 292.591 1597.85 294.535 L 1593.77 295.178 C 1592.61 295.92 1592.63 295.749 1591.05 295.679 C 1563.71 297.171 1527.2 296.365 1498.94 296.556 C 1421.8 296.761 1344.66 296.531 1267.53 295.865 C 1263.16 296.071 1258.6 296.603 1254.51 295.062 L 1254.21 294.136 L 1253.63 293.19 C 1259.33 292.603 1270.92 293.832 1275.03 290.161 L 1274.9 288.948 L 1273.43 287.802 C 1268.08 289.891 1261.62 289.739 1255.8 290.008 C 1282.52 264.866 1308.89 219.844 1300.16 181.735 L 1299.1 179.932 C 1288.21 176.019 1280.06 166.259 1282.51 154.189 C 1283.93 147.173 1288.67 144.68 1294.25 141.131 z" fill="rgb(66,81,90)" transform="translate(0,0)"></path>
<path d="M 1294.25 141.131 C 1300.33 140.681 1306.65 140.289 1312.76 140.572 C 1316.37 140.604 1319.66 140.667 1323.28 140.839 L 1326.05 140.753 C 1312.77 154.476 1312.83 175.432 1333.38 179.609 C 1360.49 182.587 1528.67 178.205 1536.08 182.453 L 1403.6 182.946 C 1373.92 183.006 1340.89 183.593 1311.43 182.634 C 1315.43 202.053 1317.18 217.231 1311.82 236.759 C 1306.19 257.258 1293.44 277.755 1274.9 288.948 L 1273.43 287.802 C 1268.08 289.891 1261.62 289.739 1255.8 290.008 C 1282.52 264.866 1308.89 219.844 1300.16 181.735 L 1299.1 179.932 C 1288.21 176.019 1280.06 166.259 1282.51 154.189 C 1283.93 147.173 1288.67 144.68 1294.25 141.131 z" fill="rgb(247,245,246)" transform="translate(0,0)"></path>
<path d="M 1300.16 181.735 C 1304.56 181.983 1305.32 181.312 1308.53 183.328 C 1316.44 199.085 1313.11 227.7 1307.42 244.034 C 1301.56 260.864 1288.2 277.941 1273.43 287.802 C 1268.08 289.891 1261.62 289.739 1255.8 290.008 C 1282.52 264.866 1308.89 219.844 1300.16 181.735 z" fill="rgb(215,133,59)" transform="translate(0,0)"></path>
<path d="M 1294.25 141.131 C 1300.33 140.681 1306.65 140.289 1312.76 140.572 L 1312.65 142.142 C 1312.7 146.418 1310.77 147.236 1314.15 149.741 C 1311.54 156.864 1312.07 158.777 1313.25 165.764 C 1310.69 170.761 1312.29 172.005 1308.7 175.076 C 1312.38 176.31 1315.7 177.716 1319.31 178.991 C 1312.37 179.064 1306.15 179.78 1299.1 179.932 C 1288.21 176.019 1280.06 166.259 1282.51 154.189 C 1283.93 147.173 1288.67 144.68 1294.25 141.131 z" fill="rgb(215,133,59)" transform="translate(0,0)"></path>
<path d="M 1312.65 142.142 C 1312.7 146.418 1310.77 147.236 1314.15 149.741 C 1311.54 156.864 1312.07 158.777 1313.25 165.764 C 1310.69 170.761 1312.29 172.005 1308.7 175.076 C 1298.41 164.795 1302.53 150.895 1312.65 142.142 z" fill="rgb(66,81,90)" transform="translate(0,0)"></path>
<path d="M 1313.25 165.764 C 1314.53 168.081 1321.49 178.349 1321.5 178.362 C 1320.87 178.77 1320.04 178.836 1319.31 178.991 C 1315.7 177.716 1312.38 176.31 1308.7 175.076 C 1312.29 172.005 1310.69 170.761 1313.25 165.764 z" fill="rgb(66,81,90)" transform="translate(0,0)"></path>
<path d="M 1312.76 140.572 C 1316.37 140.604 1319.66 140.667 1323.28 140.839 C 1318.4 144.811 1318.16 145.044 1314.15 149.741 C 1310.77 147.236 1312.7 146.418 1312.65 142.142 L 1312.76 140.572 z" fill="rgb(78,79,81)" transform="translate(0,0)"></path>
<path d="M 1594 289.679 C 1595.51 291.433 1596.59 292.591 1597.85 294.535 L 1593.77 295.178 C 1592.61 295.92 1592.63 295.749 1591.05 295.679 C 1563.71 297.171 1527.2 296.365 1498.94 296.556 C 1421.8 296.761 1344.66 296.531 1267.53 295.865 C 1263.16 296.071 1258.6 296.603 1254.51 295.062 L 1254.21 294.136 L 1253.63 293.19 C 1259.33 292.603 1270.92 293.832 1275.03 290.161 C 1349.66 289.349 1425.26 290.553 1500.06 290.342 L 1558.03 290.189 C 1568.71 290.19 1583.82 290.629 1594 289.679 z" fill="rgb(247,245,246)" transform="translate(0,0)"></path>
<path d="M 1254.21 294.136 C 1330.75 292.934 1409.4 294.24 1486.14 294.195 L 1558.64 293.952 C 1567.59 293.921 1589.97 293.43 1597.85 294.535 L 1593.77 295.178 C 1592.61 295.92 1592.63 295.749 1591.05 295.679 C 1563.71 297.171 1527.2 296.365 1498.94 296.556 C 1421.8 296.761 1344.66 296.531 1267.53 295.865 C 1263.16 296.071 1258.6 296.603 1254.51 295.062 L 1254.21 294.136 z" fill="rgb(78,79,81)" transform="translate(0,0)"></path>
<path d="M 1254.51 295.062 C 1259.06 294.481 1262.99 295.138 1267.53 295.865 C 1263.16 296.071 1258.6 296.603 1254.51 295.062 z" fill="rgb(169,168,169)" transform="translate(0,0)"></path>
<path d="M 1591.05 295.679 C 1592.31 294.919 1592.23 295.017 1593.77 295.178 C 1592.61 295.92 1592.63 295.749 1591.05 295.679 z" fill="rgb(169,168,169)" transform="translate(0,0)"></path>
<path d="M 448.952 1888.67 C 477.792 1862.04 493.18 1833.78 495.695 1793.63 C 495.99 1788.92 494.827 1778.33 496.561 1775.31 C 500.001 1775.06 499.164 1775.3 502.759 1777.18 L 503.884 1776.71 C 513.901 1775.52 556.51 1776.71 569.475 1776.66 L 746.862 1776.78 C 737.842 1821.68 752.905 1861.75 789.716 1888.75 C 790.18 1889.19 791.412 1892.25 791.626 1892.73 L 790.778 1894.21 C 782.214 1897.12 435.318 1895.07 431.983 1893.51 C 434.777 1891.77 458.803 1891.98 464.665 1891.59 C 459.919 1890.86 455.542 1891.3 449.707 1890.28 L 448.952 1888.67 z" fill="rgb(66,81,90)" transform="translate(0,0)"></path>
<path d="M 448.952 1888.67 C 477.792 1862.04 493.18 1833.78 495.695 1793.63 C 495.99 1788.92 494.827 1778.33 496.561 1775.31 C 500.001 1775.06 499.164 1775.3 502.759 1777.18 L 503.884 1776.71 C 512.554 1802.01 510.895 1829.71 499.268 1853.79 C 491.647 1869.75 481.88 1879.17 467.47 1888.93 L 715.058 1889.57 C 724.277 1889.57 784.356 1890.56 789.716 1888.75 C 790.18 1889.19 791.412 1892.25 791.626 1892.73 L 790.778 1894.21 C 782.214 1897.12 435.318 1895.07 431.983 1893.51 C 434.777 1891.77 458.803 1891.98 464.665 1891.59 C 459.919 1890.86 455.542 1891.3 449.707 1890.28 L 448.952 1888.67 z" fill="rgb(198,199,199)" transform="translate(0,0)"></path>
<path d="M 448.952 1888.67 C 477.792 1862.04 493.18 1833.78 495.695 1793.63 C 495.99 1788.92 494.827 1778.33 496.561 1775.31 C 500.001 1775.06 499.164 1775.3 502.759 1777.18 C 504.272 1785.95 507.02 1796.94 506.983 1805.68 C 506.9 1825.42 501.431 1848.67 489.687 1864.89 C 478.745 1880 468.564 1890.1 448.952 1888.67 z" fill="rgb(215,133,59)" transform="translate(0,0)"></path>
<path d="M 948.871 956.72 C 959.344 966.322 964.808 973.733 979.362 977.457 C 998.829 982.437 1014.82 980.223 1032.07 970.552 C 1045.86 979.543 1059.08 978.088 1069.54 985.378 C 1161.53 1049.49 1261.05 1101.68 1360.89 1152.31 C 1389.5 1166.89 1418.24 1181.23 1447.09 1195.32 C 1467.99 1205.48 1488.65 1215.31 1508.71 1227.09 C 1517.95 1232.52 1543.35 1263.42 1544.58 1269.64 L 1542.75 1269.91 C 1537.44 1268.44 1531.52 1266.41 1526.28 1264.59 C 1487.16 1251.01 1447.02 1240.55 1408.67 1224.89 C 1288.78 1175.96 1170.12 1124.76 1058.78 1058.1 C 1016.18 1032.6 971.089 1005.24 934.419 971.421 L 948.871 956.72 z" fill="rgb(66,81,90)" transform="translate(0,0)"></path>
<path d="M 1119.26 962.876 C 1128.11 969.297 1133.53 972.187 1145.06 972.318 C 1147.29 972.343 1151.82 971.818 1153.62 972.958 C 1166.24 980.962 1179.3 990.672 1191.76 998.844 C 1214.81 1013.69 1238.28 1027.86 1262.15 1041.34 C 1298.5 1061.96 1335.25 1081.89 1372.36 1101.12 C 1398.3 1114.5 1426.46 1126.09 1449.66 1143.34 C 1467.24 1156.41 1489.7 1180.24 1498.31 1200.57 L 1492.18 1209.61 C 1484.26 1205.45 1476.28 1201.39 1468.25 1197.43 C 1365.28 1148.31 1264.25 1095.22 1165.39 1038.27 C 1134.21 1019.99 1106.26 1000.92 1075.7 982.351 C 1095.51 980.794 1105.63 977.483 1119.26 962.876 z" fill="rgb(66,81,90)" transform="translate(0,0)"></path>
<path d="M 1455.49 1262.69 C 1487.34 1290.52 1517.6 1320.9 1547.9 1350.48 C 1610.9 1412.24 1673.13 1474.8 1734.55 1538.13 C 1763.67 1567.94 1789.66 1595.8 1819.88 1625.43 C 1820.76 1626.29 1822.09 1627.28 1822.36 1628.45 C 1821.92 1629.75 1818.55 1628.67 1817.92 1628.57 C 1795.54 1618.01 1766.96 1611.97 1744.18 1602.2 C 1724.21 1593.63 1703.91 1567.49 1688.04 1551.55 L 1634.63 1497.38 C 1622.55 1485.31 1604.49 1468.45 1593.93 1456.11 C 1577.72 1437.34 1564.27 1415.73 1548.9 1396.39 C 1514.4 1352.96 1484.89 1309.57 1455.49 1262.69 z" fill="rgb(66,81,90)" transform="translate(0,0)"></path>
<path d="M 1819.88 1625.43 C 1820.76 1626.29 1822.09 1627.28 1822.36 1628.45 C 1821.92 1629.75 1818.55 1628.67 1817.92 1628.57 C 1818.56 1627.52 1819.22 1626.47 1819.88 1625.43 z" fill="rgb(78,79,81)" transform="translate(0,0)"></path>
<path d="M 978.751 1228.94 C 979.275 1229.42 979.913 1230.88 980.068 1231.43 C 982.908 1241.54 995.424 1247.55 1004.75 1253.04 C 979.066 1270.98 949.831 1288.14 923.539 1305.37 C 908.071 1315.51 882.868 1329.95 870.022 1343.01 L 894.726 1335.31 C 899.587 1346.2 904.127 1355.33 909.614 1365.92 C 893.843 1367.93 870.304 1371.7 856.237 1378.46 C 848.156 1382.35 825.425 1401.89 820.969 1409.69 C 810.702 1427.66 804.005 1453.56 797.819 1473.48 C 796.961 1471.53 796.211 1469.52 795.574 1467.48 C 789.632 1448.24 783.277 1412.21 798.771 1395.66 C 807.209 1386.65 815.266 1381.58 820.976 1369.92 C 797.292 1383.61 793.166 1383.34 782.325 1408.38 C 776.075 1426.1 768.453 1452.36 761.868 1468.37 C 758.929 1458.76 757.083 1443.99 757.707 1433.93 C 759.83 1399.68 771.851 1390.06 794.59 1368.8 C 762.098 1371.58 768.154 1373.55 755.209 1400.62 C 753.75 1403.68 739.809 1419.66 736.616 1423.39 C 737.727 1365.47 757.514 1357.32 804.019 1326.7 C 816.974 1329.58 828.875 1332.83 842.096 1335.47 C 858.549 1324.17 877.312 1311.92 892.585 1299.24 C 921.171 1275.52 949.541 1251.93 978.751 1228.94 z" fill="rgb(66,81,90)" transform="translate(0,0)"></path>
<path d="M 1005.39 213.395 C 1009.36 212.829 1018.14 212.904 1022.48 213.022 C 1051.45 213.809 1086.9 217.843 1108.13 240.062 C 1122.97 255.595 1123.44 270.09 1122.92 289.712 C 1093.74 290.152 1063.51 289.748 1034.25 289.753 L 913.843 289.165 C 908.655 232.442 960.145 217.546 1005.39 213.395 z" fill="rgb(66,81,90)" transform="translate(0,0)"></path>
<path d="M 197.722 213.41 C 229.818 210.059 280.225 216.15 303.323 241.58 C 317.061 256.705 317.528 270.761 316.814 289.708 C 289.216 290.684 257.417 289.956 229.5 289.977 L 108.952 289.297 C 102.166 233.307 153.002 217.813 197.722 213.41 z" fill="rgb(66,81,90)" transform="translate(0,0)"></path>
<path d="M 1806.79 213.403 C 1819.39 212.625 1832.03 212.829 1844.59 214.013 C 1889.39 217.951 1930.45 236.823 1925.66 289.177 C 1896.28 289.658 1866.89 289.869 1837.5 289.808 L 1717.49 289.548 C 1714.55 232.915 1759.64 218.286 1806.79 213.403 z" fill="rgb(66,81,90)" transform="translate(0,0)"></path>
<path d="M 1010.57 1814.45 C 1011.65 1814.42 1012.72 1814.39 1013.8 1814.37 C 1043.63 1813.83 1086.36 1817.24 1108.15 1839.47 C 1123.5 1855.13 1124.37 1869.09 1124.43 1889.21 C 1093.66 1890.09 1061.63 1889.73 1030.75 1889.76 L 954.287 1889.67 C 945.769 1889.65 923.897 1890.14 916.426 1888.83 C 909.238 1878.83 921.237 1852.37 928.635 1844.43 C 949.898 1821.6 980.949 1816.22 1010.57 1814.45 z" fill="rgb(66,81,90)" transform="translate(0,0)"></path>
<path d="M 1817.89 1814.43 C 1818.86 1814.39 1819.84 1814.36 1820.81 1814.34 C 1854.83 1814.07 1904.01 1819.88 1921.51 1854.06 C 1927.83 1866.42 1927.29 1876.07 1926.88 1889.39 C 1897.65 1890.97 1858.45 1889.87 1828.5 1889.88 C 1792.23 1889.89 1754.15 1890.02 1717.93 1889.09 C 1718.98 1830.33 1767.86 1816.86 1817.89 1814.43 z" fill="rgb(66,81,90)" transform="translate(0,0)"></path>
<path d="M 193.959 1815.38 C 204.584 1814.64 215.243 1814.52 225.881 1815.03 C 258.695 1816.57 298.102 1822.96 313.808 1856.18 C 318.907 1866.96 318.537 1877.59 317.916 1889.12 C 290.446 1889.58 262.973 1889.83 235.5 1889.87 L 110.122 1889.8 C 107.61 1837.67 149.488 1820.48 193.959 1815.38 z" fill="rgb(66,81,90)" transform="translate(0,0)"></path>
<path d="M 1394.9 1307.7 C 1409.12 1314.12 1458.97 1365.63 1478.97 1376.54 C 1480.78 1377.53 1532.96 1420.55 1534.4 1422.76 C 1541.49 1433.58 1632.03 1562.46 1631.69 1566.71 C 1621.9 1568.76 1614.95 1569.56 1605.08 1566.95 C 1569.34 1557.52 1555.72 1537.21 1533.29 1510.82 C 1503.04 1475.23 1478.6 1439.02 1453.06 1399.96 C 1432.91 1369.12 1413.39 1339.81 1394.9 1307.7 z" fill="rgb(66,81,90)" transform="translate(0,0)"></path>
<path d="M 1065.43 1262.37 C 1073.92 1267.71 1077.51 1272.7 1089.32 1279.34 C 1081.48 1292.4 1069.72 1308.27 1060.98 1321.22 C 1051.44 1335.61 1042.25 1350.22 1033.42 1365.06 L 1058.99 1358.2 C 1064.64 1364.63 1070.43 1372.07 1075.87 1378.77 C 1058.5 1379.98 1046.92 1382.12 1030.05 1385.46 C 1024.45 1393.52 1010.51 1409.49 1007.97 1417.87 C 1001.33 1439.76 999.775 1471.44 997.308 1494.3 C 995.308 1489.94 993.501 1485.49 991.89 1480.97 C 986.626 1466.54 982.844 1451.98 982.819 1436.53 C 982.789 1417.52 993.772 1404.18 1001.29 1387.83 L 1001.83 1386.64 C 969.156 1407.79 969.788 1464.2 972.83 1498.78 C 972.79 1501.21 972.816 1500.55 972.132 1502.93 L 970.269 1503.21 C 963.278 1499.12 954.261 1481.2 951.98 1473.58 C 939.524 1431.93 966.104 1406.27 984.284 1372.63 C 932.134 1402.75 938.827 1410.31 919.393 1462.62 C 902.771 1399.35 927.167 1385.5 970.19 1346.57 C 982.284 1347.86 995.953 1350.96 1007.78 1353.79 C 1028.37 1324.2 1047.61 1293.7 1065.43 1262.37 z" fill="rgb(66,81,90)" transform="translate(0,0)"></path>
<path d="M 1279.14 1200.27 C 1293.72 1200.4 1315.38 1199.98 1329.31 1202.14 C 1335.26 1203.06 1357.86 1212.99 1364.34 1215.72 L 1430.34 1243.74 C 1441.98 1268.02 1457.56 1293.44 1471.78 1316.52 C 1457.22 1313.32 1444.83 1308.02 1431.03 1302.73 C 1405.52 1292.94 1380.49 1282.22 1355.05 1272.21 C 1307.96 1253.68 1256.95 1239.8 1210.05 1222.05 L 1210.93 1218.4 C 1229.69 1221.25 1274.28 1221.57 1294.64 1222 C 1290.04 1214.45 1285.39 1206.6 1279.14 1200.27 z" fill="rgb(215,133,59)" transform="translate(0,0)"></path>
<path d="M 1196.31 949.63 C 1201.07 952.49 1206.12 955.794 1210.75 958.9 C 1242.61 980.266 1275.54 999.796 1308.89 1018.77 C 1328.09 1029.5 1347.36 1040.09 1366.7 1050.55 C 1410.19 1073.66 1412.67 1072.04 1440.08 1113.69 L 1433.84 1122.68 L 1415.14 1113.95 C 1350.41 1082.37 1287.05 1048.04 1225.24 1011.07 C 1207.83 1000.45 1179.05 983.09 1163.51 970.522 C 1180.44 964.506 1183.41 961.877 1196.31 949.63 z" fill="rgb(66,81,90)" transform="translate(0,0)"></path>
<path d="M 1531.24 140.83 L 1533.87 140.12 C 1544.24 140.938 1556.81 138.982 1563.77 148.179 C 1574.19 161.961 1565.34 170.952 1554.38 179.124 C 1551.25 179.071 1534.07 180.327 1534.92 177.235 L 1533.71 175.657 C 1531.87 176.953 1529.5 178.517 1527.25 178.628 C 1512.46 179.356 1496.58 179.03 1481.81 178.998 L 1384.34 178.99 C 1371.56 179.014 1345.28 178.359 1333.38 179.609 C 1312.83 175.432 1312.77 154.476 1326.05 140.753 C 1376.76 140.176 1427.47 139.964 1478.18 140.114 C 1486.28 140.117 1525.21 139.277 1531.24 140.83 z" fill="rgb(215,133,59)" transform="translate(0,0)"></path>
<path d="M 1531.24 140.83 L 1533.87 140.12 C 1544.24 140.938 1556.81 138.982 1563.77 148.179 C 1574.19 161.961 1565.34 170.952 1554.38 179.124 C 1551.25 179.071 1534.07 180.327 1534.92 177.235 L 1533.71 175.657 C 1546.91 162.544 1543.85 152.96 1531.24 140.83 z" fill="rgb(66,81,90)" transform="translate(0,0)"></path>
<path d="M 1531.24 140.83 L 1533.87 140.12 C 1548.16 152.233 1551.38 164.34 1534.92 177.235 L 1533.71 175.657 C 1546.91 162.544 1543.85 152.96 1531.24 140.83 z" fill="rgb(247,245,246)" transform="translate(0,0)"></path>
<path d="M 586.702 1308.38 C 602.53 1307.2 611.98 1309.95 627.365 1314.2 C 599.375 1320.03 580.385 1327.41 560.643 1349.63 C 542.459 1370.24 533.389 1397.33 535.497 1424.73 C 537.83 1458.63 549.963 1484.36 576.19 1506.45 L 577.679 1507.68 L 576.776 1509.22 C 559.968 1511.71 542.715 1503.51 529.679 1493.48 C 486.347 1460.13 480.058 1390.52 513.852 1348.37 C 531.664 1326.16 558.49 1311.68 586.702 1308.38 z" fill="rgb(66,81,90)" transform="translate(0,0)"></path>
<path d="M 526.42 1733.34 C 588.775 1732.9 656.844 1732.11 718.951 1733.15 C 728.007 1739.88 730.379 1742.81 733.653 1753.11 C 731.438 1761.71 727.649 1770.5 718.224 1773.04 C 655.067 1773.07 584.471 1774.71 522.008 1772.77 C 517.983 1768.89 513.661 1765.41 511.726 1760 C 507.021 1746.85 513.171 1736.98 526.42 1733.34 z" fill="rgb(66,81,90)" transform="translate(0,0)"></path>
<path d="M 1843.13 184.304 L 1844.08 187.062 C 1863.95 188.321 1881.27 190.389 1899.53 198.7 C 1938.17 216.28 1958.1 247.333 1954.9 289.75 L 1954.08 289.775 C 1946.43 289.966 1939.77 289.202 1932.28 290.63 C 1932.51 288.596 1932.72 286.559 1932.88 284.519 C 1937.45 227.284 1881.8 210.916 1835.37 208.856 C 1797.28 207.166 1761.09 210.913 1731.25 236.943 C 1715.32 257.46 1713.9 264.154 1712.29 289.457 L 1689.62 289.51 C 1689.56 285.558 1689.6 281.607 1689.74 277.657 C 1691.83 219.096 1751.06 185.326 1804.79 187.413 L 1805.59 185.2 C 1808.83 184.715 1813.82 185.036 1817.4 184.959 C 1826.41 184.565 1834 183.981 1843.13 184.304 z" fill="rgb(66,81,90)" transform="translate(0,0)"></path>
<path d="M 1804.79 187.413 C 1807.99 187.845 1810.72 187.927 1813.89 188.2 C 1817.31 190.387 1817.52 189.991 1821.88 190.291 C 1837.6 190.95 1846.73 191.376 1861.87 195.33 C 1821.07 195.253 1774.13 198.708 1740.95 225.699 C 1737.94 228.151 1732.74 233.57 1731.25 236.943 C 1715.32 257.46 1713.9 264.154 1712.29 289.457 L 1689.62 289.51 C 1689.56 285.558 1689.6 281.607 1689.74 277.657 C 1691.83 219.096 1751.06 185.326 1804.79 187.413 z" fill="rgb(215,133,59)" transform="translate(0,0)"></path>
<path d="M 1843.13 184.304 L 1844.08 187.062 C 1840.69 187.188 1835.28 187.071 1832.15 187.515 C 1840.84 190.791 1823.4 190.202 1821.88 190.291 C 1817.52 189.991 1817.31 190.387 1813.89 188.2 C 1810.72 187.927 1807.99 187.845 1804.79 187.413 L 1805.59 185.2 C 1808.83 184.715 1813.82 185.036 1817.4 184.959 C 1826.41 184.565 1834 183.981 1843.13 184.304 z" fill="rgb(247,245,246)" transform="translate(0,0)"></path>
<path d="M 1813.89 188.2 C 1819.98 188.061 1826.07 187.832 1832.15 187.515 C 1840.84 190.791 1823.4 190.202 1821.88 190.291 C 1817.52 189.991 1817.31 190.387 1813.89 188.2 z" fill="rgb(78,79,81)" transform="translate(0,0)"></path>
<path d="M 1013.73 184.158 C 1021.58 183.813 1031.51 183.148 1039.12 183.273 C 1039.97 188.181 1038.5 186.047 1044.6 187.598 C 1079.8 191.288 1107.76 197.617 1132.13 226.458 C 1147.2 244.288 1151.19 266.245 1150.85 289.212 L 1127.26 289.907 C 1128.77 271.845 1128.61 253.787 1115.68 239.673 C 1076.6 197.03 971.505 198.507 930.39 234.242 C 927.749 236.567 925.155 238.945 922.61 241.374 C 910.285 262.749 909.214 262.251 908.548 289.532 L 887.056 289.738 C 886.572 275.486 886.301 263.384 891.584 249.919 C 908.422 207.004 952.051 190.385 994.264 187.602 C 997.425 185.061 1000.98 188.465 1001.84 185.219 C 1005.52 184.018 1009.77 184.43 1013.73 184.158 z" fill="rgb(66,81,90)" transform="translate(0,0)"></path>
<path d="M 1013.73 184.158 C 1021.58 183.813 1031.51 183.148 1039.12 183.273 C 1039.97 188.181 1038.5 186.047 1044.6 187.598 C 1040.8 187.566 1037.09 187.637 1033.3 187.644 L 1032.02 191.099 C 1041.17 192.256 1046.28 193.195 1055.2 195.979 C 1014.5 194.497 964.573 201.428 932.383 229.453 C 928.831 232.546 924.772 237.237 922.61 241.374 C 910.285 262.749 909.214 262.251 908.548 289.532 L 887.056 289.738 C 886.572 275.486 886.301 263.384 891.584 249.919 C 908.422 207.004 952.051 190.385 994.264 187.602 C 997.425 185.061 1000.98 188.465 1001.84 185.219 C 1005.52 184.018 1009.77 184.43 1013.73 184.158 z" fill="rgb(215,133,59)" transform="translate(0,0)"></path>
<path d="M 1013.73 184.158 C 1021.58 183.813 1031.51 183.148 1039.12 183.273 C 1039.97 188.181 1038.5 186.047 1044.6 187.598 C 1040.8 187.566 1037.09 187.637 1033.3 187.644 L 1032.02 191.099 C 1028.13 190.949 1018.8 190.164 1015.31 188.699 L 1013.73 188.089 C 1008.58 187.697 1001.49 187.723 996.18 187.641 L 994.264 187.602 C 997.425 185.061 1000.98 188.465 1001.84 185.219 C 1005.52 184.018 1009.77 184.43 1013.73 184.158 z" fill="rgb(247,245,246)" transform="translate(0,0)"></path>
<path d="M 1013.73 188.089 C 1020.26 188.015 1026.78 187.867 1033.3 187.644 L 1032.02 191.099 C 1028.13 190.949 1018.8 190.164 1015.31 188.699 L 1013.73 188.089 z" fill="rgb(78,79,81)" transform="translate(0,0)"></path>
<path d="M 234.387 187.395 C 268.569 189.532 301.322 196.84 324.606 223.771 C 342.929 244.965 345.145 261.861 345.101 288.919 C 337.867 289.094 330.321 289.389 323.114 289.409 C 323.342 280.986 323.657 271.25 321.737 263.312 C 307.67 205.146 215.442 203.021 169.35 213.353 C 164.046 214.542 155.881 217.905 151.15 218.538 C 132.147 228.146 135.593 225.951 119.209 239.09 C 119.11 239.472 113.675 248.491 113.281 249.098 C 103.66 263.904 103.38 272.128 103.756 289.279 L 80.8008 289.204 C 80.8305 284.216 80.9235 279.228 81.0799 274.241 C 81.9848 251.359 91.9765 232.426 108.807 217.214 C 137.616 191.173 171.187 186.322 208.614 187.918 L 234.387 187.395 z" fill="rgb(66,81,90)" transform="translate(0,0)"></path>
<path d="M 208.614 187.918 L 234.387 187.395 C 228.948 189.91 230.262 188.576 225.869 189.58 C 229.267 190.991 228.28 188.411 232.555 192.018 L 235.927 192.731 L 235.829 195.191 C 205.032 196.901 161.175 201.409 136.199 221.576 C 140.95 223.523 143.05 219.165 149.152 218.722 L 151.15 218.538 C 132.147 228.146 135.593 225.951 119.209 239.09 C 119.11 239.472 113.675 248.491 113.281 249.098 C 103.66 263.904 103.38 272.128 103.756 289.279 L 80.8008 289.204 C 80.8305 284.216 80.9235 279.228 81.0799 274.241 C 81.9848 251.359 91.9765 232.426 108.807 217.214 C 137.616 191.173 171.187 186.322 208.614 187.918 z" fill="rgb(215,133,59)" transform="translate(0,0)"></path>
<path d="M 136.199 221.576 C 140.95 223.523 143.05 219.165 149.152 218.722 L 151.15 218.538 C 132.147 228.146 135.593 225.951 119.209 239.09 C 122.285 232.182 129.786 225.031 136.199 221.576 z" fill="rgb(78,79,81)" transform="translate(0,0)"></path>
<path d="M 208.614 187.918 L 234.387 187.395 C 228.948 189.91 230.262 188.576 225.869 189.58 C 229.267 190.991 228.28 188.411 232.555 192.018 C 224.305 191.126 216.388 190.871 208.614 187.918 z" fill="rgb(78,79,81)" transform="translate(0,0)"></path>
<path d="M 235.927 192.731 C 238.963 193.004 241.632 193.597 244.554 193.905 L 245.184 194.957 L 245.667 194.155 C 249.509 196.892 237.113 195.218 235.829 195.191 L 235.927 192.731 z" fill="rgb(187,130,82)" transform="translate(0,0)"></path>
<path d="M 1815.03 1789.06 C 1821.58 1788.85 1826.8 1788.69 1833.38 1788.96 C 1892.31 1787.37 1955.62 1811.6 1957.03 1879.54 C 1957.08 1882.71 1957.07 1885.89 1957.01 1889.07 L 1934.24 1889.56 C 1935.38 1872.76 1932.49 1851.94 1920.48 1839.75 C 1880.3 1798.94 1775.65 1800.6 1735.37 1836.46 C 1733.68 1837.97 1732 1839.52 1730.36 1841.09 C 1730.18 1841.7 1725.55 1848.69 1724.99 1849.5 C 1714.71 1864.29 1714.15 1871.52 1713.59 1889.07 L 1691.85 1889.07 C 1691.27 1884.74 1691.06 1880.36 1691.22 1875.99 C 1691.42 1870.71 1692.36 1864.67 1693.93 1859.62 C 1710.28 1807.13 1763.86 1786.53 1815.03 1789.06 z" fill="rgb(66,81,90)" transform="translate(0,0)"></path>
<path d="M 1815.03 1789.06 C 1821.58 1788.85 1826.8 1788.69 1833.38 1788.96 L 1832.14 1791.88 C 1838.6 1792.58 1844.71 1793.24 1851.14 1794.26 C 1847.71 1795.42 1844.99 1795.87 1841.58 1797.09 C 1804.98 1800.69 1760.27 1805.76 1733.43 1836.11 C 1732.25 1837.44 1731.04 1839.45 1730.36 1841.09 C 1730.18 1841.7 1725.55 1848.69 1724.99 1849.5 C 1714.71 1864.29 1714.15 1871.52 1713.59 1889.07 L 1691.85 1889.07 C 1691.27 1884.74 1691.06 1880.36 1691.22 1875.99 C 1691.42 1870.71 1692.36 1864.67 1693.93 1859.62 C 1710.28 1807.13 1763.86 1786.53 1815.03 1789.06 z" fill="rgb(215,133,59)" transform="translate(0,0)"></path>
<path d="M 1815.03 1789.06 C 1821.58 1788.85 1826.8 1788.69 1833.38 1788.96 L 1832.14 1791.88 C 1825.41 1791.12 1820.29 1791.79 1815.03 1789.06 z" fill="rgb(78,79,81)" transform="translate(0,0)"></path>
<path d="M 1851.14 1794.26 C 1855.31 1794.26 1861.23 1796.03 1865.31 1797.12 L 1841.58 1797.09 C 1844.99 1795.87 1847.71 1795.42 1851.14 1794.26 z" fill="rgb(187,130,82)" transform="translate(0,0)"></path>
<path d="M 232.858 1787.99 C 297.154 1793.5 346.843 1816.39 346.03 1888.82 L 323.856 1888.98 C 324.336 1876.13 324.689 1866.35 319.188 1854.23 C 302.268 1816.94 256.147 1811.6 220.011 1809.84 C 189.734 1808.38 147.743 1815.58 124.821 1837.54 C 122.335 1839.95 119.891 1842.41 117.49 1844.9 C 116.137 1847.91 113.676 1851.07 112.119 1854.15 C 104.787 1868.62 104.776 1874.36 104.992 1889.75 L 81.8181 1889.72 C 81.8626 1872.5 82.1169 1859.99 89.9439 1844.32 C 108.552 1807.07 149.814 1792.39 188.394 1788.72 C 193.806 1788.69 202.5 1788.58 207.761 1789.14 C 216.402 1788.88 224.282 1788.39 232.858 1787.99 z" fill="rgb(66,81,90)" transform="translate(0,0)"></path>
<path d="M 188.394 1788.72 C 193.806 1788.69 202.5 1788.58 207.761 1789.14 C 217.578 1794.84 228.02 1792.16 239.036 1794.25 C 234.466 1796.62 231.356 1795.21 224.778 1797 C 189.093 1800.52 147.771 1808.27 122.563 1837.07 C 120.536 1839.38 118.651 1842.04 117.49 1844.9 C 116.137 1847.91 113.676 1851.07 112.119 1854.15 C 104.787 1868.62 104.776 1874.36 104.992 1889.75 L 81.8181 1889.72 C 81.8626 1872.5 82.1169 1859.99 89.9439 1844.32 C 108.552 1807.07 149.814 1792.39 188.394 1788.72 z" fill="rgb(215,133,59)" transform="translate(0,0)"></path>
<path d="M 239.036 1794.25 C 243.643 1793.97 251.37 1795.98 255.958 1797.02 C 245.827 1797.03 234.814 1797.24 224.778 1797 C 231.356 1795.21 234.466 1796.62 239.036 1794.25 z" fill="rgb(187,130,82)" transform="translate(0,0)"></path>
<path d="M 1012.59 1788.92 C 1070.37 1782.54 1142.78 1803.08 1150.52 1870.22 C 1151.24 1876.41 1151.19 1882.74 1151.23 1888.96 L 1128.76 1889.06 C 1134.95 1829.16 1083 1813.53 1033.99 1809.81 C 999.462 1807.19 957.021 1813.03 930.276 1836.68 C 914.246 1854.04 910.409 1865.84 909.946 1889.06 L 888.1 1888.94 C 887.579 1882.06 887.812 1875.14 888.796 1868.31 C 892.706 1842.36 905.101 1826.09 925.718 1810.4 C 946.571 1794.54 987.169 1784.96 1012.59 1788.92 z" fill="rgb(66,81,90)" transform="translate(0,0)"></path>
<path d="M 888.1 1888.94 C 887.579 1882.06 887.812 1875.14 888.796 1868.31 C 892.706 1842.36 905.101 1826.09 925.718 1810.4 C 946.571 1794.54 987.169 1784.96 1012.59 1788.92 C 1016.97 1792.38 1047.17 1794.04 1055.82 1794.96 C 1041.33 1796.69 1027.62 1796.79 1012.44 1798.87 C 984.855 1802.65 951.355 1812.38 931.75 1833.49 C 930.677 1834.64 930.507 1835.23 930.276 1836.68 C 914.246 1854.04 910.409 1865.84 909.946 1889.06 L 888.1 1888.94 z" fill="rgb(215,133,59)" transform="translate(0,0)"></path>
<path d="M 1277.21 914.614 C 1283.35 918.152 1382.65 1028.17 1391.11 1038.52 L 1386.06 1051.38 L 1347.41 1030.69 C 1297.88 1005.57 1260.35 980.611 1213.85 952.243 C 1218.18 951.919 1222.49 951.424 1226.78 950.761 C 1253.55 946.494 1262.53 934.881 1277.21 914.614 z" fill="rgb(66,81,90)" transform="translate(0,0)"></path>
<path d="M 1007.16 849.059 C 1035.03 852.574 1061 855.604 1089.14 852.976 C 1109.9 881.939 1149.16 914.727 1176.79 937.309 C 1174.86 939.493 1172.64 941.193 1170.4 943.059 C 1124.08 968.729 1056.56 904.787 1027.76 872.396 C 1021.15 864.962 1012.97 857.002 1007.16 849.059 z" fill="rgb(215,133,59)" transform="translate(0,0)"></path>
<path d="M 149.257 1576.96 C 183.315 1576.21 220.265 1576.95 254.499 1577 L 563.551 1578.93 L 785.609 1579.06 L 851.063 1579.45 C 859.901 1579.42 887.455 1576.33 892.873 1582.29 C 893.146 1585.85 892.905 1585.87 891.558 1589.05 L 443.498 1586.93 C 361.918 1587.17 280.338 1586.96 198.761 1586.31 C 188.653 1586.16 154.445 1589.26 148.177 1583.57 C 147.349 1580.76 148.14 1579.71 149.257 1576.96 z" fill="rgb(66,81,90)" transform="translate(0,0)"></path>
<path d="M 992.967 844.996 C 994.677 846.185 1007.39 862.802 1010.09 865.879 C 1033.7 892.804 1066.11 931.544 1099.92 944.204 C 1081.51 957.323 1069.31 956.864 1048.16 955.86 C 1046.89 955.675 1042.48 954.961 1041.58 954.654 C 1011.22 944.232 959.677 876.822 945.063 850.16 C 967.34 854.34 971.803 853.506 992.967 844.996 z" fill="rgb(215,133,59)" transform="translate(0,0)"></path>
<path d="M 1253.62 1427.84 C 1264.76 1421.29 1263.68 1426.63 1271.84 1428 C 1273.01 1425.42 1272.88 1424.85 1275.15 1423.35 L 1277.18 1423.81 C 1277.97 1427.65 1277.19 1435.15 1279.73 1435.95 C 1280.37 1432.25 1281.06 1428.56 1281.81 1424.88 C 1291.47 1423.32 1299.83 1429.43 1305.25 1436.78 C 1305.59 1440.17 1305.85 1438.5 1303.88 1441.81 L 1305.35 1441.87 C 1312.99 1438.58 1312.74 1443.76 1315.69 1450.15 C 1319.06 1450.82 1322.68 1455.34 1327.99 1455.28 C 1328.23 1455.28 1332.89 1456.28 1333.33 1456.37 C 1330.48 1460.34 1329.85 1461.55 1326.56 1465.15 C 1322.72 1465.13 1317.81 1464.87 1314.18 1465.18 L 1313.55 1468.18 C 1311.91 1473.17 1304.79 1483.09 1300.96 1486.14 L 1299 1488.46 C 1294.53 1495.64 1274.25 1505.15 1266.21 1503.86 C 1262.8 1501.48 1264.24 1502.96 1262.22 1498.79 L 1260.14 1500.17 C 1259.51 1507.12 1257.74 1502.59 1256.31 1499.1 C 1255.42 1498.02 1256.07 1498.63 1253.97 1497.78 C 1251.67 1499.69 1251.83 1499.75 1249.93 1502.08 C 1246.4 1500.61 1243.81 1499.5 1240.08 1498.69 L 1238.08 1498.27 C 1236.8 1496.64 1236.65 1496.32 1235.13 1495.07 L 1232.59 1495.57 C 1225.49 1491.04 1219.29 1478.4 1216.47 1470.56 L 1214.37 1471.02 C 1208.76 1470.93 1204.28 1468.66 1199.09 1466.57 C 1214.83 1463.32 1222.42 1445.6 1233.43 1438.94 L 1234.42 1442.03 L 1235.79 1441.81 C 1240.44 1435.42 1242.51 1429.75 1251.31 1428.64 C 1252.08 1428.37 1252.85 1428.1 1253.62 1427.84 z" fill="rgb(215,25,31)" transform="translate(0,0)"></path>
<path d="M 1280.36 1460.24 C 1271.37 1464.51 1250.03 1474.55 1237.46 1465.11 C 1234.77 1463.08 1237.62 1458.1 1240.99 1460.81 C 1241.93 1461.56 1250 1452.17 1254.08 1455.69 C 1261.61 1460.46 1264.52 1452.54 1273.83 1448.54 C 1278.27 1451.32 1283.35 1455.07 1288.02 1457.1 C 1288.93 1457.49 1291.52 1454.33 1291.94 1453.88 L 1292.55 1455.38 C 1292.98 1456.92 1293.3 1457.66 1293.91 1459.19 C 1288.68 1460.43 1285.42 1458.97 1280.36 1460.24 z" fill="rgb(247,245,246)" transform="translate(0,0)"></path>
<path d="M 1305.35 1441.87 C 1312.99 1438.58 1312.74 1443.76 1315.69 1450.15 C 1319.06 1450.82 1322.68 1455.34 1327.99 1455.28 C 1328.23 1455.28 1332.89 1456.28 1333.33 1456.37 C 1330.48 1460.34 1329.85 1461.55 1326.56 1465.15 C 1322.72 1465.13 1317.81 1464.87 1314.18 1465.18 L 1312.84 1465.05 C 1302.49 1464.15 1301.69 1461 1293.91 1459.19 C 1293.3 1457.66 1292.98 1456.92 1292.55 1455.38 C 1293.7 1454.28 1294.84 1453.16 1295.97 1452.03 C 1298.38 1450.06 1300.83 1448.16 1303.15 1446.09 L 1305.35 1441.87 z" fill="rgb(215,25,31)" transform="translate(0,0)"></path>
<path d="M 1305.35 1441.87 C 1312.99 1438.58 1312.74 1443.76 1315.69 1450.15 C 1309.51 1447.68 1307.36 1449.92 1306.46 1444.35 L 1306.62 1444.4 C 1306.26 1444.43 1304.02 1445.74 1303.15 1446.09 L 1305.35 1441.87 z" fill="rgb(222,36,37)" transform="translate(0,0)"></path>
<path d="M 1293.91 1459.19 C 1301.69 1461 1302.49 1464.15 1312.84 1465.05 L 1314.18 1465.18 L 1313.55 1468.18 C 1302.85 1468.5 1305.55 1467.2 1296.17 1461.17 C 1291.28 1460.85 1284.81 1460.84 1280.36 1460.24 C 1285.42 1458.97 1288.68 1460.43 1293.91 1459.19 z" fill="rgb(248,218,221)" transform="translate(0,0)"></path>
<path d="M 1214.37 1471.02 C 1212.95 1473.51 1217.32 1465.87 1215.83 1468.37 C 1219.34 1462.48 1233.28 1466.53 1233.51 1457.44 C 1233.54 1457.43 1233.58 1457.41 1233.62 1457.4 C 1237.55 1459.34 1235.93 1467.88 1228.5 1465.94 C 1226.63 1465.46 1218.78 1468.4 1216.47 1470.56 L 1214.37 1471.02 z" fill="rgb(248,218,221)" transform="translate(0,0)"></path>
<path d="M 1299 1488.46 C 1294.22 1481 1290.89 1472.48 1287.88 1464.17 C 1295.29 1474.04 1295.81 1474.84 1300.96 1486.14 L 1299 1488.46 z" fill="rgb(248,218,221)" transform="translate(0,0)"></path>
<path d="M 1295.7 1449.4 C 1296.83 1448.2 1302.52 1443 1303.88 1441.81 L 1305.35 1441.87 L 1303.15 1446.09 C 1300.83 1448.16 1298.38 1450.06 1295.97 1452.03 L 1295.7 1449.4 z" fill="rgb(232,85,97)" transform="translate(0,0)"></path>
<path d="M 1235.13 1495.07 C 1235.85 1491.7 1236.3 1480.49 1237.64 1483.74 C 1238.37 1485.52 1237.92 1495.14 1238.08 1498.27 C 1236.8 1496.64 1236.65 1496.32 1235.13 1495.07 z" fill="rgb(238,172,179)" transform="translate(0,0)"></path>
<path d="M 1277.18 1423.81 C 1277.97 1427.65 1277.19 1435.15 1279.73 1435.95 C 1278.84 1439.13 1278.87 1439.74 1277.48 1442.68 L 1277 1443.81 C 1277.06 1437.32 1276.95 1430.21 1277.18 1423.81 z" fill="rgb(238,172,179)" transform="translate(0,0)"></path>
<path d="M 1251.31 1428.64 C 1252.08 1428.37 1252.85 1428.1 1253.62 1427.84 C 1254.48 1434.61 1252.61 1436.42 1251.31 1428.64 z" fill="rgb(232,85,97)" transform="translate(0,0)"></path>
<path d="M 1256.31 1499.1 L 1260.14 1500.17 C 1259.51 1507.12 1257.74 1502.59 1256.31 1499.1 z" fill="rgb(222,36,37)" transform="translate(0,0)"></path>
<path d="M 1295.7 1449.4 L 1295.97 1452.03 C 1294.84 1453.16 1293.7 1454.28 1292.55 1455.38 L 1291.94 1453.88 C 1293.2 1452.22 1294.32 1450.98 1295.7 1449.4 z" fill="rgb(238,172,179)" transform="translate(0,0)"></path>
<path d="M 1252.78 1488.64 C 1255.61 1490.78 1255.22 1491.5 1255.76 1495.37 C 1252 1495.72 1252.68 1493.95 1252.8 1490.51 L 1252.78 1488.64 z" fill="rgb(238,172,179)" transform="translate(0,0)"></path>
<path d="M 199.103 1664.29 C 202.362 1659.12 205.785 1652.62 212.222 1650.59 C 226.994 1645.95 240.801 1659.42 242.904 1673.44 C 245.132 1688.29 236.245 1704.34 235.416 1719.14 C 232.94 1739.14 235.82 1767.61 232.495 1786.08 L 232.858 1787.99 C 224.282 1788.39 216.402 1788.88 207.761 1789.14 C 202.5 1788.58 193.806 1788.69 188.394 1788.72 C 190.569 1788.11 194.137 1787.84 195.714 1786.74 C 195.589 1765.22 196.08 1740.2 194.412 1718.99 C 192.046 1688.9 171.006 1673.99 205.072 1652.2 C 202.255 1657.14 199.658 1658.84 199.103 1664.29 z" fill="rgb(66,81,90)" transform="translate(0,0)"></path>
<path d="M 205.072 1652.2 C 202.255 1657.14 199.658 1658.84 199.103 1664.29 C 195.984 1683.94 205.072 1701.62 206.539 1721.61 C 208.115 1743.07 207.984 1764.56 207.204 1786.03 C 202.125 1786.01 200.568 1785.78 195.714 1786.74 C 195.589 1765.22 196.08 1740.2 194.412 1718.99 C 192.046 1688.9 171.006 1673.99 205.072 1652.2 z" fill="rgb(215,133,59)" transform="translate(0,0)"></path>
<path d="M 232.495 1786.08 L 232.858 1787.99 C 224.282 1788.39 216.402 1788.88 207.761 1789.14 C 202.5 1788.58 193.806 1788.69 188.394 1788.72 C 190.569 1788.11 194.137 1787.84 195.714 1786.74 C 200.568 1785.78 202.125 1786.01 207.204 1786.03 C 211.813 1786.06 229.312 1785.33 232.495 1786.08 z" fill="rgb(247,245,246)" transform="translate(0,0)"></path>
<path d="M 213.372 1659.23 C 218.585 1656.98 224.644 1659.23 227.123 1664.34 C 229.601 1669.45 227.622 1675.6 222.63 1678.3 C 219.197 1680.16 215.02 1679.99 211.754 1677.85 C 208.489 1675.71 206.664 1671.94 207.002 1668.05 C 207.34 1664.16 209.787 1660.77 213.372 1659.23 z" fill="rgb(247,245,246)" transform="translate(0,0)"></path>
<path d="M 214.717 1663.6 C 216.599 1662.44 218.963 1662.41 220.872 1663.52 C 222.78 1664.63 223.924 1666.7 223.85 1668.91 C 223.776 1671.12 222.496 1673.1 220.517 1674.08 C 217.643 1675.51 214.158 1674.42 212.606 1671.61 C 211.053 1668.8 211.984 1665.27 214.717 1663.6 z" fill="rgb(66,81,90)" transform="translate(0,0)"></path>
<path d="M 1265.21 1394.42 C 1281.4 1394.79 1291.44 1398.49 1304.24 1408.01 C 1297.15 1406.28 1289.71 1402.47 1282.53 1400.96 C 1223.5 1388.15 1152.27 1453.3 1176.52 1513.26 C 1191.1 1549.29 1249.8 1564.64 1282.18 1546.1 C 1288.03 1542.75 1293.97 1536.71 1299.41 1534.31 L 1299.9 1535.52 C 1261.49 1621.42 1163.37 1588.42 1157.72 1505 C 1154.72 1460.7 1183.56 1422.33 1222.43 1403.72 C 1236.67 1396.91 1249.71 1395.28 1265.21 1394.42 z" fill="rgb(66,81,90)" transform="translate(0,0)"></path>
<path d="M 1006.25 1663.12 C 1015.42 1650.23 1024.98 1644.03 1038.96 1654.95 C 1058.54 1670.25 1043.72 1699.56 1041.4 1719.36 C 1038.91 1740.61 1042.01 1764.36 1038.93 1784.99 L 1014.07 1785.19 L 1000.94 1785.74 C 1001.17 1764.53 1002.41 1736.21 1000.61 1715.52 C 998.007 1685.51 976.341 1672.69 1013.6 1650.97 C 1010.99 1653.96 1005.16 1659.22 1006.25 1663.12 z" fill="rgb(66,81,90)" transform="translate(0,0)"></path>
<path d="M 1013.6 1650.97 C 1010.99 1653.96 1005.16 1659.22 1006.25 1663.12 C 1001.77 1684.86 1012.52 1702.82 1013.7 1724.97 C 1014.78 1745.23 1014.41 1764.94 1014.07 1785.19 L 1000.94 1785.74 C 1001.17 1764.53 1002.41 1736.21 1000.61 1715.52 C 998.007 1685.51 976.341 1672.69 1013.6 1650.97 z" fill="rgb(215,133,59)" transform="translate(0,0)"></path>
<path d="M 1019.75 1659.54 C 1023.37 1658.05 1027.5 1658.67 1030.53 1661.14 C 1033.56 1663.6 1034.99 1667.53 1034.27 1671.37 C 1033.54 1675.21 1030.78 1678.34 1027.06 1679.54 C 1021.61 1681.29 1015.75 1678.42 1013.79 1673.05 C 1011.83 1667.67 1014.46 1661.71 1019.75 1659.54 z" fill="rgb(247,245,246)" transform="translate(0,0)"></path>
<path d="M 1022.35 1663.55 C 1025.3 1662.68 1028.42 1664.27 1029.43 1667.18 C 1030.44 1670.09 1028.99 1673.28 1026.14 1674.42 C 1024.17 1675.22 1021.92 1674.86 1020.29 1673.5 C 1018.66 1672.14 1017.91 1669.99 1018.34 1667.91 C 1018.77 1665.83 1020.31 1664.15 1022.35 1663.55 z" fill="rgb(66,81,90)" transform="translate(0,0)"></path>
<path d="M 1812.25 1659.29 C 1822.38 1647.08 1830.54 1645.92 1844.98 1656.04 C 1850.84 1660.14 1853.19 1669.9 1853.54 1676.4 C 1854.3 1689.41 1846.42 1707.76 1845.52 1719.93 C 1843.96 1740.82 1844.55 1764.7 1844.85 1785.73 C 1836.33 1785.76 1827.49 1785.66 1819 1785.86 L 1805.89 1785.91 C 1807.7 1764.44 1807.35 1734.47 1804.64 1712.84 C 1802.65 1702.55 1797.51 1692.52 1796.42 1682.09 C 1795.68 1675.02 1804.24 1654.36 1812.5 1655.36 L 1812.25 1659.29 z" fill="rgb(66,81,90)" transform="translate(0,0)"></path>
<path d="M 1805.89 1785.91 C 1807.7 1764.44 1807.35 1734.47 1804.64 1712.84 C 1802.65 1702.55 1797.51 1692.52 1796.42 1682.09 C 1795.68 1675.02 1804.24 1654.36 1812.5 1655.36 L 1812.25 1659.29 C 1807.65 1677.2 1811.94 1690.17 1815.68 1707.88 C 1821.09 1733.44 1817.24 1760.24 1819 1785.86 L 1805.89 1785.91 z" fill="rgb(215,133,59)" transform="translate(0,0)"></path>
<path d="M 1825.43 1658.4 C 1831.22 1657.04 1837.02 1660.61 1838.43 1666.38 C 1839.83 1672.16 1836.32 1677.99 1830.56 1679.45 C 1824.72 1680.92 1818.8 1677.36 1817.38 1671.51 C 1815.95 1665.66 1819.57 1659.77 1825.43 1658.4 z" fill="rgb(247,245,246)" transform="translate(0,0)"></path>
<path d="M 1826.57 1662.91 C 1829.43 1662.36 1832.27 1663.96 1833.26 1666.7 C 1834.26 1669.44 1833.11 1672.5 1830.56 1673.9 C 1828.51 1675.03 1825.99 1674.85 1824.13 1673.44 C 1822.27 1672.03 1821.41 1669.66 1821.93 1667.38 C 1822.46 1665.11 1824.28 1663.36 1826.57 1662.91 z" fill="rgb(66,81,90)" transform="translate(0,0)"></path>
<path d="M 1013.92 50.4921 C 1029.74 45.9015 1041.96 50.9528 1046.22 67.5484 C 1051.39 87.6496 1039.81 106.687 1039.66 126.819 C 1039.14 145.785 1038.73 164.42 1039.12 183.273 C 1031.51 183.148 1021.58 183.813 1013.73 184.158 C 1009.77 184.43 1005.52 184.018 1001.84 185.219 C 1000.35 162.795 1001.84 140.428 1000.09 118.268 C 998.464 109.01 995.665 99.4946 993.239 90.4276 C 988.54 72.8697 993.73 54.2271 1013.92 50.4921 z" fill="rgb(66,81,90)" transform="translate(0,0)"></path>
<path d="M 1001.84 185.219 C 1000.35 162.795 1001.84 140.428 1000.09 118.268 C 998.464 109.01 995.665 99.4946 993.239 90.4276 C 988.54 72.8697 993.73 54.2271 1013.92 50.4921 C 994.052 71.9136 1010.08 92.5835 1012.2 117.32 C 1014.08 139.155 1013.63 162.169 1013.73 184.158 C 1009.77 184.43 1005.52 184.018 1001.84 185.219 z" fill="rgb(215,133,59)" transform="translate(0,0)"></path>
<path d="M 1020.53 58.2106 C 1026.2 56.5161 1032.17 59.7647 1033.83 65.4494 C 1035.48 71.1341 1032.2 77.0813 1026.5 78.7016 C 1020.86 80.307 1014.98 77.0563 1013.33 71.4238 C 1011.69 65.7914 1014.9 59.8895 1020.53 58.2106 z" fill="rgb(247,245,246)" transform="translate(0,0)"></path>
<path d="M 1019.77 63.5812 C 1021.44 62.3415 1023.65 62.0995 1025.55 62.9483 C 1027.45 63.7971 1028.75 65.6046 1028.94 67.6762 C 1029.13 69.7477 1028.19 71.7609 1026.47 72.9422 C 1023.89 74.7256 1020.35 74.1079 1018.52 71.5541 C 1016.7 69.0002 1017.25 65.4527 1019.77 63.5812 z" fill="rgb(66,81,90)" transform="translate(0,0)"></path>
<path d="M 1815.11 53.137 C 1834.47 40.4182 1853.43 57.4066 1851.75 78.0145 C 1850.45 94.0916 1844.9 108.962 1843.35 125.223 C 1841.55 144.219 1844.8 165.849 1843.13 184.304 C 1834 183.981 1826.41 184.565 1817.4 184.959 C 1813.82 185.036 1808.83 184.715 1805.59 185.2 C 1804.79 178.976 1805.33 170.065 1805.25 163.45 C 1804.95 138.836 1806.8 120 1799.16 96.2756 C 1796.2 88.2619 1794.62 83.4963 1795.28 74.751 C 1797.37 66.9036 1804.55 52.6136 1813.64 51.5266 L 1815.11 53.137 z" fill="rgb(66,81,90)" transform="translate(0,0)"></path>
<path d="M 1795.28 74.751 C 1797.37 66.9036 1804.55 52.6136 1813.64 51.5266 L 1815.11 53.137 C 1809.25 59.3136 1809.85 59.2037 1807.83 67.1084 C 1808.81 87.346 1813.91 99.2153 1816.21 117.448 C 1818.61 136.481 1817.69 165.54 1817.4 184.959 C 1813.82 185.036 1808.83 184.715 1805.59 185.2 C 1804.79 178.976 1805.33 170.065 1805.25 163.45 C 1804.95 138.836 1806.8 120 1799.16 96.2756 C 1796.2 88.2619 1794.62 83.4963 1795.28 74.751 z" fill="rgb(215,133,59)" transform="translate(0,0)"></path>
<path d="M 1799.16 96.2756 C 1796.2 88.2619 1794.62 83.4963 1795.28 74.751 L 1795.95 76.9033 C 1798.71 85.6342 1803.21 81.2853 1799.16 96.2756 z" fill="rgb(220,145,77)" transform="translate(0,0)"></path>
<path d="M 1807.83 67.1084 C 1806.3 54.8588 1807.06 59.8631 1813.64 51.5266 L 1815.11 53.137 C 1809.25 59.3136 1809.85 59.2037 1807.83 67.1084 z" fill="rgb(247,245,246)" transform="translate(0,0)"></path>
<path d="M 1824.34 57.5379 C 1830.15 56.1113 1836.02 59.6637 1837.44 65.4718 C 1838.87 71.2799 1835.31 77.1435 1829.5 78.5674 C 1823.7 79.9909 1817.84 76.4385 1816.41 70.6323 C 1814.99 64.8261 1818.54 58.9641 1824.34 57.5379 z" fill="rgb(247,245,246)" transform="translate(0,0)"></path>
<path d="M 1824.22 62.5542 C 1826.14 61.5132 1828.48 61.6065 1830.31 62.7972 C 1832.15 63.9879 1833.18 66.0857 1833.02 68.2656 C 1832.85 70.4455 1831.5 72.3588 1829.51 73.2532 C 1826.58 74.5667 1823.13 73.328 1821.71 70.4493 C 1820.29 67.5706 1821.4 64.0828 1824.22 62.5542 z" fill="rgb(66,81,90)" transform="translate(0,0)"></path>
<path d="M 198.206 64.0914 C 202.131 56.8612 204.28 52.0259 212.732 49.5445 C 225.99 45.6523 239.415 57.754 242.081 70.0418 C 245.324 84.9904 236.996 100.183 234.918 114.824 C 232.217 137.074 235.129 162.244 232.963 184.449 L 207.031 183.86 L 195.488 183.849 C 194.723 162.905 195.835 141.631 194.573 120.753 C 193.057 95.6679 172.877 70.6664 201.512 52.643 L 201.661 53.7937 C 199.423 58.1088 198.279 59.4186 198.206 64.0914 z" fill="rgb(66,81,90)" transform="translate(0,0)"></path>
<path d="M 195.488 183.849 C 194.723 162.905 195.835 141.631 194.573 120.753 C 193.057 95.6679 172.877 70.6664 201.512 52.643 L 201.661 53.7937 C 199.423 58.1088 198.279 59.4186 198.206 64.0914 C 196.702 85.8225 204.542 100.68 206.259 120.321 C 207.905 139.144 207.104 164.544 207.031 183.86 L 195.488 183.849 z" fill="rgb(215,133,59)" transform="translate(0,0)"></path>
<path d="M 212.64 58.4639 C 218.016 55.7831 224.547 57.9412 227.268 63.2971 C 229.989 68.653 227.879 75.2006 222.543 77.9607 C 217.151 80.7499 210.52 78.6131 207.771 73.2008 C 205.021 67.7886 207.207 61.1729 212.64 58.4639 z" fill="rgb(247,245,246)" transform="translate(0,0)"></path>
<path d="M 215.776 62.3795 C 218.88 61.4069 222.191 63.1001 223.22 66.1859 C 224.248 69.2718 222.615 72.6128 219.549 73.6971 C 217.515 74.4161 215.251 73.9813 213.629 72.5599 C 212.006 71.1384 211.277 68.9518 211.722 66.8412 C 212.168 64.7305 213.718 63.0245 215.776 62.3795 z" fill="rgb(66,81,90)" transform="translate(0,0)"></path>
<path d="M 601.446 1553.46 C 644.307 1552.49 688.258 1553.46 731.175 1553.8 L 775.302 1554.12 C 782.017 1554.15 796.145 1552.71 801.028 1556.47 C 802.126 1559.91 802.038 1558.17 800.97 1561.88 C 795.65 1565.55 745.395 1563.93 735.293 1563.94 L 591.275 1563.58 L 323.25 1563.69 C 301.115 1563.53 125.137 1564.34 119.776 1559.45 C 123.316 1557.8 128.665 1557.23 132.621 1557.17 C 288.771 1554.81 445.358 1556.91 601.446 1553.46 z" fill="rgb(66,81,90)" transform="translate(0,0)"></path>
<path d="M 886.387 844.688 C 902.674 850.163 913.57 848.519 930.142 845.798 C 949.514 873.336 966.87 902.513 990.496 926.977 C 995.708 932.374 1009.2 941.472 1012.59 947.076 L 1011.55 948.978 C 1008.98 950.867 1005.55 952.922 1002.4 953.36 C 949.936 960.639 895.715 885.703 886.387 844.688 z" fill="rgb(215,133,59)" transform="translate(0,0)"></path>
<path d="M 1147.11 837.884 C 1149.98 838.062 1160.42 850.323 1163.53 853.38 C 1186.84 876.289 1211.38 900.913 1240.95 915.419 C 1226.52 928.451 1218.29 936.407 1198.08 932.533 C 1159.17 916.377 1129.51 881.486 1100.88 851.447 C 1119.3 848.845 1130.58 846.053 1147.11 837.884 z" fill="rgb(215,133,59)" transform="translate(0,0)"></path>
<path d="M 283.527 1602.01 C 296.321 1600.73 310.164 1601.01 323.107 1600.78 C 345.282 1600.3 367.46 1599.93 389.639 1599.69 C 456.036 1598.2 522.449 1597.49 588.863 1597.58 L 798.813 1596.5 C 861.153 1595.63 923.666 1594.63 986.021 1594.68 C 990.196 1594.68 991.934 1594.32 994.686 1596.53 C 994.722 1599.82 995.187 1598.35 993.067 1601.04 C 985.878 1604.1 837.749 1602.98 818.317 1603.15 L 569.207 1605.61 C 505.351 1606.9 441.479 1607.27 377.612 1606.7 C 344.723 1606.5 307.522 1606.72 274.976 1605.13 C 278.138 1603.69 282.405 1603.58 283.527 1602.01 z" fill="rgb(66,81,90)" transform="translate(0,0)"></path>
<path d="M 798.327 738.665 C 798.394 738.73 808.765 757.475 812.298 761.787 C 837.644 792.719 905.204 827.023 943.805 832.136 C 934.955 834.365 927.336 836.406 918.253 837.668 C 907.419 839.631 882.217 835.71 870.88 834.203 C 872.97 837.577 874.542 839.259 873.642 843.086 C 873.047 843.512 871.73 844.546 871.096 844.5 C 830.646 841.554 787.998 813.12 790.501 768.093 C 791.18 755.876 791.879 749.631 798.327 738.665 z" fill="rgb(215,133,59)" transform="translate(0,0)"></path>
<path d="M 855.001 1619.5 C 876.999 1618.99 1067.04 1617.49 1076.18 1622.12 C 1070.75 1626.93 1017.53 1626.27 1007.98 1626.42 C 976.353 1627.05 944.726 1627.48 913.096 1627.71 L 620.75 1629.32 C 563.554 1629.98 506.352 1630.1 449.154 1629.68 C 434.835 1629.5 417.598 1629.57 403.229 1628.8 C 401.833 1628.72 402.019 1628.25 401.179 1626.81 C 405.363 1623.31 478.297 1624.04 488.783 1623.96 C 525.021 1623.31 561.263 1622.93 597.507 1622.81 C 683.344 1622.24 769.177 1621.14 855.001 1619.5 z" fill="rgb(66,81,90)" transform="translate(0,0)"></path>
<path d="M 347.973 1526.5 C 375.725 1526.23 594.923 1524.54 604.464 1530.91 L 603.713 1532.44 C 600.909 1534.22 597.986 1535.69 594.6 1535.71 C 568.934 1535.83 542.815 1535.73 517.179 1535.71 L 353.25 1535.33 C 325.979 1535.18 104.193 1538.3 95.9176 1533.85 C 94.9125 1530.68 94.8372 1532.16 95.7845 1529.26 C 101.339 1525.93 323.143 1526.64 347.973 1526.5 z" fill="rgb(66,81,90)" transform="translate(0,0)"></path>
<path d="M 814.247 832.633 C 815.923 833.369 826.05 839.569 828.594 840.928 C 848.325 851.466 859.362 853.828 881.103 853.215 C 886.188 875.086 904.977 902.899 919.142 920.095 C 922.503 924.174 932.103 932.949 933.506 935.409 L 932.12 936.987 C 922.346 941.839 911.743 943.033 902.016 937.326 C 868.121 917.443 827.922 868.463 814.247 832.633 z" fill="rgb(215,133,59)" transform="translate(0,0)"></path>
<path d="M 1273.84 1619.45 C 1304.88 1618.31 1338.62 1618.9 1369.86 1618.94 L 1517.04 1619.03 C 1562.34 1618.84 1607.63 1619.29 1652.92 1620.36 C 1662.02 1620.55 1711.31 1620.11 1716.76 1623.88 C 1714.14 1625.84 1677.36 1627.01 1670.39 1627.13 C 1621.73 1629.72 1241.67 1630.83 1228.94 1622.49 C 1238.65 1619.57 1262.3 1619.8 1273.84 1619.45 z" fill="rgb(66,81,90)" transform="translate(0,0)"></path>
<path d="M 462.039 530.461 C 470.662 527.137 478 524.431 487.206 523.247 C 518.575 519.213 569.339 525.372 598.065 536.995 C 602.949 551.206 609.027 562.016 614.207 575.346 C 607.856 576.322 601.124 577.241 594.835 578.374 C 563.797 559.415 500.159 535.607 464.08 533.368 L 462.039 530.461 z" fill="rgb(66,81,90)" transform="translate(0,0)"></path>
<path d="M 458.384 521.689 C 481.49 502.397 508.584 488.466 537.718 480.897 C 548.1 478.112 560.84 475.711 570.692 472.632 C 580.217 485.551 591.216 498.143 600.126 511.364 C 602.919 515.508 599.289 522.531 597.31 526.735 C 555.848 513.087 501.595 505.955 460.246 523.327 L 458.384 521.689 z" fill="rgb(66,81,90)" transform="translate(0,0)"></path>
<path d="M 1564.29 1445.68 C 1611.87 1487.49 1655.53 1532.31 1699.92 1577.47 C 1705.59 1583.24 1711.15 1589.12 1716.56 1595.13 C 1696.33 1587.79 1671.84 1580.74 1652.64 1572.97 C 1622.38 1531.94 1592.72 1490.47 1563.69 1448.57 L 1564.29 1445.68 z" fill="rgb(66,81,90)" transform="translate(0,0)"></path>
<path d="M 1179.07 810.632 C 1183.49 813.608 1202.02 832.798 1206.72 837.539 C 1229.94 860.597 1252.72 884.086 1275.06 907.995 C 1266.83 910.983 1264.19 912.288 1255.33 910.717 C 1222.24 898.498 1181.93 858.652 1157.22 832.941 C 1168.34 825.734 1171.48 821.359 1179.07 810.632 z" fill="rgb(215,133,59)" transform="translate(0,0)"></path>
<path d="M 1407.09 1306.78 C 1437.19 1317.18 1460.41 1327.64 1491.6 1335.82 C 1510.77 1358.09 1529.22 1386.95 1547.5 1410.37 C 1551.61 1415.64 1562.19 1430.74 1566.19 1434.81 L 1564.52 1435.2 C 1551.88 1426.65 1533.62 1411.63 1521.18 1401.82 L 1438.11 1335.59 C 1427.98 1327.55 1413.72 1315.4 1403.43 1308.32 C 1404.66 1307.81 1405.87 1307.3 1407.09 1306.78 z" fill="rgb(215,133,59)" transform="translate(0,0)"></path>
<path d="M 150.502 1503.45 C 220.634 1501.79 295.123 1502.97 365.599 1503.05 L 453.681 1503.11 C 460.867 1503.1 500.691 1501.96 504.443 1504.32 C 506.538 1507.55 506.236 1505.88 505.676 1509.45 C 499.931 1513.57 461.832 1511.97 452.75 1511.95 L 236.508 1511.04 C 208.376 1510.99 180.245 1510.68 152.118 1510.1 C 135.051 1509.87 113.196 1510.27 96.613 1508.57 L 96.3193 1507.23 C 107.45 1503.05 137.306 1503.83 150.502 1503.45 z" fill="rgb(66,81,90)" transform="translate(0,0)"></path>
<path d="M 479.867 347.5 L 647.733 347.43 C 692.684 347.124 738.208 346.328 783.141 348.711 C 786.448 348.886 789.492 349.349 791.968 351.677 L 791.308 350.858 L 789.021 353.485 L 790.945 352.842 C 780.644 356.556 745.123 356.414 732.426 356.582 C 659.132 354.489 581.477 356.267 507.619 355.568 L 452.627 354.952 C 446.244 354.867 424.035 356.091 420.866 351.452 L 422.021 349.765 C 430.944 346.328 468.173 347.501 479.867 347.5 z" fill="rgb(66,81,90)" transform="translate(0,0)"></path>
<path d="M 602.59 596.106 C 614.149 598.63 622.914 601.014 631.382 610.104 C 650.694 630.833 661.366 657.156 662.443 685.389 C 649.832 704.589 639.509 725.197 631.684 746.794 L 629.797 745.055 C 638.608 683.121 635.628 651.794 602.59 596.106 z" fill="rgb(66,81,90)" transform="translate(0,0)"></path>
<path d="M 1035.6 347.497 L 1041.13 347.434 C 1076.31 346.974 1111.48 347.044 1146.65 347.646 C 1156.15 347.822 1189.32 346.451 1194.95 351.971 L 1194.18 353.857 C 1185.26 357.963 1013.9 355.86 989.5 355.874 C 951.393 356.032 913.286 355.813 875.184 355.217 C 867.311 355.131 830.754 357.019 827.283 351.032 L 828.766 349.009 C 833.217 346.798 1015.51 347.591 1035.6 347.497 z" fill="rgb(66,81,90)" transform="translate(0,0)"></path>
<path d="M 1458.74 347.519 C 1490.76 346.999 1522.79 346.998 1554.81 347.516 C 1562.4 347.637 1591 346.136 1595.07 352.126 L 1594.2 353.733 C 1583.72 357.114 1500.12 356.032 1484.88 355.965 L 1366.44 355.898 L 1272.92 355.371 C 1260.48 355.238 1246.49 355.143 1233.98 354.24 C 1231.52 354.063 1230.93 352.971 1229.92 351.432 C 1235.63 345.896 1299.34 347.605 1312.91 347.606 C 1361.52 347.834 1410.13 347.805 1458.74 347.519 z" fill="rgb(66,81,90)" transform="translate(0,0)"></path>
<path d="M 1840.49 347.5 L 1896.11 347.097 C 1910.52 347.021 1994.18 345.264 2000.77 351.786 L 1999.25 353.531 C 1989.14 356.264 1931.25 356.044 1919.13 356.023 L 1794.5 355.858 C 1758.09 355.893 1721.67 355.658 1685.26 355.151 C 1676.76 355.053 1637.34 356.513 1634.13 350.909 C 1640.88 346.539 1703.15 347.737 1715.41 347.726 L 1840.49 347.5 z" fill="rgb(66,81,90)" transform="translate(0,0)"></path>
<path d="M 205.733 347.5 C 228.537 347.352 372.998 344.979 383.308 351.156 L 383.542 352.812 C 382.848 353.367 382.154 353.922 381.46 354.477 C 328.269 357.905 249.943 355.686 198.5 355.556 C 156.977 355.787 115.454 355.668 73.9329 355.199 C 63.8351 355.064 23.824 356.423 18.8601 351.551 L 19.7198 349.745 C 26.5718 347.413 73.2991 347.779 82.913 347.737 L 205.733 347.5 z" fill="rgb(66,81,90)" transform="translate(0,0)"></path>
<path d="M 1402.81 1595.5 C 1451.64 1594.86 1500.48 1594.65 1549.32 1594.85 C 1564.67 1594.9 1636.52 1593.89 1647.59 1599.1 L 1648.06 1600.53 C 1639.19 1605.07 1549.47 1604.36 1532.74 1604.39 L 1369.24 1603.13 C 1346.26 1602.96 1323.11 1602.73 1300.12 1602.92 C 1296.38 1602.95 1289.85 1602.11 1287.18 1599.17 C 1291.91 1595.97 1389.91 1595.67 1402.81 1595.5 z" fill="rgb(66,81,90)" transform="translate(0,0)"></path>
<path d="M 657.702 1946.52 C 674.875 1946.27 785.66 1944.77 792.974 1949.73 C 786.446 1957.71 712.184 1954.98 697.367 1954.91 L 555.5 1954.67 C 539.95 1954.7 428.06 1954.72 423.106 1951.01 L 423.782 1949.55 C 426.84 1947.89 429.416 1946.9 432.96 1946.86 C 457.41 1946.61 482.194 1946.72 506.61 1946.72 L 657.702 1946.52 z" fill="rgb(66,81,90)" transform="translate(0,0)"></path>
<path d="M 242.881 1946.49 C 261.204 1946.15 373.093 1944.74 384.725 1949.03 L 384.822 1950.35 C 374.42 1956.87 308.338 1955.04 292.84 1954.98 L 161.058 1954.54 L 67.7612 1953.92 C 60.0403 1953.84 22.0997 1954.58 17.78 1950.62 L 18.1527 1949.38 C 18.8814 1948.78 19.6101 1948.17 20.3388 1947.57 C 71.9192 1946.1 200.125 1946.71 242.881 1946.49 z" fill="rgb(66,81,90)" transform="translate(0,0)"></path>
<path d="M 1788.02 1906.5 C 1855.52 1906.12 1923.32 1905.61 1990.8 1907.16 C 1995.37 1907.26 2001.96 1906.8 2005.02 1910.05 L 2004.53 1911.2 C 1994.58 1916.23 1874.55 1914.73 1854.5 1914.73 C 1830.77 1914.79 1645.56 1916.61 1638.62 1911.13 C 1647.75 1905.74 1770.75 1906.58 1788.02 1906.5 z" fill="rgb(66,81,90)" transform="translate(0,0)"></path>
<path d="M 1067.49 1946.5 C 1093.71 1946.29 1119.94 1946.36 1146.16 1946.72 C 1159.55 1946.85 1182.32 1946.4 1194.43 1948.7 L 1195.51 1950.62 L 1194.98 1948.89 L 1195.33 1950.75 C 1182.24 1957.09 1114.88 1955.02 1096.35 1954.93 L 957.25 1954.76 C 927.442 1954.92 897.633 1954.59 867.835 1953.79 C 857.435 1953.54 834.759 1955.02 826.702 1950.38 L 826.664 1949.01 C 834.131 1945.61 897.181 1946.95 910.807 1946.93 L 1067.49 1946.5 z" fill="rgb(66,81,90)" transform="translate(0,0)"></path>
<path d="M 986.656 1906.49 C 1009.43 1906.35 1193.37 1904.92 1199.08 1909.32 L 1199.02 1910.96 C 1193.73 1915.38 1158.79 1914.38 1150.1 1914.53 C 1114.23 1914.8 1078.36 1914.85 1042.5 1914.67 C 988.555 1915.05 934.609 1914.9 880.668 1914.22 C 873.748 1914.11 835.037 1914.72 831.133 1910.68 C 839.697 1905.64 969.434 1906.58 986.656 1906.49 z" fill="rgb(66,81,90)" transform="translate(0,0)"></path>
<path d="M 1853.44 1946.51 C 1872.53 1946.18 1992.1 1944.03 2002.13 1950.53 C 1990.41 1957.49 1812.99 1954.47 1783.5 1954.51 C 1764.2 1954.55 1645.26 1955.53 1635.52 1950.98 L 1635.21 1949.5 C 1640.01 1945.69 1705.29 1946.86 1716.15 1946.84 L 1853.44 1946.51 z" fill="rgb(66,81,90)" transform="translate(0,0)"></path>
<path d="M 1447.59 1946.5 C 1468.41 1946.12 1586.71 1944.25 1596.26 1949.47 L 1596.47 1951.09 C 1594.61 1952.77 1592.95 1953.62 1590.4 1953.75 C 1563.23 1955.21 1535.95 1954.93 1508.81 1954.79 L 1382.5 1954.43 C 1364.58 1954.47 1239.15 1954.95 1231.87 1952.01 L 1231.28 1949.84 L 1232.69 1948.1 C 1238.72 1946.02 1291.94 1946.86 1301.55 1946.85 L 1447.59 1946.5 z" fill="rgb(66,81,90)" transform="translate(0,0)"></path>
<path d="M 157.552 1906.49 C 190.981 1906.28 370.887 1903.63 387.829 1910.09 L 388.051 1911.33 C 375.888 1916.18 274.898 1914.76 254.5 1914.75 L 97.5397 1914.57 C 79.5019 1914.43 36.656 1915.4 21.798 1911.21 L 23.4166 1909.97 L 21.1158 1910.58 L 22.6152 1911.22 L 23.3999 1909.86 C 57.7794 1905.45 121.108 1906.71 157.552 1906.49 z" fill="rgb(66,81,90)" transform="translate(0,0)"></path>
<path d="M 1324.11 1906.5 C 1392.93 1905.96 1461.76 1905.93 1530.59 1906.38 C 1540.28 1906.45 1594.6 1906.17 1600.53 1908.11 L 1601.29 1909.66 L 1600.11 1911.4 C 1591.1 1915.2 1525.53 1914.44 1511.61 1914.52 L 1328.88 1914.2 C 1305.52 1914.08 1257.02 1914.86 1235.83 1912.01 L 1234.9 1910.19 L 1237.55 1912.17 L 1233.28 1910.88 L 1234.24 1911.63 L 1233.34 1911.23 L 1233.43 1910.49 C 1243.87 1906.01 1307.63 1906.69 1324.11 1906.5 z" fill="rgb(66,81,90)" transform="translate(0,0)"></path>
<path d="M 1809.15 307.5 L 1940.86 307.48 C 1953.75 307.569 1991.94 307.242 2003.47 309.374 L 2004.41 310.941 L 2003.15 312.707 C 1989.42 317.959 1854.83 315.675 1831.51 315.626 L 1709.61 315.296 C 1692.15 315.216 1653.96 315.885 1638.58 312.702 L 1638.33 311.685 C 1653.22 306.554 1785.39 307.594 1809.15 307.5 z" fill="rgb(66,81,90)" transform="translate(0,0)"></path>
<path d="M 535.412 307.5 C 595.148 307.026 654.887 306.972 714.624 307.337 C 730.371 307.522 784.695 306.193 797.003 311.203 L 795.3 312.908 L 796.963 311.254 L 797.691 311.943 C 788.555 316.664 703.574 315.306 686.5 315.328 L 506.461 315.138 C 491.524 315.073 437.478 315.528 426.428 312.71 L 425.814 311.609 C 437.132 307.197 517.298 307.636 535.412 307.5 z" fill="rgb(66,81,90)" transform="translate(0,0)"></path>
<path d="M 528.741 1906.48 C 590.113 1905.9 651.488 1905.84 712.861 1906.31 L 764.654 1906.9 C 772.152 1906.99 789.807 1905.89 795.595 1909.2 L 796.044 1910.88 L 794.394 1912.74 C 787.028 1913.73 770.897 1913.81 763.112 1913.98 C 740.841 1914.35 718.567 1914.48 696.293 1914.38 L 523.711 1914.08 C 494.879 1913.96 465.5 1913.76 436.657 1912.9 C 433.191 1912.8 428.772 1912.38 426.452 1909.76 C 431.849 1906.62 515.157 1906.63 528.741 1906.48 z" fill="rgb(66,81,90)" transform="translate(0,0)"></path>
<path d="M 1053.49 307.5 C 1082.76 307.387 1112.03 307.453 1141.29 307.7 C 1150.94 307.79 1193.49 306.872 1198.46 311.251 L 1198.09 312.577 C 1184.91 318.631 1006.26 315.709 975.5 315.734 C 941.791 315.923 908.081 315.736 874.376 315.173 C 862.693 314.936 840.396 314.958 829.401 313.409 L 828.761 311.313 C 834.586 307.505 1027.56 307.59 1053.49 307.5 z" fill="rgb(66,81,90)" transform="translate(0,0)"></path>
<path d="M 1379.75 307.493 C 1428.68 307.188 1477.62 307.189 1526.56 307.496 C 1537.63 307.582 1597.22 306.881 1600.82 310.258 L 1600.37 312.227 C 1593.85 316.576 1560.57 315.241 1550.82 315.327 C 1518.46 315.588 1486.11 315.621 1453.75 315.427 C 1426.69 315.351 1240.42 317.436 1232.65 311.482 L 1232.76 312.411 L 1232.08 311.763 C 1241.91 306.418 1362.2 307.573 1379.75 307.493 z" fill="rgb(66,81,90)" transform="translate(0,0)"></path>
<path d="M 172.446 307.5 C 219.25 307.163 266.056 307.066 312.861 307.209 C 330.452 307.31 372.704 307.078 387.856 310.21 L 389.279 311.63 L 389.045 310.641 L 389.732 311.186 C 382.085 318.18 260.09 315.45 239.5 315.322 L 104.003 315.128 C 81.634 315.097 44.1206 315.89 23.1472 313.019 L 22.8865 311.657 L 21.6449 311.942 L 23.3383 312.958 C 21.3694 312.583 22.053 313.037 21.0477 312.055 C 33.2015 306.861 150.28 307.67 172.446 307.5 z" fill="rgb(66,81,90)" transform="translate(0,0)"></path>
<path d="M 521.692 327.478 C 580.17 326.961 638.651 326.766 697.132 326.891 L 755.006 327.16 C 761.9 327.237 788.062 326.51 791.636 330.757 L 790.911 332.392 C 787.164 334.446 704.923 334.279 693.5 334.356 L 525.567 334.691 C 507.682 334.709 434.993 336.439 423.294 331.635 L 423.57 330.735 C 431.309 329.181 448.392 329.058 456.841 328.815 C 478.455 328.228 500.072 327.783 521.692 327.478 z" fill="rgb(66,81,90)" transform="translate(0,0)"></path>
<path d="M 641.657 1925.5 C 686.649 1925.41 731.629 1925.47 776.602 1926.73 C 780.768 1926.85 785.983 1926.51 789.952 1927.47 L 791.075 1929.37 L 790.215 1931.22 C 783.357 1933.19 746.035 1932.91 735.958 1933.01 L 578.5 1933.36 L 496.906 1933.22 C 480.915 1933.17 441.93 1933.8 428.262 1929.82 C 428.39 1929.75 428.52 1929.69 428.646 1929.63 C 438.658 1924.3 616.884 1925.62 641.657 1925.5 z" fill="rgb(66,81,90)" transform="translate(0,0)"></path>
<path d="M 1728.4 327.48 L 1876.99 326.865 C 1914.62 326.817 1952.43 326.51 1990.03 327.701 C 1994.34 327.837 1997.91 327.438 2000.76 330.533 L 1999.8 332.021 C 1992.77 334.591 1919.72 334.289 1908.69 334.344 L 1740.73 334.672 C 1716.55 334.697 1659.73 335.708 1637.13 332.062 C 1641.97 327.924 1716.34 327.715 1728.4 327.48 z" fill="rgb(66,81,90)" transform="translate(0,0)"></path>
<path d="M 1730.37 1926.5 C 1792.04 1925.72 1853.71 1925.47 1915.37 1925.75 C 1933.91 1925.79 1952.46 1925.94 1971 1926.21 C 1978.57 1926.33 1996 1925.24 2001.82 1929.24 L 2001.73 1930.59 C 1993.92 1933.69 1922.63 1933.19 1908.5 1933.25 L 1737.09 1933.54 C 1720.39 1933.55 1649.31 1934.41 1638.29 1930.93 L 1638.1 1929.81 C 1645.63 1927.05 1718.11 1926.59 1730.37 1926.5 z" fill="rgb(66,81,90)" transform="translate(0,0)"></path>
<path d="M 939.291 327.48 C 1005.89 326.52 1122.25 325.765 1193.27 328.19 C 1194.21 328.222 1194.44 329.56 1194.93 330.726 L 1193.72 332.178 C 1182.17 333.818 1162.93 333.815 1150.73 333.939 L 1088.25 334.347 C 1062.49 334.523 838.101 337.328 830.634 331.144 C 837.97 328.194 927.08 327.695 939.291 327.48 z" fill="rgb(66,81,90)" transform="translate(0,0)"></path>
<path d="M 932.695 1926.5 C 992.084 1925.71 1051.48 1925.42 1110.87 1925.63 C 1133.58 1925.68 1181.38 1924.62 1201.57 1928.47 C 1184.25 1934.4 1113.52 1933.03 1090.5 1933.1 L 925.756 1933.59 C 914.18 1933.58 836.191 1934.59 830.685 1930.62 C 839.156 1926.3 919.341 1926.59 932.695 1926.5 z" fill="rgb(66,81,90)" transform="translate(0,0)"></path>
<path d="M 1329.24 327.513 L 1522.71 326.845 C 1532.96 326.848 1592.61 326.386 1596.8 329.62 L 1596.29 331.426 C 1590.87 334.74 1511.71 334.354 1498.5 334.409 L 1328.05 334.474 C 1300.7 334.43 1251.47 335.637 1226.49 331.789 C 1235.28 329.889 1250.73 329.563 1260.26 329.15 C 1283.24 328.128 1306.23 327.583 1329.24 327.513 z" fill="rgb(66,81,90)" transform="translate(0,0)"></path>
<path d="M 1337.77 1926.51 C 1367.35 1925.96 1585.81 1922.88 1596.41 1928.68 C 1590.18 1934.87 1508.49 1933.17 1493.5 1933.18 C 1464.28 1933.22 1248.38 1935.94 1235.12 1930.14 L 1235.58 1929.2 C 1242.34 1927.76 1259.56 1927.64 1267.32 1927.44 C 1290.8 1926.95 1314.28 1926.65 1337.77 1926.51 z" fill="rgb(66,81,90)" transform="translate(0,0)"></path>
<path d="M 100.38 1926.5 C 164.997 1925.68 229.621 1925.41 294.242 1925.71 C 316.999 1925.79 371.865 1924.99 391.573 1928.35 C 375.417 1934.18 326.057 1932.92 306.5 1933.01 L 120.647 1933.24 L 64.0201 1933.13 C 54.7325 1933.12 29.4658 1934.4 22.3415 1929.87 C 26.9369 1927.13 89.8732 1926.67 100.38 1926.5 z" fill="rgb(66,81,90)" transform="translate(0,0)"></path>
<path d="M 34.6925 329.631 C 67.1581 327.589 371.707 323.849 383.844 329.436 L 384.953 330.908 C 381.351 335.016 313.181 334.178 301.955 334.238 L 168.1 334.614 L 82.6626 334.666 C 70.9429 334.646 42.9282 334.866 31.9207 333.256 L 34.6925 329.631 z" fill="rgb(66,81,90)" transform="translate(0,0)"></path>
<path d="M 1066.16 1202.47 C 1071.94 1205.83 1082.61 1229.35 1090.09 1236.46 C 1114 1259.13 1129.43 1242.83 1148.65 1224.34 C 1148.34 1224.94 1148.03 1225.54 1147.72 1226.15 C 1144.45 1232.5 1140.96 1238.75 1137.27 1244.87 C 1132.91 1252.03 1128.08 1258.89 1122.8 1265.4 C 1119.74 1269.14 1111.26 1278.19 1106.51 1277.76 C 1092.59 1276.5 1082.22 1269.61 1072.98 1260.75 C 1070.62 1239.44 1065.92 1224.96 1066.16 1202.47 z" fill="rgb(215,133,59)" transform="translate(0,0)"></path>
<path d="M 1401.78 1574.55 C 1455.42 1572.62 1510.11 1573.8 1563.75 1575.42 C 1566.54 1575.5 1569.05 1577.13 1571.06 1578.9 L 1571.08 1580.43 C 1566.34 1582.87 1504.52 1582.14 1494.48 1582.16 C 1459.83 1582.14 1425.18 1581.77 1390.53 1581.04 C 1382.24 1580.94 1330 1581.14 1327.7 1578.21 C 1335.37 1574.73 1390.29 1574.84 1401.78 1574.55 z" fill="rgb(66,81,90)" transform="translate(0,0)"></path>
<path d="M 490.971 371.476 C 517.577 371.392 544.184 371.522 570.788 371.865 C 583.69 371.979 612.283 371.71 623.686 374.051 L 624.103 375.16 C 614.781 379.729 569.966 379.17 557.723 379.095 C 541.303 379.016 430.545 381.424 424.953 378.502 L 424.485 376.329 L 426.243 374.409 C 436.148 370.61 477.976 371.584 490.971 371.476 z" fill="rgb(66,81,90)" transform="translate(0,0)"></path>
<path d="M 876.078 1970.47 C 908.128 1970.13 940.181 1970.17 972.229 1970.59 C 981.261 1970.66 1020.96 1971.03 1027.98 1972.85 L 1028.45 1974.16 C 1022.63 1977.55 992.797 1977.7 984.073 1977.99 C 965.46 1977.95 839.396 1980.3 833.48 1978.15 C 831.046 1977.26 829.881 1976.23 828.836 1973.94 L 829.578 1972.89 C 836.079 1969.88 866.515 1970.62 876.078 1970.47 z" fill="rgb(66,81,90)" transform="translate(0,0)"></path>
<path d="M 1368.59 1549.43 C 1373.75 1549.04 1379.85 1549.04 1385.06 1548.99 C 1427.56 1548.63 1470.26 1547.94 1512.73 1550.04 C 1524.93 1550.64 1539.26 1551.05 1551.04 1553.92 L 1549.96 1554.08 C 1537.26 1556.2 1520.54 1556.14 1507.25 1556.54 C 1452.87 1558.68 1398.26 1556.06 1343.92 1554.35 C 1339.41 1554.21 1334.84 1554.7 1330.57 1553.18 L 1330.66 1551.77 C 1332.67 1550.7 1364.13 1549.66 1368.59 1549.43 z" fill="rgb(66,81,90)" transform="translate(0,0)"></path>
<path d="M 464.457 1970.54 C 483.098 1969.8 613.083 1968.72 624.38 1973.02 L 624.27 1973.99 C 615.632 1977.23 595.188 1977 585.25 1977.27 C 571.376 1978.01 554.572 1977.47 540.463 1977.54 L 467.836 1978.08 C 459.81 1978.1 430.38 1981.11 426.241 1974.77 L 427.1 1972.21 C 430.002 1970.21 458.774 1970.6 464.457 1970.54 z" fill="rgb(66,81,90)" transform="translate(0,0)"></path>
<path d="M 1289.42 371.473 C 1319.2 371.161 1348.98 371.272 1378.76 371.803 C 1387.46 371.89 1425.82 371.051 1429.87 374.262 L 1429.5 375.371 C 1421.75 379.364 1384.56 378.876 1374.07 378.938 L 1278.3 379.356 C 1270.89 379.399 1236.68 381.244 1233.09 377.596 C 1233.18 374.12 1232.67 375.611 1234.32 372.859 C 1243.44 371.397 1278 371.631 1289.42 371.473 z" fill="rgb(66,81,90)" transform="translate(0,0)"></path>
<path d="M 74.0515 1970.5 C 91.5005 1970.1 213.064 1968.99 218.025 1974.16 C 213.374 1977.23 174.553 1977.66 165.902 1977.93 L 63.3081 1978.21 C 53.9583 1978.22 29.4105 1980.31 22.3448 1977.32 C 20.2883 1974.55 20.6531 1976.03 21.0074 1972.77 C 24.0362 1970.24 66.7053 1970.6 74.0515 1970.5 z" fill="url(#Gradient2)" transform="translate(0,0)"></path>
<path d="M 1285.06 1970.47 C 1315.1 1970.28 1345.15 1970.3 1375.19 1970.52 C 1390.49 1970.64 1416.37 1970.39 1431.03 1972.81 L 1431.24 1973.53 C 1420.55 1978.29 1390.92 1977.43 1377.75 1977.64 C 1365.55 1977.68 1238.27 1979.63 1233.7 1977.49 C 1232.82 1974.95 1233.11 1974.93 1233.8 1972.25 C 1238.41 1969.56 1276.61 1970.59 1285.06 1970.47 z" fill="url(#Gradient1)" transform="translate(0,0)"></path>
<path d="M 1636.78 372.05 C 1655.48 372.581 1677.78 371.756 1696.8 371.628 C 1725.02 371.554 1753.24 371.652 1781.46 371.923 C 1790.76 371.967 1826.78 371.453 1833.45 373.884 L 1834.07 375.403 L 1831.93 376.83 C 1815 378.394 1641.9 381.457 1637.19 378.653 C 1635.5 375.602 1636.09 376.404 1636.78 372.05 z" fill="rgb(66,81,90)" transform="translate(0,0)"></path>
<path d="M 34.2944 372.537 C 73.9168 371.658 113.551 371.414 153.181 371.803 C 169.529 371.867 210.557 371.016 224.497 374.785 C 216.09 376.967 211.318 377.201 202.546 377.872 C 183.532 378.462 33.4115 382.1 24.3748 379.074 C 22.152 378.329 22.1001 378.371 21.0224 376.172 L 22.6054 374.049 C 26.2535 371.913 29.9005 372.502 34.2944 372.537 z" fill="rgb(66,81,90)" transform="translate(0,0)"></path>
<path d="M 833.527 372.426 C 879.058 371.597 924.598 371.428 970.133 371.918 C 981.002 371.969 1020.78 371.804 1028.48 373.713 L 1028.98 374.994 C 1026.56 377.497 1028.04 376.519 1023.93 377.203 C 966.679 380.699 908.061 378.382 850.655 379.572 C 844.631 379.697 832.643 380.51 829.016 375.691 C 830.477 373.304 830.83 373.533 833.527 372.426 z" fill="rgb(66,81,90)" transform="translate(0,0)"></path>
<path d="M 1695.83 1970.5 C 1713.05 1970.35 1824.27 1969.11 1831.13 1973.94 L 1830.16 1974.21 L 1831.6 1972.97 L 1832.11 1973.96 C 1823.83 1977.5 1786.98 1977.6 1775.87 1977.86 C 1730.85 1977.44 1684.61 1979.39 1639.56 1978.02 C 1637.76 1977.96 1636.95 1975.35 1636.13 1973.84 C 1642.98 1969.37 1685.2 1970.57 1695.83 1970.5 z" fill="rgb(66,81,90)" transform="translate(0,0)"></path>
<path d="M 1394.33 1528.5 C 1434.44 1527.39 1486.24 1527.08 1526.01 1530.2 C 1527.48 1532.14 1527.08 1531.03 1526.71 1533.76 C 1523.29 1536.08 1485.3 1536.7 1478.5 1536.75 C 1448.2 1537.09 1417.89 1536.71 1387.61 1535.63 C 1374.59 1535.25 1350.26 1534.98 1338.43 1532.28 C 1353.26 1527.98 1377.99 1528.72 1394.33 1528.5 z" fill="rgb(66,81,90)" transform="translate(0,0)"></path>
<path d="M 1888.58 1509.46 C 1895.63 1509.14 1911.9 1506.89 1916.04 1512.7 C 1915.73 1515.54 1915.31 1515.48 1913.3 1517.67 C 1907.02 1520.29 1793.85 1518.16 1777.75 1517.97 C 1770.96 1517.98 1754.87 1518.71 1749.71 1515.7 L 1750.35 1514.26 C 1753.84 1512.37 1878.24 1509.77 1888.58 1509.46 z" fill="rgb(66,81,90)" transform="translate(0,0)"></path>
<path d="M 1871.73 1532.54 C 1880.84 1532.22 1910.21 1529.43 1916.14 1534.86 C 1916.69 1537.75 1916.85 1536.38 1915.53 1539.1 C 1908.18 1542.56 1825.11 1540.79 1810.98 1540.66 C 1802.44 1540.5 1773.44 1541.04 1767.75 1537.92 L 1767.62 1536.46 C 1774.1 1533.61 1856.55 1532.78 1871.73 1532.54 z" fill="rgb(66,81,90)" transform="translate(0,0)"></path>
<path d="M 723.849 1733.07 C 731.168 1733.07 738.46 1733.03 745.65 1733.48 C 757.425 1734.22 765.073 1743.93 764.074 1755.5 C 763.413 1763.16 759.072 1766.62 753.763 1771.49 C 748.588 1773.67 733.758 1772.71 727.138 1772.73 L 727.918 1771.86 C 740.903 1757.6 738.285 1744.51 723.849 1733.07 z" fill="rgb(66,81,90)" transform="translate(0,0)"></path>
<path d="M 476.378 1753.04 C 481.551 1733.41 490.039 1733.48 508.704 1734.26 C 511.388 1734.08 514.095 1733.58 516.518 1734.5 L 516.263 1734.26 L 516.518 1734.46 C 516.525 1734.56 516.542 1734.6 516.449 1734.67 C 510.414 1739.28 507.136 1743.22 505.409 1750.89 C 505.175 1751.68 504.94 1752.48 504.706 1753.27 C 507.081 1760.53 508.209 1764.31 513.96 1770.18 C 514.333 1770.56 514.85 1771.17 514.838 1771.74 C 513.546 1772.54 508.909 1772.18 507.298 1772.17 C 486.612 1772.13 483.748 1772.95 476.378 1753.04 z" fill="rgb(215,133,59)" transform="translate(0,0)"></path>
<path d="M 508.704 1734.26 C 511.388 1734.08 514.095 1733.58 516.518 1734.5 L 516.263 1734.26 L 516.518 1734.46 C 516.525 1734.56 516.542 1734.6 516.449 1734.67 C 510.414 1739.28 507.136 1743.22 505.409 1750.89 C 505.175 1751.68 504.94 1752.48 504.706 1753.27 C 507.081 1760.53 508.209 1764.31 513.96 1770.18 C 514.333 1770.56 514.85 1771.17 514.838 1771.74 C 513.546 1772.54 508.909 1772.18 507.298 1772.17 C 493.248 1757.99 489.82 1746.05 508.704 1734.26 z" fill="rgb(66,81,90)" transform="translate(0,0)"></path>
<path d="M 1297.53 1771.98 C 1284.7 1763.63 1277.8 1753.35 1288.85 1739.45 C 1294.85 1731.89 1307.59 1734.02 1316.33 1733.92 C 1314.79 1735.14 1313.41 1736.13 1311.85 1737.28 L 1312.55 1738.67 C 1313.32 1740.29 1314.38 1741.61 1315.5 1742.99 C 1310.6 1753.06 1313.3 1761.36 1320.63 1769.39 C 1321.16 1769.97 1321.61 1770.67 1321.83 1771.42 C 1321.58 1772.61 1316.74 1772.34 1315.98 1772.35 C 1310.81 1772.87 1303.01 1772.2 1297.53 1771.98 z" fill="rgb(215,133,59)" transform="translate(0,0)"></path>
<path d="M 1315.98 1772.35 C 1313.97 1770.94 1311.76 1769.75 1309.93 1768.09 C 1306.12 1764.61 1303.95 1759.67 1303.97 1754.51 C 1303.93 1746.83 1306.59 1742.45 1311.85 1737.28 L 1312.55 1738.67 C 1313.32 1740.29 1314.38 1741.61 1315.5 1742.99 C 1310.6 1753.06 1313.3 1761.36 1320.63 1769.39 C 1321.16 1769.97 1321.61 1770.67 1321.83 1771.42 C 1321.58 1772.61 1316.74 1772.34 1315.98 1772.35 z" fill="rgb(66,81,90)" transform="translate(0,0)"></path>
<path d="M 1954.9 289.75 L 1955.59 293.297 C 1961.41 293.179 1994.07 292.131 1997.18 294.175 L 1998.68 293.994 L 1996.3 293.499 L 1995.45 294.534 C 1942.38 298.179 1883.68 296.71 1830.12 296.383 C 1767.56 296.411 1705.01 295.866 1642.46 294.748 L 1641.36 293.6 C 1647.41 292.853 1659.85 293.263 1666.32 293.278 L 1710.35 293.267 C 1759.35 293.836 1808.36 294.097 1857.36 294.048 C 1876.57 294.057 1906.01 294.935 1924.4 293.713 C 1928.07 292.701 1931.94 293.67 1932.28 290.63 C 1939.77 289.202 1946.43 289.966 1954.08 289.775 L 1954.9 289.75 z" fill="rgb(78,79,81)" transform="translate(0,0)"></path>
<path d="M 1954.9 289.75 L 1955.59 293.297 C 1946.17 293.904 1933.88 293.837 1924.4 293.713 C 1928.07 292.701 1931.94 293.67 1932.28 290.63 C 1939.77 289.202 1946.43 289.966 1954.08 289.775 L 1954.9 289.75 z" fill="rgb(247,245,246)" transform="translate(0,0)"></path>
<path d="M 1460.91 1507.5 C 1468.25 1507.06 1497.83 1505.24 1502.26 1508.39 C 1503.85 1511.74 1503.77 1510.11 1502.88 1513.43 C 1497.05 1516.74 1413.28 1515.43 1401.38 1515.39 C 1393.85 1515.32 1362.85 1515.7 1358.39 1513.24 L 1359.94 1513.51 L 1360.81 1512.29 C 1386.47 1508.92 1433.36 1508.48 1460.91 1507.5 z" fill="rgb(66,81,90)" transform="translate(0,0)"></path>
<path d="M 1194.98 1514.14 C 1233.51 1544.06 1265.27 1540.05 1306.14 1517.89 C 1296.74 1531.59 1279.71 1541.28 1263.49 1544.17 C 1244.57 1547.65 1225.05 1543.44 1209.25 1532.49 C 1201.54 1527.06 1198.06 1522.79 1192.49 1515.53 L 1194.98 1514.14 z" fill="rgb(66,81,90)" transform="translate(0,0)"></path>
<path d="M 1189.23 1891.5 C 1192.06 1891.42 1193.89 1891.62 1196.66 1891.89 C 1183.44 1898.46 876.209 1894.77 838.75 1893.82 C 835.704 1893.84 835.698 1893.79 832.731 1893.01 C 838.778 1891.81 853.878 1892.23 860.813 1892.22 C 878.439 1892.16 896.065 1892.19 913.69 1892.31 C 983.551 1893.22 1053.42 1893.24 1123.28 1892.39 C 1137.59 1892.19 1177.62 1893.15 1189.23 1891.5 z" fill="rgb(78,79,81)" transform="translate(0,0)"></path>
<path d="M 1640.55 1892.5 L 1878.29 1892.95 C 1915.86 1892.91 1967.51 1890.47 2003.26 1892.54 C 1989.61 1897.25 1649.17 1896.14 1640.55 1892.5 z" fill="rgb(78,79,81)" transform="translate(0,0)"></path>
<path d="M 42.4719 1893.86 C 42.0106 1893.91 21.9319 1894.91 25.9955 1892.5 L 25.9432 1892.79 C 28.706 1891.29 102.767 1891.96 110.021 1892.85 L 300.624 1892.92 C 315.929 1892.96 331.234 1892.86 346.537 1892.61 C 355.581 1892.46 373.155 1891.91 381.749 1893.13 C 364.633 1895.48 339.044 1895.47 321.259 1895.48 L 248.198 1895.39 C 180.989 1895.3 109.336 1896.69 42.4719 1893.86 z" fill="rgb(78,79,81)" transform="translate(0,0)"></path>
<path d="M 42.4719 1893.86 C 42.0106 1893.91 21.9319 1894.91 25.9955 1892.5 L 25.9432 1892.79 C 28.706 1891.29 102.767 1891.96 110.021 1892.85 C 91.6295 1894.26 58.1265 1891.43 42.4719 1893.86 z" fill="rgb(137,136,139)" transform="translate(0,0)"></path>
<path d="M 59.0354 294.028 L 293.992 293.903 C 313.147 293.883 332.301 293.644 351.451 293.187 C 359.129 293.067 377.393 292.369 383.638 293.625 L 383.477 294.376 C 364.334 297.258 323.563 296.966 303.397 296.977 C 248.511 297.009 193.625 296.715 138.743 296.096 L 87.9331 295.803 C 81.8452 295.755 67.7079 295.231 62.6049 295.675 C 57.3782 294.21 57.1529 294.463 51.3732 294.512 C 53.9329 294.566 56.4844 294.292 59.0354 294.028 z" fill="rgb(78,79,81)" transform="translate(0,0)"></path>
<path d="M 428.437 293.496 C 444.2 292.607 465.034 293.546 481.282 293.737 L 562.102 293.993 C 636.523 294.097 711.037 293.884 785.46 293.915 C 789.071 293.916 790.569 293.705 793.582 295.454 C 780.839 296.526 758.808 295.995 745.511 296.036 L 654.991 296.262 L 516.335 296.108 C 503.805 296.05 433.766 296.581 428.437 293.496 z" fill="rgb(78,79,81)" transform="translate(0,0)"></path>
<path d="M 1137.49 293.793 C 1153.14 292.04 1177.57 292.801 1193.52 293.105 L 1194.19 293.935 L 1194.54 293.244 L 1195.26 293.7 L 1195.34 293.553 L 1195.38 293.636 C 1193.7 295.149 1164.87 296.029 1160.86 295.978 C 1097.58 296.348 1034.3 296.307 971.019 295.855 C 963.248 295.032 951.164 295.128 942.807 294.67 C 944.421 294.23 950.029 294.047 952.026 293.936 L 1076.65 293.909 C 1095.4 293.896 1119.37 293.059 1137.49 293.793 z" fill="rgb(30,30,32)" transform="translate(0,0)"></path>
<path d="M 1137.49 293.793 C 1153.14 292.04 1177.57 292.801 1193.52 293.105 L 1194.19 293.935 L 1194.54 293.244 L 1195.26 293.7 L 1195.34 293.553 L 1195.38 293.636 C 1193.7 295.149 1164.87 296.029 1160.86 295.978 C 1162.16 295.626 1166.64 295.174 1167.05 294.33 L 1167.08 294.344 C 1157.2 293.753 1147.39 294.55 1137.49 293.793 z" fill="rgb(114,113,115)" transform="translate(0,0)"></path>
<path d="M 1825.23 1553.55 C 1829.27 1553.35 1857.87 1551.72 1859.45 1554.05 C 1868.86 1567.93 1831.27 1561.4 1823.62 1561.13 C 1813.52 1560.85 1803.56 1560.04 1793.48 1559.45 C 1790.43 1559.27 1786.61 1560.08 1785.99 1556.39 C 1788.3 1553.72 1819.45 1553.88 1825.23 1553.55 z" fill="rgb(66,81,90)" transform="translate(0,0)"></path>
<path d="M 1867.58 1569.57 C 1874.14 1569.22 1887.78 1567.89 1894.13 1569.81 C 1896.46 1570.52 1895.38 1576.64 1894.36 1576.71 C 1874.95 1578.1 1854.28 1576.14 1834.48 1575.9 C 1830.12 1575.65 1810.05 1575.12 1807.53 1573.65 C 1798.7 1568.51 1846.81 1572.03 1849.5 1570.18 C 1850.83 1569.26 1864.17 1569.79 1866.73 1569.63 L 1867.58 1569.57 z" fill="rgb(78,79,81)" transform="translate(0,0)"></path>
<path d="M 985.24 1223.43 C 990.923 1225.27 992.114 1227.97 997.282 1230.45 C 1006.49 1234.88 1015.87 1239.51 1025.53 1242.82 C 1028.53 1243.84 1028.47 1243.14 1026.76 1245.2 C 1022.33 1246.25 1017.81 1247.54 1013.35 1248.63 C 998.465 1244.09 989.056 1239.4 985.24 1223.43 z" fill="rgb(215,133,59)" transform="translate(0,0)"></path>
<path d="M 971.019 295.855 C 951.485 297.036 921.538 295.647 901.202 295.813 C 885.323 295.943 846.168 296.355 832.928 293.75 C 839.303 292.804 861.747 293.219 869.752 293.422 C 894.656 294.055 928.031 291.761 952.026 293.936 C 950.029 294.047 944.421 294.23 942.807 294.67 C 951.164 295.128 963.248 295.032 971.019 295.855 z" fill="rgb(114,113,115)" transform="translate(0,0)"></path>
<path d="M 62.6049 295.675 C 50.9712 296.122 36.6009 295.446 24.9381 294.715 C 21.3378 294.489 28.9279 292.88 31.5082 293.122 C 40.1142 293.931 50.4472 292.704 59.0354 294.028 C 56.4844 294.292 53.9329 294.566 51.3732 294.512 C 57.1529 294.463 57.3782 294.21 62.6049 295.675 z" fill="rgb(169,168,169)" transform="translate(0,0)"></path>
<path d="M 274.976 1605.13 C 270.318 1605.14 243.214 1604.22 265.586 1601.96 C 269.729 1601.54 279.39 1601.74 283.527 1602.01 C 282.405 1603.58 278.138 1603.69 274.976 1605.13 z" fill="rgb(30,30,32)" transform="translate(0,0)"></path>
<path d="M 1316.33 1733.92 C 1317.75 1733.89 1323.84 1733.55 1325.05 1734.23 L 1325.13 1734.37 C 1327.6 1730.49 1314.52 1744.09 1315.5 1742.99 C 1314.38 1741.61 1313.32 1740.29 1312.55 1738.67 L 1311.85 1737.28 C 1313.41 1736.13 1314.79 1735.14 1316.33 1733.92 z" fill="rgb(78,79,81)" transform="translate(0,0)"></path>
<path d="M 31.9207 333.256 C 29.9641 333.182 21.1755 333.959 21.0392 331.402 C 22.9192 328.947 31.5269 329.748 34.6925 329.631 L 31.9207 333.256 z" fill="rgb(78,79,81)" transform="translate(0,0)"></path>
<path d="M 1254.51 295.062 C 1252.47 295.202 1235.57 296.202 1236.33 293.563 C 1237.34 292.584 1250.19 293.425 1253.63 293.19 L 1254.21 294.136 L 1254.51 295.062 z" fill="rgb(169,168,169)" transform="translate(0,0)"></path>
<path d="M 1566.19 1434.81 C 1579.58 1444.43 1573 1443.84 1564.52 1435.2 L 1566.19 1434.81 z" fill="rgb(247,245,246)" transform="translate(0,0)"></path>
<path d="M 1185.38 1502.57 C 1188.87 1506.95 1191.01 1509.99 1194.98 1514.14 L 1192.49 1515.53 C 1190.04 1511.87 1187.46 1506.54 1185.38 1502.57 z" fill="rgb(114,113,115)" transform="translate(0,0)"></path>
<path d="M 458.384 521.689 L 460.246 523.327 C 456.372 525.61 452.453 527.818 448.492 529.948 C 451.173 527.506 455.392 523.675 458.384 521.689 z" fill="rgb(137,136,139)" transform="translate(0,0)"></path>
<path d="M 966.409 653.66 C 972.363 659.527 969.501 658.515 963.779 657.374 L 966.409 653.66 z" fill="rgb(78,79,81)" transform="translate(0,0)"></path>
<path d="M 631.684 746.794 C 631.384 748.058 630.855 751.693 629.464 752.309 C 628.133 751.405 629.519 746.259 629.797 745.055 L 631.684 746.794 z" fill="rgb(114,113,115)" transform="translate(0,0)"></path>
<path d="M 1403.43 1308.32 C 1400.11 1304.45 1400.44 1303.25 1405.31 1305.86 L 1407.09 1306.78 C 1405.87 1307.3 1404.66 1307.81 1403.43 1308.32 z" fill="rgb(220,145,77)" transform="translate(0,0)"></path>
<path d="M 1295.98 1187.48 C 1297.18 1188.02 1301.36 1189.44 1302.14 1190.46 C 1301.65 1191.35 1297.77 1191.16 1296.91 1191.18 L 1295.98 1187.48 z" fill="rgb(78,79,81)" transform="translate(0,0)"></path>
<path d="M 1210.05 1222.05 C 1203.84 1219.5 1203.9 1219.09 1210.93 1218.4 L 1210.05 1222.05 z" fill="rgb(220,145,77)" transform="translate(0,0)"></path>
<path d="M 1563.69 1448.57 C 1562.74 1447.21 1561.84 1445.82 1561 1444.39 C 1560.69 1443.87 1560.08 1442.91 1560.73 1442.51 C 1561.89 1442.76 1563.45 1444.77 1564.29 1445.68 L 1563.69 1448.57 z" fill="rgb(114,113,115)" transform="translate(0,0)"></path>
<path d="M 795.732 522.553 C 794.755 521.855 790.745 519.391 790.555 518.389 C 790.686 518.113 790.557 518.278 791.149 517.937 C 792.862 518.044 793.043 518.051 794.676 518.572 L 795.732 522.553 z" fill="rgb(66,81,90)" transform="translate(0,0)"></path>
<path d="M 464.08 533.368 C 460.17 532.906 454.664 532.736 462.039 530.461 L 464.08 533.368 z" fill="rgb(114,113,115)" transform="translate(0,0)"></path>
<metadata><recraft-signature>{"signed_by": "recraft", "signature_b64": "S5GkezuFp09VpSqG27TPMPzucivd6gV6/VrLija6EPszp/+um/9S5e0YOkdoPBCxY24Bs1xJKpYO9wtNsAuFBQ==", "signing_algo": "Ed25519", "generation_timestamp": 1777251038, "identifier": "50424d19-9782-4cf6-b3fe-7cf3000fffd1"}</recraft-signature></metadata></svg>