<svg xmlns="http://www.w3.org/2000/svg" width="1024" height="1024" preserveAspectRatio="none" style="display:block" viewBox="0 0 2048 2048"><defs><linearGradient id="a" x1="1201.72" x2="1192.55" y1="1090.5" y2="1036.97" gradientUnits="userSpaceOnUse"><stop class="stop0" offset="0" stop-color="#5e5e5f"/><stop class="stop1" offset="1" stop-color="#767373"/></linearGradient></defs><path fill="#080604" d="M910.573 577.154c-10.414-1.81-31.118-6.994-26.978-21.693 11.534-12.059 103.424-6.713 119.045-13.365 2.12-10.164-5.644-6.922-5.147-15.068 2.367-38.775 56.027-34.597 53.157 3.392-.08 1.075-5.21 3.852-5.47 9.804.59.762 1.17 1.523 1.75 2.284 5.14.281 17.11.97 21.66 1.232 22.77 1.167 45.49 3.035 68.13 5.603 8.6.937 26.81.606 31.42 7.627-.11 11.552-19.52 17.938-28.96 19.415-.58 10.627 1.5 43.925-1.26 50.189-7.36 16.732-15.39 13.886-20.54 38.101-40.24 29.371-10.12 31.921-6.55 56.304l.18 1.33c33.08 4.458 30.85 12.872 54.71 20.861q.195-3.183.18-6.371c-.07-5.437-1.47-12.544-1.54-17.507-.22-14.335-4.32-7.931-11.86-15.298-1.51-3.005-1.18-3.262-.74-6.562 5.56-7.826 14.3-3.452 17.07-6.791 10.64-12.812 16.44-14.505 32.83-9.513 4.93 1.501 6.34 5.862 8.67 10.837 7.37.046 22.95.49 14.76 13.774-2.8 4.528-10.32 4.345-15.37 4.551-1.62 3.986-3.33 7.971-5 11.939l-9.28 3.376c-1.87 25.601 6.29 15.705 10.83 36.463 22.19 6.177 64.59 21.182 81 38.351 1.93 2.022 4.71 7.642 3.61 10.316-4.92 13.732-17.15 7.125-26.61 9.647-10.79 2.878-25.65 17.374-25.63 29.198.04 19.192 18.52 27.676 29.94 39.7.11 12.641.56 25.276 1.36 37.892 9.8.043 51.3.863 58.34-.828-4.33-13.707 2.68-11.51 2.9-13.829 3.38-35.168 15.46-43.162 46.97-58.043 3.44-7.025 6.5-15.489 15.9-13.456 5.7 3.854 26.26 34.345 23.48 42.708-4.74 5.621-11.79 2.553-14.87 3.981-10.02 4.637-26.71 14.542-33.02 23.456 5.2 3.001 6.24 2.979 7.8 8.62-.37 2.474-.63 2.999-2.35 4.621-.65.615-3.84 4.135-3.87 4.708-1.48 25.124-3.25 57.475-4.25 81.86l-63.8.18c-.68 22.15-9.53 39.82-31.99 46.24-1.89 40.59-9.28 69.24-21.45 108.06 5.53.8 6.9.51 10.06 5.31l2.08 3.15 1.01 1.54c7.2 1.03 37.17 2.14 42.73-.86 1-3.05.89-2.9 2.88-5.4 3.7-2.19 7.65-1.81 12.1-1.99.21-6.22 2.2-24.62-1.97-28.96-10.24-2.72-9.63-3.38-12.9-13.1-5.33-.42-9.37.2-11.71-5.08.19-3.6.03-3.4 1.97-6.4 5.75-2.59 80.77-2.17 84.24.99.39 4 .37 3.78-1.14 7.54-4.22 3.04-6.18.85-10.37 2.67-4.52 1.96-4.18 7.65-6.4 10.9-3.86 1.52-7.82.67-12.1.3l-.19 30.57 6.58-.24c8.29 5.45 25.84 4.76 39.58 15.35 13.54 10.46 22.29 22.69 25.81 40.11 1.21 5.96.5 14.57 1.8 22.23 2.05 1.95 2.26 2.17 3.88 4.49.8 8.9-7.13 16.34-2.61 23.78 5.31 1.1 8.69 1.31 10.72 6.94-.16 3.24-.51 3.1-2.65 5.69-6.1 3.12-51.7.12-61.57.65-2.21.12-3.8-2.36-5.06-4.02-.64-4.23-.83-2.2.78-6.31 2.63-2.33 6.85-2.35 10.54-2.83 5.45-7.26-4.31-14.58-5.48-19.95-1.26-5.72 3.6-5.57 2.8-11.57-.44-3.22-1.3-10.42-4.82-12.23-10.72-4-19.95 6.69-31.87 7.72-15.89 1.36-18.11-9.92-30.12-11.23-2.03-2.39-2.25-6.39-2.78-9.68-13.05.42-30.96-.92-43.1 1.63-.19.27-.39.54-.58.81l-.89 1.19c-5.46 7.43-12.04 5.66-20.36 5.28-9.02 9.92-15.7 15.21-28.77 18.32-15.23 23.26-28.86 33.2-54.22 44.06-.4 2.25-.87 4.49-1.41 6.71-2.73 10.83-9.97 15.71-18.81 20.88-.09 5.47.15 11.05-.02 16.5-.7 22.18 5.51 31.79-21.25 31.94-.56 6.69-.49 14.58-1.96 21.23-.77 3.48-3.18 3.86-6.59 5.71-1.42 4.94-.73 22.14-.63 28.4 20.79.23 23.67 7.26 20.9 27.48 13.98.05 20.98.58 23.44 15.87 8.9.24 59.61-6.2 46.75 14.34-2.83 2-6.68 1.97-10.25 2.34q0 10.47.21 20.94c7.39 9.75 23.8 25.57 32.78 34.6 51.71.5 104.87-.56 156.9-.46-2.98 13.05-5.81 22.95-7.64 36.35 21.98-10.08 54.72-15.5 54.29 24.18-3.65 19.77-23.98 27.85-38.37 34.3-23.49 10.52-48.72 16.71-69.2 30.64l1.79 10.48 164.78-.22c.99-3.54 3.03-8.35 4.4-11.89-47.86-27.65-52.78-75.99-62.18-125.04l30.04.11c24.19-.94 49.71-.22 74.02-.6 6.39-.09 32.76-.4 37.35.43l64.99-.22c-2.51 11.68-5.22 22.27-6.09 34.2 16.61-7.18 34.74-14.53 47.43 3.6 19.17 27.4-9.15 47.57-32.56 55.99-16.97 6.11-33.19 13.72-50.45 19.36-4.41 1.44-15.83 9.17-20.25 11.99 1.28 3.81 2.2 8.06 3.15 11.99l99.39.18c20.04.05 45.69-.58 65.21 1.28-6.18 1.72-12.59 2.03-19.09 2.77-29.22 3.35-64.35 17.57-76.42 46.58-1.58 3.8-2.82 9.2-3.85 13.23l-1228.71.13c-7.336-35.91-35.918-51.43-70.134-58.29-6.782-1.35-17.326-1.19-23.068-3.06l.031-1.28c5.452-2.34 149.917-1.47 167.595-.69.909-4.27 2.278-8.79 3.464-13.02-15.648-11.04-31.488-15.01-48.516-22.73-20.912-9.49-47.128-13.92-57.646-36.75-6.131-13.31 1.189-31.13 14.534-36.36 12.22-4.79 26.872 2.05 37.745 7.26-.987-12.73-3.82-23.92-6.593-36.33 66.046-2.14 138.533.65 205.532-.2-14.47 56.55-5.899 88.93-62.456 124.61l3.698 12.79c48.105-.5 97.383.18 145.586.28 1.71-4.68 3.301-7.92 5.447-12.38a207 207 0 0 1-7.619-4.46c-42.65-26.51-44.674-76.91-54.793-119.5l164.948-.05c10.495-10.22 22.628-22.22 32.021-33.28.033-5.15.568-16.26-1.202-20.42-1.086-.42-5.803-2.29-6.241-2.82-14.105-17.01 15.546-15.41 24.363-14.91 6.763.38 13.709-.01 19.959-.17 1.844-16.36 9.501-15.5 23.611-15-.337-21.17-.24-28.57 22.811-29.14.013-8.75-.035-17.51-.142-26.26l-9.486-2.99q-.591-12.495-.96-24.99c-30.519.43-21.123-25.73-21.384-50.23-16.979-4.74-17.332-10.89-21.459-27.06-1.483-.65-2.96-1.32-4.43-2-37.148-17.27-59.045-49.36-77.796-84.57-9.364-17.59-15.005-35.68-21.836-54.26-3.907 8.8-9.953 18.92-19.713 21.4-20.25 5.15-33.208-23.42-9.572-30.12 5.145-1.46 4.938 5.32 9.352 8.93l1.087-1.03c1.89-11.21-4.289-22.55-10.011-31.8-21.551-34.84-64.888-29.78-95.803-50.74-13.294-9.02-22.546-21.74-25.517-37.84-5.739-33.984 14.283-43.108 29.914-65.905l.971-1.432c-41.024 4.962-31.09-37.882-30.659-66.381-16.524.607-35.422-4.449-30.743-25.653a23.7 23.7 0 0 1 10.463-14.807c14.113-9.011 25.81-.762 33.245 11.797 28.828-7.821 87.501-25.882 97.387 19.82 1.176 5.435.405 10.504 2.259 16.159 2.105.533 3.217.859 5.25 1.611 2.885 7.092-2.33 12.514-2.195 18.781 6.567 1.088 20.11.765 27.272.8.486-10.608 3.396-18.391 3.96-28.303 7.497-9.846 17.926-15.45 23.974-26.703 10.376-19.304-5.157-35.021-21.43-43.572-9.886.271-33.938 2.875-23.868-18.559 3.516-7.482 21.697-16.238 29.323-20.071 17.144-8.617 36.675-15.048 55.456-20.056 1.894-8.903 2.219-12.805 11.282-16.976.043-7.083 1.514-17.013-2.98-21.769-3.211-.337-3.525-.142-6.334-1.86-2.195-3.423-1.894-5.968-2.201-10.211-7.531-.693-19.593-1.833-21.551-10.962 1.796-4.469 6.373-7.681 11.126-7.165 10.048 1.732 7.199-6.266 12.738-9.397 14.065-7.951 28.379-3.304 36.379 8.895 3.527.143 13.393-.144 14.591 3.986 2.715 9.363-4.438 10.795-11.396 12.671-1.418 13.74-2.462 21.892-2.781 35.728 10.63-4.783 22.568-13.433 33.601-18.179 6.282-2.702 11.725-1.887 18.063-4.19l1.381-4.099c2.727-8.159 2.905-8.47 10.687-12.587 5.966-21.781.217-29.804-18.372-40.364-.87-4.853-1.509-10.396-2.197-15.332-25.946-27.105-16.728-37.592-17.169-72.221"/><path fill="#6f6e6f" d="M1455.6 1532.21c24.19-.94 49.71-.22 74.02-.6 6.39-.09 32.76-.4 37.35.43 20.62 1.67 41.52 3.01 62.21 2.39-2.15 7.5-5.64 20.14-6.52 27.52-60.88-1.45-127.38-.01-188.72.07-1.25-9.62-2.96-17.99-5.9-27.21 6.54-.05 21.74.24 27.56-2.6"/><path fill="#da8f48" d="M785.767 894.787c26.842-1.198 55.389-.867 82.353-.931l121.685-.28c-10.834 18.456-1.093 17.65 4.638 30.193-6.587 15.494 6.717 30.861 20.387 36.951 1.41.288 2.63.466 3.74 1.454l.08.224c-.65 1.139-34.168.591-38.09.439l-13.805.189c.64-8.769 11.666-75.836-11.76-58.582-7.37 5.428-.633 51.114-5.939 58.78l-3.696-.341c-8.453 9.631-6.139 10.201-17.399 17.991 5.522 49.326 5.66 101.526 12.542 150.806.499 3.58 4.949 7.39 7.718 9.61q2.13 1.71 4.304 3.36c.537 8.02 1.814 32.7 3.878 39.37 3.959 2.2 2.783.66 4.424 4.08-15.204 12.82-15.965 32.93 3.079 42.31-.136 15.27 2.774 36.71 4.533 52.44l-14.593.04c-15.824-50.92-23.564-102.61-29.804-155.39-1.009-8.54-1.278-26.13-5.62-32.9-6.07-4.56-13.768-1.17-13.365 4.91 4.135 62.53 18.78 124.73 39.325 183.09l-14.776.14c-36.834-56.02-49.307-121.04-62.593-185.21-.681-4.05-9.504-6.28-11.817-3.83-7.262 8.32-.313 29.49 1.951 39.57 12.23 54.46 32.704 103.48 64.055 149.43l-13.05-.01c-35.545-38.18-57.543-82.89-73.788-132.04a397 397 0 0 1-9.336-33.14c-2.341-9.68-2.528-26.04-16.234-24.05-19.288 13.67 38.005 126.9 50.396 143.8 10.829 14.77 26.228 29.42 35.904 43.64l-1.175.73c-1.6-.26-4.282-.66-5.639-1.68-52.877-39.73-88.482-99.42-104.94-162.96-2.685-10.37-4.746-21.54-6.945-32.06 27.866.63 55.779.07 83.653.14 16.734.05 34.611 1.41 51.233-.28 3.121-.31 5.959-1.03 8.363-3.21 4.158-3.76 5.485-10.39 5.79-15.73.369-6.46-.465-16.06-5.835-20.59-6.623-5.59-128.312-3.81-146.71-3.04-.244-35.89 2.585-113.147 12.878-147.433"/><path fill="#c68042" d="M1014.83 960.72c1.41.288 2.63.466 3.74 1.454l.08.224c-.65 1.139-34.168.591-38.09.439 8.794-1.017 29.02.802 34.27-2.117"/><path fill="#080604" d="M795.492 923.346c-.462-7.394-.228-13.621 4.932-19.437a20.46 20.46 0 0 1 14.224-6.936c4.035-.231 8.18.796 11.238 3.538a15 15 0 0 1 4.886 11.051c.01 6.454-1.874 15.014-3.096 21.42-3.983 20.883-4.631 42.125-7.077 63.177 3.032 4.561 3.724 10.611 2.323 15.881a20.6 20.6 0 0 1-10.689 13.09c-14.808 7.32-27.235-5.78-24.408-19.65 2.527-12.398 4.446-72.551 7.829-78.374z"/><path fill="#6e593c" d="M795.492 923.346c4.787 2.085 6.709 2.898.162 3.76z"/><path fill="#da8f48" d="M791.923 994.775c14.11 3.042 4.652 1.822 6.164 14.685.447 3.81 4.519 6.54 8.219 5.01 8.869-3.66 2.054-8.79 3.016-14.541.96-3.374-1.579-4.257-.701-5.222.674.085 1.322.809 1.305.808 5.237.341 5.455.417 9.342 3.819 2.524 12.376-1.017 24.116-15.255 23.996-17.619-.15-14.238-17.03-12.09-28.555m16.986-94.695c4.44-.173 7.77-.558 11.888 1.469 3.724 2.106 5.163 3.441 6.612 7.202 2.838 7.366-1.684 22.143-9.726 19.197-1.198-.439 1.44-11.41 1.929-14.944-5.646-5.691-9.937-5.797-11.528 3.503-1.17 6.838 1.642 8.015-7.092 6.566-4.307-.715-3.189-5.096-2.647-8.074 1.567-8.189 3.68-10.747 10.564-14.919m-11.407 28.762c10.65 1.072 10.084.457 8.483 10.9-.899 5.861-1.048 11.312-2.227 17.234-1.528.134-7.351 1.04-8.347.667-.459-.718 1.812-25.895 2.091-28.801m21.719 34.142c2.913 1.223-1.353 21.258-.95 25.026.508 4.76-1.436 5.07-5.549 5.769a77 77 0 0 0-1.549-1.123c-4.856-3.363-.258-15.055-.451-20.683-.227-6.578 3.297-6.633 8.499-8.989m-24.018-3.129c1.51.519 7.492 1.619 7.806 1.824.302.797-2.611 27.415-3.009 30.234-9.623-.102-7.813 1.04-7.061-8.412.626-7.873 1.583-15.782 2.264-23.646"/><path fill="#c68042" d="M812.285 912.348c.284.132 2.185.88 2.175 1.125-.575 15.117-3.407 31.389-5.379 46.53-1.412 10.842-1.916 23.076-4.112 33.401-.098.005-1.573.16-1.558-.29.781-22.446 4.453-45.678 7.187-68.15.657-5.401.052-7.347 1.687-12.616"/><path fill="#da8f48" d="M816.51 931.542c-.365.089 8.097-1.791 7.084-1.926 1.37 1.304-2.052 25.642-3.102 28.773-.17.506-3.061.504-3.37.522-1.042-.275-2.17-.618-3.236-.762-2.845-3.158 1.629-21.711 2.624-26.607m-14.386 69.808c4.91 2.11 5.665 5.09 5.111 10.25-8.572.82-7.219-2.88-5.111-10.25"/><path fill="#6e593c" d="M813.886 958.149c1.066.144 2.194.487 3.236.762l.17.662c1.082 4.105-4.742 3.795-5.799 3.179-1.073-3.552 3.437-1.084 2.393-4.603"/><path fill="#da8f48" d="M803.998 996.457c2.569-.067 1.524.639.652 1.928-.731.244-1.417.652-1.837.15.071-.886.609-1.344 1.185-2.078"/><path fill="#080604" d="M852.385 900.997c4.588-.101 7.633-.441 11.084 2.729 1.39 2.928 1.499 6.504 1.377 9.762-.784 20.938-2.025 41.772-2.995 62.723-.692 14.947-.803 30.489-2.438 45.369-.32 2.91-1.851 4.38-3.823 6.35-6.229.23-12.081-.17-11.886-8.08.917-37.179 2.556-74.427 4.294-111.581.195-4.156 1.451-4.775 4.387-7.272"/><path fill="#da8f48" d="M852.077 903.856c5.15-.133 6.264-.969 9.25 3.287 1.174 7.742-3.496 111.297-5.785 118.057-4.585.19-6.358.91-8.827-3.18-.674-13.35 2.765-111.058 5.362-118.164"/><path fill="#080604" d="M904.702 901.013c4.93-.054 11.571-.02 11.798 6.968.187 10.478-.814 21.27-1.76 31.734-2.432 26.895-3.623 53.936-6.29 80.785-.231 2.33-1.938 4.83-3.309 6.66-4.422.18-6.634.01-10.25-2.26-3.036-5-1.973-10.86-1.611-17a6373 6373 0 0 1 4.523-70.298c.69-9.928 1.33-20.601 2.361-30.534.314-3.022 2.293-4.057 4.538-6.055"/><path fill="#da8f48" d="M904.361 903.845c4.739.128 5.391-.024 8.397 2.631 2.086 7.068-5.978 111.664-8.669 118.204-4.054-.15-5.449-.47-8.046-3.46-1.35-6.27 6.168-112.432 8.318-117.375m153.429-10.616 207.56.664c1.57 41.927 4.03 105.535 2.34 147.077-23.98.05-47.77 1.85-71.83 1.59-19.58.4-39.13-.31-58.69.59-13.42.61-13.65 12.31-13.43 22.55.19 8.42.63 17.94 11.28 18.73 15.1 1.11 30.54.64 45.72.61l84.69-.24c-3.33 29.28-10.3 54.09-19.09 82.11-2.27-5.97-3.65-13.14-11.2-12.23-12.93 10.5-32.87 69.22-42.18 85.74-6.42 11.37-33.58 45.3-47.06 41.68l-.81-1.15c41.43-45.11 69.16-103.51 86.46-162.25 2.42-8.22 7.73-28.58-7.4-26.29-2.17.3-2.69.76-4.27 2.1-4.4 8.28-4.96 19.98-7.48 29.08-15.73 56.85-41.14 112.19-77.77 158.69l-16.35-.07c31.44-35.88 51.3-103.99 64.21-149.75 2.57-9.1 9.48-32.28 2.52-39.34-14.52-6.26-14.5 12.9-16.2 21.89-1.82 9.19-3.78 18.35-5.87 27.48-5.64 24.65-32.82 126.69-52.97 138.64-2.11 1.26-3.89 1.48-6.29 1.47l-1.66-.78c1.08-13.89 10.67-35.87 14.67-50.8 4.63-17.32 28.21-126.65 20.7-136.06-1.14-1.44-3.18-2.06-4.97-2.07-3.25-.02-6.26.92-8.4 3.49-3.55 4.28-4.81 34.36-5.56 41.02-3.92 34.66-10.47 69.75-16.66 104.09-2.46 13.65-5.77 27.4-7.56 41.13l-14.68.09c.82-10.17 2.82-42.87 5.16-51.65 7.25-4.97 14.51-8.72 16.24-17.97 2.49-13.27-7.64-22.61-19.47-25.36l2.84-2.78c2.69-.01 2.62.18 4.8-1.32 3.6-6.81 3.69-28.96 4.05-37.59 5.79-3.12 12.71-7.41 15.43-13.75 4.49-10.47 3.43-27.95 4.37-38.55 1.75-19.66 4.95-99.317 11.08-112.485-14.26-7.21-10.05-8.803-20.26-18.037-.91-.115-2.88-.335-3.72-.574-7.36-2.106.06-48.018-5.44-57.055-1.78-2.917-4.28-4.476-7.47-5.399-13.92 3.817-6.12 49.915-4.95 62.196-4.9.929-49.38.63-56.34.624 3.1-1.135 9.12-3.674 11.99-4.302 13.1-7.386 19.17-16.139 16.52-31.027-.91-5.127.23-7.403 4.06-10.927 6.19-5.206 2.24-17.106-.66-23.525"/><path fill="#c68042" d="M1025.88 963.01c3.1-1.135 9.12-3.674 11.99-4.302l.26 1.193c.05.222.32 1.5.59 1.532 13.77 1.671 29.89-1.116 43.5.953-4.9.929-49.38.63-56.34.624"/><path fill="#080604" d="M1241.39 897.126c3.17.03 6.17.515 9.14 1.656 4 1.532 8.24 4.835 9.75 8.969 3.76 10.384 4.74 101.199.65 109.509-3.21 6.52-9.36 9.01-15.95 10.95-17.02-2.33-23.85-16.88-14.19-30.8-.38-19.466-.1-38.665-.68-58.421-.25-8.412-3.63-25.911-1.33-33.864 1.13-3.922 8.62-6.806 12.61-7.999"/><path fill="#da8f48" d="M1251.04 996.416c1.27-.034 8.58-1.005 8.84.546.67 4.218 1.15 14.498-1.19 18.258-9.14 14.64-24.54 12.02-29.63-3.5.36-5.04 2.21-14.937 8.94-15.036 7.11-.124 1.12 9.216.77 12.826-.8 8.29 10.61 7.71 12.11 1.45.73-3.04.15-11.03.16-14.544m6.58-72.296 2.26 1.57c.37 16.392.33 48.637-.17 66.184-.02.681-1.45 1.287-1.67 1.32-.68.142-6.36.336-6.46-.464-.43-3.767-.4-27.622.48-29.506 1.29-.727 2.32-.051 3.45-.401 2.66-.827 2.92-5.979-.38-6.385-.35-.043-3.07-.764-3.11-1.462-.44-7.831-1.05-16.238-.8-24.051.05-1.672 4.97.428 5.91-4.365z"/><path fill="#da8f48" d="M1257.62 924.12c-.89.055-6.02.857-6.16.564-1.99-4.247 1.82-14.882-4.94-15.89-5.18-.772-9.05 1.765-6.59 7.226.47 1.115 1.7 8.431.39 9.355-.29.204-3.03-2.771-4.19-.371-.28.597-1.27 3.199-1.93 3.519l.08-.09-.79-.663c-.96-7.114-5.77-14.352-2.08-21.143 5.87-10.801 25.33-7.333 27.31 4.956.76 4.616.88 9.542 1.16 14.107z"/><path fill="#c68042" d="M1243.78 910.602c.34.164 3.61 1.456 3.7 2.919 1.52 26.374 1.96 53.371.03 79.683-.11 1.527-3-.092-3.49-.457-.13-10.374.75-21.547.86-31.899.02-1.945-2.8 1.127-3.68.867l.13-.05c-.62-3.249 1.06-1.776 3.04-2.52 2.4-3.048-1.58-41.549-.59-48.543"/><path fill="#da8f48" d="m1234.09 962.4 1.8-.18c.87.307 5.41 1.614 5.54 2.603.25 1.981-.64 27.437-.66 27.452-3.38 2.4-7.24 1.961-6.99-3.751.35-8.188-.14-17.467.31-26.124m-.48-2.835c.39-4.562-1.06-27.605 1.14-28.849 10.33-5.834 6.02 21.164 6.7 25.343.12.695-4.71 3.154-5.62 3.752z"/><path fill="#c68042" d="M1245.63 995.492c4.37 2.407 3.58 13.768-1.47 18.458-5.27-5.51.18-9 1.47-18.458"/><path fill="#8a725a" d="M1253.25 958.819c1.35-.396.67-.377 1.7.443-1.03.476-1.15.605-1.7-.443"/><path fill="#99683e" d="m1233.61 959.565 2.22.246.06 2.409-1.8.18z"/><path fill="#080604" d="M1186.98 900.902c7.41-.402 12.96-.093 13.21 8.898 1 37.186 1.64 74.487 2.55 111.68.08 3.38-.98 4.1-2.96 6.63-4.25.36-7.17.74-10.77-1.45-1.77-1.89-2.41-3.64-2.48-6.71-.88-37.553-2.77-75.226-3.46-112.726-.03-1.73 2.8-4.993 3.91-6.322"/><path fill="#da8f48" d="M1189.64 902.504c3.41.884 3.25.774 6.15 2.748 4.26 7.059 2.26 100.958 3.91 115.578.3 2.58-1.47 4.12-3.02 5.9-1.65-.46-3.51-1.14-5.16-1.7-1.55-2.08-1.88-1.75-1.97-4.18-.56-14.36-.51-29.115-1.05-43.481l-1.92-46.663c-.3-6.996-.83-15.025-.6-22.007.08-2.497 1.99-4.098 3.66-6.195"/><path fill="#080604" d="M1137.97 900.814c4.02.119 6.3.661 9.27 3.291 4.1 8.642 6.55 102.345 6.75 119.705.03 2.28-2.84 4.1-4.73 5.47-9.12-1.02-10.69-3.17-11.08-12.55-1.15-29.802-3.01-59.598-4.37-89.393-.5-10.777-3.14-18.194 4.16-26.523"/><path fill="#da8f48" d="M1138.59 903.424c2.77.388 3.07.63 5.71 1.708.78.895 1.98 2.293 2.05 3.529 2.13 37.09 4.56 74.467 4.77 111.619.01 2.49-.87 4.02-2.17 5.99-1.89-.41-7.11-1.68-7.09-3.95.13-19.71-9.2-107.266-3.27-118.896M395.006 1698.24l1258.334-.36c-6.13 7.18-9.34 11.48-13.33 19.96-1.39 3.74-2.78 8.7-4 12.6-54.11-1.87-118.65-.23-173.45-.2l-327.02.02-482.06.01c-79.891.03-161.801-1-241.512.26-3.733-16.08-6.247-19.88-16.962-32.29"/><path fill="#6f6e6f" d="M1022.75 965.524c21.07-1.198 57.55.241 80.19.144l.48.866.84 1.42c4.48 7.698 8.04 9.604 15.37 14.309-7.18 47.527-6.94 97.347-12.27 145.107-.8 7.25-8.48 11.87-14.08 15.21-21.51.13-43.02.1-64.53-.08l-74.209-.13c-3.567-2.56-10.046-7.2-11.064-11.46-2.586-10.82-3.055-25.18-3.861-36.15a3396 3396 0 0 1-4.6-62.04c-.992-15.28-1.704-35.354-4.218-50.077 8.836-6.121 10.384-7.848 16.284-16.738 24.451-.746 50.928-.132 75.668-.381"/><path fill="#080604" d="M954.021 976.085c28.212-.846 58.709.356 87.309-.211 10.61-.21 43.97-.775 52.13.307a19.76 19.76 0 0 1 9.93 4.183c3.78 3.049 5.8 7.366 5.56 12.309-1.99 41.757-3.88 84.297-8.85 125.767-.65 5.44-3.99 9.91-7.53 13.77-12.73 5.48-55.72.93-71.71 1.82-18.11-.13-37.556.84-55.539.17-18.154-.68-16.515-21.85-17.149-34.52-1.884-37.69-5.78-76.51-7.587-114.016 4.633-5.125 7.051-7.034 13.436-9.579"/><path fill="#6f6e6f" d="M953.069 979.088c13.798-.878 141.181-1.068 145.421.99 2.99 1.448 5.65 3.589 6.66 6.831 2.82 9.054-4.76 111.261-6.74 124.181-.93 6.03-2.26 11.42-5.27 16.8-.67.55-1.35 1.1-2.03 1.65-2.24 1.7-6.94 2.26-9.82 2.24-16.07-.11-30.34-.27-46.59-.58-24.13-.45-50.094 1.03-74.071-.88-2.591-.21-4.479-2.85-5.79-4.75-1.273-1.85-2.677-7.09-2.658-9.17.168-17.81-9.925-120.219-7.544-130.46 2.959-3.857 4.148-4.238 8.432-6.852"/><path fill="#080604" d="M969.944 1016.16c34.896-.55 77.536-.96 112.176.19-.09 18.07-3.56 51.98-4.86 71.4-.38 1.89.01.93-1.4 2.77-30.8 1.07-69.76.35-100.845.01-.061-23.86-3.848-50.33-5.071-74.37"/><path fill="#d83e38" d="m972.818 1018.99 106.702.04c-1.49 21.9-3.67 44.18-4.67 66.04-.33 1.78.03.83-1.47 2.65-27.87 1.39-66.41-.05-95.327.26-1.313-23.54-3.534-45.64-5.235-68.99"/><path fill="#da8f48" d="m352.134 1671.9 901.846.12 280.1.09 97.73-.27c13.01.02 34.03-.5 46.63.32 1.01-.02 27.79-1.51 20.78 1.64l.03.03c-1.15.34-2.17.53-3.33.74-17.42 5.68-24.12 9.97-39.05 20.38-35.57.63-72.61.11-108.34.12l-219.38-.06-604.418.11H518.428c-41.39.01-84.482-.6-125.743.48-15.204-12.56-26.591-16.53-45.294-21.75z"/><path fill="#c68042" d="M1678.44 1672.16c1.01-.02 27.79-1.51 20.78 1.64l.03.03c-1.15.34-2.17.53-3.33.74-4.53-2.36-10.09-.74-17.48-2.41"/><path fill="#fff" d="M912.011 1515.99c34.057-.67 69.371-.21 103.499-.19 40.33-.11 80.66.04 120.98.44 6.18 5.94 37.61 33.84 39.11 37.91 3.2 8.7 3.38 19.21 5.61 28.31 8.01 32.58 24.77 57.94 53.55 75.24l-4.98 11.47c-54.15.04-110.14-.63-164.06.76-.68-3.43-2.13-7.63-3.19-11.04 4.16-2.8 13.95-9.64 18.3-11.57 24.55-10.88 70.16-20.01 85.49-42.99 3.89-6.16 6.11-14.23 3.79-21.37-9.78-29.99-32.3-20.91-53.78-13.68 2.49-12.1 5.22-21.9 8.58-33.76l-.5-1.44c-4.54-1.79-187.782-.81-205.9-.64 11.806 49.47 11.206 94.84 61.526 123.8l-3.816 12.4c-17.083-1.06-40.226-.48-57.627-.53-36.358-.2-72.718-.09-109.075.34l-1.959-11.84c6.058-3.15 10.843-7.89 17.672-10.95 25.542-11.45 71.276-18.18 86.491-43.38 7.21-11.95 1.316-35.04-12.47-40.14-14.263-5.27-25.888 1.9-38.962 7.28 1.193-6.74 3.496-14.77 5.265-21.52l12.766-1.32c11.21-9.94 21.801-21.15 33.69-31.59"/><path fill="#da8f48" d="M436.912 1564.37c60.729-1.31 125.814-.11 186.947-.24-5.128 28.16-9.004 43.24-26.221 66.32-9.129 11.1-17.685 16.74-29.435 24.51-24.112.57-55.003.16-79.043-.46-32.183-21.86-47.913-51.52-52.248-90.13m1159.578.13 25.16-.23-.13 1.02c-3.44 25.25-13.39 50.6-29.36 70.64-19.84 24.89-38 19.87-66.39 19.66-24.41-.17-33.58 4.93-53.08-11.96-22.06-20.81-33.39-49.39-38.36-78.81 53.64-.72 108.37-.11 162.16-.32m-416.01 1.39c62.02.66 124.95.07 186.99-.06-3.95 23.29-11.16 46.3-24.17 66.16-21.65 28.33-35.45 24.66-67.95 24.25-12.61-.15-26.3-.08-38.97-.09-33.7-19.67-49.7-52.58-55.9-90.26m-508.336-.43c62.039.4 124.08.31 186.118-.26-4.722 26.01-9.46 44.56-24.436 66.32-25.229 31.57-38.486 22.91-75.476 23.91-7.065.19-24.46.8-30.267-1.11-32.433-10.66-53.346-57.94-55.939-88.86m255.294.39 186.202-.25c-5.29 25.84-9.23 42.94-23.89 65.02-8.42 11.3-15.66 17.93-27.68 25.26-23.25.48-51.89.56-75.152-.67-3.918-.21-11.317-3.37-14.592-5.75-28.885-20.98-38.232-51.1-44.888-83.61"/><path fill="#fff" d="M696.176 888.884c5.468 1.386 8.965 1.866 12.767 6.161 3.975 4.49-.799 5.68-1.366 12.838 1.458 4.516 7.038 7.313 7.127 8.209 3.194 32.189 6.094 64.756 8.032 97.048 5.663-.13 16.749-.46 21.929.47 10.481 1.88 14.484 3.27 25.404 3.61-.244 27.51 1.935 51.02 5.491 78.03.621 3.19 1.401 3.97.28 6.29l-1.967-2.71c-21.238-28.15-40.395-38.96-72.093-53.12-14.047-6.55-30.907-16.45-35.916-32.06-9.754-30.393 36.516-49.102 20.388-79.439-5.079-9.552-17.344-22.753-10.533-34.236 3.822-6.443 13.567-9.398 20.457-11.091"/><path fill="#6f6e6f" d="M761.175 804.179c2.277-2.447 3.091-4.264 6.659-4.283 11.49-.06 23.211.038 34.683.083l67.073.07 219.81-.118 130.27-.348c12.91-.04 53.45-.776 64.46.79 3.58 4.197 5.4 12.134-.05 15.295-5.02 2.913-16.12 1.531-22.37 1.507-9.44-.699-26.11-.256-36.18-.268l-68.14-.056c-64.98-.321-129.97-.297-194.953.072-64.287-.806-128.913.737-193.228.084-4.101-.042-5.108-1.605-7.678-4.391-.715-4.026-.635-4.378-.356-8.437"/><path fill="#5a5857" d="M761.531 812.616c-.715-4.026-.635-4.378-.356-8.437.377 3.529.446 4.897.356 8.437"/><path fill="#da8f48" d="m638.599 889.105 45.919-.078c-5.121 3.961-7.882 5.407-11.161 11.445-8.556 15.754 8.741 25.892 12.519 39.674 4.875 17.786-10.684 31.715-18.441 45.905-4.855 8.835-7.39 18.489-4.153 28.309 8.076 24.48 38.098 33.06 58.547 43.8 26.171 13.63 50.145 33.73 59.17 62.81 5.398 14.47 2.191 37.02-15.323 41.48-13.183 3.35-25.962-7.04-16.061-20.7 13.31-8.54 8.028 4.38 14.058 7.98 2.663-.58 3.301-1.51 5.414-3.29 2.564-6.81-.119-11.92-1.915-18.5-18.191-66.7-107.348-37.06-127.958-98.94-11.256-33.799 14.333-48.917 30.476-72.889 5.784-8.589 2.698-25.967-6.615-22.818 2.784 2.665 12.73 10.859 7.011 15.997-11.811 10.566-28.996 5.935-31.194-10.618-2.021-15.219-.973-34.095-.293-49.567m224.309 610.955c106.624-.64 215.982 1.41 322.072-.4 9.1 12.98 20.54 22.86 32.01 33.83l-45.47-.26c1.32 6.35 1.78 8.97 2.19 15.54-4-3.74-7.71-7.95-11.42-11.98-8.48-7.65-16.64-15.74-24.83-23.71-36.7-.77-74.98-.17-111.81-.26-37.521-.1-76.639-.61-114.047.23-7.63 6.28-37.051 38.56-44.023 30.44-.401-3.8 1.663-7.21 3.286-10.8-13.113-.1-26.59.15-39.734.23 11.564-10.85 21.533-20.78 31.776-32.86m-21.061-734.778c29.382 1.963 74.444.435 104.814.311 57.239-.264 114.469-.227 171.709.111l57.76-.007c38.17.015 40.89.621 76.55 15.996-14.26.496-29.83.256-44.18.303l-413.75-.118c14.797-6.207 31.594-13.095 47.097-16.596"/><path fill="#6f6e6f" d="M972.065 547.099c37.735-1.214 76.595-1.899 114.255.168 1.86-.199 1.84-.358 3.47.372l10.54.654c1.43-.159 1.38-.247 2.65.374l10.42.614c1.4-.173 1.34-.255 2.59.36l7.43.667c.98-.139.88-.133 1.78.336l8.2.642c1.44-.228 1.35-.31 2.59.341l6.43.676c.98-.111.89-.105 1.78.341l6.8.594c.91.045 1.04-.028 1.79.306 4.43.46 5.53.508 9.68 1.855.97 1.269 1.86 1.646 1.4 3.197-5.73 19.388-43.44 14.808-59.13 14.903q-37.71.18-75.42-.033c-39.048-.14-78.11-.042-117.149-.384-10.431-.091-21.215-1.603-25.978-12.147.67-7.891 11.471-7.934 17.927-8.634 9.323-1.011 18.751-1.771 28.095-2.608 2.179-1.076 4.455-.666 6.848-.605l24.149-1.371c2.48-1.228 6.006-.706 8.853-.618"/><path fill="#5a5857" d="M963.212 547.717c2.48-1.228 6.006-.706 8.853-.618-3.849.788-4.991 1.162-8.853.618m-30.997 1.976c2.179-1.076 4.455-.666 6.848-.605-3.233.789-3.601 1.11-6.848.605m154.105-2.426c1.86-.199 1.84-.358 3.47.372-1.87.242-1.94.494-3.47-.372m14.01 1.026c1.43-.159 1.38-.247 2.65.374-1.52.134-1.55.321-2.65-.374m33.07 2.993c1.44-.228 1.35-.31 2.59.341-1.49.144-1.54.337-2.59-.341m-20-2.005c1.4-.173 1.34-.255 2.59.36-1.48.126-1.54.317-2.59-.36"/><path fill="#6f6e6f" d="M892.85 1285.49c32.076-.46 65.624.38 97.845.45l164.325-.93c-1.54 8.51-2.54 11.1-7.06 18.21-2.13 2.49-4.91 4.48-7.5 6.53l-143.535-.66c-28.409 0-56.809.19-85.212-.15-14.853-.18-16.986-10.53-18.863-23.45"/><path fill="#da8f48" d="M790.463 784.445c31.728-.475 65.919.455 97.936.533l212.421.054 104.92-.135c16.39-.057 34.63-.567 50.91.301 5.58.297 18.87 8.666 24.52 11.952l-24.42-.157-489.641.321a181 181 0 0 1 23.354-12.869"/><path fill="#6f6e6f" d="m1270.06 929.993 62.01-.194-3.05 78.351-29.49-.05c.4 5.72.39 8.13-.06 13.84-4.39 16.68-11.49 27.81-28.47 33.18.6-41.82-.84-83.376-.94-125.127"/><path fill="#da8f48" d="M927.564 726.273c10.677-.75 25.545-.322 36.473-.321l66.633.038 54.54.047c49.11.093 39.19-.106 80.66 22.936-14.55.917-29.74.619-44.37.563l-238.684.319c11.345-8.373 31.195-19.72 44.748-23.582"/><path fill="#6f6e6f" d="M780.079 1044.44c42.113-2.01 87.91 1.55 130.297.79 16.765-.31 14.377 26.78 4.693 36.46-16.71 1.6-52.342-.26-70.487.5-9.877.41-59.521.49-66.613-.82-3.016-6.1-4.333-28.12-4.181-35.34 1.932-1.73 3.085-1.24 6.291-1.59"/><path fill="#da8f48" d="M868.028 1070.25c2.223 8.99-14.266 3.9-18.394 5.16-18.084 5.55-34.834-16.77-12.634-23.3 5.059-1.49 15.607-.09 20.509-1.15 11.327-2.46 17.157 12.35 10.53 18.36z"/><path fill="#080604" d="M868.028 1070.25c2.223 8.99-14.266 3.9-18.394 5.16-18.084 5.55-34.834-16.77-12.634-23.3 5.059-1.49 15.607-.09 20.509-1.15 11.327-2.46 17.157 12.35 10.53 18.36-.763-.79-1.443-1.52-2.251-2.26l.404-1.95c3.372-15.53-10.89-9.59-20.719-10.64-8.891-.95-21.089 4.65-13.533 14.48a10.48 10.48 0 0 0 7.553 4.01c2.237.17 5.038-.1 7.277-.31 4.059 1.29 17.862 1.35 21.258-2.4"/><path fill="#c68042" d="M858.205 1062.43c1.601-3.08 5.505 3.22 7.583 4.63.808.74 1.488 1.47 2.251 2.26l-.011.93c-3.396 3.75-17.199 3.69-21.258 2.4-2.31-1.28-3.828-1.54-4.303-4.19l-.331-1.56c7.108.76 9.841 2.06 14.911-3.3z"/><path fill="#080604" d="M842.136 1066.9c-4.801-10.66 9.234-11.18 16.069-4.47l-1.158 1.17c-5.07 5.36-7.803 4.06-14.911 3.3"/><path fill="#99683e" d="M844.959 1061.35c3.454-.22 10.074-2.07 7.736 3.18-3.185.27-9.035 1.64-7.736-3.18"/><path fill="#080604" d="M885.946 1051.09c4.829-.15 23.924-.95 26.058 1.37 7.697 8.38 7.188 21.19-5.839 22.96-7.951.39-13.518.51-21.405.15-13.538-9.53-13.439-16.86 1.186-24.48"/><path fill="#da8f48" d="M899.798 1054.02c3.006-.06 12.025-1.3 13.038 2.48 4.772 19.07-5.288 16.24-19.968 16.61-6.807.18-14.795-1.91-14.501-11.09.183-5.7 8.244-7.88 13.096-8.35 3.126.32 5.198.36 8.335.35"/><path fill="#080604" d="M895.041 1056.39c1.721-.43 2.056-.42 3.845-.53.625.39 1.255.78 1.888 1.16 14.106 8.28-.839 13.7-9.199 10.47-9.664-3.74-2.271-8.44 3.466-11.1"/><path fill="#8a725a" d="M889.14 1062.44c4.81-.47 12.667-2.81 14.104 2.17-4.005.3-12.364 2.07-14.104-2.17"/><path fill="#c68042" d="M891.463 1053.67c3.126.32 5.198.36 8.335.35l-.912 1.84c-1.789.11-2.124.1-3.845.53-1.569-1.39-1.856-1.71-3.578-2.72"/><path fill="#080604" d="M790.988 1051.14c9.479-.52 14.469-.68 23.874.01 7.358 5.77 11.004 8.63 5.991 18.87-1.366 2.79-2.847 4.14-5.793 4.97-7.572.03-29.189 2.91-32.443-5.22-4.172-10.42-.212-14.16 8.371-18.63"/><path fill="#c68042" d="M792.888 1054.17c4.722-.21 19.969-1.37 23.434 1.89 5.333 5.01 3.828 16.09-5.514 16.23-2.542.14-20.26.69-21.806-.48-9.006-6.78-6.223-13.79 3.886-17.64"/><path fill="#080604" d="M792.085 1059.23c3.707-.08 24.594-2.66 16.621 6.39l-1.058 1.23c-6.641.26-19.137 3.69-15.563-7.62"/><path fill="#5d432f" d="m796.864 1061.45 2.325.09c3.942.17 7.723-1.74 8.198 2.06-1.831.16-16.02 1.86-10.523-2.15"/><path fill="#6f6e6f" d="M435.71 1561.51c-.861-6.28-5.787-22.27-4.41-26.84 10.324-1.47 40.514-1.15 51.993-1.1l92.052.58c5.822-.69 32.051-.13 38.174.68l16.249-.34c-2.385 8.42-4.286 18.61-5.398 27.3-19.61-1.32-49.065-.32-69.437-.36-39.302-.1-80.052-.78-119.223.08"/><path fill="#5a5857" d="M575.345 1534.15c5.822-.69 32.051-.13 38.174.68-5.42.43-34.08.56-38.174-.68"/><path fill="#6f6e6f" d="m922.019 1535.67 199.981-.05c-2.19 6.52-4.11 13.37-6.05 20-.53 3.15-.49 3.63-1.77 6.65-5.96 2.16-170.588.74-186.618.76a1802 1802 0 0 1-5.543-27.36m-255.71.05c65.488-.52 134.693 1.28 199.565-.27-1.872 7.82-4.321 15.54-6.66 23.24-.074.4-.898 2.36-1.078 2.81-8.577 3.1-163.498 1.03-186.627 1.27-1.749-9.81-3.985-16.44-5.2-27.05m508.501.29 200.26-.23c-2.59 8.41-4.52 15.36-6.54 23.92l-.72 2.53c-5.02 2.07-166.18.88-187.36.8-1.81-9.02-3.69-18.03-5.64-27.02"/><path fill="url(#a)" d="m1265.67 1081.96-90.11.1c-6.4.01-42.32 2.04-46.32-2.67-4.84-5.71-7.6-34.19 8.98-33.89 8.39.15 21.32-.19 30.55-.17l49.75-.3c12.06-.1 36.31-1.93 46.6-1.23 3.28 2.02 2 .59 3.24 5.02-1.76 5.42-1.37 13.72-1.32 19.6z"/><path fill="#080604" d="M1265 1051.96c1.85-1.17 1.86-1.35 3.36-3.14-1.76 5.42-1.37 13.72-1.32 19.6l-2.14.21c-5.64 9.08-8.19 4.31-17.9 5.6-8.28 1.1-17.56 2.12-20.93-7.75-6.65-19.49 29.26-18.58 38.93-14.52"/><path fill="#5a5857" d="M1265 1051.96c1.85-1.17 1.86-1.35 3.36-3.14-1.76 5.42-1.37 13.72-1.32 19.6l-2.14.21c.15-5.36-.22-11.62.1-16.67"/><path fill="#da8f48" d="M1237.99 1053.13c3.35-.08 21.95-.55 22.9.74 3.27 4.48 5.17 16.74-4.67 18.42-3.2-.19-21.02-.07-21.23-.2-13.23-8.1-3.51-15.74 3-18.96"/><path fill="#080604" d="M1245.83 1056.18c7.58 2.28 14.75 7.28 3.91 12.13l-1.7.79c-11.57-2.59-14.91-7.41-2.21-12.92"/><path fill="#99683e" d="M1241.88 1061.15c4.82.6 8.49-.72 10.69 2.69-5.17 1.31-9.72 3.41-10.69-2.69"/><path fill="#080604" d="M1140.09 1051.55c6.72-.41 17.8-1.76 24.45.36 3.86 1.23 6.03 6.99 7.79 8.19 2.77-1.29 1.4-.38 3.67.1 1.42-.48 2.53-3.11 3.77-4.44 4.36-5.97 29.25-6.67 34.63-3.3 11.75 7.37 7.49 20.75-5.79 23.4-11.28-.35-26.51 3.23-31.07-10.91-.75-2.34-2.22-4.57-5.24-3.8-.57.63-1.1 8.73-2.57 10.74-5.35 7.32-38.14 7.07-37.25-6.8.52-7.97-.87-11.96 7.61-13.54"/><path fill="#da8f48" d="M1137.83 1054.32c1.55-.06 11.4.24 11.67.17 13.27-3.65 24.69 2.53 15.98 18.36-1.75.15-14.3.41-14.95.59-12.16 3.3-21.93-9.23-12.7-19.12"/><path fill="#080604" d="m1145.3 1056.74 2.12.34c7.32 1.11 15.82 3.04 9.43 12.05-9.21-.05-18.28-1.35-11.55-12.39"/><path fill="#99683e" d="M1147.37 1059.47c1.92.33 8.45 3.47 7.73 6.37-3.73.11-10.63.85-8.18-5.2z"/><path fill="#da8f48" d="M1196.24 1054.88c7.02-1.8 18.73-2.88 21.1 6.07.71 2.71.55 5.03-.94 7.48a9.2 9.2 0 0 1-6.45 4.36c-2.18.37-10.38.18-13.11.2 14.81-10.17 15.04-9.96-.13-15.98z"/><path fill="#da8f48" d="M1196.71 1057.01c-3.86 1.43-10.29 4.05-6.94 8.74 2.84 3.98 5.83 2.4 8.69 3.53.27 4.3-9.32 4.38-11.78 3.17-14.84-7.33-1.58-23.36 9.56-17.57z"/><path fill="#99683e" d="M1195.42 1059.5c4.97 1.64 9.83 1.8 7.33 6.63-6.65-.37-13.23 1.08-7.33-6.63"/><path fill="#da8f48" d="M929.695 1421.17c10.131-.81 24.843-.38 35.268-.37l62.917.09c16.41.16 32.82.23 49.23.2 9.61-.1 36.57-2.38 44.32 2.45 4.9 3.05 7.08 18.34 2.48 22.27-1.68 1.43-2.38.85-4.66.94q-98.58-.69-197.156.06c.331-11-1.322-18.3 7.601-25.64"/><path fill="#6f6e6f" d="M1013.54 867.258c6.67-.042 13.15-.048 19.98-.023 7.5-.522 14.98 10.803 13.96 17.754-1.41 9.517 13.05 7.934 10.57 22.018.12 1.348.13 7.931-1.61 8.885-16.05 8.801 2.02 7.448-5.6 24.106-5.43 11.867-7.31 12.971-19.51 18.496-12.76 2.878-20.34-.611-28.95-10.864-3.992-4.761-7.366-11.843-7.143-18.138.085-2.404 3.991-4.36 5.693-5.862-8.719-6.447-14.107-9.406-11.809-21.637 1.201-6.391 5.627-8.378 10.45-11.551 1.479-11.254 2.639-18.18 13.969-23.184"/><path fill="#da8f48" d="m955.255 1145.44 135.715-.05-2.54 33.37-.88 1.36c-3.52.93-32.26.12-38.43.09-30.37-.2-60.734-.14-91.099.17-1.315-10.22-1.978-24.38-2.766-34.94"/><path fill="#6f6e6f" d="m1098.74 1388.51 3.28.09c3.67 4.07 2.09 23.07 1.98 29.48-49.84-.98-102.21-.3-152.25-.35l-4.056-.29c-2.931-3.5-1.749-22.54-1.779-28.39z"/><path fill="#da8f48" d="m1045.24 1241.52 35.14-.29c-1.62 12.15-3.09 29.53-3.38 41.64l-76.68.09-29.047-.01c-1.844-13.48-3.164-27.64-4.564-41.2 26.175.06 52.351-.01 78.531-.23M621.275 849.117c14.137-.77 20.651 2.491 24.85 16.501 28.579-8.812 86.63-27.294 96.574 15.555 1.227 5.288 2.108 10.404 1.026 15.812l-1.703.784-25.734-.204c-16.824-16.58-25.119-9.619-44.448-11.574-16.994-1.719-55.37 8.077-63.745-9.167-5.881-12.108 2.186-22.339 13.18-27.707M1349.3 1169.51c1.91-.19 7-1.06 8.44-.15.58 1.14.26 48.87.24 54.37q-24.315.375-48.63.21c-.56-4-.82-7.45-1.48-11.6-9.7-.11-19.41-.12-29.12-.02-6.06.08-11.96.31-18.03.32l-.24-33.67c14.18.13 32.36.21 46.99.04 2.79-.04.56-8.12 2.03-8.38 6.61-1.19 34.63-1.05 39.8-1.12"/><path fill="#6f6e6f" d="M934.963 1362.78c46.838-1.07 94.247.54 141.137-.03 11.77-.14 24.32-.52 36 .12 1.49 3 .81 6.87.6 10.36.17 1.44.26 1.43-.28 2.75-.27 3.37-.02 6.24-2.01 8.79-13.26 1.81-170.677 1.56-174.486.25-.759-1.88-.88-1.82-.67-3.65-.309-5.81-.22-12.69-.291-18.59"/><path fill="#5a5857" d="M935.254 1381.37c.732 1.15.593 2.28.67 3.65-.759-1.88-.88-1.82-.67-3.65m177.166-5.39c-.15-1.53-.31-1.55.28-2.75.17 1.44.26 1.43-.28 2.75"/><path fill="#6f6e6f" d="M854.084 1463.99c29.421 2.19 73.306 1 103.523.96l171.003-.12c19.26-.07 38.48-.67 57.73-.88 5.15-.06 8.69.42 10.92 5.2-.64 3.34-.42 3.28-2.43 5.96-111.91 2.76-226.854-2.25-338.981-.08-2.133.04-3.197-2.29-3.915-3.78.182-3.97.184-3.76 2.15-7.26m-4.963-701.214c7.137-2.078 25.591-9.888 29.85-10.125 14.754-.819 32.618-.477 47.643-.534l104.796-.147 93.32-.011c14.45-.032 30.66-.234 45.02.029 2.33.042 23.78 7.474 27.09 8.562l3.99 1.289-.61.742c-24.42 1.232-55.97.196-81.29.182l-151.675-.127c-35.726.292-83.323 1.81-118.134.14"/><path fill="#5a5857" d="m1196.84 760.55 3.99 1.289-.61.742c-24.42 1.232-55.97.196-81.29.182l-151.675-.127c4.342-3.23 194.585.349 216.395-.933 3.77-.222 9.1.973 13.19-1.153"/><path fill="#6f6e6f" d="M1624.74 1569.82c13.87-6.81 27.89-14.25 42.03-3.62 2.67 2.23 2.6 2.11 4.7 4.79l.92 1.4c.69.71.83.72 1.18 1.56 14.85 37.14-29.37 45.94-53.21 56.68-11.14 5.02-16.95 7.21-28.59 10.56 19.95-23.38 24.68-42.25 32.97-71.37"/><path fill="#080604" d="M1643.3 1573.17c17.86-1.27 22.3 8.11 15.63 25.35-4.23 10.95-22.93 16.62-33.46 20.78-16.34 7.96-15.61 8.9-7.96-9.85 6.93-16.97 7.93-28.79 25.79-36.28"/><path fill="#fff" d="M1643.09 1576.17c14.57-1.25 19.37 3.74 14.2 20-3.16 9.91-20.6 15.92-30.01 19.51-3.81 1.5-7.46 3.31-11.16 5.06 3.7-9.03 7.15-18.24 11.07-27.19 4.78-10.93 4.57-12.29 15.9-17.38"/><path fill="#6f6e6f" d="M403.099 1562.1c10.607-.33 30.03 3.16 32.615 15.44 5.379 25.56 16.217 45.97 33.426 65.43-4.5-1.46-8.97-2.63-13.332-4.45l-3.542-1.5c-16.215-7.78-33.124-13.31-49.264-21.08-24.485-11.78-31.378-46.12.097-53.84"/><path fill="#080604" d="M410.956 1609.59c-25.137-17.77-10.967-47.4 13.461-31.96 6.481 4.1 16.848 37.4 22.639 47.8a413 413 0 0 1-34.846-15.05c-.698-.27-.907-.21-1.254-.79"/><path fill="#fff" d="M407.505 1575.95c6.906.15 6.79 1.04 12.762 2.38 7.621 1.7 20.27 39.58 19.224 41.09-.714.16-3.116-.99-3.791-1.27-13.778-5.68-38.588-13.42-34.741-33.17.938-4.82 2.587-6.41 6.546-9.03"/><path fill="#6f6e6f" d="M1395.37 1564.22c18.89-.32 30.46 16.14 24.92 33.35-7.05 21.93-43.81 30.84-63.69 39.36-9.3 3.94-12.63 5.21-22.08 8.48 19.36-19.17 26.86-39.73 33.29-65.93l1.59-6.47c9.97-4.11 15.18-6.84 25.97-8.79"/><path fill="#080604" d="M1389.35 1575.19c2.51-.16 6.37-.56 8.76.31 3.66 1.3 6.62 4.06 8.17 7.62 2.45 5.48 1.34 11.68-.93 17.02-5.52 12.97-23.58 17.15-35.85 21.84-4.79 1.82-8.17 3.76-13.91 5.87l13.31-31.32c4.98-11.59 8.98-16.81 20.45-21.34"/><path fill="#fff" d="M1390.91 1578c3.34-.05 5.41-.23 8.49 1.27a9.94 9.94 0 0 1 5.16 6.31c5.19 18.72-17.64 27.77-31.22 31.98a290 290 0 0 0-12.96 5.39c6.24-13.55 10.85-26.7 18.19-39.44l1.38-.78c4.67-2.71 5.67-3.12 10.96-4.73"/><path fill="#6f6e6f" d="M1137.08 1565.2c11.34-1.24 22.11-1.1 27.48 11.22 15.75 36.2-33.68 49.99-58.32 58.97-7.77 3.06-16.34 5.83-24.26 8.59 19-20.42 28.18-44.09 33.56-71.24 7.64-2.95 13.66-5.14 21.54-7.54"/><path fill="#080604" d="M1135.74 1576.1c6.7-.56 15.02-.54 17.39 6.89 7.14 22.41-20.54 32.24-34.33 37.85-5.65 2.11-10.93 4.33-16.68 6.43l.87-1.95c5.36-12.42 11.38-25.16 16.42-37.93 2.68-6.81 9.84-9.33 16.33-11.29"/><path fill="#fff" d="M1135.62 1579.05c5.53-.44 13.18-.05 15.05 5.98 5.67 18.37-18.62 27.82-29.64 32.36-5.14 1.99-8.44 3.11-13.7 4.52.32-.72.65-1.44.98-2.16l13.01-30.15c3.03-7.07 7.02-7.64 14.3-10.55"/><path fill="#6f6e6f" d="M882.613 1564.16c22.233-1.1 33.855 12.28 27.884 34.94-4.759 18.07-38.748 27.37-55.997 34.54a427 427 0 0 1-25.829 8.84c19.155-22.12 25.667-41.54 31.07-69.89 8.149-2.41 15.111-6.23 22.872-8.43"/><path fill="#080604" d="M880.631 1575.19c17.034-.84 21.255 10.12 14.993 25.19-4.637 11.15-25.356 17.44-36.279 21.48-4.563 1.99-9.048 4.14-13.603 6.14 6.734-13.42 11.366-22.74 16.83-36.92 3.837-9.96 8.801-12.73 18.059-15.89"/><path fill="#fff" d="M880.405 1578.11c4.786-.29 12.595-.3 14.288 4.91 6.719 20.68-18.429 29.88-30.434 34.49-3.993 1.43-8.2 2.75-12.241 4.14 3.41-6.85 5.792-12.37 8.734-19.37 6.286-14.94 5.501-18.09 19.653-24.17"/><path fill="#6f6e6f" d="M935.24 664.16c19.178-.757 41.709-.205 61.221-.202l116.439.117c-5.21 3.754-7.14 5.692-11.66 10.182l-6.1 10.511c-47.49.186-94.99.067-142.478-.358-3.907-11.053-8.18-13.657-17.422-20.25"/><path fill="#da8f48" d="m1043.06 1194.91-6.36-3.81c3.2-1.8 43.74-.62 49.53.27 19.37 11.98 11.32 35.09-2.94 35.75-38.47 1.78-78.67.89-117.208.26-13.558-1.18-17.247-23.54-8.802-30.97 10.605-9.32 38.172-5.7 52.74-5.82l.76.33c-4.2 7.14-4.51 6.5-7.69 14.5-6.414.24-14.184.82-20.403-.01-1.306-1.89-2.404-3.72-3.595-5.67-8.044-4.14-17.049.73-16.997 10.08 10.403 22.37 15.424-1.64 29.915-.57 13.32.99 7.086-2.73 15.38 7.48 3.3 4.06 29.68 1.95 34.98 1.72 1.64-2.36 3.73-5.99 5.3-8.53l20.02-.11c.97 2.69 2.13 5.86 4.31 7.84a7.3 7.3 0 0 0 6.44 1.64c10.86-2.43 13.67-16.21 2.45-22.4-6.66-.11-7.35 2.67-12.08 7.3-3.17 3.09-17.04 2.26-22 1.96-.86-4.91-.88-7.05-3.75-11.24m317.95-22.53c43.45 6.6 58.99 30.61 59.77 72.42-12.26-.21-24.52-.26-36.79-.14-1.27.02-2.61.11-3.88-.04l-.45-1.46c-2.31-7.56-5.23-17.75-14.63-19.26-.07-.01-3.42-.15-3.48-.82-1.36-15.89-.71-34.47-.54-50.7M913.102 603.985c74.274.881 148.558.893 222.828.037l.49 20.787c-7.21 13.503-19.69 9.341-33.63 8.903 1.27-.929 2.54-1.87 3.8-2.825 5.52-4.213 4.97-4.409 5.79-10.342 1.86-1.549 7.82 1.653 12.7.973 1.67-2.602 2.27-2.542 2.22-5.102-3.01-1.422-10.35.11-14 .68-.41-1.531-1.44-5.006-2.66-6.135-8.22-6.751-10 5.588-18.19 7.078-12.62 2.292-13.88-12.14-24.88-5.878-1.71 2.899-1.82 3.523-4.46 5.669-4.85 1.293-9.82.75-14.54-.912-1.58-2.949-2.1-4.672-4.96-6.387-3.3-.509-3.31-.843-6.2.621-2.04 3.138-3.6 6.282-7.36 7.067-3.34.696-10.24.988-13.06-.794-2.52-5.978-6.8-11.348-13.08-5.45-.44 2.541-.39 3.759-1.84 5.858-15.304 2.971-11.321-.534-21.42-7.161-3.804-.591-3.602-.628-7.278.46-6.055 6.31-10.736 7.651-19.548 5.274-2.469-3.302-3.484-5.273-6.959-7.272-2.002-.228-3.017-.447-4.917.472-11.217 5.424-2.464 18.041 1.857 24.361-31.044.654-31.926 1.67-30.703-29.982"/><path fill="#080604" d="M920.949 616.201c3.536-.288 11.046-1.858 10.462 3.859-4.842 1.335-10.876 3.154-10.462-3.859"/><path fill="#da8f48" d="M905.548 1449.19c23.567 1.1 48.637.58 72.342.51l102.59.08c14.16.04 51.83-1.04 63.43.98 3.25 2.36 5.61 6.83 3.27 10.61l-2.93.46c-17.91.03-239.728 1.23-244.708-.92-2.312-4.98 2.098-9.11 6.006-11.72"/><path fill="#6f6e6f" d="M1023.58 819.666c6.68.84 24.23.507 31.51.286l-.08 44.045c-5.56-.053-27 .415-30.99-.991-1.04-.323-1.26-.14-2.56.057-5.19 1.422-22.974.872-29.532.903-.18-9.413.473-35.852-.972-43.302 4.73-.77 25.024-.626 30.284-.253z"/><path fill="#6f6e6f" d="M990.956 820.664c4.73-.77 25.024-.626 30.284-.253-.27 11.317-.59 31.715.22 42.652-5.19 1.422-22.974.872-29.532.903-.18-9.413.473-35.852-.972-43.302"/><path fill="#080604" d="m1021.24 820.411 2.34-.745c.78 13.882.23 29.309.44 43.34-1.04-.323-1.26-.14-2.56.057-.81-10.937-.49-31.335-.22-42.652"/><path fill="#da8f48" d="M1131.75 588.517c1.6-.074 1.19.024 2.84.658 1.21 3.31.68 8.355.57 12.042-72.26-.8-146.009-.111-218.41-.221-.968-.006-1.824-.352-2.816-.626-1.52-3.282-.754-7.61-.508-11.371 72.773.317 145.544.156 218.324-.482"/><path fill="#6f6e6f" d="m1335.03 927.05 33-.032c-.79 24.321-1.79 57.262-3.92 81.102-10.71-.1-21.41-.08-32.12.04.13-26.829 2.74-54.508 3.04-81.11M953.21 687.485c43.391.063 99.55 2.115 141.68-.27.34 8.999 2.23 12.404 2.62 18.566-17.42-.101-140.52 1.741-146.225-.378 1.786-8.268 2.175-9.24 1.925-17.918M718.39 914.283c9.374.449 19.075.2 28.485.184.734 30.856 3.143 64.198 4.416 95.503-5.671.54-19.39.09-26.032.23-1.131-31.128-4.631-64.585-6.869-95.917"/><path fill="#da8f48" d="M1118.23 866.502c35.73-.213 88.2-1.754 123.26.208 3.3 4.776 6.72 8.115 10.7 12.299-26.18-.518-53.43-.212-79.69-.286l-122.62-.136c-3-5.456-4.58-7.217-8.48-11.848zM945.075 709.006c50.715-.119 105.715-1.036 156.715.249 3.78.095 7.11 8.795 5.66 13.231l-2.2.655-105.717-.071c-16.325.011-42.571.817-58.268-.487-4.2-4.313.773-10.016 3.81-13.577m61.805 157.639c.14-.564-7.127 9.627-8.378 11.981-65.338-1.22-132.687-.16-198.169.032l-.824-1.258c3.781-4.127 5.383-5.968 8.597-10.574z"/><path fill="#6f6e6f" d="m930.873 648.852 187.847.044-3.43 11.698-.55.668c-13.22.875-43.59-.329-58.37-.372l-124.434.129zm-17.694-72.738 152.501-.005c16.17.01 56.75-1.224 69.83.349 1.2 2.561.53 6.334.34 9.35-53.1-.977-108.12 1.065-161.355.303-10.458-.15-52.882.925-60.258-.375-1.794-2.567-1.165-6.298-1.058-9.622m467.701 279.684c5.45 1.261 17.6 23.361 20.97 28.794-14.14 8.355-25.32 13.233-36.27 26.003-1.8 2.094-4.32 1.483-7.33 1.477-8.91.067-13.86.48-22.63 1.15.18-37.155 15.84-41.448 45.26-57.424m-144.22 300.662c9.02 5.22 7.83 18.02 7.36 27.07-.54 10.58.68 24.1-.69 34.35l-.06-.27c-15.62 16.21-16.51 21.21-39.52 21.72-.43.02-6.5.74-5.89-.81 10.66-26.79 23.29-57.95 38.8-82.06M794.89 881.018c24.012.742 199.128-.555 202.18.973 1.183 4.627-1.233 7.819-5.821 8.791-50.738-1-101.819.486-152.588.245-18.104-.086-36.566.142-54.64.909 3.392-3.797 7.21-7.361 10.869-10.918m468.05 6.024c1.46 1.455 1.06 1.09 2.05 2.991l-1.34.984-129.67-.437c-11.58-.011-77.45 1.279-82.08-2.092-.78-3.365-.87-3.172-.29-6.537 1.95-1.07 52.93-.463 60.85-.473l93.1.058c15.25.002 30.74-.433 45.99.075 4.39.146 6.17 1.329 9.61 3.98.88.383 1.09.75 1.78 1.451m-512.707 33.906c9.236 1.238 18.484.863 27.787.754-5.598 26.085-5.695 56.422-7.816 83.048-.707 13.42-.414 9.42-16.18 9.12-.177-29.885-2.55-62.726-3.791-92.922"/><path fill="#da8f48" d="M1070.47 636.564c17.65.285 40.82.736 58.05-.451-2.76 3.357-6.07 6.839-9.03 10.082-14.93.584-33.34.033-48.48.013l-90.59-.044-52.002-.255-7.938-9.27c48.675.527 101.53.735 149.99-.075M888.663 1269.12c-38.53-42.15-63.374-95.37-78.642-150.07-1.784-6.39-4.78-18.33.155-23.45 8.971.65 9.826 11.48 11.563 18.86 11.824 50.22 39.635 124.87 76.563 162.3l-1.542 1.43c-2.338-2.4-4.896-5.47-7.145-8.03-.64-.48-.551-.36-.952-1.04m255.867 4.84c39.03-53.46 62.71-110.14 76.67-173.98.56-2.55 1.42-3.24 3.33-4.74 3.72.04 1.93-.4 5.39 1.87 4.18 8.58-4.36 31.75-7.77 41.41-15.83 44.86-42.63 102.67-75.86 136.72zm-45.11-5.14c7.87-39.25 14.62-78.71 20.24-118.33 2.29-16.1 3.64-32.3 5.55-48.44.49-4.12 2.98-5.94 6.91-6.52 7.36 4.87 1.93 28.3.71 36.61-6.75 46.13-15.59 92.71-30.93 136.84zm-188.639-174.48 3.72.75c2.265 1.76 3.681 3.16 3.994 6.15 6.04 57.55 13.173 115.72 29.382 171.41.86 2.96 2.371 6.79.895 9.37-9.286-13.39-23.527-70.33-27.059-88.49-5.363-27.58-11.853-65.3-13.279-94-.08-1.6 1.477-3.87 2.347-5.19m265.799.3c4.33-.21 6.01-.86 8.66 2.75 1.7 9.88-4 27.29-6.64 37.5-13.22 51.06-29.02 94.28-56.59 139.22-2.12 2.73-3.27 3.86-5.77 6.29 24.96-44.25 37.16-83.93 49.01-133.51 3.23-13.47 7.25-40.7 11.33-52.25m-260.917 174.63c-26.872-41.32-44.355-89.05-55.659-136.79-2.116-8.94-6.4-25.2-4.852-33.9 2.23-2.83.837-1.92 4.325-2.82 4.085 1.78 5.587 4.14 6.433 8.63 10.402 55.26 23.165 114.31 51.474 163.79z"/><path fill="#6f6e6f" d="M1153.34 820.168c9.51-.35 21-.275 30.39.41.85.061.9 4.597.95 5.121-.29 12.851-.07 25.134.16 37.955a817 817 0 0 0-30.95.043c.12-10.573.73-34.036-.55-43.529m-64.7 1.12c3.31-2.161 27-1.373 31.44-.364-1.33 6.755-.75 34.128-.83 43.004-10.06-.082-20.12-.078-30.19.012.06-12.552.54-30.508-.42-42.652m-259.758-.669q15.425.34 30.851.064-.01 21.584-.31 43.166c-9.061.451-20.914.085-30.282.14zm97.902-.576q15.043.19 30.086-.001l.068 43.911a2385 2385 0 0 0-30.262.01zm194.536.652c5.45-1.145 23.47-.589 30.17-.632 0 7.813-.39 20.707.36 27.955-.42 4.796-.19 10.824-.22 15.791-9.98-.175-19.97-.17-29.95.013.03-10.799.83-33.352-.36-43.127m65.19-.483c8.56-.514 21.56-.102 30.42-.052.16 14.339-.28 29.469.5 43.705-7.46-.952-22.38-.428-30.35-.367.12-10.558.62-33.145-.57-43.286m-225.472-.144q14.036.268 28.07-.044-.032 21.98.194 43.958l-29.827-.024c-.032-6.68-1.295-41.303 1.563-43.89m-67.06-.034c10.172.258 19.996.12 30.145.098v43.808a1302 1302 0 0 0-30.097-.004zm163.282.022c5.25.13 27-.745 29.74 1.255-.51 14.438-.27 28.29-.23 42.659-9.85-.061-19.71-.063-29.56-.008.1-14.232-.43-29.977.05-43.906m-194.596.055q14.253.259 28.505-.031c.237 14.083.47 29.859.219 43.907l-29.173-.033c-.074-14.725.365-29.165.449-43.843"/><path fill="#da8f48" d="M1018.38 503.224c20.76-2.531 28.33 8.81 29.63 27.619-5.85.107-11.71.081-17.57-.078-9.01-.066-20.35.566-29.13-.277l-1.937-.165c3.257-16.602 3.757-19.495 19.007-27.099"/><path fill="#6f6e6f" d="M1219.64 820.064c10.99.167 28.19-.609 38.17.176-11.02 6.064-16.82 12.952-21.38 24.271.41 3.285.53 3.599.11 6.895.71 4.376 1.59 7.954 2.63 12.219-6.77-.403-12.67-.351-19.35-.571z"/><path fill="#5a5857" d="M1236.43 844.511c.41 3.285.53 3.599.11 6.895-.84-3.068-.61-3.763-.11-6.895"/><path fill="#6f6e6f" d="M490.736 1657.42c22.24 1.1 54.562.76 77.215.46.963 2.64 4.041 8.94 1.777 11.11l-56.469.05c-8.073.02-16.215.07-24.282.05-3.428-.01.639-9.14 1.159-10.29zm476.04-427.29c35.104 1.94 76.644.15 112.394.47 2.27 2.97 1.53 3.03 1.87 7.54-8.9.89-35.69.58-46.08.47-20.72-.22-46.958 1.14-67.129-.06-1.571-2.37-1.082-5.4-1.055-8.42M728.03 1658.07c25.293.34 50.854.07 75.969.47.218 0 6.148 11.41-1.001 10.87-7.626-.13-78.443.33-79.47-.09-2.181-3.04 2.809-9.14 4.502-11.25m254.697.4c25.353 1.17 51.293-.34 76.653.73.62.03 7.02 9.15 1.53 10.53-27.83-.24-55.65-.16-83.472.25 1.808-3.79 3.347-7.86 5.289-11.51m508.193-.45c25.33.32 50.75.03 76.05.27 1.85.02 6.54 9.55 1.16 10.75l-82.83.21c1.98-3.85 3.79-7.27 5.62-11.23M790.601 820.055c12.309.618 23.403.459 35.577.75.298 13.599.521 29.77.344 43.338q-8.317-.051-16.635.022c5.332-21.723-1.381-31.57-19.286-44.11"/><path fill="#da8f48" d="m998.975 1311.91 16.835.03q-.09 23.73.09 47.46c-5.71-.04-11.41 0-17.115.11.174-15.86.237-31.73.19-47.6"/><path fill="#6f6e6f" d="M1237.52 1659.04c25.35.58 50.89-.46 76.17.29.22.01 5.53 9.25-.44 9.71l-81 .06c1.91-3.82 3.01-6.37 5.27-10.06"/><path fill="#da8f48" d="m929.849 1312.09 16.814-.06c.212 15.71-.114 31.35.183 47.12-5.682.08-11.365.05-17.046-.08q-.096-23.49.049-46.98m34.42-.1 16.788-.06-.113 47.45-16.699-.05q.175-23.67.024-47.34m137.621.63c5.54.06 11.08.07 16.61.04.28 15.91-.39 31.36.48 47.32-6.07-.39-11.1-.43-17.16-.48zm-68.69-.57 16.31.03c.1 15.31.54 32.31.32 47.49-5.53-.08-11.06-.06-16.58.08z"/><path fill="#6f6e6f" d="M1158.38 695.059c16.99-2.322 47.43.637 65.1.895 1.7.025 2.72 7.765.3 8.403-17.73 4.677-43.7-.007-62.83 1.667-2.35.206-8.23-4.823-5.77-8.538 1.14-.987 1.86-1.784 3.2-2.427"/><path fill="#da8f48" d="M1068.05 1312.32c5.31-.04 10.62-.04 15.93-.01l.77 47.35q-8.355-.12-16.71-.06c-.14-15.34-.3-31.99.01-47.28"/><path fill="#6f6e6f" d="M831.794 695.415c20.369-.696 41.324-.435 61.708-.411 5.721.006 3.32 7.05-2.622 9.983-18.265.409-38.148.743-56.411 1.069-5.259.093-8.509-6.521-2.675-10.641"/><path fill="#da8f48" d="M959.83 903.34c1.272.528 6.007 2.33 6.372 4.075 1.54 7.36-.445 54.287-4.144 55.93a196 196 0 0 0-3.596-.171c-1.014-.029-4.083.117-5.018-.675-1.996-6.533 2.939-44.44 1.689-53.496-.263-1.904 3.239-4.521 4.697-5.663"/><path fill="#6f6e6f" d="M1333.25 1122.5c10.41-.75 20.86-.62 31.25.39-.65 3.64-1.39 7.9-2.18 11.5-8.04-.31-16.08-.46-24.11-.47-5.04.01-11.82-.17-16.71.19-12.04.89-10.65.44-13.44-11.52 8.4-.1 16.8-.13 25.19-.09"/><path fill="#da8f48" d="M1063.6 620.577c3.72-.718 3.8 10.373 4.27 13.376-11.91.093-47.6.212-61.68-.381-.2-.008-.3-1.124-.32-1.255 6.85-4.461 6.86-4.945 11.02-11.039 5.19 0 11.11-.413 16.13.27 1.04.484 1.14 3.356 1.32 3.883 4.13 11.903 11.32 2.924 14.21-3.983.41-.983 12.93-.782 15.05-.871m57.63 691.913c4.38-.03 8.75-.02 13.13.01-.04 9.84-.01 19.67.09 29.5.1 6.27 1.06 10.42-1.86 15.62-11.77 4.07-11.65 3.25-11.39-8.46.27-12.15-.28-24.51.03-36.67m-36.55-409.091c3.07.338 8.34.265 8.05 5.098-.4 6.742 3.11 51.259.88 54.282-1.02-.028-8.18.555-8.36-1.331-1.64-17.18-2.73-34.625-3.18-51.876-.04-1.631 1.86-4.767 2.61-6.173M913.971 1312.15l12.869-.02a2799 2799 0 0 1-.16 48.14c-14.915-1.72-12.213-6.17-12.564-20.27a741 741 0 0 1-.145-27.85"/><path fill="#6f6e6f" d="M1405.47 860.958c2.56 3.76 10.8 14.016 10.33 18.522-.18 1.724-1.79 3.229-3.05 4.234-1.48 1.183-3.79 2.737-5.82 2.281-.17-.038-21.79-31.187-22.69-33.389-.54-1.308-.43-2.927.23-4.162 1.11-2.054 3.81-4.095 6.06-4.668 1.83-.466 2.91.357 4.42 1.29.81.747.82.853 1.44 1.819 2.78 3.969 5.97 8.597 8.27 12.821.59.616.56.488.81 1.252m-158.42 306.782c4.08.79 6.49.79 10.68 1.13-.02 16.93-.14 35.19.42 52.12-4.09-.03-8.18-.02-12.27.04 1.64-18.02 1.09-35.21 1.17-53.29"/><path fill="#da8f48" d="m983.923 1311.96 6.074-.06c.404 0 5.422-.15 5.465.67.813 15.2.401 31.62.475 46.85-3.962-.1-8.289.04-12.165-.27q.225-23.595.151-47.19m68.947.13c4.02.02 8.04.01 12.06-.02l.05 47.61c-4.03-.02-8.12.07-12.13-.01.09-15.86.09-31.72.02-47.58m34.27.34 11.82-.01c.08 15.21.35 32.14-.06 47.23-3.91.05-7.5.14-11.42-.07-.34-14.94-.74-32.29-.34-47.15"/><path fill="#6f6e6f" d="m1381.76 1259.21 39.74-.08c-.04 4.64-.04 9.27.01 13.9l-40.01-.07c0-4.8.03-8.96.26-13.75"/><path fill="#da8f48" d="M949.725 1312.01c12.66-.06 11.434-2.43 11.418 9.68-.015 12.44.066 25.05.129 37.5-1.892-.03-9.693.71-11.02-.52-1.353-1.25-.62-41.41-.527-46.66"/><path fill="#c68042" d="M800.114 1171.4c18.524 38.57 41.071 72.99 74.421 100.2 3.408 2.78 8.115 6.46 10.627 9.89-41.565-24.01-69.516-63.9-86.476-108.17z"/><path fill="#da8f48" d="M1018.95 1311.94c1.3.01 10.89-.55 10.83 1.01-.28 7.76 1.97 41.48-.11 46.54-3.58-.03-7.16-.02-10.73.04z"/><path fill="#c68042" d="M956.403 1184.02c30.634-.9 61.287-1.07 91.927-.52 6.39.08 30.66.23 36 1.45l-2.84 2.78-76.37-.1c-10.055-.09-35.366-1-44.293.47-1.641-3.42-.465-1.88-4.424-4.08"/><path fill="#6f6e6f" d="M1167.68 722.02c2.52-.017 25.09-.97 25.06 1.619-.28.49-.54.716-1.12.896-4.32 1.36.1 2.541.31 3.088 1.11 2.901.55 9.194.55 12.626-1.7 4.885-18.45 2.607-24.04 2.576.13-7.98-.12-12.911-.76-20.805m-307.528-.041c7.083-.003 15.81-.385 22.683-.166a273 273 0 0 0-.857 21.31c-7.891.085-13.617.24-21.459.948-.328-7.435-.152-14.68-.367-22.092m509.638 553.241c4.87-.29 11.39.08 16.23.63 12.66-.14 25.31.15 37.98-.14 2.13-.05 5.47-.45 7.25 1.08.93.8 1.84 2.43 1.71 3.67-.07.69-.49 1.3-.99 1.74-2.22 1.95-54.37 1.25-60.56.37-.74-.1-1.72-.32-2.13-1.02-1.02-1.75.06-4.59.51-6.33"/><path fill="#5a5857" d="M1369.79 1275.22c4.87-.29 11.39.08 16.23.63-6.83.55-9.45.45-16.23-.63"/><path fill="#6f6e6f" d="M710.78 899.848c9.699.874 18.687.695 28.386.808 12.254.141 14.569-2.85 12.437 10.583-5.492.28-35.149 1.444-40.187-1.424-1.494-.85-.821-7.852-.636-9.967"/><path fill="#da8f48" d="M1136.05 1478.03c7.73.14 15.43.08 23.15.24.88 7.55.87 11.05.86 18.7l-23.84.04c-.12-6.32-.18-12.65-.17-18.98"/><path fill="#6f6e6f" d="M1167.47 709.035c13.13-.294 26.26-.348 39.38-.162-1.36 3.37-2.46 6.809-3.72 10.23-.05.054-1.35 1.566-1.41 1.587-2.99.781-8.02.054-11.2-.608-16.99-3.54-28.57 8.928-23.05-11.047m207.39 538.165c8.76-.03 38.82.24 48.87.98 1.28.1 1.21 4.79 1.24 6.29l.05 1.94c-15.95-.16-32.2.19-48.04-.6-3.97-.2-3.07-6.18-2.12-8.61"/><path fill="#da8f48" d="M1198.15 1242.25c8.46-.26 11.73-1.98 7.15 4.98-10.75 16.34-22.82 24.43-39.76 32.71-.65.29-4.85 2.49-5.25 1.23.31-.71.68-1.01 1.31-1.51 12.83-10.24 23.95-22.08 32.85-35.88.54-.84 2.78-1.27 3.7-1.53m-111.14 235.72 23.03-.02c.05 6.39.06 12.77.03 19.16-7.69-.1-15.38-.11-23.07-.04zm-49.69-.07c7.64.06 15.27.04 22.9-.07.05 6.35 0 12.7-.13 19.05-7.52-.13-15.05-.13-22.57.02-.09-6.33-.05-12.69-.2-19m-50.29.01 23.21.05c.06 6.29.04 12.58-.05 18.88-8-.45-15.171-.28-23.163-.19z"/><path fill="#6f6e6f" d="M1338.23 1136.51c1.25-.01 2.5-.02 3.75-.04.7-.01 4.14-.24 4.44.37 1.26 2.57.65 15.35.63 18.18-5.43.11-10.86.15-16.3.12-10.7.18-6.68-7.61-6.64-18.5 4.71-.01 9.42-.05 14.12-.13"/><path fill="#da8f48" d="m886.432 1478.86 23.71.01c.057 6 .028 11.99-.085 17.98-7.949-.18-15.901-.2-23.851-.07-.092-6.37-.191-11.55.226-17.92m128.258-287.77c6.1-.11 12.21-.08 18.31.08 4.39 2.66 9.95 4.72 10.17 10.81.13 3.53-3.44 3.11-5.92 3.1l-31.92.01c3.96-8.05 3.14-8.06 9.36-14m-77.774 286.98c7.607.11 15.216.13 22.823.04-.042 6.21-.033 12.42.027 18.62-7.994-.2-14.848-.11-22.819 0z"/><path fill="#6f6e6f" d="M1329.14 916.502c12.08-2.813 30.69-1.209 43.48-1.14 1.57.008 2.31 6.316 2.48 7.261-4.09 3.221-5.1 2.133-10.61 1.59-6.25.251-30.54 1.219-34.87-1.339-.68-3.236-.73-3.172-.48-6.372"/><path fill="#5a5857" d="M1375.1 922.623c-4.09 3.221-5.1 2.133-10.61 1.59 2.97-.303 5.95-.369 8.84-1.158zm-45.48.251c-.68-3.236-.73-3.172-.48-6.372.53 2.499.42 3.752.48 6.372"/><path fill="#6f6e6f" d="M1296.61 1115.87c24.76-2.14 55.19.48 80.27.13 2.9-.04-1 5.04-1.82 5.75-21.44-1.09-42.46-2.72-64.06-1.33-4.35.28-17.72 5.63-14.39-4.55m-333.615 362.12 21.061-.02q.097 9.435-.002 18.87c-7.346-.2-13.827-.15-21.161-.12zm-101.003.64c7.338.06 14.618-.04 21.964.07l-.021 18.06c-7.53-.14-14.337-.07-21.858.01zm201.288-.59 20.66.06.03 18.86c-7.27-.18-13.65-.15-20.92-.06.02-6.34 0-12.51.23-18.86M848.667 708.359c10.317-.423 20.525-.341 30.831-.474.747-.01 3.707-.078 4.065.688.863 1.849.429 8.153.409 10.257-4.162.119-29.543.843-34.432-.469-1.126-.302-.815-7.752-.873-10.002m165.053 769.661h20.56c.08 6.29.09 12.59.03 18.89-7.07-.19-13.63-.12-20.7-.03-.04-6.28-.01-12.57.11-18.86m149.19.76c7.27.14 14.53.16 21.8.07-.14 5.94-.15 11.89-.03 17.83-7.3-.09-14.27-.36-21.63-.35 0-5.85-.05-11.7-.14-17.55m-49.81-.73 19.65.01.13 19.14c-6.58-.12-13.16-.15-19.74-.1-.07-6.35-.08-12.7-.04-19.05m-199.658.68c6.813-.11 13.626-.19 20.44-.22l.038 18.41c-7.205-.15-13.371-.19-20.614-.11-.09-6.03-.045-12.05.136-18.08m92.618-944.894c9.95.153 24.98-.419 35.02.618 1.85.19 2.18 7.201 2.33 8.594-8.94.059-17.98.044-26.91.155-11.9.148-10.47 1.958-10.44-9.367m175.59 148.382c8.62-.593 21.48-3.357 25.6 7.804 1.1 2.985-7.2 1.97-8.23 1.959-7.06-.011-19.52.775-25.96-.342-5.09-.884 6.41-8.571 8.59-9.421"/><path fill="#da8f48" d="M985.259 620.937q8.854.045 17.701-.021c.53 13.357 3.49 12.981-6.832 12.898l-22.973.086c5.695-4.945 8.242-6.391 12.104-12.963m-30.76-.94c4.402-.275 11.079-.076 15.604-.033.937 10.096 4.397 14.075-4.853 13.892q-10.477.039-20.955-.057c3.796-4.799 7.394-8.512 10.204-13.802"/><path fill="#6f6e6f" d="M852.911 682.449c2.934-.377 6.244-1.108 8.873.257 6.124.319 7.032-.076 12.667 1.771l.781.25c1.931 1.526 2.072 1.674 3.666 3.523 1.075 2.266 2.044 3.96-1.493 3.826-10.425-.394-21.631.727-31.875-.521-2.508-.306 3.753-7.796 4.982-7.551.085.021 2.35-1.524 2.399-1.555"/><path fill="#5a5857" d="M852.911 682.449c2.934-.377 6.244-1.108 8.873.257-3.675.438-5.174.142-8.873-.257"/><path fill="#da8f48" d="M1080.47 620.733c5.15.374 11.62.079 16.87.001 1.62 9.882 6.66 13.267-.09 13.18l-24.54.001c3.82-5.579 5.19-7.051 7.76-13.182m-74.92 588.217c1.27-.09 2.54-.17 3.81-.23 4.67-.21 14.14-.63 18.7-.13 11.38 1.27 15.54-4.35 13.96 5.99-6.73 2.23-23.08 1.58-30.65.8-3.09-.32-4.43-3.84-5.82-6.43"/><path fill="#c68042" d="M1168.31 746.356c8.37-.542 16.88-.398 25.22.445 6.51.658 8.41 6.481 9.71 12.19-8.09-1.756-28.32-7.953-34.93-12.635"/><path fill="#6f6e6f" d="M1323.75 1157.98c2.83 0 22.03-.52 23 .02.92 1.59.56 6.46.57 8.61-3.27-.09-19.5.26-22.9-.2-.92-.13-.64-6.78-.67-8.43"/><path fill="#da8f48" d="M873.508 745.801c.973.024 7.003-.323 7.251.972-.539.893-1.641 1.042-2.682 1.384-6.368 3.929-44.323 20.93-22.253-.992 6.23-.321 11.481-.737 17.684-1.364"/><path fill="#6f6e6f" d="M1354.01 1226.64c-.19 2.37-2.62 3.29-4.59 4.22-9.04 4.29-14.18 3.72-23.05.48-1-.69-4.34-2.45-4.51-3.73l.22-.29c.75-.32 1.1-.33 1.93-.32q15 .285 30-.36"/><path fill="#c68042" d="M1074.99 1201.34c3.67-1.32 7.72.57 9.05 4.23a7.08 7.08 0 0 1-4.19 9.07 7.067 7.067 0 0 1-9.11-4.21 7.074 7.074 0 0 1 4.25-9.09"/><path fill="#da8f48" d="M969.832 1202.49a6.62 6.62 0 0 1 6.841.57 6.6 6.6 0 0 1 2.662 6.32 6.63 6.63 0 0 1-4.377 5.29 6.615 6.615 0 0 1-8.28-3.69 6.61 6.61 0 0 1 3.154-8.49m-27.209-591.143c6.275 1.443 5.224.172 5.722 5.198.56 5.643 4.952-.635-.267 10.059-8.278 4.813-7.885-9.564-5.455-15.257m159.617 1.232c2.06.24 6.41-.157 6.65 2.864.32 3.982.84 8.367-1.47 11.843l-1.01 1.701c-7.02-1.162-6.24-11.24-4.17-16.408m-32.99 1.019c10.27.956 10.4 4.864 4.72 13.919-5.34 5.267-4.76-11.736-4.72-13.919m-94.691-1.104c8.025.974 9.871 4.672 4.975 11.742l-.966 1.45c-.799.495-2.944 2.123-3.195 1.92-2.723-2.19-1.054-13.782-.814-15.112m33.031-1.058c7.06 2.841 7.82 7.589 3.25 13.549l-1.19 1.638c-6.69 2.308-3.34-12.204-2.06-15.187m32.62.172c6.5 3.184 4.65 10.519 2.09 15.942-7.43 1.06-4.55-11.695-2.81-14.678z"/><path fill="#99683e" d="M798.686 1173.32c-3.754-10.68-9.47-20.73-11.705-31.92l.305-.58-.048-.29c.129.16 12.44 29.53 12.876 30.87zm118.698 94.86c1.025 1.41 4.964 6.84 4.314 8.47-1.053.47-5.427-6.42-6.035-7.38zm184.516.8c-.39 1.24-1.99 7.98-3.37 8.21l-.18-.15.42-.39c-1.22-1.79.01-5.61.65-7.83z"/><path fill="#c68042" d="M898.302 1276.76c5.599 5.26 4.114 7.18-1.542 1.43z"/><path fill="#99683e" d="M1146.29 1275.24c-.77.81-3.34 4-4.63 3.87-.66-1.37 2.18-4.35 2.87-5.15zm-798.899 398.61c-.502-.09-3.901-.39-3.9-1.29 1.133-.74 7.058-.63 8.643-.66z"/><path fill="#080604" d="m1008.06 152.768 1.24.673c-8.96 18.715-13.386 37.204-6.39 57.475 13.81 40.014 74.28 64.031 50.7 113.95-17.52 37.095-56.049 38.574-37.38 95.983l-1.16 1.883c-23.641-43.511.48-63.747 22.38-97.071 22.22-33.821-29.45-67.287-37.633-98.565-7.335-28.039-5.111-47.868 8.243-74.328"/><path fill="#da8f48" d="M1002.73 217.191c3.63 7.734 7.84 15.874 13.63 22.224 20.89 22.894 49.07 43.965 36.39 79.754-9.89 27.892-30.74 30.185-41.25 60.115l-1.96-1.533c7.44-25.494 18.51-30.388 30.75-52.319 16.46-29.507-12.78-55.483-27.5-78.176-6.26-9.657-8.63-15.094-12.16-26.156z"/><path fill="#c68042" d="m998.046 203.339.37.948c1.512 3.793 3.154 8.997 4.314 12.904l-2.1 3.909c-1.252-6.383-2.108-11.188-2.584-17.761"/><path fill="#99683e" d="m1009.54 377.751 1.96 1.533c-.4 2.728-1.23 8.701-2.82 10.795l-.13-.069c-1.02-2.206.51-9.712.99-12.259"/><path fill="#aaa6a8" d="M1008.06 152.768c.55-1.61 5.27-9.667 6.21-10.736 8.91-10.133-3.64 9.985-4.97 11.409z"/><path fill="#5a5857" d="M1016.23 420.849c.93 1.534 7.37 12.056 7.33 13.226l-.14.152-.11-.021-.12.041c-2.73-2.378-6.47-8.34-8.12-11.515z"/><metadata><recraft-signature>{&quot;signed_by&quot;: &quot;recraft&quot;, &quot;signature_b64&quot;: &quot;CkdtJs45UVj7TszeRx0VFdqKfImHSY7WvFxi7FdvyLyaberHEkjfWnZqtr27YRCID5ycE/YOXDnnLKC1Y3+6DQ==&quot;, &quot;signing_algo&quot;: &quot;Ed25519&quot;, &quot;generation_timestamp&quot;: 1777234425, &quot;identifier&quot;: &quot;499de636-0249-4070-b118-3599b1dfc3ec&quot;}</recraft-signature></metadata></svg>