<svg xmlns="http://www.w3.org/2000/svg" height="1024" preserveAspectRatio="none" style="display: block;" version="1.1" viewBox="0 0 2048 2048" width="1024">
<defs>
	<linearGradient gradientUnits="userSpaceOnUse" id="Gradient1" x1="1625.28" x2="1644.71" y1="1018.68" y2="1073.26">
		<stop class="stop0" offset="0" stop-color="rgb(33,42,56)" stop-opacity="1"></stop>
		<stop class="stop1" offset="1" stop-color="rgb(70,79,93)" stop-opacity="1"></stop>
	</linearGradient>
	<linearGradient gradientUnits="userSpaceOnUse" id="Gradient2" x1="986.354" x2="1008.21" y1="445.991" y2="519.912">
		<stop class="stop0" offset="0" stop-color="rgb(49,60,72)" stop-opacity="1"></stop>
		<stop class="stop1" offset="1" stop-color="rgb(81,94,105)" stop-opacity="1"></stop>
	</linearGradient>
</defs>

<path d="M 1018.12 943.88 C 1021.45 943.834 1028.64 943.381 1031.41 944.416 C 1031.44 948.94 1028.41 949.526 1028.5 953.802 C 1028.78 966.519 1029.06 979.252 1029.23 991.972 C 1030.05 1005.36 1028.31 1056.67 1031.47 1066.66 L 1033.88 1068.28 C 1035.09 1077.52 1034.8 1091.34 1034.8 1100.98 L 1034.79 1154.98 C 1041.93 1155.08 1053.69 1155.67 1060.29 1154.35 C 1060.79 1152.12 1060.62 1153.19 1059.4 1150.4 C 1062.27 1149.2 1060.77 1149.42 1064.08 1150.07 L 1064.48 1151.13 C 1064.95 1152.33 1065.35 1153.26 1065.88 1154.43 C 1071.63 1155.17 1077.42 1154.79 1083.19 1154.98 C 1117.19 1156.08 1152.74 1154.22 1186.57 1157.25 C 1188.57 1158.05 1191.99 1156.98 1194.56 1156.55 L 1197.5 1157.13 L 1198.65 1156.22 C 1194.97 1142.39 1155.54 1070.11 1155.93 1065.53 C 1157.17 1065.15 1158.41 1064.43 1158.94 1065.35 C 1172.15 1088.61 1194.12 1135.67 1205.12 1157.73 C 1213.58 1157.57 1264.12 1153.46 1262.38 1164.56 C 1257.49 1168.28 1239.48 1165.95 1231.52 1166.25 L 1224.62 1172.77 L 1211.41 1172.71 C 1227.77 1206.88 1244.31 1240.75 1261.23 1274.64 C 1267.67 1287.53 1278.48 1303.27 1283.55 1315.08 C 1293.55 1315.05 1343.64 1313.39 1348.59 1317.43 L 1348.81 1319.79 C 1344.08 1324.7 1318.63 1324.27 1312.36 1322.53 L 1178.36 1526.51 C 1170.39 1538.55 1136.96 1591.57 1130.27 1598.21 C 1136.28 1605.95 1166.3 1617.95 1177.94 1624.83 C 1179.27 1640.7 1179.28 1655.34 1176.57 1671.13 C 1166.59 1665.19 1154.08 1660.85 1143.55 1655.66 C 1123.66 1645.85 1103.7 1636.14 1084.03 1625.89 C 1070.02 1618.94 1043.3 1598.84 1030.94 1594.58 C 1051.99 1621.85 1143.73 1660.99 1176.41 1676.06 C 1171.95 1710.58 1158.06 1733.64 1135.41 1759.14 C 1214.21 1760.02 1293.01 1760.28 1371.81 1759.95 C 1402.32 1759.93 1432.97 1760.01 1463.5 1759.47 C 1467.36 1759.4 1468.35 1759.28 1470.61 1761.27 L 1470.27 1763.42 C 1465.86 1766.27 1439.82 1764.79 1432.63 1764.8 L 1355.19 1764.83 L 963.38 1765.13 L 846.268 1764.82 C 834.459 1764.76 800.626 1765.39 790.163 1764.17 C 803.169 1762.34 818.876 1765.29 832.872 1763.28 L 830.748 1762.74 C 832.338 1760.45 832.77 1761 836.194 1759.98 C 860.111 1759.03 889.336 1759.73 913.684 1759.63 C 889.343 1734.35 877.963 1710.42 872.124 1675.85 C 894.54 1666.91 1011.09 1613.95 1013.9 1597.05 C 1010.03 1596.93 983.588 1615.01 976.443 1619.11 C 942.473 1638.33 907.335 1655.41 871.236 1670.25 C 869.827 1653.11 869.799 1641.4 870.22 1624.42 C 882.507 1616.73 903.537 1607.04 917.103 1600.37 C 898.859 1568.97 876.532 1539.28 857.306 1508.46 C 844.482 1487.9 831.188 1467.71 817.943 1447.42 C 801.462 1422.11 784.838 1396.89 768.07 1371.76 C 758.416 1356.99 746.155 1336.71 735.544 1323.15 C 727.712 1323.19 710.016 1323.95 702.125 1322.08 C 701.133 1321.85 701.071 1320.02 700.731 1318.6 L 701.841 1316.98 C 710.309 1313.61 747.254 1315.31 759.121 1315.34 C 776.944 1289.26 795.52 1249.13 810.554 1220.83 C 816.337 1209.94 830.107 1184.52 834.108 1174.01 L 833.456 1172.7 C 825.795 1173.22 825.662 1171.81 819.131 1166.96 C 812.446 1166.83 796.309 1167.13 789.752 1165.04 C 788.916 1164.77 788.646 1162.84 788.296 1161.66 L 789.723 1159.87 C 799.721 1155.92 825.184 1158.78 836.959 1158.17 C 842.344 1157.88 840.866 1158.76 844.53 1155.16 C 846.054 1156.2 846.303 1156.47 847.669 1157.8 C 855.174 1156.84 877.333 1137.59 885.098 1131.59 L 944.765 1085.84 C 950.179 1081.62 970.397 1064.13 976.242 1064.4 C 975.479 1070.18 941.511 1094.12 935.041 1099.05 C 909.764 1118.21 884.649 1137.57 859.698 1157.15 C 891.788 1155.07 946.171 1153.82 977.986 1154.87 C 982.385 1154.26 985.432 1155.48 985.186 1151.05 C 985.065 1148.88 989.705 1148.71 990.26 1150.93 C 991.043 1154.04 990.043 1153.87 993.195 1154.96 C 998.378 1154.43 1009.02 1154.67 1014.62 1154.64 C 1014.19 1125.84 1014.33 1097.02 1015.03 1068.22 C 1012.88 1035.16 1014.24 988.065 1014.26 954.263 C 1014.68 948.297 1014.38 947.771 1018.12 943.88 z" fill="rgb(50,64,75)" transform="translate(0,0)"></path>
<path d="M 1306.73 1323.14 C 1310.09 1321.69 1308.31 1322.07 1312.36 1322.53 L 1178.36 1526.51 C 1170.39 1538.55 1136.96 1591.57 1130.27 1598.21 L 1128.73 1594.33 C 1126.51 1585.08 1122.53 1573.07 1119.89 1563.5 L 1096.88 1479.5 C 1115.28 1467.2 1138.6 1447.76 1156.69 1433.91 C 1193.02 1406.19 1229.59 1378.77 1266.39 1351.67 C 1274.95 1345.39 1298.18 1326.41 1306.73 1323.14 z" fill="rgb(251,249,248)" transform="translate(0,0)"></path>
<path d="M 1306.73 1323.14 C 1310.09 1321.69 1308.31 1322.07 1312.36 1322.53 L 1178.36 1526.51 C 1170.39 1538.55 1136.96 1591.57 1130.27 1598.21 L 1128.73 1594.33 C 1138.23 1578.58 1149.24 1563.25 1159.36 1547.81 L 1220.39 1454.62 C 1249.08 1411.51 1278 1365.52 1306.73 1323.14 z" fill="rgb(63,72,84)" transform="translate(0,0)"></path>
<path d="M 1018.12 943.88 C 1017.82 960.407 1019.81 1058.94 1017.05 1066.6 L 1015.03 1068.22 C 1012.88 1035.16 1014.24 988.065 1014.26 954.263 C 1014.68 948.297 1014.38 947.771 1018.12 943.88 z" fill="rgb(187,128,82)" transform="translate(0,0)"></path>
<path d="M 977.986 1154.87 C 982.385 1154.26 985.432 1155.48 985.186 1151.05 C 985.065 1148.88 989.705 1148.71 990.26 1150.93 C 991.043 1154.04 990.043 1153.87 993.195 1154.96 C 989.054 1155.34 982.1 1155.16 977.986 1154.87 z" fill="rgb(63,72,84)" transform="translate(0,0)"></path>
<path d="M 892.969 1173.72 L 980.738 1173.64 C 976.379 1190.26 966.238 1234.09 959.927 1247.5 C 962.389 1257.53 964.035 1259.93 969.942 1267.94 C 964.275 1268.04 949.497 1267.79 944.745 1269.32 L 944.323 1271.54 C 944.796 1272.17 945.269 1272.81 945.742 1273.44 C 960.554 1275.15 998.871 1271.9 1011.37 1274.13 C 1012.34 1276.92 1011.07 1279.49 1010.18 1282.49 C 1011.22 1283.64 1011.8 1284.65 1012.8 1285.73 L 1012.88 1285.73 C 1013.33 1286 1014.33 1287.41 1014.53 1288.04 C 1015.76 1287.14 1015.39 1285.54 1016.96 1284.62 C 1019.59 1285.26 1015.91 1308.58 1014.12 1312.65 C 1011.94 1311.56 1011.9 1314.1 1006.81 1314.45 C 1006.22 1314.06 1005.19 1313.33 1004.52 1313.08 C 1003.6 1314.3 1002.71 1315.48 1001.83 1316.72 L 1000.65 1315.17 C 999.795 1317.27 999.997 1316.72 998.541 1318.56 C 986.538 1319.5 969.277 1319.02 956.987 1319.02 L 884.468 1319.03 L 839.324 1319.01 C 834.199 1319 821.287 1319.32 816.728 1318.55 L 814.1 1314.83 C 804.373 1313.71 775.671 1314.72 764.646 1314.79 C 767.958 1308.46 779.824 1286.21 783.993 1281.91 C 799.2 1266.37 814.664 1249.66 830.56 1234.83 C 851.118 1215.65 871.561 1191.45 892.969 1173.72 z" fill="rgb(251,249,248)" transform="translate(0,0)"></path>
<path d="M 1010.18 1282.49 C 1011.22 1283.64 1011.8 1284.65 1012.8 1285.73 L 1012.88 1285.73 C 1013.33 1286 1014.33 1287.41 1014.53 1288.04 C 1015.76 1287.14 1015.39 1285.54 1016.96 1284.62 C 1019.59 1285.26 1015.91 1308.58 1014.12 1312.65 C 1011.94 1311.56 1011.9 1314.1 1006.81 1314.45 C 1006.22 1314.06 1005.19 1313.33 1004.52 1313.08 C 1003.6 1314.3 1002.71 1315.48 1001.83 1316.72 L 1000.65 1315.17 C 1001.78 1308.22 1005.27 1300.11 1007.11 1293.02 L 1008.27 1288.57 C 1008.84 1286.42 1009.41 1284.57 1010.18 1282.49 z" fill="rgb(63,72,84)" transform="translate(0,0)"></path>
<path d="M 1004.52 1313.08 C 1005.15 1310.76 1011.54 1289.79 1012.36 1289.04 L 1012.48 1289.04 C 1013.48 1291.21 1007.61 1309.31 1006.9 1313.88 L 1006.81 1314.45 C 1006.22 1314.06 1005.19 1313.33 1004.52 1313.08 z" fill="rgb(140,150,159)" transform="translate(0,0)"></path>
<path d="M 1069.01 1173.48 L 1152.16 1173.61 C 1186.41 1208.77 1219.16 1245.54 1253.73 1280.43 C 1263.97 1290.77 1271.45 1302.28 1279.02 1314.61 C 1265.76 1314.63 1251.72 1313.72 1238.54 1314.49 C 1237.11 1314.58 1234.02 1317.57 1232.89 1318.6 C 1213.1 1319.46 1004.22 1319.18 1002.21 1317.92 L 1001.83 1316.72 C 1002.71 1315.48 1003.6 1314.3 1004.52 1313.08 C 1005.19 1313.33 1006.22 1314.06 1006.81 1314.45 C 1011.9 1314.1 1011.94 1311.56 1014.12 1312.65 C 1019.84 1313.67 1029.78 1314.51 1035.4 1312.83 C 1034.16 1302.79 1033.59 1293.11 1033.43 1283.03 L 1034.32 1282.44 C 1035.82 1281.41 1036.09 1283.26 1037.04 1284.68 C 1037.43 1281.95 1037.65 1279.43 1038.11 1276.68 C 1038.15 1274.32 1037.85 1275.43 1039.48 1273.46 C 1050.72 1271.16 1064.56 1273.9 1076.04 1272.93 C 1077.47 1272.81 1078.8 1268.77 1079.38 1267.64 C 1084.73 1260.74 1086.75 1254.7 1089.53 1246.57 C 1084.35 1235.93 1073.6 1188.79 1069.01 1173.48 z" fill="rgb(251,249,248)" transform="translate(0,0)"></path>
<path d="M 1039.48 1273.46 C 1050.72 1271.16 1064.56 1273.9 1076.04 1272.93 C 1077.47 1272.81 1078.8 1268.77 1079.38 1267.64 C 1085.26 1271.33 1108.59 1263.52 1104.28 1273.26 C 1104.04 1273.82 1103.03 1273.87 1102.53 1273.96 C 1083.46 1273.53 1057.89 1274.96 1039.48 1273.46 z" fill="rgb(63,72,84)" transform="translate(0,0)"></path>
<path d="M 1033.43 1283.03 L 1034.32 1282.44 C 1035.82 1281.41 1036.09 1283.26 1037.04 1284.68 C 1038.45 1293.88 1040.78 1303.45 1042.41 1312.77 C 1041.33 1313.9 1040.99 1313.7 1039.46 1313.62 C 1038.18 1313.35 1036.67 1312.99 1035.4 1312.83 C 1034.16 1302.79 1033.59 1293.11 1033.43 1283.03 z" fill="rgb(31,39,50)" transform="translate(0,0)"></path>
<path d="M 1033.43 1283.03 L 1034.36 1287.19 C 1036.26 1295.81 1037.18 1305.02 1039.46 1313.62 C 1038.18 1313.35 1036.67 1312.99 1035.4 1312.83 C 1034.16 1302.79 1033.59 1293.11 1033.43 1283.03 z" fill="rgb(199,201,206)" transform="translate(0,0)"></path>
<path d="M 1038.11 1276.68 L 1038.71 1278 C 1039.31 1279.21 1039.49 1280.18 1039.4 1281.52 C 1040.98 1285.74 1049.91 1312.97 1047.41 1315 C 1046.01 1314.39 1045.4 1312.29 1044.75 1311.06 L 1042.41 1312.77 C 1040.78 1303.45 1038.45 1293.88 1037.04 1284.68 C 1037.43 1281.95 1037.65 1279.43 1038.11 1276.68 z" fill="rgb(31,39,50)" transform="translate(0,0)"></path>
<path d="M 1038.11 1276.68 L 1038.71 1278 C 1039.31 1279.21 1039.49 1280.18 1039.4 1281.52 C 1038 1290.01 1044.12 1302.06 1044.75 1311.06 L 1042.41 1312.77 C 1040.78 1303.45 1038.45 1293.88 1037.04 1284.68 C 1037.43 1281.95 1037.65 1279.43 1038.11 1276.68 z" fill="rgb(160,163,174)" transform="translate(0,0)"></path>
<path d="M 742.892 1323.58 C 748.886 1325.82 753.225 1330.04 758.481 1333.64 C 781.318 1349.28 802.727 1366.57 824.705 1383.32 L 951.747 1478.57 C 943.055 1507.75 935.622 1537.45 926.889 1566.88 C 924.313 1575.96 921.897 1585.21 919.431 1594.33 C 908.211 1574.77 889.676 1549.97 876.896 1530.38 L 802.94 1416.13 C 781.653 1383.67 763.011 1357.21 742.892 1323.58 z" fill="rgb(251,249,248)" transform="translate(0,0)"></path>
<path d="M 822.951 1343.92 C 824.636 1338.22 844.659 1340.7 848.577 1342.16 L 851.607 1341.38 C 860.309 1341.2 868.185 1342.24 876.918 1341.83 C 880.179 1341.82 886.806 1341.43 889.596 1342.3 C 895.926 1343.41 906.086 1343.18 913.276 1343.84 C 916.222 1343.38 918.827 1342.32 920.737 1343.52 C 916.739 1345.67 919.43 1365.81 919.538 1370.87 C 917.27 1373.81 917.521 1373.98 917.202 1377.58 C 919.787 1387.92 926.692 1408.83 942.255 1404.06 C 949.525 1401.83 952.48 1392.41 955.068 1385.83 C 959.57 1398.99 959.957 1402.2 973.681 1402.76 C 974.719 1405.18 955.537 1466.18 953.186 1473.9 C 933.253 1459.76 911.657 1442.75 892.02 1427.84 L 805.918 1362.59 C 812.287 1357.03 813.957 1354.97 819.244 1348.33 L 822.951 1343.92 z" fill="rgb(251,249,248)" transform="translate(0,0)"></path>
<path d="M 822.951 1343.92 C 824.636 1338.22 844.659 1340.7 848.577 1342.16 L 851.607 1341.38 C 860.309 1341.2 868.185 1342.24 876.918 1341.83 C 880.179 1341.82 886.806 1341.43 889.596 1342.3 C 895.926 1343.41 906.086 1343.18 913.276 1343.84 C 916.222 1343.38 918.827 1342.32 920.737 1343.52 C 916.739 1345.67 919.43 1365.81 919.538 1370.87 C 917.27 1373.81 917.521 1373.98 917.202 1377.58 C 914.803 1384.46 911.545 1392.5 903.765 1394.24 C 889.52 1397.42 884.136 1379.04 881.347 1369.79 C 870.934 1392.65 857.144 1388.27 849.949 1366.43 C 841.512 1385.73 829.748 1384.53 822.072 1365.28 C 820.068 1360.25 819.772 1353.74 819.244 1348.33 L 822.951 1343.92 z" fill="rgb(63,72,84)" transform="translate(0,0)"></path>
<path d="M 889.596 1342.3 C 895.926 1343.41 906.086 1343.18 913.276 1343.84 C 915.122 1354.71 916.639 1386.45 902.961 1389.89 C 885.463 1394.29 882.881 1353.88 884.095 1343.61 C 884.165 1343.01 889.219 1342.37 889.596 1342.3 z" fill="rgb(251,249,248)" transform="translate(0,0)"></path>
<path d="M 851.607 1341.38 C 860.309 1341.2 868.185 1342.24 876.918 1341.83 C 883.693 1347.61 876.464 1388.35 861.633 1379.37 C 852.239 1373.69 850.921 1351.16 851.607 1341.38 z" fill="rgb(251,249,248)" transform="translate(0,0)"></path>
<path d="M 822.951 1343.92 C 824.636 1338.22 844.659 1340.7 848.577 1342.16 C 846.542 1349.61 846.781 1368.25 841.96 1372.39 C 824.719 1387.21 823.124 1348.78 822.951 1343.92 z" fill="rgb(251,249,248)" transform="translate(0,0)"></path>
<path d="M 1232.77 1348.52 C 1237.07 1352.56 1241.51 1356.85 1245.88 1360.78 L 1137.55 1443.15 C 1128.91 1449.81 1102.1 1469.13 1096.42 1474.92 C 1095.6 1476.33 1093.77 1477.32 1092.33 1479.02 C 1089.65 1479.71 1087.99 1481.23 1087.19 1477.45 C 1084.37 1464.19 1080.49 1451.13 1077.24 1437.98 L 1076.26 1433.98 L 1075.27 1429.98 C 1074.62 1427.28 1073.93 1425.06 1073.25 1422.46 L 1072.22 1418.48 C 1070.49 1411.58 1062.42 1383.73 1062.52 1378.47 L 1062.65 1378.52 C 1063.19 1379.17 1065.56 1384.84 1065.7 1385.72 C 1067.72 1388.57 1070.43 1390.63 1070.23 1394.38 C 1071.76 1395.32 1073.52 1393.04 1073.48 1397.79 C 1091.78 1414.05 1103.91 1400.82 1108.89 1381.37 C 1127.08 1409.18 1144.51 1399.24 1152.89 1371.35 C 1165.21 1396.65 1185 1390.04 1192.54 1365.88 C 1197.14 1374.9 1204.61 1383.89 1215.99 1378 C 1227.28 1372.16 1230.75 1360.2 1232.77 1348.52 z" fill="rgb(251,249,248)" transform="translate(0,0)"></path>
<path d="M 1092.33 1479.02 C 1089.65 1479.71 1087.99 1481.23 1087.19 1477.45 C 1084.37 1464.19 1080.49 1451.13 1077.24 1437.98 L 1076.26 1433.98 L 1075.27 1429.98 C 1074.62 1427.28 1073.93 1425.06 1073.25 1422.46 L 1072.22 1418.48 C 1070.49 1411.58 1062.42 1383.73 1062.52 1378.47 L 1062.65 1378.52 C 1063.19 1379.17 1065.56 1384.84 1065.7 1385.72 C 1067.72 1388.57 1070.43 1390.63 1070.23 1394.38 C 1071.76 1395.32 1073.52 1393.04 1073.48 1397.79 C 1075.58 1407.31 1092.87 1469.15 1096.42 1474.92 C 1095.6 1476.33 1093.77 1477.32 1092.33 1479.02 z" fill="rgb(63,72,84)" transform="translate(0,0)"></path>
<path d="M 1092.33 1479.02 C 1089.65 1479.71 1087.99 1481.23 1087.19 1477.45 C 1084.37 1464.19 1080.49 1451.13 1077.24 1437.98 L 1076.26 1433.98 L 1075.27 1429.98 C 1074.62 1427.28 1073.93 1425.06 1073.25 1422.46 L 1072.22 1418.48 C 1070.49 1411.58 1062.42 1383.73 1062.52 1378.47 L 1062.65 1378.52 C 1063.19 1379.17 1065.56 1384.84 1065.7 1385.72 L 1066.83 1389.49 C 1069.15 1397.2 1071.48 1406.08 1073.39 1413.92 C 1077.99 1432.82 1084.95 1451.35 1089.88 1470.02 L 1090.39 1471.99 L 1091.4 1475.99 C 1091.66 1477.03 1092 1478 1092.33 1479.02 z" fill="rgb(251,249,248)" transform="translate(0,0)"></path>
<path d="M 998.037 1353.69 L 998.169 1353.26 L 999.204 1352.75 L 1004.34 1353.77 C 1009.13 1355.63 1011.03 1358.21 1014.47 1362.2 C 1015.53 1397.33 1014.59 1433.71 1014.95 1468.94 C 1015.04 1477.39 1015.36 1516.88 1013.87 1522.13 C 1013.29 1523.53 1013.41 1524.81 1012.85 1526.51 C 1006.06 1521.85 975.39 1496.03 971.231 1495.7 C 971.617 1493.25 971.519 1492.05 971.495 1489.52 L 968.258 1487.56 C 966.693 1485.56 965.089 1484.32 965.565 1481.52 C 969.557 1458.04 977.613 1435.11 983.629 1412.17 C 988.157 1394.9 994.752 1374.63 996.313 1357 L 998.037 1353.69 z" fill="rgb(251,249,248)" transform="translate(0,0)"></path>
<path d="M 998.037 1353.69 L 998.169 1353.26 L 999.204 1352.75 L 1004.34 1353.77 C 1001.06 1362.27 996.795 1383.51 994.802 1392.81 C 990.075 1415.49 985.177 1438.13 980.108 1460.74 C 978.858 1466.24 974.794 1484.91 972.522 1489.39 L 971.495 1489.52 L 968.258 1487.56 C 966.693 1485.56 965.089 1484.32 965.565 1481.52 C 969.557 1458.04 977.613 1435.11 983.629 1412.17 C 988.157 1394.9 994.752 1374.63 996.313 1357 L 998.037 1353.69 z" fill="rgb(63,72,84)" transform="translate(0,0)"></path>
<path d="M 998.037 1353.69 L 998.169 1353.26 L 999.204 1352.75 C 999.07 1361.86 971.363 1481.82 968.258 1487.56 C 966.693 1485.56 965.089 1484.32 965.565 1481.52 C 969.557 1458.04 977.613 1435.11 983.629 1412.17 C 988.157 1394.9 994.752 1374.63 996.313 1357 L 998.037 1353.69 z" fill="rgb(251,249,248)" transform="translate(0,0)"></path>
<path d="M 971.495 1489.52 L 972.522 1489.39 L 973.654 1490.26 C 986.086 1499.64 1002.36 1511.74 1013.87 1522.13 C 1013.29 1523.53 1013.41 1524.81 1012.85 1526.51 C 1006.06 1521.85 975.39 1496.03 971.231 1495.7 C 971.617 1493.25 971.519 1492.05 971.495 1489.52 z" fill="rgb(63,72,84)" transform="translate(0,0)"></path>
<path d="M 1045.22 1354.01 C 1046.86 1355.13 1074.5 1479.49 1076.46 1489.6 L 1054.48 1507.22 C 1047.85 1512.38 1041.33 1517.69 1034.94 1523.13 C 1034.63 1469.11 1034.68 1415.08 1035.09 1361.06 L 1045.22 1354.01 z" fill="rgb(251,249,248)" transform="translate(0,0)"></path>
<path d="M 971.231 1495.7 C 975.39 1496.03 1006.06 1521.85 1012.85 1526.51 C 1015.9 1529.61 1011.87 1543.13 1010.24 1546 C 998.15 1567.26 970.939 1575.74 949.337 1584.38 C 950.115 1581.58 950.944 1578.8 951.663 1575.98 L 952.15 1574.02 L 954.62 1564.41 L 957.184 1554.02 L 958.691 1547.99 L 961.209 1537.52 L 963.266 1529.01 C 963.401 1528.49 963.535 1527.96 963.67 1527.44 L 965.229 1521.02 L 966.241 1517.02 C 968.046 1510.28 970.355 1502.53 971.231 1495.7 z" fill="rgb(251,249,248)" transform="translate(0,0)"></path>
<path d="M 1076.63 1495.86 C 1078.57 1497.9 1079.85 1505.04 1080.64 1508.04 C 1086.42 1530.27 1091.8 1552.59 1096.78 1575.01 C 1097.48 1578.26 1098.19 1581.46 1098.84 1584.72 C 1089.43 1580.53 1080.05 1576.73 1070.62 1572.43 C 1048.01 1560.7 1042.68 1554.06 1035.03 1531.48 L 1034.72 1530.57 C 1043.6 1521.04 1065.72 1503.49 1076.63 1495.86 z" fill="rgb(251,249,248)" transform="translate(0,0)"></path>
<path d="M 1158.81 1173.17 C 1174.7 1172.94 1190.85 1173.05 1206.76 1173.01 C 1212.8 1187.39 1221.37 1203.5 1228.39 1217.67 C 1237.89 1237.3 1247.53 1256.87 1257.31 1276.38 C 1251.03 1273.92 1169.84 1185.28 1158.81 1173.17 z" fill="rgb(251,249,248)" transform="translate(0,0)"></path>
<path d="M 1034.42 1173.36 C 1044.72 1173.25 1055.03 1173.21 1065.34 1173.24 C 1065.52 1173.9 1065.71 1174.56 1065.89 1175.21 C 1066.92 1178.63 1067.88 1182.06 1068.76 1185.52 L 1070.73 1193.54 C 1074.17 1207.89 1078.5 1222.75 1081.73 1236.91 C 1065.53 1232.8 1051.47 1232.7 1034.82 1232.7 L 1034.42 1173.36 z" fill="rgb(251,249,248)" transform="translate(0,0)"></path>
<path d="M 984.92 1173.74 C 994.708 1173.62 1004.5 1173.62 1014.29 1173.73 C 1014.35 1193.52 1014.17 1213.04 1014.67 1232.85 L 995.526 1232.98 C 984.986 1233.16 978.54 1234.34 968.3 1235.51 C 972.668 1219.69 977.026 1203.88 981.212 1188.02 L 984.92 1173.74 z" fill="rgb(251,249,248)" transform="translate(0,0)"></path>
<path d="M 840.289 1172.46 C 855.25 1173.16 870.271 1172.93 885.249 1173.13 C 866.759 1194.72 837.838 1220.45 817.035 1241.67 C 808.588 1250.26 801.246 1257.82 792.504 1266.12 C 804.224 1240.48 818.956 1215.33 831.362 1189.96 C 834.031 1184.5 837.263 1177.64 840.289 1172.46 z" fill="rgb(251,249,248)" transform="translate(0,0)"></path>
<path d="M 1060.33 1350.57 C 1069.08 1347.76 1099.3 1345.9 1109.25 1345.2 C 1107.99 1358.76 1107.62 1404.57 1084.62 1399.61 C 1072.58 1397.01 1065.45 1369.82 1062.17 1358.89 C 1060.95 1359.34 1059.74 1359.8 1058.53 1360.28 C 1057 1358.71 1054 1352.48 1056.28 1351.71 C 1056.67 1351.79 1056.41 1351.69 1057.1 1352.16 L 1060.33 1350.57 z" fill="rgb(251,249,248)" transform="translate(0,0)"></path>
<path d="M 1058.53 1360.28 C 1057 1358.71 1054 1352.48 1056.28 1351.71 C 1056.67 1351.79 1056.41 1351.69 1057.1 1352.16 L 1060.33 1350.57 C 1060.89 1353.36 1061.59 1356.11 1062.17 1358.89 C 1060.95 1359.34 1059.74 1359.8 1058.53 1360.28 z" fill="rgb(63,72,84)" transform="translate(0,0)"></path>
<path d="M 1058.53 1360.28 C 1057 1358.71 1054 1352.48 1056.28 1351.71 C 1056.67 1351.79 1056.41 1351.69 1057.1 1352.16 L 1057.7 1353.6 C 1058.85 1356.25 1058.69 1357.41 1058.53 1360.28 z" fill="rgb(199,201,206)" transform="translate(0,0)"></path>
<path d="M 1128.82 1344.44 L 1152.16 1343.58 C 1151.51 1361.91 1150.22 1381.92 1134.31 1393.62 C 1126.48 1394.91 1122.96 1393.94 1117.56 1387.71 C 1107.5 1376.1 1111.08 1359.04 1112.83 1345.08 C 1118.16 1344.97 1123.49 1344.75 1128.82 1344.44 z" fill="rgb(251,249,248)" transform="translate(0,0)"></path>
<path d="M 920.737 1343.52 C 929.358 1344.28 942.04 1344.75 950.895 1345.18 C 952.317 1359.1 954.375 1387.84 944.697 1397.76 C 929.652 1413.18 920.883 1379.25 919.538 1370.87 C 919.43 1365.81 916.739 1345.67 920.737 1343.52 z" fill="rgb(251,249,248)" transform="translate(0,0)"></path>
<path d="M 955.159 1345.8 C 966.553 1346.49 977.863 1348.47 989.362 1349.38 L 989.036 1350.87 C 985.894 1364.67 985.212 1374.88 979.918 1388.54 C 977.52 1392.74 976.682 1394.28 972.024 1396.34 C 961.927 1400.8 960.151 1386.84 958.094 1379.47 C 955.205 1369.11 956.757 1357.03 955.159 1345.8 z" fill="rgb(251,249,248)" transform="translate(0,0)"></path>
<path d="M 1023.81 1504.57 C 1025.85 1507.23 1025.51 1531.91 1024.95 1536.11 L 1026.88 1676.03 C 1027.3 1698.07 1029.3 1734.78 1028.26 1755.47 C 1026 1757.6 1023.11 1758.27 1020.16 1756.85 C 1018 1750.24 1021.91 1620.37 1022.16 1604.53 C 1020.99 1577.13 1021.69 1531.35 1023.81 1504.57 z" fill="rgb(251,249,248)" transform="translate(0,0)"></path>
<path d="M 1023.81 1504.57 C 1025.85 1507.23 1025.51 1531.91 1024.95 1536.11 C 1021.51 1542.2 1024.5 1590.74 1022.16 1604.53 C 1020.99 1577.13 1021.69 1531.35 1023.81 1504.57 z" fill="rgb(199,201,206)" transform="translate(0,0)"></path>
<path d="M 1182.08 1342.44 C 1182.62 1342.4 1188.34 1341.81 1188.47 1342.79 C 1190.6 1358.51 1187.62 1387.67 1164.84 1382.49 C 1153.33 1370.68 1155.01 1359.16 1155.26 1343.48 C 1164.25 1343.03 1173.06 1342.95 1182.08 1342.44 z" fill="rgb(251,249,248)" transform="translate(0,0)"></path>
<path d="M 1224.93 1340.44 C 1226.3 1340.4 1228.44 1339.94 1228.68 1341.98 C 1230.32 1356 1219.52 1384.07 1201.56 1372.7 C 1193.7 1362.49 1193.14 1354.52 1192.93 1342.1 L 1224.93 1340.44 z" fill="rgb(251,249,248)" transform="translate(0,0)"></path>
<path d="M 955.922 1481.84 C 958.138 1483.5 957.747 1483.22 959.603 1485.3 C 959.565 1486.11 959.541 1487.22 959.334 1487.97 C 949.766 1522.64 941.199 1557.62 931.751 1592.3 C 931.331 1593.84 927.976 1595.51 926.519 1596.46 C 924.677 1596.94 925.592 1597.03 923.794 1596.05 C 924.791 1590.42 926.496 1583.62 928.196 1578.18 C 937.972 1546.9 944.833 1512.51 955.922 1481.84 z" fill="rgb(251,249,248)" transform="translate(0,0)"></path>
<path d="M 1090.58 1483.18 C 1091.17 1483.39 1091.83 1483.46 1092.35 1483.8 C 1096.14 1486.24 1122.04 1585.97 1125.48 1598.36 C 1121.59 1596.57 1120.41 1596.26 1117.27 1593.49 C 1116.28 1591.32 1113.47 1581.7 1113.23 1579.61 C 1111.55 1564.53 1087.97 1493.66 1090.58 1483.18 z" fill="rgb(251,249,248)" transform="translate(0,0)"></path>
<path d="M 963.847 1487.69 C 964.556 1488.29 967.455 1490.72 967.634 1491.37 C 968.5 1494.49 964.257 1508.05 963.384 1511.59 L 961.36 1519.58 L 960.336 1523.57 L 958.743 1529.98 L 958.322 1531.57 L 957.304 1535.55 L 956.308 1539.56 C 955.964 1540.97 955.544 1542.6 955.223 1544.02 L 954.29 1548.02 L 953.316 1552.01 C 951.31 1560.43 948.884 1569.1 947.111 1577.52 C 945.209 1586.57 947.43 1584.78 939.439 1589.58 C 935.535 1590.91 937.371 1587.29 937.985 1585 L 942.663 1566.98 L 943.169 1565.02 L 944.236 1561.02 L 945.266 1557.02 L 947.203 1549.52 C 947.69 1547.66 948.161 1545.8 948.616 1543.94 C 952.713 1526.87 958.063 1503.98 963.847 1487.69 z" fill="rgb(251,249,248)" transform="translate(0,0)"></path>
<path d="M 1084.21 1488.71 C 1086.99 1491.02 1111.49 1585.37 1110.57 1590.52 C 1101 1584.98 1103.71 1586.17 1101.2 1574.99 L 1098.7 1564.02 L 1096.2 1553.48 L 1094.23 1544.98 L 1092.27 1536.47 C 1089 1522.29 1085.1 1507.81 1081.93 1493.57 C 1081.75 1492.49 1082.12 1491.38 1082.8 1490.54 C 1083.27 1489.93 1083.74 1489.32 1084.21 1488.71 z" fill="rgb(251,249,248)" transform="translate(0,0)"></path>
<path d="M 774.743 1340.03 C 789.446 1339.91 804.15 1340.22 818.836 1340.95 C 815.529 1345.7 813.585 1348.59 809.739 1353.09 C 807.413 1355.69 805.406 1358.06 802.96 1360.58 C 793.751 1353.87 784.229 1346.2 774.743 1340.03 z" fill="rgb(251,249,248)" transform="translate(0,0)"></path>
<path d="M 1050.17 1352.82 L 1051.19 1353.67 C 1053.89 1360.78 1063.46 1400.21 1065.21 1408.04 C 1068.46 1422.53 1084.28 1474.46 1084.15 1485.93 L 1081.39 1486.33 C 1080.91 1485.9 1080.29 1485.59 1079.97 1485.04 C 1078.37 1482.24 1051.44 1362.82 1050.17 1352.82 z" fill="rgb(251,249,248)" transform="translate(0,0)"></path>
<path d="M 1273.45 1339.5 C 1273.8 1341.82 1252.55 1356.08 1249.05 1358.44 C 1245.8 1355.78 1243.99 1354.34 1240.86 1351.41 C 1227.29 1337.98 1234.31 1340.14 1248.46 1339.93 C 1256.77 1339.81 1265.14 1339.8 1273.45 1339.5 z" fill="rgb(251,249,248)" transform="translate(0,0)"></path>
<path d="M 982.435 1394.77 C 983.271 1404.25 972.073 1433.84 970.334 1445.01 C 967.871 1455.58 964.766 1466.02 962.422 1476.61 C 961.672 1480 962.1 1479.64 959.171 1480.74 C 958.993 1480.44 957.054 1477.45 957.173 1476.97 C 962.241 1456.29 969.276 1435.82 974.756 1415.15 C 976.241 1409.55 978.38 1400.59 981.626 1395.95 L 982.435 1394.77 z" fill="rgb(251,249,248)" transform="translate(0,0)"></path>
<path d="M 900.325 1614.43 L 901.587 1617.66 C 899.573 1623.79 889.136 1632.56 890.139 1620.56 C 890.279 1618.88 898.726 1615.32 900.325 1614.43 z" fill="rgb(251,249,248)" transform="translate(0,0)"></path>
<path d="M 755.706 1323.53 C 757.169 1323.46 764.688 1322.79 765.127 1323.52 C 766.272 1325.45 767.456 1331.21 763.558 1332.17 C 761.044 1330.45 749.511 1324.94 755.706 1323.53 z" fill="rgb(251,249,248)" transform="translate(0,0)"></path>
<path d="M 1282.43 1323.01 C 1284.61 1323.03 1300.03 1321.53 1293.66 1326.16 L 1292.78 1326.82 C 1283.21 1333.28 1283.9 1334.27 1282.43 1323.01 z" fill="rgb(251,249,248)" transform="translate(0,0)"></path>
<path d="M 903.941 1613.17 C 907.535 1611.05 915.507 1605.01 910.752 1616.37 C 910.077 1617.98 906.46 1620.88 904.323 1618.45 C 903.389 1618.15 902.532 1617.92 901.587 1617.66 L 900.325 1614.43 C 901.677 1613.91 902.545 1613.6 903.941 1613.17 z" fill="rgb(251,249,248)" transform="translate(0,0)"></path>
<path d="M 900.325 1614.43 C 901.677 1613.91 902.545 1613.6 903.941 1613.17 C 903.97 1615.02 904.151 1616.62 904.323 1618.45 C 903.389 1618.15 902.532 1617.92 901.587 1617.66 L 900.325 1614.43 z" fill="rgb(91,98,108)" transform="translate(0,0)"></path>
<path d="M 1151.6 1616.42 C 1160.34 1620.72 1161.3 1620.16 1160.26 1629.01 C 1151.24 1623.35 1150.18 1626.88 1151.6 1616.42 z" fill="rgb(251,249,248)" transform="translate(0,0)"></path>
<path d="M 882.784 1622.37 C 890.957 1624.19 883.319 1631 880.212 1633.43 C 873.001 1631.31 880.051 1624.62 882.784 1622.37 z" fill="rgb(251,249,248)" transform="translate(0,0)"></path>
<path d="M 1090.11 1587.59 C 1100.24 1588.49 1099.53 1589.62 1100.42 1598.15 C 1096.52 1595.87 1089.96 1593.79 1090.08 1589.06 L 1090.11 1587.59 z" fill="rgb(251,249,248)" transform="translate(0,0)"></path>
<path d="M 1135.3 1615.86 C 1133.79 1614.28 1128.07 1609.42 1132.38 1607.94 C 1135.53 1608.57 1136.72 1608.45 1139.2 1610.35 C 1139.46 1612.78 1139.73 1613.77 1140.23 1616.15 L 1140.64 1618.14 C 1138.71 1617.52 1136.9 1617.12 1135.3 1615.86 z" fill="rgb(91,98,108)" transform="translate(0,0)"></path>
<path d="M 1135.3 1615.86 C 1133.79 1614.28 1128.07 1609.42 1132.38 1607.94 C 1133.66 1610.69 1134.24 1613.07 1135.3 1615.86 z" fill="rgb(199,201,206)" transform="translate(0,0)"></path>
<path d="M 1104.81 1592.91 C 1111.03 1595.67 1112.52 1596.16 1113.2 1602.52 L 1113.43 1604.43 C 1105.12 1601.43 1106.21 1600.96 1104.81 1592.91 z" fill="rgb(251,249,248)" transform="translate(0,0)"></path>
<path d="M 1139.2 1610.35 C 1153.52 1617.43 1145.21 1624.62 1140.64 1618.14 L 1140.23 1616.15 C 1139.73 1613.77 1139.46 1612.78 1139.2 1610.35 z" fill="rgb(251,249,248)" transform="translate(0,0)"></path>
<path d="M 919.16 1604.95 C 920.843 1604.39 921.542 1603.96 923.095 1603.13 L 923.051 1604.58 C 922.968 1606.31 923.44 1607.39 924.214 1608.9 C 922.321 1610.65 921.811 1610.98 919.687 1612.46 C 912.853 1614.44 916.239 1607.78 919.16 1604.95 z" fill="rgb(63,72,84)" transform="translate(0,0)"></path>
<path d="M 919.16 1604.95 C 919.423 1607.59 919.57 1609.83 919.687 1612.46 C 912.853 1614.44 916.239 1607.78 919.16 1604.95 z" fill="rgb(199,201,206)" transform="translate(0,0)"></path>
<path d="M 955.122 1587.69 C 956.472 1587.69 956.998 1587.6 958.139 1588.36 C 959.937 1592.36 952.476 1594.51 949.959 1595.8 C 948.474 1597.37 944.849 1593.83 955.122 1587.69 z" fill="rgb(251,249,248)" transform="translate(0,0)"></path>
<path d="M 923.095 1603.13 C 928.766 1603.8 932.91 1594.15 930.955 1605.54 C 930.413 1608.69 927.617 1606.78 924.214 1608.9 C 923.44 1607.39 922.968 1606.31 923.051 1604.58 L 923.095 1603.13 z" fill="rgb(199,201,206)" transform="translate(0,0)"></path>
<path d="M 1165.66 1623.53 C 1171.9 1626.37 1172.01 1627.38 1170.25 1634.07 C 1163.75 1630.8 1164.35 1630.31 1165.66 1623.53 z" fill="rgb(251,249,248)" transform="translate(0,0)"></path>
<path d="M 942.899 1593.98 C 946.178 1598.74 942.444 1600.02 938.987 1602.09 L 937.293 1603.11 C 932.085 1598.51 939.943 1595.57 942.899 1593.98 z" fill="rgb(251,249,248)" transform="translate(0,0)"></path>
<path d="M 1117.62 1599.98 C 1121.97 1602.85 1125.21 1602.44 1125.53 1607.42 L 1125.68 1609.36 C 1118.66 1605.73 1117.14 1608.25 1117.62 1599.98 z" fill="rgb(251,249,248)" transform="translate(0,0)"></path>
<path d="M 993.789 1356.21 C 989.653 1358.85 992.268 1348.88 994.179 1352.23 L 998.037 1353.69 L 996.313 1357 L 993.789 1356.21 z" fill="rgb(140,150,159)" transform="translate(0,0)"></path>
<path d="M 993.789 1356.21 C 994.011 1354.64 994.148 1353.79 994.179 1352.23 L 998.037 1353.69 L 996.313 1357 L 993.789 1356.21 z" fill="rgb(63,72,84)" transform="translate(0,0)"></path>
<path d="M 1020.32 205.116 C 1020.21 197.807 1019.54 144.492 1021.26 141.519 C 1024.54 141.124 1024.95 140.767 1027.94 142.183 C 1029.7 147.673 1028.93 196.546 1029.18 206.394 C 1036.28 208.738 1083.18 238.056 1092.49 244.051 C 1105.29 244.489 1117.88 244.107 1130.61 244.397 C 1135.57 244.452 1134.39 243.762 1138.18 245.992 L 1139.28 248.293 C 1136.49 252.784 1114.06 251.295 1108.08 251.347 L 1039.9 251.93 C 1039.99 270.295 1039.97 300.578 1043.57 318.141 C 1041.69 320.775 1041.92 319.982 1037.86 321.064 C 1040.26 323.571 1046.61 326.394 1049.84 328.446 C 1099.53 360.02 1151.5 388.649 1201.54 419.524 C 1208.62 419.48 1233.5 417.972 1238.6 421.048 L 1239.36 423.26 C 1235.02 429.228 1211.41 426.826 1203.29 427.096 C 1188.65 436.449 1173.88 449.431 1160.36 460.632 C 1133.06 483.266 1105.37 505.411 1077.14 526.866 C 1075.4 528.191 1074.56 528.053 1072.61 527.829 L 1072.02 526.061 C 1091.12 509.96 1110.46 495.502 1129.91 479.954 L 1195.04 426.997 L 1092.41 427.093 C 1080.86 427.111 1047.62 426.459 1038.79 428.635 L 1038.17 428.837 C 1037.47 431.832 1037.74 435.198 1034.76 435.837 C 1033.3 435.619 1032.56 435.551 1031.09 435.465 L 1031.7 436.763 C 1032.66 438.741 1032.96 440.764 1033.48 442.88 C 1029.53 448.03 1033.07 484.884 1031.8 497.513 C 1031.26 503.518 1031.71 520.453 1031.72 527.313 L 1016.74 527.685 C 1016.86 500.178 1016.82 473.143 1018.37 445.663 C 1017.83 444.013 1018.04 443.581 1016.29 443.117 C 1008.03 470.827 1003.05 500.582 992.721 527.343 C 992.285 528.471 986.19 527.712 984.754 527.171 L 981.73 526.845 L 981.342 527.095 C 977.977 528.135 977.716 528.028 974.155 528.272 C 963.089 521.739 942.115 503.392 931.277 495.003 C 902.5 472.726 873.825 448.64 844.63 426.986 C 837.332 426.847 812.9 428.739 808.645 424.049 L 809.525 421.643 C 819.856 414.093 846.214 426.942 867.672 407.793 C 884.249 392.999 1003.81 330.446 1010.24 320.841 C 1002.41 315.667 1007.86 308.142 1008.91 297.6 C 1008.67 288.121 1010.49 263.282 1011.34 253.723 L 1010.71 252.846 C 1002 249.129 938.076 253.676 924.939 251.628 C 918.884 250.684 915.274 253.95 910.607 248.141 L 910.9 245.885 C 916.221 241.395 950.47 246.952 958.197 242.645 C 975.126 233.211 1003.85 216.798 1018.87 206.152 L 1020.32 205.116 z" fill="rgb(50,64,75)" transform="translate(0,0)"></path>
<path d="M 852.381 426.954 L 1011.67 427.234 C 1011.05 431.115 1010.79 434.138 1009.29 437.764 C 1012.37 440.151 1010.76 439.286 1012.36 442.253 C 1012.84 441.76 1012.48 439.802 1013.36 439.669 C 1015.48 439.349 1014.9 439.822 1017.2 438.664 C 1016.86 440.204 1016.57 441.568 1016.29 443.117 C 1008.03 470.827 1003.05 500.582 992.721 527.343 C 992.285 528.471 986.19 527.712 984.754 527.171 L 981.73 526.845 L 981.342 527.095 C 977.977 528.135 977.716 528.028 974.155 528.272 L 976.656 526.084 C 966.584 518.638 953.396 507 943.015 498.76 C 912.958 474.631 882.746 450.695 852.381 426.954 z" fill="rgb(251,249,248)" transform="translate(0,0)"></path>
<path d="M 1009.29 437.764 C 1012.37 440.151 1010.76 439.286 1012.36 442.253 C 1012.84 441.76 1012.48 439.802 1013.36 439.669 C 1015.48 439.349 1014.9 439.822 1017.2 438.664 C 1016.86 440.204 1016.57 441.568 1016.29 443.117 C 1008.03 470.827 1003.05 500.582 992.721 527.343 C 992.285 528.471 986.19 527.712 984.754 527.171 L 981.73 526.845 L 981.342 527.095 C 977.977 528.135 977.716 528.028 974.155 528.272 L 976.656 526.084 C 977.664 524.92 978.381 523.757 978.961 522.327 L 979.66 520.685 C 980.286 513.476 1005.13 449.089 1009.29 437.764 z" fill="url(#Gradient2)" transform="translate(0,0)"></path>
<path d="M 979.66 520.685 C 981.573 523.56 981.484 523.656 981.342 527.095 C 977.977 528.135 977.716 528.028 974.155 528.272 L 976.656 526.084 C 977.664 524.92 978.381 523.757 978.961 522.327 L 979.66 520.685 z" fill="rgb(63,72,84)" transform="translate(0,0)"></path>
<path d="M 981.73 526.845 L 981.953 524.933 C 982.649 517.911 984.354 525.407 984.754 527.171 L 981.73 526.845 z" fill="rgb(160,163,174)" transform="translate(0,0)"></path>
<path d="M 857.848 419.406 C 901.31 388.924 953.146 363.901 997.856 334.569 C 1002.04 331.825 1010.18 326.249 1014.37 324.516 C 1015.25 327.225 1014.35 329.769 1013.83 332.894 C 1013.73 359.725 1013.06 392.175 1011.71 418.905 C 960.42 418.727 909.133 418.894 857.848 419.406 z" fill="rgb(251,249,248)" transform="translate(0,0)"></path>
<path d="M 1029.18 206.394 C 1036.28 208.738 1083.18 238.056 1092.49 244.051 C 1105.29 244.489 1117.88 244.107 1130.61 244.397 C 1125.53 245.781 1086.11 246.414 1082.77 244.419 C 1065.4 243.787 1046.43 244.128 1028.96 244.145 C 1028.88 233.373 1029.23 221.461 1028.77 210.834 C 1028.85 208.822 1028.89 208.418 1029.18 206.394 z" fill="rgb(251,249,248)" transform="translate(0,0)"></path>
<path d="M 1029.18 206.394 C 1036.28 208.738 1083.18 238.056 1092.49 244.051 C 1105.29 244.489 1117.88 244.107 1130.61 244.397 C 1125.53 245.781 1086.11 246.414 1082.77 244.419 C 1083.25 243.722 1083.16 244.044 1083.25 243.53 C 1082.9 242.545 1034.32 214.407 1028.77 210.834 C 1028.85 208.822 1028.89 208.418 1029.18 206.394 z" fill="rgb(63,72,84)" transform="translate(0,0)"></path>
<path d="M 1013.99 252.17 C 1015.39 252.089 1018.87 251.445 1020.04 252.685 C 1020.63 253.305 1021.76 303.592 1020.85 307.442 C 1020.72 307.994 1020.29 308.357 1019.81 308.598 C 1018.45 309.266 1013.88 309.713 1012.58 308.936 C 1011.76 308.446 1012.03 304.697 1012.01 304.175 C 1012 303.534 1011.93 302.895 1011.88 302.256 C 1010.31 304.439 1011.11 309.144 1009.96 309.872 C 1009.9 309.857 1009.85 309.842 1009.79 309.828 C 1009.45 309.04 1009.17 299.677 1008.91 297.6 C 1008.67 288.121 1010.49 263.282 1011.34 253.723 C 1012.47 252.57 1012.31 252.738 1013.99 252.17 z" fill="rgb(251,249,248)" transform="translate(0,0)"></path>
<path d="M 1011.34 253.723 C 1012.47 252.57 1012.31 252.738 1013.99 252.17 C 1014.26 265.152 1012.58 288.403 1011.88 302.256 C 1010.31 304.439 1011.11 309.144 1009.96 309.872 C 1009.9 309.857 1009.85 309.842 1009.79 309.828 C 1009.45 309.04 1009.17 299.677 1008.91 297.6 C 1008.67 288.121 1010.49 263.282 1011.34 253.723 z" fill="rgb(31,39,50)" transform="translate(0,0)"></path>
<path d="M 1013.83 332.894 L 1017.34 330.627 C 1017.29 341.749 1013.16 415.73 1016.84 419.16 C 1012.04 422.431 1011.12 428.062 1013.99 432.931 C 1014.12 433.596 1014.23 434.147 1014.53 434.718 C 1014.98 434.839 1015.1 434.719 1015.64 434.55 L 1018.79 436.288 C 1018.21 437.094 1017.74 437.831 1017.2 438.664 C 1014.9 439.822 1015.48 439.349 1013.36 439.669 C 1012.48 439.802 1012.84 441.76 1012.36 442.253 C 1010.76 439.286 1012.37 440.151 1009.29 437.764 C 1010.79 434.138 1011.05 431.115 1011.67 427.234 C 1011.48 424.447 1011.64 421.703 1011.71 418.905 C 1013.06 392.175 1013.73 359.725 1013.83 332.894 z" fill="rgb(31,39,50)" transform="translate(0,0)"></path>
<path d="M 1017.34 330.627 C 1020.21 335.19 1018.81 349.666 1018.19 354.999 C 1017.03 364.977 1021.88 414.231 1016.84 419.16 C 1013.16 415.73 1017.29 341.749 1017.34 330.627 z" fill="rgb(199,201,206)" transform="translate(0,0)"></path>
<path d="M 1031.09 435.465 L 1031.7 436.763 C 1032.66 438.741 1032.96 440.764 1033.48 442.88 C 1029.53 448.03 1033.07 484.884 1031.8 497.513 C 1030.11 482.466 1031.12 451.382 1031.09 435.465 z" fill="rgb(199,201,206)" transform="translate(0,0)"></path>
<path d="M 1034.76 435.837 C 1033.85 432.788 1030.62 426.558 1036.43 428.829 L 1036.72 428.661 C 1036.79 428.435 1036.88 427.97 1037.07 427.84 C 1037.61 428.101 1037.7 428.259 1038.17 428.837 C 1037.47 431.832 1037.74 435.198 1034.76 435.837 z" fill="rgb(91,98,108)" transform="translate(0,0)"></path>
<path d="M 1018.79 436.288 C 1018.99 439.138 1019.37 442.956 1018.37 445.663 C 1017.83 444.013 1018.04 443.581 1016.29 443.117 C 1016.57 441.568 1016.86 440.204 1017.2 438.664 C 1017.74 437.831 1018.21 437.094 1018.79 436.288 z" fill="rgb(160,163,174)" transform="translate(0,0)"></path>
<path d="M 1013.99 432.931 C 1015.74 432.772 1017.31 431.925 1015.64 434.55 C 1015.1 434.719 1014.98 434.839 1014.53 434.718 C 1014.23 434.147 1014.12 433.596 1013.99 432.931 z" fill="rgb(160,163,174)" transform="translate(0,0)"></path>
<path d="M 1030.51 329.283 C 1030.58 323.733 1033.23 327.642 1033.32 324.421 C 1033.6 326.614 1034.52 328.635 1034.9 330.83 C 1035.14 327.783 1034.65 326.773 1036.22 324.879 C 1079.25 353.181 1126.25 378.9 1170.14 406.075 C 1177.28 410.497 1185.46 415.207 1192.92 419.043 L 1083.85 419.106 C 1075.9 419.1 1044.59 419.589 1039.22 418.372 L 1038.26 417.243 C 1038.17 417.279 1038.09 417.315 1038.01 417.351 C 1037.59 417.493 1037.17 417.634 1036.75 417.776 C 1036.61 417.651 1036.48 417.527 1036.34 417.402 C 1036.1 417.017 1035.86 416.632 1035.63 416.247 C 1029.51 426.801 1030.88 407.733 1030.85 406 C 1030.42 380.402 1030.42 354.884 1030.51 329.283 z" fill="rgb(251,249,248)" transform="translate(0,0)"></path>
<path d="M 1030.51 329.283 C 1030.58 323.733 1033.23 327.642 1033.32 324.421 C 1033.6 326.614 1034.52 328.635 1034.9 330.83 C 1035.42 337.2 1035.36 344.04 1035.59 350.502 C 1036.37 372.705 1037.49 395.056 1038.26 417.243 C 1038.17 417.279 1038.09 417.315 1038.01 417.351 C 1037.59 417.493 1037.17 417.634 1036.75 417.776 C 1036.61 417.651 1036.48 417.527 1036.34 417.402 C 1036.1 417.017 1035.86 416.632 1035.63 416.247 C 1029.51 426.801 1030.88 407.733 1030.85 406 C 1030.42 380.402 1030.42 354.884 1030.51 329.283 z" fill="rgb(31,39,50)" transform="translate(0,0)"></path>
<path d="M 1030.51 329.283 C 1033.03 334.821 1033.73 403.503 1035.63 416.247 C 1029.51 426.801 1030.88 407.733 1030.85 406 C 1030.42 380.402 1030.42 354.884 1030.51 329.283 z" fill="rgb(199,201,206)" transform="translate(0,0)"></path>
<path d="M 970.572 241.039 C 986.878 230.975 1003.29 221.08 1019.8 211.356 C 1019.74 222.836 1019.93 232.595 1019 244.043 C 1003.91 244.104 987.662 244.05 972.587 244.517 L 970.572 241.039 z" fill="rgb(251,249,248)" transform="translate(0,0)"></path>
<path d="M 1029.03 251.856 C 1029.3 251.87 1035.29 251.875 1035.34 252.531 C 1036.83 271.222 1037.39 291.261 1037.37 310.089 C 1036.51 309.93 1029.41 308.884 1029.37 308.376 C 1027.99 290.392 1029 269.908 1029.03 251.856 z" fill="rgb(251,249,248)" transform="translate(0,0)"></path>
<path d="M 970.572 241.039 L 972.587 244.517 C 971.812 244.507 971.037 244.508 970.262 244.519 C 969.297 244.558 966.928 244.907 966.697 243.653 C 967.332 242.485 969.417 241.655 970.572 241.039 z" fill="rgb(251,249,248)" transform="translate(0,0)"></path>
<path d="M 1025.96 598.355 C 1042.85 597.013 1057.58 605.423 1071.08 613.885 C 1097.61 630.585 1113.61 655.751 1124.47 684.252 C 1136.19 715.04 1137.9 749.222 1122.88 779.243 C 1119.43 786.124 1112.4 795.432 1107.84 802.145 C 1107.03 799.067 1111.64 785.218 1111.13 779.411 C 1109.41 759.73 1093.68 751.063 1078.79 741.711 C 1057.79 728.525 1042.24 722.117 1017.34 722.717 C 991.378 723.775 954.771 745.548 939.877 766.76 C 929.785 781.132 943.043 800.512 939.837 805.455 L 935.486 804.472 C 927.91 796.568 917.655 761.256 916.376 749.59 C 907.794 671.345 942.61 609.78 1025.96 598.355 z" fill="rgb(50,64,75)" transform="translate(0,0)"></path>
<path d="M 1085.55 669.1 C 1109.99 669.416 1115.62 694.494 1092.92 702.962 C 1089.23 703.13 1084.44 703.616 1080.99 702.288 C 1076.95 700.687 1073.73 697.517 1072.06 693.502 C 1066.83 680.974 1074.1 672.866 1085.55 669.1 z" fill="rgb(251,249,248)" transform="translate(0,0)"></path>
<path d="M 1083.1 674.762 C 1096.29 678.237 1095.28 689.563 1085.2 696.019 C 1071.21 693.584 1071.69 681.435 1083.1 674.762 z" fill="rgb(50,64,75)" transform="translate(0,0)"></path>
<path d="M 956.709 669 C 966.281 667.13 975.562 673.357 977.462 682.923 C 979.362 692.49 973.164 701.79 963.603 703.719 C 954.001 705.657 944.651 699.426 942.743 689.817 C 940.835 680.209 947.095 670.878 956.709 669 z" fill="rgb(251,249,248)" transform="translate(0,0)"></path>
<path d="M 961.28 676.781 C 966.005 675.03 971.269 677.323 973.206 681.974 C 975.143 686.626 973.061 691.977 968.49 694.097 C 965.367 695.546 961.702 695.168 958.94 693.114 C 956.177 691.06 954.761 687.659 955.249 684.251 C 955.738 680.843 958.052 677.977 961.28 676.781 z" fill="rgb(50,64,75)" transform="translate(0,0)"></path>
<path d="M 786.225 653.382 C 815.934 652.105 856.729 668.153 864.498 699.83 C 870.208 723.114 865.806 750.62 860.654 773.661 C 854.142 802.786 823.097 820.069 794.802 811.462 C 768.505 804.574 766.17 791.691 748.658 774.15 C 722.036 747.867 690.716 728.617 655.747 715.624 C 648.39 712.89 633.453 708.128 627.677 704.603 L 628.205 703.084 C 666.202 689.759 705.941 703.893 743.684 712.168 C 752.12 714.018 764.932 718.442 772.963 718.444 L 773.452 717.783 C 765.153 712.436 687.473 694.475 672.274 693.929 C 644.988 692.948 633.838 693.269 612.928 710.612 C 628.75 674.692 677.799 669.206 712.003 667.339 C 727.234 666.507 744.715 667.909 759.57 664.69 C 769.656 654.887 772.448 654.69 786.225 653.382 z" fill="rgb(50,64,75)" transform="translate(0,0)"></path>
<path d="M 801.776 681.342 C 806.306 679.599 811.425 680.459 815.138 683.585 C 818.85 686.712 820.567 691.611 819.619 696.371 C 818.671 701.132 815.208 704.999 810.581 706.465 C 803.72 708.64 796.372 704.968 793.991 698.175 C 791.61 691.382 795.058 683.927 801.776 681.342 z" fill="rgb(251,249,248)" transform="translate(0,0)"></path>
<path d="M 803.33 687.596 C 805.991 686.411 809.107 687.621 810.271 690.292 C 811.435 692.962 810.201 696.069 807.522 697.212 C 804.872 698.343 801.806 697.124 800.655 694.484 C 799.504 691.843 800.698 688.768 803.33 687.596 z" fill="rgb(50,64,75)" transform="translate(0,0)"></path>
<path d="M 950.556 805.445 C 947.994 797.605 942.116 777.655 946.823 771.14 C 958.086 755.548 989.492 736.659 1007.53 730.902 C 1025.45 725.184 1044.77 730.503 1060.09 739.36 C 1073.06 747.44 1093.25 759.01 1101.43 771.535 C 1101.3 782.824 1099.92 795.572 1095.04 805.9 C 1093.24 812.16 1080.7 817.605 1075.58 823.732 C 1053.79 849.79 1048.33 865.32 1043.54 897.463 C 1059.01 901.537 1070.27 905.5 1073.53 922.66 L 1073.73 923.781 C 1073.95 931.916 1073.73 933.929 1071.39 941.565 C 1064.17 948.239 1064.45 948.181 1058.45 955.759 C 1056.59 954.545 1056.72 954.54 1054.64 953.964 C 1052.02 949.609 1049.58 946.736 1046.44 942.755 C 1045.34 943.029 1044.37 943.328 1043.29 943.649 C 1039.94 944.041 1037.44 943.839 1034.22 944.845 L 1032.69 947.072 C 1030.52 958.882 1031.97 987.635 1032.47 1001.28 C 1033.1 1018.85 1031.57 1052.24 1033.88 1068.28 L 1031.47 1066.66 C 1028.31 1056.67 1030.05 1005.36 1029.23 991.972 C 1029.06 979.252 1028.78 966.519 1028.5 953.802 C 1028.41 949.526 1031.44 948.94 1031.41 944.416 C 1028.64 943.381 1021.45 943.834 1018.12 943.88 C 1014.38 947.771 1014.68 948.297 1014.26 954.263 C 1014.33 950.54 1014.26 948.852 1013.86 945.149 C 1006.76 939.451 980.745 941.553 977.381 926.032 C 972.85 905.128 998.719 900.432 1013.33 896.561 C 1009.78 863.277 993.78 835.127 966.111 815.73 C 962.064 812.892 952.562 809.037 950.556 805.445 z" fill="rgb(50,64,75)" transform="translate(0,0)"></path>
<path d="M 1039.46 897.061 C 1042.7 882.256 1045.25 870.671 1050.93 856.495 C 1057.59 839.861 1078.29 812.58 1095.04 805.9 C 1093.24 812.16 1080.7 817.605 1075.58 823.732 C 1053.79 849.79 1048.33 865.32 1043.54 897.463 C 1059.01 901.537 1070.27 905.5 1073.53 922.66 L 1073.73 923.781 C 1073.95 931.916 1073.73 933.929 1071.39 941.565 C 1064.17 948.239 1064.45 948.181 1058.45 955.759 C 1056.59 954.545 1056.72 954.54 1054.64 953.964 C 1052.02 949.609 1049.58 946.736 1046.44 942.755 C 1045.34 943.029 1044.37 943.328 1043.29 943.649 C 1039.94 944.041 1037.44 943.839 1034.22 944.845 L 1032.69 947.072 C 1030.52 958.882 1031.97 987.635 1032.47 1001.28 C 1033.1 1018.85 1031.57 1052.24 1033.88 1068.28 L 1031.47 1066.66 C 1028.31 1056.67 1030.05 1005.36 1029.23 991.972 C 1029.06 979.252 1028.78 966.519 1028.5 953.802 C 1028.41 949.526 1031.44 948.94 1031.41 944.416 C 1028.64 943.381 1021.45 943.834 1018.12 943.88 C 1014.38 947.771 1014.68 948.297 1014.26 954.263 C 1014.33 950.54 1014.26 948.852 1013.86 945.149 C 1006.76 939.451 980.745 941.553 977.381 926.032 C 972.85 905.128 998.719 900.432 1013.33 896.561 C 1015.06 896.82 1016.21 897.041 1017.92 897.429 C 1024.05 896.397 1033.02 896.913 1039.46 897.061 z" fill="rgb(219,146,73)" transform="translate(0,0)"></path>
<path d="M 1069.05 931.978 C 1068.99 929.731 1070.65 921.751 1073.73 923.781 C 1073.95 931.916 1073.73 933.929 1071.39 941.565 C 1064.17 948.239 1064.45 948.181 1058.45 955.759 C 1056.59 954.545 1056.72 954.54 1054.64 953.964 C 1052.02 949.609 1049.58 946.736 1046.44 942.755 C 1059.2 938.426 1056.54 939.499 1067.58 932.851 L 1069.05 931.978 z" fill="rgb(63,72,84)" transform="translate(0,0)"></path>
<path d="M 1046.44 942.755 C 1059.2 938.426 1056.54 939.499 1067.58 932.851 L 1069.05 931.978 C 1067.2 940.949 1065.22 938.547 1060.39 945.383 C 1058.47 948.094 1056.33 951.088 1054.64 953.964 C 1052.02 949.609 1049.58 946.736 1046.44 942.755 z" fill="rgb(251,249,248)" transform="translate(0,0)"></path>
<path d="M 950.556 805.445 C 960.444 805.573 976.922 819.209 983.914 826.089 C 1001.46 843.354 1014.72 872.997 1017.92 897.429 C 1016.21 897.041 1015.06 896.82 1013.33 896.561 C 1009.78 863.277 993.78 835.127 966.111 815.73 C 962.064 812.892 952.562 809.037 950.556 805.445 z" fill="rgb(219,146,73)" transform="translate(0,0)"></path>
<path d="M 1267.5 656.371 C 1272.71 655.666 1291.13 654.298 1293.68 659.457 C 1292.16 661.415 1288.14 665.986 1288.14 668.256 C 1288.12 692.431 1302.7 701.518 1293.7 727.861 C 1286.61 748.609 1293.34 769.034 1304.86 787.418 C 1297.34 793.039 1288.54 799.964 1283.86 808.166 C 1270.11 832.276 1261.31 839.414 1233.23 843.007 C 1226.33 842.862 1217.24 842.416 1212.17 837.291 C 1194.49 819.412 1185.98 773.12 1182.72 749.447 C 1175.17 694.598 1216.65 662.305 1267.5 656.371 z" fill="rgb(50,64,75)" transform="translate(0,0)"></path>
<path d="M 1246.44 684.355 C 1253.65 682.389 1261.11 686.555 1263.21 693.724 C 1265.31 700.893 1261.29 708.426 1254.16 710.665 C 1249.43 712.151 1244.26 710.965 1240.65 707.564 C 1237.04 704.162 1235.55 699.076 1236.75 694.263 C 1237.95 689.45 1241.66 685.661 1246.44 684.355 z" fill="rgb(251,249,248)" transform="translate(0,0)"></path>
<path d="M 1248.96 691.632 C 1250.59 690.526 1252.7 690.417 1254.44 691.349 C 1256.18 692.28 1257.26 694.1 1257.25 696.073 C 1257.23 698.047 1256.13 699.849 1254.37 700.754 C 1251.87 702.044 1248.8 701.163 1247.37 698.745 C 1245.93 696.326 1246.63 693.208 1248.96 691.632 z" fill="rgb(50,64,75)" transform="translate(0,0)"></path>
<path d="M 1532.75 657.426 C 1537.73 657.162 1546.51 655.749 1549.88 657.76 C 1551.96 669.965 1558.55 677.286 1559.12 690.012 C 1560.39 709.987 1538.78 723.748 1539.14 743.029 C 1539.35 754.95 1552.35 753.359 1560.09 752.266 C 1548.68 770.929 1529.3 779.519 1508.08 781.187 C 1481.19 781.214 1458.93 769.791 1456.77 740.158 C 1453.04 689.211 1484.06 661.482 1532.75 657.426 z" fill="rgb(50,64,75)" transform="translate(0,0)"></path>
<path d="M 1516.34 676.99 C 1533.06 677.44 1540.73 692.595 1524.08 700.957 C 1506.47 701.175 1500.83 687.181 1516.34 676.99 z" fill="rgb(251,249,248)" transform="translate(0,0)"></path>
<path d="M 1517.22 684.567 C 1518.75 683.538 1520.72 683.43 1522.35 684.285 C 1523.98 685.139 1525.01 686.819 1525.04 688.66 C 1525.06 690.501 1524.07 692.206 1522.46 693.102 C 1520.12 694.409 1517.16 693.634 1515.75 691.345 C 1514.35 689.056 1515 686.067 1517.22 684.567 z" fill="rgb(63,72,84)" transform="translate(0,0)"></path>
<path d="M 496.703 665.969 C 529.689 655.056 572.582 658.824 583.014 698.414 C 590.37 726.332 587.15 763.872 553.542 772.216 C 530.504 777.686 503.484 760.452 483.83 749.608 L 482.598 745.79 C 549.586 737.741 459.209 711.072 496.703 665.969 z" fill="rgb(50,64,75)" transform="translate(0,0)"></path>
<path d="M 529.889 678.125 C 547.507 676.947 554.342 689.027 540.664 699.401 C 522.136 702.563 516.077 687.959 529.889 678.125 z" fill="rgb(251,249,248)" transform="translate(0,0)"></path>
<path d="M 533.455 683.563 C 535.822 682.572 538.55 683.621 539.644 685.943 C 540.737 688.265 539.808 691.036 537.536 692.23 C 535.975 693.05 534.09 692.948 532.628 691.963 C 531.165 690.979 530.361 689.271 530.534 687.516 C 530.707 685.762 531.828 684.243 533.455 683.563 z" fill="rgb(50,64,75)" transform="translate(0,0)"></path>
<path d="M 1559.41 656.995 C 1566.49 658.239 1574.46 658.419 1581.75 659.477 C 1631.16 666.649 1676.91 689.527 1694.38 739.134 C 1692.25 737.8 1689.03 735.364 1686.89 733.838 C 1649.87 706.474 1602.48 701.698 1559 714.411 C 1574.73 677.576 1554.36 675.328 1559.41 656.995 z" fill="rgb(50,64,75)" transform="translate(0,0)"></path>
<path d="M 1305.23 660.207 C 1338.92 656.917 1406.24 688.656 1430.79 710.089 C 1420.25 708.431 1412.05 707.789 1401.5 707.05 C 1364.47 706.327 1334 712.533 1300.34 727.696 C 1308.18 701.217 1292.71 690.325 1296.5 665.692 C 1296.95 662.736 1302.47 661.008 1305.23 660.207 z" fill="rgb(50,64,75)" transform="translate(0,0)"></path>
<path d="M 1060.05 957.248 C 1065.03 952.239 1066.28 950.995 1072.17 947.181 C 1090.51 961.185 1121.91 979.056 1142.01 991.072 L 1140.29 991.736 C 1134.65 994.004 1128.2 995.082 1122.25 996.422 C 1123.34 1002.6 1124.82 1008.95 1126.03 1015.24 C 1109.82 1005.75 1098.21 997.625 1081.2 988.167 C 1086.54 997.778 1096.16 1006.58 1101.53 1016.46 C 1102.2 1017.68 1111.18 1027.91 1108.37 1028.64 C 1105.55 1029.38 1093.9 1026.59 1090.86 1026.05 C 1091.16 1034.36 1091.22 1033.86 1089.99 1041.5 L 1089.11 1047.22 C 1073.71 1027.27 1058.69 1005.61 1043.65 985.31 C 1038 977.674 1046.91 966.294 1053.15 961.523 L 1053.88 962.818 C 1055.47 961.539 1055.17 961.717 1056.41 959.984 C 1058.55 960.134 1057.92 961.359 1058.56 962.378 L 1058.65 962.334 L 1058.54 962.307 L 1058.53 962.213 C 1059.56 961.135 1059.77 960.225 1060.6 958.824 C 1060.41 958.299 1060.23 957.774 1060.05 957.248 z" fill="rgb(222,13,47)" transform="translate(0,0)"></path>
<path d="M 1053.88 962.818 C 1055.47 961.539 1055.17 961.717 1056.41 959.984 C 1058.55 960.134 1057.92 961.359 1058.56 962.378 L 1058.65 962.334 L 1058.54 962.307 L 1058.53 962.213 C 1059.56 961.135 1059.77 960.225 1060.6 958.824 C 1068.64 967.967 1070.08 966.65 1074.37 978.427 C 1071.26 977.564 1071.2 977.812 1068.98 975.532 C 1064.93 970.767 1060.1 971.374 1053.23 970.26 C 1051.82 967.145 1052.78 966.114 1053.88 962.818 z" fill="rgb(50,64,75)" transform="translate(0,0)"></path>
<path d="M 1053.23 970.26 C 1060.1 971.374 1064.93 970.767 1068.98 975.532 C 1060.09 984.289 1059.75 982.448 1053.64 971.017 L 1053.23 970.26 z" fill="rgb(251,249,248)" transform="translate(0,0)"></path>
<path d="M 558.11 776.429 L 559.222 776.316 C 568.862 792.23 573.786 886.817 576.048 908.235 C 616.715 918.518 598.048 947.492 559.246 944.484 C 548.131 942.336 530.755 935.14 538.444 920.124 C 542.417 912.366 552.147 910.016 559.942 907.629 C 557.87 861.546 558.631 820.654 539.58 778.175 C 546.842 778.191 550.936 777.506 558.11 776.429 z" fill="rgb(50,64,75)" transform="translate(0,0)"></path>
<path d="M 1491.63 786.445 C 1497.08 787.426 1503.52 787.053 1509.14 786.989 C 1495.13 818.926 1494.42 873.359 1493.99 908.563 C 1524.4 915.119 1525.53 935.603 1494.84 944.076 C 1456.67 948.813 1434.05 920.527 1476.88 907.988 C 1481.04 867.643 1479.55 826.411 1491.63 786.445 z" fill="rgb(50,64,75)" transform="translate(0,0)"></path>
<path d="M 1382.53 715.405 C 1390.91 714.277 1414.11 714.727 1421.93 715.659 C 1416.82 719.207 1411.03 722.567 1405.55 725.576 C 1378.15 740.639 1352.84 756.408 1327.59 774.904 C 1323.63 778.211 1319.18 782.385 1314.63 784.568 C 1304.5 779.083 1296.33 749.385 1300.47 738.024 C 1313.53 725.084 1364.52 716.988 1382.53 715.405 z" fill="rgb(50,64,75)" transform="translate(0,0)"></path>
<path d="M 822.271 815.312 C 822.798 815.697 823.325 816.082 823.852 816.467 C 825.327 846.968 828.201 878.31 829.13 908.597 C 837.314 910.561 852.799 915.086 852.795 925.14 C 852.788 942.483 828.838 944.669 816.828 944.909 C 783.115 939.693 778.588 916.056 812.219 908.584 C 809.804 883.563 807.068 841.618 806.838 817.161 C 813.612 816.942 815.614 816.677 822.271 815.312 z" fill="rgb(50,64,75)" transform="translate(0,0)"></path>
<path d="M 430.995 666.342 C 442.693 664.837 474.944 666.956 489.028 667.131 C 476.964 682.834 479.402 692.861 487.197 709.696 C 467.264 705.811 446.952 698.169 427.235 696.374 C 401.994 695.654 387.277 700.23 365.201 710.793 C 366.911 707.954 368.769 705.207 370.768 702.563 C 385.214 683.501 407.121 669.64 430.995 666.342 z" fill="rgb(50,64,75)" transform="translate(0,0)"></path>
<path d="M 1220.88 850.201 C 1227.51 851.49 1233.48 851.319 1240.22 851.319 C 1238.9 871.871 1237.47 887.746 1237.68 908.814 C 1269.88 917.193 1267.33 937.775 1236.56 943.813 C 1198.94 947.135 1176.05 921.13 1218.86 908.322 C 1219.29 893.584 1219.28 863.436 1220.88 850.201 z" fill="rgb(50,64,75)" transform="translate(0,0)"></path>
<path d="M 1023.37 1792.07 C 1029.77 1792.65 1038.18 1795.18 1037.35 1803.4 C 1036.32 1813.54 1029.37 1816.85 1022.88 1823 C 1030.13 1824.1 1039.51 1822.06 1045.44 1823.7 C 1046.35 1826.79 1046.44 1825.34 1045.33 1828.2 C 1040.6 1829.62 1033.93 1829.12 1028.79 1829.07 C 1028.92 1840.82 1022.77 1881.69 1040.87 1878.43 C 1046.6 1877.39 1052.6 1871.21 1055.74 1866.48 L 1055.05 1865.42 L 1048.08 1864.65 L 1047.36 1863.72 C 1051.48 1859.05 1060.9 1853.4 1066.29 1850.11 C 1066.52 1856.21 1068.69 1868.11 1066.09 1872.4 C 1062.95 1872.18 1062.86 1871.07 1059.88 1868.38 C 1055.01 1881.22 1049.64 1887.14 1037.51 1894.51 C 1034.09 1896.59 1025.76 1901.3 1022.5 1900.27 C 1003.98 1887.51 997.505 1892.52 987.695 1866.82 L 981.766 1877.59 C 981.578 1867.46 982.244 1859.22 983.236 1849.16 C 988.993 1854.63 997.166 1859.44 1001.45 1864.67 C 998.478 1864.65 997.311 1864.7 994.244 1865.05 L 993.7 1866.52 C 997.069 1874.9 1011.72 1883.86 1016.63 1876.19 C 1022.82 1866.56 1020.47 1842.03 1020.4 1829.52 C 1014.63 1829.35 1008.86 1829.1 1003.1 1828.76 C 1001.08 1826.77 1001.55 1827.98 1001.33 1825.19 C 1007.33 1821.88 1015.73 1826.84 1021.05 1821.22 C 1020.49 1814.94 996.411 1799.53 1023.37 1792.07 z" fill="rgb(50,64,75)" transform="translate(0,0)"></path>
<path d="M 1021.66 1797.49 C 1024.31 1796.47 1027.31 1796.99 1029.46 1798.85 C 1031.6 1800.71 1032.55 1803.6 1031.92 1806.37 C 1031.29 1809.14 1029.19 1811.33 1026.45 1812.08 C 1022.5 1813.16 1018.4 1810.95 1017.12 1807.06 C 1015.85 1803.17 1017.84 1798.96 1021.66 1797.49 z" fill="rgb(251,249,248)" transform="translate(0,0)"></path>
<path d="M 305.213 791.507 C 306.876 792.508 307.786 792.619 307.913 795.41 C 308.487 808.075 308.058 821.947 308.037 834.506 L 308.057 931.45 C 307.972 976.801 298.914 1032.29 349.782 1052.01 C 369.061 1059.49 421.532 1056.9 444.87 1056.92 L 649.426 1056.91 C 660.832 1056.9 752.957 1055.64 757.746 1058.22 L 757.714 1060.82 L 478.583 1060.34 L 409.601 1060.55 C 373.479 1060.71 337.652 1064.24 315.608 1028.79 C 310.164 1019.91 306.734 1009.93 305.559 999.58 C 304.225 988.408 304.747 971.871 304.78 960.336 L 304.878 897.694 L 304.392 830.123 C 304.317 821.733 303.644 798.791 305.213 791.507 z" fill="rgb(31,39,50)" transform="translate(0,0)"></path>
<path d="M 1553.57 721.699 C 1557.8 719.539 1562.23 717.8 1566.8 716.508 C 1595.74 708.122 1640.9 711.857 1667.77 726.391 C 1664.96 727.79 1664.62 727.708 1661.47 728.366 C 1652.92 727.158 1643.21 726.037 1634.42 726.959 C 1606.19 729.92 1580.99 748.973 1552.76 744.852 C 1549.32 744.349 1548.04 743.409 1546.26 740.94 C 1546.41 733.855 1550.22 727.916 1553.57 721.699 z" fill="rgb(50,64,75)" transform="translate(0,0)"></path>
<path d="M 410.78 701.368 C 436.916 699.728 455.299 707.286 479.182 716.49 C 484.407 718.504 487.095 717.673 491.956 717.827 C 495.598 722.476 500.129 727.807 502.706 733.048 C 504.151 735.987 496.117 737.377 494.649 737.733 C 480.952 739.581 471.581 739.955 458.569 734.117 C 452.963 731.601 404.203 705.778 403.262 703.378 C 403.575 701.72 409.498 701.562 410.78 701.368 z" fill="rgb(50,64,75)" transform="translate(0,0)"></path>
<path d="M 392.671 486.117 C 429.705 485.696 780.189 484.485 784.747 487.161 C 783.277 488.808 782.818 489.228 779.974 489.235 C 765.943 489.27 751.643 489.154 737.633 489.161 L 646.5 489.242 L 381.192 489.122 C 382.738 484.186 388.159 489.498 392.671 486.117 z" fill="rgb(6,7,10)" transform="translate(0,0)"></path>
<path d="M 1671.7 488.794 C 1656.83 489.95 1632.49 489.162 1617.07 489.153 L 1515.2 489.114 L 1351.8 489.137 C 1323.9 489.154 1295.91 489.181 1268.01 489.165 C 1264.25 489.163 1264.01 489.511 1262.15 487.583 L 1263.08 486.338 C 1274.86 485.228 1297.01 485.88 1309.58 485.873 L 1397.66 485.864 C 1483.62 485.871 1571.18 484.972 1656.98 486.08 L 1671.04 487.531 L 1671.7 488.794 z" fill="rgb(6,7,10)" transform="translate(0,0)"></path>
<path d="M 1740.61 983.985 C 1741.03 985.9 1741.16 986.253 1741.91 988.068 C 1745.28 979.115 1741 930.12 1743.81 914.704 L 1744.08 962.875 C 1744.22 991.817 1746.37 1017.69 1723.98 1039.69 C 1701.87 1061.42 1681.15 1061.06 1652.78 1060.97 L 1511.44 1060.26 C 1513.53 1059.56 1516.75 1057.9 1518.85 1056.92 L 1622.64 1056.76 C 1638.05 1056.78 1672.97 1057.81 1686.38 1055.04 C 1698.35 1052.5 1709.44 1046.86 1718.54 1038.69 C 1735.7 1023.1 1739.55 1005.96 1740.61 983.985 z" fill="url(#Gradient1)" transform="translate(0,0)"></path>
<path d="M 1038.17 428.837 L 1038.79 428.635 C 1042.77 447.809 1056.07 480.253 1062.11 500.188 C 1065.41 506.91 1067.7 518.901 1071 525.993 C 1071.93 527.99 1064.43 527.346 1063.47 527.195 L 1062.49 526.761 L 1058.43 527.782 C 1054.85 526.11 1055.3 526.509 1054.32 522.457 C 1052.95 516.788 1051.52 511.134 1050.03 505.495 C 1045.77 489.641 1041.3 473.337 1037.3 457.447 L 1036.29 453.455 C 1035.45 449.906 1034.51 446.38 1033.48 442.88 C 1032.96 440.764 1032.66 438.741 1031.7 436.763 L 1031.09 435.465 C 1032.56 435.551 1033.3 435.619 1034.76 435.837 C 1037.74 435.198 1037.47 431.832 1038.17 428.837 z" fill="rgb(63,72,84)" transform="translate(0,0)"></path>
<path d="M 1063.47 527.195 C 1066.85 522.604 1054.2 497.929 1056.64 495.753 C 1058.42 496.971 1060.39 498.806 1062.11 500.188 C 1065.41 506.91 1067.7 518.901 1071 525.993 C 1071.93 527.99 1064.43 527.346 1063.47 527.195 z" fill="rgb(91,98,108)" transform="translate(0,0)"></path>
<path d="M 1058.43 527.782 C 1058.79 524.946 1057.81 518.188 1058.88 517.379 C 1060.55 517.423 1062.08 525.06 1062.49 526.761 L 1058.43 527.782 z" fill="rgb(113,124,137)" transform="translate(0,0)"></path>
<path d="M 381.192 489.122 C 379.599 489.493 376.19 489.646 374.491 489.745 C 361.633 490.492 349.693 493.786 338.719 500.677 C 300.2 524.864 307.967 573.59 308.013 613.058 L 308.08 711.955 C 308.08 717.58 308.587 744.279 307.404 748.313 L 305.622 748.587 C 303.689 744.401 305.059 573.235 304.768 555.827 C 304.488 539.127 313.539 515.587 327.354 503.899 C 348.905 485.666 366.166 485.149 392.671 486.117 C 388.159 489.498 382.738 484.186 381.192 489.122 z" fill="rgb(31,39,50)" transform="translate(0,0)"></path>
<path d="M 790.163 1764.17 C 771.387 1764.84 749.749 1764.39 730.705 1764.38 L 626.495 1764.17 C 617.281 1764.12 584.008 1765.37 577.544 1763.72 L 576.574 1761.95 L 577.489 1760.26 C 580.894 1759.17 626.948 1760.01 633.124 1760.01 L 836.194 1759.98 C 832.77 1761 832.338 1760.45 830.748 1762.74 L 832.872 1763.28 C 818.876 1765.29 803.169 1762.34 790.163 1764.17 z" fill="rgb(6,7,10)" transform="translate(0,0)"></path>
<path d="M 1511.44 1060.26 C 1490.58 1060.2 1294.57 1061.89 1288.65 1059.27 L 1288.98 1057.97 C 1291.87 1055.86 1336.49 1056.79 1344.63 1056.8 L 1518.85 1056.92 C 1516.75 1057.9 1513.53 1059.56 1511.44 1060.26 z" fill="rgb(31,39,50)" transform="translate(0,0)"></path>
<path d="M 1186.57 1157.25 C 1183.59 1149.17 1077.57 1075.74 1072.38 1064.68 L 1073.48 1063.69 C 1082.9 1067.6 1115.06 1093.69 1124.49 1101.21 C 1147.35 1119.44 1172.08 1137.98 1194.56 1156.55 C 1191.99 1156.98 1188.57 1158.05 1186.57 1157.25 z" fill="rgb(63,72,84)" transform="translate(0,0)"></path>
<path d="M 1656.98 486.08 C 1671.18 485.596 1682.78 484.899 1696.34 489.56 C 1726.11 499.797 1744.33 527.857 1744.08 558.968 C 1743.99 569.935 1744.3 581.237 1743.8 592.295 C 1743.45 589.78 1743.12 587.262 1742.81 584.742 L 1740.81 583.697 C 1737.75 561.892 1744.8 540.768 1727.82 518.187 C 1711.72 496.773 1695.79 493.13 1671.7 488.794 L 1671.04 487.531 L 1656.98 486.08 z" fill="rgb(63,72,84)" transform="translate(0,0)"></path>
<path d="M 1740.61 983.985 C 1742.31 927.247 1739.64 868.972 1740.5 812.094 C 1740.57 807.362 1739.53 797.725 1742.18 793.84 C 1745.34 799.374 1744 900.632 1743.81 914.704 C 1741 930.12 1745.28 979.115 1741.91 988.068 C 1741.16 986.253 1741.03 985.9 1740.61 983.985 z" fill="rgb(6,7,10)" transform="translate(0,0)"></path>
<path d="M 1798.67 791.417 L 1809.72 791.268 C 1840.16 790.946 1919.05 791.745 1952.44 792.098 C 1953.13 792.772 1953.82 793.446 1954.5 794.119 C 1949.92 795.527 1803.03 795.803 1799.22 794.365 L 1798.67 791.417 z" fill="rgb(6,7,10)" transform="translate(0,0)"></path>
<path d="M 93.9567 791.432 C 126.344 790.489 161.665 792.349 194.445 791.7 C 202.844 791.533 243.323 791.38 248.328 792.529 L 249.613 794.701 C 238.612 795.423 98.6423 795.697 94.6747 794.302 L 93.9567 791.432 z" fill="rgb(6,7,10)" transform="translate(0,0)"></path>
<path d="M 1740.81 583.697 L 1742.81 584.742 C 1743.12 587.262 1743.45 589.78 1743.8 592.295 C 1744.79 620.075 1743.32 652.674 1743.86 680.816 C 1744.1 693.384 1744.72 737.758 1742.22 747.576 L 1741.53 746.631 L 1741.79 747.704 L 1742.23 745.842 L 1741.32 745.124 C 1739.8 729.006 1740.67 699.49 1740.72 682.441 C 1740.83 650.129 1739.9 615.825 1740.81 583.697 z" fill="rgb(6,7,10)" transform="translate(0,0)"></path>
<path d="M 844.53 1155.16 C 845.654 1149.86 884.58 1074.59 890.992 1064.95 C 891.223 1064.6 892.745 1064.69 893.063 1065.02 C 893.078 1065.04 893.909 1065.61 893.791 1066 C 889.133 1081 849.916 1149.06 847.669 1157.8 C 846.303 1156.47 846.054 1156.2 844.53 1155.16 z" fill="rgb(63,72,84)" transform="translate(0,0)"></path>
<path d="M 1043.29 943.649 C 1044.37 943.328 1045.34 943.029 1046.44 942.755 C 1049.58 946.736 1052.02 949.609 1054.64 953.964 C 1056.72 954.54 1056.59 954.545 1058.45 955.759 L 1060.05 957.248 C 1060.23 957.774 1060.41 958.299 1060.6 958.824 C 1059.77 960.225 1059.56 961.135 1058.53 962.213 L 1058.54 962.307 L 1058.65 962.334 L 1058.56 962.378 C 1057.92 961.359 1058.55 960.134 1056.41 959.984 C 1055.17 961.717 1055.47 961.539 1053.88 962.818 L 1053.15 961.523 C 1052.11 955.31 1038.7 950.51 1032.69 947.072 L 1034.22 944.845 C 1037.44 943.839 1039.94 944.041 1043.29 943.649 z" fill="rgb(63,72,84)" transform="translate(0,0)"></path>
<path d="M 1034.22 944.845 C 1037.44 943.839 1039.94 944.041 1043.29 943.649 C 1048.54 954.846 1041.99 948.871 1034.22 944.845 z" fill="rgb(251,249,248)" transform="translate(0,0)"></path>
<path d="M 1667.77 726.391 C 1670.04 727.349 1670.61 728.005 1673.1 728.693 L 1670.61 730.53 C 1667.15 729.363 1665.06 729.084 1661.47 728.366 C 1664.62 727.708 1664.96 727.79 1667.77 726.391 z" fill="rgb(63,72,84)" transform="translate(0,0)"></path>
<path d="M 483.83 749.608 C 482.923 748.976 478.897 746.537 478.8 745.696 L 478.924 745.567 C 479.956 745.239 481.478 745.625 482.598 745.79 L 483.83 749.608 z" fill="rgb(50,64,75)" transform="translate(0,0)"></path>
<path d="M 1673.1 728.693 L 1674.49 729.415 C 1675.18 729.72 1675.84 729.987 1676.32 730.607 C 1676.15 731.723 1671.03 730.6 1670.61 730.53 L 1673.1 728.693 z" fill="rgb(140,150,159)" transform="translate(0,0)"></path>
<metadata><recraft-signature>{"signed_by": "recraft", "signature_b64": "2RQz2CTcme9SaRQo3XMINkWe6+IaF2RjpGuC9ZvXWLvIzvHcCdLx6ld5aOno66FCqYcJa/eIkNnsm83gIyuoAw==", "signing_algo": "Ed25519", "generation_timestamp": 1777251201, "identifier": "d53c904a-00da-4389-a33b-5f9dcd4c97da"}</recraft-signature></metadata></svg>