<svg xmlns="http://www.w3.org/2000/svg" height="1024" preserveAspectRatio="none" style="display: block;" version="1.1" viewBox="0 0 2048 2048" width="1024">
<defs>
	<linearGradient gradientUnits="userSpaceOnUse" id="Gradient1" x1="1974.34" x2="1974.63" y1="0.470579" y2="7.77024">
		<stop class="stop0" offset="0" stop-color="rgb(41,44,41)" stop-opacity="1"></stop>
		<stop class="stop1" offset="1" stop-color="rgb(85,79,87)" stop-opacity="1"></stop>
	</linearGradient>
	<linearGradient gradientUnits="userSpaceOnUse" id="Gradient2" x1="2026.74" x2="1925.42" y1="1990.48" y2="1981.66">
		<stop class="stop0" offset="0" stop-color="rgb(25,27,37)" stop-opacity="1"></stop>
		<stop class="stop1" offset="1" stop-color="rgb(63,67,74)" stop-opacity="1"></stop>
	</linearGradient>
</defs>

<path d="M 1906.49 5.96419 C 1909.82 5.80454 1908.97 5.23347 1911.24 6.50277 C 1927.42 7.36223 1947.09 6.92168 1963.5 6.98695 L 2048 7.36229 L 2048 49.4233 L 2048 53.2875 L 2048 72.2022 L 2048 77.2996 L 2048 99.6782 L 2048 126.217 L 2048 1568.19 L 2048 1572.12 L 2048 1617.27 L 2048 1619.05 L 2048 1640.44 L 2048 1643.81 L 2048 1663.9 L 2048 1668.96 L 2048 1706.06 L 2048 1709.99 L 2048 1728.19 L 2048 1733.85 L 2048 1799.11 L 2048 1807.64 L 2048 1834.01 L 2048 1840.98 L 2048 2048 L 1935.57 2048 L 1929.16 2048 L 1886.4 2048 L 1878.98 2048 L 219.02 2048 L 159.697 2048 L 119.022 2048 L 113.156 2048 L 0 2048 L 0 1932.95 L 0 1927.05 L 0 1887.51 L 0 1858.77 L 0 1841.29 L 0 1833.94 L 0 1807.42 L 0 1799.26 L 0 1733.43 L 0 1728.18 L 0 1710.52 L 0 1706.18 L 0 1668.95 L 0 1663.89 L 0 1654.09 C 30.8663 1653.98 63.9836 1654.75 94.5644 1653.87 C 102.33 1654.19 108.959 1654.17 116.741 1654.01 C 122.631 1651.09 124.784 1655.36 130.082 1650.89 C 133.301 1654.1 135.793 1657.89 138.468 1661.59 C 146.472 1664.11 154.606 1667.24 159.438 1674.68 C 168.33 1688.35 156.002 1699.53 154.559 1706.55 C 154.851 1706.65 155.143 1706.74 155.435 1706.84 L 156.883 1707.34 C 176.906 1714.21 157.949 1728.67 183.555 1728.08 L 183.477 1799.68 C 192.751 1799.59 234.163 1798.66 240.801 1800.28 C 241.196 1802.4 241.196 1802.55 242.061 1804.5 C 253.221 1805.45 272.083 1804.9 283.911 1804.89 L 361.843 1804.85 L 607.047 1804.73 L 1385.41 1804.81 L 1692.37 1804.83 C 1705.4 1804.84 1802.25 1805.91 1806.61 1804.26 L 1807.29 1801.1 C 1810.17 1798.53 1855.78 1799.6 1863.48 1799.53 L 1864.04 1727.14 L 1875.91 1727.18 C 1880.6 1714.46 1881.43 1711.34 1892.69 1704 C 1877.16 1687.79 1884.24 1667.65 1906.01 1663.33 C 1908.93 1659.93 1916.79 1651.58 1917.11 1647.57 C 1916.4 1647.14 1915.69 1646.7 1914.98 1646.26 C 1902.22 1642.1 1914.65 1629.43 1897.18 1629.33 C 1895.68 1625.92 1896.23 1620.95 1896.3 1617.06 L 1908.58 1617 L 1964.46 445.465 C 1965.67 420.484 1982.2 135.71 1979.36 128.15 C 1977.28 127.649 1976.92 127.665 1974.85 127.756 L 1973 127.847 C 1970.95 124.141 1971.95 111.085 1972.07 106.223 C 1968.72 106.472 1967.92 106.538 1964.44 106.255 C 1961.73 104.262 1962.59 105.525 1961.65 102.429 L 1963.05 100.099 C 1967.28 97.7594 1968.25 98.5788 1973.5 98.6175 C 1972.76 86.8233 1974.01 81.3739 1962.38 76.7465 L 1960.95 76.188 C 1958.57 73.5106 1958.93 69.7852 1958.73 66.0351 C 1954.86 60.5847 1953.24 58.9829 1948.54 54.3369 L 1937.23 52.9411 C 1935.58 45.1723 1934.62 39.8923 1931.77 32.5277 C 1911.25 31.8538 1917.37 27.2072 1907.61 11.0173 L 1906.49 5.96419 z" fill="rgb(54,60,69)" transform="translate(0,0)"></path>
<path d="M 264.198 1896.49 C 293.773 1895.46 325.577 1896.01 355.359 1896.04 L 507.743 1896.37 L 881.675 1896.37 L 1878.81 1896.1 L 1878.98 2048 L 219.02 2048 C 215.954 2000.42 223.413 1941.11 256.321 1904.07 C 258.724 1901.32 261.36 1898.79 264.198 1896.49 z" fill="rgb(250,250,249)" transform="translate(0,0)"></path>
<path d="M 2023.73 127.465 L 2037.85 127.174 L 2038.85 1277.53 L 2037.72 1503.11 C 2037.69 1516.38 2037.53 1529.71 2037.5 1542.98 C 2037.47 1556.61 2033.97 1565.13 2048 1572.12 L 2048 1617.27 C 2008.1 1615.41 1955.06 1617.43 1913.92 1617.26 C 1914.13 1595.2 1916.01 1569.45 1917.17 1547.23 C 1918.77 1510.57 1920.56 1473.92 1922.54 1437.28 C 1927.86 1307.5 1934.09 1177.76 1941.22 1048.06 L 1985.7 128.049 L 1998.98 128.318 C 1998.77 179.008 1995.25 234.947 1993.47 286.125 L 1981.64 621.883 L 1967.01 1203.55 L 1959.78 1457.3 L 1957.47 1524.31 C 1957.12 1533.67 1955.12 1550.99 1956.92 1559.32 C 1961.76 1581.75 1984.08 1579.44 1994.77 1562.38 C 1996.08 1543.5 1995.78 1523.53 1996.17 1504.5 C 1997.16 1470.41 1997.87 1436.31 1998.3 1402.2 L 2004.15 1158.72 C 2012.41 815.001 2018.94 471.246 2023.73 127.465 z" fill="rgb(250,250,249)" transform="translate(0,0)"></path>
<path d="M 1842.34 1840.98 C 1910.05 1840.04 1980.1 1840.95 2048 1840.98 L 2048 2048 L 1935.57 2048 L 1929.16 2048 L 1886.4 2048 C 1887.4 2034.02 1886.21 2007.56 1886.16 1992.72 C 1886.01 1957.63 1886.18 1922.55 1886.67 1887.46 C 1938.64 1886.4 1994.67 1887.85 2047.27 1887.66 L 2047.39 1858.97 L 1848.8 1858.97 C 1847 1852.9 1844.59 1846.91 1842.34 1840.98 z" fill="rgb(250,250,249)" transform="translate(0,0)"></path>
<path d="M 1928.91 1926.25 C 1954.16 1926.81 1979.42 1927.06 2004.69 1927.01 C 2016.47 1927.05 2036.17 1926.61 2047.19 1927.94 C 2047.18 1933.53 2045.32 1932.53 2040.01 1932.26 C 2006.71 1933.54 1969.17 1932.4 1935.37 1932.82 L 1935.57 2048 L 1929.16 2048 L 1928.91 1926.25 z" fill="url(#Gradient2)" transform="translate(0,0)"></path>
<path d="M 2047.19 1927.94 C 2047.18 1933.53 2045.32 1932.53 2040.01 1932.26 C 2040.16 1932.29 2027.37 1931.5 2033.43 1928.49 C 2033.5 1928.45 2045.55 1928.12 2047.19 1927.94 z" fill="rgb(3,3,3)" transform="translate(0,0)"></path>
<path d="M 0 1932.95 C 35.2084 1932.88 78.4959 1931.77 112.93 1933.4 L 113.156 2048 L 0 2048 L 0 1932.95 z" fill="rgb(250,250,249)" transform="translate(0,0)"></path>
<path d="M 0 1887.51 L 159.114 1888.03 L 159.697 2048 L 119.022 2048 L 113.156 2048 L 112.93 1933.4 C 78.4959 1931.77 35.2084 1932.88 0 1932.95 L 0 1927.05 L 0 1887.51 z" fill="rgb(250,250,249)" transform="translate(0,0)"></path>
<path d="M 0 1927.05 L 119.106 1926.97 L 119.022 2048 L 113.156 2048 L 112.93 1933.4 C 78.4959 1931.77 35.2084 1932.88 0 1932.95 L 0 1927.05 z" fill="rgb(54,60,69)" transform="translate(0,0)"></path>
<path d="M 0 1733.43 L 178.339 1733.83 L 178.302 1799.29 C 120.392 1799.29 57.6249 1800.55 0 1799.26 L 0 1733.43 z" fill="rgb(250,250,249)" transform="translate(0,0)"></path>
<path d="M 1870.04 1733.72 L 2048 1733.85 L 2048 1799.11 L 1868.99 1799.28 C 1868.43 1777.65 1869.37 1755.39 1870.04 1733.72 z" fill="rgb(250,250,249)" transform="translate(0,0)"></path>
<path d="M 2048 1568.19 C 2043.39 1562.96 2042.93 1562.3 2042.89 1555.44 C 2042.41 1469.79 2043.89 1384.13 2043.84 1298.48 L 2043.74 404.018 L 2043.57 224.686 C 2043.53 210.861 2041.83 134.215 2043.96 128.125 L 2048 126.217 L 2048 1568.19 z" fill="rgb(250,250,249)" transform="translate(0,0)"></path>
<path d="M 1903.67 1704.93 C 1891.62 1697.42 1883.83 1689.14 1894.95 1674.27 C 1897.41 1670.99 1901.99 1669.47 1906.11 1669.28 C 1922.49 1668.54 1939.12 1668.89 1955.56 1668.92 L 2048 1668.96 L 2048 1706.06 L 2048 1709.99 C 2007.46 1710.16 1966.92 1710.11 1926.38 1709.85 C 1927.41 1709.07 1930.52 1708.84 1932.95 1707.98 L 1930.1 1707.8 L 1930 1706.93 C 1927.98 1706.69 1926.46 1706.37 1924.46 1705.99 C 1921.4 1705.4 1907.29 1705.07 1903.67 1704.93 z" fill="rgb(250,250,249)" transform="translate(0,0)"></path>
<path d="M 1924.46 1705.99 C 1965.2 1705.79 2007.29 1705.53 2048 1706.06 L 2048 1709.99 C 2007.46 1710.16 1966.92 1710.11 1926.38 1709.85 C 1927.41 1709.07 1930.52 1708.84 1932.95 1707.98 L 1930.1 1707.8 L 1930 1706.93 C 1927.98 1706.69 1926.46 1706.37 1924.46 1705.99 z" fill="rgb(3,3,3)" transform="translate(0,0)"></path>
<path d="M 0 1668.95 L 98.5539 1668.92 C 113.714 1668.93 130.287 1668.31 145.062 1669.67 C 157.467 1670.81 160.536 1692.72 151.354 1700.13 C 142.138 1707.58 131.454 1704.77 121.282 1706.09 L 117.424 1706.62 L 117.01 1707.76 L 116.227 1707.63 L 117.83 1706.52 L 114.129 1707.78 C 115.607 1708.23 119.599 1709.08 120.596 1709.94 C 108.131 1710.54 91.007 1710.07 78.0667 1710.1 L 0 1710.52 L 0 1706.18 L 0 1668.95 z" fill="rgb(250,250,249)" transform="translate(0,0)"></path>
<path d="M 0 1706.18 C 40.3021 1706.09 81.0104 1705.7 121.282 1706.09 L 117.424 1706.62 L 117.01 1707.76 L 116.227 1707.63 L 117.83 1706.52 L 114.129 1707.78 C 115.607 1708.23 119.599 1709.08 120.596 1709.94 C 108.131 1710.54 91.007 1710.07 78.0667 1710.1 L 0 1710.52 L 0 1706.18 z" fill="rgb(3,3,3)" transform="translate(0,0)"></path>
<path d="M 1816.63 1807.69 L 2048 1807.64 L 2048 1834.01 C 1974.76 1833.15 1900.21 1833.95 1826.77 1833.69 C 1823.3 1825.51 1819.88 1816.05 1816.63 1807.69 z" fill="rgb(250,250,249)" transform="translate(0,0)"></path>
<path d="M 7.10543e-15 1807.42 C 76.9047 1807.23 153.81 1807.71 230.706 1808.88 C 226.391 1818.02 223.897 1824.53 220.485 1833.98 L 0 1833.94 L 0 1807.42 z" fill="rgb(250,250,249)" transform="translate(0,0)"></path>
<path d="M 1911.24 6.50277 C 1927.42 7.36223 1947.09 6.92168 1963.5 6.98695 L 2048 7.36229 L 2048 49.4233 C 2017.38 48.3676 1972.01 48.1764 1941.43 49.2628 C 1939.76 41.911 1938 35.1854 1937.46 27.652 L 1922.61 27.0718 L 1911.24 6.50277 z" fill="rgb(250,250,249)" transform="translate(0,0)"></path>
<path d="M 0 1841.29 L 207.127 1841.34 L 199.118 1858.96 L 0 1858.77 L 0 1841.29 z" fill="rgb(250,250,249)" transform="translate(0,0)"></path>
<path d="M 120.596 1709.94 C 140.38 1710.94 158.64 1704.26 165.503 1726.11 L 165.928 1727.44 L 166.173 1728.24 L 0 1728.18 L 0 1710.52 L 78.0667 1710.1 C 91.007 1710.07 108.131 1710.54 120.596 1709.94 z" fill="rgb(250,250,249)" transform="translate(0,0)"></path>
<path d="M 1926.38 1709.85 C 1966.92 1710.11 2007.46 1710.16 2048 1709.99 L 2048 1728.19 L 1880.76 1727.95 C 1883.65 1720.38 1885.01 1716.94 1890.47 1711 C 1898.84 1709.92 1917.27 1710.06 1926.38 1709.85 z" fill="rgb(250,250,249)" transform="translate(0,0)"></path>
<path d="M 2048 1643.81 L 2048 1663.9 C 2003.3 1663.51 1958.72 1664.39 1913.95 1663.38 C 1916.11 1660.31 1918.49 1657.22 1920.75 1654.21 L 1963.24 1653.99 C 1962 1653.76 1958.31 1653.41 1957.75 1652.26 C 1956.53 1649.77 1951.51 1652.21 1950.78 1650.67 C 1950.95 1650.19 1951.15 1650.2 1951.71 1649.82 C 1949.01 1648.95 1928.65 1649.18 1923.53 1648.87 C 1921.07 1646.76 1921.58 1648.03 1921.33 1645.26 C 1924 1644.22 1935.73 1644.14 1939.42 1643.93 C 1971.82 1644.72 2015.78 1644.87 2048 1643.81 z" fill="rgb(244,243,246)" transform="translate(0,0)"></path>
<path d="M 1951.71 1649.82 C 1982.76 1649.54 2014.86 1649.67 2045.71 1650.61 C 2046.71 1650.64 2045.86 1653.53 2044.91 1653.57 C 2017.91 1654.72 1990.37 1653.44 1963.24 1653.99 C 1962 1653.76 1958.31 1653.41 1957.75 1652.26 C 1956.53 1649.77 1951.51 1652.21 1950.78 1650.67 C 1950.95 1650.19 1951.15 1650.2 1951.71 1649.82 z" fill="rgb(3,3,3)" transform="translate(0,0)"></path>
<path d="M 1955.73 53.8612 L 2018.24 53.9891 C 2024.09 53.9936 2043.07 54.4085 2048 53.2875 L 2048 72.2022 C 2020.3 72.0093 1992.59 71.9587 1964.89 72.0503 C 1962.39 61.1978 1963.17 62.7708 1955.73 53.8612 z" fill="rgb(250,250,249)" transform="translate(0,0)"></path>
<path d="M 2048 1619.05 L 2048 1640.44 L 2048 1643.81 C 2015.78 1644.87 1971.82 1644.72 1939.42 1643.93 C 1941.19 1643.31 1945.21 1642.67 1947.68 1642.01 C 1944.4 1641.12 1942.23 1640.64 1938.89 1640.04 C 1930.63 1638.76 1922.33 1641.21 1914.14 1637.24 C 1912.27 1634.34 1912.57 1635.89 1913.29 1632.43 C 1918.23 1630.63 2032.66 1631.69 2047.33 1631.54 C 2047.2 1626.38 2047.36 1624.18 2048 1619.05 z" fill="rgb(250,250,249)" transform="translate(0,0)"></path>
<path d="M 1938.89 1640.04 L 2012.89 1639.82 C 2019.79 1639.81 2042.13 1639.44 2048 1640.44 L 2048 1643.81 C 2015.78 1644.87 1971.82 1644.72 1939.42 1643.93 C 1941.19 1643.31 1945.21 1642.67 1947.68 1642.01 C 1944.4 1641.12 1942.23 1640.64 1938.89 1640.04 z" fill="rgb(3,3,3)" transform="translate(0,0)"></path>
<path d="M 2048 77.2996 L 2048 99.6782 C 2043.37 98.687 2025.32 98.9782 2019.6 98.9497 C 2005.83 98.8569 1992.07 98.6259 1978.31 98.2566 C 1977.87 91.2903 1977.84 86.2741 1976.13 79.2934 L 1975.72 77.4509 C 1999.87 77.37 2023.8 77.6292 2048 77.2996 z" fill="rgb(250,250,249)" transform="translate(0,0)"></path>
<path d="M 94.5644 1653.87 C 102.33 1654.19 108.959 1654.17 116.741 1654.01 L 129.748 1654.92 C 131.238 1657.64 132.83 1659.76 133.232 1662.65 C 124.368 1664.26 97.0378 1663.79 87.3384 1663.81 L 0 1663.89 L 0 1654.09 C 30.8663 1653.98 63.9836 1654.75 94.5644 1653.87 z" fill="rgb(250,250,249)" transform="translate(0,0)"></path>
<path d="M 306.231 1812.5 L 1261.44 1812.27 L 1635.15 1812.37 C 1693.09 1812.35 1752.42 1813.15 1810.18 1812.44 C 1813.67 1819.41 1816.71 1828.5 1819.44 1835.95 L 1742.31 1835.85 L 226.968 1835.83 C 229.855 1828.03 233.015 1820.33 236.443 1812.75 L 306.231 1812.5 z" fill="rgb(250,250,249)" transform="translate(0,0)"></path>
<path d="M 2004.21 128.118 L 2018.19 127.995 C 2014.23 458.5 2008.26 788.979 2000.29 1119.41 L 1992.57 1434.51 C 1991.49 1473.82 1991.55 1513.19 1990.12 1552.5 C 1989.69 1564.14 1986.94 1568.13 1975.44 1570.83 C 1968.49 1569.38 1962.29 1565.41 1962.08 1557.5 C 1961.72 1543.37 1962.5 1529.06 1962.97 1514.91 L 1965.67 1432.59 L 1973.94 1121.5 C 1981.02 790.288 1991.11 459.147 2004.21 128.118 z" fill="rgb(250,250,249)" transform="translate(0,0)"></path>
<path d="M 213.82 1845.04 L 1834.06 1845.17 C 1836.57 1849.97 1843.72 1860.38 1839.66 1864.82 L 1835.25 1864.96 L 205.925 1865.21 C 209.005 1858.21 211.232 1852.25 213.82 1845.04 z" fill="rgb(250,250,249)" transform="translate(0,0)"></path>
<path d="M 0 1.99759 L 147.694 1.73614 C 137.321 11.9648 134.054 18.3275 128.814 31.9469 C 125.078 31.9164 120.933 31.7847 117.237 31.9112 C 113.55 39.807 111.229 46.5201 108.353 54.6936 L 96.6255 54.8523 C 94.7303 57.0341 90.9175 61.3188 89.719 63.7276 C 85.0216 73.1686 87.2569 75.3762 77.4493 79.8735 C 73.7053 84.623 73.9019 92.6402 73.7571 98.9046 C 73.8199 101.307 73.8631 103.709 73.8867 106.112 C 73.7895 112.375 74.1507 122.656 72.0561 128.264 C 69.9983 129.321 70.1408 129.309 67.8491 129.533 C 67.3491 136.105 69.3367 161.911 69.7372 169.921 L 74.1606 259.126 C 79.2392 354.49 83.7658 449.883 87.7404 545.299 L 119.04 1219.79 C 124.792 1350.97 131.284 1482.11 138.514 1613.21 C 142.687 1618.02 149.306 1617.8 151.594 1623.5 C 150.502 1629.38 146.212 1630.26 141.142 1631.24 C 138.874 1631.4 137.425 1631.49 135.156 1631.46 C 134.777 1639.15 132.569 1638.85 125.837 1639.8 L 127.832 1640.07 C 133.005 1640.75 136.322 1640.64 129.34 1644.45 C 129.67 1645.4 129.958 1646.35 130.377 1647.25 L 130.082 1650.89 C 124.784 1655.36 122.631 1651.09 116.741 1654.01 C 108.959 1654.17 102.33 1654.19 94.5644 1653.87 C 63.9836 1654.75 30.8663 1653.98 0 1654.09 L 0 1651.08 L 0 1650.02 L 0 1644.45 L 0 1639.89 L 0 1631.1 L 0 1617.28 L 0 1573.03 L 0 98.2004 L 0 77.0568 L 0 72.1415 L 0 54.0339 L 0 53.1571 L 0 49.9382 L 0 6.05333 L 0 3.07658 L 0 1.99759 z" fill="rgb(54,60,69)" transform="translate(0,0)"></path>
<path d="M 9.91082 128.474 L 22.9855 128.537 C 24.2788 146.468 24.0554 167.976 24.3612 186.263 L 25.9489 275.9 L 30.1989 495.376 L 46.338 1266.03 L 50.9772 1463.83 C 51.2738 1482.3 50.9025 1551.38 53.9385 1564.62 C 69.5587 1583.65 90.7817 1576.97 91.7626 1552.76 C 92.2188 1541.5 90.6347 1528.12 90.4002 1516.53 L 87.9809 1412 L 78.9524 1078.2 L 49.141 128.788 L 62.5782 128.661 L 106.229 1062.51 L 124.18 1439.25 L 129.975 1556.75 C 130.979 1575.64 133.154 1598.48 133.208 1617.01 L 0 1617.28 L 0 1573.03 C 5.63834 1568.35 9.61223 1565.05 9.83574 1557.33 C 10.3679 1538.94 10.1056 1520.55 10.0509 1502.16 L 9.89288 1406.88 L 9.33895 1113.5 L 9.5227 402.219 C 9.93684 312.03 8.05357 218.186 9.91082 128.474 z" fill="rgb(250,250,249)" transform="translate(0,0)"></path>
<path d="M 120.664 5.90565 C 126.35 6.20348 131.09 6.41172 136.803 6.33366 C 131.848 14.1604 129.353 18.6392 125.403 26.9702 L 111.662 27.0508 C 110.214 35.1919 108.063 41.3911 105.27 49.1799 C 96.2709 49.2726 72.3264 48.9711 64.1427 50.0538 C 43.473 49.4789 20.8229 49.9118 0 49.9382 L 0 6.05333 L 79.4319 6.15958 C 89.9564 6.16973 111.123 6.79011 120.664 5.90565 z" fill="rgb(250,250,249)" transform="translate(0,0)"></path>
<path d="M 0 1631.1 C 40.8186 1632.74 93.9919 1632.49 135.156 1631.46 C 134.777 1639.15 132.569 1638.85 125.837 1639.8 L 127.832 1640.07 C 133.005 1640.75 136.322 1640.64 129.34 1644.45 C 129.67 1645.4 129.958 1646.35 130.377 1647.25 L 130.082 1650.89 C 124.784 1655.36 122.631 1651.09 116.741 1654.01 C 108.959 1654.17 102.33 1654.19 94.5644 1653.87 C 63.9836 1654.75 30.8663 1653.98 0 1654.09 L 0 1651.08 L 0 1650.02 L 0 1644.45 L 0 1639.89 L 0 1631.1 z" fill="rgb(250,250,249)" transform="translate(0,0)"></path>
<path d="M 93.4272 1640.1 C 102.039 1639.66 117.22 1639.46 125.837 1639.8 L 127.832 1640.07 C 133.005 1640.75 136.322 1640.64 129.34 1644.45 C 129.67 1645.4 129.958 1646.35 130.377 1647.25 L 130.082 1650.89 C 124.784 1655.36 122.631 1651.09 116.741 1654.01 C 108.959 1654.17 102.33 1654.19 94.5644 1653.87 C 63.9836 1654.75 30.8663 1653.98 0 1654.09 L 0 1651.08 L 0 1650.02 L 0 1644.45 C 27.968 1644.14 60.1469 1645.21 87.3497 1644.1 C 91.2603 1643.39 91.385 1643.42 95.3873 1643.66 C 98.0442 1640.87 103.961 1643.8 108.808 1642.4 L 108.795 1642.38 L 108.486 1642.38 L 108.289 1641.87 C 106.604 1640.85 98.8587 1641.98 93.4272 1640.1 z" fill="rgb(250,250,249)" transform="translate(0,0)"></path>
<path d="M 93.4272 1640.1 C 102.039 1639.66 117.22 1639.46 125.837 1639.8 L 127.832 1640.07 C 133.005 1640.75 136.322 1640.64 129.34 1644.45 C 129.67 1645.4 129.958 1646.35 130.377 1647.25 L 130.082 1650.89 C 124.784 1655.36 122.631 1651.09 116.741 1654.01 C 108.959 1654.17 102.33 1654.19 94.5644 1653.87 C 63.9836 1654.75 30.8663 1653.98 0 1654.09 L 0 1651.08 L 0 1650.02 C 15.0049 1650.07 118.314 1651.7 123.03 1649.11 C 124.424 1648.35 123.998 1648.29 124.243 1646.58 C 119.319 1642.24 95.9602 1645.44 87.3497 1644.1 C 91.2603 1643.39 91.385 1643.42 95.3873 1643.66 C 98.0442 1640.87 103.961 1643.8 108.808 1642.4 L 108.795 1642.38 L 108.486 1642.38 L 108.289 1641.87 C 106.604 1640.85 98.8587 1641.98 93.4272 1640.1 z" fill="rgb(34,36,44)" transform="translate(0,0)"></path>
<path d="M 0 1651.08 C 8.33248 1651.2 82.1689 1650.59 84.849 1652.09 C 84.7421 1652.18 84.6352 1652.26 84.5284 1652.34 L 84.543 1652.4 C 85.6899 1653.01 92.1858 1653.35 94.5644 1653.87 C 63.9836 1654.75 30.8663 1653.98 0 1654.09 L 0 1651.08 z" fill="rgb(3,3,3)" transform="translate(0,0)"></path>
<path d="M 93.4272 1640.1 C 102.039 1639.66 117.22 1639.46 125.837 1639.8 L 127.832 1640.07 C 133.005 1640.75 136.322 1640.64 129.34 1644.45 C 119.144 1643.21 103.905 1644.99 95.3873 1643.66 C 98.0442 1640.87 103.961 1643.8 108.808 1642.4 L 108.795 1642.38 L 108.486 1642.38 L 108.289 1641.87 C 106.604 1640.85 98.8587 1641.98 93.4272 1640.1 z" fill="rgb(54,60,69)" transform="translate(0,0)"></path>
<path d="M 0 1639.89 C 30.539 1639.9 63.0497 1639.34 93.4272 1640.1 C 98.8587 1641.98 106.604 1640.85 108.289 1641.87 L 108.486 1642.38 L 108.795 1642.38 L 108.808 1642.4 C 103.961 1643.8 98.0442 1640.87 95.3873 1643.66 C 91.385 1643.42 91.2603 1643.39 87.3497 1644.1 C 60.1469 1645.21 27.968 1644.14 0 1644.45 L 0 1639.89 z" fill="rgb(3,3,3)" transform="translate(0,0)"></path>
<path d="M 0 54.0339 L 89.2849 54.0626 C 84.2333 61.5865 83.532 63.4223 80.7398 71.9673 L 0 72.1415 L 0 54.0339 z" fill="rgb(250,250,249)" transform="translate(0,0)"></path>
<path d="M 0 77.0568 C 23.7646 77.1781 48.0299 77.0176 71.7495 77.4638 C 69.9133 85.7597 69.3283 90.5649 68.6141 98.9775 C 45.741 98.8946 22.869 98.6355 0 98.2004 L 0 77.0568 z" fill="rgb(250,250,249)" transform="translate(0,0)"></path>
<path d="M 0 3.07658 C 19.7307 3.20291 104.872 0.569875 116.227 4.43688 C 116.938 4.67896 117.677 4.82793 118.402 5.02451 C 120.346 5.55183 119.696 5.14404 120.664 5.90565 C 111.123 6.79011 89.9564 6.16973 79.4319 6.15958 L 0 6.05333 L 0 3.07658 z" fill="rgb(3,3,3)" transform="translate(0,0)"></path>
<path d="M 0 49.9382 C 20.8229 49.9118 43.473 49.4789 64.1427 50.0538 C 58.1459 51.6351 44.6165 50.6019 43.6705 51.3204 C 43.6916 51.3878 43.7128 51.4553 43.7339 51.5227 C 44.2012 51.8429 44.6686 52.1631 45.1359 52.4833 C 43.9947 53.2664 4.84757 53.2683 0 53.1571 L 0 49.9382 z" fill="rgb(3,3,3)" transform="translate(0,0)"></path>
<path d="M 28.0331 128.727 C 33.2474 128.659 38.876 128.813 44.1247 128.866 C 46.1667 151.77 46.3819 184.019 47.2139 207.949 L 52.2332 362.433 L 65.4684 778.757 L 80.8006 1320.88 L 84.1413 1480.41 C 84.666 1505.73 85.3907 1531.18 85.9856 1556.49 C 86.0783 1560.44 84.9078 1562.34 82.9101 1565.72 C 68.2212 1575.22 58.5937 1567.73 57.7873 1551.8 C 56.9365 1534.98 57.4531 1517.87 56.9571 1501.04 L 53.4578 1356.54 C 49.4962 1210.53 46.3164 1064.51 43.9187 918.471 L 31.9955 338.298 C 30.065 268.454 28.7442 198.594 28.0331 128.727 z" fill="rgb(250,250,249)" transform="translate(0,0)"></path>
<path d="M 1906.49 5.96419 L 1905.9 5.70087 L 1906.26 4.5914 C 1915.86 1.97404 1959.93 3.331 1972.61 3.39761 C 1997.74 3.58641 2022.87 3.45386 2048 3 L 2048 7.36229 L 1963.5 6.98695 C 1947.09 6.92168 1927.42 7.36223 1911.24 6.50277 C 1908.97 5.23347 1909.82 5.80454 1906.49 5.96419 z" fill="url(#Gradient1)" transform="translate(0,0)"></path>
<path d="M 1899.63 1.85238 L 2048 2.26424 L 2048 3 C 2022.87 3.45386 1997.74 3.58641 1972.61 3.39761 C 1959.93 3.331 1915.86 1.97404 1906.26 4.5914 L 1905.9 5.70087 L 1906.49 5.96419 L 1907.61 11.0173 L 1899.63 1.85238 z" fill="rgb(74,79,87)" transform="translate(0,0)"></path>
<path d="M 135.156 1631.46 C 137.425 1631.49 138.874 1631.4 141.142 1631.24 C 140.076 1644.42 139.367 1640.19 130.377 1647.25 C 129.958 1646.35 129.67 1645.4 129.34 1644.45 C 136.322 1640.64 133.005 1640.75 127.832 1640.07 L 125.837 1639.8 C 132.569 1638.85 134.777 1639.15 135.156 1631.46 z" fill="rgb(74,79,87)" transform="translate(0,0)"></path>
<path d="M 73.7571 98.9046 C 75.634 98.8991 83.7813 98.2905 84.279 99.3982 C 89.2716 110.512 74.6512 106.22 73.8867 106.112 C 73.8631 103.709 73.8199 101.307 73.7571 98.9046 z" fill="rgb(74,79,87)" transform="translate(0,0)"></path>
<path d="M 931.793 409.954 L 956.137 409.941 L 956.566 539.597 C 956.501 563.553 955.289 595.689 956.661 618.993 C 873.551 648.541 774.557 694.921 742.347 783.2 C 805.838 791.653 826.344 813.133 853.907 870.729 C 861.799 870.269 869.694 869.884 877.593 869.574 C 848.422 846.412 827.331 821.025 823.342 783.355 C 815.35 707.884 887.575 654.648 949.611 629.122 C 977.852 617.502 992.178 619.833 1021.93 619.068 L 1021.99 617.007 C 1007.49 616.31 989.559 614.849 975.407 614.967 C 975.186 546.782 976.857 478.319 976.894 409.95 L 1112.25 410.056 C 1111.5 474.01 1111.63 537.971 1112.63 601.922 C 1230.68 633.759 1368.96 727.786 1345.33 869.152 C 1342.09 888.552 1337.8 908.142 1334.01 927.474 L 1307.11 1065 L 1235.39 1438.13 L 1216.79 1532.8 C 1213.32 1549.95 1209.35 1566.98 1206.5 1584.24 C 1217.48 1584.24 1226.97 1583.66 1235.25 1592.21 C 1243.59 1600.84 1242.91 1614.2 1233.53 1621.72 C 1226.08 1627.68 1219.61 1627.72 1210.73 1628.14 C 1217.12 1647.03 1221.62 1664.99 1227.33 1683.85 C 1301.54 1685.24 1313.7 1777.73 1247.03 1799.98 C 1238.09 1802.96 1199.29 1801.8 1187.58 1801.79 L 1093.87 1801.76 L 905.96 1801.67 C 872.709 1801.68 838.823 1802.61 805.661 1801.66 C 774.807 1800.77 749.55 1769.08 751.29 1738.99 C 752.339 1722.94 759.929 1708.02 772.286 1697.72 C 789.33 1683.5 804.092 1684.54 824.712 1684.38 C 825.26 1667.5 828.496 1645.4 830.657 1628.2 C 820.803 1627.05 814.704 1626.42 808.177 1618.1 C 800.237 1607.98 804.695 1595.07 814.961 1588.83 C 822.98 1583.95 828.807 1584.67 837.575 1584.6 C 834.485 1562.26 828.35 1534.46 824.025 1511.83 L 796.831 1371.69 L 728.201 1011.85 L 707.505 902.811 C 703.203 879.01 698.223 860.684 698.54 836.201 C 698.962 795.167 712.587 755.36 737.399 722.675 C 786.313 658.256 857.512 627.432 932.923 607.229 L 931.793 409.954 z" fill="rgb(54,60,69)" transform="translate(0,0)"></path>
<path d="M 1021.99 617.007 C 1024.12 616.943 1037.19 616.479 1038.06 618.282 C 1037.42 619.351 1023.71 619.115 1021.93 619.068 L 1021.99 617.007 z" fill="rgb(175,177,180)" transform="translate(0,0)"></path>
<path d="M 893.314 873.965 C 900.564 832.884 915.657 803.607 950.806 778.95 C 979.549 758.53 1015.33 750.601 1050.01 756.964 C 1107.11 767.31 1152.3 815.652 1157.49 873.669 C 1170.97 873.439 1185.43 872.98 1198.76 874.654 C 1208.42 846.332 1228.73 821.825 1255.43 808.054 C 1264.71 803.263 1291.59 795.332 1300.94 798.58 C 1302.11 801.631 1302.2 800.222 1301.07 802.955 C 1297.55 804.464 1298.08 803.833 1294.76 804.119 C 1269.93 806.254 1245.57 818.545 1229.09 837.178 C 1218.33 849.337 1210.69 863.158 1203.89 877.449 C 1219.81 894.433 1210.67 913.936 1188.16 914.429 C 1188.77 922.966 1190.43 928.893 1185.98 935.789 C 1183.01 937.554 1183.18 937.432 1179.75 938.041 C 1178.29 942.757 1176.32 967.142 1175.72 973.473 L 1168.25 1049.62 L 1138.83 1348.38 C 1135.31 1389.56 1131.02 1430.67 1125.98 1471.69 C 1123.67 1489.89 1119.81 1520.52 1114.79 1537.82 C 1113.82 1523.48 1117 1496.6 1118.44 1481.58 C 1121.87 1446.69 1125.5 1411.82 1129.34 1376.98 L 1157.45 1084.46 L 1167.46 982.407 C 1168.7 968.827 1170.81 950.629 1171.2 937.189 L 1153.7 937.095 C 1146.71 997.451 1141.4 1060.57 1135.53 1121.21 L 1101.7 1459.84 L 1099.47 1456.06 C 1117.09 1283.63 1126.78 1110.46 1145.76 937.071 L 1133.13 936.984 L 1133.03 915.45 C 1127.14 914.242 1122.48 913.553 1117.81 909.455 C 1109.95 902.551 1106.57 889.166 1114.65 881.073 C 1123.78 871.92 1139.41 873.682 1151.43 873.729 C 1147.02 853.058 1142.48 837.039 1131.35 819.23 C 1086.49 747.436 981.91 742.379 929.228 808.221 C 911.227 830.72 905.085 845.86 899.113 873.532 C 908.015 873.574 914.219 873.427 922.22 878.691 C 931.049 884.499 935.531 896.518 928.026 905.36 C 922.163 912.269 916.29 913 907.815 914.038 C 908.002 920.267 908.594 929.194 907.602 935.083 C 904.319 937.75 903.728 935.804 898.296 937.367 C 895.72 944.076 911.775 1155.92 913.342 1182.74 L 910.996 1181.11 C 911.187 1172.43 908.442 1147.89 907.537 1138.5 L 899.333 1054.34 L 892.959 982.395 C 892.317 974.426 890.207 942.498 888.447 937.185 L 886.746 936.375 C 884.394 940.647 890.968 1009.39 891.851 1020.82 L 901.818 1159.65 C 909.344 1283.74 918.142 1407.76 928.211 1531.67 L 849.636 1531.7 C 847.782 1521.69 846.058 1511.66 844.464 1501.61 C 866.763 1500.59 895.135 1501.38 918.12 1501.16 C 916.851 1463.95 912.814 1419.55 910.313 1381.9 L 891.883 1127.25 C 886.875 1063.9 885.257 1000.51 879.199 936.961 L 859.783 937.039 C 857.972 936.944 856.162 936.835 854.353 936.714 C 852.36 930.303 852.69 921.761 852.085 914.859 C 844.81 913.539 837.339 912.119 832.808 905.611 C 826.846 897.045 827.433 884.787 837.512 879.65 C 852.857 871.83 876.317 873.873 893.314 873.965 z" fill="rgb(250,250,249)" transform="translate(0,0)"></path>
<path d="M 1130.88 880.161 C 1149.65 879.272 1169.3 880.3 1188 880.215 C 1218.27 880.078 1209.34 913.248 1184.15 911.588 C 1183.53 911.548 1183.31 914.112 1183.31 914.495 L 1183.34 918.35 C 1183.47 922.577 1183.5 926.183 1183.47 930.401 C 1168.91 930.719 1154.35 930.67 1139.79 930.254 C 1139.53 923.524 1139.44 916.788 1139.5 910.053 C 1138.33 909.792 1137.16 909.54 1135.99 909.298 C 1118.06 905.918 1114.46 888.602 1130.88 880.161 z" fill="rgb(54,60,69)" transform="translate(0,0)"></path>
<path d="M 853.886 880.436 C 872.612 880.295 891.386 880.53 910.003 880.238 C 926.033 879.986 933.004 904.012 914.494 909.026 C 902.395 912.303 902.623 907.195 902.619 919.75 C 902.613 930.116 905.035 930.881 894.788 930.738 C 882.943 930.572 870.889 930.714 859.035 930.648 C 858.784 923.482 858.432 916.592 858.277 909.397 C 853.918 908.845 850.379 910.114 846.577 907.442 C 840.316 903.043 836.365 892.033 841.434 885.423 C 844.443 881.5 849.463 881.029 853.886 880.436 z" fill="rgb(54,60,69)" transform="translate(0,0)"></path>
<path d="M 1030.55 1036.31 L 1076.2 1036.19 C 1070.95 1184 1064.94 1331.78 1058.19 1479.52 L 1057.86 1492.87 L 1027.09 1492.82 L 1030.55 1036.31 z" fill="rgb(228,171,108)" transform="translate(0,0)"></path>
<path d="M 981.914 1036.71 L 1022.14 1036.81 L 1020.12 1491.73 C 1017.1 1493.74 994.39 1492.86 989.298 1492.83 C 989.13 1463.25 987.832 1434.34 987.256 1404.86 L 984.507 1236.51 L 981.914 1036.71 z" fill="rgb(228,171,108)" transform="translate(0,0)"></path>
<path d="M 928.009 1036.22 C 943.555 1036.16 959.101 1036.23 974.646 1036.44 L 981.748 1492.8 L 958.049 1492.69 L 928.009 1036.22 z" fill="rgb(228,171,108)" transform="translate(0,0)"></path>
<path d="M 1083.65 1035.96 L 1124.93 1036.04 C 1117.63 1103.8 1113.24 1171.06 1107.7 1238.86 L 1086.37 1473.76 C 1085.61 1480.27 1085.19 1486.45 1084.75 1492.98 L 1064.78 1492.93 C 1064.89 1471.27 1066.45 1447.21 1067.34 1425.36 L 1073.49 1286.01 C 1077.26 1202.88 1079.39 1118.7 1083.65 1035.96 z" fill="rgb(228,171,108)" transform="translate(0,0)"></path>
<path d="M 790.56 1035.95 L 825.589 1036.01 C 828.265 1049.02 830.747 1076.05 832.517 1090.56 L 844.756 1187.3 L 883.189 1492.81 L 862.212 1492.84 C 858.903 1477.55 856.346 1459.2 853.833 1443.59 C 848.253 1409.57 842.992 1375.51 838.053 1341.39 L 790.56 1035.95 z" fill="rgb(228,171,108)" transform="translate(0,0)"></path>
<path d="M 1179.53 1036.7 L 1217.35 1036.74 C 1213.61 1056.01 1210.9 1080.85 1208.33 1100.51 L 1194.37 1206.34 C 1182.29 1295.31 1168.27 1385.18 1157.16 1474.1 L 1154.52 1492.08 L 1136 1492.02 C 1138.03 1455.85 1143.27 1416.21 1146.74 1379.82 L 1163.34 1203.54 C 1168.87 1148.76 1175.54 1091.47 1179.53 1036.7 z" fill="rgb(228,171,108)" transform="translate(0,0)"></path>
<path d="M 833.651 1035.86 C 846.532 1035.75 859.113 1035.6 871.994 1036.02 C 878.654 1093.99 881.788 1159.21 886.245 1218 L 908.182 1492.79 L 890.592 1492.83 C 886.29 1452.31 879.995 1410.76 874.88 1370.21 C 860.4 1258.85 846.656 1147.4 833.651 1035.86 z" fill="rgb(228,171,108)" transform="translate(0,0)"></path>
<path d="M 1225.3 1036.12 L 1257.8 1036.19 L 1203.15 1374.55 C 1197.42 1409.88 1190.14 1445.95 1185.01 1481.23 L 1182.58 1492.32 L 1161.54 1492.1 C 1169.64 1446.2 1175.63 1393.22 1182.23 1346.59 L 1225.3 1036.12 z" fill="rgb(228,171,108)" transform="translate(0,0)"></path>
<path d="M 755.962 1035.83 L 782.636 1035.82 C 784.817 1044.95 786.773 1060.84 788.28 1070.75 L 799.026 1140.98 L 833.513 1359.16 C 840.155 1402.79 845.992 1449.91 854.28 1492.95 L 841.777 1492.92 C 837.622 1476.1 834.47 1456.04 831.016 1438.66 C 821.805 1392.43 813.123 1346.1 804.972 1299.68 C 788.165 1211.82 771.829 1123.87 755.962 1035.83 z" fill="rgb(228,171,108)" transform="translate(0,0)"></path>
<path d="M 1266.24 1036.24 C 1275.46 1036.23 1284.68 1036.31 1293.9 1036.5 C 1284.65 1089.72 1271.13 1147.97 1260.24 1201.24 C 1241.99 1293.08 1223.22 1384.82 1203.92 1476.44 C 1203.17 1480.47 1201.31 1497.44 1193.29 1492.71 C 1191.94 1490.63 1191.32 1488.34 1191.76 1485.84 C 1195.03 1467.47 1198.02 1449.02 1201.17 1430.62 C 1206.95 1396.78 1212.56 1362.91 1218 1329.02 L 1252.46 1121.5 C 1257.18 1093.24 1261.04 1064.37 1266.24 1036.24 z" fill="rgb(228,171,108)" transform="translate(0,0)"></path>
<path d="M 953.585 1501.3 C 980.874 1501.25 1008.16 1501.51 1035.45 1502.09 C 1012.97 1514.49 979.591 1539.4 957.194 1550.96 C 943.696 1557.93 890.659 1571.23 874.83 1574.57 L 874.875 1594.07 C 908.763 1595.59 941.443 1598.79 976.168 1600.1 L 976.918 1602.01 C 937.53 1600.89 888.019 1601.82 848.613 1603.06 C 851.857 1598.44 853.626 1595.39 856.312 1590.54 C 856.156 1578.01 855.075 1563.46 853.966 1550.98 C 886.815 1550.94 919.664 1550.71 952.51 1550.31 C 952.762 1533.97 953.12 1517.63 953.585 1501.3 z" fill="rgb(250,250,249)" transform="translate(0,0)"></path>
<path d="M 853.681 1695.46 C 855.389 1695.26 855.987 1695.48 857.725 1695.68 C 853.22 1701.75 830.618 1708.14 828.073 1720.27 C 826.06 1746.11 868.97 1764.62 887.463 1774.42 C 894.912 1778.37 908.209 1780.56 911.377 1786.4 L 910.296 1788.58 C 904.175 1790.04 888.985 1788.72 882.243 1788.27 C 856.454 1786.16 827.735 1781.34 806.243 1765.65 C 791.23 1754.7 780.325 1732.81 795.155 1716.87 C 810.188 1700.72 832.651 1697.11 853.681 1695.46 z" fill="rgb(250,250,249)" transform="translate(0,0)"></path>
<path d="M 910.939 1036.74 C 914.12 1036.59 916.751 1036 919.312 1037.63 C 921.335 1042.61 923.169 1089.29 923.583 1096.72 L 930.392 1213.8 L 942.274 1390.64 C 944.674 1424.82 947.723 1460.56 949.331 1494.67 C 947.565 1494.42 945.801 1494.15 944.038 1493.87 C 941.376 1490.18 937.696 1433.12 937.136 1425.02 L 929.409 1312.19 L 917.787 1143.51 C 915.394 1108.91 911.668 1071.32 910.939 1036.74 z" fill="rgb(250,250,249)" transform="translate(0,0)"></path>
<path d="M 1021.22 1716.05 C 1028.55 1721.98 1031.15 1728.67 1036.5 1735.56 C 1053.18 1757.05 1056.76 1792.54 1020.23 1794.54 C 1012.62 1793.81 1005.51 1793.09 999.751 1787.55 C 976.005 1764.73 1006.59 1732.03 1021.22 1716.05 z" fill="rgb(221,53,48)" transform="translate(0,0)"></path>
<path d="M 1018.74 1729.94 C 1018.94 1730.19 1019.14 1730.44 1019.34 1730.7 C 1019.87 1733.02 1017.24 1737.07 1016.3 1739.07 C 1011.52 1745.73 1011.89 1755.37 1010.08 1760.99 C 1005.29 1775.9 1025.09 1779.06 1018.28 1783.14 C 1018.47 1783.03 1015.77 1784.03 1016.27 1783.86 L 1014.44 1783.43 C 988.51 1777.66 1006.53 1742.01 1018.74 1729.94 z" fill="rgb(244,243,246)" transform="translate(0,0)"></path>
<path d="M 855.042 1624.96 L 1013.49 1623.99 L 1010.85 1626.01 C 965.39 1625.63 918.826 1628.64 873.209 1630.02 L 873.957 1674.11 C 898.357 1677.29 931.468 1683.27 954.926 1685.26 C 959.09 1684.96 969.025 1686.53 973.428 1687.09 C 962.689 1688.07 951.184 1688.77 940.474 1687.18 C 914.453 1687.54 880.595 1687.56 854.926 1686.47 C 854.755 1666.13 854.998 1645.34 855.042 1624.96 z" fill="rgb(250,250,249)" transform="translate(0,0)"></path>
<path d="M 954.926 1685.26 C 959.09 1684.96 969.025 1686.53 973.428 1687.09 C 962.689 1688.07 951.184 1688.77 940.474 1687.18 C 944.091 1686.95 954.12 1688.15 954.926 1685.26 z" fill="rgb(145,146,151)" transform="translate(0,0)"></path>
<path d="M 739.688 794.825 C 784.572 797.646 818.911 825.588 833.651 867.896 C 832.343 867.812 823.903 867.426 823.554 866.796 C 806.672 836.208 780.375 808.59 743.968 804.011 C 737.262 803.167 738.896 802.044 739.688 794.825 z" fill="rgb(250,250,249)" transform="translate(0,0)"></path>
<path d="M 1026.55 795.147 L 1029.24 796.255 C 1029.74 796.976 1030.23 797.696 1030.72 798.417 C 1030.64 808.578 1030.56 821.061 1030.59 830.957 L 1029.77 959.101 C 1029.65 976.62 1030.73 1006.24 1029.35 1022.76 L 1025.83 1021.43 C 1021.93 1014.24 1027.07 888.229 1025.4 870.455 C 1024.9 865.096 1025.27 800.864 1026.55 795.147 z" fill="rgb(228,171,108)" transform="translate(0,0)"></path>
<path d="M 979.846 804.207 L 983.026 805.365 C 985.165 808.247 985.024 853.491 985.188 861.487 L 987.047 943.571 C 987.33 965.617 989.134 1001.94 987.549 1022.77 L 984.153 1021.66 C 982.189 1018.84 982.841 989.577 982.796 984.15 C 982.512 945.209 981.87 906.272 980.87 867.343 C 980.525 854.468 978.325 814.196 979.846 804.207 z" fill="rgb(228,171,108)" transform="translate(0,0)"></path>
<path d="M 759.722 837.121 C 762.175 837.454 762.069 837.434 764.299 838.518 C 766.309 844.673 773.517 892.699 774.881 901.043 L 787.39 978.045 C 789.699 992.334 792.922 1009.65 794.367 1023.82 C 791.715 1023.24 792.198 1023.34 789.706 1022.25 C 787.4 1015.86 779.297 964.346 778.088 955.586 C 772.872 917.799 763.178 874.435 759.722 837.121 z" fill="rgb(228,171,108)" transform="translate(0,0)"></path>
<path d="M 1073.85 810.165 C 1074.75 810.483 1075.97 811.145 1076.87 811.588 C 1078.26 820.078 1076.37 874.094 1076.06 885.58 L 1073.68 965.893 C 1073.43 975.493 1073.44 1017.35 1070.55 1022.95 C 1069.69 1022.3 1068.55 1021.16 1067.73 1020.39 C 1067.08 1011.01 1068.11 995.356 1068.41 985.285 L 1070.14 919.628 C 1070.62 895.647 1071.25 871.668 1072.02 847.694 C 1072.27 839.12 1072.4 817.511 1073.85 810.165 z" fill="rgb(228,171,108)" transform="translate(0,0)"></path>
<path d="M 1279.75 836.195 C 1282.88 837.44 1281.79 836.423 1283.39 839.04 C 1281.12 860.164 1275.37 888.686 1271.94 910.369 C 1267.86 936.559 1263.61 962.721 1259.19 988.855 C 1257.89 996.647 1254.97 1018.64 1252.48 1024.18 C 1250.16 1022.8 1250.86 1023.34 1249.04 1021.39 C 1248.92 1015.14 1252.87 992.236 1254 985.354 L 1265.69 916.132 L 1274.14 865.848 C 1275.63 856.914 1277.3 844.664 1279.75 836.195 z" fill="rgb(228,171,108)" transform="translate(0,0)"></path>
<path d="M 1316.18 856.142 C 1318.01 856.638 1318.07 856.77 1319.79 857.609 C 1320.31 860.338 1291.64 1013.67 1288.45 1023.16 C 1286.1 1022.33 1286.15 1022.47 1284.32 1020.82 C 1284.21 1016.89 1292.25 975.08 1293.59 969.131 C 1301.53 933.931 1306.85 890.451 1316.18 856.142 z" fill="rgb(228,171,108)" transform="translate(0,0)"></path>
<path d="M 725.842 854.589 L 728.61 856.271 C 730.845 861.717 733.659 880.695 734.955 887.631 C 740.062 914.341 744.919 941.099 749.526 967.901 C 751.788 980.909 758.357 1012.42 759.186 1024.06 C 756.536 1023.48 755.769 1023.68 753.894 1021.88 C 747.511 995.46 743.846 963.856 738.241 936.971 C 736.031 926.369 723.792 861.79 725.842 854.589 z" fill="rgb(228,171,108)" transform="translate(0,0)"></path>
<path d="M 939.51 843.548 C 941.403 843.981 942.286 844.302 944.123 844.923 C 945.895 850.579 950.814 1010.35 949.654 1023.38 C 948.557 1022.81 947.312 1021.98 946.241 1021.31 C 945.118 1016.07 944.71 995.24 944.445 989.032 C 943.238 959.603 942.251 930.165 941.484 900.721 C 941.059 886.989 938.655 855.389 939.51 843.548 z" fill="rgb(228,171,108)" transform="translate(0,0)"></path>
<path d="M 1239.42 856.185 C 1242.13 857.124 1241.1 856.257 1242.85 858.393 C 1239.87 886.479 1234.34 918.552 1230.46 946.804 C 1227.51 968.195 1223.02 1001.73 1218.37 1022.19 C 1217.17 1021.89 1216.35 1021.48 1215.21 1021 C 1213.98 1014.37 1236.23 865.239 1239.42 856.185 z" fill="rgb(228,171,108)" transform="translate(0,0)"></path>
<path d="M 803.344 861.253 L 806.011 862.927 C 809.79 870.292 826.432 1010.97 825.528 1023.75 C 824.409 1023.4 822.859 1022.68 821.737 1022.2 C 819.778 1016.46 802.562 868.792 803.344 861.253 z" fill="rgb(228,171,108)" transform="translate(0,0)"></path>
<path d="M 854.353 936.714 C 856.162 936.835 857.972 936.944 859.783 937.039 L 860.027 938.522 C 860.693 942.388 861.288 946.573 861.899 955.002 C 863.41 976.622 867.074 998.918 867.552 1020.34 C 867.572 1021.21 864.529 1021.43 864.378 1020.67 C 860.135 999.24 857.914 974.004 856.11 951.997 C 855.714 946.883 855.128 941.785 854.353 936.714 z" fill="rgb(228,171,108)" transform="translate(0,0)"></path>
<path d="M 910.996 1181.11 L 913.342 1182.74 C 914.577 1185.84 923.247 1298.58 923.391 1307.4 L 922.578 1307.42 C 917.639 1265.86 914.523 1222.87 910.996 1181.11 z" fill="rgb(145,146,151)" transform="translate(0,0)"></path>
<path d="M 1101.7 1459.84 C 1101.42 1463.52 1099.25 1491.56 1097.44 1492.61 L 1097.28 1492.55 C 1096.52 1489.84 1098.88 1460.33 1099.47 1456.06 L 1101.7 1459.84 z" fill="rgb(244,243,246)" transform="translate(0,0)"></path>
<path d="M 1013.49 1623.99 C 1016.69 1623.9 1036.21 1623.59 1037.59 1624.95 L 1037.56 1625.17 C 1035.9 1626.32 1014.44 1626.08 1010.85 1626.01 L 1013.49 1623.99 z" fill="rgb(175,177,180)" transform="translate(0,0)"></path>
<path d="M 981.625 1599.84 C 983.358 1599.87 993.25 1600.09 994.46 1601.24 L 994.508 1601.43 C 994.435 1601.51 994.362 1601.59 994.289 1601.68 L 993.159 1601.25 L 992.566 1602.04 C 990.361 1602.03 988.162 1602.08 985.958 1602.03 L 981.625 1599.84 z" fill="rgb(74,79,87)" transform="translate(0,0)"></path>
<path d="M 976.168 1600.1 C 978.079 1600.09 979.732 1599.98 981.625 1599.84 L 985.958 1602.03 C 982.945 1601.99 979.931 1601.98 976.918 1602.01 L 976.168 1600.1 z" fill="rgb(175,177,180)" transform="translate(0,0)"></path>
<path d="M 996.661 124.362 C 994.249 107.183 990.622 114.393 981.977 103.748 C 958.305 74.6031 977.929 32.0872 1014.22 27.4123 C 1027.55 25.7458 1040.98 29.6929 1051.29 38.3103 C 1061.25 46.4572 1067.45 58.3237 1068.45 71.155 C 1069.21 82.0937 1065.57 93.7655 1058.63 102.296 C 1052.88 109.377 1038.08 115.204 1043.88 125.556 C 1051.02 128.675 1053.11 122.796 1056 127.976 C 1053.6 135.027 1045.49 137.062 1046.73 149.257 C 1048.57 167.381 1067.92 171.507 1083.45 176.648 C 1129.68 191.952 1159.1 233.828 1111.3 270.9 C 1090.25 287.227 1082.57 297.696 1080.22 324.99 L 1001.42 324.823 L 1002.34 307.202 C 1011.05 307.607 1034.23 306.265 1040.46 307.519 L 1040.03 304.956 C 1004.28 301.363 941.764 265.656 958.454 221.78 C 966.853 199.701 988.855 187.265 1009.03 178.114 C 1009.57 163.942 1009.71 149.336 1010.01 135.124 C 1023.47 134.949 1035.45 135.023 1048.78 132.894 C 1032.58 130.399 1017.47 131.011 1001.13 131.181 C 1000.31 131.577 1000.39 131.576 999.927 132.392 C 997.207 131.574 988.982 129.096 986.719 131.469 C 986.831 132.069 988.457 132.905 988.852 133.162 C 987.449 132.945 979.844 133.08 983.972 126.593 C 984.826 125.251 993.966 126.2 996.024 126.418 L 996.661 124.362 z" fill="rgb(54,60,69)" transform="translate(0,0)"></path>
<path d="M 1011.66 41.0752 C 1007.39 48.9987 1002.58 60.857 1002.35 70.0071 C 1002.05 81.4815 996.825 102.442 1008.18 109.781 C 1011.11 111.705 1010.09 121.211 1010.3 124.636 L 1010.74 127.008 L 1005.39 127.041 L 1003.01 125.123 C 1003.12 119.88 1003.12 114.841 1003.31 109.581 C 985.553 98.4395 973.742 78.4307 984.957 57.4797 C 990.184 47.714 1001.71 44.1461 1011.66 41.0752 z" fill="rgb(250,250,249)" transform="translate(0,0)"></path>
<path d="M 996.661 124.362 C 999.756 124.36 1000.03 124.211 1003.01 125.123 L 1005.39 127.041 L 1010.74 127.008 L 1011.22 127.896 C 1008.12 128.339 990.316 127.978 990.125 128.253 C 987.242 126.767 1002.4 131.506 1001.13 131.181 C 1000.31 131.577 1000.39 131.576 999.927 132.392 C 997.207 131.574 988.982 129.096 986.719 131.469 C 986.831 132.069 988.457 132.905 988.852 133.162 C 987.449 132.945 979.844 133.08 983.972 126.593 C 984.826 125.251 993.966 126.2 996.024 126.418 L 996.661 124.362 z" fill="rgb(74,79,87)" transform="translate(0,0)"></path>
<path d="M 996.661 124.362 C 999.756 124.36 1000.03 124.211 1003.01 125.123 L 1005.39 127.041 C 1001.55 127.021 999.801 127.111 996.024 126.418 L 996.661 124.362 z" fill="rgb(175,177,180)" transform="translate(0,0)"></path>
<path d="M 1010.3 124.636 C 1010.48 124.637 1044.21 123.735 1035.32 127.694 C 1034.01 128.28 1014.69 127.864 1011.22 127.896 L 1010.74 127.008 L 1010.3 124.636 z" fill="rgb(175,177,180)" transform="translate(0,0)"></path>
<path d="M 1040.03 304.956 C 1040.97 305.084 1044.77 305.35 1045.23 306.427 C 1044.73 307.054 1041.24 307.388 1040.46 307.519 L 1040.03 304.956 z" fill="rgb(175,177,180)" transform="translate(0,0)"></path>
<path d="M 618.175 1437.43 C 649.643 1447.91 688.561 1448.64 719.889 1437.41 C 703.514 1481.74 709.284 1499.6 718.143 1544.94 C 727.089 1590.73 733.48 1649.3 700.298 1686.87 C 681.784 1707.83 679.984 1728.04 680.816 1755.13 C 683.169 1756.26 687.01 1757.37 689.626 1758.22 C 694.134 1761.98 692.818 1775.85 692.811 1781.91 L 647.082 1781.91 L 647.075 1759.2 C 651.269 1757.71 656.196 1756.28 660.498 1754.93 C 660.64 1743.47 659.697 1725.74 656.22 1715.08 C 644.39 1680.87 616.795 1664.33 611.77 1626.15 C 601.674 1549.46 653.681 1512.35 618.175 1437.43 z" fill="rgb(54,60,69)" transform="translate(0,0)"></path>
<path d="M 639.706 1458.49 C 645.975 1462.4 647.544 1470.65 647.338 1477.64 C 646.124 1518.86 626.49 1567.72 628.037 1607.99 C 628.527 1623.26 631.675 1638.33 637.34 1652.52 C 639.868 1658.85 646.428 1666.88 646.19 1670.16 C 644.58 1669 643.009 1667.79 641.479 1666.52 C 613.599 1643.53 615.328 1584.9 625.148 1554.42 C 638.159 1514.03 643.473 1501.47 639.706 1458.49 z" fill="rgb(250,250,249)" transform="translate(0,0)"></path>
<path d="M 520.125 1437.11 C 521.594 1439.25 518.872 1445.28 517.713 1447.99 C 503.225 1481.54 515.074 1516.84 520.727 1550.53 C 526.785 1586.63 532.582 1648.22 508.569 1678.7 C 484.091 1709.77 480.498 1715.77 482.511 1756.35 C 486.262 1757.08 490.004 1757.86 493.736 1758.68 C 493.983 1765.95 493.884 1773.9 493.944 1781.23 C 479.266 1781.7 462.928 1781.37 448.123 1781.39 L 448.662 1758.92 L 460.772 1755.2 C 461.844 1709.21 455.251 1704.84 428.74 1667.04 C 407.315 1636.09 410.123 1589.49 419.185 1554.72 C 429.817 1513.94 444.696 1477.47 418.887 1437.85 C 449.657 1446.23 490.27 1450.46 520.125 1437.11 z" fill="rgb(54,60,69)" transform="translate(0,0)"></path>
<path d="M 440.026 1458.61 C 443.96 1460.54 447.63 1464.81 447.843 1469.3 C 450.841 1532.44 410.761 1596.79 441.498 1658.55 C 443.572 1662.71 447.048 1666.51 448.593 1670.36 L 447.417 1670.58 C 414.717 1643.47 416.01 1589.68 426.879 1553 C 438.452 1513.95 447.381 1502.26 440.026 1458.61 z" fill="rgb(250,250,249)" transform="translate(0,0)"></path>
<path d="M 1323.25 1439.51 C 1330.88 1440.52 1341.74 1443.43 1350.09 1444.72 C 1377.14 1448.92 1399.37 1446.16 1425.54 1439.14 C 1411.33 1476.34 1413.47 1494.19 1421.65 1533.27 C 1429.81 1572.25 1436.27 1617.13 1424.84 1655.89 C 1418.48 1677.46 1402.17 1690.73 1392.2 1710.01 C 1386.91 1720.33 1384.58 1742.02 1387.21 1753.44 C 1387.81 1756.05 1392.49 1757.07 1395.14 1757.98 C 1400.82 1760.74 1399.03 1775.12 1399.03 1781.44 C 1384.03 1781.86 1367.76 1781.58 1352.66 1781.6 C 1352.63 1774.41 1352.99 1766.88 1353.22 1759.67 C 1356.71 1757.9 1361.98 1756.19 1365.78 1754.82 C 1365.98 1741.26 1365.68 1727.03 1361.45 1713.88 C 1352.14 1684.91 1325.03 1666.56 1319.68 1635.58 C 1317.8 1628.1 1317.5 1620.56 1317.08 1612.97 C 1315 1575.78 1328.69 1544.19 1336.18 1509.12 C 1340.31 1489.73 1336.11 1456.16 1323.25 1439.51 z" fill="rgb(54,60,69)" transform="translate(0,0)"></path>
<path d="M 1344.89 1458.63 C 1349.33 1461.82 1352.93 1469.05 1352.9 1474.54 C 1352.47 1546.87 1311.57 1601.76 1353.35 1671.06 L 1352.79 1671.99 C 1346.13 1666.18 1341.72 1662.34 1337.08 1654.49 C 1321.31 1628.6 1322.72 1579.25 1332.25 1551.36 C 1345.85 1511.58 1349.96 1501.46 1344.89 1458.63 z" fill="rgb(250,250,249)" transform="translate(0,0)"></path>
<path d="M 1720.82 1438.63 C 1757.81 1450.75 1785.3 1446.57 1822.25 1439.14 C 1806.17 1473.79 1812 1498.73 1818.72 1535.27 C 1826.02 1575.01 1833.01 1620.9 1820.12 1660.06 C 1814.63 1676.75 1801.63 1688.68 1792.65 1703.29 C 1785.2 1715.18 1780.87 1740.74 1784.44 1753.86 C 1787.44 1757.18 1787.27 1756.32 1792.12 1758.02 L 1794.88 1760.13 C 1796.31 1763.88 1795.63 1776.4 1795.55 1781.22 L 1750.27 1781.12 C 1750.22 1773.96 1750.52 1766.61 1750.72 1759.43 L 1762.59 1754.41 C 1762.61 1743.02 1762.81 1733.58 1760.43 1722.37 C 1752.57 1685.33 1721.16 1668.29 1716 1629.63 C 1712.99 1607.13 1715.9 1573.26 1721.92 1551.37 C 1733.5 1509.23 1742.9 1480.29 1720.82 1438.63 z" fill="rgb(54,60,69)" transform="translate(0,0)"></path>
<path d="M 1745.76 1667.67 L 1742.04 1663.82 C 1714.32 1635.48 1719.9 1581.13 1730.89 1547 C 1739.7 1519.62 1746.99 1497.76 1742.95 1468.51 C 1742.64 1466.23 1741.91 1462.74 1743.04 1460.93 C 1747.12 1463.41 1749.83 1470.59 1749.83 1475.19 C 1749.79 1536.73 1710.58 1607.81 1747.16 1665.22 L 1745.76 1667.67 z" fill="rgb(250,250,249)" transform="translate(0,0)"></path>
<path d="M 1747.16 1665.22 L 1748.24 1666.52 C 1750.25 1669.93 1749.85 1669.51 1745.76 1667.67 L 1747.16 1665.22 z" fill="rgb(244,243,246)" transform="translate(0,0)"></path>
<path d="M 220.418 1437.72 C 248.487 1447.49 296.906 1449.98 323.634 1437.76 C 307.219 1472.71 312.725 1498.67 319.56 1535.33 C 326.546 1572.51 330.548 1608.87 324.051 1646.4 C 318.263 1679.83 290.333 1694.01 284.707 1725.74 C 283.683 1731.51 282.629 1750.17 284.836 1755.06 C 287.497 1757.53 290.042 1757.26 293.777 1757.62 L 295.397 1758.89 C 296.639 1764.02 296.515 1775.55 296.631 1781.36 L 250.473 1781.38 C 250.393 1774.18 250.643 1766.63 250.776 1759.4 L 263.907 1755.04 C 265.692 1707.02 252.034 1698.44 227.861 1662.03 C 203.062 1624.69 218.523 1562.54 229.99 1522.49 C 238.165 1493.94 236.317 1463.99 220.418 1437.72 z" fill="rgb(54,60,69)" transform="translate(0,0)"></path>
<path d="M 243.365 1664.83 C 208.521 1627.56 223.971 1563.87 239.224 1520.96 C 246.364 1500.87 244.909 1476.15 241.325 1455.58 C 254.399 1472.47 250.528 1483.76 247.753 1503.43 C 239.829 1559.61 216.568 1610.95 247.452 1664.99 L 243.365 1664.83 z" fill="rgb(250,250,249)" transform="translate(0,0)"></path>
<path d="M 243.365 1664.83 L 247.452 1664.99 C 247.867 1665.5 249.787 1667.7 249.56 1668.34 C 248.907 1670.16 243.694 1665.11 243.365 1664.83 z" fill="rgb(244,243,246)" transform="translate(0,0)"></path>
<path d="M 1626.8 1439.26 C 1627.14 1443.63 1615.11 1467.02 1616.45 1485.24 C 1620.39 1538.9 1638.45 1588.5 1628.05 1642.97 C 1626.21 1652.29 1621.15 1669.25 1615.17 1676.73 C 1591.33 1706.55 1586.88 1716.34 1588.4 1755.08 L 1599.86 1758.82 L 1599.85 1781.47 C 1585.5 1781.86 1569.25 1781.37 1554.76 1781.25 C 1554.48 1773.96 1554.86 1766.09 1555.07 1758.74 C 1558.96 1757.9 1564.19 1757.35 1566.89 1754.76 C 1568.25 1677.83 1532.57 1691.52 1519.69 1627.75 C 1516.53 1612.1 1520.91 1570.53 1525.91 1554.08 C 1537.88 1514.72 1546.93 1479 1525.83 1439.42 C 1563.99 1449.99 1589.3 1449.28 1626.8 1439.26 z" fill="rgb(54,60,69)" transform="translate(0,0)"></path>
<path d="M 1546.06 1462.24 C 1546.62 1462.43 1547.2 1462.57 1547.74 1462.79 C 1549.51 1463.5 1550.47 1464.46 1551.55 1466.02 C 1562.21 1481.52 1540.82 1558.94 1537.68 1580.51 C 1535.45 1595.9 1534.53 1613.02 1537.08 1628.42 C 1538.58 1637.52 1542.25 1648.98 1546.61 1657.06 C 1548.74 1661.01 1551.76 1664.33 1553.68 1668.39 L 1552.29 1668.95 C 1519.5 1644.07 1523.13 1591.82 1532.89 1556.92 C 1543.78 1517.97 1552.25 1503.8 1546.06 1462.24 z" fill="rgb(250,250,249)" transform="translate(0,0)"></path>
<path d="M 986.321 330.505 C 1018.18 330.331 1050.04 330.379 1081.9 330.647 C 1108.46 330.837 1138.05 325.081 1153 350.687 C 1165.08 371.375 1150.23 400.928 1127.49 403.506 C 1104.43 406.121 1078.44 404.561 1055.07 404.51 L 967.369 404.503 C 947.136 404.623 915.786 409.291 900.429 395.13 C 893.092 388.288 888.79 378.801 888.479 368.774 C 887.084 330.481 925.14 328.647 952.409 330.501 C 962.87 331.212 975.627 330.505 986.321 330.505 z" fill="rgb(54,60,69)" transform="translate(0,0)"></path>
<path d="M 937.32 340.408 C 968.95 341.036 1016.16 363.352 1044.01 378.895 L 1016.6 379.902 C 997.456 379.896 935.9 385.082 922.638 377.814 C 918.223 375.395 914.332 371.618 913.183 366.562 C 911.927 361.035 913.888 354.147 917.199 349.643 C 922.011 343.095 929.693 341.287 937.32 340.408 z" fill="rgb(250,250,249)" transform="translate(0,0)"></path>
<path d="M 988.852 133.162 C 988.457 132.905 986.831 132.069 986.719 131.469 C 988.982 129.096 997.207 131.574 999.927 132.392 L 1002.07 133.778 C 1004.4 140.07 1002.21 166.589 1001.77 174.401 C 982.583 184.718 956.941 191.804 942.645 209.18 C 913.547 244.545 963.609 276.898 987.381 294.869 C 987.937 304.581 987.71 315.17 987.692 324.962 L 959.744 324.918 C 970.545 288.154 935.996 279.032 918.519 256.317 C 891.123 220.711 924.756 187.623 958.437 176.708 C 970.4 172.831 991.766 169.426 991.176 153.848 C 991.09 146.958 993.886 139.208 988.852 133.162 z" fill="rgb(54,60,69)" transform="translate(0,0)"></path>
<path d="M 486.188 1388.48 C 495.355 1390.05 503.172 1391.63 511.821 1395.12 C 512.229 1396.55 512.337 1396.92 512.895 1398.25 C 522.393 1395.52 530.961 1404.09 537.371 1410.75 C 537.197 1412.67 537.355 1413.21 537.572 1415.24 C 537.32 1422.04 526.953 1429.63 521.979 1433.36 C 509.516 1427.18 496.724 1421.13 483.941 1415.64 C 481.104 1416.53 478.934 1414.49 478.523 1411.97 C 478.943 1411.34 480.888 1410.11 480.496 1409.36 C 479.219 1408.85 478.711 1409.69 477.641 1409.41 C 477.27 1409.03 477.307 1408.58 477.21 1408 C 480.334 1401.56 483.328 1395.05 486.188 1388.48 z" fill="rgb(244,243,246)" transform="translate(0,0)"></path>
<path d="M 483.941 1415.64 C 494.61 1414.82 526.766 1414.54 537.572 1415.24 C 537.32 1422.04 526.953 1429.63 521.979 1433.36 C 509.516 1427.18 496.724 1421.13 483.941 1415.64 z" fill="rgb(54,60,69)" transform="translate(0,0)"></path>
<path d="M 512.895 1398.25 C 522.393 1395.52 530.961 1404.09 537.371 1410.75 C 531.624 1411.6 520.987 1411.52 515.05 1411.15 C 506.681 1410.22 491.879 1412.09 486.995 1409.46 C 492.61 1407.24 509.205 1401.59 512.895 1398.25 z" fill="rgb(54,60,69)" transform="translate(0,0)"></path>
<path d="M 486.188 1388.48 C 495.355 1390.05 503.172 1391.63 511.821 1395.12 C 505.998 1398.23 483.4 1407.3 477.21 1408 C 480.334 1401.56 483.328 1395.05 486.188 1388.48 z" fill="rgb(54,60,69)" transform="translate(0,0)"></path>
<path d="M 515.05 1411.15 C 505.289 1412.29 494.847 1411.68 484.992 1412 C 484.243 1412.03 481.105 1412.33 481.487 1411.02 C 482.924 1410 485.301 1409.71 486.995 1409.46 C 491.879 1412.09 506.681 1410.22 515.05 1411.15 z" fill="rgb(74,79,87)" transform="translate(0,0)"></path>
<path d="M 289.071 1389.72 C 297.752 1391.64 305.549 1393.04 314.269 1395.31 C 316.084 1395.95 315.788 1396.57 317.728 1398.09 C 325.33 1399.16 332.981 1405.46 337.949 1411.07 L 339.01 1412.24 C 339.298 1413.72 339.542 1414.69 339.933 1416.14 C 335.08 1425.56 332.715 1427.39 323.673 1433.48 C 312.01 1427.75 301.897 1423.53 290.262 1418.24 C 287.975 1417.84 286.914 1417.36 284.725 1416.53 C 284.214 1416.52 282.165 1416.51 281.997 1415.9 C 280.776 1411.47 284.335 1410.3 278.059 1409.13 C 278.657 1409.24 276.011 1405.88 279.388 1405.02 C 282.856 1400.43 285.806 1394.68 289.071 1389.72 z" fill="rgb(244,243,246)" transform="translate(0,0)"></path>
<path d="M 307.552 1416.16 C 316.04 1415.76 331.602 1415.7 339.933 1416.14 C 335.08 1425.56 332.715 1427.39 323.673 1433.48 C 312.01 1427.75 301.897 1423.53 290.262 1418.24 C 295.448 1416.35 300.523 1417.63 307.552 1416.16 z" fill="rgb(54,60,69)" transform="translate(0,0)"></path>
<path d="M 317.728 1398.09 C 325.33 1399.16 332.981 1405.46 337.949 1411.07 L 339.01 1412.24 C 323.685 1412.03 308.464 1412.67 293.095 1412.28 L 291.05 1409.55 C 300.086 1405.75 309.003 1402.8 317.728 1398.09 z" fill="rgb(54,60,69)" transform="translate(0,0)"></path>
<path d="M 289.071 1389.72 C 297.752 1391.64 305.549 1393.04 314.269 1395.31 C 306.3 1400.67 290.075 1405.8 280.472 1407.96 C 279.119 1408.27 279.412 1405.56 279.388 1405.02 C 282.856 1400.43 285.806 1394.68 289.071 1389.72 z" fill="rgb(54,60,69)" transform="translate(0,0)"></path>
<path d="M 284.725 1416.53 C 289.988 1415.79 302.016 1416 307.552 1416.16 C 300.523 1417.63 295.448 1416.35 290.262 1418.24 C 287.975 1417.84 286.914 1417.36 284.725 1416.53 z" fill="rgb(74,79,87)" transform="translate(0,0)"></path>
<path d="M 287.453 1410.11 C 288.757 1409.94 289.782 1409.83 291.05 1409.55 L 293.095 1412.28 L 287.273 1411.82 L 287.453 1410.11 z" fill="rgb(74,79,87)" transform="translate(0,0)"></path>
<path d="M 287.273 1411.82 C 287.208 1411.82 285.145 1411.97 284.745 1411.43 C 285.062 1410.82 287.022 1410.27 287.453 1410.11 L 287.273 1411.82 z" fill="rgb(145,146,151)" transform="translate(0,0)"></path>
<path d="M 1591.95 1390.25 C 1597.99 1391.63 1614.1 1393.75 1617.98 1397.26 C 1618.96 1398.24 1619.28 1398.24 1620.73 1398.95 C 1629.25 1399.05 1637.31 1406.94 1643.18 1412.61 C 1628.76 1413.48 1610.4 1412.96 1595.65 1413.07 C 1594.81 1413.14 1594.16 1413.34 1593.26 1413.53 C 1589.98 1414.04 1589.95 1414.08 1586.72 1413.34 L 1585.85 1409.96 C 1582.22 1406.89 1590.07 1394.03 1591.95 1390.25 z" fill="rgb(54,60,69)" transform="translate(0,0)"></path>
<path d="M 1620.73 1398.95 C 1629.25 1399.05 1637.31 1406.94 1643.18 1412.61 C 1628.76 1413.48 1610.4 1412.96 1595.65 1413.07 L 1596.69 1409.87 C 1603.32 1407.37 1615.41 1403.35 1620.73 1398.95 z" fill="rgb(54,60,69)" transform="translate(0,0)"></path>
<path d="M 1585.85 1409.96 C 1596.59 1405.5 1606.86 1400.76 1617.98 1397.26 C 1618.96 1398.24 1619.28 1398.24 1620.73 1398.95 C 1615.41 1403.35 1603.32 1407.37 1596.69 1409.87 L 1595.65 1413.07 C 1594.81 1413.14 1594.16 1413.34 1593.26 1413.53 C 1589.98 1414.04 1589.95 1414.08 1586.72 1413.34 L 1585.85 1409.96 z" fill="rgb(244,243,246)" transform="translate(0,0)"></path>
<path d="M 1591.73 1411.56 C 1593.5 1411 1594.94 1410.51 1596.69 1409.87 L 1595.65 1413.07 C 1594.81 1413.14 1594.16 1413.34 1593.26 1413.53 L 1591.73 1411.56 z" fill="rgb(74,79,87)" transform="translate(0,0)"></path>
<path d="M 1586.72 1413.34 C 1588.72 1412.43 1589.61 1412.17 1591.73 1411.56 L 1593.26 1413.53 C 1589.98 1414.04 1589.95 1414.08 1586.72 1413.34 z" fill="rgb(145,146,151)" transform="translate(0,0)"></path>
<path d="M 1525.26 1435.12 C 1520.18 1431.62 1509.91 1424.65 1508.23 1418.42 C 1507.45 1415.53 1523.43 1416.8 1525.59 1416.79 C 1536.74 1416.71 1547.95 1417.04 1559.13 1416.92 C 1562.85 1416.8 1568.32 1417.23 1560.85 1419.4 C 1548.57 1423.97 1536.49 1428.07 1525.26 1435.12 z" fill="rgb(54,60,69)" transform="translate(0,0)"></path>
<path d="M 1559.13 1416.92 C 1562.85 1416.8 1568.32 1417.23 1560.85 1419.4 C 1560.16 1418.31 1559.93 1417.85 1559.13 1416.92 z" fill="rgb(74,79,87)" transform="translate(0,0)"></path>
<path d="M 402.044 1415.37 C 420.763 1414.79 440.356 1415.75 459.075 1415.42 C 454.791 1417.41 451.229 1418.97 446.748 1420.59 C 434.54 1425.35 429.513 1428.12 418.339 1433.16 C 412.725 1429.6 402.867 1422.53 402.044 1415.37 z" fill="rgb(54,60,69)" transform="translate(0,0)"></path>
<path d="M 204.306 1415.33 C 222.69 1415.18 241.076 1415.46 259.447 1416.16 C 255.243 1418.07 250.84 1420 246.681 1421.97 C 237.316 1425.48 228.528 1429.22 219.33 1433.04 C 213.092 1428.08 205.937 1423.4 204.306 1415.33 z" fill="rgb(54,60,69)" transform="translate(0,0)"></path>
<path d="M 1306.53 1416.08 C 1324.86 1415.46 1344.21 1416.52 1362.75 1416.25 C 1358.45 1418.22 1354.49 1420.13 1350.1 1421.97 C 1340.9 1425.72 1332.18 1429.15 1323.16 1433.42 L 1323.27 1433.48 C 1317.95 1428.23 1309.24 1425.96 1306.53 1416.08 z" fill="rgb(54,60,69)" transform="translate(0,0)"></path>
<path d="M 1434.55 1416.16 C 1453.57 1414.8 1431.86 1430.21 1426.58 1433.6 L 1393.17 1418.4 C 1392.01 1418.14 1389.36 1417.68 1388.79 1416.48 L 1389.02 1416.2 C 1391.45 1415.49 1429.9 1415.99 1434.55 1416.16 z" fill="rgb(54,60,69)" transform="translate(0,0)"></path>
<path d="M 1393.17 1418.4 C 1392.01 1418.14 1389.36 1417.68 1388.79 1416.48 L 1389.02 1416.2 C 1391.45 1415.49 1429.9 1415.99 1434.55 1416.16 C 1423.77 1418.32 1399.28 1415.48 1393.17 1418.4 z" fill="rgb(74,79,87)" transform="translate(0,0)"></path>
<path d="M 682.076 1415.28 C 700.872 1415.24 719.667 1415.36 738.46 1415.64 C 735.152 1420.07 734.437 1421.48 730.533 1425.52 C 727.83 1427.9 725.787 1429.71 722.658 1431.48 L 721.059 1432.42 C 713.335 1429.21 691.208 1420.18 685.27 1417 L 682.076 1415.28 z" fill="rgb(54,60,69)" transform="translate(0,0)"></path>
<path d="M 1702.3 1415.94 L 1758.4 1416.22 C 1754.89 1417.68 1750.15 1419.66 1746.72 1421.27 C 1737.65 1424.96 1727.2 1429.45 1718.4 1433.68 C 1712 1428.51 1707.85 1424.78 1703.4 1417.66 L 1702.3 1415.94 z" fill="rgb(54,60,69)" transform="translate(0,0)"></path>
<path d="M 1800.77 1416.45 C 1812.99 1416.03 1828.11 1415.93 1840.28 1416.44 C 1834.64 1424.42 1832.39 1426.76 1824.67 1433.24 C 1819.76 1432.52 1792.03 1419.93 1786.45 1417.05 L 1800.77 1416.45 z" fill="rgb(54,60,69)" transform="translate(0,0)"></path>
<path d="M 600.544 1415.1 C 619.062 1414.89 637.862 1416.38 656.249 1414.92 C 652.034 1416.67 648.658 1418.46 644.65 1420.2 C 636.361 1423.68 626.92 1428.39 618.774 1431.38 L 616.946 1432.08 C 608.89 1426.99 603.685 1424.08 600.544 1415.1 z" fill="rgb(54,60,69)" transform="translate(0,0)"></path>
<path d="M 1597.53 1417.37 C 1611.73 1416.94 1626.28 1417.16 1640.49 1416.74 C 1651.74 1416.41 1630.61 1432.84 1629.17 1434.17 C 1618.64 1430.34 1608.01 1424.69 1597.48 1421.4 L 1597.53 1417.37 z" fill="rgb(54,60,69)" transform="translate(0,0)"></path>
<path d="M 422.752 1397.6 L 425.37 1398.55 C 434.418 1401.82 443.395 1405.63 452.583 1408.88 L 454.146 1409.44 C 455.866 1409.51 457.953 1409.61 458.459 1411.56 C 451.836 1413.93 413.76 1411.22 404.347 1411.64 C 403.98 1411.66 403.791 1409.45 403.843 1409.82 C 410.78 1402.33 413.237 1401.29 422.752 1397.6 z" fill="rgb(54,60,69)" transform="translate(0,0)"></path>
<path d="M 454.146 1409.44 C 455.866 1409.51 457.953 1409.61 458.459 1411.56 C 451.836 1413.93 413.76 1411.22 404.347 1411.64 C 403.98 1411.66 403.791 1409.45 403.843 1409.82 C 408.358 1411.81 452.557 1411.93 454.543 1410.35 C 454.411 1410.05 454.278 1409.74 454.146 1409.44 z" fill="rgb(145,146,151)" transform="translate(0,0)"></path>
<path d="M 1820.06 1398.4 L 1823.48 1400.05 C 1827.55 1402.02 1847.05 1413.63 1831.02 1412.85 C 1816.61 1413.7 1799.89 1411.88 1785.54 1413.89 C 1784.71 1414.01 1783.02 1414.76 1782.24 1414.01 C 1782.19 1412.39 1789.68 1410.88 1791.11 1410.69 C 1804.08 1404.7 1806.15 1403.34 1820.06 1398.4 z" fill="rgb(54,60,69)" transform="translate(0,0)"></path>
<path d="M 1831.02 1412.85 C 1816.61 1413.7 1799.89 1411.88 1785.54 1413.89 C 1784.71 1414.01 1783.02 1414.76 1782.24 1414.01 C 1782.19 1412.39 1789.68 1410.88 1791.11 1410.69 C 1795.61 1413.23 1822.25 1411.93 1831.02 1412.85 z" fill="rgb(145,146,151)" transform="translate(0,0)"></path>
<path d="M 203.842 1411.94 C 212.037 1403.83 212.731 1403.29 222.618 1397.3 C 233.693 1401.93 244.347 1405.28 254.955 1409.59 C 258.218 1410.25 258.548 1410.41 261.605 1412.08 C 246.906 1412.01 230.981 1412.25 216.416 1411.82 C 212.436 1412.11 207.881 1411.98 203.842 1411.94 z" fill="rgb(54,60,69)" transform="translate(0,0)"></path>
<path d="M 254.955 1409.59 C 258.218 1410.25 258.548 1410.41 261.605 1412.08 C 246.906 1412.01 230.981 1412.25 216.416 1411.82 C 228.813 1408.72 249.156 1413.36 254.955 1409.59 z" fill="rgb(74,79,87)" transform="translate(0,0)"></path>
<path d="M 1424.88 1399.36 C 1433.51 1404.38 1435.2 1403.58 1441.13 1412.36 C 1436.83 1413.15 1390.15 1413.46 1389.21 1412.45 L 1389.22 1412.04 L 1389.14 1412.25 C 1390.28 1410.86 1391.43 1410.86 1393.3 1410.4 C 1405.34 1405.55 1412.53 1402.9 1424.88 1399.36 z" fill="rgb(54,60,69)" transform="translate(0,0)"></path>
<path d="M 1441.13 1412.36 C 1436.83 1413.15 1390.15 1413.46 1389.21 1412.45 L 1389.22 1412.04 L 1389.14 1412.25 C 1390.28 1410.86 1391.43 1410.86 1393.3 1410.4 C 1393.63 1412.33 1394.61 1411.9 1396.51 1411.97 C 1411.1 1412.53 1426.64 1411.04 1441.13 1412.36 z" fill="rgb(145,146,151)" transform="translate(0,0)"></path>
<path d="M 716.303 1396.58 C 716.885 1396.88 717.467 1397.17 718.049 1397.47 C 718.647 1397.76 719.245 1398.04 719.843 1398.33 C 727.016 1401.82 731.121 1406.28 736.408 1411.99 C 723.82 1411.96 704.636 1412.48 692.558 1411.58 L 690.959 1407.96 C 699.686 1404.45 707.847 1400.65 716.303 1396.58 z" fill="rgb(54,60,69)" transform="translate(0,0)"></path>
<path d="M 620.781 1396.84 C 631.659 1402.81 644.087 1406.33 655.888 1411.98 C 649.185 1411.75 642.479 1411.61 635.773 1411.55 C 624.167 1411.53 612.766 1411.45 601.153 1411.58 C 609.698 1402.73 609.665 1402.77 620.781 1396.84 z" fill="rgb(54,60,69)" transform="translate(0,0)"></path>
<path d="M 1526.62 1399.6 C 1533.55 1401.95 1548.88 1406.21 1554.55 1408.84 L 1557.83 1410.4 C 1566.2 1414.63 1550.97 1413.11 1549.44 1413.01 C 1536.32 1413.3 1521.5 1413.04 1508.29 1412.99 C 1514.7 1406.63 1516.59 1404.43 1524.92 1400.45 L 1526.62 1399.6 z" fill="rgb(54,60,69)" transform="translate(0,0)"></path>
<path d="M 1557.83 1410.4 C 1566.2 1414.63 1550.97 1413.11 1549.44 1413.01 C 1552.61 1411.94 1554.94 1411.66 1557.83 1410.4 z" fill="rgb(54,60,69)" transform="translate(0,0)"></path>
<path d="M 1723.83 1397.82 C 1727.73 1400.67 1750.77 1408.38 1758.75 1411.9 C 1751.39 1411.99 1744.03 1412.04 1736.67 1412.02 C 1724.93 1412.08 1714.32 1411.98 1702.62 1413.06 C 1711.09 1404.31 1713.68 1403.87 1723.83 1397.82 z" fill="rgb(54,60,69)" transform="translate(0,0)"></path>
<path d="M 1759.01 1421.03 C 1760.2 1420.97 1763.68 1420.32 1764.62 1421.26 C 1764.75 1421.69 1755.19 1439.39 1754.09 1441.45 C 1748.08 1440.47 1741.85 1439.4 1735.88 1438.24 C 1731.82 1437.24 1728.66 1436.74 1724.61 1435.97 C 1738.01 1428.47 1744.54 1426.07 1759.01 1421.03 z" fill="rgb(54,60,69)" transform="translate(0,0)"></path>
<path d="M 263.598 1419.12 C 266.016 1421.02 257.461 1436.95 256.128 1441.17 C 248.599 1439.72 241.178 1438.74 233.664 1437 C 232.347 1436.53 228.511 1435.66 227.793 1434.47 C 228.503 1432.27 258.993 1420.59 263.598 1419.12 z" fill="rgb(54,60,69)" transform="translate(0,0)"></path>
<path d="M 660.094 1419.11 C 663.842 1421.86 653.714 1436.5 651.599 1440.26 C 644.873 1438.93 638.03 1437.67 631.283 1436.38 C 630.191 1436.16 625.798 1435.25 624.974 1434.42 C 624.48 1430.84 656.11 1420.24 660.094 1419.11 z" fill="rgb(54,60,69)" transform="translate(0,0)"></path>
<path d="M 676.093 1419.1 C 685.97 1421.45 695.575 1425.55 704.989 1429.28 C 707.62 1430.57 711.88 1431.28 713.899 1433.5 C 714.848 1434.54 710.96 1435.57 710.629 1435.71 C 707.605 1436.52 704.557 1437.23 701.489 1437.85 C 696.214 1438.91 690.821 1439.56 685.488 1440.36 C 683.478 1435.33 676.94 1421.9 676.093 1419.1 z" fill="rgb(54,60,69)" transform="translate(0,0)"></path>
<path d="M 1365.99 1419.95 C 1371.38 1420.7 1360.09 1437.9 1358.4 1440.87 C 1351.34 1439.67 1344.34 1438.62 1337.26 1437.38 L 1336.54 1437.22 C 1320.48 1433.79 1363.16 1420.99 1365.99 1419.95 z" fill="rgb(54,60,69)" transform="translate(0,0)"></path>
<path d="M 1381.2 1418.76 C 1386.39 1420.2 1417.27 1431.39 1418.22 1435.48 C 1417.82 1435.95 1417.36 1436.13 1416.79 1436.44 C 1407.98 1438.64 1400.91 1439.6 1392.06 1441.05 C 1388.65 1433.06 1384.68 1426.45 1381.2 1418.76 z" fill="rgb(54,60,69)" transform="translate(0,0)"></path>
<path d="M 476.481 1418.43 C 488.551 1421.61 500.591 1427.22 511.862 1432.57 C 514.834 1433.98 512.991 1434.91 511.824 1435.91 C 502.8 1438.29 495.826 1439.41 486.585 1440.35 C 482.655 1430.39 481.638 1428.04 476.481 1418.43 z" fill="rgb(54,60,69)" transform="translate(0,0)"></path>
<path d="M 1326.46 1397.82 C 1336.06 1402.55 1344.12 1405.63 1354.15 1409.33 L 1353.06 1412.42 C 1340.59 1411.41 1320.69 1412.17 1307.47 1412.02 L 1308.5 1410.94 C 1314.71 1404.31 1318.58 1401.99 1326.46 1397.82 z" fill="rgb(54,60,69)" transform="translate(0,0)"></path>
<path d="M 278.391 1418.62 C 289.434 1421.74 305.611 1429.01 316.071 1434.53 C 317.139 1435.1 314.754 1436.29 314.71 1436.32 L 312.751 1436.78 C 303.564 1439.01 298.494 1439.58 289.199 1440.48 C 285.635 1432.44 281.881 1426.1 278.391 1418.62 z" fill="rgb(54,60,69)" transform="translate(0,0)"></path>
<path d="M 1583.05 1419.58 C 1594.07 1422.22 1610.13 1429.99 1620.69 1435.11 C 1621.94 1435.72 1618.7 1436.98 1618.79 1436.95 C 1610.49 1438.96 1601.45 1440.47 1592.95 1441.29 C 1589.72 1431.91 1587.2 1428.33 1583.05 1419.58 z" fill="rgb(54,60,69)" transform="translate(0,0)"></path>
<path d="M 1778.45 1419.92 L 1780.31 1420.47 C 1783.36 1421.35 1819.7 1432.44 1813.58 1436.22 C 1804.44 1438.41 1797.8 1439.54 1788.4 1440.36 C 1785.06 1433.24 1781.2 1427.06 1778.45 1419.92 z" fill="rgb(54,60,69)" transform="translate(0,0)"></path>
<path d="M 460.518 1419.98 C 464.341 1420.76 455.358 1437.07 454.068 1439.96 L 440.994 1438.15 C 437.594 1437.65 434.608 1437 431.254 1436.44 C 429.705 1436.02 427.526 1435.85 426.345 1434.63 C 426.315 1434.52 426.222 1434.33 426.409 1434.2 C 433.62 1429.12 453.128 1422.71 460.518 1419.98 z" fill="rgb(54,60,69)" transform="translate(0,0)"></path>
<path d="M 1568.06 1421.11 C 1568.46 1421.32 1569.74 1421.98 1569.54 1422.36 C 1567.14 1426.82 1560.98 1437.35 1558.82 1441.19 C 1551.56 1439.97 1545.52 1439.26 1538.19 1437.7 C 1536.9 1437.35 1533.47 1436.95 1533 1435.44 C 1534.04 1432.7 1563.89 1422.16 1568.06 1421.11 z" fill="rgb(54,60,69)" transform="translate(0,0)"></path>
<path d="M 1354.24 1390.3 C 1357.11 1390.01 1358.53 1389.82 1359.96 1392.96 C 1360.8 1394.81 1366.97 1406.28 1366.58 1407.66 C 1364.08 1409.88 1353.39 1404.97 1350.5 1403.87 C 1344.16 1400.99 1337.59 1398.79 1331.09 1396.32 C 1340.81 1393.52 1344 1391.9 1354.24 1390.3 z" fill="rgb(54,60,69)" transform="translate(0,0)"></path>
<path d="M 451.394 1389.4 C 455.488 1389.11 462.145 1405.97 463.642 1409.66 C 458.264 1407.82 454.63 1406.17 449.439 1404 C 441.83 1400.59 434.081 1398.25 426.457 1394.9 C 435.52 1392.06 441.949 1390.58 451.394 1389.4 z" fill="rgb(54,60,69)" transform="translate(0,0)"></path>
<path d="M 685.355 1388.72 C 694.983 1390.52 703.738 1392.62 713.14 1395.31 C 708.209 1397.14 703.476 1398.83 698.643 1400.95 L 697.192 1401.55 C 687.835 1405.53 685.66 1405.95 676.079 1407.89 C 679.86 1400.47 682.72 1396.77 685.355 1388.72 z" fill="rgb(54,60,69)" transform="translate(0,0)"></path>
<path d="M 270.658 1419.31 C 278.334 1422.81 280.85 1433.08 284.527 1440.07 C 285.279 1441.51 276.602 1441.49 276.277 1441.51 C 270.497 1441.49 265.894 1441.24 260.134 1440.88 C 263.748 1433.25 266.418 1426.73 270.658 1419.31 z" fill="rgb(54,60,69)" transform="translate(0,0)"></path>
<path d="M 650.365 1389.34 C 653.894 1389.2 660.395 1405.78 661.964 1409.33 C 655.875 1407.31 651.664 1405.71 645.759 1402.96 C 638.54 1400.17 632.199 1397.95 624.848 1395.46 C 634.014 1392.44 640.737 1390.77 650.365 1389.34 z" fill="rgb(54,60,69)" transform="translate(0,0)"></path>
<path d="M 252.907 1390.42 C 257.875 1390.04 263.566 1405.59 265.834 1410.19 C 260.775 1408.33 255.819 1406.38 250.736 1404.57 L 228.821 1396.43 C 239.951 1392.54 241.376 1391.91 252.907 1390.42 z" fill="rgb(54,60,69)" transform="translate(0,0)"></path>
<path d="M 1750.77 1390.31 C 1756.55 1390.44 1762.34 1404.77 1764.4 1409.56 C 1758.13 1407.5 1752.4 1405.07 1746.27 1403.03 C 1739.85 1400.74 1733.36 1398.8 1726.97 1396.33 C 1736.3 1393.86 1741.02 1391.89 1750.77 1390.31 z" fill="rgb(54,60,69)" transform="translate(0,0)"></path>
<path d="M 668.455 1418.89 C 674.234 1423.7 677.291 1432.06 680.673 1438.63 C 682.494 1442.16 671.754 1441.07 670.155 1441.1 C 665.641 1441.1 661.127 1441.02 656.616 1440.87 C 660.791 1432.31 663.021 1426.73 668.455 1418.89 z" fill="rgb(54,60,69)" transform="translate(0,0)"></path>
<path d="M 1575.91 1420.51 C 1580.92 1423.02 1585.67 1434.62 1588.44 1439.71 C 1590.08 1442.73 1580.57 1442.02 1579.19 1442.07 C 1573.48 1442.13 1569.56 1442 1563.87 1441.6 C 1568.27 1432.29 1570.09 1429.01 1575.91 1420.51 z" fill="rgb(54,60,69)" transform="translate(0,0)"></path>
<path d="M 1391.91 1390.58 L 1394.05 1390.86 C 1399.54 1391.54 1406.24 1393.07 1411.58 1394.55 L 1418.15 1396.36 C 1413.04 1398.31 1407.25 1400.3 1402.3 1402.45 C 1394.68 1405.07 1389.31 1407.28 1381.26 1409.65 C 1384.8 1401.38 1386.97 1397.94 1391.91 1390.58 z" fill="rgb(54,60,69)" transform="translate(0,0)"></path>
<path d="M 1374.22 1419.42 C 1376.86 1421.39 1377.54 1422.4 1379.22 1425.39 C 1382.18 1430.69 1385.09 1436.02 1387.95 1441.38 C 1383.72 1441.69 1380.47 1441.84 1376.23 1441.92 C 1371.36 1441.81 1367.7 1441.58 1362.87 1441.14 C 1365.18 1436.26 1371.57 1423.58 1374.22 1419.42 z" fill="rgb(54,60,69)" transform="translate(0,0)"></path>
<path d="M 1558.02 1391.04 C 1562.5 1397.53 1566.47 1405.55 1570.39 1412.46 C 1558.6 1407.09 1551.37 1403.94 1539.27 1399.37 C 1538.11 1398.95 1535.48 1398.33 1534.75 1397.31 C 1535.06 1395.73 1539.75 1395.13 1541.14 1394.77 L 1544 1394.05 C 1548.67 1392.87 1553.32 1392.2 1558.02 1391.04 z" fill="rgb(54,60,69)" transform="translate(0,0)"></path>
<path d="M 1539.27 1399.37 C 1538.11 1398.95 1535.48 1398.33 1534.75 1397.31 C 1535.06 1395.73 1539.75 1395.13 1541.14 1394.77 L 1539.27 1399.37 z" fill="rgb(74,79,87)" transform="translate(0,0)"></path>
<path d="M 468.067 1420.42 C 471.589 1421.04 474.126 1422.54 475.496 1426 C 480.545 1438.77 488.768 1440.51 474.118 1440.95 C 469.071 1441.03 464.023 1440.97 458.978 1440.79 C 461.452 1434.49 464.547 1426.01 468.067 1420.42 z" fill="rgb(54,60,69)" transform="translate(0,0)"></path>
<path d="M 1770.36 1421.34 C 1777.54 1422.81 1780.69 1433.96 1784.22 1440.75 C 1780.53 1441.21 1776.66 1441.43 1772.93 1441.74 C 1768.76 1441.75 1764.64 1441.73 1760.5 1441.21 L 1758.5 1440.99 C 1762.38 1434.69 1766.61 1427.27 1770.36 1421.34 z" fill="rgb(54,60,69)" transform="translate(0,0)"></path>
<path d="M 1787.41 1389.66 L 1788.74 1389.95 C 1795.22 1391.42 1804 1392.65 1810.01 1395.12 L 1809.84 1397.86 C 1797.58 1402.72 1792.7 1405.69 1779.68 1408.36 C 1782.27 1402.11 1784.87 1395.93 1787.41 1389.66 z" fill="rgb(54,60,69)" transform="translate(0,0)"></path>
<path d="M 1564 1390.25 C 1571.66 1389.88 1579.56 1389.93 1587.24 1389.95 C 1584.99 1394.69 1582.69 1399.4 1580.74 1404.27 C 1579.81 1406.05 1578.17 1410.33 1575.54 1408.55 C 1570.77 1405.31 1565.46 1395.64 1564 1390.25 z" fill="rgb(54,60,69)" transform="translate(0,0)"></path>
<path d="M 658.761 1388.43 C 666.213 1388.25 673.668 1388.29 681.118 1388.55 C 677.905 1394.96 677.037 1397.28 672.84 1403.59 C 672.406 1404.15 669.9 1408.09 669.016 1407.45 C 665.432 1404.87 656.954 1392.75 658.761 1388.43 z" fill="rgb(54,60,69)" transform="translate(0,0)"></path>
<path d="M 1363.1 1389.13 C 1372.43 1388.65 1377.65 1388.86 1386.74 1389.85 C 1383.82 1394.24 1381.65 1398.16 1378.9 1402.5 C 1377.45 1405.22 1376.13 1407.34 1374.46 1409.94 C 1369.16 1402.25 1366.7 1397.76 1363.1 1389.13 z" fill="rgb(54,60,69)" transform="translate(0,0)"></path>
<path d="M 259.517 1389.1 C 267.511 1388.85 275.511 1388.88 283.503 1389.18 C 281.373 1394.08 279.973 1396.56 277.282 1401.15 C 271.946 1409.78 271.98 1410.78 266.467 1401.05 C 264.23 1397.1 261.892 1392.97 259.517 1389.1 z" fill="rgb(54,60,69)" transform="translate(0,0)"></path>
<path d="M 457.841 1388.78 C 465.505 1388.55 473.601 1388.69 481.299 1388.71 C 478.495 1395.45 478.145 1396.07 474.179 1402.5 C 473.75 1403.16 470.202 1408.62 469.09 1407.62 C 464.628 1403.63 460.693 1394.05 457.841 1388.78 z" fill="rgb(54,60,69)" transform="translate(0,0)"></path>
<path d="M 1769.76 1389.4 C 1774.45 1389.08 1778.7 1389.06 1783.4 1389.01 C 1778.87 1398.19 1779.57 1398.93 1772.85 1407.38 C 1767.89 1408.35 1760.01 1390.71 1760.29 1390.26 C 1761.24 1389.8 1768.39 1389.49 1769.76 1389.4 z" fill="rgb(54,60,69)" transform="translate(0,0)"></path>
<path d="M 692.558 1411.58 C 691.196 1411.49 686.425 1411.64 685.639 1411.17 C 685.509 1410.93 685.535 1411.06 685.569 1410.77 C 686.431 1409.77 689.727 1408.53 690.959 1407.96 L 692.558 1411.58 z" fill="rgb(74,79,87)" transform="translate(0,0)"></path>
<path d="M 1354.15 1409.33 C 1355.3 1409.75 1357.67 1410.3 1358.32 1411.47 C 1358.27 1412.56 1353.55 1412.39 1353.06 1412.42 L 1354.15 1409.33 z" fill="rgb(74,79,87)" transform="translate(0,0)"></path>
<path d="M 1597.48 1421.4 C 1596.85 1421.11 1592.62 1419.68 1592.66 1418.57 C 1593.4 1417.63 1596.41 1417.53 1597.53 1417.37 L 1597.48 1421.4 z" fill="rgb(54,60,69)" transform="translate(0,0)"></path>
<path d="M 1810.01 1395.12 C 1816.35 1395.48 1813.52 1396.52 1809.84 1397.86 L 1810.01 1395.12 z" fill="rgb(74,79,87)" transform="translate(0,0)"></path>
<metadata><recraft-signature>{"signed_by": "recraft", "signature_b64": "EImeHzIoXOeG5fOXxjLp1jXCMPxtk/M7rjgcKoTWWXHA0NtkS/AcEYxlYSdP75SWyLTdxgIUwoZ44IZWaoD4AQ==", "signing_algo": "Ed25519", "generation_timestamp": 1777251220, "identifier": "a5fc8c39-e726-4ad4-bfaa-e88605750ef4"}</recraft-signature></metadata></svg>