<svg xmlns="http://www.w3.org/2000/svg" width="1024" height="1024" preserveAspectRatio="none" style="display:block" viewBox="0 0 2048 2048"><path fill="#39454e" d="M1021.02 817.452c3.77.327 7.19.685 10.99.667l7.03-.078c3.31-.059 7.11-.518 9.93.918 2.66 9.877-1.06 73.525-1.19 88.378 6.24 3.437 27.7 15.015 32.04 19.257l-.37 1.001-6.29.561-1.93 1.247c3.91 3.312 5.71 4.667 8.94 8.688-2.11.748-3.59.369-5.97.248.85 3.824 13.78 8.843 12.45 13.39-3.3-.188-3.39-.312-6.58-1.36l-.8 2.846c21.49 17.137 25.63 18.392 49.77 30.084l1 4.214c-5.86.198-10.99.217-16.8 1.18l-.84.982c4.72 2.988 9.53 3.476 12.54 6.882-4.69 1.206-5.42.754-10.4 1.015 10.77 7.998 23.78 16.758 35.14 24.038l-2.37 3.27-.44.89c34.75 22.95 74.73 44.22 107.82 66.77 1.16.41 3.8 1.5 3.83 2.36.08 2.32-11.72-.67-13.42-.85 4.28 3.01 19.67 13.43 22.66 16.39-2.62 1.32-5.46.71-8.75.61l-.07.88c21.37 14.88 42.85 29.61 64.43 44.19 9.99 6.78 21.93 14.11 31.28 21.36-13.93-6.04-35.94-16.15-50.27-20.56 5.55 4.47 14.57 11.29 19.34 16.14-7.34-.03-12.9.04-20.18-.91 30.16 30.34 62.74 58.82 93.42 88.7 12.1 11.78 27.51 25.12 38.79 37.52-15.93-5.26-30.89-16.69-45.79-24.39l27.79 33.4c-10.2-3.53-18.47-6.44-28.02-11.5l48.55 51.86c7.58 7.96 16.52 16.36 23.66 24.39 26.79-56.88 63.24-124.94 110.55-168.01l-.52-43.23c7.49-4.23 13.89-7.23 21.73-10.85-.86 6.87-1.33 10.24-3.12 16.9l1.42 1.47c3.31-8.79 7.26-15 11.27-23.18 12.41-7.94 29.14-15.26 42.62-22.8-8.85 12-20.87 31.09-29.43 41.25 4.78.86 4.86.04 7.66 2.82-1.44 4.98-9.41 7.74-14.71 12.14l1.83 1.63c9.1-4.73 18.5-9.46 27.44-14.43 10.42.49 40.57 2.02 48.99 3.46 11.05 1.89 47.69 23.03 57.74 29.96-12.21-2.44-24.77-4.35-36.9-7.05-1.26-.28-3.33-2.93-4.18-3.99l-1.96 1.51.1 1.95c-3.49 1.02-8.19.4-11.95.19-4.39.48-7.75-.01-11.27 1.69 20.08 8.11 33.59 21.87 50.89 34.4l-2.62 2.48c-13.74-5.22-27.04-10.77-41.23-14.57-2.11-4.51-4.14-10.49-5.91-15.25l-1.93 1.95 3.32 12.3c-16.11-3.41-37.27-7.03-52.65-10.81-6.71-1.41-5.24-2.16-13.63-1.04-11.6 1.55-24.8 1.41-36.5 2.48-9.48.86-4.54.21-9.58 7.16-46.57 56.08-72.12 99.4-100.78 167.3q31.635 33.84 62.55 68.34c-13.06-7.87-26.12-16.93-38.79-24.41 9.26 10.92 23.86 32.2 32.02 44.51-13.95-8.38-27.39-17.88-41.18-26.02 8.85 13.55 13.33 22.08 19.83 36.92-9.23-6.13-20.82-13.37-29.11-20.46l-1.05 2.35c13.74 16.96 27.46 34.11 41.62 50.7 15.01 17.59 31.38 34.57 44.93 53.31-13.56-9.21-30.49-18.66-42.86-27.84l-1.86 1.86c14.77 15.66 28.41 34.02 42.84 50.2 5.72 6.43 28.99 31.96 29.18 38.23-3.44.36-19.03-8.54-23.95-10.61 5.29 11.74 10.6 24.11 16.58 35.47-10.42-5.63-18.08-11.77-27.39-16.97 3.57 7.38 8.73 17.27 11.67 24.68l-18.61-12.89c8.94 15.01 24.78 35.82 31.85 49.67l-13.79-8.02c8.46 15.52 18.12 32.55 25.86 48.35-4.3-4.24-9.05-9.13-13.49-13.1 6.75 12.3 13.71 24.49 20.88 36.55-23.34-.15-47.29-.63-70.58.59-14.05.73-30.97 4.56-44.87 4.59l-2.36 2.08c19.61.01 54.88 5.34 76.39 7.12l-.77 2.21c-8.43-.81-96.05 7.14-104.57 9.31l.11.83q38.01 6.57 76.11 12.66c10.05 1.6 29.47 3.9 38.35 6.09-3.08 2.25-3.28 2.06-7.2 2.55-2.59.03-4.76.17-7.34.34l-284.03.33-1.84-3.45c13.83-5.27 28.63-12.29 42.82-17.87 4.55 1.97-.62.99 2.55 5.59 16.92-8.16 32.71-17.16 49.02-26.47l-1.29-2.28-221.33-1.23a2484 2484 0 0 0 35.91-20.28l-1.1-2.01c-13.11 5-54.26 21.28-66.04 22.48-11.67 1.19-52.49.89-67.11.36-28.69-1.02-62.765.88-90.628-.52-29.63 1.11-63.334-.18-93.379.13 3.501-1.23 7.013-2.44 10.556-3.53 31.174-11.04 61.823-27.6 92.36-38.27l.735-2.42a8735 8735 0 0 1-86.621 26.39c-20.851 6.26-42.349 13.37-63.688 17.17-3.002-.15-3.139-.17-6.033-.99-1.408-5.54 9.978-103.89 10.938-120.1l-16.091.8c-5.529 37.7-9.379 79.42-15.485 116.11l-124.886 1.01c3.828-10.06 10.339-24.6 13.286-34.2 4.591 11.03 7.978 18.92 13.575 29.51a1139 1139 0 0 0 27.689-40.51c2.911 7.53 5.105 13.7 9.072 20.72 3.754-10.72 7.299-21.24 11.776-31.7l2.717.71.382-1.04c1.99 7.03-.39 14.79 1.311 23.8 11.698-28.86 14.949-47.92 18.779-78.42-7.33 10.71-18.803 24.95-24.405 36.08-.13-9.26.324-16.97.905-26.16-3.755 1.11-6.62 2.62-9.683 1.06-.24-2.48-.023-1.78-.896-4.08-4.45-.58-20.757 10.95-27.319 14.29-1.173-14.34 1.614-23.97 4.55-37.91-17.887 17.13-34.675 35.35-52.667 52.72 2.922-10.02 10.727-31.26 14.434-41.38l-1.291-2.63c-8.889 10-16.509 18.32-26.163 27.58 2.876-11.03 7.957-23.77 12.629-34.16l-44.333 36.93c5.337-12.37 8.692-21.7 15.283-33.66-15.796 12.09-27.056 21.14-42.349 33.88 8.447-24.71 9.865-26.55 30.364-43.69 13.258-.18 26.517-.22 39.775-.11 10.828-17.24 16.715-30.72 26.316-47.37.03 15.02-2.106 34.18-4.3 49.05 9.759-14.85 22.195-29.02 33.672-42.64l.09 16.96c7.264-8.18 14.573-15.77 21.642-24.22l-.807 14.96a657 657 0 0 0 24.719-23.41 88 88 0 0 1-6.783 1.74c-4.215.96-8.363 2.43-11.933.17 3.269-10.57 9.458-25.67 13.48-36.39-11.108 6.78-22.318 13.38-32.138 21.98 6.427-14.63 14.534-25.45 21.272-39.27-9.979 9.46-20.365 18.25-30.792 27.21 4.579-15.24 12.886-32.03 19.767-46.6 0 0 2.034-4.73 2.703-3.61.779 1.3.318 5.89.207 7.59-.304 6.53-.45 11.3-1.588 17.74 6.454-7 12.208-13.26 18.229-20.68.198 8.63.242 15.54-.199 24.14 30.024-25.54 36.585-25.89 46.984-63.25-9.83 10.97-16.306 17.28-27.749 26.53 5.505-18.66 10.337-35.83 17.757-53.91-10.005 10.59-20.752 19.6-30.489 29.79l12.662-37.62c-4.861 4.82-21.623 22.29-26.826 22.81q.877-3.72 1.646-7.47l-.809-.59c-6.661 3.89-8.465 13.06-13.906 19.99 2.399-18.78 4.885-29.38 10.662-47.45a928 928 0 0 1-32.151 37.44c3.526-8.42 7.161-16.73 10.018-25.4a1451 1451 0 0 1-33.906 31.66c4.944-11.68 10.345-23.64 14.015-35.75-4.223 5.35-18.263 23.98-21.98 27.19l-1.559-.02c-.375-4.83 3.212-12.85 5.049-17.78-11.061 9.91-15.048 21.1-22.733 34.09-6.025-12.06-6.04-16.39-8.088-29.89-31.632 52.31-54.323 111.61-82.309 166.06-4.354 8.47-8.8 17.96-12.512 26.75 10.835-.09 21.944.02 32.669-1.49 10.482-12.77 20.362-29.16 30.485-40.67-3.51 10.52-7.554 23.5-12.181 33.4-3.247 6.95-13.886 16.91-17.783 23.26-8.725 14.21-16.901 30.57-24.521 45.38l2.782-19.31-3.175.69c-13.652 30.86-22.178 57.52-33.863 88.8-5.099 0-10.462.1-15.535-.06-2.838.04-5.738.5-8.018-.91.736-5.66 5.862-19.38 7.829-25.58 6.579-20.75 13.183-41.5 20.583-61.98 2.184-6.04 8.499-22.54 8.881-28.27-1.725-1.92-1.355-1.69-2.532-4.11.228-4.82 3.003-8.81 5.369-13.19-5.447-.25-11.373 0-16.859.1-4.13.84-8.801.04-13.09-.37l71.204-131.88c10.398-19.22 21.252-34.89 30.121-55.14l-17.763-1.1c3.163-2.55 5.187-4.16 8.018-7.04l-2.227-.47-17.05.42c28.309-36.85 55.349-75.95 82.701-113.58 3.902-5.37 23.347-31.73 24.651-35.57 2.026-3.89 3.136-4.59 6.402-7.69-4.311.32-15.436-.03-20.212 0a5640 5640 0 0 1 111.957-115.05l-6.371-1.05c-2.809.38-3.881.86-6.43-.25 1.978-2.98 6.418-5.3 9.68-7.45l-17.776-.2c8.936-9.43 27.036-19.04 38.121-26.86 16.311-11.52 33.325-23.01 49.16-35.14l-17.981.24c12.861-8.03 26.135-16.27 38.645-24.78 16.899-11.48 32.377-23.31 50.259-33.36l-10.179.06c-3.612 1.53-11.38.68-15.588.49 13.476-10 29.807-19.43 43.873-28.946 3.759-2.543 15.661-10.881 18.837-12.271 4.751-3.746 11.724-7.287 17.297-11.406-2.393.116-3.902.05-6.303-.072l-1.041-1.301c4.015-6.261 23.906-14.241 31.218-17.158-4.652 5.921-6.411 8.296-12.042 13.191 15.708-1.636 26.446-2.312 41.996-.063l1.17-2.969c-4.91-3.13-8.32-4.893-12.12-9.344-.93-.4-5.1-1.639-5.15-2.173-.6-6.067.22-20.727.42-26.684-3.11 1.543-10.108 3.15-13.742 4.109 7.662-11.649 18.142-23.397 25.032-35.346.77-4.048.4-9.426.34-13.683-.31-21.786-1.34-43.652-1.74-65.412-.02-.968 2.25-1.389 2.87-1.57"/><path fill="#d3762d" d="m602.088 1436.93 11.57.68-64.101 117.89c-6.944 12.69-32.11 56.71-35.704 68.82-4.13.84-8.801.04-13.09-.37l71.204-131.88c10.398-19.22 21.252-34.89 30.121-55.14"/><path fill="#fefdfc" d="m1519.64 1722.38 1.47 1.95c-32.94 12.76-66.15 26.18-99.07 39.06-7.3 2.86-19.2-.37-24.86 1.74-21.23 7.95-42.99 17.35-64.05 25.9 8.46-7.74 17.48-14.99 26.33-22.29 2.63-2.19 2.77-2.67 4.54-5.49 1.89-1.37 12.64-3.78 15.59-4.51l7.17-1.92c44.11-11.97 89.12-21.4 132.88-34.44"/><path fill="#d3762d" d="m680.418 1279.59 11.446-.01c-9.811 14.8-102.13 144.39-102.355 147.11l.607 1.63-17.05.42c28.309-36.85 55.349-75.95 82.701-113.58 3.902-5.37 23.347-31.73 24.651-35.57M915.872 1028c3.477.07 4.716-.62 6.518 1.17-13.489 13.23-38.044 26.62-52.968 39.2-4.904 4.14-22.104 13.23-25.158 17.38 2.692.22 4.957.34 7.637.43-.287 6.06-72.938 53.86-74.758 59.63l2.691 1.05-.347 1.68c-4.22 2.66-5.064 2.79-7.293 7.26-2.809.38-3.881.86-6.43-.25 1.978-2.98 6.418-5.3 9.68-7.45l-17.776-.2c8.936-9.43 27.036-19.04 38.121-26.86 16.311-11.52 33.325-23.01 49.16-35.14l-17.981.24c12.861-8.03 26.135-16.27 38.645-24.78 16.899-11.48 32.377-23.31 50.259-33.36m-137.307 128.85 5.168.56.84 1.27c-11.226 14.05-97.387 103.57-99.571 110 1.139 2.07.613 1.44 2.622 2.9l-.804.32c-4.311.32-15.436-.03-20.212 0a5640 5640 0 0 1 111.957-115.05m-250.69 484.67c2.926-2.15 2.777-2.28 6.565-2.61l1.844.97c.75 2.61-33.911 108.41-37.684 118.38-2.838.04-5.738.5-8.018-.91.736-5.66 5.862-19.38 7.829-25.58 6.579-20.75 13.183-41.5 20.583-61.98 2.184-6.04 8.499-22.54 8.881-28.27m283.555.66c3.911.02 5.42-.64 8.362 1.01.664 7.83-2.638 34.66-3.829 44.18-3.07 24.55-5.086 51.76-9.438 75.9-3.002-.15-3.139-.17-6.033-.99-1.408-5.54 9.978-103.89 10.938-120.1m568.16 116.56c-3.55-24.37-12.63-55.05-16.94-79.78-1.68-9.58-5.96-23.3-6.08-32.58l1.22-1.06c3.25-.37 3.11-.57 6 .85 2.62 6.97 2.03 13.05 3.77 19.54 7.67 28.51 11.11 62.04 18.93 90.18l.27.93zM952.815 987.333c4.056-.613 4.863-2.297 6.353 1.155-4.397 4.297-13.489 9.104-16.917 12.432-6.375 6.19-35.411 20.32-36.558 27.14-3.612 1.53-11.38.68-15.588.49 13.476-10 29.807-19.43 43.873-28.946 3.759-2.543 15.661-10.881 18.837-12.271m66.735-89.216c.77-4.048.4-9.426.34-13.683-.31-21.786-1.34-43.652-1.74-65.412-.02-.968 2.25-1.389 2.87-1.57 3.04 12.171 3.87 76.605 2.57 91.512-1.74-4.328-2.5-6.466-4.04-10.847m-11.29 31.237c2.06-.353 5.71-1.406 5.52 2.018-.5 8.974-.62 17.861-.79 26.839-.93-.4-5.1-1.639-5.15-2.173-.6-6.067.22-20.727.42-26.684"/><path fill="#61666e" d="M853.183 1763.93c3.501-1.23 7.013-2.44 10.556-3.53 7.373 5.7 67.741.14 82.823 3.4-29.63 1.11-63.334-.18-93.379.13"/><path fill="#d3762d" d="M970.112 975.927c13.264.047-7.91 10.732-10.944 12.561-1.49-3.452-2.297-1.768-6.353-1.155 4.751-3.746 11.724-7.287 17.297-11.406"/><path fill="#4c4e55" d="M1254.69 1092.54c1.16.41 3.8 1.5 3.83 2.36.08 2.32-11.72-.67-13.42-.85-.54-.21-.95-.29-1.14-.61.96-2.38 7.19.68 10.73-.9"/><path fill="#dddee1" d="M733.465 1703.59c1.99 7.03-.39 14.79 1.311 23.8-.232.85-.542 1.49-1.101 1.12-1.073-.71-.647-7.56-.646-8.05.011-5.33.137-10.54.054-15.83z"/><path fill="#969a9d" d="M973.557 1714.32c-6.987 4.04-9.758 4.97-17.458 7.81l.735-2.42c2.622-1.37 13.335-4.4 16.723-5.39"/><path fill="#dddee1" d="M1694.51 1175.08c4.2 4.63 6.4 7.98 9.82 13.14l-1.96 1.51c-3.59-4.76-5.36-9.3-7.86-14.65m-15.26 18.48c-1.12-.09-3.79-.14-3.69-1.92 1.06-1.68 12.64-.17 14.96.23-4.39.48-7.75-.01-11.27 1.69"/><path fill="#828385" d="M1358.11 1764.72c2.85-1.14 2.85-1.09 5.89-1.47-1.77 2.82-1.91 3.3-4.54 5.49l-.49-1.81-.82.35-1.29-2.28z"/><path fill="#dddee1" d="M1358.11 1764.72c.83.72.65.81.86 2.21l-.82.35-1.29-2.28z"/><path fill="#4c4e55" d="M716.594 1499.9s2.034-4.73 2.703-3.61c.779 1.3.318 5.89.207 7.59z"/><path fill="#dddee1" d="M1114.54 997.572c-1.12-.568-2.16-.936-2.69-2.036l.13-.173c.63-.253 10.73 1.083 12.96 1.194-4.69 1.206-5.42.754-10.4 1.015"/><path fill="#babcc0" d="m1519.64 1722.38 1.92-.53c1.46-.44 4.12-1.46 5.67-1.09l.13.13c0 1.34-5.08 2.93-6.25 3.44z"/><path fill="#dddee1" d="M547.998 1669.52c.6-1.7 2.273-6.54 3.536-7.6 1.259.71-.142 5.87-.361 6.91zm477.112-701.965c1.24.506 3.34 1.235 4.1 2.57.43.754-1.14.874-1.53.864-1.24-.032-2.5-.269-3.74-.465zm145.23 773.925c2.03-1.01 3.34-1.62 5.56-2.18l-.51.18 1.6-.24.22.2c-.16 1.02-4.96 3.54-5.77 4.05z"/><path fill="#969a9d" d="M1478.55 1768.04c-.99-.01-5.42.3-5.78-.71.85-1.63 6.68-1.36 8.14-1.37z"/><path fill="#dddee1" d="M1079.27 953.215c-4.7-3.741-5.85-6.49.8-2.846zm531.97 227.055-1.45.88c-.7.44-3.45 2.62-4.15 1.27.41-1.31 2.67-2.87 3.77-3.78z"/><path fill="#babcc0" d="M1678.45 1202.57c-1.01-5.7-.34-10.24 1.93-1.95z"/><path fill="#dddee1" d="M657.183 1640.96c.506-.72 2.026-3.31 3.202-3.21.653 1.07-1.525 5-1.911 5.84z"/><path fill="#babcc0" d="M1472.9 1461.19c-1.26-1.51-6.37-8.33-.35-3.44l1.4 1.09z"/><path fill="#dddee1" d="M1514.73 1539.22c-.6-.87-2.16-2.59-2.17-3.68.99-.79 3.23 1.26 4.03 1.82zm-443.5-609.817c-.94.057-1.24.214-1.94-.196-.15-1.094 1.45-1.095 2.29-1.067l1.58.016z"/><path fill="#babcc0" d="M1592 1168.41c-2.37 4.82-2.22 1.31-1.42-1.47zm-142.29 619.1c-.48 0-2.02.29-2.31-.52.5-.75 1.39-.29 2.2-.31z"/><path fill="#fefdfc" d="m708.2 1281.47 2.061.84c.705 4.76-8.773 23.71-11.304 29.28 9.207-8.38 18.618-20.07 27.33-29.49-3.198 8.49-5.158 16.1-7.508 24.82 9.45-8.33 19.3-16.19 29.515-23.55-5.298 9.15-10.914 18.36-14.962 28.11 9.097-4.96 27.684-19.2 35.549-26.16-2.744 10.89-6.684 21.69-9.567 33.19 11.438-7.73 24.988-18.52 35.887-27.11a519 519 0 0 0-9.922 46.38c6.43-8.86 14.324-17.34 21.63-25.56-2.919 9.93-3.825 16.85-4.985 27.1 9.038-6.59 17.147-14.31 25.431-21.84-3.565 7.13-7.998 16.43-10.263 23.99-7.396 24.69-29.318 37.08-45.613 56.4 2.122-7.31 4.741-13.49 7.606-20.55l5.585-12.7c-13.545 11.87-46.011 48.7-54.026 64.24 5.799-21.41 13.95-49.8 17.939-71.12-13.198 17.71-30.962 36.67-45.126 54.82 3.086-13.71 6.275-27.39 9.567-41.05-11.33 12.37-22.407 31.02-30.938 45.66-16.046-.44-33.164-.25-49.298-.36a5020 5020 0 0 1 75.412-135.34m107.773-127.33c1.738-.14 3.542-.15 5.291-.2-1.23 3.39-12.353 19.8-14.861 23.49 5.201-2.58 11.122-6.35 16.201-9.39a298 298 0 0 0-24.563 45.79c8.941-11.27 13.862-14.76 25.173-23.61-5.786 12.88-14.232 22.38-20.286 35.36 12.744-12.61 31.196-31.19 44.6-42.33-5.25 12.88-6.991 18.3-9.599 32 8.376-7.37 14.61-15.74 21.409-24.48-3.407 12.71-7.49 30.12-12.047 42-7.822 6.38-17.222 13.26-25.313 19.47-8.375 6.29-14.397 10.7-23.416 16.24 6.79-11.21 13.442-19.33 21.554-29.61-11.202 8-19.573 11.84-31.909 17.92l9.743-19.29c-9.858 9.69-20.492 23.8-30.326 34.53l-50.439.36c17.14-23.04 74.632-113.85 98.788-118.25m21.434 281.65c3.697.07 4.963-.53 7.748 1.06-1.046 14.43-10.462 59.74-13.689 75.3-7.771 37.49-13.892 75.62-21.477 112.9-2.838 1.72-5.985 1.23-9.456 1.22-7.882.2-15.766.24-23.649.13 2.595-9.07 5.104-18.46 7.195-27.65 12.416-54.6 28.034-108.27 40.465-162.84z"/><path fill="#d3762d" d="M837.407 1435.79c3.697.07 4.963-.53 7.748 1.06-1.046 14.43-10.462 59.74-13.689 75.3-7.771 37.49-13.892 75.62-21.477 112.9-2.838 1.72-5.985 1.23-9.456 1.22 1.909-14.63 7.405-36.09 10.154-51.23 8.423-46.39 19.272-92.74 26.72-139.25"/><path fill="#fefdfc" d="M883.668 1272.09c3.69-.1 4.76-.76 7.505.76-.494 6.17-13.096 49.88-15.529 57.08-8.461 25.01-17.014 64.97-26.781 88.16-3.137 1.57-5.532 1.4-9.04 1.62-2.741-.43-1.832.04-3.907-1.62.476-5.08 3.588-13.59 5.006-19.92l-2.762-1.12c-3.945 6.81-9.059 17.43-15.487 21.19-3.023.05-1.737.52-4.009-1.38 4.509-18.12 15.935-48.08 22.28-66.37 8.181-23.58 18.044-56.06 27.876-78.39z"/><path fill="#d3762d" d="M883.668 1272.09c3.69-.1 4.76-.76 7.505.76-.494 6.17-13.096 49.88-15.529 57.08-8.461 25.01-17.014 64.97-26.781 88.16-3.137 1.57-5.532 1.4-9.04 1.62 3.768-7.64 11.07-33.66 13.692-42.9 9.515-33.53 22.623-71.06 30.153-104.72"/><path fill="#4c4e55" d="M838.16 1397.05c.577-1.08 3.015-6.11 4.134-6.45.884.25-1.206 6.9-1.372 7.57z"/><path fill="#fefdfc" d="M817.65 1137.42c9.308-9.08 48.669-55.35 56.752-58.46 3.854 1.5-5.776 13.62-5.776 13.62 1.524.5 9.04-5.02 11.749-1.96-1.367 2.64-14.041 17.83-16.411 20.68 10.825-3.84 20.013-7.63 30.536-11.48-10.386 16.48-20.373 32.64-31.643 48.58-6.412 9.07-12.884 17.41-19.071 26.66 1.119-4.81 2.194-9.22 3.823-13.89l-3.184-1.99c-7.373 8.76-11.975 13.26-20.22 20.82 3.742-19.76 3.28-24.05 12.419-42.56-7.703.66-11.43.4-18.974-.02"/><path fill="#4c4e55" d="M844.425 1159.18c2.538-3.26 4.233-5.94 3.43.08l-.246 1.91z"/><path fill="#fefdfc" d="M925.836 1155.36c3.622.07 5.085-.52 7.773 1.06-1.34 9.62-33.52 92.59-40.705 106.59-.466.91-6.458 1.1-8.562 1.22l-19.601-.23c11.545-31.14 34.321-75.95 48.492-108.17z"/><path fill="#d3762d" d="M925.836 1155.36c3.622.07 5.085-.52 7.773 1.06-1.34 9.62-33.52 92.59-40.705 106.59-.466.91-6.458 1.1-8.562 1.22a2160 2160 0 0 0 26.095-65.63c4.836-12.68 11.905-30.62 15.399-43.24"/><path fill="#fefdfc" d="M882.487 1077.04c15.413-15.21 43.083-42.68 61.048-52.01-5.206 9.26-7.266 9.05-12.189 16.8 2.184-1.24 20.261-13.38 19.119-13.24l-.032-.02.376.97c-.379.88-1.562 2.38-1.276 3.34 1.225.7 10.582-3.74 15.001-4.76l1.634.41c-16.038 16.75-28.575 36.48-46.638 54.5 3.094-7.95 4.417-11.48 8.28-19.11-11.117 5.48-12.474 7.43-22.434 13.74-7.654.07-15.141-.5-22.889-.62"/><path fill="#d3762d" d="M1306.63 1449.5c3 .22 3.77.34 6.7 1.01 2 2.18 52.47 158.31 59.58 178.53-3.37.44-5.98 1.2-9.05-.03-3.08-5.97-12.62-40.17-15.54-48.81-14.64-43.32-28.43-86.94-41.69-130.7"/><path fill="#fefdfc" d="M937.016 1018.7c16.217-13.82 29.182-28.021 47.379-39.726-3.103 5.14-5.65 9.321-8.554 14.6 8.702-4.539 13.984-8.04 22.359-13.218-4.177 5.706-9.282 10.244-14.02 15.613l4.301-1.79c6.277-2.62 15.289-7.613 21.619-10.897-2.34 3.902-4.62 7.28-6.9 11.251 10.37-7.037 13.15-8.158 24.06-14.037-2.83 3.176-34.688 37.194-35.193 37.434-2.39-.45 1.97-8.42-1.109-9.25-2.694-.73-12.455 5.38-14.536 7.04l-2.714.2c-.813-.07-5.101-.05-5.391-.58-.668-1.21 3.115-3.17 3.757-4.78l-.158-.34c-3.193-.82-9.497 5.98-15.417 4.78-3.045-.62-15.703 2.77-19.483 3.7m16.809 76.23 3.677-.17c.22 0 3.511-.06 3.176.79-6.308 16.14-13.488 32.58-21.576 47.93-.118.23-7.347.66-8.718.93-3.486 1.23-16.649.61-21.313.58 9.996-17.42 21.84-33.34 31.609-49.99 4.382.07 8.764.04 13.145-.07"/><path fill="#d3762d" d="m953.825 1094.93 3.677-.17c.22 0 3.511-.06 3.176.79-6.308 16.14-13.488 32.58-21.576 47.93-.118.23-7.347.66-8.718.93 7.892-16.04 15.614-34.02 23.441-49.48m292.235 188.45c2.68.45 2.57.3 4.71 1.91 21.58 44.44 39.28 91.84 59.88 136.8 2.28 4.98 6 12.95 6.48 18.11-3.11-.05-3.22.11-6.09-.91-4.77-5.96-64.99-151.67-64.98-155.91"/><path fill="#fefdfc" d="M983.606 1028.23c7.274-.64 8.266-1.73 5.343 4.24-8.375 17.09-14.987 36.04-24.912 52.15-.242.39-6.313.34-6.827.35-2.451-.03-12.566 1.49-10.239-2.5 10.137-17.38 18.708-35.73 29.186-52.89 1.044-1.71 5.663-1.24 7.449-1.35"/><path fill="#d3762d" d="M983.606 1028.23c7.274-.64 8.266-1.73 5.343 4.24-8.375 17.09-14.987 36.04-24.912 52.15-.242.39-6.313.34-6.827.35 2.448-7.47 26.329-55.84 26.396-56.74m197.684 127.15c1.02.16 2.32.36 3.22.89 3.88 2.3 52.81 99.49 56.85 111.13l-4.4-.4c-4.43-3.68-51.19-100.32-55.67-111.62m-52.6-86.74c7.15 3.02 28.97 46.62 35.65 55.05 1.78 2.25 9.23 14.71 10.62 17.73-.23-.03-4.14-.44-4.32-.78-10.03-18.4-36.32-53.46-41.95-72"/><path fill="#61666e" d="m973.708 1015.92 2.714-.2c-3.327 4.34-6.598 8.74-10.254 12.81l-1.634-.41c2.074-2.36 5.777-7.41 7.601-10.07z"/><path fill="#39454e" d="M654.284 1084.63c2.979-.56 3.81-1.89 6.378-3.53-141.474 178.06-205.826 425.75-189.533 651.15.653 9.03 3.715 13.74 8.13 21.16-18.743.11-61.564 3.39-78.28-.42-23.379-5.33-53.447-19.23-77.817-26.74-1.676-.38-3.347-.9-4.949-1.53l.582.25-.208-1.64-1.094.53-.071-.17c.858-.97 4.724-1.03 6.164-1.29 29.523-2.5 28.675-.41 57.187 6.91-16.241-16.36-33.788-35.75-49.644-52.65 25.179 10.8 56.537 23.96 80.311 36.33-11.788-35.2-24.052-78.82-35.008-115.14a6428 6428 0 0 1 84.769 127.66c.466-21.02-2.314-45.09-2.099-67.13 1.743-178.15 52.692-369.39 152.871-517.9 10.054-14.9 30.319-43.69 42.311-55.85"/><path fill="#4c4e55" d="M323.586 1722.4c-.546 1.95-.599 1.9-.424 3.85-1.676-.38-3.347-.9-4.949-1.53l.582.25-.208-1.64-1.094.53-.071-.17c.858-.97 4.724-1.03 6.164-1.29"/><path fill="#39454e" d="M414.53 1022c-8.151 16.96-16.236 34.33-25.366 50.74l14.352-1.18c-5.656 4.91-13.292 15.18-18.197 21.35l1.943 1.28c7.829-7.39 18.643-18.91 27.626-24.03 5.255-2.99 19.16-3.54 25.905-4.27 6.184-.68 24.951-4.93 29.592-4.44 16.032 1.71 41.619 11.02 57.359 15.97l-1.646 2.76c-10.926.13-22.169.94-33.103 1.57-1.132.21-2.218.38-3.354.55-7.796 1.05-20.193 3.1-27.634 5.55l3.793 2.45c18.041 3.65 39.796 15.16 56.601 23.42l-1.776 3.77a674 674 0 0 0-44.546-5.78c-3.589-3.8-7.542-9.22-10.815-13.43l-1.784 2.2c2.519 3.77 4.966 7.21 7.024 11.26l-56.887 1.24c.231.88.307 2.27.39 3.16 11.062 4.44 21.681 6.27 29.387 8.97 13.238 4.64 41.855 25.23 51.849 34.35-16.155-4.92-34.157-10.83-50.342-15.09-3.496-3.6-7.433-7.46-10.719-11.18l-2.516.81c1.246 3.4 2.352 6.18 3.19 9.7-12.983-2.12-25.716-3.36-38.628-5.34 14.677 7.24 30.025 13.87 44.904 20.86 8.72 14.4 16.559 27.6 24.342 42.55-14.636-9.88-30.614-18.43-44.818-28.87-6.708-4.93-11.449-12.01-16.527-18.57 1.485 5.17 2.985 10.74 4.609 15.83-18.929-9.02-36.765-21.45-53.402-29.46l1.596-2.43c-5.73-1.11-6.128-.34-5.114-5.7l-1.903-.21c-.022-11.74-6.197-41.23-9.057-53.03 5.002-4.31 16.642-13.8 22.004-16.92l1.015 1.36c-.775 2.03-.713 3.31-.718 5.48 2.441 2.82-.927 2.58 2.199 6.83 2.368-6.91 4.913-13.96 6.813-20.99 9.255-7.77 33.047-27.83 42.359-33.09"/><path fill="#dddee1" d="M351.818 1132.57c5.255-5.3 9.636-7.15 17.192-8.45 3.806-.65 30.412-8.95 31.041-8.46-.395 1.65-45.578 16.9-50.276 18.58 6.983.67 15.839 1.55 22.723 1.83l.482 2.12c-5.112-.18-10.951-.22-16.048.08-5.73-1.11-6.128-.34-5.114-5.7m126.011-64.78c5.096 3.78 10.433 7.32 14.149 12.56l1.017 1.4c-1.132.21-2.218.38-3.354.55-4.169-4.42-8.129-9.65-11.812-14.51m-114.67 1.46c2.441 2.82-.927 2.58 2.199 6.83-.864 4.2-2.878 8.39-4.48 12.38 1.053-6.8 1.885-12.25 2.281-19.21"/><path fill="#969a9d" d="M372.498 1136.07c1.457.1 12.718.29 12.076 2.49l-.421.32-.099-.71-1.06.99c-3.025.02-7.086-.43-10.014-.97z"/><path fill="#babcc0" d="m385.319 1092.91 1.943 1.28c-4.094 4.05-9.115 6.68-3.245.2z"/><path fill="#dddee1" d="M431.666 1134c-.384-.93-2.189-4.34-1.371-5.2 1.254-.11 3.338 3.48 3.887 4.39zm31.814-33.52c-1.977-4.61-2.452-7.32 1.784-2.2zm-1.473-12.63 3.793 2.45c-.957-.07-11.912-.2-3.793-2.45m-48 28.29c-2.666-1.25-5.085-2.72-.39-3.16.231.88.307 2.27.39 3.16"/><path fill="#39454e" d="M185.005 987.57c7.453-24.414 15.27-27.362 35.468-40.962 3.706-2.496 7.409-5.129 11.258-7.463-6.248 9.691-20.403 32.772-24.541 42.841 3.116 1.224 6.736.451 10.368.196-4.448 4.822-11.047 11.46-15.068 16.272l2.142.358c.93-1.447.864-1.342 2.482-2.057 27.008-22.807 39.306-16.011 72.472-21.192 2.131.568 2.331.724 4.435 1.636 14.158 5.971 30.353 11.562 43.715 17.454 1.493.3 2.308.444 3.641 1.202l.325.58c-.417 1.442-9.038.142-10.154-.005-8.452-.985-16.797.638-26.142-1.075-1.831.263-2.171.331-3.928.9-6.091 1.448-22.917 1.75-24.957 3.085l.02.89 2.366.39c.388 1.45.753 2.91 1.094 4.37.98 1.73 1.995 3.36 2.991 5.07l-1.5 2.59 4.359 8.88c-14.426-1.97-39.12-3.5-54.031-3.85 4.43 2.27 10.07 5.36 14.709 6.97 23.139 8.03 38.428 22.08 56.239 38.6-25.162-9.35-38.363-10.34-55.934-32.28 1.689 4.79 3.247 9.65 5.465 14.2l-30.21-6.52c10.997 7.59 22.491 13.77 34.142 20.29 6.644 12.59 12.708 26.36 18.67 39.37-13.748-10.29-35.014-25.51-45.056-38.62l-2.92.71c.134 2.89.377 1.85-.786 4.44-14.33-8.98-30.488-18.63-44.068-28.45-.745-.22-1.342-.35-2.02-.7l2.127-2.3.692-1.04-.277-1.77c-1.237-1.08-1.368-2.75-1.952-4.64-1.908-9.35-3.727-30.381-5.195-41.166 7.125-5.448 12.084-8.827 19.715-13.554-.322 4.336-1.177 9.586-1.768 13.967z"/><path fill="#dddee1" d="M215.073 1019.13c-12.323 5.04-25.139 7.39-36.861 12.36-2.318.65-2.933.62-5.342.86l-.277-1.77c3.41-5.07 9.603-4.42 15.381-5.79 9.016-2.14 17.95-4.16 27.099-5.66"/><path fill="#babcc0" d="M172.87 1032.35c2.409-.24 3.024-.21 5.342-.86l1.935 2.35c7.035 1.53 12.314 2.32 19.339 3.33-11.042 1.33-18.029-1.61-27.415-.78-.745-.22-1.342-.35-2.02-.7l2.127-2.3z"/><path fill="#61666e" d="M172.87 1032.35c2.409-.24 3.024-.21 5.342-.86l1.935 2.35c-2.752-.08-5.231-.25-7.969-.45z"/><path fill="#dddee1" d="M286.695 984.304c2.511 2.799 6.802 7.814 8.711 11.051-1.831.263-2.171.331-3.928.9-1.846-3.806-3.305-7.97-4.783-11.951"/><path fill="#61666e" d="M279.586 975.563c2.131.568 2.331.724 4.435 1.636.383 2.556 2.69 5.933 1.776 6.878-1.522-.49-5.098-6.851-6.211-8.514"/><path fill="#4c4e55" d="M327.736 994.653c1.493.3 2.308.444 3.641 1.202l.325.58c-.417 1.442-9.038.142-10.154-.005 3.084-.563 3.421-.474 6.188-1.777"/><path fill="#969a9d" d="M185.005 987.57c-3.173 11.79-3.335 3.01-1.612-2.383z"/><path fill="#dddee1" d="M270.001 1004.99c.98 1.73 1.995 3.36 2.991 5.07l-1.5 2.59a246 246 0 0 0-2.99-6.98z"/><path fill="#fefdfc" d="M216.925 1060.4c-2.044-7.34-.09-7.86 2.92-.71z"/><path fill="#828385" d="m266.541 1000.23 2.366.39c.388 1.45.753 2.91 1.094 4.37l-1.499.68c-1.033-2.16-1.283-3.13-1.961-5.44"/><path fill="#babcc0" d="m202.49 998.454 2.142.358c-5.9 6.428-7.009 3.688-2.142-.358m2.142.358c.93-1.447.864-1.342 2.482-2.057-.877 1.364-.882 1.13-2.482 2.057"/><path fill="#39454e" d="M698.13 1019.3c8.97-14.52 29.027-22.194 43.415-31.056-10.116 12.156-19.524 25.396-30.154 36.796l14.382-.37-17.392 13.11 3.04 1.1c4.814-2.66 20.529-11.72 24.249-12.51 4.732-1.01 48.451 2.31 50.44 3.1 10.154 4.06 41.655 24.32 49.947 30.78-13.891-3.91-25.371-4.94-39.302-7.73l-5.253-13.32-1.916 3.75c.952 2.99 2.066 6.26 2.914 9.25l-22.85-.72c.766 8.33 1.889 13.5 3.7 21.73-15.999-4.25-36.92-8.28-53.309-10.57 31.033 21.11 34.496 13.79 51.34 50.51-10.697-7.44-26.446-14.65-30.985-25.26-.788.95-1.672 2.33-2.393 3.39-4.918 1.25-29.888-9.94-36.707-12.69 11.286 8.68 25.233 18.55 34.206 29.39 2.3 12.29 4.813 24.55 7.539 36.76-7.971-8.46-25.679-27.8-28.983-38.82l-1.948.92c-.479 2.12.09 1.35-1.472 2.46-7.074-3.47-35.402-30.52-41.051-36.96l.275-1.11c.152-1.24.288-2.42.483-3.65l-.806-.52c1.187-13.52 1.626-28.6 3.642-41.8 5.799-3.19 15.66-9.92 21.772-7.1z"/><path fill="#babcc0" d="M670.345 1067.58c.408.09 20.279 7.19 20.225 7.15l.089.42c-.389.55-18.857-3.44-20.797-3.92.152-1.24.288-2.42.483-3.65"/><path fill="#dddee1" d="m694.953 1018.16 3.177 1.14c-3.579 6.62-5.852 9.35-10.712 14.94 2.51-5.27 5.321-10.73 7.535-16.08m39.219 58.46c2.686 4.09 4.788 6.32 6.224 11.27-.788.95-1.672 2.33-2.393 3.39-.854-6.46-1.719-8.55-3.831-14.66m-25.791-38.84 3.04 1.1c-4.077 2.71-8.015 4.96-12.227 7.42 2.547-2.6 6.202-6.78 9.187-8.52"/><path fill="#babcc0" d="m789.586 1042.95-.406-1.96c-.264-1.22-1.455-4.49-.37-5.5 1.431.01 2.223 2.59 2.692 3.71z"/><path fill="#828385" d="M711.524 1105.11c-.148-.69-1.206-5.7.236-5.64.846.96.779 1.25 1.08 2.6z"/><path fill="#babcc0" d="m711.524 1105.11 1.316-3.04c.399 1.3.777 2.56 1.218 3.85l-1.948.92z"/><path fill="#969a9d" d="M674.032 1064.36c3.289-.3 18.086-.83 20.407 1.12-.267.07-.534.13-.8.2-3.017.24-19.943 2.44-20.716.87.09-.86.588-1.37 1.109-2.19"/><path fill="#c72529" d="M1032.54 677.186c-4.44-5.133-6.58-7.85-2.07-13.869 3.45-1.858 3.29-1.724 6.97-1.374 6.55 4.035 5.17 8.551 1.49 14.343l142.56 37.43c-31.29 12.67-63.66 23.577-95.03 36.191-14.94 6.009-33.77 11.765-47.19 19.982.05 15.735.37 32.515-.23 48.152l-7.03.078c.01-42.987-1.49-98.697.53-140.933"/><path fill="#39454e" d="M1827.68 1350.95c.17.8.33 1.6.49 2.4 2.97.45 4.59.76 7.52 1.45l1.16.26c3.86 1.46 5.95 2.08 9.96 3.18l-.81 2.17c5.35 1.77 10.21 1.64 15.21 2.96l8.05 2.18c28.6 19.08 36.2 26.31 45.19 62.46-12.92-12.23-33.03-29.28-41.07-44.23-1.87 2.68-1.84 2.53-2.65 5.6-14.03-9.3-27.87-22.24-43.21-32.62-6.62 5.44-23.55 32.6-28.34 40.58-47.7 79.47-72.7 170.43-81.38 262.27-1.43 15.22-4.12 44.1-3.62 59.04 20.94 8.61 59.78 24.42 79.13 34.64 1.49.32 5.34 1.79 6.17 2.88-.33 1.49-15.22.16-16.81-.03-6.24.72-29.56.05-37.24.02l-80.64-.36c-1.2.01-15.54 1.05-7.09-3.14l1.37-.7c7.25-4.03 14.52-8.03 21.81-11.98-13.15-2.25-24.79-6.89-37.29-11.39l3.61-2.35c25.08 3.33 52.25 11.46 77.12 11.97-15.96-8.7-35.66-21.87-51.22-31.76 11.52 3 23.4 6.92 34.81 10.47.62-108.38 22.23-213.98 78.09-308.38 12.15-20.54 26.8-39.01 41.68-57.59"/><path fill="#dddee1" d="M1828.17 1353.35c2.97.45 4.59.76 7.52 1.45l1.16.26c3.86 1.46 5.95 2.08 9.96 3.18l-.81 2.17c-1.62-.66-2.32-1.01-4.01-1.32-4.39-.79-8.72-1.88-12.96-3.26z"/><path fill="#4c4e55" d="M1793.31 1753.29c1.49.32 5.34 1.79 6.17 2.88-.33 1.49-15.22.16-16.81-.03 5.26-.68 6.86.55 10.64-2.85"/><path fill="#dddee1" d="M1868.87 1371.06c1.13 3.26 3.72 9.75 4.51 12.72-1.87 2.68-1.84 2.53-2.65 5.6-.24-5.93-1.4-12.23-1.86-18.32"/><path fill="#61666e" d="M1664.79 1755.8c-1.2.01-15.54 1.05-7.09-3.14l1.37-.7c1.95 1.24 3.91 2.4 5.72 3.84"/><path fill="#39454e" d="M1855.93 1292.67c8.9-6.09 30.7-18.06 40.74-22.88-5.21 7.28-24.01 31.34-26.91 36.69l.42 1.12c2.6.2 4.9.41 7.5.71l.23 1.45c-3.66 4.3-7.07 7.06-11.31 10.73l.5 2.6c4.68-2.99 19.06-12.41 23.16-13.01 7.06-1.04 42.01.38 47.75 1.87 15.23 3.94 36.72 18.24 52.4 25.8l-35.8-4.88c-1.41-2.15-3.48-5.1-4.73-7.24l-.96 1.77 1.09 3.23c-2.6 4.71-18.55 1.52-24.19 1.7l5.74 21.05c-15.68-3.54-37.07-8.17-53.03-8.98 10.17 6.11 22.78 12.89 32.29 18.2 8.58 4.8 30.36 29.1 36.81 37.13-13.04-7.79-32.29-17.45-42.9-27.46-2.04-1.91-7.77-11.54-10-14.66 1.34 5.67 2.52 10.99 4.33 16.56-8.46-3.37-19.52-7.87-28.47-9.16l-1.33.54-8.05-2.18c-5-1.32-9.86-1.19-15.21-2.96l.81-2.17c-4.01-1.1-6.1-1.72-9.96-3.18l-1.16-.26c-2.93-.69-4.55-1-7.52-1.45-.16-.8-.32-1.6-.49-2.4.43-.56.85-1.12 1.27-1.68-.1-14.3-.35-28.6-.73-42.9 4.34-2.63 15.8-10.84 20.19-9.59l-.54 4.11c-.2 3.45-.12 3.8.44 7.24 2.53-4.9 5.58-10.4 7.62-15.46"/><path fill="#dddee1" d="m1872.15 1344.8 1.13 1.02c-9.57 3.23-25.14 4.81-35.27 5.57l-1.16 3.67-1.16-.26c-2.93-.69-4.55-1-7.52-1.45-.16-.8-.32-1.6-.49-2.4.43-.56.85-1.12 1.27-1.68l1.32 1.19c8.28-3.09 22.15-3.08 31.24-4.25z"/><path fill="#4c4e55" d="m1828.95 1349.27 1.32 1.19c1.12 2.84 5.33 1.46 7.74.93l-1.16 3.67-1.16-.26c-2.93-.69-4.55-1-7.52-1.45-.16-.8-.32-1.6-.49-2.4.43-.56.85-1.12 1.27-1.68"/><path fill="#61666e" d="M1846.81 1358.24c2.65.49 22.31 5.92 23.78 6.77l-1.33.54-8.05-2.18c-5-1.32-9.86-1.19-15.21-2.96z"/><path fill="#dddee1" d="m1866.6 1320.49.5 2.6c-4.09 3.02-6.81 4.68-11.29 7.11 3.58-3.33 6.99-6.63 10.79-9.71"/><path fill="#969a9d" d="M1948.92 1327.4c-6.53-10.83-2.96-11.48.96-1.77z"/><path fill="#babcc0" d="M1847.87 1300.89c-.2 3.45-.12 3.8.44 7.24-.31 1.08-.64 2.16-.99 3.23l-1.71-.77c1.04-3.39 1.47-6.28 2.26-9.7"/><path fill="#828385" d="M1872.15 1344.8c4.13-1.45 5.24.54 1.13 1.02zm-24.83-33.44c-2.52 3.85-4 3.09-1.71-.77z"/><path fill="#39454e" d="M170.641 1025.94c.584 1.89.715 3.56 1.952 4.64l.277 1.77-.692 1.04-2.127 2.3c-22.265 37.29-42.129 75.49-57.408 116.13-66.105 175.81-75.26 369.59-54.559 554.86 1.075 9.61 7.21 38.55 4.608 45.6l-1.66.63-1.62-1.32c-5.288-17.48-11.63-77.97-13.265-96.97-14.103-163.82-1.502-340.43 56.681-495.13a544 544 0 0 1 55.902-110.92c4.086-6.29 10.783-15.35 11.911-22.63m179.274 106.42 1.903.21c-1.014 5.36-.616 4.59 5.114 5.7l-1.596 2.43c-2.594-1.27-5.065-2.15-6.915.92-15.697 26.01-29.64 55.53-40.8 83.81-61.103 154.8-76.639 326.28-60.704 491.13 1.284 13.16 3.983 25.61 5.662 38.61-2.1 1.37-.994.81-4.614.18-.736-1.33-1.555-3-1.79-4.53-27.53-179.72-12.423-372.61 60.912-540.3 12.981-29.68 26.518-51.41 42.828-78.16m1219.495 80.3c5.04-6.95.1-6.3 9.58-7.16 11.7-1.07 24.9-.93 36.5-2.48 8.39-1.12 6.92-.37 13.63 1.04l-1.21.74c32.37 19.8 43.96 26.3 68.17 57.15-15.41-8.56-27.78-16.29-43.69-24.17-1.95-3.85-4.5-8.53-6.04-12.47l-1.82 4.16c.8 2.5 1.53 3.22.94 5.29-8.72-2.86-21.84-8.68-31.81-12.22 10.37 9.01 23.64 18.67 34.67 27.39 3.86 9.55 10.14 31.5 12.66 41.63-21.12-21.22-33.63-29.47-46.48-56.52 1.19 7.39 2.18 11.03 4.35 18.25-15.14-10.61-32.3-26.91-47.53-39.21-1.02-.62-1.05-.63-1.92-1.42"/><path fill="#dddee1" d="M1569.41 1212.66c5.04-6.95.1-6.3 9.58-7.16 11.7-1.07 24.9-.93 36.5-2.48 8.39-1.12 6.92-.37 13.63 1.04l-1.21.74c-4.53-2.46-7.89-1.32-12.41-.5-13.28 2.41-27.55 4.3-40.99 5.13 7.97 4.08 13.61 5.6 22.18 7.91l-.68 2.31c-4.15-1.37-21.27-6.75-24.68-5.57-1.02-.62-1.05-.63-1.92-1.42"/><path fill="#969a9d" d="M1596.69 1217.34c1.59.32 5.41.7 6.35 2.08-1.17 1.14-5.61.41-7.03.23z"/><path fill="#dddee1" d="M1644.53 1229.47c-.17-1.12-1.8-7.94.24-7.83.95.88 1.28 2.48 1.58 3.67z"/><path fill="#39454e" d="M274.715 1756.35c6.322-.17 27.24-1.06 32.514-.22 12.556 2 31.15 8.29 43.843 12.14l71.935 21.74c-.201.79-.627 1.71-.939 2.46l-4.177.91c-8.849-.84-24.636-.63-34.123-.68l-60.637-.07c-32.732-.03-76.065-1.7-107.938-.15-1.199-.24-4.417-.55-5.29-1.12l-.028-.17c.154-.35.482-.6.757-.89 25.087-1.99 52.504-6.32 77.879-8.27 11.964-.92 24.726-3.56 36.803-3.93l.583-2.68c-20.879-4.47-45.2-11.1-65.661-16.97-1.031-.24-5.451-1.11-5.795-2.05 1.355-.88 17.42-.17 20.274-.05"/><path fill="#39454e" d="M260.236 1758.45c-1.031-.24-5.451-1.11-5.795-2.05 1.355-.88 17.42-.17 20.274-.05-3.191 2.99-9.053-.65-14.479 2.1"/><path fill="#babcc0" d="M325.897 1775.42c7.758.77 5.558 2.23-.583 2.68z"/><path fill="#39454e" d="M706.255 1783.58c4.321-1.24 13.001-.13 3.647 1.96-14.262 4.5-28.502 9.08-42.719 13.72 12.014 2.05 61.379 7.69 72.929 7.6 1.011.79 2.034 1.57 3.066 2.33-10.703-.13-21.381.61-32.071 1.14-44.501 2.19-89.192.31-133.7.98l-1.423-3.28c28.488-8.03 61.998-16.89 90.987-23.56 7.012-1.62 30.168-.42 39.284-.89"/><path fill="#828385" d="M706.255 1783.58c4.321-1.24 13.001-.13 3.647 1.96-1.75-1.26-1.726-1.35-3.647-1.96"/><path fill="#39454e" d="M1004.63 1808.26c20.5-9.27 43.73-17.03 64.63-25.62 12.56-5.16 38.15-.67 52.87.56 5.65-.11 6.59 1.74.12 2.49-11.89 1.93-22.28 3.84-33.96 7.22 13.27 4.38 26.48 8.94 39.61 13.7 2.42.52 3.44.8 5.8 1.93h-.02c-7.3 1.69-65.29.66-76.24.29-8.77.56-21.83.27-30.93.33-2.73.32-24.22 1.59-25.08.3l.09-.18c1.15-.8 1.76-.86 3.11-1.02"/><path fill="#61666e" d="M1127.9 1806.61c2.42.52 3.44.8 5.8 1.93h-.02c-7.3 1.69-65.29.66-76.24.29 14.58-3.04 64.1 1.59 70.46-2.22"/><path fill="#828385" d="M1026.51 1809.16c-2.73.32-24.22 1.59-25.08.3l.09-.18c1.15-.8 1.76-.86 3.11-1.02 6.77 1.1 14.37.3 21.88.9m95.62-25.96c5.65-.11 6.59 1.74.12 2.49.88-1.27.81-1.25-.12-2.49"/><path fill="#39454e" d="M1916.83 1709.25c.23.13.47.27.71.4-.28.93-33.85 23.3-37.49 26.03 12.32 1.4 24.65 2.72 36.99 4.04-13.28 3.37-30.07 5.93-43.8 7.9-9.27 2.08-20.35 3.35-29.95 5.13 4.37-7.44 10.02-16.21 14.72-24 12.96-5.9 44.85-15.61 58.82-19.5M661.505 1492.07c.244-1.08.605-3.52 1.517-4.4.012-.01.328-.32.496-.23.286.14.351.57.401.84.736 3.99-.025 9.1-.147 13.21l3.224.74 2.424-4 3.099 1.9c-1.365 5.97-2.548 11.84-3.664 17.86l-1.067 5c-.292 1.41-.679 3.08-.994 4.5l-1.034 4.5c-1.056 4.73-2.516 8.73-3.625 13.24-.147.86-.124 2.07-.926 2.63-1.794.05-1.251-8.55-1.262-9.4.045-6.25-1.095-8.07-.396-14.84l-3.169-.69c-5.376 12.96-13.218 32.18-19.62 44.24-.262 1.42-.078.89-.811 2.28-.384.12-.219.15-.504 0-1.164-2.27.012-14.1.445-16.97-.267-3.86-.337-19.51.753-22.56 2.042-5.72 11.288-22.33 15.101-27.06-.694 5.29-1.094 8.68-2.08 13.97.501 1.75.98 3.5 1.438 5.27 2.218-8.69 6.996-21.47 10.401-30.03"/><path fill="#dddee1" d="m663.772 1501.49 3.224.74c-.81 1.87-3.12 7.8-4.487 8.86l-.14-.05c-.727-1.06.596-5 .624-7.05l.02-2z"/><path fill="#4c4e55" d="M661.505 1492.07c.244-1.08.605-3.52 1.517-4.4.012-.01.328-.32.496-.23.286.14.351.57.401.84.736 3.99-.025 9.1-.147 13.21l-.759.5c-.412-4.44.648-6.22-1.508-9.92"/><path fill="#61666e" d="M636.762 1567.17c-.262 1.42-.078.89-.811 2.28-.384.12-.219.15-.504 0-1.164-2.27.012-14.1.445-16.97.562 5.46.153 9.53.87 14.69"/><path fill="#969a9d" d="m659.947 1538.46 2.188 6.77c-.147.86-.124 2.07-.926 2.63-1.794.05-1.251-8.55-1.262-9.4"/><path fill="#dddee1" d="M656.382 1522.93c.477-.97 1.113-2.71 2.116-3.24 1.038.21.991 3.23 1.053 3.93z"/><path fill="#babcc0" d="M649.666 1516.83c.501 1.75.98 3.5 1.438 5.27-.058.06-.117.13-.173.2-.256.31-.786 1.16-1.317 1.29-.146.03-.207-.05-.348-.12-.766-1.18.194-5.36.4-6.64"/><path fill="#39454e" d="M143.739 1730.07c9.247 3.05 18.748 6.1 27.918 9.36 8.94 3.17 18.532 8.11 27.342 11.3l-2.701 3.62c-18.372-.87-38.231.67-56.163.14-4.67-4.03-8.759-7.09-13.461-10.88 11.77 1.97 22.123 3.03 33.754 5.97l.989.24c-6.131-7.48-10.728-12.99-17.678-19.75m125.168-729.45c24.005 6.95 40.66 17.61 61.212 31.79-17.386-5.7-32.526-7.78-50.215-11.37-2.486-3.73-4.611-7.16-6.912-10.98-.996-1.71-2.011-3.34-2.991-5.07-.341-1.46-.706-2.92-1.094-4.37M1928.13 1334.4c8.6 1.19 16.47 7.58 23.56 12.94l29.69 22.88c-6.94-1.2-36.96-13.06-45.55-16-2.82-6.78-4.94-13.13-7.7-19.82M460.84 1801.48l-2.537 12.5c-4.878-.03-9.926.02-14.787-.14-4.769.24-52.314.49-53.098-.51.258-1.66 7.469-1.76 8.747-1.92 19.674-2.22 42.036-6.54 61.675-9.93"/><path fill="#828385" d="M443.516 1813.84c-4.769.24-52.314.49-53.098-.51.258-1.66 7.469-1.76 8.747-1.92 4.501 2.66 34.721 1.21 44.351 2.43"/><path fill="#39454e" d="M771.408 1052.45c15.421 7.44 29.19 26.02 38.49 39.92-15.893-10.24-13.159-10.04-32.136-17.72-2.367-7.33-4.616-14.7-6.354-22.2m913.682 760.93c-12.47-.11-25.08 1.17-37.59.45-2.71-.16-1.92-2.86-1.06-4.46 1.59-2.97 7.17-3.65 10.01-4.72 4.42-1.29 6.68-1.81 11.04-.49 7.01 2.13 14.15 3.86 21.2 5.71zm-1112.939-81.34c.778 2.98-7.549 23.11-9.038 27.42-6.252.24-12.364.24-18.615.27-.553-2.14 24.031-24.4 27.653-27.69m258.47 71.99c3.265 1.02 6.565 1.93 9.894 2.72l4.498 1.03c5.493 1.24 6.07 1.84 11.297 4.34-6.009.54-8.987.61-15.06.67-7.215.03-14.587.31-21.758.02-1.037-.04-2.072-1.74-1.427-2.47 2.874-3.22 8.685-5.02 12.556-6.31m1121.749-57.23c1.91.34 24.33 6.7 24.43 6.81l-.11.24c-1.3.87-6.73.71-8.44.77-8.91.01-17.82-.12-26.73-.38 3.7-2.48 7.21-4.85 10.85-7.44"/><path fill="#969a9d" d="M1564.17 1806.26c2.32.33 4.59.73 6.92 1.06 5.88.54 10.03 1.42 15.77 2.6-9.56.07-28.15.27-37.23-.77 2.58-.17 4.75-.31 7.34-.34 3.92-.49 4.12-.3 7.2-2.55"/><path fill="#4c4e55" d="M1564.17 1806.26c2.32.33 4.59.73 6.92 1.06.37.82.31.54.34.95-.81 1.16-12.86.57-14.46.54 3.92-.49 4.12-.3 7.2-2.55"/><path fill="#2e2f34" d="m669.539 1067.06.806.52c-.195 1.23-.331 2.41-.483 3.65l-.275 1.11c-3.032.33-6.656 6.27-8.925 8.76-2.568 1.64-3.399 2.97-6.378 3.53 2.575-3.18 12.409-14.64 15.255-17.57"/><path fill="#969a9d" d="M190.351 1792.06c5.439-.55 11.656-.83 16.644-1.37l1.819-.21 1.818-.18c-.275.29-.603.54-.757.89l.028.17c.873.57 4.091.88 5.29 1.12-6.892.79-18.249.99-24.842-.42"/><path fill="#828385" d="M423.007 1790.01c2.023.58 3.835 1.01 5.879 1.48 2.041.36 4.132.43 6.116 1.05l-.18-.04 1.205.89.228-.21.154.25c-.549 1.3-16.498.13-18.518-.05l4.177-.91c.312-.75.738-1.67.939-2.46"/><path fill="#4c4e55" d="M423.007 1790.01c2.023.58 3.835 1.01 5.879 1.48-3.005 1.79-3.281 1.39-6.818.98.312-.75.738-1.67.939-2.46"/><path fill="#61666e" d="M1643.59 1728.59a235 235 0 0 0-9.21-3.31c-.86-.29-3.14-.64-3.54-1.67l.17-.2c1.48-.19 13.85 2.37 16.19 2.83z"/><path fill="#4c4e55" d="M522.401 1113.72c4.026 1.78 8.425 4.01 12.391 5.98-4.686-.67-9.499-1.42-14.167-2.21zm1166.289 696.15c1.39.47 6.8 1.87 7.57 2.71l-.14-.01-.16.2-.07-.1c-2.82.82-7.7.64-10.8.71zm-1111.283 1.44c-2.877-.02-5.508-.08-8.387-.01l-.774-.8-1.045.43c-.125-.08-.25-.17-.375-.26.352-.53 8.053-2.31 9.158-2.64zm1152.733-583.35c2.9 2.41 5.78 4.84 8.64 7.31-3.94-1.83-7.21-3.25-11.26-4.83zM198.999 1750.73c9.723 4.58 6.31 3.86-2.701 3.62zm1066.601 58.75c-4.24.13-13.24 1.08-3.46-2.78l1.62-.67zm-596.18-311.25c-.003 0 2.921-6.95 3.591-3.98.32 1.42-.3 4.43-.492 5.88zm-141.676-420.81 1.523.47c7.708 2.25-1.202 2.24-3.169 2.29zm205.492 620.98c-.084 2.06.044 3.12.229 5.19l-.382 1.04-2.717-.71c.37-1.55.317-2.44.377-4.06zm395.804-715.101c1.7.804 5.29 2.077 6.32 3.207-.32.814-4.8.955-5.32 1.007zm20.64 38.311 1.04.77c.83.49 2.18 1.02 2.48 2.04-.51.72-5.02.44-5.89.46z"/><path fill="#969a9d" d="M740.112 1806.86c1.616.13 9.535 1.31 3.066 2.33-1.032-.76-2.055-1.54-3.066-2.33m-9.369-107c.323-4.06 1.534-7.84 2.493-1.46zm824.197 75.3c6.27.25 3.72 1.6-.77 2.21z"/><metadata><recraft-signature>{&quot;signed_by&quot;: &quot;recraft&quot;, &quot;signature_b64&quot;: &quot;kDfQmc2j7ueE6T/0/yPFpTdPjAFbjB8wOnvRZWbnLAtETt2HcqErYLUVF1Oz5s0aEJKiKTy8WELlQjW/isqaBw==&quot;, &quot;signing_algo&quot;: &quot;Ed25519&quot;, &quot;generation_timestamp&quot;: 1777235526, &quot;identifier&quot;: &quot;76ee3681-b35f-4d35-bbe5-c44146b9ab77&quot;}</recraft-signature></metadata></svg>