<svg xmlns="http://www.w3.org/2000/svg" height="1024" preserveAspectRatio="none" style="display: block;" version="1.1" viewBox="0 0 2048 2048" width="1024">
<defs>
	<linearGradient gradientUnits="userSpaceOnUse" id="Gradient1" x1="620.026" x2="619.995" y1="385.499" y2="379.538">
		<stop class="stop0" offset="0" stop-color="rgb(63,66,86)" stop-opacity="1"></stop>
		<stop class="stop1" offset="1" stop-color="rgb(104,108,142)" stop-opacity="1"></stop>
	</linearGradient>
	<linearGradient gradientUnits="userSpaceOnUse" id="Gradient2" x1="1893.07" x2="1892.98" y1="384.72" y2="380.406">
		<stop class="stop0" offset="0" stop-color="rgb(67,70,94)" stop-opacity="1"></stop>
		<stop class="stop1" offset="1" stop-color="rgb(109,111,138)" stop-opacity="1"></stop>
	</linearGradient>
	<linearGradient gradientUnits="userSpaceOnUse" id="Gradient3" x1="1428.53" x2="1428.42" y1="383.005" y2="393.942">
		<stop class="stop0" offset="0" stop-color="rgb(71,74,98)" stop-opacity="1"></stop>
		<stop class="stop1" offset="1" stop-color="rgb(92,97,127)" stop-opacity="1"></stop>
	</linearGradient>
</defs>

<path d="M 605.353 509.984 L 1443.01 509.302 L 1443 532.66 C 1438.45 533.732 1435.23 534.321 1430.91 536.212 C 1417.78 547.573 1409.39 558.043 1404.01 574.839 C 1402.56 582.972 1401.62 589.059 1400.85 597.26 C 1395.19 597.576 1389.91 596.789 1386.01 601.313 L 1382.08 606.6 C 1377.37 610.294 1373.93 612.608 1370.57 617.68 C 1369.15 619.889 1366.68 624.035 1365.21 625.978 L 1364.33 640.248 C 1358.32 641.952 1356.01 642.466 1350.4 645.579 C 1347.17 648.081 1344.19 650.759 1340.45 652.293 C 1337.62 659.306 1338 873.982 1339.18 899.969 C 1347.8 899.86 1397.61 898.291 1402.11 900.805 C 1402.74 904.088 1403.04 904.664 1402.71 908.04 C 1399.86 909.68 1395.31 908.992 1391.48 908.979 C 1391.28 913.662 1391 918.505 1390.93 923.177 L 1383.88 926.207 C 1373.74 934.338 1367.79 941.618 1365.19 954.907 C 1364.72 959.032 1363.99 964.137 1363.82 968.203 C 1358.04 970.672 1352.87 972.522 1347.77 976.193 L 1344.47 980.031 C 1341.71 986.377 1342.77 989.595 1341.11 993.458 C 1337.74 998.578 1338.84 1010.46 1338.84 1016.77 C 1338.84 1057.89 1338.79 1099.02 1338.79 1140.15 L 1338.71 1671.14 L 1338.83 1814.68 C 1338.84 1823.8 1338.1 1873.35 1340.06 1877.8 L 1342.99 1879.23 C 1344.16 1879.68 1345.11 1880.66 1346.1 1881.49 C 1346.9 1884.64 1348.17 1884 1351.33 1884.38 L 1351.09 1889.96 L 1370.89 1890.02 L 1371.01 1951.2 C 1380.4 1951.17 1406.36 1950.52 1414.24 1951.86 C 1414.08 1954.35 1414.36 1953.59 1413.08 1955.57 C 1394.87 1957.2 1360.38 1956.05 1340.46 1956.05 L 1197.09 1955.99 L 758.81 1956.11 L 670.59 1955.92 C 663.942 1955.89 638.433 1957.3 634.305 1954.89 L 634.237 1952.56 C 636.984 1950.32 636.957 1951.14 641.594 1951.16 C 650.536 1950.58 665.8 1951 675.134 1951 L 675.495 1890.44 C 680.257 1890.35 688.531 1890.57 692.816 1889.34 L 695.166 1885.22 C 698.587 1883.88 698.828 1884.24 700.167 1880.91 C 701.732 1878.63 702.167 1878.99 705.046 1877.6 C 706.131 1865.9 705.733 1843.16 705.769 1830.9 L 705.917 1748.46 L 705.867 1478.81 L 705.822 1162.88 L 705.841 1059.8 C 705.831 1038.7 706.368 1014.08 704.853 993.314 L 703.407 990.072 C 703.517 987.251 703.568 986.545 702.532 983.743 L 701.157 980.007 L 697.89 975.273 C 692.397 971.328 690.032 970.112 683.496 968.453 C 683.314 963.386 682.999 959.735 682.438 954.71 C 677.934 941.415 675.713 935.915 665.221 926.03 L 657.18 921.982 L 657.178 908.943 C 653.881 909.092 648.901 909.395 646.605 907.508 C 646.135 904.358 645.983 904.441 646.704 901.396 C 652.925 898.347 694.863 899.738 705.534 899.782 C 705.943 842.969 706.01 786.154 705.734 729.34 C 705.706 716.595 706.288 660.78 704.503 651.173 C 702.274 649.779 698.501 646.803 696.246 645.142 L 690.248 642.149 C 682.54 638.344 683.949 633.671 682.335 625.814 C 680.044 623.225 678.943 621.033 677.142 618.078 C 674.206 613.134 671.294 610.824 666.878 607.119 L 663.226 600.918 L 662.384 599.647 C 657.687 597.528 651.438 597.35 646.15 596.807 C 646.081 588.007 646.017 583.512 644.578 574.934 C 639.536 558.384 629.663 544.599 614.961 535.408 C 605.626 532.88 604.556 532.554 604.954 522.137 C 605.102 518.254 605.351 513.866 605.353 509.984 z" fill="rgb(9,8,11)" transform="translate(0,0)"></path>
<path d="M 605.353 509.984 L 1443.01 509.302 L 1443 532.66 C 1438.45 533.732 1435.23 534.321 1430.91 536.212 C 1417.78 547.573 1409.39 558.043 1404.01 574.839 C 1402.56 582.972 1401.62 589.059 1400.85 597.26 C 1395.19 597.576 1389.91 596.789 1386.01 601.313 L 1382.08 606.6 C 1377.37 610.294 1373.93 612.608 1370.57 617.68 C 1369.15 619.889 1366.68 624.035 1365.21 625.978 L 1364.33 640.248 C 1358.32 641.952 1356.01 642.466 1350.4 645.579 C 1347.17 648.081 1344.19 650.759 1340.45 652.293 C 1327.32 650.303 1275.58 651.004 1260.1 650.96 L 1089.1 651.029 L 829.775 650.925 L 750.588 650.9 C 736.038 650.886 718.859 650.426 704.503 651.173 C 702.274 649.779 698.501 646.803 696.246 645.142 L 690.248 642.149 C 682.54 638.344 683.949 633.671 682.335 625.814 C 680.044 623.225 678.943 621.033 677.142 618.078 C 674.206 613.134 671.294 610.824 666.878 607.119 L 663.226 600.918 L 662.384 599.647 C 657.687 597.528 651.438 597.35 646.15 596.807 C 646.081 588.007 646.017 583.512 644.578 574.934 C 639.536 558.384 629.663 544.599 614.961 535.408 C 605.626 532.88 604.556 532.554 604.954 522.137 C 605.102 518.254 605.351 513.866 605.353 509.984 z" fill="rgb(85,92,117)" transform="translate(0,0)"></path>
<path d="M 605.353 509.984 L 1443.01 509.302 L 1443 532.66 C 1438.45 533.732 1435.23 534.321 1430.91 536.212 C 1417.78 547.573 1409.39 558.043 1404.01 574.839 L 644.578 574.934 C 639.536 558.384 629.663 544.599 614.961 535.408 C 605.626 532.88 604.556 532.554 604.954 522.137 C 605.102 518.254 605.351 513.866 605.353 509.984 z" fill="rgb(24,24,29)" transform="translate(0,0)"></path>
<path d="M 605.353 509.984 L 1443.01 509.302 L 1443 532.66 C 1438.45 533.732 1435.23 534.321 1430.91 536.212 C 1426.98 534.17 1415.28 534.555 1410.19 534.511 L 889.372 534.961 L 703.827 534.438 C 680.98 534.472 636.604 533.476 614.961 535.408 C 605.626 532.88 604.556 532.554 604.954 522.137 C 605.102 518.254 605.351 513.866 605.353 509.984 z" fill="rgb(85,92,117)" transform="translate(0,0)"></path>
<path d="M 682.335 625.814 L 1130.52 625.943 L 1280.61 625.532 C 1306.44 625.453 1340.14 624.389 1365.21 625.978 L 1364.33 640.248 C 1358.32 641.952 1356.01 642.466 1350.4 645.579 C 1347.17 648.081 1344.19 650.759 1340.45 652.293 C 1327.32 650.303 1275.58 651.004 1260.1 650.96 L 1089.1 651.029 L 829.775 650.925 L 750.588 650.9 C 736.038 650.886 718.859 650.426 704.503 651.173 C 702.274 649.779 698.501 646.803 696.246 645.142 L 690.248 642.149 C 682.54 638.344 683.949 633.671 682.335 625.814 z" fill="rgb(85,92,117)" transform="translate(0,0)"></path>
<path d="M 696.246 645.142 C 700.084 643.631 704.984 644.05 709.293 644.027 L 1144.89 644.261 L 1281.95 644.184 C 1296.89 644.215 1337.32 643.512 1350.4 645.579 C 1347.17 648.081 1344.19 650.759 1340.45 652.293 C 1327.32 650.303 1275.58 651.004 1260.1 650.96 L 1089.1 651.029 L 829.775 650.925 L 750.588 650.9 C 736.038 650.886 718.859 650.426 704.503 651.173 C 702.274 649.779 698.501 646.803 696.246 645.142 z" fill="rgb(24,24,29)" transform="translate(0,0)"></path>
<path d="M 666.878 607.119 C 905.273 605.057 1143.68 604.884 1382.08 606.6 C 1377.37 610.294 1373.93 612.608 1370.57 617.68 C 1369.15 619.889 1366.68 624.035 1365.21 625.978 C 1340.14 624.389 1306.44 625.453 1280.61 625.532 L 1130.52 625.943 L 682.335 625.814 C 680.044 623.225 678.943 621.033 677.142 618.078 C 674.206 613.134 671.294 610.824 666.878 607.119 z" fill="rgb(85,92,117)" transform="translate(0,0)"></path>
<path d="M 677.142 618.078 C 685.216 617.309 699.86 617.625 708.184 617.634 L 763.729 617.682 L 941.546 617.368 L 1244.56 617.331 L 1319.05 617.636 C 1335.85 617.596 1353.9 617.037 1370.57 617.68 C 1369.15 619.889 1366.68 624.035 1365.21 625.978 C 1340.14 624.389 1306.44 625.453 1280.61 625.532 L 1130.52 625.943 L 682.335 625.814 C 680.044 623.225 678.943 621.033 677.142 618.078 z" fill="rgb(24,24,29)" transform="translate(0,0)"></path>
<path d="M 663.226 600.918 C 670.225 598.554 778.348 599.953 791.139 599.949 L 1204.2 599.947 C 1225.36 599.941 1382.12 598.882 1386.01 601.313 L 1382.08 606.6 C 1143.68 604.884 905.273 605.057 666.878 607.119 L 663.226 600.918 z" fill="rgb(24,24,29)" transform="translate(0,0)"></path>
<path d="M 704.503 651.173 C 718.859 650.426 736.038 650.886 750.588 650.9 L 829.775 650.925 L 1089.1 651.029 L 1260.1 650.96 C 1275.58 651.004 1327.32 650.303 1340.45 652.293 C 1337.62 659.306 1338 873.982 1339.18 899.969 C 1322.99 900.445 1305.33 900.19 1289.01 900.286 C 1277.53 840.59 1241.87 779.787 1191.86 744.396 C 1176.79 731.591 1160.38 722.797 1142.73 714.365 C 1097.16 692.599 1052.44 683.998 1001.91 688.142 C 928.954 693.744 861.347 728.555 814.408 784.686 C 806.294 794.327 795.365 808.88 789.409 820.165 C 775.804 837.783 763.281 878.013 759.124 899.898 L 705.534 899.782 C 705.943 842.969 706.01 786.154 705.734 729.34 C 705.706 716.595 706.288 660.78 704.503 651.173 z" fill="rgb(85,92,117)" transform="translate(0,0)"></path>
<path d="M 704.853 993.314 L 776.551 992.87 L 773.129 1877.92 C 755.017 1877.93 722.245 1878.96 705.046 1877.6 C 706.131 1865.9 705.733 1843.16 705.769 1830.9 L 705.917 1748.46 L 705.867 1478.81 L 705.822 1162.88 L 705.841 1059.8 C 705.831 1038.7 706.368 1014.08 704.853 993.314 z" fill="rgb(85,92,117)" transform="translate(0,0)"></path>
<path d="M 1272.32 992.803 C 1295.13 992.916 1318.37 993.629 1341.11 993.458 C 1337.74 998.578 1338.84 1010.46 1338.84 1016.77 C 1338.84 1057.89 1338.79 1099.02 1338.79 1140.15 L 1338.71 1671.14 L 1338.83 1814.68 C 1338.84 1823.8 1338.1 1873.35 1340.06 1877.8 C 1325.46 1876.28 1288.88 1877.74 1272.91 1877.96 L 1272.32 992.803 z" fill="rgb(85,92,117)" transform="translate(0,0)"></path>
<path d="M 1351.09 1889.96 L 1370.89 1890.02 L 1371.01 1951.2 C 1380.4 1951.17 1406.36 1950.52 1414.24 1951.86 C 1398.4 1952.64 1380.93 1951.92 1365.02 1951.92 L 1273.15 1952.06 C 1272.62 1931.78 1272.96 1909.47 1272.9 1889.04 C 1298.96 1889.67 1325.03 1889.98 1351.09 1889.96 z" fill="rgb(85,92,117)" transform="translate(0,0)"></path>
<path d="M 692.816 1889.34 C 714.416 1891.4 750.337 1888.8 773.457 1889.15 L 773.061 1951.72 C 744.721 1951.99 716.326 1952.05 687.988 1951.62 C 675.673 1951.43 653.479 1952.96 641.594 1951.16 C 650.536 1950.58 665.8 1951 675.134 1951 L 675.495 1890.44 C 680.257 1890.35 688.531 1890.57 692.816 1889.34 z" fill="rgb(85,92,117)" transform="translate(0,0)"></path>
<path d="M 657.178 908.943 C 707.39 907.376 759.717 908.833 810.222 907.999 L 810.056 924.967 C 792.861 924.879 670.109 923.457 665.221 926.03 L 657.18 921.982 L 657.178 908.943 z" fill="rgb(85,92,117)" transform="translate(0,0)"></path>
<path d="M 1238.92 908.389 C 1288.41 907.33 1341.78 908.471 1391.48 908.979 C 1391.28 913.662 1391 918.505 1390.93 923.177 L 1383.88 926.207 C 1378.45 923.63 1255.69 924.87 1239.16 924.779 L 1238.92 908.389 z" fill="rgb(85,92,117)" transform="translate(0,0)"></path>
<path d="M 682.438 954.71 C 718.813 954.829 755.934 954.183 792.163 954.858 C 782.863 961.179 780.073 963.423 776.309 974.578 C 750.456 975.359 723.181 974.102 697.89 975.273 C 692.397 971.328 690.032 970.112 683.496 968.453 C 683.314 963.386 682.999 959.735 682.438 954.71 z" fill="rgb(85,92,117)" transform="translate(0,0)"></path>
<path d="M 1260.1 954.672 L 1365.19 954.907 C 1364.72 959.032 1363.99 964.137 1363.82 968.203 C 1358.04 970.672 1352.87 972.522 1347.77 976.193 C 1343.36 974.077 1281.78 974.92 1272.26 974.933 C 1268.73 964.908 1266.94 962.575 1260.1 954.672 z" fill="rgb(85,92,117)" transform="translate(0,0)"></path>
<path d="M 701.157 980.007 C 725.389 980.467 749.799 979.667 774.043 979.855 C 776.764 979.876 780.356 986.402 771.748 987.508 C 755.115 989.646 717.443 984.869 703.407 990.072 C 703.517 987.251 703.568 986.545 702.532 983.743 L 701.157 980.007 z" fill="rgb(85,92,117)" transform="translate(0,0)"></path>
<path d="M 1341.11 993.458 C 1341 992.299 1341.01 991.065 1340.72 989.934 C 1339.4 984.796 1278.53 990.753 1273 986.87 C 1272.42 986.463 1272.25 985.678 1272.24 985.015 C 1272.21 983.631 1271.91 981.765 1272.99 980.663 C 1275.1 978.507 1337.05 979.955 1344.47 980.031 C 1341.71 986.377 1342.77 989.595 1341.11 993.458 z" fill="rgb(85,92,117)" transform="translate(0,0)"></path>
<path d="M 1342.99 1879.23 C 1344.16 1879.68 1345.11 1880.66 1346.1 1881.49 C 1346.9 1884.64 1348.17 1884 1351.33 1884.38 C 1350.6 1884.56 1349.87 1884.75 1349.15 1884.96 C 1342.44 1886.95 1285.28 1885.95 1273.69 1885.49 C 1273.31 1885.48 1272.61 1884.15 1272.4 1883.36 C 1273.75 1879.44 1288.65 1881.37 1292.96 1881.2 C 1304.09 1880.26 1336.31 1882.54 1342.99 1879.23 z" fill="rgb(89,92,122)" transform="translate(0,0)"></path>
<path d="M 1342.99 1879.23 C 1344.16 1879.68 1345.11 1880.66 1346.1 1881.49 C 1343.5 1882.59 1298.32 1881.75 1292.96 1881.2 C 1304.09 1880.26 1336.31 1882.54 1342.99 1879.23 z" fill="rgb(24,24,29)" transform="translate(0,0)"></path>
<path d="M 700.167 1880.91 C 711.216 1884.75 758.983 1878.03 772.672 1882.19 C 773.462 1882.44 773.389 1884.67 772.792 1884.77 C 750.669 1888.46 715.907 1881.95 695.166 1885.22 C 698.587 1883.88 698.828 1884.24 700.167 1880.91 z" fill="rgb(89,92,122)" transform="translate(0,0)"></path>
<path d="M 794.975 961.233 C 812.566 963.018 853.448 974.743 872.378 979.047 C 913.609 988.422 955.224 997.769 996.416 1007.3 C 996.592 1041.33 996.463 1075.37 996.029 1109.4 L 995.139 1330.13 L 994.989 1913.07 L 994.861 1924.52 C 978.329 1925.91 947.168 1933.21 934.24 1933.54 C 923.602 1935.18 913.027 1937.24 902.34 1938.8 C 900.449 1938.06 898.635 1937.35 896.721 1936.66 C 865.401 1942.69 826.965 1943.35 792.143 1949.56 C 793.546 1879.53 791.737 1807.95 792.101 1737.65 L 794.613 1196.82 L 794.769 1070.41 C 794.632 1034.39 794.011 997.215 794.975 961.233 z" fill="rgb(85,92,117)" transform="translate(0,0)"></path>
<path d="M 896.721 1936.66 C 904.335 1935.38 927.264 1931.55 934.24 1933.54 C 923.602 1935.18 913.027 1937.24 902.34 1938.8 C 900.449 1938.06 898.635 1937.35 896.721 1936.66 z" fill="rgb(24,24,29)" transform="translate(0,0)"></path>
<path d="M 881.575 1030.25 C 919.202 1027.87 946.681 1053.8 950.849 1090.29 C 963.438 1095.54 971.862 1099.86 972.598 1114.86 C 973.364 1130.48 973.007 1146.02 972.974 1161.65 C 973.043 1194.28 972.765 1226.9 972.142 1259.52 C 971.514 1344.85 971.38 1430.18 971.739 1515.5 L 920.146 1506.82 C 887.894 1501.24 852.345 1494.67 819.924 1490.78 L 820.889 1216.2 L 820.932 1136.26 C 820.902 1122.46 820.752 1108.63 820.959 1094.84 C 821.217 1077.64 829.494 1073.95 844.624 1069.72 C 846.052 1045.84 858.378 1033.99 881.575 1030.25 z" fill="rgb(24,24,29)" transform="translate(0,0)"></path>
<path d="M 880.814 1038.15 C 882.388 1038.05 883.962 1037.97 885.538 1037.91 C 922.692 1036.6 941.941 1064.61 943.018 1098.65 C 953.911 1100.55 956.563 1101.21 962.94 1110.09 C 963.397 1153.95 962.219 1198.73 962.042 1242.66 L 962.099 1494.51 C 947.793 1491.99 932.832 1489.84 918.438 1487.58 C 888.506 1482.45 858.258 1478.31 828.403 1472.79 C 830.055 1347.92 828.325 1222.86 829.156 1097.98 C 829.276 1080 838.049 1078.47 853.932 1079.92 C 853.423 1058.49 858.293 1043.95 880.814 1038.15 z" fill="rgb(85,92,117)" transform="translate(0,0)"></path>
<path d="M 820.968 1542.71 C 870.44 1548.29 920.139 1552.44 969.735 1558.14 L 969.255 1845.57 L 954.23 1846.87 C 910.293 1849.52 864.185 1857.31 820.051 1861.23 L 820.968 1542.71 z" fill="rgb(24,24,29)" transform="translate(0,0)"></path>
<path d="M 826.512 1553.73 C 833.14 1554.05 841.473 1554.87 848.038 1555.76 C 884.628 1560.7 924.33 1561.24 960.528 1567.24 C 961.523 1608.58 960.221 1656.37 959.62 1698.14 C 959.007 1744.04 958.786 1789.93 958.957 1835.83 C 954.788 1836.04 950.424 1836.46 946.245 1836.79 C 909.118 1839.2 863.415 1845.38 826.037 1849.79 L 826.512 1553.73 z" fill="rgb(85,92,117)" transform="translate(0,0)"></path>
<path d="M 1054.32 1014.88 L 1174.78 984.745 C 1197.1 979.134 1225.72 972.646 1247.35 965.763 C 1249.51 995.9 1248.55 1040.73 1248.8 1071.89 L 1249.12 1304.42 L 1249.13 1933.36 C 1239.09 1931.21 1206.18 1929.21 1193.51 1927.87 L 1054.15 1913.06 C 1055.28 1845.39 1054.05 1774.8 1054.1 1706.7 L 1054.11 1195.48 C 1054.25 1136.49 1053.04 1073.5 1054.32 1014.88 z" fill="rgb(85,92,117)" transform="translate(0,0)"></path>
<path d="M 1148.84 1034.28 C 1174.83 1031.05 1193.89 1045.46 1197.37 1071.47 C 1209.8 1071.77 1228.12 1074.58 1229.46 1090.52 C 1230.73 1105.71 1230.09 1122.04 1230.06 1137.35 L 1229.99 1219.98 L 1230.07 1494.75 C 1203.65 1498.55 1177.31 1501.19 1150.76 1505.42 C 1128.4 1508.23 1099.79 1512.34 1077.9 1516.22 L 1077.17 1242.4 L 1077.74 1170.17 C 1077.74 1154.06 1077.38 1137.92 1077.76 1121.81 C 1078.15 1104.83 1082.8 1101.45 1098.06 1096.47 C 1100.99 1063.59 1114.17 1040.9 1148.84 1034.28 z" fill="rgb(24,24,29)" transform="translate(0,0)"></path>
<path d="M 1149.2 1041.21 C 1176.38 1039.24 1189.4 1056.81 1188.98 1082.27 C 1198.79 1079.89 1216.62 1075.82 1217.32 1091.63 C 1217.98 1106.46 1217.49 1121.78 1217.42 1136.65 L 1217.27 1215.15 L 1217.16 1476.48 C 1194.87 1478.82 1169.36 1482.56 1147.18 1486.12 C 1126.91 1488.53 1105.57 1492.25 1085.07 1495.04 L 1084.91 1231.69 C 1085.04 1208.05 1085.02 1184.42 1084.85 1160.79 C 1084.77 1147.4 1084.6 1134.04 1084.85 1120.65 C 1085.1 1106.53 1093.41 1103.91 1105.95 1102.74 C 1105.92 1071.07 1114.76 1048.19 1149.2 1041.21 z" fill="rgb(85,92,117)" transform="translate(0,0)"></path>
<path d="M 1228.27 1541.49 L 1229.58 1541.43 C 1231.19 1543.81 1230.95 1545.56 1230.93 1548.47 C 1230.07 1651.06 1231.59 1753.88 1230.23 1856.45 C 1216.24 1854.54 1199.42 1853.46 1185.09 1852.07 C 1156.12 1849.29 1127.17 1846.33 1098.24 1843.21 C 1092.1 1842.68 1085.96 1842.22 1079.81 1841.83 C 1080.19 1746.65 1080.09 1651.48 1079.52 1556.3 C 1124.89 1554.83 1181.55 1545.06 1228.27 1541.49 z" fill="rgb(24,24,29)" transform="translate(0,0)"></path>
<path d="M 1213.56 1553.41 C 1216.16 1552.96 1216.25 1552.67 1218.6 1553.66 C 1221.53 1559.49 1219.59 1573.8 1219.58 1580.69 L 1219.64 1646.6 L 1219.96 1845.3 C 1209.04 1844.8 1192.84 1842.63 1181.59 1841.38 L 1108.8 1833.24 L 1087.04 1831.63 L 1087.13 1567.13 C 1101.19 1564.81 1119.43 1563.44 1133.98 1561.96 C 1160.53 1559.34 1187.06 1556.49 1213.56 1553.41 z" fill="rgb(85,92,117)" transform="translate(0,0)"></path>
<path d="M 1218.7 1859.52 C 1223.46 1862.37 1226.87 1873.74 1229.54 1878.78 C 1238.23 1895.14 1241.68 1899.19 1238.31 1918.04 C 1233.03 1924.28 1232.11 1925.56 1224.69 1928.11 C 1221.75 1928.1 1215.01 1928.51 1212.5 1927.12 C 1187.39 1913.2 1210.42 1876.79 1218.7 1859.52 z" fill="rgb(206,23,26)" transform="translate(0,0)"></path>
<path d="M 1230.69 1899.48 C 1239.3 1904.17 1232.23 1912.19 1227.97 1916.48 C 1223.75 1915.8 1222.47 1914.39 1226.26 1910.6 C 1230.04 1906.84 1229.78 1904.67 1230.69 1899.48 z" fill="rgb(249,249,249)" transform="translate(0,0)"></path>
<path d="M 766.392 900.035 C 783.42 837.121 805.933 795.395 857.606 753.216 C 913.147 707.879 985.924 689.069 1056.89 697.146 C 1130.43 705.516 1188.56 741.045 1234.58 797.924 C 1261.53 836.86 1269.28 854.94 1282.02 900.051 C 1275.81 900.108 1267.03 899.936 1261.04 900.387 C 1254.25 875.303 1246.83 853.17 1233.57 830.372 C 1201.77 776.873 1150.21 738.02 1090.02 722.199 C 953.623 687.2 823.425 763.666 788.408 900.133 L 766.392 900.035 z" fill="rgb(85,92,117)" transform="translate(0,0)"></path>
<path d="M 1054.15 1913.06 L 1193.51 1927.87 C 1206.18 1929.21 1239.09 1931.21 1249.13 1933.36 L 1249.2 1951.15 L 842.596 1951.04 L 842.472 1947.94 C 862.451 1945.04 882.407 1942 902.34 1938.8 C 913.027 1937.24 923.602 1935.18 934.24 1933.54 C 947.168 1933.21 978.329 1925.91 994.861 1924.52 L 994.989 1913.07 L 1054.15 1913.06 z" fill="rgb(249,249,249)" transform="translate(0,0)"></path>
<path d="M 821.612 921.449 C 830.844 922.992 854.818 922.804 865.393 922.826 L 938.753 922.803 C 1034.48 922.789 1132.85 921.238 1228.21 922.4 C 1232.93 923.163 1242.3 941.227 1244.35 945.909 L 1003.44 945.201 C 942.537 945.569 866.453 948.424 806.797 944.854 L 821.612 921.449 z" fill="rgb(85,92,117)" transform="translate(0,0)"></path>
<path d="M 830.681 1949.22 C 834.973 1948.92 838.303 1948.36 842.472 1947.94 L 842.596 1951.04 L 841.021 1951.14 C 838.15 1951.63 827.743 1952.85 824.471 1951.62 C 824.406 1951.51 824.342 1951.4 824.277 1951.29 C 824.682 1949.69 830.112 1949.31 830.681 1949.22 z" fill="rgb(218,216,220)" transform="translate(0,0)"></path>
<path d="M 841.021 1951.14 C 838.15 1951.63 827.743 1952.85 824.471 1951.62 C 824.406 1951.51 824.342 1951.4 824.277 1951.29 C 824.682 1949.69 830.112 1949.31 830.681 1949.22 C 830.182 1950.11 830.266 1949.8 830.216 1950.26 C 830.966 1951.26 839.39 1951.06 841.021 1951.14 z" fill="rgb(98,94,97)" transform="translate(0,0)"></path>
<path d="M 903.053 75.1148 L 1154.17 75.0533 C 1154.33 79.31 1155.06 83.638 1153.05 87.2312 C 1150.38 88.9789 1149.93 89.239 1146.99 90.4768 C 1140.88 96.1368 1137.52 99.4765 1135.07 107.784 C 1134.73 111.561 1134.44 115.437 1133.96 119.191 C 1131.29 120.033 1126.67 121.284 1124.34 122.521 C 1121.46 124.094 1120.41 125.047 1117.27 125.629 C 1116.61 126.233 1113.46 129.043 1113.08 129.523 L 1111.18 132.188 C 1110.91 182.159 1110.9 232.132 1111.14 282.103 C 1111.16 311.088 1110.14 345.96 1111.2 374.337 C 1117.45 374.231 1125.57 373.754 1131.51 374.947 L 1132.9 376.342 L 1132.45 378.799 L 1131.01 379.227 C 1130.02 380.561 1128.17 383.433 1126.94 384.124 C 1120.43 388.794 1122.67 390.363 1118.44 395.995 L 1117.73 398.622 C 1118 401.71 1118.16 401.737 1117.42 404.689 C 1116.43 405.335 1115.44 405.818 1114.22 405.826 C 1061.74 406.154 1009.26 405.933 956.784 406.145 C 949.765 406.173 942.752 406.308 935.757 405.675 C 933.945 403.019 934.56 402.686 934.372 398.915 L 932.378 395.332 C 929.754 390.52 928.434 388.608 925.105 384.233 C 924.34 383.654 923.575 383.075 922.81 382.496 L 919.128 378.443 L 919.109 376.438 C 922.303 373.378 934.675 374.315 940.056 374.313 C 938.664 293.536 938.684 212.742 940.117 131.966 L 938.959 128.177 L 937.64 126.921 L 929.166 122.762 C 926.614 121.706 922.772 119.365 920.259 117.948 L 920.623 105.704 C 918.319 98.3961 916.135 95.8137 910.887 90.2621 C 900.975 85.4372 902.455 86.0426 903.053 75.1148 z" fill="rgb(24,24,29)" transform="translate(0,0)"></path>
<path d="M 903.053 75.1148 L 1154.17 75.0533 C 1154.33 79.31 1155.06 83.638 1153.05 87.2312 C 1150.38 88.9789 1149.93 89.239 1146.99 90.4768 C 1140.88 96.1368 1137.52 99.4765 1135.07 107.784 C 1134.73 111.561 1134.44 115.437 1133.96 119.191 C 1131.29 120.033 1126.67 121.284 1124.34 122.521 C 1121.46 124.094 1120.41 125.047 1117.27 125.629 C 1116.61 126.233 1113.46 129.043 1113.08 129.523 C 1105.48 126.258 959.037 128.52 938.959 128.177 L 937.64 126.921 L 929.166 122.762 C 926.614 121.706 922.772 119.365 920.259 117.948 L 920.623 105.704 C 918.319 98.3961 916.135 95.8137 910.887 90.2621 C 900.975 85.4372 902.455 86.0426 903.053 75.1148 z" fill="rgb(24,24,29)" transform="translate(0,0)"></path>
<path d="M 920.623 105.704 L 921.72 107.331 C 931.076 109.042 977.046 108.243 988.53 108.211 L 1135.07 107.784 C 1134.73 111.561 1134.44 115.437 1133.96 119.191 C 1131.29 120.033 1126.67 121.284 1124.34 122.521 C 1121.46 124.094 1120.41 125.047 1117.27 125.629 C 1116.61 126.233 1113.46 129.043 1113.08 129.523 C 1105.48 126.258 959.037 128.52 938.959 128.177 L 937.64 126.921 L 929.166 122.762 C 926.614 121.706 922.772 119.365 920.259 117.948 L 920.623 105.704 z" fill="rgb(85,92,117)" transform="translate(0,0)"></path>
<path d="M 929.166 122.762 C 931.624 121.438 935.21 120.386 937.857 120.586 C 957.855 122.096 1117.78 118.114 1124.34 122.521 C 1121.46 124.094 1120.41 125.047 1117.27 125.629 C 1116.61 126.233 1113.46 129.043 1113.08 129.523 C 1105.48 126.258 959.037 128.52 938.959 128.177 L 937.64 126.921 L 929.166 122.762 z" fill="rgb(9,8,11)" transform="translate(0,0)"></path>
<path d="M 937.64 126.921 C 948.124 123.002 1096.47 124.65 1117.27 125.629 C 1116.61 126.233 1113.46 129.043 1113.08 129.523 C 1105.48 126.258 959.037 128.52 938.959 128.177 L 937.64 126.921 z" fill="rgb(89,92,122)" transform="translate(0,0)"></path>
<path d="M 903.053 75.1148 L 1154.17 75.0533 C 1154.33 79.31 1155.06 83.638 1153.05 87.2312 C 1150.38 88.9789 1149.93 89.239 1146.99 90.4768 C 1141.17 89.5084 1125.96 89.8487 1119.44 89.87 L 1068.13 89.954 L 972.711 89.6206 C 953.104 89.5539 930.274 89.048 910.887 90.2621 C 900.975 85.4372 902.455 86.0426 903.053 75.1148 z" fill="rgb(85,92,117)" transform="translate(0,0)"></path>
<path d="M 919.128 378.443 C 929.866 380.668 968.433 379.036 982.187 379.209 C 1031.4 379.826 1081.82 378.373 1131.01 379.227 C 1130.02 380.561 1128.17 383.433 1126.94 384.124 C 1120.43 388.794 1122.67 390.363 1118.44 395.995 L 1117.73 398.622 C 1118 401.71 1118.16 401.737 1117.42 404.689 C 1116.43 405.335 1115.44 405.818 1114.22 405.826 C 1061.74 406.154 1009.26 405.933 956.784 406.145 C 949.765 406.173 942.752 406.308 935.757 405.675 C 933.945 403.019 934.56 402.686 934.372 398.915 L 932.378 395.332 C 929.754 390.52 928.434 388.608 925.105 384.233 C 924.34 383.654 923.575 383.075 922.81 382.496 L 919.128 378.443 z" fill="rgb(85,92,117)" transform="translate(0,0)"></path>
<path d="M 934.372 398.915 L 1050.83 399.091 C 1070.54 399.106 1098.39 399.817 1117.73 398.622 C 1118 401.71 1118.16 401.737 1117.42 404.689 C 1116.43 405.335 1115.44 405.818 1114.22 405.826 C 1061.74 406.154 1009.26 405.933 956.784 406.145 C 949.765 406.173 942.752 406.308 935.757 405.675 C 933.945 403.019 934.56 402.686 934.372 398.915 z" fill="rgb(85,92,117)" transform="translate(0,0)"></path>
<path d="M 932.378 395.332 C 941.673 393.913 1114.68 394.813 1118.44 395.995 L 1117.73 398.622 C 1098.39 399.817 1070.54 399.106 1050.83 399.091 L 934.372 398.915 L 932.378 395.332 z" fill="rgb(9,8,11)" transform="translate(0,0)"></path>
<path d="M 922.81 382.496 C 933.752 382.504 944.604 383.158 955.538 384.12 C 947.374 385.372 933.268 385.196 925.105 384.233 C 924.34 383.654 923.575 383.075 922.81 382.496 z" fill="rgb(66,69,90)" transform="translate(0,0)"></path>
<path d="M 1090.81 132.68 C 1098.01 132.715 1104 132.629 1111.18 132.188 C 1110.91 182.159 1110.9 232.132 1111.14 282.103 C 1111.16 311.088 1110.14 345.96 1111.2 374.337 C 1104.88 374.485 1097.32 374.201 1090.9 374.131 C 1089.49 295.185 1090.85 211.951 1090.81 132.68 z" fill="rgb(85,92,117)" transform="translate(0,0)"></path>
<path d="M 940.117 131.966 C 945.559 132.089 951.002 132.116 956.445 132.047 L 955.483 374.005 L 940.056 374.313 C 938.664 293.536 938.684 212.742 940.117 131.966 z" fill="rgb(85,92,117)" transform="translate(0,0)"></path>
<path d="M 966.981 221.917 C 981.665 221.737 1004.2 221.712 1019.38 222.188 C 1020.04 222.209 1020.64 224.063 1020.8 224.452 C 1022.86 236.21 1021.79 282.442 1020.79 295.136 C 1007.87 294.091 980.688 294.852 966.827 294.971 C 966.865 293.29 966.915 291.609 966.977 289.929 L 966.981 221.917 z" fill="rgb(220,120,43)" transform="translate(0,0)"></path>
<path d="M 1020.8 224.452 C 1022.86 236.21 1021.79 282.442 1020.79 295.136 C 1007.87 294.091 980.688 294.852 966.827 294.971 C 966.865 293.29 966.915 291.609 966.977 289.929 C 984.698 289.874 1002.62 290.107 1020.3 289.899 C 1020.53 270.709 1019.45 242.869 1020.8 224.452 z" fill="rgb(9,8,11)" transform="translate(0,0)"></path>
<path d="M 1026.25 294.953 L 1080.84 294.996 L 1080.75 366.391 L 1026.29 366.443 L 1026.25 294.953 z" fill="rgb(220,120,43)" transform="translate(0,0)"></path>
<path d="M 966.827 294.971 C 980.688 294.852 1007.87 294.091 1020.79 295.136 C 1020.44 318.806 1020.99 342.728 1020.63 366.495 L 966.825 366.578 L 966.827 294.971 z" fill="rgb(220,120,43)" transform="translate(0,0)"></path>
<path d="M 1026.28 146.169 C 1044.43 146.043 1062.58 146.03 1080.73 146.129 C 1080.68 169.608 1080.9 193.469 1080.63 216.903 L 1026.22 216.825 C 1026.05 193.687 1026 169.282 1026.28 146.169 z" fill="rgb(220,120,43)" transform="translate(0,0)"></path>
<path d="M 966.904 145.937 C 984.636 145.919 1002.72 145.838 1020.43 146.09 C 1020.54 169.656 1020.51 193.222 1020.35 216.788 C 1006.93 217.776 981.354 217.001 966.966 216.985 L 966.904 145.937 z" fill="rgb(220,120,43)" transform="translate(0,0)"></path>
<path d="M 1026.23 221.921 C 1044.32 221.862 1062.78 221.734 1080.85 221.957 L 1080.84 289.978 C 1062.62 290.041 1044.4 289.992 1026.18 289.832 C 1026.05 267.667 1025.8 243.994 1026.23 221.921 z" fill="rgb(220,120,43)" transform="translate(0,0)"></path>
<path d="M 1305.34 74.9715 L 1551.93 75.267 C 1552.45 86.2098 1553.73 86.1164 1544.19 90.5076 C 1537.65 96.7663 1535.41 98.7766 1532.47 107.66 C 1532.5 112.918 1533.33 113.954 1530.94 118.124 C 1529.9 118.662 1525.58 120.808 1524.9 121.379 L 1519.57 125.733 L 1515.91 128.347 L 1514.04 132.025 L 1514.08 374.078 C 1520.76 374.02 1528.93 373.639 1535.35 374.78 L 1534.76 378.045 C 1532.53 379.465 1533.33 379.217 1530.87 379.492 L 1531 383.013 C 1530.49 383.307 1529.31 384.066 1528.82 384.196 C 1525.64 387.611 1523.4 390.783 1522.46 395.506 L 1521.35 398.374 C 1521.4 401.43 1521.85 403.75 1520.26 406.239 L 1396.61 406.129 C 1383.55 406.154 1346.63 407.017 1336.2 405.76 C 1334.55 402.938 1335.18 402.201 1335.16 398.394 L 1334.78 396.662 C 1332.37 391.708 1331.71 389.798 1327.6 386.016 C 1324.4 383.447 1322.75 381.268 1320.1 378.182 L 1318.96 375.028 C 1322.96 374.103 1336.85 374.235 1341.75 374.179 L 1342.03 131.727 L 1341.38 128.23 L 1340.27 126.119 L 1333.99 121.483 L 1326.06 116.955 L 1324.67 106.59 C 1322.29 99.9711 1318.75 96.2033 1314.14 91.2223 C 1310.64 89.3636 1309.57 88.8706 1306.56 86.388 C 1304.45 82.7794 1305.16 79.3274 1305.34 74.9715 z" fill="rgb(24,24,29)" transform="translate(0,0)"></path>
<path d="M 1305.34 74.9715 L 1551.93 75.267 C 1552.45 86.2098 1553.73 86.1164 1544.19 90.5076 C 1537.65 96.7663 1535.41 98.7766 1532.47 107.66 C 1532.5 112.918 1533.33 113.954 1530.94 118.124 C 1529.9 118.662 1525.58 120.808 1524.9 121.379 L 1519.57 125.733 L 1515.91 128.347 C 1500.83 129.14 1477.84 128.049 1462 128.024 L 1341.38 128.23 L 1340.27 126.119 L 1333.99 121.483 L 1326.06 116.955 L 1324.67 106.59 C 1322.29 99.9711 1318.75 96.2033 1314.14 91.2223 C 1310.64 89.3636 1309.57 88.8706 1306.56 86.388 C 1304.45 82.7794 1305.16 79.3274 1305.34 74.9715 z" fill="rgb(24,24,29)" transform="translate(0,0)"></path>
<path d="M 1324.67 106.59 C 1336.67 110.243 1431.02 107.961 1448.54 107.935 L 1503.52 107.849 C 1511.47 107.836 1524.92 108.213 1532.47 107.66 C 1532.5 112.918 1533.33 113.954 1530.94 118.124 C 1529.9 118.662 1525.58 120.808 1524.9 121.379 L 1519.57 125.733 L 1515.91 128.347 C 1500.83 129.14 1477.84 128.049 1462 128.024 L 1341.38 128.23 L 1340.27 126.119 L 1333.99 121.483 L 1326.06 116.955 L 1324.67 106.59 z" fill="rgb(85,92,117)" transform="translate(0,0)"></path>
<path d="M 1333.99 121.483 C 1341.38 119.221 1460.38 120.299 1475.81 120.78 C 1481.5 121.393 1517.4 120.889 1518.9 121.598 C 1519.25 122.115 1519.15 121.817 1519.14 122.509 C 1518.28 123.744 1516.62 123.945 1515.06 124.51 L 1519.57 125.733 L 1515.91 128.347 C 1500.83 129.14 1477.84 128.049 1462 128.024 L 1341.38 128.23 L 1340.27 126.119 L 1333.99 121.483 z" fill="rgb(9,8,11)" transform="translate(0,0)"></path>
<path d="M 1340.27 126.119 C 1356.12 124.664 1383.93 125.124 1400.5 125.086 C 1438.69 125.213 1476.88 125.021 1515.06 124.51 L 1519.57 125.733 L 1515.91 128.347 C 1500.83 129.14 1477.84 128.049 1462 128.024 L 1341.38 128.23 L 1340.27 126.119 z" fill="rgb(89,92,122)" transform="translate(0,0)"></path>
<path d="M 1475.81 120.78 C 1482.51 120.252 1520.57 119.541 1524.9 121.379 L 1519.57 125.733 L 1515.06 124.51 C 1516.62 123.945 1518.28 123.744 1519.14 122.509 C 1519.15 121.817 1519.25 122.115 1518.9 121.598 C 1517.4 120.889 1481.5 121.393 1475.81 120.78 z" fill="rgb(24,24,29)" transform="translate(0,0)"></path>
<path d="M 1305.34 74.9715 L 1551.93 75.267 C 1552.45 86.2098 1553.73 86.1164 1544.19 90.5076 C 1531.85 89.6442 1516.13 90.1011 1503.57 90.1184 L 1438.4 90.0212 L 1359.27 89.7958 C 1352.79 89.7937 1318.35 89.1005 1314.14 91.2223 C 1310.64 89.3636 1309.57 88.8706 1306.56 86.388 C 1304.45 82.7794 1305.16 79.3274 1305.34 74.9715 z" fill="rgb(85,92,117)" transform="translate(0,0)"></path>
<path d="M 1494.01 132.051 L 1514.04 132.025 L 1514.08 374.078 C 1520.76 374.02 1528.93 373.639 1535.35 374.78 C 1523.17 375.428 1506.45 374.904 1493.94 374.868 C 1492.17 348.5 1493.36 309.778 1493.55 282.377 L 1494.01 132.051 z" fill="rgb(85,92,117)" transform="translate(0,0)"></path>
<path d="M 1342.03 131.727 L 1360.35 132.032 C 1361.55 153.491 1360.99 178.303 1361.14 199.999 L 1361.2 373.922 C 1346.47 374.189 1333.76 375.685 1318.96 375.028 C 1322.96 374.103 1336.85 374.235 1341.75 374.179 L 1342.03 131.727 z" fill="rgb(85,92,117)" transform="translate(0,0)"></path>
<path d="M 1342.23 382.978 C 1355.99 384.608 1380.66 383.902 1395.42 383.886 L 1486.7 383.779 C 1494.83 383.776 1522.22 383.202 1528.82 384.196 C 1525.64 387.611 1523.4 390.783 1522.46 395.506 L 1521.35 398.374 C 1521.4 401.43 1521.85 403.75 1520.26 406.239 L 1396.61 406.129 C 1383.55 406.154 1346.63 407.017 1336.2 405.76 C 1334.55 402.938 1335.18 402.201 1335.16 398.394 L 1334.78 396.662 C 1332.37 391.708 1331.71 389.798 1327.6 386.016 C 1329.11 386.01 1342.53 385.667 1343.16 384.277 C 1343.03 383.767 1342.59 383.393 1342.23 382.978 z" fill="url(#Gradient3)" transform="translate(0,0)"></path>
<path d="M 1335.16 398.394 C 1343.65 399.355 1359.91 398.963 1369.1 398.984 L 1431.11 399.138 L 1491.42 399.045 C 1498.04 399.016 1515.24 399.294 1521.35 398.374 C 1521.4 401.43 1521.85 403.75 1520.26 406.239 L 1396.61 406.129 C 1383.55 406.154 1346.63 407.017 1336.2 405.76 C 1334.55 402.938 1335.18 402.201 1335.16 398.394 z" fill="rgb(85,92,117)" transform="translate(0,0)"></path>
<path d="M 1334.78 396.662 C 1334.86 396.579 1334.93 396.48 1335.02 396.412 C 1335.03 396.404 1336.96 395.15 1337 395.138 C 1340.71 394.071 1506.45 394.082 1522.46 395.506 L 1521.35 398.374 C 1515.24 399.294 1498.04 399.016 1491.42 399.045 L 1431.11 399.138 L 1369.1 398.984 C 1359.91 398.963 1343.65 399.355 1335.16 398.394 L 1334.78 396.662 z" fill="rgb(24,24,29)" transform="translate(0,0)"></path>
<path d="M 1320.1 378.182 C 1322.17 378.552 1324.24 378.937 1326.31 379.337 L 1467.23 379.081 C 1482.53 379.082 1516.94 378.182 1530.87 379.492 L 1531 383.013 C 1530.49 383.307 1529.31 384.066 1528.82 384.196 C 1522.22 383.202 1494.83 383.776 1486.7 383.779 L 1395.42 383.886 C 1380.66 383.902 1355.99 384.608 1342.23 382.978 C 1342.59 383.393 1343.03 383.767 1343.16 384.277 C 1342.53 385.667 1329.11 386.01 1327.6 386.016 C 1324.4 383.447 1322.75 381.268 1320.1 378.182 z" fill="rgb(89,92,122)" transform="translate(0,0)"></path>
<path d="M 1320.1 378.182 C 1322.17 378.552 1324.24 378.937 1326.31 379.337 C 1329.01 380.846 1336.18 379.446 1337.56 380.19 C 1337.14 381.861 1329 381.936 1327.59 382.238 L 1327.6 382.302 C 1330.52 383.103 1338.8 382.867 1342.23 382.978 C 1342.59 383.393 1343.03 383.767 1343.16 384.277 C 1342.53 385.667 1329.11 386.01 1327.6 386.016 C 1324.4 383.447 1322.75 381.268 1320.1 378.182 z" fill="rgb(85,92,117)" transform="translate(0,0)"></path>
<path d="M 1369.12 216.785 C 1384.94 216.962 1408.85 217.576 1424.04 216.653 C 1424.68 218.58 1425.07 220.191 1424.27 222.03 C 1422.57 232.963 1423.59 275.453 1423.32 289.699 C 1405.51 289.929 1386.82 289.847 1369 289.671 L 1368.96 221.842 L 1369.12 216.785 z" fill="rgb(220,120,43)" transform="translate(0,0)"></path>
<path d="M 1369.12 216.785 C 1384.94 216.962 1408.85 217.576 1424.04 216.653 C 1424.68 218.58 1425.07 220.191 1424.27 222.03 C 1409.21 221.117 1384.35 221.665 1368.96 221.842 L 1369.12 216.785 z" fill="rgb(9,8,11)" transform="translate(0,0)"></path>
<path d="M 1368.91 294.862 C 1387.15 294.658 1405.39 294.666 1423.62 294.884 C 1423.73 318.516 1423.71 342.149 1423.56 365.781 C 1406.03 366.22 1386.66 365.748 1368.97 365.775 L 1368.91 294.862 z" fill="rgb(220,120,43)" transform="translate(0,0)"></path>
<path d="M 1368.99 146.255 C 1387.04 146.316 1406.02 146.141 1424.01 146.659 C 1424.07 166.195 1422.76 198.486 1424.04 216.653 C 1408.85 217.576 1384.94 216.962 1369.12 216.785 C 1368.55 194.075 1368.96 169.14 1368.99 146.255 z" fill="rgb(220,120,43)" transform="translate(0,0)"></path>
<path d="M 1428.98 294.9 C 1447.1 294.757 1465.21 294.739 1483.33 294.846 C 1483.24 318.511 1483.46 342.323 1483.13 365.968 L 1429.01 365.991 L 1428.98 294.9 z" fill="rgb(220,120,43)" transform="translate(0,0)"></path>
<path d="M 1428.76 146.755 C 1447.03 146.646 1465.3 146.64 1483.56 146.736 C 1483.17 169.933 1483.67 193.384 1483.38 216.592 C 1468.43 217.444 1444.26 216.866 1428.96 216.719 C 1428.76 193.399 1428.7 170.077 1428.76 146.755 z" fill="rgb(220,120,43)" transform="translate(0,0)"></path>
<path d="M 1429.01 221.846 C 1447.16 221.687 1465.3 221.696 1483.45 221.873 L 1483.26 290.006 L 1429.08 289.812 L 1429.01 221.846 z" fill="rgb(220,120,43)" transform="translate(0,0)"></path>
<path d="M 97.4942 75.1292 L 342.85 74.9245 C 343.035 79.2578 343.884 83.4708 341.467 86.8419 C 339.279 88.0873 335.93 89.8312 333.917 91.1797 C 328.682 97.0197 325.851 100.276 323.324 107.998 C 322.543 113.521 323.223 114.917 320.115 118.986 C 318.997 119.441 315.229 120.881 314.405 121.382 L 310.043 125.435 L 306.598 128.271 L 304.753 132.945 L 304.387 295.874 C 304.281 320.094 303.209 351.123 304.09 374.833 C 309.582 374.822 321.868 373.821 325.483 377.009 C 324.835 378.592 324.575 379.399 322.46 379.669 C 320.665 383.825 321.153 384.652 316.3 386.026 C 314.955 388.954 313.272 393.716 312.096 396.03 L 311.831 397.338 C 311.805 400.491 312.259 403.209 310.476 405.604 C 296.159 406.979 135.128 407.156 129.704 405.544 C 128.331 402.689 128.469 401.94 128.135 398.811 L 126.109 395.172 C 124.227 388.385 118.996 384.192 113.988 379.384 C 112.21 377.948 112.835 378.903 112.38 376.363 C 116.417 372.874 128.516 374.059 134.634 374.126 C 133.791 293.307 135.193 212.022 134.779 131.093 L 133.215 128.339 L 131.619 125.861 L 126.173 121.348 C 118.78 114.326 118.935 121.162 116.951 107.151 C 114.35 99.5571 111.68 96.7469 106.193 91.2917 L 97.3595 86.7414 C 97.4001 82.9594 97.359 78.8774 97.4942 75.1292 z" fill="rgb(24,24,29)" transform="translate(0,0)"></path>
<path d="M 97.4942 75.1292 L 342.85 74.9245 C 343.035 79.2578 343.884 83.4708 341.467 86.8419 C 339.279 88.0873 335.93 89.8312 333.917 91.1797 C 328.682 97.0197 325.851 100.276 323.324 107.998 C 322.543 113.521 323.223 114.917 320.115 118.986 C 318.997 119.441 315.229 120.881 314.405 121.382 L 310.043 125.435 L 306.598 128.271 C 288.225 127.033 254.482 127.9 234.74 128.011 C 201.991 128.193 165.512 127.213 133.215 128.339 L 131.619 125.861 L 126.173 121.348 C 118.78 114.326 118.935 121.162 116.951 107.151 C 114.35 99.5571 111.68 96.7469 106.193 91.2917 L 97.3595 86.7414 C 97.4001 82.9594 97.359 78.8774 97.4942 75.1292 z" fill="rgb(24,24,29)" transform="translate(0,0)"></path>
<path d="M 116.951 107.151 C 139.222 109.063 173.06 107.931 196.32 107.854 L 323.324 107.998 C 322.543 113.521 323.223 114.917 320.115 118.986 C 318.997 119.441 315.229 120.881 314.405 121.382 L 310.043 125.435 L 306.598 128.271 C 288.225 127.033 254.482 127.9 234.74 128.011 C 201.991 128.193 165.512 127.213 133.215 128.339 L 131.619 125.861 L 126.173 121.348 C 118.78 114.326 118.935 121.162 116.951 107.151 z" fill="rgb(85,92,117)" transform="translate(0,0)"></path>
<path d="M 126.173 121.348 C 137.376 119.345 311.519 120.404 314.405 121.382 L 310.043 125.435 L 306.598 128.271 C 288.225 127.033 254.482 127.9 234.74 128.011 C 201.991 128.193 165.512 127.213 133.215 128.339 L 131.619 125.861 L 126.173 121.348 z" fill="rgb(9,8,11)" transform="translate(0,0)"></path>
<path d="M 131.619 125.861 C 168.775 124.051 209.475 125.568 246.977 124.96 C 257.853 124.784 300.914 124.199 310.043 125.435 L 306.598 128.271 C 288.225 127.033 254.482 127.9 234.74 128.011 C 201.991 128.193 165.512 127.213 133.215 128.339 L 131.619 125.861 z" fill="rgb(89,92,122)" transform="translate(0,0)"></path>
<path d="M 97.4942 75.1292 L 342.85 74.9245 C 343.035 79.2578 343.884 83.4708 341.467 86.8419 C 339.279 88.0873 335.93 89.8312 333.917 91.1797 C 330.232 88.9629 274.289 90.0186 264.691 90.0205 L 161.767 89.9519 C 152.88 89.9467 110.327 89.0477 106.193 91.2917 L 97.3595 86.7414 C 97.4001 82.9594 97.359 78.8774 97.4942 75.1292 z" fill="rgb(85,92,117)" transform="translate(0,0)"></path>
<path d="M 113.988 379.384 C 119.859 378.753 123.87 378.966 129.701 379.158 C 175.938 378.85 222.177 378.929 268.413 379.396 C 278.911 379.439 314.56 378.361 322.46 379.669 C 320.665 383.825 321.153 384.652 316.3 386.026 C 314.955 388.954 313.272 393.716 312.096 396.03 L 311.831 397.338 C 311.805 400.491 312.259 403.209 310.476 405.604 C 296.159 406.979 135.128 407.156 129.704 405.544 C 128.331 402.689 128.469 401.94 128.135 398.811 L 126.109 395.172 C 124.227 388.385 118.996 384.192 113.988 379.384 z" fill="rgb(85,92,117)" transform="translate(0,0)"></path>
<path d="M 311.831 397.338 C 311.805 400.491 312.259 403.209 310.476 405.604 C 296.159 406.979 135.128 407.156 129.704 405.544 C 128.331 402.689 128.469 401.94 128.135 398.811 C 142.646 399.571 307.803 400.207 311.831 397.338 z" fill="rgb(85,92,117)" transform="translate(0,0)"></path>
<path d="M 129.701 379.158 C 175.938 378.85 222.177 378.929 268.413 379.396 C 278.911 379.439 314.56 378.361 322.46 379.669 C 320.665 383.825 321.153 384.652 316.3 386.026 C 313.037 382.445 282.54 383.789 276.358 383.783 L 172.589 383.641 C 159.392 383.568 146.265 383.545 133.093 382.563 C 129.086 382.264 127.698 385.619 123.324 384.758 C 122.097 383.499 118.881 381.297 118.551 380.406 C 121.764 380.292 124.785 380.273 128 380.278 L 129.701 379.158 z" fill="rgb(89,92,122)" transform="translate(0,0)"></path>
<path d="M 126.109 395.172 L 233.491 395.326 C 244.244 395.27 304.488 393.691 312.096 396.03 L 311.831 397.338 C 307.803 400.207 142.646 399.571 128.135 398.811 L 126.109 395.172 z" fill="rgb(9,8,11)" transform="translate(0,0)"></path>
<path d="M 284.95 133.368 L 304.753 132.945 L 304.387 295.874 C 304.281 320.094 303.209 351.123 304.09 374.833 C 299.249 374.388 290.266 374.617 285.105 374.601 C 284.151 295.439 284.231 212.541 284.95 133.368 z" fill="rgb(85,92,117)" transform="translate(0,0)"></path>
<path d="M 134.779 131.093 C 141.156 132.338 146.439 132.077 152.915 132.045 L 153.193 374.128 C 147.647 374.161 140.003 374.427 134.634 374.126 C 133.791 293.307 135.193 212.022 134.779 131.093 z" fill="rgb(85,92,117)" transform="translate(0,0)"></path>
<path d="M 160.022 289.872 C 176.162 289.895 198.489 290.481 214.119 289.712 C 218.468 297.074 216.72 355.361 214.549 365.435 C 210.436 366.926 167.657 366.219 159.878 366.176 C 159.622 342.996 159.463 318.101 159.812 294.978 L 160.022 289.872 z" fill="rgb(220,120,43)" transform="translate(0,0)"></path>
<path d="M 160.022 289.872 C 176.162 289.895 198.489 290.481 214.119 289.712 C 218.468 297.074 216.72 355.361 214.549 365.435 C 212.93 349.357 214.148 312.501 213.976 294.97 L 159.812 294.978 L 160.022 289.872 z" fill="rgb(9,8,11)" transform="translate(0,0)"></path>
<path d="M 219.608 289.893 L 274.009 290.043 C 274.037 291.722 274.114 293.282 274.199 294.955 C 275.187 315.282 274.473 345.058 274.196 365.95 L 219.556 366.134 L 219.638 294.952 C 219.603 293.266 219.593 291.579 219.608 289.893 z" fill="rgb(220,120,43)" transform="translate(0,0)"></path>
<path d="M 219.608 289.893 L 274.009 290.043 C 274.037 291.722 274.114 293.282 274.199 294.955 L 219.638 294.952 C 219.603 293.266 219.593 291.579 219.608 289.893 z" fill="rgb(9,8,11)" transform="translate(0,0)"></path>
<path d="M 219.696 146.034 L 274.796 146.027 L 274.681 216.964 L 219.666 216.859 C 219.118 194.316 219.34 168.721 219.696 146.034 z" fill="rgb(220,120,43)" transform="translate(0,0)"></path>
<path d="M 160.126 146.033 L 213.995 145.969 C 214.006 169.463 214.155 193.531 213.859 216.98 C 195.955 217.068 178.05 217.061 160.146 216.959 C 160.138 193.468 159.826 169.446 160.126 146.033 z" fill="rgb(220,120,43)" transform="translate(0,0)"></path>
<path d="M 219.746 221.901 C 237.873 221.806 256.412 221.671 274.523 221.858 C 274.507 239.757 275.312 273.217 274.009 290.043 L 219.608 289.893 C 220.508 268.755 219.418 243.621 219.746 221.901 z" fill="rgb(220,120,43)" transform="translate(0,0)"></path>
<path d="M 160.017 221.971 L 213.906 221.972 C 213.864 240.041 212.785 272.799 214.119 289.712 C 198.489 290.481 176.162 289.895 160.022 289.872 L 160.017 221.971 z" fill="rgb(220,120,43)" transform="translate(0,0)"></path>
<path d="M 1709.03 74.9983 L 1952.75 75.0758 C 1952.91 79.113 1953.63 83.2991 1951.68 86.6652 C 1948.6 88.7917 1947.77 89.0002 1944.38 90.2756 C 1938.4 96.5143 1935.65 99.543 1933.25 107.985 C 1932.98 121.351 1934.03 116.678 1925.94 120.827 C 1923.23 123.101 1922.76 124.007 1919.54 125.135 C 1917.47 127.577 1915.96 128.931 1915 132 C 1913.51 167.148 1914.39 204.855 1914.6 240.22 L 1914.84 374.954 C 1920.91 374.65 1931.44 373.028 1935.76 376.528 L 1935.87 379.646 C 1933.39 381.667 1930.9 383.697 1928.51 385.819 C 1926.59 388.617 1923.73 392.393 1922.42 395.377 L 1921.84 398.488 C 1922.06 401.978 1922.56 403.199 1920.14 405.483 C 1905.15 406.978 1860.09 406.334 1842.48 406.033 C 1811.88 405.51 1770.06 407.557 1740.63 405.66 C 1738.37 403.697 1738.97 402.584 1738.34 398.721 L 1737.64 396.067 C 1734.1 390.477 1735.68 388.869 1730.53 385.356 C 1728.06 384.208 1726.18 381.506 1724.19 379.289 L 1722.75 377.962 L 1722.9 375.983 C 1726.72 373.076 1740.8 374.141 1745.93 374.248 C 1744.17 295.598 1745.85 210.449 1746.06 131.295 L 1745.52 128.598 L 1740.88 124.631 L 1735.77 121.42 C 1733.58 120.427 1731.42 119.384 1729.28 118.293 C 1726.72 114.927 1726.97 111.325 1726.57 106.944 C 1723.92 98.7686 1721.75 96.2637 1716.08 90.3089 C 1711.08 87.6589 1711.55 88.8427 1709.03 84.6726 C 1708.83 81.0644 1708.89 78.6197 1709.03 74.9983 z" fill="rgb(24,24,29)" transform="translate(0,0)"></path>
<path d="M 1709.03 74.9983 L 1952.75 75.0758 C 1952.91 79.113 1953.63 83.2991 1951.68 86.6652 C 1948.6 88.7917 1947.77 89.0002 1944.38 90.2756 C 1938.4 96.5143 1935.65 99.543 1933.25 107.985 C 1932.98 121.351 1934.03 116.678 1925.94 120.827 C 1923.23 123.101 1922.76 124.007 1919.54 125.135 C 1917.47 127.577 1915.96 128.931 1915 132 C 1914.89 130.685 1914.73 129.964 1914.48 128.673 C 1881.8 128.35 1849.12 128.206 1816.43 128.241 C 1800.5 128.237 1779.68 127.703 1764.2 129.03 C 1759.81 131.496 1751.96 131.252 1746.66 131.288 L 1746.06 131.295 L 1745.52 128.598 L 1740.88 124.631 L 1735.77 121.42 C 1733.58 120.427 1731.42 119.384 1729.28 118.293 C 1726.72 114.927 1726.97 111.325 1726.57 106.944 C 1723.92 98.7686 1721.75 96.2637 1716.08 90.3089 C 1711.08 87.6589 1711.55 88.8427 1709.03 84.6726 C 1708.83 81.0644 1708.89 78.6197 1709.03 74.9983 z" fill="rgb(24,24,29)" transform="translate(0,0)"></path>
<path d="M 1726.57 106.944 C 1732.14 109.007 1782.32 108.051 1791.15 108.044 L 1933.25 107.985 C 1932.98 121.351 1934.03 116.678 1925.94 120.827 C 1923.23 123.101 1922.76 124.007 1919.54 125.135 C 1917.47 127.577 1915.96 128.931 1915 132 C 1914.89 130.685 1914.73 129.964 1914.48 128.673 C 1881.8 128.35 1849.12 128.206 1816.43 128.241 C 1800.5 128.237 1779.68 127.703 1764.2 129.03 C 1759.81 131.496 1751.96 131.252 1746.66 131.288 L 1746.06 131.295 L 1745.52 128.598 L 1740.88 124.631 L 1735.77 121.42 C 1733.58 120.427 1731.42 119.384 1729.28 118.293 C 1726.72 114.927 1726.97 111.325 1726.57 106.944 z" fill="rgb(85,92,117)" transform="translate(0,0)"></path>
<path d="M 1735.77 121.42 C 1741.22 119.382 1911.05 119.786 1925.94 120.827 C 1923.23 123.101 1922.76 124.007 1919.54 125.135 C 1917.47 127.577 1915.96 128.931 1915 132 C 1914.89 130.685 1914.73 129.964 1914.48 128.673 C 1881.8 128.35 1849.12 128.206 1816.43 128.241 C 1800.5 128.237 1779.68 127.703 1764.2 129.03 C 1759.81 131.496 1751.96 131.252 1746.66 131.288 L 1746.06 131.295 L 1745.52 128.598 L 1740.88 124.631 L 1735.77 121.42 z" fill="rgb(9,8,11)" transform="translate(0,0)"></path>
<path d="M 1740.88 124.631 C 1783.28 126.273 1828.53 124.139 1871.16 124.989 C 1882.08 125.206 1910.34 123.611 1919.54 125.135 C 1917.47 127.577 1915.96 128.931 1915 132 C 1914.89 130.685 1914.73 129.964 1914.48 128.673 C 1881.8 128.35 1849.12 128.206 1816.43 128.241 C 1800.5 128.237 1779.68 127.703 1764.2 129.03 C 1759.81 131.496 1751.96 131.252 1746.66 131.288 L 1746.06 131.295 L 1745.52 128.598 L 1740.88 124.631 z" fill="rgb(89,92,122)" transform="translate(0,0)"></path>
<path d="M 1745.52 128.598 C 1750.35 128.484 1759.26 128.863 1764.2 129.03 C 1759.81 131.496 1751.96 131.252 1746.66 131.288 L 1746.06 131.295 L 1745.52 128.598 z" fill="rgb(9,8,11)" transform="translate(0,0)"></path>
<path d="M 1709.03 74.9983 L 1952.75 75.0758 C 1952.91 79.113 1953.63 83.2991 1951.68 86.6652 C 1948.6 88.7917 1947.77 89.0002 1944.38 90.2756 C 1940.44 88.9936 1728.88 89.0156 1716.08 90.3089 C 1711.08 87.6589 1711.55 88.8427 1709.03 84.6726 C 1708.83 81.0644 1708.89 78.6197 1709.03 74.9983 z" fill="rgb(85,92,117)" transform="translate(0,0)"></path>
<path d="M 1915 132 C 1913.51 167.148 1914.39 204.855 1914.6 240.22 L 1914.84 374.954 L 1895.35 375.516 C 1893.95 349.745 1895.1 316.035 1895.16 289.529 L 1895.19 132.779 C 1900.25 132.829 1910.61 133.352 1915 132 z" fill="rgb(85,92,117)" transform="translate(0,0)"></path>
<path d="M 1746.06 131.295 L 1746.66 131.288 C 1752.34 132.417 1757.44 132.044 1763.23 131.954 L 1763.81 374.768 C 1759.75 374.743 1749.34 374.891 1745.93 374.248 C 1744.17 295.598 1745.85 210.449 1746.06 131.295 z" fill="rgb(85,92,117)" transform="translate(0,0)"></path>
<path d="M 1918.53 385.016 C 1921.85 385.311 1925.22 385.478 1928.51 385.819 C 1926.59 388.617 1923.73 392.393 1922.42 395.377 L 1921.84 398.488 C 1922.06 401.978 1922.56 403.199 1920.14 405.483 C 1905.15 406.978 1860.09 406.334 1842.48 406.033 C 1811.88 405.51 1770.06 407.557 1740.63 405.66 C 1738.37 403.697 1738.97 402.584 1738.34 398.721 L 1737.64 396.067 C 1734.1 390.477 1735.68 388.869 1730.53 385.356 C 1737.15 386.165 1751.67 385.907 1758.66 385.9 L 1808.5 385.782 C 1841.15 385.726 1887.17 387.472 1918.53 385.016 z" fill="rgb(89,92,122)" transform="translate(0,0)"></path>
<path d="M 1738.34 398.721 C 1799.51 399.193 1860.68 399.115 1921.84 398.488 C 1922.06 401.978 1922.56 403.199 1920.14 405.483 C 1905.15 406.978 1860.09 406.334 1842.48 406.033 C 1811.88 405.51 1770.06 407.557 1740.63 405.66 C 1738.37 403.697 1738.97 402.584 1738.34 398.721 z" fill="rgb(85,92,117)" transform="translate(0,0)"></path>
<path d="M 1737.64 396.067 C 1791.29 393.559 1846.36 396.562 1900.15 395.332 C 1907.05 395.175 1915.6 394.988 1922.42 395.377 L 1921.84 398.488 C 1860.68 399.115 1799.51 399.193 1738.34 398.721 L 1737.64 396.067 z" fill="rgb(9,8,11)" transform="translate(0,0)"></path>
<path d="M 1728.61 379.75 C 1770.58 379.266 1812.55 379.259 1854.53 379.727 C 1872.76 379.759 1908.71 378.626 1925.57 379.911 C 1928.55 379.34 1932.59 379.693 1935.87 379.646 C 1933.39 381.667 1930.9 383.697 1928.51 385.819 C 1925.22 385.478 1921.85 385.311 1918.53 385.016 C 1887.17 387.472 1841.15 385.726 1808.5 385.782 L 1758.66 385.9 C 1751.67 385.907 1737.15 386.165 1730.53 385.356 C 1728.06 384.208 1726.18 381.506 1724.19 379.289 L 1728.61 379.75 z" fill="rgb(85,92,117)" transform="translate(0,0)"></path>
<path d="M 1724.19 379.289 L 1728.61 379.75 C 1745.37 386.242 1781.7 384.081 1800.4 384.067 L 1904.14 383.694 C 1908.25 384.039 1916.68 382.265 1918.53 385.016 C 1887.17 387.472 1841.15 385.726 1808.5 385.782 L 1758.66 385.9 C 1751.67 385.907 1737.15 386.165 1730.53 385.356 C 1728.06 384.208 1726.18 381.506 1724.19 379.289 z" fill="rgb(66,69,90)" transform="translate(0,0)"></path>
<path d="M 1925.57 379.911 C 1928.55 379.34 1932.59 379.693 1935.87 379.646 C 1933.39 381.667 1930.9 383.697 1928.51 385.819 C 1925.22 385.478 1921.85 385.311 1918.53 385.016 C 1916.68 382.265 1908.25 384.039 1904.14 383.694 C 1897.15 382.345 1869.79 383.062 1860.82 383.005 L 1860.67 382.797 C 1860.1 382.829 1859.53 382.86 1858.96 382.892 L 1858.79 382.706 C 1861.08 382.361 1865.25 381.352 1866.99 381.142 C 1881.84 379.341 1912.43 383.499 1925.57 379.911 z" fill="url(#Gradient2)" transform="translate(0,0)"></path>
<path d="M 1772.77 294.993 L 1826.64 295.021 C 1826.8 318.652 1826.77 342.285 1826.57 365.916 C 1810.05 366.488 1789.51 366.015 1772.77 365.893 L 1772.77 294.993 z" fill="rgb(220,120,43)" transform="translate(0,0)"></path>
<path d="M 1772.93 145.882 L 1826.66 146.03 C 1826.85 169.611 1826.87 193.192 1826.75 216.772 C 1808.82 216.909 1790.9 216.885 1772.97 216.7 L 1772.93 145.882 z" fill="rgb(220,120,43)" transform="translate(0,0)"></path>
<path d="M 1775.41 221.475 C 1792.24 221.478 1810.14 221.275 1826.93 221.749 C 1826.94 239.07 1827.15 269.862 1826.63 288.733 C 1826.62 289.183 1825.24 289.75 1824.93 289.896 C 1807.68 289.832 1790.22 289.969 1773.01 289.726 C 1773.01 275.073 1772.71 238.675 1773.34 222.279 C 1773.36 221.828 1775.03 221.556 1775.41 221.475 z" fill="rgb(220,120,43)" transform="translate(0,0)"></path>
<path d="M 1832.72 146.066 C 1850.01 145.989 1867.3 146.016 1884.59 146.145 L 1884.34 216.726 C 1871.58 217.719 1846.51 216.951 1832.87 216.799 C 1832.61 193.746 1832.3 169.026 1832.72 146.066 z" fill="rgb(220,120,43)" transform="translate(0,0)"></path>
<path d="M 1832.52 295 L 1884.16 294.999 L 1884.08 366.031 L 1832.48 366.048 C 1832.22 343.501 1831.94 317.463 1832.52 295 z" fill="rgb(220,120,43)" transform="translate(0,0)"></path>
<path d="M 1832.79 221.932 L 1884.26 221.992 L 1884.18 290.025 L 1832.79 289.897 C 1832.58 267.243 1832.59 244.587 1832.79 221.932 z" fill="rgb(220,120,43)" transform="translate(0,0)"></path>
<path d="M 500.069 74.9933 L 746.567 74.979 C 747.076 85.2748 748.754 85.7942 738.859 89.8868 C 732.237 96.2483 730.051 99.4837 726.399 107.917 C 724.97 121.252 725.73 114.93 718.946 121.486 C 717.047 122.93 715.275 124.639 713.143 125.296 L 709.505 129.142 L 707.548 132.194 C 706.303 145.849 706.808 162.088 706.96 175.97 C 707.68 241.971 706.255 308.187 706.996 374.163 C 713 374.155 723.757 373.821 729.222 374.831 L 728.73 378.008 C 726.511 379.338 726.634 379.255 724.077 379.731 C 724.341 384.101 724.985 382.379 723.187 385.485 L 720.163 386.746 C 716.824 389.717 718.097 392.136 715.312 395.807 L 714.879 398.875 C 714.656 403.512 715.428 402.725 713.019 405.536 C 707.74 406.358 697.216 405.863 691.268 405.869 L 649.654 405.94 L 573.267 406.073 C 562.026 406.089 542.635 406.651 532.276 405.512 C 530.282 402.993 530.722 401.611 530.161 397.906 C 529.088 392.732 525.156 388.71 521.43 385.223 L 515.091 378.951 C 514.621 378.129 513.89 375.455 513.626 374.601 C 518.571 373.771 533.405 374.212 539.111 374.247 L 538.996 210.747 C 539.048 185.42 540.39 157.874 539.514 132.95 L 537.066 129.297 L 534.252 125.391 L 529.054 121.451 L 522.71 118.618 C 519.866 115.373 520.032 111.682 519.474 107.193 C 516.689 99.0459 514.035 96.1192 508.334 90.1118 C 506.091 89.1339 503.86 88.1265 501.643 87.0898 C 499.251 83.8559 499.998 79.2421 500.069 74.9933 z" fill="rgb(24,24,29)" transform="translate(0,0)"></path>
<path d="M 500.069 74.9933 L 746.567 74.979 C 747.076 85.2748 748.754 85.7942 738.859 89.8868 C 732.237 96.2483 730.051 99.4837 726.399 107.917 C 724.97 121.252 725.73 114.93 718.946 121.486 C 717.047 122.93 715.275 124.639 713.143 125.296 L 709.505 129.142 C 708.938 128.898 708.371 128.654 707.804 128.41 C 651.896 127.559 595.897 128.537 539.971 128.359 C 539.04 128.356 537.734 129.005 537.066 129.297 L 534.252 125.391 L 529.054 121.451 L 522.71 118.618 C 519.866 115.373 520.032 111.682 519.474 107.193 C 516.689 99.0459 514.035 96.1192 508.334 90.1118 C 506.091 89.1339 503.86 88.1265 501.643 87.0898 C 499.251 83.8559 499.998 79.2421 500.069 74.9933 z" fill="rgb(24,24,29)" transform="translate(0,0)"></path>
<path d="M 519.474 107.193 C 529.738 108.876 569.832 108.078 582.922 108.069 L 726.399 107.917 C 724.97 121.252 725.73 114.93 718.946 121.486 C 717.047 122.93 715.275 124.639 713.143 125.296 L 709.505 129.142 C 708.938 128.898 708.371 128.654 707.804 128.41 C 651.896 127.559 595.897 128.537 539.971 128.359 C 539.04 128.356 537.734 129.005 537.066 129.297 L 534.252 125.391 L 529.054 121.451 L 522.71 118.618 C 519.866 115.373 520.032 111.682 519.474 107.193 z" fill="rgb(85,92,117)" transform="translate(0,0)"></path>
<path d="M 529.054 121.451 C 536.878 119.473 714.648 120.282 718.946 121.486 C 717.047 122.93 715.275 124.639 713.143 125.296 L 709.505 129.142 C 708.938 128.898 708.371 128.654 707.804 128.41 C 651.896 127.559 595.897 128.537 539.971 128.359 C 539.04 128.356 537.734 129.005 537.066 129.297 L 534.252 125.391 L 529.054 121.451 z" fill="rgb(9,8,11)" transform="translate(0,0)"></path>
<path d="M 534.252 125.391 C 570.71 125.607 607.169 125.618 643.627 125.421 C 665.687 125.255 691.219 124.51 713.143 125.296 L 709.505 129.142 C 708.938 128.898 708.371 128.654 707.804 128.41 C 651.896 127.559 595.897 128.537 539.971 128.359 C 539.04 128.356 537.734 129.005 537.066 129.297 L 534.252 125.391 z" fill="rgb(89,92,122)" transform="translate(0,0)"></path>
<path d="M 500.069 74.9933 L 746.567 74.979 C 747.076 85.2748 748.754 85.7942 738.859 89.8868 C 673.318 88.4255 607.193 90.3478 541.598 89.6508 C 530.919 89.5373 518.921 89.5573 508.334 90.1118 C 506.091 89.1339 503.86 88.1265 501.643 87.0898 C 499.251 83.8559 499.998 79.2421 500.069 74.9933 z" fill="rgb(85,92,117)" transform="translate(0,0)"></path>
<path d="M 688.736 132.938 C 695.632 132.925 700.71 132.907 707.548 132.194 C 706.303 145.849 706.808 162.088 706.96 175.97 C 707.68 241.971 706.255 308.187 706.996 374.163 C 713 374.155 723.757 373.821 729.222 374.831 C 717.605 375.551 700.311 374.889 688.166 374.864 L 688.736 132.938 z" fill="rgb(85,92,117)" transform="translate(0,0)"></path>
<path d="M 539.514 132.95 L 554.84 132.892 C 555.103 213.555 554.962 294.219 554.415 374.88 C 542.596 375.004 524.872 375.604 513.626 374.601 C 518.571 373.771 533.405 374.212 539.111 374.247 L 538.996 210.747 C 539.048 185.42 540.39 157.874 539.514 132.95 z" fill="rgb(85,92,117)" transform="translate(0,0)"></path>
<path d="M 521.43 385.223 C 536.441 386.603 561.668 385.883 577.836 385.888 L 676.578 385.877 C 682.817 385.862 716.239 385.21 720.163 386.746 C 716.824 389.717 718.097 392.136 715.312 395.807 L 714.879 398.875 C 714.656 403.512 715.428 402.725 713.019 405.536 C 707.74 406.358 697.216 405.863 691.268 405.869 L 649.654 405.94 L 573.267 406.073 C 562.026 406.089 542.635 406.651 532.276 405.512 C 530.282 402.993 530.722 401.611 530.161 397.906 C 529.088 392.732 525.156 388.71 521.43 385.223 z" fill="rgb(85,92,117)" transform="translate(0,0)"></path>
<path d="M 714.879 398.875 C 714.656 403.512 715.428 402.725 713.019 405.536 C 707.74 406.358 697.216 405.863 691.268 405.869 L 649.654 405.94 L 573.267 406.073 C 562.026 406.089 542.635 406.651 532.276 405.512 C 530.282 402.993 530.722 401.611 530.161 397.906 C 536.028 399.703 579.733 399.044 588.512 399.048 L 714.879 398.875 z" fill="rgb(85,92,117)" transform="translate(0,0)"></path>
<path d="M 530.161 397.906 L 531.416 396.534 C 538.886 395.149 585.953 395.361 595.447 395.309 L 672.292 395.177 C 685.173 395.204 702.738 394.781 715.312 395.807 L 714.879 398.875 L 588.512 399.048 C 579.733 399.044 536.028 399.703 530.161 397.906 z" fill="rgb(9,8,11)" transform="translate(0,0)"></path>
<path d="M 515.091 378.951 C 530.766 380.048 555.217 379.164 571.488 379.157 L 679.473 379.181 C 686.516 379.176 719.278 378.313 724.077 379.731 C 724.341 384.101 724.985 382.379 723.187 385.485 L 720.163 386.746 C 716.239 385.21 682.817 385.862 676.578 385.877 L 577.836 385.888 C 561.668 385.883 536.441 386.603 521.43 385.223 L 515.091 378.951 z" fill="url(#Gradient1)" transform="translate(0,0)"></path>
<path d="M 564.947 289.961 C 583.411 289.966 602.211 289.757 620.64 290.027 C 621.23 292.524 621.242 292.373 620.772 294.922 C 620.105 301.812 620.486 315.514 620.505 322.774 L 620.325 366.132 L 564.635 366.083 C 564.63 349.22 563.528 309.8 564.937 294.935 C 564.993 293.118 565.059 291.762 564.947 289.961 z" fill="rgb(220,120,43)" transform="translate(0,0)"></path>
<path d="M 564.947 289.961 C 583.411 289.966 602.211 289.757 620.64 290.027 C 621.23 292.524 621.242 292.373 620.772 294.922 C 602.16 294.797 583.548 294.802 564.937 294.935 C 564.993 293.118 565.059 291.762 564.947 289.961 z" fill="rgb(9,8,11)" transform="translate(0,0)"></path>
<path d="M 564.326 146.016 L 620.416 146.108 C 620.422 166.276 621.125 197.202 620.021 216.608 C 601.456 216.828 582.888 216.741 564.325 216.348 C 564.09 192.904 564.09 169.459 564.326 146.016 z" fill="rgb(220,120,43)" transform="translate(0,0)"></path>
<path d="M 625.836 294.966 C 643.797 294.979 661.959 294.823 679.899 295.028 L 679.767 366.286 L 625.849 366.302 C 625.537 343.499 625.404 317.738 625.836 294.966 z" fill="rgb(220,120,43)" transform="translate(0,0)"></path>
<path d="M 625.679 146.085 C 643.802 145.989 661.924 145.987 680.047 146.078 L 680.008 216.886 C 662.295 216.932 643.576 217.045 625.888 216.635 C 625.547 194.082 625.238 168.538 625.679 146.085 z" fill="rgb(220,120,43)" transform="translate(0,0)"></path>
<path d="M 564.47 221.934 C 583.037 221.813 601.604 221.824 620.171 221.966 C 620.317 234.858 619.277 279.806 620.64 290.027 C 602.211 289.757 583.411 289.966 564.947 289.961 C 564.179 283.434 564.564 272.166 564.538 265.272 C 564.406 250.826 564.383 236.38 564.47 221.934 z" fill="rgb(220,120,43)" transform="translate(0,0)"></path>
<path d="M 626.011 221.969 L 679.942 222.055 L 679.855 289.956 C 662.141 290.123 643.743 290.01 626.02 289.905 L 626.011 221.969 z" fill="rgb(220,120,43)" transform="translate(0,0)"></path>
<metadata><recraft-signature>{"signed_by": "recraft", "signature_b64": "lJH02OkiSwjnNmn7sHIawVPVk7JqPTPSNvTsyrxz9bRzoVjb/bUZUpBg3RI0genhF73oDJciZ1dppD2uNupEBQ==", "signing_algo": "Ed25519", "generation_timestamp": 1777251240, "identifier": "99cdf0c8-3cd4-40cc-8b21-3b780f7d6596"}</recraft-signature></metadata></svg>