<svg xmlns="http://www.w3.org/2000/svg" width="1024" height="1024" preserveAspectRatio="none" style="display:block" viewBox="0 0 2048 2048"><path fill="#010100" d="M1010.92 185.409c1.6-.098 3.2-.181 4.81-.248 59.14-2.468 113.68 15.796 157.4 56.181a209.7 209.7 0 0 1 60.91 104.882c7.19 29.985 8.24 76.238 10.67 108.328 5.71 70.186 10.85 140.419 15.41 210.69l29.07 412.408c4.58 65.95 11.1 133.95 13.88 199.89 15.59 14.99 16.57 20.21 27.17 37.5 1.45 2.38 39.05 24.74 44.65 28.93 3.46-2.94 4.64-3.71 8.59-5.95 12.84-46 82.46-74.2 83.7-5.66.65 35.97-21.34 39.74-51 38.87 27.36 22.08 50.25 36.85 85.07 44.49 9.9 2.17 19.14 3.11 28.81 5.11-8.75 6.36-21.42 12.82-31.19 17.64 2.95 7 4.72 11.93 7.04 19.18-44.75-15.53-65.3-23.72-94.83-60.64 1.4 4.36 2.99 8.66 4.75 12.89 18.44 43.91 39.87 59.15 81.56 76.31-9.82 4.12-16.99 5.73-27.19 8.34-.44 9.52-.23 15.31 1.26 24.61-37.27-24.95-56.5-45.82-67.75-91.01-2.64 18.27-4.2 26.02-15.39 40.92-12.13 13.67-25.83 24.82-41.6 34.06-131.5 77.03-415.015 77.38-561.412 39.48-47.565-12.31-120.355-35.47-145.982-79.89-3.263-5.66-5.822-11.86-7.055-18.28-2.833-14.76-2.349-46.17 1.744-60.71 9.704-34.49 43.024-53.5 72.192-69.62 8.722-21.78 12.275-24.35 29.502-39.74 4.007-63.88 11.682-133.02 17.354-197.42a38767 38767 0 0 1 33.754-390.236l17.559-215.078c3.452-40.914 5.62-89.421 14.468-129.146 20.097-90.224 101.641-150.057 192.076-157.081"/><path fill="#fdfdfc" d="M1198.4 394.586c12.12-6.736 24.51-9.237 37.13-17.262 1.74 15.759 5.06 50.306 4.41 65.691l.22 2.831c4.47 37.032 6.51 76.762 9.11 114.132 1.86 26.628 5.88 60.608 5.76 86.891l.19 6.275c2.43 11.283 4.17 45.068 5.07 58.202l7.74 119.661.14 1.811c2.73 21.278 2.58 46.122 4.42 67.751.44 5.203 1.06 22.337 2.19 26.556l.35 6.906c4.58 34.231 5.45 76.559 8.49 111.629 1.17 13.51 4.56 56.69 4.01 67.68l.74 7.84c2.04 9.92 3.37 34.73 4.2 45.87 2.56 31.07 4.47 62.19 5.73 93.34 3.14 15.47.46 32.84-11.33 44.1l-5.57 4.58c-22.19 17.92-51.07 28.72-78.47 35.7-2.61.55-5.06 1.25-7.79 1.81-8.97 2.81-16.14 4.46-24.85 6.91-10.52 2.15-21.06 4.18-31.63 6.07-3.81.98-5.62 1.05-9.59 1.37-14 1.74-27.34 3.45-41.42 4.43-3.06.94-5.57.66-8.78.6-13.92 1.84-35.53 2.05-50.13 2.47-2.9.08-4.86.19-7.76-.04l-.71-.32c-3.3.28-4.17.3-7.48.09-29.873-.06-66.601-1.22-96.195-6.09l-6.506-.7a353.4 353.4 0 0 1-50.204-9.18l-7.754-1.49c-17.674-4.45-40.875-10.49-57.207-18.14-2.395-.9-4.581-1.58-6.83-2.76-63.196-30.85-48.14-49.89-43.886-111.63.406-5.88 1.567-25.05 3.541-29.91-.393-3.31-.106-10.99.911-14.14l6.287-76.02c1.156-13.62 2.355-33.7 4.623-46.84-.514-3.15.287-10.36 1.168-13.39 1.341-31.12 4.996-66.482 7.667-97.781a7440 7440 0 0 1 9.885-114.153c.632-6.697-.094-11.611 1.611-18.433 1.912-26.164 4.817-53.085 7.07-79.315 1.275-14.854 2.396-35.177 4.555-49.286.125-6.873-.005-16.732 1.377-23.151a16834 16834 0 0 1 23.845-274.99l1.286.767c12.12 7.364 24.603 11.138 35.315 17.615l5.222 1.931a1285 1285 0 0 0 37.589 10.743c3.113.679 5.349 1.194 8.558 1.529 9.646 2.281 38.791 6.955 48.461 6.643 3.607.683 7.694 1.391 11.321 1.798l14.993 1.384c3.491-.067 9.817-.463 12.944.359 14.933 1.387 37.903.792 53.103.078l6.89-.425c15.02-.675 31.59-2.628 46.47-4.491 6.4-1.04 12.3-2.002 18.75-2.677l8.43-1.872c12.67-1.143 34.55-8.785 48.06-11.573l6.88-2.487c4.13-1.524 7.39-2.91 11.76-3.679 2.82-1.414 2.65-1.472 5.62-1.818"/><path fill="#5c6574" d="M1198.4 394.586c12.12-6.736 24.51-9.237 37.13-17.262 1.74 15.759 5.06 50.306 4.41 65.691l.22 2.831c4.47 37.032 6.51 76.762 9.11 114.132 1.86 26.628 5.88 60.608 5.76 86.891l.19 6.275c2.43 11.283 4.17 45.068 5.07 58.202l7.74 119.661.14 1.811c2.73 21.278 2.58 46.122 4.42 67.751.44 5.203 1.06 22.337 2.19 26.556l.35 6.906c4.58 34.231 5.45 76.559 8.49 111.629 1.17 13.51 4.56 56.69 4.01 67.68l.74 7.84c2.04 9.92 3.37 34.73 4.2 45.87 2.56 31.07 4.47 62.19 5.73 93.34 3.14 15.47.46 32.84-11.33 44.1l-5.57 4.58c-22.19 17.92-51.07 28.72-78.47 35.7-2.61.55-5.06 1.25-7.79 1.81-8.97 2.81-16.14 4.46-24.85 6.91.26-6.73-2.61-32.9-3.41-40.56-4.03-38.87-10.31-78.33-12.94-117.35l-.08-.4c-1.9-7.73-5.99-49.05-7.26-59.7-5.76-48.45-14.51-103.07-15.95-151.844-3.36-9.683-1.91-44.854-1.47-55.63-4.11-94.517-8.66-187.323-7-282.072-.89-10.111-.67-20.307-1.85-30.269l.92-3.731c.89-9.699 2.88-17.158 4.17-26.47l-1.55-.53c4.06-62.286 13.13-112.641-24.97-166.242 6.4-1.04 12.3-2.002 18.75-2.677l8.43-1.872c12.67-1.143 34.55-8.785 48.06-11.573l6.88-2.487c4.13-1.524 7.39-2.91 11.76-3.679 2.82-1.414 2.65-1.472 5.62-1.818"/><path fill="#cb8d4f" d="M1126.08 414.143c25.34 42.777 30.57 79.631 18.1 128.621-5.35 21.027-13.77 41.482-16.03 63.148-8.66 72.376 47.33 106.785 52.89 177.978 5.76 73.717-44.42 102.928-47.14 168.998-2.3 56.002 67.37 120.572 41.22 181.262-15.43 35.79-19.33 56.18-5.98 94.95 1.74 5.15 10.42 16.44 8.52 21.4-14.09 1.07-19.83-46.61-23.72-54.92l-.08-.4c-1.9-7.73-5.99-49.05-7.26-59.7-5.76-48.45-14.51-103.07-15.95-151.844-3.36-9.683-1.91-44.854-1.47-55.63-4.11-94.517-8.66-187.323-7-282.072-.89-10.111-.67-20.307-1.85-30.269l.92-3.731c.89-9.699 2.88-17.158 4.17-26.47l-1.55-.53c4.06-62.286 13.13-112.641-24.97-166.242 6.4-1.04 12.3-2.002 18.75-2.677z"/><path fill="#5c6574" d="M1122.18 645.934c2.49 4.721 5.3 14.227 6.65 19.505 5.78 22.648 19.87 40.692 30.28 61.146 17.58 34.542 21.37 74.284 9.42 111.28-9.84 31.96-29.53 55.34-38.09 87.431-.42 1.568-.35 1.192-1.26 2.71-4.11-94.517-8.66-187.323-7-282.072m8.47 337.702.87-.753c4.27 11.692 6.48 18.997 12.14 30.787 15.89 33.09 37.33 70.59 29.18 108.6-2.8 13.05-10.87 24.9-14.81 38.66-3.05 10.63-2.11 26.42-4.17 34.25-1.9-7.73-5.99-49.05-7.26-59.7-5.76-48.45-14.51-103.07-15.95-151.844m-31.75-564.944c6.4-1.04 12.3-2.002 18.75-2.677 4.72 6.996 11.26 16.325 14.96 23.646 13.91 27.562 13.92 62.2 8.06 91.933-3.33 16.91-10.05 37.017-15.25 53.87l-1.55-.53c4.06-62.286 13.13-112.641-24.97-166.242m176.23 515.339c4.58 34.231 5.45 76.559 8.49 111.629 1.17 13.51 4.56 56.69 4.01 67.68-.51-1.08-.35-.96-1.09-1.78-19.09-21.34-33.96-47.71-39.94-76-8.39-39.689 7.94-69.544 28.53-101.529m-34.97-488.185c4.47 37.032 6.51 76.762 9.11 114.132 1.86 26.628 5.88 60.608 5.76 86.891-6.05-6.212-12.06-17.592-16.27-25.098-22.93-41.004-23.26-86.542-11.11-130.942 4.04-14.763 12.58-29.888 12.51-44.983"/><path fill="#cb8d4f" d="M1181.02 400.083c13.67 34.573 21.42 64.642 10.25 101.434-10.62 32.762-21.05 57.415-11.27 92.461 8.71 31.22 26.94 53.649 42.92 81.018 7.07 12.101 24.96 58.917 19.3 71.407-2.68-1.824-5.38-9.675-5.53-12.826-2.34-50.821-59.58-101.475-64.35-147.316-8.53-82.019 42.61-94.495 1.8-183.691zm13.27 659.687c-1.28-1.82-.75-.85-.92-3.45l1.63-1.7c1.63-.05 3.61-.12 4.5 1.84 17.5 38.43 55.59 86.44 60.4 128.43 4.54 39.58 7.86 49.83 38.4 75.5.13 3.12.4 4.44-.64 7.44l-1.71-.37c-26.25-23.39-37.99-36.34-40.73-72.45-1.1-14.13-3.72-27.05-9.7-39.97-15.17-32.75-34.64-63.17-51.23-95.27m73.88-226.952c.07 1.974.35 5.876-.58 7.51-13.63 23.817-30.16 45.906-43.09 70.166-8.47 15.903-14.33 30.933-18.01 48.608-4.23 20.292-3.75 40.455-1.25 60.908.65 5.5 6.26 22.53 2.36 26.21l-1.62-1.23c-5.35-10.96-8.15-36.57-8.5-48.579-1.52-52.314 19.82-91.595 48.7-133.018 5.81-8.347 15.45-25.651 21.85-32.386zm20.2 288.362c-17.72-12.71-38.16-51.17-44.55-72.43-9.89-32.95-5.28-62.769 10.69-93.04 2.91-5.521 14.85-26.901 20.27-28.585l.35 6.906c-20.59 31.985-36.92 61.84-28.53 101.529 5.98 28.29 20.85 54.66 39.94 76 .74.82.58.7 1.09 1.78z"/><path fill="#cb8d4f" d="m1239.94 443.015.22 2.831c.07 15.095-8.47 30.22-12.51 44.983-12.15 44.4-11.82 89.938 11.11 130.942 4.21 7.506 10.22 18.886 16.27 25.098l.19 6.275c-.32-.178-2.21-1.161-2.58-1.566-46.96-51.19-46.71-123.751-22.63-185.524 2.99-7.68 5.37-16.449 9.93-23.039m41.46 866.055c-51.27-16.57-86.16-84.24-78.29-135.28 1.36-8.88 3-24.47 7.12-32.26l2.83-.4c3.75 3.4.37 9.73-1.02 15.25-6.1 25.05-4.92 51.32 3.38 75.73 10.4 29.59 36.53 55.99 64.42 69.04l7.13 3.34z"/><path fill="#2b2d34" d="M1195.14 1346.58c3.94-24.11 4.07-40.95-1.41-65.06l-1.42-6.06c-.35-1.52-5.04-15.18 1.18-13.47 1.49.41 1.89 3.05 2.37 4.49l.91 3.53c1.47 6.3 3.54 20.68 5.17 25.49 3.52 10.38-1.23 43.36.99 49.27-2.61.55-5.06 1.25-7.79 1.81m-2.36-950.176c2.82-1.414 2.65-1.472 5.62-1.818 6.14 11.774 10.07 26.078 16.61 37.794.42.747-3.57 2.68-3.99 1.731-5.05-11.352-13.98-26.319-18.24-37.707"/><path fill="#cb8d4f" d="M1194.26 680.567c9.54 1.876 16.57 31.11 19.48 40.311 15.95 50.511 17.36 109.255-4 158.455-14.46 33.316-39.28 59.712-38.2 99.111.12 6.184.02 23.626-1.71 29.046-1.11-.97-2.13-1.94-2.87-3.23-3.42-5.929-2.05-15.558-1.74-22.176 2.65-55.464 24.86-67.2 41.89-112.766 8.62-23.045 12.58-46.411 12.77-70.98.22-28.821-6.08-57.84-14.94-85.185-2.29-7.095-11.89-26.448-10.68-32.586"/><path fill="#fdfdfc" d="M1052.43 423.183c15.02-.675 31.59-2.628 46.47-4.491 38.1 53.601 29.03 103.956 24.97 166.242l1.55.53c-1.29 9.312-3.28 16.771-4.17 26.47l-.92 3.731c1.18 9.962.96 20.158 1.85 30.269-1.66 94.749 2.89 187.555 7 282.072-.44 10.776-1.89 45.947 1.47 55.63 1.44 48.774 10.19 103.394 15.95 151.844 1.27 10.65 5.36 51.97 7.26 59.7l.08.4c2.63 39.02 8.91 78.48 12.94 117.35.8 7.66 3.67 33.83 3.41 40.56-10.52 2.15-21.06 4.18-31.63 6.07-3.81.98-5.62 1.05-9.59 1.37-14 1.74-27.34 3.45-41.42 4.43-3.06.94-5.57.66-8.78.6-13.92 1.84-35.53 2.05-50.13 2.47-2.9.08-4.86.19-7.76-.04l-.71-.32c-3.3.28-4.17.3-7.48.09-29.873-.06-66.601-1.22-96.195-6.09l-6.506-.7c-.957-4.08-3.277-9.34-4.614-13.53-26.63-83.61 36.18-150.55 70.448-219.14a490 490 0 0 0 42.917-121.67 466.9 466.9 0 0 0 6.53-143.476c-7.37-64.828-19.36-125.205.25-190.402 9.8-32.582 21.79-64.495 29.3-97.745 9.77-43.244 15.04-113.377-9.38-151.799z"/><path fill="#fdfdfc" d="M1120.33 615.665c1.18 9.962.96 20.158 1.85 30.269-1.66 94.749 2.89 187.555 7 282.072-.44 10.776-1.89 45.947 1.47 55.63 1.44 48.774 10.19 103.394 15.95 151.844 1.27 10.65 5.36 51.97 7.26 59.7l.08.4c2.63 39.02 8.91 78.48 12.94 117.35.8 7.66 3.67 33.83 3.41 40.56-10.52 2.15-21.06 4.18-31.63 6.07-3.81.98-5.62 1.05-9.59 1.37-14 1.74-27.34 3.45-41.42 4.43-.47-.47-1.2-.79-1.42-1.42-.42-1.22 3.19-19.92 3.45-22.96.78-9.08.84-19.1-.52-28.12-6.35-42.06-35.77-58.09-37.13-107.84-.75-27.73 8.07-55.85 18.15-81.45 3.09-7.84 8.06-16.69 9.97-24.79.55-2.35-.02-5.24-.3-7.6-.17-1.4 20.34-44.69 22.37-50.36a178.9 178.9 0 0 0 10.8-54.707c2.06-56.928-28.45-100.441-38.97-154.713-14.57-75.132 20.33-147.032 46.28-215.735"/><path fill="#585e6e" d="M1129.07 1360.93c24.84-57.65-19.63-87.46-22.03-139.41-.6-13.02 7.51-55.08 16.77-64.31 3.31-.91 1.85-1.15 4.56.18.5 3.56-10.13 28.22-11.75 34.48a116.5 116.5 0 0 0-3.91 32.71c.57 17.2 5.64 29.13 13.71 43.92 16.81 30.77 17.75 55.23 11.05 89.49l1.19 1.57c-3.81.98-5.62 1.05-9.59 1.37"/><path fill="#fdfdfc" d="M1072.82 1100.53c-5.38 17.51-13.79 34.35-19.09 52.92-13.64 47.88-9.78 84.55 17.58 126.28 15.18 23.14 15.05 60.72 7.56 86.23-13.92 1.84-35.53 2.05-50.13 2.47-2.9.08-4.86.19-7.76-.04l-.71-.32c-18.06-25.53-31.184-43.79-34.748-76.25-9.277-84.53 41.288-132.3 87.298-191.29"/><path fill="#585e6e" d="m1121.25 611.934-.92 3.731c-25.95 68.703-60.85 140.603-46.28 215.735 10.52 54.272 41.03 97.785 38.97 154.713a178.9 178.9 0 0 1-10.8 54.707c-2.03 5.67-22.54 48.96-22.37 50.36.28 2.36.85 5.25.3 7.6-1.91 8.1-6.88 16.95-9.97 24.79-10.08 25.6-18.9 53.72-18.15 81.45 1.36 49.75 30.78 65.78 37.13 107.84 1.36 9.02 1.3 19.04.52 28.12-.26 3.04-3.87 21.74-3.45 22.96.22.63.95.95 1.42 1.42-3.06.94-5.57.66-8.78.6 7.49-25.51 7.62-63.09-7.56-86.23-27.36-41.73-31.22-78.4-17.58-126.28 5.3-18.57 13.71-35.41 19.09-52.92-46.01 58.99-96.575 106.76-87.298 191.29 3.564 32.46 16.688 50.72 34.748 76.25-3.3.28-4.17.3-7.48.09-.26-1.37-.03-1.03-.84-2.08-11.93-15.55-20.88-30.69-26.854-49.42-18.013-56.48 2.655-117.54 37.644-162.89 24.41-31.65 41.09-46.18 60.06-83.24 25.51-49.82 32.68-93.52 14.78-147.648-6.52-19.709-14.71-40.739-21.42-60.225-23.46-68.144-8.3-127.996 16.95-192.553 5.52-14.089 13.93-40.28 20.56-53.222 1.69-.552 2.32-.724 2.72-2.727.81-4.062 1.23-1.46 4.86-2.221"/><path fill="#585e6e" d="m1045.54 423.608 6.89-.425c27.91 61.29 17 129.277-2.14 191.446-12.29 39.947-27.23 76.762-28.56 119.18-2.99 46.261 3.42 78.665 8.72 123.953a465.4 465.4 0 0 1-24.88 217.248 577.6 577.6 0 0 1-36.47 78.5c-38.745 67.94-85.415 125.39-52.505 208.56l-6.506-.7c-.957-4.08-3.277-9.34-4.614-13.53-26.63-83.61 36.18-150.55 70.448-219.14a490 490 0 0 0 42.917-121.67 466.9 466.9 0 0 0 6.53-143.476c-7.37-64.828-19.36-125.205.25-190.402 9.8-32.582 21.79-64.495 29.3-97.745 9.77-43.244 15.04-113.377-9.38-151.799"/><path fill="#5c6574" d="m1123.87 584.934 1.55.53c-1.29 9.312-3.28 16.771-4.17 26.47-3.63.761-4.05-1.841-4.86 2.221-.4 2.003-1.03 2.175-2.72 2.727 3.63-12.368 7.44-18.379 10.2-31.948"/><path fill="#fdfdfc" d="M778.29 825.936c43.846 65.504 25.197 149.59-15.368 211.584l-1.67.72-.514-.37c1.341-31.12 4.996-66.482 7.667-97.781a7440 7440 0 0 1 9.885-114.153"/><path fill="#585e6e" d="M852.131 1350.7c.118-.33.235-.67.353-1-8.322-34.51-7.181-59.5 3.098-94.12 9.742-32.81 28.71-63.68 42.668-94.99 42.085-90.57 64.799-177.423 45.351-277.111-2.924-14.99-8.506-34.551-13.235-48.872C916.231 791.8 910.1 755.691 915.794 710.2c1.156-9.234 1.022-22.654 7.824-29.984l1.529-.13c1.367 4.718-2.628 22.117-3.274 28.743-2.541 21.839-2.361 41.861.043 63.804 3.623 33.077 16.59 62.782 24.339 94.661 20.502 84.342 8.466 175.136-25.111 254.536-8.97 21.21-17.658 41.56-27.579 62.29-27.494 54.02-54.459 105.92-33.68 168.07z"/><path fill="#585e6e" d="M896.16 411.817c3.113.679 5.349 1.194 8.558 1.529-6.449 2.762-12.082 21.226-14.403 27.594-16.538 45.363-19.923 102.042-19.539 150.105.416 52.097 29.571 315.856 14.819 338.856l-1.402-.045c-3.046-7.357-.898-51.41-.93-61.635a918 918 0 0 0-1.292-42.649c-6.334-130.239-42.669-291.213 14.189-413.755m83.333 11.354c3.491-.067 9.817-.463 12.944.359-1.592.261-3.152.644-4.73.994-.03 2.752 2.542 10.603 3.562 13.512 15.471 44.144 13.931 86.357 2.395 131.565-12.289 48.164-34.017 89.705-35.592 140.89a301.5 301.5 0 0 0 3.499 53.736c1.661 10.843 15.902 69.434 11.551 72.872l-1.971-.655c-4.943-9.411-10.759-43.502-12.954-55.31-6.436-34.622-8.28-67.195-2.597-102.142 4.338-26.671 12.373-46.14 20.526-71.246 23.211-71.478 30.284-112.927 3.367-184.575M778.29 825.936c.632-6.697-.094-11.611 1.611-18.433-.08 1.434-.392 7.066.126 8.139 6.255 12.959 14.397 24.942 19.149 38.661 23.999 64.095 2.955 145.628-39.606 196.957-.514-3.15.287-10.36 1.168-13.39l.514.37 1.67-.72c40.565-61.994 59.214-146.08 15.368-211.584m75.059-426.793 5.222 1.931c-18.498 47.845-3.844 81.766-12.716 129.53-2.126 11.443-12.142 44.219-19.656 51.945l-1.464-.156c-2.451-5.922 3.645-15.528 5.898-21.483a205.3 205.3 0 0 0 9.868-34.994c5.263-29.108 1.563-47.486 1.579-76.093.009-16.953 5.548-34.834 11.269-50.68m99.83 20.846c3.607.683 7.694 1.391 11.321 1.798-31.206 29.722-43.952 83.187-43.622 124.789.061 7.656 3.978 37.05 1.005 42.354l-1.636-.047c-3.357-4.04-3.688-9.48-4.229-14.542-5.046-47.197 2.892-93.221 26.813-134.588 3.518-6.084 8.936-11.935 11.802-18.181zM748.66 1174.12l1.805.28c4.984-6.7 14.77-26.97 19.597-35.91a6833 6833 0 0 0 44.212-82.86c2.892-5.63 8.929-24.29 13.311-25.7l1.681 1.09c1.55 12.52-39.615 82.29-47.533 98.09-5.705 11.38-24.11 46.66-31.891 56.56-.684.87-1.382 1.74-2.093 2.59-.393-3.31-.106-10.99.911-14.14m44.243-518.369c.035 1.643-.307 9.787.46 10.76 3.023-.111 33.79-59.758 35.595-67.065.821-3.321 3.607-4.187 6.099-1.906 1.948 1.559-4.445 13.311-5.301 15.456-9.668 24.203-23.495 44.67-38.23 65.906.125-6.873-.005-16.732 1.377-23.151m-4.809 674.049c.226-5.53-.011-10.94.306-16.52.462-9.52 1.507-18.92 3.353-28.29.435-1.75 1.605-11.02 3.488-11.67 7.272-2.52 3.163 7.11 2.658 10.67-2.069 14.64-5.825 34.09-2.975 48.57-2.395-.9-4.581-1.58-6.83-2.76m11.481-632.458c.473.276 2.835 1.942 2.828 2.364-.525 29.793 8.825 49.025 18.615 76.617 21.754 61.318 39.411 128.54 20.855 193.136-2.83 9.852-4.96 19.874-10.67 28.629-2.403-2.121-3.468-2.879-2.792-5.981 1.712-7.862 5.277-15.252 7.455-23.031a217 217 0 0 0 7.949-72.38c-2.188-42.284-15.932-80.918-29.436-120.576-4.97-14.595-25.882-65.846-14.804-78.778m64.19 380.078c1.016.36 3.149 1.44 4.08 1.88 1.833 6.38-16.745 52.29-20.192 60.47-15.054 35.68-29.222 70.05-37.482 108.07-2.433-.78-1.97-.61-4.177-1.82-4.573-12.32 36.954-109.83 43.817-127.26 3.303-8.39 10.903-34.41 13.954-41.34m17.116-103.218c.731.121 3.846.483 3.978 1.028 1.543 8.302.025 20.612-.746 29.27-1.345 15.11-4.112 31.75-8.038 46.37-6.395-2-5.746-3.12-3.25-11.38 6.412-21.22 4.666-44.552 8.056-65.288m35.86-362.955c.776.237 4.482 1.136 4.693 2.002 2.166 8.898.767 25.011.456 33.898-.427-.014-5.314.117-5.37-.822-.584-9.808-1.066-25.651.221-35.078"/><path fill="#fdfdfc" d="M1010.58 189.232c15.56-.306 29.87-1.958 45.41 1.927 2.27.57 4.66 1.125 7 1.33 3.07-.128 7.32-.185 10.06 1.314 3.55.602 7.1 1.247 10.63 1.935 12.03 4.247 23.06 7.463 34.5 13.323 2.53.932 10.52 3.94 12.1 5.951l.76.472c12.86 7.859 23.62 13.074 34.14 24.181 2.13 1.762 3.76 1.792 5.3 3.354 11.3 11.101 23.97 25.505 32.36 39.043l3.64 5.9c6.92 13.107 12.64 23.866 17.89 37.835l2.17 7.525c3.92 11.22 7.78 28.385 8.87 40.481-72.85 37.301-169.92 51.443-251.061 45.732-9.67-.681-36.098-3.048-44.767-5.534-37.577.113-90.458-18.853-122.831-37.627.361-3.707 1.016-7.501 1.576-11.195 1.797-10.323 3.357-18.909 5.928-29.141l1.852-6.965c5.541-17.038 10.219-27.018 19.645-42.186l4.414-6.141c9.935-15.428 17.86-24.27 31.35-36.787 2.168-2.111 4.984-3.827 7.528-5.564 7.361-9.977 25.898-19.429 36.832-25.078 2.888-3.141 11.726-7.152 16.218-8.022 10.905-4.785 23.077-7.851 34.63-10.714 7.85-4.077 14.912-3.53 22.929-3.483 5.047-1.646 5.647-2.242 10.927-1.866"/><path fill="#46423f" d="M1086.61 291.776c.45 3.505-.16 4.25 3.06 4.818-1.08.478-1.49.564-2.63.875-4.22.448-5.59.56-9.65 1.59-.86-3.189-1.6-3.067.23-5.83l1.42-.857c2.62-.267 4.93-.468 7.57-.596"/><path fill="#fdfdfc" d="M1010.58 189.232c15.56-.306 29.87-1.958 45.41 1.927 2.27.57 4.66 1.125 7 1.33 3.68 2.415 11.83 6.611 12.97 10.986 3.28 12.61-11.36 14.012-15.48 17.267q-2.67.925-5.34 1.822c1.6 2.27 1.64 2.663 3.99 3.922l-.77.866c1.52 3.394 10.89 17.481 13.77 22.664.78 1.592 1.19 2.28 2.13 3.791l1.02.388c2.38 1.71 3.17 1.628 5.2 3.804l-.24.505c-1.9.41-2.9.591-4.74 1.255 2.6 13.566 4.02 18.186 3.54 32.613l-1.42.857c-1.83 2.763-1.09 2.641-.23 5.83 4.06-1.03 5.43-1.142 9.65-1.59-.6 12.743-3.59 27.442-8.77 39.094l-1.64.885-1.83.145c-4.83.418-9.08.563-13.94.645-1.14.208-2.2.393-3.33.647-1.39 2.029-2.47 3.402-4.03 5.302-.56.256-1.13.513-1.69.769-34.09.464-65.531.004-99.132-6.824-40.891-8.31-81.925-14.999-106.926-51.245l4.414-6.141c9.935-15.428 17.86-24.27 31.35-36.787 2.168-2.111 4.984-3.827 7.528-5.564 7.361-9.977 25.898-19.429 36.832-25.078 2.888-3.141 11.726-7.152 16.218-8.022 10.905-4.785 23.077-7.851 34.63-10.714 7.85-4.077 14.912-3.53 22.929-3.483 5.047-1.646 5.647-2.242 10.927-1.866"/><path fill="#fdfdfc" d="M1010.58 189.232c15.56-.306 29.87-1.958 45.41 1.927 2.27.57 4.66 1.125 7 1.33 3.68 2.415 11.83 6.611 12.97 10.986 3.28 12.61-11.36 14.012-15.48 17.267q-2.67.925-5.34 1.822c1.6 2.27 1.64 2.663 3.99 3.922l-.77.866c1.52 3.394 10.89 17.481 13.77 22.664.78 1.592 1.19 2.28 2.13 3.791l1.02.388c2.38 1.71 3.17 1.628 5.2 3.804l-.24.505c-1.9.41-2.9.591-4.74 1.255-36.83 9.511-115.264 10.061-145.282-22.823-6.064-6.643-5.515-15.18-4.342-23.619 2.888-3.141 11.726-7.152 16.218-8.022 10.905-4.785 23.077-7.851 34.63-10.714 7.85-4.077 14.912-3.53 22.929-3.483 5.047-1.646 5.647-2.242 10.927-1.866"/><path fill="#fdfdfc" d="M1010.58 189.232c15.56-.306 29.87-1.958 45.41 1.927 2.27.57 4.66 1.125 7 1.33 3.68 2.415 11.83 6.611 12.97 10.986 3.28 12.61-11.36 14.012-15.48 17.267q-2.67.925-5.34 1.822c1.6 2.27 1.64 2.663 3.99 3.922l-.77.866c-25.57 5.347-72.296 7.455-89.262-16.435 2.296-6.313 2.971-10.428 8.093-14.957.195-.172-.682-1.865-.467-1.379 7.85-4.077 14.912-3.53 22.929-3.483 5.047-1.646 5.647-2.242 10.927-1.866"/><path fill="#585e6e" d="M1010.58 189.232c15.56-.306 29.87-1.958 45.41 1.927 2.27.57 4.66 1.125 7 1.33 3.68 2.415 11.83 6.611 12.97 10.986 3.28 12.61-11.36 14.012-15.48 17.267-15.76-13.023-29.25-27.782-49.9-31.51"/><path fill="#5c6574" d="M976.724 194.581c7.85-4.077 14.912-3.53 22.929-3.483l.188.407c-6.451 1.541-20.809 7.463-23.573 13.647-5.098 11.405 23.007 16.7 29.722 18.045 16.44 3.292 31.39 1.935 47.69-.775l1.46.142c1.6 2.27 1.64 2.663 3.99 3.922l-.77.866c-25.57 5.347-72.296 7.455-89.262-16.435 2.296-6.313 2.971-10.428 8.093-14.957.195-.172-.682-1.865-.467-1.379"/><path fill="#cd8849" d="M999.653 191.098c5.047-1.646 5.647-2.242 10.927-1.866 20.65 3.728 34.14 18.487 49.9 31.51q-2.67.925-5.34 1.822l-1.46-.142c-16.03-17.375-29.7-28.51-53.839-30.917z"/><path fill="#5c6574" d="M925.876 213.317c2.888-3.141 11.726-7.152 16.218-8.022-5.18 5.727-10.664 10.978-10.306 19.292.489 11.345 13.217 18.516 22.493 22.236 29.896 11.987 62.869 14.282 94.679 11.32 7.12-.679 18.61-2.023 25.3-4.336l1.02.388c2.38 1.71 3.17 1.628 5.2 3.804l-.24.505c-1.9.41-2.9.591-4.74 1.255-36.83 9.511-115.264 10.061-145.282-22.823-6.064-6.643-5.515-15.18-4.342-23.619"/><path fill="#fdfdfc" d="M925.876 213.317c-1.173 8.439-1.722 16.976 4.342 23.619 30.018 32.884 108.452 32.334 145.282 22.823 2.6 13.566 4.02 18.186 3.54 32.613l-1.42.857c-26.54 4.315-52.36 6.51-79.256 3.359-29.438-3.45-115.455-16.436-109.32-58.193 7.361-9.977 25.898-19.429 36.832-25.078"/><path fill="#5c6574" d="m845.752 286.887 4.414-6.141c28.525 54.821 151.824 59.261 207.364 58.139-1.39 2.029-2.47 3.402-4.03 5.302-.56.256-1.13.513-1.69.769-34.09.464-65.531.004-99.132-6.824-40.891-8.31-81.925-14.999-106.926-51.245"/><path fill="#585e6e" d="M881.516 243.959c2.168-2.111 4.984-3.827 7.528-5.564-6.135 41.757 79.882 54.743 109.32 58.193 26.896 3.151 52.716.956 79.256-3.359-1.83 2.763-1.09 2.641-.23 5.83l-.54.437c-48.23 9.663-130.096 2.626-172.301-23.216-14.103-8.635-19.491-16.732-23.033-32.321"/><path fill="#cb8d4f" d="M1077.39 299.059c4.06-1.03 5.43-1.142 9.65-1.59-.6 12.743-3.59 27.442-8.77 39.094l-1.64.885-1.83.145c-4.83.418-9.08.563-13.94.645a118.9 118.9 0 0 0 14.83-30.236c.8-2.536 2.36-6.218 1.16-8.506z"/><path fill="#5c6574" d="M1062.99 192.489c3.07-.128 7.32-.185 10.06 1.314 3.55.602 7.1 1.247 10.63 1.935 12.03 4.247 23.06 7.463 34.5 13.323 2.53.932 10.52 3.94 12.1 5.951l.76.472c12.86 7.859 23.62 13.074 34.14 24.181 2.13 1.762 3.76 1.792 5.3 3.354 11.3 11.101 23.97 25.505 32.36 39.043l3.64 5.9c6.92 13.107 12.64 23.866 17.89 37.835-35.1 39.935-108.52 49.373-159.49 52.755-4.83.321-21.31 1.463-25.26 1.02 14.5-12.326 23.86-20.197 34.69-36.632.63-.166 1.26-.331 1.88-.497-1.19-1.882-.33-2.906.44-4.995l1.64-.885c5.18-11.652 8.17-26.351 8.77-39.094 1.14-.311 1.55-.397 2.63-.875-3.22-.568-2.61-1.313-3.06-4.818-2.64.128-4.95.329-7.57.596.48-14.427-.94-19.047-3.54-32.613 1.84-.664 2.84-.845 4.74-1.255l.24-.505c-2.03-2.176-2.82-2.094-5.2-3.804l-1.02-.388c-.94-1.511-1.35-2.199-2.13-3.791-2.88-5.183-12.25-19.27-13.77-22.664l.77-.866c-2.35-1.259-2.39-1.652-3.99-3.922q2.67-.897 5.34-1.822c4.12-3.255 18.76-4.657 15.48-17.267-1.14-4.375-9.29-8.571-12.97-10.986"/><path fill="#5c6574" d="M1062.99 192.489c3.07-.128 7.32-.185 10.06 1.314 3.55.602 7.1 1.247 10.63 1.935 12.03 4.247 23.06 7.463 34.5 13.323 2.53.932 10.52 3.94 12.1 5.951l.76.472c12.86 7.859 23.62 13.074 34.14 24.181.49 35.428-52.12 45.386-78.57 52.111-2.64.128-4.95.329-7.57.596.48-14.427-.94-19.047-3.54-32.613 1.84-.664 2.84-.845 4.74-1.255l.24-.505c-2.03-2.176-2.82-2.094-5.2-3.804l-1.02-.388c-.94-1.511-1.35-2.199-2.13-3.791-2.88-5.183-12.25-19.27-13.77-22.664l.77-.866c-2.35-1.259-2.39-1.652-3.99-3.922q2.67-.897 5.34-1.822c4.12-3.255 18.76-4.657 15.48-17.267-1.14-4.375-9.29-8.571-12.97-10.986"/><path fill="#5c6574" d="M1062.99 192.489c3.07-.128 7.32-.185 10.06 1.314 3.55.602 7.1 1.247 10.63 1.935 12.03 4.247 23.06 7.463 34.5 13.323 2.53.932 10.52 3.94 12.1 5.951-.78 12.445-1.04 16.461-11.38 25.458-10.49 9.137-24.96 14.579-38.42 17.529-2.03-2.176-2.82-2.094-5.2-3.804l-1.02-.388c-.94-1.511-1.35-2.199-2.13-3.791-2.88-5.183-12.25-19.27-13.77-22.664l.77-.866c-2.35-1.259-2.39-1.652-3.99-3.922q2.67-.897 5.34-1.822c4.12-3.255 18.76-4.657 15.48-17.267-1.14-4.375-9.29-8.571-12.97-10.986"/><path fill="#2b2d34" d="M1118.18 209.061c2.53.932 10.52 3.94 12.1 5.951-.78 12.445-1.04 16.461-11.38 25.458-10.49 9.137-24.96 14.579-38.42 17.529-2.03-2.176-2.82-2.094-5.2-3.804l3.32-.512c7.19-4.26 18.83-5.817 26.86-10.762 17.8-10.95 23.04-14.953 12.72-33.86m-55.19-16.572c3.07-.128 7.32-.185 10.06 1.314 3.55.602 7.1 1.247 10.63 1.935-1.6.887-3.09 1.768-4.67 2.696l.73 1.177c3.01 4.744 2.87 7.544 1.51 12.977-2.34 9.343-11.19 9.275-17.51 12.848-1.52.308-3.1.699-4.61 1.05-2.35-1.259-2.39-1.652-3.99-3.922q2.67-.897 5.34-1.822c4.12-3.255 18.76-4.657 15.48-17.267-1.14-4.375-9.29-8.571-12.97-10.986"/><path fill="#585e6e" d="M1073.05 193.803c3.55.602 7.1 1.247 10.63 1.935-1.6.887-3.09 1.768-4.67 2.696l-1.52-.82c-2.8-1.477-3.39-1.32-4.44-3.811"/><path fill="#cd8849" d="M1059.13 226.486c1.51-.351 3.09-.742 4.61-1.05 2.25 4.656 8.34 14.004 9.66 17.448-.53 2.51-.9 4.609-1.27 7.132-2.88-5.183-12.25-19.27-13.77-22.664z"/><path fill="#cd8849" d="m1073.4 242.884.42.843c2.25 4.438 3.1 5.184 4.78 9.956l-3.32.512-1.02-.388c-.94-1.511-1.35-2.199-2.13-3.791.37-2.523.74-4.622 1.27-7.132"/><path fill="#cb8d4f" d="M1075.5 259.759c1.84-.664 2.84-.845 4.74-1.255 3.22 7.253 6.18 25.359 6.37 33.272-2.64.128-4.95.329-7.57.596.48-14.427-.94-19.047-3.54-32.613"/><path fill="#5c6574" d="M1165.18 239.665c2.13 1.762 3.76 1.792 5.3 3.354 11.3 11.101 23.97 25.505 32.36 39.043-19.87 36.659-85.52 51.143-124.57 54.501 5.18-11.652 8.17-26.351 8.77-39.094 1.14-.311 1.55-.397 2.63-.875-3.22-.568-2.61-1.313-3.06-4.818 26.45-6.725 79.06-16.683 78.57-52.111"/><path fill="#2b2d34" d="M1165.18 239.665c2.13 1.762 3.76 1.792 5.3 3.354-6.57 36.92-49.54 46.313-80.81 53.575-3.22-.568-2.61-1.313-3.06-4.818 26.45-6.725 79.06-16.683 78.57-52.111m37.66 42.397 3.64 5.9c-23.97 33.969-68.16 44.405-107.5 51.195a538 538 0 0 1-22.79 3.286c-1.19-1.882-.33-2.906.44-4.995l1.64-.885c39.05-3.358 104.7-17.842 124.57-54.501"/><path fill="#5c6574" d="M1039.62 379.572c3.95.443 20.43-.699 25.26-1.02 50.97-3.382 124.39-12.82 159.49-52.755l2.17 7.525c3.92 11.22 7.78 28.385 8.87 40.481-72.85 37.301-169.92 51.443-251.061 45.732-9.67-.681-36.098-3.048-44.767-5.534 27.768-5.809 54.531-5.836 79.858-21.978 3.17-2.022 8.23-3.355 10.48-6.398l-1.65-.977c-16.64.3-36.265-1.189-53.308-1.712l5.718-4.3c9.593 1.337 50.61 3.477 58.94.936"/><path fill="#2b2d34" d="M1039.62 379.572c3.95.443 20.43-.699 25.26-1.02 50.97-3.382 124.39-12.82 159.49-52.755l2.17 7.525c-45.2 43.399-131.9 50.506-192.47 51.432-1.47.023-4.65-.333-5.8-.106-16.64.3-36.265-1.189-53.308-1.712l5.718-4.3c9.593 1.337 50.61 3.477 58.94.936"/><path fill="#cb8d4f" d="M824.255 336.038c33.393 27.781 78.723 38.112 120.979 44.33 2.644.199 5.653.724 8.458 1 5.627.453 15.996 1.6 21.27 1.568 17.043.523 36.668 2.012 53.308 1.712l1.65.977c-2.25 3.043-7.31 4.376-10.48 6.398-25.327 16.142-52.09 16.169-79.858 21.978-37.577.113-90.458-18.853-122.831-37.627.361-3.707 1.016-7.501 1.576-11.195 1.797-10.323 3.357-18.909 5.928-29.141"/><path fill="#fdfdfc" d="M824.255 336.038c33.393 27.781 78.723 38.112 120.979 44.33l-.227 2.693c-26.741.657-107.737-1.489-126.68-17.882 1.797-10.323 3.357-18.909 5.928-29.141"/><path fill="#f4dabd" d="M945.234 380.368c2.644.199 5.653.724 8.458 1-.403 2.612-6.536 1.681-8.685 1.693z"/><path fill="#cb8d4f" d="M1076.63 337.448c-.77 2.089-1.63 3.113-.44 4.995-.62.166-1.25.331-1.88.497-10.83 16.435-20.19 24.306-34.69 36.632-8.33 2.541-49.347.401-58.94-.936-1.227-.643-1.548-.815-2.853-1.278 28.543-5.362 51.453-12.648 73.983-32.402.56-.256 1.13-.513 1.69-.769 1.56-1.9 2.64-3.273 4.03-5.302 1.13-.254 2.19-.439 3.33-.647 4.86-.082 9.11-.227 13.94-.645z"/><path fill="#46423f" d="M1076.63 337.448c-.77 2.089-1.63 3.113-.44 4.995-.62.166-1.25.331-1.88.497-6.97.237-13.82.827-20.81 1.247 1.56-1.9 2.64-3.273 4.03-5.302 1.13-.254 2.19-.439 3.33-.647 4.86-.082 9.11-.227 13.94-.645z"/><path fill="#585e6e" d="m824.255 336.038 1.852-6.965c32.078 31.762 107.514 46.631 151.72 48.285 1.305.463 1.626.635 2.853 1.278l-5.718 4.3c-5.274.032-15.643-1.115-21.27-1.568-2.805-.276-5.814-.801-8.458-1-42.256-6.218-87.586-16.549-120.979-44.33"/><path fill="#cb8d4f" d="m674.233 1338.83 1.203.52c-8.553 11.62-13.872 16.19-17.042 31.64-14.438 70.36 107.443 107.44 158.311 117.99 139.127 28.85 294.045 28.74 431.375-9.21 27.62-7.63 57.25-18.79 81.68-33.77 47.84-31.67 59.57-60.81 26.43-109.49 6.92 5.66 30.88 31.13 35.04 38.84 4.25 9.7 5.58 20.42 3.85 30.86-7.9 47.7-74.09 78.45-115.24 91.99-134.24 44.16-288.136 45.85-427.145 25.97-67.138-9.6-160.625-32.91-204.257-87.18-28.76-36.58-6.818-74.61 25.795-98.16"/><path fill="#5c6574" d="M684.917 1335.11c1.15 1.38-1.017 4.8-1.712 6.38-4.672 10.6-5.422 20.94-2.365 32.14 6.34 23.23 27.55 39.78 47.543 51.16 119.964 68.3 362.807 67.46 493.697 31.16 40.88-11.34 104.38-32.43 125.86-71.26 9.02-16.32 7.97-30.96 2.87-48.2 11.32 14.15 16.92 23.83 19.9 41.74 5.08 52.59-76.11 83.12-116.49 95.53-95.28 29.28-197.59 35.03-296.703 29.91-74.345-3.84-151.816-15.51-220.818-44.52-32.246-13.63-78.365-38.47-75.382-80.65 1.246-17.62 10.204-32.13 23.6-43.39"/><path fill="#cb8d4f" d="M700.454 1323.9c.121 1.72.22 1.06-.212 2.66-2.732 10.14-4.941 20.34-.782 30.45 11.639 28.28 47.39 45.77 73.941 56.56 129.932 52.75 369.159 50.25 498.149-5.06 22.75-9.75 55.19-27.49 64.48-52.19 4.52-12.01 1.55-22.79-3.31-34.01 12.14 12.88 15.34 18.11 18.14 35.42 1.09 76.98-178.04 108.43-236.93 113.58-112.67 9.96-232.183 7.16-340.026-30.3-33.511-11.64-87.047-36.55-90.892-77.94-1.512-16.27 7.358-27.73 17.442-39.17"/><path fill="#cb8d4f" d="M729.365 1284.85c.557 5.74-4.154 16.8-2.426 22.88 10.45 36.75 74.58 56.77 105.856 64.7 100.953 25.58 209.025 27.8 311.755 12.21 47.86-7.27 125-24.63 157.73-63.13 8.81-11.71 6.91-22.57 4.69-35.68 12.07 12.23 18.05 22.52 14.55 40.18-3.32 8.2-8.26 18.49-14.91 24.66-58.43 54.11-195.45 69.17-271.08 70.88-99.068-.57-225.85-5.39-307.071-68.74-26.32-20.53-20.365-46.69.906-67.96"/><path fill="#5c6574" d="M711.437 1365.54c24.252 12.25 47.674 18.52 73 26.5 138.144 43.56 292.013 42.33 432.263 9.38 30.18-7.09 60.22-12.22 90.37-22.07 2.44-.78 4.84-1.66 7.21-2.63-103.17 92.6-510.538 98.64-602.691-8.35z"/><path fill="#5c6574" d="M734.463 1312.5c76.428 32.28 135.807 52.43 219.678 57.4 14.572.86 37.613 2.78 51.839 1.96 5.25-.68 14.07 1.09 15-3.47 2.9.23 4.86.12 7.76.04-3.84 4.1 25.69 2.34 29.32 2.69 12.67-.03 24.6-1.98 37.05-2.62 45.42-2.36 88.45-17.99 133.52-20.33 10.52-.54 21.1-1.55 31.6-2.55l1.58 1.8c-133.83 58.05-330.94 55.76-468.662 8.06-18.267-6.33-52.088-23.05-58.685-42.98"/><path fill="#2b2d34" d="M1020.98 1368.39c2.9.23 4.86.12 7.76.04-3.84 4.1 25.69 2.34 29.32 2.69-8.76 1.18-42.14 1.18-52.08.74 5.25-.68 14.07 1.09 15-3.47"/><path fill="#e84545" d="M1390.22 1362.62c18.68 3.9 36.5 23.82 53.13 33.65 23.97 14.17 48.58 21.57 75.74 25.86-8.42 5.82-13.15 9.12-22.77 12.58-2.46.48-1.45-.13-3.02 1.82.47 3.44 5.03 10.97 6.97 14.72-62.73-19.67-72.94-38.55-110.05-88.63m13.1 42.9c-.09-1.86-.96-14.42-.5-15.05 1.29-.55 2.66 4.76 2.89 5.48 3.44 6.9 5.79 14.13 9.31 21.03 19.8 38.8 34.84 52.39 73.81 69.17-7.76 1.68-17.07 3.45-24.55 5.72 1.88 6.47 2.26 13.34 2.92 20.08-7.49-5.42-16.08-11.31-22.82-17.52-23.66-21.8-38.69-57.12-41.06-88.91"/><path fill="#d46a56" d="M1403.32 1405.52c-.09-1.86-.96-14.42-.5-15.05 1.29-.55 2.66 4.76 2.89 5.48-1.55 3.21-1.45 6.01-2.39 9.57"/><path fill="#e84545" d="M1434.22 1295.19c2.93-.2 5.86-.28 8.79-.26 18.37.21 20.33 31.59 19.86 44.63-4.06-7.26-6.85-16.33-14.27-19.12-9.75-3.67-19.81-.62-28.75 3.17-5.29 2.99-9.19 5.63-14.47 9.03-2.93 1.9-14.91 14.04-16.8 5.91-.77-3.31 3.62-11.66 5.46-14.55 9.92-15.54 22.06-24.8 40.18-28.81"/><path fill="#e84545" d="M1452.68 1329.86c27.25 29.85-18.91 45.66-44.74 34.83-1.46-.82-12.44-6.21-12.54-6.28-.17-1.67 1.09-3.61.72-5.9-.5-3.03-1.04-4.38 2.34-4.26 13.74.48 28.25-2.23 40.93-7.55 5.53-2.33 9.34-6.39 13.29-10.84"/><path fill="#fdfdfc" d="M1434.04 1323.19c2.36-.11 20.22-1.48 14.49 6.02-7.96 10.42-24.05 12.54-36.29 14.58-6.41.68-10.78.67-17.04.62 12.97-9.6 22.67-17.77 38.84-21.22"/><path fill="#e84545" d="M1381.84 1342.79c7.85.04 10.27 4.76 9.59 12.78-.15 1.7-4.94 2.21-6.26 2.53-4.26-.14-4.95-1.3-7.83-4.41-5-5.41-.28-7.42 4.5-10.9"/><path fill="#585e6e" d="M1260.23 1345.62c.74-.36 3.7-1.62 4.2-.46-.16.73-2.11 1.9-2.62 2.26z"/><path fill="#5c6574" d="M711.589 1368.37c-.498-.55-4.187-4.03-3.217-4.77.655-.02 1.209.45 1.681.86l1.384 1.08z"/><path fill="#010100" d="M362.677 1679.1c14.226-.15 28.786.47 43.073.37 39.725-.25 74.55-3.91 102.431 30.13 35.097 42.86 22.049 112.24-28.936 135.82-20.639 9.55-42.33 8.52-64.481 7.69-2.442-.09-2.449-.34-3.565-2.04l1.481-2.35c2.497-2.72 5.467-5.58 8.092-8.23-10.228-7.2-20.567-11.45-32.06-16.38 8.516-5.65 14.693-9.06 22.255-16.09-2.934-4.4-6.756-8.37-10.3-12.33 14.608.03 29.928.1 44.532.37 26.668.48 36.799-34.15 21.086-51.28a21.64 21.64 0 0 0-10.415-6.37c-11.805-3.11-68.682-1.6-85.802-2.31 2.821-5.25 5.174-8.6 8.56-13.48-8.205-5.72-19.487-10.66-28.673-15.41 6.983-6.84 12.745-7.3 18.046-13.67 3.836-4.6-3.332-4.77-5.324-14.44"/><path fill="#cd8849" d="M368.272 1682.67c30.092 1.26 66.798-1.95 95.512 2.98 17.372 2.99 39.565 19.79 47.981 35.15 6.069 11.08 15.663 34.51 12.435 47.59-.676-.18-4.917-1.46-4.984-2.1-2.282-21.76-7.626-39.3-23.601-54.98-22.693-22.26-47.602-21.1-77.33-20.96l-43.237.38c-2.073-2.7-4.534-5.45-6.776-8.06"/><path fill="#cd8849" d="M360.165 1704.4c17.051-.87 34.864.13 51.901-.54 37.798-1.5 73.136-1.21 88.45 40.38 2.311 6.28 5.481 17.95 2.501 24.06-1.383-.4-5.115-.96-5.174-2.74-.821-24.8-13.555-42.85-36.298-52.49-17.445-7.4-94.806 4.4-102.986-6.74zm157.989 67.41c3.487.07 2.341-.34 5.305.99 4.97 12.09-14.275 45.37-24.511 54.71-23.808 21.72-44.803 22.85-75.198 22.42-3.624 0-2.272.62-4.992-.9 1.28-3.02 3.424-3.85 6.443-6.19 22.948.2 41.343.03 60.816-13.95 20.766-14.91 28.007-32.89 32.137-57.08"/><path fill="#cd8849" d="M407.528 1724.51c19.027-.51 45.84-4.49 61.88 8.66 6.896 5.65 20.444 27.11 12.895 34.44l-2.221-.31c-2.484-2.17-2.345-11.21-5.861-18.41-9.613-15.72-23.908-16.33-40.519-16.16-19.048.19-38.173.13-57.223.04 2.182-3.13 3.994-5.32 6.452-8.27 8.127.11 16.451.01 24.597.01"/><path fill="#cd8849" d="M404.922 1694.06c31.09-.42 63.701-4.37 87.307 19.18 15.201 15.16 20.917 31.43 22.253 52.38l-1.439 1.33-3.592-.16c-2.066-2.26-1.992-11.73-3.269-16.76-7.436-29.28-30.556-49.03-61.315-49.57-12.812-.22-27.804.16-40.151-.44z"/><path fill="#cd8849" d="M372.974 1714.29c27.648.48 59.441-2.73 86.096 2.06 23.081 4.16 34.196 30.65 35.037 51.56-1.407-.17-2.969-.45-4.381-.67-3.215-3.96-2.749-11.63-3.876-16.65-1.117-4.97-5.925-11.41-9.244-15.26-27.138-31.48-73.306-.98-103.632-21.04m124.95 57.1c3.645.27 2.554-.31 5.379 1.37.331 1.09 1.003 3.38.729 4.52-6.432 26.89-24.459 48.24-53.226 51.38-14.241 1.55-29.281-.08-43.797-1.15-4.966-1.73-7.956-3.54-12.483-6.07 47.198 2.09 92.465 9.03 103.398-50.05"/><path fill="#cd8849" d="M508.566 1771.17c.853.13 5.655.19 5.512 1.81-3.531 39.81-37.339 69.57-77.578 66.23-8.386-.7-8.685 1.35-16.289-2.78a199 199 0 0 1-9.028-6.05c16.233 1.77 29.978 4.68 46.341.92 30.859-7.07 46.157-30.84 51.042-60.13"/><path fill="#cd8849" d="M488.3 1771.43c.538.13 3.977.85 4.106 1.02 4.287 5.72-6.977 23.68-8.712 26.17-19.765 28.36-49.568 16.26-77.553 20.5-.239.09-1.486.73-1.811.25l.023-.52c1.834-1.92 8.898-6.65 10.486-7.8 37.677.19 62.181 6.48 73.461-39.62"/><path fill="#cd8849" d="M478.01 1771.24c1.78.35 6.294.23 5.893 2.69-2.113 14.68-14.992 30.94-30.405 32.93-11.573 1.48-25.413.16-37.439.09-2.294-1.12-3.939-4.88-5.757-7.53 29.837-.62 58.252 9.1 67.708-28.18"/><path fill="#cb8d4f" d="M364.196 1700.79c15.785-9.29 21.264-6.83 40.726-6.73l-.206 5.96c-13.645.1-26.969.56-40.52.77"/><path fill="#010100" d="M1274.88 1680.35c11.91-1.37 37.98-.5 50.95-.32-11.93 15.78-28.95 18.55 1.84 32.4-3.29 3.78-6.57 6.67-10.24 10.06 3.1 3.76 6.73 7.43 8.28 11.92-5.37 8.79-64.09-11.65-68.76 21.53-9.89 70.27 80.23 21.3 100.57 48.28l.82 1.11c-4.57 4.62-11.01 9.78-16.09 14.06 9.06 5.6 21.29 7.28 24.28 10.67l-.3 2.9-6.15 6.65c6.43 5.13 12.03 10 18.19 15.46l-62.92-.03c-14.2 0-34.68.72-48.12-2.23-11-2.52-21.37-7.26-30.48-13.92-61.57-45.02-43.04-146.7 38.13-158.54"/><path fill="#5c6574" d="M1233.83 1762.48c16.72 5.54 24.65 30.33 38.14 34.64 14.44 4.62 69.26-2.64 79.58 5.89l.15 1.91c-3.81 5.98-9.69 9.98-15.27 14.58 10.5 6.84 13.8 8.62 26.02 11.9-3.21 3.05-5.7 4.84-6.29 8.91 1.25 2.1 10.03 7.72 13.61 11.42-4.93-.64-14.31-.58-19.63-.69-38.2.98-88.72 7.45-117.09-19.56-20.92-19.91-27.43-36.59-29.1-64.38 6.06 5.37 11.43 9.59 17.86 14.54 4.23-7.61 6.76-12.34 12.02-19.16"/><path fill="#010100" d="M1249.51 1804.07c8.03 3.27 13.54 9.17 22.01 12.92 4.86 2.15 10.04 2.71 12.69 6.01-8.48.28-35.07-10.62-34.7-18.93"/><path fill="#cd8849" d="M1281.57 1683.39c12.4-.47 24.2-.35 36.59-.24-3.33 2.82-6.19 4.63-9.8 7-44.22-.54-73.37 4.1-92.74 48.65-3.17 9.55-4.34 16.42-5.14 26.39l-1.46.99c-3.52-1.74-2.07-.5-4.24-4.12 2.05-45.48 32.23-74.35 76.79-78.67"/><path fill="#cb8d4f" d="M1279.4 1694.41c2.56-.24 26.11-1.04 26.56.44-.41 1.48-2.1 5.06-3.98 5.08-16.43.12-32.13-.67-47.04 7.56-15 8.3-27.2 21.69-31.69 38.53l-1.56 6.01c-.96 7.28-.47 13.68-1 20.83-.14 1.77-4.99-2.58-5.23-2.84-2.45-2.71-.82-7.71-.51-11.01 3.39-36.41 28.73-61.15 64.45-64.6"/><path fill="#cd8849" d="M1278.54 1704.31c7.53-1.07 21.03-.63 28.68-.28 3.8 2.75 4.9 3.79 8.34 6.85-32.45-.39-62.11-4.73-79.96 29.45-6.25 15.24-1.87 12.84-11.51 29.97 1.35-36.25 16.46-60.68 54.45-65.99"/><path fill="#cd8849" d="M1298.64 1724.47c4.98.17 9.71.06 14.69 0 2.61 2.68 5.18 5.39 7.73 8.13-28.06.86-57.5-8.44-68.06 23.63-1.61 7.76-1.06 7.98-1.19 16.15-2.28-2.79-7.06-7.24-6.78-10.86 2.62-34.71 28.16-36.79 53.61-37.05"/><path fill="#cd8849" d="M1285.72 1714.41c9.94-.68 21.41-.56 31.35-.15 3.47.15-1.48 6.29-3.61 6.35-25.72.76-46.16-4.6-64.67 17.53-6.37 9.39-5.18 11.46-8.27 20.94-1.36.83-2.85-.41-4-1.3-5.23-4.07 5.48-21.64 7.99-24.76 11.22-13.97 24.35-17.3 41.21-18.61"/><path fill="#010100" d="M1598.29 1680.3c14.56-1.37 36.2-.66 51.09-.5-5.73 6.44-11.93 11.99-17.82 18.77 5.86 6.72 10.34 10.46 17.18 16.33l-8.15 7.51c4.1 4.94 6.86 8.75 10.54 14.02-26.3 2.08-69.81-10.67-69.96 28.21-.12 35.07 33.03 31.81 57.67 31.34 11.95-.23 23.98-.11 35.8-.18 2.75 2.72 5.63 5.94 8.3 8.79-5.35 4.71-11.37 9.56-16.86 14.17 7.21 4.28 16.47 6.72 22.85 11.89 1.26 1.02.73 1.65.58 3.74-2.22 1.87-2.47 2.08-4.26 4.34.48 4.96 11.13 11.59 16.23 16.09l-53.92.04c-32.09.11-58.39 3.25-85.71-16.81a86.93 86.93 0 0 1-35.05-56.97 90.72 90.72 0 0 1 16.59-68.25c13.54-18.32 32.49-29.21 54.9-32.53"/><path fill="#5c6574" d="M1559.36 1761.61c18.39 10.25 20.73 27.41 39.7 35.83 13.66 6.06 75.49-5.65 78.25 8.33-3.92 5.38-15.52 4.2-14.29 12.6 4.81 6.74 15.55 10.19 23.4 13.52-3.62 2.52-7.06 5.32-10.54 8.05 6.11 3.81 11.26 7.19 17.13 11.33l-17.5-.12c-47.73.99-99.68 9.42-130.47-35.21-5.07-7.35-22.64-37.96-12.72-44.61 5.55.63 10.08 5.58 13.56 9.58 4.29-6.98 8.2-13.05 13.48-19.3"/><path fill="#010100" d="M1566.69 1793.85c3.36 2.58 5.61 5.99 8.81 9.15 8.39 8.29 19.77 14.97 31.51 16.91 3.76.62 8.67.85 12.3 1.49.57.1.95 2.82 1.06 3.42-19.18.25-36.96-6.81-49.62-21.63-2.7-3.16-4.48-5.26-4.06-9.34"/><path fill="#cd8849" d="M1604.53 1683.39c6.71-.91 28.96-.12 36.45.01l-7.44 7.37c-19.55-.43-35.76-2.45-54.06 5.81-20.25 9.14-30.95 23.22-38.76 43.37-1.73 6.51-3.72 25.52-5.56 27.61l-3.83-1.41c-.92-1.48-1.69-2.06-1.58-3.89 2.7-43.58 31.54-74.47 74.78-78.87"/><path fill="#cd8849" d="M1601.26 1694.29c8.46-.66 17.3.05 25.81-.14 4.27-.03.9 5.75-.64 5.76-19.8.11-38.46-.25-54.81 12.75-13.76 10.94-19.05 21.28-23.58 37.5-1.37 7.16-1.29 14.27-2.69 21.26-1.05 1.78-4.51-1.63-4.62-2.15-2.23-11 3.23-31.42 8.6-40.65 12.03-20.73 28.95-30.91 51.93-34.33"/><path fill="#cd8849" d="M1552.11 1748.85c.96-5.45 3.29-10.5 5.93-15.32 15.81-28.8 43.65-30.82 72.91-30.21 2.37 2.39 4.55 4.56 6.8 7.06-29.39-.97-54.83-2.33-72.92 24.49-7.79 11.55-5.05 20.24-12.35 28.97-.64 1.05-1.42 3.05-2.84 3.25-1.56-1.75 1.53-15.15 2.47-18.24"/><path fill="#cb8d4f" d="M1552.11 1748.85c.46 5.14-1.15 11.46.37 14.99-.64 1.05-1.42 3.05-2.84 3.25-1.56-1.75 1.53-15.15 2.47-18.24"/><path fill="#cd8849" d="M1608.54 1724.35c6.78-.79 18.98-.39 26.06-.1 3.42 2.95 6.14 5.69 9.39 8.76-20.61-.04-47.4-6.19-60.44 12.05-4.79 8.99-5.41 13.21-6.63 23.27-.32 2.61-7.19-2-6.5-7.81 1.04-8.8 2.28-14.19 7.81-21.36 8.58-11.11 17.27-13.23 30.31-14.81"/><path fill="#cb8d4f" d="M1618.71 1713.44c6.7-.2 13.76-.44 20.42.06 4.69.35-1.49 7.17-2.73 7.1-27.98-1.56-52.34-2.73-66.37 26.08-.49 1.34-3.9 13.97-4.02 14.05-.83.28-4.68-2.91-4.89-3.38-1.95-5.44 4.46-16.97 7.21-21.09 12.97-19.51 29.1-21.69 50.38-22.82"/><path fill="#010100" d="M946.6 1680.24c13.463-1.4 37.715-.43 52.056-.2-6.99 6.5-12.559 11.56-18.786 18.87 6.466 5.95 12.856 9.22 20.55 13.28-3.671 3.67-7.7 7.13-11.593 10.58l12.793 13.68c-17.229 1.08-51.63-3.47-65.059 7.65-14.647 12.14-7.843 48.27 14.087 50.42 22.817 2.23 47.219.88 70.682 1.45 3.39 3.01 6.1 6.13 9.15 9.47-3.95 3.8-12.12 9.2-17.09 13.27 7.37 4.71 15.62 7.35 23.82 10.29l1.3 1.05c-1.24 3.36-5.13 7.27-7.62 10.13 5.85 5.37 12.12 8.66 18.72 14.82l-53.531.06c-30.584-.03-56.66 2.72-83.281-15.07a83 83 0 0 1-36.033-53.59c-10.229-51.6 17.483-96.41 69.835-106.16"/><path fill="#5c6574" d="M906.819 1763.84c19.151 1.56 20.551 27.52 41.374 33.66 15.818 4.66 67.137-3.93 75.787 6.65-1.23 4.58-12.86 12.2-17.22 15.41 7.7 4.19 17.97 8.22 26.2 11.7l-8.79 9c5.09 3.89 11.66 7.86 17.14 11.37l-15.6-.28c-20.4.34-56.252 1.72-75.423-.66a82.2 82.2 0 0 1-54.813-31.79c-8.802-11.53-18.082-34.2-16.2-48.25l1.697-.1c4.751 2.24 9.261 6.91 13.271 10.54 4.229-8.25 6.038-11.18 12.577-17.25"/><path fill="#010100" d="M918.081 1793.97c6.122 7.26 5.666 8.5 13.256 15.47 8.36 7.68 20.544 8.87 24.25 14.37-13.387-.71-37.789-13.88-37.506-29.84"/><path fill="#cd8849" d="M952.702 1683.38c5.937-.92 29.868-.38 36.862-.35l-8.557 7.16c-17.817.34-33.713-1.91-50.648 5.67-21.554 9.65-33.06 24.01-41.626 45.25-2.696 8.48-3.388 16.98-4.44 25.8l-1.91.77c-3.088-1.2-1.913-.25-3.791-2.76 1.499-44.8 29.409-76.05 74.11-81.54"/><path fill="#cd8849" d="M947.752 1694.33c2.74-.22 30.399-1.36 30.497.65.245 4.99-4.066 5-7.747 4.85-5.608-.23-12.966-.28-18.501.36a63.9 63.9 0 0 0-21.75 6.65c-17.76 8.98-27.49 22.65-33.426 41.05-1.213 7.58-1.439 14.16-2.096 21.55-.401 4.52-5.683 2.28-5.996-1.94-2.72-36.58 26.359-67.55 59.019-73.17"/><path fill="#cd8849" d="M953.022 1703.47c21.61-1.24 21.508-1.83 37.327 7.75-34.614-1.11-62.213-5.66-80.767 30.47-3.017 8.08-2.998 9.58-4.332 18.33-2.254 2.45-4.77 4.8-7.174 7.12 1.235-13.51 2.157-25.21 10.254-36.87 10.987-15.83 25.981-23.61 44.692-26.8"/><path fill="#cd8849" d="M957.52 1724.35c7.239-.74 19.242-.36 26.848-.19 3.323 3.13 5.681 5.54 8.814 8.86-21.155.27-46.314-4.51-61.881 11.43-5.507 8.41-6.101 13.77-6.17 23.59-.018 2.57-6.127-.84-6.354-5.02-.648-7.65 2.622-17.42 7.295-23.48 8.201-10.63 18.978-13.63 31.448-15.19"/><path fill="#cd8849" d="M954.441 1714.34c2.774-.33 41.021-2.99 35.745 2.2-6.165 6.07-17.012 3.37-25.284 3.63-17.962.56-28.056 3.1-40.782 16.14-5.137 7.46-7.689 12.05-9.026 21.22-.354 3.29-6.335.42-6.036-1.51 3.973-25.57 21.48-38.4 45.383-41.68"/><path fill="#010100" d="M626.619 1680.26c15.481-.91 33.788-.48 49.403-.1-11.529 12.82-29.43 23.5 1.529 31.45l-10.358 11.81c3.775 3.67 6.853 5.71 7.511 10.67-7.418 7.42-45.151-3.45-56.459 7.17-5.366 4.29-11.851 14.96-11.308 22.06 2.885 37.67 28.863 32.41 56.164 32.16a798 798 0 0 1 38.516.44c2.464 2.74 5.108 6.14 7.477 9.03a1162 1162 0 0 0-16.877 13.2c7.168 4.77 22.027 9.88 25.385 12.97l-.088 2.21-8.358 6.84c6.467 5.02 14.745 9.95 21.726 14.84-9.727.75-33.779.26-44.658-.01-32.77-1.18-67.983 5.52-96.253-15.52-62.557-46.57-43.648-145.47 36.648-159.22"/><path fill="#5c6574" d="M586.139 1762.67c7.732-.06 6.353 7.38 18.122 10.74 4.903 12.8 9.219 19.49 22.225 24.03 13.157 4.6 68.641-3.07 75.541 5.19.1 4.94-13.612 11.42-15.584 16.7-.185.28-.37.56-.556.83 8.911 3.81 18.119 8.16 26.977 12.2-3.237 2.39-6.417 5.3-9.465 7.96 4.216 3.28 11.362 7.67 16.06 10.73l-16.757.02c-70.869.93-135.958 8.28-146.665-82.83l15.994 12.53c4.914-9.1 5.632-12.14 14.108-18.1"/><path fill="#010100" d="M594.139 1793.61c5.385 3.75 8.203 10.31 13.534 14.97 11.057 9.68 22.709 12.36 36.984 12.79.83.03 1.219 1.73 1.321 2.32l.205 1.1c-17.464.35-52.009-10.4-52.044-31.18"/><path fill="#cd8849" d="M632.11 1683.35c9.338-.85 25.759-.3 35.292-.03-2.986 2.53-6.394 4.98-9.547 7.35-44.428-1.04-73.977 6.3-90.904 51.85-2.105 6.84-3.286 17.28-4.254 24.54l-1.455.32c-1.203-1.03-4.241-3.54-4.179-5.28 1.571-44.11 33.298-73.77 75.047-78.75"/><path fill="#cd8849" d="M631.69 1694.37c2.612-.33 24.322-1.01 24.815.13-.044.35-2.672 5.35-2.976 5.88-20.912-.39-35.155-.98-53.442 12.21-12.598 9.09-22.811 24.04-25.192 39.59-.689 6.01-.444 14.43-2.223 19.7-1.119 3.31-5.337.04-5.417-3.37-.911-38.83 25.454-70.4 64.435-74.14"/><path fill="#cd8849" d="M630.9 1704.32c6.22-.82 18.459-.68 24.885-.47q4.84 3.285 9.505 6.81c-13.168-.71-29.989-1.61-42.729 1.9a50.62 50.62 0 0 0-31.053 24.38c-.291.54-.582 1.08-.873 1.63l-.866 1.58c-3.702 8.4-3.959 9.7-5.363 18.37-2.726 2.54-5.173 4.86-7.97 7.34 4.329-33.89 18.579-55.78 54.464-61.54"/><path fill="#cd8849" d="M635.561 1724.33c5.886-.43 23.67-1.1 29.047 1.38 1.015.47 5.129 4.39 5.305 5.86.032.28.002.69-.16.72-7.941 1.62-31.93-.05-39.255.81-11.177 1.3-13.999 4.35-19.991 11.02-3.043 4.98-7.561 14.09-7.056 19.9.735 8.43-6.193 1.42-6.356-1-.469-6.99 3.56-17.36 7.724-23.07 7.947-10.91 18.378-14 30.742-15.62"/><path fill="#cb8d4f" d="M631.996 1714.26c4.259-.46 36.783-1.82 37.449 1.25-.53 1.41-4.327 4.33-5.535 5.34-23.281-.76-41.795-3.9-59.414 14.56-3.469 4.57-9.737 14.28-9.867 19.89.936 7.23-6.992 3.12-6.761 1.72 4.013-24.4 20.954-38.8 44.128-42.76"/><path fill="#010100" d="M307.143 1679.41c9.701-.65 28.722.1 39.032.37-5.255 6.63-17.187 13.91-15.371 22.23 5.13 6.12 12.403 3.34 13.767 11.39-1.314 3.99-4.542 6.01-7.86 8.87 3.975 4.65 7.358 9.12 11.047 13.99-14.928.24-29.695-.72-44.693-.09-24.799 1.03-31.199 35.19-16.631 51.07a22.25 22.25 0 0 0 10.579 6.51c9.704 2.73 58.72 1.48 73.427 2.16l8.701 8.64c-4.197 4.3-11.482 10.01-16.306 14.02 7.158 4.53 10.787 6.09 18.985 7.83 2.48.52 3.567 1.61 4.677 3.53-1.025 3.87-4.793 6.84-7.746 9.79 5.586 5.36 12.578 9.37 18.883 15.09l-55.002.17c-33.473-.04-61.92 2.31-89.173-21.49a88.13 88.13 0 0 1-29.807-61.09 89.6 89.6 0 0 1 23.122-66.59c16.322-18.21 36.625-24.95 60.369-26.4"/><path fill="#5c6574" d="M256.042 1763.61c13.736.02 21.865 24.36 36.125 32.03 16.357 8.8 73.762-4.35 80.996 9.25-1.785 3.04-15.154 12.87-18.632 15.6 8.753 2.96 18.411 7.07 27.021 10.61-3.075 3.01-6.065 6.27-9.024 9.41l15.257 11.14-9.349-.09c-15.215-.15-30.431-.18-45.647-.1-29.043-.03-53.651.3-77.115-20.25-19.514-17.1-26.375-37.15-28.027-62.15 7.463 3.25 9.804 6.19 15.703 11.79 4.175-8.22 6.299-11.1 12.692-17.24"/><path fill="#010100" d="M271.438 1802.64c1.972.57 2.442.57 3.836 2.04 12.169 12.83 31.65 17.19 48.77 17.24 1.786.01 2.353.61 3.392 1.89l-1.199.19c-15.79 2.61-49.534-4.46-54.799-21.36"/><path fill="#cd8849" d="M302.719 1683.4c8.762-.8 26.808-.24 36.407-.24-2.943 2.77-6.081 5.14-9.256 7.65-18.136.67-30.044-2.81-48.437 4.29-22.416 8.66-33.067 22.43-42.631 43.63-4.099 11.46-4.451 16.05-4.781 28.22-1.592 2.05-.59 1.22-3.512 1.93-1.698-1.27-2.564-2.65-2.587-4.9-.451-44.15 32.412-76.73 74.797-80.58"/><path fill="#cd8849" d="M301.681 1694.41c7.388-1.05 15.947.17 23.449-.13 3.65-.14.947 5.28.446 5.3-19.864.79-32.826-1.32-50.634 9.93a67.12 67.12 0 0 0-29.773 42.48c-.244 2.59-.206 22.12-4.159 20.78-6.11-2.07-3.216-16.76-2.145-21.28 7.582-32.01 29.538-53.87 62.816-57.08"/><path fill="#cd8849" d="M306.131 1703.43c7.059-.13 14.12-.02 21.171.35 3.628 2.46 7.208 5.04 10.826 7.53-34.56-2.52-63.087-3.54-80.339 32.9-1.198 3.32-4.716 21.94-9.479 21.29-.448-.35-.714-.98-.717-1.54-.11-26.13 17.974-50.16 42.927-57.76 5.644-1.72 9.706-2.18 15.611-2.77"/><path fill="#cd8849" d="M307.112 1724.39c8.25-.3 17.262.05 25.659-.01 2.789 2.82 4.844 5.16 7.468 8.09-12.6-.17-25.281-.72-37.912.09-12.348.8-17.066 5.21-23.447 15.53l-.551 1.35c-3.054 7.45-3.212 12.15-3.748 19.95-.475 1.81-2.782-.46-3.25-.74-8.451-5.09 1.346-24.64 5.885-30.48 8.042-10.35 17.05-12.62 29.896-13.78"/><path fill="#cb8d4f" d="M304.517 1714.35c8.263-.85 25.536-.31 34.216-.17a82 82 0 0 1-6.063 6.73c-24.565-.47-44.517-4.52-60.975 17.88-1.419 2.37-6.454 12.43-6.468 15.23-.034 6.54-3.661 10.04-6.977 4.45-1.797-3.02 6.609-20.68 9.609-24.51 9.979-12.73 20.611-17.63 36.658-19.61"/><path fill="#010100" d="M1014.25 1679.11c26.29.43 52.81-.01 79.08.75 49.55 1.83 84.08 45.29 79.73 93.01-5.22 57.35-50.59 87.09-105.26 80.96-3.05-.34-4.12.04-6.12-2.21l1.98-2.1c3.56-2.85 5.85-5.48 8.94-8.78-10.75-5.47-21.09-10.91-32.24-15.57 5.89-5.13 16.39-12.36 22.95-17.18-3.66-4.16-7.36-8.3-11.09-12.41 24.12.48 67.11 7.78 66.58-28.16-.52-35.04-28.66-30.9-53.99-30.79-13.87.06-28.15.17-42.05-.13 3.1-4.23 6.14-8.57 9.19-12.84-8.37-6.9-20.35-10.7-30.56-15.73 6.09-5.97 19.71-10.21 18.88-18.83-2.96-3.41-5.38-5.35-6.02-9.99"/><path fill="#cd8849" d="M1019.25 1682.85c42.41 1.31 95.08-8.35 126.07 22.94 18.37 18.55 23.91 37.59 24.2 62.81-1.5-.31-5.7-.73-5.82-2.66-1.29-21.32-7.27-39.1-22.86-54.58-21.73-21.58-47.53-21.28-76.61-20.9l-37.21.29c-2.4-2.75-5.16-5.33-7.77-7.9"/><path fill="#cd8849" d="M1031.39 1703.46c45.56.63 106.64-11.35 117.79 53.28.67 3.88.42 6.9-1.98 9.95l-1.92-.47c-2.66-3.89-1.96-4.93-2.43-10.02-17.44-74.26-89.56-32.42-134.46-48.99 8.89-2.99 13.83-3.26 23-3.75"/><path fill="#cd8849" d="M1027.94 1694.21c8.78-.75 19.43.39 28.02-.22 43.45-3.11 86.86 3.44 100.91 51.33 1.7 5.8 4.47 15.97 1.43 21.56-2.88.7-1.58.92-4.04-.58l-.37-2.48c-2.27-25.37-12.62-44.44-35.71-56.47-18.59-9.68-38.33-7.83-58.55-7.65q-21.615.075-43.23.75c3.88-2.02 7.73-4.1 11.54-6.24"/><path fill="#cd8849" d="M1037.11 1724.03c18.9.96 37.72-1.15 56.89.7 21.61 2.09 35.79 20.05 35.69 41.24 0 1.03-3.53 1.43-4.05 1.52l-1.78.4c-.31-1.22-.73-2.62-.74-3.89-.02-12.58-9.93-28.57-23.62-29.81-22.51-2.04-46.47-1.08-69.33-1.19 2.32-3.12 4.48-5.94 6.94-8.97m126.38 47.49c7.64 2.84 6.42 1.1 4.76 10.99-5.22 31.01-29.64 58.71-60.83 65.27-12.04 2.52-21.62 2.14-33.67 2.2-7.07.47.02-4.12 2.33-6.17 23.12-.12 39.61-1.85 58.31-17.06 18.13-14.75 26.53-32.6 29.1-55.23"/><path fill="#cd8849" d="M1023.47 1714.19c1.16-.06 2.33-.11 3.5-.15 10.85-.34 22.22-.22 33.11-.35 22.38-.28 47.61-2.17 65.05 14.82 11.22 10.92 14.29 24.15 14.63 39.13l-4.38-.74c-2.18-2.19-2.29-8.58-3.1-11.92-11.83-49.03-63.54-29.97-98.9-35.44-1.97-.3-7.83-4.05-9.91-5.35m119.9 56.46c5.7 1.03 6.55-.37 5.84 5.36-3.1 24.74-25.15 50.55-50.71 52.9-13 1.29-26.1 1.08-39.05-.61-3.74-1.71-6.24-3.14-9.86-5.09 22.57-1.51 49.46 3.88 68.83-9 15.41-10.25 22.91-25.43 24.95-43.56"/><path fill="#cd8849" d="M1153.66 1771.06c3.61.73 6.23-.2 5.84 3.2-4.4 38.37-36.83 66.76-75.5 66.1-6.78-.12-6.27.12-11.52-3.75-2.84-1.63-5.73-3.15-8.58-4.78 36.78 4.23 65.02.01 83.3-36.92 4.01-8.09 5.19-15.08 6.46-23.85"/><path fill="#cd8849" d="M1133.76 1770.52c2.12.39 6.16.06 5.73 2.94-4.44 29.96-28.06 48.28-58.17 45.53-6.32-.58-16.77-.1-23.31.09-9.3 2.46 8.5-8.15 8.48-8.14 16.49.63 35 3.67 48.52-6.91 12.04-9.43 16.18-19.34 18.75-33.51"/><path fill="#cd8849" d="M1123.55 1770.54c1.89.31 6.53 0 5.94 2.7-7.99 36.76-32.44 35.65-60.88 33.55-3.01-2.4-6.18-4.71-9.26-7.15 30.76.78 54.71 6.8 64.2-29.1"/><path fill="#010100" d="m1341.28 1679.89 47.95-.16c27.13-.02 51.43-2.34 74.8 13.78 62.5 43.14 45.59 141.6-29.18 158.86-7.2 1.66-39.39 3.05-43.88.02l.7-2.12 8.34-9.22c-11.18-7.92-17.24-11.62-29.73-17.19 8.36-5.83 14.45-10.43 22.31-16.91-4.11-3.76-7.11-7.33-10.74-11.5 13.91.55 26.69 1.23 40.83.52 30.64-1.55 34.04-51.9 5.45-58.1-9.2-2-24.35-1.14-34.21-1.17l-44.93-.49c3.84-4.3 7.98-8.02 12.18-11.95-8.77-5.4-19.63-9.53-26.2-13.91-3.93-7.19 9.44-13.01 14.91-16.45-3.93-5.3-6.18-7.87-8.6-14.01"/><path fill="#5c6574" d="M1346.48 1682.99c49.25-.3 117.83-10.86 142.84 44.74 2.95 6.56 15.22 34.73 6 38.27-7.52-1.78-10.28-6.67-15.29-12.73l-4.09 9.77c-3.7 7.2-15.61 6.11-23.48 7.05-4.59-40.82-26.01-36.93-59.4-36.95-12.01-.01-24.43-.06-36.45-.08l10.08-9.84c-7.7-4.74-21.14-11.4-29.49-15.85 8.3-6.74 11.61-8.49 21.32-12.18z"/><path fill="#010100" d="M1400.21 1708.43c6.53-.7 12.34.16 18.8 1.35a70.94 70.94 0 0 1 39.48 21.28c3.47 3.74 6.08 7.09 5.93 12.18-6.76.7-2.31-2.11-6.13-6.86-6.77-9.63-15.62-13.4-24.78-18.87-7.22-4.3-30.69-5.16-32.54-8z"/><path fill="#cd8849" d="M1493.59 1771.19c.46.11 4.55.83 4.84 1.5 1.09 2.87-.67 7.86-1.17 10.83-5.33 31.84-33.67 59.62-65.26 65.41-9.18 1.68-19.86 1.17-29.25 1.07-8.83-.1.02-7.67 9.93-6.98 39.18 2.74 70.61-25.81 79.14-63.03.66-2.92 1.25-5.86 1.77-8.8"/><path fill="#cd8849" d="M1471.74 1771.99c1.17.04 7.37-.61 7.01 1.44-5.4 33.07-30.46 58.14-65.24 56.2-4.23-.23-22.81-.4-25.32-1.04-2.14-1.3-4.22-2.62-6.48-3.7l.01-1.58c-.44-.03-.88-.06-1.32-.08l-.02-.03.12-.19c2.13-1 40.04-.26 49.01-1.78 4.82-.79 9.48-2.38 13.78-4.69 18.49-9.83 24.5-25.17 28.45-44.55"/><path fill="#cd8849" d="M1406.94 1833.04c8.36.14 14.35.32 23.05-1.14 27.92-4.58 47.59-29.54 51.92-56.47.87-5.4 7.4-3.59 7.17-1.92-5.64 39.97-39.85 71.4-81.44 65.6-.29-.04-.64-.77-.77-1 .22-2.36.38-2.79.07-5.07"/><path fill="#cd8849" d="M1461.54 1772.58c1.22.11 6.66-.31 6.35 1.79-1.39 9.55-5.8 20.5-12.02 27.9-18.38 21.87-43.94 14.29-67.78 16.85-11.61 4.78 6.98-8.02 7.12-8.12 32.71 2.32 60.03.83 66.33-38.42"/><path fill="#cd8849" d="M1451.3 1773.75c1.52-.02 7.08-1.04 6.46 1.67-7.95 34.55-33.38 33.7-61.03 31.39-2.57-2.61-5.19-5.14-7.86-7.66 24.78 1.56 51.5 6.96 61.18-21.64zm-61.35 56.73c6.72.74 10.33 1.04 16.99 2.56.31 2.28.15 2.71-.07 5.07-7.18.31-10.31-3.27-16.92-7.63"/><path fill="#787878" d="M1481.16 1760.67c2.39 2.85 5.83 5.07 3.29 7.67-8.6-.58-5.85-.3-3.29-7.67"/><path fill="#010100" d="M1708.62 1679.47c37-.6 65.45-3.56 92.88 26.39a90.17 90.17 0 0 1 23.24 65.91 87.53 87.53 0 0 1-29.1 60.82c-24.8 21.91-51.63 22.56-82.84 20.5 3.46-4.51 7.23-8.35 11.14-12.46-5.16-2.56-11.75-6.6-16.88-9.56l-12.4-6.65c7.51-5.72 14.49-12 21.55-18.26-3.77-3.52-8.69-7.49-12.7-10.89 16.4-.5 43.59 4.26 56.63-5.76 16.21-12.38 12.67-48.83-9.91-51.39-24.98-2.83-51.37-1.44-76.61-2.03 3.13-4.73 5.93-7.7 9.67-11.87-8.32-7.21-19-11.2-28.52-18.79 7.64-5.22 12.88-7.77 20.51-14.04-3.7-2.69-8.43-4.79-7.78-9.64 4.97-3.33 32.26-2.1 41.12-2.28"/><path fill="#cd8849" d="M1671.95 1683.26q1.155-.06 2.31-.09c14.04-.33 29.3.12 43.1-.3 30.08-.91 55.31-.37 78.38 22.06 18.37 17.86 24.75 37.03 25.38 62.08-1.4-.28-6.71-.78-6.75-2.38-.57-20.37-8.05-37.69-22.3-52.7-28.3-29.81-74.45-21.17-111.93-21.55z"/><path fill="#cd8849" d="M1723.45 1693.45c8.85-.14 20.48.09 29.1 1.58a67.94 67.94 0 0 1 45.16 28.81c5.04 7.27 18.88 37.62 10.24 43.43-.81-.29-3.33-1.94-3.33-2.53.08-13.68-3.74-22.96-10.5-34.63-23.24-32.61-46.91-30.9-83.21-30.27-13.86.21-27.73.3-41.6.28l10.09-6.01c14.69.02 29.37-.2 44.05-.66"/><path fill="#cb8d4f" d="M1714.11 1703.5c39.34-1.23 72.78 2.07 85.13 49.06 1.1 4.19 2.28 10.28.62 14.31l-1.79.31c-4.26-2.97-4.76-16.91-7.34-22.58-2.13-4.66-3.52-7.22-6.29-11.44-25.88-33.72-60.88-20.26-98.06-22.74-8.1-.55-13.54.83-20.73-3.33l.14-1.36c7.44-2.98 38.37-2.19 48.32-2.23"/><path fill="#cd8849" d="M1687.34 1724.1c26.85 1.01 70.64-8.38 86.47 17.91 4.26 7.07 7.18 15.18 6.92 23.5-.04 1.34-3.8 2.45-4.54 2.74-4.35-5.86-4.41-30.14-20.21-32.93-23.73-4.18-50.52-2.26-74.91-2.58 2.36-3.06 4.24-5.31 6.27-8.64m127.66 45.51c2.59.43 5.89.07 5.76 3.29-.84 20.8-10.6 40.58-25.52 54.9-20.98 20.14-43.12 22.28-70.49 22.19-9.15.09 4.07-6.24 6.07-7.43 19.61.54 33.94-.92 50.66-12.57 15.83-11.29 28.36-28.53 31.45-48 .67-4.25.56-8.44 2.07-12.38"/><path fill="#cd8849" d="m1676.39 1714.18 38.08-.42c21.9-.26 44.57-2.22 61.35 14.57 11.37 11.36 15.33 23.75 15.27 39.33l-3.75-.66c-1.65-1.46-1.5-.72-1.88-2.77-8.55-45.84-36.38-45.03-74.94-43.78-15.49.51-21.07 1.86-34.13-6.27m118.8 56.3c2.76.67 6.09.46 5.61 3.93-2.26 16.15-8.91 29-21.04 39.89-20.86 18.74-43.75 15.55-69.26 13.29-1.95-.45-4.2-.94-5.95-1.94l-.01-.04c-3.65-2.76 5.28-3.05 5.84-3.08 19.3-1.11 37.9 3.83 55.62-6.64 20.15-11.91 24.28-24.23 29.19-45.41"/><path fill="#cd8849" d="M1804.52 1771.01c.74.08 5.49.23 5.68 1.18.73 3.76-1.36 11.72-2.33 15.3a71.85 71.85 0 0 1-34.79 43.65c-14.92 8.09-35.04 10.68-51.25 5.29-3.49-2.04-6.24-3.72-9.61-5.94 4.67.38 8.63.76 13.28 1.46 42.18 6.37 75.08-19.25 79.02-60.94"/><path fill="#cd8849" d="M1784.47 1771.11c.84.07 1.67.14 2.51.22 12.47-.09-6.58 27.85-10.86 32.29-17.57 18.26-39.44 14.81-62.37 15.24 0 0-4.84.57-4.4-.44.91-2.13 6.21-5.46 7.96-6.82 32.8 1.16 61.32-.28 67.16-40.49"/><path fill="#cd8849" d="M1774.72 1770.62c1.98.55 6.1.81 5.63 3.79-1.54 9.74-6.63 18.45-14.13 24.83-13.58 11.55-29.46 8.66-45.55 7.72-2.65-3.71-4.03-4.69-6.82-8.03 26.94 1.38 54.03 5.6 60.87-28.31"/><path fill="#010100" d="M689.987 1680.23c5.069-.55 11.526-.49 16.735-.41 22.524 1.12 48.073-2.05 70.24.51 63.131 7.28 93.059 77.9 62.618 131.43-17.317 30.46-49.269 44.8-83.151 42.33-3.266-.23-4.023-2.27-5.57-4.64-5.504-7.83-10.437-10.31-17.58-16.74 4.787-2.57 10.639-4.8 15.584-7.22 13.619-6.66 6.992-13.15.473-21.22 3.516-3.66 15.537-18.36 20.115-17.38-.577 3.11-.659 3.27-.495 6.4 2.465 1.83 1.552 1.66 4.913 1.86a18.87 18.87 0 0 0 14.261-5.17c15.206-14.69 8.873-50.56-14.084-52.61-23.663-2.12-49.189-.93-73.099-1.32 2.655-4.49 5.584-8.37 8.642-12.59-9.319-6.47-20.949-12.85-32.284-14.42 4.91-3.99 19.748-11.83 20.67-15.24-2.88-7.41-5.229-7.8-7.988-13.57"/><path fill="#5c6574" d="M696.129 1683.1c15.048.12 31.923.04 46.829-.18 29.943-.45 52.477-.35 76.557 20.12 21.156 17.99 26.777 37.58 29.115 64.02l-10.564-.67c-2.306-4.84-3.437-8.95-8.015-11.11-3.505 1.27-2.506 1.04-5.194 4.5l-2.261 5.6c-5.652 4.55-11.965 1.76-20.959 1.6-1.804-9.47-3.675-17.5-10.706-24.81a29.7 29.7 0 0 0-14.686-8.33c-8.514-2.05-59.129-.87-70.888-.93 3.589-3.94 6.82-6.56 10.841-10.01-8.228-6.98-19.996-12.75-30.645-14.9.949-.52 22.546-13.89 22.077-13.45.432.23-1.621-1.18-3.209-1.29-1.873-.11-6.031-7.32-8.292-10.16"/><path fill="#010100" d="M753.834 1700.94c16.605.7 36.968 9.3 47.609 21.66 3.485 4.05 5.082 3.83 5.799 8.98-5.126-2.1-4.802-3.37-8.967-7.45-10.42-10.21-18.811-13.93-32.799-16.98l-4.507-.99c-3.667-.8-6.456-.27-6.945-3.97z"/><path fill="#cd8849" d="M841.68 1772.28c6.817.95 6.846-.35 5.479 7.24-2.459 13.64-7.895 28.64-16.458 39.74-12.306 15.94-32.812 27.26-52.696 29.98-7.7 1.04-13.878.87-21.646.76-1.643-2.04-3.779-6.16-5.265-8.6 43.463 7.51 82.897-18.25 89.785-63.4.343-2.25.303-3.46.801-5.72"/><path fill="#cd8849" d="M831.337 1771.17c1.105.23 5.815.82 5.955 1.71 1.824 11.66-9.318 32.61-14.511 39.1a72.8 72.8 0 0 1-47.777 27.22c-10.921 1.38-16.695.65-27.174-1.88-1.521-.58-7.427-2.35-6.464-4.38 8.404-4.58 11.43-.53 19.636.03 38.414 2.6 67.861-23.82 70.335-61.8"/><path fill="#cd8849" d="M824.217 1770.19c.802.29 1.607.58 2.4.87a2.96 2.96 0 0 1 1.326 1.91c1.33 6.38-6.687 24.09-10.422 29.55-15.459 22.59-34.424 27.55-60.445 26.45-1.51-.6-3.284-.83-3.001-2.59 6.876-5.5 9.935-3.07 18.86-3.9 21.276-1.96 37.194-15.45 45.155-35 2.39-5.87 3.325-11.61 6.127-17.29"/><path fill="#cd8849" d="M811.863 1772.17c.925.36 5.981 1.83 5.861 2.78-1.274 10.06-7.384 21.34-14.049 28.72-10.734 11.87-22.532 14.72-37.912 15.53-5.585-.56-6.595-7.43-2.333-7.12 4.146.27 8.094-.46 12.088-.93 22.344-2.65 31.358-19.77 36.345-38.98"/><path fill="#cd8849" d="M800.726 1771.12c.734.06 6.824.25 6.783.52-4.282 28.42-21.725 36.16-45.149 37.48l-1.571-.54c-.915-.31-5.805-2.03-4.867-4.02 2.929-6.08 13.668-3.97 19.067-4.66 17.121-2.18 22.56-13.93 25.737-28.78"/><path fill="#9d623b" d="M828.345 1761.67c8.421 5.19 4.576 8.61 1.744 4.55l-.922-1.26c-1.849 1.47-.346 3.49-3.224 4.32l-.471-.32-.019-.75-.06.13c.056-2.29 1.772-4.8 2.952-6.67"/><metadata><recraft-signature>{&quot;signed_by&quot;: &quot;recraft&quot;, &quot;signature_b64&quot;: &quot;jO2stRkCSyHfG6CfvI/mFYa95/YthLUScEjmpKTXbJi4CZC7kaHRsvgL/abV2WUYj+MmRKNE47LZ4Eem5NmECQ==&quot;, &quot;signing_algo&quot;: &quot;Ed25519&quot;, &quot;generation_timestamp&quot;: 1777235488, &quot;identifier&quot;: &quot;793847aa-9c0c-4717-a9dd-64fd1f0b2775&quot;}</recraft-signature></metadata></svg>