<svg xmlns="http://www.w3.org/2000/svg" width="1024" height="1024" preserveAspectRatio="none" style="display:block" viewBox="0 0 2048 2048"><path fill="#444e57" d="M1009.75 550.048c.18-6.446-1.1-13.566 1.24-18.943 3.52-2.217 2.85-1.453 7.85-1.335l4.85.366c6-.005 12.2-.083 18.18.037l-.1 19.958 15.63.067c.04 7.657.28 16.113.04 23.702-5.03-.113-9.19-.792-13.56 1.374l-.64 1.505c3.92 3.201 9.36 2.298 14.47 2.152 0 7.336.19 15.71-.18 22.945l-15.77.877.23 145.583 8.47 2.164a64 64 0 0 0 3.2-4.302c2.61.015 3.94 1.35 6.14 2.866 2.82 3.709-.37 21.849 12.65 14.939 14.91 3.457-7.6 18.124 11.77 24.579 84.11 28.023 147.22 86.714 178.55 171.846a319 319 0 0 1 17.56 82.022c1 12.17.48 24.36 1.35 36.39.66 9.12 3.93 20.91 6.23 29.9l13.47.06c.1-9.79 1.03-37.81-1.24-45.58-5.57-3.3-5.15-4.46-5.01-10.67l.12-5.44 38.68-.09c-.23 4.46-.44 8.72-1.23 13.14-2.78 15.6-2.13 32.09-1.72 47.91l25.4-.35c-.49 23.43-.61 46.86-.34 70.29l-22.01.27.55 263.52c.1 24.16.07 48.33-.09 72.5-.05 12.24-.58 30.75.46 42.45 4.97 3.59 3.29-.78 6.92 3.04l.54 5.16c4.28 2.37 31.47 1.16 38 1.07-.5 21.12-.33 42.31-.84 63.29l-11.07.96c5.09 42.43 8.47 87.26 12.38 129.92l12.47 127.83 8.94 92.97c2.21 22.06 5.03 44.88 6.07 67.01H634.449c3.861-41.67 43.959-411.85 42.092-416.45-.235-.58-.747-1-1.121-1.5l-5.183-.53c-2.939-4.15-1.465-54.99-1.401-63.56 10.142-.05 22.677.94 32.783-.16 4.26-.46.349-2.85 2.773-7 2.968.09 5.169.48 7.832-.75 2.188-7.43.785-69.1.826-81.1l.352-298.92-18.37-.03c-.457-22.75-.235-46.44-.295-69.26l24.007.2c-.004-5.68.365-42.34-.822-45.79l-3.272-.63c-1.065-3.58-.284-11.51-.085-15.61 12.715.09 25.429.24 38.142.46.035 1.1.061 2.2.078 3.31.108 7.2.737 8.81-4.889 13.9-1.499 11.92-.758 31.74-.634 44.14l15.705.14c3.07-14.93 6.278-29.36 6.14-44.59-.043-4.84.2-10.2.455-15.04a319.3 319.3 0 0 1 8.313-57.119c20.589-83.608 73.596-152.468 151.949-188.703 9.871-4.565 22.381-8.15 31.477-13.654.789-3.126.202-2.113 2.054-4.576 6.36-.096 7.476 1.046 10.736-4.462 1.201-6.071-4.017-9.921-.803-14.351 5.154-7.105 11.26.571 16.466-8.027 3.295-5.443-.827-1.436-1.795-7.349 7.735-10.801 11.842.615 19.661-1.514 3.54-3.816 2.28-44.48 2.3-51.947l-.07-95.848-16.875.273-.274-22.9c5.018-.003 9.789.548 13.949-2.187l-.23-1.564c-4.11-2.164-8.628-1.408-13.468-1.242-.357-7.742-.071-15.56.106-23.314 4.842-.557 11.672-.552 16.692-.698"/><path fill="#faf9f8" d="m727.037 2048 5.729-107.7c.428-8.99 3.384-93.32 5.265-97.83 5.854-1.43 6.827.6 9.252-2.31l.268-4.09c2.809-1.64 2.595-1.72 5.798-1.75 2.172 1.04 2.979 2.12 4.395 3.98 1.463 1.91 2.478 3.39 5.015 3.88 3.245.61 5.065-.4 7.776-1.83 8.823-4.63 91.43-1.93 108.526-1.86l.017 15.61-96.432-.14-.338 39.99 97.101.03.099 16.31c-32.345-.02-65.2-.35-97.503.01l.027 39.93 97.297.06.075 10.46-96.764.12.336 40.16 66.717.12c6.043 0 24.289-.66 28.671.44 1.107 2.89.514 5.63.247 8.79-2.515 3.56-29.279 2.22-35.018 2.2l-60.48-.27.073 35.69zm445.003-209.11 67.69.01c11.17.01 26.9-.43 37.74.48 4.13 5-1.67 3.73 3.53 5.94 12.85-1.45 10.01-9.86 18.29-6.42.27 1.93.61 3.77 1.2 5.63 2.62.56 4.11.74 6.74 1.04 1.46 2.67 9.62 182.97 9.77 202.43h-48.79l.07-35.46-69.05.02c-4.45.01-22.94.49-25.72-.28-1.11-3.28-1.34-7.78.71-10.74 10.12-1.22 23.38-.55 33.78-.6 20.19-.1 40.53.36 60.73.19-.29-13.36-.3-26.73-.03-40.09-10.8 0-89.57.97-93.95-.59-2.45-2.9-1.63-2.3-1.75-7.16l1.14-2.19c7.8-1.5 25.03-.89 33.74-.86l60.54.25c-.07-12.53-.52-27.43.57-39.65-32.03-.46-64.68.31-96.47-.33l.15-16.64 95.72-.01-.12-39.92h-96.16zm50.12-684.86 17.85-.09.18 9.37c3.29 7.46 6.4-.67 8.74 14.29 18.1.36 36.85.17 55 .24l-.45 280.85-.51 57.59c-.01 10.16.84 32.39-1.3 41.51-2.36 1.69-3.78 1.09-7.32 1.21-2.33 2.31-1.57 1.79-1.95 6.04l-1.62 1.05c-2.08-2.71-2.34-47.01-2.98-55.14-7.88-67.41-29.2-125.24-74.61-177.08-12.94-14.76-27.42-26.98-42.15-39.87-.1-23.36-.21-46.73-.23-70.09-.01-12.38 1.67-6.53 4.38-11.79-.93-3.44-1.05-2.32-.65-5.59l8.11-4.62c2.43 2.8 3.11 3.81 6.25 5.95 4.26-.77 5.58-1 6.66-5.01-3.97-12.09 2.21-12.92 12.83-15.17-.49.1 8.67-6.4 5.18-6.76-2.14-.22-3.58-2.7-4.14-4.44 5.91-15.4 12.49-2.88 12.73-22.45m-411.45-1 15.009.15q.05 4.83.364 9.66c3.066 6.69 7.928 1.96 11.806 14.67-1.991 2.14-2.764 2.48-3.217 5.31 1.111 3.64 2.101 4.21 4.776 6.85l.8-.09c3.394-.34 5.244-1.29 8.381 1.09 9.184 6.97 1.572 6.71 2.616 12.56 8.382 7.87 8.247-1.34 17.163.1 7.732 5.15 2.665 5.21 4.387 9.77 3.143.44 2.092-.08 4.506 1.76 1.124 5.64.664 21.02.692 27.48l.269 50.69c-86.165 65.75-121.714 150.81-123.101 257.49.356 2.78 1.62 14.47-.199 16.6l-1.1-.1c-1.427-2.17-.986-5.13-.499-7.57-4.464-.44-6.341-.02-9.324-2.49-3.434-11.21-.531-138.59-.373-157.27l.272-221.6c19.117-.31 38.813-.07 57.974-.07.219-9.76-.91-9.52 7.4-15.05 1.852-1.23 1.357-7.35 1.398-9.94"/><path fill="#faf9f8" d="M755.161 1550.52c.356 2.78 1.62 14.47-.199 16.6l-1.1-.1c-1.427-2.17-.986-5.13-.499-7.57 2.102-1.53 1.503-6.17 1.798-8.93m53.828 54.5c17.917-.26 12.318-2.07 19.597 12.77l5.983 1.67c9.286 8.78-.008 8.88.264 16.27 1.497 3.17 1.987 3.09 4.986 4.87 2.323-1.94 2.355-2.12 5.077-3.32 11.292 7.04 1.965 19.79 14.881 19.43l1.201-3.84 1.498-.79c4.697.71 8.186 2.43 11.292 6.03-.028 2.6.029 3.14.444 5.71l2.551.64c1.303 2.51.859 1.18.731 4.2l-.969 1.13c-3.834 4.57-8.214 11.55-4.446 17.65 1.873.51 3.696.8 5.628.98 2.845 5.29 1.456 40.86 1.392 48.97l-98.176-.25.028 41.57c25.099-.21 50.2-.19 75.299.07l22.805.19-.024 21.11H771.206c-.046-5.36.895-9.21-.409-14.49-3.187-3.92-7.563-4.78-11.784-1.66-.379 2.1-.517 3.03-.559 5.13l-.027 1.72c-2.631 2.45-1.126 1.73-4.669 2.25-8.795-3.45-3.524-4.81-7.502-9.8l-5.119-.32c-2.298-3.28-.911-20.99-.698-25.97 1.757-40.98 3.246-81.96 4.626-122.95l55.942.13c-.134-5.05-.871-8.78 3.73-11.95 5.882-4.05 4.434-10.69 4.252-17.15m414.221.96 16.97-.02c-.09 12.01-2.46 11.05 7.7 17 1.97 2.65 1.54 7.55 1.64 11.11 16.77.2 34.02-.03 50.83-.05.85 18.17 7.24 140.58 3.66 149.19-3.31.32-2.27-.26-4.66 1.47-.12 2.44-.32 4.89-.59 7.32-3.47 2.69-1.59 2.08-5.73 2.19-1.91-2.04-1.62-4.74-1.65-7.46v-1.12c-3.51-1.26-10.24-1-14.23-1.07l-.13 15.63-104.23.05-.09-21.2 11.78.01c28.16.22 56.32.29 84.49.19l-.12-41.51c-31.85.29-64.11-.04-95.99-.13-.27-14.18-1.49-34.54-.02-48.05 2.08-1.17 2.26-1.43 4.04-3.06 1.9-4.85 1.91-9.62.95-14.71-2.37-.93-2.45-.87-4.42-2.42.73-8.13.39-18.39 13.22-14.34 1.61 1.86 1.66 1.97 3.53 3.6 3.48-1.38 3.69-1.18 6-4.27.8-3.12.02-4.23-1.14-7.27l-.42-1.09c4.27-7.08 14.72-5.29 18.88-12.06-.23-3.69-.62-2.84-4.22-6.31 5.12-8.69 3.02-6.72 11.82-11.27 2.16-2.72 1.9-6.7 2.13-10.35m-221.64-658.614c3.03-.553 2.84-.571 5.86-.004.41.669.82 1.338 1.22 2.007-.19 49.068.18 120.601.14 167.641-7.57-.05-18.611-.52-26.248.42-1.558.19-1.353.7-2.262 2.39.559 2.84.71 3.1.552 5.94-2.498 1.82-5.879 2.26-8.245.15-.176-2.18-.22-5.71-1.416-7.42-2.089-3-7.817-2.06-10.199-.03l-.317 5.97c-2.295 2.46-.872 1.66-4.67 1.98-3.96-1.99-6.811-6.65-5.456-11.06l4.788-1.56c.59-4.7-3.962-7.8-7.742-9.4l-3.169 1.32-.927.68c-6.335-4.82-9.097-7.2-5.388-13.94-1.508-4.42-5.327-6.16-9.801-5.19-1.682 2.05-1.687 2.24-3.846 3.69-4.186-1.96-5.278-2.49-9.007-5.13-.138-3.02.108-2.87.878-5.92-3.367-2.84-4.867.67-8.425-2.56-1.05-5.93-.572-22.55-.602-29.48l-.055-66.425c32.08-20.863 56.313-28.819 94.337-34.069m40.71-.538c29.67.577 76.9 16.081 100.43 35.279-.13 30.063 1.13 64.173-.12 93.823-3.16 3.66-5.54.51-9.49 4.01l1.69 3.44c-1.12 1.37-10.2 6.8-11.25 6.13-3.33-2.13-1.64-3.06-6.26-3.48-3.85 1.69-3.66 1.77-6.53 5 2.22 6.04 1.98 5.24-1.31 9.79l-4.2 3.71c-6.73-.43-9.59 1.22-11.9 7.48 1.28 1.68 2.62 2.49 4.37 3.65.28 3.96-1.26 7.06-4.4 9.46-5.2-.37-9.14 2.16-14.12 2.12-8.86-.06.39-10.81-12.06-10.13-8.09.44-1.77 4.42-6.26 9.22-3.21.4-3.27.68-6.24-.37-.4-3.44-.3-4.44-2.07-7.49-2.98-2.27-6.48-1.73-10.35-1.73zm-35.89 461.622 1.36.03 1.04 1.45c-.04 14.5 1.78 137.45-1.51 141.94-3.32.1-3.3-.3-6.02 1.21l-.15.99c-.54 3.75-1.344 9.1.99 12.24 2.32-.08 2.21-.19 4.28.79-2.73 3.88-21.608-.18-25.886 2.5-.563 3.92-.053 6.02-3.574 7.93-3.682-.43-2.819.32-5.273-1.43.104-2.09.189-4.17.253-6.26-8.032-4.87-9.643 3.51-15.316 5.87-2.819 1.17-6.258-3.22-6.771-6.13 1.332-4.04 3.504-3.21 5.561-7.11-1.217-6.84-4.355-8.38-10.834-8.34l-.564.87-1.292.05-5.211-6.06c-.747-3.66-.558-2.43 2.122-6.68-2.365-3.16-4.44-5.2-8.541-5.14-3.284 1.72-3.779 2.01-7.273 3.07-3.787-.59-3.81-.96-6.753-3.29l-.162-4.48c-2.056-2.67-2.38-1.95-6.637-2.98-3.153-3.79-2.196-79.05-2.125-91.18 32.887-17.02 60.782-26.67 98.286-29.86m34.94-.83c37.44 4.24 66.93 13.4 100.13 31.49l-.25 56.91c-.03 8.02.35 24.06-.85 31.31-2.55 2.17-2.92 1.75-6.51 2.46-1.31 2.74-.78 2.63.41 5.64-11.56 8.41-16.63-6.35-23.34 5.54 1.09 2.46 1.44 2.61 3.27 4.66-.63 6.1-5.82 7.36-10.91 7.87l-2.02.22-1.44.13c-7.27 8.88.54 13.66-3.34 19.86-5.19 3.38-4.34.12-9.8 3.64-4.47-.68-3.88-1.86-5.14-6.29-3.27-3.06-6.5-2.55-10.66-1.96-1.35 2.07-1.32 3.85-1.64 6.33-2.9 3.16-4.7 2.99-8.92 2.12-.98-2.37-.47-4.06-.15-6.64l-.94-1.85-1.68-.29c-4.18.17-10.54.86-14.12-1.04l.06-.04.27-1.02c1.88-.64 3.21-.64 5.17-.75 1.62-9.32 1.48-11.06-6.37-16.12-1.43-10.28-.89-47.78-.72-60.52.36-26.34-1.24-56-.51-81.66"/><path fill="#d8d6d9" d="M1057.55 1568.77c-4.18.17-10.54.86-14.12-1.04l.06-.04.27-1.02c1.88-.64 3.21-.64 5.17-.75 2.37 3.07 4.58 2.07 8.62 2.85"/><path fill="#faf9f8" d="M1060.68 1609.4c14.67-.04 4.36 2.84 11.98 9.2 3.53.69 4.4 1.09 7.97.29 3.9-4.31.91-3.28 3.59-9.36l2.13-.1c6.81 3.74.05.51 2.86 7.11 6.97.68 9.42 3.5 10.47 10.31-2.78 6.77-1.09-.14-5.57 5.13 7.47 10.09 18 3.92 20.39 14.32-1.12 1.91-1.6 2.72-2.43 4.75 1.71 2.86 1.69 2.64 4.5 4.53 4.57 1.13 7.53-1.61 12.64-2.07 3.15 1.23 3.08 1.75 4.88 4.61-.32 3.45-.74 3.4.51 6.37 2.85-.07 2-.19 4.79.45l.75 3.38c-1.32 2.78-1.67 2.07-5.67 3.53-2.21 2.74-2.59 3.59-2.36 7.57.49 8.86 3.01 5.81 7.24 9.86 2.21 11.21 1.26 29.7 1.12 41.62.06 3.44.21 3.33-.94 6.51-4.73.88-24.3.39-30.67.37l-61.78.03-.02-50.49 13.77-.22.16-28.12-13.74-.04.05-40.02c3.97.13 8.5.72 12.03-.78 2.1-3.78 1.33-3.74 1.35-8.74m17.81-771.63c7.14.708 38.48 16.345 45.61 20.42 55.13 31.522 99.14 87.411 115.17 149.2-6.73-9.656-14.53-17.951-22.57-26.471a265.96 265.96 0 0 0-174.69-84.197c-.09-8.01-2.26-35.147 3.74-39.541 5.4 1.216 13.41 4.127 16.32-3.213l-2.73-3.171c.73-2.902 5.41-7.987 7.91-9.524l3.91 1.444c4.3-.691 3.47-1.14 7.33-4.947m-107.332 772.15c12.616.04 5.043 1.49 10.694 8.3 5.517 1.16 16.093.76 22.168.73l-.09 40.7-16.516-.41c-.157 9.67-.355 18.37.257 28.06 4.976.32 10.567.3 15.599.4l.14 50-69.91.08-21.558.06c-.059-7.24-1.411-45.71.166-49.87 2.232-.31 2.652-.39 4.793-1.08 1.06-3.59 1.561-11.83.225-15.31-3.724-1.03-5.858-.74-6.974-4.46 1.843-6.03.732-.08 3.714-4.04l-.89-4.02c2.03-3.12 1.825-2.95 5.03-4.83 4.549-.85 7.224 1.44 11.947 2.15 3.251-1.44 3.103-1.23 5.207-4.07.492-5.07-.005-9.12 4.431-12.47 1.489-1.12 5.117.42 7.065.88 3.274-1.26 5.234-3.99 5.748-7.43-4.733-7.03-2.334-8.71 1.14-15.76 5.069.76 12.44 2.62 16.715.52 2.075-3.61 1.299-3.06.899-8.13m-.056-772.625c.497.444 1.935 3.187 2.554 3.999 3.787 4.962.555-.421 8.387.576 3.635 2.492 3.739 2.643 6.266 6.327-1.277 2.032-1.957 3.226-3.027 5.373l1.028 2.191c3.297 2.184 3.147 2.159 6.955 3.121 1.457-1.211 2.812-2.239 4.327-3.377 3.918-.355 7.008 2.137 10.528 4.203l.03 37.111c-65.586 2.436-126.764 36.613-172.063 82.72a454 454 0 0 0-24.39 28.711c2.295-9.776 4.759-16.976 8.535-26.376 20.249-50.413 58.308-95.821 105.236-123.262 13.67-7.994 30.97-15.119 45.634-21.317m1.07 318.445c3.267-.13 3.561-.28 6.834.51 2.264 3.24 1.433 4.12 1.555 8.96l27.519.04c-.04 9.41 1.17 36.79-.65 44.29-5.54 3.05-13.89-3.48-20.278 3.36 1.156 5.16 2.24 8.47-2.394 12.22-3.277 2.65-6.018.94-10.176 1.88-2.296 2.41-3.587 3.36-4.682 6.53 20.06 13.95-34.747 29.76-41.143 32.04-6.47 2.17-13.359 5.52-19.629 8.39-.159-9.75-1.851-52.5.887-59.04 2.402-.23 1.634-.01 3.881-.92-.269-2.19-.123-1.39-.544-3.43l-.292-1.37c6.884-10.86 9.752-1.02 17.394-1.62 2.63-1.98 3.572-2.38 4.994-5.39-.724-2.11-.945-2.97-1.393-5.16 1.604-3.88 3.369-5.05 6.489-8.05 7.199 1.64 10.402 2.41 14.022-4.73-1.885-1.9-5.664-5.36-4.825-8.39 5.523-19.93 21.763 3.86 22.431-20.12m82.278.5 5.33.14c2.65 2.39 2.05 2.24 2.89 6.81l.27 1.49c9.92 3.49 9.26-6.02 14.01-8.49 4.38.11 4.35-.57 7.6 1.35 1.12 14.64 6.36 6.78 13.08 14.55 5.02 5.81-2.84 8.69-3.51 11.37 2.63 3.22 2.76 3.56 6.31 5.54 8.71-.48 8.82 1.33 14.59 7.41-2.03 1.81-2.41 1.88-3.69 4.22 1.43 4.01 3.82 5.49 7.45 7.05 3.09-1.27 2.16-1.01 4.17-4.84 21.82.37 16.56 55.6 16.61 70.79l-.5.57c-3.39-.32-16.83-7.4-21.55-9.53-8.94-4.05-21.66-7.32-29.77-11.53l-1.07-3.78c-2.1-.28-4.22-.5-6.34-.67-6.53-6.99-2.72-8.59.68-14.79-6.94-12.4-11.4-1.05-19.02-14.28 1.66-4.28 2.89-5.11.52-9.06-2.99-1.71-2.65-1.99-5.86-2.05-1.66 2.38-2.1 3.44-4.52 5.01l-8.05-2.28c-.12-7.17-1.98-41.46 1.84-45.68 3.41-.08 3.59.03 6.97-1.01 2.23-3.48 1.45-3.41 1.56-8.31m-75.591 143.49c2.474 1.65 4.197 4.68 5.409 5.65 6.756 4.36-1.935 6.59.23 9.13 7.582 8.88 7.552 6.25 12.27 1.01 11.312 5.12 11.292 2.96 8.522 10.51-.24.65 2.15 1.44 2.19 1.72 1.23 9.14.64 19.93.6 29.4-29.284 3.04-44.769 5.52-73.532 13.78-.272.08-.544.15-.816.23a300 300 0 0 0-25.165 9.29c-.403-16.97-.525-33.95-.364-50.92 17.867-12.86 41.845-22.27 63.166-28.21.731-.2 1.696 2.86 2.649 2.65 1.536-.33 3.591-3.04 4.841-4.24m191.321-300.183c22.34 14.013 51.76 54.123 61.69 78.503 5.04 12.37 19.81 43.55 15.07 56.31-1.67.55-2.66.84-4.4 1.26l-1.49.34c-2.12 3.48-1.46 1.59-1.62 6.01-1.81 1.9-2.82 1.33-6.27 1.68l-10.87-.72c-.08-4.5.74-9.68-1.89-13.32-9.02-4.5-11.4-8.79-6.51-17.44-.24-3.09-2.33-5.81-5.01-7.28-6.24.12-8.36-1.36-12.84-5.82-2.18-2.18.97-4.86 1.67-8.6-2.3-3-4.27-3.86-7.99-3.62-2.78 1.74-4.43 3.24-7.65 3.25-3-1.33-3.22-2.04-5.32-4.55l.43-3.78c-3.12-4.94-1.24.68-5.65-3.68-1.29-7.8-1-21.18-1.07-29.66zM1070 1300.73c6.08 3.94 3.52 1.32 7.49 1.93 20.22 3.11 45.77 15.88 62.63 27.07-.03 16.77-.2 33.54-.5 50.31-7.14-2.74-13.55-5.55-20.59-8.35l-1.85-.75c-.76-.25-1.53-.49-2.29-.74-4.4-1.53-8.88-2.85-13.41-3.95-1.35-.33-3.12-.76-4.49-1.05l-4.5-.99-5-1.06c-15.6-2.9-30.14-5.42-46.07-6.37-.15-6.88-.28-13.97-.12-20.78-.24-7.84-.32-3.55 1.51-10.21 1.32-4.81-3.2-6.66 9.61-9.47 3.82 2.17 3.57 6.62 9.76.26 9.42-9.68-7.95-.57 7.82-15.85m-193.359-296.95c1.158 5.23 1.142 71.17-.442 74.8l-3.178.47-.934 1.35c.452 1.84.763 3.24 1.086 5.1-8.373 7.33-9.703 1.02-15.795-.25-6.07 4.4-6.245 4.68-3.678 11.64-7.905 8.84-21.028 6.7-21.962 15.89 2.762 1.58 3.809 1.82 5.091 4.73-.211 3.66-.77 4.18-2.598 7.28-3.368 2.19-1.95 1.61-6.554 1.37l-1.452 1.57c-1.215 5.63-.515 8.13.389 13.85-3.219 1.2-7.753 1.75-11.231 2.33-4.034-1.57-3.764-3.43-6.149-8.4-2.967-.53-3.119-.44-5.773-1.75-.127-.89-.255-1.52-.164-2.46 4.5-46.48 37.904-99.49 73.344-127.52m-.996 456.04.538.5c1.479 3.9 1.511 61.15.706 67.69-3.687 5.01-6.88 9.75-12.943 11.87-4.449-1.56-1.378-3.46-5.756-5.62-11.522 8.76-2.116 16.78-14.701 22.86a89 89 0 0 0-4.135-3.9c-2.997 2.19-4.701 5.13-4.853 8.89 2.357 5.45 3.597 9.32-.306 14.48-2.92.52-4.111.59-7.004.75-3.102 4.63 1.081 9.17-2.234 14.85-14.898 1.02-12.082 2.42-17.589-5.86-.258-.39-3.464.06-6.379-2.16-.383-2.67-.417-4 .115-6.72 7.504-38.31 42.867-95.84 74.541-117.63m297.405 2.72c.43.26 1.78 1.05 2.09 1.3 31.87 25.21 61.63 69.6 71.14 109.26.97 4.03.15 11.43-2.79 14.13-7.32 6.71-6.32 5.71-14.74 5.76-2.13-.08-1.89-.11-3.98-.61-2.27-3.96-.12-8.6-2.13-14.43-5.95-2.66-9.26-4.47-9.61-11.69 1.26-1.32 3.82-3.67 2.85-5.48-3.85-7.18-4.13-7.29-10.4-4.49-13.68-5.27-1.07-12.48-12.61-20.89-2.78.8-2.56 1.84-4.63 5.07-3.29.99-1.64.91-5.15.01-4.05-4.02-2.54-4.67-4.98-9.78l-4.02-1.4c-2.65-4.83-1.2-57.67-1.04-66.76m-21.63 108.18c13.74-2.47 26.89 6.67 29.37 20.42 2.49 13.75-6.64 26.9-20.38 29.4-13.77 2.51-26.96-6.63-29.44-20.41-2.49-13.77 6.67-26.95 20.45-29.41m-.96-449.8c13.61-2.3 26.53 6.78 28.98 20.36 2.46 13.57-6.46 26.6-20.01 29.22a25.19 25.19 0 0 1-23.94-8.38 25.2 25.2 0 0 1-4.52-24.97 25.2 25.2 0 0 1 19.49-16.23m-261.197 450.07c13.54-2.31 26.425 6.69 28.922 20.19 2.496 13.51-6.323 26.52-19.795 29.2a25.11 25.11 0 0 1-23.933-8.24 25.13 25.13 0 0 1-4.6-24.9 25.1 25.1 0 0 1 19.406-16.25M886.902 1122c13.359-3.84 27.292 3.92 31.062 17.3s-4.061 27.27-17.458 30.97c-13.303 3.68-27.075-4.08-30.818-17.37-3.743-13.28 3.949-27.09 17.214-30.9m-9.938 230.79c1.128 5.44.543 36.86.537 44.33-26.774 17.02-44.796 32.17-65.392 56.5-1.244-.84-.809-1.79-.303-3.13a253.3 253.3 0 0 1 65.158-97.7m34.785 426.36c29.313-.64 62.8-.41 92.281-.09v20.97l-92.398.03q-.138-10.455.117-20.91m135.311-.18 92.18-.02c.62 7.7.69 13.59.65 21.33l-92.76-.1c-.11-7.07-.13-14.14-.07-21.21m124.23-422.58c4.21 1.73 8.29 6.61 11.49 9.95 22.99 23.94 40.41 54.95 51.62 86.02-2.61-1.69-11.37-11.77-14.12-14.85-14.71-16.48-31.51-27.11-48.9-40.15-.31-13.1-.66-27.99-.09-40.97m-124.36 537.45 92.66.03q.03 8.19-.15 16.38c-29.71.31-62.9.89-92.46.13-.06-5.51-.07-11.02-.05-16.54m-134.648.33c29.302-.68 62.586-.49 92.028-.28.02 4.49.35 11.81-.55 16.04l-91.92.16c-.167-4.94-1.035-9.54.088-14.3zM1047 1838.9c30.07-.42 62.5-.29 92.64.04.01 4.92-.01 9.84-.06 14.77-29.11.78-63.27.52-92.5.16-.08-4.99-.11-9.98-.08-14.97m-135.246.05c24.71-1.26 66.822-.84 92.166-.22l-.02 15.16-92.252-.43c-.093-5.13-.073-9.39.106-14.51m135.046 162.04c9.83-.06 91.74-.68 92.69.63 1.43 1.97.55 8.69.54 11.08-9.9.15-91.22.91-92.63-.92-1.38-1.78-.6-8.55-.6-10.79m-134.65.07c10.451-.12 90.17-.87 91.31.62 1.44 1.88.55 8.83.5 11.05-8.297 0-90.526.4-91.43-1.19-1.253-2.21-.408-8.01-.38-10.48m134.94-51c8.49-.06 91.52-.75 92.47.52 1.37 1.81.48 8.09.44 10.41-9.53.03-90.91.86-92.26-.67-1.59-1.79-.69-7.97-.65-10.26m-135.41.77c7.869-.18 90.87-.9 91.9.41 1.27 1.63.46 7.7.44 9.6-9.326.11-90.792.74-91.699-.42-1.486-1.9-.671-7.43-.641-9.59"/><path fill="#444e57" d="m1731.93 1774.95 127.28.12c.29 90.34-.65 182.87.49 272.93h-128.43z"/><path fill="#dc9c5f" d="M1751.96 2048c-9.23-10.23 1.22-6.4 4.88-7.96 4.07-1.75-4.04-5.49-3.92-6.6 1.14-9.96 8.18-.58 11.15-5.96.84-1.51-5.7-7.45-.06-8.27 5.54-.14 6.77 8.52 8.72-2.71 2.3-13.17 7.51 2.48 10.92-1.15 2.65-2.84.8-8.77 6.82-7.12 2.83 2.22 1.37 6.9 7.25 4.46 2.36-.99 1.05-5.91 6.32-4.84 3.81-.28.21 8.42 4.95 6.95 1.4-.43 9.69-5.87 9.72-1.59.14 15.72 4.86.65 10.29 4.92 2.37 1.86.91 3.52-.46 5.41-3.18 9.15 10.92 1.31 9.55 7.99-.58 2.83-5.52 5.28-2.3 7.95 1.33 1.07 8.16-1.74 8.41 1.33.12 1.47-4.09 5.15-5.53 7.19z"/><path fill="#444e57" d="M1773.41 2048c6.08-10.47 10.44-15.23 23.59-15.29 11.96-.06 15.83 3.53 20.64 14.3l.45.99z"/><path fill="#dc9c5f" d="M1789.29 1945.15c28.49-2.06 47.75 9.87 54.6 38.36.7 2.79 1.35 5.58 1.94 8.39-7.5.37-16.08.18-23.66.19-1.74-14.63-1.67-20.87-16.25-28.34-9.68-1.98-19.77-.45-27.46 6.14-7.7 6.59-6.99 13.13-7.54 22.2-7.14.08-14.28.07-21.43-.04 2.25-26.04 13.81-40.89 39.8-46.9"/><path fill="#444e57" d="m188.041 1774.82 83.563.11c12.155.02 30.369-.49 42.222.19q1.52 136.44.984 272.88H188.901q-1.39-136.59-.86-273.18"/><path fill="#dc9c5f" d="M201.505 2048c2.351-7.7 1.099-4.7 7.18-6.71 3.803-1.26-1.656-5.8-1.719-6.29-.952-7.46 3.542-3.61 7.441-3.92 2.585-1.71 1.464-3.42.363-4.9-.44-.55-.88-1.09-1.321-1.64-2.274-3.94 3.73-5.16 6.161-2.82.718.69 2.98 1.02 3.899.55 5.099-2.6-5.313-6.3 1.102-10.08 1.757-1.01 4.987 2.89 6.491 3.33 3.125.91 1.709-5.86 4.709-6.85 1.634-.93 5.999-1.69 6.144 1.31.216 4.48 4.558 2.92 5.798-.02 1.131-2.69 2.2-3.51 5.29-2.78 2.915.76 3.033 4.51 4.528 5.99 2.52 2.51 3.848-4.62 7.317-3.2.835.34 3.716 1.4 3.877 2.32.66 3.78-3.063 5.75 3.361 7.08 1.578.29 2.237-4.52 4.976-2.64 2.355 1.61 5.485 2.67 2.575 5.66-.659.65-1.356 2.72-.881 3.59 2.299 4.22 5.968-1.2 8.807.33.503.15 1.509 2.04.815 2.42-2.151 1.2-2.765 1.77-4.124 3.78 2.607-.53 11.049-3.47 4.057 3.06-.486.46-.966.93-1.441 1.4 3.768 5.25 14.156-4.27 6.096 11.03z"/><path fill="#444e57" d="M227.638 2048c11.927-21.85 32.529-20.72 45.142 0z"/><path fill="#dc9c5f" d="M251.228 1944.39c31.094.85 42.645 19.82 47.371 47.55l-19.981-.09c-2.677-16.27-6.365-25.57-24.363-29.23-18.984 1.22-26.742 10.41-28.857 28.94-3.376-.08-18.873.22-19.607-.52-4.009-7.18 7.476-27.09 11.393-31.44 10.205-11.34 19.818-13.96 34.044-15.21"/><path fill="#444e57" d="M218.713 1591.6c-.68-13.9-1.144-25.93 8.837-37.35a33.98 33.98 0 0 1 24.629-11.81 33.73 33.73 0 0 1 24.436 8.97c9.789 9.08 12.26 20.96 12.422 33.74.026 2.36.027 4.72.003 7.07 20.12 2.63 37.615 11.97 50.073 28.01 14.857 19.11 14.487 41.36 14.16 64.31-.01.71 2.626 2.3 3.276 2.71 1.423 7.8.362 20.71.463 29.16-14.046-.35-28.098-.46-42.148-.32-.465 8.24-.75 16.49-.853 24.74q-.381 17.145-.185 34.29c-11.853-.68-30.067-.17-42.222-.19l-83.563-.11-.019-33.98.167-24.81-38.225.21c-.129-8.43-.72-21.63.227-29.64 1.841-1.49 1.257-1.12 3.317-2.09.197-28.42-1.543-48.83 20.593-71.5 12.553-12.86 27.637-17.28 44.612-21.41"/><path fill="#dc9c5f" d="M188.022 1740.84c41.995-.35 83.993-.35 125.989-.01q-.381 17.145-.185 34.29c-11.853-.68-30.067-.17-42.222-.19l-83.563-.11zm60.277-129.67c8.849-.41 16.648.19 23.135 6.99 9.232 9.67 7.26 18.28 7.107 29.85l-.411 37.96-16.99-.07a2711 2711 0 0 0-32.514-.13c-.156-14.49.174-29.11.088-43.57-.099-16.69 3.112-25.07 19.585-31.03m54.672 21.93c9.016-.75 20.805-.14 21.487 12.21.708 12.84.766 27.32-.113 39.99-.054.77-4.102.61-4.286.61h-1.809l-23.935-.03c-.095-14.55-.332-30.37.757-44.89.247-3.29 5.506-6.28 7.899-7.89m-108.895-1.07c25.308 1.53 17.411 18.63 18.66 37.69.332 5.07-.071 10.91-.151 16.01-4.002.23-8.445.07-12.493.03l-17.793-.04c-.109-11.93-.68-32.71 1.044-44.7.567-3.94 7.036-7.4 10.733-8.99"/><path fill="#444e57" d="M1760.25 1592.14c-.16-14.34.03-27.6 10.91-38.73a34.03 34.03 0 0 1 24.02-10.26c8.89-.03 17.51 3.57 23.66 9.93 11.82 12.22 11.4 24.3 11.12 39.56 50.97 8.94 68.78 44.69 65.13 91.87-.09 1.15 1.86 2.43 2.73 3.04 1.17 7.49.85 21.39.91 29.41-12.6-.14-26.68-.6-39.15-.33l-.18 24.29c-.06 11.32 0 22.86-.19 34.15l-127.28-.12c-.25-11.38-.3-22.75-.13-34.13-.11-8.3-.35-16.59-.73-24.89l-38.53.3c-.18-6.58-1.21-24.7.7-29.88l2.55-.75c1-4.9.07-16.52.41-22.3 2.26-39.18 26.65-63.86 64.05-71.16"/><path fill="#dc9c5f" d="m1731.8 1740.82 127.6.1c-.06 11.32 0 22.86-.19 34.15l-127.28-.12c-.25-11.38-.3-22.75-.13-34.13m56.3-129.63c9.91-.91 16.39-1.9 24.09 5.61 7.98 7.8 8.24 15.88 8.37 26.29.18 14.31.02 28.62.22 42.91l-16.28-.05-33.37-.08c-.22-16.95-1.1-41.62 1.41-58.54 1.05-7.07 9.42-12.73 15.56-16.14m-52.17 20.89c18.41.37 18.7 8.24 18.56 24.88-.08 9.55-.09 19.43-.2 29.03-3.03.19-6 .12-9.04.11l-20.13-.08c-.07-12.15-.99-33.92 1.61-45.6.93-4.13 5.56-6.64 9.2-8.34m111.11-.03c5.41-.23 10.38-.7 14.64 3.28 3.35 3.13 4.09 7.78 4.2 12.16.1 4.45.64 36.8-.55 37.8-1.3 1.1-5.63.47-7.08.46l-21.05.11c-.12-14.44-.28-29.19.27-43.57.17-4.55 6.32-8.16 9.57-10.24"/><path fill="#c41c28" d="M1018.78 408.672c12.46 4.493 138.93 2.285 159.87 2.018-.02 33.58.24 67.648-.22 101.188-48.42.07-107.23-1.337-155.06.794.01 5.2-.19 12.455.32 17.464l-4.85-.366z"/><path fill="#444e57" d="M1499.11 1830.44c.24-8.98-.09-16.08 7.09-22.88a17.68 17.68 0 0 1 13.95-4.76c4.6.44 8.82 2.72 11.72 6.32 5.09 6.27 5.35 12.47 4.79 20.07 30.55 8.57 35.64 22.07 35.75 51.01.02 6.21 2.07 9.65 1.41 18.67-6.7.43-13.23-.96-18.88 1.16-2.4 2.77-1.6 2.19-1.69 6.95.65 8.02.73 17.92.69 26.01-6.07.14-12.15.21-18.22.21-11.28 19.64-25.29 15.36-37.63-.22-5.22.41-10.08.64-15.3.91-.32-4.99-.27-7.97.03-13l.13-21.77-21.12-.08c-.37-29.4.78-64.8 37.28-68.6"/><path fill="#dc9c5f" d="M1553.25 1906.98c.65 8.02.73 17.92.69 26.01-6.07.14-12.15.21-18.22.21-11.28 19.64-25.29 15.36-37.63-.22-5.22.41-10.08.64-15.3.91-.32-4.99-.27-7.97.03-13l17.05.16c11.01-15.08 23.79-16.05 35-.7 6.08.06 12.15 0 18.23-.17-.04-4.66-.08-8.54.15-13.2"/><path fill="#444e57" d="M1513.25 1916.32c6.37-2.27 13.37 1.05 15.65 7.41 2.29 6.36-1.01 13.36-7.36 15.67-6.38 2.31-13.43-1-15.72-7.38-2.3-6.39 1.04-13.43 7.43-15.7"/><path fill="#dc9c5f" d="M1513.78 1841.03c22.05-.29 17.93 11.15 18.16 29.53.18 13.95 2.56 12.47-10.56 12.43l-17.59-.02c-.16-14.65-4.39-34.68 9.99-41.94m30.17 12.01c11.92-.2 13.29 1.55 12.59 14.22-.23 4.06 1.46 14.89-2.45 15.69-10.75-.07-15.76 2.46-14.94-10.95.63-10.37-2.63-11.77 4.8-18.96m-60.16-.25c13.21.01 12.64 3.69 12.08 16.18-.23 5.16 2.22 13.28-2.66 14.07l-14.18-.02c-.01-11.14-2.84-22.11 4.76-30.23"/><path fill="#444e57" d="M514.764 1831.94c.724-7.7.996-13.29 6.455-19.4 9.077-10.16 18.713-10.42 27.081.63 2.439 3.23 5.217 18.5 5.76 18.6 33.799 6.51 35.139 36.99 35.733 67.45-6.102-.08-14.232-.45-20.071.46.225 6.15.358 28.45-.33 34.08-3.14-1.29-13.67-.7-17.98-.72l-.404.85c-2.214 4.77-3.989 9.49-9.5 11.15-13.83 4.18-19.577-2.32-26.337-12.04-5.659-.2-13.759-2.24-14.533 3.7-.645-3.5-.701-13.54-.023-16.86.238-6.45.103-13.74.129-20.27l-21.031.46c.607-30.27-.802-60.41 35.051-68.09"/><path fill="#dc9c5f" d="M569.136 1920.12c.15-6.66-.038-13.9.586-20.44.225 6.15.358 28.45-.33 34.08-3.14-1.29-13.67-.7-17.98-.72l-.404.85c-2.214 4.77-3.989 9.49-9.5 11.15-13.83 4.18-19.577-2.32-26.337-12.04-5.659-.2-13.759-2.24-14.533 3.7-.645-3.5-.701-13.54-.023-16.86 5.066.18 9.955.19 15.018.22 1.964-2.2 4.373-4.95 6.785-6.63a21.46 21.46 0 0 1 16.097-3.46c6.85 1.26 9.86 5.86 13.45 11.09 7.572-.1 9.714-.16 17.171-.94"/><path fill="#444e57" d="M533.166 1915.16c6.749-.64 12.8 4.16 13.703 10.88s-3.666 12.95-10.346 14.11c-4.555.79-9.179-.97-12.05-4.6a12.61 12.61 0 0 1-1.716-12.78 12.62 12.62 0 0 1 10.409-7.61"/><path fill="#dc9c5f" d="M529.966 1842.86c18.847-1.19 18.838 7.54 17.949 24.64-.854 16.42 4.664 16.2-10.165 16.15l-15.872.11-.385-21.76c-.115-10.8-.134-12.45 8.473-19.14m29.048 10.85c12.622 1.05 14.936 1.57 14.472 15.29-.115 3.41 1.14 13.21-1.701 14.59l-14.876.23c-.03-7.96-1.615-23.9 2.105-30.11m-57.09.05c3.31.21 11.998 1.28 11.196 5.68-.996 5.48 3.417 24.19-2.992 24.16-4.393.04-8.69.13-13.09.04-.008-11.52-3.17-21.89 4.886-29.88"/><path fill="#444e57" d="M1929.81 1899.42c-.07-20-.57-51.68 18.55-62 17.48-9.43 16.5.16 19.49-21.28.55-3.9 9.15-9.37 14.56-9.97 5.08-.58 10.17.99 14.03 4.34 6.79 5.83 6.51 11.99 7.02 20.15 35.88 10.19 36.08 35.89 35.5 68.79-4.72.47-15.5-.66-18.25 2.44.07 4.42.19 28-.37 31.84-2.08-2.87-11.1-1.61-14.77-1.55-11.9 17.61-26.59 19.8-37.77.31-5.04.04-9.66-.1-14.7-.22-.08-5.08-.08-10.17.03-15.26l.22-17.55z"/><path fill="#dc9c5f" d="M2020.71 1901.89c.07 4.42.19 28-.37 31.84-2.08-2.87-11.1-1.61-14.77-1.55-11.9 17.61-26.59 19.8-37.77.31-5.04.04-9.66-.1-14.7-.22-.08-5.08-.08-10.17.03-15.26 1.21 4.46 10.17 3.75 15.11 4.52 5.44-10.37 9.43-13.52 22.77-11.51 6.91 1.03 10.42 6.21 14.16 11.5 6.01-.54 9.07-.88 15-2.24 0-5.99-.22-11.43.54-17.39"/><path fill="#444e57" d="M1980.74 1916.03c5.75-.28 11.6-1.03 15.33 4.41 4.53 6.6 2.04 13.38-4.32 17.42l-1.65 1.11c-6.46.31-11.52.77-15.33-5.33-4.95-7.95-.89-13.42 5.97-17.61"/><path fill="#dc9c5f" d="M1982.13 1841.96c23.85.51 13.95 21.94 15.93 39.62.39 3.46-7.23 2.2-10.05 2.19l-16.93.09c-.08-9.32-.34-20.55.25-29.86.39-6.16 5.4-9.67 10.8-12.04m-31.99 13.02c11.24-.57 14-1.41 12.77 12.98-.38 4.47 2.17 15.66-2.8 15.66-5.01 0-9.73.03-14.75-.12-.19-9.3-2.8-20.69 3.63-27.29zm57.58.08c17.4-.64 15.05 2.09 15.14 17.93.02 2.94.76 7.94-1.1 10.19l-15.26-.02c-.13-7.8-.77-21.03 1.22-28.1"/><path fill="#444e57" d="M60.755 1919.84c12.908-14.46 24.548-14.51 36.129.88 6.702-.09 13.402-.28 20.099-.55.046 4.2.05 8.4.012 12.61l.208 115.22H46.565c-1.331-35.81.003-78.43-.103-114.83-.317-4.45-.37-9.58.179-14.01 4.706.2 9.41.42 14.114.68"/><path fill="#dc9c5f" d="M60.755 1919.84c12.908-14.46 24.548-14.51 36.129.88 6.702-.09 13.402-.28 20.099-.55.046 4.2.05 8.4.012 12.61l-18.303.16c-12.3 16.73-26.184 18.05-37.96-.22-5.01.03-9.271.17-14.27.45-.317-4.45-.37-9.58.179-14.01 4.706.2 9.41.42 14.114.68"/><path fill="#444e57" d="M77.154 1915.01c19.19.64 18.537 20.47 5.407 24.43l-1.943.61c-16.111-1.88-21.583-17.57-3.464-25.04"/><path fill="#dc9c5f" d="M81.301 2016.5q2.858.75 5.685 1.59c14.199 4.2 18.096 18.32 8.345 29.91H65.277c-7.292-13.83-4.101-26.18 12.105-30.43z"/><path fill="#444e57" d="M76.945 2023.92c17.522-.69 23.044 14.47 7.943 23.41-18.566.5-22.032-13.65-7.943-23.41m-15.733-206.86c9.273-15.76 28.217-20.54 36.901-.08.595 1.41 1.23 10.48 1.664 12.91 13.323 4.82 22.848 4.95 31.157 21.64 4.109 8.26 6.721 39.05 6.614 48.38-6.833.07-13.808.22-20.628.2l.063 20.06c-6.697.27-13.397.46-20.099.55-11.581-15.39-23.22-15.34-36.13-.88-4.702-.26-9.407-.48-14.113-.68l.149-19.8q-11.043-.135-22.087-.09c.657-30.98-1.266-61.94 36.384-69.41z"/><path fill="#dc9c5f" d="M77.01 1841c10.83.3 12 1.36 17.759 10.08.111 3.69 1.306 30.46-.352 31.66-1.671 1.21-6.677.45-8.681.43l-19.059.04c-.119-8.65-.995-26.68 1.223-34.72 1.047-3.8 5.663-6.05 9.11-7.49m-31.554 13.02c2.396-.17 12.235-1.5 12.453 2.92.365 7.37.944 18.43-.04 25.83-.077.57-2.39.46-2.619.46-4.735.01-9.47-.01-14.206-.08.011-7.78-2.259-22.68 3.178-27.92zm60.956-.03c14.204-1.16 13.711 3.42 13.563 16.72-.04 3.57 1.417 11.44-1.891 12.46l-15.233.02c-.045-6.5-1.842-24.39 2.306-28.02z"/><path fill="#444e57" d="M1535.72 1933.2c6.07 0 12.15-.07 18.22-.21l-.46 115.01h-70.72c-.25-38 .46-76.05.03-114.11 5.22-.27 10.08-.5 15.3-.91 12.34 15.58 26.35 19.86 37.63.22"/><path fill="#dc9c5f" d="M1502.36 2048c-19.2-39.41 50.98-39.87 32.77 0z"/><path fill="#444e57" d="M1515.96 2024.1c19.14.77 20.93 17.93 7.67 22.45l-1.85.66c-19.26.56-21.42-17-5.82-23.11m-1015.322-87.4c.774-5.94 8.874-3.9 14.533-3.7 6.76 9.72 12.507 16.22 26.337 12.04 5.511-1.66 7.286-6.38 9.5-11.15l.404-.85c4.31.02 14.84-.57 17.98.72-.711 37.66.621 76.38.43 114.24h-69.634c-.309-37.04.806-74.14.45-111.3"/><path fill="#dc9c5f" d="m519.229 2048-.887-1.78c-2.832-5.49-3.982-10.65-1.828-16.67a17.83 17.83 0 0 1 9.995-10.5c16.455-6.65 34.884 8.54 24.788 27.88l-.545 1.07z"/><path fill="#444e57" d="M531.472 2048c-24.785-17.58 9.726-37.84 15.598-13.52 1.484 6.15-4.176 10.38-8.479 13.52zm1474.098-115.82c3.67-.06 12.69-1.32 14.77 1.55-.29 38.09-.34 76.18-.14 114.27h-67.03l-.07-115.73c5.04.12 9.66.26 14.7.22 11.18 19.49 25.87 17.3 37.77-.31"/><path fill="#dc9c5f" d="M1969.89 2048c-11.54-18.46 5.41-34.68 23.6-28.92 13.29 4.2 15.66 17.97 9.01 28.92z"/><path fill="#444e57" d="M1982.98 2024.06c18.57.16 22.31 14.97 6.78 23.62-19.06-1.63-23.09-15.23-6.78-23.62m-281.95-57.03v-44.65c.02-5.19-3-6.31-2.44-9.99 5.51-5-1.01-6.96 8.17-7.58 16.46-1.1 6.86 20.18 7.02 31.89.5 36.94.29 74.21.27 111.3h-45.3c.01-21.53.17-43.17-.38-64.7-.24-9.36-6.11-7.08-4.25-15.3 8.63-5.34 1.55-9.58 5.13-16.78 4.38-.49 4.23-.55 8.49.39 6.06 5-.11 7.61 2.88 14.06 5.47 4.41 13.65 1.96 20.41 1.36"/><path fill="#faf9f8" d="M1680.82 1976.11c6.73-.01 13.43-.11 20.16-.03.07 23.97-.05 47.95-.35 71.92h-19.85c-.35-23.49-.13-48.32.04-71.89"/><path fill="#444e57" d="m327.045 2048 .094-90.83c.012-6.47.463-36.03-.705-40.32l-3.651-1.19-.671-1.9c1.716-6.01 9.534-11.61 15.988-10.35 1.885 2.94 1.118 1.38 1.057 5.82 1.087 1.59 1.275 1.83 2.73 2.88-.549 4.15-1.044 8.3-1.487 12.46-.654 6.35-2.127 39.79 1.125 43.76 5.598-.36 9.007-.25 14.566-.15l3.173-.7c3.731-7.03-.317-10.89 2.842-15.94 4.05-.41 5.42-.83 9.236.22 2.117 6.46-1.65 12.33 3.106 16.91 1.989 1.92 2.303 5.04 1.277 7.48l-3.052 1.51c-1.533 5.47-.869 61.37-.849 70.34z"/><path fill="#faf9f8" d="M339.695 1975.78c3.917.03 17.208-1.06 19.833 1.73 1.679 1.78.505 62.55.532 70.49h-20.375z"/><path fill="#7d7e80" d="M341.525 1968.33c5.598-.36 9.007-.25 14.566-.15-4.393 2.65-.116 5.56-2.948 6.3-3.112-.93-.262-4.68-1.588-4.98-3.108-.72-6.575-.58-10.03-1.17"/><path fill="#444e57" d="M1885.74 2048c-.2-30.07.24-91.06-.47-124.12.01.4-2.05-.73-3.13-2.18.45-7.57 9.59-13.43 16.59-8.35 2.1 13.41-.39 24.25-.18 38.07.17 10.66-1.7 16.97 12.42 17.07 14.18.11 3.17-18.68 14.8-17.51 5.03 3.77 3.36 8.89 5.29 14.61 2.13.69 2.2.67 4.07 1.87.2 5.61-.09 6.6-4.25 10.36-1.59 16.19-.86 40.54-.69 57.28-.14 1.21-.11 1.64-.1 2.9.1 3.33.16 6.67.18 10z"/><path fill="#faf9f8" d="M1898.98 1975.37c9.27-.17 10.69-.04 19.75.95-.07 8.4 1.41 54.72-1.79 58.19-.38.42-.7.91-.69 1.5.02.83.94 1.72 1.39 2.31 1.87 2.42 1.15 6.82 1.23 9.68h-19.82z"/><path fill="#444e57" d="M164.95 1966.11c.047-9.76.69-32.59-.387-41.24-1.869-1.79-1.791-1.69-4.147-2.79l-.047-1.54c6.076-2.62 5.707-8.32 12.833-6.82 3.825.8 6.608 5.26 7.395 8.86-1.341 1.25-2.177 1.99-3.63 3.11-.56 3.37-.173 29.51-.202 34.48l-.521 87.83h-43.483c-.119-8.47-2.39-45.94 2.142-49.57.745-4.73.567-15.39-.593-20.21-.23-.96-3.133-2.65-4.102-3.28-1.454-3.18-1.101-4.1-.774-7.56 2.695-2.55 5.16-.87 5.497-1.51 2.385-4.52.636-15.26 10.539-12.15 1.136 4.33.801 7.97.75 12.46 5.868.04 12.965.25 18.73-.07"/><path fill="#faf9f8" d="M152.779 2048c.024-2.56-.292-11.22.871-11.7 6.974-2.92-1.31-2.27-.921-7.27.093-1.2-1.712-4.1-3.614-2.85-1.391.64-1.339 5.23-3.079 4.22l.244.22c-.211-.35-.465-.69-.633-1.07-.635-1.42.041-4.13.205-5.55.587-5.08-.602-46.49.762-47.51 3.228-2.41 8.041 2.12 9.555-3.06.12-.4.252-.75.544-1.06.099.01.247-.18.271.03.324 2.79 7.584 2.74 7.602 4.08.322 23.77.346 47.7.408 71.52z"/><path fill="#d8d6d9" d="m145.065 2048 .282-8.09c.026-1.01.583-3.54 1.934-1.93 1.117 1.32.799 8.13.822 10.02z"/><path fill="#444e57" d="M480.974 2034.65c-1.061-8.65 1.1-18.4-1.452-26.66-2.609-8.45 9.586-10.06 7.945.69-1.886 12.34-.292 26.49-1.023 39.32h-16.907c.813-4.42.79-6.67 2.866-10.72 2.853-.28 5.248-.69 8.053-1.16z"/><path fill="#faf9f8" d="M472.403 2037.28c2.853-.28 5.248-.69 8.053-1.16q.333 5.94.422 11.88h-11.341c.813-4.42.79-6.67 2.866-10.72"/><path fill="#444e57" d="M2036.24 2048c-.16-8.81.7-30.29-.82-39.67-.64-3.9-.49-10.08 4.38-7.09 4.38 2.69 3.75 4 1.47 6.86-1.07 2.43-.01 20.26.08 23.53.03.87 6.05 1.19 6.65 1.26V2048z"/><path fill="#faf9f8" d="M2041.24 2048c.13-10.2-1.78-8.99 6.76-14.15V2048z"/><path fill="#444e57" d="M1935.28 2018.24c-.15-2.41-4.22-27.28 4.57-17.14 1.15 1.33.1 41.72.05 46.9h-9.63c-.02-3.33-.08-6.67-.18-10-.01-1.26-.04-1.69.1-2.9 8.9-.68 4.17-7.23 5.09-16.86"/><path fill="#faf9f8" d="M1930.09 2038c7.16-3.71 4.94 5.08 4.95 10h-4.77c-.02-3.33-.08-6.67-.18-10"/><path fill="#7d7e80" d="M1935.28 2018.24c1.6 2.44.69 25.13.69 29.76h-.93c-.01-4.92 2.21-13.71-4.95-10-.01-1.26-.04-1.69.1-2.9 8.9-.68 4.17-7.23 5.09-16.86"/><path fill="#444e57" d="M586.406 2048c.106-12.66-.074-25.34-.187-38 .879-1.88-1.764-4.12-1.761-5.02-2.126-5.35 8.004-5.3 8.13-3.46.089 1.3-.544 30.09-.753 32.25l.663 1.73c-.191 4.24-.197 8.27-.203 12.5zm-559.33-15.98c-.867-8.94.083-17.57-1.745-26.42.246-1.5 1.6-4 2.308-5.02 2.648-3.81 6.837 4.52 6.37 5.37-1.835 3.3-1.861 2.66-1.846 6.55.043 11.82.02 23.67-.052 35.5h-5.225c-.05-3.74-.11-7.12-.31-10.86.456-2.43.48-2.57.5-5.12M1462.28 2048c-.08-7.15.73-31.07-.14-36.5-2.66-16.53 6.87-11.05 6.61-8.52-1.48 14.5-1.04 30.32-.98 45.02zm108.97 0c.02-12.46.57-25.79-.66-38.3-2.59-2.85 0-11.75 4.49-8.57 5.8 4.12-1.71 22.3 2.07 32.1.34.71.28 1.39.34 2.23-1.8 4.31-1.33 7.71-1.46 12.54z"/><path fill="#444e57" d="M11.515 2048c-.251-3.18.021-6.34-.467-9.41-.07-1.09-4.918-1.75-3.967-3.04 4.668-6.32 7.762-10.43 11.366-1.35-.002.78-.192 1.85-.302 2.61 2.819.13 5.622.17 8.432.33.2 3.74.26 7.12.309 10.86z"/><path fill="#faf9f8" d="M18.146 2036.81c2.818.13 5.621.17 8.43.33.2 3.74.26 7.12.31 10.86H16.09c.284-4.14-.184-8.3 2.054-11.19m573.691-3.04c3.415-.16 5.363-.16 8.777.07l1.13 2.58c1.748 3.69 1.117 7.26 1.148 11.58h-10.595c.006-4.23.012-8.26.203-12.5z"/><path fill="#606265" d="M591.835 2033.77c3.415-.16 5.363-.16 8.777.07l1.13 2.58c-3.095-.37-6.146-.59-9.244-.92z"/><path fill="#faf9f8" d="m1577.15 2033.23 7.67 1.26.72 1.49c2.43 3.44 1.69 7.57 1.74 12.02h-11.25c.13-4.83-.34-8.23 1.46-12.54-.06-.84 0-1.52-.34-2.23"/><path fill="#7d7e80" d="m1577.15 2033.23 7.67 1.26.72 1.49c-2.98-.08-5.09-.22-8.05-.52-.06-.84 0-1.52-.34-2.23"/><path fill="#444e57" d="M1447.09 2048c-.02-2.3.49-8.84-.6-11.08-.26-.53-2.02-.71-2.68-1.91.09-1.06.51-.87 1.68-1.17 3.01-.78-.19-6.93 5.55-5.23 1.66.5 1.57 1.34 1.94 2.94.62 3.05 5.27 2.63 7.17 3.93-7.32 2.06-7.04.17-7.53 7.01l-.44 5.51zm-846.478-14.16c2.99-2.73 1.6-9.93 6.717-6.13 1.135.84-.06 5.01 1.657 5.32 3.34.14 1.877 1.95.442 3.6-1.248 1.44-.855 9.08-.94 11.37h-5.598c-.031-4.32.6-7.89-1.148-11.58zm984.208.65c1.37-2.28 3.22-9.66 8.48-3.94 1.53 1.66-.36 14.58-.41 17.45h-5.61c-.05-4.45.69-8.58-1.74-12.02zM466.188 2048c-.73-11.96-2.132-7.13-3.359-11.93.267-1.02 2.446-1.36 2.349-1.96-.623-3.89-1.58-5 4.312-5.14 1.62-.03 1.39 4.11 2.437 6.38l.476 1.93c-2.076 4.05-2.053 6.3-2.866 10.72z"/><path fill="#606265" d="M27.076 2032.02c-.02 2.55-.044 2.69-.5 5.12-2.809-.16-5.612-.2-8.43-.33.109-.76.299-1.83.3-2.61 3.947.52 6.34 1.28 8.63-2.18"/><path fill="#7d7e80" d="m480.974 2034.65-.518 1.47c-2.805.47-5.2.88-8.053 1.16l-.476-1.93c3.687-.47 5.324-.62 9.047-.7"/><metadata><recraft-signature>{&quot;signed_by&quot;: &quot;recraft&quot;, &quot;signature_b64&quot;: &quot;MIjrewb0AzBqQJ1Dv0FjaADSI7Qct1+e7bhaGm03LjMlri7ktQ7F5PIhbyqzVq9a+i8k4MhrgHXxuJFTMRtdDw==&quot;, &quot;signing_algo&quot;: &quot;Ed25519&quot;, &quot;generation_timestamp&quot;: 1777251396, &quot;identifier&quot;: &quot;cfb9a7bf-9f9a-4357-bfe2-d5eef1e9556f&quot;}</recraft-signature></metadata></svg>