<svg xmlns="http://www.w3.org/2000/svg" width="1024" height="1024" preserveAspectRatio="none" style="display:block" viewBox="0 0 2048 2048"><defs><linearGradient id="b" x1="368.03" x2="353.939" y1="1064.55" y2="1039.89" gradientUnits="userSpaceOnUse"><stop class="stop0" offset="0" stop-color="#dc9046"/><stop class="stop1" offset="1" stop-color="#bd8c67"/></linearGradient><linearGradient id="a" x1="515.796" x2="501.656" y1="935.549" y2="930.245" gradientUnits="userSpaceOnUse"><stop class="stop0" offset="0" stop-color="#676f6f"/><stop class="stop1" offset="1" stop-color="#556371"/></linearGradient></defs><path fill="#fff" d="M0 0h2048v649.498l-4.35.58-2.92-.396-12.88 1.021-18.85 1.047-3.98.866c-36.16 3.704-84.74 17.953-116.83 34.091-26.02-16.395-72.51-28.844-103.73-32.655l-4.26-.83c-13.79-.341-31.68-2.552-46.37-3.367-3.46-.315-6.42-.262-9.89-.253l-4.31.014-2.81.112c-6.53.558-21.29 2.122-27.28 1.828l-3.26.929c-34.04 3.861-88.06 17.776-116.95 35.282-28.64-18.305-73.8-30.291-107.49-33.907l-2.85-.718c-9.45.154-32.02-2.85-44.16-3.381-2.64-.083-5.47.128-8.13.247l-.52.049c-3.39.016-7.62-.128-10.85.487-4.49.347-7.89.313-12.37.26-.76.201-1.51.402-2.27.602l-14.55 1.196c-2.53.209-3.93.207-6.35.876-8.61.942-4.02 2.498-8.98 2.793-8.03-8.862-47.79-245.708-56.01-268.001-6.5-17.652-28.76-9.133-44.81-10.975-10.02-1.15-25.02-.038-35.4-.053l-135.76.159c8.24-14.71 67.99-104.741 68.86-109.129l.38-1.845c-7.67-4.881-64.64-34.2-71.75-36.501.27.842.84 2.735 1.2 3.455.12 11.075-46.04 126.681-53.95 143.939l-171.536.096c-7.959.018-90.666-1.247-92.792 2.773-9.908 18.731-15.295 54.724-19.993 76.46a13050 13050 0 0 1-29.003 131.607c-4.521 20.223-9.441 46.236-14.732 65.479-2.19-.738-3.661-1.227-5.894-1.786-11.548.409-32.941-1.714-46.134-2.121l-4.613-.163-5.11.189-3.701-.059a680 680 0 0 1-28.864 2.432l-3.668.327c-43.895 6.227-76.858 16.287-117.13 34.016-19.409-13.828-77.689-30.16-102.393-32.028l-5.148-1.132a929 929 0 0 0-43.112-3.895c-1.226-.189-4.966-.201-6.406-.245-3.167-.013-7.195.134-10.213-.35l-3.329.814c-7.622.536-21.498 1.276-28.547 2.871l-3.149.457a384.4 384.4 0 0 0-114.804 33.558c-52.816-27.258-101.203-33.111-158.87-37.631L0 649.02z"/><path fill="#cc8a4f" d="M1055.38 220.499c-3.79 3.029-7.13 6.515-12.07 6.134a8.02 8.02 0 0 1-6.05-3.443c-4.35-6.206-1.26-16.37 5.46-19.501 4.01-1.867 9.21-1.169 13.11.714a6520 6520 0 0 0 73.09 36.844 1445 1445 0 0 1 41.93 21.24c6.32 3.264 12.64 6.096 18.75 9.816 12.94 7.882 5.72 22.562-7.02 24.958-11.09-3.251-6.84-13.645-12.8-18.87-4.65-4.082-15.7-9.019-21.71-11.964-7.67-4.881-64.64-34.2-71.75-36.501-7.23-4.745-12.54-7.078-20.94-9.427m123.16-132.846c8.73 4.382 17.29 8.264 26 12.517.05.355.1.711.14 1.066-4.88 36.642-18.51 75.015-35.37 107.531-8.3 16.006-15.32 25.234-25.22 36.495-10.33-6.106-32.79-17.436-43.8-21.718 10.59-41.306 33.51-81.904 60.01-115.003 4.54-5.667 12.99-16.347 18.24-20.888"/><path fill="#cc8a4f" d="M1154.28 54.779c43.89-19.175 78.99 1.879 92.06 46.148-13.72-6.103-25.98-7.947-40.31-2.145-.89.413-.87.574-1.49 1.388-8.71-4.253-17.27-8.135-26-12.517l.2-2.344c-2.16-2.206-2.27-4.195-2.85-7.286-2.29-12.323-12.54-17.117-21.61-23.244"/><path fill="#f0dbcb" d="M1178.74 85.309c7.75 3.048 23.81 12.317 27.29 13.473-.89.413-.87.574-1.49 1.388-8.71-4.253-17.27-8.135-26-12.517z"/><path fill="#57697a" d="M1076.32 229.926c7.11 2.301 64.08 31.62 71.75 36.501l-.38 1.845c-.87 4.388-60.62 94.419-68.86 109.129l135.76-.159c10.38.015 25.38-1.097 35.4.053 16.05 1.842 38.31-6.677 44.81 10.975 8.22 22.293 47.98 259.139 56.01 268.001 4.96-.295.37-1.851 8.98-2.793 2.42-.669 3.82-.667 6.35-.876l14.55-1.196c-12.97 30.031-58.56 62.692-84.71 83.062a88 88 0 0 1-8.51 5.878l.99 3.554a575 575 0 0 0 4.77 29.173l.12 3.42c2.45 10.922 5.89 28.405 7.07 39.457l1.06 4.262q4.305 27.326 8.97 54.592c.7 4.926 1.3 9.992 2.19 14.89 1.77 13.366 3.69 26.711 5.77 40.032.69 5.19 1.53 10.551 2.38 15.719.52 5.344 1.66 9.793 1.81 15.264.43 1.178.73 2.138 1.09 3.332a7291 7291 0 0 1 19.37 125.729c1.16 7.68 6.92 47.69 8.87 53.26-.08 6.71.33 9.18 1.37 15.75l.97 5.18c.36 3.44.78 9.24 1.39 12.45l.16 4.15c2.34 14.49 9.43 98.18 11.68 103.21.8 6.26 2.04 14.12 2.56 20.27 1.08 4.3 4.21 32.48 4.71 38.77 1.68 20.98 8.24 52.03 8.68 71.86-1.73 2.17-1.34 2.01-3.48 3.6-35.08 33.87-72.38 64.52-107.97 97.53.43 9.83 10.41 87.06 9.14 89.64-31.09 30.48-67.79 59.31-99.92 89.73-.07 7.82 5.61 67.49 7.45 74.97-3.95 5.71-37.96 36.41-45.79 43.29-14.15 12.43-33.8 32.37-47.89 43.97.35 25.6.39 51.2.1 76.8-21.4 22.15-48.62 46.22-71.36 67.08-20.75-20.95-50.346-46.38-72.571-66.46-.716-25.1 1.776-51.72.806-77.13-28.747-28.7-66.803-58.32-93.894-86.58 1.583-18.62 7.783-59.13 7.656-75.21a1620 1620 0 0 0-61.523-55.58c-12.277-10.69-28.261-24.06-39.595-35.26 2.226-10.62 4.053-29.66 5.498-41.19 1.628-12.97 4.902-34.6 4.942-47.05-8.871-8.84-22.83-20.6-32.656-29.39l-80.586-71.07-2.28-1.46c-2.928-5.85 15.661-83.48 16.301-95.22.123-2.26 3.246-18.66 3.927-20.81.224-2.79.322-4.11.896-6.89l.643-5.31c-2.984-1.79-8.774.05-12.624.49-20.391 2.33-45.656 2.72-64.634-6.18-50.465-23.65-99.472-78.84-121.063-129.77 5.055-8.96 8.949-21.04 12.505-30.59 10.227-27.45 16.727-55.41 19.989-84.47l1.491-1.74c.339-5.13.63-8.98-.051-14.13.021-2.31-.007-4.21-.136-6.53l1.803-1.68c-.582-16.239 5.622-34.013 14.22-47.599-1.386-.571-1.489-.492-3.122-.761-5.097-.899-8.349-2.564-13.199-4.1-2.323-2.961-1.818-1.303-1.387-5.192-.798-.944-1.702-1.594-2.719-2.289l-1.46-1.022.187 4.723c-1.768 4.839-2.507 7.141-1.782 12.282l-3.582 3.471c-.786-8.09 2.55-30.988 3.737-40.308 1.64-8.811 6.808-28.285 6.273-36.271l.11-2.792c2.536-7.823 1.192-5.303 1.709-12.894-2.579-12.696-5.183-25.386-9.999-37.465-38.986-97.778-157.348-118.075-181.938-187.371-1.032-2.232-1.06-2.308-2.531-4.365l.25-.847c1.44.044 5.18.056 6.406.245a929 929 0 0 1 43.112 3.895l5.148 1.132c24.704 1.868 82.984 18.2 102.393 32.028 40.272-17.729 73.235-27.789 117.13-34.016l3.668-.327a680 680 0 0 0 28.864-2.432l3.701.059 5.11-.189 4.613.163c13.193.407 34.586 2.53 46.134 2.121 2.233.559 3.704 1.048 5.894 1.786 5.291-19.243 10.211-45.256 14.732-65.479a13050 13050 0 0 0 29.003-131.607c4.698-21.736 10.085-57.729 19.993-76.46 2.126-4.02 84.833-2.755 92.792-2.773l171.536-.096c7.91-17.258 54.07-132.864 53.95-143.939-.36-.72-.93-2.613-1.2-3.455"/><path fill="#57697a" d="M323.341 649.27c1.44.044 5.18.056 6.406.245a929 929 0 0 1 43.112 3.895l5.148 1.132c24.704 1.868 82.984 18.2 102.393 32.028 40.272-17.729 73.235-27.789 117.13-34.016l3.668-.327a680 680 0 0 0 28.864-2.432l3.701.059 5.11-.189 4.613.163c-1.976 9.946 1.229 25.975 2.447 34.145 9.236 61.94 41.181 106.012 99.799 129.13l.675 1.78-.478 1.32c-.786 15.183-6.191 43.209-8.896 59.198-1.125 4.785-1.755 9.649-2.659 14.475a2203 2203 0 0 0-5.62 39.379c-.904 4.657-1.546 9.507-2.386 14.213l-.578 3.526c-.669 4.049-1.294 8.08-1.316 12.19l-1.339 3.653-17.05 116.813c-2.548 17.19-5.125 39.23-8.511 55.83l-.674 3.44c.08 5.67-.13 8.1-.896 13.74l-.981 6.14c-.267 4.46-.977 12.43-2.015 16.84l.122 3.24c-2.317 13.27-9.583 103.28-11.836 107.79-2.984-1.79-8.774.05-12.624.49-20.391 2.33-45.656 2.72-64.634-6.18-50.465-23.65-99.472-78.84-121.063-129.77 5.055-8.96 8.949-21.04 12.505-30.59 10.227-27.45 16.727-55.41 19.989-84.47l1.491-1.74c.339-5.13.63-8.98-.051-14.13.021-2.31-.007-4.21-.136-6.53l1.803-1.68c-.582-16.239 5.622-34.013 14.22-47.599-1.386-.571-1.489-.492-3.122-.761-5.097-.899-8.349-2.564-13.199-4.1-2.323-2.961-1.818-1.303-1.387-5.192-.798-.944-1.702-1.594-2.719-2.289l-1.46-1.022.187 4.723c-1.768 4.839-2.507 7.141-1.782 12.282l-3.582 3.471c-.786-8.09 2.55-30.988 3.737-40.308 1.64-8.811 6.808-28.285 6.273-36.271l.11-2.792c2.536-7.823 1.192-5.303 1.709-12.894-2.579-12.696-5.183-25.386-9.999-37.465-38.986-97.778-157.348-118.075-181.938-187.371-1.032-2.232-1.06-2.308-2.531-4.365z"/><path fill="#57697a" d="m638.873 649.665 4.613.163c-1.976 9.946 1.229 25.975 2.447 34.145 9.236 61.94 41.181 106.012 99.799 129.13l.675 1.78-.478 1.32c-41.046-16.856-72.046-41.81-89.475-83.216a215.3 215.3 0 0 1-15.335-63.421c-10.816 79.063-47.667 125.439-120.113 156.59 1.713 11.566 1.162 31.938 1.069 44.217-2.946-2.291-1.923-.85-3-4.594 2.288-19.9-2.628-51.735-6.8-70.672-13.909-63.125-39.934-78.263-94.149-104.728-16.59-8.098-33.282-20.57-44.539-35.955l-.728-1.014 5.148 1.132c24.704 1.868 82.984 18.2 102.393 32.028 40.272-17.729 73.235-27.789 117.13-34.016l3.668-.327a680 680 0 0 0 28.864-2.432l3.701.059z"/><path fill="#57697a" d="M601.198 652.227a680 680 0 0 0 28.864-2.432c-1.91 28.741-8.498 48.229-30.547 68.016-21.606 19.389-64.216 38.28-92.303 46.964-8.012-17.776-12.231-24.372-24.938-39.167 41.806-14.926 95.832-34.181 118.924-73.381"/><path fill="#57697a" d="M480.4 686.57c40.272-17.729 73.235-27.789 117.13-34.016-16.694 28.459-42.88 40.075-71.954 52.801a452 452 0 0 1-45.782 17.657c-18.56-15.563-97.924-51.481-101.787-68.47 24.704 1.868 82.984 18.2 102.393 32.028"/><path fill="#cc8a4f" d="m638.873 649.665 4.613.163c-1.976 9.946 1.229 25.975 2.447 34.145 9.236 61.94 41.181 106.012 99.799 129.13l.675 1.78-.478 1.32c-41.046-16.856-72.046-41.81-89.475-83.216a215.3 215.3 0 0 1-15.335-63.421c-10.816 79.063-47.667 125.439-120.113 156.59 1.713 11.566 1.162 31.938 1.069 44.217-2.946-2.291-1.923-.85-3-4.594 2.288-19.9-2.628-51.735-6.8-70.672-13.909-63.125-39.934-78.263-94.149-104.728-16.59-8.098-33.282-20.57-44.539-35.955l-.728-1.014 5.148 1.132c3.863 16.989 83.227 52.907 101.787 68.47a452 452 0 0 0 45.782-17.657c29.074-12.726 55.26-24.342 71.954-52.801l3.668-.327c-23.092 39.2-77.118 58.455-118.924 73.381 12.707 14.795 16.926 21.391 24.938 39.167 28.087-8.684 70.697-27.575 92.303-46.964 22.049-19.787 28.637-39.275 30.547-68.016l3.701.059c-2.135 11.498-2.995 24.568-7.162 35.45-15.849 41.388-61.315 59.614-99.203 75.374-6.144 2.556-13.433 5.156-19.156 8.106 6.313 18.784 10.167 33.491 12.443 53.489 54.554-24.684 83.029-45.768 105.307-104.385 7.5-19.731 13.553-47.071 12.881-68.223"/><path fill="#57697a" d="M329.747 649.515a929 929 0 0 1 43.112 3.895l.728 1.014c11.257 15.385 27.949 27.857 44.539 35.955 54.215 26.465 80.24 41.603 94.149 104.728 4.172 18.937 9.088 50.772 6.8 70.672-5.098-12.765-6.407-20.923-13.18-35.031-31.344-65.281-86.612-88.102-139.691-129.704-11.93-9.351-36.447-34.478-37.982-50.377z"/><path fill="#d28a4c" d="M323.341 649.27c1.44.044 5.18.056 6.406.245l-1.525 1.152c1.535 15.899 26.052 41.026 37.982 50.377 53.079 41.602 108.347 64.423 139.691 129.704 6.773 14.108 8.082 22.266 13.18 35.031 1.077 3.744.054 2.303 3 4.594 1.223 3.548.904 7.019.873 10.782l1.926-.55c35.311-9.889 60.133-3.137 83.705-35.762-3.583 25.328-5.783 45.853-37.696 46-16.352.076-32.482-2.767-48.806-3.076-1.621 8.963-6.842 36.085-10.027 43.893 4.465-1.17 11.431-3.245 15.727-3.784 19.732-2.472 49.907 6.642 69.017 12.867a78 78 0 0 0-.481 3.707c-20.192 14.763-37.986 23.819-63.519 20.021-1.386-.571-1.489-.492-3.122-.761-5.097-.899-8.349-2.564-13.199-4.1-2.323-2.961-1.818-1.303-1.387-5.192-.798-.944-1.702-1.594-2.719-2.289l-1.46-1.022.187 4.723c-1.768 4.839-2.507 7.141-1.782 12.282l-3.582 3.471c-.786-8.09 2.55-30.988 3.737-40.308 1.64-8.811 6.808-28.285 6.273-36.271l.11-2.792c2.536-7.823 1.192-5.303 1.709-12.894-2.579-12.696-5.183-25.386-9.999-37.465-38.986-97.778-157.348-118.075-181.938-187.371-1.032-2.232-1.06-2.308-2.531-4.365z"/><path fill="#57697a" d="M512.209 941.005c22.488 6.838 39.064 6.876 61.29.858 3.939-1.067 11.96 1.221 16.1 2.207-24.513 16.553-46.08 23.886-74.513 10.348-.798-.944-1.702-1.594-2.719-2.289l-1.46-1.022c1.032-4.551.952-5.443 1.302-10.102m60.242 240.795c13.304-16.01 33.622-42.83 57.621-35.78 2.03.6 10.371 2.94 12.002 2.54 24.019-5.88 34.762-8.48 52.949 10.24-.267 4.46-.977 12.43-2.015 16.84-37.824-8.99-80.601-11.9-115.78 7.32z"/><path fill="#57697a" d="M619.521 1118.09c6.795 2.01 16.499 6.77 23.451 9.75 28.986-11.17 29.932-11.63 53.928 11.08.08 5.67-.13 8.1-.896 13.74-13.927-8.75-25.031-16.13-41.56-10.75-14.675 4.77-27.51-2.94-39.345-.44-18.065 3.81-34.71 24.44-45.859 38.28l-3.066-1.01c10.241-23.69 28.782-50.44 53.347-60.65"/><path fill="#cc8a4f" d="M552.975 1200.92c7.766-25.96 22.574-52.73 42.214-71.58 18.976-18.21 26.77-14.67 47.856-5.55 13.485-7.3 23.881-10.58 38.667-3.06 4.49 2.28 14.228 10.17 15.862 14.75l-.674 3.44c-23.996-22.71-24.942-22.25-53.928-11.08-6.952-2.98-16.656-7.74-23.451-9.75-24.565 10.21-43.106 36.96-53.347 60.65l3.066 1.01c11.149-13.84 27.794-34.47 45.859-38.28 11.835-2.5 24.67 5.21 39.345.44 16.529-5.38 27.633 2 41.56 10.75l-.981 6.14c-18.187-18.72-28.93-16.12-52.949-10.24-1.631.4-9.972-1.94-12.002-2.54-23.999-7.05-44.317 19.77-57.621 35.78l4.777 1.16c35.179-19.22 77.956-16.31 115.78-7.32l.122 3.24c-5.002-.2-18.54-4.93-25.513-5.56-56.689-5.14-69.245 1.68-114.642 27.6"/><path fill="#596d73" d="m572.451 1181.8 4.777 1.16c-1.243.7-6.214 4.02-7.55 3.27-.419-1.17.772-2.18 1.501-2.97z"/><path fill="#696963" d="m566.174 1178.74 3.066 1.01c-4.381 5.63-7.116 7.18-3.066-1.01"/><path fill="#d28a4c" d="M674.736 843.944c17.353 25.478 33.466 26.489 62.297 31.457-1.125 4.785-1.755 9.649-2.659 14.475-13.966 1.794-30.839 3.075-43.202-5.129-14.699-9.754-14.504-25.334-16.436-40.803m13.493 97.134c8.531-2.945 32.06-9.907 40.525-11.823-.904 4.657-1.546 9.507-2.386 14.213l-.578 3.526c-.669 4.049-1.294 8.08-1.316 12.19l-1.339 3.653c-11.847-2.952-24.218-10.099-34.396-16.721-.124-2.096-.207-2.969-.51-5.038"/><path fill="#57697a" d="M695.376 943.18c9.814-.635 21.229-.916 30.992.288l-.578 3.526c-.669 4.049-1.294 8.08-1.316 12.19-13.399-5.274-17.56-6.9-29.098-16.004"/><path fill="#cdcfd3" d="M688.739 946.116c2.588 10.449 11.205 44.39 6.477 52.696-3.095 1.908-1.477 1.578-4.993 1.151-2.547-2.436-1.829-1.003-2.347-4.384 11.395-25.765-7.419-48.698-.94-74.998.823-3.344 5.422-24.196 6.729-25.457 1.475 11.172-7.484 23.444-5.436 45.954.303 2.069.386 2.942.51 5.038"/><path fill="#57697a" d="M692.921 985.517c2.536 5.541 2.136 7.674.17 13.058-3.993-3.519-1.345-7.938-.17-13.058"/><path fill="#cdcfd3" d="M596.794 940.743c.088-1.14.408-5.514.602-6.231 2.363-8.741-12.401-33.595-5.333-40.982.757-.215.993 1.514.98 1.949-.232 7.098-.312 13.29 2.405 19.968 3.619 8.894 4.666 13.516 3.751 23.052-.929 9.69-3.172 17.202-5.834 26.52-.838 3.482-1.572 8.566-1.572 12.092 0 2.963-2.19 2.504-2.24 1.468-.503-10.491 5.221-23.91 6.76-34.129.147-1.313.274-2.396.481-3.707m-80.023 73.007 1.803-1.68c1.064 7.75 4.027 16.64-1.616 22.34.339-5.13.63-8.98-.051-14.13.021-2.31-.007-4.21-.136-6.53"/><path fill="#d28a4c" d="M597.011 1057.98c6.229 8.74 21.916-.9 24.547 7.06-.98 3.17-13.916 7.16-18.048 4.85-4.848-2.71-4.789-3.88-7.655-7.82.397-1.36.782-2.72 1.156-4.09m92.46 3 2.541 1.98c-5.581 7.29-9.45 9.64-18.393 5.67-17.845-7.93 11.968-7.52 15.852-7.65"/><path fill="#cc8a4f" d="M626.328 1066.75c6.023 2.03 7.075 6 13.164 7.18 6.223 1.18 11.772.18 17.008-3.43 1.729-1.2 3.811-3.19 5.405-1.44-11.236 10.36-27.431 12.58-35.577-2.31m63.143-5.77c7.885-14.1-5.399-25.38-5.347-28.4 3.955-4.72 12.094 19.09 10.223 22.43.726-1.3-2.729 9.08-2.335 7.95zm-93.616 1.09c-2.287-8.51-3.069-22.5 5.623-28.06l.217.1c.459 2.35-6.701 10.56-4.684 23.87a242 242 0 0 1-1.156 4.09"/><path fill="#080807" d="M1085.07 637.985c.44 3.589.63 4.186 1.71 7.64.43 86.226 5.25 179.908 8.07 266.611l19.69 591.644c3.02 83.46 9.01 169.55 10.81 252.73 13.44 2.78 52.78 9.59 63.32 13.53-3.95 5.71-37.96 36.41-45.79 43.29-14.15 12.43-33.8 32.37-47.89 43.97-3.42-28.1-2.52-79.2-3.13-108.98-1.7-80.54-2.73-161.09-3.09-241.64zm-123.315 35.356-.036 30.05c.413 7.804.409 22.061-.55 29.688.937 279.961-.373 559.921-3.928 839.861l-1.993 114.56c-.487 56.13-.472 114.16-3.283 170.19-28.747-28.7-66.803-58.32-93.894-86.58 3.315-4.11 53.834-13.3 62.281-15.03 5.736-82.41 8.644-166.88 12.353-249.44 7.839-152.7 13.505-305.49 16.995-458.35l8.069-281.858c.666-28.532 2.389-57.339 2.451-85.801 1.296-4.139.757-3.648 1.535-7.29"/><path fill="#262d37" d="M961.169 733.079c-.461-7.215-1.311-23.13.55-29.688.413 7.804.409 22.061-.55 29.688"/><path fill="#080807" d="m878.854 551.003-.315 5.198c.098 1.053.123.939-.441 1.841l-94.425 966.188c-2.283-2.06-6.187-5.82-8.624-7.41-8.871-8.84-22.83-20.6-32.656-29.39l-80.586-71.07c4.614-.59 24.509 2.41 30.465 3.11 21.542 2.52 43.723 6.41 65.326 7.88 11.906-65.84 22.045-136.32 31.911-202.56a13577 13577 0 0 0 57.248-422.778 15366 15366 0 0 0 22.98-184.225c1.646-14.606 7.286-50.193 7.42-62.698.807-1.691 1.23-2.367 1.697-4.086"/><path fill="#334252" d="M878.098 558.042c-.003-1.141-.136-1.104.441-1.841.098 1.053.123.939-.441 1.841"/><path fill="#080807" d="M1170.8 555.256c3.13 19.551 5.34 41.961 7.69 61.826l14.48 122.165a19210 19210 0 0 0 65.44 487.423c9.56 64.06 18.69 137.57 31.12 200.74 11.65-1.24 86.37-11.43 90.44-9.14-35.08 33.87-72.38 64.52-107.97 97.53l-7.22 7a27926 27926 0 0 1-56.99-579.646c-12.13-128.806-26.98-258.931-37.75-387.531z"/><path fill="#080807" d="M1132.11 854.847c.49 1.827 1.04 2.857 1.82 4.578l.05 6.922c.83.961.69 1.273.6 2.58a9907 9907 0 0 0 39.13 463.653c5.84 57.72 12.19 115.39 19.06 172.99l7.89 68.52c1.21 10.26 2.5 24.81 4.25 34.73 15.21-1.14 62.76-4.82 76.23-3.38-31.09 30.48-67.79 59.31-99.92 89.73-3.11-6.71-6.61-70.96-7.43-81.88-6.42-84.43-12.02-168.92-16.82-253.46l-10.25-221.53-8.05-158.169c-2.03-37.446-4.87-78.201-5.69-115.514-1.07-1.336-.83-1.705-.58-3.318z"/><path fill="#334252" d="M1132.4 861.299c1.28 1.376 1.03 1.475.58 3.318-1.07-1.336-.83-1.705-.58-3.318m1.58 5.048c.83.961.69 1.273.6 2.58-.91-1.078-.85-1.196-.6-2.58"/><path fill="#080807" d="m914.923 873.529-.286 8.774c.265 1.65.5 1.986-.601 3.348l-.367 10.634c.308 2.358.639 3.417-.597 5.394-.695 36.667-4.111 77.967-6.04 114.961l-11.662 235.84c-2.445 55.02-4.177 108.63-7.4 163.85a9321 9321 0 0 1-11.549 155.28 7102 7102 0 0 1-6.946 84.49c-.941 10.73-2.027 29.45-3.748 39.8a1620 1620 0 0 0-61.523-55.58c-12.277-10.69-28.261-24.06-39.595-35.26 24.253-.38 53.668 2.89 78.376 4.13 3.541-20.73 6.201-50.22 8.684-71.45l16.76-148.91a10463 10463 0 0 0 32.294-343.25c3.573-45.885 8.391-95.854 10.651-141.646-.109-1.539-.267-1.556.502-2.655l.547-11.14c.064-.975-.064-1.111.511-1.811.176-3.161.134-6.674.162-9.872.84-1.944 1.322-2.87 1.827-4.927"/><path fill="#334252" d="M913.072 901.679c-.605-2.439-1.125-3.461.597-5.394.308 2.358.639 3.417-.597 5.394m.964-16.028c-.468-1.872-.722-1.972.601-3.348.265 1.65.5 1.986-.601 3.348m-2.662 18.283c-.109-1.539-.267-1.556.502-2.655.255 1.375.321 1.534-.502 2.655m1.049-13.795c.064-.975-.064-1.111.511-1.811.148.925.064 1.036-.511 1.811"/><path fill="#57697a" d="M643.486 649.828c13.193.407 34.586 2.53 46.134 2.121 2.233.559 3.704 1.048 5.894 1.786 4.197 4.9 65.726 26.38 72.844 33.882l-.533 1.904c-3.226 19.092-7.727 41.752-10.299 60.517l-.809 4.92c-3.9 19.7-7.031 40.073-10.31 59.925l-.675-1.78c-58.618-23.118-90.563-67.19-99.799-129.13-1.218-8.17-4.423-24.199-2.447-34.145"/><path fill="#cc8a4f" d="M756.717 754.958c-5.777-5.67-19.015-14.551-26.255-19.236-26.909-17.408-54.984-34.795-74.173-61.171-4.211-5.788-10.157-15.54-11.668-22.487l.877-1.103c3.124 2.305 5.671 10.441 8.119 14.227 24.459 37.839 67.702 59.583 103.909 84.85zM689.62 651.949c2.233.559 3.704 1.048 5.894 1.786 4.197 4.9 65.726 26.38 72.844 33.882l-.533 1.904c-2.505-.031-23.681-11.041-28.21-12.959-14.153-6.261-28.471-12.214-42.711-18.271-6.086-2.589-4.603-2.127-7.284-6.342"/><path fill="#080807" d="M809.243 471.987c.167 1.685.493 3.552.754 5.25a4691 4691 0 0 0-18.436 139.745c-6.088 54.066-11.426 111.485-18.756 165.149a6018 6018 0 0 1-90.051 510.279l-2.103-.43.643-5.31c2.253-4.51 9.519-94.52 11.836-107.79l-.122-3.24c1.038-4.41 1.748-12.38 2.015-16.84l.981-6.14c.766-5.64.976-8.07.896-13.74l.674-3.44c3.386-16.6 5.963-38.64 8.511-55.83l17.05-116.813 1.339-3.653c.022-4.11.647-8.141 1.316-12.19l.578-3.526c.84-4.706 1.482-9.556 2.386-14.213a2203 2203 0 0 1 5.62-39.379c.904-4.826 1.534-9.69 2.659-14.475 2.705-15.989 8.11-44.015 8.896-59.198l.478-1.32c3.279-19.852 6.41-40.225 10.31-59.925l.809-4.92c2.572-18.765 7.073-41.425 10.299-60.517l.533-1.904c1.657-11.621 6.399-32.069 8.738-44.641l21.332-113.05c2.718-14.029 9.852-45.155 10.815-57.939m426.417 5.074 31.03 157.15a5019 5019 0 0 1 14.45 71.913c1.88 9.725 5.3 24.887 6.33 34.222l.99 3.554a575 575 0 0 0 4.77 29.173l.12 3.42c2.45 10.922 5.89 28.405 7.07 39.457l1.06 4.262q4.305 27.326 8.97 54.592c.7 4.926 1.3 9.992 2.19 14.89 1.77 13.366 3.69 26.711 5.77 40.032.69 5.19 1.53 10.551 2.38 15.719.52 5.344 1.66 9.793 1.81 15.264.43 1.178.73 2.138 1.09 3.332a7291 7291 0 0 1 19.37 125.729c1.16 7.68 6.92 47.69 8.87 53.26-.08 6.71.33 9.18 1.37 15.75l.97 5.18c.36 3.44.78 9.24 1.39 12.45l.16 4.15c2.34 14.49 9.43 98.18 11.68 103.21.8 6.26 2.04 14.12 2.56 20.27-4.15-6.64-16.17-70.25-18.9-83.28a6469 6469 0 0 1-79.08-449.178c-5.62-40.229-8.99-83.643-13.79-124.298a6536 6536 0 0 0-23.39-167.215c.27-.999.52-2.002.76-3.008"/><path fill="#cdcfd3" d="M1076.32 229.926c7.11 2.301 64.08 31.62 71.75 36.501l-.38 1.845c-10.16-5.807-21.58-11.679-31.94-17.283-9.89 17.257-19.77 38.912-28.97 57.051a4816 4816 0 0 0-44.82 88.673c-8.2 17.072-28.06 63.416-37.66 75.06 3.77-9.84 9.48-21.465 14.2-30.961 31.31-62.927 61.56-128.295 94.62-190.189-7.57-4.46-27.65-14.332-35.6-17.242-.36-.72-.93-2.613-1.2-3.455"/><path fill="#334252" d="M960.22 680.631c-.227-4.214.552-43.693 1.52-45.998l.529-.099c2.003 2.053-.059 34.538-.514 38.807-.778 3.642-.239 3.151-1.535 7.29m171.89 174.216c-1.18-4.299-3.46-41.098-2.54-44.033-.34 2.015.36-.424.51 1.693 1.02 14.491 3.77 32.642 3.85 46.918-.78-1.721-1.33-2.751-1.82-4.578"/><path fill="#d28a4c" d="M1359.79 653.478c2.42-.669 3.82-.667 6.35-.876-2.25 1.994-12.25 12.119-14.21 11.141-1.33-2.321 6.22-8.506 7.86-10.265"/><path fill="#334252" d="M877.157 555.089c.006-2.866 1.6-23.066 3.115-23.296.458.401.276.163.546.715l-.541.237-.059.51.908.853c-.342 4.969-.874 12.186-2.272 16.895-.467 1.719-.89 2.395-1.697 4.086m357.743-75.02c-1-3.321-2.1-11.483-2.79-15.088-1.46-.007-.66-13.572.83-5.998.96 4.885 2.53 13.557 2.72 18.078-.24 1.006-.49 2.009-.76 3.008M913.096 878.456c.018-2.481.246-14.148 2.356-15.269 1.441.277-.322 9.276-.529 10.342-.505 2.057-.987 2.983-1.827 4.927m256.944-322.833c-3.39-11.75 1.9-15.549.76-.367zm-84.97 82.362-.2-1.418c-.15-.869.02-1.237.36-2.117 2.72-.807 1.6 10.148 1.55 11.175-1.08-3.454-1.27-4.051-1.71-7.64"/><path fill="#262d37" d="m680.651 1291.98 2.103.43c-.344 1.52-1.038 5.69-2.118 6.81-.294-.12-.588-.23-.881-.35.224-2.79.322-4.11.896-6.89"/><path fill="#334252" d="M809.243 471.987c1.59-8.996 2.364-.401.754 5.25-.261-1.698-.587-3.565-.754-5.25"/><path fill="#f10402" d="M1014.76 479.189c30.95-3.922 59.25 17.921 63.29 48.858 4.05 30.937-17.68 59.32-48.6 63.487-31.097 4.189-59.674-17.69-63.741-48.8s17.925-59.601 49.051-63.545"/><path fill="#080807" d="M1046.34 416.972c49.85-.065 103.43 1.342 153.36 2.179 4.33-.297 33.2-.363 34.96.849-.78 1.6-9.74 1.515-11.69 1.631-43.14 2.565-87.31 9.005-130.55 12.132-20.67 1.494-42.72 3.181-63.23 5.763 7.55-7.431 11.39-13.873 17.15-22.554"/><path fill="#334252" d="M1199.7 419.151c4.33-.297 33.2-.363 34.96.849-.78 1.6-9.74 1.515-11.69 1.631l.48-.957c-1.79-.861-19.83-1.054-23.75-1.523"/><path fill="#080807" d="m887.889 438.246 83.582-11.059c12.293-1.645 30.779-4.694 42.769-5.492-.44 6.219-.82 10.954-1.77 17.142-7.54-1.191-35.384.104-44.876.203q-27.777.082-55.547.66c-5.522.127-19.687.17-24.48.897z"/><path fill="#262d37" d="M887.567 440.597c-1.219-.185-2.873-.09-3.896-.912-.089-1.287 3.47-1.365 4.218-1.439z"/><path fill="#334252" d="M915.401 854.478c.104.052.215.092.313.155.295.188.32 1.112.339 1.243-.944-.439-.535-.423-.652-1.398"/><path fill="#57697a" d="M1723.94 649.602c3.47-.009 6.43-.062 9.89.253 14.69.815 32.58 3.026 46.37 3.367l4.26.83c31.22 3.811 77.71 16.26 103.73 32.655 32.09-16.138 80.67-30.387 116.83-34.091l3.98-.866 18.85-1.047 12.88-1.021 2.92.396 4.35-.58v639.522c-33.58-4.16-43.91-8.03-71.62-28.95-39.85-30.09-65.36-64.76-87.33-109.16l-1.48-.42c-20.11 45.81-43.2 74.65-81.32 107.72-32.88 28.51-77.35 39.97-118.67 21.46-39.48-17.69-76.03-59.73-99.7-95.28-7.53-11.62-12.03-21.61-18.45-32.93l-1.46-.51c-17.6 42.01-44.28 78.91-80.55 107.18-10.35 8.07-19.72 15.78-35.86 22.72-22.08 9.49-59.14 11.17-82.56 1.73-.5.4-1 .8-1.5 1.19-2.25-5.03-9.34-88.72-11.68-103.21l-.16-4.15c-.61-3.21-1.03-9.01-1.39-12.45l-.97-5.18c-1.04-6.57-1.45-9.04-1.37-15.75-1.95-5.57-7.71-45.58-8.87-53.26-6.09-41.97-12.55-83.88-19.37-125.729a57 57 0 0 0-1.09-3.332c-.15-5.471-1.29-9.92-1.81-15.264-.85-5.168-1.69-10.529-2.38-15.719-2.08-13.321-4-26.666-5.77-40.032-.89-4.898-1.49-9.964-2.19-14.89q-4.665-27.266-8.97-54.592l-1.06-4.262c-1.18-11.052-4.62-28.535-7.07-39.457l-.12-3.42a575 575 0 0 1-4.77-29.173l-.99-3.554a88 88 0 0 0 8.51-5.878c26.15-20.37 71.74-53.031 84.71-83.062.76-.2 1.51-.401 2.27-.602 4.48.053 7.88.087 12.37-.26 3.23-.615 7.46-.471 10.85-.487l.52-.049c2.66-.119 5.49-.33 8.13-.247 12.14.531 34.71 3.535 44.16 3.381l2.85.718c33.69 3.616 78.85 15.602 107.49 33.907 28.89-17.506 82.91-31.421 116.95-35.282l3.26-.929c5.99.294 20.75-1.27 27.28-1.828l2.81-.112z"/><path fill="#57697a" d="M1395.33 650.544c3.23-.615 7.46-.471 10.85-.487l.52-.049.38 1.22c1.64 1.524.93 1.134 2.97 1.935l2.23-.367c6.05 11.734 8.97 19.845 17.59 29.901 16.06 18.741 36.1 33.176 56.55 46.58 37.93 24.863 69.85 46.989 94.55 86.373 13.54 21.575 22.69 44.87 24.23 70.694 2.13-1.417 3.07-3.258 4.51-5.395l1.45-.488c33.94-11.289 59.78-1.619 84.35-35.237-3.19 54.335-27.12 46.2-71.34 43.178-4.98-.34-10.85-.373-15.88-.25-.82 15.508-4.84 28.993-8.7 43.955 19.77-8.849 37.11-3.892 57.08 1.402 8.28 2.193 19.63 4.713 27.45 7.81l-.79 4.547c-18.09 11.152-40.68 23.897-62.92 18.422-1.18-.892-1.43-.775-2.89-.57-8.47 11.475-12.89 25.609-14.8 39.622-.84-.33-1.68-.67-2.53-1 0 1.33.04 2.44.09 3.76l-2.11 3.72c3.47 38.54-4.41 69.47-17.23 105.95-3.23 9.19-11 26.92-12.97 35.18-17.6 42.01-44.28 78.91-80.55 107.18-10.35 8.07-19.72 15.78-35.86 22.72-22.08 9.49-59.14 11.17-82.56 1.73-.5.4-1 .8-1.5 1.19-2.25-5.03-9.34-88.72-11.68-103.21l-.16-4.15c-.61-3.21-1.03-9.01-1.39-12.45l-.97-5.18c-1.04-6.57-1.45-9.04-1.37-15.75-1.95-5.57-7.71-45.58-8.87-53.26-6.09-41.97-12.55-83.88-19.37-125.729a57 57 0 0 0-1.09-3.332c-.15-5.471-1.29-9.92-1.81-15.264-.85-5.168-1.69-10.529-2.38-15.719-2.08-13.321-4-26.666-5.77-40.032-.89-4.898-1.49-9.964-2.19-14.89q-4.665-27.266-8.97-54.592l-1.06-4.262c-1.18-11.052-4.62-28.535-7.07-39.457l-.12-3.42a575 575 0 0 1-4.77-29.173l-.99-3.554a88 88 0 0 0 8.51-5.878c26.15-20.37 71.74-53.031 84.71-83.062.76-.2 1.51-.401 2.27-.602 4.48.053 7.88.087 12.37-.26"/><path fill="#57697a" d="m1410.05 653.163 2.23-.367c6.05 11.734 8.97 19.845 17.59 29.901 16.06 18.741 36.1 33.176 56.55 46.58 37.93 24.863 69.85 46.989 94.55 86.373 13.54 21.575 22.69 44.87 24.23 70.694-1.47.879-.6.62-2.69.428-6.42-34.902-30.18-43.795-58.84-57.954-26.76-13.22-56.86-25.895-79.88-45.055-38.83-32.312-49.82-82.555-53.74-130.6m-14.72-2.619c3.23-.615 7.46-.471 10.85-.487l.52-.049.38 1.22c-.19 43.168-21.25 99.675-52.51 129.457-12.13 11.556-37.9 31.536-54.15 35.265-1.18-11.052-4.62-28.535-7.07-39.457l-.12-3.42a575 575 0 0 1-4.77-29.173l-.99-3.554a88 88 0 0 0 8.51-5.878c26.15-20.37 71.74-53.031 84.71-83.062.76-.2 1.51-.401 2.27-.602 4.48.053 7.88.087 12.37-.26"/><path fill="#57697a" d="M1382.96 650.804c4.48.053 7.88.087 12.37-.26 2 1.439 2.73 1.463 2.67 4.515-.92 52.382-48.35 84.358-88.56 108.972-5.05 3.094-11 6.843-16.21 9.042a575 575 0 0 1-4.77-29.173l-.99-3.554a88 88 0 0 0 8.51-5.878c26.15-20.37 71.74-53.031 84.71-83.062.76-.2 1.51-.401 2.27-.602"/><path fill="#cc8a4f" d="M1380.69 651.406c.76-.2 1.51-.401 2.27-.602l-.15 1.585c-1.84 22.907-74.42 77.334-94.35 91.511l-.99-3.554a88 88 0 0 0 8.51-5.878c26.15-20.37 71.74-53.031 84.71-83.062m14.64-.862c3.23-.615 7.46-.471 10.85-.487-3.86 2.73-4.76 2.763-5.34 8.375-4.2 40.711-24.89 63.631-57.38 86.933-14.27 10.225-33.89 22.81-50.11 31.128l-.12-3.42c5.21-2.199 11.16-5.948 16.21-9.042 40.21-24.614 87.64-56.59 88.56-108.972.06-3.052-.67-3.076-2.67-4.515"/><path fill="#d28a4c" d="M1407.08 651.228c1.64 1.524.93 1.134 2.97 1.935 3.92 48.045 14.91 98.288 53.74 130.6 23.02 19.16 53.12 31.835 79.88 45.055 28.66 14.159 52.42 23.052 58.84 57.954 2.09.192 1.22.451 2.69-.428 2.13-1.417 3.07-3.258 4.51-5.395l1.45-.488c33.94-11.289 59.78-1.619 84.35-35.237-3.19 54.335-27.12 46.2-71.34 43.178-4.98-.34-10.85-.373-15.88-.25-.82 15.508-4.84 28.993-8.7 43.955 19.77-8.849 37.11-3.892 57.08 1.402 8.28 2.193 19.63 4.713 27.45 7.81l-.79 4.547c-18.09 11.152-40.68 23.897-62.92 18.422-1.18-.892-1.43-.775-2.89-.57-8.47 11.475-12.89 25.609-14.8 39.622-.84-.33-1.68-.67-2.53-1 0 1.33.04 2.44.09 3.76l-2.11 3.72c-4.39-15.967-6.84-25.767-12.1-42.519 2.33-2.77 2.11-5.842 2.49-9.592.24-2.786.1-3.797-.2-6.628-.45 2.492-.37 3.94-2.02 5.773-2.5-1.832-2.17-1.929-2.92-5.113-6.75-25.695-12.34-77.872-10.95-103.993l-1.59-1.439c-10.73-4.637-22.51-12.905-33.23-17.607-80.66-35.379-115.16-64.733-128.77-155.486-7.01 29.618-7.68 41.655-23.5 70.695-15.97 29.335-33.71 46.974-62.2 64.661-6.26 3.887-14.83 9.579-21.7 11.64l-1.06-4.262c16.25-3.729 42.02-23.709 54.15-35.265 31.26-29.782 52.32-86.289 52.51-129.457"/><path fill="#57697a" d="M1572.47 847.748c52.39 38.318 9.22 56.133 12.96 99.942l-2.01 4.051c-6.75-25.695-12.34-77.872-10.95-103.993m30.01 111.369c1.38-1.3 5.04-.264 5.01 1.754 4.52 2 5.07 2.278 10.03 2.847-8.47 11.475-12.89 25.609-14.8 39.622-.84-.33-1.68-.67-2.53-1-1.2-6.803-2.93-13.173-4.5-19.882 1.59-4.686 2.51-8.058 4.54-12.689l-3.12-1.083c2.07-3.437 3.58-5.966 5.37-9.569"/><path fill="#d28a4c" d="M1602.48 959.117c1.38-1.3 5.04-.264 5.01 1.754-4.27 1.032-5.49 4.901-7.26 8.898l-3.12-1.083c2.07-3.437 3.58-5.966 5.37-9.569"/><path fill="#57697a" d="M1588.36 951.081c-1.34-21.503 3.86-38.26 14.88-56.679l1.64-2.793c-2.19 11.827-5.09 23.499-7.17 35.288l-1.89 11.096c-.4 2.463-.59 3.489-.89 6.001l-3.38 28.241c-2.02-6.472-2.42-8.06-2.99-14.526.24-2.786.1-3.797-.2-6.628"/><path fill="#596d73" d="M1597.11 968.686c-1.18-2.645-1.01-11.462.43-13.147 1.77 1.055 2.87 2.417 4.94 3.578-1.79 3.603-3.3 6.132-5.37 9.569"/><path fill="#696963" d="M1585.43 947.69c.31 3.662.23 5.435.91 9.164-2.5-1.832-2.17-1.929-2.92-5.113z"/><path fill="#57697a" d="M1599.57 940.446c1.49.397 2.97.852 4.44 1.238l4.01 1.03c12.71 3.163 25.08 6.023 38.01 2.396 13.38-3.751 18.43-3.774 31.39-.14-3.46 2.193-6.07 3.717-9.64 5.679-27.75 14.312-43.11 14.119-70.32.424.64-3.831 1.43-6.924 2.11-10.627m-188.93 208.874c6.11-1.89 16.82-5.73 22.51-7.01 23.13 7.62 36.02 24.64 50.97 43.17-44.37-18.15-81.1-24.46-128.46-9.07-.61-3.21-1.03-9.01-1.39-12.45 2.15-1.08 9.18-6.93 11.4-9.02 15.15-14.24 25.63-12.05 44.97-5.62"/><path fill="#57697a" d="M1351.93 1143.03c8.31-3.08 17.9-17.16 28.56-20.92 14.66-5.18 19.56 4.42 33.54 4.18 9.8-1.71 12.98-10.77 27.33-5.06 19.92 7.94 39.71 39.77 47.39 58.41q1.53 3.72 2.94 7.5c-12.68-16.3-35.31-45.3-56.89-47.59-10.18-1.08-22.7 7.5-37.71 2.28-15.83-5.5-31.16 7.65-43.79 16.95-1.04-6.57-1.45-9.04-1.37-15.75"/><path fill="#d28a4c" d="M1351.93 1143.03c1.11-8.1 28.78-29.29 38.38-27 6.78 1.61 14.81 4.7 21.38 7.29 8.44-4.62 19.31-9.59 28.82-5.97 29.53 11.22 52.04 55.4 61.14 82.66-11.74-5.93-30.22-15.84-42.03-20.33-30.31-11.51-69.59-10.68-100.18-.41-1.22.41-2.42.83-3.62 1.29l-.16-4.15c47.36-15.39 84.09-9.08 128.46 9.07-14.95-18.53-27.84-35.55-50.97-43.17-5.69 1.28-16.4 5.12-22.51 7.01-19.34-6.43-29.82-8.62-44.97 5.62-2.22 2.09-9.25 7.94-11.4 9.02l-.97-5.18c12.63-9.3 27.96-22.45 43.79-16.95 15.01 5.22 27.53-3.36 37.71-2.28 21.58 2.29 44.21 31.29 56.89 47.59q-1.41-3.78-2.94-7.5c-7.68-18.64-27.47-50.47-47.39-58.41-14.35-5.71-17.53 3.35-27.33 5.06-13.98.24-18.88-9.36-33.54-4.18-10.66 3.76-20.25 17.84-28.56 20.92m-41.48-268.226c32.78-5.823 43.05-2.287 65.97-30.294-1.45 13.412-1.8 32.462-14.72 40.136-13.51 8.022-34.02 6.256-49.06 5.048-.89-4.898-1.49-9.964-2.19-14.89m7.96 54.922c3.3-1.04 23.61 4.925 27.62 6.057l5.9 1.586c3.48.959 6.93 1.977 10.37 3.055.66.243 1.32.486 1.99.729l-.51 4.472c-17.77 9.657-20.41 12.069-40.09 18.416a57 57 0 0 0-1.09-3.332c-.15-5.471-1.29-9.92-1.81-15.264-.85-5.168-1.69-10.529-2.38-15.719"/><path fill="#57697a" d="M1320.79 945.445c18.33-2.337 15.86-5.417 36.56-1.602-13.87 10.085-18.77 11.852-34.75 16.866-.15-5.471-1.29-9.92-1.81-15.264"/><path fill="#cc8a4f" d="m1570.88 846.309 1.59 1.439c-1.39 26.121 4.2 78.298 10.95 103.993.75 3.184.42 3.281 2.92 5.113 1.65-1.833 1.57-3.281 2.02-5.773.3 2.831.44 3.842.2 6.628-.38 3.75-.16 6.822-2.49 9.592-10.32-25.566-21.5-95.093-15.19-120.992"/><path fill="#cdcfd3" d="M1364.29 941.153c.06-4.732.85-11.021-.43-15.607-1.17-4.212-10.03-28.227-4.2-31.348-.32-.331 2.74 26.852 6.32 30.812 2.42 2.682-.38 23.302-1.82 28.519l-.49 1.871c-.88 3.166-5.68 24.021-6.26 24.77l-.5.162c-2.03-1.568 6.06-30.247 6.87-34.707z"/><path fill="#d28a4c" d="M1456.37 940.542c56.3-13.566 49.74-21.841 106.72 1.005-14.68 9.974-22.9 16.498-39.93 21.903l-1.9-.633-1.8 1.573-4.05.355c-24.66 2.127-39.76-4.943-58.66-20.865z"/><path fill="#57697a" d="M1462.85 942.433c21.78-2.391 40.56 8.765 61.64 2.329 11.19-3.419 17.21-2.232 28.44-1.284-3.44 2.212-6.89 4.405-10.38 6.521-22.14 14.222-50.61 16.825-71-1.081-2.74-2.404-6.64-3.998-8.7-6.485"/><path fill="#d28a4c" d="M1443.08 845.847c23.74 31.503 46.18 22.504 79.77 32.049 11.65 3.311 38.04 16.019 38.68 29.268-21.12-25.343-45.03-17.841-73.91-16.566-32.31 1.425-44.96-13.507-44.54-44.751"/><path fill="#cc8a4f" d="m1519.46 964.39 1.8-1.573 1.9.633c28.25 52.4-.76 77.21 6.08 133.32l-1.64 1.62c-13.45-48.72 22.2-72.2-8.14-134"/><path fill="#cdcfd3" d="M1456.75 943.88c1.2 10.329 14.89 54.771 1.76 56.59-4.15-5.658 1.55-15.579.81-25.351-1.18-15.618-6.38-30.894-5.57-46.256.67-12.805 4.49-20.301 5.79-34.079l.73.395c2.66 6.513-3.32 23.088-4.12 30.626-.55 5.188-.15 9.557.22 14.737zm80.16 17.737c5.45 3.549 11.56 17.829 12.08 23.897.91 10.667 10.08 34.056 2.45 42.046l-1.34 1.46c-10.52-7.1-4.26-13.58-2.5-25.38 2.54-17.093-4.22-27.551-10.69-42.023"/><path fill="#57697a" d="M1549.41 1004.76c3.61 3.84 3.52 16.26.04 21.5-6.02-5.23-1.67-13.75-.04-21.5"/><path fill="#d28a4c" d="M1365.15 1060.83c5.49 1.26 13.82-.82 20.38 1.22 7.07 2.19.41 5.48-3.07 6.79-9.85 3.27-13.05 1.35-19.06-6.31zm93.93-2.19c.66-.6.42-.44.78-.63.43.18.51.52.77 1.02-1.93 5.29-4.68 10.21-10.61 11.09-9.28 1.38-21.78-7.92-4.02-8.98 3.52-.2 8.65.84 11.49-1.29z"/><path fill="#cdcfd3" d="m1529.24 1096.77.22.91c1.66 6.7 17.28 48.29 5.26 46.44-.45-.58-.9-1.16-1.36-1.74.1-2.97 1.66-10.43 1.5-11.89-.99-8.73-4.12-24.16-7.26-32.1z"/><path fill="#596d73" d="m1533.36 1142.38 1.05-1.51c1.15-1.67 1.98-6.11 3.23-6.24 2.07 2.27-2 7.67-2.92 9.49-.45-.58-.9-1.16-1.36-1.74"/><path fill="#cc8a4f" d="M1393.89 1066.09c13.61 9.61 20.05 12.1 33.79 1.35.75-.59 1.03 1.16 1.06 1.38-7.44 7.55-15.11 12.14-25.73 6.42-4.45-2.4-7.47-4.32-9.12-9.15m-30.49-3.56c-2.3-7.12-1.7-27.87 6.22-28.9l-.07-.04c.53 1.95-.9 4.14-1.94 6.02-4.8 8.68-3.92 12.4-2.46 21.22zm95.68-3.89c-1.61-8.05-.19-14.45-5.13-22.04-.53-.82-1.02-1.96-.85-2.98l.16-.2c5.16-.23 9.1 19.75 7.37 25.61-.26-.5-.34-.84-.77-1.02-.36.19-.12.03-.78.63"/><path fill="#57697a" d="m2043.65 650.078 4.35-.58v639.522c-33.58-4.16-43.91-8.03-71.62-28.95-39.85-30.09-65.36-64.76-87.33-109.16 15.5-29.7 27.48-72.39 31.96-105.66 1.42-10.54 1.39-18.32 2.26-28.52-.08-3.01-.1-2.97 1.19-5.57 2.55-20.676 5.2-28.535 14.65-47.006-1.69-.711-1.48-.657-3.4-.708-3.38-.417-4.58-.696-7.83-2.119l-3.02-1.353c-.76-.249-1.53-.499-2.29-.749a106 106 0 0 1-6.36-2.663c1.36-1.214 1.99-1.979 3.75-2.459-5.12-3.508-3.03-6.302-1.17-13.133-4.32-1.577-.93-5.43.6-8.042l.45-5.571-2.42-1.53c1.13-9.362 3.63-18.725 5.42-28.017 1.15-2.291-.37-6.385-.33-9.73l1.28-1.211c4.92-3.867-2.93-17.858.96-20.656l1.78-2.955c-.91-5.564-.75-15.209-1.03-21.354-2.4-43.353-12.19-92.62-47.48-121.533-23.12-18.94-85.93-39.365-97.82-67.149l4.26.83c31.22 3.811 77.71 16.26 103.73 32.655 32.09-16.138 80.67-30.387 116.83-34.091l3.98-.866 18.85-1.047 12.88-1.021z"/><path fill="#57697a" d="m2043.65 650.078 4.35-.58v22.289c-15.26 60.627-27.95 101.626-85.06 135.889a496 496 0 0 1-35.2 18.862c1.23 15.381 2.78 39.873.5 54.884-5.71.355 3.17-17.382-1.71-18.164-.91-5.564-.75-15.209-1.03-21.354-2.4-43.353-12.19-92.62-47.48-121.533-23.12-18.94-85.93-39.365-97.82-67.149l4.26.83c31.22 3.811 77.71 16.26 103.73 32.655 32.09-16.138 80.67-30.387 116.83-34.091l3.98-.866 18.85-1.047 12.88-1.021z"/><path fill="#57697a" d="M2027.85 650.703c4.68.017 5.37-.743 8.84 1.237 1.49 3.559-5.79 29.364-7.76 33.757-20.76 46.434-72.18 62.648-115.38 79.298-7.49-17.326-11.98-24.587-24.34-38.931 33.22-12.781 106.44-39.884 119.79-74.314z"/><path fill="#57697a" d="M1888.19 686.707c32.09-16.138 80.67-30.387 116.83-34.091-3.72 10.687-26.06 28.418-35.61 34.039-25.38 14.951-55.09 26.458-82.59 36.865-29.63-26.901-78.78-35.546-102.36-69.468 31.22 3.811 77.71 16.26 103.73 32.655"/><path fill="#cc8a4f" d="m2043.65 650.078 4.35-.58v22.289c-15.26 60.627-27.95 101.626-85.06 135.889a496 496 0 0 1-35.2 18.862c1.23 15.381 2.78 39.873.5 54.884-5.71.355 3.17-17.382-1.71-18.164-.91-5.564-.75-15.209-1.03-21.354-2.4-43.353-12.19-92.62-47.48-121.533-23.12-18.94-85.93-39.365-97.82-67.149l4.26.83c23.58 33.922 72.73 42.567 102.36 69.468 27.5-10.407 57.21-21.914 82.59-36.865 9.55-5.621 31.89-23.352 35.61-34.039l3.98-.866c-13.35 34.43-86.57 61.533-119.79 74.314 12.36 14.344 16.85 21.605 24.34 38.931 43.2-16.65 94.62-32.864 115.38-79.298 1.97-4.393 9.25-30.198 7.76-33.757-3.47-1.98-4.16-1.22-8.84-1.237l12.88-1.021c-4.57 30.076-8.21 45.082-29.91 67.345-27.99 28.729-61.02 35.417-96.05 51.07 7.46 21.629 9.27 30.861 12.66 54.105 48.05-20.309 81.48-46.002 101.49-95.735 6.22-15.45 20.79-60.648 14.73-76.389"/><path fill="#d28a4c" d="M1919.39 932.928c13.43-4.542 19.85-7.94 34.6-4.841 16.52 3.47 34.04 7.868 50 13.373-.32 1.145-.52 2.141-.76 3.299-4.84 2.376-9.28 5.993-14.13 8.736-13.92 7.859-33.97 16.062-49.99 10.659-1.69-.711-1.48-.657-3.4-.708-3.38-.417-4.58-.696-7.83-2.119l-3.02-1.353c-.76-.249-1.53-.499-2.29-.749a106 106 0 0 1-6.36-2.663c1.36-1.214 1.99-1.979 3.75-2.459-5.12-3.508-3.03-6.302-1.17-13.133-4.32-1.577-.93-5.43.6-8.042"/><path fill="#57697a" d="M1918.79 940.97c5.61 1.191 12.04 2.484 17.7 3.277 22.07 3.092 36.95-2.854 59.52.373-13.83 8.182-20.51 14.266-37.51 16.515-16.99 2.249-23.22-2.961-38.54-7.032-5.12-3.508-3.03-6.302-1.17-13.133"/><path fill="#d28a4c" d="M1928.24 881.422c32.7-14.662 57.36.74 86.19-35.997l-1.51 14.074c-4.85 46.812-53.83 27.154-85.68 27.574-.73 8.075-3.71 33.65-7.4 40.284l-2.42-1.53c1.13-9.362 3.63-18.725 5.42-28.017 1.15-2.291-.37-6.385-.33-9.73l1.28-1.211c4.92-3.867-2.93-17.858.96-20.656l1.78-2.955c4.88.782-4 18.519 1.71 18.164"/><path fill="#57697a" d="M1973.66 1188.49c12.5-15.32 25.04-32.1 42.87-41.45 12.22-6.39 19.78-1.56 31.47 1.78v19.2c-40 4.26-37.79 2.12-74.34 20.47"/><path fill="#57697a" d="M1968.1 1189.49c9.71-26.09 30.43-61.35 58.29-70.62 8.33 2.49 13.74 4.52 21.61 8.54v17.12c-6.31-1.46-15.79-4.96-22.1-4.03-24.47 3.59-43.85 30.69-57.8 48.99"/><path fill="#cc8a4f" d="M1959 1200.89c3.04-9.21 6.66-18.22 10.84-26.98 9.99-20.64 29.65-48.99 52.31-57.57 7.62-2.88 18.38 3.23 25.85 6.86v4.21c-7.87-4.02-13.28-6.05-21.61-8.54-27.86 9.27-48.58 44.53-58.29 70.62 13.95-18.3 33.33-45.4 57.8-48.99 6.31-.93 15.79 2.57 22.1 4.03v4.29c-11.69-3.34-19.25-8.17-31.47-1.78-17.83 9.35-30.37 26.13-42.87 41.45 36.55-18.35 34.34-16.21 74.34-20.47v3.67c-22.41.28-41.4 2.51-61.39 13.64-9.42 5.24-17.69 11.28-27.61 15.56"/><path fill="#cdcfd3" d="M2003.99 941.46c-.07-4.788.24-8.739-.59-13.458-.89-5.014-11.39-30.865-4.91-33.525.29.249.59 1.155.55 1.489-1.42 11.787 3.92 20.904 6.2 32.006 2.24 10.853-.58 21.5-4.18 31.718-2.05 5.82-3.38 11.129-3.18 17.306.02.803-.44 3.696-1.76 2.443-1.82-7.5 1.64-16.365 4.1-23.378 1.29-3.707 2.25-7.434 3.01-11.302.24-1.158.44-2.154.76-3.299m-79.53 69.7c.65 4.32 1.64 8.53 2.35 12.85.18 1.09.9 11.82-2.7 9.81.21.42-.41-14.7-.84-17.09-.08-3.01-.1-2.97 1.19-5.57"/><path fill="#cc8a4f" d="M2048 1077.27c-4.57-1.82-10.76-3.98-13.54-8.33-2.95-4.62 11.66 4.93 13.54 5.81z"/><path fill="#d28a4c" d="m2002.37 1062.53 1.43-1.97 1.9.55c3.51 1.08 15.83.3 22.68 1.62l1.42.26c-10.04 6.47-17.91 11.81-26.76.38z"/><path fill="#cc8a4f" d="m2002.37 1062.53-.51-1.52c-2.22-6.51.63-28.39 6.58-27.98.47.49.33 1.11.01 1.69-3.4 6.19-5.97 13.09-5.06 20.28.31 2.49.49 3.12.41 5.56zm-278.43-412.928c3.47-.009 6.43-.062 9.89.253 14.69.815 32.58 3.026 46.37 3.367 11.89 27.784 74.7 48.209 97.82 67.149 35.29 28.913 45.08 78.18 47.48 121.533.28 6.145.12 15.79 1.03 21.354l-1.78 2.955c-3.89 2.798 3.96 16.789-.96 20.656l-1.28 1.211c-.04 3.345 1.48 7.439.33 9.73-1.79 9.292-4.29 18.655-5.42 28.017l2.42 1.53-.45 5.571c-1.53 2.612-4.92 6.465-.6 8.042-1.86 6.831-3.95 9.625 1.17 13.133-1.76.48-2.39 1.245-3.75 2.459 2.2 1 4.11 1.805 6.36 2.663.76.25 1.53.5 2.29.749l3.02 1.353c3.25 1.423 4.45 1.702 7.83 2.119 1.92.051 1.71-.003 3.4.708-9.45 18.471-12.1 26.33-14.65 47.006-1.29 2.6-1.27 2.56-1.19 5.57-.87 10.2-.84 17.98-2.26 28.52-4.48 33.27-16.46 75.96-31.96 105.66l-1.48-.42c.71-4.68 9.25-24.27 11.41-30.35 9.8-27.59 17.7-55.66 20-84.96 2.68-34.15-14.6-62.623-21.95-94.561-7.41-32.192-7.91-62.474-8.17-95.275-27.97-16.549-57.45-27.332-85.71-44.086-34.58-20.502-54.78-48.294-65.83-86.95-3.65-12.772-5.93-27.489-9.28-40.865-11.38 74.957-49.37 124.738-120.36 152.4 2.71 17.628 2.78 37.337 2.03 55.106-1.44 2.137-2.38 3.978-4.51 5.395-1.54-25.824-10.69-49.119-24.23-70.694-24.7-39.384-56.62-61.51-94.55-86.373-20.45-13.404-40.49-27.839-56.55-46.58-8.62-10.056-11.54-18.167-17.59-29.901l-2.23.367c-2.04-.801-1.33-.411-2.97-1.935l-.38-1.22c2.66-.119 5.49-.33 8.13-.247 12.14.531 34.71 3.535 44.16 3.381l2.85.718c33.69 3.616 78.85 15.602 107.49 33.907 28.89-17.506 82.91-31.421 116.95-35.282l3.26-.929c5.99.294 20.75-1.27 27.28-1.828l2.81-.112z"/><path fill="#57697a" d="M1733.29 655.386c35.52 71.4 117.45 84.893 160.9 150.624 20.67 31.279 26.05 44.087 29.6 80.859l-1.28 1.211c-16.55-64.194-97.86-63.234-141.5-106.331-31.55-31.145-47.41-72.942-49.88-116.291.89-4.211.82-5.863 2.16-10.072"/><path fill="#57697a" d="M1733.83 649.855c14.69.815 32.58 3.026 46.37 3.367 11.89 27.784 74.7 48.209 97.82 67.149 35.29 28.913 45.08 78.18 47.48 121.533.28 6.145.12 15.79 1.03 21.354l-1.78 2.955c-9.46-60.124-67.01-108.729-115.67-139.145-34.4-21.509-57.17-40.292-75.25-77.213m-319-.094c12.14.531 34.71 3.535 44.16 3.381 11.66 17.433 36.69 33.242 54.9 41.692 39.65 18.397 68.85 38.855 80.76 82.973 6.45 21.215 11.13 44.105 11.48 66.789-.37 3.486.37 14.397-1.93 15.144-18.91-65.29-66.42-101.648-120.43-136.506-18.08-11.666-38.99-27.442-52.6-44.005-7.03-8.555-11.32-19.578-16.34-29.468m274.71 1.795c5.99.294 20.75-1.27 27.28-1.828 1.93 39.272-26.16 71.586-59.35 88.266-20.36 10.234-42 18.723-63.09 27.317-7.67-16.419-12.26-25.549-24.27-38.981 37.89-17.32 99.2-35.998 119.43-74.774"/><path fill="#57697a" d="m1719.63 649.616 4.31-.014c4.91 8.028.66 25.413-.83 34.398-10.83 65.127-52.68 115.803-115.46 137.26-3.67-22.675-4.68-31.062-11.97-52.539 31.95-17.957 67.85-22.134 95.5-51.116 20.22-21.184 28.16-38.503 28.45-67.989m-150.3 38.151c28.89-17.506 82.91-31.421 116.95-35.282-19.94 35.3-82.79 55.377-118.36 71.823-25-21.716-50.44-29.258-78.01-46.505-10.27-6.42-19.18-17.137-28.07-23.943 33.69 3.616 78.85 15.602 107.49 33.907m348.09 238.06c-.76 5.658-4.99 45.368-5.98 45.741-1.44-.376-2.32-4.963-2.3-6.05.3-12.501-2.99-25.123.11-37.509 2.77-11.093 7.32-22.341 12.29-32.597.06-.124.24-.04.31-.02.4.772.69 1.587.99 2.418-1.79 9.292-4.29 18.655-5.42 28.017m7.44 34.147 3.02 1.353c3.25 1.423 4.45 1.702 7.83 2.119l-.77 1.308c-9 14.969-10.37 27.794-13.83 44.396-.93-4.29-1.76-7.5-2.8-11.698l-3.58-14.318c2.39-6.097 3.86-12.569 7.29-18.124 1.17-1.893 1.89-3.042 2.84-5.036m-8.65-3.412c2.2 1 4.11 1.805 6.36 2.663l-6.43 13.386c.11-6.013.23-10.027.07-16.049"/><path fill="#696963" d="M1606.13 844.596c.48 3.105 1.7 20.034.52 22.4l-.25.148c-1.7-.456-2.13-5.797-2.2-7.404 2.3-.747 1.56-11.658 1.93-15.144"/><path fill="#596d73" d="M1731.13 665.458c-.14-3.743-3.19-20.855 2.16-10.072-1.34 4.209-1.27 5.861-2.16 10.072"/><path fill="#57697a" d="M1891.82 847.466c3.88 2.115 7.68 5.762 10.74 8.927 31.67 32.869 2.27 49.481 2.36 89.653-.04 5.222.81 11.219 1.38 16.475-11.1-29.988-14.18-82.823-14.48-115.055"/><path fill="#cc8a4f" d="M1600.28 1006.1c.85 5.17 2.37 22.75 3.62 25.84.05.44.04 1.04.26 1.48-3.35 6.9-4.4 26.1-6.42 35.06-5.61 24.76-16.16 61.06-28.31 82.98l-1.46-.51c1.97-8.26 9.74-25.99 12.97-35.18 12.82-36.48 20.7-67.41 17.23-105.95z"/><path fill="#cc8a4f" d="M1617.52 963.718c1.46-.205 1.71-.322 2.89.57-9.02 15.131-10.39 17.892-14.07 35.712-2.11 10.2 4.26 30.37-2.18 33.42-.22-.44-.21-1.04-.26-1.48-1.25-3.09-2.77-20.67-3.62-25.84-.05-1.32-.09-2.43-.09-3.76.85.33 1.69.67 2.53 1 1.91-14.013 6.33-28.147 14.8-39.622"/><path fill="#696963" d="M1600.19 1002.34c.85.33 1.69.67 2.53 1 .41 3.56 2.28 26.25 1.18 28.6-1.25-3.09-2.77-20.67-3.62-25.84-.05-1.32-.09-2.43-.09-3.76"/><path fill="#cdcfd3" d="M1684.12 941.319c-.11-4.862.75-11.706-.16-16.308-1.02-5.108-9.34-25.408-4.99-29.621 1.27.222 1.11 10.81 2.12 13.59 1.61 4.426 2.74 9.22 4.56 13.631 4.69 18.739-4.47 37.76-7.35 55.938-.04.285-1.29.475-1.32-.09-.42-11.178 5.22-21.161 6.35-32.593z"/><path fill="#d28a4c" d="M1730.82 1123.98c11.44-6.31 21.07-12.26 33.95-5.04 29.54 16.57 45.29 52.49 55.67 82.42-22.05-13.7-34.25-20.98-59.51-27.16-26.95-4.33-61.6-4.04-86.48 7.92-10.58 5.09-23.08 12.62-33.75 18.38 1.49-7.32 3.08-10.98 6.12-17.82 11.97-26.97 28.83-55.6 57.81-66.61 9.86-.71 16.96 3.84 26.19 7.91"/><path fill="#57697a" d="M1703.17 1144.22c12.53-1.07 17.45 3.49 29.05 3.63 5.99-.16 15.44-4.75 21.11-3.87 19.79 3.07 41 29.24 53.36 43.74-16.97-7.41-27.17-12.54-45.19-16.65-10.82-1.85-21.79-2.12-32.6-2.17-32.33-.15-46.75 4.34-74.35 18.98 10.81-16.22 30.18-36 48.62-43.66"/><path fill="#57697a" d="M1703.27 1120.18c12.76-1.5 14.36 2.84 26.58 6.67l1.1.34c5.44-1.4 8.15-3.69 12.61-5.27 31.83-11.22 58.32 43.14 66.99 64.61-15.1-18.3-29.68-37.5-52.39-46.2-11.58-1.32-17.51 2.4-28.41 2.77-6.23.21-16.43-3.88-23.36-2.89-23.99 3.44-42.52 30.4-56.47 47.26 8.86-25.19 28.32-55.76 53.35-67.29m77.46-180.805c5.71-2.016 14.44-4.544 20.29-6.096l4-1.027c4.3-1.093 8.65-2.064 12.99-2.968q4.215-.909 8.49-1.457c21.84-2.808 35.24 5.478 54.32 13.666-1.73 1.444-4.09 3.575-5.95 4.685-5.78 4.482-14.97 9.661-19.01 13.098l-.63.508a973 973 0 0 1-13.72 3.983c32.6 52.753-2.64 79.483 7.21 133.263l-2.11.1c-12.47-50.59 24.56-81.69-8.71-132.417-23.95 2.804-42.28-6.055-61.66-19.952l-.26-4.091z"/><path fill="#d28a4c" d="M1780.73 939.375c5.71-2.016 14.44-4.544 20.29-6.096l4-1.027c4.3-1.093 8.65-2.064 12.99-2.968q4.215-.909 8.49-1.457c21.84-2.808 35.24 5.478 54.32 13.666-1.73 1.444-4.09 3.575-5.95 4.685-.89-1.028-1.42-1.866-2.19-2.99-14.39-5.886-39.66 6.559-56.18 1.998-8.95-2.468-23.37-2.744-32.83-3.433-1.09-.986-1.71-1.436-2.94-2.378"/><path fill="#d28a4c" d="m1775.98 940.67 4.75-1.295c1.23.942 1.85 1.392 2.94 2.378-.67.228-1.46.362-1.92.939l-.06.402c3.97 5.143 29.81 16.822 37.31 17.771 19.72 2.497 36.08-4.631 51.74-16.032.65-.548 1.29-1.096 1.94-1.645.77 1.124 1.3 1.962 2.19 2.99-5.78 4.482-14.97 9.661-19.01 13.098l-.63.508a973 973 0 0 1-13.72 3.983c32.6 52.753-2.64 79.483 7.21 133.263l-2.11.1c-12.47-50.59 24.56-81.69-8.71-132.417-23.95 2.804-42.28-6.055-61.66-19.952zM1763 846.667c4.14 3.645 9.34 13.078 16.15 16.474 31.47 15.686 65.78 4.254 93.76 31.802 3.9 3.837 8.87 7.79 8.94 13.232-24.09-26.174-42.68-18.742-74.29-17.268-33.09 1.543-44.11-12.393-44.56-44.24"/><path fill="#cdcfd3" d="M1776.24 944.761c.93 12.461 12.93 48.222 5.18 56.279-3.28 1.08-1.75 1.2-4.77-.21-4.33-7.603 3.43-16.245 3.02-23.312-.83-14.299-5.34-26.014-6.34-41.066-1.21-18.227 4.73-23.812 6.39-39.389l.16-1.578c1.44 14.959-5.46 24.166-3.9 45.185z"/><path fill="#57697a" d="M1781.39 983.678c.91 3.628 1.98 13.117-1.08 15.986l-.89.886c-2.76-6.304-.66-10.112 1.97-16.872"/><path fill="#cdcfd3" d="M1855.86 959.276c5.8 5.382 11.73 22.987 13.49 30.708l.91 4c.44 1.993.65 2.911 1.04 5.003l.97 5.003c1.11 5.83 2.69 12.6 1.64 18.51-1.04 5.84-10.68 4.69-10.88-1-.22-6.35 2.37-13.44 3.55-19.92 1.65-.68 1.18 1.74 1.18 2.92.01 3.04-3.78 16.09-1.63 18.3 3.65 3.75 6.82-1.55 5.79-5.29-.31-7.71-3.16-14.94-4.19-22.484l-.57-3.037c-1.45-12.371-6.13-21.493-11.93-32.205z"/><path fill="#d28a4c" d="M1778.9 1055.87c.95-.33.9.15 1.77 1.02-3 9.63-9.25 15.15-19.66 12.15-1.29.37-6.85-4.22-5.07-5.44 10.97-7.54 15.43 4.12 22.96-7.73m-93.68 5.14c4.69.14 21.81-.33 22.34 2.14 1.1 5.21-10.88 10.67-21.78 2.18l-.55-.41z"/><path fill="#cdcfd3" d="m1848.72 1097.03.79 2.82 1.14 4.17c1.16 4.57 6.07 24.41 6.8 25.77 6.35 11.85-4.36 22.83-4.8 9.22-.14-4.52 2.23-7.6 1.17-12.99-1.28-6.58-2.32-11.52-3.92-17.45l-1.06-3.98-.48-1.73c-.6-2.2-1-3.59-1.75-5.73z"/><path fill="#334252" d="M1855.51 1136.33c2.92-.38 1.57 1.98.87 4.21-2.01.5-1.75-.14-1.26-2.31z"/><path fill="#cc8a4f" d="M1714.24 1066.75c4.18 1.81 3.27 2.18 6.31 4.18 10.68 7.01 18.09 1.96 27.37-3.43.22-.13.93.5 1.11.65-10.02 11.03-28.77 13.91-34.79-1.4m-33.67-14.01c.56-2.68 5.5-22.06 9.98-20.18.06-.13-1.81 3.81-1.59 3.45-6.89 11.27-3.8 14.75-3.74 25l.01 3.91-.24-.42c-3.04-5.06-2.77-6.13-4.42-11.76m98.33 3.13c-1.21-5.6-.54-10.61-3.12-15.75-1.04-2.08-5.21-6.53-4.28-7.21 3.59-2.6 9.7 12.91 9.5 16.59-.13 2.28.48 4.6-.33 7.39-.87-.87-.82-1.35-1.77-1.02"/><path fill="#57697a" d="m0 649.02 4.428-.031c57.668 4.52 106.055 10.373 158.871 37.631a384.4 384.4 0 0 1 114.804-33.558l3.149-.457c7.049-1.595 20.925-2.335 28.547-2.871l3.329-.814c3.018.484 7.046.337 10.213.35l-.25.847c1.471 2.057 1.499 2.133 2.531 4.365 24.59 69.296 142.952 89.593 181.938 187.371 4.816 12.079 7.42 24.769 9.999 37.465-.517 7.591.827 5.071-1.709 12.894l-.11 2.792c.535 7.986-4.633 27.46-6.273 36.271-1.187 9.32-4.523 32.218-3.737 40.308l3.582-3.471c-.725-5.141.014-7.443 1.782-12.282l-.187-4.723 1.46 1.022c1.017.695 1.921 1.345 2.719 2.289-.431 3.889-.936 2.231 1.387 5.192 4.85 1.536 8.102 3.201 13.199 4.1 1.633.269 1.736.19 3.122.761-8.598 13.586-14.802 31.36-14.22 47.599l-1.803 1.68c.129 2.32.157 4.22.136 6.53.681 5.15.39 9 .051 14.13l-1.491 1.74c-3.262 29.06-9.762 57.02-19.989 84.47-3.556 9.55-7.45 21.63-12.505 30.59l-1.443-.48c-19.692 49.11-65.072 101.93-111.927 127.84-20.321 11.24-57.766 12.59-79.533 4.58-40.162-14.79-80.265-55.92-104.209-90.8-8.356-12.17-16.236-28.07-22.782-41.13l-2.033-.1A270 270 0 0 1 79 1259.17c-28.155 22.23-43.298 27.35-79 29.42z"/><path fill="#57697a" d="m0 649.02 4.428-.031c4.274 4.111 9.154 13.067 12.348 18.415 18.576 31.101 51.516 49.521 80.65 69.625 36.308 25.053 70.138 54.743 89.468 95.358 7.014 14.288 7.481 21.397 12.247 33.751-4.486 7.549 4.292 24.461-3.858 26.409l2.302 1.336c-.202 1.912.165 1.194-.716 2.311-3.377 19.181-6.86 36.384-9.123 55.805l-.266 2.113 2.905 3.131c1.641.305 3.144.635 4.768.994l2.603 1.293c3.98 1.984 6.822 3.141 11.06 4.385l2.759.303c-8.45 20.41-12.29 27.407-13.645 49.232-1.354 6.54-.728 6.9-.797 13.4-4.82 34.07-16.343 94.1-34.054 124.37l-2.033-.1A270 270 0 0 1 79 1259.17c-28.155 22.23-43.298 27.35-79 29.42z"/><path fill="#cc8a4f" d="m0 649.02 4.428-.031c4.274 4.111 9.154 13.067 12.348 18.415 18.576 31.101 51.516 49.521 80.65 69.625 36.308 25.053 70.138 54.743 89.468 95.358 7.014 14.288 7.481 21.397 12.247 33.751-4.486 7.549 4.292 24.461-3.858 26.409l2.302 1.336c-.202 1.912.165 1.194-.716 2.311-3.377 19.181-6.86 36.384-9.123 55.805l-.266 2.113 2.905 3.131c1.641.305 3.144.635 4.768.994l2.603 1.293c3.98 1.984 6.822 3.141 11.06 4.385l2.759.303c-8.45 20.41-12.29 27.407-13.645 49.232-1.354 6.54-.728 6.9-.797 13.4-4.82 34.07-16.343 94.1-34.054 124.37l-2.033-.1c2.149-8.93 8.17-22.49 11.447-31.63 14.282-39.85 27.076-83.94 14.6-125.984-5.4-18.199-13.24-35.979-16.913-54.478-6.155-31.005-7.323-61.75-7.498-93.207C68.618 796.313 14.392 787.477 0 666.522z"/><path fill="#57697a" d="M184.522 971.837c-7.45-27.363-2.553-50.271 10.688-75.086.244-.457 1.4-.515 1.659-.557-3.377 19.181-6.86 36.384-9.123 55.805l-.266 2.113a604 604 0 0 1-2.958 17.725m13.234-12.307c3.98 1.984 6.822 3.141 11.06 4.385-8.376 16.498-11.871 25.771-13.695 44.455l-.222-.82c-1.453-5.53-3.043-11.092-4.498-16.641l-2.076-7.752c2.922-8.359 5.989-15.53 9.431-23.627m-7.371-2.287c1.641.305 3.144.635 4.768.994-2.443 6.076-3.696 8.893-6.544 14.789.613-5.455 1.385-10.272 1.776-15.783M4.226 652.682c1.174 1.055 1.174.855 1.81 2.214 16.176 34.661 43.729 54.712 75.033 74.993 44.859 29.064 90.498 66.095 109.001 118.09 4.162 11.695 7.864 30.301 6.733 42.362-4.413-9.646-3.764-18.136-10.582-27.893-20.332-29.095-102.147-50.251-137.92-86.268-31.506-31.72-43.996-79.857-44.075-123.498"/><path fill="#57697a" d="M165.458 847.58c8.789 5.456 10.789 7.747 16.961 15.48 21.231 26.601.144 42.34-3.264 69.444-.345 2.74-.525 4.707-1.164 7.54.13 1.863.697 13.659-.625 14.37-1.565-.513-1.953-5.013-2.075-6.399-6.219-19.571-9.966-79.33-9.833-100.435"/><path fill="#596d73" d="M175.291 948.015c1.784-3.613.462-5.444 2.7-7.971.13 1.863.697 13.659-.625 14.37-1.565-.513-1.953-5.013-2.075-6.399"/><path fill="#57697a" d="M0 1148.09c19.19-.56 26.845-10.43 43.767 2.83 12.85 10.07 24.557 22.38 34.277 35.39-33.845-13.91-40.751-16.35-78.044-17.36z"/><path fill="#57697a" d="M26.653 1119.26c29.885 9.65 45.937 40.12 57.271 67.46-18.934-21.79-40.538-55.59-72.2-44.18-2.28.82-9.287 1.59-11.724 1.85v-16.63c9.322-2.66 17.292-6.11 26.653-8.5"/><path fill="#cc8a4f" d="M0 1124.06c8.427-3.02 17.427-6.7 25.99-8.77 37.32 10.09 55.914 53.52 69.089 86.2-38.76-20.75-49.278-29.36-95.079-29.76v-2.78c37.293 1.01 44.199 3.45 78.044 17.36-9.72-13.01-21.427-25.32-34.277-35.39-16.922-13.26-24.576-3.39-43.767-2.83v-3.7c2.437-.26 9.444-1.03 11.723-1.85 31.663-11.41 53.267 22.39 72.201 44.18-11.334-27.34-27.387-57.81-57.27-67.46-9.362 2.39-17.332 5.84-26.654 8.5zm12.917-50.67c1.627-1.32 7.085-6.38 8.55-6.84 1.617 7.87-16.59 11.26-21.467 11.88v-3.58c4.998-.28 7.946-.68 12.917-1.46"/><path fill="#d28a4c" d="m48.211 939.553 1.018-.168c7.044-1.231 20.425-5.135 27.573-7.194 30.41-8.761 49.572-6.218 77.552 8.823-3.225 2.656-23.033 17.722-23.97 19.555l-1.68.271c-4.126.41-9.775 1.841-13.596 3.473l-1.494-.865-1.688.736c-24.255 5.335-43.74-6.341-63.075-18.936z"/><path fill="#57697a" d="M131.532 942.357c4.821-.266 9.36-.059 14.184.051-22.777 18.18-43.815 25.668-71.826 12.535-7.071-4.025-10.364-6.208-16.558-11.823 19.479-.872 24.999 2.415 43.669 3.528 5.654.337 22.571-3.402 30.531-4.291"/><path fill="#d28a4c" d="M34.445 843.397c4.771 6.588 10.113 14.211 17.066 18.525 31.922 19.803 66.605 3.536 96.444 34.806l-1.713 2.32c-44.033-31.475-107.006 27.587-111.797-55.651"/><path fill="#cc8a4f" d="m111.926 964.184 1.688-.736 1.494.865c12.786 16.585 14.743 39.767 12.013 59.797-3.729 27.38-9.356 43.15-5.506 71.21l-1.317 1.56c-13.825-45.69 22.591-76.62-8.372-132.696"/><path fill="#cdcfd3" d="M48.85 945.248c2.733 13.519 6.294 27.449 8.411 41.075.91 5.854 1.654 11.176-3.328 14.957-3.382-.18-1.901.4-4.518-1.981-2.276-7.071 3.169-13.579 2.755-22.888-.662-14.881-6.364-27.844-6.398-42.866-.033-14.639 5.125-23.175 6.697-39.057l.876-.485c1.78 9.868-3.466 21.593-4.865 31.506-.61 4.329-.393 9.628-.269 14.044z"/><path fill="#57697a" d="M54.047 982.595c2.432 6.58 3.808 12.732-1.68 17.465-3.857-5.436-.538-11.349 1.68-17.465"/><path fill="#cdcfd3" d="M130.384 960.569c8.877 10.388 11.995 28.749 14.656 41.941.484 6.6 4.708 19.43-1.077 24.48-4.181 3.65-7.005-2.92-6.812-6.49.138-2.56 1.262-11.77 2.397-14.71 3.633-9.413-.325-18.447-2.474-27.784-1.593-6.921-4.88-11.403-8.37-17.166z"/><path fill="#57697a" d="M141.633 1001.49c2.825 5.8 3.783 18.02.772 23.99-4.888-3.42-1.622-18.61-.772-23.99"/><path fill="#cc8a4f" d="M44.843 1032.61c13.433 8.16 13.104 44.06-11.365 35.08-9.18-6.1 1.29-7.2 6.022-6.63 18.998 2.26 12.366-12.91 5.343-28.45"/><path fill="#cdcfd3" d="M121.615 1095.32c1.372 4.32 2.507 8.74 3.609 13.14l3.058 11.99c1.077 4.06 5.337 18.36 3.049 22.2-3.24 3.64-5.591-.86-5.316-4.12.244-2.9 1.311-8.08 1.026-10.53-1.043-8.97-3.893-22.71-6.743-31.12z"/><path fill="#596d73" d="M129.074 1135.37c1.445 1.03.831 1.89.362 3.46-1.812-1.16-1.156-1.59-.362-3.46"/><path fill="#cc8a4f" d="M147.955 896.728c2.894 2.597 7.204 10.107 9.392 13.735-5.115-3.443-6.776-6.714-11.105-11.415zM4.428 648.989c57.668 4.52 106.055 10.373 158.871 37.631a384.4 384.4 0 0 1 114.804-33.558l3.149-.457c7.049-1.595 20.925-2.335 28.547-2.871l3.329-.814c3.018.484 7.046.337 10.213.35l-.25.847c1.471 2.057 1.499 2.133 2.531 4.365 24.59 69.296 142.952 89.593 181.938 187.371 4.816 12.079 7.42 24.769 9.999 37.465-.517 7.591.827 5.071-1.709 12.894l-.11 2.792c.535 7.986-4.633 27.46-6.273 36.271-1.187 9.32-4.523 32.218-3.737 40.308l3.582-3.471c-.725-5.141.014-7.443 1.782-12.282l-.187-4.723 1.46 1.022c1.017.695 1.921 1.345 2.719 2.289-.431 3.889-.936 2.231 1.387 5.192 4.85 1.536 8.102 3.201 13.199 4.1 1.633.269 1.736.19 3.122.761-8.598 13.586-14.802 31.36-14.22 47.599l-1.803 1.68c.129 2.32.157 4.22.136 6.53.681 5.15.39 9 .051 14.13l-1.491 1.74c-3.262 29.06-9.762 57.02-19.989 84.47-3.556 9.55-7.45 21.63-12.505 30.59l-1.443-.48c3.218-11.85 8.809-25.12 12.91-36.62 15.744-43.94 26.038-91.88 7.635-136.815-17.127-41.815-19.681-86.721-20.1-131.49-44.88-27.769-99.639-39.928-131.295-86.55-19.766-29.111-23.467-54.454-29.809-87.966-1.702 15.635-4.85 29.111-10.215 43.814-21.979 60.244-53.329 84.575-108.975 111.107 1.293 20.451 1.598 33.585.335 54.167l-.296.035c-1.289-1.2-2.176-12.189-2.263-14.384l-.316.11c-4.766-12.354-5.233-19.463-12.247-33.751-19.33-40.615-53.16-70.305-89.467-95.358-29.135-20.104-62.075-38.524-80.65-69.625-3.195-5.348-8.075-14.304-12.349-18.415"/><path fill="#57697a" d="M4.428 648.989c57.668 4.52 106.055 10.373 158.871 37.631a384.4 384.4 0 0 1 114.804-33.558c-19.64 37.039-81.901 54.659-117.315 70.995-24.848-20.992-52.514-29.725-79.519-47.271-9.415-6.118-17.377-16.322-25.697-21.082l-1.28.611c7.313 12.953 42.204 34.589 54.953 39.925 48.813 20.43 75.217 51.286 84.693 103.801 3.471 16.246 7.667 49.095 5.519 65.987l-.316.11c-4.766-12.354-5.233-19.463-12.247-33.751-19.33-40.615-53.16-70.305-89.467-95.358-29.135-20.104-62.075-38.524-80.65-69.625-3.195-5.348-8.075-14.304-12.349-18.415m321.194 5.493c24.59 69.296 142.952 89.593 181.938 187.371 4.816 12.079 7.42 24.769 9.999 37.465l-3.179-.631c-12.414-26.505-32.735-38.802-57.674-49.645-66.68-28.989-118.776-61.626-129.522-139.372-1.502-10.869-4.076-20.92-3.55-32.748z"/><path fill="#57697a" d="M281.252 652.605c7.049-1.595 20.925-2.335 28.547-2.871-1.355 71.125-65.692 93.932-122.558 115.007-6.789-14.904-13.054-26.277-24.244-38.528 32.433-13.071 105.4-39.695 118.255-73.608"/><path fill="#57697a" d="M313.128 648.92c2.007.691 4.725 1.242 5.146 3.716 4.484 26.343-13.239 70.299-23.835 90.811-20.242 39.188-51.723 60.903-90.722 77.238l-1.953-.326c-.451-1.369-.847-2.393-1.137-3.804-2.748-18.973-5.119-30.668-12.159-48.329 52.727-20.638 118.416-42.767 123.305-107.961.233-3.106.572-8.578 1.355-11.345m203.345 310.69c4.85 1.536 8.102 3.201 13.199 4.1 1.633.269 1.736.19 3.122.761-8.598 13.586-14.802 31.36-14.22 47.599l-1.803 1.68c.129 2.32.157 4.22.136 6.53-2.334-5.34-6.163-28.96-7.841-36.37 2.35-7.304 5.604-16.953 7.407-24.3"/><path fill="#cc8a4f" d="M529.672 963.71c1.633.269 1.736.19 3.122.761-8.598 13.586-14.802 31.36-14.22 47.599l-1.803 1.68c-4.001-14.322 4.776-38.032 12.901-50.04"/><path fill="url(#a)" d="M515.74 895.004c.535 7.986-4.633 27.46-6.273 36.271-1.187 9.32-4.523 32.218-3.737 40.308-2.826-.174-4.658-8.93-4.02-11.581 1.421-5.915-.858-11.7-.967-17.502-.315-16.635 8.227-32.724 14.997-47.496"/><path fill="#596d73" d="M511.094 955.83c3.785 5.111 1.024 8.875-1.671 14.432l-.111-2.15c-.725-5.141.014-7.443 1.782-12.282"/><path fill="#696963" d="M517.559 879.318c-.517 7.591.827 5.071-1.709 12.894-1.163-4.972-.64-8.598-1.47-13.525zM323.091 650.117c1.471 2.057 1.499 2.133 2.531 4.365l-1.988 2.44c-1.121-3.415-2.002-3.646-.543-6.805"/><path fill="#57697a" d="M484.547 847.515c54.67 38.682 6.941 59.767 15.058 105.508l-2.625 2.133c-8.512-32.359-11.01-74.419-12.433-107.641"/><path fill="#696963" d="M499.605 953.023c.745 4.44.632 9.574-2.625 2.133z"/><path fill="#d28a4c" d="M202.016 880.377c33.297-8.225 67.74-5.801 87.421-37.206-1.319 13.355-2.319 31.62-13.659 40.457-17.999 14.028-51.462 4.163-73.438 4.273-2.475 15.445-4.478 27.833-8.887 42.976 25.018-5.515 35.59-3.428 61.232 2.734 6.491 1.56 16.408 4.311 22.248 7.432q.014 1.476.05 2.954c-17.023 12.387-43.362 27.073-65.408 20.221l-2.759-.303c-4.238-1.244-7.08-2.401-11.06-4.385l-2.603-1.293a140 140 0 0 0-4.768-.994l-2.905-3.131.266-2.113c2.263-19.421 5.746-36.624 9.123-55.805.881-1.117.514-.399.716-2.311l-2.302-1.336c8.15-1.948-.628-18.86 3.858-26.409l.316-.11c.087 2.195.974 13.184 2.263 14.384z"/><path fill="#57697a" d="M193.108 940.565c23.807 7.424 36.47 6.59 60.392 1.567 4.384-.92 12.795.404 17.555 1.082-3.521 2.644-6.281 4.514-10.012 6.817-22.446 11.863-45.868 18.057-68.492 1.387-1.582-1.166.273-9.208.557-10.853"/><path fill="#cdcfd3" d="m276.933 941.043.433-3.247c.271-2.104.881-5.293.104-9.415-1.698-9.001-11.105-24.693-5.861-34.303.155-.284.353-.189.799-.106.811.951.461 6.599.433 8.03-.186 9.427 4.882 17.348 6.448 26.478 1.303 7.598.33 16.493-1.71 23.904-2.163 7.854-5.214 15.436-5.533 23.625-.04 1.034-.414 3.582-1.754 3.69l.297-.308-.768-.941c-.914-6.904 5.728-25.541 7.162-34.453q-.036-1.478-.05-2.954m-79.8 85.807c.069-6.5-.557-6.86.797-13.4.63 2.98 1.131 5.43 1.241 8.55.114 3.26 1.371 7.45-.159 10.61-.243.51-1.212.65-1.321.31-.575-1.82-.301-3.96-.558-6.07"/><path fill="#d28a4c" d="M299.761 1115.08c5.926-.14 10.551 1.94 15.784 4.52 17.098 8.41 23.425-11.61 42.586-.33 27.842 16.39 46.179 52.05 56.158 81.34-23.728-12.44-34.265-20.61-61.049-26.39-11.254-2.21-21.9-2.36-33.13-2.5-38.004-.44-55.809 10.42-86.693 29.07a193 193 0 0 1 17.279-40.11c10.397-18.25 28.009-39.74 49.065-45.6"/><path fill="#57697a" d="M344.287 1142.49c20.51 5.5 40.938 25.1 51.256 42.66-18.274-7.74-27.131-11.94-46.577-14.88-44.567-4.22-64.369-1.77-103.16 18.47 13.504-15.73 33.626-40.66 53.595-45.54 7.151.8 18.722 4.22 26.074 6.12a306 306 0 0 1 18.812-6.83"/><path fill="#57697a" d="M247.26 1176.98c8.364-18.74 27.911-48.89 47.922-56.24a46 46 0 0 1 6.189-1.82c8.986 2.19 15.72 5.66 23.742 7.65 13.007-4.59 18.044-10.16 31.813-3.63 18.36 8.71 39.123 41.17 45.001 59.45.257.8.504 1.61.742 2.42-12.727-15.15-33.52-41.91-54.988-44.6-5.605-.7-20.264 3.11-25.865 3.43-4.199.24-18.087-3.26-23.001-4.31-20.589 6.8-35.436 22.13-48.719 38.69z"/><path fill="#696963" d="m247.26 1176.98 2.836 1.04-.881 1.16c-.459.61-2.948 4.59-4.212 3.87-.448-2.16.822-4.47 2.257-6.07"/><path fill="#57697a" d="M374.751 939.004c42.787-11.419 57.426-20.465 99.482 3.022-2.304 1.93-3.747 2.856-6.377 4.34-4.216 3.238-15.636 9.72-17.362 13.206l-2.707.889c-3.389-.506-9.991 1.959-13.13 3.394-1.297.9-1.319.763-3.042.813-.96-.049-3.123-.197-4.155-.023-18.567 3.132-41.412-7.416-57.319-17.774l-.968.201c-.204-2.823-.308-4.09-.903-6.863 2.289-.468 4.118-.898 6.481-1.205"/><path fill="#d28a4c" d="M374.751 939.004c42.787-11.419 57.426-20.465 99.482 3.022-2.304 1.93-3.747 2.856-6.377 4.34-1.12-1.032-1.923-2.025-2.917-3.175-8.804-4.445-41.497 5.868-53.943 1.998-8.808-2.738-22.808-2.501-32.119-1.875-2.977-1.067-3.319-1.191-4.126-4.31"/><path fill="#d28a4c" d="M368.27 940.209c2.289-.468 4.118-.898 6.481-1.205.807 3.119 1.149 3.243 4.126 4.31a88 88 0 0 0-1.022 1.889c4.868 2.713 9.257 5.942 14.339 8.796 24.202 13.593 51.956 6.179 72.745-10.808.994 1.15 1.797 2.143 2.917 3.175-4.216 3.238-15.636 9.72-17.362 13.206l-2.707.889c-3.389-.506-9.991 1.959-13.13 3.394-1.297.9-1.319.763-3.042.813-.96-.049-3.123-.197-4.155-.023-18.567 3.132-41.412-7.416-57.319-17.774l-.968.201c-.204-2.823-.308-4.09-.903-6.863"/><path fill="#cc8a4f" d="M368.27 940.209c2.289-.468 4.118-.898 6.481-1.205.807 3.119 1.149 3.243 4.126 4.31a88 88 0 0 0-1.022 1.889c-4.986-.145-7.228-2.649-7.714 1.668l-.968.201c-.204-2.823-.308-4.09-.903-6.863"/><path fill="#d28a4c" d="M356.041 846.676c1.027.78 1.1.694 1.798 1.821 18.204 29.267 53.837 20.586 81.765 30.951 9.17 3.403 34.063 16.801 34.479 27.101a345 345 0 0 0-7.724-6.776c-39.705-33.435-105.677 27.041-110.318-53.097"/><path fill="#cc8a4f" d="M431.615 964.668c1.723-.05 1.745.087 3.042-.813 11.51 13.6 14.905 38.525 13.206 55.615-3.14 31.58-10.984 44.96-5.601 77.38l-1.706 1.54c-13.377-50.01 23.021-84.59-8.941-133.722"/><path fill="#cdcfd3" d="M369.173 947.072c1.43 9.423 4.135 19.724 5.822 29.287 1.153 6.535 8.206 20.408-3.207 23.627l-1.943-1.454c-3.148-9.631 3.732-16.217 2.589-24.416-2.717-19.491-10.169-35.909-4.521-55.968 2.203-7.823 2.236-15.744 5.351-23.561l.727.347c.133 13.835-6.796 23.846-5.721 45.275.595 2.773.699 4.04.903 6.863"/><path fill="#57697a" d="M373.42 983.577c3.885 3.472 2.492 10.663.926 14.996-6.715-2.692-2.974-8.709-.926-14.996"/><path fill="#cdcfd3" d="M456.949 971.891c3.248 10.2 12.867 42.759 8.085 54.599-1.489 3.68-9.273 1.52-8.834-5.49.837-13.38 7.967-21.279 3.256-34.882-1.346-3.888-2.153-8.08-3.854-12.541z"/><path fill="#57697a" d="M461.231 1004.62c4.08 3.83 3.962 16.94.386 22.25-5.945-6.36-2.655-13.87-.386-22.25"/><path fill="url(#b)" d="M363.786 1031.77c11.76 4.24 20.364 43.36-12.44 36.63-9.209-11.27 15.73-4.5 17.681-7.3 6.482-9.29.205-19.97-4.316-27.71z"/><path fill="#d28a4c" d="M276.539 1061.53c.758-.44.864-.62 1.579-.21l1.918.32c1.839.29 34.605-2.68 14.958 7.42-7.603 3.91-14.838-.08-18.455-7.53"/><path fill="#cdcfd3" d="M442.262 1096.85c1.631 6.83 15.337 46.94 6.836 48.9-3.493-1.47-2.723-7.86-1.581-10.31.371 1.11.012 5.22.744 5.79 1.754 1.36 1.622-2.27 1.334-3.07-1.86-5.17-1.516-10.41-2.635-15.64-1.714-8.02-4.004-16.28-6.404-24.13z"/><path fill="#cc8a4f" d="M307.563 1065.69c4.853 1.99 5.678 5.54 11.545 8.1 8.091 3.53 18.802-5.23 21.334-5.07.377.28.147.06.697.81-11.644 10.86-25.892 11.47-33.576-3.84m-31.024-4.16c-3.58-8.62-1.923-22.53 5.892-28.08.441.97-8.476 18.44-5.004 22.96.585.76.7 3.72.691 4.91-.715-.41-.821-.23-1.579.21m171.248-101.069 2.707-.889a73.5 73.5 0 0 1 6.455 12.319l-1.347 1.686c-1.788-3.4-3.503-6.859-5.679-10.037z"/><metadata><recraft-signature>{&quot;signed_by&quot;: &quot;recraft&quot;, &quot;signature_b64&quot;: &quot;6H3RRl4sWM36+VUmV2kuDkgo9XNiCzNTtVphve1a0JMzU2xNWSjKMKT2nstw2vaBeGS5pRoILeurf76wqfrKBw==&quot;, &quot;signing_algo&quot;: &quot;Ed25519&quot;, &quot;generation_timestamp&quot;: 1777251433, &quot;identifier&quot;: &quot;17d62ea3-9f75-4f5b-af39-a810a5244260&quot;}</recraft-signature></metadata></svg>