<svg xmlns="http://www.w3.org/2000/svg" width="1024" height="1024" preserveAspectRatio="none" style="display:block" viewBox="0 0 2048 2048"><path fill="#2f363d" d="M1016.38 281.41c9.66-1.646 24.94 1.857 35.42 2.261 9.12 1.053 20.81-.144 29.66 1.368 21.64 3.696 45.74 5.799 67.01 10.157 52.18 10.689 104.42 29.871 152.76 52.142 12.8 5.897 30.13 13.129 41.91 20.294-23.84 92.615-35.58 188.619-49.44 283.079-2.54 17.351-2.49 44.69-3.87 62.927-4.92 3.866-9.55 8.365-14.05 12.672-34.69 33.235-51.75 69.087-52.33 117.574-.16 13.779 2.23 27.952 2.3 41.158.1 16.027-.56 33.199-.71 49.374-63.9-16.268-114.34-22.056-179.79-25.006-43.1-3.404-107.658 3.492-151.678 8.083-15.545 1.621-50.64 11.368-62.533 10.742-4.862-5.649-3.018-74.733-3.975-88.355-3.987-56.759-22.806-85.62-63.651-122.899-7.901-34.646-8.764-61.289-12.054-95.881-3.154-33.17-11.713-67.266-14.172-101.098-1.464-20.148-10.33-44.664-13.076-65.013-3.238-15.426-5.743-31.173-7.784-46.739-5.872-44.774-17.265-40.063 23.804-60.08 84.118-41 183.273-60.644 276.249-66.76"/><path fill="#d68036" d="m1216.39 373.124 2.1 3.571-49.8 306.837-15.55 93.498c-4.14 24.471-9.62 55.038-11.42 79.527-1.73-.113-1.46-.523-2.03-2.198 13.18-161.146 45.07-322.874 76.7-481.235m-388.907-6.088a4164 4164 0 0 1 66.954 411.437c2.707 24.04 3.584 47.348 6.016 70.732-.65 1.732-.409 2.237-2.16 2.344-1.01-27.078-6.87-64.786-11.15-91.208l-15.861-97.519-45.448-295.155zm196.987-15.834c1.79 12.934 1.53 29.637 1.83 43.03l1.48 60.862c1.21 64.796 2.58 133.743.81 198.544-.77 27.931-1.85 55.853-3.22 83.761-.87 16.975-2.56 37.65-2.6 54.365-2.64-4.628-1.59-27.254-2.64-35.786-1.05-89.001-.77-178.012.81-267.004.32-27 1.09-53.933 1.95-80.918.58-18.192-.32-38.968 1.58-56.854"/><path fill="#805d40" d="M1020.13 755.978c1.05 8.532 0 31.158 2.64 35.786.34 3.894-1.17 45.846-1.53 46.241-.48-.259-.3-.093-.58-.456.32-.88.25-.439.27-1.319l-.62-1.09c.77-6.335-.52-16.475-.34-23.201.46-17.444-.96-38.918.16-55.961"/><path fill="#98693d" d="M1216.39 373.124c.55-4.967 1.77-9.218 2.79-14.097l1.24-6.007c.35-1.707.2-1.324.82-2.343l.06.015c1.23 2.465-2.08 22.203-2.81 26.003z"/><path fill="#805d40" d="M900.453 849.205c1.161 3.861.412 19.844.249 24.589-1.2-7.036-2.566-15.034-2.409-22.245 1.751-.107 1.51-.612 2.16-2.344m239.237 5.154c.57 1.675.3 2.085 2.03 2.198-.07 2.587-.95 14.037-2.27 15.566-.87-.945-.64-15.601.24-17.764M825.834 367.667c-1.969-6.226-2.339-10.324-2.342-16.625 1.72 5.654 3.404 10.107 3.991 15.994z"/><path fill="#2f363d" d="M688.747 1051.44c22.618-1.53 48.165.6 71.141.63l190.261.92c46.624.06 93.641-2.95 140.391-1.95 29.3.73 57.95 2.82 87.31 2.7 57.77-.23 115.21-4.11 172.96-1.3 4.6.22 46.45-.24 46.71 5.51 1.24 27.39 3.48 74.51-4.33 100.31-10.96 2.26-20.25 1.75-31.29 1.58-21.05-.08-42 1.56-63.03 2.36-23.64.66-47.28 1.06-70.93 1.2l-381.765-.42c-43.762-.16-85.109 5.99-128.849.25-9.235-.33-54.38-.39-57.853-9.82-8.098-21.98-4.907-77.89.593-99.15 10.079-1.84 18.523-2.23 28.681-2.82"/><path fill="#2f363d" d="M656.567 1161.36c6.086 1.48 12.432 8.47 23.034 9.29 23.978 1.85 47.877 1.58 71.874 1.35l98.53-1.12c22.767-.45 42.31-1.93 65.533-.96 42.436 1.78 86.532 2.88 129.032 3.03 54.63.2 108.18-3.78 162.93-.75 35.52 1.97 74.94-1.51 110.35-3.84 20.29-1.8 42.94-.59 63.63-3.18 3.46-.43 10.04 1.46 13.1 3.62 4.82 9.54.38 81.44.31 97.09-.44 1.11-.89 1.26-1.86 2.21-8.32.99-36.1.12-46.5.13l-119.86-.48-410.265-.9c-37.89-.23-75.718 3.32-113.917.87-17.952-1.16-33.19.84-51.494-2.86 2.263-7.22 2.104-16.85 2.657-24.5 1.673-23.13-.711-56.86 2.916-79"/><path fill="#fffffe" d="M1222.28 1177.96c25.98-1.77 51.83-.97 77.82-2.91 14.29-1.07 60.08-3.03 70.82 3.1-3.4 5.47-44.44.23-52.25.94-33.19 3.03-65.74.67-98.83.92zm-546.633.82c24.144.39 47.18.51 71.345-.16 9.153-.26 22.614 1.79 32.514 1.97 15.276.29 30.362.34 45.641.31l-.147 2.12c-9.975-.13-21.388 1.04-31.893.89-14.381-.2-29.149-.87-43.477-.68-21.798.28-53.134 4.55-73.983-4.45"/><path fill="#919196" d="M825.147 1180.9c6.968-.36 12.35.03 19.249.59-7.059.79-12.069 1.64-19.396 1.53zm394.693-.89c-2.72.07-9.93.25-12.41-.49l-.09-.24c.87-1.75 12.86-1.36 14.94-1.32z"/><path fill="#2f363d" d="M988.85 915.551c77.89-3.172 172.4 12.662 247.45 32.272 37.45 9.787 93.73 44.897 124.73 68.057 3.55 2.66 24.91 23.03 25.1 27.08-9.38 7.21-85.38 1.19-101.84 1.21l-228.03 1.87c-39.76 0-81.145 1.48-120.6-.1-59.11-2.37-116.1-5.09-175.24-1.03-18.417 1.26-38.958-1.31-57.602-.17-14.74.89-29.281 2.26-44.065 2.66 19.991-31.8 85.19-76.544 120.874-90.027 63.717-24.076 141.471-39.816 209.223-41.822"/><path fill="#db2e2c" d="M882.441 986.018c3.124-9.529 5.987-14.877 16.237-17.859 14.035-4.082 28.169-7.742 42.292-11.506a3528 3528 0 0 1 80.23-20.87c7.82-1.946 34.09-8.996 41.11-9.416 6.38-.381 31.14 3.685 38.96 4.836 24.59 3.812 49.22 7.341 73.88 10.587.03 4.149.38 7.319-.97 11.233-3.18 2.766-1.31 1.79-6.2 2.175.38 7.2.64 14.867 1.39 21.995 2.79-.229 2.59-.267 5.21.69 1.94 3.11 1.69 1.503.95 4.95-3.19 2.857-15.76 5.067-20.53 6.23a1657 1657 0 0 0-37.52 9.833c-23.3 6.454-77.32 26.574-97.72 28.064-11.95.88-118.264-14.35-127.016-19.06-6.765-3.65-8.663-15.081-10.303-21.882"/><path fill="#fffffe" d="M1023.05 993.997a6502 6502 0 0 0 89.74-24.182c14.11-3.893 41.72-12.255 55.19-14.617.38 7.2.64 14.867 1.39 21.995-7.79 3.677-35.89 9.902-46.23 12.74a8278 8278 0 0 0-100.98 29.417c1.02-7.49.82-17.6.89-25.353"/><path fill="#dc9892" d="M1149.64 968.094c.82-.009 1.73-.116 2.43.31-.12 1.613-13.89 4.739-16.07 5.409-16.34 5.022-33.27 8.163-49.8 12.333-.7.507-1.9 1.292-2.72.529-.04-.261-.08-.242.09-.495 1.47-2.158 59.17-16.463 66.07-18.086m-13.92 10.16c.54.065 1.09.074 1.6.226-3.49 1.839-7.14 3.109-10.91 4.277-4.78 1.461-9.6 2.822-14.44 4.081-8.45 2.161-17.31 5.114-25.72 6.985-.77.051-3.87-.363-2.27-.893 16.75-5.55 34.58-9.842 51.74-14.676"/><path fill="#fffffe" d="M899.699 974.174c4.736.434 9.883 1.538 14.615 2.402 34.521 6.305 68.894 13.007 103.486 18.96.12 6.814 1.84 19.144-1.83 23.794l-3.93-.02-.81-.04-1.35-.08c-34.531-1.92-75.067-12.37-110.203-15.52-9.748-.87-14.376-21.533.022-29.496"/><path fill="#dc9892" d="M937.238 997.384c6.817.614 61.081 6.666 62.772 9.036-3.837 1.26-59.888-6.39-61.793-8.155zm13.091-6.746c4.917-.527 48.066 5.714 49.613 7.688-2.517.627-4.4.103-6.937-.29l-6.016-.792c-4.717-.594-35.617-4.358-36.66-6.606m-57.158-8.538c4.263.273 31.795 5.024 35.087 6.549-7.959.894-27.829-2.859-35.087-6.549m3.476 9.89c3.429.275 26.901 2.777 28.083 5.027-.009.229.034.288-.099.453-.194.24-.883.256-1.092.282-4.383-.648-10.292-2.299-14.541-2.589-3.305-.225-7.612-1.558-10.357-.71-3.891 1.203-3.792.87-1.994-2.463"/><path fill="#2f363d" d="M1519.64 640.447c49.95-3.204 108.24 28.517 121.14 79.588 13.22 51.296-22.69 105.505-72.35 119.635-13.68 4.281-82.22 1.972-57.96-25.534 27.93-31.674 52.25-12.228 81.95-47.99 1.78-14.099 3.39-25.124-.62-38.786-15.88-54.04-83.23-48.811-121.1-23.099-7.01 4.759-11.79 10.584-17.65 15.847-22.34 20.04-32.41 46.363-40.52 74.508-5.3 17.228-8.31 26.843-11.31 45.152-3.86 31.876-6.89 61.589-6.94 93.852-.02 12.792 3.53 102.54 1.67 105.18l-1.97.1c-8.3-4.03-13.04-12.17-19.3-18.9-29.22-30.625-72.45-47.841-109.47-67.306-8.24-5.059-35.33-9.895-33.64-23.043 4.23-33.067-1.14-67.595 1.97-100.302a156.06 156.06 0 0 1 39.76-89.488c56.58-61.335 149.94-87.065 231.25-98.673 4.38-.625 10.59-.576 15.09-.741m-1003.411-.082a143 143 0 0 1 7.763-.44c16.178-.441 30.274 2.449 46.165 4.561 67.154 8.924 142.72 35.214 193.647 81.039 8.774 7.894 40.861 43.559 44.458 53.3 16.766 45.405 10.891 108.37 11.988 157.143-9.089 5.229-24.072 8.924-34.472 13.911-37.871 18.16-75.827 38.977-108.437 65.651-5.467 4.47-14.749 15.06-19.717 20.54-.339-13.18 1.868-27.31 1.406-40.637-1.729-49.918.527-101.045-8.152-150.221-2.36-12.899-4.757-26.471-7.751-39.221a293 293 0 0 0-13.035-40.404c-16.13-40.488-27.389-46.04-63.827-69.42-53.487-34.321-124.161 3.043-109.373 69.61 9.283 41.783 80.083 12.254 91.915 53.185.853 2.949-.032 10.578-2.752 13.442-28.726 12.374-69.755 13.751-95.683-6.333-20.314-16.171-38.805-43.947-41.388-70.38-6.753-69.097 43.501-107.249 107.245-115.326"/><path fill="#2f363d" d="M511.869 691.344c30.917-4.39 54.474 9.12 78.102 27.33 32.613 24.852 41.939 72.562 50.061 110.479 20.57 96.021 8.733 194.207 8.311 291.307-.074 16.92 1.879 34.21 1.51 51.34l-1.347 55.17c-.289 11.41-1.377 27.44.426 38.48-13.223 2.57-32.77 2.91-46.683 3.5-9.162.11-27.567.46-35.207-4.08-7.867-11.58-5.081-54-5.547-68.75-2.616-82.87 2.014-165.55-2.024-248.369-1.104-22.637 2.405-47.207.299-70.237-1.398-15.287-.056-31.266-2.995-46.556-6.244-49.047-41.198-34.799-75.345-48.076-4.106-1.592-9.674-5.694-13.447-8.356-16.143-39.804-.36-76.913 43.886-83.182"/><path fill="#d68036" d="M590.103 814.239c-.135-2.946-.573-20.281 1.346-21.962l.207.047c1.275 1.445 1.144 5.392 1.039 7.158 1.671 50.482 4.437 99.984 3.157 150.681-.56 22.214-2.125 43.972-3.018 66.127-.611.51-.661.77-1.236.73-.583-.44-.769-1.19-1.039-1.84l-.554-.95c.227-20.214-.704-40.724-.908-60.991a3222 3222 0 0 1 1.006-139"/><path fill="#805d40" d="M590.103 814.239c-.135-2.946-.573-20.281 1.346-21.962l.207.047c1.275 1.445 1.144 5.392 1.039 7.158-1.901.248-1.914 11.525-2.592 14.757"/><path fill="#d68036" d="M617.802 852.163c1.371 41.272 2.706 78.973 1.302 120.375-.813 23.993-3.32 53.382-2.9 76.552l-2.202 5.08c-.394-47.05-2.246-94.227-.979-141.566.501-18.724 3.052-40.162 2.922-58.249.569-.63 1.396-1.472 1.857-2.192m-29.575 236.997 1.981.76c-.712 8.62 2.245 26.77 2.816 36.54 1.731 29.59 3.975 69.4.439 98.67l-.734.09c-1.785-9.43-2.263-21.17-3.207-30.83-3.461-35.41-2.872-69.7-1.295-105.23m33.299 19.76c5.999 8.21 2.756 117.57.937 133.79-1.676-6.67-1.997-16.41-2.649-23.44-3.462-37.28-.955-73.13 1.712-110.35M513.414 725.227c13.996 10.918 19.778 16.393 24.384 33.79l1.876 7.236-2.248 2.548c-6.462-13.662-16.182-26.545-24.012-43.574m27.929 17.66c-.228-1.134-2.112-6.334-.455-6.431 1.198.862 1.478 1.469 2.264 2.754 8.616 12.935 11.968 30.029 16.171 45.094-11.069-16.338-12.168-23.32-17.98-41.417"/><path fill="#bf7d40" d="M541.343 742.887c-.228-1.134-2.112-6.334-.455-6.431 1.198.862 1.478 1.469 2.264 2.754z"/><path fill="#98693d" d="m590.005 1014.23.554.95c.27.65.456 1.4 1.039 1.84.575.04.625-.22 1.236-.73.459 6.53-.959 12.19-.734 19.23l-1.939-1.29c.363-6.54-.388-13.15-.156-20m26.199 34.86c-.002 7.36-.357 12.67-1.027 19.95-.627-5.37-1.174-9.4-1.175-14.87z"/><path fill="#bf7d40" d="M539.674 766.253c.398 1.254 2.304 5.959 1.046 7.073-1.175.047-2.847-3.731-3.294-4.525z"/><path fill="#805d40" d="M615.945 854.355c.105-1.515.1-4.617 1.31-5.793l.179.021c.531.865.365 2.67.368 3.58-.461.72-1.288 1.562-1.857 2.192m-27.718 234.805-.005-1.49c1.187-5.5 1.735-.04 1.986 2.25z"/><path fill="#584a41" d="m590.161 1034.23 1.939 1.29c-.08.52-.211 2.36-.751 2.77l-.237-.06c-.843-1.42-.779-2.33-.951-4"/><path fill="#805d40" d="m592.729 1225.22.734-.09c.008.29.392 2.34-.583 2.25-.49-.65-.233-1.33-.151-2.16"/><path fill="#2f363d" d="M1521.9 691.323c23.14-1.647 37.51 3.134 53.24 20.629 9.48 10.549 13.13 23.345 12 37.408-3.56 44.201-54.82 32.651-77.89 53.341a38.33 38.33 0 0 0-11.41 19.052c-6.98 26.965-4.52 69.564-6.08 98.452-4.11 75.613-3.36 152.175-1.64 227.815.95 42.23 3.11 80.37.31 122.65-8.95-1.08-16.35-1.66-25.36-2.13-21.18-.82-41.21 1.39-63.85.03l1.84-136.05c.47-29.29 2.49-58.11.67-87.51-.76-12.3-3.32-26.85-3.26-38.88.55-97.952-10.42-296.16 121.43-314.807"/><path fill="#d68036" d="M1461.11 812.062c-.21-2.858-.94-20.753 1.1-22.041 1.45.659 1.77 8.421 1.57 10.093 1.93 52.25 4.86 103.155 2.13 155.463-.78 3.15-.17 6.512-2.81 7.414-2.91-47.934-2.99-103.005-1.99-150.929"/><path fill="#584a41" d="M1461.11 812.062c-.21-2.858-.94-20.753 1.1-22.041 1.45.659 1.77 8.421 1.57 10.093-.87-.428-.57-.347-1.01-.407-.77.51-1.34 10.409-1.66 12.355"/><path fill="#d68036" d="M1462.38 1091.22c.11-1.99.09-3.58 1.25-5.23.74-.28 1.13.86 1.17 1.43.36 5.29.34 10.63.08 15.93.18 32.98.11 65.6-2.83 98.5-.47 5.25-1.05 11.06-1.18 16.31-1.12-.78-1.89-1.21-2.84-2.18-2.25-49.72-.44-75.28 4.35-124.76"/><path fill="#805d40" d="M1462.38 1091.22c.11-1.99.09-3.58 1.25-5.23.74-.28 1.13.86 1.17 1.43.36 5.29.34 10.63.08 15.93-.86-4.92-.34-8.23-2.5-12.13"/><path fill="#d68036" d="M1434.06 1115.04c1.93 48.15 2.09 69.17-2.06 118.17-6.01-26.89-.99-87.93 0-117.4zm2.08-265.232 1.84-.747c-.07 24.693 2.15 49.568 1.93 75.85-.2 14.637-.56 29.272-1.07 43.901-.16 5.064-.93 15.738-.62 20.149l-2.42.087c.92-8.756-.05-39.944-.12-50.528-.15-29.571 0-59.144.46-88.712m94.58-116.926c4.34 4.683-15.13 36.485-18.51 41.883-.49-.348-1.32-.991-1.09-1.746 4.19-13.815 8.63-30.152 19.6-40.137m-12.57-.058c-5.73 17.098-11.15 28.973-19.34 45.252l-1.59-2.949c3.96-17.416 9.01-29.302 20.93-42.303"/><path fill="#98693d" d="M1463.1 962.991c2.64-.902 2.03-4.264 2.81-7.414.05 2.629-.6 23.112-1.46 24.851l-.17.047c-1.65-2.14-1.46-14.369-1.18-17.484m-5.07 252.989c.95.97 1.72 1.4 2.84 2.18.09 4.97-.61 6.73-1.51 11.57-.64-5.1-1.23-8.57-1.33-13.75"/><path fill="#805d40" d="M1432 1115.81c0-.83-.48-7.17 1.26-7.15 1.06.89.78 5.12.8 6.38zm4.14-266.002c-.03-.768-.74-7.525 1.09-7.175 1.12.959.75 5.095.75 6.428z"/><path fill="#bf7d40" d="M1498.81 778.076c-.35.629-1.5 3.532-2.44 3.427-.97-1.092.52-5.243.85-6.376z"/><path fill="#805d40" d="m1435.8 989.048 2.42-.087-.18 2.024c-.46 7.188-2 2.915-2.24-1.937"/><path fill="#2f363d" d="M560.984 1272.4c11.28-.49 36.853.97 48.965 1.11 16.447.18 67.092-2.36 81.112 1.37 2.23 3.42 3.269 6.39 3.624 10.61 4.613 54.83-45.77 60.1-72.696 95.47-13.103 17.22-14.128 24.42-17.531 44.41-8.132 47.75 9.663 82.14 21.541 126.32a433.4 433.4 0 0 1 11.469 61.67c3.936 36.41 1.499 79.02-12.885 113.36-5.735 13.69-19.38 32.28-28.704 43.86-5.681 7.23-10.988 13.56-18.139 19.38-15.613-6.63-18.76-9.63-36.558-14.1 6.677-9.02 13.047-16.41 18.642-25.92 58.19-98.99 2.625-197.6-55.586-280.37-4.756-6.76-9.271-21.8-12.443-30.15-15.4-40.55-15.13-96.87 14.038-131.45 11.439-13.6 37.482-33.89 55.151-35.57m911.326 517.49c-31.16-30.32-44.3-44.84-56.65-88.73-15.7-52.88-2.39-119.42 15.04-170.55 23.24-68.15 30.2-128.97-30.88-179.78-9.92-8.24-21.54-14.75-30.63-25.37-9.33-5.72-14.32-44.77-5.2-50.14 3.17-1.87 64.37 2.83 71.87 2.65 28.94-.69 59.62-10.82 84.06 8.22 6.73 5.24 11.96 11.41 18.62 16.62 24.46 18.72 31.24 50.43 30.62 79.8-.49 26.3-6.35 52.23-17.2 76.2-6.63 14.52-16.49 28.64-25.01 42.26-21.81 34.85-42.2 64.4-54.31 104.4-10.89 36.01-10.95 86.43 3.82 121.23 6.53 15.36 19.42 34.95 27.53 50.72-3.92 2.17-8.11 4.22-12.11 6.26-3.11.82-5.5 1.45-8.39 2.83zm-42.27-1540.658c14.54-1.656 26.09-.565 37.22 9.694 25.16 23.189 13.95 61.806-19.87 67.463-6.58 1.101-12.15.758-18.8.603-16.23 29.999-23.91 50.779-30.79 84.549-17.23 84.612-28.85 172.275-34.85 258.382a716 716 0 0 0-29.38 13.888c-14.95 7.156-21.29 10.406-34.63 20.13 1.38-55.419 11.38-138.891 22.65-193.073 13.23-63.573 32.7-246.583 108.45-261.636"/><path fill="#d68036" d="M1430.4 286.895c-10.79 17.405-22.2 34.211-30.26 53.106-22.41 52.587-31.33 106.583-41.8 162.387-7.79 41.531-17.3 83.099-20.66 125.399-1.38-2.432-1.37-2.535-2.16-5.287 7.2-79.927 30.97-282.882 93.76-334.688z"/><path fill="#805d40" d="M1337.68 627.787c-.16 2.461-1.46 20.969-2.75 21.7-.32-.025-.16.027-.47-.181l.34-1.196-.72-.722c.01-.165.01-.33.01-.495l.11-1.906c.2-4.062.69-19.564 1.32-22.487.79 2.752.78 2.855 2.16 5.287"/><path fill="#2f363d" d="M611.351 247.375c16.791.571 33.042 6.843 45.2 18.617 33.151 32.103 56.294 168.063 65.315 216.077 2.596 13.814 6.545 27.385 8.698 41.275 4.015 25.898 6.321 52.172 9.417 78.204 4.004 33.67 8.713 67.071 9.34 101.017-8.382-4.127-16.901-8.969-25.124-13.475-11.926-6.788-25.111-11.069-36.236-18.598-4.297-24.939-5.125-53.155-8.159-78.255-7.7-63.695-13.434-127.3-30.291-189.403-8.363-30.811-12.365-52.524-29.402-80.18-22.771 3.508-44.317-2.921-48.023-28.986a42.02 42.02 0 0 1 8.984-32.121c8.677-10.769 17.598-12.837 30.281-14.172"/><path fill="#d68036" d="M616.64 288.729c55.993 23.009 74.518 159.993 83.25 212.703 6.093 36.783 11.415 77.612 14.587 114.758-.85 1.812-.905 1.824-2.053 3.564-1.119-16.215-5.739-39.963-8.777-56.261-14.554-78.078-27.956-219.718-87.007-274.764"/><path fill="#805d40" d="M714.477 616.19c.563 1.526 1.268 15.852.749 17.039l-.384.021c-.948-1.015-1.967-9.142-2.12-10.71l-.298-2.786c1.148-1.74 1.203-1.752 2.053-3.564"/><path fill="#2f363d" d="M1690.85 860.4c26.45-1.66 36.75 7.484 55.68 22.79 3.8-5.676 8.97-11.464 16.23-6.495 3.24 6.744-1.26 9.371-6.4 12.697-8.31 27.503-20.44 83.411-17.39 114.218.89 8.96 31.95 16.05 19.59 32.28-2.04 2.67 5.12 9.05 5.9 11.48 6.31 20.38-8.53 41.91-12.94 61.48-2.14 9.45-6.06 24.66-.97 32.42 1.53 2.35 1.8 2.83 2.35 5.77-5.65 16.36 4.22 21.19 10.8 31.34-2.2 3.05-3.27 4.75-6.97 4.15-2.92-2.99-1.93-5.42-3.55-8.11-7.09-11.76-10.72-23.31-12.81-36.86-4.3-27.92-6.88-56.26-7.65-84.52-14.65-.62-27.63-.51-42.3-.21l-36.03.28c-.83 28.7-3.03 66.05-8.59 94.89-1.01 5.24-10.13 23.57-13.07 29.33.97 1.85.34.9 2.02 2.74-2.95 2.92-7.75 2.35-10.62-.38.22-3.59 8.83-11.4 11.39-18.82 5.14-14.85-.37-9.77-.48-15.83l3.6-3.26c7.92-33.46-16.23-53.48-17.96-84.58-.6-10.83 4.42-11.39 9.58-18.99-1.01-1.96-4.13-7.75-3.69-9.83 2.42-11.73 16.81-17.21 24.85-25.68-.78-31.25-7.17-71.37-14.78-102.027-1.95-7.855-10.65-14.832-12.54-21.397 3.32-13.923 14.49-1.379 18.82 4.452 19.12-13.269 21.77-20.89 47.93-23.328"/><path fill="#fffffe" d="M1669.77 896.304a530 530 0 0 1 21.17 4.079c1.02 28.436 2.59 55.749 2.79 84.435-6.67.31-7.74.486-14.42 1.545-3.69-28.246-7.03-61.598-9.54-90.059m-12.11-3.859c3.77-1.388 4.03.523 4.51 4.046 4.14 30.311 7.66 60.763 11.66 91.086-3.84 1.752-9.38 4.995-13.32 5.37-1.23-10.508-2.7-20.52-4.34-30.954l-1-6.002-.95-5.5a507 507 0 0 0-13.64-56.602c7.57-.145 9.51-.433 17.08-1.444m60.64 3.85c2.01 1.605-5 80.307-5.58 90.853-3.55-.615-6.86-1.269-10.48-1.866-.95-.248-1.9-.496-2.86-.744-1.23-27.725-.59-56.6-.7-84.618 5.25-.748 11.27-1.188 16.23-2.621zm10.7-4.249c7.74.483 10.3 1.209 18.24.371l1.41-.137a800 800 0 0 0-9.36 35.733l-1.03 4.502c-4.67 21.121-6.15 33.479-9.12 54.25-.76 11.841-2.01 7.008-12.09 1.084 4.19-24.681 6.02-50.991 9.78-75.853.99-6.527.95-13.171 2.17-19.95m-85.96 211.294c-2.76-11.09-6.76-24.67-8.21-35.85-1.1-8.52 1.61-11.16 9.64-13.51.83 4.93 1.02 51.08.2 53.88l-.22.21c-1.89-.38-1.49-3.41-1.41-4.73"/><path fill="#70717a" d="M1644.47 1053.98c.83 4.93 1.02 51.08.2 53.88l-.22.21c-1.89-.38-1.49-3.41-1.41-4.73 2.41-10.16.11-36.1 1.43-49.36"/><path fill="#fffffe" d="M1743.37 1103.72c.97-8.69-.63-38.18.45-48.21.29-.36 1.59-.4 1.82-.33 9.22 2.38 7.41 13.07 6.09 19.81-1.76 8.94-4.63 17.52-5.7 26.32-.92.79-1.78 1.59-2.66 2.41"/><path fill="#bcbcbf" d="M1746.03 1101.31c-.12.81-.64 5.76-1.55 6.22-.88-.43-.97-3.03-1.11-3.81.88-.82 1.74-1.62 2.66-2.41"/><path fill="#2f363d" d="M355.698 861.378c26.674-1.995 35.942 7.318 55.958 21.193 3.99-4.395 10.047-10.694 16.022-6.635 3.639 8.551-7.24 15.591-9.844 25.263-7.994 29.693-15.292 73.695-15.002 103.891 7.829 8.65 21.405 13.41 23.583 24.33.526 2.64-3.169 6.13-4.949 8.05 25.309 29.4-6.02 55.16-7.968 87.66-.769 12.83 4.142 17.11 3.213 26.11-1.458 14.11 3.959 19.65 13.491 28.02-1.856 3.28-3.066 5.19-6.893 5.15-2.897-2.14-13.262-26.55-14.266-30.6-7.858-31.66-9.189-67.26-10.037-99.78l-37.011-.13c-14.023-.07-28.444.3-42.496.49-.899 30.01-2.658 61.82-7.944 91.53-2.317 13.02-8.344 20.93-14.044 32.3 1.048 1.99.872 1.59 1.602 3.85-4.197 2.54-7.94 1.26-10.77-2.49l.599-1.55c8.014-5.29 13.483-16.97 13.928-26.46-2.743-4.03-2.852-3.29-2.255-7.15 5.437-4.78 4.736-5.67 4.382-13.09a102.2 102.2 0 0 0-4.125-24.84c-4.912-16.09-15.78-34.35-14.669-52.16.403-6.46 6.333-9.48 8.915-15.8q-.998-2.505-1.935-5.04c-6.498-17.51 23.29-20.59 23.135-30.44-.539-34.094-6.481-81.634-18.49-113.076-6.279-3.058-12.288-5.558-6.205-14.212 4.188-5.668 15.924 7.046 18.84 5.514 19.282-10.132 21.789-17.444 45.235-19.898"/><path fill="#fffffe" d="M313.317 894.551c4.664-.424 8.376-.6 13.045-.7 6.186 30.966 9.214 62.815 13.413 94.078-3.82 1.931-7.535 3.982-11.356 5.914l-1.944.558c-2.038-5.79-2.385-14.326-3.379-20.905-1.508-9.974-3-19.577-4.923-29.507l-1.925-9.501c-1.824-8.959-3.613-17.401-6.028-26.236-.732-2.674-3.431-10.73-3.734-12.775 1.161-1.121 5.068-.65 6.831-.926m21.431 2.918c7.399 1.046 14.731 2.522 22.102 3.813.484 23.138 2.893 62.31 1.724 84.218-4.655.507-8.483.881-13.145 1.567-4.322-29.401-6.31-60.457-10.681-89.598m45.37.885c4.147-.847 4.865-1.132 4.52 3.168-2.07 23.898-4.222 47.745-5.631 71.698-.545 9.279 2.468 14.31-6.363 13.52-11.284-1.566-8.35-.153-8.552-13.458-.364-23.977-.165-47.986-.098-71.965a265 265 0 0 1 16.124-2.963m14.687-5.648c7.344.628 12.415 1.329 20.094 1.781-10.403 32.184-17.103 61.484-20.244 95.346-1.717 8.976-5.995 3.049-13.061-1.687 4.796-30.084 6.467-66.711 13.211-95.44m14.235 204.664c-.081-4.16-.507-40.4.527-41.57 2.9-.99 6.741 5.36 7.327 7.71 2.259 9.07-2.458 23.84-4.859 32.99zm-102.016 1.76c-.701-4.1-1.653-7.2-2.659-11.16-.369-1.5-.749-2.99-1.14-4.49-1.463-5.79-4.56-18.4-1.199-23.95.947-1.56 3.091-3.35 4.966-3.61.483-.06 1.363.08 1.402.36 1.139 8.1.559 34.17.753 40.81l-.208 2.92z"/><path fill="#70717a" d="M309.147 1097.09c2.041 9.84-1.087 15.01-.773 9.3-.544-2.56-.961-4.68-1.35-7.26l1.915.88z"/><path fill="#bcbcbf" d="m307.024 1099.13 1.915.88c-.146 2.22-.307 4.17-.565 6.38-.544-2.56-.961-4.68-1.35-7.26"/><path fill="#e5e5e5" d="m409.04 1097.37 2.995-.87c-.502 2.31-.8 4.14-1.11 6.49l-2.247-.46c.177-1.87.284-3.28.362-5.16"/><path fill="#919196" d="m408.678 1102.53 2.247.46c-.186 1.11-.682 4.63-1.508 5.32l-.193-.03c-.895-.93-.543-4.56-.546-5.75"/><path fill="#2f363d" d="M1868.57 862.242c31.47-3.994 37.7 5.118 60.56 20.384 4.96-5.494 9.04-10.154 16.8-6.055 4.07 7.059-.56 9.301-6.07 12.867-10.62 33.035-18.71 80.724-18.82 115.592 7.65 7.66 29.37 16.34 21.3 29.34-5.73 9.23 9.58 9.95 7.1 25.09-5.16 31.46-18.51 47.95-16.7 81.4 2.35 2.07 2.59 2 3.99 4.72-4.04 25.4 9.69 26.5 10.43 32.51-3.7 2.91-1.76 2.32-5.74 2.84-4.67-2.3-13.55-25.57-14.9-31.35-7.13-30.56-8.3-64.91-10.48-95.93-8.84-.54-20.75-.21-29.83-.22q-24.195-.27-48.39.09c.18 23.85-4.05 119.93-25.66 128.83-2.83-1.14-1.82-.2-3.18-2.89 1.72-9.52 16.13-18.86 11.21-30.22-1.14-2.63 1.95-12.56 2.54-16.79 3.71-26.31-16.08-49.18-17.56-74.76-1.18-19.82 13.86-9.27 5.49-28.77-2.91-6.75 18.96-20.71 23.28-24.58l1-.91c.69-30.823-10.05-82.675-18.28-112.832-1.34-.811-2.67-1.653-3.97-2.526-4.81-3.284-6.87-7.452-2.26-12.048 8.67-2.904 11.39 1.494 16.21 7.534 18.41-10.755 14.14-16.272 41.93-21.316"/><path fill="#fffffe" d="M1842.01 893.527c3.05-1.366 3.6-.514 3.93 2.97 2.91 30.507 8.14 60.533 12.43 90.822-2.58 1.296-12.01 6.34-14.18 6.101-1.76-11.035-3.1-21.839-5.02-32.928a689 689 0 0 0-4.44-22.981 544 544 0 0 0-2.38-10.521c-1.94-8.477-4.3-17.154-6.16-25.505l-1.75-7.535c7.12.225 10.3.453 17.57-.423m11.05 3.592c7.31 1.527 14.63 2.656 21.94 4.086.04 20.524 1.25 41.249 1.18 61.798-.02 5.398 1.11 17.219.44 21.607-5.51.48-8.81 1.128-14.26 1.927a4209 4209 0 0 0-8.19-80.039c-.35-3.145-.81-6.3-1.11-9.379m48.52.057c.52.033 1.3-.056 1.69.393.4.47.22 1.85.17 2.345-.87 8.558-7.39 85.944-8.02 86.505-.93.834-7.88-.989-9.19-1.241-.59-.073-3.09-.266-3.13-.778-1.48-18.064-1.47-67.114-1.97-83.113 7.1-1.307 13.41-2.568 20.45-4.111m9.65-4.054c7.93-.048 12.87.455 20.7.968-2.59 9.476-5.58 18.824-7.72 28.423l-1.02 4.5c-1.38 6.323-2.72 12.656-4 18.999l-1.01 4.999a578 578 0 0 0-3.02 15.998c-1.12 6.619-2.17 13.316-3.38 19.91-1.05 9.429-2.64 6.082-9.76 2.113l-1.57-.868c4.08-30.578 8.58-64.413 10.78-95.042m-82.81 160.688c.74 3.93 1.01 48.72.18 51.96l-.16.15c-1.71-.29-1.37-3.22-1.33-4.39-2.49-9.74-5.07-19.62-7.55-29.37-2.33-9.13.7-14.17 8.86-18.35"/><path fill="#919196" d="M1828.42 1053.81c.74 3.93 1.01 48.72.18 51.96l-.16.15c-1.71-.29-1.37-3.22-1.33-4.39 2.01-8.62.38-35.28 1.31-47.72"/><path fill="#fffffe" d="M1926.87 1089.85c-.09-3.41-.37-32.44.34-33.4 1.92-.68 8.1 3.26 8.31 5.75 1.1 12.9-4.31 28.66-6.81 41.57-.25 2.26-.46 3.96-1.37 6.03l.33-.73-.37.79c-2.56.37-.77-17.6-.43-20.01"/><path fill="#bcbcbf" d="M1926.87 1089.85c.27 3.18-.76 13.37 1.84 13.92-.25 2.26-.46 3.96-1.37 6.03l.33-.73-.37.79c-2.56.37-.77-17.6-.43-20.01"/><path fill="#2f363d" d="M167.85 862.289c36.404-3.934 35.613 5.911 59.552 19.93 5.271-.038 4.709-5.88 11.883-7.893 3.718.439 3.654.729 6.468 3.046 3.037 6.63-.891 10.007-6.379 12.998a286 286 0 0 0-8.219 29.626c-3.155 13.899-14.921 77.308-9.728 85.954 4.908 8.18 16.116 9.44 20.779 17.47 1.641 2.82 2.598 5.99 1.532 9.2-.441 1.33-1.086 2.74-1.611 4.05l-.734 1.81c.838 4.26 1.144 3.34 5.026 7.05 10.079 33.32-20.979 59.55-15.173 95.2.449 2.76 3.971 2.92 4.025 4.98.204 7.77-2.85 8.14-.709 16.34 2.548 9.77 10.353 11.84 12.24 16.38l-.949 1.96c-3.523 2.06-8.227 3.34-10.766-.77l1.789-1.52-.039-1.9c-18.841-28.8-19.86-87.32-20.061-122.06l-30.526-.5c-16.239-.23-32.48-.24-48.718-.04-.788 24.99-2.306 49.19-5.729 73.99-1.752 12.69-.53 15.55-5.605 28.07-4.162 10.26-4.696 12.74-10.653 22.79l1.366 2.04-.808 1.47-3.088.87c-3.146-.88-2.967-.74-5.445-2.85l.092-1.72c7.827-7.46 10.386-14.61 13.023-25.78.327-1.38-3.214-2.76-2.292-8.51.668-.51 1.861-1.4 2.429-1.96 9.771-9.7-11.36-58.76-14.209-70.46-1.748-7.18-1.807-13.61-1.542-20.91 4.126-8.46 6.47-7.1 9.469-12.09-14.037-22.68 19.789-23 19.829-35.72-.037-35.389-7.094-72.089-15.678-106.416-.795-3.178-20.289-20.881-3.82-22.326 4.706 1.732 7.335 4.781 11.082 8.212 6.029.708 19.152-12.236 26.029-15.351 6.956-3.151 8.567-3.394 15.868-4.66"/><path fill="#fffffe" d="M138.76 893.464c3.85-1.138 6.433-.645 7.012 3.53 4.222 30.448 7.445 61.461 12.497 91.782-4.625 1.804-8.255 3.217-12.855 5.199-2.234-1.621-4.452-24.002-5.198-28.482a413 413 0 0 0-3.512-18.481l-5.509-25.525-.495-2.473a433 433 0 0 0-3.381-13.578c-.98-3.826-1.914-7.586-2.951-11.405 5.387-.042 9.012-.056 14.392-.567m15.524 4.496c6.524 1.373 14.153 2.631 20.751 3.259.101 11.946 3.14 77.881 1.475 84.129-5.089.891-7.961 1.442-13.071 2.083-.383-2.845-1.115-6.772-1.359-9.434zm46.482-.696c2.217 1.6 1.015 3.575.762 6.432-2.498 28.143-4.555 56.208-5.823 84.444-3.199-.513-7.334-1.292-10.502-1.933-.323-.166-1.719-.848-1.746-.997-2.966-16.356-.857-70.294-.672-83.785 6.106-1.338 11.961-2.803 17.981-4.161m11.064-4.498c7.335 2.633 11.714 1.89 19.435 1.435-9.226 30.638-15.025 61.936-19.79 93.549l-1.195 9.263-9.578-7.576c.454-22.232 7.993-72.954 11.128-96.671m-86.48 209.884c-1.58-11-4.933-21.47-7.162-32.66-1.45-5.11 2.047-12.04 7.05-13.53 2.985-.89 1.834 15.65 1.876 17.24 1.798 9.18 1.425 24.29.313 33.77-.517 4.41-2.256-6.26-2.077-4.82"/><path fill="#919196" d="M127.114 1073.7c1.798 9.18 1.425 24.29.313 33.77-.517 4.41-2.256-6.26-2.077-4.82 3.274-.36 1.631-24.84 1.764-28.95"/><path fill="#fffffe" d="M226.686 1099.2c.684-13.1.274-26.66.69-39.77.21-6.62 5.799-1.15 6.777 1.01 4.782 10.58-4.256 27.92-5.221 39.68z"/><path fill="#919196" d="M228.932 1100.12c-.21 1.51-.947 9.45-2.244 10.13-1.217-.52-.775-9.14-.002-11.05z"/><path fill="#2f363d" d="M1206.7 1273.43c29.72-1.72 67.28-.45 97.76-.38-1.21 14.6-3.93 57.96-3.21 70.67 3.5 62.27 32.77 195.06 63.73 248.46 26.13 6.68 33.11 16.24 6.49 31.03-10.11 4.09-46.45 13.23-47.39-8.32-.24-5.45 7.56-11.38 11.74-14.81-17.17-21.72-26.93-41.76-40.4-65.18-31.07-54.01-54.91-109.25-73.37-168.75-3.58-11.54-21.44-83.5-18.58-91.56zm-428.316-.87c10.789-.82 60.661-2.78 67.797 1.9.656 10.31-8.391 35.46-10.688 47.03-7.823 39.41-18.458 72.73-33.751 109.64-18.2 43.93-37.134 86.19-62.211 126.94-8.992 14.62-16.069 28.15-26.678 41.96 6.543 5.42 9.018 8.05 12.619 15.71-2.035 20.54-40.295 13.8-52.462 6.21-20.318-12.67-8.567-28.56 10.771-31.36 26.302-58.33 42.364-106.49 52.171-169.46 8.562-54.98 16.458-91.3 8.115-147.71 9.039-.77 24.565-.52 34.317-.86m729.186-286.898a2034 2034 0 0 1-1.23-55.222c-.13-7.9.09-21.48-.91-28.7-2.39-1.574-2.79-1.524-5.58-2.359-2.55-6-4.61-35.967 5.51-37.966 21.93-4.329 39.05 11.338 55.57 21.423 4.08-5.804 8.16-9.82 15.89-8.113 7.92 7.222-6.57 15.268-6.92 16.553-8.56 31.531-22.05 85.666-14.78 116.532 2.54 10.8 38.54 4.49 27.7 30.78 1.14 7.18 8.15 11.08 8.16 17.83.04 24.12-15.49 45.21-18.21 69.56-1.33 11.98 5.19 16.46 4.55 22.47-1.16 1.22-2.87 2.26-2.6 3.83 1.6 9.33 5.8 20.07 13.88 25.26l.59 1.88c-2.94 3.51-6.96 4.51-10.68 1.5-3.97-14.94-9.14-20.69-12.51-36.3-6.42-29.7-4.45-61.54-8.59-90.58-19.25-.08-43.44-.75-62.25.87-.59-21.36-3.4-45.31-2.2-66.183l2.82-2.048c3.85.903 7.83-.272 11.79-1.017"/><path fill="#fffffe" d="M1541.91 891.363c7.92 1.249 12.86 1.732 20.87 2.172-9.33 32.953-14.81 57.972-19.52 91.682-.34 4.253.21 5.585-2.16 8.153-3.15.315-7.82-3.014-10.85-4.739a6230 6230 0 0 0 11.66-97.268m-8.91 4.107c1.36 2.377-.68 10.667-.91 13.53-.64 7.674-5.86 76.456-7.33 77.585-1.64 1.255-7.9-.446-9.71-.729-.11-.039-1.55-.483-1.56-.704-1.11-17.366-.45-69.084-.47-83.921 9.13-1.903 11.14-2.085 19.98-5.761m35.64 203.62c.09-1.88.48-46.86-.79-43.46.26-.17.55-.33.9-.21 13.61 4.99 7.07 21.38 4.99 31.56-1.1 5.35-2.24 10.38-2.99 15.85-1.85-.87-1.6-1.66-2.11-3.74"/><path fill="#919196" d="M1568.64 1099.09c.51 2.08.26 2.87 2.11 3.74-1.31 12.58-3.86 4.83-2.11-3.74"/><path fill="#2f363d" d="M537.609 861.355c5.062-.464 8.861-1.183 13.153 1.37 4.977 6.59 4.211 23.781 2.103 31.509-1.038 4.503-4.637 8.81-4.544 13.478.512 25.435-.57 50.867-.263 76.299.032 2.686 3.482 1.575 6.437 3.251 1.827 11.207.465 52.538.268 65.858-21.659 1.2-42.653-.64-64.435.83-1.052 16.44-5.481 88.64-10.256 98.66-3.129 6.57-11.42 20.93-11.019 27.76.031.52.111 1.04.167 1.55-3.613 2.24-8.434.79-10.651-2.82 1.012-3.05 4.192-4.25 7.433-6.39l3.116-7.07c6.386-16.03.411-9.98 1.378-19.91 1.116-1.29 4.173-4.61 4.327-6.17 1.478-14.96-2.194-30.27-7.741-44.01-5.048-12.49-9.874-23.62-10.751-37.11-.572-8.79 9.122-15.12 9.338-20.86-1.044-1.92-2.572-4.2-3.188-6.28-.523-1.77-.431-2.84.279-4.46 3.21-7.31 14.551-9.61 21.463-11.99 5.423-1.88 12.595-4.54 15.054-10.24 6.485-15.034-9.633-96.525-17.018-114.743-5.301-3.287-8.95-4.651-8.088-11.716 6.539-7.803 13.471-1.014 18.591 4.278 19.126-10.463 16.155-17.64 44.847-21.074"/><path fill="#fffffe" d="M509.223 892.491c4.359 1.063 4.363 14.404 4.661 18.511 1.852 25.46 7.433 51.989 9.521 77.216-3.302 1.537-11.698 7.347-12.921 2.539-.867-7.355-1.968-15.503-3.331-22.765l-.936-5.501-1.003-5.502a551 551 0 0 0-2.032-10.501l-.944-4.501-1.984-9.001-1.033-4.5c-2.625-11.869-5.959-22.693-9.202-34.315 6.738-.337 12.491-.899 19.204-1.68m9.758 4.018c7.973 1.837 13.657 3.05 21.91 3.824-.071 28.427.227 56.855.896 85.275-4.271.301-8.449.453-12.713.713-4.41-29.537-5.394-60.14-10.093-89.812m-41.67 202.291c-1.542-8.74-5.246-20.02-6.794-29.18-1.838-10.88 9.724-17.85 9.232-10.65a368 368 0 0 0-.444 37.36c-.494 1.69-.237 2.04-1.994 2.47"/><path fill="#919196" d="M479.305 1096.33c.537 1.7 1.548 7.86-.018 9.11-1.662-.38-1.845-5.41-1.976-6.64 1.757-.43 1.5-.78 1.994-2.47"/><path fill="#2f363d" d="M964.91 256.664c10.941-56.553 82.68-69.177 111.82-21.077a61.7 61.7 0 0 1 8.36 23.92c.31 1.236 1.05 6.153 1.55 6.827.42.09.58-.101 1.09-.323.15 3.287-.95 11.259-1.74 14.619l-1.78-.554c-29.98-.747-63.48-6.49-93.667-1.452-27.631 4.612-54.119 7.661-81.971 10.402-15.904 1.922-31.34 6.969-46.912 10.051l-1.965 1.124c-.588-11.241-1.872-14.574-3.11-24.312 2.377-4.426-.138-6.439 1.85-9.648 1.454-12.349 3.339-20.2 10.978-30.986 21.643-30.559 75.608-24.542 89.318 10.265 2.305 5.851 2.891 11.611 3.563 17.982.273.218.684.587 1.038.598.422-.539 1.28-6.228 1.578-7.436"/><path fill="#e5e5e5" d="M856.585 275.889c2.377-4.426-.138-6.439 1.85-9.648 1.283 9.532 1.492 23.974 3.225 32.836l-1.965 1.124c-.588-11.241-1.872-14.574-3.11-24.312"/><path fill="#bcbcbf" d="M1085.09 259.507c.31 1.236 1.05 6.153 1.55 6.827.42.09.58-.101 1.09-.323.15 3.287-.95 11.259-1.74 14.619l-1.78-.554c1.59-5.652.87-14.539.88-20.569"/><path fill="#919196" d="M962.294 263.502c.273.218.684.587 1.038.598.422-.539 1.28-6.228 1.578-7.436.057 8.624.048 16.999-.476 25.603-.579-3.681-2.526-15.58-2.14-18.765"/><path fill="#2f363d" d="M762.586 301.092c-7.269-25.246 4.498-47.153 29.241-55.796a50.9 50.9 0 0 1 39.77 2.358c13.664 6.703 20.033 14.568 24.988 28.235 1.238 9.738 2.522 13.071 3.11 24.312l-1.279.462c-12.387 4.388-32.568 8.379-46.073 11.872-25.409 6.571-89.149 30.735-107.223 47.704-5.649-20.78-14.46-37.588-18.008-58.843 6.251-9.479 13.029-14.736 24.432-16.726 16.828-2.936 39.297 1.79 48.52 17.2z"/><path fill="#bcbcbf" d="M762.586 301.092c2.215 4.174 3.494 8.844 4.829 13.359.246.906.392 1.837.434 2.775l-.405.095.217.29c-.987-.881-5.922-12.688-7.597-15.741z"/><path fill="#2f363d" d="M1087.73 266.011c.57-9.452 2.01-19.608 7.38-27.504 15.47-22.708 52.23-30.309 74.79-14.009 13.21 9.545 18.85 20.183 21.43 35.631 1.76 8.218-.47 16.908 1.96 21.651-.37 3.791-1.28 9.264-2.68 12.844l-1.29.049c-1.27 1.254-1.22 1.061-2.8 1.975-2.87.234-14.75-1.182-17.4-2.028-11.24-3.581-78.91-11.053-83.13-13.99.79-3.36 1.89-11.332 1.74-14.619"/><path fill="#bcbcbf" d="M1191.33 260.129c1.76 8.218-.47 16.908 1.96 21.651-.37 3.791-1.28 9.264-2.68 12.844l-1.29.049c2.85-14.327 1.1-21.164 2.01-34.544"/><path fill="#2f363d" d="M1193.29 281.78c4.96-13.209 13.6-29.99 27.2-35.847 15.39-6.632 44.61-3.76 55.07 10.766 13.69 18.994 14.79 38.806 6.73 60.358l1.5 1.789c-.99 3.581-1.94 7.267-2.95 10.814l-1.87-.059c-9.99-4.703-22.27-7.373-32.95-10.885-16.86-5.539-33.09-13.062-50.03-18.516-2.94-.946-4.39-2.765-5.38-5.576 1.4-3.58 2.31-9.053 2.68-12.844"/><path fill="#bcbcbf" d="m1278.97 329.601.41-1.773c.91-4.112 1.64-6.695 2.91-10.771l1.5 1.789c-.99 3.581-1.94 7.267-2.95 10.814z"/><path fill="#2f363d" d="M531.434 1780.35c11.881-1.8 29.304 4.18 39.958 9.89 7.505 4.54 19.983 19.76 23.218 26.99 4.064 9.08-24.56 19.59-30.619 20.84l-3.749.75c-25.309 1.94-52.516-4.68-65.387-28.37 8.103-22.21 13.901-27.12 36.579-30.1m961.796 5.08c4.19-1.16 8.45-2.03 12.76-2.61 17.25-2.46 52.46.32 49.58 29.57-1.22 12.37-31.8 24.82-42.06 24.85-24.64 3.55-42.88.06-59.05-19.96 6.6-15.14 15.87-21.54 29.75-29.06l-.72-1.71c2.89-1.38 5.28-2.01 8.39-2.83z"/><path fill="#bcbcbf" d="M1483.49 1786.51c2.89-1.38 5.28-2.01 8.39-2.83l1.35 1.75c-3.43.74-5.72 1.55-9.02 2.79z"/><path fill="#2f363d" d="M1283.79 318.846c8.37-19.57 20.67-34.317 43.84-35.334 12.48-.548 32.15 6.618 39.06 17.586.73 1.186.53 3.623.08 4.874-7.03 17.3-14.59 34.503-20.7 52.174-21.13-8.131-45-18.544-65.23-28.486 1.01-3.547 1.96-7.233 2.95-10.814"/><path fill="#919196" d="M1492.96 988.727c-.01-6.145.68-14.466 2.82-2.048z"/><metadata><recraft-signature>{&quot;signed_by&quot;: &quot;recraft&quot;, &quot;signature_b64&quot;: &quot;b1p1SN/ZP6a3nyxPngx8uif2b9CC1K0bgjCOsrcOmCdKxDNVE01bB2fWa0cpr3NnvBEh4P7CJU/QMUreZ03NCQ==&quot;, &quot;signing_algo&quot;: &quot;Ed25519&quot;, &quot;generation_timestamp&quot;: 1777235198, &quot;identifier&quot;: &quot;6c2dbaed-00ef-4552-a380-7901f74e0b72&quot;}</recraft-signature></metadata></svg>