<svg xmlns="http://www.w3.org/2000/svg" width="1024" height="1024" preserveAspectRatio="none" style="display:block" viewBox="0 0 2048 2048"><path fill="#fdfdfc" d="m685.278 1024.76 1.079.69c-3.978-4.49-6.576-8.28-6.013-14.58a18.76 18.76 0 0 1 7.043-13.005c11.463-8.935 26.781 1.844 26.109 14.975-.33 6.44-8.181 12.89-12.679 16.62-.667.53.351 9.61.553 10.82 7.172 2.76 14.072 2.2 21.336 3 63.003 7 113.178-31.58 162.242-65.292 64.674-44.437 146.822-57.484 220.922-29.132 72.47 26.529 120.02 94.584 201.47 95.464 13.53.14 27.96-.1 41.1-4-.17-3.55.06-8.96-1.69-11.78-5.25-3.39-10.42-5.5-11.85-12.26-3.64-17.209 14.35-27.184 27.77-17.15 8.18 6.12 1.9 20.38-1.66 28.22l3.79 2.03c1.97 19.99 2.92 40.22 4.48 60.25.86 11.17 1.19 24.1 3.39 34.98 27.88 20.64 71.17 18.51 103.91 13.79 1.86-.28 3.72-.6 5.57-.99 1.05 6.12 3.04 11.96-.48 17-2.92 1.52-5.28.65-8.65.11l-1.4 1.24c1.01 5.91 4.76 11.13 6.18 17.16 5.49 23.26-2.15 45.02-17.91 62.21 31.65 11.12 41.87 40.9 15.46 64.84 3.71.12 9.74.09 13.17.75l.54 1.69c-.04 5.19-.85 19.34 1.36 22.94 9.01-.54 40.59 5.53 51.03 7.35l97.07 17.18 227.43 38.48c60.27 10.42 121.64 22.1 182.05 31.23V2048H0v-628.47c62.068-9.46 125.63-21.37 187.527-32.12l218.299-37.25 102.679-17.64c9.761-1.65 41.935-7.63 49.934-7.09 3.439-5.12 1.991-16.63 1.776-23.55 2.079-1.26 8.82-.99 12.183-1.55l3.601-.8c-1.355-2.06-3.788-2.75-6.351-4.08-5.952-10.53-9.067-20.36-5.7-32.66a35.32 35.32 0 0 1 17.525-21.73c3.592-1.89 9.697-3.76 13.721-5.01-19.848-22.09-31.609-55.18-11.412-81.24l-14.759-.02c.039-5.08-.066-10.98.253-15.98 32.226 4.13 74.982 5.67 102.3-14.78 7.439-30.01 7.088-69.75 13.702-99.27"/><path fill="#474f59" d="m685.278 1024.76 1.079.69c-3.978-4.49-6.576-8.28-6.013-14.58a18.76 18.76 0 0 1 7.043-13.005c11.463-8.935 26.781 1.844 26.109 14.975-.33 6.44-8.181 12.89-12.679 16.62-.667.53.351 9.61.553 10.82 7.172 2.76 14.072 2.2 21.336 3 63.003 7 113.178-31.58 162.242-65.292 64.674-44.437 146.822-57.484 220.922-29.132 72.47 26.529 120.02 94.584 201.47 95.464 13.53.14 27.96-.1 41.1-4-.17-3.55.06-8.96-1.69-11.78-5.25-3.39-10.42-5.5-11.85-12.26-3.64-17.209 14.35-27.184 27.77-17.15 8.18 6.12 1.9 20.38-1.66 28.22l3.79 2.03c1.97 19.99 2.92 40.22 4.48 60.25.86 11.17 1.19 24.1 3.39 34.98 27.88 20.64 71.17 18.51 103.91 13.79 1.86-.28 3.72-.6 5.57-.99 1.05 6.12 3.04 11.96-.48 17-2.92 1.52-5.28.65-8.65.11l-1.4 1.24c1.01 5.91 4.76 11.13 6.18 17.16 5.49 23.26-2.15 45.02-17.91 62.21 31.65 11.12 41.87 40.9 15.46 64.84 3.71.12 9.74.09 13.17.75l.54 1.69c-.04 5.19-.85 19.34 1.36 22.94l-.22 1.31c-5.41 6.07-10.78 4.29-18.57 4.25 10.16 13.89 14.05 20.39 13.45 38.38-.76 22.8-11.37 32.78-24.68 49.09-2 2.45 10.79 12.28-3.74 21.27-.37 11.71 10.92 13.99-8.85 25.04 5.24 13.92 9.07 26.36 12.25 41.07 4.95 22.87 5.15 46.5 10.4 69.21 1.5 6.49 8.66 12.68 15.58 12.42l.11-.87c-3.6-3.51-7.41-6.01-7.43-11.49-.05-8.55 5.75-14.74 14.67-14.49 4.68.13 9.12 2.13 12.33 5.55 8.31 8.92 7.99 22.78-1.67 30.72a29.53 29.53 0 0 1-21.98 6.5c-8.96-1.07-18.37-7.41-23.4-14.72-17.18-24.98-12.23-59.22-17.31-87.72-3.2-17.88-8.71-31.11-17.44-46.49-2.66 2.94-5.4 6.31-9.62 6.77-2.2.23-4.38-.52-5.98-2.05-6.92-6.63-2.72-14.16 3.64-19.03-4.2-2.81-19.44-3.93-24.53-2.73-18.22 4.31-20.89 23.37-21 39.09 3.21 5.03 6.02 8.13 5.91 13.93 5.09 4.03 8.37-2.39 13.58 6.11.12 11.93-31.81 6.63-40.1 7.72-5.13.67-12.84 0-16.1-4.48.39-8.37 6.7-9.21 13.6-8.1 2.7-6.25 3.43-8.19 7.47-13.74.2-20.16 1.77-31.23 17.06-46.15l1.21-1.17c-11.48-8.55-9.03-17.14 4.18-20.6-7.5-15.85-10.62-29.14-5.11-46.86 2.18-7.03 7.01-11.95 11.61-17.68-8.74-3.91-13.13 2.03-12.25-14.47l-57.19-.05c-.27 2.12-1.27 11.42-1.81 12.84-.82-1.13-1.03-1.03-2.32-1.85-6.18 44.04-14.17 90.31-32.07 131.34-9.03-2.7-31.47-9.4-38.72-14.24-38.7-25.82-72.34-56.96-115.83-75.61l-1.69 1.78c-2.03.15-3.52.28-5.54.54-1.08-.1-2.08-.16-3.16-.32-1.03-3.27-2.84-3.27-6.01-4.58-2.11-1.09-4.16-2.29-6.24-3.43-3 5.27-3.79 6.95-5.76 12.67l-3.19-.05c7.57-21.05 11.59-36.25 13.35-58.92-93.95-.98-190.327-.01-284.474.01l-87.945-.06c-13.098-.04-37.505-.8-49.084.59-.008 8.87-1.46 11.88-10.83 13.75l-1.484.54c18.155 20.57 15.717 38.63 8.646 62.96-1.709 5.87 18.009 8.22.782 23.65 23.87 21.99 13.194 49.79 26.1 58.94 5.505.74 14.077 1.25 13.393 8.52-4.918 6.84-14.029 4.46-21.796 4.35-9.743-.14-24.262 1.76-33.17-1.51-2.556-2.82-1.687-1.19-2.358-5.22 2.198-7.45 4.423-6.72 11.545-6.23 2.606-2.17 2.842-2.66 4.322-5.9 11.131-24.39-6.893-58.13-35.951-46.39-1.908.77-2.504.77-3.097 2.46 9.359 1.84 9.093 12.06 3.753 17.07-7.84 2.41-9.717-.35-14.103-6.36-12.276 18.1-15.995 28.92-20.127 50.78-5.881 30.65 1.238 64.97-21.305 90.14-15.45 17.25-49.117 12.34-47.652-14.18.635-11.48 9.776-19.64 21.166-18.46 11.661 1.21 15.935 21.4 3.943 25.59-1.097.38-.854.47-1.28 1.59 7.915 2.61 14.748-6.44 16.828-13.11 5.154-16.52 5.202-34.24 8.048-51.32 3.357-20.14 9.045-39.04 14.963-58.55-6.665-2.39-15.983-9.99-10.858-17.74 7.824-11.82-3.412-7.69-6.613-17.59.203-5.98 2.571-8.49 6.763-12.54a227 227 0 0 1-6.02-5.19c-22.147-19.94-26.463-59.87-5.545-82.5-7.392.38-13.409 1.79-19.032-2.56l-.399-1.16c3.439-5.12 1.991-16.63 1.776-23.55 2.079-1.26 8.82-.99 12.183-1.55l3.601-.8c-1.355-2.06-3.788-2.75-6.351-4.08-5.952-10.53-9.067-20.36-5.7-32.66a35.32 35.32 0 0 1 17.525-21.73c3.592-1.89 9.697-3.76 13.721-5.01-19.848-22.09-31.609-55.18-11.412-81.24l-14.759-.02c.039-5.08-.066-10.98.253-15.98 32.226 4.13 74.982 5.67 102.3-14.78 7.439-30.01 7.088-69.75 13.702-99.27"/><path fill="#fdfdfc" d="m1255.69 1199.09.77.67c3.37 3.09 7.59-10.61 14.22-1.3 1.56 2.19 6.74 1.51 9.06 1.42l.08-.91c6.18 5.6 2.81 11.22 12.03 14.17 20.8 6.66 40.32-12.22 60.67-14.54 2.55-.29 8.39 1.06 11.03 1.64l-.68 1.78c4.35 3.72 8.28 3.89 14.04 4.91l2.16-1.94c5.53 1.42 11.38 2.37 17.02 3.63 1.6.94 1.49.77 1.08 2.64l6.51 9.81c-11.88 15.21-35.93 35.65-51.21 46.95-11.04 6.99-29.64 20.21-37.59 30.73-6.43 6.34-9.11 34.29-8.71 43.13-6.18 44.04-14.17 90.31-32.07 131.34-9.03-2.7-31.47-9.4-38.72-14.24-38.7-25.82-72.34-56.96-115.83-75.61l-1.69 1.78c-2.03.15-3.52.28-5.54.54-1.08-.1-2.08-.16-3.16-.32-1.03-3.27-2.84-3.27-6.01-4.58-2.11-1.09-4.16-2.29-6.24-3.43 1.76-1.09 1.69-.71.78-2.69.73-7.32 3.74-21.42 5.05-29.21 2.37-14.84 4.34-29.75 5.9-44.7 1.28-7.92 3.57-24.11 8.76-30.38 13.15-15.86 114.34-69.15 127.38-58.17-1.3 1.56-1.75 1.82-3.41 2.96l.99 1.39c3.15-.4 3.96-.57 6.94-1.42.56.1 1.13.19 1.7.29-.6-1.32-2.3-1.31-3.51-1.38l-.78-.73.03.05c1.39-2.24 1.52-2.8 1.55-5.47 5.9-6.2-3.62-11.4 7.4-8.81"/><path fill="#e62b2a" d="m1255.69 1199.09.77.67c3.37 3.09 7.59-10.61 14.22-1.3 1.56 2.19 6.74 1.51 9.06 1.42 3.14 6.05 2.44 8.45 3.88 14.63-.9 4.28-.84 4.5-2.77 8.1 1.92 4.37 5.31 6.54-2.56 8.12-7.19 2.9-4.35 3.54-11.8 3.11-.55.57-1.11 1.14-1.66 1.71-1.42 1.82-3.2 4.91-5.67 2.23-4.16-4.51-2.99-.76-6.58-.9-.36-.01-.96-1.05-.89-1.39.48-4.11-4.88-3.72-6.87-6.31-1.6-1.88-1.83-3.82-1.78-6.35l-.68-6.27c3.15-.4 3.96-.57 6.94-1.42.56.1 1.13.19 1.7.29-.6-1.32-2.3-1.31-3.51-1.38l-.78-.73.03.05c1.39-2.24 1.52-2.8 1.55-5.47 5.9-6.2-3.62-11.4 7.4-8.81"/><path fill="#141617" d="M1262.88 1212.98c2.32-2.75 3.67-1.37 5.84 1.34 4.8 6.02-3.48 7.5-7.73 6.54-3.03-.69-6.44-5.4-.92-3.97 1.92-1.66 1.78-1.58 2.81-3.91"/><path fill="#844e4e" d="M1260.07 1216.89c1.92-1.66 1.78-1.58 2.81-3.91 1.72 5.31 2.13 1.02 4.51 1.72 2.54 3.16-4.13 7.05-7.32 2.19"/><path fill="#26272a" d="M1279.82 1198.97c6.18 5.6 2.81 11.22 12.03 14.17 20.8 6.66 40.32-12.22 60.67-14.54 2.55-.29 8.39 1.06 11.03 1.64l-.68 1.78c-17.51-2.84-38.21 9.06-56.12 15.6 1.81 3.04 5.69 8.76 3.92 11.9-11.83 20.94-48.13 15.38-68.14 23.56-11.37 4.65-13.66 13.59-18.04 15.14.18-4.6 2.85-7.18 6.3-10.37 4.41-4.06 9.67-7.1 15.39-8.88 11.35-3.64 71.76-6.41 60.99-27.14-2.71-2.27-19.66-7.16-22.69-6.62l-.86-.7c-1.44-6.18-.74-8.58-3.88-14.63z"/><path fill="#474f59" d="M1097.69 1374.67c5.85.82 16.38 5.7 21.86 8.7l-1.69 1.78c-2.03.15-3.52.28-5.54.54-1.08-.1-2.08-.16-3.16-.32-1.03-3.27-2.84-3.27-6.01-4.58-2.11-1.09-4.16-2.29-6.24-3.43 1.76-1.09 1.69-.71.78-2.69"/><path fill="#141617" d="m1283.62 1214.51.86.7-.33 1.88c-.84 4.89 5.1 13.9-7.14 16.08-3.69.65-3.29 4.27-5.59 6.01-1.31.26-4.05-4.21-4.93-5.34 7.45.43 4.61-.21 11.8-3.11 7.87-1.58 4.48-3.75 2.56-8.12 1.93-3.6 1.87-3.82 2.77-8.1"/><path fill="#474242" d="M1379.07 1204.99c5.53 1.42 11.38 2.37 17.02 3.63 1.6.94 1.49.77 1.08 2.64-6.02-.71-14.33-2.62-20.26-4.33z"/><path fill="#26272a" d="M1369.65 1214.82c.75.76.28.19.89 2.02-22 37.86-88.82 41.22-109.97 64.18-21.81 23.69-13.29 75.77-41.66 110.32-.53-.4-.14-.04-1.4-1.75 9.83-18.07 13.32-21.71 19.02-41.57 5.14-17.89 6.4-44.39 15.04-59.6 14.92-26.27 59.56-31.29 84.47-45.99 15.17-8.95 21.54-15.41 33.61-27.61m-169.69 31.03.91.76.09 1.24c-6.48 4.95-21.26 20.46-23.97 26.63-12.65 28.76-7.9 59.97-1 89.15l-2.25-.19c-8.28-14.45-8.99-61.73-3.57-78.14 5.04-15.23 15.46-31.69 29.79-39.45"/><path fill="#fdfdfc" d="m1053.78 1237.34 73-.23c5.93-.01 33.91.59 37.87-1.13 15.01-6.52 26.93-13.57 43.26-19.6 10.99-4.07 32.94-7.76 40.05-11.57l.33 3.09c-.03 2.67-.16 3.23-1.55 5.47l-.03-.05.78.73c1.21.07 2.91.06 3.51 1.38-.57-.1-1.14-.19-1.7-.29-2.98.85-3.79 1.02-6.94 1.42l-.99-1.39c1.66-1.14 2.11-1.4 3.41-2.96-13.04-10.98-114.23 42.31-127.38 58.17-5.19 6.27-7.48 22.46-8.76 30.38-.91-1.77-1.35-3.82-1.92-5.78-1.1 4.07.03 2.68-2.72 4.86-26.99.77-56.39.26-83.54.28l-149.577.05-173.57-.04c-10.887.01-100.402.99-104.212-1.23-1.778-3.39-1.348-7.58-1.384-11.52l-1.212 4.75-1.443-.08c-.026-3.22.865-16.32-.403-17.74-3.936-4.4 3.423-4.98 9.975-7.68l1.264 3.02c17.805-9.82 48.584-22.63 68.599-28.46 5.277-1.54 17.744-1.35 23.607-1.36l.638-1.65c6.899-.85 23.728-.37 31.615-.35l58.713-.06 212.375.36c7.735.01 53.875.85 58.335-.79"/><path fill="#fdfdfc" d="M592.372 1273.88c22.658-.96 48.117-.23 71.016-.03l89.368.1h358.534c-2.05 7.79-3.47 13.12-4.57 21.03-1.1 4.07.03 2.68-2.72 4.86-26.99.77-56.39.26-83.54.28l-149.577.05-173.57-.04c-10.887.01-100.402.99-104.212-1.23-1.778-3.39-1.348-7.58-1.384-11.52z"/><path fill="#26272a" d="m1053.78 1237.34 73-.23c5.93-.01 33.91.59 37.87-1.13 15.01-6.52 26.93-13.57 43.26-19.6 10.99-4.07 32.94-7.76 40.05-11.57l.33 3.09c-.03 2.67-.16 3.23-1.55 5.47l-.03-.05.78.73c1.21.07 2.91.06 3.51 1.38-.57-.1-1.14-.19-1.7-.29-2.98.85-3.79 1.02-6.94 1.42l-.99-1.39c1.66-1.14 2.11-1.4 3.41-2.96-13.04-10.98-114.23 42.31-127.38 58.17-5.19 6.27-7.48 22.46-8.76 30.38-.91-1.77-1.35-3.82-1.92-5.78 1.1-7.91 2.52-13.24 4.57-21.03H752.756l-89.368-.1c-22.899-.2-48.358-.93-71.016.03l-.655 13.5-1.212 4.75-1.443-.08c-.026-3.22.865-16.32-.403-17.74-3.936-4.4 3.423-4.98 9.975-7.68l1.264 3.02c9.479 1.73 41.917 1.41 52.653 1.42l98.942-.02h360.077c11.63-11.68 32.46-23.37 47.32-31.16-73.42 1.02-148.64.3-222.185.23l-244.601-.29.638-1.65c6.899-.85 23.728-.37 31.615-.35l58.713-.06 212.375.36c7.735.01 53.875.85 58.335-.79"/><path fill="#fdfdfc" d="M683.734 1189.68c57.02.64 114.861.18 171.978.21l315.118-.05c49.4-.08 98.97-1.28 148.31-.41 8.1.14 36.61.71 43.59 2.22 1.9 3.68 1.12 3.71.82 8.59-2.64-.58-8.48-1.93-11.03-1.64-20.35 2.32-39.87 21.2-60.67 14.54-9.22-2.95-5.85-8.57-12.03-14.17l-.08.91c-2.32.09-7.5.77-9.06-1.42-6.63-9.31-10.85 4.39-14.22 1.3l-.77-.67c-11.02-2.59-1.5 2.61-7.4 8.81l-.33-3.09c-7.11 3.81-29.06 7.5-40.05 11.57-16.33 6.03-28.25 13.08-43.26 19.6-3.96 1.72-31.94 1.12-37.87 1.13l-73 .23c-124.88-1.98-251.745.98-376.874-.57 3.279-13.86 5.134-32.8 6.828-47.09"/><path fill="#141617" d="M1258.5 1197.48c4.24-7.15 7.4-5.44 14.06-.45 1.91 1.42 4.38.78 7.26 1.94l-.08.91c-2.32.09-7.5.77-9.06-1.42-6.63-9.31-10.85 4.39-14.22 1.3l-.77-.67.83-.69c.88-.74.9-.89 1.98-.92"/><path fill="#572423" d="M1247.96 1204.81c-.74-9.01 1.3-9.93 10.54-7.33-1.08.03-1.1.18-1.98.92l-.83.69c-11.02-2.59-1.5 2.61-7.4 8.81z"/><path fill="#fdfdfc" d="M1458.61 1267.45c12.77 6.4 6.24 4.12 6.49 19.72l-1.98.43c-.26 3.92-.7 8.56-.79 12.42-15.88.02-140.59.99-144.1-1.29l-.54.55-2.81-.53c7.95-10.52 26.55-23.74 37.59-30.73l1.2 2.71c27.9.97 56.37-.73 84.33.11 6.62.2 13.56.15 20.17-.05z"/><path fill="#26272a" d="M1458.61 1267.45c12.77 6.4 6.24 4.12 6.49 19.72l-1.98.43c-.18-4.36-.51-9.21-.5-13.53-36.83-.32-78.57-1.6-115.05-.3a277 277 0 0 0-29.34 24.96l-.54.55-2.81-.53c7.95-10.52 26.55-23.74 37.59-30.73l1.2 2.71c27.9.97 56.37-.73 84.33.11 6.62.2 13.56.15 20.17-.05z"/><path fill="#fdfdfc" d="M605.589 1330.44c14.934-.8 29.835-.75 44.769-.78 19.794-.04 9.196.08 12.717 10.69l-1.276.9c-15.903-10.09-37.874-8.86-51.052 5.52-10.567 11.54-10.841 31.41 1.545 41.93 16.226 13.79 41.119 2.21 37.871-19.72-1.107-13.72-24.791-17.83-22.076-.42 1.118 7.17 13.953 5.56 3.399 11.5-4.886 2.75-10.201-2.21-11.923-6.68a18.94 18.94 0 0 1 .33-14.38c5.025-11.4 18.661-13.51 29.116-8.13 17.177 7.15 22.098 34.67 11.722 48.52-31.154 41.57-87.078 3.81-73.573-42.88 3.994-13.8 6.817-19.17 18.431-26.07m769.131-185.81c7.67 3.78 14.1 6.74 22.79 7.42 1.04.08 3.24.58 3.87 1.54-1.42 4.51-3.68 4.47-1.62 10.38 1.9 5.43 8.24 6.7 13.03 4.66 2.16-.9 3.86-2.65 4.72-4.83 1.27-3.23-.88-7.06-.16-8.49 1.38-.75 20.43-.41 23.64-.37 13.23 9.22 17.48 15.89 18.4 33.06.9 16.89-7.04 40.22-25.39 44.94-11.97 3.08-21.69-4.24-21.8-16.44-.93-10.91.96-26.47 14.82-24.65 9.43 1.02 11.53 18.45 2.59 15.95-.67-.19-1.51-9.6-5.92-9.53-6.47-.17-7.58 10.64-5.32 15.1 1.79 3.53 5.66 6.85 9.64 7.58 19.99 3.67 25-23.74 13.43-35.78-14.89-15.48-36.62-4.15-42.7 13.26-1.14 3.26-1.5 7.08-2.65 10.19-5.64-1.26-11.49-2.21-17.02-3.63.11-22.31-2.91-38.93-4.35-60.36m17.18 94.94c4.57 1.7 7.41 2.46 11.7 5.15 16.86 10.57 37.7 15.67 54.57 26.07-6.61.2-13.55.25-20.17.05-27.96-.84-56.43.86-84.33-.11 16.23-11.03 23.76-18.38 38.23-31.16m-782.616 7.5c7.207 2.4 12.799 3.55 20.173 4.8a461 461 0 0 0-30.823 14.76c-6.552 2.7-13.911 3.28-9.975 7.68 1.268 1.42.377 14.52.403 17.74-4.212-.81-6.272-4.4-7.547-8.3-7.014-21.43 12.194-31.43 27.769-36.68"/><path fill="#fdfdfc" d="M1425.61 1251.44c13.69-3.24 20.86-5.4 34.4 2.51 10.72 6.27 16.99 17.49 10.83 30.44-1.07 2.25-3.59 5.62-5.74 2.78-.25-15.6 6.28-13.32-6.49-19.72-10.78-5.88-22.03-10.42-33-16.01"/><path fill="#e0e0e2" d="M663.075 1340.35c2.559 1.55 3.76 2.91 5.902 5l-1.484.54c-2.155-1.64-3.722-2.76-5.694-4.64z"/><path fill="#fdfdfc" d="M1008.81 1000.92c9.41-.08 18.82.04 28.22.34 1.49 54.13 2.94 116.12 1.7 169.96-10.09.07-20.18.07-30.28.01-.32-18.43.32-37.69.21-56.31-.58-38-.53-76.01.15-114m46.39 2.58c9.25 1.89 18.45 4 27.59 6.34l4.4 161.2h-31.23c-.55-29.54-.16-59.09-.19-88.63-.02-26.31-.72-52.6-.57-78.91m-67.652.7c1.775-.36 1.234-.23 3.139.13 2.045 4.85-.383 147.27-.449 166.93l-26.488.08c-3.316-.12-1.965.53-4.383-1.3-.228-11.71 1.242-26.84 1.467-39.19l2.37-121.16c6.976-2.01 17.055-3.9 24.344-5.49m115.072 10.98c8.33 3.26 16.7 6.45 25.08 9.59 2.71 48.81 5.78 97.6 9.22 146.36l-32.11.03c-1.05-9.62-.93-24.16-1.06-34.07l-.72-57.13c-.18-13.93-1.76-53.64-.41-64.78m-159.61-.12 1.293 1c1.011 7.69.086 35.38.023 44.57l-1.497 111.13-28.831.12-1.685-.92c-.974-4.29 1.083-31.77 1.292-37.6 1.309-36.38 4.396-73.37 5.416-109.72 6.922-2.94 16.713-6.04 23.989-8.58m445.39 315.48c19.71-.39 39.42-.21 59.12.55 7.06 9.25 12.13 17.09 14.28 28.92 3.96 26.35-8.35 50.87-35.3 56.99-50.8 11.54-65.84-70.68-11.45-68.9 2.8 1.21 4.94 2.18 7.19 4.34 5.83 5.62 9.96 18.31 3.35 24.81-1.9 1.86-4.13 2.77-7.08 2.75-1.69-.01-5.56-2.86-6.08-4.72 2.21-2.35 6.95-1.97 8.34-5.9 1.92-5.67-1.97-10.57-7.34-12.06-7.58-2.11-13.25 2.73-14.9 10.04-1.34 5.48-.87 12.4 2.31 17.24 10.88 16.59 38.4 9.96 43.08-8.6 4.66-18.06-8.14-37.26-26.43-40.76-14.38-2.75-21.71-.43-33.73 6.85.56-6.8-1.9-11.21 4.64-11.55m-241.08-298.09c6.28 4.67 21.87 11.8 29.47 15.48.77 38.71 4.91 84.7 7.69 123.68l-30.56.02c-1.79-14.3-2.51-39.7-3.17-54.76-1.21-27.57-3.08-56.98-3.43-84.42m-249.333 1.5c2.397 2.81-3.985 124.82-4.659 137.44l-30.098.02c-.932-1.71 6.143-111.32 6.782-123.45zm-228.248 111.37c.347 5.13-1.235 12.91-1.634 18.19-1.479 19.57-5.318 39.53-7.031 58.99l-1.475 17.28c-7.863 3.36-14.033 5.66-21.947 8.53 7.971-8.7 12.226-14.42 15.452-27.3 5.823-23.26-16.452-57.28-40.872-37.43-8.134 6.62-10.795 25.42-1.48 33 13.798 11.25 23.78 5.56 22.818-12.23-1.821-3.17-1.913-4.54-5.546-5.49-8.212-2.14-2.561 13.63-7.455 11.6-7.812-2.92-1.178-18.29 3.978-18.29 27.75.02 15.035 58.26-12.929 38.53-15.503-10.94-23.207-44.39-13.848-61.71 3.329-6.16 7.467-9.68 13.149-13.76 6.037-.23 12.271-.17 18.346-.25.818 5-.097 9.99 5.308 12.83 4.345 2.29 12.04.55 14.096-3.88 1.943-4.2-.495-7.54-1.089-11.2.058-.68 4.973-1.53 5.955-1.61 6.728-.53 10.492-2.6 16.204-5.8m180.923-88.35c3.186 4.68-4.992 100.03-5.906 114.92l-29.47.04c-2.175-3.13 6.175-91.99 7.134-102.87 10.101-3.73 18.595-7.23 28.242-12.09m345.288-.46 28.12 13.15c3.23 32.12 4.69 69.5 6.97 102.17l-28.9.2c-.89-6.44-1.31-13.5-1.63-20.02-1.55-31.66-4.06-63.84-4.56-95.5m46.83 18.05c9.06 4.25 18.37 6.58 28.01 9.08 1.74 28.32 4.58 59.36 6.86 87.88-9.35-.06-18.69-.01-28.03.15-3.39-30.4-6.38-66.51-6.84-97.11m-441.441 1.48c.356.07 1.194.2 1.187.4-.563 16.91-5.061 82.57-6.089 95.24q-13.14.135-26.281.03c-.333-.12-1.567-.55-1.563-.79.323-17.51 6.67-74.27 7.64-88.08 7.21-1.53 14.262-2.96 21.242-5.43zm487.621 10.07c9.18.8 17.68.95 26.79 1.65 3.23 21.49 5.84 44.58 8.15 66.24.61 5.74 1.36 11.46 2.26 17.16l-30.85-.02c-1.72-27.08-5.44-58.41-6.35-85.03m-552.469.42c6.985-.34 13.74-.52 20.715-.75-1.656 28.03-4.987 57.87-8.28 85.59-.106.89-5.485.58-5.676.58l-21.521-.03c.584-8.45 1.729-16.97 2.779-25.42 2.212-17.79 4.319-35.69 6.369-53.51.714-6.21-.63-5.98 5.614-6.46m295.379-126.29c-3.92-18.596 15.49-13.656 25.45-9.454 13.43 5.668 31.37 29.03 11.28 37.57-2.64 1.122-8.97-1.546-9.41-4.81 3.26.245 3.15.328 6.29-.465 9.94-11.479-8.47-25.552-18.54-13.067-3.92 4.857-1.21 11.286-.75 16.439-10.99 1.751-27.61-.732-44.29 1.585 1.61-10.945 2.62-22.659-12.019-23.389-7.659-.382-11.057 6.121-10.549 12.88 1.462 3.772 4.976 5.168 8.57 7.3l-.095 1.475c-3.668 2.18-8.027 1.12-11.868-.021-7.345-6.142-5.785-17.778-.416-24.738 7.592-9.843 20.734-12.152 32.337-13.983 2.6.983 4.04 1.683 6.49 2.891 3.06 4.67 3.43 8.996-.6 13.091l-1.98-.051c2-4.437 2.76-5.036.83-9.241-3.16-2.389-2.95-2.361-6.81-2.982-10.312 3.309-7.19 17.157 1.11 20.869 7.3 3.261 11.07-.498 17.52-3.138 6.84 3.263 16.83 7.877 23.51-.927 3.75-4.945.32-13.043-4.71-16.584-4.17-.778-2.22-.968-6.08.379-2.63 2.773-2.79 2.981-3.66 6.697 2.94 2.429 3.78 2.195 4.36 5.093-2.37.818-1.1.697-3.99-.57zm55.54-3.985c7.08 2.462 19.08 6.913 25.25 10.4 2.25 1.276-5.25 16.987 9.77 14.113 1.44-.277 3.51-5.072 4.25-6.273 7.43 3.73 14.75 6.547 21.28 11.879 8.26 6.739 9.8 7.963 6.78 17.926-1.76 2.1-4.12 4.95-6.73 5.83-31.43 10.55-52.04-33.797-60.6-53.875m-130.249 2.795c2.203.101 2.49.317 1.128 2.561-7.149 11.777-12.478 25.477-22.145 35.53-7.116 7.399-19.659 13.659-30.149 13.659-6.885-.24-9.51-1.45-13.949-6.15-.593-2.62-1.795-7.447-.44-9.916 4.719-8.592 21.345-15.963 29.597-19.641 4.908 6.096 7.812 11.333 15.558 1.337 1.639-2.114-3.004-7.856-1.616-8.826 5.006-3.497 12.771-5.469 18.573-7.417zm-262.349 128.93 18.658-.08c-.413 2.57-1.062 5.62-1.366 8.11l-8.512 75.86c-5.914.16-11.969.09-17.898.07 2.048-22.48 5.477-45.54 7.203-67.94q.613-8.055 1.915-16.02m639.808.11c6.07-.01 12.14.08 18.21.29 3.56 27.31 4.17 55.53 8.33 82.68l-17.87.1c-3.82-26.29-7.33-56.56-8.67-83.07m-139.13-66.9c3.77 1.05 21.2 9.83 28.23 12.66-2.67 14.23 2.92 15.91 13.99 8.8-.07.05 38.89 11.07 42.66 12.28-24.43 16.79-49.4 4.4-72.75-8.26-6.73-3.64-10.37-18.42-12.13-25.48m-344.002-1.28c.161.15.894.78.881.97-1.436 21.79-15.584 29.96-32.315 35.44-22.06 7.23-27.798 10.58-47.611 1.73-7.221-4.77.215-4.1 6.128-5.72l1.907-.48c12.834-3.58 25.9-10.91 34.517-5 4.128 2.83 12.093-4.75 9.742-9.85-.66-1.43 8.545-5.4 9.743-6.5 5.542-3.19 11.617-7.13 17.008-10.59m436.312 35.01c9.44 2.61 26.55 2.94 36.76 3.21-8.55 8.38-10.22 9.79-21.63 14.02-11.29 1.31-25.72-1.33-36.9-3.73 9.24-3.63 15.45-5.59 21.77-13.5m-531.712 1.55c2.203-.51 19.969 9.42 27.169 11.98-11.292 1.62-19.341 2.66-30.807 2.95l-3.467-.07c-13.079-.31-16.345-3.59-25.507-13.19 10.886-.2 21.762-.76 32.612-1.67m126.694-61.257c.18 4.108.012 14.047 2.794 16.667 10.102 9.5 11.286 3.71-1.748 12.08-.351.36-.543.42-.962.66a132 132 0 0 0-7.861 4.55c-7.068 4.4-4.2-1.39-3.476-7.26.091-2.24.141-4.22.134-6.46.436-3.53 1.046-7.1 1.602-10.62 3.468-3.72 5.787-6.128 9.517-9.617"/><path fill="#5f636a" d="m873.176 1015.86 1.599-.79c4.437-2.3 7.53-2 10.981 1.69q-.906 3.615-1.928 7.2c-.351.36-.543.42-.962.66a132 132 0 0 0-7.861 4.55c-7.068 4.4-4.2-1.39-3.476-7.26.091-2.24.141-4.22.134-6.46z"/><path fill="#fdfdfc" d="M871.529 1021.91c1.012.42 2.215.76 3.256 1.08l.931.06c3.312 1.3 3.515 1.06 7.15 1.57a132 132 0 0 0-7.861 4.55c-7.068 4.4-4.2-1.39-3.476-7.26"/><path fill="#474f59" d="M875.716 1023.05c2.41-4.12 5.123-4.3 10.04-6.29q-.906 3.615-1.928 7.2c-.351.36-.543.42-.962.66-3.635-.51-3.838-.27-7.15-1.57"/><path fill="#e0e0e2" d="m871.663 1015.45 1.513.41c.504 2.92.722 4.32 1.609 7.13-1.041-.32-2.244-.66-3.256-1.08.091-2.24.141-4.22.134-6.46"/><path fill="#fdfdfc" d="M1349.02 1056.35c2.36 2.36 2 12.28 2.13 15.93-5.54.01-22.94.31-27.74-.82 2.6-2.92 6.24-9.35 7.24-10.43l.38.05c1.16 1.02 1.28 4.59 3.87 4.72 5.61.26 3.11-3.65 4.49-6.6.88-1.86 7.92-2.58 9.63-2.85m-650.845.77c17.115 1.34 6.658 5.34 13.338 7.92 4.68-1.42 1.263-10.21 10.358 5.85-1.553 1.79-21.402 1.42-25.039 1.45.327-5.44.814-9.86 1.343-15.22m-89.389 373.39c6.163 1.51 11.076 3.54 17.517 4.76-5.846 5.31-8.112 7.04-13.323 13.08-1.948 2.01-7.926 9.32-10.558 2.04-1.075-2.97 3.797-8.61 4.417-11.92.398-2.12 1.413-5.51 1.947-7.96m829.564-.42c.36.02.88-.01 1.19.2.12.29-.56 3.83-.6 4.72-1.27 3.74 6.83 11.63 6.65 12.04-3.05 7.06-5.26 4.97-8.24 1.87-7.21-7.59-7.95-8.4-16.32-14.37 8.54-.93 9.13-.57 17.32-4.46m-255.84-420.74c4.38 2.24 6.63 3.8 6.41 8.88-.26 6.32 4.95 17.47 4.83 22.87a179 179 0 0 1-10.18-6.38c-2.96-10.37-1.92-14.73-1.06-25.37m-8.25 6.5c-6.6-4.52-12.22-3.25-11.35 4.65.87 7.84-8.47-.11-5.8-2.91 5.33-5.59 6.2-14 7.03-20.491 7.29 5.291 9.16 5.601 11.39 14.441-.41 1.5-.81 2.83-1.27 4.31m-310.336-6.16c2.561 2.43 1.388 20.71-.984 24.34-1.185 1.82-6.985 4.48-9.021 5.59-1.243-1.78 5.787-17.43 4.975-21.64-.685-3.54 2.422-5.81 5.03-8.29m222.796-26.031c.26.244 1.06.977 1.17 1.176 1.93 3.597 5.51 7.825 6.66 11.526.33 1.071-2.65.134-2.79.086-4.01-1.065-8.09-2.108-12.11-3.129 2.56-3.305 4.73-6.175 7.07-9.659m-125.458-.169c10.74 9.899 8.959 8.048-.855 11.886-11.087 2.607-3.911-2.44.855-11.886"/><path fill="#e0e0e2" d="M1175.53 1011.54c.78 7.55.93 11.87 2.03 19.87-1.61-.79-7.19-3.23-7.38-4.14-.41-2.07 7.73-4.44 4.28-9.5-.07-.1-.18-1.7-.2-1.92.46-1.48.86-2.81 1.27-4.31"/><path fill="#fdfdfc" d="M1399.6 1231.59c1.68 1.34 6.4 7.39 4.61 9.09-8.63-3.9-10.71-2.08-4.61-9.09"/><path fill="#9ea1a7" d="M659.547 1422.03c1.124.19 1.375-.01 1.368 1.13-.612-.01-1.32.13-1.864-.15-.032-.42.202-.56.496-.98"/><path fill="#26272a" d="M1306.17 1341.88c1.29.82 1.5.72 2.32 1.85a570.5 570.5 0 0 1-13.58 75.77c-6.06 23.43-18.94 51.88-20.77 74.45-.64 7.97 15.41 43.1 7.52 53.94l-1.5-.37c-.92-7.25 1.05-12.42-1.17-22.37-2.26-10.17-5.74-19.54-7.51-29.53-.93-5.26 1.1-15.24-.91-20.58l-1.89.57c-11.01 23.6 12.54 44.69 3.62 71.19l-.81-.35c-.57-8.66.27-16.6-1.51-25.11-2.09-10-5.62-18.01-7.18-28.24-1.1-7.18 1.91-14.72.56-19.44l-2.45-1.44c-10.61 4.71-1.17 28.82.73 36.41 2.21 8.8 1.8 26.1-.81 34.59-1.59-3.71-1.22-18.52-1.4-23.67-.41-11.4-4.6-19.28-5.24-30.15-.26-4.37.61-12.93.91-17.64a443 443 0 0 1-2.26-1.56c-3.16.02-1.75-.47-4.26 1.8-5.14 13.81 3.74 32.17 3.76 46.4 0 3.38.05 19.52-2.14 20.8l.18 1.55c-3.56-14.9-.82-39.21-6.42-55.66-1.6-4.72 3.22-13.86 1.32-17.48l-2.18-1.18c-9.79 9.52 3.61 50.87-1.78 66.94l-1.95-.04c-2.08-4.03.92-12.47.34-19.35-.81-9.47-2.29-18.19-3.57-27.59-.85-6.26 2.94-18.91-.73-23.3-4.06 2.18-5.79 9.22-7.29 13.65 4.42 18.8 6.64 29.46.75 47.99-2.2-2.74 1.42-23.14.39-27.75-3.56-15.76-4.09-20.91 1-36.22l-6.97-5.61c-1.18 6.11-2.29 11.42-2.71 17.65-.99 14.63 5.79 33.72-2.8 46.12-.93-2 1.19-12.3 1.05-15.75-.75-18.25-1.41-30.73 1.7-48.99l-7.58-6.68c-1.57 5.63-2.53 8.6-2.94 14.51-.76 10.95 5.32 46.24-3.87 53.14-.33-3.43.12-2.5.65-5.17 5.18-25.78-3.47-38.61 3.93-64.77-2.79-2.36-2.58-2.94-5.72-3.58-5.85 12.87-1.51 56.46-7.76 67.09l-1.7-.34c-.75-2.55 2.9-18.2 2.83-23.09-.25-16.92-1.98-28.68 3.46-45.12-1.1-3.34-1-3.11-3.81-5.24l-1.61.28c-8.56 22.55 3.86 39.84-8.53 67.6l-1.1-.38c-1.59-5.87 3.44-18.76 3.71-25.42.35-8.79-1.77-18.17-1.29-27.03.15-2.81 5.4-13.83 4.9-17.32-1.41-1.22-2.61-2.27-3.6-3.13l-1.47-.23c-7.19 12.97-3.23 56.32-8.84 63.78-3.63-7.68 3.24-27.37 1.45-38.1-1.2-7.24-1.08-7.25-3.52-14.84q-1.86.315-3.72.66.48 3.075.63 6.18c.35 6.74-.73 34.67-4.8 39.14-2.2-1.32-1.19-.57-2.23-4.23 4.52-17.06 6.72-32.35-1.48-48.25.6-4.88 2.74-11.72 2.31-16.1-2.07-3.15-.73-2.07-4.07-3.51l-1.71 1.12c-5.05 13.58 8.16 50.02-2.18 62.78l-1.06-.31c-.64-3.17.43-8.29 1.11-11.94 3.15-17-3.09-34.14-2.06-51.45.21-3.56-.67-4.91-3.06-6.83-6.33 4.7 5 50.03-2.53 65.53l-1.77-.19c-.9-1.85 1.45-17.24 1.66-20.76.99-16.18-3.5-31.49-2.27-47.73-.59-.66-1.18-1.33-1.77-1.99l-1.69.35c-7.04 11.55 4.9 61.19-5.64 65.5l-.73-1.11c3.62-16.49 2.37-31.37.96-47.74-.3-3.54.57-15.27.54-20.25l-1.83-1.32-1.48.44c-8.92 14.43-2.05 29.96-2.82 45.92-.33 6.9-1.53 11.13-3.43 17.59h-.64c-.69-8.69 1.45-15.3 1.3-22.89-.19-9.72-2.4-17.61-1.67-28 .47-6.59 4.26-12.11 3.57-15.92-2.17-1.36-2.99-2.27-5.47-2.15-10.57 12.66 2.37 62.27-8.73 66.91l-.71-1.4c2.96-13.7 3.04-24.81 2.31-38.61-.52-9.94-1.04-17.61 3.42-26.55.84-1.67-.51-2.93-1.48-4.19-3-.55-1.52-.65-4.56.64-6.88 6.8-2.83 33.6-3.59 43.41-.65 8.45-1.24 15.59-4 23.81l-1.45-.29c-1.33-6.3 2.19-13.04 2.27-19.6.28-20.19-1.78-32.09 4.29-51.66l1.69-1.78c43.49 18.65 77.13 49.79 115.83 75.61 7.25 4.84 29.69 11.54 38.72 14.24 17.9-41.03 25.89-87.3 32.07-131.34"/><path fill="#fdfdfc" d="M1172.8 1439.18c-1.3-2.91-3.23-5.83-2.74-9.18.47-3.22.68-6.88 2.42-9.73.64-1.05 2.73-1.21 3.44-.2 2.74 4.08.38 10.96.03 15.99z"/><path fill="#e0e0e2" d="m1172.8 1439.18 3.15-3.12 2.17 4.08q-1.86.315-3.72.66z"/><path fill="#fdfdfc" d="M1180.73 1423.23c9.54 4.73 3.96 10.76 1.88 21.07-2.32.12-3.51-5.95-4.41-8.2.88-5.39 1.28-7.49 2.53-12.87"/><path fill="#26272a" d="m558.439 1325.43.399 1.16c-76.261 11.58-155.195 26.38-231.295 39.72l-154.024 25.88C116.924 1402.12 56.764 1413.44 0 1421.8v-2.27c62.068-9.46 125.63-21.37 187.527-32.12l218.299-37.25 102.679-17.64c9.761-1.65 41.935-7.63 49.934-7.09m931.981-.08c9.01-.54 40.59 5.53 51.03 7.35l97.07 17.18 227.43 38.48c60.27 10.42 121.64 22.1 182.05 31.23v2.59c-34.08-7.42-79.62-13.46-114.92-19.69l-341.11-58.69c-32.79-5.79-69.9-10.76-101.77-17.14zm-381.26 60.02c1.08.16 2.08.22 3.16.32-8.86 18.52-1.73 31.86-6.13 50.82-.52 2.26-2.02 16.93-4.38 16.39-3.15-.71.41-11.17 1.07-13.41 4.94-16.62-1.19-34.52 4.92-50.5zm-6.01-4.58c-.77 4.58-3.08 11.69-3.1 15.71-.1 16.9.25 32.11-4.97 48.55-1.04 3.26.2 4-4.02 5.47 3.36-14.9 7.43-27.11 6.15-42.77-.56-6.94-.04-20.28 4.94-25.8z"/><path fill="#141617" d="m1087.96 1389.98 3.19.05c-1.87 8.03-1.03 17.21-.46 25.47.21 3.03-2.86 33.83-8.08 29.9-.65-1.67 1.35-6.5 2.05-8.42 5.78-15.74.98-31.23 3.3-47"/><path fill="#fdfdfc" d="M1804.36 723.749c.47-6.902.14-15.288 4.75-20.374 6.11-2.486 7.13 4.048 14.6-2.279 2.2-6.534-4.77-16.084 6.09-21.597 4.67-2.372 8.25.099 12.21 2.261 5.73-2.992 5.5-9.489 12.93-7.319 6.98 2.042 7.78 9.977 9.35 16.149 13.67 2.554 11.45-9.922 26.48 7.079 16.81 2.626 24.94 4.141 9.93 20.254 13.41 4.719 13.1 5.556 11.76 20.194 5.2-.161 9.57-.738 14.43.924l1.28 1.617-.48 3.847c2.05 1.908 3.15 1.741 5.97 2.224 2.86 2.352 3.08 2.231 4.49 5.782-.29 3.52-1.11 4.652-2.64 7.78.87 3.424 5.26 6.802 7.95 9.902l-6.39 10.79c4.41 1.051 9.5 1.728 12.88 4.437l.57 1.254c2.18 4.769 2.55 5.639 6.17 9.339 22.65.532 11.64 8.363 11.85 19.231 1.6 2.867 2.6 3.791 4.76 6.171-2.07 3.166-4.09 6.566-6.67 9.31 9.89 5.785 12.57 7.125 7.67 18.433 2.81 14.037 35.77 5.826 18.63 26.255.36 7.303 7.84 3.754.62 15.71-.22 3.183 1.14 4.613 2.85 7.366.54 4.84-1.81 7.725-4.72 11.449 2.81 5.907 3.62 16.053 4.67 17.875 6.03 10.458 16.84 7.709 4.62 24.904l.9 1.628c2.4 4.366 2.63 4.1 1.72 8.049-4.47 4.849-8.28 5.887-14.59 7.762 2.09 5.145 4.44 9.615 2.71 14.988-5.88 6.55-11.84 2.016-11.46 10.492l.75 1.013c1.93 2.632 3.16 3.661 3.18 6.851-1.1 3.98-3.82 5.33-7.24 7.95-3.65 6.74 2.07 11.26-5.42 16.98-3.55.83-5.09 1.08-8.72 1.51l-1.79 1.51c-.31 5.2 1.01 7.83-1.81 10.96-4.53 5.02-12.42 1.03-15.57 4.18-1.11 1.1-1.13 11.27-5.5 9.96-.89-.27-2.95.19-3.89.42-4.93 5.88-5.47 13.13-11.42 13.24-4.93.09-12.25-3.18-16.43-5.5-4.76 6.77-6.01 9.89-13.84 12.63l-1.77-.18c-.78-.26-1.76-.34-2.54-.45.07-1.12.15-2.24.26-3.36-4.07.55-4.96-.1-9.18-.81l-.84 1.32-3.35-.36c-4.03 3.39-10.03 7.73-14.17 10.56-2.81 30.39-6.31 68.55-2.66 98.35 3.42 27.9 3.34 45.51 2.15 73.6-.77 18.02 1.13 45.74 2.88 64.05l.12 1.64c-.73 9.91.66 32.71 1.51 43.01l-34.05-.49c.5-14.54 2.46-30.2 3.13-45.05l.5-2.1c3.02-28.88 5.76-60.56 6.64-89.57.82-27.45-6.48-57.46-3.65-85.06 2.03-19.77 3.61-39.93 6.22-59.57-2.85-4.08-5.62-8.65-9.37-11.79-21.74 17.02-17.92-9.53-28.33 1.89-1.95 2.15-10.94-3.49-10.7-3.59-13.8 5.8-16.33-.3-21.44-13.42-4.08.71-8.91 3.56-13.17.37-4.68-3.5-1.64-9.98-6.69-13.34-1.26.36-11.49-2.25-12.92-3.94-1.22-1.44-2.57-6.34-1.8-7.49 4.39-6.51-19.07-8.88-4.8-13.85l1.54-.57c-.02-.78-.03-1.56-.05-2.34-4.79-.69-13.31-.83-17.04-4.29-2.29-2.12-4.09-8.66-3.81-11.556.36-3.698 9.36-4.302 3.9-9.207-.96-.815-1.43-1.066-2.12-2.071l-.7-.808c-6.78-7.682-4.09-9.109-2.55-14.297.3-1.003-11.89-5.748-14.16-9.753-1.81-3.198-4.21-5.715.6-9.244 8.58-4.313-11.74-7.854 1.74-16.756 1.55-1.022 4.62-3.376 1.83-5.155l-.91-.606-.26-2.279-1.07-.823c-.48-.54-.94-1.086-1.4-1.638-2.43-2.934-4.32-5.086-3.96-8.893 10.27-10.769 5.24-5.917.94-15.108 2.38-11.444 14.35-5.362 20.55-11.721 3.33-3.41.45-7.588.39-13.666 1.5-2.677 3.52-3.327 6.3-4.869l1.27-.694c1.78-4.795-3.99-5.55-1.39-12.234 2.85-1.593 3.6-1.8 5.92-4.153.57-5.437-5.92-7.594-4.39-13.633 6-4.649 15.63-.994 17.28-8.217-1.36-3.78-3.33-4.995-6.4-7.824l-.87.922c-1.81-2.805-2.8-3.787-3.05-7.134 1.69-5.409 9.71-5.323 7.09-10.032-.69-1.227-1.15-2.607-1.63-3.967 2.73-7.07 10.26-5.596 8.27-9.036-.21-.357-1-3.858-1.2-4.751 3.75-5.701 9.42-4.636 16.02-5.095-2.59-4.276-12.25-17.887-4.55-21.303 6.16-2.738 4.83-5.225 4.97-12.287 3.19-4.544 12.82-.364 17.15 1.563-.06-4.02-.7-18.44.51-21.203 1.42-.454 2.57-.805 4.01-1.201l.36-1.203c1.22-3.969 1.19-4.748 3.87-7.66 4.55-2.234 11.5-.142 16.83.831"/><path fill="#474f59" d="M1813.92 897.797a362 362 0 0 1 5.83 2.095c3.17 2.962 10.79 10.372 14.36 11.989.87.453 1.65.911 2.51 1.401-1.07 7.22 10.86 25.655 15.24 33.43l1.09-21.914c8.25-7.857 5.68 5.066 6.29 11.705l.6 17.451c9.4-7.206 17.96-13.852 27.01-21.517-.07-4.099-.46-10.38 1.29-13.885l1.71-.325c2.76 4.042-.13 3.731 1.75 9.717 2.51-.947 5.38-4.798 7.34-7.024 2.95.664 2.9.785 5.44 2.444-16.69 13.629-25.59 23.15-44.17 35.461.53 28.058.06 55.825.49 83.885 12.23-12.06 26.38-23.43 33.26-38.62 1.21.85 2.3 1.7 3.47 2.59 2.14-.53 2.56-1.13 3.82-2.98 8.15-7.798 14.52-15.18 21-24.363 3.96-5.613 10.73-17.651 15.32-21.941.56 3.558-10.95 21.464-13.58 25.875-.6.754-.5.963-.65 1.974-6.28 6.188-11.54 13.29-17.57 19.205-15.8 15.52-30.78 30.93-45.77 47.3-.06 6.3-1.05 19.76 2.74 24.21 8.2-.11 7.87-9.8 16.58-3.42l-.84 1.32-3.35-.36c-4.03 3.39-10.03 7.73-14.17 10.56-2.81 30.39-6.31 68.55-2.66 98.35 3.42 27.9 3.34 45.51 2.15 73.6-.77 18.02 1.13 45.74 2.88 64.05l.12 1.64c-.73 9.91.66 32.71 1.51 43.01l-34.05-.49c.5-14.54 2.46-30.2 3.13-45.05l.5-2.1c3.02-28.88 5.76-60.56 6.64-89.57.82-27.45-6.48-57.46-3.65-85.06 2.03-19.77 3.61-39.93 6.22-59.57-2.85-4.08-5.62-8.65-9.37-11.79l-.94-.81c.33-1.54.57-2.67-.29-4.18-9.2-16.05-17.7-31.33-24.87-48.44-11.61-3.56-46.21-8.65-53.28-18.111l.87-.666c8.06.979 11.33 5.677 19.43 7.607 10.63 2.53 21.83 4.48 32.59 6.57-2.72-6.58-4.6-11.47-5.43-18.552l1.73-2.458c4.59-3.009 5.98-5.977 11.69-7.335l-.37.266.35 1.635c-3.3 4.793-5.18 6.073-9.58 9.662 10.36 32.662 21.39 49.872 39.38 77.822 2.15-15.67 3.17-60.19 3.53-77.198-8.37-5.93-33.07-23.852-38.52-33.635-.45-.801.53-1.794 1.17-2.83l1.94.306c7.5 12.703 23.54 22.438 36 30.699.41-6.354 2.1-27.559 1.02-33.206-2.44-12.643-17.32-37.569-26.21-47.767-2.06-2.365-8.86-7.405-11.55-9.401.26-1.121.57-2.155.88-3.261"/><path fill="#26272a" d="M1804.36 723.749c.47-6.902.14-15.288 4.75-20.374 6.11-2.486 7.13 4.048 14.6-2.279 2.2-6.534-4.77-16.084 6.09-21.597 4.67-2.372 8.25.099 12.21 2.261 5.73-2.992 5.5-9.489 12.93-7.319 6.98 2.042 7.78 9.977 9.35 16.149 13.67 2.554 11.45-9.922 26.48 7.079 16.81 2.626 24.94 4.141 9.93 20.254 13.41 4.719 13.1 5.556 11.76 20.194 5.2-.161 9.57-.738 14.43.924l1.28 1.617-.48 3.847c2.05 1.908 3.15 1.741 5.97 2.224 2.86 2.352 3.08 2.231 4.49 5.782-.29 3.52-1.11 4.652-2.64 7.78.87 3.424 5.26 6.802 7.95 9.902l-6.39 10.79c4.41 1.051 9.5 1.728 12.88 4.437l.57 1.254c2.18 4.769 2.55 5.639 6.17 9.339 22.65.532 11.64 8.363 11.85 19.231 1.6 2.867 2.6 3.791 4.76 6.171-2.07 3.166-4.09 6.566-6.67 9.31 9.89 5.785 12.57 7.125 7.67 18.433 2.81 14.037 35.77 5.826 18.63 26.255.36 7.303 7.84 3.754.62 15.71-.22 3.183 1.14 4.613 2.85 7.366.54 4.84-1.81 7.725-4.72 11.449 2.81 5.907 3.62 16.053 4.67 17.875 6.03 10.458 16.84 7.709 4.62 24.904l.9 1.628c2.4 4.366 2.63 4.1 1.72 8.049-4.47 4.849-8.28 5.887-14.59 7.762 2.09 5.145 4.44 9.615 2.71 14.988-5.88 6.55-11.84 2.016-11.46 10.492l.75 1.013c1.93 2.632 3.16 3.661 3.18 6.851-1.1 3.98-3.82 5.33-7.24 7.95-3.65 6.74 2.07 11.26-5.42 16.98-3.55.83-5.09 1.08-8.72 1.51l-1.79 1.51c-.31 5.2 1.01 7.83-1.81 10.96-4.53 5.02-12.42 1.03-15.57 4.18-1.11 1.1-1.13 11.27-5.5 9.96-.89-.27-2.95.19-3.89.42-4.93 5.88-5.47 13.13-11.42 13.24-4.93.09-12.25-3.18-16.43-5.5-4.76 6.77-6.01 9.89-13.84 12.63l-1.77-.18c-.78-.26-1.76-.34-2.54-.45.07-1.12.15-2.24.26-3.36 1.06-.51 2.34-1.2 3.46-1.5 6.85 4.21 10.73-6.05 13.96-11.42 4.83 4.94 6.44 5.96 13.23 7.31 2.12-.26 2.15-.37 4.13.02 8.4-4.85 5.13-5.91 7.53-13.7 3.04-1.49 2.87-.8 7.01-.17 2.04-1.35 1.87-1.19 2.47-4.34 2.24-11.89 7.96-2.98 15.72-7.79 3.59-2.23 1.83-6.3 2.88-11.7 3.39-3.54 4.85-1.11 11.41-3.68 2.04-2.24 3.46-3.78 2.9-7.3-1.76-11.2 7.46-9.68 8.47-18.07-.82-3.54-4.08-6.83-6.47-9.763 16.56-4.656 17.21-7.512 10.69-22.8 6.04-1.497 10.94-2.182 15-7.085.4-4.215-.8-4.193-3.82-8.671 2.16-6.717 7.41-6.906 6.7-12.797-2.92-4.577-4.65-5.492-8.91-8.752-1.96-7.251-.51-4.685-6.35-10.03l-.05-1.693 4.17.413c.37-3.091-3.33-8.088-5.26-11.839 1.66-4.175.6.659 5.72-3.696 1.31-3.304 1.64-3.38.92-6.939-2.03-2.27-2.42-2.619-3.92-5.218 1.02-3.856 2.14-3.89 5.43-7.225-12.29-14.139-2.61-9.716.59-16.268-2.36-7.532-12.17-7.767-17.95-10.674-1.75-.885-4.59-3.867-6.07-5.395l-1-1.056 4.59-11.219-12.21-9.499 7.84-9.046c-4-3.524-7.32-4.891-6.46-10.309 5.14-4.981 6.59-9.254-1.38-12.985-3.8.021-4.69.191-8.4-.999-3.33-2.526-4.04-5.979-5.57-10.051-24.9-7.247-9.62-7.243-10.52-18.198-2.17-3.622-4.58-4.43-8.42-6.626 10.47-14.94 1.98-8.915-5.83-16.06-1.86-1.704 1.59-2.067-.55-5.96-4-1.559-9.36-.354-13.88.17-.31-5.177-.16-12.217-.17-17.517-5.12-1.041-8.08-.963-10.79-5.639.36-6.084 7.23-6.145 6.35-13.779-6.08-6.831-8.41-1.395-16.64-2.722-2.16-.35-2.72-6.821-7.63-10.011-3.69-.833-3.56-.694-6.96.455-1.39 3.026-.7 2.612.54 6.861l-.81 1.004-1.61-.445c-4.25-11.037-6.94-.96-11.95-8.297.06-7.498.67-10.677-6.76-13.981-8.48.326-6.26 6.952-11.75 9.418-2.94-3.721-5.24-6.461-10.55-4.715-12.39 4.074-.34 14.755-6.53 23.673-3.7 1.281-3.7.015-7.54-.721-11.5-2.207-10.54 14.996-10.84 22.501-4.61-.912-12.79-3.548-16.99-3.092-3.11 4.141-1.12 7.232-4.14 11.761l-4.11-.528c-1.58 2.611-.44 19.02-.28 23.48-4.62-2.881-10.66-6.936-15.81-4.167-2.76 5.003-1.47 7.136-3.13 12.039-2.86.456-3.19.351-5.74 1.591-2.41 9.239 7.4 10.883 6.56 20.066-4.65 3.504-12.44-2.502-15.58 4.496 1.33 2.332 1.87 2.944 2.48 5.574-3.66 4.516-9.06 2.482-9.28 8.51 2.25 2.289 2.62 2.528 4.36 5.34-1.63 6.029-4.36.697-9.71 6.038-.77 3.433-.12 4.157 1.29 7.372l-.87.922c-1.81-2.805-2.8-3.787-3.05-7.134 1.69-5.409 9.71-5.323 7.09-10.032-.69-1.227-1.15-2.607-1.63-3.967 2.73-7.07 10.26-5.596 8.27-9.036-.21-.357-1-3.858-1.2-4.751 3.75-5.701 9.42-4.636 16.02-5.095-2.59-4.276-12.25-17.887-4.55-21.303 6.16-2.738 4.83-5.225 4.97-12.287 3.19-4.544 12.82-.364 17.15 1.563-.06-4.02-.7-18.44.51-21.203 1.42-.454 2.57-.805 4.01-1.201l.36-1.203c1.22-3.969 1.19-4.748 3.87-7.66 4.55-2.234 11.5-.142 16.83.831"/><path fill="#e0e0e2" d="M1888.5 1073.35c1.06-.51 2.34-1.2 3.46-1.5-.13 2.8-.09 2.69-1.18 5.31-.78-.26-1.76-.34-2.54-.45.07-1.12.15-2.24.26-3.36"/><path fill="#5f636a" d="M1919.15 1067.74c2.12-.26 2.15-.37 4.13.02-2.06.36-2.3.66-4.13-.02"/><path fill="#ca7a35" d="m1860.28 793.792.99-1.039c12.11-12.974 16.24-29.4 23.98-38.101.74 7.335-13.44 32.743-18.69 38.932a60 60 0 0 1-6.59 6.541c1.37 24.952.9 55.764 1.07 81.174 11.51-21.064 28.22-44.192 38.56-64.111l1.55-.862c2.07 6.656-11.57 24.159-15.13 31.39 15.88-7.256 25.58-12.816 34.45-28.51l1.23-.647c5.07 12.774-29.34 29.635-36.89 35.66-7.58 6.045-23.23 31.752-24.55 40.938-5.13 6.772-5.03 3.306-6.97 5.887-.27-18.933-.9-43.922.59-62.442-15.28-6.692-27.96-16.21-39.37-28.26-3.79-3.995-18.69-15.936-19.23-20.609 7.49-.392 18.59 19.186 26.16 21.016 1.79 1.243 2.32.702 4.42.173 5.68 11.51 17.57 17.495 28.42 24.493.51-9.538.82-68.152 2.99-71.381 4.45 1.739 2.84 24.18 3.01 29.758m38.66 127.128c.13-.448 6.53-16.01 6.65-16.176 4.65-6.39 6.09-31.393 7.94-34.802l.71-.43c2.72 1.008 1.73 5.408 1.59 7.489a89 89 0 0 1-1.68 11.513c-2.2 10.486-6.32 20.374-10.3 30.279 10.41-8.289 17.4-13.746 26.16-23.93 4.43-5.16 7.93-11.677 12-15.545l3.19-3.08c-5.76 13.48-6.39 14.322-15.28 25.866 9.53-2.417 19.81-4.553 27.21-11.712 1.26-1.217 4-3.905 6.06-2.934.29.137.51.38.62.679 1.58 4.295-30.24 19.636-36.36 18.922-2.89-.338-18.33 13.995-23.07 16.305-2.54-1.659-2.49-1.78-5.44-2.444"/><path fill="#474f59" d="M1753.58 939.013c-.96-2.786-8.53-22.817-5.15-23.825.18.091 12.14 31.291 14.52 35.324 4.45 7.514 8.11 11.249 14.27 17.313 5.51-22.506 3.13-25.794 4.05-48.227 3.97 15.017 4.75 34.938-.87 49.576l-.59 1.564c6.25 6.125 17.31 16.534 24.38 21.302l-1.73 2.458c-12.13-4.905-31.86-26.682-40.73-36.884-1.81-2.077-4.77-11.46-7.38-15.267-.28-1.14-.53-2.183-.77-3.334"/><path fill="#ca7a35" d="M1795.17 885.879c-5.64-9.267-9.35-16.877-12.25-27.373-.49-1.785-3.68-8.02-2.71-9.568 3.12-4.991 14.14 33.633 19.15 34.695.08.015 7.73 7.869 7.94 8.142l-2.05 3.114c-6.09-5.268-8.97-4.256-16.72-6.119a123.5 123.5 0 0 1-29.98-11.416c-3.4-1.822-10.59-5.724-11.75-9.534l.03-.015.97-.96c2.62.334 12.47 7.553 17.27 9.643 10.7 4.657 18.99 6.663 30.1 9.391"/><path fill="#141617" d="M1702.54 928.778c2.44 1.533 5.26 3.012 7.52 4.666-5.76 4.109-6.38 4.472-11.51 9.317 17.05 18.687-4.09 6.356 3.35 19.263 4.32 7.509 19.16 4.354 12.77 15.742-4.2 7.477 17.79 11.034 4.64 20.61-4.15 3.024 1 14.574 7.67 12.774 1.4-.21 8.74 1.93 9.76 2.26l-.72 1.39c-4.79-.69-13.31-.83-17.04-4.29-2.29-2.12-4.09-8.66-3.81-11.556.36-3.698 9.36-4.302 3.9-9.207-.96-.815-1.43-1.066-2.12-2.071l-.7-.808c-6.78-7.682-4.09-9.109-2.55-14.297.3-1.003-11.89-5.748-14.16-9.753-1.81-3.198-4.21-5.715.6-9.244 8.58-4.313-11.74-7.854 1.74-16.756 1.55-1.022 4.62-3.376 1.83-5.155l-.91-.606z"/><path fill="#26272a" d="M1756.13 1040.06c4.71 6.07 1.39 9.75 6.63 14.23 1.54 1.32 4.83 1.37 6.78.98 3.54-.72 6.28-6.49 7.35 1.23.15 6.42 5.93 16.59 13.12 11.1 6-4.57 14.31 7.08 14.61 3.18.93-11.98 10.16 2.75 17.9 3.47 4.7.44 4.89-.76 10.92-3.98l.94.81c-21.74 17.02-17.92-9.53-28.33 1.89-1.95 2.15-10.94-3.49-10.7-3.59-13.8 5.8-16.33-.3-21.44-13.42-4.08.71-8.91 3.56-13.17.37-4.68-3.5-1.64-9.98-6.69-13.34.63-.95 1.32-2.09 2.08-2.93"/><path fill="#ca7a35" d="M1814.12 897.23c-.62-4.522-2.64-9.986-2.86-13.74-.47-9.282-.39-18.745-1.29-27.996-.27-2.832-1.4-9.999.6-11.939 1.9-1.853 2.51 2.609 2.55 2.94 1.84 12.925 2.01 26.063 3.62 39.009.64 5.411 1.67 9.131 3.01 14.388a362 362 0 0 0-5.83-2.095z"/><path fill="#8c6247" d="M1860.26 895.157c-.32 12.903-.11 28.745-1.02 41.346-.61-6.639 1.96-19.562-6.29-11.705.04-7.919.16-15.837.34-23.754 1.94-2.581 1.84.885 6.97-5.887"/><path fill="#474242" d="M1893.96 1004.09c5.62-11.367 13.72-24.716 16.88-37.115.24-.936.2-2.098.64-3.011.62-.164.3-.154.96-.008 4.21 4.178-9.88 31.143-12.5 36.194l1.31 3.55c-1.26 1.85-1.68 2.45-3.82 2.98-1.17-.89-2.26-1.74-3.47-2.59"/><path fill="#e0e0e2" d="m1899.94 1000.15 1.31 3.55c-1.26 1.85-1.68 2.45-3.82 2.98.83-2.96 1.18-3.76 2.51-6.53"/><path fill="#26272a" d="M1736.74 1013.41c.63.45 1.26.9 1.9 1.35 1.35 8.79-4.03 4.86-5.83 6.16-.37 1.89 9.4 3.94 9.19 6.51-.98 11.93.5 12 14.13 12.63-.76.84-1.45 1.98-2.08 2.93-1.26.36-11.49-2.25-12.92-3.94-1.22-1.44-2.57-6.34-1.8-7.49 4.39-6.51-19.07-8.88-4.8-13.85l1.54-.57c-.02-.78-.03-1.56-.05-2.34z"/><path fill="#5f636a" d="M1736.74 1013.41c.63.45 1.26.9 1.9 1.35-1.04 1.33-1.12 1.29-2.57 2.38-.02-.78-.03-1.56-.05-2.34z"/><path fill="#ca7a35" d="M1821.44 810.749c-1.93-5.872-3.92-12.191-5.39-18.063-.55-2.205-2.29-9.231-1.38-10.574 2.24-3.299 5.31 10.398 5.18 9.905 1.67 6.483 3.87 12.629 6.01 18.905-2.1.529-2.63 1.07-4.42-.173"/><path fill="#26272a" d="M1923.99 983.271c2.15-.205 6.91-.618 9.01-1.228 9-2.614 18.31-11.206 23.59-18.748.28-.396.58-.783.95-1.062.71.012.4-.065.97.186 2.44 3.454-15.16 17.768-19.01 19.613-6.74 3.226-8.88 2.922-16.16 3.213.15-1.011.05-1.22.65-1.974"/><path fill="#ca7a35" d="M1754.35 942.347c-5.56-.595-15.82-2.398-20.01-6.866-.06-.067-.03-.103-.01-.17l.09-.039.81-1.404c8.33.538 10.52 2.811 18.35 5.145.24 1.151.49 2.194.77 3.334"/><path fill="#695242" d="M1844.88 895.334c-2.28 6.704-4.05 12.172-8.26 17.948-.86-.49-1.64-.948-2.51-1.401 3.04-4.109 7.35-11.613 10.77-16.547m-37.58-3.559c3.04 3.017 3.16 3.553 6.82 5.455l-.2.567c-.31 1.106-.62 2.14-.88 3.261-2.51-1.987-5.36-4.148-7.79-6.169z"/><path fill="#dd9447" d="M1910 948.58c5.69-.559 19.15-1.843 7.13 5.763-12.63 4.023-12.58-3.678-7.13-5.763m-153.58 22.447c3.33-.12 18.11-1.368 13.32 6.484-8.34.497-16.26 2.402-13.32-6.484"/><path fill="#ca7a35" d="M1793.89 1037.31c2.14-.17 8.3-1.03 10.13-.45 2.67.84 3.76 4.82-.14 5.94-3.73.01-19.64 1.57-9.99-5.49"/><path fill="#dd9447" d="M1878.87 887.332c9.17-.55 13.51-2.16 6.02 7.112-4.4-.396-15.27-1.453-6.02-7.112m14.75 149.958c8.3-.22 14.15-3.09 13.12 5.71-6.18-.06-14.99 2.48-13.12-5.71"/><path fill="#ca7a35" d="M1875.49 973.268c1.43.055 8.25.118 9.04.674 3.68 2.597.55 4.594-1.76 5.288l-2.69.35c-6.08.758-11.49-.76-4.59-6.312"/><path fill="#dd9447" d="M1920.88 1011.3c6.15-.1 15.72-2.91 13.88 5.01-8.19.69-13.25 3.25-13.88-5.01m13.31-75.813c5.86-.417 15.66-3.393 14.38 4.097l-1.8.375c-4.55.99-12.49 2.362-12.58-4.472m-88.2-197.341c4.68-.164 16.16-2.679 15.35 3.428-6.98 1.925-14.47 4.758-15.35-3.428m83.34 112.246c1.84-.078 19.06-1.477 10.39 4.527-2.7.032-12.31 1.346-12.98-2.287.6-1.422 1.17-1.529 2.59-2.24m-87.61-62.725c4.82 2.846-2.35 8.62-4.94 11.233-8.06-3.656.98-8.951 4.94-11.233m-21.61-27.449c4.15-.037 14.89-1.72 12.96 4.347-6.57 1.244-11.38 3.024-12.96-4.347m11.69 94.758c3.24.174 12.87 1.289 5.28 5.597-4.14-.385-17.56-1.433-5.28-5.597m-37.39 65.738c7.42 1.157 10.25 1.824 2.96 7.009-6.9-.373-8.7-1.647-2.96-7.009"/><path fill="#ca7a35" d="M1784.65 816.255c3.46-.095 15.66-2.363 12.44 3.285-7.48.831-12.26 4.284-12.44-3.285m97.15-22.926c5.72-.112 13.67-2.475 12.86 3.997-4.8.585-11.24 1.613-12.86-3.997"/><path fill="#dd9447" d="M1738.84 900.174c6.85-.013 10.27-1.397 10.3 5.975-5.77-.295-9.39.197-10.3-5.975"/><path fill="#ca7a35" d="M1815.73 951.268c4.46-.151 13.86-1.552 6.39 4.888-2.51-.217-13.18-.519-6.39-4.888"/><path fill="#fdfdfc" d="M1489.06 1302.41c19.03 2.3 39.69 1.23 59.16 2.79.43 6.59-.93 15.58-1.32 22.64l22.02-.35-1.34-21.52 1.1-1.81c8.11-.41 16.25-.18 24.32.71 11.89 1.23 35.2 1.64 47.95 2.13 3.12.75 3.63 1.07 6.71.79l4.96.06-.25 2.18c-.07 2.26-.09 4.72-.29 6.96 15.54.49 31.31.35 46.73.73l.55-8c5.1.18 10.19.33 15.28.45 2.4.87 2.46.79 5.14.54l15.52.57c1.41-.09 1.38-.18 2.61.47 8.18.48 17.33 1.31 25.42 1.53 1.4-.09 1.37-.17 2.6.47 7.81.47 16.74 1.32 24.42 1.52 1.42-.09 1.37-.17 2.63.46 10.88.52 30.48 1.71 41.06 3.44-.67 14.85-2.63 30.51-3.13 45.05l34.05.49c-.85-10.3-2.24-33.1-1.51-43.01l-.12-1.64c11.52-.35 29.01 1.53 40.96 2.48l66.87 5.13 51.26 4.01c6.24.5 20.2 1.25 25.58 2.59v85.32c-60.41-9.13-121.78-20.81-182.05-31.23l-227.43-38.48-97.07-17.18c-10.44-1.82-42.02-7.89-51.03-7.35-2.21-3.6-1.4-17.75-1.36-22.94"/><path fill="#474f59" d="M1652.08 1316.99c15.54.49 31.31.35 46.73.73l2.07 1.75c2.21.01 2.83.5 2.87 2.95l.28 14.1c-17.71-.93-37.87-.79-55.84-1.13l.31-11.41c.08-3.24-.39-4.28 2.77-5.03z"/><path fill="#bebfc0" d="M1652.08 1316.99c15.54.49 31.31.35 46.73.73l2.07 1.75c-7.44 1.07-42.03.61-49.61-.52z"/><path fill="#828283" d="M1863.33 1320.06c11.52-.35 29.01 1.53 40.96 2.48l66.87 5.13 51.26 4.01c6.24.5 20.2 1.25 25.58 2.59v1.24c-20.91-1.2-41.96-3.51-63-4.72-.87-.46-.68-.43-1.64-.48-11.83-.52-24.65-1.69-36.55-2.53-1.14-.6-1.14-.5-2.49-.48-11.19-.19-25.76-1.79-37.33-2.5-.85-.45-.66-.41-1.61-.48-13.91-.64-27.77-2.01-41.93-2.62zm-294.65-15.9c8.11-.41 16.25-.18 24.32.71 11.89 1.23 35.2 1.64 47.95 2.13 3.12.75 3.63 1.07 6.71.79l4.96.06-.25 2.18c-10.69-1.57-25.11-1.34-36.15-2.12-16.78-1.19-31.73-2.11-48.64-1.94z"/><path fill="#bebfc0" d="M1790.35 1315.27c1.42-.09 1.37-.17 2.63.46-1.52.08-1.55.26-2.63-.46m-55.05-3.99c1.41-.09 1.38-.18 2.61.47-1.5.05-1.5.21-2.61-.47m28.03 2c1.4-.09 1.37-.17 2.6.47-1.5.06-1.51.22-2.6-.47"/><path fill="#fdfdfc" d="M501.058 1305.06c9.42-.48 19.615-.82 28.933-1.48 9.627-.69 21.015-.11 30.224-1.7.215 6.92 1.663 18.43-1.776 23.55-7.999-.54-40.173 5.44-49.934 7.09l-102.679 17.64-218.299 37.25C125.63 1398.16 62.067 1410.07 0 1419.53v-84.27c16.707-.03 44.647-3.2 61.989-4.57l116.644-9.11c.543 5.17-1.745 34.77-2.032 43.16 11.417-.07 23.044.12 34.476.2-.917-11.27-3.15-34.86-2.263-45.78l.162-1.97c12.573-.52 25.075-1.98 37.899-2.49.922-.12 1.047-.05 1.783-.43l10.292-.54c.83-.14 1.003-.1 1.672-.48 28.75-1.72 56.456-4.3 85.397-5.08l-.118 1.82.175 6.74c14.807 1.33 31.795.56 46.741.75l.096-8.23c15.335-.81 30.995-1.57 46.337-2.14 12.821-.48 26.049-1.75 38.816-1.01-.663 5.27-.906 10.88-1.248 16.2l24.452.07q-.22-8.655-.212-17.31"/><path fill="#474f59" d="M346.076 1316.73c14.807 1.33 31.795.56 46.741.75l.661 1.34c7.215.87 3.996 9.63 3.875 16.94-18.288.25-37.916.54-56.181.19-.61-6.67-3.962-16.7 3.669-17.03l1.766-.12q-.252-1.035-.531-2.07"/><path fill="#9ea1a7" d="M346.076 1316.73c14.807 1.33 31.795.56 46.741.75l.661 1.34c-7.256 2.14-38.779 1.19-46.871-.02q-.252-1.035-.531-2.07"/><path fill="#828283" d="M260.622 1313.25c28.75-1.72 56.456-4.3 85.397-5.08l-.118 1.82-10.246.25c-1.898.89-2.212.66-4.441.46-40.766 1.45-81.76 6.11-122.4 8.46l.162-1.97c12.573-.52 25.075-1.98 37.899-2.49.922-.12 1.047-.05 1.783-.43l10.292-.54c.83-.14 1.003-.1 1.672-.48"/><path fill="#bebfc0" d="M331.214 1310.7c1.906-.93 2.2-.73 4.441-.46-1.898.89-2.212.66-4.441.46"/><path fill="#474f59" d="M144.449 889.27c3.877 3.475 6.196 5.692 10.589 8.585 2.061-.319 2.521.432 4.27 1.504 6.117 5.167 10.115 8.678 14.249 15.549.886.602 1.518 1.289 2.305 2.044 3.036 6.769 13.31 22.455 17.517 29.183l.617-28.755c10.368.03 5.625 4.141 7.759 14.176l.439 21.837c9.304-7.021 17.234-12.074 26.53-19.784-2.313-9.423-.957-13.031.887-22.522.663 4.239 1.232 13.352 3.214 16.001 2.919-.159 2.302-.557 5.011-3.478 4.943-.96 5.44-2.146 9.166.051-13.517 10.949-31.363 24.733-44.181 35.7l.137 81.499c13.546-12.36 26.974-22.41 34.726-38.97 1.888.64 1.972.64 3.965.98 15.808-12.096 30.612-34.072 41.69-50.278-4.727 13.064-8.922 18.637-16.516 30.247-1.153.711-1.498 1.847-2.133 3.034-6.286 5.874-17.221 17.997-23.621 24.797-12.071 12.81-29.269 28.95-38.806 42.92q.234 12.045.725 24.09l2.207 1.1c-2.416 9.19-1.628 22.08-2.446 31.61-3.312 38.58-.586 75.52 3.259 113.88.882 8.8-1.56 21.14-1.067 30.26 1.645 13.9-.128 50.92 4.035 62.66l-.162 1.97c-.887 10.92 1.346 34.51 2.263 45.78-11.432-.08-23.059-.27-34.476-.2.287-8.39 2.575-37.99 2.032-43.16l.182-1.45c2.111-5.52 1.994-21.48 2.76-28.03 5.79-46.36 2.319-89.22-.703-135.32-1.01-15.4 3.917-53.72 6.294-69.59-14.057-15.86-30.221-49.76-37.334-69.83-3.27-1.05-6.777-1.97-10.099-2.9l4.044-2.17c2.497.59 1.582.59 4.146 0 .339-3.9-2.498-11.5-3.56-16.55-8.065-7.792-17.001-15.088-25.58-22.344l-1.719-1.673c-9.51-10.931-13.024-14.461-19.295-27.694.658-2.816.167-2.965 2.903-2.026 3.8 7.287 12.346 21.197 19.059 25.763 1.081-.147 2.017-.196 3.098-.267-.37 2.609-1.016 2.906.933 4.952 6.153 6.46 16.704 15.24 24.005 20.366l11.652-11.748c-3.666 7.2-4.999 9.873-10.244 16.256 7.073 28.575 20.105 54.165 37.715 77.575 1.03-8.5 5.341-73 3.198-77.867l-4.121-3.663c2.995.17 4.429 1.052 4.725-2.652 8.344-33.887-6.44-58.088-28.426-82.735-4.594-5.151-14.609-8.974-20.895-15.26q1.575-1.694 3.078-3.453m230.615-156.181 1.18.904c-1.902 4.597-1.818 9.436-3.845 11.78 2.299.686 2.032.541 3.8 2.25 4.728-.651 12.833-1.914 17.543-2.163-.725 1.265-3.755 6.617-3.777 7.549-.202 8.475-3.793 25.426-3.862 32.834-.315 33.729-.137 67.845-.131 101.505q.23 85.278-.79 170.552c-.044 22.38 2.088 72.21-3.819 90.73l.694-.55c-2.969 1.69-5.109 2.36-6.32 5.43.52 8.56 17.517 15.69 6.509 27.88q-.692.765-1.411 1.5c-6.16 1.7-15.62.92-21.779-1.39-3.114-3.34-3.955-4.14-6.259-7.99-.976-9.94 13.173-11.99 11.144-21.78-2.266-2.4-3.948-2.71-7.053-3.89l-1.249-.47-.345-1.11 3.694-.74c1.081-2.83-2.704-7.1-2.231-11.39.783-7.09 6.299-13.29 6.247-20.49-.186-25.86-.164-51.82-.058-77.67.63-55.319.752-110.643.366-165.964l.027-71.918c.031-9.524.644-27.954-.273-36.432-1.684-1.044-3.319-1.511-5.212-2.063l-.49-1.504c5.159-10.236 2.252-13.635-1.959-23.678 5.661-1.993 11.987.287 19.659-1.722"/><path fill="#fdfdfc" d="M372.399 745.773c2.299.686 2.032.541 3.8 2.25 6.352 12.368 2.226 11.328.395 20.62.737.425 4.199 2.42 4.22 3.398.53 25.264.181 50.611.097 75.89l-1.276 275.939c-3.125-1.68-6.74-3.35-9.96-4.92-.519-81.3-.58-162.604-.182-243.904l.183-80.203c.035-9.73.06-20.194-.214-30.001-.146-5.219 2.982-2.261 4.782-6.568l-.974-1.411c-3.104-4.591-1.906-5.626-.871-11.09"/><path fill="#474f59" d="M497.12 1010.13c.724-2.55 1.004-9.85 1.708-10.67 1.504.325-.397 3.93 1.846 6.24.221 13.56.314 27.12.279 40.67 4.05-2.8 9.117-5.92 12.33-9.49 1.116 1.5 1.485 1.72 2.978 3.01-5.661 5.08-8.95 7.29-15.322 11.53.026 17.35.308 35.41-.15 52.7 8.5-8.83 12.441-11.67 16.875-22.86l2.603 2.05c8.426-1.67 21.87-31.17 27.611-32.59.063 2.7-7.647 14.74-9.737 18.71-.611 1.46-.516 1.37-.83 3.05-13.107 12.63-25.817 25.25-36.997 39.68-.813 5.96-1.983 12.29-1.224 18.24.459 1.31.779 2.2 1.306 3.45-9.183 10.3-1.556 62.77-1.37 79 .323 28.14-1.633 62.24 1.854 90.08l.178 2.13q-.009 8.655.212 17.31l-24.452-.07c.342-5.32.585-10.93 1.248-16.2l-.462-1.99c1.583-4.95 2.878-24.49 3.172-30.55.892-18.37 3.773-39.35 3.931-57.43.14-15.98-3.501-36.38-3.121-52.84.135-5.88 2.295-17.48 3.179-24.06-.205-1.19-.311-1.84-.635-3.02-.793-2.52-.635-.98-.323-3 .971-6.27-2.838-12.13-6.063-16.92-14.737-5.72-22.396-7.2-31.938-20.22 11.673 8.78 17.271 10.49 30.754 16.06-2.463-4.66-9.552-17.29-9.71-22.04 1.122-1.59 1.37-1.66 1.892-3.45 5.09 13.66 13.642 28.36 21.094 40.99 3.216-16.1 4.536-30.96 5.703-47.29-4.139-2.54-6.367-4.37-10.147-7.46-4.751-16.87-11.547-37.63-27.253-46.95l.933-3.54c1.543.84 2.842 1.53 4.319 2.49.331.23 2.067.72 2.531.87 2.963-1.77 7.322-7.27 9.133-10.34 6.021-10.2.092-5.3-.985-10.41l1.319-.77c4.301.99 2.809-.14 5.183 2.67.489 7-7.641 17.45-12.1 22.65 13.199 15.4 12.559 29.6 24.672 43.8.871 1.02.942.77 2.468.48 1.52-8.45 1.449-52.94 1.508-63.7m1162.59 191.9c-6.63.9-4.43-2.46-1.45-6.05 5.26 2.56 24.47-.01 31.18 1.27 1.89.36.33 2.38 5.04 4.44-5.81.75-3.59 3.93-3.68 9.88 1.19 14.51 5.16 87.68 8.46 96.37l.1 1.78-.55 8c-15.42-.38-31.19-.24-46.73-.73.2-2.24.22-4.7.29-6.96l.25-2.18c2.16-17.09 2.89-38.74 4.33-56.32 1.08-13.11 3.28-37.29 2.76-49.5"/><path fill="#828283" d="M1659.71 1202.03c-6.63.9-4.43-2.46-1.45-6.05 5.26 2.56 24.47-.01 31.18 1.27 1.89.36.33 2.38 5.04 4.44-5.81.75-3.59 3.93-3.68 9.88-.67-2.94-.3-10.74-2.71-10.66-6.56.21-23.17-2.34-28.38 1.12"/><path fill="#474f59" d="M354.086 1202.09c.383-.56 1.183-2.04 1.925-1.97 5.05.43 26.249.02 29.098 1.79-1.069 22.82 4.902 56.72 5.699 80.51.239 7.11 2.052 18.77 1.329 25.27l.776 1.56-.096 8.23c-14.946-.19-31.934.58-46.741-.75l-.175-6.74.118-1.82c2.45-7.84 8.609-96.23 8.067-106.08M1524.57 1020.6c6.12 4.62 26.8 23.87 31.5 25.39.75.19 1.02.61 1.68.19l-.01-.11c1.42-1.13 1.19-.95 3.16-1.02.08 6.71-.13 21.49 1.66 27.27.58.4 1.15 1.03 1.64 1.53-.57.92-1.13 1.84-1.7 2.76.11 16.49 1.91 32.56 1.71 49.11 3.44-5.95 17.87-31.85 21.02-34.98l2.87.97c-2.72 4.72-6.26 10.53-8.68 15.28l-.52 1.63c-4.89 8.9-9.47 17.96-13.73 27.18l-.18 4.13c-1.09 14.36-1.37 24.73-.73 39.29.52 11.59 2.93 27.58 2.74 38.57-.37 22.38-1.63 44.32-.35 66.82.29 5.11-.1 13.96 1.18 18.6l.85.95-1.1 1.81 1.34 21.52-22.02.35c.39-7.06 1.75-16.05 1.32-22.64l-.5-2.13c5.33-7.5 6.27-113.94 3.33-128.55-1.9-9.45 4.57-29.92.26-37.39l.9-.61c-2.15-1.52-2.34-1.61-4.64-2.67 1.79-.17 3.57-.36 5.36-.58.74-5.31.72-7.27.52-12.66-11.8-10.67-21.23-21.93-32.79-32.62-1.46-1.35-6.29-2.76-8.35-3.35l2.5-2.36.91-1.2c2.13-1.19 2.96-1.4 2.87-4.01-.15-4.8.04-9.61.58-14.39.8 5.07.49 12.21.47 17.49 13.14 10.96 19.79 21.78 35.28 34.06.4-20.92.47-41.85.23-62.77-9.8-10.32-22.9-18.25-33.79-28.92 2.18-1.27 1.11-.62 3.21-1.94"/><path fill="#bebfc0" d="M1547.57 1133.85c1.79-.17 3.57-.36 5.36-.58 3.59 1.92 4.02 3.61-.72 3.25-2.15-1.52-2.34-1.61-4.64-2.67"/><path fill="#ca7a35" d="M201.05 796.338c6.403-8.813 13.336-19.84 18.612-29.399 2.597-4.706 3.32-8.94 6.389-13.908l1.672.23c.995 9.684-19.034 40.652-26.799 47.784.404 26.819 2.081 50.315 1.955 78.007 5.634-9.454 15.79-27.548 22.455-35.164 3.609-6.363 11.827-21.805 17.127-25.652l-.3.254c.181 5.018-10.59 22.694-14.341 26.657l-.211 1.842c-1.563 1.597-1.596 2.263-2.587 4.482-9.332 12.628-23.159 33.863-23.038 49.517-3.68.657-4.151.666-7.781.825.835-20.37.731-41.349.868-61.78-11.196-5.241-55.308-40.086-57.321-50.637 4.866 2.626 21.424 18.241 26.701 23.012-2.174-5.908-9.956-24.868-8.886-30.019 6.039 3.095 7.366 24.039 15.672 33.415 9.563 10.796 12.248 11.765 24.048 19.464.323-9.022 1.005-70.251 3.829-73.259l1.546 1.478c1.482 3.913.382 26.103.39 32.851"/><path fill="#26272a" d="m268.096 738.88 1.888 1.793c-.316 1.87-.439 2.785-.385 4.709l.852.217c5.057 1.333 5.751 1.557 8.742 5.579.579 6.92-4.629 6.151-2.596 12.081 3.77 2.961 4.907 2.861 6.49 6.65-.602 4.995-2.487 6.448-5.931 9.983 7.203 2.476 13.539 3.299 16.844 10.984 3.89 9.041 13.409 3.4 17.901 9.445 3.675 4.944.049 8.614-2.989 12.496 1.282 9.735 9.172 5.039-.735 17.019 20.634 13.954 1.955 18.06 12.868 26.595 5.388 4.214 28.514 1.017 13.508 19.381.74 4.984 4.227 3.8 4.7 9.119-.582 3.441-3.03 5.107-5.633 7.67 6.2 9.296 9.804 5.929-.144 17.912 9.399 12.945.641 9.338 3.834 17.251 3.841 4.368 10.614 8.265 11.702 14.013 1.356 7.165-8.799 8.253-6.292 13.865l3.544 1.499c.609 4.249-2.334 7.135-5.013 10.998-3.523.636-6.723.796-9.622 2.618 3.652 13.41 5.551 15.871-9.262 22.763-1.139 7.38 8.977 8.64-3.919 19l.898-.32c-1.329 6.25-1.839 12.59-6.579 16.8-3.027.82-4.131.98-7.146 1.4-7.903 6.82 1.553 19.25-17.411 14.84-6.03 2.64-1.547 6.4-6.285 11.7-2.667.85-2.569.77-5.395.72-4.579 3.06-2.289 14.22-15.235 12.97-4.986-.49-10.219-5.1-14.987-4.68-17.711 24.06-15.679.73-41.113 12.83l-2.207-1.1c11.174-5.31 11.238-8.52 22.952-3.14 7.657-2.97 6.902-.66 13.002-2.34 3.217-2.96 4.788-7.89 6.587-12.07 3.178 3.61 3.513 3.46 7.477 5.76 13.187 7.63 15.384-.55 20.966-11.92 2.665 1.08 3.399 1.72 6.2 1.29 2.727-2.92 2.375-7.54 3.453-10.4 1.792-4.74 7.258 1.42 14.516-2.56 3.998-5.34-.677-10.41 5.366-14.17 14.712 1.75 9.367-6.21 11.27-14.26 1.054-4.46 8.174-4.95 7.996-13.25-2.343-3.584-4.801-5.884-3.288-10.095l3.494-.357c1.289.125 2.491.232 3.776.41 9.677-10.918 1.202-13.096 3.52-21.238 2.449-2.487 5.983-2.491 9.596-3.04 1.145-2.148 2.15-4.226 3.205-6.413-.896-3.544-2.027-3.406-5.548-6.367 4.688-3.875 5.719-5.081 9.575-9.738-4.162-7.606-6.153-8.564-11.731-14.964-.589-5.71.376-6.579-5.126-7.151l-.856-1.306c2.706-.669 3.039-.745 5.545-1.931.043-3.192-1.607-4.267-3.84-7.537-.217-5.1 3.928-3.01 5.837-9.865-.824-5.055-5.181-4.8-6.613-9.786 2.306-1.531 3.488-2.41 5.623-4.172 1.697-7.193-2.832-4.85-6.072-11.606 4.293-3.107 4.689-2.338 6.786-6.682-1.158-16.364-30.364-.394-19.376-28.897l-12.749-10.597c2.533-2.296 3.326-3.134 5.544-5.746.98-5.98-4.145-4.552-5.74-11.048 4.904-3.691 7.034-3.9 5.556-9.967-5.693-7.175-11.223 3.156-19.893-15.277a1223 1223 0 0 1-15.995-6.732c3.201-3.898 5.881-6.286 6.081-11.098-1.611-3.315-5.305-4.829-8.643-6.744 2.69-3.838 4.56-5.469 5.139-9.978-2.565-4.86-4.862-1.996-10.38-7.008-.504-2.562-.057-2.968.735-5.551zM1584.99 896.582l-3.01.63c-4.36-3.567-.49-4.897-4.03-7.005-1.1-.656-5.68 1.932-7.13-.359 6.43-4.267 9.01-2.026 11.16 4.005 5.74 2.584 7.73-3.162 10.71 4.136-.86 2.336-1.62 4.254-2.61 6.539 1.36 2.672 2.75 3.438 5.09 5.279 1.69 5.12-.92 5.968 1.33 9.523 5.25 2.607 12.43-2.079 11.69 6.484-.47 5.445 6.38 7.62 6.59 13.058.77 6.334-4 5.086-2.04 9.229 5.81 1.75 7.88 1.423 10.93 5.854.15 4.232-.58 4.558 1.5 7.195 4.2 1.228 8.77 2.013 11.86 4.848 4.11 13.506 3.28 27.832 5.69 41.562.86 4.92 9.68 4.69 12.77 9.46.21 7.8-6.87 4.39.77 15.83 1.48 2.21-4.64 6.49-2.25 9.46 4.52 5.63 2.7 7.62-.91 12.68 1.65 4.18 2.96 4.76 1.94 7.84l-4.52 3.71c2.85 5.05 3.31 3.88 3.49 8.93l-1.09 1.4c-4.59.3-4.2-.51-6.61 1.94.14 1.53.26 3.27.47 4.77l-.76 5.21c-2.74 4.32-3.31 4.69-7.22 8.17-2.65 7.11 3.82 9.1-8.25 13.46-5.84 2.11-2.38 6.99-7.08 11.52-4.17 1.52-4.21 1.01-9.1-.35-1.03 1.98-2.6 6.11-4.77 5.56-13.1-3.38-13.63 6.48-23.17 9.95-5.31 1.94-15.43 1.06-21.44 2.83l.18-4.13c9.95-3.31 8.27.5 17.13-.37 4.15-.4 12.16-8.3 15.85-10.07 1.89-.91 8.38-.46 12.11-1.03.74-1.82 1.32-3.43 1.96-5.28l1.67-.46c10.31 3.74 8.36.17 12.82-7.78 1.55-2.78 6.52-4.32 8.82-6.34 0 0 .39-7.37.5-8 1.52-1.45 3.88-4.02 5.2-5.49-1.13-1.43-2.12-2.58-3.32-3.94.7-2.88 2.69-3.35 5.82-5.62l-.09-5.46 1.31-1.27c2.55.24 4.29.71 6.58-.35l.53-2.52c-1.33-1.66-2.34-3.04-3.85-4.53l-.91-.72c2.12-2.16 3.11-2.81 5.51-4.6.57-4.77-2.4-3.9-2.55-9.32 1.71-1.57 2.36-2.25 3.86-4.03-.5-6.34-2.65-2.74-3.75-8.29 8.64-10.73.26-8.59-1.08-16.18l3.22-3.33c.2-.79.41-1.58.61-2.37-5.13-3.56-11.9-7.4-15.03-12.83l2.28-3.51c.28-4.233-1.03-3.099-2.64-6.422-.7-1.429 1.34-9.548.46-11.784-1.67-4.286-1.77.981-3.88-3.736 3.02-.921 2.08.011 3.43-2.27-.73-5.924-4.97-6.181-5.26-10.315l3.05.69c-.54-3.705-9.9-3.776-12.28-4.757-.87-.36-.74-6.049-4.44-9.588-7.94-2.206-11.63-5.359-6.53-12.965.14-7.157-3.02-4.273-8.16-10.417 0-2.441.05-2.763.73-5.026l.57-1.841c-4.53-3.692-6.92.357-12.49-4.45-1.42-3.072-.84-4.165-.12-7.498-.48-1.868-1.99-3.093-3.29-4.557l-1.95-1.483-.19-1.986c1.43-2.113 2.02-2.962 3.1-5.3l.8-1.728c-1.86.002-4.48.077-6.29-.095"/><path fill="#fdfdfc" d="M1646.02 1088.79c-8.09.13-6.98-3.88.76-5.21z"/><path fill="#828283" d="M1589.52 907.174c1.95 1.489 4.67 2.282 3.29 4.557-.48-1.868-1.99-3.093-3.29-4.557"/><path fill="#26272a" d="M81.365 835.339c-2.472-5.247-7.315-10.816-8.273-15.675-.764-3.872 5.024-5.136 8.08-8.645-1.694-3.732-3.232-5.023-1.375-8.678 2.693-1.628 4.986-2.476 6.097-5.272-3.618-15.42 7.118-7.304 14.355-11.524.144-5.254-6.531-9.123-5.307-18.076 2.722-3.434 4.329-3.034 9.058-4.659 2.065-5.033-2.347-4.22-.887-10.493 7.762-4.946 13.131 1.812 17.161-.254-.448-2.742-1.144-6.346-1.312-9.065-.538-8.719 3.109-6.823 6.677-11.044-2.763-17.876 12.926-6.762 20.018-9.489 2.352-4.845-.19-8.855 2.271-16.029 3.687-4.428 9.431-2.602 15.895-3.228 3.304-7.363-1.252-12.571 2.386-20.808 5.347-5.713 10.711-3.877 16.461-.612 14.056-13.263 17.874-7.708 22.623 7.77 5.938 4.964 8.937-1.187 16.598.002 3.721 2.135 3.504 2.118 5.946 5.759l-.774 3.802c-1.134-3.304-1.247-4.666-3.991-6.825-3.082-.92-3.411-1.31-6.566-.575-1.969 2.631-1.264 2.787-1.362 6.887l-1.805-.014c-1.83-2.051-1.301-1.198-2.174-3.805l-7.605-3.463c-1.342-5.329-2.294-10.691-6.507-14.403-9.135-2.355-10.65 8.869-16.136 8.553-3.298-3.384-2.766-3.918-6.63-4.948-15.521 5.259-1.075 16.972-10.497 25.422-3.24 1.216-6.036.277-9.555-.325-7.504 3.017-5.626 13.383-5.463 20.348-4.964-.65-14.496-2.295-18.924-1.529-1.064 5.101.434 4.842-1.947 10.528-5.865 3.508-3.04-2.466-6.598 2.975-1.171 7.872 2.8 11.914.843 16.254-4.09 1.386-5.283.307-9.568-1.508-.688-.006-1.448-.468-2.061-.742-3.365 1.844-3.68 1.237-4.82 4.015 1.769 4.863 1.86 3.135.985 7.777-2.186 2.581-4.785 2.597-8.239 3.313-2.273 2.405-1.351 1.004-1.784 5.037 3.161 9.298 8.611 8.533 5.736 16.165-6.955 4.86-20.138-4.612-12.982 10.29-2.169 5.055-4.94 1.378-8.41 6.461 2.615 4.622 5.415 4.6 5.303 7.622-5.444 2.043-8.29 2.871-12.513 6.996 3.567 4.312 6.983 7.643 8.63 12.901-1.4 8.991-12.265 1.443-15.98 10.719l-2.165 1.214c-.197-9.571 10.283-8.711 17.087-9.122"/><path fill="#474f59" d="M352.977 731.408c2.661-6.409 8.789-11.56 9.872-19.437 1.577-1.933-7.936-12.312-3.507-13.622 5.39-1.595 4.652-15.257 8.287-6.79 2.427 5.654 3.533 6.299 6.576 10.666-9.622 14.112-4.78 4.998-1.41 19.784 1.779 7.804 3.758 10.991 10.466 5.987l2.639-.987c1.621 3.465 3.637 7.49 5.372 10.923 1.523 3.014 3.618 3.135 4.836 6.769-.77.601-1.385.752-2.366 1.159-4.71.249-12.815 1.512-17.543 2.163-1.768-1.709-1.501-1.564-3.8-2.25 2.027-2.344 1.943-7.183 3.845-11.78l-1.18-.904c-7.672 2.009-13.998-.271-19.659 1.722-.913-1.641-1.161-1.841-2.428-3.403"/><path fill="#9ea1a7" d="M376.244 733.993c.211-.055 1.172-.489 1.605-.238.188.109.23.442.231.616.01 2.718-4.04 6.673-1.91 9.552.614.83 1.794 1.051 2.762 1.069 5.822.111 11.41-1.248 17.176-.291-.77.601-1.385.752-2.366 1.159-4.71.249-12.815 1.512-17.543 2.163-1.768-1.709-1.501-1.564-3.8-2.25 2.027-2.344 1.943-7.183 3.845-11.78m-23.267-2.585c8.148 1.293 15.123-.296 22.087 1.681-7.672 2.009-13.998-.271-19.659 1.722-.913-1.641-1.161-1.841-2.428-3.403"/><path fill="#26272a" d="m62.877 871.476.054 2.328c-3.845 2.355-2.997 1.137-4.882 4.763.735 5.326 3.169 10.201-2.619 14.111-5.662 3.825-16.982 1.073-17.216 10.721 2.265 2.605 2.494 2.596 5.301 4.387-2.234 5.848-7.757 6.429-6.644 14.037 3.152 4.072 10.74 8.594 15.364 10.891-4.245 2.615-7.23 4.133-10.708 7.752-.722 7.453 8.622 7.675.168 18.606 1.776 5.589 11.48 9.678 17.017 12.616l-5.52 8.399c6.244 5.839 11.533 8.851 7.154 18.556-6.767 14.997 18.528 11.827 20.022 17.387-1.6 2.82-2.945 3.46-5.567 5.34 4.075 8.08 9.161-4.37 8.739 15.83 4.902.98 10.219 1.81 14.868 3.52 1.804 5.37 2.622 9.04 6.022 13.58 4.922 2.17 6.182-1.87 12.83-.65 1.849 6.17 2.801 10.72 8.013 14.82 9.087 2.19 7.886-5.9 16.385 2.06l2.022.03c2.738-2.83 3.328-4.45 6.526-5.26 8.996 8.39 8.506 9.94 21.343 7.25l.103 1.48c-2.808 2.91-2.478 2.48-5.669 3.24-5.449 1.3-15.518-11.35-18.393-5.85-1.16 2.22-2.142 2.08-4.77 2.41-3.304-1.55-3.501-1.89-6.223-4.17-7.521-.76-6.929 4.33-15.147-1.12-.55-.6-.564-.71-1.04-1.47-8.02-10.81.98-9.81-15.986-10.69-3.213-.16-6.785-10.44-8.27-14.27l-1.75-.31c-5.575-.98-8.961-.86-12.156-5.41.253-5.56.775-5.95-2.517-9.82-4.823-.93-6.264-.35-8.042-4.97 1.61-4.21 3.203-1.73 5.132-5.83-7.248-1.71-10.488-1.85-16.394-6.61-.596-.51-.684-.6-1.167-1.21-6.815-10.711 2.865-10.415.546-19.092-.81-.686-1.281-1.175-2.182-1.668-2.987-2.134-3.373-2.084-5.083-5.416-.324-3.501.132-4.179 1.293-7.438l.372-1.019c-2.283-3.218-10.985-7.724-16.495-13.587l-.932-1.01c2.294-2.25 3.218-3.18 5.284-5.755.707-5.558-3.56-5.61-2.686-12.043 3.078-4.193 4.075-4.6 8.449-7.682-11.094-8.379-16.889-9.598-9.8-23.597l.67-1.301c-6.724-15.929 3.86-13.385 14.15-16.663 6.36-2.026 1.714-10.288 3.947-16.115 2.56-2.992 2.36-2.913 6.084-4.088"/><path fill="#ca7a35" d="M469.271 967.01c-.669-2.879-5.557-19.503-1.301-20.344.829.829 5.464 21.538 9.302 28.311.695-2.161 3.491-11.975 4.271-12.712 4.964-4.691.008 16.686-.2 18.28 6.365 7.157 6.594 7.406 14.726 12.872a753 753 0 0 0-.172-13.442c1.854-2.069 2.147-2.374 4.283-4.078 8.247-6.344 17.292-11.628 23.75-20.006.179-.232 1.869-2.021 2.441-.888.941 6.163-11.045 13.983-14.163 16.159-5.173 3.61-8.294 6.005-12.274 9.212.079 6.986 1.074 19.439.74 25.326-2.243-2.31-.342-5.915-1.846-6.24-.704.82-.984 8.12-1.708 10.67-.247-4.04-.238-7.88-.474-11.852-18.896-12.939-16.873-13.122-31.148-31.323-4.72-6.019-10.608-8.205-18.016-18.453 11.586 7.634 12.242 8.57 21.789 18.508"/><path fill="#474f59" d="M359.056 1181.9c6.159 2.31 15.619 3.09 21.779 1.39l.069 1.75c3.953 5.1 5.143 7.86 7.793 13.61 1.673 3.23-.606 3.24-3.588 3.26-2.849-1.77-24.048-1.36-29.098-1.79-.742-.07-1.542 1.41-1.925 1.97-3.508-.61-4.809-.42-2.75-4.13 2.245-4.84 4.26-8.25 6.888-12.8.289-1.09.567-2.17.832-3.26"/><path fill="#828283" d="M351.336 1197.96c14.922-2.3 23.431-.12 37.361.69 1.673 3.23-.606 3.24-3.588 3.26-2.849-1.77-24.048-1.36-29.098-1.79-.742-.07-1.542 1.41-1.925 1.97-3.508-.61-4.809-.42-2.75-4.13"/><path fill="#e0e0e2" d="M359.056 1181.9c6.159 2.31 15.619 3.09 21.779 1.39l.069 1.75c-5.992 1.14-15.042 1.51-21.055.38l-1.625-.26c.289-1.09.567-2.17.832-3.26"/><path fill="#26272a" d="M410.877 1103.27c-.162-1.75-.256-3.39-.001-5.14-3.096-4.38-4.534-3.34-7.384-8.74.66-2.28.683-2.42 1.839-4.48-4.955-8.77-13.734-5.52-13.759-15.12 1.437-1.97 2.661-3.57 4.207-5.46-.766-11.43-14.298-9.65-4.8-20.87-.66-2.88-1.078-3.27-2.534-5.8 1.268-5.07 3.317-5.24 2.867-8.77l-2.894-3.11.593-.9 2.969 1.14 1.353-1.51-.153-1.6c-1.043-11.97 7.249-5.73 12.321-11.95a148 148 0 0 1-3.084-5.97c2.987-9.166 7.114-1.76 5.147-13.498l1.101-2.07 3.202-.513c.794-4.754-2.6-6.322-1.192-11.125 3.232-3.208 4.265-2.247 9.579-3.765-.322-4.327-2.458-3.602-2.35-7.842 4.095-9.393 11.392-.8 16.163-14.029l1.523-.408 2.207 1.814c.29 6.532-13.007 8.575-17.283 13.83.668 2.951 1.631 4.037 3.272 6.534l-.344 1.825c-5.758 2.694-6.739.372-10.621 3.279-.23 5.877 2.889 7.029 1.556 11.599-4.258 3.52-3.148-1.429-4.833 2.566 1.938 6.322 1.964 5.335-3.979 9.503l-.487 1.69c2.589 3.81 3.761 4.01 3.564 7.59-3.217 3.51-11.963 4.53-12.618 5.94-3.194 6.89-3.286 19.22-3.531 26.96-1.328 1.87-2.423 3.41-3.283 4.61 1.269 3.51 7.327 8.91 10.394 14.21-2.545 2.86-4.452 4.4-5.344 8.09 3.066 2.75 4.72.64 7.696 4.27 1.669 6.19 1.002 5.85 7.808 7.17-1.787 2.17-3.632 4.3-5.531 6.37 4.088 2.74 7.98 4.43 9.603 8.82l-.528 4.91c-.81-.02-1.621-.03-2.431-.05"/><path fill="#ca7a35" d="M136.625 886.799c-3.093-4.991-7.623-11.403-9.156-17.22-.796-3.021-7.946-19.994-6.779-21.792 2.132-3.285 5.45 8.249 5.784 9.135 4.438 11.77 9.613 22.79 17.975 32.348a110 110 0 0 1-3.078 3.453c-4.605-2.426-10.635-3.451-15.8-5.019-10.625-3.227-30.376-11.591-39.018-18.408l-3.868-3.077c10.117 3.534 16.774 7.169 26.331 11.573 8.083 3.725 18.985 6.3 27.609 9.007"/><path fill="#26272a" d="M586.598 1057.21c-.724-.49-1.964-1.43-2.747-1.8-2.086-.9-2.012-3.4.517-2.63 8.826 2.69 5.383 8.2-.214 12.49-3.93 3 4.673 5.19-.215 8.42-.985.37-1.97.75-2.955 1.12-8.192 3.76-7.75 3.77-5.757 11.7.58 2.31-2.873 7-3.546 9.2-.882 2.14-3.489 3.03-4.801 3.99-3.566 2.62.786 6.73-3.447 11.09-2.837 2.93-7.786 1.8-8.94 2.89-.79.75.055 6.31-2.148 7.64-2.081 2.41-5.419 1.79-7.853 1.99-2.171.17-8.584-2.07-9.683-.56-3.143 4.53-1.605 5.72-7.255 6.6-4.441.7-4.06 2.58-9.059.72-8.409-3.13-11.35-1.28-18.099 3.78-.527-1.25-.847-2.14-1.306-3.45 4.439-1.67 8.517-3.36 13.034-5.03 4.553 1.18 14.852 4.07 16.948 1.48 6.554-8.08 2.419-8.01 15.415-5.75 8.513 1.49 6.088-4.09 7.379-9.17.542-2.13 10.875.68 11.141-5.43.472-5.62-1.995-9.1 5.05-9.53 1.269-.07 5.211-12.52 4.594-13.33-5.499-7.25 4.865-8.92 9.377-11.18 3.189-1.6-2.402-4.12-2.999-5.17.003-.71 6.229-4.83 7.926-7.56l.886-1.32z"/><path fill="#474242" d="M1582.05 1054.48c11.98-11.56 17.31-24.65 27.96-36.5.34-.38.73.05.96.26.87 2.39-7.18 11.97-8.79 14.01.81-.31 6.19-2.35 6.82-2.43 4.44-.55 13.31-9.85 16.16-8.63-.14 5.15-18.94 12.15-23.54 13.38l-.94 1.38-.93 1.43c-5.98 9.05-25.89 33.01-35.55 36.47-.49-.5-1.06-1.13-1.64-1.53 4.51-3.12 12.06-11.1 15.95-15.27l.33-1.82c1.06-6.32 2.9-13.92 4.51-20.22.26-1.02.92-4.24 2.66-3.88 1.37.3.09 4.39-.14 5.36-1.46 5.96-2.69 11.96-3.82 17.99"/><path fill="#ca7a35" d="M251.567 914.226c5.841-4.804 16.103-12.706 20.585-18.121 7.269-8.782 6.527-11.214 15.268-19.229-5.348 12.958-6.705 16.019-15.752 26.579 10.847-3.683 19.086-5.951 27.939-14.254 3.711-3.48 8.861-3.827 2.169 2.569-10.449 9.989-21.015 12.871-34.266 17.288-2.342.809-10.121 6.923-13.24 8.932-1.665-1.365-1.73-1.791-2.703-3.764"/><path fill="#141617" d="M1736.58 825.305c3.07 2.829 5.04 4.044 6.4 7.824-1.65 7.223-11.28 3.568-17.28 8.217-1.53 6.039 4.96 8.196 4.39 13.633-2.32 2.353-3.07 2.56-5.92 4.153-2.6 6.684 3.17 7.439 1.39 12.234l-1.27.694c-2.78 1.542-4.8 2.192-6.3 4.869.06 6.078 2.94 10.256-.39 13.666-6.2 6.359-18.17.277-20.55 11.721 4.3 9.191 9.33 4.339-.94 15.108-.36 3.807 1.53 5.959 3.96 8.893.46.552.92 1.098 1.4 1.638l-1.96.549c-3.39-3.537-9.32-8.837-4.74-13.121 7.37-6.907-.69-9.789.72-16.98 8.54-10.444 17.66-3.345 21.29-11.354-5.99-14.713 1.46-9.37 6-18.473.39-.789-3.35-7.848-.27-12.964 2.5-.517 2.98-.439 5.17-1.676-.33-3.932-2.68-4.541-4.94-9.739.37-3.731-.21-2 2.09-5.268 4.5-2.303 11.29-2.722 16.52-3.427-1.67-3.05-3.79-6.296-5.64-9.275z"/><path fill="#ca7a35" d="M1516.63 1015.21c-1.25-3.08-11.53-25.524-5.67-26.738.63.415 7.66 21.458 8.89 24.588l1.26 3.21c1.52-3.12 9.65-25.547 12.56-23.367 1.38 5.814-7.89 20.337-9.1 27.697-2.1 1.32-1.03.67-3.21 1.94-3.89-3.01-32.33-19.19-28.76-23.826.99-.162 20.92 14.536 24.03 16.496"/><path fill="#474f59" d="M1687.14 1185.41c2.6 5.03 6.49 10.88 7.34 16.28-4.71-2.06-3.15-4.08-5.04-4.44-6.71-1.28-25.92 1.29-31.18-1.27 1.62-3.37 3-6.86 4.41-10.33 8.96.25 15.44.33 24.47-.24"/><path fill="#ca7a35" d="M1537.36 973.876c-.78-7.455-2.08-14.866-1.31-22.392.05-.482 1.1-2.824 1.53-1.916 1.94 4.232.83 9.884 2.17 14.446-.22-.754.95 5.129.88 4.556 1 7.855 5.23 12.386 10.89 17.456 1.36 1.212 2 3.148 3.75 1.76 1.37 2.342.18 2.084-2.26 3.504-7.24-4.723-13.79-11.407-20.9-16.602-3.15 1.113-12.73 5.454-10.94-2.588.35-1.558 6.18.436 6.81-.994-.21-1.376-10.03-11.841-10.85-15.653-1.25-5.145.88-5.851 3.59-.804 4.88 9.073 8.65 13.255 16.64 19.227"/><path fill="#474242" d="M421.119 1027.32c17.413 22.25 7.733 26.59 35.243 48.75-.166-2.4-.623-11.99-1.512-14.57-1.988-5.77.6-12.11 2.328-2.53 1.097 6.07 1.654 12.81 1.961 19.24l-.122-.06c1.986 1.88 5.985 4.83 8.177 6.44 8.32-19.11 7.672-8.08 1.548 2.05-.522 1.79-.77 1.86-1.892 3.45l-.336-.48c-3.695-5.37-18.408-15.83-24.531-20.88-1.702-2.69-1.979-3.15-4.135-5.48-4.661-7.43-13.113-22.91-15.41-31.25z"/><path fill="#828283" d="M0 1333.47c40.633-1.92 83.33-7.08 124.089-9.41 15.144-.86 40.672-4.53 54.726-3.93l-.182 1.45-116.644 9.11c-17.342 1.37-45.282 4.54-61.989 4.57z"/><path fill="#ca7a35" d="M1558.93 966.349c7.87-7.791 13.58-13.58 17.25-24.317.73-2.113 2.48-12.757 5.22-5.044.82 2.305-5.36 12.998-6.58 14.994l-2.25 3.645c2.4-1.251 17.53-10.749 18.31-8.831-1.26 4.435-16.51 10.587-20.06 12.962-2.76 1.848-7.65 7.648-10.55 10.296-3-3.771-3.26-.51-5.26 2.843.46-9.944.75-24.608 1.42-34.85.1-1.478 2.77-2.702 2.76.492-.05 9.042-.22 18.802-.26 27.81M525.482 1024.2c5.165-9.54 7.083-16.77 6.77-27.704-.043-1.48-.424-3.323 1.011-3.967 4.865.587 1.359 20.601.904 23.461 8.404-8.67 11.103-13.02 21.554-20.173-6.952 10.183-9.555 12.383-17.493 21.523 5.395-1.55 12.72-2.86 16.585-6.56 1.456-1.4 4.254-4.5 6.298-4.14 3.836 3.25-14.778 13.37-18.593 12.59-1.414-.3-8.092 3.11-10.096 3.86-2.359-2.74 4.039-2.8 5.025-4.83-.043-.12-.087-.25-.13-.38-2.512-1.07-5.458 1.76-5.847-2.52l-.23 1.58c-2.028 5.63-.81 3.71-5.758 7.26m1035.648 3.66c12.08-12.26 17.75-27.26 29.73-40.634-4.67 12.854-7.18 16.854-14.72 28.394 10.74-5.84 16.2-9.57 25.25-18.209.69-.66 1.36-.707 2.23-.657l.43.359c.37 4.547-23.7 22.527-26.07 21.177-4.98-2.84-9.21 4.88-13.33 12.65-1.07-.97-2.41-2.24-3.52-3.08"/><path fill="#b86d2f" d="M1555.01 972.897c2-3.353 2.26-6.614 5.26-2.843-1.29 3.246-.64 55.456.86 57.806 1.11.84 2.45 2.11 3.52 3.08l-1.19.35c-2.97-1.43-4.16-1.02-7.46-.72-.12-10.02 1.93-33.809-2.99-39.28 2.44-1.42 3.63-1.162 2.26-3.504-.24-5.097-.2-9.812-.26-14.889"/><path fill="#828283" d="M1699.26 1307.94c6.38-.31 12.85.26 19.23.57 27.57 1.38 55.2 4.55 82.76 5.79.76.41.91.34 1.8.46 10.55.25 20.99 1.34 31.49 2.31l-.5 2.1c-10.58-1.73-30.18-2.92-41.06-3.44-1.26-.63-1.21-.55-2.63-.46-7.68-.2-16.61-1.05-24.42-1.52-1.23-.64-1.2-.56-2.6-.47-8.09-.22-17.24-1.05-25.42-1.53-1.23-.65-1.2-.56-2.61-.47l-15.52-.57c-2.68.25-2.74.33-5.14-.54-5.09-.12-10.18-.27-15.28-.45z"/><path fill="#bebfc0" d="M1714.64 1310.17c2.37-.17 3.1-.48 5.14.54-2.68.25-2.74.33-5.14-.54"/><path fill="#26272a" d="M426.068 1112.44c1.667 1.24 1.496 1.18 3.523 1.96l2.393.64 2.328 4.86-.764 1.47c9.078 1.74 4.703-.61 9.056 5.14 5.721.44 14.337-9.82 16.357 5 1.041 7.62 3.157.08 4.871 1.51.229.19.318 1.14.747 1.52 1.417-.36 6.45-4.53 9.024-3.06 6.019 3.44-1.879 8.68 10.527 4.73.324 1.18.43 1.83.635 3.02-15.604 4.7-7.29-10.84-17.286-3.72-8.845 6.29-10.413-2.23-12.972-10.41-2.28.81-13.077 5.92-14.28 2.43-2-5.82-10.104-1.96-13.067-6.77-1.216-1.97 1.569-3.01-2.011-6.65l-.922-1.05z"/><path fill="#e0e0e2" d="m429.591 1114.4 2.393.64 2.328 4.86-.764 1.47c-4.997-1.46-4.306-1.67-3.957-6.97"/><path fill="#26272a" d="M1488.34 1110.86c13.08-5.82 3.51 3.29 10.18 10.14 3.66 3.75 7.2-.15 10.88 2.02 5.7 7.86 6.88 7.13 17.04-.99 1.91 1.87 6.83 7.68 9.58 8.38 2.03.51 3-3.02 5.07-2.8 5.24.57 1.57 5.07 6.48 6.24 2.3 1.06 2.49 1.15 4.64 2.67l-.9.61c-.68-.11-1.36-.22-2.03-.34-3.66-.64-4.95-1.42-6.63-4.57-2.82-5.26-3.32 3.2-8.76.15-3.23-2.43-3.89-3.15-6.45-6.23-3.44-.42-13.22 10.39-18.17.83-2.98-5.74-3.12-.29-8.27-1.99a9.2 9.2 0 0 1-5.49-4.82c-.59-1.21-1.02-2.56-1.97-3.55l-1.14-1.17c-1.1-.09-2.75-.13-3.75-.45l-3.89-.16c1.35-1.64 2.01-2.54 3.58-3.97"/><path fill="#e0e0e2" d="M1488.65 1114.99c3.57-3.82 8.92-6.66 3.75.45-1.1-.09-2.75-.13-3.75-.45"/><path fill="#5f636a" d="M1527.44 1126.14c3.72 2.39 3.77 2.56 6.45 6.23-3.23-2.43-3.89-3.15-6.45-6.23"/><path fill="#ca7a35" d="M242.264 916.016c.617-4.457 3.573-10.612 4.862-15.221 2.097-7.499 5.417-14.884 6.042-22.781-.414-1.087 2.334-11.005 4.682-7.09.659 1.1-.748 8.171-.958 9.569-1.898 12.661-7.199 25.332-10.531 37.44-.771 1.401-.755 1.5-2.019 2.515-2.049-.152-.552-2.012-2.078-4.432"/><path fill="#26272a" d="M1602.62 1070.97c7.26-4.3 11.8-6.29 17.13-13.21 2.19-2.84 4.1-9.2 6.24-8.93 4.38 3.8-15.32 24.4-22.55 23.49-2.36-.3-13.42 16.35-15.34 19.39l-2.87-.97c3.13-5.17 8.51-12.48 12.44-17.03 3.84-4.47 10.68-20.28 14.7-22.23l.18.02c.81 1.23-8.59 16.96-9.93 19.47m-86.9 10.11c-6.29-8.81-13.67-15.75-17.88-26.42-1.31-3.32-5.41-11.26-4.51-15.07.97-4.09 4.48 10.55 5.05 9.79 4.79 10.8 10.1 19.71 18.53 28.11.1-5.76.22-11.74-.1-17.49-.18-3.14-1.3-9.29-1-12.45l.89-.84-.66-.15c.24-.16.48-.32.72-.47 2.6 2.46 2.45 13.16 2.41 16.59-.54 4.78-.73 9.59-.58 14.39.09 2.61-.74 2.82-2.87 4.01"/><path fill="#ca7a35" d="M449.775 1019.34c-2.203-1.95-14.667-12.15-13.896-14.95 2.663-.92 16.357 14.03 22.588 17.26l.605.74-.933 3.54c-9.273-2.84-11.894-4.28-22.17-6.38l-.98-.2c-2.265-.46-9.361-1.69-8.782-5.37.071-.44.346-.83.743-1.04.992-.54 19.328 5.49 22.825 6.4"/><path fill="#474f59" d="M185.967 993.37c-3.987-3.447-33.275-27.472-32.698-30.163.942-.93 2.676-.588 3.86-.596.28.278.59.695.738 1.04 3.549 8.273 11.629 10.168 17.556 14.474 3.737 2.715 11.307 9.224 15.269 12.593-.296 3.704-1.73 2.822-4.725 2.652"/><path fill="#b86d2f" d="M153.338 887.462c-1.174-7.173-4.371-39.462-1.652-44.648l1.305-.196c1.019 1.756 2.494 23.668 2.893 27.385l1.534 14.089c-1.679 1.245-2.562 1.988-4.08 3.37"/><path fill="#828283" d="M392.137 1307.69c13.23-2.4 44.275-1.62 59.36-2.93 8.677-.82 17.4-1.04 26.107-.65l.462 1.99c-12.767-.74-25.995.53-38.816 1.01-15.342.57-31.002 1.33-46.337 2.14z"/><path fill="#ca7a35" d="M227.609 846.989c10.406-3.18 18.515-8.002 26.077-15.566 2.665-2.665 8.652-13.345 9.825-12.184 3.151 3.121-9.261 16.2-10.43 17.288-7.684 7.155-16.411 10.769-26.07 14.215l-1.989.729c.991-2.219 1.024-2.885 2.587-4.482"/><path fill="#26272a" d="M1459.32 1034.36c-8.14-17.36-1.51-10.17 7.94-15.04 3.38-1.74-1.24-17.36 7.7-19.22 1.67-.349.73 3.07.46 3.69.12 1.63-2.61 1.74-3.79 2.86-3.85 3.6 4.28 6.29 1.58 8.52-2.96 2.45-2.71 3.19-3.58 6.59-1.94 1.94-6.67.54-9.01 1.44-5.06 1.94-.61 7.76 1.41 12.47-3.91 2.99-5.2 3.11-7.53 7.44l-1.06 1.07c-1.23-5.09 2.03-6.32 5.88-9.82"/><path fill="#474f59" d="M266.823 982.839c10.47-.27 19.3-7.05 26.225-14.322 1.3-1.366 5.675-7.116 6.554-6.06 3.456 4.15-13.323 17.005-14.976 18.133-7.029 4.793-12.06 5.755-19.936 5.283.635-1.187.98-2.323 2.133-3.034"/><path fill="#ca7a35" d="M495.897 979.975c-.221-13.327-.449-27.326.353-40.565.052-.861 1.859-1.346 1.976-.849 2.716 11.571-.123 25.068 1.954 37.336-2.136 1.704-2.429 2.009-4.283 4.078"/><path fill="#8c6247" d="M194.203 901.813c3.63-.159 4.101-.168 7.781-.825-.154 10.168-.014 20.494-.229 30.568-2.134-10.035 2.609-14.146-7.759-14.176q.033-7.785.207-15.567"/><path fill="#828283" d="M500.88 1302.93c22.696-.21 49.396-4.03 71.518-2.6-3.363.56-10.104.29-12.183 1.55-9.209 1.59-20.597 1.01-30.224 1.7-9.318.66-19.513 1-28.933 1.48z"/><path fill="#26272a" d="M119.731 967.766c2.306-11.227 2.916-19.837 2.119-31.261.171 2.446-1.948-18.602 1.615-8.119 2.78 8.182 2.446 30.951-.636 39.113-1.081.071-2.017.12-3.098.267m20.002 46.694c-5.994-1.48-42.437-8.79-43.5-14.13l.235-.352c1.72-.55 3.452.252 4.987 1.062 12.917 6.85 28.337 7.64 42.322 11.25z"/><path fill="#141617" d="M227.837 695.319c4.668 6.464 19.537-2.305 20.285 9.678.791 12.645-13.885 10.178.614 16.817l-1.766 1.461c-16.552-4.626-.116-10.255-.88-17.339-1.113-10.314-15.968-1.65-19.027-6.815z"/><path fill="#474f59" d="M386.76 712.623a6.184 6.184 0 1 1-3.976 11.712 6.184 6.184 0 0 1 3.976-11.712"/><path fill="#828283" d="M1488.52 1300.72c19.45.89 39.97.87 59.2 2.35l.5 2.13c-19.47-1.56-40.13-.49-59.16-2.79z"/><path fill="#474242" d="M237.684 1001.89c1.557-3.586 15.468-34.394 17.268-35.091.535.122.797.12.729.462-1.431 7.167-11.228 27.789-13.504 34.169l-.528 1.44c-1.993-.34-2.077-.34-3.965-.98"/><path fill="#dd9447" d="M97.346 944.024c-2.916-.876-23.045-6.297-21.504-9.495 5.426-1.773 14.763 2.184 19.813 4.288 1.23 2.167 1.12 2.257 1.59 4.704z"/><path fill="#26272a" d="M1466.23 1083.12c2.39.59 2.44.84 3.86 2.87-.92 2.98.74 4.19 3.5 4.62 12.21 1.88 3.38 4.84 3.49 10.03-.05-.08 6.99 5.95 8.15 7.17l-.15 1.08c-1.87.33-6.1 2.09-5.33-1.39 1.14-7.48-10.57-1.16-2.94-12.12 2.16-3.09-10.61-1.35-10.55-10.81zm46.08 1.52c-8.13-3.82-13.99-6.43-19.78-13.91-1.18-1.52-6.2-6.69-5.27-8.82.89-.25 1.61-.18 2.16.63 8.18 11.97 13.03 14.02 25.39 19.74z"/><path fill="#dd9447" d="m117.064 971.723 1.719 1.673c-4.864 3.485-15.648 6.087-20.164 3.224-7.975-5.058 16.806-4.733 18.445-4.897m324.919 97.007c-3.535-.63-7.456-1.72-10.965-1.99-1.395-.11-15.61-2.95-13.472-5.65 1.008-.41 18.259 1.88 20.302 2.16 2.156 2.33 2.433 2.79 4.135 5.48"/><path fill="#695242" d="M449.908 988.195c5.147 11.855 7.803 24.135 13.483 36.685-1.477-.96-2.776-1.65-4.319-2.49l-.605-.74c-5.972-16.37-6.543-16.51-8.559-33.455"/><path fill="#26272a" d="m553.276 1064.12 1.792-2.07c2.123-2.51 5.759-9.09 6.936-9.88l.561.04c2.779 3.66-8.566 14.48-10.859 16.47l-3.709.62c-4.794.85-6.25 1.22-10.686 3.18.314-1.68.219-1.59.83-3.05 5.316-1.88 9.816-3.16 15.135-5.31"/><path fill="#474242" d="M87.067 912.431c7.608 12.06 8.154 17.174 13.605 29.572-2.736-.939-2.245-.79-2.903 2.026l-.423-.005-.101-.503c-.47-2.447-.36-2.537-1.59-4.704-3.4-8.777-6.275-17.265-8.588-26.386"/><path fill="#695242" d="M1556 1030.57c3.3-.3 4.49-.71 7.46.72-3.6 7.13-2.6 5.12-2.56 13.76-1.97.07-1.74-.11-3.16 1.02l.01.11c-.66.42-.93 0-1.68-.19.02-5.14-.01-10.28-.07-15.42"/><path fill="#b86d2f" d="M525.482 1024.2c4.948-3.55 3.73-1.63 5.758-7.26l.23-1.58c.389 4.28 3.335 1.45 5.847 2.52.043.13.087.26.13.38-.986 2.03-7.384 2.09-5.025 4.83-2.489 2.77-7.059 8-9.547 10.38-2.066-1.51-2.155-1.73-4.679-1.39 2.646-1.38 5.225-5.57 7.286-7.88"/><path fill="#dd9447" d="M1579.42 1106.99c26.68-8.9 20.04 6.18-.52 1.63z"/><path fill="#26272a" d="m64.278 844.461 2.164-1.214c11.334 19.692-7.161 6.922-2.23 22.188 1.086 3.359 1.788 2.807 1.538 6.833l-1.926-1.617q-.369-.924-.756-1.841c-4.064-9.692-1.973-11.132 4.697-15.818.867-.609-2.923-7.284-3.487-8.531"/><path fill="#695242" d="M251.567 914.226c.973 1.973 1.038 2.399 2.703 3.764-1.541 1.782-5.148 4.581-7.268 5.671-3.726-2.197-4.223-1.011-9.166-.051 1.564-2.55 2.876-5.058 4.428-7.594 1.526 2.42.029 4.28 2.078 4.432 1.264-1.015 1.248-1.114 2.019-2.515a165 165 0 0 0 5.206-3.707"/><path fill="#26272a" d="M517.664 1081.26c.096-.24 8.157-28.48 9.122-20.76.505 4.04-5.254 17.59-6.519 22.81z"/><path fill="#695242" d="M513.283 1036.88c.486-2.24 1.824-12.05 3.143-13.02 3.744.02.01 6.38 1.77 8.22 2.524-.34 2.613-.12 4.679 1.39-2.296 2.35-4.183 4.21-6.614 6.42-1.493-1.29-1.862-1.51-2.978-3.01"/><path fill="#26272a" d="M248.736 721.814c11.937 11.126-2.775 16.964 8.159 17.054q2.184.489 4.362 1.006c-22.077 3.604-1.86-6.529-14.287-16.599z"/><path fill="#8c6247" d="M157.418 884.092c.593 4.093 1.507 11.242 1.89 15.267-1.749-1.072-2.209-1.823-4.27-1.504-.335-3.494-1.128-6.93-1.7-10.393 1.518-1.382 2.401-2.125 4.08-3.37"/><path fill="#474f59" d="M185.539 895.968c-2.366 7.681-4.662 14.537-9.677 20.984-.787-.755-1.419-1.442-2.305-2.044 4.091-5.799 7.466-12.374 11.982-18.94"/><path fill="#474242" d="M1459.2 1070.42c.96.99 6.65 6.81 7.8 6.26 4.43-2.12 4.94 1.68 4.33 5.4-.4 2.43.82 2.07-1.24 3.91-1.42-2.03-1.47-2.28-3.86-2.87 7.26-2.98-2.79-5.85-7.38-9.69z"/><path fill="#26272a" d="M1459.89 1057.79c8.56 9.2-3.18 5.89-.69 12.63l-.35 3.01c-6.89-12.42 5.41-4.83.07-14.42z"/><path fill="#828283" d="M413.308 1103.32c1.548 1.07 4.904 2.85 5.959 4.1.851 2.98 1.833 3.19 3.989 5.52-1.382.06-2.803 0-4.191-.02l-.985-1.94c-1.695-4.27-4.319-3.5-7.203-7.71.81.02 1.621.03 2.431.05m1041.192-60.21c2.72 1.52 7.18 5.24 9.22 7.55l-2.56.35c-3.87-3.08-4.16-2.74-7.72-6.83z"/><path fill="#141617" d="M1879.32 1072.54c4.22.71 5.11 1.36 9.18.81-.11 1.12-.19 2.24-.26 3.36-3.93.19-6.22-1.04-9.76-2.85z"/><path fill="#5f636a" d="M382.012 712.944c1.628-8.396 1.635-8.173 4.748-.321a6.18 6.18 0 0 0-4.748.321"/><path fill="#e0e0e2" d="M256.895 738.868c3.05-1.264 8.122-1.4 11.201.012l-1.161 1.259c-2.209-.01-3.485.03-5.678-.265q-2.178-.517-4.362-1.006"/><path fill="#141617" d="M1463.72 1050.66c.18.11.91.39 1.02.78.06.21-.06.51-.18.68-.65.91-2.12 1.38-3.04 1.89-.73.4-1.43.84-2.15 1.26l-1.27-1.46c1.18-1.02 1.98-1.7 3.06-2.8zm-1044.453 56.76c3.741 1.9 3.601 1.99 6.801 5.02l-1.841.62-.971-.12c-2.156-2.33-3.138-2.54-3.989-5.52m12.717 7.62 1.512-.05c5.342-.28 2.939 2.72.816 4.91z"/><path fill="#e0e0e2" d="M1485.23 1107.81c1.74 1.42 1.85 1.41 3.11 3.05-1.57 1.43-2.23 2.33-3.58 3.97.07-2.05.16-3.91.32-5.94z"/><path fill="#474f59" d="M1458.92 1059.01c-2.06-2.1-2.07-2.67-.82-5.2l1.27 1.46c.11 1.1.24 1.46.52 2.52z"/><path fill="#141617" d="M419.065 1112.92c-.977-.01-2.744.35-3.556-.43.111-1.05 1.681-1.23 2.571-1.51z"/><path fill="#5f636a" d="M383.149 724.446a6.2 6.2 0 0 0 1.962.207l.789 2.356-2.639.987z"/><path fill="#828283" d="m1701.47 927.955 1.07.823.26 2.279c-1.91-1.146-1.82-1.061-3.29-2.553z"/><path fill="#9ea1a7" d="M1640.95 1307c2.29-.01 4.67-.39 6.71.79-3.08.28-3.59-.04-6.71-.79"/><path fill="#828283" d="m63.824 870.651 1.927 1.617c-.794.545-1.971 1.101-2.82 1.536l-.054-2.328z"/><path fill="#474f59" d="M1672.86 703.367c2.66-3.217 7.42-12.712 8.57-13.491l.8 1.163-1.77-1.469.76-.236c2.49 3.885 7.28 10.564 7.29 14.967-1.52 3.038-3.65 4.057-6.47 6.018 3.7 6.829 7.66 14.907 12.24 21.069l-.65.688c-.64 1.484-.74 1.627-1.66 2.929-2.32 5.963-6.4 13.865-3.33 20.342 1.01 2.113 1.37 1.931 1.75 4.271-2.13 1.944-2.43 1.938-5.07 3.238-2.07 9.229-1.06 61.634-1.07 73.798l.18 233.306c.06 12.98-.2 26.7.27 39.6.56 15.41 7.73 20.73.81 36.4 1.03-.03 6.79-.47 7.06 1.09-.6.76-1.73.69-2.59.82-4.68 1.19-6.72 3.09-10.65 5.87 3.43 6.56 12.9 15.32 11.87 21.85-1.74 11.06-26.7 9.92-31.07 1.84-4.88-9.01 8.92-15.75 10.58-23.94-7.16-5.79-2.2-4.48-10.94-6.24l-.65-1c2.1-.59 2.41-.66 4.33-1.66l-.54-1.45c-4.08-10.75-1.7-18.74-1.36-30.32.35-15.67.41-31.34.19-47.01l-.71-254.519c-.04-12.021-.03-24.684-.26-36.746-.08-4.553-4.84-3.352-4.24-7.061 1.57-9.734 2.34-9.645-.49-19.322-1.84-1.118-2.11-1.296-3.7-2.714-.87-.797-.62-.501-.95-.954-1.69 4.422 9.93-17.044 9.89-16.964-5.72-10.422-5.3-7.559-.3-15.266l2.11-4.688c.21-.47.38-.7.69-1.101 1.96-.29 1.54 1.487 1.1 2.853.23 1.651.43 1.408 1.9 2.687 8.63 10.86-6.31 10.443-.02 17.623 2.2 2.506 1.3 4.906 4.28 8.552l1.26-1.549c-3.93-6.43 5.29-19.224 8.72-26.504-2.84-2.107-5.47-4.467-8.16-6.77"/><path fill="#fdfdfc" d="M1675.04 743.224c.73 3.629 2.7 9.783 1.75 12.741l-3.37 2.095.23 2.148 4.54 2.421c.97 6.01.7 38.758.74 45.898l.1 105.946-.14 135.277c-.02 17.85.99 51.66-.64 67.72-2.22 1.9-8.02 2.38-11.35 3.22-1.41-62.17.19-126.403-.23-188.922-.38-35.394-.47-70.791-.28-106.187.07-15.704-.44-38.209.71-53.442 1.34-1.308 2.55-2.612 3.64-4.133-3.34-10.75-3.34-6.968-.2-18.344.69-1.541.24-2.374-.18-3.962l2.09.08c.75-.793 1.74-1.922 2.59-2.556"/><path fill="#474f59" d="m1660.98 712.264 2.11-4.688c.21-.47.38-.7.69-1.101 1.96-.29 1.54 1.487 1.1 2.853.23 1.651.43 1.408 1.9 2.687 8.63 10.86-6.31 10.443-.02 17.623 2.2 2.506 1.3 4.906 4.28 8.552l1.26-1.549c.91 2.474 1.66 4.208 2.74 6.583-.85.634-1.84 1.763-2.59 2.556l-2.09-.08c.42 1.588.87 2.421.18 3.962-2.18-3.034-11.08-1.86-14.5-1.5-1.84-1.118-2.11-1.296-3.7-2.714-.87-.797-.62-.501-.95-.954-1.69 4.422 9.93-17.044 9.89-16.964-5.72-10.422-5.3-7.559-.3-15.266"/><path fill="#9ea1a7" d="M1652.34 745.448c6.03.142 12.14-.334 18.02.252.42 1.588.87 2.421.18 3.962-2.18-3.034-11.08-1.86-14.5-1.5-1.84-1.118-2.11-1.296-3.7-2.714"/><path fill="#828283" d="m1660.98 712.264 2.11-4.688c.21-.47.38-.7.69-1.101 1.96-.29 1.54 1.487 1.1 2.853.23 1.651.43 1.408 1.9 2.687z"/><path fill="#5f636a" d="M1672.3 736.641c.91 2.474 1.66 4.208 2.74 6.583-.85.634-1.84 1.763-2.59 2.556-.4-3.494-.24-4.389-1.41-7.59z"/><path fill="#9ea1a7" d="M1691.97 735.005c-6.42-2.494-15.76 1.396-18.11-.509-.44-3.882 16.63-2.516 19.77-2.42-.64 1.484-.74 1.627-1.66 2.929m-6.46 410.955c1.03-.03 6.79-.47 7.06 1.09-.6.76-1.73.69-2.59.82-1.72-.66-2.81-1.08-4.47-1.91"/><path fill="#26272a" d="M458.216 906.678c1.826-4.141.461-2.635 3.819-5.03q3.36-.14 6.72-.187c3.545-4.89.753-9.703 6.862-15.974 4.441-1.572 4.354-.951 8.498 1.957 4.358-.986 8.781-4.202 13.288-5.903l.978.846c6.087 5.199 12.704 7.075 13.729 13.579.341 2.163 10.889-1.353 14.522 4.364-.633 4.815-3.549 4.656-4.792 8.962 4.588 2.422 8.745 2.525 11.234 5.454 1.156 4.33 1.155 2.221-.036 6.57-.744.641-2.248 1.598-3.032 2.125 0-2.227.431-3.036 1.033-5.292-1.446-4.346-.172-2.923-3.058-5.348-5.408.634-5.323 1.108-9.014-2.879-.244-4.268 2.005-2.729 4.547-8.51-3.075-6.849-10.027.709-16.136-3.75.533-2.696.658-2.671.28-5.348-12.762-11.988-17.775-2.357-23.893-2.565-2.718-1.93-2.568-2.311-5.664-2.822-3.434 3.683-4.746 14.171-8.166 17.387-6.035-.934-5.504-1.208-10.099 2.313 1.59 16.491-6.142 6.717-12.693 11.605-1.847 3.92-.094 6.386-.073 10.32.042 8.019-10.298 4.321-15.735 9.371-.846 5.96 2.214 5.911 2.049 10.623-3.414-2.562-3.651-2.643-5.749-6.253-.288-9.061 12.233-8.247 16.056-12.423.634-.692-1.868-8.488 2.369-13.775 3.765-2.416 5.838-1.082 10.304-1.711 2.417-3.298 1.616-2.783 1.852-7.706m107.723 63.202c1.475.534 2.163.807 3.564 1.458 7.067 6.119 2.513 7.587 2.112 11.249 1.469 3.501 4.225 1.751 6.168 8.994 1.701 6.337-4.992 8.107-3.944 10.379 1.712 3.7 9.508 2.94 4.04 9.05-3.226 4.75.839 10.77 6.622 9.99 1.991-.27 4.126 1.17 5.477 2.53 4.443 4.15-5.2 12.92-3.216 14.93 2.299 2.32 7.55 5.55 2.782 9.65-7.904 6.8-1.569-1.67.287-4.22-.771-.49-1.479-1.15-2.194-1.74-2.481-1.13-2.484-.93-5.124-1.64-1.778-.48.372-3.01.684-3.31 3.662-3.56 4.96-8 6.999-12.69-3.552-.65-8.044-.77-11.257-2.04-2.506-.57-3.434-5.45-3.797-5.99-4.253-6.29 6.195-7.86 1.258-10.11-10.16-4.62-3.701-5.75-.555-11.816.511-.985-5.252-2.291-1.859-4.184 1.237-.789.977.425 1.6-.944-1.028-1.766-9.094-5.984-7.174-10.167.744.044 1.287.757 2.049.21.2-.592.345-1.96.423-2.493-1.362-2.457-1.9-2.972-4.072-4.684l-.925-.932z"/><path fill="#828283" d="M565.939 969.88c1.475.534 2.163.807 3.564 1.458.181 2.833.368 2.932 1.381 5.638-1.362-2.457-1.9-2.972-4.072-4.684l-.925-.932z"/><path fill="#26272a" d="M1488.06 984.446c-4.21 1.745-10.62 3.035-12.83 7.225-1.26 1.33 2.45 4.707.77 5.111-6.31 1.52-4.72-3.699-2.64-6.479 2.64-3.547 3.09-3.946 6.64-5.289.43.197 4.06-1.076 3.67-2.036-1.61-4.017-8.99-9.127-3.75-14.179 1.36-.736 2.18-1.546 1.78-3.246-2.92-12.23 15.03-4.65 11.61-12.132-3.01-6.557 2.09-6.987 7.29-8.686l.37 2.135c-12.83 5.397-1.7 2.557-5.9 10.667-2.36 4.553-12.97 1.167-11.33 6.958 1.76 6.21-1.5 4.131-3.69 8.026-.79 2.233 6.29 9.602 8.01 11.925m56.5-99.269-1.64 3.777c-.98 2.309-1.51 6.031-3.56 7.588-1.99 1.518-8.43.04-9.29 2.969.55 4.931 1.16 10.085-5.97 8.819-1.41-.249 2.88-1.649 2.66-5.8-.48-9.34 8.12-6.231 11.56-8.232 2.48-1.437 3.8-17.798 11.36-7.953 2.45 2.932 3.98-4.657 10.34-4.648 2.18.024 4.26.935 5.75 2.525 1 1.035 4.18 5.568 2.97 6.891-2.33.127-3.65-3.688-4.51-5.262-1.36-1.094-1.4-1.201-2.48-2.625l-1.87.452c-9.91 2.497-.53 11.625-15.32 1.499"/><path fill="#26272a" d="M1501.67 944.004c0-7.04-5.05-11.823-1.13-17.494 1.69-2.445 6.39-1.757 8.96-1.974 16-1.354-3.95-8.753 5.33-13.754.97-.521 3.39-4.596 5.66-4.105 6.73 3.295-6.1 5.15-5.69 7.342.92 4.973 7.17 7.421.44 12.298-3.63 2.769-11.89-2.156-13.42 3.67-.86 4.11 2.39 9.694 3.11 15.08z"/><path fill="#dd9447" d="M222.342 885.263c10.545-.319 14.686-.559 4.96 7.861-9.07.491-16.218-2.391-4.96-7.861m-9.436 90.98c3.688-.192 19.708-2.656 13.687 5.169-6.331 1.355-15.807 4.802-13.687-5.169m38.321-27.752 1.213-.093c2.617-.195 20.221-.016 9.374 5.429-2.316.47-7.7 1.908-9.778 1.094-3.63-1.42-5.495-4.766-.809-6.43"/><path fill="#141617" d="M547.761 952.731c1.307-.838 2.862-2.892 4.026-2.388 1.351 3.437-2.063 6.217 4.699 6.51 11.115.482 5.429 9.641 9.453 13.027l-.052 1.48-1.475-.221c-7.749-1.275-1.943-3.773-2.12-7.739-.29-6.529-11.57-3.084-12.748-4.097-1.283-1.103 2.154-2.36-1.064-5.134z"/><path fill="#dd9447" d="M229.05 1037.22c4.823-.25 9.658-.27 14.483-.52 3.327-.17 1.768 3.03 1.319 5.12l-1.843.25c-5.973.8-14.528 2.65-13.959-4.85m-93.719.94c2.326-.12 9.793-1.17 11.136.88 1.205 1.85.155 3.91-1.492 5-3.481 0-17.913 2.03-10.771-4.77zm142.026-104.709c4.763 1.153 6.415 2.051 11.281 1.307 2.13-.326 1.901 2.754 1.423 4.196l-1.051 3.208c-2.283-.406-6.601-2.04-8.006-1.826-5.194.792-4.255-.868-3.647-6.885m186.441 115.839a4.99 4.99 0 0 1 5.116.47 4.992 4.992 0 0 1-1.247 8.72 4.995 4.995 0 0 1-6.297-2.76 4.99 4.99 0 0 1 2.428-6.43M188.771 737.362c.622-.058 21.724-2.224 12.497 3.923-4.753 1.082-15.822 5.1-12.497-3.923M1539.91 1017.24c3.51-.16 17.89-1.14 7.94 5.85l-1.96.16c-5.23.5-13.84.12-5.98-6.01"/><path fill="#ca7a35" d="M441.726 981.297c5.541.406 16.127-1.13 16.103 5.32-5.665.933-13.972 1.605-16.103-5.32"/><path fill="#dd9447" d="M1612.56 978.127c1.29-.164 4.58-1.059 5.39.583-.34 3.757-8.07 4.678-10.71 5.204-14.78-.479 1.1-4.878 5.32-5.787M266.662 1012.18c1.758-.13 18.269-1.87 11.149 4.88-5.82-.09-15.345 2.37-11.149-4.88m-131.533-90.224c14.6-5.949 16.618 7.581-1.147 3.202-4.936-1.166-1.796-2.334 1.147-3.202m132.972-71.498c2.036-.167 17.395-2.231 13.606 3.889-2.38.25-19.139 2.505-13.606-3.889"/><path fill="#ca7a35" d="M160.673 762.327c5.248.051 14.281-1.64 9.895 5.58-3.228.047-16.488 1.736-9.895-5.58"/><path fill="#dd9447" d="M441.717 1037.28c5.686-.28 12.523-2.36 9.833 5.58-5.926.19-13.618 2.46-9.833-5.58m1078.113 67.54 1.79.07c7.67.29 10.81.7 5.58 7.75-5.29-.95-10.54-1.74-7.37-7.82M227.539 792.158c4.33.088 13.798.713 5.246 6.01-2.028-.099-8.149.381-9.514-1.769-1.241-1.953 1.336-3.142 2.808-3.674zm292.659 305.202c5.142-.4 15.895-2.86 11.151 4.51-3.114.55-14.607 2.17-11.151-4.51"/><path fill="#474242" d="M533.038 921.316c.938 5.54 4.625.683 7.888 4.712 2.265 2.798.291 2.597-.235 4.496.779 1.954 4.444 4.826 3.93 7.287-.29 1.387-4.694 1.837-5.516-.308.383-1.015 1.535-1.269 2.185-2.073.081-1.627-2.331-1.77-2.397-3.417-.038-.935 1.707-2.929 1.032-3.474-4.535-3.664-4.061.536-9.919-5.098.784-.527 2.288-1.484 3.032-2.125"/><path fill="#dd9447" d="M1574.11 1074.57c5.2.91 10.32 1.13 7.34 7.54-7.33-.48-12.52.25-7.34-7.54"/><path fill="#474f59" d="M548.48 954.169c-2.435-1.023-6.027-1.748-7.736-3.54-2.386-2.502 2.103-12.72 4.696-9.426 6.501 8.261-8.79 3.344 2.321 11.528z"/><path fill="#dd9447" d="M178.337 788.725c1.211.695 2.747 1.262 3.735 2.301.485.52.73 1.219.675 1.928-.141 2.054-3.73 5.137-5.089 6.492-6.656 1.404-1.837-6.159-.259-8.979zm252.992 293.555c5.005.31 11.794-1.03 11.471 4.99-6.02 1.22-11.035 3.14-11.471-4.99"/><path fill="#ca7a35" d="M122.82 816.357c5.248-.453 14.491-2.86 15.328 3.299-4.944.39-13.863 2.435-15.328-3.299"/><path fill="#dd9447" d="M530.246 1041.85c1.341.39 5.118 1.76 3.377 4.04-1.224 1.6-7.121 1.62-9.389 1.9-12.067 1.15 5.145-5.62 6.012-5.94M80.435 900.906c6.97-.303 10.882-2.035 10.188 5.419-4.64.698-8.65 2.131-9.808-3.637zm459.269 72.584c6.957 2.146 6.616 4.063.671 6.885-3.041-.301-11.142-.649-3.844-5.002z"/><path fill="#ca7a35" d="M495.116 918.761c4.179.465 10.234.52 11.924 4.773-8.892 1.938-10.263 3.584-11.924-4.773m-338.379 32.613c5.769-.648 13.477-3.111 8.024 5.074-2.801-.281-12.13-.625-8.024-5.074m11.529-94.973c5.012-.524 11.571-2.438 12.952 3.259-4.968.323-12.454 2.564-12.952-3.259"/><path fill="#dd9447" d="M512.736 999.258c7.585 1.502 6.317 3.052 1.93 8.312-5.994-2.44-5.435-3.6-1.93-8.312"/><path fill="#ca7a35" d="M1561.63 907.179c5.82-.505 10.97-2.55 10.1 4.071-4.55-.204-10.89 1.483-10.1-4.071"/><path fill="#dd9447" d="M1537.78 1072.31c4.25 2.26 8.14 3.2 2.84 7.21-4.45-1.47-9.28-1.28-4.13-5.94z"/><path fill="#ca7a35" d="m471.933 933.943 1.745-.002c4.227-.053 6.945-.55 6.059 4.446-5.914.755-7.84 2.014-7.804-4.444"/><path fill="#dd9447" d="M1609.14 1090.29a3.11 3.11 0 0 1 3.21.02c.98.6 1.55 1.7 1.48 2.85a3.14 3.14 0 0 1-1.83 2.64c-1.5.68-3.28.06-4.04-1.41a3.1 3.1 0 0 1 1.18-4.1"/><path fill="#ca7a35" d="M1487.69 1027.85c5.21-.07 6.54-1.06 7.68 4.13-5.74.16-6.87 1.55-7.68-4.13"/><path fill="#5f636a" d="m1500.6 944.735 1.07-.731 3.26 1.063a136 136 0 0 1-3.96 1.803z"/><metadata><recraft-signature>{&quot;signed_by&quot;: &quot;recraft&quot;, &quot;signature_b64&quot;: &quot;avVJyd010sHP+DCNRAkemKCBOU2dams0RD06j96Q29kcRZQ+55Og+UkK+Ak1h4ZqENsOvYezkBO+xcGoJtnbBw==&quot;, &quot;signing_algo&quot;: &quot;Ed25519&quot;, &quot;generation_timestamp&quot;: 1777251458, &quot;identifier&quot;: &quot;f47fe88a-f873-499c-8844-36444b8f39ee&quot;}</recraft-signature></metadata></svg>