<svg xmlns="http://www.w3.org/2000/svg" width="1024" height="1024" preserveAspectRatio="none" style="display:block" viewBox="0 0 2048 2048"><path fill="#3b4651" d="M1053.04 563.144c8.88 8.971 35.7 39.653 36.21 50.842-1.73 3.129-1.94 3.343-4.16 5.921l3.1 1.16 3.56-2.673c4.51-.635 2.98-.27 6.86-4.428l1 .384.13 2.934.76 3.515c1.26-.65 2.5-1.312 3.74-1.987.22-4.565.42-8.778.85-13.344 8.59-6.62 29.79-21.286 39.19-25.899 5.49 10.725 20.1 32.201 16.42 44.272 1.73 1.128 1.57 1.088 3.59 1.649 1.76 7.994 1.01 11.001-1.36 18.877l1.96-.517c2-2.019 2.79-1.847 5.71-2.821 1.09-1.884 4.62-6.473 6.06-8.45 1.55 1.045 1.54.899 3.45 1.351.56-3.133.22-3.545 3.81-5.697 6.02-3.609 21.56-9.45 28.25-10.21 7.48 3.114 12.95 37.646 14.18 46.488-2.93 2.095-5.77 4.321-8.9 6.026l.88 1.93c4.48-1.999 5.75-2.589 10.51-3.54l2.8.949c4.01-11.274 29.16-24.582 40.04-28.558 2.35 6.976 8.46 22.431 7.39 28.895.87.812 1.58 1.35 2.51 2.079l-1.57 4.477c.62 1.987.7 2.33 1.48 4.128 2.7 7.74 1.44 13.627-.04 21.486l2.67-1.1c3.19-1.491 1.57-1.29 5.03-.604 1.74 1.724 2.29 2.178 3.8 4.085 1.4-2.548 1.29-2.485 1.7-5.411 11.13-3.418 35.16-8.245 47.09-8.698.67 11.924 1.81 26.132.53 37.863-10.53 7.344-21.66 12.072-33.28 17.425 10.17-1.345 21.49-6.078 31.32-9.461 1.18 2.422.02 6.596-.68 9.469.83.378 1.65.755 2.48 1.132 19.54-2.109 33.54-7.316 51.81-10.214.16 7.26.89 25.434-.46 31.732-.44 3.178-.85 6.391-1.47 9.535-.55 2.294-1.2 5.761-2.1 7.806l-.56 1.538c-1.54 3.197-3.34 7.234-5.08 10.249l2.14.975 1.58.781c1.59-.261 3.14-.562 4.72-.859 8.05-2.352 25.71-6.895 33.91-8.116 1.58 10.233 6.43 26.351-2.33 33.239l3.87.634 1.83.627c-.02 2.245.02 2.88-.39 5.064-.23 2.447-.14 2.721-1 4.886-2.54 18.676-5.81 20.076-16.42 34.865.27-.049.54-.093.81-.148 13.53-2.772 63.34-31.401 72.09-26.348 3.43 1.983 5.72 6.43 6.24 10.268.21 1.59.07 4.206-.98 5.453-3.74 4.44-15.19 8.871-20.46 11.819-19.78 11.056-39.91 21.311-59.8 32.14-15.9 8.661-31.51 17.856-47.58 26.208-24.51 12.737-49.46 24.665-73.86 37.591-8.37 4.433-67.32 37.982-71.86 38.722-4.95-2.46-2.46-4.86-4.91-3.52-6.23 3.42-4.47 4.12-12.23 7.32-10.37 2.53-8.46 2.67-7.05 11.86 1.61 5.04 2.55 12.01 3.61 17.3l2.93 14c.36 1.8.95 3.72 1.4 5.54.33 2.34.68 4.69 1.05 7.03 3.81 11.68 5.78 30.39 8.55 43.22 2.87 12.51 5.72 25.61 8.05 38.21.64 3.34 1.34 6.67 2.12 9.98.36 1.54.76 2.93 1.11 4.51 3.92 22.85 10.56 45.06 14.69 67.86 2.24 12.38 5.98 26.62 6.47 39.1 7.42 23.64 12.71 60.95 18.11 85.87l13.55 64.15c1.94 8.91 6.88 27.43 7.26 35.13-7.48.41-16.23 1.12-23.6.63-79.79 1.34-159.83-1.24-239.42-.62-1.16 13.2-.99 23.4-1.82 35.83-1.66 2.63-1.42 2.78-4.23 3.92-3.5-3.74-1.49-9-5.38-13.49-4.91.8-7.958 8.79-14.611 9.07l-1.092-1.83c-.65-6.53 9.003-26.98 12.153-33.71a4443 4443 0 0 1-174.312.48c-9.631-.11-59.46 1.93-62.939-2.99-1.608-10.58 11.678-52.45 14.597-66.65l12.654-63.39c2.012-9.95 4.993-26.64 8.098-36 .595-4.35 1.415-9.35 2.493-13.6.444-12.18 17.508-83.6 21.259-95.82.494-5.2 4.046-19.93 5.285-25.74 6.486-28.55 11.468-57.78 18.162-86.34 3.206-13.68 5.346-31.84 9.601-44.93-7.475-3.15-22.815-8.84-27.475-15.26-14.528-8.784-42.38-15.672-59.033-22.188-6.858-2.684-12.539-3.605-19.205-7.501l-.48-.394c-1.152-.525-4.706-1.622-5.082-2.98l.143-.172c4.68-1.632 9.995-1.296 16.999-4.273l-.193-1.001c-8.304-.734-21.516.597-31.06.546-18.597-10.923-41.681-21.424-58.703-32.251 8.952-.582 16.958-1.251 25.326-4.652-9.828.072-18.284 1.173-28.013 2.433l.509.392c-3.266-1.78-5.195-2.977-8.248-5.103-2.057-3.108-2.396-2.485-5.651-3.054l-1.737-.316c-.917-.115-3.629-.446-4.418-.845-8.364-4.232-52.083-31.527-54.818-36.9.006-.948.066-2.531-.066-3.492-9.456-3.465-23.967-34.962-27.433-44.774 10.015-3.112 17.931-5.791 27.806-9.573 4.634 5.874 7.455 8.875 12.777 14.176-3.2-5.681-6.072-9.458-6.636-15.806l1.022-1.219c8.655 2.729 15.846 16.762 20.165 24.381-2.475-9.117-5.395-17.089-8.57-25.953 5.705 4.97 12.962 12.612 18.402 18.058l3.136-2.769c-10.316-9.53-19.005-41.698-18.359-55.708.259-5.619 38.143.393 43.441 2.537 3.531 1.052 3.296 1.113 6.919.663-9.022-17.329-9.091-31.67-8.822-51.06 17.013.738 31.464 2.79 47.563 8.198l2.117-2.136c-.897-2.784-.9-3.69-1.233-6.56l.195-3.222c-5.972-5.045-.82-45.525 4.313-47.487 5.389-2.06 34 8.931 39.857 12.065a53 53 0 0 0 5.08 2.233l2.086 1.759 5.673-.909c-3.368-3.129-5.503-6.436-5.275-11.116.446-9.142 4.467-28.098 10.737-34.481 5.945-2.939 35.668 5.89 38.788 11.683q1.592.721 3.206 1.389c1.405 1.264 3.986 3.435 5.188 4.715l2.154.635-.788-5.645c-.761-5.233-.938-5.38.996-10.548l1.674-2.334c-2.001-14.304 5.098-33.94 10.373-47.27 10.515 2.423 26.239 10.538 35.827 15.697-2.388 10.353-3.675 14.22-2.813 24.877 3.003-6.541.539-18.821 7.531-21.338l4.867 2.483c2.92-2.452 3.981-3.076 5.989-6.404l1.105-5.076-.524-1.507c2.661-9.49 13.621-26.865 19.718-35.044 7.785 4.524 32.891 23.332 33.414 31.438.376 1.96.871 2.059 2.317 3.403 2.381 1.944 1.755.755 2.72 3.289l2.141 1.263c2.08-9.545 3.905-12.557 9.041-20.438 1.021-.522 1.691-.857 2.747-1.293 2.767-6.893 15.028-20.526 20.517-25.881 5.394 3.253 11.931 9.165 16.148 13.867 8.21 9.152 21.35 19.194 7.05 29.456l1.66 1.525c5.64-3.003 9.5-4.731 13.47-9.701.76-4.43 2.03-1.763 4.03.003 1.15-3.077 1.18-5.039 3.37-6.334 4.05 3.127 3.22 5.01 2.93 9.892 6.23 5.572 9.15 8.21 14.38 14.621-3.6-10.207-10.84-18.882-15.55-30.654 6.52-8.703 18.58-23.146 27.24-29.821"/><path fill="#3b4651" d="M1186.03 1014.28c1.02 2.99 2.03 6.39 3 9.43 2-.97 2.19-.85 3.54-2.52 1.61 5.04 2.55 12.01 3.61 17.3l2.93 14c.36 1.8.95 3.72 1.4 5.54.33 2.34.68 4.69 1.05 7.03 3.81 11.68 5.78 30.39 8.55 43.22 2.87 12.51 5.72 25.61 8.05 38.21.64 3.34 1.34 6.67 2.12 9.98.36 1.54.76 2.93 1.11 4.51 3.92 22.85 10.56 45.06 14.69 67.86 2.24 12.38 5.98 26.62 6.47 39.1 7.42 23.64 12.71 60.95 18.11 85.87l13.55 64.15c1.94 8.91 6.88 27.43 7.26 35.13-7.48.41-16.23 1.12-23.6.63-79.79 1.34-159.83-1.24-239.42-.62-1.16 13.2-.99 23.4-1.82 35.83-1.66 2.63-1.42 2.78-4.23 3.92-3.5-3.74-1.49-9-5.38-13.49-4.91.8-7.958 8.79-14.611 9.07l-1.092-1.83c-.65-6.53 9.003-26.98 12.153-33.71a4443 4443 0 0 1-174.312.48c-9.631-.11-59.46 1.93-62.939-2.99-1.608-10.58 11.678-52.45 14.597-66.65l12.654-63.39c2.012-9.95 4.993-26.64 8.098-36 .595-4.35 1.415-9.35 2.493-13.6.444-12.18 17.508-83.6 21.259-95.82.494-5.2 4.046-19.93 5.285-25.74 6.486-28.55 11.468-57.78 18.162-86.34 3.206-13.68 5.346-31.84 9.601-44.93l5.156 2.73c13.8 5.86 28.542 14.23 42.374 20.68 14.906 6.96 29.017 12.7 44.323 18.73 3.5-1.83 6.56-3.97 9.84-6.14 21.865 11.66 48.309 34.4 49.899 60.39 1.61 26.08-2.27 58.56-3.01 85.23-2.16 21.86-7.611 49.1 26.61 37.06 8.92-3.13 1.59-87.97 1.58-100.17-2.52-18.03 1.44-50.51 19.32-61.88 38.86-24.7 89.08-40.74 131.57-60.26"/><path fill="#ab2d2d" d="M1005.22 1446.03c3.44-5.17 3.22-10.41 1.09-16.04-1.11-2.94-4.36-9.47-7.544-10.41-14.718-4.36-31.324-2.53-37.875-19.79-1.669-4.56-4.082-10.32-5.348-14.92-1.636-5.93-8.252-15.21-5.237-21.2 5.272-10.5 9.147-15.23 6.98-27.79-3.386-19.62 4.223-23.08 19.818-31.94 5.756-3.26 14.423-9.74 20.2-13.15 2.419-1.43 11.386-2.09 14.796-2.08 7.75.01 18.17-2.18 25.42 1.08 6.15 2.77 11.1 8.22 17.07 11.33 9.42 4.33 25.58.98 30.52 13.2 3.77 9.36-5.2 22.34 3.72 28.96 4.43 3.29 10.04 5.45 14.76 8.3-.31 9.29.82 31.36-6.6 35.93-28.93 17.81-16.2 42.38-56.06 33.07-10.08 5.63-19.07 13.4-21.15 25.38l-1.33 7.14c-1.16 13.2-.99 23.4-1.82 35.83-1.66 2.63-1.42 2.78-4.23 3.92-3.5-3.74-1.49-9-5.38-13.49-4.91.8-7.958 8.79-14.611 9.07l-1.092-1.83c-.65-6.53 9.003-26.98 12.153-33.71z"/><path fill="#1f181c" d="M1018.99 1306.07c29.14-3.89 55.99 16.36 60.26 45.44s-15.63 56.2-44.65 60.85a53.72 53.72 0 0 1-50.48-19.53c-12.08-15.12-15.084-35.58-7.864-53.55a53.72 53.72 0 0 1 42.734-33.21"/><path fill="#ab2d2d" d="M1019.77 1308.79c27.91-3.45 53.35 16.33 56.89 44.23s-16.15 53.41-44.04 57.04c-28.02 3.65-53.674-16.15-57.231-44.19-3.558-28.03 16.335-53.62 44.381-57.08"/><path fill="#d98650" d="M1221.39 1160.98c3.92 22.85 10.56 45.06 14.69 67.86 2.24 12.38 5.98 26.62 6.47 39.1 7.42 23.64 12.71 60.95 18.11 85.87l13.55 64.15c1.94 8.91 6.88 27.43 7.26 35.13-7.48.41-16.23 1.12-23.6.63-79.79 1.34-159.83-1.24-239.42-.62l1.33-7.14c46.24.74 92.49 1.04 138.74.91l63.39-.2c6.24-.04 28.64-.56 33.67.23l20.49.14c-5.61-17-7.59-34.95-11.45-52.5-9.74-44.33-19.25-88.29-27.97-132.83-6.02-31.97-12.89-61.17-19.46-92.74.53-4.12.69-3.35 3.11-6.54zm-419.822 123.36c.36.47.721.94 1.082 1.4.768-.58.271-2.67.796-3.6-.407-.98-.51 14.71-.507 14.21-1.06 9.06-3.582 19.47-5.461 28.48-8.409 40.3-14.571 81.01-24.66 120.97 16.493 1.87 26.169-.03 42.176-.06l66.72.43 81.026.34c14.375.01 28.231 1.06 42.48-.48l-1.75 6.86a4443 4443 0 0 1-174.312.48c-9.631-.11-59.46 1.93-62.939-2.99-1.608-10.58 11.678-52.45 14.597-66.65l12.654-63.39c2.012-9.95 4.993-26.64 8.098-36m56.8-266.43 5.156 2.73c-8.827 32.14-13.803 65.58-21.39 98.08-1.452 6.22-6.034 30.58-7.838 34.18-.567 2.7-4.024 19.96-4.88 22.01-1.713 11.88-5.352 26.63-7.861 38.65-3.328 15.94-7.051 35.43-11.514 50.94-3.828 4.45-3.294 4.15-4.253 10.13l-.644.81c.071.21.143.43.215.64-.353-.33-1.125-4.62-1.298-5.34.444-12.18 17.508-83.6 21.259-95.82.494-5.2 4.046-19.93 5.285-25.74 6.486-28.55 11.468-57.78 18.162-86.34 3.206-13.68 5.346-31.84 9.601-44.93m334.202 3.28c1.61 5.04 2.55 12.01 3.61 17.3l2.93 14c.36 1.8.95 3.72 1.4 5.54.33 2.34.68 4.69 1.05 7.03 3.81 11.68 5.78 30.39 8.55 43.22l-5.38-2.6c-3.43-13.16-5.52-29.93-8.63-43.9-.24-1.27-.5-2.53-.78-3.79-1.78-11.15-4.81-23.31-6.29-34.28 2-.97 2.19-.85 3.54-2.52"/><path fill="#c97f4c" d="m1204.73 1105.68 5.38 2.6c2.87 12.51 5.72 25.61 8.05 38.21.64 3.34 1.34 6.67 2.12 9.98.36 1.54.76 2.93 1.11 4.51l-1.09 1.45c-2.42 3.19-2.58 2.42-3.11 6.54-1.35-9.06-3.31-18.94-5.04-27.98l-.98-5c-1.82-10.16-4.81-20.03-6.44-30.31m-400.669 165.06c.173.72.945 5.01 1.298 5.34-.072-.21-.144-.43-.215-.64l.644-.81c.959-5.98.425-5.68 4.253-10.13l-3.218 14.99-1.093 4.99c-.914 4.29-1.564 7.56-2.791 11.87-.003.5.1-15.19.507-14.21-.525.93-.028 3.02-.796 3.6-.361-.46-.722-.93-1.082-1.4.595-4.35 1.415-9.35 2.493-13.6m248.979-707.596c8.88 8.971 35.7 39.653 36.21 50.842-1.73 3.129-1.94 3.343-4.16 5.921l3.1 1.16 3.56-2.673c4.51-.635 2.98-.27 6.86-4.428l1 .384.13 2.934.76 3.515c1.26-.65 2.5-1.312 3.74-1.987.22-4.565.42-8.778.85-13.344 8.59-6.62 29.79-21.286 39.19-25.899 5.49 10.725 20.1 32.201 16.42 44.272 1.73 1.128 1.57 1.088 3.59 1.649 1.76 7.994 1.01 11.001-1.36 18.877l1.96-.517c2-2.019 2.79-1.847 5.71-2.821 1.09-1.884 4.62-6.473 6.06-8.45 1.55 1.045 1.54.899 3.45 1.351.56-3.133.22-3.545 3.81-5.697 6.02-3.609 21.56-9.45 28.25-10.21 7.48 3.114 12.95 37.646 14.18 46.488-2.93 2.095-5.77 4.321-8.9 6.026l.88 1.93c4.48-1.999 5.75-2.589 10.51-3.54l2.8.949c-2.86 14.401-19.2 61.853-30.55 69.563-2.7 1.839-6.73 3.839-8.66 6.528-5.44 7.576-9.3 23.909-13.03 33.183-7.05 17.492-40 87.058-50.24 98.066-13.11 14.085-5.47 15.554-10.46 25.146-.72 1.302-.86 1.543-1.38 2.882l-.22-1.045-.33-1.721c-.83-4.095-1.29-5.043-.4-9.141l-.62-.554c-24.58 6.145-53.68 117.847-64.76 124.007-.95-8.71 39.37-100.084 46.28-113.787-3.98-6.493-7.21-10.818-11.86-16.904-3.84 15.589-35.8 118.281-41.35 125.971-1.1-10.78 28.34-96.204 33.51-112.436 2.47-7.773 5.32-19.846 7.36-28.449-5.11 3.554-11.11 8.593-16.08 12.55-8.25 37.382-20.31 74.79-27 112.746-.74 4.219-1.72 9.879-4.3 13.239-3.42-7.84 23.64-112.166 27.74-126.523-3.29-9.741-7.12-18.698-11.39-28.03-5.42 15.845-6.85 37.019-8.98 54.074l-8.57 65.887c-1.25 9.558-2.16 25.282-5.64 33.712-3.01-6.48 14.45-133.408 17.01-146.268-7.67 5.011-9.22 5.032-18.3 5.087-.62 15.917-4.15 135.761-6.52 138.791-2.07-12.23-.12-37.375-.02-50.581.22-30.495 1.98-61.519 2.25-91.925-2.36-2.856-5.12-7.173-7.27-10.322l-6.36 13.061-3.53.93c-7.07-2.67-11.716-4.986-18.495-8.432 6.44 30.588 9.522 67.101 13.785 98.395 1.47 10.767 5.2 40.252 4.3 50.134l-.76-.34c-3.83-13.671-4.9-30.147-6.89-44.175-4.576-32.264-7.291-81.05-16.5-111.088-.992 2.276-8.538 18.066-8.439 18.766 4.168 29.408 11.104 59.901 16.796 88.984 3.604 18.412 10.023 34.742 10.793 53.273-14.557-40.955-24.34-99.836-32.27-143.84-7.396-5.297-10.785-7.025-19.324-10.66 1.963 35.646 16.82 63.19 27.357 96.759 1.78 5.668 3.522 11.45 5.397 17.091 1.932 7.078 15.104 35.83 14.15 40.55-8.395-7.41-43.53-115.415-48.404-132.952a530 530 0 0 0-22.79-8.172c6.174 16.955 15.521 32.911 23.19 49.309 9.21 19.696 17.669 39.621 26.657 59.421 4.89 10.773 14.555 31.034 17.679 42.464-11.419-15.82-28.008-55.071-36.925-74.681-8.055-17.715-18.674-40.528-26.351-58.456-4.223 5.075-7.829 6.845-13.394 10.311 17.689 26.041 34.62 59.685 50.604 87.225 4.087 7.042 16.531 28.551 18.582 35.251-4.255-.6-19.52-28.781-22.799-34.461l-33.871-59.579c-3.829-6.735-18.662-39.161-28.831-30.58-1.659 6.183 1.001 13.91 4.526 18.976 19.134 27.5 38.323 55.046 57.322 82.654 4.133 6.01 17.411 22.59 19.219 27.71-1.313.67-1.455.99-2.684 2.18.432 1.95.515.94-.588 2.99-6.697-.69-65.349-71.94-78.335-80.906-3.936-2.718-13.24-14.75-19.156-18.797-1.423 2.199-2.072 3.257-3.833 5.212l-1.232 1.35c-.826-.433-1.849-1.021-2.732-1.328-3.995.538-3.596 1.799-7.143.188l-2.552-.24c-17.672.186-30.837-10.45-43.784-21.24l.013-1.169c-.523-1.738-.741-1.687-.227-3.206-1.713-2.786 5.615-1.764 7.982-2.083l2.018-.293 2.96-.558c-2.491-2.361-19.133-1.768-23.718-1.796-6.622-4.367-40.66-31.897-43.563-37.242l-.573-2.784-2.404-1.524c2.089-3.516 14.055 3.708 19.074 2.232-4.737-5.998-24.124-9.242-31.989-9.602-27.509-20.778-55.236-40.908-76.453-68.51 2.866.115 5.594.423 8.446.698 2.671-2.381.951-.79 6.342-.694-5.335-1.518-14.334-2.797-18.32-5.436-9.022-17.329-9.091-31.67-8.822-51.06 17.013.738 31.464 2.79 47.563 8.198l2.117-2.136c-.897-2.784-.9-3.69-1.233-6.56l.195-3.222c-5.972-5.045-.82-45.525 4.313-47.487 5.389-2.06 34 8.931 39.857 12.065a53 53 0 0 0 5.08 2.233l2.086 1.759 5.673-.909c-3.368-3.129-5.503-6.436-5.275-11.116.446-9.142 4.467-28.098 10.737-34.481 5.945-2.939 35.668 5.89 38.788 11.683q1.592.721 3.206 1.389c1.405 1.264 3.986 3.435 5.188 4.715l2.154.635-.788-5.645c-.761-5.233-.938-5.38.996-10.548l1.674-2.334c-2.001-14.304 5.098-33.94 10.373-47.27 10.515 2.423 26.239 10.538 35.827 15.697-2.388 10.353-3.675 14.22-2.813 24.877 3.003-6.541.539-18.821 7.531-21.338l4.867 2.483c2.92-2.452 3.981-3.076 5.989-6.404l1.105-5.076-.524-1.507c2.661-9.49 13.621-26.865 19.718-35.044 7.785 4.524 32.891 23.332 33.414 31.438.376 1.96.871 2.059 2.317 3.403 2.381 1.944 1.755.755 2.72 3.289l2.141 1.263c2.08-9.545 3.905-12.557 9.041-20.438 1.021-.522 1.691-.857 2.747-1.293 2.767-6.893 15.028-20.526 20.517-25.881 5.394 3.253 11.931 9.165 16.148 13.867 8.21 9.152 21.35 19.194 7.05 29.456l1.66 1.525c5.64-3.003 9.5-4.731 13.47-9.701.76-4.43 2.03-1.763 4.03.003 1.15-3.077 1.18-5.039 3.37-6.334 4.05 3.127 3.22 5.01 2.93 9.892 6.23 5.572 9.15 8.21 14.38 14.621-3.6-10.207-10.84-18.882-15.55-30.654 6.52-8.703 18.58-23.146 27.24-29.821"/><path fill="#3b4651" d="M1053.04 563.144c8.88 8.971 35.7 39.653 36.21 50.842-1.73 3.129-1.94 3.343-4.16 5.921l3.1 1.16 3.56-2.673c4.51-.635 2.98-.27 6.86-4.428l1 .384.13 2.934c-8.44 4.557-21.55 95.959-24.22 111.236 2.91 4.126 7.04 9.285 7.11 14.334-3.54-.837-6.29-7.228-7.84-10.321-1.9 17.217-4.98 47.322-7.98 63.815l2.3 3.2c.73 1.035 1.31 2.029 1.97 3.121-1.59.703-2.3.976-3.94 1.518-1.71 5.905-3.09 14.152-4.17 20.31l-3.13 16.994c-.86 3.972-1.35 6.113-2.68 9.929l-1.63-2.568c-4.77 7-9.4 9.788-16.28 14.4.54-26.381 2.47-49.096 3.96-75.264 1.41-24.806 1.15-50.964 3.26-75.869 3.43-40.454 7.77-78.139 6.75-118.835-.99 8.793-.47 16.978-.86 25.693-1.95 43.754-7.43 87.521-9.67 131.207-1.91 37.505-1.4 77.955-6.9 115.128-7.82-4.403-10.74-7.759-16.93-14.12.36-9.765 1.65-21.476 2.48-31.351 1.85 3.016 3.96 7.387 6.99 8.384.2-4.585-4.05-8.621-6.93-11.712-.67-23.483-2.19-46.956-3.72-70.399-.82-12.651-2.92-25.013-3.97-37.673 2.81 5.381 12.7 21.139 18.75 21.129l-.02-1.414c-20.61-17.165-18.71-32.527-18.27-56.969.33-18.696 2.38-36.812 4.26-55.378a25 25 0 0 0-2.63-.47c.17-3.475.6-6.517.84-9.902.76-4.43 2.03-1.763 4.03.003 1.15-3.077 1.18-5.039 3.37-6.334 4.05 3.127 3.22 5.01 2.93 9.892 6.23 5.572 9.15 8.21 14.38 14.621-3.6-10.207-10.84-18.882-15.55-30.654 6.52-8.703 18.58-23.146 27.24-29.821"/><path fill="#c97f4c" d="M1091.75 618.394c4.51-.635 2.98-.27 6.86-4.428l1 .384.13 2.934c-8.44 4.557-21.55 95.959-24.22 111.236 2.91 4.126 7.04 9.285 7.11 14.334-3.54-.837-6.29-7.228-7.84-10.321-1.9 17.217-4.98 47.322-7.98 63.815-.97-.142-2.01-.347-2.98-.522 1.92-6.917 3.33-27.162 4.05-35.133a464 464 0 0 1-17.05 16.411c6.5-11.685 8.9-15.707 18.51-24.843 4.12-17.931 9.38-60.196 11.23-79.027-8.73 10.953-16.28 17.789-27.24 26.359 3.99-11.589 19.75-23.356 29.17-32.711 1.87-5.945 10.06-45.852 9.25-48.488"/><path fill="#d98650" d="M1063.83 795.826c.97.175 2.01.38 2.98.522l2.3 3.2c.73 1.035 1.31 2.029 1.97 3.121-1.59.703-2.3.976-3.94 1.518-1.71 5.905-3.09 14.152-4.17 20.31l-3.13 16.994c-.86 3.972-1.35 6.113-2.68 9.929l-1.63-2.568c-.1-4.329 2.63-14.906 3.36-19.882l1.58-11.546-3.18-4.188-.66.647c.22-.218-4.92 5.189-4.96 2.138-.04-2.258 4.18-8.068 5.53-9.945 2.27-3.169 4.16-7.26 6.63-10.25"/><path fill="#47515a" d="M1057.29 813.236c4.74-7.617 3.69.33 3.18 4.188z"/><path fill="#fbfbfa" d="M1016.64 605.437c.76-4.43 2.03-1.763 4.03.003 1.34 12.949 7.83 17.123 13.3 31.041-5.47-7.69-9.73-13.275-15.54-20.672a25 25 0 0 0-2.63-.47c.17-3.475.6-6.517.84-9.902"/><path fill="#ddddde" d="m1085.09 619.907 3.1 1.16c-5.43 6.341-10.4 12.075-16.16 18.134 2.17-3.86 9.83-16.647 13.06-19.294"/><path fill="#3b4651" d="M1105.09 605.468c8.59-6.62 29.79-21.286 39.19-25.899 5.49 10.725 20.1 32.201 16.42 44.272 1.73 1.128 1.57 1.088 3.59 1.649 1.76 7.994 1.01 11.001-1.36 18.877l1.96-.517c1.84 6.831-15.38 52.131-18.9 60.723-9.38 6.238-23.97 18.398-31.28 27.109 14.13-6.527 18.25-9.524 28.82-20.719-7.27 20.242-13.92 47.018-19.93 68.215-4.24 3.416-25.71 20.347-28.1 23.175l1.45-1.252.71.135c6.84-4.477 20.63-14.975 26.55-17.75-4.39 6.816-12.82 12.401-15.33 16.853 4.55-2.158 6.26-3.226 10.42-6.088-6.03 15.053-8.17 30.102-13.29 42.548l-12.92 4.297c-2.05 2.655-3.39 3.785-4.44 6.855 4.79.908 1.6-3.381 5.22-.027-.29 5.323-3.68 12.876-6.13 17.591l-13.92 9.201-3.67 1.702-.7 1.001c-3.7-2.028-12.55-21.212-12.29-25.999 1.33-3.816 1.82-5.957 2.68-9.929l3.13-16.994c1.08-6.158 2.46-14.405 4.17-20.31 1.64-.542 2.35-.815 3.94-1.518-.66-1.092-1.24-2.086-1.97-3.121l-2.3-3.2c3-16.493 6.08-46.598 7.98-63.815 1.55 3.093 4.3 9.484 7.84 10.321-.07-5.049-4.2-10.208-7.11-14.334 2.67-15.277 15.78-106.679 24.22-111.236l.76 3.515c1.26-.65 2.5-1.312 3.74-1.987.22-4.565.42-8.778.85-13.344"/><path fill="#806250" d="M1070.15 876.418c1.8-4.084 4.82-20.139 5.93-25.267l9.38-42.129c13.58-63.782 24.4-127.93 45.88-189.731 2.05-5.889.44-6.774 5.22-12.009l.65.613c.02-.05-1.2 2.52-1.18 2.448-18.66 54.499-31.09 110.336-41.36 167.113-5.75 31.756-16.57 63.955-20.69 95.961l-.16 1.299z"/><path fill="#fbfbfa" d="M1160.7 623.841c1.73 1.128 1.57 1.088 3.59 1.649-9.1 14.318-19.84 25.092-31.91 37.15 6.67-10.762 12.99-17.743 20.75-27.54 2.84-3.585 5.09-8.213 7.57-11.259"/><path fill="#ebd9c4" d="M1104.24 618.812c.63 3.022 2.63 24.985 2.84 28.665-2.97-9.488-4.94-16.846-6.58-26.678 1.26-.65 2.5-1.312 3.74-1.987"/><path fill="#c97f4c" d="M1071.08 802.669c1.66 7.081 3.54 11.004 5.1 19.091-2.44-4.528-7.03-14.28-9.04-17.573 1.64-.542 2.35-.815 3.94-1.518"/><path fill="#3b4651" d="M709.653 730.132c-5.972-5.045-.82-45.525 4.313-47.487 5.389-2.06 34 8.931 39.857 12.065a53 53 0 0 0 5.08 2.233l2.086 1.759c.58.521.218.229 1.13.818 10.549 17.885 22.794 35.379 33.954 52.722 3.003 4.667-.583 29.551 4.49 35.521 1.519-3.189.639-7.722.599-11.686 2.811-5.829 1.496-4.868 2.483-11.368.308 9.809.385 15.132 2.251 24.637l.527.259c.692-9.368.649-14.464-.085-23.903 15.359 22.074 28.159 41.218 41.898 64.256 12.091 20.273 33.254 46.429 49.752 62.835-.091 6.356 1.969 21.166.907 23.669l-5.032-.595c-32.284-4.208-37.145-17.869-60.114-37.923 7.749 1.094 15.572 2.344 23.38 2.713-7.148-2.228-13.229-4.42-20.239-7.076 2.649-.566 3.735-.801 6.475-1.035 1.436.37 3.127.672 4.601.976l.286-1.061c-6.26-4.245-22.686-7.431-30.661-9.094-11.887-12.8-23.457-26.56-35.683-39.733 5.889.478 11.609.335 17.513.306 1.565.272 5.38 1.027 6.571.039.232-1.107-.596-1.811-1.507-2.27-.925.039-1.591.78-2.502.789-.659-.364-.825-2.033-.983-2.655l-.54-1.645c-10.943-5.446-31.252-4.029-39.892-13.793-14.374-16.247-28.622-33.005-41.941-50.139-3.227-4.151-5.062-9.788-7.936-14.352-.897-2.784-.9-3.69-1.233-6.56z"/><path fill="#806250" d="M893.863 915.867c-1.023-6.055-33.332-38.128-39.191-44.988-18.465-21.615-126.285-148.893-127.604-167.873 5.535 7.213 9.694 15.616 14.453 21.835 8.747 11.429 16.373 23.047 24.879 34.421a1791 1791 0 0 0 110.632 132.101c4.377 4.68 18.88 22.898 21.863 25.099z"/><path fill="#d98650" d="M753.823 694.71a53 53 0 0 0 5.08 2.233c-3.637 11.759-4.498 18.211-6.067 30.541-.699-8.425-.508-24.519.987-32.774"/><path fill="#ddddde" d="M709.653 730.132c5.484 1.81 12.013 5.647 17.699 7.933l-1.887 1.281c-2.786-1.322-13.337-5.333-16.007-5.992z"/><path fill="#837973" d="M727.352 738.065c1.788.527 10.265 2.997 11.115 4.313-1.019 1.213-11.32-2.437-13.002-3.032z"/><path fill="#3b4651" d="M905.415 578.509c7.785 4.524 32.891 23.332 33.414 31.438.376 1.96.871 2.059 2.317 3.403 2.381 1.944 1.755.755 2.72 3.289-.184 16.361 6.687 36.579 5.711 53.027-.321 5.409-8.579 19.167-5.662 24.951l1.7.028c4.281-5.472 4.934-10.033 6.387-16.871 3.771 4.249 10.293 49.43 10.144 57.787-.05 2.793-3.1 15.918-4.181 19.081-.635 2.719-.921 4.659-1.856 7.324l-.47 3.468 1.131.926c3.67-3.747 6.881-18.489 8.243-23.881 3.439 15.259 7.62 35.426 8.328 50.931-5.62 8.087-5.059 12.726-5.936 22.609 2.522-5.398 4.88-10.383 7.051-15.941 1.195 12.998 13.053 60.531-2.511 66.128l-2.36-1.21a683 683 0 0 0-19.091-9.292c-1.86-7.415-7.532-33.242-10.556-38.123q.787-1.776 1.546-3.562c5.476 4.398 12.78 10.516 19.206 12.904-8.037-8.454-18.702-15.323-25.703-24.509-7.526-9.876-30.269-77.711-33.094-91.654 5.803 6.458 13.332 12.35 20.053 17.95l.694-.705c-3.699-5.246-14.455-11.894-18.219-18.799-12.017-22.045-23.77-64.398-18.727-88.503l-.578-.567 1.105-5.076-.524-1.507c2.661-9.49 13.621-26.865 19.718-35.044"/><path fill="#806250" d="m969.585 864.996.044-.975c-11.155-56.562-31.979-113.026-40.161-170.373-3.268-22.902-18.634-71.956-17.141-92.093 4.464 28.089 12.121 55.441 17.435 83.126 9.498 49.478 20.271 97.777 34.742 146.099 2.162 7.222 5.54 31.051 7.441 35.426z"/><path fill="#c6a595" d="M886.221 615.06c-.528-.687 17.678 25.77 16.834 22.298-4.359 1.354-14.403-13.911-17.361-16.655l-.578-.567z"/><path fill="#b6b5b7" d="M941.146 613.35c-2.131 4.853-3.076 8.142-7.681 11.168-.242-.565.398-1.45.772-1.822 3.368-3.346 3.053-8.485 4.592-12.749.376 1.96.871 2.059 2.317 3.403"/><path fill="#47515a" d="M956.109 761.966c-4.228-4.357-7.174-4.618 1.856-7.324-.635 2.719-.921 4.659-1.856 7.324"/><path fill="#3b4651" d="M1180.11 633.93c.56-3.133.22-3.545 3.81-5.697 6.02-3.609 21.56-9.45 28.25-10.21 7.48 3.114 12.95 37.646 14.18 46.488-2.93 2.095-5.77 4.321-8.9 6.026l.88 1.93c4.48-1.999 5.75-2.589 10.51-3.54-3.39 14.964-17.83 52.767-25.88 65.856-10.46 6.435-26.19 11.653-38.31 17.99 3.92-.514 4.5-.716 8.25-2.091l.4 2.64c-2.51 1.677-2.6 1.867-4.66 4.118l.22 1.043c6.42-2.515 13.21-6.758 19.26-10.278-3.96 12.11-19.29 52.114-27.98 60.221-7.07 6.591-13.31 8.996-23.67 21.255 7.96-4.199 15.61-9.695 22.79-15.075-8.84 14.95-14.68 31.417-24.32 45.669-2.81 4.149-20.01 7.341-17.59 15.011.72.14 11.69-7.638 14.58-9.245l1.21-.662c-7.87 14.721-15.3 21.596-28.99 30.376 1.81-18.433 10.55-37.339 17.13-54.665 6.4-17.203 12.93-34.356 19.6-51.457l40.54-104.559c2.53-6.364 18.35-44.933 18.83-49.363-.47.43-7.77 16.63-8.49 18.496l-24.03 60.496c-13.77 34.116-26.46 70.942-40.02 105.249-11.89 30.089-20.47 49.531-27.5 81.477-4.52-7.712-7.93-13.712-14.43-19.914 3.1-9.579 8.64-23.308 13.26-32.34 1.55-3.017 8.89-5.863 10.15-10.065 2.86-9.515 5.27-19.558 8.03-29.041l21.11-72.164c5.9-20.506 12.82-38.494 20.02-58.512 4.45-12.353 8.11-25.751 12.25-38.364 1.09-1.884 4.62-6.473 6.06-8.45 1.55 1.045 1.54.899 3.45 1.351"/><path fill="#b6b5b7" d="m1217.45 670.537.88 1.93c-4.59 2.27-11.06 5.314-16.05 6.253-.51.096-.47-.29-.48-.521l.81-.686-.02-.003c1.53-.905 12.87-6.137 14.86-6.973"/><path fill="#ddddde" d="M1176.66 632.579c1.55 1.045 1.54.899 3.45 1.351 2.03 1.865 8.21 10.827 10.11 13.458-7.29-7.016-7.57-6.878-13.56-14.809"/><path fill="#3b4651" d="M833.715 604.821c10.515 2.423 26.239 10.538 35.827 15.697-2.388 10.353-3.675 14.22-2.813 24.877 3.003-6.541.539-18.821 7.531-21.338l4.867 2.483c2.995 3.545 3.319 24.151 4.805 31.316 3.269 15.761 8.262 29.553 12.561 44.826-3.038 5.448-5.012 13.507-5.452 19.688l.62.169.542-.803-.759-.689 1.972-1.739-.129.489 3.772-10.738c8.346 22.794 15.981 45.887 24.281 68.716 12.219 33.607 25.101 62.976 27.875 99.059-10.198-3.273-17.486-6.655-27.052-10.119-7.589-11.362-13.006-20.881-19.679-32.855l-2.45 1.098c-3.442-5.055-8.442-6.7-4.738-9.794 1.281-.389 1.255-.486 2.538-1.306-7.674-18.228-16.218-36.641-24.77-54.499-2.114-4.413-12.319-20.011-12.548-22.916 6.606 1.151 7.571 8.924 17.466 9.476l1.023-.954c-1.86-2.627-6.26-3.196-10.555-6.243 2.595.855 4.737 1.958 7.279 1.322l-.502-2.091c-4.233-5.061-13.676-4.927-20.867-7.215l-.884-.29c-14.736-16.233-24.304-48.619-32.016-69.83l-.788-5.645c-.761-5.233-.938-5.38.996-10.548l1.674-2.334c-2.001-14.304 5.098-33.94 10.373-47.27"/><path fill="#c97f4c" d="M897.834 823.858c2.307 1.878 16.675 8.002 21.112 10.526l3.238 1.81c-2.999-.548-19.675-5.498-19.7-2.334l-2.45 1.098c-3.442-5.055-8.442-6.7-4.738-9.794 1.281-.389 1.255-.486 2.538-1.306"/><path fill="#ddddde" d="M823.342 652.091a230 230 0 0 0 11.615 8.87c2.778 1.983 6.723 4.125 8.52 6.886.783 1.203-1.584.401-1.49.439l.654-.231-1.046-.002c-6.812-4.61-13.963-8.051-19.927-13.628z"/><path fill="#806250" d="M844.183 622.861s27.968 75.652 28.954 79.623c7.214 29.052 69.456 151.686 69.207 168.434l-.403.037c-3.005-5.112-5.658-14.201-8.182-19.942-21.004-47.794-42.134-95.354-60.949-144.074-10.927-28.294-21.43-54.585-28.627-84.078"/><path fill="#3b4651" d="M766.662 697.793c-3.368-3.129-5.503-6.436-5.275-11.116.446-9.142 4.467-28.098 10.737-34.481 5.945-2.939 35.668 5.89 38.788 11.683q1.592.721 3.206 1.389c1.405 1.264 3.986 3.435 5.188 4.715l2.154.635c7.712 21.211 17.28 53.597 32.016 69.83l.884.29c7.191 2.288 16.634 2.154 20.867 7.215l.502 2.091c-2.542.636-4.684-.467-7.279-1.322 4.295 3.047 8.695 3.616 10.555 6.243l-1.023.954c-9.895-.552-10.86-8.325-17.466-9.476.229 2.905 10.434 18.503 12.548 22.916 8.552 17.858 17.096 36.271 24.77 54.499-1.283.82-1.257.917-2.538 1.306-3.704 3.094 1.296 4.739 4.738 9.794 6.178 10.5 29.514 43.562 26.958 55.118-.294 1.33-2.974 3.442-4.207 4.419l-4.032.354c-12.722 12.986-53.935-42.457-59.075-54.27-.44-1.286-.941-2.961-1.525-4.157-5.65-1.406-21.808-31.289-25.843-38.442 6.102 1.234 14.118 2.582 20.246 2.545l-.179-1.036-4.454-1.788c.143-1.796.324-2.045-.086-3.529-2.443-3.899-18.669-7.83-24.636-9.91-8.654-10.196-52.708-74.332-55.928-83.579-2.091-1.9-2.386-1.496-5.154-1.163-.912-.589-.55-.297-1.13-.818z"/><path fill="#c97f4c" d="M821.46 670.618c7.712 21.211 17.28 53.597 32.016 69.83l.884.29c7.191 2.288 16.634 2.154 20.867 7.215l.502 2.091c-2.542.636-4.684-.467-7.279-1.322 4.295 3.047 8.695 3.616 10.555 6.243l-1.023.954c-9.895-.552-10.86-8.325-17.466-9.476.229 2.905 10.434 18.503 12.548 22.916 8.552 17.858 17.096 36.271 24.77 54.499-1.283.82-1.257.917-2.538 1.306-3.861-7.087-8.408-20.136-12.14-28.521-.903 4.627-.885 5.384-.247 10.097l.166 1.14-2.19 1.967c-2.249-3.692 1.151-15.266-4.011-25.976-5.854-12.147-12.273-25.345-20.92-36.131-6.061-7.559-8.707-9.717-13.93-18.125-.274 4.97 1.474 18.557.81 19.617-6.162-8.246-1.487-14.481-4.355-24.282-5.315-18.161-14.518-36.754-19.173-54.967z"/><path fill="#806250" d="M918.753 894.849c-5.637-14.267-16.618-27.38-23.982-40.693-25.376-45.87-56.417-88.219-82.864-133.475-9.213-15.766-24.693-35.61-29.427-53.255l.776-1.05c3.142 14.26 79.301 129.422 91.622 149.612 8.713 14.278 21.415 36.261 30.601 51.462 4.539 7.512 11.089 19.341 16.593 26.217l.713.828z"/><path fill="#c97f4c" d="M858.153 836.422c1.306.332 28.14 6.326 21.906 11.129-2.316 1.785-14.559-5.843-20.381-6.972-.44-1.286-.941-2.961-1.525-4.157"/><path fill="#d98650" d="M813.862 693.81c-.602-5.507-3.68-26.12-2.95-29.931q1.592.721 3.206 1.389c-1.884 6.592 2.71 18.106-.256 28.542"/><path fill="#b6b5b7" d="M766.662 697.793c3.219 1.265 20.602 7.519 21.41 8.382l.049.199c-1.231 1.24-18.529-4.67-20.848-5.691-2.091-1.9-2.386-1.496-5.154-1.163-.912-.589-.55-.297-1.13-.818z"/><path fill="#3b4651" d="M978.312 570.29c5.394 3.253 11.931 9.165 16.148 13.867 8.21 9.152 21.35 19.194 7.05 29.456l1.66 1.525c5.64-3.003 9.5-4.731 13.47-9.701-.24 3.385-.67 6.427-.84 9.902-1.63 12.985-2.34 28.424-4.74 40.841-1.14 5.919-13.331 20.562-12.69 28.308l1.409.758c5.691-4.734 8.861-15.418 11.851-22.494-1.15 22.09-.09 45.833 1.47 67.929-3.8 5.054-13.22 16.672-13.332 22.541 3.962-1.316 8.522-5.758 10.442-9.543 1.15-2.319 2.23-4.668 3.26-7.045 1.92 12.581 3.54 46.296 3.54 59.683-3.73 5.422-5.98 9.211-7.04 15.737 3.08-.508 6.45-9.3 7.83-12.326.48 15.848 2.53 55.793-12.23 65.257-7.489-.7-6.005-17.11-6.394-23.447a630 630 0 0 0-2.604-29.837c-5.111-48.084-10.357-94.787-13.267-143.196-.729-12.14-2.354-72.073-4.428-77.972-.43 55.543 5.609 115.706 10.293 171.054 2.726 32.216 9.458 66.91 8.951 99.136-10.825-7.265-12.586-7.528-14.818-21.325-1.709-10.561-5.954-33.281-5.105-43.044l.834-.757 5.96.662.741-1.054c-2.499-2.693-5.607-3.93-8.907-5.602-3.926-24.437-7.423-46.894-12.775-71.112-3.652-16.527-3.622-32.913-9.718-49.308 5.513 6.845 12.715 16.518 19.199 22.038-5.885-9.721-12.687-19.679-20.594-27.869-2.851-14.764-5.784-30.458-6.931-45.45 2.08-9.545 3.905-12.557 9.041-20.438 1.021-.522 1.691-.857 2.747-1.293 2.767-6.893 15.028-20.526 20.517-25.881"/><path fill="#c6a595" d="M957.795 596.171c2.495 2.348 6.547 8.821 8.592 11.914-4.368-3.806-7.332-6.404-11.339-10.621 1.021-.522 1.691-.857 2.747-1.293"/><path fill="#b6b5b7" d="m1001.51 613.613 1.66 1.525c-.97.679-5.027 3.815-6.379 3.302-.612-1.565 3.699-4.11 4.719-4.827"/><path fill="#3b4651" d="M661.011 733.852c17.013.738 31.464 2.79 47.563 8.198-.583 5.358-1.11 13.41-.596 18.765l1.656-.236-.191 1.164-1.252.653.824.951c.329-.674.204-.337.388-1.007l-1.143-.167 1.422-1.273c.484-5.334.625-9.802.745-15.112 9.241 16.923 19.586 26.433 30.623 41.655 4.136 5.704 3.647 19.01 7.107 23.496l2.44-.279c2.265 6.499 3.766 11.107 7.06 17.233-1.799-15.686-2.221-20.288-10.3-34.144 5.26 5.683 11.524 13.06 17.246 18.108 30.155 26.611 53.071 58.758 84.403 84.585 9.057 7.465 39.278 27.942 25.158 40.808l-.44.921c-3.995.538-3.596 1.799-7.143.188l-2.552-.24c-17.672.186-30.837-10.45-43.784-21.24l.013-1.169c-.523-1.738-.741-1.687-.227-3.206-1.713-2.786 5.615-1.764 7.982-2.083l2.018-.293 2.96-.558c-2.491-2.361-19.133-1.768-23.718-1.796-6.622-4.367-40.66-31.897-43.563-37.242l-.573-2.784-2.404-1.524c2.089-3.516 14.055 3.708 19.074 2.232-4.737-5.998-24.124-9.242-31.989-9.602-27.509-20.778-55.236-40.908-76.453-68.51 2.866.115 5.594.423 8.446.698 2.671-2.381.951-.79 6.342-.694-5.335-1.518-14.334-2.797-18.32-5.436-9.022-17.329-9.091-31.67-8.822-51.06"/><path fill="#806250" d="M678.064 751.271c10.911 8.822 21.434 23.396 31.293 34.087 15.787 17.613 33.627 33.415 50.149 50.211 19.823 20.151 42.054 36.288 62.364 55.679 16.8 16.041 35.779 29.96 52.294 46.002l-.44.921c-3.995.538-3.596 1.799-7.143.188 2.021.112 1.374.09 3.407-.502-.351-3.518-27.217-25.028-31.32-28.756-49.512-44.998-121.746-103.202-160.604-157.83"/><path fill="#c97f4c" d="M820.258 915.71c-.523-1.738-.741-1.687-.227-3.206 10.525 3.531 11.686 7.248.975 3.462z"/><path fill="#837973" d="M765.137 867.748c1.268.096 8.833.418 9.455 1.055.084.768-8.099 1.604-8.882 1.729z"/><path fill="#3b4651" d="M878.205 916.441c7.616 1.005 15.971 2.234 23.604 1.989 10.415 15.556 21.853 30.448 32.027 46.256 13.11 20.371 27.757 40.124 42.933 59.004l-3 1.12c-14.864-16.54-27.852-32.783-43.776-48.769-15.666-15.727-33.198-31.358-47.533-48.187-2.122-2.491-3.404-8.108-4.255-11.413"/><path fill="#47515a" d="M799.421 823.94c-2.801-1.822-3.851-2.33-7.422-2.818-1.619-.221-17.327-2.415-16.63-4.616.453-.175 23.997 2.727 25.631 3.337.158.622.324 2.291.983 2.655.911-.009 1.577-.75 2.502-.789.911.459 1.739 1.163 1.507 2.27-1.191.988-5.006.233-6.571-.039"/><path fill="#31373d" d="M847.923 797.701c-6.153-1.788-14.603-4.367-20.57-6.768l-.485-1.096-.464.601c-.391-.302-.421-.252-.572-.73l.125-.125c1.253-.36 19.677 3.984 21.88 4.589.41 1.484.229 1.733.086 3.529"/><path fill="#47515a" d="M819.504 867.767c9.382 1.157 14.992 3.161 23.861 4.779-2.74.234-3.826.469-6.475 1.035-6.157-1.982-11.223-3.313-17.386-5.814"/><path fill="#31373d" d="M801.162 776.077c-.096-2.974-.763-14.929.362-16.969l.106 1.436 1.362.157c.207 1.344.533 2.653.653 4.008-.987 6.5.328 5.539-2.483 11.368"/><path fill="#47515a" d="M976.769 1023.69c2.364 1.69 2.8 2.41 5.515 3.78-1.313.67-1.455.99-2.684 2.18-2.63-1.9-3.512-2.57-5.831-4.84zm208.851-277.856c-4.31 3.021-7.71 4.947-12.32 7.488l-.4-2.64c3.33-1.008 9.2-3.506 12.72-4.848m-245.682 71.747c-1.389-2.924-3.739-8.319 1.546-3.562a249 249 0 0 1-1.546 3.562"/><path fill="#c97f4c" d="M1231.64 669.876c4.01-11.274 29.16-24.582 40.04-28.558 2.35 6.976 8.46 22.431 7.39 28.895.87.812 1.58 1.35 2.51 2.079l-1.57 4.477c.62 1.987.7 2.33 1.48 4.128 2.7 7.74 1.44 13.627-.04 21.486l2.67-1.1c3.19-1.491 1.57-1.29 5.03-.604 1.74 1.724 2.29 2.178 3.8 4.085 1.4-2.548 1.29-2.485 1.7-5.411 11.13-3.418 35.16-8.245 47.09-8.698.67 11.924 1.81 26.132.53 37.863-10.53 7.344-21.66 12.072-33.28 17.425 10.17-1.345 21.49-6.078 31.32-9.461 1.18 2.422.02 6.596-.68 9.469.83.378 1.65.755 2.48 1.132 19.54-2.109 33.54-7.316 51.81-10.214.16 7.26.89 25.434-.46 31.732-.44 3.178-.85 6.391-1.47 9.535-.55 2.294-1.2 5.761-2.1 7.806l-.56 1.538c-1.54 3.197-3.34 7.234-5.08 10.249l2.14.975 1.58.781c1.59-.261 3.14-.562 4.72-.859 8.05-2.352 25.71-6.895 33.91-8.116 1.58 10.233 6.43 26.351-2.33 33.239l3.87.634 1.83.627c-.02 2.245.02 2.88-.39 5.064-.23 2.447-.14 2.721-1 4.886-2.54 18.676-5.81 20.076-16.42 34.865.27-.049.54-.093.81-.148 13.53-2.772 63.34-31.401 72.09-26.348 3.43 1.983 5.72 6.43 6.24 10.268.21 1.59.07 4.206-.98 5.453-3.74 4.44-15.19 8.871-20.46 11.819-19.78 11.056-39.91 21.311-59.8 32.14-15.9 8.661-31.51 17.856-47.58 26.208-24.51 12.737-49.46 24.665-73.86 37.591-8.37 4.433-67.32 37.982-71.86 38.722-4.95-2.46-2.46-4.86-4.91-3.52-6.23 3.42-4.47 4.12-12.23 7.32l-.86-2.56c8.73-4.42 9.24-5.55 13.88-13.777-.45-1.637-.92-3.269-1.4-4.897-1.35-4.528-1.57-5.729-5.51-7.888-18.15 1.745-98.75 54.732-126 63.582 11.64-9.88 31.94-19.76 45.69-27.12 21.7-11.87 43.63-23.327 65.77-34.357-7.09-3.044-8.64-3.337-13.13-9.557l-.6-.845c-18.2 14.105-83.44 60.969-102.59 67.939 8.04-8.12 30.69-22.29 40.95-29.12a3092 3092 0 0 0 59.88-40.714c1.5-5.268 3.65-11.089 5.45-16.321-24.36.546-23.03 7.64-39.55 20.692-20.08 15.865-49.92 51.193-71.49 62.563 7.12-10.5 24.36-24.43 34.06-33.44 17.56-16.329 37.63-33.107 54.13-50.346 1.75-7.465 2.87-15.598 4.07-23.218-.26.121-.52.239-.77.362-.43.206-.85.422-1.27.626-20.7 9.945-56.53 61.489-73.67 81.146-6.34 7.27-12.9 15.63-21.36 20.45 7.65-14.32 82.49-95.909 82.26-100.536-6.43-2.553-6.32-1.595-10.65-7.353l-.82-1.106c-7.58 12.571-66.03 97.125-73.97 100.785 2.91-13.09 66.69-90.381 78.73-116.632l-16.85 5.437c-.02-.078-.05-.155-.07-.232l-.3-1.168.27-.249.96-.612c.15-.297.31-.594.47-.891-4.23-2.966-3.97-3.186-6.63-7.611 4.99-9.592-2.65-11.061 10.46-25.146 10.24-11.008 43.19-80.574 50.24-98.066 3.73-9.274 7.59-25.607 13.03-33.183 1.93-2.689 5.96-4.689 8.66-6.528 11.35-7.71 27.69-55.162 30.55-69.563"/><path fill="#3b4651" d="M1294.65 699.353c11.13-3.418 35.16-8.245 47.09-8.698.67 11.924 1.81 26.132.53 37.863-10.53 7.344-21.66 12.072-33.28 17.425 10.17-1.345 21.49-6.078 31.32-9.461 1.18 2.422.02 6.596-.68 9.469.83.378 1.65.755 2.48 1.132 19.54-2.109 33.54-7.316 51.81-10.214.16 7.26.89 25.434-.46 31.732-.44 3.178-.85 6.391-1.47 9.535-.55 2.294-1.2 5.761-2.1 7.806l-.56 1.538c-1.54 3.197-3.34 7.234-5.08 10.249-2.51 1.684-6.46 8.175-8.45 11.032-11.01 15.775-23.22 32.331-41.43 40.234-25.98 2.118-26.64.578-52.53 8.675l27.55.297-.72 2.77c-10.61 8.654-35 29.886-45.09 36.502-7.26-.381-17.52-1.767-24.13-1.204l-.27 1.095 2.09.494c9.75.006 7.55.243 15.97 2.693l1.3.538c-6 6.864-31.16 28.463-40.84 28.976-2.89.153-10.68-.156-13.2.863 1.89 1.748 7.03 1.639 10.21 1.909-20.44 15.543-21.69 16.815-47.41 19.324l-2.32-1.331c-4.14-4.067-.41-14.526.83-19.825 34.99-32.395 72.28-61.603 104.33-97.018 5.6-6.177 13.04-12.113 19.01-18.298-10.04 1.955-15.94 2.537-25.49 6.392l-1.72.685c-.35.143-.69.285-1.03.428 6.17-.236 11.4-.477 17.56-1.103-13.41 12.156-27.33 29.871-40.53 39.317-4.21 3.009-24.5 3.322-32.45 8.634 3.93 1.854 14.41 4.157 18.89 4.608-7.12 7.222-13.7 14.595-22.11 20.274-9.25 6.244-19.81 4.636-26.76 12.863l.54 1.202c3.3.625 5.41.044 8.71-.47-5.87 11.546-22.18 19.848-34.23 23.359-1.57-1.948-1.25-1.242-1.85-3.481-.72-.919-1.39-1.02-2.6-1.63-2.75-1.478-5.91-3.591-8.59-5.272 11.65-21.828 17.13-18.715 31.94-36.588 8.23-7.778 17.47-35.795 24.49-41.942 18.99-16.618 29.59-32.766 44.45-52.679 22.26-29.852 38.25-50.972 45.75-88.769 3.19-1.491 1.57-1.29 5.03-.604 1.74 1.724 2.29 2.178 3.8 4.085 1.4-2.548 1.29-2.485 1.7-5.411"/><path fill="#806250" d="M1164.98 950.596c10.8-13.045 45.16-41.076 59.3-54.735l111.71-107.397c7.17-6.831 14.3-13.562 21.38-20.5 6.25-6.136 12.39-13.646 19.19-18.957-13.5 18.787-32.09 35.201-49.02 50.939-48.09 44.706-93.92 91.926-143.49 134.984-5.54 4.814-12.14 11.244-16.75 16.997zm-18.9-24.063c11.62-10.997 20.41-26.057 30.68-38.309a4688 4688 0 0 0 102.69-126.293c9.24-11.966 26.47-41.157 36.92-48.284l.27.822c-16.35 20.244-29.4 42.235-46.05 62.607-26.55 32.479-52.58 65.605-79.23 98.028-13.39 16.294-31.28 35.474-42.68 53.059-.72-.919-1.39-1.02-2.6-1.63"/><path fill="#c97f4c" d="M1337.66 749.311c.68-.644 1.43-.962 2.29-1.32l1.26-.547c-3.13 13.393-25.51 46.044-34.5 58.185-1.23 1.661-13.88 6.746-16.55 7.672-5.29.357-10.04 1.878-15.15 3.007-9.59 2.117-19.34 2.192-29.04 1.151a682 682 0 0 1 28.54-5.308c4.88-.79 9.72-1.785 14.51-2.983 16.63-3.99 17.47-8.276 26.56-22.193 8.1-12.406 15.29-24.472 22.08-37.664"/><path fill="#ddddde" d="M1393.46 768.601c-.44 3.178-.85 6.391-1.47 9.535-6.08 2.21-13.26 1.432-19.51 4.897-2.02 1.121-9.8 3.582-11.98 3.448-1.86 1.7 32.27-17.538 32.96-17.88"/><path fill="#b6b5b7" d="M1360.84 797.219c4.9-2.31 24.24-10.404 29.05-11.277l-.56 1.538c-10.42 6.018-17.09 7.162-28.49 9.739"/><path fill="#60483e" d="M1241.27 897.624c9.75.006 7.55.243 15.97 2.693-4.24 1.829-12.21 4.175-15.02-1.012z"/><path fill="#ddddde" d="M1339.63 745.951c.83.378 1.65.755 2.48 1.132l-.9.361-1.26.547c-.86.358-1.61.676-2.29 1.32-7.62 5.009-8.09 5.072-16.3 8.827 4.93-4.434 11.89-10.107 18.27-12.187m-46.68-41.187c1.4-2.548 1.29-2.485 1.7-5.411.61 4.412 1.24 8.432 1.74 12.885l-1.74 1.007c-.79-3.09-1.99-5.339-1.7-8.481"/><path fill="#959599" d="M1296.39 712.238c.62 1.433 1.64 8.452-.74 7.154-.73-.394-.88-4.847-1-6.147z"/><path fill="#3b4651" d="M1231.64 669.876c4.01-11.274 29.16-24.582 40.04-28.558 2.35 6.976 8.46 22.431 7.39 28.895.87.812 1.58 1.35 2.51 2.079l-1.57 4.477c.62 1.987.7 2.33 1.48 4.128 2.7 7.74 1.44 13.627-.04 21.486-3.44 13.531-10.36 28.937-15.53 42.031-6.45 16.363-30.95 21.207-47.3 29.333 7.27-2.229 14.15-4.4 21.56-6.137l2.24 2.147c-2.09 1.11-3.5 1.326-4.25 3.009 4.87-.388 6.18-1.007 10.92-2.588-12.22 16.834-25.36 38.491-40.82 51.699-3.17 2.71-26.76 11.103-27.71 16.864 2.59.119 17.78-8.747 22.05-10.695-17.6 16.138-16.19 24.135-28.81 43.515-8.34 1.726-11.88 1.995-18.96 6.921l-.12 1.076c6.49-.148 12.19-3.597 18.15-6.447-6.76 7.734-20.45 25.684-28.74 30.46-2.29 1.321-13.39 3.456-18.8 6.402-4.23-2.966-3.97-3.186-6.63-7.611 4.99-9.592-2.65-11.061 10.46-25.146 10.24-11.008 43.19-80.574 50.24-98.066 3.73-9.274 7.59-25.607 13.03-33.183 1.93-2.689 5.96-4.689 8.66-6.528 11.35-7.71 27.69-55.162 30.55-69.563"/><path fill="#fbfbfa" d="M1280.01 676.769c.62 1.987.7 2.33 1.48 4.128-10.22 7.554-11.42 8.235-22.49 13.153 7.34-5.961 14.16-10.635 21.01-17.281"/><path fill="#ddddde" d="M1279.07 670.213c.87.812 1.58 1.35 2.51 2.079-2.39 1.492-15.46 9.912-17.08 11.058l-1.73-1.094c5.68-4.314 9.7-9.112 16.3-12.043"/><path fill="#959599" d="m1262.77 682.256 1.73 1.094c-.35.254-7.24 5.495-7.8 4.012.31-1.271 4.82-4.253 6.07-5.106"/><path fill="#806250" d="M1257.76 661.824c.08-1.342-64.95 127.86-69.77 138.493-6.62 14.643-51.11 93.774-60.5 103.722-.01-.241-.06-.484-.03-.724.35-3.349 30.41-52.428 34.65-60.169 10.7-19.574 21.75-39.118 31.56-59.153 11.71-23.919 48.4-105.366 64.09-122.169"/><path fill="#3b4651" d="M1392.69 798.626c8.05-2.352 25.71-6.895 33.91-8.116 1.58 10.233 6.43 26.351-2.33 33.239l3.87.634 1.83.627c-.02 2.245.02 2.88-.39 5.064-.23 2.447-.14 2.721-1 4.886-2.54 18.676-5.81 20.076-16.42 34.865-11.32 4.537-27.8 13.651-38.57 16.425-6.36 1.642-17.16.88-26.63 2.962l-1.03 2.424 6.46-1.318.72 2.889 5.14 1.467.08.996c-8.67 4.906-55.64 31.327-62.22 31.8-7.33.527-24.57-1.842-28.83 5.026 1.59.129 1.68.305 3.17-.028l1.21 1.667c5.2 2.531 8.46 1.458 14.13 1.18l-48.08 27.176c-6.08 3.465-16.3-2.107-20.52 2.829 1.94 2.468 8.84 2.022 12.1 2.135-18.17 9.841-22.39 11.88-43.26 8.045 3.45-2.44 7.43-5.429 10.95-7.655l-1.47-1.272c-3.43 2.604-5.82 4.892-9.95 6.028-3.47-.751-2.1.129-4.22-2.783-1.06-6.715.66-9.048 3.96-15.162 13.68-7.875 28.34-15.849 41.5-24.451 32.49-21.235 59.39-50.663 91.08-72.648 6.97-2.89 10.3-4.32 17.59-5.983l-1.1-2.579c18.21-7.903 30.42-24.459 41.43-40.234 1.99-2.857 5.94-9.348 8.45-11.032l2.14.975 1.58.781c1.59-.261 3.14-.562 4.72-.859"/><path fill="#806250" d="M1195.51 966.573c7.46-6.197 20.79-14.183 29.29-20.443 41.39-30.495 84.06-55.591 124.84-87.589 10.8-8.479 58.52-53.235 63.15-55.187-7.48 9.175-17.22 17.236-25.73 25.516-41.67 40.569-91.99 72.015-140.37 103.849-16.71 10.993-32.43 24.967-49.71 35.126z"/><path fill="#d98650" d="M1334.37 848.995c18.21-7.903 30.42-24.459 41.43-40.234 1.99-2.857 5.94-9.348 8.45-11.032l2.14.975c-13.8 18.131-27.42 45.837-50.92 52.87z"/><path fill="#b6b5b7" d="M1428.58 834.96c-4.08-1.339-22.59 9.531-26.56 7.364.14-1.217 4.95-2.673 5.75-2.874 7.68-1.921 14.64-6.046 21.81-9.376-.23 2.447-.14 2.721-1 4.886"/><path fill="#d98650" d="M1387.97 799.485c1.59-.261 3.14-.562 4.72-.859-4.66 11.142-6.2 16.787-12.24 27.75 2.62-8.698 6.07-18.153 7.52-26.891"/><path fill="#b6b5b7" d="m1424.27 823.749 3.87.634c-3.61 1.511-7.12 3.341-10.56 5.188-.69.368-5.49 3.277-5.96 1.71.68-1.399 11.22-7.026 12.65-7.532"/><path fill="#a27a65" d="M1345.93 891.636c-8.71 1.388-3.59-1.323 1.03-2.424z"/><path fill="#31373d" d="M1240.18 767.61c1.85-.833 11.78-5.779 12.97-4.259-.18.369-.37.739-.56 1.108-2.89 2.566-6.65 3.678-10.17 5.298z"/><path fill="#60483e" d="M1270.45 932.468c6.01-2.99 10.77-2.683 17.25-1.614q-3.525.56-7.08 1.021a44.7 44.7 0 0 0-8.96 2.26zm81.94-42.15c2.21-.133 7.46-.653 9.54.262.94 1.588-6.66 1.766-8.82 2.627z"/><path fill="#3b4651" d="M1478.54 845.025c6.23-.475 9.08 1.771 9.74 7.851-1.62 4.402-5.39 8.093-9.5 10.245-44.23 23.198-88.2 46.804-132.04 70.753-18.66 10.194-38.18 18.948-56.98 28.822a3022 3022 0 0 0-70.33 38.464c-.7.05-1.41.09-2.11.13-.79-1.479-5.3-19.048-6.15-22.005 69.22-34.278 133.86-78.792 205.76-107.593 20.58-8.246 41.34-17.63 61.61-26.667"/><path fill="#494745" d="M1230.5 866.243c.58-.055 2.03-.442 2.35.33-.76 3.17-9.52 3.536-12.06 3.847-.75-.215-1.65-.396-2.28-.79a3 3 0 0 0-.1-.283c1.08-1.649 9.88-2.744 12.09-3.104"/><path fill="#3b4651" d="M610.313 840.728c-3.2-5.681-6.072-9.458-6.636-15.806l1.022-1.219c8.655 2.729 15.846 16.762 20.165 24.381-2.475-9.117-5.395-17.089-8.57-25.953 5.705 4.97 12.962 12.612 18.402 18.058 11.938 12.153 32.902 19.092 44.583 28.977l.979.816.442 1.433q1.15 3.843 2.11 7.736c.155.722 1.186 6.322 2.696 6.068l.33-.483c1.606 1.763 1.375 1.749 3.585 1.998.434 1.155 1.799 5.995 2.922 6.3 1.654-1.587-1.474-14.215-2.029-16.847 2.899 2.179 6.62 5.46 9.44 7.205 3.399 2.463 7.457 5.263 11.072 7.408 8.451 6.885 20.181 13.014 29.045 19.518 22.491 16.505 45.951 29.904 69.523 44.705 7.038 4.419 17.892 7.911 24.857 12.654 2.652 1.805 8.635 9.838 11.398 12.895-22.421 4.437-17.141 4.821-14.756 22.078-14.528-8.784-42.38-15.672-59.033-22.188-6.858-2.684-12.539-3.605-19.205-7.501l-.48-.394c-1.152-.525-4.706-1.622-5.082-2.98l.143-.172c4.68-1.632 9.995-1.296 16.999-4.273l-.193-1.001c-8.304-.734-21.516.597-31.06.546-18.597-10.923-41.681-21.424-58.703-32.251 8.952-.582 16.958-1.251 25.326-4.652-9.828.072-18.284 1.173-28.013 2.433l.509.392c-3.266-1.78-5.195-2.977-8.248-5.103-2.057-3.108-2.396-2.485-5.651-3.054l-1.737-.316c-.917-.115-3.629-.446-4.418-.845-8.364-4.232-52.083-31.527-54.818-36.9.006-.948.066-2.531-.066-3.492-9.456-3.465-23.967-34.962-27.433-44.774 10.015-3.112 17.931-5.791 27.806-9.573 4.634 5.874 7.455 8.875 12.777 14.176"/><path fill="#ddddde" d="M656.465 922.136c2.453-.077 26.916-1.163 26.815-1.224l-.072.344c-5.892 2.645-12.967 3.733-19.355 4.25-2.057-3.108-2.396-2.485-5.651-3.054z"/><path fill="#47515a" d="M752.175 972.567c-1.152-.525-4.706-1.622-5.082-2.98l.143-.172c4.68-1.632 9.995-1.296 16.999-4.273l1.924 1.782c-6.657 3.313-10.166 1.643-13.984 5.643"/><path fill="#ddddde" d="m766.159 966.924 1.506-.258c1.409-.273 2.677-.576 3.426.847-2.128 3.284-14.222 4.01-18.436 5.448l-.48-.394c3.818-4 7.327-2.33 13.984-5.643m-148.421-89.741c-6.813 4.087-13.197 4.202-20.509 7.208.006-.948.066-2.531-.066-3.492 5.72-1.643 14.535-2.746 20.575-3.716"/><path fill="#806250" d="M590.2 846.921c12.128 1.897 54.77 30.014 68.292 37.787l120.476 67.779c6.784 3.877 48.065 26.154 50.14 30.349l-1.074.276c-30.166-19.018-69.937-39.46-101.463-56.747a3068 3068 0 0 1-101.159-59.117c-11.617-6.984-23.763-13.172-35.212-20.327"/><path fill="#3b4651" d="M637.832 837.42c-10.316-9.53-19.005-41.698-18.359-55.708.259-5.619 38.143.393 43.441 2.537l-.244 2.177c1.091 1.06 1.057 1.157 2.415 1.671 14.867 12.876 29.628 30.908 44.546 44.385 1.454 1.313 9.955 18.441 11.582 21.573l.566-.141c-1.339-5.808-4.604-13.449-7.251-18.798 14.6 12.408 31.209 23.873 46.049 36.044 22.626 18.559 67.314 61.14 93.748 70.851 1.925 4.475 4.354 8.687 4.047 13.365-1.29 3.169-2.053 3.199-4.989 5.034l-2.986.856c-24.857 6.51-43.411-11.451-66.152-24.343 2.967-.337 8.886-.739 10.755-2.926-4.905-.646-8.301.163-13.18.878-5.754-3.167-7.965-4.399-13.199-8.485-.177-4.319.046-4.522-4.458-5.594l-2.288.629c-2.802-.649-46.408-30.564-50.061-34.243-.322 1.238-.605 2.397-.988 3.618-3.615-2.145-7.673-4.945-11.072-7.408-2.82-1.745-6.541-5.026-9.44-7.205.555 2.632 3.683 15.26 2.029 16.847-1.123-.305-2.488-5.145-2.922-6.3-2.21-.249-1.979-.235-3.585-1.998l-.33.483c-1.51.254-2.541-5.346-2.696-6.068a165 165 0 0 0-2.11-7.736l-.442-1.433-.979-.816c-11.681-9.885-32.645-16.824-44.583-28.977z"/><path fill="#806250" d="M850.397 961.266c-13.153-10.309-29.005-19.466-42.487-29.771-11.309-8.644-22.763-18.039-34.231-26.306-36.508-26.318-72.765-53.071-106.784-82.586-6.073-5.271-27.684-22.976-31.695-28.178 15.731 8.075 30.222 24.99 44.104 36.032 30.733 24.445 61.232 48.324 93.225 71.114 20.99 14.951 40.42 32.955 62.684 46.533 5.744 3.503 12.936 8.309 18.17 12.306z"/><path fill="#d98650" d="M637.832 837.42c3.511-.692 23.59 2.081 24.723 3.89-.558 1.691-18.638-.312-21.086-.479 16.108 13.1 43.5 27.979 62.49 39.888 4.65-1.563 5.003-1.572 9.939-2.255-.294 1.172-.624 2.302-.954 3.464l-.26.623c.338.582 6.719 1.089 7.756 1.279-5.072 2.679-6.159 1.466-8.723 2.616l-.083.12.18.616c-.322 1.238-.605 2.397-.988 3.618-3.615-2.145-7.673-4.945-11.072-7.408-2.82-1.745-6.541-5.026-9.44-7.205.555 2.632 3.683 15.26 2.029 16.847-1.123-.305-2.488-5.145-2.922-6.3-2.21-.249-1.979-.235-3.585-1.998l-.33.483c-1.51.254-2.541-5.346-2.696-6.068a165 165 0 0 0-2.11-7.736l-.442-1.433-.979-.816c-11.681-9.885-32.645-16.824-44.583-28.977z"/><path fill="#31373d" d="M685.836 884.736c-.389-1.878-2.548-9.854-1.113-11.194 2.062.032 4.384 11.249 4.698 13.192-2.21-.249-1.979-.235-3.585-1.998"/><path fill="#d98650" d="M764.163 920.796c4.444-1.457 8.842-.916 13.593-.861l-1.284 2.549-.476 2.028-2.513 3.036c-1.691-.43-3.151-.813-4.862-1.158-.177-4.319.046-4.522-4.458-5.594"/><path fill="#494745" d="M713.898 878.464c4.371-1.003 7.245-.092 10.87 2.463-2.159.896-2.972.938-4.328 2.903-1.037-.19-7.418-.697-7.756-1.279l.26-.623c.33-1.162.66-2.292.954-3.464"/><path fill="#c97f4c" d="M713.898 878.464c4.371-1.003 7.245-.092 10.87 2.463-6.331-.696-5.884-1.742-11.824 1.001.33-1.162.66-2.292.954-3.464"/><path fill="#806250" d="M666.82 811.089c-1.942-6.474-6.23-18.209-4.15-24.663 1.091 1.06 1.057 1.157 2.415 1.671-1.41 4.199 1.567 16.087 1.71 22.126z"/><path fill="#c97f4c" d="M775.996 924.512c15.595 3.476 6.707 6.054-2.513 3.036zm1.76-4.577c2.281.048 4.602-.031 6.862.269l.674.863.295-.011.246-.424c.269.236.139.063.343.593-.639.96-8.204 1.113-9.704 1.259z"/><path fill="#c97f4c" d="M669.833 784.912c3.986 2.639 12.985 3.918 18.32 5.436-5.391-.096-3.671-1.687-6.342.694-2.852-.275-5.58-.583-8.446-.698 21.217 27.602 48.944 47.732 76.453 68.51 7.865.36 27.252 3.604 31.989 9.602-5.019 1.476-16.985-5.748-19.074-2.232l2.404 1.524.573 2.784c2.903 5.345 36.941 32.875 43.563 37.242 4.585.028 21.227-.565 23.718 1.796l-2.96.558-2.018.293c-2.367.319-9.695-.703-7.982 2.083-.514 1.519-.296 1.468.227 3.206l-.013 1.169c12.947 10.79 26.112 21.426 43.784 21.24-2.708 1.977-3.21 2.686-5.604 4.928 1.236 3.748 2.695 8.849 4.964 12.036 11.073 15.549 100.319 77.887 105.032 89.207-2.371.27-4.985-1.99-6.998-3.6a5123 5123 0 0 1-99.587-80.419c-8.06 3.727-14.723 5.154-23.478 6.429 15.085 19.972 33.875 22.914 54.263 35.45 31.447 19.34 65.519 40.71 93.778 63.91 39.291 31.13 27.171 68.58 26.671 111.82-.16 14.01-3.25 41.27-1.49 53.94.49 3.48 26.22 10.37 23-13.75-2.23-16.67-1.59-40.32-2.67-57.52-.5-32.15-8.9-65.57 19.4-89.03 22.34-18.81 51.37-25.72 77.66-37.28 16.26-6.88 40.12-17.83 56.39-22.67l.67 2.71c-42.49 19.52-92.71 35.56-131.57 60.26-17.88 11.37-21.84 43.85-19.32 61.88.01 12.2 7.34 97.04-1.58 100.17-34.221 12.04-28.77-15.2-26.61-37.06.74-26.67 4.62-59.15 3.01-85.23-1.59-25.99-28.034-48.73-49.899-60.39-3.28 2.17-6.34 4.31-9.84 6.14-15.306-6.03-29.417-11.77-44.323-18.73-13.832-6.45-28.574-14.82-42.374-20.68l-5.156-2.73c-7.475-3.15-22.815-8.84-27.475-15.26-2.385-17.257-7.665-17.641 14.756-22.078-2.763-3.057-8.746-11.09-11.398-12.895-6.965-4.743-17.819-8.235-24.857-12.654-23.572-14.801-47.032-28.2-69.523-44.705-8.864-6.504-20.594-12.633-29.045-19.518.383-1.221.666-2.38.988-3.618 3.653 3.679 47.259 33.594 50.061 34.243l2.288-.629c4.504 1.072 4.281 1.275 4.458 5.594 5.234 4.086 7.445 5.318 13.199 8.485 4.879-.715 8.275-1.524 13.18-.878-1.869 2.187-7.788 2.589-10.755 2.926 22.741 12.892 41.295 30.853 66.152 24.343l2.986-.856c2.936-1.835 3.699-1.865 4.989-5.034.307-4.678-2.122-8.89-4.047-13.365-26.434-9.711-71.122-52.292-93.748-70.851-14.84-12.171-31.449-23.636-46.049-36.044 2.647 5.349 5.912 12.99 7.251 18.798l-.566.141c-1.627-3.132-10.128-20.26-11.582-21.573-14.918-13.477-29.679-31.509-44.546-44.385-1.358-.514-1.324-.611-2.415-1.671l.244-2.177c3.531 1.052 3.296 1.113 6.919.663"/><path fill="#655a51" d="M812.252 910.681c7.539-.523 9.963-.9 17.779-.553l-2.018.293c-2.367.319-9.695-.703-7.982 2.083-.514 1.519-.296 1.468.227 3.206l-.013 1.169c-2.774-1.829-5.198-4.125-7.993-6.198"/><path fill="#3b4651" d="M840.893 984.288c2.208.144 11.236.709 12.489 1.415 21.953 12.374 87.265 48.757 102.386 63.467.911 2.79.825 1.35-.159 4.45-3.632 2.66-1.64 1.93-6.243 2.12-16.853-4.28-47.621-20.3-63.823-27.89-12.888-6.03-40.667-17.86-51.749-25.66-1.895-5.212-3.728-8.365-1.495-13.432 3.028-3.081 4.295-3.107 8.594-4.47"/><path fill="#c97f4c" d="M1054.27 1025.91c2.76-9.83 7.6-20.38 13.13-28.93 16.32-25.263 28.34-60.997 46.94-84.102.95.418 1.81.857 2.73 1.316-18.12 30.678-32.94 62.962-50.98 93.686-3.68 6.27-7.08 12.45-11.82 18.03m-181.364-83.042 2.143-1.653c8.511 7 99.671 94.405 99.815 95.835.029.28-.004.54-.171.77-.261.37-.736.43-1.148.35-4.709-.94-89.58-84.452-100.639-95.302"/><path fill="#d98650" d="m1007.97 867.613 3.53-.93c1.65 10.788 1.45 32.527 2.06 44.304.55 10.784 2.41 35.307 1.55 45.525-.16 1.468-.94 26.283-.37 25.205-.82.238-.7-.031-1.53-.615-2.05-38.674-4.24-74.351-5.24-113.489"/><path fill="#c97f4c" d="M1015.11 956.512c2.24 15.252 1.49 36.251 1.22 51.648-.01.61-1.48.44-1.58-.1-1.08-5.77-1.78-21.966-1.54-26.958.83.584.71.853 1.53.615-.57 1.078.21-23.737.37-25.205m170.25 55.058c4.3-1.01 9.18-3.17 13.4-4.8l.86 2.56c-10.37 2.53-8.46 2.67-7.05 11.86-1.35 1.67-1.54 1.55-3.54 2.52-.97-3.04-1.98-6.44-3-9.43z"/><path fill="#d98650" d="M1117.32 905.244c.52-1.339.66-1.58 1.38-2.882 2.66 4.425 2.4 4.645 6.63 7.611-.16.297-.32.594-.47.891l-.96.612-.27.249.3 1.168c.02.077.05.154.07.232-2.65 1.472-3.82 1.173-6.93 1.069-.92-.459-1.78-.898-2.73-1.316a66 66 0 0 0 2.3-5.772z"/><path fill="#c97f4c" d="M873.724 938.171c.883.307 1.906.895 2.732 1.328-.332.601-.945 1.203-1.407 1.716l-2.143 1.653c-7.215 2.093-6.386 1.839-14.481.179 2.394-2.242 2.896-2.951 5.604-4.928l2.552.24c3.547 1.611 3.148.35 7.143-.188m772.226-48.148c2.39 4.72.57 30.831.58 37.557 3.88-7 8.98-19.354 19.4-14.66 1.16 5.586-2.92 6.999-1.21 10.8l9.73 3.469c2.31 3.145 4.54 6.18 6.75 9.403 14.42 1.582 27.92 3.345 37.85 15.404 13.19 16.01 3.48 38.418-18.73 33.882-23.69-4.837-18.3-19.032-26.45-34.41-9.03-.135-7.39 2.107-16.62-3.581-1.05-.765-1.28-.842-2.6-1.593l-1.33-1.754c-.15 9.886 15.65 50.888 19.09 63.2 12.91 46.11 26.41 92.16 41.24 137.69 4.46 13.68 9.97 27.22 14.4 40.9-8.96 2.3-15.15 4.19-23.87 7.31-10.37 5.01-22.23 10.26-32.74 15.1-11.56 5.31-30.18 15.74-41.59 18.61-.63.47-1.42 1.22-2.05 1.31-9.74-1.75-56.18-24.62-68.07-29.96-4.04-1.45-10.17-3.92-13.91-6.09-8.31-2.38-15.55-5.53-23.49-8.82 12.54-49.39 29.82-97.36 46.28-145.53 5.21-15.27 12.38-31.11 17.2-46.269l-.79-.75-3.87 3.064c-2.74 2.6-6.82 5.735-9.88 8.085-10.43 6.56-20.45 8.78-31.95 4.08-40.7-34.071 40.73-79.179 70.85-85.173 3.6-.8 2.13.034 4.67-2.394 1.07-8.016 3.11-17.609 4.39-26.022.35-1.154.39-1.533 1.46-2.02q10.92-.288 21.84-.077z"/><path fill="#3b4651" d="M1610.17 921.297c1.09.148 1.85.064 2.55.835.12.769-.87.995-1.41 1.244-.38 3.048-1.03 4.831-1.72 7.812 3.46 7.969-3.13 57.989-4.1 70.852-3.68 48.39.01 96.51-.45 144.86-19.7 10.6-52.51 26.81-72.93 36.37l11.48 5.75c1.61 1.45 1.4 1.41 2.23 3.59-8.31-2.38-15.55-5.53-23.49-8.82 12.54-49.39 29.82-97.36 46.28-145.53 5.21-15.27 12.38-31.11 17.2-46.269l-.79-.75-3.87 3.064c-2.74 2.6-6.82 5.735-9.88 8.085-10.43 6.56-20.45 8.78-31.95 4.08-40.7-34.071 40.73-79.179 70.85-85.173"/><path fill="#fbfbfa" d="M1610.17 921.297c1.09.148 1.85.064 2.55.835.12.769-.87.995-1.41 1.244-.38 3.048-1.03 4.831-1.72 7.812-5.85 12.672-10.68 26.474-15.96 39.45-5.52 13.591-3.04 13.297-13.95 22.568l1.47 1.099c-2.74 2.6-6.82 5.735-9.88 8.085-10.43 6.56-20.45 8.78-31.95 4.08-40.7-34.071 40.73-79.179 70.85-85.173"/><path fill="#31373d" d="M1610.17 921.297c1.09.148 1.85.064 2.55.835.12.769-.87.995-1.41 1.244-25.59 7.013-86.51 32.976-79.8 70.314.91 5.061 5.21 8.4 9.31 11.17l-1.5 1.61c-40.7-34.071 40.73-79.179 70.85-85.173"/><path fill="#31373d" d="m1569.22 1001.02 2.05 1.37c-10.43 6.56-20.45 8.78-31.95 4.08l1.5-1.61c10.95 3.63 18.46 2.09 28.4-3.84"/><path fill="#31373d" d="m1579.68 993.206 1.47 1.099c-2.74 2.6-6.82 5.735-9.88 8.085l-2.05-1.37c3.74-2.721 6.77-4.846 10.46-7.814"/><path fill="#3b4651" d="M1645.95 890.023c2.39 4.72.57 30.831.58 37.557 3.88-7 8.98-19.354 19.4-14.66 1.16 5.586-2.92 6.999-1.21 10.8l9.73 3.469c2.31 3.145 4.54 6.18 6.75 9.403 14.42 1.582 27.92 3.345 37.85 15.404 13.19 16.01 3.48 38.418-18.73 33.882-23.69-4.837-18.3-19.032-26.45-34.41-9.03-.135-7.39 2.107-16.62-3.581-1.05-.765-1.28-.842-2.6-1.593l-1.33-1.754c-.15 9.886 15.65 50.888 19.09 63.2 12.91 46.11 26.41 92.16 41.24 137.69 4.46 13.68 9.97 27.22 14.4 40.9-8.96 2.3-15.15 4.19-23.87 7.31l-.44-1.09c1.33-2.03 12.46-8.06 15.49-9.92-27.05-12.03-54.32-22.75-81.3-34.98 3.43-32.87 3.41-79.76 4.42-113.65.86-28.89 7.44-77.597 2.92-103.198 1.06-.592.42-.13 1.53-1.79-.92-4.795-4.08-7.606-6.06-12.647.67-7.267 1.93-15.959 4.09-22.87z"/><path fill="#fbfbfa" d="M1657.93 945.873c-4.16-3.295-7.06-4.392-7.43-9.765-.29-4.327.66-4.499 4.5-2.334 4.6 2.984 16.28 2.823 20.7 5.231.92.503-.61 7.027-1.03 7.698-3.45 5.604-12.29 1.796-15.73.271z"/><path fill="#959599" d="m1657.93 945.873 1.01 1.101-1.69.913c-1.05-.765-1.28-.842-2.6-1.593z"/><path fill="#fbfbfa" d="M1679.49 938.807c11.33 2.479 24.04 1.317 33.27 9.92 10.25 9.544 13.54 19.684 3.79 30.797-18.03 11.597-34.08-2.126-37.73-20.509-1.69-8.497-.54-12.074.67-20.208m-23.88-11.671c4.19-.326 25.19 1.065 19.03 9.152-3.36-.226-25.55-1.568-19.03-9.152m1.12-12.283c12.46.096 7.55 6.05-.49 9.426l-.97.411c-9.67 4.55-.86-7.429 1.46-9.837"/><path fill="#3b4651" d="m1642.53 890.784 3.42-.761-1.12 3.472c-2.16 6.911-3.42 15.603-4.09 22.87 1.98 5.041 5.14 7.852 6.06 12.647-1.11 1.66-.47 1.198-1.53 1.79l-1.91-.745-1.18.869c-15.63 74.494-10.92 130.564-15.17 205.364-6.36 3.21-12.24 5.87-18.77 8.74.36-46.32-3.15-92.68-.13-139.01 1.9-29.039 5.3-58.095 6.73-87.117 1.07-8.016 3.11-17.609 4.39-26.022.35-1.154.39-1.533 1.46-2.02q10.92-.288 21.84-.077"/><path fill="#3b4651" d="m1642.53 890.784 3.42-.761-1.12 3.472c-2.16 6.911-3.42 15.603-4.09 22.87-4.38-5.05-16.37-19.744-21.51-23.484.35-1.154.39-1.533 1.46-2.02q10.92-.288 21.84-.077"/><path fill="#d98650" d="m1642.53 890.784 3.42-.761-1.12 3.472c-2.16 6.911-3.42 15.603-4.09 22.87-4.38-5.05-16.37-19.744-21.51-23.484.35-1.154.39-1.533 1.46-2.02 8.11 7.503 9.87 9.918 17.22 17.445 1.98-6.37 3.62-10.904 4.62-17.522"/><path fill="#3b4651" d="M1627.8 1228.66c-8.51-8.99-66.26-30.18-82.38-42.26l.57-.49c20.96 2.13 61.06-9.37 81.02-17.01 21.01 8.13 58.49 12.82 81.02 17.37-16.09 11.14-40.44 20.54-58.07 30.01-6.75 3.63-14 6.33-20.11 11.07-.63.47-1.42 1.22-2.05 1.31"/><path fill="#60483e" d="M1543.59 1189.02c4.12 1.61 14.39 5.41 16.14 9.68-4.04-1.45-10.17-3.92-13.91-6.09-.83-2.18-.62-2.14-2.23-3.59"/><path fill="#3b4651" d="M1605.58 1148.99c8.9 8.69 10.96 10.06 21.08 17.76-25.17 9.85-41.66 12.38-67.48 17.42l-25.22.44c4.26-2.34 8.35-3.98 12.67-6.05 19.23-9.2 38.01-19.44 57.19-28.7zm35.13-194.835 2.4 1.801c-.1 26.647-2.71 53.824-3.49 80.394-1.06 36.1-2.32 72.06-4.2 108.14l-1.3.94-2.05-1.23c-2.81-4.48-1.08-37.92-.73-45.31 2.27-48.33.46-97.08 9.37-144.735m-2.32 196.035c22.27 9.53 44.23 19.54 66.8 28.45 2.99 1.18 7.98 1.93 7.25 5.23-9.67-1.53-19.3-1.59-28.95-3.55-10.72-2.17-21.37-4.61-32.04-7.02l-4.96-1.17c-3.69-.83-6.61-1.61-10.24-2.63.77-6.36 1.37-12.85 2.14-19.31m-14.09-10.45c3.8-.54 3.18 4.21 3.24 7.26.08 5.72.05 11.44-.06 17.16-3.18-2.21-5.8-3.99-8.94-6.36-15.72-12.66-8.52-10.6 5.76-18.06"/><path fill="#47515a" d="M1630.25 1146.33c7.7 4.67 5.7 12.25 3.09 20.54-5.64-1.11-3.22-15.09-3.09-20.54"/><path fill="#60483e" d="M1640.71 954.155c.2-1.762 1.43-15.88 1.89-16.447l.24-.09c2.33 1.307.34 15.392.27 18.338z"/><path fill="#3b4651" d="M1848.31 825.529c2.12-.897 2.78-.992 4.78.007l.21 7.403c.02 5.92-.13 24.378 1.7 29.05l1.68.696c1.09 2.785-3.97 1.438-.69 4.882.86 4.301 2.09 3.693 3.46 7.393-1.18 2.469-.96 3.192 1.26 4.812 2.05 10.517 7.51 24.008 11.09 34.328 16.7 48.218 29.57 97.49 44.14 146.34 4.18 13.97 8.43 27.92 12.76 41.84 1.93 6.18 5.95 17.64 7.18 23.66l-21.7 6.56a482 482 0 0 0-51.87 22.3c-7.93 4.03-14.78 8.57-22.7 12.42-28.48-16.67-74.32-32.09-105.8-42.57-6.34-13.66 55.14-168.073 61.13-196.108-3.9 2.303-7.22 4.672-10.96 7.205-17 8.223-32.72 9.564-40.38-10.751-.87-4.865-.86-5.374.19-10.19 5.25-16.521 16.82-28.413 30.87-38.173 10.26-7.124 32.34-19.758 44.49-20.751.89-1.916 1.75-4.747 2.46-6.812.27-4.61.83-19.313 4.33-21.834 9.08-.301 13.41-.656 22.37-1.707"/><path fill="#3b4651" d="M1743.79 914.806c5.25-16.521 16.82-28.413 30.87-38.173 10.26-7.124 32.34-19.758 44.49-20.751l1.09 1.481c-1.45.284-1.67.348-3.06.844 1.06 2.703.67 3.044.76 6.142 1.04 3.671-1.16 26.407-1.6 32.257a1678 1678 0 0 0-2.41 188.714c-20.51 14.22-60.76 27.05-80.12 39.33-6.34-13.66 55.14-168.073 61.13-196.108-3.9 2.303-7.22 4.672-10.96 7.205-17 8.223-32.72 9.564-40.38-10.751-.87-4.865-.86-5.374.19-10.19"/><path fill="#fbfbfa" d="M1743.79 914.806c5.25-16.521 16.82-28.413 30.87-38.173 10.26-7.124 32.34-19.758 44.49-20.751l1.09 1.481c-1.45.284-1.67.348-3.06.844 1.06 2.703.67 3.044.76 6.142-7.98 17.996-12.44 44.658-23.08 60.746-.19 1.56-.09 1.867.08 3.447-3.9 2.303-7.22 4.672-10.96 7.205-17 8.223-32.72 9.564-40.38-10.751-.87-4.865-.86-5.374.19-10.19"/><path fill="#31373d" d="M1743.79 914.806c5.25-16.521 16.82-28.413 30.87-38.173 10.26-7.124 32.34-19.758 44.49-20.751l1.09 1.481c-1.45.284-1.67.348-3.06.844-22.74 8.039-57.39 25.71-68.4 48.798-11.34 23.774 8.89 40.114 32.99 27.588l.44-.225 1.77 1.379c-17 8.223-32.72 9.564-40.38-10.751-.87-4.865-.86-5.374.19-10.19"/><path fill="#71727b" d="M1743.79 914.806c.44 4.994.45 5.237-.19 10.19-.87-4.865-.86-5.374.19-10.19"/><path fill="#47515a" d="M1794.86 925.095c-.19 1.56-.09 1.867.08 3.447-3.9 2.303-7.22 4.672-10.96 7.205l-1.77-1.379c4.63-3.268 8.17-5.842 12.65-9.273"/><path fill="#c97f4c" d="M1817.18 858.207c1.39-.496 1.61-.56 3.06-.844 2.86 4.71-1.56 39.402-1.88 46.635-2.53 57.443-5.81 123.952-1.83 180.832 7.06-5.59 10.79-7.19 19.48-10.25-.34-31.49 2.17-180.449 13.46-200.826 1.43-1.087 1.64-.849 3.59-1.026 2.14 10.125-1.02 36.367-.99 48.183.09 37.3-1.33 74.533-3.22 111.789-.76 15-.75 35.83-3.14 50.43 20.96 11.14 61.41 31.92 82.72 39.76-3.3 1.77-12.73 6.39-14.67 8.77l.42.84a482 482 0 0 0-51.87 22.3c-7.93 4.03-14.78 8.57-22.7 12.42-28.48-16.67-74.32-32.09-105.8-42.57 19.36-12.28 59.61-25.11 80.12-39.33-2.74-62.9-1.93-125.905 2.41-188.714.44-5.85 2.64-28.586 1.6-32.257-.09-3.098.3-3.439-.76-6.142"/><path fill="#3b4651" d="m1849.54 880.242 1.65 1.033c-.29 10.513-2.5 32.448-2.17 42.534.65 20.6-1.98 145.801-7.44 157.261l-1.14-1.1c-3.09-11.37-.03-42.78.22-56.23.89-46.885.1-97.324 8.88-143.498"/><path fill="#60483e" d="M1849.47 873.754c1.43-1.087 1.64-.849 3.59-1.026-.76 2.919-1.18 5.622-1.87 8.547l-1.65-1.033c.3-2.948.22-3.511-.07-6.488"/><path fill="#3b4651" d="M1834.52 1105.94c8.74-.06 36.67 8.43 46.59 10.71 12.49 2.88 25.3 5.51 37.92 8.12-24.37 14.02-52.16 21.92-77.54 38.94.45-.06-80.23-32.46-85.05-35.01 19.3-3.51 60.03-15.22 78.08-22.76"/><path fill="#3b4651" d="M1815.72 1086.85c.71.48 1.3.81 1.84 1.48 4.62 5.7 11.64 10.39 17.56 15.09-18.42 7.3-53.27 18.36-72.77 22.22l-1.01.15c-10.19 1.38-6.53 1.59-17.71-3.39l.68-.39c19.62-11.68 50.33-21.48 71.41-35.16m28.44 7.79c.69-3.19.78-5.74 1.31-8.88 21.09 10.51 42.53 22.19 64.05 31.77.78 1.85-2.23 2.43-3.02 2.35-3.76-.37-7.42-1.05-11-1.86-9.19-2.08-18.47-4.23-27.51-6.89-6.33-1.86-13.72-3.26-19.85-5.51-7.8-1.68-6.32-1.31-3.98-10.98"/><path fill="#47515a" d="m1844.16 1094.64 1.01 1.2c2.53 2.77 2.72 5.28 2.92 8.89l.05.89c-7.8-1.68-6.32-1.31-3.98-10.98"/><path fill="#3b4651" d="M1833.81 1078.02c3.47 1.66 1.99 18.07 1.91 22.36-3.5-2.42-5.87-4.04-9.3-6.6-3.3-2.96-5.47-5.15-8.42-8.53 5.54-3.09 9.71-5.46 15.81-7.23"/><path fill="#31373d" d="M1839.28 1082.64c5.02 3.24 2.09 12.74.69 17.76-.61.04-.83.2-1.21-.07-.62-1.56.3-15.71.52-17.69"/><path fill="#3b4651" d="M1848.31 825.529c3.85 2.08-4.18 17.25-5.56 21.094-4.01-4.255-7.27-11.128-12.74-14.703-1.14-.741-3.15-3.497-4.07-4.684 9.08-.301 13.41-.656 22.37-1.707"/><path fill="#c97f4c" d="M1848.31 825.529c2.12-.897 2.78-.992 4.78.007l.21 7.403-2.81-.922c-2.54 11.522-2.5 13.055-4.02 23.856-8.66-11.819-10.96-13.129-20.12-23.44-.81 7.413-.61 9.727-4.74 16.637.27-4.61.83-19.313 4.33-21.834.92 1.187 2.93 3.943 4.07 4.684 5.47 3.575 8.73 10.448 12.74 14.703 1.38-3.844 9.41-19.014 5.56-21.094"/><path fill="#494745" d="M1850.49 832.017c.9-3.546.81-3.377 2.6-6.481l.21 7.403z"/><path fill="#c97f4c" d="M1420.62 940.678c11.2.601 4.49 1.603 6.79 9.774 1.5 5.335-.96 20.929-.31 22.744l.38-.264 1.6 1.349.26 2.328c-1.2 3.035-1.58 2.727-.38 5.689 1.85 3.01 2.62 3.792 5.09 6.391l-.99 2.109c5.12 25.612 17.9 51.922 25.21 77.062 13.77 47.35 30.09 93.77 42.42 141.53 1.78 6.86 11.78 31.72 11.51 36.66-2.49 1.87-3.03 1.8-6 2.6-21.97 3.44-55.35 24.4-70.49 24.88-4.95 3.58-10.32 5.7-14.44 8.74l-.56 1.98c-2.24 2.76-5.29 3.72-8.6 5.25-24.1-10.99-54.65-24.78-79.25-32.95-7.95-2.26-18.53-5.2-25.93-8.65-.86-.34-6.38-2.56-6.36-3.4.14-5.6 2.8-12.49 4.35-17.94 12.77-45.29 27.28-90.07 43.49-134.24 2.56-6.87 18.24-46.58 17.22-51.65l-.62-2.47c6.97-6.69 18.82-42.986 23.36-54.312 1.26-4.35 2.11-7.212 4.04-11.397l-.57-1.53c4.12-2.938 4.1-18.951 4.37-23.958.43-2.482.93-2.696 3.02-4.087 7.19-.717 14.68-.645 21.39-2.238"/><path fill="#3b4651" d="M1420.62 940.678c11.2.601 4.49 1.603 6.79 9.774 1.5 5.335-.96 20.929-.31 22.744l.38-.264 1.6 1.349.26 2.328c-1.2 3.035-1.58 2.727-.38 5.689 1.85 3.01 2.62 3.792 5.09 6.391l-.99 2.109c5.12 25.612 17.9 51.922 25.21 77.062 13.77 47.35 30.09 93.77 42.42 141.53 1.78 6.86 11.78 31.72 11.51 36.66-2.49 1.87-3.03 1.8-6 2.6l-2.14-3.59c-4.97-6.76-18.15-9.83-25.88-13.08-19.06-8.01-40.81-14.32-58.58-25.04 3.33-58.1 7.78-115.27 7.03-173.55-.12-9.89 1.79-36.109-.64-44.248-1.57-2.655-.78-3.286-2.96-6.261l-.69 1.192c-.68 1.111-.97 2.116-1.09 3.402-1.74 5.083-3.63 20.135-4.21 26.125-5.77 59.44-6.97 121.79-7.61 181.41-6.41 3.15-13.54 7.45-20.14 10.88-2.55-58.67-2.38-122.95 1.49-181.4.59-9 4.62-47.332 1.63-51.999l-.57-1.53c4.12-2.938 4.1-18.951 4.37-23.958.43-2.482.93-2.696 3.02-4.087 7.19-.717 14.68-.645 21.39-2.238"/><path fill="#3b4651" d="M1420.62 940.678c11.2.601 4.49 1.603 6.79 9.774 1.5 5.335-.96 20.929-.31 22.744-2.34 1.162-2.33 1.388-4.82.764-3.7-3.976-20.61-30.456-26.07-26.957.43-2.482.93-2.696 3.02-4.087 7.19-.717 14.68-.645 21.39-2.238"/><path fill="#47515a" d="M1420.62 940.678c11.2.601 4.49 1.603 6.79 9.774 1.5 5.335-.96 20.929-.31 22.744-2.34 1.162-2.33 1.388-4.82.764-.4-5.864-1.84-7.758-1.25-13.979.39-4.075 4.51-11.666 3.43-14.533-.95.404-1.94.696-2.93 1.004-.64-2.338-.68-3.346-.91-5.774"/><path fill="#c97f4c" d="M1396.21 947.003c.43-2.482.93-2.696 3.02-4.087 7.77 5.888 12.66 12.55 18.85 19.999.91-4.81 3.17-12.231 3.45-16.463.99-.308 1.98-.6 2.93-1.004 1.08 2.867-3.04 10.458-3.43 14.533-.59 6.221.85 8.115 1.25 13.979-3.7-3.976-20.61-30.456-26.07-26.957"/><path fill="#3b4651" d="M1388.37 983.888c3.7 7.352-1.41 47.312-2.05 57.832-3.39 55.45-.91 111.1-.3 166.48-15.35 7.43-30.8 14.64-46.35 21.62-6.85 3.11-25.46 11.1-30.51 14.89-.67 2-.65 1.83-2.23 3.19-.86-.34-6.38-2.56-6.36-3.4.14-5.6 2.8-12.49 4.35-17.94 12.77-45.29 27.28-90.07 43.49-134.24 2.56-6.87 18.24-46.58 17.22-51.65l-.62-2.47c6.97-6.69 18.82-42.986 23.36-54.312m-50.16 264.982c20.5-2.23 53.09-10.43 72.05-18.02 2.57-1.03 33.54 7.64 37.6 9.3 11.65 4.76 28.94 4.6 39.48 8.6 4.82.28 12.19-2.15 16.72-3.69l2.14 3.59c-21.97 3.44-55.35 24.4-70.49 24.88-4.95 3.58-10.32 5.7-14.44 8.74-3.39 1.11-7.95 4.2-11.28 2.72-25.79-11.41-53.42-21.96-78.93-33.67 2.4-1.15 4.61-1.68 7.15-2.45"/><path fill="#494745" d="M1487.34 1248.75c4.82.28 12.19-2.15 16.72-3.69l2.14 3.59c-21.97 3.44-55.35 24.4-70.49 24.88 5.65-3.25 12.58-5.54 18.32-8.46l1-.49 1-.51 1-.49c9.65-4.81 20.64-10.44 30.31-14.83"/><path fill="#3b4651" d="M1423.96 1003.89c-.07 70.41-1.62 142.07-8.8 212.13-.5-4.63.27-6.27-2.02-10.22-3.08-32.79 1.65-82 2.29-116.12.29-15.17 2.32-64.18 5.34-76.74 2.91-2.76 2.4-4.39 3.03-8.14zm-117.03 244.01c1.58-1.36 1.56-1.19 2.23-3.19 3.23 1.54 23.09 9.18 24.07 10.84-.02.43.05.14-.37 1-7.95-2.26-18.53-5.2-25.93-8.65"/><path fill="#47515a" d="M1421.25 987.475c.12-1.286.41-2.291 1.09-3.402l.69-1.192c2.18 2.975 1.39 3.606 2.96 6.261-1.78 2.773-1.77 11.138-2.03 14.748l-.16.91c-.63 3.75-.12 5.38-3.03 8.14.31-6.79.84-12.3 1.82-19.067-.46-2.13-.91-4.263-1.34-6.398"/><path fill="#a27a65" d="M1421.25 987.475c.12-1.286.41-2.291 1.09-3.402l.69-1.192c.09 4.009.31 7.003-.44 10.992-.46-2.13-.91-4.263-1.34-6.398"/><path fill="#31373d" d="M1413.14 1205.8c2.29 3.95 1.52 5.59 2.02 10.22.14 2.76.19 6.67-.82 9.27l-.98.71.42.16c-2.94.8-1.15-16.88-.91-18.45z"/><path fill="#494745" d="m1331.06 1251.32-1.63-.73c-10.48-4.59 7.52-1.77 8.78-1.72-2.54.77-4.75 1.3-7.15 2.45"/><path fill="#3b4651" d="m1387.53 1210.14.82 1.18c5.61 8.38 11.18 11.7 19.33 17.44-24.08 7.5-44.99 17.88-71.19 18.12-2.71.02-7.74-.47-9.77.16-4.88.02-17.62-1.27-6.1-5.57 18.07-9.41 47.92-22.7 66.91-31.33"/><path fill="#3b4651" d="M1320.62 1241.47c3.37 2.24 3.41 2.61 6.1 5.57-4.88.02-17.62-1.27-6.1-5.57m98.46-31.95c8.48 4.48 79.93 33.93 79.9 33.84l-.52.79-.62.66-1.31.18c-19.01 2.82-59.91-10.78-79.5-16.33 1.35-6.75 1.83-12.25 2.05-19.14m-11.22-11.31c2.57 1.41 1.99 25 2.18 29.47-4.4-2.94-6.04-4.31-10.15-7.63-4.4-4.28-6.62-7.17-10.26-12.04 6.19-3.24 11.86-6.52 18.23-9.8"/><path fill="#c97f4c" d="m656.395 947.534 3.232 1.538c.534 8.93-.534 16.567-.172 24.205-1.025 1.865-1.518 1.405-1.831 1.944-3.089 5.331 3.799 5.778 4.431 11.799 2.437 11.015 2.565 13.33 12.071 19.99l-.756 1.39-7.874-5.52c16.828 51.25 32.179 101.68 46.068 153.79 8.143 30.55 21.062 64.93 28.433 95.19l-13.214 4.5c-6.485 1.51-23.883 7.85-27.632 8.31-5.147 2.72-18.303 6.84-24.756 9.54-12.651 5.3-24.707 10.96-37.206 16.48-23.76-11.42-55.382-28.08-79.333-35.71-3.717-.9-18.04-4.93-20.111-5.09-3.34-1.4-7.151-2.56-10.618-3.7 12.309-36.75 21.371-71.57 34.491-109.07a7445 7445 0 0 1 26.883-75.89c2.545-7.05 13.027-35.28 13.985-40.92l-1.685-2.11c9.705-12.71 12.404-21.153 18.446-35.891-.013-1.938.529-3.71.998-5.585l-.483-.751 3.289-1.99c.873-3.196 2.33-12.315 3.009-15.94-.039-4.515-1.657-8.25 3.013-8.849 11.794-.102 15.884-.461 27.322-1.66"/><path fill="#3b4651" d="m656.395 947.534 3.232 1.538c.534 8.93-.534 16.567-.172 24.205-1.025 1.865-1.518 1.405-1.831 1.944-3.089 5.331 3.799 5.778 4.431 11.799 2.437 11.015 2.565 13.33 12.071 19.99l-.756 1.39-7.874-5.52c16.828 51.25 32.179 101.68 46.068 153.79 8.143 30.55 21.062 64.93 28.433 95.19l-13.214 4.5-3.642-1.86 11.434-5.54c-27.207-12.95-58.903-26.39-86.737-39l.136-.88c2.097-14.51 3.246-58.15 4.126-73.92 1.192-21.34 11.11-131.42 2.535-142.902l-3.204-.71c-2.273 3.495-4.165 21.102-4.839 26.142a1268 1268 0 0 0-11.409 181.51c-6.753 3.88-9.702 5.24-16.964 8.09-2.003-53.22-1.951-106.5.155-159.72.471-13.02 5.631-61.183 4.164-69.365l-2.293-1.481-.483-.751 3.289-1.99c.873-3.196 2.33-12.315 3.009-15.94-.039-4.515-1.657-8.25 3.013-8.849 11.794-.102 15.884-.461 27.322-1.66"/><path fill="#3b4651" d="M629.073 949.194c11.794-.102 15.884-.461 27.322-1.66-4.697 5.813-8.738 11.66-13.405 17.51-2.791-3.451-13.255-13.193-13.917-15.85"/><path fill="#c97f4c" d="m656.395 947.534 3.232 1.538c-4.949 3.324-10.075 11.56-13.644 16.724 1.754 4.283 3.218 6.718 4.707 11.21l.473 1.401c-2.743-3.159-19.841-23.422-22.071-24.482-1.527.136-2.474 3.01-3.032 4.118-.039-4.515-1.657-8.25 3.013-8.849.662 2.657 11.126 12.399 13.917 15.85 4.667-5.85 8.708-11.697 13.405-17.51"/><path fill="#3b4651" d="M619.247 982.309c1.705 10.144-3.411 51.461-3.951 66.181a1942 1942 0 0 0-.696 161.53c-20.623 10.16-56.233 26.53-77.841 35.19l.986 4.68c-3.34-1.4-7.151-2.56-10.618-3.7 12.309-36.75 21.371-71.57 34.491-109.07a7445 7445 0 0 1 26.883-75.89c2.545-7.05 13.027-35.28 13.985-40.92l-1.685-2.11c9.705-12.71 12.404-21.153 18.446-35.891m32.59 13.125q1.005 2.468 2.046 4.916c.713 7.8 1.108 15.63 1.184 23.46.716 47.41-7.197 95.02-7.73 142.55-.075 6.63-.517 38.5-3.514 41.59-4.955-3.55-5.926-6.79-5.856-12.7.786-66.3 4.273-134.25 13.87-199.816"/><path fill="#47515a" d="m537.745 1249.89-.986-4.68 1.845.74c4.421 1.72 18.372 5.03 19.252 9.03-3.717-.9-18.04-4.93-20.111-5.09"/><path fill="#494745" d="m723.141 1254.5 3.642 1.86c-6.485 1.51-23.883 7.85-27.632 8.31.526-1.86 20.943-9.41 23.99-10.17"/><path fill="#60483e" d="m651.431 991.548 3.204.71c-.822 3.775-.665 4.21-.752 8.092a343 343 0 0 1-2.046-4.916q-.216-1.942-.406-3.886"/><path fill="#3b4651" d="M636.291 1232.23c6.084-1.84 52 13.01 61.721 14.74 10.732 1.9 15.601 3.15 27.558 3.16-13.56 6.58-30.053 11.79-44.19 17.64-13.918 5.76-27.453 11.91-41.17 18.11-7.817 2.87-61-27.56-72.373-31.23-3.979-1.28-9.597-4.6-15.067-6 33.093-4.39 51.095-9.04 83.521-16.42m-22.685-19.16c.945.12 18.71 14.36 21.974 16.53-21.6 6.69-46.27 11.4-68.581 15.16-5.186.5-9.957 1.37-15.005 2.31-1.64.31-5.146-.44-6.282-1.68-.141-.16-.236-.71 0-.84 21.706-11.61 45.543-21.04 67.894-31.48"/><path fill="#3b4651" d="M647.417 1212.89c22.47 8.64 49.457 22.56 72.834 32.36l.884.38c12.659 4.15 2.748 4.82 1.795 4.34-1.138-2.61-8.586-1.86-12.492-2.62-19.291-1.95-43.698-12.16-64.72-16.11z"/><path fill="#655a51" d="M721.135 1245.63c12.659 4.15 2.748 4.82 1.795 4.34-1.138-2.61-8.586-1.86-12.492-2.62 4.395-.36 7.039.52 10.697-1.72"/><path fill="#3b4651" d="M633.458 1202.88c3.663 1.19 2.508 20.28 2.568 24.32l-8.076-5.93c-4.823-4.5-6.027-5.77-9.606-11.09 5.195-2.69 9.955-4.78 15.114-7.3"/><path fill="#47515a" d="M638.162 1207.6c9.794 4.81 6.1 9.15 4.502 20.11-5.708 5.33-4.538-18.26-4.502-20.11"/><path fill="#c97f4c" d="M425.944 890.876c3.643-.643 7.52-1.146 11.215-1.71-.445 8.202-1.343 26.832-.447 34.585 3.571-4.984 10.319-15.565 17.642-14.181 2.774 4.711-.356 10.299-2.691 14.765l.286 1.121c-2.458 1.423-2.413 1.407-5.163 2.102l-1.878.272c-3.79.195-4.542-.093-2.641 2.853l-.681 1.601c-5.568.427 2.51 11.261 4.282 13.798l-1.496 1.696c2.297 13.298 12.83 34.282 16.876 47.728 9.297 30.894 17.787 62.574 27.556 93.284a5012 5012 0 0 1 21.593 68.37c2.767 8.96 7.245 22.06 9.396 30.91-10.797 4.61-30.982 11.84-42.557 15.51-9.407 4.12-19.08 7.36-28.396 11.7-9.962 4.65-19.094 10.05-29.094 14.72-26.9-12.92-47.308-24.76-75.932-35.51-3.933-.92-7.626-2.08-11.491-3.04-5.799-2.25-12.097-3.55-18.174-5.02 7.369-34.89 25.027-73.49 32.774-107.89 3.52-15.64 32.719-87.948 32.392-97.843l-1.7-1.891c7.473-10.817 14.525-33.379 20.04-46.966.751-3.745 2.958-7.793 4.946-11.008.476-1.57.387-1.432-.208-3.015 2.502-9.227 3.754-16.424 5.249-25.827 6.395-1.033 11.843-.991 18.302-1.114"/><path fill="#3b4651" d="M425.944 890.876c3.643-.643 7.52-1.146 11.215-1.71-.445 8.202-1.343 26.832-.447 34.585 3.571-4.984 10.319-15.565 17.642-14.181 2.774 4.711-.356 10.299-2.691 14.765l.286 1.121c-2.458 1.423-2.413 1.407-5.163 2.102l-1.878.272c-3.79.195-4.542-.093-2.641 2.853l-.681 1.601c-5.568.427 2.51 11.261 4.282 13.798l-1.496 1.696c2.297 13.298 12.83 34.282 16.876 47.728 9.297 30.894 17.787 62.574 27.556 93.284a5012 5012 0 0 1 21.593 68.37c2.767 8.96 7.245 22.06 9.396 30.91-10.797 4.61-30.982 11.84-42.557 15.51 4.71-7.5 30.775-12.6 30.86-20.04-3.576-3.46-12.678-4.93-17.901-7.36-18.223-8.49-45.449-21.81-64.334-27.56 4.776-41 5.074-84.56 7.233-125.81.671-12.82 4.663-86.197-.992-91.149-3.91 3.525-4.185 21.808-5.306 27.781-10.85 57.828-7.061 116.608-8.798 175.348-6.129 3.92-11.977 7.24-18.31 10.82-2.257-26.46-1.148-56.37-1.672-82.98-.554-28.18-.309-55.33.352-83.421.322-13.662 5.669-47.058 4.233-58.377.476-1.57.387-1.432-.208-3.015 2.502-9.227 3.754-16.424 5.249-25.827 6.395-1.033 11.843-.991 18.302-1.114"/><path fill="#47515a" d="M425.944 890.876c3.643-.643 7.52-1.146 11.215-1.71-.445 8.202-1.343 26.832-.447 34.585-3.331-.26-5.41-.45-6.283-3.894-.792-3.378-1.819-6.666-2.995-9.928 2.603-6.453 6.953-12.703 6.077-18.279-2.795-.144-4.792-.394-7.567-.774"/><path fill="#c97f4c" d="M433.511 891.65c.876 5.576-3.474 11.826-6.077 18.279 1.176 3.262 2.203 6.55 2.995 9.928-7.254-6.684-11.706-12.922-17.607-20.646.539.706-6.401-7.745-2.939-6.196 5.08 2.274 10.809 10.289 15.043 14.73 4.075-6.549 5.401-10.383 8.585-16.095"/><path fill="#fbfbfa" d="M449.237 912.623c9.667 1.096-.161 11.004-3.718 13.631-10.457-3.89-3.154-8.789 3.718-13.631"/><path fill="#3b4651" d="M397.655 931.84c3.742 6.559-.168 24.659-.695 33.255-3.715 60.555-2.506 123.335-.801 183.955-10.414 4.57-67.118 31.12-69.648 36.03 2.172 1.68 2.116 1.59 4.721 2.54l1.091 3.83c-5.799-2.25-12.097-3.55-18.174-5.02 7.369-34.89 25.027-73.49 32.774-107.89 3.52-15.64 32.719-87.948 32.392-97.843l-1.7-1.891c7.473-10.817 14.525-33.379 20.04-46.966"/><path fill="#494745" d="M331.232 1187.62c2.371.67 14.396 3.5 12.582 6.87-3.933-.92-7.626-2.08-11.491-3.04z"/><path fill="#3b4651" d="m420.819 1169.2 3.69.59c21.847 3.44 50.874 13.21 76.575 17.78-22.784 9.54-58.879 28.1-80.512 39.89.374-.01-74.752-36.23-78.77-39.04 27.592-3.34 52.489-11.13 79.017-19.22"/><path fill="#3b4651" d="M396.488 1150.87c-1.039-.23 19.907 14.79 21.745 16.01-15.428 6.66-49.182 15.23-66.006 17.78-5.802.67-18.471.63-24.592.66a1804 1804 0 0 1 68.853-34.45m35.367-189.036a2271 2271 0 0 1-4.38 125.526c-.465 8.1-1.736 40-2.956 47.04-.875 8.74-.5 9.38-2.254 18.04-1.078-7.87-1.516-10.51-1.121-18.6 1.091-30.44-.851-141.783 7.618-163.494 1.214-3.083 1.712-5.338 3.093-8.512"/><path fill="#31373d" d="M421.144 1133.84c1.882-.78 1.351-.99 2.052-3.31.291.06.153-.02.39.29l-.281.4-.032.39.856.84c.008.42.171 1.21.39 1.95-.875 8.74-.5 9.38-2.254 18.04-1.078-7.87-1.516-10.51-1.121-18.6"/><path fill="#3b4651" d="M426.274 1151.65c25.189 10.21 51.716 20.8 76.697 31.37l-5.572 1.43c-3.221-.56-6.107-.53-9.41-1.21-21.5-4.46-42.464-11.53-64.011-16.01 1.034-5.38 1.709-10.1 2.296-15.58m-10.629-12.77c4.291 1.46 1.48 19.78 1.265 24.37-2.575-1.44-5.11-2.9-7.599-4.49-5.746-4.59-5.011-4.28-9.765-10.06 6.262-4.03 9.588-6.22 16.099-9.82"/><path fill="#494745" d="M428.762 970.346c.195-3.479 1.643-33.594 1.525-33.471 2.892 1.114 1.702 21.438 1.568 24.959-1.381 3.174-1.879 5.429-3.093 8.512"/><path fill="#31373d" d="M421.332 1149.76c3.515 3.66 1.585 10.27.423 14.68-3.452-2.84-1.305-10.78-.423-14.68"/><path fill="#655a51" d="M502.971 1183.02c1.625-.71 4.979 3.29.632 2.74-2.165-.28-4.073-.79-6.204-1.31z"/><path fill="#c97f4c" d="M204.88 830.699c4.01-.048 20.595-1.48 24.57-.322.738.215-.122 4.711-.394 6.019l-1.527-1.777c-.374 2.449.105 5.306-2.17 6.377a428 428 0 0 1-3.266 5.943c.152 2.895.282 3.321.883 6.222l-.744 3.054 3.821 3.146c.91 4.948 5.161 3.534 7.915.832l.278 1.116c1.777 1.524 1.96 1.381 4.275 2.093-1.829.467-3.411.986-5.201 1.562-1.817.635-1.918.322-1.26 2.294.059 4.989 2.52 9.747 6.044 13.181l.731.702-1.287 1.006-.993 1.574c2.14 8.562 5.52 16.417 8.336 24.771 4.256 12.62 8.383 25.3 12.531 37.96a4503 4503 0 0 0 62.434 179.538c-14.562 4.76-43.138 15.76-56.48 19.38-5.265 2.49-14.345 5.52-20.334 8.17-10.732 4.74-18.272 8.69-28.347 14.38-18.445-9.96-61.029-30.54-79.468-36.23a139 139 0 0 1-25.05-7.64c2.549-13.51 7.814-30.37 11.706-43.74a2013 2013 0 0 1 35.56-108.716c2.846-8.064 18.707-50.095 19.114-54.624l-1.045.561-1.825-1.643c8.963-9.848 12.535-27.134 17.436-40.184l.292-.759c.35-2.563 4.619-15.397 5.76-18.618l2.653-.942.011-.98-1.01-.094c.986-4.334 3.505-21.802 6.051-23.612"/><path fill="#3b4651" d="M204.88 830.699c4.01-.048 20.595-1.48 24.57-.322.738.215-.122 4.711-.394 6.019l-1.527-1.777c-.374 2.449.105 5.306-2.17 6.377a428 428 0 0 1-3.266 5.943c.152 2.895.282 3.321.883 6.222l-.744 3.054 3.821 3.146c.91 4.948 5.161 3.534 7.915.832l.278 1.116c1.777 1.524 1.96 1.381 4.275 2.093-1.829.467-3.411.986-5.201 1.562-1.817.635-1.918.322-1.26 2.294.059 4.989 2.52 9.747 6.044 13.181l.731.702-1.287 1.006-.993 1.574c2.14 8.562 5.52 16.417 8.336 24.771 4.256 12.62 8.383 25.3 12.531 37.96a4503 4503 0 0 0 62.434 179.538c-14.562 4.76-43.138 15.76-56.48 19.38 3.752-4.42 40.185-19.67 47.618-21.8-8.044-4.45-21.263-9.03-30.228-12.98-19.276-8.49-38.999-16.52-58.082-25.47 5.595-46.28 5.304-94.356 5.958-140.886.185-13.208 4.45-65.059-2.685-72.518l-1.335.211-.534 2.671c-1.205 3.852-2.116 7.174-1.895 11.227-1.117 26.196-5.958 56.179-7.181 83.662-1.569 35.273-2.367 66.513-1.301 101.993-6.477 3.69-12.981 7.32-19.512 10.91-.226-29.29-2.364-60.17-2.828-89.889-.742-47.574 4.678-90.495 8.457-137.116l.011-.98-1.01-.094c.986-4.334 3.505-21.802 6.051-23.612"/><path fill="#3b4651" d="M204.88 830.699c4.01-.048 20.595-1.48 24.57-.322.738.215-.122 4.711-.394 6.019l-1.527-1.777c-.374 2.449.105 5.306-2.17 6.377a428 428 0 0 1-3.266 5.943l-.742-.541c-5.379-3.866-11.3-10.842-16.471-15.699"/><path fill="#a27a65" d="M225.359 840.996c-.174-1.481-.309-6.805 1.144-7.456.562.151.589.465 1.026 1.079-.374 2.449.105 5.306-2.17 6.377"/><path fill="#c97f4c" d="M198.829 854.311c.986-4.334 3.505-21.802 6.051-23.612 5.171 4.857 11.092 11.833 16.471 15.699l.742.541c.152 2.895.282 3.321.883 6.222l-.744 3.054c-6.549-8.597-9.263-13.884-17.117-22.28-1.069 6.304-2.579 14.673-5.276 20.47z"/><path fill="#3b4651" d="M191.415 874.945c2.366 2.19 2.529 1.436 2.452 4.903-.459 20.678-4.003 44.714-4.331 65.16-.711 44.37-1.199 95.692 2.063 139.722-12.864 7.18-24.905 13.85-38.069 20.4-10.268 5.11-23.767 10.64-33.437 16.02 3.976 2.12 13.748 6.93 16.467 9.65l-1.333.89a139 139 0 0 1-25.05-7.64c2.549-13.51 7.814-30.37 11.706-43.74a2013 2013 0 0 1 35.56-108.716c2.846-8.064 18.707-50.095 19.114-54.624l-1.045.561-1.825-1.643c8.963-9.848 12.535-27.134 17.436-40.184zm30.778 10.88c-.221-4.053.69-7.375 1.895-11.227.563 1.209.899 2.088 1.355 3.337 2.942 20.475-.619 185.825-5.864 200.275l-1.462.9c-8.451-10.76 3.951-158.698 6.052-181.908-.072-1.604.09-11.173-.959-11.754-.459.057-.151-.021-1.017.377"/><path fill="#806250" d="M222.193 885.825c-.221-4.053.69-7.375 1.895-11.227.563 1.209.899 2.088 1.355 3.337-.907 6.456.073 11.421-1.274 19.267-.072-1.604.09-11.173-.959-11.754-.459.057-.151-.021-1.017.377"/><path fill="#3b4651" d="M213.174 1107.87c8.803 1.67 23.14 5.85 32.234 8.15a915 915 0 0 0 48.282 10.88c-25.512 12.68-50.213 22.29-75.445 36.09-1.329.55-3.742 1.39-5.132.76-25.417-11.51-50.133-24.64-74.874-37.53 33.976-2.36 43.965-5.85 74.935-18.35"/><path fill="#3b4651" d="M191.329 1086.76c7.66 10.54 9.39 11.85 20.9 19.06-24.395 9.13-37.149 14.05-63.555 17.08-2.945.05-22.072 1.77-21.767-2.31-.407.62 57.241-28.91 64.422-33.83m30.95.84c18.659 9.29 39.469 16.42 58.194 25.92 4.165 2.11 22.654 6.98 21.973 10.34-23.068 1.09-53.61-8.96-76.338-15.23l-6.577-1.84c.874-6.4 1.449-12.87 2.748-19.19m-11.475-11.82c3.476 2.59 1.127 21.31 1.002 26.8-2.789-1.75-4.713-2.96-7.399-4.92-14.789-13.21-11.09-13.73 6.397-21.88"/><path fill="#31373d" d="M216.473 1081.72c4.417 3.7 1.242 17.35.151 22.59-3.854.3-.488-19.73-.151-22.59"/><path fill="#fbfbfa" d="M573.924 985.713c15.328-9.211 30.965-16.117 49.127-11.73l-3.289 1.99.483.751c-.469 1.875-1.011 3.647-.998 5.585-6.042 14.738-8.741 23.181-18.446 35.891l1.685 2.11c-1.075 1.02-1.569 1.41-2.476 2.7-8.889 14.62-38.413 40.02-57.021 34.15-28.886-9.11-11.014-45.67 7.07-56.64 9.597-5.832 14.916-10.257 23.865-14.807"/><path fill="#31373d" d="M602.486 1020.31c-1.075 1.02-1.569 1.41-2.476 2.7-8.889 14.62-38.413 40.02-57.021 34.15-28.886-9.11-11.014-45.67 7.07-56.64 9.597-5.832 14.916-10.257 23.865-14.807l.087 2.588c-16.272 8.41-37.988 22.039-42.586 39.989-7.426 28.98 20.721 33.71 40.239 19.41 12.914-9.47 19.998-16.79 29.137-29.5z"/><path fill="#31373d" d="M573.924 985.713c15.328-9.211 30.965-16.117 49.127-11.73l-3.289 1.99c-15.51-4.417-32.786 4.659-45.751 12.328z"/><path fill="#fbfbfa" d="M175.512 917.531c-10.776 7.554-17.602 18.79-31.896 22.878-27.9 7.98-39.341-16.281-25.181-38.985a61 61 0 0 1 10.871-13.114c12.385-11.238 38.15-25.242 54.198-31.249 1.958-.733 13.068-2.568 15.325-2.75l1.01.094-.011.98-2.653.942c-1.141 3.221-5.41 16.055-5.76 18.618l-.292.759c-4.901 13.05-8.473 30.336-17.436 40.184z"/><path fill="#31373d" d="M175.512 917.531c-10.776 7.554-17.602 18.79-31.896 22.878-27.9 7.98-39.341-16.281-25.181-38.985a61 61 0 0 1 10.871-13.114c12.385-11.238 38.15-25.242 54.198-31.249 1.958-.733 13.068-2.568 15.325-2.75l1.01.094-.011.98-2.653.942c-3.563.778-13.65 2.871-16.447 4.3-21.042 10.75-49.465 22.921-61.871 43.784-6.712 11.289-6.753 27.848 6.214 33.635 18.971 7.869 36.536-10.422 48.616-22.158z"/><path fill="#fbfbfa" d="M1365.63 1040.67c-.68.41-1.14.68-1.75 1.22-12.78 11.31-36.95 23.08-51.33 7.96-3.73-3.92-5.46-11.48-4.51-16.85 2.17-12.21 10.6-22.92 20.35-30.22 14.88-11.429 44.88-30.254 63.45-31.819l.57 1.53c-1.93 4.185-2.78 7.047-4.04 11.397-4.54 11.326-16.39 47.622-23.36 54.312z"/><path fill="#31373d" d="M1365.63 1040.67c-.68.41-1.14.68-1.75 1.22-12.78 11.31-36.95 23.08-51.33 7.96-3.73-3.92-5.46-11.48-4.51-16.85 2.17-12.21 10.6-22.92 20.35-30.22 14.88-11.429 44.88-30.254 63.45-31.819l.57 1.53-5.89 1.652c-22.96 6.619-61.66 28.467-73.23 49.017-12.39 22.01 7.9 38.52 29.61 29.25 10.63-4.53 13.4-6.85 22.11-14.21z"/><path fill="#47515a" d="M8.022 1120.19c8.044-.03 93.486 26.84 107.73 31.15l421.979 125.18 118.048 34.28c29.738 8.43 62.302 17.4 91.736 27.51 1.274.44 1.269 2.29 1.603 3.65-12.664-.68-45.979-12.47-60.305-16.54l-154.608-44.81-315.336-93.6-95.934-28.79c-15.916-4.64-111.582-31.23-114.913-38.03m2024.208-.19 1.64.27.53 1.44c-2.65 3.4-15.73 7.72-20.36 8.91-39.61 10.22-78.85 22.04-118.09 33.66l-275.5 81.73-224.04 65.66c-33.1 9.69-66.91 20.27-100.17 29.22-1.83-.17-.99.19-2.45-1.26 5.35-7.37 101.14-32.22 116.53-36.67l155.26-45.95 347.56-102.91 80.52-23.07c13.21-3.79 25.49-6.64 38.57-11.03"/><path fill="#fbfbfa" d="M402.393 917.817c.595 1.583.684 1.445.208 3.015-1.988 3.215-4.195 7.263-4.946 11.008-5.515 13.587-12.567 36.149-20.04 46.966l1.7 1.891c-3.374 2.324-9.385 9.302-13.178 12.486-33.201 28.127-61.525 1.135-35.741-33.791 11.243-14 26.913-23.439 42.109-32.394 11.786-6.945 17.322-7.227 29.888-9.181"/><path fill="#31373d" d="M402.393 917.817c.595 1.583.684 1.445.208 3.015-13.696.104-17.905 3.007-28.809 8.332-18.618 9.092-65.363 41.865-48.177 67.287 13.635 20.169 43.706-7.983 52-17.645l1.7 1.891c-3.374 2.324-9.385 9.302-13.178 12.486-33.201 28.127-61.525 1.135-35.741-33.791 11.243-14 26.913-23.439 42.109-32.394 11.786-6.945 17.322-7.227 29.888-9.181m-174.864-83.198 1.527 1.777c-.008 8.893-.782 17.307-.975 26.148 1.476-1.485 9.453-10.789 9.917-11.031 20.42-10.642 10.355 8.077 10.369 7.815 1.382 1.996 7.561-1.65 15.62 13.062 6.476.547 10.523.568 17.009 1.629a38.3 38.3 0 0 1 25.476 16.121c13.056 18.89-4.863 37.887-25.979 29.902-15.959-6.035-19.963-16.792-21.338-32.276l-.124-1.294c-8.088 1.454-9.032 1.4-16.746-1.412-1.598-.943-3.158-1.937-4.737-2.913l1.287-1.006-.731-.702c-3.524-3.434-5.985-8.192-6.044-13.181-.658-1.972-.557-1.659 1.26-2.294 1.79-.576 3.372-1.095 5.201-1.562-2.315-.712-2.498-.569-4.275-2.093l-.278-1.116c-2.754 2.702-7.005 4.116-7.915-.832l-3.821-3.146.744-3.054c-.601-2.901-.731-3.327-.883-6.222a428 428 0 0 0 3.266-5.943c2.275-1.071 1.796-3.928 2.17-6.377"/><path fill="#fbfbfa" d="M232.06 867.258c6.348 2.462 12 5.222 18.899 5.928 1.089.112 8.985.707 9.399 1.827 4.452 12.042-8.034 11.232-16.122 8.75l-1.951 1.297c-1.598-.943-3.158-1.937-4.737-2.913l1.287-1.006-.731-.702c-3.524-3.434-5.985-8.192-6.044-13.181"/><path fill="#71727b" d="M238.835 881.141c2.502.929 3.073 1.267 5.401 2.622l-1.951 1.297c-1.598-.943-3.158-1.937-4.737-2.913z"/><path fill="#fbfbfa" d="M238.521 863.402c7.55-.579 18.762-3.665 21.43 6.284 2.04 7.606-24.942-3.866-26.631-4.722 1.79-.576 3.372-1.095 5.201-1.562m-4.553-3.209c13.665-21.369 25.057.17.278 1.116z"/><path fill="#a27a65" d="M222.976 853.161c.575-2.169 1.029-9.337 2.456-9.889.72.348.644 14.634.621 16.089l-3.821-3.146z"/><path fill="#fbfbfa" d="M263.636 874.469c11.968 1.708 22.115.373 32.509 8.311 10.482 8.006 16.081 21.341 7.181 32.607-10.732 5.73-24.623 5.493-33.4-4.401-11.336-12.779-7.565-21.437-6.29-36.517"/><path fill="#31373d" d="M659.455 973.277c2.818 8.475 18.302-16.933 20.413.886.054 1.066.34 2.867-.154 3.859-.09.047-.141.102-.243.077-.509-.123-.995-1.056-1.158-1.278-1.81 1.075-4.838 3.213-4.585 5.68 3.23 4.57 9.919-7.259 19.979 13.538 16.003 1.518 26.341-.179 38.402 12.971 19.636 21.4-1.002 46.17-25.735 33.42-10.748-5.54-17.273-19.11-16.611-30.96.029-.51.019-1.57-.221-2.03-.371-.21-7.036 3.79-16.172-1.04l.756-1.39c-9.506-6.66-9.634-8.975-12.071-19.99-.632-6.021-7.52-6.468-4.431-11.799.313-.539.806-.079 1.831-1.944"/><path fill="#fbfbfa" d="M662.055 987.02c2.558.628 2.589.908 4.68 2.753 2.486 3.033 3.66 4.094 7.37 5.478 2.713.745 15.51 2.044 15.747 3.649 1.748 11.87-7.964 10.48-15.726 8.11-9.506-6.66-9.634-8.975-12.071-19.99"/><path fill="#fbfbfa" d="M667.654 989.513c-.519-4.765 9.727-4.282 12.356-3.992 7.116.785 18.508 13.837-3.687 8.066l-2.218 1.664c-3.71-1.384-4.884-2.445-7.37-5.478z"/><path fill="#959599" d="m666.735 989.773.919-.26c3.852 2.584 4.274 2.779 8.669 4.074l-2.218 1.664c-3.71-1.384-4.884-2.445-7.37-5.478"/><path fill="#71727b" d="M678.313 976.821c-.355-3.204-.793-3.267 1.555-2.658.054 1.066.34 2.867-.154 3.859-.09.047-.141.102-.243.077-.509-.123-.995-1.056-1.158-1.278"/><path fill="#fbfbfa" d="m718.199 1043.49-1.986-.3c-22.286-3.05-26.308-26.04-22.87-44.541 13.853.509 25.028-.449 35.449 10.581 8.596 9.1 13.037 20.97 2.576 30.67-2.825 2.62-7.008 3.03-10.565 3.6-1.132.46-1.477.46-2.604-.01"/><path fill="#71727b" d="M718.199 1043.49c1.241-.24 1.336-.15 2.604.01-1.132.46-1.477.46-2.604-.01"/><path fill="#fbfbfa" d="M671.862 970.731c3.62 1.626 3.268 11.46-3.443 13.029-1.701-.649-4.816-1.365-5.916-2.81a3 3 0 0 1-.564-2.419c.448-2.314 4.232-4.201 6.099-5.382z"/><path fill="#31373d" d="M1856.68 862.685c1.94-4.006 7.07-13.047 12.28-13.718 16.2-2.086-2.19 11.199 6.64 11.735 3.4.207 9.01 9.105 10.69 11.494 14.8.964 26.26-.896 38.52 11.021 26.18 25.433-7.27 50.524-33.48 27.819-.53-.342-.51-.43-.99-1.042-5.03-6.105-7.79-13.582-8.5-21.431l-.2-1.943c-7.35-.633-11.31.095-17.49-3.73-1-1.067-1.31-1.338-2.07-2.446l-1.37-.672c-2.22-1.62-2.44-2.343-1.26-4.812-1.37-3.7-2.6-3.092-3.46-7.393-3.28-3.444 1.78-2.097.69-4.882"/><path fill="#fbfbfa" d="M1859.45 874.96c-1.37-3.7-2.6-3.092-3.46-7.393 5.15 2.043 9.62 4.096 15.05 5.291 3.27.927 6.76.817 10.02 1.464 2.64.525 1.11 5.499.87 6.789-.91 4.957-8.24 2.185-11.45 1.862-4.38-.44-8.06-5.094-11.03-8.013m31.12-.74c13.32-.357 25.61 2.763 34.72 13.02 9.08 10.215 9.04 20.741-1.99 28.856-41.39 9.871-43.98-38.784-34.59-41.301zm-20.42-13.278c5.64.964 19.56 12.119 6.65 11.111-6.59-1.673-9.77-2.478-16.35-4.753 3.25-2.31 6.31-4.269 9.7-6.358m-1.79-10.43c10.5 2.396 1.12 7.622-3.96 11.658-1.3.56-2.54 1.226-3.82.377-1.19-4.963 4.51-9.514 7.78-12.035"/><path fill="#31373d" d="M1427.48 972.932c4.55-7.98 21.89-13.656 17.33-1.949-.53 1.355-3.88 3.816-4.28 5.022.15.589 0 .331.5.749 5.52.846 4.51-9.649 19.6 7.989 15.39 1.291 33.47 2.952 41.83 17.437 14.14 24.51-8.36 42.41-32.06 28.19-.87-.73-1.75-1.46-2.64-2.17-12.05-13.67-11.39-30.21-12.29-31.269-1.12.021-3.19 1.197-4.39 1.58-4.74 1.509-13.88-5.552-18.02-7.713l.99-2.109c-2.47-2.599-3.24-3.381-5.09-6.391-1.2-2.962-.82-2.654.38-5.689l-.26-2.328z"/><path fill="#fbfbfa" d="M1470.86 1027.67c-6.55-4.88-9.98-12.3-11.73-20.17-.54-2.43-1.06-20.185 2.78-20.048 11.46.408 23.51 1.627 32.47 9.604 8.37 7.044 14.37 21.194 5.55 30.274a20.02 20.02 0 0 1-14.43 5.97c-6.27-.01-8.46-1.12-13.59-4.36zm-41.9-45.372c9.57 2.058 18.6 4.502 28.24 5.459 1.4.14-1.22 7.532-3.45 7.406-2.16.612-3.82 1.74-6.58.632-4.74-1.675-8.92-4.524-13.12-7.106-2.47-2.599-3.24-3.381-5.09-6.391m.12-8.017 1.21-1.559c10.64-13.982 24.42-.194-.95 3.887z"/><path fill="#71727b" d="m1470.86 1027.67 1.05 1.27-1.51 1.43c-.87-.73-1.75-1.46-2.64-2.17z"/><path fill="#fbfbfa" d="M1445.21 975.65c8.07 2.297 6.93 2.701 12.93 9.345-6.1-.28-10.12-.662-16.14-1.156-12-2.75-14.28-6.812-1.6-5.082 1.57.213 3.54-2.166 4.81-3.107"/><path fill="#31373d" d="m451.949 925.456 1.49.36c4.687.27 7.368.986 10.585 4.673.999 1.145 1.65 2.379 2.468 3.644.332.513.696 1.004 1.048 1.503 6.521.476 13.544 1.097 19.95 2.442a36.44 36.44 0 0 1 23.695 16.936c11.209 18.878-6.518 36.926-27.17 29.82-20.757-7.141-19.742-33.293-20.668-34.349-1.055-.27-1.735.216-2.88.416-4.651.812-11.858-1.665-16.095-3.123l1.496-1.696c-1.772-2.537-9.85-13.371-4.282-13.798l.681-1.601c-1.901-2.946-1.149-2.658 2.641-2.853l1.878-.272c2.75-.695 2.705-.679 5.163-2.102"/><path fill="#fbfbfa" d="M445.868 946.082c-1.772-2.537-9.85-13.371-4.282-13.798 5.116 3.286 13.645 6.157 19.905 5.652 4.072-.328 3.358 1.78 3.178 4.919-.562 9.801-12.375 5.564-18.801 3.227"/><path fill="#fbfbfa" d="m451.949 925.456 1.49.36 2.806 2.22a9.56 9.56 0 0 1 6.059 4.429c5.534 9.143-18.014-.655-20.037-1.782-1.901-2.946-1.149-2.658 2.641-2.853l1.878-.272c2.75-.695 2.705-.679 5.163-2.102"/><path fill="#959599" d="m451.949 925.456 1.49.36 2.806 2.22a137 137 0 0 1-9.459-.478c2.75-.695 2.705-.679 5.163-2.102"/><path fill="#fbfbfa" d="M467.837 937.726c9.51.447 22.517 1.492 30.312 7.044 13.258 9.443 18.137 21.223 8.624 34.977-16.972 10.423-35.69-.62-39.552-19.276-1.318-6.371-.289-16.306.616-22.745"/><metadata><recraft-signature>{&quot;signed_by&quot;: &quot;recraft&quot;, &quot;signature_b64&quot;: &quot;zS1tRqN2j15YQAt9MuseiaU2DnwtlOEl73QAvlSm4k/qsbbM+qwbSrfXPLoo2CHAKU1J/ysNQSFYzBB5Z2oiBg==&quot;, &quot;signing_algo&quot;: &quot;Ed25519&quot;, &quot;generation_timestamp&quot;: 1777251477, &quot;identifier&quot;: &quot;6a289c1d-de03-4790-a08b-76ceffcd72ad&quot;}</recraft-signature></metadata></svg>