<svg xmlns="http://www.w3.org/2000/svg" width="1024" height="1024" preserveAspectRatio="none" style="display:block" viewBox="0 0 2048 2048"><defs><linearGradient id="c" x1="255.192" x2="249.909" y1="1741.49" y2="1786.87" gradientUnits="userSpaceOnUse"><stop class="stop0" offset="0" stop-color="#161212"/><stop class="stop1" offset="1" stop-color="#3a464f"/></linearGradient><linearGradient id="b" x1="11.13" x2="4.87" y1="1563.31" y2="1556.69" gradientUnits="userSpaceOnUse"><stop class="stop0" offset="0" stop-color="#1c262b"/><stop class="stop1" offset="1" stop-color="#413b3d"/></linearGradient><linearGradient id="a" x1="1705.25" x2="1707.46" y1="1092.37" y2="1077.99" gradientUnits="userSpaceOnUse"><stop class="stop0" offset="0" stop-color="#121012"/><stop class="stop1" offset="1" stop-color="#414c54"/></linearGradient></defs><path fill="#323a40" d="M598.502 0h848.328c-7.36 22.559-25.67 51.996-42.73 68.247-40.99 39.06-82.12 50.649-136.96 50.358a114.5 114.5 0 0 1-35.49 68.126c-24.23 22.518-52.55 29.021-84.68 27.776-6.42 29.833-24 38.649-52.1 41.537.91 26.618-2.46 33.687-23.22 50.575-1.17 14.808-2.04 35.411-4.61 49.445-32.57-5.355-56.3-4.066-88.332.361a3396 3396 0 0 0-1.827-39.337c-26.068-10.053-38.284-23.75-38.688-52.646-30.607-.959-46.881-15.947-56.9-44.351-54.234 15.672-103.343-16.115-114.21-72.024-1.787-9.195-1.3-18.089-1.012-27.437C684.357 115.999 627.133 77.236 598.502 0"/><path fill="#d59146" d="M1416.81 1000.17c68.08-64.404 192.43-127.516 281.62-156.23 114.05-36.722 233.53-78.693 349.57-106.389v359.159c-49.04-6.61-101.5-10.34-150.87-15.28l-227.11-24.61c-4.03.08-11.82-.73-15.72-1.49-46.46-4.72-92.98-10.8-139.61-15.38l-58.82-5.55c-9.76-.86-20.59-1.17-30.11-2.74-12.13-1.35-81.98-7.47-89.95-6.19l.12-18.78c9.55-2.48 14.88-3.54 24.72-4.94 8.18-7.045 15.96-14.354 24.58-20.906 76.68-58.344 168.37-93.32 257.64-127.543a4080 4080 0 0 1 236.64-82.653l1.53 1.295c-37.4 12.282-72.2 26.407-109.23 39.243-117.42 40.701-239.29 82.83-344.3 150.514-15.92 10.267-33.89 25.416-48.83 37.494 11.41-.281 27.34-.984 38.13.976"/><path fill="#323a40" d="M2010.41 905.546c-1.99-9.225-3.53-16.209 1.21-25.176a20.2 20.2 0 0 1 12.3-10.067c8.88-2.591 16.65.911 24.08 5.275v221.132c-49.04-6.61-101.5-10.34-150.87-15.28l-227.11-24.61c5.32-18.26 22.76-12.4 30.59-17.47 15.16-9.82 19.92-20.72 40.51-.83 14.15-3.64 24.09-.21 36.61 5.81 2.43 1.16 16.51-15.8 21.32-18.48 15.9-8.85 27.56-9.45 44.95-5.18 1.63-26.268 7.34-35.544 28.7-50.257-4.41-3.26-8.58-5.179-9.08-11.051 1.71-4.324 8.54-7.245 12.24-11.514 4.19-4.826-1.57-4.482-2.4-13.449 3.46-8.025 17.6-4.682 24.76-3.249-4.17-6.19-11.79-19.868-4.62-25.984 5.72-.593 8.58 1.974 13.18 5.304.29-7.74 3.28-31.254 19.06-23.952 7.29 3.379 8.97 18.142 10.72 25.965 26.45-29.232 49.02-9.738 22.01 15.552 20.04-.4 22.19-1.192 35.57 13.134 2.84-.553 4.09-2.236 6.58-4.297-5.12-6.269-8.53-9.059-8.92-17.747-.54-12.129 8.47-13.834 18.61-13.579"/><path fill="#f8f7f6" d="M2048 764.819v11.179c-30.97 9.503-62.9 20.63-93.84 30.554-137.79 44.211-224.64 79.247-324.73 185.092-18.3 3.032-26.99 4.635-41.96 15.786-5.1-6.49-7.15-8.152-13.4-13.057 151.48-152.818 286.24-158.015 473.93-229.554"/><path fill="#f8f7f6" d="M2048 740.414v8.015c-46.06 13.781-92.33 26.781-138.25 41.065-26.82 7.867-53.7 19.325-80.31 27.343-83.31 25.094-164.56 51.49-237.75 100.125-37.99 25.247-73.7 50.749-106.93 82.783-24.14-2.787-32.99.315-55.78 7.085 12.8-15.473 35.03-31.457 51.12-43.332 95.6-70.551 206.58-113.343 319.47-147.226 18.29-6.215 36.72-12.149 54.98-18.43 63.67-21.895 128.63-39.203 193.45-57.428m-401.55 252.959c74.36-79.82 165.47-130.373 267.59-167.445 43.2-15.681 91.75-28.784 133.96-45.255v11.143c-117.2 38.552-222.51 79.082-315.97 163.875-17.39 15.782-36.72 38.394-52.16 56.339-11.53-10.27-18.87-14.245-33.42-18.657"/><path fill="#f8f7f6" d="M2048 797.312v17.216c-44.74 17.141-88.26 36.391-129.9 60.232-5.76 2.028-13 2.533-18.78 4.152-32.98 9.242-74.89 45.193-84.81 78.766-29.22 11.644-44.87 24.852-56.48 54.952-18.79-10.39-30.46-12.61-51.92-9.7 79.78-95.766 226.17-166.16 341.89-205.618m-547.87 207.478c54.47-57.798 145.49-115.582 218.48-145.162 65.02-26.348 137.43-45.069 203.93-69.42 39.59-14.497 84.86-25.01 125.46-38.709v8.862c-15.83 5.882-36.62 12.033-53.04 17.428a4873 4873 0 0 1-123.24 39.107c-78.03 23.877-151.61 47.187-219.97 93.835-35.18 24.013-62.14 49.542-93.3 77.551-21.87 1.857-37.59 10.653-58.32 16.508"/><path fill="#323a40" d="M1462.22 1028.27c29.29-12.17 73.18-25.15 101.42-4.87 30.27-3.52 71.29 6.93 90.66 31.93-46.46-4.72-92.98-10.8-139.61-15.38l-58.82-5.55c-9.76-.86-20.59-1.17-30.11-2.74 12.23-9.32 22.8-13.9 36.46-3.39"/><path fill="#f8f7f6" d="M2048 822.039v20.02c-26.38 9.031-63.29 30.061-80.27 52.121-10.18-9.543-14.35-12.441-26.89-18.174 37.02-24.195 66.74-37.71 107.16-53.967"/><path fill="#d59146" d="M0 736.157c35.162 8.346 69.804 19.644 104.12 30.861a4238 4238 0 0 1 112.557 37.961c80.646 28.333 166.957 53.295 238.506 101.161 27.052 18.098 56.092 41.013 78.955 64.35 12.945 13.213 25.798 29.7 38.982 42.01 10.973.21 26.703.16 37.317 1.18-42.508-73.214-159.883-136.186-236.583-165.035-32.088-12.069-66.58-19.232-99.039-30.362-62.131-22.866-124.349-45.573-187.9-64.338l1.621-1.254a1826 1826 0 0 1 99.913 30.517c49.438 16.65 94.473 34.525 145.449 47.322 105.012 26.361 221.628 90.182 290.182 174.85 11.603-3.48 29.514-3.08 41.11-.27-16.379-19.068-35.835-35.169-55.376-50.798-64.613-51.68-139.312-86.863-217.076-113.98-27.213-9.489-57.01-16.129-84.567-25.1-14.834-4.829-27.689-9.832-42.07-15.849-7.217-3.02-22.591-9.834-29.581-11.412l2.343-1.502 1.784.789c8.897 3.867 19.139 6.153 28.062 9.858 38.449 15.961 80.083 24.224 118.963 37.76 83.63 29.117 173.049 66.908 242.542 122.68a340 340 0 0 1 28.313 25.504c6.693 6.78 15.374 16.425 22.54 22.23 11.092-.37 17.549-.78 28.492 1.16l-.051 22.72c-60.806 8.06-123.392 10.81-184.379 18.09-5.836.7-14.397 1.55-20.236 1.61-18.915.29-50.455 4.47-69.869 6.55a8482 8482 0 0 0-140.399 16.35l-194.157 23.38c-32.879 3.99-67.866 7.35-100.468 12.48z"/><path fill="#323a40" d="M0 879.788c3.47.064 6.957.001 10.26.765 2.842.656 11.204 7.23 13.52 6.369 11.22-4.169 20.84-6.528 19.742 10.449 6.529 6.969 22.425-.996 17.303 28.935 16.18 5.834 21.101 10.701 23.16 28.477a375 375 0 0 1 16.485-1.134c-2.807-4.019-9.744-11.781-4.642-15.551 5.654-.481 12.719 2.214 16.818 6.081 4.553-5.94 12.118-22.623 23.098-14.525 4.119 6.409 1.25 12.369 4.162 14.919 4.077-2.856 9.632-5.847 13.96-1.857 1.245 5.906-3.788 12.845-3.684 13.862.621 6.043 7.749 2.235 1.237 12.237a164 164 0 0 1-3.228 4.754c5.432-1.855 12.699-5.466 15.707 1.065-.436 5.329-3.001 11.111-2.245 14.864 4.736.505 8.636.455 12.732 2.729 3.766 6.103-2.991 9.723-7.701 12.543 14.703 4.19 25.053 8.22 27.838 25.05 16.563-6.28 23.035-7.3 38.027 3.66 17.88-7.31 26.995-1.83 30.5 16.82 9.227-6.53 18.414-9.94 30.078-8.48 2.347-10.77 4.033-17.11 13.871-24.42 4.84-3.59 12.017-5.03 18.039-3.42 9.278 2.48 12.918 7.75 18.49 14.96-.015-.02 3.899-.57 4.726-.72 15.235-2.86 15.811-4.42 30.038 3.42 16.077-30.78 55.324-38.504 72.547-5.57 15.913-7.7 14.366-.38 25.36 2.44 13.791 3.53 29.604-.51 28.695 20.36-18.915.29-50.455 4.47-69.869 6.55a8482 8482 0 0 0-140.399 16.35l-194.157 23.38c-32.879 3.99-67.866 7.35-100.468 12.48z"/><path fill="#f8f7f6" d="M0 763.386a3512 3512 0 0 1 121.507 44.598c117.111 45.099 195.671 82.684 283.18 174.457-13.998 6.184-22.004 11.49-33.373 21.889-9.387-13.47-21.845-26.506-32.893-38.568-72.728-79.416-167.028-126.019-266.09-164.313C48.896 792.389 23.93 782.311 0 774.168z"/><path fill="#f8f7f6" d="M0 738.261c69.228 20.751 134.617 42.941 202.515 67.603 37.109 13.478 76.089 24.139 112.86 38.528 88.286 34.547 165.925 82.164 225.656 156.798-17.873-.55-21.814.82-38.449 7.66-18.898-27.036-37.874-45.424-61.566-67.571-76.927-71.912-156.975-97.48-254.038-131.988A4628 4628 0 0 0 0 746.245zm0 40.142c51.046 20.437 97.289 37.262 146.268 62.902 53.148 27.822 100.747 56.12 142.901 99.836 17.904 17.915 36.491 35.149 50.431 57.085-17.758-3.055-27.832-1.275-44.437 5.014-45.079-62.591-105.847-121.619-173.59-158.977C86.88 825.132 37.173 804.61 0 790.639z"/><path fill="#f8f7f6" d="M0 750.366c42.687 11.458 90.336 29.721 131.663 44.706 96.864 35.123 198.05 65.632 276.633 135.122 18.516 16.374 38 31.878 52.143 52.843-16.427-7.333-25.005-6.151-42.55-4.725-6.353-10.458-23.201-26.902-32.266-35.262-69.708-64.283-156.147-100.53-243.704-133.554C98.22 793.013 44.904 772.313 0 759.34zm0 45.588c92.874 36.487 177.867 86.259 240.637 165.333-2.363.389-2.389.356-4.62 1.299-12.57-7.011-28.298-9.593-42.368-6.515C136.878 884.525 80.666 849.117 0 810.769z"/><path fill="#f8f7f6" d="M0 819.465c63.864 33.282 90.082 48.263 142.962 99.009-18.73-6.345-24.5-6.166-43.62-3.024-4.094-11.197-7.568-23.318-21.666-23.405-5.905-.037-14.24-10.804-19.538-14.769C39.105 863.032 20.893 849.572 0 838.106z"/><path fill="#e7e5e4" d="M240.637 961.287c1.01 1.115 9.233 11.521 9.685 12.814l.09-.041c-.072.357-.003.221-.18.431-.583.189-12.631-10.526-14.215-11.905 2.231-.943 2.257-.91 4.62-1.299"/><path fill="#323a40" d="M0 393.579c7.687 5.115 11.914 8.401 17.776 15.747 24.11-17.303 50.398.433 59.809 25.199 15.686-10.521 28.959-11.033 45.713-2.047 10.133-5.808 20.175-8.157 31.749-4.877a35.1 35.1 0 0 1 21.478 17.034c4.459 8.16 4.749 13.397 5.154 22.239 13.442-3.587 19.37-1.705 31.821 4.9 17.461-8.077 17.796-2.999 24.78 7.729 1.319 2.027 13.772-.766 17.851 1.678.786 5.127-3.916 8.305-7.479 11.63 6.26.525 25.605 2.872 16.565 13.075 14.168 12.486 12.665 12.427 8.772 30.893 7.303 5.386 9.495 7.687 14.446 15.713 1.621-4.507 4.254-10.738 8.733-13.061 6.77 1.461 8.16 10.644 9.847 16.711 3.52-2.488 9.125-7.255 12.956-6.95 2.216 5.273-2.228 14.723-4.562 19.887 5.166-.294 16.215-1.89 20.059 1.617.048 3.646-2.08 5.082-4.792 8.381 15.536 6.067 23.298.866 13.728 21.122 9.165 13.904 7.17 20.005.802 34.647 9.534 8.367 11.805 10.515 14.316 23.185 19.408 1.841 25.996 3.118 41.674 15.338 9.919 12.309 13.893 20.543 16.845 36.402 29.256 2.531 40.515 18.815 42.133 46.772 4.777-3.103 8.954-6.433 14.763-5.39 4.907 3.243 3.183 8.082 7.196 10.595 3.763-1.298 7.268-3.662 10.478-3.191 2.952 2.326 2.081.86 2.745 4.52-1.38 4.056-1.808 4.716-4.065 8.43 5.483 2.992 8.954-2.376 11.893 4.915-.945 4.178-1.12 4.717-2.814 8.651 12.343 10.335 13.466 10.169 20.153 25.413 10.07-6.686 12.1-5.726 23.135-2.137-1.308-4.364-2.832-7.865-2.313-12.306l1.51-2.453c7.447-1.678 12.62 6.237 16.253 11.751 2.571-6.791 3.21-11.194 9.685-14.44 7.307.655 6.188 8.014 6.346 13.552 6.848-4.588 11.818-9.247 19.79-9.434 8.586 4.281-.507 16.864-3.787 22.582 4.557.136 11.897.376 15.258 3.658-.546 5.46-4.889 4.421-3.616 7.463 4.401 2.596 4.722 2.546 9.891 3.329 3.869 2.817 5.752 11.486 7.13 16.355 6.335-6.024 11.592-8.828 20.433-8.271 26.699 1.68 29.807 20.017 32.108 40.796 11.221 3.75 19.149 6.902 25.061 18.049 2.669 5.034 3.787 16.56 1.795 21.792-17.374-4.189-36.691-10.135-54.073-15.055-3.165-1.6-4.787-1.877-8.134-2.796-9.845-2.725-22.361-7.877-32.341-11.355a2774 2774 0 0 1-68.206-24.099c-129.555-46.789-264.244-77.373-398.236-108.298C92.222 748.555 45.886 739.296 0 728.41z"/><path fill="#d59146" d="M2048 186.413v312.859c-31.09-29.656-81.49-27.545-111.27 2.974-6.7 6.863-9.98 12.98-14.22 21.453-52.32 1.54-100.79 20.248-136.98 58.815a150 150 0 0 0-33.89 56.217c-43.09-.016-81.34 5.922-123.86 12.78-63.92 10.308-128.59 18.223-184.83 52.872a394 394 0 0 0-40.62 28.648c-14.76 12.094-27.96 24.868-43.42 36.305-30.86 22.835-62.55 29.074-99.06 36.027-.08-7.505-.34-15.157.29-22.633 1.94-22.922 26.42-27.57 45.35-27.615 7.74-20.255 19.48-29.236 41.68-26.509a188.7 188.7 0 0 1 48.53-75.223c47.24-45.02 96.7-49.948 157.84-48.341 31.56-103.241 111.43-148.922 216.63-141.923 23.42-145.039 134.32-251.276 277.83-276.706"/><path fill="#323a40" d="M1922.51 523.699c4.24-8.473 7.52-14.59 14.22-21.453 29.78-30.519 80.18-32.63 111.27-2.974v232.322c-40.56 9.82-85.69 17.416-127.07 26.326a3796 3796 0 0 0-217.83 53.553c-73.28 20.371-146.2 45.483-218.75 68.425-25.46 8.052-51.7 18.608-77.19 25.866-4.44.912-8.5 1.569-12.4 3.887-15.62 3.558-41.76 13.384-56.96 19.2-8.05-20.209 17.71-24.057 20.12-37.531 2.41-13.464 9.33-13.226 21.09-16.882 3.69-4.145 2.49-9.975 4.6-13.76 3.23-10.552 23.27-4.81 23.92-5.451 13.07-12.999 13.46-19.907 38.26-7.709 1.32-6.102 1.86-8.008 5.62-13.078 3.12-4.201-1.82-4.326-2.26-10.072 2.58-4.149 5.38-3.936 9.61-7.904-1.05-.893-2.08-1.799-3.11-2.719-2.5-2.289-3.93-3.38-4.07-6.341 3.52-3.363 12-2.498 16.97-2.405-2.97-6.62-7.14-15.109-5.23-22.144l1.72-.853c5.8 2.081 9.09 6.872 12.73 11.661-.92-5.732-4.22-16.193 3.23-17.81 6.5 2.537 8.06 8.147 11.07 14.462 2.18-5.822 9.48-22.479 17.15-20.36 3.32 4.64-.05 12.158.49 17.911 7.54-1.445 18.24-2.307 20.95 7.299l1.39.672c5.39-5.067 8.21-7.956 14.64-11.576l1.26-.696c-.29-26.011 7.9-34.134 31.86-40.247.11-27.366 13.9-42.228 34.49-57.617.97-.171 8.57-3.367 10.15-3.976 13.31-5.151 27.24-7.168 41.32-3.747 27.43-11.745 51.3-23.581 81.89-25.952 1.19-4.563 2.56-8.809 3.98-13.295a150 150 0 0 1 33.89-56.217c36.19-38.567 84.66-57.275 136.98-58.815"/><path fill="#d59146" d="m1747.66 652.026-.41 1.977c-.73 3.836-1.84 7.566-2.89 11.321-13.93 6.02-15.61 10.091-19.84 24.12l-5.94-2.692c-10.57-4.783-20.49-2.972-30.7 1.64-7.67-5.246-13.17-7.443-22.11-10.414 27.43-11.745 51.3-23.581 81.89-25.952M0 238.807c64.312 19.333 111.898 59.287 143.128 118.526 9.453 17.93 14.309 31.171 21.381 49.971 25.926 11.782 46.444 27.995 67.686 46.515 64.448-19.074 117.842-14.929 178.465 17.043 53.128 28.02 92.288 81.661 109.92 138.462 1.129 3.637 2.521 8.733 3.178 12.521 47.621-7.302 88.848-2.269 128.408 26.93 28.406 20.967 49.967 52.712 57.888 87.177 21.434-2.145 31.761 5.643 43.612 22.54 12.615 1.161 22.245 4.626 32.506 12.333l.055 32.027c-17.815-2.862-32.293-5.102-49.759-10.739-49.283-15.905-79.34-56.045-122.587-83.374-63.437-40.089-137.399-55.467-210.605-66.887-13.803-2.153-44.895-6.91-58.07-7.006 6.368-14.642 8.363-20.743-.802-34.647 9.57-20.256 1.808-15.055-13.728-21.122 2.712-3.299 4.84-4.735 4.792-8.381-3.844-3.507-14.893-1.911-20.059-1.617 2.334-5.164 6.778-14.614 4.562-19.887-3.831-.305-9.436 4.462-12.956 6.95-1.687-6.067-3.077-15.25-9.847-16.711-4.479 2.323-7.112 8.554-8.733 13.061-4.951-8.026-7.143-10.327-14.446-15.713 3.893-18.466 5.396-18.407-8.772-30.893 9.04-10.203-10.305-12.55-16.565-13.075 3.563-3.325 8.265-6.503 7.479-11.63-4.079-2.444-16.532.349-17.851-1.678-6.984-10.728-7.319-15.806-24.78-7.729-12.451-6.605-18.379-8.487-31.821-4.9-.405-8.842-.695-14.079-5.154-22.239a35.1 35.1 0 0 0-21.478-17.034c-11.574-3.28-21.616-.931-31.749 4.877-16.754-8.986-30.027-8.474-45.713 2.047-9.41-24.766-35.699-42.502-59.81-25.199C11.916 401.98 7.688 398.694 0 393.579z"/><path fill="#323a40" d="M0 1150.81c67.415-10.37 130.565-21.56 198.588-29.28q54.219-6.165 108.564-11.1c17.497-1.59 38.086-2.12 55.036-4.72 91.839-14.1 184.346-32.4 277.27-37.93 4.579.26 5.879-.56 9.679 1.82-80.664 13.42-170.934 28.01-251.464 37.7.515 1.34.556 1.51 1.235 2.71 11.869.26 25.025 2.37 36.962 1.06 25.964-2.85 231.855-41.18 240.737-37.43l-.294 1.52c-11.221 6.58-38.526 9.4-52.362 12.33-52.174 11.03-106.789 18.81-158.847 29.77 15.099 1.82 29.126 2.68 44.054 4.17 6.095.7 11.5.6 17.584 1.07l1.314 3.46c-18.996 5.45-45.698 10.32-65.531 14.08-39.663 7.54-78.761 14.94-118.342 23.08a19401 19401 0 0 0-232.772 47.81c-37.092 7.85-74.513 17.26-111.411 24.61z"/><path fill="#f8f7f6" d="M0 1185.6c16.385-2.47 32.943-5.42 49.27-8.35 91.846-16.51 183.898-33.1 276.231-46.76q33.25-4.92 66.595-9.15c17.336-2.23 33.212-4.9 50.735-4.33 2.111.75 2.591.51 3.025 2.66l-69.512 9.64c-53.213 6.93-105.512 15.44-158.033 26.71-13.899 2.98-27.932 2.47-40.839 6.88-11.928 4.17-27.618 4.35-39.945 6.53L0 1194.93z"/><path fill="#bdbfc2" d="M380.782 1109.06c3.078-.34 14.721-1.86 16.891-1.76.515 1.34.556 1.51 1.235 2.71-5.813.23-12.342-.22-18.126-.95m62.049 7.95c6.332-.21 11.803.27 18.102.69-5.024.85-9.979 1.64-15.077 1.97-.434-2.15-.914-1.91-3.025-2.66"/><path fill="#d59146" d="M401.196 673.369c45.17 7.105 80.241 16.91 120.938 38.26 45.283 23.755 81.33 60.973 125.855 84.299 37.196 19.487 94.656 31.354 137.163 33.494l-.158 36.795c-10.956.179-24.098.083-34.882.714l-.42 59.847c-3.465.41-7.072.784-10.504 1.321.11-5.305 1.066-12.817-1.127-17.059-3.887-3.162-9.463-3.242-13.205.215-1.829 3.551-.908 11.374-.921 16.082-8.976-2.774-15.564-4.586-24.733-6.565 1.992-5.232.874-16.758-1.795-21.792-5.912-11.147-13.84-14.299-25.061-18.049-2.301-20.779-5.409-39.116-32.108-40.796-8.841-.557-14.098 2.247-20.433 8.271-1.378-4.869-3.261-13.538-7.13-16.355-5.169-.783-5.49-.733-9.891-3.329-1.273-3.042 3.07-2.003 3.616-7.463-3.361-3.282-10.701-3.522-15.258-3.658 3.28-5.718 12.373-18.301 3.787-22.582-7.972.187-12.942 4.846-19.79 9.434-.158-5.538.961-12.897-6.346-13.552-6.475 3.246-7.114 7.649-9.685 14.44-3.633-5.514-8.806-13.429-16.253-11.751l-1.51 2.453c-.519 4.441 1.005 7.942 2.313 12.306-11.035-3.589-13.065-4.549-23.135 2.137-6.687-15.244-7.81-15.078-20.153-25.413 1.694-3.934 1.869-4.473 2.814-8.651-2.939-7.291-6.41-1.923-11.893-4.915 2.257-3.714 2.685-4.374 4.065-8.43-.664-3.66.207-2.194-2.745-4.52-3.21-.471-6.715 1.893-10.478 3.191-4.013-2.513-2.289-7.352-7.196-10.595-5.809-1.043-9.986 2.287-14.763 5.39-1.618-27.957-12.877-44.241-42.133-46.772-2.952-15.859-6.926-24.093-16.845-36.402m858.714 159.047c11.45-2.562 25-3.876 36.96-6.305 31.74-6.447 63.74-15.69 92.96-29.751 27.71-13.332 50.71-34.292 75.24-51.997 41.09-29.654 97.97-56.954 149.23-58.662-20.59 15.389-34.38 30.251-34.49 57.617-23.96 6.113-32.15 14.236-31.86 40.247l-1.26.696c-6.43 3.62-9.25 6.509-14.64 11.576l-1.39-.672c-2.71-9.606-13.41-8.744-20.95-7.299-.54-5.753 2.83-13.271-.49-17.911-7.67-2.119-14.97 14.538-17.15 20.36-3.01-6.315-4.57-11.925-11.07-14.462-7.45 1.617-4.15 12.078-3.23 17.81-3.64-4.789-6.93-9.58-12.73-11.661l-1.72.853c-1.91 7.035 2.26 15.524 5.23 22.144-4.97-.093-13.45-.958-16.97 2.405.14 2.961 1.57 4.052 4.07 6.341 1.03.92 2.06 1.826 3.11 2.719-4.23 3.968-7.03 3.755-9.61 7.904.44 5.746 5.38 5.871 2.26 10.072-3.76 5.07-4.3 6.976-5.62 13.078-24.8-12.198-25.19-5.29-38.26 7.709-.65.641-20.69-5.101-23.92 5.451-2.11 3.785-.91 9.615-4.6 13.76-11.76 3.656-18.68 3.418-21.09 16.882-2.41 13.474-28.17 17.322-20.12 37.531a64 64 0 0 1-9.81 3.221c-2.99-4.557-2.54-16.018-2.83-22.209l-14.75.024c-.91 5.826.84 14.752-1.2 18.138-4.64.066-5.78.256-10.17-.877-.52-1.272-.85-54.019-.95-60.165l-38.14-.202z"/><path fill="#323a40" d="M453.569 1188.93c11.32-9.97 12.452-7.33 26.71-10.27 4.782-1.12 18.133-7.02 22.566-6.68 17.791 1.38 17.331-7.22 36.172-4.67 1.548.4 1.619.76 2.972 1.92-7.902 5.54-5.906-.23-13.32 5.49-5.245 4.05-10.713 9.2-16.639 12-1.584-1.03-1.006-.43-1.882-1.65l-1.402-1.64c-8.544 9.79-12.921 13.03-24.384 19.49 4.81-5.84 7.69-9.39 11.726-15.74-6.96 4.93-10.55 8.27-16.839 14.16-1.164-.59-2.379-1.28-3.531-1.9-2.752.46-5.899 5-7.843 7.29-2.154 1.92-3.533 3.91-5.838 4.19-.177-2.27-.248-1.12 1.613-3.65-.995-.13-.559-.21-1.585.62-8.099 6.6-34.867 16.67-44.044 17.58l-.126-.73 1.08-1.48c-5.737.98-23.935 10.58-26.957 9.94-35.175 10.14-70.648 25.41-105.969 34.97-4.261 1.15-8.922 6.86-13.874 6.75l1.641-2.63c-1.296-.11-19.052 8.11-23.035 9.52-.37-1.54-.226-.82.816-2.85-9.3 4.49-16.548 9.85-26.263 13.46l-.612-.47 3.178-3.62c-3.934 1.27-8.786 4.91-14.245 7l1.112-.84c-29.452 13.06-59.473 23.12-89.479 34.52-17.333 6.58-36.083 17.91-53.968 23.67l1.266-1.02c-9.388 3.42-12.864 5.7-21.504 11.01-1.388-1.86-1.921-3.49-3.429-1.23-2.424 1.3-3.623 1.93-5.683 3.83a900 900 0 0 0-15.779 9.92l-.888.46c-4.233 2.25-4.356 2.69-8.942 4.35l-.857.32c-2.284.23-2.14.16-4.306-.74-4.142 2.84-7.24 5.06-11.198 8.23v-62.17c6.834-1.82 14.04-3.22 20.983-4.67 5.972-11.55 23.696-14.4 35.459-13.97 17.499-14.03 22.905-10.19 43.126-13.89 7.505-11.65 25.927-12.14 38.699-13.66 11.14-13.08 23.151-8.36 34.86-14.31 15.363-7.79 15.125-8.78 32.76-9.22 11.74-10.23 22.198-9.48 37.034-9.94 10-14.35 24.661-13.45 40.35-12.74 12.179-8.37 17.552-5.45 28.469-9.94 16.216-6.67 13.688-9.05 32.811-8.19 15.384-9.36 16.186-3.5 28.961-7.21 14.921-4.34 7.476-5.89 26.953-6.96l-.048.07c8.289-6.97 41.787-12.52 53.152-12.08"/><path fill="#3d3e42" d="M15.504 1380.32c1.11-2.51 5.19-5.52 7.433-8.5 1.075 1.13 2.16 2.26 3.254 3.37l-.888.46c-4.233 2.25-4.356 2.69-8.942 4.35z"/><path fill="#e7e5e4" d="M11.198 1379.58c3.194-2.58 7.895-6.27 11.74-7.76-2.244 2.98-6.324 5.99-7.434 8.5-2.284.23-2.14.16-4.306-.74m497.548-196.15c.723-.8 3.322-4.47 4.688-3.67.448 1.69-2.26 4.27-3.286 5.31z"/><path fill="#323a40" d="M405.814 1245.03c9.396.35 16.021-2.32 22.093-1.56l.695 1.48c-2.801 4.77-9.239 9.75-13.665 13.08l-1-.39c1.162-2.01.936-1.55 1.774-3.89-1.957 1.08-16.164 15.72-22.666 20.52l-1.283-.35-3.104-2.19c-3.272 3.29-16.524 16.59-20.705 17.38-.393-2.3-.522-2.13-2.225-4.03-3.248 3.4-11.52 12.98-15.272 14.19.344-2.3.348-2.78 1.16-4.93l-1.793-.42c-4.737 5.19-11.43 12.21-17.363 15.81h-1.45l-4.33-1.79c-4.408 4.44-24.184 19.41-29.671 19.69.183-2.53 1.297-3.48 2.835-5.58l-2.09-1.2c-5.091 5.02-16.903 17.49-22.871 19.65.195-2.4.188-2.24 1.321-4.38l-2.426-1.28c-1.77 1.67-7.552 7.38-9.192 8.48-1.506-.82-1.555-.73-3.328-.95-3.329.22-8.76 5.54-11.561 7.87-2.22 1.93-7.511 7.41-9.613 7.27 1.588-2.29 2.753-3.91 4.517-6.1-10.587 7.14-23.079 16.76-34.143 22.3-1.32 2.49-1.99 2.14-3.319-.38l-.857-1.57c-3.362 2.85-10.388 9.19-13.9 10.84-.995-.05-1.897-.05-2.891-.05-4.378 5.01-29.362 20.46-35.572 23.46l18.02-21.52c-4.738 2.99-8.888 6.61-13.039 10.36-15.71 14.17-31.927 26.66-50.223 37.42 5.443-5.56 9.171-9.33 13.159-16.15l-3.027-1.2c-8.979 8.93-17.901 18.33-27.76 26.21l-1.296 1.05 8.21-14.3-1.382-2.13c-6.419 7.19-15.461 16.12-20.725 23.7l-1.431-1.56c2.009-2.57 4.326-7.74 5.852-10.84l-2.561-.84c-9.495 11.15-18.908 19.93-29.145 30.29l6.3-12-1.196-2.73c-11.627 11.05-26.776 26.15-39.26 35.27 3.117-5.42 4.673-8.32 7.177-14.13l-3.825-.04c-5.31 6.64-11.331 12.49-17.767 18.03v-80.41c13.878-3.6 27.154-3.62 41.267-2.28l.153-1.02.29-1.7c4.506-27.59 39.431-28.6 60.962-22.46 6.947-29.8 31.184-26.94 56.39-27.94 11.452-18.85 23.52-22.69 45.094-21.62 12.879-14.24 17.412-14.27 34.895-15.73 4.547-.38 4.021-6.75 6.202-9.37 2.697-8.02 32.435-10.96 34.009-13.14 15.839-22.03 20.746-10.53 41.702-14.37l.608-1.04.966-1.61c8.324-14.19 23.114-12.34 36.604-6.25 3.585-3.05 16.755-10.63 16.839-10.74 7.248-9.71 7.853-9.25 21.831-9.36z"/><path fill="#e7e5e4" d="M206.282 1371.76c5.076-4 9.043-7.75 13.82-11.99-3.361 5.18-6.151 8.95-9.644 13.94-1.32 2.49-1.99 2.14-3.319-.38z"/><path fill="#91949b" d="M189.491 1382.55c3.9-5.77 9.798-12 15.4-16.12l1.072-.81c-2.647 3.31-12.569 14.44-13.581 16.98-.995-.05-1.897-.05-2.891-.05"/><path fill="#e7e5e4" d="M338.713 1296.09c-2.311 4.7-6.051 9.42-7.703 13.64l-4.33-1.79q5.947-6 12.033-11.85"/><path fill="#bdbfc2" d="M17.767 1472.87c1.53-1.84 8.157-10.49 9.417-10.96l.204.04c.716 1.31-4.976 9.66-5.796 10.96z"/><path fill="#e7e5e4" d="M365.728 1285.08c2.32-3.71 6.494-7.71 9.609-10.89-2.83 5.01-6.257 9.57-7.384 14.92-.393-2.3-.522-2.13-2.225-4.03m30.489-22.35c-1.43 3.56-3.441 7.68-4.455 11.19l-3.104-2.19c2.495-3.13 4.949-5.97 7.559-9"/><path fill="#7c7b80" d="M359.717 1282.78c-1.64 2.9-5.481 9.91-8.101 11.56l-1.793-.42c3.273-4.29 6.184-7.24 9.894-11.14"/><path fill="#bdbfc2" d="M118.809 1414.92c.939-.92 5.44-5.93 6.523-6.09.067.13.135.25.202.37l-.064.48-.227-.46c-.195 2.64-1.951 4.62-3.407 6.9z"/><path fill="#e7e5e4" d="M77.716 1436.21c.774-1.11 3.524-4.93 4.669-5.35 1.33.65-1.757 5.55-2.108 6.19zm-24.041 15.56c.668-.86 3.25-4.84 4.617-4.84.75 1.07-2.885 6.65-3.422 7.57z"/><path fill="#bdbfc2" d="M273.778 1334.84c1.148-1.19 4.04-4.61 5.474-4.92 1.086.61-2.673 5.65-3.048 6.2zm-177.197 90.91c5.153-7.18 5.088-3.65 1.382 2.13zm201.173-104.9c.797-.8 3.406-3.9 4.575-3.88.471 1.38-1.788 4.07-2.485 5.08z"/><path fill="#323a40" d="m647.457 1117.19.874 1.11c-6.03 5.12-10.648 8.99-18.501 11.28-53.339 15.55-108.506 26.73-162.377 40.16a6545 6545 0 0 0-363.112 98.67c-31.326 9.72-74.48 21.73-104.341 32.89v-48.22c7.207.83 11.108 3.12 15.722-3.16 4.767-6.48 28.612-7.57 36.199-8.36 9.008-12.2 27.61-10.73 40.935-10.52 24.729-15.57 27.916-4.2 47.862-11.69 16.078-6.03 8.955-4.97 28.953-5.25 9.115-10.49 25.394-9.1 37.892-8.23 10.352-10.52 23.489-9.16 37.646-9.51 8.432-8.23 19.199-7.45 30.689-8.06 7.032-6.24 49.166-11.86 59.987-12.49 8.759-7.02 15.165-5.45 25.991-4.5 8.426-7.15 16.976-6.49 27.496-6.64l.023-.22c5.889-3.34 9.188-3.82 15.696-4.43 17.469-1.63 16.369-5.72 35.159-5.08 14.042-9.71 14.333-3.95 30.197-5.57 3.041-.31 4.355-4.18 7.613-4.62 7.413-.98 16.067-1.52 23.418-2.08.832-.68 1.662-1.35 2.52-1.99 8.88-6.6 67.063-10.79 78.857-9.14 4.561-4.41 13.686-4.71 20.455-6.43 1.765-2.01 2.257-2.4 4.351-4.09 4.403-.97 6.806 1.78 10.501 2.67 3.707.89 11.332-5.18 15.563-5.65 5.468-.61 9.119 1.99 13.732-.85M0 1114.03c15.84-3.09 48.825-5.93 65.744-7.88l130.437-14.91 498.98-53.78-1.013 2.24c-120.124 17.87-243.591 25.86-362.549 44.67 1.577.89 2.61 1.44 4.225 2.22l165.201-18.08c50.425-5.72 103.193-12.16 153.735-15.99l3.679 2.01c-57.725 9.86-119.854 17.63-178.071 25.76L0 1144.86z"/><path fill="#a5aaac" d="M335.824 1086.59c-1.957.66-38.356 4.22-40.204 3.56l-.014-.32c9.867-1.72 26.71-5.17 35.993-5.46 1.577.89 2.61 1.44 4.225 2.22"/><path fill="#323a40" d="M1680.81 1289.65c-12.68-7.56-20.95-17.2-33.11-22.62-3.93-1.75-7.9-5.2-10.33-8.65l.54-1.2c6.1-2.07 13.89.5 19.54 3.01 3.48 1.55 3.92 3.96 4.8 7.37 18.79 7.57 32.89-5.56 41.37 22.63 4.26 1.69 8.9 1.24 13.38.5 13.29-2.2 32.17 3.55 38.72 16.47 13.46 1.08 19.34-.09 27.89 11.04 15.6 6.32 29.5-2.02 35.81 18.59 24.62-4.71 54.34 3.6 57.11 32.25 23.65-.47 63.97 1.38 67.23 31.95 19.83.19 55.97-.23 61.97 24.26 17.06 3.48 26.83 6.21 42.27 14.35v47.36l-1.53-1.87c-3.48-2.58-4.5-3.79-7.64-6.74l-3.76.46c-.35 1.07-.01.67-1 1.2-8.29-6.44-17.9-19.03-24.75-27.48l-1.95.86 6.47 14.71c-13.55-8.92-36.45-30.69-48.88-42.31 5.23 8.53 9 14.1 15.03 22.15-6.2-4.43-12.61-9-18.44-13.9-8.82-7.43-16.49-15.66-26.15-21.98 3.08 3.55 6.14 7.36 9.15 10.99.4.68.36.58 1.01 1.1l2.76 3.85-1.37.62-13.24-12.84c-3.24-3.03-6.28-7.5-10.13-8.64-1.47.41-3.03.87-4.52 1.24-5.97-4.55-9.31-7.37-14.74-12.54l-2.88-.09c3.17 3.82 7.38 9.89 10.44 14.01-20.64-14.54-30.11-22.62-49.07-39.52 4.69 6.39 8.1 11.68 12.3 18.44-7.09-4.47-12.49-7.78-18.97-13.02-.51.26-1.02.49-1.52.76-.35.19-.99.88-1.14 1.02-.19.18-.77.61-1.04.55-.44-.09-.85-1.26-.87-1.29-2.03-1.05-3.34-1.68-5.21-3-6.17-3.63-16.16-11.84-22.21-16.49-.38 1.02-.78 2.04-1.2 3.05l.14.59-2.34.26c-2.41-2.72-8.63-7.37-11.73-9.85-3.12-3.02-8.3-9.11-12.38-9.83l-3.55 1.07c-4.93-3.6-12.64-11.08-17.4-15.46 4.68 8.16 9.28 14.08 15.41 21.09-21.14-12.88-34.04-17.57-53.62-34.1l-3.21 1.69c-3.59-2-28.18-20.08-27.86-20.01l1.63 4.81c-1.82-.3-33.92-23.41-39.79-26.71 4.61 5.45 8.5 9.96 12.56 15.84"/><path fill="#e7e5e4" d="M1840.15 1360.97c5.63 4.96 10.82 9.23 15.99 14.69-.51.26-1.02.49-1.52.76-.35.19-.99.88-1.14 1.02-.19.18-.77.61-1.04.55-.44-.09-.85-1.26-.87-1.29-2.03-1.05-3.34-1.68-5.21-3l1.09-2c-2.84-3.86-4.71-6.73-7.3-10.73"/><path fill="#43484f" d="M1847.45 1371.7c1.73 1.89 2.6 2.94 4.12 5-2.03-1.05-3.34-1.68-5.21-3z"/><path fill="#323a40" d="M2034 1470.15c3.35 4.21 4.03 5.04 8.47 7.76 1.68 2.64 2.78 4.38 4 7.18-3.48-2.58-4.5-3.79-7.64-6.74l-3.76.46c-1.08-2.38-2.31-4.2-3.37-6.66z"/><path fill="#e7e5e4" d="M2031.7 1472.15c3.66 2.45 3.98 3.18 7.13 6.2l-3.76.46c-1.08-2.38-2.31-4.2-3.37-6.66m11.87 1.04c1.51 1.88 2.98 3.78 4.43 5.7v8.07l-1.53-1.87c-1.22-2.8-2.32-4.54-4-7.18.39-1.57.75-3.14 1.1-4.72m-220.62-112.93c-.62-.82-11.18-13.41-10.4-11.73 2.45-.27 10.44 6.8 11.6 8.68-.38 1.02-.78 2.04-1.2 3.05m-93.06-54.24c2.71 3.58 4.84 4.85 7.59 8.01l-3.21 1.69c-1.76-2.95-3.69-5.56-5.37-8.47z"/><path fill="#a5aaac" d="M2034 1470.15c4.66.7 4.58 4.51 7.28 5.57 1.74-1.73.31-2.05 2.29-2.53-.35 1.58-.71 3.15-1.1 4.72-4.44-2.72-5.12-3.55-8.47-7.76"/><path fill="#91949b" d="M1901.44 1395.75c-2.35-2.24-4.61-6.25-6.46-9.05 3.27 3.08 6.28 5.85 9.34 9.14z"/><path fill="#e7e5e4" d="M2007.37 1453.39c-3.56-4.77-2.79-6.89 1.95-.86z"/><path fill="#7c7b80" d="M1728.9 1307.25c-.46-.54-3.98-4.25-3.21-5.38 1.63.03 3.42 3.05 4.2 4.15z"/><path fill="#323a40" d="M1545.8 1190.12c7.34 2.57 14.86-.06 21.54 1.94 3.48 1.04 27.92 3.77 28.8 4.57 15.7 14.48 24.33-1.26 37.12 17.02 9.43.64 24.41-4.78 33.06 1.82 3.66 2.8 2.83 9.96 10.01 9.43 9.52 1.04 29.47-2.66 33.69 8.83.49.31.99.62 1.48.93 17.69 1.19 29.74-.06 43.1 12.52 8.44-.01 23.67-1.6 30.04 5.05.52.54 1.69 2.02 2.14 2.58 9.36 11.32 26.52-.39 40.89 21.21 15.94-.91 38.05-1.98 45.11 15.63 9.87-.37 27.05-.63 35.98 5.62 5.24 3.67 5.7 7.72 13.05 7.5 16.26-.49 40.59 4.16 49.05 20.29 26.42 2.36 68.63 6.88 72.95 39.31 1.75 1.77 1.8 1.6 4.19 2.46v17.06c-4.95-4.22-8.8-7.5-15.07-9.3l2.14 1.08c-13.38-4.92-19.92-5.41-30.81-15.05l-1.17 1.32 1.3 2.21c-5.36.14-13.33-9.47-18.31-10.99.54 2.04.8 2.41 1.85 4.21-1.16.13-16.16-8.15-18.75-9.45l.59.59c-11.25-4.43-21.02-10.15-32.57-14.7l12.7 8.51c-23.97-7.67-50.67-22.26-74.45-31.51-3.27-1.28-13.83-9.76-15.31-9.56 1.27 1.87 2.13 2.75 3.7 4.36-1.4.24-12.3-5.51-14.65-6.58-1.21.61-3.12 1.43-4.45.85-16.47-7.26-33.18-13.06-50.16-18.91-7.84-2.7-15.69-7.38-23.38-10.22-6.09-2.24-7.17-3.17-12.72-7.14-2.08-2.08-6.01-4.83-8.89-5.33l-2.51 1.3c-2.55-2.48-2.97-2.99-6.03-5 1.6 2.88 2.01 2.97 2.54 6.15-3.49-2.1-11.84-7.88-15.38-8.42l1.17 3.21-1.86.3c-5.82-2.02-12.36-5.37-17.04-9.44-.87.15-1.92.3-2.77.49l2.56 2.69-.1.98c-39.92-11.61-79.45-29.02-119.61-40.54-7.95-2.28-10.57-7.94-15.43-9.16l2.74 3.65c-11.77-3.34-23.2-7.75-34.15-13.18z"/><path fill="#6a6b6f" d="M1707.71 1246.87c-2.31-.46-8.74-6.25-8.44-7.64 2.25-1.52 11.46-1.43 11.24 5.5l-.03 1.65c-.87.15-1.92.3-2.77.49"/><path fill="#91949b" d="M2003.09 1361.94c-.6-.53-3.94-3.23-3.22-4.41 1.85-.43 3.38 1.86 4.39 3.09z"/><path fill="#323a40" d="M1991.16 1531.19c26.5 43.29 38.6 76.88 49.26 127 2.52 11.84 5.03 37.99 7.58 47.19v184.87c-8.08-13.26-18.79-36.98-28-53.02.69-62.59-8.46-116.92-41.37-171.74-7.86-13.11-15.1-20.04-23.52-31.64 13.65-19.98 25.25-31.07 44.75-44.97-5.62 9.82-10.87 19.38-15.51 29.73-2.16 4.81-4.75 13.86-8.98 16.52l-1.25.89c19.79 17.3 36.69 43.25 46.24 67.63.43-3.4.59-6.29.83-9.69a529.3 529.3 0 0 0-30.03-162.77"/><path fill="#91949b" d="M1974.12 1636.02c-1.07-.46-9.78-3.52-7.84-5.38.65-.62 4.82 2.24 5.56 2.64l3.53 1.85z"/><path fill="#a5aaac" d="M2021.19 1693.96c.18 1.26 1.68 11.44-.06 11.79l-.12-.06-.17.01-.27-.69h-.04c-.06-.46-.12-.91-.17-1.36.43-3.4.59-6.29.83-9.69"/><path fill="#323a40" d="M0 1696.33c2.846-10.04 5.732-30.06 7.97-41.46 8.288-42.19 22.8-88.06 48.9-122.89-20.418 45.86-32.185 126.83-31.852 177.27 11.158-33.35 22.566-46.91 47.063-71.72l-1.15-.81c-9.311-17.9-15.192-30.19-25.375-48.53 9.399 6.74 12.99 9.37 21.213 17.45 6.65 6.53 16.894 21.08 23.665 25.14-6.46 10.61-13.896 19.77-20.348 30.38-15.467 25.44-26.918 54.87-34.045 83.8-5.151 20.92-7.219 43.1-8.845 64.49-.443 5.81.577 23.85-.743 27.1-6.416 15.84-18.032 36.67-26.453 51.49z"/><path fill="#6a6b6f" d="M70.93 1636.72c11.785-10.13 15.626-7.02 1.151.81z"/><path fill="#323a40" d="M1439.78 1126.71c12.64 3.9 20.49 2.87 33.69 4.35 8.94 1 18.19 3.47 27.07 4.67l37.11 4.99c5.02.68 12.93 1.25 17.55 2.56 4.08 1.17 7.83 3.26 10.96 6.13 20.36 1.26 39.54 8.73 59.28 13.26 6.55 1.51 13.8 1.26 20.18 3.13 1.96.57 2.6 1.5 4.05 2.83 7.17 6.57 58.76 10.65 65.03 16.73 1.17 1.13 2.15 2.09 3.72 2.69 5.21 1.98 11.97 2.04 17.47 3.24 6.56 1.43 12.98 4.1 19.57 5.22 6.99 1.18 14.61.15 21.45 1.94 4.47 1.17 7.1 5.25 11.52 6.33 12.75 3.11 22.73-2.51 33.12 9.31 15.22 1.15 28.81-.47 37.85 13.67 13.37-.84 35.51-2.26 44.69 8.99 20.67 3.16 35.44-4.43 49.61 14.17 12.14.06 31.21.07 39.77 9.56 6.18 6.85 6.7 6.77 17.46 6.96 8.72.15 19.91-.65 27.07 6.12 4.36 4.13 3.91 6.93 10 9.98v12.98c-5.4-2.82-9.88-5.98-15.76-5.86l2.31.68c-4.88.35-5.8-1.01-10.63-3.28-3.09 5.32-8.19 2.41-10.3-1.28-3.31-1.12-7.97-2.04-9.76-4.93-4.11-1.98-6.92-5.48-10.99-6.45l1.85 3.03-.35.7c-18.5-9.56-35.67-7.78-49.68-19.17l-.61 1.52c.1.44.21.89.32 1.34l-.1.09c-4.44-1.36-8.27-3.56-13.95-5.17-5.57-.87-27.96-8.66-34.45-10.69-28.33-8.84-56.71-17.53-85.13-26.05-31.12-9.01-61.45-15.89-92.42-24.31-99.26-26.97-208.45-59.9-311.13-66.1-.42-.48-.5-.67-1.04-.89 12.39-3.05 21.21-.5 33.19-.83 2.22 2.29 1.98-.11.41-2.16"/><path fill="#e7e5e4" d="M2009.85 1279.52c4.89 3.75 8.69 5.76 14.07 8.54-3.09 5.32-8.19 2.41-10.3-1.28-1.88-2.4-2.3-2.91-4.58-4.94z"/><path fill="#43484f" d="M2003.62 1276.9c3.27.73 3.35.82 6.23 2.62l-.81 2.32c2.28 2.03 2.7 2.54 4.58 4.94-3.31-1.12-7.97-2.04-9.76-4.93q-.105-2.475-.24-4.95"/><path fill="#91949b" d="M2003.62 1276.9c3.27.73 3.35.82 6.23 2.62l-.81 2.32c-2.77-2.09-3.09-2.38-5.42-4.94"/><path fill="#3d3e42" d="M1930.35 1257.74c1.71-3.44 1.88-1.03 6.23-1.46 1.17 2.17 5.21 4 7.5 5.2.1.44.21.89.32 1.34l-.1.09c-4.44-1.36-8.27-3.56-13.95-5.17"/><path fill="#7c7b80" d="M1936.58 1256.28c2.44-1.1 6.25 2.19 8.11 3.68l-.61 1.52c-2.29-1.2-6.33-3.03-7.5-5.2"/><path fill="#323a40" d="M1411.14 1079.03c17.93 2 46.13 8.93 65.11 12.52a6233 6233 0 0 1 138.67 28.15c24.68 5.44 49.57 10.94 74.19 17.07 10.12 1.72 16.13 2.02 25.53 5.67 12.7 4.94 30.91 4.92 44.71 8.89 9.25 2.66 16.02-1.59 23.13 6.75 10.86 3.42 22.16-3.63 33.45 8.56 13.08.47 25.23-.92 35.39 6.79 12.56 1.77 30.58-2.21 38.29 9.25 13.58.12 19.31-.07 32.36 3.26l5.14 5.83c11.49.66 27.77-.17 35.44 9.16 8.86.13 19.61.17 28.09 2.77 19.8 6.06 37.37 3.01 57.36 8.91v14.83c-14.11-3.9-34.28-6.9-49.03-9.65-18.8-3.54-37.47-7.69-55.99-12.45A11685 11685 0 0 0 1410 1081.73c.46-1.02.77-1.69 1.14-2.7m85.46-4.1c26.26 1.94 57.85 9.21 84.38 13.08 69.55 10.14 139.38 19.76 208.11 34.45 13.78 2.95 30.73 3.23 44.93 7.13 13.62 3.3 26.55-2.48 37.8 9.05 18.23-1.09 27.07.69 44.55 5.8 8.23 2.4 23.32-1.13 30.55 4.55 6.54 5.12 25.84 2.45 34.51 5.26 3.61 1.17 1.5 3.24 6.36 3.8 13.93 1.62 29.84-2.52 41.61 6.91 5.71.49 13.05.89 18.6 1.62v11.78a5491 5491 0 0 0-252.44-48.99l-303.34-51.93z"/><path fill="url(#a)" d="M1368.56 1039.74c70.22 10.4 147.75 17.46 218.67 26.18 70.22 8.62 140.39 17.68 210.49 27.18 18.65 2.64 38.6 6.73 56.86 9.24l114.96 16.83c21.7 3.2 58.8 6.7 78.46 14.02v4.95c-46.77-8.73-90.55-14.65-137.05-21.83a9834 9834 0 0 0-318.3-45.49l-147.87-19.1c-16.3-2.15-59.53-9.12-73.66-9.6z"/><path fill="#323a40" d="M522.124 1117.73c16.352-4.39 146.724-31.31 152.978-29.32.829 4.73-6.526 7.38-9.735 7.91-15.925 2.64-111.688 28.28-121.993 25.6-1.448-.56-15.619-1.86-17.222-1.83z"/><path fill="#171818" d="M1375.46 1056.72c35.97 3.98 84.95 11.96 121.14 18.21l-4.38 2.51c-35.07-6.44-82.49-14.64-117.4-19.04z"/><path fill="#d59146" d="M636.995 902.921c3.347.919 4.969 1.196 8.134 2.796 1.492 2.205 54.683 23.124 65.012 31.849l3.339 2.81c-19.561-6.742-36.531-18.121-55.678-26.063-2.504-1.038-20.918-8.551-21.368-9.247.01-.834.249-1.198.561-2.145"/><path fill="#e7e5e4" d="M1337.8 928.851c15.2-5.816 41.34-15.642 56.96-19.2-6.87 5.806-55.58 19.216-57.28 23.692-6.09 2.685-5.61 2.424-9.49-1.271 3.39-.813 6.6-1.879 9.81-3.221"/><path fill="#d59146" d="M1394.76 909.651c3.9-2.318 7.96-2.975 12.4-3.887l-.93 1.182c-2.29 3.027-62.08 24.776-68.75 26.397 1.7-4.476 50.41-17.886 57.28-23.692"/><path fill="#3d3e42" d="M2028.55 1542.71c8.87 10.16 12.27 16.99 19.45 27.66v12.87c-5.93-10.52-9.39-22.5-15.81-33.97z"/><path fill="#6a6b6f" d="M1439.37 1128.87c-11.62-7.31-57.45-14.7-63.88-20.32 1.06-.8 10.39 2.19 11.99 2.64l1.55.45 1.94.54c11.89 3.46 38.59 9.07 48.81 14.53 1.57 2.05 1.81 4.45-.41 2.16"/><path fill="#e7e5e4" d="m522.124 1117.73 4.028 2.36c1.603-.03 15.774 1.27 17.222 1.83-3.433.41-3.433.23-6.227 2.21-2.838.93-5.983 1.03-9.091 1.83l-1.314-3.46c-6.084-.47-11.489-.37-17.584-1.07 2.971-.65 5.78-.22 7.494-2.33 2.07-.62 3.325-1.03 5.472-1.37"/><path fill="#3d3e42" d="M526.742 1122.5c2.185.18 7.394.64 9.531-.14.825.23.627.82.874 1.77-2.838.93-5.983 1.03-9.091 1.83z"/><path fill="#6a6b6f" d="m522.124 1117.73 4.028 2.36c-4.48-.17-5.249-.13-9.5-.99 2.07-.62 3.325-1.03 5.472-1.37"/><path fill="url(#b)" d="m13.215 1548.56 1.066 1.63c-4.84 10.1-8.391 20.17-14.281 30.16v-9.09c3.476-5.49 9.926-16.77 13.215-22.7"/><path fill="#171818" d="M1410 1081.73c-1.83-.48-3.69-1.01-5.53-1.43l-22.99-5.1c-2.15-.47-7.39-1.36-8.81-3.08.59-1.42 8.67.8 10.32 1.09 6.01 1.05 12.04 2.41 18.02 3.61l4.5.92c2.11.44 3.56.73 5.63 1.29-.37 1.01-.68 1.68-1.14 2.7"/><path fill="#7c7b80" d="M1342.48 1036.45c8.34 1.2 18.11 1.75 26.08 3.29l2.56 2.38c-10.18-1.42-19.79-2.68-29.96-4.31zm-703.022 31.33c3.199-.57 25.452-1.75 27.526-1.12l.439.5c-.252.68-16.458 2.29-18.286 2.44-3.8-2.38-5.1-1.56-9.679-1.82"/><path fill="#2a292e" d="M1749.59 1258.28c2.88.5 6.81 3.25 8.89 5.33l-.93 2.13c-3.58-.55-7.72-3.9-10.47-6.16z"/><path fill="#a5aaac" d="M1749.59 1258.28c2.88.5 6.81 3.25 8.89 5.33l-.93 2.13c-2.66-2.82-5.1-4.39-7.96-7.46"/><path fill="#e7e5e4" d="M1923.58 1407.14c3.85 1.14 6.89 5.61 10.13 8.64-.92 1.95-.97 2.36-2.34 3.85-2.74-7.05-4.46-6.29-7.79-12.49"/><path fill="#2a292e" d="m553.798 1159.95.296 1.46c-4.256 3.37-8.257 4.65-12.105 7.82-1.353-1.16-1.424-1.52-2.972-1.92 5.161-1.65 9.19-5.12 14.781-7.36m1369.782 247.19c3.33 6.2 5.05 5.44 7.79 12.49-3.62-3.03-8.64-7.87-12.31-11.25 1.49-.37 3.05-.83 4.52-1.24"/><path fill="#e7e5e4" d="M1796.64 1341.43c4.08.72 9.26 6.81 12.38 9.83-.97 1.45-.86 1.49-2.34 2.24-3.65-5.7-6.72-7.22-10.04-12.07"/><path fill="#7c7b80" d="M47.653 1361.44c1.508-2.26 2.041-.63 3.428 1.23-1.09.97-7.037 6.1-8.177 5.76l-.045-.1.619-.6-1.508-2.46c2.06-1.9 3.259-2.53 5.683-3.83"/><path fill="#e7e5e4" d="M47.653 1361.44c-.923 2.88-2.383 3.81-4.175 6.29l-1.508-2.46c2.06-1.9 3.259-2.53 5.683-3.83"/><path fill="#3d3e42" d="M1796.64 1341.43c3.32 4.85 6.39 6.37 10.04 12.07-5.33-2.9-8.64-6.93-13.59-11z"/><path fill="#171818" d="M1543.72 1191.31c-4.81-3.49-9.95-9.07-13.41-13.93 6.32 4.85 9.57 7.74 15.49 12.74z"/><path fill="#e7e5e4" d="M249.697 1350.24c2.801-2.33 8.232-7.65 11.561-7.87-2.968 3.72-5.91 6.37-8.791 10.19-1.697-.8-1.578-.8-2.77-2.32"/><path fill="#171818" d="M261.258 1342.37c1.773.22 1.822.13 3.328.95-4.759 4.63-6.298 6.25-12.119 9.24 2.881-3.82 5.823-6.47 8.791-10.19"/><path fill="#6a6b6f" d="M647.457 1117.19c2.287-3.02 9.271-7.95 12.765-8.48l.029-.19c1.065.78-1.67 2-2.197 2.35-3.432 2.27-6.332 5.1-9.723 7.43z"/><path fill="#e7e5e4" d="M467.875 1206.73c1.944-2.29 5.091-6.83 7.843-7.29-1.746 4.28-3.627 5.26-4.166 9-1.995.09-2.223-.43-3.677-1.71"/><path fill="#d6bea4" d="M1309.21 928.025c2.04-3.386.29-12.312 1.2-18.138.61 3.847 1.54 19.994-.35 23.12l-.47-.022v.051c-.85-1.103-.51-3.727-.38-5.011"/><path fill="#7c7b80" d="M695.161 1037.46c1.742-.39 10.703-1.74 12.065-.98.166 1.62-11.392 2.88-13.078 3.22z"/><path fill="#3d3e42" d="M475.718 1199.44c1.152.62 2.367 1.31 3.531 1.9-2.856 2.88-4.584 4.57-7.697 7.1.539-3.74 2.42-4.72 4.166-9"/><path fill="#bdbfc2" d="M663.431 1051.48c4.487-1.25 10.057-1 14.7-.98-5.399 1.06-10.611 2.11-15.972 3.31z"/><path fill="#d6bea4" d="M86.916 753.945c-3.227-.923-6.516-1.617-9.538-3.123l.426-.166-.386-.038-.007-.027c1.618-1.05 9.362 1.574 11.126 2.1z"/><path fill="#6a6b6f" d="M654.76 1052.52c2.902-.41 5.665-.59 8.671-1.04l-1.272 2.33c-1.282.27-2.433.49-3.72.72z"/><path fill="#d6bea4" d="M1879.51 770.648c1.49-.457 7.86-3.129 8.83-1.4-.37.279-.75.557-1.12.836l.03-.033c-2.05.728-4.14 1.238-6.21 1.892z"/><path fill="#3d3e42" d="M1374.82 1058.4c-1.41-.18-6.45-.62-7.18-2.01.87-1.46 6.38-.14 7.82.33z"/><path fill="#e7e5e4" d="M553.798 1159.95c6.925-3.93 6.356-.38.296 1.46z"/><path fill="#6a6b6f" d="M13.215 1548.56c.492-.97 1.697-3.95 3.1-3.77.524 1.22-1.535 4.41-2.034 5.4z"/><path fill="#bdbfc2" d="M1341.16 1037.81c-.66-.06-3.5-.02-3.65-1.24 1.21-1.24 3.5-.51 4.97-.12z"/><path fill="#91949b" d="M75.856 1449.45c-1.8 2.4-4.069 3.47-2.251.04l.82-1.6zm1747.234-88.6c4.2 4 1.34 3.63-2.34.26z"/><path fill="#d6bea4" d="M236.52 787.971c-.705-.353-1.725-.63-2.095-1.4.462-1.335 3.519-.342 4.438-.102z"/><path fill="#7c7b80" d="M1407.22 1130.59c-.51.01-2.21.16-2.62-.08.39-.45 1-.58 1.58-.81.54.22.62.41 1.04.89"/><path fill="#6a6b6f" d="M1948.32 1428c.52.5 1.9 1.45 1.53 2.37-1.03.48-2.39-1.27-2.9-1.75z"/><path fill="#323a40" d="m693.164 1060.07 660.016-.1-.14 96.17-65.66-.29-.29 23.03c-9.04.07-16.81.01-25.83 1.09 7.26-5.6 13.4-10.66 18.26-18.67 11.49-18.92 9.56-44.72-4.04-62.08a53.53 53.53 0 0 0-36.03-19.84 57.37 57.37 0 0 0-42.11 12.2 53.35 53.35 0 0 0-19.87 37.36c-2.49 30.63 20.53 58.38 51.75 59.45 11.69.4 20.54-3.2 31.04-7.54.16 11.02.6 23.21.29 34.15-3.89 4.11-21.96 25.07-27.57 25.79-.49.06-3.53-.65-4.01-.76-1.5 7.24-.58 19.72-.92 27.81 14.4.8 27.58.42 42.01.11 8.76 7.38 15.48 14.74 23.33 23.03l-62.51-.03c-4.81-5.78-9.57-11.6-14.29-17.47 2.21-17.9.79-61.93.65-81.34l-12.26-.3c-.08 22.4-.65 43.81-.99 66.08-6.91-7.78-8.81-7.07-18.9-5.42 4.59 9.38 13.33 21.58 19.39 30.33 13.84 19.99 28.57 39.13 42.35 59.22 38.25 55.74 78.63 110.15 117.97 165.15l91 129.63c-11.55 4.89-23.58 10.23-35.34 14.45l-39.24-63.95c-8.41-13.76-18.65-31.41-28.15-44.41l-14.84-.02c-3.22-4.73-6.5-9.41-9.85-14.05l2.07-1.49c7.29 1.53 4.88 8.8 15.03 6.54.22-4.69-42.04-70.49-47.81-78.67-5.53.22-8.45.13-13.94-.26-1.96-3.33-3.95-6.65-5.97-9.95 3.22-1.69 10.09 4.55 12.85-.02-5.32-11.54-26.01-43.54-33.32-55.37l-11.39.31c-2.58-3-4.71-4.83-5.57-8.64l1.14-.55c2.79 1.05 7.85 3.61 10.06 2.89-3.89-10.35-17.38-31.45-23.48-41.41-10.61-1.13-12.55.41-15.42-10.67l-245.623.47-84.87-.1c-15.05-.05-33.743-.63-48.5.02l14.67-25.09 225.733.08c41.22-.04 85.55.64 126.64-.66 6.11 9.53 10.44 16.46 15.42 26.76 3.02 2.07 1.44 1.63 4.75 1.8 1.46-6.55-13.03-28.39-17.6-33.42l-3.25-.41c-3.03-.12-4.79-.04-5.65-3.94.11-.22.22-.44.32-.66 1.81.17 4.37 1.7 6.64 2.21-2.75-7.15-16.9-30.16-22.13-36.49-1.99-2.4-3.62-1.78-6.43-1.72-2.56-1.47-2.89-3.36-4.01-6.17l-.56-1.55-193.076.12c-24.696.02-74.268 1.52-97.099-.51-2.952 1.57-3.27 2.49-4.083 6.08 2.299-.7 10.692-4.33 4.581 2.49-1.484.25-3.144.42-4.572.88-7.026 2.26-41.468 63.15-46.692 72.67l.961 1.04c2.422-.33 4.837-.7 7.244-1.13l.435 1.61c-1.815 3.75-1.805 3.92-4.453 7.03-3.863.7-3.534.04-7.868-1.57-4.506 2.38-21.56 34.02-25.34 40.62 3.316-.05 7.819-.58 10.455.98-.219 2.83-3.444 5.61-5.549 7.9l-9.045-2.48c-4.372 7.04-35.372 54.96-34.949 57.04 6.599 1.6 8.621-1.94 15.054-1.13.04 2.12-5.507 7.72-7.665 10.56l-14.309.1c-6.048 10.61-46.938 72.07-45.906 78.33 5.28-.15 8.887-4.88 15.346-6.05l.875 1.34c-1.127 5.13-4.52 9.65-7.375 14.2-4.346-.65-12.077-.95-16.731-1.25-21.892 34.13-46.821 74.41-67.177 109.5-10.796-4.72-22.714-9.33-33.698-13.79 6.239-10.42 18.19-26.43 25.628-37.18l65.726-93.53a10577 10577 0 0 1 144.735-205.79c11.318-15.82 22.028-32.57 33.375-47.99l-17.216-.04c-.484-20.21-.735-40.43-.753-60.64-3.942.58-8.084.87-12.068 1.23-.023 22.01-1.114 57.84.438 78.76-6.282 6.22-12.542 12.69-18.763 19l-66.576.18c7.791-7.6 14.294-14.49 21.646-22.49 15.163-.59 31.22-.28 46.465-.22-.037-5.24.846-28.32-2.231-30.5-2.042 1.46-2.883 2.39-5.322 2.77-6.82-5.84-17.8-17.89-24.099-24.68l.4-35.4c-.867-.57-1.734-1.13-2.601-1.7l-24.483-.06-.071-22.28c-22.811-.23-45.624-.31-68.437-.23z"/><path fill="#f8f7f6" d="M786.398 1175.72c-22.84-19.04-26.279-52.84-7.744-76.1 18.536-23.25 52.254-27.43 75.911-9.42 23.657 18.02 28.584 51.64 11.092 75.69s-50.994 29.71-75.422 12.76a56 56 0 0 1-3.837-2.93"/><path fill="#323a40" d="M811.624 1088.81a45.683 45.683 0 0 1 53.365 58.93 45.67 45.67 0 0 1-34.492 30.45c-24.526 4.86-48.398-10.91-53.564-35.37s10.296-48.53 34.691-54.01"/><path fill="#e7e5e4" d="m1168.18 1252.69 1.85.1c2.06.08 5.38.27 4.96 3.2-.78 5.37-4.17-.09-6.25-1.75z"/><path fill="#3d3e42" d="M1200 1301.01c-3.03-.12-4.79-.04-5.65-3.94.11-.22.22-.44.32-.66 1.81.17 4.37 1.7 6.64 2.21-.31 1.39-.3 1.22-1.31 2.39m-326.078-42.63c2.299-.7 10.692-4.33 4.581 2.49-1.578-.99-2.926-1.65-4.581-2.49m-87.524-82.66a56 56 0 0 0 3.837 2.93l-1.306 2.1c-.867-.57-1.734-1.13-2.601-1.7z"/><path fill="#f8f7f6" d="M1045.38 1119.49c11.11-1.03 11.76-2.27 11.68 7.26l-.01 39.25c-.13 45-51.01 49.59-63.861 14-1.881-5.21-1.562-52.85-1.17-60.68 4.171.02 6.917.15 11.051.42.15 18.73-.54 38.73.6 57.26 1.5 9.3 12.16 16.49 20.86 15.66 26.33-2.53 21.08-22.31 21.13-41.54.02-10.95-.25-21.21-.28-31.63"/><path fill="#323a40" d="M1010.09 610.1c90.51-7.925 170.37 58.905 178.51 149.401 8.15 90.496-58.49 170.511-148.97 178.876-90.782 8.394-171.133-58.522-179.306-149.329S919.261 618.052 1010.09 610.1"/><path fill="#323a40" d="M965.403 479.416c2.856-.45 3.238-.324 6.166-.092 3.335 3.16 6.06 47.463 6.709 55.973-13.995 19.505-13.602 32.903 3.014 50.666l.295 21.974a202.1 202.1 0 0 0-52.852 23.181 171.1 171.1 0 0 0-75.009 106.313 170.33 170.33 0 0 0 22.696 127.814c-24.062.828-50.088.552-74.309.691l-11.06.008.059-176.982 18.649.058q-.809-80.226-.655-160.457c-6.937 2.945-14.47 7.71-21.06 11.618l-10.272-9.987c48.468-30.057 131.481-46.352 187.629-50.778"/><path fill="#f8f7f6" d="M879.902 551.54a38.352 38.352 0 0 1 39.811 53.5 38.36 38.36 0 0 1-31.179 22.717c-20.921 2.155-39.675-12.938-42.042-33.836s12.537-39.804 33.41-42.381"/><path fill="#323a40" d="M1074.44 478.623c60.87 3.119 140.35 20.659 193.28 51.554-2.23 2.455-4.93 6.364-6.96 9.115a923 923 0 0 0-20.78-12.139c-1.49 52.616-.64 109.06-.82 161.961l16.76-.067c-.01 18.739.51 173.008-1.93 177.097l-3.74.18-78.87-.226c10-17.244 18.74-34.123 23.35-53.602 22.12-93.27-37.63-182.134-128.27-204.197l.14-21.557c18.19-18.198 18.38-33.729 2.05-52.961z"/><path fill="#f8f7f6" d="M1160.25 551.407c21.23-1.64 39.72 14.336 41.19 35.578s-14.66 39.609-35.91 40.902c-21.01 1.278-39.12-14.623-40.57-35.621s14.3-39.238 35.29-40.859"/><path fill="#323a40" d="M1411.2 1198.37c5.91-12.19 10.98-20.38 23.14-27.24-.05 9.66-1.68 17.09-3.82 26.44 9.91-5.58 14.05-7.27 25.18-9.46-3.48 8.76-7.83 14.2-13.29 21.83 6.76-1.56 13.12-3.83 19.7-6.04-7.59 12.6-10.54 16.49-21.06 26.36l.52.72 3.56-.08c2.77-.62 2.78-.49 5.63-.16 9.79-.16 16.16 2.55 22.8 9.55 1.72-9.28 2.57-18.41 7.98-26.14l2.11-1c6 3.77 6.26 15.59 7.06 22.33 4.38-3.7 9.36-8.6 14.54-10.54l2.34.41c1.6 3.29.51 6.07-.64 9.41-.75 2.15-1.52 4.28-2.33 6.4 7.78-2.61 13.55-5.78 21.19-3.56 4.37 5.45-3.5 11.81-7.54 15.49 10.35 4.83 21.91 16.42 14.88 28.06-2.47 4.08-6.78 7.62-8.44 11.58 3.77 1.07 5.69.83 7.66 3.29-1.68 2.86-10.49 9.32-13.58 11.55 12.63 4.48 15.19 5.63 25.54 13.63-2.4-6.69-5.45-14.49-6.94-21.32 7.22 5.47 11.98 9.34 18.17 16.09 1.2-8.27 4.29-21.63 10.74-27.19 3.32-.72 1.76-.96 4.79.97 5.3 8.66 4.17 18.93 4.09 29.03 5.35-7.55 9.6-12.35 18.41-16.36-1.35 8.02-1.9 11.57-4.62 19.16 8.84-4.06 16.81-7.75 25.93-11.21-6.35 18.71-12.2 19.34-16.39 29.01 2.41.67 4.82 1.37 7.22 2.1.09 2.73-3.4 5.81-5.64 8.37 15.27-1.73 28.65-2.01 41.5 8.34 22.91 18.47 33.13 60.65 35.94 88.07.34 3.45.62 6.9.85 10.36l-2.19-.54c-7.65-26.77-25.97-51.82-46.57-70.18l-.69 2.26c20.9 26.67 39.7 62.94 39.19 97.61.54 2.93 2.12 13.94-.43 15.88l.05-.39-1.03-.77c-.3-1.31-.27-2.24-.34-3.59-4.23-41.48-16.9-65.86-41.96-98.17l-1.11 2.11c19.07 27.56 24.94 56.23 29.93 88.27-12.07-7.89-29.55-22.3-41.37-31.4a6467 6467 0 0 1-72.95-56l-199.12-153.19c-2.6-10.88-6.16-18.33-10.72-28.38 5.64 6.11 11.68 13.94 17 20.48-.6-11.59-1.73-23.25-2.33-34.95 7.31 13.24 10.2 20.58 14.76 35.03 4.38-8.61 7.79-14.82 13.69-22.41-5.17-3.43-9.32-5.45-7.69-11.84 3.23-2.39 7.02-1.17 12.01-.91 1.42-5.47-9.51-10.14-6.37-22.46l1.21-.67c4.67 2.76 16.39 14.05 21.05 18.35.63-9.66 1.64-13.07 4.31-22.2 7.91 7.31 9.47 10.55 14.49 19.81"/><path fill="#f8f7f6" d="m1448.03 1233.38 1.79-.23.75 1.68c1.39 3.26 3.15 6.29 4.92 9.34-6.6-.3-12.33-.46-18.93-.48 3.76-3.44 7.88-6.87 11.47-10.31"/><path fill="#3d3e42" d="M1668.12 1485.77c.54 2.93 2.12 13.94-.43 15.88l.05-.39-1.03-.77c-.3-1.31-.27-2.24-.34-3.59 2.46-3.98 1.41-5.75 1.75-11.13"/><path fill="#bdbfc2" d="M1615.56 1388.31c3.24 3.42 6.16 6.52 8.85 10.42l-1.11 2.11c-2.53-3.42-5.6-8.78-7.74-12.53"/><path fill="#91949b" d="M1619.23 1377.03c4.26 3.24 6.57 5.09 10.39 8.87l-.69 2.26z"/><path fill="#43484f" d="M1445.13 1230.9c2.77-.62 2.78-.49 5.63-.16l-.94 2.41-1.79.23c-1.14-1.08-1.61-1.6-2.9-2.48"/><path fill="#323a40" d="M1138.69 903.839c4.44 3.259 45.08 130.441 51.44 147.761l-318.664-.02-12.556.01c17.922-48.11 31.804-99.994 50.967-147.538 74.572 56.429 154.483 56.043 228.813-.213M693.252 1562.85c41.571-1.51 87.363-.57 129.32-.54l197.998.76c2.92.35 4.13.07 7.15-.24 15.04.49 31.07.25 46.16.02 94.91-1.41 190.11.8 284.98-.06 8.17 14.41 16.56 28.69 25.17 42.83l-355.46.11c-.06 8.89 2.05 54.1-2.17 57.83-4.41-.04-2.65.69-5.79-1.35-1.55-6.83-.62-46.99-.54-56.64l-214.684.22c-43.736.04-94.601 1.26-137.908-.77a903 903 0 0 0 25.774-42.17m-112.98-367.96c1.711-5.62 2.855-12.8 8.379-15.61 6.657 2.44 4.608 13.82 4.314 19.74 3.335-5.52 6.525-9.62 12.582-12.29l2.306.33c2.746 5.26.53 8.31-1.572 13.53l-1.863 4.68c7.735-5.43 10.242-7.43 19.651-9.79-3.831 8.06-9.465 20.9-13.831 28.25 4.853.53 9.485 1.04 14.322 1.78-1.915-4.53-4.289-8.78-4.114-13.53l1.19-1.82c5.066.06 9.199 5.81 12.23 9.34-1.366-7.1-3.255-12.76-1.508-19.64l1.54-1.03c4.914 2.35 9.149 10.8 11.668 15.74 2.102-5.7 5.39-17.22 10.462-20.32 4.475 3.08 3.158 17.37 2.989 22.92 8.927-7 12.743-9.7 23.241-13.98-3.931 7.63-7.541 14.09-10.081 22.37 3.652-1.88 5.264-3.48 8.906-3.25 2.853 2.78 6.822 10.78 11.109 16.21a511 511 0 0 1 3.29-44.18c4.967 17.08 6.614 33.24 6.371 50.93 5.649-11.74 12.187-23.96 20.872-33.8-2.896 10.35-6.02 22.61-9.249 32.72-14.92 13.55-34.842 28.08-51.071 40.51a10685 10685 0 0 0-83.476 64.13 7235 7235 0 0 1-100.428 76.73c-9.845 7.51-36.853 29.42-46.263 35.25.227-2.22.396-3.81.437-6.06 4.681-40.4 6.894-80.37-5.161-119.87l1.777-3.68c9.008 16.36 21.365 54.81 20.655 73.16l2.199 2.84c.239-24.27.529-40.02-4.132-64.37-2.789-14.57-7.327-28.57-10.257-42.54 25.027 33.08 32.267 52.18 38.925 94.38 4.899-18.31 11.454-31.78 23.467-46.27-7.537.65-18.246 1.1-25.766.43 4.323-3 8.049-5.66 12.631-8.31-7.893-2.65-14.588-3.49-18.559-10.32.428-8.82 15.1-10.39 22.461-12.02-5.141-3.09-15.476-7.21-11.679-14.03 6.66-4.1 14.668-4.1 22.6-4.83-5.549-6.66-12.316-13.63-15.04-21.75l.378-2.44c5.286-3.42 17.182 2.97 22.146 5.73-4.159-9.87-9.221-20.91-11.661-31.22 11.359 6.64 19.99 13.8 28.88 23.58 1.889-7.17 3.535-17.41 9.111-21.91 6.637.37 6.635 18.7 6.54 24 2.567-2.95 11.444-11.79 12.274-14.05-4.036-.8-4.693-.72-6.837-3.98.673-5.34 5.223-7.78 9.316-10.59l1.659-1.15 1.004-.68c-5.142-1.31-8.711-1.78-13.049-4.82l-.16-1.71c3.039-2 7.023-1.83 10.783-2.1-6.269-3.36-20.411-11.46-22.522-18.41 3.169-6.86 23.743-2.24 30.271-1.11-4.561-4.07-15.664-12.88-16.705-18.28 3.827-3.51 13.712.97 18.341 2.56-1.973-6.39-4.782-11.98-1.828-17.85 6.729-3.37 12.306 6.84 15.535 11.75"/><path fill="#91949b" d="m449.946 1404.36 2.199 2.84c-.034.63.077 4.05-.688 4.27-1.017-1.1-1.401-5.62-1.511-7.11"/><path fill="#323a40" d="M796.551 1397.76c16.392-.81 38.146-.18 54.949-.14l101.57.25 301.65.03c7.16 13.1 14.88 25.89 23.13 38.34l-24.35-.02-482.347-.3c8.057-9.5 18.629-27.33 25.398-38.16m1111.019 136.49c12.38-26.03 27.48-51.09 51.1-68.48-25.59 42.63-36.84 99.87-39.67 149.21 17.91-33.99 33.68-58.13 67.58-79.03-24.62 34.65-34.45 57.68-45.67 98.56.38 3.88-.37 5.07-1.12 8.99-.51 4.27-1.95 14.49-1.91 18.29.33 4.46.17 7.42.84 11.91l6.3-17.35c18.9 27.23 29.1 83.21 31.15 116.59-40.81-50.93-82.94-89.61-131.2-132.56-2.5-44.01-6.04-61.44-26.8-99.91 29.96 20.07 43.11 54.55 51.05 87.91 8.3-44.44-1.59-97.46-19.24-138.66l1.28-3.42c28.16 26.7 31.68 38.32 44.88 74.81 2.67-7.05 5.22-14.07 8.45-20.89-2.34-11.89-3.87-23.2-6.03-34.88-16.99-4.27-21.19-10.67-20.77-27.59 11.77 4.39 14.12 5.13 20.55 16.48.4-4.01.75-8.9 1.34-12.81 3.17-4.02 3.57-5.83 7.89-7.64 6.98 2.62 5.73 16.15 5.34 22.49-4.18 4.47-5.29 5.65-10.44 9.28 1.66 9.43 3.24 19.35 5.1 28.7"/><path fill="#43484f" d="M1939.79 1643.5c-.71-1-1.4-1.73-1.83-3.11-.83-2.56-2.28-5.74-4.22-7.65 0-.01-3.59-2.2-1.23-3.3.49-.23 2 1.07 2.34 1.48 2.14 2.57 2.85 3.29 6.06 3.59.38 3.88-.37 5.07-1.12 8.99"/><path fill="#e7e5e4" d="M1937.88 1661.79c.33 4.46.17 7.42.84 11.91-.2 1.45-.18 1.45-.79 2.8l-.19.04-.07.08c-.09-.04-.17-.07-.25-.11-1.03-2.66-.09-11.57.46-14.72"/><path fill="#323a40" d="M125.339 1601.52c-2.435-49.25-13.676-92.18-37.376-135.56 24.47 22.4 37.228 39.21 51.535 68.78 1.198-10.66 3.107-19.35 5.318-29.8-10.842-5.34-14.867-14.75-10.506-27.28.805-2.31 2.514-2.95 4.624-3.64 6.695 2.27 8.626 11.24 10.102 17.44 4.475-5.63 11.182-14.58 18.817-8.52 4.942 11.61-8.922 19.89-18.869 21.48-3.001 13.8-5.682 25.21-6.234 39.44 3.759 6.1 4.893 8.1 7.532 14.77 13.919-35.2 22.999-53.34 52.427-77.73-26.242 35.8-32.412 104.15-26.755 147.71 8.528-33.64 20.336-63.82 48.251-86.4-6.847 22.58-18.809 39.19-20.766 64.81-.659 8.63-2.925 27.67-4.704 35.96-28.542 26.61-57.394 51.88-84.379 80.28-15.78 16.61-29.163 32.47-43.661 50.01 3.953-38.73 10.29-82.47 29.852-117.01 3.591 6.34 4.42 8.74 6.817 15.67l2.212-.69c-.755-5.77-2.118-25.65-1.344-30.58-.206-.65-.601-2.02-.907-2.66-13.264-44.05-19.151-62.28-46.651-101.61a157.3 157.3 0 0 1 63.611 74.42z"/><path fill="#6a6b6f" d="M107.325 1638c.938-1.56 7.196-11.92 8.819-11.27.075 1.61-6.291 12.1-7.912 13.93-.206-.65-.601-2.02-.907-2.66"/><path fill="#e7e5e4" d="M125.339 1601.52c.213 1.79 1.474 10.52.033 11.74-.92-.25-.98-1.71-1.087-2.45z"/><path fill="#a5aaac" d="M109.576 1671.24c1.119 6.63-.825 7.09-2.212.69z"/><path fill="#323a40" d="m1314.57 913.31 4.1.535c5.69 6.285-1.77 25.538 3.92 29.845 2.86-.314 3.16-.462 5.95-.045 1.91 2.305 2.13 6.837.62 9.363-7.27.748-20.57-.436-28.32-.889-.48 33.026-.16 66.701-.17 99.771l-86.89-.01c-3.53-7.93-7.62-20.23-10.71-28.65-10.63-29.909-22.33-60.222-33.23-90.16 41.25.06 90.9 1.709 131 .25-.04 3.609-.52 6.532 1.19 9.588 3.07 2.054 8.58 1.152 12.58.96.37-10.081-.55-20.008-.04-30.558m-584.523-2.89 2.54 1.021c2.708 4.018 1.712 24.907 2.185 32.222 20.082.834 10.365-3.099 15.623-9.329 11.933-1.418 33.916-.949 46.582-1.007l82.298-.337-32.239 88.85-11.624 30.05-86.572.02c.181-32.83.144-65.668-.113-98.502-6.596-.329-27.065.112-30.722-2.461-1.548-5.767 10.455-8.548 10.72-10.4 1.278-8.933-1.484-21.128 1.322-30.127m24.297 554.38c28.407 1.07 60.798.43 89.387.46l166.129-.11c.08 5.28-.01 10.51.02 15.78.02 9.76-.42 21.37.12 30.97l-1.9 2.3c-31.344-1.13-68.174-.25-99.993-.23l-184.211-.01c10.811-16.56 20.989-31.8 30.448-49.16m288.326.37 253.17-.04c9.43 16.04 19.32 33.27 30.41 48.22-92.68 2.29-186.97-.42-279.58 1.08l-.31-.04c-.81-.1-3.67-.36-3.8-.85-1.1-4.2-.53-22.72-.75-26.7.01-1.95.06-3.72.15-5.66.64-5.2.7-10.76.71-16.01m-34.41-1079.775c27.96-1.793 43.36.699 70.11 6.142l-14.64 137.773c-9.65-5.745-14.24-7.221-25.18-9.037-21.23-2.178-35.79-1.929-54.135 9.371-5.956-45.233-9.202-92.505-14.561-138.028 14.306-2.957 24.064-4.752 38.406-6.221M825.841 1348.48l273.869-.45c40.48.01 84.78-.78 125.04.51 5.67 9.61 11.52 19.12 17.54 28.51l-19.42-.41-271.846-.32-88.576.22c-17.108.02-36.745.4-53.685-.59 3.494-6.44 12.644-22.33 17.078-27.47m859.339 9.89 3.56 5.19 1.01-.11c1.31-5.08 2.15-7.42 6.86-10.12 9.36 1.14 6.14 16.25-3.3 22 4.1 18.29 5.85 31.59 7.92 50.02.94-.32 1.88-.64 2.83-.95 3.92-17.88 17.26-40.03 28.72-54.05l1.27 3.35c-8.91 20.26-16.29 62.76-16.16 85.82.56 7.35-1.33 15.84 1.58 20.4 3.64-18.68 12.69-40.27 24.9-54.95l2.06 4.55c-5.6 15.79-10.66 30.87-11.66 47.81l3.16-.1c7.53-28.32 15.64-48.95 35.49-71.62-24.6 48.41-26.12 74.99-21.37 128.43 1.02 2.03.99 2.9 2.61 1.41 4.24-34.25 20.84-74.03 40.24-102.49l1.6.65c-19.99 46.37-30.85 92.46-31.53 143.11-27.91-20.68-55.3-42.05-82.15-64.08.65-50.59 4.98-92.04-21.34-139.52 16.61 15.44 21.59 24.83 31.74 45.52.44-2.31.84-4.63 1.2-6.95-1-12.17-2.7-24.27-5.08-36.25-1.51-.64-3.01-1.32-4.48-2.05-5.76-2.88-13.88-9.28-9.43-16.32l.55-1.51c2.84.39 5.29.51 8.11.75z"/><path fill="#e7e5e4" d="M1717.58 1494.5c-.53-9.03-1.34-26.11.31-34.98.56 7.35-1.33 15.84 1.58 20.4-.54 5.31-1.06 9.31-1.89 14.58m17.19-17.17 3.16-.1-1.05 5.26c-.62 3.02-.76 2.78-.89 5.83l-2.22 2.42c.35-4.07.41-7.55.84-11.73z"/><path fill="#6a6b6f" d="m1733.77 1490.74 2.22-2.42c-.51 3.64-.62 13.34-2.26 14.88l-.17.01c-.4-.35-.45-1.02-.49-1.53-.32-3.66-.08-7.35.7-10.94"/><path fill="#bdbfc2" d="M1752.05 1534.04c1.02 2.03.99 2.9 2.61 1.41.17 2.68-.63 6.58-.73 9.69-.7-1.8-1.23-3.26-2.09-5 .12-1.63.13-2.74.16-4.34zm-76.07-178.48c2.84.39 5.29.51 8.11.75l1.09 2.06c-3.22-.43-6.55-.84-9.75-1.3z"/><path fill="#e7e5e4" d="M1694.42 1411.69c.25 1.61 1.16 8.59.16 9.92-.78-1.33-.95-1.41-1.36-2.97.44-2.31.84-4.63 1.2-6.95"/><path fill="#6a6b6f" d="M1751.84 1540.14c.86 1.74 1.39 3.2 2.09 5-.04.43.11 2.09-.51 2.46-1.56-.54-1.52-6.31-1.58-7.46"/><path fill="#e7e5e4" d="M1701.23 1425.35c.94-.32 1.88-.64 2.83-.95-1.07 3.32-3.29 7.81-2.83.95"/><path fill="#323a40" d="M346.024 1375.6c-1.962-.75-6.972-2.42-7.964-3.89-3.314-4.94-2.678-14.56.937-18.72h2.077c3.825 2.86 5.633 6.31 8.301 10.33 2.816-.4 3.44-1.87 6.022-4.25l-.254-1.86c2.507-.4 4.342-.55 6.867-.71.687.81 1.33 1.45 2.066 2.21 6.702 8.96-7.572 15.25-14.361 17.23-3.581 21.49-6.306 33.1-6.053 55.23 8.423-19.94 19.34-45.88 36.083-60.19-17.595 45.03-22.041 101.57-24.245 149.27-20.576 18.21-51.194 41-73.541 58.27-1.323-50.32-9.334-100.57-32.373-145.95l1.514-.6a250.2 250.2 0 0 1 42.01 103.26l2.755.92c3.329-50.33 1.605-78.71-20.92-125.17l.87-1.49c18.312 24.73 31.306 50.65 34.516 81.74.882.65.909.5 1.804-.1l.162-.12c-2.058-30.38-6.516-43.89-18.286-71.21 19.883 19.49 26.264 35.51 32.546 62.07 2.511-4.19.865-13.83 1.569-20.97.836-32.47-7.44-64.38-18.816-94.45 11.527 12.64 24.473 30.2 28.779 47.01 3.077-12.77 4.279-24.68 7.935-37.86"/><path fill="#e7e5e4" d="M328.126 1460.9c1.198 8.09.896 23.08.769 31.54l-.213-.88c-1.235-4.89-1.368-4.5-2.125-9.69 2.511-4.19.865-13.83 1.569-20.97"/><path fill="#91949b" d="M312.297 1491.01c1.693 4.01.36 13.82-.089 18.37-.717-5.6-1.772-12.54-1.877-18.15.882.65.909.5 1.804-.1z"/><path fill="#bdbfc2" d="m293.11 1535.23 2.755.92c.104 1.69.56 6.67-.524 7.91-1.691-.58-2.066-7.29-2.231-8.83"/><path fill="#e7e5e4" d="M362.01 1356.5c.687.81 1.33 1.45 2.066 2.21q-4.341.15-8.679.36l-.254-1.86c2.507-.4 4.342-.55 6.867-.71"/><path fill="#323a40" d="m872.576 1267.05 305.514-.24c5.52 8.48 9.75 15.59 14.7 24.33l-13.54-.02-322.953.04c5.332-8.1 10.759-16.14 16.279-24.11M755.021 874.078l127.881-.019c4.154 4.981 7.814 10.235 11.598 15.501-3.065 9.891-6.999 20.48-10.437 30.32-.706 2.369-1.416 3.818-2.418 6.072-3.884 3.12-114.025 1.807-126.625 1.304q-.297-26.588.001-53.178m410.559.223 127.75-.233c.36 17.533-.06 36.094-.19 53.7l-14.39.006-111-.235c-4.65-11.147-9.77-26.708-14.2-38.49 5.18-5.027 7.8-8.914 12.03-14.748m61.5 214.069c24.91-2.71 47.33 15.2 50.19 40.09s-14.91 47.42-39.79 50.43c-25.08 3.04-47.84-14.93-50.73-40.03-2.88-25.1 15.21-47.76 40.33-50.49m-216.51-561.131c14.41-1.055 37.01-1.974 48.43 7.608 20.31 17.036 16.16 31.504 1.87 49.097-.17 7.768-.6 15.369-.78 23.119-6.3-1.33-11.77-1.84-18-2.846-22.11-1.618-32.66-.864-55.051 2.275q-.014-12.866-.213-25.731l-.661-.65c-12.229-11.862-13.042-23.911-3.365-38.173 6.557-9.666 16.83-12.717 27.77-14.699M475.958 1562.85l114.18-.04c-10.68 12.85-20.215 27.07-31.309 39.51-3.816 4.27-4.738 3.52-9.76 3.59H431.31c12.225-12.39 32.104-32.34 44.648-43.06m102.277-97.36c31.201-.5 62.765.03 94.078-.35-12.505 15.86-27.496 33.25-40.896 48.35l-8.167.36-97.221-.02c16.254-15.24 31.323-31.75 47.603-46.91 1.186-1.1 3.066-1.29 4.603-1.43m883.405 97.31 106.24.02c13.66 11.82 34.26 30.4 46.72 43.08-38.04.6-79.05.29-117.1-.23-13.34-14.81-23.95-26.96-35.86-42.87m-82.81-97.72c29-.01 58.01.14 87.01.47 9.77 8.8 41.44 38.87 49.47 48.41-20.02-.25-40.04-.39-60.07-.43-8.41-.04-27.62-.58-35.07.46-13.69-15.41-27.7-33.04-41.34-48.91m-736.565-66.74c20.911 1.07 65.458.57 86.282-.3-8.86 11.61-19.515 24.1-29.077 35.28-3.058 3.58-3.605 3.12-7.22 3.25-29.862-.22-59.724-.29-89.587-.2 13.386-11.28 27.383-25.38 39.602-38.03m752.165-.84c6.1.18 37.39 33.09 43.89 39.49-23.83-.78-47.67-1.05-71.51-.81l-13.01.23c-10.5-13.03-21.22-25.9-32.14-38.58 21.6.79 51.15.5 72.77-.33M1007.49 358.41c16.08-2.449 69.22-.862 82.89 12.829 5.89 5.895-4.83 13.21-10.42 15.663-12.65-2.842-23.45-5.121-36.37-6.09-23.83-2.874-52.325 1.022-75.721 5.79-5.711-3.567-9.018-4.95-11.265-11.114 1.485-14.786 39.084-16.155 50.886-17.078"/><path fill="#f8f7f6" d="m1009.86 1465.15 32.81.02c-.01 5.25-.07 10.81-.71 16.01-.09 1.94-.14 3.71-.15 5.66.22 3.98-.35 22.5.75 26.7.13.49 2.99.75 3.8.85l.31.04c-.19.01-2.95.07-3.08.77-1.39 7.97-.03 17.81-.89 25.9-5.04.04-10.03-.07-15.04.44-3.14.27-4 .22-7.15-.01-4.26-.36-7.93-.25-12.18-.19-.58-6.85-.39-20.01-.23-27.14l1.9-2.3c-.54-9.6-.1-21.21-.12-30.97-.03-5.27.06-10.5-.02-15.78"/><path fill="#e52c2a" d="m1009.86 1465.15 32.81.02c-.01 5.25-.07 10.81-.71 16.01-8.29-.76-23.44-.34-32.08-.25-.03-5.27.06-10.5-.02-15.78m30.88 69.63c1.93 1.18 1.52 3.97 1.96 6.32-5.04.04-10.03-.07-15.04.44-3.14.27-4 .22-7.15-.01-4.26-.36-7.93-.25-12.18-.19.5-2.43.46-4.27 1.77-6.36 8.48.25 22.31.53 30.64-.2"/><path fill="#dd645c" d="M1041.81 1486.84c.22 3.98-.35 22.5.75 26.7.13.49 2.99.75 3.8.85l.31.04c-.19.01-2.95.07-3.08.77-1.39 7.97-.03 17.81-.89 25.9-.44-2.35-.03-5.14-1.96-6.32-.52-3.96.58-43.63 1.07-47.94m-33.71 27.36 1.9-2.3c.26 5.54 1.02 18.13.1 23.08-1.31 2.09-1.27 3.93-1.77 6.36-.58-6.85-.39-20.01-.23-27.14"/><path fill="#e52c2a" d="M1013.67 1484.78c8.1.12 16.19.17 24.28.15-.05 15.1.27 31.52-.27 46.47-8.1.68-15.47.57-23.56.39z"/><path fill="#323a40" d="M1953.15 1638.51c5.94 5.11 12.48 19.47 16.43 26.8 26.4 49.02 37.01 94.83 39.05 150.37l-.84.8-1.67-2.02c-3.4-5.41-14.34-19.4-15.84-23.84-3.08-9.15-2.37-26.11-4.03-36.55-6.31-39.86-18.85-70.49-40.35-103.98 3.23-4.22 4.68-6.99 7.25-11.58m-1861.813.99c2.272 2.13 6.121 8.74 8.285 11.88-30.001 47.89-38.592 81.22-40.566 137.58-5.968 8.34-11.023 15.64-16.566 24.31l-2.312 2.94-.711-.5c-.11-71.83 19.298-115.27 51.87-176.21m603.086-290.4 74.595-.11c-3.475 4.01-21.876 28.32-25.257 27.36-25.886-.58-51.778-.82-77.67-.71 9.036-7.9 19.786-18.16 28.332-26.54m-481.095 124.46c.963.64 2.401 1.56 3.142 2.45 29.382 35.35 34.843 83.61 34.513 126.51l-9.326 7.46-10.147 8.38c2.662-43.12-3.182-104.45-18.182-144.8"/><path fill="#d59146" d="M1782.66 795.311c-13.47 3.397-28.56 10.028-42.04 14.303-45.22 14.346-88.02 33.334-132.03 50.794-60.59 24.043-119.7 48.695-178.53 76.898a551 551 0 0 0-41.91 22.587c-9.39 5.504-44.42 28.444-51.58 29.857l-.12-1.114c9.13-12.89 31.12-23.433 44.89-31.2 86.41-48.719 180.16-80.878 271.36-118.925 41.61-17.358 84.95-29.9 127.56-44.25z"/><path fill="#323a40" d="m1281.15 1348.95 68.94-.11c8.14 7.51 20.5 19.65 27.87 27.89-24.25-.16-50.73-.3-74.83-.94-7.64-8.9-14.6-17.81-21.98-26.84m551.63 123.97c-.19 3.14-3.28 11.43-4.45 14.95-13.37 40.53-13.05 85.83-13.11 128.31l-10.67-7.57-7.52-6.08c-2.04-45.88 5.55-93.54 35.75-129.61m-1425.345-143.1c22.34 34.99 23.019 76.06 23.334 115.83.546 4.08.131 5.78 1.906 9.1-.041 2.25-.21 3.84-.437 6.06-.32-.31-.641-.61-.961-.92-.717-.01-.956 2.47-1.099 3.02l-26.836 20.73c10.348-54.62 20.48-98.45 4.093-153.82"/><path fill="#e7e5e4" d="M430.178 1462.91a87.5 87.5 0 0 1 .591-17.26c.546 4.08.131 5.78 1.906 9.1-.041 2.25-.21 3.84-.437 6.06-.32-.31-.641-.61-.961-.92-.717-.01-.956 2.47-1.099 3.02"/><path fill="#d59146" d="M390.78 827.447c92.386 27.568 247.804 90.792 319.334 153.807l-.143 15.843c-54.748-67.236-236.576-141.564-320.609-167.639z"/><path fill="#323a40" d="M735.732 1307.1c20.876.84 47.657 1.03 68.746.69l-17.677 20.06c-1.948 2.17-1.898 2.43-4.175 3.84-23.529-.5-46.592-.25-70.09-.39 8.246-9.25 13.896-15.67 23.196-24.2m509.428-.19c21.17.46 42.35.53 63.53.2 8.12 8.36 15 16.12 22.62 24.95-21.59.07-43.18-.21-64.77-.85-7.1-7.96-14.01-16.73-21.38-24.3"/><path fill="#d59146" d="m1667.49 825.232.47.11-.17.831c-11.63 5.032-26.89 10.115-39.06 14.727l-73.59 28.422c-77.38 30.205-143.47 58.629-216.77 98.162l-1.84-.961.04-1.757c7.49-7.925 58.56-32.211 70.01-37.375 84.36-38.075 173.01-73.315 260.91-102.159"/><path fill="#323a40" d="M1574.9 1899.33c1.13-.08 5.62-.94 5.93 1.17 2.58 17.71-5.33 38.99-23.84 44.41-1.66.49-4.36.92-6.11 1.28-2.36-.1-7.74.94-8.08-2.15-2.54-23.21 7.25-41.19 32.1-44.71m-518.53-41.93c1.46.01 6.33-.82 6.5 1.53 1.66 22.6-7.66 40.35-31.06 44.52-.71-.01-7.35.33-7.5-.67-3.52-23.08 7.2-43.04 32.06-45.38m-767.29-44.19c.633.21 2.545.98 2.623 1.8 2.579 27.15-9.347 43.52-35.45 46.77-4.455-.48-3.016-2.78-3.234-6.27-1.57-25.06 14.269-37.29 36.061-42.3m1027.03 85.97c2.75-.06 6.26-.91 6.6 2.82.77 9.33-1.73 21.18-7.26 28.87-5.94 8.26-13.57 13.29-23.41 15.15-1.33.14-7.71 1.07-8.06.42-4-7.5 2.32-26.46 5.41-31.09a36.97 36.97 0 0 1 23.19-15.49zm-808.41-47.26c2.338-26.32 15.779-34.3 39.833-38.39.502 21.73-4.747 42.91-30.037 46.74-3.192.48-7.727 1.83-10.207-.69.292-3 .444-4.65.411-7.66m-227.59 48.34c16.313-1.49 13.539-.06 11.084 17.26-2.029 14.32-12.002 22.7-25.058 27.47-1.428.26-12.271 2.45-12.568-.01-2.583-21.37 6.013-37.27 26.542-44.72m1546.23.03c3.9-.37 7.8-.68 11.71-.9-.28 18.96-4.68 40.45-26.32 45.94-5.58 1.17-6.97 1.5-12.73 2.07-.16-22.12 2.8-40.22 27.34-47.11m-583.62-86.41c29.69.76 39.2 20.13 37.78 47.14-9.29-.21-14.94.18-22.64-5.81-13.97-10.87-16.8-24.37-15.14-41.33m-445.076.33c8.328-1.38 7.396 2.92 5.953 11.81-3.384 20.85-11.952 31.83-33.019 34.65-.665.02-6.062.66-6.062-1.16.026-6.81-.123-15.99 2.87-22.24 3.965-8.27 11.925-19.45 21.608-21.25 2.977-.56 5.688-1.26 8.65-1.81m-516.321 42.96q5.61-.27 11.225-.36c-.27 18.35-4.072 40.24-25.549 45.27l-3.763.84c-1.078.06-8.784 1.05-9.206-.87-4.376-19.93 7.26-38.72 27.293-44.88m1035.697 85.21c.39-.06 5.14-1 5.36.35 1.52 9.6-1.6 23.58-7.14 31.43-5.73 8.13-15.83 11.98-25.31 13.26-2.06.11-6.76 1.4-6.89-1.37-1.11-25.59 9.34-40.53 33.98-43.67m-780.705-42.26c10.86-.76 12.341-1.55 11.37 8.9-1.693 18.21-8.998 30.3-26.786 35.9-9.873 1.5-12.801 3.85-12.688-4.93.265-20.42 8.935-33.13 28.104-39.87m525.475-87.04 1.2-.12c1.18 17.16-2.93 35.39-19.47 44.13-2.22 1.17-19.01 5.86-19.33 1.96-.72-8.77-.49-19.49 4.59-27.09 9.4-14.91 18.62-14.36 33.01-18.88m-524.327 44.03c1.584-.06 9.51-1.29 9.762 1.34 1.899 19.92-6.447 39.82-28.092 43.96-1.318.12-9.884 1.32-10.103-.38-3.229-24.98 6.583-36.41 28.433-44.92m256.637 43.11c3.383-.28 6.678-.37 10.064-.49-.839 23.39-4.266 37.34-27.997 45.6-14.587 2.22-10.678.76-11.112-13.83-.147-4.93 3.734-12.54 6.406-16.64 6.021-9.25 12.163-12.53 22.639-14.64m259.99-.01c7.84-.52 10.17-1.63 9.51 6.3-.76 8.98-1 14.25-5.91 22.27a37.85 37.85 0 0 1-22.98 16.92c-3.79.31-6.93.35-10.7.38.36-22.43 4.52-40.76 30.08-45.87m703.11-1.08c30.3 3.38 39.22 18.3 38.01 47.83-27.51-.01-40.79-22.22-38.01-47.83m-963.752-41.88c3.669-.14 6.979-.11 10.642-.06-.22 21.35-4.259 39.54-27.829 45.73-3.631.26-6.714.47-10.361.6-.045-24.56 1.608-37.45 27.548-46.27m748.842 42.66c-1.81-22.07 9.31-38.79 31.17-43.24 11.19-2.27 8.09 9.91 6.44 17.82-4.41 21.18-19.16 28.61-37.93 28.09zm-299.94-44.1c26.43 1.68 41.4 21.82 37.25 47.64-28-3.6-42.48-17.99-37.25-47.64m334.04 86.46c8.49-.7 6.18 6.46 4.83 14.22-3.48 19.94-14.28 27.77-33.13 31.24-1.51.22-5.8 1.35-6.07-1.17-1.12-11.42 1.37-21.13 8.15-30.54 7.03-9.75 14.99-11.93 26.22-13.75m-262.03-85.13c1.65-.11 6.51-1.16 7 1.23 3.78 18.57-7.11 37.96-25.14 44.03l-2.68.91c-1.69 0-9.99.95-10.26-1.8-.91-10.4.26-19.72 6.23-28.51 6.92-10.2 13.27-13.4 24.85-15.86m-773.772 85.09c1.966-.17 7.125-1.03 7.333 2.2 1.398 21.66-9.095 39.18-30.977 42.98l-1.256.1c-1.766.15-6.719 1.28-6.891-1.48-1.501-24.12 8.678-39.85 31.791-43.8m1291.692-85.96c2.12-.18 4.44-.65 4.79 2.16 1.9 15.23-2.29 30.28-15.68 38.99-5.8 3.77-8.68 4.13-15.15 5.45-1.91.04-6.44 1.1-6.6-1.83-1.31-24.28 6.62-40.69 32.64-44.77m-73.79-42.24c10.59 2.57 19.88 2.37 28.18 11.29 9.72 10.44 8.77 22.5 8.41 35.7-28.97-1.64-39.02-19.06-37.88-46.93zm-775.388-.87c1.3.23 2.602.45 3.908.65 26.44 3.9 36.3 21.58 33.85 47.14-9.37.09-13.96-.67-22.249-6.22a34.48 34.48 0 0 1-14.566-22.73c-1.206-7.29-1.079-11.42-.943-18.84m-694.06 129.29c1.433-.36 3.764-1.31 3.907.98 1.008 16.1-5.47 33.66-20.836 40.87-5.142 2.41-8.871 2.48-14.336 3.01-3.184-.2-3.734-.05-3.98-3.28-.991-13.01.602-20.82 9.338-30.97 8.617-10.01 13.818-9.68 25.907-10.61m434.768-128.67c29.954 1.38 38.687 20.27 38.083 47.14-31.417.05-37.957-20.1-38.083-47.14m-512.047 128.86c31.332.7 38.295 16.26 39.605 45.23-30.856-.88-39.501-16.48-39.605-45.23m1289.367-1.52c10.23 2.07 17.86 2.41 26.5 9.49 10.73 8.77 13.11 24.83 11.57 37.79-10.72-1.01-21.74-3.99-29.26-12.38a37.84 37.84 0 0 1-9.36-28.53zm334.99-127.62c.99.66 1.16 1.26 1.2 2.47.93 27.42-9.33 43.03-37.07 44.31-2.27-2.89-1.46-13.81-.42-17.29 7.56-25.37 15.69-23.61 36.29-29.49m-78.94 43.29c29.84 1.94 39.75 18.48 37.98 46.36-30.37-1.03-38.68-18.05-37.98-46.36m-707.68 86.3c5.48-.37 8.74-.44 14.21-.36.51 19.16-3.57 33.68-22.71 42.11l-3.36 1.47c-4.36.77-8.93 1.08-13.39 1.63-.07-20.54 3.68-37.27 25.25-44.85m-582.427-43.03c30.696.35 39.367 18.49 38.009 46.65-28.894-3.68-39.085-17.67-38.009-46.65m1366.737 42.22c1.25-.14 4.02-.39 4.1 1.64 1.16 28.12-8.67 38.74-34.67 44.16-1.51 0-3.74.42-4.04-1.5-3.45-21.82 8.78-39.66 30.8-43.63zm-254.37-129.09c3.21.5 1.84 9.71 1.59 12.31-2.25 23.04-15.48 33.76-36.83 34.81-4.48-5.33-.76-21.53 2.7-27.31 8.17-13.63 18.16-16.39 32.54-19.81m-263.84 1.02c.54-.07 5.97-1.25 6.04.37.94 24.47-3.93 37.73-28.61 45.23l-.99.3c-2.06.28-7.85 2.25-8.18-1.07-2.27-22.68 7.62-40.62 31.74-44.83m-1103.474 42.61c30.191.37 38.892 19.22 37.922 46.22-29.648-.34-38.767-19.29-37.922-46.22m256.299.01c26.088.68 41.529 21.34 36.741 46.4-26.827-.72-42.418-20.35-36.741-46.4m773.115 41.95c30.64 1.89 38.79 21.09 38.33 48.46-29-5.04-39.91-18.35-38.33-48.46m-447.484 44.35c3.609-.29 7.014-.56 10.628-.77-1.351 17.93-4.255 36.64-24.192 43.53l-4.308 1.48c-1.731.24-11.017 2.1-11.221-.82-1.577-22.51 6.6-37.66 29.093-43.42m705.924-43.45c10.58.33 20.08 1.09 27.43 9.57 11.98 13.81 11.67 20.38 11.42 36.97-28.78.6-38.59-21.42-38.85-46.54m39.24 3.2c-10.98-1.2-11.72.78-23.23-5.93-11.05-6.45-19.39-27.7-15.05-39.38 1.79-4.8 22.26 4.64 26.33 8.87 10.05 10.4 11.12 18.47 11.88 32.42zm-37.59-89.5c31.4 5.95 38.05 16.06 36.44 46.98-15.16.23-22.98-4.02-31.86-16.97-4.81-7.01-6.63-21.92-4.58-30.01m-778.688 129.07c30.039.71 39.704 17.62 39.016 45.59-29.649-.19-39.018-18.89-39.016-45.59m260.005.22c29.363.85 39.303 16.59 38.403 44.88-28.969 2.16-39.461-19.41-38.403-44.88m-259.764-42.59c29.788-.28 40.37 19.94 38.183 47.17-28.033-2.82-38.859-20.58-38.183-47.17m1.105-43.18c26.511.67 40.72 20.96 37.549 46.44-27.647-1.13-41.543-19.3-37.549-46.44"/><path fill="#323a40" d="m467.825 1813.71 7.186 1.05a37.9 37.9 0 0 1 18.483 8.23c6.765 5.48 10.646 15.59 11.671 24.01.94 2.57.991 2.6 2.535 4.92.033 3.01-.119 4.66-.411 7.66l-2.202-.74c-4.703 5.2-22.611-3.42-26.583-7.85-10.389-11.58-10.791-22.61-10.679-37.28"/><path fill="#e7e5e4" d="M505.165 1847c.94 2.57.991 2.6 2.535 4.92.033 3.01-.119 4.66-.411 7.66l-2.202-.74c-.076-4.02-.101-7.81.078-11.84"/><path fill="#323a40" d="M1757.07 1941.97c31.65 4.1 38.68 15.24 38.99 46.18-28.33-.96-40.31-19.47-38.99-46.18M212.015 1813.59c29.78 2.25 39.279 20.36 37.557 47.88-29.859-2.48-38.207-20.37-37.557-47.88m-.157 86.21c31.202 1.28 38.766 17.57 37.778 46.27-28.282-.67-38.314-20.74-37.778-46.27m1030.332 41.77c30.63 3.57 38.7 17.51 38.04 46.31-29.14-1.65-39.8-18.57-38.04-46.31m-774.302.64c28.032 1.49 39.941 18.43 37.298 46.01-18.352-1.47-33.271-9.36-37.178-29.22-.946-4.81-1.827-12.18-.12-16.79m515.332-42.48c28.7 2.88 38.76 18.68 38.17 46.76-30.28-2.77-39.097-17.13-38.17-46.76m-.081-43.22c30.031 4.7 38.061 17.43 37.771 46.81-30.509-2.19-38.885-18.11-37.771-46.81M403.71 1355.85c.275 2.75-10.13 34.35-11.57 39.99a587 587 0 0 0-13.14 70.67c-1.46 12.09-2.314 24.65-4.007 36.71-.399 2.84-2.166 4.71-4.049 6.74-.218-.83-.472-1.69-.523-2.54-2.966-49.68 3.514-110.69 33.289-151.57m-167.462 96.67c12.928 8.36 28.125 58.23 29.984 73.8 1.154 9.66 7.41 54.74 3.379 62.03l-5.314 3.44-1.131-.34c-.902-11.13-.748-22.76-1.909-33.86-3.89-37.19-10.086-70.63-25.009-105.07m1569.952 3.95.99 1.65c-14.48 35.41-20.11 80.27-21.8 118.32-.13 3.08.36 12.11-1.46 14.29-3.42-1.33-3.17-1.23-5.6-4.01-1.35-10.32-.75-21.33-.09-31.75 2.37-37.31 7.75-66.92 27.96-98.5m53.63-19.62c-11.42-11.3-14.25-31.47 6.46-19.18 6.27 3.72 8.52 10.75 9.43 17.84.28-1.13.33-2.56.98-3.29.45.28.91.57 1.36.85 8.54-1.5 10.99.56 11.97 9.94 1.4 13.52-8.86 14.44-17.53 15.39-8.33-7.02-11.33-8.73-13.46-19.47z"/><path fill="#323a40" d="M1859.83 1436.85c-11.42-11.3-14.25-31.47 6.46-19.18 6.27 3.72 8.52 10.75 9.43 17.84l-2.14 4.04-3.15 1.58c-4.03-.15-7.48-1.23-11.39-2.2z"/><path fill="#bdbfc2" d="M1859.83 1436.85c7.28 2.13 6.02 2.13 13.75 2.7l-3.15 1.58c-4.03-.15-7.48-1.23-11.39-2.2z"/><path fill="#f8f7f6" d="M1875.72 1435.51c.28-1.13.33-2.56.98-3.29.45.28.91.57 1.36.85.08 1.77 1.06 11.27.61 13.09-.24 1-3.62-1.72-3.3-1.73-1.54-1.31-3.22-2.3-4.94-3.3l3.15-1.58z"/><path fill="#323a40" d="M1798.5 1800.91c8.16-16.28 12.7-20.67 30.39-27.25.08 20.36-2.38 49.44-30.59 45.74-.37-.52-.35-.68-.8-.87-.75.41-1.03.83-1.68 1.53.4-4.18.22-7.76.31-11.92.35.61.6 1.68 1.28 1.99l-.01-.09c.43-.87.59-7.03 1.1-9.13"/><path fill="#bdbfc2" d="M1798.5 1800.91c.55 4.86.88 13.71-.2 18.49-.37-.52-.35-.68-.8-.87-.75.41-1.03.83-1.68 1.53.4-4.18.22-7.76.31-11.92.35.61.6 1.68 1.28 1.99l-.01-.09c.43-.87.59-7.03 1.1-9.13"/><path fill="#323a40" d="M998.142 1774.85c.835.08 1.672.15 2.508.2 8.71 7.85 18.7 12.29 21.08 27.46 3.76 23.96-3.91 23.14-21.27 8.65-6.625-5.54-9.756-28.99-8.378-36.92.132-1 5.328.44 6.06.61"/><path fill="#323a40" d="M1051.35 1774.72c4.76 1.47 2.71 10.71 2.29 15.28-1.74 19.22-8.73 27.26-26.36 31.15-6.78-1.31-2.64-22.1-1.05-26.56 3.07-8.6 16.6-16.73 25.12-19.87m-800.599 44.85c-5.35 3.11-13.975-1.96-18.697-4.79-5.095-3.05-9.224-14.52-9.983-20.28-3.23-24.53-1.839-22.53 17.867-11.98 5.539 8.92 7.03 11.89 10.718 21.46.612 1.96 1.524 7.32.728 9.17.356-.17.397-.51.535-.86l-.821-.7c.23-1.26.553-2.29 1.305-3.33 1.019 3.76.488 7.84.483 11.89-.923-.78-1.269-1.8-2.135-.58"/><path fill="#bdbfc2" d="M250.656 1803.98c.612 1.96 1.524 7.32.728 9.17.356-.17.397-.51.535-.86l-.821-.7c.23-1.26.553-2.29 1.305-3.33 1.019 3.76.488 7.84.483 11.89-.923-.78-1.269-1.8-2.135-.58-.934-5.49-.896-10.06-.095-15.59"/><path fill="#323a40" d="M1310.13 1774.82c.27-.02 2.54-.27 2.6.36 1.81 20.79-2.22 42.82-26.46 45.62-4.6-.67-2.86-3.24-3.17-6.79-1.86-21.12 8.3-31.18 27.03-39.19m462.52-.39 1.88 1.12c1.41 1.98 2.08 1.73 4.08 3.13 10.47 7.3 17.11 16.75 17.52 29.46-.09 4.16.09 7.74-.31 11.92-24.67.22-31.01-21.17-29.85-41.57.34-5.96 2.14-1.55 6.68-4.06m-1040.538-.09c16.314 1.14 23.437 10.8 28.913 25.66 1.693 4.6.986 15.16.805 20.3-27.143-2.67-30.404-22.42-29.718-45.96m-479.709 33.92c2.305-19.07 11.909-29.87 30.727-33.54-.512 14.39-.936 32.32-13.962 41.53-4.213 2.98-11.167 5.25-16.282 3.9.005-4.05.536-8.13-.483-11.89m284.547-33c2.07 2.67.294 10.36.13 13.98-.675 14.84-4.951 26.49-20.593 30.62-2.328.6-4.666 1.16-7.012 1.69-3.225-6.18-.911-22.78 2.54-29.04 6.213-11.26 13.676-13.54 24.935-17.25m-61.074-.72c6.863.34 8.797.18 14.525 4.62 15.585 12.08 16.244 24.49 15.476 42.07-26.874-4.1-29.179-23.29-30.001-46.69m1088.754 1.42c4.27-.95 7.54-3.21 7.47 2.02-.11 9.38-2.49 31.53-11.14 36.49-13.19 7.56-21.66 10.97-19.25-6.48 1.69-12.27 3.8-14.49 11.78-24.03 2.09-2.19 6.01-5.02 8.87-6.76.76-.41 1.51-.83 2.27-1.24m-773.17-.16c1.015.03 2.451.06 2.491 1.61.438 17.15-2.407 39.16-23.364 42.69q-1.782.285-3.558.6c-.764-.44-2.165-1.15-2.273-2.23-2.377-23.61 4.592-34.44 26.704-42.67m459.2-.98c27.51 7.82 29.82 20.82 29.5 46.18-27.12-2.66-28.98-23.95-29.5-46.18m266.43.26h.97c2.57 3.61 3.27 2.06 8.16 6.36 10.59 9.3 15.04 24.37 12.37 37.93-4.44 3.32-12.81-1.98-15.05-3.44-12.23-7.95-14.54-26.96-12.98-40.03.07-.55 4.43-.09 6.53-.82m-1119.3-358.92c2.863 24.94 5.278 43.91 2.737 69.29-5.45 4.68-9.172 7.24-15.011 11.31 3.03-17.82 6.036-35.86 8.631-53.76 1.247-8.59 1.233-17.93 2.136-26.82zm-244.348 64.89c-13.19-12.57-14.883-18.18-1.256-32.64.688 1.51 7.133 18.47 6.461 17.92 2.539-1.65 3.064-2.88 6.663-4.98l.014-2.12 1.243-.27 8.234-2.05q2.342.705 4.662 1.5c-2.704 6.18-4.092 9.75-7.646 15.64-6.64 3.44-11.185 4.81-18.375 7"/><path fill="#bdbfc2" d="m165.324 1459.23 1.243-.27 8.234-2.05q2.342.705 4.662 1.5c-8.172 1.01-6.227.85-14.153 2.94z"/><path fill="#d59146" d="m563.716 882.557 1.632-.164c2.562-.298 5.136 1.034 7.636 1.798 6.72 3.713 19.104 8.271 26.591 11.932 30.915 15.118 92.848 40.362 113.952 65.499-12.598-5.593-37.306-22.252-50.978-29.623-32.77-17.668-64.534-34.685-98.833-49.442"/><path fill="#323a40" d="M1518.49 1129.51c-20.6-5.75-136.51-30.65-146.57-38.54 8.26-3 132.86 32.13 149.13 36.82zM165.324 1459.23c-18.914-14.64-7.855-33.32 3.708-25.35l.851-1.02c3.744 6.2 5.398 7.77 13.361 5.76 1.705.72 3.223 1.28 4.962 1.91-4.612 9.33-4.448 11.23-13.405 16.38l-8.234 2.05z"/><path fill="#e7e5e4" d="m169.032 1433.88.851-1.02c3.744 6.2 5.398 7.77 13.361 5.76 1.705.72 3.223 1.28 4.962 1.91-5.866-.03-10.605-.37-15.656 3.02-.882.59-4.046 2.78-5.187 2.19.266.5 1.658-10.31 1.669-11.86"/><path fill="#323a40" d="M1892.04 1451.15c8.08 2.29 11.27 6.29 10.7 14.87-.49 7.4-5.58 10.14-10.82 14.05-5.21-1.38-6.87-1.98-11.92-3.64l-.79-.25c-2.22-1.58-6.26-4.48-7.59-6.8-10.62-18.54 11.22-7.25 16.88-4.99 1.12-4.55 2.23-8.74 3.54-13.24"/><path fill="#bdbfc2" d="M1890.69 1473.39c2.32-.9 2.45-.33 2.7 2.34-2.13.54-2.13-.49-2.7-2.34"/><path fill="#2a292e" d="M506.153 1664.7c2.62 3.18 1.634 89.1 1.629 101.02 8.231 11.14 7.988 14.04-.74 24.27-4.324-3.43-4.884-4.63-7.828-9.38.996-3.93 2.488-7.15 3.684-10.88 7.437-23.2-3.414-84.91 3.255-105.03m255.191-.22 1.228.66c2.376 4.43 1.282 88.76 1.259 100.5 4.046 5.47 4.555 7.21 6.391 13.81l-5.656 9.14-2.061.47c-12.331-4.33-1.738-20.73-1.575-28.07.713-32.07-.633-64.46.414-96.51"/><path fill="#323a40" d="M1277.7 1992.1c.84.04 8.96.12 9 1.51.53 17.14.2 35.5.23 52.59-1.9.04-7.16.84-8.74-.55-1.29-1.14-.54-47.11-.49-53.55"/><path fill="#d59146" d="m1498.44 878.162.8.266c-4.47 3.007-41.84 17.723-50.03 21.171a2272 2272 0 0 0-111.41 49.251l-1.21-1.25c4.59-8.991 140.77-61.692 161.85-69.438"/><path fill="#323a40" d="M1798.16 1991.08c.32.14 3.59 1.39 3.62 2.04.79 17.17.39 34.97.01 52.21-.02.72-3.87 2.49-4.22 2.67-.1-.07-4.01-2.35-4.03-2.67-.51-12.55-.3-25.55-.08-38.17.1-6.24-1.97-12.58 3.35-15.3zm-1550.635.89c1.586.04 7.936-.13 8.01.92.559 7.85.878 48.74-.269 53.62-1.654-.07-7.535.11-7.585-1.02-.521-11.68-.712-43.94-.156-53.52m1290.685.23c.9.05 1.8.08 2.7.1 1.23.02 4.91-.38 4.88 1.64-.22 17.18.15 35.12-.5 52.23-.99-.05-8.1.22-8.03-1.15.73-13.89-2.33-40.03.95-52.82m-519.37-.36c1.79.06 6.01-.44 7.59.63 1.15.78.53 48.7.54 53.75-1.72-.06-6.39.5-7.76-.63-1.67-1.37-.5-48.22-.37-53.75m-516.146.88c.523-.03 7.994-.75 7.938.67-.602 15.32 2.275 38.57-.026 53.19-2.27-.29-7.945 0-7.959-2.34-.092-15.38-.526-36.45.047-51.52m256.494-.43q1.896.03 3.793.03c.843-.01 4.646-.43 4.629 1.16-.188 17.4-.087 35.17-.333 52.53-.468 0-7.658.41-7.701-.69-.675-17.26-1-35.72-.388-53.03m-589.305-559.43c1.939-4.02 3.075-6.82 6.247-10.3 11.049-12.13 29.786-14.12 16.739 6.86-2.805 4.51-5.075 6.2-9.625 9.2-7.963 2.01-9.617.44-13.361-5.76m185.26-75.65c-1.58-.49-4.027-1.02-5.358-1.95-4.926-3.46-7.43-12.4-3.328-17.39.564-.69 2.068-2.56 3.14-2.42 2.795.37 6.544 3.38 6.204 6.52-.007.03-.385 3.78.367 3.7 2.484-.29 16.278-5.7 14.919.85-.965 4.65-5.094 7.66-9.077 9.98-2.525.16-4.36.31-6.867.71m1320.837-1.65c-7.45-6.37-11.86-17.48.54-13.53 4.22 1.35 3.52 2.33 6.52 4.1.65-.18 1.42-19.08 10.06-7.1 5.55 7.69-2.72 14.7-9.01 17.28-2.82-.24-5.27-.36-8.11-.75m-1311.118-33.09c2.413-13.16 20.321-20.65 17.955-6.48-.698 4.18-3.49 8.68-7.029 11.36l-.07 1.32c-4.191 1.52-6.112.65-9.489 3.36l-1.097-.07c1.616-4.37.535-4.33-1.291-8.78z"/><path fill="#bdbfc2" d="M364.862 1322.47c4.354 6.14 2.68 5.84 10.926 4.88l-.07 1.32c-4.191 1.52-6.112.65-9.489 3.36l-1.097-.07c1.616-4.37.535-4.33-1.291-8.78z"/><path fill="#3d3e42" d="M1021.42 1765.69c-1.71-11.66.4-82.64-.07-98.31-.01-.25.85-.76 1.02-.82.33-.11 1.04.77 1.03.69 1.23 20.46-.21 83.91.75 100zm259.06.41c-.7-11.64-1.27-92.68 1.43-100.15 1.84 7.9 1.11 88.54.78 100.94-1.01-.46-1.12-.5-2.21-.79"/><path fill="url(#c)" d="M249.904 1751.67c1.413-3.99.982-6.87 1.937-9.48.512 6.63.166 16.83.177 23.77 2.72 4.18 4.987 8.12 7.496 12.4-2.816 5.91-4.118 7.19-7.58 12.54-4.284-4.12-7.839-7.58-7.539-13.92.201-4.24 3.634-7.49 4.715-11.49 1.048-4.31-.083-9.11.794-13.82"/><path fill="#323a40" d="M1676.81 1320.12c11.46 3.21 14.21 22.98-9.11 18.15l-.56-.57c-1.6-1.63-3.23-3.02-4.08-5.19-4.89-12.52 8.49-1.88 11.43-2.74.36-.6.99-5.41 1.47-6.96z"/><path fill="#2a292e" d="M1795.64 1767.47c-1.39-32.8-.04-68.04.6-100.85.01-.36 1.2-.23 1.24.22 2.81 32.16-1.98 68.57.69 100.56z"/><path fill="#d59146" d="M389.362 829.458c-27.619-9.295-56.38-16.283-84.029-25.664-5.814-1.973-10.924-4.188-16.883-5.98 5.946-.255 91.795 25.78 102.33 29.633z"/><path fill="#2a292e" d="M1538.61 1765.55c2.96-31.78-1.97-68.33 1.05-100.12.04-.42 1.46-.19 1.42.56-1.65 30.19 3.23 69-.27 98.57-.73.33-1.47.66-2.2.99"/><path fill="#323a40" d="M1538.61 1765.55c.73-.33 1.47-.66 2.2-.99 6.21 13.35 11.72 10.57-.98 24.83-2.45-2.72-4.39-4.46-6.98-6.99.77-4.77 1.43-13.98 5.76-16.85"/><path fill="#171818" d="M1757.15 1804c-.46-23.95.23-48.04-.14-71.99-.03-1.96.07-3.19 1.65-4.4.67.27.96.28.96.65-.11 13.71 1.63 66.87-.11 77.03z"/><path fill="#323a40" d="m1021.42 1765.69 2.73 1.56c2.81 4.98 6.61 9.96 4.34 15.4-.02 1.16-3.81 6.52-5.07 6.27-15.68-3.04-3.34-21.01-2-23.23m638.14-459.31c9.1 2.21 18.4 9.13 13.08 19.24-11.94-1.86-18.86-6.28-13.08-19.24"/><path fill="#2a292e" d="M1242.13 1795.45c.02-7.54-1.26-66.19 1.49-67.67.82.37.98.35.99.81.25 12.91 1.5 68.48-1.32 77.43-1.76-4.98-1.31-5.12-1.16-10.57"/><path fill="#6a6b6f" d="M1242.13 1795.45c1.01 4.87 1.02 5.56 1.16 10.57-1.76-4.98-1.31-5.12-1.16-10.57"/><path fill="#323a40" d="m1795.64 1767.47 2.53-.07c3.09 3.02 4.41 4.55 5.89 8.63 2.01 5.6-3.17 7.25-5.41 11.36-.09.17-.85 2.05-1.21 2.44-2.32.01-6.8-7.38-6.9-10.15-.18-4.94.97-7.51 4.11-11.05zm-515.16-1.37c1.09.29 1.2.33 2.21.79 3.06 3.22 6.83 7.11 6.01 12.53-.15.94-7.22 10.23-7.23 10.24-.15-.05-.3-.1-.45-.14-10.32-7.99-4.02-17.68-.54-23.42"/><path fill="#3d3e42" d="M289.752 1727.51c.027.03 1.574 1.57 1.577 1.67.39 13.21 1.42 66.12-.12 75.34.419.32-1.987-1.42-1.981-1.71.284-12.51-1.202-66.59.524-75.3m1030.028 4.21c.17-4.94 2.11-2.58 2.11-2.14.2 24.88.05 49.96-.43 74.79-.01.32-2.73.77-1.6.52-1.58-6.01-.82-65.98-.08-73.17"/><path fill="#7c7b80" d="M1319.86 1804.89c-1.58-6.01-.82-65.98-.08-73.17.94 16.54.76 56.09.08 73.17"/><path fill="#2a292e" d="M1562.36 1777.2c-.14-8.38-1.28-70.96.6-74.03l.68-.12c2.37 2.26 1.17 64.84.99 72.91-.76.41-1.51.83-2.27 1.24m-305.07-3.45c-.19-7.26-1-68.09.54-70.77l1.01-.47c.28.12.75 1.13.75 1.27.05 11.16 1.28 64.53-.68 70.66-.28.75-.13.52-.41.82h-.13c-.42-.47-.73-.97-1.08-1.51m-532.286-46.18c2.461 5.11 2.429 73.85.664 78.62-2.52-2.97-2.323-72.99-.664-78.62m273.138 47.28c-.104-8.52-.983-69.14.876-71.72 2.322-.03 1.882 5.03 1.872 6.41-.23 21.82.16 43.7-.24 65.51-.836-.05-1.673-.12-2.508-.2m-14.615-47.44c.183.07 2.079.74 2.086.97.717 24.69.86 50.94-.457 75.64-.061 1.14-.599 3.74-.599 3.74l-.088.14-.23-.29c-.628-3.8-.91-3.4-.846-8.16.319-24.03-.293-48.01.134-72.04m-770.447.17c.288.23 1.681 1.25 1.675 1.54-.274 12.09 1.483 70.32-.649 78.39-2.481-4.36-2.21-71.94-1.026-79.93"/><path fill="#171818" d="M1579.15 1727.67c.05.04 1.39 1.15 1.39 1.21.58 13.61 1.11 67.16-.01 77.04-.68-.97-2.06-2.73-2.01-4.05.67-19.25-1.61-56.41.63-74.2m-1329.246 24c-.326-7.44-1.49-79.67-.214-85.07l1.194-.55-.535-.65.195-.07c.158.04.272.04.383.18 2.244 2.73 1.186 69.08.914 76.68-.955 2.61-.524 5.49-1.937 9.48"/><path fill="#2a292e" d="M801.489 1727.28c4.778 6.52.606 50.39 1.954 60.86.392 3.04-.095 12.75-.324 16.37.447.34-1.911-1.34-1.911-1.62.05-15-1.218-64.79.281-75.61m699.601.02c.13.06 2.3 1.03 2.3 1.25-.14 14.65.39 64.06.09 75.12-.27.19-1.7 1.24-1.74.24-.94-21.86-1.37-55.33-.65-76.61"/><path fill="#3d3e42" d="M529.785 1702.52c.234.23 1.434 1.25 1.736 1.88 1.55 3.23.472 65.79-.542 69.97-2.714-3.41-2.615-65.23-1.194-71.85"/><path fill="#2a292e" d="M1835.23 1728.39c.2.15 1.85 1.27 1.85 1.42.41 13 .82 65.62.4 74.94.23-.16-1.73 1.37-1.75.55-.54-24.64-1.73-52.21-.5-76.91"/><path fill="#171818" d="M468.083 1728.51c.218.16 1.624 1.19 1.627 1.31.418 14.98 1.594 64.42.532 75.44-3.061-.1-2.153-2.74-2.141-5.26.112-23.77-.639-47.74-.018-71.49m1049.007 46.57c-1.16-4.95-1.03-69.44.12-72.04l.58-.41c1.8 1.19 2.13 66.28.27 72.45zm255.56-.65c-.51-7.28-.88-69.73 1.16-71.92l.51.04c1.23 2.07.85 66.95.21 73zm-711.82 30.92c.51-9.15-1.43-74.78.9-76.36 1.81.5 1.49 3.14 1.48 4.52-.15 24.16-.18 48.32-.18 72.49z"/><path fill="#2a292e" d="M786.113 1702.52c1.98 3.75 1.999 62.49 1.036 70.69-.028 0-1.277.12-1.294-.01-1.285-9.91-1.656-64.69.258-70.68"/><path fill="#171818" d="M482.484 1703.39c.308.3 1.785 1.65 1.789 1.76.533 13.76.504 57.69-.351 68.2-3.031-2.54-2.546-63-1.438-69.96m63.239 24.07c2.478 4.25 1.702 69.78.774 77.78-.54-1.04-1.681-3.09-1.607-4.24.899-14.02-1.697-62.57.833-73.54m-271.948-24.97.561.43c.117.09 1.111.79 1.117.9.744 13.44 1.123 60.44.024 71.02-2.365-4.65-2.607-64.35-1.702-72.35"/><path fill="#2a292e" d="m226.924 1702.51.547.43c.117.09 1.08.77 1.086.88.718 14.39.77 59 .189 70.51-3.037-2.53-2.376-63.28-1.822-71.82m818.386.96c.06.05 1.46 1.06 1.46 1.11.95 13.23.56 58.94.25 69.92-.23-.17-1.66-1.22-1.66-1.35-.35-14.66-.91-57.45-.05-69.68"/><path fill="#323a40" d="M375.718 1328.67c7.698 1.86-1.942 15.6-16.451 11.48l-1.505-1.49c2.619-2.78 4.098-4.84 7.37-6.7l1.097.07c3.377-2.71 5.298-1.84 9.489-3.36"/><path fill="#43484f" d="M357.762 1338.66c2.619-2.78 4.098-4.84 7.37-6.7l1.097.07c-2.007 2.94-4.314 5.74-6.962 8.12z"/><path fill="#171818" d="M1819.1 1703.48c.23.17 1.68 1.24 1.69 1.37.34 14.14.86 56.56-.26 68.37-3.08-2.72-1.88-62.23-1.43-69.74"/><path fill="#3d3e42" d="M1020.51 1541.53c3.15.23 4.01.28 7.15.01-.07 7.1-.05 14.19.06 21.29-3.02.31-4.23.59-7.15.24.16-7.2-.02-14.34-.06-21.54"/><path fill="#2a292e" d="M739.616 1703.4c3.33 5.2 1.993 61.41.874 70.54-2.31-4.88-2.095-64.11-.874-70.54"/><path fill="#171818" d="M1304.02 1704.5c.22.17 1.67 1.22 1.67 1.35.53 13.63.88 55.74-.03 66.43-3.16-2.69-1.84-59.1-1.64-67.78"/><path fill="#323a40" d="M357.762 1338.66c-3.478-4.45-5.735-7.82-2.289-13.15 3.981-6.16 3.867-6.68 8.368-2.33 1.826 4.45 2.907 4.41 1.291 8.78-3.272 1.86-4.751 3.92-7.37 6.7"/><path fill="#43484f" d="M619.847 1523.6c.395.26 1.924 1.17 1.651 1.65-1.888 3.3-10.674 13.13-12.755 15.63-.391-.24-3.57-1.87-2.937-2.82 3.522-5.34 8.976-10.66 14.041-14.46"/><path fill="#2a292e" d="m1428.78 1522.09.91.4c4.68 2.12 13.75 12.13 15.54 16.92-1.89.34-3.57 1.1-4.74-.79-3.88-6.32-9.71-9.27-11.71-16.53"/><path fill="#43484f" d="M689.748 1440.89c1.892 2.28-.849 3.64-2.814 6.13q-4.101 5.235-8.5 10.23c-3.656-7.35 5.616-12.88 11.314-16.36"/><path fill="#3d3e42" d="M735.499 1380.49c8.104 2.93 2.513 4.16-2.827 11.27-8.981 1.35 1.465-9.47 2.827-11.27"/><path fill="#2a292e" d="M1360.61 1443.8c7.41-.34 10.4 4.5 12.72 11.5-5.5-1.03-8.66-6.65-12.72-11.5m-51.89-61.96c8.36.02 8.06 1.81 12.05 10.67-6.61-2.07-6.91-5.97-12.05-10.67"/><path fill="#e7e5e4" d="M563.716 882.557c-10.272-1.374-4.84-7.147 3.747-2.455 2.621 1.432 4.765.532 5.521 4.089-2.5-.764-5.074-2.096-7.636-1.798z"/><path fill="#3d3e42" d="M854.815 1294.63c5.491.99-.314 6.6-2.119 8.69-5.602-4.26-2.221-5.26 2.119-8.69"/><path fill="#2a292e" d="M1627.38 1256.83c8.51.62 9.38 2.06 14.3 9.44-3.31-1.38-10.76-7.03-14.3-9.44m-392.84 39.11c3.9-.02 7.67-.02 8.44 4.64l.32 1.59c-3.93-1.12-5.71-3.21-8.76-6.23"/><path fill="#3d3e42" d="M1521.05 1127.79c2.5.79 8.35 2.16 9.93 3.91-.28 1.77-10.62-1.81-12.49-2.19z"/><path fill="#91949b" d="M1678.38 1456.62c1.17 3.17 1.25 9.37 1.12 12.75-1.21-4.56-2.43-8.66-3.31-13.29z"/><path fill="#171818" d="M1270.87 1335.56c5.79 1.26 6.34 2.77 8.39 8.68-3.19-1.91-6.13-5.73-8.39-8.68"/><path fill="#3d3e42" d="M1744.37 1424.97c7.49-8.63 3.61.49 2.06 4.55z"/><path fill="#2a292e" d="M777.611 1334.85c2.567 2.67-3.002 5.93-5.341 8.19-2.391-2.58 3.6-6.71 5.341-8.19"/><path fill="#171818" d="M814.731 1295.16c-.461 2.83-4.785 5.84-7.155 8.16-.417-5.63 2.213-5.82 7.155-8.16"/><path fill="#e7e5e4" d="m1757.15 1804 2.36 1.29c-.43 2.93-.62 5.79-1.02 8.74l-1.29.06c-.07-3.64-.15-6.43-.05-10.09"/><path fill="#43484f" d="M427.514 1334.88c-.312-1.34-2.019-6.8-1.991-7.54.137-3.65 3.749 3.82 3.768 3.86z"/><path fill="#6a6b6f" d="M1732.78 1370.35c.43-.69 2.12-3.42 3.23-3.82h.43c.68 1.15-2.07 6.39-2.39 7.17z"/><path fill="#bdbfc2" d="m1060.83 1805.35 2.2.65-.04 6.96-1.2.12c-.39-2.97-.85-4.71-.96-7.73"/><path fill="#3d3e42" d="M1849.98 1489.72c-.55-1.13-3.72-6.33-2.49-7.09 1.4.26 2.99 2.59 3.77 3.67z"/><path fill="#6a6b6f" d="M1806.2 1456.47c.81-1.73 2.01-3.73 3.1-5.31l1-.07-.09-.66c1.81.22-2.47 6.74-3.02 7.69zm-11.3-23.51c.66-1.34 2.12-4.48 3.57-5.15 1.34.27-1.05 4.24-1.24 4.57l-.73 1.23z"/><path fill="#f8f7f6" d="m1539.15 1898.86 3.14 1.05-.32 2.67c-1.17.09-1.67.13-2.75.3z"/><path fill="#d6bea4" d="M1788.47 790.361c.68.138 1.35.271 2.03.399.61.11 1.76.066 2.1.694-.18.356-2.68 2.331-3.27 2.888-2.63-.353-4.75-.599-1.81-3.137z"/><path fill="#7c7b80" d="M249.586 1432.57c-.207-.34-3.056-4.25-1.969-4.86 1.25.36 2.803 3.21 3.483 4.26z"/><path fill="#6a6b6f" d="M274.945 1410.98c-.345-.52-3.582-4.68-2.33-5.34 1.242.42 2.55 2.85 3.2 3.85z"/><path fill="#d6bea4" d="M1780.26 794.261c1.23-.352 3.71-1.459 4.75-.392-.03 1.011-1.71 1.241-2.35 1.442z"/><path fill="#91949b" d="M396.283 1416.18c.089-2.45 1.159-4.69 1.397-1.36l.11 1.34z"/><metadata><recraft-signature>{&quot;signed_by&quot;: &quot;recraft&quot;, &quot;signature_b64&quot;: &quot;hfpD/3RC2N9W+y02OHqqWaVT1AA5qCa3i7EoN1GOQ+Dkm/W7RdiodJsDI7jxojsmTn1kSHKpxIIOtCBnmlnWDQ==&quot;, &quot;signing_algo&quot;: &quot;Ed25519&quot;, &quot;generation_timestamp&quot;: 1777251539, &quot;identifier&quot;: &quot;393679b1-1144-4c99-9e9c-f4df8f9c1dce&quot;}</recraft-signature></metadata></svg>