<svg xmlns="http://www.w3.org/2000/svg" width="1024" height="1024" preserveAspectRatio="none" style="display:block" viewBox="0 0 2048 2048"><defs><linearGradient id="a" x1="1049.29" x2="1049.59" y1="1704.53" y2="1689.51" gradientUnits="userSpaceOnUse"><stop class="stop0" offset="0" stop-color="#d0894a"/><stop class="stop1" offset="1" stop-color="#ad844f"/></linearGradient></defs><path fill="#445a66" d="M878.995 1679.1c-155.572-38.21-302.474-138.24-386.102-276.22a606.62 606.62 0 0 1-72.926-457.259c38.347-159.931 138.79-298.014 279.141-383.747 146.553-89.166 322.962-115.19 489.022-72.139 160.79 40.192 298.83 143.001 383.39 285.538 173.25 288.847 76.2 658.607-209.95 832.847-74.35 45.27-135.62 61.14-218.45 80.74 20.11 10.89 24.07 7.73 42.41 13.79 10.14 14.24 38.84 59.71 39.51 74.35 2.57 6.3 4.35 12.92 6.27 19.44 9.96-.96 19.9-2.22 29.79-3.78l-2.08-16.12c-6.63-.12-15.42.48-22.2.76l-3.78-10.37c12.11-6.96 18.76-5.04 20.69-20.29l-6.5-.27c-4.54-1.02-6.27-.72-8.56-4.92.11-4.11 3.63-9.5 5.72-13.37 5.28 5.18 12.87 9.68 20.42 6.93 4.15-7.35-9.96-14.64-15.01-17.8 2.04-5.81 3.5-8.1 6.55-13.29 6.76 3.63 15.1 9.72 22.48 5.05l.43-2.41c-2.63-8.27-7.71-10.5-14.96-15.8 2.72-4.1 5.29-6.9 8.49-10.59 5.08 3.18 18.53 13.17 22.87 5.02-.32-8.2-4.69-11.71-10.01-18.31l7.91-8.7c4.71 3.27 12.58 12.22 17.01 12.97 9.24-6.81-1.17-16.56-6.07-22.79l13.25-7.72c4.72 7.27 11.52 15.29 17.03 22.19-4.66 2.31-7.12 3.64-11.45 6.52l-.24 1.54c4.13 7.81 23.64 10.21 31.98 10.62 20.74.93 41-6.48 56.24-20.59 12.33-11.22 17.01-22.07 17.89-38.48 14.46-6.25 89.27-1.84 98.22 11.11-2.86 8.62-.11 20.04 4.19 28.86 13.1 26.89 55.4 47.46 83.54 34.37 5.12-2.39 16.57-11.63 22.72-15.24 3.05 3.55 5.8 6.85 9.14 10.16-5.98 4.84-13.98 9.59-15.2 16.77 2.98 7 17.14 1.58 21.81-1.44 3.02 4.03 8.36 9.85 6.14 15.03-5.42.24-9.77 4.11-14.23 6.99-.86.55.54 5.43.69 6.69 5.61 10.48 22.41-1.52 26.89 10.22l.63-.18c-.28-9.57 8.1-26.45 12.83-34.75 14.29-25.03 31.54-45.55 55.01-62.4 4.88-3.49 11.22-8.5 16.91-10.1 11.62 12.77 21.56 20.13 38.83 23.2 34.24 6.09 76.13-9.54 82.51-47.27 51.78 6.71 89.76 21.08 126.25 61.58.2.25.39.5.58.75-23.89 20.86-16.03 66.88 3.9 88.13 11.44 12.21 21.1 16.46 37.44 18.3V2048H940.579c6.89-17.97 18.151-26.62 13.73-49.86-3.126-16.43-13.8-29.94-27.275-39.39a78.12 78.12 0 0 0-59.564-13.25c-26.185-19.83-34.112-73.77-36.341-104.22 2.1-1.06 3.501-1.86 5.517-3.13a70.04 70.04 0 0 0 31.443-44.37c4.772-21.2.478-37.84-10.719-55.77 6.313-9.14 10.232-22.81 16.104-33.2 3.84-7.75 8.91-15.01 12.389-22.91 1.072-2.43-5.999-2.7-6.868-2.8"/><path fill="#445a66" d="M1879.83 1614.46c51.78 6.71 89.76 21.08 126.25 61.58.2.25.39.5.58.75-23.89 20.86-16.03 66.88 3.9 88.13 11.44 12.21 21.1 16.46 37.44 18.3V2048h-550.02c-1.72-6.2-2.29-4.96-8.28-7.37-8.65-25.66 30.11-55.64 52.52-59.73 19.24-3.51 33.51-3.96 50.78 6.44 4.24 11.09 7.92 15.48 14.71 25.09 4.29-2.55 8.98-6.42 13-9.52-2.2-2.26-4.31-4.6-6.32-7.03-3.17-3.79-8.19-10.05-2.62-13.68 8.46.03 11.97 4.15 19.05 9.42 4.2-4.23 5.67-6.29 9.03-11.01-4.2-3.34-11.66-9.88-14.24-14.53.35-3.48.42-3.24 2.49-6.14 8.4-3.35 12.55 8.33 21.27 7.07 3.03-2.58 5.55-8.06 7.56-11.75-5.92-2.66-18.48-8.84-17.94-16.18 6.23-4.54 17.26 1.31 23.61 3.86l6.48-11.52c-8.33-4.39-13.77-7.39-22.76-10.5 2.05-3.01 4.6-7.57 7.95-8.21 3.76.05 7.52-.29 11.21-1.01 18.53-3.48 8.44-8.54-3.23-12.58 8.23-2.32 7.53-1.45 15.2-6.43 1.58-.9 1.46-.81 2.31-2.51-1.67-7.51-7.11-30.54-5.19-37.08 27.32-26.06 33.86-58.27 13.55-92.22-4.02-6.72-8.46-10.16-14.38-15.1-.28-9.57 8.1-26.45 12.83-34.75 14.29-25.03 31.54-45.55 55.01-62.4 4.88-3.49 11.22-8.5 16.91-10.1 11.62 12.77 21.56 20.13 38.83 23.2 34.24 6.09 76.13-9.54 82.51-47.27"/><path fill="#fff" d="M1679.76 1890.18c4.02 10.34 7.05 19.78 11.83 29.92.01 0 11.84 18.17 12.68 19.65 3.19 5.59 18.12 18.84 19.69 22.5l3.36 3.07c4.37 2.35 12.66 9.28 16.6 12.72 28.94-20 76.42-15.23 98.77 13.01 3.69 4.68 10.27 17.08 10.08 22.91-1.03 1.18-1.05 1.51-2.33 2.23.56 4.46-.32 6.18 2.27 9.81l12.17 1.22c5.01-.39 9.1-.31 14.38-.83l1.69-.15 9.11-1.78 6.45-1.29c4.7-.86 9.27-2.24 13.94-3.2l6.4-2.03c5.94-2.02 11.77-4.43 17.67-6.52l8.14-4.5c3.42-2.44 11.94-7.15 15.86-9.35l6.03-4.27c.49-2.17.32-2.07-.5-4.27-10.08-3.91-8.22-21.94-5.83-30.28 5.48-19.04 17.97-36.46 35.52-46.02 19-10.33 33.94-10.37 54.26-4.7V2048h-550.02c-1.72-6.2-2.29-4.96-8.28-7.37-8.65-25.66 30.11-55.64 52.52-59.73 19.24-3.51 33.51-3.96 50.78 6.44 4.24 11.09 7.92 15.48 14.71 25.09 4.29-2.55 8.98-6.42 13-9.52-2.2-2.26-4.31-4.6-6.32-7.03-3.17-3.79-8.19-10.05-2.62-13.68 8.46.03 11.97 4.15 19.05 9.42 4.2-4.23 5.67-6.29 9.03-11.01-4.2-3.34-11.66-9.88-14.24-14.53.35-3.48.42-3.24 2.49-6.14 8.4-3.35 12.55 8.33 21.27 7.07 3.03-2.58 5.55-8.06 7.56-11.75-5.92-2.66-18.48-8.84-17.94-16.18 6.23-4.54 17.26 1.31 23.61 3.86l6.48-11.52c-8.33-4.39-13.77-7.39-22.76-10.5 2.05-3.01 4.6-7.57 7.95-8.21 3.76.05 7.52-.29 11.21-1.01 18.53-3.48 8.44-8.54-3.23-12.58 8.23-2.32 7.53-1.45 15.2-6.43 1.58-.9 1.46-.81 2.31-2.51"/><path fill="#c67c39" d="M1679.76 1890.18c4.02 10.34 7.05 19.78 11.83 29.92.01 0 11.84 18.17 12.68 19.65 3.19 5.59 18.12 18.84 19.69 22.5-7.49 3.7-13.84 10.19-19.85 15.97-6.17-4.9-7.27-5.94-12.66-11.73 1.95-2.04 24.21-21.02 8.56-24.77-3.16-.75-16.56 7.13-20.8 9.35-4.1-4.84-5.89-7.46-9.28-12.7 7.16-5.9 14.03-11.41 18.53-19.84-6.26-5.05-23.28 3.43-31.45.43-1.12-.41-2.33-5.18-2.74-6.25 3.76.05 7.52-.29 11.21-1.01 18.53-3.48 8.44-8.54-3.23-12.58 8.23-2.32 7.53-1.45 15.2-6.43 1.58-.9 1.46-.81 2.31-2.51"/><path fill="#ce8540" d="M1727.32 1965.32c4.37 2.35 12.66 9.28 16.6 12.72-4.66 6.64-8.72 15.26-12.64 22.46-4.28-3.03-9.43-6.58-13.09-10.22 3.35-5.42 12.76-17.63 9.82-23.51z"/><path fill="#c67c39" d="m1890.06 2024.46 6.45-1.29c4.7-.86 9.27-2.24 13.94-3.2-2.3 8.78-.89 11.19.85 20.45-4.97 1.64-8.51 2.48-13.55 3.81-2.49-7.08-5.27-13.17-7.69-19.77m52.6-17.54c3.42-2.44 11.94-7.15 15.86-9.35 1 9.43 3.27 11.98 8.03 20.43-4.44 2.41-7.64 3.8-12.19 5.86-3.86-5.74-7.2-11.83-11.7-16.94m-25.81 11.02c5.94-2.02 11.77-4.43 17.67-6.52.98 8.75 1.51 9.14 4.81 17.71l.53 1.4-12.66 5.19c-3.34-6.17-6.1-12.18-10.35-17.78m-51.97 9.28c5.01-.39 9.1-.31 14.38-.83l1.69-.15c-.14 6.59-.03 12.84.08 19.41-4.73.22-8.82.33-13.56.3-.87-6.75-2.18-11.92-2.59-18.73m-12.17-1.22c-.22 3.29-1.61 17.16-5.16 18.35-14.38 4.83.88-25.69 2.89-28.16.56 4.46-.32 6.18 2.27 9.81"/><path fill="#ce8540" d="M1964.05 1989.03c.19-.25 1.46-2.18 1.99-1.85 6.68 4.18 13.55 11.19 19.32 16.71 1.51 1.44-5.26 5.41-6.85 4.33-4.62-3.5-10.23-10.37-13.96-14.92.49-2.17.32-2.07-.5-4.27"/><path fill="#fff" d="M1846.69 1717.74c53.39-5.71 101.26 33.06 106.76 86.47 5.5 53.42-33.46 101.13-86.9 106.41-53.13 5.26-100.51-33.44-105.98-86.55-5.47-53.1 33.03-100.64 86.12-106.33m-600.37 206.01c3.89-1.67 12.43-5.93 14.66-.29-2 7.94-9.89 13.02-16.25 17.87l5.92 9.85c7.47-3.11 13.73-6.85 21.54-5.3 4.87 5.72-8.33 15.27-12.45 19.08l8.61 9.04c2.74-3.03 12.4-14.29 14.73-15.66 37.8-22.09 94.6 10.12 96.77 53.33.73 14.63-7.57 24.92-11.57 36.33h-291.65l-.89-2.9c-2.02-6.47-2.59-11.76-9.08-14.68-.85-9.21 2.92-21.33 8.67-28.44 26.21-32.39 67.42-38.26 100.89-15.28 2.99-2.29 6.17-5.28 9.24-7.2l1.63-1.87c5.41-6.04 12.14-14.83 16.67-19.67l5.55-8.57c7.88 1.87 13.16 5.25 20.1 9.28 3.29-4.26 5.91-7.82 8.8-12.45 2.89-3.94 3.42-6.94 4.42-11.76.67-4.93 1.42-6.3 3.69-10.71"/><path fill="#ce8540" d="M1176.22 1986.7c2.99-2.29 6.17-5.28 9.24-7.2.98 4.89 8.22 14.51 11.51 19.77-6.02 4.08-8.4 6.2-13.94 10.97-2.81-4.05-5.26-7.85-7.56-12.2-3.68-6.96-5.51-6.2.75-11.34"/><path fill="#c67c39" d="M1203.76 1957.96c5.55 6.07 9.69 9.86 15.79 15.33-3.27 4.15-6.52 8.09-9.72 12.32l-2.85-1.81c-9.1-5.76-10.78-11.52-19.89-6.17 5.41-6.04 12.14-14.83 16.67-19.67"/><path fill="#fff" d="M1253.73 1746.64c31.25-1.78 59.2 84.03-2.17 112.52l-28.13-6.53c-.16 5.35-.4 10.36-.08 15.71 7.79.46 14.41-.07 20.59 4.6l.47 1.88c-3.65 6.11-16.75 7.23-23.45 8.35-37.3-23.05-36.22-86.39 4.08-106.17 2.57 6.3 4.35 12.92 6.27 19.44 9.96-.96 19.9-2.22 29.79-3.78l-2.08-16.12c-6.63-.12-15.42.48-22.2.76l-3.78-10.37c12.11-6.96 18.76-5.04 20.69-20.29m419.38-.68.63-.18c5.92 4.94 10.36 8.38 14.38 15.1 20.31 33.95 13.77 66.16-13.55 92.22-1.92 6.54 3.52 29.57 5.19 37.08-.85 1.7-.73 1.61-2.31 2.51-7.67 4.98-6.97 4.11-15.2 6.43-3.85.1-8.66-.15-12.59-.24-24.86-16-34.84-45.56-27.71-73.81 4.48-17.78 15.78-27.43 30.84-35.94 2.48-1.13 2.55-.98 4.16-3 2.64-6.14 14.1-7.31 20-8.38.03-5.16-.3-9.13-.73-14.21-6.5.97-15.16 1.97-21.61.96-1.62-2.85-1.44-2.72-1.57-6.05 3.49-8.53 14.5-6.21 20.07-12.49"/><path fill="#c67c39" d="M1646.86 1838.83c5.61 1.2 20.9 2.96 26.53 5.25.93.38 1.08 7.32 1.18 9.02-1.92 6.54 3.52 29.57 5.19 37.08-.85 1.7-.73 1.61-2.31 2.51-5-7.11-2.92-7.56-12.93-6.38-5.13.61-10.37 1.23-15.56 2.02-.85-5.27-1.78-10.54-2.49-15.84 2.35-.6 26.34-3.76 22.31-13.31-1.36-3.24-15.96-3.25-20.29-3.82l-3.55-.48c.53-5.45 1.04-10.63 1.92-16.05"/><path fill="#445a66" d="M1656.95 1786.13c3.91 3.81 5.01 4.04 10.54 5.04l10.02 1.9c-.15 18.89.72 10.28-16.54 7.21-9.37-1.67-7.88-1.83-8.18-11.15 2.48-1.13 2.55-.98 4.16-3"/><path fill="#c67c39" d="M1221.8 1924.04c5.63 2.43 13.82 5.21 18.6 8.65.77.63 1.44 1.19 2.23 1.77-1 4.82-1.53 7.82-4.42 11.76-2.89 4.63-5.51 8.19-8.8 12.45-6.94-4.03-12.22-7.41-20.1-9.28.92-2.5 6.93-14.05 8.46-16.33 1.37-2.99 2.65-6.02 4.03-9.02"/><path fill="#fff" d="M1221.8 1924.04c5.63 2.43 13.82 5.21 18.6 8.65.77.63 1.44 1.19 2.23 1.77-1 4.82-1.53 7.82-4.42 11.76l-.88-.86c-7.58-3.63-13.1-6.95-19.56-12.3 1.37-2.99 2.65-6.02 4.03-9.02"/><path fill="#ddd3c7" d="M1240.4 1932.69c.77.63 1.44 1.19 2.23 1.77-1 4.82-1.53 7.82-4.42 11.76l-.88-.86c2.84-5.09 2.57-6.98 3.07-12.67"/><path fill="#c67c39" d="M1226.54 1908.47c3.01 1.51 5.4 1.83 7.27 4.56.31 6.47 6.87 6.7 12.51 10.72-2.27 4.41-3.02 5.78-3.69 10.71-.79-.58-1.46-1.14-2.23-1.77-4.78-3.44-12.97-6.22-18.6-8.65 1.56-5.21 3.2-10.32 4.74-15.57"/><path fill="#fff" d="M1227.52 1902.36c7.74-.58 17.48-2.6 24.16-1.87-2.67 4.93-12.65 9.82-17.87 12.54-1.87-2.73-4.26-3.05-7.27-4.56.3-2.23.53-3.88.98-6.11M954.777 2048c1.579-2.78 8.169-13.36 10.844-13.46 8.52-.32 7.385 10.65 7.403 13.46z"/><path fill="#c67c39" d="M1227.52 1902.36c.55-1.95.78-6.66 3.03-6.48 5.22.42 14.63-4.5 18.94-4.16.2.38 1.71 7.12 2.19 8.77-6.68-.73-16.42 1.29-24.16 1.87"/><path fill="#fff" d="M1380.8 2048c7.73-8.61 8.57-9.69 15.23 0zM484.066 967.173c34.966-.005 47.939 39.457 49.904 68.037.341 4.94.405 16.81 2.192 20.56l1.181.05c3.756-10.4 3.527-29.64 8.017-41.48 6.133-16.04 17.425-26.622 32.604-33.806 25.517-12.077 45.965-3.147 70.042 5.487l53.195 19.129c61.214 21.45 122.22 43.49 183.008 66.12-.493 11.22-.201 24.54-.2 35.94-13.621 3.64-31.463 10.92-44.963 15.95l-67.381 24.8a5044 5044 0 0 1-137.082 52.54c-21.576 7.95-37.144 8.18-58.732-1.28-20.244-8.87-30.483-27.64-34.386-48.41-1.12-5.97-2.835-19-4.688-24.14-3.351 1.28-2.979 16.67-2.954 20.24.483 69.94-71.606 102.05-91.294 18.12-10.435-44.48-10.029-94.02-2.966-139.18 4.163-26.623 15.243-52.326 44.503-58.677m1084.254-.058c36.43-3.257 49.74 31.98 53.35 63.895 5.66 50.12 10.92 121.78-15.88 166.86-4.4 7.4-16.36 16.16-24.88 16.61-32.99 1.73-50.84-35.2-51.7-63.61-.36-11.21.33-21.93-1.22-32.61-4.86 11.58-5.3 32.13-11.2 46.38-5.72 15.26-14.93 27.19-30.38 34.12-33.49 15.01-71.41-4.75-102.69-16.47l-82.97-30.68-74.87-27.14c-14.97-5.56-33.5-13.45-48.02-18 .36-12.03.14-23.83-.02-35.85a19146 19146 0 0 1 183.07-66.84l42.36-14.876c32.56-11.789 56.01-22.962 89.24-3.645 29.61 17.211 27.05 46.371 34.3 74.871l.29 1.13c2.81-9.54 3.3-24.33 4.85-34.56 3.85-25.39 10.27-49.176 36.37-59.585M912.297 514.391c35.241-3.583 85.489 15.349 54.74 59.506-10.493 15.068-36.02 26.064-51.83 33.527-2.658 1.254-3.987 1.506-4.902 4.286 3.973 3.5 8.497.473 13.541-.777 24.773-6.137 51.486-7.086 70.102 13.763 7.072 7.917 13.462 19.531 15.502 30.293 1.65 24.101-1.95 48.983-1.87 73.202-2.98 73.075-3.71 147.608-7.53 220.467-13.71 3.505-23.091 7.084-35.914 12.471-16.824-20.516-35.216-45.361-51.848-66.613l-74.047-94.515c-15.965-20.4-32.077-40.386-47.003-61.767-12.634-17.545-16.164-42.647-4.754-61.831 12.609-21.201 34.651-32.424 57.687-38.397l.935-1.894c-9.667-6.215-57.701 15.758-87.361-6.8-6.45-4.906-12.278-11.467-13.09-19.822-.973-10.015 3.689-20.261 9.785-27.942 31.015-39.076 109.26-61.545 157.857-67.157m217.343-.028c41.99-6.423 185.83 40.806 188.35 88.702a30.45 30.45 0 0 1-8.48 22.991c-25.09 25.507-72.87 6.601-101.99 6.985 15.22 9.402 34.42 10.149 49.32 23.538 53.14 47.725 8.25 86.394-23.55 125.452l-75.33 92.6c-22.36 26.456-45.28 57.655-68.4 82.8-9.53-3.457-19.41-5.84-29.3-7.957l-7.03-169.542c-.99-23.124-7.4-115.88-2.27-133.144 4.09-13.741 13.62-26.461 26.49-33.027 20.88-10.659 45.01-6.312 66.38.339 1.7.529 1.67.174 3.22-.529l.82-2.524c-2.05-2.061-16.83-8.036-20.85-9.778-50.47-21.882-71.21-77.137 2.62-86.906m287 158.811c5.48-.372 10.92-.294 16.33.799 34.44 6.964 77.06 62.281 96.29 91.231 15.72 23.653 38.18 55.98 31.52 85.666-1.97 8.757-7.1 16.463-14.81 21.193-6.65 4.08-14.76 5.421-22.47 5.421-42.61.001-65.1-46.022-73.7-47.934l-1.46 1.369c-.17 4.891 14.79 27.176 17.97 36.779 8.44 25.502 2.99 52.65-21.97 66.192-16.53 8.969-37.26 10.494-54.97 16.522-42.49 12.671-85.83 23.383-128.22 36.475a6243 6243 0 0 1-102.48 28.953c-5.72-8.22-9.86-15.77-17.02-22.707 11.09-20.479 31.3-50.81 44.34-70.794l60.09-92.086c16.84-25.496 34.2-53.442 51.38-76.934 28.53-39.019 78.74-23.623 101.97 11.661 2.62 3.977 7.5 12.403 11.63 12.597l1.3-1.919c-.89-4.967-4.67-11.32-6.84-16.081-12.48-27.346-29.11-73.397 11.12-86.403m-255.49 489.166c18.12 5.74 40.6 11.18 59.35 16.57l145.84 42.53c14.06 4.17 28.23 8.28 42.29 12.31 20.42 5.87 37.52 9.08 50.27 27.94 14.4 21.28 9.5 45.67-.93 67.36-2.53 5.26-8.82 14.48-9.8 19.4l.89 1.11c5.98-.58 21.95-22.06 28.55-27.11 49.71-38.07 103.06-9.6 71.72 52.76-16.91 33.65-37.05 62.72-61.41 91.11-18.31 19.84-52.04 55.06-83.46 41.49-32.05-13.83-16.09-58.99-3.51-80.98 3.49-6.11 8.01-12.3 10.98-18.96-1.87-2.3-.73-1.38-3.88-2.22-4.29 1.68-22 28.86-35.77 34.96-48.6 21.52-66.67-7.23-90.04-41.86-11.08-16.3-22.24-32.55-33.49-48.74l-65.93-96.41c-12.97-18.96-30.84-43.69-41.99-62.99 8.12-9.41 13.48-17.93 20.32-28.27m-262.472.75 1.089-.01c1.678.95 16.269 22.78 19.129 26.35a4768 4768 0 0 1-118.161 181.31c-12.665 18.67-25.512 41.47-39.657 58.35-26.555 31.69-70.016 19.42-92.374-9.76-2.074-2.7-10.931-13.77-13.438-15.06l-3.507 2.13-.941 1.8c10.317 21.62 24.212 45.79 23.757 70.28-.335 8.62-3.143 17.96-9.894 23.72-16.837 14.39-37.957 4.78-53.482-6.09-13.748-9.63-24.18-20.5-35.039-32.82-26.876-29.48-64.604-81.19-69.474-120.7-5.019-40.71 39.76-45.74 66.719-26.15 16.906 12.28 22.955 20.77 37.215 34.43 2.872.11 2.791-.54 5.747-2.35l.353-1.69c-7.65-11.05-14.545-25.47-18.361-38.42-7.205-21.6 2.32-54.74 24.292-64.11 22.901-9.77 51.679-16.87 75.854-24.11 66.453-19.97 133.184-39 200.173-57.1M631.349 673.271c49.169-4.131 41.258 50.683 27.891 79.197-2.66 5.674-7.906 15.53-8.764 21.169l1.599 1.464c4.289.615 4.848-1.921 7.578-5.493 8.418-11.549 15.096-19.438 26.478-28.214 15.389-14.964 52.71-10.837 66.849 5.478 18.442 21.281 38.973 54.759 55.055 79.016l59.844 89.149c17.437 26.16 33.901 52.331 51.756 78.529-5.711 7.834-11.393 16.064-17.012 23.994a4521 4521 0 0 1-92.933-26.532c-10.596-3.825-27.145-8.225-38.262-11.549l-99.177-28.581c-13.332-3.828-40.911-10.528-52.117-16.2a51.66 51.66 0 0 1-20.935-19.104c-14.044-23.011-5.168-48.354 7.284-69.478 2.883-4.892 7.466-9.901 8.699-14.748l-.841-1.379c-5.863.994-19.54 19.501-25.611 25.381-22.126 21.428-75.659 38.31-84.734-4.618-6.158-29.129 18.296-66.939 34.567-90.972 18.023-26.62 43.253-57.639 68.904-77.298 6.858-4.985 15.667-7.625 23.882-9.211M966.49 1222.73c10.903 5.08 23.147 7.8 34.82 10.63 3.21 63.25 5.96 126.51 8.25 189.8l2.31 52.25c1.4 29.43 5.53 58.05-20.663 77.94-22.396 17.02-49.448 13.1-74.542 6.92-2.3-.56-2.782.09-4.328 1.32 4.301 6.95 50.876 19.25 63.849 46.36 3.355 7.01 4.398 15.21 1.668 22.62-3.711 10.06-12.906 16.68-22.292 21.06-36.547 17.05-91.346-2.46-127.323-15.56-26.163-10.59-75.025-29.57-77.478-64.25-.482-6.82 3.992-17.9 9.514-22.19 25.894-20.12 61.364-9.64 90.751-8.77-12.732-7.77-28.668-9.65-42.751-19.61-32.993-23.32-30.167-59.92-6.004-88.45 9.717-11.48 20.491-26.1 30.077-38.51q37.24-48.015 74.986-95.64c18.734-23.38 42.234-51.49 59.156-75.92m116.92 4.69 10.31-4.54c18.83 23.42 36.81 47.37 55.33 71.02l72.05 90.91c10.17 12.96 20.44 25.85 30.81 38.66 15.1 18.78 28.8 32.28 26.01 58.67-2.81 26.72-20.35 41.31-43.76 50.8-8.24 3.34-17.46 5.53-25.34 9.73 9.74 2.01 28.43-1.54 39.19-2.26 18.35-1.23 45.8.3 56.68 17.54a28.38 28.38 0 0 1 3.65 22.08c-9.52 38.8-85.4 63.6-120.38 72.45-29.74 7.53-81.56 15.45-102.19-15.88-14.47-23.8 15.1-51.43 34.82-60.49 6.98-3.73 24.84-9.49 29.07-14.79l-.38-1.19c-9.96.34-21.06 4.58-31 5.78-37.48 4.53-68.38-19.23-67.75-58.26.44-27.19 1.58-54.01 2.65-81.04l3.99-118.55c.67-19.71 1.85-52.5 2.3-73.46.36-.45.72-.91 1.07-1.36l7.27-1.3c4.15-1.44 11.23-3.48 15.6-4.52"/><path fill="#ca2f2c" d="M1067.81 1231.94c4.15-1.44 11.23-3.48 15.6-4.52l1.75 7.06c.82 3.36 2.97 8.94 4.2 12.32 3.08 5.62 9.58 17.01 13.84 21.42 13.6 14.11 27.03 20.12 37.11 38.07-1.44 3.69 2.23 7.17 4.29 11.33 8.98 18.15 9.1 35.34 10.1 54.94.21 4.25-.13 10.11-.44 14.52-8.15-15.45-17.05-30.79-27.89-44.55-19.63-24.94-50.04-51.59-55.08-84.77-2.46-7.72-2.94-17.72-3.48-25.82"/><path fill="#a82121" d="M1067.81 1231.94c4.15-1.44 11.23-3.48 15.6-4.52l1.75 7.06c.82 3.36 2.97 8.94 4.2 12.32-9.38-1.45 2.97-24.4-19.38-4.88.75 3.35 3.18 13.18 1.31 15.84-2.46-7.72-2.94-17.72-3.48-25.82m86.45 155.14c.31-4.41.65-10.27.44-14.52-1-19.6-1.12-36.79-10.1-54.94-2.06-4.16-5.73-7.64-4.29-11.33 16.92 24.99 15.53 51.43 15.94 80.18.01.85.07 1.69-.46 2.37-.84.19-1.28-1.26-1.53-1.76"/><path fill="#fff" d="M1447.91 1731.1c54.88-2.91 101.74 39.2 104.67 94.08 2.94 54.88-39.16 101.75-94.04 104.7-54.9 2.96-101.8-39.17-104.74-94.07-2.93-54.9 39.21-101.79 94.11-104.71m-426.42-1.34c53.47-4.39 100.38 35.37 104.81 88.83 4.43 53.47-35.3 100.41-88.77 104.87-53.504 4.46-100.49-35.31-104.922-88.82s35.37-100.47 88.882-104.88m6.19-684.29c25.56-1.35 47.37 18.28 48.7 43.84 1.34 25.55-18.31 47.35-43.87 48.66-25.53 1.32-47.296-18.31-48.629-43.84-1.332-25.52 18.269-47.31 43.799-48.66"/><path fill="url(#a)" d="m1125.27 1690.87 1.5 1.78c-54.09 11.47-99.28 21.38-154.913 5 1.77-1.12 2.093-1.39 3.958-2.11 47.275 4.59 102.585 1.27 149.455-4.67"/><path fill="#937956" d="M959.113 1693.85c3.56.24 13.673.7 16.702 1.69-1.865.72-2.188.99-3.958 2.11-4.334-.93-8.521-2.42-12.744-3.8m166.157-2.98c1.5-.38 7.05-1.8 8.21-.3-.51 1.57-5.42 1.86-6.71 2.08z"/><path fill="#445a66" d="m614.307 1582.97 11.611 2.05c.028 6.69-1.023 11.29 3.582 15.89 7.61.9 8.496-9.29 9.787-14.99l12.107 2.58c-1.55 5.74-4.231 11.34-1.978 16.01 3.182 2.04 1.501 1.58 5.192 1.53 5.496-3.6 4.88-13.84 11.394-14.4 4.166 2.34 2.921.72 4.689 4.32-.777 4.33-4.889 15.19-6.033 20.43-.169.78-3.954 4.49-4.868 5.38-9.593 40.01 77.225 90.42 115.378 34.95l11.909 9.2c-5.043 5.68-9.315 9.34-10.75 16.78 3.15 7.51 17.044-1.51 22.043-4.06 2.378 3.48 4.709 7.1 7.425 10.3-5.12 3.97-10.358 7.84-15.127 12.2.982 3.81 1.125 6.57 4.122 8.9 6.667 1.93 14.347-2.78 21.122-5.69q3.286 5.91 6.391 11.91c-6.692 3.1-19.297 7.48-20.37 15.83 4.587 6.28 18.561 1.22 24.497-.81 1.84 4.9 3.155 8.17 4.35 13.32-5.409 1.97-18.496 5.53-20.972 10.24-.829 1.57.319 3.56 1.069 5.59l.122 1.9c-9.382.85-14.282 1.61-21.513 8.65-22.479 21.89-19.098 67.21 4.849 86.82 9.426 7.71 18.768 6.66 29.787 4.05 1.099-4.31 1.22-2.27-.17-6.33-4.887-4.46-16.136-4.1-23.239-4.56.187-6.05.663-11.28 1.23-17.29 9.856.49 23.043-.82 29.186 7.61 2.229 30.45 10.156 84.39 36.341 104.22a78.12 78.12 0 0 1 59.564 13.25c13.475 9.45 24.149 22.96 27.275 39.39 4.421 23.24-6.84 31.89-13.73 49.86H0v-257.07c57.083 2.33 82.985-71.36 45.56-112.2 28.275-32.89 53.54-54.5 96.215-65.25 8.734-2.2 18.843-5.41 27.866-5.45 4.682 16.99 11.566 28.56 27.492 37.03 35.4 18.83 76.975 12.1 100.891-20.08 2.242-.02 2.843.07 5.169.39 1.832 1.11 21.69 10.79 23.862 11.57 1.764 1.05 3.925 2.26 5.604 3.37 6.281 5.68 11.95 9.02 19.804 16.59 6.435 6.54 11.007 13.09 16.854 19.7.02.01 1.826.7 1.862.73.507.42 1.392.71 2.042.84.193.04.193 0 .323-.11.082-.83-.675-1.22-.36-2.18.612-.49.72-.41 1.588-.48l.58.93c2.079 3.38 2.119 4.63 4.798 7.64-1.63 1.64-1.974 2.13-2.976 4.29 2.561 4.87 8.862 15.27 10.47 19.7l.186-3.33.635.86c3.754 5.16 4.329 7.52 10.881 9.45l4.952-9.28c8.267 2.59 22.906 10.77 23.47-2.9-3.712-4.51-9.697-6.52-15.133-12.16 2.606-3.93 4.427-6.72 7.457-10.39 5.552 3.72 16.74 12.53 21.796 5.08.139-5.54-1.492-7.47-5.248-11.43q-2.766-2.895-5.598-5.73c3.526-3.46 7.195-7.23 10.894-10.47 12.109 13.98 16.234 24.31 37.216 25.62 34.118 2.14 75.515-20.28 78.793-57.37.145-1.64-.154-2.86-.658-4.4-.14-.13-5.52-4.95-5.345-4.57-3.227-7.03-5.579-15.52-8.964-22.36l9.43-2.77c2.358 5.08 5.673 15.95 12.592 13.2 3.302-5.55 1.074-10.81-.412-17.14l11.452-2.29c1.871 6.7 2.351 12.56 8.141 16.04 7.659-.84 5.128-12.31 4.764-17.94 3.864-.34 8.081-1.09 11.701.02 2.046 8.12-.711 12.43 5.259 16.14 8.424-1.13 7.098-9.94 8.402-16.87"/><path fill="#fff" d="M415.739 1866.93c2.009 3.47 1.751 3.41 5.786 5.35 1.963 8.69 4.691 20.89 7.302 29.11 5.834 18.36 24.52 51.23 39.265 63.37 40.21-14.69 92.535 13.74 93.501 59.21-7.19 7.06-7.744 14.08-9.29 24.03h-351.66c.21-9-2.183-23.71 9.763-24.23 5.182 3.36 5.78 14.48 7.493 21.29 2.476 1.52 8.124.93 11.332.87-.406-5.4-7.403-24.35-9.682-29.96l-.22-1.05c2.739-49.71 81.882-71.61 111.678-41.55 3.481-1.88 5.62-3.66 8.435-5.19 2.223-2.21 4.968-4.42 7.384-6.48 2.284-2.74 14.213-16.72 16.463-18.44 1.138-1.45 2.631-3.83 3.704-5.43 10.706-17.23 15.877-30.1 22.775-48.77 1.172-2.7 1.272-3.23 1.896-6.12l1.749-10.93c8.014-1.45 14.423-3.03 22.326-5.08"/><path fill="#c67c39" d="M415.739 1866.93c2.009 3.47 1.751 3.41 5.786 5.35 1.963 8.69 4.691 20.89 7.302 29.11 5.834 18.36 24.52 51.23 39.265 63.37-3.67 5.33-14.619 14.96-19.837 19.2-4.759-2.99-6.704-4.92-10.749-8.65 4.035-4.24 9.343-8.7 10.304-14.32-3.408-5.9-14.333 2.67-18.465 5.26-4.36-4.38-6.051-6.75-9.594-11.64 4.688-3.66 13.457-9.09 13.593-15.36-5.512-1.7-13.511 4.19-18.067 7.17l-10.184-13.09c7.66-4.78 14.456-9.29 20.625-15.93-6.089 1.33-16.466 5.31-22.05 3.85-.681-2.12-.74-2.84-.955-5.04-1.97-1.04-14.945-6.41-16.045-5.77-13.568 7.99 7.492 19.04 14.72 23.7l-9.755 14.11c-8.676-3.11-15.557-8.24-24.64-10.42 10.706-17.23 15.877-30.1 22.775-48.77 1.172-2.7 1.272-3.23 1.896-6.12l1.749-10.93c8.014-1.45 14.423-3.03 22.326-5.08"/><path fill="#fff" d="m391.664 1882.94 2.722 1.11c3.421 1.38 16.925 6.12 17.551 7.19 5.096 8.66-20.361-1.53-22.169-2.18 1.172-2.7 1.272-3.23 1.896-6.12"/><path fill="#c67c39" d="M346.826 1961.7c2.284-2.74 14.213-16.72 16.463-18.44 4.463 9.77 7.468 12.98 15.503 20.42a990 990 0 0 1-12.433 12.42c-7.293-7.01-10.386-10.42-19.533-14.4m-15.819 11.67c3.481-1.88 5.62-3.66 8.435-5.19 4.421 8.37 6.478 12.44 12.653 19.91-3.524 2.62-7.307 5.47-10.888 7.98zm-111.458 42.6c5.652.32 4.941.11 7.348 5.54q4.455 9.81 9.358 19.41c1.705 3.4-4.828 4.53-7.024 5.01-.406-5.4-7.403-24.35-9.682-29.96"/><path fill="#fff" d="M801.943 1833.67c9.856.49 23.043-.82 29.186 7.61 2.229 30.45 10.156 84.39 36.341 104.22a78.12 78.12 0 0 1 59.564 13.25c13.475 9.45 24.149 22.96 27.275 39.39 4.421 23.24-6.84 31.89-13.73 49.86h-260.59l-.476-1.43c-5.88-18.08-17.881-23.16-9.666-45.25 13.554-36.44 55.991-54.04 92.156-41.95 5.288 8.36 12.011 13.43 19.39 19.96 3.938-3.86 5.8-6.06 9.198-10.28-4.111-3.6-14.674-11.04-10.357-16.95 7.598-1.75 11.874 1.84 18.915 5.6 2.465-2.59 4.79-5.93 6.949-8.85-4.726-3.14-17.076-9.94-13.133-16.89 6.147-2.56 14.115 2.55 19.084 5.95 2.566-3.86 4.279-6.54 6.435-10.63-1.741-7.4-14.431-5.39-18.371-11.89.597-3.31.017-1.7 2.666-4.67 3.139-1.5 6.71-.62 10.291-.21 10.289-4.87 14.752-5.56 13.612-17.92 2.554-4.64 2.429-7.21-3.645-7.21-6.004 0-11.162-.73-16.902-2.24 4.297-7.32 19.753-6.29 22.723-15-.718-3.06-2.406-4.12-4.736-6.29 1.099-4.31 1.22-2.27-.17-6.33-4.887-4.46-16.136-4.1-23.239-4.56.187-6.05.663-11.28 1.23-17.29"/><path fill="#c67c39" d="M801.943 1833.67c9.856.49 23.043-.82 29.186 7.61 2.229 30.45 10.156 84.39 36.341 104.22-2.709 6.3-16.256 16.7-22.125 21.49l-7.006-8.65c5.366-5.9 12.792-10.89 14.258-17.92-1.817-4.06-2.155-3.29-6.433-6.3l-16.603 6.97c-3.148-3.4-5.652-6.92-8.424-10.62 4.554-3.38 19.56-10.62 19.478-15.55-8.07-8.78-11.155-2.64-21.144.06-2.871-.42-3.555-1.59-5.632-3.68l-.769-.79c10.289-4.87 14.752-5.56 13.612-17.92 2.554-4.64 2.429-7.21-3.645-7.21-6.004 0-11.162-.73-16.902-2.24 4.297-7.32 19.753-6.29 22.723-15-.718-3.06-2.406-4.12-4.736-6.29 1.099-4.31 1.22-2.27-.17-6.33-4.887-4.46-16.136-4.1-23.239-4.56.187-6.05.663-11.28 1.23-17.29"/><path fill="#fff" d="M0 1919.01c2.229 1.31 4.677 3.32 6.915 1.81 22.612-15.24 32.689-21.19 59.88-9.8 18.08 7.58 34.378 23.15 42.215 41.96 4.095 9.55 7.668 33.18-3.411 38.72l-3.83-.37c-5.797 5.58-10.175 11.31-15.354 16.38 2.977 1.99 6.033 4.14 9.166 5.83 4.433-6.08 6.179-10.27 13.235-12.14l2.447.72c2.922 6.82-2.079 12-6.212 17.13 5.313 3.29 6.983 4.22 12.828 6.65 3.664-6.76 4.765-10.98 11.932-13.38l2.487.48c3.684 6.43-.696 11.95-4.08 17.68 4.758 2.07 8.959 4 13.925 5.58 3.265-7.68 3.866-11.78 10.949-15.86l2.48-.01c5.163 5.16 1.409 14.51-.288 20.67l15.231 3.6c1.284-6.78 2.56-20.79 11.597-19.83 6.452 5.66 5.034 13.91 4.95 21.86 3.281.18 8.748.19 11.635 1.31H0zm392.293-64.46c-34.082-19.07-38.592-64.6-19.982-95.73 12.518-20.94 16.168-12.46 34.907-4.8 1.041.43 1.848 1.84 2.35 2.82l-.159 2.61c-5.051 4.46-17.476 1.08-23.804-.22-1.021 5.39-2.28 11.31-3.141 16.67 6.836.24 20.869 1.55 26.752.55 1.327-1.46 2.644-2.85 4.172-4.1 6.885 1.39 15.381 9.07 19.023 14.87 17.297 27.56 12.213 63.14-10.886 85.06-4.035-1.94-3.777-1.88-5.786-5.35-4.316-3.95-14.154-8.38-19.514-10.7-1.728-.87-2.061-1.06-3.932-1.68"/><path fill="#c67c39" d="M394.568 1843.84c7.304-.64 12.607-.73 19.747-2.49.211 2.22.455 4.44.732 6.65.298 2.28 1.464 5.15 2.226 7.39-6.044-.39-15.543-1.33-21.048.84-1.728-.87-2.061-1.06-3.932-1.68 1.058-4.05 1.475-6.71 2.275-10.71"/><path fill="#ce8540" d="M414.315 1841.35c6.456-.87 4.396.53 5.506 7.17.554 3.31.41 5.2-2.548 6.87-.762-2.24-1.928-5.11-2.226-7.39a224 224 0 0 1-.732-6.65m-26.671-133.39.186-3.33.635.86c3.754 5.16 4.329 7.52 10.881 9.45 2.377 9.52 10.542 9.81 19.225 12.39-2.072 3.97-3.405 10.68-6.511 10.42-6.804-.55-11.156-1.55-17.574-3.61a161 161 0 0 0-4.777-19.58z"/><path fill="#fff" d="M806.135 1883.14c5.74 1.51 10.898 2.24 16.902 2.24 6.074 0 6.199 2.57 3.645 7.21-7.397 3.14-12.072 2.85-20.04-.28-1.145-.45-.441-7.69-.507-9.17M654.851 2048c.107-2.14 1.017-15.32 6.545-14.64 3.328.41 8.506 11.31 10.332 14.64zM0 1890.67c19.593 1.18 12.093 10.04 0 17.89zM565.195 2048c7.33-10.75 13.926-18.91 17.523 0zm61.715 0 .153-2c.232-4.33.622-6.23 5.64-6.09 4.756.13 4.947 3.83 6.863 8.09zm-29.262 0c2.714-11.49 9.903-9.02 13.129 0z"/><path fill="#ce8540" d="M369.317 1676.6c.02.01 1.826.7 1.862.73.507.42 1.392.71 2.042.84.193.04.193 0 .323-.11.082-.83-.675-1.22-.36-2.18.612-.49.72-.41 1.588-.48l.58.93c2.079 3.38 2.119 4.63 4.798 7.64-1.63 1.64-1.974 2.13-2.976 4.29-2.622-3.31-4.959-7.91-7.857-11.66"/><path fill="#fff" d="M594.158 1724.21c53.727-6.74 102.765 31.29 109.617 85 6.853 53.72-31.067 102.84-84.763 109.81-53.866 6.99-103.176-31.07-110.05-84.95s31.3-103.11 85.196-109.86m-404.832-9.41c53.267-7.96 102.931 28.68 111.064 81.92 8.134 53.24-28.328 103.02-81.539 111.34-53.47 8.36-103.553-28.32-111.726-81.82s28.675-103.45 82.201-111.44"/><path fill="#c67c39" d="m1863.03 1584.08 17.82.23c-.06 8.98-1.25 15.78 3.31 23.23 7.03 3.63 11.11-7.74 13.08-12.88 1.04-2.73 2.06-5.48 3.06-8.23 5.44 1.32 10.67 2.69 16.23 3.41-1.52 9.01-3.46 15.05-.56 23.65 7.03 5.69 15.66-14.3 18.11-19.02l15.52 6.07c-2.2 8.79-4.82 14.34-2.27 22.66 5.65 5.05 12.61-3.92 16.02-8.17a541 541 0 0 0 4.17-5.31c4.38 2.45 9.42 5.06 13.41 8.01-4.33 7.97-7.41 12.14-7.37 21.25l.85 1.69c8.1 2.28 16.79-6.82 23.17-11.2l11.27 9.29c-4.55 5.67-13.3 15.11-10.69 23.03 7.58 4.75 17.96-5.02 24.12-9.58 3.74 4.77 6.83 8.87 11.09 13.2-6.4 5.69-12.84 11.33-19.31 16.92-2.51-1.59-5.67-3.25-7.4-5.54-.19-.25-.38-.5-.58-.75-36.49-40.5-74.47-54.87-126.25-61.58-5.52-.58-10.25-1.04-15.81-1.27-.25-9.71-.59-19.41-.99-29.11m-117.89 29.65c5.16-3.58 9.78-6.05 15.28-9.07 4.97 8.91 9.08 16.52 15.02 24.89-5.83 3.43-10.88 5.98-16.95 8.98-5.69 1.6-12.03 6.61-16.91 10.1-23.47 16.85-40.72 37.37-55.01 62.4-4.73 8.3-13.11 25.18-12.83 34.75l-.63.18c-4.48-11.74-21.28.26-26.89-10.22-.15-1.26-1.55-6.14-.69-6.69 4.46-2.88 8.81-6.75 14.23-6.99 2.22-5.18-3.12-11-6.14-15.03l1.47-2.57c9.76-5.81 17.41 14.49 30.46-3.08-6.37-7.41-11.9-10.5-20.05-15.8l9.55-15.18c7.01 4.21 19.85 13.58 27.51 7.14 1.67-7.91-9.08-15.86-14.29-20.45 3.56-4.54 7.29-8.03 11.36-12.08l5.09 3.51c4.84 3.3 15.66 11.62 20 4.23-.02-8.61-4.75-13.69-9.62-21.08l14.66-9.78c3.69 5.2 14.49 20.37 21.17 13.11 1.61-8.19-2.15-13.37-5.79-21.27"/><path fill="#fff" d="M1646.22 1735.74c-.15-1.26-1.55-6.14-.69-6.69 4.46-2.88 8.81-6.75 14.23-6.99 2.43 4.77 8.39 4.97 9.69 9.84 1.15 4.33-20.25 3.65-23.23 3.84"/><path fill="#c67c39" d="m164.013 1579.43 16.061-1.86c-.418 9.18.528 20.44-2.803 28.45-3.138 2.83-2.123 1.93-7.63 2.01-9.023.04-19.132 3.25-27.866 5.45-42.675 10.75-67.94 32.36-96.215 65.25-12.733-4.99-16.443-5.56-29.929-12.5l8.609-12.27c6.084 4.76 17.072 15.35 24.564 9.68 2.56-8.43-6.43-16.56-11.486-22.3l12.152-11.88c6.08 5.7 13.17 14.5 22.2 12.36l1.388-2.41c.08-8.57-4.16-13.2-8.835-20.76 4.166-3.39 8.907-6.44 13.37-9.47 5.897 6.53 11.01 11.68 17.345 17.82l6.98-6.51-6.776-21.56c4.381-2.11 9.983-3.96 14.623-5.65a114 114 0 0 0 13.611 20.1c6.252-4.04 7.879-5.81 6.448-13.64l-2.286-12.75 16.251-4.72c1.84 7.62 4.224 17.09 10.652 21.71 10.245 1.16 9.288-17.92 9.572-24.55m1296.067 9.41 21.11.32c-.2 6.57-1.12 15.2 2.31 20.84l1.75.22c5.15-5.2 6.07-11.86 8.06-19.07l19.7 5.24c-1.4 5.82-4.5 13.81-.84 18.98 6.33.46 9.69-10.65 11.88-15.65l18.22 7.13c-2.24 4.78-11.17 24.13-14.85 26.7-8.95-12.95-83.76-17.36-98.22-11.11-6.23 1.73-12.06 2.91-18.38 4.22-2.33-10.1-4.99-20.8-6.95-30.92l12.64-2.96c1.97 6.6 3.49 15.65 9.29 19.05 5.47-2.38 3.13-14.12 2.72-19.42 8.62-4.1 10.82-3.76 20.15-3.45.7 5.48 1.23 16.22 5.21 19.69 4.7-2.54 5.39-14.43 6.2-19.81m-274.55 113.81c12.39 1.29 14.53-1.81 24.53-9.93l3.64-2.97c2.71 3.87 5.65 7.9 8.21 11.84-5.53 5.57-11 9.38-11.86 16.88 3.79 7.66 17.08.96 23.34-1.33l6.66 10.59c-6.24 5.29-13.39 10.02-16.02 17.6 1.99 7.37 17.36 2.28 23.2 1.04l6.5.27c-1.93 15.25-8.58 13.33-20.69 20.29l3.78 10.37c6.78-.28 15.57-.88 22.2-.76l2.08 16.12c-9.89 1.56-19.83 2.82-29.79 3.78-1.92-6.52-3.7-13.14-6.27-19.44-.67-14.64-29.37-60.11-39.51-74.35m-341.353-11.69c3.015-4.57 5.964-8.66 9.154-13.09 5.041 2.87 13.339 7.88 19.089 8.82 1.689.27 5.856-6.53 6.575-7.59.869.1 7.94.37 6.868 2.8-3.479 7.9-8.549 15.16-12.389 22.91-5.872 10.39-9.791 24.06-16.104 33.2-10.86-10.43-16.291-10-30.012-15.01l8.097-15.43c6.257 2.51 12.832 4.58 19.16 6.83 2.206-3.31 4.277-6.65 6.46-9.97a478 478 0 0 0-7.008-5.61 233 233 0 0 1-9.89-7.86m-464.027-6.99c12.792-3.48 11.876-2.04 22.971-8.97 3.074 5.67 5.908 10.27 9.493 15.62a336 336 0 0 1-23.639 13.41l-1.145.6-.186 3.33c-1.608-4.43-7.909-14.83-10.47-19.7 1.002-2.16 1.346-2.65 2.976-4.29m-1.735-37.76c4.418 4.4 8.171 8.02 12.359 12.69-4.876 4.97-11.189 12.15-16.002 16.5-.868.07-.976-.01-1.588.48-.315.96.442 1.35.36 2.18-.13.11-.13.15-.323.11-.65-.13-1.535-.42-2.042-.84-.036-.03-1.842-.72-1.862-.73-5.847-6.61-10.419-13.16-16.854-19.7.01-1.7.047-3.39.112-5.09 9.946 12.64 14.391 3.09 25.149-5.07zm-93.887-56.12c5.735 2.33 11.86 4.94 17.695 6.82-2.451 6.16-5.887 15.1-5.694 21.71.057 1.97 5.901 4.74 7.311 5.57l-.647 1.18c-2.326-.32-2.927-.41-5.169-.39-5.037-2.64-13.227-4.83-19.774-7.85.318-2 .663-4.76 1.047-6.6a239 239 0 0 1 4.165-16.85c.167-.55.333-1.1.5-1.64zm35.167 14.84c4.973 3.3 9.627 5.85 14.803 8.78-4.803 9.16-9.532 13.2-7.443 23.23-2.172-.78-22.03-10.46-23.862-11.57l.647-1.18c6.642-3.59 12.124-12.78 15.855-19.26"/><path fill="#c67c39" d="M350.462 1623.19c4.168 3.06 8.246 6.25 12.228 9.55-3.674 6.63-6.679 12.32-10.115 19.07-.065 1.7-.102 3.39-.112 5.09-7.854-7.57-13.523-10.91-19.804-16.59 7.682-5.75 11.455-10.34 17.803-17.12"/><path fill="#445a66" d="M826.117 1761.1c9.268-.95 7.704.58 7.145 9.45-6.777-4.25-7.459-4.62-15.026-7.22 2.757-1.34 4.933-1.46 7.881-2.23"/><path fill="#747b87" d="M810.877 1760.43c5.665.73 9.599.61 15.24.67-2.948.77-5.124.89-7.881 2.23-2.414-.35-4.831-.58-7.237-1z"/><metadata><recraft-signature>{&quot;signed_by&quot;: &quot;recraft&quot;, &quot;signature_b64&quot;: &quot;Xa/alohx0lx3SDtJSUQnRUqjJyjPDhyvOvva5oR9YhKOUJtDtXzyzO0e6mbI0tyjwZKx6x2k6BnX4sSYr0CKCQ==&quot;, &quot;signing_algo&quot;: &quot;Ed25519&quot;, &quot;generation_timestamp&quot;: 1777235331, &quot;identifier&quot;: &quot;b276646e-6cfe-4ade-9e73-b2d05cf296fb&quot;}</recraft-signature></metadata></svg>