<svg xmlns="http://www.w3.org/2000/svg" width="1024" height="1024" preserveAspectRatio="none" style="display:block" viewBox="0 0 2048 2048"><defs><linearGradient id="b" x1="1018.75" x2="994.755" y1="45.569" y2="3.569" gradientUnits="userSpaceOnUse"><stop class="stop0" offset="0" stop-color="#47585a"/><stop class="stop1" offset="1" stop-color="#7a747e"/></linearGradient><linearGradient id="a" x1="1057.96" x2="1053.4" y1="54.291" y2="78.776" gradientUnits="userSpaceOnUse"><stop class="stop0" offset="0" stop-color="#5c5f6a"/><stop class="stop1" offset="1" stop-color="#777e7d"/></linearGradient></defs><path fill="#5d666c" d="M1000.25 1098.45c6.69-.53 50.07-.85 55.17.58.1 4.1 8.45-.28 12.33 2.63 38.49 1.25 67.07.34 93.89 30.6 10.58 9.85 16.96 24.13 27.32 33.84 4.06 3.81 15.24 10 20.1 11.82 46.46 17.45 46.28 58.24 56.18 98.91 1.05 4.32 10.55 15.56 12.8 20.15 8.91 17.72 13.54 38.89 13.13 58.42-.62 30.16-18.07 45.27-27.78 71.11-5.31 14.13-3.51 32.2-10.81 46.97-5.61 11.33-9.21 15.78-17.89 24.55-13.93 14.09-31.26 13.7-44.48 24.99-6.67 5.7-12.73 22.66-18.37 30.34-25.28 34.34-65.86 45.27-106.14 47.63-4.77-12.35-5.18-15.6-6.08-28.63 12.04 5.58 24.44 9.81 37.63 5.58 7.47-2.4 14.09-8.32 11.81-16.6-7.9-5.86-21.12 9.05-33.93 12.06-7.15-1.67-8.64-1.9-15.27-5.43.09-6.56.1-13.27.28-19.81 46.82-5.97 65.13-26.03 100.33-52.96 36.68-28.07 43.76-45.47 54.43-90.71 5.16-21.89 16.61-44.06 12.12-68.39-2.45-13.59-8.72-23.79-12.23-37.51-2.96-11.57-1.59-25.73-4.33-36.31-10.74-41.43-72.15-87.62-109.31-103.94-25.75-11.31-86.04-12-114.447-10.18-8.828.92-23.438 8.6-31.229 12.08 1.52 1.45 2.515 1.65 1.479 3.23-14.794 5.25-32.02 15.53-45.05 24.23l-2.058-1.93c-14.506 8.72-29.209 22.33-43.988 31.47-10.76 6.64-28.284 33.74-28.044 46.6.454 24.34-6.968 43.42-12.153 66.79-4.299 26.6 2.783 57.13 8.664 81.96 9.045 38.19 19.949 58.5 53.003 79.31 3.618 2.27 16.07 18.57 21.133 23.45 26.113 25.18 50.833 30.8 85.391 34.44.459 6.18.882 12.35 1.269 18.53-5.896 1.2-9.415 2.46-15.015 4.41-10.512-2.2-41.748-9.57-44.426 6.52 2.503 7.19 9.655 7.6 16.196 8 17.313 1.05 26.501-11.87 41.885-15.98l1.567-.41c-.733 11.28-2.813 20.08-7.199 30.4a87.3 87.3 0 0 1-15.192 1.95c-32.12 1.24-76.28-9.63-92.592-40.6-4.399-8.35-9.28-26.45-15.958-31.63-16.818-13.03-35.506-16.25-52.092-32.19-17.063-14.98-19.511-35.86-19.814-57.29-.236-16.64-3.177-26.34-14.037-39.61-11.857-14.48-17.238-27.97-18.214-46.67-1.587-30.36 13.049-51.46 25.81-77.33 7.638-15.84 3.267-37.42 9.531-52.42 7.666-18.37 23.022-36.73 40.928-46.02 7.232-3.75 22.232-10.65 27.836-15.74 7.982-7.25 15.584-20.46 23.649-28.84 25.078-26.06 77.538-33.25 112.577-33.75z"/><path fill="#e5e4e5" d="M1000.25 1098.45c6.69-.53 50.07-.85 55.17.58.1 4.1 8.45-.28 12.33 2.63-19.89.93-47.11.05-67.19-.54zm-90.405 87.32c16.748-11.05 28.132-16.6 45.629-25.53 1.52 1.45 2.515 1.65 1.479 3.23-14.794 5.25-32.02 15.53-45.05 24.23z"/><path fill="#fdfcfc" d="M1251.3 1381.04c17.02.11 15.28 13.6 5.52 22.8-9.76 9.22-16.1 16.82-22.16 28.78-2.27 4.44-3.86 4.6-6.59-.18-3.63-6.37-2.73-15.26-.61-22.05a50.35 50.35 0 0 1 23.84-29.35m-438.52-122.71c4.437 3.26 4.615 3.81 7.88 8.18 2.558 21.77-4.359 41.94-24.751 52.62-19.705 3.07 3.064-25.78 6.634-32.56a87.3 87.3 0 0 0 7.1-17.6l.525-1.95a205 205 0 0 1 2.612-8.69m421.91 8.18c3.11 1.87 4.77 6.37 6.09 9.49 4.47 11.33 12.14 17.38 20.4 25.45 3.88 3.79-.71 8.18-3.67 10.02-5.17-.39-11.79-.53-15.8-4.15-12.65-11.47-18.79-27.17-7.02-40.81m-67.69-84.32c12.79.4 48.44-1.77 40.79 19.63-15.32 4.99-37.02-2.81-40.79-19.63m-368.298 208.18c15.078 7.4 28.637 35.45 21.286 51.25-.29-.02-3.894-.14-4.026-.42-6.271-13.42-23.023-36.26-17.26-50.83m81.682-213.65c.461.03.921.06 1.381.1 1.374.16 2.626.87 3.474 1.96 4.544 5.81-5.046 16.85-10.203 19.45-9.2 4.65-15.723 5.17-25.556 2.74-24.347-13.39 8.498-10.67 15.969-15.12 5.483-3.27 9.543-5.54 14.935-9.13m305.286 314.38c4.26-.17 17.4-1.72 15.86 5.48-2.02 9.46-20.72 8.91-29.23 16.76-8.47 9.46-12.8 8.03-11.1-5.77.73-5.94 17.88-14.47 24.47-16.47m-98.8-370.73c23.25-3.47 36.22 8.41 9.78 15.52l-1.2.17c-23.04 3.62-37.83-11.55-8.58-15.69m-228.247 371.8c11.677-.59 30.343 3.11 27.499 21.84-.17 1.12-2.374 1.91-3.402 2.2-8.021-1.86-42.792-13.17-24.097-24.04m109.561-368.99c16.947-1.23 22.519 11.72-6.701 15.2-2.124.11-17.225.73-13.67-6.93 1.948-4.19 15.6-7.26 20.371-8.27"/><path fill="#fbf7e4" d="M1018.57 734.924c-1.51-5.441.36-26.753 11.02-18.032 4.72 3.861 4.04 10.833 7.11 17.11l.89 2.295c6.52 1.954 11.57 7.021 14.06 13.307l.4 2.753c13.29-1.42 18.81 2.512 26.8 12.879.09 4.163.43 9.618.01 13.635 1 6.301 2.02 6.11-1.13 11.441 3.21 3.362 3.08 2.296 3.55 7.775l.36 2.904c1.84 11.592 2.95 22.566 5.47 34.09a206.64 206.64 0 0 0 55.82 102.966c2.94 2.802 5.8 5.695 8.56 8.675l1.03 5.243c7.08 5.413 14.81 10.041 22.37 14.774l1.18 1.129-.38 2.356c4.55-.114 9.24.132 13.79.286 10.14 7.898 10.98 10.671 14.36 22.568-25.32-15.095-40.01-6.255-56.95 13.952-19.79-18.589-43.89-17.201-59.69 5.59a44.76 44.76 0 0 0-29.98-13.29c-13.8-.55-21.82 4.55-31.36 13.2-20.21-24.195-41.241-20.401-63.356-2.3-21.377-21.397-36.024-23.766-60.38-4.27-12.956-16.202-24.943-26.987-46.944-16.699-2.906 1.359-5.981 3.595-8.886 3.192-.93-3.88 2.151-9.576 4.042-13.005 3.481-6.314 10.733-8.276 17.216-10.027 3.153-.645 2.979-.493 5.271-2.726l5.469-3.099c7.739-4.977 16.095-10.081 23.288-15.741-.141-2.943-.534-1.578.775-4.231 2.539-3.32 4.487-5.896 7.423-8.919 21.273-23.59 41.785-60.7 50.236-91.052 3.589-12.89 6.116-29.491 8.278-42.861l.545-3.441q2.846.572 5.673 1.23l.347-1.761c.479-2.32.714-3.463.987-5.841-1.45-1.583-1.637-2.13-3.442-3.056-1.018-.721-2.006-1.407-3-2.162-.623-9.475-.241-12.181 1.313-21.275a47 47 0 0 1 1.626-1.32c10.464-8.102 17.545-11.277 30.429-9.659l-.22-2.056c2.2-8.215 6.56-10.248 14.67-12.722l1.83-.597z"/><path fill="#e89d40" d="M867.552 969.421c18.62.996 40.02.6 58.82.656l100.478.1 95.95-.023c16.33.042 36.84.657 52.89.07 4.55-.114 9.24.132 13.79.286 10.14 7.898 10.98 10.671 14.36 22.568-25.32-15.095-40.01-6.255-56.95 13.952-19.79-18.589-43.89-17.201-59.69 5.59a44.76 44.76 0 0 0-29.98-13.29c-13.8-.55-21.82 4.55-31.36 13.2-20.21-24.195-41.241-20.401-63.356-2.3-21.377-21.397-36.024-23.766-60.38-4.27-12.956-16.202-24.943-26.987-46.944-16.699-2.906 1.359-5.981 3.595-8.886 3.192-.93-3.88 2.151-9.576 4.042-13.005 3.481-6.314 10.733-8.276 17.216-10.027m151.018-234.497c-1.51-5.441.36-26.753 11.02-18.032 4.72 3.861 4.04 10.833 7.11 17.11l.89 2.295c6.52 1.954 11.57 7.021 14.06 13.307l.4 2.753c13.29-1.42 18.81 2.512 26.8 12.879.09 4.163.43 9.618.01 13.635 1 6.301 2.02 6.11-1.13 11.441 3.21 3.362 3.08 2.296 3.55 7.775-18.63 2.431-90.164 4.266-106.77.494l.347-1.761c.479-2.32.714-3.463.987-5.841-1.45-1.583-1.637-2.13-3.442-3.056-1.018-.721-2.006-1.407-3-2.162-.623-9.475-.241-12.181 1.313-21.275a47 47 0 0 1 1.626-1.32c10.464-8.102 17.545-11.277 30.429-9.659l-.22-2.056c2.2-8.215 6.56-10.248 14.67-12.722l1.83-.597z"/><path fill="#e89d40" d="M1018.57 734.924c-1.51-5.441.36-26.753 11.02-18.032 4.72 3.861 4.04 10.833 7.11 17.11l.89 2.295c6.52 1.954 11.57 7.021 14.06 13.307-8.81 2.099-40.02 2.923-49.1 1.847 2.2-8.215 6.56-10.248 14.67-12.722l1.83-.597z"/><path fill="#e89d40" d="M1018.57 734.924c-1.51-5.441.36-26.753 11.02-18.032 4.72 3.861 4.04 10.833 7.11 17.11-9.42-.563-7.55-1.575-18.13.922"/><path fill="#fbf7e4" d="m1036.7 734.002.89 2.295c-7.5-.422-11.4-.883-18.54 1.835l-.48-3.208c10.58-2.497 8.71-1.485 18.13-.922"/><path fill="#e89d40" d="M1024.39 796.39c4.23-4.15 6.15-6.641 9.7-11.234a90 90 0 0 0 3.23 3.856c3.07 3.44 5.5 5.778 10.23 6.064 4.48-1.284 3.86-3.048 6.71-5.527 6.07-5.295 6.91 4.48 14.98 4.961 3.66-1.862 3.77-2.515 6.06-6.157q1.2.993 2.43 1.959c3.21 3.362 3.08 2.296 3.55 7.775-18.63 2.431-90.164 4.266-106.77.494l.347-1.761c.479-2.32.714-3.463.987-5.841 6.268 8.041 12.826-.963 17.225-5.8 7.121 14.834 10.801 12.535 20.911 2.206 4.16 4.381 5.48 5.499 10.41 9.005"/><path fill="#fbf7e4" d="M972.402 787.923c.131-3.856-2.129-7.318 1.058-9.989l1.602.877c5.023 19.811 10.075 12.543 19.182.341 6.786 16.309 10.236 18.453 19.686 1.959 2.75 4.399 4.53 8.286 9.27 10.199 6.67-1.403 6.28-6.06 10.8-11.518 3.98 2.111 5.3 11.405 10.57 12.578 8.3 1.848 9.44-5.503 10.38-11.107l.23-1.442c5.91 2.656 5.33 13.613 15.56 11.436 2.84-3.586 2.44-6.63 3.06-11.629l2.41.26 2.65-1.017c1 6.301 2.02 6.11-1.13 11.441a122 122 0 0 1-2.43-1.959c-2.29 3.642-2.4 4.295-6.06 6.157-8.07-.481-8.91-10.256-14.98-4.961-2.85 2.479-2.23 4.243-6.71 5.527-4.73-.286-7.16-2.624-10.23-6.064a90 90 0 0 1-3.23-3.856c-3.55 4.593-5.47 7.084-9.7 11.234-4.93-3.506-6.25-4.624-10.41-9.005-10.11 10.329-13.79 12.628-20.911-2.206-4.399 4.837-10.957 13.841-17.225 5.8-1.45-1.583-1.637-2.13-3.442-3.056"/><path fill="#edad68" d="m1076.21 779.888 2.65-1.017c1 6.301 2.02 6.11-1.13 11.441a122 122 0 0 1-2.43-1.959c1.44-4.345 2.15-4.275.91-8.465"/><path fill="#fbf7e4" d="m1051.65 749.604.4 2.753c-8.52 1.726-40.33 2.631-49.28 1.15l-.22-2.056c9.08 1.076 40.29.252 49.1-1.847"/><path fill="#e89d40" d="M1059.21 802.451c1.75-.248 8.13-1.647 8.48-.017 3.64 16.979 5.48 33.945 11.22 50.511 14.29 41.253 38.58 73.638 73.61 99.02 7.08 5.413 14.81 10.041 22.37 14.774-2.84 1.148-28.1.34-33.35.264-49-42.716-76.72-99.997-82.33-164.552m-79.8-.216c4.274.428 7.617.79 11.933.804-7.168 76.524-31.294 113.248-88.323 160.791a127 127 0 0 1-2.791 2.265c-5.782 1.215-21.089.79-27.406.6l5.469-3.099c7.739-4.977 16.095-10.081 23.288-15.741 8.427-5.258 14.759-12.176 21.835-18.891 39.666-37.64 50.763-73.715 55.995-126.729"/><path fill="#e89d40" d="M968.292 800.792c4.837.627 4.27-.227 7.174 2.473 1.712 5.337-.708 11.049-1.18 16.544-4.514 52.616-26.926 81.38-63.779 116.65l-.729-1.754c21.273-23.59 41.785-60.7 50.236-91.052 3.589-12.89 6.116-29.491 8.278-42.861m173.648 139.7c-28.29-22.088-48.01-53.651-59.87-87.304-2.67-7.578-12.36-44.139-9.26-50.501 3.83-2.302 3.66-1.514 8.83-1.696 1.84 11.592 2.95 22.566 5.47 34.09a206.64 206.64 0 0 0 55.82 102.966z"/><path fill="#edad68" d="M1142.93 938.047c2.94 2.802 5.8 5.695 8.56 8.675-2.26 1.447-7.69-4.53-9.55-6.23zm-240.575 5.577c2.539-3.32 4.487-5.896 7.423-8.919l.729 1.754c-2.967 3.866-4.079 4.808-8.152 7.165"/><path fill="#e89d40" d="m1008.15 803.795 15.28-.264c-.34 55.656-3.01 107.983-5.81 163.489l-52.794.087-13.794-.095c32.39-43.232 55.058-108.936 57.118-163.217m17.93-.549 12.86-.219c3.27 56.935 9.97 104.847 39.23 156.001 1.55 2.71 1.96 3.203 3.27 6.146l-.84 1.591-3.35.196-57.54.034c2.29-13.811 2.85-41.453 3.48-55.851 1.88-35.936 2.84-71.913 2.89-107.898"/><path fill="#e89d40" d="M1041.89 802.937c4.63-.006 9.67-.246 14.34-.372 8.43 71.881 28.77 114.009 81.7 164.651l-52.45-.239c-31.55-59.777-41.15-95.556-43.59-164.04m-47.723.063 11.733.674c-9.782 69.066-17.394 102.957-57.679 163.268l-31.748-.07-11.611-.425a117 117 0 0 0 4.944-3.991c54.75-45.965 78.034-87.516 84.361-159.456"/><path fill="#5d666c" d="M1098.35 1667.85c12.65-1.63 56.72-.56 70.91-.49l127.92-.36c-6.88 2.2-10.12 2.19-17.31 2.65-38.54 3.44-65.58 15.53-104.87 16.08-50.91.72-101.85.13-152.75.38-8.28.04-41.598-1.48-46.512-.59-.648 2.15-.567 1.59-.608 2.28-.585 7.43-1.596 21.79-.481 28.63l-1.218.11a222.7 222.7 0 0 1-44.479-1.09c-47.709-6.25-127.182-28.58-125.357 50.49.368 15.94 12.885 32 .509 50.06-7.748 11.3-58.765 39.4-34.731 58.56 12.921 10.3 41.895-15.03 46.534-27.58 9.686-18.19 15.228-35.44 19.436-54.17 1.649-1.01 1.481-.16 2.638 1.17.405 16.51.941 28.06-2.496 44.36-6.829 32.38-38.471 42.9-44.02 75.24-4.838 28.2 30.823 32.14 33.648 35.99l-1.196 1.42c-8.708 1.33-30.43.65-40.069.63l-88.127-.75c18.333-13.12 41.19-22.6 53.686-42.33 12.165-19.22-4.018-32.57.72-53.68 3.204-19.71 27.435-22.87 35.495-39.42 19.181-39.37-32.019-75.17-16.988-113.96 4.495-11.6 16.961-15.35 28.032-17.9 39.175 13.12 77.825 21.95 118.943 11.47 20.363-5.19 35.882-15.92 52.608-27.96 42.493-.38 87.153.8 130.133.76"/><path fill="#98989a" d="M1098.35 1667.85c12.65-1.63 56.72-.56 70.91-.49l127.92-.36c-6.88 2.2-10.12 2.19-17.31 2.65-7-4.56-158.92.73-181.52-1.8"/><path fill="#5d666c" d="M739.957 1518.35c28.604-1.96 35.623 7.64 57.452 20.7 24.49 14.65 49.248 33.33 74.666 45.73a233.3 233.3 0 0 0 113.442 23.97c-6.944 18-8.254 25.65-10.129 44.64-37.792-1.28-94.881-25.38-127.698-45.78-22.006-13.68-76.055-64.67-92.69-14.38-4.82 14.57-.195 29.28 7.257 42.12 14.75 20.12 34.123 29.1 56.732 37.74 37.086 14.17 86.605 6.74 121.792-10.37 7.767.3 17.466 1.68 25.228 2.66-51.091 37.93-100.996 36.44-159.78 15.76-9.486-3.34-35.913-20.48-44.526-26.91-34.513-25.77-74.039-80.61-43.574-123.29 5.471-7.73 12.67-11.34 21.828-12.59m352.863 171.59c42.71-.32 85.61-.14 128.29-1.16 28.63-1.39 58.43-7.7 86.99-6.97 17.2.44 38.02 12.36 35.34 31.6-5.56 39.89-40.13 75.92-4.78 114.11 10.71 11.57 28.09 21.45 27.37 40.15-1.05 21.23-19.19 27.56 1 49.83 17.37 19.17 39.7 18.34 59.2 33.9l.46.36c-46.93.26-92.28-.26-139.08-.62l1.33-3.22c5.56-1.92 15.06-7.37 19.19-11.73 26.84-28.29-17.24-61.2-26.51-86.41-6.88-18.7-6.11-35.01-5.71-53.77l2.85-2.46c4.09 27.41 6.77 57.39 29.38 76.68 11.28 10.07 34.98 12.01 32.98-9.01-2.11-22.06-32.98-40.78-37.26-57.26-5.64-21.73 16.55-49.18 5.58-75.34-16.47-39.25-60.28-30.01-93.56-23.99-14.53 2.96-27.81 8.72-42.68 10.19-25.44 2.22-52.74 1.16-78.4 1.45-.81-8.58-1.88-17.77-1.98-26.33"/><path fill="#5d666c" d="M1009.08 1447.9c10.84 1.28 26.16-.29 36.07 2.25 1.29 1.36 2.51 2.96 2.48 5-.35 21.63 12.62 45.34 12.89 65.49.28 20.7-6.4 40.09-3.59 61.04 1.13 8.34 3.56 14.52 6.96 22.03 9.1 19.3 14.19 38.67 19.28 59.28l-34.42.18-71.198.01c-.227-37.53 14.504-54.37 20.352-88.96 2.666-15.79-4.438-34.63-5.202-50.26-.865-17.69 7.033-32.36 11.408-49.06 2.41-9.19 2.91-17.93 4.97-27m127.56-812.752 144.54.868-.21 21.159a1843 1843 0 0 1-203.73 34.455c-11.39 1.683-25.31 1.651-36.87 2.07-32.75 1.185-63.262.738-95.308-6.81-4.185-.986-8.27-1.589-10.572-5.321 3.653-6.826 56.965-10.889 67.35-12.422a6435 6435 0 0 0 134.64-20.94zm-184.946-167.7c1.928-.19 6.024-.786 7 1.026 2.942 5.46 1.342 17.217 1.238 23.41l184.708 12.094.23 18.911c-32.49-.238-64.98-.026-97.46.634l-.26-11.125c-5.46-.58-10.92-1.101-16.39-1.562-68.719-7.74-140.852-10.011-209.142-21.905-.554-6.052-.462-12.687-.533-18.806 40.783.83 89.423-1.339 130.609-2.677M975.13 1687.8l2.225.97c37.595 1.13 75.195 1.52 112.805 1.19-.04 8.19.13 17.42-.25 25.52-9.86 13.65-12.39 10.4-24.28 19.32-.88.67-1.57 8.23-8.71 15.61-11.26 3.23-52.17 10.46-58.038-7.24-.549-1.65-1.112-6.47-1.385-8.36-10.879-6.82-15.575-1.97-21.147-16.07-.817-1.33-.691-1.26-1.701-2.31-1.115-6.84-.104-21.2.481-28.63"/><path fill="#e5e4e5" d="m975.13 1687.8 2.225.97c-.384 9.92-.46 20.08-1.005 29.97-.817-1.33-.691-1.26-1.701-2.31-1.115-6.84-.104-21.2.481-28.63"/><path fill="#d51a28" d="m544.484 1914.98 19.8-6.29c14.074 8.83 21.754 24.93 40.587 20.48 9.176-2.17 17.373-6.08 25.594-10.64-.151-.78-.273-1.78-.567-2.47l.395-1.88q2.008.3 4.021.57c1.742 1.21.252-1.2 6.704-1.99 3.539 2.5 5.528 1.76 3.13 5.28-11.437 5.44-7.075 13.78-4.037 23.44-2.151 2.96-5.935 8.53-8.141 11.12l-.634 1.36-.461 1.03c-3.588 7.81-7.704 14.84-14.12 20.62l-.847.77c-3.061 7.26-5.408-4.19-6.564-7.4-5.461-15.15 1.431-27.77 11.297-37.76l.322-3.97c-10.885 3.91-18.913 5.26-30.409 6.83 1.466 30.13-11.545 30.7-30.394 47.01-.689.19-1.378.38-2.065.58-8.992.87-8.689.43-16.839-2.1-2.348-.09-2.738-.74-2.453-3.05l.131-1.49c-13.355-9.24-11.387-9.91-6.669-26.92-3.747 4.87-4.34 4.47-5.484-.78-1.183-5.42 1.138-12.23-2.316-16.29-4.224-4.96-1.429-6.17 4.039-7.2l1.079-.77c-3.256-3.41 1.517-8.04 3.677-11.81.724-.78 1.074-1.16 1.87-1.86 3.937 1.08 6.04 3.1 9.354 5.58"/><path fill="#f4dfe6" d="M533.26 1911.26c.724-.78 1.074-1.16 1.87-1.86 4.931 14.31 14.985 26.67 18.741 43.62 2.823 12.74 6.25 12.89 6.289 28.07-.689.19-1.378.38-2.065.58-8.992.87-8.689.43-16.839-2.1-2.348-.09-2.738-.74-2.453-3.05l.131-1.49c-13.355-9.24-11.387-9.91-6.669-26.92-3.747 4.87-4.34 4.47-5.484-.78-1.183-5.42 1.138-12.23-2.316-16.29-4.224-4.96-1.429-6.17 4.039-7.2l1.079-.77c-3.256-3.41 1.517-8.04 3.677-11.81"/><path fill="#d51a28" d="M532.239 1946.89c5.67-12.75 13.308 12.51 11.945 18.11-1.08 4.44 1.411 8.22-5.25 10.03-13.355-9.24-11.387-9.91-6.669-26.92z"/><path fill="#d51a28" d="M529.583 1923.07c4.905 1.45 6.24 3.26 10.963 4.45.899.96 3.265 2.82 2.427 4.33-1.182.68-2.431-.33-3.456-.89-6.625 2.62-7.313 9.29-7.278 15.93l.026 1.22c-3.747 4.87-4.34 4.47-5.484-.78-1.183-5.42 1.138-12.23-2.316-16.29-4.224-4.96-1.429-6.17 4.039-7.2z"/><path fill="#eaa3ae" d="M529.583 1923.07c4.905 1.45 6.24 3.26 10.963 4.45.899.96 3.265 2.82 2.427 4.33-1.182.68-2.431-.33-3.456-.89-2.39-2.01-8.288-5.54-11.013-7.12z"/><path fill="#d51a28" d="M541.256 1979.57c.781-.37 2.795-1.35 3.675-1.54 6.506-1.46 6.988-8.59 9.752-11.65 2.872-.54 3.326 13.2 3.412 15.29-8.992.87-8.689.43-16.839-2.1m-7.996-68.31c2.633 5.4 4.461 10.71 7.286 16.26-4.723-1.19-6.058-3-10.963-4.45-3.256-3.41 1.517-8.04 3.677-11.81m13.776 54.42c-.335-9.93-.301-16.02-8.146-22.55-3.499-2.2-4.137-4.9-1.497-8.23 1.343-1.7 6.723-1.08 7.915 1.27 6.203 12.22 7.502 19.66 5.085 32.73-1.978-1.45-1.884-1.36-3.357-3.22"/><path fill="#cc202f" d="M547.036 1965.68c1.473 1.86 1.379 1.77 3.357 3.22-.67 1.67-2.167 5.11-4.53 4.99-1.319-.07.959-6.88 1.173-8.21"/><path fill="#d51a28" d="m631.252 1926.02-.256 1.49c-.24 1.69-5.61 10.77-6.823 13.98l-.581 1.49 2.946-.05-.397 2.12c1.571 3.48 2.165 4.85 5.073 7.06l.756.49-.634 1.36-.461 1.03c-3.588 7.81-7.704 14.84-14.12 20.62l-.847.77c-3.061 7.26-5.408-4.19-6.564-7.4-5.461-15.15 1.431-27.77 11.297-37.76l3.405-1.65 1.058 2.48c1.645-3.78 2.332-4.44 6.148-6.03"/><path fill="#d51a28" d="m623.592 1942.98 2.946-.05-.397 2.12c1.571 3.48 2.165 4.85 5.073 7.06l.756.49-.634 1.36-.461 1.03c-3.588 7.81-7.704 14.84-14.12 20.62-.737-6.85 3.1-23.62 5.774-29.97.354-.89.708-1.77 1.063-2.66"/><path fill="#d51a28" d="m623.592 1942.98 2.946-.05-.397 2.12-3.612.59c.354-.89.708-1.77 1.063-2.66"/><path fill="#f4dfe6" d="m631.252 1926.02-.256 1.49c-.24 1.69-5.61 10.77-6.823 13.98l-.581 1.49c-.355.89-.709 1.77-1.063 2.66-2.674 6.35-6.511 23.12-5.774 29.97l-.847.77c-4.914-12.02 5.145-33.31 9.196-44.33 1.645-3.78 2.332-4.44 6.148-6.03"/><path fill="#f4dfe6" d="M620.963 1927.25c2.813-2.25 6.595-5.07 10.224-5.26l.065 4.03c-3.816 1.59-4.503 2.25-6.148 6.03l-1.058-2.48-3.405 1.65z"/><path fill="#cc202f" d="m631.187 1921.99.065 4.03c-3.816 1.59-4.503 2.25-6.148 6.03l-1.058-2.48c2.394-2.54 5.126-4.86 7.141-7.58"/><path fill="#eaa3ae" d="M626.538 1942.93c2.117-.65 4.299 6.76 4.592 8.66l.084.52c-2.908-2.21-3.502-3.58-5.073-7.06z"/><path fill="#5d666c" d="M777.991 1578.93c1.816.41 3.476.89 4.014 2.99 2.283 8.87 5.583 16.65 11.492 23.79 23.882 28.83 55.954 46.67 93.319 50.52 14.183 1.46 28.076 1.32 42.092 2.99-7.983 4.59-16.285 7.21-24.971 10.14-24.514 6.45-40.962 9.83-65.457 2.89-32.169-9.12-89.096-44.65-75.592-84.39 5.501-5.29 7.857-6.51 15.103-8.93M1042.84 137.832c-.66-.08-1.81.008-2.31-.662-.92-1.252-.79-3.843-.49-5.249.14-.671.43-1.298 1.05-1.651.77-.44 50.21-.398 51.05.139.78.504.77 2.353.76 3.09-.01 1.687-.12 3.109-.58 4.722l-1.24 2.877c14.55.153 17.22-3.67 15.64 8.835l1.7 2.045c6.23.127 11.72-1.769 9.59 5.613l-.76 2.895c12.98.842 13.52-2.878 13.89 7.514l-.12 1.95c4.28.388 6.87-.069 10.07 2.101.49 3.828.26 4.015-.52 7.678-8.15 6.894-113.05 6.18-128.5 15.797-5.35 3.329-45.65 5.561-50.155-1.896.271-3.891-.584-2.608 1.544-4.732 13.558-4.046 62.581-4.174 79.581-7.001 4.94-.822 14.36-.085 19.24-1.856 1.46-3.469 1.11-6.293 1.11-10.085-1.39-1.181-5.42-.895-7.49-1.142.15-3.419-.2-4.384.91-7.542l.39-1.699c-5.79-1.199-6.75-2.056-4.53-8.357l1.1-2.023q-1.23-.104-2.46-.161c-5.85-.247-4.95-3.917-4.96-9.251-.58-1.937-1.4-1.574-3.51-1.949"/><path fill="#5d666c" d="M1042.84 137.832c-.66-.08-1.81.008-2.31-.662-.92-1.252-.79-3.843-.49-5.249.14-.671.43-1.298 1.05-1.651.77-.44 50.21-.398 51.05.139.78.504.77 2.353.76 3.09-.01 1.687-.12 3.109-.58 4.722l-1.24 2.877c14.55.153 17.22-3.67 15.64 8.835l1.7 2.045c6.23.127 11.72-1.769 9.59 5.613l-.76 2.895c-17.22-1.184-41.85 1.104-60.44.786l.39-1.699c-5.79-1.199-6.75-2.056-4.53-8.357l1.1-2.023q-1.23-.104-2.46-.161c-5.85-.247-4.95-3.917-4.96-9.251-.58-1.937-1.4-1.574-3.51-1.949"/><path fill="#5d666c" d="M1042.84 137.832c-.66-.08-1.81.008-2.31-.662-.92-1.252-.79-3.843-.49-5.249.14-.671.43-1.298 1.05-1.651.77-.44 50.21-.398 51.05.139.78.504.77 2.353.76 3.09-.01 1.687-.12 3.109-.58 4.722l-1.24 2.877c-10.1-.117-36.36.303-44.73-1.317-.58-1.937-1.4-1.574-3.51-1.949"/><path fill="#e5e4e5" d="M1042.84 137.832c4.62-1.078 41.88.143 49.48.389l-1.24 2.877c-10.1-.117-36.36.303-44.73-1.317-.58-1.937-1.4-1.574-3.51-1.949"/><path fill="#5d666c" d="M1046.35 139.781c8.37 1.62 34.63 1.2 44.73 1.317 14.55.153 17.22-3.67 15.64 8.835-8.71-.547-45.51-1.886-52.95-.74q-1.23-.104-2.46-.161c-5.85-.247-4.95-3.917-4.96-9.251"/><path fill="#cac9cb" d="m1118.01 157.591-.76 2.895c-17.22-1.184-41.85 1.104-60.44.786l.39-1.699c11.38-2.72 46.22-.598 60.81-1.982m-64.24-8.398c7.44-1.146 44.24.193 52.95.74l1.7 2.045c-19.06.044-36.91-.51-55.75-.762z"/><path fill="#5d666c" d="M1117.25 160.486c12.98.842 13.52-2.878 13.89 7.514l-.12 1.95c-9.16.236-20.8-.162-30.21-.054-8.13.093-30.39 1.187-37.42.06-1.39-1.181-5.42-.895-7.49-1.142.15-3.419-.2-4.384.91-7.542 18.59.318 43.22-1.97 60.44-.786"/><path fill="#cac9cb" d="M1055.9 168.814c20.39-2.093 54.46-1.017 75.24-.814l-.12 1.95c-9.16.236-20.8-.162-30.21-.054-8.13.093-30.39 1.187-37.42.06-1.39-1.181-5.42-.895-7.49-1.142"/><path fill="#5d666c" d="M1017.08 1782.74c9.45 1.75 16.23 1.58 25.72.67 1.02 35.1 4.5 71.51 4.56 106.81.01 9.64 1.14 27.27.03 36.18-3.15 1.21-4.21.26-8.18-.55-9.77-1.8-18.18.69-27.59 3.03.94-48.84 4.66-97.35 5.46-146.14M910.205 234.734c-.052-1.748-.851-7.667.74-9.219.504-.491 73.182.58 80.606.296.623-.023 1.527-.068 1.956.476.937 1.185.263 4.797-.041 6.123-.323 1.404-.757 2.162-1.936 2.974l-1.727.369c-1.862.308-3.163.408-4.782 1.388l.162 18.578a2475 2475 0 0 0 74.437 8.817c6.39.637 51.81 3.954 53.84 7.032.3 3.256.78 5.611-.05 8.774-6.27 1.392-55.56.677-65.3.203-3.23-.157-.24-2.431-3.34-6.901-10.72-2.961-41.7-6.348-54.46-8.207a3932 3932 0 0 1-94.369-15.558l-.084-12.653 13.239-.164z"/><path fill="#5d666c" d="M910.205 234.734c-.052-1.748-.851-7.667.74-9.219.504-.491 73.182.58 80.606.296.623-.023 1.527-.068 1.956.476.937 1.185.263 4.797-.041 6.123-.323 1.404-.757 2.162-1.936 2.974l-1.727.369c-1.862.308-3.163.408-4.782 1.388-7.658 1.722-63.557-.069-75.925-.079z"/><path fill="#cac9cb" d="M910.205 234.734c24.495-1.801 55.709 1.093 81.325.65l-1.727.369c-1.862.308-3.163.408-4.782 1.388-7.658 1.722-63.557-.069-75.925-.079z"/><path fill="#5d666c" d="M964.792 1342.36c8.52-35.32 39.518-59.73 77.208-50.94 32.55 7.58 54.22 45.2 45.38 78.57a58.38 58.38 0 0 1-28.36 36.04 84 84 0 0 1-10.98 5.18l-.06-18.12c39.18-11.88 37.9-64.83 3.79-83.13a51.06 51.06 0 0 0-39.68-3.34c-40.099 13.07-46.989 69.81-7.68 86.63.73.3 1.46.6 2.19.89l-.53 16.97c-24.994-9.65-35.813-25.73-41.722-51.16l-2.537.8c-1.178-5.01-1.094-11.99-.242-17.03z"/><path fill="#fdfcfc" d="m961.569 1343.72 3.223-1.36c-.572 6.82-1.176 10.61-.444 17.59l-2.537.8c-1.178-5.01-1.094-11.99-.242-17.03"/><path fill="#5d666c" d="M1088.89 342.89c35.5-.786 77.55-.486 113.06.423l.02 13.752c-50.73 6.507-106.94 11.14-158.16 16.618-6.91.663-14.06.718-20.86 1.807-5.02.802-1.4 2.615-4.34 6.863-7.22 1.084-72.289 2.152-78.361 1.269-1.761-3.317-1.329-6.617.342-9.878 4.876-1.572 30.274-3.024 36.453-3.614a8715 8715 0 0 1 112.016-10.298c-.09-5.647-.14-11.294-.17-16.942m16.4 821.3c11.91 4.17 31.67 17.63 41.63 25.24-13.32 1.38-19.32 10.17-24.13 22.51-3.4 8.73-.33 13.01 3.8 20.63l-2.24 1.87-2.53-.25c-2.36-2.02-3.93-3.87-6.92-4.42-7.02 4.59-2.87 9.73-6.9 15.32-10.62 14.75-24.39 26.44-30.93 43.95-1.36 3.64-3.45 11.09-5.7 13.83l-1.89-1.25c-5.97-4.7-9.5-7.1-15.97-11.1 5.45-14.06 14.22-23.48 19.33-37.25 2.1-5.67.93-15.4 2.98-21.59 1.62-4.89 8.61-9.68 8.81-13.99-3.56-6.65-14.83-6.59-17.03-15.56.51-4.68 3.87-11.02 8.87-11.36 3.91 5.34 2.31 11.89 7.34 16.55 2.76 1.14 4.13 1.06 6.84.02 19.53-7.51 20.53-26.8 14.64-43.15m-219.011 248.94c13.901 4.7 12.153-6.98 19.554-9.7 24.318-8.92 38.37-13.09 57.833-31.78 3.038 8.67 4.513 13.39 10.345 20.79-7.42 6.11-16.253 8.49-24.234 14.02-7.684 5.32-15.213 17.87-22.212 22.08-7.321 4.41-27.238 8.55-21.229 23.59 6.571 2.67 8.9-3.98 11.803-.59.457 5.67.743 7.45-2.874 11.7-5.31 2.34-12.331-6.34-17.634-8.94-14.165-6.92-28.648 1.32-35.842 13.9-10.471-14.62-14.975-23.82-18.874-41.54 5.243 4.9 8.729 8.78 16.494 8.46 12.152-.5 21.612-10.5 25.757-21.24zm-30.107-182.54c11.171 13.87 15.314 16.42 31.645 20.98 6.356-2.44 18.276-9.06 22.073-1.61l-.748 1.73c-.814.11-1.626.23-2.437.35-4.771.78-4.79 1.32-7.579 5.29-.994 9.52 14.093 11.37 21.105 12.52 4.402 3.5 10.269 11.22 14.873 15.7 11.482 11.18 25.045 17.44 39.263 24.38-3.218 4.18-9.238 15.74-11.83 17.39l-2.594-1.55c-20.894-17.61-37.348-21.52-62.857-28.88-17.145-23.65-18.301-5.53-25.074-3.48-5.13-9.62 10.164-22.88-21.386-32.77-3.985 2.5-8.284 5.66-12.181 8.39 4.14-12.66 10.42-27.32 17.727-38.44m345.898 484.86c34.86-5.82 84.63-23.93 93.64 31.2 4.16 25.47-6.51 52.58 8.26 76.83 6.95 14.7 37.1 28.87 30.26 46.88-.54 1.4-4.4 4.25-5.73 3.9-22.73-5.96-35.04-33.49-38.39-52.44-9.38-52.97-8.25-101.33-75.61-103.69-1.53-.12-3.34-.17-4.97-.2-3.61-.78-4.47-.52-7.46-2.48m-110.28-343.91c12.44 12.28 37.39 23.04 54.5 27.29 7.32 8.68 12.19 14.77 21.62 3.18l1.21-.08c1.84 5.54 1.88 9.98 2.34 15.78 5.36 6.36 12.8 14.17 21.79 13.59 6.43-.41 9.03-4.8 12.9-9.32-2.61 16.2-6.45 28.02-16.56 40.91-5.16-6.73-8.89-11.63-15.92-16.5-20.05-3.16-19.6-.95-26.73 15.69-1.25 2.92-7.48-.01-9.74-2.5-.93-3.88-1.07-2.03.51-5.74 4.6-1.77 5.49-1.89 9.19-4.95 5.29-12.21-16.38-15.76-20.86-21.11-13.6-16.24-24.32-26.89-41.7-39 2.79-5.51 5.09-11.5 7.45-17.24m-261.954-45.6c18.047 34.63 45.379-9.08 58.515-3.06-2.687 5.36-4.981 7.65-2.768 13.45 8.887 7.1 17.781-.75 24.466.5 16.895 3.18 34.778 4.51 51.52 6.89-.852 5.04-.936 12.02.242 17.03-15.137-2.75-32.954 3.65-47.93 5.29-8.624.94-23.288-8.25-28.574 5.38.496 3.95.535 2.92 3.311 6.57-7.223 2.4-39.373-36.14-59.84-11.66-.223-12.95-.056-27.55 1.058-40.39m355.044-101.06c5.47 5.41 23.36 30.93 22.48 38.06-15.01-2.58-24.09 4.57-32.63 16.23.18 6.33 1.69 11.59-3.19 16.31-1.21-3.99-2.43-8.33-7.07-9.46-2.29-.54-4.7-.27-6.81.77-4.91 2.44-10.04 9.68-13.98 11.57-4.55 2.18-12.49 4.88-17.56 6.84-11.48 4.45-17.76 8.51-27.51 15.76l-9.75 7.56c-3.03-8.44-4.86-11.39-10.17-18.14 21.75-7.86 30.63-22.41 47.17-36.71 5.43-4.7 13.41-2.36 17.69-10.92.62-5.73-2.13-5.42-2.32-10.04 11.72-8.39 27.48 16.03 44.95-16.26-.82-4.16-1.74-7.33-1.3-11.57m-198.987 180.87c6.498 3.49 14.697 7.04 21.497 10.18-13.78 13.2-20.256 24.66-24.759 43.17-3.059 12.57-5.152 16.64-15.246 24.23 3.023 2.27 8.397 5.93 9.744 9.12-1.298-.03-6.982-.37-7.891-.24-13.505 1.91-22.743 21.5-19.325 33.81 1.133 4.09 3.099 6.15 3.449 10.96l-1.219 1.02-3.41-.62c-15.129-5.82-27.976-14.7-39.309-26.18 37.142-5.48 24.931-30.36 36.367-39.22 2.173-4.28 1.457-8.73 1.31-13.71 6.393-10.51 18-19.06 25.735-28.77 5.951-7.47 8.359-15.34 13.057-23.75m-60.417 473.37c29.543-1.16 32.748 10.55 61.549 3.73-.013 11.9-.106 22.37-.82 34.26q-.969.375-1.926.78c-6.802 2.88-13.378 4.7-19.936 7.34-18.435 4.8-49.306 14.42-58.017-9.83-6.146-17.11 2.462-31.37 19.15-36.28m243.774-558.89c7.25 2.8 13.92 12.23 21.33 14.73 14.05 4.73 18.79 4.66 31.53-.73l1.08.89c2.17 12.16.97 23.9-1.64 35.86-2.56-4.26-5.05-7.77-7.89-11.8-43.9-5.08-32.33 21.55-42.21 23.93l-.73-1.11c2.58-7.16 3.13-8.6 2.17-16.2-5.88-6.46-20.27-.11-28.84-1.71-17.88-3.33-32.83-3.97-50.82-3.34l-.33-18.61c19.04-.15 34.25-3.62 52.79-7.39 9.54-1.95 17.94 5.31 24.2-3.82-.1-4.7-1.89-3.41-3.69-8.83zm-168.66-167.35c-.732-.36-1.458-.61-1.935-1.23.523-1.05 5.595-.73 6.765-.76 14.18.13 41.16-.17 53.84 2.68-11.67 7.41-25.83 18.61-13.45 32.93l-.15 2.08c-4.49 1.96-4.05.91-5.84 4.32-.15 9.35 3.13 10.7 6.75 18.65-12.25 42.07-9.86 30.24-8.38 73.62-6.81-.14-13.55-.37-20.35-.08.21-12.3 1-27.31.15-39.24-1.54-21.72-11.81-27.95 1.28-48.68-2.69-4.35-4.4-7.23-7.74-11.2 7.35-11.06 8.68-21.77-4.07-29.61a41.4 41.4 0 0 0-6.87-3.48"/><path fill="#6b7074" d="M1000.59 1152.88c-.732-.36-1.458-.61-1.935-1.23.523-1.05 5.595-.73 6.765-.76-1.62.71-3.19 1.33-4.83 1.99"/><path fill="#5d666c" d="M1048.38 1416.62c8.08-4.42 14.94-8.04 22.51-13.38 10.74 25.4 17.21 31.33 36.36 50.14.39 8.04-.77 12.31 5.89 17.65 1.37-1.84 2.69-3.51 4.12-5.31l1.98.45c-5.5 5.54-4.28 4.39-4.51 13.01 4.69 16.22 8.39 22.82 23.96 30.63-6.67 5.01-32.5 21.99-39.65 23.08 4.63-10.02 8.98-12.15 4.06-25.6-3.9-10.7-7.48-13.72-17.37-18.19.09-.88.1-.55.05-1.06-1.43-7.25-4.22-8.54-9.72-13.74-4.64-18.99-12.49-44.35-27.68-57.68"/><path fill="#98989a" d="m1117.26 1465.72 1.98.45c-5.5 5.54-4.28 4.39-4.51 13.01-.65-2.99-.76-5.35-1.59-8.15 1.37-1.84 2.69-3.51 4.12-5.31"/><path fill="#5d666c" d="M911.903 1187.7c13.03-8.7 30.256-18.98 45.05-24.23-6.368 6.93-10.529 10.86-10.106 20.97.527 12.58 8.317 21.86 18.896 27.41l1.615.87c5.345-.88 5.449-.39 10.147-3.04l1.376 1.31c-1.648 1.27-2.571 1.83-4.396 2.75-3.961 2.08-5.732 2.05-6.122 6.54 1.697 4.53 9.158 10.91 12.925 14.89 1.611 14.96 5.187 40.55 19.272 49.5 2.05 1.32 4.13 2.59 6.24 3.83-10.485 4.04-15.487 7.47-24.865 13.67-3.244-9.04-6.797-19.79-11.678-28.09-6.121-10.25-17.008-18.9-20.83-30.29-1.842-5.48-.948-9.64-6.798-12.62-3.824.58-3.282 1.09-6.797 4.08-7.657-5.8 19.298-36.2-23.929-47.55"/><path fill="#98989a" d="m977.505 1209.68 1.376 1.31c-1.648 1.27-2.571 1.83-4.396 2.75-2.372-.37-4.748-.7-7.127-1.02 5.345-.88 5.449-.39 10.147-3.04"/><path fill="#5d666c" d="M858.941 1715.21c16.592-1.82 40.592 1.45 56.836 5.63-122.774 3.88-60.798 69.5-109.009 129.48-6.612 8.07-23.843 19.57-34.623 17.47-3.039-2.48-1.982-.94-3.052-4.93 3.248-15.71 36.874-32.76 44.104-48.26 18.392-39.42-16.467-84.92 45.744-99.39m163.729-391.08c5.83-.31 11.22-.61 16.78 1.93 15.6 7.13 24.16 28.74 15.89 44.17-5.01 9.34-12.57 12.16-22.3 14.68-16.95 1.12-30.19-.67-35.499-19.27-5.712-20.04 5.979-36.41 25.129-41.51m-16.62-260.16c-1.84-4.61-1.55-10.5.44-15a18.44 18.44 0 0 1 10.52-9.91c9.47-3.45 28.48-3.15 33.41 9.32 1.08 2.72.95 13.63 1.17 17.35l-.47 1.98c9.49 5.91 6.61 6.42 6 15.79-.39 5.9-.47 9.56-1.7 15.53-5.1-1.43-48.48-1.11-55.17-.58-1.804-2.78-3.231-15.34-3.781-19.09 5.221-6.31 6.951-8.14 13.461-13.17-1.85-1.42-1.81-1.5-3.88-2.22"/><path fill="#5d666c" d="M1006.05 1063.97c-1.84-4.61-1.55-10.5.44-15a18.44 18.44 0 0 1 10.52-9.91c9.47-3.45 28.48-3.15 33.41 9.32 1.08 2.72.95 13.63 1.17 17.35l-.47 1.98c-19.92-5.64-21.41-5.2-41.19-1.52-1.85-1.42-1.81-1.5-3.88-2.22"/><path fill="#e5e4e5" d="M1006.05 1063.97c.58-.08 1.16-.16 1.73-.25 16.12-4.59 27.71-5.07 43.81 2.01l-.47 1.98c-19.92-5.64-21.41-5.2-41.19-1.52-1.85-1.42-1.81-1.5-3.88-2.22"/><path fill="#5d666c" d="M986.226 79.769c.031-.251.496-7.055 1.298-7.16 8.293-1.09 17.316-1.372 25.776-2.073 2.03 1.109 1.93 1.218 3.19 3.206-.3 4.257 1.11 3.838-1.95 6.675l.83 1.995c1.01 5.375-2.3 6.09-6.56 6.721-.15.836.05.917.46 1.749l-.27 6.406c-1.86.405-3.15.238-3.99 1.879 1.5 4.838.53 5.753-4.28 5.77l-.1 1.875.61 4.667c6.93 6.137 72.93 6.782 77.42 12.546l-.82 2.39c-3.93 2.795-30.84 1.876-35.29.61-13.54-3.857-103.08-10.295-108.637-17.256l.387-1.404c4.12-3.042 6.42-2.984 11.377-3.201l.249-1.457c1.523-7.845-.458-8.225 7.461-7.431l2.375-1.262c.071-1.83.13-3.599.264-5.429 3.534-.595 11.107.347 12.014-1.861 1.461-3.067 1.378-4.49 4.481-6.028 3.313-.632 12.599-.322 13.705-1.927"/><path fill="#5d666c" d="M986.226 79.769c.031-.251.496-7.055 1.298-7.16 8.293-1.09 17.316-1.372 25.776-2.073 2.03 1.109 1.93 1.218 3.19 3.206-.3 4.257 1.11 3.838-1.95 6.675l.83 1.995c1.01 5.375-2.3 6.09-6.56 6.721-4.36-1.882-32.867-.843-40.77-1.409 1.461-3.067 1.378-4.49 4.481-6.028 3.313-.632 12.599-.322 13.705-1.927"/><path fill="#6b7074" d="M986.226 79.769c.031-.251.496-7.055 1.298-7.16 8.293-1.09 17.316-1.372 25.776-2.073 2.03 1.109 1.93 1.218 3.19 3.206-.3 4.257 1.11 3.838-1.95 6.675-7.66-1.388-20.592-2.133-28.314-.648"/><path fill="#e5e4e5" d="M986.226 79.769c7.722-1.486 20.654-.74 28.314.648l.83 1.995c-13.77-1.43-28.955-.03-42.849-.716 3.313-.632 12.599-.322 13.705-1.927"/><path fill="#5d666c" d="M968.04 87.724c7.903.566 36.41-.473 40.77 1.41-.15.835.05.916.46 1.748l-.27 6.406c-1.86.405-3.15.238-3.99 1.879-9.299.008-43.131-1.353-51.623-2.891l2.375-1.262c.071-1.83.13-3.599.264-5.429 3.534-.595 11.107.347 12.014-1.861"/><path fill="#cac9cb" d="M955.762 95.014c10.067-.32 43.156 1.483 53.238 2.274-1.86.405-3.15.238-3.99 1.879-9.299.008-43.131-1.353-51.623-2.891zm12.278-7.29c7.903.566 36.41-.473 40.77 1.41-.15.835.05.916.46 1.748-16.346-.81-38.121.043-53.244-1.297 3.534-.595 11.107.347 12.014-1.861"/><path fill="#5d666c" d="M945.926 103.707c1.523-7.845-.458-8.225 7.461-7.431 8.492 1.538 42.324 2.899 51.623 2.89 1.5 4.839.53 5.754-4.28 5.771-7.803-1.931-43.862-.594-54.804-1.23"/><path fill="#cac9cb" d="M945.926 103.707c10.942.636 47.001-.701 54.804 1.23l-.1 1.875c-12.167-1.05-47.01-.042-54.953-1.648z"/><path fill="#5d666c" d="M1201.99 548.593c1.78 2.354 1.1 17.846 1.09 21.942-42.65.746-88.9-.603-132.13-.681l-1.73-.888c-.99-4.877-.57-14.019-.51-19.402 40.42-2.879 91.12 1.127 133.28-.971m-118.37 25.551c46.87.722 95.58-1.302 141.29-.138-.02 6.179.29 12.91.46 19.133l-142 .921zM738.865 1446.19c16.218-.49 25.918 2.95 30.623 20.09 4.997 18.21-.437 31.52-19.589 35.59-13.865-.09-23.815-1.44-29.828-15.88-7.069-16.97 2.705-33.63 18.794-39.8m504.125-850.752 2.96-.022c2.61 3.165 1.51 13.239 1.34 17.74l-136.54.836c-2.01.021-1.24.099-3.19-.792-1.39-4.982-.68-10.944-.44-16.256l77.43-.081c18.93-.04 39.7.208 58.44-1.425m-184.61-298.271c25.95.296 52 1.195 77.98 1.268 14.48.042 12.88-2.32 12.4 10.965 1.14 1.99 3.27 1.564 5.59 2.03 4.52-.2 8.94-.248 13.46-.315l.06 11.927c-32.54-.042-64.89-.272-97.42-1.399-5.2-.18-3.45-5.127-3.16-9.811.25-.909.51-1.819.76-2.728-11.58-.279-9.65.842-9.67-11.937"/><path fill="#5d666c" d="M1058.38 297.167c25.95.296 52 1.195 77.98 1.268 14.48.042 12.88-2.32 12.4 10.965-3.58-.681-26.24-.465-31.23-.338-16.19.414-33.45-.376-49.48.042-11.58-.279-9.65.842-9.67-11.937"/><path fill="#e5e4e5" d="M1148.76 309.4c1.14 1.99 3.27 1.564 5.59 2.03-27.81 1.341-59.06.485-87.06.402.25-.909.51-1.819.76-2.728 16.03-.418 33.29.372 49.48-.042 4.99-.127 27.65-.343 31.23.338"/><path fill="#5d666c" d="M1122.32 616.95c48.66.223 96-.539 144.87.241-.03 4.918.39 10.743.63 15.725l-145.8-1.203zm-25.57-89.464c25.59-.496 53.27-.927 78.79-.516l-.72 17.128c-14.92.901-30.59.778-45.6.886l-81.08.172-.44-17.124q24.525-.072 49.05-.546m-155.515-79.939c12.191-.602 25.909-.449 38.242-.535.119 5.471-.163 11.572-.296 17.092-30.483-.495-64.504.612-95.431.652l-36.24-.016-.058-15.652c30.172.246 63.349-1.057 93.783-1.541m-29.69-20.081q39.543-.56 79.09-.714l.006 16.157q-19.752.831-39.521.948a7547 7547 0 0 0-80.187.118l.186-15.544zM1022.1 1309.21c21.65-1.23 35.45 4.91 46.23 24.6 7.68 14.01 3.33 21.54 1.35 34.16-1.96 12.54-27.87 25.93-19.17 14.09 11.2-8.47 14.27-20.12 11.18-34.05-3.76-17.03-13.95-24.84-30.38-29.03-11.95.3-23.34 3.69-31.1 13.15-11.234 13.69-10.805 40.01 4.25 50.94 1.31.95 4.96 3.4 3.74 5.41-4.68 1.64-15.164-7.78-17.381-11.43-19.018-31.35-2.202-60.54 31.281-67.84"/><path fill="#5d666c" d="M1037.69 1387.42c8.11-2.04 6.67 3.39 6.71 10.39.09 15.96-1.23 32.04-3.57 47.81-7.97-.62-15.09-.66-23.08-.76-3.07.01-4 .24-4.45-3.36-1.94-15.44-6.88-36.14-1.22-51.06.69-1.81 22.73-2.67 25.61-3.02"/><path fill="url(#a)" d="m1053.12 30.397.74 3.983c4.5-.193 10.24-1.243 13.03 2.587.94 4.44 4.59 2.568 9.58 3.266-.37 2.46-.62 4.631-.86 7.107l-.52 1.52 1.95.31c2.87.434 5.25.809 8.12 1.361l-1.48 4.453c5.52.297 4.9-.738 8.51 3.063 1.82 1.848 2.7 1.53 5.28 2.087-.01.102-.1 6.358-.92 6.456-20.6 2.462-41.38 3.785-62.05 5.705-6.43.606-11.55 1.847-18.01 1.447-1.26-1.988-1.16-2.097-3.19-3.206 6.63-1.857 24.5-1.016 32.21-4.2.66-.271.58-2.103.49-2.88l-.13-1.524c-1-1.96-1.06-1.91-1.4-3.969l-.95-3.644c-1.41-1.882-2.44-1.851-4.67-2.545-1.22-1.12-1.12-1.1-1.69-2.724-.2-.973-.24-2.11-.83-2.946-2.05-.987-5.49.306-6.69-2.147.26-1.919 3.3-.849 4.39-.619 1.29-.47 2.55-.921 3.83-1.428-.92-.96-1.86-1.906-2.81-2.835-2.63-1.256-2.74-1.116-4.56-3.384.54-1.248 1.03-2.302 1.44-3.583 7.2-.479 15.53 1.234 21.19-1.71"/><path fill="#cac9cb" d="m1053.12 30.397.74 3.983c4.5-.193 10.24-1.243 13.03 2.587.94 4.44 4.59 2.568 9.58 3.266-.37 2.46-.62 4.631-.86 7.107l-.52 1.52c-5.74-.366-33.99-1.572-37.93.19-.2-.973-.24-2.11-.83-2.946-2.05-.987-5.49.306-6.69-2.147.26-1.919 3.3-.849 4.39-.619 1.29-.47 2.55-.921 3.83-1.428-.92-.96-1.86-1.906-2.81-2.835-2.63-1.256-2.74-1.116-4.56-3.384.54-1.248 1.03-2.302 1.44-3.583 7.2-.479 15.53 1.234 21.19-1.71"/><path fill="#3b3f45" d="m1053.12 30.397.74 3.983c4.5-.193 10.24-1.243 13.03 2.587.94 4.44 4.59 2.568 9.58 3.266-9.03.772-19.88.095-28.66 1.376-3.76.319-6.16.363-9.95.301-.92-.96-1.86-1.906-2.81-2.835-2.63-1.256-2.74-1.116-4.56-3.384.54-1.248 1.03-2.302 1.44-3.583 7.2-.479 15.53 1.234 21.19-1.71"/><path fill="#e5e4e5" d="M1066.89 36.967c.94 4.44 4.59 2.568 9.58 3.266-9.03.772-19.88.095-28.66 1.376-3.76.319-6.16.363-9.95.301-.92-.96-1.86-1.906-2.81-2.835 7.21-.639 27.34-1.167 31.84-2.108m-13.77-6.57.74 3.983c-8.31 1.464-15.03-.218-23.37 1.311.54-1.248 1.03-2.302 1.44-3.583 7.2-.479 15.53 1.234 21.19-1.71"/><path fill="#5d666c" d="M1047.81 41.609c8.78-1.282 19.63-.604 28.66-1.376-.37 2.46-.62 4.631-.86 7.107-7.04-2.272-16.75-1.106-25.2-2.03z"/><path fill="#3b3f45" d="M1037.86 41.91c3.79.062 6.19.018 9.95-.301l2.6 3.7c-3.66-.237-15.46.902-16.38-1.97 1.29-.471 2.55-.922 3.83-1.429m-.7 7.14c3.94-1.762 32.19-.556 37.93-.19l1.95.31c2.87.434 5.25.809 8.12 1.361l-1.48 4.453-4.72.036c-8.31.053-28.16.88-35.44-.701-1.41-1.882-2.44-1.851-4.67-2.545-1.22-1.12-1.12-1.1-1.69-2.724"/><path fill="#cac9cb" d="M1038.85 51.774c12.26.379 30.26-1.47 41.43.513l-1.32 2.733c-8.31.053-28.16.88-35.44-.701-1.41-1.882-2.44-1.851-4.67-2.545"/><path fill="#e5e4e5" d="m1085.16 50.531-1.48 4.453-4.72.036 1.32-2.733c2.51-.676 2.66-.642 4.88-1.756"/><path fill="#3b3f45" d="m1078.96 55.02 4.72-.036c5.52.297 4.9-.738 8.51 3.063-15.36-.663-32.18-.253-47.72-.084l-.95-3.644c7.28 1.581 27.13.755 35.44.7"/><path fill="#e5e4e5" d="M1044.47 57.963c15.54-.169 32.36-.58 47.72.084 1.82 1.848 2.7 1.53 5.28 2.087-7.63-.102-48.58-1.655-51.6 1.798-1-1.96-1.06-1.91-1.4-3.969"/><path fill="#5d666c" d="M892.835 407.195c38.1.557 76.569-.017 114.795.268l.07 13.644c-37.569-.193-77.255 1.069-115.063 1.574zm53.002-197.111c-.473-1.483-1.67-9.746.737-9.765 21.709-.172 43.662-.358 65.316-.065 1.6.022 1.33 8.529-.1 9.581-1.83 1.348-5.74 1.112-8.03 1.344l-.84 1.85c0 3.09 1.38 9.354-2.39 9.303-3.075-.042-6.345 1.175-9.659 1.187-20.279.078-41.421.624-61.406-1.178-.887-.079-.896-8.817.011-8.961 5.277-.838 11.939-.395 17.403-.284z"/><path fill="#5d666c" d="M946.879 213.096c13.612.423 43.328 1.871 56.041-.067 0 3.09 1.38 9.354-2.39 9.303-3.075-.042-6.345 1.175-9.659 1.187-20.279.078-41.421.624-61.406-1.178-.887-.079-.896-8.817.011-8.961 5.277-.838 11.939-.395 17.403-.284"/><path fill="#e5e4e5" d="M945.837 210.084c19.357.583 38.816.468 57.923 1.095l-.84 1.85c-12.713 1.938-42.429.49-56.041.067z"/><path fill="#d51a28" d="m598.5 1878.78.357.16c4.296 1.94 7.558 4.31 11.384 6.14l2.597.74c15.674 2.4 13.882 2.48 19.885 18.42.471 4.72-.01 6.06 1.591 10.51a272 272 0 0 1-4.021-.57l-.395 1.88-1.484.74c-6.763.45-20.662.85-26.843-1.08-8.548-2.67-19.938-16.67-24.162-24.29-1.259-1.57-1.289-1.45-2.008-3.17-.652-.97-2.503-2.81-2.095-4.06 1.846-1.46 6.968 1.88 10.674-.16 3.466-1.91 10.684-4.08 14.52-5.26"/><path fill="#d51a28" d="M575.401 1888.26c14.078 3.66 30.3 9.93 44.072 14.64 4.312 2.71 6.459 4.12 9.996 7.73.328 1.2.561 2.34.824 3.55l-.395 1.88-1.484.74c-6.763.45-20.662.85-26.843-1.08-8.548-2.67-19.938-16.67-24.162-24.29-1.259-1.57-1.289-1.45-2.008-3.17"/><path fill="#f4dfe6" d="M575.401 1888.26c14.078 3.66 30.3 9.93 44.072 14.64 4.312 2.71 6.459 4.12 9.996 7.73.328 1.2.561 2.34.824 3.55l-.395 1.88-1.484.74c-1.717-3.94-1.202-5.09-4.398-8.63-3.695-4.09-17.232-3.45-17.835-4.21-.611-4.64 3.972-4.97-9.7-6.82-6.631-.89-14.555-5.42-19.072-5.71-1.259-1.57-1.289-1.45-2.008-3.17"/><path fill="#eaa3ae" d="m610.241 1885.08 2.597.74c2.797 5.23 5.04 9.18 6.689 14.91-3.923-4.01-6.528-10.41-9.286-15.65"/><path fill="#cc202f" d="M632.723 1904.24c.471 4.72-.01 6.06 1.591 10.51a272 272 0 0 1-4.021-.57c-.263-1.21-.496-2.35-.824-3.55 3.061-2.45 2.654-2.26 3.254-6.39"/><path fill="#5d666c" d="m992.745 388.476 27.325-.565c.04 5.04.04 10.08-.02 15.12q-34.773.24-69.55.027a2144 2144 0 0 0-30.004.037c.37-4.497.47-8.314.584-12.802 24.631-1.032 47.08-1.379 71.665-1.817m86.305-62.76c34.76-.409 71.94 1.011 107.1 1.067l-.09 12.668q-53.535-.869-107.07-.987zM1025.49 1929.2c10.48-.63 22.24 1.91 31.37 7.35 2.16.42 14.59 12.38 11.6 14.68-1.46 1.12-33.06.04-35.01 0-4.94-.05-45.015-.05-46.528-.75-.819-1.35.263-2.85 1.109-3.94 8.193-10.63 24.889-15.02 37.459-17.34m-286.549-526.7a20.52 20.52 0 0 1 20.275 4.55 20.5 20.5 0 0 1 5.912 19.91 20.52 20.52 0 0 1-14.512 14.87c-10.763 2.94-21.903-3.26-25.078-13.95-3.175-10.7 2.779-21.97 13.403-25.38m265.479 352.1c11.3 2.69 30.65 4.89 41.8 1.89 13.7-3.69 10.62 11.25 5.67 19.08-11.17 7.34-21.28 5.96-34.63 4.63-11.59-8.06-12.45-11.82-12.84-25.6m48.4-1470.573c7.61-.13 75.96-.642 77.01.555 1.76 1.999 1.14 7.349 1.03 9.737-8.68-.091-78.26-.128-79.41-1.898-1.04-1.604.96-6.822 1.37-8.394m13.89 1595.033c22.51-2.11 26.81 17.86 10.54 29.41-19.07 3.76-27.14-19.13-10.54-29.41"/><path fill="url(#b)" d="M1031.93 32.108c-21.61-2.528-43.375-4.515-64.922-7.742-5.728-.858 3.863-5.82 3.308-4.9 1.814-2.678-.834-5.022 4.143-4.863 11.348.363 24.744-1.316 35.851.212.06.89.11 1.778.17 2.668-.55 2.276-2.78 6.523-2.67 7.618 2.11 2.329 36.95 1.929 45.31 5.296-5.66 2.945-13.99 1.232-21.19 1.711"/><path fill="#5d666c" d="M1010.31 14.815c.06.89.11 1.778.17 2.668l-1.6 1.063c-2.29-.367-3.56-.606-5.88-.692-5.071-2.785-10.72-.67-16.695-1.483l-.434-.342-.872-.037-.117-.264c.224-.207 22.838-.629 25.428-.913"/><path fill="#cac9cb" d="M1003 17.854c2.32.086 3.59.325 5.88.692-4.28 4.06-21.848 1.128-22.01.906l.113-.197c2.808-1.533 11.177-.32 16.017-1.4"/><path fill="#d51a28" d="M666.123 1907.92c2.245 3.36 6.144 7.34 2.886 10.24l.158 1.16c4.402 6.43-.264 17.56-4.069 23.33-.671 1.12-3.958 8.45-3.748 8.31-.87-.2-1.291-1.09-1.691-1.82-8.454-15.59-11.845-16.5-8.621-33.87 3.55-1.99 4.632-2.59 8.544-3.33 2.276-2.59 1.105-2.38 4.326-3.56z"/><path fill="#d51a28" d="M669.167 1919.32c4.402 6.43-.264 17.56-4.069 23.33l-2.49-.57c-1.153-7.68-1.937-11.5-1.804-19.46 2.817-1.03 5.512-2.24 8.363-3.3"/><path fill="#d51a28" d="M666.123 1907.92c2.245 3.36 6.144 7.34 2.886 10.24l.158 1.16c-2.851 1.06-5.546 2.27-8.363 3.3l-.603-2.11c1.14-4.45 1.991-7.87 3.707-12.13z"/><path fill="#eaa3ae" d="M660.201 1920.51c3.716-1.47 4.742-1.68 8.808-2.35l.158 1.16c-2.851 1.06-5.546 2.27-8.363 3.3z"/><path fill="#f4dfe6" d="M659.582 1911.94c2.276-2.59 1.105-2.38 4.326-3.56-1.716 4.26-2.567 7.68-3.707 12.13l.603 2.11c-.133 7.96.651 11.78 1.804 19.46-6.858-10.33-4.457-18.9-3.026-30.14"/><path fill="#cc202f" d="M641.018 1912.76c20.367-8.98 37.063-23.91 53.733-38.57 2.521-2.22 9.751-10.68 13.269-6.95 1.627 1.73.897 3.14-.834 4.35-12.423 10.36-24.68 20.77-37.74 30.36-2.635 1.93-3.387 2.82-3.323 5.97l-2.215.46c-3.221 1.18-2.05.97-4.326 3.56-3.912.74-4.994 1.34-8.544 3.33-2.535 1.15-4.376 1.78-6.89 2.77 2.398-3.52.409-2.78-3.13-5.28"/><path fill="#5d666c" d="M727.622 1503.56c5.426.7 9.049.62 14.388.84 19.425.79 22.441-7.24 20.536 12.37-1.444.18-3.082.4-4.539.16-10.767-1.74-20.394-1.13-31.163-.86.144-4.75.259-7.77.778-12.51m271.123 391.8c3.245-.35 6.845-.27 10.145-.3-.57 8.87 1.94 12.49-6.64 12.83-4.003.06-7.99.05-11.917.48-.628.07-.915-2.42-.904-2.84.288-11.09-.899-8.9 9.316-10.17"/><path fill="#6b7074" d="M1085.78 1488.04c.05.51.04.18-.05 1.06-2.91 1.7-6.91 4.28-5.36 8.28 3.68 9.53-10.44 6.86-10.38-1.38.07-8.5 9.75-8.16 15.79-7.96m-200.614-74.16c-2.31-2.4-7.818-7.44-8.024-9.89-.873-10.39 16.532-5.92 10.239 1.4-3.486 4.05-3.484 1.22-1.102 7.74zm232.094 51.84c-15.2-18.18 25.39-13.13 1.98.45zm-137.242-258.57c-3.09-4.26-6.491-9.29-.736-12.05 7.559-3.64 7.821 8.09 1.916 14.19z"/><path fill="#5d666c" d="M1050.17 1888.27c8.52 1.49 6.35 5.72 6.56 15.65-9.95-.77-7.14-4.17-6.56-15.65"/><path fill="#e89d40" d="M969.402 785.761c.994.755 1.982 1.441 3 2.162 1.805.926 1.992 1.473 3.442 3.056-.273 2.378-.508 3.521-.987 5.841l-.347 1.761a189 189 0 0 0-5.673-1.23c-1.045-3.551.283-7.556.565-11.59"/><path fill="#6b7074" d="M1275.91 1796.01c.03-2.1-.15-14.87.66-16.09.23-.12.08-.09.44 0 1.24 1.49 1.8 11.71 1.75 13.63zm-66.38-78.08c-3.04.03-22.03.89-23 .57 4.94-.72 10.24-2.3 15.54-3.05 2.99 1.96 3.85 1.7 7.46 2.48"/><path fill="#98989a" d="M835.343 1792.81c.039-2.12.51-9.75 1.596-11.33.151-.02.302-.03.453-.05.956.84.586 10.57.589 12.55-1.157-1.33-.989-2.18-2.638-1.17"/><path fill="#6b7074" d="M1287.61 1951.14c-11.15.88-1.93-2.16 1.33-3.22z"/><path fill="#5d666c" d="m980.018 1207.15 1.18 2.14c-.773.56-1.545 1.13-2.317 1.7l-1.376-1.31z"/><metadata><recraft-signature>{&quot;signed_by&quot;: &quot;recraft&quot;, &quot;signature_b64&quot;: &quot;AVkY2scf1Qht/M5byTkOZlbOSCfdG/ZUdQPK6fflXc/vIxXl7Ch8Z/CB4W8UvyCex93dgbcnzEve5t6wEZnoBA==&quot;, &quot;signing_algo&quot;: &quot;Ed25519&quot;, &quot;generation_timestamp&quot;: 1777251633, &quot;identifier&quot;: &quot;9c49d0a3-131f-412f-bd53-072a4c5ef040&quot;}</recraft-signature></metadata></svg>