<svg xmlns="http://www.w3.org/2000/svg" width="1024" height="1024" preserveAspectRatio="none" style="display:block" viewBox="0 0 2048 2048"><defs><linearGradient id="b" x1="1015.2" x2="1010.43" y1="912.774" y2="926.272" gradientUnits="userSpaceOnUse"><stop class="stop0" offset="0" stop-color="#c0834e"/><stop class="stop1" offset="1" stop-color="#e6a45e"/></linearGradient><linearGradient id="a" x1="1381.04" x2="1388.23" y1="927.82" y2="878.792" gradientUnits="userSpaceOnUse"><stop class="stop0" offset="0" stop-color="#cc904f"/><stop class="stop1" offset="1" stop-color="#f3a662"/></linearGradient></defs><path fill="#6f8092" d="M1718.52 954.221c2.67-4.095 3.21-4.321 7.12-7.298q36.105.187 72.21-.022c2.55 2.457 4.76 5.112 6.62 8.13l1.3 6.169.95 2.998c7.21 2.439 39.25 1.011 48.7 1.085 1.71 9.293 6.02 30.379 3.87 39.157-.66 24.5 3.93 59.76-24.88 68.73-3.79 16.49-3.56 21.07-11.77 37.63-41.04.84-83.94.22-125.1.19l-229.69-.07-148.4-.03c-20.4.01-53.53 1.24-72.77-.02-10.34.72-13.01 5.17-19.64 7.4-14 14.76-28.46 32.95-27.96 54.25.04 1.47.09 2.94.14 4.41-5.45 3.09-14.41 8.31-20.21 10.61-6.63 5.31-16.59 3.69-25.11 3.61-27.84-.25-66.27-1.35-88.73 17.81-3.89 4.8-3 4.97-3.69 11.99-10.44 25.69-32.27 39.06-57.09 49.58a238 238 0 0 1-54.756 15.88c-34.82 5.75-70.977 5.04-105.934.88-39.786-4.74-87.106-13.24-109.641-50.4l-2.032 2.13c.033 3.58.604 14.94-.699 17.37-51.649-35.18-143.926-18.77-190.035 18.64-19.659 15.95-37.716 34.38-41.369 60.59-.569 22.69 6.5 24.61 8.47 41.37a61.1 61.1 0 0 1 1.293 23.05c-10.561 83.76-199.809 70.91-259.066 64.72-51.834-5.42-125.854-30.72-117.429-95.72.786-42.21 51.428-70.6 82.109-90.79 38.057-74.8 96.42-125.78 171.005-163.02 23.669-11.82 45.201-17.95 69.641-32.2 26.603-15.5 20.62-51.31 39.998-60.85 10.257-5.06 34.394 5.19 45.479 8.16 30.184 8.11 68.147 16.41 97.519 1.69l1.151-.58c-12.98-16.5-2.243-15.76-11.043-29.79-15.268-6.782-26.869-6.637-43.25-7.451a465 465 0 0 0-3.182-17.168c-.358-2.918-1.802-10.17 3.351-9.931 20.458.953 40.796 4.38 59.199 13.822 2.951 1.514 9.701 3.817 11.11 6.723 12.113.642 30.956-7.438 41.35-13.565 16.221.532 32.244 3.437 48.348 5.282 11.586-5.929 25.31-18.272 33.909-27.966 16.519.712 34.323.544 50.95.629l5.482-3.467q24.765.447 49.516 1.447c35.757-.554 71.856.88 107.662.098 6.634-.144 14.284.018 20.864.45 6.46-.486 54.25-1.438 58.62-.571 1.03 2.242 1.04 2.188 1.39 4.618 4.65 2.315 14.92 1.19 20.68 1.528l3.62-.145c30.67-.739 62.1.056 92.84-.13 6.66-.04 37.91-.297 42.44.939 1.45 2.977 1.23 4.613 1.33 7.897l.92 1.395 3.41-.525c3.95-1.012 32.51-.696 38.47-.683l86.73.216 346.52-.129c2.4-3.731 4.77-7.099 7.19-10.752"/><path fill="#6f8092" d="M1718.52 954.221c2.67-4.095 3.21-4.321 7.12-7.298q36.105.187 72.21-.022c2.55 2.457 4.76 5.112 6.62 8.13l1.3 6.169.95 2.998c7.21 2.439 39.25 1.011 48.7 1.085 1.71 9.293 6.02 30.379 3.87 39.157-.66 24.5 3.93 59.76-24.88 68.73l-1.07-3.68c-1.23 3.52-1.32 5.49-4.15 7.37.54-6.43.61-13.23.78-19.71l-589.23 3.77c-.1-28.65 1.24-67.717-1.13-95.351 3.95-1.012 32.51-.696 38.47-.683l86.73.216 346.52-.129c2.4-3.731 4.77-7.099 7.19-10.752"/><path fill="#070706" d="m1247.66 999.087 388.54 1.933 147.34.78c22.61.08 45.41-.16 68.03-.25 4.37-.02 4.81.63 7.72 2.89-.66 24.5 3.93 59.76-24.88 68.73l-1.07-3.68c3.94-15.81-4.02-32.81-15.34-43.67-86.34-1.18-175.11.13-261.57.19l-308.66-.49zm470.86-44.866c2.67-4.095 3.21-4.321 7.12-7.298q36.105.187 72.21-.022c2.55 2.457 4.76 5.112 6.62 8.13l1.3 6.169c-.08.405-.53 3.72-1.34 3.74-21.1.51-42.31.087-63.43.163-9.85.035-19.86.123-29.67-.13 2.4-3.731 4.77-7.099 7.19-10.752"/><path fill="#6f8092" d="M1718.52 954.221c2.67-4.095 3.21-4.321 7.12-7.298q36.105.187 72.21-.022c2.55 2.457 4.76 5.112 6.62 8.13-5.24-.581-9.19-.649-14.47-.599-23.83.227-47.65-.389-71.48-.211"/><path fill="#070706" d="M1247.32 1033.21c51.61-.3 103.22-.1 154.82.61l.16 17.46-154.91-.24z"/><path fill="#070706" d="M808.159 974.784c2.624-5.772 13.442-18.441 19.733-19.776-.196 7.49-1.382 14.332-1.518 21.767a5173 5173 0 0 0-.841 100.125l249.367-.84c.39-39.48.05-79.673-.02-119.187 7.48.071 12.79.222 20.17-.735l3.62-.145c30.67-.739 62.1.056 92.84-.13 6.66-.04 37.91-.297 42.44.939 1.45 2.977 1.23 4.613 1.33 7.897l.92 1.395 3.41-.525c2.37 27.634 1.03 66.701 1.13 95.351l589.23-3.77c-.17 6.48-.24 13.28-.78 19.71 2.83-1.88 2.92-3.85 4.15-7.37l1.07 3.68c-3.79 16.49-3.56 21.07-11.77 37.63-41.04.84-83.94.22-125.1.19l-229.69-.07-148.4-.03c-20.4.01-53.53 1.24-72.77-.02-10.34.72-13.01 5.17-19.64 7.4-12.9 4-19.19 16.36-25.79 27.24.35-23.98-3.12-41.88-6.57-65.33-26.41-2.24-70.34-6.31-95.88-10.79l-.08 11.36-154.198.05c-39.367.04-82.06.78-121.212-.97-6.259-5.39-8.865-11.35-14.425-17l-.384-1.23c-2.396-7.48-1.799-75.115-.686-85.279z"/><path fill="#6f8092" d="M1098.67 955.993c30.67-.739 62.1.056 92.84-.13 6.66-.04 37.91-.297 42.44.939 1.45 2.977 1.23 4.613 1.33 7.897l.92 1.395c-2.41 7.753-1.86 90.646-1.84 101.896-44.48.03-91.45-1.05-135.66.13z"/><path fill="#070706" d="m1106.96 1011.22 122.12.03-.07 15.67-122.14-.17zm-3.26-41.142c11.03.001 120.72-.86 123.71.821l1.06 4.065c-12.4.028-119.73 1.149-123.63-.897z"/><path fill="#7689a3" d="M1829.19 1076.86c2.83-1.88 2.92-3.85 4.15-7.37l1.07 3.68c-3.79 16.49-3.56 21.07-11.77 37.63-41.04.84-83.94.22-125.1.19l-229.69-.07-148.4-.03c-20.4.01-53.53 1.24-72.77-.02 9.6-1.59 43.51-.96 55.23-.96l112.24.03 405.85.1c4.13-11.25 8.18-21.14 9.19-33.18"/><path fill="#070706" d="M133.192 1369.04c31.683-96.15 219.379-75.96 294.901-51.78 36.162 11.58 61.371 26.79 80.301 59.73a61.1 61.1 0 0 1 1.293 23.05c-10.561 83.76-199.809 70.91-259.066 64.72-51.834-5.42-125.854-30.72-117.429-95.72M571.107 1168c6.945-4.72 13.575-10.33 20.602-14.95 35.829-23.57 107.191-23.71 139.333 6.04.316 32.09-.492 65.57.286 97.3-51.649-35.18-143.926-18.77-190.035 18.64-19.659 15.95-37.716 34.38-41.369 60.59l-1.414 6.27c-1.418-1.61-7.882-16.23-9.273-19.61-9.702-23.52-22.855-40.43-38.252-60.51 52.286 25.36 39.331.28 37.436-38.82 2.162-1.84 4.287-3.72 6.375-5.65 18.244-16.94 19.441-35.38 20.401-58.67 6.907-.84 16.23-2.93 23.234-4.29 11.639 4.25 21.48 8.51 32.676 13.66m489.853.18c-.58 11.6-.64 41.16.52 52.77-10.44 25.69-32.27 39.06-57.09 49.58a238 238 0 0 1-54.756 15.88c-34.82 5.75-70.977 5.04-105.934.88-39.786-4.74-87.106-13.24-109.641-50.4l.182-1.23c.831-18.28.994-33.87-.372-52.21 5.965 6.8 8.376 13.77 16.271 20.45 23.688 20.06 58.219 24.97 88.052 28.72 61.305 5.61 151.348 2.91 202.088-35.41 10.39-7.85 15.81-17.51 20.68-29.03m3.92-21.51c21.71-35.28 79.29-36.24 116.01-34.96-.42 14.51.98 66.25-1.88 75.83-6.63 5.31-16.59 3.69-25.11 3.61-27.84-.25-66.27-1.35-88.73 17.81-.34-4.05-.06-9.76.11-13.93.66-16.24.23-32.11-.4-48.36M885.834 950.015c35.757-.554 71.856.88 107.662.098 6.634-.144 14.284.018 20.864.45 11.14 2.03 43.62-.966 50.29 3.852.71 3.433.46 10.462.47 14.274l-119.121-.372c-9.83-.003-76.178 4.702-72.219-12.222 2.617-2.11 6.589-1.588 10.174-1.613-3.386-.679-2.46.121-4.619-1.741 2.231-.809 4.37-1.669 6.499-2.726"/><path fill="#7689a3" d="M885.834 950.015c35.757-.554 71.856.88 107.662.098 6.634-.144 14.284.018 20.864.45 11.14 2.03 43.62-.966 50.29 3.852-27.13-.682-55.84.156-83.123.236l-97.573-.169c-3.386-.679-2.46.121-4.619-1.741 2.231-.809 4.37-1.669 6.499-2.726"/><path fill="#070706" d="M582.619 977.041c-.358-2.918-1.802-10.17 3.351-9.931 20.458.953 40.796 4.38 59.199 13.822 2.951 1.514 9.701 3.817 11.11 6.723-2.504 5.301-1.437 4.906 3.703 6.853-.308 1.638-.38 2.228-.849 3.722 13.491 5.11 21.382 5.14 35.965 6.41-11.469 6.15-29.226 14.96-41.453 19.26-4.513 2.59-9.026 4.92-13.551 7.55-12.98-16.5-2.243-15.76-11.043-29.79-15.268-6.782-26.869-6.637-43.25-7.451a465 465 0 0 0-3.182-17.168"/><path fill="#6f8092" d="M582.619 977.041c-.358-2.918-1.802-10.17 3.351-9.931 20.458.953 40.796 4.38 59.199 13.822 2.951 1.514 9.701 3.817 11.11 6.723-2.504 5.301-1.437 4.906 3.703 6.853-.308 1.638-.38 2.228-.849 3.722-18.806-9.298-36.766-17.895-58.133-19.203-6.177-.378-12.361-.451-18.381-1.986"/><path fill="#de9b5b" d="M629.051 1001.66c10.94 4.8 17.951 12.7 24.594 22.24-4.513 2.59-9.026 4.92-13.551 7.55-12.98-16.5-2.243-15.76-11.043-29.79m68.578-27.57c16.221.532 32.244 3.437 48.348 5.282-12.561 7.674-25.631 14.257-39.002 20.418l-1.406-.685c-10.271-5.177-34.178-6.209-45.587-4.597-5.14-1.947-6.207-1.552-3.703-6.853 12.113.642 30.956-7.438 41.35-13.565"/><path fill="#6f8092" d="M807.815 976.321c-1.113 10.164-1.71 77.799.686 85.279l.384 1.23c-1.133-.25-6.714-.8-7.375-1.82-.817-1.26-1.201-80.781-.322-83.395.613-.542 5.023-.864 6.627-1.294"/><path fill="#cdcdd7" d="M808.885 1062.83c-1.461.99-2.548 1.79-4.36 1.96-1.499.14-4.456.51-5.688-.73-.884-.88-1.262-80.328-.535-88.508.036-.407.395-.718.712-.941 2.093-1.475 6.933-.289 9.145.173l-.344 1.537c-1.604.43-6.014.752-6.627 1.294-.879 2.614-.495 82.135.322 83.395.661 1.02 6.242 1.57 7.375 1.82"/><path fill="#7689a3" d="M732.111 1235.5c.161-17.23.371-34.53.502-51.73.002-.25 1.497-.34 1.256-.32 1.366 18.34 1.203 33.93.372 52.21z"/><path fill="#cdcdd7" d="m732.111 1235.5 2.13.16-.182 1.23-2.032 2.13z"/><path fill="#070706" d="M798.247 1149.55c-17.526 1.34-33.719 5.89-46.184 19.54-5.404 5.92-5.821 9.98-9.566 15.6-9.943-8.96-1.221-32.09 8.201-39.88 39.149-32.41 99.668-38.09 148.978-39.4 45.302-.05 102.964 8.05 136.714 39.83 16.39 15.43 5.97 37.69-8.79 49.42-2.71 2.16-6.89 5.59-10.51 5.86-6.11 11.29-62.981 23.71-76.807 23.63-17.676 5.03-56.345 7.17-74.385 2.38-1.31-.35-2.581-.69-3.884-1.07l-3.803 1.97-22.713-2.36c-10.348-1.15-20.212-2.6-30.485-4.33-5.15-.87-44.794-9.34-42.08-15.37-9.949-1.69-18.643-18.06-11.447-27.98 12.65-17.45 30.592-21.84 50.327-25.79-1.734-1.28-1.642-1.33-3.566-2.05"/><path fill="#070706" d="M803.98 1151.36c20.592-1.98 18.886 6.54 24.767 20.88 16.32 39.79 71.883 47.3 109.135 40.86 4.353-.73 8.973-2.52 12.699-2.94-2.756 6.63-4.845 9.24-10.298 13.99-17.676 5.03-56.345 7.17-74.385 2.38-1.31-.35-2.581-.69-3.884-1.07l-3.803 1.97-22.713-2.36c-10.348-1.15-20.212-2.6-30.485-4.33-5.15-.87-44.794-9.34-42.08-15.37-9.949-1.69-18.643-18.06-11.447-27.98 12.65-17.45 30.592-21.84 50.327-25.79z"/><path fill="#fcfbfb" d="M762.933 1205.37c22.9-4.83 45.996-6.26 68.81-10.92 6.733 18.14 11.877 23.25 30.271 31.01l-3.803 1.97-22.713-2.36c-10.348-1.15-20.212-2.6-30.485-4.33-5.15-.87-44.794-9.34-42.08-15.37"/><path fill="#6f8092" d="M804.191 1149.18c28.393-27.74 71.909-32.56 108.927-21.82-31.179 8.84-61.331 17.15-52.17 58.19.688 3.08 2.18 4.74 4.967 5.88 10.887 14.91 51.378 19.23 68.289 16.54 3.613-.58 12.853-1.81 15.641-.38l.736 2.57c-3.726.42-8.346 2.21-12.699 2.94-37.252 6.44-92.815-1.07-109.135-40.86-5.881-14.34-4.175-22.86-24.767-20.88z"/><path fill="#fcfbfb" d="M865.915 1191.43c56.188-7.04 96.85-8.97 151.175 9.09-6.11 11.29-62.981 23.71-76.807 23.63 5.453-4.75 7.542-7.36 10.298-13.99l-.736-2.57c-2.788-1.43-12.028-.2-15.641.38-16.911 2.69-57.402-1.63-68.289-16.54"/><path fill="#45515a" d="M798.247 1149.55c2.203-.51 3.682-.38 5.944-.37l-.211 2.18-2.167.24c-1.734-1.28-1.642-1.33-3.566-2.05"/><path fill="#070706" d="M893.699 1028.47c57.191-.57 114.381-.72 171.581-.46l-.26 36.02-26.27-.05-100.927-.16c-12.523-.02-38.426 1.18-49.518-.64-25.088-4.1-28.443-33.16 5.394-34.71"/><path fill="#e13132" d="M371.409 1156.78c2.639 3.54 5.318 14.44 8.257 19.44 13.822 23.5 38.283 52.83 17.878 80.12-6.704 8.97-16.371 12.28-27.16 13.64-33.258-4.94-46.928-37.52-26.897-64.29 16.099-21.5 20.398-21.88 27.922-48.91"/><path fill="#fcfbfb" d="m353.632 1208.02 2.559.97c-3.641 8.11-6.044 16.63-4.338 25.51.153.8 1.609 11.13 1.667 10.88-1.007 4.39-7.773-6.62-8.353-7.48-.71-14.12-.282-17.43 8.465-29.88"/><path fill="#f2d6dd" d="M364.036 1194.47c-2.798 5.88-4.617 8.89-7.845 14.52l-2.559-.97c2.942-4.87 6.787-9.16 10.404-13.55"/><path fill="#070706" d="M1065.02 991.598c.13 3.677.79 8.224-.82 11.332-2.73 2.11-6.22 1.59-9.84 1.59l-68.749.34c-12.337.05-28.387.84-40.496-1.26-5.22-.9-13.599-7.049-18.311-10.215 4.168-.467 9.591-.664 13.877-.95 39.215-1.529 84.639-.665 124.339-.837m-347.064 27.532c13.435-.73 25.787 6.92 11.336 15.76-5.174.26-12.828 1.42-15.835-3.79-3.663-6.34-.125-9 4.499-11.97m31.701 88.57.404 2.45c-24.931 16.93-52.898 17.06-76.134-3.04 23.546 12.57 52.483 16.33 75.73.59"/><path fill="#cdcdd7" d="M862.014 1225.46c1.303.38 2.574.72 3.884 1.07-3.222 1.76-3.693 1.41-7.687.9z"/><path fill="#45515a" d="M749.657 1107.7c5.201-4.49 5.086-1.55.404 2.45z"/><path fill="#070706" d="M1018.77 596.81c11.3-2.264 32.24-3.125 43.57-1.411 9.62 1.393 26.6 4.141 34.27 10.243 3.31 2.718 2.81 3.822 2.29 8.278.17 12.317-5.47 21.399-3.22 34.65 1.85 10.913 8.74 17.279 8.73 27.824.1 22.615-.17 45.272-.24 67.897.19 46.817-.16 93.634-1.05 140.443-.03 3.872.46 7.955-1.48 11.145-11.65 9.565-38.64 11.134-53.51 11.974-24.56-1.286-44.09-1.697-65.994-13.284-.236-2.692-.076-8.321-.088-11.244 1.324-70.842-2.692-141.831-.413-212.528.11-3.417 3.503-10.077 5.065-13.335 3.967-18.293-.252-26.679-.667-44.316-.089-3.798 1.567-5.58 4.131-7.919 7.342-3.482 20.526-7.407 28.606-8.417"/><path fill="#6f8092" d="M986.7 657.462c22.31 8.42 42.04 12.527 66.14 12.004 16.41-1.108 22.24-2.411 35.85 7.77-17.74 6.295-21.87 6.988-40.68 7.289V833.76c0 20.305-1.15 54.7.12 74.093-24.56-1.286-44.09-1.697-65.994-13.284-.236-2.692-.076-8.321-.088-11.244 1.324-70.842-2.692-141.831-.413-212.528.11-3.417 3.503-10.077 5.065-13.335"/><path fill="#e1a262" d="M1018.77 596.81c11.3-2.264 32.24-3.125 43.57-1.411 9.62 1.393 26.6 4.141 34.27 10.243 3.31 2.718 2.81 3.822 2.29 8.278-22.81 17.027-60.03 19.289-87.19 15.663a56 56 0 0 1-6-1.156l-1.76 1.531c21.68 5.966 30.89 3.417 49.02 6.886-.12 10.279-.54 22.501-.13 32.622-24.1.523-43.83-3.584-66.14-12.004 3.967-18.293-.252-26.679-.667-44.316-.089-3.798 1.567-5.58 4.131-7.919 7.342-3.482 20.526-7.407 28.606-8.417"/><path fill="#070706" d="M1018.77 596.81c11.3-2.264 32.24-3.125 43.57-1.411 9.62 1.393 26.6 4.141 34.27 10.243-2.28 1.464-1.27.512-3.59-.471-7.53-3.191.16 3.972-6.66 7.242-12.53 13.158-53.92 10.886-70.35 7.322-3.37-.716-6.72-1.554-10.03-2.511-4.86-1.356-8.163-2.501-11.856-6.002l-1.026-.934c-.581-2.827.125-3.071-2.155-4.424l-.779-.637c7.342-3.482 20.526-7.407 28.606-8.417"/><path fill="#de9b5b" d="M1062.34 595.399c9.62 1.393 26.6 4.141 34.27 10.243-2.28 1.464-1.27.512-3.59-.471-7.53-3.191.16 3.972-6.66 7.242l-.37-1.169 1.09-1.161c1.58-7.164-25.55-10.799-30.29-11.453 1.37-1.09 2.63-2.192 4.32-2.766z"/><path fill="#d09259" d="M990.164 605.227c7.342-3.482 20.526-7.407 28.606-8.417l2.04.206c3.34.197 3.68.086 6.51 1.892-14.24 3.462-20.38 2.072-34.222 11.38-.581-2.827.125-3.071-2.155-4.424z"/><path fill="#e1a262" d="M1018.77 596.81c11.3-2.264 32.24-3.125 43.57-1.411l-1.23.465c-1.69.574-2.95 1.676-4.32 2.766-11.86-.386-19.34.447-29.47.278-2.83-1.806-3.17-1.695-6.51-1.892z"/><path fill="#8d6846" d="M1085.99 611.244c-11.53-.868-6.69 7.045-14.33 1.389-1.32-.981-.33-4.594 1.23-4.86 3.35-.571 10.78 1.261 14.19 2.31z"/><path fill="#533823" d="M1003.95 629.958c-1.05-.338-4.574-1.195-5.135-2.395-.052-.112.032-.256.122-.303 1.403-.731 5.683.843 6.773 1.167z"/><path fill="#070706" d="M1353.82 598.056c3.82-.309 10-2.303 14.19-2.86 10.32-1.37 25.38-2.092 35.5-.319 10.43.503 31.36 3.292 39.64 11.03 2.35 2.2 1.71 4.002 1.69 7.141 1.32 14.595-4.65 13.162-3.93 28.897.54 11.751 8.99 24.66 9.1 34.01.19 16.599.05 33.86.03 50.51l-.36 93.665c-.19 17.955-1.31 46.309.09 63.306-.24 4.222-.55 8.562-.71 12.777-17.53 9.065-35.9 10.662-55.21 11.214-16.18-.481-48.94-1.692-62.8-11.802-2.94-2.148-2.48-9.079-2.64-13.079.9-2.972.17-33.732.11-38.2-.24-35.462-.66-70.923-1.27-106.38-.32-21.32-1.14-45.237.53-66.452.29-3.739 3.44-12.282 4.81-16.102 6.6-23.651-1.27-25.921-.71-47.816 7.21-4.547 13.97-6.693 21.94-9.54"/><path fill="#6f8092" d="M1332.59 655.412c18.03 11.241 45.74 14.241 66.59 13.809l21.87-.698c5.44 2.985 7.02 4.27 11.54 8.639-14.25 5.256-22.91 7.251-38.09 9.092l-.65 221.173c-16.18-.481-48.94-1.692-62.8-11.802-2.94-2.148-2.48-9.079-2.64-13.079.9-2.972.17-33.732.11-38.2-.24-35.462-.66-70.923-1.27-106.38-.32-21.32-1.14-45.237.53-66.452.29-3.739 3.44-12.282 4.81-16.102"/><path fill="#de9b5b" d="M1353.82 598.056c3.82-.309 10-2.303 14.19-2.86 10.32-1.37 25.38-2.092 35.5-.319 10.43.503 31.36 3.292 39.64 11.03 2.35 2.2 1.71 4.002 1.69 7.141-2.28.917-2.07 1.258-3.67 2.841-12.44 12.369-46.24 15.079-62.09 15.31l-1.28.009c-3.9 1.708-3.41-.88-8.32 2.443 6.81.81 24.47 1.245 28.3 5.385 1.75 5.698-.83 19.217 1.4 30.185-20.85.432-48.56-2.568-66.59-13.809 6.6-23.651-1.27-25.921-.71-47.816 7.21-4.547 13.97-6.693 21.94-9.54"/><path fill="#070706" d="M1393.35 597.885c10.91.852 31.95 2.505 39.64 10.265 6.64 6.706-22.77 12.674-24.98 13.041-12.69 2.304-26.87 1.992-39.52.051-8.16-1.253-23.33-3.92-29.26-9.66-5.2-5.037 21.61-10.864 23.81-11.297 11.47-2.03 19.52-1.355 30.31-2.4"/><path fill="#d09259" d="M1417.13 607.309c4.52.315 13.14-.514 9.27 6.185l-.56 1.116c-3.58-.224-15.94-3.16-8.71-7.301"/><path fill="#e1a262" d="M1353.82 598.056c3.82-.309 10-2.303 14.19-2.86 10.32-1.37 25.38-2.092 35.5-.319-2.55.284-5.21.351-7.71.762l1.82.31-.35-.004c2.08.056 6.12-.012 8.04.402-4 .956-7.06-.121-11.96 1.538-10.79 1.045-18.84.37-30.31 2.4-3.71-.607-6.2-1.717-9.22-2.229"/><path fill="#533823" d="M1369.48 633.651c-3.51.204-21.76-3.703-23.98-6.156 5.48-.165 12.54 2.913 18.5 3.159 4.48.184 9.43.074 13.8.554-3.9 1.708-3.41-.88-8.32 2.443"/><path fill="#070706" d="M833.859 597.383c20.751-3.469 33.5-3.954 54.188-1.931 10.065 1.923 38.243 4.68 33.914 19.643 1.726 11.237-4.231 13.722-2.918 26.829 1.326 13.245 8.096 21.986 8.499 34.276.504 15.364.081 31.232-.008 46.639l.034 93.511c-.116 20.845-1.106 49.321.433 69.619l-.885 11.154c-18.57 8.198-34.003 10.053-53.881 10.779-16.979-.613-50.854-1.835-63.941-13.528-3.184-2.845-2.614-6.084-2.554-10.257 1.134-70.341-2.367-141.097-.617-211.382.102-4.077 3.408-11.325 5.1-15.253 1.37-6.709 1.921-13.582 1.767-20.472-.19-8.459-5.652-20.806-1.378-28.399 4.132-7.341 14.765-9.195 22.247-11.228"/><path fill="#6f8092" d="M877.247 669.127c-.101-5.968.108-10.699.435-16.634l.062 16.661c6.773-.385 16.263-1.203 22.846-1.1 4.269 2.975 6.76 4.582 10.56 8.224-14.133 7.592-21.372 8.338-37.51 9.793-.391 17.796-.479 35.831-.345 53.63.423 55.991-.858 112.225-.06 168.201-16.979-.613-50.854-1.835-63.941-13.528-3.184-2.845-2.614-6.084-2.554-10.257 1.134-70.341-2.367-141.097-.617-211.382.102-4.077 3.408-11.325 5.1-15.253 15.665 9.999 47.727 11.343 66.024 11.645"/><path fill="#e1a262" d="M833.859 597.383c20.751-3.469 33.5-3.954 54.188-1.931 10.065 1.923 38.243 4.68 33.914 19.643-24.269 16.462-61.918 17.594-90.009 13.889l-.754 1.647c18.021 4.296 29.811 3.186 46.505 5.654l-.021 16.208c-.327 5.935-.536 10.666-.435 16.634-18.297-.302-50.359-1.646-66.024-11.645 1.37-6.709 1.921-13.582 1.767-20.472-.19-8.459-5.652-20.806-1.378-28.399 4.132-7.341 14.765-9.195 22.247-11.228"/><path fill="#533823" d="M831.198 630.631c-1.438-.289-7.996-1.599-8.314-3.17 1.461-1.175 7.423 1.003 9.068 1.523z"/><path fill="#070706" d="M840.692 599.977c17.506-1.005 27.218-2.005 45.204-.822 3.382.73 11.622 3.144 14.694 3.512 6.857.821 14.503 7.808 5.565 11.876-21.656 9.486-47.409 9.248-70.172 4.671-4.392-.883-16.759-4.005-18.489-7.266-3.317-6.249 20.983-11.457 23.198-11.971"/><path fill="#d09259" d="M895.131 606.479c6.209.706 11.973 1.501 7.049 8.17l-1.195-.267c-5.305-1.138-9.198-2.582-5.854-7.903"/><path fill="#070706" d="M1200.77 595.326c14.49-1.54 72.37-3.37 73.32 17.459l-.04 1.477c-.4 12.281-4.89 18.03-3.31 31.779.76 6.651 7.25 19.759 7.34 23.232 1.42 55.457-.17 126.321-.28 180.453-.91 11.186-1.24 34.602-.25 45.822-14.23 7.822-37.25 11.897-53.33 11.579-22.83-.887-44.45-1.932-65.76-10.876-.54-3.66-.82-8.642-1.15-12.432q-.78-66.526-.72-133.056c-.14-25.163-1.04-51.9.46-76.921.29-4.806 3.1-12.278 4.78-16.947 3.81-17.01-.11-29.669.29-46.377.09-3.38 4-5.78 6.73-7.298a92.3 92.3 0 0 1 19.16-6.087c4.16-.794 8.52-1.799 12.76-1.807"/><path fill="#6f8092" d="M1161.83 656.895c18.12 9.748 47.1 13.254 67.29 12.151 8.52-.292 28.92-3.182 31.62 7.032-3.49 6.768-27.61 9.545-35.43 11.035-.72 73.25.12 146.789-1.09 220.014-22.83-.887-44.45-1.932-65.76-10.876-.54-3.66-.82-8.642-1.15-12.432q-.78-66.526-.72-133.056c-.14-25.163-1.04-51.9.46-76.921.29-4.806 3.1-12.278 4.78-16.947"/><path fill="#de9b5b" d="M1200.77 595.326c14.49-1.54 72.37-3.37 73.32 17.459-17.66 18.387-67.26 19.927-90.96 15.76l-1.29 1.481c20.66 5.085 29.41 3.291 47.41 6.067l-.13 32.953c-20.19 1.103-49.17-2.403-67.29-12.151 3.81-17.01-.11-29.669.29-46.377.09-3.38 4-5.78 6.73-7.298a92.3 92.3 0 0 1 19.16-6.087c4.16-.794 8.52-1.799 12.76-1.807"/><path fill="#070706" d="M1168.85 603.22a92.3 92.3 0 0 1 19.16-6.087c4.16-.794 8.52-1.799 12.76-1.807 3.96 5.36 10.35-.184 14.98 3.079 14.14.804 27.6.492 41.04 6.118 4.05 1.693 7.18 6.069 2.44 8.739-21.88 12.322-70.65 12.573-91.52-1.4-.32-4.292.75-4.521 1.14-8.642"/><path fill="#d09259" d="M1168.85 603.22a92.3 92.3 0 0 1 19.16-6.087c4.16-.794 8.52-1.799 12.76-1.807 3.96 5.36 10.35-.184 14.98 3.079-13.31.997-40.41.597-48.04 13.457-.32-4.292.75-4.521 1.14-8.642m79.21 3.706c5.26 1.071 11.07 1.433 5.42 7.077-4.98-.2-10.31-1.604-5.42-7.077"/><path fill="#533823" d="M1170.1 625.45c3.61.788 10.04 1.809 13.03 3.095l-1.29 1.481c-5.15-1.465-6.85-2.264-11.74-4.576"/><path fill="#070706" d="M636.93 610.144c5.99-10.583 23.341-12.801 34.743-14.439l4.145.63c2.746.408 6.797 1.345 9.709 1.854 3.427.081 14.502.124 17.654-.105l.617-.225c4.694-1.763 6.332-1.379 11.433-1.93 7.832.616 27.056 4.633 32.958 10.597 2.034 2.056 1.603 3.337 1.843 6.186.209 12.956-4.355 14.079-4.709 28.261-.366 14.653 9.112 23.36 9.295 33.872.358 20.614.082 41.997-.051 62.646l-.765 116.361c-1.105 12.666.282 32.106-2.286 42.669-16.982 8.504-34.669 11.085-53.508 10.549-26.107-4.515-35.678 2.06-65.195-12.447.377-2.985.233-7.329.309-10.533 1.023-15.802.191-35.589.057-51.769l-1.27-105.221c-.144-18.068-.856-38.787.997-56.7.376-3.63 3.547-9.718 5.259-13.183 1.696-7.571 1.989-27.05-.372-34.656-1.735-2.533-.966-8.945-.863-12.417"/><path fill="#6f8092" d="M638.165 657.217c19.467 9.841 43.692 10.244 64.815 12.338 18.761-.323 19.893-3.051 36.292 6.881-16.663 6.388-23.31 8.117-41.076 8.588a21540 21540 0 0 0-.188 222.046c-26.107-4.515-35.678 2.06-65.195-12.447.377-2.985.233-7.329.309-10.533 1.023-15.802.191-35.589.057-51.769l-1.27-105.221c-.144-18.068-.856-38.787.997-56.7.376-3.63 3.547-9.718 5.259-13.183"/><path fill="#070706" d="M636.93 610.144c5.99-10.583 23.341-12.801 34.743-14.439l4.145.63c2.746.408 6.797 1.345 9.709 1.854 3.427.081 14.502.124 17.654-.105l.617-.225c4.694-1.763 6.332-1.379 11.433-1.93 7.832.616 27.056 4.633 32.958 10.597 2.034 2.056 1.603 3.337 1.843 6.186-15.78 15.319-49.56 18.312-70.541 18.139a218 218 0 0 1-9.722-.35c-1.356.727-2.275 1.294-3.578 2.116-3.495-.559-5.925-.966-9.403-1.753l-.825-.238c-5.425-1.518-8.941-3.295-14.084-5.344-1.352-.975-2.687-1.819-4.086-2.721-1.735-2.533-.966-8.945-.863-12.417"/><path fill="#de9b5b" d="M715.231 595.929c7.832.616 27.056 4.633 32.958 10.597 2.034 2.056 1.603 3.337 1.843 6.186-15.78 15.319-49.56 18.312-70.541 18.139a218 218 0 0 1-9.722-.35c-1.356.727-2.275 1.294-3.578 2.116-3.495-.559-5.925-.966-9.403-1.753l-.825-.238c-5.425-1.518-8.941-3.295-14.084-5.344-1.352-.975-2.687-1.819-4.086-2.721-1.735-2.533-.966-8.945-.863-12.417l.521.918c1.838 3.42 5.11-8.629 7.12-5.62-.494 1.889-4.881 4.505.512 8.695 1.476 1.147 2.12.888 3.8.329 26.752 9.295 58.327 13.452 84.496.139 20.303-10.33-26.587-15.864-30.198-16.521l.617-.225c4.694-1.763 6.332-1.379 11.433-1.93"/><path fill="#8d6846" d="M641.879 625.282c2.659.058 15.715 3.128 17.918 4.148l-3.009 1.434-.825-.238c-5.425-1.518-8.941-3.295-14.084-5.344"/><path fill="#241a0e" d="M659.797 629.43c3.162.374 6.966.603 9.972 1.071-1.356.727-2.275 1.294-3.578 2.116-3.495-.559-5.925-.966-9.403-1.753z"/><path fill="#d09259" d="M636.93 610.144c5.99-10.583 23.341-12.801 34.743-14.439l4.145.63c2.746.408 6.797 1.345 9.709 1.854-12.877 2.02-29.578 1.894-40.76 10.332-2.367 1.787 3.129 4.816 4.116 5.945-1.68.559-2.324.818-3.8-.329-5.393-4.19-1.006-6.806-.512-8.695-2.01-3.009-5.282 9.04-7.12 5.62z"/><path fill="#e1a262" d="M723.851 606.899c5.26 2.036 10.614 2.385 4.965 6.429-3.533.289-10.292-.177-5.976-5.199zm-86.058 15.662c1.399.902 2.734 1.746 4.086 2.721 5.143 2.049 8.659 3.826 14.084 5.344l.825.238c3.478.787 5.908 1.194 9.403 1.753 12.56 2.023 24.64 2.272 36.879 4.281a1778 1778 0 0 0-.09 32.657c-21.123-2.094-45.348-2.497-64.815-12.338 1.696-7.571 1.989-27.05-.372-34.656"/><path fill="#de9b5b" d="M1277.55 895.548c-.99-11.22-.66-34.636.25-45.822.25 8.876-.5 31.15.73 37.953l3.83-.468c2.23 1.363 5.91 3.299 6.24 5.798.9 6.983 2.11 14.976-2.26 20.973-7.23 9.924-26.96 12.333-38.22 13.986-12.66 1.86-27.28 1.009-40.11.881-20.36 2.211-44.16-5.026-61.01-16.864-.15-6.377-.74-13.595-1.14-20.031 4.55-4.478 5.65-5.494 11.45-8.135.33 3.79.61 8.772 1.15 12.432 21.31 8.944 42.93 9.989 65.76 10.876 16.08.318 39.1-3.757 53.33-11.579"/><path fill="#070706" d="M1282.36 887.211c2.23 1.363 5.91 3.299 6.24 5.798.9 6.983 2.11 14.976-2.26 20.973-7.23 9.924-26.96 12.333-38.22 13.986-12.66 1.86-27.28 1.009-40.11.881 4.52-3.049 13.4-3.607 18.87-4.159.19-.383.37-.766.56-1.149-7.46-1.022-13.68.842-22.03-1.306-19.19-1.716-31.53-4.76-48.52-13.413l1.85-1.613c28.74 15.94 96.21 13.747 122.95-8.493 2.44-2.027-.69-7.313.67-11.505"/><path fill="#8d6846" d="M1205.41 922.235c3.71-.143 33.74-.585 34.34.601l-.04.115-.17.075.13.192-.04.083c-2.86.988-9.75 1.516-12.75 1.389.19-.383.37-.766.56-1.149-7.46-1.022-13.68.842-22.03-1.306"/><path fill="#533823" d="M1156.89 908.822c-5.77-4.191-3.96-5.822 1.85-1.613z"/><path fill="#070706" d="M753.802 853.852c.298 8.271-2.448 28.87 3.299 33.464 3.287 1.946 5.672 2.558 6.488 6.818 1.015 5.296.106 14.27-.258 19.863-15.204 10.791-31.343 14.433-49.872 15.174-24.429 4.246-65.288-.246-86.457-14.123-3.935-2.58-2.336-18.952-2.636-24.183 3.758-3.387 4.554-3.933 8.756-6.775-.076 3.204.068 7.548-.309 10.533 29.517 14.507 39.088 7.932 65.195 12.447 18.839.536 36.526-2.045 53.508-10.549 2.568-10.563 1.181-30.003 2.286-42.669"/><path fill="#de9b5b" d="M753.802 853.852c.298 8.271-2.448 28.87 3.299 33.464.632 4.023 1.75 8.12.554 11.903-9.639 10.326-29.972 12.364-43.294 15.331-22.827 5.084-56.203 3.909-77.38-6.447-2.339-1.784-4.368-3.005-6.791-4.622-.613-.495-1.107-1.121-1.9-1.271l-.29.155c-.572-.017-1.082-.093-1.595-.329-.325-.598.142-8.546.178-9.538.054-1.501 2.669-2.989 3.825-4.03l-.069-.044c.923 1.616-.22 2.449 2.474 6.199 29.517 14.507 39.088 7.932 65.195 12.447 18.839.536 36.526-2.045 53.508-10.549 2.568-10.563 1.181-30.003 2.286-42.669"/><path fill="#d09259" d="M624.366 890.865c3.758-3.387 4.554-3.933 8.756-6.775-.076 3.204.068 7.548-.309 10.533-2.694-3.75-1.551-4.583-2.474-6.199l.069.044c-1.156 1.041-3.771 2.529-3.825 4.03-.036.992-.503 8.94-.178 9.538.513.236 1.023.312 1.595.329l.29-.155c.793.15 1.287.776 1.9 1.271 2.423 1.617 4.452 2.838 6.791 4.622l-.453 2.445c17.12 8.942 30.42 10.456 49.154 12.194.639 2.185.695 3.037 2.356 4.502 3.373-1.175 4.763-1.151 8.39-1.026.101 2.023 2.993 2.107 5.057 2.943 3.742-.298 8.199-.102 11.974.01-24.429 4.246-65.288-.246-86.457-14.123-3.935-2.58-2.336-18.952-2.636-24.183"/><path fill="#533823" d="M688.038 927.244c3.373-1.175 4.763-1.151 8.39-1.026.101 2.023 2.993 2.107 5.057 2.943-5.441-.343-7.969-.835-13.447-1.917"/><path fill="#241a0e" d="M630.19 903.481c2.423 1.617 4.452 2.838 6.791 4.622l-.453 2.445c-3.543-2.412-5.619-2.932-6.338-7.067"/><path fill="#de9b5b" d="m685.682 922.742 13.955.11.053 3.303-3.262.063c-3.627-.125-5.017-.149-8.39 1.026-1.661-1.465-1.717-2.317-2.356-4.502"/><path fill="#d09259" d="M704.749 922.786c4.472.296 6.421.383 10.74 1.17-4.905 1.016-10.789 1.689-15.799 2.199l-.053-3.303a109 109 0 0 0 5.112-.066"/><path fill="#533823" d="M704.749 922.786c3.048-.37 13.297-1.413 15.944-.371l.098.121c-.713 1.815-3.962 1.5-5.302 1.42-4.319-.787-6.268-.874-10.74-1.17"/><path fill="url(#a)" d="M1328.41 882.546c.16 4-.3 10.931 2.64 13.079 13.86 10.11 46.62 11.321 62.8 11.802 19.31-.552 37.68-2.149 55.21-11.214.16-4.215.47-8.555.71-12.777l3.37 2.759c10.34 6.563 7.36 16.056 6.87 27.268-19.96 14.359-46.19 15.953-69.91 15.429-21.64 1.074-54.75-3.198-71.35-18.477l.86-19.584-.42.402z"/><path fill="#070706" d="M1453.14 886.195c10.34 6.563 7.36 16.056 6.87 27.268-19.96 14.359-46.19 15.953-69.91 15.429l-6.84-1.43c-2.95-2.205 1.69-2.275-3.52-5.319-16.22-.823-40.92-5.796-53.92-16.2l.44-.536c36.34 14.67 68.48 15.195 106.05 4.204 8.87-2.596 14.76-5.663 22.15-11.197z"/><path fill="#8d6846" d="M1379.74 922.143c10.41-.423 25.05.021 36.2-.164-9.59 3.432-25.01 1.784-31.08 4.723l-1.6.76c-2.95-2.205 1.69-2.275-3.52-5.319"/><path fill="#070706" d="M973.083 891.611c3.625-4.221 4.398-5.199 8.965-8.286.012 2.923-.148 8.552.088 11.244 21.904 11.587 41.434 11.998 65.994 13.284 14.87-.84 41.86-2.409 53.51-11.974 1.94-3.19 1.45-7.273 1.48-11.145l5.43 3.144c7.76 5.794 5.5 17.368 5.19 26.331-22.07 14.012-47.95 15.715-73.68 14.628-1.42.091-2.96.123-4.4.177-15.52 1.4-50.921-5.287-61.423-17.736-1.695-5.944-1.189-13.36-1.154-19.667"/><path fill="#de9b5b" d="M973.083 891.611c3.625-4.221 4.398-5.199 8.965-8.286.012 2.923-.148 8.552.088 11.244 21.904 11.587 41.434 11.998 65.994 13.284 14.87-.84 41.86-2.409 53.51-11.974 1.94-3.19 1.45-7.273 1.48-11.145l5.43 3.144c-.96 6.131-1.52 11.621-7.65 15.181-29.11 16.926-88.09 20.067-117.902 3.286l-1.307 2.047-3.144-3.182-.612 1.749c-.561 2.231-.31 3.109-2.382 3.892l-1.316.427c-1.695-5.944-1.189-13.36-1.154-19.667"/><path fill="#241a0e" d="M978.547 905.21c2.141-1.012 2.402-.229 4.451 1.135l-1.307 2.047z"/><path fill="url(#b)" d="m978.547 905.21 3.144 3.182c16.551 10.963 44.139 14.378 63.609 14.601 1.71 1.148 1.59 1.077 2.74 2.894l-1.14-.145c-2.91 1.3-4.18 1.344-6.84 3.095-1.42.091-2.96.123-4.4.177-15.52 1.4-50.921-5.287-61.423-17.736l1.316-.427c2.072-.783 1.821-1.661 2.382-3.892z"/><path fill="#8d6846" d="M1035.66 929.014c3.44-2.863 6.5-4.151 11.24-3.272-2.91 1.3-4.18 1.344-6.84 3.095-1.42.091-2.96.123-4.4.177"/><path fill="#d09259" d="M1060.35 922.73c.46.189 1.37.374 1.55.923-.09.45-.35.672-.65 1.089-4.48.31-8.89 1.039-13.21 1.145-1.15-1.817-1.03-1.746-2.74-2.894 5.3.009 9.78-.004 15.05-.263"/><path fill="#533823" d="M1060.35 922.73c2.64-1.28 10.28-.941 5.84 1.266-.4.198-4.05.621-4.94.746.3-.417.56-.639.65-1.089-.18-.549-1.09-.734-1.55-.923"/><path fill="#de9b5b" d="M795.992 890.807c4.25-3.505 5.644-4.822 10.748-6.69-.06 4.173-.63 7.412 2.554 10.257 13.087 11.693 46.962 12.915 63.941 13.528 19.878-.726 35.311-2.581 53.881-10.779l.885-11.154 2.621 1.352c3.021 1.571 5.156 1.936 6.093 5.232 1.713 6.024.358 15.077.323 21.448-21.665 13.757-42.466 15.406-67.877 14.891-23.656 1.396-51.47-3.695-72.187-15.845z"/><path fill="#070706" d="M930.622 887.321c3.021 1.571 5.156 1.936 6.093 5.232 1.713 6.024.358 15.077.323 21.448-21.665 13.757-42.466 15.406-67.877 14.891l-5.485-.391 1.732-2.788c3.071.344 14.78-.745 18.418-1.018-5.638-3.382-20.123.291-30.942-2.556-13.584-1.721-39.602-6.602-49.448-16.496l.948-.382c22.396 11.881 57.71 15.396 82.421 9.871 14.085-3.149 32.901-4.667 43.5-15.409 1.483-3.685.636-8.303.317-12.402"/><path fill="#8d6846" d="M852.884 922.139q23.006-.352 46.009.128c-4.959 1.145-9.943 2.422-15.067 2.428-5.638-3.382-20.123.291-30.942-2.556"/><path fill="#533823" d="M863.676 928.501c-.933-.177-3.32-.274-3.929-1.074.408-1.201 4.634-1.562 5.661-1.714z"/><path fill="#e1a262" d="M671.673 595.705c11.435-1.771 32.296-2.219 43.558.224-5.101.551-6.739.167-11.433 1.93l-.617.225c-3.152.229-14.227.186-17.654.105-2.912-.509-6.963-1.446-9.709-1.854z"/><metadata><recraft-signature>{&quot;signed_by&quot;: &quot;recraft&quot;, &quot;signature_b64&quot;: &quot;twAO1jw6QLtWGn7XPimJRtKpBACgDxpi9KFW+cAocSIIpfGTCMfYhlWeq7SWpo7x6pCLOz8G+d5xQaQDNKOfBA==&quot;, &quot;signing_algo&quot;: &quot;Ed25519&quot;, &quot;generation_timestamp&quot;: 1777235885, &quot;identifier&quot;: &quot;db05fd5b-18c5-40c5-af29-8c9b5b86321f&quot;}</recraft-signature></metadata></svg>