<svg xmlns="http://www.w3.org/2000/svg" width="1024" height="1024" preserveAspectRatio="none" style="display:block" viewBox="0 0 2048 2048"><path fill="#0a2837" d="M0 824.796c23.57-.551 47.408.116 71-.315 6.616-.121 12.006.036 18.575.687 4.032 2.878 5.857 4.501 9.274 8.166.864 10.258.88 20.57.047 30.831l-1.162 1.441c-4.252 5.422-8.24 8.468-15.179 9.517l-.658 2.985c2.702 6.638 1.446 14.588 1.86 21.394.854 14.048-.494 18.778-12.6 26.455-1.883.138-1.73.133-3.445.845-2.862-.571-6.326-4.296-9.746-4.428-18.119-.702-40.076-.627-57.966-.368z"/><path fill="#0a2837" d="m0 871.898 48.428.027c14.254.004 21.97-2.69 33.469 6.183 2.702 6.638 1.446 14.588 1.86 21.394.854 14.048-.494 18.778-12.6 26.455-1.883.138-1.73.133-3.445.845-2.862-.571-6.326-4.296-9.746-4.428-18.119-.702-40.076-.627-57.966-.368z"/><path fill="#fdfdfd" d="M0 918.466c16.763-.206 33.259-.12 50.004.191 13.605.253 10.193 1.875 21.153 7.3-1.883.138-1.73.133-3.445.845-2.862-.571-6.326-4.296-9.746-4.428-18.119-.702-40.076-.627-57.966-.368zm0-49.79c23.61.541 47.824-.337 71.443.586 3.393.132 8.649 3.474 11.112 5.861l-.658 2.985c-11.498-8.873-19.215-6.179-33.47-6.183L0 871.898z"/><path fill="#0a2837" d="M0 774.014q30.687-.233 61.376-.077c4.271.015 10.374.161 14.386-.035 23.114-1.127 39.2 7.75 37.694 33.071-.756 12.716-1.464 16.853-13.582 22.644-3.147-2.48-6.423-5.164-9.645-7.508-27.81-1.391-61.89-.407-90.229-.273zm1948.33 54.588c-9.29-3.806-11.68-6.848-12.53-16.569-3.67-42.132 23.93-38.033 54.36-38.155q28.92-.183 57.84-.069v48.074l-52.79-.318c-16.86-.093-32.73-3.015-46.88 7.037"/><path fill="#0a2837" d="M2048 824.29v44.595c-20.78-.33-41.61.177-62.39.035-8.92-.06-11.67-.378-19.03 5.373-4.2.964-5.34-.372-9.03-2.364-8.98-4.853-8.66-14.527-8.5-23.428.26-14.078-.92-15.522 9.99-23.245 11.26-1.468 21.18-.793 32.53-.801q28.215.108 56.43-.165M0 922.006c17.89-.259 39.848-.334 57.966.368 3.42.132 6.884 3.857 9.746 4.428 3.095 6.347 2.41 8.427 2.33 15.448-.15 12.943 2.428 31.95-11.658 39.374-13.117 6.913-42.97 4.196-58.384 4.108zm2048 63.878c-17.8.092-44.9 3.743-61.17-6.351-11.4-7.071-10.7-47.932-6.37-51.614 11-9.355 51-5.775 67.54-5.947z"/><path fill="#0a2837" d="M1966.58 874.293c7.36-5.751 10.11-5.433 19.03-5.373 20.78.142 41.61-.365 62.39-.035v50.234c-19.25-.489-39.2-.574-58.4.254-1.38.06-11.06 4.895-13.21 5.857-4.3-3.338-6.12-4.788-10.01-8.676-1.11-7.683-2.91-31.728-.25-38.459.21-1.459.37-2.353.45-3.802"/><path fill="#fdfdfd" d="M1966.58 874.293c7.36-5.751 10.11-5.433 19.03-5.373 20.78.142 41.61-.365 62.39-.035v2.774q-24.48.42-48.96.298c-13.11.009-22.65-2.608-32.91 6.138.21-1.459.37-2.353.45-3.802"/><path fill="#0a2837" d="M777.505 1849.49c158.115-.87 316.235-.8 474.345.22 48.9.43 99.3-1.57 147.99.28 69.61 2.66 124.6 57.81 125.56 128.55-84.3-.59-168.6-.65-252.9-.17l-748.553-.18a124.62 124.62 0 0 1 36.51-90.29c40.55-41.17 86.874-37.99 138.509-38.09zm-187.924-750.15c7.996-.9 29.836-.32 38.465-.28l68.542.08 249.755-.23 342.537.08 111.41.04c16.45.01 43.25-.74 59.16.42 13.29.94 25.98 5.89 36.4 14.19a61.55 61.55 0 0 1 22.98 41.37c4.16 38.02-21.47 65.67-58.58 69.56-19.37 1.19-43.7.64-63.37.63l-101.55-.12-309.277-.05-267.662.06-85.032-.02c-26.958-.01-55.754 3.97-78.421-13.01a60.04 60.04 0 0 1-23.738-41.05 63.17 63.17 0 0 1 12.695-47.07c11.711-14.91 27.185-22.28 45.686-24.6m317.018-249.266 164.111.063c19.87-.069 49.62-.521 70.24.101 3.83.116.06 3.936 4.09 6.428 6.22 3.854 12.92 7.005 19.22 10.859a223.3 223.3 0 0 1 39.83 31.533c42.5 42.129 67.64 105.922 67.93 165.652l-150.51-.21c-21.35.07-42.7-.04-64.05-.32-22.12-18.58-45.14-19.95-66.878.52l-220.593-.23c-.034-22.08.378-39.97 6.395-61.99 12.994-47.559 42.706-88.384 81.383-118.448 12.559-9.762 27.966-17.3 41.612-25.418 5.499-3.271 5.731-2.855 7.22-8.54M831.796 1230.5l410.784.35c-2.2 1.34-4.36 2.76-6.47 4.24-35.98 25.13-37.49 79.51 2.79 102.09 8.94 5.01 16.67 6.23 26.67 7.68 1.31 76.57-.11 156.68-.4 233.46l-.38 92c-.04 11.85-.09 23.58.42 35.43.18 4.08-1.07 5.56-4.68 6.34l-1.4-1.01c-.73-8.9-.18-20-.14-29.07.21-44.31 1.85-83.41-7.28-127.28-13.13-63.18-37.62-113.31-85.21-157.51a216.1 216.1 0 0 0-147.87-53.69c-45.194 1-88.892 16.4-124.732 43.95-140.457 107.13-93.766 312.27-105.274 324.24l-3.839-.17c-1.922-2.08-1.958-4.54-1.924-7.67.437-40.02.174-80.09.172-120.08l-.188-238.68 4.936-1.01c16.708-3.37 29.729-12 39.034-26.23a58.47 58.47 0 0 0 8.318-45.18c-4.239-19.61-14.82-31.62-31.25-42.06z"/><path fill="#0a2837" d="M1008.85 1349.41c5.03-.39 9.69-.47 14.75-.47a207.66 207.66 0 0 1 148.86 61.84c35.43 35.69 55.92 76.39 69 124.59 15.7 57.89 11.54 117.04 11.46 176.61l-90.99-.02c-.91-73.56 6.03-144.23-35.73-211.24-20.27-32.53-48.09-51.55-85.39-59.41-5.9-.85-11.86-1.28-17.83-1.3-29.841-.09-60.559 14.07-80.848 35.43-62.264 65.56-56.109 154.49-56.043 236.35l-90.99.18c.027-102.92-5.881-193.89 62.787-281.06 38.569-48.97 88.941-75.32 150.964-81.5m-197.158 367.91c29.853-1.57 75.797-.29 105.997.01l152.911.48 115.78-.73c16.2-.07 36.29-1.19 52.18.31 27.22 2.58 48.35 28.45 52.81 53.52a61.8 61.8 0 0 1-10.49 46.75c-11.26 16.01-26.65 23.92-45.54 27.06-17.88 1.48-53.71.18-72.99.12l-147.54-.27-136.727.17c-17.705.02-54.08 1.88-70.172-.63-73.037-11.37-74.035-116.64 3.781-126.79m-147.805-372.41 113.112.1.156 366.92H663.968zm607.153.09 112.88.33.05 250.98.16 74.3c.04 11.82.63 30.18-.37 41.36l-113.34-.08c-.63-46 .36-94.34.57-140.5zM912.343 331.198c-.063-13.657-1.026-27.701-.37-41.315 1.511-31.356 30.396-26.183 52.809-26.172l61.418.053 59.32.038c12.69-.002 34.04-2.411 43.83 5.682 15.85 13.101 7.64 40.612 10.24 59.51l-.63 2.975c13.93-.002 28.44.186 42.31-.232-.02 5.372.13 11.595-.36 16.878-3.95 5.881-8.61 12.689-16.23 13.309-21.09 1.716-45.71.934-66.9.88q-70.199.021-140.404-.672c-8.048 34.348-14.739 67.769-22.153 102.107-6.875-12.039-14.349-26.112-21.566-37.677-12.006 8.219-22.888 15.055-35.336 22.621l18.747-86.206c-24.449.377-30.541-7.962-30.356-31.03a3155 3155 0 0 0 45.631-.749"/><path fill="#ea1d2a" d="M928.431 321.237c18.546-1.83 48.165-.208 67.252.034 5.967.076 9.957 2.166 13.627 6.744-7.29-.048-27.016-2.126-31.483 3.502-9.681 10.569-15.597 16.952-20.451 30.615-8.048 34.348-14.739 67.769-22.153 102.107-6.875-12.039-14.349-26.112-21.566-37.677-12.006 8.219-22.888 15.055-35.336 22.621l18.747-86.206c4.124-15.987 17.782-32.907 31.363-41.74"/><path fill="#0a2837" d="m1009.31 328.015 84.77.038c8.2-.011 39.41-.518 45.51.941l-.63 2.975c13.93-.002 28.44.186 42.31-.232-.02 5.372.13 11.595-.36 16.878-3.95 5.881-8.61 12.689-16.23 13.309-21.09 1.716-45.71.934-66.9.88q-70.199.021-140.404-.672c4.854-13.663 10.77-20.046 20.451-30.615 4.467-5.628 24.193-3.55 31.483-3.502"/><path fill="#fdfdfd" d="m1009.31 328.015 84.77.038c8.2-.011 39.41-.518 45.51.941l-.63 2.975c-37.91.964-76.53-.312-114.51.214-14.94.207-31.774.272-46.623-.666 4.467-5.628 24.193-3.55 31.483-3.502"/><path fill="#0a2837" d="M1266.95 1230.42c34.9-1.02 70.28.11 105.22-.36 19.43-.26 34.92-1.21 51.63 10.51a52.9 52.9 0 0 1 22 34.41c6.26 35.16-16.45 59.76-50.47 64.96-35.59.68-71.32-.18-106.91.1-21.68.17-39.59 1.02-56.83-14.59a51.47 51.47 0 0 1-16.77-35.54c-1.91-32.07 19.6-57.5 52.13-59.49m-612.916-.04c23.913-.93 50.53.13 74.799-.31 19.436.58 39.691-1.24 58.964 1.4 23.044 3.16 39.623 24.15 42.547 46.05a55.65 55.65 0 0 1-11.615 42.35c-9.904 12.54-21.977 18.3-37.479 20.12l-86.773.07c-24.159.01-52.157 3.78-72.169-11.67a53.18 53.18 0 0 1-20.565-37.41 53.72 53.72 0 0 1 12.878-40.77c10.633-12.48 23.122-18.43 39.413-19.83m617.686 487.07q36.12-.585 72.24-.45c15.59-.03 43.37-1.16 57.64 2.36a58.87 58.87 0 0 1 26.51 14.42 64.12 64.12 0 0 1 20.14 45.63c.75 39.44-30.63 66.89-69.26 65.65-40.71-1.31-82.7 1.28-123.48-.28 18.33-8.49 31.12-20.61 38.04-39.92a71.6 71.6 0 0 0-3.13-55.55c-6.38-13.05-15.22-21.19-27.49-28.59-.71-.33-5.4-1.94-5.08-3.1 1.15-.83 11.99-.33 13.87-.17"/><path fill="#1a2f35" d="M1262.93 1720.72c-.71-.33-5.4-1.94-5.08-3.1 1.15-.83 11.99-.33 13.87-.17-2.47 2.05-3.98-.2-8.79 3.27"/><path fill="#0a2837" d="M724.461 1844.84c-11.524.87-24.938-.03-36.439.3-25.666.76-48.773 1.19-68.204-18.27-12.536-12.55-19.615-27.07-19.87-45.12a63.75 63.75 0 0 1 18.681-46.13 59.77 59.77 0 0 1 27.457-15.83c14.207-3.64 42.247-2.63 57.88-2.59l70.702.2 10.958-.08c.675 0 1.208.08 1.75.47.64 1.49-3.525 2.59-4.167 2.83-17.582 11.21-29.123 24.94-33.884 45.72a68.2 68.2 0 0 0 9.057 52.22c7.036 10.86 13.527 15.51 23.707 22.93.784.32 4.527 1.94 4.822 2.98-1.37.88-56.605.56-62.45.37"/><path fill="#1a2f35" d="M782.089 1841.49c.784.32 4.527 1.94 4.822 2.98-1.37.88-56.605.56-62.45.37 12.969-2.32 38.333-.16 52.555-.97 2.875-.17 3.272-.41 5.073-2.38m-7.421-124.09 10.958-.08c.675 0 1.208.08 1.75.47.64 1.49-3.525 2.59-4.167 2.83-3.532-3.19-3.821-2.06-8.541-3.22"/><path fill="#0a2837" d="m1346.51 799.907 1.31.36c8.06 12.926 17.79 32.359 25.28 46.156-11.8 2.931-21.44 4.82-32.3 10.874-37.78 21.05-17.85 73.476-27.99 108.221-7.2 24.663-17.88 39.472-40.13 52.432-2.05-7.83-3.64-14.97-5.89-22.948-11.51-35.808-25.05-60.817-49.76-89.674 19.49-1.639 26.65-7.659 35.55-25.265 22.42-44.366 50.63-59.111 93.93-80.156m-339.07-203.478c47.34-4.497 117.12 7.67 158.44 30.149q-6.105 19.186-12.63 38.239c-38.67-15.63-67.2-21.356-109-23.789-55.807-2.909-95.213 5.003-147.596 22.944-4.259-13.132-7.932-23.973-13.075-36.756 41.418-22.711 77.664-28.437 123.861-30.787m4.31 157.746c8.11 1.156 22.18-.664 25.39.984.35 2.973.23 3.508 1.52 6.262 8.13 2.371 16.56 3.744 24.66 6.067 34.3 9.838 61.03 29.236 78.71 60.355-34.25-.507-68.52-.74-102.78-.699l-133.903.085c17.786-30.19 49.075-53.451 82.984-60.561 4.45-.933 20.309-4.453 23.039-6.418zm622.35 168.066c8.59-.381 17.4-.39 26.33-.253 40.08.615 80.77-1.519 120.71 1.04 4.67.673 11.66 6.42 13.62 10.508 9.3 19.421 7.26 39.518-11.59 50.035-15.66 4.507-67.82 1.028-87.28 1.963-15.66-.157-31.46.477-47.08-.016-24.34-.597-29.41-14.775-28.29-36.549.73-14.212-2.72-21.554 13.58-26.728m-1364.945-.067c10.794-1.317 26.13-.481 37.336-.481 33.187.2 66.159-.149 99.357.423 21.624-.02 21.434 11.92 20.942 29.504-.467 16.68-2.007 28.312-20.009 33.673-18.438 1.572-45.485.395-64.405.112-25.297-.378-55.309 2.446-79.279-3.404-14.771-3.604-18.728-32.951-12.605-44.451 4.092-8.719 10.042-11.699 18.663-15.376"/><path fill="#0a2837" d="M1616.68 872.2c18.27-.855 146.76-2.12 157.12 1.837 4.98 1.903 8.74 6.652 10.58 11.528 2.78 7.347 2 15.654-1.42 22.67-2.92 6.008-7.74 8.43-13.82 10.466-26.26.756-56.7-.864-83.34-.384-34.17.615-35.3-3.203-68.05 5.39-11.15-3.252-11.97-18.439-11.68-28.008.36-12.111-.94-17.825 10.61-23.499m-1336.491-.053c6.202-.543 30.554-.936 36.471-.347 21.56 2.147 106.964-4.366 120.694 4.307 5.767 8.458 3.704 27.126 3.352 37.902-2.536 4.192-9.091 12.681-14.575 9.97-12.139-8.103-42.822-5.679-57.942-5.718l-91.391.185c-20.65-9.822-20.328-37.93 3.391-46.299m40.53-97.84c39.41-1.406 82.372.543 122.035.794 38.112.241 29.85 70.614 6.192 49.737-12.824-9.601-128.834 4.66-146.044-7.363-3.97-2.774-6.386-6.84-7.197-11.591-1.227-7.187.781-15.053 5.186-20.832 5.364-7.038 11.171-9.773 19.828-10.745m1287.681.15c39.69-.687 83.03-.481 122.84.255 18.84.348 30.04 28.512 15.61 41.893-7.4 6.86-18.86 5.37-28.35 5.29l-76.87-.012c-11.4-.036-23.85-.153-35.28.097-3.18.07-9.16 5.7-14.29 6.48-6.05-1.948-7.21-4.683-10.82-10.157-1.81-21.819 1.01-41.372 27.16-43.846"/><path fill="#0a2837" d="M1604.88 825.126c16.5-1.399 147.32-1.267 154.36 1.189 4.89 1.708 9.03 6.454 11.17 11.03 3 6.41 2.87 13.104.38 19.659-2.52 6.608-7.62 9.126-13.81 11.756-45.92.915-93.82-1.458-139.75 1.039-2.34.127-8.79 3.307-11.19 4.452-16.95-9.657-13.67-24.156-11.82-41.442 4.39-4.317 5.12-4.952 10.66-7.683m-1312.916.021c9.192-.415 18.868-.413 28.07-.29 41.171.55 82.896-1.027 124.006.177 13.758 8.996 12.219 27.523 6.854 41.894-1.432 3.837-6.675 6.202-10.579 7.213-14.573-7.828-30.909-5.321-47.283-5.319l-69.533-.023c-8.617-.009-22.654.836-30.498-1.375-24.858-7.007-21.193-31.378-1.037-42.277m695.099 243.883c-2.853 10.22-4.836 12.08-6.052 23.78-5.411 1.56-55.469.98-64.873.99l-164.87.36c-.043-8.12.034-16.25.229-24.37 76.013-2.97 158.593 1.17 235.566-.76m73.987.07 238.76.86c.06 8-.03 16-.29 24H1148c-24.76-.02-56.2.8-80.56-.41-.45-12.47-3.65-14.03-6.39-24.45M894.072 831.827l260.038.232.1 13.309-174.13-.153-50.975-.125c-10.409-.023-24.905-.454-34.959.946z"/><path fill="#eb8f31" d="M994.64 1066.94c17.52-18.14 43.34-14.87 60.43 2.14 2.19-.06 3.77-.07 5.98.02 2.74 10.42 5.94 11.98 6.39 24.45-10.82.57-75.716 1.6-82.083-.17-1.205-.89-1.822-1.41-3.27-.91l-1.076.34c1.216-11.7 3.199-13.56 6.052-23.78 1.925-2.08 2.791-1.61 5.8-1.84z"/><path fill="#fde5c2" d="M1055.07 1069.08c2.19-.06 3.77-.07 5.98.02 2.74 10.42 5.94 11.98 6.39 24.45-10.82.57-75.716 1.6-82.083-.17 25.263.64 52.463-.33 78.013-.14l-1-5.78c-1.36-7.93-3.75-11.62-7.3-18.38m-68.007-.05c1.925-2.08 2.791-1.61 5.8-1.84l1.777-.25c-6.925 11.08-7.488 14.14-9.283 26.44-1.205-.89-1.822-1.41-3.27-.91l-1.076.34c1.216-11.7 3.199-13.56 6.052-23.78"/><path fill="#0a2837" d="M1166.93 639.328c3.68.693 6.02.862 9.29 2.732 2.12 3.358 1.46 2.275 1.28 6.985 18.24 8.502 34.72 15.263 48.86 30.146 26.89 26.144 24.96 83.83-8.59 103.09-35.02 20.103-32.15 27.36-31.67 65.403.04 3.513-.63 4.251-3.13 6.455l-4.08.714-1.52-1.102c-1.47-3.966-.18-16.256-.51-21.962-3.35-57.931 37.98-39.21 55.05-80.811 6.2-15.093 5.74-33.461-.85-48.281-13.12-29.521-41.97-38.501-69.37-49.399zm-286.523.533.691-.045c2.778 1.431 5.569 10.062 7.154 13.812-32.264 13.135-65.89 26.223-71.277 65.108-2.964 21.395 4.442 42.804 22.008 56.123 8.729 6.219 21.915 12.294 28.051 21.146 9.074 13.089 8.443 44.506 6.341 59.986-3.141-2.507-4.867-3.397-8.414-5.382-.063-10.215 1.144-26.722-.146-36.245-4.738-26.298-33.053-25.032-46.488-48.219-20.387-35.185-12.139-71.598 18.897-97.106 9.908-8.142 20.297-11.75 31.319-18.069 2.768-1.587 2.367-3.593 2.642-6.325 2.73-3.369 4.627-3.174 9.222-4.784m140.953 66.619a22.89 22.89 0 0 1 23.67 13.296 22.87 22.87 0 0 1-5.68 26.547 22.86 22.86 0 0 1-12.79 5.637 22.892 22.892 0 0 1-25.28-22.959c.1-11.481 8.69-21.113 20.08-22.521"/><path fill="#eb8f31" d="M1662.57 731.846c9.55-3.222 19.9 1.867 23.18 11.393s-1.74 19.912-11.25 23.251c-9.59 3.368-20.08-1.711-23.39-11.32s1.83-20.074 11.46-23.324m-1634.893-.281c9.737-2.784 19.88 2.895 22.594 12.653 2.714 9.757-3.039 19.858-12.816 22.501-9.677 2.617-19.653-3.065-22.34-12.723-2.686-9.658 2.923-19.674 12.562-22.431m1983.573.295c9.53-3.201 19.84 1.949 23.01 11.487 3.16 9.538-2.03 19.832-11.58 22.96-9.5 3.113-19.72-2.043-22.87-11.53s1.97-19.733 11.44-22.917m-1633.879-.164a18.145 18.145 0 1 1 7.153 35.57c-9.721 1.751-19.057-4.596-21.005-14.28-1.947-9.684 4.209-19.147 13.852-21.29"/><path fill="#0a2837" d="M1186.7 856.155c29.04-.278 16.85 28.305 8.76 27.779-2.53-1.861-18.84-13.998-19.65-15.837-2.26-5.116 6.9-10.178 10.89-11.942m-330.859-.125c4.939.029 17.65.907 17.972 9.586.077 2.058-10.445 8.452-12.853 10.139l-1.593 1.136c-1.506 1.083-6.978 5.278-8.303 4.641-5.17-2.482-6.844-11.805-4.835-16.521 2.33-5.467 5.096-6.901 9.612-8.981"/><metadata><recraft-signature>{&quot;signed_by&quot;: &quot;recraft&quot;, &quot;signature_b64&quot;: &quot;nJ6DaoPVztoff6SabS8tzmcuJrhvIyv/Vn20ga4O3hcBg2JmVFTf/DDYjGJ+OIZGwOvqoeKdrXzI4mszFR86CQ==&quot;, &quot;signing_algo&quot;: &quot;Ed25519&quot;, &quot;generation_timestamp&quot;: 1777251778, &quot;identifier&quot;: &quot;e26dad97-6852-4cca-bc93-dde3c5ffb246&quot;}</recraft-signature></metadata></svg>