<svg xmlns="http://www.w3.org/2000/svg" width="1024" height="1024" preserveAspectRatio="none" style="display:block" viewBox="0 0 2048 2048"><path fill="#cb8441" d="M1037.2 1894.82c37.27-1.89 85.76-8.59 122.57-10.06 21.21-.85 209.84-8.73 215.18-3.35l-.11 5.67-.15 7.42c.15 30.99-.45 65.06.4 95.84l19.59.1c.26-17.21-.4-36.56.17-53.35 32.46.36 86.39-.62 114.38-16-3.47-3.84-12.05-11.69-11.58-16.71 16.32-13.37 193.34-18.94 227.54-23.02l1.08-.14c2.05-.03 4.1-.08 6.15-.17-.06 3.12-.02 7.06-.24 10.11-.5 11.89-.49 26.4-.18 38.34q.345 30.765.06 61.53l19.53-.5c.4-19.78-.3-39.98.17-59.4 98.87 3.1 197.84-.44 296.24-10.58V2048h-790.5c19.29-6.21 93.41-13.37 94.29-41.49-3.02-33.3-66.49-35.62-89.49-37.33-34.52-2.56-68.34-5.18-101.67-5.39-7.94-2.08-30.48-4-39.75-5.03-27.88-3.33-55.83-6.11-83.82-8.36z"/><path fill="#424e5b" d="M1477 2048c-9.39-3.57-31.96-11.86-17.45-24.41 9.79-8.48 33.9-12.33 46.36-13.86 57.41-7.01 116.22-6.57 173.91-6.74 65.88-.7 131.78-.01 197.64 2.07 56.45 2.28 113.88 7.28 170.54 9.99V2048zm-102.64-109.81c-72.83-2.52-109.1-18.71-15.27-45.43 5.25-1.49 10.65-4.62 15.75-5.68l-.15 7.42c-.85 12.73-.29 30.55-.33 43.69m357.64-8.69-35-2.41c-17.11-1.17-70.35-9.26-21.99-21.75l4.01-1.04 4-1.01 1.96-.48c15.25-3.79 31.93-8.31 47.2-11.65-.5 11.89-.49 26.4-.18 38.34M0 1818.62c35.529.26 231.767-2.33 250.69 17.29 2.096 2.17 2.043 3.17 2.408 6.06-1.166 3.99-3.711 5.85-7.227 7.83-31.404 17.75-192.625 22.29-201.168 46.35-.838 2.36-1.019 4.6.186 6.89 3.344 6.34 15.203 8.17 21.691 9.39 71.491 13.44 157.404 9.54 230.773 11.98-.079 21.57-.56 44.95-.095 66.38 4.723-.75 14.825-.74 20.035-.86 7.554.46 23.984-.82 31.946-1.28q30.407-1.89 60.835-3.39c66.529-2.84 134.382-4.27 200.619-7.85l-.608.98c11.873 2.12 39.748 4.05 47.972 13.28.961 1.08 2.228 4.76 2.753 6.31-12.713.93-112.085 3.83-110.58 21.21 7.135 9.58 38.203 12.82 50.778 14.65 27.995 3.99 56.107 7.1 84.295 9.35 12.364.96 45.387 2.66 56.075 4.81H0z"/><path fill="#cb8441" d="M317.293 1989.93c7.554.46 23.984-.82 31.946-1.28q30.407-1.89 60.835-3.39c66.529-2.84 134.382-4.27 200.619-7.85l-.608.98c11.873 2.12 39.748 4.05 47.972 13.28.961 1.08 2.228 4.76 2.753 6.31-12.713.93-112.085 3.83-110.58 21.21 7.135 9.58 38.203 12.82 50.778 14.65 27.995 3.99 56.107 7.1 84.295 9.35 12.364.96 45.387 2.66 56.075 4.81H492.264c-18.333-5.61-62.642-9.11-83.575-11.12-52.723-4.98-105.844-7.92-158.421-14.24-11.746-1.42-60.224-4.96-65-14.18l.839-1.55c16.006-11.52 87.86-11.02 111.151-16.12 4.723-.75 14.825-.74 20.035-.86"/><path fill="#424e5b" d="M1160.63 1963.79c33.33.21 67.15 2.83 101.67 5.39 23 1.71 86.47 4.03 89.49 37.33-.88 28.12-75 35.28-94.29 41.49H741.378c-10.688-2.15-43.711-3.85-56.075-4.81-28.188-2.25-56.3-5.36-84.295-9.35-12.575-1.83-43.643-5.07-50.778-14.65-1.505-17.38 97.867-20.28 110.58-21.21 87.836.05 175.672-.63 263.497-2.02 18.812-10.16 70.244-16.94 92.923-20.52l-.11 14.4c7.38-.96 12.49-1.28 19.78.14l-.24-15.15c19.1 0 42.66-1.69 62.31-2.17 21.64-3.67 39.62-6.95 61.66-8.87"/><path fill="#cb8441" d="M1036.66 1974.83c19.1 0 42.66-1.69 62.31-2.17l-1.07.66c-3 1.9-4.33 2.33-5.72 5.58 1.78 23.55 104.85 14.74 109.88 35.03-15.6 29.38-243.664-6.05-277.753-17.97 18.812-10.16 70.244-16.94 92.923-20.52l-.11 14.4c7.38-.96 12.49-1.28 19.78.14z"/><path fill="#424e5b" d="M1752.25 1879.62c56.08.02 112.14-2.3 168.04-6.97 20.77-1.63 52.37-3.09 71.79-9.56 4.26-1.41 11.97-3.39 13.54-8.08.4-1.19.61-2.68-.08-3.78-7.28-11.57-86.82-17.57-104.26-21.36-5.54-1.2-12.42-2.76-15.67-7.79.15-2.15.07-2.7 1.7-4.3 16.27-15.93 133.97-22.69 160.69-23.06v125.83a2213 2213 0 0 1-296.24 10.58c-.02-16.85-.32-34.77.49-51.51m-1435.18 44.25c73.139-.05 146.279.47 219.41 1.56 41.31.56 82.268 1.87 123.603 1.64-.166 15.76.051 31.81.11 47.59a4305 4305 0 0 0-49.5 2.75c-66.237 3.58-134.09 5.01-200.619 7.85q-30.428 1.5-60.835 3.39c-7.962.46-24.392 1.74-31.946 1.28z"/><path fill="#eeeded" d="M1717.42 1653.23c12.8-11.1 17.54-15.54 31.5-6.53 8.35 5.38 19.27-.09 27.46-2.2 6.99 1.53 15.9 11.63 21.2 17.07 21.98-2.42 27.77 1.9 37.81 20.75l16.17 3.12c3.7 3.28 5.06 5.09 8.14 9.02 4.92-.04 13.99.41 18.05-1.32.29 2.15.49 1.42-.17 3.27-43.19.04-85 13.08-114.01 48.2-6.37 7.72-12.71 23.03-21.59 26.62-6.14-.97-6.68-7.08-9.91-12.25-4.96-7.89-10.64-15.3-16.97-22.14-32.92-35.67-59.55-39.12-104.79-40.78l-1.05-2.63c6.94.38 15.46.29 22.52.42l6.15-9.5 12.72-1.28c10.64-27.68 10.71-10.51 26.15-19.11 22.78-12.68 9.61-20.07 40.62-10.73"/><path fill="#424e5b" d="M1718.23 1655.78c16.42-14.07 19.56-13.75 37.83-3.06 25.17-7.39 22.42-6.31 40.78 11.53 22.96-1.67 25.94-.24 37.22 20.38 6.62.91 12.84 1.12 18.58 4.32 1.67 1.35 1.83 1.83 3.14 3.62l-.21 1.83c-6.87 1.75-13.52 2.28-20.15 3.92-19.8 4.88-35.24 12.83-52.16 23.74-.96-11.51.16-15.73-10.52-21.53l-1.77-.47c-3.49 2.94-3.72 4.23-7.24 4.24-4.94-4.29-9.26-6.95-15.41-2.38-7.42 5.52-7.61-1.89-17.55-1.74-1.5 1.4-1.83 1.35-3.91 2.18-4.56 5.94-5.91 2.3-13.74 2.55-4.33 2.09-8.22 12.26-6.89 15.09 2.46-4.58 5.39-11.89 9.73-13.33 4.44.57 4.52 2.15 6.35 3.22 4.07 2.38 5.9-6.6 12.56-7.13 4.56 1.6 5.43 2.96 9.03 6.45 3.63-3.86 6.82-7.72 12.28-6.94 2.38 2.49 5.55 6.32 9 6.63 3.72-3.03 5.99-6.26 10.63-4.28 4.71 5.85 4.37 11.76 4.85 19.16-13.09 11.69-19.11 16.79-28.1 32.26-2.06 3.55-7.01 11.22-11 12.05-5.11-5.22-11.81-16.48-16.47-23.06a121.74 121.74 0 0 0-56.37-43.06c-8.48-3.16-28.37-6.9-32.84-10.36l-.16-1.81c4.54-4.06 11.15-4.17 16.99-4.71l1.03-3.67c5.66-20.45 13.93-7.71 26.35-16.29 19.5-13.49 11.83-17.07 38.14-9.35"/><path fill="#babfc4" d="M1727.66 1697.19c-1.22-6.23-2.64-12.41-3.58-18.7-.11-.72-2.13-10.32.43-9.55.21.35 4.61 24.94 5.14 27.68zm43.31 2.87c1.27-3.12 10.49-22.79 12.5-23.51.88 1.6-9.06 21.07-10.73 23.98z"/><path fill="#424e5b" d="M1729.65 1696.62c.32 2.01.26 1.82 1.12 3.56-1.5 1.4-1.83 1.35-3.91 2.18.23-1.73.5-3.45.8-5.17z"/><path fill="#babfc4" d="M1668.89 1684.92c3.9 1.6 34.21 23.07 32 27.84-2.59 1.42-6.93-6.7-8.35-6.97-.11.19-.3 1.53-.29 1.68s-.42.53-.55.51c-6.89-1.34-13.85-6.53-20.34-9.61-2.04-1.21-13.17-5.15-11.63-7.31 1.54-.29 29.41 13.8 34.46 15.68-7.57-6.65-19.49-15.06-25.3-21.82m151.09 5.01c.88.29 1.13.21 1.38.69-.03.08-29.48 18.13-32.82 20.17-1.57-.94-2.61-3.06-1.5-4.6 5.78.86 24.65-12.44 32.94-16.26"/><path fill="#969da9" d="M1741.82 1666.53c3.43 3.13 2.4 28.64 1.76 33.97-3.34-7.82-2.77-25.43-1.76-33.97m62.78 15.51c.15 4.31-13.43 14.57-19.09 23.47-1.24-7.44 13.45-19.36 19.09-23.47"/><path fill="#babfc4" d="M1689.51 1678.7c5.3 1.96 17.29 21.43 19.9 26.5-4.91-3-16.77-21.12-19.9-26.5m15.79-6.25c3.01 3.53 10.91 23.78 12.22 28.92-5-3.57-11.03-22.69-12.22-28.92m57.21 1.19c1.12 3.56-2.3 19.46-3.6 23.73-2-5.56 1.09-18.45 3.6-23.73"/><path fill="#424e5b" d="M1610.31 1696.06c45.24 1.66 71.87 5.11 104.79 40.78 6.33 6.84 12.01 14.25 16.97 22.14 3.23 5.17 3.77 11.28 9.91 12.25 8.88-3.59 15.22-18.9 21.59-26.62 29.01-35.12 70.82-48.16 114.01-48.2 12.53 19.05-9.64 17.52-21.14 18.41-27.38 2.11-57.19 14.67-76.31 34.72-40.16 42.82-29.41 83.05-31.54 134.29l3.66-4.21c-.81 16.74-.51 34.66-.49 51.51-.47 19.42.23 39.62-.17 59.4l-19.53.5q.285-30.765-.06-61.53c-.31-11.94-.32-26.45.18-38.34.22-3.05.18-6.99.24-10.11.21-.76.44-1.52.67-2.28l2.2-.25c.05-49.72 4.76-92.39-33.07-132.24-21.38-22.66-52.63-32.19-83.18-31.84-11.98.14-19.76-9.98-8.73-18.38"/><path fill="#eeeded" d="M1735.29 1878.52c.44 35.69-.27 72.07-.16 107.88l13.79-.24c0-18.66-.1-37.32-.29-55.98-.22-14.35-.92-32.2-.04-46.35l3.66-4.21c-.81 16.74-.51 34.66-.49 51.51-.47 19.42.23 39.62-.17 59.4l-19.53.5q.285-30.765-.06-61.53c-.31-11.94-.32-26.45.18-38.34.22-3.05.18-6.99.24-10.11.21-.76.44-1.52.67-2.28z"/><path fill="#424e5b" d="M1394.96 1878.83c97.24.84 194.51-1.19 291.75-.16 6.64.08 13.2.06 19.84.37 7 1.73 12.71 1.97 19.72 2.18l-1.08.14c-34.2 4.08-211.22 9.65-227.54 23.02-.47 5.02 8.11 12.87 11.58 16.71-27.99 15.38-81.92 16.36-114.38 16zm318.2-251.52c8.02-3.59 22.79-12.5 30.47-8.41 13.26 7.07 26.09 5.11 40.11 3.13 6.99-.98 18.02 10.52 23.14 15.11 24.62-.08 24.82 3.3 38.14 22.7 20.95 7.32 25.87 11.57 32.73 33.3-4.06 1.73-13.13 1.28-18.05 1.32-3.08-3.93-4.44-5.74-8.14-9.02l-16.17-3.12c-10.04-18.85-15.83-23.17-37.81-20.75-5.3-5.44-14.21-15.54-21.2-17.07-8.19 2.11-19.11 7.58-27.46 2.2-13.96-9.01-18.7-4.57-31.5 6.53-31.01-9.34-17.84-1.95-40.62 10.73-15.44 8.6-15.51-8.57-26.15 19.11l-12.72 1.28-6.15 9.5c-7.06-.13-15.58-.04-22.52-.42 4.03-18.64 9.33-27.22 28.5-30.88 9.93-19.09 10.8-22.76 32.59-23.89 18.07-16.69 19.36-15.13 42.81-11.35"/><path fill="#444951" d="M1706.55 1879.04c8.94-.28 17.72-.05 26.54-.27-.23.76-.46 1.52-.67 2.28-2.05.09-4.1.14-6.15.17-7.01-.21-12.72-.45-19.72-2.18"/><path fill="#424e5b" d="M697.725 649.451c-30.841-16.493-52.211-35.204-62.673-70.02a132.4 132.4 0 0 1-4.938-25.918c-1.432-14.731-1.543-31.667-2.212-46.686a3734 3734 0 0 1-3.565-86.596c-1.544-45.001-9.81-86.939 12.866-128.055a132.92 132.92 0 0 1 79.59-62.904c23.65-6.789 53.803-5.186 78.858-5.161l68.726.077 204.213.032 155.96-.084c46.96.001 96.97-5.838 138.95 17.955a127.78 127.78 0 0 1 61.04 78.32 134.4 134.4 0 0 1 4.49 31.781c.55 27.939-3.21 71.102-4.39 100.335l-2.82 66.611c-.61 14.189-.51 28.74-2.88 42.69a120.1 120.1 0 0 1-14.97 40.839c-9.91 17.037-33.02 44.046-53.8 46.373l-1.63.963 1.57.833c3.73 1.801 6.9 3.684 10.03 6.435 28.53 25.1 56.17 51.213 84.4 76.656 3.06 2.756 12.33 10.601 14.24 13.496l.38 6.824.3 3.849.02 2.127c-6.24 3.429-11.77 6.169-18.21 9.228l-11.27 4.202c-4.23 1.243-9.63 3.002-13.86 3.806-4.25 1.091-7.84 1.776-12.07 2.747-17.08 3.946-49.43 4.677-66.9 3.169-6.96.331-22.97-.002-28.09 1.033-2.51-1.09-2.86-1.684-4.99-3.432l-1.87 1.424c-5.99 1.443-58.09.696-68.76.671l-159.5.023c-7.34-.178-13.41-.39-20.75.944-7.34-.899-31.48.175-41.18-.164l-1.29-.066c-5.89.372-16.829.396-22.802.059-6.782-1.007-20.329-.717-27.525-.727l-46.929-.054-163.479-.068c16.957-32.671 39.882-68.84 55.775-101.455q-63.855.699-127.714.403c6.345-4.708 13.096-13.471 18.485-14.975 2.233 1.918 1.479 2.468 1.791 6.552l.8-.07c.917-.804 1.256-10.954 1.732-13.789l.092-34.005c9.619.185 19.618-.061 29.265-.163-.068 8.587-.905 33.553 1.288 40.857l.957-.151c4.029-10.018 2.525-28.721 2.321-40.292l28.322-.029c.029 8.029-.902 32.369.848 38.81l1.594.889c2.253-2.237 1.818-11.534 2.008-15.686l1.116-3.076c-2.23-8.368 2.004-17.384-1.394-24.867-.615-1.355-3.094-1.367-5.06-1.777-3.587-.007-6.541.058-10.121.253-4.766.787-45.11.995-51.044.734l-1.515.463-1.931 2.943c.354 8.629.274 16.215.105 24.864"/><path fill="#424e5b" d="M700.966 625.679c9.619.185 19.618-.061 29.265-.163-.068 8.587-.905 33.553 1.288 40.857l.957-.151c4.029-10.018 2.525-28.721 2.321-40.292l28.322-.029c.029 8.029-.902 32.369.848 38.81l1.594.889c2.253-2.237 1.818-11.534 2.008-15.686l513.831-.548c-.08 4.353-.62 13.741 2.27 16.988 2.73-6.647 1.71-31.866 1.64-40.126l28.54-.136c-.02 8.657-.67 30.233 1.75 37.649l1.49.9c3.25-4.747 2.09-30.321 2.09-38.155l28.41.227c-.22 14.119-.15 28.241.22 42.358l1.4-.011 1.48-3.619c5.25.732 17.44 12.6 22.43 16.826-39.2-.384-78.4-.457-117.61-.219l27.17 57.605c5.8 12.094 14.86 30.28 19.54 42.747-5.99 1.443-58.09.696-68.76.671l-159.5.023c-7.34-.178-13.41-.39-20.75.944-7.34-.899-31.48.175-41.18-.164l-1.29-.066c-5.89.372-16.829.396-22.802.059-6.782-1.007-20.329-.717-27.525-.727l-46.929-.054-163.479-.068c16.957-32.671 39.882-68.84 55.775-101.455q-63.855.699-127.714.403c6.345-4.708 13.096-13.471 18.485-14.975 2.233 1.918 1.479 2.468 1.791 6.552l.8-.07c.917-.804 1.256-10.954 1.732-13.789z"/><path fill="#030202" d="M1013.63 728.361c2.33-4.267 7.42-15.727 13.84-7.529 5.46 6.973 5.93-7.082 12.55-7.151 5.35-.056 6.36 7.377 10.32 9.898 2.48 1.686 4.23 3.54 6.8 5.228 3.55 1.418 10.36 16.292 13.46 20.512 3.17 4.322 6.14 8.057 5.35 14.175-2.6 6.406 2.47 14.376-1.72 18.793l-.27.807c-7.34-.178-13.41-.39-20.75.944-7.34-.899-31.48.175-41.18-.164l-1.29-.066c-5.89.372-16.829.396-22.802.059l-.606-2.259c-2.645-12.094-1.278-8.295-11.879-19.166-.657-1.161.187-3.808.46-4.561 2.724-7.517 16.285-3.131 7.222-13.916-.572-.681 4.391-9.538 6.036-10.312 2.712-1.278 5.407-7.503 8.969-8.461 3.47 1.107 11.61 2.663 15.49 3.169"/><path fill="#e84e36" d="m987.332 781.608 1.1-1.499c1.65-2.344 4.301-3.8 5.38-5.492-.283-2.558-17.246-2.434-1.133-15.051 4.219-3.303 8.931 3.289 12.161 4.568 1.71.878 5.51 5.959 7.03 7.741-1.06 4.975-2.77 7.915-1.13 11.933-5.89.372-16.829.396-22.802.059zm39.758-8.705c5.61-4.312 3.77-12.921 6.37-11.693 9.25 4.354 5.31 5.774 1.62 11.372-1.08 1.966 8.47 5.193 9.3 5.745 3.84 1.723 5.23 3.945 8.83 5.711-7.34-.899-31.48.175-41.18-.164 3.03-4.474 3.82-8.52 6.37-11.788.31-.2 1.31.304 1.47.41 2.32 1.524 3.26 1.244 5.9.725zm26.12 11.135c-.42-2.431-3.19-9.657-3.2-9.089.14-6.625 10.27-12.798 15.92-8.406 6.37 4.955 6.86 9.268 8.3 15.744l-.27.807c-7.34-.178-13.41-.39-20.75.944"/><path fill="#e84e36" d="M1019.01 748.75c.78-1.596.61-1.529 1.85-2.587.51 1.736.53 1.567 1.73 3.024 3.42 6.096 5.37 15.581 4.62 22.576l-.12 1.14-1.32.318c-7.38-7.889-30.792-6.226-12.65-15.481 1.86-3.118 4.19-5.9 5.89-8.99m12.52-19.174c7.09-14.949 10.22-17.445 18.59.502.84 2.782.99 3.3 2.23 5.957-1.04 1.122-7.64 8.554-10.68 6.187-1.1-.86.33-5.161-.48-6.726-1.43-2.753-6.91-4.557-9.66-5.92"/><path fill="#d03e33" d="M1019.01 748.75c-1.7 3.09-4.03 5.872-5.89 8.99-7.09-8.926-6.95-8.001 5.89-8.99m38.13-19.943c.58 4.897-.91 4.092-4.79 7.228-1.24-2.657-1.39-3.175-2.23-5.957zm-36.28 17.356 1.72-.945c4.88-2.828 3.4 1.023.01 3.969-1.2-1.457-1.22-1.288-1.73-3.024"/><path fill="#e84e36" d="m986.577 755.126 1.126-1.603c4.429-6.192-4.414-17.52 4.924-16.949 9.203.563 1.098-2.298 3.332-6.533 2.315-4.389 8.291 3.7 12.061.975 2.33-1.249 6.79-.384 9.34 1.461l-.81 1.798c-.61 1.232-1.01 2.217-.97 3.582-2.75 4.131-5.45 7.361-9.55 9.724-5.55 3.198-1.03 5.155-2.3 9.29-.51 1.675-4.508.25-5.225.246-3.602-.639-6.308.205-9.684 1.376-1.599-1.356-1.442-1.363-2.244-3.367m45.613-20.983c10.33 3.933-3.14 10.768 12.21 13.199-1.63-.257 6.96 2.45 6.34 2.228-.04 3.871.22 8.352.05 11.99-3.94 6.505-3.53 9.51-9.22 11.325.28-2.306 1.77-8.583.69-9.902-11.14-13.625-14.38-2.732-13.41-3.135-1.16-.428-1.37-3.031-1.06-3.849 2.43-6.529-1.42-15.834 3.01-20.375zm26.79 2.707c2.7 2.1 6.99 13.563 7.99 12.035-5.18 7.918 8.18 7.725 5.37 14.685-.47 1.164-9.3-1.397-8.79-1.282-2.36.078-9.23 1.706-10.25 1.235-.02 4.798 1.74-11.487.86-8.517 1.68-5.652-3.82-11.305-3.85-11.526.28-.478 7.94-6.105 8.67-6.63"/><path fill="#e84e36" d="M1019.53 734.362c.49-8.29-.36-20.085 8.86-5.989 3.72 5.691-3.37 10.432-7.2 12.627-7.34 7.519-5 1.579-5.61-3.143-.04-1.365.36-2.35.97-3.582l.81-1.798z"/><path fill="#d03e33" d="m1017.36 732.477 2.17 1.885c-1.48 4.337-1.7 3.865 1.66 6.638-7.34 7.519-5 1.579-5.61-3.143-.04-1.365.36-2.35.97-3.582zm-30.783 22.649c.802 2.004.645 2.011 2.244 3.367-3.833 5.645-6.648 12.488-10.111 1.488-1.208-3.838 5.184-5.024 7.867-4.855"/><path fill="#969da9" d="m698.342 673.543.8-.07c.917-.804 1.256-10.954 1.732-13.789.228 4.662.143 9.225.108 13.88 0 .002.509 6.969-1.306 6.265l-.186-.156.264-.187c-1.37-1.749-1.117-3.665-1.412-5.943m650.868-4.483-.01 1.046c.01 1.047.5 7.027-1.53 7.352-1.5-1.225-.16-6.769.14-8.387z"/><path fill="#424e5b" d="M1229.41 251.78c8.82-.754 43.17-.976 52.1.061l8.21-.196 2.29.339c10-.066 20 .536 29.92 1.8 1.39.127 1.64.122 2.99.502 9.6 2.557 18.18 5.066 27.04 9.732.9.572 1.79 1.145 2.68 1.717 8.8 4.969 19.49 11.715 26.07 19.529 1.3 1.271 2.48 2.372 3.69 3.741 17.64 21.164 22.96 35.257 22.95 62.97-.24 8.592-.22 20.646-1.26 28.924l-1.21 16.311c.09 9.415-1.02 35.21-2.44 44.678l-1.48 19.305c-.02 8.923-.33 21.132-1.66 30.03-.41 9.128-.67 18.797-1.61 27.841-1.06 11.563-.67 21.199-2.89 32.717-1.1 5.425-2.11 10.829-3.64 16.15-3.05 7.669-5.71 14.654-9.94 21.769-21.19-24.07-58.1-31.292-87.51-19.869-6.1 2.367-11.97 5.273-17.84 8.153-1.6-3.762-.98-17.825-.36-21.995.78-7.293.85-37.244.41-45.325l-1.93-.563c.03-1.832.02-3.664-.01-5.495.23-7.579.58-23.034.01-30.164-29.78-41.205-88.5-44.06-132.2-25.653 1.09-64.887.22-132.024.2-197.082 8.25-.044 17.68.139 25.82-.176l2.05.288c6.69-.057 20.53.198 26.61-.732l2.52.637c8.06-.039 21.41.288 29.02-.567z"/><path fill="#444951" d="M1275.92 510.664c31.75-41.626 97.15-27.42 103.48 30.869l.12 1.231c3.43 2.059 12.08 7.564 15.28 9.017-1.1 5.425-2.11 10.829-3.64 16.15-3.05 7.669-5.71 14.654-9.94 21.769-21.19-24.07-58.1-31.292-87.51-19.869-6.1 2.367-11.97 5.273-17.84 8.153-1.6-3.762-.98-17.825-.36-21.995.78-7.293.85-37.244.41-45.325"/><path fill="#cb8441" d="M1275.51 555.989c43.76-19.948 77.34-16.319 115.65 11.942-3.05 7.669-5.71 14.654-9.94 21.769-21.19-24.07-58.1-31.292-87.51-19.869-6.1 2.367-11.97 5.273-17.84 8.153-1.6-3.762-.98-17.825-.36-21.995m44.14-55.793c27.2-2.552 41.1 11.335 44.94 36.888-9.12-2.813-14.36-3.772-23.69-4.564-2.9-3.413-3.35-5.719-7.84-6.67l-3.19-.658c-7.48.013-9.28.192-16.5 1.108l-.73.575c-1.54 1.18-2.98 2.362-4.37 3.705l-1.1 1.02c-9.44 1.554-17.05 3.291-26.34 5.238 5.97-22.57 15.02-32.432 38.82-36.642"/><path fill="#cb8441" d="M1276.81 473.179c.02-3.438-.74-7.306 1.89-9.776 11.3-10.604 32.63-13.052 47.33-12.581 32 1.026 54.09 16.122 73.27 40.401-.41 9.128-.67 18.797-1.61 27.841-1.06 11.563-.67 21.199-2.89 32.717-3.2-1.453-11.85-6.958-15.28-9.017l-.12-1.231c-6.33-58.289-71.73-72.495-103.48-30.869l-1.93-.563c.03-1.832.02-3.664-.01-5.495.23-7.579.58-23.034.01-30.164l.13-8.743c.68-.363.71-.545 1.25-.428.9.922.82 2.482.95 3.727.15 1.395.31 2.789.49 4.181"/><path fill="#444951" d="M1276.81 473.179c.02-3.438-.74-7.306 1.89-9.776 11.3-10.604 32.63-13.052 47.33-12.581 32 1.026 54.09 16.122 73.27 40.401-.41 9.128-.67 18.797-1.61 27.841-5.27-8.408-7.28-15.994-14.66-25.454a75.96 75.96 0 0 0-50.37-28.209c-19.72-2.345-40.33 2.889-56.07 15.125.04-2.45.11-4.899.22-7.347"/><path fill="#c69160" d="M1274.12 465.699c.68-.363.71-.545 1.25-.428.9.922.82 2.482.95 3.727.15 1.395.31 2.789.49 4.181-.11 2.448-.18 4.897-.22 7.347-1.04 5.233-.69 24.003-.67 30.138l-1.93-.563c.03-1.832.02-3.664-.01-5.495.23-7.579.58-23.034.01-30.164z"/><path fill="#cb8441" d="M1275.2 339.895c33.66-24.031 79.79-26.118 114.47-2.813 6.53 4.39 11.95 9.526 17.68 14.893-.24 8.592-.22 20.646-1.26 28.924a62 62 0 0 0-7.1-8.733c-34.68-35.967-89.65-36.292-124.99-.906.09-11.173.14-20.217 1.2-31.365m-1.55 103.184c41.77-24.524 93.21-14.902 127.31 18.114-.02 8.923-.33 21.132-1.66 30.03-19.18-24.279-41.27-39.375-73.27-40.401-14.7-.471-36.03 1.977-47.33 12.581-2.63 2.47-1.87 6.338-1.89 9.776-.18-1.392-.34-2.786-.49-4.181-.13-1.245-.05-2.805-.95-3.727-.54-.117-.57.065-1.25.428-.52-7.913-.52-14.672-.47-22.62"/><path fill="#cb8441" d="M1273.45 387.116c2.83-3.134 5.85-6.097 9.04-8.872 32.87-28.712 76.03-27.778 108.01 2.003 5.12 4.765 9.77 11.55 14.38 16.963.09 9.415-1.02 35.21-2.44 44.678-3.28-11.05-3.77-20.441-9.47-31.194-16.44-31.044-52.49-46.593-84.66-28.587-20.2 11.309-28.08 24.313-34.65 46.237a885 885 0 0 1-.21-41.228"/><path fill="#75818e" d="M1229.41 251.78c8.82-.754 43.17-.976 52.1.061-6.17.708-16.04.404-22.56.387.02 18.638 1.25 188.257-.96 192.382-3.29-9.889-2.13-60.393-2.11-73.673l.56-118.672c-8.69.051-18.48.36-27.03-.485m-32.94-.693 2.52.637.1 121.375c-.01 8.927.49 48.204-1.05 53.666-2.7-5.849-2.3-14.71-2.06-21.041 1.94-50.85-2.13-103.974.49-154.637m31.54.07 1.4.623c2.42 49.87-.9 101.44.59 151.476.22 7.153.6 19.605-1.27 26.221l-.9-.762c-1.57-8.085-1.01-66.077-.63-77.275 1.04-30.863-1.31-70.616.81-100.283m-60.2.374 2.05.288c.92 36.403-.6 75.074-.14 111.745.17 13.365.85 53.71-.96 64.682-3.35-8.483-1.03-156.217-.95-176.715m121.91.114 2.29.339c.09 8.182 1.96 70.831-.76 72.175l-.3-.105c-1.6-1.824-.72-63.869-1.23-72.409m62.24 12.373c.9.572 1.79 1.145 2.68 1.717.26 5.389 1.17 52.437-.54 54.354-2.58.877-1.77-8.466-1.78-9.768-.16-15.429.21-30.882-.36-46.303"/><path fill="#969da9" d="M1321.93 253.784c1.39.127 1.64.122 2.99.502-3.32 6.68 1.52 61.469-2.03 62.605-2.26-1.698-1.13-55.779-.96-63.107"/><path fill="#75818e" d="M1380.71 285.264c1.3 1.271 2.48 2.372 3.69 3.741-.41 4.855 2 40.819-.41 41.876-1.84-.58-2.59-39.778-3.28-45.617"/><path fill="#cb8441" d="M1330.85 386.331c6.53-.61 13.31-.058 19.65 1.655 14.27 3.856 25.68 14.6 32.56 27.479 1.03 1.938 7.36 15.291 4.24 18.008-.64.331-14.63-6.474-16.62-7.677l.4.189c-5.18-9.052-6.94-12.991-16.33-18.502l-1.64-1.003c-21.01-8.535-34.16-2.989-49.19 12.595-5.49 1.44-11.07 2.735-16.59 4.079 9.15-21.533 19.31-33.11 43.52-36.823"/><path fill="#cb8441" d="M1333.04 412.155c5.33-.342 8.32-.247 13.54 1.54 2.46.792 8.67 3.715 9.79 6.097 1.1 2.322-8.5-.524-8.9-.608-2.64-.427-24.81-2.734-24.85-2.811.7-2.423 8.23-3.743 10.42-4.218"/><path fill="#424e5b" d="M697.725 649.451c-30.841-16.493-52.211-35.204-62.673-70.02a132.4 132.4 0 0 1-4.938-25.918c-1.432-14.731-1.543-31.667-2.212-46.686a3734 3734 0 0 1-3.565-86.596c-1.544-45.001-9.81-86.939 12.866-128.055a132.92 132.92 0 0 1 79.59-62.904c23.65-6.789 53.803-5.186 78.858-5.161l68.726.077 204.213.032 155.96-.084c46.96.001 96.97-5.838 138.95 17.955a127.78 127.78 0 0 1 61.04 78.32 134.4 134.4 0 0 1 4.49 31.781c.55 27.939-3.21 71.102-4.39 100.335l-2.82 66.611c-.61 14.189-.51 28.74-2.88 42.69a120.1 120.1 0 0 1-14.97 40.839c-9.91 17.037-33.02 44.046-53.8 46.373l-1.63.963 1.57.833c3.73 1.801 6.9 3.684 10.03 6.435 28.53 25.1 56.17 51.213 84.4 76.656 3.06 2.756 12.33 10.601 14.24 13.496l.38 6.824.3 3.849.02 2.127c-6.24 3.429-11.77 6.169-18.21 9.228l-11.27 4.202c-4.23 1.243-9.63 3.002-13.86 3.806-4.25 1.091-7.84 1.776-12.07 2.747-17.08 3.946-49.43 4.677-66.9 3.169-6.96.331-22.97-.002-28.09 1.033-2.51-1.09-2.86-1.684-4.99-3.432l-1.87 1.424c-4.68-12.467-13.74-30.653-19.54-42.747l-27.17-57.605c39.21-.238 78.41-.165 117.61.219-4.99-4.226-17.18-16.094-22.43-16.826l-1.48 3.619-1.4.011c-.37-14.117-.44-28.239-.22-42.358l-28.41-.227c0 7.834 1.16 33.408-2.09 38.155l-1.49-.9c-2.42-7.416-1.77-28.992-1.75-37.649l-28.54.136c.07 8.26 1.09 33.479-1.64 40.126-2.89-3.247-2.35-12.635-2.27-16.988l-513.831.548 1.116-3.076c9.71.033 19.697.219 29.371-.292l23.198-.258c4.885.156 9.182.162 14.071.081 22.162-.003 45.344.188 67.398-.211q6.52.09 13.039.034l23.583-.16 15.049-.01 39.935-.006q6.255.082 12.511-.001c21.43.435 48.09.922 69.29.379 9.98.998 23.89.383 34.03-.162l.84.095c5.74.453 21.03.629 26.87-.023l2.2-.021c2.12.074 4.8.254 6.86.178 4.04.011 8.09-.056 12.13-.2 22.88-.63 46.53.021 69.56-.294q7.095.073 14.19.054l21.68.019 9.17.44c14.08-1.096 1.74-18.297 7.6-25.811l2.75-.228c5.68.814 9.44.201 14.82.718 13.49 1.899 36.16.271 51.26 1.266 2.82-2.454 5.94-4.871 8.85-7.326 5.05-4.199 8.74-8.513 13.13-13.373 3.24-3.612 6.27-8.065 9.15-12.026 4.23-7.115 6.89-14.1 9.94-21.769 1.53-5.321 2.54-10.725 3.64-16.15 2.22-11.518 1.83-21.154 2.89-32.717.94-9.044 1.2-18.713 1.61-27.841 1.33-8.898 1.64-21.107 1.66-30.03l1.48-19.305c1.42-9.468 2.53-35.263 2.44-44.678l1.21-16.311c1.04-8.278 1.02-20.332 1.26-28.924.01-27.713-5.31-41.806-22.95-62.97-1.21-1.369-2.39-2.47-3.69-3.741-6.58-7.814-17.27-14.56-26.07-19.529-.89-.572-1.78-1.145-2.68-1.717-8.86-4.666-17.44-7.175-27.04-9.732-1.35-.38-1.6-.375-2.99-.502a225 225 0 0 0-29.92-1.8l-2.29-.339-8.21.196c-8.93-1.037-43.28-.815-52.1-.061l-1.4-.623c-7.61.855-20.96.528-29.02.567l-2.52-.637c-6.08.93-19.92.675-26.61.732l-2.05-.288c-8.14.315-17.57.132-25.82.176-5.29-1.13-22.64-.858-27.97-.085-5.24-.984-23.16-.51-28.82-.005-6.14-.919-45.43-.655-52.23-.032l-23.25.114c-7.04-.46-21.192-.893-27.787.307-5.521-1.241-65.85-.742-73.443-.163l-4.564-.027-1.813-.396c-5.768.585-17.109.383-23.284.463l-2.394-.44c-7.462.677-17.499.385-25.181.377l-2.41.06-27.248.073-2.418-.327c-7.749.598-18.122.274-26.08.248l-2.479.081-30.605-.034-2.083.164c-9.007-.091-24.745-.365-33.373 2.48-1.559.177-1.981.2-3.48.621-8.956 2.719-15.804 5.057-23.97 9.822l-2.709 1.165c-8.631 5.095-17.971 11.058-24.388 18.951-1.06 1.08-2.22 1.928-3.375 2.898-15.67 18.048-22.993 33.963-24.118 58.16-.864 11.459-.04 22.908.677 34.369l.087.99c-.345 15.404 1.276 51.884 3.583 66.641.354 5.597.935 12.146 1.058 17.668.283 6.355.94 29.18 1.989 34.209q.764 12.968 1.289 25.947c.394 7.166 1.605 22.76 3.028 29.757 1.281 4.404 2.804 10.331 4.381 14.497 2.057 5.331 6.105 15.14 9.579 19.645 2.577 4.08 4.791 7.61 7.701 11.499 4.638 5.917 9.395 10.766 15.55 15.135 3.77 3.143 3.616 3.886 8.111 5.105l-1.931 2.943c.354 8.629.274 16.215.105 24.864"/><path fill="#eeeded" d="M697.62 624.587c-15.974-5.819-30.973-26.276-37.936-41.294a127.2 127.2 0 0 1-10.111-33.956c-1.952-12.527-2.746-26.766-3.116-39.479-1.868-53.158-7.909-108.521-7.882-161.472.022-44.237 38.344-85.776 79.967-95.633 29.559-6.999 77.148-4.374 108.715-4.492l177.683-.195 195 .038c26.91.002 53.82-.075 80.75-.066 21.31.007 43.4.346 63.54 8.217 24.68 9.836 48.62 30.372 59.14 55.084a99.8 99.8 0 0 1 7.52 32.427c1.61 27.609-2.46 71.354-5.05 99.324-6.4 69.133 8.63 138.215-55.02 184.179-.02 5.786.23 16.499-.65 21.771l-1.63.963 1.57.833c3.73 1.801 6.9 3.684 10.03 6.435 28.53 25.1 56.17 51.213 84.4 76.656 3.06 2.756 12.33 10.601 14.24 13.496l.38 6.824.3 3.849.02 2.127c-6.24 3.429-11.77 6.169-18.21 9.228l-11.27 4.202c-4.23 1.243-9.63 3.002-13.86 3.806-4.25 1.091-7.84 1.776-12.07 2.747-17.08 3.946-49.43 4.677-66.9 3.169-6.96.331-22.97-.002-28.09 1.033-2.51-1.09-2.86-1.684-4.99-3.432l-1.87 1.424c-4.68-12.467-13.74-30.653-19.54-42.747l-27.17-57.605c39.21-.238 78.41-.165 117.61.219-4.99-4.226-17.18-16.094-22.43-16.826l-1.48 3.619-1.4.011c-.37-14.117-.44-28.239-.22-42.358l-28.41-.227c0 7.834 1.16 33.408-2.09 38.155l-1.49-.9c-2.42-7.416-1.77-28.992-1.75-37.649l-28.54.136c.07 8.26 1.09 33.479-1.64 40.126-2.89-3.247-2.35-12.635-2.27-16.988l-513.831.548 1.116-3.076c9.71.033 19.697.219 29.371-.292l23.198-.258c4.885.156 9.182.162 14.071.081 22.162-.003 45.344.188 67.398-.211q6.52.09 13.039.034l23.583-.16 15.049-.01 39.935-.006q6.255.082 12.511-.001c21.43.435 48.09.922 69.29.379 9.98.998 23.89.383 34.03-.162l.84.095c5.74.453 21.03.629 26.87-.023l2.2-.021c2.12.074 4.8.254 6.86.178 4.04.011 8.09-.056 12.13-.2 22.88-.63 46.53.021 69.56-.294q7.095.073 14.19.054l21.68.019 9.17.44c14.08-1.096 1.74-18.297 7.6-25.811l2.75-.228c5.68.814 9.44.201 14.82.718 13.49 1.899 36.16.271 51.26 1.266 2.82-2.454 5.94-4.871 8.85-7.326 5.05-4.199 8.74-8.513 13.13-13.373 3.24-3.612 6.27-8.065 9.15-12.026 4.23-7.115 6.89-14.1 9.94-21.769 1.53-5.321 2.54-10.725 3.64-16.15 2.22-11.518 1.83-21.154 2.89-32.717.94-9.044 1.2-18.713 1.61-27.841 1.33-8.898 1.64-21.107 1.66-30.03l1.48-19.305c1.42-9.468 2.53-35.263 2.44-44.678l1.21-16.311c1.04-8.278 1.02-20.332 1.26-28.924.01-27.713-5.31-41.806-22.95-62.97-1.21-1.369-2.39-2.47-3.69-3.741-6.58-7.814-17.27-14.56-26.07-19.529-.89-.572-1.78-1.145-2.68-1.717-8.86-4.666-17.44-7.175-27.04-9.732-1.35-.38-1.6-.375-2.99-.502a225 225 0 0 0-29.92-1.8l-2.29-.339-8.21.196c-8.93-1.037-43.28-.815-52.1-.061l-1.4-.623c-7.61.855-20.96.528-29.02.567l-2.52-.637c-6.08.93-19.92.675-26.61.732l-2.05-.288c-8.14.315-17.57.132-25.82.176-5.29-1.13-22.64-.858-27.97-.085-5.24-.984-23.16-.51-28.82-.005-6.14-.919-45.43-.655-52.23-.032l-23.25.114c-7.04-.46-21.192-.893-27.787.307-5.521-1.241-65.85-.742-73.443-.163l-4.564-.027-1.813-.396c-5.768.585-17.109.383-23.284.463l-2.394-.44c-7.462.677-17.499.385-25.181.377l-2.41.06-27.248.073-2.418-.327c-7.749.598-18.122.274-26.08.248l-2.479.081-30.605-.034-2.083.164c-9.007-.091-24.745-.365-33.373 2.48-1.559.177-1.981.2-3.48.621-8.956 2.719-15.804 5.057-23.97 9.822l-2.709 1.165c-8.631 5.095-17.971 11.058-24.388 18.951-1.06 1.08-2.22 1.928-3.375 2.898-15.67 18.048-22.993 33.963-24.118 58.16-.864 11.459-.04 22.908.677 34.369l.087.99c-.345 15.404 1.276 51.884 3.583 66.641.354 5.597.935 12.146 1.058 17.668.283 6.355.94 29.18 1.989 34.209q.764 12.968 1.289 25.947c.394 7.166 1.605 22.76 3.028 29.757 1.281 4.404 2.804 10.331 4.381 14.497 2.057 5.331 6.105 15.14 9.579 19.645 2.577 4.08 4.791 7.61 7.701 11.499 4.638 5.917 9.395 10.766 15.55 15.135 3.77 3.143 3.616 3.886 8.111 5.105z"/><path fill="#cb8441" d="M1352.25 685.142c7.66-.233 21.45-1.76 27.43 3.895 2.9 3.035 4.67 4.631 7.92 7.283 12.75 10.568 25.16 23.34 37.75 33.299 9.3 7.365 24.95 22.625 34.11 28.477l.02 2.127c-6.24 3.429-11.77 6.169-18.21 9.228l-11.27 4.202c-4.23 1.243-9.63 3.002-13.86 3.806-4.25 1.091-7.84 1.776-12.07 2.747-17.08 3.946-49.43 4.677-66.9 3.169-6.96.331-22.97-.002-28.09 1.033-2.51-1.09-2.86-1.684-4.99-3.432-.24-3.795-4.25-13.029-5.81-16.989-3.76-6.862-7.64-14.97-11.23-22.026 16.17-28.42 33.82-41.705 62.86-55.218-.17.077 3.42-2.329 2.34-1.601"/><path fill="#cb8441" d="M1309.08 784.408c1.53-2.799 3.02-8.667 4.16-12.085 7.65-22.966 23.91-40.073 46.75-48.28 4.78-1.718 13.98-5.154 18.86-5.02 1.89 2.845 1.12 4.588 1.12 8.754 2.47.996 4.91 2.059 7.31 3.188 17.24 8.011 36.08 24.455 42.72 42.688-4.23 1.243-9.63 3.002-13.86 3.806-4.25 1.091-7.84 1.776-12.07 2.747-17.08 3.946-49.43 4.677-66.9 3.169-6.96.331-22.97-.002-28.09 1.033"/><path fill="#444951" d="M1337.17 783.375a68 68 0 0 1 2.23-7.101c5.78-15.4 19.43-28.239 34.96-33.557.77-.262 5.66-3.545 4.84.28-.97 4.49 2.95 4.444 6.52 5.431 15.43 4.261 22.57 16.297 30.42 29.031-4.25 1.091-7.84 1.776-12.07 2.747-17.08 3.946-49.43 4.677-66.9 3.169"/><path fill="#cb8441" d="M1350.44 783.128c7.56-12.137 19.86-32.135 35.93-23.688 9.41 4.944 14.12 11.174 17.7 20.766-17.08 3.946-49.43 4.677-66.9 3.169 4.65-.316 8.65-.26 13.27-.247"/><path fill="#444951" d="M1298.28 763.987c16.76-34.995 40.93-57.685 80.85-59.639l.08 11.732c31.45 6.717 49.08 24.698 62.06 53.371l-11.27 4.202c-6.64-18.233-25.48-34.677-42.72-42.688a142 142 0 0 0-7.31-3.188c0-4.166.77-5.909-1.12-8.754-4.88-.134-14.08 3.302-18.86 5.02-22.84 8.207-39.1 25.314-46.75 48.28-1.14 3.418-2.63 9.286-4.16 12.085-2.51-1.09-2.86-1.684-4.99-3.432-.24-3.795-4.25-13.029-5.81-16.989m81.4-74.95c2.9 3.035 4.67 4.631 7.92 7.283-8.77 1.388-6.92 5.474-7.92-7.283m-49.94-3.821c7.16-.315 15.33-.205 22.51-.074 1.08-.728-2.51 1.678-2.34 1.601-29.04 13.513-46.69 26.798-62.86 55.218-2.76-5.367-5.07-11.1-7.62-16.568 11.31-17.771 29.35-35.062 50.31-40.177"/><path fill="#49535e" d="M1350.11 650.836c3.73 1.801 6.9 3.684 10.03 6.435 28.53 25.1 56.17 51.213 84.4 76.656 3.06 2.756 12.33 10.601 14.24 13.496l.38 6.824c-6.83-8.415-20.02-17.997-28.87-25.673l-58.37-51.163c-6.17-5.378-14.78-12.328-20.38-18.287-.92-.978-1.22-6.406-1.43-8.288"/><path fill="#cb8441" d="M1290.41 684.927c13.26.127 25.96-.17 39.33.289-20.96 5.115-39 22.406-50.31 40.177-2.55-6.258-6.13-14.23-9.19-20.261 5.99-7.163 12.8-14.457 20.17-20.205"/><path fill="#444951" d="M1260.75 684.852c9.89-.062 19.78-.037 29.66.075-7.37 5.748-14.18 13.042-20.17 20.205-3.43-6.472-6.45-13.574-9.49-20.28"/><path fill="#cb8441" d="M963.375 468.033c43.735-43.416 115.225-39.909 157.375 4.052 4.82 5.019 13.85 21.27 18.51 23.81l2.04-2.731.63-1.203c.07-6.965.09-13.93.07-20.895l-1.22-.634q-.03-10.33.12-20.657l.89-.986c43.7-18.407 102.42-15.552 132.2 25.653.57 7.13.22 22.585-.01 30.164.03 1.831.04 3.663.01 5.495l1.93.563c.44 8.081.37 38.032-.41 45.325-.62 4.17-1.24 18.233.36 21.995 5.87-2.88 11.74-5.786 17.84-8.153 29.41-11.423 66.32-4.201 87.51 19.869-2.88 3.961-5.91 8.414-9.15 12.026-4.39 4.86-8.08 9.174-13.13 13.373-2.91 2.455-6.03 4.872-8.85 7.326-15.1-.995-37.77.633-51.26-1.266-5.38-.517-9.14.096-14.82-.718l-2.75.228c-5.86 7.514 6.48 24.715-7.6 25.811l-9.17-.44c-3.55-16.557-8.81-29.977-21.58-41.659a71.9 71.9 0 0 0-51.56-18.703c-20.27.937-35.87 9.501-49.36 24.193-1.56-4.365-.9-13.635-1.07-18.951l-1.19-.396c-1.02-5.328-10.78-16.384-14.77-21.375.21-31.57 1.81-57.915-21-83.134a87.23 87.23 0 0 0-60.71-28.059c-27.83-1.308-49.505 8.499-69.62 26.879z"/><path fill="#444951" d="M1141.79 448.789c43.7-18.407 102.42-15.552 132.2 25.653.57 7.13.22 22.585-.01 30.164.03 1.831.04 3.663.01 5.495l1.93.563c.44 8.081.37 38.032-.41 45.325-.62 4.17-1.24 18.233.36 21.995.14 2.539-.4 5.735-.74 8.261l-1.06-1.403c-15.92-17.668-32.75-28.167-56.33-32.997a101.8 101.8 0 0 0-77.61 15.006c.17-19.361-2.59-44.092 12.59-57.936 35.99-32.804 94.67-12.655 94.23 39.631 8.88 5.148 13.68 8.422 22.07 14.575.42-29.8 1.15-43.471-20.47-66.697-27.63-29.673-77.31-33.455-106.62-4.463.07-6.965.09-13.93.07-20.895l-1.22-.634q-.03-10.33.12-20.657z"/><path fill="#cb8441" d="M1141.79 448.789c43.7-18.407 102.42-15.552 132.2 25.653.57 7.13.22 22.585-.01 30.164-3.14-3.013-7.83-9.232-10.81-12.703-35.05-40.843-75.72-41.095-121.17-20.837l-1.22-.634q-.03-10.33.12-20.657z"/><path fill="#8c8a8d" d="M1275.92 510.664c.44 8.081.37 38.032-.41 45.325-.62 4.17-1.24 18.233.36 21.995.14 2.539-.4 5.735-.74 8.261l-1.06-1.403c.34-24.596-.62-50.235-.08-74.741z"/><path fill="#cb8441" d="M1183.26 507.097c11.95-.597 20.43-.951 31.12 5.281 8.32 4.859 16.23 14.161 18.5 23.64l1.85 7.574c-9.87-3.092-13.5-3.919-23.49-5.658-5.95-6.729-4.11-6.187-14.15-8.333-5.52-.113-20.27-1.167-21.74 6.962-.58 3.239-1.05 3.437-4.35 4.192-7.81 1.782-14.97 4.35-22.27 7.523 3.81-22.395 10.38-35.751 34.53-41.181"/><path fill="#444951" d="M1140.92 590.92c36.71-30.837 89.13-25.467 120.47 10.845 12.49 14.469 11.83 26.95 12.27 44.715l-9.17-.44c-3.55-16.557-8.81-29.977-21.58-41.659a71.9 71.9 0 0 0-51.56-18.703c-20.27.937-35.87 9.501-49.36 24.193-1.56-4.365-.9-13.635-1.07-18.951m134.95-12.936c5.87-2.88 11.74-5.786 17.84-8.153 29.41-11.423 66.32-4.201 87.51 19.869-2.88 3.961-5.91 8.414-9.15 12.026-29.25-31.115-66.39-29.038-96.94-1.321v-14.16c.34-2.526.88-5.722.74-8.261"/><path fill="#444951" d="M1284.01 620.441c.8-.849 1.7-1.719 2.38-2.644 11.92-16.354 35.25-22.575 54.01-15.495 6.16 2.324 14.41 7.7 18.54 12.797-2.91 2.455-6.03 4.872-8.85 7.326-15.1-.995-37.77.633-51.26-1.266-5.38-.517-9.14.096-14.82-.718"/><path fill="#cb8441" d="M1298.83 621.159c15.71-9.439 37.22-13.045 51.26 1.266-15.1-.995-37.77.633-51.26-1.266M778.073 486.57c20.39-27.198 40.123-42.115 74.748-47.15a113.22 113.22 0 0 1 84.2 21.005c19.656 14.747 27.56 31.901 38.982 53.125 9.386-60.054 144.827-63.493 136.467 46.7-7.68-4.754-12.04-7.072-20.25-10.835-1.05-16.737-4.16-30.608-17.32-42.508-21.89-19.804-59.43-15.639-78.568 5.921-11.176 12.597-13.939 27.621-14.671 43.732-9.591 6.844-14.245 11.193-22.473 19.679-.229-34.37.5-64.836-26.003-91.13-17.024-16.89-42.922-27.634-66.945-27.225a90.72 90.72 0 0 0-63.372 27.831c-27.91 29.227-23.982 61.778-24.04 99.618-.771 1.623-.95 1.849-2.034 3.344-1.248 5.339-.642 10.924-1.241 16.833-15.801-12.078-20.183-23.318-46.267-24.983-22.226-1.418-37.256 6.569-53.396 20.877-2.91-3.889-5.124-7.419-7.701-11.499-3.474-4.505-7.522-14.314-9.579-19.645-1.577-4.166-3.1-10.093-4.381-14.497-1.423-6.997-2.634-22.591-3.028-29.757q-.525-12.98-1.289-25.947l1.902-3.64c10.869-20.957 30.396-33.978 53.225-39.465 25.832-6.209 49.161.154 71.463 13.756-.763 4.492-.552 9.905-.56 14.546z"/><path fill="#444951" d="M670.791 544.04c2.425-17.657 6.271-28.62 21.579-40.104a58.2 58.2 0 0 1 43.978-11.335c41.086 6.138 39.443 34.493 39.401 66.522-33.005-19.635-65.64-21.216-99.908-1.491-6.552 3.771-11.295 8.174-17.231 12.628-1.577-4.166-3.1-10.093-4.381-14.497 4.009-3.752 11.743-8.534 16.562-11.723"/><path fill="#cb8441" d="M718.941 505.162c27.752-1.831 42.914 7.051 49.964 34.347-12.609-4.373-24.509-5.547-35.983-11.078-12.227-2.255-13.482 1.739-23.93 3.516-9.781 1.664-16.681 3.123-26.245 6.52 7.781-19.567 15.211-27.793 36.194-33.305"/><path fill="#444951" d="m649.912 500.059 1.902-3.64c10.869-20.957 30.396-33.978 53.225-39.465 25.832-6.209 49.161.154 71.463 13.756-.763 4.492-.552 9.905-.56 14.546-12.509-6.914-21.843-11.888-36.068-14.755-31.094-6.268-63.25 6.962-78.989 34.887-3.646 6.47-6.009 13.918-9.684 20.618q-.525-12.98-1.289-25.947m18.277 89.846c1.783-2.008 3.195-3.43 5.246-5.199a80.12 80.12 0 0 1 57.448-18.782c17.96 1.41 34.131 9.058 45.911 22.753-1.248 5.339-.642 10.924-1.241 16.833-15.801-12.078-20.183-23.318-46.267-24.983-22.226-1.418-37.256 6.569-53.396 20.877-2.91-3.889-5.124-7.419-7.701-11.499"/><path fill="#cb8441" d="M778.566 603.041c20.23-27.55 40.383-46.109 75.844-52.111 26.274-4.446 58.998 3.236 80.278 19.362 23.975 18.168 31.674 37.79 40.764 65.141 4.439-12.023 7.574-20.496 16.921-29.661 18.777-18.407 49.317-25.408 74.087-16.284a66.68 66.68 0 0 1 37.63 35.345c3.14 7.06 4.64 13.866 6.07 21.399-10.14.545-24.05 1.16-34.03.162-21.2.543-47.86.056-69.29-.379q-6.255.083-12.511.001l-39.935.006-15.049.01-23.583.16a584 584 0 0 1-13.039-.034c-22.054.399-45.236.208-67.398.211-4.889.081-9.186.075-14.071-.081l-23.198.258c-9.674.511-19.661.325-29.371.292-2.23-8.368 2.004-17.384-1.394-24.867-.615-1.355-3.094-1.367-5.06-1.777-3.587-.007-6.541.058-10.121.253-4.766.787-45.11.995-51.044.734l-1.515.463c-4.495-1.219-4.341-1.962-8.111-5.105-6.155-4.369-10.912-9.218-15.55-15.135 16.14-14.308 31.17-22.295 53.396-20.877 26.084 1.665 30.466 12.905 46.267 24.983 1.047-.897 1.897-1.646 3.013-2.469"/><path fill="#cb8441" d="M798.056 646.546c11.526-41.114 47.986-71.053 91.588-58.255a69.33 69.33 0 0 1 41.438 34.193c3.294 6.179 7.186 16.617 8.263 23.548l-23.583.16a584 584 0 0 1-13.039-.034c-22.054.399-45.236.208-67.398.211-4.889.081-9.186.075-14.071-.081z"/><path fill="#444951" d="M821.254 646.288c7.803-39.308 68.935-50.258 88.423-14.046 2.778 5.161 3.986 8.503 6.085 13.95a584 584 0 0 1-13.039-.034c-22.054.399-45.236.208-67.398.211-4.889.081-9.186.075-14.071-.081"/><path fill="#cb8441" d="M835.325 646.369c8.532-17.247 22.273-25.68 41.679-22.374a31.64 31.64 0 0 1 21.239 13.86c1.758 2.649 3.061 5.471 4.48 8.303-22.054.399-45.236.208-67.398.211"/><path fill="#444951" d="M783.378 646.226c5.871-25.862 15.44-46.793 38.888-60.647 57.532-33.992 121.853-5.432 132.128 60.443l-15.049.01c-1.077-6.931-4.969-17.369-8.263-23.548a69.33 69.33 0 0 0-41.438-34.193c-43.602-12.798-80.062 17.141-91.588 58.255zm210.951-.21a41.1 41.1 0 0 1 18.291-26.707c23.32-15.106 54.75-12.14 70.05 12.959 2.87 4.721 4.28 9.167 6.3 14.206-4.26-.052-8.61-.231-12.84-.08-21.2.543-47.86.056-69.29-.379q-6.255.083-12.511.001"/><path fill="#cb8441" d="M1006.84 646.015c14.36-30.317 56.93-31.167 69.29.379-21.2.543-47.86.056-69.29-.379"/><path fill="#444951" d="M691.44 616.539c14.458-24.579 59.078-20.352 70.791 3.655-3.587-.007-6.541.058-10.121.253-4.766.787-45.11.995-51.044.734l-1.515.463c-4.495-1.219-4.341-1.962-8.111-5.105"/><path fill="#cb8441" d="M701.066 621.181c12.847-10.324 24.835-12.342 39.951-5.451 5.2 2.371 5.398 3.901 11.093 4.717-4.766.787-45.11.995-51.044.734m265.525-35.134a115.2 115.2 0 0 1 30.026-23.915c54.133-29.583 113.533-3.032 141.283 49.019.14 2.027.44 3.296.82 5.291l2.21-.605c.42-2.002 1-3.915 1.06-5.966 13.49-14.692 29.09-23.256 49.36-24.193a71.9 71.9 0 0 1 51.56 18.703c12.77 11.682 18.03 25.102 21.58 41.659l-21.68-.019q-7.095.02-14.19-.054c-23.03.315-46.68-.336-69.56.294-4.04.144-8.09.211-12.13.2-2.06.076-4.74-.104-6.86-.178l-2.2.021c-5.84.652-21.13.476-26.87.023l12.72-.114c-4.22-21.13-9.35-37.684-25.66-52.562-39.48-36.034-86.74-27.246-121.099 8.802-3.517-6.155-6.356-10.548-10.37-16.406"/><path fill="#444951" d="M1146.93 646.461c.32-2.161.7-4.315 1.13-6.457 7.19-35.839 76.85-50.168 94.75 6.017q-7.095.02-14.19-.054c-23.03.315-46.68-.336-69.56.294-4.04.144-8.09.211-12.13.2"/><path fill="#cb8441" d="M1159.06 646.261c12.9-35.003 63.27-29.698 69.56-.294-23.03.315-46.68-.336-69.56.294"/><path fill="#daba9f" d="M1137.87 646.304c.12-4.296-.33-22.879 1.55-25.089l.23.002c1.03 1.491.44 21.468.42 25.066z"/><path fill="#a6673b" d="m1138.72 616.442 2.21-.605c-.23 4.212-1.23 5.615-2.21.605"/><path fill="#cb8441" d="m642.518 346.182 1.078 2.013c5.298-2.143 12.408-9.792 19.241-13.723a99.69 99.69 0 0 1 89.829-5.636c7.884 3.363 17.578 8.826 24.375 14.149l-.036 28.402c-39.66-35.933-94.931-36.166-131.454 5.083-1.425 1.609-1.755 1.812-2.356 4.081-.717-11.461-1.541-22.91-.677-34.369m5.405 119.668c14.889-9.408 20.288-18.474 41.355-25.441 31.43-10.395 59.237-7.625 88.662 5.961l-.115 13.402c-.5 4.301-.374 6.613-1.323 10.938-22.302-13.602-45.631-19.965-71.463-13.756-22.829 5.487-42.356 18.508-53.225 39.465l-1.902 3.64c-1.049-5.029-1.706-27.854-1.989-34.209"/><path fill="#cb8441" d="M643.79 395.758c8.254-9.583 14.318-16.584 24.86-23.865 32.337-22.337 70.057-16.793 98.943 8.615a104.5 104.5 0 0 1 9.496 9.475c.277 13.976 1.046 30.599.76 44.365-3.774-12.298-6.708-24.61-14.988-34.801-15.978-19.667-42.595-30.342-67.39-22.7a68.4 68.4 0 0 0-40.255 34.016c-6.085 11.889-8.194 24.045-8.351 37.319-2.307-14.757-3.928-51.237-3.583-66.641z"/><path fill="#75818e" d="M908.49 251.843c7.593-.579 67.922-1.078 73.443.163-6.649.466-16.006.196-22.856.196-.132 21.865 1.825 201.931-1.442 207.215l-1.075-1.465c1.039-57.995-.49-151.457.3-205.745l-26.817.006-.154 131.095c-.034 10.08.525 48.904-1.481 56.682l.191-1.581-.79-.394c-1.515-15.211-.136-48.144-.028-64.961l.136-120.838c-6.892.082-12.545-.014-19.427-.373m176.71-.226c5.66-.505 23.58-.979 28.82.005l-.05 127.714c-.01 10.871 1.33 65.609-1.71 70.453-1.25-22.37-.42-49.185-.39-71.981l.07-125.649-24.79.023c1.58 46.15-.28 93.178.18 139.402.14 14.679.04 30.181-.94 44.764-3.34-7.191-1.34-163.179-1.19-184.731m-103.267.389c6.595-1.2 20.747-.767 27.787-.307 1.2 36.332-.17 73.718.16 110.183.18 19.85 1.6 48.598-1.35 67.141-1.68-18.464-.86-46.923-.83-66.18l.2-110.594c-8.076-.049-15.803-.073-23.868.196l-.233 115.037c.034 18.559 1.154 55.204-1.577 71.873-2.16-4.974-.319-167.83-.289-187.349"/><path fill="#75818e" d="M1032.97 251.585c6.8-.623 46.09-.887 52.23.032-6.19.898-16.53.541-23.14.506l-.11 106.746c0 21.313.47 44.896-.5 66.031l-.66-.267.36 3.255c-1.83-18.373-1.2-36.41-1.2-54.947l-.02-120.796-24.75-.039c.33 37.006.42 74.013.29 111.019.01 16.812 1.22 48.174-1.07 63.5l-.61.146c-1.78-15.114-.84-46.066-.82-62.416zm-242.351.37 2.479-.081c-.783 57.46 1.612 115.337.224 172.847-.255 10.595 1.05 24.176-1.634 34.264-2.207-4.61-1.026-186.461-1.069-207.03m28.559-.329 2.418.327c.61 19.603 1.553 175.79-1.29 183.924-3.122-5.734-.579-163.205-1.128-184.251m29.666.254 2.41-.06.113 111.908c.028 9.194 1.468 60.701-1.71 64.229-2.524-7.742-.808-155.652-.813-176.077m265.176-.258c5.33-.773 22.68-1.045 27.97.085.02 65.058.89 132.195-.2 197.082l-.89.986c-1.49-5.393-.95-49.83-.94-57.943V252.146c-8.18.041-17.93.36-25.94-.524m-237.585-.179 2.394.44c.205 18.759.732 170.435-1.651 175.775l-.813-.612c-1.257-15.879-.28-44.768-.255-61.656zm25.678-.023 1.813.396.133 117.486c0 12.899.707 48.9-1.123 59.061-1.53-7.104-.965-43.92-.969-53.781zm-181.035 3.766c1.499-.421 1.921-.444 3.48-.621-.629 9.913 1.799 57.532-.563 63.733l.087-.339-.468.195c-3.701-4.322.824-54.71-2.536-62.968m36.853-3.101 2.083-.164c.13 24.028-.005 48.06-.048 72.088-.001.975-.186 2.153-1.377 1.865-1.022-1.221-.546-66.328-.658-73.789m-60.823 12.923c-.051 6.267 1.167 50.958-.656 53.278l-.561.238c-1.551-1.2-1.238-46.45-1.492-52.351z"/><path fill="#969da9" d="M670.011 285.124c-.023 5.092.535 40.018-.926 41.682l.546-.472-.554.61c-3.859-1.511-.207-31.673-2.441-38.922 1.155-.97 2.315-1.818 3.375-2.898"/><path fill="#79726f" d="m1139.73 590.524 1.19.396c.17 5.316-.49 14.586 1.07 18.951-.06 2.051-.64 3.964-1.06 5.966l-2.21.605c-.38-1.995-.68-3.264-.82-5.291.97-7.529-.12-13.916 1.83-20.627"/><path fill="#c69160" d="M776.794 588.677c1.084-1.495 1.263-1.721 2.034-3.344-.282 5.759-.659 11.966-.262 17.708-1.116.823-1.966 1.572-3.013 2.469.599-5.909-.007-11.494 1.241-16.833"/><path fill="#8c8a8d" d="m1140.78 470.432 1.22.634c.02 6.965 0 13.93-.07 20.895l-.63 1.203c-2.13-4.647-1.68-18.04-.52-22.732"/><path fill="#9d846f" d="M777.825 459.772c.329 8.681.118 18.017.248 26.798l-2.131-1.314c.008-4.641-.203-10.054.56-14.546.949-4.325.823-6.637 1.323-10.938"/><path fill="#cb8441" d="M859.653 473.321c1.4-.225 6.041-.372 7.585-.411a76.52 76.52 0 0 1 55.893 21.536c20.462 19.964 24.689 42.878 25 70.155-7.635-5.932-16.839-11.115-25.383-15.598-1.621-30.35-16.128-50.287-47.763-54.282-42.445-.203-57.889 20.417-63.119 59.329-8.282 5.459-13.836 10.07-20.945 16.844-.429-52.036 10.887-89.12 68.732-97.573M1031 507.154c23.94-2.079 43.88 7.17 48.01 32.848l.73 4.707c-3.67-1.053-22.86-4.481-23.77-6.718-2.67-6.598-9.02-7.445-15.19-8.237-12.82 1.675-19.28 1.91-20.24 9.435-.07.535-22.251 8.066-26.52 9.922 4.766-22.522 13.17-36.829 36.98-41.957M708.627 386.31c29.544-2.332 45.892 15.892 55.426 41.457-6.359-1.615-10.673-2.355-17.166-3.346-9.099-17.161-25.404-24.096-44.185-21.205-14.728 4.089-21.829 14.401-27.626 27.562-7.083 4.329-10.003 6.428-16.405 11.72 2.211-29.854 18.973-52.004 49.956-56.188"/><path fill="#cb8441" d="M861.298 507.195c28.9-2.287 42.82 10.172 49.43 37.222l-.46-.132c-1.546-.457-24.465-5.77-23.69-4.891-4.456-5.053-2.286-6.596-10.912-8.845l-1.793-.524c-8.053-.532-21.014-1.521-23.801 8.557-.465 1.682-21.567 6.896-24.638 7.761 5.612-22.217 11.576-34.618 35.864-39.148M706.32 412.108c11.993-.769 17.367.543 26.95 8.536l1.413 1.138c-5.738.141-12.81.045-18.384.63-9.522.921-17.468 2.411-26.783 3.698 6.427-8.701 6.224-10.039 16.804-14.002"/><path fill="#424e5b" d="M589.315 762.624c40.693 28.044 95.624 24.663 142.505 24.669l93.492.035 292.608.004 168.64.303c60.15.261 119.24 7.326 173.23-23.913l.02 82.135.08 23.06-870.621.223c.532-35.503.547-71.012.046-106.516m-115.97 138.234c-.978-6.281-.705-21.429-.362-28.07l778.987.238 204.43-.124c13.94-.037 115.73-1.47 119.12 1.093.18 2.187.3 3.547.34 5.745-.27 1.53-.57 2.058-.29 3.433.01 5.86.1 11.927 0 17.766z"/><path fill="#49535e" d="m472.983 872.788 778.987.238 204.43-.124c13.94-.037 115.73-1.47 119.12 1.093.18 2.187.3 3.547.34 5.745-7.74.874-31.55.356-40.55.354l-82.33-.019-278.34.116-476.38.092-149.046-.165c-23.496-.01-51.018.85-74.004-.01-2.203-1.957-1.656-3.503-2.227-7.32"/><path fill="#eeeded" d="M473.345 900.858c-.978-6.281-.705-21.429-.362-28.07.571 3.817.024 5.363 2.227 7.32 22.986.86 50.508 0 74.004.01l149.046.165 476.38-.092 278.34-.116 82.33.019c9 .002 32.81.52 40.55-.354-.27 1.53-.57 2.058-.29 3.433l-694.671-.071-258.112.44c-47.403-.041-101.971-1.334-148.933-.053-.034 4.807.153 12.872-.509 17.369m892.815 724.962c8.35-3.38 22.06-9.92 30.71-9.77 3.03 1.29 2.87 1.42 5.11 3.37 12.76 11.13 27.53 4.88 40.71 7.7 2.97.63 13.42 10.85 16.44 13.72 25.73 1.69 18.11 6.39 32.79 22.21 11.52 3.5 17.68 6.57 24.59 17.82 1.77 2.89 4.53 10.68 4.31 14.07l-.51 2.01c7.57 4.94 3.99 17.13-4.11 16.9-55.64-1.59-107.63 29.83-120.33 86.23-6.21 27.56-3.95 56.68-3.91 84.91l.06 100.39-13.92.12.18-99.45c.17-20.91 1.52-50.16-1.12-70.52a141.7 141.7 0 0 0-9.7-35.59c-14.31-35.49-47.03-60.2-85.08-64.27-11.44-1.28-45.04 2.25-31.74-19.19.86-1.92.58-1.15.43-3.48 6.77-21.06 11.53-25.78 32.72-30.88 7.49-13.34 7.65-17.95 21.23-25.11 10.08.74 18.85 1.91 26.17-6.17 11.05-12.17 19.56-10.3 34.97-5.02"/><path fill="#424e5b" d="M1250.64 1696.48c7.59.28 14.8-.14 22.42.6 41.29 4 77.75 22.81 99.39 59.06 3.12 5.24 6.02 14.86 12.02 15.88 9.51-4.13 21.67-27.03 29.75-35.93 28.04-30.89 65.94-38.9 106.09-39.14 7.57 4.94 3.99 17.13-4.11 16.9-55.64-1.59-107.63 29.83-120.33 86.23-6.21 27.56-3.95 56.68-3.91 84.91l.06 100.39-13.92.12.18-99.45c.17-20.91 1.52-50.16-1.12-70.52a141.7 141.7 0 0 0-9.7-35.59c-14.31-35.49-47.03-60.2-85.08-64.27-11.44-1.28-45.04 2.25-31.74-19.19m115.52-70.66c8.35-3.38 22.06-9.92 30.71-9.77 3.03 1.29 2.87 1.42 5.11 3.37 12.76 11.13 27.53 4.88 40.71 7.7 2.97.63 13.42 10.85 16.44 13.72 25.73 1.69 18.11 6.39 32.79 22.21 11.52 3.5 17.68 6.57 24.59 17.82 1.77 2.89 4.53 10.68 4.31 14.07-8.21-.07-16.42-.07-24.63-.01-5.65-14.9-6.36-15.07-21.65-15.08-7.7-16.48-9.43-16.05-27.59-16.41-12.85-13.61-14.97-14.39-33.4-11.35-28.91-21.59-16.97-7.11-41.23-4.46-25.05 2.74-16.28-13.55-41.06 14-20.09-2.42-23.61.36-34.37 16.57-12.76 3.63-16.1 3.05-20.9 15.92-6.44-.03-19.21.36-24.92-1.12 6.77-21.06 11.53-25.78 32.72-30.88 7.49-13.34 7.65-17.95 21.23-25.11 10.08.74 18.85 1.91 26.17-6.17 11.05-12.17 19.56-10.3 34.97-5.02"/><path fill="#424e5b" d="M1331.29 1664.8c5.89-5.2 13.93-16.22 22.14-17.07 9.16 2.97 19.96 5.36 28.24-.17 10.92-7.29 18.77-2.07 28.15 4.84 5.02 3.71 12.89 1.18 18.76-.06 8.41 3.99 10.64 7.04 16.5 13.97 19.1-1.15 20.01-1.88 28.14 15.66 14.54-.26 16.1-.59 20.73 13.45-29.35 5.45-44.8 9.46-69.67 27.45-.31-7.41-.28-8.82-3.65-15.49 12.98-7.27 21.83-16.2 32.71-26.2-9.76 5.01-20.89 17.3-32.8 24.81-7.96-4.05-8.87-4.64-17.57-3.52-.1.7-.21 1.4-.31 2.1-4.8 2.23-6.28-2.36-11.32-3.66-6.18-1.6-8.51 2.9-14.47 3.83-15.13-8.7-25.36 4.55-22.73 17.55l.95.06c3.4-12.26 5.72-24.72 21.1-15.03 2.93 1.85 15.04-9.35 21.67.06 2.7 3.83 8.08-1.43 12.75-1.93 9.95-1.06 11.26 10.96 11.47 18.35a202 202 0 0 0-16.01 18.57c-5.61 7.38-14.2 20.99-20.83 26.21-4.77-1.07-16.64-23.11-21.81-29.61-4.73-6.03-10.14-11.5-16.12-16.31-21.47-17.27-42.02-20.8-67.89-28.39-1.77-10.41 11.96-12.01 19.66-13.82 9.52-16.12 13.44-19.72 32.21-15.65"/><path fill="#babfc4" d="M1402.66 1704.57c-1.77-5.7-1.78-5.42.13-11.51 1.62-5.16 3.55-10.26 5.41-15.35.22-.58 2.25-5.79 3.35-5.25.82 2.02-8.43 22.7-8.55 28.32l-.03 1.69c-.1.7-.21 1.4-.31 2.1m-87.98-18.66c6.31 1.31 37.22 25.78 29.83 26.06-11.12.42-22.99-11.87-33.49-17.24l-3.5-1.76c-.8-.47-3.2-1.49-2.2-2.83 3.82-1.25 25.14 14.85 29.15 17.4 2.22 1.42 6.71 3.26 9.19 4.4-3.37-3.78-5.48-5.77-8.91-9.25-4.65-4.66-9.68-8.93-15.02-12.77-2.37-1.67-2.88-2.01-5.05-4.01m149.97 5.02c1.02-.04 1.45-.22 2.24.25l.04.26c-.09.23-30.61 16.13-34.62 18.58l-2.9 1.77c-.57.03-1.19.17-1.65-.21-1.14-3.49 33.14-19.04 36.89-20.65m-113.87-20.34c4.35 2.91 12.44 24.52 13.8 29.81-4.2-3.74-12.02-23.96-13.8-29.81m-17.15 7c3.7 2 17.4 22.71 18.85 26.59-5.72-3.42-15.51-20.31-18.85-26.59m37.45-6.99c2.79 2.11 4.47 24.06 4.77 28.62-4-3.13-5.17-23.21-4.77-28.62m18.21-.94c1.39 4.26 1.28 23.51-.82 28.31-1.83-5.05-1.08-23.26.82-28.31m45.2 7.19c.47 4.09-11.77 20.35-14.56 23.82-1.3-4.54 11.15-19.67 14.56-23.82"/><path fill="#eeeded" d="M1012.38 1625.79c23-10.88 25.55-12.33 47.44 1.37 7.82-.65 16.77-1.57 24.59-1.13 8.68 4.89 10.47 7.8 16.55 15.59 20.1 2.93 20.23 4.43 31.26 21.58 16.33 6.8 25.83 11.54 28.95 30.8l-.54 2.68c3.77 2.41 5.99 6.75 4.96 11.19-2.51 10.12-19.14 6.47-26.92 7.31-41.07 4.42-76.11 24.9-93.54 63.49-10.43 23.07-12.07 41.81-11.74 67.01.55 42.02-.31 84.42.76 126.48.11 4.55-.37 10.75-4.26 13.61-4.16.38-4.19.53-8.18-.36-4.14-4.57-.33-144.15-2.03-160.9-7.7-75.92-50.459-108.83-124.133-111.56-6.814-.25-7.348-11.36-.546-17.25l-1.129-2.14c2.459-10.55 4.761-18.39 14.292-24.8 7.01-4.71 12.878-4.95 19.42-8.6 5.682-9.67 9.338-20.01 21.08-22.86 8.669-2.11 13.961-.59 22.52-2.78 16.184-14.69 20.468-16.16 41.196-8.73"/><path fill="#424e5b" d="M895.001 1695.7c9.82 1.04 19.277.53 29.216 1.91 32.366 4.51 57.839 17.89 78.703 43.13 5.63 6.8 19.27 29.36 24.29 32.02 8.4-5.82 13.26-17.61 20.11-26.35 29.66-37.79 67.31-49 113.31-49.73 3.77 2.41 5.99 6.75 4.96 11.19-2.51 10.12-19.14 6.47-26.92 7.31-41.07 4.42-76.11 24.9-93.54 63.49-10.43 23.07-12.07 41.81-11.74 67.01.55 42.02-.31 84.42.76 126.48.11 4.55-.37 10.75-4.26 13.61-4.16.38-4.19.53-8.18-.36-4.14-4.57-.33-144.15-2.03-160.9-7.7-75.92-50.459-108.83-124.133-111.56-6.814-.25-7.348-11.36-.546-17.25m117.379-69.91c23-10.88 25.55-12.33 47.44 1.37 7.82-.65 16.77-1.57 24.59-1.13 8.68 4.89 10.47 7.8 16.55 15.59 20.1 2.93 20.23 4.43 31.26 21.58 16.33 6.8 25.83 11.54 28.95 30.8-6.06.49-16.76.17-23.15.18-.12-.28-.23-.56-.35-.83l-.6-1.38c-4.35-10.1-8.87-9.17-18.89-10.44-8.27-13.8-10.58-15.92-26.52-16.81-11.23-15.99-16.26-18.24-34.77-13.88-15.94-13.05-21.28-11.96-38.78-2.61-24.475-7.84-25.721-5.96-42.66 12.35-19.825.71-23.681-1.92-35.202 16.09-12.481 4.47-16.194 4.46-21.106 17.32-8.492.03-16.784.15-25.27-.43 2.459-10.55 4.761-18.39 14.292-24.8 7.01-4.71 12.878-4.95 19.42-8.6 5.682-9.67 9.338-20.01 21.08-22.86 8.669-2.11 13.961-.59 22.52-2.78 16.184-14.69 20.468-16.16 41.196-8.73"/><path fill="#424e5b" d="M1031.88 1644.14c12.8-.59 14.83 3.07 25.62 9.76 18.52-5.66 21.47-1.73 32.27 13.2 17.17.9 18.28 1.66 26.12 16.96 6.43.01 15.88 1.03 20.08 6.59.11 6.53-12.39 6.99-17.59 8.11-39.49 8.53-68.51 32.91-87.75 67.9-1.31 2.38-3.4 2.59-5.73 2.81-4.49-6.36-8.74-14.96-13.87-22.07-25.032-34.68-50.58-46.24-91.101-53.37 7.107-11.3 9.358-11.34 22.045-15.01 11.674-17.47 13.634-15.39 34.052-15.66 20.051-15.03 12.024-22.21 42.344-12.31z"/><path fill="#eeeded" d="M1033.44 1695.05c1.06 1.6 1.53 2.53 2.42 4.25 9.28 7.51 4.61 6.38 15.87.25 7.92 4.1 14 6.86 14.16 16.95.03 1.47-.34 4-1.39 5.07l-.11-.03c-.42-.76-.69-6.26-.97-7.77-.62-6.15-11.89-13.56-17.13-8.18-7.32 7.49-9.17-9.02-21.32-3.54-3.04 1.38-3.78 4.86-5.99 5.5-1.41.41-5.84-5.8-8.39-5.63-11.036-2.09-11.861 19.76-14.042 21.06l-.304-.15c-2.501-4.46 1.907-15.08 5.146-19.41 8.54-11.38 14.26 3.16 18.97-.45 4.54-3.48 2.06-3.12 7.69-4.16.35-1.75.19-1.7 1.5-2.88 1.95-.33 2.14-.31 3.89-.88"/><path fill="#424e5b" d="M1033.44 1695.05c1.06 1.6 1.53 2.53 2.42 4.25-2.61-.18-5.21-.34-7.81-.49.35-1.75.19-1.7 1.5-2.88 1.95-.33 2.14-.31 3.89-.88"/><path fill="#babfc4" d="M957.131 1683.85c6.277 2 27.851 20.31 29.138 25.57-.323.75-.063.47-.775.84-3.835-.34-25.805-14.3-31.033-17.07l-.727-.38c-.415-.22-7.51-3.46-5.025-4.65 5.055.38 29.251 16.85 34.531 20.46-4.48-4.98-10.198-11.21-15.093-15.79-4.906-4.59-6.264-3.55-11.016-8.98"/><path fill="#eeeded" d="M1105.54 1691.89c1.39-.15 2.3-.49 3.39.2.43 1.34-1.38 1.84-2.38 2.17-12.02 3.97-22.77 8.98-32.74 16.87-.83.7-.87.86-1.9.88-.54-.4-1.05-1.14-.52-1.72 7.03-7.83 24.68-14.66 34.15-18.4"/><path fill="#babfc4" d="M1092.92 1682.13c-.82 3.97-20.02 18.93-25.25 24.55.1.41-.76-2.45-.52-2.76 3.55-4.75 21.99-19.16 25.77-21.79m-15.14-6.04c.6.35.42.13.66.52-.5 2.57-15.38 20.02-18.02 22.58-.59-.66-1.04-.93-1.1-1.71 1.12-2.47 15.89-19.09 18.46-21.39m-48.23 19.84c1.01-5.28 1.5-9.49 1.51-14.93 0-1.16.06-11.52 2.37-11.03 1.02 1.03-.37 20.39.01 25.08-1.75.57-1.94.55-3.89.88"/><path fill="#eeeded" d="M977.013 1676.95c3.57 2.7 15.319 21.11 17.613 25.54-5.176-1.72-16.554-20.91-17.613-25.54"/><path fill="#babfc4" d="M1013.1 1667.71c3.2 3.04 5 25.72 4.8 30.6-2.93-3.7-4.82-25.27-4.8-30.6m-18.107 3.06c2.409 1.87 10.957 23.79 11.817 27.39-4.52-2.85-11.072-21.59-11.817-27.39m59.197 1.93c.95 4.2-6.36 20.66-8.59 24.81l-.91 1.75c-1.12-4.38 7-22.39 9.5-26.56"/><path fill="#eeeded" d="M613.705 1636c4.632-3.32 18.007-14.5 22.052-15.33 4.026-.83 22.677 2.84 28.671 2.17 8.909-.99 16.288-4.51 24.575-5.44 10.061 3.56 13.337 9.11 22.062 12.14 4.96 1.72 16.381.97 22.376 1.24 18.36.81 21.109 16.84 31.989 27.48 11.729.85 16.076.92 25.15 10.39 5.373 5.6 11.856 18.61 14.005 25.98l-.361 1.04.319.31c8.419 7.43 5.76 16.87-3.483 17.28-46.087 2.01-84.966 14.68-108.497 57.98-20.345 37.43-15.462 80.23-15.253 123.03 3.424 3.95-1.496 33.41 2.471 34.66 2.446 9.01-.691 38.33 1.005 44.63a68 68 0 0 0-3.785 0c.12 3.5.71 6.32-1.082 9.17-3.062 2.01-8.485 1.12-12.45.93-.228-33.84-.172-67.69.167-101.52.156-57.73 3.614-119.83-54.889-153.08-24.356-13.84-43.967-12.02-69.666-16.18-7.004-4.67-4.699-10.95-1.1-16.84l.636-2.35c3.923-30.6 20.447-23.25 32.782-34.88 19.629-18.51 4.676-26.07 42.306-22.81"/><path fill="#424e5b" d="M537.981 1696.04c48.001-.04 83.058 10.56 114.044 50.26 5.564 7.13 11.179 21.24 18.741 25.36 6.151-.99 15.788-20.69 20.394-26.38 21.127-26.11 51.669-41.57 84.422-47.33 8.496-1.57 24.086-.66 28.961-1.97 8.419 7.43 5.76 16.87-3.483 17.28-46.087 2.01-84.966 14.68-108.497 57.98-20.345 37.43-15.462 80.23-15.253 123.03 3.424 3.95-1.496 33.41 2.471 34.66 2.446 9.01-.691 38.33 1.005 44.63a68 68 0 0 0-3.785 0c.12 3.5.71 6.32-1.082 9.17-3.062 2.01-8.485 1.12-12.45.93-.228-33.84-.172-67.69.167-101.52.156-57.73 3.614-119.83-54.889-153.08-24.356-13.84-43.967-12.02-69.666-16.18-7.004-4.67-4.699-10.95-1.1-16.84"/><path fill="#eeeded" d="M677.31 1894.27c3.424 3.95-1.496 33.41 2.471 34.66 2.446 9.01-.691 38.33 1.005 44.63a68 68 0 0 0-3.785 0c-.164-22.31-.798-57.62.309-79.29"/><path fill="#424e5b" d="M613.705 1636c4.632-3.32 18.007-14.5 22.052-15.33 4.026-.83 22.677 2.84 28.671 2.17 8.909-.99 16.288-4.51 24.575-5.44 10.061 3.56 13.337 9.11 22.062 12.14 4.96 1.72 16.381.97 22.376 1.24 18.36.81 21.109 16.84 31.989 27.48 11.729.85 16.076.92 25.15 10.39 5.373 5.6 11.856 18.61 14.005 25.98-5.932-.92-16.188-.49-22.563-.41-6.978-17.75-15.193-18.09-32.648-19.84-4.824-6.61-7.62-11.06-14.134-16.09-8.837-.69-18.102.35-26.939 1.16-6.034-4.93-10.432-12.97-18.402-16.09-7.781-3.04-19.126 2.69-26.607 5.81-34.033-12.01-18.395-1.66-40.559 9.77-15.464 7.98-23.234-7.12-36.719 17.8-14.283 4.5-17.152 2.62-23.599 17.14a858 858 0 0 1-23.798-.19c3.923-30.6 20.447-23.25 32.782-34.88 19.629-18.51 4.676-26.07 42.306-22.81"/><path fill="#424e5b" d="M681.672 1645.12c10.438-.62 12.324 3.03 18.453 10.68 8.513 10.62 19.125 3.85 30.326 4.8 7.761.66 13.268 10.13 17.622 15.99 13.3 1.34 27.302.93 30.288 16.68-3.21 3.52-19.352 5.28-24.957 7.26-24.867 8.75-49.754 23.53-65.462 45.11-3.872 5.32-12.944 21.2-17.197 23.13-3.315-1.25-2.531-1.27-5.11-4.52-16.075-31.49-39.659-52.16-73.394-63.86-6.068-2.11-23.855-5.62-26.6-7.14-1.262-9.37 15.185-12.41 22.276-14.12 13.523-27.03 23.252-8.12 37.142-17.83 19.761-13.82 6.042-20.03 39.403-9.26 6.159-2.74 10.787-4.83 17.21-6.92"/><path fill="#eeeded" d="M639.552 1710.45c3.097-4.06 7.441-9.57 12.46-10.94 4.405-1.02 9.102 8.35 11.995 4.19 3.616-5.25 7.709-3.79 13.047-3.75 5.916.04 4.288 3.33 8.702 6.72.409 2.68-.629 3.67-2.61 1.39-9.415-10.84-13.748-6.56-20.37 1.21-9.992-8.75-11.53-9.28-20.66 1.25-.051 5.21.052 8.99-.428 14.24-2.654-3.87-1.903-9.11-2.136-14.31"/><path fill="#babfc4" d="M685.756 1706.67c2.4-4.71 1.415-3.39 5.274-6.17 4.482-3.23 8.227-11.96 11.563-16.3.72-.93 2.356-7.05 3.881-5.69-.013 2.48-7.604 15.19-9.18 17.61-.057.09-3.085 3.91-2.506 4.6 2.303 2.75 4.85 2.74 6.985 6.42 2.265 3.9 3.26 6.98 2.053 11.5-.021.5-1.031 1.14-1.38.65-1.517-2.16.007-5.31-1.162-7.85-3.852-8.36-8.919-9.11-15.528-4.77m56.981-12.81c1.414.19 2.294.28 3.686.61 1.457-2.57-30.93 18.44-32.644 19.7-1.57.96-.737.63-2.49 1.02l.038-.6-.098-.06c.126-4.37 26.66-18.23 31.508-20.67"/><path fill="#eeeded" d="M603.578 1683.87c6.13 2.52 24.894 18.75 27.809 25.45-3.003-1.34-25.634-22.33-27.809-25.45"/><path fill="#babfc4" d="M587.82 1686c6.822 2.97 30.358 16.22 33.534 21.64l.002.24c-1.352.96-4.146-1.6-5.215-2.31-.666-.37-.84-.35-1.23-.89-9.209-5.99-18.313-12.07-27.091-18.68m33.929-11.21c3.025 2.22 15.431 23.94 18.078 28.66-6.011-2.45-16.072-22.55-18.078-28.66m105.139 10.3c.966 1.38.232 1.76-.813 2.93a570 570 0 0 1-19.151 20.06c-2.964-3.22 16.816-20.11 19.964-22.99"/><path fill="#969da9" d="M660.22 1669.62c4.615 3.49 3.712 21.26 4.624 27.88-4.236-3-3.78-21.39-4.624-27.88"/><path fill="#babfc4" d="M641.066 1670.76c2.293 1.7 8.873 23.6 9.884 27.64-4.741-3.13-9.378-22.01-9.884-27.64m42.925 2.75c1.807 3.88-3.149 22.4-4.667 27.17-2.341-7.86 2.139-18.45 4.667-27.17"/><path fill="#eeeded" d="M292.767 1624.74c28.214-11.88 22.025-11.69 46.827 2.19 19.585-1.51 28.29-4.57 40.209 13.86 22.448 4.31 20.671 3.88 33.841 22.36 18.671 7.13 24.172 12.76 29.648 32.12l-.191 1.66c10.771 17.88-11.294 17.62-22.261 18.22-50.215 2.75-93.266 36.47-103.082 86.6-5.414 27.65-3.57 57.42-3.554 85.66l-.136 98.82-13.06-.29.047-89.25c.065-34.97 3.287-78.27-8.238-110.63-14.927-41.91-46.894-65.65-90.868-70.77-7.726-1.51-20.032-.18-26.902-3.69-6.029-3.08-3.095-11.39.434-15.26l-.281-1.87c3.169-12.25 7.257-20.98 17.614-28.95 19.457-2.78 15.519-8.56 27.466-22.12 6.397-7.26 21.053-7.52 30.458-7.92 16.542-15.54 19.75-17.73 42.029-10.74"/><path fill="#424e5b" d="M175.481 1696.34c38.736-.89 65.276 4.6 97.35 30.7 13.995 11.4 22.787 32.37 33.04 44.25 6.467-3.16 17.229-20.01 22.406-26.5 27.123-34 71.778-51.94 114.824-47.86 10.771 17.88-11.294 17.62-22.261 18.22-50.215 2.75-93.266 36.47-103.082 86.6-5.414 27.65-3.57 57.42-3.554 85.66l-.136 98.82-13.06-.29.047-89.25c.065-34.97 3.287-78.27-8.238-110.63-14.927-41.91-46.894-65.65-90.868-70.77-7.726-1.51-20.032-.18-26.902-3.69-6.029-3.08-3.095-11.39.434-15.26"/><path fill="#424e5b" d="M292.767 1624.74c28.214-11.88 22.025-11.69 46.827 2.19 19.585-1.51 28.29-4.57 40.209 13.86 22.448 4.31 20.671 3.88 33.841 22.36 18.671 7.13 24.172 12.76 29.648 32.12-8.956-2.5-21.295 1.39-27.119-5.47-5.853-6.89-8.359-6.45-16.772-7.16-7.708-15.47-9.852-15.88-26.823-16.86-19.386-23.92-11.82-10.49-39.538-17-5.29-1.24-8.417-6.75-11.155-7.76-5.913-2.19-20.379 4.77-25.822 7.1-21.952-6.78-24.151-4.94-39.523 11.71-20.265.34-24.078-.68-34.833 17.11-6.732 2.49-10.678 3.76-16.808 7.51-1.597 2.79-3.231 6.26-4.7 9.17-8.345-.48-16.745-.62-24.999.85 3.169-12.25 7.257-20.98 17.614-28.95 19.457-2.78 15.519-8.56 27.466-22.12 6.397-7.26 21.053-7.52 30.458-7.92 16.542-15.54 19.75-17.73 42.029-10.74"/><path fill="#424e5b" d="M296.711 1650.96c13.55-6.12 21.629-12.01 31.095-1.77 4.911 5.32 20.267 4.89 26.99 3.58 4.493-.88 13.092 11.61 15.764 15.04 18.032.64 19.362 1.34 26.963 17.56 5.369-.03 16.927.29 18.936 6.49-4.294 5.65-21.649 6.21-29.784 9.31-15.669 5.98-25.814 12.08-39.387 21.03-1.07.92-1.787 1.42-2.945 2.24-7.028 5.32-10.291 9.87-15.925 15.96-4.533 4.89-16.852 25.5-21.499 26.57-6.348-3.9-13.145-18-17.908-24.96-18.135-26.47-47.13-40.65-77.914-46.7-2.757-.55-3.751-.76-6.463-1.57-1.543-3.01-1.295-1.41-.311-5.02 5.505-6.02 11.597-7.43 19.234-9.97l7.007-11.52c10.986-5.68 13.368-4.51 26.158-4.49 18.76-14.39 12.195-20.36 39.989-11.78"/><path fill="#eeeded" d="M301.78 1703.53c16.702-11.85 20.353 1.73 22.976-.05 13.312-9.07 18.46 2.03 19.512 14.6l-1.085 2.7c-1.391-5.47-.908-10.58-4.49-15.34-7.789-9.37-13.423 6.52-16.635 1.67-6.977-10.55-14.722-6.3-19.533 1.34.614-.06-19.404-19.09-22.85 9.56-.166 1.37-1.094 6.49-2.503 3.03-1.283-3.16 3.208-14.33 4.364-17.46 3.442-2.26 4.448-2.82 8.262-4.33l.889-.46c4.584 1.47 6.719 2.61 11.093 4.74"/><path fill="#969da9" d="M289.798 1699.25c-4.394-3.89-16.785-26.36-12.281-27.79.53.25 8.261 21.98 13.17 27.33z"/><path fill="#49535e" d="M344.268 1718.08c1.233 2.29 1.207 2.26 3.02 4.12-1.07.92-1.787 1.42-2.945 2.24l-1.16-3.66z"/><path fill="#babfc4" d="M387.928 1688.97c2.7 2.68-2.413 4.02-5.047 5.11-13.063 5.4-21.662 11.71-32.727 19.96-3.444-5.43 32.04-22.15 37.774-25.07m-147.393-4.19c3.712 1.47 27.624 21.25 29.626 25.09-5.555-1.36-25.472-20.2-29.626-25.09m130.251-1.96c.086.09 1.249 1.11 1.111 1.31-3.874 5.52-19.755 18.2-23.875 22.71-3.058-3.01 18.838-20.27 22.764-24.02m-13.473-7.99c.798 3.38-12.597 22-15.496 25.28-1.058-4.86 11.841-21.72 15.496-25.28m-63.411-6.43c3.763 2.52 5.485 24.24 6.023 29.85-2.684-2.45-2.765-4.67-3.225-8.12a195 195 0 0 1-2.798-21.73m18.406-1.74c3.801 3.16.998 24.29.362 29.8-3.211-2.57-.698-24.39-.362-29.8m-54.664 9.11c3.949 2.63 15.397 21.74 17.049 26.48-5.146-2.88-14.846-21.06-17.049-26.48m76.638-6.12c1.684 5.47-5.651 22.32-9.173 27.14-.768-2.71 7.642-23.98 9.173-27.14m-87.31 28.84c3.164 2.04 16.456 11.27 17.795 14.14-.061.93.084.71-.187.96-1.136.06-16.009-11.29-18.344-13.01zm-.736 2.09-1.194-.72c-2.761-1.62-16.466-10.34-16.333-9.29-.622-4.88 8.779 1.59 18.263 7.92z"/><path fill="#424e5b" d="M484.089 1104.98c-1.048-2.55-.373-21.02.191-24.88.876 7.17.585 14.26.499 21.49 8.794.22 52.542 2.44 57.734-1.28.055-.04.089-.1.134-.15l.152 2.28c4.068 2.91 31.492 2.73 35.285.74 7.191-1.83 51.544-1.38 58.718-.34l-.711 2.19 126.195-.31c1.914-1.8 14.918-1.13 18.741-1.22l1.018-1.21c6.152-1.68 51.751-1.81 56.98.04l.938 1.09c15.132.45 30.908.18 46.096.13l.913-1.28c5.666-2.25 48.764-1.21 57.591-.87l.264 1.83c2.664.48 4.133.76 6.785 1.51 69.528.34 144.428 1.54 213.668-.05 5.08-3.7 31.59 1.77 36.86-2.58 12.52-2.39 42.49 1.23 56.21-.96l1.28-1.9c.43 1.43.73 2.75.97 4.24 5.81.16 45.16.94 48.45-.83l.21-.38c6.85-1.9 50.45-1.37 57.61-.19 3.47 2.76 41.15 1.85 47.08 1.23l1.28-1.26c6.6-.85 52.84-1.11 57.71.32 1.99 1.98 29.11 1.68 32.03.39 6.68-1.1 52.19-1.15 58.4.07 2.71 1.07 3.4 1.33 6.23 1.94.55.2 1.48.9 2.01 1.26.97 5.91.46 13.93.3 20.11l-1096.286.11c-.29-6.42-1.765-14.12.197-19.33 3.154-2.71 2.893-1.78 8.268-1.95"/><path fill="#eeeded" d="M1259.63 1099.25c.43 1.43.73 2.75.97 4.24 5.81.16 45.16.94 48.45-.83l.21-.38c6.85-1.9 50.45-1.37 57.61-.19 3.47 2.76 41.15 1.85 47.08 1.23l1.28-1.26c6.6-.85 52.84-1.11 57.71.32 1.99 1.98 29.11 1.68 32.03.39 6.68-1.1 52.19-1.15 58.4.07 2.71 1.07 3.4 1.33 6.23 1.94-19.4.91-44.76.17-64.41 0-23.73-.13-47.45-.09-71.18.14l-268.73-.23c5.08-3.7 31.59 1.77 36.86-2.58 12.52-2.39 42.49 1.23 56.21-.96zm-315.067 2.15.264 1.83c2.664.48 4.133.76 6.785 1.51-25.221.53-52.29.05-77.638.07-37.229.17-74.459.13-111.688-.09 1.914-1.8 14.918-1.13 18.741-1.22l1.018-1.21c6.152-1.68 51.751-1.81 56.98.04l.938 1.09c15.132.45 30.908.18 46.096.13l.913-1.28c5.666-2.25 48.764-1.21 57.591-.87m-460.474 3.58c-1.048-2.55-.373-21.02.191-24.88.876 7.17.585 14.26.499 21.49 8.794.22 52.542 2.44 57.734-1.28.055-.04.089-.1.134-.15l.152 2.28c4.068 2.91 31.492 2.73 35.285.74 7.191-1.83 51.544-1.38 58.718-.34l-.711 2.19z"/><path fill="#424e5b" d="M592.981 1240.84a97.6 97.6 0 0 0-7.845-36.38c-14.536-34.52-46.622-56.77-83.746-61.88-7.99-1.1-21.442.79-24.593-7.39.877-4.03-.091-2.62 2.171-5.22 5.823-1.32 62.011-.84 72.496-.86l195.613-.05 822.443-.02c.04 3.83.42 6.78-.98 10.31-3.57 2.2-8.29 1.54-13.16 1.77l-.53 1.08c-2.34 3.03-12.31 4.77-16.1 5.29-38.95 13.92-66.86 44.91-70.87 87-.81 8.48-2.06 6.08-9.96 7.18-6.56.88-16.81 1.21-23.3.11-3.12-10.36-.93-90.36-.94-106.51l-823.553.22c-.274 35.11-.201 70.21.221 105.32z"/><path fill="#49535e" d="m1538.35 1146.06.4 1.43c-38.95 13.92-66.86 44.91-70.87 87-.81 8.48-2.06 6.08-9.96 7.18.3-6.15 1.57-13.15 2.86-19.19a99 99 0 0 1 14.7-34.54c13.9-20.62 38.32-37.11 62.87-41.88"/><path fill="#eeeded" d="M1455.29 1241.03c2.52-27.8 9.64-49.32 29.87-69.72 17.16-17.32 45.62-30.32 70.22-30.19l-.53 1.08c-2.34 3.03-12.31 4.77-16.1 5.29l-.4-1.43c-24.55 4.77-48.97 21.26-62.87 41.88a99 99 0 0 0-14.7 34.54c-1.29 6.04-2.56 13.04-2.86 19.19-6.56.88-16.81 1.21-23.3.11 5.21-.75 15.04-.66 20.67-.75"/><path fill="#8c8a8d" d="M1538.35 1146.06c5.61-1.87 10.92-2.52 16.5-3.86-2.34 3.03-12.31 4.77-16.1 5.29z"/><path fill="#424e5b" d="M1308.8 905.362c16.32-1.239 42.56-.375 59.52-.337l.28 13.654c-8.73 3.071-9.04 3.852-15.35 10.872-6.61 7.365-10.76 37.63-6.94 45.897a2.614 2.614 0 0 0 .31 3.378c-1.55 8.939-.33 44.224 1.98 53.024 4.23 16.1 12.37 11.67.05 33.22 22.75 7.24 19.03 15.76 18.22 37.02-7.16-1.18-50.76-1.71-57.61.19-.25-8.27-.14-17.2-.2-25.53 5.82-6.92 8.71-8.74 16.4-12.7-9.46-24.73 3.89-20.61 4.66-47.1l-3.05.77c-2.5 1.39-75.89.41-85.45.44-.62-7.08-2.04-29.942.14-35.623 2.39-.602 2.38-.451 4.28-1.946.87-10.331-4.03-6.611-4.43-9.859-2.55-20.467-2.89-43.31 21.17-48.851l.11-16.691c10.41.127 33.97.852 43.41-.37z"/><path fill="#424e5b" d="M1308.8 905.362c16.32-1.239 42.56-.375 59.52-.337l.28 13.654c-8.73 3.071-9.04 3.852-15.35 10.872-6.61 7.365-10.76 37.63-6.94 45.897a2.614 2.614 0 0 0 .31 3.378c-1.55 8.939-.33 44.224 1.98 53.024 4.23 16.1 12.37 11.67.05 33.22 22.75 7.24 19.03 15.76 18.22 37.02-7.16-1.18-50.76-1.71-57.61.19-.25-8.27-.14-17.2-.2-25.53 5.82-6.92 8.71-8.74 16.4-12.7-9.46-24.73 3.89-20.61 4.66-47.1.86-8.82 1.92-27.39.63-36.359-.31-2.096-2.17.163-4.7-3.197l.64-1.867 3.51-.732c3.68-7.883 1.43-41.659-6.99-48.072-10.76-8.202-14.69-5.93-14.41-21.361"/><path fill="#eeeded" d="m1306.3 904.82 2.5.542c-.28 15.431 3.65 13.159 14.41 21.361 8.42 6.413 10.67 40.189 6.99 48.072l-3.51.732-.64 1.867c2.53 3.36 4.39 1.101 4.7 3.197 1.29 8.969.23 27.539-.63 36.359l-3.05.77c.01-10.43 2.46-25.358.13-34.87-2.23-1.443-2.23-1.324-3.83-3.401-1.57-11.015 4.13-4.707 4.46-9.923 1.43-22.142 3.11-41.216-21.75-48.879-.12-5.347.06-10.491.22-15.827"/><path fill="#cb8441" d="M783.755 684.606c6.056-.371 11.949-.262 18.002-.283-1.811 3.175-3.828 7.132-6.191 9.816-2.244 4.045-4.721 8.462-7.108 12.404l-.835 1.679c-2.828 5.93-6.945 13.948-10.29 19.573a324 324 0 0 0-8.034 14.349c-3.222 5.397-7.054 12.249-10.437 17.395l-11.055 19.93c-1.555 2.23-1.982 3.623-5.249 3.991-6.714.756-20.927.931-27.491-.026l-.751-.283c-6.129.885-18.422.536-24.793-.006-7.224.157-14.452.016-21.664-.424-5.797-1.108-15.675-2.365-21.859-3.264a264 264 0 0 1-12.166-2.739l-12.699-3.172-11.889-4.594c-7.068-3.601-10.612-5.269-17.223-9.74 18.839-15.211 36.412-31.918 54.136-48.397 3.494-3.249 6.923-6.548 10.795-9.349 5.187-4.678 9.623-8.607 14.815-13.435 4.291-4.944 17.821-3.111 23.938-2.899q19.78-.343 39.56-.064c7.116-.191 20.339-.492 27.309-.178 6.921-.161 14.42.111 21.179-.284"/><path fill="#444951" d="M633.834 776.718c4.352-13.228 21.693-27.661 35.226-30.735 3.411-.19.852-5.187 2.401-6.292 1.67-1.192 9.629-.069 11.554.292 24.536 4.589 38.022 21.069 45.411 43.269-4.402.074-9.018-.002-13.359.182l-.751-.283c-6.129.885-18.422.536-24.793-.006-7.224.157-14.452.016-21.664-.424-5.797-1.108-15.675-2.365-21.859-3.264a264 264 0 0 1-12.166-2.739"/><path fill="#cb8441" d="M646 779.457c3.616-5.558 9.698-14.51 15.759-16.792 16.169-6.089 8.388-3.875 10.547-8.436 1.38-.946 9.754.304 11.693.782 15.891 3.921 24.436 13.754 30.317 28.14-6.129.885-18.422.536-24.793-.006-7.224.157-14.452.016-21.664-.424-5.797-1.108-15.675-2.365-21.859-3.264"/><path fill="#444951" d="M667.859 782.721c6.637-7.563 14.637-5.143 21.664.424-7.224.157-14.452.016-21.664-.424"/><path fill="#cb8441" d="m670.994 727.838.621-10.494c39.328 5.37 66.478 20.802 76.192 62.125-1.555 2.23-1.982 3.623-5.249 3.991-6.714.756-20.927.931-27.491-.026 4.341-.184 8.957-.108 13.359-.182-7.389-22.2-20.875-38.68-45.411-43.269-1.925-.361-9.884-1.484-11.554-.292-1.549 1.105 1.01 6.102-2.401 6.292-13.533 3.074-30.874 17.507-35.226 30.735l-12.699-3.172c9.064-23.587 27.989-35.609 49.859-45.708"/><path fill="#444951" d="M671.417 703.417c49.032 3.994 61.729 16.752 87.445 56.122l-11.055 19.93c-9.714-41.323-36.864-56.755-76.192-62.125l-.621 10.494c-21.87 10.099-40.795 22.121-49.859 45.708l-11.889-4.594a41.5 41.5 0 0 1 3.314-9.099c11.775-23.495 34.306-37.731 58.56-45.805z"/><path fill="#cb8441" d="M783.755 684.606c6.056-.371 11.949-.262 18.002-.283-1.811 3.175-3.828 7.132-6.191 9.816-2.244 4.045-4.721 8.462-7.108 12.404l-.835 1.679c-2.828 5.93-6.945 13.948-10.29 19.573-7.35-15.178-21.492-31.16-36.453-39.246-2.466-1.333-3.316-1.704-5.613-3.481 7.116-.191 20.339-.492 27.309-.178 6.921-.161 14.42.111 21.179-.284"/><path fill="#444951" d="M783.755 684.606c6.056-.371 11.949-.262 18.002-.283-1.811 3.175-3.828 7.132-6.191 9.816-2.244 4.045-4.721 8.462-7.108 12.404-6.306-4.022-18.069-15.76-25.882-21.653 6.921-.161 14.42.111 21.179-.284"/><path fill="#a6673b" d="M783.755 684.606c6.056-.371 11.949-.262 18.002-.283-1.811 3.175-3.828 7.132-6.191 9.816-5.977-2.273-7.618-4.333-11.811-9.533"/><path fill="#444951" d="M695.707 685.132q19.78-.343 39.56-.064c2.297 1.777 3.147 2.148 5.613 3.481 14.961 8.086 29.103 24.068 36.453 39.246a324 324 0 0 0-8.034 14.349c-2.63-4.284-4.348-8.545-7.121-13.13-13.157-21.754-36.631-36.464-61.212-41.766-2.852-.615-2.899-.643-5.259-2.116m-23.938 2.899c.32 5.416-.532 7.368-1.236 12.827-6.53.809-6.651 1.059-13.579.608 5.187-4.678 9.623-8.607 14.815-13.435"/><path fill="#424e5b" d="M1009.55 111.38c26.69-4.519 64.29 5.196 85.96 21.383 32.09 23.969 45.53 49.154 52.04 87.417l-35.14-.217c-6.77-42.623-35.71-66.576-77.18-73.738-52.746-5.563-90.252 22.817-102.02 73.782a3204 3204 0 0 1-35.346-.209c8.861-60.913 50.584-100.944 111.686-108.418m-60.333 793.68 39.421.131.06 16.278c23.482 3.918 24.692 30.797 21.432 49.834a65 65 0 0 0-3.65 2.895c-1.19 5.742-1.41 5.513 3.59 8.334 2.33 4.513.01 29.188-.35 36.458l-21.47-.11c-20.056-.49-41.089-.04-61.22.11-.206-9.13-1.301-28.039-.178-35.749 4.437-3.124 4.405-2.731 5.22-7.801-2.9-7.066-1.312.148-5.307-5.009-1.566-20.767-2.77-43.872 22.015-48.596zm104.853-.015 40.58.12.16 16.426c4.83 1.106 8.75 2.021 12.55 5.606 11.42 10.777 9.59 28.982 7.98 43.189 0 .004-3.71 3.933-4 4.238-.86 5.298-.85 5.44 3.47 7.724 2.94 4.484.66 29.672.32 37.062l-21.39-.37c-20.22-.32-40.44-.32-60.67-.01.05-7.47-2.11-28.729-.07-36.419.15-.568 1.67.404 3.98-2.69.26-2.953.7-4.431-.59-7.09l-3.33-.783c-3.02-9.552-2.14-28.439 2.9-37.124 5.4-9.311 8.62-10.857 18.2-13.474zm-209.42.013 39.379.107-.015 15.754c24.551 4.719 23.531 31.501 21.052 51.416a28 28 0 0 1-3.543 1.476c-1.063 3.026-.709 3.36-.078 6.482 1.294 1.265 2.39 2.054 3.949 2.971.886 8.687-.872 26.006-1.565 35.596l-20.579-.47c-19.9-.57-41.118-.24-61.115-.27-.195-8.77-1.136-27.669.444-35.333l3.345-1.769c1.816-3.492 1.176-1.606.994-6.232-1.298-2.168-2.218-2.53-4.39-3.781-3.729-26.904-1.753-38.095 21.832-51.894.313-4.416.237-9.566.29-14.053m314.36-.007 38.35.083-.18 17.005q1.035.202 2.07.441c21.26 4.98 23.68 31.124 19.74 48.867-2.6 1.099-2.6.89-4.22 3.144-.83 6.21-.96 5.805 4.02 8.632 2.36 6.197-.19 28.547-1.13 35.767l-22.44-.21-57.09-.36c-.52-6.24-3.48-31.492-.67-35.742 2.46-.402 2.61-.219 4.62-1.601.6-6.352.57-6.278-4.23-9.631-3.25-11.908-1.36-32.427 6.6-42.233 4.53-5.59 7.64-5.94 14.52-6.613zm-419.16-.034 39.04-.005q.013 7.919.163 15.836c8.297 2.959 11.948 4.543 17.04 12.167 6.09 9.116 6.458 27.938 3.858 38.376-2.459.61-2.5.391-4.091 2.288-.374 3.383-.673 3.713.551 6.943 2.308 1.201 1.968.938 4.028 2.557 1.338 8.19-.461 26.261-1.079 35.411l-18.61-.26-61.64-.18c-.134-9.01-.796-26.82.036-35.082 1.97-1.333 1.881-1.359 3.346-3.269 1.132-10.139-3.69-5-4.102-11.266-1.232-18.711-1.79-42.475 20.906-46.74zm631.37.039 40.02.065-.13 20.05c32.73 9.348 25.41 39.428 10.38 61.4-6.79 9.939-13.52 15.269-23.55 21.629-15.36 7.9-31.43 8.51-48.35 8.88-.25-6.41-1.58-27.088.13-34.253-.2.819 2.6-1.177 4.07-3.455.22-3.27.61-3.881-1.06-6.665-2.67-1.295-2.16-.615-3.89-2.673-1.76-20.336-1.81-42.951 22.2-48.41zm-732.003-.044 35.044.138c-.027 5.368.22 11.19.354 16.597 23.989 5.581 25.108 29.428 21.6 49.933-2.27.902-2.166.784-3.9 2.484-1.205 6.449-.876 6.394 4.306 9.444.878 8.811-.341 23.832-.513 33.492l-21.952-.2c-20.767-1.26-37.492-5.47-50.873-23.411-1.829-2.451-4.363-6.43-3.878-9.547 8.186-10.964-1.242-9.039-1.639-13.489-1.9-21.3-2.028-40.25 21.263-46.979zm865.973-.081 56.72.091.04 16.383c-18.46 9.572-21.61 34.691-18.27 53.364 2.5 1.489 1.46 1.048 4.51 1.354 1.35 2.765 1.04 1.254.24 4.769-1.85.875-2.66 1.207-4.61 1.846-1.08 5.671-.37 13.552-.27 19.422.14 8.38-.17 18.19 1.84 26.28 3.99 16 10.16 23.44 1.54 39.64 19.33 10.75 17.64 13.07 16.44 34.76-6.21-1.22-51.72-1.17-58.4-.07-.33-19.48-1.61-24.77 16.93-34.06-1.51-5.97-3.16-12.07-4.3-18.1l4.02-8.17c7-13.9 7.31-44.68 6.04-60.612-4.34-1.922-1.86 3.751-4.64-1.674l.15-3.019c2.35-.961 1.46-.723 4.03-.833 5.62-20.376-2.14-44.806-21.41-55.346z"/><path fill="#424e5b" d="m1413.99 905.008 58.76-.058.16 15.7c-20.67 8.152-23.52 32.239-20.53 53.777l.39.823 3.88 1.237c.6 2.857.72 1.481-.52 4.251l-3.63 1.59c-1.89 8.432-.34 38.252 2.09 47.142 4.65 17 9.93 19.12 1.83 36.95 8.33 2.06 10.39 3.99 16.35 9.99.24 8.66.3 17.32.17 25.97-4.87-1.43-51.11-1.17-57.71-.32-.82-20.4-4.03-27.77 17.05-36.43-2.83-7.19-3.36-10.17-4.87-17.81 10.11-22.02 11.6-42.14 9.44-66.419-2.34-1.841-1.32-1.259-4.42-1.898l-.47-1.99c.9-1.085 4.49-2.92 4.39-2.173 3.05-22.78 2.73-44.457-22.02-53.127zm-927.62-.156 56.432.081-.02 15.224c-18.346 8.397-26.621 36.695-20.289 54.178l4.086 1.161c.66 2.93.674 1.451-.456 4.557-2.319 1.31-5.053 2.193-5.023 4.993.087 7.951.261 40.314 2.389 46.114 5.761 15.69 11.241 15.13 2.047 34.59 8.766 3.79 10.895 4.34 17.341 11.66.023 7.35.222 15.5-.23 22.75-.045.05-.079.11-.134.15-5.192 3.72-48.94 1.5-57.734 1.28.086-7.23.377-14.32-.499-21.49 3.395-9.19 9.121-10.53 17.64-13.74-2.577-6.98-3.506-9.92-5.009-17.18 1.494-5.63 4.377-10.82 6.021-17.21 4.05-15.73 3.242-32.931 3.295-49.176-4.016-2.093-9.019-5.706-1.65-8.692l1.578-.692c-.106-21.613 3.552-41.987-19.437-52.397z"/><path fill="#49535e" d="M506.227 982.794c-4.016-2.093-9.019-5.706-1.65-8.692l1.578-.692c.194 2.816.357 5.336.151 8.164zm71.159-77.997 59.45.163.087 15.486-.969.345-1.605.6c-23.984 8.8-21.935 34.263-20.951 55.681 9.241.268 6.876 3.324-.12 4.137-.689 12.922 1.604 37.941 3.317 51.391.39 3.06 6.36 10.98 6.675 15.31.534 7.34-2.108 13.69-4.813 20.31 22.428 6.79 15.517 17.12 18.345 34.62-7.174-1.04-51.527-1.49-58.718.34l.01-22.47c5.856-6.78 7.968-9.01 16.596-12.51-3.071-7.11-4.37-11.51-5.68-19.03 8.97-18.61 12.744-46.69 9.35-66.412-2.075-.456-2.697-.627-4.678-1.384-.983-3.516-1.12-1.909-.189-4.987 2.711-.397 1.868-.109 4.357-1.24 4.43-19.852 2.706-47.243-20.466-53.729z"/><path fill="#49535e" d="M613.398 977.072c9.241.268 6.876 3.324-.12 4.137.137-1.727.177-2.404.12-4.137"/><path fill="#424e5b" d="m1199.96 905.012 59.97.026.02 13.737c-24.4 7.369-24.54 34.379-21.46 55.612-.15-1.006 4.2 1.58 4.77 2.138l-.41 1.905-2.43 1.206-2.43 1.384c-.91 13.192-.67 35.71 1.66 48.14 1.71 9.1 5.87 13.28 6.16 20.67.13 3.23-3.41 13.37-4.14 15.61 21.96 8.75 16.2 13.59 17.96 33.81l-1.28 1.9c-13.72 2.19-43.69-1.43-56.21.96-.51-8.37-.87-16.74-1.1-25.12 6.23-7.64 8.8-8.53 17.51-12.63-7.34-17.14-3.61-18.41.58-35.84 2.42-10.04 5.61-37.339 3.16-47.112-1.93-1.287-3.15-2.143-4.96-3.595l.31-1.952c2.27-.763 2.56-.855 4.62-2.047 2.41-9.987 1.81-29.484-2.73-38.802-5.02-10.285-9.72-12.165-19.43-15.524zm-208.112-.116 59.442.095-.1 13.652c-9.27 3.753-11.36 4.781-17.35 13.888-5.75 8.735-6.96 32.143-4.12 41.829 2.48.699 2.02.498 4.38 1.672l-.16 1.678-3.92 2.147c-2.95 10.499-.79 47.573 4.58 58.673l4.3 9.03c-2.22 7.55-3.08 9.92-6.59 16.93 9.21 3 11.89 4.62 17.61 12.36l-.29 23.8c-2.17 1.81-50.466.55-56.581.38l-.41-26.07c6.173-5.65 9.221-6.79 16.761-9.74-1.67-6.11-3.51-12.32-5.26-18.43 1.58-2.91 5.56-10.6 6.43-13.61 3.19-11.01 4.51-42.352 2.98-53.027-1.64-1.255-3.31-1.768-5.24-2.434l.24-1.253c1.96-.898 3.07-1.449 4.93-2.536 2.23-9.735 1.15-32.422-3.77-41.391-5-9.116-8.6-10.886-17.76-13.658zm-210.172-.006 59.932.072-.104 12.874c-26.179 11.23-22.133 32.585-22.143 56.672a2.782 2.782 0 1 1 .035 4.334c-.406 12.355-1.289 38.938 1.616 50.048 5.232 20 10.732 13.52 1.124 36.7 22.207 8.05 17.096 15 16.889 36.74-5.229-1.85-50.828-1.72-56.98-.04-.992-19.93-4.951-29.11 16.129-36.92-1.912-5.78-3.246-11.36-4.722-17.26 1.644-3.92 5.048-10.82 6.097-14.28 3.646-12.01 5.684-42.148 4.015-53.778-2.369-1.212-2.308-1.045-4.958-1.412-.824-2.711-1-1.419.227-3.984l4.058.17c1.987-2.511 1.469-13.086 1.47-16.883.051-9.212-1.745-27.152-9.954-32.624-11.697-7.798-13.225-5.157-12.731-20.429"/><path fill="#49535e" d="M819.361 974.508a2.782 2.782 0 1 1 3.528 4.306 2.782 2.782 0 0 1-3.528-4.306"/><path fill="#424e5b" d="m677.29 904.94 59.616-.049-.207 13.559c-25.178 8.227-21.898 34.13-21.728 55.884 6.944.084 7.4 3.978-.01 5.41.213 13.272-.737 35.356 1.625 47.786 3.277 17.24 13.041 16.5 2.077 36.87 8.03 3.37 11.039 5.24 17.124 10.98.595 7.45.51 18.13.693 25.84l-57.634-.1c-.552-20.34-3.598-27.75 17.148-35.85-2.12-7.03-2.987-11.75-4.286-19.02 9.788-23.5 7.529-37.4 8.348-62.61.173-5.345-2.262-2.253-5.862-5.678l.484-1.534c2.627-.891 2.887-.806 5.056-2.449 3.474-20.648 1.812-48.874-22.461-54.718z"/><path fill="#49535e" d="M714.971 974.334c6.944.084 7.4 3.978-.01 5.41q-.03-2.706.01-5.41"/><path fill="#424e5b" d="m886.95 904.942 59.055.011-.021 13.413c-10.625 3.901-16.827 8.214-20.362 19.574-2.355 7.569-4.509 30.308-1.272 36.846l4.231.489.613 1.274-.771 1.846c-3.244.771-2.265.167-4.792 1.994-1.397 14.407-.255 46.081 5.47 59.331 4.462 10.33 2.541 15.13-2.275 24.99 21.515 10.5 18.629 14.71 17.737 36.69-8.827-.34-51.925-1.38-57.591.87-.364-21.22-4.774-28.57 16.308-37.64-2.358-6.87-3.249-10.97-4.727-18.12 1.878-4.6 4.607-9.97 6.26-14.64 2.85-8.05 6.194-47.171 3.328-52.375l-4.492-.9-.406-1.611c2.086-1.385 2.669-1.507 5.042-2.372 2.569-7.111 1.849-33.962-2.558-41.438-6.179-10.483-8.398-11.314-18.723-15.212zm210.83.056 58.26.072c.86 20.862-4.35 10.598-15.48 23.071-6.28 7.045-8.11 35.347-6.8 44.84.42 3.074 2.11.931 5.28 2.964l-.36 2.42c-2.53 1.491-2.84 1.433-4.65 3.67-1.21 8.073.41 40.555 2.26 48.675 4.05 17.81 11.58 14.9 1.06 34.07 8.57 3.57 11.35 5.18 17.66 11.64l-.11 24.29c-3.61 1.78-49.52.79-57.31.72-.64-21.09-3.37-27.47 16.84-36.91-5.08-11.93-5.24-14.29-.35-26.23 2.87-7 4.46-20.57 4.28-28.33-.15-6.66 2.35-24.95.18-30.242l-3.97-1.028c-.94-2.717-.95-1.411-.08-4.048 2.94-.473 1.95.019 4.27-1.585 2.07-23.33 4.52-44.87-20.77-54.655zM679.781 1928.93l44.216 4.15c30.868 3.11 81.997 17.81 18.489 31.67a290 290 0 0 1-18.48 3.45c-14.37 2.16-29.117 2.98-43.22 5.36-1.696-6.3 1.441-35.62-1.005-44.63"/><path fill="#cb8441" d="M1011.83 1901.18c2.25-.16 4.5-.69 4.59 2.23.44 14.33.06 29.05.07 43.37l-8.97-2.05c-7.562-1.88-13.806-3.83-21.159-6.07-6.097-2.61-23.557-8.35-15.637-18.86 7.392-9.8 29.205-15.98 41.106-18.62"/><path fill="#49535e" d="m695.293 652.819 1.428.77.488 4.018c-1.107 3.777-5.421 7.858-8.392 10.555-31.674 28.755-65.905 56.275-96.443 86.232-.793-.591-3.689-3.326-2.584-4.328 26.879-24.357 75.557-79.072 105.503-97.247M512.738 1148.16c1.395.56 1.408.54 2.75.89 26.129 6.81 48.578 22.75 61.939 46.51a95.7 95.7 0 0 1 10.845 29.94c.285 1.59 2.021 14.02 1.048 14.39-9.503 3.64-9.267.52-10.066-7.39-4.308-42.7-28.914-67.57-67.065-82.84zm833.572-172.712a2.63 2.63 0 0 1 2.82-1.015 2.62 2.62 0 0 1 1.92 2.288 2.613 2.613 0 0 1-4.43 2.105 2.614 2.614 0 0 1-.31-3.378"/><path fill="#8c8a8d" d="M512.189 1149.66c-15.818-3.7-12.195-6.19.549-1.5z"/><metadata><recraft-signature>{&quot;signed_by&quot;: &quot;recraft&quot;, &quot;signature_b64&quot;: &quot;/gZJ+uVzW9lr9ZYMxCsOsbw5PiywTXX3SAYKchyd3vTbjWzajK+hf3v2VamUCaORID8XL3XEM7ITSuckQtHYDQ==&quot;, &quot;signing_algo&quot;: &quot;Ed25519&quot;, &quot;generation_timestamp&quot;: 1777251816, &quot;identifier&quot;: &quot;6fe727fb-015d-4cb0-bed8-22cfea959dca&quot;}</recraft-signature></metadata></svg>