<svg xmlns="http://www.w3.org/2000/svg" width="1024" height="1024" preserveAspectRatio="none" style="display:block" viewBox="0 0 2048 2048"><path fill="#faf9f9" d="M0 0h2048v563.879L0 563.337z"/><path fill="#4c5a66" d="M0 408.573c29.283-16.406 58.341-18.849 90.856-9.796a135.8 135.8 0 0 1 37.503 16.453c15.31 9.838 39.355 31.173 52.63 42.556 70.879 60.781 125.277 38.709 184.523-21.794 29.904-30.538 79.702-44.499 120.31-31.472 56.682 14.398 85.178 76.877 143.786 88.303 50.227 9.971 86.477-25.94 121.094-56.135 34.435-29.617 79.79-38.069 122.462-23.35 36.909 12.731 63.106 38.648 93.096 60.328 59.87 43.277 115.28 3.881 161.99-36.156 30.7-26.318 79.13-36.68 117.48-25.472 59.05 16.359 90.85 83.291 158.32 81.808a91.5 91.5 0 0 0 44.24-12.141c23.14-13.169 37.38-29.879 57.09-46.809 32.19-27.653 77.6-38.961 118.83-28.555 31.63 7.982 53.79 32.078 77.83 51.762 40.78 33.389 83.26 49.929 131.89 21.899 50.7-29.222 75.71-79.251 138.89-85.471 16.32-1.607 31.65-1.611 47.69 2.839 9.66 2.767 18.9 6.807 27.49 12.014v154.495L0 563.337z"/><path fill="#4c5a66" d="M887.578 86.27c21.664-1.343 55.736-4.18 77.148-7.36 20.134 13.616 45.974 32.492 65.914 44.858 1.69-10.107 2.82-25.126 4.85-34.09 7.64 2.353 19.08 5.531 26.16 8.545.96 5.751 1.44 8.628 3.29 14.301 6.49-3.069 13.6-6.622 20.23-9.173l23.62 10.188c3.4-4.932 5.03-9.377 7.38-14.857 1.55-6.214 1.72-14.074 8.04-12.452l11.59 3.034 5.7 77.968c.39 3.53.82 6.826.86 10.385 1.21 25.96 3.3 51.261 4.94 77.131l.71 5.053c.65 18.584-5.84 27.245-14.1 43.974 3.69 1.474 6.91 2.566 10.27 4.732 1.49 1.73 1.01 2.801.94 5.336-1.32 9.372-1.01 15.957-1.36 25.313-.76 23.242-1.07 46.497-.93 69.751a2060 2060 0 0 0-37.43-14.165c-3.87 4.817-8.01 10.043-11.58 15.068-7.11-3.069-29.75-15.783-36.06-20.352l-3.92-.578c-17.73 3.321-39.55 4.983-57.765 6.893l-5.773 1.093c-20.625.561-44.391 3.78-65.52 5.12-1.922.313-5.014.924-6.846 1.065-9.058.207-22.096 1.5-31.4 2.168 8.163-45.569 15.416-91.687 24.155-137.09l.967-5.607 4.555-13.229-26.311-19.273 13.611-15.372c1.633-1.981 2.963-3.085 4.832-4.819 6.82-6.839 13.661-14.754 20.153-21.984-7.072-15.56-14.791-35.751-21.099-51.688-3.468-7.276-8.999-18.584-10.709-26.093-3.021-7.856-6.241-15.908-9.112-23.795"/><path fill="#4c5a66" d="M887.578 86.27c21.664-1.343 55.736-4.18 77.148-7.36 20.134 13.616 45.974 32.492 65.914 44.858 1.69-10.107 2.82-25.126 4.85-34.09 7.64 2.353 19.08 5.531 26.16 8.545.96 5.751 1.44 8.628 3.29 14.301 6.49-3.069 13.6-6.622 20.23-9.173l23.62 10.188c3.4-4.932 5.03-9.377 7.38-14.857 1.55-6.214 1.72-14.074 8.04-12.452l11.59 3.034 5.7 77.968c.22 4.721-5.74 11.077-9 14.67a181.75 181.75 0 0 1-127.87 59.212c-30.653 1.286-74.466-8.154-96.285-31.285 6.82-6.839 13.661-14.754 20.153-21.984-7.072-15.56-14.791-35.751-21.099-51.688-3.468-7.276-8.999-18.584-10.709-26.093-3.021-7.856-6.241-15.908-9.112-23.795"/><path fill="#4c5a66" d="M887.578 86.27c21.664-1.343 55.736-4.18 77.148-7.36 20.134 13.616 45.974 32.492 65.914 44.858 1.69-10.107 2.82-25.126 4.85-34.09 7.64 2.353 19.08 5.531 26.16 8.545.96 5.751 1.44 8.628 3.29 14.301 6.49-3.069 13.6-6.622 20.23-9.173l23.62 10.188c-31.19 47.288-98.49 77.744-152.821 52.282-26.073-12.22-42.451-33.377-59.279-55.757-3.021-7.856-6.241-15.908-9.112-23.795"/><path fill="#e79547" d="M1116.17 98.682c.17 2.84.39 5.676.67 8.507-26.44 59.854-115.55 95.895-173.354 58.171-8.322-5.432-32.327-27.618-36.087-29.203-3.468-7.276-8.999-18.584-10.709-26.093 16.828 22.38 33.206 43.537 59.279 55.757 54.331 25.462 121.631-4.994 152.821-52.282 3.4-4.932 5.03-9.377 7.38-14.857"/><path fill="#dd9252" d="M1116.17 98.682c1.55-6.214 1.72-14.074 8.04-12.452-1.45 7.918-4.1 13.665-7.37 20.959-.28-2.831-.5-5.667-.67-8.507"/><path fill="#4c5a66" d="M996.075 395.773c3.596-26.142 21.745-58.532 38.765-78.25a167.42 167.42 0 0 1 113.17-57.722c.65 18.584-5.84 27.245-14.1 43.974 3.69 1.474 6.91 2.566 10.27 4.732 1.49 1.73 1.01 2.801.94 5.336-1.32 9.372-1.01 15.957-1.36 25.313-.76 23.242-1.07 46.497-.93 69.751a2060 2060 0 0 0-37.43-14.165c-3.87 4.817-8.01 10.043-11.58 15.068-7.11-3.069-29.75-15.783-36.06-20.352l-3.92-.578c-17.73 3.321-39.55 4.983-57.765 6.893"/><path fill="#4c5a66" d="M1057.76 389.458c15.84-37.116 46.38-68.54 87.36-75.615-1.32 9.372-1.01 15.957-1.36 25.313-.76 23.242-1.07 46.497-.93 69.751a2060 2060 0 0 0-37.43-14.165c-3.87 4.817-8.01 10.043-11.58 15.068-7.11-3.069-29.75-15.783-36.06-20.352"/><path fill="#e79547" d="M1144.18 308.507c1.49 1.73 1.01 2.801.94 5.336-40.98 7.075-71.52 38.499-87.36 75.615l-3.92-.578c9.76-39.673 50.52-73.611 90.34-80.373"/><path fill="#4c5a66" d="M910.691 268.129c12.062 7.059 22.403 14.351 29.918 26.351 24.984 39.898-.071 76.551-22.673 108.571-9.058.207-22.096 1.5-31.4 2.168 8.163-45.569 15.416-91.687 24.155-137.09"/><path fill="#e79547" d="M1141.5 167.232c.39 3.53.82 6.826.86 10.385-26.21 36.995-71.49 59.929-115.44 67.131-43.744 7.168-83.067-.964-119.049-26.896a303 303 0 0 1-4.358-3.204c1.633-1.981 2.963-3.085 4.832-4.819 21.819 23.131 65.632 32.571 96.285 31.285a181.75 181.75 0 0 0 127.87-59.212c3.26-3.593 9.22-9.949 9-14.67m5.8 87.516.71 5.053a167.42 167.42 0 0 0-113.17 57.722c-17.02 19.718-35.169 52.108-38.765 78.25l-5.773 1.093c8.52-69.806 85.438-142.789 156.998-142.118m-235.642 7.774c63.119 29.78 51.854 93.544 13.124 139.464-1.922.313-5.014.924-6.846 1.065 22.602-32.02 47.657-68.673 22.673-108.571-7.515-12-17.856-19.292-29.918-26.351z"/><path fill="#4c5a66" d="M338.676 90.301c19.174-2.57 42.516-5.412 61.299-8.801-4.31 14.383-9.352 28.131-14.422 42.258l10.249 9.917c-6.008 6.953-20.542 24.374-26.746 29.678-3.935 5.155-6.86 7.91-11.482 12.45 3.89 3.014 23.988 16.048 28.899 19.029l.59.364c-.57 11.435-2.424 24.133-1.512 35.263.037.456 3.458 2.315 3.252 3.16-2.553 10.476-5.961 20.974-8.752 31.462l-1.511 6.893c-1.219 3.894-1.762 3.259-.432 6.026 6.438 2.22 14.562-.946 22.137-1.383-6.447 10.943-16.463 27.183-20.82 38.776l26.008 88.159c-7.561-2.054-14.773-4.228-22.567-5.164l-7.619-1.641a9991 9991 0 0 0-108.715-24.215c-1.398 8.297-5.664 46.349-9.098 50.261-6.237-1.03-22.477-27.084-29.206-34.502-7 3.786-16.032 9.229-22.839 12.505-7.599-2.475-14.233-4.667-21.994-6.529l-11.265 6.39-5.578 4.172c-2.624 3.067-5.71 4.913-9.03 7.24-1.525-23.087-9.303-48.062-11.302-70.99-.882-10.123 2.169-29.818 3.532-40.494.128-2.434.401-4.11.74-6.501 1.644-15.349 3.932-31.417 5.801-46.834l.785-6.159c1.674-11.009 3.717-22.805 4.603-33.838.787-9.108 1.638-5.172 9.7-10.518 8.07-5.352 19.415-12.493 24.971-20.396-11.075-7.775-27.268-16.586-39.099-24.131 6.402-4.453 8.48-5.609 14.3-11.014q-.536-1.153-1.044-2.318c-5.751-13.126-15.522-28.345-22.359-42.897 25.717 3.788 52.074 5.509 77.846 9.319q3.574.525 7.125 1.183c2.294.199 4.096.312 6.4.351 8.49-.054 32.74-4.924 41.638-6.586l5.814-1.059c11.229-.748 35.18-5.27 46.265-7.616z"/><path fill="#4c5a66" d="M286.973 99.187c11.229-.748 35.18-5.27 46.265-7.616-4.34 15.672-8.523 30.796-14.429 45.989-28.095 72.282-90.869 138.7-168.317 156.524 1.644-15.349 3.932-31.417 5.801-46.834l.785-6.159c1.674-11.009 3.717-22.805 4.603-33.838.787-9.108 1.638-5.172 9.7-10.518 8.07-5.352 19.415-12.493 24.971-20.396-11.075-7.775-27.268-16.586-39.099-24.131 6.402-4.453 8.48-5.609 14.3-11.014q-.536-1.153-1.044-2.318c-5.751-13.126-15.522-28.345-22.359-42.897 25.717 3.788 52.074 5.509 77.846 9.319q3.574.525 7.125 1.183c2.294.199 4.096.312 6.4.351 8.49-.054 32.74-4.924 41.638-6.586z"/><path fill="#4c5a66" d="M148.15 95.979c25.717 3.788 52.074 5.509 77.846 9.319q3.574.525 7.125 1.183c2.294.199 4.096.312 6.4.351 8.49-.054 32.74-4.924 41.638-6.586-10.364 47.194-43.288 99.719-84.717 125.275-10.578 6.525-26.719 15.228-39.364 15.57 1.674-11.009 3.717-22.805 4.603-33.838.787-9.108 1.638-5.172 9.7-10.518 8.07-5.352 19.415-12.493 24.971-20.396-11.075-7.775-27.268-16.586-39.099-24.131 6.402-4.453 8.48-5.609 14.3-11.014q-.536-1.153-1.044-2.318c-5.751-13.126-15.522-28.345-22.359-42.897"/><path fill="#4c5a66" d="M148.15 95.979c25.717 3.788 52.074 5.509 77.846 9.319q3.574.525 7.125 1.183c-6.878 19.971-11.416 37.432-24.898 54.635-3.785 4.828-8.544 10.294-11.871 15.223-11.075-7.775-27.268-16.586-39.099-24.131 6.402-4.453 8.48-5.609 14.3-11.014q-.536-1.153-1.044-2.318c-5.751-13.126-15.522-28.345-22.359-42.897"/><path fill="#e79547" d="M233.121 106.481c2.294.199 4.096.312 6.4.351-2.464 6.008-4.507 12.35-6.449 18.55-9.684 30.919-38.145 69.454-69.37 81.066q-1.016.39-2.021.805c.787-9.108 1.638-5.172 9.7-10.518 8.07-5.352 19.415-12.493 24.971-20.396 3.327-4.929 8.086-10.395 11.871-15.223 13.482-17.203 18.02-34.664 24.898-54.635m48.038-6.235 5.814-1.059c-10.063 49.724-42.814 102.065-85.542 129.918-10.664 6.952-32.251 18.312-45.138 18.145l.785-6.159c12.645-.342 28.786-9.045 39.364-15.57 41.429-25.556 74.353-78.081 84.717-125.275"/><path fill="#4c5a66" d="M172.13 400.657c12.25-39.382 32.278-85.973 76.372-97.024 51.029-12.788 115.419 47.1 126.745 93.114a9991 9991 0 0 0-108.715-24.215c-1.398 8.297-5.664 46.349-9.098 50.261-6.237-1.03-22.477-27.084-29.206-34.502-7 3.786-16.032 9.229-22.839 12.505-7.599-2.475-14.233-4.667-21.994-6.529zm207.921-135.576c-66.803 15.389-79.292-57.601-22.477-89.278 3.89 3.014 23.988 16.048 28.899 19.029l.59.364c-.57 11.435-2.424 24.133-1.512 35.263.037.456 3.458 2.315 3.252 3.16-2.553 10.476-5.961 20.974-8.752 31.462"/><path fill="#e79547" d="M166.552 404.829c3.775-38.998 34.004-88.679 71.144-104.044 19.521-8.076 40.076-6.043 59.154 2.471 28.84 12.87 54.919 36.031 71.366 63.003 5.822 9.738 10.392 21.573 14.65 32.129l-7.619-1.641c-11.326-46.014-75.716-105.902-126.745-93.114-44.094 11.051-64.122 57.642-76.372 97.024zM333.238 91.57l5.438-1.269c-14.396 84.843-80.421 172.186-162.486 201.975-8.596 3.121-18.037 5.135-26.438 8.309.128-2.434.401-4.11.74-6.501 77.448-17.824 140.222-84.242 168.317-156.524 5.906-15.193 10.089-30.317 14.429-45.99m45.302 180.404c-43.994 9.171-76.967-24.511-57.49-67.33 7.8-17.149 30.579-35.24 48.006-41.291-3.935 5.155-6.86 7.91-11.482 12.45-56.815 31.677-44.326 104.667 22.477 89.278z"/><path fill="#4c5a66" d="M1472.46 105.322c15.27-7.545 30.09-16.46 44.69-23.607l-17.01 48.995c3.73 5.343 7.71 10.736 10.94 16.374a891 891 0 0 1-37.9 38.481c5 1.691 11.29 3.603 16.01 5.724l5.75 3.091c1.23.821 4.09 2.3 3.9 3.255-3.16 16.738-14.44 56.07-19.59 70.77l10.58 4.519c.83 16.576 2.5 32.835 3.62 49.34.6 3.734.69 4.532.69 8.297l5.46 84.744c-13.31-4.813-35.52-13.436-48.41-16.339-10.19-2.291-36.29-2.139-47.89-2.273-4.32.164-6.69.036-11.03-.292-8.83-1.137-30.29-1.151-39.83-1.412-2.08.002-3.5-.053-5.61-.218-3.57-.679-13.72-.965-17.88-1.168-3.29.299-5.26-.038-8.5-.389-15.86-.38-33.51-.294-49.22-2.004-7.59-.825-20.56-8.35-27.71-12.165 14.27-23.872 28.18-49.364 41.85-73.69l-14.55-5.975c3.56-6.94 6.88-13.996 9.96-21.156 2.07-3.945 2.5-5.272 6-7.161.29-11.339-14.81-49.228-19.61-62.342l-2.87-6.593c-3.83-8.625-7.6-19.471-10.97-28.436a307 307 0 0 1 15.33-3.451c5.08-2.871 10.89-4.164 14.84-7.006-4.72-18.171-9.39-48.539-10.77-67.294 4.11 1.391 13.85 4.739 17.75 4.428 16.26-1.291 32.58-3.216 48.82-4.87 2.04-.572 3.72-.59 5.82-.775 11.93-1.85 25.09-2.832 37.52-4.679l5.68.135c16.42 3.983 34.34 7.175 51.04 10.281l5.48.88c8.63 2.095 18.75 3.717 27.62 3.981"/><path fill="#4c5a66" d="m1382.64 90.045 5.68.135c16.42 3.983 34.34 7.175 51.04 10.281-3.72 51.938-27.72 96.193-66.96 130.203a185.8 185.8 0 0 1-69.93 38.322c-3.8 1.1-12.37 3.732-15.69 2.077.29-11.339-14.81-49.228-19.61-62.342l-2.87-6.593c-3.83-8.625-7.6-19.471-10.97-28.436a307 307 0 0 1 15.33-3.451c5.08-2.871 10.89-4.164 14.84-7.006-4.72-18.171-9.39-48.539-10.77-67.294 4.11 1.391 13.85 4.739 17.75 4.428 16.26-1.291 32.58-3.216 48.82-4.87 2.04-.572 3.72-.59 5.82-.775 11.93-1.85 25.09-2.832 37.52-4.679"/><path fill="#4c5a66" d="M1345.12 94.724c11.93-1.85 25.09-2.832 37.52-4.679-6.4 57.759-58.68 111.696-118.34 112.083-3.83-8.625-7.6-19.471-10.97-28.436a307 307 0 0 1 15.33-3.451c5.08-2.871 10.89-4.164 14.84-7.006-4.72-18.171-9.39-48.539-10.77-67.294 4.11 1.391 13.85 4.739 17.75 4.428 16.26-1.291 32.58-3.216 48.82-4.87 2.04-.572 3.72-.59 5.82-.775"/><path fill="#4c5a66" d="M1272.73 95.941c4.11 1.391 13.85 4.739 17.75 4.428 16.26-1.291 32.58-3.216 48.82-4.87-5.11 27.152-17.96 47.566-41.93 61.7-3.77 2.222-9.64 5.419-13.87 6.036-4.72-18.171-9.39-48.539-10.77-67.294"/><path fill="#e79547" d="M1339.3 95.499c2.04-.572 3.72-.59 5.82-.775-7.64 30.353-14.13 48.56-43.12 66.248-8.28 5.054-23.11 10.069-32.79 9.307l-.55-.038c5.08-2.871 10.89-4.164 14.84-7.006 4.23-.617 10.1-3.814 13.87-6.036 23.97-14.134 36.82-34.548 41.93-61.7m43.34-5.454 5.68.135c-5.2 52.562-50.45 106.201-103.38 115.808-4.4.799-14.24 1.665-17.77 2.733l-2.87-6.593c59.66-.387 111.94-54.324 118.34-112.083"/><path fill="#4c5a66" d="M1328.95 393.603c-11.12-11.637-18.34-40.098-17.78-55.911.64-17.657 7.38-36.703 20.94-48.58 22.13-19.373 60.02-29.133 81.62-3.162 29.96 36.01 12.14 84.096-21.46 110.451-8.83-1.137-30.29-1.151-39.83-1.412-2.08.002-3.5-.053-5.61-.218-3.57-.679-13.72-.965-17.88-1.168"/><path fill="#e79547" d="m1346.83 394.771-.24-1.101c-7.78-23.153-4.98-78.389 30.4-74.417 7.19 2.277 29.67 10.069 15.48 19.202-13.38 8.611-8.58-19.983-25.31-12.095-23.54 11.103-18.56 49.006-14.72 68.629-2.08.002-3.5-.053-5.61-.218"/><path fill="#4c5a66" d="M1494.94 194.38c1.23.821 4.09 2.3 3.9 3.255-3.16 16.738-14.44 56.07-19.59 70.77l10.58 4.519c.83 16.576 2.5 32.835 3.62 49.34-32.77 2.793-107.39-82.233-21.28-91.601 5.23-17.211 7.37-25.675 22.77-36.283"/><path fill="#e79547" d="M1320.45 393.214c-13.42-24.822-19.32-50.163-12.06-77.057 6.94-25.674 33.68-47.804 58.51-51.368 68.82-9.879 86.65 75.691 47.54 118.406-2.05 2.242-10.79 11.936-11.14 13.498-4.32.164-6.69.036-11.03-.292 33.6-26.355 51.42-74.441 21.46-110.451-21.6-25.971-59.49-16.211-81.62 3.162-13.56 11.877-20.3 30.923-20.94 48.58-.56 15.813 6.66 44.274 17.78 55.911-3.29.299-5.26-.038-8.5-.389m118.91-292.753 5.48.88c-5.59 57.1-26.9 97.247-70.82 135.645-22.24 19.447-62.77 41.339-93.24 41.238 2.07-3.945 2.5-5.272 6-7.161 3.32 1.655 11.89-.977 15.69-2.077a185.8 185.8 0 0 0 69.93-38.322c39.24-34.01 63.24-78.265 66.96-130.203"/><path fill="#e79547" d="m1489.19 191.289 5.75 3.091c-15.4 10.608-17.54 19.072-22.77 36.283-86.11 9.368-11.49 94.394 21.28 91.601.6 3.734.69 4.532.69 8.297-31.6-10.797-64.08-31.635-67.96-68.22-2.55-23.99 20.97-35.26 41.55-36.609 4.58-16.496 8.71-23.091 21.46-34.443"/><path fill="#4c5a66" d="M1635.06 99.2q15.15-1.15 30.27-2.471c4.26 8.482 8.44 16.999 12.56 25.549 18.61-3.881 54.12-11.764 71.51-17.482 2.75-.975 3.43-1.24 6.32-.688 1.11 1.338 2.93 4.763 4.75 4.753 13.53-.077 27.63-1.325 41.12-2.614 2.7-.271 5.39-.525 8.08-.761 24.29-1.724 50.41-3.297 74.49-5.956l7.03-1.272 3.13 1.15c.67 5.76-20.92 62.771-26.5 71.799-1.13 1.833-12.29 11.426-14.78 13.547 5.92 5.611 28.58 25.015 31.49 29.862l-.64 6.312c.8 23.394 1.15 46.801 1.06 70.209-8.59 2.219-17.39 4.346-25.81 7.109-1.07 8.708-2.06 17.762-3.3 26.417q10.32 1.353 20.64 2.843l-2.75 77.642c-10.58-.261-21.21-7.566-30.04-13.118-1.18 3.153-1.89 6.343-4.34 8.452-7.05-1.879-21.87-9.093-29.01-12.4-16.09 2.708-27.51 5.541-43.44 10.067l-7.64 1.631c-12.73 3.031-28.67 6.14-40.88 9.423-2.37.705-3.68.509-6.17.559-10.18-3.488-57.03-11.475-68.93-13.535 3.89-11.113 10.44-31.236 15.66-40.922q13.845-.469 27.66-1.347c-11.63-17.541-23.56-33.209-36.29-49.884l6.38-7.956c.16-.737 1.53-4.189 1.88-5.114-4.29-3.029-7.46-5.882-11.4-9.31 7.65-28.157 12.61-41.305 8.58-70.502-.26-1.664-.4-4.875-.54-6.683-1.53-14.015-2.94-29.353-5.56-43.101l-1.5-6.918c-4.85-18.807-7.3-35.174-13.09-55.29"/><path fill="#4c5a66" d="M1655.75 211.192c6.21 7.457 26.43 18.315 35.58 26.787 47.64 44.084 68.82 97.246 67.93 161.801-12.73 3.031-28.67 6.14-40.88 9.423-2.37.705-3.68.509-6.17.559-10.18-3.488-57.03-11.475-68.93-13.535 3.89-11.113 10.44-31.236 15.66-40.922q13.845-.469 27.66-1.347c-11.63-17.541-23.56-33.209-36.29-49.884l6.38-7.956c.16-.737 1.53-4.189 1.88-5.114-4.29-3.029-7.46-5.882-11.4-9.31 7.65-28.157 12.61-41.305 8.58-70.502"/><path fill="#4c5a66" d="M1656.69 296.118c24.31 24.962 58.1 64.847 56.46 101.423-.18 4.059-.52 8.169-.94 12.221-10.18-3.488-57.03-11.475-68.93-13.535 3.89-11.113 10.44-31.236 15.66-40.922q13.845-.469 27.66-1.347c-11.63-17.541-23.56-33.209-36.29-49.884z"/><path fill="#e79547" d="M1658.57 291.004c22.37 15.838 56.1 64.011 59.43 92.417 1.46 12.371 1.25 13.868.38 25.782-2.37.705-3.68.509-6.17.559.42-4.052.76-8.162.94-12.221 1.64-36.576-32.15-76.461-56.46-101.423.16-.737 1.53-4.189 1.88-5.114"/><path fill="#4c5a66" d="M1635.06 99.2q15.15-1.15 30.27-2.471c4.26 8.482 8.44 16.999 12.56 25.549 18.61-3.881 54.12-11.764 71.51-17.482 2.75-.975 3.43-1.24 6.32-.688 1.11 1.338 2.93 4.763 4.75 4.753 13.53-.077 27.63-1.325 41.12-2.614 2.7-.271 5.39-.525 8.08-.761 24.29-1.724 50.41-3.297 74.49-5.956-47.17 76.275-145.25 94.718-222.4 60.244-3.52-1.573-10.01-4.425-13.61-5.284-4.85-18.807-7.3-35.174-13.09-55.29"/><path fill="#4c5a66" d="M1755.72 104.108c1.11 1.338 2.93 4.763 4.75 4.753 13.53-.077 27.63-1.325 41.12-2.614-1.26 19.083-50.89 38.752-45.87-2.139"/><path fill="#e79547" d="M1749.4 104.796c2.75-.975 3.43-1.24 6.32-.688-5.02 40.891 44.61 21.222 45.87 2.139 2.7-.271 5.39-.525 8.08-.761-2.91 6.431-5.3 12.141-10.7 17.008-21.95 19.764-51.45 17.162-49.57-17.698"/><path fill="#4c5a66" d="M1843.69 392.03c-28.78-18.541-55.33-67.305-55.38-101.889-.08-50.841 51.44-76.364 96.22-75.525l-.64 6.312c.8 23.394 1.15 46.801 1.06 70.209-8.59 2.219-17.39 4.346-25.81 7.109-1.07 8.708-2.06 17.762-3.3 26.417q10.32 1.353 20.64 2.843l-2.75 77.642c-10.58-.261-21.21-7.566-30.04-13.118"/><path fill="#e79547" d="M1843.69 392.03c-28.78-18.541-55.33-67.305-55.38-101.889-.08-50.841 51.44-76.364 96.22-75.525l-.64 6.312c-121.85 2.514-107.39 121.561-24.9 173.575 5.17 3.26 9.78 5.326 14.03 9.888l.71.757c-10.58-.261-21.21-7.566-30.04-13.118m40.47-292.5 7.03-1.272c-53.98 86.618-151.65 104.701-241.54 63.15l-1.5-6.918c3.6.859 10.09 3.711 13.61 5.284 77.15 34.474 175.23 16.031 222.4-60.244m-228.95 104.979c8.83 9.135 28.14 18.87 39.61 29.109a212.1 212.1 0 0 1 67.66 120.306c2.62 14.453 3.43 29.558 4.42 44.225l-7.64 1.631c.89-64.555-20.29-117.717-67.93-161.801-9.15-8.472-29.37-19.33-35.58-26.787-.26-1.664-.4-4.875-.54-6.683"/><path fill="#4c5a66" d="M540.863 91.84c11.561 2.34 29.46 4.298 41.503 5.793 2.87 9.181 6.052 18.717 8.224 28.05l4.74-1.017c25.327-12.26 40.76-5.701 65.542-1.337 2.943.543 4.423.465 6.44 2.629 5.257.708 25.145-15.369 30.878-19.74l11.885-9.113 19.147 9.499c14.129-1.056 31.715-1.876 45.516-3.554-9.124 11.743-25.803 30.541-33.046 42.025a661 661 0 0 1 35.361 13.326c.14 21.617-1.897 42.294-1.995 63.1l-.011 5.458c-.617 28.51 6.103 31.257-7.978 55.006l-2.584 4.59-12.593 25.634c9.746 5.348 25.641 10.658 27.431 21.97l-.43 5.756c1.699 22.39 3.679 47.648 4.495 70.015-31.109-14.865-36.187-2.294-66.707-2.33-9.266-.011-24.636-12.571-36.616-11.614-2.579 1.549-2.957 1.813-5.205 3.805-3.139 1.55-1.521 1.262-5.037.847-6.496-2.366-14.242-3.959-20.97-5.79-7.908 7.237-10.741 10.342-17.984 18.133-3.257-.796-6.579-1.483-9.853-2.248a139 139 0 0 1-10.527-2.823l-1.347-.387-5.35-.052c-22.356-6.887-30.148-3.881-53.117-2.248.794-3.9 1.766-8.292 2.236-12.228 3.104-26.019 8.134-51.813 11.781-77.731l-6.112-2.503c-2.8-1.139-10.04-2.634-11.182-3.45 3.323-3.735 4.22-4.704 8.803-6.348 1.871-8.578-.998-28.458-1.421-37.865-1.134-25.225-5.694-55.576-5.751-80.382-1.345-10.493-2.684-23.545-2.855-33.976-2.263-19.203-3.675-39.559-5.311-58.9"/><path fill="#4c5a66" d="m710.075 97.105 19.147 9.499c14.129-1.056 31.715-1.876 45.516-3.554-9.124 11.743-25.803 30.541-33.046 42.025a661 661 0 0 1 35.361 13.326c.14 21.617-1.897 42.294-1.995 63.1l-.011 5.458c-.617 28.51 6.103 31.257-7.978 55.006-4.024-1.427-16.699-4.129-21.945-5.51a206 206 0 0 1-45.157-17.46c-57.096-29.633-85.712-75.181-104.637-134.329 25.327-12.26 40.76-5.701 65.542-1.337 2.943.543 4.423.465 6.44 2.629 5.257.708 25.145-15.369 30.878-19.74z"/><path fill="#4c5a66" d="m710.075 97.105 19.147 9.499c14.129-1.056 31.715-1.876 45.516-3.554-9.124 11.743-25.803 30.541-33.046 42.025a661 661 0 0 1 35.361 13.326c.14 21.617-1.897 42.294-1.995 63.1-45.535 2.076-80.278-25.444-98.733-66.106-3.691-8.132-8.34-20.606-9.013-29.437 5.257.708 25.145-15.369 30.878-19.74z"/><path fill="#e79547" d="M660.872 123.329c2.943.543 4.423.465 6.44 2.629.673 8.831 5.322 21.305 9.013 29.437 18.455 40.662 53.198 68.182 98.733 66.106l-.011 5.458c-30.914.552-50.27-5.942-74.144-26.782-18.661-16.29-39.069-52.132-40.031-76.848"/><path fill="#4c5a66" d="M540.863 91.84c11.561 2.34 29.46 4.298 41.503 5.793 2.87 9.181 6.052 18.717 8.224 28.05l4.74-1.017c18.925 59.148 47.541 104.696 104.637 134.329a206 206 0 0 0 45.157 17.46c5.246 1.381 17.921 4.083 21.945 5.51l-2.584 4.59-12.593 25.634c9.746 5.348 25.641 10.658 27.431 21.97l-.43 5.756c-9.933.581-21.064-.484-30.936-1.675-72.319-8.725-142.811-42.917-179.156-108.944a257 257 0 0 1-13.407-28.905c-2.048-5.094-3.698-10.952-6.365-15.675-1.345-10.493-2.684-23.545-2.855-33.976-2.263-19.203-3.675-39.559-5.311-58.9"/><path fill="#e79547" d="M546.174 150.74c16.01 63.547 38.657 108.868 96.549 146.484 30.955 20.114 98.617 40.119 136.6 36.935l-.43 5.756c-9.933.581-21.064-.484-30.936-1.675-72.319-8.725-142.811-42.917-179.156-108.944a257 257 0 0 1-13.407-28.905c-2.048-5.094-3.698-10.952-6.365-15.675-1.345-10.493-2.684-23.545-2.855-33.976"/><path fill="#e79547" d="M595.33 124.666c18.925 59.148 47.541 104.696 104.637 134.329a206 206 0 0 0 45.157 17.46c5.246 1.381 17.921 4.083 21.945 5.51l-2.584 4.59a215.8 215.8 0 0 1-76.187-27.355c-51.524-30.279-82.673-76.483-97.708-133.517z"/><path fill="#4c5a66" d="M547.398 309.311c14.712-1.213 42.631-8.71 54.397 1.255 15.854 13.428 12.039 51.566 8.468 69.948l-1.386 7.476c-1.174 6.155-3.025 13.597-5.085 19.481-22.356-6.887-30.148-3.881-53.117-2.248.794-3.9 1.766-8.292 2.236-12.228 3.104-26.019 8.134-51.813 11.781-77.731l-6.112-2.503c-2.8-1.139-10.04-2.634-11.182-3.45m61.744 98.212c5.508-19.558 10.597-37.989 10.06-58.527.541-2.589-1.724-13.5 2.729-14.039 23.714-2.871 42.199 32.357 44.984 52.047.683 4.835 1.893 8.957 2.908 13.634-6.496-2.366-14.242-3.959-20.97-5.79-7.908 7.237-10.741 10.342-17.984 18.133-3.257-.796-6.579-1.483-9.853-2.248a139 139 0 0 1-10.527-2.823z"/><path fill="#e79547" d="M556.201 302.963c16.395-1.72 32.77-9.311 48.816 2.323 9.165 6.645 9.849 12.039 13.234 22.323.282.816 2.76 1.597 4.222.994 7.172-2.958 15.962 2.418 22.49 7.37 14.146 10.729 22.815 29.982 26.286 47.11.503 2.483 2.959 14.866 3.611 16.708-3.139 1.55-1.521 1.262-5.037.847-1.015-4.677-2.225-8.799-2.908-13.634-2.785-19.69-21.27-54.918-44.984-52.047-4.453.539-2.188 11.45-2.729 14.039.537 20.538-4.552 38.969-10.06 58.527l-5.35-.052c2.06-5.884 3.911-13.326 5.085-19.481l1.386-7.476c3.571-18.382 7.386-56.52-8.468-69.948-11.766-9.965-39.685-2.468-54.397-1.255 3.323-3.735 4.22-4.704 8.803-6.348"/><path fill="#4c5a66" d="M956.358 1793.69c-12.585-5.77-25.176-9.32-38.794-16.07-39.781-19.71-74.946-51.23-100.716-87.13-17.185-23.93-38.735-66.11-44.505-94.14-6.899-38.54-5.837-78.67.442-117.12 22.977-140.73 147.161-252.26 294.215-225.57 68.85 12.5 128.29 55.71 167.42 113.26 39.05 57.44 45.91 128.52 41.81 196.18-.67 11.09-2.15 35.18-4.62 45.5-15.36 64.26-67.39 127.75-124.06 159.88-8.03 4.64-16.35 8.74-24.93 12.27-7.5 3.1-21.35 7.71-27.42 12.12-3.13 11.14 1.28 18.54 1.67 29.41.78 21.66-19.1 44.21-36.61 54.72a66.53 66.53 0 0 1-50.81 7.71c-21.851-5.54-37.029-20.31-48.586-38.8-14.368-22.99-.082-39.75-4.506-52.22"/><path fill="#4c5a66" d="M991.077 1746.38c-14.516-3.74-28.388-7.22-42.379-12.8a226.3 226.3 0 0 1-109.362-94.51c-32.294-55.23-39.087-121.16-22.701-182.65a229.2 229.2 0 0 1 106.331-138.12c46.8-26.95 99.984-34.79 152.254-20.69a223.72 223.72 0 0 1 134.5 104.45 237.6 237.6 0 0 1 23.62 180.78 228.63 228.63 0 0 1-105.27 136.57c-23.7 13.52-42.07 19.15-67.89 26.27-11.1-12.36-33.36-16.11-48.51-11-8.53 2.88-13.668 6.45-20.593 11.7"/><path fill="#faf9f9" d="M1017.68 1326.8c99.32-3.86 183.09 73.28 187.41 172.58 4.32 99.31-72.43 183.43-171.71 188.21-99.941 4.82-184.741-72.55-189.09-172.51s73.411-184.4 173.39-188.28"/><path fill="#faf9f9" d="M850.441 1494.79c6.491-92.15 83.678-163.27 176.049-162.21 92.37 1.05 167.91 73.92 172.3 166.19 3.08 64.72-29.96 125.81-85.81 158.67-55.84 32.86-125.296 32.07-180.376-2.06-55.08-34.12-86.716-95.96-82.163-160.59"/><path fill="#0f1d29" d="M1170.75 1445.29c11.54 5.56 22.14 47.4 28.04 53.48 3.08 64.72-29.96 125.81-85.81 158.67-55.84 32.86-125.296 32.07-180.376-2.06-55.08-34.12-86.716-95.96-82.163-160.59.997-.65 2.222-1.44 3.673-2.38 6.332-13.6 12.278-26.93 20.505-39.31 1.729-.35 2.712-.55 4.396-1.05-.728 10.14-.987 17.69-.121 27.88a143.4 143.4 0 0 0 52.237 99.49c90.149 74.83 218.959 21.71 239.859-91.5 2.7-14.64 1.36-28-.24-42.63"/><path fill="#4c5a66" d="M850.441 1494.79c6.491-92.15 83.678-163.27 176.049-162.21 92.37 1.05 167.91 73.92 172.3 166.19-5.9-6.08-16.5-47.92-28.04-53.48-9.09-40.72-62.55-83.1-101.23-94.11-40.97-11.66-79.632-8.24-117.325 11.96-30.31 16.24-61.45 48.09-71.733 81.01-.411 2.65-.894 5.28-1.447 7.9-1.684.5-2.667.7-4.396 1.05-8.227 12.38-14.173 25.71-20.505 39.31-1.451.94-2.676 1.73-3.673 2.38"/><path fill="#242c32" d="M880.462 1444.15c-.411 2.65-.894 5.28-1.447 7.9-1.684.5-2.667.7-4.396 1.05 2.007-4.63 1.956-4.89 5.843-8.95"/><path fill="#b0101e" d="M991.077 1746.38c6.925-5.25 12.063-8.82 20.593-11.7 15.15-5.11 37.41-1.36 48.51 11l4.43 4.55c22.82 12.89 29.58 14.23 30.59 42.64-3.13 11.14 1.28 18.54 1.67 29.41.78 21.66-19.1 44.21-36.61 54.72a66.53 66.53 0 0 1-50.81 7.71c-21.851-5.54-37.029-20.31-48.586-38.8-14.368-22.99-.082-39.75-4.506-52.22a40.6 40.6 0 0 1 1.399-16.36c4.304-13.98 15.794-20.95 27.657-27.52 1.892-.99 3.838-2.29 5.663-3.43"/><path fill="#0f1d29" d="M1020.1 1749.46c34.14-3.11 64.33 22.04 67.46 56.17 3.13 34.14-21.99 64.36-56.12 67.51-34.174 3.16-64.43-21.99-67.563-56.17-3.133-34.17 22.045-64.41 56.223-67.51"/><path fill="#b0101e" d="M1017.3 1754.45c31.67-4.69 61.11 17.3 65.59 49s-17.7 60.99-49.43 65.26c-31.44 4.23-60.39-17.7-64.829-49.11-4.44-31.4 17.298-60.5 48.669-65.15"/><path fill="#0f1d29" d="M1021.77 1771.93c21.69-2.11 40.98 13.75 43.1 35.43s-13.74 40.98-35.42 43.1c-21.69 2.13-40.989-13.73-43.109-35.42s13.749-40.99 35.429-43.11"/><path fill="#b0101e" d="M1023.51 1775.81c19.39-1.07 36.05 13.63 37.41 33.01 1.36 19.37-13.1 36.25-32.45 37.89a35.53 35.53 0 0 1-32.365-15.4 35.54 35.54 0 0 1-2.502-35.75 35.56 35.56 0 0 1 29.907-19.75"/><path fill="#faf9f9" d="M985.414 1749.81c-14.111-3.62-26.102-6.6-39.715-12.07a230.7 230.7 0 0 1-110.036-95.17c-33.202-55.8-40.592-122.16-24.266-184.63a231.74 231.74 0 0 1 110.158-144.51 203.76 203.76 0 0 1 155.745-20.42c59.04 15.96 107.24 55.33 137.42 108.2a243.54 243.54 0 0 1 23.14 183.3 232.15 232.15 0 0 1-112.69 142.06 239.7 239.7 0 0 1-60.56 23.66l-4.43-4.55c25.82-7.12 44.19-12.75 67.89-26.27a228.63 228.63 0 0 0 105.27-136.57c16.48-61 7.98-126.06-23.62-180.78a223.72 223.72 0 0 0-134.5-104.45c-52.27-14.1-105.454-6.26-152.254 20.69a229.2 229.2 0 0 0-106.331 138.12c-16.386 61.49-9.593 127.42 22.701 182.65a226.3 226.3 0 0 0 109.362 94.51c13.991 5.58 27.863 9.06 42.379 12.8-1.825 1.14-3.771 2.44-5.663 3.43"/><path fill="#4c5a66" d="M1010.62 1193.44a307.98 307.98 0 0 1 194.31 59.06c100.56 73.49 160.07 219.44 174.86 340.01 12.05 89.68-10.37 187.83 71.89 251.11 51.93 39.95 137.96 7.44 131.57-63.36-1-11.15-10.42-24.86-20.01-31.28a48.25 48.25 0 0 0-36.5-7c-51.69 10.54-34.29 75.63-26.96 112.26-35.41-9.91-71.22-38.13-68.53-77.51 6.26-91.53 117.23-147.48 182.77-73.85a100.9 100.9 0 0 1 24.96 72.98c-2.68 42.23-35.59 87.83-66.08 114.7-37.46 33.03-81.59 54.83-132.46 50.36-49.29-4.13-88.09-26.23-120.96-62.75-53.02-58.9-51.87-137.75-48.03-211.97.62-11.85 4.28-25.95 5.64-38 11.48-101.87 16.16-210.12-58.44-291.55-49.44-54.9-107.12-86.66-181.4-91.64-80.029-1.55-147.762 25.94-201.388 86.4-62.334 70.28-82.869 166.41-72.107 258.01 3.214 27.35 8.514 53.85 12.701 81.02 11.436 111.99-15.671 230.26-137.495 265.36-44.369 12.79-88.143 4.06-127.855-19.1-41.049-23.95-86.522-72.38-98.876-119.52a105.74 105.74 0 0 1 11.139-80.26 100.02 100.02 0 0 1 61.436-45.01c61.675-15.18 113.137 28.6 129.094 86.64 12.982 47.23-19.651 85.47-64.869 95.63 4.743-22.33 8.853-43.6 9.179-66.58.391-27.5-20.196-47.88-47.968-46.48a46.93 46.93 0 0 0-33.163 16.39c-21.552 24.91-12.167 64.25 11.64 82.73 81.14 62.98 159.572-27.15 169.568-107.14 4.636-37.09 2.989-70.31 5.77-105.65a695 695 0 0 1 15.14-97.62c9.211-40.53 22.872-77.75 40.267-115.4 57.548-124.55 147.555-211.71 291.157-220.99"/><path fill="#0f1d29" d="M946.52 1113.44c159.17-4.6 481 .36 613.47 87.64 16.29 10.73 33.69 26.01 37.36 46.17 2.3 12.63-1.39 26.09-8.89 36.37-41.55 56.9-204.81 82.91-271.54 92.87-13.24-20.29-25.14-42.09-39.88-61.38-47.27-61.89-106.48-100.35-181.29-119.76a309.65 309.65 0 0 0-152.97 2.76c-100.817 28.31-160.429 88.6-210.413 177.84-81.448-13.24-193.309-27.71-261.56-80.36-10.946-9.2-21.609-24.14-21.866-38.59-.682-38.33 50.821-66.4 80.948-78.57 129.209-52.21 278.76-59.13 416.631-64.99"/><path fill="#4c5a66" d="m775.768 1044.85.321-1.23c3.008-11.89 5.084-25.15 7.309-37.31 18.017-98.462 45.594-208.191 137.741-263.954a199.86 199.86 0 0 1 153.611-22.393c122.06 30.755 163.69 159.223 185.98 268.233 2.24 10.982 7.92 49.194 11.74 57.544 13.59 10.27 17.87 16.43 21.98 32.9-1.74 5.22-2.84 9.01-5.38 13.95a198 198 0 0 0 16.42 29.59c-45.52-4.32-90.97-8.08-136.46-11.22-119.75-8.26-239.164-4.36-358.683 5.2-23.24 1.86-46.569 4.66-69.874 6.23 7.699-11.28 12.239-17.68 17.055-30.37-7.772-19.92 3.672-34.84 18.24-47.17"/><path fill="#e79547" d="M1002.46 1042.25c-12.846-16.2-23.544-31.61-21.231-53.729a44.54 44.54 0 0 1 17.475-31.247c18.736-14.008 47.176-9.277 60.116 10.301a47.1 47.1 0 0 1 6.74 36.545c-3.42 14.81-12.93 27.37-23.68 37.73 34.94 12.48 65.73 15.55 101.35 2.48-13.99-11.21-27.09-24.85-29.11-43.71a41.72 41.72 0 0 1 9.89-31.551 46.05 46.05 0 0 1 32.84-16.129c27.1-1.344 48.13 18.479 48.52 45.589.23 16.071-8.23 31.031-18.72 42.711 25.73 12.1 61.49 19.24 89.48 24.35-1.12-5.57-3.18-14.49-3.66-19.85 13.59 10.27 17.87 16.43 21.98 32.9-1.74 5.22-2.84 9.01-5.38 13.95a198 198 0 0 0 16.42 29.59c-45.52-4.32-90.97-8.08-136.46-11.22-119.75-8.26-239.164-4.36-358.683 5.2-23.24 1.86-46.569 4.66-69.874 6.23 7.699-11.28 12.239-17.68 17.055-30.37-7.772-19.92 3.672-34.84 18.24-47.17-1.258 7.33-2.407 13.61-4.131 20.83 35.795-6.12 54.56-11.76 88.482-24.26-11.39-11.87-19.77-24.6-19.486-41.924.453-27.589 21.248-47.895 49.12-46.274a44.95 44.95 0 0 1 31.871 16.329c21.596 26.013 6.011 54.619-17.052 72.309-.602.46-1.212.91-1.828 1.36a127.78 127.78 0 0 0 98.506-.43c.4-.18.81-.36 1.21-.54"/><path fill="#4c5a66" d="M1023.53 1055.68c35.94 19.09 73.84 26.06 113.54 13.94 10.63-3.25 20.78-7.89 30.2-13.78 22.7 14.43 63.17 23.22 89.78 29.4 9.44 2.19 23.36 3.93 32.02 7.35a198 198 0 0 0 16.42 29.59c-45.52-4.32-90.97-8.08-136.46-11.22-119.75-8.26-239.164-4.36-358.683 5.2-23.24 1.86-46.569 4.66-69.874 6.23 7.699-11.28 12.239-17.68 17.055-30.37 26.265-.02 98.149-23.41 122.238-36.02 44.243 28.87 98.769 23.66 143.764-.32m-143.612-79.546c16.017-1.868 30.838 6.01 28.59 24.926-1.184 9.95-12.154 19.35-20.05 25.17-2.654 1.57-5.257 3.05-7.914 4.59-19.164-15.72-28.173-42.558-.626-54.686m274.262-.009c36.17-1.951 34.51 34.125 11.49 53.645-22.26-9.96-44.8-40.345-11.49-53.645m-135.08-3.946c7.11-.533 15.17-.009 19.59 6.122 13.76 19.045.7 36.999-12.63 49.019-8.91 2.46-42.804-38.295-6.96-55.141"/><path fill="#0f1d29" d="M511.444 1747.39c3.736.13 7.472.42 11.112 1.34a37.75 37.75 0 0 1 23.391 17.31c12.796 21.3 2.294 65.77-3.88 88.83-9.939-1.28-15.715-2.54-25.139-5.6-7.395-3.06-12.916-5.41-19.619-10.23-23.553-16.86-36.278-52-16.427-76.69 8.355-10.39 17.91-13.79 30.562-14.96m1016.086.77c60.32-5.94 67.39 67.07 11.55 98.24-12.34 5.83-20.06 7.12-33.46 8.61-3.71-16.97-6.24-33.12-8.08-50.36-2.77-25.98 1.9-48.07 29.99-56.49"/><metadata><recraft-signature>{&quot;signed_by&quot;: &quot;recraft&quot;, &quot;signature_b64&quot;: &quot;dy2N5Upet/cJkCCkqRtQp7hSX3V9Uf1OIWrTo2mq8urigTqqjdTR8Lvv1Aue/XqfC8AB48CZmYuafOmwd6ROCQ==&quot;, &quot;signing_algo&quot;: &quot;Ed25519&quot;, &quot;generation_timestamp&quot;: 1777251857, &quot;identifier&quot;: &quot;e5dc4f29-766b-4066-9d7e-c43bf8835cca&quot;}</recraft-signature></metadata></svg>