<svg xmlns="http://www.w3.org/2000/svg" width="1024" height="1024" preserveAspectRatio="none" style="display:block" viewBox="0 0 2048 2048"><defs><linearGradient id="a" x1="1242.55" x2="1241.25" y1="1272.78" y2="1286.31" gradientUnits="userSpaceOnUse"><stop class="stop0" offset="0" stop-color="#e2a76f"/><stop class="stop1" offset="1" stop-color="#ffdbab"/></linearGradient></defs><path fill="#fff" d="m0 1952.9 762.931.04 274.599-.01c36.9-.03 123.58-.64 164.37.28.02.01 4.98 3.83 7.61 2.7 56.31.01 111.91-3.09 168.14-3.04l670.35.11V2048H0z"/><path fill="#233748" d="M113.878 1948.99c12.568-28.67 41.294-47.08 69.612-57.5 27.645-10.17 68.464-19.44 96.579-6.7a57.62 57.62 0 0 1 30.826 33.41c4.327 12.29 1.305 20.69-6.111 30.8 8.396-.2 18.198-.19 26.466-.83 21.683-26.13 70.405-41.89 102.947-46.4 24.103-3.34 65.911 21.28 70.37 46.79 26.981.21 55.879.68 82.746-.39-35.721-35.28 50.072-58.01 74.396-54.69 36.96 5.06 80.947 23.48 102.131 54.91 68.915.99 139.297.5 208.314.46l231.976-.11c11.59-25.16 62.65-42.78 88.4-32.65 13.3 5.22 20.22 19.18 23.16 32.58l202.19.14c10.9-33.43 64.35-44.3 93.17-29.65 12.69 6.46 16.39 16.38 18.8 29.32 14.12.08 30.18.52 44.15.02 20.04-31.53 55.1-48.24 91.8-51.71 31.96-3.01 78.65 25.17 94.99 51.54 61.41 1.79 125.48-.24 187.21.65v4l-670.35-.11c-56.23-.05-111.83 3.05-168.14 3.04-2.63 1.13-7.59-2.69-7.61-2.7-40.79-.92-127.47-.31-164.37-.28l-274.599.01L0 1952.9v-4.12z"/><path fill="#d4985c" d="M1024.21 539.462c16.03 30.902 33.02 49.047 55.97 74.487 11.85 13.133 25.58 27.023 33.27 42.777 35.66-45.622 69.4-76.426 121.96-101.925-16.78 48.427-4.94 85.826 20.74 128.27 8.32 11.569 17.14 22.695 24.34 34.893l1.18-1.379c7.65-9.128 14.17-20.223 22.95-29.631 44.69-47.916 87.85-71.863 151.23-84.962-40.54 45.375-54.61 100.788-52.37 161.204.85 22.892 6.79 48.998 9.96 72.046 4.59 33.293 4.69 61.143 1.03 94.506 6.37-11 14.84-25.978 22.27-36.007 34.44-46.48 79.95-83.197 136.53-98.378 32.58-8.742 73.78-11.748 106.92-5.405 3.65.145 8.68.147 12.13.93-12.55 4.001-24.38 8.392-36.49 13.661-3.76 1.634-16.34 11.222-18.84 11.9-66.16 66.547-74.07 124.582-109.44 208.301l-.29 1.09c-1.89 6.92-8.2 19.27-6.89 24.79l1.54 1.21c70.85-27.11 163.9-33.04 238.79-23.87 4.38.52 7.47.99 11.94 1.29 10.61.26 22.71 1.81 33.14 3.63-7.32 1.99-12.54 3.26-19.99 4.57-80.1 27.18-116.02 80.07-174.11 136.05-56.63 54.57-129.68 97.08-207.98 109.76-10.72 6.16-73.12 7.48-87.64 9.04l-.26 1.27c3.88 2.51 6.11-.73 12.61 2.24 72.44 4.78 124.81 7.24 188.2 49.6 21.16 14.15 32.95 22.31 52.22 40.29 8.36 6.27 13.78 12.77 21.3 19.26l-2.59 2.66-.09 1.72c-85.25-35.38-137.21 15.43-210.89 40.12a267.3 267.3 0 0 1-111.07 11.71c-64.37-6.69-122.87-45.34-162.95-94.86-6-7.12-11.68-13.54-17.09-21.1-8.69-9.41-20.7-33.22-26.2-45.36-2.45-5.4-5.21-11.36-8.02-16.61-1.55-2.89-3.24-2.61-6-3.03-5.03 1.04-4 .02-6.53 3.24-1.76 9.61-.51 44.39-.58 55.71l-.16 107.64c.03 37.6-3.03 93.15 16.07 125.93-7.39 5.19-5.62-1.7-8.57-2.54-.35.14-.2.02-.43.38-.08 1.82 6.94 21.03 8.23 22.79 6.7 13.76 9.97 22.58 18.12 36.33 40.51 68.33 94.79 78.59 168.22 84.3 30.28 2.36 59.01 8.44 85.8 23.49 37.93 21.3 48.44 45.43 59.82 85.1-106.92-144.24-272.6 3.88-342.85-234.85l-1.85 1.51c6 45.28 16.75 103.19 52.65 135.5 26.54 23.89 68.01 35.41 88.5 64.56 12.62 17.96 12.82 50.03 8.29 70.72-15.18-63.31-62.25-64.78-106.93-103.56-47.33-41.07-53.39-111.85-57.16-170.72l-1.75 1.92c-3.06 55.44-11.24 126.82-54.676 166.27-32.385 29.41-76.73 41.21-98.712 79.01-5.278 9.08-8.211 18.55-11.705 28.37-7.296-57.28 4.268-81.91 56.098-109.38 26.832-14.22 53.622-31.58 66.547-59.99 15.144-31.78 20.878-65.35 26.908-99.79l-2.43.79c-16.912 53.05-37.149 99.8-89.276 127.09-40.711 21.31-79.183 22.33-122.897 28.41-42.808 5.96-99.71 31.4-123.658 69.07l-3.887-.06c10.504-45.27 32.083-70.18 75.48-88.53 51.871-21.94 105.866-10.39 158.56-31.05 53.357-20.92 74.852-56.65 97.021-106.53l-1.155-2.26c-29.131 53.02-62.256 82.46-120.791 101.4-78.57 25.43-269.388-22.96-333.993 16.23l-2.918-.65c16.363-20.04 35.626-26.46 55.272-40.51 12.585-8.99 24.571-18.95 37.865-28.24a213.6 213.6 0 0 1 47.141-24.94c63.379-23.82 101.6 8.36 163.998 18 42.036 6.5 79.051 5.82 114.922-19.76 24.741-17.9 47.666-46.1 50.706-77.88 7.65-79.96 1.42-162.21 3.65-242.61.07-2.7-.3-6.67-1.84-8.81l-3.85-.42c-3.51.12-6.47-.28-9.262 1.39-8.953 18.28-13.681 37.04-27.26 53.49-2.51 3.04-4.926 7.76-7.909 10.3-.495 1.02-.799 1.56-1.379 2.54-88.87 110.95-199.463 147.72-330.88 81.82-57.542-28.86-107.361-43.5-169.538-21.05-2.189 1.41-8.962 4.17-11.678 5.36 6.293-6.56 22.874-23.12 29.717-27.89 85.272-74.1 130.027-82.81 238.588-90.94l1.148-1.99c-1.094-1.88-2.839-1.82-6.055-1.96-13.501-.57-29.589-1.74-42.878-3.32-21.633-2.57-82.643-14.95-99.309-27.18-47.201-21.9-84.893-44.49-123.399-79.87-54.378-49.97-103.481-115.79-174.704-141.9-2.56-.79-4.745-1.42-7.339-2.08l-21.258-5.03a246 246 0 0 1 37.093-4.33c8.074-.58 13.644-1.33 21.997-1.57 64.704-5.29 121.952-3.34 185.253 13.07 13.014 3.38 30.859 7.82 42.537 14.01.12-7.34-5.149-13.99-6.46-23.01-30.282-73.162-48.111-151.163-106.623-208.505-3.39-3.084-7.002-5.903-10.487-8.88-19.562-12.67-29.479-14.851-51.591-22.516l14.81-1.63c37.03-3.567 73.304-4.078 109.401 6.79 71.061 21.397 119.898 70.771 154.908 133.825-3.373-25.303-4.027-66.501.619-91.645 16.526-89.423 20.091-161.915-41.748-237.17l5.529 1.282c54.276 12.718 96.824 35.142 136.07 75.145 14.925 15.212 22.57 23.086 34.088 41.673 11.704-21.431 27.245-35.572 38.484-61.637 15.725-36.469 20.488-64.211 6.863-101.818 38.594 13.629 98.184 65.154 119.908 101.133 29.275-40.867 68.704-71.908 90.454-117.345"/><path fill="#233748" d="M955.571 1267.8c-41.333-12.21-66.79-29-87.602-67.03a187.76 187.76 0 0 1-15.005-142.65c6.084-20.37 15.592-39.03 27.249-56.75 27.641-42.036 64.488-77.172 93.128-118.59 9.062-13.104 40.459-70.419 47.919-74.781 1.91-1.116 2.5-.99 4.57-.688 10.56 7.745 29.3 43.475 37.52 56.973 32.69 53.674 83.59 98.69 114.7 152.716a193.3 193.3 0 0 1 23.96 68c5.78 37.83-1.05 75.22-17.37 109.63-18.29 38.53-50.5 62.31-91.33 72.67 35.65-28.14 51.04-58.62 57.02-103.66 8.95-67.49-20.42-132.44-61.56-184.668a68 68 0 0 0-4.52-5.104l-1.34-.098c.96 3.519 22.73 34.63 27.25 41.39 52.02 77.57 61.52 215.54-40.21 259.56 3.38 2.4 4.07 1.36 8.32 1.53 20.99-4.15 36.07-8.41 55.13-18.04 8.92 4 26.5 7.89 36.63 10.26 17.58 4.92 38.07 11.09 55.7 14.97 32.53 7.15 69.38 10.83 102.68 12.38 72.44 4.78 124.81 7.24 188.2 49.6 21.16 14.15 32.95 22.31 52.22 40.29 8.36 6.27 13.78 12.77 21.3 19.26l-2.59 2.66-.09 1.72c-85.25-35.38-137.21 15.43-210.89 40.12a267.3 267.3 0 0 1-111.07 11.71c-64.37-6.69-122.87-45.34-162.95-94.86-6-7.12-11.68-13.54-17.09-21.1-8.69-9.41-20.7-33.22-26.2-45.36-2.45-5.4-5.21-11.36-8.02-16.61-1.55-2.89-3.24-2.61-6-3.03-5.03 1.04-4 .02-6.53 3.24-1.76 9.61-.51 44.39-.58 55.71l-.16 107.64c.03 37.6-3.03 93.15 16.07 125.93-7.39 5.19-5.62-1.7-8.57-2.54-.35.14-.2.02-.43.38-.08 1.82 6.94 21.03 8.23 22.79 6.7 13.76 9.97 22.58 18.12 36.33 40.51 68.33 94.79 78.59 168.22 84.3 30.28 2.36 59.01 8.44 85.8 23.49 37.93 21.3 48.44 45.43 59.82 85.1-106.92-144.24-272.6 3.88-342.85-234.85l-1.85 1.51c6 45.28 16.75 103.19 52.65 135.5 26.54 23.89 68.01 35.41 88.5 64.56 12.62 17.96 12.82 50.03 8.29 70.72-15.18-63.31-62.25-64.78-106.93-103.56-47.33-41.07-53.39-111.85-57.16-170.72l-1.75 1.92c-3.06 55.44-11.24 126.82-54.676 166.27-32.385 29.41-76.73 41.21-98.712 79.01-5.278 9.08-8.211 18.55-11.705 28.37-7.296-57.28 4.268-81.91 56.098-109.38 26.832-14.22 53.622-31.58 66.547-59.99 15.144-31.78 20.878-65.35 26.908-99.79l-2.43.79c-16.912 53.05-37.149 99.8-89.276 127.09-40.711 21.31-79.183 22.33-122.897 28.41-42.808 5.96-99.71 31.4-123.658 69.07l-3.887-.06c10.504-45.27 32.083-70.18 75.48-88.53 51.871-21.94 105.866-10.39 158.56-31.05 53.357-20.92 74.852-56.65 97.021-106.53l-1.155-2.26c-29.131 53.02-62.256 82.46-120.791 101.4-78.57 25.43-269.388-22.96-333.993 16.23l-2.918-.65c16.363-20.04 35.626-26.46 55.272-40.51 12.585-8.99 24.571-18.95 37.865-28.24a213.6 213.6 0 0 1 47.141-24.94c63.379-23.82 101.6 8.36 163.998 18 42.036 6.5 79.051 5.82 114.922-19.76 24.741-17.9 47.666-46.1 50.706-77.88 7.65-79.96 1.42-162.21 3.65-242.61.07-2.7-.3-6.67-1.84-8.81l-3.85-.42c-3.51.12-6.47-.28-9.262 1.39-8.953 18.28-13.681 37.04-27.26 53.49-2.51 3.04-4.926 7.76-7.909 10.3-.495 1.02-.799 1.56-1.379 2.54-88.87 110.95-199.463 147.72-330.88 81.82-57.542-28.86-107.361-43.5-169.538-21.05-2.189 1.41-8.962 4.17-11.678 5.36 6.293-6.56 22.874-23.12 29.717-27.89 85.272-74.1 130.027-82.81 238.588-90.94 13.736.01 35.355-2.67 49.119-4.1 5.58.08 18.645-2.02 24.716-2.78 42.52-5.37 81.987-19 123.167-30.38 26.845 11.08 44.705 18.6 73.954 18.92-9.13-3.59-23.091-8.53-30.825-14.09-30.116-21.65-46.767-52.74-53.422-88.38-13.9-74.44 16.385-134.31 56.461-193.094l-1.693-1.715c-51.229 69.509-83.37 153.579-44.743 237.209 10.565 22.87 23.08 34.25 41.938 50.29"/><path fill="#233748" d="M1045.23 1280.22c3-.32 6.47-.6 9.38-1.16 39.72 112.58 204.81 141.96 304.52 100.46 58.57-24.38 113.13-43.95 174.28-12.58 5.32 2.74 31.94 18.53 35.42 18.77 8.36 6.27 13.78 12.77 21.3 19.26l-2.59 2.66-.09 1.72c-85.25-35.38-137.21 15.43-210.89 40.12a267.3 267.3 0 0 1-111.07 11.71c-64.37-6.69-122.87-45.34-162.95-94.86-6-7.12-11.68-13.54-17.09-21.1-8.69-9.41-20.7-33.22-26.2-45.36-2.45-5.4-5.21-11.36-8.02-16.61-1.55-2.89-3.24-2.61-6-3.03"/><path fill="#d4985c" d="M1045.23 1280.22c3-.32 6.47-.6 9.38-1.16 39.72 112.58 204.81 141.96 304.52 100.46 58.57-24.38 113.13-43.95 174.28-12.58 5.32 2.74 31.94 18.53 35.42 18.77 8.36 6.27 13.78 12.77 21.3 19.26l-2.59 2.66c-52.35-43.47-113.73-65.98-180.2-41.5-27.51 10.13-51.56 21.38-80.37 28.52-78.88 19.54-150.11 3.73-218.66-37.42l-1.24 2.92c56.7 53.14 119.58 85.69 199.48 83.06 20.7-.72 41.28-3.47 61.44-8.2 5.75-1.35 36.7-11.49 39.31-11.43-2.05 4.19-9.45 6.2-13.82 7.7-109.81 37.67-206.95 9.27-290.05-68.06l-.89 3.1c-6-7.12-11.68-13.54-17.09-21.1-8.69-9.41-20.7-33.22-26.2-45.36-2.45-5.4-5.21-11.36-8.02-16.61-1.55-2.89-3.24-2.61-6-3.03"/><path fill="#76583d" d="M1085.45 1345.22c2.77.9 5.87 3.69 7.1 6.3 2.36 5.01 7.95 8.1 10.88 11.7l-.89 3.1c-6-7.12-11.68-13.54-17.09-21.1"/><path fill="#54463b" d="M1101.59 1352.54c2.67 2.11 3.82 2.89 6.72 4.69l-1.24 2.92c-2.32-2.33-3.64-3.8-6.21-5.93z"/><path fill="#76583d" d="M1100.86 1354.22c-.6-.56-3.27-2.56-3.07-3.75 1.19-.75 3.03 1.34 3.8 2.07z"/><path fill="#233748" d="M993.914 1279.02c4.187.68 8.386 1.31 12.586 1.88-3.51.12-6.47-.28-9.262 1.39-8.953 18.28-13.681 37.04-27.26 53.49-2.51 3.04-4.926 7.76-7.909 10.3-.495 1.02-.799 1.56-1.379 2.54-88.87 110.95-199.463 147.72-330.88 81.82-57.542-28.86-107.361-43.5-169.538-21.05-2.189 1.41-8.962 4.17-11.678 5.36 6.293-6.56 22.874-23.12 29.717-27.89 5.339-.73 12.537-6.36 17.543-9.26 47.699-27.62 93.216-34.97 146.254-16.29 27.155 11.32 53.603 20.51 81.719 29.07 84.81 25.82 245.309-13.7 270.087-111.36"/><path fill="#d4985c" d="M993.914 1279.02c4.187.68 8.386 1.31 12.586 1.88-3.51.12-6.47-.28-9.262 1.39-8.953 18.28-13.681 37.04-27.26 53.49-2.51 3.04-4.926 7.76-7.909 10.3-.495 1.02-.799 1.56-1.379 2.54l-2.068-.35c-40.831 51.1-112.912 89.87-177.8 97.06-37.82 4.17-76.092.71-112.554-10.16-7.205-2.1-18.752-5.54-24.989-9.53l-.721-1.63c6.555.16 17.379 5.67 24.366 7.38 12.198 2.99 23.939 5.74 36.337 7.79 89.181 14.71 166.018-11.85 231.46-72.46 3.429-3.18 7.623-7.44 10.638-11.03l-1.762-.99c-65.437 42.55-134.712 58.11-211.953 42.55-32.576-6.57-59.235-19.2-89.584-30.35-55.024-20.22-106.052-11.09-153.618 21.71-4.189 2.89-27.413 17.42-28.516 20.38l.346.4c-2.189 1.41-8.962 4.17-11.678 5.36 6.293-6.56 22.874-23.12 29.717-27.89 5.339-.73 12.537-6.36 17.543-9.26 47.699-27.62 93.216-34.97 146.254-16.29 27.155 11.32 53.603 20.51 81.719 29.07 84.81 25.82 245.309-13.7 270.087-111.36"/><path fill="#76583d" d="M943.597 1354.7c7.993-6.33 6.362-3.77 1.762.99z"/><path fill="#b0865a" d="M958.622 1348.27c.936-2.11 1.107-1.73 3.447-2.19-.495 1.02-.799 1.56-1.379 2.54z"/><path fill="#868c97" d="M996.338 1589.09c.112-.38 7.072-17.61 6.992-17.52l.07.03-.06.03-.28.73.58.67c-.22 4.29-4.065 14.38-6.147 18.32z"/><path fill="#b0865a" d="M958.376 980.301c7.786-10.668 10.249-8.557 1.693 1.715z"/><path fill="#868c97" d="M1006.15 1592.95c.64-2.4 1.86-11.22 3.97-12.45l.19.06c.23.99-1.49 10.46-1.73 11.6z"/><path fill="#b0865a" d="M1078.27 1276.25c-1.69.34-14.51 2.69-14.43.8 1.47-1.15 4.22-2.01 6.11-2.33 3.38 2.4 4.07 1.36 8.32 1.53"/><path fill="#868c97" d="M1039.43 1583.28c-.43-1.85-1-4.05 0-5.78 1.19-.44 2.69 7.05 3.2 8.33z"/><path fill="#b6bbc1" d="m1026.23 1577.97-.36 7.78-1.75 1.92-.3-4.62c.82-1.69 1.62-3.38 2.41-5.08"/><path fill="#5a636e" d="M1023.82 1583.05c.06-1.37.01-7.89 1.23-8.89.83.03.88 1.38.95 2.01l.23 1.8c-.79 1.7-1.59 3.39-2.41 5.08"/><path fill="#b6bbc1" d="m1039.43 1583.28 3.2 2.55-.26 1.91-1.85 1.51c-.5-2.14-.75-3.81-1.09-5.97"/><path fill="#fff" d="m981.34 1597.92 1.79 2.17c-82.075 121.58-205.675 54.6-320.941 52.38-8.455-.16-25.616.67-33.764 3.05l-1.054-2.13c22.49-6.81 45.46-16.84 68.04-19.93 45.149-6.17 72.745 10.83 113.409 24.05 17.78 5.77 46.583 6.53 65.49 3.87a161.04 161.04 0 0 0 107.03-63.46"/><path fill="#b6bbc1" d="M981.34 1597.92c4.234-6.27 9.975-15.45 14.202-21.01l2.071-2.78c-3.959 8.18-9.169 18.69-14.483 25.96z"/><path fill="#868c97" d="M628.425 1655.52c-2.231.52-15.716 5.63-16.121 3.95.785-1.24 13.105-5.65 15.067-6.08z"/><path fill="#233748" d="M1024.21 539.462c16.03 30.902 33.02 49.047 55.97 74.487 11.85 13.133 25.58 27.023 33.27 42.777 35.66-45.622 69.4-76.426 121.96-101.925-16.78 48.427-4.94 85.826 20.74 128.27l-1.53 3.289c-10.06-13.714-25.4-33.472-40-41.662 19.59 41.378 11.3 82.007-11.02 120.19-5.98-23.043-16.82-33.044-36.23-46.338-10.94-7.487-23.32-16.395-35.14-22.227l1.04 1.183c17.57 19.892 64.33 40.239 65.49 69.058.36 8.847-24.42 33.908-31.27 41.485-2.93-17.568-9.77-41.915-20.18-56.003-17.88-24.194-15.74-43.658-24.81-70.179-1.89-5.523-12.82-14.998-17.78-19.339-5.02 23.002-22.73 34.118-44.4 38.684-14.33-27.131-23.12-22.667-36.33-40.532-14.75 19.318-25.768 17.876-35.842 40.484-22.943-6.307-38.225-15.737-45.998-39.655-21.502 24.653-18.409 30.67-24.982 61.241-1.692 7.867-11.228 21.523-15.008 29.199-12.302 20.575-16.341 32.769-20.733 55.95-8.666-9.789-25.178-26.926-30.691-37.396-1.517-1.551-3.041-1.945-4.023-3.489-27.319-39.959-29.742-78.357-13.793-123.366-45.356 36.892-121.953 170.607-142.811 226.934a376.6 376.6 0 0 0-21.097 91.281c-13.284 130.757 60.423 230.787 179.424 277.687l-.462 2.01c-9.487-2.73-20.002-4.6-29.679-7.46-22.346-6.61-45.179-13.78-66.512-23.15-84.634-37.2-142.666-104.04-183.181-185.48-11.224-22.62-20.523-47.18-31.58-69.776-31.807-65.002-79.681-128.204-147.706-157.774-5.553-2.414-15.895-4.949-20.203-7.362l.521-1.329c37.03-3.567 73.304-4.078 109.401 6.79 71.061 21.397 119.898 70.771 154.908 133.825-3.373-25.303-4.027-66.501.619-91.645 16.526-89.423 20.091-161.915-41.748-237.17l5.529 1.282c54.276 12.718 96.824 35.142 136.07 75.145 14.925 15.212 22.57 23.086 34.088 41.673 11.704-21.431 27.245-35.572 38.484-61.637 15.725-36.469 20.488-64.211 6.863-101.818 38.594 13.629 98.184 65.154 119.908 101.133 29.275-40.867 68.704-71.908 90.454-117.345"/><path fill="#d4985c" d="M846.713 767.014c1.143-15.79 7.297-25.383 19.658-35.639 12.967-10.76 35-28.038 49.671-35.186-11.985 12.254-25.811 22.03-38.986 32.947-15.053 12.471-24.523 21.19-26.32 41.367-1.517-1.551-3.041-1.945-4.023-3.489"/><path fill="#233748" d="m1280.49 717.964 1.18-1.379c7.65-9.128 14.17-20.223 22.95-29.631 44.69-47.916 87.85-71.863 151.23-84.962-40.54 45.375-54.61 100.788-52.37 161.204.85 22.892 6.79 48.998 9.96 72.046 4.59 33.293 4.69 61.143 1.03 94.506 6.37-11 14.84-25.978 22.27-36.007 34.44-46.48 79.95-83.197 136.53-98.378 32.58-8.742 73.78-11.748 106.92-5.405l-1.79.767c-42.91 18.096-58.73 25.529-93.17 59.226-54.66 53.474-78.98 120.16-110.94 187.729-35.92 72.24-100.43 140.81-175.11 173.15-31.88 13.81-69.89 24.25-104.01 31.65l-1.29-1.87c49.08-17.18 80.92-36.66 117.75-74.27 59.84-61.1 79.42-140.24 66.17-223.494-13.23-83.111-54.55-152.206-99.5-221.859z"/><path fill="#233748" d="M1521.91 1051.84c70.85-27.11 163.9-33.04 238.79-23.87l1.19 2.99c-19.39.45-39.29 5.81-57.95 9.99-107.16 24.03-186.74 98.27-278.47 152.27-48.39 28.47-107.94 50.68-163.87 56.71-24.78 2.68-42.93 5.31-68.43 3.66l.17-.6c21.33-3.79 42.92-4.31 66.44-8.9 94.69-18.51 173.78-60.62 229.96-140.97 6.83-9.81 13.18-19.95 19.04-30.37 2.63-4.79 8.81-19.54 13.13-20.91M418.852 819.733c18.564 10.602 30.748 23.398 45.444 38.044 48.88 48.712 71.156 108.905 99.867 169.833 40.744 86.45 112.996 163.46 204.511 195.6 13.297 4.65 64.03 22.82 77.102 21.95-1.303.26-2.571.56-3.866.85-125.974-10.03-246.949-69.27-303.748-187.05-4.116-8.54-9.309-19.41-14.176-27.45l-.461-.75c-30.282-73.162-48.111-151.163-106.623-208.505z"/><path fill="#233748" d="M302.195 1026.69c64.704-5.29 121.952-3.34 185.253 13.07 13.014 3.38 30.859 7.82 42.537 14.01 9.966 18.73 17.845 33.45 29.571 50.81 42.553 62.97 108.256 105.17 180.428 126.58 26.69 7.92 90.532 22.97 118.081 20.73l-.842 2.13c-33.406.37-61.96-.97-94.81-7.27-98.166-18.84-175.219-75.61-256.009-130.98-60.376-41.38-133.656-75.42-207.367-83.93-1.737-3.73-1.785-1.73 1.613-4.07zm908.645 217.43c18.31-4.03 30.15-7.63 47.7-12.88 98.93-29.62 172.52-99.22 219.23-189.71 16.29-31.55 30.16-66.862 46.62-98.581 21.59-41.607 51.29-81.519 88.1-110.915 6.19-4.942 17.02-13.234 24.5-15.585-66.16 66.547-74.07 124.582-109.44 208.301-4.82 8.67-9.76 19.11-13.97 28.04-51.39 108.99-155.64 173.88-273.1 188.66-8.72 1.09-19.24 2.31-27.88 3.95z"/><path fill="#233748" d="M1168.84 1261.35c38.3 6.84 91.07 14.33 129.65 14.58a429.84 429.84 0 0 0 253.73-83.29c63.25-45.52 112.27-112.99 183.85-145.11 8.07-3.62 42.09-13.33 49.72-10.07-80.1 27.18-116.02 80.07-174.11 136.05-56.63 54.57-129.68 97.08-207.98 109.76-10.72 6.16-73.12 7.48-87.64 9.04l-.26 1.27c3.88 2.51 6.11-.73 12.61 2.24-33.3-1.55-70.15-5.23-102.68-12.38-17.63-3.88-38.12-10.05-55.7-14.97.48-2.04.42-1.42 1.91-3.25l-4.59-1.44z"/><path fill="url(#a)" d="M1171.94 1265.22c51.56 13.8 109.61 25.28 163.19 23.65 13.34-.45 26.66-1.34 39.94-2.67 4.51-.46 25.81-3.25 28.63-2.93-10.72 6.16-73.12 7.48-87.64 9.04l-.26 1.27c3.88 2.51 6.11-.73 12.61 2.24-33.3-1.55-70.15-5.23-102.68-12.38-17.63-3.88-38.12-10.05-55.7-14.97.48-2.04.42-1.42 1.91-3.25"/><path fill="#233748" d="M278.345 1037.44c62.791 10.66 117.615 65.84 162.483 109.06 78.807 75.91 180.454 124.27 290.376 129.51 39.911 1.9 107.616-6.62 147.879-14.36l.846 2.17c-27.797 9.14-56.522 14.79-85.378 19.42-4.176.67-31.763 3.72-33.351 4.57l.79.86c-6.268.66-18.649 1.56-24.167 3.34 10.432 1.3 17.041-2.17 28.195-.19-13.764 1.43-35.383 4.11-49.119 4.1l1.148-1.99c-1.094-1.88-2.839-1.82-6.055-1.96-13.501-.57-29.589-1.74-42.878-3.32-21.633-2.57-82.643-14.95-99.309-27.18-47.201-21.9-84.893-44.49-123.399-79.87-54.378-49.97-103.481-115.79-174.704-141.9 2.764-1.21 3.742-1.46 6.643-2.26"/><path fill="#fedaad" d="M569.805 1261.47c72.07 23.84 113.849 31.18 191.395 26.34l.79.86c-6.268.66-18.649 1.56-24.167 3.34 10.432 1.3 17.041-2.17 28.195-.19-13.764 1.43-35.383 4.11-49.119 4.1l1.148-1.99c-1.094-1.88-2.839-1.82-6.055-1.96-13.501-.57-29.589-1.74-42.878-3.32-21.633-2.57-82.643-14.95-99.309-27.18"/><path fill="#233748" d="M1256.15 683.071c8.32 11.569 17.14 22.695 24.34 34.893l-2.19 3.023c-7.33-9.827-14.59-21.486-21.65-31.691l-2.03-2.936z"/><path fill="#54463b" d="M280.198 1028.26c8.074-.58 13.644-1.33 21.997-1.57l-1.545 1.08c-3.398 2.34-3.35.34-1.613 4.07-2.737-.03-18.243-.8-18.839-3.58m874.262 233.39c.12-3.06 12.5-.86 14.38-.3l-1.49 2.43c-6.3-1.14-6.32-1.65-12.89-2.13M406.415 813.375c3.756.183 9.062 4.127 12.437 6.358l-1.95 2.522c-3.39-3.084-7.002-5.903-10.487-8.88"/><path fill="#76583d" d="M845.776 1245.16c1.651.17 14.242 1.14 15.047 2.04l-.032.29-.194-.24c-.722-.05-.294-.11-1.144.61-2.594.36-14.428-.96-17.543-1.85 1.295-.29 2.563-.59 3.866-.85"/><path fill="#54463b" d="M1760.7 1027.97c4.38.52 7.47.99 11.94 1.29-.29 2.88-8.42 1.73-10.75 1.7z"/><path fill="#172229" d="M264.363 1037.62c.283-2.51 11.512-.41 13.982-.18-2.901.8-3.879 1.05-6.643 2.26-2.56-.79-4.745-1.42-7.339-2.08"/><path fill="#54463b" d="m1193.88 1240.61 1.29 1.87c-6.46 1.17-10.21 1.49-16.67 2.12 4.82-1.39 10.45-3.2 15.38-3.99m-314.797 21.04c5.201-1.1 8.871-1.54 14.031-2.19a246 246 0 0 1-13.185 4.36z"/><path fill="#76583d" d="M1212.6 1245.4c-1.12.21-8.8 1.32-9.31.59.21-1.3 6.38-1.73 7.55-1.87z"/><path fill="#54463b" d="M848.436 1239.55c2.017.48 4.903 1.3 6.543 2.57l.04-.08.099.24.189.09-.03.17c-.969.52-5.84-.74-7.303-.98z"/><path fill="#76583d" d="M858.065 1251.89c.718.09 5.01.28 5.246 1.48-.721.97-5.001.64-6.088.65z"/><path fill="#233748" d="M1227.27 661.48c25.3 29.242 40.92 55.64 62.07 86.605 89.65 131.26 140.4 313.205-.04 432.905-31.87 27.16-59.85 40.73-98.94 56.29l-.45-1.46c61.27-28.18 109.09-73.33 132.83-137.44 26.32-71.08 16.92-155.473-14.6-223.439-6.73-14.5-16.08-32.067-25.87-44.619l-.43.735c2.9 8.318 8.8 15.404 12.83 23.091 42.19 80.519 56.34 178.422 16.07 262.862-32.36 67.84-82.52 97.55-147.13 127.95 5.31-5.3 15.21-11.07 21.66-15.68a374 374 0 0 0 32.08-25.74c78.49-69.98 109.02-179.66 88.79-282.121-1.1-5.541-4.41-19.35-7.91-23.52 4.14 18.817 8.48 36.989 10.14 56.149 9.33 107.452-36.02 213.432-127.02 273.872-9.95 6.6-18.46 12.15-29.93 16.16 8.47-7.4 17.1-14.82 23.92-23.76 19.81-25.98 31.44-65.93 33.32-98.11 4.05-69.23-27.57-117.9-69.94-168.489-8.65-10.324-23.8-27.693-31.02-38 10.89-26.155 23.66-52.815 40.82-75.709 48.48-64.666 94.36-88.716 78.75-178.532M846.593 1233.4a314 314 0 0 1-79.759-46.24 249.28 249.28 0 0 1-93.259-166.81c-13.229-123.875 62.427-243.461 132.589-339.698 4.847-6.648 10.635-13.386 15.845-19.829-19.761 91.387 38.055 122.016 83.972 187.922 16.434 23.588 24.941 41.244 34.927 67.602-8.317 11.563-23.561 28.599-33.081 39.929-38.287 45.574-66.88 90.184-67.314 152.094-.37 52.69 16.821 97.97 54.074 135.65-42.445-24.35-68.213-38.55-98.679-80.44-49.171-67.62-64.848-149.75-52.584-231.234l-1.915-4.319c-14.715 80.733 1.288 162.373 46.706 231.373 17.787 27.02 61.622 68.1 92.192 80.44l-.328.69c-4.813.11-10.58-3.23-15.105-5.05-93.363-37.58-151.121-121.15-151.744-222.06-.306-49.495 13.077-98.464 33.222-143.733 6.242-14.141 12.703-25.145 19.28-38.566l-.534-.432c-5.982 5.603-11.755 18.749-15.615 26.101-53.626 102.133-59.531 232.9 24.322 321.5 18.299 19.33 49.251 43.07 74.685 53.79z"/><path fill="#d6a470" d="M741.409 928.027c.576-4.282 5.196-26.89 7.6-29.133l.299-.072c.9.707-5.428 30.444-5.984 33.524z"/><path fill="#233748" d="M1023.9 669.753c5.85 3.904 20.73 15.29 23.8 20.546 18.07 30.984 26.51 60.729 52.8 87.311 18.99 19.194 29.35 42.526 37.34 68.367-14.74 23.964-22.47 39.423-33.45 65.385a472.4 472.4 0 0 1-41.08-57.202c-8.94-14.717-17.28-31.139-27.64-44.824-3.55-4.693-6.12-6.003-11.49-8.139-14.41 4.469-31.645 41.041-39.638 54.13a521.5 521.5 0 0 1-40.046 56.212c-11.885-29.134-18.041-40.168-34.519-66.458 9.002-23.976 15.244-40.865 32.457-61.29 9.574-11.361 20.88-22.294 28.604-35.01 10.855-17.507 16.351-39.102 28.109-55.954 5.963-8.544 17.433-14.719 24.753-23.074M301.219 1038.25c15.107.8 36.006 5.51 50.753 9.24 95.387 24.12 166.468 85.85 247.459 136.9 47.65 30.04 100.606 53.99 155.906 65.94 33.026 7.13 66.534 7.8 100.383 7.56 7.662-1.2 19.685-1.03 27.907-1.24-5.774 1.95-7.64 2.38-13.847 3.22-9.929 3.07-42.979 6.75-54.079 8.38-25.822 3.78-57.921 5.82-84.08 4.5-85.628-4.31-173.133-37.34-241.252-89.27-49.458-37.7-88.086-84.03-139.243-119.11-17.304-11.87-32.085-17-49.907-26.12"/><path fill="#172229" d="M883.627 1256.65c-5.774 1.95-7.64 2.38-13.847 3.22-.496-2.41-10.539-1.52-14.06-1.98 7.662-1.2 19.685-1.03 27.907-1.24"/><path fill="#233748" d="M1199.18 1257.93c127.04.21 211.73-41.84 312.74-115.11 67.14-48.71 140.19-89.79 223.27-102.36 1.44.65 1.48.9 2.81 2.17-52.77 21.26-93.75 64.75-133.99 102.4-103.91 97.19-231.34 143.71-373.18 122.84-17.71-2.61-36.79-4.46-54.74-8.42-1.61-.37-3.07-.44-4.67-.82-1.49-.35-.95-1.26-.95-1.26 8.55-.7 20.3-.97 28.71.56"/><path fill="#54463b" d="M1176.09 1259.45c-1.61-.37-3.07-.44-4.67-.82-1.49-.35-.95-1.26-.95-1.26 8.55-.7 20.3-.97 28.71.56-9.43 1.08-17.65-1.93-23.09 1.52"/><path fill="#233748" d="M1107.64 672.506c19.37 12.76 13.96 35.225 20.55 54.169 3.67 9.192 8.78 18.844 14.03 27.232 12.3 19.655 17.51 35.516 21.07 58.265-6.44 10.101-14.12 18.835-22.15 27.688-1.94-7.096-3.46-11.48-6.11-18.36-13.26-31.813-30.48-45.19-50.55-71.72-8.22-10.863-16.25-30.468-21.76-43.254 21.7-5.13 34.55-14.207 44.92-34.02m-168.094-.852c1.362 1.308 4.316 7.11 6.407 9.539 11.021 12.797 23.13 22.834 40.667 24.16-12.329 27.626-22.406 48.917-43.768 70.521-11.268 11.394-21.162 28.24-27.829 42.82-2.831 6.5-5.632 14.104-8.271 20.769-7.044-8.507-15.013-17.429-20.973-26.625 3.675-39.514 20.652-52.436 34.591-84.562 9.641-22.22-.826-29.254 19.176-56.622"/><path fill="#76583d" d="M848.49 1232.08c1.645.73 18.123 7.45 18.136 7.47l-.434.21.133.02c-5.162-.18-14.696-4.28-19.732-6.38z"/><path fill="#54463b" d="M1735.19 1040.46c2.04-.71 10.8-1.69 12.86-.97l-.28-.2-.19.36c-3.33.75-6.27 2.03-9.58 2.98-1.33-1.27-1.37-1.52-2.81-2.17"/><path fill="#76583d" d="M1190.36 1237.28c-1.52.65-10.28 5.22-10.83 4 .63-.98 7.35-4.12 8.65-4.68l1.73-.78zm-306.743 19.3c1.537-.35 2.105-1.04 2.958.45-1.478.33-1.833.75-2.958-.45"/><path fill="#233748" d="M1053.26 1593.37c-1.29-1.76-8.31-20.97-8.23-22.79.23-.36.08-.24.43-.38 2.95.84 1.18 7.73 8.57 2.54 1.24 1.2 1.3 1.78 2.21 3.25 2.32 3.69 4.9 7.22 7.72 10.56.77.91 1.09 1.35 1.73 2.31 67.5 71.18 150.21 41.12 229.94 18.67 55.65-15.67 110.83 17.53 151.67 51.5 26.88 21.42 49.47 24.5 71.12 55.61-29.49-23.98-43.96-20.03-80.06-23.16-78.86-6.85-178.07 18.51-254.24 1.08a198.8 198.8 0 0 1-75.66-36.31 191.3 191.3 0 0 1-53.1-63.67z"/><path fill="#fff" d="m1063.36 1591.82.08.3c27.37 36.78 65.01 61.54 110.7 68.97 18.28 2.98 50.81 2.42 68.1-3.36 40.43-13.54 68.06-30.83 113.38-24.16 21.51 3.17 43.37 12.06 64.25 19.64l-.77 2.05c-73.44-14.71-177.05 31.8-252.74 13.9-48.74-11.52-79.14-35.49-105.59-76.83z"/><path fill="#5a636e" d="M1053.26 1593.37c-1.29-1.76-8.31-20.97-8.23-22.79.23-.36.08-.24.43-.38 2.95.84 1.18 7.73 8.57 2.54 1.24 1.2 1.3 1.78 2.21 3.25 2.32 3.69 4.9 7.22 7.72 10.56.77.91 1.09 1.35 1.73 2.31-.77 1.07-1.52 2.16-2.25 3.26l-.08-.3-2.59.51c-2.58-3.68-4.93-6.78-7.07-10.76-3.85-7.39-4.2-.68-2.09 2.51.69 1.04 3.2 7.14 3.75 8.5z"/><path fill="#868c97" d="M1053.7 1581.57c3.41 1.25 6.86 7.28 9.66 10.25l-2.59.51c-2.58-3.68-4.93-6.78-7.07-10.76m366.17 71.64c2.21.7 16.08 5.19 16.92 6.25-.16 1.1-3.82-.16-4.31-.29-4.5-1.24-8.98-2.38-13.38-3.91z"/><path fill="#d5222c" d="M1035.34 1801.12c.81-.71 3.1-3.27 4.1-3.34 1.05.68 1.52 3.05 1.98 4.16 12.82 24.16 15.46 15.21 33.35 30.8 1.22 1.27 2.45 2.45 3.82 3.57.33 2.68 1.3 5.37-.83 7.51-6.05 6.11-17.32 7.27-24.57 3.01l-1.23.68c.98 8.79-6.09 16.12-14.43 11.47-1.51-2.41-2.39-3.9-2.17-6.94l-.68-3.17-7.48-1.5c-.53 1.4-.63 1.54-1.44 2.79-8 10.68-14.07 11.58-14.13-3.62l-.26-1.65c-5.95-.43-17.103-3.11-25.132-3.86-9.87 5.37-17.266 14.9-26.931 18.22-1.247.43-1.571-.4-2.761-1.5-.673-4.59-.067-5.73 1.094-10.39 2.066-2.22 2.42-2.31 3.634-5.02l-2.722-2.16-.174.71c.987-3.13 3.259-4.45 5.792-6.36l-.986-3.07c.985-3.53-5.218-9.38-1.374-16.07 6.595-1.29 17.886 10.43 25.019 11.29 5.561.67 14.351-5.88 19.131-8.94 1.1.32 2.21.61 3.32.9.94-2.41 1.1-3.58 2.97-5.33q1.575 2.025 3.06 4.11l2.64-4.48c3.54-1.46 3.44-1.88 5.53-5.03 2.58-.68 9.35-5.2 11.86-6.79"/><path fill="#d5222c" d="M1011.63 1846.54c7.66.87 6.88 1.21 14.13 3.62-8 10.68-14.07 11.58-14.13-3.62"/><path fill="#dd2d3b" d="M1023.48 1807.91c2.58-.68 9.35-5.2 11.86-6.79.45 3.14.65 3.98 1.56 7-.43.94-.97 1.29-1.74 2.04-3.02-1.07-4.48 1.16-6.1 3.69-1.84-2.2-3.31-4.21-5.58-5.94"/><path fill="#f7d8d9" d="M1051.96 1847.51c-2.7-3.36-4.8-7.92-4.62-12.51.13-3.28 2.74-8.81 6.74-9.07.38-.02.4.18.48.35-.16.95-1.48 2.01-2.03 2.61-5.19 5.58-1.3 12.22.66 17.94z"/><path fill="#dd2d3b" d="M1074.77 1832.74c1.22 1.27 2.45 2.45 3.82 3.57-4.71-.35-6.83 3.73-9.1 1.47-5.36-5.34.72-4.49 3.42-4.81z"/><path fill="#e2535d" d="M1011.37 1844.89c6.97.04 9.12.86 15.83 2.48-.53 1.4-.63 1.54-1.44 2.79-7.25-2.41-6.47-2.75-14.13-3.62zm23.97-43.77c.81-.71 3.1-3.27 4.1-3.34 1.05.68 1.52 3.05 1.98 4.16-2.17 2.3-2.74 3.51-4.52 6.18-.91-3.02-1.11-3.86-1.56-7"/><path fill="#fff" d="M1034.68 1848.87c13.9.85 15.72 3.19.68 3.17z"/><path fill="#e2535d" d="M1029.06 1813.85c1.62-2.53 3.08-4.76 6.1-3.69-1.82 3.85-1.91 3.91-6.1 3.69"/><path fill="#172229" d="M437.068 1795.25c5.612.11 32.425 9.49 38.954 11.59a991 991 0 0 0 37.376 11.09 960 960 0 0 0 86.897 19.67c82.878 15.17 166.783 23.07 250.764 29.33 22.985 1.71 45.837 1.86 68.72 3.39l.854 2.22c-11.463.37-27.89-.81-39.616-1.38-24.513-1.1-49.001-2.7-73.45-4.8-121.569-10.51-241.765-24.87-357.312-65.02-3.599-1.25-11.282-2.95-13.187-6.09"/><path fill="#233748" d="M862.739 1908.47c.892-.07 1.785-.12 2.678-.17 15.753-.6 36.745.04 52.831.04l109.472.05 88.64-.19c17.49-.08 35.22-.21 52.72.19 4.53.1 4.72-.15 7.29 2.21-8.85 1.2-30.27.53-40.5.49l-72.72-.07-141.67.14c-9.403 0-51.191.65-57.77-.66zm509.061-59.08c3.05-.57 3.6-.4 6.64-.21l-.34 1.22c-5.92 2.49-26.05 4.27-33.34 5.31-63.73 9.07-127.29 11.96-191.31 16.17-3.29.18-3.25.28-6.41-.5l-.76-1.26c4.47-1.81 106.98-7.31 120.7-8.54 35.02-3.37 69.96-7.43 104.82-12.19M687.147 1558.4c1.049-.17 2.387-.05 3.503-.03l.119 1.25c-4.43 2.17-45.859 7.74-54.784 9.2a942 942 0 0 0-40.811 7.68c-44.804 9.37-79.818 19.07-122.942 32.77-1.705.6-.693.41-3.084.22l.541-1.28c5.671-3.68 23.562-8.17 31.295-10.58 61.613-19.2 122.37-30.45 186.163-39.23m909.383 168.39.47 1.88c-.33.81-.78 2.04-1.39 2.57-47.45 41.35-138.6 65.54-197.03 75.64l-.13-.9c2.5-2.99 21.89-5.6 27.58-6.91a752 752 0 0 0 85.23-24.8c31.58-11.52 60.14-24.62 85.27-47.48"/><path fill="#172229" d="m455.619 1731.17-1.527-1.91.775-.78c5.068 2.95 7.75 6.51 12.242 9.7 32.538 23.1 75.037 38.39 112.942 49.2a691 691 0 0 0 35.831 9.26c7.608 1.73 19.42 3.85 26.338 6.46l.07.97c-5.254 1.38-21.684-3.39-27.858-4.98-47.497-12.24-119.662-31.2-156.259-65.23-1.331-1.11-1.45-1.3-2.554-2.69"/><path fill="#233748" d="M611.659 1614.36c.75.47.261.08 1.003 1.57-2.239 1.4-19.666 5.21-23.727 6.26-49.269 12.82-98.631 28.76-137.288 63.4l-.989-1.17.265-1.88c35.628-34.19 112.297-59.56 160.736-68.18m954.411 194.81.89.76-.75 1.34c-12.46 4.71-29.02 8.8-42.05 12.17-42.49 10.72-85.54 19.1-128.95 25.1-.92-.45-.39-.07-1.14-1.57 3.43-2.18 21.95-4.28 26.78-4.99 49.61-7.27 97.09-18.99 145.22-32.81m-774.313-236.75c3.708-.44 2.272-.97 4.937.49-3.637 2.62-14.998 3.51-19.911 4.03-39.028 4.21-77.235 11.97-115.591 20.33-3.04.6-1.556.67-4.602-.37l.098-1.05c8.503-3.22 26.042-5.94 35.545-8.03 33.642-7.39 65.426-11.53 99.524-15.4"/><path fill="#172229" d="M1466.3 1616.19c3.78-.16 4.52.15 8.09 1.21 28.66 8.5 112.23 41.86 125.88 67.84-2.84-.82-21.96-18.12-28.79-22.12-26.83-15.68-54.29-28.66-83.98-38.1-4.79-1.53-18.4-5.3-21.2-8.83m112.38-8.1c6.25.56 16.98 4.8 23.21 7.26 32.16 12.72 65.26 28.41 92.05 50.5 4.39 3.62 15.61 13.26 16.11 18.9l-1.23.12c-24.53-30.21-61.96-47.44-97.07-62.68-7.69-3.33-27.51-9.96-33.07-14.1m-869.156 203.35c24.379.94 50.881 4.74 75.534 6.22 20.291 1.22 40.969 2.67 61.254 4.12 3.868.28 3.705.2 6.047 2.16-10.486.51-26.021-.75-36.782-1.42a2208 2208 0 0 1-77.081-6.31c-5.824-.55-24.402-1.69-28.59-2.87z"/><path fill="#233748" d="M943.236 1559.58c4.922-.44 6.336-.88 10.964.38l-.284.99c-7.524 1.83-43.13 3.07-52.994 3.62a2048 2048 0 0 0-76.681 6.1c-3.33.24-7.684.88-10.701-.09 6.128-4.53 114.179-10.19 129.696-11"/><path fill="#172229" d="M1107.14 1560.46c11.04-2.36 135.32 5.75 143.01 10.16-3.61.52-17.9-.22-20.59-.96-13.64-3.75-116.77-5.42-122.42-9.2m166.02 12.9c13.5-2.07 125.77 18.55 137.47 25.33-5.29.93-48.03-9.53-56.79-11.25a999 999 0 0 0-39.92-6.88c-7.14-1.07-35.77-4.35-40.76-7.2m-821.609 40.47 1.622-.05.624 1.03c-1.991 1.63-21.769 9.85-25.286 11.39-32.957 14.41-65.386 30.5-88.291 59.19-1.012.26-.352.19-1.955-.37.735-3.37 7.746-10.46 10.425-13.02 28.247-26.98 66.866-44.15 102.861-58.17"/><path fill="#233748" d="M917.507 1592.43c6.508-.33 14.482-1.11 20.572 1.19-4.466 1.26-35.199 2.14-42.326 2.46-18.049.8-37.087 2.43-55.002 2.99-5.014.51-15.224 1.89-19.593-.4 7.966-1.73 22.662-2.4 31.091-2.95a2002 2002 0 0 1 65.258-3.29m396.623 221.97c3.77-.56 4.93-.95 8.74-.2l.27 1.16c-5.28 2.84-97.12 10.27-108.9 11.22-3.09.26-5.31.5-8.17-.4 2.09-1.76 96.98-10.62 108.06-11.78"/><path fill="#172229" d="m1705.69 1733.67 1.15 1.8c-1.68 3.6-6.33 7.78-9.26 10.64-23.95 23.39-62.86 41.25-94.26 53.23l-.82-1.13c2.72-2.83 21.78-10.27 26.76-12.48 28.18-12.48 56.57-27.95 76.43-52.06m-975.285 41.78c3.493-.46 14.658-.32 17.687.33 14.039 3.03 100.076 3.85 105.543 7.75-11.159 1.56-117.397-4.46-123.23-8.08"/><path fill="#233748" d="M1295.75 1770.4c3.34-.37 3.62-.84 6.53.27-4.24 3.9-86.07 11.75-97.48 12.5-2.61.34-6.75 1.17-8.64-.77 5.65-2.09 33.95-4.37 41.84-5.21 19.27-2.14 38.52-4.4 57.75-6.79"/><path fill="#172229" d="M348.1 1741.59c-5.329-5.38-6.872-11.59-1.868-5.69 17.872 21.05 41.375 34.84 66.203 46.28 3.28 1.51 12.526 4.59 13.055 7.33-4.081 1.2-28.279-11.63-33.156-14.26-12.184-6.56-27.669-17.14-37.534-26.84-3.224-2.65-4.081-3.59-6.7-6.82"/><path fill="#5a636e" d="M348.1 1741.59c3.387 2.71 4.079 3.39 6.7 6.82-3.224-2.65-4.081-3.59-6.7-6.82"/><path fill="#172229" d="M921.917 1791.48c7.181-.76 14.465-.34 21.677-.32 3.426.43 11.958-.29 14.907.32 7.33 1.51 58.149-1.35 60.689 1.97l.87 1.07c-10.98.83-91.982.16-98.143-3.04m204.753-200.13c19.4-.69 71.15 4.07 90.69 7.16.37.3.56 1.27.82 2.12-28.68-.17-60.53-6.41-89.6-6.85-.89-.01-1.69-1.99-1.91-2.43m226.46-33.98c20.61-2.54 60.31 7.89 81.88 10.48 4.2.5 7.96.73 10.74 3.86-10.6-.26-23.49-4.08-34.26-5.57-13.84-1.92-27.53-4.17-41.49-5.4-5.93-.53-11.54-.77-16.87-3.37"/><path fill="#233748" d="M1472.42 1724.88c8.04 7.06-41.81 26.68-47.01 27.77-10.69 2.24-19.61 5.45-30.97 6.84-1.81-1.84-.27-2.25 1.55-2.57 18.13-3.19 35.89-7.82 52.52-15.88 9.31-4.52 15.92-9.76 23.91-16.16"/><path fill="#172229" d="M576.615 1723.66c3.807 1.27 10.129 8.32 16.133 11.9 15.347 9.37 32.909 14.84 50.269 19.1 3.924.96 12.572 1.79 15.306 4.4-5.209.9-11.967-1.02-17.308-2.32a250 250 0 0 1-18.418-5.09c-13.947-4.39-39.043-14.54-45.982-27.99"/><path fill="#233748" d="M1172.69 1829.52c2.51 1.36-.1 2.47-1.64 2.56-26.5 1.56-53.13 3.29-79.68 3.73-.39-.63-1.29-1.67-.89-2.51.29-.13 74.19-3.12 82.21-3.78m-189.545-67.04c7.343-.94 74.475-.99 76.515.98l.81.76c-10.92 2.36-59.36-.28-73.985.53-1.697.1-2.214-.98-3.34-2.27"/><path fill="#172229" d="M956.528 1833.88c-6.068.27-66.79-2.53-69.032-3.66l-.145-.78-.09.02c1.802-1.88 67.495 1.45 75.041 2.37l.882-.37.986 3.07c-3.149-.45-4.486-.6-7.642-.65"/><path fill="#5a636e" d="m962.302 1831.83.882-.37.986 3.07c-3.149-.45-4.486-.6-7.642-.65 1.941-.71 3.808-1.4 5.774-2.05"/><path fill="#172229" d="m1477.4 1578.17 2.05-.06c5.42-.11 69.98 17.95 72.7 20.69-4.24 1.26-37.05-8.96-45.13-11.09l-15-3.94c-.54-.14-1.07-.28-1.6-.42l-1.91-.48c-3.15-.8-8.31-1.34-10.24-3.69z"/><path fill="#233748" d="M1419.81 1699.78c.35.12.69.24 1.04.37.49.1.93.74.38 1.24-12.48 11.53-32.24 16.08-48.24 19.45-6.87 1.45-9.3 1.37-13.75 1.89-7.21-2.43 10.46-4.38 10.79-4.44 19.52-3.16 33.34-7.69 49.78-18.51"/><path fill="#172229" d="M630.55 1701.09c-.141-.65-.352-.94-.116-1.42.153-.07.31-.18.494-.03 13.347 10.97 30.407 15.33 47.065 18.51 2.979.57 15.688 1.27 15.935 3.81-.877 1.68-6.457.43-7.932.23-17.242-2.27-39.324-7.09-52.883-18.31-1.396-1.13-1.449-1.3-2.563-2.79"/><path fill="#233748" d="M1100.8 1870.46c3.58-.15 26.22-1.57 27.29.67-.56 3.13-15.2 1.91-18.2 1.95-3.88.08-27.44 1.9-28.96-.21.4-3.35 16.5-2.27 19.87-2.41m14.51-79.04c-3.96.5 2.38-.38 3.17-.3 2.45.26 10-1.01 12.17.45.12.09.09.4 0 .54-.41.61-1.44.75-2.09.84-11.46 1.51-22.28 1.93-33.81 2.15-3.86.33-11.43 1.68-14.85.42-1.17-.43-.49-2.37 1.6-2.4 11.29-.2 22.57-.77 33.81-1.7"/><path fill="#d6a470" d="M1590.13 1404.97c3.96 3.72 6.95 6.88 10.59 10.88-4.86-1.99-9.02-3.33-13.27-6.5l.09-1.72z"/><path fill="#233748" d="M719.728 1556.44c7.585-1.23 8.739 2.12-1.554 2.66-1.609-.01-7.148.27-8.026-.42-2.758-2.15 9.245-2.21 9.58-2.24m-53.296 261.02 3.887.06c-.663 1.14-2.761 5.13-3.829 5.82l-.157-.07c-.657-.92-.004-4.79.099-5.81"/><path fill="#5a636e" d="m538.636 1706.07 2.918.65c-.976.88-3.748 3.85-4.906 3.83-1.2-.01 1.991-4.48 1.988-4.48"/><metadata><recraft-signature>{&quot;signed_by&quot;: &quot;recraft&quot;, &quot;signature_b64&quot;: &quot;NDxr9UGwVVXZyR10WN0cPjI2S8RD/f0/eMKtdU1/rUlWTrjwo/e3cbYGGIOUxzcTjo3FAWI37/uPSWTNULD7DQ==&quot;, &quot;signing_algo&quot;: &quot;Ed25519&quot;, &quot;generation_timestamp&quot;: 1777235830, &quot;identifier&quot;: &quot;63c33df4-c0f1-4e04-9f19-6d4dc1bcbd98&quot;}</recraft-signature></metadata></svg>