<svg xmlns="http://www.w3.org/2000/svg" width="1024" height="1024" preserveAspectRatio="none" style="display:block" viewBox="0 0 2048 2048"><defs><linearGradient id="b" x1="1172.99" x2="1166.15" y1="817.598" y2="795.163" gradientUnits="userSpaceOnUse"><stop class="stop0" offset="0" stop-color="#c8752a"/><stop class="stop1" offset="1" stop-color="#a26a30"/></linearGradient><linearGradient id="a" x1="1345.79" x2="1326.39" y1="1397.83" y2="1370.42" gradientUnits="userSpaceOnUse"><stop class="stop0" offset="0" stop-color="#dd7d29"/><stop class="stop1" offset="1" stop-color="#9c6736"/></linearGradient></defs><path fill="#0a1f28" d="M1847.05 1532.16c40.41-13.99 80.29-29.54 120.43-44.29 15.21-5.59 31.24-11.34 46-17.87 8.32 4.44 16.17 7.28 24.93 10.65l-65.12 54.93c-13.08 10.96-30.05 24.67-42.12 36.53 45.05 98.48 89.94 196.31 48.79 304.43-29.83 78.36-74.94 120.85-137.73 171.46H1406.1c23.04-34.07 41.16-82.82 64.01-117.84 2.29-3.51 8.9-24.6 10.84-29.82 5.79-15.33 11.9-30.55 18.31-45.63-31.75 3.26-75.46 8.87-106.37 9.46 5.81-7.47 13.19-16.94 20.03-23.37 5.69.32 27.16-2.26 33.88-2.83 20.03-1.59 40.07-2.91 60.13-3.98 6.54-12.81 11.49-29.59 16.23-43.32 15.01-43.46 31.31-86.46 45.17-130.3 2.69-8.52 6.24-15.93 5.6-24.9-3.78-10.69-6.04-16.94-7.3-28.11-1.36-5.42-7.01-6.01-11.29-9.64-.88-.52-3.63-2.15-3.82-2.96-.51-2.17 5.07-15.3 5.87-17.45 11.25 4.6 20.86 9.18 32.61 13.04 1.07-2.42 1.68-5.14 2.67-7 1.38-.99 5.24-5.54 6.22-5.16l.07.15c.95-.02 3.31-2.89 5.88-3.64l1.75-.58c-6.13 7.06-8.25 8.46-13.02 17.07 7.21 2.36 15.78 5.72 22.68 7.74 2.78 1.74 9.94 4.09 13.59 5.58-2.72 9.2-2.17 20.47-12.01 20.11.46 14.25-2.12 44.6-2.92 59.92l-6.38 119.64c.03 2.67-.2 1.74.98 4.17 3.84 1.24 21.9-3.45 27.18-4.73 62.28-15.28 122.51-43.61 177.84-75.66 33.77-19.56 72.09-53.53 75.62-95.04 3.61-42.52-17.4-70.05-43.1-100.76"/><path fill="#cd732a" d="M1847.05 1532.16c40.41-13.99 80.29-29.54 120.43-44.29 15.21-5.59 31.24-11.34 46-17.87-3.64 5.85-9.47 14.53-12.31 20.38-15.71 9.54-31.57 18.84-47.57 27.88-19.9 11-39.25 20.81-58.74 32.81 46.41 84.28 16.32 143.95-56.72 199.55-7.91 6.03-16.34 11.94-25.02 16.78-.33-10.3-1.04-19.05-2-29.24-18.75 19.54-31.9 37.25-48.19 59.09a822.2 822.2 0 0 1-240.08 54.08c1.73-5.36 4.6-15.2 6.65-20.07 20.82-4.76 21.49-.65 39.63-15.78 7.23-.36 15.11-2.46 22.24-4.1-.28 4.75-.33 10.23-.48 15.04 5.48-.91 10.94-1.86 16.4-2.85.76-6.23.46-12.75 1.24-19.39.03 2.67-.2 1.74.98 4.17 3.84 1.24 21.9-3.45 27.18-4.73 62.28-15.28 122.51-43.61 177.84-75.66 33.77-19.56 72.09-53.53 75.62-95.04 3.61-42.52-17.4-70.05-43.1-100.76"/><path fill="#767e99" d="m1794.56 1940.42.71 1.74-53.63 32.34c-7.62 4.59-25.71 16.02-33 18.7-14.75 5.41-35.34 9.36-51.06 13.51l-89.34 24.03c-20.6 5.33-45.78 10.86-65.69 17.26h-40.46c7.05-11.63 13.78-25.86 20.16-38.15.61-1.41 1.12-2.7 1.89-4.04 1.53.51 2.86.99 4.36 1.55 13.37-5.07 43.3-26.24 56.36-28.48 10.53-1.8 45.1-.66 57.19-.53l64.47.64c38.79.29 39.2 1.68 74.56-14.07 17.92-7.96 35.75-16.13 53.48-24.5"/><path fill="#717591" d="M1482.25 2009.85c.61-1.41 1.12-2.7 1.89-4.04 1.53.51 2.86.99 4.36 1.55-2.49 2.77-2.62 2.8-6.25 2.49"/><path fill="#cd732a" d="m1579.98 1624.25 11.15 5.59-104.61 306.98c-4.14-.26-8.62-.64-12.74-.67-7.34 28.36-9.76 57.45-15.55 86.16-2.03 10.09-6.76 17.32-8.92 25.69h-43.21c23.04-34.07 41.16-82.82 64.01-117.84 2.29-3.51 8.9-24.6 10.84-29.82 5.79-15.33 11.9-30.55 18.31-45.63-31.75 3.26-75.46 8.87-106.37 9.46 5.81-7.47 13.19-16.94 20.03-23.37 5.69.32 27.16-2.26 33.88-2.83 20.03-1.59 40.07-2.91 60.13-3.98 6.54-12.81 11.49-29.59 16.23-43.32 15.01-43.46 31.31-86.46 45.17-130.3 2.69-8.52 6.24-15.93 5.6-24.9 2.31-3.96 4.04-7.11 6.05-11.22"/><path fill="#767e99" d="m1763.77 1893.24 1.21 2.71c-6.97 5.85-26.6 23.05-33.12 26.92-11.78 6.98-59.49 33.68-71.47 34.42-37.75 2.33-77.17.06-115.03 1.03-13.03 11.01-25.85 22.4-38.73 33.59-3.74 3.25-15.65 12.6-18.13 15.45-1.5-.56-2.83-1.04-4.36-1.55 11.19-22.63 26.05-48.91 38.77-70.89 23-9.11 44.52-17.78 67.1-27.92 30.66 4.7 72.07 8.95 102.79 10.24 15.44.65 55.64-16.63 70.97-24"/><path fill="#fcfcfb" d="M1529.5 1831.26c19.86-55.25 36.93-111.88 56.58-167.26 4.47-12.6 8.65-26.52 14.66-38.38-1.98 62.36-6.38 123.49-9.37 185.76-7.13 1.64-15.01 3.74-22.24 4.1-18.14 15.13-18.81 11.02-39.63 15.78"/><path fill="#c3712c" d="M1592.67 1583.35c1.38-.99 5.24-5.54 6.22-5.16l.07.15c.95-.02 3.31-2.89 5.88-3.64l1.75-.58c-6.13 7.06-8.25 8.46-13.02 17.07 7.21 2.36 15.78 5.72 22.68 7.74 2.78 1.74 9.94 4.09 13.59 5.58-2.72 9.2-2.17 20.47-12.01 20.11 3.09-8.21 5.02-9.19 7.85-19.46-16.36-3.74-49.38-15.26-65.38-22.05-1.31 4.16-4.14 10.17-3.01 14.26l-1.95.35c-.88-.52-3.63-2.15-3.82-2.96-.51-2.17 5.07-15.3 5.87-17.45 11.25 4.6 20.86 9.18 32.61 13.04 1.07-2.42 1.68-5.14 2.67-7"/><path fill="#cd732a" d="m1555.34 1597.72 1.95-.35c11.72 4.15 22.17 7.97 34.15 11.97-.25 1.52-1.21 7.91-2.12 8.83-2.12.26-17.61-10.16-22.69-10.81-1.36-5.42-7.01-6.01-11.29-9.64"/><path fill="#525d72" d="M1794.56 1940.42c3.8-2.56 10.33-5.1 14.61-6.9-4.92 3.45-8.43 6.01-13.9 8.64zm-30.79-47.18c7.52-3.41 7.37-2.08 1.21 2.71z"/><path fill="#cd732a" d="M1937.53 1656.17c24.89 58.98 37.8 110.3 19.89 174.42-20.05 71.83-74.56 138.36-134.68 181.03-8.04 5.7-93.02 18.08-109.19 21.85l-2.57-2.45c17.72-9.01 35.93-17.08 53.65-26.26a593.7 593.7 0 0 0 92.66-58.69c47.15-36.03 57.54-55.4 81.92-108.22-41.93 37.71-47.16 45.72-107 56.52-3.31-.56-4.99-.48-7.97-2 29.69-6 45.91-13.5 71.08-30.48 33.07-22.31 41.24-63.03 47.31-100.64l-1.92-4c-8.88 18.92-23.76 38.43-36.87 54.84-7.69 9.62-21.7 14.99-33.11 19.14-8.46 3.09-17.13 5.58-25.94 7.45l-2.14-2.81c51.42-24.11 89.71-68.09 97.01-125.56-17.88 25.46-48.07 57.91-72.93 77.06-25.91 17.51-58.75 25-85.5 41.1-17.02 10.88-33.25 23.19-49.78 34.77-11.1 7.77-20.83 17.15-34.76 18.83-58.1 7.04-116.35 13.96-174.79 17.57-5.13.32-10.52.62-15.59 1.3l6.11-17.87c23.57-.63 45.87-4.36 69.31-7.71 107.34-15.35 228.95-58.34 306.46-137.17 27.36-27.84 34.76-46.87 49.34-82.02"/><path fill="#391f0e" d="m1941.48 1754.55 1.91.43c-.25 2.12-.44 4.16-.76 6.27l-1.92-4c.24-.9.5-1.81.77-2.7"/><path fill="#84592f" d="m1941.48 1754.55.42-1.77c1.18-5.66 2.77-3.27 1.49 2.2z"/><path fill="#a2692e" d="M1812.45 1894.1c4.12-.76 7.61-1.31 11.79-1.73 2.98 1.52 4.66 1.44 7.97 2-3.84.52-7.53.49-11.29 1.04-3.03-.38-5.47-.75-8.47-1.31m22.24-55.57c2.67-.83 5.32-1.72 7.96-2.66l2.14 2.81c-2.97.75-5.28 1.07-8.57 1.98z"/><path fill="#232724" d="M1820.92 1895.41c-2.8.4-13.1 1.35-15.12-.24-.03-.12-.05-.25-.07-.37l.14.08-.09-.29c2.35-1.06 4.03-.84 6.67-.49 3 .56 5.44.93 8.47 1.31"/><path fill="#c3712c" d="m1710.98 2031.02 2.57 2.45c-.85.15-7.52 1.93-7.71.82.6-1.32 3.8-2.59 5.14-3.27"/><path fill="#584835" d="m1834.69 1838.53 1.53 2.13c-5.29.7-9.17-.36-1.53-2.13"/><path fill="#0a1f28" d="M271.004 1585.74c9.457 4.24 23.986 11.28 33.296 14.73l1.221-4.23c7.717 2.13 13.612 5.17 21.41 7.1 4.422 1.08 9.311 3.41 13.447 5.37-2.195 6.99-2.741 18.72-11.241 18.05a8523 8523 0 0 0-6.278 106.6c-1.452 24.79-3.695 53.06-4.141 77.7 48.63 3.23 97.979 4.02 146.868 8.02l.23.65-1.055.32c-6.853 5.82-10.781 10.02-16.941 16.68 20.054.65 40.622 3.34 60.624 5.21 9.127.85 20.245 2.94 29.188 3.08-2.111 6.03-3.354 12.78-4.71 19.05l1.069-1.54c12.577-17.83 32.188-76.16 41.114-84.7-16.861 52.58-36.5 106.33-52.648 159.21-5.658-1.1-9.487-1.99-15.293-2.21-.181 1.79-.388 3.2-.669 4.98l-10.641 67.7c-1.654 10.54-4.5 30.78-7.21 40.49H0v-273.32a5697 5697 0 0 1 226.381 37.5c14.098-44.19 31.301-88.45 45.746-132.62 2.347-7.17 12.343-35.01 12.387-40.55-2.202-10.3-5.759-17.49-8.092-30.05-1.239-3.32-4.377-4.34-7.466-5.75l3.95-1.28c-9.88-4.19-7.447-4.85-1.902-16.19"/><path fill="#cd732a" d="M284.514 1639.01c5.519-2.5 3.804-11.42 11.117-11.67 2.771 1.86 2.793 1.67 4.602 4.41-1.73 13.49-8.312 29.18-13.028 42.32a3274 3274 0 0 0-15.316 43.93l-49.349 140.09c-7.653 21.92-14.674 44.86-22.479 66.54l-12.365-2.18c-1.807 14.82-6.792 29.4-8.948 43.54-5.254 34.45-14.062 52.07-31.222 82.01H0v-273.32a5697 5697 0 0 1 226.381 37.5c14.098-44.19 31.301-88.45 45.746-132.62 2.347-7.17 12.343-35.01 12.387-40.55"/><path fill="#fcfcfb" d="M0 1840.3c44.928 34.53 91.908 66.37 137.828 99.43 7.431 6.26 14.152 11.17 21.972 16.86a2854 2854 0 0 1-42.71 91.41H0z"/><path fill="#0a1f28" d="M0 1802.67c72.959 12.21 146.995 19.05 219.603 29.8-4.777 9.41-6.834 15.98-10.093 26.05a5146 5146 0 0 0-114.499-18.32c-24.417-3.66-72.314-10.49-95.011-16.63zm86.087 52.27 74.303 15.7c10.864 2.28 28.499 6.51 39.083 7.98-5.002 9.99-8.771 19.05-11.791 29.81-.823 2.93-3.041 11.03-4.717 13.05-2.695.25-6.144-.07-7.438 2.06-5.94 9.8-9.639 23.64-15.727 33.05-7.82-5.69-14.541-10.6-21.972-16.86-7.36-14.82-12.913-32.72-18.884-45.65-2.607-5.65-27.259-32.52-32.857-39.14"/><path fill="#767e99" d="M252.268 1901.07c8.569-.08 34.052-.68 41.611 1.21 31.296 7.85 64.279 23.88 94.77 35.12 23.948 8.84 30.1 14.42 56.041 14.74 6.771.98 14.892-.28 19.192 2.33-17.387 3.94-37.181 8.18-54.292 12.9-22.51-7.98-48.43-14.69-72.258-21.2-21.297-5.83-61.449-21.13-82.338-11.47-9.103 4.21-27.686 18.83-36.478 25.31 12.714-3.83 47.817-15.38 59.818-20.61 20.327 8.59 45.185 17.63 66.088 25.46 31.544 11.8 80.357 32.57 113.251 37.14-22.044 2.63-43.247 9.77-65.104 4.23-37.272-9.44-73.793-20.97-110.666-31.67l-2.272 1.95c39.435 24.33 80.268 46.89 120.389 71.49h-12.597c-34.206-12.79-88.735-26.5-121.604-42-9.025-4.25-44.179-41.88-53.108-51.14 9.457-17.65 25.788-39.44 39.557-53.79"/><path fill="#080f12" d="M268.643 1969.85c4.218 1.38 9.212 2.98 13.26 4.71l-2.272 1.95c-3.835-2.19-7.254-4.31-10.988-6.66"/><path fill="#fcfcfb" d="M310.57 1627.18c1.951 20.52-.541 48.48-1.708 69.64-2.171 37.51-4.07 75.04-5.699 112.58-16.826 1.42-19.346 2.03-34.384 10.16-7.817-1.14-16.03-2.22-23.763-3.64 4.92-11.96 10.526-31.25 15.101-44.17 17.03-48.1 32.415-96.77 50.453-144.57"/><path fill="#cd732a" d="M303.163 1809.4a488 488 0 0 1-.308 16.09c4.762 1.04 10.048 2.31 14.802 3.13.218-4.55.421-13.42 1.061-17.56 48.63 3.23 97.979 4.02 146.868 8.02l.23.65-1.055.32c-16.322-.7-76.326 27.49-95.54 31-6.54 1.19-41.033-4.06-49.706-5.02-27.242-3.01-54.932-6.28-82.107-9.82 2.499-6.78 5.035-13.54 7.608-20.29 7.733 1.42 15.946 2.5 23.763 3.64 15.038-8.13 17.558-8.74 34.384-10.16m271.942-31.57c-16.861 52.58-36.5 106.33-52.648 159.21-5.658-1.1-9.487-1.99-15.293-2.21l-1.745-2.11c8.403-21.69 16.317-44.34 24.262-66.27-35.602-2.46-69.381-5.98-104.559-8.73 7.109-5.97 15.763-14.53 22.698-20.99 20.054.65 40.622 3.34 60.624 5.21 9.127.85 20.245 2.94 29.188 3.08-2.111 6.03-3.354 12.78-4.71 19.05l1.069-1.54c12.577-17.83 32.188-76.16 41.114-84.7"/><path fill="#fcfcfb" d="M190.084 1979.32c2.578 1.99 11.068 7.73 12.491 9.41 4.95 5.83 8.15 15 13.734 20.98 12.398 13.26 26.156 25.37 38.82 38.29h-88.426c4.67-16.9 6.369-31.61 15.11-47.01 2.647-4.66 6.5-16.42 8.271-21.67"/><path fill="#cd732a" d="m504.648 1934.93.771-2.21 1.745 2.11c-.181 1.79-.388 3.2-.669 4.98l-10.641 67.7c-1.654 10.54-4.5 30.78-7.21 40.49H444.16a3222 3222 0 0 0 40.405-78.63c5.004-10.24 10.236-23.37 15.362-33.48.54-1.07 2.876-.81 4.721-.96"/><path fill="#c3712c" d="m504.648 1934.93.771-2.21 1.745 2.11c-.181 1.79-.388 3.2-.669 4.98z"/><path fill="#cd732a" d="M272.906 1601.93c3.67 1.71 24.688 8.76 28.93 10.64.498.22.433 11.97-4.424 8.79-7.205-3.71-14.175-8.17-20.99-12.4-1.239-3.32-4.377-4.34-7.466-5.75zm32.615-5.69c7.717 2.13 13.612 5.17 21.41 7.1 4.422 1.08 9.311 3.41 13.447 5.37-2.195 6.99-2.741 18.72-11.241 18.05 5.437-3.24 5.316-10.79 6.43-16.89-10.106-2.72-21.041-6.44-31.267-9.4z"/><path fill="#3d4759" d="M444.69 1952.14c2.749-.17 24.964-.76 26.466.49.057.7-1.332.94-1.614 1.06l.193-.03c-1.617.44-4.032.54-5.853.81-4.3-2.61-12.421-1.35-19.192-2.33"/><path fill="#cd732a" d="M228.583 1860.36c25.512 5.62 55.782 7.93 82.046 11.61 61.187 8.57 123.179 13.44 184.35 20.89l-.937 2.39a650 650 0 0 0-45.276 8.24c-37.34 7.89-33.402 6.16-70.11-.13-51.699-8.86-103.087-19.89-154.666-28.84 1.403-4.63 3.088-9.53 4.593-14.16"/><path fill="#84592f" d="M494.979 1892.86c1.28.01 4.06-.2 5.131.63.631 1.59-5.618 1.71-6.068 1.76z"/><path fill="#0a1f28" d="M1236.48 1584.91c3.89 1.84 8.24 4.08 12.27 5.46 1.55-1.89 1.5-2.03 3.43-3.22l.83.32c2.93 1.11 11.23 5.86 13.38 3.33 1.14-.07 2.78-.23 3.89-.13-1.04 5.14 4.92 4.63 10.27 7.22 3.59 1.72 7.38 2.96 11.28 3.7 6.52 1.55 8.93 2.94 14.63 5.81-1.68 4.44-4.63 21.35-9.53 15.73l-2.1 1.15c-2.25 11.21-2.26 25.43-3.12 37.04-4.16 56.31-5.2 113.25-9.57 169.5 9.87.49 28.31-1.65 38.82-2.18 34.1-1.71 70.11-6.55 104.05-7.83l2.59-.09c.53 3.74-11.74 16.39-14.68 20.08-6.84 6.43-14.22 15.9-20.03 23.37 30.91-.59 74.62-6.2 106.37-9.46-6.41 15.08-12.52 30.3-18.31 45.63-1.94 5.22-8.55 26.31-10.84 29.82-22.85 35.02-40.97 83.77-64.01 117.84h-305.35c6.86-13.6 13.36-32.28 19.68-46.72 18.41-42.02 33.82-84.43 49.42-127.53-11.91-.71-26.89.05-39.19.17l-63.02.15c7.59-7.93 14.29-16.43 22.26-24.67 28.15-1.55 59.02.5 88.2-1.1 4.95-6.73 18.77-51.04 22.67-62.15 8.31-23.52 16.92-46.94 25.84-70.23 4.37-18.94 12.87-38.32 17.71-57.34 1.3-5.12 5.01-14.47 5.53-19.59-2.95-9.23-5.73-18.26-7.35-27.82-5.18-15.5-16.65-4.68-15.31-16.58 2.33.91 2.63 1.04 4.17 3.03 1.79-4.38 3.17-8.33 5.12-12.71"/><path fill="#767e99" d="M1196.24 1961.09c8.28-4.01 50.9-21.35 57.07-21.03 35.99 1.83 83.24 14.79 119.67 15.04 9.51 1.16 41.9.14 45.79 2.09-18.06 6.54-74.19 30.66-88.83 31.83-12.23.98-70.77-10.51-87.54-13.08-32.16 13.18-45.17 19.57-71.53 42.84 23.63-11.27 34.72-20.26 61.42-30.41 25.65 8.6 73.68 22.04 100.24 27.29 14.01 2.77 61.61-12.06 80.66-14.16 1.37.58 1.58.5 1.56 2.02-23.14 6.96-60.64 19.56-82.87 23.66-39.02 7.19-100.01 2.86-136.3 20.82h-52.1c14.87-27.69 35.79-60 52.76-86.91"/><path fill="#fcfcfb" d="M1275.64 1627.84c1.16 24.05-2.13 58.18-3.71 82.79a9572 9572 0 0 0-6.76 122.11c-7.75.41-10.95.55-18.47 2.24-2.83 3.12-5.98 6.79-8.87 9.77-12.5 1.93-23.82 2.34-36.45 2.3 18.8-58.58 39.43-116.86 58.98-175.22 4.9-14.63 9.19-29.86 15.28-43.99"/><path fill="#cd732a" d="M1282.14 1830.82c9.87.49 28.31-1.65 38.82-2.18 34.1-1.71 70.11-6.55 104.05-7.83-9.1 6.34-85.94 43.78-95.28 45.57-15.54 2.97-33.53 1.85-49.39 2.3-28.74.82-57.6 2.11-86.35 2.25l7.39-23.88c12.63.04 23.95-.37 36.45-2.3 2.89-2.98 6.04-6.65 8.87-9.77 7.52-1.69 10.72-1.83 18.47-2.24l-.19 14.57 16.3.58zm-70.98-35.69c-12.99 45.38-32.27 94.19-45.03 140.85-5.02-.16-11.16-.19-16.05-.76-4.99 32.03-11.46 81.87-18.22 112.78h-31.11c6.86-13.6 13.36-32.28 19.68-46.72 18.41-42.02 33.82-84.43 49.42-127.53-11.91-.71-26.89.05-39.19.17l-63.02.15c7.59-7.93 14.29-16.43 22.26-24.67 28.15-1.55 59.02.5 88.2-1.1-.01 2.88-2.5 13.43-3.24 16.87 8.44-12.85 15.06-24.18 21.79-38.11 4.27-8.84 9.4-24.47 14.51-31.93"/><path fill="#767e99" d="M1249.58 1684.16c-12.45 36.44-24.6 75.1-38.42 110.97-5.11 7.46-10.24 23.09-14.51 31.93-6.73 13.93-13.35 25.26-21.79 38.11.74-3.44 3.23-13.99 3.24-16.87 4.95-6.73 18.77-51.04 22.67-62.15 8.31-23.52 16.92-46.94 25.84-70.23 4.91-5.3 4.12-6.46 7.73-12.69 4.33-7.49 8.96-13.19 15.24-19.07"/><path fill="#c3712c" d="M1256.19 1625.19c3.94 2.05 7.76 3.79 11.74 5.91-5.88 17.24-12.68 35.96-18.35 53.06-6.28 5.88-10.91 11.58-15.24 19.07-3.61 6.23-2.82 7.39-7.73 12.69 4.37-18.94 12.87-38.32 17.71-57.34 1.3-5.12 5.01-14.47 5.53-19.59 3.5-4.43 4.45-8.53 6.34-13.8m-4.01-38.04.83.32c2.93 1.11 11.23 5.86 13.38 3.33 1.14-.07 2.78-.23 3.89-.13-1.04 5.14 4.92 4.63 10.27 7.22 3.59 1.72 7.38 2.96 11.28 3.7 6.52 1.55 8.93 2.94 14.63 5.81-1.68 4.44-4.63 21.35-9.53 15.73 1.93-5.05 2.74-7.88 5.07-13.14-8.64-4.92-6.88-4.09-15.98-6.34-11.85-2.92-26.03-8.32-37.27-13.28 1.55-1.89 1.5-2.03 3.43-3.22"/><path fill="#cd732a" d="M1227.19 1594.59c2.33.91 2.63 1.04 4.17 3.03 6.75 4.84 27.65 10.97 36.43 14.06l-.94 4.81c-.34 1.69-.9 3.61-1.36 5.29l-.94-.46c-3.09-1.53-20.33-11.14-22.05-10.15-5.18-15.5-16.65-4.68-15.31-16.58"/><path fill="#3d4759" d="M1372.98 1955.1c19.07-1.33 37.52.62 57.34-1.19-3.16 1.01-8.48 3.23-11.55 3.28-3.89-1.95-36.28-.93-45.79-2.09"/><path fill="#525d72" d="M1413.19 2001.5c1.44-.55 2.07-.68 3.78-.79 3.04-.19 7.54-2.01 10.43-1.14.63.67-.93 1.24-1.22 1.32-.96.23-2.34.65-3.2.9-2.73.77-5.46 1.22-8.23 1.73.02-1.52-.19-1.44-1.56-2.02"/><path fill="#cd732a" d="M1175.59 1926.45c8.58-5.58 30.9-22.3 39.3-23.28 19.04-2.24 41.86-2.15 61.21-3.27l124.94-8c23.69-1.51 52.89-2.39 76.01-5.37l.62 2.55c-25.54 6.87-50.91 14.42-76.5 21.2-22.19 5.88-36.04 10.05-59.11 9.95-28.98-.12-58.11-1.21-87.05-1.12-25.64.09-53.79 4.36-79.42 7.34"/><path fill="#a2692e" d="M1477.05 1886.53c1.14-.34 4.36-1.38 5.2-.13-.03 1.51-3.64 2.34-4.58 2.68z"/><path fill="#0a1f28" d="M593.099 1586.8c8.396 3.66 17.071 7.65 25.712 10.58 11.588 5.86 28.358 10.69 40.76 14.44-1.168 3.92-3.183 12.95-5.586 15.25-2.259 1.63-2.243.9-2.454 3.52-1.78 22.19-2.975 45.62-4.097 67.84q-3.035 66.405-6.866 132.78c2.107 2.24 2.99 1.86 7.205 1.87 43.051.08 89.579-3.55 132.392-2.25l2.1.57c-1.56 4.32-11.627 13.63-15.293 17.31 30.433.5 60.871.72 91.309.67-1.163 5.05-3.087 10.25-.764 14.81l1.987.11c12.466-10.64 18.048-39.24 27.673-52.49-4.542 19.31-14.775 45.08-21.29 64.73-4.769 14.38-14.485 48.23-20.952 60.53l-13.329-.16c-8.635 34.53-12.119 75.22-19.248 111.09H488.644c2.71-9.71 5.556-29.95 7.21-40.49l10.641-67.7c.281-1.78.488-3.19.669-4.98 5.806.22 9.635 1.11 15.293 2.21 16.148-52.88 35.787-106.63 52.648-159.21a2380 2380 0 0 0 30.315-89.09c-4.418 4.57-8.745 8.49-12.674 13.64-3.212 4.22-3.828 7.2-7.479 11.02l-.712.76c3.214-11.48 23.243-67.03 23.538-72.72-3.961-8.77-5.977-17.24-7.759-26.65-.9-5.24-.809-6.61-5.529-9.88l1.255-1.09c-2.615-1.66-6.047-3.44-8.803-4.97 2.205-4 3.937-7.9 5.842-12.05"/><path fill="#cd732a" d="M554.23 1959.58c12.68-4.23 43.984-16.41 55.173-18.42 9.669-1.73 50.268 7.63 63.203 9.5a483 483 0 0 0 64.084 5.47c8.236 1.41 22.712 1.03 31.629 1.03l-.775 3.11c-11.921 4.76-68.895 28.35-77.832 29.07-15 1.23-71.616-10.44-90.131-13.74-39.612 16.55-37.729 15-70.799 41.99 25.72-12.21 31.64-18.79 61.551-28.87 24.286 7.04 82.636 26.28 106.335 27.19 12.6.48 60.91-12.24 77.683-14.94l1.39 1.61c-23.675 7.03-66.144 22.14-89.025 25.08-50.792 6.54-87.361 2.79-137.057 20.34h-48.535c12.016-22.24 25.142-43.49 38.787-64.76 5.015-7.82 9.978-15.44 14.319-23.66"/><path fill="#cd732a" d="M858.281 1849.38c-1.163 5.05-3.087 10.25-.764 14.81l1.987.11c12.466-10.64 18.048-39.24 27.673-52.49-4.542 19.31-14.775 45.08-21.29 64.73-4.769 14.38-14.485 48.23-20.952 60.53l-13.329-.16c-8.635 34.53-12.119 75.22-19.248 111.09H764.27c17.057-32.56 34.915-63.53 52.398-95.75 3.405-6.27 10.97-14 13.605-20.5 7.641-18.82 13.732-38.62 21.063-57.71-34.698-1.39-71.455-1.03-106.295-1.18 7.721-7.85 13.246-15.95 21.931-24.15 30.433.5 60.871.72 91.309.67"/><path fill="#fcfcfb" d="M559.575 1844.06c5.063-11.84 11.985-33.78 16.35-46.41l39.341-116.69c5.299-15.21 12.208-36.12 18.806-50.34.152 27.98-1.906 56.82-3.52 84.83-2.417 39.21-4.59 78.44-6.521 117.68l-20.388-.21c-4.436 4.32-7.47 7.43-11.522 12.11-11.172-.04-21.397.05-32.546-.97"/><path fill="#cd732a" d="M639.297 1848.08c.296-5.76.486-11.14 1.271-16.87 2.107 2.24 2.99 1.86 7.205 1.87 43.051.08 89.579-3.55 132.392-2.25-3.931 2.19-92.631 39.8-93.958 39.85-42.681 1.75-90.541-2.99-134.176-2.71 2.366-8.18 4.512-15.91 7.544-23.91 11.149 1.02 21.374.93 32.546.97 4.052-4.68 7.086-7.79 11.522-12.11l20.388.21c-.158 4.62-.807 10.21-1.219 14.9z"/><path fill="#c3712c" d="M613.997 1627.01c3.682 1.96 7.339 3.59 11.047 5.43-5.797 21.33-11.469 36.27-19.624 56.3-4.418 4.57-8.745 8.49-12.674 13.64-3.212 4.22-3.828 7.2-7.479 11.02l-.712.76c3.214-11.48 23.243-67.03 23.538-72.72 3.298-5.76 3.961-7.94 5.904-14.43"/><path fill="#cd732a" d="m594.805 1604.91 1.255-1.09c9.008 3.59 20.266 5.91 28.903 10.45 1.929 1.01-.953 8.29-2.902 8.52-3.968-.05-18.729-12.02-21.727-8-.9-5.24-.809-6.61-5.529-9.88"/><path fill="#84592f" d="M736.69 1956.13c13.089-.59 27.753.12 40.834.29 1.697.03-2.602 1.72-3.716 1.87-2.586-1.4-2.425-1.26-5.489-1.13-8.917 0-23.393.38-31.629-1.03"/><path fill="#cd732a" d="M768.319 1957.16c3.064-.13 2.903-.27 5.489 1.13q-3.146.945-6.264 1.98z"/><path fill="#84592f" d="M774.351 2000.97c1.182-.36 5.992-2.04 6.946-.49-.548 1.52-4.441 1.9-5.556 2.1z"/><path fill="#cd732a" d="M567.908 1899.77a18471 18471 0 0 0 245.744 4.22c1.516-.02 9.302-.62 9.777.93-.645 1.01-2.337 1.23-3.418 1.49-19.321 7.11-51.889 18.33-71.832 23.07-11.587 2.75-44.239-2.02-58.086-2.74-30.908-1.61-62.784-5.25-93.866-5.73-13.087-.24-49.116 4.31-61.967 6.54 11.995-8.49 21.472-19.04 33.648-27.78"/><path fill="#a2692e" d="M813.652 1903.99c1.516-.02 9.302-.62 9.777.93-.645 1.01-2.337 1.23-3.418 1.49-2.517-1.56-3.356-1.64-6.359-2.42"/><path fill="#0a1f28" d="M916.108 1588.03c3.84 1.93 13.359 5.49 17.633 6.82 3.289-.96 4.8-1.28 8.24-1.87l4.015 1.61c1.695.33 2.785 1.05 4.586 1.49 4.369 3.28 15.063 5.32 20.532 7.37l1.039.38c4.541 2.4 10.376 3.75 15.336 4.91-2.183 6.27-4.439 16.48-9.703 20.73-.431.35-2.712-1.29-3.173-1.55-1.602 5.84-3.445 44.82-3.877 52.52l-5.579 101.85c-.884 16.52-1.411 38.87-3.141 54.77 42.554.36 96.444-4.04 140.044-5.43l3.04.15c-.54 4.15-11.49 13.17-15.2 17.62-7.97 8.24-14.67 16.74-22.26 24.67l63.02-.15c12.3-.12 27.28-.88 39.19-.17-15.6 43.1-31.01 85.51-49.42 127.53-6.32 14.44-12.82 33.12-19.68 46.72H812.358c7.129-35.87 10.613-76.56 19.248-111.09l13.329.16c6.467-12.3 16.183-46.15 20.952-60.53 6.515-19.65 16.748-45.42 21.29-64.73 2.085-3.94 11.689-34.02 13.587-39.86 9.258-28.49 19.441-56.93 28.601-85.4 5.762-17.6 13.472-35.47 18.532-53.68l-.419-.2c-4.715-2.25-6.79-2.83-11.692-4.42-1.576 4.66-2.826 9.3-5.171 13.57-3.345-10.32-6.767-19.37-7.843-30.17-.774-4.22-10.914-7.84-14.882-9.57 1.049-.27 1.776-.66 2.818-1.12.327-1.9 4.398-10.57 5.4-12.93"/><path fill="#cd732a" d="M876.643 1959.97c8.819-3.65 48.54-18.99 55.013-18.62 33.807 1.9 77.054 12.51 110.784 13.81 14.13 3 41.07-.82 53.8 1.65l-52.03 20.7c-5.41 2.16-28.12 11.67-32.53 11.61-26.774-.37-63.277-9.11-90.088-13.2-15.491 6.24-30.046 11.9-44.201 21.02-10.28 6.62-19.406 14.38-29.334 21.26 21.434-7.8 37.375-21.81 63.261-29.52 23.329 6 85.61 26.87 106.382 26.98 6.41.03 63.56-12.86 76.59-14.78l1.56 1.89c-20.76 6.2-65.78 21.52-84.8 24.75-43.545 7.4-95.21.84-138.159 20.48h-49.782c10.909-23.03 26.129-44.02 39.129-65.91 4.413-7.44 9.271-15.19 14.405-22.12"/><path fill="#fcfcfb" d="M955.955 1632.68c.302 8.94.033 17.81-.392 26.74-2.837 59.65-8.79 120.01-10.611 179.64l-19.492.33c-3.953 3.58-7.37 6.82-11.764 9.9q-15.956.3-31.914.21c15.124-51.77 36.411-103.95 52.646-155.62 5.935-18.89 13.753-43.29 21.527-61.2"/><path fill="#cd732a" d="M962.016 1837.06c42.554.36 96.444-4.04 140.044-5.43-11.66 6.78-84.14 40.64-95.23 42.65-12.391 2.25-27.264.64-39.968.51l-93.063-1.69c2.741-7.75 5.706-15.73 7.983-23.6q15.958.09 31.914-.21c4.394-3.08 7.811-6.32 11.764-9.9l19.492-.33-.293 11.79 16.153.29z"/><path fill="#c3712c" d="m941.981 1592.98 4.015 1.61c1.695.33 2.785 1.05 4.586 1.49 4.369 3.28 15.063 5.32 20.532 7.37l1.039.38c4.541 2.4 10.376 3.75 15.336 4.91-2.183 6.27-4.439 16.48-9.703 20.73-.431.35-2.712-1.29-3.173-1.55 4.979-5.09 5.031-9.8 8.161-16.99-18.417-4.63-31.339-8.88-49.033-16.08 3.289-.96 4.8-1.28 8.24-1.87"/><path fill="#cd732a" d="M910.708 1600.96c5.45 1.48 29.614 11.8 36.866 14.33.339.12.087 1.75-.143 2.31-.831 2.04-1.494 4.33-2.282 6.46-7.441-4.42-14.846-8.2-22.377-12.41-.774-4.22-10.914-7.84-14.882-9.57 1.049-.27 1.776-.66 2.818-1.12"/><path fill="#a2692e" d="M1042.44 1955.16c4.78-.14 47.65-.37 56.06.29.13.01.13.27.12.32-.17.81-1.73.93-2.38 1.04-12.73-2.47-39.67 1.35-53.8-1.65"/><path fill="#84592f" d="M1094.29 2000.88c2.55-.7 4.12-.93 6.75-1.36l1.68 1.16c-2.26.9-4.52 1.46-6.87 2.09z"/><path fill="#584835" d="M1101.04 1999.52c3.79-1.53 5.68.79 1.68 1.16z"/><path fill="#cd732a" d="M1090.19 1903.47c19.21-.01 38.41.24 57.61.74-25.3 6.63-49.59 17.88-74.43 24.53-9.18 2.46-35.58-.21-45.88-.52-38.377-1.14-77.581-6.95-115.999-5.1-18.884 2.59-39.078 4.22-58.196 6.32 7.333-6.18 24.317-17.26 32.978-23.43z"/><path fill="#0a1f28" d="M703.01 1283.26c28.917-.27 57.835-.26 86.752.04-1.542 7.62-16.786 50.15-20.215 59.37-12.425 33.42-23.395 70.46-36.219 103.22-1.659 8.68-11.065 35.94-16.518 41.54-11.146 11.43-34.337 28.24-47.683 37.69-10.362 30.57-17.987 46.8-19.29 79.05 5.353 2.43 9.213 3.98 14.73 5.96-1.44 5.35-2.989 13.62-5.633 17.87l-1.843.67-3.106-1.6c2.403-2.3 4.418-11.33 5.586-15.25-12.402-3.75-29.172-8.58-40.76-14.44-8.641-2.93-17.316-6.92-25.712-10.58-1.905 4.15-3.637 8.05-5.842 12.05 2.756 1.53 6.188 3.31 8.803 4.97l-1.255 1.09c-4.763-1.37-6.621-2.34-11.09-4.59 1.995-6.53 4.662-12.64 7.272-18.94 8.402 2.97 25.26 8.69 32.243 13.17 9.447-29.44 21.113-58.5 30.37-87.88a3698 3698 0 0 0-17.566-33.33l3.131-11.72z"/><path fill="#cd732a" d="M646.873 1471.48c17.966-34.06 44.998-85.79 65.471-117.37-.955 5.92-5.936 14.01-7.868 20-12.175 37.74-22.854 76.07-34.504 114.02-8.247 26.86-13.435 54.59-24.523 80.84-4.79 11.34-11.851 16.77-17.855 27.14 4.652 1.86 18.081 7.46 22.243 8.06 5.353 2.43 9.213 3.98 14.73 5.96-1.44 5.35-2.989 13.62-5.633 17.87l-1.843.67-3.106-1.6c2.403-2.3 4.418-11.33 5.586-15.25-12.402-3.75-29.172-8.58-40.76-14.44-8.641-2.93-17.316-6.92-25.712-10.58-1.905 4.15-3.637 8.05-5.842 12.05 2.756 1.53 6.188 3.31 8.803 4.97l-1.255 1.09c-4.763-1.37-6.621-2.34-11.09-4.59 1.995-6.53 4.662-12.64 7.272-18.94 8.402 2.97 25.26 8.69 32.243 13.17 9.447-29.44 21.113-58.5 30.37-87.88a3698 3698 0 0 0-17.566-33.33l3.131-11.72z"/><path fill="#cd732a" d="M722.26 1372.08c.752.29 1.503.58 2.255.86-2.764 20.93-5.051 41.53-6.84 62.55-.822 9.66-2.586 20.63-2.904 30.19l3.459 2.1a1644 1644 0 0 0 15.098-21.89c-1.659 8.68-11.065 35.94-16.518 41.54-11.146 11.43-34.337 28.24-47.683 37.69 1.499-4.92 3.511-9.84 5.579-14.55 16.496-37.56 27.465-77.03 40.985-115.68 2.586-7.39 4.895-15.15 6.569-22.81"/><path fill="#232724" d="m714.771 1465.68 3.459 2.1c-4.967 8.69-4.993 5.31-3.459-2.1"/><path fill="#84592f" d="M722.26 1372.08c.54-5.2 1.65-9.24 2.883-14.22-.058 3.6.195 12-.628 15.08-.752-.28-1.503-.57-2.255-.86"/><path fill="#0a1f28" d="M1343.91 1278.67c24.41-1.5 63.99-.73 88.99-.09-14.68 44.47-30.87 88.3-46.07 132.59-3.29 9.58-6.51 19.43-10.33 28.79-2.52 11.08-10.63 33.06-14.94 43.91-16.65 12.47-34.33 26.51-51.24 38.3-9.81 27.25-17.71 50.33-18.49 79.42-3.9-.74-7.69-1.98-11.28-3.7-5.35-2.59-11.31-2.08-10.27-7.22-1.11-.1-2.75.06-3.89.13 6.21-23.68 15.41-47.17 23-70.48 1.75-5.39 3.68-11 6.05-16.13l-18.11-32.33c1.12-5.66 2.18-9.2 3.87-14.61z"/><path fill="#cd732a" d="M1321.23 1409.8c-.1.85-.22 1.69-.35 2.54-.17 1.03-.5 1.97-.23 3.01.08.04.17.08.25.13 2.27-2.38 9.25-4.87 10.41-7.14 1.75-3.43 3.09-4.85 4.89-6.71-15.14 56.77-32.92 116.51-51.88 172.22-.98 2.89-10.74 10.91-14.04 16.82-1.11-.1-2.75.06-3.89.13 6.21-23.68 15.41-47.17 23-70.48 1.75-5.39 3.68-11 6.05-16.13l-18.11-32.33c1.12-5.66 2.18-9.2 3.87-14.61l6.35 11.92c8.96-12.29 24.11-43.98 33.68-59.37m42.27-41.57 1.8 3.63c-3.74 32.69-6.17 65.3-9.6 97.99 8.43-10.88 13.58-17.98 20.8-29.89-2.52 11.08-10.63 33.06-14.94 43.91-16.65 12.47-34.33 26.51-51.24 38.3 5.41-17.35 16.21-41.72 22.84-59.59 11.41-31.02 21.54-62.49 30.34-94.35"/><path fill="url(#a)" d="M1321.23 1409.8c4.29-12.34 24.08-41.72 29.63-55.44.63-1.56 3.22-5.58 4.22-7.15-4.26 12.56-9.12 24.45-13.33 37.07-1.01 3.04-4.59 15.46-5.55 17.35-1.8 1.86-3.14 3.28-4.89 6.71-1.16 2.27-8.14 4.76-10.41 7.14-.08-.05-.17-.09-.25-.13-.27-1.04.06-1.98.23-3.01.13-.85.25-1.69.35-2.54"/><path fill="#a2692e" d="m1364.66 1362.61 1.88 1.73-1.24 7.52-1.8-3.63c.35-1.93.74-3.69 1.16-5.62"/><path fill="#584835" d="M1364.66 1362.61c.17-.95.95-7.04 2.44-6.85.53.62-.39 7.56-.56 8.58z"/><path fill="#0a1f28" d="m1025.62 1282.28 88.64.74c-12.89 34.15-24.28 70.23-36.75 104.65-6.78 18.73-12.25 36.82-19.97 55.37-.92 6.16-11.92 37.05-15.55 41.49-12.61 15.41-34.54 28.47-50.261 41.55-5.81 16.87-13.063 35.62-16.977 52.79-1.627 7.14-1.717 17.48-2.599 24.96l-1.039-.38c-5.469-2.05-16.163-4.09-20.532-7.37-1.801-.44-2.891-1.16-4.586-1.49 3.911-6.29 10.115-26.5 12.887-34.84 5.758-17.7 11.772-35.32 18.039-52.85-6.282-10.83-12.913-21.87-18.677-32.96 1.113-4.36 2.816-9.56 4.122-13.95a12882 12882 0 0 0 63.253-177.71"/><path fill="#cd732a" d="M968.757 1471.1c11.68-14.47 60.593-113.55 66.713-116.1-3.49 13.8-11.78 28.15-15.46 42.41-12.28 47.68-28.315 94.08-41.482 141.48-3.5 12.6-7.791 24.84-10.662 37.62-8.108 5.93-13.501 9.66-17.284 19.57-1.801-.44-2.891-1.16-4.586-1.49 3.911-6.29 10.115-26.5 12.887-34.84 5.758-17.7 11.772-35.32 18.039-52.85-6.282-10.83-12.913-21.87-18.677-32.96 1.113-4.36 2.816-9.56 4.122-13.95 1.967 3.58 4.114 7.77 6.39 11.11m72.203-86.91 4.43.44-6.19 67.31c.41 2.68.81 5.37 1.18 8.07.82 6.11-3.69 6.15.68 9.04 5.03-8.27 10.67-18.53 16.48-26.01-.92 6.16-11.92 37.05-15.55 41.49-12.61 15.41-34.54 28.47-50.261 41.55 4.059-13.55 13.971-34.5 19.051-48.78 10.66-29.91 22.19-62.49 30.18-93.11"/><path fill="#080f12" d="M1039.2 1451.94c.41 2.68.81 5.37 1.18 8.07.82 6.11-3.69 6.15.68 9.04-7.37 14.49-2.14-13.42-1.86-17.11"/><path fill="#c3712c" d="m1045.52 1366.79 1.96 1.36c-.92 5.41-1.05 11.31-2.09 16.48l-4.43-.44c1.46-4.78 3.51-12.49 4.56-17.4"/><path fill="#584835" d="M1045.52 1366.79c.34-1.37.83-4.04 1.98-4.97 1.2.72.15 5.42-.02 6.33z"/><path fill="#0a1f28" d="M1668.73 1277.25c29.24.23 58.48.29 87.71.16-16.18 52.5-36.94 106.98-55.02 159.46-9.33 32.07-12.67 45.5-40.75 63.85-7.26 4.74-17.26 13.49-25.36 18.7-4.9 16.85-12.12 34.87-16.36 51.68-1.35 5.36-1.59 20.77-2.7 27.83-6.9-2.02-15.47-5.38-22.68-7.74 4.77-8.61 6.89-10.01 13.02-17.07l-1.75.58c-2.57.75-4.93 3.62-5.88 3.64l-.07-.15c-.98-.38-4.84 4.17-6.22 5.16 1.22-5.13 2.88-9.91 4.7-14.85 8.3-22.49 15.85-44.67 22.38-67.74-5.94-10.7-12.15-22.55-18.92-32.65l4.87-13.74c22.05-58.36 41.34-118.53 63.03-177.12"/><path fill="#cd732a" d="m1672.95 1357.42 1.33 1.94c-11.02 27.34-16.38 54.48-25.2 82.11-13.63 42.72-24.69 86.12-38.98 128.57-.69 2.03-1.74 2.99-3.51 4.08l-1.75.58c-2.57.75-4.93 3.62-5.88 3.64l-.07-.15c-.98-.38-4.84 4.17-6.22 5.16 1.22-5.13 2.88-9.91 4.7-14.85 8.3-22.49 15.85-44.67 22.38-67.74-5.94-10.7-12.15-22.55-18.92-32.65l4.87-13.74c2.25 3.6 4.92 9.14 6.95 13.04 18.5-36.28 40.43-74.18 60.3-109.99m15.46 8.73 2.03 3.94c-2.83 30.58-6.09 61.12-9.78 91.61l3.54 1.01c5.27-9.7 10.72-17.04 17.22-25.84-9.33 32.07-12.67 45.5-40.75 63.85-7.26 4.74-17.26 13.49-25.36 18.7 7.37-19.36 15.41-37.81 22.5-57.41 11.15-31.64 21.36-63.61 30.6-95.86"/><path fill="#232724" d="m1680.66 1461.7 3.54 1.01c-3.8 7.78-4.06 5.73-3.54-1.01"/><path fill="#84592f" d="M1672.95 1357.42c.62-1.5 3.19-7.41 4.42-7.97 2.27-1.03-3.01 9.74-3.09 9.91z"/><path fill="#a2692e" d="m1689.4 1361.36 2.11 1.87c-.37 2.32-.66 4.55-1.07 6.86l-2.03-3.94c.32-1.61.67-3.17.99-4.79"/><path fill="#584835" d="M1689.4 1361.36c.41-1.47 1.11-4.77 2.16-5.84 1.23-.06.09 6.94-.05 7.71z"/><path fill="#0a1f28" d="M379.06 1283.74c29.327-.57 58.377-.05 87.678-.23-4.154 15.67-15.649 45.68-21.479 61.96-11.79 32.91-23.646 71.57-36.617 103.57-8.146 43.4-31.916 51.42-63.479 76.1-12.894 31.89-16.858 44.58-18.232 78.2-7.798-1.93-13.693-4.97-21.41-7.1l-1.221 4.23c-9.31-3.45-23.839-10.49-33.296-14.73-1.689-1.48-2.189-1.72-4.145-2.88l1.193-1.27c4.085-.69 27.399 10.24 32.677 12.53 6.751-26.44 20.409-62.54 30.099-88.42-5.819-8.95-13.45-23.31-18.855-32.91 1.144-4.09 2.565-7.61 4.075-11.56 8.205-24.79 18.479-49.3 26.593-74.23 11.282-34.67 24.854-68.69 36.419-103.26"/><path fill="#cd732a" d="m384.474 1360.99 2.028.54c-17.058 41.15-25.994 85.17-40.215 127.28-10.086 29.87-13.904 61.84-30.467 89.12-2.27 3.74-11.362 15.09-10.299 18.31l-1.221 4.23c-9.31-3.45-23.839-10.49-33.296-14.73-1.689-1.48-2.189-1.72-4.145-2.88l1.193-1.27c4.085-.69 27.399 10.24 32.677 12.53 6.751-26.44 20.409-62.54 30.099-88.42-5.819-8.95-13.45-23.31-18.855-32.91 1.144-4.09 2.565-7.61 4.075-11.56 1.579 2.92 3.879 7.79 7.314 8.24 6.757-8.53 17.291-28.74 22.698-38.64 12.801-23.43 24.943-46.72 38.414-69.84m13.732 13.38c1.953 3.78 1.558 4.26 2.179 8.7a2899 2899 0 0 0-9.378 91.14c7.235-6.93 11.599-17.78 17.635-25.17-8.146 43.4-31.916 51.42-63.479 76.1 5.241-18.02 15.721-39.14 22.363-57.1 11.496-31.07 20.53-62.19 30.68-93.67"/><path fill="#a2692e" d="m400.965 1363.74 1.545 1.82c-1.375 6.98-1.177 10.97-2.125 17.51-.621-4.44-.226-4.92-2.179-8.7.352-3.03 1.858-7.6 2.759-10.63"/><path fill="#84592f" d="M384.474 1360.99c2.052-4.96 3.19-6.3 6.092-10.39-1.507 4.49-1.937 6.6-4.064 10.93z"/><path fill="#584835" d="m400.965 1363.74.2-1.32c.133-.98.303-1.81.888-2.62.381-.17.22-.17.494-.08 1.1 1.22.215 4.52-.037 5.84z"/><path fill="#767e99" d="M929.365 1686.55c-9.16 28.47-19.343 56.91-28.601 85.4-1.898 5.84-11.502 35.92-13.587 39.86-9.625 13.25-15.207 41.85-27.673 52.49l-1.987-.11c-2.323-4.56-.399-9.76.764-14.81 4.849-5.62 39.219-108.61 46.318-125.59 3.551-4.06 5.13-9.25 7.72-14.17 5.488-10.42 8.983-14.97 17.046-23.07m-344.81 27.61.712-.76c3.651-3.82 4.267-6.8 7.479-11.02 3.929-5.15 8.256-9.07 12.674-13.64a2380 2380 0 0 1-30.315 89.09c-8.926 8.54-28.537 66.87-41.114 84.7l-1.069 1.54c1.356-6.27 2.599-13.02 4.71-19.05 4.769-16.23 13.345-36.14 19.185-52.57 8.977-25.26 17.746-53.57 27.738-78.29"/><path fill="#c3712c" d="M935.786 1628.25c4.902 1.59 6.977 2.17 11.692 4.42l.419.2c-5.06 18.21-12.77 36.08-18.532 53.68-8.063 8.1-11.558 12.65-17.046 23.07-2.59 4.92-4.169 10.11-7.72 14.17 3.529-14.14 25.992-73.66 26.016-81.97 2.345-4.27 3.595-8.91 5.171-13.57m296.984-49.55c3.62 1.63 16.78 6.76 19.41 8.45-1.93 1.19-1.88 1.33-3.43 3.22-4.03-1.38-8.38-3.62-12.27-5.46-1.95 4.38-3.33 8.33-5.12 12.71-1.54-1.99-1.84-2.12-4.17-3.03 2.1-5.25 3.58-10.54 5.58-15.89"/><path fill="#cd732a" d="M910.967 1586.92c.223-.48 2.198-5.93 3.299-5.58 9.336 2.94 18.177 8.51 27.715 11.64-3.44.59-4.951.91-8.24 1.87-4.274-1.33-13.793-4.89-17.633-6.82-1.9-.55-3.207-.77-5.141-1.11"/><path fill="#c3712c" d="M268.956 1603.21c-1.366-.58-8.307-2.7-8.027-4.66.626-4.39 3.508-12.17 5.93-15.69 1.956 1.16 2.456 1.4 4.145 2.88-5.545 11.34-7.978 12 1.902 16.19zm642.011-16.29c1.934.34 3.241.56 5.141 1.11-1.002 2.36-5.073 11.03-5.4 12.93-1.042.46-1.769.85-2.818 1.12-2.161-3.32 1.953-10.82 3.077-15.16"/><path fill="#0a1f28" d="M1029.86 327.851c5.63 1.233 7.64 1.956 13 4.008l2.87 1.11c34.29 10.552-5.7 26.138 4 47.531 5.15 11.365 15.08 18.17 26.54 22.852 12.23 4.695 26.69 8.569 39.42 12.244 30.46 8.798 52.47 25.871 75.02 47.658 41.69 48.13 63.11 96.337 64.08 161.286 3.61 3.534 8.17 8.31 12.05 11.339 11.83 15.997 23.34 31.771 33.53 48.881-43.7 70.652-53.55 123.293-.74 192.901 12.03 14.42-13.28 30.876-9.21 38.305l1.94.819c9.94.386 20.49.379 30.17 2.59 15.3 3.495 34.97 16.889 49.41 20.486 14.26 3.549 39.44 6.114 54.75 7.655 37.92 38.049 29.6 29.639 83.52 43.873 6.99 1.267 23.51 16.151 30.16 21.471.52 2.03.81 1.56.29 3.02-11.75 36.12-13.26 51.58-13.69 90.16-53.1 16.14-59.27 23.52-100.95 56.75-1.91 1.26-1.81 1.13-4.02 1.78-45.49 2.37-94.54 10.15-139.91 12.74-2.18.77-99.87-9.58-108.91-11.4q-26.595 4.47-53.1 9.48c-36.72 6.76-57.23 12.03-90.5 30.21-22.68-1.22-45.307-3.43-67.837-4.69-6.986.6-93.053-23.65-106.257-27.39-25.614 4.73-55.404 4.88-81.73 4.35-24.991-10.81-61.107-29.55-82.066-46.7-4.219-.55-26.837-.17-32.198-.2-1.794-.35-3.678-.75-5.488-.93l-18.006-1.93c-4.835-.5-46.95-4.63-48.274-6.07l-16.244-15.17c-19.101-5.5-41.6-7.96-61.342-10.8-.527-24.78-.343-55.59-2.06-79.72.065-.56.069-1.12.196-1.66.864-3.67 73.07-42.466 80.927-48.293 2.691-1.996 2.675-2.909 3.066-6.201.286-3.48-.039-9.925-.109-13.639 13.733-6.339 40.039-15.893 54.752-20.255 7.858-2.33 32.22-4.66 41.829-5.783a6481 6481 0 0 1 69.08-7.816c-3.916-8.212-11.569-20.482-15.154-29.448l.666-3.339c2.949-2.652 7.903-10.476 10.184-14.221 29.308-48.11 35.645-68.893 23.307-121.916l-1.294-2.776c-5.088-18.53-20.453-42.949-30.905-59.241 3.493-3.239 6.18-6.46 9.3-10.033l.501-.404c1.806-3.127 4.558-7.679 6.69-10.479 5.653-9.62 12.408-17.948 19.691-26.354l-.463-.903c2.336-7.286 3.398-32.099 5.608-43.143 9.879-49.364 34.589-92.131 68.94-128.484 3.283-1.807 10.383-7.826 13.658-10.398 19.935-16.153 38.571-25.824 62.134-36.119 20.243-8.844 57.809-16.58 70.228-35.988 10.07-15.736-10.486-20.355-13.99-31.051-2.952-9.01 13.33-16.507 19.94-17.895 3.6 1.559 18.11-1.766 23-2.66"/><path fill="#767e99" d="M1292.36 916.785c9.94.386 20.49.379 30.17 2.59 15.3 3.495 34.97 16.889 49.41 20.486 14.26 3.549 39.44 6.114 54.75 7.655 37.92 38.049 29.6 29.639 83.52 43.873 6.99 1.267 23.51 16.151 30.16 21.471.52 2.03.81 1.56.29 3.02-11.75 36.12-13.26 51.58-13.69 90.16-53.1 16.14-59.27 23.52-100.95 56.75-1.91 1.26-1.81 1.13-4.02 1.78-45.49 2.37-94.54 10.15-139.91 12.74-2.18.77-99.87-9.58-108.91-11.4q-26.595 4.47-53.1 9.48c-36.72 6.76-57.23 12.03-90.5 30.21-22.68-1.22-45.307-3.43-67.837-4.69-6.986.6-93.053-23.65-106.257-27.39-25.614 4.73-55.404 4.88-81.73 4.35-24.991-10.81-61.107-29.55-82.066-46.7-4.219-.55-26.837-.17-32.198-.2-1.794-.35-3.678-.75-5.488-.93l-18.006-1.93c-4.835-.5-46.95-4.63-48.274-6.07l-16.244-15.17c-19.101-5.5-41.6-7.96-61.342-10.8-.527-24.78-.343-55.59-2.06-79.72.065-.56.069-1.12.196-1.66.864-3.67 73.07-42.466 80.927-48.293 2.691-1.996 2.675-2.909 3.066-6.201l1.294 3.931c6.033 2.444 53.57 8.174 64.446 10.203 53.544 9.988 96.009 21.13 150.712 24.891 50.087 34.459 94.198 68.059 152.747 86.509l1.241-.99c9.35-7.57 25.163-25.27 31.594-30.26 12.119-9.4 53.779-22.2 69.689-27.33 6.1 1.75 14.72 3.96 20.51 6.04-.61 6.86-1.38 43.48.35 48.96.89-1.44.8-1.15 2.11-2.31a474.7 474.7 0 0 0 172.45-123.758c9.07-10.436 17.98-25.477 26.52-36.619 2.29-2.978 3.15-2.426 6.43-2.678"/><path fill="#0a1f28" d="M1292.36 916.785c9.94.386 20.49.379 30.17 2.59 15.3 3.495 34.97 16.889 49.41 20.486 14.26 3.549 39.44 6.114 54.75 7.655 37.92 38.049 29.6 29.639 83.52 43.873-11.03 5.829-81 8.477-97.09 12.871-13.29 3.64-48.62-7.426-65.35-9.859-13.95 6.869-36.35 20.389-49.89 24.089-12.54 3.43-38.45.42-51.49 4.8-12.03 4.03-24.86 9.6-36.66 14.48a2244 2244 0 0 1-64.02 25.99c-9.86 3.83-53.01 20.11-60.86 18.39.89-1.44.8-1.15 2.11-2.31a474.7 474.7 0 0 0 172.45-123.758c9.07-10.436 17.98-25.477 26.52-36.619 2.29-2.978 3.15-2.426 6.43-2.678"/><path fill="#cd732a" d="M905.031 1078.11c35.392 14.82 57.392 20.91 90.203 41.56 8.096-.57 51.876-7.49 55.796-5.55l1.46 2.44c2.34 8.77 4.69 15.54 7.76 24.13-14.01 8.31-23.89 18.93-37.78 27.96-16.77 10.88-44.993 22.04-60.727 32.26-6.986.6-93.053-23.65-106.257-27.39 6.175-7.94 10.586-32.96 15.974-42.59 6.522-11.66 14.871-23.57 22.044-34.98 3.664-6.09 7.137-12.26 11.527-17.84"/><path fill="#0a1f28" d="M1052.49 1116.56c11.73-.64 80.25-10.93 87.8-15.57 29.37-18.06 23.24-15.57 62.51-22.54l64.84-11.81c-23.57 18.25-65.26 48.44-86.03 67.74-1.43 6.52-5.45 26.75-8.43 31.53q-26.595 4.47-53.1 9.48c-36.72 6.76-57.23 12.03-90.5 30.21-22.68-1.22-45.307-3.43-67.837-4.69 15.734-10.22 43.957-21.38 60.727-32.26 13.89-9.03 23.77-19.65 37.78-27.96-3.07-8.59-5.42-15.36-7.76-24.13"/><path fill="#cd732a" d="M1267.64 1066.64c9.86 1.66 21.13 9.03 30.56 12.31 10.34 3.6 24.08.64 34.86-.98a924 924 0 0 0-2.76 34.89c-5.24 7.83-47.2 61.44-48.21 64.45-2.18.77-99.87-9.58-108.91-11.4 2.98-4.78 7-25.01 8.43-31.53 20.77-19.3 62.46-49.49 86.03-67.74"/><path fill="#0a1f28" d="M1368.48 1073.44c14.11-2.13 28.83-2.12 43.02-4.32 5.67-.88 11.89-1.79 17.58-2.5-.58 13.07-5.68 87.75-3.06 96.17-1.91 1.26-1.81 1.13-4.02 1.78-45.49 2.37-94.54 10.15-139.91 12.74 1.01-3.01 42.97-56.62 48.21-64.45q1.05-17.475 2.76-34.89c11.79-1.28 23.76-2.39 35.42-4.53"/><path fill="#cd732a" d="M1368.48 1073.44c14.11-2.13 28.83-2.12 43.02-4.32 5.67-.88 11.89-1.79 17.58-2.5-.58 13.07-5.68 87.75-3.06 96.17-1.91 1.26-1.81 1.13-4.02 1.78-3.35-2.49-15.46-9.36-16.97-12.14-13.84-25.35-24.37-52.81-36.55-78.99"/><path fill="#0a1f28" d="M594.229 1043.27c12.25-.44 54.591-.13 63.65-2.07 25.242-5.41 58.451-18.66 84.381-25.79-13.881 15.51-31.265 36.94-45.989 50.63-1.999 17.32-1.699 51.02-4.581 65.13-4.219-.55-26.837-.17-32.198-.2-1.794-.35-3.678-.75-5.488-.93l-18.006-1.93c-4.835-.5-46.95-4.63-48.274-6.07 1.273-7.64 1.092-15.77 1.438-23.54.814-18.29 2.765-36.86 4.005-54.92z"/><path fill="#cd732a" d="m593.167 1043.58 1.062-.31c11.477 9.77 30.078 19.98 43.157 30.11 6.282 15.47 18.394 41.94 22.106 57.59-1.794-.35-3.678-.75-5.488-.93l-18.006-1.93c-4.835-.5-46.95-4.63-48.274-6.07 1.273-7.64 1.092-15.77 1.438-23.54.814-18.29 2.765-36.86 4.005-54.92"/><path fill="#0a1f28" d="M1429.08 1066.62c16.9-6.05 101.97-51.06 108.97-51.28.89-.03 1.74.36 2.61.54-11.75 36.12-13.26 51.58-13.69 90.16-53.1 16.14-59.27 23.52-100.95 56.75-2.62-8.42 2.48-83.1 3.06-96.17m-535.576 29.33c-7.173 11.41-15.522 23.32-22.044 34.98-5.388 9.63-9.799 34.65-15.974 42.59-25.614 4.73-55.404 4.88-81.73 4.35 3.293-11.1 8.507-22.6 12.137-34.29-2.98-11.65-7.968-23.8-12.611-34.92 40.101-4.91 79.936-7.17 120.222-12.71"/><path fill="#cd732a" d="M696.271 1066.04c11.731 4.46 43.206 16.2 54.213 21.89 4.025 6.66 6.861 14.71 9.717 22.02l13.081-1.29c4.643 11.12 9.631 23.27 12.611 34.92-3.63 11.69-8.844 23.19-12.137 34.29-24.991-10.81-61.107-29.55-82.066-46.7 2.882-14.11 2.582-47.81 4.581-65.13m-188.193-49.69c5.475.55 33.009 11.17 40.718 13.19 14.777 5.21 29.524 9.39 44.371 14.04-1.24 18.06-3.191 36.63-4.005 54.92-.346 7.77-.165 15.9-1.438 23.54l-16.244-15.17c-19.101-5.5-41.6-7.96-61.342-10.8-.527-24.78-.343-55.59-2.06-79.72"/><path fill="#0a1f28" d="M548.796 1029.54c14.777 5.21 29.524 9.39 44.371 14.04-1.24 18.06-3.191 36.63-4.005 54.92-.346 7.77-.165 15.9-1.438 23.54l-16.244-15.17c-9.237-22.04-14.529-53.89-22.684-77.33"/><path fill="#767e99" d="M776.822 743.779c28.935-19.032 59.483-38.955 90.002-55.168 30.902-16.417 67.483-26.091 101.07-35.263 24.124-6.587 55.336-16.85 79.946-10.625 57.78 14.616 116.69 37.321 168.95 65.881-17.77 69.55-45.54 85.36-115.34 86.445l-5.63 215.911.02 6.3c-.82 3.2-1.19 42.56-1.3 48.42 88.16-44.31 164.35-94.212 205.09-188.019 12.03 14.42-13.28 30.876-9.21 38.305l1.94.819c-3.28.252-4.14-.3-6.43 2.678-8.54 11.142-17.45 26.183-26.52 36.619a474.7 474.7 0 0 1-172.45 123.758c-1.31 1.16-1.22.87-2.11 2.31-1.73-5.48-.96-42.1-.35-48.96-5.79-2.08-14.41-4.29-20.51-6.04-15.91 5.13-57.57 17.93-69.689 27.33-6.431 4.99-22.244 22.69-31.594 30.26l-1.241.99c-58.549-18.45-102.66-52.05-152.747-86.509-54.703-3.761-97.168-14.903-150.712-24.891-10.876-2.029-58.413-7.759-64.446-10.203l-1.294-3.931c.286-3.48-.039-9.925-.109-13.639 13.733-6.339 40.039-15.893 54.752-20.255 7.858-2.33 32.22-4.66 41.829-5.783a6481 6481 0 0 1 69.08-7.816c-3.916-8.212-11.569-20.482-15.154-29.448l.666-3.339c2.949-2.652 7.903-10.476 10.184-14.221 29.308-48.11 35.645-68.893 23.307-121.916"/><path fill="#0a1f28" d="M849.933 710.829c35.683-17.109 69.197-26.457 108.387-12.101 65.64 24.048 44.34 79.911 28.744 129.94 5.545 5.843 33.446 38.688 35.346 44.752l.65 1.064c13.82-7.916 26.73-36.119 38.75-43.809-10.22-20.715-23.38-70.51-14.75-92.72 14.83-38.168 63.88-50.211 100.75-44.044 19.7 3.296 35.79 10.649 54.04 17.511-4.98 13.004-6.41 22-12.79 35.561-5.46 7.763-5.99 9.248-13.7 15.32-31.46 14.879-68.89 13.188-101.66 3.66 2.56 15.85 10.01 55.524 10.62 69.593 1.47 33.747.75 72.261.83 106.383-1.07 21.034.47 43.85.05 65.071-.12 6.35.33 20.38-.7 26.18-5.79-2.08-14.41-4.29-20.51-6.04-15.91 5.13-57.57 17.93-69.689 27.33-6.431 4.99-22.244 22.69-31.594 30.26l-1.241.99c-58.549-18.45-102.66-52.05-152.747-86.509-54.703-3.761-97.168-14.903-150.712-24.891-10.876-2.029-58.413-7.759-64.446-10.203l-1.294-3.931c.286-3.48-.039-9.925-.109-13.639 13.733-6.339 40.039-15.893 54.752-20.255 7.858-2.33 32.22-4.66 41.829-5.783a6481 6481 0 0 1 69.08-7.816l2.922 5.286c2.183 2.604 3.731 4.801 5.613 7.64 39.955 54.274 105.2 103.391 162.751 137.791 4.513 2.7 24.908 16.12 28.548 16.53l1.498-1.23c.05-1.97.09-3.95.119-5.92.835-45.22 1.402-90.438 1.703-135.662.039-42.488-3.021-86.746 7.63-128.119 3.483-13.526 6.051-29.201 8.294-43.041-35.225 7.194-70.432 12.613-104.116-3.243l-1.325-1.274c-14.471-13.679-16.395-32.43-21.523-50.632"/><path fill="#767e99" d="m757.819 912.703 2.922 5.286c2.183 2.604 3.731 4.801 5.613 7.64l-2.304 1.393c7.423 12.393 18.871 28.353 24.657 40.343-19.481.648-42.088-.659-61.884-1.381a4135 4135 0 0 1-84.203-3.182c-10.668-.511-41.224-3.061-50.353-2.606.286-3.48-.039-9.925-.109-13.639 13.733-6.339 40.039-15.893 54.752-20.255 7.858-2.33 32.22-4.66 41.829-5.783a6481 6481 0 0 1 69.08-7.816"/><path fill="#080f12" d="M760.741 917.989c2.183 2.604 3.731 4.801 5.613 7.64l-2.304 1.393c-1.385-3.309-2.203-5.612-3.309-9.033"/><path fill="#c3712c" d="M1023.06 874.484c13.82-7.916 26.73-36.119 38.75-43.809.23.691 2.43 6.227 1.89 6.793-9.32 9.814-18.4 20.03-27.96 29.628-3.74 3.751-8.31 12.459-12.68 7.388m-35.996-45.816c5.545 5.843 33.446 38.688 35.346 44.752-7.27-5.327-28.897-29.677-37.16-36.937-.811-.712 1.115-5.524 1.525-6.857zm-243.733 51.248c7.286 4.796 31.984 42.389 39.754 52.591 37.301 48.973 88.405 89.773 140.788 121.593 9.803 5.95 24.985 14.79 35.397 18.7-.029 1.97-.069 3.95-.119 5.92l-1.498 1.23c-3.64-.41-24.035-13.83-28.548-16.53-57.551-34.4-122.796-83.517-162.751-137.791-1.882-2.839-3.43-5.036-5.613-7.64l-2.922-5.286c-3.916-8.212-11.569-20.482-15.154-29.448zm129.45-117.181c-5.938.052-8.921-3.628-12.408-8.349-7.672-10.388-15.053-25.319-15.122-38.37-.011-2.136 3.21-4.193 4.682-5.187 5.128 18.202 7.052 36.953 21.523 50.632zm329.069-51.313c.87.419 3.69 1.707 3.82 2.829.86 7.481-6.65 24.267-9.87 30.162a93 93 0 0 1-1.97 3.45c-4.07 5.883-10.47 15.161-18.47 14.44 7.71-6.072 8.24-7.557 13.7-15.32 6.38-13.561 7.81-22.557 12.79-35.561"/><path fill="#3d4759" d="M1085.15 941.939c1.46 17.5-.47 133.121 1.81 137.901-1.31 1.16-1.22.87-2.11 2.31-1.73-5.48-.96-42.1-.35-48.96 1.03-5.8.58-19.83.7-26.18.42-21.221-1.12-44.037-.05-65.071"/><path fill="#080f12" d="M784.893 874.372c-1.178-1.845-3.639-4.136-2.07-6.32 8.058-11.222 12.911-25.348 17.213-38.399-.385 5.544-1.413 9.631-2.55 15.092l.983.386-.003-.059.149-.074.737-1.724.097-.04c.248.142.398.52.546.789l-.364.366-.049.301 1.044.82c.141.933.322 1.383.714 2.374-2.286 9.239-9.595 23.331-7.053 28.261l.866.85c5.313 5.282 10.37 11.137 15.295 16.84 30.824 35.703 64.489 68.872 104.731 94.017 5.648 3.529 28.152 14.428 34.261 19.628.146.9.292 1.8.438 2.69-.636 2.49-.439 2.69-2.136 4.53-5.656-.89-41.739-22.557-48.05-26.776-15.443-9.23-35.897-26.753-48.977-38.929-19.748-16.202-51.714-52.735-65.822-74.623"/><path fill="#cd732a" d="M784.893 874.372c-1.178-1.845-3.639-4.136-2.07-6.32 8.058-11.222 12.911-25.348 17.213-38.399-.385 5.544-1.413 9.631-2.55 15.092l.983.386-.003-.059.149-.074.737-1.724.097-.04c.248.142.398.52.546.789l-.364.366-.049.301 1.044.82c.141.933.322 1.383.714 2.374-2.286 9.239-9.595 23.331-7.053 28.261 7.211 13.507 27.653 34.357 38.061 46.463 2.393 2.784 10.385 10.791 11.82 13.345 2.79 5.126 4.94 7.46 6.547 13.042-19.748-16.202-51.714-52.735-65.822-74.623"/><path fill="#080f12" d="M784.893 874.372c-1.178-1.845-3.639-4.136-2.07-6.32 8.058-11.222 12.911-25.348 17.213-38.399-.385 5.544-1.413 9.631-2.55 15.092-3.545 10.295-6.355 20.397-12.593 29.627"/><path fill="#c3712c" d="M844.168 935.953c19.791 18.373 37.251 33.353 58.995 49.124 14.347 8.976 30.829 19.313 46.715 25.093-.636 2.49-.439 2.69-2.136 4.53-5.656-.89-41.739-22.557-48.05-26.776-15.443-9.23-35.897-26.753-48.977-38.929-1.607-5.582-3.757-7.916-6.547-13.042m-22.459-106.26c-1.862-4.477-4.88-10.621-5.276-15.228l.5 1.067c26.48 55.642 77.16 101.097 130.218 129.948.587.319 1.05 3.046 1.115 3.615l-1.284 3.079c-4.358 2.392-19.636-7.829-24.239-10.354-33.39-18.321-67.934-48.932-87.198-81.877-5.753-8.463-12.959-20.055-13.836-30.25"/><path fill="#080f12" d="M821.709 829.693c-1.862-4.477-4.88-10.621-5.276-15.228l.5 1.067c26.48 55.642 77.16 101.097 130.218 129.948.587.319 1.05 3.046 1.115 3.615-8.61-2.935-17.726-8.372-25.491-13.075-35.359-21.418-57.301-45.114-82.44-76.826-4.116-.472-3.025-3.27-4.561-3.583-.251.112-.154.025-.291.261l.516.544-.122-.156.309.542-.835.835c.219.894.245 1.26.194 2.306-5.753-8.463-12.959-20.055-13.836-30.25"/><path fill="#cd732a" d="M821.709 829.693c1.724 2.25 17.588 27.247 18.626 29.501-4.116-.472-3.025-3.27-4.561-3.583-.251.112-.154.025-.291.261l.516.544-.122-.156.309.542-.835.835c.219.894.245 1.26.194 2.306-5.753-8.463-12.959-20.055-13.836-30.25"/><path fill="#c3712c" d="M829.066 810.374c-.449-.471-2.599-2.387-2.625-3.444-.008-.343.452-.522.631-.384 4.038 3.113 8.586 6.095 12.613 9.167 20.557 10.556 39.247 22.148 61.163 30.342 6.45 2.412 24.728 7.745 28.424 11.893-1.071 6.464-1.19 9.925-1.499 16.321.154 1.766.822 21.672-.075 25.044-.084.314-1.03.062-1.174-.483-.65-2.471-1.164-5.261-1.288-7.889-1.96-9.24-3.201-18.611-4.972-27.847-7.692-2.987-21.321-7.211-28.211-10.661-15.882-7.953-53.871-27.814-62.987-42.059"/><path fill="#080f12" d="M839.685 815.713c20.557 10.556 39.247 22.148 61.163 30.342 6.45 2.412 24.728 7.745 28.424 11.893-21.97-2.93-70.483-27.012-88.742-39.854l-1.519-1.034z"/><path fill="#cd732a" d="M925.236 890.941c4.686-2.01-.985-12.462 2.537-16.672.154 1.766.822 21.672-.075 25.044-.084.314-1.03.062-1.174-.483-.65-2.471-1.164-5.261-1.288-7.889"/><path fill="#584835" d="M829.066 810.374c-.449-.471-2.599-2.387-2.625-3.444-.008-.343.452-.522.631-.384 4.038 3.113 8.586 6.095 12.613 9.167l-.674 1.347c-3.464-2.363-6.346-4.479-9.945-6.686"/><path fill="#c3712c" d="M814.535 753.061c7.317 6.189 16.605 15.21 24.532 20.382 28.063 14.248 52.389 28.338 84.199 33.643 3.846.641 18.876 3.293 21.119 5.162-1.121 12.422-.884 9.084-15.842 5.467a288 288 0 0 1-12.56-3.374 253 253 0 0 1-29.528-10.195c-1.197-.498-2.345-.997-3.553-1.488a146 146 0 0 1-4.275-2.007c-18.398-6.277-48.531-27.292-60.566-42.974a405 405 0 0 0-3.526-4.616"/><path fill="#84592f" d="M814.535 753.061c7.317 6.189 16.605 15.21 24.532 20.382 17.115 14.279 28.696 16.426 45.893 25.437l1.254.547c-1.686 1.242-1.91 1.627-3.312 3.231a146 146 0 0 1-4.275-2.007c-18.398-6.277-48.531-27.292-60.566-42.974a405 405 0 0 0-3.526-4.616"/><path fill="#c3712c" d="M878.627 800.651c1.79-1.268 2.611-2.124 4.836-1.897l1.497.126 1.254.547c-1.686 1.242-1.91 1.627-3.312 3.231a146 146 0 0 1-4.275-2.007"/><path fill="#080f12" d="M839.067 773.443c28.063 14.248 52.389 28.338 84.199 33.643 3.846.641 18.876 3.293 21.119 5.162-14.046 1.835-43.413-8.662-57.28-12.576l-.891-.245-1.254-.547c-17.197-9.011-28.778-11.158-45.893-25.437"/><path fill="#0a1f28" d="m1015.93 701.249 9.19 9.085 11.59-9.66c-3 5.102-5.89 9.826-6.59 15.86-3.24 28.03-1.2 56.705-2.81 84.913-.25 4.456-.6 10.107-.39 14.443-.52-3.891-.64-4.767-1.76-8.504l-.96-48.459c-.41-22.509 1.37-36.56-8.27-57.678"/><path fill="#c3712c" d="M954.968 674.421c-2.195-.977-2.812-1.785-.055-2.579 13.132-3.781 25.2-11.811 38.783-14.298.603-.11 2.715 2.962 2.82 3.108 3.287 2.662 6.324 4.271 9.934 6.417-3.73.67-7.2 1.348-10.927 2.068-15.085 2.912-26.096 14.214-40.555 5.284"/><path fill="#080f12" d="M954.968 674.421c-2.195-.977-2.812-1.785-.055-2.579 13.132-3.781 25.2-11.811 38.783-14.298.603-.11 2.715 2.962 2.82 3.108-12.867 1.132-28.964 10.881-41.548 13.769"/><path fill="#c3712c" d="M1050.6 662.745c4.2-2.242 6.79-3.72 11.4-1.88 3.15 1.262 33.52 12.104 33.82 12.601-.63.502-2.85 1.316-3.68 1.62-7.84 4.101-12.72 2.176-20.69-.903-7.83-3.027-16.11-5.334-24.46-6.318-.73-.086-2.51-.774-2.78-1.446-.89-2.213 5.3-3.343 6.39-3.674"/><path fill="#080f12" d="M1050.6 662.745c4.2-2.242 6.79-3.72 11.4-1.88 3.15 1.262 33.52 12.104 33.82 12.601-.63.502-2.85 1.316-3.68 1.62-13.3-3.456-29.37-11.4-41.54-12.341"/><path fill="#a2692e" d="M800.036 829.653c.503-4.02 2.42-13.641 3.536-17.482.778 16.146.657 19.563-2.232 35.713-.392-.991-.573-1.441-.714-2.374l-1.044-.82.049-.301.364-.366c-.148-.269-.298-.647-.546-.789l-.097.04-.737 1.724-.149.074.003.059-.983-.386c1.137-5.461 2.165-9.548 2.55-15.092"/><path fill="#525d72" d="M1025.16 807.386c1.12 3.737 1.24 4.613 1.76 8.504.29 3.264.28 13.734-.58 16.657-.16-.029-.32-.058-.47-.087-1-2.316-.91-21.828-.71-25.074"/><path fill="#767e99" d="m1028.86 501.333 1.05.691c86.08 44.208 178.93 81.61 244.23 156.22 7.22 8.255 16.62 18.059 22.58 27.41-12.14 13.967-19.51 26.076-29.47 41.561a678.8 678.8 0 0 0-186.61-81.363c-35.83-9.452-49.21-13.06-85.642-4.644-67.634 15.623-132.013 34.916-188.509 76.681-7.213 5.29-25.135 17.329-30.961 23.114-5.088-18.53-20.453-42.949-30.905-59.241 3.493-3.239 6.18-6.46 9.3-10.033l.501-.404c1.806-3.127 4.558-7.679 6.69-10.479l2.724 2.389c41.68-44.883 89.32-78.597 143.977-105.323 40.2-19.657 79.277-40.069 121.045-56.579"/><path fill="#080f12" d="m761.114 660.846 2.724 2.389c-2.373 2.607-4.465 4.84-6.706 7.566l-2.708.524c1.806-3.127 4.558-7.679 6.69-10.479"/><path fill="#717591" d="m754.424 671.325 2.708-.524c-.693 2.442-.995 1.871-3.209.928z"/><path fill="#0a1f28" d="M1018.66 528.936c.5-.047 2.02-.248 2.02.215.26 18.611-1.53 67.789-1.68 83.815-5.29 1.8-10.5 3.343-15.79 5.263-2.67-6.057-5.314-11.821-7.781-17.98-7.959-18.276-13.925-37.464-20.939-55.963 14.374-5.534 29.6-9.172 44.17-15.35m19.46-.4c13.73 7.46 29.24 12.22 42.58 19.308-7.26 15.991-14.18 34.324-20.79 50.826-2.7 6.595-4.89 12.487-7.87 19.138-2.16-.796-4.93-1.989-7.06-2.595l-6.04-1.672c-1.07-24.192-1.85-61.021-.82-85.005m56.13 25.714c7.38 3.519 21.39 9.153 27.7 13.367-9.98 19.502-19.86 38.173-29.74 57.979-.57 1.079-2.96 5.803-3.85 6.027-3.2.8-15.92-4.708-18.69-5.776 8.07-23.403 16.86-48.207 24.58-71.597m-177.479 16.627c1.207 1.022 26.692 59.816 29.262 66.041-4.585 1.643-9.241 3.2-13.912 4.577l-1.839.579c-2.042-2.33-3.222-3.985-5.084-6.285-12.906-17.416-25.933-32.285-39.074-48.906 10.275-5.378 20.409-10.15 30.647-16.006m40.739-19.062c.27.026 1.785.115 1.894.385 6.831 17.008 18.153 56.169 22.581 71.302-2.741 1.041-14.748 6.588-16.102 3.998a828 828 0 0 1-30.57-65.317c7.595-4.138 14.561-6.631 22.197-10.368m223.41 49.819c8.77 5.115 17.81 10.227 26.49 15.409-11.55 12.055-30.3 29.538-42.86 41.221-.49.461-2.72 2.635-3.21 2.586-3.74-.375-16.02-6.015-19.58-7.524 12.98-16.308 26.12-34.902 39.16-51.692m-40.7-23.215c8.58 3.051 18.64 9.698 27.43 13.778-13.12 14.147-27.89 30.17-39.86 45.243l-6.34 7.71c-4.53-1.765-8.68-3.529-13.12-5.428 9.25-18.81 21.32-43.335 31.89-61.303m-265.849 20.435c2.499.295 34.273 41.296 39.858 47.241-4.819 2.488-16.309 10.376-20.246 6.199-14.569-12.962-31.853-24.124-45.806-36.588 8.208-6.113 17.354-11.675 26.194-16.852m-43.24 27.175c11.716 9.332 32.103 27.484 42.137 38.545-7.161 3.241-12.035 5.399-18.795 9.776-13.711-9.725-30.969-21.066-43.78-31.794a387 387 0 0 1 20.438-16.527m387.069.649c6.02 2.984 16.07 12.485 21.53 17.115-13.92 11.368-26.56 22.569-40.2 33.934-4.09.413-15.58-6.879-19.71-9.254 15.03-14.754 24.83-26.091 38.38-41.795M780.725 670.52c3.88 1.302 22.277 20.969 26.444 25.286-4.586 3.594-9.689 7.59-14.329 11.073-.795.732-5.774 6.02-6.692 4.799-5.917-7.858-12.669-18.624-17.742-26.885 3.967-4.695 8.276-9.579 12.319-14.273m468.395-15.416c4.01 3.997 8.21 7.8 12.31 11.746-7.29 5.65-26.71 25.146-32.29 28.063a224 224 0 0 0-14.31-9.447c11.13-10.624 22.66-20.29 34.29-30.362m18.15 20.637c2.75.944 10.83 8.897 13.2 11.176-5.41 9.172-11.82 18.478-17.92 27.221-.41.592-2.97-.912-3.13-.996-5.82-3.89-11.03-7.344-16.79-11.407 7.97-8.469 17.12-17.386 24.64-25.994m-469.398-23.008c13.841 10.463 22.683 17.618 37.441 28.136-3.796 1.911-7.571 3.891-11.408 5.721-.4.331-3.873 3.666-4.418 3.228-10.637-8.562-20.851-18.421-29.713-28.805a267 267 0 0 1 8.098-8.28"/><path fill="#767e99" d="M1029.86 327.851c5.63 1.233 7.64 1.956 13 4.008l2.87 1.11c-11.76 10.967-21.88 10.837-36.74 8.587 6.53 5.226 10.05 8.515 17.7 11.934l-8.81 147.243c-57.381 25.323-114.34 50.498-168.937 81.6-16.652 9.486-31.655 21.153-46.445 33.215-3.913 3.191-19.286 18.171-21.693 18.944l-.463-.903c2.336-7.286 3.398-32.099 5.608-43.143 9.879-49.364 34.589-92.131 68.94-128.484 3.283-1.807 10.383-7.826 13.658-10.398 19.935-16.153 38.571-25.824 62.134-36.119 20.243-8.844 57.809-16.58 70.228-35.988 10.07-15.736-10.486-20.355-13.99-31.051-2.952-9.01 13.33-16.507 19.94-17.895 3.6 1.559 18.11-1.766 23-2.66"/><path fill="#c3712c" d="M1010.32 407.107c1.71-.032 1.66.078 3.34.866-4.05 19.544-13.49 32.438-30.173 43.528a106.7 106.7 0 0 1-23.578 11.572c-21.72 7.679-76.221 18.38-80.041 42.383-1.33 8.355.977 18.541 3.061 26.866-14.677 4.377-28.828 10.353-42.71 16.72-21.004 9.633-24.618 24.937-34.409 42.422 2.206-10.234 4.658-20.74 8.92-30.35 1.316-5.413 5.394-14.934 8.126-19.809 28.91-51.583 68.683-73.432 121.968-90.397 18.928-5.18 41.257-15.208 55.052-29.544 4.314-4.482 6.764-9.61 10.444-14.257"/><path fill="#080f12" d="M814.73 561.114c1.316-5.413 5.394-14.934 8.126-19.809 28.91-51.583 68.683-73.432 121.968-90.397l2.009.178c2.953.132 3.506-.043 5.998 1.355-50.015 17.8-86.632 35.617-120.284 79.584-6.934 9.06-11.872 20.815-17.817 29.089"/><path fill="#0a1f28" d="M944.824 450.908c18.928-5.18 41.257-15.208 55.052-29.544 4.314-4.482 6.764-9.61 10.444-14.257-5.49 23.638-35.74 39.657-57.489 45.334-2.492-1.398-3.045-1.223-5.998-1.355z"/><path fill="#a2692e" d="M1015.37 392.139c-.3 4.879-.5 11.162-1.71 15.834-1.68-.788-1.63-.898-3.34-.866.71-4.9 3.17-10.413 5.05-14.968"/><path fill="#c3712c" d="m1250.7 838.312 2.01 1.334c1.42 9.136 6.82 24.572 12.33 31.869-34.46 53.206-78.97 97.67-134.26 128.945-7.12 4.03-27.36 14.9-34.94 16.8l-.02-6.3c14.41-6.7 29.94-14.104 43.67-22.002 42.97-24.723 93.28-70.008 117.02-113.896-2.48-13.029-5-23.42-5.81-36.75"/><path fill="#584835" d="M1250.7 838.312c-.79-2.367-.82-4.052-.75-6.592l.8-.669-.21-.291c1.69.788 1.99 7.545 2.17 8.886z"/><path fill="#c3712c" d="M1042.32 407.817c13 36.591 47.33 38.623 79.32 49.778 35.18 12.267 66.08 41.711 86.05 72.413l-2.06 1.515c-23.51-29.704-51.24-57.098-89.17-67.649-14.79-4.116-27.8-4.227-41.92-12.294-18.21-10.401-27.99-21.259-34.09-40.967zm195.23 429.625c-10.74 54.582-69.78 92.236-116.96 114.179-3.9 1.813-12.53 6.313-16.41 6.329l-.78-1.899c2.13-5.427 15.35-9.53 20.94-12.381 48.27-24.615 89.44-57.425 111.08-108.428z"/><path fill="url(#b)" d="m1231.19 774.154 1.07 2.146c-22.12 35.257-79.36 51.797-117.85 59.027-3.28.616-6.14 1.457-8.87-.426-.68-7.051 3.86-6.171 11.68-7.396 36.71-5.749 89.53-22.455 113.07-52.201z"/><path fill="#c3712c" d="M1153.83 514.288c4.49-.468 8.14-1.075 12.56-1.639 23.84 24.252 38.13 43.81 58.5 70.35l-1.21 2.212c-19.82-23.097-48.15-48.832-69.85-70.923"/><path fill="#cd732a" d="m1215.42 827.07 2.02 1.309c-30.78 26.276-59.47 41.533-98.14 53.682-1.03 8.249-3.44 16.123-6.26 23.939l-3.3-.585c1.45-7.796 1.88-17.009 3.37-25.61 7.52-3.151 17.91-6.368 25.91-9.442 29.56-11.36 51.76-23.174 76.4-43.293"/><path fill="#84592f" d="M1215.42 827.07c4.45-4.828 9.94-9.485 14.3-14.524l.87.007-.25-.591c.53-.377.51-.447 1.08-.5 1.8 1.68-12.42 15.429-13.98 16.917zm-7.73-297.062c3.13 3.568 10.06 15.955 12.4 20.536a252 252 0 0 1-13.53-17.614l-.93-1.407zm-167.24-119.395c-.52-2.892-2.21-10.168-.92-12.711.22-.14.1-.11.37-.078 1.03 1.201 2.27 8.216 2.42 9.993z"/><path fill="#a2692e" d="m1109.74 905.415 3.3.585c-3.54 9.441-4.69 10.585-3.3-.585m125.68-70.173c.3-1.58 1.48-8.155 2.13-9.484.99 1.424.31 9.669 0 11.684z"/><path fill="#84592f" d="M1231.19 774.154c.77-1.363 1.93-3.892 3.19-4.627 1.86.214-1.84 6.294-2.12 6.773zm-7.51-188.943 1.21-2.212c.6.865 3.46 4.26 2.52 5.409-1.16.08-3.06-2.486-3.73-3.197"/><path fill="#0a1f28" d="m1182.27 121.517.81-1.903c81.5 27.348 158.59 87.897 197.42 165.39a259.63 259.63 0 0 1 14.72 197.464c-21.54 63.647-70.54 118.382-128.1 152.108l-.28 1.303c-3.88-3.029-8.44-7.805-12.05-11.339-.97-64.949-22.39-113.156-64.08-161.286 11.01-5.068 30.83-21.78 39.02-30.98 92.11-103.478 32.63-232.259-52.67-311.993 1.78.394 3.45.74 5.21 1.236"/><path fill="#cd732a" d="M1177.06 120.281c1.78.394 3.45.74 5.21 1.236 11.55 5.02 23.54 15.3 33.36 23.357 42.4 34.815 79.99 78.611 100.63 129.963 35.11 87.341-2.61 181.076-88.58 218.732 5.7 11.56 12.19 22.675 17.85 34.161 16.04 32.565 18.88 68.112 19.89 103.78.03.917 1.13 2.309 1.7 3.066l-.28 1.303c-3.88-3.029-8.44-7.805-12.05-11.339-.97-64.949-22.39-113.156-64.08-161.286 11.01-5.068 30.83-21.78 39.02-30.98 92.11-103.478 32.63-232.259-52.67-311.993"/><path fill="#767e99" d="M872.228 117.7c.794-.296 3.553-1.547 4.476-1.273l.117.174c-3.556 3.228-13.521 12.121-17.125 14.574-17.745 18.531-31.043 33.253-45.073 54.9-62.651 96.667-58.465 206.544 40.267 275.887-34.351 36.353-59.061 79.12-68.94 128.484-2.21 11.044-3.272 35.857-5.608 43.143-53.263-31.802-96.093-77.363-119.757-135.22-3.267-4.997-10.628-28.336-12.219-34.21-18.321-67.634-7.596-133.588 27.497-193.789 33.455-57.391 84.833-101.513 143.762-131.191 14.911-7.509 36.395-17.13 52.603-21.479"/><path fill="#0a1f28" d="m857.16 128.394 2.536 2.781c-17.745 18.531-31.043 33.253-45.073 54.9-62.651 96.667-58.465 206.544 40.267 275.887-34.351 36.353-59.061 79.12-68.94 128.484-2.21 11.044-3.272 35.857-5.608 43.143-53.263-31.802-96.093-77.363-119.757-135.22 3.164 1.077 12.61 13.273 15.188 16.413 15.398 18.751 30.981 35.784 48.119 52.937 13.352 1.332 25.477 2.776 38.942 3.566 14.368-30.921 31.412-54.557 53.868-79.904a162.16 162.16 0 0 1-66.891-54.435c-27.02-37.467-36.352-82.837-28.201-127.972 14.36-79.506 73.134-136.071 135.55-180.58"/><path fill="#3d4759" d="M872.228 117.7c.794-.296 3.553-1.547 4.476-1.273l.117.174c-3.556 3.228-13.521 12.121-17.125 14.574l-2.536-2.781c6.555-4.322 9.711-5.137 15.068-10.694"/><path fill="#c9262c" d="M962.061 178.176c18.187-9.478 47.619-19.591 68.469-18.192 10.73.72 50.44 11.881 56.06 18.731l-1.76 2.403c-5.97 8.613-12.02 17.8-16.07 27.495-14.09 33.767-24.8 86.99-25.9 123.246-5.36-2.052-7.37-2.775-13-4.008-4.89.894-19.4 4.219-23 2.66.54-6.269-2.17-23.314-3.18-30.097-5.954-40.002-15.282-90.561-41.619-122.238"/><path fill="#0a1f28" d="M1028.58 213.738c7.47-7.218 46.65-35.208 56.25-32.62-5.97 8.613-12.02 17.8-16.07 27.495-14.09 33.767-24.8 86.99-25.9 123.246-5.36-2.052-7.37-2.775-13-4.008 2.63-.408 2.87-.236 5.1-1.583-1.84-37.484-4.87-74.367-6.38-112.53"/><path fill="#84592f" d="M1177.06 120.281c-8.29-7.237 3.42-1.913 6.02-.667l-.81 1.903c-1.76-.496-3.43-.842-5.21-1.236"/><metadata><recraft-signature>{&quot;signed_by&quot;: &quot;recraft&quot;, &quot;signature_b64&quot;: &quot;NG4vLJljgIhrjCAe7R5XCB8TR4OSrNX+Xp808JRRr8fE8e4UXXFC4Sr51f8vuOwZkCjhHt+cSEIhzjjJKZPkDg==&quot;, &quot;signing_algo&quot;: &quot;Ed25519&quot;, &quot;generation_timestamp&quot;: 1777251898, &quot;identifier&quot;: &quot;3356fa1f-895c-4ad9-864c-da29e7debde6&quot;}</recraft-signature></metadata></svg>