<svg xmlns="http://www.w3.org/2000/svg" width="1024" height="1024" preserveAspectRatio="none" style="display:block" viewBox="0 0 2048 2048"><path fill="#f5f6f0" d="M0 0h2048v1193.24l-65.06.4-.04-266.961.13-85.373c.01-12.386.6-35.894-.61-47.588l-13.97-.412c-7.23-4.806-8.74-6.518-9.5-15.602-1.37-16.185 12.99-13.887 24.05-13.819l.02-14.67-162.77-.325c-25.6-.014-52.98-1.234-78.34.85-40.11 3.297-33.21 39.658-33.37 66.752-.28 31.528-.35 63.056-.2 94.585l.51 282.183-26.27.42.1-398.717c-5.19-.103-10.19-.589-15.36-1.025-7.61-5.918-15.06-15.706-6.51-24.766 6.3-6.681 13.31-5.684 21.69-5.474l.02-14.704-167.45-.085c-18.55-.012-37.11-.018-55.65-.012-8.17.002-14.87-.184-22.9 1.094-37.58 5.982-30.81 43.513-30.62 69.402l.15 77.577.46 296.32c-7.35.17-19.04.79-26 0 1.12-7.42.6-34.85.59-43.38l-.02-89.59-.05-168.801c-.02-31.643.61-66.76-.56-98.206a269 269 0 0 0-16.74.348c-5.85-5.288-7.7-7.858-8-15.871-.63-17.025 13.27-13.812 24.08-14.371l.1-15.466-162.74-.136c-25.91-.037-53.99-1.282-79.57 1.161-39.78 3.798-31.69 48.678-31.66 76.169l.02 95.753-.01 145.7c-.6 42.25-.75 84.49-.44 126.74-12.32-.03-25.48.17-37.74-.16-1.97-49.08-6.94-109.45-6.83-157.43 11.06-10.14 11.22-21.06-1.79-29.25-.53-47.257-5.06-95.227-6.08-142.554-.19-8.6-.27-17.81-1.1-26.337 13.39-9.421 11.9-19.724-.59-29.37-.25-27.221-2.15-53.809-3.41-80.969-1.37-29.584-2.01-59.417-3.49-88.997 15.07-8.85 13.85-23.45-.48-32.268-.81-19.842-2.67-43.39-2.62-62.846.05-21.648 9.72-11.869 3.54-40.43 5.46-5.272 35.96-9.952 45.74-13.213 141.36-47.125 193.77-218.161 86.52-328.672a211.07 211.07 0 0 0-149.55-63.08c-112.547-.827-209.807 82.466-210.068 198.043-.209 92.511 56.77 162.791 142.013 193.471 10.884 3.917 39.167 7.333 46.365 13.504-1.24 16.742-5.85 16.947 4.41 30.531 1.76 18.076-1.92 52.441-2.65 72.371-14.556 9.331-18.009 24.291-.63 32.472-.58 17.321-1.7 35.418-3.09 52.701-3.12 38.94-2.96 79.166-7.015 117.956-12.551 9.68-10.679 19.285-.069 29.609-1.447 55.496-6.908 112.255-9.006 168.058-21.127 15.58-.731 20.65-1.715 39.47-2.044 39.14-3.816 78.36-6.237 117.49-.624 10.1-1.085 20.02-1.048 30.13-17.114.01-34.543.21-51.628.04l.836-399.379c-4.383-.031-9.298.054-13.627-.159-9.021-6.324-17.644-23.184-1.863-29.195 1.494-.568 12.886-.1 15.402-.045l-.002-14.072a13246 13246 0 0 0-160.962-.665l-49.319-.054c-31.726-.005-63.69-2.58-63.818 40.529l.237 402.51-52.059.42c-.128-16.57-1.672-32.32-8.473-47.63-5.789-13.04-16.608-22.52-23.995-34.74-24.218-40.09-3.546-96.91 48.122-96.88 3.694 0 7.473.12 11.228.27l-.674-135.962c.006-25.695.907-58.709-.073-83.843l-15.814-.285c-6.866-6.765-14.911-18.684-4.98-26.859 5.991-4.932 12.05-3.82 19.305-3.584l.362-13.747-163.157-.185c-26.494-.052-54.486-1.143-80.602 1.22-14.854 1.344-28.183 18.47-28.357 32.84-.122 10.089-.216 20.513-.187 30.758l.212 378.397-24.148.17.028-255.412c.027-47.653.581-96.425-.114-144.002-8.424.155-15.605 1.03-21.821-5.618-7.905-8.455-1.973-18.052 4.404-24.507l15.878.221c.238-4.663.562-9.514.697-14.162l-166.726-.397c-25.115-.037-51.331-.975-76.294.536-25.002 1.515-33.084 20.74-32.984 42.579l.172 400.482c-18.032.15-36.064.15-54.096.02zm581.299 1240.28 242.201-.16c47.24 0 96.04.69 143.185-.27 3.423 2.89 6.638 5.8 10.398 8.23-.666 51-8.529 110.88-8.107 160.92-18.817 10.46-18.548 26.99-2.229 39.85a3771 3771 0 0 1-4.682 84.04c-1.063 16.43-3.097 37.58-3.268 53.48-21.682 7.1-22.014 30.24-1.961 40.88-.615 18.49-7.674 186.64-10.498 190.19-.112.14-.263.24-.394.36l-3.939 1.06c1.933.93 4.362 1.8 4.576 4.31 1.475 17.26-1.79 44.56-1.668 61.61-19.509 10.05-20.548 30.48.236 39.87 7.432 22.53 19.476 38.96 41.232 49.78a82.47 82.47 0 0 0 64.629 3.83c25.04-8.71 41.6-28.57 49.53-53.34 17.89-12.93 19.18-28.16-.32-40.61-.34-21.37-2.24-43.23-2.45-64.17 16.99-.28 34.83-.86 51.72-.12-.01 50.54-1.43 106.73-.25 156.75 10.79 1.65 51.75.9 65.45.94q65.595.435 131.19.18c-1.01-47.69-1.33-110.16.14-157.77l62.94-1c7.49-.11 25.99.11 32.57-.94 23.86-.76 50.08-.22 74.07-.2l130.7.01 401.7.02V2048H0v-807.24l304.49-.55c55.89.08 115.964 1.37 171.404-.12-35.583 36.28-47.476 66.98-35.543 117.61 4.674-17.95 9.249-32.32 27.002-42.27a50.4 50.4 0 0 1 39.468-3.93c24.182 7.46 31.068 22.55 41.982 42.59-8.848-51.24-6.618-75.71 32.496-113.81"/><path fill="#026b47" d="M1441.53 1818.18c23.86-.76 50.08-.22 74.07-.2l130.7.01 401.7.02V2048H0v-229.95l630.733-.05h208.519c32.821 0 74.318 1.17 106.692-.2l-3.939 1.06c1.933.93 4.362 1.8 4.576 4.31 1.475 17.26-1.79 44.56-1.668 61.61-19.509 10.05-20.548 30.48.236 39.87 7.432 22.53 19.476 38.96 41.232 49.78a82.47 82.47 0 0 0 64.629 3.83c25.04-8.71 41.6-28.57 49.53-53.34 17.89-12.93 19.18-28.16-.32-40.61-.34-21.37-2.24-43.23-2.45-64.17 16.99-.28 34.83-.86 51.72-.12-.01 50.54-1.43 106.73-.25 156.75 10.79 1.65 51.75.9 65.45.94q65.595.435 131.19.18c-1.01-47.69-1.33-110.16.14-157.77l62.94-1c7.49-.11 25.99.11 32.57-.94"/><path fill="#f5f6f0" d="m1079.44 1239.97 968.56.6v577.44l-401.7-.02-130.7-.01c-23.99-.02-50.21-.56-74.07.2-30.45-.91-64.93-.13-95.7-.14l.14-125.09-197.02.05.05 125.07-51.67-.07c-1.53-62.81-7.65-127.69-8.53-190.51 5.8-2.66 9.83-5.42 12.63-11.41 2.36-4.97 2.57-10.69.57-15.81-2.86-7.57-7.47-10.65-14.43-13.8-2.37-15.1-2.79-39.39-3.5-55.4-1.47-27.48-2.67-54.96-3.61-82.46 15.65-13.32 15.49-27.3-1.69-38.94-3.18-53.85-6.01-107.72-8.5-161.6 3.55-2.54 6.03-5.09 9.17-8.1"/><path fill="#79869f" d="M1067.49 1195.83H2048v42.44l-967.3-.25c3-15.76-.17-21.38-13.21-29.79zM0 1195.8l501.896.42c-7.059 20.5-10.962 24.92-24.327 41.76l-307.958.28c-54.289.05-115.87 1.43-169.611-.11zm1363.73-402.139c5.57-.29 11.16-.405 16.74-.348 1.17 31.446.54 66.563.56 98.206l.05 168.801.02 89.59c.01 8.53.53 35.96-.59 43.38-1.2-5.45-.89-34.77-.91-41.64l.16-103.63-.04-157.325c-.04-26.049-1.04-61.233.27-86.631l-153.22.075-42.39.016c-6.84.062-30.62 1.826-34.53-3.404 4.27-6.255 39.93-4.049 48.66-4.037l77.34.096 65.26.082c11.53-.036 25.43-.789 36.62-.013l1.4.104.28-1.576c-2.93-2.173-9.6-1.064-14.83-1.644zm-324.49-693.322c1.04-.083.94-.092 1.88.361 37.46 3.09 69 13.75 100.78 33.95.81.29.66.235 1.32.824l4.61 3.264c1.45.649 1.47.514 2.41 1.592l1.4.922c.96.612 1.81 1.176 2.55 2.043l1.43.939c1.53.959 2.75 2.125 3.99 3.434l2.21 1.795c2.02 1.228 3.93 2.91 5.29 4.857 4.28 4.18 8.49 8.194 12.51 12.633 1.15.718 1.06.789 1.8 1.997 4.23 5.006 8.23 9.744 12.23 14.94 1.12.81 1.03.894 1.7 2.19l3.3 4.819c.57.406.55.632.88 1.293l3.11 4.708c.58.403.55.622.88 1.285 1.91 3.281 4.46 7.389 6.13 10.698 1.65 1.223 2.01 3.334 2.7 5.185.75.907.79.865 1.08 1.97 9.58 21.557 17.49 46.579 17.71 70.401 1.33 5.915 1.42 17.881-.01 23.816-3.95 54.893-27.68 100.303-69.25 136.319a189 189 0 0 1-32.87 22.954c-.98 1.898-16.06 8.835-18.55 9.529-23.75 10.205-36.81 13.467-61.75 17.106-.02-3.662-.16-13.864-3.07-15.751-9.3-6.02-31.37-8.095-39.72.555-4.4 4.562-3.47 10.007-3.28 15.454-31.647-5.439-44.766-8.867-73.418-23.002-.696-.28-.925-.243-1.291-.819-114.12-58.123-144.972-208.302-58.912-303.978a207.18 207.18 0 0 1 143.021-67.934c1.28-.725 1.19-.624 2.72-.378 8.79-.273 15.73-.42 24.48.029"/><path fill="#474d5f" d="M1231.14 286.439c1.33 5.915 1.42 17.881-.01 23.816-.23-7.046-.24-16.792.01-23.816"/><path fill="#4e565e" d="M1110.46 479.057c2.28-1.769 15.86-8.781 18.55-9.529-.98 1.898-16.06 8.835-18.55 9.529m51.36-329.594c2.02 1.228 3.93 2.91 5.29 4.857-2.28-1.115-3.88-2.712-5.29-4.857m-149.78-48.775c1.28-.725 1.19-.624 2.72-.378-1.18.623-1.19.462-2.72.378m142.15 42.607 1.43.939c1.53.959 2.75 2.125 3.99 3.434-2.52-1.343-3.35-2.372-5.42-4.373m55.46 65.588c1.65 1.223 2.01 3.334 2.7 5.185-1.73-2.375-1.95-2.446-2.7-5.185"/><path fill="#111112" d="M1111.14 259.904c40.46-6.697 78.7 20.638 85.46 61.088s-20.52 78.733-60.96 85.554c-40.53 6.836-78.91-20.512-85.69-61.05-6.77-40.538 20.64-78.88 61.19-85.592"/><path fill="#79869f" d="M1116.99 261.927c39.25-3.442 73.91 25.47 77.55 64.7 3.65 39.229-25.08 74.035-64.29 77.888-39.5 3.882-74.62-25.109-78.3-64.63-3.67-39.522 25.5-74.491 65.04-77.958"/><path fill="#111112" d="M1116.23 286.082c26.22-3.983 50.7 14.051 54.67 40.272s-14.08 50.692-40.3 54.648c-26.21 3.952-50.65-14.078-54.62-40.279s14.05-50.661 40.25-54.641"/><path fill="#79869f" d="M1114.42 289.172c24.64-4.97 48.61 11.087 53.38 35.762 4.78 24.674-11.47 48.514-36.18 53.095-24.44 4.53-47.96-11.496-52.68-35.897-4.72-24.402 11.12-48.045 35.48-52.96"/><path fill="#111112" d="M871.534 224.26c1.732-14.347 4.53-26.684 11.961-39.274 18.737-31.746 56.739-56.984 94.708-52.421 30.437 3.658 43.507 28.774 38.797 57.368-7.36 40.777-47.349 76.374-87.866 81.224-6.092 1.33-10.462 1.315-16.566.018-9.025-.737-15.971-3.945-23.414-8.747-1.013-.343-.93-.336-1.485-1.28-3.888-3.367-5.321-5.221-8.574-9.263-.647-.953-.871-1.349-1.382-2.382-.642-.685-.763-.673-.997-1.545-3.238-7.082-4.166-11.705-5.156-19.173-.79-1.805-.806-2.728-.026-4.525"/><path fill="#4e565e" d="M912.568 271.175a108 108 0 0 1 16.566-.018c-6.092 1.33-10.462 1.315-16.566.018"/><path fill="#474d5f" d="M871.56 228.785c-.79-1.805-.806-2.728-.026-4.525.537 2.316.531 2.161.026 4.525"/><path fill="#f5f6f0" d="M957.451 135.201c91.779-10.584 68.479 111.548-25.102 133.373-60.922 5.698-72.206-44.174-43.696-87.224a107.74 107.74 0 0 1 68.798-46.149"/><path fill="#79869f" d="M99.039 806.345c29.072.994 61.19.074 90.555-.065l138.741-.051.171 286.761.011 66.61c.008 6.79.499 28.66-.775 33.79-73.972 2.13-154.785.52-229.32.31z"/><path fill="#111112" d="M238.19 1079.13c23.578-2.59 32.168 10.93 32.529 32.38 21.103 9.49 29.342 19.71 33.462 42.35l-97.681.05c-20.089.04-48.309.75-67.932-.6 18.33-25.89 48.975-39.06 79.542-43.32 1.604-15.61 5.239-24.43 20.08-30.86"/><path fill="#b47233" d="M221.414 1112.41c35.651-2.79 69.482-2.9 80.1 38.7l-74.264.29-84.612-.13c20.596-23.18 47.986-36.01 78.776-38.86"/><path fill="#b47233" d="M241.563 1081.16c21.129-.18 26.14 11.48 26.67 29.85-6.884-1.18-10.338-1.59-17.428-1.85-9.556-.09-19.267.17-28.754.24-3.971.03 2.36-15.23 3.036-16.4 4.341-7.5 8.474-9.43 16.476-11.84"/><path fill="#111112" d="M136.583 990.95c12.131-.442 34.664-3.905 41.209 8.891 3.634 7.109-.865 10.799-.34 15.229 6.755 2.18 16.662 1.42 23.342 5.31 7.543 4.39 14.087 11.22 16.248 19.81a26.15 26.15 0 0 1-3.711 20.86c-6.641 10.02-16.137 13.29-27.088 15.75-10.062 1.25-14.212.97-24.072-.28l2.513 10.3c-3.933 9.78-15.93 23.9-27.194 17.75-1.114-8.12-.681-30.3-.665-39.69.042-24.27-.938-49.82-.242-73.93"/><path fill="#b47233" d="M138.888 993.025c8.757-.103 19.255-.943 27.679.979 7.127 1.626 12.301 9.666 9.211 16.656-2.24 5.07-5.18 3.06-8.074 6.58 14.741 4.51 37.709-2.69 45.828 20.4a25.24 25.24 0 0 1-1.493 20c-5.289 9.96-13.441 13.08-23.353 16.02-14.347 2.72-19.32-.48-31.679.19 1.382 3.9 4.35 7.15 4.354 11.09.013 10.1-11.235 18.65-20.811 17.86-2.041-3.48-1.615-98.07-1.662-109.775"/><path fill="#111112" d="m138.957 919.19 129.104.006.131 40.765-13.942-.079c-7.834-.103-16.317.094-24.121.209-22.326.329-36.027.057-36.408-25.626a230 230 0 0 1-3.185 2.365c-16.099 11.735-37.799 21.687-51.28.929-.374-5.897-.265-12.587-.299-18.569"/><path fill="#b47233" d="M141.255 921.988q62.334.141 124.667-.421l.025 35.666-19.447-.097c-12.153-.107-36.925 3.53-45.52-5.87-5.982-6.542-4.171-17.677-3.486-25.927-12.432 16.057-41.08 33.717-55.851 10.709z"/><path fill="#111112" d="M308.82 962.159c4.065 8.529-1.057 91.211.724 107.061.312 2.79.696 11.52-1.032 13.43-8.409-2.28-10.885-13.91-11.043-21.31-12.234 1.75-15.078 1.61-27.146-.84-32.668-12.44-21.68-45.7 8.126-51.98 4.253-.89 10.014-.61 14.443-.55-15.045-18.777-7.232-39.782 15.928-45.811"/><path fill="#b47233" d="m303.953 965.642 2.189.544c1.019 2.179 1.597 106.184.351 111.994l-1.98-.28c-4.047-4.67-4.172-13.27-4.732-19.48l-.768-.24c-10.205 2.68-19.789 1.65-29.833-.79-31.196-15.4-13.423-44.84 14.821-46.73 5.854-.4 11.637.41 17.469 1.02-17.956-15.729-19.66-33.435 2.483-46.038"/><path fill="#f5f6f0" d="M273.929 837.606c-.165 13.426-16.602 11.572-16.904-.103-.255-9.855 18.162-9.964 15.104-1.929 1.346.653 1.232.587 1.8 2.032"/><path fill="#7380a0" d="M273.929 837.606c-1.303.094-6.554-.18-7.276 1.127.06 2.092 2.109 1.844 1.529 3.597-6.233 3.167-13.147-11.197 3.947-6.756 1.346.653 1.232.587 1.8 2.032"/><path fill="#f5f6f0" d="M143.827 829.598c10.263.591 20.371 1.941 13.179 14.753-18.605 6.14-13.407-.454-13.179-14.753"/><path fill="#7380a0" d="M148.409 832.544c6.846 2.606 7.624 2.787 5.616 9.855-7.771.46-6.607-1.097-5.616-9.855"/><path fill="#f5f6f0" d="M198.393 830.2c2.412-.099 14.79-1.427 13.089 5.341-.9 3.58.639 4.696.414 9.431-3.567 1.03-13.619 4.266-13.583-1.872q-.02-6.45.08-12.9"/><path fill="#607999" d="m204.353 834.93 1.351-.493c.191.362.048.63-.019 1.118-.424.312-.705.66-1.172.691-.259-.38-.152-.795-.16-1.316"/><path fill="#f5f6f0" d="M124.98 829.783c4.977-.136 12.445-2.477 13.322 2.847l-.85 3.912a22 22 0 0 0-.725 2.596c-.288 1.596-.375 2.417-.913 3.918.651.042 3.79.622 1.931 2.045-2.311 1.769-9.759.976-12.692.945z"/><path fill="#7380a0" d="m138.302 832.63-.85 3.912c-12.377-1.803-7.957-2.844.85-3.912"/><path fill="#607999" d="M135.814 843.056c-9.377-1.908-5.787-2.732.913-3.918-.288 1.596-.375 2.417-.913 3.918"/><path fill="#f5f6f0" d="M239.013 829.958c3.317-.033 8.76-.785 11.874 1.164 1.974 1.061 2.914 4.776 1.145 6.376-5.309 4.802 4.281 5.092-1.841 10.061-1.986-2.377-3.038-5.411-4.935-6.962-2.494-1.286-1.912 4.21-2.403 4.789-1.475 1.741-3.856.853-3.866-1.376zm-63.124-.751c7.515 1.994 9.855 9.263 11.611 9.201 1.395-1.785-1.312-8.201 2.559-8.731 3.807 1.637 1.993 13.931 1.666 17.724-5.038-2.239-10.706-10.587-12.176-10.111-.302 1.431.343 7.847-.577 8.695-4.775 4.404-3.113-14.503-3.083-16.778m-10.972 31.519c2.708-.004 12.226-1.107 13.236 1.689-1.534 2.37-5.912 1.871-8.827 2.504l1.79.163 2.476.043c.492.015 1.185.155 1.574.489.12.103.166.35.125.487l-.332 1.024c1.131 3.337.416 2.737-3.054 3.65 1.4.865 2.077 1.101 3.089 2.325 10.793 4.659-9.035 4.024-10.003 4.037q-.093-8.206-.074-16.411"/><path fill="#7488a2" d="M174.994 873.1c-.17.002-10.039-.683-4.238-2.02l1.149-.305c1.4.865 2.077 1.101 3.089 2.325"/><path fill="#7380a0" d="m169.326 864.919 1.79.163 2.476.043c.492.015 1.185.155 1.574.489.12.103.166.35.125.487l-.332 1.024c-2.952-.09-4.804.785-5.633-2.206"/><path fill="#f5f6f0" d="M260.509 860.508c3.043.036 9.654-.453 11.997 1.425 5.737 4.598-3.642 7.159-.546 10.583 2.482 2.746 2.639 3.748-.921 4.611-1.365-1.811-3.478-5.527-5.249-6.188-1.544 2.235-1.476 5.679-4.045 6.223l-.502-.327c-1.094-2.559-.747-12.97-.734-16.327"/><path fill="#607999" d="M264.083 863.903c3.381.452 5.622-.154 5.285 3.691-2.487-.018-4.928.661-5.163-2.514z"/><path fill="#f5f6f0" d="M251.925 873.137c8.208 5.318-8.947 4.889-8.893 2.419.086-3.974-.913-10.627.249-14.263.241-.753 11.263-2.316 11.304 1.479-1.405 1.69-5.139 1.647-7.403 2.15l1.852.124c2.65-.044 4.391-.721 4.005 2 .552 2.526.892 2.344-1.559 2.961l.303 1.037c.244.801.409 1.299.142 2.093"/><path fill="#7380a0" d="M253.039 867.046c-2.862-.074-5.11.828-5.857-2.124l1.852.124c2.65-.044 4.391-.721 4.005 2m-1.114 6.091c-6.251.064-5.827-1.435-.445-3.13l.303 1.037c.244.801.409 1.299.142 2.093"/><path fill="#f5f6f0" d="M280.723 829.191c7.982 3.627-1.404 7.257 7.833 7.823 8.013.491-.328-8.455 7.213-6.628 1.489.361.711 13.821.671 16.098-8.266.542-1.091-5.61-5.916-6.376-8.542-1.299-4.66 1.988-6.572 4.863-5.799 8.719-3.788-13.069-3.229-15.78m-59.691 30.346c1.287.792 3.331 1.875 2.935 3.945-.868 4.537 4.445 3.634 7.233 2.837 1.736-1.575.271-6.083 3.831-6.279 3.292-.18.736 14.412.522 17.137-6.354-.915-1.98-5.726-3.918-6.54-11.632-4.89-4.85 7.141-10.419 6.644-3.048-2.408-1.486-14.107-.184-17.744m-32.456-.293c7.927 3.242 15.855 27.249 3.3 13.663l-1.349.082c-3.406.239-8.298 6.064-8.446 3.424-.229-4.098 4.664-13.067 6.495-17.169"/><path fill="#7488a2" d="m190.172 868.076.792-.15.032.691c-.621.403-.38.293-.763.422l-.075-.06z"/><path fill="#f5f6f0" d="M217.835 829.214c2.389.955 3.868 1.245 3.788 4.746-.144 4.496-.716 10.681 5.892 8.502 3.47-1.145-.664-11.512 2.938-12.482 1.978-.533 2.357 1.232 2.708 2.777-.097 3.142.51 10.391-2.398 11.956-14.624 7.868-13.99-8.056-12.928-15.499m-18.084 32.173c4.461-.73 22.803-1.434 13.198 3.079-5.476 2.573-2.903 2.063-3.398 8.748.29 1.652.459 3.443-1.439 4.123-5.177-1.329.326-11.384-3.792-12.704-2.11-.676-2.08.15-3.637-1.995zm-50.832-1.417c10.072 2.539-.498 10.83 6.159 13.795 2.736 1.219 1.93-.842 4.743 2.779-14.918 1.857-11.275-1.063-10.902-16.574m16.235-30.828c7.148 1.841 4.13 10.245 4.068 17.954-7.22-2.171-4.284-10.133-4.068-17.954"/><path fill="#79869f" d="M1451.99 806.056c75.54.804 152.43-.275 228.2-.06l.17 250.944.11 87.58c.01 14.61.12 29.38.03 44-.02 3.52.07 3.15-1.79 5.08-74.57 1.13-152.57.33-227.22-.09z"/><path fill="#111112" d="M1549.25 920.159c35.59-3.533 51.4 22.768 48.82 54.376-.65 7.893-.11 18.831-.17 27.035-12.95 14.45-28.05 28.07-41.9 41.78-18.22 18.04-36.28 36.21-54.35 54.39l-12.76 12.52c-1.63-18.97-.79-50.59-.79-70.73.01-36.05-.65-74.417.88-110.209 8.03 8.261 15.87 17.437 24.1 25.978 4.51-20.679 15.8-30.755 36.17-35.14"/><path fill="#79869f" d="M1491.63 936.409c2.64 1.969 7.91 8.619 10.29 11.438 1.5 28.109-.81 61.473.2 90.123.36 10.38-.75 27.17 1.16 36.73 3.02-7.5 1.68-111.184 1.7-124.191 2.64 2.782 5.27 5.859 7.83 8.745 1.11 35.238 24.22 44.006 55.31 43.586l25.16-.14c-5.72 6.74-13.28 14.03-19.73 20.18-27.98 26.69-54.78 54.58-82.43 81.6l-.09-101.2c0-21.601-.38-45.416.6-66.871"/><path fill="#b47233" d="M1552.25 922.337c1.08-.051 2.17-.084 3.25-.097a41.3 41.3 0 0 1 29.28 12.002c14.92 14.845 10.48 43.852 10.31 65.768-10.94-.134-21.89-.133-32.84 0-8.09.2-15.6.86-22.87-2.597-17.24-8.178-26.76-24.803-22.99-43.846 3.91-19.807 16.97-28.37 35.86-31.23"/><path fill="#111112" d="M1654.68 953.201c1.26 1.536 1.45 187.209 1.48 200.619-53.63-.72-109.05.06-162.82.02 4.84-4.79 9.11-8.6 14.27-13.06 26.72-22.38 59.28-30.16 93.48-29.74-4.01-5.24-9.26-13.81-10.88-20.51-8.93-37.03 35.28-28.39 46.6-54.18 8.28-15.95-8.26-27.2-12.37-41.8-6.69-23.719 10.05-35.466 30.24-41.349"/><path fill="#b47233" d="M1649.77 956.929c2.01.305 1.13-.128 2.62 1.345.68 18.935.15 38.875.32 57.946.56 45.06.9 90.13 1 135.19-48.53.24-107.61-1.78-154.89.5 4.09-3.85 9.46-8.18 13.82-11.87 29.23-23.03 60.73-26.92 96.28-25.91-10.01-7.73-21.44-26.63-16.02-39.43 8.89-21 41.23-15.05 48-41.48 5.82-22.75-21.57-32.31-14.49-55.431 3.3-10.317 14.12-16.477 23.36-20.86"/><path fill="#f5f6f0" d="M1495.24 829.632c2.87.03 7.61-.101 10.28.354a8.07 8.07 0 0 1 5.39 3.58c2.03 3.211.61 7.123-.46 10.375-6.51 3.138-7.21 2.438-15.32 2.387 0-5.566.04-11.131.11-16.696"/><path fill="#7380a0" d="M1500.09 832.316c5.83 1.767 8.93 1.864 7.3 8.483l-.34 1.524c-9.05.876-7.97.093-6.96-10.007"/><path fill="#f5f6f0" d="M1623.66 836.591c8.54 7.491-6.03 14.096-12.25 7.623-8.96-9.33 5.37-19.919 12.97-11.918l-.07.867c-.64.475-1.33.443-2.11.503.99 1.329 1.26 1.419 1.46 2.925"/><path fill="#7380a0" d="M1623.66 836.591c-10.17 1.707-6.51 1.495-3.04 5.162l-.08.448c-6.26 3.524-13-8.828-.37-8.542l2.03.007c.99 1.329 1.26 1.419 1.46 2.925"/><path fill="#f5f6f0" d="M1550.19 829.87c4.16-.021 11.22-1.266 13.24 2.946 1.23 2.559-2.04 3.139-.74 4.89 1.94 2.636 1.6 4.98 1.79 8.137-5.54.552-8.7.693-14.24.648-.1-5.54-.12-11.081-.05-16.621"/><path fill="#607999" d="M1556.12 840.811c.25-.104 1.43-.733 2-.703.23.011.35.054.49.218.27.324.03 1.169-.01 1.416-1.97 1.132-2.69 1.754-2.48-.931m.44-6.68c.58-.1.84-.251 1.29-.084.15.419.01.611-.11 1.16-.63.086-1.36.366-1.97.16 0-.479.5-.873.79-1.236"/><path fill="#f5f6f0" d="M1523.43 860.426c2.67.006 17.8-1.952 11.73 3.777-.36 1.26-.32 1.572-.38 2.896-.38 4.062-1.85 2.616-5.71 3.797l1.48.156c1.88.129 2.34.618 3.59 1.993 8.72 5.336-9.08 4.011-10.53 4.019q-.21-8.317-.18-16.638"/><path fill="#7380a0" d="M1534.78 867.099c-1.23-.062-5.15.156-6.18-.755a1.16 1.16 0 0 1-.39-.855c-.03-2.137 5.81-1.308 6.95-1.286-.36 1.26-.32 1.572-.38 2.896"/><path fill="#7488a2" d="m1529.07 870.896 1.48.156c1.88.129 2.34.618 3.59 1.993-2.93.108-6.17 1.315-5.07-2.149"/><path fill="#f5f6f0" d="M1592.15 869.166c-1.06-.801-1.79-1.353-2.16-2.667a4.27 4.27 0 0 1 .56-3.508c2.02-3.088 11.32-6.095 11.62 2.297.76 2.066 1.93 1.953.78 3.667.12 11.331-12.83 10.326-13 3.58.75-1.128 1.49-2.217 2.2-3.369"/><path fill="#7488a2" d="M1602.95 868.955c-1.82-.684-5.96-2.03-7.18-3.096-1.8-1.57 2.02-1.762 2.6-1.228.09.084 1.85.368 1.91.379l1.89.278c.76 2.066 1.93 1.953.78 3.667m-10.8.211c9.26 4.144 5.01 4.013-2.2 3.369.75-1.128 1.49-2.217 2.2-3.369"/><path fill="#f5f6f0" d="M1504.03 859.995c8.35.246 19.39.807 10.94 10.996-1.58 1.902 4.83 2.693.18 6.651-1.09-1.043-4.89-6.173-6.05-5.391-1.56 1.046-.53 3.905-3 4.959-3.51-.797-2.1-13.649-2.07-17.215"/><path fill="#7488a2" d="M1508.93 864.541c.84-.88 2.2-.986 3.17-.246.96.74 1.21 2.087.58 3.124a2.38 2.38 0 0 1-2.26 1.126 2.39 2.39 0 0 1-2-1.535 2.37 2.37 0 0 1 .51-2.469"/><path fill="#f5f6f0" d="M1590.9 829.504c3.06.045 11.63-.742 13.17 3.06 1.71 4.238-4.35 6.029-.84 9.893 1.28 1.415 1.78 2.277.7 3.962l-.66 1.072c-1.67-1.419-5.82-5.929-6.89-6.515-2.21.893-.73 6.858-4.57 5.403-1.67-2.168-.92-13.563-.91-16.875"/><path fill="#7488a2" d="M1596.36 834.849c1.83-1.289 2.99-1.819 2.08 1.007-1.84 1.527-2.62 1.69-2.08-1.007"/><path fill="#f5f6f0" d="M1528.09 829.14c5.03 1.169 5.14 1.519 8.26 6.265 6.08 9.243 1.22-4.278 5.5-5.897 3.59 1.474 2.02 13.7 1.93 17.61l-2.01-.336c-7.53-1.399-8.67-18.01-10.31-.887-.08.795-2.15.942-2.51.22-1.62-3.224-.87-14.033-.86-16.975m-38.14 12.866c.08 1.545.28 3.814-1.88 4.001-14.02 1.179-9.04-.47-10.05-12.557-.49-5.879 6.15-3.523 10.52-3.365 1.57.057 1.35 2.191.24 3.471l-1.67 3.709c.59.724.7.932.52 1.845 1.65 1.27 1.78 1.114 2.32 2.896"/><path fill="#607999" d="M1487.63 839.11c1.65 1.27 1.78 1.114 2.32 2.896-5.54.425-12.33-.167-2.32-2.896"/><path fill="#7380a0" d="M1487.11 837.265c-7.95-2.938-4.26-3.427 1.67-3.709z"/><path fill="#f5f6f0" d="M1607.95 860.377c1.74-.025 12.58-1.243 12.02 2.434-1.61 1.52-3.77 1.536-5.88 1.857l.98.175c1.54.233 1.91.96 2.7 2.248-.18 2.313-.16 2.128-1.79 3.759l.5.677c.49.632.65.866.37 1.626 10.6 4.584-7.93 4.501-8.25 3.409-1.26-4.303-.63-11.469-.65-16.185"/><path fill="#7488a2" d="M1616.85 873.153c-3.97-.1-6.68-1.891-2.27-2.167l1.4-.136.5.677c.49.632.65.866.37 1.626m-2.76-8.485.98.175c1.54.233 1.91.96 2.7 2.248-.52-.02-6.97.411-4.38-1.791z"/><path fill="#f5f6f0" d="M1629.87 871.235c-13.16-9.586 7.92-16.563 6.94-5.025l-.48 2.042c7.46 9.938-12.37 11.631-10.37 4.7.59-.463.91-.003 1.52.347z"/><path fill="#7488a2" d="M1636.33 868.252c-7.77-2.71-8.29-5.346.48-2.042z"/><path fill="#607999" d="M1629.87 871.235c1.23.172 1.9.106 2.69 1.023.27 1.84-4.35 1.094-5.08 1.041z"/><path fill="#f5f6f0" d="M1631.69 829.227c8.92 2.996-.09 5.749 7.79 6.826 6.53 1.606.72-9.642 7.59-5.062.58.385.49 12.468-.81 14.895l-.74 1.403c-3.95-3.968-1.39-6.998-4.02-7.916-7.95-2.788-4.37 5.673-8.31 7.302-3.44-1.925-1.87-14.243-1.5-17.448m-83.62 30.043c9.38 3.528 13.92 29.145 3.28 12.118-1.28.443-5.1 1.553-5.14 2.738-.09 2.745-5.83 3.662-5.27 1.947 1.6-4.859 4.73-12.162 7.13-16.803"/><path fill="#79869f" d="M1549.09 867.458c.46.045.84-.022 1.15.24-.09.432-.46.686-.79 1.04-.36.003-.72.072-.97-.108.03-.45.34-.742.61-1.172"/><path fill="#f5f6f0" d="M1569.85 829.027c10.17 3.299-1.01 12.797 7.71 13.697 5.45.562 1.64-9.932 4.66-13.056l1.82.077c.38.769.69 1.398.95 2.231-.05 2.897.56 10.664-1.86 12.159-15.39 9.51-13.5-9.518-13.28-15.108m-84.73 31.428c3.56-.142 8.41-.338 11.96-.03l-.47-.035c1.22.153 1.59.07 2.44.84-.14 2.259-3.47 2.045-4.81 3.251-.34 1.964-.16 8.182-.18 10.542-.55 1.437-.49 1.565-1.71 2.419-4.24-1.094-1.35-10.662-2.74-13.023-1.24-2.085-6.8.749-4.49-3.964m74.51.896c2.55-.363 13.16-1.589 14.47.389-1.43 5.924-4.71-4.162-5.26 12.463-.06 1.148-.2 3.853-3.04 2.286-1.8-.992-.19-9.792-.98-10.97-1.69-2.529-3.11-.056-5.19-4.168m20.37-1.794c4.94 2.54 3.77 12.504 3.92 18.191-.61-.154-4.45-.842-4.59-1.824-.7-4.971-.71-11.507.67-16.367m-61.21-31.022c4.45 3.37 3.03 14.462.72 19.075-3.61-4.246-3.22-14.635-.72-19.075"/><path fill="#7488a2" d="M1150.82 806.311c20.06 1.436 56.76.072 77.99.09l149.68.333v387.116l-229.55.03c.72-15.68.26-34.51.33-50.4l.67-75.6z"/><path fill="#111112" d="M1180.72 1033.66c31.61-.02 72.17-3.88 51.46 43.07 29.48-2.66 41.55 7.98 39.66 37.54 30.17-8.92 58.64-1.58 66.26 32.1.15 3.02.18 3.06-.42 6-7.74 2.36-102 1.22-115.91 1.14 9.04-52.66-18.35-74.65-41.05-119.85"/><path fill="#b47233" d="M1184.97 1036.22c34.13 1.05 65.49-2.19 42.59 44.36 34.38-5.78 43.93 5.23 40.75 38.28 25.81-11.66 51.26-7.35 65.07 19.45 1.33 4.04 1.85 7.95 2.57 12.14a9829 9829 0 0 1-111.29.57c8.18-53.92-19.11-70.56-39.26-113.86z"/><path fill="#111112" d="M1238.9 925.15c27.33-2.156 78.95-.343 108.22-.156.08 8.551-.01 15.867-5.93 22.742a18.28 18.28 0 0 1-13.53 6.419c-10.27.305-16.38-5.572-23.05-12.06.14 6.663-.06 12.886-.26 19.538-6.03 24.773-25.2 19.454-45.76 19.358l-54.56-.21c-.27-29.142 3.5-47.25 34.87-55.631"/><path fill="#b47233" d="M1241.17 927.177c11.8-.2 95.7-1.085 101.85.863 4.08 6.994-1.32 16.251-7.23 20.507a16.57 16.57 0 0 1-12.81 2.903c-9.92-1.853-16.53-11.072-21.75-18.885.13 6.086.49 12.417.75 18.521.19 35.004-21.97 27.82-49.22 27.509-15.36-.155-30.73-.201-46.1-.136-.09-27.84 4.47-44.56 34.51-51.282"/><path fill="#111112" d="M1260.61 1002.48c28.31.8 58.81-1.35 87.27.4.65 36.84.36 75.87.1 112.73-5.33-3.06-86.61-108.86-87.37-113.13"/><path fill="#79869f" d="m1264.39 1005.02 80.74-.04.5 105.28-12.33-16.24c.01-9.86.72-71.34-.96-77.39l-2.09-.59c-8.62-.45-26.25-1.44-34.05.47 5.76 2.45 27.23 2.27 34.59 2.38l-.33 71.63c-22.5-28.13-44.52-56.64-66.07-85.5"/><path fill="#f5f6f0" d="M1193.07 829.859c11.66.044 19.96-.68 15.08 14.057-.62.286-1.23.579-1.85.878-4.08 1.979-8.49 1.436-13.16 1.426z"/><path fill="#7380a0" d="M1197.61 832.364c7.44 2.009 8.94 2.074 7.36 9.757-9.68 1.391-7.8.106-7.36-9.757"/><path fill="#f5f6f0" d="M1323.43 836.417c3.24 12.986-9.92 12.828-15.09 5.962-6.91-9.179 11.32-19.157 14.96-8.701-.17.903.03 1.803.13 2.739"/><path fill="#607999" d="M1323.43 836.417c-1.62.185-6.64.201-7.61 1.329-1.64 1.908 3.73 2.536 3.58 4.129-3.49 3.503-10.33-3.158-6.37-6.82 2.23-2.056 7.28-1.255 10.27-1.377-.17.903.03 1.803.13 2.739"/><path fill="#f5f6f0" d="M1248.08 830.04c3.87-.005 14.33-1.468 12.65 5.346-1.25 5.074 2.29 1.689.65 9.809l-1.93.524c-15.16 4.238-11.39-2.286-11.37-15.679m60.29 30.846c2.98-.062 14.59-1.985 12.86 2.94l-1.6.65c-.95.382-2.1.303-2.81 1.078.48.625 1.35.918 2.02 1.315.64.477 1.22.896 1.74 1.461-.13.59-.33.546-1.16 1.083.12.977.22 2.586.55 3.456 6.74 5.559-9.4 3.838-11.68 3.841-.03-5.399-.07-10.417.08-15.824"/><path fill="#7380a0" d="M1319.97 872.869c-9.04.401-9.74-1.655-.55-3.456.12.977.22 2.586.55 3.456m-1.13-6c-1.63.056-5.14.651-6.29-.995.1-2.329 5.43-1.897 6.65-1.948l2.03-.1-1.6.65c-.95.382-2.1.303-2.81 1.078.48.625 1.35.918 2.02 1.315"/><path fill="#f5f6f0" d="M1176.04 846.111c.02-4.764-.26-10.912.38-15.501.22-1.555 17.53-2.468 9.62 3.308.18 1.028.25 1.977.36 3.014l1 2.513c.56.887 1.11 1.779 1.66 2.677-.19 6.221-7.37 3.952-13.02 3.989"/><path fill="#607999" d="M1187.4 839.445c.56.887 1.11 1.779 1.66 2.677-5.63.153-13.77-1.061-2.59-2.521z"/><path fill="#7380a0" d="M1186.4 836.932c-.74-.187-1.49-.363-2.24-.528-5.48-1.179-3.1-2.796 1.88-2.486.18 1.028.25 1.977.36 3.014"/><path fill="#f5f6f0" d="M1288.75 829.946c2.46-.011 11.91-1.133 13.27 2.649.81 2.24-.75 4.344-1.79 6.066-1.53 2.514 3.67 5.302 1.75 7.783-.3.406-.6.813-.89 1.22-1.64-1.335-6.13-7.027-7.03-6.904-2.19.296.33 5.718-3.08 5.545-1.84-.093-2.17-1.271-2.17-2.794z"/><path fill="#607999" d="M1294.58 834.787c1.57-.921 2.55-1.398 2.09.829-.47.366-1.19 1.091-1.83 1.163-.22.024-.36.009-.5-.153-.36-.404.18-1.645.24-1.839"/><path fill="#f5f6f0" d="M1206.07 860.07c5.13.112 17.07.655 12.26 8.221-4.42 6.958 2.41 5.402-1.35 8.783l-.85.8c-1.21-1.335-3.91-5.14-4.9-5.871-1.45 1.727-1.96 5.985-4.58 4.75-1.2-1.992-.68-13.665-.58-16.683"/><path fill="#607999" d="M1211.26 866.032c.41-.284.99-.856 1.54-.872.18.506-.14 1.237-.26 1.716-.46.286-.68.554-1.14.538-.25-.415-.14-.818-.14-1.382"/><path fill="#f5f6f0" d="M1226.04 829.21c6.69 1.829 7.08 4.81 11.27 10.362.25-2.793-.83-9.453 2.52-9.793 2.68 2.427 1.48 14.152 1.24 17.766-4.55-1.732-4.53-2.732-7.48-6.759-5.53-7.557-2.36 3.419-4.14 5.123-2.53 2.427-3.45-.547-3.46-2.905zm-.96 31.085c9.1.104 21.27.505 4.37 4.704l1.74.12 2.4-.052c.5-.009 1.18.087 1.59.386.14.096.21.358.18.504-.07.363-.15.726-.23 1.088.76 3.399.23 2.787-3.13 3.782 1.44.948 1.94 1.089 2.86 2.261 9.38 5.187-7.84 3.893-9.74 3.896-.06-5.563-.07-11.126-.04-16.689"/><path fill="#7380a0" d="m1229.45 864.999 1.74.12 2.4-.052c.5-.009 1.18.087 1.59.386.14.096.21.358.18.504-.07.363-.15.726-.23 1.088-3.1-.064-4.64.852-5.68-2.046"/><path fill="#7488a2" d="M1234.86 873.088c-.71.005-5.49.31-5.21-1.369.52-.643 1.61-.718 2.35-.892 1.44.948 1.94 1.089 2.86 2.261"/><path fill="#f5f6f0" d="M1292.17 869.211c-7.72-10.059 12.62-12.34 8.91-4.71l.11 3.987c4.76 8.761-8.29 11.637-10.61 4.298.54-1.201 1.08-2.354 1.59-3.575"/><path fill="#7380a0" d="M1301.19 868.488c-5.09-2.149-10.14-4.238-.11-3.987zm-9.02.723c9.58 4.135 4.48 3.296-1.59 3.575.54-1.201 1.08-2.354 1.59-3.575"/><path fill="#f5f6f0" d="M1329.5 829.234c2.16.662 4.03.771 4.4 3.195.09.543-.08 2.813.97 3.045 1.2.065 3.75.95 4.82-.019 2.06-1.869.1-4.677 3.37-5.898 3.73.919 1.93 14.409.45 17.79-4.26-4.277-1.32-4.986-3-7.84-2.71-1.229-7.31-1.252-6.79 2.465.76 5.328-4.39 5.571-4.49 2.033-.13-4.541-.17-10.272.27-14.771m-80.25 30.157c7.85 5.392 14.63 27.087 2.72 13.493-2.13.608-10.43 5.22-10.26 3.21.38-4.461 5.22-12.565 7.54-16.703"/><path fill="#7488a2" d="M1250.74 868.17c.51.058.33-.007.59.145.05.264.05.068-.15.713l-1.22.172-.02-.062c.24-.431.04-.139.8-.968"/><path fill="#f5f6f0" d="M1328.2 869.158c-2.33-2.708-2.39-5.966.43-7.87 6.16-4.156 15.53 4.597 5.06 3.345-.73-.088-1.86-.311-1.93.516 1.35 1.564 2.18 1.228 4.04 2.199 8.72 4.545-1.07 12.421-7.64 8.333-1.2-.741-1.16-1.362-.8-2.634z"/><path fill="#7380a0" d="m1328.2 869.158.92.395c8.55 3.23 3.63 3.188-1.76 3.494z"/><path fill="#f5f6f0" d="M1267.8 829.091c8.92 3.399 1.29 10.938 4.85 12.668 10.34 5.012 3.06-9.563 8.58-12.354 1.36.867 1.29.899 1.79 2.551-.05 5.697 1.34 14.424-8.02 14.826-9.33.4-7.56-11.477-7.2-17.691m-80.13 31.338c2.23-.045 11.99-.659 13.75.838.11.092.22.417.18.582-.67 2.669-4.47 1.566-5.24 2.577-1.04 1.381-.78 8.13-.82 9.686.04.94.12 2.289-1.04 2.707-6.04 2.196-2.19-10.338-3.65-12.206-1.38-1.765-5.27-.079-3.18-4.184m72.04.848c4.52-.529 8.82-.743 13.3-.421 2.17.157 2.72 2.239 1.21 3.501-1.03.858-3.14-.506-3.59.233-1.25 2.043-.77 6.942-.84 9.547-.09 1.794-1.22 3.721-2.9 2.463-2.4-1.798.17-10.289-1.82-11.778-1.52-1.143-4.19 1.396-5.09-2.511zm-44.57-32.18c.78.188 3.42.659 3.74 1.182 1.38 2.254.33 14.95.07 17.233-6.72-2.589-3.96-11.011-3.81-18.415m66.09 30.613c4.91 2.84 3.15 13.177 1.65 17.671-5.03-2.938-3.22-13.103-1.65-17.671"/><path fill="#79869f" d="M1753.02 806.2c27.35 1.059 57.54.553 85.06.563l142.37.011c1.01 5.036.74 31.545.41 37.287l-.37 349.819-228.45-.03c2.3-40.84.97-96.69.97-138.67z"/><path fill="#474d5f" d="M1980.45 806.774c1.01 5.036.74 31.545.41 37.287-.66-5.779-1.14-31.807-.41-37.287"/><path fill="#111112" d="m1956.67 909.008.83 1.164c-3.02 5.766-6.99 10.903-9.87 17.022-5.57 11.84-15.78 42.743-22.74 52.042-8.51 11.371-32.53 32.314-43.87 42.854-16.8 15.94-33.45 32.06-49.92 48.34-13.06 12.75-28.58 27.2-40.43 40.8-1.27-7.26-.56-40.26-.52-49.09l.86-112.201q60.21-.621 120.42-.528c1.21-6.149 2.48-12.287 3.8-18.412 9.38-5.927 31.13-16.722 41.44-21.991"/><path fill="#79869f" d="M1793.4 952.221c38.32.668 79.08-.209 117.58-.376a761 761 0 0 1-7.61 45.252c-14.88 15.643-34.11 31.963-50.04 47.903-19.83 19.91-40.52 39.46-60.54 59.44.91-49.77.47-102.26.61-152.219"/><path fill="#111112" d="M1812.03 966.053c16.52-.007 73.37-1.233 86.38 1.269-3.19 1.998-74.2 1.474-83.82 1.488l.08 21.94c.05 15.61 1.47 74.63-1.34 85.4l-.68-2.46.54 2.5.4-1.15-.95-.74c-2.03-28.43-.78-78.842-.61-108.247"/><path fill="#79869f" d="M1948.74 915.916c.83.204 1.1.094 1.47.599.04.876-25.42 57.599-28.4 62.763-.73 1.271-10.83 11.187-13.16 13.486-3.21.372.78-12.511 1.23-15.271l.99-6c1.93-13.475 3.9-25.299 6.8-38.563 7.81-5.563 21.79-11.64 31.07-17.014"/><path fill="#111112" d="m1955.25 1017.99 1.37.44c1.45 3.6.5 121.36.49 135.33l-112.41.01c-9.3 0-38.84 1.28-45.5-.61l-.74-1.49 1.7-2.32c2.89-2.82 5.89-5.53 8.99-8.12 28.15-23.46 62.96-30.57 98.7-27.31-12.45-28.13-4.02-58.14 32.49-48.69-9.08-20.54-9.81-40.07 14.91-47.24"/><path fill="#b47233" d="m1953.06 1020.89 1.37 1.36c1.11 10.13.32 34.97.28 45.99l-.08 83.22c-50.37.97-102.28-.06-152.97.38 3.66-3.83 7.18-6.71 11.2-10.11 32.52-23.53 61.04-28.81 100.47-24.55-18.46-29.6-5.36-65.59 33.54-45.97-11.03-17.91-17.72-39.92 6.19-50.32"/><path fill="#f5f6f0" d="M1799.03 829.578c11.73.395 19.54.038 14.37 14.425-6.63 2.672-6.77 2.009-14.37 1.978z"/><path fill="#7380a0" d="m1803.65 832.305.47.117c5.79 1.356 7.75 2.377 6.23 8.414l-.36 1.58c-8.73.433-7.15-.8-6.34-10.111"/><path fill="#f5f6f0" d="M1854.57 829.969c3.03-.05 9.97-1.123 11.83 1.564.7 1.007.95 2.26.69 3.459-1.05 4.635 1.21 2.68.66 10.163-5.59 1.209-13.39 3.778-13.42-3.612 0-3.859.09-7.718.24-11.574"/><path fill="#607999" d="M1860.23 840.765c1.25-.467 1.19-.645 2.03.479-1.3.533-1.38.835-2.03-.479m-.01-5.971c.57-.282.8-.545 1.28-.405.25.376.12.118.37.867-.76.271-.47.199-.94.276-.44-.159-.36-.214-.71-.738"/><path fill="#f5f6f0" d="M1894.25 829.793c15.48-.148 17.08 3.37 10.48 10.706-1.61 1.78 5.39 2.3 1.52 7.058-4.63-2.834-3.4-3.353-6.59-6.142-1.86.368-1.49 7.54-4.68 4.523-1.37-1.303-.71-12.984-.73-16.145m-87.02 30.277c4.22.056 17.28-.643 12.82 7.923-3.1 5.938 4.28 8.785-2.89 8.7-.4-.629-3.05-5.253-3.51-5.366-3.44-.848.11 6.978-5.72 4.88-1.43-.515-.72-14.241-.7-16.137"/><path fill="#607999" d="M1812.89 865.077c.34-.147 1.37-.748 1.92-.599.13.036.21.101.26.228.18.431-.35 1.301-.46 1.546-3.21.827-3.54.848-1.72-1.175"/><path fill="#f5f6f0" d="M1781.87 846.002c-.01-3.668-.59-12.551.47-15.681.09-.262 12.14-3.49 10.74 2.821-.26 1.574-.27 2.366-.32 3.986-.61.761-1.63 1.287-2.43 1.811l2.34 3.6c5.34 4.65-9.89 3.458-10.8 3.463"/><path fill="#7380a0" d="M1792.76 837.128c-6.32-1.999-10.4-2.777.32-3.986-.26 1.574-.27 2.366-.32 3.986"/><path fill="#607999" d="M1792.67 842.539c-4.61-.57-8.84-.565-2.34-3.6z"/><path fill="#f5f6f0" d="M1898.05 871.059c-18.78-9.968 11.52-14.198 5.82-6.686-.02 1.197.13 2.79.22 3.97 7.73 11.016-14.13 10.734-11.28 4.583a.87.87 0 0 1 .67-.49c.63-.076 1.36.621 1.77.904z"/><path fill="#7488a2" d="M1904.09 868.343c-2.96-1.194-10.89-4.288-1.84-3.924l1.62-.046c-.02 1.197.13 2.79.22 3.97m-6.04 2.716c6.49 1.184.62 2.416-2.8 2.281z"/><path fill="#f5f6f0" d="M1827.38 860.2c5.4-.109 11.18-2.138 11.85 3.695l-3.36 2.327c6.29 3.473-1 3.81-3.72 4.941 2.85-.022 3.04-.338 4.98 1.738 6.54 5.783-8.55 4.03-8.94 3.46-1.35-1.953-.82-13.421-.81-16.161"/><path fill="#7488a2" d="M1835.87 866.222c-6.78-.198-3.56-2.184 1.34-2.27l2.02-.057z"/><path fill="#7380a0" d="M1832.15 871.163c2.85-.022 3.04-.338 4.98 1.738-3.02.103-3.22.716-4.98-1.738"/><path fill="#f5f6f0" d="M1831.46 828.806c7.56 2.483 9.03 8.734 11.16 9.175 1.5-.658-.37-6.234 1.26-7.839.79-.788 2.68-.093 2.75.244.99 4.797.45 12.113.13 16.935-2.27-1.06-3.34-1.243-4.92-3.317-.64-.841-4.82-6.651-5.55-6.681-2.07-.084-.34 6.515-1.54 8.021-.59.733.01.562-1.19.913-3.2-1.152-2.05-13.887-2.1-17.451m87.62.109c8.22.992 11.56 4.979 4.63 4.653-13.73-.648-3.72 13.666-.34 8.207.02-2.273-3.84-1.332-.54-5.781 2.21.557 5.48.449 5.59 3.423 1.08 5.473-2.87 8.45-8.43 6.904-12.1-3.364-9.14-12.28-.91-17.406m10.64 40.39c-.48-1.122-1.07-2.174-1.25-3.396a4.33 4.33 0 0 1 1-3.432c3.59-4.156 15.59-.947 8.47 3.363l-1.98 1.224c3.52 1.839 6.4 2.94 4.36 7.567-2.3 5.216-15.38 1.032-11-1.871z"/><path fill="#7488a2" d="M1929.72 869.305c6.56 2.754 8.84 4.245-.4 3.455zm6.24-2.241c-2.81-1.853-3.08-2.695.36-1.997l1.62.773z"/><path fill="#f5f6f0" d="M1910.17 860.897c2.5-.058 16.37-1.982 10.99 3.306l.05 3.939c.96 3.789-5.4.803-6.75 3.483.1 2.321 6.49.691 8.47 3.653-.29 2.988-10.63 1.779-12.68 1.747z"/><path fill="#7380a0" d="M1921.21 868.142c-6.79-2.124-10.24-3.737-.05-3.939z"/><path fill="#f5f6f0" d="M1934.92 829.055c9.06 2.867-.07 8.984 10.63 6.413 1.08-.261-.39-8.502 5.3-4.862.86.551-.6 14.965-.7 16.41-6.3-2.4-1.8-5.424-3.77-6.751-8.5-5.719-7.11 5.352-9.57 6.623-2.01-.95-2.08-2.859-2.13-4.885q-.09-6.479.24-12.948m-83.29 30.316c5.86 2.841 14.87 26.516 2.14 13.43-2.22.611-10.87 5.652-10.45 3.177.74-4.383 5.98-12.462 8.31-16.607"/><path fill="#607999" d="m1852.22 868.388.95-.028c-.02.381.02.136-.19.789-.27.066-1.01.294-1.28.246l-.05-.071c.13-.401.01-.123.57-.936"/><path fill="#f5f6f0" d="M1873.16 829.166c8.78 2.727 1.13 10.107 4.85 12.804 10.25 7.436 3.19-20.404 10.85-10.707-.04 6.738.79 20.546-14.25 13.119-2.64-1.301-1.57-11.959-1.45-15.216m-5.49 31.235c2.01.057 9.91-.351 11.13 1.238.18 2.432-4.44 2.225-6.5 3.431l.02.053c-.25 1.059-.2 9.911-.23 11.634-2.89.29-3.65-.112-3.78-3.228-.2-2.708.6-5.951-.26-8.548-.6-1.803-4.05-.318-4.79-2.197-.73-1.865 1.9-2.029 2.98-2.174zm-78.16.098c2.75-.13 10.45-.891 12.58.392l.05.832c-1.32 1.786-3.32 1.143-5.04 2.741-.22 2.054-.05 7.389-.07 9.762-.65 3.764-3.46 3.481-4.11.3-.43-2.156.52-8.061-.18-9.932-.88-2.33-2.9-.266-3.23-4.095m31.65-31.426c6.84 1.533 3.97 10.85 3.74 17.799-6.68-2.185-3.9-10.5-3.74-17.799m62.96 30.543c4.72 2.968 2.91 13.069 2.17 18.172-6.12-2.404-3.97-13.231-2.17-18.172"/><path fill="#79869f" d="M699.17 806.136c21.319 1.734 55.742.595 78.086.595l148.291.089c.892 7.419.57 20.742.59 28.686l-.008 49.285c-.019 9.425.432 53.521-.911 60.752l-.18 248.227-226.857-.19z"/><path fill="#474d5f" d="M925.547 806.82c.892 7.419.57 20.742.59 28.686l-.008 49.285c-.019 9.425.432 53.521-.911 60.752-1.534-17.29.056-53.634-.148-72.226-.155-14.089-.891-55.133.477-66.497"/><path fill="#111112" d="m904.426 912.317.234.843c-1.944 3.533-7.034 7.611-9.559 11.237-33.653 48.316-77.547 84.163-121.543 122.503-13.65 11.9-32.154 30.7-46.724 40.82 2.352-7.69 42.237-63.73 49.661-75.64-.573-23.386.264-50.086.501-73.71l80.698.445 10.286-17.81c11.927-2.178 24.671-5.608 36.446-8.688"/><path fill="#79869f" d="M779.183 941.218c25.524-.143 51.492.316 77.08.389-8.124 14.389-23.827 44.552-32.943 56.672-4.354 5.791-32.859 30.361-40.143 36.821-14.455 12.75-29.37 26.3-44.206 38.5 10.469-18.79 28.058-41.51 39.976-60.74.452-23.49.161-48.062.236-71.642"/><path fill="#111112" d="M814.765 953.482c.206-.008 18.711-1.741 15.016 1.889-1.017.998-11.193.726-13.924.77-6.87.11-14.873.142-21.903.089l.007 43.27c-.021 3.43.676 11.33-.963 13.79-2.034-.33-1.841-2.6-1.814-4.29.295-18.301-.011-36.659.276-54.963a588 588 0 0 1 23.305-.555"/><path fill="#79869f" d="M894.949 917.155c.189.131 1.033.566 1.032.893-.009 2.629-39.159 49.871-44.356 55.562-5.019 5.497-11.035 10.339-16.729 15.122-1.913-1.366.527-4.253 1.49-5.88 11.299-19.097 21.501-40.928 33.685-59.275 8.82-1.896 16.223-3.68 24.878-6.422"/><path fill="#111112" d="m909.629 1007.13.502.37c1.588 3.48.768 131.24.753 146.15-36.784.54-75.057-.02-111.985-.08 2.218-3.49 4.527-6.97 6.787-10.44 13.439-15.68 29.76-18.72 48.014-9.66-3.12-27.19 3.801-35.34 30.585-27.1l.693-.48 1.139-.84c32.872-23.83-29.378-82.19 23.512-97.92"/><path fill="#b47233" d="m905.357 1010.53 2.087.36c1.414 2.45.814 126.62.823 140.14l-104.874-.13c3.456-4.88 5.005-6.58 9.051-10.79 17.147-12.56 27.706-12.44 45.141-.71-3.909-27.23-4.115-39.65 26.78-30.23 41.831-25.36-22.035-72.39 20.992-98.64"/><path fill="#111112" d="M760.915 1110.3c49.438 12.94-9.128 72.59-28.286 27.15-9.925-23.54 15.636-35.32 31.775-43.6 38.459-25.53 72.324-59.27 104.994-91.64 6.145-6.101 30.398-33.107 35.057-35.029l.349 1.174c-3.789 5.785-16.852 18.769-22.304 24.468-31.689 33.117-65.597 64.647-101.422 93.267-12.469 10.21-28.916 15.07-40.521 26.14-5.803 5.46-8.066 12.39-6.749 19.94 2.053 11.77 15.29 21.8 27.199 18.15 24.143-7.39 20.138-41.17-6.98-35.9-7.374 1.44-11.469 12.65-8.79 18.99 2.146 5.62 9.124 6.51 14.057 6.57-2.711-6.22-.996-2.62-5.457-6.9-2.081-3.82-1.918-4.18-1.955-8.68 5.888-9.9 26.684 3.19 15.486 13.54-11.766 10.88-28.372 1.61-25.113-13.21 2.606-11.84 25.4-20.62 35.376-27.71 31.817-22.61 59.296-49.85 87.332-76.82 15.563-14.9 30.431-30.706 44.226-47.243.77-.923 2.56-1.396 3.76-1.374.102 2.33-11.25 14.722-13.438 16.954-34.249 34.933-96.518 100.723-138.596 121.763"/><path fill="#7380a0" d="M753.837 1133.08c4.165-2.84-3.234-7.46 3.113-9.23 12.297-3.43 13.26 10.62 2.344 16.13-2.711-6.22-.996-2.62-5.457-6.9"/><path fill="#f5f6f0" d="M873.571 837.015c3.703 16.52-22.271 11.063-15.788-3.603 2.027-4.583 13.614-6.945 15.406.856.086.972.23 1.785.382 2.747"/><path fill="#7380a0" d="M873.571 837.015c-1.409.056-6.852-.216-7.857.857-1.599 1.707 3.223 3.014 3.075 3.753-.401 2.001-4.216 1.675-5.282.409-1.71-1.703-1.977-6.683-.068-8.255 1.721-1.418 7.415.249 9.75.489.086.972.23 1.785.382 2.747"/><path fill="#f5f6f0" d="M743.394 830.406c10.685-.132 20.842.107 14.247 13.826-17.51 7.548-14.418-1.376-14.247-13.826"/><path fill="#7380a0" d="m747.599 833.08 1.461.3c4.82.938 7.203 1.656 6.207 7.203l-.288 1.8c-9.197 1.468-7.568.355-7.38-9.303"/><path fill="#f5f6f0" d="M798.693 830.014c14.186-.096 12.881.052 13.259 14.628-3.616 2.293-8.559 1.543-13.213 1.601a450 450 0 0 1-.046-16.229"/><path fill="#607999" d="M804.356 840.896q.17-.04.341-.085c.283-.077.863-.342 1.201-.186.152.386-.006.568-.14 1.076a13 13 0 0 1-1.512-.04c-.097-.406-.075-.149.11-.765m.584-6.014c.974-.29.542-.117 1.311.391-.819.046-.677.079-1.311-.391"/><path fill="#f5f6f0" d="M753.125 860.042c4.109.065 12.447-1.102 13.729 4.586 1.062 3.496-5.004 5.738-1.726 8.883 1.643 1.576 2.046 2.266-.053 3.622l-.995.666c-.889-1.024-4.697-6.876-5.827-6.239-1.02 1.75.097 5.32-2.758 5.5-4.16.262-2.38-14.024-2.37-17.018"/><path fill="#607999" d="M757.361 863.717c2.781.471 5.603.111 3.231 3.037-3.419 1.346-3.158.477-3.231-3.037"/><path fill="#f5f6f0" d="M838.764 829.628c3.436-.005 12.208-1.068 13.436 3.472.807 2.982-1.465 4.222-2.323 6.42-.818 2.094 3.925 4.68 2.124 6.898l-.865 1.155c-2.815-1.873-6.16-6.816-7.559-6.624-1.656 1.441.69 5.027-2.621 5.408-1.71.197-2.151-1.495-2.165-2.842z"/><path fill="#7488a2" d="M844.352 834.835c1.734-1.043 2.972-1.7 2.186.991-.431.326-1.112.989-1.7 1.056-.236.028-.381.012-.548-.147-.403-.386.021-1.681.062-1.9"/><path fill="#f5f6f0" d="M772.325 860.22c1.955-.019 13.724-1.511 10.75 2.592-.318.334-2.682 2.403-2.742 2.811.313.563.925.694 1.491.987.114.059.226.124.339.185 3.167 3.211.03 3.297-3.228 3.982 2.779.786 2.896.684 5.207 2.132.412 6.648-5.773 4.145-12.029 4.199q.174-8.443.212-16.888"/><path fill="#8b8c97" d="M782.163 866.795c-11.728-.417-3.021-2.615.912-3.983-.318.334-2.682 2.403-2.742 2.811.313.563.925.694 1.491.987.114.059.226.124.339.185"/><path fill="#7488a2" d="M784.142 872.909c-1.463.069-6.516.756-7.609-.87.057-.652.677-.831 1.259-.961l1.143-.301c2.779.786 2.896.684 5.207 2.132"/><path fill="#f5f6f0" d="M856.025 860.372c.788-.005 20.661-.933 10.138 3.832.222 1.148.685 2.637 1.016 3.807.89 2.729-4.128 2.361-6.171 2.671l1.939.165c2.28.147 3.298.685 5.227 1.906 2.466 6.487-7.494 4.153-12.098 4.18z"/><path fill="#7380a0" d="M867.179 868.011c-1.019-.294-5.189-1.138-5.622-1.415-2.673-1.713.491-2.439 1.95-2.423l2.656.031c.222 1.148.685 2.637 1.016 3.807"/><path fill="#7488a2" d="m868.174 872.753-1.336.082c-1.941.136-7.297 1.352-5.83-2.153l1.939.165c2.28.147 3.298.685 5.227 1.906"/><path fill="#f5f6f0" d="M776.773 829.256c6.907 2.696 4.858 4.136 10.133 9.246.148.144.294.072.489.007 1.634-1.751-1.368-8.113 2.103-8.529a2.4 2.4 0 0 1 1.797.514c1.199.987.585 14.344.568 16.408-6.584-1.277-5.114-2.227-9.628-7.54-3.361-3.956-.632 5.494-3.622 7.061-3.853-.692-2.104-13.889-1.84-17.167m65.892 41.386c-12.802-9.08 4.704-14.414 6.967-7.208l.527 1.484c-.618.803-1.1 1.786-1.59 2.678 5.912 9.875-8.547 13.13-11.051 5.441 1.808-.896 3.267-1.632 5.147-2.395"/><path fill="#7488a2" d="M848.569 867.596c-8.895-2.032-6.487-3.569 1.59-2.678-.618.803-1.1 1.786-1.59 2.678"/><path fill="#7380a0" d="M842.665 870.642c1.534.374 1.328.221 2.527 1.018l.24.536c-.678 1.633-6.601.877-7.914.841 1.808-.896 3.267-1.632 5.147-2.395"/><path fill="#f5f6f0" d="m796.927 859.505 1.704.842c3.344 2.264 5.352 10.63 7.126 14.339.13.428.019 1.526-.338 1.807-2.19 1.726-5.646-2.699-7.057-3.972-3.01 1.542-5.893 5.162-8.135 4.415-2.877-.959 5.788-15.988 6.7-17.431"/><path fill="#607999" d="M797.318 868.385c.459-.128.86-.363 1.273-.208-.061.339-.35 1.031-.567 1.475-.518.005-.972.124-1.369-.124.02-.455.362-.731.663-1.143"/><path fill="#f5f6f0" d="M817.62 829.228c.407.131 3.099.895 3.254 1.121 2.363 3.494-2.383 16.629 7.115 11.433 2.921-1.598-1.968-14.026 4.102-11.835.915.33 1.262 1.95 1.48 2.817-.146 2.787.215 10.061-2.034 11.289-16.603 9.065-14.697-7.607-13.917-14.825m62.445-.073c7.552 2.281 2.563 5.372 4.604 6.436 9.537 4.972 5.391-4.992 9.083-5.945 2.967 1.734 1.437 13.911 1.18 17.081-5.088-2.063-2.047-4.2-3.286-5.13-8.461-6.359-6.764 2.901-9.197 5.044-.104.092-2.535.33-2.505-3.152.042-4.924-.044-9.989.121-14.334m-.3 36.459c17.248 9.065-2.95 15.07-5.846 8.326.378-3.214 6.41.561 7.143-1.903-.671-1.841-4.969-2.219-6.14-3.947-4.305-6.356 6.304-11.894 11.486-4.254-2.846 1.053-3.627 1.204-6.643 1.778"/><path fill="#7488a2" d="M886.408 863.836c-2.846 1.053-3.627 1.204-6.643 1.778-2.021-2.613 4.593-1.664 6.643-1.778"/><path fill="#f5f6f0" d="M729.903 830.379c1.319.051 6.826.08 7.114.443 4.313 5.438-7.144 1.198-6.205 5.204 1.205 1.318 4.793.724 4.845 2.775-1.126 1.662-3.626 1.348-5.125 2.526l-.006.218c.436.328.51.26 1.192.418 1.392.325 5.383.896 6.286 1.854.327 4.153-10.593 1.959-10.548 2.071-1.533-3.77-3.982-14.668 2.447-15.509m79.279 30.101c1.537-.058 12.516-1.293 13.52 1.131.756 1.827-3.696 2.495-4.198 3.221-.996 1.443-.615 7.674-.659 9.362-.196 2.4-1.249 3.917-3.27 2.252-1.865-2.12.181-10.59-1.364-11.963-2.117-1.881-4.746 1.793-4.029-4.003m-72.301-.03q3.06-.015 6.12.007c2.124.028 3.802-.351 5.147 1.023.739 2.708-4.682 2.404-4.95 3.155-.921 2.589-.48 8.812-.486 11.997-7.125 1.317-2.12-7.708-3.947-11.66-.711-1.539-8.749-2.829-1.884-4.522m91.847-1.174c5.22 3.125 3.776 14.111 1.837 18.728-5.276-3.886-3.46-13.1-1.837-18.728M766.6 829.208c5.849 2.437 3.572 11.997 2.962 17.972-6.12-2.877-3.967-11.551-2.962-17.972"/><path fill="#79869f" d="M1150.96 1695.46c5.75-.98 48.64-.59 57.42-.53 42.4.29 85.48-.46 127.81.22 3.88-.12 4.46-.86 6.91.94.79 4.64.35 19.35.32 24.74-.14 15.3-.17 30.59-.1 45.88l-.38 209.24-191.22-.66.19-150.26c-1.22-8.14-1.19-34.75-.74-43.49z"/><path fill="#4e565e" d="M1150.96 1695.46c5.75-.98 48.64-.59 57.42-.53 42.4.29 85.48-.46 127.81.22-8.96 1.4-27.62.92-37.38.91l-62.01-.1-54.88-.03c-8.46.01-22.95.45-30.96-.47"/><path fill="#474d5f" d="M1151.17 1781.54c.81 7.4 1.2 35.54.74 43.49-1.22-8.14-1.19-34.75-.74-43.49"/><path fill="#111112" d="M1247.25 1730.13c18.72-.7 17.71 11.25 29.47 12.5 14.07 1.51 20-10.78 28.07 13.53-.41 2.11-2.1 10.42-1.66 12.01 2.4 8.54 17.77 13.04 18.46 23 .44 6.39-3.15 12.19-6.98 16.9 10.03 18.33 14.78 27.1-6.3 37.77-2.53 19.08-5.49 21.65-24.79 22.31-8.15 11.81-14.07 20.64-29.33 14.29-4.11-2.29-7.97-5.51-11.72-8.4-8.18 2.77-18.89 6.41-27.61 4.16-9.8-2.53-5.49-15.34-12.72-22.51-6.64-6.59-21.67-6.47-24.8-14.63-2.99-7.79 3.03-19.46 6.5-26.25-19.73-34.13-4.32-25.47 11.2-44.48 12.65-15.49-9.75-30.53 34.93-27.91 6.31-6.13 8.85-9.14 17.28-12.29"/><path fill="#c32328" d="M1245.81 1733.13c21.1-1.06 13.71 7.83 30.37 12.35 3.38.92 12.12-4.54 17.75-1.4 13.2 5.13 3.11 23.53 8.45 28.89 12.67 12.72 24.12 13.85 9.46 34.83l2.37 4.73c8.34 16.88 9.68 23.92-8.69 31.33-1.21 19.21-4.78 20.85-23.46 21.42-8.35 12.02-12.73 21.02-28.21 13.99l-11.54-7.92c-2.52.8-5.04 1.59-7.56 2.35-22.25 6.71-25.07-.62-28.73-20.56-26.47-10.28-33.54-9.29-19.38-39.01-19.09-32.38-5.63-23.46 10.3-41.63 13.41-15.3-10.37-30.29 34.19-27.27 5.7-4.99 7.66-8.63 14.68-12.1"/><path fill="#111112" d="M1247.73 1754.55c28.33-2.79 53.55 17.95 56.27 46.29s-18.08 53.5-46.42 56.15c-28.25 2.65-53.31-18.07-56.03-46.31-2.71-28.24 17.95-53.35 46.18-56.13"/><path fill="#c32328" d="M1247.95 1757.42c26.77-2.58 50.55 17.05 53.09 43.82s-17.12 50.52-43.89 53.03c-26.73 2.5-50.42-17.12-52.96-43.84-2.53-26.72 17.05-50.44 43.76-53.01"/><path fill="#79869f" d="M401.015 806.153c25.697 1.53 61.667.406 88.007.377l137.141.311-.15 152.095c-8.857-.063-19.056.718-27.996 1.192l-.174-34.138-144.017.144-.127 133.616.033 17c-10.723 6.18-11.737 10.08-15.946 21.34 17.479-10.94 24.837-10.26 45.091-9.04-.349 44.71 26.727 46.66 19.578 104.83l-103.091-.18c2.474-47.67 1.598-103.2 1.596-151.33z"/><path fill="#f5f6f0" d="M441.225 829.339c11.165.134 21.789 1.12 14.716 15.473-5.589 2.018-8.054 1.431-14.105 1.449a552 552 0 0 0-.611-16.922"/><path fill="#7380a0" d="M446.686 832.579c6.984 2.137 7.66 2.505 6.125 9.901-8.148.079-6.844-1.059-6.125-9.901"/><path fill="#f5f6f0" d="M497.936 829.816c3.292-.049 10.253-.848 12.466 2.094-1.075-1.429 1.747 12.949 1.627 12.009-6.066 2.903-6.989 2.14-14.037 2.226z"/><path fill="#607999" d="M503.629 840.711c1.471-.875 1.251-.826 2.05.526-.577.381-.987.847-1.65.817-.3-.385-.294-.837-.4-1.343m-.244-6.052c1.076-.316.815-.659 1.535.183l-.314.215-.828.337c-.219-.253-.085-.057-.393-.735"/><path fill="#f5f6f0" d="M563.542 837.544c6.21-.917 15.527-1.286 6.426 8.191-3.738 3.892-16.253-1.643-12.599-10.596 3.621-8.873 16.795-6.147 14.156-1.647-1.858.696-4.707-1.305-9.872.741 1.331 1.519 1.218 1.393 1.889 3.311"/><path fill="#7380a0" d="M563.542 837.544c.769.767 4.991 4.097 5.08 4.407-.37.844-1.262 1.117-2.158 1.197a4.12 4.12 0 0 1-3.327-1.197c-1.603-1.585-1.553-3.741-1.502-5.841l.018-1.877c1.331 1.519 1.218 1.393 1.889 3.311"/><path fill="#f5f6f0" d="M469.315 860.854c.154-.008 19.722-1.434 11.026 3.672l.179 3.276c1.291.878 1.187 1.538 1.417 3.016.381 1.113.519 1.372.029 2.356.248 6.428-7.233 3.788-11.372 3.465-1.258-.099-1.056-10.561-1.134-12.492z"/><path fill="#7488a2" d="m481.966 873.174-1.276-.02c-.664-.005-4.397.075-4.915-.174-5.014-2.404 6.299-2.166 6.162-2.162.381 1.113.519 1.372.029 2.356m-1.446-5.372q-1.149-.237-2.302-.45c-3.563-.64-5.788-2.381-1.216-2.656l3.339-.17z"/><path fill="#f5f6f0" d="M450.192 860.341c4.793.064 18.297-.141 12.788 8.628-4.072 6.48 3.181 4.099-.027 8.276l-.691.932c-1.218-.949-6.295-5.848-6.643-5.987-1.781.321-1.543 7.977-4.892 4.318-1.22-1.334-.607-13.539-.535-16.167"/><path fill="#7488a2" d="M455.28 864.54a2.247 2.247 0 1 1 2.945 3.394 2.247 2.247 0 0 1-2.945-3.394"/><path fill="#f5f6f0" d="M538.326 829.846c3.1-.017 9.317-.74 12.05 1.301 2.031 1.361 2.108 5.726.36 7.229-4.658 4.004 3.231 4.872.035 8.346l-.668.78c-3.45-2.434-5.543-5.758-6.708-6.402-1.895 2.342-.918 5.069-3.939 5.374-1.944-2.192-1.158-12.778-1.13-16.628"/><path fill="#7488a2" d="M543.146 833.9c2.8.568 5.432.313 2.663 2.472-2.85.422-3.973.547-2.663-2.472"/><path fill="#f5f6f0" d="M553.191 860.855c2.283-.021 16.023-1.717 11.608 3.673l-1.64 3.791c.821.773.965 1.263 1.52 2.274-.359 2.679-.914 2.049-3.659 2.558 1.467.376 3.216.534 4.435 1.451.658.495.421 1.669-.114 1.908-2.886 1.291-8.813.728-11.966.705a397 397 0 0 1-.184-16.36"/><path fill="#7488a2" d="M563.159 868.319c-1.866-.566-9.138-3.17-2.066-3.58l1.868-.091 1.838-.12z"/><path fill="#607999" d="M561.02 873.151c.003 0-3.701-.628-2.757-1.437 1.284-1.1 4.761-.997 6.416-1.121-.359 2.679-.914 2.049-3.659 2.558"/><path fill="#f5f6f0" d="M474.974 829.076c7.378 2.156 5.776 4.074 10.445 9.465 4.613 5.328.171-7.734 4.492-9.095 3.306 1.319 1.98 12.463 2.018 16.34-9.923 2.747-9.655-10.657-13.352-8.736-.998 2.088 1.049 8.014-1.919 9.603-3.245-1.366-1.743-14.172-1.684-17.577m19.585 30.296c7.069 2.991 14.472 28.112 2.059 13.301-2.927.931-13.637 9.023-9.728.795 2.046-4.308 5.304-9.907 7.669-14.096"/><path fill="#79869f" d="m494.912 868.414.542.288c.035.298.048.088-.19.72l-.47-.498c-.038-.307-.061-.138.118-.51"/><path fill="#f5f6f0" d="M545.295 868.27c8.645 6.887-3.657 12.28-9.134 7.53-2.926-2.537.383-4.471 2.843-2.914.369.234 2.899.821 3.625.45.139-2.553-8.15-3.622-7.551-7.818.816-5.717 13.105-8.411 11.738.116z"/><path fill="#7488a2" d="M545.295 868.27c-.914-.354-4.654-1.26-4.687-2.638 1.186-1.358 4.652-.273 6.208.002z"/><path fill="#f5f6f0" d="m423.345 829.354 8.651-.1c5.171-.107 5.096 3.162 1.002 3.773-1.626.243-4.485-.571-4.936 1.572 1.064 1.034 1.501.823 2.942 1.241 8.734 2.535 1.353 3.775-2.919 4.666l-.972.209c1.479.889 10.506 2.612 8.193 4.789-1.654 1.558-9.366 1.094-11.957 1.093a972 972 0 0 1-.004-17.243m159.158 39.061c2.103 4.156 1.465 7.515-3.938 8.73-2.11.475-5.448.356-7.113-1.101-2.169-1.897-.062-3.217 2.035-2.867.259.048 5.508.886 5.156-.603-.336-1.421-5.109-2.15-6.24-3.233-.928-.888-1.454-1.425-1.62-2.875-.636-3.105 2.143-5.809 5.201-5.671 1.911.085 4.359-.181 5.873 1.374 1.202 1.235 1.087 2.539 1.07 4.165q-.225 1.038-.424 2.081"/><path fill="#7488a2" d="M582.503 868.415c-10.033-3.002-9.085-5.155.424-2.081q-.225 1.038-.424 2.081"/><path fill="#f5f6f0" d="M517.104 829.064c8.171 2.087 1.435 7.211 4.697 13.005.863 1.533 4.463 1.515 5.91-.134l.104-.037c-.016.104.584-19.985 4.446-9.993-.086 4.05.705 9.633-1.942 12.409a8.08 8.08 0 0 1-5.817 2.467c-9.928-.02-7.54-11.075-7.398-17.717m-86.935 32.3c2.544-.353 14.915-2.56 14.184 1.77-1.763 2.062-5.526.155-5.235 3.789.149 1.859-.153 4.399-.267 6.305.169.949.513 2.301.096 3.234-.18.403-.523.711-.944.847-5.015 1.659-2.067-9.808-2.953-11.379-1.196-2.119-2.828-2.03-4.881-4.566m75.929.014c3.733-.473 8.304-.774 12.024-.343l-.474-.043c6.095 1.053-1.948 3.458-2.381 4.254-.906 1.664-.744 6.751-.856 8.762.056 1.039-.049 4.029-2.456 2.938-2.117-.959-.332-10.118-1.079-11.459-1.435-2.574-2.985-.157-4.778-4.109m77.411-21.554c-.01.141.532 10.618-4.211 5.576-.71-.754-.465-13.799.007-14.344 4.621-5.337 4.574 4.272 5.062 6.301q-.437 1.231-.858 2.467m7.085-3.899.045-1.954c-.022-3.146.884-5.773 4.252-3.277.813.602 1.061 14.381-.551 16.312-4.618.209-3.52-3.933-3.425-7.335-.076-1.187-.121-2.571-.321-3.746m-126.507-6.867c6.857 1.757 4.124 10.97 3.608 17.876-6.462-1.199-3.753-11.628-3.608-17.876m61.023 31.04c6.627 2.175 3.934 10.616 3.678 17.707-6.894-2.029-3.99-10.433-3.678-17.707"/><path fill="#f5f6f0" d="M584.367 837.357c2.123-.541 4.078-.997 6.227-1.432.2 1.175.245 2.559.321 3.746q-3.702.12-7.406.153.421-1.236.858-2.467"/><path fill="#79869f" d="M959.312 1627.73c30.654 1.29 92.628-.43 125.678.62.46.39.91.78 1.37 1.17 1.03 5.9.73 9.7.46 15.72.34 10.67.81 21.34 1.43 31.99 1.5 2.4.73 7.09.57 10.17.3 11.61.78 23.23 1.44 34.83 1.41 2.36.71 5.84.59 8.84l.44 13.15c.92 1.61.67 1.61.38 3.55l.6 12.46c1.26 2.02.82 2.94.46 5.51l.54 18.48c1.19 2.03.76 3 .44 5.53l.54 13.47c1.44 2.48.7 6.04.57 9.16.09 22.34 1.95 49.4 2.84 72.22-17.58-.84-37.89-.4-55.69-.4l-94.647.16c1.124-58.1 6.065-118.31 7.84-176.99-.161-3.15-1.071-6.76.595-9.03 1.856-22 2.957-48.53 3.554-70.61"/><path fill="#474d5f" d="M1086.36 1629.52c1.03 5.9.73 9.7.46 15.72-1.02-6.24-.96-9.42-.46-15.72m1.89 47.71c1.5 2.4.73 7.09.57 10.17-.66-4.17-1.01-6-.57-10.17m-132.492 21.11c.421 3.86.064 5.17-.595 9.03-.161-3.15-1.071-6.76.595-9.03m138.492 104.88c1.44 2.48.7 6.04.57 9.16-.64-3.87-.94-5.2-.57-9.16m-3.99-80.99c1.41 2.36.71 5.84.59 8.84-.69-3.86-.98-4.96-.59-8.84m2.01 38c1.26 2.02.82 2.94.46 5.51-.97-2.07-.69-3.23-.46-5.51m1 23.99c1.19 2.03.76 3 .44 5.53-.94-2.09-.67-3.23-.44-5.53m-1.98-40c.92 1.61.67 1.61.38 3.55-.74-1.63-.57-1.66-.38-3.55"/><path fill="#79869f" d="M440.481 1344.64c-2.24-11.21-2.085-23.6-.904-34.96 5.69-54.73 57.091-66.95 66.483-119.35 7.549-42.13-20.082-62.03-20.233-98.95a69.47 69.47 0 0 1 20.336-50.01c26.849-26.89 58.991-28.82 94.52-28.9-5.502 2.43-11.562 5.09-16.497 8.56a64 64 0 0 0-26.503 42.28c-3.578 21.48 2.682 39.27 14.953 56.61.618.46.534.47.994 1.17l2.958 3.87c.589.35.573.5 1.006 1.14l5.821 7.16 1.838 1.91c1.335 1.37 1.97 3.01 2.741 4.72 10.518 21.98 15.619 46.81 7.924 70.77-4.777 14.87-17.237 28.49-27.666 40.03-22.354 24.73-31.069 53.41-25.213 86.61-7.554-10.5-12.088-16.65-23.925-22.9-1.033-.21-.975-.21-1.744-.95-33.15-16.78-63.086-1.34-76.889 31.19"/><path fill="#4e565e" d="m583.415 1133.26 1.838 1.91c1.335 1.37 1.97 3.01 2.741 4.72-2.118-1.94-2.922-4.07-4.579-6.63"/><path fill="#79869f" d="M601.999 1196h376.795l-.129 12.94c-22.637 14.96-10.695 23.17-14.872 29.03l-380.773.14c12.038-15.19 15.746-23.08 18.979-42.11"/><path fill="#b47233" d="M1077.82 1449.39c1.89 45.57 4.03 91.13 6.42 136.67-11.39 0-119.401.86-122.493-.47-.967-3.5-.746-4.3-.503-7.83-.286-1.67-.629-2 .503-3.33 3.378-41.7 4.604-83.67 7.446-125.31 13.36 2.54 94.757 2.63 108.627.27"/><path fill="#52341b" d="M961.747 1574.43c.189 1.84.346 1.79-.503 3.33-.286-1.67-.629-2 .503-3.33"/><path fill="#79869f" d="m979.821 1248.78 87.949.17c.19 16.98 1.51 35.31 2.5 52.28 1.23 2 .82 2.89.46 5.42.32 10.2.84 20.39 1.57 30.57 1.03 1.83.75 2.17.42 4.47.37 10.04.75 19.52 1.56 29.56 1.14 1.77.83 2.06.46 4.4.3 10.97.86 22.18 1.3 33.17-26.23-1.98-77.379-.67-104.636-.41 1.162-51.51 5.889-107.78 8.417-159.63"/><path fill="#474d5f" d="M1070.27 1301.23c1.23 2 .82 2.89.46 5.42-.92-2-.66-3.22-.46-5.42m4.01 70.02c1.14 1.77.83 2.06.46 4.4-.91-1.83-.67-2.19-.46-4.4m-1.98-34.03c1.03 1.83.75 2.17.42 4.47-.84-1.89-.62-2.23-.42-4.47"/><path fill="#b47233" d="M988.911 1034.93c22.759 1.05 46.299.42 69.139.1.96 14.16 8.67 168.99 5.95 173l-3.75.09c-25.21-.2-53.49-.29-78.572.66-.073-57.73 6.883-116.86 7.233-173.85"/><path fill="#79869f" d="m456.079 928.705 139.449-.143c.019 10.621-.194 21.461-.296 32.101-31.632 3.11-54.788 14.772-76.95 37.274-24.685 27.443-23.316 44.813-33.656 77.423-9.376-.38-19.207.33-28.614.81.305-49.15.327-98.31.067-147.465"/><path fill="#111112" d="M548.745 944.493c7.623-.016 27.423-1.896 32.786 1.678-5.834 1.141-25.034.955-31.83 1.048q-37.826.584-75.657.486l.175 86.545c.082 10.78.325 18.9-1.061 29.58l-.647-.12c-1.247-13.23-.824-31.34-.891-45.01-.224-24.547-.164-49.101.181-73.652q38.474.072 76.944-.555"/><path fill="#79869f" d="M1408.76 832.357c14.32 6.452 26.28 4.866 40.85 1.595l-.14 145.329c.07 33.319 0 66.959-.29 100.299-.04 3.88.07 4.71-1.79 7.38-14.56 10.17-23.83 13.17-38.34.56zm-1051.686.92c12.573 5.571 28.287 4.682 40.907-.279l.084 167.112c.011 27.54.115 55.66-.134 83.25-.03 3.33-.198 2.91-1.814 5.38-13.533 8.27-26.131 9.58-38.759-1.07 1-25.64 1.217-54.28.588-80.05-1.404-57.552 1.442-117.005-.872-174.343m789.426-.19.89.177c2.09 9.864.33 52.498.34 65.738.18 62.739-.02 125.478-.59 188.218-10.3 8.64-22.22 12.15-34.48 5.2-.61-.63-3.54-4.14-3.55-4.5-1.26-84.55.69-170.03-.89-254.498 14.1 4.602 24.15 6.236 38.28-.335m-1089.401.162c14.952 5.468 24.104 4.399 39.05 1.127l.01 167.434-.02 53.67c-.005 8.86.119 18.14-.267 26.99-.16 3.64-.312 3.06-2.433 5.36-12.964 10.24-24.043 10.4-36.385-.69zm599.726-.734c12.273 6.928 25.823 5.487 39.135 2.714l.063 169.431-.015 51.85c-.005 8.74.142 18.15-.419 26.88-.23 3.58-.881 3.51-3.042 6.25-13.199 8.77-22.659 7.49-35.57-.91zm1054.285-.162c12.05 6.56 26 4.981 38.84 2.721l.05 164.113c.01 27.513.26 55.693-.3 83.243-.06 3.24-1 4.61-2.9 7.06-12.23 9.67-24.18 9.09-35.33-1.32-1.49-83.12-1.01-172.424-.36-255.817"/><path fill="#b47233" d="M999.403 838.448c16.707.102 33.407.007 50.117-.285 2.19 23.929 2.21 57.771 3.57 82.7 1.31 24.176 3.89 60.61 3.48 84.107-2.43 1.64-2.78 1.02-6.32 1.03-19.86-.08-39.72.01-59.581.28.732-53.363 6.243-113.44 8.734-167.832"/><path fill="#79869f" d="M948.113 1924.43c49.315.72 100.117-.11 149.817.29-4.47 15.69-11.2 24.44-22.35 35.94-41.86 37.86-113.493 19.41-127.467-36.23"/><path fill="#b47233" d="M309.462 763.707c-8.201 9.536-8.365 17.43-1.387 27.744l.821 1.856c-4.157 1.757-187.252.677-206.939.684 4.798-15.578.043-23.194-14.065-29.598 23.47-1.163 52.625-.414 76.594-.411zm1432.268.612c26.57-1.184 57.11-.519 83.91-.464l136.38.096c-7.73 11.233-8.9 18.887 1.07 28.737l.19.373c-2.29 1.699-188.77.72-207.95.671 3.55-15.325.23-22.165-13.6-29.413m-84.99-.804c2.61-.109 1.68-.341 3.99.734-6.4 12.965-8.95 18.835 1.94 29.926-68.53-1.242-139.55-.426-208.36-.75l.34-1.468c3.6-15.089-2.45-21.766-15.52-27.745 71.77-1.346 145.52-.077 217.61-.697m-297.93.253c-7.84 11.11-8.72 17.888-.26 28.753l.13.94c-5.8 2.098-186.12.437-205.71.484 5.48-16.618-.57-22.89-15.18-29.624 20.76-1.527 54.16-.487 76.1-.481zm-671.292.721c24.44-1.354 58.26-.3 83.012-.182l136.441.448c-6.913 10.028-6.849 18.656 1.134 27.779l.417.716c-3.499 2.175-184.981.74-206.656.818 3.674-16.106 1.303-22.356-14.348-29.579m-298.569-.157c21.809-1.341 54.355-.418 76.623-.406l140.149.137c-5.866 12.42-7.652 16.424.802 28.508l.759.718c-1.74 1.311-182.578 1.545-202.055-.03-5.586-11.376 8.575-15.351-16.278-28.927M944.81 1887.14c34.504-.87 70.21.25 104.9-.28 15.09-.23 34.18-.36 49.38.64 3.63.88 7.65 4.81 9.16 7.9 6.04 12.41 2.72 20.23-8.65 26.55-31.83.83-65.31-.49-97.51.08-17.71.32-40.456.51-58.137-.92-3.182-.6-6.662-3.26-8.051-6.09-6.534-13.29-2.598-21.23 8.908-27.88m62.93-1214.277c11.72.08 23.45.098 35.17.054q3.465 67.371 5.94 134.785c-15-.527-33.69.029-48.949.558 1.699-19.262 2.749-43.001 3.379-62.498-.44-2.6-.89-3.52.46-5.521 1.26-21.819 2.15-45.728 4-67.378"/><path fill="#52341b" d="M1003.28 745.762c-.44-2.6-.89-3.52.46-5.521.21 2.288.46 3.42-.46 5.521"/><path fill="#b47233" d="M1079.77 1588.46c23.94-1.85 28.89 33.11 6.46 36.17-13.39 1.83-29.57 1.23-43.24 1.22l-76.607-.29c-26.89-1.28-27.969-29.97-7.945-35.98 5.58-1.68 32.189-.9 39.742-.9 27.2.18 54.39.1 81.59-.22m-89.515-177.96c22.995-.36 64.935-1.25 87.005.93.78.55 1.56 1.1 2.32 1.67 17.24 12.81 11.75 28.55-7.58 34.16-4.82 1.4-12.34.88-17.5.81l-49.04.13c-8.433.01-18.516.6-26.766-.45-24.878-3.16-29.475-23.27-8.469-37.02z"/><path fill="#79869f" d="M1228.57 750.208c43.91-1.175 88.27.353 132.22-.254 4.88-.067 11.6-.313 16.31.204.09 4.178 1.56 10.709-3.59 10.76-18.72.187-37.46.004-56.18.025l-127.13.097c-17.82-.051-35.81-.608-53.69.352-14.83.796-27.57 20.213-15.05 32.103 15.93 14.303 33.03-8.6 15.03-18.389-6.23-3.384-13.86 5.412-8.32 13.526 3.6 1.75 1.86 1.69 5.39.543l.32-1.54c-4.31-1.887-4.72-2.175-5.01-6.576 1.78-3.223.57-2.013 3.73-3.809 6.73.06 10.09 6.682 8.35 10.803-9.91 23.418-34.8-10.421-13.17-20.031 17.72-7.867 28.87 11.184 20.89 28.988l-.6 1.314c-9.25 7.596-13.05 6.956-24.77 6.594-28.59-18.449-12.61-50.151 16.8-54.308 1.23-.674 1.17-.561 2.64-.293 27.63-.919 58-.234 85.83-.109"/><path fill="#4e565e" d="M1228.57 750.208c43.91-1.175 88.27.353 132.22-.254 4.88-.067 11.6-.313 16.31.204-6.45 1.286-41.34 1.121-50.56.912-31.48-.711-67.1.956-97.97-.862m-88.47.402c1.23-.674 1.17-.561 2.64-.293-1.13.689-1.1.51-2.64.293"/><path fill="#79869f" d="M1437.25 751.57c5.28-1.097 32.19-.568 38.75-.553l83.03.044 82.86-.007c7.03.001 33.13-.418 38.6.431.08 3.538.67 6.269-1.32 8.998-5.88 1.233-37.17.452-44.93.474l-136.46.085c-19.93-.022-43.23-.861-62.92.939-10.85 2.649-19.78 12.604-17.42 23.73 4.14 19.491 31.76 13.609 27.94-4.613-2.1-9.998-23.75-9.146-17.67 6.196 2.47 1.825 1.09 1.433 4.3 1.011.63-.606 2.58-2.411 3.18-3.142-2.09-.593-10.36 2.142-3.6-6.962 3.69-4.97 17.56 4.808 9.48 11.866-2 2.743-4.03 4.748-7.67 4.937-24.73 1.587-11.12-34.457 6.15-28.176 13.88 5.049 15.65 15.599 10.88 27.462-6.14 19.659-37.29 10.096-41.31-6.066-4.94-19.835 12.29-31.594 28.13-36.654"/><path fill="#4e565e" d="M1437.25 751.57c5.28-1.097 32.19-.568 38.75-.553l83.03.044 82.86-.007c7.03.001 33.13-.418 38.6.431-6.95 1.078-27.21.644-35.32.629l-66.8-.138-90.72.087c-14.78.023-36.27.66-50.4-.493"/><path fill="#7380a0" d="M1435.19 785.163c-2.09-.593-10.36 2.142-3.6-6.962 3.69-4.97 17.56 4.808 9.48 11.866.97-6.492 1.07-6.714-5.88-4.904"/><path fill="#b47233" d="M979.652 1211.41c25.518-1.5 62.068-.44 88.038-.38 13.88 9.92 17.05 26.52.4 35.22-28.41.37-61.79.46-90.117-.36-16.894-11.45-14.815-24.15 1.679-34.48"/><path fill="#79869f" d="M1708.88 782.906c10.11-36.383 36.2-31.417 66.8-31.43l55.79-.001 96.79.221c7.44.026 48.72-1.087 52.69 1.844l-.04 3.477c-1.49 2.643-2.61 3.858-5.68 4.529-7.17 1.571-24.97-.474-33.53-.403-27.59.226-196.86-2.639-208.44 1.564-6.06 2.2-11.38 6.997-13.72 13.061-1.66 4.316-1.76 8.999.42 13.161 2.22 4.234 6.78 7.97 11.49 9.01 3.17.703 6.42.05 9.12-1.759 3.34-2.245 5.5-5.895 6.26-9.813.59-3.008.21-6.331-1.81-8.764-1.49-1.784-3.62-2.65-5.87-2.977-2.81-.41-5.73.215-7.9 2.129-1.9 1.682-3.36 4.401-3.45 6.97-.1 2.728.74 3.453 2.47 5.247 4.29.412 3.55-.133 8.15-2.523l1.82 1.033 1.88-1.451 1.93.441c-2.42 9.947-11.38 13.019-18.37 4.684a17.92 17.92 0 0 1-4.1-12.814c1.75-20.618 40.12-12.537 31.95 11.428-2.93 8.583-3.67 9.349-11.66 14-19.6 1.541-26.42-2.237-32.99-20.864M682.686 753.192c18.168-1.03 39.137-.565 57.514-.563l94.451.132 56.018.087c9.408-.011 24.952-.475 33.853.586 1.789 1.96 1.132 3.109 1.248 6.607-1.758 1.633-2.904 2.223-5.741 2.161-20.693-.449-41.701-.296-62.361-.29l-151.918-.402c-9.229-.054-22.859-.839-30.821 3.618-13.073 7.569-15.525 30.034 1.943 33.024 17.285 2.958 23.544-24.8 4.423-23.683-5.171.302-7.688 6.565-6.291 11.922 1.594 2.191 3.644 4.119 6.458 3.016-2.027-4.674-3.896-6.344-3.595-10.778l1.933-1.355c3.57-.452 3.868-.788 7.215.66 14.656 15.161-22.486 28.735-19.485 3.059 2.083-17.817 24.097-18.761 31.446-4.272a18.5 18.5 0 0 1 .601 15.191A19.17 19.17 0 0 1 688.57 802.8c-21.803 8.469-40.765-11.588-28.163-32.672 6.259-10.471 11.108-13.47 22.279-16.936m-593.05 50.567c-7.276.67-15.285 1.499-21.643-2.093-23.951-10.288-5.977-47.532 13.368-48.368 78.766-3.403 159.032.044 238.057-1.11 2.837-.041 5.219.125 7.58 1.396.489 3.226.37 3.143-.238 6.4-2.372 2.119-15.748 1.1-20.228 1.126-69.736.399-139.484-.129-209.218.129-5.595.02-12.033.434-17.543 1.664-9.577 3.136-17.962 13.818-14.592 24.217 3.513 10.835 22.491 15.08 26.744 2.485 1.778-5.266.004-14.835-6.805-15.418-3.262-.28-7.109 1.177-9.21 3.803-1.897 2.607-1.354 3.768-.97 6.567 2.659 3.584 1.468 2.408 5.885 4.299 3.432-.59 2.604 1.921 3.963 5.499-23.417 3.007-22.694-25.852-2.93-27.241a19.56 19.56 0 0 1 14.629 5.249c11.419 10.775 1.9 23.19-6.85 31.396m299.008-17.905 2.111 2.862c-1.009 5.901-6.387 6.349-11.396 5.605-15.929-2.368-11.528-21.53.113-26.354a15.47 15.47 0 0 1 12.624.28c9.592 4.562 12.427 19.431 7.539 27.705-5.438 9.206-22.42 11.416-31.279 6.347a21.78 21.78 0 0 1-10.381-13.74c-1.618-6.803.168-13.874 3.895-19.676 5.204-8.104 13.848-13.619 23.245-15.484 9.08-1.801 234.325-1.365 236.985-.461.735.25 1.284.873 1.926 1.31 1.212 3 .739 3.551.053 6.743l-1.528.756c-6.05.398-13.621.317-19.725.178-29.57-.675-60.349.962-89.832-.775-36.102.776-72.412-.364-108.524-.025-11.093.104-24.531.197-33.012 8.418-14.534 14.089 7.238 40.184 20.762 22.993a10.14 10.14 0 0 0 2.089-7.723c-1.626-12.233-17.492-15.364-18.063-.521 2.113 3.241.727 1.899 4.757 3.625 1.53-.146 3.293-.263 4.789-.506.998-.488 1.886-1.012 2.852-1.557"/><path fill="#72757f" d="M512.993 761.15c17.688-1.6 43.669.068 61.947-.494 7.447-.229 41.648-.216 47.61 1.091-6.05.398-13.621.317-19.725.178-29.57-.675-60.349.962-89.832-.775"/><path fill="#b47233" d="M1014.25 533.796c7.92.167 15.83.197 23.74.089 1.2 12.289 3.21 56.702 2.8 71.492-.01.312-1.37.467-1.7.516l-29.07-.014c1.79-23.898 2.8-48.104 4.23-72.083m-26.549 475.274 52.269-.11c6.52.03 18.6-1.77 22.98 3.06 6.53 7.21 4.12 14.13-2.19 20.36-2.75.25-5.49.44-8.26.48-10.42.16-62.955 2.44-67.782-2.52-2.896-2.97-3.868-7.32-3.593-11.36.288-4.22 3.662-7.27 6.576-9.91"/><path fill="#79869f" d="M605.523 962.406c6.261-.54 14.907-2.336 19.79 1.069 1.485 3.559 1.153 1.681.461 5.897-1.859.928-1.396.945-3.274 1.012-33.888 1.213-70.305 9.603-92.267 37.636-11.898 15.19-8.399 16.64-25.207 30.49-5.121 5.15-7.018 7.88-11.27 13.84 12.245-57.326 55.595-85.607 111.767-89.944M396.358 1136.02c.264.04 1.075.1 1.092.32.715 9.51.17 37.65-.21 45.61-13.245-.09-26.49-.1-39.735-.04l.201-44.13 1.2.31c14.101 3.75 24.078 4.16 37.452-2.07M1980.29 804.017c-70.21 1.036-140.88-.513-211.12.372-5.47.069-12.34.306-16.21-3.548l.19-2.342c3.6-2.917 42.86-1.736 49.55-1.729l113.79.09c20.33-.019 44.1.474 64.08-.553.85 3.436.47 4.187-.28 7.71"/><path fill="#4e565e" d="M1980.57 796.307c.85 3.436.47 4.187-.28 7.71-.21-3.662-.3-4.14.28-7.71"/><path fill="#79869f" d="M1447.96 1135.28c1.62 2.04.98 40.57.96 46.37-13.49-.38-26.55-.22-40.03-.21.18-14.5.22-29.01.11-43.51 15.27 3.73 24.57 4.78 38.96-2.65M100.265 797.026c14.825-.765 35.076-.239 50.225-.221l92.938.121 53.952-.09c7.885-.03 22.843-.557 30.193.511 1.385 2.489.967 2.764.562 5.714l-2.076.742c-22.909.185-223.996 1.494-229.134-.578-.031-3.212.747-2.965 3.34-6.199m599.845-.063 156.22.029c10.683-.002 60.065-.827 68.536.619 1.655 2.982 1.081 1.335.824 5.415l-1.656 1.08c-19.893-.005-223.665 1.082-227.58-1.35.3-3.001 1.19-2.988 3.656-5.793m407.61 339.207c12.93 6.19 24.44 6.69 37.61.67l1.5-.67c-.23 14.29-.27 28.57-.12 42.86-.06.61-.18 2.02-.67 2.05-8.2.46-31.11.24-38.62.26.39-15.05.49-30.11.3-45.17M402.885 796.873c23.354-.055 217.867-1.246 222.786 1.105.864 2.763.753 2.587.113 5.447l-2.534.752-227.468-.349c3.146-2.597 4.339-3.905 7.103-6.955M1711.46 1136.94c14.47 6.3 24.26 4.28 38.44-.66l.06 42.78c-.9 3.78-33.52 2.12-38.83 2.1q.39-22.11.33-44.22m-258.64-340.432 147.27.337c11.14.03 76.29-1.347 80.08 1.677.48 3.178.64 1.6-1.02 4.801l-2.9.521c-45.98-.309-91.95-.383-137.93-.222-12.1.075-81.67 1.288-88.86-.659.23-3.149 1.21-3.418 3.36-6.455M94.456 1136.14c2.354.79 1.545 40.11 1.007 44.9l-38.702-.04.246-43.73c15.348 4.68 21.95 5.68 37.45-1.13m562.602.25c13.038 7.34 25.574 5.75 38.556-.15-.102 14.18-.062 28.37.12 42.55-1.826 2.81-33.386 1.94-38.73 1.97z"/><path fill="#b47233" d="M997.841 811.224c16.109-.71 35.339-.232 51.699-.265 2.25.163 5.08 2.556 6.11 4.358 5.14 8.987 3.28 14.731-4.26 20.045-15.73.937-31.49-.077-47.4.453-8.351.279-12.428-4.937-12.759-13.321-.19-4.82 3.187-8.202 6.61-11.27m11.389-202.715c12.32-.252 23.31-.185 35.57.767 10.5 9.847 11.42 20.127-2.71 26.928-6.83.376-29.53 1.287-34.58-.723-12.926-5.144-11.738-21.905 1.72-26.972"/><path fill="#79869f" d="M1009.57 638.788c10.74.388 21.49.413 32.23.075.35 9.283 1.85 22.374.96 31.23-11.67-.05-23.13.226-34.79-.071.74-10.636 1.11-20.605 1.6-31.234"/><path fill="#b47233" d="M1024.75 505.497c14.74-.103 25.21-4.157 17.48 24.781-.34 1.28-10.26.801-11.98.786-6.57-.046-22.84 2.811-23.04-7.052-.42-20.954-1.86-17.458 17.54-18.515m-13.2-26.298c14.17-.411 37.82-4.778 34.4 14.299-.81 4.518-.05 6.376-4.96 8.556-6.44-.035-34.3 3.007-35.04-4.5-.95-9.837-2.29-11.921 5.6-18.355"/><path fill="#79869f" d="M1408.99 795.918c4.77 5.007 7.29 6.813 13.04 10.756 15.84 1.451 12.79 1.251 27.3-3.022.1 4.807.39 9.699-.23 14.455-13.21 6.309-27.08 4.692-40.1-1.056zm-1351.896.742C73 810.169 75.22 807.594 95.881 805.649c0 3.661.33 9.657-.256 12.945-15.072 5.25-23.261 4.014-38.647.007a915 915 0 0 1 .114-21.941m1654.898-.805c12.45 13.637 20.8 14.391 37.91 6.713l-.07 15.908c-9.94 3.967-24.35 3.981-34.44 1.054l-3.92-1.156c-.08-6.861-.41-15.876.52-22.519m-1054.978.684c14.935 14.358 20.333 11.541 38.928 7.454.17 5.223.274 9.396.021 14.652-14.479 5.21-25.044 4.638-38.793-2.002-.163-6.674-.084-13.415-.156-20.104m452.118-.953c3.63 2.851 7.03 9.319 12.15 11.035 10.22 3.43 17.86.478 26.65-3.535-.05 4.541-.02 8.93-.23 13.471l-.73.485c-11.54 7.879-25.69 5.699-38.21 1.596.29-7.803.26-15.257.37-23.052m-751.342 1.819c3.416 2.536 4.648 5.092 8.846 7.336 10.438 5.578 19.81 2.304 30.145-.259l1.016-.244q.254 6.836.205 13.677c-15.838 4.842-25.392 6.194-40.556-1.379z"/><path fill="#b47233" d="M1447.32 1090.04c2.25 2.11.98 9.67.87 12.98-11.86 8.91-26.06 10.23-38.6 1.9-.97-3.58-.54-9.71-.51-13.54 9.2 5.75 8.48 5.45 18.82 8.21 9.11-2.68 11.53-4 19.42-9.55"/><path fill="#79869f" d="M615.589 973.413c3.929-.429 7.256-.895 10.349 1.069l-.443 1.927c-6.843 1.921-14.182.929-20.929 2.003-35.731 5.69-52.812 14.037-74.94 40.908-2.879 3.26-1.763 2.88-5.421 4.2.529-3.84 6.516-12.96 9.069-15.64 24.013-25.188 49.608-31.779 82.315-34.467"/><path fill="#b47233" d="M94.988 1090.17c1.458 1.84.737 4.01.726 6.34l-.032 1.51c-.128 8.18-8.535 10.15-15.692 11.82-8.27 1.93-15.497-.24-22.46-5.01-.641-3.78-.356-9.68-.308-13.71 14.625 9.72 23.2 9.86 37.766-.95m301.866.96c1.771 1.91.356 2.88.696 4.89 1.301 7.65-7.641 11.9-14.304 13.41-8.539 1.94-16.984.37-24.7-4.44-.927-3.01-1.246-9.32-.33-12.41.199-.67 1.88.27 2.187.53 5.575 4.87 13.059 5.25 20.027 4.5 6.61-.72 10.797-3.19 16.424-6.48m749.876.15c.16 3.87.04 7.95 0 11.83-8.94 7.33-26.46 10.22-36.72 2.92-1.9-1.35-1.06-11.14-1.05-14.01 13.54 10.71 23.86 7.27 37.77-.74"/><path fill="#79869f" d="M1748.41 1107.05c2.37.89 1.2 8.67 1.2 11.39-.75.37-1.49.74-2.23 1.12l-1.69.88c-11.15 5.67-21.36 4.62-32.91.88-1.4-2.41-1.94-11.43-.21-12.34 1.53.04 3.31 1.44 4.95 1.94 11.34 3.46 20.63 1.44 30.89-3.87"/><path fill="#8b8c97" d="M695.002 1106.33c1.376 1.86.716 9.56.711 12.44-15.821 6.04-21.947 7.78-38.284 1.74-.501-3.18-.26-8.43-.249-11.84 17.072 6.04 21.527 6.4 37.822-2.34"/><path fill="#b47233" d="M1446.31 1122c3.35.63 3.65 10.01-2.06 12.35-12.06 4.93-22 4.45-34.09.79-1.13-1.72-3.64-13.62 1.41-11.39 12.05 5.3 22.98 2.89 34.74-1.75"/><path fill="#79869f" d="M613.746 980.444c1.951-.134 11.358-1.541 12.191 1.097.804 2.779-6.154 2.2-7.786 2.331-26.223 2.108-54.064 8.342-71.899 29.318l-.967.84c-2.902 1.35-5.844 2.6-8.823 3.77l-1.703.63-1.86.72c24.09-27.253 44.099-35.887 80.847-38.706"/><path fill="#b47233" d="M94.468 1121.13c2.003.41.994.87 1.415 2.33 4.398 15.25-22.47 16.76-34.897 12.51l-3.551-1.24c-.434-3.99-.126-8.79-.037-12.87 15.063 7.11 22.298 6.95 37.07-.73m600.633-29.9c1.458 1.84.739 8.54.727 11.42l-1.147.68c-13.981 8.5-22.774 8.52-37.632 2.13-.03-4.28-.007-8.56.069-12.85 14.597 9.14 23.784 8.78 37.983-1.38"/><path fill="#79869f" d="M396.413 1106.04c2.138.85 1.099 8.84 1.117 11.46-13.141 7.85-23.94 8.97-38.027 2.14-1.922-3.66-1.347-5.84-1.486-10.12-.014-.42.326-1.11.465-1.08 3.495.76 5.136 2.7 9.524 3.57 12.632 2.51 18.261.62 28.407-5.97"/><path fill="#b47233" d="M1749 1091.22c.94 1.01.83 1.32.85 2.77.1 8.48-.12 10.5-9.17 13.58-10.57 3.59-18.92 2.87-29.22-2.27l.04-13.62c14.31 11 22.6 8.82 37.5-.46m-1351.246 30.03q-.122 5.25-.477 10.47c-12.189 8.52-25.482 6.93-39.141 3.38-.159-4.2-.066-8.66-.096-12.89 17.5 7.07 22.33 6.96 39.714-.96m747.556.8c2.2.69 3.05 10.83-1.81 12.82-10.94 4.48-23.07 3.43-33.85-.6-1.44-2.05-3.96-12.87.93-10.79 11.76 5 23.43 4.5 34.73-1.43m-450.51.09c1.443 1.84.947 8.88.255 9.83-7.186 9.85-29.148 5.66-37.599 2.46-.397-1.77-1.033-10.12.183-10.95 1.254.11 2.701.93 3.884 1.41 11.994 4.87 22.078 1.87 33.277-2.75"/><path fill="#79869f" d="M1447.01 1107.1c1.97 1.74 1.09 8.72 1.09 11.47-12.65 4.86-22.48 7.87-35.89 2.64l-2.94-1.17c-.13-1.45-.63-10.89.36-11.6 1.92.21 6.26 3.69 10.38 4.23 12.31 1.61 16.56.77 27-5.57m-1352.666-.12c2.791.68 2.24 9.26-.716 11.22-12.346 8.19-22.588 6.32-35.456 1.72-1.18-3.69-.71-8.08-.684-12.08 14.576 7.51 22.424 7.05 36.856-.86m1051.706.36c3.58 5.03-.37 12.31-6.12 14.14-9.55 3.03-20.27 3.2-29.36-.74l-1.43-.6c-1.18-2.94-.55-7.03-.67-10.21-.03-.94 1.93-.42 2.48-.11 5.61 3.16 11.29 3.56 17.56 3.24 7.04-.14 11.5-2.65 17.54-5.72"/><path fill="#b47233" d="M1748.33 1121.96c2.63 1.11 1.29 8.16 1.25 10.9-15.75 5.69-19.97 6.64-36.39 2.24-3.01-2.81-1.91-7.38-1.75-11.37 14.85 4.92 22.67 5.75 36.89-1.77M657.125 819.249c10.286 4.44 19.67 7.425 30.921 4.811 9.677-2.248 7.946-3.905 7.964 8.335-10.752 2.472-28.418 4.029-38.092-2.311-1.473-.965-.812-8.884-.793-10.835m-298.949 11.636c-.734-2.52-1.364-8.215.262-10.394.299.013.792.321 1.073.464 11.934 6.079 24.882 3.743 36.887.233 2.174.593 1.751 4.424 1.402 5.877-2.817 11.723-32.981 6.145-39.624 3.82"/><path fill="#79869f" d="M657.067 1183.26c4.214.01 36.924-.97 38.182.38 1.364 1.46.55 7.63.555 9.45-4.136-.05-37.313.82-38.364-.67-1.234-1.75-.431-7.16-.373-9.16"/><path fill="#b47233" d="M1408.55 829.616c-.68-3.998-.68-6.065-.08-10.13 12.5 6.471 24.5 7.245 38 3.22.42-.126 1.57-.424 2.04-.323 1.05.929.93 8.142-.06 8.616-11.29 5.413-30.21 3.105-39.9-1.383"/><path fill="#52341b" d="M1408.55 829.616c-.68-3.998-.68-6.065-.08-10.13.73 5.017.7 5.086.08 10.13"/><path fill="#b47233" d="m1711.4 820.082 1.11.456c9.26 3.893 23.27 4.684 32.96 2.374 6.58-1.571 4.46 1.866 4.44 9.482-9.92 1.497-29.6 3.793-38.29-3.614-1.22-1.04-.42-7.2-.22-8.698M57.053 821.311c1.864.587 3.666 1.204 5.458 1.628 11.496 2.721 21.29 2.659 32.54-1.06 1.547-.511.911 8.592.9 9.51-11.484 2.899-26.515 5.315-38.09-.964-1.312-.712-.79-7.694-.808-9.114m1051.047-.56c10.39 4.671 23.83 6.234 34.49 1.561 1.27-.555 3.51-1.899 4.84-.705.09 1.145-.28 6.429-.35 7.972-9.74 6.352-27.16 6.364-37.56.84-1.91-1.015-1.34-7.544-1.42-9.668"/><path fill="#79869f" d="M1107.61 1184.1c4.11-.06 37.71-.86 38.79.59 1.22 1.64.52 6.97.54 8.92-9.33-.63-19.17-.08-28.54-.26-11.88-.23-10.26 1.9-10.79-9.25m301.25-.04c10.63 0 21.35-.11 31.99-.1 9.94 0 8.01-.74 8.23 9.18-4.81-.05-38.28.78-39.55-.48-1.28-1.27-.64-7.01-.67-8.6m-1352.036-.08c4.066 0 37.436-1.12 38.672.59 1.22 1.7.52 6.69.545 8.64-9.522-.01-19.116.07-28.632-.01-12.44-.09-10.595 1.97-10.585-9.22m1654.316.11c10.65-.02 27.51-.82 38.26.62.84.12.47 8.05.46 8.64-11.63-.14-23.26-.11-34.89-.01-.68.01-3.12-.09-3.41-.69-.78-1.6-.42-6.93-.42-8.56m-1350.905.4c11.858 0 25.008-.46 36.684.52-.155-.01 3.43 8.08-2.669 8.15l-33.836.44c-4.724.06-5.444-7.85-.179-9.11m259.459-198.075c1.971-.163 5.635-.842 6.544 1.495-.697 3.349-5.264 2.577-8.231 2.866-23.091 2.247-39.691 6.33-58.352 20.064l-.752.55c-2.068.43-4.854 1.38-6.89 1.17-.726-.08-.628-1.12-.26-1.47 13.792-13.111 32.679-20.086 51.252-22.914 2.377-.362 5.146-.85 7.497-1.044zm-161.455 92.195c4.111-.22 20.437-1.24 24.972-.1.819.65.255 1.84.387 2.49 1.585 7.76-11.783 4.92-19.765 5.12-10.063 1.33-12.115 1.75-21.703 5.68 4.82-6.7 7.349-11.59 16.109-13.19"/><path fill="#79869f" d="M570.071 1006.16c9.358-5.67 26.11-9.661 36.935-11.326 2.675-.311 16.656-2.853 18.114-1.343 3.419 3.541-3.002 4.286-5.116 4.34-17.398.448-31.704 7.229-47.965 10.859-1.339.2-5.582 1.36-6.521.62-.916-.73 2.764-2.23 3.016-2.34z"/><path fill="#7488a2" d="m570.071 1006.16 1.968 2.53c-1.339.2-5.582 1.36-6.521.62-.916-.73 2.764-2.23 3.016-2.34z"/><path fill="#79869f" d="M587.912 1006.46c5.952-1.82 34.021-7.735 38.384-4.96-.763 5.63-29.778 7.23-35.711 7.59z"/><path fill="#7380a0" d="M80.823 788.856c2.576-4.968-2.049-2.617-2.94-6.189-1.48-5.926 6.686-8.912 9.672-4.217 4.496 7.07 2.238 11.529-2.769 15.905-1.359-3.578-.53-6.089-3.963-5.499m304.968-1.445-1.846-.666c-10.464-3.161-2.818-12.057 2.548-9.86 2.069.847 5.222 5.689 5.01 8.143l-.192.183c-.834-.178-1.216-.888-2.355-1.296-.748.259-.333 1.371-.313 1.939-.966.545-1.854 1.069-2.852 1.557m1346.229-7.672c4.89-5.576 8.39-2.609 12.09 1.972-.15 1.733-.1 3.035-.06 4.761l-1.93-.441c-.61-.64-1.4-1.528-2.09-2.096-3.29 1.536-3.33.546-5.47-2.246l-1.28-1.337z"/><path fill="#474d5f" d="M1744.11 781.711c-.15 1.733-.1 3.035-.06 4.761l-1.93-.441c-.61-.64-1.4-1.528-2.09-2.096 1.75-1.105 2.23-1.404 4.08-2.224"/><path fill="#8b8c97" d="M624.364 1007.52c3.022.79 1.569 3.53-.827 3.53-4.564.02-9.125 0-13.694.04-.59-.11-.752-.12-1.311-.36l-.032-.11c2.529-2.44 12.25-2.78 15.864-3.1"/><path fill="#72757f" d="m1732.02 779.739 1.26.613c1.04 11.608-5.69 5.033-1.26-.613M590.585 1009.09c-1.323-.02-7.079.13-7.825-.62.626-1.12 3.899-1.59 5.152-2.01z"/><path fill="#111112" d="M357.074 833.277c-.826-.443-1.082-.359-1.19-.932.53-.626 1.615-1.078 2.292-1.46z"/><metadata><recraft-signature>{&quot;signed_by&quot;: &quot;recraft&quot;, &quot;signature_b64&quot;: &quot;cDiAq5Pfx9Lik+0YAjVwjmCPIF0FITLPkIRKtJuIIqT6nEUgT1gQdV6QWV567qyLhdQhx1rHjOhkSPvIt9fxCA==&quot;, &quot;signing_algo&quot;: &quot;Ed25519&quot;, &quot;generation_timestamp&quot;: 1777251936, &quot;identifier&quot;: &quot;b775ea21-0ca6-4593-9821-497e1a3a8a08&quot;}</recraft-signature></metadata></svg>