<svg xmlns="http://www.w3.org/2000/svg" width="1024" height="1024" preserveAspectRatio="none" style="display:block" viewBox="0 0 2048 2048"><defs><linearGradient id="b" x1="218.439" x2="212.061" y1="1368.38" y2="1368.6" gradientUnits="userSpaceOnUse"><stop class="stop0" offset="0" stop-color="#c67e3b"/><stop class="stop1" offset="1" stop-color="#cd9f63"/></linearGradient><linearGradient id="a" x1="824.858" x2="851.135" y1="782.246" y2="783.309" gradientUnits="userSpaceOnUse"><stop class="stop0" offset="0" stop-color="#b46f2f"/><stop class="stop1" offset="1" stop-color="#cb883b"/></linearGradient></defs><path fill="#495a6e" d="m837.36 474.663 1.089 1.456c.621 4.281.659 3.159 3.882 7.05l1.875-.209c70.723 34.108 267.874 32.063 346.594 6.276 2.94-.963 8.05-2.931 11.34-4.059l5.67-3.511c2.79-1.092 2.87-1.872 4.5-4.442l1.02-.103c-.48 12.637-1.88 25.286-2.25 37.957-1.77 60.865 12.49 118.554 20.95 178.101a686 686 0 0 1 5.96 74.835c2.33 74.002-3.04 154.263-4.6 228.823l-4.21 362.663c-1.11 98.5-1.69 197.01-1.73 295.52-.32 64.91.89 131.69-5.4 196.29-2.28 23.4-5.85 61.44-17.87 81.34-3.43 5.66-8.12 10.07-12.91 14.59l98.94.07c-22.05-31.33-17.69-175.51-17.61-219.19l-.48-172.42q-.045-69.75-1.56-139.5c-.79-33.81-2.28-64.37-1.34-98.47 1.61-58.31 22.67-123.21 14.59-180.43 10.47-4.91 16.67-6.94 28.03-9.2 54.65-10.11 141.18-11.77 195.14 1.98 7.11 2.32 12.01 3.74 18.4 7.82-.89 19.1-1.35 31.15.02 50.37 3.04 42.32 15.23 87.21 16.39 129.15 1.01 36.36-.49 76.11-1.28 112.64-.69 46.63-1.15 93.27-1.36 139.91l-.48 169.67c-.05 53 .63 106.68-4.83 159.51-1.73 16.68-3.2 33.34-12.48 47.76 26.11.17 52.23.19 78.34.04-21.26-30.82-17.84-165.21-17.71-206 .18-46.99.06-93.98-.34-140.96l-.98-182.57c-.29-22.84-1.12-45.64-1.49-68.48-.23-14.27-.87-30.35 0-44.6 2.84-46.55 15.42-92.65 14.6-139.52-.14-8.14-1.12-16.78-.26-24.91.28-2.58 3.11-4.1 5.04-5.59 6.67-3.78 18.61-6.62 26.32-7.81 59.04-9.15 126.68-9.91 185.09 3.52 6 1.38 13.11 4.71 18.31 7.52-.54 12.36-1.41 25.19-1.22 37.55.68 45.25 16.04 89.34 17.88 134.33 1.71 41.98-.22 84.78-1.39 126.78-.88 39.37-1.39 78.74-1.53 118.12l-.2 176.01c.07 41.38 3.36 185.51-17.81 216.81 29.37.05 60.26-.32 89.57.63 11.01.36 31.82 3.83 42.94 5.55-20.16 2.63-58.93 2.55-80.35 2.6l-117.83-.1-367.69-.06-1235.399.18a439 439 0 0 1-38.388-1.87c-5.456-.48-15.84-1.9-20.534-1.93l-2.006-2.39c4.841.25 9.708-.08 14.543-.32 39.047-2 78.083-2.12 117.179-2.25-22.204-27.31-17.932-181.98-17.756-223.84q.462-88.965-.125-177.93c-.149-39.09-.737-78.18-1.765-117.26-1.276-35.77-3.445-72.54-2.556-108.29.934-37.62 9.961-75.28 14.329-112.58 1.929-16.47 2.456-32.49 2.888-49.06-.227-3.03-1.719-15.43-1.224-17.38l.269-1.24.063-1.05 1.206-2.16c33.293-22.6 199.375-21.51 233.789 2.11-6.843 29.68 3.23 92.84 9.433 123.1 10.735 52.37 6.435 101.83 5.601 155.03l-1.178 145.65c-.395 53.26-.496 106.53-.302 159.8.147 41.9 3.349 194.81-17.63 224.85q41.57.57 83.144.21c-.228-.26-.456-.51-.683-.77l-1.102-1.28c-21.794-25.05-18.635-189.89-18.584-230.85.065-52.62-.165-105.24-.691-157.85q-.704-75.165-2.354-150.3c-.594-28.47-2.402-57.68-1.381-86.08 1.872-52.06 19.239-103.14 19.199-155.42-.006-8.03-1.947-18.15-.647-25.84 5.073-7.3 16.482-8.84 24.951-10.65 35.453-7.45 72.36-8.48 108.44-7.87 33.876 1.13 74.912 3.51 105.849 17.12-9.148 64.11 12.862 117.23 15.788 179.91 1.627 34.86-.33 73.72-1.177 108.96-.794 45.05-1.336 90.11-1.628 135.16l.105 151.97c.313 65.14.704 130.71-6.607 195.62-1.528 13.56-3.802 27.02-11.818 38.36 31.459-.12 62.918.04 94.374.49-7.883-7.64-15.361-17.46-18.166-28.15-14.855-56.64-15.558-125.23-16.386-183.09-.505-64.09-.681-128.19-.527-192.29l-2.459-375.14q-.967-104.173-4.156-208.298c-1.898-56.708-5.568-120.425-4.405-176.546a825 825 0 0 1 6.9-94.919c2.588-19.443 6.62-38.949 9.698-58.361a1142 1142 0 0 0 9.329-78.076c1.17-13.998-1.277-73.243 1.267-78.297"/><path fill="#f8f8f7" d="m842.331 483.169 1.875-.209c70.723 34.108 267.874 32.063 346.594 6.276 2.94-.963 8.05-2.931 11.34-4.059l-.12 1.706c-3.42 1.845-4.65 2.291-8.35 3.573l-1.39 5.562c-1.94.477-14.04 5.959-16.26 7.137-.17 1.703-.27 2.922-.6 4.61 1.16 7.042-.6 10.124 2.33 15.51 1.37 7.889 1.22 15.56 2.32 23.211l-1.59-.623c-3.67 3.885-3.8 11.652-3.81 16.746 3.95 76.905 14.8 155.175 16.86 232.486.94 35.203.37 71.706.2 107.03l-.65 171.855-.87 680.09c-1.79 2.78-3.4 5.53-5.55 8.03-3.19 5.47-8.81 11.57-13.38 16.03l-4.27 4.16c-35.43 29.65-89.19 52.14-135.43 53.01-5.38-.31-8.71-.31-14.15-.07-35.408-.58-84.101-19.71-114.685-38.01-3.802-2.28-14.869-12.08-19.769-15.6l-.685-.48c-1.548-1.33-3.034-2.96-4.469-4.43-4.946-5.07-9.94-9.71-13.63-15.74-3.119-3.46-4.944-6.71-7.407-10.63-3.655-6.37-5.771-11.34-8.698-18.11-2.075-22.31-1.098-60.85-1.19-84.17l-.907-150.08a34938 34938 0 0 1-1.979-417.49c-.197-83.287-2.085-167.046 1.298-250.239.91-22.362 3.951-49.452 6.07-71.877a5661 5661 0 0 0 8.886-100.161c1.941-23.57 4.039-47.584 6.737-71.087.923-8.036 2.171-33.262 4.445-39.374.408-2.625.621-4.52.786-7.164.258-3.272.184-5.056.034-8.305-.346-3.514-.228-4.525.038-8.051.159-2.508-2.318-18.451-3.346-19.738l-.311.029c-.859.781-.318 3.513-2.018 3.068-.158-.225-1.438-7.487-1.684-8.517-2.324-.916-6.777-6.23-9.477-.393-.625-2.945-1.011-5.56-1.448-8.52-3.036-2.343-7.516-2.29-11.69-6.992"/><path fill="#f8f8f7" d="M877.406 519.12c.608 5.022 1.419 9.816 1.917 14.821-.489 6.542.462 10.338-.385 18.289l3.105 2.396a276 276 0 0 1-.081-9.184c.924 1.108 4.053 6.007 5.738 5.384.37-.444.126-.072.731-1.568 14.153 82.924 4.85 116.242-2.121 199.151a1598 1598 0 0 0-4.567 109.679l-.855 515.022c-.232 134.16-2.197 274.32 1.403 408.03-1.548-1.33-3.034-2.96-4.469-4.43-4.946-5.07-9.94-9.71-13.63-15.74-3.119-3.46-4.944-6.71-7.407-10.63-3.655-6.37-5.771-11.34-8.698-18.11-2.075-22.31-1.098-60.85-1.19-84.17l-.907-150.08a34938 34938 0 0 1-1.979-417.49c-.197-83.287-2.085-167.046 1.298-250.239.91-22.362 3.951-49.452 6.07-71.877a5661 5661 0 0 0 8.886-100.161c1.941-23.57 4.039-47.584 6.737-71.087.923-8.036 2.171-33.262 4.445-39.374.408-2.625.621-4.52.786-7.164.258-3.272.184-5.056.034-8.305-.346-3.514-.228-4.525.038-8.051l1.869.705c1.55-3.024.575-3.708 3.232-5.817"/><path fill="#f8f8f7" d="m871.447 547.752 2.88-.038c.871 10.259-.942 25.576-1.565 36.144-1.461 24.783-4.916 49.704-7.074 74.334-3.456 39.437-6.414 79.682-8.863 119.218.129 7.174.265 19.563-.263 26.547a47660 47660 0 0 1 .518 589.683l.221 242.2-.144 74.63c-.03 11.22.408 29.04-.372 39.87-3.655-6.37-5.771-11.34-8.698-18.11-2.075-22.31-1.098-60.85-1.19-84.17l-.907-150.08a34938 34938 0 0 1-1.979-417.49c-.197-83.287-2.085-167.046 1.298-250.239.91-22.362 3.951-49.452 6.07-71.877a5661 5661 0 0 0 8.886-100.161c1.941-23.57 4.039-47.584 6.737-71.087.923-8.036 2.171-33.262 4.445-39.374"/><path fill="#edd3b4" d="M856.562 803.957c-1.734 10.856.414 18.054-3.112 29.428-2.692-1.433-1.958-41.927.18-43.656 1.531 1.254.52 4.021 1.088 5.649 1.173-4.159.524-12.018 2.107-17.968.129 7.174.265 19.563-.263 26.547"/><path fill="#c17932" d="M877.406 519.12c.608 5.022 1.419 9.816 1.917 14.821-.489 6.542.462 10.338-.385 18.289-3.021 24.731-2.378 51.108-5.398 76.088-10.317 85.347-12.885 166.298-12.585 252.033l.665 158.929 1.038 415.75.359 209.25-.006 59.94c.001 10.19-.462 27.15 1.181 36.75-3.119-3.46-4.944-6.71-7.407-10.63.78-10.83.342-28.65.372-39.87l.144-74.63-.221-242.2q1.565-294.84-.518-589.683c.528-6.984.392-19.373.263-26.547 2.449-39.536 5.407-79.781 8.863-119.218 2.158-24.63 5.613-49.551 7.074-74.334.623-10.568 2.436-25.885 1.565-36.144l-2.88.038c.408-2.625.621-4.52.786-7.164.258-3.272.184-5.056.034-8.305-.346-3.514-.228-4.525.038-8.051l1.869.705c1.55-3.024.575-3.708 3.232-5.817"/><path fill="#d4a471" d="M872.267 532.283c2.454 4.36 1.745 9.917 2.06 15.431l-2.88.038c.408-2.625.621-4.52.786-7.164.258-3.272.184-5.056.034-8.305"/><path fill="#c17932" d="M881.962 545.442c.924 1.108 4.053 6.007 5.738 5.384.37-.444.126-.072.731-1.568 14.153 82.924 4.85 116.242-2.121 199.151a1598 1598 0 0 0-4.567 109.679l-.855 515.022c-.232 134.16-2.197 274.32 1.403 408.03-1.548-1.33-3.034-2.96-4.469-4.43l.693-876.825a2156 2156 0 0 1 4.148-135.087c3.491-51.025 10.994-101.072 9.446-152.641-.462-15.377-2.092-26.989-3.329-42.105-2.969 1.135-1.836 13.72-2.626 18.474-1.035 48.622-4.639 91.155-9.268 139.761-2.601 27.302-6.658 64.786-7.135 92.027-3.584 3.369 1.163 10.513-2.564 11.571 2.138-65.325 9.184-128.749 12.935-193.875 1.089-18.902 5.656-67.231 1.921-83.384a276 276 0 0 1-.081-9.184"/><path fill="#edd3b4" d="M886.213 556.365c1.208 4.357 2.713 9.166 2.567 13.687-2.969 1.135-1.836 13.72-2.626 18.474-.401-10.46-.183-21.688.059-32.161m-19.026 275.52c3.727-1.058-1.02-8.202 2.564-11.571.062.402-1.118 65.835-.28 64.157-1.785.088-1.561-14.875-2.064-18.47-1.538-10.996-1.763-23.121-.22-34.116"/><path fill="#f8f8f7" d="M1175.42 507.765c1.16 7.042-.6 10.124 2.33 15.51 1.37 7.889 1.22 15.56 2.32 23.211l-1.59-.623c-3.67 3.885-3.8 11.652-3.81 16.746 3.95 76.905 14.8 155.175 16.86 232.486.94 35.203.37 71.706.2 107.03l-.65 171.855-.87 680.09c-1.79 2.78-3.4 5.53-5.55 8.03-3.19 5.47-8.81 11.57-13.38 16.03l-4.27 4.16c1.76-44.18.95-92.74 1.05-137.24.49-79.69.54-159.37.17-239.05l-.3-561.092c-.31-27.5-2.01-54.966-5.11-82.292-5.71-49.952-14.18-98.827-11.76-149.621.89-18.589 3.57-32.636 6.81-50.71 3.15-17.579 4.3-32.379 9.93-49.597-.13 9.158.05 18.317.54 27.462 1.72-9.562 3.73-23.765 7.08-32.385"/><path fill="#c68545" d="M1175.42 507.765c1.16 7.042-.6 10.124 2.33 15.51 1.37 7.889 1.22 15.56 2.32 23.211l-1.59-.623c-3.67 3.885-3.8 11.652-3.81 16.746-.99-3.739.04-4.228-2.05-7.787l-1.71 1.243-1.71-2.731c-2.4 1.677-2.41 1.473-2.99 5.129-4.88 30.756 18.31 261.956 12.57 272.971-.76-2.351-.48-2.443-.56-4.611-3.07-82.084-15.88-162.37-16.11-244.797-.68-6.611.68-13.799-1.61-18.055-16.36 60.776 2.76 168.55 7.62 231.873 3.33 43.239 2.8 80.897 2.84 124.134l.94 584.322-.76 184.62-.15 57.56c-.02 9.21-.44 22.84.29 31.65l-4.27 4.16c1.76-44.18.95-92.74 1.05-137.24.49-79.69.54-159.37.17-239.05l-.3-561.092c-.31-27.5-2.01-54.966-5.11-82.292-5.71-49.952-14.18-98.827-11.76-149.621.89-18.589 3.57-32.636 6.81-50.71 3.15-17.579 4.3-32.379 9.93-49.597-.13 9.158.05 18.317.54 27.462 1.72-9.562 3.73-23.765 7.08-32.385"/><path fill="#edd3b4" d="M1160.5 563.971c.38-2.163.09-1.467 1.08-3.206l.17-.034.04-.055c2.46.099.64 19.043.32 21.35-.68-6.611.68-13.799-1.61-18.055"/><path fill="#c17932" d="M1172.62 554.822c2.09 3.559 1.06 4.048 2.05 7.787 3.95 76.905 14.8 155.175 16.86 232.486.94 35.203.37 71.706.2 107.03l-.65 171.855-.87 680.09c-1.79 2.78-3.4 5.53-5.55 8.03 2.57-235.84 3.46-471.69 2.69-707.54l.07-154.06c.27-48.743 1.61-95.815-2.2-144.517-5.22-66.61-12.54-133.105-14.31-199.918zm-330.289-71.653 1.875-.209c70.723 34.108 267.874 32.063 346.594 6.276 2.94-.963 8.05-2.931 11.34-4.059l-.12 1.706c-3.42 1.845-4.65 2.291-8.35 3.573l-1.39 5.562c-1.94.477-14.04 5.959-16.26 7.137-68.36 26.243-230.088 22.211-300.711 1.403-3.046-1.117-7.186-3.939-10.363-5.484-2.324-.916-6.777-6.23-9.477-.393-.625-2.945-1.011-5.56-1.448-8.52-3.036-2.343-7.516-2.29-11.69-6.992"/><path fill="#2d2e2f" d="m842.331 483.169 1.875-.209c70.723 34.108 267.874 32.063 346.594 6.276 2.94-.963 8.05-2.931 11.34-4.059l-.12 1.706c-3.42 1.845-4.65 2.291-8.35 3.573-26.63 9.708-57.33 12.205-85.27 16.016-3.39.463-15.89 1.277-18.08 2.313-17.52.395-34.71 1.819-52.78 2.066-31.3.24-62.588-1.058-93.756-3.888-8.557-1.654-22.779-2.804-32.032-4.032-21.265-2.822-37.315-6.37-57.731-12.77-3.036-2.343-7.516-2.29-11.69-6.992"/><path fill="#c68545" d="M943.784 506.963a956 956 0 0 0 93.756 3.888c18.07-.247 35.26-1.671 52.78-2.066-15.3 6.92-135.486 5.337-146.536-1.822"/><path fill="#edd3b4" d="M864.946 499.074c3.177 1.545 7.317 4.367 10.363 5.484.01.11 2.194 7.741 2.3 7.927 1.328-1.264.118-4.003 1.699-5.427 2.764.762 2.236 4.56 2.623 7.395-1.748 8.501.537 14.951-2.608 19.488-.498-5.005-1.309-9.799-1.917-14.821-2.657 2.109-1.682 2.793-3.232 5.817l-1.869-.705c.159-2.508-2.318-18.451-3.346-19.738l-.311.029c-.859.781-.318 3.513-2.018 3.068-.158-.225-1.438-7.487-1.684-8.517"/><path fill="#c68545" d="M874.174 524.937c-.523-2.813-1.223-10.192-1.439-13.282.377-.697.122-.436.721-.822l.345.183c2.036 4.563 1.587-1.801 3.605 8.104-2.657 2.109-1.682 2.793-3.232 5.817m7.757-10.484c.592 1.865 1.178 3.676 1.703 5.564 3.014 9.712 3.976 19.164 4.797 29.241-.605 1.496-.361 1.124-.731 1.568-1.685.623-4.814-4.276-5.738-5.384q-.036 4.592.081 9.184l-3.105-2.396c.847-7.951-.104-11.747.385-18.289 3.145-4.537.86-10.987 2.608-19.488"/><path fill="#e2b897" d="M881.931 514.453c.592 1.865 1.178 3.676 1.703 5.564-3.482 1.044-1.701 20.689-1.672 25.425q-.036 4.592.081 9.184l-3.105-2.396c.847-7.951-.104-11.747.385-18.289 3.145-4.537.86-10.987 2.608-19.488"/><path fill="#f8f8f7" d="M1298.02 1154.75c.58-2.64.37-3.4.56-5.92 1.95-.15 3.68-.22 5.65-.27 5.96 1.47 40.91 7.51 42.47 8.26 8.88 2.67 36.69 3.98 46.64 4.09 9.09-.14 26.37-.55 34.78-.02 16.89-.18 38.14-2.24 54.79-5.09 9.8-1.68 21.24-5.82 31.23-7.18 1.24 2.27.67 2.52.36 5.66l-.6 2.06c.26 20.17 1.01 41.67 4.79 61.47 2.59 13.58 6.58 26.1 8.92 40.02 6.6 32.78 8.97 64.43 6.24 97.82 1.54 88.58-.64 181.45-1.43 270.33l-.87 110.52c-.2 14.74.09 29.89-.74 44.61-.52 9.27-3.7 18.01-5.85 26.96-.73 7.32-1.9 11.63-5.45 18.14l-4.45 9.21c-2.85 4.48-4.26 6.88-7.84 10.9l-3.59 3.25c-10.73 20.42-71.93 38.32-94.62 38.04-34.83-.44-77.94-13.33-103.38-37.61-1.34-16.31-.91-41.36-.97-58.01l.1-108.92.05-208.34c-.22-39.62-.06-79.23.46-118.84.29-12.94.48-28.98 1.67-41.7 2.96-31.78 7.33-63.13 8.77-95.1.75-16.81-2.37-31.14-2.45-47.53v-1.59c-5.85-9.7-8.22-3.93-15.49-13.02z"/><path fill="#d4a471" d="M1497.88 1167c8.7-8.25 8.95-4.69 16.02-10.66.26 20.17 1.01 41.67 4.79 61.47 2.59 13.58 6.58 26.1 8.92 40.02 6.6 32.78 8.97 64.43 6.24 97.82 1.54 88.58-.64 181.45-1.43 270.33l-.87 110.52c-.2 14.74.09 29.89-.74 44.61-.52 9.27-3.7 18.01-5.85 26.96-.73 7.32-1.9 11.63-5.45 18.14l-4.45 9.21c-2.85 4.48-4.26 6.88-7.84 10.9l-3.59 3.25c.9-25.3.31-54.09.37-79.71l.11-156.27.03-188.03c.03-23.81.95-48.49.65-72.03-.71-46.13-9.44-92.27-9.78-138.4-.04-5.43 1.71-43.31 2.78-47.05z"/><path fill="#f8f8f7" d="M1516.93 1347.03c2.52-21.34-2.35-51.14-2.44-72.53 2.72 3.6-.47 15.16 2.01 18.75 3.44-3.7 1.17-14.44 2.15-19.85 2.92 4.17 1.57 16.96.84 22.11-1.61 11.32-.1 26.62 1.38 37.88l1.26-2.54c7.46 7.32 3.79 302.59 3.54 333.9l-.89 100.51c-.01 13.11-.45 29.94.18 42.81-.73 7.32-1.9 11.63-5.45 18.14l-4.45 9.21c-1.31-45.44.71-100.67.84-146.98z"/><path fill="#c68545" d="M1516.93 1347.03c2.52-21.34-2.35-51.14-2.44-72.53 2.72 3.6-.47 15.16 2.01 18.75 3.44-3.7 1.17-14.44 2.15-19.85 2.92 4.17 1.57 16.96.84 22.11-1.61 11.32-.1 26.62 1.38 37.88.35 25.53-.97 54.29-1.01 80.62l-.78 288.09-.19 85.68c.01 7.83-.38 32.34.62 38.43l-4.45 9.21c-1.31-45.44.71-100.67.84-146.98z"/><path fill="#f8f8f7" d="M1507.22 1846.32c-1.88-46.53.23-104.46.49-151.82l.11-243.6c0-12.08-.79-116.59-.21-117.93 3.77.01 1.89-.33 5.66 1.93l1.8-1.6c1.13 1.08 1.57 11.06 1.86 13.73l-1.03 341.41c-.13 46.31-2.15 101.54-.84 146.98-2.85 4.48-4.26 6.88-7.84 10.9"/><path fill="#c68545" d="M1533.85 1355.65c-.97-3.08-.12-9.28-.36-13.65-1.29-22.96-1.75-48.03-8.1-70.2-2.32-8.1-1.92-8.2 2.22-13.97 6.6 32.78 8.97 64.43 6.24 97.82M1497.88 1167c1.25.24 8.38 1.64 9.42 1.45-.6-1.96-.94-5.97.92-7.23 4.09-.11 3.36 20.67-1.13 22.74-1 .47-2.81-2.74-7.36-.73l-1.15-.1c-1.26-1.82-.86-12.52-.79-15.05z"/><path fill="#e2b897" d="M1508 1301.59c.83 2.04 1.88 11.64 1.8 13.95-3.5.65-1.8-10.7-1.8-13.95"/><path fill="#c17932" d="M1298.02 1154.75c.58-2.64.37-3.4.56-5.92 1.95-.15 3.68-.22 5.65-.27 5.96 1.47 40.91 7.51 42.47 8.26 8.88 2.67 36.69 3.98 46.64 4.09 9.09-.14 26.37-.55 34.78-.02 16.89-.18 38.14-2.24 54.79-5.09 9.8-1.68 21.24-5.82 31.23-7.18 1.24 2.27.67 2.52.36 5.66-.7.28-1.4.55-2.1.82-46.01 17.29-128.94 16.05-178.09 8.47-10.41-1.61-27.01-4.54-36.29-8.82"/><path fill="#c68545" d="M1393.34 1160.91c9.09-.14 26.37-.55 34.78-.02-7.08 2.07-28.83 4.98-34.78.02"/><path fill="#f8f8f7" d="M592.632 1156.91c6.062 2.1 11.144 2.21 17.441 2.63 40.749 2.67 82.263 2.04 122.405-6.07 7.504-1.52 14.83-3.8 22.386-5.06l.705 1.35-1.656 4.73.289 2.97c.922 19.5 2.376 46.42 6.426 65.36 6.004 28.07 12.903 51.29 14.707 80.49 2.375 38.48.306 75.94-.071 114.19l-.742 161.59c-.531 42.29.371 84.81-.255 127.06-.493 33.21 3.41 75.58-9.151 106.22-1.089 3.16-2.379 7.35-3.728 10.31-1.382 2.92-3.023 6.71-4.636 9.43-2.218 5.46-4.244 8.07-7.544 12.84l-3.252 3.69c-25.137 24.91-64.633 38.47-99.765 38.87-29.782.33-75.332-16.09-96.892-36.76-1.99-22.1-1.357-50.01-1.401-72.64l-.167-113.42.346-166.65c.021-52.1-.1-105.15.95-157.07 1.031-50.96 16.403-103.66 8.846-154.69-.793-5.36-.511-9.73-1.663-15.53l-.403-3.59c-1.375-4.59-6.396-5.99-10.846-8.24l-.708-.09a84 84 0 0 0-3.746-4.58c-.438-1.51-.126-3.79.316-5.33l1.219-.42c3.447.98 4.607 1.31 8.16 1.12 6.738 1.32 39.245 5.86 42.43 7.29"/><path fill="#d4a471" d="M745.956 1848.64c2.279-112.7.68-222.09.188-334.44l-.027-123.96c.081-15.72.813-31.54.703-47.12-.353-49.92-17.832-98.62-10.518-148.88 1.151-7.91.795-16.53 3.159-24.32 1.761-5.8 9.913-9.57 14.741-12.46.922 19.5 2.376 46.42 6.426 65.36 6.004 28.07 12.903 51.29 14.707 80.49 2.375 38.48.306 75.94-.071 114.19l-.742 161.59c-.531 42.29.371 84.81-.255 127.06-.493 33.21 3.41 75.58-9.151 106.22-1.089 3.16-2.379 7.35-3.728 10.31-1.382 2.92-3.023 6.71-4.636 9.43-2.218 5.46-4.244 8.07-7.544 12.84z"/><path fill="#f8f8f7" d="M754.134 1308.98c3.142 24.66 2.897 57.42 2.866 82.38l-.092 92.4c-.041 115.51-1.275 233.03-.156 348.35-2.218 5.46-4.244 8.07-7.544 12.84-.968-13.57.247-35.38.353-49.86l.26-94.27-.91-263.93c-.007-25.08-.089-50.14.469-75.21.155-6.97 1.21-18.1-.472-24.43l1.619-.4c-.1-2.45 1.493-15.39 1.668-20.11l1.013-.09c1.612-1.79.92-4.45.926-7.67m7.254 513.7c-1.706-4.83-1.027-25.74-.981-32.1.267-20.83.379-41.67.337-62.5l-.668-267.79c.006-28.29-.245-66.55.151-95.64.434-.67.867-1.33 1.301-2l1.049.54.726 4.93 1.009-1.96 1.274.78c1.354 6.13 1.267 28.28 1.332 35.82l-.003 80.54-1.799 329.07c-1.089 3.16-2.379 7.35-3.728 10.31"/><path fill="#f4edea" d="M748.908 1337.25c-.747-4.65-1.389-20.85-2.032-27.29-3.233-32.41-14.285-80.64-8.296-112.42l-.223.5 1.037.16c-.162 4.43-.964 15.8-.436 19.72 5.452 40.43 10.419 78.01 11.569 118.93z"/><path fill="#f4edea" d="M752.195 1316.74c-.953-30.65-14.639-99.38-9.226-124.63 1.804 6.85.09 17.49.854 24.77l10.311 92.1c-.006 3.22.686 5.88-.926 7.67z"/><path fill="#c17932" d="M592.632 1156.91c6.062 2.1 11.144 2.21 17.441 2.63 40.749 2.67 82.263 2.04 122.405-6.07 7.504-1.52 14.83-3.8 22.386-5.06l.705 1.35-1.656 4.73c-40.728 19.84-162.435 17.86-206.456 2.1-.824.79-1.656 1.56-2.496 2.33l-.708-.09a84 84 0 0 0-3.746-4.58c-.438-1.51-.126-3.79.316-5.33l1.219-.42c3.447.98 4.607 1.31 8.16 1.12 6.738 1.32 39.245 5.86 42.43 7.29"/><path fill="#edd3b4" d="M540.507 1154.25c1.711-1.28 4.638 1.37 6.95 2.34-.824.79-1.656 1.56-2.496 2.33l-.708-.09a84 84 0 0 0-3.746-4.58"/><path fill="#f8f8f7" d="M1177.99 516.793c5.32 5.334.92 6.35 3.53 13.566 1.15 3.345 1.03 3.397 1.37 7.135l.15 1.498 2.06 1.615c1.06 2.805.61 4.765 1.52 7.201 1.09 19.166 2.16 37.324 5.08 56.389l-1.85 1.82c-.3 18.811 1.98 39.521 4.25 58.349 4.76 39.516 5.05 80.084 9.38 119.49.87 2.741 1.61 11.658 1.96 14.872.14 8.545 2.43 18.181 2.67 26.816.15 5.063 1.1 20.287 1.84 24.643.28-2.414-.38-7.443 1.77-7.716a3268 3268 0 0 1 7.13 150.392c.4 14.217.06 64.267 2.07 75.187-.06 144.4-1.27 288.79-3.65 433.17l-.39 102.73c-.07 19.01-.03 68.33-5.02 85.78-.31 4.98-1.7 7.92-2.75 12.55l-.79 2.55c-.7 8.17-3.05 18.19-7.02 25.41-2.93 8.43-6.28 16.26-11.09 23.83l.87-680.09.65-171.855c.17-35.324.74-71.827-.2-107.03-2.06-77.311-12.91-155.581-16.86-232.486.01-5.094.14-12.861 3.81-16.746l1.59.623c-1.1-7.651-.95-15.322-2.32-23.211q.09-3.243.24-6.482"/><path fill="#f8f8f7" d="M1209.95 850.187c.28-2.414-.38-7.443 1.77-7.716a3268 3268 0 0 1 7.13 150.392c.4 14.217.06 64.267 2.07 75.187-.06 144.4-1.27 288.79-3.65 433.17l-.39 102.73c-.07 19.01-.03 68.33-5.02 85.78-2.07-.57-1.45-6.89-2.95-11.02-1.39-14.44-.26-50.19-.2-65.53l1.31-148.15 1.1-367.34c.35-80.63 2.88-167.183-1.17-247.503"/><path fill="#c17932" d="m1204.81 826.16 3.3-.616c.15 5.063 1.1 20.287 1.84 24.643 4.05 80.32 1.52 166.873 1.17 247.503l-1.1 367.34-1.31 148.15c-.06 15.34-1.19 51.09.2 65.53 1.5 4.13.88 10.45 2.95 11.02-.31 4.98-1.7 7.92-2.75 12.55l-.79 2.55c-.7 8.17-3.05 18.19-7.02 25.41l.86-43.3c.07-5.92.08-22.25.79-27.58-1.23-21.61.01-57.25.16-79.75l1.66-171.35.65-303.09c.98-93 .78-186.013-.61-279.01"/><path fill="#c68545" d="M1202.95 1659.36c3.55 2.7.16 31.58 1.49 36.33 1.57 5.66-3.46 18.36.11 21.12.1-.01.2-.03.3-.04.69-1.32-.39-6.3 3.47-11.94-.7 8.17-3.05 18.19-7.02 25.41l.86-43.3c.07-5.92.08-22.25.79-27.58"/><path fill="#f8f8f7" d="M1208.91 1678.71c1.5 4.13.88 10.45 2.95 11.02-.31 4.98-1.7 7.92-2.75 12.55-.42-7.85-.49-15.72-.2-23.57"/><path fill="#c17932" d="M1177.99 516.793c5.32 5.334.92 6.35 3.53 13.566 1.15 3.345 1.03 3.397 1.37 7.135l.15 1.498 2.06 1.615c1.06 2.805.61 4.765 1.52 7.201 1.09 19.166 2.16 37.324 5.08 56.389l-1.85 1.82c-.3 18.811 1.98 39.521 4.25 58.349 4.76 39.516 5.05 80.084 9.38 119.49-1.66-.238-2.81-.464-4.38.128l-1.06.378c-1.07-57.089-10.89-120.141-14.17-177.352-1.12-19.646-3.69-40.858-3.8-60.524-1.1-7.651-.95-15.322-2.32-23.211q.09-3.243.24-6.482"/><path fill="#f2e9da" d="m1183.04 538.992 2.06 1.615c1.06 2.805.61 4.765 1.52 7.201 1.09 19.166 2.16 37.324 5.08 56.389l-1.85 1.82c-3.13-20.064-6.77-46.903-6.81-67.025"/><path fill="#d4a471" d="M1203.48 783.856c.87 2.741 1.61 11.658 1.96 14.872.14 8.545 2.43 18.181 2.67 26.816l-3.3.616c-1.57-8.124-1.61-22.144-3.08-31.833-.68 7.527-1.52 14.939-1.22 22.506.16 4.056-.99 6.199-1.01 10.245-.03-3.251-1.08-5.629-1.06-7.08.16-11.619-1.05-24.114-.4-35.636l1.06-.378c1.57-.592 2.72-.366 4.38-.128m108.36 344.244c54.65-10.11 141.18-11.77 195.14 1.98l-1.28 1.12c7.51 2.14 24.71 5 12.55 12.41-7.91 4.48-19.02 7-27.89 8.92-42 9.08-86.04 8.13-128.71 5.33-5-.33-9.95-.9-14.95-1.04-1.56-.75-36.51-6.79-42.47-8.26-1.97.05-3.7.12-5.65.27-.19 2.52.02 3.28-.56 5.92l-.25 2.2c7.27 9.09 9.64 3.32 15.49 13.02v1.59c.08 16.39 3.2 30.72 2.45 47.53-1.44 31.97-5.81 63.32-8.77 95.1-1.19 12.72-1.38 28.76-1.67 41.7-.52 39.61-.68 79.22-.46 118.84l-.05 208.34-.1 108.92c.06 16.65-.37 41.7.97 58.01l-4.02-4.22c-2.48-3.67-3.52-5.8-5.51-9.79-2.04-2.91-3.4-6.54-4.82-9.84-1.66-3.59-2.75-7.17-4-10.92-12.25-29.14-8.57-90.77-8.63-124.95l-.7-153.9c-.09-41.9.22-84.92-.51-126.7-.61-35.23-3.05-64.76-.92-100.6 3.07-51.88 19.47-99.27 18.46-151.27-.02-1.4.07-9.19-.19-9.47-2.42-2.48-7.37-5.29-8.62-8.76 3.78-6 20.3-8.75 27.1-10.26z"/><path fill="#f8f8f7" d="M1458.16 1124.13c16.73.61 31.36 4.26 47.54 7.07 7.51 2.14 24.71 5 12.55 12.41-7.91 4.48-19.02 7-27.89 8.92-42 9.08-86.04 8.13-128.71 5.33-5-.33-9.95-.9-14.95-1.04-1.56-.75-36.51-6.79-42.47-8.26-4.61-1.64-8.91-3.99-13.29-6.2 54.68-14.28 96.56-17.18 153.22-13.66.08-.02 2-.5 2.24-.85 3.34-4.84 10.09 1.25 11.76-3.72"/><path fill="#c17932" d="M1458.16 1124.13c16.73.61 31.36 4.26 47.54 7.07 7.51 2.14 24.71 5 12.55 12.41-9.09-5.39-25.53-7.59-36.26-9.45l-5.5-.97c-11.17-1.94-21.03-3.43-32.33-4.49.08-.02 2-.5 2.24-.85 3.34-4.84 10.09 1.25 11.76-3.72"/><path fill="#f8f8f7" d="M1296.1 1835.99c.1-58.98-4.42-504.3 1.51-517.24 2.06 7.23 1.71 12.43 2.99 19.21l.98-3.42 1.37-.51c.61 2.77-.58 29.34-.66 34.34a8099 8099 0 0 0-.22 83.94l-.05 247.81c.01 47.93.6 97.88-.41 145.66-2.48-3.67-3.52-5.8-5.51-9.79m-8.82-20.76-2.16-364.04c-.04-13.3-1.7-93.82.57-101.46l1.57-.65c.2-3.92.04-8.95 1.7-12.33 3.77 4.21 2.86 84.67 2.89 95.16l.14 152.72-.1 154.85c.01 27.63.32 55.5-.17 83.11-.02 1.23-.21 2.36-.44 3.56-1.66-3.59-2.75-7.17-4-10.92"/><path fill="#2d2e2f" d="M1311.84 1128.1c54.65-10.11 141.18-11.77 195.14 1.98l-1.28 1.12c-16.18-2.81-30.81-6.46-47.54-7.07-50.09-3.27-95.07-4.24-144.89 5.19z"/><path fill="#d4a471" d="M537.864 1145.3c3.752 1.25 8.838 2.76 12.338 4.32-3.553.19-4.713-.14-8.16-1.12l-1.219.42c-.442 1.54-.754 3.82-.316 5.33 1.39 1.6 2.453 2.88 3.746 4.58l.708.09c4.45 2.25 9.471 3.65 10.846 8.24l.403 3.59c1.152 5.8.87 10.17 1.663 15.53 7.557 51.03-7.815 103.73-8.846 154.69-1.05 51.92-.929 104.97-.95 157.07l-.346 166.65.167 113.42c.044 22.63-.589 50.54 1.401 72.64l-4.611-4.82c-2.233-2.74-5.108-7.39-7.14-10.45l-4.958-9.66c-1.998-4.26-3.184-6.82-3.542-11.45l-.702-1.71c-3.136-4.4-6.112-20.74-6.331-26.46-2.289-59.8-.478-120.05-1.515-179.86l-1.668-168.71c-.872-56.91-6.102-128.83 6.83-185.27 4.263-18.61 21.817-93.5 10.823-105.59z"/><path fill="#f8f8f7" d="M537.548 1835.48c-1.521-101.67-.306-206.45-.396-308.36l-.096-115.42c-.037-39.95-.299-80.58 3.271-120.39 1.07-11.93 1.988-29.49 5.405-40.73l.823-.28c1.381 9.91-3.132 43.72-3.659 56.19-.77 18.17-.452 33.86-.139 52.18.989-2.39 1.925-4.9 3.192-7.15.736 29.33-.815 64.35-.929 94.28l-.075 205.84.067 129.28c.013 14.81.977 51.16-.324 65.01-2.233-2.74-5.108-7.39-7.14-10.45m-9.202-22.82c1.3-6.87.174-29.96.054-38.58-.316-23.47-.462-46.95-.44-70.42l-.911-230.33c-.047-47.08-.998-99.55 2.571-146.3l.741-.15c5.506 16.25 3.527 122.51 3.537 147.97l-.391 251.58c-1.199 5.22-.913 8.71-.918 14.07-.024 24.35-.006 48.71.037 73.05.005 3.32-1.399 2.54-3.578.82z"/><path fill="#c68545" d="m544.253 1158.83.708.09c4.45 2.25 9.471 3.65 10.846 8.24l.403 3.59c-.309 2.36-.358 2.45-.209 4.68.053 1.94-1.98 13.59-4.44 12.94-1.126-1.21-.491-3.62-2.118-4.35-3.87 1.16-1.968 3.96-3.602-.89-.522-1.56-2.72.55-2.255 1.87.154.44-.092 2.34-.425 3.09-.589.37-.395.33-.667.34-.005-1.32.399-3.11-.996-3.68-.514.32-.783.46-1.24.71l-.175-.16c-.514-1.74 2.179-9.79 2.737-11.39 1.836-5.28 1.025-9.52 1.433-15.08"/><path fill="#c17932" d="M556.001 1175.43c-4.584 3.92-2.214 4.15-3.604 7.96-2.635 0-4.295-15.83-1.898-17.74.635-.05 3.861 1.24 5.308 1.51l.403 3.59c-.309 2.36-.358 2.45-.209 4.68"/><path fill="#f2e9da" d="M529.048 1814.37c2.179 1.72 3.583 2.5 3.578-.82-.043-24.34-.061-48.7-.037-73.05.005-5.36-.281-8.85.918-14.07.001 12.53 1.072 94.42-.917 99.39-1.998-4.26-3.184-6.82-3.542-11.45"/><path fill="#c17932" d="M855.469 498.681c2.7-5.837 7.153-.523 9.477.393.246 1.03 1.526 8.292 1.684 8.517 1.7.445 1.159-2.287 2.018-3.068l.311-.029c1.028 1.287 3.505 17.23 3.346 19.738-.266 3.526-.384 4.537-.038 8.051.15 3.249.224 5.033-.034 8.305-.165 2.644-.378 4.539-.786 7.164-2.274 6.112-3.522 31.338-4.445 39.374-2.698 23.503-4.796 47.517-6.737 71.087a5661 5661 0 0 1-8.886 100.161c-2.119 22.425-5.16 49.515-6.07 71.877-3.383 83.193-1.495 166.952-1.298 250.239-.172 139.16.488 278.33 1.979 417.49l.907 150.08c.092 23.32-.885 61.86 1.19 84.17-3.942-6.48-5.785-15.62-7.667-23.11 1.477-10.79.469-58.14.435-70.89l-1.413-169.58-1.519-385.21-.215-140.326c.021-33.811-.331-66.952 1.614-100.73-.49-4.01-.428-4.574-2.087-8.158-.365-11.332 1.551-31.609 2.111-43.572 1.761-37.589 5.037-76.244 9.249-113.648 1.782-15.828 4.016-53.518 7.548-67.499 2.788-13.095 4.786-32.501 5.162-45.854-1.243-6.373 2.445-7.374-1.839-12.763.175-7.739 4.02-8.602-3.344-10.221-.381-13.604.713-28.623-.653-41.988"/><path fill="#f8f8f7" d="m856.143 609.507 3.107-.918c-.233 26.173-6.37 62.187-8.573 89.538-3.775 46.87-6.319 97.556-11.355 144.257-.49-4.01-.428-4.574-2.087-8.158-.365-11.332 1.551-31.609 2.111-43.572 1.761-37.589 5.037-76.244 9.249-113.648 1.782-15.828 4.016-53.518 7.548-67.499"/><path fill="#c68545" d="M855.469 498.681c2.7-5.837 7.153-.523 9.477.393.246 1.03 1.526 8.292 1.684 8.517 1.7.445 1.159-2.287 2.018-3.068l.311-.029c1.028 1.287 3.505 17.23 3.346 19.738-.266 3.526-.384 4.537-.038 8.051.15 3.249.224 5.033-.034 8.305-1.357 3.322-.69 1.956-2.559 4.29-3.201 3.999-1.313 8.041-4.415 13.414.351-3.877 1.327-10.525.109-14.14-.303-.899-2.434-.997-2.879.635-1.531 5.613.274 13.313-1.184 18.866-1.243-6.373 2.445-7.374-1.839-12.763.175-7.739 4.02-8.602-3.344-10.221-.381-13.604.713-28.623-.653-41.988"/><path fill="#f2e9da" d="M861.305 563.653c1.458-5.553-.347-13.253 1.184-18.866.445-1.632 2.576-1.534 2.879-.635 1.218 3.615.242 10.263-.109 14.14-1.411 16.67-5.391 33.746-6.009 50.297l-3.107.918c2.788-13.095 4.786-32.501 5.162-45.854"/><path fill="#f8f8f7" d="M837.235 834.226c1.659 3.584 1.597 4.148 2.087 8.158-1.945 33.778-1.593 66.919-1.614 100.73l.215 140.326 1.519 385.21 1.413 169.58c.034 12.75 1.042 60.1-.435 70.89-10.967-33.83-8.96-103.7-9.04-140.97l-.468-112.18-2.807-387.9c1.098-6.58.921-21.57.94-28.66-.059-17.36.05-34.73.327-52.091a2699 2699 0 0 1 7.863-153.093M552.939 1128.11c35.453-7.45 72.36-8.48 108.44-7.87l5.456 1.64c14.298 1.45 94.489 5.33 98.363 19.3-1.643.77-3.589 1.88-5.28 2.13-35.763 16.08-94.477 16.34-133.858 15.5-10.847-.24-23.069-1.79-33.428-1.9-3.185-1.43-35.692-5.97-42.43-7.29-3.5-1.56-8.586-3.07-12.338-4.32l-2.707-1.56c1.235-1.02 1.421-1.24 2.689-2.01-3.26-3.51-2.413-3.17-1.674-7.6 5.91-1.86 12.17-3.34 18.188-4.88z"/><path fill="#c17932" d="M552.939 1128.11c35.453-7.45 72.36-8.48 108.44-7.87l5.456 1.64c14.298 1.45 94.489 5.33 98.363 19.3-1.643.77-3.589 1.88-5.28 2.13-21.256-10.72-84.922-14.92-110.175-15.73-35.828.4-77.86 2.16-111.897 14.15-3.26-3.51-2.413-3.17-1.674-7.6 5.91-1.86 12.17-3.34 18.188-4.88z"/><path fill="#e2b897" d="M552.939 1128.11c35.453-7.45 72.36-8.48 108.44-7.87l5.456 1.64c14.298 1.45 94.489 5.33 98.363 19.3-20.251-17.92-115.197-17.6-143.312-17.15-13.683-1.05-31.163 3.06-42.327 1.29-9.005 1.04-16.278 2.25-25.199 3.93z"/><path fill="#2d2e2f" d="M552.939 1128.11c35.453-7.45 72.36-8.48 108.44-7.87l5.456 1.64c-33.208.05-54.273.41-87.276 3.44-9.005 1.04-16.278 2.25-25.199 3.93z"/><path fill="#c17932" d="M1188.66 546.389c.36-3.34.41-3.599 3.12-5.581 1.18 15.633 5.34 63.681 11.34 78.615 1.18 5.143 5.75 24.087 5.88 28.301 9 34.992 12.12 54.783 13.67 91.211 6.11 80.793 2.2 166.934 1.46 248.143-.14 15.802.01 67.022-3.21 80.972-2.01-10.92-1.67-60.97-2.07-75.187a3268 3268 0 0 0-7.13-150.392c-2.15.273-1.49 5.302-1.77 7.716-.74-4.356-1.69-19.58-1.84-24.643-.24-8.635-2.53-18.271-2.67-26.816-.35-3.214-1.09-12.131-1.96-14.872-4.33-39.406-4.62-79.974-9.38-119.49-2.27-18.828-4.55-39.538-4.25-58.349l1.85-1.82c-2.92-19.065-3.99-37.223-5.08-56.389.73-1.111.65-.951 2.04-1.419"/><path fill="#f2e9da" d="M1188.66 546.389c.36-3.34.41-3.599 3.12-5.581 1.18 15.633 5.34 63.681 11.34 78.615 3.42 46.718 9.46 93.334 11.91 140.082.67 12.762 3.06 37.481 1.08 49.399l-.14-.134.55-1.999-.98-.268c-1.3-11.388-1.45-24.702-2.24-36.281-3.19-47.107-6.55-93.721-14.4-140.339-1.37-8.16-.41-17.635-1.79-26.419-.73 6.03.95 7.067-3.7 10.621-.54-3.357-1.25-6.535-1.71-9.888-2.92-19.065-3.99-37.223-5.08-56.389.73-1.111.65-.951 2.04-1.419"/><path fill="#c17932" d="M1186.62 547.808c.73-1.111.65-.951 2.04-1.419 1.37 16.126 4.77 33.599 7.49 49.613.56 3.278 1.08 4.01.96 7.462-.73 6.03.95 7.067-3.7 10.621-.54-3.357-1.25-6.535-1.71-9.888-2.92-19.065-3.99-37.223-5.08-56.389"/><path fill="#f8f8f7" d="M1191.7 604.197c.46 3.353 1.17 6.531 1.71 9.888 4.22 31.669 6.39 65.798 9.21 97.751 1.42 16.173 4.8 42.866 4.53 58.639-.59 7.349.63 23.461-1.71 28.253-.35-3.214-1.09-12.131-1.96-14.872-4.33-39.406-4.62-79.974-9.38-119.49-2.27-18.828-4.55-39.538-4.25-58.349z"/><path fill="#f4edea" d="M1209 647.724c9 34.992 12.12 54.783 13.67 91.211-1.33-.556-1.18-.741-1.24-2.375-.8-20.764-4.27-41.655-8.31-62.068-1.74-8.85-3.88-17.748-4.12-26.768"/><path fill="#edd3b4" d="M1207.15 770.475c1.26 8.114.91 21.311 1.08 30.027.22 12.01 3.68 31.056 3.49 41.969-2.15.273-1.49 5.302-1.77 7.716-.74-4.356-1.69-19.58-1.84-24.643-.24-8.635-2.53-18.271-2.67-26.816 2.34-4.792 1.12-20.904 1.71-28.253"/><path fill="url(#a)" d="M856.122 540.669c7.364 1.619 3.519 2.482 3.344 10.221 4.284 5.389.596 6.39 1.839 12.763-.376 13.353-2.374 32.759-5.162 45.854-3.532 13.981-5.766 51.671-7.548 67.499-4.212 37.404-7.488 76.059-9.249 113.648-.56 11.963-2.476 32.24-2.111 43.572a2699 2699 0 0 0-7.863 153.093 2692 2692 0 0 0-.327 52.091c-.019 7.09.158 22.08-.94 28.66-1.543-8.91-1.818-37.77-2.062-48.62q-1.255-52.35-1.378-104.71c-.314-48.898-2.529-97.544-.227-146.368.617-13.091.388-36.319 2.813-48.709 1.682-7.932 3.757-20.112 4.615-28.172 1.257-11.806 6.907-29.318 6.761-40.421.874-6.296 5.206-25.887 7.641-31.272a573 573 0 0 0 9.854-79.129"/><path fill="#edd3b4" d="M856.122 540.669c7.364 1.619 3.519 2.482 3.344 10.221-2.106 18.537-6.371 35.937-8.584 53.911a2992 2992 0 0 0-17.795 187.629c-.521 8.041-.843 15.382-2.32 23.343-.979 5.277 3.252 17.249-.807 21.746-1.647-4.358 4.082-108.534 5.213-119.582 3.076-30.03 9.168-66.603 11.095-98.139a573 573 0 0 0 9.854-79.129"/><path fill="#f8f8f7" d="M225.164 1142.52c56.022-20.01 161.277-19.64 219.806.31.234.08 1.915.95 2.164 1.08a76 76 0 0 1-11.105 4.27c-47.536 14.21-167.981 17.7-210.865-5.66"/><path fill="#c17932" d="M220.168 1138.56c38.128-21.74 171.444-20.1 216.397-6.42 4.508 1.37 13.179 3.48 15.772 7.53-1.168 3.06-1.267 2.24-5.203 4.24-.249-.13-1.93-1-2.164-1.08-58.529-19.95-163.784-20.32-219.806-.31l-2.134-.86c-1.143-.88-1.692-1.35-2.925-2.05zm955.852-635.405c2.22-1.178 14.32-6.66 16.26-7.137l-.33 2.851c.1 4.956.35 39.028-.17 41.939-2.71 1.982-2.76 2.241-3.12 5.581-1.39.468-1.31.308-2.04 1.419-.91-2.436-.46-4.396-1.52-7.201l-2.06-1.615-.15-1.498c-.34-3.738-.22-3.79-1.37-7.135-2.61-7.216 1.79-8.232-3.53-13.566q-.15 3.239-.24 6.482c-2.93-5.386-1.17-8.468-2.33-15.51.33-1.688.43-2.907.6-4.61"/><path fill="#f4edea" d="M1176.02 503.155c2.22-1.178 14.32-6.66 16.26-7.137l-.33 2.851c-3.55 2.144-3.29 2.872-5.96 5.982-.59 1.185-.85 1.982-1.73 2.867-.95-.154-.86-.955-1.68-1.726-.78.14-1 1.414-1.27 2.008.07.897.54 3.268-.57 3.735-.85-.41-.97-2.297-2.12-2.979-.9.196-.81 1.985-.75 2.673l.11-.321c-.05 1.895-.04 3.79.01 5.685q-.15 3.239-.24 6.482c-2.93-5.386-1.17-8.468-2.33-15.51.33-1.688.43-2.907.6-4.61"/><path fill="#c68545" d="m1181.52 530.359.24-1.01c.19-.938.64-5.491 2.42-5.358.83.698.95 14.681.92 16.616l-2.06-1.615-.15-1.498c-.34-3.738-.22-3.79-1.37-7.135"/><path fill="#e2b897" d="M1181.31 508c.27-.594.49-1.868 1.27-2.008.82.771.73 1.572 1.68 1.726.88-.885 1.14-1.682 1.73-2.867.08 1.698 1.66 13.297-2.19 10.97-.29-3.332-.03-3.636-1.23-6.657z"/><path fill="#c68545" d="M1182.57 509.164c1.2 3.021.94 3.325 1.23 6.657-2.71-.633-1.47-4.396-1.23-6.657"/><path fill="#f4edea" d="M838.627 651.07c.146 11.103-5.504 28.615-6.761 40.421-.858 8.06-2.933 20.24-4.615 28.172.379-18.252 4.903-51.542 11.376-68.593"/><path fill="#c68545" d="M535.157 1143.74c-.946.97-12.186-1.9 1.015-9.61-.739 4.43-1.586 4.09 1.674 7.6-1.268.77-1.454.99-2.689 2.01"/><path fill="#3c5069" d="M220.105 1139.61c1.233.7 1.782 1.17 2.925 2.05.35 2.74-1.042 13.95-1.97 16.57-.227-3.03-1.719-15.43-1.224-17.38z"/><path fill="#838994" d="M1017.43 1835.23c5.44-.24 8.77-.24 14.15.07-5.88 1.34-8.3 1.31-14.15-.07"/><path fill="#f8f8f7" d="M230.292 1178.85c-.236-3.38-.842-28.68 1.327-29.41-.759-.53-.512-.23-.856-.81 1.445-.88 6.739 1.43 8.227 2.05 45.049 12.04 109.989 12.1 156.593 7.02 9.444-1.03 20.514-3.02 29.964-4.62 6.292-1.06 10.15-3.88 16.876-4.16.984 2.11.736 1.04.848 3.17l-.612 5.17c1.121 13.29-.864 27.79 1.501 41.24.352 2 .578 4.18.573 6.21 6.035 29.83 16.621 63.01 18.265 91.62 2.535 44.09 1.118 89.83.498 134l-.986 146.14-.357 132.03c-.062 31.24 2.791 71.92-7.364 101.08-1.234 6.46-2.603 12.88-6.028 18.62l-3.849 7.8c-1.496 2.41-2.918 4.83-4.575 7.13l-4.416 5.07c-22.296 24.24-62.626 37.59-94.83 39.02-32.561 1.45-76.493-14.46-99.835-37.34l-3.623-3.92c-4.507-5.7-5.725-8.06-8.579-14.48l-3.47-6.55c-1.442-2.84-2.413-5.7-3.522-8.67-10.045-20.01-7.028-86.11-7.163-112.77l-.905-159.59-1.178-160.65c-.14-52.21-1.999-102.03 11.321-153.04 3.973-15.21 5.4-35.45 6.155-51.36"/><path fill="#d4a471" d="M230.292 1178.85c-.236-3.38-.842-28.68 1.327-29.41-.759-.53-.512-.23-.856-.81 1.445-.88 6.739 1.43 8.227 2.05-3.958 1.07-2.461 1.68-6.092 2.19 7.242 3.74 1.779 4.73 12.544 6.77l-2.104 1.15c.327.82.654 1.65.981 2.47 3.08 7.03 4.368 11.31 3.049 19.17 2.143 16.76 3.498 31.29 3.296 48.24-.462 38.87-9.462 79.49-10.244 117.92-.731 35.88-.412 73.04-.472 108.98l-.208 188.96.115 119.87c.038 27.21-.533 56.56 1.401 83.48l-3.623-3.92c-4.507-5.7-5.725-8.06-8.579-14.48l-3.47-6.55c-1.442-2.84-2.413-5.7-3.522-8.67-10.045-20.01-7.028-86.11-7.163-112.77l-.905-159.59-1.178-160.65c-.14-52.21-1.999-102.03 11.321-153.04 3.973-15.21 5.4-35.45 6.155-51.36"/><path fill="#f8f8f7" d="M229.054 1831.48c2.198-8.21 1.29-27.79 1.241-37l-.328-65.3-.807-252.73c.05-69.81-1.617-139.59 7.102-208.94.783-6.22 1.605-21.49 4.743-25.99 1.879 9.95-2.169 32.69-3.138 43.63-1.998 22.57-4.625 42.89-3.052 65.7-.119.36.408-3.29.316-.97 1.694-42.47 6.956-84.32 12.176-126.55 1.798 23.06-3.188 58.16-5.786 81.61-2.908 26.26-3.445 44.06-3.78 70.22a43719 43719 0 0 0-.108 470.8c-4.507-5.7-5.725-8.06-8.579-14.48m-4.795-540.71 1.88-.71c-1.072 14.31-2.139 28.71-1.452 43.07.422 8.84 1.109 17.66 1.262 26.51.202 24.24.259 48.49.171 72.73l-.004 297.85c.037 12.43 1.853 89.14-.532 94.71-1.442-2.84-2.413-5.7-3.522-8.67-1.543-23.58-1.096-47.6-1.223-71.26l-.865-116.4c-.732-53.97-1.052-107.96-.961-161.94-.06-29.58-.286-59.37.237-88.95-.788-6.05 3.369-15.62 3.057-20.95-1.324-22.65-.035-43.39 1.952-65.99"/><path fill="#c17932" d="M230.292 1178.85c-.236-3.38-.842-28.68 1.327-29.41-.759-.53-.512-.23-.856-.81 1.445-.88 6.739 1.43 8.227 2.05-3.958 1.07-2.461 1.68-6.092 2.19 7.242 3.74 1.779 4.73 12.544 6.77l-2.104 1.15c.327.82.654 1.65.981 2.47 3.08 7.03 4.368 11.31 3.049 19.17-2.409.89-3.758 1.62-6.069 2.8-.499.81-.765 1.39-1.765 1.14-1.043-.99-1.373-2.61-1.841-3.98-2.672 2.86-3.708 3.35-5.31 6.7l-.081-.01c-1.316-2.43 1.194-5.34-2.01-10.23"/><path fill="#f4edea" d="M232.898 1152.87c7.242 3.74 1.779 4.73 12.544 6.77l-2.104 1.15c-1.626 2.05-1.537 2.19-2.464 4.68-3.594-9.08-6.104.07-7.976-12.6"/><path fill="#c68545" d="M237.693 1182.39c1.813-3.37 1.633-5.11.898-9.04.53.9 1.339 2.85 2.025 3.47.571.11.57-.07 1.276-.5-.858 4.31-.524 4.58-.593 8.91-.499.81-.765 1.39-1.765 1.14-1.043-.99-1.373-2.61-1.841-3.98"/><path fill="#d4a471" d="M240.874 1165.47c.927-2.49.838-2.63 2.464-4.68.327.82.654 1.65.981 2.47-.801 1.68-1.57 3.37-2.305 5.08z"/><path fill="#c68545" d="M238.591 1173.35c1.109-1.84 1.521-2.79 3.002-4.29.3 2.74.285 4.47.299 7.26-.706.43-.705.61-1.276.5-.686-.62-1.495-2.57-2.025-3.47"/><path fill="#edd3b4" d="M224.259 1290.77c.008-4.11 6.491-46.23 6.792-46.47l.359.06c1.7 3.25-4.342 38.79-5.271 45.7z"/><path fill="url(#b)" d="M216.338 1313.85c4.132 6.63.013 82.48 1.148 96.82.415 5.25.685 10.7-3.237 14.48.761-11.3-1.614-23.82-.548-34.67 2.545-25.89 2.967-50.57 2.637-76.63"/><path fill="#d4a471" d="M442.659 1157.26c1.121 13.29-.864 27.79 1.501 41.24.352 2 .578 4.18.573 6.21 6.035 29.83 16.621 63.01 18.265 91.62 2.535 44.09 1.118 89.83.498 134l-.986 146.14-.357 132.03c-.062 31.24 2.791 71.92-7.364 101.08-1.234 6.46-2.603 12.88-6.028 18.62l-3.849 7.8c-1.496 2.41-2.918 4.83-4.575 7.13l-4.416 5.07c-.143-170.32 1.481-340.85.431-511.22-.165-26.78-6.282-56.7-9.324-83.87-3.339-29.82-1.102-51.3-.647-80.67-.246-5.72 2.025-5.29 4.94-10.27 2.226-3.8 8.445-1.35 11.338-4.91"/><path fill="#f8f8f7" d="M440.337 1843.13c-2.33-4.8-1.559-64.15-1.524-74.81l.358-121.69-.072-173.34c-.017-15.82-1.205-136.02 2.743-140.31l.755.28c4.784 7.04 3.196 166.25 3.21 185.66.26 105.69-.039 211.39-.895 317.08-1.496 2.41-2.918 4.83-4.575 7.13m8.424-14.93c-1.578-19.52.026-63.47.107-84.51l.132-169.63-.572-163.08c-.019-21.07-1.147-62.6 1.229-82.05l.811-.33c3.06 6.59.876 18.34 4.706 23.39l-.328 1.15-1.603.51c.611 3.66 2.479 6.73 1.947 9.49-.474 2.46-.445 1.44.348 4.24l.823.44.101-5.02-.959 246.71c-.491 64.64-2.174 135.69-.714 200.07-1.234 6.46-2.603 12.88-6.028 18.62"/><path fill="#c17932" d="M442.659 1157.26c1.121 13.29-.864 27.79 1.501 41.24.352 2 .578 4.18.573 6.21-.855 4.37.16 17.7-2.171 19.22-2.904-2.96-1.545-43.73-4.984-45.83-2.309.65-1.313 5.7-2.109 7.03-2.636-.41.646-4.25-4.961-1.67-3.601 1.66-3.914-9.97-4.127-11.02-.246-5.72 2.025-5.29 4.94-10.27 2.226-3.8 8.445-1.35 11.338-4.91"/><path fill="#f4edea" d="M429.279 1217.51c3.479 7.11 1.691 56.09 6.175 68.04.681 1.82.085 9.81.293 12.68-2.321-2.02-2.426-12.72-2.98-16.64-2.371-16.8-7.526-48.41-3.488-64.08"/><path fill="#c17932" d="M238.99 1150.68c45.049 12.04 109.989 12.1 156.593 7.02 9.444-1.03 20.514-3.02 29.964-4.62 6.292-1.06 10.15-3.88 16.876-4.16.984 2.11.736 1.04.848 3.17-32.193 22.85-138.627 17.91-178.732 11.06a727 727 0 0 1-19.097-3.51c-10.765-2.04-5.302-3.03-12.544-6.77 3.631-.51 2.134-1.12 6.092-2.19"/><path fill="#f8f8f7" d="m1604.81 1152.57-1.3-4.42 1.24-.96c67.62 17.78 144.01 19.2 211.71 1.09.13 1.9.23 3.46.26 5.37-.19 8.55.25 21.61.85 30.1 2.77 34.53 10.82 57.36 16.38 90.36.19 4.71.5 7.57 1.21 12.23 3.05 9.44 1.32 12.66 3.21 22.07.79 3.95 1.35 9.25-.56 13.06-1.61 12.02.69 28.98-.94 41.55-.66 28.5.19 58.47.08 87.16l-1.6 230.71c-.28 21.06-.45 42.12-.52 63.18-.09 14.39.35 34.05-2.13 47.94-.24 6.93-2.88 17.87-5.4 24.41-1.26 2.87-2.98 7.14-4.52 9.75-1.35 3.93-1.97 5.09-3.98 8.78-2.24 3.55-4.06 6.55-6.72 9.86l-1.92 2.61c-7.35 7.36-13.35 12.2-22.3 17.55-59.6 35.62-120.42 27.19-173.54-15.22l-3.52-4.26c-3.85-4.32-4.88-5.4-7.54-10.48-1.56-2.76-3.38-7.71-4.62-10.78-1.82-4.4-2.43-7.28-3.53-11.82-9.01-28.01-6-93.6-6.3-126.79l-.34-250.72-1.19-92.73c-.34-15.55-1.67-34.55-.99-49.72.97-21.51 7.64-45.96 11.85-67.61 5.14-26.46 6.53-45.67 6.67-72.27"/><path fill="#d4a471" d="m1604.81 1152.57 1.03.39c.56 3.45.61 3.39 2.75 6.26l1.68.45c1.91.49 3.62 1.01 5.03 2.43l3.1.33.91 1.19c4.19 5.26 1.79 13.25 1.3 19.64.85 21.81 3.2 40.8 1.3 63.06-3.33 39.3-8.63 74.27-8.83 114.04l1.24 489.39-3.52-4.26c-3.85-4.32-4.88-5.4-7.54-10.48-1.56-2.76-3.38-7.71-4.62-10.78-1.82-4.4-2.43-7.28-3.53-11.82-9.01-28.01-6-93.6-6.3-126.79l-.34-250.72-1.19-92.73c-.34-15.55-1.67-34.55-.99-49.72.97-21.51 7.64-45.96 11.85-67.61 5.14-26.46 6.53-45.67 6.67-72.27"/><path fill="#f8f8f7" d="m1602.27 1290.57.15-.9c1.28-7.98 1.54-16.69 2.59-24.97.4 6.71-.47 21.07.03 24.68 5.25 5.98.58 42.04 2.08 55.1l.21 1.95.14 1.18c1.32-14.41 1.55-39.67 4.61-51.44l.89-.33c.77 10.03-1.11 30.16-1.7 41.15-.74 16.93-1.05 33.89-.94 50.84l.24 337.01c.08 26.27.32 52.53.71 78.8.1 8.12.92 35.29-.48 41.85-3.85-4.32-4.88-5.4-7.54-10.48-1.56-2.76-3.38-7.71-4.62-10.78 2.48-4.86 1.43-36.13 1.41-43.47l-.07-74.76-.09-251.92c-.07-50.61-1.66-113.71 2.38-163.51"/><path fill="#c68545" d="m1602.27 1290.57.15-.9c1.28-7.98 1.54-16.69 2.59-24.97.4 6.71-.47 21.07.03 24.68l-2.07 368.06q-.12 54.645.51 109.29c.21 17.55 1.44 51.97-.22 68.28-1.56-2.76-3.38-7.71-4.62-10.78 2.48-4.86 1.43-36.13 1.41-43.47l-.07-74.76-.09-251.92c-.07-50.61-1.66-113.71 2.38-163.51"/><path fill="#f8f8f7" d="M1595.67 1349.76c.94-9.34 3.5-63.84 5.7-67.43 1.63 2.82 1.1 4.93.9 8.24-4.04 49.8-2.45 112.9-2.38 163.51l.09 251.92.07 74.76c.02 7.34 1.07 38.61-1.41 43.47-1.82-4.4-2.43-7.28-3.53-11.82.68-13.19-.49-37.55-.57-51.74-.05-40.59-.39-81.17-1.03-121.76-.59-93.23-.69-186.46-.28-279.7 1.76-3.77 2.97-5.24 2.44-9.45"/><path fill="#edd3b4" d="M1593.23 1359.21c-1.83-29.56-.85-59.13 4.38-88.43.39-2.17 2.29-13.54 3.4-14.13 1.89 1.4-2.15 13.47-2.32 16.85-.69 13.29-7.69 67.45-3.02 76.26.53 4.21-.68 5.68-2.44 9.45"/><path fill="#c68545" d="m1615.3 1162.1 3.1.33.91 1.19c4.19 5.26 1.79 13.25 1.3 19.64-1.46 1.97-1.49 12.01-2.16 13.19l-.2.03c-2.94-7.28-.19-8.49-4.47-15.24-.16-.01-.32-.02-.48-.04-.2.17-.4.33-.61.49l-.12-.03c-.96-1.43-.47-2.52-1.73-5.01 6.69-6.96 5.79-3.32 4.46-14.55"/><path fill="#c17932" d="m1608.59 1159.22 1.68.45c1.91.49 3.62 1.01 5.03 2.43 1.33 11.23 2.23 7.59-4.46 14.55-.66.25-1.48.69-2.23.58-1.06-1.74-1.94-12.35-1.56-15.08-.1.68 1.89-3.73 1.54-2.93"/><path fill="#d4a471" d="M1809.74 1175.94c.22 1.34 1.19 8 2.07 8.69 2.83-.07 2.12 3.17 5.76-.88 2.77 34.53 10.82 57.36 16.38 90.36.19 4.71.5 7.57 1.21 12.23 3.05 9.44 1.32 12.66 3.21 22.07.79 3.95 1.35 9.25-.56 13.06-1.61 12.02.69 28.98-.94 41.55-.66 28.5.19 58.47.08 87.16l-1.6 230.71c-.28 21.06-.45 42.12-.52 63.18-.09 14.39.35 34.05-2.13 47.94-.24 6.93-2.88 17.87-5.4 24.41-1.26 2.87-2.98 7.14-4.52 9.75-1.35 3.93-1.97 5.09-3.98 8.78-2.24 3.55-4.06 6.55-6.72 9.86 1.75-87.05.07-178.48.11-266.05l.25-130.48c.01-21.3.56-45.65-.25-66.77-1.1-9.5-.82-25.48-.56-35.36 1.09-40.68-10.79-79.41-11.55-119.89-.22-11.79.48-22.03-.45-33.91.52-4.68.49-7.6.45-12.27 5.45 1.64 6.01 2.4 8.77-2.69z"/><path fill="#f8f8f7" d="m1812.19 1381.51.1-1.18c.63-8.4-1.08-37.4 1.83-41.53l1.44-.68c2.05 1.52 2.45 1.12 2.62 3.94.81 12.95.65 27.57.84 40.59.51 35.99.68 71.99.52 107.98l-.74 344.32c-2.24 3.55-4.06 6.55-6.72 9.86 1.75-87.05.07-178.48.11-266.05l.25-130.48c.01-21.3.56-45.65-.25-66.77m13.53-70.95c4.37 22.1.7 46.9 2.47 68.8 3.27 40.38 1.9 80.06 1.73 120.55.02 53.74-.31 107.48-.99 161.21-.08 33.56-.39 67.11-.91 100.66-.16 14.6.64 39.07-1.81 52.27-.62 1.37-.1.72-1.94 1.55-2.37-4.04.43-101.44-1.36-116.07l-.63-246.84c-.02-42.27-3.44-101.85 3.44-142.13"/><path fill="#edd3b4" d="M1833.95 1274.11c.19 4.71.5 7.57 1.21 12.23 3.05 9.44 1.32 12.66 3.21 22.07.79 3.95 1.35 9.25-.56 13.06-1.61 12.02.69 28.98-.94 41.55-.66 28.5.19 58.47.08 87.16l-1.6 230.71c-.28 21.06-.45 42.12-.52 63.18-.09 14.39.35 34.05-2.13 47.94-2.12-33.86.99-138.42 1.64-170.03.7-33.97-1.87-345.62-.39-347.87"/><path fill="#5e6d7c" d="M1835.16 1286.34c3.05 9.44 1.32 12.66 3.21 22.07.79 3.95 1.35 9.25-.56 13.06-1.61 12.02.69 28.98-.94 41.55-1.27-11.7-.44-29.08-.97-41.55-.51-12.2-2.2-23.24-.74-35.13"/><path fill="#f2e9da" d="M1822.91 1699.53c1.79 14.63-1.01 112.03 1.36 116.07 1.84-.83 1.32-.18 1.94-1.55l1.09 2.37c-1.26 2.87-2.98 7.14-4.52 9.75-1.65-12.36-.09-52.87-.34-67.41-.2-10.95-.67-49.84.47-59.23"/><path fill="#c17932" d="m1604.81 1152.57-1.3-4.42 1.24-.96c67.62 17.78 144.01 19.2 211.71 1.09.13 1.9.23 3.46.26 5.37l-.61.3c-41.06 21.79-147.9 14.95-195.37 5.44-2.6.3-2.56.46-2.34 3.04l-3.1-.33c-1.41-1.42-3.12-1.94-5.03-2.43l-1.68-.45c-2.14-2.87-2.19-2.81-2.75-6.26z"/><path fill="#f8f8f7" d="M1605.84 1152.96c7.44 3.32 6.21 4.18 14.9 6.43-2.6.3-2.56.46-2.34 3.04l-3.1-.33c-1.41-1.42-3.12-1.94-5.03-2.43l-1.68-.45c-2.14-2.87-2.19-2.81-2.75-6.26"/><path fill="#c68545" d="M1799.63 1192.35c.93 11.88.23 22.12.45 33.91.76 40.48 12.64 79.21 11.55 119.89-.26 9.88-.54 25.86.56 35.36.81 21.12.26 45.47.25 66.77l-.25 130.48c-.04 87.57 1.64 179-.11 266.05l-1.92 2.61c-.79-13.88-.11-34.9-.09-49.22l-.07-90.97c-.27-121.39.23-242.82-.11-364.22-.13-47.32-17.38-107.38-10.26-150.66m16.48-38.4.61-.3c-.19 8.55.25 21.61.85 30.1-3.64 4.05-2.93.81-5.76.88-.88-.69-1.85-7.35-2.07-8.69-.35-4.48.22-10.54-.02-15.6 4.51-1.62 5.69-1.94 6.39-6.39"/><path fill="#c17932" d="M1800.08 1180.08c-.51-9.9-.79-15.31 9.64-19.74.24 5.06-.33 11.12.02 15.6l-.89 1.45c-2.76 5.09-3.32 4.33-8.77 2.69"/><path fill="#f8f8f7" d="M1219.43 1730.44c.28 6.62-.17 22.02-1.29 28.1-1.41 37.98-13.56 95.33-44.44 121.55-76.86 65.29-229.844 67.54-303.308-4.08-23.69-23.1-40.433-79.71-39.477-111.61-1.363-8.34-.717-15.67-1.175-24.05l2.34 1.63c.243 1.79.429 3.29.567 5.11 4.023 12.58 8.28 25.16 14.881 36.66 14.485 25.24 37.26 35.91 64.541 43.1 58.939 15.53 210.271 17.81 261.611-12.73 23.78-14.14 36.36-44.71 42.83-70.25.8-5.92 1.59-7.83 2.92-13.43"/><path fill="#f4edea" d="m829.74 1740.35 2.34 1.63c.243 1.79.429 3.29.567 5.11-2.35 3.89-1.197 11.92-1.732 17.31-1.363-8.34-.717-15.67-1.175-24.05"/><path fill="#a4a8b2" d="M1219.43 1730.44c.28 6.62-.17 22.02-1.29 28.1-.29-6.09.97-10.35-1.63-14.67.8-5.92 1.59-7.83 2.92-13.43"/><path fill="#495a6e" d="M1205.55 1783.26c2.75-5.7 4.48-11.55 7.12-17.36-.71 6.27-1.63 17.55-2.64 23.14.03 19.9-8.53 47.47-23.01 61.46-11.48 11.11-23.13 15.06-37.58 20.05 35.8-23.49 40.42-29.53 56.99-71.24l-1.94-2.2c.96-3.44 1.7-6.94 2.92-10.29-.6-1.19-1.22-2.38-1.86-3.56"/><path fill="#5e6d7c" d="M1205.55 1783.26c2.75-5.7 4.48-11.55 7.12-17.36-.71 6.27-1.63 17.55-2.64 23.14-.09-.71-.55-6.21-.66-6.37l-.09.07c-.05 3.11.15 2.98-.97 5.93l-.9-1.85c-.6-1.19-1.22-2.38-1.86-3.56"/><path fill="#cdcdd6" d="m1207.41 1786.82.9 1.85c-.53 4.41-.86 6.35-1.88 10.64l-1.94-2.2c.96-3.44 1.7-6.94 2.92-10.29"/><path fill="#495a6e" d="M839.442 1793.97c1.388 3.81 2.754 7.79 4.103 11.64 12.151 30.26 15.498 40.99 43.375 62.5 3.1 2.37 6.215 4.71 9.345 7.04-12.311-4.99-16.962-6.77-27.826-15.59-15.743-12.79-27.682-39.19-29.59-59.23q.335-3.18.593-6.36"/><path fill="#495a6e" d="M834.572 1765.71a223 223 0 0 0 3.152 3.46c5.347 20.54 20.613 48.39 34.208 64.68.228 1.19-.016 1.77-.243 3.13-12.418-8.21-20.093-20.55-26.655-33.59l-1.489 2.22c-1.349-3.85-2.715-7.83-4.103-11.64q-.258 3.18-.593 6.36a98 98 0 0 1-2.013-12.13c-2.013-3.43-1.277-9.59-.822-13.4-.285-3.51-.819-5.69-1.442-9.09"/><path fill="#cdcdd6" d="M836.014 1774.8c2.721 10 5.593 18.89 9.02 28.59l-1.489 2.22c-1.349-3.85-2.715-7.83-4.103-11.64q-.258 3.18-.593 6.36a98 98 0 0 1-2.013-12.13c-2.013-3.43-1.277-9.59-.822-13.4"/><path fill="#5e6d7c" d="M836.836 1788.2c.474-.46.304-.38.553-.45.802.34 1.728 5.17 2.053 6.22q-.258 3.18-.593 6.36a98 98 0 0 1-2.013-12.13"/><path fill="#495a6e" d="M1205.55 1783.26c.64 1.18 1.26 2.37 1.86 3.56-1.22 3.35-1.96 6.85-2.92 10.29-4.99 13.04-11.96 23.76-23.17 32.25l-1.79-1.49c14.51-17.67 16.35-24.47 25.61-43.75z"/><path fill="#838994" d="M871.932 1833.85c2.547 2.8 5.101 5.84 7.667 8.71-2.452-1.56-5.832-3.63-7.91-5.58.227-1.36.471-1.94.243-3.13m-37.36-68.14c-.188-1.15-.733-3.97-.248-5.07l.143-.08c1.232 1.14 2.729 6.82 3.257 8.61a223 223 0 0 1-3.152-3.46"/><path fill="#5e6d7c" d="M1181.32 1829.36c-.38.23-4.07 2.94-4.69 2 .15-1.12 2.14-2.75 2.9-3.49z"/><path fill="#f8f8f7" d="M1529.45 1834.38c2.75-16.13 2.33 9.95 1.68 13.83-1.07 42.9-24.99 70.81-64.56 84.67-50.26 18.33-114.38 14.05-157.91-18.91-21.56-16.33-27.6-45.18-30.01-70.43.61-3.82.33-5.04 2-8.41l1.55 4.86c1.77 3.28 2.79 6.08 4.01 9.59 11.34 19.45 26 30.59 48.55 34.42 50.04 8.49 158.05 19.63 187.06-31.07 1.49-3.62 1.42-5.57 4.18-7.94l.6-1.14z"/><path fill="#495a6e" d="m1526 1844.99.6-1.14c4.02 17.23-4.83 44.86-19.21 54.93-2.03 1.42-17.18 10.73-18.94 9.61l-.1-.49c.87-1.31 3.44-1.38 4.11-1.81 10.61-6.75 20.64-15.32 25.71-27.09 1.69-3.91 6.14-12.27 5.56-15.01l-.26-.27c-.64.17-13.78 24.26-19.13 21.95l-.07-.21c.34-.59 6.29-7.08 7.44-8.46 6.7-8.04 7.92-14.14 11.64-23.37l-1.53-.7c1.49-3.62 1.42-5.57 4.18-7.94"/><path fill="#cdcdd6" d="M1521.82 1852.93c1.49-3.62 1.42-5.57 4.18-7.94-.64 3.7-1.15 5.3-2.65 8.64z"/><path fill="#495a6e" d="M1281.94 1844.52c1.72 3.26 1.66 3.35 2.52 6.99 4.43 9.94 7.52 18.4 14.22 27.26 1.28 1.7 6.94 7.63 7.42 8.57l-.2.3c-3.3.23-10.72-9.21-12.69-11.61l-1.68 3.29c5.16 10.99 10.91 17.7 20.64 24.64l-.56 1.53c-24.06-12.05-28.84-36.42-29.67-60.97"/><path fill="#cdcdd6" d="M1291.53 1879.32c-1.42-2.81-7.67-15.59-6.28-17.93.19-.1.45-.17.5-.06 1.88 4.06 5.68 11.31 7.46 14.7z"/><path fill="#a4a8b2" d="M1529.45 1834.38c2.75-16.13 2.33 9.95 1.68 13.83-.11-2.29.8-13.54-1.68-13.83"/><path fill="#f4edea" d="M1282.2 1839.99c1.77 3.28 2.79 6.08 4.01 9.59l-1.75 1.93c-.86-3.64-.8-3.73-2.52-6.99z"/><path fill="#a4a8b2" d="m1312.17 1903.96 4.46 2.19c4.1 2.05 2.24 4.49-5.02-.66z"/><path fill="#f8f8f7" d="M774.182 1824.25c-.668 9.58-2.306 33.57-5.842 41.95-9.956 51.38-51.946 69.11-100.28 76.26-35.83 5.31-85.02-4.22-114.245-26.53-21.839-16.67-29.225-43.08-32.229-69.29.498-2.97.368-4.47 1.82-7.06l.682 2.49c.688.68 1.377 1.35 2.066 2.03 5.667 14.71 13.752 26.86 30.129 33.02 48.838 18.39 127.36 17.83 177.018 2.52 16.932-5.22 25.556-17.45 32.547-31.92l.684-1.84c2.915-7.65 5.126-13.78 7.65-21.63"/><path fill="#495a6e" d="M774.182 1824.25c-.668 9.58-2.306 33.57-5.842 41.95l-1.841-.79c-2.386 12.64-7.502 25.38-18.079 33.45-.677.52-17.67 8.52-17.512 8.54-.034-.09-.068-.17-.102-.26.943-1.87 1.862-1.68 3.711-3 16.28-11.68 22.324-19.02 29.742-37.58.226-.57.402-1.33.123-1.87l-.37.03c-3.314 2.93-9.073 19.47-17.858 20.51.103.04-.754-.33-.549-.47 10.962-7.28 18.399-28.3 23.242-37.96l-2.999.92.684-1.84c2.915-7.65 5.126-13.78 7.65-21.63"/><path fill="#f4edea" d="M774.182 1824.25c-.668 9.58-2.306 33.57-5.842 41.95l-1.841-.79c.098-2.49 2.402-20.29 2.935-19.68-.335.42-.136.11-.587 1.07l-2.999.92.684-1.84c2.915-7.65 5.126-13.78 7.65-21.63"/><path fill="#495a6e" d="M524.088 1842.07c.688.68 1.377 1.35 2.066 2.03.148 7.8 2.754 11.04 5.501 17.72 5.485 13.36 9.307 17.52 19.804 26.78-7.7-4.06-8.858-4.64-15.461-10.76l-2.412.38c5.463 9.75 9.401 16.92 19.082 23.33 1.19.79 8.086 5.27 8.065 6.29l-.271.16c-2.248-.09-4.978-2.77-6.823-3.61-13.96-6.3-22.529-17.9-25.518-32.9-1.876-9.42-3.768-19.48-4.033-29.42"/><path fill="#a4a8b2" d="M533.586 1878.22c-1.451-2.6-6.324-14.35-4.93-17.09l.184-.1c.153.09 5.129 13.65 7.158 16.81z"/><path fill="#f8f8f7" d="M1834.7 1827.95c.22 3.69 1.05 13.92-.3 16.84-1.43 62.47-45.83 90.4-103.35 97.42-37.72 4.61-81.91-4.32-112.46-27.91-24.08-18.59-28.09-48.53-31.09-76.64l1.99-3.43 1.6 7.22c1.25 1.52 2.44 2.35 2.35 4.3 6.92 15.54 13.52 26.1 31.53 32.05 48.38 15.98 127.3 17.95 174.75-.06 11.79-4.47 18.81-14.15 25.15-23.78 5.21-10.23 6.17-15.41 9.83-26.01"/><path fill="#495a6e" d="M1591.09 1841.45c1.25 1.52 2.44 2.35 2.35 4.3.01 13.89 15.04 34.35 23.9 44.57-9.29-5.93-16.3-14.09-20.24-24.43-.92-2.42-.31-1.84-1.63-4.06-.8 4.5 3 11.58 4.65 15.65 5.47 13.43 16.21 22.97 27.13 31.95-29.78-14.42-35.86-36.98-36.16-67.98m235.15 13.7.6-1.32c1.4-3.13 1.61-4.97 4.37-6.5-1.48 5.88-.52 9.53-2.23 16.36-5.44 21.73-7.9 29.49-28.14 40.11l-.77-1.59c13.55-8.11 18.59-17.52 23.9-31.78.78-2.1 5.16-9.72 3.61-11.6-.47.2-10.39 22.53-15.59 23.22-.67.09-6.22 4.46-7.03 2.49.31-.51.94-.83 1.46-1.1 10.51-5.39 15.5-18.26 19.82-28.29"/><path fill="#f4edea" d="M1834.7 1827.95c.22 3.69 1.05 13.92-.3 16.84-3.31-1.88-1.37-.78-3.19 2.54-2.76 1.53-2.97 3.37-4.37 6.5l-.6 1.32-1.37-1.19c5.21-10.23 6.17-15.41 9.83-26.01"/><path fill="#a4a8b2" d="m1800.07 1902.21.77 1.59c-.81.45-5.45 3.65-6.42 2.61.14-1.15 4.87-3.73 5.65-4.2"/><path fill="#f8f8f7" d="M224.45 1885.55c-8.887-15.52-10.873-41.25-9.817-58.83 1.914 8.28 3.586 12.23 6.084 20.02 4.586 11.23 11.63 21.88 23.386 27.63 44.162 21.62 120.614 19.68 167.834 7.85 22.626-5.67 33.625-16.6 43.804-35.53 1.957-4.49 3.364-7.8 4.927-12.5l1.739 3.43c-.742 5.68-1.194 17.09-2.813 22.17-5.916 26.93-12.17 43.67-36.082 59.94-49.413 33.63-157.76 34.01-192.748-22.1-2.39-3.87-4.5-7.91-6.314-12.08"/><path fill="#5e6d7c" d="M457.808 1848.43c.383-1.12.176-.62.593-1.51.652 2.73-1.89 6.24-.879 10.65-2.38 21.74-11.168 38.28-31.796 46.97l-4.757 2.02c22.045-17.01 22.311-17.76 33.819-43.94-2.798 3.59-14.813 21.22-19.54 20.17l-.124-.36c2.982-5.31 15.386-13.72 17.138-22.82.223-1.16 4.755-10.01 5.546-11.18"/><path fill="#cdcdd6" d="M224.45 1885.55c-8.887-15.52-10.873-41.25-9.817-58.83 1.914 8.28 3.586 12.23 6.084 20.02l-2.193 1.26c-.757 6.73 2.973 13.31 5.423 19.6l-2.403.49-.458-1.47c-.312-1.07-.64-2.86-1.66-3.56l-.091-.01c-1.514 2.45 5.586 18.83 6.843 21.79z"/><path fill="#495a6e" d="M226.178 1884.84c-1.257-2.96-8.357-19.34-6.843-21.79l.091.01c1.02.7 1.348 2.49 1.66 3.56l.458 1.47c10.488 23.1 15.793 28.76 36.848 42.53-16.603-6.8-22.971-10.18-32.214-25.78"/><path fill="#495a6e" d="M223.947 1867.6c-2.45-6.29-6.18-12.87-5.423-19.6 7.189 14.19 6.997 22.48 19.748 35.73l-2.551.41c-6.132-6.79-7.126-8.16-11.774-16.54"/><path fill="#f8f8f7" d="m460.668 1834.19 1.739 3.43c-.742 5.68-1.194 17.09-2.813 22.17-.631-.72-1.408-1.51-2.072-2.22-1.011-4.41 1.531-7.92.879-10.65-.417.89-.21.39-.593 1.51l-2.067-1.74c1.957-4.49 3.364-7.8 4.927-12.5"/><path fill="#a4a8b2" d="M238.272 1883.73c8.204 5.01 3.236 5.24-2.551.41z"/><path fill="#f8f8f7" d="m1597.8 1142.61-2.3-1.51-.4-2.06c19.97-23.5 204.67-20.89 229.83-1.34l.77 2.2c-1.54 2.66-1.5 2.43-4.3 3.8-49.62 23.78-171.69 18.27-223.6-1.09"/><path fill="#c17932" d="m1597.8 1142.61-2.3-1.51-.4-2.06c19.97-23.5 204.67-20.89 229.83-1.34l.77 2.2c-1.54 2.66-1.5 2.43-4.3 3.8-9.4-5.59-27.37-7.93-38.37-9.8-56.58-9.61-130.39-9.56-185.23 8.71"/><path fill="#a4a8b2" d="M1278.65 1843.54c-.37-2.48-1.57-14.54-.03-15.69 1.26.26 1.83 6.18 2.03 7.28-1.67 3.37-1.39 4.59-2 8.41"/><path fill="#cdcdd6" d="M520.643 1829.92c1.823 4.18 2.289 5.23 2.763 9.66-1.452 2.59-1.322 4.09-1.82 7.06-.714-5.44-.741-11.21-.943-16.72"/><path fill="#a4a8b2" d="M460.668 1834.19c1.721-11.12 2.742-2.08 1.739 3.43z"/><path fill="#838994" d="M829.74 1740.35c-.25-1.78-.671-3.61-.317-5.36l.226-.21c1.403.22 2.184 6.01 2.431 7.2z"/><path fill="#a4a8b2" d="M1587.5 1837.66c-.21-1.29-1.19-6.97.02-7.91 1.1.75 1.63 3.25 1.97 4.48z"/><path fill="#ac2029" d="M1025.1 364.79c8.67 5.311 21.44 20.596 23 30.736 3.66 23.665-9.61 54.159-22.53 72.927-14.74-15.438-23.48-45.763-24.04-67.028-.43-16.745 11.94-25.468 23.57-36.635m6.32 101.146c7.05-13.047 18.76-43.47 25.67-56.431 3.62-6.781 40.41-4.511 50.83-4.46-9.33 24.393-12.04 24.112-29.32 41.855-.97.434-1.64 1.067-2.49 1.73-2.04.849-2.37 1.323-4.12 2.746-.75 1.758-3.27 3.002-4.87 4.149-14.98 7.028-14.6 8.37-31.9 10.767-1.3-.137-2.5-.268-3.8-.356m-88.489-60.761c10.432-.376 44.096-2.832 49.037 4.871 7.552 11.774 20.552 43.111 26.642 56.899-12.68-2.751-23.731-4.483-34.798-11.831l-1.264-.823c-1.254-1.702-1.67-1.965-3.348-3.317-2.322-1.674-2.721-2.51-5.471-2.508l-1.268-1.538c-17.161-15.371-21.717-18.101-29.53-41.753"/><path fill="#c17932" d="M1078.6 446.9c22.29 1.072 124.38 9.193 134.73 30.221l-1.02.103c-1.63 2.57-1.71 3.35-4.5 4.442-40.18-12.239-81.14-19.402-122.97-22.713-6-.475-13.18.647-17.72-3.428 1.6-1.147 4.12-2.391 4.87-4.149 1.75-1.423 2.08-1.897 4.12-2.746.85-.663 1.52-1.296 2.49-1.73"/><path fill="#2d2e2f" d="M1078.6 446.9c22.29 1.072 124.38 9.193 134.73 30.221l-1.02.103-2.68-2.628c-18.51-16.868-107.12-23.5-133.52-25.966.85-.663 1.52-1.296 2.49-1.73"/><path fill="#e2b897" d="M1076.11 448.63c26.4 2.466 115.01 9.098 133.52 25.966-1.65-.073-.79.117-2.25-.515-39.81-17.259-92.77-19.752-135.39-22.705 1.75-1.423 2.08-1.897 4.12-2.746"/><path fill="#c17932" d="m972.461 446.928 1.268 1.538c2.75-.002 3.149.834 5.471 2.508 1.678 1.352 2.094 1.615 3.348 3.317l.851 3.241c-2.389 1.032-2.225.852-5.108.588-22.259-2.034-121.811 14.186-134.085 24.84l-1.875.209c-3.223-3.891-3.261-2.769-3.882-7.05l-1.089-1.456c20.711-19.076 107.167-26.598 135.101-27.735"/><path fill="#2d2e2f" d="m972.461 446.928 1.268 1.538c-22.476 2.198-121.201 10.124-134.347 26.804l-.933.849-1.089-1.456c20.711-19.076 107.167-26.598 135.101-27.735"/><path fill="#e2b897" d="M973.729 448.466c2.75-.002 3.149.834 5.471 2.508-40.214 1.417-100.433 6.737-136.672 23.84-1.721.812-1.112.589-3.146.456 13.146-16.68 111.871-24.606 134.347-26.804"/><path fill="#ac2029" d="M988.227 467.053c4.97-.394 30.303 1.279 32.953 4.531-.28 4.441-16.34 8.243-19.87 9.255l-.96.282c-2.982.566-26.814 4.633-28.404 3.959-8.215-3.485 13.042-16.558 16.281-18.027m40.813 3.312c1.04-1.737 1.56-2.551 2.38-4.429 1.3.088 2.5.219 3.8.356l4.38 2.362c13.07-2.588 22.67-4.464 33.69 5.048 1.56.273 6.94 9.832 4.72 10.136-5.2.709-13.52-1.187-19.01-1.938-2.52-.345-7.54-1.392-9.99-2.107-7.11-2.08-15.04-3.508-19.97-9.428"/><path fill="#f4edea" d="M1029.04 470.365c1.04-1.737 1.56-2.551 2.38-4.429 1.3.088 2.5.219 3.8.356l4.38 2.362c-4.27.603-6.3.507-10.56 1.711"/><path fill="#838994" d="M96.329 1952.15c-.84-.16-4.33-.56-4.644-1.53.408-.61 2.041-.74 2.638-.86z"/><metadata><recraft-signature>{&quot;signed_by&quot;: &quot;recraft&quot;, &quot;signature_b64&quot;: &quot;TyMA8HFf9HcnUhJx4CFHCU1CO8MSO+lBetVEx1xMcnn2nySbKvdc6CUor/bfR29s0bd8dSUc/M0bryw4QxsICg==&quot;, &quot;signing_algo&quot;: &quot;Ed25519&quot;, &quot;generation_timestamp&quot;: 1777234406, &quot;identifier&quot;: &quot;9ab4df59-e614-4e01-97f8-82ca220bf583&quot;}</recraft-signature></metadata></svg>