<svg xmlns="http://www.w3.org/2000/svg" width="1024" height="1024" preserveAspectRatio="none" style="display:block" viewBox="0 0 2048 2048"><path fill="#f6f4f1" d="M1093.02 334.537c20.89 20.137 24.51 53.413 27.12 81.714 13.09 15.94 25.2 33.585 38.17 49.195-4.79-1.551-9.79-3.266-14.61-4.637 7.37 9.706 17.12 21.804 23.88 31.626l-17.24-1.197c6.13 11.021 13.23 18.887 20.29 29.192-.17 3.786.08 10.506-1.81 13.351-3.15-.553-3.15-1.818-5.84-5.025-.54 8.764-1.13 17.524-1.8 26.279l-3.71.637-1.26-2.364c-1.6-.04-2.29-.086-3.87.11-.64 6.661-.1 21.428.28 28.512-14.58 15.642-18.05 35.892-24.92 55.739-13.96 40.343-25.87 80.945-32.11 123.258-1.8 12.742-.65 47.83-.55 62.034 21.24 2.482 11.18 7.082 18.6 20.735 11.33 20.802 25.13 40.998 36.51 61.75a1161 1161 0 0 0-10.3 21.898 505 505 0 0 0 35.71 32.42l-28.14 1.362c6.15 5.799 22.51 15.231 30.4 20.014l-17.15 3.829c7.55 5.426 14.58 9.755 22.46 14.622l-1.07 2.929c-7.15-.31-14.06.2-21.2.58 6.4 7.52 16.35 19.85 23.71 25.73 18.85 15.07 44.45 26 63.74 40.1-10.05 12.8-22.24 26.38-31.69 39.19 20.61 29.29 24.1 29.21 56.01 45.4 22.17 11.26 46.85 24.18 68.29 36.73a5355 5355 0 0 0-49.97 28.47l.07 38.6c7.97 4.99 25.07 9.64 30.63 14.27l-.29 1.14c-5.37 1.82-12.51 1.26-18.4 1.27 9.6 4.12 22.82 9.37 31.92 13.86-6.22 2.78-12.72 5.38-18.36 9.14 4.9 3.87 8.27 6.53 13.58 9.87 5.69.16 22.92.45 27.6 1.61 15.98 3.96 37.12 17.46 52.23 25.69-10.89 15.03-30.67 38.58-36.55 55.71-4 11.64-1.13 33.32-3.81 46.04-.46 2.12 1.44 3.73 2.79 4.94 2.31.31 4.62.65 6.92 1.01 36.89 2.23 74.12 6.03 110.99 8.49 8.27.55 38.68 3.18 44.85 2.37l.79 1.44c1.17-.15 2.21-.3 3.38-.38.61-1.31 1.22-2.51 1.87-3.79l1.72.37c3.68.9 5.5.13 9.32-.35.36 1.51.32 1.53.94 2.88 1.98.67 1.87.64 3.56 1.85-.57.34-.77.34-1 .8l.07.13.09-.01c1.76.46 2.62.76 4.34 1.54 6.51 1.3 26.16 1.98 33.76 2.43 17.8 1.12 35.6 2.35 53.39 3.71 47 3.32 94.24 8.6 140.86 11.93 2.38.76 4.54.74 7.04.99 2.5.28 4.76.54 7.27.74 20.9.9 44.59 5.49 65.81 7.39 2.01.86 16.78 2.63 19.85 3.07 61.26 10.18 102.55 18.46 159.82 43.36V2048H0v-513.71c66.688-34.98 151.93-47 226.03-55.05 52.143-5.66 103.423-12.78 155.964-15.12 70.244-3.13 139.755-4.28 209.925-10.07l-1.282-2.88c10.503-1.54 23.897-2.37 34.792-3.44a5044 5044 0 0 1 61.37-5.95c.645-15.11 3.934-34.08 5.407-50.02-13.076-5.44-38.922-11.02-54.083-15.46 24.995-10.8 54.373-27.53 80.271-36.97 2.974-1.08 21.105-.3 26.908-.86l1.38-.14c6.121-8.45 14.123-16.69 21.264-24.4-7.203-3.03-15.755-5.99-23.159-8.76q.374-1.905.721-3.81a240.5 240.5 0 0 0 31.529-3.91c-6.116-2.77-8.961-3.55-15.389-5.34 9.232-7.89 28.717-16.9 40.228-23.42-9.08-.84-16.71-1.65-25.874-1.54l-1.994-2.57c8.514-3.37 13.982-5.51 21.721-10.35-6.013-2.22-8.5-3.23-14.233-6.32q17.262-5.97 34.63-11.64l-1.298-14.51c-12.246-10.5-28.918-21.04-40.943-31.65-8.684-7.66-21.346-25.06-28.988-34.97 19.718-9.47 47.152-20.76 64.591-32.79 5.855-4.03 20.362-21.16 25.684-27.28l-19.466-3.89c8.631-7.33 20.13-15.81 29.228-23.03-3.654.03-8.339.67-11.019-1.4-.125-.82 3.413-14.39 4.026-19.19.168-9 2.206-24.24 3.271-33.5 7.23-3.74 15.048-6.38 22.704-9.18 7.582-22.433 12.65-53.208 20.511-74.888 2.376-1.594 5.599-1.285 8.629-1.41l.54-.915c.342-7.636-8.156-66.625-10.349-74.233 4.556-11.96 12.158-27.351 17.619-39.323-11.008-30.461-18.809-65.698-26.03-97.198-2.561-11.175-9.078-34.271-9.304-44.709-.134-6.13 7.819-31.407 10.1-39.43 17.784-17.63 45.3-43.166 66.942-54.903-2.126 5.578-4.88 10.927-7.493 16.305 9.081-8.074 19.147-18.207 28.024-26.727-4.759 1.362-10.447 2.53-15.333 3.663 10.874-12.247 27.814-26.639 36.938-38.835.289 5.824 2.694 32.799 6.064 36.111 1.633-2.349 2.398-3.498 4.332-5.657 5.184 14.387-4.202 21.167 14.314 36.803q.765-4.857 1.44-9.728c-23.578-18.055 19.69 14.889-2.76-1.769-6.17-4.573-3.89-31.344-9.512-36.155-1.9 1.657-2.472 2.354-4.701 3.475-2.678-9.78-2.364-21.254-5.089-32.222l-.353-1.38a582 582 0 0 0 20.965-32.327c20.26 28.88 39.54 48.844 60.35 75.785l2.88-.915a3433 3433 0 0 0-47.42-74.584c16.06 4.569 34.21 13.186 50.35 15.98-15.4-9.796-52.34-23.661-70.42-32.121-5.271-2.469-21.733-3.191-31.261-8.549-17.849-10.037-20.791-22.005-26.275-39.598l38.129-8.938c-5.046 5.809-12.759 14.239-16.753 20.524.439 2.717-.111 1.42 2.693 3.561 12.035-5.82 12.058-24.057 32.597-28.93 3.58-4.757 11.62-18.081 16.02-20.473 11.84-6.436 40.39-21.134 52.67-22.772l2.74-.964c1.72-15.029 7.75-21.933 17.31-32.897"/><path fill="#f6f4f1" d="M0 1707.85c13.49 9.48 40.284 28.81 54.94 35.77 15.14 7.19 42.382 16.25 59.06 22.22 67.101 24.03 140.264 49.42 211.247 57.76 22.466 4.24 45.009 8.06 67.616 11.46 6.174.95 21.972 3.79 27.616 3.96 7.265 1.46 12.915 2.51 20.253 3.36.938-1.19-1.466-4.91-2.092-7.75 6.072 2.2 10.068 3.44 16.315 4.96 1.404.66 2.175 1.11 3.657 1.48l.068.84c14.89 2.54 30.138 4.46 45.117 6.49 80.283 10.9 161.015 22.75 241.922 28.04 70.983 4 142.056 6.19 213.151 6.56l-.814 3.13c25.516 1.46 54.674.69 80.534.55 20.39.29 40.93-.32 61.34-.67 68.43-.84 138.62-2.14 206.77-8.03 58.46-5.06 117.13-15.31 175.42-21.95 37.62-4.29 76.09-6.32 113.7-10.7 111.47-12.99 221.68-31.65 327.05-71.7 24.87-9.46 54.79-19.36 78.2-30.95 12.81-6.35 34.81-21.48 46.93-29.65V2048H0z"/><path fill="#151d22" d="M458.68 1841.91c14.89 2.54 30.138 4.46 45.117 6.49 80.283 10.9 161.015 22.75 241.922 28.04 70.983 4 142.056 6.19 213.151 6.56l-.814 3.13c-38.345-.15-76.581-1.83-114.839-2.24-129.517-1.39-255.722-20.84-383.811-38.37z"/><path fill="#142a39" d="M438.64 1834.63c6.072 2.2 10.068 3.44 16.315 4.96 1.404.66 2.175 1.11 3.657 1.48l.068.84.726 3.61c-5.192-.71-13.933-1.51-18.674-3.14.938-1.19-1.466-4.91-2.092-7.75m654.38-1500.093c20.89 20.137 24.51 53.413 27.12 81.714 13.09 15.94 25.2 33.585 38.17 49.195-4.79-1.551-9.79-3.266-14.61-4.637 7.37 9.706 17.12 21.804 23.88 31.626l-17.24-1.197c6.13 11.021 13.23 18.887 20.29 29.192-.17 3.786.08 10.506-1.81 13.351-3.15-.553-3.15-1.818-5.84-5.025-.54 8.764-1.13 17.524-1.8 26.279l-3.71.637-1.26-2.364c-1.6-.04-2.29-.086-3.87.11-.64 6.661-.1 21.428.28 28.512-14.58 15.642-18.05 35.892-24.92 55.739-13.96 40.343-25.87 80.945-32.11 123.258-1.8 12.742-.65 47.83-.55 62.034 21.24 2.482 11.18 7.082 18.6 20.735 11.33 20.802 25.13 40.998 36.51 61.75a1161 1161 0 0 0-10.3 21.898 505 505 0 0 0 35.71 32.42l-28.14 1.362c6.15 5.799 22.51 15.231 30.4 20.014l-17.15 3.829c7.55 5.426 14.58 9.755 22.46 14.622l-1.07 2.929c-7.15-.31-14.06.2-21.2.58 6.4 7.52 16.35 19.85 23.71 25.73 18.85 15.07 44.45 26 63.74 40.1-10.05 12.8-22.24 26.38-31.69 39.19 20.61 29.29 24.1 29.21 56.01 45.4 22.17 11.26 46.85 24.18 68.29 36.73a5355 5355 0 0 0-49.97 28.47l.07 38.6c7.97 4.99 25.07 9.64 30.63 14.27l-.29 1.14c-5.37 1.82-12.51 1.26-18.4 1.27 9.6 4.12 22.82 9.37 31.92 13.86-6.22 2.78-12.72 5.38-18.36 9.14 4.9 3.87 8.27 6.53 13.58 9.87 5.69.16 22.92.45 27.6 1.61 15.98 3.96 37.12 17.46 52.23 25.69-10.89 15.03-30.67 38.58-36.55 55.71-4 11.64-1.13 33.32-3.81 46.04-.46 2.12 1.44 3.73 2.79 4.94 2.31.31 4.62.65 6.92 1.01-2.84.35-6.81.48-9.15 1.84.06 1.87-.35 2.79.92 3.59 8.5 5.38 30.82 12.78 39.94 14.89-6.23 1.78-11.27 3.03-17.6 4.39 4.64 4.43 6.97 6.88 11.08 11.85l61.01 15.37c-6.91 12.23-13.43 22.7-22 33.89 6.66 11.62 24.71 37.5 33.35 48.2 14.83.11 29.66.06 44.48-.17 13.27 14.67 26.78 29.12 40.55 43.33 3.7-.16 17.37-1.03 19.56-.17 19.12 7.47 65.57 26.19 80.64 36.74l.24.81c-14.57-3.3-65.14-28.56-82.12-35.26-11.47 1.59-24.91 3.21-36.5 4.12-7.26-6.6-18.98-18.49-26.02-24.05-14.48 4.48-26.79 7.77-41.49 11.4-17.34-13.96-44.4-37.03-62.57-48.56-8.18 1.21-24.81 2.94-32.98 3.1l-5.13 14.89-28.41-6.8c-9.81 3.23-26.39 11.07-34.95 10.86-8.95-.86-32.32 1.1-36.96-1.45 10.88-4.34 21.67-7.67 32.8-11.25 1.84-6.83 3.36-14.06 4.91-20.98 8.58-.67 19.66-.66 28.44-.9.77-9.65 1.22-19.77 1.81-29.47 12.12 1.32 24.29 2.06 36.48 2.22-1.65-3.92-3.11-9.12-4.41-13.27-33.97-3.84-38.2-16.28-65.3-34.04-10.3 5.94-19.72 10.77-30.32 16.13-12.15-5.89-24.23-11.85-36.59-17.28-10.26 4.38-17.24 7.36-27.91 10.64a255 255 0 0 0-5.88-10.47c-16.75-4.91-45.12-10.8-59.46-16l60.09-5.52 9.89-10.13c14.98.44 26.36.18 41.33-.39l-.32-36.3c13.79 6.49 25.64 12 39.77 17.75 1.27-10.17 2.25-20.31 3.62-30.49 8.54 1.28 21.57 1.4 30.51 1.74l.45-13.5c-14.97-7.9-30.09-17.9-44.46-27.02-8.66 1.75-20.23 5.83-28.7 8.66-11.22-2.86-25.9-7.88-37.26-11.38-16.43 6.49-32.07 14.38-48.23 20.71-7.59-5.15-20.62-11.58-29.1-16.15l-16.94 8.6c-17.89-3.65-35.81-7.13-53.77-10.44l40.24-15.75c7.23-9.88 14.57-19.67 22.05-29.37 10.9 3.75 34.84 8.32 47.03 10.94.41-7.66.2-13.89-.05-21.57 8.89-.81 17.67-2.81 26.3-4.99.78-5.93 1.33-12.37 1.96-18.36-13.44-.43-31.44-1.46-44.5-.8-1.23-1.04-2.48-2.08-3.73-3.11 7.18-.39 54.35-19.29 68.69-22.49l3.85-15.28c6.61-2.44 21.04-4.38 24.86-7.34.46-3.31.45-3.08-.51-6.29-5.44-3.49-23.08-2.94-30.3-3.11-3.05-3.26-5.75-6.92-8.5-10.45-14.11 2.1-27.44 3.61-41.62 6.11-12.12-4.78-29.03-15.05-43.24-20.99-11.18 4.95-21.07 9.28-32.54 13.54-31.6-6.99-39.48-7.09-71.51-6.84 8.1-3.78 19.01-11.7 27.27-13.43 8.73-1.84 17.21-1.92 26.61-4.1l1.42-.33c-3.16-3.43-6.99-7.18-10.29-10.56 17.12-4.97 30.76-7.45 47.56-14.66a627 627 0 0 1-19.8-2.18c6.87-3.18 18.8-7.02 26.31-9.79-7.3-1.17-14.22-2.31-21.57-3.09l-.5-4.16c8.97-3.26 18.45-8.95 26.53-13.97-6.69-.95-14.6-1.47-21.43-2.09 7.22-5.68 14.3-11.52 21.26-17.51 1.48-7.1 3.05-14.19 4.7-21.26 5.73 16.6 12.85 34.24 19.46 50.52 10.15-2.08 20.53-3.55 30.79-4.99-4.89-7.92-8.89-14.61-13.27-22.85 12.46-5.23 26.28-8.82 38.27-15.5-13.25-3.98-47.61-13.15-58.27-19.46 11.51-4.91 27.46-9.49 39.47-13.09-21.96-2.11-47.24-8.94-69.45-13.13-7.06 6.94-14.67 13.92-22.95 19.35l-4.27-10.3-1.4.63c-7.02 3.11-10.44 5.64-16.83 9.96l-6.77-12.94c-16.01-2.22-31.96-5.07-47.98-7.45l-1.48-3.55c9.85-3.63 19.74-8.45 29.47-12.37 13.32-5.36 18.02-10.61 26.84-21.51-7.82 1.06-14.08-.77-21.77-2.36 15.97-8.962 20.07-10.819 33.58-23.483-3-.079-8.33.245-10.26-1.81 6.37-9.6 12.91-16.984 19.95-27.968 5.09 16.095 9.45 33.067 14.52 49.402l10.25-.98a931 931 0 0 1-1.46-33.814c-9.73-11.523-16.29-23.952-25.78-35.414l-11.89-2.558c-.04-9.101.44-14.969 1.38-24.074q-9.525.22-19.05.056c-4.74-.661-5.96.373-9.4-2.898 5.21-2.08 12.18-5.631 17.4-8.104 8.28-16.732 16.86-32.748 25.32-49.32-24.08.499-48.19.177-72.26.24-1.65.005-3.49 1.112-4.86 1.989-12.8 14.989-39.934 38.492-55.098 52.896-12.157 10.817-24.711 24.062-36.63 34.051-14.479-.157-29.916-.065-44.311-.648l-1.375-2.811.54-.915c.342-7.636-8.156-66.625-10.349-74.233 4.556-11.96 12.158-27.351 17.619-39.323-11.008-30.461-18.809-65.698-26.03-97.198-2.561-11.175-9.078-34.271-9.304-44.709-.134-6.13 7.819-31.407 10.1-39.43 17.784-17.63 45.3-43.166 66.942-54.903-2.126 5.578-4.88 10.927-7.493 16.305 9.081-8.074 19.147-18.207 28.024-26.727-4.759 1.362-10.447 2.53-15.333 3.663 10.874-12.247 27.814-26.639 36.938-38.835.289 5.824 2.694 32.799 6.064 36.111 1.633-2.349 2.398-3.498 4.332-5.657 5.184 14.387-4.202 21.167 14.314 36.803q.765-4.857 1.44-9.728c-23.578-18.055 19.69 14.889-2.76-1.769-6.17-4.573-3.89-31.344-9.512-36.155-1.9 1.657-2.472 2.354-4.701 3.475-2.678-9.78-2.364-21.254-5.089-32.222l-.353-1.38a582 582 0 0 0 20.965-32.327c20.26 28.88 39.54 48.844 60.35 75.785l2.88-.915a3433 3433 0 0 0-47.42-74.584c16.06 4.569 34.21 13.186 50.35 15.98-15.4-9.796-52.34-23.661-70.42-32.121-5.271-2.469-21.733-3.191-31.261-8.549-17.849-10.037-20.791-22.005-26.275-39.598l38.129-8.938c-5.046 5.809-12.759 14.239-16.753 20.524.439 2.717-.111 1.42 2.693 3.561 12.035-5.82 12.058-24.057 32.597-28.93 3.58-4.757 11.62-18.081 16.02-20.473 11.84-6.436 40.39-21.134 52.67-22.772l2.74-.964c1.72-15.029 7.75-21.933 17.31-32.897"/><path fill="#f6f4f1" d="M1003.84 629.284c7.47 24.737 9.65 160.419 12.67 164.674.34.142 2.71 1.107 2.85 1.308 3.37 4.983 1.73 31.763 1.67 38.036l9.05 9.296.39 2.496c-12.8 14.989-39.934 38.492-55.098 52.896l-1.912-3.244c-2.434-12.968-.133-45.419-.917-60.166-.826-15.535 30.507-55.085 32.627-70.842 2.2-16.36-.03-42.092-.9-58.897q-25.65-.097-51.293.298a625 625 0 0 1 2.405 46.7c.006 1.009.019 9.999-.032 9.98 4.97 1.868 4.295 8.088 3.707 14.452-1.433 15.518-16.398 34.765-24.699 47.63 18.008 43.679 16.217 45.224 16.752 91.249-4.117 4.5-9.192 9.424-13.519 13.831l-21.211-.079c-.759-12.869-6.472-53.028-5.884-62.311 1.038-16.405 22.985-94.253 29.914-103.864 2.26 1.225 2.442 2.598 3.988 5.223 2.916-4.623-2.655-19.121-.108-25.833 3.65.015.414 1.53 5.126 4.171 1.911-7.987-2.883-38.014-3.772-49.076 15.829 1.424 41.551 1.415 57.776 1.685-.44-18.662-1.48-52.276.42-69.613"/><path fill="#24303b" d="m1030.08 842.598.39 2.496c-12.8 14.989-39.934 38.492-55.098 52.896l-1.912-3.244c3.243-2.245 15.637-14.26 19.154-17.637 12.656-12.149 24.156-23.044 37.466-34.511"/><path fill="#f6f4f1" d="m1072.97 368.398 2.74-.964c-.33 4.708-.66 9.249-1.15 13.959-14.75 5.429-34 11.815-48.19 18.956-3.14 1.581-16.13 24.313-18.88 23.102 6.62-8.34 11.61-18.821 18.47-27.397 12.41-5.288 31.8-11.221 44.48-16.611 1.86-.792 2.39-8.819 2.53-11.045"/><path fill="#bbc0c8" d="M1152.34 553.418c3.94-3.087.92-6.988 1.52-12.605.57-.418.35-.366.69-.364 1.29 4.824 2.04 7.725 1.66 12.859-1.6-.04-2.29-.086-3.87.11m-79.7 10.88c2.37 5.45.1 3.881-2.88.915z"/><path fill="#f6f4f1" d="M1114.54 625.865c1.96 1.423 1.54 2.539 1.23 4.445-5.81 7.495-36.58 25.604-45.99 30.619 2.95 32.485 4.52 65.358 6.09 97.948.55 11.285-1.15 24.646-1.74 36.091-.71 15.009-1.14 30.031-1.27 45.057-4.26.149-9.79.972-13.32-.724l-.7-2.617c-2.64-10.514-3.46-10.661-13.92-12.198-.64-22.965.46-48.195.55-71.272.04-8.979-.19-38.005 1.66-44.303 4.47-15.155 12.97-36.386 18.77-51.722zm-21.88-256.398c-.19 2.529-1.53 14.574-3.08 14.697-6.46.513-4.53-10.183-4.16-11.548 2.27-8.276 3.84-13.005 8.13-19.834 1.29 2.916 14.12 29.793 2.1 18.57z"/><path fill="#696b75" d="M1092.66 369.467c.14-.853.29-3.016 1.02-3.706 1.18-.072 1.86 5.093 1.97 5.591z"/><path fill="#f6f4f1" d="M1030.31 411.879c4.69 1.35 10.45 2.917 15.15 4.111-6.35 3.418-8.66 4.731-15.52 7.216-4.25.949-8.44 1.259-12.78 1.859 5.26-4.751 8.35-7.956 13.15-13.186"/><path fill="#142a39" d="M856.471 1026.13c1.121 15.12 6.339 28.08 6.73 43.47l15.392 2.69c3.584-9.7 7.049-19.43 10.395-29.21 5.582 12.49 15.827 33.15 22.825 45.31 4.548-6.74 9.234-13.48 13.339-20.48 15.041 24.55 7.625 7.29 24.763 15.87 1.1 4.42-.05 7.89 2.683 9.29 12.137 6.19 26.665 11.02 39.067 16.59-10.51 2.07-22.798 3.78-32.865 6.71 1.398 5.26 2.902 11.58 4.605 16.66-13.884-2.65-28.871-6.78-42.538-10.65-6.884 10.55-13.275 20.36-20.733 30.52a486 486 0 0 1-7.419-13.04l-2.311 16.96c-9.29-10.56-21.421-22.82-31.594-32.72-2.33 4.91-4.966 10.39-7.1 15.33-5.068 11.74-8.644 14.28-19.647 7.85-5.709 6.79-12.691 14.68-17.86 21.73 17.106 2.99 34.904 8.98 51.561 14.14-4.973 1.81-7.689 2.79-12.913 3.97 15.228 10.16 27.991 10.08 44.316 15.91-10.748 3.2-18.366 5.45-29.442 7.54 12.536 10.1 25.35 18.72 37.927 29.08-5.483-1.04-11.392-2.75-16.66-1.63l-1.599 1.36c1.837 3.98 7.477 6.19 11.591 7.73 4.224 1.55 8.461 3.06 12.712 4.54l10.966-35.45c8.655 13.52 20.07 27.61 29.791 40.74 10.354 1.28 41.401 15.96 52.957 20.93-28.52 5.73-34.235 11.81-63.218 6.17-9.065 8.17-17.657 16.26-27.575 23.39-10.998-8.2-23.012-18.85-33.12-26.15-1.762 6.65-3.779 13.74-5.32 20.39-10.529-3-17.728-5.07-27.969-9.23-7.712 7.9-15.325 15.89-22.836 23.98 12.093 1.64 29.99 3.65 41.634 6.46 6.045 5.55 10.464 11.59 15.494 18.03 7.354.03 11.742-.34 18.746 1.99l1.872.6c15.007 4.97 34.452 15.15 51.372 21.26a813 813 0 0 1-39.919 5.6c-4.575 4-12.89 11.68-17.551 14.93-8.751-4.79-16.668-9.65-25.139-14.87-5.138 3.44-14.534 10.97-20.079 9.87-1.113-2.14-1.36-2.82-2.138-5.12-5.029-1.29-15.027 6.44-20.528 9.08-9.091-5.77-18.489-11.58-27.405-17.58-9.273 4.64-18.054 9-27.534 13.26a531 531 0 0 0 5.151 22.5c-13.848-1.17-27.674-4.45-41.298-7.37l-14.893 5.61c-8.481-4.55-14.255-7.08-23.206-10.72 4.58 16.66 13.266 32.61 18.016 48.54 12.967.44 41.314.23 52.128 3.2l-21.072 5.3a623 623 0 0 1 24.06 8.63c-11.76 3.94-22.519 8.05-34.079 12.53 7.743 9.13 19.115 20.93 28.635 28.22 7.121 5.45 15.944 10.36 23.093 16.42 1.75-6.29 3.502-12.37 4.85-18.77l36.462 6.89c.205 4.39.293 9.13.912 13.45q15.461-3 30.985-5.64c11.221 4.92 27.029 12.24 38.6 15.86l-1.883 4.33-20.388 1.38c7.227 4.8 12.31 8.63 19.123 14.04-10.198-2.29-32.657-7.89-41.714-11.61l-1.628 16.83-11.343-11.74c-2.122 3.92-4.361 6.94-6.916 10.57-8.418-2.77-18.616-5.78-26.433-9.61-14.559 11.42-26.634 20.75-41.85 31.64-17.818-13.1-36.496-28.69-54.173-42.41-50.026 22.45-48.392 30.61-102.698 14.56 11.478 12.22 34.062 31.08 47.103 42.83 7.767-3.82 38.349-19.65 44.433-20.31l.361.91c-6.604 6.32-77.694 47.35-85.933 50.16 8.192-8.46 22.239-15.64 32.849-21.83q-13.08-8.31-26.271-16.44a2287 2287 0 0 0-39.374 18.69c-13.156 6.5-45.321 23.65-58.173 26.34-14.445 2.75-43.547-3.92-56.437 1.31-26.836 10.89-53.735 26.17-80.775 37.3-2.733 1.13-3.422.92-5.859-.16l.824-1.56c27.088-10.25 64.026-31.9 91.252-40.38 5.108-1.59 44.758.26 52.03.41 5.87-13.55 14.308-27.9 21.378-41a2138 2138 0 0 1 31.877-58.26c17.975-5.84 42.789-8.05 59.235-13.49 5.416-1.79 31.999-17.29 40.044-21.42-11.563-3.18-23.276-5.87-34.762-9.37 9.233-2.84 18.494-6.29 27.606-9.54-9.643-2.36-17.178-4.22-26.64-7.44 5.879-1.54 35.169-10.14 37.117-13.21-3.66-1.78-81.021 6.99-92.604 7.95l-1.282-2.88c10.503-1.54 23.897-2.37 34.792-3.44a5044 5044 0 0 1 61.37-5.95c.645-15.11 3.934-34.08 5.407-50.02-13.076-5.44-38.922-11.02-54.083-15.46 24.995-10.8 54.373-27.53 80.271-36.97 2.974-1.08 21.105-.3 26.908-.86l1.38-.14c6.121-8.45 14.123-16.69 21.264-24.4-7.203-3.03-15.755-5.99-23.159-8.76q.374-1.905.721-3.81a240.5 240.5 0 0 0 31.529-3.91c-6.116-2.77-8.961-3.55-15.389-5.34 9.232-7.89 28.717-16.9 40.228-23.42-9.08-.84-16.71-1.65-25.874-1.54l-1.994-2.57c8.514-3.37 13.982-5.51 21.721-10.35-6.013-2.22-8.5-3.23-14.233-6.32q17.262-5.97 34.63-11.64l-1.298-14.51c-12.246-10.5-28.918-21.04-40.943-31.65-8.684-7.66-21.346-25.06-28.988-34.97 19.718-9.47 47.152-20.76 64.591-32.79 5.855-4.03 20.362-21.16 25.684-27.28l-19.466-3.89c8.631-7.33 20.13-15.81 29.228-23.03-3.654.03-8.339.67-11.019-1.4-.125-.82 3.413-14.39 4.026-19.19.185 3.82-.222 7.51 1.941 10.21 6.574-4.4 12.477-23.15 16.589-31.64m912.179 787.71c41.62-2.08 190.79-54.02 230.75-73.91 17.04-8.48 33.03-20.72 48.6-31.56v4.66c-12.12 8.17-34.12 23.3-46.93 29.65-23.41 11.59-53.33 21.49-78.2 30.95-105.37 40.05-215.58 58.71-327.05 71.7-37.61 4.38-76.08 6.41-113.7 10.7-58.29 6.64-116.96 16.89-175.42 21.95-68.15 5.89-138.34 7.19-206.77 8.03-20.41.35-40.95.96-61.34.67-25.86.14-55.018.91-80.534-.55l.814-3.13c.749.09 1.499.18 2.248.26.686.06 1.78.54 2.419.06.92-.69-.845-2.18-1.252-2.49-3.461-2.64-6.319-6.12-7.857-10.21-2.458-6.53-1.669-13.99 1.735-20.04.542-.96 1.008-1.97 1.427-3.01 1.874-1.12 3.629-1.75 5.128-3.34 4.021-1.54 7.755-3.14 11.888-4.5.932.3 1.193.51 2.039.38 1.116-.96-.986-2.21-1.766-2.57l-1.57-.8c51.881.81 103.581 4.16 155.731 4.24-.45-15.92-3.9-47.05 22.55-42.64a23.35 23.35 0 0 1 15.05 9.51c9.43 13.21 3.95 28.52-8.83 37.01-9.29.28-15.68.02-24.99-.59.07 4.93.08 9.87.05 14.8-.15 10.55-1.72 15.82-9.06 22.99 67.26-.04 134.48-3.15 201.45-9.32 52.79-5.38 104.98-14.3 157.64-20.3 46.6-5.32 94.22-7.11 140.69-13.53-2.66-1.16-5.99-2.3-8.77-3.32l-1-.96c-2.99-2.85-5.21-5.89-7.59-8.09-4.63-18.87 1.99-16.64.65-29.89-1-.85-1.93-1.65-2.9-2.53l.89-.4c2.16-.2 3.68-.41 5.8-.76l.52 4.12c2.56 1.5 20.15-2.86 25.5-3.32 16.09.4 37.65 1.85 53.65 4.3 16.63 2.54 61.95 21.03 76.74 12.24z"/><path fill="#da9047" d="M989.717 1880.13c12.863-5.59 27.683-15.78 40.293-20.9 7.6-3.09 23.74 6.28 30.47 9.22 9.91 4.33 19.69 8.1 29.86 11.88 2.47.69 4.48 1.35 6.9 2.19l2.69 3.49c-20.41.35-40.95.96-61.34.67-9.02-2.8-43.091.14-55.503-2.53 2.837-2.25 3.325-2.47 6.63-4.02"/><path fill="#151d22" d="m989.717 1880.13 3.722 2.89c30.581.56 66.881-.98 96.391.17l.51-2.86c2.47.69 4.48 1.35 6.9 2.19l2.69 3.49c-20.41.35-40.95.96-61.34.67-9.02-2.8-43.091.14-55.503-2.53 2.837-2.25 3.325-2.47 6.63-4.02"/><path fill="#cd813a" d="m989.717 1880.13 3.722 2.89c-4.545.19-5.954.09-10.352 1.13 2.837-2.25 3.325-2.47 6.63-4.02"/><path fill="#da9047" d="M1090.34 1880.33c2.47.69 4.48 1.35 6.9 2.19-2.83.4-4.58.56-7.41.67zm-91.129-37.62c-1.891-.2-5.123-.63-6.568-1.88.064-1.55 13.537-.77 15.007-.71 18.2.15 38.81 1.75 57.21 2.55 21.34.75 42.69 1.25 64.05 1.49.19 11.44 3.14 38.56-15.38 36.81-28.34-2.69-52.26-22.54-79.58-29-11.59-2.74-23.07-6.46-34.739-9.26"/><path fill="#cd813a" d="M999.211 1842.71c-1.891-.2-5.123-.63-6.568-1.88.064-1.55 13.537-.77 15.007-.71-3.12 1.03-5.68 1.11-8.439 2.59"/><path fill="#da9047" d="M1678.6 1802.05c13.5 1.53 24.39 5.03 37.51 8.25 12.25 3.02 24.6 5.64 37.02 7.84-16.48 3.42-33.78 6.24-50.41 9.17-22.64 3.52-45.34 6.61-68.09 9.27 17.89-11.15 27.81-23.11 43.97-34.53m-707.682 44.09c15.917-.81 39.402 4.03 54.732 8.79-7.51 4.06-15.87 9.04-23.21 13.46-9.292 4.9-35.974 20.46-41.49-.86-2.565-9.92.252-17.07 9.968-21.39m657.722-46.67c14.93-.13 27.93-.75 42.77 2.06-9.07 7.6-16.82 13.94-25.62 21.93-32.47 25.53-48.34-17.92-17.15-23.99"/><path fill="#f6f4f1" d="M1144.04 1802.08c28.41-1.73 28.62 30.22 12.55 38.64l-1.69.91c-8.75.5-14.09-.07-22.7-.67-.05-9.2-.27-18.54-.02-27.71 4.77-6.95 4.61-6.68 11.86-11.17"/><path fill="#151d22" d="M0 1704.47c14.782 9.81 41.838 28.91 56.702 36.15 12.996 6.33 43.764 17.28 58.134 22.21 56.758 19.46 128.298 46.77 187.462 53.44.988.57 4.274 1.51 4.68.2-.18-.46-.829-.95-1.213-1.18-5.135-3.06-6.039-6.67-8.297-11.76 1.693-11.69 3.194-15.86 8.157-26.63.707-6.6-.505-4.71-6.629-4.91-2.259-.82-4.262-1.53-6.565-2.22-11.424-3.3-14.118-5.23-19.902-15.62.263-9.7.279-18.57 8.331-25.74a19.7 19.7 0 0 1 14.554-4.94c12.482.94 17.651 10.19 22.22 20.25l-6.212 27.8c8.911 2.24 23.405 3.54 30.746 6.36l1.032 2.85c2.348 1.98 4.496 2.64 7.316 3.83 7.853 2.65 34.573 14.25 41.18 18.83 17.044 11.82 28.168 20.75 46.944 31.24.626 2.84 3.03 6.56 2.092 7.75-7.338-.85-12.988-1.9-20.253-3.36-5.644-.17-21.442-3.01-27.616-3.96-22.607-3.4-45.15-7.22-67.616-11.46-70.983-8.34-144.146-33.73-211.247-57.76-16.678-5.97-43.92-15.03-59.06-22.22-14.656-6.96-41.45-26.29-54.94-35.77z"/><path fill="#da9047" d="m376.72 1803.31 1.628.46c9.892 2.73 39.667 24.37 51.103 31.65 1.814.89 2.045.74 2.456 2.67q-5.707.555-11.428.93c-5.644-.17-21.442-3.01-27.616-3.96-22.607-3.4-45.15-7.22-67.616-11.46 1.371-.69 3.718-1.39 5.245-1.91l-1.425-.54c-.566-.21-1.05-.46-1.579-.74.761-.75 44.965-15.74 49.232-17.1"/><path fill="#151d22" d="M330.492 1821.69c13.769 1.16 27.978 5.62 41.62 7.03 16.126 1.68 33.407 6.09 49.335 7.45q3.996-.435 8.004-.75c1.814.89 2.045.74 2.456 2.67q-5.707.555-11.428.93c-5.644-.17-21.442-3.01-27.616-3.96-22.607-3.4-45.15-7.22-67.616-11.46 1.371-.69 3.718-1.39 5.245-1.91"/><path fill="#cd813a" d="M429.451 1835.42c1.814.89 2.045.74 2.456 2.67-3.454-.86-6.979-1.17-10.46-1.92q3.996-.435 8.004-.75"/><path fill="#f6f4f1" d="M292.939 1767.42c-15.594-5.62-18.655-9.49-15.636-26.85 1.733-9.97 12.364-15.82 21.715-12.8 7.44 2.41 10.777 9.8 13.788 16.2-1.143 4.81-4.229 14.77-4.419 19.04.319 2.47-.364 12.9-2.762 13.89.707-6.6-.505-4.71-6.629-4.91-2.259-.82-4.262-1.53-6.565-2.22z"/><path fill="#151d22" d="M308.387 1763.01c.319 2.47-.364 12.9-2.762 13.89.707-6.6-.505-4.71-6.629-4.91-2.259-.82-4.262-1.53-6.565-2.22l.508-2.35c11.601 2.19 11.807 5.2 15.448-4.41"/><path fill="#da9047" d="M316.371 1782.06c15.184-1.04 39.797 10.45 54.157 16.59-6.463 3.19-11.049 5.12-17.937 7.66l-1.911.71c-10.569 3.87-34.663 15.39-44.372.69-6.446-9.76 1.067-19.91 10.063-25.65m37.064.37a2838 2838 0 0 1 117.05 23.11c-1.738 14.04-.953 27.5-15.53 34.05-6.247-1.52-10.243-2.76-16.315-4.96-18.776-10.49-29.9-19.42-46.944-31.24-6.607-4.58-33.327-16.18-41.18-18.83zm1283.255 11.33c7.99-3.2 29.73-4.96 38.9-6.39 29.15-4.52 63.18-6.41 91.78-11.54 2.96 12.17 6.32 23.1-.24 34.27-.02.07-.03.14-.05.2-14.79 8.79-60.11-9.7-76.74-12.24-16-2.45-37.56-3.9-53.65-4.3"/><path fill="#151d22" d="M470.504 1802.63c1.867-10.38 2.742-30.31 11.868-35.81 28.916-17.41 46.112 24.76 22.778 40.7-6.869 4.61-23.3-.25-31.663-1.91-2.265 12.88-2.192 28.6-14.875 35.46-1.482-.37-2.253-.82-3.657-1.48 14.577-6.55 13.792-20.01 15.53-34.05a2838 2838 0 0 0-117.05-23.11l-2.919 2.13c-2.82-1.19-4.968-1.85-7.316-3.83l-1.032-2.85c21.738 3.02 43.919 7.59 65.496 11.82 20.571 4.03 42.533 7.98 62.84 12.93"/><path fill="#cd813a" d="M343.2 1780.73c4.187.24 6.13.71 10.235 1.7l-2.919 2.13c-2.82-1.19-4.968-1.85-7.316-3.83"/><path fill="#f6f4f1" d="M493.484 1766.15c11.587 1.3 13.937 4.46 19.33 14.85-1.502 15.2-1.483 22.87-17.785 25.55a368 368 0 0 1-21.873-3.82c1.227-5.21 3.311-11.98 3.737-17.24.787-9.72 3.934-16.87 14.593-18.9z"/><path fill="#151d22" d="M1767.61 1772.84c-2.77-12.04-7.77-25.63-.58-36.53a17.42 17.42 0 0 1 12.03-7.76c5.45-.82 10.99.59 15.39 3.89 8.26 6.2 9.37 14.64 9.96 24.21-6.9 17.43-17.16 17.03-34.04 18.58 3.89 16.18 7.36 23.64-1.72 38.61l-1.57-3.54c.02-.06.03-.13.05-.2 6.56-11.17 3.2-22.1.24-34.27-28.6 5.13-62.63 7.02-91.78 11.54-9.17 1.43-30.91 3.19-38.9 6.39-5.35.46-22.94 4.82-25.5 3.32l-.52-4.12c4.88-.14 9.77-.78 14.59-1.51 47.23-7.13 95.14-11.62 142.35-18.61"/><path fill="#f6f4f1" d="M1780.34 1731.06c8.64.29 16.42 3.79 18.64 12.93 3.61 14.84.79 21.46-13.76 26.45-5.41.81-9.78 1.43-15.23 1.93-2.66-17.77-10.48-33.27 10.35-41.31"/><path fill="#24303b" d="M925.531 1832.51c-15.901-27.22 6.525-55.45 32.607-34.07 8.891 7.29 7.331 21.78 5.722 32.05-1.244 7.95 1.707 5.92 9.449 6.25l1.57.8c.78.36 2.882 1.61 1.766 2.57-.846.13-1.107-.08-2.039-.38-4.133 1.36-7.867 2.96-11.888 4.5-1.499 1.59-3.254 2.22-5.128 3.34.089-7.09 2.08-8.92-5.233-8.61-11.989-.14-16.709-.37-26.826-6.45"/><path fill="#cd813a" d="m962.718 1844.23.183-1.57c.649-6.13 6.523-3.84 11.705-2.93-4.133 1.36-7.867 2.96-11.888 4.5"/><path fill="#f6f4f1" d="M935.966 1795.02c26.405-1.89 25.055 19.68 21.681 39.69-.188 1.11-8.7.61-9.504.6-6.514-.43-18.47-1.11-21.366-7.7-6.362-14.48-3.165-25.01 9.189-32.59m668.014-.9c-8.43.9-20.47 1.73-27.47-4.1-7.36-6.13-9.24-21.38-1.61-28.12 10.95-9.69 19.26-5.21 27.71 4.21 1.19 7.34 2.66 20.32 2.26 27.61z"/><path fill="#cd813a" d="M298.996 1771.99c6.124.2 7.336-1.69 6.629 4.91-4.963 10.77-6.464 14.94-8.157 26.63 2.258 5.09 3.162 8.7 8.297 11.76.384.23 1.033.72 1.213 1.18-.406 1.31-3.692.37-4.68-.2-4.765-3.73-9.495-6.06-12.742-11.47-3.499-5.84-5.474-12.42-4.151-19.2 1.612-8.25 7.523-9.36 13.591-13.61"/><path fill="#24303b" d="M1597.62 1797.58c-19.47 1.77-31.97-5.21-30.88-26.59.57-11.02 11.06-18.97 21.75-17.82 8.7.93 14.87 7.55 19.83 14.12.69 5.7 2.27 20.24 2.35 25.67-2.12.35-3.64.56-5.8.76.4-7.29-1.07-20.27-2.26-27.61-8.45-9.42-16.76-13.9-27.71-4.21-7.63 6.74-5.75 21.99 1.61 28.12 7 5.83 19.04 5 27.47 4.1.97.88 1.9 1.68 2.9 2.53-3.23.15-6.23 0-9.26.93"/><path fill="#151d22" d="M1379.28 1441.87c36.89 2.23 74.12 6.03 110.99 8.49 8.27.55 38.68 3.18 44.85 2.37l.79 1.44c-4.04.56-8.18.44-12.44.96-18.37-.01-41.1-2.19-59.64-3.62-31.25-2.35-62.49-4.95-93.7-7.8 2.34-1.36 6.31-1.49 9.15-1.84m-515.364-436.99c7.582-22.433 12.65-53.208 20.511-74.888 2.376-1.594 5.599-1.285 8.629-1.41l1.375 2.811c-4.143.187-4.414-.485-7.29 1.463-8.695 21.253-11.029 49.293-20.126 70.674-2.535 5.96-16.746 9.92-22.646 12.46-1.413 10.33-4.246 31.81-4.487 41.78-2.163-2.7-1.756-6.39-1.941-10.21.168-9 2.206-24.24 3.271-33.5 7.23-3.74 15.048-6.38 22.704-9.18"/><path fill="#da9047" d="M952.357 1838.96c7.313-.31 5.322 1.52 5.233 8.61a25.5 25.5 0 0 1-1.427 3.01c-3.404 6.05-4.193 13.51-1.735 20.04 1.538 4.09 4.396 7.57 7.857 10.21.407.31 2.172 1.8 1.252 2.49-.639.48-1.733 0-2.419-.06-.749-.08-1.499-.17-2.248-.26-19.992-14.69-25.551-25.51-6.513-44.04"/><path fill="#cd813a" d="M1597.62 1797.58c3.03-.93 6.03-.78 9.26-.93 1.34 13.25-5.28 11.02-.65 29.89-5.01-1.74-7.27-3.33-12.02-5.36-1.92-2.67-2.76-4.84-4.17-7.8 2.16-5.19 3.64-9.28 6.61-14.13z"/><path fill="#151d22" d="m1541.16 1450 1.72.37c3.68.9 5.5.13 9.32-.35.36 1.51.32 1.53.94 2.88 1.98.67 1.87.64 3.56 1.85-.57.34-.77.34-1 .8l.07.13.09-.01c1.76.46 2.62.76 4.34 1.54-8.82.01-28.36-.72-36.73-2.08 4.26-.52 8.4-.4 12.44-.96 1.17-.15 2.21-.3 3.38-.38.61-1.31 1.22-2.51 1.87-3.79"/><path fill="#da9047" d="M1594.21 1821.18c4.75 2.03 7.01 3.62 12.02 5.36 2.38 2.2 4.6 5.24 7.59 8.09l1 .96-.62-.15c-5.8-1.31-15.48-5.92-18.46-11.38z"/><path fill="#4b535a" d="M1312.13 1586.13c-12.07 1.44-26.95.66-39.2.59-.48-.01-.83-.62-.61-1.04.35-.67 2.63-.95 2.85-1 4.64 2.55 28.01.59 36.96 1.45"/><path fill="#24303b" d="M1074.27 903.187c-2.42.243-13.63 1.235-15.41.109.27-1.402 4.77-2.565 6.01-3.007 3.44 3.271 4.66 2.237 9.4 2.898M902.541 1524.58c8.196 3.68 5.618 3.42-1.883 4.33zm127.429-480.96c-5.89-1.07-7.98-.83-1.48-3.55zm82.64 98.24c-5.34-1.43-5.6-1.53-.5-4.16z"/><path fill="#4b535a" d="M1169.65 1276.25c-.97-.06-5.77.05-6.27-.83.34-.96 1.83-1.76 2.54-2.28 1.25 1.03 2.5 2.07 3.73 3.11"/><path fill="#da423f" d="M1028.97 1557.74c9.51 8.96 19.9 18.45 13 32.75-2.72 5.63-6.15 6.98-11.71 8.94-9.99-1.11-18.49-7.64-16.22-15.96 4.57-16.81 14.33.51 14.93-25.73"/><path fill="#142a39" d="M1011.28 1605.02c16.97.5 27.59 17.46 8.57 20.64-6.79.03-16.51 1.59-20.438-5.63a6.33 6.33 0 0 1-.483-5.05c1.541-4.74 8.221-7.98 12.351-9.96m36.02-.07c22.94-1.55 26.51 19.64 10.94 19.13-2.71-.04-11.9.63-13.74.02-19.03-6.22-2.88-15.43 2.8-19.15m34.42-8.07c12.28.79 20.94 13.69 3.23 15.88-16.51-.14-18.98-7.65-5.01-14.92zm-100.328-.05c4.055.1 10.695 1.83 12.411 5.71 3.969 8.97-2.412 9.03-8.414 10.22-16.993.19-17.571-6.9-3.997-15.93m84.578-16.81c14.68-.18 19.93 11.07 6.43 14.86-1.83-.04-10.42.02-11.39-.76-9.31-7.52 1.73-12.5 4.96-14.1m-76.82-.14c9.429.1 23.82 6.7 9.773 14-3.116.05-13.623 1.36-15.141-.78-4.733-6.67.337-9.57 5.368-13.22"/><path fill="#151d22" d="M520.32 1430.83c-.709-6.46-2.39-17.39 2.609-22.33 12.467-12.32 30.107 12.01 16.103 21.76-5.075 3.54-9.936 2.78-15.971 2.61.352 11.11 2.068 13.84-3.908 22.21 3.921 2.03 61.497-3.87 71.484-3.91l1.282 2.88c-70.17 5.79-139.681 6.94-209.925 10.07-52.541 2.34-103.821 9.46-155.964 15.12-74.1 8.05-159.342 20.07-226.03 55.05v-3.36c45.398-24.8 119.047-41.38 170.764-48.31 2.495.04 5.171-.88 1.862-1.72-12.665-3.19-3.915-22.32-9.546-24.04-7.173.27-13.903.42-18.994-5.57a14.77 14.77 0 0 1-3.392-11.04c.711-7.45 6.647-14.03 14.534-13.07 5.884.71 9.145 5.27 12.606 9.55.008 4.56-.948 13.66 2.372 16.4l.207 1.17c2.779.5 6.062-.25 4.283 2.47l.496 1.38c7.665-1.12 9.597-.16 16.597-.41 1.524-1.11 1.691-1.48 3.403-1.93.438-1.99.625-1.73 2.737-2.46l1.077-.49-1.607-1.64c24.114-2.35 51.989-5.48 76.052-6.63-1.223-7.52-3.65-17.18 1.252-23.74 10.565-14.15 31.897 6.79 21.032 19.26-5.274 6.05-12.236 6.18-19.691 7.14.697 7.78 2.595 15.89-.61 22.48 44.964-3.81 98.483-10.45 143.467-9.96-1.021-3.89-19.265-17.87.453-23.21-7.333-1.33-17.053-.94-21.235-8.77-5.572-10.44 4.592-25.39 16.121-21.15 6.904 5.89 7.323 15.98 8.142 24.72 2.605 2.14 4.014 1.43 8.221 1.69l-.909 1.48c-.968 1.47-1.532 2.97-2.06 4.64 5.138-.18 10.229-.18 15.34-.36l.474-3.37c2.348-1.26 3.735-1.29 6.384-1.73l-.324-.84c16.197-1.83 53.481-2.06 70.812-2.04"/><path fill="#da9047" d="M201.976 1453.15c6.646-.3 13.041-1.45 19.526-1.99 17.43-1.44 34.623-2.42 52.029-4.24 2.657 22.52 4.46 25.79-19.017 20.92l-4.496-.97c-18.158-4.49-29.775-9.55-49.094-11.09-.531-1.52-.055-1.51 1.052-2.63m267.442-18.97c16.66.37 34.467-.85 51.191-1.09.325 6.43 2.653 22.51-8.595 21.89-11.966-.67-26.043-9.53-37.435-13.28-4.88-1.65-18.115-4.18-23.257-5.08.38-2.47 14.859-2.05 18.096-2.44m-294.226 23.97c7.665-1.12 9.597-.16 16.597-.41 6.505 1.04 12.64 1.64 19.114 2.71-9.193 6.29-18.322 12.24-27.488 18.69-2.835-.6-13.865-1.68-14.035-5.24-.452-9.53-2.854-13.12 5.812-15.75m267.782-19.34c6.058.62 12.016 1.99 17.979 3.18-7.823 4.67-15.563 9.77-23.36 14.29-12.027 6.97-25.792-10.3-9.959-17.11 5.138-.18 10.229-.18 15.34-.36"/><path fill="#cd813a" d="M419.354 1436.56c-2.188 6.99-3.465 10.92-.132 17.88 1.079 2.25 4.274 3.63 5.003 4.9-.983 1-4.113.48-5.324.43-1.021-3.89-19.265-17.87.453-23.21"/><path fill="#684a2b" d="M449.832 1433.71c6.032-.03 13.558.08 19.586.47-3.237.39-17.716-.03-18.096 2.44-2.626-.43-5.242-.79-7.874-1.18 2.348-1.26 3.735-1.29 6.384-1.73"/><path fill="#895d3f" d="M199.006 1452.86c1.059.06 1.92.17 2.97.29-1.107 1.12-1.583 1.11-1.052 2.63-2.401.17-3.313.15-5.732.03.438-1.99.625-1.73 2.737-2.46z"/><path fill="#837d6e" d="M170.413 1454.3c2.779.5 6.062-.25 4.283 2.47-3.243.48-7.636 2.32-4.283-2.47"/><path fill="#da9047" d="M217.181 1462.16c13.343 2.77 25.713 6.44 38.768 10.33-10.023 1.93-20.67 3.13-30.835 4.27-13.125 1.05-25.608 2.78-38.996 3.63 10.017-6.05 20.789-12.85 31.063-18.23m246.667-18.35c8.313.57 29.213 9.14 37.328 13.26-7.75.16-15.261.51-22.926.72-12.936.28-26.426 1.23-39.175 1.1 8.34-4.9 16.599-9.92 24.773-15.08"/><path fill="#f6f4f1" d="M151.083 1428.86c6.559.37 13.473 3.3 13.71 10.23.342 10.02 3.998 14.49-5.308 15.27l-1.994.18-.996-.19c-16.508-3.06-18.354-15.48-5.412-25.49m129.17-9.96c17.616-.45 20.051 17.16 8.622 23.8-5.465 1.18-7.703 1.34-13.278 1.92-1.57-12.28-4.8-17.85 4.656-25.72m126.582-10.18.452.07c8.921 1.42 11.893 5.56 11.708 14.7-.181 8.92 1.771 9.08-6.893 9.5-3.512-.52-8.525-.51-10.351-3.79-4.756-8.53-2.234-15.62 5.084-20.48m122.858-1.66 1.694.38c12.493 2.7 13.214 16.38 2.907 22.81-2.043.09-10.491 1.1-11.094-.84-3.236-10.37-2.389-17.12 6.493-22.35"/><path fill="#151d22" d="M1532.45 1427.14c-9.77-2.73-20.51-7.52-15.96-20.07 1.35-3.7 4.14-6.69 7.73-8.3 17.53-7.68 17.22 15.63 15.44 25.96 24.92 4.17 66.26 6.85 92.46 9.49.22-6.15.29-19.47 6.3-22.32 19.39-9.21 32.75 29.91-3.42 25.04-.29 10.62.54 13.34-5.4 21.82 32.18 2.48 64.35 5.13 96.5 7.94 16.5 1.43 35.46 3.65 51.77 4.67 2.37.91 2.94.69 5.61.65 2.11.65 3.06 1.85 4.73 3.26-46.62-3.33-93.86-8.61-140.86-11.93-17.79-1.36-35.59-2.59-53.39-3.71-7.6-.45-27.25-1.13-33.76-2.43-1.72-.78-2.58-1.08-4.34-1.54l-.09.01-.07-.13c.23-.46.43-.46 1-.8-1.69-1.21-1.58-1.18-3.56-1.85-.62-1.35-.58-1.37-.94-2.88-3.82.48-5.64 1.25-9.32.35l-1.72-.37c-.65 1.28-1.26 2.48-1.87 3.79-13.57-14.79 1.33-25.73-6.84-26.65"/><path fill="#da9047" d="M1578.61 1441.71c11.47 3.58 15.87 7.56 25.82 12.03l-1.85 3.53c-15.06-.76-31.06-2.02-45.88-2.52-1.69-1.21-1.58-1.18-3.56-1.85 8.86-3.18 16.87-7.27 25.47-11.19m-37.45 8.29c-1.86-2.46-4.53-5.68-3.89-8.98 2.86-14.59 28.2-4.24 35.96-1.58-7.91 4.88-12.19 7.24-21.03 10.58-3.82.48-5.64 1.25-9.32.35z"/><path fill="#cd813a" d="M1604.43 1453.74c1.1.49 5.76 2.28 6.25 3.42-.14 1.42-7.17.21-8.1.11z"/><path fill="#da9047" d="M1569.38 1430.5c17.28 2.05 34.83 2.98 52.12 5.63 12.28 1.88 11.53-1.68 11.38 11.24-.04 1.34 0 1.36-.44 2.58-1 1.98-2.36 5-4.75 5.63-14.18 3.75-29.32-12.78-42.26-16.27-7.96-2.14-14.53-5.4-22.17-7.19q3.045-.84 6.12-1.62"/><path fill="#684a2b" d="M1632.88 1447.37c-.04 1.34 0 1.36-.44 2.58-.14-1.53-.34-1.53.44-2.58"/><path fill="#f6f4f1" d="M1524.93 1399.99c10.85-.13 13.93 3.47 12.68 14.83-.48 4.39.44 9.31-4.27 10.21-9.21-2.36-16.55-4.11-14.89-15.11.71-4.72.96-5.71 4.93-8.72zm115.88 12.91c16.83-.75 17.34 14.33 7.96 22-2.39.03-12.93.68-13.49-1.47-1.47-5.62.47-15.25 4.47-19.37z"/><path fill="#cd813a" d="M1538.3 1428.36c1.34-.14 8.77-1.1 9.48.15-.02.36.04.12-.33.83-4.88.96-7.94 3.7-9.15-.98m24.96 3.76c-.97-.18-3.98-.72-4.59-1.61l.05-.16c1.41-.97 8.92-.11 10.66.15q-3.075.78-6.12 1.62"/><path fill="#da9047" d="M1826.03 1453.6c4.53 1.83 10.31 3.22 14.4 5.58 12.33 7.12 24.29 15.9 37.57 21.15 4.56 1.8 6.53.38 10.05-2.21l1.31 1.17-3.32 4.65 2.14 3.53c-3.07-.44-17.84-2.21-19.85-3.07-21.22-1.9-44.91-6.49-65.81-7.39-2.51-.2-4.77-.46-7.27-.74 5.39-4.13.9-4.67-3.35-5.66 11.14-1.44 23.4-7.38 33.14-13.1z"/><path fill="#151d22" d="M1826.03 1453.6c4.53 1.83 10.31 3.22 14.4 5.58 12.33 7.12 24.29 15.9 37.57 21.15 4.56 1.8 6.53.38 10.05-2.21l1.31 1.17-3.32 4.65 2.14 3.53c-3.07-.44-17.84-2.21-19.85-3.07 2.73-1.43 1.78-1.63-.72-3.18-2.53-3.64-31.14-18.39-36.54-19.97l-.88-.3c-4.94 1.53-25.96 9.72-30.31 12.18l2.64 3.88c-2.51-.2-4.77-.46-7.27-.74 5.39-4.13.9-4.67-3.35-5.66 11.14-1.44 23.4-7.38 33.14-13.1z"/><path fill="#151d22" d="M1799.88 1473.13c13.48 3.74 52.43 6.88 67.73 8.09 2.5 1.55 3.45 1.75.72 3.18-21.22-1.9-44.91-6.49-65.81-7.39z"/><path fill="#da9047" d="M1783.45 1441.26c.74 1.73.52 2.41 2.39 1.87l.85-.64c7.82 1.52 19.05.99 26.35 3.1l-.2 1.33c1.68.71 3.35 1.42 5.01 2.16l-.65 1.56c2.09.7 2.24.87 4.34.87l4.49 2.09-.99 3.91c-9.74 5.72-22 11.66-33.14 13.1 4.25.99 8.74 1.53 3.35 5.66-2.5-.25-4.66-.23-7.04-.99-1.67-1.41-2.62-2.61-4.73-3.26-13.07-15.8 1.39-21.68-3.02-28.65l.29-1.07c1.59-.25 1.77-.07 2.7-1.04"/><path fill="#142a39" d="M1783.45 1441.26c.74 1.73.52 2.41 2.39 1.87-.12 3.3-.33 3.57.82 6.57-8.61 9.08-4.11 15.81 5.24 20.91 4.25.99 8.74 1.53 3.35 5.66-2.5-.25-4.66-.23-7.04-.99-1.67-1.41-2.62-2.61-4.73-3.26-13.07-15.8 1.39-21.68-3.02-28.65l.29-1.07c1.59-.25 1.77-.07 2.7-1.04"/><path fill="#24303b" d="M1786.69 1442.49c7.82 1.52 19.05.99 26.35 3.1l-.2 1.33-1.97 2.18c-5.6-.22-7.66-1.04-13.26-.13-4.51.09-6.56-.17-10.95.73-1.15-3-.94-3.27-.82-6.57z"/><path fill="#151d22" d="M1812.84 1446.92c1.68.71 3.35 1.42 5.01 2.16l-.65 1.56c2.09.7 2.24.87 4.34.87l4.49 2.09-.99 3.91c-9.97-4.19-17.15-5.99-27.43-8.54 5.6-.91 7.66-.09 13.26.13z"/><path fill="#895d3f" d="M1812.84 1446.92c1.68.71 3.35 1.42 5.01 2.16l-.65 1.56c-2.47-.55-3.89-.75-6.33-1.54z"/><path fill="#da9047" d="M1821.54 1451.51c3.02-.3 5.31.2 8.08-.75 19.79 1.17 42.05 6.55 62.1 8.64-.96 8.07-.4 10.37-3.38 17.97l-.29.75c-3.52 2.59-5.49 4.01-10.05 2.21-13.28-5.25-25.24-14.03-37.57-21.15-4.09-2.36-9.87-3.75-14.4-5.58z"/><path fill="#151d22" d="M1892.13 1456.94c.77-7.19 1.24-18.02 7.49-22.75 15.24-11.52 28.8 17.55 11.96 24.89-6.41 2.79-10.23 1.62-17.08.66-.96 7.29-.92 13.65-5.14 19.55l-1.31-1.17.29-.75c2.98-7.6 2.42-9.9 3.38-17.97-20.05-2.09-42.31-7.47-62.1-8.64-2.77.95-5.06.45-8.08.75-2.1 0-2.25-.17-4.34-.87l.65-1.56c-1.66-.74-3.33-1.45-5.01-2.16l.2-1.33c26.41 3.42 52.78 7.21 79.09 11.35"/><path fill="#da9047" d="M1817.85 1449.08c1.99-.01 10.08.75 11.77 1.68-2.77.95-5.06.45-8.08.75-2.1 0-2.25-.17-4.34-.87z"/><path fill="#f6f4f1" d="M1905.22 1433.73c15.73 3.46 14.23 20.7 2.56 24.38-4.7-.3-8.46-.64-13.14-1.18.96-11.6-.2-17.47 10.58-23.2"/><path fill="#151d22" d="M1886.04 1483.94c55.64 8.97 110.5 19.59 161.96 43.7v3.19c-57.27-24.9-98.56-33.18-159.82-43.36z"/><path fill="#f6f4f1" d="M1780.75 1442.3c-4.88-1.87-9.3-2.1-13.57-5.93-7.67-6.89-3.08-22.35 7.79-21.7 4.04.25 9.09 4.25 9.84 8.36 1.02 5.57-.69 12.49-1.36 18.23-.93.97-1.11.79-2.7 1.04"/><path fill="#151d22" d="M1777.28 1443.38c-13.83-3.32-23.25-14.2-11.2-28.19 6.81-5.86 15.68-2.93 20.16 3.67 4.87 7.17 1.52 15.83.45 23.63l-.85.64c-1.87.54-1.65-.14-2.39-1.87.67-5.74 2.38-12.66 1.36-18.23-.75-4.11-5.8-8.11-9.84-8.36-10.87-.65-15.46 14.81-7.79 21.7 4.27 3.83 8.69 4.06 13.57 5.93l-.29 1.07c-1-.11-2.21-.02-3.18.01"/><path fill="#da9047" d="M1777.28 1443.38c.97-.03 2.18-.12 3.18-.01 4.41 6.97-10.05 12.85 3.02 28.65-2.67.04-3.24.26-5.61-.65 2.28-4.16-16.89-9.12-.59-27.99m-244.83-16.24c8.17.92-6.73 11.86 6.84 26.65-1.17.08-2.21.23-3.38.38l-.79-1.44c.19-.78.42-.91-.13-1.24-8.11-4.8-8.72-7.57-11.24-16.59 3.44-3.42 4.78-4.81 8.7-7.76m-1369.37 29.72c5.631 1.72-3.119 20.85 9.546 24.04 3.309.84.633 1.76-1.862 1.72-.375-2.03-25.027-10.79-7.684-25.76"/><path fill="#24303b" d="M170.206 1453.13c9.08-.4 18.147-1.04 27.193-1.91l1.607 1.64-1.077.49c-2.112.73-2.299.47-2.737 2.46-1.712.45-1.879.82-3.403 1.93-7 .25-8.932-.71-16.597.41l-.496-1.38c1.779-2.72-1.504-1.97-4.283-2.47z"/><path fill="#151d22" d="M430.603 1433.05c4.64-.43 13.901-.21 18.905-.18l.324.84c-2.649.44-4.036.47-6.384 1.73l-.474 3.37c-5.111.18-10.202.18-15.34.36.528-1.67 1.092-3.17 2.06-4.64z"/><path fill="#24303b" d="m1157.47 555.672 3.71-.637-.12 4.042c-.16 6.173-3.14-2.39-3.59-3.405"/><path fill="#4b535a" d="M776.002 1267.15c-.679-.02-7.632.26-7.268-1.31.714-.76 3.993-.97 5.274-1.26z"/><path fill="#24303b" d="m744.787 1305.17-1.359-.58c-.69-.29-2.769-.84-2.722-1.9.62-.69 3.943-1.13 4.802-1.33q-.347 1.905-.721 3.81m438.343-305.579c5.59 2.589 4.27 3.089-1.07 2.929z"/><path fill="#142a39" d="m863.742 701.729.779.054c4.997 13.428 6.153 29.622 8.89 43.141 3.284 16.219 12.609 54.001 19.631 67.944-3.54 5.354-24.316 37.614-27.43 39.961-1.627-2.705-1.413-3.528-1.697-6.683 1.741-1.208-18.327 30.917-20.794 34.001 1.375-6.628 2.761-14.123 4.434-20.603-10.971 12.911-20.003 27.358-31.045 39.472 3.032-12.551 6.497-28.615 10.718-40.408-5.023 4.836-10.186 9.709-15.128 14.611 2.636-15.538 5.158-31.443 9.143-46.692-2.312 3.059-6.595 8.261-7.962 11.562l-1.742-1.155c4.57-15.896 28.108-47.703 38.763-63.314l-.72.297c-6.285 2.673-8.796 3.949-14.32 7.774 14.829-20.846 21.018-28.653 26.99-53.333l-8.772 3.575c5.141-10.665 6.484-19.294 10.262-30.204m167.788-362.147c8.17 6.748 18.61 18.964 23.95 28.143l-1.45.66c-4.99 2.331-9.78 3.859-15.03 5.5a545 545 0 0 0-6.09-12.157c-3.36-7.676-6.19 10.295-6.66 12.295l-.93 3.998c-.25 1.047-.64 4.163-1.78 4.738-3.37-1.634-.17-20.977.3-24.276 1.07-7.685 3.46-12.631 7.69-18.901"/><path fill="#696b75" d="m813.281 838.089-.474 1.384c-.27.808-.597 2.308-1.38 2.772l-.212-.11c-.707-1.399.003-3.791.324-5.201zm50.461-136.36c-.099-.807-.378-1.482.107-2.114.976-.068.675 1.624.672 2.168z"/><metadata><recraft-signature>{&quot;signed_by&quot;: &quot;recraft&quot;, &quot;signature_b64&quot;: &quot;bdpakZoH4LZNprn8HLYs+OpV+s/sjazQFPOC87Rv6ezga8qUeg+GIPjjWbQHGRjEKujLwEcxWpVLi7CMYzRmAQ==&quot;, &quot;signing_algo&quot;: &quot;Ed25519&quot;, &quot;generation_timestamp&quot;: 1777251975, &quot;identifier&quot;: &quot;628e8e55-294f-40ae-99c9-26f28c6d6306&quot;}</recraft-signature></metadata></svg>