<svg xmlns="http://www.w3.org/2000/svg" width="1024" height="1024" preserveAspectRatio="none" style="display:block" viewBox="0 0 2048 2048"><path fill="#37424f" d="M896.627 573.799c54.942-49.298 137.393-51.228 188.513 5.146 30.04 33.124 38.72 78.78 64.85 114.209 9.73 13.229 27.8 26.352 39.87 38.606 100.79 102.286 161.36 237.006 273.23 329.55 10.52 8.7 81.42 52.02 83.67 60.16l-1.39 1.95c-4.83-.06-37.74-10.9-44.53-12.96a3808 3808 0 0 1-227.93-78.06c-62.25-23.67-151.02-55.096-201.14-99.32l-1.99 1.344c91.39 83.686 241.68 118.596 354.78 160.936 4.46 1.67 35.89 38.34 41.15 44.29 57.07 64.5 116.21 127.27 170.88 193.81 5.13 28.08-15.9 16.56-32.24 10.89-8.72-12-19.99-23.39-30.12-34.26-50.11-53.75-103.98-103.55-156.2-155.14l-1.68 1.74c28.33 27.73 58.15 65.55 85.87 94.88 26.78 29.22 54.55 57.58 81.25 86.86 5.82 6.38 13.84 13.43 7.2 21.96-8.35 3.77-36.22-8.45-47.39-11.91-28.1-33.46-61.35-65.65-91.52-97.43-28.13-29.63-53.68-61.85-83.7-89.35-13.03-11.94-27.04-23.18-40.57-34.63 4.35 6.38 14.77 20.86 11.57 28.24-5.2 1.04-40.04-29.18-47.89-31.27-48.06-12.81-100.46-23.64-149.19-33.05 6.3 7.37 12.61 22.93-.14 26.9-8.37-1.01-25.28-18.05-33.69-22.27-23-11.55-37.87-24.22-57.09-41.3 2.72 10.51 5.02 23.99 7.64 35.15-7.52-9.63-16.83-21.58-25.37-30.24-8.6-8.73-19.74-17.5-28.96-25.99a427.3 427.3 0 0 1-51.382-55.318c-41.011-53.69-66.966-123.127-53.341-190.921 4.972-24.736 14.663-46.387 18.011-70.023 3.813-26.907-3.617-57.252-21.239-77.973-3.038-3.572-10.059-13.314-14.091-14.984-28.042-11.614-60.113-16.683-89.266-20.242 32.26-26.145 60.572-32.775 102.016-31.584-22.922 14.727-31.85 18.638-58.024 19.979l-.217 2.059c27.695-1.137 62.042 5.238 90.742 7.097-10.155-9.563-21.412-17.437-30.952-27.531"/><path fill="#a5aaaf" d="M1069.78 934.424c-3.08-2.798-21.61-22.299-21.33-24.837.78-.769 2.57 1.338 2.92 1.809 5.9 7.968 13.93 14.395 20.4 21.684z"/><path fill="#878d93" d="M836.837 594.233c-2.173.465-13.963 1.543-16.85 1.214-.083-.009-.072-.077-.077-.184 1.508-2.135 14.378-3.047 17.144-3.089z"/><path fill="#ece6e6" d="M1416.35 1156.69c-5.96-5.53-5-7.48 1.68-1.74z"/><path fill="#fdfdfc" d="M977.162 858.78c-10.283-29.827-16.242-61.182-5.184-91.715 12.583-34.74 46.742-60.482 83.442-63.696 16.85-1.476 30.61 1.231 46.23 7.062l-2.04 2.159a104.32 104.32 0 0 0-78.27 14.04c-23.914 15.181-37.024 38.692-43.628 65.886-4.316 17.771-3.995 49.273 1.949 66.6zm212.858 67.085c7.74 2.719 19.85 11.706 27.92 16.175a511.5 511.5 0 0 0 60.89 28.437c9.28 3.557 17 5.945 26.31 8.629 13.67 3.939 51.34 8.674 60.95 16.271 1.64 3.622 1.22 2.254.5 6.743-44.86 13.27-146.34-43.148-176.57-76.255m27.68-10.096c9.25.686 40.72 13.088 51.8 16.597 15.56 4.926 33.65 10.582 49.2 16.237 4.6 1.671 15.58 6.56 19.38 10.106 2.12 1.983 1.07 4.588.62 7.463-21.08 7.792-65.84-12.837-83.77-23.768-11.93-7.274-25.95-18.077-37.23-26.635"/><path fill="#fdfdfc" d="M1188.62 962.358c72.74 24.868 145.38 41.252 217.93 64.042l-.85 2.15c-23.01-6.21-53.58-10.58-78.08-16.36-50.85-12.01-91.09-26.822-138.64-47.154zM984.379 576.14c12.608-.578 16.611 4.17 26.581 12.008 2.5 1.962 12.26 8.915 13.5 10.322-2.08 1.673-8.35-.108-10.78-.49-6.22 4.679-6.51 5.582-13.837 8.445-16.321 3.575-28.651.727-40.893-11.36l-1.376-1.309c8.837-7.689 15.813-13.547 26.805-17.616"/><path fill="#37424f" d="M985.879 579.929c10.603.3 13.679 2.876 19.391 11.736-3.15 2.744-5.372 4.545-8.834 6.973-20.53 8.209-22.643-10.971-10.557-18.709"/><path fill="#fdfdfc" d="M1147.59 855.608c6.34 2.459 12.34 6.132 19.03 8.656 12.39 4.773 25.23 7.694 36.19 15.62 6.75 4.881 14.58 8.682 8.43 17.196-8.33 4.009-19.69 6.203-27.61-.473-13.04-10.993-25.69-27.308-36.04-40.999m171.03 221.212c2.96.73 8.1 4.29 8.4 4 4.78-4.6 5.8 3.46 12.87 12.24 4.12-1.32 7.6-2.11 11.73-3.18q.51.93 1.05 1.86c2.67 4.71 5.24 11.13 7.71 15.95 5.25 10.21 6.72-2.05 12.59.41 8.05 3.11 7.52 14.09 10.34 18.83 7.62 12.79 7.96-8.1 15.77 9.62 1.08 6.44 2.25 11.19-8.08 10.46-7.32-1.25-12.21-11.03-16.44-15.13-15.48-15.03-33.19-28.06-48.1-44.34-4.37-4.77-5.99-4.78-7.84-10.72m-261.25-217.129c13.02 4.565 36.53 13.987 46.12 23.814 6.03 6.178 7 14.166 6.54 22.375-31.92.244-39.44-23.929-52.66-46.189m124.79-11.86c12.84.587 45.63 11.229 59.04 15.646 5.26 2.283 12.57 4.837 15.61 10.047.7 1.202-1.22 4.615-1.66 5.549-22.4 12.052-57.54-16.356-72.99-31.242m-76.76 13.963c14.92 5.405 34.95 15.886 50.49 21.466 6.25 2.242 14.19 12.913 12.71 21.378-22.06 6.052-43.94-17.058-56.04-32.819a142 142 0 0 1-7.16-10.025M847.7 602.666c6.669.386 11.913-.023 18.435 1.277 12.572.09 38.633 3.463 50.781 6.63 10.855 11.671 19.329 20.976 28.713 33.934-18.649-12.991-30.577-19.321-54.134-21.231-18.027-1.461 2.683-7.186 7.107-8.274-7.036-1.864-13.528-3.222-20.614-4.753a269 269 0 0 0-18.482-3.402c-2.086-.293-4.515-.838-6.611-1.253-2.13-.123-4.589-.599-6.792-.868.321-1.183.539-1.455 1.597-2.06"/><path fill="#ece6e6" d="M847.7 602.666c6.669.386 11.913-.023 18.435 1.277-5.341.528-9.288-1.076-13.24 1.651-2.13-.123-4.589-.599-6.792-.868.321-1.183.539-1.455 1.597-2.06"/><path fill="#fdfdfc" d="M1235.66 892.922c29.43 7.309 52.06 15.516 77.24 32.741-31.07 1.139-60.01-4.354-77.24-32.741m-227.74-57.221c3.78 1.763 20.13 16.043 25.08 20.189 11.77 9.872 19.42 21.424 20.81 36.875-26.73-5.397-36.73-35.29-45.89-57.064"/><path fill="#a5aaaf" d="M1171.44 956.934c5.94.998 11.64 3.041 17.18 5.424l.36 2.678c-5.7-2.002-12.09-5.424-17.54-8.102"/><path fill="#878d93" d="M846.103 604.726c-1.548-.054-9.363-.614-10.367-1.467-1.886-1.603 9.173-1.746 11.964-.593-1.058.605-1.276.877-1.597 2.06M1406.55 1026.4c2.72.44 5.33 1.22 8.01 1.87l.44 1.18c.37-.03.75-.06 1.12-.1.08 1.1-4.97-.02-5.16-.03-1.77-.18-3.51-.46-5.26-.77z"/><path fill="#a5aaaf" d="M1101.65 710.431c7.37 2.736 3.04 2.899-2.04 2.159zM977.162 858.78l2.499.336c.075.499 1.061 4.441-.201 4.484-1.03-.635-1.909-3.712-2.298-4.82"/><path fill="#37424f" d="M1148.66 1096.09c9.49 2.09 17.57 2.96 26.42 4.75 3.96 8.87 4.37 12.31 4.53 21.94-2.2 4.69-4.72 9.65-9.15 12.61-14.69 9.77-32.62 17.05-47.78 25.95-38.11 22.36-83.31 45.98-118.98 71.8 6.99 3.8 11.3 6.51 17.88 11.01 25.27-9.26 55.36-20.33 81.85-24.8 3.32-15.78 6.11-26.83 20.65-36.97 3.42-2.39 13-7.65 17.06-7.44 7.42 7.79-13.77 32.76-19.87 38.63l-.18 1.63c4.84-1.88 22.42-4.57 28.45-5.63 5.24-10.27 7.98-21.05 14.52-32.41 13.67-23.76 34.41-26.93 58.91-33.54-9.26 30.34-20.97 51.02-52.96 61.39l-.01 3.04c14.53-1.02 29.11-1.44 43.68-1.26 8.49-22.56 17.16-40.08 40.23-51.07 12.27-5.85 35.34-9.64 48.35-7.8l1.34 1.07c-3.18 10.05-16.33 24.66-24.32 31.78-17.32 15.42-39.88 19.94-61.69 25.88 16.4 1.23 35.65 2.73 51.53 7.11 32.47-46.81 51.45-45.89 105.55-38.41-44.93 27.82-37.12 36.02-96.12 37.57l.6 3.26c6.35 1.05 14.52 1.84 19.71 5.55 22.45-3.01 40.29-6 59.92 9.21 16.05 12.44 26.25 26.46 38.84 41.97-48.16-1.35-81.14-.94-105.99-48.79-11.21-2.3-27.57-6.27-38.42-7.72-47-6.27-106.32-3.57-152.11 9.55 7 5.73 17.28 13.04 20.88 21.07l-.5 1.45c-7.91-.57-19.63-14.21-25.35-20.26-23.54 6.5-35.22 13.76-56.51 22.23 76.69 40.7 157.11 88.24 219.54 149.04 16.39 15.97 30.89 36.85 46.07 52.79l3.09.44 1.97 2.99-1.93 1.29c3.49 5.31 23.44 34.98 24.95 38.44-1.7.73-1.23.55-2.68 1.81 1.57 12.28 28.15 26.92 29.71 51.14 2.02 31.46-1.36 54.98-6.15 85.89-14.31-20.53-30.49-42.52-38.75-66.01-10.34-29.41-2.17-44.41 10.37-70.35-7.43-12.62-17.78-29.25-26.3-40.92 2.91 15.69 10.52 30.25 9.29 46.74-1.31 17.48-6.39 36.23-14.24 51.87-9.22-13.99-20.28-33.61-20.75-50.65-.63-23.04 10.03-34.42 24.32-49.99-14.34-18.41-34.38-41.43-51.11-57.63l-1.36 1.98c-.95-.96-1.8-1.82-2.79-2.74l.27-2.2c-59.07-50.75-118.85-92.64-189.41-126.27-7.67-3.66-19.12-9.61-25.95-14.39-17.16 13.71-16.01 24.28-24.58 43.87-1.94 4.44-1.75 4.31-5.603 5.93-.1-2.68-.137-3.29-.573-5.95-.54-11.51.371-16.53 2.755-27.88-23.97 40.04-10.901 54.18-54.961 80.03 4.44-13.92 10.159-17.43 16.777-29.3 5.611-10.07 11.631-22.23 16.763-32.64-8.477 4.19-15.115 7.14-20.371 15.59-12.801 20.58-9.119 45.13-30.447 60.34 12.888 36.42 17.865 62.29 20.407 100.89 28.721 13.82 37.353 15.21 39.211 49.61-19.706-10.08-28.305-14.88-36.689-35.97-2.688 5.51.43 15.8-2.166 25.38.017 1.61-.536 3.9.879 4.59 37.063 18.21 40.094 23.5 42.486 64.5-19.613-8.23-30.084-15.21-38.547-36.08-2.615-6.45-3.371-13.81-5.171-18.11l-.513.32c-2.049 12.89-3.932 26.06-6.78 38.79 30.488 23.86 35.985 43.58 25.726 80.36-21.305-22.93-24.189-27.36-27.464-58.71l-2.764-1.84-5.449 20.33a95 95 0 0 1 2.504 4.1c4.805 8.45 4.873 18.72 2.182 27.85-6.41 21.77-23.64 29.64-41.785 39.4.283-34.87-.664-56.8 32.854-74.84a743 743 0 0 1 7.775-33.86c-19.662 36.36-28.493 39.21-69.386 40.22 22.534-34.53 30.309-38.61 70.588-45.08 2.83-14.63 4.397-27.31 6.253-42.14-17.368 34.37-26.388 44.64-67.236 43.71 4.994-7.77 7.871-16.53 14.25-24.49 12.897-16.11 33.66-21.08 53.213-23.16.046-10.78-.12-22.22.599-32.92-1.143-.24-2.242-.46-3.377-.74-5.642 15.45-16.689 27.36-32.751 31.87-5.251 1.47-18.233 4.94-22.895 2.48-.846-4.71 6.727-18.7 9.782-22.89 12.098-16.62 29.363-20.06 48.205-22.77-.664-19.74-9.72-79.17-19.857-95.03l-1.301-.24-3.336 3.37c-.003 1.47-.58 4.21-2.312 4.44-1.14-1.57-.193-10.24.032-12.26.715-11.8.842-15.63-2.102-26.99.381-3.86-.257-10.89-.502-15.01.605-5.34.838-8 .698-13.35-10.155 8.74-4.907.27-1.376-1.86 3.658-5.61 6.936-17.73 9.062-24.62-13.375 14.17-13.877 24.73-25.331 37.39-3.925 4.34-22.313 14.28-28.233 17.78 15.406-18.82 21.434-15.17 28.578-45.34 1.278-5.4 4.333-10.6 8.761-14.31 12.627-10.59 29.809-17.33 44.255-25.52 10.96-6.22 21.937-12.94 32.963-18.62-20.201-6.52-36.432-12.74-57.592-18.82-12.981 40.87-39.856 46.01-77.095 52.67q.632-1.635 1.365-3.24c10.555-23.44 23.701-40.01 49.335-47.09 6.888-1.91 11.519-.79 17.672-3.12-6.94-2.96-42.752-3.55-52.041-3.97-11.981 38.41-41.79 50.72-79.827 45.57 10.58-19.77 28.956-37.62 51.732-41.48 9.294-1.58 18.096-2.39 27.382-4.4-21.462-1.36-42.392-.83-64.137-2.66-23.684 55.06-54.934 49.77-104.725 40.19 23.691-10.08 32.318-22.05 55.003-32.39 13.924-6.35 34.14-3.46 42.92-6.86l-.461-.89c-7.807-1.08-12.965-2.02-20.636-3.81-42.084 15.36-65.288-3.63-99.661-24.91 33.056.44 82.8-26.29 99.552 22.1 8.438-.17 18.984.6 27.66.88 4.192-.43 8.409.29 11.86-1.53-34.806-8.93-47.431-22.48-57.19-56.61 45.317 5.77 58.594 16.89 73.352 58.98 14.233.51 29.261.79 43.417 1.59-21.529-8.87-37.774-10.91-48.259-35.92-3.651-8.71-5.94-17.8-7.742-27.11 40.954 10.5 53.083 22.35 62.948 63.48 11.157.11 19.088.29 30.271 1.44q3.384-.645 6.743-1.41c-46.618-20.15-40.102-43.36-47.671-86.74 39.73 30.48 55.545 37.2 56.259 89 22.29 4.42 47.455 12.97 68.639 21.11 28.617-18.9 57.447-36.69 86.127-55.75 25.92-17.23 56.95-39.87 83.41-54.53z"/><path fill="#ece6e6" d="M948.303 1503.61c-.106-3.27-.764-28.97.29-29.66 1.216.99 1.479 2.76 1.876 4.28-2.688 5.51.43 15.8-2.166 25.38m-12.148 73.82c.466-2.2 1.668-10.53 3.072-11.63 1.598.02-.213 12.07-.308 13.47zm219.095-368.17c5.46-2.01 9.03-2.99 14.76-4.25l-.01 3.04c-5.38.71-9.37.91-14.75 1.21m-345.464-8.69 4.01.71-.471 2.18c-5.424-.61-10.024-.46-15.399-1.36 4.192-.43 8.409.29 11.86-1.53"/><path fill="#444b53" d="M1121.09 1215.2c-1.54.67-3.47 1.5-5.12 1.86l-1.87.41c-.74.16-2.74.91-3.3-.03.68-1.7 8.88-3.47 10.47-3.87zm-206.383 149.58.311 2.03c.428 2.89-.351 4.09 1.969 5.79-.003 1.47-.58 4.21-2.312 4.44-1.14-1.57-.193-10.24.032-12.26m-3.282-57.21c.658.73.84 1.05 1.376 1.86-10.155 8.74-4.907.27-1.376-1.86"/><path fill="#fdfdfc" d="M913.326 1205.01c1.149.42 1.501.44 2.305 1.29.053.27.063.13-.058.43-1.259 1-7.429-.06-8.99-.31q3.384-.645 6.743-1.41"/><path fill="#ece6e6" d="M1279.15 1216.18c-1.04-.27-5.41-1.02-5.75-2.08.62-1.49 3.84-1.16 5.15-1.18z"/><path fill="#a5aaaf" d="M813.796 1201.28c6.753 1.37 5.978 3.34-.471 2.18z"/><path fill="#ece6e6" d="m1305.23 1452.27 3.09.44 1.97 2.99-1.93 1.29zm-366.09 23.54c2.227-5.11 2.468-4.43 3.377.74-1.143-.24-2.242-.46-3.377-.74m304-81.44c1.31.95 2.61 1.94 3.88 2.96l-1.36 1.98c-.95-.96-1.8-1.82-2.79-2.74z"/><path fill="#a5aaaf" d="M947.437 1518.83c.034-.36.151-1.93.264-2.3.169.27.289 2.42.249 1.98z"/><path fill="#fdfdfc" d="M990.961 1238.83c3.778.4 18.259 7.53 22.729 9.61-7.43 1.11-13.51 2.16-20.685 4.63-4.98 7.07-8.136 14.43-11.841 22.21-11.927 3.69-30.031 10.04-40.574 15.97l-16.216 8.84c4.118-9.64 5.411-13.06 7.057-23.2a1590 1590 0 0 1 39.649-25.4c7.467-4.57 13.084-6.71 19.881-12.66m-52.592 68.86c3.707 3.03-2.961 24.07-3.252 29.83-.457 9.02-2.883 14.7-8.576 21.7-2.879-2.98.823-26.23 1.282-31.24.875-9.52 3.364-14.22 10.546-20.29"/><path fill="#37424f" d="M1088.75 1360.02c-1.48-17.01-2.92-33.51-6.51-50.22-1.25-5.78-3.67-16.22-.35-21.37l1.61.4c8.48 12.65 12.82 61.06 13.02 77.4.11 8.42-1.08 24.42-1.73 33.32 32.65 13.89 46.78 40.77 34.79 74.99-27.78-23.15-30.6-37.87-33.97-73.67-1.65 6.43-2.57 17.24-3.53 24.21-1.54 11.08-3.31 19.46-5.86 30.23 6.51 2.7 9.61 4.58 15.65 8.17 1.85 2.3 9.4 11.32 11.54 12.77 9.48 11.28 10.45 23.41 7.47 37.46-2.67 1.64-3.35 1.51-6.6 1.98-15.79-11.69-25.89-21.58-29-42.18-.39-2.69-.72-5.38-.99-8.09a849 849 0 0 1-9.91 32.57c29.57 30.59 32.64 44.17 18.21 84.06-18.91-17.82-20.31-38.6-21.51-62.87-.36-3.87.51-7.02-1.33-10.07-3.44 7.13-3.7 8.18-8.52 14.77 21.34 42.32-13.89 70.9-44.25 93.51 7.88-24.93 4.72-39.41 7.84-64.08 1.91-15.15 21.5-25.82 34.28-33.2a899 899 0 0 0 15.35-40.52l-1.47-2.18c-14.46 33.31-24.33 40.37-58.37 51.61 7.14-43.19 24.5-52.95 63.84-66.63 4.14-16.28 7.28-37.88 9.38-54.44-16.46 38.03-28.4 52.47-70.55 58 10.06-23.21 16.55-42.05 41.84-52.49 9.27-3.83 18.76-6.98 27.82-11.24 1.4-12.06 1.88-27.96 2-40.04-22.79 40.91-39.74 41.96-81.92 34.51 2.68-3.17 5.43-6.28 8.26-9.32 24.43-26.42 39.77-26.09 73.47-27.35"/><path fill="#ece6e6" d="M1069.75 1509.11c4.81-13.78 1.77 7.71 1.33 10.07-.36-3.87.51-7.02-1.33-10.07"/><path fill="#a5aaaf" d="M1072.98 1477.41c.57-1.95 2.03-6.12 3.44-7.63l.16-.04c1.19 1-1.67 8.31-2.13 9.85z"/><path fill="#37424f" d="M841.425 997.091c23.29 9.179 65.828 23.569 72.282 48.069 4.858 18.44 2.663 19.84 13.917 36.32l1.831-.78c-5.056-31.07-1.081-41.79 22.139-63.72 11.276 34.11 12.812 53.07-12.599 81.84 12.98 19.68 19.774 28.85 27.927 51 2.798-9.06 4.222-13.1 4.511-22.74-28.711-30.16-.762-54.9 21.1-77.36l.155.88c9.332 28.37 25.432 66.35-15.66 78.42-1.249 9.38-1.611 23.55-6.707 30.61 1.969 8.38 3.702 16.8 5.196 25.27l.627 2.35c.814 9.65 2.049 21.88 1.036 31.42l-2.972.83c-1.424-1.1-3.695-20.87-3.813-23.43-.855-18.47-6.209-34.08-12.17-51.43-29.035 9.39-46.187 9.07-63.47-19.01 32.681-5.8 38.502-9.44 62.402 16.93-5.325-12.63-13.459-27.2-21.102-38.54a69 69 0 0 1-3.287 2.56c-10.016 7.31-22.991 9.25-35.041 7.14-19.475-3.42-31.926-17.66-42.777-32.9 34.678-10.78 56.461.3 80.896 23.91-4.657-10.34-17.162-24.27-19.385-31.73-40.182-7.06-47.589-14.59-61.825-53-2.193-5.92-9.546-17.12-13.211-22.909"/><path fill="#ece6e6" d="M929.455 1080.7c.559 1.16 2.118 3.64 1.25 4.94a.28.28 0 0 1-.265.02c-.902-.38-2.3-3.29-2.816-4.18z"/><path fill="#37424f" d="M1169.94 388.188c5.51-.372 11.4.171 16.54-.308 2.37 30.118 19.88 10.104 21.03 29.982 5.54 3.538 84.53 1.518 96.68 1.247.42-4.046.02-6.616 2.11-9.606 7.52-3.47 26.18-8.462 19.42-20.575.67-.328 15.41.526 17.57.598 1.41 15.043 7.39 15.184 19.58 21.448 2.41 3.721 1.58 3.16 1.55 8.489 18.51.444 37.23.102 55.73.8 1.38.052.75-.006 2.04 1.481-.86 1.227-1.48 2.639-2.77 2.68-45.9 1.469-119.54.457-163.2.459l-475.235.25c-14.701.009-139.36.972-144.241-1.062l-.41-2.211 1.305-1.806c9.552-1.343 50.664 1.508 57.004-1.266.083-.822.696-6.225 1.057-6.511 11.101-8.797 21.818-3.567 21.123-22.226l-.055-1.174c4.304-.945 12.195.962 17.801.37-1.072 21.044 7.262 13.769 19.328 22.475 2.353 1.697.122 5.511 3.118 7.902 10.432.009 87.655.89 90.696-1.441 2.053-22.909 19.482.493 21.976-30.136 5.149.548 10.655-.303 16.118.272 2.747 26.725 14.838 13.46 21.883 24.555.263 3.352-.29 3.982 1.432 6.14 9.072 1.177 27.438.836 37.206.8 15.536-.057 33.819.43 49.133-.612l1.337-1.066c.182-2.617-.19-7.755 2.184-9.002 12.72-6.68 19.53-1.566 20.42-20.953 5.78-.2 11.44-.144 17.21-.16.2 27.975 18.59 8.512 21.97 30.572 4.36 2.438 77.78 1.029 88.37 1.262.27-3.787-.04-6.341 2.31-9.208 13.21-7.982 18.87-4.419 20.68-22.459"/><path fill="#df8139" d="M682.201 1017.91c41.207 13.32 92.559 4.68 121.957 40.54 8.595 10.49 29.469 46.12 28.466 58.86l-1.884.97c-12.814 3.47-24.412 5.04-37.404 4.18-80.128-5.25-68.822-57.16-111.135-104.55"/><path fill="#cb1d20" d="M1022.59 1701.8c3.48 5.29 7.16 35.41 6.16 43.5-1.78 14.27-9.49 19.53-19.91 27.82-4.34 3.45-4.99 6.9-7 12.1 10.58-4.51 21.13-9.11 31.63-13.81-.2-2.86-.33-5.74-.39-8.61-.24-18.39 9.44-34.12 21.77-46.86 4.27 7.23 7.87 15.62 12.58 22.67 6.69 9.98 14.17 19.23 20.96 29.2 11.33 16.65 19.52 32.92 27.91 51.11-28.23-11.17-67.5-8.71-80.6-39.87-13.59 8.07-37.1 17.04-52.133 22.98l9.017 4.09 1.221.6c3.242.09 7.715-3.64 10.685-5.65 25.57-1.6 33.83 14.1 48.43 32.03-20.93-4.1-48.81-.36-59.907-20.89q-8.701-3.705-17.306-7.62c-38.253 11.72-60.055 16.39-99.639 22.5l12.982-17.59c44.83-4.93 62.473-7.85 105.786-22.33 2.768-5.48 4.78-11.43 6.914-17.2-14.011-22.24 5.94-31.89 14.97-50.88 3.16-6.65 4.28-10.21 5.87-17.29"/><path fill="#df8139" d="M569.933 1068.51c37.222 20.37 64.2-4.52 104.4 12 30.534 12.56 44.049 43.69 56.274 72.55l-.422.38c-10.701-1.38-20.111-.63-30.675-.3-28.61.9-56.917-2.17-81.138-18.84-22.823-15.71-42.585-38.09-48.439-65.79m806.357 215.68c15.37-1.46 42.68 6.46 56.67 14.27 30.53 17.02 42.88 50.72 52.07 82.52-12.2-10.95-18.46-14.98-33.45-21.03-30.24-12.01-50.3-4.96-81.73-8.18-17.11-1.76-33.8-7.1-50.45-11.71 10.62-27.01 27.4-49.42 56.89-55.87m-523.079 120.15c2.537-2.69 5.295-6.57 7.601-9.57 17.96-23.37 33.632-48.42 51.291-71.99.245 4.12.883 11.15.502 15.01-8.445 9.86-19.088 26.99-27.653 38.36-30.015 39.84-58.18 79.64-90.585 117.76-32.383 38.09-73.316 71.62-107.028 107.21.583 41.83-19.487 55.62-58.755 58.24 1.067-38.58 11.549-65.77 56.672-61.8 5.386-7.08 11.671-13.36 17.818-19.77 27.397-28.56 56.517-55.44 82.619-85.23l-1.803-1.6c1.37-1.23 2.71-2.5 4.021-3.8l1.757.16c6.593-6.54 24.784-29.48 30.598-36.95l-2.087-.94c-14.467 10.58-25.907 19.29-45.122 18.39-15.923-.75-32.492-6.76-43.492-18.58 33.935-20.07 56.503-22.42 90.912-3.13l2.534.46c5.118-8.4 19.904-27.32 26.339-36.16l-1.367-1.9c1.242-1.37 2.449-2.62 3.739-3.94z"/><path fill="#f7dbc4" d="m787.911 1487.16 1.757.16c-1.384 2.21-2.017 3.54-3.975 5.24l-1.803-1.6c1.37-1.23 2.71-2.5 4.021-3.8m63.811-82.59 1.489-.23c-1.346 2.19-2.301 4.03-3.861 6.07l-1.367-1.9c1.242-1.37 2.449-2.62 3.739-3.94"/><path fill="#37424f" d="M864.004 286.859c7.03-.292 22.113-.187 28.692.694q.184 1.076.392 2.149l1.475.211c4.795.602 4.661 1.483 7.868 4.322 6.597 5.837 17.59-1.367 18.593 12.28.349 2.878-4.971 9.343-6.824 11.906-1.235 20.839-5.477 39.789-17.111 57.43-.489.742-5.493 10.592-4.62 10.091-.78-.24-.726-.726-.988-1.475-2.273.087 1.46 2.956-4.546 2.413l-1.13 1.439c-5.463-.575-10.969.276-16.118-.272-2.501-1.181-4.118-1.177-6.804-1.718.828-2.558 2.457-3.065.721-5.31-14.703-19.018-19.187-39.553-21.035-62.907-13.572-14.695-8.248-18.382 9.084-21.403 3.339-2.912 5.548-5.156 9.458-7.334 1.553-1.099 1.685-1.138 2.893-2.516"/><path fill="#ece6e6" d="M864.004 286.859c7.03-.292 22.113-.187 28.692.694q.184 1.076.392 2.149c-7.445.633-24.493.285-31.977-.327 1.553-1.099 1.685-1.138 2.893-2.516"/><path fill="#a5aaaf" d="M862.883 386.329c6.886-.452 17.304-.727 24.052.551l-1.13 1.439c-5.463-.575-10.969.276-16.118-.272-2.501-1.181-4.118-1.177-6.804-1.718"/><path fill="#37424f" d="M1314.91 290.211c12.1-.339 25.25-.175 37.4-.159 3.41 2.207 8.74 6.441 12.69 6.943 23.38 2.969 8.29 14.795 6.96 21.994-3.48 18.945-4.6 35.3-14.95 52.523-2.5 4.173-5.19 7.457-7.69 11.518-.29.489 3.9 3.667-.78 3.647-2.04-.038-2.41-.461-4.33.237l-.92 2.612c-2.16-.072-16.9-.926-17.57-.598l-2.12-.992c-10.68-3.536 2.67-.729-4.03-8.158-11.04-12.234-18.05-34.028-19.41-50.283-.96-11.359-3.99-12.242-7.91-21.985-2.69-9.964 8.61-10.261 14.89-10.986 2.64-2.087 5.15-4.215 7.77-6.313"/><path fill="#ece6e6" d="M1323.6 387.936c2.67-2.477 14.91-1.014 20.61-1.022l-.92 2.612c-2.16-.072-16.9-.926-17.57-.598z"/><path fill="#37424f" d="M1044.07 289.499c4.35 1.912 7.84 5.043 11.45 8.068 17.63 1.018 20.55 5.669 8.76 19.707-2.2 22.119-6.09 41.334-18.93 60.036-6.54 9.524-.62 5.175-2.96 10.004-1.93.208-3.86.444-5.78.707-5.77.016-11.43-.04-17.21.16l-.24-1.199c-2.35.133-5.04.391-6.69-1.648.29-.452.85-.481 1.52-.519 4.88-.276-5.06-7.967-4.87-9.383-13.054-17.891-16.43-36.72-18.512-58.212-2.631-3.246-7.314-7.587-6.786-12.205.672-5.877 6.332-8.12 11.679-7.965 5.559.161 9.849-6.3 15.489-6.755 10.92-.627 22.1-.252 33.08-.796"/><path fill="#a5aaaf" d="M1019.16 386.982c9.12-2.127 14.72-.719 23.23.332-1.93.208-3.86.444-5.78.707-5.77.016-11.43-.04-17.21.16z"/><path fill="#37424f" d="M1157.89 290.221c13.13-.224 26.03.013 39.32-.275 5.56 4.779 5.98 6.329 13.28 7.074 2.62.267 8.8 3.422 10.04 5.872 2.9 5.737-2.94 10.81-5.79 13.898-2.67 20.555-4.85 38.783-16.18 56.787-.94 1.483-5.1 6.785-5.59 8.826.87 3.022 2.67 3.858-2.81 4.402-1.55.316-2.16.542-3.68 1.075-5.14.479-11.03-.064-16.54.308l-1.04-1.379c-1.23.05-6.76.647-6.58-1.366.08-.817 2.53-2.977 1.72-3.858-11.8-12.917-17.86-30.484-20.27-47.579-1.03-3.832-.54-11.473-1.99-14.978-2.44-5.871-10.96-10.465-5.55-17.788 2.45-3.319 8.38-4.439 12.29-4.249 2.96.144 6.66-4.563 9.09-6.542z"/><path fill="#a5aaaf" d="M1168.9 386.809c4.81-.918 16.51-1.451 21.26-.004-1.55.316-2.16.542-3.68 1.075-5.14.479-11.03-.064-16.54.308z"/><path fill="#37424f" d="M704.685 291.902c11.752-.591 28.001-1.714 39.587-.332 11.662 8.28 10.341 4.638 21.176 9.494 7.557 3.387.043 13.012-4.266 17.737-.25 4.303-.663 7.947-1.117 12.201-1.003 9.397-3.01 18.23-6.378 27.081-2.899 7.617-6.404 15.135-11.802 21.354-1.395 1.608-3.505 3.2-1.8 5.382l1.391 2.017c-3.641.846-4.219-.056-6.907 2.411-5.606.592-13.497-1.315-17.801-.37-.925-.458-1.814-.791-2.575-1.445-.737-.108-2.427-.059-2.76-.929.669-1.024 3.806-.649.809-3.626-11.078-11.003-16.743-25.907-20.056-40.89-.887-4.009-1.403-7.941-2.018-11.993-.023-.152-.978-6.521-.957-6.008-.312-7.548-6.236-9.713-7.925-15.991-.518-1.925 1.007-5.061 2.155-6.573 1.833-2.515 6.155-3.198 9.06-3.342 5.591-.277 7.68-3.074 12.184-6.178"/><path fill="#a5aaaf" d="M714.193 387.432c1.879-1.144 23.575-.627 27.283-.596-3.641.846-4.219-.056-6.907 2.411-5.606.592-13.497-1.315-17.801-.37-.925-.458-1.814-.791-2.575-1.445"/><path fill="#df8139" d="M517.627 1573.16c55.746-7.88 36.542-80.28 94.449-85.82 9.66-.93 37.584-2.52 43.768 6.23-10.283 5.82-14.361 9.33-20.428 19.91-22.979 40.06-66.078 78.69-116.811 62.79-4.79-2.28-5.862-2.54-.978-3.11"/><path fill="#d98652" d="M518.605 1576.27c-4.79-2.28-5.862-2.54-.978-3.11z"/><path fill="#df8139" d="M1402.17 1547.35c14.98 10.7 44.2 21 55.18 32.95 22.74 24.74 9.17 51.05 45.42 69.07 2.83.74 4.56 1.54 7.15 2.87-6.39-.19-11.9-.08-18.21-1.14-1.34.03-2.69.01-4.03-.06-24.6-1.03-53.07-10.08-69.98-28.75-20.4-22.5-16.7-46.92-15.53-74.94"/><path fill="#d98652" d="M1502.77 1649.37c2.83.74 4.56 1.54 7.15 2.87-6.39-.19-11.9-.08-18.21-1.14 4.37-.51 7.65.01 11.06-1.73"/><path fill="#df8139" d="M1101.87 1463.48c30.49 11.13 63.39 53.92 83.56 79.41 9.15-8.6 19.19-12.71 31.8-12.67 19.68.05 30.93 14.86 42.34 28.57-15.65 5.73-31.51 10.77-47.71 2.85-9.47-4.63-16.95-12.66-25.77-18.7 5.43 10.32 11.79 18.06 16.98 28.95 40.47 7.57 42.98 38.26 36.45 72.26-32.54-12.28-55.72-31.16-40.21-69.29l.59-1.41a514.4 514.4 0 0 0-69.37-84.75c-3.84-3.75-11.86-11.83-17.12-12.45-2.14-1.45-9.69-10.47-11.54-12.77"/><path fill="#37424f" d="M795.375 1267.84c3.123.54 7.186 1.84 10.315 2.72-16.632 12.43-33.425 23.05-50.251 34.89a1812 1812 0 0 0-93.619 70.69c-11.398 9.17-25.679 20-36.274 29.73-6.034 25.63-3.87 47.01-31.684 61.43-14.404 7.48-28.914 14.93-43.557 22.1l-7.795 3.08c7.538-21.4 17.445-43.47 33.111-60.42 9.825-10.63 31.573-16.5 43.03-26.7 5.262-5.26 7.53-10.88 13.61-15.68 52.81-41.69 108.05-83.28 163.114-121.84"/><path fill="#df8139" d="M1480.62 1465.21c-37.56-24.15-79.88-54.5-121.52-68.76-12.78-4.37-20.28-2.58-29.63-5.5l-.46-1.65 1.29-1.73c10.58-3.25 38.5 6.53 49.64 10.37 4.13 2.71 9.5 4.93 14.12 6.87 11.69 5.78 23.83 13.72 34.66 21.01 29.78-25.65 35.55-27.2 67.8-4.28-21.97 25.83-40.11 16.68-66.8 5.48 7.52 5.36 16.62 10.6 24.47 15.77 9.13 6.01 18.96 13.76 28.57 18.56 30.48-14.91 51.38 1.18 63.43 29.35-30.01 17.51-59.28 13.28-65.57-25.49m-874.288-310.69c35.105 4.42 42.297 16.94 53.292 47.78 8.989-1.06 16.767-2.74 25.507-.39l.711 1.27c-4.678 4.39-19.124 5.13-26.008 5.88-.596.82-1.034 1.14-1.797 1.84-4.258-1.95-10.709 2.14-15.746 2.74-1.686-1.5-1.848-2.15-4.103-2.28-4.216.75-32.856 6.14-35.16 6.14-.42 2.04-.383 2.42-1.278 4.18-2.282-2.92-5.423-.82-8.919.25l-.007-1.76c-14.023 4.3-32.773 6.18-47.366 6.84.227 13.34-11.781 21.68-24.046 23.02-18.186 1.99-30.853-5.77-44.535-16.25 19.613-24.51 43.205-38.48 68.019-10.39 22.364-.7 46.919-8.39 68.677-13.07 12.869-2.77 30.151-4.75 43.498-6.58-33.308-7.86-44.583-13.17-50.739-49.22"/><path fill="#f7dbc4" d="M638.188 1211.36c5.419-1.76 15.87-2.27 21.646-2.3-.596.82-1.034 1.14-1.797 1.84-4.258-1.95-10.709 2.14-15.746 2.74-1.686-1.5-1.848-2.15-4.103-2.28m-45.364 8.81c3.812-1.28 6.343-1.81 10.204-2.67-.42 2.04-.383 2.42-1.278 4.18-2.282-2.92-5.423-.82-8.919.25z"/><path fill="#37424f" d="M556.216 1377.32c24.163-3.63 44.348 2.62 65.616 12.97-15.611 13.17-32.312 22.4-52.549 25.68-25.937 1.02-44.984-8.47-66.757-21.11 14.245-8.15 37.495-14.97 53.69-17.54m777.094 118.11 1.88.06c7.69.14 17.51-1.79 25.5-2.37 33.85-2.46 65.18 18.94 83.52 46.81-20.36 2.9-57.41 6.47-73.4-7.86-13.08-11.73-22.07-24.5-37.5-36.64m-355.633-311c1.665-3.84 2.625-7.84 3.522-11.92l1.022-4.5c6.255-28.44 21.129-30.92 38.469-51.27 9.02-10.58 12.49-17.32 19.18-28.58 7.18 42.62-7.76 92.32-57.484 96.78-2.324.76-4.001 1.32-6.242 2.31l-.627-2.35z"/><path fill="#444b53" d="M977.677 1184.43c1.579.14 3.134.33 4.709.51-2.324.76-4.001 1.32-6.242 2.31l-.627-2.35z"/><path fill="#37424f" d="M609.842 1333.34c24.914-2.93 44.839 3.53 66.565 15.16-12.687 7.66-27.128 17.57-41.467 20.51-26.767 3.22-45.488-6.27-67.266-21.02 12.1-8.44 27.754-12.48 42.168-14.65m580.268 22.26c13.49 12.46 25.21 29.22 28.23 47.59 3.35 20.32-4.38 37.79-8.79 57.1-32.09-38.56-39.35-58.31-19.44-104.69m52.76 40.97c.99.92 1.84 1.78 2.79 2.74 27.2 45.13 29.04 50.22 9.85 101.23-27.63-31.82-38.15-66.79-12.64-103.97"/><path fill="#cb382b" d="M1149.49 1226.21c42.04-1.85 46.77 49.57 8.96 56.48-40.82-2.61-46.05-46.8-8.96-56.48"/><path fill="#37424f" d="M1308.32 1452.71c12.25-3.32 27.42-7.14 40.19-5.51 22.93 2.94 47.37 18.21 62.64 35.28-7.77 2.95-14.95 4.46-23.14 5.7a81.5 81.5 0 0 1-25.52 0c-25.45-3.92-35.17-15.75-52.2-32.48zm-4.75-53.31c27.18-2.91 51.95 11.9 68.48 32.44-10.93 3.14-20.27 5.02-31.4 7.05-21.58.92-34.12-1.23-52.37-15.2-7.37-5.64-11.38-10.63-19.51-16.07 12.92-5.84 20.78-6.84 34.8-8.22m-26.39-46.12c27.58-2.1 40.91 5.19 65.52 16.89-10.87 6.48-30.32 15.54-42.29 18.51-25.91 4.08-44.55-4.37-66.42-17.29 13.33-9.18 27.27-15.38 43.19-18.11"/><path fill="#cb382b" d="M896.546 1402.22c15.503-2.62 30.166 7.9 32.659 23.43 2.493 15.52-8.139 30.1-23.681 32.47-15.373 2.35-29.76-8.14-32.226-23.5-2.466-15.35 7.914-29.82 23.248-32.4m-53.843-75.12c36.63-.55 45.82 41.78 8.212 55.26-37.748 3.05-47.343-44.73-8.212-55.26"/><path fill="#37424f" d="M746.008 1317.83c7.114 6.87 12.82 33.59 11.874 43.67-1.921 20.48-13.798 37.56-26.793 52.77-4.391-4.01-8.705-18.59-10.043-24.78-6.291-29.11 3.355-51.79 24.962-71.66"/><path fill="#df8139" d="M819.293 1469.8c19.799 18.5 25.662 56.05 11.131 78.61-2.679 4.16-3.322 10.62-8.007 13-12.559-11.75-22.353-34.57-20.639-51.91 1.686-17.07 8.452-26.14 17.515-39.7"/><path fill="#37424f" d="M693.544 1356.24c22.526 33.4 21.542 60.66-2.745 92.77-8.273-12.93-14.149-21.01-16.773-36.51-4.294-25.36 5.26-37.31 19.518-56.26M1298.01 239.007c24.24.256 48.87.154 73 .482 3.21.043 3.25 10.24-.96 9.579-12.33-1.935-25.93 19.788-16.62 26.536.55.452 4.04 2.855 3.88 3.865-.98.921-5.54-.373-5.98 3.626-.14 1.282-.81 3.4-2.29 3.605-5.51.763-11.66.072-17.27.34-4.17-.332-8.87.735-12.77-1.105-2.02-.949-1.44-3.624-2.48-5.176-1.14-1.713-4.47.591-5.23-1.279.65-3.71 11.12-1.367 3.27-19.856-5.98-14.083-26.17-6.323-16.55-20.617m-549.435.469c4.893-.131 23.314-1.163 10.925 9.64-.892.778-11.317 1.758-14.342 6.431-3.962 6.12-4.232 10.385-4.202 17.485.096 3.592 4.677 4.415 4.945 6.337.36-.665-5.436 5.847-6.935 8.32-7.328.331-29.104 3.094-33.008-3.514l-.874-1.357c-.004-.132.134-1.223-.219-1.517-.206-.17-.682-.052-.89.03-.661.26-.957.556-1.619.422-.404-.353-.548-.785-.567-1.329-.025-.742.729-1.438 1.22-1.902 1.475-1.39 3.064-2.593 3.829-4.531 1.661-4.206.384-11.133-1.657-15.032-2.364-4.516-5.431-6.346-10.197-7.814-2.352-.724-5.138-1.414-7.117-2.969-1.209-.951-1.906-2.073-1.974-3.625-.054-1.228.118-2.182.971-3.094 3.04-3.25 53.351-1.829 61.711-1.981"/><path fill="#df8139" d="M778.783 1515.81c2.967 3.08 6.232 9.73 8.061 13.74 12.153 26.71 2.996 58.07-16.239 78.21-7.014-10.27-10.96-18.48-13.52-30.77-5.713-27.42 6.513-40.94 21.698-61.18"/><path fill="#37424f" d="M1142.75 239.372c23.3.492 46.38-.159 69.63-.022 5.32.031 5.32 8.751 1.02 9.342-15 2.064-19.19 8.579-19.52 23.344-.06 2.237 2.64 3.443 4.36 4.844 4.84 5.247-5.28 3.544-6.44 9.575-.15.788-12.3.426-14.3.486-.8.024-12.51.24-14.46-.827-5.82-9.678-13.57-4.071-2.36-13.126 1.08-.87-.57-7.567-1.13-9.585-1.47-5.354-5.91-10.795-11.58-12.199-2.22-.663-7.82-1.754-8.86-4.192-1.74-4.061.13-5.992 3.64-7.64M788.345 1288.63c3.432 3.49 4.734 8.29 7.142 12.49 16.835 29.44 11.477 54.45-8.484 80.55-7.599-8.46-12.937-20.75-15.828-31.69-6.594-24.95 4.577-41.14 17.17-61.35m75.659-1001.771-.612-.961c-1.56-2.501-7.862-7.939-7.88-8.361.491-.422.574-.52 1.167-.898 1.493-.95 3.124-1.723 4.123-3.253 1.556-2.384.578-6.908.001-9.372-3.273-13.971-13.066-10.984-19.611-15.668-1.083-.775-1.977-2.475-2.176-3.784-.194-1.267.271-2.518 1.12-3.462 1.269-1.413 2.978-2.041 4.855-2.068 8.331-.123 67.609-1.19 70.823 2.14.841.871 1.019 2.133.911 3.3-.621 6.681-12.216 4.746-16.393 8.855-4.929 4.849-6.395 14.551-6.494 21.164 7.738 4.889 7.616 4.384.308 8.731-.167 2.416-.131 2.231-1.45 4.331-6.579-.881-21.662-.986-28.692-.694"/><path fill="#444b53" d="M893.838 274.491c7.738 4.889 7.616 4.384.308 8.731a200 200 0 0 0-.308-8.731"/><path fill="#37424f" d="M990.903 239.204c22.117-.519 44.587.464 66.597-.121 10.07-2.765 10.31 11.048 3.54 10.281-12.03-1.363-22.93 18.51-15.66 25.574l1.71 1.64c4.34 1.603-2.51 4.796-4.54 6.628l-3.56 3.215 2.1.141c-6.54 1.272-21.21-.131-28.15-.747-1.45.062-2.87-3.738-3.04-3.833-8.8-4.827-3.92-2.03.14-7.484 2.03-5.67-.58-12.635-2.13-16.934-3.69-10.287-28.605-4.829-17.007-18.36m252.357 978.916c44.49 13.6 56.86 23.63 67.27 69.67-10.05-2.13-23.17-7.02-31.95-12.43-24.87-15.34-28.67-31.35-35.32-57.24m-581.833 77.16c30.181-4.05 38.834 6.86 63.48 16.31-15 8.22-17.022 11.09-33.934 15.23-28.594 2.18-42.231-3.18-66.356-18.96 13.633-7.46 21.012-10.02 36.81-12.58m522.993-77.6c2.18.75 4.95 1.6 7.13 2.01 29.14 5.45 52.47 21.11 58.34 51.82.92 4.82 1.69 10 2.47 14.98-46.84-11.25-49.96-29.75-67.94-68.81"/><path fill="#cb1d20" d="M1100.57 1752.37c-2.88-8.44-3.73-18.83.48-26.84 5.67-10.8 17.5-12.89 27.51-6.64 37.1 23.16-3.5 82.87-29.21 40.35-.91-.81-1.28-.65-2.73-.83-1.29-2.38-1.45-2.99-2.26-5.6 4.21 1.03 4.51 3.28 6.21-.44"/><path fill="#ece6e6" d="M1117.98 1729.44c4.99 2.57 6.13 1.86 8.61 7.9 7.67 18.67-9.4 32.49-26.34 22.42l-.9-.52c-.91-.81-1.28-.65-2.73-.83-1.29-2.38-1.45-2.99-2.26-5.6 4.21 1.03 4.51 3.28 6.21-.44 7.4 8.83 5.96 7.21 16.99 7.75-1.93-1.21-2.35-1.45-4.06-2.92-3.71-3.75-4.06-4.49-6.39-9.3l-.11-4.27c.56-1.72.46-1.67 1.76-2.82 1.17-1.4 2.09-2.48 3.36-3.79-1.13-.36-1.87-.77-2.62-1.71l-.77-.91c3.04-2.6 2.95-2.69 6.93-3.57z"/><path fill="#cb1d20" d="M1108.76 1740.81c10.56 4.16 23.19 8.55 8.8 19.31-1.93-1.21-2.35-1.45-4.06-2.92-3.71-3.75-4.06-4.49-6.39-9.3l-.11-4.27c.56-1.72.46-1.67 1.76-2.82m6.9-9.98c9.04 3.22 13.76 14.17 2.67 11.82-.84-.18-5.05-4.6-6.21-5.63-1.13-.36-1.87-.77-2.62-1.71l-.77-.91c3.04-2.6 2.95-2.69 6.93-3.57"/><path fill="#fdfdfc" d="M1103.6 1748.32c-1.89-11.38-2.16-24.24 12.76-19.38l1.62.5-2.32 1.39c-3.98.88-3.89.97-6.93 3.57l.77.91c.75.94 1.49 1.35 2.62 1.71-1.27 1.31-2.19 2.39-3.36 3.79-1.3 1.15-1.2 1.1-1.76 2.82l.11 4.27z"/><path fill="#cb382b" d="M1107 1743.63c-1.72-2.81.46-6.55 1.73-9.23l.77.91c.75.94 1.49 1.35 2.62 1.71-1.27 1.31-2.19 2.39-3.36 3.79-1.3 1.15-1.2 1.1-1.76 2.82"/><path fill="#ece6e6" d="M1107.11 1747.9c2.33 4.81 2.68 5.55 6.39 9.3-6.13-1.44-6.82-3.4-9.9-8.88z"/><path fill="#df8139" d="M854.527 1421.49c3.366 2.52 4.598 6.8 6.721 10.42 17.429 29.72 16.65 51.04-3.807 78.97-17.336-19.6-26.174-42.03-13.963-67.09 3.626-7.45 7.97-14.68 11.049-22.3m-119.866 138.33c5.16 6.13 10.308 23.33 10.215 31.68-.242 21.77-13.355 39.55-28.192 54.22-7.885.46-9.8-33.86-8.921-40.22 2.863-20.69 13.013-31.47 26.898-45.68"/><path fill="#37424f" d="M649.512 1389.5c6.99 5.4 14.486 26.86 14.735 35.5.509 17.62-9.694 37.85-21.398 50.67-6.143.55-11.824-22.62-12.758-27.67-4.351-23.52 5.434-40.42 19.421-58.5"/><path fill="#df8139" d="M701.147 1490.89c13.592-11.53 29.246-18.41 47.353-17.86 15.215.46 26.284 8.88 39.411 14.13-1.311 1.3-2.651 2.57-4.021 3.8-28.349 24.05-53.217 20.02-82.743-.07m62.933-86.2c28.538-19.48 58.716-18.34 87.642-.12-1.29 1.32-2.497 2.57-3.739 3.94-12.587 10.31-24.616 15.68-40.982 14.69-16.001-.97-31.915-6.6-42.921-18.51m-68.377 107.62c19.292-2.71 36.759 4.19 52.43 14.73-15.008 9.06-15.519 12.86-34.762 17.62-21.23 2.03-37.905-5.56-54.467-18.12 11.959-7.89 22.614-12.12 36.799-14.23"/><path fill="#37424f" d="M1231.22 1318.28c19.01-2.42 32.76.52 49.88 8.15-13.03 13.27-20.61 17.22-38.24 21.3-21.75 2.95-31.39-2.17-51.51-8.71 12.77-12.1 22.41-17.84 39.87-20.74"/><path fill="#df8139" d="m1160.13 1525.69.96.84c21.23 28.39 20.44 56.75-2.89 79.77-11.7-8.67-19.72-36.2-14.79-50.1 3.58-10.09 10.3-21.9 16.72-30.51"/><path fill="#37424f" d="M983.478 1332.14c5.202 13.18 9.303 24.35 7.333 38.85-2.573 18.95-15.449 25.97-29.153 36.25-5.927 2.02-5.587-21.51-6.299-25.7-4.549-26.77 15.104-33.93 28.119-49.4"/><path fill="#cb382b" d="M1122.25 1327.62a23.73 23.73 0 0 1 22.2 8.76c5.29 6.7 6.57 15.73 3.35 23.63a23.72 23.72 0 0 1-18.89 14.59c-12.9 1.69-24.75-7.32-26.57-20.2-1.83-12.87 7.06-24.82 19.91-26.78"/><path fill="#df8139" d="M642.291 1213.64c5.037-.6 11.488-4.69 15.746-2.74-2.01 6.39-3.659 13.55-5.354 20.08-6.357 24.5-26.605 35.1-48.312 43.39 1.488-7.57 2.502-14.79 3.704-22.37 2.727-17.17 19.02-31.78 34.216-38.36"/><path fill="#37424f" d="M1048.33 1272.69c9.32 9.33 22.12 28.88 22.54 42.31a47.4 47.4 0 0 1-12.22 33.38c-5.76 1.26-17.43-20.73-19.28-25.99-6.58-18.78 1.01-33.19 8.96-49.7"/><path fill="#df8139" d="M592.831 1221.93c3.496-1.07 6.637-3.17 8.919-.25-8.412 35.3-17.144 50.76-55.482 57.26.484-2.39 1.028-4.62 1.53-6.96l.985-4.5c5.177-24.56 18.359-37.39 42.378-44.98zm74.373 333.27c19.874-1.34 27.17 1.43 43.655 11.87-13.373 9.52-19.146 13.39-35.017 17.66l-4.212.78c-15.757 2.83-29.038-2.52-41.776-11.35 11.791-10.47 21.894-15.99 37.35-18.96m762.376-118.6 8.35 6.56c19.84 15.41 29.71 34.85 23.72 60.16-.14.6-1.8.66-1.99.68-41.4-15.45-35.97-30.32-30.08-67.4m-875.381-261.24c29.878-3.63 41.131 9.7 51.73 35.54-5.426.16-10.268.32-15.682.73-26.603 2.31-40.325-11.9-51.324-33.96 5.29-.89 9.957-1.61 15.276-2.31"/><path fill="#37424f" d="M662.939 1252.74c30.695.31 60.362 11.89 86.685 26.96 2.671 1.53 10.56 3.73 10.568 6.3-36.119 6.51-73.959-4.12-97.253-33.26"/><path fill="#df8139" d="M1379.94 1397.94c20.04-25.33 35.07-35.78 67.04-24.2-15.78 20.91-21.33 33.55-50.88 27.82l-2.04 3.25c-4.62-1.94-9.99-4.16-14.12-6.87"/><path fill="#f7dbc4" d="M1379.94 1397.94c5.33.8 10.81 2.47 16.16 3.62l-2.04 3.25c-4.62-1.94-9.99-4.16-14.12-6.87"/><path fill="#cb382b" d="M992.531 1402.42a21.03 21.03 0 0 1 20.359 6.55 21 21 0 0 1 4.08 20.98 21.02 21.02 0 0 1-16.41 13.71c-11.211 1.83-21.851-5.57-24.023-16.73-2.171-11.15 4.913-22.01 15.994-24.51"/><path fill="#df8139" d="M1192.6 1493.26c13.47-.69 22.75 3.87 34.01 10.52-9.53 9.55-15.58 15.93-29 19.54-21.17-.4-21.79-3.07-38.24-14.85 12.33-9.53 17.66-12.73 33.23-15.21"/><path fill="#cb1d20" d="M1090.84 1762.36c-12.92-11.75-12.01-22.51-11.07-38.86-.14-4.92 1.61-13.53 4.76-17.43 8.87-10.97 34.9-13.91 44.82-2.69 1.34 1.51 3.73 4.66 3.57 6.72-1.68 2.1-7.01-3.53-11.36-2.71-13.91 2.64-24.86 14.34-28.04 27.97-1.53 6.58.09 11.14.84 17.45.81 2.61.97 3.22 2.26 5.6l-.36 2.42c-2.93.35-2.82.36-5.42 1.53"/><path fill="#df8139" d="M1170.57 1460.35c11.13-.41 19.12.89 29.68 3.67-11.36 11.65-18.27 20.87-34.43 25.04-13.47-.15-20.25-1.04-32.86-5.85 14.18-15.78 16.39-20.45 37.61-22.86m196.5-58c21.73 7.06 35.16 13.13 41.64 36.67 1.52 5.58 2.94 11.19 4.25 16.83-17.84-5.22-33.9-15.46-40.35-34.24-2.18-6.34-3.36-12.77-5.54-19.26"/><path fill="#37424f" d="M842.415 1284.14c14.701-1.03 21.837 2.25 34.834 8.74-6.064 4.99-13.992 12.09-21.753 14.06l-4.841 1.24c-15.472 1.17-23.391-1.54-37.646-7.68 9.541-9.97 15.578-13.57 29.406-16.36m325.895 4.03c14.83-1.24 20.45 1.22 33.82 7.48-8.64 8.06-14.65 12.09-26.09 15.26-13.59 1.33-20.49-.6-32.94-6.16l-1.85-.78c11.42-10.31 11.23-12.57 27.06-15.8m-54.62 91.71c33.71 1.11 33.31 4.77 47.8 34.51l.46.92c-2.65-.04-5.3-.14-7.95-.29-27.23-1.73-27.91-20.94-40.31-35.14m-140.962 64.58c16.453-.74 27.642 12.79 34.892 25.89-5.2 1.41-8.837 2.21-14.259 2.88-18.335-3.61-27.394-11.19-36.764-27.04 6.334-.92 9.728-1.24 16.131-1.73"/><path fill="#df8139" d="M1120.88 1513.71c27.86 3.98 7.64 59.52-6.61 37.68-5.71-8.76-6.38-26.6.01-35.7 3.25-.47 3.93-.34 6.6-1.98"/><path fill="#cb1d20" d="M1090.84 1762.36c2.6-1.17 2.49-1.18 5.42-1.53l1.41 5.25c8.18 8.25 12.03 10.18 22.88 13.32 5.62-1.32 10.87-2.43 15.89-5.49 1.06-.22 4.97-4.5 5.91-3.73 3.36 2.78 3.74 13.19 1.63 16.25-6.62 9.58-18.85 6.08-28.42 6.71-1.8.12-4.19 6.96-4.64 7.95-6.38-17.11-11.81-22.64-19.35-37.61z"/><path fill="#ece6e6" d="M1090.84 1762.36c2.6-1.17 2.49-1.18 5.42-1.53l1.41 5.25-.39-.22c-1.42-.81-2.74-1.52-4.33-1.96l-1.38-.42z"/><path fill="#cb1d20" d="M1092.69 1689.53c.54-.11 1.45-.47 1.89.03-.14 1.08-4.91 3.89-5.96 4.72-6.83 5.48-10.09 14.35-11.6 22.72-1.68 9.31-.59 17.94.23 27.21-1.66-2.4-3.66-5.17-5.19-7.59-6.37-9.9-10.14-18.42-12.07-30.13-2.93-17.72 21.63-16.02 32.7-16.96"/><path fill="#37424f" d="M988.512 1315.02c27.598-.65 38.628 5.92 42.558 33.34-9.77-2.17-24.31-6.9-28.54-16.42-4.852-10.91-3.688-9.73-14.018-16.92m-61.215-156.9c19.284-.68 31.718 2.73 35.436 24.41-15.224 1.9-27.276-7.81-33.776-21.01z"/><path fill="#444b53" d="M997.024 1297.56c.436 2.66.473 3.27.573 5.95-.736.35-1.476.68-2.22 1.01-6.069 2.7-10.263 5.27-16.816 8.03 5.164-3.94 16.359-10.06 18.463-14.99"/><path fill="#37424f" d="M886.147 581.652c5.413.365 5.153.132 3.71 5.078-3.657-.369-3.303-1.458-3.71-5.078"/><metadata><recraft-signature>{&quot;signed_by&quot;: &quot;recraft&quot;, &quot;signature_b64&quot;: &quot;QqsQHhCiOvz2ZTsJwPFHyzuvs9Eu96UCKVasWk2rZs7FlpYF1LNd0lejrUZY/P1uPKzdxnoDJ+g4DxAnfCfYAw==&quot;, &quot;signing_algo&quot;: &quot;Ed25519&quot;, &quot;generation_timestamp&quot;: 1777252171, &quot;identifier&quot;: &quot;d76ce30b-6d4b-41ee-824d-ebc04394331d&quot;}</recraft-signature></metadata></svg>