<svg xmlns="http://www.w3.org/2000/svg" width="1024" height="1024" preserveAspectRatio="none" style="display:block" viewBox="0 0 2048 2048"><defs><linearGradient id="a" x1="978.096" x2="945.643" y1="1483" y2="1465.19" gradientUnits="userSpaceOnUse"><stop class="stop0" offset="0" stop-color="#ce7944"/><stop class="stop1" offset="1" stop-color="#c48c4f"/></linearGradient></defs><path fill="#192e3d" d="M826.602 1000.87c98.012-18.791 222.218-17.289 322.388-9.907 25.67 1.892 49.14 6.411 74.2 10.027 45.28 8.28 93.73 21.62 135.89 39.93 17.49 7.59 68 33.96 78.23 48.33.39 7.16 15.83 16.27 15.04 20.3l-.11.03c-3.9-2.34-2.06-4.39-7.57-4.82 5.71 6.46 13.52 13.13 15.72 21.59l.31 1.15c-1.12 5.6-1.07 15.25-.03 21.02.22 1.23 5.09 1.39 5.87 1.47h4.77c.84 26.4-5.55 41.4-24.36 60.03-3.71 3.68-5.42 5.52-7.83 10.18-2.12 20.67-1.5 21.3-1.13 41.2-.88-.28-1.71-.55-2.59-.67.49 5.2.08 13.45-.53 18.57-1.1 11.87 1 24.48-1.95 36.69-3.09 12.74-5.69 14.59-17.59 10.89l-.39-1.39c-6.04-22.34 10.15-52.99 4.01-77.29-4.75-18.8-22.35-9.42-26.96 3.15-11.04 34.06-6.15 73.24-.9 108.07-.6 10.57 1.01 21.8-1.18 32.07-2.91 13.59-4.04 22.74-19.33 20.56-19.87-18 15.29-115.94-5.85-146.45-2-2.89-4.73-5.01-8.26-5.56-7.9-1.25-15.38 4.23-21.37 8.65l.12 1.5c.68 8.38 2.42 17.12 1.95 25.66-1.39 24.98-23.3 53.4-40.44 70.55-4.1 2.36-10.72 9.24-14.22 12.71-18.33 18.14-31.13 24.6-57.18 22.41-1.22 6.33-3.02 17.37-4.77 23.22.6 1.31 1.22 2.62 1.85 3.92-1.77 4.24-2.92 8.29-4.32 12.62l-2.02-1.28c-6.84 15.96-13.07 47.63-23.9 60.44-30.02 35.12-67.04 67.23-104.22 94.48-3.72 2.72 3.31 17.78-22.09 19.84-15.12 1.23 7.05 44.71-9.32 50.22-13.27-2.7 3.28-44.43-7.64-56.28-1.8-1.95-4.7-3.48-7.46-3.4-2.87.08-4.61 1.03-6.56 3.06-18.34 19.09-1.49 64.97-2.78 86.61-.25 4.23-1.32 9.26-5.04 11.84-1.93 1.34-4.58 1.82-6.87 1.31-18.03-3.99 8.98-74.66-5.42-97.71-1.7-2.74-3.41-3.89-6.49-4.63-17.734 5.34-5.94 39.58-13.37 51.91-3.041 1.88-1.4 1.53-5.141.78-10.279-8.06 2.643-32.43-1.962-49.82-2.562-17.11-23.955-13.72-35.242-23.23-26.272-22.16-68.067-54.96-89.971-80-15.465-17.67-31.053-79.42-35.36-103.38-24.449.92-31.226-4.27-50.142-19.1l-2.252 2.16c-1.918-2.61-2.986-4.14-4.608-6.95-2.588-1.52-14.662-16.06-17.865-19.54-25.538-27.68-34.504-46.61-34.309-83.77-2.807-2.24-5.781-5.02-9.375-5.84-2.413-.56-4.992.19-6.835 1.8-15.817 13.84 6.086 137.13.864 165.74-1.213 6.64-3.744 14.47-9.782 18.29-3.276 2.07-7.594 2.59-11.331 1.67-26.129-6.47-7.073-91.77-5.171-112.81 2.3-25.43 3.564-73.52-10.652-94.9-2.561-3.85-6.401-7.57-11.228-8.07-3.132-.32-6.064.91-8.243 3.11-6.436 6.51-5.382 16.72-5.171 25.06-.355 11.13.511 21.06-2.236 32.1-3.201 12.87-4.57 13.53-16.739 14.67-16.983-17.47 5.221-60.83-2.558-83.07-4.016-11.49-21.106-22.97-29.095-36.65-12.36-21.16-15.359-35.17-10.135-58.86 1.046-3.63 1.23-5.77 2.9-9.43 5.291-14.39 22.386-34.71 34.636-43.34 5.678-6.28 22.235-15.64 29.922-20.27 57.127-34.43 114.235-49.7 178.773-63.17"/><path fill="#c98f57" d="M1205.15 1102.98c19.31 4.54 26.02 6.49 43.27 16.65.81 60.17-6.06 87.17-16.21 146.87 7.63-8.69 14.59-17.13 23.84-24.17 35.08-26.73 67.8-15.71 79.05 26.36l.12 1.5c.68 8.38 2.42 17.12 1.95 25.66-1.39 24.98-23.3 53.4-40.44 70.55-4.1 2.36-10.72 9.24-14.22 12.71-18.33 18.14-31.13 24.6-57.18 22.41-1.22 6.33-3.02 17.37-4.77 23.22.6 1.31 1.22 2.62 1.85 3.92-1.77 4.24-2.92 8.29-4.32 12.62l-2.02-1.28c-6.84 15.96-13.07 47.63-23.9 60.44-30.02 35.12-67.04 67.23-104.22 94.48-3.72 2.72 3.31 17.78-22.09 19.84-15.12 1.23 7.05 44.71-9.32 50.22-13.27-2.7 3.28-44.43-7.64-56.28-1.8-1.95-4.7-3.48-7.46-3.4-2.87.08-4.61 1.03-6.56 3.06-18.34 19.09-1.49 64.97-2.78 86.61-.25 4.23-1.32 9.26-5.04 11.84-1.93 1.34-4.58 1.82-6.87 1.31-18.03-3.99 8.98-74.66-5.42-97.71-1.7-2.74-3.41-3.89-6.49-4.63-17.734 5.34-5.94 39.58-13.37 51.91-3.041 1.88-1.4 1.53-5.141.78-10.279-8.06 2.643-32.43-1.962-49.82-2.562-17.11-23.955-13.72-35.242-23.23-26.272-22.16-68.067-54.96-89.971-80-15.465-17.67-31.053-79.42-35.36-103.38-24.449.92-31.226-4.27-50.142-19.1l-2.252 2.16c-1.918-2.61-2.986-4.14-4.608-6.95-2.588-1.52-14.662-16.06-17.865-19.54-25.538-27.68-34.504-46.61-34.309-83.77 6.455-14.81 5.756-25 19.188-36.67 28.647-24.89 60.655-.91 80.409 21.24-1.82-13.08-5.436-27.77-7.49-41.34a583.6 583.6 0 0 1-7.124-98.44c17.04-9.36 23.258-12.19 42.265-15.7-9.516 28.63-17.895 66.54-20.674 96.43l3.44-1.23c30.392-61.29 91.366-63.59 147.323-35.88 8.687 4.31 24.078 12.86 26.925 22.55 1.05 3.45.47 7.2-1.58 10.18-9.205 13.62-41.041-2.52-53.281-5.87-32.438-8.86-63.645.69-92.931 14.99-10.798 5.21-24.471 12.46-33.617 20.14.76 17.45-2.71 28.74 11.723 41.01 21.04 17.89 52.068 27.93 79.543 26.55 15.833-.78 30.88-6.13 45.476-10.97-20.91 16.52-32.72 22.69-59.653 23.63 17.68 5.16 34.289 3.61 50.505-5.44a82.5 82.5 0 0 0 11.571-7.83l1.85 1.51c-17.278 17.53-34.718 34.99-52.557 51.97-6.508 6.2-13.554 12.51-22.044 15.87-31.963 11.83-44.759-14.21-51.738-39.17-2.855.34-1.467 15.33-1.681 18.8 2.153 34.3 3.803 53.36 38.73 67.7.005 32.1-2.509 77.11 17.68 103.71l1.861-.88c-2.873-6.48-6.242-27.51-2.118-33.13 1.504 1.85 1.655 15.89 4.194 21.1 11.54 23.69 58.662 68.69 86.345 64.57 2.154 2.42 3.788 3.89 6.215 6.01 3.165-1.87 9.256-5.39 11.993-7.58 46.374-23.42 71.534 22.28 114.914-15.53 26.96-23.5 46.37-32.19 47.82-73.75 3.46 14.75 4.8 24.32-2.7 38.31l1.88 1.27c22.51-25.82 17.83-71.99 18.86-104.01 30.88-12.32 35.52-29.88 37.53-60.49-.23-7.21 1.33-24-1.57-29.28-4.38 19.54-13.84 45.21-37.49 45.86-6.79.23-13.5-1.45-19.38-4.84-10.56-6.15-56.42-53.27-67.7-64.02l.98-2.96c22.99 14.28 35.91 17.06 62.2 12.31-30.16-.02-41.26-6.51-62.73-26.32 39.08 20.36 89.46 18.63 124.19-11.13 15.52-13.3 14.68-22.45 15.68-41.28-24.79-23.41-73.48-41.81-107.99-39.32-6.71.36-11.36 1.48-18.05 2.74-12.47 2.36-45.27 19.35-54 4.53-7.04-11.95 14-25.81 23.49-31.06 27.59-15.3 63.8-22.29 94.73-13.78 26.55 7.32 40.54 24.1 53.23 47.28 2.34-1.6 2.32-1.41 3.58-3.79a517.4 517.4 0 0 0-21.13-90.43"/><path fill="#6d573f" d="m1215.54 1319.19.23-1.45c.18-1.24.46-4.09 1.67-4.82 1.42 1.2.42 31.79-.33 35.55-.23-7.21 1.33-24-1.57-29.28"/><path fill="#333431" d="M1220.56 1424.74c.6 1.31 1.22 2.62 1.85 3.92-1.77 4.24-2.92 8.29-4.32 12.62l-2.02-1.28c1.68-5.42 3.31-9.64 4.49-15.26"/><path fill="#4c3e2f" d="M833.906 1341.17c-.578-3.22-1.976-23.83-.141-25.47 1.521 0 1.561 5.3 1.822 6.67-2.855.34-1.467 15.33-1.681 18.8"/><path fill="#333431" d="M1226.28 1193.41c.62 5.7 1.27 10.32 2.23 16.02-1.9-3.99-4.31-8.05-5.81-12.23 2.34-1.6 2.32-1.41 3.58-3.79"/><path fill="#4c3e2f" d="m824.632 1200.36 3.44-1.23q-.56 1.425-1.159 2.85c-1.855 4.34-3.316 8.77-5.117 13.18.513-2.91 1.843-12.48 2.836-14.8m334.208 311.34 1.88 1.27c-.68.7-6.07 6.74-6.99 5.51.04-1.02 1.47-2.29 1.95-2.86z"/><path fill="#333431" d="M770.232 1378.15c2.918 1.74 4.148 2.71 6.86 4.79l-2.252 2.16c-1.918-2.61-2.986-4.14-4.608-6.95"/><path fill="#6d573f" d="M892.177 1511.7c1.247 2.07 2.676 4.03 3.912 6.11h.03c.267.63.472.8.316 1.31-.24.11-.086.08-.499-.01l.067-.23c-1.957-1.22-4.181-4.43-5.687-6.3z"/><path fill="#192e3d" d="M1252.21 1286.52c4.93-16.29 12.19-35.34 27.96-43.86 15.95-8.61 33.39.05 40.53 15.65 5.96 13.03 4.76 25.12 1.76 38.48-.17.93-.22 1.95-.58 2.84-.21.28-.42.57-.64.86-1.88-.33-1.14-11.54-1.15-12.85-.44-4.63-.74-9.76-2.01-14.21-8.77-30.64-36.65-30.33-46.43-.31 15.44-.54 34.95-4.04 35.27 18.45.13 9.11-3.05 17.39-6.42 25.75-19.78 41.65-15.17 57.08-65.2 58.96-2.83 4.47-5.9 9.52-8.88 13.82 2.43-20.18 4.76-40.37 6.97-60.58 25.13-8.76 25.72-20.08 18.82-43"/><path fill="#6d573f" d="M1320.09 1287.64c.88 3.45.76 6.06 2.37 9.15-.17.93-.22 1.95-.58 2.84-.21.28-.42.57-.64.86-1.88-.33-1.14-11.54-1.15-12.85"/><path fill="#192e3d" d="M733.42 1293.78c-1.944-15.11-3.057-29.45 6.651-42.51 10.601-14.26 27.078-15.47 40.49-4.32 12.433 10.34 16.951 26.49 22.467 41.09-6.02 16.76-8.392 31.45 12.037 38.96q1.836.66 3.704 1.23c.481 15.59 2.654 30.57 4.795 45.99-.939 2.05-.795 2.05-2.473 3.49-16.155-4.15-31.175 2.41-42.971-13.76-10.149-14.18-17.66-31.41-23.944-47.71-11.991-31.09-8.475-48.38 28.226-40.65-2.031-9.81-8.008-23.58-18.663-24.91-20.016-2.49-25.656 20.61-28.188 33.94.397 5.1.452 10.86.71 16.09l-1.192.83c-.53-1.97-.962-3.91-1.31-5.92z"/><path fill="#4c3e2f" d="M733.42 1293.78c1.914-3.48 1.189-5.27 2.131-9.16.397 5.1.452 10.86.71 16.09l-1.192.83c-.53-1.97-.962-3.91-1.31-5.92z"/><path fill="#333431" d="M823.564 1374.22c1.218 4.88 1.579 16.12 1.832 21.28-1.13-3.79-4.558-14.39-4.305-17.79 1.678-1.44 1.534-1.44 2.473-3.49"/><path fill="#8c6f51" d="M736.261 1300.71c.508 1.12.918 1.66.502 2.81-.211.18-.08.12-.406.15-.782-.44-.912-1.26-1.288-2.13z"/><path fill="#c98f57" d="M826.602 1000.87c98.012-18.791 222.218-17.289 322.388-9.907 25.67 1.892 49.14 6.411 74.2 10.027 45.28 8.28 93.73 21.62 135.89 39.93 17.49 7.59 68 33.96 78.23 48.33.39 7.16 15.83 16.27 15.04 20.3l-.11.03c-3.9-2.34-2.06-4.39-7.57-4.82.03 5.91 1.37 22.6-1.87 26.3l-1.7-.46c-3.2-4.86-1.26-23.1-1.26-30.58-5.63-5.5-11.49-9.65-17.96-14.06.19 6.33 1.82 24.11-1.83 28.15-3.18-.34-1.98.39-4.02-1.51-.64-6.76.01-23.02-.06-30.96-5.87-3.7-11.82-6.66-17.98-9.84.01 7.89.3 23.71-2.11 30.56-4.36-5.89-2.61-23.16-5.69-32.77-53.09.3-.71 116.53-29.48 127.41a11.09 11.09 0 0 1-9.28-.66c-5.36-2.9-9.08-11.31-8.53-16.78 3.5-33.34 13.77-66.11 5.07-99.67-3.3-12.72-15.03-26.67-28.66-20.62-23.21 10.29-1.64 52.31-11.81 69.79-.87 1.5-2.48 3.6-4.38 3.77-17.2.22-17.63-12.29-15.79-25.83 4.09-30.22 14.64-62.77-17.39-81.31.41 8.69 1.77 27.42-1.59 34.85l-1.17-.67c-3.34-9.69-2.34-25.01-2.26-35.64-5.16-1.7-12.31-3.4-17.72-4.83.17 7.98 1.25 24.12-2.24 30.62l-1.41-.35c-3.25-7.84-1.98-22.56-1.7-31.45-5.11-1.45-11.99-2.8-17.31-3.99.19 7.18 1.97 27.9-1.91 32.35h-1.95c-3.1-3.98-2.12-26.81-2.19-33.91l-19.35-3.97c.1 9.23.92 23.75-2.04 32.02l-1.27.11c-3.29-8.35-2.57-23.18-2.54-32.52-6.15-1.18-14.19-1.96-20.54-2.74-.14 8.62.82 24.41-2.7 31.58l-1.32-.21c-3.41-8.51-2.4-22.79-2.25-32.3l-25.61-2.97c.04 7.81 1.15 25.72-2.38 32.12l-1.33-.38c-3.32-8.48-2.22-22.74-2.01-32.23-8.15-.58-16.99-1.597-25.18-2.377.05 7.997 1.12 26.247-2.51 32.787l-1.31-.33c-3.24-8.25-2.2-22.91-2.04-32.218-7.65-.912-16.55-1.376-24.31-1.965-.09 8.823 1.04 25.293-2.45 32.723l-1.27-.04c-3.36-7.86-2.24-23.63-2.08-32.718l-23.95-.735c.22 9.563 1.15 22.513-1.65 31.343l-1.23.29c-3.14-7.26-2.16-23.27-2.05-31.787-7.61-.015-15.84-.205-23.36.42.04 8.357 1.14 24.947-2.3 31.957l-1.22-.3c-3.18-8.27-2.14-22.92-1.97-32.226l-22.575.396c-.08 9.58.356 23.53-2.29 32.31l-1.24.61c-3.059-7.21-2.117-23.96-2.016-32.391-7.49-.019-15.044.397-22.532.733.066 8.688 1.301 26.148-2.093 33.448l-1.291-.25c-3.24-8.44-2.278-23.5-2.154-32.951a639 639 0 0 1-22.136 1.193c.131 8.518 1.419 26.338-2.321 33.278l-1.323-.3c-3.379-7.97-2.521-23.17-2.491-32.319-6.864.449-14.282 1.419-21.171 2.199.131 8.16 1.419 27.51-2.675 33.27l-1.459-.55c-3.487-8.14-2.384-22.75-2.209-32.02-7.421.3-14.787 1.58-22.135 2.69.188 9.55 1.315 25.65-2.054 33.94l-1.183-.15c-3.239-8.13-2.36-24.14-2.328-33.45-6.758 1.15-13.602 1.98-20.401 2.87.087 9.93 1.047 25.27-2.251 34.19l-1.257.15c-3.247-7.75-2.34-24.31-2.282-33.25l-19.172 3.39c.231 8.47 1.705 27.92-2.491 34.09l-1.342-.67c-3.48-8.88-2.52-22.34-2.429-32.19-6.255.69-12.6 2.11-18.791 3.34.257 9.96 1.276 22.18-1.974 31.43l-1.296.41c-3.504-6.59-2.763-22.54-2.791-30.62l-22.446 5.82c.202 8.84 1.665 29.59-2.266 36.45l-1.38-.34c-3.474-9.09-2.189-24.95-1.949-35.11-44.59 13.53-15.322 60.6-22.844 91.34-.448 1.8-2.705 5.03-4.637 5.35-34.112 5.59-4.062-52.74-13.906-69.96-3.027-5.29-2.76-5.78-7.584-7.84-3.471-1.48-8.041-1.79-11.362-.1-30.521 22.79 10.788 114.33-1.558 148.01-1.43 3.67-4.575 8-8.603 8.97-7.155 1.96-15.252-3.84-15.333-11.26-.212-19.35 16.495-127-1.031-134.87-3.682.2-5.286 1.9-8.307 4.1-.044 8.39.674 23.06-3.096 30.1l-1.181-.09c-2.732-6.75-1.958-19.94-1.84-27.65-4.39 2.33-10.4 5.72-14.789 7.64-3.016 1.25-4.307 2.08-7.02 3.82-6.494 3.95-12.274 7.26-18.196 12.05.094 5.62.778 25.61.046 30.06l-1.875 1.21c-1.224-.28-2.245-.13-2.454-1.22-1.494-7.75.503-17.75-.928-25.76-2.741-.01-4.76 1.72-7.196 3.24-6.687-2.91-2.789-2.7-.475-8.48 5.678-6.28 22.235-15.64 29.922-20.27 57.127-34.43 114.235-49.7 178.773-63.17m163.963 462.5c15.155-.99 19.025 2.74 33.425 3.85 6.63.51 17.4-4.2 23.85-4.05 19.99.44 44.26 3.13 64.15 5.83-11.32 10.64-35.34 22.47-50.33 20.86-28.71-3.09-46.12-6.03-75.393 1.88-2.563-4-2.006-5.29-2.721-9.97 1.895-8.14 2.935-11.27 7.019-18.4"/><path fill="#e20e16" d="M979.976 1483.34c1.184-.54 2.374-1.06 3.57-1.57.715 4.68.158 5.97 2.721 9.97 3.173 9.68 1.855 25.09 4.842 32.25 8.427 20.18 8.72 17.34 7.697 38.68-2.737 2.19-8.828 5.71-11.993 7.58-2.427-2.12-4.061-3.59-6.215-6.01-6.569-10.4-7.932-11.66-3.439-24.38 2.002-5.67 4.073-12.61 5.747-18.37 1.852-6.39 4.404-26.73-.758-31.17-.684-2.35-1.198-4.73-2.172-6.98"/><path fill="url(#a)" d="M938.099 1469.51c9.309-.96 18.069-2.14 27.291-3.68 4.743 7.81 7.854 11.22 14.586 17.51.974 2.25 1.488 4.63 2.172 6.98-18.927-5.09-27.38-10.41-44.049-20.81"/><path fill="#c38a55" d="M583.271 1127.65c5.291-14.39 22.386-34.71 34.636-43.34-2.314 5.78-6.212 5.57.475 8.48l-.949-.13c-7.799-.4-19.351 11.8-20.692 18.5l-.422 2c-.668 1.51-4.838 6.89-6.011 8-.278 3.87 1.982 36.6-6.745 28.7-1.769-1.6 1.464-11.53-3.192-12.78 1.046-3.63 1.23-5.77 2.9-9.43"/><path fill="#e20e16" d="M965.39 1465.83c7.593-1.83 17.414-3.26 25.175-2.46-4.084 7.13-5.124 10.26-7.019 18.4-1.196.51-2.386 1.03-3.57 1.57-6.732-6.29-9.843-9.7-14.586-17.51"/><path fill="#c98f57" d="m596.319 1113.16.422-2c1.341-6.7 12.893-18.9 20.692-18.5-2.025 2.23-5.156 4.48-7.606 6.64.11 4.64 1.971 30.91-.875 33.59-.368.34-1.199 1.08-1.755 1.13-1.204.13-2.018-.76-2.714-1.6-2.271-2.72 1.53-23.87-1.972-24.23-1.706-.17-5.03 3.9-6.192 4.97"/><path fill="#c38a55" d="M648.985 1073.21c2.713-1.74 4.004-2.57 7.02-3.82-.026 4.81 2.617 39.04-6.148 30.68-1.352-1.29-.869-23.71-.872-26.86m785.885 206.09c-1.48-11.23-1.89-32.6-1.68-44.29.06-3.75 3.85-11.4 5.93-14.81-2.12 20.67-1.5 21.3-1.13 41.2-.88-.28-1.71-.55-2.59-.67.49 5.2.08 13.45-.53 18.57"/><path fill="#8c6f51" d="M1079.4 1284.11c4.66 3.22 8.18 5.33 12.55 9.12l-.98 2.96c-4.29-3.98-7.64-7.75-11.57-12.08"/><path fill="#6d573f" d="M973.843 1280.84c-3.889 4.4-7.555 8.92-11.917 12.86l-1.85-1.51c4.984-4.57 8.477-7.34 13.767-11.35"/><path fill="#c98f57" d="m1008.72 1332.84 9.14-59.85c1.2-8.32 2.78-33.52 7.4-38.96l1.64.09c4.53 5.36 12.75 79.4 14.46 92.66 2.19-4.04 1.16-11.3 1.75-17.27.19-7.47-.96-19.91-1.42-27.72.95-6.27-1.8-5.89 1.93-11.34 3.66 25.58 7.72 51.1 12.16 76.55 8.51.36 17.42 1.42 22.79 8.57 11.43 15.24.5 24.23-11.54 30.44-5.14-3.81-7.05-5.64-13.54-6.99-4.78.84-7.93.45-12.41 1.93-16.18 13.1-27.25-2.48-44.908-.33-4.83.59-9.404 3.51-13.657 5.87-29.313-18.29-11.973-31.18 10.773-41.1 4.533-6.56 14.042-67.74 15.072-79.23l2.06 3.51c-1.67 17.42-3.34 45.44-3.57 63.06z"/><path fill="#192e3d" d="M1039.12 1378.61c-.49-5.04.23-3.79 2.66-7.81 5.24-8.66 27.13-5.22 26.06 4.32-.84.76-2.77-.79-3.85-1.19-6.44-2.34-14.36.72-20.24 3.35-1.64.7-2.9.92-4.63 1.33"/><path fill="#4c3e2f" d="M1043.11 1309.51c1.27 8.88.89 24.08.77 33.18-.93-5.15-2-10.75-2.52-15.91 2.19-4.04 1.16-11.3 1.75-17.27"/><path fill="#c38a55" d="M1043.75 1377.28c4.37 2.07 5.35.73 9.74 1.74-4.78.84-7.93.45-12.41 1.93-.58-1.13-.92-1.3-1.96-2.34 1.73-.41 2.99-.63 4.63-1.33"/><path fill="#4c3e2f" d="m1006.85 1332.73 1.87.11c-1.79 10.78-3.31 7.41-1.87-.11"/><path fill="#192e3d" d="M991.115 1364.97c19.265.6 31.225 19.24 10.115 10.57-2.341-1.04-4.622-2.19-6.986-3.18l-1.677-.72c-17.08 9.5-10.771-.39-1.452-6.67"/><path fill="#c98f57" d="M1128.55 1219.22c34.88-1.84 50.89 10.57 77.06 32.73-14.16 14.45-33.03 22.06-52.62 25.79-33.23 4.64-52.88-5.05-79.41-23.55 16.51-18.68 30.16-30.38 54.97-34.97m-227.402-.03c33.356-2.87 54.147 9.9 76.297 34.21-16.606 14.45-32.803 20.62-54.18 24.43-27.025 3.49-57.508-6.32-76.623-25.93 20.828-16.72 27.937-25.82 54.506-32.71m124.262 218.82c6.41-2.3 14.05-5.35 20.64-6.41 15.61 4.18 44.88 20.91 59.33 29.77-15.57-4.12-40.71-19.86-56.83-17.84-16.5 2.07-24.23 10.21-43.11 1.55-8.127-3.31-33.254 7.4-42.991 11.25l-1.235-2.18c12.312-8.27 31.163-19.1 45.756-22.26 7.59 1.78 11.15 3.2 18.44 6.12"/><path fill="#8c6f51" d="M1041.69 1281.79c-.95-1.93-1.51-30.11-.83-30.98h.37c.83 1.74 2.24 17.06 2.39 19.64-3.73 5.45-.98 5.07-1.93 11.34"/><path fill="#5c5954" d="M1008.36 1266.16c.61-4.23 1.4-8.46 1.75-12.7.04-.53.24-2.84 1.15-2.68l.23.23c.25 4.31-.31 14.72-1.07 18.66z"/><path fill="#8c6f51" d="M950.346 1462.25c3.496-2.86 7.146-5.53 10.868-8.1l1.235 2.18c-3.867 2.12-8.101 4-12.103 5.92"/><path fill="#192e3d" d="M777.092 1382.94c18.916 14.83 25.693 20.02 50.142 19.1 4.307 23.96 19.895 85.71 35.36 103.38 21.904 25.04 63.699 57.84 89.971 80 11.287 9.51 32.68 6.12 35.242 23.23 4.605 17.39-8.317 41.76 1.962 49.82 3.741.75 2.1 1.1 5.141-.78 7.43-12.33-4.364-46.57 13.37-51.91 3.08.74 4.79 1.89 6.49 4.63 14.4 23.05-12.61 93.72 5.42 97.71 2.29.51 4.94.03 6.87-1.31 3.72-2.58 4.79-7.61 5.04-11.84 1.29-21.64-15.56-67.52 2.78-86.61 1.95-2.03 3.69-2.98 6.56-3.06 2.76-.08 5.66 1.45 7.46 3.4 10.92 11.85-5.63 53.58 7.64 56.28 16.37-5.51-5.8-48.99 9.32-50.22 25.4-2.06 18.37-17.12 22.09-19.84 37.18-27.25 74.2-59.36 104.22-94.48 10.83-12.81 17.06-44.48 23.9-60.44l2.02 1.28c-5.03 17.87-7.31 34.34-10.18 52.65-.21 23.77-.6 36.62 1.52 60.81-1.37 1.11-1.03-.13-2.32.34-1.07 1.59.44 4.46-.4 7.72.27 13.24 1.05 27.18-1.84 40.18-2.72 12.22-3.69 17.99-16.31 17.53-13.3-23.98 14.34-80.24-3.39-91.62-3.03.11-4.74.81-6.82 3.1-17.22 18.92-14.88 101.83-12.52 128.19 2.25 25.04 5.63 51.5 12.45 75.72l.88 1.02c40.63-15.11 42.7 23.46 63.2 45.47 9.52 10.22 31.6 14.94 37.12 20.25-4.47 2.97-132.94 1.06-151.23 1.44l-1.84-3.06c-2.33 1.14-3.15 1.48-5.3 2.92-6.92.44-12.09.25-19.04-.01-19.4.16-38.81.2-58.22.12-3.11 1.97-4.32 1.97-5.68 4.75-3.52.1-21.02 8.83-26.81 10.46-10.7 3.01-21.651 2.67-32.049-1.89-3.464-1.52-8.97-5.92-12.833-7.93l-1.32-.67-2.192-2.56c-6.231-2.7-73.112-1.38-85.822-1.55l-.957-.18c-32.346 3.52-74.018-.58-106.147.29l.104-.59c-1.47-.32-2.937-.66-4.401-1.01 2.586-1.81 13.425-6.69 16.668-8.23 18.534-8.84 27.318-15.23 39.837-30.97 7.453-14.91 18.702-18.3 31.041-25.56-12.547-17.57-1.195-33.64 18.789-35.43 4.144-24.24 8.813-45.39 9.898-72.98.644-16.37-1.476-117.82-28.538-118.03-21.928-.18-12.552 54.49-10.527 70.91-2.684 15.95 6.843 63.03-21.217 55.02-4.531-11.11-3.79-20.02-2.861-31.69 2.479-31.17 5.409-62.2 5.513-93.5a443.3 443.3 0 0 0-6.429-72.57c-1.281-7.41-5.456-27.73-16.207-25.07-9.9 9.69 3.295 42.52-9.134 53.73-3.585 1.05-3.322 1.02-7.016.41-13.313-9.07 1.466-37.08-.623-53.2-1.847-14.26-2.781-18.24-10.097-30.91z"/><path fill="#c98f57" d="M837.752 1785.96c18.432-7.04 36.17-17.34 55.603-21.39 71.259-14.84 79.529 41.43 132.705 30.75 43.31-8.69 58-61.05 102.39-68.46 16.74-2.8 33.23.65 47.15 10.45l2.68-1.41.88 1.02c40.63-15.11 42.7 23.46 63.2 45.47 9.52 10.22 31.6 14.94 37.12 20.25-4.47 2.97-132.94 1.06-151.23 1.44l-1.84-3.06c-2.33 1.14-3.15 1.48-5.3 2.92-6.92.44-12.09.25-19.04-.01-19.4.16-38.81.2-58.22.12-3.11 1.97-4.32 1.97-5.68 4.75-3.52.1-21.02 8.83-26.81 10.46-10.7 3.01-21.651 2.67-32.049-1.89-3.464-1.52-8.97-5.92-12.833-7.93l-1.32-.67-2.192-2.56c-6.231-2.7-73.112-1.38-85.822-1.55l-.957-.18c-32.346 3.52-74.018-.58-106.147.29l.104-.59c61.59-.65 79.704-9.07 133.849-31.43l.101-2.41c-12.631 2.81-25.733 6.78-38.246 10.24-5.872 1.62-24.461 5.59-29.041 8z"/><path fill="#192e3d" d="M1179.16 1736.92c40.63-15.11 42.7 23.46 63.2 45.47 9.52 10.22 31.6 14.94 37.12 20.25-4.47 2.97-132.94 1.06-151.23 1.44l-1.84-3.06c10.36-4.68 14.4-9.61 21.06-18.11-11.22 3.95-33.01 11.45-41.21-.53-7.75-11.32 5.99-25.07 15.02-30.07 18.59-10.3 44.48-7.17 63.93-1.38l-1.03 2.48c-21.98-1.63-45.25 4.62-63.96 16.14 33.05-7.71 56.38-16.35 87.8 5.13 9.81 6.71 17.45 14.61 28.36 19.5-8.96-14.31-21.12-34.89-35.36-43.94-6.38-4.06-15.83-6.25-23.06-10.99zm-292.938 64.67c9.896-2.03 20.256-4.79 30.27-6.64 22.631-4.17 24.648-2.85 42.872 9.03-24.158.44-49.119.03-73.363.05zm182.668-11.53c7.7 3.56 27.74 10.92 33.18 13.87-19.4.16-38.81.2-58.22.12 6.77-5.04 17.38-10.11 25.04-13.99"/><path fill="#4c3e2f" d="M1185.21 1750.93c3.86 1.35 7.58 3.06 11.41 4.48-3.21-.35-9.63-.75-12.44-2z"/><path fill="#8c6f51" d="M904.094 1770.34c4.626-.84 10.819-.98 15.588-1.32-5.13 1.3-10.509 2.7-15.689 3.73zm-27.907 34.14c.625-2.74 4.108-2.13 7.202-2.71l-3.937 2.31-2.308.58z"/><path fill="#333431" d="m883.389 1801.77 2.833-.18-.221 2.44-6.549.05zm294.891-65.87.88 1.02-1.2 2.33-2.36-1.94z"/><path fill="#c98f57" d="M853.289 1738.41c26.466-3.83 53.882-27.32 81.677-7.98 8.641 6.02 13.172 14.54 16.763 24.07-33.817-27.15-54.222-17.14-91.736-3.62-12.318 4.44-25.44 8.55-37.745 13.09 7.453-14.91 18.702-18.3 31.041-25.56"/><path fill="#c38a55" d="M1207.91 1493.93c-.21 23.77-.6 36.62 1.52 60.81-1.37 1.11-1.03-.13-2.32.34-1.07 1.59.44 4.46-.4 7.72-1.13-2.65-.68-6.16-1.02-9.3-2.27-20.97-3.03-38.82 2.22-59.57"/><path fill="#5c5954" d="M836.807 1788.58c-2.16.59-4.401 1.31-6.639 1.5l.658-.11-1.878-.01c-1.867-1.66 8.176-3.82 8.804-4z"/><path fill="#c98f57" d="M1106.04 1638.98c39.21-72.55 31.73 19.77 39.52 45.9 2.82 9.43 3.63 21.48-9.54 22.57-15.53-7.76 12.53-80.96-17.84-71.6-18.02 14.52-25.07 105.3-74.22 122.18-38.22 13.13-59.409 9.94-84.075-26.7-17.342-30.74-23.227-69.25-29.234-103.72-1.04-6.2-2.667-19.17-10.173-20.14-15.122-1.6-11.689 26.25-12.611 35-.966 9.16 10.29 52.5-11.694 39.76-4.624-6.68.999-29.14 1.975-36.75 1.56-12.15 1.275-27.79 4.042-38.29 4.824-18.33 20.677-22.37 30.162-3.55 11.089 22.01 14.592 50.44 21.464 74.25 1.378 4.85 3.112 11.71 3.84 16.43l1.707-.76c-3.19-21.66-4.722-46.25-6.274-68.19-.349-4.95-1.439-8.74-1.351-13.68 6.135 5.17 10.072 44.61 12.099 55.64 6.859 37.3 22.152 85.35 71.183 74.33 36.2-8.13 45.3-58.18 55.17-87.71 3.84-11.49 9.87-23.21 16.41-33.98l2.34 2.51c-1.93 5.18-3.61 9.75-5.25 15.05z"/><path fill="#4c3e2f" d="m1103.69 1637.53 2.35 1.45c-.89 2.07-1.66 3.5-2.7 5.49l.33-.53c-.41.5-.82.99-1.23 1.49-.58-1.28.91-6.29 1.25-7.9"/><path fill="#6d573f" d="M959.363 1693.56c.319.85 1.467 4.14.163 4.68-1.037-.6-1.525-2.85-1.87-3.92z"/><path fill="#c38a55" d="M1106.6 1619.97c5.93-9.21 7.03-9.11 16.44-13.91-7.87 7.03-9.12 6.88-14.1 16.42z"/><path fill="#192e3d" d="M826.602 1000.87c15.395-54.917 46.748-98.276 97.09-126.544a207.3 207.3 0 0 1 157.678-18.061 200.2 200.2 0 0 1 121.57 95.258c8.51 15.386 15.05 32.695 20.25 49.467-25.06-3.616-48.53-8.135-74.2-10.027-100.17-7.382-224.376-8.884-322.388 9.907m738.998 914.51c58.04-11.42 96.13-14.79 154.85-12.28 4.56 1.11 9.45 2.24 14.04 3.18l4.5.95c2.43.51 4.44 1.14 6.96 1.52 14.24 5.02 48.3 14.73 38.54 36.13-7.21 15.81-23.69 22.65-37.75 30.52-19.8 5-38.34 7.48-57.37 15.13 41.27 12.03 122.02-.75 163.05-11.6 29.43-7.77 53.72-16.12 85.24-20.41 42.53-5.78 68.47-4.59 110.34 3V2048h-357.69c-25.44-6.62-69.11-12.3-83.61-39.13-9.76-24.59 13.27-34.01 27.84-43.98 13.52-9.26 61.14-16.93 65-28.25-4.9-21.16-111.89-19.72-133.94-21.26"/><path fill="#c98f57" d="M1917.16 2048c-33.66-49.27-93.54-36.71-143.65-30.82-32.69 3.84-69.72 2.95-101.79-3.71-32.9-7.22-50.73-28.39-15.37-50.02 6.3-3.84 12.99-6.99 19.97-9.4 8.1-2.78 16.65-4.3 24.75-6.83 10.8-3.38 18.32-2.1 18.09-14.99 3.91-2.01 9.46 3.2 11.02 6.79 1.32 2.99 1.29 6.4-.07 9.37-9.23 19.6-57.16 15.57-66.2 36.43-10.36 23.9 36.28 24.01 48.03 24.42 66.62 2.31 132.57-24.07 198.31-3.54 28.03 8.7 40.28 16.6 54.69 42.3z"/><path fill="#192e3d" d="M1928.03 2021.98c12.7 9.37 14.91 11.37 23.01 26.02h-10.97c-3.38-11.53-5.15-15.96-14.23-24.71z"/><path fill="#333431" d="M1925.84 2023.29c-.56-.48-3.56-2.56-3.38-3.56 1.22-.89 4.46 1.6 5.57 2.25z"/><path fill="#c98f57" d="M1873.69 1989.04c45.72-20.3 125.51-24.49 174.31-13.77v26.28c-31.56-7.14-63.66-9.15-95.88-5.81-5.83.6-33.24 7.23-36.37 4.75 17.17-12.16 60.53-17.26 81.55-17.81 1.61-1.58 2.49-1.27 4.7-1.27l2.01-.13c-47.37-2.01-78.04 2.17-124.86 8.98-1.81-.43-3.63-.84-5.46-1.22"/><path fill="#8c6f51" d="M2004.01 1981.28c.44-.03 1.99-.29 2.51.1.23 1.64-8.04 1.47-9.22 1.3 1.61-1.58 2.49-1.27 4.7-1.27zm-124.86 8.98c-.72.14-7.17 1.56-7.61.15.57-.87 1.14-.98 2.15-1.37 1.83.38 3.65.79 5.46 1.22"/><path fill="#192e3d" d="m1038.17 1808.8 240.97-.2.1 58.01-510.388.29c.25-19.17.061-38.73.073-57.93 64.767-.29 131.712 1.12 196.233-.2l1.32.67c3.863 2.01 9.369 6.41 12.833 7.93 10.398 4.56 21.349 4.9 32.049 1.89 5.79-1.63 23.29-10.36 26.81-10.46m-670.736 94.36c33.772-1.96 65.868.28 99.501 4.17-3.501 2.39-4.808 1.68-8.987 2.58-32.326 1.13-65.038 3.01-97.015 8-9.254 1.45-28.616 5.38-29.385 17.09 1.871 4.66 6.54 6.52 11.058 8.44a93.4 93.4 0 0 0 20.372 5.98c15.678 2.76 31.97 3.42 47.588 6.78 9.749 2.09 32.401 6.19 26.045 20.99-4.356 10.13-18.209 11.15-27.844 12.43-29.261 69.47-150.259 1.9-154.415 58.38H113.005c34.888-44.51 120.782-54.26 173.923-59.96 18.436-1.98 42.949-3.14 60.357-8.58 3.64-1.14 7.495-3.63 9.018-7.26.692-1.65.066-2.14-.529-3.68-10.761-10.09-38.145-12.38-52.871-17.49-39.476-13.69-30.587-25.9 2.43-38.35 5.2-1.43 10.23-3.43 15.527-4.47-.433-2.01-.354-2.03-.312-4.24 11.4-.76 36.545-2.24 46.886-.81"/><path fill="#c98f57" d="M320.548 1903.97c11.4-.76 36.545-2.24 46.886-.81-56.239 9.59-135.673 31.71-22.603 52.32 43.441 7.92 19.196 31.4-8.458 35.71-64.681 12-127.575 2.27-176.012 56.81h-47.356c34.888-44.51 120.782-54.26 173.923-59.96 18.436-1.98 42.949-3.14 60.357-8.58 3.64-1.14 7.495-3.63 9.018-7.26.692-1.65.066-2.14-.529-3.68-10.761-10.09-38.145-12.38-52.871-17.49-39.476-13.69-30.587-25.9 2.43-38.35 5.2-1.43 10.23-3.43 15.527-4.47-.433-2.01-.354-2.03-.312-4.24"/><path fill="#192e3d" d="m184.654 2016.57.765 1.69c-16.206 10.77-19.381 13.94-29.027 29.74h-23.667c14.959-14.76 32.112-24.75 51.929-31.43"/><path fill="#4c3e2f" d="M184.654 2016.57c1.533-.81 7.49-3.47 8.911-3.15l.05.15c-.542.97-6.665 3.83-8.196 4.69z"/><path fill="#192e3d" d="M274.626 1917.35c9.67-3.28 16.916-4.73 26.859-6.86l3.848 2.19c-33.017 12.45-41.906 24.66-2.43 38.35 14.726 5.11 42.11 7.4 52.871 17.49.595 1.54 1.221 2.03.529 3.68-1.523 3.63-5.378 6.12-9.018 7.26-17.408 5.44-41.921 6.6-60.357 8.58-53.141 5.7-139.035 15.45-173.923 59.96H0v-69.45c42.758-17.12 118.561-18.3 164.229-9.06 31.724 6.63 63.147 14.68 95.918 12.59 10.376-.66 69.327-4.51 66.86-16.4-7.751-7.35-32.586-8.95-43.801-10.45-7.8-2.97-18.704-5.25-22.544-13.59-5.994-13.02 4.689-18.74 13.964-24.29"/><path fill="#c98f57" d="M0 1999.63c50.94-13.42 111.288-6.46 161.37 8.26-12.272-.9-24.704-2.85-36.855-3.4-39.112-1.74-87.908 2.03-124.515 15.61z"/><path fill="#192e3d" d="M0 1804.52c173.448 1.12 346.901 1.24 520.35.38l169.371-.02c14.814-.04 59.074 1.22 71.888-.39l.47 1.3c-.206 5.65-.289 13.91-.931 19.34-97.1.91-194.205 1.2-291.309.85L0 1825.45zm1287.72.28c100.16 1.93 205.98.24 306.59.05l453.69-.25v21.37l-515.5-.22c-80.98.02-164.06 1.33-244.82.05zm-62.39-403.28c26.05 2.19 38.85-4.27 57.18-22.41 3.5-3.47 10.12-10.35 14.22-12.71l-4.27 7.37c-10.32 10.41-16.02 24-18.8 38.26-1.2 6.14 1.43 16.31-4.65 15.92-16.74 7.77-12.18 25.53-11.08 41.12-2.64 15.17 4.46 45.06-8.12 56.37-2.57 2.31-6.74 1.66-10.12 1.77-14.16-20.48 11-72.29-3.43-97.99-1.61-2.88-3.38-3.6-6.46-4.39-4.07.82-4.17 1.02-7.39 3.83-.63-1.3-1.25-2.61-1.85-3.92 1.75-5.85 3.55-16.89 4.77-23.22"/><path fill="#c98f57" d="M1720.45 1903.1c7.06.11 30.67.74 36.3 3.61 14.66 1.06 52.66 8.98 47.11 30.78-4.47 17.58-24.61 27.09-40.04 32.97-6.99 2.75-9.52 5.19-17.08 4.94 14.06-7.87 30.54-14.71 37.75-30.52 9.76-21.4-24.3-31.11-38.54-36.13-2.52-.38-4.53-1.01-6.96-1.52l-4.5-.95c-4.59-.94-9.48-2.07-14.04-3.18m-451.44-475.15c6.08.39 3.45-9.78 4.65-15.92 2.78-14.26 8.48-27.85 18.8-38.26-1.88 11.01-3.06 18.83-2.35 29.73.56 8.6 7.98 26.62-.47 32.15-11.68 7.66-16.92-4.83-20.63-7.7m-985.804 527.28c-10.277 1.01-44.017-6.84-45.059-19.73-1.531-18.95 31.652-24.47 45.329-26.54-3.429 3.02-5.65 5.24-8.85 8.39-9.275 5.55-19.958 11.27-13.964 24.29 3.84 8.34 14.744 10.62 22.544 13.59M1434.87 1279.3c.61-5.12 1.02-13.37.53-18.57.88.12 1.71.39 2.59.67 1.65 12.45 2.8 24.65 5.17 37.09 1.92 10.12 3.87 22.28-2.8 31.14-7.7 10.2-18.66 7.42-25.03-2.75 11.9 3.7 14.5 1.85 17.59-10.89 2.95-12.21.85-24.82 1.95-36.69m-225.44 275.44c2.26 9.55 2.35 22.6 4.75 32.75 3.15 13.29 4.68 36.04-12.17 40.41-4.89 1.4-10.58-3.44-13.45-7.39 12.62.46 13.59-5.31 16.31-17.53 2.89-13 2.11-26.94 1.84-40.18.84-3.26-.67-6.13.4-7.72 1.29-.47.95.77 2.32-.34m-366.519 28.14c4.004 12.83 9.53 48.94.5 59.76-6.639 7.96-16.883 5.77-21.367-4l-.35-.74c28.06 8.01 18.533-39.07 21.217-55.02"/><path fill="#c38a55" d="M1239.69 1527.21c3.38-.11 7.55.54 10.12-1.77 12.58-11.31 5.48-41.2 8.12-56.37 1.2 5.08 1.63 9.05 3.22 15.41 3.67 14.77 11.41 39.64-7.64 47.41-4.16 1.7-10.5-1.16-13.82-4.68"/><path fill="#c98f57" d="M1391.09 1359.42c3.57 14 7.72 40.69-1.63 53.05-5.3 7.02-13.63 7.18-18.88-.42 15.29 2.18 16.42-6.97 19.33-20.56 2.19-10.27.58-21.5 1.18-32.07"/><path fill="#c38a55" d="M1437.31 1089.25c9.45 8.1 25.08 26.55 28.07 38.69.88 2.04 1.42 3.19 2.01 5.34-1.88 4.34-.26 10.61-.85 16.71-.78-.08-5.65-.24-5.87-1.47-1.04-5.77-1.09-15.42.03-21.02l-.31-1.15c-2.2-8.46-10.01-15.13-15.72-21.59 5.51.43 3.67 2.48 7.57 4.82l.11-.03c.79-4.03-14.65-13.14-15.04-20.3M283.476 1908.96c12.095-1.75 24.933-3.81 37.072-4.99-.042 2.21-.121 2.23.312 4.24-5.297 1.04-10.327 3.04-15.527 4.47l-3.848-2.19c-9.943 2.13-17.189 3.58-26.859 6.86 3.2-3.15 5.421-5.37 8.85-8.39"/><path fill="#333431" d="M301.485 1910.49c8.012-1.62 11.478-2.08 19.375-2.28-5.297 1.04-10.327 3.04-15.527 4.47z"/><path fill="#c98f57" d="M641.134 1268.89c2.274 11.61 5.051 37.21-2.637 47.63-4.741 6.42-11.255 3.94-16.338-.86 12.169-1.14 13.538-1.8 16.739-14.67 2.747-11.04 1.881-20.97 2.236-32.1"/><path fill="#333431" d="M1467.39 1133.28c1.94 5.91 3.2 10.49 3.92 16.71h-4.77c.59-6.1-1.03-12.37.85-16.71"/><path fill="#5c5954" d="M466.935 1907.33c5.526.39 11.084 1.06 16.577 1.78-8.687 1.17-16.814 1.05-25.564.8 4.179-.9 5.486-.19 8.987-2.58"/><path fill="#e6e7e9" d="M761.609 1804.49c1.582-.59 2.506-.88 4.134-1.32 1.464.35 2.931.69 4.401 1.01l-.104.59-2.026.11c-2.254.09-3.767.28-5.935.91z"/><path fill="#333431" d="M1121.11 1803.94c2.15-1.44 2.97-1.78 5.3-2.92l1.84 3.06z"/><path fill="#192e3d" d="M817.941 1875.48c.174 15.09.452 32.62-8.634 45.52-26.494 37.61-98.529 17.68-132.416 24.25-2.889 2.35-1.957.91-2.931 4.47 4.368 24.13 100.646 17.46 98.52 47.57-2.14 30.31-105.886 38.97-126.561 40.13-47.658 2.67-85.407 5.22-132.324 3-10.838.54-67.99-7.19-61.051-27.34 13.234-38.43 117.964-34.4 138.941-47.07 1.334-3.11 1.268-1.56.174-4.79-4.452-4.54-66.235-7.94-78.461-17.42-6.566-5.09-28.943-14.01-16.072-28.02 22.928-24.94 69.124-29.28 100.768-32.71 29.23-1.97 57.027 2.74 86.198-3.39 12.546-2.42 20.113-3.51 26.576-15.32 4.584-8.37 44.463-4.86 49.856-.53 2.323 3.39 2.1 6.94 2.455 11.19l31.056.14c6.217-.01 18.157-.38 23.906.32"/><path fill="#c98f57" d="M794.035 1875.16c6.217-.01 18.157-.38 23.906.32-5.879.31-10.702.47-16.595.4 11.453 16.62 10.054 34.94-8.63 46.24-23.419 14.17-57.998 10.29-84.246 11.78-9.626-.09-17.95.12-27.354 2.19-8.906 1.95-16.517 12.29-10.781 20.55 12.635 18.2 59.85 8 53.339 38.49l2.726.67c2.334-3.01 4.875-5.68 5.732-9.34-.756-1.84-1.458-3.61-1.864-5.56l1.402-.72c5.29 3.16 8.004 10.15 4.176 15.46-6.274 8.7-18.653 12.56-28.272 15.89l.527 2.04c10.936-2.54 23.47-5.09 33.758-9.73 4.75-2.14 6.638-7.51 11.015-6.54-2.536 30.33-120.313 31.14-143.898 30.43a414 414 0 0 1-49.306-4.62c-8.788-1.31-18.23-2.58-24.062-10.01-3.931-5.01-4.801-9.62-.096-14.17l3.958-1.04c-.197 3.35-2.188 7.03-.556 9.72 3.649 6 12.72 7.67 19.062 8.82 2.294.41 4.591.81 6.891 1.18.359-.82.606-1.32.857-2.2-3.849-1.06-19.865-6.15-14.536-12.92 7.507-9.53 28.52-11.65 40.035-13.14-2.662 4.04-5.925 9.4-2.443 13.26 15.297 16.97 127.437 6.41 124.749-17.37-5.803-8.61-19.641-11.03-29.081-14.02-8.598-2.72-19.45-6.52-23.59-15.29-1.661-3.52-1.453-7.12-.034-10.67 8.583-21.52 88.046-15.71 115.097-28.53 8.578-4.06 15.936-10.4 18.968-19.63 2.469-7.53 2.542-14.81-.854-21.94"/><path fill="#6d573f" d="M565.724 2015.41c1.205.18 17.545 3.08 18.377 3.53l.301.49c-.976.43-18.365-1.48-19.535-1.82.359-.82.606-1.32.857-2.2"/><path fill="#333431" d="m723.674 1995.13 2.726.67c-.444.44-4.334 4.86-5.254 3.53l.278-1.35.021 1.37c-.286-1.93.776-2.91 2.229-4.22"/><path fill="#6d573f" d="m707.574 2011.53.527 2.04c-.744.14-5.794 1.22-6.172-.09 1.061-1.26 4.066-1.63 5.645-1.95"/><path fill="#c98f57" d="M732.881 1861.65c9.858 2.29 25.223 10.51 21.071 20.46-15.534 37.2-134.014 15.96-149.513 37.4-.447 2.82-.635 5.18 1.567 7.6 9.252 10.16 36.825 28.28 16.633 42.54-15.542 10.98-42.441 9.5-60.589 12.88-23.736 3.58-48.626 7.31-70.254 18.2-3.365 1.69-9.653 5.12-10.526 9.01-1.581 7.07 4.114 13.25 9.848 16.3l-3.12 2.94c-23.64-6.27-28.111-14.46-6.23-30.53 23.131-16.99 113.361-17.99 126.438-33.99 6.333-21.22-62.038-14.85-67.2-37-4.296-18.43 12.313-24.53 25.477-29.16l.451 2.45c-6.149 2.78-15.475 8.3-17.647 14.84-5.019 15.12 13.461 18.17 22.149 19.93-38.94-21.17 22.325-36.33 38.428-38.77 11.352-1.69 22.8-2.64 34.274-2.86 11.53-.21 140.053 6.29 88.743-32.24"/><path fill="#5c5954" d="M566.483 1898.3c6.633-1.95 13.882-3.11 20.713-4.32-5.288 2-14.906 5.6-20.262 6.77z"/><path fill="#c38a55" d="m491.118 2026.04 1.025.62c7.19 4.18-2.192 2.38-4.145 2.32z"/><path fill="#192e3d" d="M1288.02 1875.49c-.05-8.11-.13-35.51-.41-45.49.41-.5.83-1 1.25-1.5 5.98-.83 14.73 1.63 19.53 5.3 19.76 15.11 4.61 39.53 18.38 57.27l.8-.21c-.54-6.82-.62-12.02-.6-18.88 17.22 6 43.48 11.09 61.97 10.92 5.45-.97 22.05-.75 28.38-.82 7.08.14 14.07-.14 21.27.04 29.46-.4 73.82-.45 98.63 18.03 8.17 6.09 7.5 18.86.05 25.48-10.28 9.15-21.88 13.84-35.12 17.04-15.48 5.11-62.54 4.52-65.27 22.3-.41 2.66 2.39 5.75 4.74 7.6 13.47 10.62 34.84 9.51 50.86 7.29 27.89-3.85 53.66-16.79 80.32-24.49 21.33-6.16 50.06-5.64 72.62-5.48 1.09.08 8.52.1 7.88 2.34l-1.35.45-.27.09-2.14-.09c-21.32 1.9-48.05 11.09-63.4 26.44-9.23 9.23-17.09 19.05-28.15 26.29-15.5 10.13-33.44 14.62-51.46 17.94-56.49 10.43-186.58 15.21-232.85-17.96-5.27-3.77-11.66-9.81-12.54-16.62-4.91-37.85 125.05-32.38 136.31-50.93 1.48-2.44 1.33-3.28.71-5.85-7.66-8.65-32.22-10.68-44.2-12.31-9.84 10.27-16.92 16.43-30.87 20.3-46.63 12.95-93.56-13.47-94.19-64.24 7.13-.97 51.65-.85 59.12-.25"/><path fill="#c98f57" d="M1388.94 1882.9c5.45-.97 22.05-.75 28.38-.82 7.08.14 14.07-.14 21.27.04-3.49.92-7.36 1.05-10.33 2.48 18.54 1.47 38.08 2.86 55.82 7.38 13.86 3.54 22.31 10.93 19.85 25.6-.27 1.62-.05 1.69.47 3.22 8.76-1.63 6.62-17.53 3.04-23.67l1.02-2.63c4.95 3.18 9.46 5.96 11.03 12.02.9 3.48 0 6.82-1.85 9.82-5.02 8.14-15.13 13.41-23.78 16.91-15.58 6.31-104.48 22.67-100.7 43.36.81 4.43 4.84 7.72 8.6 9.72 28.95 15.4 95.39 10.11 125.39-.04 9.95-3.36 19.65-7.7 29.34-11.75-1.04 2.49-2.45 3.11-4.5 4.86-20.24 11.47-57.84 26.63-81.41 26.59-1.93.72-3.87 1.42-5.81 2.09 25.97.16 60.64-1.38 83.9-12.44l.81 1.85c-40.56 23.89-104.82 21.83-150.36 13.81-19.16-3.37-38.28-8.21-46.68-27.55l1.7-2.39c5.15 11.72 19.36 14.64 30.79 16.08-66.84-44.31 118.95-55.38 104.86-84.99-10.78-22.64-77.18-21.07-100.85-29.55"/><path fill="#333431" d="M1417.32 1882.08c7.08.14 14.07-.14 21.27.04-3.49.92-7.36 1.05-10.33 2.48-5.35-.45-10.71-.74-16.07-.69l-.5-.78c-.25.13-.49.26-.74.38 1.22-.58 4.81-1.08 6.37-1.43"/><path fill="#8c6f51" d="M1464.77 2008.08c-2.03-.05-2.24.08-4.07-.46l-.03-.09c.88-.91 8.45-1.45 9.91-1.54-1.93.72-3.87 1.42-5.81 2.09"/><path fill="#c98f57" d="m1240.73 1885.01 3.21-.02c15.69 38.41 52.4 40.12 87.93 35.71l2 2.55c-16.44 9.1-29.24 13.19-48.42 9.09-24.9-5.33-41.79-21.34-44.72-47.33"/><path fill="#c38a55" d="M1228.9 1875.74c7.13-.97 51.65-.85 59.12-.25-5.24.67-45.13.02-46.11 1.05-.28 1.53 1.5 6.84 2.03 8.45l-3.21.02c-.8-12.07.91-8.56-11.83-9.27"/><path fill="#6d573f" d="M1556.49 1974.54c3.35-2.45 10.03-4.58 14.13-6.14-6.27 4.1-11.78 7.88-18.63 11 2.05-1.75 3.46-2.37 4.5-4.86"/><path fill="#5c5954" d="M1548.67 1995.64c1.7-1.09 8.46-5.72 10.36-5.1.13.05.17.11.18.24.03.52-.48 1.07-.82 1.39-.7.65-1.58 1.09-2.39 1.57-.86.51-1.42 1.13-2.15 1.79-.73.68-1.44.83-2.39 1.06-.71.17-1.33.59-1.98.9z"/><path fill="#8c6f51" d="M1507.44 1897.13c-1.41-.69-2.6-1.56-3.97-2.23 1.1.53-5.77-2.27-3.8-2.84 2.31-.68 6.86 1.56 8.79 2.44z"/><path fill="#757d83" d="M1645.42 1949.89c1.09.08 8.52.1 7.88 2.34l-1.35.45-.27.09-2.14-.09c-.6-1.91-2.27-1.94-4.12-2.79"/><path fill="#8c6f51" d="M1352.44 1983.75c0 .01-2.33-7.07-.12-6.22.69.26 1.55 3.05 1.82 3.83z"/><path fill="#c38a55" d="M1331.87 1920.7c1.18-.16 4.24-.81 5.27-.28l.11.17c-.43.96-2.52 2.05-3.38 2.66z"/><path fill="#c98f57" d="M1329 1895.85c7.48.65 14.97 2.52 22.56 3.21 20.4 1.86 52.54-.04 67.57 16.26 3.03 3.29 5.76 7.67 5.46 12.32-2.02 31.83-109.37 29.41-131.11 50.34-2.9 2.79-4.56 7.15-4.41 11.16.26 6.69 4.68 12.23 9.46 16.4l1.02.87.39 1.33c-1.55-.56-3.09-1.16-4.61-1.79-6.7-2.81-15.19-7.75-17.79-15.01-1.35-3.78-.92-8.18.77-11.77 9.83-20.8 92.04-25.42 115.01-33.09 7.27-2.42 15.77-5.8 19.18-13.2 1.16-2.52 1.69-5.44.26-7.99-7.12-12.64-47.44-13.07-61.21-16.08-7.1-1.55-17.69-4.61-21.56-11.17-.35-.59-.66-1.19-.99-1.79"/><path fill="#192e3d" d="M369.675 1672.54c-28.893-89.79 88.198-96 102.955-39.49 1.15 4.49 1.69 9.13 1.603 13.77-.074 6.34-3.772 42.86-5.618 45.34-3.852 5.17-13.886 4.69-19.734 4.9.061 4.27.797 13.16-1.157 16.47.202.8.053.31.535 1.44 1.411 6.02 3.499 16.96-6.166 13.21l-1.953.26c-4.93.63-6.908 1.74-9.016-2.54l-1.364.26c-2.064 4.34-6.364 3.13-9.599.72l-1.919 1.56c-2.639-.16-4.476-.42-7.075-.8-1.776-.16-1.536-.17-3.293.11-3.893.16-4.331.43-7.957-.68-.711-.07-1.814-.22-2.53-.13-9.043 4.57-6.716-6.45-6.248-11.84.265-.75.356-.86.45-1.66-1.062-5.99-.898-9.54-.853-15.53-19.358-2.23-28.391-3.41-21.061-25.37"/><path fill="#e6e7e9" d="M391.589 1713.44c6.581-1.02 48.048-.53 56.135.09.202.8.053.31.535 1.44 1.411 6.02 3.499 16.96-6.166 13.21l-1.953.26c-4.93.63-6.908 1.74-9.016-2.54l-1.364.26c-2.064 4.34-6.364 3.13-9.599.72l-1.919 1.56c-2.639-.16-4.476-.42-7.075-.8-1.776-.16-1.536-.17-3.293.11-3.893.16-4.331.43-7.957-.68-.711-.07-1.814-.22-2.53-.13-9.043 4.57-6.716-6.45-6.248-11.84.265-.75.356-.86.45-1.66"/><path fill="#192e3d" d="M431.124 1725.9c.229-1.8.261-8.56 1.664-9.14 9.957-4.13 7.361 8.2 7.352 11.68-4.93.63-6.908 1.74-9.016-2.54m-10.963.98c.392-2.6-.709-14.36 8.162-10.2 1.271.59 1.293 7.98 1.437 9.48-2.064 4.34-6.364 3.13-9.599.72m-20.244.19c.086-2.07-.456-9.6 1.278-10.42 9.09-4.3 6.743 9.42 6.679 11.1-3.893.16-4.331.43-7.957-.68m11.25.57c.143-4.4-2.234-13.02 4.393-11.96 4.474.72 2.705 9.01 2.682 12.76-2.639-.16-4.476-.42-7.075-.8m37.092-12.67c1.411 6.02 3.499 16.96-6.166 13.21.745-6.33-1.792-11.17 4.542-12.73zm-57.12.13c8.636 1.55 6.082 2.42 6.248 11.84-9.043 4.57-6.716-6.45-6.248-11.84"/><path fill="#fff" d="M390.902 1643.12c10.906.17 25.863 6.27 23.738 19.32a17.2 17.2 0 0 1-7.635 11.6l-2.717 1.71c-19.884 5.16-26.768-3.79-22.505-24.78.769-3.78 5.791-6.41 9.119-7.85m47.108.98c7.047-.24 15.176-.71 18.461 7.07 3.704 8.77 4.373 21.08-6.464 24.88l-2.902 1.05c-9.934-.09-17.126-.37-21.207-11.11a16.1 16.1 0 0 1 .561-12.58c2.508-5.34 6.393-7.25 11.551-9.31m-18.949 30.39c5.074 1.94 10.385 11.8 10.49 16.8.321 15.22-1.536 13.31-9.631 5.39-6.131.95-6.224 6.49-8.898 6.51-2.072-1.21-2.237-8.66-2.301-10.7-.247-7.85 5.194-12.99 10.34-18"/><path fill="#c5cacc" d="M374.635 1649.95c2.349 2.79-1.102 19.44 4.841 26.5 5.744 6.82 5.798 4.82 14.824 7.37-24.319.55-21.669-15.07-19.665-33.87"/><path fill="#e6e7e9" d="M463.307 1652.78c1.739 2.28 1.431 2.43 1.816 5.2 2.145 15.42-.346 24.74-17.099 26.55-.458-.31-1.013-.52-1.327-.99.944-.45 1.916-.5 2.981-.78 16.276-4.23 13.303-16.5 13.629-29.98"/><path fill="#192e3d" d="M633.577 1673.09c-4.008-13.35-6.988-25.98-3.848-39.97 11.233-50.06 97.993-47.56 107.272 2.8 2.104 11.39-.932 22.21-1.976 33.5-.693 23.73 2.308 24.9-22.985 28.76-.135 4.9.235 9.27-1.737 13.65-1.814 1.22-1.312 1.06-3.333 1.75l-.043 1.23 1.527.61c3.812 1.37 5.76 13.01-2.499 13.07-.822-.29-1.797-.41-2.637-.56-3.013 1.55-4.407 1.03-7.776.12l-2.709.13c-3.337 1.08-5.35.84-8.911 1.12l-2.392-.75c-3.856.5-4.948.51-8.823.06l-2.489.53c-2.933-.27-4.295-.23-7.198-.15-1.639.03-2.38.06-3.98-.12-6.528-.81-3.897-6.94-3.955-13.41l-.088-.64c.363-6.08.613-11.32.617-17.41-19.935-2.61-29.827-1.02-22.037-24.32"/><path fill="#e6e7e9" d="m654.997 1714.82 1.441-.57c2.787-1.19 43.75-.43 50.532-.67l-.043 1.23 1.527.61c3.812 1.37 5.76 13.01-2.499 13.07-.822-.29-1.797-.41-2.637-.56-3.013 1.55-4.407 1.03-7.776.12l-2.709.13c-3.337 1.08-5.35.84-8.911 1.12l-2.392-.75c-3.856.5-4.948.51-8.823.06l-2.489.53c-2.933-.27-4.295-.23-7.198-.15-1.639.03-2.38.06-3.98-.12-6.528-.81-3.897-6.94-3.955-13.41z"/><path fill="#192e3d" d="M683.922 1729.3c-.017-2.19-.649-11.03.789-11.94 10.501-6.67 8.041 8.68 8.122 10.82-3.337 1.08-5.35.84-8.911 1.12m-11.215-.69c.074-2.24-.477-10.98 1.15-11.79 9.982-5.01 7.616 10.09 7.673 11.73-3.856.5-4.948.51-8.823.06m22.835-.56c.062-1.34-1.899-15.84 6.261-11.41 1.857 1 1.381 9 1.515 11.29-3.013 1.55-4.407 1.03-7.776.12m-32.522.94c-.042-3.54-.453-8.66.377-11.89.449-1.74 4.429-1.56 5.248-.64 1.968 2.2 1.308 9.72 1.573 12.68-2.933-.27-4.295-.23-7.198-.15m43.907-14.18 1.527.61c3.812 1.37 5.76 13.01-2.499 13.07-.638-3.61-1.197-8.73.351-12.15zm-51.842.65c7.92.26 6.618 8.54 3.955 13.41-6.528-.81-3.897-6.94-3.955-13.41"/><path fill="#fff" d="M700.916 1644.19c6.02-1.63 12.45.11 16.826 4.55a17.3 17.3 0 0 1 4.298 16.9 17.29 17.29 0 0 1-12.602 12.04c-9.186 2.19-18.429-3.4-20.757-12.55s3.12-18.48 12.235-20.94m-47.252-1.15c23.998.2 33.51 20.12 12.582 32.45-28.508 5.31-27.737-23.51-12.582-32.45m28.035 32.42c12.107 5.3 11.486 18.35 11.311 29.2-3.945-2.85-5.733-4.13-9.449-7.35-2.956 1.5-5.798 3.38-8.417 5.5-.176.14-1.168-.17-1.403-.53-1.418-2.15-1.17-6.18-1.289-8.74 1.298-9.94 2.482-11.92 9.247-18.08"/><path fill="#e6e7e9" d="m636.938 1658.07 2.521.06c-2.219 13.01 1.593 22.1 15.635 24.95 6.473 1.31-2.354 1.31-6.105.56l-2.005-.42-1.115-.21c-10.862-8.88-8.864-11.24-8.931-24.94m91.709-.03c2.098 17.56-.084 26.42-19.163 25.45 13.556-.44 17.335-9.52 17.183-21.58.66-1.36 1.257-2.53 1.98-3.87"/><path fill="#999fa6" d="M726.667 1661.91c-.367-1.22-1.538-8.31.244-8.23 1.189.75 1.455 3.2 1.736 4.36a97 97 0 0 0-1.98 3.87"/><path fill="#757d83" d="M636.938 1658.07c1.816-7.78 3.737-7.9 2.521.06z"/><path fill="#192e3d" d="M1342.14 1696.78c-7.4-.38-15.22.29-20.86-4.11-3.6-5.61-1.28-15.95-2.01-22.85-.8-7.6-3.33-15.33-3.68-22.79-2.6-55.72 78.59-67.04 103.78-24.92 9.22 15.42 6.47 34.69 1.67 51.15l-.31 1.03c7.44 20.97-4.09 20.8-21.43 21.91l.32 17.7c-3.17-.01-19.7-.64-21.21-.47l-.25 2.39c8.26 3.83 4.42 18.81-5.19 13.06l-1.61-.01c-2.84 1.27-7.74 1.39-10.48-.1l-1.86-.07c-3.37 1.06-3.77.85-7.29.26-.78-.1-1.84-.3-2.68-.28-1.16.19-6.57 1.58-6.64-1.21-.1-4.47-1.16-8.35 1.24-12.22l-.45-1.29c-1.59-4.42-1.07-12.17-1.06-17.18"/><path fill="#e6e7e9" d="M1343.2 1713.96c4.38.05 12.26.81 16.13-.64 1.35-.51.86-2.58 3.29.04 1.26 1.36 10.91.2 13.3.31l2.49-.24-.25 2.39c8.26 3.83 4.42 18.81-5.19 13.06l-1.61-.01c-2.84 1.27-7.74 1.39-10.48-.1l-1.86-.07c-3.37 1.06-3.77.85-7.29.26-.78-.1-1.84-.3-2.68-.28-1.16.19-6.57 1.58-6.64-1.21-.1-4.47-1.16-8.35 1.24-12.22z"/><path fill="#192e3d" d="m1375.92 1713.67 2.49-.24-.25 2.39c8.26 3.83 4.42 18.81-5.19 13.06.06-3.07-.92-10.47 1.52-12.18z"/><path fill="#c5cacc" d="m1375.92 1713.67 2.49-.24-.25 2.39-3.67.88z"/><path fill="#192e3d" d="M1360.88 1728.77c.54-2.56.78-10.86 2.72-11.59 9.1-3.41 7.59 8.8 7.76 11.69-2.84 1.27-7.74 1.39-10.48-.1m-9.15.19c.03-2.11-.52-10.61.97-11.51 9.18-5.54 6.32 11.82 6.32 11.25-3.37 1.06-3.77.85-7.29.26m-8.08-13.71c7.9 2.39 5.24 4.72 5.4 13.43-1.16.19-6.57 1.58-6.64-1.21-.1-4.47-1.16-8.35 1.24-12.22"/><path fill="#fff" d="M1395.32 1643.34c12.69.9 13.64 6.62 14 18.16.44 14.24-5.49 16.14-18.24 16.04-23.43-8.79-21.35-30.53 4.24-34.2"/><path fill="#fff" d="M1344.12 1643.23c24.92 2.22 29.12 22.97 10.31 33.58-8.81.48-18.59 1.44-21.85-9.19-2.57-8.39-.31-21.7 9.74-23.95zm26.36 30.24c9.57 6.46 8.93 12.67 13.09 23.13.32.79-3.41 5.81-3.81 5.89-1.19.24-7.15-3.82-8.22-4.56-1.95-.82-8.42 7.04-10.71 4.29-5.49-6.56 3.59-22.58 8.26-27.28z"/><path fill="#e6e7e9" d="M1324.39 1669.82c-1.04-7.66.43-11.93 2.55-19.17.11 6.2.07 12.39-.12 18.59 7.96 15.4 8.14 7.66 15.67 14.05l.08.2c-9.63 3.11-15.19-6.76-18.18-13.67"/><path fill="#999fa6" d="M1324.39 1669.82c-1.04-7.66.43-11.93 2.55-19.17.11 6.2.07 12.39-.12 18.59-.26-.96-1.12-5.28-1.41-5.71-.6.64-.87 5.18-1.02 6.29"/><path fill="#e6e7e9" d="m1415.14 1655.16 1.63.11c.56 7.87 1.86 22.75-7.36 26.5-2.12.86-11.66 5.71-12.86 2.82.32-.63 9.8-2.73 12.87-5.86 6.8-6.94 5.39-14.88 5.72-23.57"/><path fill="#757d83" d="m1415.14 1655.16.14-1.41c.05-.6.17-.82.39-1.27.09-.01.18-.02.27-.02.72.79.7 1.75.83 2.81z"/><path fill="#192e3d" d="M1626.69 1597.29c17.04-.88 30 .19 44.64 10.4 17.1 11.92 21.57 31.13 17.81 50.59-.53 5.22-3.51 13.22-2.16 18.31 4.78 17.99-6.89 19.14-22.45 20.04.11 3.03.17 6.05.18 9.07-.01 3.52-.2 4.59-2.72 7.09-4.33 1.96-10.48 1.25-15.49 1.17l-38.23-.19c-.61-5.13-1.05-10.65-1.56-15.83-18.51-4.16-27.79-2.35-20.83-24.65-12.47-37.64-2.7-69.68 40.81-76"/><path fill="#fff" d="M1658.69 1643.28c10.44.39 14.53 3.49 16.35 14.21 2.01 11.75-3.8 19.5-15.4 20.48-24.06-6.26-26.1-29.7-.95-34.69"/><path fill="#fff" d="M1610.33 1643.29c24.67 3.35 27.28 25.57 6.33 33.73-15.4 2.05-22.19-5.03-19.88-20.55 1.31-8.82 5.12-11.35 13.55-13.18m23.81 31.08c15.28 5.29 17.83 41.05 1.8 21.59-2.95 1.56-9.47 14.69-11.36.04-.7-5.37 4.11-16.38 8.19-20.29z"/><path fill="#e6e7e9" d="m1589.16 1660.02 2.15.71c-.53 11.88 4.72 20.98 17.2 22.75-16.18 1.48-20.27-9.57-19.35-23.46m80.44 21.68c11.81-6.68 9.72-14.52 10.89-27.19 1.8 1.74 1.54 5.69 1.58 8 .16 10.35-1.62 17.38-11.75 21.04z"/><path fill="#999fa6" d="m1669.6 1681.7.72 1.85c-7.99 1.59-15.46-.9-.72-1.85"/><path fill="#757d83" d="M1589.16 1660.02c.19-1.49.47-6.57 2.23-7.07 1.42 1.44.36 6.04-.08 7.78z"/><path fill="#192e3d" d="M1856.1 1675.01c-4.62-19.09-9.77-37.35 1.63-55.54 15.96-25.48 57.86-28.98 81.71-13.3a45.34 45.34 0 0 1 19.95 30.7c2.23 13.12-.75 24.36-2.69 37.21-.82 5.48 1.48 13.59-.9 17.51-5.57 4.28-14.67 5.21-21.62 6.26-.29 4.47-.21 10.2-2.01 14.1-8.37 5.33-46.34-.67-54.41 3.08l-.41-.36c.02-5.8.18-11.59.47-17.37-15.45-1.99-31.1-2.03-21.72-22.29"/><path fill="#fff" d="M1879.26 1643.26c25.37 2.13 28.87 24.89 9.39 32.38l-1.82.76c-27.58 5.06-24.82-29.35-9.44-32.7zm47.89.09c8.72.62 13.83.18 15.9 10.13 2.39 11.5 1.48 21.76-12.55 23.78l-2 .34-1.5-.25c-12.51-1.95-21.18-14.65-14.07-25.88 2.51-3.91 6.49-6.63 11.04-7.56 1.02-.2 2.14-.37 3.18-.56m-22.53 31.2c8.95 6.2 13.98 16.89 9.71 27.75-1.61 4.09-7.69-3.48-8.58-4.48-.77-.03-8.76 12.65-11.77-1.79-1.45-6.94 5.64-16.44 10.64-21.48"/><path fill="#e6e7e9" d="M1938.32 1682.68c10.71-8.51 14.25-14.98 10.09-29.07 2.1-1.69 2.95 6.51 3.03 7.03 1.76 12.53-.61 16.51-9.73 23.17-1.14-.39-2.22-.78-3.39-1.13m-76.98-23.94c-.91 14.07 3.83 22.42 18.09 24.53l1.11.17c-15.4 4.88-20.85-10.03-21.77-22.11z"/><path fill="#757d83" d="M1941.71 1683.81c-1.38.18-10.96 1.3-10.58-1.01l.63-.41-.01.72.87-.91c1.79-.16 3.91.23 5.7.48 1.17.35 2.25.74 3.39 1.13"/><path fill="#999fa6" d="M1858.77 1661.33c.23-1.6.83-8.27 2.66-8.66 1.39 1.15.29 4.6-.09 6.07z"/><path fill="#192e3d" d="M146.296 1597.37c20.762-.66 39.516 3.57 52.222 22.24 10.863 15.95 7.44 33.49 3.5 50.88-1.185 5.22.342 7.88 1.425 12.91 2.24 12.33-14.642 12.77-22.769 13.96-.578 4.95-.621 10.41-.791 15.43-7.481 1.05-14.591 1.03-22.135 1.19-7.277.63-26.123.02-34.191-.03.018-5.67-.244-10.81-.537-16.47-17.696-3.31-28.621-1.53-21.332-23.16-11.225-41.72-4.264-71.97 44.608-76.95"/><path fill="#fff" d="M121.698 1644.09c24.236-1.76 34.3 18.96 14.945 31.51-28.579 8.22-30.195-23.13-14.945-31.51m46.237.17c6.395-.64 18.407-1.35 19.976 6.25 2.879 13.94 3.122 21.92-9.504 27.01-.704-.06-1.409-.12-2.115-.16-21.174-1.61-29.495-23.14-8.357-33.1m-18.488 29.14c7.607 4.1 16.044 21.24 12.334 28.1a2.43 2.43 0 0 1-1.752 1.24c-3.091.47-6.466-3.08-8.515-4.81-5.742 1.43-5.294 6.9-8.973 4.6-7.59-4.75 4.074-24.95 6.906-29.13"/><path fill="#e6e7e9" d="M108.591 1651.77c.089 9.07-2.727 14.18 1.988 23.63 3.766 7.56 9.004 5.08 12.342 7.99l-.009.56c-18.116.1-21.982-18.84-14.321-32.18"/><path fill="#c5cacc" d="M194.799 1652.58c7.056 13.13 1.533 31.87-16.423 32.09l-1.973.07c-.349-.44-.682-.66-.704-1.13.699-.6 3.502-.89 4.542-1 16.173-1.7 14.994-16.69 14.558-30.03"/><path fill="#192e3d" d="m829.507 1875.96 52.567-.13-.076 87.08c.002 14.55.478 32.86-.346 47.15a2358 2358 0 0 0-52.518-.1zm339.883.05 51.76-.24c-.63 44.76-1 89.53-1.11 134.3l-50.66-.23zm121.54-161.12c16.62-.39 10.69 11.51 20.31 15.13 10.21 3.84 23.61 7.82 34.37 11.4 30.36 10.12 60.82 19.94 91.37 29.46 5.94-3.79 14.07-7.87 20.48-2.7 3.03 5.39 1.83 10.8-2.94 14.05-2.13 1.45-.6 7.17-.16 9.66-1.61 3.71-2.36 3.92-5.76 6.46-11.05.95-11.94-1.46-15.75-10.78-.64-1.56-2.28-3.26-3.99-3.76-13.77-4.03-27.57-7.88-41.3-12.09a3723 3723 0 0 1-85.13-27.73c-6.76 4.21-15.77 5.77-22.47.66-4.62-7.78-.17-9.74 3.49-14.29.63-.78.8-7.44.85-9.13 2.09-3.7 2.93-3.91 6.63-6.34m-950.923-.05c11.017-.11 12.957 3.76 14.356 13.93 43.123 15.75 90.187 27.56 132.581 42.45 9.43-10.45 23.446-7.93 19.676 8.33-10.145 11.03 2.175 9.63-10.738 19.52-9.844-.16-13.013-5.7-15.24-14.48-44.596-12.87-87.099-26.44-131.297-40.3-6.268 4.62-14.073 6.3-20.459.74-3.172-6.08-.458-9.87 4.204-13.75 1.434-3.33.824-6.63.587-10.32 1.581-3.51 3.092-4.03 6.33-6.12m-266.975.08c10.642.06 12.305 4.19 14.797 13.43 15.431 7.48 42.379 14.93 59.63 20.3a5966 5966 0 0 1 70.248 22.96c6.119-4.63 10.925-8.35 18.788-4.29 7.506 11.13-5.516 11.68-3.113 24.02l.224 1.09c-.888 3.35-2.674 4.32-5.346 6.59-17.956.25-9.595-11.98-24.138-16.01-40.254-11.16-84.252-28.63-124.26-38.78-7.957 7.72-19.815 6.72-19.463-6.71.104-3.99 2.02-4.63 4.963-6.67 1.965-4.81.697-5.29.994-10.64 1.844-3.12 3.47-3.57 6.676-5.29m1751.268.21c13.49-1.79 15.6 1.39 15.94 14.33 43.14 12.39 89.15 28.14 132.13 41.94 5.82-4.87 13.95-10.35 20.54-2.88 2.04 6.86-2.62 9.43-4.79 15.65 1.24 7.73 1.88 7.48-3.5 13.03-11.86 4.4-15.93-1.86-17.99-12.81-42.3-11.05-88.72-27.47-131.1-39.87-6 4.96-12.05 6.02-18.69 1.55-4.88-6.85-1.63-10.82 3.29-15.65 2.78-6.91-4.57-7.15 4.17-15.29m-269.57-.2c12.03-.3 14.31 2.61 16.1 14.11 43.49 14.45 87.2 28.27 131.1 41.44 6.96-4.38 11.74-7.14 19.87-2.4 6.21 9.42-2.88 12.6-4.11 17.67 1.59 7.1 1.68 6.85-3.19 12.26-12.38 2.93-14.83-4.75-19.75-14.11l.42.11c-39.78-10.15-88.08-27.48-128.91-39.46-14.74 9.99-30.84-1.65-17.07-14.13 2.99-7.19-4.64-7.09 5.54-15.49m-951.822-.11c17.13-.02 10.705 12.58 24.362 17.18 10.096 3.94 21.343 6.28 31.411 10.07 29.173 10.99 62.385 18.46 91.121 29.61 5.564-5.77 13.466-9.47 20.438-3.4 6.584 12.17-7.56 13.55-4.599 25.21.524 2.07-3.198 4.63-5.002 5.88-11.774 1.16-14.13-6.48-18.744-15.59-9.32-2-22.773-6.65-32.328-9.61l-69.088-21.72c-1.95-.59-26.461-8.22-27.436-7.92-6.841 2.11-9.904 10.47-19.175.39-5.434-5.9.814-8.96 2.993-14.31 1.889-10.17-2.378-8.33 6.047-15.79"/><path fill="#192e3d" d="M494.567 1715.1c6.264 1.35 11.593 5.15 9.491 11.87-2.32 7.42 10.408 6.98 3.182 18.15-4.61 7.12-12.484 3.95-18.163-.05l-1.386-.96c-11.764 3.17-27.992 9.27-39.582 10.53-8.469-1.38-15.465-3.09-23.786-5.3 18.881-7.94 38.11-14.15 57.461-20.69 2.73-.93-3.268-9.49 12.783-13.55m947.343-.25c4.96.23 8.47.45 12.01 4.76 1.48 1.8 2.03 4.66 1.29 6.88-2.28 6.86 4.07 3.95 5.3 11.26.38 2.35-.23 4.76-1.69 6.64-7.33 9.38-13.54 2.14-19.23-.29-13.17 3.55-26.71 7.45-39.91 10.7-8.52-1.37-17.87-5.48-26.08-8.43 20.47-4.26 40.5-10.4 59.84-18.34 2.43-7.74 1.71-7.63 8.47-13.18m-687.065.06c14.718.44 14.768 6.73 12.821 14.57-.233.94 9.524 7.65 4.904 13.9-7.395 9.99-14.292 4.91-22.213.68-12.747 3.17-24.569 7.78-37.64 11.34-8.699-2.37-18.142-4.41-26.616-7.31l1.942-.42c12.103-2.57 48.621-14.99 60.505-19.92.4-7.82-.348-8.23 6.297-12.84m952.185.05c5.17.2 10.18.73 12.84 6.02.71 1.32 1.62 5.49.78 6.87-2.83 4.65 3.72 4.15 4.26 8.69.39 2.74.03 6.29-1.93 8.5-6.89 7.78-13.19 4.11-19.48-1.29-12.7 3.85-24.04 7.48-37.01 10.54-7.42.24-18.62-3.32-26.25-5.23 3.43-1.47 8.32-3.03 12.89-5.17 6.52-3.05 44.5-11.65 45.88-16.86 2.2-8.3 1.13-6.48 8.02-12.07m-1484.021 0c4.036.26 6.918.3 9.817 3.21 8.091 8.12-3.646 8.81 5.157 14.83 9.808 6.7-5.516 23.24-14.492 12.49-.053-.06-1.613-1.96-2.175-2.06-10.495 2.6-29.249 8.24-39.053 11-6.649.92-18.554-4.42-25.633-6.4 4.161-1.91 8.039-3.97 12.513-5.16 15.244-4.06 30.3-9.1 45.132-14.4.4-.14.639-1.57.632-1.93-.118-6.02 3.709-8.55 8.102-11.58m1756.321-.14c4.65.8 5.63.8 8.96 4.55 4.02 4.5-1.32 8.91 2.03 12.06 10.67 10.05 1.91 24.95-15.87 12.98l-1.51-.98c-10.59 3-29.64 10.31-39.53 11.17-8.59-2.06-15.84-3.93-24.27-6.51l-1.09-.32c19.57-5.2 41.34-12 60.2-19.3 1.65-.63-.9-8.31 11.08-13.65m-109.68 45.13c1.24-.25 20.34 6.13 24.2 7.04l-1.18.53c-14.67 6.82-30.86 11.44-46.29 16.08-10.07 3.02 2.05 7.95-14.44 15.35-20.84-2.81-8.92-12.74-11.92-15.78-6.39-6.49-8.01-14.56 1.97-19.14 3.74-1.72 11.71 3.89 14.63 5.82 11.36-2.65 21.9-6.54 33.03-9.9m-1224.28 1.15c8.169-1.12 20.285 3.67 28.016 6.68-13.667 3.95-38.908 12.81-53.737 17.31-.573.33-.766 1.98-.675 2.4.973 4.56-3.612 7.87-6.386 10.49-7.738 2.56-17.669-.55-15.027-10.89.278-1.09 2.416-2.78.503-3.85-5.105-2.86-6.935-10.05-3.742-14.91 5.494-6.54 13.494-2.71 18.164 1.72l1.192 1.09a328 328 0 0 1 31.692-10.04m-263.967-.06c6.713-.26 21.671 4.46 28.619 6.48-15.829 5.73-32.872 10.94-49.014 15.72-10.696 3.16-1.315 5.19-11.76 14.6-4.542.88-5.456 1.41-10.376-.53-3.649-1.44-7.346-6.93-5.494-11.01 1.267-2.79 1.093-2.37-1.331-4.85-6.817-6.99-1.818-18.86 8.189-17.91 4.459.46 6.891 4.64 9.423 7.73 10.423-3.16 21.296-6.91 31.744-10.23m-268.431.06c7.654-.95 18.514 3.35 25.794 5.99l1.906.66c-15.948 5.74-34.68 11.62-51.206 16.66-.467.14-.937 1.48-.885 2.07.413 4.67-2.852 7.74-6.187 11.02-11.571 2.53-18.509-2.27-14.791-13.96.42-1.32-6.565-4.79-6.292-9.08.845-13.21 12.34-12.45 20.46-3.93 12.025-3.01 19.962-6.24 31.201-9.43m1217.788 1.1c7.58-1.28 15.52.98 22.41 4.28l3.73 1.8c-16.33 7.5-32.58 10.63-49.3 16.91-.56.21-.68 3.94-.89 4.8-1.22 4.91-4.42 6.91-8.44 9.41-8.59.49-15.78-3.44-12.3-13.95.33-1-4.49-4.02-4.75-6.46-1.92-18.59 10.3-16.28 21.85-7.75 8.8-3.26 18.6-7 27.69-9.04m266.72-1.15c7.66-.62 14.39 3.39 22.03 4.97l5.64 1.14c-17.5 7.49-36.41 10.83-52.89 18.53-2.68 5.78-.69 7.13-7.15 12.26l-1.26 1.04c-4.63-.01-7.53-.07-11.24-3.18-7.24-6.07-.41-10-1.02-11.64-.42-1.12-2.05-1.88-2.93-2.52-1.94-1.42-3.34-3.26-3.64-5.66-.35-2.87.22-5.58 2.2-7.79 1.89-2.11 4.49-3.13 7.29-3.24 5.37-.19 8.5 2.78 12.16 6.39 10.28-3.29 20.49-6.96 30.81-10.3m317.2-46.08c1.69.04 2.44.09 4.11.27.82.22 5.71 1.09 5.86 2 2 11.55 2.7 12.57-7.18 11.41l-2.05.7c-2.34-.26-8.09.45-8.21-2.82-.28-7.54-1.52-9.55 5.69-11.09z"/><path fill="#192e3d" d="M1918.79 1715.24c.82.22 5.71 1.09 5.86 2 2 11.55 2.7 12.57-7.18 11.41-.48-6.61-.35-7.11 1.32-13.41"/><path fill="#e6e7e9" d="M1914.68 1714.97c1.69.04 2.44.09 4.11.27-1.67 6.3-1.8 6.8-1.32 13.41l-2.05.7c-.45-4.96-.48-9.43-.74-14.38"/><path fill="#192e3d" d="m1637.76 1716.61.92.03c9.27.11 7 3.12 7.08 12.42-10.42-.18-10.08.18-8-12.45m259.65-1.26c7.43 1.08 9.05 4.56 6.85 12.49l-.43 1.63c-7.29-.82-7.09.26-7.4-6.88-.15-3.59.04-3.69.98-7.24m-1752.013.12c7.541 1.89 8.154 4.97 7.199 13.63-1.166-.08-7.749.24-8.229-1.67-.987-3.92-.399-8.21 1.03-11.96m-11.621.91c9.945.61 8.384 3.23 6.896 12.59-9.908-.07-8.198-1.57-6.896-12.59m1514.324.17c10.43.78 7.96.93 7.85 12.7-.75-.06-1.51-.11-2.27-.15-8.15-.41-5.67-3.92-5.58-12.55m-40.9-1.14c8.1 3 8.57 3.64 6 14.29-9.53-1.57-7.85-3.35-6-14.29m-222.64.47c9.85.89 7.17 2.83 6.86 13.57-9.82-.69-7.42-1.96-6.86-13.57m242.39.49c9.99.58 7.48 1.69 7.2 12.81-10.02-.55-7.12-1.74-7.2-12.81m-1471.526-1.14c8.957 2.66 6.484 4.04 6.446 13.89-9.688-.79-8.336-1.92-6.446-13.89m1460.936 1.06c11.07 1.12 6.54 3.59 7.01 12.13-3.03.59-7.24 1.6-7.2-2.82.04-3.11.1-6.21.19-9.31m271.15-.81c7.69 2.13 7.01 7.47 4.43 14.63-7.52-2.77-7.96-7.55-4.43-14.63m-1764.226.12c9.755 2.18 7.605 3.3 6.805 14.32-9.164-3.41-7.039-3.8-6.805-14.32m42.186.33c9.222 1.69 6.581 2.87 6.382 13.42-8.721-1.39-7.908-2.75-6.382-13.42m1228.77-.05c9.4 1.01 6.71 2.44 6.07 13.46-8.93-.98-6.8-2.81-6.07-13.46m264.02.39c9.2 1.27 6.31 2.78 6.09 13.07-8.95-.92-6.4-2.92-6.09-13.07m219.09-1.6.41.36c2.16 1.87 4.84 1.49 5.18 3.42 2.18 12.56-7.77 19.17-5.59-3.78m50.96.61c8.54 1.83 6.24 4.95 5.5 14.42-8.51-1.86-6.19-4.39-5.5-14.42m-1753.979 1c8.981 1.17 6.409 2.66 6.281 12.47-8.901-.96-7.064-2.45-6.281-12.47"/><metadata><recraft-signature>{&quot;signed_by&quot;: &quot;recraft&quot;, &quot;signature_b64&quot;: &quot;XHFcRkqJX780Osj/A9dYUXXhTe+86g8VeNvu9/mXGHmm9BqRGpmt3WRi30nnnXi7UVQBiShiChIknH+PV3PxCg==&quot;, &quot;signing_algo&quot;: &quot;Ed25519&quot;, &quot;generation_timestamp&quot;: 1777252229, &quot;identifier&quot;: &quot;68ec3ff3-1cd5-43f3-9f79-faf52900af55&quot;}</recraft-signature></metadata></svg>