<svg xmlns="http://www.w3.org/2000/svg" width="1024" height="1024" preserveAspectRatio="none" style="display:block" viewBox="0 0 2048 2048"><defs><linearGradient id="a" x1="1797.65" x2="1804.91" y1="378.026" y2="330.828" gradientUnits="userSpaceOnUse"><stop class="stop0" offset="0" stop-color="#636c74"/><stop class="stop1" offset="1" stop-color="#838b90"/></linearGradient></defs><path fill="#fdfdfc" d="M827.059 1334.25c-.356-3.94-2.975-12.37 2.658-6.94 3.203 6.52 11.296 16.84 16.099 22.43 28.658 33.32 65.421 55.97 106.682 70.3 61.272 21.3 129.572 21.24 188.412-7.88 18.4-8.91 35.54-20.22 50.97-33.63-55.93 76.2-136.55 122.74-229.678 135.59-32.798 4.53-54.458 8.82-86.303 19.06l.791 3.01c7.531-.08 15.18-.36 22.632.62l.878.19c28.793-.34 52.053 5.02 80.185 9.81 20.895 3.57 41.885 6.63 62.935 9.17 7.56.96 29.4 4.09 35.85 3.89l1.93 2.23c-4.63-.21-8.87.14-13.49.41-6.49 1.27-48.43 3.01-55.26 2.39-37.263 2.61-75.268 3.03-112.652 4.28-4.593.15-11.672.3-16.11-.17-17.126.9-36.29-3.04-52.963-6.84 12.2 11.83 20.475 13.92 36.757 16.48 26.835 4.22 53.966 6.99 81.064 8.88a3267 3267 0 0 0 241.804 7.7l49.8.12c12.42.03 32.78 1.86 43.08-5.15 9.79-6.65 7.84-20.73.57-28.78-23.51-26.03-59.54-30.69-92.47-33.39-6.14.24-13.56.23-19.82.61-.35-.02-1.04-.32-1.13-.7-.34-1.45 1.9-2.06 2.82-2.42 51.17-40.49 61.35-81.46 71.48-143.77l3.51-1.73c-.11 9.61-5.8 70.66-2.62 73.85 1.17 1.17 3.16 2.15 4.59 3.04 42.88 20.57 111.29 28.88 76.93 102.55-7.23 15.48-22.77 44.98-20.6 62.11 16.04 1.48 104.48-1.05 110.33 1.56 1.11 7.2.34 14.51.54 21.74.46 16.03-.83 35.17.23 50.98 3.14 2.1 6.04 5.98 8.76 8.87 27.95 38.02.24 66.55-.43 107.53l.66 1.67.95 8.7c9.87 41.96 52.71 67.29 89.23 84.35-31.44.07-48.57-.91-79.79-3.23 2.33 8.88 7.24 28.7 8.04 37.56l-.88 1.18-1.3-.96c-.28-.19-.55-.38-.82-.57-31.65-27.15-68.38-57.89-75.53-100.63-1.52-9.72-1.24-16.49-1.03-26.26l-669.316.07-35.821-.11-.515-1.32c-.802-12.54-.112-35.42-.254-49.29q-.414-70.635.347-141.27 15.688-.225 31.377 0c31.159-.17 65.278.7 95.968-.29-10.551-5.38-24.662-14.4-25.992-27.59-4.006-39.73 41.386-60.05 58.733-85.41 32.242-47.12 16.69-122.1 7.182-174.6"/><path fill="#727276" d="m1308.56 1579.5 1.99.75c-.74 1.92-1.39 3.48-2.26 5.36 1.75 1.9 1.68 1.75 2.46 4.24-4.57 15.57-10.86 35.39-2.88 51.99.17.16.33.31.5.46l1.67-.5c-2.07-5.23-4.8-13.85-1.82-19.08l-1.83-1.15c16.04 1.48 104.48-1.05 110.33 1.56 1.11 7.2.34 14.51.54 21.74.46 16.03-.83 35.17.23 50.98 3.14 2.1 6.04 5.98 8.76 8.87 27.95 38.02.24 66.55-.43 107.53l.66 1.67.95 8.7c9.87 41.96 52.71 67.29 89.23 84.35-31.44.07-48.57-.91-79.79-3.23 2.33 8.88 7.24 28.7 8.04 37.56l-.88 1.18-1.3-.96c-.28-.19-.55-.38-.82-.57-31.65-27.15-68.38-57.89-75.53-100.63-1.52-9.72-1.24-16.49-1.03-26.26l-669.316.07-35.821-.11-.515-1.32c-.802-12.54-.112-35.42-.254-49.29q-.414-70.635.347-141.27 15.688-.225 31.377 0c31.159-.17 65.278.7 95.968-.29 7.284.63 16.588.56 23.249 1.53-.072 1.47.059 1.11-.179 1.53l-2.905.64c-3.727-1.63-7.095-1.3-11.167-1.18q-12.75-.255-25.501-.3c-.411 47.61-.462 95.21-.153 142.82l298.17-.01c65.85.06 133.34.92 199.1.06 5.72-8 9.83-13 16.34-20.39.05-12.26-1.44-63.81.97-72.59-10.82-11.37-9.97-24.28-7.62-38.3 1.38-3.89 2.45-7.83 4.19-11.58 2.11-3.25 5.35-9.32 7.74-13.22 3.02-4.9 10-13.62 11.95-17.24 3.47-5.73 4.71-7.75 7.24-14.12"/><path fill="#fdfdfc" d="M770.579 1769.48c37.039-1.11 79.851.08 117.48.01 61.453-.49 122.911-.61 184.361-.36-3.82 7.5-13.34 24.3-14.25 31.44 1.41-.9 14.41-27.74 16.29-31.51l306.48.06c-5.2 13.46-10.61 27.04-14.69 40.89-.4 1.35-.19.77-.87 2.15-6.71-.43-16.43-.14-23.37-.14 2.05-6.19 5.27-14.94 5.28-21.34-2.64 7.16-4.9 14.1-7.25 21.37-28.36-.03-58.35-.52-86.57.23-.87.54-.6.62-1.43.15-16.37-1.4-45.78-.43-63.25-.43l-125.18-.1c2.61-2.5 9.61-9.12 10.67-12.11l-1.22.06 1.34-.66-.89 1.76-1.58-.21c-2.79 2.3-7.03 7.29-9.6 10.14-.35.41-.14.12-.65.96-26.51 1-56.01-.33-82.82.24-9.156.2-42.236.46-49.353-.79-1.088 1.54-.914 1.33-2.483.53-50.869 1.13-105.517.15-156.686.17q-.274-21.255.241-42.51"/><path fill="#616165" d="M1252.04 1812.43c1.62-5.77 15.7-18.03 20.06-22.87.32-.36 1.08-.38 1.48-.05-.74 2.37-16.82 18.02-20.11 22.77-.87.54-.6.62-1.43.15"/><path fill="#8c8a8b" d="M929.548 1808.78c2.668-2.6 13.008-13.71 16.016-14.27-.059.32-.029.25-.257.49l.068.8c-1.437 2.22-12.399 12.31-14.614 13.96z"/><path fill="#231e1e" d="m929.548 1808.78 1.213.98-1.254 1.53c-1.088 1.54-.914 1.33-2.483.53.977-1.71.989-1.58 2.524-3.04"/><path fill="#e64e48" d="m1308.56 1579.5 1.99.75c-.74 1.92-1.39 3.48-2.26 5.36 1.75 1.9 1.68 1.75 2.46 4.24-4.57 15.57-10.86 35.39-2.88 51.99.17.16.33.31.5.46l1.67-.5c-2.07-5.23-4.8-13.85-1.82-19.08l-1.83-1.15c16.04 1.48 104.48-1.05 110.33 1.56 1.11 7.2.34 14.51.54 21.74.46 16.03-.83 35.17.23 50.98 3.14 2.1 6.04 5.98 8.76 8.87 27.95 38.02.24 66.55-.43 107.53l.66 1.67.95 8.7c9.87 41.96 52.71 67.29 89.23 84.35-31.44.07-48.57-.91-79.79-3.23 2.33 8.88 7.24 28.7 8.04 37.56l-.88 1.18-1.3-.96c-.28-.19-.55-.38-.82-.57-31.65-27.15-68.38-57.89-75.53-100.63-1.52-9.72-1.24-16.49-1.03-26.26l.03-1.9c.68-1.38.47-.8.87-2.15 4.08-13.85 9.49-27.43 14.69-40.89l1.05-1.96c3.39-17.69 6.05-35.61-8.77-49.01-.93-.19-1.19-.77-2.12-1.67-2.82-4.44-7.38-6.66-12.19-8.92l-2.49-.88c-4.36-2.82-6.44-3.37-11.16-5.32l-2.19.23-.37-.83c-4.33-1.73-8.04-3.23-12.64-4.05l-1.81-.25c-4.56-2.43-7.7-3.03-12.28-4.93l-1.98-.39c-4.16-1.92-8.32-3.78-12.55-5.52l-1.93-1.15c-5.47-3.54-8.04-4.9-13.43-9.23l-1.02-1.28c-10.82-11.37-9.97-24.28-7.62-38.3 1.38-3.89 2.45-7.83 4.19-11.58 2.11-3.25 5.35-9.32 7.74-13.22 3.02-4.9 10-13.62 11.95-17.24 3.47-5.73 4.71-7.75 7.24-14.12"/><path fill="#616165" d="M1306.39 1621.57c16.04 1.48 104.48-1.05 110.33 1.56 1.11 7.2.34 14.51.54 21.74.46 16.03-.83 35.17.23 50.98l-3.59-.53.4-1.23c-3.76-2.53-9.97-6.13-14.33-7.33-.7-.46-1.4-.93-2.1-1.39-2.2-.89-4.37-1.83-6.53-2.81l-1.54-.73-1.74-.78c-.71-.19-1.43-.39-2.14-.58-4.37-1.78-8.77-2.77-13.03-4.59-1.1.19-2.39.37-3.44.69l-.68-.16.53-1.33c-3.9-1.43-7.29-2.32-11.27-3.84l-2.13-.62c-4.03-.86-7.94-2.28-11.88-3.5l-2.12-1.17c-3.95-1.2-8.23-3.21-11.86-5.17l-1.88-2.58c-5.45-.81-12.1-5.59-12.62-11.63l-1.88 1.13c-2.06-2.64-2.25-2.83-3.62-5.9-2.07-5.23-4.8-13.85-1.82-19.08z"/><path fill="#fdfdfc" d="M1416.72 1623.13c1.11 7.2.34 14.51.54 21.74.46 16.03-.83 35.17.23 50.98l-3.59-.53.4-1.23c-3.76-2.53-9.97-6.13-14.33-7.33.15-20.88.15-41.77 0-62.66 4.58.04 10.48.18 14.97.03.15-1.09.79-.87 1.78-1"/><path fill="#616165" d="M1416.72 1623.13c1.11 7.2.34 14.51.54 21.74.46 16.03-.83 35.17.23 50.98l-3.59-.53.4-1.23c1.95-7.45 1.09-60.17.64-69.96.15-1.09.79-.87 1.78-1"/><path fill="#fdfdfc" d="m1373.13 1624.07 12.98-.06c.22 18.27.41 38.24-.19 56.46-4.37-1.78-8.77-2.77-13.03-4.59 1.03-14.48.14-36.72.24-51.81m-14.78-.01 12.57-.05c.05 6.59 1.35 48.21-1.62 51.07-3.9-1.43-7.29-2.32-11.27-3.84-.03-15.45-.36-31.84.32-47.18m29.71 56.99c.13-18.64-.34-37.92.63-56.33.06-1.08 8.55-.84 8.6-.12 1.09 15.66.81 46.51.58 60.77-2.2-.89-4.37-1.83-6.53-2.81l-1.54-.73zm-44.03-57.03 12.4.08c-.4 15.61-.24 30.95-.53 46.52-4.03-.86-7.94-2.28-11.88-3.5zm-14 0c1.81.02 9.87-.7 11.33.54 1.49 1.28.62 36.43.54 41.39-3.95-1.2-8.23-3.21-11.86-5.17-.27-11.87-.05-24.81-.01-36.76m-14.7-.01c4.23-.04 8.46-.05 12.7-.03.02 10.67-.41 23.78.13 34.22-5.45-.81-12.1-5.59-12.62-11.63.96-7.91.29-14.67-.21-22.56m-7.11-1.29c.55.2 5.31 1.57 5.42 2.66.68 6.95.55 15.33.02 22.32-2.06-2.64-2.25-2.83-3.62-5.9-2.07-5.23-4.8-13.85-1.82-19.08"/><path fill="#4a201d" d="m1277.44 1635.66 1.86 1.68c-14.08 76.45 119.53 39.04 106.77 117.29-5.15 31.61-20.73 44.22-18.72 79.32-.28 2.49-.38 3.92-.97 6.37-1.52-9.72-1.24-16.49-1.03-26.26l.03-1.9c.68-1.38.47-.8.87-2.15 4.08-13.85 9.49-27.43 14.69-40.89l1.05-1.96c3.39-17.69 6.05-35.61-8.77-49.01-.93-.19-1.19-.77-2.12-1.67-2.82-4.44-7.38-6.66-12.19-8.92l-2.49-.88c-4.36-2.82-6.44-3.37-11.16-5.32l-2.19.23-.37-.83c-4.33-1.73-8.04-3.23-12.64-4.05l-1.81-.25c-4.56-2.43-7.7-3.03-12.28-4.93l-1.98-.39c-4.16-1.92-8.32-3.78-12.55-5.52l-1.93-1.15c-5.47-3.54-8.04-4.9-13.43-9.23l-1.02-1.28c-10.82-11.37-9.97-24.28-7.62-38.3m148.31 186.99 1.68-.03c9.87 41.96 52.71 67.29 89.23 84.35-31.44.07-48.57-.91-79.79-3.23 2.33 8.88 7.24 28.7 8.04 37.56l-.88 1.18-1.3-.96.3-1.53c-1.99-13.53-5.48-26.5-9.21-39.61 7.86 1.57 12.21 2.41 20.14 2.9.91.1 1.06.03 1.79.43 18.76 1.48 33.15 1.35 52 1.18-35.25-18.99-72.25-40.73-82-82.24"/><path fill="#7a2a26" d="M1367.35 1833.95c6.81 46.78 40.75 76.22 75.68 106.04l-.3 1.53c-.28-.19-.55-.38-.82-.57-31.65-27.15-68.38-57.89-75.53-100.63.59-2.45.69-3.88.97-6.37m58.9-129.23c27.95 38.02.24 66.55-.43 107.53l.66 1.67.95 8.7-1.68.03c-13.39-34.64 30.39-70.39-.16-116.14z"/><path fill="#261610" d="m1308.37 1642.3 1.67-.5c1.37 3.07 1.56 3.26 3.62 5.9l1.88-1.13c.52 6.04 7.17 10.82 12.62 11.63l1.88 2.58c3.63 1.96 7.91 3.97 11.86 5.17l2.12 1.17c3.94 1.22 7.85 2.64 11.88 3.5l2.13.62c3.98 1.52 7.37 2.41 11.27 3.84l-.53 1.33c-21.08-5.74-49.82-13.1-60.4-34.11"/><path fill="#231e1e" d="m1308.56 1579.5 1.99.75c-.74 1.92-1.39 3.48-2.26 5.36-10.92 18.16-23.62 30.72-28.99 51.73l-1.86-1.68c1.38-3.89 2.45-7.83 4.19-11.58 2.11-3.25 5.35-9.32 7.74-13.22 3.02-4.9 10-13.62 11.95-17.24 3.47-5.73 4.71-7.75 7.24-14.12"/><path fill="#261610" d="M1369.45 1676.57c1.05-.32 2.34-.5 3.44-.69 4.26 1.82 8.66 2.81 13.03 4.59.71.19 1.43.39 2.14.58l1.74.78 1.54.73c2.16.98 4.33 1.92 6.53 2.81.7.46 1.4.93 2.1 1.39 4.36 1.2 10.57 4.8 14.33 7.33l-.4 1.23c-16.28-7.46-27.77-12.27-44.45-18.75m44.45 18.75 3.59.53c3.14 2.1 6.04 5.98 8.76 8.87l-.66 1.79c-3.84-4.58-7.02-7.49-11.69-11.19"/><path fill="#687277" d="M659.791 1622.14q15.688-.225 31.377 0l.785 1.12c-.663 16.62-1.649 138.05 1.146 142.42l1.901.53c-8.262 1.67-23.234-.64-31.492 2.11 10.467.77 19.573.33 29.386.87l1.128.12c.407.03 1.775.21 1.777.79.053 13.59 1.155 29.17.029 42.64l.206 1.39-35.821-.11-.515-1.32c-.802-12.54-.112-35.42-.254-49.29q-.414-70.635.347-141.27"/><path fill="#fdfdfc" d="m692.894 1769.19 1.128.12c.407.03 1.775.21 1.777.79.053 13.59 1.155 29.17.029 42.64-.336-.12-3.38-1.09-3.374-1.44.154-8.32-2.036-35.64.44-42.11m593.186-93.95c5.39 4.33 7.96 5.69 13.43 9.23-.92 25.9.15 55.97-.01 82.42l-13.47.05c.06-27.46-1.21-65.17.05-91.7m15.36 10.38c4.23 1.74 8.39 3.6 12.55 5.52-.06 25.09-.44 50.72-.19 75.73-4.01.06-8.02.06-12.02-.02.14-27.08.03-54.15-.34-81.23m14.53 5.91c4.58 1.9 7.72 2.5 12.28 4.93-1.21 19.14-.17 50.19-.23 70.36l-12.51.05c0-23.1-.47-52.37.46-75.34m14.09 5.18c4.6.82 8.31 2.32 12.64 4.05l.37.83c-.23 14.5-.3 28.99-.21 43.49.01 5.95.52 16.22-.27 21.72l-12.57.06z"/><path fill="#a0a0a4" d="m1342.7 1700.76.37.83c-.23 14.5-.3 28.99-.21 43.49.01 5.95.52 16.22-.27 21.72-.93-8.69-.97-58.3.11-66.04"/><path fill="#fdfdfc" d="M1345.26 1701.36c4.72 1.95 6.8 2.5 11.16 5.32-1.04 16.47-.34 43.12-.32 60.16l-11.49-.01c.12-15.13-1.11-51.97.65-65.47m13.65 6.2c4.81 2.26 9.37 4.48 12.19 8.92-.99 13-.13 36.18-.14 50.19-4.25.16-8.64.14-12.91.19.01-7.02-.41-54.82.86-59.3m-666.957-84.3 3.362 1.17c1.066 2.81 1.269 136.79-.315 141.78l-1.901-.53c-2.795-4.37-1.809-125.8-1.146-142.42m681.267 94.89c14.82 13.4 12.16 31.32 8.77 49.01-.52-.04-8.28-.05-8.31-.98-.51-15.57-.91-32.42-.46-48.03"/><path fill="#231e1e" d="M1062.33 1810.88c.68.64 1.05.79 1.34 1.51-.04.08-.08.15-.12.23-.69.04-1.28-.45-1.87-.78.51-.84.3-.55.65-.96"/><path fill="#fdfdfc" d="M698.109 1624.07h13.064c.777 18.38.283 39.29.314 57.85l.495 84.27-13.888-.07zm28.543.03h13.225l-.255 142.52-12.662.18zm28.841-.03 12.594.02-.103 142.65-12.094.05c-.111-45.02 1.277-98.52-.397-142.72m-13.463.02 11.096-.02.619 142.56-11.711.14zm-28.817-.03c4.235-.12 6.772-.6 10.611.89 1.762 3.3.973 126.82.958 141.19-3.996.22-5.357.46-9.209-.31-.548-.54-1.096-1.08-1.644-1.61-.789-36.69-.254-106.54-.716-140.16m-14.535 145.27c4.685.01 8.704-.21 13.352-.38q-.226 21.585-.155 43.17c-4.333-.06-8.666-.04-12.999.05-.468-14.65-.327-28.25-.198-42.84m28.398-.11c4.187-.06 8.373-.05 12.56.01.028 14.43.25 28.44-.35 42.88a870 870 0 0 0-12.517 0c-.012-14.3.091-28.6.307-42.89m15.005-.02c3.896-.03 7.793-.03 11.69-.01.099 14.28.117 28.56.052 42.85-14.7.01-11.96 2.38-11.946-13.04.008-9.88-.071-19.93.204-29.8m14.039.11q5.926-.06 11.851-.03l-.13 42.7c-2.39 0-9.361.85-11.245-.45-1.455-1-.588-38.82-.476-42.22m-42.475-.24c2.201-.02 8.941-.87 10.739.42 1.001.72.314 38.22.133 42.26-13.869 1.64-10.779-.63-10.92-13.75-.103-9.6-.008-19.33.048-28.93m570.025-19.34c.69 4.11.42 12.53.47 17.14-4.14.17-8.57.16-12.73.24-.14-2.27.33-2.71 1.93-4.83 3.26-4.33 6.71-8.52 10.33-12.55"/><path fill="#687277" d="M827.059 1334.25c-.356-3.94-2.975-12.37 2.658-6.94 3.203 6.52 11.296 16.84 16.099 22.43 28.658 33.32 65.421 55.97 106.682 70.3 61.272 21.3 129.572 21.24 188.412-7.88 18.4-8.91 35.54-20.22 50.97-33.63-55.93 76.2-136.55 122.74-229.678 135.59-32.798 4.53-54.458 8.82-86.303 19.06l.791 3.01c7.531-.08 15.18-.36 22.632.62l.878.19c28.793-.34 52.053 5.02 80.185 9.81 20.895 3.57 41.885 6.63 62.935 9.17 7.56.96 29.4 4.09 35.85 3.89l1.93 2.23c-4.63-.21-8.87.14-13.49.41-6.49 1.27-48.43 3.01-55.26 2.39-37.263 2.61-75.268 3.03-112.652 4.28-4.593.15-11.672.3-16.11-.17-17.126.9-36.29-3.04-52.963-6.84 12.2 11.83 20.475 13.92 36.757 16.48 26.835 4.22 53.966 6.99 81.064 8.88a3267 3267 0 0 0 241.804 7.7l49.8.12c12.42.03 32.78 1.86 43.08-5.15 9.79-6.65 7.84-20.73.57-28.78-23.51-26.03-59.54-30.69-92.47-33.39-6.14.24-13.56.23-19.82.61-.35-.02-1.04-.32-1.13-.7-.34-1.45 1.9-2.06 2.82-2.42 51.17-40.49 61.35-81.46 71.48-143.77l3.51-1.73c-.11 9.61-5.8 70.66-2.62 73.85 1.17 1.17 3.16 2.15 4.59 3.04 42.88 20.57 111.29 28.88 76.93 102.55-7.23 15.48-22.77 44.98-20.6 62.11l1.83 1.15c-2.98 5.23-.25 13.85 1.82 19.08l-1.67.5c-.17-.15-.33-.3-.5-.46-7.98-16.6-1.69-36.42 2.88-51.99-.78-2.49-.71-2.34-2.46-4.24.87-1.88 1.52-3.44 2.26-5.36l-1.99-.75c-2.53 6.37-3.77 8.39-7.24 14.12-1.95 3.62-8.93 12.34-11.95 17.24-2.39 3.9-5.63 9.97-7.74 13.22-9.41.03-88.72-1.3-92.19 1.66-.3.25-.52.59-.78.89l-.99-1.04c-1.19-.49-3.19-1.15-4.42-1.03-22.26 2.24-198.235-3.88-207.432 2.32l-1.189-1.15-.49-.6c-2.229-1-150.94-.63-163.933-.22.238-.42.107-.06.179-1.53-6.661-.97-15.965-.9-23.249-1.53-10.551-5.38-24.662-14.4-25.992-27.59-4.006-39.73 41.386-60.05 58.733-85.41 32.242-47.12 16.69-122.1 7.182-174.6"/><path fill="#dd7328" d="m899.322 1536.81.878.19c28.793-.34 52.053 5.02 80.185 9.81 20.895 3.57 41.885 6.63 62.935 9.17 7.56.96 29.4 4.09 35.85 3.89l1.93 2.23c-4.63-.21-8.87.14-13.49.41-6.49 1.27-48.43 3.01-55.26 2.39-37.263 2.61-75.268 3.03-112.652 4.28-4.593.15-11.672.3-16.11-.17-12.082-3.84-51.237-.67-53.919-15.03 1.636-6.1 5.127-8.04 10.371-11.36 2.418-7.51 51.768-5.29 59.282-5.81"/><path fill="#4a201d" d="M900.2 1537c28.793-.34 52.053 5.02 80.185 9.81 20.895 3.57 41.885 6.63 62.935 9.17 7.56.96 29.4 4.09 35.85 3.89l1.93 2.23c-4.63-.21-8.87.14-13.49.41-3.06-2.99-6.85-3.15-11.21-3.1-5.49-.93-12.41-1.99-17.9-2.38-38.06-2.76-79.144-15.42-116.779-17.32-1.548-.84-1.584-.65-3.464-.49l-9.234-.18c-3.798-.74-5.195-.85-8.823-2.04"/><path fill="#da642f" d="M1056.4 1559.41c4.36-.05 8.15.11 11.21 3.1-6.49 1.27-48.43 3.01-55.26 2.39 4.22-5.18 38.45.11 44.05-5.49"/><path fill="#823f14" d="m899.322 1536.81.878.19c3.628 1.19 5.025 1.3 8.823 2.04-21.189.05-43.363-2.82-64.378 2.57-2.315.59-2.135.87-4.605 1.01 2.418-7.51 51.768-5.29 59.282-5.81m18.935 2.41c1.88-.16 1.916-.35 3.464.49-1.96.31-1.921.56-3.464-.49"/><path fill="#e64e48" d="M1246.64 1477.35c-2.27-4.9-4.94-16.7-1.2-20.96l3.07.93 1.55-.41c42.88 20.57 111.29 28.88 76.93 102.55-7.23 15.48-22.77 44.98-20.6 62.11l1.83 1.15c-2.98 5.23-.25 13.85 1.82 19.08l-1.67.5c-.17-.15-.33-.3-.5-.46-7.98-16.6-1.69-36.42 2.88-51.99-.78-2.49-.71-2.34-2.46-4.24.87-1.88 1.52-3.44 2.26-5.36l-1.99-.75c6-23.64 2.75-48.41-19.22-62.29-20.59-13-31.63-15.97-44.07-38.19z"/><path fill="#7a2a26" d="M1250.06 1456.91c42.88 20.57 111.29 28.88 76.93 102.55-7.23 15.48-22.77 44.98-20.6 62.11l1.83 1.15c-2.98 5.23-.25 13.85 1.82 19.08l-1.67.5c-.17-.15-.33-.3-.5-.46-7.98-16.6-1.69-36.42 2.88-51.99-.78-2.49-.71-2.34-2.46-4.24.87-1.88 1.52-3.44 2.26-5.36.44-.84.88-1.67 1.33-2.5 1.16.32 1.19.22 2 .87 43.22-67.96 13.46-93.57-51.62-113.96-3.57-1.12-11.4-4.67-13.75-7.34z"/><path fill="#da642f" d="M1311.88 1577.75c1.16.32 1.19.22 2 .87-1.36 3.64-2.61 7.36-3.13 11.23-.78-2.49-.71-2.34-2.46-4.24.87-1.88 1.52-3.44 2.26-5.36.44-.84.88-1.67 1.33-2.5"/><path fill="#7a2a26" d="M1246.64 1477.35c4.19 7.34 7.92 14.28 14.71 19.74 25.85 20.74 47.68 18.3 51.61 58.39.82 8.42-.54 13.92-1.08 22.27-.45.83-.89 1.66-1.33 2.5l-1.99-.75c6-23.64 2.75-48.41-19.22-62.29-20.59-13-31.63-15.97-44.07-38.19z"/><path fill="#fdfdfc" d="M1301.32 1593.62c-1.01-2.43-.55-8.2-.49-11.07.94-46.9-56.53-53.06-56.52-103.63l.96.1c12.44 22.22 23.48 25.19 44.07 38.19 21.97 13.88 25.22 38.65 19.22 62.29-2.53 6.37-3.77 8.39-7.24 14.12"/><path fill="#616165" d="M1191.23 1528.03c-6.14.24-13.56.23-19.82.61-.35-.02-1.04-.32-1.13-.7-.34-1.45 1.9-2.06 2.82-2.42 5.08 2.13 9.98 0 18.13 2.51m-364.171-193.78c-.356-3.94-2.975-12.37 2.658-6.94a111 111 0 0 0-2.658 6.94"/><path fill="#e7e7e6" d="M876.69 1536.19c-.97.01-6.755.35-7.133-.5.852-.84 5.068-2.09 6.342-2.51z"/><path fill="#616165" d="M975.818 1626.88c-5.039 6.53-17.13 17.66-23.373 23.95l-46.612 46.63c-1.064 1.06-5.312 6-6.967 5.39 1.506-4.74 66.501-65.51 75.196-76.4l.567-.72z"/><path fill="#727276" d="M1188.66 1626.63c-1.86 9.17-7.01 18.84-10.11 27.74-.34.99-4.17 11.7-5.55 9.94 0-1.92 12.86-33.16 14.67-38.72z"/><path fill="#8c8a8b" d="M796.134 1624.37c4.072-.12 7.44-.45 11.167 1.18-2.878 2.72-11.941 12.2-14.967 12.77l-.132-.38c.53-1.73 11.047-10.55 12.989-12.34-3.141-.5-6.064-.48-9.057-1.23"/><path fill="#616165" d="M1112.83 1703.84c.26.25 1.15 1.04.96 1.23-10.73 10.96-37.73 37.44-46.76 46.62-.02-.02-.91-.63-.79-.79 7.63-9.7 39.55-40.6 46.59-47.06m-232.869 18.04c.474.49.82.67.916 1.22-.341 1.01-29.322 28.9-32.637 32.05-.022-.02-1.131-.89-.946-1.07 6.955-6.95 26.752-26.71 32.667-32.2"/><path fill="#727276" d="M809.66 1666.85c.76.66.554.41.805.79-.273 1.88-23.917 25.37-27.512 29.01-.003 0-1.019-.6-.9-.75 4.225-5.55 23.962-25.49 27.607-29.05m150.379-15.16c.488.27.975.55 1.463.82-2.116 3.2-15.887 15.43-19.758 19.24-.841-.03-.563.02-.958-.09-.668-1.69 17.103-17.99 19.253-19.97"/><path fill="#687277" d="M1139.16 728.265c77.9 25.313 134.5 67.049 172.89 140.208 21.07 35.744 20.15 69.369 18.25 109.011-.57 11.796 1.94 31.716 2.33 45.106 4.15 141.55-54.88 296.69-185.99 365.13-53.63 28-119.32 33.72-177.308 15.08-74.864-25.25-137.903-90.72-172.5-160.32a446.2 446.2 0 0 1-47.215-179.4c-.429-8.46-1.302-28.66.31-36.35 1.403-25.41 3.43-46.892 5.328-71.997-.317-5.083 1.011-16.506-.314-20.616-3.017-.33-3.387-.3-5.75-2.205l1.013-.556c6.221.443 13.905-5.247 19.526-8.187 58.01-30.333 128.365-51.974 192.877-29.748 16.18 5.575 38.123 14.961 49.793 28.831a43.8 43.8 0 0 1 9.98 21.698c1.89 12.422-.02 49.275-.31 64.05l-3.24 130.38c-7.81-8.11-14.75-15.58-26.801-15.83-10.571-.21-19.503 8.54-18.196 19.17 2.237 18.21 17.567 21.59 32.417 22.74-3.22-3.76-10.154-10.89-10.999-15.18 21.829-11.69 37.579 31.92 59.919 21.07 12.62-6.12 17.5-26.73 36.44-20.59 3.38.97 3.64 1.77 4.89 4.12-.63 3.48-3.28 5.38-5.89 8.02l.07 1.34c12.04 3.13 19.74-11.75 21.81-21.52 1.68-7.93-2.49-20.14-6.97-26.65-.71-1.02-1.45-2.02-2.21-3-.89-.62-9.4-7.69-5.97-8.31.91.6 1.3 1.26 1.8 2.23 10.36 7.15 22.89 24.02 24.48 36.39 4.08 31.77-27.18 35.34-49.74 32.67-4.25 15.93-4.98 27.58 5.36 41.58-8.55-4.75-11.76-3.76-21.63-3.48-4.66 1.1-5.61 1.01-10.52.63-34.03-7.85-56.446 42.41-110.646 31.07l-2.369 3.21c32.379 18.71 59.546-6.24 82.145-21.16 6.25-4.12 30.92 17.38 41.74 10.68 13.6-3.46 13.26-8.64 27.38-13.36 22.3 8.4 22.32 19.51 50.24 24.05 1.73.84 1.69.94 3.3 2.29-8.77 2.17-28.95 2.13-30.89 3.6l-.2 1.43c-.35 3.03-1.82 5.83-3 8.6l-3.26 1.92c-9.29 5.38-14.15 5.53-23.97 8.01 13.32 12.7 19.16 20.42 24 38.39-14.51-14.39-26.13-16.76-46.36-17.43-42.85-1.43-73.697 36.55-39.21 72.13 4.39 4.53 11.02 8.1 15.15 12.19 8.17 4.12 14.32 6.68 22.87 10.06l27.33 9.3c66.73-35.84 120.88-113.63 151.35-181.46 2.84-7.61 5.69-15.94 7.63-23.84 7.32-29.88 23.57-55.3 37.67-82.5 27.44-52.93 50.59-107.75 51.18-168.296-28.63 41.92-126.64 93.296-173.29 70.476-2.51-1.37-3.44-2.24-5.6-3.6-10.95-6.92-11.19-16.884-15.11-26.829-15.54 7-20.04 11.831-29.75 25.319.36-24.676 3.4-42.044 20.92-60.729 25.67-28.06 61.57-24.498 92.92-8.751 27.29 13.712 46.73 29.253 78.49 28.796l-2.31-2.591c-22.76.621-48.65-22.084-67.02-33.589-40.9-25.61-81.1-25.878-117.19 8.18a123 123 0 0 0-33.12 53.474c-4.56-4.004-3.05-10.231-3.31-16.339-.27-16.877-.95-30.165 6.41-45.819 10.17-21.656 30.29-37.939 52.54-45.92 45.91-16.466 102.12-.7 144.81 19.277-26.44-56.888-53.94-99.437-101.93-141.371-9.83-8.588-21.54-16.126-31.96-24.073-.42-5.437-7.4-2.891-5.51-10.31"/><path fill="#687277" d="M750.204 931.356c6.221.443 13.905-5.247 19.526-8.187 58.01-30.333 128.365-51.974 192.877-29.748 16.18 5.575 38.123 14.961 49.793 28.831a43.8 43.8 0 0 1 9.98 21.698c1.89 12.422-.02 49.275-.31 64.05l-3.24 130.38c-7.81-8.11-14.75-15.58-26.801-15.83-10.571-.21-19.503 8.54-18.196 19.17 2.237 18.21 17.567 21.59 32.417 22.74-3.22-3.76-10.154-10.89-10.999-15.18 21.829-11.69 37.579 31.92 59.919 21.07 12.62-6.12 17.5-26.73 36.44-20.59 3.38.97 3.64 1.77 4.89 4.12-.63 3.48-3.28 5.38-5.89 8.02l.07 1.34c12.04 3.13 19.74-11.75 21.81-21.52 1.68-7.93-2.49-20.14-6.97-26.65-.71-1.02-1.45-2.02-2.21-3-.89-.62-9.4-7.69-5.97-8.31.91.6 1.3 1.26 1.8 2.23 10.36 7.15 22.89 24.02 24.48 36.39 4.08 31.77-27.18 35.34-49.74 32.67-4.25 15.93-4.98 27.58 5.36 41.58-8.55-4.75-11.76-3.76-21.63-3.48-4.66 1.1-5.61 1.01-10.52.63-34.03-7.85-56.446 42.41-110.646 31.07l-2.369 3.21c-.692-.41-1.388-.81-2.089-1.21-6.87-.46-12.363-7.59-16.512-12.67-2.07 6.97-10.475 39.96-12.577 43.2l-.296.64c-.135 4.79-2.068 16.46-4.954 20.14-.462-4.15 2.063-19.48 2.289-25.49.761-20.25-.791-40.32-5.28-59.99-8.495-40.09-43.811-60.42-73.28-84.15-27.462-22.12-53.65-48.67-63.303-83.5-1.881-6.79-3.292-14.03-5.349-20.72l-.256-.81c-.584 3.14-1.246 6.28-1.642 9.45-1.182-2.75-.843-3.11-.899-6.22 1.403-25.41 3.43-46.892 5.328-71.997-.317-5.083 1.011-16.506-.314-20.616-3.017-.33-3.387-.3-5.75-2.205z"/><path fill="#dd7328" d="M756.524 938.899c1.805 18.979 9.448 14.465 12.107 23.679l-6.116-4.735-.681 1.216c15.845 52.321 62.179 106.461 109.855 132.291a254 254 0 0 0 15.652 7.74c9.021 3.47 15.021 5.71 24.645 8.01l6.58 1.54c9.82 2.22 19.648 3.02 29.662 3.68 2.462 1.46 12.012.8 15.609.91l1.682 1.21c-.893 5.26-16.883 38.59-20.245 46.38a3173 3173 0 0 0-29.147 71.58c4.585 4.96 7.079 7.5 12.23 11.87l3.629 2.58c-6.87-.46-12.363-7.59-16.512-12.67-2.07 6.97-10.475 39.96-12.577 43.2l-.296.64c-.135 4.79-2.068 16.46-4.954 20.14-.462-4.15 2.063-19.48 2.289-25.49.761-20.25-.791-40.32-5.28-59.99-8.495-40.09-43.811-60.42-73.28-84.15-27.462-22.12-53.65-48.67-63.303-83.5-1.881-6.79-3.292-14.03-5.349-20.72l-.256-.81c-.584 3.14-1.246 6.28-1.642 9.45-1.182-2.75-.843-3.11-.899-6.22 1.403-25.41 3.43-46.892 5.328-71.997 1.337-2.881 1.165-12.132 1.269-15.834"/><path fill="#231e1e" d="M756.524 938.899c1.805 18.979 9.448 14.465 12.107 23.679l-6.116-4.735-.681 1.216c15.845 52.321 62.179 106.461 109.855 132.291a254 254 0 0 0 15.652 7.74l-.707 1.27c-59.264-26.19-113.868-87.53-128.875-151.198-4.868 53.238-11.48 96.398 26.087 140.708 9.427 11.12 24.094 26.4 35.166 34.52 49.002 35.98 85.2 63.59 82.039 130.51-.163 3.46-.754 20.69 1.55 23.12-.135 4.79-2.068 16.46-4.954 20.14-.462-4.15 2.063-19.48 2.289-25.49.761-20.25-.791-40.32-5.28-59.99-8.495-40.09-43.811-60.42-73.28-84.15-27.462-22.12-53.65-48.67-63.303-83.5-1.881-6.79-3.292-14.03-5.349-20.72l-.256-.81c-.584 3.14-1.246 6.28-1.642 9.45-1.182-2.75-.843-3.11-.899-6.22 1.403-25.41 3.43-46.892 5.328-71.997 1.337-2.881 1.165-12.132 1.269-15.834m207.313 174.331 1.682 1.21c-.893 5.26-16.883 38.59-20.245 46.38a3173 3173 0 0 0-29.147 71.58c4.585 4.96 7.079 7.5 12.23 11.87l3.629 2.58c-6.87-.46-12.363-7.59-16.512-12.67-2.07 6.97-10.475 39.96-12.577 43.2 4.893-32.09 17.396-60.9 29.68-90.53 9.782-23.92 20.146-47.6 31.083-71.01-.082-1.13.018-1.32.177-2.61"/><path fill="#823f14" d="M887.341 1099.09c9.021 3.47 15.021 5.71 24.645 8.01l6.58 1.54c9.82 2.22 19.648 3.02 29.662 3.68 2.462 1.46 12.012.8 15.609.91-.159 1.29-.259 1.48-.177 2.61-3.572-1.48-18.764-1.12-24.155-1.9-15.871-2.31-39.057-5.62-52.871-13.58z"/><path fill="#fdfdfc" d="M887.341 1099.09a254 254 0 0 1-15.652-7.74c-47.676-25.83-94.01-79.97-109.855-132.291l.681-1.216 6.116 4.735c24.778 24.661 89.79 51.262 124.422 54.582l.78-1.81c14.523 2.89 24.039 2.55 36.992-6.56 2.086-1.46 7.104-6.38 8.083-6.93l1.318-.72c.264-1.689.186-2.346 1.009-3.761 4.324-4.878 5.126-10.213 6.897-16.209l1.466.059 2.017-.649c5.943 3.084 9.143 4.887 14.701 8.636 1.395 17.754-.187 45.434-.132 64.164.045 15.7 1.259 44.41-.222 58.72-5.922.16-11.811.37-17.734.22-10.014-.66-19.842-1.46-29.662-3.68l-6.58-1.54c-9.624-2.3-15.624-4.54-24.645-8.01"/><path fill="#8c8a8b" d="M893.833 1015.35c14.523 2.89 24.039 2.55 36.992-6.56 2.086-1.46 7.104-6.38 8.083-6.93l1.318-.72c-7.315 15.77-31.62 19.9-47.173 16.02zm54.299-34.18 1.466.059c-1.309 8.597-3.223 9.132-5.286 15.866l-3.077.284c4.324-4.878 5.126-10.213 6.897-16.209"/><path fill="#d0cdcc" d="m944.312 997.095-.772 1.04c-.892 1.294-2.049 2.105-3.314 3.005.264-1.689.186-2.346 1.009-3.761z"/><path fill="#fdfdfc" d="M893.833 1015.35c-8.937-4.42-14.194-7.53-20.381-15.793-10.123-13.514-9.556-32.692-.261-46.515 14.475-21.524 46.1-21.934 63.806-4.02 10.637 10.762 10.585 17.459 11.098 31.278l.037.87c-1.771 5.996-2.573 11.331-6.897 16.209-.823 1.415-.745 2.072-1.009 3.761l-1.318.72c-.979.55-5.997 5.47-8.083 6.93-12.953 9.11-22.469 9.45-36.992 6.56m153.837 196.66c.11-3.23-.7-26.31 2.23-27.54 6.81-2.83 10.18 1.16 9.46 8.53-.7 7.15-.92 10.72-3.23 18.29l1.48 1.86c-4.66 1.1-5.61 1.01-10.52.63z"/><path fill="#4d4a4c" d="m1056.13 1211.29 1.48 1.86c-4.66 1.1-5.61 1.01-10.52.63l.58-1.77c3.06-.15 5.4-.34 8.46-.72"/><path fill="#fdfdfc" d="M928.357 1244.27c3.978-.22 4.157-.12 8.087.58l-2.369 3.21c-.692-.41-1.388-.81-2.089-1.21z"/><path fill="#a0a0a4" d="M1103.31 1112.07c-.89-.62-9.4-7.69-5.97-8.31.91.6 1.3 1.26 1.8 2.23 1.31 2 3.45 4.45 4.17 6.08"/><path fill="#fdfdfc" d="M792.509 964.102c51.401-8.492 89.548-77.874 152.001-34.435 16.251 11.303 28.44 29.352 31.65 49.147a57.2 57.2 0 0 1-.514 21.896c-1.696-.27-1.472-.44-2.607-1.992l-.248-3.345c.354-21.57-12.398-43.272-29.099-56.689-51.059-41.02-115.662 38.276-159.021 28.003 3.095-1.627 4.381-1.697 7.838-2.585"/><path fill="#616165" d="M973.508 1006.99c3.01.98-.134 4.98-1.528 5.4-2.787-.6-2.521-13.168.811-17.017l.248 3.345c1.135 1.552.911 1.722 2.607 1.992-.738 3.1-.784 3.45-2.138 6.28"/><path fill="#d0cdcc" d="M973.039 998.718c1.135 1.552.911 1.722 2.607 1.992-.738 3.1-.784 3.45-2.138 6.28-.383-3.42-.518-4.81-.469-8.272m-201.726-36.264c8.567.891 12.463 1.481 21.196 1.648-3.457.888-4.743.958-7.838 2.585-2.502-.432-10.579-3.289-13.358-4.233"/><path fill="#dd7328" d="M937.335 1258.03c21.868 18.54 28.469 20.91 55.261 29.73-.772 1.5-1.524 3.02-2.256 4.54-14.399 30.07-11.173 68.11 22.86 83.27 5.5 3.49 12.46 5.59 18.72 7.25 3.63.84 9.61 3.49 13.26 4.97-3.53.19-7.07.36-10.6.51-31.47 1.25-63.961-4.49-87.732-26.75a85 85 0 0 1-26.455-59.72c-.375-16.84 5.359-31.62 16.942-43.8"/><path fill="#fdfdfc" d="M1136.77 977.836c-.56-18.598 11.53-35.222 29.4-40.417 17.86-5.195 36.98 2.354 46.48 18.355 9.49 16 6.96 36.399-6.16 49.596-13.11 13.19-33.5 15.84-49.55 6.44l-1.06 1.33c-2.51-1.37-3.44-2.24-5.6-3.6-10.95-6.92-11.19-16.884-15.11-26.829 2.02-1.598 1.06-1.987 1.6-4.875"/><path fill="#8c8a8b" d="M1135.17 982.711c2.02-1.598 1.06-1.987 1.6-4.875a40.83 40.83 0 0 0 20.17 33.974l-1.06 1.33c-2.51-1.37-3.44-2.24-5.6-3.6-10.95-6.92-11.19-16.884-15.11-26.829"/><path fill="#fdfdfc" d="M1021.22 1243.37c9.07 1 29.78 4.86 37.56 3.17 15.59-3.4 35.67-8.96 47.67 6.63l1.54.99-.2 1.43c-.35 3.03-1.82 5.83-3 8.6l-3.26 1.92c-9.29 5.38-14.15 5.53-23.97 8.01l-.71-1.64c-15.64 1.77-40.3 3.69-54.86-2.17-25.543-10.26-22.07-18.19-.77-26.94"/><path fill="#a0a0a4" d="m1106.45 1253.17 1.54.99-.2 1.43c-.35 3.03-1.82 5.83-3 8.6l-3.26 1.92c-9.29 5.38-14.15 5.53-23.97 8.01l-.71-1.64c10.03-3.75 27.17-2.6 29.29-17.42z"/><path fill="#261610" d="M936.938 1255.82c23.062 18.35 29.822 22.77 58.634 30.6-12.124 21.9-18.029 52.3-.783 73.76 4.419 5.5 12.661 11.07 18.411 15.39-34.033-15.16-37.259-53.2-22.86-83.27.732-1.52 1.484-3.04 2.256-4.54-26.792-8.82-33.393-11.19-55.261-29.73-11.583 12.18-17.317 26.96-16.942 43.8a85 85 0 0 0 26.455 59.72c23.771 22.26 56.262 28 87.732 26.75 3.53-.15 7.07-.32 10.6-.51-3.65-1.48-9.63-4.13-13.26-4.97l-.78-3.42c8.17 4.12 14.32 6.68 22.87 10.06-36.79.65-75.32 2.31-104.533-23.48-33.257-29.36-42.317-75.99-12.539-110.16"/><path fill="#d0cdcc" d="m1295.44 964.755 2.93.229c.63.055 1.74.175 2.16.694.12 1.051-2.27 1.503-2.78 1.668z"/><path fill="#4d4a4c" d="M1278.85 904.096c1.63-.031 1.46.742.54 1.683-2.36-.366-1.5-.45-.54-1.683"/><path fill="#687277" d="M203.056 193.501c32.1-11.809 67.687 17.034 86.966 40.294l.078-21.802c-2.984-.062-7.949.084-9.922-2.616-2.606-3.566-2.775-12.321 2.63-13.755 5.991-1.59 14.027-.933 20.22-.526 3.661 1.008 5.144 2.234 7.028 5.4.164 12.586-16.32 13.035-15.502 27.382l1.121.502c23.69-20.532 58.213-45.101 91.313-34.914l-2.163 2.664c-38.761 3.124-62.022 20.746-88.545 48.066-.933 5.764-1.371 7.644-.807 13.641 16.905-35.736 62.588-61.063 101.949-56.968 15.244 12.377 9.545 15.836 16.569 30.189.969-1.692.577-1.095 1.14-3.006 3.617-12.279 7.501-19.69 18.096-26.873 30.097-1.814 56.431 11.14 76.704 32.931 5.683 5.763 12.916 15.33 16.55 22.519l2.907-1.7c-.356-3.857-.314-9.565-.413-13.579.493-2.439 2.002-5.956.361-7.916-.575-5.701.82-17.292-1.89-21.117-12.022-.403-18.678-12.295-5.995-15.516 3.32-.843 6.326-.979 9.736-1.243 22.168-3.405 22.39 10.864 4.177 20.626-.492 4.708-.896 9.541-1.723 14.19 25.919-23.991 60.723-49.039 97.033-34.107-36.003-.343-63.601 15.619-89.119 40.664a306 306 0 0 0-8.163 8.392l-.945 13.916c16.753-27.922 43.28-49.194 75.163-56.941a79.4 79.4 0 0 1 26.316-2.001c15.313 10.348 16.694 21.407 17.689 38.721-9.597-2.864-15.835-3.531-25.725-5.048-13.115 31.16-13.868 72.147-3.387 103.915 20.809-.721 33.551-3.991 51.757-13.969a499 499 0 0 1-2.351 38.581c-.212 2.262-.951 6.248-1.302 8.665-11.319 6.296-23.276 9.689-35.8 12.612-40.062 8.368-75.67-17.49-96.682-49.438 24.314 55.485 80.587 67.071 131.727 39.342-3.881 10.173-10.566 24.098-21.468 27.202-43.675 12.438-98.155-23.609-117.734-58.355-31.297 40.612-61.71 62.642-114.29 59.302-1.38-.237-2.073-.324-3.383-.747-8.761 2.532-22.44 2.882-31.46 1.397-41.68-6.865-64.776-28.573-89.066-60.001-22.193 28.885-45.959 49.226-82.337 58.418-28.153 7.113-50.502-1.26-56.171-32.182-.919-2.214-1.582-5.362-1.841-7.707a415 415 0 0 1-2.357-37.756c19.255 11.28 31.36 12.901 53.112 15.102 9.594-31.085 10.865-76.629-4.966-105.904-8.325 1.891-14.228 3.335-22.299 5.991 2.941-16.446 8.566-37.306 28.447-38.083 18.192-.711 42.185 10.687 55.337 22.5 10.907 7.744 25.489 25.183 30.818 37.327l.987-.53c.213-4.697-.111-12.229-.18-17.126-20.391-24.181-43.939-40.381-75.054-47.034-1.877.228-17.873.924-18.141.724l.109-.469.116.273.676.212.073-1.158c1.397-.626 2.829-1.078 4.276-1.573"/><path fill="#fdfdfc" d="M433.227 201.179c30.097-1.814 56.431 11.14 76.704 32.931 5.683 5.763 12.916 15.33 16.55 22.519 1.17 1.777 1.225 1.774 2.741 3.244l-1.492 1.774c1.947 5.356 1.655 8.685 1.47 14.41l-2.395.291c1.922 4.089 2.751 8.33 3.183 12.813q-.397 1.23-.835 2.446c.169 4.624.589 7.623.976 12.098-3.825 4.837-4.753 6.303-9.479 10.478l1.63 1.225 4.115-4.142c.595-.611 1.376-1.316 2.244-1.398 3.595 1.699-5.275 12.289-6.265 13.616l1.46 1.716c.733-.49.485-.419.838-.455.507 1.022-1.543 3.743-2.187 4.537l-3.57.726c-16.789 17.493-34.298 27.884-58.431 31.71-8.756 1.388-14.905.483-23.223 1.014-.279-7.896 2.797-25.656 4.052-34.01 10.556-22.039 6.963-74.672-6.422-95.804-9.746 1.521-12.837 1.785-21.838 5.299l2.989-2.511-.214-1.296.791-2.252-2.628-1.1c.969-1.692.577-1.095 1.14-3.006 3.617-12.279 7.501-19.69 18.096-26.873"/><path fill="#fdfdfc" d="M433.227 201.179c30.097-1.814 56.431 11.14 76.704 32.931 5.683 5.763 12.916 15.33 16.55 22.519 1.17 1.777 1.225 1.774 2.741 3.244l-1.492 1.774c1.947 5.356 1.655 8.685 1.47 14.41l-2.395.291c-4.129-5.8-10.186-13.351-15.823-17.732l-.372-3.102c-32.584-25.802-55.001-28.898-94.782-21.104l.791-2.252-2.628-1.1c.969-1.692.577-1.095 1.14-3.006 3.617-12.279 7.501-19.69 18.096-26.873"/><path fill="#727276" d="M433.227 201.179c30.097-1.814 56.431 11.14 76.704 32.931l-.843 1.694c-3.528-2.893-6.146-6.371-9.647-9.216-21.159-17.194-40.153-24.053-67.048-23.442-9.163 8.831-14.254 15.726-15.774 29.012l-2.628-1.1c.969-1.692.577-1.095 1.14-3.006 3.617-12.279 7.501-19.69 18.096-26.873"/><path fill="#616165" d="M509.931 234.11c5.683 5.763 12.916 15.33 16.55 22.519 1.17 1.777 1.225 1.774 2.741 3.244l-1.492 1.774c-6.524-8.513-9.56-17.08-18.642-25.843zm.679 21.404c8.622 7.334 11.542 12.477 18.59 20.543l-2.395.291c-4.129-5.8-10.186-13.351-15.823-17.732z"/><path fill="#fdfdfc" d="M529.153 291.607c.169 4.624.589 7.623.976 12.098-3.825 4.837-4.753 6.303-9.479 10.478l-1.399 1.134c-21.803 17.919-38.755 22.524-65.694 24.832-4.938-.136-7.4-.166-12.251.347 1.915-8.178 3.524-16.81 5.502-24.84l.417-1.777c21.834 1.11 46.56 2.178 65.907-10.54 2.629-1.64 7.043-4.549 9.363-6.353a213 213 0 0 0 6.658-5.379"/><path fill="#fdfdfc" d="m522.28 315.408 4.115-4.142c.595-.611 1.376-1.316 2.244-1.398 3.595 1.699-5.275 12.289-6.265 13.616-25.257 27.274-47.277 38.377-84.673 37.126 1.471-6.394 2.23-12.157 3.152-18.65 13.041.243 20.274-.283 33.131-2.215a110 110 0 0 0 48.296-24.337"/><path fill="#727276" d="M415.828 234.41c39.781-7.794 62.198-4.698 94.782 21.104l.372 3.102-.686-.569c-17.908-15.128-34.113-23.327-57.796-25.41l-5.004-.404c-2.432-.194-8.087.061-10.694.115 14.588 31.249 13.241 46.067 10.991 79.781 23.858 1.775 42.077 1.459 63.578-10.029l1.761 1.239c-19.347 12.718-44.073 11.65-65.907 10.54l-.417 1.777c-1.978 8.03-3.587 16.662-5.502 24.84 4.851-.513 7.313-.483 12.251-.347 26.939-2.308 43.891-6.913 65.694-24.832l1.399-1.134 1.63 1.225a110 110 0 0 1-48.296 24.337c-12.857 1.932-20.09 2.458-33.131 2.215-.922 6.493-1.681 12.256-3.152 18.65 37.396 1.251 59.416-9.852 84.673-37.126l1.46 1.716c.733-.49.485-.419.838-.455.507 1.022-1.543 3.743-2.187 4.537l-3.57.726c-16.789 17.493-34.298 27.884-58.431 31.71-8.756 1.388-14.905.483-23.223 1.014-.279-7.896 2.797-25.656 4.052-34.01 10.556-22.039 6.963-74.672-6.422-95.804-9.746 1.521-12.837 1.785-21.838 5.299l2.989-2.511z"/><path fill="#d0cdcc" d="M523.834 325.2c.733-.49.485-.419.838-.455.507 1.022-1.543 3.743-2.187 4.537l-3.57.726c1.83-1.957 2.89-3.069 4.919-4.808m-82.528 15.296c4.851-.513 7.313-.483 12.251-.347-5.328 1.203-6.923 1.497-12.251.347"/><path fill="#616165" d="M529.988 289.161q-.397 1.23-.835 2.446a213 213 0 0 1-6.658 5.379c-2.32 1.804-6.734 4.713-9.363 6.353l-1.761-1.239c3.336-2.191 17.362-12.313 18.617-12.939"/><path fill="#fdfdfc" d="M175.592 238.438c2.941-16.446 8.566-37.306 28.447-38.083 18.192-.711 42.185 10.687 55.337 22.5 10.907 7.744 25.489 25.183 30.818 37.327l-1.284 1.001c2.928 7.039 3.405 8.664 1.739 16.054l-1.525.922c3.604 9.086 2.799 10.413-4.416 17.062l1.553 1.184c.634-.617 3.645-3.708 4.229-3.861 3.063 1.397.09 13.001-2.007 16.657l.91 1c4.942-2.521-1.48 7.917-1.788 8.802-.157 1.029-.514 3.842-.772 4.682-19.26 20.043-38.531 34.16-67.328 37.378-5.817.65-13.272.528-18.676 1.62l-2.737-.514c2.153-5.505 4.093-17.745 4.765-23.818 9.594-31.085 10.865-76.629-4.966-105.904-8.325 1.891-14.228 3.335-22.299 5.991"/><path fill="#fdfdfc" d="M177.837 235.164c1.954-8.161 3.609-15.918 8.683-22.817 18.209-24.756 58.498 1.448 75.347 15.016a412 412 0 0 0-2.491-4.508c10.907 7.744 25.489 25.183 30.818 37.327l-1.284 1.001c2.928 7.039 3.405 8.664 1.739 16.054-6.502-12.003-21.082-25.468-32.873-32.164-27.485-15.611-50.18-17.486-79.939-9.909"/><path fill="#616165" d="M259.376 222.855c10.907 7.744 25.489 25.183 30.818 37.327l-1.284 1.001c-5.65-10.759-16.972-26.836-27.043-33.82a412 412 0 0 0-2.491-4.508"/><path fill="#fdfdfc" d="M286.261 296.405c.634-.617 3.645-3.708 4.229-3.861 3.063 1.397.09 13.001-2.007 16.657-27.462 24.296-34.343 23.802-68.628 30.941-2.452-.185-5.094-.085-7.348-.331l-7.623-.846c1.041-4.262 3.566-24.307 7.02-24.698l1.154-.162c1.908.64 1.833.715 3.708.554 23.84 1.37 50.78-1.97 69.495-18.254"/><path fill="#fdfdfc" d="M219.855 340.142c34.285-7.139 41.166-6.645 68.628-30.941l.91 1c4.942-2.521-1.48 7.917-1.788 8.802-24.625 31.105-48.543 39.903-87.031 41.433.513-4.195 1.666-14.842 3.623-19.035.255-.546 3.956-.358 4.761-.371 3.006-.24 8.547.095 10.897-.888"/><path fill="#8c8a8b" d="M219.855 340.142c34.285-7.139 41.166-6.645 68.628-30.941l.91 1c-16.022 19.256-55.598 35.46-80.435 30.829 3.006-.24 8.547.095 10.897-.888"/><path fill="#727276" d="M175.592 238.438c2.941-16.446 8.566-37.306 28.447-38.083 18.192-.711 42.185 10.687 55.337 22.5q1.26 2.246 2.491 4.508c-16.849-13.568-57.138-39.772-75.347-15.016-5.074 6.899-6.729 14.656-8.683 22.817 29.759-7.577 52.454-5.702 79.939 9.909 11.791 6.696 26.371 20.161 32.873 32.164l-1.525.922c-8.762-14.344-20.582-24.202-34.712-32.77-18.685-11.329-32.704-12.223-53.558-12.452a162.6 162.6 0 0 1 9.395 32.552c3.197 15.856 1.81 31.2.018 47.073 27.685 1.457 51.122.394 73.955-16.978l.486-.363 1.553 1.184c-18.715 16.284-45.655 19.624-69.495 18.254-1.875.161-1.8.086-3.708-.554l-1.154.162c-3.454.391-5.979 20.436-7.02 24.698l7.623.846c2.254.246 4.896.146 7.348.331-2.35.983-7.891.648-10.897.888-.805.013-4.506-.175-4.761.371-1.957 4.193-3.11 14.84-3.623 19.035 38.488-1.53 62.406-10.328 87.031-41.433-.157 1.029-.514 3.842-.772 4.682-19.26 20.043-38.531 34.16-67.328 37.378-5.817.65-13.272.528-18.676 1.62l-2.737-.514c2.153-5.505 4.093-17.745 4.765-23.818 9.594-31.085 10.865-76.629-4.966-105.904-8.325 1.891-14.228 3.335-22.299 5.991"/><path fill="#a0a0a4" d="m213.058 314.105 1.205-.001c1.014-.012 1.628.029 2.503.555-1.875.161-1.8.086-3.708-.554"/><path fill="#fdfdfc" d="M413.053 238.217c9.001-3.514 12.092-3.778 21.838-5.299 13.385 21.132 16.978 73.765 6.422 95.804-.32-5.26.374-6.001-5.327-2.744a85.3 85.3 0 0 1-28.98 10.293c-7.146 1.224-15.332 1.688-22.564 1.856-8.901-34.409-11.432-71.054 3.474-104.2 7.684 1.395 16.499 3.977 24.398 5.762z"/><path fill="#dd7328" d="M384.442 338.127c7.232-.168 15.418-.632 22.564-1.856a85.3 85.3 0 0 0 28.98-10.293c5.701-3.257 5.007-2.516 5.327 2.744-1.255 8.354-4.331 26.114-4.052 34.01l-.184 1.323-1.169 2.942c-.622 1.592-.611 1.695-.98 3.395-14.026 6.813-20.385 9.554-35.978 13.061-2.853-6.48-4.099-12.02-7.461-18.8 4.423-.883 26.075-6.55 28.158-9.605-.126-.541-.013-.388-.247-.579-2.874-.041-21.859 7.102-29.756 7.817-1.602-8.149-3.857-15.829-5.202-24.159m238.061-.242c20.809-.721 33.551-3.991 51.757-13.969a499 499 0 0 1-2.351 38.581c-.212 2.262-.951 6.248-1.302 8.665-11.319 6.296-23.276 9.689-35.8 12.612-1.84-6.512-2.036-12.256-4.457-18.992 2.331-.487 20.957-4.591 19.859-7.436-.562-.366-15.872 4.311-20.478 4.81-2.29-7.564-4.612-17.171-7.228-24.271m-472.758-14.636c19.255 11.28 31.36 12.901 53.112 15.102-.672 6.073-2.612 18.313-4.765 23.818l2.737.514-.483 1.557c-6.343.08-10.816-.509-16.952-2.237 1.103 6.999 1.353 13.296 2.657 20.523-15.072-4.257-18.214-4.313-31.34-12.96l-.768-.854c-.919-2.214-1.582-5.362-1.841-7.707a415 415 0 0 1-2.357-37.756"/><path fill="#e7e7e6" d="M176.36 357.521c7.474 2.113 14.076 3.357 21.732 4.648l2.737.514-.483 1.557c-6.343.08-10.816-.509-16.952-2.237-2.596-.864-5.114-1.882-7.781-2.508z"/><path fill="#e7ba9d" d="m175.613 359.495-1.524-.711c-5.311-2.441-5.225-5.331 2.271-1.263z"/><path fill="#fdfdfc" d="m518.915 330.008 3.57-.726a182 182 0 0 0-1.793 3.658c-.029 1.584-.003 3.123.014 4.706-2.936 2.269-6.855 8.162-9.834 11.235-15.911 16.416-34.513 28.537-57.36 32.282-5.853.959-15.36.15-19.548 2.315l-1.071-1.487a2.3 2.3 0 0 0-.379-.456c2.379-3.561 2.699-3.603 2.086-7.806.073-1.067.101-2.308.328-3.337.369-1.7.358-1.803.98-3.395l1.169-2.942.184-1.323c8.318-.531 14.467.374 23.223-1.014 24.133-3.826 41.642-14.217 58.431-31.71"/><path fill="#616165" d="M520.692 332.94c-.029 1.584-.003 3.123.014 4.706-2.936 2.269-6.855 8.162-9.834 11.235-15.911 16.416-34.513 28.537-57.36 32.282-5.853.959-15.36.15-19.548 2.315l-1.071-1.487a2.3 2.3 0 0 0-.379-.456c2.379-3.561 2.699-3.603 2.086-7.806.073-1.067.101-2.308.328-3.337.369-1.7.358-1.803.98-3.395l1.169-2.942c.121 5.275-.136 10.363-.027 15.535 35.814 1.961 63.466-18.59 83.642-46.65"/><path fill="#fdfdfc" d="M286.833 323.685c-.516 4.756-2.984 7.918-5.526 12.004l1.412 1.57c-2.206 2.478-3.149 3.651-4.964 6.394-9.113 10.734-23.169 21.218-35.694 27.574l-2.397-.832c-10.033 4.811-16.856 7.65-27.864 9.182-15.716 2.186-9.52-3.5-11.454-15.337l.483-1.557c5.404-1.092 12.859-.97 18.676-1.62 28.797-3.218 48.068-17.335 67.328-37.378"/><path fill="#616165" d="m281.307 335.689 1.412 1.57c-2.206 2.478-3.149 3.651-4.964 6.394-9.113 10.734-23.169 21.218-35.694 27.574l-2.397-.832c16.121-8.814 30.359-20.115 41.643-34.706"/><path fill="#fdfdfc" d="m277.755 343.653 2.781-.391C263 374.389 225.7 393.489 190.19 385.541c-13.084-2.209-26.972-5.162-35.479-15.975 13.126 8.647 16.268 8.703 31.34 12.96-1.304-7.227-1.554-13.524-2.657-20.523 6.136 1.728 10.609 2.317 16.952 2.237 1.934 11.837-4.262 17.523 11.454 15.337 11.008-1.532 17.831-4.371 27.864-9.182l2.397.832c12.525-6.356 26.581-16.84 35.694-27.574"/><path fill="#687277" d="M183.394 362.003c6.136 1.728 10.609 2.317 16.952 2.237 1.934 11.837-4.262 17.523 11.454 15.337 11.008-1.532 17.831-4.371 27.864-9.182l2.397.832c-15.768 9.116-24.505 9.447-41.468 12.11-5.008-.091-9.571-.029-14.542-.811-1.304-7.227-1.554-13.524-2.657-20.523"/><path fill="#fdfdfc" d="M520.706 337.646c-.696 9.465-16.77 24.722-23.847 30.813-15.121 13.015-36.159 21.934-56.361 19.519-3.809-.455-5.651-.739-6.534-4.5 4.188-2.165 13.695-1.356 19.548-2.315 22.847-3.745 41.449-15.866 57.36-32.282 2.979-3.073 6.898-8.966 9.834-11.235m-218.253-.97c24.68 33.405 53.059 53.935 96.497 46.777 15.593-3.507 21.952-6.248 35.978-13.061-.227 1.029-.255 2.27-.328 3.337-20.849 7.981-39.665 17.6-62.746 14.888-30.615-3.597-57.666-23.52-69.401-51.941"/><path fill="#d0cdcc" d="M391.489 364.653c-26.405 2.982-50.606-3.048-72.792-17.888-8.796-5.884-16.265-12.006-19.868-22.415 22.918 30.058 53.792 40.722 90.815 37.936 7.897-.715 26.882-7.858 29.756-7.817.234.191.121.038.247.579-2.083 3.055-23.735 8.722-28.158 9.605m238.861.129c-27.005 2.802-54.509-3.489-77.016-19.076-5.146-3.563-15.878-12.776-16.895-18.858 3.125 2.06 10.553 11.491 15.69 15.485 22.012 17.113 50.483 22.617 77.602 19.823 4.606-.499 19.916-5.176 20.478-4.81 1.098 2.845-17.528 6.949-19.859 7.436"/><path fill="#fdfdfc" d="M290.1 211.993c-2.984-.062-7.949.084-9.922-2.616-2.606-3.566-2.775-12.321 2.63-13.755 5.991-1.59 14.027-.933 20.22-.526-1.022.149-2.051.275-3.071.431-1.069.164-2.489.374-3.22 1.286-.413.516-.689 1.339-.998 1.937-.045.087-.084.178-.126.267l-1.405-1.265c-.888 10.457.145 10.776-8.911 12.252 2.548.2 6.855-.71 4.803 1.989"/><path fill="#616165" d="M290.1 211.993c-2.984-.062-7.949.084-9.922-2.616-2.606-3.566-2.775-12.321 2.63-13.755 5.991-1.59 14.027-.933 20.22-.526-1.022.149-2.051.275-3.071.431-1.069.164-2.489.374-3.22 1.286-.413.516-.689 1.339-.998 1.937-.045.087-.084.178-.126.267l-1.405-1.265c-16.408-3.698-16.933 7.924-8.911 12.252 2.548.2 6.855-.71 4.803 1.989"/><path fill="#fdfdfc" d="M527.446 212.317c-12.022-.403-18.678-12.295-5.995-15.516 3.32-.843 6.326-.979 9.736-1.243q.457 1.086.928 2.165c-.784 9.303-.021 6.174-3.894 12.772z"/><path fill="#8c8a8b" d="M527.446 212.317c-12.022-.403-18.678-12.295-5.995-15.516 3.32-.843 6.326-.979 9.736-1.243q.457 1.086.928 2.165l-7.617.294c-12.043.51-10.149 10.209 3.723 12.478z"/><path fill="#a0a0a4" d="M215.947 195.492c-1.877.228-17.873.924-18.141.724l.109-.469.116.273.676.212.073-1.158c1.397-.626 2.829-1.078 4.276-1.573 5.114 2.515 6.746.144 12.891 1.991m197.03 205.588c1.277-1.175 6.801-6.533 8.268-6.673 2.123 1.049-4.6 4.286-4.885 7.42-1.38-.237-2.073-.324-3.383-.747"/><path fill="#fdfdfc" d="M432.893 381.991a2.329 2.329 0 1 1-3.937 2.49 2.329 2.329 0 0 1 3.937-2.49"/><path fill="#d0cdcc" d="M282.719 337.259c.474-.287.643-.46.949-.451-.013 1.562-2.133 5.126-3.132 6.454l-2.781.391c1.815-2.743 2.758-3.916 4.964-6.394"/><path fill="#e7e7e6" d="M529.388 254.929c.071 2.038.224 2.973-.166 4.944-1.516-1.47-1.571-1.467-2.741-3.244z"/><path fill="#687277" d="M1657.78 194.142c33.71-14.375 69.27 16.343 89.96 39.618.37-10.01 3.42-19.224-7.82-22.407-5.44-1.78-6.85-8.237-3.46-12.475 3.11-3.907 12.19-4.62 17.05-4.516 11.32.241 13.79 2.574 13.88 12.709-9.17 10.698-15.26 5.595-16.3 22.428l1.03.727c5.71-2.896 11.52-10.053 16.9-14.116 24.7-18.668 50.56-33.375 81.27-19.485-32.42-2.12-59.15 12.245-83.13 33.351-4.85 4.27-9.45 8.827-13.76 13.645-.92 5.348-1.64 9.323-1.98 14.8 14.06-25.658 41.3-47.121 69.25-54.805 38.3-10.525 44.99 1.598 49.31 35.78-8.92-2.24-16.97-4.164-26-5.959-12.17 32.259-14.21 72.243-2.11 104.694 21.43-.65 31.42-4.983 50.29-13.948-.29 13.515-.86 28.402-2.95 41.829-.21 1.36-.21 2.025-.17 3.395l-1.54 4.981c-5.96 13.957-9.37 22.442-24.42 27.889l3.95 1.838c-.92 1.017-.61.826-1.05 1.007-3.97 2.153-10.45 5.018-12.61 8.756l.81 2.139c-32.99 3.793-54.26 6.877-83.02-15.445-9.45-7.33-15.16-15.139-21.63-25.105-16.65 22.36-35.97 38.113-64.42 42.936-15.27 2.59-26.22-1.278-39.87-1.615-8.15.2-22-.384-31.05-.428-12.69.965-25.02 3.624-37.74 2.407-29.39-2.812-49.81-18.66-65.63-42.426-14.89 21.377-35.48 36.12-61.48 41.514-13.97 2.899-26.65-.215-40.28-1.276l-.36-.469c.66-1.339.23-.526 1.4-2.544-6.29-3.361-7.76-4.388-13.22-8.893-2.73-1.329-3.26-2.737-4.91-5.299-10.97-7.956-14.62-13.894-18.85-26.332 29.45 14.836 57.34 21.805 87.43 5.175 16.01-8.853 26.3-18.422 36.12-33.817l-1.48-1.352c1.54-2.364 2.45-3.511 4.38-5.61l-1.29-1.778c3.23-5.36 4.99-8.802 7.79-14.241-6.52 7.285-8.36 10.025-15.76 16.938l-1.39-1.45c7.03-5.986 14.81-14.232 18.38-22.874l2.78-6.639c-3.21 3.029-5.73 5.842-8.81 8.917l-1.19-1.248c4.33-4.081 5.45-5.724 8.82-10.624.17-3.518 1.56-9.016-1.35-11.061l-1.74-.515c6.26-6.322 3.2-10.441.11-18.054l1.04-.858c.95 1.19.33.712 1.96 1.293 1.32-4.499-.42-10.043-2.41-14.134l1.63-1.412c1.23-1.262 1.02-1.232 1.86-2.861l2.75.113c4.03-3.747 7.76-11.654 11.84-16.411 20.95-24.441 59.12-45.587 91.97-38.366 9.69 2.131 11.63 25.615 15.17 33.106 2.28-9.178 5.47-20.767 11.84-27.744 15.75-17.235 59.2 2.448 72.8 15.274 13.8 9.736 22.12 22.758 30.63 36.792 2.02-4.306.79-12.473.36-17.465-20.5-24.863-44.68-41.013-76.53-46.851-.67.157-21.58 2.735-13.05-1.143"/><path fill="#687277" d="M1657.78 194.142c33.71-14.375 69.27 16.343 89.96 39.618.37-10.01 3.42-19.224-7.82-22.407-5.44-1.78-6.85-8.237-3.46-12.475 3.11-3.907 12.19-4.62 17.05-4.516 11.32.241 13.79 2.574 13.88 12.709-9.17 10.698-15.26 5.595-16.3 22.428l1.03.727c5.71-2.896 11.52-10.053 16.9-14.116 24.7-18.668 50.56-33.375 81.27-19.485-32.42-2.12-59.15 12.245-83.13 33.351-4.85 4.27-9.45 8.827-13.76 13.645-.92 5.348-1.64 9.323-1.98 14.8 14.06-25.658 41.3-47.121 69.25-54.805 38.3-10.525 44.99 1.598 49.31 35.78-8.92-2.24-16.97-4.164-26-5.959-12.17 32.259-14.21 72.243-2.11 104.694 21.43-.65 31.42-4.983 50.29-13.948-.29 13.515-.86 28.402-2.95 41.829-.21 1.36-.21 2.025-.17 3.395l-1.54 4.981c-5.96 13.957-9.37 22.442-24.42 27.889-48.2 6.55-87.81-21.834-114.12-59.5-18.99 28.265-51.09 53.585-85.76 58.51-8.09 1.149-20.3.379-28.73.203 7.77-6.098 10.4-8.786 15.8-16.568 34.3 14.394 71.42-16.845 88.71-44.272l-1.31-1.771c1.54-2.376 1.47-2.569 3.65-4.213l-1.73-3.017 2.2-3.172-1.16-1.678c1.65-2.179 2.19-2.835 4.12-4.734l-1.32-1.425c2.57-4.029 4.27-5.981 3.93-10.657l-1.21-1.919c.06-.11.13-.221.19-.33.27-.438.55-.865.81-1.311 1.48-2.6 1.79-9.526.82-12.08-.13-.352-.38-.796-.77-.92-.46-.148-1.68.555-1.75.583l-1.57-.768c6.95-6.057 5.21-9.819.75-18.091l1.72-1.619 1.33-1.527c.26-5.068-.34-6.13-1.81-11.143l1.13-1.257c2.02-4.306.79-12.473.36-17.465-20.5-24.863-44.68-41.013-76.53-46.851-.67.157-21.58 2.735-13.05-1.143"/><path fill="#dd7328" d="M1841.87 338.131c21.43-.65 31.42-4.983 50.29-13.948-.29 13.515-.86 28.402-2.95 41.829-.21 1.36-.21 2.025-.17 3.395l-.73.512c-13.32 9.463-20.28 10.23-35.16 15.244-.76-6.289-2.07-14.609-4.33-20.48 10.35-2.296 14.85-3.905 23.82-9.507-8.81 2.876-15.91 5.087-25.03 6.99l-.25-1.142c-1.32-6.31-3.31-17.094-5.49-22.893"/><path fill="url(#a)" d="M1758.88 336.775c-1.41-1.299-5.94-12.439-5.96-13.289l.19-.302c.78-.172 17.27 17.055 17.84 18.212 19.15 16.881 51.74 23.768 76.66 20.77 9.12-1.903 16.22-4.114 25.03-6.99-8.97 5.602-13.47 7.211-23.82 9.507 2.26 5.871 3.57 14.191 4.33 20.48-1.43.281-2.78.547-4.15.633-35.77 2.254-71.38-17.965-89.39-48.612-.25-.136-.49-.272-.73-.409"/><path fill="#d0cdcc" d="M1848.82 364.683c-24.75 2.192-46.17-2.167-68.21-13.824-1.65-.874-16.54-12.705-9.66-9.463 19.15 16.881 51.74 23.768 76.66 20.77 9.12-1.903 16.22-4.114 25.03-6.99-8.97 5.602-13.47 7.211-23.82 9.507"/><path fill="#fdfdfc" d="M1758.88 336.775c.24.137.48.273.73.409 18.01 30.647 53.62 50.866 89.39 48.612 1.37-.086 2.72-.352 4.15-.633 14.88-5.014 21.84-5.781 35.16-15.244l.73-.512-1.54 4.981c-1.3.166-.94.008-2.04.551-27.03 13.228-53.24 20.587-81.68 6.642-20.83-10.212-36.55-22.65-44.9-44.806m-18.96-125.422c-5.44-1.78-6.85-8.237-3.46-12.475 3.11-3.907 12.19-4.62 17.05-4.516 11.32.241 13.79 2.574 13.88 12.709-3.03-7.85-5.3-14.197-15.69-10.107-.39 7.044-.28 8.308-4.26 13.817-3.09.513-4.39.537-7.52.572"/><path fill="#8c8a8b" d="M1739.92 211.353c-5.44-1.78-6.85-8.237-3.46-12.475 3.11-3.907 12.19-4.62 17.05-4.516 11.32.241 13.79 2.574 13.88 12.709-3.03-7.85-5.3-14.197-15.69-10.107-2.79.093-10.53-.298-12.35 1.665-9.11 9.863 3.53 11.428 8.09 12.152-3.09.513-4.39.537-7.52.572"/><path fill="#a0a0a4" d="M1670.83 195.285c-.67.157-21.58 2.735-13.05-1.143 4.39.589 10.56-.076 13.05 1.143"/><path fill="#d0cdcc" d="M1744.75 322.065c.48-.187.73-.377 1.16-.309.3 1.663-3.08 5.435-4.12 6.721l-1.16-1.678c1.65-2.179 2.19-2.835 4.12-4.734m-3.43 12.601c.34 1.86-.97 3.639-1.9 5.229l-.44.755-1.31-1.771c1.54-2.376 1.47-2.569 3.65-4.213"/><path fill="#fdfdfc" d="M1747.36 309.983c.34 4.676-1.36 6.628-3.93 10.657l1.32 1.425c-1.93 1.899-2.47 2.555-4.12 4.734l1.16 1.678-2.2 3.172 1.73 3.017c-2.18 1.644-2.11 1.837-3.65 4.213l1.31 1.771c-17.29 27.427-54.41 58.666-88.71 44.272-5.4 7.782-8.03 10.47-15.8 16.568 8.43.176 20.64.946 28.73-.203 34.67-4.925 66.77-30.245 85.76-58.51 26.31 37.666 65.92 66.05 114.12 59.5l3.95 1.838c-.92 1.017-.61.826-1.05 1.007-3.97 2.153-10.45 5.018-12.61 8.756l.81 2.139c-32.99 3.793-54.26 6.877-83.02-15.445-9.45-7.33-15.16-15.139-21.63-25.105-16.65 22.36-35.97 38.113-64.42 42.936-15.27 2.59-26.22-1.278-39.87-1.615-8.15.2-22-.384-31.05-.428-12.69.965-25.02 3.624-37.74 2.407-29.39-2.812-49.81-18.66-65.63-42.426-14.89 21.377-35.48 36.12-61.48 41.514-13.97 2.899-26.65-.215-40.28-1.276l-.36-.469c.66-1.339.23-.526 1.4-2.544-6.29-3.361-7.76-4.388-13.22-8.893-2.73-1.329-3.26-2.737-4.91-5.299 45.45 14.212 93.07-21.388 117.35-57.154 10.61 13.271 19.39 24.769 34.61 36.485 23.94 18.445 61.08 32.936 90.93 19.327 5.1-2.327 12.2-12.358 15.86-16.36l3.59-.47c.33-2.768.27-4.153-.09-6.885l-.11-4.061 1.9-2.33c.08-1.593.13-3.188.17-4.783.17-1.159.16-1.443.52-2.493 2.15-5.762 2.4-11.945 2.26-18.016 20.13.165 44.85-1.912 62.2-13.302 5.85-3.556 12.84-8.33 18.23-12.515 3.02-2.346 4.5-4.501 7.97-6.834"/><path fill="#687277" d="M1509.7 347.267c21.7 29.352 48.59 53.013 86 58.717 13.51 2.061 19.6.373 32.37-.75l-14.05 6.891c-.4 1.33-.55.828-.2 1.552l.37 2.683c-12.69.965-25.02 3.624-37.74 2.407-29.39-2.812-49.81-18.66-65.63-42.426-14.89 21.377-35.48 36.12-61.48 41.514-13.97 2.899-26.65-.215-40.28-1.276l-.36-.469c.66-1.339.23-.526 1.4-2.544-6.29-3.361-7.76-4.388-13.22-8.893 52.37 5.951 81.18-18.105 112.82-57.406m123.38 59.277c10.15-.191 19.18.254 29.33-1.137 36.74-5.031 65.02-28.773 86.92-57.163 31.61 40.773 62.43 64.815 116.65 56.878-3.97 2.153-10.45 5.018-12.61 8.756l.81 2.139c-32.99 3.793-54.26 6.877-83.02-15.445-9.45-7.33-15.16-15.139-21.63-25.105-16.65 22.36-35.97 38.113-64.42 42.936-15.27 2.59-26.22-1.278-39.87-1.615.28-1.835.26-1.713.91-3.469-5.32-2.34-8.14-3.476-13.07-6.775"/><path fill="#fdfdfc" d="M1747.36 309.983c.34 4.676-1.36 6.628-3.93 10.657l1.32 1.425c-1.93 1.899-2.47 2.555-4.12 4.734-14.54 16.689-34.8 29.974-56.62 34.474-12.1 2.496-16.45 1.198-27.83 1.87.17-1.159.16-1.443.52-2.493 2.15-5.762 2.4-11.945 2.26-18.016 20.13.165 44.85-1.912 62.2-13.302 5.85-3.556 12.84-8.33 18.23-12.515 3.02-2.346 4.5-4.501 7.97-6.834"/><path fill="#616165" d="m1743.43 320.64 1.32 1.425c-1.93 1.899-2.47 2.555-4.12 4.734-14.54 16.689-34.8 29.974-56.62 34.474-12.1 2.496-16.45 1.198-27.83 1.87.17-1.159.16-1.443.52-2.493 38.26 1.274 61.94-10.478 86.73-40.01"/><path fill="#fdfdfc" d="m1740.63 326.799 1.16 1.678-2.2 3.172 1.73 3.017c-2.18 1.644-2.11 1.837-3.65 4.213-12 19.326-58.98 51.771-82.94 42.483l-.42-.16c.33-2.768.27-4.153-.09-6.885l-.11-4.061 1.9-2.33c.08-1.593.13-3.188.17-4.783 11.38-.672 15.73.626 27.83-1.87 21.82-4.5 42.08-17.785 56.62-34.474"/><path fill="#727276" d="M1656.01 367.926c-.02 9.427-1.05 16.53 12.7 13.714 27.73-5.678 54.89-26.904 70.88-49.991l1.73 3.017c-2.18 1.644-2.11 1.837-3.65 4.213-12 19.326-58.98 51.771-82.94 42.483l-.42-.16c.33-2.768.27-4.153-.09-6.885l-.11-4.061z"/><path fill="#a0a0a4" d="M1646.15 413.319c-.65 1.756-.63 1.634-.91 3.469-8.15.2-22-.384-31.05-.428l-.37-2.683c6.25.856 26.01.995 32.33-.358"/><path fill="#fdfdfc" d="M1631.73 235.279c2.28-9.178 5.47-20.767 11.84-27.744 15.75-17.235 59.2 2.448 72.8 15.274 13.8 9.736 22.12 22.758 30.63 36.792l-1.13 1.257c1.47 5.013 2.07 6.075 1.81 11.143l-1.33 1.527-1.72 1.619c4.46 8.272 6.2 12.034-.75 18.091l1.57.768c.07-.028 1.29-.731 1.75-.583.39.124.64.568.77.92.97 2.554.66 9.48-.82 12.08-.26.446-.54.873-.81 1.311-.06.109-.13.22-.19.33l1.21 1.919c-3.47 2.333-4.95 4.488-7.97 6.834-5.39 4.185-12.38 8.959-18.23 12.515-17.35 11.39-42.07 13.467-62.2 13.302-.08-4.804 0-10.392 1.16-14.98 9.35-29.675 7.74-66.595-5.22-94.976-5.43 1.297-17.93 4.781-22.73 3.585z"/><path fill="#fdfdfc" d="M1651.18 203.37c23.22-4.246 50.23 9.574 67.67 24.03-.81-1.538-1.64-3.068-2.48-4.591 13.8 9.736 22.12 22.758 30.63 36.792l-1.13 1.257c1.47 5.013 2.07 6.075 1.81 11.143l-1.33 1.527-1.72 1.619c-3.6-5.14-8.81-11.886-13.81-15.773-1.2-1.942-2.23-3.53-3.56-5.393-1.83-2.263-10.81-8.703-13.61-10.203-28-15.018-50.29-15.658-79.8-8.313 2.75-13.879 5.71-23.054 17.33-32.095"/><path fill="#616165" d="M1716.37 222.809c13.8 9.736 22.12 22.758 30.63 36.792l-1.13 1.257c-6.53-10.934-16.44-26.076-27.02-33.458-.81-1.538-1.64-3.068-2.48-4.591m10.89 31.172c11.18 7.617 12.21 13.224 19.09 19.547l-1.72 1.619c-3.6-5.14-8.81-11.886-13.81-15.773-1.2-1.942-2.23-3.53-3.56-5.393"/><path fill="#fdfdfc" d="M1745.45 294.006c.07-.028 1.29-.731 1.75-.583.39.124.64.568.77.92.97 2.554.66 9.48-.82 12.08-.26.446-.54.873-.81 1.311-.06.109-.13.22-.19.33l1.21 1.919c-3.47 2.333-4.95 4.488-7.97 6.834-5.39 4.185-12.38 8.959-18.23 12.515l-1.98-1.127c-20.61 10.491-36.44 13.2-59.37 12.647 1.62-8.671 3.67-17.456 5.64-26.076l.21-.952c31.33 2.605 54.62.618 79.79-19.818"/><path fill="#727276" d="m1746.15 308.064 1.21 1.919c-3.47 2.333-4.95 4.488-7.97 6.834-5.39 4.185-12.38 8.959-18.23 12.515l-1.98-1.127c11.47-7.06 16.96-11.286 26.97-20.141"/><path fill="#727276" d="M1631.73 235.279c2.28-9.178 5.47-20.767 11.84-27.744 15.75-17.235 59.2 2.448 72.8 15.274.84 1.523 1.67 3.053 2.48 4.591-17.44-14.456-44.45-28.276-67.67-24.03-11.62 9.041-14.58 18.216-17.33 32.095 29.51-7.345 51.8-6.705 79.8 8.313 2.8 1.5 11.78 7.94 13.61 10.203 1.33 1.863 2.36 3.451 3.56 5.393l-.76-.611c-26.1-21.163-39.26-25.459-72.88-25.778 10.83 28.754 13.66 48.665 8.68 79.219 5.73-.219 9.54-.081 15.29.592 7.65.008 15.29-.562 22.86-1.705 16.17-2.402 24.61-6.975 37.35-16.086l2.52-1.767 1.57.768c-25.17 20.436-48.46 22.423-79.79 19.818l-.21.952c-1.97 8.62-4.02 17.405-5.64 26.076 22.93.553 38.76-2.156 59.37-12.647l1.98 1.127c-17.35 11.39-42.07 13.467-62.2 13.302-.08-4.804 0-10.392 1.16-14.98 9.35-29.675 7.74-66.595-5.22-94.976-5.43 1.297-17.93 4.781-22.73 3.585z"/><path fill="#d0cdcc" d="M1665.86 312.204c5.73-.219 9.54-.081 15.29.592-6.31.379-9.28.647-15.29-.592"/><path fill="#fdfdfc" d="M1632.17 236.263c4.8 1.196 17.3-2.288 22.73-3.585 12.96 28.381 14.57 65.301 5.22 94.976-.12-1.399-.52-3.4-2.63-2.19-17.68 10.154-34.97 12.544-55.07 12.645-10.01-31.635-12.45-73.876 3.64-103.923 4.75.915 22.67 5.853 26.18 4.435z"/><path fill="#dd7328" d="M1602.42 338.109c20.1-.101 37.39-2.491 55.07-12.645 2.11-1.21 2.51.791 2.63 2.19-1.16 4.588-1.24 10.176-1.16 14.98.14 6.071-.11 12.254-2.26 18.016-.36 1.05-.35 1.334-.52 2.493-.04 1.595-.09 3.19-.17 4.783l-1.9 2.33c-13.75 8.105-23.21 10.542-38.29 14.561-1.91-6.483-3.67-13.426-5.6-20.087 6.55-1.42 13.32-2.98 19.66-5.095 1.11-.37 6.59-2.035 5.83-3.579 0 .003-24.1 5.669-27.08 5.999-.9-4.493-2.28-9.122-3.36-13.59l-.97-4.012c-.68-2.861-.88-3.471-1.88-6.344"/><path fill="#fdfdfc" d="M1654.22 374.317c-29.94 11.722-54.34 22.107-86.17 7.975-19.45-8.636-34.61-20.231-45.83-39.43-.07-.335-.13-.669-.19-1.003 1.84.779 11.04 11.689 13.69 14.099 22.4 20.387 49.76 33.276 80.1 28.859 15.08-4.019 24.54-6.456 38.29-14.561z"/><path fill="#d0cdcc" d="M1610.22 364.73c-24.3 1.318-45.85-1.444-67.45-13.88-6.36-3.665-22.33-14.882-24.12-21.898 30.3 27.938 47.99 33.956 89.98 33.103 2.98-.33 27.08-5.996 27.08-5.999.76 1.544-4.72 3.209-5.83 3.579-6.34 2.115-13.11 3.675-19.66 5.095"/><path fill="#a0a0a4" d="M1499.57 337.438c.16 2.928-1.07 4.429-2.9 6.962l-1.48-1.352c1.54-2.364 2.45-3.511 4.38-5.61"/><path fill="#687277" d="M856.049 230.859c22.86-18.282 51.683-43.161 83.686-39.945 3.659.368 9.726 2.365 12.499 4.879-34.013-.415-62 17.923-86.066 40.488-3.693 3.462-13.951 13.424-9.095 19.032 4.484-3.429 8.218-11.377 13.551-16.623 23.934-23.541 52.972-41.253 87.391-38.507 14.347 9.979 16.415 23.1 17.335 39.386a149 149 0 0 0-26.458-6.108c-11.742 33.734-13.419 71.34-1.45 105.285 20.772-2.092 32.026-4.904 50.856-14.37-.569 15.599-.82 30.203-3.738 45.561-11.008 7.855-23.163 11.107-36.211 13.816-37.731 6.516-69.833-14.282-92.139-43.13l-.695.071q.436 1.122.926 2.223c7.76 17.302 32.059 35.023 49.63 41.49 27.622 10.167 52.614 1.51 77.934-10.245-8.865 25.351-23.402 31.643-48.873 28.442-43.462-5.46-65.68-28.003-91.223-60.555-20.143 29.055-45.261 49.872-80.006 58.258-26.951 6.505-49.614 1.644-56.285-28.456l.186-.813c-4.948-10.584-4.95-34.856-4.974-46.644 10.713 5.33 25.723 11.403 37.672 12.556l13.019 1.313c4.068-6.933 7.03-31.423 7.585-40.198-.135-6.174-.191-13.982-.017-20.099-.434-13.754-5.498-33.125-11.159-45.58-8.062 1.805-14.873 3.398-22.774 5.747 7.5-56.629 55.218-39.063 86.112-13.816 11.902 9.485 20.873 20.202 28.001 33.593l1.105 1.328c1.238-2.292.807-13.902.918-17.337.498-2.805 1.556-6.143-.273-8.554-.196-6.58-.041-12.186-1.864-18.524-4.236-2.711-9.345-4.232-11.871-8.277l-.927-1.299c2.414-11.174 8.93-10.175 19.354-10.253 5.938.094 9.651-.352 13.96 3.764 2.51 9.039-8.023 15.268-14.355 20.271z"/><path fill="#fdfdfc" d="M737.156 238.133c7.5-56.629 55.218-39.063 86.112-13.816 11.902 9.485 20.873 20.202 28.001 33.593l-1.517.263c1.591 4.443 3.667 10.382 2.229 15.091-1.458-.633-1.008-.191-1.62-.979l-1.424.564c3.311 6.763 6.664 13.547 2.073 20.673l1.428 1.422c1.498 6.845.722 8.371-2.02 14.111l1.326 2.312c.537 8.29-12.256 19.774-18.101 24.818l-1.372 1.147c-19.12 16.321-42.733 24.481-67.818 23.424-2.396-.101-2.861-.988-4.014-2.805 1.695-4.772 2.482-8.969 3.06-14.017-.118-2.296-.1-3.364.022-5.671 4.068-6.933 7.03-31.423 7.585-40.198-.135-6.174-.191-13.982-.017-20.099-.434-13.754-5.498-33.125-11.159-45.58-8.062 1.805-14.873 3.398-22.774 5.747"/><path fill="#fdfdfc" d="M755.663 204.136c24.96-6.065 49.229 8.43 68.153 23.352l-.548-3.171c11.902 9.485 20.873 20.202 28.001 33.593l-1.517.263c1.591 4.443 3.667 10.382 2.229 15.091-1.458-.633-1.008-.191-1.62-.979l-1.424.564c-5.611-5.219-6.485-9.161-13.955-14.256l-.518-3.147c-31.785-24.937-56.828-29.18-95.37-20.441 3.886-15.337 4.627-20.066 16.569-30.869"/><path fill="#616165" d="M823.268 224.317c11.902 9.485 20.873 20.202 28.001 33.593l-1.517.263c-6.601-11.177-15.732-22.616-25.936-30.685zm11.196 31.129c7.271 6.096 10.216 9.369 15.897 16.839l-1.424.564c-5.611-5.219-6.485-9.161-13.955-14.256z"/><path fill="#fdfdfc" d="M852.438 294.944c1.498 6.845.722 8.371-2.02 14.111-15.681 16.111-42.227 28.117-64.447 30.796-5.648.681-14.524.199-20.331.037 2.228-8.381 4.106-16.926 6.003-25.393 24.553 1.063 46.086.267 68.382-11.576 4.608-2.448 7.828-5.628 12.413-7.975"/><path fill="#fdfdfc" d="M851.744 311.367c.537 8.29-12.256 19.774-18.101 24.818l-1.372 1.147c-19.12 16.321-42.733 24.481-67.818 23.424-2.396-.101-2.861-.988-4.014-2.805 1.695-4.772 2.482-8.969 3.06-14.017l.639-1.044c6.755-2.702 16.146.579 23.875-1.821 2.925-.05 6.111-.789 8.966-1.34 22.779-4.398 36.72-15.602 54.765-28.362"/><path fill="#727276" d="M737.156 238.133c7.5-56.629 55.218-39.063 86.112-13.816l.548 3.171c-18.924-14.922-43.193-29.417-68.153-23.352-11.942 10.803-12.683 15.532-16.569 30.869 38.542-8.739 63.585-4.496 95.37 20.441l.518 3.147-.687-.564c-14.19-11.845-30.828-20.939-49.287-24.166-7.107-1.242-14.921-.794-22.201-.904a274 274 0 0 1 7.24 24.544c4.616 18.7 3.967 36.248 1.624 55.174 24.804.808 47.679.382 69.667-12.692 3.347-1.99 6.306-4.797 9.672-6.463l1.428 1.422c-4.585 2.347-7.805 5.527-12.413 7.975-22.296 11.843-43.829 12.639-68.382 11.576-1.897 8.467-3.775 17.012-6.003 25.393 5.807.162 14.683.644 20.331-.037 22.22-2.679 48.766-14.685 64.447-30.796l1.326 2.312c-18.045 12.76-31.986 23.964-54.765 28.362-2.855.551-6.041 1.29-8.966 1.34-7.729 2.4-17.12-.881-23.875 1.821l-.639 1.044c-.118-2.296-.1-3.364.022-5.671 4.068-6.933 7.03-31.423 7.585-40.198-.135-6.174-.191-13.982-.017-20.099-.434-13.754-5.498-33.125-11.159-45.58-8.062 1.805-14.873 3.398-22.774 5.747"/><path fill="#a0a0a4" d="M771.089 277.966c1.141 6.874 1.319 13.264.017 20.099-.135-6.174-.191-13.982-.017-20.099"/><path fill="#dd7328" d="M947.442 338.746c20.772-2.092 32.026-4.904 50.856-14.37-.569 15.599-.82 30.203-3.738 45.561-11.008 7.855-23.163 11.107-36.211 13.816-.362-1.976-.75-3.383-1.138-5.27a103 103 0 0 0-3.864-13.973c3.363-.481 24.579-4.891 24.16-9.025-1.225.787-2.612.979-3.957 1.508a76.4 76.4 0 0 1-20.95 5.111c-.409-2.051-.806-4.087-1.291-6.121l-.957-3.997c-1.005-4.325-2.039-8.89-2.91-13.24M712.83 324.394c10.713 5.33 25.723 11.403 37.672 12.556l13.019 1.313c-.122 2.307-.14 3.375-.022 5.671-.578 5.048-1.365 9.245-3.06 14.017-1.502 2.491-.167 2.334-3.092 3.471a425 425 0 0 0-8.127-.717l.615 2.159-2.238.419c-1.09 7.171-.214 12.799.572 19.869-6.981-2.276-13.139-3.67-20-6.67-4.072-1.781-7.399-5.258-10.365-5.444-4.948-10.584-4.95-34.856-4.974-46.644"/><path fill="#e7e7e6" d="M747.597 363.283c-2.426-.994-12.995-3.371-13.206-6.408.31-.381 13.766 3.392 14.829 3.83l.615 2.159z"/><path fill="#fdfdfc" d="M849.511 323.186c-2.039 3.75-4.378 7.402-6.246 11.225l1.101 1.804c-1.497 2.366-2.982 4.147-4.621 6.411-19.94 22.953-49.152 40.616-80.079 41.412-5.592-.109-5.91.01-11.497-.886-.786-7.07-1.662-12.698-.572-19.869l2.238-.419-.615-2.159q4.067.32 8.127.717c2.925-1.137 1.59-.98 3.092-3.471 1.153 1.817 1.618 2.704 4.014 2.805 25.085 1.057 48.698-7.103 67.818-23.424l1.372-1.147 1.591 1.183c4.924-4.646 9.513-9.379 14.277-14.182"/><path fill="#687277" d="M749.835 362.864c4.02.599 6.949.939 11.01 1.287-.023 7.902-.727 10.578 2.167 17.813a295 295 0 0 0-3.346 2.074c-5.592-.109-5.91.01-11.497-.886-.786-7.07-1.662-12.698-.572-19.869z"/><path fill="#616165" d="m843.265 334.411 1.101 1.804c-1.497 2.366-2.982 4.147-4.621 6.411-19.94 22.953-49.152 40.616-80.079 41.412a295 295 0 0 1 3.346-2.074c31.835-4.317 61.913-20.409 80.253-47.553"/><path fill="#727276" d="m833.643 336.185 1.591 1.183c-18.354 16.007-53.481 31.207-77.887 24.054 2.925-1.137 1.59-.98 3.092-3.471 1.153 1.817 1.618 2.704 4.014 2.805 25.085 1.057 48.698-7.103 67.818-23.424z"/><path fill="#fdfdfc" d="m839.745 342.626 2.954-.33c-15.357 29.106-55.253 53.641-88.701 44.215 1.405-.959 2.47-1.601 4.109-2.037l1.559-.436c30.927-.796 60.139-18.459 80.079-41.412"/><path fill="#d0cdcc" d="M953.347 364.51c-26.273 3.181-57.077-4.108-78.097-20.873-4.576-3.65-14.488-14.522-15.962-19.964 1.6 1.161 10.894 12.841 15.76 16.851 23.448 19.325 48.354 23.506 77.552 21.58a76.4 76.4 0 0 0 20.95-5.111c1.345-.529 2.732-.721 3.957-1.508.419 4.134-20.797 8.544-24.16 9.025"/><path fill="#fdfdfc" d="M838.357 205.247c2.414-11.174 8.93-10.175 19.354-10.253l-.444 1.925c-.78 10.084-3.217 8.45-5.581 14.582 1.348.982.196 1.861-.531 3.322-4.236-2.711-9.345-4.232-11.871-8.277z"/><path fill="#727276" d="M838.357 205.247c2.414-11.174 8.93-10.175 19.354-10.253l-.444 1.925c-10.113.204-14.397-1.943-16.808 8.813z"/><path fill="#8c8a8b" d="m838.357 205.247 2.102.485c4.525 4.25 4.76 3.903 11.227 5.769 1.348.982.196 1.861-.531 3.322-4.236-2.711-9.345-4.232-11.871-8.277z"/><path fill="#e7e7e6" d="M717.804 371.038c2.966.186 6.293 3.663 10.365 5.444 6.861 3 13.019 4.394 20 6.67 5.587.896 5.905.777 11.497.886l-1.559.436c-1.639.436-2.704 1.078-4.109 2.037-16.848-5.366-20.173-4.254-36.38-14.66z"/><path fill="#d0cdcc" d="M844.366 336.215c.958-2.206 1.096-2.387 2.409-4.177l.306.214.076-.333.146.001c.573 1.739-3.359 8.759-4.604 10.376l-2.954.33c1.639-2.264 3.124-4.045 4.621-6.411"/><path fill="#687277" d="M1181.6 257.797c4.52-6.368 11.68-16.909 17.96-23.059 18.74-18.354 62.49-45.256 88.81-30.221 7.45 4.254 11.49 17.814 12.47 26.381.33 2.855.62 5.712.9 8.573-8.8-2.565-16.79-4.889-25.77-6.923-15.61 35.294-12.81 69.178-3.48 105.68 20.4-2.142 35.25-3.607 52.76-14.99-1.22 14.952-1.76 34.127-6.07 48.158-11.54 7.323-22.81 9.713-35.92 13.142-34.55 4.286-66.14-11.994-86.84-39.104-1.89-2.471-6.1-7.648-8.39-9.384l.5.914c28.03 51.769 79.19 65.193 130.28 37.017l-.27.873-.47 1.448c-8.99 28.374-29.66 30.375-55.1 24.963-38.71-8.235-62.39-28.701-83.36-60.53-19.23 33.66-74.77 73.815-118.18 59.131-10.8-3.651-15.8-16.298-19.36-26.508 14.8 7.677 35.38 14.315 51.98 15.392 19.89 1.292 40.79-9.783 54.83-23.14 5.92-5.632 19.52-19.554 19.79-28.14l-1.47-1.862c4.24-5.431 5.4-7.961 8.5-14.088-4.27 4.809-8.93 9.396-13.46 13.973l-1.78-.968c3.16-2.944 19.35-18.864 16.78-22.804-1.59-.49-3.88 2.599-4.98 3.676l-1.45-1.071c6.12-5.651 8.08-9.807 7.51-18.992-.11-1.831-2.02-.726-2.86-.244l-1.51-.644c7.56-6.466 4.95-10.911.86-20.345l.62-1.018 2.09 1.991c1.44-2.022.23-5.469-.26-8.619.11-1.21.41-2.44.65-3.636l1.71-4.95z"/><path fill="#dd7328" d="M1272.49 338.228c20.4-2.142 35.25-3.607 52.76-14.99-1.22 14.952-1.76 34.127-6.07 48.158-11.54 7.323-22.81 9.713-35.92 13.142-.74-3.675-1.28-7.37-1.99-11.049a140 140 0 0 0-2.05-9.254c2.58-.515 22.61-4.855 22.34-7.888l-.18-.148c.25.036-18.84 5.031-21.18 5.428l-1.96.324c-1.98-7.843-3.3-16.037-5.75-23.723"/><path fill="#d0cdcc" d="M1279.22 364.235c-15.2 2.068-30.68.716-45.29-3.958-19.33-5.973-41.5-20.112-50.99-38.303l.55-.356c30 33.235 48.71 42.903 94.75 40.333l1.96-.324c2.34-.397 21.43-5.392 21.18-5.428l.18.148c.27 3.033-19.76 7.373-22.34 7.888"/><path fill="#dd7328" d="M907.971 743.464c14.422-7.905 30-13.178 45.707-17.742-13.186 29.917-34.401 64.694-22.837 98.018 13.513 32.055 53.546 52.014 76.489 76.33-20.576-9.424-34.145-15.817-56.349-21.9a201 201 0 0 0-12.496-2.926c-8.208-1.356-15.956-2.95-24.312-3.509-40.733-3.926-69.121 5.843-105.458 22.164-19.015 9.518-32.816 17.303-50.464 29.501-4.544 3.565-4.958 3.205-8.047 7.956l-1.013.556c.391-11.288 16.938-45.506 23.26-56.02 23.337-53.287 82.856-108.296 135.52-132.428"/><path fill="#261610" d="m929.672 824.39 1.169-.65c13.513 32.055 53.546 52.014 76.489 76.33-20.576-9.424-34.145-15.817-56.349-21.9a201 201 0 0 0-12.496-2.926c-8.208-1.356-15.956-2.95-24.312-3.509l-.252-1.578c27.098.6 62.267 13.439 86.469 24.779-22.368-19.83-59.174-41.174-70.718-70.546"/><path fill="#823f14" d="M907.971 743.464c14.422-7.905 30-13.178 45.707-17.742-13.186 29.917-34.401 64.694-22.837 98.018l-1.169.65c-13.159-23.592 5.372-61.54 14.696-83.76.908-2.163 5.101-9.361 5.143-10.98-1.59-1.589-30.704 10.258-34.121 12.014l-1.323.651c-2.637 1.318-3.827 2.777-6.096 1.149m-99.256 150.435-.112-1.298c19.379-13.68 83.227-29.513 105.318-22.444l.252 1.578c-40.733-3.926-69.121 5.843-105.458 22.164"/><path fill="#231e1e" d="M772.451 875.892c-.113 5.407-17.64 37.323-19.934 48.566 3.318 1.015 2.851-3.115 5.734-1.058-4.544 3.565-4.958 3.205-8.047 7.956l-1.013.556c.391-11.288 16.938-45.506 23.26-56.02"/><path fill="#fdfdfc" d="M1393.1 238.611c7.29-31.122 16.58-47.872 52.54-34.023 23.15 8.914 52.42 31.828 62.5 55.11l-1.63 1.412c1.99 4.091 3.73 9.635 2.41 14.134-1.63-.581-1.01-.103-1.96-1.293l-1.04.858c3.09 7.613 6.15 11.732-.11 18.054l1.74.515c2.91 2.045 1.52 7.543 1.35 11.061-3.37 4.9-4.49 6.543-8.82 10.624l1.19 1.248c3.08-3.075 5.6-5.888 8.81-8.917l-2.78 6.639c-3.57 8.642-11.35 16.888-18.38 22.874l1.39 1.45c7.4-6.913 9.24-9.653 15.76-16.938-2.8 5.439-4.56 8.881-7.79 14.241l1.29 1.778c-1.93 2.099-2.84 3.246-4.38 5.61-18.88 22.012-49.04 39.014-78.27 40.142-5.32.086-9.24-.151-14.43-1.155-13.31-3.478-18.68-5.201-30.35-12.377-.86-3.961-1.73-8.632-2.14-12.657a397 397 0 0 1-2.06-33.584c17.75 10.721 30.03 12.15 49.94 16.27l1.37-.863c4.35-9.311 7.48-29.241 7.86-39.552-.17-7.178-.18-14.36 0-21.538-1.18-17.063-4.25-29.092-10.22-45.234-8.4 1.591-15.82 3.031-23.79 6.111"/><path fill="#fdfdfc" d="M1419.19 232.823c31.79.328 49.32 8.052 73.78 27.705 4.82 3.216 9.38 9.609 12.95 14.281 3.09 7.613 6.15 11.732-.11 18.054-1.87.705-11.22 7.421-13.49 9.085-25.71 10.928-36.29 11.217-64.57 10.86 2.43-19.11 2.48-34.794-.86-53.791a187 187 0 0 0-6.32-22.399z"/><path fill="#fdfdfc" d="m1505.81 292.863 1.74.515c2.91 2.045 1.52 7.543 1.35 11.061-3.37 4.9-4.49 6.543-8.82 10.624-25.4 19.527-47.09 26.789-78.9 25.786 1.13-5.073 2.57-9.898 3.71-14.876l.95-3.997c.59-2.61 1.26-4.971 1.85-7.531 22.03.795 42.34.443 62.52-9.648.59-.195 1.19-.39 1.78-.585l.33-2.264c2.27-1.664 11.62-8.38 13.49-9.085"/><path fill="#8c8a8b" d="m1505.81 292.863 1.74.515c-4.14 3.022-8.11 6.076-12.35 9.026l-2.88-.456c2.27-1.664 11.62-8.38 13.49-9.085"/><path fill="#dd7328" d="M1367.94 323.417c17.75 10.721 30.03 12.15 49.94 16.27 1.67 1.923-1.72 19.043-1.97 23.058-4.53-1.318-5.86-1.698-10.56-2.096l.51 2.2c-1.15-.004-2.26-.004-3.41-.043-.57 7.023-.66 12.211.04 19.229-13.31-3.478-18.68-5.201-30.35-12.377-.86-3.961-1.73-8.632-2.14-12.657a397 397 0 0 1-2.06-33.584"/><path fill="#e7ba9d" d="M1402.45 362.806c-3.26-1.686-13.34-4.251-14.04-6.906.63-.808 15.68 4.188 16.94 4.749l.51 2.2c-1.15-.004-2.26-.004-3.41-.043"/><path fill="#fdfdfc" d="M1490.31 338.357c7.4-6.913 9.24-9.653 15.76-16.938-2.8 5.439-4.56 8.881-7.79 14.241l1.29 1.778c-1.93 2.099-2.84 3.246-4.38 5.61-18.88 22.012-49.04 39.014-78.27 40.142-5.32.086-9.24-.151-14.43-1.155-.7-7.018-.61-12.206-.04-19.229 1.15.039 2.26.039 3.41.043l-.51-2.2c4.7.398 6.03.778 10.56 2.096 26.72 2.226 53.72-7.674 74.4-24.388"/><path fill="#687277" d="M1402.45 362.806c1.15.039 2.26.039 3.41.043 4.01.408 7.57.901 11.63 1.229.67 5.854 1.56 11.064 1.54 16.977l-2.11 2.135c-5.32.086-9.24-.151-14.43-1.155-.7-7.018-.61-12.206-.04-19.229"/><path fill="#616165" d="m1498.28 335.66 1.29 1.778c-1.93 2.099-2.84 3.246-4.38 5.61-18.88 22.012-49.04 39.014-78.27 40.142l2.11-2.135c32.23-2.792 59.71-19.993 79.25-45.395"/><path fill="#fdfdfc" d="M1501.27 316.311c3.08-3.075 5.6-5.888 8.81-8.917l-2.78 6.639c-3.57 8.642-11.35 16.888-18.38 22.874-20.88 17.282-40.71 22.985-67.15 24.425-1.66.02-2.33.025-3.97.272.3-6.183 1.35-12.133 2.41-18.215l.15-.889c30.89.13 56.56-5.455 80.91-26.189"/><path fill="#727276" d="M1393.1 238.611c7.29-31.122 16.58-47.872 52.54-34.023 23.15 8.914 52.42 31.828 62.5 55.11l-1.63 1.412a154 154 0 0 0-4.6-8.02c-13.77-22.367-42.5-44.013-68.15-50.372-25.21-6.249-33.32 11.516-37.59 32.342 37.59-9.867 65.18-1.774 95.71 21.865l1.09 3.603c-24.46-19.653-41.99-27.377-73.78-27.705l1.38 3.795a187 187 0 0 1 6.32 22.399c3.34 18.997 3.29 34.681.86 53.791 28.28.357 38.86.068 64.57-10.86l-.33 2.264c-.59.195-1.19.39-1.78.585-20.18 10.091-40.49 10.443-62.52 9.648-.59 2.56-1.26 4.921-1.85 7.531l-.95 3.997c-1.14 4.978-2.58 9.803-3.71 14.876 31.81 1.003 53.5-6.259 78.9-25.786l1.19 1.248c-24.35 20.734-50.02 26.319-80.91 26.189l-.15.889c-1.06 6.082-2.11 12.032-2.41 18.215 1.64-.247 2.31-.252 3.97-.272 26.44-1.44 46.27-7.143 67.15-24.425l1.39 1.45c-20.68 16.714-47.68 26.614-74.4 24.388.25-4.015 3.64-21.135 1.97-23.058l1.37-.863c4.35-9.311 7.48-29.241 7.86-39.552-.17-7.178-.18-14.36 0-21.538-1.18-17.063-4.25-29.092-10.22-45.234-8.4 1.591-15.82 3.031-23.79 6.111"/><path fill="#a0a0a4" d="M1427.11 277.734a59.1 59.1 0 0 1 0 21.538c-.17-7.178-.18-14.36 0-21.538"/><path fill="#d0cdcc" d="M1417.8 361.604c1.64-.247 2.31-.252 3.97-.272-1.61.969-2.17.621-3.97.272"/><path fill="#616165" d="M1491.88 256.925c5.88 4.656 11.52 10.375 15.08 17.026l-1.04.858c-3.57-4.672-8.13-11.065-12.95-14.281z"/><path fill="#fdfdfc" d="M1061.69 238.274c2.01-7.163 3.87-14.145 7.12-20.871 14.28-29.497 48.11-13.495 68.86-1.65l1.98 1.408c17.87 13.469 28.1 23.941 37.86 44.505l.4 1.153c-.24 1.196-.54 2.426-.65 3.636.49 3.15 1.7 6.597.26 8.619l-2.09-1.991-.62 1.018c4.09 9.434 6.7 13.879-.86 20.345l1.51.644c.84-.482 2.75-1.587 2.86.244.57 9.185-1.39 13.341-7.51 18.992-6.19 4.525-12.05 8.079-18.11 12.356l-.69 2.61c-11.17 3.66-17.5 7.988-30.61 10.329-11.26 2.012-20.81.585-31 1.893l-1.04-2.183c.4-.661.82-1.281 1.04-2.028 9.82-33.309 10.38-73.545-4.46-104.733-9.04 1.565-15.36 3.24-24.25 5.704"/><path fill="#fdfdfc" d="M1064.29 235.541c3.88-13.289 8.71-29.949 24.79-32.496 15.02-2.379 34.76 5.859 46.72 14.551l1.87-1.843 1.98 1.408c17.87 13.469 28.1 23.941 37.86 44.505l.4 1.153c-.24 1.196-.54 2.426-.65 3.636.49 3.15 1.7 6.597.26 8.619l-2.09-1.991c-.81-1.169-1.27-1.906-2.18-2.96-6.23-11.755-22.26-22.807-33.94-28.509-24.55-11.98-49.13-14.682-75.02-6.073"/><path fill="#616165" d="m1137.67 215.753 1.98 1.408c17.87 13.469 28.1 23.941 37.86 44.505l.4 1.153c-.24 1.196-.54 2.426-.65 3.636-6.26-18.058-23.11-37.533-39.18-47.75q-1.155-.545-2.28-1.109z"/><path fill="#a0a0a4" d="m1137.67 215.753 1.98 1.408-1.57 1.544q-1.155-.545-2.28-1.109z"/><path fill="#fdfdfc" d="M1175.46 295.09c.84-.482 2.75-1.587 2.86.244.57 9.185-1.39 13.341-7.51 18.992-6.19 4.525-12.05 8.079-18.11 12.356-25.75 10.613-32.67 13.21-61.13 12.138 2.24-8.536 3.7-15.747 5.23-24.347 25.38 1.359 41.85.518 65.02-9.937.68-.296.78-.259 1.22-.763a89 89 0 0 0 12.42-8.683"/><path fill="#727276" d="M1061.69 238.274c2.01-7.163 3.87-14.145 7.12-20.871 14.28-29.497 48.11-13.495 68.86-1.65l-1.87 1.843c-11.96-8.692-31.7-16.93-46.72-14.551-16.08 2.547-20.91 19.207-24.79 32.496 25.89-8.609 50.47-5.907 75.02 6.073 11.68 5.702 27.71 16.754 33.94 28.509l-1.58.148c-12.43-18.146-44.62-36.1-66.49-37.24l-1.87-.129c-4.88.103-10.07.139-14.94-.15 2.51 8.135 5.29 14.698 7.44 23.269l.96 3.997c3.54 19.934 2.64 32.491.91 52.44 30.84 2.329 48.68-.399 74.72-17.001l1.55-1.011 1.51.644a89 89 0 0 1-12.42 8.683c-.44.504-.54.467-1.22.763-23.17 10.455-39.64 11.296-65.02 9.937-1.53 8.6-2.99 15.811-5.23 24.347 28.46 1.072 35.38-1.525 61.13-12.138l-.69 2.61c-11.17 3.66-17.5 7.988-30.61 10.329-11.26 2.012-20.81.585-31 1.893l-1.04-2.183c.4-.661.82-1.281 1.04-2.028 9.82-33.309 10.38-73.545-4.46-104.733-9.04 1.565-15.36 3.24-24.25 5.704"/><path fill="#a0a0a4" d="M1088.37 232.752c5.76-1.355 9.21-1.005 14.94.15-4.88.103-10.07.139-14.94-.15"/><path fill="#d0cdcc" d="M1173.25 270.123c.91 1.054 1.37 1.791 2.18 2.96l-.62 1.018-3.14-3.83z"/><path fill="#823f14" d="M1477.77 1167.42c5.17-.55 13.73-.45 19.23-.52-10.02 16.72-36.81 41.45-53.11 52.5-38.29 25.96-76.61 27.77-120.74 19.38-8.32-1.92-14.38-3.45-22.47-6.08 64.38-61.61 94.26-59.98 177.09-65.28"/><path fill="#dd7328" d="M1476.76 1169.31c4.56-.35 12.06-.24 16.86-.33-48.38 59.49-90.14 80.9-166.58 68.5-7.2-1.51-15.3-3.74-22.52-5.54 64.23-61.31 92.33-55.56 172.24-62.63m-894.578-3.12c8.113.4 16.228.74 24.346 1.05 44.146 3.56 97.918 4.42 134.289 33.28 13.386 8.96 27.394 21.23 38.733 32.54-39.783 10.92-85.352 16.89-123.661-2.67-27.747-14.16-54.985-39.14-73.707-64.2"/><path fill="#532811" d="M582.182 1166.19c8.113.4 16.228.74 24.346 1.05l-.399 1.86c-7.132-.35-13.57-.96-20.679-1.69 61.124 70.99 99.233 85.72 190.961 64.75a448 448 0 0 0-36.819-30.78l1.225-.86c13.386 8.96 27.394 21.23 38.733 32.54-39.783 10.92-85.352 16.89-123.661-2.67-27.747-14.16-54.985-39.14-73.707-64.2"/><path fill="#823f14" d="M606.528 1167.24c44.146 3.56 97.918 4.42 134.289 33.28l-1.225.86c-3.159-1.44-9.482-5.35-12.634-7.24-37.751-22.64-78.099-20.09-120.829-25.04z"/><path fill="#dd7328" d="m1539.39 900.851 2.12.465c3.28 12.225-8.75 63.726-13.96 77.931-16.55 45.093-48.08 61.913-88.95 80.943l-.95-.26c-2.26-4.96 3.79-40.77 5.18-46.98 8.82-39.194 32.85-63.511 63.35-87.712 10.34-8.204 21.89-17.387 33.21-24.387"/><path fill="#823f14" d="M540.423 900.257c18.103 8.191 38.695 28.54 54.136 41.536 36.632 30.83 47.512 71.257 48.622 118.287-21.458-8.95-45.28-22.68-62.429-38.2-29.389-26.608-39.634-82.895-40.329-121.623"/><path fill="#dd7328" d="M542.61 903.4c12.225 6.025 35.652 26.846 46.825 36.371 39.77 33.904 49.147 65.919 51.503 117.369-20.153-9.5-39.298-19.79-56.28-34.4-32.067-27.587-39.974-78.816-42.048-119.34m999.09 133.57 1.68.07.55 1.34c-6.84 22.54-21.26 49.59-36.49 67.49-29.83 35.05-64.24 44.96-108.68 48.55l-1.49-.52c-.93-3.43 7.08-16.96 8.81-21.29 24.64-61.49 76.69-75.18 135.62-95.64M674.184 649.691c2.876 2.176 5.202 13.567 6.003 17.421 14.159 68.158 15.815 107.582-21.44 166.639l-7.871-11.093c-12.872-19.828-21.651-38.631-23.493-62.687-2.96-38.644 22.278-81.908 46.801-110.28m-136.43 386.769a867 867 0 0 1 49.644 18.14c60.78 24.22 70.346 41.17 95.887 100.47-30.996-6.68-48.264-2.5-80.435-22.65-28.85-18.08-58.13-64.01-65.096-95.96"/><path fill="#823f14" d="M1490.66 769.791c9.29 14.342 15.61 53.694 15.42 71.32-.56 50.726-21.23 74.369-54.43 107.751l-2.12 1.099c-2.98-2.555-7.79-27.083-8.84-31.969-11.62-54.014 19.45-104.863 49.97-148.201"/><path fill="#dd7328" d="M1490.43 773.792c7.92 12.465 13.86 52.093 13.6 67.548-.85 49.594-19.68 71.85-52.36 104.346l-.84.602-1.25-.486c-12.4-47.187-14.27-76.58 9.84-121.318 9.95-18.459 18.15-33.614 31.01-50.692"/><path fill="#532811" d="M1408.06 649.787c18.48 17.493 37.58 53.553 43.75 77.979 9.71 38.437-2.59 63.599-21.26 95.76l-7.05 11.364a314 314 0 0 1-3.71-6.376c-7.74-13.522-15.03-27.272-19.63-42.229-13.34-43.374-3.76-93.618 7.9-136.498"/><path fill="#dd7328" d="M1409.07 653.69c15.88 14.398 36.91 55.107 41.48 76.457 7.72 36.063-2.67 60.508-20.92 90.374l-6.2 10.085q-1.395-2.194-2.7-4.435c-34.72-59.15-28.29-108.031-11.66-172.481"/><path fill="#823f14" d="m892.209 516.938 1.232.55c.546 4.577-7.988 34.479-9.827 40.678-15.983 53.863-34.742 85.694-85.127 113.234-1.674-7.585-1.185-12.532-1.672-20.054-1.334-20.625-1.423-41.262 6.625-60.732 16.101-38.954 52.251-58.146 88.769-73.676"/><path fill="#dd7328" d="M890.752 519.186c.39 3.631-2.06 13.472-3.138 17.258-18.189 63.894-27.984 96.537-87.331 131.752-3.212-18.83-3.333-55.104 3.508-73.238 15.68-41.567 50.113-58.285 86.961-75.772"/><path fill="#261610" d="M591.33 770.47c11.689 8.851 37.864 61.253 43.333 76.034a139.3 139.3 0 0 1 7.556 29.785c2.621 19.943-.741 44.074-6.405 63.207-1.128 3.813-1.012 7.244-3.415 10.388l-1.366-.577c-59.885-55.105-67.561-103.114-39.703-178.837"/><path fill="#dd7328" d="M591.983 773.486c15.647 15.55 36.351 61.12 43.834 81.34 7.942 21.459 6.284 71.336-4.185 91.346l-1.709.08c-54.482-52.655-66.118-101.03-37.94-172.766"/><path fill="#823f14" d="M1187.27 515.549c41.73 17.077 83.42 42.3 93.76 89.711 5.11 23.444 3.73 40.182 1.87 63.582l-.81.912c-3.64.086-16.8-8.692-20.43-11.01-46.6-29.769-63.93-91.287-74.39-143.195"/><path fill="#dd7328" d="M1189.84 519.065c24.29 7.19 57.94 30.283 73.19 51.06 20.9 28.474 22.03 61.989 17.45 95.55l-.27.667c-2.95.364-8.14-3.566-11.24-5.387-52.13-30.688-66.15-86.452-79.13-141.89M704.824 676.099c3.378-45.196 39.58-81.587 74.046-107.466.532 82.114.095 114.61-65.27 171.482l-2.847-8.171c-5.55-16.873-6.807-38.29-5.929-55.845"/><path fill="#231e1e" d="M704.824 676.099c3.378-45.196 39.58-81.587 74.046-107.466.532 82.114.095 114.61-65.27 171.482l-2.847-8.171 1.392-.561c1.774 4.029.46 3.238 3.265 4.396 5.95-4.228 13.477-11.668 18.81-16.91 44.954-44.183 43.049-88.234 42.675-146.903-26.522 22.215-71.604 63.919-69.911 101.881q-1.072 1.133-2.16 2.252"/><path fill="#823f14" d="M706.984 673.847c.287 6.796-.554 12.382-.06 20.153.832 13.112 2.33 24.503 5.221 37.383l-1.392.561c-5.55-16.873-6.807-38.29-5.929-55.845q1.087-1.12 2.16-2.252m596.466-104.195c18.42 10.962 42.76 35.787 54.45 53.79 25.81 39.732 21.36 68.967 12.61 112.048-.67 1.901-1.11 2.899-1.93 4.729-4.54-1.508-28.26-27.107-32.33-31.657-26.41-29.586-30.43-60.647-32.09-98.966-.53-12.143-1.77-27.659-.71-39.944"/><path fill="#dd7328" d="M1305.94 573.051c59.93 48.438 80.37 82.849 62.9 159.767l-.86 2.881-1.5.593c-14.59-15.203-27.07-24.959-39.54-43.278a95.8 95.8 0 0 1-13.11-27.276c-5.16-17.292-11.24-75.339-7.89-92.687"/><path fill="#823f14" d="M780.583 749.432c19.132-.984 46.102 2.612 64.864 5.138-19.302 18.854-51.007 45.469-75.662 55.909-9.906 4.194-21.067 6.612-31.56 8.717-21.108 3.427-39.453 4.373-60.719 4.981 27.965-47.864 44.566-71.796 103.077-74.745"/><path fill="#dd7328" d="M692.215 821.57c-4.259.23-6.29.483-10.455-.135 7.316-15.832 24.308-39.681 37.854-50.652 32.576-26.382 82.986-19.356 121.661-14.991-8.381 8.514-19.342 16.613-28.213 24.324-36.939 32.108-66.76 38.862-115.486 40.931-2.504.552-2.752.53-5.361.523"/><path fill="#823f14" d="M1243.29 676.33c35.36-5.906 71.08 22.712 92.55 47.484-11.76 1.161-26.92 4.781-38.98 6.958-17.04 3.074-29.66 4.157-46.74 5.179-37.07.244-63.01-14.391-96.18-29.227 28.36-12.168 58.53-26.154 89.35-30.394"/><path fill="#dd7328" d="M1251.49 677.611c28.46 1.016 63.91 21.046 79.36 44.648-8.47.896-21.8 4.051-30.62 5.663-21.2 3.875-40.19 6.17-61.8 5.87-36.77-5.842-45.63-12.351-79.74-26.92 29.28-13.132 60.54-26.532 92.8-29.261"/><path fill="#823f14" d="M1287.89 749.428c59.48-2.82 93.41 21.6 116.75 75.823-13.99-1.32-29.22-2.455-43-4.605-61.93-7.237-79.34-27.826-125.03-66.478 16.57-3.073 34.44-3.806 51.28-4.74"/><path fill="#dd7328" d="M1266.24 752.55c31.61-1.191 64.31-4.23 92.01 14.483 14.3 9.653 39.38 39.052 42.19 55.315-2.85.788-15.4-1.03-19.18-1.336l-1.03-.076c-1.44-.049-2.37-.09-3.74-.232-48.14-4.994-77.77-12.893-113.31-46.893-3.61-3.45-19.12-15.552-20.8-17.59 2.55-3.211 16.78-2.318 22.29-3.359zm-474.261-66.532c39.922-17.97 62.898-7.894 103.397 6.248 8.796 3.072 24.802 9.641 32.714 13.834-5.096 2.58-10.068 5.162-15.296 7.473-26.395 12.419-50.618 23.344-80.356 22.015-28.794-1.286-56.953-7.267-85.234-12.179 15.031-17.139 25.282-26.33 44.775-37.391"/><path fill="#532811" d="M747.204 723.409c15.031-17.139 25.282-26.33 44.775-37.391l1.331 1.239c-20.288 11.687-26.15 18.104-42.449 34.641 79.028 11.711 84.492 23.397 161.149-9.861l.784 1.536c-26.395 12.419-50.618 23.344-80.356 22.015-28.794-1.286-56.953-7.267-85.234-12.179"/><path fill="#261610" d="M791.979 686.018c39.922-17.97 62.898-7.894 103.397 6.248 8.796 3.072 24.802 9.641 32.714 13.834-5.096 2.58-10.068 5.162-15.296 7.473l-.784-1.536c3.644-1.365 8.72-3.995 12.361-5.735-12.512-6.051-29.727-12.761-42.912-17.317-33.362-11.53-55.686-17.188-88.149-1.728z"/><path fill="#dd7328" d="M1057.03 683.133c48.29-54.798 101.45-77.533 168.69-37.408-31.76 20.188-62.07 41.952-100.85 43.464-3.68.223-6.65.627-10.27-.077-14.75-.093-42.71-3.458-57.57-5.979"/><path fill="#532811" d="M1057.03 683.133c48.29-54.798 101.45-77.533 168.69-37.408-31.76 20.188-62.07 41.952-100.85 43.464l2.21-2.228c30.86 1.659 70.37-25.178 94.95-41.144a141.1 141.1 0 0 0-57.62-17.93q-7.395.153-14.79-.016c-38.39 4.174-63.09 27.529-89.34 54.241 10.14 1.174 37.25 5.112 45.68 4.854 3.25.725 5.43 1.195 8.64 2.146-14.75-.093-42.71-3.458-57.57-5.979"/><path fill="#823f14" d="M1149.62 627.871c6.13-1.443 8.62-1.376 14.79.016q-7.395.153-14.79-.016m-43.66 59.095c6.5-.13 14.47-.034 21.12-.005l-2.21 2.228c-3.68.223-6.65.627-10.27-.077-3.21-.951-5.39-1.421-8.64-2.146"/><path fill="#532811" d="M857.754 645.349c21.723-11.55 50.194-21.701 74.925-19.88l.753.319c35.959 1.61 68.588 32.465 92.718 57.055-1.65.358-3.14.682-4.81.894-51.837 6.577-72.842 11.915-119.726-11.637a288 288 0 0 1-43.86-26.751"/><path fill="#dd7328" d="M916.992 627.675c.901-.408.713-.387 1.678-.406 4.42-.084 9.425-.356 13.765.14 2.575.673 3.436.627 6.152.757 28.492 1.052 63.993 33.414 83.073 53.127-5.22 1.281-10.14 1.83-15.32 2.504-43.632 5.686-70.078 6.518-109.152-15.918-13.02-7.476-23.349-12.65-36.078-22.478 20.041-9.156 33.936-15.298 55.882-17.726"/><path fill="#823f14" d="m932.679 625.469.753.319a113 113 0 0 0 5.155 2.378c-2.716-.13-3.577-.084-6.152-.757zm379.841 205.23c18.45 3.545 35.48 9.068 53.38 13.838 54.86 14.614 64.93 50.738 67.85 104.117-11.29-5.313-24.44-14.301-35.15-19.833-52.54-27.13-61.48-47.253-86.08-98.122"/><path fill="#dd7328" d="M1316.19 833.83c19.65 2.434 69.78 16.865 85.22 29.763 25.67 21.459 26.78 50.361 30.09 80.71-5.9-.969-26.34-14.482-33.04-17.833-44.18-22.101-62.79-47.417-82.27-92.64m-549.72-2.784 2.591-.204 1.087 1.055c-4.552 13.465-27.399 52.477-36.816 62.144-19.848 20.373-55.733 38.619-80.784 52.924-.484.438-.055.15-1.948.815-4.497-9.698 8.409-57.862 15.29-69.541 18.677-31.706 67.34-38.831 100.58-47.193"/><path fill="#532811" d="M1009.08 534.388c2.76-.526 8.95-.431 12.03-.484-12.14 17.951-24.443 35.658-39.625 51.21-21.6 22.125-59.926 32.166-90.235 31.717-4.707-.147-9.631-.124-14.36-.176 7.261-20.059 24.21-48.152 42.259-60.063 23.138-15.269 62.978-18.736 89.931-22.204"/><path fill="#dd7328" d="m1015.94 535.469.25.338c-.27 6.387-30.596 42.952-36.674 48.783-25.989 24.933-63.54 30.816-98.165 30.085l-.716-.884c.537-6.605 13.526-27.068 17.536-33.305 26.504-41.225 73.074-37.221 117.769-45.017"/><path fill="#823f14" d="M1061.06 532.852c21.2 1.062 66.52 8.343 86.65 15.481 30.47 10.808 45.37 40.832 57.56 68.739a249 249 0 0 1-47.37-4.216c-51.14-9.838-68.64-38.394-96.84-80.004"/><path fill="#dd7328" d="M1065.22 534.821c74.83 12.611 102.06 2.468 136.62 79.472-11.23 1.999-37.55-2.56-49.35-4.7-41.88-7.597-65.3-40.143-87.27-74.772"/><path fill="#532811" d="m731.393 919.829 1.532 1.331c1.384 10.676-3.981 41.027-5.642 51.433-5.57 34.907-35.811 70.987-65.368 89.867l-1.128-1.67c-19.356-81.072 8.463-98.249 70.606-140.961"/><path fill="#dd7328" d="M730.107 923.121c2.14 2.493-.166 14.594-.321 17.953-2.01 43.656-17.685 78.996-51.862 106.856-4.437 3.62-8.77 8.36-14.401 10.75l-1.805-.89c-14.182-79.814 5.131-91.037 68.389-134.669m621.143-2.669c9.18 6.464 19.18 12.27 28.07 19.113 50.02 37.65 56.67 62.295 40.89 124.065-7.97-7.35-16.4-14.3-24.48-21.59-28.67-25.85-41.53-57.611-42.88-96.05-.33-7.746-1.11-17.584-1.6-25.538"/><path fill="#261610" d="m1377.44 939.964 1.88-.399c50.02 37.65 56.67 62.295 40.89 124.065-7.97-7.35-16.4-14.3-24.48-21.59-28.67-25.85-41.53-57.611-42.88-96.05l2.1 1.764c1.47 53.526 24.56 79.606 63.96 112.046 2.18-9.03 3.94-16.54 5.43-25.77.29-.84.28-.86.35-1.74 2.15-51.38-6.69-60.404-47.25-92.326"/><path fill="#823f14" d="M1351.25 920.452c9.18 6.464 19.18 12.27 28.07 19.113l-1.88.399c-3.74-1.362-19.87-13.141-24.65-16.228l.61 5.266c.52 4.359 1.8 14.764 1.55 18.752l-2.1-1.764c-.33-7.746-1.11-17.584-1.6-25.538m.05 103.848c3.46 2.01 11.12 10.01 14 13.1 14.16 15.19 27.09 30.88 32.42 51.42 6.67 25.75-1.93 47.29-14.95 69.14l-5.01 7.81c-43.36-44.75-43.46-84.67-26.46-141.47"/><path fill="#dd7328" d="M1352.37 1027.69c6.63 5.02 14.96 14.69 20.59 21.02 29.47 33.14 33.6 68.9 9.07 106.77-1.49 2.69-3.17 4.73-5 7.21-7.81-11.12-14.81-19.01-21.78-31.1-19.78-34.27-12.97-67.99-2.88-103.9m-624.532-3.09 1.811 1.07c14.369 44.69 20.048 83.85-10.006 123.49-3.101 4.09-9.641 14.74-14.456 15.57l-2.446-2.59c-33.499-60.28-19.426-90.21 25.097-137.54"/><path fill="#fdfdfc" d="M1172.26 315.397c1.1-1.077 3.39-4.166 4.98-3.676 2.57 3.94-13.62 19.86-16.78 22.804l1.78.968c4.53-4.577 9.19-9.164 13.46-13.973-3.1 6.127-4.26 8.657-8.5 14.088l1.47 1.862c-12.79 13.197-17.9 19.667-33.41 30.847-15.53 10.418-29.72 13.39-47.74 15.199-5.56 1.134-8.49-.195-13.92-.725-12.95-2.734-21.74-5.87-32.62-13.106-1.12-5.321-2.22-11.284-2.88-16.688a294 294 0 0 1-2.27-29.513c12.53 7.373 24.7 11.683 39.17 13.45 3.84.47 11.16.678 14.36 2.397l1.04 2.183c10.19-1.308 19.74.119 31-1.893 13.11-2.341 19.44-6.669 30.61-10.329l.69-2.61c6.06-4.277 11.92-7.831 18.11-12.356z"/><path fill="#dd7328" d="M1035.83 323.484c12.53 7.373 24.7 11.683 39.17 13.45 3.84.47 11.16.678 14.36 2.397l1.04 2.183c-1.23 6.665-2.94 12.337-3.77 19.218l-1.08 1.968c-6.15-1.177-11.66-1.725-17.86-3.263l-2.68 1.321c2.02.698 3.65 1.235 5.73 1.802.34 9.789.91 10.563 2.86 20.231-12.95-2.734-21.74-5.87-32.62-13.106-1.12-5.321-2.22-11.284-2.88-16.688a294 294 0 0 1-2.27-29.513"/><path fill="#e7ba9d" d="M1050.75 355.418c4.26.657 13.13 2.225 16.94 4.019l-2.68 1.321c-5.26-1.328-9.31-3.276-14.26-5.34"/><path fill="#fdfdfc" d="M1172.26 315.397c1.1-1.077 3.39-4.166 4.98-3.676 2.57 3.94-13.62 19.86-16.78 22.804-.34.236-.68.471-1.01.706-20.43 18.571-45.37 26.655-72.82 25.501.83-6.881 2.54-12.553 3.77-19.218 10.19-1.308 19.74.119 31-1.893 13.11-2.341 19.44-6.669 30.61-10.329l.69-2.61c6.06-4.277 11.92-7.831 18.11-12.356z"/><path fill="#616165" d="m1170.81 314.326 1.45 1.071c-6.61 5.551-8.99 6.865-16.03 11.371l-.95.596-2.58-.682c6.06-4.277 11.92-7.831 18.11-12.356"/><path fill="#687277" d="M1070.74 362.56c7.4.845 9.11.924 16.08 1.463.16 5.108.93 13.025.64 17.561l.06 1.932c-5.56 1.134-8.49-.195-13.92-.725-1.95-9.668-2.52-10.442-2.86-20.231"/><path fill="#8c8a8b" d="m1160.46 334.525 1.78.968c-20.87 19.068-48.41 29.083-76.69 27.207l1.08-1.968c27.45 1.154 52.39-6.93 72.82-25.501.33-.235.67-.47 1.01-.706m-27.54 32.759 2.34 1.033c-15.53 10.418-29.72 13.39-47.74 15.199l-.06-1.932c24.2-3.865 22.92-2.861 45.46-14.3"/><path fill="#616165" d="m1167.2 335.608 1.47 1.862c-12.79 13.197-17.9 19.667-33.41 30.847l-2.34-1.033c11.78-6.924 26.07-20.727 34.28-31.676"/><path fill="#687277" d="M1179.23 346.441c25.87 36.795 57.78 60.998 104.56 60.477 1.77-.347 12.41-1.866 13.62-1.239.38.898-3.34 2.55-3.72 2.739l-5.86 2.794.82 2.752-3.61-.664 2.9 2.634c-14.38.262-29.04 5.193-44.99 2.444-29.7-5.119-46.55-19.718-63.83-42.499-31.6 41.692-53.99 47.084-103.41 40.223 2.01-.815 1.14-.164 2.24-2.506-6.56-2.738-9.55-5.518-14.64-10.085 46.09 11.064 92.07-19.113 115.92-57.07"/><path fill="#727276" d="M1283.79 406.918c1.77-.347 12.41-1.866 13.62-1.239.38.898-3.34 2.55-3.72 2.739-3.08-1.326-6.48-1.075-9.9-1.5"/><path fill="#fdfdfc" d="m1287.83 411.212.82 2.752-3.61-.664-1.19-.025.06-.217c1.07-.855 2.63-1.349 3.92-1.846"/><path fill="#687277" d="M762.72 406.458c39.694-4.394 68.176-27.929 91.098-59.331 24.877 34.321 53.927 57.673 97.754 60.068 7.931-.562 14.042-1.316 21.799-2.565-3.078 1.574-7.007 4.048-10.116 4.984l-4.977 2.825.545 1.174-.699 2.369c-13.198-.206-26.49 5.012-40.879 2.405-27.95-5.066-46.77-19.307-63.288-41.075-19.37 26.682-46.384 45.284-80.683 41.453-7.502-.838-14.934-1.975-22.428-2.858l1.154-1.853.27-1.547-2.488-2.242c-4.237-.518-7.871-4.217-11.462-6.961 8.915 1.543 15.32 3.006 24.4 3.154"/><path fill="#727276" d="M738.32 403.304c8.915 1.543 15.32 3.006 24.4 3.154-2.862 2.343-7.063-.456-12.938 3.807-4.237-.518-7.871-4.217-11.462-6.961"/><path fill="#8c8a8b" d="M951.572 407.195c7.931-.562 14.042-1.316 21.799-2.565-3.078 1.574-7.007 4.048-10.116 4.984-3.8-1.574-7.22-1.06-11.683-2.419"/><path fill="#687277" d="M412.263 405.075c36.594 2.398 62.286-2.152 91.213-27.546a163.6 163.6 0 0 0 26.273-29.52c31.171 38.435 66.01 67.062 119.213 57.326-2.127 1.156-13.259 6.811-13.779 8.278l-.134 2.342c-18.901 1.449-33.134 6.183-53.04.281-21.222-6.292-39.933-21.468-50.757-40.62-12.766 16.693-26.652 29.706-46.218 38.08-19.593 8.384-38.905 5.069-59.251 2.497 1.488-.82 1.718-.846 2.01-2.509-5.061-2.847-10.399-5.975-15.53-8.609m-119.811-57.339c24.316 30.308 48.584 54.482 89.801 58.741 8.965.843 17.998.649 26.919-.578q-6.885 3.975-13.711 8.049l3.838 1.984c-13.061.727-25.651 3.329-38.768 2.661-31.876-1.622-49.627-18.988-68.582-42.54-17.769 21.984-35.734 38.711-65.456 42.471-12.827 1.623-23.814-1.443-35.798-1.788l-.839-1.171c1.451-.934 1.628-.491 2.122-2.157-6.162-3.413-8.634-5.088-14.246-9.373 46.959 11.625 86.8-22.787 114.72-56.299"/><path fill="#8c8a8b" d="M134.649 439.471c7.05-1.189 50.167-.547 59.355-.528l137.544.195 541.231.722 817.391-.697c52.78.319 105.57.252 158.35-.2 8.04-.037 58.28-.767 62.79.206l.24 1.744-1187.819.355-392.639-.013-124.388.031c-11.184.002-66.409 1.147-72.055-1.815"/><path fill="#687277" d="M1730.84 135.373c28.52-15.004 57.42 2.694 50.63 34.367-1.68 7.85-9.7 14.754-16.47 18.187-24.16 12.257-53.07-15.275-43.55-40.182l.63-1.394c2.34-5.241 4.21-7.547 8.76-10.978"/><path fill="#fdfdfc" d="M1731.85 136.662c22.99-10.839 29.86 13.379 23.64 31.246-2.66 7.624-14.67 16.891-23.14 11.54-10.61-7.007-12.12-20.187-9.35-31.258l-1.55-.445.63-1.394c2.34-5.241 4.21-7.547 8.76-10.978z"/><path fill="#616165" d="m1730.84 135.373 1.01 1.289c-4.55 4.266-6.3 5.82-8.85 11.528l-1.55-.445.63-1.394c2.34-5.241 4.21-7.547 8.76-10.978"/><path fill="#687277" d="M843.598 131.502c13.954-6.258 30.386-1.438 38.749 11.365s6.174 29.787-5.164 40.05c-11.337 10.263-28.455 10.757-40.365 1.164s-15.074-26.423-7.463-39.686a31.1 31.1 0 0 1 14.243-12.893"/><path fill="#fdfdfc" d="M829.355 144.395a31.1 31.1 0 0 1 14.243-12.893l1.73 1.683c15.003 1.908 19.716 13.697 17.55 27.812a26.14 26.14 0 0 1-10.42 16.958c-9.613 6.887-16.815 4.425-22.186-5.71-5.114-9.65-3.848-17.553-.427-27.237z"/><path fill="#8c8a8b" d="M829.355 144.395a31.1 31.1 0 0 1 14.243-12.893l1.73 1.683c-8.405 2.776-10.161 5.256-15.483 11.823z"/><path fill="#687277" d="M521.838 130.909c14.734-5.595 31.321.756 38.55 14.761 7.23 14.005 2.799 31.206-10.296 39.975-13.096 8.77-30.687 6.318-40.885-5.699a30.998 30.998 0 0 1 12.631-49.037"/><path fill="#fdfdfc" d="m521.838 130.909.408 1.975 1.396.244c5.443.822 9.888 4.549 12.826 9.036a24.58 24.58 0 0 1 3.356 19.325c-2.902 11.832-15.989 28.315-28.629 16.532l-1.988 1.925a30.998 30.998 0 0 1 12.631-49.037"/><path fill="#616165" d="m521.838 130.909.408 1.975c-13.795 5.3-16.099 11.038-19.714 25.039l1.159 4.643c1.463 6.334 3.71 10.285 7.504 15.455l-1.988 1.925a30.998 30.998 0 0 1 12.631-49.037"/><path fill="#fdfdfc" d="M1168.88 131.727c12.5-5.59 27.18-2.296 36.1 8.098 8.91 10.393 9.92 25.41 2.49 36.91s-21.54 16.743-34.67 12.888a30.935 30.935 0 0 1-22.15-27.582 30.92 30.92 0 0 1 18.23-30.314"/><path fill="#687277" d="M1168.88 131.727c12.5-5.59 27.18-2.296 36.1 8.098 8.91 10.393 9.92 25.41 2.49 36.91s-21.54 16.743-34.67 12.888c-.21-2.05-.69-4.115-1.64-5.944a1.8 1.8 0 0 0-1.1-.817l-1.78-.451c31.13-10.768 22.24-49.047 1.81-49.306z"/><path fill="#727276" d="M1172.8 189.623a30.935 30.935 0 0 1-22.15-27.582 30.92 30.92 0 0 1 18.23-30.314l1.21 1.378c-22.44 8.686-24.91 41.337-1.81 49.306l1.78.451c.46.115.85.409 1.1.817.95 1.829 1.43 3.894 1.64 5.944"/><path fill="#687277" d="M278.666 133.393a30.795 30.795 0 0 1 44.13 37.837 30.793 30.793 0 0 1-58.093-2.061c-4.262-13.722 1.532-28.569 13.963-35.776"/><path fill="#fdfdfc" d="M279.202 134.99c3.44-.954 8.359-2.718 11.599-.683 11.717 7.36 14.704 25.814 6.374 36.685-11.547 15.069-22.827 15.541-30.746-2.374l-1.726.551c-4.262-13.722 1.532-28.569 13.963-35.776z"/><path fill="#616165" d="M264.703 169.169c-4.262-13.722 1.532-28.569 13.963-35.776l.536 1.597c-13.104 8.116-17.021 18.671-12.773 33.628z"/><path fill="#687277" d="M1500.67 131.215c14.13-5.715 30.3-.187 37.97 12.976s4.51 29.96-7.43 39.429c-11.93 9.469-29.01 8.732-40.08-1.73a30.63 30.63 0 0 1-9.07-27.946 30.63 30.63 0 0 1 18.61-22.729"/><path fill="#fdfdfc" d="M1491.13 181.89a30.63 30.63 0 0 1-9.07-27.946 30.63 30.63 0 0 1 18.61-22.729l1.55 1.806c13.17 1.954 18.42 14.522 16.5 26.971-2.34 15.261-10.17 21.007-25.16 19.967z"/><path fill="#616165" d="M1491.13 181.89a30.63 30.63 0 0 1-9.07-27.946 30.63 30.63 0 0 1 18.61-22.729l1.55 1.806c-21.92 7.331-25.88 33.471-8.66 46.938z"/><path fill="#727276" d="M1182.87 230.491c22.52-19.915 58.38-49.881 90.99-37.213.99.478 2.87 1.193 3.37 2.26-.28 1.06-8.98.783-10.4.817-31.38 4.238-59.56 20.367-80.25 44.98-4.32 5.128-4.58 7.052-4.85 13.383l-.09 1.897c-.02.394-.03.788-.04 1.182l-1.98.072-1.71 4.95-.4-1.153c1.33-5.691.78-11.615.51-17.437-23.62-34.049-55.46-47.467-95.49-48.803 37.12-13.517 74.37 8.876 95.6 38.979.18-4.843 1.3-17.945-.39-21.596l-1.93-.368c-13.63-2.477-15.28-17.638.19-17.059 7.43.278 15.52-2.231 21.05 3.055 3.62 9.893-4.58 11.553-10.39 17.081-4.85 4.622-3.87 8.73-3.79 14.973"/><path fill="#8c8a8b" d="M1273.86 193.278c.99.478 2.87 1.193 3.37 2.26-.28 1.06-8.98.783-10.4.817 2.41-1.232 4.63-1.937 7.03-3.077"/><path fill="#fdfdfc" d="M1172.83 197.04c.57.004 1.15.002 1.73-.006 12.03-.066 10.23 6.45 2.67 12.984-11.12-.888-13.8-9.811-6.03-12.399z"/><path fill="#727276" d="M1413.07 194.907c40.58-11.807 69.14 9.407 95.3 39.102l.28-19.642c-5.9-2.466-15.55-6.313-13.89-13.943 6.6-7.342 32.39-9.527 34.04 2.518-2.03 6.317-8.35 9.723-13.54 14.154-1.85 3.533-1.32 7.995-1.31 12.116 25.44-21.804 54.27-45.295 89.86-36.148-1.5.952-2.98 1.929-4.45 2.929-38.74 4.911-58.95 21.121-86.05 48.482l-.56 12.475-2.75-.113-1.25-14.001c-17.4-22.248-43.61-39.925-71.47-45.927-7.27-1.566-16.67-1.678-24.21-2.002"/><path fill="#fdfdfc" d="M1503.94 197.145c11.74.713 11.74 4.382 4.26 14.61l-2.55-.921c-7.16-2.654-12.37-10.311-3.4-13.128z"/><path fill="#727276" d="m660.213 1814.02-345.396-.02-111.661-.01c-19.584 0-44.802.66-63.912-.49l.325-.45c10.917-1.96 54.749-1.04 68.063-1.04l145.218.01 203.328-.03 62.914-.05c11.854 0 29.233-.43 40.606.76zm765.607-1.77c104.29-1.26 210.45-.27 314.85-.24l112.13.03c15.41.01 42.31-.83 56.67.25l.76 1.07c-3.59 1.11-34.83.68-40.33.68l-99.83-.02-228.18.01c-35.77 0-80.22 1.26-115.41-.11zM762.52 194.155c36.56-11.787 67.233 14.02 90.499 39.192 1.829 2.411.771 5.749.273 8.554-23.225-23.231-42.604-41.075-77.194-46.023-.691.022-20.293.946-14.729-1.547-.095.042 2.034-.312 1.151-.176"/><path fill="#a0a0a4" d="M776.098 195.878c-.691.022-20.293.946-14.729-1.547-.095.042 2.034-.312 1.151-.176 4.837.837 8.735.568 13.578 1.723"/><path fill="#727276" d="M438.619 194.284c20.563-7.814 38.73-.462 57.138 9.75 13.99 7.761 21.979 19.27 33.579 29.4 1.641 1.96.132 5.477-.361 7.916-5.424-4.048-10.613-11.075-16.087-15.812-19.43-16.812-38.141-26.601-63.496-29.74.013-.001-15.289.654-14.126.889l-.118-.184c.238-.372.912-.732 1.209-.91.427-.255.868-.486 1.299-.735.323-.187.642-.383.963-.574"/><path fill="#a0a0a4" d="M449.392 195.798c.013-.001-15.289.654-14.126.889l-.118-.184c.238-.372.912-.732 1.209-.91.427-.255.868-.486 1.299-.735.323-.187.642-.383.963-.574 4.459.632 6.232.403 10.773 1.514"/><path fill="#8c8a8b" d="M1078.11 992.82c-3.28 13.58-2.24 35.76-2.19 50.47.07 23.79.29 47.58.65 71.37.1 8.43.85 26.06-.48 33.33l-.85-.7c.11-9.51-.78-21.44-.89-31.56l-.5-88.39c-.02-13.7-.6-37.733.95-50.859.26 6.108-1.25 12.335 3.31 16.339m331.99-579.254c-1.17 2.018-.74 1.205-1.4 2.544l.36.469c-12.58-.947-28.78-.523-41.62-.517q-39.75.204-79.5-.128l-2.9-2.634 3.61.664 79.84.261c9.41.023 33.29.553 41.61-.659m-332.15.03c-1.1 2.342-.23 1.691-2.24 2.506l-117.586-.12.699-2.369c12.522 1.334 45.767.357 59.497.476 13.07.114 47.87.896 59.63-.493m-442.767.017c8.09 1.348 24.252.292 33.127.494 26.981.616 57.022-1.255 83.69-.053l-1.154 1.853c-33.347 1.51-81.918.056-115.797.048zm-443.205-.205c-.494 1.666-.671 1.223-2.122 2.157l.839 1.171c-14.278-.372-39.428-.791-54.561-1.123-.366-.008-.895-1.119-.458-1.181 16.914-2.366 39.815 2.114 56.302-1.024m1661.392.47c6.28.154 57.3-.468 58.61 1.372-.77 1.399-52.12.938-57.8.767z"/><path fill="#4d4a4c" d="m1114.89 722.354 7.59 1.78c5.35 1.292 11.4 3.069 16.68 4.131-1.89 7.419 5.09 4.873 5.51 10.31-7.37-3.707-22.56-12.125-29.78-16.221m136.23 618.106c-.59 13.47-2.07 26.17-3.03 39.56l-3.51 1.73c1.31-8.17 4.82-27.78 4.26-35.52.9-2.1 1.53-3.59 2.28-5.77"/><path fill="#8c8a8b" d="M427.793 413.684c-.292 1.663-.522 1.689-2.01 2.509-8.66-.228-18.072.138-26.484-.261l-3.838-1.984c6.53.172 26.421.465 32.332-.264m1176.017-220.62c1.06.43 4.2 1.413 4.67 2.499-.18 1.005-8.08.445-9.12.43 1.47-1 2.95-1.977 4.45-2.929"/><path fill="#a0a0a4" d="M1248.84 1346.23c.1-1.38.69-12.07 2.55-11.74l.32.48-.1-.38c.47 2.79.15 2.94-.49 5.87-.75 2.18-1.38 3.67-2.28 5.77"/><path fill="#8c8a8b" d="M1135.58 1248.27c1.26-.11 7.95-.96 8.71-.49.44 1.21-4.83 2.59-5.41 2.78-1.61-1.35-1.57-1.45-3.3-2.29M386.988 193.466c.945.452 3.072 1.125 3.595 2.192-.14.807-5.012.462-5.758.472zM1079.17 1559.87c1.62.13 6.75.5 7.95 1.63-.66.63-2.72.5-3.49.52l-2.53.08z"/><metadata><recraft-signature>{&quot;signed_by&quot;: &quot;recraft&quot;, &quot;signature_b64&quot;: &quot;HxpawvfjB1i6ppJ2VjXtXPzTbtULlWiHudUSWv12+VNwxJ2ohPiQp/jRQP6lUeoiD4x5wQ8I5IZnE2WjB0M7Bw==&quot;, &quot;signing_algo&quot;: &quot;Ed25519&quot;, &quot;generation_timestamp&quot;: 1777252113, &quot;identifier&quot;: &quot;3f1ce426-239d-471a-8e37-d9c187cd348c&quot;}</recraft-signature></metadata></svg>