<svg xmlns="http://www.w3.org/2000/svg" width="1024" height="1024" preserveAspectRatio="none" style="display:block" viewBox="0 0 2048 2048"><path fill="#5c6973" d="M717.227 1759.75c.806-1.52.649-1.68.638-3.54 1.808 6.38 4.738 11.8 7.116 18.06l1.096.5c1.688.51 1.03.09 1.994 1.01-2.35 8.94.028 25.66-3.183 37.02l-.466 1.71-1.504-.44-.439 1.72c-2.535 11.76-7.692 22.29-12.026 33.43a114 114 0 0 1-.605 3.99c-2.433 9.93-4.333 11.54-7.394-.31l.629-.63.071-1.5c-3.673-8.28-7.495-15.97-9.858-24.79-.977-3.73-1.896-7.47-2.755-11.24-1.212-14.01-4.824-33.36 2.171-46.32 1.504-2.78 1.65-2.87 2.283-5.97 2.059-5.13 5.811-2.29 11.09-.42.908.25 1.33.47 2.149.48 3.289-1.72 5.506-4.07 8.993-2.76"/><path fill="#5c6973" d="M717.227 1759.75c.806-1.52.649-1.68.638-3.54 1.808 6.38 4.738 11.8 7.116 18.06l1.096.5c1.688.51 1.03.09 1.994 1.01-2.35 8.94.028 25.66-3.183 37.02l-.466 1.71-1.504-.44-.439 1.72c-2.535 11.76-7.692 22.29-12.026 33.43-4.554-7-.22-72.74-2.219-86.71 3.289-1.72 5.506-4.07 8.993-2.76"/><path fill="#232427" d="M717.227 1759.75c.806-1.52.649-1.68.638-3.54 1.808 6.38 4.738 11.8 7.116 18.06l1.096.5c1.688.51 1.03.09 1.994 1.01-2.35 8.94.028 25.66-3.183 37.02l-.466 1.71-1.504-.44c.774-8.79 1.6-17.62 2.169-26.44.936-14.49-4.68-14.95-7.86-27.88m-11.142 2.28c.908.25 1.33.47 2.149.48 1.999 13.97-2.335 79.71 2.219 86.71a114 114 0 0 1-.605 3.99c-2.433 9.93-4.333 11.54-7.394-.31l.629-.63.071-1.5c1.43-1.47 1.652-1.67 2.868-3.25z"/><path fill="#5a656e" d="M706.022 1847.52c-.17 3.87 1.141 9.54-2.939 4.75l.071-1.5c1.43-1.47 1.652-1.67 2.868-3.25"/><path fill="#5a656e" d="m215.653 1814.22 2.003.3c4.497 15.21 7.964 22.87 12.73 36.79l-.017 1.7c.477 1.73 1.239 7.36 2.417 7.66 5.271 1.36 1.614-5.76 8.947-7.82 22.685 1.4 55.937.33 79.241.29l145.441-.08 5.051 8.9 5.522-8.63 225.466-.43c3.061 11.85 4.961 10.24 7.394.31 143.965-1.76 290.242-.38 434.352-.42l137.81.08c11.82.02 51.74-.77 61.44.54 1.2 4.33.6 4.94 3.34 7.51 3.24-2.12 3.04-3.5 5.06-7.64l191.72-.11c4.54-.4 32.04-.2 32.95-.6-.08-.45-.15-.89-.22-1.34 1.02-1.84 1.3-2.24 1.89-4.29l.98-3.47c.32 5.93 2.05 9.17-1.48 13.6.94 2.07.67 1.52 2.12 3.32 2.66-1.33 2.57-3.39 4.01-7.13l163.18.02c18.64-.06 44.43-.47 63.45.22 3.3.12 1.69 4.87 5.02 7.59 3.37-2.43 1.73-6.79 4.65-7.07 31.17-2.91 63.67 1.32 94.94-1.86 1.64-.17 4.67-2.73 5.9-3.78 1.16-1.01.96-.97 2.36-1.35 3.96 1.78 9.89 5.46 14.16 7.7 3.76 2.05 22.35 12.69 24.58 14.82l-1.01 1.77c3.94 2.29 5.04 2.34 6.23 7.67 9.68 43.27 15.33 126.3 8 169.01H79.192c-13.547-33.83-10.983-84.2-7.797-120.47-.284-7.88-.683-4.01-2.298-10.72l6.658-31.83c2.287-10.54-.124-11.49 8.935-15.71 13.697-7.49 36.489-18.43 50.601-24.99 10.143-6.07 20.082-9.74 30.468-15.01 5.95-3.7 19.295-11.88 25.717-14.07 3.012-1.02 18.219.25 24.177-.98"/><path fill="#fcfcfb" d="m215.653 1814.22 2.003.3c4.497 15.21 7.964 22.87 12.73 36.79l-.017 1.7c.477 1.73 1.239 7.36 2.417 7.66 5.271 1.36 1.614-5.76 8.947-7.82 22.685 1.4 55.937.33 79.241.29l145.441-.08 5.051 8.9 5.522-8.63 225.466-.43c3.061 11.85 4.961 10.24 7.394.31 143.965-1.76 290.242-.38 434.352-.42l137.81.08c11.82.02 51.74-.77 61.44.54 1.2 4.33.6 4.94 3.34 7.51 3.24-2.12 3.04-3.5 5.06-7.64l191.72-.11c4.54-.4 32.04-.2 32.95-.6-.08-.45-.15-.89-.22-1.34 1.02-1.84 1.3-2.24 1.89-4.29l.98-3.47c.32 5.93 2.05 9.17-1.48 13.6.94 2.07.67 1.52 2.12 3.32 2.66-1.33 2.57-3.39 4.01-7.13l163.18.02c18.64-.06 44.43-.47 63.45.22 3.3.12 1.69 4.87 5.02 7.59 3.37-2.43 1.73-6.79 4.65-7.07 31.17-2.91 63.67 1.32 94.94-1.86 1.64-.17 4.67-2.73 5.9-3.78 1.16-1.01.96-.97 2.36-1.35 3.96 1.78 9.89 5.46 14.16 7.7 3.76 2.05 22.35 12.69 24.58 14.82l-1.01 1.77c-11.29 2.01-28.65.07-40.46 1.64-43.75-1.24-94.06-.09-138.25.17-4.4-.65-19.47-.35-24.7-.32l-46.89.22c-47.92.12-98.16-.87-145.77.12-19.36-.83-44.53-.17-64.14-.02-27.53-1.12-67.41-.65-95.16.02-10.73-.49-40.36-.74-51.23-.1-12.65-1.17-34.63-.81-47.96-.83l-88.22.32c-30.32.23-60.64.28-90.96.17-19.6-.05-42.27-.56-61.68.35-8.3-.53-43.43-.6-51.18-.05-14.497-1.43-45.616-.55-61.246-.53l-115.284.17-207.303-.09c-30.105.1-62.121-.31-92.026.57-11.617-.59-27.197-.15-39.05-.16l-81.903.09c-5.529-.6-17.673-.27-23.408.01-50.159-1.07-108.456-.63-158.735.04-17.259-1.07-39.612-.61-57.067-.7l-91.988-.34-.724-1.04-1.026-1.76c13.697-7.49 36.489-18.43 50.601-24.99 10.143-6.07 20.082-9.74 30.468-15.01 5.95-3.7 19.295-11.88 25.717-14.07 3.012-1.02 18.219.25 24.177-.98"/><path fill="#030303" d="m215.653 1814.22 2.003.3c4.497 15.21 7.964 22.87 12.73 36.79l-.017 1.7c-26.316.75-54.859-.52-81.377-.2-5.876.07-8.548-2.61-12.156-6.65-.515-.63-1.03-1.25-1.545-1.88 10.143-6.07 20.082-9.74 30.468-15.01 5.95-3.7 19.295-11.88 25.717-14.07 3.012-1.02 18.219.25 24.177-.98"/><path fill="#3f484f" d="M84.69 1869.27c13.697-7.49 36.489-18.43 50.601-24.99.515.63 1.03 1.25 1.545 1.88-17.055 6.7-34.492 17.45-51.12 24.87z"/><path fill="#7e848d" d="M1937.48 1854.73c3.76 2.05 22.35 12.69 24.58 14.82l-1.01 1.77c-7.1-5.51-17.27-10.11-24.96-15.23z"/><path fill="#3f484f" d="M1576.3 1851.23c1.02-1.84 1.3-2.24 1.89-4.29l.98-3.47c.32 5.93 2.05 9.17-1.48 13.6-2.05-5.34-5.05-3.24-11.01-3.49-7.69-.32-15.36.31-23.11-.41 4.54-.4 32.04-.2 32.95-.6-.08-.45-.15-.89-.22-1.34"/><path fill="#232427" d="M1923.32 1847.03c3.96 1.78 9.89 5.46 14.16 7.7l-1.39 1.36c-5.57-3.23-9.42-4.98-15.13-7.71 1.16-1.01.96-.97 2.36-1.35"/><path fill="#030303" d="m1031.87 1887.13 2.5-3.17c14.68 61.83 7.89 115.68 56.99 164.04h-92.386c4.106-13.15 9.546-38.12 12.736-52.12 7.6-33.43 17.43-74.7 20.16-108.75m329.16-10.61c2.95 13.33 4 30.2 5.11 43.99 3.21 40.02 7.03 91.27 25.4 127.49h-53.94c9.72-56.88 17.53-114.08 23.43-171.48m-653.677 15.92c2.334.12 2.069 6.25 2.561 8.79 1.787 48.05 7.847 102.9 27.845 146.77h-65.225c19.281-39.2 32.474-111.96 34.819-155.56m959.727 17.03c1.75 11.35.35 19.32 1.77 29.89.48 31.26 1.62 78.99 11.68 108.64h-51.38c20.48-39.27 31.68-95.09 37.93-138.53m-1324.424-1.24c8.156 51.52 22.583 98.76 56.561 139.77h-46.994c-6.614-42.38-9.896-96.63-12.213-138.83zm-238.267 15.6c.702-1.28 1.43-2.54 2.182-3.79 9.347 52.61 26.434 86.38 59.702 127.96h-48.822c-5.835-34-10.655-88.83-13.062-124.17m1840.881-24.54c2.49.31 2.02 2.7 2.72 5.31-.59 49.5-.96 93.95-4.41 143.4h-34.2c24.44-45.82 31.46-97.46 35.89-148.71m-230.74 38.78c.37-2.3-.2-5.23 2.09-5.67 6.96 40.01 23.91 85.01 51.58 115.6h-39.62c-7.17-39.76-11.15-69.96-14.05-109.93m-1401.143-30.58 2.028.02c-4.115 48.63-9.74 92.46-14.837 140.49h-24.896c16.932-39.75 33.487-97.45 37.705-140.51"/><path fill="#232427" d="M1782.34 1873.13c44.19-.26 94.5-1.41 138.25-.17-.68.97-.16.35-1.98 1.41-18.3.67-124.63 2.68-136.27-1.24m-1546.845-.02c50.279-.67 108.576-1.11 158.735-.04-.524.16-4.141 1.14-5.125 1.16-50.687 1.14-101.394.13-152.104.07-.502-.4-1.004-.8-1.506-1.19m182.143-.05 81.903-.09c11.853.01 27.433-.43 39.05.16-2.607 3.3-105.573 1.29-116.583 1.19-1.184-.01-3.186-.81-4.37-1.26m1083.202.07c19.61-.15 44.78-.81 64.14.02 14.34 1.47 39.18 1.08 54.22 1.25-7.04 2.14-114.19.89-118.36-1.27"/><path fill="#0d0e0f" d="m84.69 1869.27 1.026 1.76.724 1.04c-7.146 6.29-4.914-3.47-8.912 14.74-3.064 13.95-4.28 26.68-6.133 40.72-.284-7.88-.683-4.01-2.298-10.72l6.658-31.83c2.287-10.54-.124-11.49 8.935-15.71"/><path fill="#232427" d="M1014.45 1873.01c7.75-.55 42.88-.48 51.18.05-2.26 2.89-49.53 2.29-51.18-.05m340 .04c10.87-.64 40.5-.39 51.23.1-2.92 2.12-38.75 1.31-44.15 1.75-1.46.12-5.8-.09-7.08-1.85m-1250.061 50.78c-.692-2.62-1.214-20.02-.891-22.45l.597-.66-.121-.57-.234.27.137-.36c.128-.06.256-.13.384-.2l.166.08c.289.56 2.051 18.59 2.144 20.1a109 109 0 0 0-2.182 3.79m1562.691-14.36c-.14-1.32-.75-7.68 1.18-8.09 1.31.74.77 34.53.59 37.98-1.42-10.57-.02-18.54-1.77-29.89m-1327.07-.3c-.206-3.56-1.524-18.67.146-20.82l-.411-.01.13-.33c.125-.07.249-.14.374-.2l.177.1c.048.1 2.078 18.81 2.23 20.32zm1374.52 28.9c-1.14-7.04-.62-14.09.27-21.11.67 5.2 1.27 10.22 1.82 15.44-2.29.44-1.72 3.37-2.09 5.67m230.74-38.78c.04-2.09.46-9.64 1.54-11.01l-.09-.36c2.06-.02 1.29 14.5 1.27 16.68-.7-2.61-.23-5-2.72-5.31"/><path fill="#3f484f" d="m707.353 1892.44.324-3.58c.051-.96-.003-2.36.683-3.13 2.414-.59 1.645 13.61 1.554 15.5-.492-2.54-.227-8.67-2.561-8.79"/><path fill="#232427" d="M313.387 1907.49c.272-1.56.322-6.51 2.099-7.12.097.08.194.16.292.23.595 2.32.183 4.61-.363 6.91zm718.483-20.36c.15-4.09.18-11.91 2.5-3.17z"/><path fill="#0d0e0f" d="M1222.11 647.022c5.25-3.267 12.14-8.242 18.24-8.118l1.08 1.153c-5.61 27.159-4.45 40.785 19.48 58.975 1.95-3.646 4.65-10.138 8.9-11.129 12.5-2.917 18.01 18.771 19.44 27.878 3.1 19.703-.67 38.398-6.68 57.137 5.27-7.325 15.8-29.768 18.9-33.002 12.26 1.789 8.31 25.085 6.97 33.541-2.83 17.968-11.36 33.535-22.14 47.927 5.36-3.034 10.98-6.724 16.85-8.17l2.27.738c1.66 3.571-.37 10.695-1.92 14.17-12.02 26.998-33.13 41.998-60.24 50.82 19.12 4.949 33.1 10.674 44.29 28.712 5.58 8.998 7.5 23.005 4.47 33.263a28.3 28.3 0 0 1-14.35 17.217c-3.24 1.637-7.59 2.638-11.15 3.518-1.22-10.25-1.97-17.742-10.89-24.871-11.46-9.158-29.75-10.432-43.8-8.549 8.74 6.818 11.29 11.223 13 22.314 2.63 17.108-19.81 38.036-34.82 24.235-3.77-3.472-5.08-8.947-10.72-9.204-.03 6.145 4.18 9.479.53 15.406-3.27 5.325-6.03 6.871-11.74 9.122l.06 1.769c5.2.404 34.77 2.156 34.22 13.546-.03.55-2.08 5.16-2.46 6.01 2.3 4.93 5.37 9.77 3.71 14.88-4.1 2.66-15.05.98-20.29.37l-1.05 3.59c11.38 4.78 40.48 12.9 35.78 28.31-1.61 1.59-.8 1.21-2.12 1.66-1.47 1.5-2.38 2.28-3.54 4 5.83 2.85 21.5 9.98 22.57 16.86l-1.49 1.81c-8.41 2.46-30.12-5.03-38.22-9.2-48.52-24.95-75.28-64.22-93.01-113.83-3.7-.08-7.41-.137-11.11-.173-4.98-.016-8.49-.409-12.03 3.106-3.84 10.554-7.88 2.848-13.46 18.362-.83-.068-.32-.047-1.53.015-23.61 1.144-48.35-.704-72.086.31-2.542.109-1.905-.077-3.202 2.337-1.51.67-1.72 1.042-3.183.152-.681-5.143-.637-8.437-3.564-12.771l-2.875-.575-.929-1.441-1.798-2.775c-5.183-8.147-17.161-6.96-25.717-6.975-8.37 17.128-17.279 36.151-27.792 52.148-21.192 32.25-54.537 58.69-90.922 71.7-7.024 2.51-14.823 4.94-22.173 3.37l-1.606-1.64c.602-6.75 21.223-17.32 27.558-20.53-1.604-.87-2.683-1.38-4.331-2.12-14.77-13.91 15.786-25.18 25.017-29.94l.312-3.58c-6.811.34-17.786 1.58-19-7.24 1.106-3.6 2.003-4.05 4.741-6.57 1.234-.67.462-4.92.975-7.64 11.842-11.252 23.456-11.798 39.231-15.889-18.801-6.821-19.499-12.471-14.487-30.274-14.036 11.991-37.073 28.289-50.073.854-4.908-10.359.448-24.132 5.278-34.102-48.002-13.517-46.43 26.378-59.371 21.479-8.839-10.966-8.183-37.543-.046-49.084 10.604-15.041 24.763-16.523 41.04-20.091a78.8 78.8 0 0 1-15.331-5.363c-18.188-8.741-37.225-24.79-44.369-44.469-1.444-3.979-2.266-10.448-.313-14.427l2.292-.536c5.677 1.842 13.56 8.066 18.777 11.722-10.497-14.903-35.345-61.297-23.687-82.766.534-.984 1.845-.799 2.988-.91 10.017 5.623 15.551 18.96 24.725 27.208-7.422-27.403-9.593-61.174 15.233-82.077 2.539-2.137 4.17-2.93 7.378-2.433 1.328 3.896.821 11.262.769 15.679 12.896-27.756 23.209-27.476 23.207-62.367 8.313 1.855 9.784 2.922 16.768 7.408 11.861-3.981 13.65-1.473 21.817 6.417a186 186 0 0 1 16.34-.739c35.386.144 57.84 29.882 57.017 63.449-.558 22.759-17.55 45.094-41.848 43.862-8.15-.537-20.449-5.248-25.49-12.086-13.427-18.212-2.469-36.031 11.722-47.477-13.35.07-24.643 1.679-34.246 11.895-23.542 25.045-17.379 61.988-7.288 90.796 16.921 48.308 56.198 74.041 91.918 107.278 11.497 10.698 20.594 24.627 32.29 35.877 23.629-4.557 31.374-9.615 38.261-33.634.001.527.062 3.026-.051 3.443l1.144-.893c1.988-1.595 2.06-.908 4.856-.806 16.284.594 32.624.175 48.894.603.69.018 2.65 1.95 3.03 2.283l1.24.666c9.99 22.186 24.11 28.501 48.24 26.36 12.05-36.4 31.48-41.915 62.17-63.508 44.14-31.056 84.34-112.466 61.72-165.545-10.85-25.471-35.88-24.668-59.24-16.372 9.58 1.627 17.45 3.623 23.52 12.372 4 5.75 5.39 12.917 3.84 19.745-4.31 19.758-25.66 31.49-44.8 25.826-25.44-7.524-38.29-32.12-29.69-57.157 12.33-35.891 45.91-49.813 81.08-45.2 8.07-9.14 10.43-7.781 22.12-7.405"/><path fill="#5c6973" d="M819.171 648.191c.823-2.022.46-3.664 2.528-4.195l1.311-.361 1.424.521c.848.335 1.029.439 1.8.922 3.668 3.088 4.067 3.949 6.275 8.26 3.315-2.951 2.553-3.674 6.726-6.263 1.968.259 3.52.223 5.512.251 4.588 3.233 7.635 6.379 11.551 10.325 5.776-3.004 13.744-2.686 20.107-2.394 1.375-.15 1.345-.214 2.606.265 44.686 5.174 64.567 71.092 31.134 94.972a37.18 37.18 0 0 1-28.918 6.073c-16.273-3.458-26.612-16.956-22.136-33.614a30.38 30.38 0 0 1 15.147-19.002c13.288-6.925 24.822-.962 31.906 11.431 6.125 10.717-10.325 21.594-10.549 24.99 9.21-.269 14.448-13.27 13.658-21.174-.927-9.274-7.6-15.515-15.206-20.104-16.099-1.26-37.514-3.049-50.979 6.823-14.992 10.991-21.084 28.447-22.258 46.376q-.328 5.461-.484 10.93c-.283 2.131-.486 2.546.34 4.411 3.209 26.656 11.511 46.509 25.188 69.168.355.888.217.637.761 1.523 1.653 1.674 1.917 1.717 2.791 3.701l4.277 5.872c.386.775.301.639.947 1.237 5.551 6.061 11.143 12.345 17.048 18.034 1.962 1.613 7.129 5.908 8.45 8.001l5.528 5.049c1.816 1.301 3.292 2.093 4.479 3.946l6.002 5.352c1.508.839 1.363.736 2.451 2.011l1.114.846c1.872 1.397 4.143 2.813 5.461 4.724l2.469 2.153c1.806 1.281 3.315 2.088 4.502 3.919l4.96 4.387c3.558 2.296 9.029 8.369 11.714 11.772l3.041 3.503c1.184.889 1.124.994 1.934 2.307l1.792 2.58c.43.847.331.7 1.039 1.35 4.269 4.906 8.628 10.045 12.998 14.835.784.48 1.669 1.549 2.276 2.198-4.436 20.069-30.086 67.268-44.424 81.918-.697 1.44-.487 1.32-1.7 2.08-22.991 27.25-61.428 50.35-96.924 55.93 16.183-16.67 33.123-17.52 46.838-34.76-7.241 2.17-17.665 11.03-24.157 7.68-5.995-19.75 40.141-23.86 41.477-36.81-7.228-.38-23.971 9.57-32.542 1.59.098-3.25-.292-1.62 2.194-4.75-.006-1.22.028-2.72-.09-3.93 1.234-.67.462-4.92.975-7.64.752.5 1.364.75 2.188 1.15l4.89-4.3c.972-.56.502-.33 1.397-.71 11.906-6.74 36.382-7.869 43.784-17.338l-.253-1.775c-3.224.023-8.237 3.344-11.328 5.056-21.351-6.434-17.254-14.105-11.903-31.81l-2.37.976c-9.007 3.406-14.889 12.46-24.421 15.008-13.665 3.628-23.259-3.897-25.444-17.494-1.926-11.983 2.106-20.574 8.679-30.03-30.133-4.986-44.301-5.956-61.462 22.781-5.92-9.086-8.486-18.235-7.363-29.163a37.77 37.77 0 0 1 14.98-26.723c10.48-7.856 28.166-11.485 41.2-9.597 3.367.488 2.002.894 4.819-.2-1.046-4.248-23.375-6.428-29.993-9.987-20.308-10.923-40.992-28.537-44.795-52.495-.239-1.504.296-1.481 1.34-2.456l2.722.637c.861 1.033 1.237 1.113 2.551 1.945 1.558 1.47 1.51 1.532 3.385 2.356 7.637 5.142 9.027 6.466 17.546 10.146-9.696-15.213-42.64-69.01-29.394-86.718l2.196-.247c1.391.922 1.853 1.128 2.939 2.275 1.794 2.316 3.749 4.685 5.279 7.166.435.868.315.669.923 1.568 2.15 2.097 2.179 2.162 3.803 4.721l.966 1.194c.71.726.761.662 1.142 1.411 4.85 5.119 7.02 6.374 12.865 10.265-3.052-10.471-5.718-18.487-6.7-29.37.347-2.178.22-15.098-.056-17.598 1.805-10.341 4.887-19.25 10.742-27.951.595-.622.513-.486.852-1.27 4.116-5.651 5.616-6.656 11.004-10.753.258 4.469.402 12.575 2.313 16.303l1.764.039c3.489-3.252 6.278-9.023 8.71-13.331 8.312-14.725 15.303-25.588 16.139-42.9"/><path fill="#030303" d="M843.535 1007.41c.752.5 1.364.75 2.188 1.15l1.197 1.09c7.035 6.2 2.196 8.23-4.27 9.33-.006-1.22.028-2.72-.09-3.93 1.234-.67.462-4.92.975-7.64"/><path fill="#3f484f" d="M917.094 907.557c3.558 2.296 9.029 8.369 11.714 11.772-2.266-1.786-10.76-9.605-11.714-11.772m-45.416-40.388c1.962 1.613 7.129 5.908 8.45 8.001-2.974-1.155-6.546-5.534-8.45-8.001m28.024 25.205c1.872 1.397 4.143 2.813 5.461 4.724-2.813-.982-3.431-2.31-5.461-4.724m-14.046-12.155c1.816 1.301 3.292 2.093 4.479 3.946-2.56-1.014-2.651-1.635-4.479-3.946m21.976 19.032c1.806 1.281 3.315 2.088 4.502 3.919-2.515-1.005-2.811-1.857-4.502-3.919"/><path fill="#5a656e" d="M876.405 655.257c1.375-.15 1.345-.214 2.606.265-1.216.207-1.657.417-2.606-.265"/><path fill="#3f484f" d="M905.764 1030.1c.676-1.52.446-1.45 1.7-2.08-.697 1.44-.487 1.32-1.7 2.08"/><path fill="#030303" d="M784.371 713.756c2.256 3.282-.007 17.693.093 22.898.639 33.037 11.779 71.942 40.083 91.83 2.748 1.931 8.138 6.051 10.043 8.518-12.513.406-28.832-20.167-36.71-28.787-4.049 4.666-1.285 10.614 1.81 16.951 8.917 18.257 23.984 31.102 43.483 37.064 3.552 1.086 10.727 4.011 13.195 6.092-11.55 3.51-32.339-8.508-41.697-15.221 6.001 16.24 13.768 21.778 27.726 31.044 21.854 13.045 62.476 30.469 76.069 51.456-11.119-9.024-22.096-17.597-34.499-24.84-21.598-12.614-46.116-20.975-63.597-39.601-2.24-2.431-12.805-14.132-11.888-17.114 2.032-6.607 2.668-4.206-2.6-11.619-9.205-12.953-16.571-26.534-14.795-43.102.736-6.868-3.537-16.893-4.92-23.82-4.67-17.334-7.683-44.338-1.796-61.749m26.491 190.637c26.425-.571 82.261 16.742 98.767 37.504l-.329 1.125c-2.642-1.148-19.199-12.268-23.916-15.079a146 146 0 0 0-10.272-4.745c-25.405-10.77-51.517-19.433-79.587-13.766-5.915 1.194-11.273 4.112-16.851 6.381l-.63-1.234c3.354-7.778 25.28-9.591 32.818-10.186m-55.528-137.598c.711.724 1.125.906 1.2 1.826a85.65 85.65 0 0 0 18.589 46.803c3.504 4.433 9.764 10.97 12.487 14.859l.564.815c-15.384-4.72-39.061-49.188-32.84-64.303m107.292 171.4c9.434-.706 35.024.619 39.694 10.361-.064.39.009.197-.235.575-4.271-.729-11.955-6.078-23.927-8.14-18.349-.196-23.526 1.174-37.724 12.591-.272.22-.93-.669-.892-.63.191-6.346 17.968-13.185 23.084-14.757"/><path fill="#0d0e0f" d="m762.922 834.788 1.316.623c1.388.645 36.234 27.051 36.712 27.7-8.924-1.013-33.686-19.857-38.028-28.323"/><path fill="#030303" d="m1076.88 961.563 2.22 1.25c-3.84 10.554-7.88 2.848-13.46 18.362-.83-.068-.32-.047-1.53.015-23.61 1.144-48.35-.704-72.086.31-2.542.109-1.905-.077-3.202 2.337-1.51.67-1.72 1.042-3.183.152-.681-5.143-.637-8.437-3.564-12.771 1.504-.927 1.525-.906 3.266-1.528 20.739-2.508 46.089.767 67.219-.703 11.73-.816 18.46 3.952 24.32-7.424"/><path fill="#5a656e" d="M985.341 969.69c-1.097-.193-2.307-.287-3.341-.726-.887-.376-1.578-1.063-1.909-1.975-.489-1.347-1.995-4.687-.994-6.147.669-.976 85.613-.888 94.423-.739 2.07.035 2.03.07 3.36 1.46-5.86 11.376-12.59 6.608-24.32 7.424-21.13 1.47-46.48-1.805-67.219.703"/><path fill="#5c6973" d="m993.986 916.053 1.144-.893c1.988-1.595 2.06-.908 4.856-.806 16.284.594 32.624.175 48.894.603.69.018 2.65 1.95 3.03 2.283-.09.312-.19.623-.28.937-.21.756-.3 1.53-.91 2.085-.75.684-1.7.686-2.66.622-5.68-.373-52.912.475-53.577-.446-.757-1.049-.491-3.224-.497-4.385"/><path fill="#ece7e4" d="M1212.39 1064.24c-.54-.3-1.09-.6-1.64-.88-1.08-.57-3.4-1.53-3.85-2.77.65-1.36 7.61-.43 9.03-.35-1.47 1.5-2.38 2.28-3.54 4m-30.12-33.97c-9.26-4.48-9.32-5.87 1.05-3.59zm-325.451-1.41c1.342-.42 5.351-1.73 6.513-1.08.475 1.32-5.968 4.24-6.825 4.66z"/><path fill="#3f484f" d="M767.647 728.054c.276 2.5.403 15.42.056 17.598-1.466-2.413-.773-14.698-.056-17.598"/><path fill="#ece7e4" d="M831.49 1062.38c2.004-.23 3.825-.58 5.808-.96.483-.1 1.665-.32 2.119.06.047.04.07.1.105.15-.419 1.15-2.647 2.22-3.701 2.87-1.604-.87-2.683-1.38-4.331-2.12"/><path fill="#3f484f" d="M819.171 648.191c-.194-4.164-.69-5.879 3.839-4.556l-1.311.361c-2.068.531-1.705 2.173-2.528 4.195m1.155 115.032c1.037 1.813.738 2.126.34 4.411-.826-1.865-.623-2.28-.34-4.411"/><path fill="#a8a6a1" d="M1168.14 991.874c-1.01-.136-2.33-.036-3.04-.902.2-.928 2.4-.81 2.98-.867z"/><path fill="#5c6973" d="M1239.45 639.788c-6.54 19.115-5.99 31.264 6.15 48.153.58.36.55.507.95 1.175l6.08 6.149c2.6 1.848 3.4 2.08 4.98 4.694l3.46 1.776c5.41-2.808 3.96-11.356 11.62-12.016 3.76 1.749 4.28 2.827 7.07 6.084.55.564.49.628.85 1.331 3.28 5.69 4.83 9.62 5.82 16.194.34.717.25.802.29 1.706 1.05 11.548 1.16 20.816-.1 32.377.08.933.11.828-.29 1.699-2.83 15.742-5.5 18.331-11.07 32.566 8.41-7.449 10.71-9.788 16.87-19.505 2.4-3.785 9.15-17.981 11.41-19.361 3.93 4.326 3.62 16.359 3.19 22.368-2.36 33.216-16.09 45.14-35.28 67.322l1.48-.534c10.39-3.823 24-14.571 28.82-15.702l1.25 1.097c.64 10.336-10.2 24.487-16.89 32.236-19.93 23.058-36.64 24.117-62.91 31.068l1.07.155c19.14 2.575 25.43-2.545 45.87 11.654.76.336.76.404 1.44.956l2.44 2.057c1.38.676 1.34.515 2.14 1.654l4.63 4.704c.59.466.67.619 1.15 1.191l1.66 2.695c.58.464.59.626 1 1.33 2.87 4.937 5 9.997 5.88 15.691.69 3.586.95 7.025.03 10.587-2.24 13.3-3.99 18.074-16.68 24.108l-4.07 1.936c-1.43-5.128-2.87-11.501-5.56-16.044-12.53-21.176-40.58-19.66-61.7-17.041 6.28 3.83 11.97 6.549 16.26 12.518.55.553.5.624.87 1.316 2.84 7.664 3.75 16.914-.5 24.142-17.8 30.316-35.67-1.814-48.47-12.928 9.35 21.573 16.29 41.454-18.5 33.942-3.56-3.516-6.33-6.996-10.94-8.567l.11.239-.92 2.193 1.77-1.839-1.2 2.776c20.82 24.38 47.05 8.699 58.58 23.43-1.44 5.58-4.22 2.84-4.51 7.23 1.78 2.29 4.87 6.03 6.34 8.37.95.69.88.82 1.18 1.98l.28 1.06c-8.84 8.81-30.26-3.14-35.5-1.27.74 11.5 44.01 18.27 48.78 32.64-.43 2.74-.22 2.7-2.13 4.64-4.4-.09-4.16.04-8.17-1.51l-2.93.57-.77 1.74c2.56 4.86 15.44 10.17 20.73 13.44.74.38.87.35 1.31.86 2.8 1.95 4.29 2.62 5.92 5.63l-.84 1.34c-14.2 2.68-45.44-14.1-56.29-23.49-.64-.35-.74-.32-1.13-.86l-3.87-3.14c-.63-.41-.71-.37-1.07-.95-10.85-7.53-23.91-20.78-31.51-31.51-.64-.57-.61-.45-.94-1.18-12.62-14.02-32.07-55.652-29.6-75.4 3.77-30.103 40.25-46.065 62.13-62.273 38.31-28.383 58.84-72.173 66.35-118.392 3.29-20.758-.15-42.916-13.04-59.978-1.65-.908-2.53-1.836-3.34-3.511-8.54-5.878-14.28-7.612-24.2-9.038-2.52.47-2.43.392-4.97-.079-9.36 1.723-13.04 2.744-21.92 6.617-10.7 4.659-27.14 22.47-18.19 34.507 3.55 1.525 1.81 1.372 5.34.877-.91-2.932-.4-1.475-2.07-3.545-8.09-10.055 4.2-22.065 11.96-27.323 17.64.362 25.66 5.602 29.5 23.605-3.59 15.211-11.79 27.572-28.24 30.224-3.83.821-6.85.986-10.71.131-3.43-.471-8.59-2.171-11.79-3.724a40 40 0 0 1-20.62-23.422c-4.35-13.182-1.66-26.179 4.29-38.278.3-.63.34-.821.77-1.385.66-1.087 1.42-2.168 2.14-3.214a68.8 68.8 0 0 1 45.12-28.727c4.17-.689 19.63-2.253 23.84.449 2.02 1.295-1.33.84 2.19 3.346 4.28-5.625 6.74-10.726 13.37-12.156 5.01.62 5.15 3.514 9.6 5.035.18-.416 2.12-5.089 1.97-4.976 3.72-2.943 11.31-6.701 15.13-8.692"/><path fill="#3f484f" d="M1290.48 922.752c.69 3.586.95 7.025.03 10.587-.64-3.985-.43-6.6-.03-10.587m-137.04-167.22c3.38-.462 7.32-.359 10.71-.131-3.83.821-6.85.986-10.71.131"/><path fill="#5c6973" d="M1201.39 1019.12c.95.69.88.82 1.18 1.98l.28 1.06c-2.52-.68-3.63-.91-1.46-3.04"/><path fill="#3f484f" d="M1187.77 690.439c2.08-.644 2.96-.922 4.97.079-2.52.47-2.43.392-4.97-.079m29.17 9.117c2.1 1.237 2.3 1.366 3.34 3.511-1.65-.908-2.53-1.836-3.34-3.511m-11.11 357.104c3.74.38 4.62.47 8.17 1.51-4.4-.09-4.16.04-8.17-1.51m46.8-361.395c2.6 1.848 3.4 2.08 4.98 4.694-2.78-1.89-2.86-2.137-4.98-4.694"/><path fill="#030303" d="M1270.88 707.626c14.61 12.35-9.49 75.424-16.48 90.197 7.69 20.715-3.27 31.085-14.05 47.399l2.57 2.42c-.17 27.902-64.01 49.525-83.16 61.995-10.75 7-19.21 16.753-29.65 23.488 18-24.286 37.11-32.212 63.61-44.596 19.62-8.442 35.5-20.497 44.21-40.245-8.15 6.742-23.75 19.661-34.78 18.793l-.24-1.463c18.6-7.944 38.83-22.666 45.81-42.15 3.32-9.291 3.45-12.179 2.24-15.013-1.72.027-2.2-.15-3.89 1.786-9.9 11.292-15.08 19.363-26.99 29.124 3.63-8.12 13.22-18.709 18.43-26.85 22.39-35.008 35.43-63.272 32.37-104.885m-45.2 194.795c16.51.408 40.13 2.414 47.97 19.421-2.76.102-13.35-9.539-17.29-10.859-27.95-9.363-53.65-4.264-79.03 5.95-19.29 8.443-32.91 22.541-45.36 27.432 26.71-25.955 56.4-39.647 93.71-41.944m73.52-138.009c3.33 2.606 1.55 4.563.66 8.573-5 22.548-16.36 38.305-34.24 52.593-2.62-3.058 7.26-10.522 10.04-13.21 15.5-15.01 17.11-29.646 23.54-47.956"/><path fill="#030303" d="M1171.67 938.395c19.52 1.05 28.35 4.435 39.13 20.861-5.45-3.771-10.61-8.539-16-11.858l-1.61-1.015c-10.68-4.7-20.19-5.676-31.7-3.595-1.78.321-10.47 2.752-11.22 1.726-.11-4.226 18.42-5.853 21.4-6.119m109.78-101.679c1.02.849 2.22 2.228.95 3.636-10.97 12.162-22.81 22.682-38.96 27.036-.58-.508-.74-.549-.81-.851.66-1.464 9-4.07 12.36-6.475 9.23-6.598 18.73-15.146 26.46-23.346"/><path fill="#5c6973" d="M993.043 923.535c18.797.777 40.177.383 59.107.429 5.52 8.965 6.97 10.905 15.85 16.607.79.168.66.156 1.34.684 10.13 4.091 18.57 5.618 29.43 6.534 3.84.324 2.94 8.91-.09 9.065-36.93 2.144-74.15.908-111.148 1.102-7.695.032-26.78.278-33.483-1.896l-1.658-1.658c.417-5.332 3.604-6.584 8.419-6.811.939-.282.845-.278 1.796-.141 16.473-3.705 23.62-8.898 30.437-23.915"/><path fill="#030303" d="M1069.89 1527.72c9.15-.72 11.78 4.66 17.06 11.12 7.61.96 15.92 2.31 14.5 12.09-4.59 6.54-9.62 5.82-17.1 5.74-4.11 6.26-5.77 9.23-13.31 10.88-1.42.3-2.84.57-4.27.81.43 16.19 1.16 23.95 5.13 39.47 22.57 72.62 64.76 123.22 126.91 166.1 2.07 1.43 7.58 1.05 10.02.97 12.05-1.17 32.79-.7 45.12-.7l72.68.06c.28 10.78.34 30.36 3.64 40.31l1.39-.37c3.68 14.14 6.78 25.22 12.49 38.79l-.7.42c-9.7-1.31-49.62-.52-61.44-.54l-137.81-.08c-144.11.04-290.387-1.34-434.352.42q.338-1.995.605-3.99c4.334-11.14 9.491-21.67 12.026-33.43l.439-1.72 1.504.44.466-1.71c3.211-11.36.833-28.08 3.183-37.02-.964-.92-.306-.5-1.994-1.01l-1.096-.5c37.745.98 75.644-.12 113.399.05 4.956.02 10.703-.06 15.574.39 11.081-1.4 49.645-41.42 57.318-49.76 27.266-29.63 75.134-115.53 72.241-154.76l-1.523-1.18.382-1.89c-5.78-1.64-5.828-1.32-10.437-4.89l-1.684.23c-5.17-6.47-5.863-5.52-13.773-5.76-12.276-1.41-10.175-17.49 6.135-17.8.547-1.04 2.054-3.12 2.78-4.19 3.419-.79 6.441-4.2 8.748-4.34 8.957-.54 18.078-.51 27.059-.59l63.17-.41c2.67-.39 2.99-.63 5.52-1.65"/><path fill="#5c6973" d="M880.824 1758.49c43.555-37.41 71.871-83.22 93.728-136.22 1.667-4.04 8.38-26.57 9.808-28.02 2.129 2.33 2.356 6.77 2.053 9.77-4.986 49.27-29.91 101.4-60.91 139.85-7.303 9.06-25.189 27.17-29.287 34.58 3.873-3.05 11.67-10.05 15.6-10.87 8.893 1.51 37.675.11 41.723 1.38-1.984 2.77-5.406 6.88-5.013 10.21l1.886-.51c3.678-3.49 4.343-5.59 6.539-10.07.787-.82 1.45-1.5 2.28-2.28 6.971-.43 55.629-.61 61.079.39.17.72.35 1.44.52 2.16.03 4.75-.61 8.96 1.9 12.72l1.72.58c3.56-3.84 2.76-7.85 2.73-13.22.16-.71.32-1.42.49-2.13 8.35-1.4 50.11-.61 61.41-.85l-.36 1.6c3.1 1.04 7.54 8.57 11.74 11.79.29-3.8-3.13-8.11-5.35-11.14 7.64-.25 35.69.56 41.41-.89 4.96 1.53 13.16 9.17 19.11 13.03-5.74-8.84-16.97-18.79-24.35-27.67-29.6-35.6-54.76-84.07-64.06-129.59-2.06-10.08-1.46-22.39-.77-32.19l3.41 16.94 2.04-.01c22.57 72.62 64.76 123.22 126.91 166.1 2.07 1.43 7.58 1.05 10.02.97l-2.92 2.05c1.03 4.32 7.02 6.39 10.94 8.43l-.72 2.27c18.04 10.15 11.61 16.01 25.72 27.65 6.68 5.51 27.77 2.91 32.13 12.69-1.39 8.44-11.72 12.54-19.21 13.64-28.92 4.27-59.54-.77-83.71-17.49-24.07 29.36-70 28.53-95.57 1.12-20.58 31.63-90.526 34.86-102.372-.08-18.197 19.54-41.736 23.9-67.673 17-12.373-3.29-17.409-10.54-22.833-21.35-25.996 16.53-47.82 29.39-79.592 19.98-4.852-1.44-10.908-3.9-13.187-8.78-4.107-8.79 18.17-12.44 23.905-13.86 7.795-8 13.026-19.14 19.805-25.69 8.605-8.31 25.866-17.75 36.186-25.33.722-.86.485-.69 1.458-1.18 2.356-2.03 5.147-4.02 7.66-5.91.738-1.15.62-.98 1.977-1.57"/><path fill="#0d0e0f" d="m1069.86 1607.84 2.04-.01c22.57 72.62 64.76 123.22 126.91 166.1 2.07 1.43 7.58 1.05 10.02.97l-2.92 2.05c1.03 4.32 7.02 6.39 10.94 8.43l-.72 2.27c-7.62-3.11-23.83-15.34-31.01-20.63-1.41-1.83-2.67-2.48-4.6-3.82-2.33-2.19-7.68-6.06-10.41-8.17-1.39-1.77-2.75-2.54-4.59-3.84l-8.44-7.09c-1.33-1.9-2.58-2.59-4.49-4l-14.84-14.74c-1.71-2.23-4.5-5.89-6.85-7.45l-4.47-4.99c-.9-1.77-1.18-2.01-2.73-3.27-2.2-3.28-2.58-3.73-5.37-6.53-1.13-.82-1.03-.98-1.73-2.4l-1.92-2.53c-.49-.75-.5-.88-1.13-1.44l-1.85-2.56c-.48-.77-.48-.83-1.1-1.48-2.15-2.24-2.22-2.36-3.85-5.04-1.45-1.33-1.38-1.37-2.34-3.2-.76-1.08-1.29-1.73-1.86-2.92-.85-1.06-1.39-1.64-2.03-2.77-1.63-3.68-1.6-3.72-4.04-6.76-.52-1.75-.45-1.97-1.79-3.01-1.98-4.17-4.42-8.68-6.54-12.82-.75-2.11-2.12-5.2-3.54-6.94-6.17-13.16-11.64-27.19-14.75-41.41"/><path fill="#232427" d="M959.231 1766.31c6.971-.43 55.629-.61 61.079.39.17.72.35 1.44.52 2.16-21.097-.4-42.687-.02-63.879-.27.787-.82 1.45-1.5 2.28-2.28m68.439.5c8.35-1.4 50.11-.61 61.41-.85l-.36 1.6c-9.25 2.07-49.77 1.31-61.54 1.38.16-.71.32-1.42.49-2.13"/><path fill="#3f484f" d="M1130.9 1717.91c2.35 1.56 5.14 5.22 6.85 7.45-2.39-1.95-5.83-4.58-6.85-7.45m-46.29-68.66c1.42 1.74 2.79 4.83 3.54 6.94-1.84-1.35-3.46-4.72-3.54-6.94m67.98 90.85c1.91 1.41 3.16 2.1 4.49 4-1.64-.45-2.28-1.16-3.29-2.5zm27.93 23.1c1.93 1.34 3.19 1.99 4.6 3.82-2.38-.5-3.03-1.94-4.6-3.82m-15-12.01c1.84 1.3 3.2 2.07 4.59 3.84-2.37-.52-3.02-1.96-4.59-3.84m-41.82-41.54c1.55 1.26 1.83 1.5 2.73 3.27-1.85-.82-1.97-1.44-2.73-3.27m-5.37-6.53c2.79 2.8 3.17 3.25 5.37 6.53-1.65-1.58-3.26-3.1-4.45-5.07z"/><path fill="#5a656e" d="M878.847 1760.06c.738-1.15.62-.98 1.977-1.57-.367 1.2-.714 1.17-1.977 1.57"/><path fill="#3f484f" d="M724.981 1774.27c37.745.98 75.644-.12 113.399.05 4.956.02 10.703-.06 15.574.39-6.992 5.95-15.586 9.76-21.91 15.61-7.342 6.79-11.552 17.48-19.093 24.52-23.18.28-65.782 1.05-88.529-.33l.466-1.71c3.211-11.36.833-28.08 3.183-37.02-.964-.92-.306-.5-1.994-1.01zm483.849.63c12.05-1.17 32.79-.7 45.12-.7l72.68.06c.28 10.78.34 30.36 3.64 40.31-24.18-1.65-66.1 4.31-88.36-3.37-4.91-1.69-10.86-20.02-18.83-22.24-.24-.07-5.48-3.14-6.23-3.58-3.92-2.04-9.91-4.11-10.94-8.43z"/><path fill="#5a656e" d="M1069.89 1527.72c9.15-.72 11.78 4.66 17.06 11.12 7.61.96 15.92 2.31 14.5 12.09-4.59 6.54-9.62 5.82-17.1 5.74l-1.28-2.77c-32.88-1.14-70.28-.08-103.497.32-8.024 1.67-16.053 1.04-23.095 2.48-12.276-1.41-10.175-17.49 6.135-17.8.547-1.04 2.054-3.12 2.78-4.19 3.419-.79 6.441-4.2 8.748-4.34 8.957-.54 18.078-.51 27.059-.59l63.17-.41c2.67-.39 2.99-.63 5.52-1.65"/><path fill="#5a656e" d="M965.393 1534.71c3.419-.79 6.441-4.2 8.748-4.34 8.957-.54 18.078-.51 27.059-.59l63.17-.41c11.84.05 12.55-.14 19.28 10.44-18.86-.19-37.71-.23-56.56-.12-11.34.12-57 1.22-64.477-.79.547-1.04 2.054-3.12 2.78-4.19"/><path fill="#0d0e0f" d="M1069.89 1527.72c9.15-.72 11.78 4.66 17.06 11.12 7.61.96 15.92 2.31 14.5 12.09-4.59 6.54-9.62 5.82-17.1 5.74l-1.28-2.77c6.76.25 12.47 1.81 16.66-4.39.14-4.92-3.09-7.12-7.86-7.22-44.13-.93-88.44-.48-132.587.05-2.827.04-4.69 1.38-6.857 2.98-.801 1.03-1.257 2.11-1.859 3.29 4.676 8.56 19.579 5.62 29.006 5.61-8.024 1.67-16.053 1.04-23.095 2.48-12.276-1.41-10.175-17.49 6.135-17.8 7.477 2.01 53.137.91 64.477.79 18.85-.11 37.7-.07 56.56.12-6.73-10.58-7.44-10.39-19.28-10.44 2.67-.39 2.99-.63 5.52-1.65"/><path fill="#5c6973" d="M982.861 1720.6c5.407-.91 32.439-.8 37.539 0 .1.8.25 1.34.44 2.13.5 6.95.57 37.5-.53 43.97-5.45-1-54.108-.82-61.079-.39 1.074-3.22 7.61-14.53 9.73-18.41 4.606-8.42 7.857-16.75 12.026-25.01 1.617-.83 2.913-.75 1.874-2.29"/><path fill="#0d0e0f" d="M982.861 1720.6c5.407-.91 32.439-.8 37.539 0 .1.8.25 1.34.44 2.13-12.22-.17-27.706-.27-39.853.16 1.617-.83 2.913-.75 1.874-2.29"/><path fill="#5c6973" d="M1027.45 1722.71c6.48.14 37.18.45 41.79-.53 1.83 3.09 18.91 40.39 19.84 43.78-11.3.24-53.06-.55-61.41.85-.95-6.14-.83-37.46-.22-44.1m-78.976-2.17c5.666-.75 21.878-.74 27.926-.12l-.302 2.47c-4.292 10.99-14.068 34.62-21.626 43.27-.223 1.61-.134 1.47-.933 2.8-4.048-1.27-32.83.13-41.723-1.38l.739-1.86c.354-1.34 32.266-41.1 34.797-43.09 1.159-.56 1.086-.44 1.893-1.14-.09-.49-.27-.49-.771-.95"/><path fill="#232427" d="M912.555 1765.72c12.416.96 29.112.2 41.917.44-.223 1.61-.134 1.47-.933 2.8-4.048-1.27-32.83.13-41.723-1.38z"/><path fill="#0d0e0f" d="M948.474 1720.54c5.666-.75 21.878-.74 27.926-.12l-.302 2.47c-9.454-.07-19.322.05-28.746-.26 1.159-.56 1.086-.44 1.893-1.14-.09-.49-.27-.49-.771-.95"/><path fill="#5c6973" d="M1101.54 1720.09c.14 1.8.68 1.82 2.09 2.87 8.36 11.53 16.24 22.99 25.77 33.65 1.95 2.18 7.17 6.71 7 9.1l.12 1.61c-5.72 1.45-33.77.64-41.41.89-.65-.98-.66-.93-.98-2.03-8.71-13.47-13.19-29.27-19.53-43.3l-.53-2.49c8.44.04 19.12.11 27.47-.3"/><path fill="#0d0e0f" d="M1094.13 1766.18c12.93-.07 29.7.31 42.27-.47l.12 1.61c-5.72 1.45-33.77.64-41.41.89-.65-.98-.66-.93-.98-2.03m7.41-46.09c.14 1.8.68 1.82 2.09 2.87-9.7-.08-19.29.04-29.03-.08l-.53-2.49c8.44.04 19.12.11 27.47-.3"/><path fill="#5c6973" d="M1036.5 1590.24c2.25 6.37 3.35 10.15 4.55 16.75l2.1 11.5 1 5.5 2.01 11.5c.32 1.79.7 3.69 1.04 5.5l.98 5 1.01 5c1.11 5.5 9.42 35.02 8.85 37.05l-.35 1.51c-6.7.99-21.89.74-29.09.57l.13-1.91c-2.76-14.96 4.5-81.05 7.77-97.97"/><path fill="#232427" d="m1028.73 1688.21 29.31-.17-.35 1.51c-6.7.99-21.89.74-29.09.57z"/><path fill="#5c6973" d="M1014.58 1587.27c3.86 25.56 10.57 76.16 5.87 100.91l.1 1.89c-8.83.25-17.67.22-26.503-.08-.581-1.52-.547-1.29-.725-2.88a255 255 0 0 0 3.962-15.58l1.044-4.52a742 742 0 0 0 3.902-17.5c1-4.7 2-9.26 2.91-14l1.04-5.5c.82-4.47 1.71-9.08 2.63-13.52 1.62-7.46 3.06-14.96 4.33-22.48.34-2.13.96-4.62 1.44-6.74"/><path fill="#232427" d="M994.047 1689.99c-.581-1.52-.547-1.29-.725-2.88 4.271 1.7 21.348.94 27.128 1.07l.1 1.89c-8.83.25-17.67.22-26.503-.08"/><path fill="#5c6973" d="M965.084 1688.25c13.875-23.15 21.853-57.14 28.143-83.24.163-.68 2.013-7.71 2.042-7.45-.462-4.08 6.351-6.63 6.401-2.99.34 24.16-3.851 47.33-8.89 70.92l-1.007 4.5c-1.344 6.05-3.089 12-4.312 18.07-.617.43-.716.78-1.172 1.5-7.362.75-14.093.37-21.496.4z"/><path fill="#232427" d="M965.084 1688.25c7.37-.46 14.983-.27 22.377-.19-.617.43-.716.78-1.172 1.5-7.362.75-14.093.37-21.496.4z"/><path fill="#5c6973" d="M1057.69 1689.55c4.06 2.08 10.44 26.13 11.24 31.12-.31.83-.2.66.31 1.51-4.61.98-35.31.67-41.79.53l-.74-2.15c1.31-8.26.22-24.5 1.89-30.44 7.2.17 22.39.42 29.09-.57"/><path fill="#232427" d="M1026.71 1720.56c7.14-.57 35.85-1.05 42.22.11-.31.83-.2.66.31 1.51-4.61.98-35.31.67-41.79.53z"/><path fill="#5c6973" d="M1050.69 1591.34c8.95 26.96 13.69 55.13 25.99 81.26 2.18 4.63 5.31 11.3 6.79 16.01-5.23-.72-14.29-.56-19.64-.19-1.49-2.83-1.61-3.78-2.54-6.97-.93-3.28-1.8-6.58-2.61-9.89-1.24-4.83-2.36-9.69-3.37-14.57-.96-4.8-1.76-9.63-2.41-14.48-2.45-18.22-4.59-32.84-2.21-51.17m-56.643 98.65c8.833.3 17.673.33 26.503.08 1.16 4.65.69 25.52-.15 30.53-5.1-.8-32.132-.91-37.539 0 1.363-4.8 8.404-29.15 11.186-30.61"/><path fill="#5c6973" d="M1063.83 1688.42c5.35-.37 14.41-.53 19.64.19-.48.44-.64.44-.73.91.77.67.7.56 1.81 1.11 4.96 7.82 12.13 20.98 16.99 29.46-8.35.41-19.03.34-27.47.3-4-8.53-7-20.65-10.03-29.75q-.12-1.11-.21-2.22"/><path fill="#232427" d="M1063.83 1688.42c5.35-.37 14.41-.53 19.64.19-.48.44-.64.44-.73.91.77.67.7.56 1.81 1.11-6.92.05-13.57.2-20.51.01q-.12-1.11-.21-2.22"/><path fill="#5c6973" d="M986.289 1689.56c-.575 5.5-7.076 25.84-9.889 30.86-6.048-.62-22.26-.63-27.926.12 2.985-5.89 13.409-25.62 16.319-30.58 7.403-.03 14.134.35 21.496-.4m-14.354-127.33c12.734.31 90.095-1.17 96.085 1.41l-.08 3.34c-5.07-.37-10.84-.14-15.98-.04-23.07.43-46.56-.56-69.588.18-5.78-1.64-5.828-1.32-10.437-4.89"/><path fill="#7e848d" d="M1068.02 1563.64c10.98-.55 6.41 2.12-.08 3.34z"/><path fill="#322012" d="M1059.43 146.965c10.25-11.403 23.9-16.068 36.27-4.445a26.93 26.93 0 0 1 8.51 20.382c-.06 2.487-1.15 8.871-2.09 10.905-7.14 15.517 7.5 46.762-1.09 55.593-5.62 1.921-10.18-.44-10.84-6.523-1.31-12.196 10.05-28.827 3.72-40.261l-1.32-.419c-1.16 3.225-1.91 7.567-4.08 9.107l-.93-.546c-1.48-.849-.92-.536-2.65-1.364-1.95 4.741-1.65 306.655-1.06 341.542l-.78.709c-11.2 2.679-100.266-1.04-118.027.285-2.154.161-2.183-.321-3.12-1.432 2.071-2.378 1.853-2.925 1.865-7.004.105-35.177-.018-70.57-.05-105.734l.112-194.797c-.017-18.234-.869-52.12 1.023-70.664.328-3.211 17.357-4.684 21.392-4.953a659 659 0 0 1 73.145-.381"/><path fill="#c37d37" d="M965.369 153.925c35.981 5.757 79.131 5.478 115.111.715 1.68 11.908 1.4 30.67 1.45 43.167l.13 63.532-.15 214.336c.32 6.062.61 49.017-.09 54.365l-115.821-.003-.163-230.552c.133-47.138 1.326-98.966-.467-145.56"/><path fill="#9e6733" d="M1081.82 530.04c-1.33-9.545-1.21-44.705.09-54.365.32 6.062.61 49.017-.09 54.365"/><path fill="#c37d37" d="M994.976 148.936c10.894-1.385 40.734-1.925 51.474-.064 11.27.417 17.06 2.17 27.95 4.053-23.88 3.594-81.206 5.152-103.8-1.631 10.688-2.241 14.189-1.784 24.376-2.358"/><path fill="#684b24" d="M994.976 148.936c10.894-1.385 40.734-1.925 51.474-.064-10.14.309-20.26-.498-30.29-.359-7.71.106-13.17.801-21.184.423"/><path fill="#df3c29" d="M1097.79 147.743c4.81 8.593 4.61 21.066 1.64 30.202-1.31 12.451-2.35 9.136-6.37-.857-1.18-5.564-3.2-1.646-4.73 1.338-1.6 1.997-1.7 2.087-3.65 3.691-.25-1.978-1.58-28-1.46-30.288 4.43-3.924 6.77-.869 14.57-4.086"/><path fill="#d32e22" d="M1060.73 147.527c13.9-11.044 23.71-14.254 37.06.216-7.8 3.217-10.14.162-14.57 4.086-.96-1.764-18.06-3.192-22.49-4.302m36.6 51.527c2.32 6.463 7.96 23.879 2.05 28.661l-1.39 1.169c-10.28-6.428-5.64-9.906-3.29-21.47.57-2.788 1.66-5.672 2.63-8.36m-12.65-16.937c1.95-1.604 2.05-1.694 3.65-3.691.69 5.934.96 13.714-3.65 3.691"/><path fill="#0d0e0f" d="m481.864 1717.93.227-1.84c2.821 3.86 3.12 6.07 4.783 10.67 2.511 3.78 4.22 6.02 9.122 6.37l-1.347 1.27-3.573 2.29c-2.161 1.96-1.899 7.27 1.328 8.86.404 4.96 1.057 4.23-.707 8.22-3.301 2.24-4.861 2.14-8.949 2.78l.028 1.35c2.618 5.76 4.838 10.88 8.069 16.34l124.028.32c14.643.09 41.885-.49 55.24.59 6.223-.2 11.526-.16 17.793-.65 1.906-4.65 4.392-9.58 6.096-14.12l.993 2.07c-.633 3.1-.779 3.19-2.283 5.97-6.995 12.96-3.383 32.31-2.171 46.32.859 3.77 1.778 7.51 2.755 11.24 2.363 8.82 6.185 16.51 9.858 24.79l-.071 1.5-.629.63-225.466.43-5.522 8.63-5.051-8.9-145.441.08c-23.304.04-56.556 1.11-79.241-.29-7.333 2.06-3.676 9.18-8.947 7.82-1.178-.3-1.94-5.93-2.417-7.66l.017-1.7c-4.766-13.92-8.233-21.58-12.73-36.79-1.949-13.02-1.741-21.54-1.742-34.55.303-1.09.427-1.25.42-2.34-.69-1.01-1.379-2.01-2.068-3.02 2.292-2.95 6.206-11.63 7.534-15.28l1.085 2c2.865-3.97 4.991-1.78 10.067-.86l1.794.7c7.218-4.54 9.554-2.1 12.385 3.82l1.03-1.34c2.426 5.01 3.091 7.62 7.366 11.28 6.864-.96 48.647-.07 58.321.02 44.697.42 90.932-.82 135.455.3 3.639-2.84 9.847-14.18 8.028-18.98l-4.423-1.41c1.417-2.19 2.937-18.07-2.669-19.72.764-2.28 5.846-11.01 7.399-14.07l2.639.75c1.938.65 14.984-.65 16.395-1.48 1.722-.82 3.452-1.63 5.192-2.41"/><path fill="#3f484f" d="m694.002 1760.38.993 2.07c-.633 3.1-.779 3.19-2.283 5.97-6.995 12.96-3.383 32.31-2.171 46.32l-2.258.04c-66.239.29-132.479.22-198.718-.2 1.994-12.12 2.303-28.14 1.28-40.34l124.028.32c14.643.09 41.885-.49 55.24.59 6.223-.2 11.526-.16 17.793-.65 1.906-4.65 4.392-9.58 6.096-14.12"/><path fill="#232427" d="m694.002 1760.38.993 2.07c-.633 3.1-.779 3.19-2.283 5.97-6.995 12.96-3.383 32.31-2.171 46.32l-2.258.04c-2.253-15.83-2.371-21.51-1.577-37.45-2.671-.24-15.901-.38-16.593-2.18 6.223-.2 11.526-.16 17.793-.65 1.906-4.65 4.392-9.58 6.096-14.12"/><path fill="#3f484f" d="M255.527 1774.93c6.864-.96 48.647-.07 58.321.02 44.697.42 90.932-.82 135.455.3-2.509.55-6.166.93-8.81 1.28l8.161.97c-.383 14.43 1.532 23.18 3.922 37.42-66.674-.42-133.35-.41-200.024.01 3.085-17.33 1.201-25.56 2.975-40"/><path fill="#5c6973" d="M222.885 1761.33c2.865-3.97 4.991-1.78 10.067-.86l1.794.7c7.218-4.54 9.554-2.1 12.385 3.82 6.019 14 4.463 6.03 4.982 21.47.789 23.5-4.101 39.6-13.317 60.9-.594 1.46-1.131 2.87-1.69 4.34 1.577.37 3.071.69 4.627 1.15-7.333 2.06-3.676 9.18-8.947 7.82-1.178-.3-1.94-5.93-2.417-7.66l.017-1.7c-4.766-13.92-8.233-21.58-12.73-36.79-1.949-13.02-1.741-21.54-1.742-34.55.303-1.09.427-1.25.42-2.34-.69-1.01-1.379-2.01-2.068-3.02 2.292-2.95 6.206-11.63 7.534-15.28z"/><path fill="#5c6973" d="M234.746 1761.17c7.218-4.54 9.554-2.1 12.385 3.82 6.019 14 4.463 6.03 4.982 21.47.789 23.5-4.101 39.6-13.317 60.9a269 269 0 0 0-3.355-3.4c.288-2.16.397-3.22.261-5.46-1.422-23.33 1.231-54.76-.956-77.33"/><path fill="#232427" d="m232.952 1760.47 1.794.7c2.187 22.57-.466 54 .956 77.33.136 2.24.027 3.3-.261 5.46a269 269 0 0 1 3.355 3.4c-.594 1.46-1.131 2.87-1.69 4.34 1.577.37 3.071.69 4.627 1.15-7.333 2.06-3.676 9.18-8.947 7.82-1.178-.3-1.94-5.93-2.417-7.66l.017-1.7c1.006-1.32 2.092-2.56 2.113-4.3.353-28.36 1.347-58.28.453-86.54"/><path fill="#5a656e" d="M235.441 1843.96a269 269 0 0 1 3.355 3.4c-.594 1.46-1.131 2.87-1.69 4.34-1.137-2.24-1.217-3.26-1.45-5.79z"/><path fill="#232427" d="m221.8 1759.33 1.085 2c-2.234 6.44-4.414 8.82-6.551 16.3-.69-1.01-1.379-2.01-2.068-3.02 2.292-2.95 6.206-11.63 7.534-15.28"/><path fill="#5a656e" d="M482.776 1757.9c-2.886-3.19-16.382 3.89-22.456-6.23-8.373-13.94 12.294-27 21.009-13.87 5.485 8.26.746 11.96 1.419 18.75z"/><path fill="#030303" d="M469.218 1735.03c1.391.07 3.182.08 4.509.44 3.174.91 5.831 3.1 7.34 6.03 4.153 8.1-.775 11.35-7.519 14.43-14.242-2.66-18.644-13.16-4.33-20.9"/><path fill="#3f484f" d="m481.864 1717.93.227-1.84c2.821 3.86 3.12 6.07 4.783 10.67-.871.35-.729.31-1.673.37-3.424 2.58-28.617 5.18-26.668-.39l1.744-4.92c1.938.65 14.984-.65 16.395-1.48 1.722-.82 3.452-1.63 5.192-2.41"/><path fill="#232427" d="m481.864 1717.93.227-1.84c2.821 3.86 3.12 6.07 4.783 10.67-.871.35-.729.31-1.673.37-1.85-.89-6.663-2.1-6.677-4.13 1.265-1.17 1.546-.35 2.979.68l.843-.36c.28-1.24-.291-4.02-.482-5.39"/><path fill="#a8a6a1" d="M491.076 1736.69c-4.812-2.79 1.83-2.49 3.573-2.29z"/><path fill="#5c6973" d="M461.385 1758.49c1.253.01 7.224 1.79 8.656 2.26.047 31.5-.49 64.6.083 95.94a166.4 166.4 0 0 1-15.405-41.68c-2.579-11.06-5.991-31.1-.725-41.49 2.112-4.16 3.757-8.57 5.668-12.81.726-1.07.868-1.28 1.723-2.22m11.589 85.74c-.434-8.64-.105-19.69.003-29.52.061-5.52-1.817-51.93.379-54 5.55-5.24 12.411 3.75 13.945 11.27 5.501 26.96-1.908 50.74-11.353 75.56z"/><path fill="#5a656e" d="m472.974 1844.23 2.974 3.31-.578 1.05c-4.527 8.4-2.597-.55-2.396-4.36"/><path fill="#030303" d="M902.223 1253.84c4.02 1.42 66.73-11.98 78.589-11.02 30.698 2.48 63.408 1.85 94.368 2.66 26.1.68 48.3 5.8 73.6 9.85 1.68-.01 1.52-.09 3.2-.87 5.2 5.97 7.17 7.93 10.95 14.81l-1.62 1.56c2.69 10.02 2.9 19.23-3.25 27.98-.52.81-.55.84-1.2 1.54-.94.85-3.48 3.24-4.64 3.3-13.89.75-34.39.57-47.94.39l-.06 1.86c-4.42 4.56-20.47 50.94-23.15 59.34l-1.5 2.58c-3.31 14.02-9.67 36.62-14.33 50.11l-.39 2.19c-2.41 6.99-4.49 16.56-6.1 23.87l-1 4.5-.97 4.5-.97 4.5c-.78 3.6-1.65 7.14-2.5 10.72-.63 2.37-.62 1.55-.15 3.85l-.14.22c6.57.44 14.44.23 21.16.23-3 17.28-5.09 35.76-7.76 52.91 0 0-.37.57-1.14-1.13l-.26 2.24c2.5 1.83 1.12 1.1 4.87 1.19-2.53 1.02-2.85 1.26-5.52 1.65l-63.17.41c-8.981.08-18.102.05-27.059.59-2.307.14-5.329 3.55-8.748 4.34 5.215-6.7 6.018-4.75 12.563-8.83 2.087-2.86 1.741-7.91 1.914-11.69l2.407-1.26c-1.076-7.89-1.293-14.74-2.604-22.94-.443-2.83-.905-5.67-1.387-8.5-.512-2.9-.838-5.35-1.267-8.24a760 760 0 0 0 17.215-.23l-.236-1.96c-2.178-16.72-6.868-33.84-9.859-50.49l-.822-2.07c-1.576-9.23-10.035-43.29-13.328-51.47l-.545-2.46c-3.859-9.73-18.252-54.07-23.735-58.77l.77-1.72c-15.623.1-32.445.27-47.978.07l-1.716-1.94c-8.504-9.76-7.731-15.19-7.379-27.05l-1.051-4.69c2.324-5.25 8.057-13.03 11.438-18.31z"/><path fill="#5c6973" d="M1104.28 1304.04c9.01-18.85 17.06-49.19 43.72-45.83 3.36.42 5.3 1.15 7.4 3.76 2.1 2.24 3.21 3.02 4.16 5.91l1.75 2.95c2.69 10.02 2.9 19.23-3.25 27.98-.52.81-.55.84-1.2 1.54-.94.85-3.48 3.24-4.64 3.3-13.89.75-34.39.57-47.94.39"/><path fill="#3f484f" d="M1155.4 1261.97c2.1 2.24 3.21 3.02 4.16 5.91-1.16-.4-1.29-1.02-1.93-2.07z"/><path fill="#5c6973" d="M892.939 1265.81c6.594-11.36 13.687-9.02 25.062-2.77 15.28 8.4 21.804 25.78 28.478 41.04-15.623.1-32.445.27-47.978.07l-1.716-1.94c-8.504-9.76-7.731-15.19-7.379-27.05.905-2.93 1.74-5.21 2.829-8.08.403-.91.229-.63.704-1.27m160.081 206.47c6.57.44 14.44.23 21.16.23-3 17.28-5.09 35.76-7.76 52.91 0 0-.37.57-1.14-1.13-.32-3.36-1.1-9.68-2.97-12.41-8.36-12.19-8.42 6.01-8.75 9.6-.41.41-.45.35-.6.75-4.39-13.75-4.07-36.11.06-49.95m-58.786.74c5.986 17.54 4.704 39.49.755 57.28-.476-2.02-1.435-7.71-2.062-9.29-3.725-9.41-3.461-22.83-10.65-8.08-1.076-7.89-1.293-14.74-2.604-22.94-.443-2.83-.905-5.67-1.387-8.5-.512-2.9-.838-5.35-1.267-8.24a760 760 0 0 0 17.215-.23"/><path fill="#232427" d="M1052.96 1522.23c.15-.4.19-.34.6-.75.15 1.32.32 1.91.11 3.09l-.1.09c-.45-.57-.53-1.94-.61-2.43"/><path fill="#5a656e" d="M957.038 1303.96c-4.212-15.17-5.995-32.72 3.174-46.85 8.575-13.21 30.31-15.31 42.228-7.01 11.35 7.9 18.38 40.61 15.84 54.19l.13 1.9c1.78 5.87 2.07 49.73 2.14 58.55h-45.458c-2.837-9.78-16.881-53.4-16.951-58.94-.352-.69-.57-1.32-1.103-1.84"/><path fill="#5c6973" d="M958.141 1305.8c10.785 1.22 48.679.81 60.269.39 1.78 5.87 2.07 49.73 2.14 58.55h-45.458c-2.837-9.78-16.881-53.4-16.951-58.94"/><path fill="#232427" d="M957.038 1303.96c19.558.93 41.407-.47 61.242.33l.13 1.9c-11.59.42-49.484.83-60.269-.39-.352-.69-.57-1.32-1.103-1.84"/><path fill="#5c6973" d="M1029.96 1304.05c.84-15.19 8.2-44.28 21.12-53.53 5.7-4.08 21.2-2.76 27.68-.13 22.46 7.68 18.24 35.53 13.07 53.56-.53.55-.8 1.37-1.12 2.06.47 5.41-14.26 57.03-16.44 59.29-11.16-1.16-34.2-.57-45.82-.31-2.13-3.19-.41-53 1.27-58.76z"/><path fill="#5c6973" d="M1029.96 1304.05c.84-15.19 8.2-44.28 21.12-53.53 5.7-4.08 21.2-2.76 27.68-.13 22.46 7.68 18.24 35.53 13.07 53.56-.53.55-.8 1.37-1.12 2.06-1.76.28-2.88.47-4.7.48-18.76.04-37.53-.05-56.29-.26z"/><path fill="#232427" d="M1029.96 1304.05c16.39.55 45.64.54 61.87-.1-.53.55-.8 1.37-1.12 2.06-1.76.28-2.88.47-4.7.48-18.76.04-37.53-.05-56.29-.26z"/><path fill="#5c6973" d="M1028.45 1364.99c11.62-.26 34.66-.85 45.82.31l-.09 1.87c-.38 4.97-6.38 26.5-7.99 32.85l-.46 1.91-1.04 4c-.14.54-.29 1.07-.44 1.61l-1.02 3.98c-.73 3.03-1.38 4.55-2.84 7.26-4.94-1.03-27.61-.85-32.96.02-.73-5.13-1.05-49.07.86-51.69z"/><path fill="#232427" d="M1028.45 1364.99c11.62-.26 34.66-.85 45.82.31l-.09 1.87c-14.41-.21-32.21.6-45.89-.06z"/><path fill="#5c6973" d="M975.89 1367.03c14.913-.09 29.83-.07 44.74.07.59 14.49 1.35 36.71 1.05 50.95-.73.9-.8 1.16-.56 2.3-5.87 1.09-25.743.6-32.568.41-.067-1.35.043-1.24-.42-2.36-1.602-4.29-1.948-6.55-2.975-10.91l-.937-4.5-.879-4z"/><path fill="#232427" d="M1021.68 1418.05c-.73.9-.8 1.16-.56 2.3-5.87 1.09-25.743.6-32.568.41-.067-1.35.043-1.24-.42-2.36 10.802-.72 23.458.45 33.548-.35"/><path fill="#5c6973" d="M988.552 1420.76c6.825.19 26.698.68 32.568-.41 2.33 10.84 1.37 38.59 2.2 50.79l-.39 1.83c-8.23.07-16.85-.07-25.037.16l-.85-1.76c.584-14.23-8.61-36.5-8.491-50.61"/><path fill="#232427" d="m1023.32 1471.14-.39 1.83c-8.23.07-16.85-.07-25.037.16l-.85-1.76c6.987-.58 19.057-.57 26.277-.23"/><path fill="#5c6973" d="M1027.43 1418.8c5.35-.87 28.02-1.05 32.96-.02-.13 1.39.21 1.77.12 3.18-2.35 9.46-4.47 18.98-6.35 28.55l-1.41 6.93-.93 4.52-.91 4.52c-.32 1.68-.82 2.68-1.49 4.23-6.53-.79-15.5-.24-22.06.43-1.66-2.6-.86-44.37-.19-50.25.15-.83.29-1.28.26-2.09"/><path fill="#232427" d="M1027.43 1418.8c5.35-.87 28.02-1.05 32.96-.02-.13 1.39.21 1.77.12 3.18-3.66-1.8-26.74-1.02-33.34-1.07.15-.83.29-1.28.26-2.09"/><path fill="#5c6973" d="M997.893 1473.13c8.187-.23 16.807-.09 25.037-.16.26 9.08.26 18.73.36 27.87-5.38 7.86-6.83 11.16-9.06 20.19-6.9 27.92-15.636-44.01-16.337-47.9m51.527-2.42c-.08 1.73.53 2.38.06 4.06-.26 1.54-8.68 62.07-13.58 52.53-5.15-10-9.24-28.02-9.04-39.3.08-4.54-.77-10.36-.08-14.85l.58-2.01c6.56-.67 15.53-1.22 22.06-.43"/><path fill="#232427" d="M1049.42 1470.71c-.08 1.73.53 2.38.06 4.06-2.19-3.5-18.08-1.82-22.7-1.62l.58-2.01c6.56-.67 15.53-1.22 22.06-.43"/><path fill="#0d0e0f" d="M1083.87 530.936c4.98-1.22 104.74-1.865 109.47-.425 5.27 1.469 9.74 3.192 7.91 9.465-8.26 8.669-17.93 2.967-31.34 9.04-16.18 7.327-22.7 13.131-36.24 24.459 3.81 19.161-3.6 37.325-14.05 53.071-14.81 22.318-31.27 37.915-57.93 43.903-3.59 1.349-5.85 1.761-8.25 4.723 1.48 8.475 13.67 6.526 2.92 22.856-12.38-1.566-49.43-.34-63.288-.491-14.966-13.072-3.48-13.379 1.312-21.526l-.743-2.436-2.872-1.445c-30.521-9.267-58.875-34.12-70.006-64.333-4.222-11.462-4.228-20.673-4.769-32.628-12.316-10.708-26.566-24.749-42.731-28.75-10.611-2.626-21.222 2.431-27.487-9.835 3.269-3.432 8.42-5.762 13.13-6.044 26.011-1.556 52.336-.345 78.417-.662 7.966-.097 16.828-.277 24.62.62.937 1.111.966 1.593 3.12 1.432 17.761-1.325 106.827 2.394 118.027-.285z"/><path fill="#030303" d="m1044.71 572.665 7.64.193c12.51 1.908 49.61-1.076 57 1.023-19.11 19.55-10.73 62.048-46.99 93.999l-.67 2.569c-3.59 1.349-5.85 1.761-8.25 4.723 1.48 8.475 13.67 6.526 2.92 22.856-12.38-1.566-49.43-.34-63.288-.491-14.966-13.072-3.48-13.379 1.312-21.526l-.743-2.436-2.872-1.445-.044-1.497c2.605.067 4.365.351 1.854-2.353-15.87-17.067-26.084-36.855-30.33-59.79-1.913-10.333-3.524-24.804-10.251-32.787l-1.08-1.343c4.116-1.474 24.514-1.818 27.9-.256 5.243.768 15.921.475 21.222.11 2.41-1.505 24.45-1.413 26.81-.165 6.74.884 10.23.096 18.28 1.386z"/><path fill="#5c6973" d="M978.818 574.104c5.243.768 15.921.475 21.222.11 16.03 12.317 6.89 54.234 12.79 73.299 1.18 3.832 5.29 20.184 5.8 23.616q-9.675-.038-19.351-.303c-15.544-16.445-23.816-33.205-27.556-55.813-1.743-10.532-4.301-22.492-1.551-33.004 1.262-4.824 4.572-5.99 8.646-7.905"/><path fill="#5c6973" d="M1026.85 574.049c6.74.884 10.23.096 18.28 1.386 7.05 11.244 6.16 14.387 5.12 28.064-1.65 21.73-4.28 47.104-12.34 67.36-4.79.14-9.59.226-14.39.259-5.43-21.739-16.28-81.362 3.33-97.069m41.94 1.03q9.315-.258 18.63-.086c2.67 6.149 4.73 11.08 3.48 18.005-4.72 26.016-10.49 55.875-31.48 73.533-7.53 4.1-9.54 3.732-18.22 4.857 10.48-19.854 12.11-43.076 15.68-64.892l.95-7.001c1.6-12.197 1.49-16.555 10.96-24.416"/><path fill="#5a656e" d="M990.029 680.783c20.151.589 40.431-.645 60.491 1.111 5.59.49 7.27.641 7.15 6.288-22.45-2.284-45.57-.417-68.073-1.338-2.077-.086.246-5.556.432-6.061"/><path fill="#5c6973" d="M998.693 673.438c16.507 1.382 33.857.019 50.427.189.68.007.99 2.487 1.04 2.845l.31 1.917c-1.86.073-16.11-.08-17.44-.539-5.68-1.96-36.59 3.983-34.611-3.317zm85.177-142.502c4.98-1.22 104.74-1.865 109.47-.425l-.3 1.079.97.641c3.44 2.324 4.23 2.436 5.41 6.262-1.19 1.226-2.03 1.845-3.38 2.913-8.66 2.271-31.05 1.643-40.51 1.646l-63.2.111-150.087.778c-26.897.026-54.579.572-81.425-1.117-6.489-.409-9.592-2.83-15.042-6.24 3.269-3.432 8.42-5.762 13.13-6.044 26.011-1.556 52.336-.345 78.417-.662 7.966-.097 16.828-.277 24.62.62.937 1.111.966 1.593 3.12 1.432 17.761-1.325 106.827 2.394 118.027-.285zM936.568 632.018c-8.669-11.095-15.208-25.047-17.429-39.026-.562-1.865-.613-16.683 1.387-17.295 6.996-2.138 23.439-.108 30.392-1.337l1.08 1.343c6.727 7.983 8.338 22.454 10.251 32.787 4.246 22.935 14.46 42.723 30.33 59.79 2.511 2.704.751 2.42-1.854 2.353-13.819-7.603-24.943-9.966-38.18-22.842-5.928-4.221-11.469-10.066-15.977-15.773"/><path fill="#3f484f" d="M936.568 632.018c4.603 3.1 12.075 11.376 15.977 15.773-5.928-4.221-11.469-10.066-15.977-15.773"/><path fill="#5c6973" d="M1109.35 573.881c17 2.817 26.44-7.497 22.43 18.108-3.45 22.116-23.06 49.788-40.73 62.855-.53.538-.39.403-1.1.812-7.12 5.21-18.84 11.027-27.59 12.224 36.26-31.951 27.88-74.449 46.99-93.999"/><path fill="#5c6973" d="m903.84 561.977 165.55.627c23.93.033 49.07-.766 72.77-.306-3.44 3.349-6.81 6.907-10.72 9.638-9.78.128-73.98-.601-79.09.922l-7.64-.193c-31.47-2.21-68.725.486-100.643-.379-9.151-.248-20.209.259-29.213-.527-4.339-3.481-7.158-5.661-11.014-9.782"/><path fill="#5a656e" d="M880.128 546.144c29.99-.861 64.593-.038 94.883-.068l194.049-.232-10.45 5.733-13.62 9.088c-23.29-1.422-52.14-.311-75.95-.552-55.47-.561-111.44.69-166.892-.235-7.841-5.32-13.612-9.169-22.02-13.734"/><path fill="#5c6973" d="M993.072 697.537c13.858.151 50.908-1.075 63.288.491 10.77 2.89 28.23 5.299 20.53 21.43-5.55 6.211-10.98 6.748-15.21 11.389-3.67 26.885 8.38 45.763 36.91 34.962-12.5 14.79-15.52 20.262-23.18 38.07 18.37-14.198 31.93-16.344 54.87-14.052 23.25 2.323 48.24 18.422 43.23 44.864-.34 1.786-.46 2.235-1.42 3.795-2.91.004-5.44-2.218-8.31-3.966-2.4 10.091-4.34 19.23-13.78 25.191-8.26 5.22-12.58-2.15-14.38-8.885l-2.46 1.102c-1.4 10.984-17.5 25.798-24.93 17.768 1.56-4.227 7.07-13.52 3.9-16.882-23.91-25.324-53.39 26.671-58.55 41.811 3.29 2.432 3.28 2.214 4.79 5.93-.08 8.104-5.76 5.185-5.22 17.351l-1.24-.666c-.38-.333-2.34-2.265-3.03-2.283-16.27-.428-32.61-.009-48.894-.603-2.796-.102-2.868-.789-4.856.806l-1.144.893c.113-.417.052-2.916.051-3.443-6.84-8.697-7.912-12.557 1.197-19.784-5.228-17.729-24.169-53.206-46.885-39.613-5.782 7.991.596 17.766-3.314 21.768-6.578-.04-13-2.005-18.474-5.652-9.906-6.481-7.147-10.902-9.058-19.955-21.497 18.782-30.937 10.824-29.857-16.24-3.222 3.013-6.772 7.03-10.785 7.637-12.212-9.928 29.477-80.47 96.242-36.549-5.676-10.793-12.701-20.722-19.644-30.717q2.154-.16 4.301-.402c27.449-3.155 29.721-20.72 26.712-43.763-6.547-3.966-12.028-4.759-16.628-10.899-4.322-17.489 12.936-19.111 25.228-20.904"/><path fill="#030303" d="M993.072 697.537c13.858.151 50.908-1.075 63.288.491 10.77 2.89 28.23 5.299 20.53 21.43-5.55 6.211-10.98 6.748-15.21 11.389l-1.93-.797c-.59-.479-1.18-.958-1.78-1.437-19.27-.96-51.89-.73-69.85-.091.464 12.043 1.536 27.894-7.129 37.641-5.475 6.157-16.977 6.799-20.98 10.625 2.699 8.041 19.194 31.389 24.504 40.725-27.587-26.534-65.584-37.795-95.368-6.556-.584.432-.499.41-.885 1.085-4.418 5.031-9.671 15.429-11.004 21.867l1.441 2.393c5.537-1.889 11.15-8.713 15.373-13.148-3.552 10.409-8.104 25.475 2.357 33.559 2.224-.328 2.554-.209 4.889-.054 12.903-3.259 13.28-11.471 21.455-21.051 13.201-15.47 33.634-14.638 49.97-4.973a83 83 0 0 1 4.531 2.899c-8.886-12.389-16.877-18.455-32.205-21.525-23.775-4.761-31.098 9.205-45.148 13.908l-.342-1.041c21.349-19.446 47.546-25.301 71.212-3.15 6.687 6.259 10.13 16.489 13.657 24.922-3.556-4.652-6.696-9.288-11.661-12.467-19.795-12.676-40.571-9.394-52.911 10.399-.171 20.225 4.844 23.15 23.893 28.572-1.01-9.54-2.84-23.979 11.679-24.973 10.694-.732 21.086 7.631 28.197 15.022.214.662.23.587.734 1.143l.919 1.4c5.517 8.502 10.739 24.651 16.952 27.873 18.48-2.321 5.52-77.606-.22-91.385-7.073-17.01-17.993-13.247-20.711-17.254 34.121-6.895 32.021 66.049 32.481 86.118.09 3.949-2.46 20.305-1.46 22.341 3.31.397 3.76.877 6.7-.139.59-5.327-.16-9.741-.33-15.011-1.18-35.414-.3-70.774-6.42-105.859-.9-5.164-1.63-11.62-1.16-16.842l1.02-.655c15.04 22.233 5.54 111.166 10.44 139.505l5.28-.771.11 2.686q1.86.093 3.72.235l.88-2.389c2.05-.301 2.65-.012 4.77.308-3.06-34.052-6.46-83.443 23.01-108.577 2-1.705 5.67-3.102 8.34-2.553-.96 1.983-6.14 4.505-8.57 7.01-9.44 9.735-14.63 25.424-17.45 38.187-2.84 12.877-7.34 54.297-.6 64.63 3.28 1.444 5.65.773 9.25.38l2.25 1.043c3.29 2.432 3.28 2.214 4.79 5.93-.08 8.104-5.76 5.185-5.22 17.351l-1.24-.666c-.38-.333-2.34-2.265-3.03-2.283-16.27-.428-32.61-.009-48.894-.603-2.796-.102-2.868-.789-4.856.806l-1.144.893c.113-.417.052-2.916.051-3.443-6.84-8.697-7.912-12.557 1.197-19.784-5.228-17.729-24.169-53.206-46.885-39.613-5.782 7.991.596 17.766-3.314 21.768-6.578-.04-13-2.005-18.474-5.652-9.906-6.481-7.147-10.902-9.058-19.955-21.497 18.782-30.937 10.824-29.857-16.24-3.222 3.013-6.772 7.03-10.785 7.637-12.212-9.928 29.477-80.47 96.242-36.549-5.676-10.793-12.701-20.722-19.644-30.717q2.154-.16 4.301-.402c27.449-3.155 29.721-20.72 26.712-43.763-6.547-3.966-12.028-4.759-16.628-10.899-4.322-17.489 12.936-19.111 25.228-20.904"/><path fill="#5c6973" d="M993.072 697.537c13.858.151 50.908-1.075 63.288.491 10.77 2.89 28.23 5.299 20.53 21.43l-1.46-.488c-15.58 1.489-95.415 2.616-106.15-1.383l-1.436.854c-4.322-17.489 12.936-19.111 25.228-20.904"/><path fill="#232427" d="M993.072 697.537c13.858.151 50.908-1.075 63.288.491 10.77 2.89 28.23 5.299 20.53 21.43l-1.46-.488c.59-5.519 1.3-13.599-5.47-14.736-14.16-2.375-83.836-4.935-94.025-.644-2.114 2.745-2.544 3.216-5.304 5.264-.884 3.432-1.553 5.149-1.351 8.733l-1.436.854c-4.322-17.489 12.936-19.111 25.228-20.904"/><path fill="#5a656e" d="M975.935 703.59c-2.114 2.745-2.544 3.216-5.304 5.264 2.105-3.015 2.272-3.163 5.304-5.264m56.645 190.607c2.05-.301 2.65-.012 4.77.308 1.92 1.913 10.97 1.095 15.12 1.729 1.54 1.71 4.32 4.089 3.47 6.756a2.63 2.63 0 0 1-1.64 1.683c-5.61 1.972-52.67-.201-61.618-.581-1.381-.059-.922-5.854.383-6.58 5.105-2.838 23.815-1.441 29.015-1.161l.51-1.915 5.28-.771.11 2.686q1.86.093 3.72.235z"/><path fill="#0d0e0f" d="M1032.58 894.197c2.05-.301 2.65-.012 4.77.308 1.92 1.913 10.97 1.095 15.12 1.729-7.43.859-13.3.489-20.77.352zm-9.99.239 5.28-.771.11 2.686c-1.97.041-3.93.041-5.9 0z"/><path fill="#3f484f" d="M896.429 856.713c2.224-.328 2.554-.209 4.889-.054-2.303.487-2.463.329-4.889.054"/><path fill="#0d0e0f" d="m1059.75 730.05 1.93.797c-3.67 26.885 8.38 45.763 36.91 34.962-12.5 14.79-15.52 20.262-23.18 38.07 18.37-14.198 31.93-16.344 54.87-14.052 23.25 2.323 48.24 18.422 43.23 44.864-.34 1.786-.46 2.235-1.42 3.795-2.91.004-5.44-2.218-8.31-3.966-2.4 10.091-4.34 19.23-13.78 25.191-8.26 5.22-12.58-2.15-14.38-8.885l-2.46 1.102c-1.4 10.984-17.5 25.798-24.93 17.768 1.56-4.227 7.07-13.52 3.9-16.882-23.91-25.324-53.39 26.671-58.55 41.811l-2.25-1.043c7.23-17.521 18.32-38.391 36.27-46.362 20.22-8.986 34.76.027 23.6 21.976 29.17-8.014 21.35-31.051-.58-42.461-27.5-.106-29.7 7.427-47.32 24.454l.57-1.084.98-1.787c12.28-22.654 39.93-49.937 67.61-37.965 8.45 3.653 19.09 13.272 22.57 22.018-4.24-2.126-9.13-8.472-13.06-11.651-22.88-18.516-42.73-7.651-60.66 9.408 23.37-9.652 39.26-8.853 53.92 14.853 2.31 3.746 2.85 10.371 6.33 12.939 16.76 2.298 18.12-18.255 20.01-29.445 3.89 3.533 5.34 4.687 9.77 7.5-.33-4.432-.25-9.088-.07-13.532-.65-4.131-1.85-6.17-3.6-10.029-4-3.525-7.76-7.326-11.23-11.377-19.31-11.246-48.21-12.891-68.39-3.132-4.73 2.288-10.4 8.013-16.19 11.036 4.38-14.953 8.41-23.698 17.49-36.092l-.3-1.427c-4.74-.635-5.07-.646-9.79-.466-17.29-5.598-20.8-15.706-20.91-32.968-.11-1.444-.29-1.521.31-2.602z"/><path fill="#ece7e4" d="M1133.16 851.928c-.26-1.136-1.6-5.08-.5-6.125 1.71.151 2.59 3.783 2.96 5.023z"/><path fill="#5a656e" d="M1156.44 801.037c5.09 3.379 7.83 6.269 11.23 11.377-4-3.525-7.76-7.326-11.23-11.377m14.83 21.406c1.09 5.536 1.48 8.13.07 13.532-.33-4.432-.25-9.088-.07-13.532"/><path fill="#030303" d="M1027.87 893.665c.19-5.608.18-14.563-.4-20.02-1.68-15.795 8.42-115.955 15.5-120.172 2.58 5.889-10.11 73.552-10.57 85.537-.71 18.553-3.43 35.686.18 55.187l-.88 2.389q-1.86-.142-3.72-.235z"/><path fill="#3f484f" d="M1079.26 770.956c4.72-.18 5.05-.169 9.79.466-4.82 1.075-4.97 1.002-9.79-.466"/><path fill="#0d0e0f" d="m1562.04 1736.43.32-.53-.72-1.75c.66-4.96 3.58-11.23 6.22-15.47l.97 1.16c4.56 3.16 13.41 1.93 20.33 2.53l4.84 1.63c2.17 3.37 2.57 4.64 3.7 8.52 3.16 2.49 2.71 1.69 7.56 2.07-1.44.32-7.37.84-7.51 1.08-2.47 4.29-.87 7.97 1.18 10.22l-.33 1.55c-.97.95-.86.97-2.03 1.45-1.55.99-2.46 1.85-3.86 3.06l-2.15.45c-.99 1.62-2.21 2.95-3.44 4.39 1.28.45 1.33.59 2.43 1.42 1.04 1.74 1.71 3.23 3.43 4.33 2.83 2.33 4.84 7.93 5.63 11.46 5.3 1.13 8.11.93 13.57 1.15 19.36-1.01 46.03-.2 66.15-.23l118.84-.87c2.6-4.04 5.12-10.89 7.68-15.65l1.25.9c4.42-.17 3.81 1.68 9.41 1.7l2.13.59c5.64-1.24 6.37-3.71 10.59-.29l.89-1.9 6.95 15.52c19.93.02 69.2-6.26 77.32 15.03 3.08 5.69 3.24 13.42 1.56 19.55-3.26 11.87-10.7 15.5-20.85 19.91 8.87 5.27 20.87 12.01 29.22 17.62-1.4.38-1.2.34-2.36 1.35-1.23 1.05-4.26 3.61-5.9 3.78-31.27 3.18-63.77-1.05-94.94 1.86-2.92.28-1.28 4.64-4.65 7.07-3.33-2.72-1.72-7.47-5.02-7.59-19.02-.69-44.81-.28-63.45-.22l-163.18-.02c-1.44 3.74-1.35 5.8-4.01 7.13-1.45-1.8-1.18-1.25-2.12-3.32 3.53-4.43 1.8-7.67 1.48-13.6l-.98 3.47c-.59 2.05-.87 2.45-1.89 4.29-6.11-18.5-12.29-30.05-13.41-50.9.22-4.54.39-14.34-.12-18.65l-.88-.1c-1.49-2.52-.87-3.95-.85-7.39 2.74-5.47 4.91-11.7 7.08-17.46-6.01-1.89-7.54-1.52-10.45-6.33.16-2.54.04-3.01-.95-5.35-.39-5.27 1.32-5 5.32-8.62"/><path fill="#3f484f" d="M1598.61 1774c5.3 1.13 8.11.93 13.57 1.15 19.36-1.01 46.03-.2 66.15-.23l118.84-.87c-1.1 12.65-1.58 25.09.38 37.71.65 4.21-1.46 2.95-5.86 3.66-6.86-1.12-39.43-.7-47.78-.72l-105.83-.06c-7.37.04-34.92.74-39.69-.49l-1.87-.25c.63-4.22 1.36-7.6 1.82-11.91.03-1.08-.07-1.18.43-2.1.38-7.4-.74-20-.16-25.89"/><path fill="#232427" d="M1598.61 1774c5.3 1.13 8.11.93 13.57 1.15-6.27 2.26-12.4-.61-12.18 4.84.16 4.14 2.29 17.51-.05 20.15-.5.18-.45.05-1.18-.25.38-7.4-.74-20-.16-25.89m-.27 27.99c3.64 1.77.84 8.84.05 12.16l-1.87-.25c.63-4.22 1.36-7.6 1.82-11.91"/><path fill="#3f484f" d="M1837.33 1777.84c14.54-.21 52.76-3.11 64.27 2.58 5.38 2.66 8.61 8.83 10.66 9.82.35.17.77-.16 1.13-.29 3.08 5.69 3.24 13.42 1.56 19.55-3.26 11.87-10.7 15.5-20.85 19.91-7.04-4.87-15.47-9.8-22.88-14.79-11.19.02-24.65.07-35.72.48 1.82-12.33 2.44-24.81 1.83-37.26"/><path fill="#5c6973" d="M1797.17 1774.05c2.6-4.04 5.12-10.89 7.68-15.65l1.25.9c4.42-.17 3.81 1.68 9.41 1.7-2.33 29.56-.03 62.93-1.33 93.07-5.54-12.19-9.01-21.63-12.54-34.47-.3-1.12-.64-2.23-1.01-3.33-.19.3-.75 1.28-1.13 1.57-2.55-3.56-2.33-1.28-7.81-2.42 4.4-.71 6.51.55 5.86-3.66-1.96-12.62-1.48-25.06-.38-37.71"/><path fill="#232427" d="M1797.17 1774.05c2.6-4.04 5.12-10.89 7.68-15.65l1.25.9c-1.38 3.78-6.02 13.12-6.71 16.28-2.79 12.72-.27 27.83 1.24 40.69-.19.3-.75 1.28-1.13 1.57-2.55-3.56-2.33-1.28-7.81-2.42 4.4-.71 6.51.55 5.86-3.66-1.96-12.62-1.48-25.06-.38-37.71"/><path fill="#5c6973" d="M1581.72 1850.56c-.22-28.02-1.91-60.73.36-89.11.1-1.31 5.51-2.41 7.47-3.24 1.04 1.74 1.71 3.23 3.43 4.33 2.83 2.33 4.84 7.93 5.63 11.46-.58 5.89.54 18.49.16 25.89-.5.92-.4 1.02-.43 2.1-.46 4.31-1.19 7.69-1.82 11.91-3.09 11.9-8.85 25.91-14.8 36.66m235.92-88.97c5.64-1.24 6.37-3.71 10.59-.29 1.46 4.68 6.39 12.85 6.57 16.68.54 11.31-.21 22.98-1.38 34.25-5.16 18.25-7.24 23.59-15.86 40.91-.28-30.29.87-61.91.08-91.55m-247.2-4c3.5 1.43 6.02 2.06 9.5 3.16-2.45 25.79-1.73 56.62-.77 82.72l-.98 3.47c-.59 2.05-.87 2.45-1.89 4.29-6.11-18.5-12.29-30.05-13.41-50.9.22-4.54.39-14.34-.12-18.65.55-9.72 3.82-15.29 7.67-24.09"/><path fill="#5a656e" d="M1587.12 1756.79c-20.03 5.47-25.82-16.83-15.16-22.54 14.55-7.79 22.85.55 18.6 18.15-.99 1.62-2.21 2.95-3.44 4.39"/><path fill="#030303" d="M1577.25 1736.46c4.89-1.74 10.29.69 12.21 5.51 1.93 4.82-.3 10.31-5.05 12.41a9.62 9.62 0 0 1-9.79-1.17 9.64 9.64 0 0 1-3.66-9.16c.55-3.49 2.96-6.4 6.29-7.59"/><path fill="#3f484f" d="M1592.71 1751.95c.76-2 1.39-8.68 2.47-8.53.79.77 1.17 4.39 1.39 5.47-1.55.99-2.46 1.85-3.86 3.06"/><path fill="#5a656e" d="M1567.5 1722.86c3.73 1.02 29.92.72 25.97 8.97-.28.13-.13.12-.43.05-.08-.11-.17-.22-.26-.33-.09-.35-.19-.71-.29-1.06-10.88-4.7-16.74-2.24-27.44.33.94-2.73 1.71-5.14 2.45-7.96"/><path fill="#0d0e0f" d="M1334.23 1746.9c1.88 3.05 2.33 7.25 6.16 8.58 1.28.45 3.9 1.57 4.65.38 1 .2 2.02.24 3.03.13l2.94 1.94 1 .56c1.68.26 2.6.53 4.27 1l1.51-1.33c2.08 3.97 7.15 15.73 11.01 16.83 11.45-1.19 36.05-.16 48.93-.5 47.33-1.26 96.06 1.15 143.31-.3-.02 3.44-.64 4.87.85 7.39l.88.1c.51 4.31.34 14.11.12 18.65 1.12 20.85 7.3 32.4 13.41 50.9.07.45.14.89.22 1.34-.91.4-28.41.2-32.95.6l-191.72.11c-2.02 4.14-1.82 5.52-5.06 7.64-2.74-2.57-2.14-3.18-3.34-7.51l.7-.42c-5.71-13.57-8.81-24.65-12.49-38.79l-1.39.37c-3.3-9.95-3.36-29.53-3.64-40.31 4.45-3.82 8.74-11.37 6.88-17.36-2.49-2.59-4.69-2.36-8.34-2.79 4.46-.93 3.51-.01 5.67-2.89-.48-2.22-.67-2.04.2-3.93z"/><path fill="#3f484f" d="M1357.79 1758.16c2.08 3.97 7.15 15.73 11.01 16.83 11.45-1.19 36.05-.16 48.93-.5 47.33-1.26 96.06 1.15 143.31-.3-.02 3.44-.64 4.87.85 7.39l.88.1c.51 4.31.34 14.11.12 18.65-.64-4.13-1.07-7.61-1.45-11.77-.75 4.96.03 24.14-.36 25.37-3.11.35-4.31.46-7.52.42-6.59 1.74-183.86 1.37-190.59-.29 1.9-11.99 3.3-26.28 1.66-38.33-.21-1.49-7.36-14.34-8.35-16.24z"/><path fill="#232427" d="M1357.79 1758.16c2.08 3.97 7.15 15.73 11.01 16.83-.99 2.67-2.23 31.84-3.15 39.14 61.33.1 127.03-1.03 187.91.22-6.59 1.74-183.86 1.37-190.59-.29 1.9-11.99 3.3-26.28 1.66-38.33-.21-1.49-7.36-14.34-8.35-16.24z"/><path fill="#5c6973" d="M1352.01 1758.49c1.68.26 2.6.53 4.27 1 .99 1.9 8.14 14.75 8.35 16.24 1.64 12.05.24 26.34-1.66 38.33-2.38 12.3-8.14 28.39-14.11 39.51-.19-10.94.09-21.91-.14-32.82-.43-19.7-1.48-39.53-.67-59.22.05-1.14 3.22-2.62 3.96-3.04m-13.97-.11c2.52.56 4.99 1.29 7.4 2.18-.09 14.63 1.55 73.37.18 91.35-.01.05-1.41 1.04-1.47 1.08-5.71-13.57-8.81-24.65-12.49-38.79-1.5-9.75-3.44-29.3-1.45-38.68.43-2 6.5-14.36 7.83-17.14"/><path fill="#5a656e" d="M1331.04 1747.29c.75 1.87.46 2.03-.2 3.93-.48-2.22-.67-2.04.2-3.93"/><path fill="#030303" d="m979.556 992.672 1.425.359.741 1.793c.26.669 1.066 2.795 1.894 2.911 17.144 2.395 39.464.68 56.424 1.059l.48 2.066c5.51 0 13.95.26 19.13-.66 2.97-1.16 1.57-1.198 4.33-.22l.35.45c17.23 17.17 30.57 36.73 30.81 62.03A66.1 66.1 0 0 1 1076 1110c-3.65 3.64-7.6 6.97-11.81 9.94l-1.54 2.48-10.03 3.48c-1.15 3.49-2.6 7.01-2.68 10.64l.03 1.76c-5.14 2.48-43.12 1.33-50.748.96-.457-1.76-.681-2.66-.977-4.45-1.69-2.6-2.713-6.21-3.738-9.2l-.298-1.76c-4.88-1.24-5.541-1.51-9.78-4.23l-2.022 1.41a220 220 0 0 1-6.298-5.28c-29.944-26.25-38.937-65.89-10.889-97.68 5.016-5.68 12.012-10.61 16.778-16.13l.832-.98-2.697-1.779c-.649-2.606-.502-3.827-.577-6.509"/><path fill="#5c6973" d="m988.984 1001.01 23.216-.06c-27.129 40.73-30.204 82.23-1.01 122.97-5.15 0-11.976.18-16.981-.07-4.88-1.24-5.541-1.51-9.78-4.23-32.13-31.06-33.839-91.21 4.555-118.61m70.666-.81c14.12 13.93 19.1 26.77 21.24 46.36 2.33 21.39 2.79 46.57-11.71 64.25-9.02 11-17.21 12.29-30.03 13.3 2.83-4.71 6.2-10.23 8.7-15.08a94.07 94.07 0 0 0 5.32-75.1c-3.74-10.73-8.75-20.53-12.2-31.61l-.45-1.46c5.51 0 13.95.26 19.13-.66m-61.405 134.61c5.565-1.25 41.235-.27 49.535-.25.22 0 1.85 1.68 2.16 1.98l.03 1.76c-5.14 2.48-43.12 1.33-50.748.96-.457-1.76-.681-2.66-.977-4.45"/><path fill="#5c6973" d="M1014.97 1001.11c6.92.12 14.2-.1 21.15-.21 10.86 27.93 13.95 73.04 8.09 102.66-1.26 6.34-3.81 16.71-9.34 20.38-6.82.14-13.91.01-20.76-.02-19.584-33.69-14.969-88.27.86-122.81m-39.095 193.63c32.405.99 66.445-.28 99.115.12l4.75 1.77c-20.16 2.61-2.11 15.59-.13 21.06-.1.92-.28 3.44-.48 4.24l.36 2.88 1.51 2.31c5 .76 11.99 1.82 16.99 1.91 11.97.2 48.96 13.68 50.79 26.3-25.3-4.05-47.5-9.17-73.6-9.85-30.96-.81-63.67-.18-94.368-2.66-11.859-.96-74.569 12.44-78.589 11.02l-2.43-1.68a89 89 0 0 1 4.134-4.77c13.998-14.83 48.793-21.69 68.035-22.28l-.683-7.51c.82-1.56 1.698-2.72 2.689-4.17 2.546-1.47 2.982-1.68 5.166-3.6 2.189-5.68 2.141-9.79-3.499-13.43z"/><path fill="#030303" d="M975.875 1194.74c32.405.99 66.445-.28 99.115.12l4.75 1.77c-20.16 2.61-2.11 15.59-.13 21.06-6.15-5.69-8.38-5.55-16.55-5.78-29.13-.84-58.06.38-87.054 1.45l-2.038.07c2.546-1.47 2.982-1.68 5.166-3.6 2.189-5.68 2.141-9.79-3.499-13.43z"/><path fill="#5c6973" d="M1047.68 1205.45c3.33-.14 17.91-1.38 19.44.72-.03 2.26-2.21 2.93-4.13 2.98-19.15.48-38.34.19-57.49.24-3.24-.01-23.425 1.95-21.217-2.74 1.195-.83 56.177-.9 63.397-1.2"/><path fill="#030303" d="m973.968 1213.43 2.038-.07c28.994-1.07 57.924-2.29 87.054-1.45 8.17.23 10.4.09 16.55 5.78-.1.92-.28 3.44-.48 4.24l.36 2.88 1.51 2.31c-14.91-1.01-42.51-.23-58.42-.36-10.75-3.09-39.206.82-50.618-1.65l-.683-7.51c.82-1.56 1.698-2.72 2.689-4.17"/><path fill="#5c6973" d="m973.968 1213.43 2.038-.07c28.994-1.07 57.924-2.29 87.054-1.45 8.17.23 10.4.09 16.55 5.78-.1.92-.28 3.44-.48 4.24-.24-.73-.47-1.45-.71-2.17-15.61-2.29-99.49 1.98-107.141-2.16.82-1.56 1.698-2.72 2.689-4.17"/><path fill="#0d0e0f" d="M899.793 1252.16a89 89 0 0 1 4.134-4.77c13.998-14.83 48.793-21.69 68.035-22.28 11.412 2.47 39.868-1.44 50.618 1.65-32.117.3-99.984-4.35-120.357 27.08z"/><path fill="#030303" d="M1334.8 1634.26c-5.09-2.54-8.57-3.61-11.92-8.27l.2-1.96c2.53-1.95 8.57-3.79 9.11-4.46 9.92-12.24 17.43-19.7 27.94-.58 3.97 1.88 5.26-.24 8.9 2.86 1.24 3.1 1.32 2.88.54 6.1-6.52 7.86-7.39-.81-10.78 12.96-4.05 16.46 5.09 22.69 5.58 39.78.38 13.25-5.73 27.34-4.98 39.07.32.19.65.39.98.58-2.52 3.5-1.04 6.67-.46 11.21 2.1 2.23.74 7.52 5.84 4.36 16.01-9.8 39.09 27 47.43 6.39-1.89-5.21-7.74-3.47-10.51-7.65 1.47-9.74 13.68-8.8 16.71 1.56 5.11 17.53-14.17 22.67-27.08 16.63-6.15-2.87-15.93-10.88-21.69-5.59l.22 4.56c-4.6 5.09-9.78 1.1-13.04 6.35l-1.51 1.33c-1.67-.47-2.59-.74-4.27-1l-1-.56-2.94-1.94c-1.01.11-2.03.07-3.03-.13-.75 1.19-3.37.07-4.65-.38-3.83-1.33-4.28-5.53-6.16-8.58l-3.19.39c-.87 1.89-.68 1.71-.2 3.93-2.16 2.88-1.21 1.96-5.67 2.89-.17-5.06.33-6.43-4.1-9.17-5.73-.22-14.88 6.71-21.93 8.91-38.9 12.07-26.85-39.14-8.63-23.68 4.8 12.87-4.69 5-9.28 8.91-3.72 23.33 28.33-.66 34.91-4.21 4.66-2.52 8.03-1.49 12.78.01 2.23-8.09 3.26-11.8 6.89-19.28-2.36-10.12-4.04-20.25-5.83-30.48-.21-5.37-.12-7.99.94-13.17.58-6.11 4.41-15.94 6.23-22.78l-1.26-2.16c-1.42-3.45-1.35-8.98-1.09-12.75"/><path fill="#030303" d="m1334.23 1746.9-.03-1.89-.03-1.26c-.11-6.77 4.89-10.82 11.35-10.79 14.11.06 20.25 18.22 5.49 24.97l-2.94-1.94c-1.01.11-2.03.07-3.03-.13-.75 1.19-3.37.07-4.65-.38-3.83-1.33-4.28-5.53-6.16-8.58"/><path fill="#5c6973" d="m1334.23 1746.9-.03-1.89-.03-1.26c-.11-6.77 4.89-10.82 11.35-10.79 14.11.06 20.25 18.22 5.49 24.97l-2.94-1.94c5.21-.56 9.11-5.04 8.95-10.29-.17-5.24-4.35-9.47-9.59-9.7a10.03 10.03 0 0 0-10.4 8.82c-.62 5.21 2.87 10.02 8.01 11.04-.75 1.19-3.37.07-4.65-.38-3.83-1.33-4.28-5.53-6.16-8.58"/><path fill="#5a656e" d="M1359.39 1719.76c.32.19.65.39.98.58-2.52 3.5-1.04 6.67-.46 11.21-12.81-4.72-14.37-3.47-27.86-1.81 2.15-3.62 4.28-7.25 6.39-10.9 6.2.2 15.37.91 20.95.92"/><path fill="#232427" d="M1330.92 1671.95c.01.05-.16 9.21 1.47 7.95 4.48-3.46 3.25 8.01 11.14 5.38 1.08-.36.72-.91 2.07-1.21 1.1 1.07.14 2.99 1.8 3.83 3.57 1.81 10.33 1.99 13.54 4.35l.16 1 .44-.17c-.52 1.78-14.83-3.1-17.04-3.91l-1.91-.7c-5.86-2.2-7.38-1.77-12.61-3.35-.21-5.37-.12-7.99.94-13.17"/><path fill="#5a656e" d="M1335.89 1647.01c8.33-4.91 9.31-2.63 19.3-1.89l-2.81 1.22c-2.21.97-2.73 1.62-4.37 3.26-2.72-.46-7.98-.54-10.86-.43z"/><path fill="#5a656e" d="M1355.19 1645.12c-.15 7.12-1.12 5.88-7.18 4.48 1.64-1.64 2.16-2.29 4.37-3.26z"/><path fill="#3f484f" d="M1339.07 1640.48c-.41-1.52-1.75-3.68-1.39-4.98 1.43-1 18.26-.96 19.63-.16.42 1.16.41.76.05 1.92-2.82 1.87-5.24-.47-2.55 3.71-.49 1.82-14.95 2.27-15.74-.49"/><path fill="#7e848d" d="M1339.07 1640.48c4.01-.58 11.88-.91 15.74.49-.49 1.82-14.95 2.27-15.74-.49"/><path fill="#232427" d="M1338.22 1669.79c3.76-1.35 19.3 3.92 23.3 6.19-3.7-.13-21.98-4.08-23.3-6.19"/><path fill="#3f484f" d="M1333.12 1733.77c.23-.07.45-.14.67-.22.08.18.16.35.23.52l-.51.06c-.27-.13-.14-.03-.39-.36"/><path fill="#030303" d="M694.982 1647.19c8.513-1.68 14.348-2.66 22.69 1.29-.303.79-.094.3-.708 1.41 7.215 23.91 11.124 38.68 1.39 63.31.563 4.41.481 4.47 2.075 8.59 2.081 4.08 3.651 9.93 5.689 12.34 2.149 0 10.789-.11 12.318.52 10.392 4.24 24.63 24.64 34.756 7.31l-.329-2.12c-5.453-2.49-5.59.64-9.948-2.5-1.221-3.29-1.066-1.58-.004-5.3 1.44-1.4 3.855-3.78 6.102-3.43 21.908 3.4 9.742 30.11-9.388 27.07-9.656-1.54-19.944-11.9-26.915-10.23-6.209 8.47-4.912 8.58-14.845 10.76.011 1.86.168 2.02-.638 3.54-3.487-1.31-5.704 1.04-8.993 2.76-.819-.01-1.241-.23-2.149-.48-5.279-1.87-9.031-4.71-11.09.42l-.993-2.07c-.616-3.66.131-2.09-2.324-4.87-12.367-3.1-3.851-4.04-7.836-9.51-10.511-3.71-28.89 17.48-43.754 6.77-15.548-11.21-.854-35.79 12.048-19.28.315 6.94-8.902 2.98-12.989 7.96.828 2.53 2.994 3.91 5.311 5.04 14.791 7.22 26.466-15.95 40.238-12.73 2.615.61 2.401.93 4.969.35l1.069-5.16c.181-1.04.352-2.08.512-3.13 1.195-4.27 2.044-5.73 4.067-9.75-2.098-10.25-4.526-20.97-5.781-31.31-.218-3.08.038-6.03.214-9.12.769-8.52 2.689-14.34 5.783-22.13-.296-2.42-.476-3.89-.547-6.32"/><path fill="#5a656e" d="M720.429 1721.79c-1.048 1.39-1.768 2.54-3.9 2.27-5.185-.66-11.96 1.37-16.738-.86-.747-.35-2.508-2.41-1.334-3.55 5.091-2.1 12.943-.33 18.959-1.69.29-.61.785-3.91.938-4.76.563 4.41.481 4.47 2.075 8.59"/><path fill="#5c6973" d="M694.991 1725.45c-.012.03.383-1.21.636-1.09 6.621 3.33 13.749.33 21.401 2.5 2.546.73 6.319 1.85 4.294 5.49 1.041-.26-14.838-6.63-17.823-4.19-.58.47-8.6 1.44-10.524 1.23z"/><path fill="#5a656e" d="M694.982 1647.19c8.513-1.68 14.348-2.66 22.69 1.29-.303.79-.094.3-.708 1.41-5.728.24-13.451-.19-19.102-.73.205.02-1.42-1.36-1.429-1.36-.166.34-.695 4.7-.904 5.71-.296-2.42-.476-3.89-.547-6.32"/><path fill="#232427" d="M689.746 1675.64c1.762.81 10.959 4.76 9.919 7.11-2.381.33-3.693-1.47-.675 3.01-2.321 1.23-5.307-2.19-9.458-1-.218-3.08.038-6.03.214-9.12"/><path fill="#0d0e0f" d="m691.246 1725.82 3.745-.37-2.016 3.94-2.241-.44c.181-1.04.352-2.08.512-3.13"/><path fill="#5a656e" d="M699.913 1733.81a13.15 13.15 0 0 1 13.229.27 13.15 13.15 0 0 1 6.295 11.64 13.16 13.16 0 0 1-7.015 11.22c-6.373 3.35-14.26.95-17.686-5.38-3.427-6.34-1.119-14.25 5.177-17.75"/><path fill="#030303" d="M704.021 1736.7c5.1-1.16 10.21 1.88 11.634 6.91a9.84 9.84 0 0 1-16.195 9.86 9.835 9.835 0 0 1 4.561-16.77"/><path fill="#0d0e0f" d="M697.156 1697.95c1.682-.52 2.583-.22 3.581 1.19-1.987.69-2.452.61-3.581-1.19"/><path fill="#3f484f" d="M724.648 1746.24c.36-.02.724-.11.984.05.002.42-.263.7-.497 1.11-.735.23-1.304.51-1.703.38.132-.52.973-1.27 1.216-1.54"/><path fill="#030303" d="M223.215 1651.16c2.363-3.79 15.72-2.14 20.41-1.74 8.073 37.77 10.367 27.07 1.415 67.8 2.761 6.25 4.549 10.86 6.786 17.32 3.32.21 12.383-.08 14.636.96 11.241 5.23 17.229 18.43 31.473 10.24 1.898-1.09 2.463-3.75 2.655-5.79l-1.231-2.29c-5.235-1.44-4.803 2.81-9.571.55-.688-4.45-.927-2.36.659-6.5 9.814-9.08 20.472 2.42 17.328 11.81-3.809 11.39-17.731 13.59-27.588 9.72-8.095-3.18-15.745-9.91-23.113-7.35l-1.097 1.09c.907 2.44 1.126 2.72 1.094 5.22-3.642 2.58-4.783 2.91-9.104 4.21l-1.42 1.94c.546 2.44.638 3.02 1.614 5.3l-1.03 1.34c-2.831-5.92-5.167-8.36-12.385-3.82l-1.794-.7c-5.076-.92-7.202-3.11-10.067.86l-1.085-2c-1.358-4.61-7.246-3.16-10.848-7.85-.352-2.91-.332-3.18-1.311-5.91-8.384-5.23-22.886 15.07-37.067 9.65-7.96-3.04-15.174-9.28-11.969-18.93a12.9 12.9 0 0 1 7.355-7.79c3.394-1.39 5.057-1 8.174.29 2.607 2.72 2.418 2.52 2.966 6.28-3.591 4.58-7.531.27-12.111 4.54.101 3.22 2 8.22 5.407 8.96 12.091 2.61 23.032-11.27 33.562-15.39 5.198-2.03 5.857-.55 10.054 1.24l2.3-3.63c.977-5.4.458-9.62 4.799-13.34-.009-3.47-2.154-10.35-3.063-14-3.23-12.98-3.513-19.02-2.711-32.07.324-1.05.653-2.1.988-3.14 1.397-5.48 3.309-11.58 4.89-17.08"/><path fill="#0d0e0f" d="M223.111 1717.45c1.987.16 2.081.02 3.66.96 7.114 1.04 12.22.16 18.482 1.81-.151 1.47-.174 2.33-.195 3.81-17.021 2.68-20.425-5.35-24.431 7.33l-2.315-.57c.977-5.4.458-9.62 4.799-13.34"/><path fill="#5c6973" d="M226.771 1718.41c7.114 1.04 12.22.16 18.482 1.81-6.18 4.22-31.49 1.81-18.482-1.81"/><path fill="#5a656e" d="M220.627 1731.36c4.006-12.68 7.41-4.65 24.431-7.33-.038.99.161 3.76-.729 4.54-1.506.29-15.847-1.1-18.607-1.31-1.674 1.91-2.615 4.24-5.095 4.1"/><path fill="#232427" d="M218.325 1668.24c1.738 2.51 1.941 1.96 5.177 1.74-.311.02 30.86 4.49 23.471 6.51-4.715 1.3-18.606-6.16-24.45-4.75-1.164.09-3.76-.29-5.186-.36.324-1.05.653-2.1.988-3.14"/><path fill="#3f484f" d="M257.071 1752.2c-.353-.61-1.349-2.87-2.027-2.48-3.791 2.17-7.489-3.68-5.684-6.36 2.222 3.35 2.744 3.32 6.617 3.62.907 2.44 1.126 2.72 1.094 5.22"/><path fill="#5a656e" d="M232.275 1731.03c17.025.49 18.064 23.35 5.094 26.6l-1.914.53c-5.788-.82-10.781-.32-12.887-6.53-3.579-10.54.146-16.69 9.707-20.6"/><path fill="#030303" d="M231.108 1733.56c13.628-.15 18.202 13.6 6.987 21.83-14.169.08-17.441-11.96-8.295-20.55z"/><path fill="#232427" d="M242.243 1692.74c-5.918-2.28-12.029-4.26-17.476-7.58-.085-.4-3.897-1.36-3.332-2.4.897-1.65 7.129 2.1 7.266 2.17 4.877 3.24 18.453 6.56 19.602 8.47l-.245.58c-1.634.73-4.073-.67-5.815-1.24m-22.792 4.5c4.38-.8 22.114 2.04 23.083 4.17-5.734.82-17.702-1.59-23.083-4.17"/><path fill="#232427" d="M228.701 1684.93c-.331-.96-1.503-3.33-1.416-4.23.454-.55.724-.37 1.686-.49 1.82 2.03.988 2.43-.27 4.72"/><path fill="#030303" d="M1803.51 1632.46c-4.16-1.08-10.85-3.22-11.33-8.03 2.9-3.17 8.66-4.48 11.78-6.19 1.98-2.16 5.35-8 7.76-9.36 9.99-5.65 13.48 6.11 17.7 10.12 3.69.41 6.32.21 9.03 2.58 1.42 3.79 1.23 1.89.57 5.9-2.53 3.38-6.7 4.5-10.35 7-.26 2.56-1.84 13.38-1.57 14.91 2.25 11.78 6.73 20.8 7.24 33.09.54 13.05-5.31 23.83-5.5 36.3 3.86 6.56 3.61 4.97 5.26 12.63l-.82.28c-3.57-.34-5.04-2.38-8.35-3.34-6.94-2.02-14.03.67-20.91 1.09-.84-.68-1.12-.87-2.05-1.41l.07-.51c.41-2.85.31-3.16 1.6-5.65 3.59-8.52-5.1-25.67-4.13-39.11 1.09-14.98 2.25-19.44 7.73-33.66-2.55-5.45-2.87-10.65-3.73-16.64"/><path fill="#232427" d="M1803.64 1721.87c1.5-.1 9.02-.2 9.69-.39-1.25-.54-4.11-1.36-4.87-2.22l.29-.77c2.91-1.42 16.46-.15 20.09.29 3.86 6.56 3.61 4.97 5.26 12.63l-.82.28c-3.57-.34-5.04-2.38-8.35-3.34-6.94-2.02-14.03.67-20.91 1.09-.84-.68-1.12-.87-2.05-1.41l.07-.51c.41-2.85.31-3.16 1.6-5.65"/><path fill="#5c6973" d="M1804.02 1729.44c1.19-2.62 1.7-3.68 4.93-3.32 10 1.11 17.55-3.14 24.33 5.57-3.57-.34-5.04-2.38-8.35-3.34-6.94-2.02-14.03.67-20.91 1.09"/><path fill="#232427" d="M1803.79 1684.01c5.4.5 23.74 6.8 26.39 11.83-3.16-.74-23.62-9.86-26.39-11.83"/><path fill="#7e848d" d="M1805.06 1635.46c5.18-.42 18.36-1.97 21.56 2-5.67.62-17.67 2.37-21.56-2m13.77 9.94c9.62-.9 7.78 3.37-.58 3.26-14.19.5-11.38-2.27.58-3.26"/><path fill="#232427" d="M1806.42 1668.82c1.61-.61 21.23 6.26 22.46 8.29-2.61.57-21.44-5.8-22.46-8.29"/><path fill="#7e848d" d="M1808.64 1640.44c1.78-.02 17.7-1.4 17.52.64-.35.46-.58.45-1.21.7-1.05.16-21.81 3.86-16.31-1.34"/><path fill="#232427" d="m1808.36 1679.23 1-.03c-.09.38-.01.14-.34.77-.35-.01-.71-.03-1.06-.04.06-.35-.02-.13.4-.7"/><path fill="#3f484f" d="M165.759 1829.27c-7.387-3.55-14.012-2.41-20.138-9.91-12.781-15.13-5.116-41.19 15.382-44.09 9.124-1.28 20.165-.87 29.444-1 7.241-.1 16.765-.65 23.819.34.689 1.01 1.378 2.01 2.068 3.02.007 1.09-.117 1.25-.42 2.34.001 13.01-.207 21.53 1.742 34.55l-2.003-.3c-5.958 1.23-21.165-.04-24.177.98-6.422 2.19-19.767 10.37-25.717 14.07"/><path fill="#232427" d="M215.653 1814.22c-1.663-6.2-2.962-28.6.261-34.25.001 13.01-.207 21.53 1.742 34.55z"/><path fill="#030303" d="M1567.1 1633.52c-3.9-1.72-11.43-4.67-10.99-9.57 5.16-4.52 11.82-2.99 15.69-12.82.83-2.08 4.79-2.84 7.07-2.96 7.33-.37 9.42 5.32 14.14 9.85 4.06.94 4.84 1.05 8.51 2.86 2.18 3.54 1.6 1.61 1.33 6.13-2.21 4.23-6.27 3.42-9.23 6.26-3.94 3.78-1.01 8.63-3.12 13.88-.16.97-.52 1.88-.84 2.82l.23 1.19c2.76 13.68 8.92 26.27 6.74 40.87-1.47 9.89-8.5 22.91-2.63 31.97l-4.84-1.63c-6.92-.6-15.77.63-20.33-2.53l-.97-1.16c1.33-6.97-1.69-13.36-3.5-20.66-.07-.86-.13-1.71-.2-2.57-4.67-15.07.9-30.83 5.77-44.9l-.4-1.54c-1.91-7.11-1.98-8.17-2.43-15.49"/><path fill="#232427" d="M1564.16 1695.45c4.57.71 11.38 3.23 15.41 2.99.9-.06.14-2.81 2.7-2.17l.36.63c-2.46 4.25-2.94-.57 1.71 6.79-1.02-1.61-16.81-5.49-19.98-5.67-.07-.86-.13-1.71-.2-2.57"/><path fill="#5a656e" d="M1589.66 1649.97c-1.39-.72-17.63-.91-18.25-2.38.45-3.02 16.45-.74 19.09-.44-.16.97-.52 1.88-.84 2.82"/><path fill="#7e848d" d="M1568.83 1719.84c1.3-1.11 3.11-1.62 4.65-.64 3.87 2.47 16.91-2.51 15.68 3.17-6.92-.6-15.77.63-20.33-2.53"/><path fill="#232427" d="M1569.69 1680.51c4.68-1.28-1.18 3.99 2.85 4.29 4.93.42 9.14 3.22 13.46 5.34.63.3 8.27 2.96 7.07 4.54-.52.2-.72.07-1.33-.06-.89-.31-1.78-.62-2.68-.92-.18-.06-27.26-10.5-24.98-8.42 1.21-1.8 4.65-.33 5.3-3.28z"/><path fill="#7e848d" d="M1568.84 1640.35c7.95-.18 16.79-1.99 21.72 2.2-6.24.91-17.63 3-21.72-2.2m.1-4.94c5.02-.33 18.93-1.82 21.62 1.8-5.37 1.04-17.62 2.49-21.62-1.8"/><path fill="#232427" d="M1567.54 1668.74c1.46-.41 24.41 4.98 25.17 6.45-3.35 1.29-13.66-2.13-17.27-3.19l-6.52-1.92c-.92-.29-1.03-.36-1.38-1.34"/><path fill="#5c6973" d="M999.222 1139.26c7.628.37 45.608 1.52 50.748-.96 12.14 4.44 12.39 8.42 3.25 17.4-.59 1.02-1.09 1.78-1.73 2.76 1.53 1.15 2.92 2.08 4.5 3.12.84.39.89.6 1.55 1.29 1.2.55 1.18.56 2.26 1.35 2.54 1.56 3.89 2.46 6.27 4.32.7.44.53.3 1.14.92l3.24 3.34c.56.55.51.42.82 1.04.81 1.08 4.15 4.75 3.72 6.03-4.24 1.28-92.351.54-99.77-.1 4.007-7.11 4.54-8.55 10.696-13.73.966-1.21 1.03-1.08 2.571-1.88l1.158-.81a350 350 0 0 1 3.537-4.13l-.357-2.69c-1.374-6.41-15.066-13.68 6.397-17.27"/><path fill="#030303" d="M999.222 1139.26c7.628.37 45.608 1.52 50.748-.96 12.14 4.44 12.39 8.42 3.25 17.4-.59 1.02-1.09 1.78-1.73 2.76-16.69-2.74-36.09-.46-53.055-1.87-2.618-.22-2.703.18-4.271 2.35l-.982.28-.357-2.69c-1.374-6.41-15.066-13.68 6.397-17.27"/><path fill="#5a656e" d="M989.719 1144.75c2.633-2.13 2.682-2.61 6.021-2.57 7.41-.12 57.71-.73 59.55.89.85.74 1.16 1.83 1.11 2.93-.03.86-.29 1.89-1.02 2.42-1.49 1.08-8.02.1-10.13.06-6.82-.13-51.347 1.1-53.592.4-.651-.2-1.042-1-1.25-1.58-.133-.37-.417-1.55-.488-1.82-.064-.24-.134-.48-.201-.73"/><path fill="#3f484f" d="M989.719 1144.75c2.633-2.13 2.682-2.61 6.021-2.57-1.795 1.06-4.053 1.8-6.021 2.57"/><path fill="#5a656e" d="m993.182 1159.22.982-.28c-1.773 2.9-1.589 2.63-4.519 4.41a350 350 0 0 1 3.537-4.13"/><path fill="#5c6973" d="M1064.33 1000.43c6.34.51 13.09 2.05 18.73 5.03.82.35.37.13 1.32.67l3.78 2.49c1.41.58 1.19.54 2.35 1.79l2.52 2.07c.73.41.56.29 1.2.91l4.32 3.76c1.85 1.43 3.09 2.19 4.48 4.07 3.83 3.69 8.37 7.8 11.8 11.78 1.13.8 1.02.68 1.67 1.87l3.26 4.08c.61.56.26.21 1 1.13 16.71 31.6-7.5 59.06-34.71 72.81-5.61 2.84-15.7 6.73-21.86 7.05 4.21-2.97 8.16-6.3 11.81-9.94a66.1 66.1 0 0 0 19.14-47.54c-.24-25.3-13.58-44.86-30.81-62.03"/><path fill="#3f484f" d="M1098.55 1017.15c1.85 1.43 3.09 2.19 4.48 4.07-1.57-.63-2.24-1.33-3.27-2.62z"/><path fill="#5c6973" d="m982.83 1000.96-.832.98c-4.766 5.52-11.762 10.45-16.778 16.13-28.048 31.79-19.055 71.43 10.889 97.68q3.101 2.7 6.298 5.28c-8.341-.21-15.005-3.23-22.377-6.58-1.754-.48-1.929-.43-3.091-1.67-5.936-3.17-9.828-5.93-14.965-10.19-2.416-3.65-4.563-5.78-8.196-8.4-5.027-5.01-10.563-14.96-11.595-21.8-5.782-38.32 27.934-64.18 60.647-71.43"/><path fill="#3f484f" d="M956.939 1112.78c1.583.27 2.277.25 3.091 1.67-1.754-.48-1.929-.43-3.091-1.67"/><path fill="#030303" d="M1804.02 1729.44c6.88-.42 13.97-3.11 20.91-1.09 3.31.96 4.78 3 8.35 3.34l.82-.28 7.69 1.72c13.53 3 31.02 26.1 41.86 9.01l.19-1.97c-3.23-2.19-6.27-1.84-10.57-1.82-1.86-4.19-1.72-2.15-.93-6.3 7.98-8.97 20.36-.63 18.05 8.44-5.02 19.72-22.27 16.79-36.57 9.38-4.29-2.22-9.98-5.5-13.9-3.61l-.29 1.73c-.39 2.19-.53 2.54-1.5 4.62-3.2 1.98-5.25 3.27-8.63 4.86l-.38 1.93-.89 1.9c-4.22-3.42-4.95-.95-10.59.29l-2.13-.59c-5.6-.02-4.99-1.87-9.41-1.7l-1.25-.9c-2.49-4.43-5.71-1.39-9.96-6.5-.34-3-.19-3.84-1.64-6.48-8.11-2.02-18.77 8.31-28.92 9.73-20.16 2.8-31.66-22.84-8.92-27 2.16-.4 3.83 1.72 5.08 3.11.9 3.23 1 3.02.18 6.24-2.69 1.62-5.14.5-9.06.08l-1.23 1.29c-.08 22.13 28.58-.34 36.58-4.59 3.51-1.87 10.13 1.63 12.69.17l-1.79-2.46c1.45-1.34 2.71-2.57 4.11-3.96.93.54 1.21.73 2.05 1.41"/><path fill="#5a656e" d="M1816.15 1729.99c18.62 1.56 18.98 33.12-5.83 26.66-5.41-5.26-3.49-5.8-5.7-8.36l-.16-.01c-.83 2.46-1.16 6.87-5.56 1.18-2.06-2.67 6.2-4.39 6.43-9.42.17-3.98 7.34-8.48 10.82-10.05"/><path fill="#030303" d="M1815.83 1735.84c5.5-.73 10.55 3.14 11.28 8.64s-3.14 10.55-8.64 11.28-10.55-3.14-11.28-8.64 3.14-10.55 8.64-11.28"/><path fill="#5c6973" d="M1051.49 1158.46c.64-.98 1.14-1.74 1.73-2.76l.77.69c12.81 11.27 13.27 7.49 25.38 23.21 8.43-.37 20.05-1.87 21.96 9.05-3.02 9.65-13.62 8.7-21.59 7.98l-4.75-1.77c-32.67-.4-66.71.87-99.115-.12l-.24 1.66c-8.768 1.07-21.935 2.76-25.616-7.56 1.423-11.78 14.301-10.03 23.134-9.85 7.459-13.78 9.467-11.46 19.034-21.76l.638-.7.357 2.69a350 350 0 0 0-3.537 4.13l-1.158.81c-1.541.8-1.605.67-2.571 1.88-6.156 5.18-6.689 6.62-10.696 13.73 7.419.64 95.53 1.38 99.77.1.43-1.28-2.91-4.95-3.72-6.03-.31-.62-.26-.49-.82-1.04l-3.24-3.34c-.61-.62-.44-.48-1.14-.92-2.38-1.86-3.73-2.76-6.27-4.32-1.08-.79-1.06-.8-2.26-1.35-.66-.69-.71-.9-1.55-1.29-1.58-1.04-2.97-1.97-4.5-3.12"/><path fill="#232427" d="M1051.49 1158.46c.64-.98 1.14-1.74 1.73-2.76l.77.69c12.81 11.27 13.27 7.49 25.38 23.21 8.43-.37 20.05-1.87 21.96 9.05-3.02 9.65-13.62 8.7-21.59 7.98l-4.75-1.77 8.21-.57c3.38-.32 7.21.04 10.64.26 3.85-3.5 5.27-5.15 3.26-10.01-3.1-2.11-3.6-2.43-7.58-2.37-42.51.65-84.92.16-127.392-.32-3.696-.04-7.266 1.27-9.624 4.19-.485 4.02-.69 2.04 1.149 6.07 1.184.85 1.94 1.25 3.255 2 4.86.19 14.667.18 18.967.63l-.24 1.66c-8.768 1.07-21.935 2.76-25.616-7.56 1.423-11.78 14.301-10.03 23.134-9.85 7.459-13.78 9.467-11.46 19.034-21.76l.638-.7.357 2.69a350 350 0 0 0-3.537 4.13l-1.158.81c-1.541.8-1.605.67-2.571 1.88-6.156 5.18-6.689 6.62-10.696 13.73 7.419.64 95.53 1.38 99.77.1.43-1.28-2.91-4.95-3.72-6.03-.31-.62-.26-.49-.82-1.04l-3.24-3.34c-.61-.62-.44-.48-1.14-.92-2.38-1.86-3.73-2.76-6.27-4.32-1.08-.79-1.06-.8-2.26-1.35-.66-.69-.71-.9-1.55-1.29-1.58-1.04-2.97-1.97-4.5-3.12"/><path fill="#5a656e" d="M1083.2 1194.29c3.38-.32 7.21.04 10.64.26-2.99.37-7.87.96-10.64-.26"/><path fill="#5c6973" d="M945.709 1305.8c5.483 4.7 19.876 49.04 23.735 58.77l-31.632.39c-2.424-3.61-4.357-6.7-6.418-10.54-9.216-17.2-19.356-32.29-30.269-48.43 12.653.02 32.435.77 44.584-.19m158.511.1c13.49.9 32.15.21 46.21.14-18.19 23.88-24.16 33.09-38.6 59.32-10.16.21-20.58-.04-30.76-.12 2.68-8.4 18.73-54.78 23.15-59.34"/><path fill="#030303" d="M462.331 1648.93c4.684 1.54 12.648 1.34 17.379.46l.623.75c10.548 22.34 9.816 42.91 1.758 65.95l-.227 1.84c-1.74.78-3.47 1.59-5.192 2.41-1.411.83-14.457 2.13-16.395 1.48l-2.639-.75c4.151-6.78.335-12.82-1.517-21.08-4.515-20.12-2.005-28.32 3.985-47.48l1.048-3.44z"/><path fill="#5a656e" d="M460.277 1721.82c2.215-3.75 12.258-2.06 16.395-1.48-1.411.83-14.457 2.13-16.395 1.48"/><path fill="#232427" d="M454.897 1681.17c4.449.96 27.025 9.41 28.269 13.21l.483 1.41-1.555-.86c-5.79-3.34-25.899-10.81-27.197-13.76m1.672-10.65c7.846-1.29 17.769.12 24.454 4.56l1.568 1c-.547-.04-26.029-5.56-26.022-5.56"/><path fill="#0d0e0f" d="M1064.11 981.19c1.21-.062.7-.083 1.53-.015 1.06 3.371 7.11 14.39 7.92 18.02.11.527 12.63 5.275 14.02 6.235 5.34 3.28 10.09 7.57 14.86 11.61 16.53 14.03 31.13 31.83 24.86 55.12-6.73 24.98-39.61 48.41-64.65 50.26l1.54-2.48c6.16-.32 16.25-4.21 21.86-7.05 27.21-13.75 51.42-41.21 34.71-72.81-.74-.92-.39-.57-1-1.13l-3.26-4.08c-.65-1.19-.54-1.07-1.67-1.87-3.43-3.98-7.97-8.09-11.8-11.78-1.39-1.88-2.63-2.64-4.48-4.07l-4.32-3.76c-.64-.62-.47-.5-1.2-.91l-2.52-2.07c-1.16-1.25-.94-1.21-2.35-1.79l-3.78-2.49c-.95-.54-.5-.32-1.32-.67-5.64-2.98-12.39-4.52-18.73-5.03l-.35-.45c-2.76-.978-1.36-.94-4.33.22-5.18.92-13.62.66-19.13.66l-.48-2.066c-16.96-.379-39.28 1.336-56.424-1.059-.828-.116-1.634-2.242-1.894-2.911l-.741-1.793-1.425-.359c1.866-4.791 2.301-4.972 6.083-8.683 1.463.89 1.673.518 3.183-.152 1.297-2.414.66-2.228 3.202-2.337 23.736-1.014 48.476.834 72.086-.31"/><path fill="#5c6973" d="M980.981 993.031c.884-.888 3.719-4.193 5.016-4.226 25.963-.647 52.063-.164 78.033-.268 4.57-.018 6.46 8.898 4.25 9.223-7.62 1.126-20.24.305-28.24 1.034-16.96-.379-39.28 1.336-56.424-1.059-.828-.116-1.634-2.242-1.894-2.911z"/><path fill="#5a656e" d="M1064.11 981.19c-.09 1.54-.11 3.932-2.1 3.736-11.34-1.121-66.594 2.505-73.188-1.089 1.297-2.414.66-2.228 3.202-2.337 23.736-1.014 48.476.834 72.086-.31"/><path fill="#030303" d="M69.097 1916.81c1.615 6.71 2.014 2.84 2.298 10.72-3.186 36.27-5.75 86.64 7.797 120.47h-36.2c9.626-42.56 17.76-88.17 26.105-131.19m1892.963-47.26c2.84 1.08 6.03 1.48 6.52 3.98 3.45 17.55 6.88 36.06 10.19 53.54l23.21 120.93h-26.7c7.33-42.71 1.68-125.74-8-169.01-1.19-5.33-2.29-5.38-6.23-7.67z"/><path fill="#5c6973" d="M969.989 1367.03c3.293 8.18 11.752 42.24 13.328 51.47-7.566-.02-14.13.42-21.599.53-7.709-18.62-14.057-33.41-22.867-51.55 10.434-.41 20.73-.19 31.138-.45m109.581.79 30.55.11c-8.74 17.72-14.12 32.39-21.88 49.62-7.56.53-15.42.49-23 .38 4.66-13.49 11.02-36.09 14.33-50.11"/><path fill="#030303" d="M222.814 1647.17c-2.047-6.08-.687-9.51-3.092-14.49-.502-1.04-7.456-2.3-8.055-5.05-2.648-12.17 7.491-4.02 10.953-11.98 1.328-3 3.843-5.33 6.946-6.42 6.974-2.39 13.597.33 16.352 7.34 1.069 2.71-.187 3.1 4.079 2.79 5.628-.41 10.097 5.75 5.551 10.16-1.014.98-6.783 3.27-8.737 4.31l-.675.35c-.185 2.94-.331 5.89-.438 8.83-.093 2.07-.252 2.41-.855 4.37-.287.67-.826 1.43-1.218 2.04-4.69-.4-18.047-2.05-20.41 1.74-.202-1.56-.329-2.46-.401-3.99"/><path fill="#7e848d" d="M222.814 1647.17c8.524-1.48 13.641-1.71 22.029.21-.287.67-.826 1.43-1.218 2.04-4.69-.4-18.047-2.05-20.41 1.74-.202-1.56-.329-2.46-.401-3.99m11.576-6.76c2.212-.29 6.714-1.02 8.601.57-.253 2.52-4.41 1.56-6.741 1.8-11.414.62-18.996-.58-1.86-2.37m-11.384-5.03c4.533.3 18.464.1 21.428 1.42-5.464 1.68-17.25 3.43-21.428-1.42"/><path fill="#030303" d="M692.903 1633.76c-23.74-12.49.943-14.64.847-14.4 5.782-14.62 18.384-15.35 25.492-1.36.84 1.7 11.966.09 10.228 7.82-1.015 4.52-6.437 6.04-10.185 8.02-.263 5.95.481 9.4-1.613 14.64-8.342-3.95-14.177-2.97-22.69-1.29-.974-4.03-1.448-9.21-2.079-13.43"/><path fill="#5c6973" d="M697.27 1635.44c1.943-.22 17.894-.87 19.014-.53.52.94.65 3.12.797 4.12-5.194-.53-18.849.12-19.811-3.59"/><path fill="#7e848d" d="M695.221 1640.49c7.038-.93 14.088-1.31 20.593 2.01-1.931 1.52-17.234-.45-20.593-2.01"/><path fill="#5c6973" d="m1064.85 1420.12 23.04-.26c-5.18 15.08-10.54 34.98-13.43 50.63-5.24-.01-18.99 1.84-21.15-2.28.85-3.58 1.72-7.12 2.5-10.72l.97-4.5.97-4.5 1-4.5c1.61-7.31 3.69-16.88 6.1-23.87"/><path fill="#0d0e0f" d="M1162.93 1269.27c6.65 20.29.33 26.51-11.81 40.98-41.65 49.62-67.81 114.49-76.96 178.41-1.82 12.72-4.11 26.46-4.27 39.06-3.75-.09-2.37.64-4.87-1.19l.26-2.24c.77 1.7 1.14 1.13 1.14 1.13 2.67-17.15 4.76-35.63 7.76-52.91-6.72 0-14.59.21-21.16-.23l.14-.22c-.47-2.3-.48-1.48.15-3.85 2.16 4.12 15.91 2.27 21.15 2.28 2.89-15.65 8.25-35.55 13.43-50.63l-23.04.26.39-2.19c7.58.11 15.44.15 23-.38 7.76-17.23 13.14-31.9 21.88-49.62l-30.55-.11 1.5-2.58c10.18.08 20.6.33 30.76.12 14.44-26.23 20.41-35.44 38.6-59.32-14.06.07-32.72.76-46.21-.14l.06-1.86c13.55.18 34.05.36 47.94-.39 1.16-.06 3.7-2.45 4.64-3.3.65-.7.68-.73 1.2-1.54 6.15-8.75 5.94-17.96 3.25-27.98z"/><path fill="#5c6973" d="M962.328 1421.26c7.921-.57 13.865-.74 21.811-.69 2.991 16.65 7.681 33.77 9.859 50.49-5.843.14-11.687.15-17.53.02l-11.329-40.99c-.709-2.49-1.368-4.53-2.197-6.98z"/><path fill="#0d0e0f" d="M979.87 1514.19c-1.553-13.08-2.346-25.26-5.046-38.08-13.323-63.24-41.619-125.85-82.706-175.9-7.15-8.72-5.753-19.33-3.763-29.74l1.051 4.69c-.352 11.86-1.125 17.29 7.379 27.05l1.716 1.94c15.533.2 32.355.03 47.978-.07l-.77 1.72c-12.149.96-31.931.21-44.584.19 10.913 16.14 21.053 31.23 30.269 48.43 2.061 3.84 3.994 6.93 6.418 10.54l31.632-.39.545 2.46c-10.408.26-20.704.04-31.138.45 8.81 18.14 15.158 32.93 22.867 51.55 7.469-.11 14.033-.55 21.599-.53l.822 2.07c-7.946-.05-13.89.12-21.811.69l.614 1.85c.829 2.45 1.488 4.49 2.197 6.98l11.329 40.99c5.843.13 11.687.12 17.53-.02l.236 1.96c-5.737.14-11.476.22-17.215.23.429 2.89.755 5.34 1.267 8.24.482 2.83.944 5.67 1.387 8.5 1.311 8.2 1.528 15.05 2.604 22.94z"/><path fill="#030303" d="M457.59 1633.04c-4.377-1.7-12.991-3.32-10.472-10.04.487-1.3 1.613-2.4 2.914-2.89 2.235-.76 4.832-1.26 7.2-.9.049.03.821.03.859-.08 2.459-6.88 5.377-10.86 13.312-10.63 5.837.17 9.134 3.31 11.47 8.55.232.52.88 1.65 1.616 1.75 5.754-.12 10.571 1.42 9.506 8.24-.172 1.1-.994 2.18-1.989 2.77-4.538 2.32-5.453.94-9.253 4.77-1.062.64-2.056 1.31-3.094 1.99-5.249-1.09-13.824-1.6-18.911.27-2.005-1.6-1.874-1.55-3.158-3.8m1147.67 101.55c11.76-.72 18.65 13.06 30.73 13.31 3.73.08 10.38-1.11 9.98-6.92-.8-3.79-4.57-3.25-6.98-2.85-5.39.89-5.04-6.17-1.99-8.14 14.29-9.24 23.24 14.29 10.02 22.11-5.93 3.5-12.82 3.64-19.52 1.94-7.52-1.01-17.18-12.2-23.04-8.53-3.82 2.4 2.53 10.07-8.99 9.7-5.41-.17-3.06 4.01-2.49 7.33-1.72-1.1-2.39-2.59-3.43-4.33-1.1-.83-1.15-.97-2.43-1.42 1.23-1.44 2.45-2.77 3.44-4.39l2.15-.45c1.4-1.21 2.31-2.07 3.86-3.06 1.17-.48 1.06-.5 2.03-1.45l.33-1.55c-2.05-2.25-3.65-5.93-1.18-10.22.14-.24 6.07-.76 7.51-1.08"/><path fill="#5a656e" d="M1598.93 1745.89c3.74 1.04 1.36 3.49-.33 1.55z"/><path fill="#030303" d="M452.908 1754.86c-1.896-.79-6.336-1.93-5.743-4.83 2.858-13.96-13.865-.76-18.328 1.66-7.934 4.3-19.994 5.59-26.903-1.65-5.424-5.81-5.517-14.6-.125-19.26 10.295-8.91 19.576 7.63 8.963 7.74-1.026-2.25-7.026-.7-5.875 2.53 7.879 22.12 32.249-8.94 39.618-8.14 3.234.35 2.093-.67 5.724 2.23 5.606 1.65 4.086 17.53 2.669 19.72"/><path fill="#3f484f" d="M446.672 1740.12h.441c.027.13.054.27.081.41-.14.09-.28.19-.419.28-.149-.23-.078-.05-.103-.69"/><path fill="#030303" d="M1556.72 1745.05c-7.22-2-6.58-2.83-13.37 3.5-11.84 11.02-39.11 10.57-37.41-10.55.65-8.1 12.06-15.86 17.69-6.64 2.09 3.44 1.81 9.19-3.91 6.89-6.15-4.37-8 3.76-4.29 7.31 6.34 6.6 16.96 2 22.66-3.38 6.17-5.83 15.92-14.07 23.95-5.75-4 3.62-5.71 3.35-5.32 8.62m-1060.724-11.92 1.939.41c7.666 1.5 15.779 9.61 22.557 13.56 9.316 5.42 22.755-6.31 13.014-9.09-2.501-.72-7.279 4.01-6.79-2.97 1.584-14.08 20.227-5.11 17.611 6.97-3.691 17.05-25.278 15.35-36.619 7.32-6.329-4.77-7.169-5.24-15.304-3.78-3.227-1.59-3.489-6.9-1.328-8.86l3.573-2.29z"/><path fill="#0d0e0f" d="M994.507 1125.61c-15.372-1.49-25.153-3.38-39.059-10.81-29.466-15.74-47.763-46.51-28.746-78.61 12.624-21.31 29.941-30.9 53.431-37.009l2.697 1.779c-32.713 7.25-66.429 33.11-60.647 71.43 1.032 6.84 6.568 16.79 11.595 21.8 3.633 2.62 5.78 4.75 8.196 8.4 5.137 4.26 9.029 7.02 14.965 10.19 1.162 1.24 1.337 1.19 3.091 1.67 7.372 3.35 14.036 6.37 22.377 6.58l2.022-1.41c4.239 2.72 4.9 2.99 9.78 4.23z"/><path fill="#5a656e" d="M933.778 1094.19c3.633 2.62 5.78 4.75 8.196 8.4-3.724-2.87-5.758-4.4-8.196-8.4"/><path fill="#0d0e0f" d="M457.59 1633.04c1.284 2.25 1.153 2.2 3.158 3.8 5.087-1.87 13.662-1.36 18.911-.27 1.038-.68 2.032-1.35 3.094-1.99.321 2.27.496 4.1.666 6.39l-.14 1.09c-.391 3.72-.471 3.26-2.275 6.75l-.671 1.33-.623-.75c-4.731.88-12.695 1.08-17.379-.46l-1.177.14c-1.881-3.88-2.767-11.45-3.564-16.03"/><path fill="#5a656e" d="M462.331 1648.93c1.215-7.77 2.438-4.02 11.196-4.61 4.304-.29 5.932.99 6.183 5.07-4.731.88-12.695 1.08-17.379-.46"/><path fill="#7e848d" d="M460.748 1636.84c5.087-1.87 13.662-1.36 18.911-.27-3.892 2.48-10.657.78-17.053 2.21-.867-.27-1.33-1.23-1.858-1.94m22.531 5.22c-6.61-.12-14.144.23-20.526-.48-.878-.1.241-1.81 2.756-1.64 6.187.4 11.78-.65 17.91 1.03z"/><path fill="#232427" d="m1079.49 1224.81 11.01 1.26c23.1 2.5 47.17 8.6 61.48 28.39-1.68.78-1.52.86-3.2.87-1.83-12.62-38.82-26.1-50.79-26.3-5-.09-11.99-1.15-16.99-1.91zm280.88 495.53c3.39 4.85 5.6 9.44 5.38 15.57-5.1 3.16-3.74-2.13-5.84-4.36-.58-4.54-2.06-7.71.46-11.21m-390.119-157.88 1.684-.23c4.609 3.57 4.657 3.25 10.437 4.89l-.382 1.89c-6.162-1.09-7.732-1.79-11.739-6.55"/><metadata><recraft-signature>{&quot;signed_by&quot;: &quot;recraft&quot;, &quot;signature_b64&quot;: &quot;9DFnyhucFkT2YPrJie+Xzyq5HPjYeI2Oax/Aliamt/90zyo23gtouUB0Z7tOSHrLwQPI6qUr+gMDqe5JB1joAw==&quot;, &quot;signing_algo&quot;: &quot;Ed25519&quot;, &quot;generation_timestamp&quot;: 1777252153, &quot;identifier&quot;: &quot;b1e75b52-955f-4524-8fe6-998bc820f2a8&quot;}</recraft-signature></metadata></svg>