<svg xmlns="http://www.w3.org/2000/svg" width="1024" height="1024" preserveAspectRatio="none" style="display:block" viewBox="0 0 2048 2048"><defs><linearGradient id="b" x1="2038.77" x2="2037.85" y1="2043.9" y2="2041.62" gradientUnits="userSpaceOnUse"><stop class="stop0" offset="0" stop-color="#151616"/><stop class="stop1" offset="1" stop-color="#3f3f41"/></linearGradient><linearGradient id="a" x1="1663.11" x2="1663.89" y1="9.937" y2="7.063" gradientUnits="userSpaceOnUse"><stop class="stop0" offset="0" stop-color="#0a0506"/><stop class="stop1" offset="1" stop-color="#271f17"/></linearGradient></defs><path fill="#fdfdfe" d="m0 961.51 658.934.276c98.68.119 204.004-2.242 302.018.108-4.232 30.156-9.714 58.056-23.101 85.806-18.791 38.96-40.243 57.1-44.043 102.55-5.724 68.45 50.387 91.03 55.371 157.97 3.875 37.91-9.679 78.4-33.017 108.22-18.556 23.71-36.884 41.74-43.047 72.77-9.677 48.72 25.819 75.41 41.969 116.06 36.795 92.62-25.457 180.93-98.347 233.51-50.08 35.52-100.299 64.32-123.534 126.09-28.392-.45-56.787-.62-85.183-.52-7.666-.02-35.299.4-41.345-.9q-1.853-.075-3.707-.12c-1.242.41-1.916.47-3.246.69l-.398-4.2c-2.157 2-3.605 3.25-5.934 5.05l1.522 2.21H0z"/><path fill="#232324" d="M36.22 1857.75c-7.168-15.85-25.35-87.44 17.508-64.81 6.04 3.19 19.861 14.88 26.43 19.42 1.929 9.84 4.635 19.67 7.162 29.4 1.154-8.39 1.553-14.97 1.986-23.45a262.6 262.6 0 0 0 46.551 22.4c5.385 7.23 13.474 20.92 18.546 29.02l2.303-2.61c-2.104-6.29-5.317-15.07-6.866-21.29 17.975 5.24 29.4 7.65 48.256 10.28 5.546 10.59 13.349 20.76 19.637 32.87-1.981-9.88-4.699-21.42-8.238-30.89 30.617 8.02 62.198 28.48 75.639 58.05 12.174-.46 44.057-3.12 53.663.68l.316 2.63c-11.703 5.27-40.079 5.93-53.607 6.73-14.758 20.59-29.147 28.85-52.012 38.36 18.207.57 36.956.52 55.199.38 65.33-.5 130.972.94 196.277-.07 3.101-.46 12.269.19 12.745-2.48-5.356-1.39-17.573-3.61-20.652-7.89l.501-1.87 4.216-2.41-.827 2.83c2.045 3.42 11.407 5.93 15.53 6.87 16.292 3.73 38.473 7.68 53.722-1.2 3.038-1.77 7.346-4.3 8.993-7.31 1.643-.79 1.946-.96 2.947-2.42l10.549-7.82c-5.565 14.2-8.811 14.38-12.972 22.87l-.398-4.2c-2.157 2-3.605 3.25-5.934 5.05l1.522 2.21H0v-2.59c45.844.43 91.69.45 137.534.07 5.817-.08 31.292.06 35.577-1.21l-1.697-.51c-8.62-2.26-14.53-2.39-23.254-6.48l-.497-1.54c5.846-4.87 13.983-7.73 20.741-12.93l-2.209-2.58c-37.73 13.97-42.717 8.24-74.54-14.05 5.284-1.01 7.657-1.56 12.725-3.32l.958-2.94c-9.956.2-14.487-.91-24.302-2.77-14.111-11.2-32.408-32.59-40.036-49q1.89.015 3.78 0c3.5-.02 9.866.22 12.122-2.06-3.422-2.17-15.77-5.7-20.682-7.42"/><path fill="#4d6172" d="M37.217 1854.91a163 163 0 0 1-4.667-13.63c-3.548-12.4-6.599-33.87-.251-45.56 6.743-12.42 22.393.81 28.796 5.81.67.33.675.36 1.226.86l3.809 3.12c.713.34.599.3 1.16.9 3.728 2.66 7.203 5.15 10.806 8.01 1.303 5.79 6.084 30.26 10.132 32.89 2.972-4.04 3.21-18.8 3.555-24.63 8.249 4.49 39.675 17.99 43.763 21.44.81 1.06 1.401 2.41 2.023 3.62.372.71.417.78.941 1.4l4.127 6.78c.36.67.385.7.902 1.27l4.108 6.71c.531 1 .913 1.33 1.658 2.21.49 1 .465.96 1.157 1.83l3.177 4.73c.612.62.55.47.895 1.16 2.011 3 4.278 8 8.117 7.6 1.125-5.43-7.055-23.78-9.097-30.71l-.285-1c14.256 3.92 29.431 5.22 43.183 9.86.001 0 2.852 3.91 3.161 4.34.547.98.878 1.22 1.66 2.06.725 1.49 1.407 2.42 2.332 3.81.572 1.1 1.077 1.57 1.882 2.52.641.66.636.74 1.134 1.57 3.585 5.42 8.9 16.35 11.85 19.57l1.223-.31c1.351-8.43-3.753-23.01-6.726-31.26 15.066 3.52 28.925 11.23 41.118 20.65.675.35.662.36 1.204.9 5.249 4.48 9.898 8.23 14.466 13.43 1.74 1.26 2.373 2.42 3.702 4.21l.825 1.37c.751 1.27 1.448 2.03 2.387 3.19.725.81 1.088 1.51 1.68 2.45 1.274 1.56 1.582 2.64 2.414 4.5l-.07 2.14c-3.409 1.17-16.633.01-21.396-.42-68.366-6.12-150.645-21.12-197.16-76.16-3.509-4.15-9.67-14.07-13.158-16.71l-.89.58c1.439 9.29 26.172 33.02 33.447 39.73 51.735 47.74 131.728 66.12 200.823 65.31-16.87 19.53-29.246 27.43-52.989 36.4 3.206-4.96 9.776-13.52 8.997-18.98l-1.412-.37c-18.462 14-23.165 22.98-51.68 19.38-4.481-.57-7.242-1.15-11.782-2.6l-1.687-.37-22.819-5.04c7.374-3.34 34.669-17.67 34.414-25.39-8.927 1.46-27.38 11.4-37.96 13.46-20.294 3.96-33.016-6.99-49.286-17.58 6.22-1.43 21.77-4.05 24.929-8.83l-.757-1.37c-2.447-1.03-10.733.23-13.935.77-24.84 4.16-37.29-14.66-51.805-32.31-.668-.48-.675-.4-.952-1.11-3.939-4.41-5.939-7.85-9.046-12.79 10.132-1.09 15.342-2.34 24.975-5.34-11.557-2.73-21.468-5.3-32.348-10.07"/><path fill="#42515d" d="M269.756 1896.86c1.74 1.26 2.373 2.42 3.702 4.21-2.163-1.72-2.672-1.82-3.702-4.21"/><path fill="#fdfdfe" d="M553.39 1964.87c-1.42-.08-7.627.25-8.297-.56-.183.29 20.908-15.02 22.739-16.34-2.965 4.53-5.291 7.61-8.508 11.85-2.157 2-3.605 3.25-5.934 5.05"/><path fill="#b7b4ac" d="M497.715 1962.37c1.065.22 3.897.63 4.774 1.4.092.34.102.18-.012.48-1.76 1.32-14.975.73-17.507.6 3.101-.46 12.269.19 12.745-2.48"/><path fill="#f4ebe8" d="M166.195 1939.31c1.224-.58 6.257-3.18 7.325-2.54.257 1.03-4.226 4.38-5.116 5.12zm-9.489-72.19c.627 1.63 2.641 6.32 1.697 7.9-1.05.19-3.586-4.57-4-5.29z"/><path fill="#b7b4ac" d="M107.472 1918.61c2.278-.61 4.446-1.48 6.277-.03l-.612.5 1.098-.82c.418 1.18-5.51 2.44-6.22 2.64z"/><path fill="#f4ebe8" d="m105.338 1919 2.134-.39.543 2.29c-1.216.33-2.428.68-3.635 1.04z"/><path fill="#484848" d="m171.807 1960.51 1.687.37-.383 2.47-1.697-.51c.116-.78.247-1.55.393-2.33"/><path fill="#cf9155" d="M260.581 1923.75c-4.18.3-16.131-.96-20.622-1.3-38.236-2.91-101.241-19.36-131.051-42.77a434.5 434.5 0 0 0 114.129 33.71c13.383 1.91 28.497 2.25 40.889 4.09l1.724.26c10.284.38 19.595.27 29.743.42-8.534 2.24-10.195-1.76-11.397 5.92-7.596.5-15.797.13-23.415-.33"/><path fill="#e0ad7f" d="M265.65 1917.74c10.284.38 19.595.27 29.743.42-8.534 2.24-10.195-1.76-11.397 5.92-7.596.5-15.797.13-23.415-.33 3.914-1.27 8.733-.37 10.064-3.75-.496-2.12-5.892-.1-6.908-1.39l.041-.12c.616-.35 1.174-.52 1.872-.75"/><path fill="#f4ebe8" d="M300.339 1917.77c2.272-2.2 7.876-.94 10.911-.69 11.762.09 18.735-.35 30.807.71-16.721 4.7-40.453 5.57-58.061 6.29 1.202-7.68 2.863-3.68 11.397-5.92q2.47-.24 4.946-.39"/><path fill="#6b726c" d="M300.339 1917.77c2.272-2.2 7.876-.94 10.911-.69-4.178.73-6.605 1.1-10.911.69"/><path fill="#fdfdfe" d="M233.785 1950.09c-.801 4.12-6.396 11-9.003 14.65-3.684.14-7.406.01-11.092-.09-.177-.81-.173-.53-.124-.94-.662.76 19.167-12.93 20.219-13.62"/><path fill="#4d6172" d="M358.65 1802.87c7.767-33.31 38.162.3 53.763 10.41.998 8.72 2.007 14.19 3.908 22.78q1.477-1.035 2.975-2.04c.541-5.52.881-8.99 2.11-14.5 14.411 8.46 29.956 16.1 45.958 21.06 7.123 11.34 15.721 25.91 23.265 36.65-2.745-13.14-4.521-19.09-10.257-31.19 10.327 2.51 21.458 5.44 31.836 7.38 3.26.44 13.03 1.6 15.646 2.43 4.599 1.86 12.864 17.81 15.665 23.05l2.108-3.65-3.239-16.26c31.732 9.04 59.124 26.04 72.768 56.96 12.963-.4 39.455-2.33 50.618.97l1.546 1.47c-3.755 6.21-43.461 8.05-52.425 8.87-11.598 17.61-28.383 29.55-48.22 36.19q-1.853-.075-3.707-.12c-1.242.41-1.916.47-3.246.69 4.161-8.49 7.407-8.67 12.972-22.87l-10.549 7.82c-1.001 1.46-1.304 1.63-2.947 2.42-1.647 3.01-5.955 5.54-8.993 7.31-15.249 8.88-37.43 4.93-53.722 1.2-4.123-.94-13.485-3.45-15.53-6.87l.827-2.83 2.039-.81c7.778-4.16 15.377-7.88 21.514-14.28-16.49 4.88-24.049 10.52-42.562 13.6l-.954-.39c-15.217-6.38-27.037-14.29-41.023-22.91 5.942-.77 8.916-1.63 14.562-3.23l.996-3.15c-6.766-.15-14.797-.88-21.651-1.34-10.171-6.59-17.687-15.17-25.268-24.44-.29-.26-2.33-2.95-2.625-3.34-2.878-3.64-5.172-6.65-7.476-10.67-.254-.25-1.78-2.67-2.02-3.04-6.803-12.96 1.058-8.7 15.536-9.86-9.913-3.54-15.412-4.93-25.277-9.39-3.753-7.84-6.189-14.33-7.877-22.92-.817-1.66-1.091-4.73-1.408-6.72-.963-8.22-2.002-12.97-.277-21.39l.36-1.94z"/><path fill="#151312" d="M612.69 1927.04c-89.184-3.27-173.953-20.65-229.296-97.07-1.57-2.17-4.295-5.52-3.879-8.05 2.949 1.38 4.364 4.08 6.486 6.95 9.438 12.77 20.856 25.92 33.941 35.15 43.544 30.72 100.702 43.03 152.859 49.02 8.78 1.01 30.365 3.54 37.943 2.4l.826-1.84c-1.027-4.62-2.23-5.65-5.126-9.61-.903-1.93-1.341-2.03-2.946-3.61-1.165-1-1-.86-1.649-2.4-4.409-5.19-6.463-7.12-11.583-11.6-.614-.57-.473-.48-1.155-.86l-6.915-5.12c-.621-.51-.555-.53-1.27-.79-1.696-.97-3.095-1.66-4.596-2.89-.639-.44-.983-.53-1.308-1.18l-3.691-2.31c-.784-.57-.528-.42-1.271-.77-7.495-3.96-16.805-7.74-24.844-10.51 1.826 11.98 6.945 26.15 7.464 36.6-2.881-4.36-5.284-7.54-7.182-12.44l.583-2.27-.847-.88c-.57-1.4-1.087-2.67-1.715-4.06l2.108-3.65-3.239-16.26c31.732 9.04 59.124 26.04 72.768 56.96 12.963-.4 39.455-2.33 50.618.97l1.546 1.47c-3.755 6.21-43.461 8.05-52.425 8.87-11.598 17.61-28.383 29.55-48.22 36.19q-1.853-.075-3.707-.12c2.523-1.77 9.506-4.3 12.979-6.02 14.245-7.03 27.329-17.39 36.743-30.27"/><path fill="#f4ebe8" d="M545.627 1875.25c.377 1.71 2.422 8.87 1.771 10.07-.636-.32-.873-.86-1.317-1.48l-.847-.88c-.57-1.4-1.087-2.67-1.715-4.06z"/><path fill="#cf9155" d="M593.483 1924.02c-38.489.45-127.799-18.55-154.95-45.04 52.145 25.43 100.072 33.06 157.206 39.05 4.97 0 16.021.81 19.554.43.871 2.07 1.546 4.2 2.363 6.29-7.595-.95-15.529.7-24.173-.73"/><path fill="#e0ad7f" d="M595.739 1918.03c4.97 0 16.021.81 19.554.43.871 2.07 1.546 4.2 2.363 6.29-7.595-.95-15.529.7-24.173-.73 2.862-4.06 6.098 1.45 10.934-2.06l-.098-1.46c-3.256-1.59-3.41.72-8.58-2.47"/><path fill="#f4ebe8" d="M615.293 1918.46c13.878-1.4 29.687-.98 43.71-1.38 1.871-.05 9.11-.04 5.513 2.73-13.919 1.08-33.214 5.2-46.86 4.94-.817-2.09-1.492-4.22-2.363-6.29"/><path fill="#151312" d="M358.65 1802.87c7.767-33.31 38.162.3 53.763 10.41.998 8.72 2.007 14.19 3.908 22.78q1.477-1.035 2.975-2.04c.541-5.52.881-8.99 2.11-14.5 14.411 8.46 29.956 16.1 45.958 21.06 7.123 11.34 15.721 25.91 23.265 36.65-2.745-13.14-4.521-19.09-10.257-31.19 10.327 2.51 21.458 5.44 31.836 7.38-5.959 2.74-19.227-2.05-26.975-3.61 2.07 6.4 10.199 28.1 8.617 33.47-3.848-.25-6.44-6.17-8.338-9.39-.295-.67-.267-.55-.852-1.17l-1.997-3.7c-.632-.88-.478-.71-1.114-1.36-.81-1.13-1.435-1.9-2.072-3.13-.798-1.05-1.149-1.43-1.763-2.55l-2.096-3.82c-.43-.63-.418-.73-.995-1.14l-3.178-4.71c-.241-.45-.482-.89-.723-1.33l-2.547-4.82c-1.495-1.11-2.47-2.27-3.299-3.91-11.245-3.22-31.04-13.08-41.471-18.82-1.588 7.96-1.966 19.58-3.348 28.76-4.844-12.78-7.38-19.32-9.388-32.71-.085-1.46-.083-1.71-.379-3.11-2.239-3.82-10.879-9.16-14.979-12.02-.49-.5-.489-.55-1.116-.88l-4.035-3.49c-.874-1.04-.77-.9-2.057-1.52l-2.546-2.11c-.815-.65-.599-.51-1.35-.92-7.096-5.1-12.859-9.52-19.746-1.39l-1.249 1.82a139 139 0 0 0-3.396 7.19z"/><path fill="#f4ebe8" d="M419.296 1834.02c-.287 3.82-.562 9.33-2.975 2.04q1.477-1.035 2.975-2.04"/><path fill="#42515d" d="M464.876 1842.25c1.991 1.46 2.479 1.7 3.299 3.91-1.495-1.11-2.47-2.27-3.299-3.91"/><path fill="#151312" d="m389.433 1893.25 1.693-.08c7.821 7.73 15.926 16.7 25.34 22.18 1.291.24 1.704.26 3.04.35 21.806 1.71 19.238.27 38.704-2.8-11.482 8.06-14.977 9.79-28.836 13.15l-.633.9c2.616 4.08 28.423 17.07 35.085 19.23 17.211-3.59 36.32-11.77 53.051-18.19-6.65 7.53-22.821 21.42-33.058 21.4 7.778-4.16 15.377-7.88 21.514-14.28-16.49 4.88-24.049 10.52-42.562 13.6l-.954-.39c-15.217-6.38-27.037-14.29-41.023-22.91 5.942-.77 8.916-1.63 14.562-3.23l.996-3.15c-6.766-.15-14.797-.88-21.651-1.34-10.171-6.59-17.687-15.17-25.268-24.44"/><path fill="#f4ebe8" d="M436.352 1919.03c9.353-.47 3.078 1.65-.996 3.15z"/><path fill="#151312" d="M359.694 1834.03c.914-.23.607-.22 1.049-.18-.4-.33 8.004 19.22 9.133 21.32 10.376 4.88 19.751 7.01 30.349 10.81-5.434 1.42-9.607 2.65-15.215 3.23-8.543.88-7.876-.33-7.698 6.99-6.803-12.96 1.058-8.7 15.536-9.86-9.913-3.54-15.412-4.93-25.277-9.39-3.753-7.84-6.189-14.33-7.877-22.92"/><path fill="#030403" d="M527.854 1855.85c4.599 1.86 12.864 17.81 15.665 23.05.628 1.39 1.145 2.66 1.715 4.06-2.918-1.06-8.041-11.51-10.672-14.93-.494-.8-.475-.86-1.113-1.49-.532-.97-.909-1.82-1.612-2.65-3.519-5.81-9.402-7.08-4.941-7.86z"/><path fill="#42515d" d="M358.369 1803.98c2.853 3.87 1.967 19.12-.083 23.33-.963-8.22-2.002-12.97-.277-21.39z"/><path fill="#030403" d="M379.332 1879.24c4.006.8 7.276 6.65 7.476 10.67-2.878-3.64-5.172-6.65-7.476-10.67"/><path fill="#42515d" d="M562.145 1948.97c-1.001 1.46-1.304 1.63-2.947 2.42.778-1.62 1.228-1.9 2.947-2.42"/><path fill="#fdfdfe" d="M0 0h1014.25l.01 299.142-.03 105.21c.02 19.341-.41 43.507.7 62.575-.49 7.096-.82 18.413.04 25.436q-.27 18.995-.96 37.98c-23.282-42.883-63.906-71.598-109.976-85.561-96.098-29.125-191.39 25.765-242.072 106.522-15.422 24.572-7.032 36.25-43.043 47.314l-.636 1.271c3.662 1.148 12.837-2.578 16.256-4.314 13.941-7.079 20.907-19.771 25.244-34.092l.276-.932c3.034 14.065 10.072 24.515 22.165 32.513a60.88 60.88 0 0 0 46.363 8.36c33.9-7.455 33.65-34.533 45.64-38.558 1.586.156 3.156.037 3.823 1.815 8.366 22.319 18.326 31.22 42.467 37.508 17.126 18.744 40.058 51.371 53.697 72.602 58.766 91.477 89.413 175.371 86.742 284.455-71.296-.075-143.899.601-215.081-.233 29.677-21.64 55.965-74.275 29.569-108.376-13.09-16.912-27.562-19.944-47.465-23l10.129-10.283-7.963-6.831c-2.99 4.362-8.783 12.319-11.188 16.63-20.503.595-36.578 2.213-51.621 18.173-10.648 11.297-15.901 25.562-14.919 40.943 1.826 28.587 15.837 58.566 41.394 72.857A67307 67307 0 0 1 0 958.982zm1086.58 960.988c28.88-.446 58.64.282 87.57.443l131.74.14 473.12.162c89.19.025 179.96.88 268.99-.27V1964.35c-44.18-.07-97.91 1.44-140.86-.45 21.63-10.18 35.72-17.95 49.76-37.21 13.43-.41 26.84-1.39 40.18-2.94l-.02-2.15c1.28-.26 8.21-.88 8.19-2.74 0-.29-.12-.56-.33-.75-1.46-1.35-34.33-.07-38.88-.01l5.31-2.21-14.34.14c-16.9-32.19-41.43-47.18-75.3-58.17l4.85 16.93-2.05 4-13.61-22.27c-17.87-2.94-31.78-6.02-49.36-10.49 3.82 11.07 7 20.71 10.19 31.98-8.85-11.78-15.38-23.04-22.54-35.75-18.52-7.43-31.07-13.03-48.14-23.29-.57 7.37-1.26 14.74-2.08 22.09-2.36-7.54-5.8-20.09-6.8-27.76-4.75-3.62-9.85-7.33-14.49-11.05-52.48-42.14-42.91 26.88-29.59 55.82 8.36 3.13 15.95 6.02 24.55 8.51-6.59.41-13.6.71-20.13 1.25 12.73 20.79 21.38 33.25 40.47 48.78 9.17 1.58 14.23 2.6 23.48 2.44 1.33.88 2.07 1.44 3.32 2.42-5.58 1.7-11.58 2.69-17.33 3.78 14.49 10.51 24.34 17.48 41.04 23.51 17.95-3.72 26.61-7.15 43.64-13.64-10.46 9-19.01 13.11-31.02 19.73 10.95 5.2 17.32 5.46 28.21 9.18-68.8 2.04-138.21-.7-207.1.28-19.77.28-40.48.33-60.2-.47 23.43-8.68 37.74-17.87 53.17-37.68 9.14-.42 48.15 0 52.38-7.97l-.71-2.01c-6.01-2.69-43.35-.47-53.06-.16-.97-2.34-2-4.65-3.08-6.94-12.38-25.72-45.85-42.13-71.32-51.04 1.91 7.28 3.94 14.03 6.17 21.22l-2.07 3.72c-3.16-8.55-10.81-19.2-16.06-26.68-15.7-2.14-33.28-4.61-48.19-10.01 3.38 10.95 6.96 22.15 10.16 33.13-7.8-13.23-16.19-24-23.51-37.67a325 325 0 0 1-46.19-22.1c-1.71 8.43-2.49 14.6-3.32 23.22-2.53-9.39-5.42-19.09-5.33-28.88-9.97-7.67-33.11-28.67-43.38-25.75-22.92 6.53-6.99 57.13-1.71 68.71 7.74 4.22 17.06 6.84 25.57 9.42-8.33 1.08-13.01 1.62-21.34 1.62 12.01 17.43 24.04 36.79 41.74 48.84 7.03.92 15.24 2.2 22.22 2.32l-.73 2.86c-4.59.81-8.54 1.5-13.21 1.99 39.06 28.6 42.83 27.56 86.87 10.47-11.27 8.75-19.7 14.42-32.49 20.71 6.86 2.51 11.43 4.1 18.48 5.85l-.04 3.09c-50.17 1.09-100.39.19-150.59.81-22.73-70.31-88.17-93.65-142-132.88-69.34-50.53-120.44-140.1-84.48-225.32 17.69-41.92 54.2-65.12 43.98-115.36-5.42-32.35-22.19-46.33-41.27-69.88-25.28-31.22-37.35-70.26-34.08-110.48a153.9 153.9 0 0 1 17.73-60.46c18.71-35.06 40.4-51.47 36.67-98.55-3.36-42.37-28.53-69.55-45.34-106.62-12.85-28.34-17.77-53.981-22.08-84.392"/><path fill="#484848" d="M1971.35 1915.89c2.43-.81 33.28-1.45 35.18.02 7.84 6.06-6.29 7.63-9.45 7.84l-.02-2.15c1.28-.26 8.21-.88 8.19-2.74 0-.29-.12-.56-.33-.75-1.46-1.35-34.33-.07-38.88-.01z"/><path fill="#fdfdfe" d="M1014.25 0H2048v460.254c-2.23.466-4.45.835-6.69 1.222-23.16 4.729-41.4 12.238-60.34 26.367-4.51 3.364-10.18 8.794-14.19 11.556l-1.59.49c-4.48 1.303-7.25 6.724-11.08 9.361l-4.61 4.92c-.34.638-.35.578-.91 1.099-4.85 6.774-13.08 18.976-18.05 24.907-.33.663-.33.593-.88 1.143-17.91 25.953-62.3 98.5-84.77 113.944-1.7 1.891-2.5 3.234-4.77 4.257-5.04 5.034-7.39 7.047-13.11 11.313-.41.437-.83.873-1.25 1.309l-2.36 1.468c-.74.755-1.23 1.113-2.05 1.765l-1.81 1.103c-.59.607-.72.68-1.43 1.142-1.92 1.415-4 3.046-6.01 4.29-.57.508-.34.33-1.16.805-2.95 1.915-6.78 4.565-9.83 6.158-.59.519-.53.424-1.25.758-25.96 15.782-51.5 26.229-81.25 32.767-8.08 1.776-30.14 4.173-36.48 6.942-5.7 1.653-32.64 1.397-38.71-.197-2.26-2.681-16.2-3.395-20.62-4.125-65.85-10.868-109.08-39.74-156.14-85.244-2.56-2.278-4.42-3.819-6.03-6.837l-7.5-8.817c-1.17-.735-.98-.647-1.61-2.078-6.4-6.261-26.17-34.633-31.13-42.757-.6-.57-.57-.446-.84-1.178-7.75-10.257-16.12-25.041-23.28-36.196-32.37-50.456-59.03-90.083-114.1-118.611a169.28 169.28 0 0 0-128.89-10.88c-57.94 18.833-110.26 70.127-137.82 123.857 1.14-8.287 1.45-36.225-.49-43.914-.86-7.023-.53-18.34-.04-25.436-1.11-19.068-.68-43.234-.7-62.575l.03-105.21z"/><path fill="#4d6172" d="M1191.37 331.788c3.86.6 23.7.36 27.69.104l4.34.431c1.31-.056 1.31-.141 2.46.391 30.13 3.034 65.14 13.528 90.25 30.779.7.265.67.282 1.24.76 7.72 4.87 17.06 11.059 23.85 17.212.66.343.63.36 1.14.9 2.1 1.845 4.95 4.218 6.89 6.108 1.23.73 1.16.58 1.91 1.688a255 255 0 0 1 35.61 38.726c.55.367.55.498.94 1.108 10.94 13.191 17.56 23.86 26.14 38.79.71.824 1.13 1.778 1.67 2.759.63 1.242 1.25 1.948 2.09 3.07.58 1.206 1.16 1.92 1.93 3.021.63 1.202 1.24 1.856 2.1 2.927.56 1.241 1.13 1.951 1.89 3.085.64 1.196 1.26 1.842 2.11 2.906.56 1.247 1.13 1.941 1.92 3.074.62 1.21 1.23 1.873 2.07 2.954.59.641.72.911 1.19 1.634l1.73 2.567c.61 1.088 1.08 1.5 1.92 2.448.64 1.393 1.27 2.23 2.12 3.517.6 1.129 1.15 1.668 1.98 2.658.59 1.314 1.19 2.072 2 3.277.6 1.146 1.12 1.683 1.94 2.697.63 1.326 1.22 2.013 2.08 3.212.95.728.9.729 1.55 1.782l3.53 5.518c.52.985.81 1.184 1.57 2.032.76 1.536 1.5 2.54 2.45 3.972.49.954.69 1.053 1.45 1.863.79 1.58 1.52 2.577 2.51 4.054.55 1.079.98 1.459 1.78 2.4.67 1.416 1.31 2.201 2.21 3.494.41.859.32.706 1.02 1.366l4.04 5.813c.53 1.045.96 1.422 1.72 2.331.75.781 1.14 1.316 1.8 2.165l1.3 2.217c.69.535.74.704 1.31 1.446l1.97 2.657c1.13.943 1.02.879 1.66 2.206 2.11 2.524 4.57 5.309 6.4 7.976 1.88 1.248 3.47 3.658 4.88 5.495l3.12 3.468c1.94 1.432 3.42 3.59 4.92 5.504l15.31 15.24c2 1.252 4.73 3.661 6.11 5.479l3.93 3.474c1.5.822 1.36.707 2.45 1.919l2.43 2.04c1.51.837 1.42.727 2.57 1.909l2.48 2.071c.75.316.64.282 1.26.855l5.85 4.142c.23.662.49.699 1.11 1.153 1.54 1.285 2.93 1.944 4.7 2.941.79.243.66.212 1.34.752 33.18 19.47 67.54 33.304 106.68 34.779l23.04-.015c45.93-3.079 83.28-22.562 118.84-49.984.74-1.113.66-.958 1.91-1.651l6.11-5.302c1.16-1.94 2.48-2.656 4.32-4.003 1.38-1.761 3.29-3.387 4.95-4.949 1.57-2.086 2.77-3.89 4.96-5.346 6.31-6.896 12.32-14.551 18.23-21.824.36-.637.36-.782.9-1.167 1.53-2.268 3.44-4.716 5.1-6.934.47-.768.41-.806 1.05-1.274l1.49-2.642c.91-.928.48-.54 1.26-1.194 1.17-1.944 2.77-3.981 4.13-5.84.44-.654.35-.639.95-1.134 2.4-4.222 5.25-7.917 8.11-11.839.43-.72.32-.682.93-1.233.94-1.29 1.62-2.07 2.3-3.502.44-.758 1-1.93 1.67-2.53.97-1.28 1.66-2.029 2.35-3.461.38-.704.93-1.915 1.53-2.495 8.83-14.326 17.88-29.52 28.2-42.777.37-.636.36-.763.91-1.143 40.43-52.782 87.35-81.686 152.78-92.655v76.044c-2.23.466-4.45.835-6.69 1.222-23.16 4.729-41.4 12.238-60.34 26.367-4.51 3.364-10.18 8.794-14.19 11.556l-1.59.49c-4.48 1.303-7.25 6.724-11.08 9.361l-4.61 4.92c-.34.638-.35.578-.91 1.099-4.85 6.774-13.08 18.976-18.05 24.907-.33.663-.33.593-.88 1.143-17.91 25.953-62.3 98.5-84.77 113.944-1.7 1.891-2.5 3.234-4.77 4.257-5.04 5.034-7.39 7.047-13.11 11.313-.41.437-.83.873-1.25 1.309l-2.36 1.468c-.74.755-1.23 1.113-2.05 1.765l-1.81 1.103c-.59.607-.72.68-1.43 1.142-1.92 1.415-4 3.046-6.01 4.29-.57.508-.34.33-1.16.805-2.95 1.915-6.78 4.565-9.83 6.158-.59.519-.53.424-1.25.758-25.96 15.782-51.5 26.229-81.25 32.767-8.08 1.776-30.14 4.173-36.48 6.942-5.7 1.653-32.64 1.397-38.71-.197-2.26-2.681-16.2-3.395-20.62-4.125-65.85-10.868-109.08-39.74-156.14-85.244-2.56-2.278-4.42-3.819-6.03-6.837l-7.5-8.817c-1.17-.735-.98-.647-1.61-2.078-6.4-6.261-26.17-34.633-31.13-42.757-.6-.57-.57-.446-.84-1.178-7.75-10.257-16.12-25.041-23.28-36.196-32.37-50.456-59.03-90.083-114.1-118.611a169.28 169.28 0 0 0-128.89-10.88c-57.94 18.833-110.26 70.127-137.82 123.857 1.14-8.287 1.45-36.225-.49-43.914-.86-7.023-.53-18.34-.04-25.436l1.47-.478c.86-12.448 4.21-17.337 9.99-28.305.31-.683.28-.786.77-1.36 3.74-6.516 5.72-9.718 10.25-15.668.65-.666.58-.548 1-1.369l1.72-2.644c.5-.572.59-.746 1.21-1.208l2.26-3.598c.66-.707.8-.875 1.57-1.46l3.28-4.027c.75-1.117.7-1.149 1.73-1.988l3.06-3.48c1.56-2.085 2.78-4.04 4.96-5.46 1.93-2.189 4.53-4.554 6.68-6.617 1.25-1.853 3.22-3.25 4.96-4.642l4.86-4.184c.52-.531.52-.558 1.16-.928l3.82-3.147c.58-.51.57-.535 1.27-.858l3.69-3.157c.73-.589.51-.432 1.25-.83 2.67-2.255 5.86-4.273 8.78-6.241.63-.548.53-.522 1.26-.828 26.04-18.338 63.78-30.563 95.44-32.662"/><path fill="#232324" d="M1954.11 509.25c1.5-7.532 38.75-32.781 47.44-36.571 8.62-3.761 17.13-8.332 26.44-10.473l5.03-1.165c3.22-.774 3.97-1.134 7.18-1.341l1.11 1.776c-23.16 4.729-41.4 12.238-60.34 26.367-4.51 3.364-10.18 8.794-14.19 11.556l-1.59.49c-4.48 1.303-7.25 6.724-11.08 9.361"/><path fill="#42515d" d="m1651.98 659.104 23.04-.015c-8.25 1.366-12.62 1.622-21.03.309z"/><path fill="#232324" d="M2048 458.223v2.031c-2.23.466-4.45.835-6.69 1.222l-1.11-1.776c2.86-.685 4.96-.827 7.8-1.477"/><path fill="#42515d" d="m1460.63 632.937.97.617c2.3 1.372 3.65 4.041 5.06 6.22-2.56-2.278-4.42-3.819-6.03-6.837m50.44-35.347c2 1.252 4.73 3.661 6.11 5.479-2.29-.717-5.12-3.419-6.11-5.479m305.04-9.736c-.97 2.814-2.45 3.543-4.96 5.346 1.57-2.086 2.77-3.89 4.96-5.346m24.01 71.666c.83-2.174 2.89-3.061 4.77-4.257-1.7 1.891-2.5 3.234-4.77 4.257M1058.2 395.882c-1.11 2.723-2.57 3.538-4.96 5.46 1.56-2.085 2.78-4.04 4.96-5.46m432.64 180.964c1.94 1.432 3.42 3.59 4.92 5.504-2.41-1.947-3.89-2.732-4.92-5.504m311.04 25.306c1.16-1.94 2.48-2.656 4.32-4.003-1.72 2.412-1.74 2.993-4.32 4.003m-319.04-34.269c1.88 1.248 3.47 3.658 4.88 5.495-2.33-1.953-3.84-2.777-4.88-5.495m-413-183.26-1 1.239c-1.39 1.77-1.94 2.461-3.96 3.403 1.25-1.853 3.22-3.25 4.96-4.642"/><path fill="#cf9155" d="M1529.24 28.257c.87.073.91.08 1.74.37 9.59 1.757 12.48 2.234 20.13 8.9.7.424.53.297 1.14.917 1.68 1.673 3.03 2.78 4.33 4.75l3.35.054c26.51 31.375 49.08 10.281 76.82 39.96l-.69 2.663.97 1.068.84 1.464c2.88 4.992 5.55 8.228 7.8 13.878l.54 1.339c.4.93.32.769 1.04 1.518 1.89 4.628 4.19 11.262 6.33 15.549 1.46 2.358 1.53 2.628 2.55 5.268 2.5 6.706 13.98 29.15 18.69 33.885l.81 1.496 3.01.012c1.87 1.979 3.6 4.211 5.15 6.448.28.967.42 2.269.57 3.259 16.84 12.819 29.15 17.802 51.06 15.115 17.48-2.142 37.94-8.196 55.65-3.728 9.49 2.395 18.31 7.498 28.65 8.779 4.85-.232 9.7-.211 14.55.097 19.05-3.252 27.48-17.814 41.12-29.765 20.22-17.719 31.33-17.461 55.88-16.236 3.16 1.469 7.84.519 11.15-.103 27.14-3.501 45.11-25.658 65.01-42.354 11.79-9.887 17.34-14.302 30.68-21.836 3.07-1.329 7-2.913 9.89-4.36v19.828c-40.35 22.438-60.93 60.435-103.36 66.954-.67.46-.77.365-1.63.427-7.98.493-16.55-.392-24.6-.896-5.22.29-10.45.123-15.66-.266l-1.35.427c-19.83 6.475-27.12 24.25-43.97 37.454a56.97 56.97 0 0 1-54.38 9.258c-9.16-3.29-19.47-8.707-29.03-9.405-13.96-1.019-28.99 4.694-42.87 5.888-1.14.109-1.36.069-2.39.401-55.02 1.912-70.86-26.618-93.13-73.695-4.47-9.468-10.75-26.707-17.85-34.328-12.68-13.597-35.98-10.624-53.38-20.937-13.47-7.987-24.38-26.236-36.57-30.869-19.5-7.402-50.95 5.776-68.61 12.765 18.17-15.603 45.27-32 70.02-31.413"/><path fill="#151312" d="M1559.93 43.248c26.51 31.375 49.08 10.281 76.82 39.96l-3.08.179c-1.73-2.782-1.85-2.738-4.37-4.96-.59-.562-.43-.468-1.09-.837-9.18-7.96-18.92-10.132-30.63-11.991-19.25-3.056-25.09-7.136-38.54-19.78zm118.71 118.1c1.87 1.979 3.6 4.211 5.15 6.448l-2.18.471c-1.41-2.452-1.45-2.42-3.54-4.414z"/><path fill="#785634" d="M1902.75 162.711c6.07-1.174 9.63-1.082 15.66.266-5.22.29-10.45.123-15.66-.266m-83.03 28.51c4.85-.232 9.7-.211 14.55.097-5.86 1.082-8.74 1.129-14.55-.097M1559.93 43.248l-.89 2.571c-1.03-1.03-1.56-1.534-2.46-2.625zm123.86 124.548c.28.967.42 2.269.57 3.259-1.76-1.177-1.69-1.054-2.75-2.788zm-50.12-84.409 3.08-.179-.69 2.663c-.91-.891-1.55-1.53-2.39-2.484m41.96 77.949 3.01.012-.57 2.505c-.96-.925-1.55-1.51-2.44-2.517"/><path fill="#cf9155" d="M1886.26 0h151.7a158 158 0 0 1-5.48 4.518c-15.09 8.206-20.82 9.878-37.82 11.846-2.31-.29-11.94-.337-14.74-.394-35.53-5.325-51.06-24.573-84.95 1.544-21.27 16.386-61.68 52.215-89.34 45.052-36.48-9.447-6.6-42.59-67.63-43.942 15.95-4.867 39.23-12.526 51.59 3.662l3.21.078c1.58 1.682 2.64 3.756 3.9 5.68 1.79 3.233 4.46 8.508 7.62 10.362 25.01 14.695 59.07-20.273 76.07-33.09 1.88-2.123 3.7-3.487 5.87-5.316"/><path fill="#151312" d="m1880.39 5.317.66 1.701-1.53 1.274a509 509 0 0 1-16.61 13.547c-17.32 13.45-54.19 39.011-67.99 7.167l1.78-.962c1.79 3.233 4.46 8.508 7.62 10.362 25.01 14.695 59.07-20.273 76.07-33.09"/><path fill="#151312" d="M1886.26 0h3.64c-3.08 2.463-5.75 4.428-8.85 7.018l-.66-1.701c1.88-2.124 3.7-3.488 5.87-5.317m-93.46 22.364c1.58 1.682 2.64 3.756 3.9 5.68l-1.78.962c-1.14-1.836-1.52-2.385-2.84-4.095z"/><path fill="#694b2e" d="m1792.8 22.364-.72 2.547c-.93-.928-1.63-1.64-2.49-2.625z"/><path fill="#232324" d="M1014.25 0h2.48l.16 288c.01 53.455-.67 109.244.43 162.521 26.09-52.061 68.56-92.448 124.36-110.954a205.26 205.26 0 0 1 158.1 11.996c137.14 68.978 146.68 255.78 309.69 298.705 35.82 9.434 74.53 9.267 109.82-2.31 63.02-20.671 103.64-65.919 138.99-119.707 10.78-16.389 20.61-33.582 32.34-49.313 27.99-37.543 64.26-68.5 108.71-84.687 15.7-5.72 32.23-9.154 48.67-12.017v1.976c-65.43 10.969-112.35 39.873-152.78 92.655-.55.38-.54.507-.91 1.143-10.32 13.257-19.37 28.451-28.2 42.777-.6.58-1.15 1.791-1.53 2.495-.69 1.432-1.38 2.181-2.35 3.461-.67.6-1.23 1.772-1.67 2.53-.68 1.432-1.36 2.212-2.3 3.502-.61.551-.5.513-.93 1.233-2.86 3.922-5.71 7.617-8.11 11.839-.6.495-.51.48-.95 1.134-1.36 1.859-2.96 3.896-4.13 5.84-.78.654-.35.266-1.26 1.194l-1.49 2.642c-.64.468-.58.506-1.05 1.274-1.66 2.218-3.57 4.666-5.1 6.934-.54.385-.54.53-.9 1.167-5.91 7.273-11.92 14.928-18.23 21.824-2.19 1.456-3.39 3.26-4.96 5.346-1.66 1.562-3.57 3.188-4.95 4.949-1.84 1.347-3.16 2.063-4.32 4.003l-6.11 5.302c-1.25.693-1.17.538-1.91 1.651-35.56 27.422-72.91 46.905-118.84 49.984l-23.04.015c-39.14-1.475-73.5-15.309-106.68-34.779-.68-.54-.55-.509-1.34-.752-1.77-.997-3.16-1.656-4.7-2.941-.62-.454-.88-.491-1.11-1.153l-5.85-4.142c-.62-.573-.51-.539-1.26-.855l-2.48-2.071c-1.15-1.182-1.06-1.072-2.57-1.909l-2.43-2.04c-1.09-1.212-.95-1.097-2.45-1.919l-3.93-3.474c-1.38-1.818-4.11-4.227-6.11-5.479l-15.31-15.24c-1.5-1.914-2.98-4.072-4.92-5.504l-3.12-3.468c-1.41-1.837-3-4.247-4.88-5.495-1.83-2.667-4.29-5.452-6.4-7.976-.64-1.327-.53-1.263-1.66-2.206l-1.97-2.657c-.57-.742-.62-.911-1.31-1.446l-1.3-2.217c-.66-.849-1.05-1.384-1.8-2.165-.76-.909-1.19-1.286-1.72-2.331l-4.04-5.813c-.7-.66-.61-.507-1.02-1.366-.9-1.293-1.54-2.078-2.21-3.494-.8-.941-1.23-1.321-1.78-2.4-.99-1.477-1.72-2.474-2.51-4.054-.76-.81-.96-.909-1.45-1.863-.95-1.432-1.69-2.436-2.45-3.972-.76-.848-1.05-1.047-1.57-2.032l-3.53-5.518c-.65-1.053-.6-1.054-1.55-1.782-.86-1.199-1.45-1.886-2.08-3.212-.82-1.014-1.34-1.551-1.94-2.697-.81-1.205-1.41-1.963-2-3.277-.83-.99-1.38-1.529-1.98-2.658-.85-1.287-1.48-2.124-2.12-3.517-.84-.948-1.31-1.36-1.92-2.448l-1.73-2.567c-.47-.723-.6-.993-1.19-1.634-.84-1.081-1.45-1.744-2.07-2.954-.79-1.133-1.36-1.827-1.92-3.074-.85-1.064-1.47-1.71-2.11-2.906-.76-1.134-1.33-1.844-1.89-3.085-.86-1.071-1.47-1.725-2.1-2.927-.77-1.101-1.35-1.815-1.93-3.021-.84-1.122-1.46-1.828-2.09-3.07-.54-.981-.96-1.935-1.67-2.759-8.58-14.93-15.2-25.599-26.14-38.79-.39-.61-.39-.741-.94-1.108a255 255 0 0 0-35.61-38.726c-.75-1.108-.68-.958-1.91-1.688-1.94-1.89-4.79-4.263-6.89-6.108-.51-.54-.48-.557-1.14-.9-6.79-6.153-16.13-12.342-23.85-17.212-.57-.478-.54-.495-1.24-.76-25.11-17.251-60.12-27.745-90.25-30.779-1.15-.532-1.15-.447-2.46-.391l-4.34-.431c-3.99.256-23.83.496-27.69-.104-31.66 2.099-69.4 14.324-95.44 32.662-.73.306-.63.28-1.26.828-2.92 1.968-6.11 3.986-8.78 6.241-.74.398-.52.241-1.25.83l-3.69 3.157c-.7.323-.69.348-1.27.858l-3.82 3.147c-.64.37-.64.397-1.16.928l-4.86 4.184c-1.74 1.392-3.71 2.789-4.96 4.642-2.15 2.063-4.75 4.428-6.68 6.617-2.18 1.42-3.4 3.375-4.96 5.46l-3.06 3.48c-1.03.839-.98.871-1.73 1.988l-3.28 4.027c-.77.585-.91.753-1.57 1.46l-2.26 3.598c-.62.462-.71.636-1.21 1.208l-1.72 2.644c-.42.821-.35.703-1 1.369-4.53 5.95-6.51 9.152-10.25 15.668-.49.574-.46.677-.77 1.36-5.78 10.968-9.13 15.857-9.99 28.305l-1.47.478c-1.11-19.068-.68-43.234-.7-62.575l.03-105.21z"/><path fill="#42515d" d="M1191.37 331.788c2.52-1.726 23.93-.716 27.69.104-3.99.256-23.83.496-27.69-.104"/><path fill="#392b1a" d="M1450.59 66.1c1.23-1.352 2.49-2.678 3.77-3.98 16.04-16.326 47.83-36.167 71.69-35.88 15.99.193 23.6 6.516 33.88 17.008l-3.35-.054c-1.3-1.97-2.65-3.077-4.33-4.75-.61-.62-.44-.493-1.14-.917-7.65-6.666-10.54-7.143-20.13-8.9-.83-.29-.87-.297-1.74-.37-24.75-.586-51.85 15.81-70.02 31.413 17.66-6.989 49.11-20.167 68.61-12.765 12.19 4.633 23.1 22.882 36.57 30.87 17.4 10.311 40.7 7.339 53.38 20.936 7.1 7.621 13.38 24.86 17.85 34.328 22.27 47.077 38.11 75.607 93.13 73.695l-1.89 2.49c-14.18-.093-21.83.03-35.06-5.069-35.86-13.815-52.19-55.664-66.12-88.628-15.3-36.195-38.23-18.483-66.34-38.806-10.66-6.489-23.02-25.62-34.57-28.826-20.78-5.77-56.6 9.47-74.19 18.205M1738 18.624c61.03 1.353 31.15 34.495 67.63 43.942 27.66 7.163 68.07-28.666 89.34-45.052 33.89-26.117 49.42-6.869 84.95-1.544 2.8.057 12.43.104 14.74.394 17-1.968 22.73-3.64 37.82-11.846l2.03 1.14c-21.91 12.827-41.29 16.571-66.39 10.164-23.56-6.017-39.88-16.913-63.94-2.108-31.8 19.624-61.11 57.875-102.74 50.266-5.81-1.063-13.93-6.813-15.74-12.135-10.57-31.14-30.37-33.91-62.61-29.675 20.86-9.543 52.48-20.575 69.71.194l-3.21-.078c-12.36-16.188-35.64-8.53-51.59-3.662"/><path fill="#785634" d="M1979.92 15.97c2.8.057 12.43.104 14.74.394-3.17 1.914-11.18.596-14.74-.394"/><path fill="#151312" d="M1944.64 163.446c42.43-6.519 63.01-44.516 103.36-66.954v2.474c-32.11 16.235-50.36 46.567-83.16 60.986-11.19 4.888-24.31 6.705-36.16 5.556-8.46-.82-26.12-2.766-32.41 1.818-30.56 22.235-45.44 59.398-91.83 44.868-7.33-2.295-16.68-6.749-24.35-8.709-15.75-3.857-32.64 3.704-49.02 4.776-1.98.731-1.99.669-4.2.963l1.89-2.49c1.03-.332 1.25-.292 2.39-.401 13.88-1.194 28.91-6.907 42.87-5.888 9.56.698 19.87 6.115 29.03 9.405a56.97 56.97 0 0 0 54.38-9.258c16.85-13.204 24.14-30.979 43.97-37.454l1.35-.427c5.21.389 10.44.556 15.66.266 8.05.504 16.62 1.389 24.6.896.86-.062.96.033 1.63-.427"/><path fill="#694b2e" d="M1728.76 206.734c1.03-.332 1.25-.292 2.39-.401-.23 1.036-.62 1.021-.08 1.928-1.98.731-1.99.669-4.2.963z"/><path fill="#232324" d="M2048 257.492v2.031c-80.9 12.079-141.18 95.194-192.84 151.338-1.48 1.613-1.15 1.288-2.98 1.132.31-.777.71-1.92 1.26-2.512 55.97-60.81 108-135.825 194.56-151.989"/><path fill="#392b1a" d="M1683.79 167.796c37 31.01 55.43 10.027 97.36 10.956 13.46.298 29.04 10.505 44.15 10.976 24.63.767 33.47-16.124 49.41-30.366 19.47-17.396 32.93-17.361 56.7-16.229.9 1.121.7 1.077-.14 2.184-24.55-1.225-35.66-1.483-55.88 16.236-13.64 11.951-22.07 26.513-41.12 29.765-4.85-.308-9.7-.329-14.55-.097-10.34-1.281-19.16-6.384-28.65-8.779-17.71-4.468-38.17 1.586-55.65 3.728-21.91 2.687-34.22-2.296-51.06-15.115-.15-.99-.29-2.292-.57-3.259"/><path fill="#151312" d="M1107.17 0h15.19c-18.34 17.543-34.61 37.827-43.2 62.018-.37 1.04-.29 2.009-1.59 2.067-3.23-2.318 9.34-30.774 10.9-34.406 4.72-11.049 11.89-19.949 18.7-29.679"/><path fill="#cf9155" d="M1109.85 0h9.69c-10.62 10.103-18.94 20.434-27.41 32.413-2.11 3.81-4.82 7.51-7.3 11.11 1.25-3.136 3.75-9.929 5.43-12.474 4.64-12.621 11.23-20.846 19.59-31.049"/><path fill="#232324" d="M2038.37 286.523c-55.88 12.082-108.62 62.377-145.87 103.735-6.25 6.945-25.47 29.762-30.38 33.847l-.43-1.251c3.6-6.053 22.45-26.731 28.38-33.184 42.87-46.646 83.66-86.655 146.27-104.609z"/><path fill="#232324" d="M1995.13 328.351c-41.25 21.034-75.54 54.288-106.35 88.279-3.06 3.372-13.03 15.32-16.2 16.101.49-3.826 20.34-23.633 24.89-28.62 42.89-47.018 87.45-81.46 150.53-96.234v1.806c-20.84 5.387-32.04 8.166-51.67 17.964-.6.547-.48.534-1.2.704"/><path fill="#232324" d="M2048 335.518c-63.69 12.783-112.85 53.695-156.65 99.511-2.47 2.588-7.09 8.968-9.95 9.792l-.58-.896c.16-.342.33-.684.49-1.025 35.64-39.244 78.39-78.226 128.12-98.093 15.77-6.3 25.88-8.353 38.57-11.413z"/><path fill="#cf9155" d="M1410.61 0h29.57c-13.55 9.153-31.39 15.323-47.59 17.325-1.81-.22-1.79-.086-3.68.562-5.51-.885 2.17-3.162 4.51-4.345l.7-.36-.55-1.568c5.84-4.126 10.72-6.931 17.04-11.614"/><path fill="#392b1a" d="M1410.61 0h3.55c-6.4 4.91-12.89 9.45-20.04 13.183l-.55-1.569c5.84-4.126 10.72-6.931 17.04-11.614"/><path fill="#232324" d="M2048 361.461c-34.84 7.923-66.28 20.089-95.46 41.193a436 436 0 0 0-31.3 25.167c-3.97 3.541-28.01 27.093-30.63 27.101 1.96-4.092 15.86-16.362 19.8-20.198 40.16-39.14 82.92-63.175 137.59-75.301z"/><path fill="#151312" d="m2037.57 79.465.54 1.558c-13.34 7.535-18.89 11.95-30.68 21.837-19.9 16.696-37.87 38.853-65.01 42.354-3.31.622-7.99 1.572-11.15.103.84-1.107 1.04-1.063.14-2.184 2.75.096 5.61.17 8.34.35 37.75-3.915 59.62-44.1 97.82-64.018"/><path fill="#785634" d="M1931.41 143.133c2.75.096 5.61.17 8.34.35-2.53 1.667-4.64.178-6.63 1.064.73.471 7.97.588 9.3.667-3.31.622-7.99 1.572-11.15.103.84-1.107 1.04-1.063.14-2.184"/><path fill="#232324" d="M2048 184.175v2.056c-17.43.763-29.71 2.051-45.43 10.842-14.65 8.193-26.16 19.283-34.59 33.939-.99 1.732-2.34 5.068-3.65 6.774-2.23 1.365-.46-4.325.04-4.453 11.13-22.491 33.04-39.665 57.14-46.236 7.71-2.1 18.49-2.639 26.49-2.922"/><path fill="#151312" d="M1440.18 0h2.73c-19.21 15.86-45.82 19.621-69.72 20.386 7.98-3.217 12.55-5.165 20.38-8.772l.55 1.568-.7.36c-2.34 1.183-10.02 3.46-4.51 4.345 1.89-.648 1.87-.782 3.68-.562 16.2-2.002 34.04-8.172 47.59-17.325"/><path fill="#694b2e" d="M1388.91 17.887c1.89-.648 1.87-.782 3.68-.562-1 .682-1.19.56-2.44.557z"/><path fill="#232324" d="M1271.09 3.835c12.33 5.876 23.35 10.207 37.16 11.576 2.94 1.953 11.21.14 17.09 1.47l-1.85.195c-3.29-.587-15.08-.19-18.6.134-12.98-1.249-25.01-6.845-36.48-12.508z"/><path fill="#694b2e" d="m1656.13 125.955 1.75-.916c6.2 10.939 10.71 20.551 17.41 31.541l-.47 3.26c-4.71-4.735-16.19-27.179-18.69-33.885"/><path fill="url(#a)" d="M1649.78 0h5.97l1.57 1.252c5.21 4.233 7.38 6.14 13.46 9.395l-3.48 1.738c-4.45-1.946-8.77-2.9-12.36-6.251.81-2.72-2.55-3.803-5.16-6.134"/><path fill="#583e27" d="M1639.34 86.595c4.05 5.093 6.3 10.542 9.33 16.108l-2.46.917-.54-1.339c-2.25-5.65-4.92-8.886-7.8-13.878l-.84-1.464zm9.33 16.108.32 1.025c1.6 4.194 4.38 9.676 5.57 13.586l-.98 3.373c-2.14-4.287-4.44-10.921-6.33-15.549-.72-.749-.64-.588-1.04-1.518z"/><path fill="#694b2e" d="m1648.67 102.703.32 1.025-1.74 1.41c-.72-.749-.64-.588-1.04-1.518z"/><path fill="#392b1a" d="M2037.57 79.465c3.26-2.138 6.88-3.46 10.43-5.095v2.294c-2.89 1.447-6.82 3.031-9.89 4.36z"/><path fill="#7c7a7a" d="M1308.25 15.411c1.24-.114 16.56-.445 17.04-.327.29.468.11 1.19.05 1.797-5.88-1.33-14.15.483-17.09-1.47"/><path fill="#484848" d="M2048 282.058v1.891c-3.05.899-6.53 1.787-9.63 2.574l-2.03-1.462a55 55 0 0 1 7.17-1.986c2.47-.498 2.06-.344 4.49-1.017"/><path fill="#6b726c" d="M1304.89 17.21c3.52-.325 15.31-.721 18.6-.134-4.28 1.68-14.04 1.092-18.6.134"/><path fill="#030403" d="M1646.02 0h3.76c2.61 2.331 5.97 3.414 5.16 6.134-3.51-1.712-5.81-3.722-8.92-6.134"/><path fill="#232324" d="M1260.89 0h4.02c2.07 1.364 4.1 2.479 6.18 3.835l-2.68.867A228 228 0 0 1 1260.89 0"/><path fill="#151312" d="M1670.78 10.647c1.42.58 2.87 1.183 4.15 2.051l-.38-.158c.87.626 1.65.826.94 1.7-1.79.486-6.29-1.325-8.19-1.855zM2037.96 0h3.58l-1.46 1.165a241 241 0 0 0-5.57 4.493l-2.03-1.14c1.86-1.466 3.69-2.972 5.48-4.518m-383.4 117.314c1.16 2.558 2.25 5.128 3.32 7.725l-1.75.916c-1.02-2.64-1.09-2.91-2.55-5.268zm20.73 39.266c1.11 1.598 2.22 3.187 3.35 4.768l-3.01-.012-.81-1.496zm-38.54-73.372a84 84 0 0 1 2.59 3.387l-2.31.344-.97-1.067z"/><path fill="#cf9155" d="M1075.03 159.551c14.65-73.18 101.3-167.886 179.59-116.128 11.96 7.905 28.23 21.201 41.83 24.796 19.55 5.168 42.91-2.123 62.97-.806 28.22 1.16 46.53 13.195 65.07 33.169.57.673 1.16 1.341 1.74 2.004.65 1.031 1.25 1.866 1.95 2.859 3.55 4.153 7.65 10.839 10.8 15.494 1.18 1.834 2.28 3.539 3.4 5.413 5.43 6.906 14.97 22.354 20.69 30.506.83 1.138 1.62 2.119 2.5 3.21l.49.764c.88 1.183 1.67 2.088 2.63 3.199.49.624.99 1.247 1.48 1.871a93 93 0 0 0 3.18 4.062l.87.306c6.64 8.883 21.11 19.143 30.11 25.321-47.74-10.227-60.58-28.912-89.5-66.369-9.32-12.082-18.23-21.231-31.82-28.407-30.09-17.421-70.42 2.652-100.08-8.729-34.38-13.198-53.66-47.868-96.6-34.84-37.2 11.287-69.57 41.297-92.87 71.793-7.19 9.405-12.58 20.239-18.43 30.512"/><path fill="#151312" d="M1075.03 159.551c14.65-73.18 101.3-167.886 179.59-116.128 11.96 7.905 28.23 21.201 41.83 24.796 19.55 5.168 42.91-2.123 62.97-.806 28.22 1.16 46.53 13.195 65.07 33.169l-2.1.923c-3.94-5.022-8.35-8.987-13.15-13.13-.62-.57-.5-.496-1.19-.89-17.97-14.558-38.71-19.162-61.45-18.362-1.92-.306-1.85-.48-3.36.505-36.84 2.122-41.98 7.952-74.03-14.224-.58-.537-.51-.553-1.19-.852-16.74-12.313-31.33-20.624-51.96-23.515l-20.14-.024c-51.45 6.584-97.24 63.64-113.34 109.843l.67-.794c7.76-9.302 14.1-20.169 22.33-29.23 20.75-22.841 60.67-56.432 93.35-57.884 4.8.233 7.46.196 12.25-.136 41.63 6.91 53.54 43.681 101.09 41.053 1.5-.973 1.43-.798 3.33-.574 33.06-2.691 56.03-6.728 84.29 16.572 7.55 6.23 14.76 15.987 20.87 23.749 24.4 31.03 36.92 46.727 74.65 58.739-7.79-6.431-14.53-12.088-21.95-19.036l.76-3.045c6.64 8.883 21.11 19.143 30.11 25.321-47.74-10.227-60.58-28.912-89.5-66.369-9.32-12.082-18.23-21.231-31.82-28.407-30.09-17.421-70.42 2.652-100.08-8.729-34.38-13.198-53.66-47.868-96.6-34.84-37.2 11.287-69.57 41.297-92.87 71.793-7.19 9.405-12.58 20.239-18.43 30.512"/><path fill="#785634" d="M1195.92 31.013c7.21-2.075 12.88-1.805 20.14.024zm116.35 62.852c1.5-.973 1.43-.798 3.33-.574-1.31 1.023-1.71.784-3.33.574m130.11 32.487c5.43 6.906 14.97 22.354 20.69 30.506l-1.35 1.376c-1.13-.67-1.44-1.262-2.15-2.375l-.95-1.351c-5.68-8.18-14.58-19.737-18.79-28.428z"/><path fill="#694b2e" d="M1428.18 105.445c3.55 4.153 7.65 10.839 10.8 15.494l-1.6 1.219c-.74-.549-1.13-1.111-1.59-1.892l-1.02-1.529c-2.78-4.196-6.32-8.427-8.63-12.772z"/><path fill="#785634" d="M1424.49 100.582c.57.673 1.16 1.341 1.74 2.004.65 1.031 1.25 1.866 1.95 2.859l-2.04.52-1.43-1.786c-1.56-.859-1.43-.998-2.32-2.674z"/><path fill="#151312" d="m1424.71 104.179 1.52-1.593c.65 1.031 1.25 1.866 1.95 2.859l-2.04.52zm14.27 16.76c1.18 1.834 2.28 3.539 3.4 5.413l-2.55-.272c-.82-1.39-1.53-2.583-2.45-3.922z"/><path fill="#a57241" d="M1198.93 52.948c5.52-1.27 6.71-1.288 12.25-.136-4.79.332-7.45.369-12.25.136"/><path fill="#785634" d="M1468.69 164.031c.49.624.99 1.247 1.48 1.871l-1.99.73c-1.44-.887-1.41-.972-2.53-2.319z"/><path fill="#151312" d="M1470.17 165.902a93 93 0 0 0 3.18 4.062l-2.5.006c-1.01-1.345-1.58-2.124-2.67-3.338z"/><path fill="#694b2e" d="m1473.35 169.964.87.306-.76 3.045c-1.4-1.164-1.61-1.776-2.61-3.345z"/><path fill="#151312" d="m1461.72 158.234 1.35-1.376c.83 1.138 1.62 2.119 2.5 3.21l-2.84.344zm2.97 4.01 1.37-1.412c.88 1.183 1.67 2.088 2.63 3.199l-3.04.282z"/><path fill="#a57241" d="M1343.24 69.629c1.51-.986 1.44-.812 3.36-.506-1.42 1.024-1.46.744-3.36.505"/><path fill="#785634" d="m1465.57 160.068.49.764-1.37 1.412c-1.07-.839-1.1-.814-1.96-1.832z"/><path fill="#cf9155" d="M1530.36 125.456c11.43 5.709 15.34 8.196 24.3 17.314l.4.962c.8 1.13 1.56 2.164 2.39 3.27 9.58 13.841 8.52 23.061 17.47 37.998 16.47 20.085 31.13 13.258 50.86 33.123 1.3 1.661 2.45 3.161 3.68 4.881 2.84 3.362 9.05 14.04 11.36 18.392q.96 2.127 1.95 4.242c.95 1.082.88 1.08 1.61 2.4 2.98 6.051 6.34 10.785 10.36 16.118 32.71 34.522 54.04 16.628 93.43 19.717 13.9 1.09 30.53 9.957 46.86 12.113 22.76-2.167 33.68-7.886 48.66-25.053 14.38-16.472 25.25-42.888 49.71-44.99 6.25-.55 23.66 1.34 26.32 8.055-2.4.834-2.7.633-5.16.479-11.06-.691-21.15 5.335-29.01 12.614-6.97 6.455-14.24 17.11-19.35 25.316-16.38 26.297-34.59 45.716-67.41 48.125-2.25.388-4.27.453-6.49-.103-21.96-1.69-30.38-8.969-49.51-11.905-13.33-2.044-35.29 3.477-51.37 2.032-32.87-2.952-52.51-17.979-68.03-46.732-4.59-8.519-11.84-23.81-18.4-30.405-13-13.078-31.67-14.912-41.96-32.329-11.45-19.391-7.53-39.833-19.12-58.556-3.91-6.33-8.67-11.493-13.55-17.078"/><path fill="#392b1a" d="M1530.36 125.456c11.43 5.709 15.34 8.196 24.3 17.314l-2.53.779c-4.89-5.885-7.86-8.23-13.94-12.933 6.33 8.779 10.47 14.555 13.75 25.005 4.98 15.868 4.09 29.683 12.98 44.416 9.19 16.054 29.35 19.512 41.62 32.028 6.11 6.235 12.35 17.597 16.11 25.502 17.69 37.19 43.53 52.856 84.74 51.2 1.43.081 1.29.178 2.43-.459 11.91-1.612 27.37-3.912 39.03-.774 14.26 3.839 24 8.508 39.06 10.485 1.33.377 6.23 1.256 6.51 1.512-.4.535-1.25.605-1.81.789-.1.034-.2.073-.31.109-21.96-1.69-30.38-8.969-49.51-11.905-13.33-2.044-35.29 3.477-51.37 2.032-32.87-2.952-52.51-17.979-68.03-46.732-4.59-8.519-11.84-23.81-18.4-30.405-13-13.078-31.67-14.912-41.96-32.329-11.45-19.391-7.53-39.833-19.12-58.556-3.91-6.33-8.67-11.493-13.55-17.078"/><path fill="#151312" d="M1795.03 295.986c22.76-2.167 33.68-7.886 48.66-25.053 14.38-16.472 25.25-42.888 49.71-44.99 6.25-.55 23.66 1.34 26.32 8.055-2.4.834-2.7.633-5.16.479-11.06-.691-21.15 5.335-29.01 12.614-6.97 6.455-14.24 17.11-19.35 25.316-16.38 26.297-34.59 45.716-67.41 48.125-.75-.306-1.7-.508-2.36-.997-.06.054 5.37-1.253 5.88-1.41 34.27-5.387 49.43-25.441 66.82-53.468 12.67-20.408 22.98-27.798 46.5-33.357-45.76-13.567-50.33 20.808-76.26 47.33-9.7 9.919-23 18.195-37.33 18.365-2.82-.307-6.37-.338-9.28-.442z"/><path fill="#392b1a" d="M1654.74 264.156c32.71 34.522 54.04 16.628 93.43 19.717 13.9 1.09 30.53 9.957 46.86 12.113l-2.27.567c2.91.104 6.46.135 9.28.442-19.62 3.419-34.58-8.703-56.21-11.348-1.21-.53-1.2-.445-2.58-.362l-9.39-.056c-1.21.613-1.07.522-2.53.452-33 3.536-52.15 6.176-77.32-18.781zm-81.36-78.034 1.54-1.122c16.47 20.085 31.13 13.258 50.86 33.123l-3.3.01-1-1.428c-.95-1.351-.8-1.26-2.26-2.06-17.4-14.586-31.38-9.461-45.84-28.523"/><path fill="#694b2e" d="M1557.45 147.002c9.58 13.841 8.52 23.061 17.47 37.998l-1.54 1.122c-3.94-2.864-12.29-30.236-18.6-39.099zm72.01 76.002c2.84 3.362 9.05 14.04 11.36 18.392q.96 2.127 1.95 4.242l-1.84.545-1.1-1.944c-4.59-5.731-7.92-14.547-13.29-21.255z"/><path fill="#151312" d="M1640.82 241.396q.96 2.127 1.95 4.242l-1.84.545-1.1-1.944zm3.56 6.642c2.98 6.051 6.34 10.785 10.36 16.118l-3-.108c-1.42-2.412-5.83-9.429-7.43-11.551z"/><path fill="#694b2e" d="M1787.91 318.019c4.86.085 9.55.081 14.4.106-.51.157-5.94 1.464-5.88 1.41.66.489 1.61.691 2.36.997-2.25.388-4.27.453-6.49-.103.11-.036.21-.075.31-.109.56-.184 1.41-.254 1.81-.789-.28-.256-5.18-1.135-6.51-1.512"/><path fill="#583e27" d="M1642.77 245.638c.95 1.082.88 1.08 1.61 2.4l-.07 4.459c-1.51-2.44-2.19-3.677-3.38-6.314z"/><path fill="#151312" d="M1625.78 218.123c1.3 1.661 2.45 3.161 3.68 4.881l-2.92-.02c-.41-.681-.88-1.534-1.4-2.132zm-72.03-72.863 1.31-1.528c.8 1.13 1.56 2.164 2.39 3.27l-2.67.021z"/><path fill="#785634" d="m1625.78 218.123-.64 2.729c-1.15-1.087-1.67-1.557-2.66-2.719z"/><path fill="#583e27" d="m1554.66 142.77.4.962-1.31 1.528c-.91-.766-.96-.762-1.62-1.711zm100.08 121.386-.73 2.744c-.87-1.03-1.48-1.766-2.27-2.852z"/><path fill="#cf9155" d="M1399.98 220.69c21.01.752 39.17 4.912 53.34 21.989 9.45 11.611 9.22 27.046 15.48 41.34 11.24 17.801 37.05 25.143 48.02 40.744 3.04 2.425 3.49 3.112 5.91 6.244 5.65 7.135 10.54 21.92 11.46 30.983 3.08 30.27 27.78 25.261 47.47 39.393 7.54 6.221 8.7 6.8 15.03 14.85 1.49 1.612 2.55 3.091 3.88 4.837l.39.802c2.83 3.698 5.65 7.223 8.24 11.115l.51.364c32.34 39.862 53.78 3.877 86.68 12.288 30.88 7.893 24.15 28.184 68.75 14.119-17.58 13.086-35.45 23.701-56.07 13.378-5.62-2.816-16.05-5.841-22.17-6.33-10.92-.871-23.63 4.244-34.5 5.801-48.06 6.885-53.24-28.468-81.4-52.529-10.24-8.749-34.23-10.267-45.56-26.028-12.4-17.249-8.81-41.609-21.72-55.65-12.94-14.076-37.12-22.592-48.7-40.037-16.31-24.567-5.7-47.992-32.61-67.122l-1.18-.826a125 125 0 0 1-7.44-4.141c-5.31-2.245-8.16-3.003-13.81-5.584"/><path fill="#392b1a" d="m1421.23 230.415 3-.693 1.09.817c25.27 19.333 15.42 42.448 31.85 66.856 12.41 18.458 34.61 24.947 48.02 39.349 12.36 13.281 9.91 38.987 21.79 55.589 12.11 16.92 34.82 16.851 46.55 26.898 26.3 22.516 30.93 56.511 75.93 51.644 8.67-.938 28.98-7.416 36.35-6.359 35.04 5.023 31.04 21.565 69 .207-4.31.444-15.19 1.68-18.94 1.245-21.79-2.529-19.85-15.892-44.38-19.352-3.54.116-7.09.098-10.64-.054-31.66 5.079-44.29 19.629-71.83-10.679l.69-2.532c32.34 39.862 53.78 3.877 86.68 12.288 30.88 7.893 24.15 28.184 68.75 14.119-17.58 13.086-35.45 23.701-56.07 13.378-5.62-2.816-16.05-5.841-22.17-6.33-10.92-.871-23.63 4.244-34.5 5.801-48.06 6.885-53.24-28.468-81.4-52.529-10.24-8.749-34.23-10.267-45.56-26.028-12.4-17.249-8.81-41.609-21.72-55.65-12.94-14.076-37.12-22.592-48.7-40.037-16.31-24.567-5.7-47.992-32.61-67.122z"/><path fill="#785634" d="M1680.85 446.562c4.4-1.116 6.25-1.01 10.64.054-3.54.116-7.09.098-10.64-.054m-158.12-115.555c5.65 7.135 10.54 21.92 11.46 30.983 3.08 30.27 27.78 25.261 47.47 39.393l-.51 1.989c-.48-.243-.95-.486-1.43-.729-10.73-8.174-25.62-9.471-36.38-17.198-9-6.467-10.59-18.183-12.34-28.452-1.71-10.126-5.26-17.654-11.33-26.048z"/><path fill="#151312" d="M1399.98 220.69c21.01.752 39.17 4.912 53.34 21.989l-2.19.89c-5.88-9.103-18.61-15.909-28.85-18.744l-1.77 2.442a84 84 0 0 1 3.72 2.455l-3 .693a125 125 0 0 1-7.44-4.141c-5.31-2.245-8.16-3.003-13.81-5.584"/><path fill="#583e27" d="M1415.26 224.916c2.05 1.075 3.03 1.506 5.25 2.351a84 84 0 0 1 3.72 2.455l-3 .693a125 125 0 0 1-7.44-4.141z"/><path fill="#a57241" d="M1415.26 224.916c.55-2.021 5.14-.337 7.02-.091l-1.77 2.442c-2.22-.845-3.2-1.276-5.25-2.351"/><path fill="#151312" d="M1468.8 284.019c11.24 17.801 37.05 25.143 48.02 40.744l-2.26.45c-.73-.877-1.55-1.931-2.36-2.74-.47-.532-.47-.573-1.08-.946-5.66-5.269-10.67-8.728-16.96-13.074-.64-.565-.54-.555-1.29-.83-1.64-.961-3-1.654-4.45-2.862-.62-.665-.64-.844-1.45-1.175a630 630 0 0 1-9.77-7.093c-.54-.586-.46-.584-1.12-.924-4.25-4.122-5.14-5.289-8.67-9.761z"/><path fill="#583e27" d="M1453.32 242.679c9.45 11.611 9.22 27.046 15.48 41.34l-1.39 1.789c-8.32-11.323-4.74-26.024-16.28-42.239z"/><path fill="#151312" d="M1581.66 401.383c7.54 6.221 8.7 6.8 15.03 14.85l-2.83-.294c-.88-1.251-.94-1.415-1.92-2.447-2.85-3.598-3.74-4.544-7.4-7.311-1.28-1.168-1.98-1.715-3.39-2.809zm17.72 21.512 1.58-1.023c2.83 3.698 5.65 7.223 8.24 11.115l-2.49.43c-1.93-3.976-4.61-7.04-7.33-10.522m-82.56-98.132c3.04 2.425 3.49 3.112 5.91 6.244l-3.06-.062c-.51-.704-1.03-1.498-1.6-2.124-.44-1.346-.86-2.699-1.25-4.058m79.87 91.47c1.49 1.612 2.55 3.091 3.88 4.837l-2.91.075c-.44-.708-.99-1.673-1.53-2.314z"/><path fill="#a57241" d="M1584.54 406.181c3.66 2.767 4.55 3.713 7.4 7.311-4.3-2.899-4.25-3.113-7.4-7.311"/><path fill="#785634" d="m1600.57 421.07.39.802-1.58 1.023c-1-.804-.93-.731-1.72-1.75zm-83.75-96.307c.39 1.359.81 2.712 1.25 4.058-1.7-1.41-2.09-1.914-3.51-3.608zm92.38 108.224.51.364-.69 2.532c-.91-.93-1.49-1.522-2.31-2.466zm-15.34-17.048 2.83.294-.56 2.598c-1.03-1.169-1.45-1.61-2.27-2.892"/><path fill="#cf9155" d="M1076.27 246.328c4.21-27.239 13.3-47.748 33.12-68.621 21.59-22.738 62.76-45.308 95.33-36.604 12.18 3.256 23.28 14.583 37.8 15.399 20.42 1.147 37.36-8.502 57.47-8.691 24.42-.209 38.74 9.518 55.51 25.763l1.66 2.045c7.7 10.001 10.34 14.906 15.19 26.597-21.58-23.908-53.33-35.982-85.9-32.639-10.56 1.084-23.17 4.854-33.83 7.122l-2.26.202c-23.49.636-28.96-4.841-49.18-14.021-20.12-9.13-51.02 7.278-68.61 17.355-30.13 19.816-41.28 34.351-56.3 66.093"/><path fill="#151312" d="M1076.27 246.328c4.21-27.239 13.3-47.748 33.12-68.621 21.59-22.738 62.76-45.308 95.33-36.604 12.18 3.256 23.28 14.583 37.8 15.399 20.42 1.147 37.36-8.502 57.47-8.691 24.42-.209 38.74 9.518 55.51 25.763l-2.19.985c-1.9-2.597-4.88-5.155-7.3-7.401-.76-1.035-.64-.966-1.8-1.529l-4.36-3.479c-.93-.62-1.28-.823-2.29-1.303-.67-.652-.79-.918-1.63-1.237-9.1-5.003-14.9-6.696-24.94-8.956-.9-.339-.77-.318-1.72-.39-5.4-.343-11.16-.109-16.6-.02-1.37-.165-1.33-.261-2.52.368-16.93 2.373-29.4 8.765-46.61 8.176-14.43-.493-30.55-13.95-40.85-16.192-36.89-8.033-82.33 20.029-102.94 49.473-9.5 13.565-12.62 19.921-16.98 35.054 11.92-17.711 29.73-38.99 49.33-48.633l.47 1.745c-30.13 19.816-41.28 34.351-56.3 66.093"/><path fill="#151312" d="M1288.88 166.83c5.51.358 8.21.349 13.67-.001 22.42 1.966 45.47 10.679 62.96 24.949-3.56-6.427-5.07-9.285-10.01-14.908l1.66-1.251c7.7 10.001 10.34 14.906 15.19 26.597-21.58-23.908-53.33-35.982-85.9-32.639-10.56 1.084-23.17 4.854-33.83 7.122l-.3-2.369c11.9-1.53 23.68-5.861 36.56-7.5m-109.03-7.908c4.87.194 8.74.132 13.6-.138 23.57 4.638 26.02 17.129 55.91 15.91 1.19-.494 1.48-.353 2.96-.364l.3 2.369-2.26.202c-23.49.636-28.96-4.841-49.18-14.021-20.12-9.13-51.02 7.278-68.61 17.355l-.47-1.745c15.43-9.357 29.9-16.484 47.75-19.568"/><path fill="#694b2e" d="M1249.36 174.694c1.19-.494 1.48-.353 2.96-.364l.3 2.369-2.26.202c.59-.755.83-.87.8-1.444-.58-.347-1.14-.532-1.8-.763"/><path fill="#785634" d="M1179.85 158.922c5.84-1.402 7.74-1.245 13.6-.138-4.86.27-8.73.332-13.6.138m109.03 7.908c5.7-1.194 7.97-1.109 13.67-.001-5.46.35-8.16.359-13.67.001m66.62 6.744 1.66 2.045-1.66 1.251c-.89-.326-1.2-.64-1.69-1.471l-.5-.84zm-65.35-22.962c1.19-.629 1.15-.533 2.52-.368-1.07.666-1.06.5-2.52.368"/><path fill="#232324" d="M1561.89 504.087c90.68 53.607 181.42 35.154 249.57-45.796 5.37-6.375 18.59-25.801 23.59-29.706l.68.823c-2.34 4.694-8.88 12.71-12.19 17.209-21.68 29.503-46.05 51.531-78.36 69.135-.54.533-.55.454-1.31.793a194 194 0 0 1-40.44 15.726c-50.96 13.006-99.79-.846-143.77-26.965zm125.54-119.702c18.28-2.747 40.12-15.285 52.26-13.976 29.83 3.215 39.31 20.857 73.61 9.471 37.17-12.34 38.76-52.598 72.19-62.637 3.83-1.152 13.31-1.103 16.95 1.296-2.9 1.354-2.97.683-6.77.119-2.45.366-2.36.289-4.81-.286l-1.29.248c-30.55 6.124-35.06 40.018-61.03 55.873-23.83 14.549-40.97 14.724-66.44 3.963-7.53-3.058-15.45-5.745-23.65-5.756-7.43-.01-17.3 2.637-24.04 5.807-31.73 14.946-52.57 8.578-78.62-12.401l2.32-.784c15.27 11.861 22.93 16.466 42.16 19.153 3.2-.651 3.84-.411 7.16-.09"/><path fill="#636466" d="M1680.27 384.475c3.2-.651 3.84-.411 7.16-.09-2.78.706-4.67 1.481-7.16.09"/><path fill="#6b726c" d="M1890.86 318.372c2.1-.751 2.94-1.023 4.81.286-2.45.366-2.36.289-4.81-.286"/><path fill="#232324" d="M1284.97 227.224c-19.99-9.426-47.17-17.601-67.77-7.434-22.56 11.134-42.85.22-63.46 12.391-22.95 13.547-23.67 39.189-48.77 53.935-19.05 11.19-27.33 32.399-33.15 52.248l-.63.178c1.36-35.044 26.76-47.087 48.52-67.91 13.94-13.345 14.16-33.76 38.11-42.758 23.39-8.786 41.55.225 63.65-11.918 17.3-8.568 48.2 1.464 65.4 10.168zm119.69 99.894c-2.43-2.522-14.64-14.494-15.1-17.023 4.52 2.087 12.13 11.132 16.06 15.033 25.01 24.791 41.46 53.904 61.34 82.44 25.27 36.298 57.53 72.432 94.93 96.519l-2.23 1.219c-14.15-9.271-26.68-19.674-39.08-31.117-.59-.438-.55-.387-.95-.996-48.02-44.369-70.08-96.588-114.04-145.026-.61-.495-.53-.379-.93-1.049m277.27 307.313c88.99-13.629 134.48-71.52 180.04-143.235 2.72-4.291 8.92-16.156 12.74-17.9l-.63.031.74.598c-4.26 9.404-13.25 20.527-18.79 29.707-36.97 61.282-98.29 128.209-174.64 132.626.09-.951-.04-1.16.54-1.827"/><path fill="#232324" d="M1746.84 590.484c-19.28 10.124-47.71 20.394-69.64 20.341l-.1-.992c3.32-1.335 19.84-3.967 24.27-4.795 26.06-4.865 43.16-14.385 64.37-29.227 45.67-31.975 66.93-68.092 96.84-112.244-1.77 7.268-11.78 22.158-16.33 28.962-25.06 37.508-57.41 73.998-96.94 96.505l-1.17.658c-.42.532-.59.487-1.3.792m-6.17-476.843a127 127 0 0 0 20.45 8.75c39.65 12.71 77.03-.755 108.72-25.29 11.04-8.553 24.49-20.776 36.61-26.896a60.46 60.46 0 0 1 46.57-3.746c-4.74.585-10.43-.276-15.28-.754-2.76.339-2.94.34-5.64-.215-32.31 4.122-40.85 18.973-66.62 37.494-38.57 27.725-82.31 36.607-125.38 12.614z"/><path fill="#6b726c" d="M1932.1 65.49c2.1-1.106 3.71-1.241 5.64.215-2.76.339-2.94.34-5.64-.215"/><path fill="#232324" d="m1853.7 450.667 1.02 1.164c-1.82 4.943-25.33 38.173-30.04 43.95-43.29 53.199-80.35 80.807-148.34 89.514l-.74-1.561c2.73-1.446 17.95-2.784 22.51-3.733 74.73-15.525 116.18-70.776 155.59-129.334"/><path fill="#232324" d="m1843.85 438.695 1.05 1.396c-1.45 4.681-4.96 8.245-7.66 12.333-36.66 55.539-91.36 103.59-160.81 106.688l-.76-.681c1.43-.859 18.56-3.1 21.78-3.727 67.2-13.096 110.34-61.357 146.4-116.009m-365.23 94.455c-26.03-30.948-47.17-62.591-69.2-96.396-4.19-6.43-14.87-20.773-17.4-27.092l.62-1.118c7.51 8.534 30.98 46.019 38.85 57.654 24.65 36.441 44.73 62.897 75.28 94.407l-.81 2.809a1107 1107 0 0 1-16.75-18.386c-1.19-1.127-1.21-1.205-2.09-2.616-.83-.491-.99-.467-1.49-1.243l-6.07-6.948c-.55-.474-.55-.462-.94-1.071m24.05-52.021c-25.42-27.111-44.63-52.625-64.82-83.983-2.18-3.396-9.17-12.523-9.74-15.592l1.32.056c6.24 6.91 12.69 18.082 18.02 25.979 29.25 43.35 66.26 89.755 110.38 118.423l-2.09 1.26c-12.13-8.595-22.18-16.127-33.15-26.1-.61-.434-.56-.372-.96-.99-5.82-5.303-11.69-11.526-17.24-17.199-1.14-.598-.98-.609-1.72-1.854m1.02 24.787c6.85 5.253 17.23 16.609 25.24 23.597 33.75 29.445 72.75 50.506 118.07 53.678 2.25.156 1.62-.227 3.66 1.075-2.6 1.929-12.83.299-16.39-.258-46.33-7.233-82.91-30.031-116.45-61.633-2.51-2.009-2.87-2.267-4.86-4.831l-.63-.566c-2.46-1.961-2.57-2.054-4.33-4.644l-.72-.329c-2.12-1.777-2.95-2.658-4.77-4.713z"/><path fill="#636466" d="M1508 512.334c2.76 1.648 2.71 1.759 4.33 4.644-2.46-1.961-2.57-2.054-4.33-4.644m-4.31-6.418c1.08 3.045 1.71 3.356 3.59 6.089-2.12-1.777-2.95-2.658-4.77-4.713z"/><path fill="#7c7a7a" d="M1512.96 517.544c2.68 1.767 2.81 2.206 4.86 4.831-2.51-2.009-2.87-2.267-4.86-4.831"/><path fill="#232324" d="M1510.49 564.603c48.68 45.979 74.58 61.355 141.34 71.045l-.18.86c-37.75 2.659-92.52-25.272-120.6-49.782l-.74-.651c-.7-.488-.75-.576-1.42-1.215l-6.33-5.655c-.58-.425-.56-.39-.96-.973-4.81-4.209-9.27-8.759-13.81-13.259zm-19.83-44.189c-26.69-32.221-51.4-63.658-73.09-99.607-3.34-5.538-12.1-17.358-12.9-23.047l1.08.058c8.52 12.657 16.8 27.447 25.78 40.845a845 845 0 0 0 64.04 84.09l.78.906-.47 2.364c-1.83-1.889-3.49-3.63-5.22-5.609"/><path fill="#636466" d="M1490.66 520.414c2.13 1.4 2.52 1.889 4.91 2.339l.78.906-.47 2.364c-1.83-1.889-3.49-3.63-5.22-5.609"/><path fill="#232324" d="M1493.97 497.673a707 707 0 0 1-65.61-87.516c-2.92-4.526-10.4-15.652-12.09-20.237l.74-.654c3.75 3.554 11.85 18.12 15.43 23.598a1073 1073 0 0 0 24.59 35.374c9 12.329 18.35 24.049 27.93 35.902 3.75 4.654 16.36 17.771 18.73 21.776l-1.18 1.376-7.28-8.219c-.74-.651-.74-.578-1.26-1.4m52.72 72.05c22.79 15.891 43.34 27.682 70.87 34.646 7.43 1.88 27.56 4.403 32.53 6.157-4.96 1.228-10.98-.194-15.99-.871-32.24-4.346-63.28-19.149-89.22-38.411zm11.14-43.711 2.28 1.44a193.2 193.2 0 0 0 61.9 26.245l4.54.96c6.76 1.424 12.9 2.101 19.72 2.728 1.47-.245 1.49-.349 2.37.77-2.44 2.348-10.42.373-13.64-.038-26.96-3.452-56.84-15.275-79.26-30.845z"/><path fill="#7c7a7a" d="M1646.27 557.385c1.47-.245 1.49-.349 2.37.77-1.4-.119-1.32.007-2.37-.77"/><path fill="#232324" d="M1583.63 293.309c13.19 9.896 21.71 29.877 31.03 44.308a133.4 133.4 0 0 0 23.45 27.705l-2.32.784c-9.94-9.414-13.25-13.563-21.09-24.591-9.22-12.969-20.09-38.406-32.64-46.759zm-87.28 230.35c21.62 21.998 23.94 26.48 50.34 46.064l-1.81 1.521c-.54-.415-1.08-.829-1.63-1.244-4.41-3.159-8.72-6.47-12.9-9.928-.77-.571-.89-.626-1.53-1.333-1.5-1.215-2.98-2.447-4.45-3.695-.91-.68-.86-.543-1.45-1.387-8-6.979-13.5-12.91-20.53-20.657-1.13-.618-.98-.627-1.72-1.869a286 286 0 0 1-4.79-5.108zm221.51-423.548c-4.41-4.035-27.98-27.186-27.98-32.097 2.04-.93 4.01 2.555 5 4.031 7.13 10.601 16.68 18.482 25.29 27.56z"/><path fill="#636466" d="m1286.87 226.124 1.17.513c6.8 2.852 16.87 9.465 22.09 14.583.34.336-.51.86-.78.694-7.94-4.187-15.37-9.951-23.5-14.145-.29-.182-.59-.363-.88-.545z"/><path fill="#484848" d="M1582.06 294.756c-8.91-5.755-13.64-5.8-23.65-6.011-.66-.014-.88-.275-1.2-.733-.2-6.04 22.69 2.636 26.42 5.297zm138.11-195.15c5.67 3.395 14.56 10.02 20.5 14.035l-.57 1.957c-5.41-2.319-13.76-8.773-18.5-12.275l-3.74-3.212z"/><path fill="#7c7a7a" d="m1720.17 99.606 1.43 3.717-3.74-3.212z"/><path fill="#636466" d="M1681.39 636.258c-5.24 1.792-9.45-.981.54-1.827-.58.667-.45.876-.54 1.827"/><path fill="#030403" d="M1506.77 560.605c1.24 1.388 2.43 2.651 3.72 3.998l-2.7.37q-.915-.788-1.83-1.559z"/><path fill="#fdfdfe" d="M2048 460.254v498.732c-113.88 1.593-231.23.055-345.32.023l-615.75-.447q-.135-12.344-.12-24.689c.03-99.655 45.83-201.063 101.18-281.996 8.5-12.414 26.16-38.681 36.47-48.979 27.69-1.159 46.64-12.032 54.82-39.933 6.28-.684 12.8-.741 19.13-.936 13.85 47.986 74.07 56.114 101.38 14.375 2.56-3.905 4.19-9.763 5.6-14.282 32.24 47.93 65.34 94.794 115.03 125.99 34.78 21.836 81.69 39.735 123 41.031 6.07 1.594 33.01 1.85 38.71.197 6.34-2.769 28.4-5.166 36.48-6.942 29.75-6.538 55.29-16.985 81.25-32.767.72-.334.66-.239 1.25-.758 3.05-1.593 6.88-4.243 9.83-6.158.82-.475.59-.297 1.16-.805 2.01-1.244 4.09-2.875 6.01-4.29.71-.462.84-.535 1.43-1.142l1.81-1.103c.82-.652 1.31-1.01 2.05-1.765l2.36-1.468c.42-.436.84-.872 1.25-1.309 5.72-4.266 8.07-6.279 13.11-11.313 2.27-1.023 3.07-2.366 4.77-4.257 22.47-15.444 66.86-87.991 84.77-113.944.55-.55.55-.48.88-1.143 4.97-5.931 13.2-18.133 18.05-24.907.56-.521.57-.461.91-1.099l4.61-4.92c3.83-2.637 6.6-8.058 11.08-9.361l1.59-.49c4.01-2.762 9.68-8.192 14.19-11.556 18.94-14.129 37.18-21.638 60.34-26.367 2.24-.387 4.46-.756 6.69-1.222"/><path fill="#151312" d="M1954.11 509.25c3.83-2.637 6.6-8.058 11.08-9.361l1.59-.49c-35.72 36.11-59.68 82.819-89.72 123.492-22.98 31.12-53.5 56.705-87.31 75.223a253.7 253.7 0 0 1-107.62 31.226c6.34-2.769 28.4-5.166 36.48-6.942 29.75-6.538 55.29-16.985 81.25-32.767.72-.334.66-.239 1.25-.758 3.05-1.593 6.88-4.243 9.83-6.158.82-.475.59-.297 1.16-.805 2.01-1.244 4.09-2.875 6.01-4.29.71-.462.84-.535 1.43-1.142l1.81-1.103c.82-.652 1.31-1.01 2.05-1.765l2.36-1.468c.42-.436.84-.872 1.25-1.309 5.72-4.266 8.07-6.279 13.11-11.313 2.27-1.023 3.07-2.366 4.77-4.257 22.47-15.444 66.86-87.991 84.77-113.944.55-.55.55-.48.88-1.143 4.97-5.931 13.2-18.133 18.05-24.907.56-.521.57-.461.91-1.099z"/><path fill="#fdfdfe" d="M553.39 1964.87c2.329-1.8 3.777-3.05 5.934-5.05l.398 4.2c1.33-.22 2.004-.28 3.246-.69q1.854.045 3.707.12c1.814 1.19 2.678 1.32 3.246 3.45 20.097.4 40.115-.19 60.147-.01l8.86 6.74c.598.88.567.74 1.548 1.42 14.132 12.6 11.109 9.29 20.677 24.68l.848-.75c-2.792-11.91-18.435-23.71-27.643-32.12 73.509 1.2 149.323.4 222.955.27-1.29 3.33-2.498 5.59-2.469 9.16 2.365-1.73 3.951-6.21 5.277-9.12q188.457 1.05 376.919-.06c3.26 2.28 5.8 4.45 8.85 7.01l1.75-1.26c6.81 5.21 11.15 9.04 19.2 12.75 20.27 9.34 27.82-.96 46.84 9.98 1.52 1.09 1.64 1.18 2.96 2.49 4.78 3.78 7.73 6.99 12.18 10.87l.37.61-.6 1.83c15.69 9.42 34.38.5 50.45 13.08 5.22 4.08 11.15 9.93 5.98 16.66l.45 2.69c-1.41 1.44-2.57 2.69-3.92 4.18H0v-80.92h554.912z"/><path fill="#fdfdfe" d="M870.122 1997.1c9.821-.72 27.629 4.53 33.068 2.85 40.686-12.59 28.849-36.27 71.867-5.21l1.488-1.4c30.305 11.12 30.375-7.32 59.455-2.35 19.59 3.35 24.17 16.34 37.89 25.22l1.52.9c2.18.96 4.59 1.73 6.86 2.48 4.19-.44 7.24-.48 11.47-.53 19.11-1.45 35.32-12.74 53.81.27l-1.35 1.32c9.21 8.1 11.66 15.65 14.21 27.35H783.33a324 324 0 0 1 5.866-11.91c19.052-26.49 28.685-11.32 54.478-19.7 7.929-2.58 17.738-14.42 26.448-19.29"/><path fill="#232324" d="M976.545 1993.34c30.305 11.12 30.375-7.32 59.455-2.35 19.59 3.35 24.17 16.34 37.89 25.22l-2.18 1.41c-1.62-1.49-2.13-1.92-3.86-3.26a52 52 0 0 1-9.21-9.22c-38.43-32.32-49.78 6.8-83.583-10.4z"/><path fill="#7c7a7a" d="M1058.64 2005.14c3.52 2.65 6.46 5.79 9.21 9.22a52 52 0 0 1-9.21-9.22"/><path fill="#232324" d="M1093.74 2019.06c19.11-1.45 35.32-12.74 53.81.27l-1.35 1.32c-19.02-11.52-35.06-.56-55.42.74-.74-.36-1.17-.44-1.33-.8.37-.51 3.77-1.35 4.29-1.53"/><path fill="#6b726c" d="M1075.41 2017.11c2.18.96 4.59 1.73 6.86 2.48 4.19-.44 7.24-.48 11.47-.53-.52.18-3.92 1.02-4.29 1.53.16.36.59.44 1.33.8-2.75 1.14-6.27.46-9.21.1-.5-.16-.99-.32-1.48-.48a99 99 0 0 1-6.02-2.27z"/><path fill="#232324" d="M1075.41 2017.11c2.18.96 4.59 1.73 6.86 2.48l1.84.44c1.04.23 2.21.29 3.34.51-1.45.36-4.23.67-5.88.95-.5-.16-.99-.32-1.48-.48a99 99 0 0 1-6.02-2.27z"/><path fill="#7c7a7a" d="m1073.89 2016.21 1.52.9-1.34 1.63-2.36-1.12z"/><path fill="#fdfdfe" d="M0 2008.24c2.775.93 4.995 1.86 7.646 3.04 8.855 4.81 11.568 6.78 21.534 8.85 19.006 3.95 31.332-7.82 47.832 3.59.618.87.455.67 1.378 1.32 6.52 6.01 9.557 9.5 18.086 12.32 5.773-.52 9.25-.64 14.986-.21 17.07-.58 24.978-1.32 38.328 10.85H0z"/><path fill="#6b726c" d="M96.476 2037.36c5.773-.52 9.25-.64 14.986-.21-6.003 1.16-8.901 1.19-14.986.21"/><path fill="#232324" d="M946.53 1976.52c13.448 3.52 18.915 8.78 30.015 16.82l-1.488 1.4c-43.018-31.06-31.181-7.38-71.867 5.21-5.439 1.68-23.247-3.57-33.068-2.85-8.71 4.87-18.519 16.71-26.448 19.29-25.793 8.38-35.426-6.79-54.478 19.7l-1.179-1.53c15.366-27.07 35.599-11.58 57.757-21.15 8.285-3.58 16.054-16.79 26.416-18.28 11.667-1.67 22.732 5.4 34.297 2.09 18.352-6.91 19.129-15.58 40.043-20.7m-351.367 57.78c3.448-9.21 2.869-23.72 10.094-29.56 2.012-1.62 7.745.19 10.518.88 2.508-.55 2.415-.62 4.97-.34l7.757-.41c5.289.37 10.598.38 15.888.02 10.116 1.34 17.186 5.96 25.503 11.53a354 354 0 0 0 22.096-4.77l7.313 12.7c7.907 3.25 20.632 5.54 26.107 9.88.655 2.53.86 2.82 2.047 5.23-10.712-10.73-16.504-7.19-29.935-13.89-2.489-4.43-4.041-7.29-7.164-11.41-.692.18-1.349.46-2.04.38-29.508 7.54-18.078-.34-40.91-7.32-8.742-2.67-28.17 1.48-42.384-1.71-3.185 8.62-5.112 35.11-16.385 35.81 1.106-3.34 3.47-4.44 6.525-7.02"/><path fill="#636466" d="M615.775 2005.62c2.508-.55 2.415-.62 4.97-.34-1.948 1.37-2.759 1.11-4.97.34"/><path fill="#232324" d="M414.913 2003.69c-3.132-3.24-7.781-7.56-7.726-12.15 4.361 4.31 4.617 6.89 10.52 11.85 15.923 13.38 32.53 9.65 48.718 16.58 7.484 3.2 11.295 17.75 24.123 20.95 19.503 4.88 38.896-2.49 56.498 7.08h-5.792c-10.467-5.51-31.502-1.87-43.332-3.5-15.2-2.1-20.965-9.36-29.504-20.58-.572-1.05-.592-1-1.563-1.74-18.274-8.81-27.399-.69-50.503-17.11-.808-.62-.847-.58-1.439-1.38m-406.046 5.82c13.78 7.53 25.947 12.39 41.218 7.73 23.898-7.3 30.411 12.08 42.951 16.28 22.887 7.67 36.8-9.01 59.643 14.48h-2.889c-13.35-12.17-21.258-11.43-38.328-10.85-5.736-.43-9.213-.31-14.986.21-8.529-2.82-11.567-6.31-18.086-12.32-.923-.65-.76-.45-1.378-1.32-16.5-11.41-28.826.36-47.832-3.59-9.966-2.07-12.679-4.04-21.534-8.85zm146.841-27.79c14.159 10.79 25.372 20.05 44.881 17.64 13.187-1.48 27.738-11.79 40.215-2.74 9.372 6.79 13.164 18.4 21.875 25.71.79.74 1.58 1.47 2.371 2.2l-.058 2.24c-13.683-9.68-13.476-18.57-25.003-27.75-11.365-9.06-27.68 1.37-40.445 2.83-19.336 2.23-31.278-7.86-45.622-18.56zm1091.932-8.86c6.81 5.21 11.15 9.04 19.2 12.75 20.27 9.34 27.82-.96 46.84 9.98l-1.59 1.5c-5.04-2.36-6.65-3.44-12.34-4.51-5.45-1.05-10.37-.73-15.93-.36-12.55-1.22-27.42-8.23-36.56-16.9l-1.37-1.2zm-1109.217 1.57c8.047 2.23 10.102 3 17.285 7.29l-1.786 1.57c-.579-.33-1.153-.66-1.721-1-25.276-15.27-42.252 12.51-46.707 11.08-2.711-4.17 22.001-16.1 26.516-17.28zm166.676 64.79 1.714.61c13.108 4.9 26.412-.37 38.668 8.17h-4.429c-5.284-2.83-8.426-2.87-14.345-3.31-2.194.3-2.599.57-4.422-.43-7.296-.24-12.054-.16-18.444-4.04z"/><path fill="#6b726c" d="M322.285 2044.26c2.016-.43 2.676-.71 4.422.43-2.194.3-2.599.57-4.422-.43"/><path fill="#232324" d="M1147.55 2019.33c8.99 6.96 13.16 17.73 14.96 28.67h-2.1c-2.55-11.7-5-19.25-14.21-27.35zm-882.5 5.2c13.425 5.96 16.315 2.21 28.743 5.24l-1.614 1.31c-8.619.03-17.673.73-25.397-3.4l-1.79-.91z"/><path fill="#030403" d="M553.39 1964.87c2.329-1.8 3.777-3.05 5.934-5.05l.398 4.2c1.33-.22 2.004-.28 3.246-.69q1.854.045 3.707.12c1.814 1.19 2.678 1.32 3.246 3.45q-7.504.195-15.009.18z"/><path fill="#232324" d="M1316.64 1998.08c4.78 3.78 7.73 6.99 12.18 10.87l-3.1.19c-1.41-1.42-2.86-2.81-4.33-4.17-1.7-.89-2.19-1.85-3.35-3.44l-2.21-1.13z"/><path fill="#7c7a7a" d="M1318.04 2001.53c1.87 1.3 2.29 1.47 3.35 3.44-1.7-.89-2.19-1.85-3.35-3.44"/><path fill="#232324" d="m788.017 2034.56 1.179 1.53a324 324 0 0 0-5.866 11.91h-2.057c1.516-4.51 4.164-9.48 6.744-13.44m-62.608-.33c5.235 4.76 5.402 7.36 7.623 13.77h-2.23c-1.048-3.64-1.284-5.26-3.346-8.54-1.187-2.41-1.392-2.7-2.047-5.23M0 2005.77c3.157 1.31 5.744 2.18 8.867 3.74l-1.221 1.77c-2.65-1.18-4.871-2.11-7.646-3.04z"/><path fill="#636466" d="M293.793 2029.77c1.738 1.07 2.064 1.18 3.464 2.54.887 2.94 1.779 3.58 3.482 6.16-3-2.63-5.376-4.89-8.56-7.39z"/><path fill="#151312" d="m1385.02 2041.13.45 2.69c-1.41 1.44-2.57 2.69-3.92 4.18h-2.8c2.03-2.24 4.12-4.82 6.27-6.87"/><path fill="#232324" d="M297.257 2032.31c2.8 2.29 5.174 4.5 7.842 6.91l-1.258 1a87 87 0 0 0-3.102-1.75c-1.703-2.58-2.595-3.22-3.482-6.16"/><path fill="#636466" d="M628.502 2004.87c6.238-1.27 9.665-1.32 15.888.02-5.29.36-10.599.35-15.888-.02"/><path fill="#6b726c" d="M1283.82 1992.22c5.56-.37 10.48-.69 15.93.36-5.95.57-10.04.74-15.93-.36"/><path fill="#636466" d="M1313.68 1995.59c1.52 1.09 1.64 1.18 2.96 2.49l-.81 2.32c-1.22-1.13-2.47-2.23-3.74-3.31z"/><path fill="#7c7a7a" d="m1328.82 2008.95.37.61-.6 1.83-2.87-2.25z"/><path fill="#fdfdfe" d="M1247.64 1972.86c-2.25-1.83-2.77-1.85-3.85-4.44 2.05-1.47 2.25-1.73 5.14-1.7 157.37 1.11 314.85-.27 472.26.16 39.22.11 80.86 1.41 119.9.01 1.32.05 2.56.05 3.88.05 16.37.84 37.03.59 53.44.14 24.14-.67 31.49.43 53.87 8.6 14.14 7.16 19.28 11.56 21.85 27.8 1.27 8.08 6.01 11.83 10.37 17.97.86.88 1.61 1.58 2.5 2.41 2.07 2.34 4.1 4.71 6.1 7.11 4.11 4.92 7.02 8.09 12.46 11.35 7.09 3.59 9.02 3.84 16.74 5.68h-640.75c1.35-1.49 2.51-2.74 3.92-4.18l-.45-2.69c5.17-6.73-.76-12.58-5.98-16.66-16.07-12.58-34.76-3.66-50.45-13.08l.6-1.83-.37-.61c-4.45-3.88-7.4-7.09-12.18-10.87-1.32-1.31-1.44-1.4-2.96-2.49-19.02-10.94-26.57-.64-46.84-9.98-8.05-3.71-12.39-7.54-19.2-12.75"/><path fill="#232324" d="M1540.79 2003.25c15.82 48.08 53.52.03 56.3-.19-2.23 12.75-40.78 39.63-55.88 7.77-19.71 45.3-41.24 40.84-76.05 17.01-24.36-16.68-59.47-4.06-79.69 15.98l-.45-2.69c5.17-6.73-.76-12.58-5.98-16.66-16.07-12.58-34.76-3.66-50.45-13.08l.6-1.83c19.79 11.68 45.63-5.07 60.86 26.62 20.43-13.79 35.37-20.58 60.65-16.46 21.02 3.43 27.24 20.58 47.97 22.9 24.33 2.72 37.37-18.62 42.12-39.37"/><path fill="#fdfdfe" d="m1892.8 2044.89 3.19-1.72c20.02-10.95 34.14-11.16 53.63.98 1.71 1.3 3.4 2.53 5.1 3.85h-64.89z"/><path fill="#232324" d="M1776.22 2006.05c.24.16.48.33.72.5 19.32 17.1 30.3 30.98 59.52 27.21 17.48-2.26 26.87-7.65 43.86 2.58 2.68 2.44 7.38 7.54 10.76 7.58l1.72.97-2.97 3.11h-1.06c-3.36-4.69-5.46-6.31-9.69-10.13-30.45-16.94-46.08 16.45-89.19-16.48-4.65-5.77-9.22-8.66-13.67-15.34m-123.24-31.86c8.73 12.46 12.29 22.6 29.46 25.36 11.2 1.79 16.62-.93 25.44-6.16 7.61-4.52 16.04-17.34 17.5-17.95l.16.03c.26.52.2 1.38-.08 1.86-8.46 14.72-25.62 27.65-43.45 24.42-7.43-1.34-12.52-4.61-18.76-8.22 10.17 14.33 8.18 9.5 17.86 19.14l-.12 2.13c-2.17-1.65-4.32-3.09-6.5-4.75-2.93-2.26-3.64-3.14-5.93-5.96-7.19-8.87-11.44-19.42-15.58-29.9"/><path fill="#7c7a7a" d="M1668.56 2004.09c3.14 2.5 3.57 2.82 5.93 5.96-2.93-2.26-3.64-3.14-5.93-5.96"/><path fill="#484848" d="M1681.11 2012.67c11.65 4.28 20.71-.4 31.22-5.56 15.25-7.49 51.29-16.46 63.89-1.06 4.45 6.68 9.02 9.57 13.67 15.34-7.47-5.86-12.7-14.51-21.81-18.35-13.68-5.94-29.54-3.03-43.28 1.18-15.15 4.64-27.27 17.65-43.81 10.58z"/><path fill="#fdfdfe" d="M1957.99 2048c14.35-8.33 28.43-9.56 42.19 0z"/><path fill="#232324" d="M1891.08 2043.92c16.62-12.84 42.57-15.5 59.3-1.43l-.76 1.66c-19.49-12.14-33.61-11.93-53.63-.98l-3.19 1.72zm59.3-1.43 3.64 2.36c5.97 3.84 22.93-16.7 48.4 2.58l.77.57h-3.01c-13.76-9.56-27.84-8.33-42.19 0h-3.27c-1.7-1.32-3.39-2.55-5.1-3.85zm-410.72-13.27c3.02.92 25.2 9.8 26.54 11.68-5.22-.27-25.79-7.22-26.54-11.68"/><path fill="#4d6172" d="M1710.01 1855.97c-6.45-12.01-19.63-56.59.24-66.06 4.8-2.28 13.85 5.18 17.91 8.58.69.37.58.33 1.13.93l20.13 14.75c3.36 11.86 5.81 26.82 9.86 37.68 2.67-8.74 3.27-19.26 4.05-28.47 14.64 8.02 28.7 13.4 43.54 20.81 1.68.84 3.07 3.91 3.89 5.61 1.18 1.12 1.25 1.48 1.84 3.1l2.08 3.96c.58.47.56.5 1.12 1.15l1.95 3.86c.46 1 .71 1.16 1.43 2.03.77 1.53 1.49 2.47 2.45 3.89.56 1.11 1.04 1.57 1.83 2.54.82.92 1.49 2.25 2.13 3.34.67.46.61.51 1.09 1.24 2.12 2.59 4.73 6.79 6.66 9.67l1.25-.82c.92-7.14-7.17-26.78-10.04-34.81 15.56 4.35 28.54 6.89 44.49 9.85 2.9 3.81 7.06 10.73 9.78 14.98.51.57.48.66.82 1.35l3.11 5.53c.54.72.5.56.74 1.32 2.18 3.63 3.48 6.48 6.82 9.08l1.36-.65c.85-6.91-4.68-21.67-7.06-28.86 10.13 2.86 17.25 5.87 26.45 10.92.78.29.62.21 1.35.68l3.65 2.38c.32.69.83.94 1.47 1.44 1.32.49 1.18.42 2.34 1.24 1.98 1.33 4.53 2.92 6.35 4.38 1.24.66 1.16.52 1.96 1.56l3.39 2.97c2.91 3.56 8.4 9.16 11.93 11.97l.81 1.26c.85.77 1.23 1.25 1.97 2.11l1.15 2.11c.68 1.23 1.32 1.89 2.21 2.99.57.61.57.67 1.03 1.41 1.68 3.15 2.29 3.06 2.16 6.14-2.79 1.5-12.96.4-17.08.15-65.25-4.09-144-18.95-192.27-66.14-3.91-3.82-21.29-27.46-24.39-27.51.88 4.13 5.58 9.52 8.11 12.95 51.14 69.48 144.24 93.03 226.55 92.6-8.46 10.81-38.51 36-51.61 35.64.07-3.66 5.72-10.42 7.18-14.34 1.16-3.1 1.37-6.13 1.81-9.37-6.83 7.24-13.28 14.82-21.95 19.78-.78.24-.65.2-1.31.73l-4.02 2.66c-8.5 2.28-27.2 2.64-35.48.8-5.93-3.26-18.64-4.17-23.39-7.87l.29-1.91c3.92-4.23 10.2-7.01 15.44-9.83.51-.64.4-.61 1.09-.89l2.09-1.44c3.15-2.17 7.35-4.47 8.05-8.23-2.16-.71-3.25-.79-5.48.02-14.83 5.38-27.92 10.17-43.54 13.36-10.06-3.68-23.33-11.56-32.17-17.88l-.08-1.35c8.26-4.89 13.51-3.2 26.79-12.18-31.25 2.03-39.54 6.74-62.06-18.46-.6-.56-.44-.36-.82-1.02l-3.23-4.01c-.52-.58-.5-.49-.78-1.17-3.04-3.49-10.81-15.16-12.97-19.26l.94-.9c4.92.12 5.61-.1 10.48-1.01 2.24-.2 10.05-2.6 12.65-3.34-12.63-3.07-19.71-4.64-31.66-9.72"/><path fill="#fdfdfe" d="m1933.4 1966.51 114.6.35V2048h-25.7c-7.72-1.84-9.65-2.09-16.74-5.68-5.44-3.26-8.35-6.43-12.46-11.35-2-2.4-4.03-4.77-6.1-7.11-.89-.83-1.64-1.53-2.5-2.41-4.36-6.14-9.1-9.89-10.37-17.97-2.57-16.24-7.71-20.64-21.85-27.8l.71-2.01c-6.7-2.23-13-4.64-19.59-7.16"/><path fill="#232324" d="M2030.18 2045.26c10.57 1.19 9.21-2.12 17.82-4.42v7.16h-25.7c-7.72-1.84-9.65-2.09-16.74-5.68l.78-1.91c12.26 5.98 11.53 3.79 23.84 4.85m-77.19-71.59c8.87 4.81 19.87 10.36 21.39 21.26 2.06 14.81 4.51 13.89 11.37 24.65l-1.25 1.87c-4.36-6.14-9.1-9.89-10.37-17.97-2.57-16.24-7.71-20.64-21.85-27.8z"/><path fill="url(#b)" d="M2030.18 2045.26c5.7-2.65 9.24-2.29 15.32-6.27l2.5-1.66v3.51c-8.61 2.3-7.25 5.61-17.82 4.42"/><path fill="#484848" d="M1995.32 2030.13c4.8 5.26 6.21 5.84 11.02 10.28l-.78 1.91c-5.44-3.26-8.35-6.43-12.46-11.35z"/><path fill="#232324" d="M1985.75 2019.58c3.94 3.33 6.16 6.67 9.57 10.55l-2.22.84c-2-2.4-4.03-4.77-6.1-7.11-.89-.83-1.64-1.53-2.5-2.41z"/><path fill="#636466" d="m1985.75 2019.58 1.25 4.28c-.89-.83-1.64-1.53-2.5-2.41z"/><path fill="#cf9155" d="M1925.42 1923.81c-4.46.07-18.91-1.52-23.61-2.06-42.54-4.88-89.79-18.61-125.08-43.2 36.27 15.92 70.16 28 109.48 34.27 13.89 2.21 28.9 2.65 41.73 4.6l1.74.28c-.5.18-1.47.43-1.77.82.5.8 5.27.55 4.02 2.71-.8 1.38-4.75 2.02-6.51 2.58"/><path fill="#f4ebe8" d="M1966.04 1918.1c4.55-.06 37.42-1.34 38.88.01.21.19.33.46.33.75.02 1.86-6.91 2.48-8.19 2.74-14.33 1.96-26.86 2.19-41.14 2.75-.04-6.31-.3-4.79 5.79-6.39 1.5.07 2.82.11 4.33.14"/><path fill="#e0ad7f" d="M1929.68 1917.7c11.2.4 20.95.35 32.03.26-6.09 1.6-5.83.08-5.79 6.39-10.62.62-19.9.26-30.5-.54 1.76-.56 5.71-1.2 6.51-2.58 1.25-2.16-3.52-1.91-4.02-2.71.3-.39 1.27-.64 1.77-.82"/><path fill="#030403" d="M1883.85 1962.26c-.02.28-.14 3.67-.89 3.74-12.31 1.11-25.42-.7-37.99.94-1.32 0-2.56 0-3.88-.05.79-2.4 3.44-.98 7.28-3.83 8.28 1.84 26.98 1.48 35.48-.8"/><path fill="#f4ebe8" d="M1886.56 1874.79c.41 1.53 2.69 8.82 1.75 9.72-1.3-.13-3.37-4.46-3.8-5.72zm-378.48 86.24 3.44.72c.91.18 4.18.6 4.64 1.69-.57.84-7.02.68-8.12.68zm-58.92-41.88c2.65-.18 4.53-.48 7.02.16l.08-.1.16.17c-1.3 1.24-6.22 2.14-7.99 2.63zm327.3-.1c1.18-.01 7.05-.34 7.81.45-.06.1-.12.2-.18.31-1.64 1.03-2.38 1.13-4.31 1.66-1.25-.98-1.99-1.54-3.32-2.42"/><path fill="#42515d" d="M1931.57 1887.12c4.58 3.59 8.49 7.24 11.93 11.97-3.53-2.81-9.02-8.41-11.93-11.97"/><path fill="#f4ebe8" d="m1560.57 1879.26.44 3.77c.1.76.37 1.94-.37 2.38-.7-.42-1.59-1.81-2.14-2.43z"/><path fill="#42515d" d="M1718.54 1870.04c5.26-1.47 4.69-1.21 10.48-1.01-4.87.91-5.56 1.13-10.48 1.01"/><path fill="#4d6172" d="M1016.32 539.948a277 277 0 0 1 10.4-17.047c29.93-45.079 73.76-78.248 127.42-88.709a211.5 211.5 0 0 1 159.95 31.326c.78.325.7.408 1.14 1.207 1.39.575 1.32.539 2.55 1.406 1.99 1.31 4.57 2.887 6.39 4.326.7.345.59.313 1.14.928 2.67 1.916 5.65 3.913 8.02 6.156 1.19.593 1.08.467 1.88 1.448l2.39 2.096c2.02 1.533 4.1 2.96 5.55 5.057 1.54 1.413 5.16 4.566 6.45 5.953 4.09 3.199 6.06 5.117 9.23 9.212l5.07 5.521c2.19 1.66 3.27 3.296 4.88 5.493l2.09 2.407c1.06.878.96.783 1.58 1.99l3.31 4.161c.69.514.7.643 1.26 1.362l1.56 2.393c.7.555.48.355 1.2 1.166 7.44 11.42 15.89 21.553 22.92 33.772-5.78 22.442-22.38 37.351-45.92 38.792-2.97 1.611-10.52.685-13.89-.204-23.65-4.918-36.5-17.134-41.92-40.768-7.85.083-15.88.386-23.75.595-13.95 56.348-91.91 51.995-104.15-1.155-7.8.452-15.62.847-23.43 1.184-8.08 43.016-67.19 54.329-93.26 21.112-5.6-7.143-7.61-12.834-10.91-21.159l-25.33-.99c-11.64 48.47-73.306 55.94-98.617 14.539-2.051-3.354-3.753-9.984-4.934-13.914-6.889-.299-15.211.151-22.228.357-1.274 5.329-2.213 9.134-4.983 14.015a52.58 52.58 0 0 1-32.336 24.747c-30.986 8.367-59.169-7.834-67.496-39.004-7.217.445-15.639.26-22.971.267-1.92 6.969-2.882 10.708-6.888 16.975a50.68 50.68 0 0 1-33.122 22.383 57.78 57.78 0 0 1-44.506-9.604c-12.034-8.476-17.438-18.722-19.933-32.722 2.232-4.122 4.795-7.939 7.333-11.879.341-.689.315-.858.847-1.28l4.098-5.934c.474-.709.451-.788 1.079-1.274l1.441-2.407c.59-.628.898-.988 1.527-1.518l1.646-2.608c.508-.593.653-.805 1.195-1.276l4.073-4.857c.415-.629.351-.643.922-1.131l4.351-5.2c.588-1.155.473-1.063 1.56-1.781 5.162-6.379 14.496-15.18 20.681-20.618.745-1.121.694-.961 2.004-1.63l4.75-4.227c.504-.489.495-.518 1.124-.834l3.905-3.173c.581-.543.485-.519 1.183-.831 5.012-4.566 11.176-8.53 16.855-12.191.6-.588.482-.554 1.225-.854a192.42 192.42 0 0 1 145.919-27.912c25.103 5.248 54.289 17.486 74.329 33.861.969.442.473.196 1.483.748l2.474 2.231c.81.381.738.367 1.491.936l2.438 2.081c1.344.675 1.3.522 2.111 1.63l4.609 4.062c4.113 3.185 6.938 5.892 10.057 10.062l4.007 4.642c.558.373.527.45.924 1.069l4.082 4.917c1.28.944 1.133 1 2.123 2.573l1.518 2.216c.79.67 1.34 1.687 1.91 2.555l.24.363c.64.65.62.53.94 1.234 4.59 6.104 8.51 14.291 11.74 21.165"/><path fill="#42515d" d="M1342.89 600.16c3.68-.089 10.28-.18 13.89.204-2.97 1.611-10.52.685-13.89-.204M978.779 489.152c4.113 3.185 6.938 5.892 10.057 10.062-2.613-1.909-7.257-6.076-9.078-8.711zm370.821 4.943c4.09 3.199 6.06 5.117 9.23 9.212-3.58-2.763-6.41-5.671-9.23-9.212m14.3 14.733c2.19 1.66 3.27 3.296 4.88 5.493-2.4-1.9-3.94-2.696-4.88-5.493m-26.3-25.743c2.02 1.533 4.1 2.96 5.55 5.057-2.68-.786-3.73-2.771-5.55-5.057m33.27 33.643c1.06.878.96.783 1.58 1.99-1.65-.231-1.5-.417-1.58-1.99m-678.672-.855c-.202 1.409-.169 1.462-1.56 1.781.588-1.155.473-1.063 1.56-1.781"/><path fill="#cf9155" d="M1160.53 1460.53c6.41 5.69 11.41 25.08 12.47 33.52 4.66 37.14-8.92 55.99-30.1 84.11-7.86 10.45-19.71 29.67-25.86 41.2-8.13 15.26-16.73 39.28-20.23 56.2-2.35 11.39-3.34 22.72-6.34 34.51a209.7 209.7 0 0 1-23.45 56.18c-21.84 37.03-51.92 67.05-85.774 93.11-44.639 34.36-87.687 59.26-122.301 104.9-24.723.26-49.449.3-74.173.1l-16.037.15c24.91-77.25 122.927-124.54 185.73-170.44a341 341 0 0 0 52.185-46.17 252.46 252.46 0 0 0 59.54-118.4c5.71-27.92 5.49-39.74 18.47-67.38 19.63-41.83 50.46-65.35 75.87-101.59"/><path fill="#4d6172" d="M889.314 1770.87c2.101-3.3 8.787-13.92 11.124-16.05 13.898-12.7 31.842-22.18 47.272-34.22 21.418-16.7 37.675-30.77 54.08-53.05 14.56-20.48 34.47-56.08 37.85-81.29 2.59-32.12 14.8-60.58 28.63-89.25 5.96-12.34 45.03-82.2 55.09-85.52l1.69 1.85c1.01 1.47 1.72 2.93 2.56 4.51.65.45.92.74 1.48 1.27l1.43 2.58c.68.48.73.65 1.28 1.36l2.02 2.61c1.53 1.25 1.73 1.5 2.59 3.35 1.96 2.1 4.55 4.73 6.37 6.86 2 1.32 3.51 3.55 4.99 5.47l3.01 3.49c1.29 1.04 1.94 2.48 2.79 3.89.89.73 1.43 1.84 2.05 2.78.92.87 1.38 1.54 2.18 2.55.88 2.6 1.47 3.84-.32 6.38-24.73 35.14-57.65 61.98-75.77 101.97-10.45 23.06-14.28 43.73-18.26 68.44-7.63 36.58-24.63 74.13-48.11 103.17a321 321 0 0 1-55.53 52.94c-67.672 51.31-163.934 92.95-193.428 177.48-23.064-.13-47.614-.58-70.592.1 4.2-10.71 11.694-25.68 18.774-34.76.277-.69.257-.57.883-1.08l1.583-2.64 1.288-1.2c4.924-6.83 10.519-12.87 16.247-19.03 3.401-4.13 5.804-6.48 9.992-9.77 7.314-8.1 19.305-16.88 28.18-23.55.537-.54.487-.53 1.168-.84a289 289 0 0 1 27.234-18.6c1.237-.91 1.22-.91 2.608-1.55.406-.68.334-.74 1.028-1l5.892-4.12c.539-.57.435-.55 1.117-.83l7.02-5.12c.641-.65.517-.59 1.314-.99l2.343-1.79c.749-.67.746-.74 1.592-1.19l2.41-1.9c.639-.57.622-.62 1.349-.97l3.856-3.16c.606-.58.441-.45 1.139-.85 23.961-19.58 37.101-32.57 55.605-57.56.41-.69.301-.67.902-1.17"/><path fill="#42515d" d="M734.565 1905.83c3.401-4.13 5.804-6.48 9.992-9.77-3.737 4.44-5.508 6.29-9.992 9.77m408.215-469.95c2 1.32 3.51 3.55 4.99 5.47-2.37-1.91-3.83-2.74-4.99-5.47m-8.96-10.21c1.53 1.25 1.73 1.5 2.59 3.35-1.93-1.1-1.84-1.21-2.59-3.35"/><path fill="#cf9155" d="M1139.32 1108.7c9.75 12.65 13.97 47 11.79 63.51-6.14 46.36-31.4 64.92-63 94.35-20.51 19.1-41.99 40.67-56.58 64.32a280.5 280.5 0 0 0-32.716 74.81c-4.805 17.87-7.601 37.02-11.583 55.14-12.392 56.39-33.943 90.06-78.792 125.25l-6.046-10.71c-10.578-15.95-17.096-25.59-24.015-43.32 114.022-76.84 57.828-159.14 117.16-253.11 33.152-52.51 85.782-77.87 120.202-125.77 10.07-14.01 17-28.63 23.58-44.47"/><path fill="#4d6172" d="M1110.24 1056.51c3.41 3.09 25.21 42.89 27.66 48.77-27.28 80.4-101.76 104.26-144.444 172.74-25.22 40.47-30.909 77.98-36.044 124.26-5.991 54-31.765 89.1-72.879 122.36-1.15 1.02-5.477 3.6-7.016 4.56-10.168-45.82 6.237-70.04 35.268-104.32 4.414-6.02 11.872-13.28 15.303-19.69 26.109-48.75 32.475-90.35 10.464-144.01 8.309-18.07 15.23-30.74 27.976-46.19 46.412-56.25 119.292-85.76 143.712-158.48m12.29 556.94 1.88 3.03c-3.93 13.65-6.93 24.79-7.59 39.21.08 5.47.09 10.93.02 16.4.42 4.93.78 9.81 1.48 14.72.35.96.35.82.27 1.81 1.58 9.39 6.96 26.48 7.44 32.65 1.38 17.95-2.15 43.99-7.53 61.09-18.81 59.79-63.94 98.74-109.97 137.66-12.77 10.8-34.178 30.47-44.782 43.44l-.87 1.08a7417 7417 0 0 0-101.169-.18c22.874-29.05 52.255-52.53 81.808-73.77 51.334-36.62 99.303-73.92 129.973-130.55 17.33-32.02 20.44-53.51 26.53-88.03 2.91-16.53 15.06-43.54 22.51-58.56"/><path fill="#42515d" d="M1116.82 1655.69c.08 5.47.09 10.93.02 16.4-1.37-6.58-1.29-9.75-.02-16.4"/><path fill="#cf9155" d="M1096.05 1339.76c2.37 2.68 5.23 22.56 7.31 28.87 5.47 16.59 9.13 24.79 18.24 39.6-30.35 33.97-64.97 99.3-78.24 143.25-2.56 8.47-3.94 22.82-5.79 31.98-2.98 14.78-7.52 26.97-13.54 40.68-22.67 51.6-57.452 81.3-102.391 111.94-6.069 4.26-9.884 6.61-16.369 10.21 16.091-31.22 24.273-57.61 22.824-93 48.404-33.03 79.236-94.77 85.666-151.72 1.46-12.92 3.62-26.52 7.44-38.95a300.46 300.46 0 0 1 74.85-122.86"/><path fill="#4d6172" d="M1378.55 1793.05c10.74-7.73 16.5 2.83 24.58 6.37 1.49.81 1.35.71 2.47 1.9l2.48 2.14c.79.38.76.39 1.51.93l2.48 2.06c.78.38.79.41 1.52.95l2.48 2.05c.94.41 1.14.73 1.93 1.42l1.7 1.39c1.21.6 1.82 1.25 2.87 2.13 3.53 4.71 3.06 28.47 10.08 34.68l1.18.09c.77-4.23 1.78-19.53 2.66-25.83 13.4 6.88 27.48 14.6 41.49 19.88.99.71 1.03.63 1.48 1.72 2.29 3.74 5.16 8.16 7.23 11.94.66.5 1.22 1.57 1.66 2.25.88 1.06 1.55 2.42 2.24 3.63.65.56.74.77 1.25 1.43l1.69 2.58c.87.67 1.39 1.75 1.99 2.65.59.68.59.75 1.04 1.56l3.08 4.72c.6.69.54.53.85 1.28 1.57 2.84 2.66 6.07 6.01 6.33 1.34-4.02-6.45-26.94-8-32.49 8.14 1.54 39.18 6.76 43.76 9.06 1.03 1.21 1.62 2.5 2.4 3.9.56.48.53.7.82 1.43 1.99 3.07 4.18 6.65 6.34 9.56.5.59.45.67.76 1.39 2.84 4.26 7.28 15.5 10.48 17.44l.96-1.29c.41-9.85-3.52-21.18-6.34-30.77 10.53 3.41 21.1 7.97 30.39 13.99.79.3.7.38 1.15 1.16 2.09.86 2.88 1.6 4.74 2.89.79.26.73.28 1.37.88l1.36.74c1.04.51 1.86 1.05 2.56 1.98l1.4.97c1.32.88 2.58 1.72 3.48 3.05 5.54 4.88 7.96 7.06 12.69 12.68 1.34.91 1.18.97 2.19 2.59l1.46 2.19c1.42 1.18 1.49 1.47 2.09 3.28 1.8 3.96 2.4 3.55 1.8 7.07-5.62 3.26-69.84-5.78-80.65-8.04-56.07-11.73-115.89-32.35-147.6-83.65-.87-1.4-1.19-.8-2.21-.27 1.63 5.04 6.44 10.67 9.8 14.87a212.7 212.7 0 0 0 67.97 55.89c47.64 24.45 102.2 33.41 155.44 33.44-17.35 18.16-28.08 25.18-51.54 35.51l-.35-.9c3.26-6.88 8.16-15.79 10.52-22.57-12.18 11.78-17.07 14.81-31.21 23.11l-1.66.58c-14.06 1.98-44.87-1.24-56.03-7.65l-.29-1.44 7.05-3.71c.61-.47.52-.46 1.22-.68 5.73-3.51 20.28-12.3 23.03-17.92l-1.12-1.08c-.67 0-22.78 8.06-24.93 8.89-26.62 10.2-39.42.49-61.23-13.57 7.31-1.67 18.16-3.68 24.42-7.59l-.44-1.11c-3.66-.82-28.01-1.51-35.95-2.5-16.1-10.32-28.16-29.09-39.31-44.52 11.25-.12 14.76-.39 25.35-3.99-11.05-3.2-21.46-5.88-31.85-10.82-8.19-16.46-14.79-43.51-5.49-60.59.49-.77.62-.98 1.25-1.64"/><path fill="#42515d" d="m1599.25 1883.17 1.4.97c1.32.88 2.58 1.72 3.48 3.05-2.33-.79-3.2-2.21-4.88-4.02"/><path fill="#4d6172" d="M1181.66 584.627c.94.344 2.28 1.365 2.96 1.959 8.4 7.318 17.75 11.334 28.16 15.186-35.11 88.773-199.09 121.282-258.25 221.839l-4.912 9.394c-4.342-16.145-9.035-31.636-15.854-46.936 6.142-16.256 14.622-33.603 26.178-46.641 57.828-65.237 156.858-97.899 221.718-154.801m-66.65 660.363c1.39 1.62-3.37 11.18-4.41 13.48-11.9 26.28-14.25 49.09-14.11 77.35-40.87 40.41-75.07 96.41-83.58 153.87-1.59 10.69-2.99 21.33-5.08 31.95a212.24 212.24 0 0 1-79.953 129.26c-.353-4.79-.851-8.39-1.605-13.14-2.906-20.34-7.711-31.6-16.508-49.74 42.26-30.04 67.587-71.29 78.694-121.45 4.205-18.99 7.116-39.18 12.102-57.78 6.46-23.43 15.7-46 27.52-67.24 21.6-38 55.13-67.15 86.93-96.56"/><path fill="#cf9155" d="M1128.17 1731.62c-.08-3.13 1-3.94 2.19-.58 7.58 19.02 16.98 33.63 29.22 49.95.62.34.58.57.93 1.24l7.63 9.91c-.02 2.46-.11 4.91-.29 7.36-5.6 75.3-43.27 118.21-98.31 165.44q-52.228.27-104.452-.12c73.312-77.31 157.382-111.82 163.082-233.2"/><path fill="#a57241" d="M1128.17 1731.62c-.08-3.13 1-3.94 2.19-.58-.65.43-1.38.43-2.19.58"/><path fill="#cf9155" d="M1090.31 998.606c2.33 6.284 4.26 15.444 6.63 22.324 3.71 10.79 7.55 20.98 11.78 31.6-17.64 68.36-102.19 108.78-144.405 161.09-13.331 16.52-18.164 25.98-27.407 44.74l-5.411-10.75c-11.44-20.24-22.453-31.9-30.486-54.97 5.79-7.11 11.697-14.13 17.666-21.1 53.266-62.14 138.463-93.56 171.633-172.934m64.58-436.222 15.32-.984c3.08 9.476 4.84 12.618 10.11 20.728-72.74 66.695-214.332 105.07-247.541 200.005l-5.739-14.101c-7.006-18.746-17.347-38.536-27.162-55.945 3.108-3.06 6.348-6.512 9.326-9.678 37.306-39.667 85.106-66.296 131.146-94.272 8.18-4.964 16.24-10.168 25.01-14.19 27.25 15.511 60.28 12.633 79.08-15.189 3.38-5.006 6.22-14.176 10.45-16.374m38.95 73.463.46 2.541c-20.67 30.169-39.84 59.877-55.73 92.865-1.87 3.883-5.53 10.444-8.66 13.167-59.46 51.668-122.98 92.977-167.443 159.828-1.693-21.591-6.305-45.787-11.295-66.869 34.489-90.083 180.168-128.606 242.668-201.532"/><path fill="#4d6172" d="M911.111 1100.07c11.39-20.63 89.399-72.1 112.239-93.4 27.19-25.357 38.1-34.278 60.76-67.838.71 22.233 1.61 33.757 5.51 55.77-20.59 48.178-59.29 81.578-100.613 111.768-33.569 24.52-64.189 50.69-88.864 84.46-3.253-13.86-4.892-25.88-3.824-40.21-.068-1-.07-.86.295-1.83a108.05 108.05 0 0 1 11.774-43.15c.211-2.3 1.436-3.65 2.723-5.57"/><path fill="#42515d" d="M908.388 1105.64c.211-2.3 1.436-3.65 2.723-5.57l-.689 1.47c-.809 1.75-.628 2.67-2.034 4.1"/><path fill="#db202e" d="M704.377 830.334c2.964-.408 10.301-.557 13.614-.728-2.63 8.959-3.054 14.288-3.333 23.446-6.421-1.195-10.084-3.315-16.614-4.691l-.757.675c13.542 9.114 29.032 9.826 42.23-.571-5.858.777-14.232 4.965-18.132.879-.736-5.466.705-14.964 5.211-18.524 9.46-.646 21.183 1.813 29.581 6.135a50.8 50.8 0 0 1 25.451 31.175c5.911 20.705-.502 39.377-10.311 57.528-7.088 12.7-16.017 24.88-28.774 32.234-3.653-.698-8.992-2.379-12.471-2.679-9.242-.8-11.842.122-20.791-2.952-8.311 5.553-13.823 7.482-22.43.189-40.758-34.538-50.859-112.863 17.526-122.116"/><path fill="#cf9155" d="M1096.59 838.841c.28 3.619-7.89 37.759-8.95 45.164-2.67 18.707-2.76 31.792-3.37 50.68-9.92 13.723-18.74 25.982-30.26 38.546-39.63 43.249-88.123 72.719-132.889 110.609l-.049-.15c5.438-10.6 12.342-23.96 18.854-34.1 9.044-14.09 13.522-47.19 20.463-58.346 26.834-43.123 68.521-78.571 103.181-115.378 11.33-12.03 21.48-25.484 33.02-37.025"/><path fill="#4d6172" d="m1126.86 750.91.84 1.174c-1.26 4.335-7.34 16.812-9.68 22.67-7.08 13.511-13.14 49.346-21.56 60.206-39.65 51.089-100.13 96.324-135.128 150.222-1.433-1.798.414-11.607.728-14.674 2.137-20.892 1.47-42.882 1.45-63.963 9.965-12.845 17.227-25.016 28.31-37.424 40.47-45.298 90.53-79.208 135.04-118.211m-104.07-189.393 20.92.599c4.25 12.961 8.57 21.125 19.68 30.041-61.3 33.577-116.334 67.599-165.082 118.037l-8.977-15.896c-.564-.631-.531-.506-.794-1.27-6.955-11.076-15.948-26.376-23.776-36.263 22.001-21.559 50.988-44.912 78.876-58.2 34.749 9.458 68.773 2.581 79.153-37.048m50.92 1402.653c5.21-4.55 10.37-9.16 15.49-13.82 50.64-45.83 77.48-85.82 80.94-155.88l13.44 13.66c1.71 1.29 3.35 2.28 4.56 4.04 2.65 2.42 5.53 4.96 8.07 7.45 1.21.71 1.17.58 1.93 1.62l5.08 4.37c1.25.67 1.17.51 1.91 1.6 2.32 1.83 4.66 4.11 6.86 6.13-.1 54.78-14.34 86.99-45.75 131.26z"/><path fill="#42515d" d="M1183.58 1808.13c1.71 1.29 3.35 2.28 4.56 4.04-1.65-.51-2.31-1.21-3.37-2.56z"/><path fill="#cf9155" d="M1214.34 1834.59c20 14.13 32.95 22.39 54.16 34.64 3.37 36.7.94 61.03-13.92 95.38l-31.83-.24c-16.01.78-37.21.19-53.74.31 28.04-37.1 47.42-82.92 45.33-130.09"/><path fill="#4d6172" d="M1271.55 1871.1c5.33 3.3 10.73 6.54 15.83 10.18q2.925 2.04 5.73 4.23c.78.34.76.4 1.45.97l2.44 1.99c.7.35.71.38 1.29.9 1.32 1.07 2.62 2.16 3.92 3.26 1.26.65 1.18.49 1.92 1.58 2.44 2.02 4.24 3.61 6.45 5.91 4.4 3.53 6.77 5.8 10.22 10.22 2.03 1.97 3.23 3.36 5.03 5.5 1.57 1.19 2.43 2.64 3.62 4.24l.86 1.32c1.79 1.45 1.77 1.8 2.98 3.88 1.86 1.52 1.85 1.84 3.04 3.98l.26.46c.78.59 1.34 1.7 1.87 2.53.92.97 1.5 2.23 2.17 3.42.44.49.89.98 1.33 1.48l1.76 3.67c.56.54.5.57.89 1.31.94 1.53 1.41 2.33 2.17 3.93 1.54 2.15 3.08 4.28 3.71 6.9 2.1 4.69 3.02 6.52 4.38 11.54h-97.56c3.58-7.93 6.87-16.03 8.99-24.49.99-3.81 1.86-7.65 2.6-11.52 2.11-10.63 4.66-27.39 3.91-37.99z"/><path fill="#42515d" d="M1310.58 1900.12c4.4 3.53 6.77 5.8 10.22 10.22-3.61-2.85-7.32-6.66-10.22-10.22m36.2 45.94c1.54 2.15 3.08 4.28 3.71 6.9-1.82-.82-2.52-4.19-3.32-6.01zm-20.95-30.22c1.57 1.19 2.43 2.64 3.62 4.24-2.16-1.73-2.69-1.82-3.62-4.24"/><path fill="#fdfdfe" d="M1065.35 471.923c85.64-83.937 188.83-90.111 274.84-2.263 16.11 16.46 27.89 33.947 41.06 52.627l-1.69 1.936a290 290 0 0 0-3.9-5.069c-75.5-96.099-208.35-124.76-307.34-46.735z"/><path fill="#cf9155" d="M898.224 562.466c4.845-.395 10.479-.434 15.4-.595 5.991 16.899 11.833 25.205 27.089 34.922-27.58 14.394-55.123 35.716-76.978 57.778-11.816-17.202-27.386-36.347-40.355-52.954 26.474 3.475 51.051.706 67.226-24.545 2.73-4.261 3.908-11.544 7.618-14.606M1457.82 1881.18c60.56 27.01 85.99 29.74 150.9 36.74 8.27.18 15.57.57 23.85.2l-1.74.48c-1.47.33-3.35.52-4.27 1.87-.29.43-.4.96-.28 1.47.28 1.19 1.61 1.92 2.53 2.47-2.9 1.03-16.09.37-19.71.21-43.46-2.44-86.45-8.92-126.18-27.52-8.88-4.16-17.3-9.53-25.9-14.26z"/><path fill="#e0ad7f" d="M1608.72 1917.92c8.27.18 15.57.57 23.85.2l-1.74.48c-1.47.33-3.35.52-4.27 1.87-.29.43-.4.96-.28 1.47.28 1.19 1.61 1.92 2.53 2.47-2.9 1.03-16.09.37-19.71.21-2.21-3.29 4.59-.66 6.81-2.16 3.22-2.18-6-4.22-7.19-4.54"/><path fill="#f4ebe8" d="M1646.3 1917.72c2.28-2.25 21.48-.96 25.17-.64 2.47-.03 6.38-.46 8.56.44.75.31.65 1.93-.28 2.32-3.73 1.54-7.72 1.07-11.77 1.76-6.12 1.05-12.16 1.31-18.36 1.56-4.04 1.23-5.17 1.84-9.32.76-4.2.05-7.26.15-11.49.49-.92-.55-2.25-1.28-2.53-2.47-.12-.51-.01-1.04.28-1.47.92-1.35 2.8-1.54 4.27-1.87l1.74-.48c4.55 0 9.17-.23 13.73-.4"/><path fill="#6b726c" d="M1646.3 1917.72c2.28-2.25 21.48-.96 25.17-.64-4.01.53-21.33 1.07-25.17.64"/><path fill="#7c7a7a" d="M1640.3 1923.92c2.34-1.56 6.31-.85 9.32-.76-4.04 1.23-5.17 1.84-9.32.76"/><path fill="#42515d" d="M779.937 561.778c14.722.382 4.366 4.507 15.243 18.235 8.137 10.269 11.306 10.768 20.768 17.963-22.5-5.75-27.815-16.858-36.011-36.198"/><path fill="#636466" d="M730.542 814.548c6.566 3.92 2.383 5.385-3.078 10.448-7.638 7.082-8.339 16.77-9.436 26.383.125.295.347.696.347.99-2.821-2.07.445-15.437.995-18.355 1.578-8.379 5.72-13.156 11.172-19.466"/><path fill="#fdfdfe" d="M1576.8 1951c.05 4.2-4.49 9.07-7.11 12.98-3.77.18-7.08.12-10.84.02 0-1.59 15.38-11.24 17.95-13m327.13-.88c.45.48.33.29.47.6-.09 1.09-6.24 11.67-7.07 12.96-.71 1.08-8.29.58-10.04.56-.25-.21-.76-.53-.9-.87 8.33-5.9 9.16-5.09 17.54-13.25"/><path fill="#cf9155" d="M1204.77 620.758c2.57-4.197 7.43-13.779 10.23-18.217.34-.531 4.73-1.207 5.31.459.03-.095-12.65 16.592-13.9 18.239z"/><path fill="#f4ebe8" d="M709.493 954.843c1.531.309 10.373 2.855 11.135 3.701-.26.948-1.463.772-2.378.844-2.139-.036-13.465.302-14.359-.884.659-.895 4.458-2.941 5.602-3.661"/><path fill="#785634" d="m1204.77 620.758 1.64.481c-2.65 3.753-9.51 14.072-12.11 17.149l-.46-2.541c2.8-3.975 8.02-11.334 10.93-15.089"/><path fill="#b7b4ac" d="m1065.35 471.923 2.97.496c-3.61 3.391-7.31 6.357-10.86 9.708l-.35-1.488a101 101 0 0 1 8.24-8.716m315.9 50.364c3.1 4.416 5.17 7.878 7.39 12.73-3.93-3.46-6.11-6.462-9.08-10.794z"/><path fill="#f4ebe8" d="M723.983 955.911c2.192.231 7.89.408 8.11 3.203-4.523.007-10.614 1.913-8.11-3.203"/><path fill="#694b2e" d="M1457.02 1882.84c-1.01-.71-4.73-3.13-5.07-4.23 1.55-.76 4.65 1.71 5.87 2.57z"/><path fill="#030403" d="M1554.53 1962.39c2.44 3.72-.68 4.78-1.66.58z"/><path fill="#636466" d="M1122.53 1613.45c.63-.79 2.1-3.19 3.02-3.64.85.32-.94 5.73-1.14 6.67z"/><path fill="#7c7a7a" d="M1057.46 482.127c-.91.945-3.5 3.954-4.78 4.074-1.35-.969 4.07-5.257 4.43-5.562zm331.18 52.89c.77.515.49.168.73 1.191-.59-.586-.8-.362-.73-1.191"/><metadata><recraft-signature>{&quot;signed_by&quot;: &quot;recraft&quot;, &quot;signature_b64&quot;: &quot;2nrk4ZxJ7z6r9Zzpn0C7OCkrfoCw8JmkN+yvY5QCW+jhOPSA75YEb+Zy/RyfXPb6ANKEu+nSJiAbSHoJwe2tDA==&quot;, &quot;signing_algo&quot;: &quot;Ed25519&quot;, &quot;generation_timestamp&quot;: 1777252191, &quot;identifier&quot;: &quot;dc8c3a47-0c6d-45a7-b90d-96ba733c8266&quot;}</recraft-signature></metadata></svg>