<svg xmlns="http://www.w3.org/2000/svg" width="1024" height="1024" preserveAspectRatio="none" style="display:block" viewBox="0 0 2048 2048"><path fill="#283037" d="m1017.64 561.891 13.36-.04-.01 151.018c14.03 2.947 25.55 8.155 35.94 18.226 21.76 21.085 17.19 51.949 16.99 80.403l-.16 58.141a142 142 0 0 1 16.45 5.834c25.64 10.927 47.82 31.499 58.26 57.603 20.62 10.224 34.68 23.053 36.56 47.385 2.7 23.939-16.94 39.559-30.98 55.619-68.91 80.16-53.53 198.02 37.92 255.13 82.79 52.32 214.66 11.78 214.61-97.99-.03-53.17-48.38-100.25-101.81-95.08a74.46 74.46 0 0 0-50.84 27.43c-10.93 13.36-16.99 30.57-14.87 47.88a54.7 54.7 0 0 0 20.53 36.72c26.7 21.21 74.35 15.26 73.76-27.13-.22-15.94-29.78-32.74-38.08-10.96-1.81 4.76-2.41 6.82-.43 11.7 2.51 2.69 2.31 2.52 5.92 3.25 4.39-2.94 1.17-8.98 5.33-14.75 2.27-.52 2.1-.9 4.47.74 3.14 2.15 5.31 5.44 6.06 9.18 3.82 18.4-24.15 27.6-39.44 13.46-15.65-14.48-16.04-37.39-2.35-51.93 36-38.25 99.79-3.97 97.94 45.83 1.69 51.78-43.12 88.81-93.52 89.7-71.25 1.25-129.71-57.42-130.38-128.16a143.28 143.28 0 0 1 42.52-102.02c32.07-32.36 77.26-48.53 122.22-48.36 141.35.52 234 130.89 232.16 264.47-1.68 121.59-56.83 237.36-142.69 321.97-103.35 102.91-243.45 160.4-389.3 159.75-146.856-1.32-285.049-53.65-389.001-159.16-86.346-86.73-142.662-203.7-141.635-327.43.614-74.09 23.022-142.75 77.105-195.29 43.634-43.22 94.837-63.69 155.813-64.15 82.754-.63 163.784 64.11 161.506 151.36a131.43 131.43 0 0 1-40.956 91.84 127.4 127.4 0 0 1-92.274 33.93c-49.213-1.67-92.117-36.69-90.619-88.29 1.066-36.73 27.486-64.17 65.295-61.68 13.015.85 24.432 4.45 33.147 14.78 12.365 14.32 13.025 40.79-2.243 53.4a28.8 28.8 0 0 1-21.898 6.26c-25.485-3.47-22.741-32.26-5.134-28.83 4.92 4.65-2.555 7.32-1.635 12.91 20.846 3.89 11.4-33.11-9.752-24.46-25.944 10.61-21.84 45.29 3.15 55.94a51.66 51.66 0 0 0 39.868.08 54.1 54.1 0 0 0 29.84-30.78 63.38 63.38 0 0 0-1.578-47.31c-18.057-40.45-70.004-50.83-107.934-33.21-51.089 23.73-67.967 85.75-44.788 135.42 33.474 71.72 125.032 87.41 191.705 55.15 39.4-19.06 70.062-55.41 84.473-96.38 17.98-50.34 6.345-110.69-24.711-153.55-18.389-24.7-51.698-44.41-36.598-82.704 6.305-15.99 17.939-23.693 33.152-30.397 10.16-33.403 39.956-54.605 72.205-63.911.518-22.773-.285-45.88-.152-68.662.071-12.193-.853-28.068 1.407-39.722a59.3 59.3 0 0 1 9.701-22.876c11.795-16.879 26.467-22.969 45.951-26.546-.17-50.13 1.1-100.692.45-150.751"/><path fill="#283037" d="M318.628 414.703c32.485-97.061 181.322-109.861 234.936-25.075 7.694-11.491 13.75-17.993 24.903-26.478a142.68 142.68 0 0 1 107.561-28.102c37.433 5.197 67.54 23.415 90.191 53.256 39.778-48.596 98.456-67.599 158.991-47.148 38.502 13.007 59.171 35.935 76.31 71.592-6 .268-12.586 1.418-18.583 2.287a146 146 0 0 0-4.854-9.807c-33.413-60.8-124.714-72.873-176.459-28.453-5.945 5.104-30.535 28.763-25.72 36.781l9.418.951c10.039 1.263 15.666 2.471 25.331 5.26 4.399 1.603 9.176 3.215 13.42 5.122 5.992 3.013 12.063 5.931 17.8 9.397 27.12 19.197 44.28 39.675 49.916 73.259 47.931 10.777 79.975 43.019 88.701 91.269-5.558.312-11.591.769-17.119.933-3.424-14.224-6.588-25.382-15.417-37.33-41.492-56.15-126.472-53.351-162.28 7.621a109 109 0 0 0-7.319 15.44c1.326 9.088-.089 16.195 9.783 17.329 5.632.803 10.253 1.71 15.8 2.866 49.65 15.221 87.826 49.866 90.164 104.371l-16.919.285c-1.083-8.484-2.17-16.709-5.288-24.742-30.631-78.897-141.154-91.428-192.378-25.566a83.9 83.9 0 0 0-16.289 34.737l13.05 1.789c6.899 1.181 16.098 3.167 22.695 5.481 3.562 1.314 8.75 3.048 12.043 4.647a808 808 0 0 1 17.904 9.328c25.775 18.351 44.801 40.735 50.873 72.609 59.623 10.557 104.17 44.298 110.483 107.46l-17.254-.062c-5.84-33.531-15.387-48.573-41.865-70.087-52.773-42.88-154.196-18.174-167.594 52.805q6.975.584 13.943 1.241c7.826 1.416 13.607 2.63 21.272 4.682l11.258 3.709c5.944 2.827 12.767 5.875 18.358 9.185 22.695 12.514 42.876 35.089 51.945 59.453-6.095.069-12.702.008-18.745.225-14.387-28.208-35.927-46.751-66.199-56.631a113.15 113.15 0 0 0-88.315 6.957c-24.376 12.508-37.901 27.445-50.788 51.023 3.432 10.95 5.214 17.793 6.984 29.18l-17.777.081c-6.029-31.931-14.835-51.65-42.937-70.88a115.12 115.12 0 0 0-86.658-18.084c-47.263 9.086-80.106 41.169-86.22 89.115l-16.785.022c1.081-36.6 20.413-66.107 50.868-85.802 5.409-3.065 11.06-5.848 16.606-8.672 4.505-2.181 8.741-3.822 13.374-5.668 7.148-2.428 12.056-3.604 19.464-5.262 1.615-.247 7.747-1.123 8.877-1.721 9.681-5.121-4.014-27.675-7.665-32.66-35.839-48.905-107.131-57.796-155.724-22.732-26.082 18.82-36.856 39.562-42.01 70.525l-17.026.03a108.7 108.7 0 0 1 22.218-59.222c22.533-29.871 54.659-43.954 90.918-48.826a220 220 0 0 1 1.961-8.521c6.736-26.274 25.636-50.268 48.794-64.005 5.521-3.041 11.692-6.037 17.352-8.916 3.902-1.727 8.851-3.296 12.95-4.72 6.396-2.193 13.017-3.436 19.632-4.86 2.851-.368 5.255-.76 8.09-1.267 9.04-6.912-.835-23.159-5.728-30.676a105.13 105.13 0 0 0-66.533-44.9 119.44 119.44 0 0 0-89.758 17.405c-28.309 18.931-37.705 40.918-44.209 72.761-5.635.586-10.983.368-16.641.296a105.4 105.4 0 0 1 21.01-59.361c23.311-31.12 54.527-44.302 91.874-49.573 6.92-32.574 21.952-54.716 50.249-73.321 5.993-3.631 12.952-6.953 19.253-10.122 3.283-1.564 8.101-3.18 11.621-4.488 8.727-2.619 14.052-3.869 23.027-5.419 2.47-.343 4.858-.794 7.308-1.24 8.234-7.162-.777-21.31-5.75-28.738a110.4 110.4 0 0 0-71.051-46.322c-46.086-8.688-98.863 12.689-120.693 55.294-6.665 13.009-8.524 22.593-10.982 36.721l-16.727-.007c.09-22.474 9.686-46.045 23.827-63.327a129.07 129.07 0 0 1 86.953-45.987"/><path fill="#dc9d5b" d="M566.251 586.707c7.578-22.018 29.384-41.305 49.941-51.212a119.76 119.76 0 0 1 91.137-4.99c33.227 11.912 58.236 35.422 66.166 70.251-4.738.536-9.758 1.013-14.441 1.775-8.071 1.496-13.397 2.482-21.147 5.145-3.7 1.304-9.978 3.291-13.367 4.804-7.435 3.198-11.233 4.984-18.142 9.105-16.474 9.473-28.42 25.963-39.379 40.718-12.244-18.146-20.578-28.003-39.635-40.176-5.688-3.696-11.849-6.737-17.87-9.88-3.869-1.548-7.203-2.637-11.174-3.92-5.685-2.117-17.478-5.595-23.39-5.194-8.753-2.755-7.549-8.012-8.699-16.426"/><path fill="#faf9f8" d="M627.384 622.127c5.431-12.813 10.165-29.309 24.611-34.244 28.335-9.679 49.271 6.78 54.403 33.702-16.474 9.473-28.42 25.963-39.379 40.718-12.244-18.146-20.578-28.003-39.635-40.176"/><path fill="#faf9f8" d="M566.251 586.707c7.578-22.018 29.384-41.305 49.941-51.212a119.76 119.76 0 0 1 91.137-4.99c33.227 11.912 58.236 35.422 66.166 70.251-4.738.536-9.758 1.013-14.441 1.775a91.24 91.24 0 0 0-29.664-45.258c-42.681-34.879-118.042-25.685-144.611 25.567-2.375 4.582-6.997 17.954-9.829 20.293-8.753-2.755-7.549-8.012-8.699-16.426"/><path fill="#dc9d5b" d="M609.514 612.247c10.735-35.306 43.809-52.022 78.548-40.365a56.35 56.35 0 0 1 33.2 28.833c2.098 4.328 2.534 7.048 3.278 11.765-7.435 3.198-11.233 4.984-18.142 9.105-5.132-26.922-26.068-43.381-54.403-33.702-14.446 4.935-19.18 21.431-24.611 34.244-5.688-3.696-11.849-6.737-17.87-9.88"/><path fill="#faf9f8" d="M598.34 608.327c16.557-68.065 120.194-67.218 139.567-.651-3.7 1.304-9.978 3.291-13.367 4.804-.744-4.717-1.18-7.437-3.278-11.765a56.35 56.35 0 0 0-33.2-28.833c-34.739-11.657-67.813 5.059-78.548 40.365-3.869-1.548-7.203-2.637-11.174-3.92"/><path fill="#dc9d5b" d="M340.293 601.086c4.597-24.164 19.329-43.519 39.441-57.24a118.55 118.55 0 0 1 88.53-18.118c40.675 8.054 72.121 34.401 82.284 75.03q-7.047.669-14.067 1.575c-7.596 1.15-13.816 2.229-21.068 5.01-3.64 1.338-8.105 2.835-11.599 4.342-7.431 3.236-12.132 5.426-19.144 9.411-21.405 13.34-25.908 20.606-40.105 39.589l-1.01-1.566c-10.109-16.359-21.984-25.923-36.979-37.435-6.4-3.696-12.064-6.549-18.708-9.816l-11.207-4.162c-8.614-2.439-14.509-3.689-23.353-5.289z"/><path fill="#faf9f8" d="M340.293 601.086c4.597-24.164 19.329-43.519 39.441-57.24a118.55 118.55 0 0 1 88.53-18.118c40.675 8.054 72.121 34.401 82.284 75.03q-7.047.669-14.067 1.575c-3.597-18.596-17.128-36.711-32.357-47.664a99.65 99.65 0 0 0-75.114-17.334c-27.36 4.802-52.184 20.358-66.46 44.487-2.501 4.228-7.132 18.481-9.242 20.595z"/><path fill="#faf9f8" d="M406.576 621.684c4.528-31.48 30.787-43.828 59.424-30.73 10.875 4.974 15.614 19.369 18.67 30.142-21.405 13.34-25.908 20.606-40.105 39.589l-1.01-1.566c-10.109-16.359-21.984-25.923-36.979-37.435"/><path fill="#dc9d5b" d="M387.868 611.868c10.186-34.485 42.464-51.074 76.196-40.719a59.9 59.9 0 0 1 34.8 28.421c2.06 3.812 3.638 7.99 4.95 12.115-7.431 3.236-12.132 5.426-19.144 9.411-3.056-10.773-7.795-25.168-18.67-30.142-28.637-13.098-54.896-.75-59.424 30.73-6.4-3.696-12.064-6.549-18.708-9.816"/><path fill="#faf9f8" d="M376.661 607.706c16.188-66.337 116.887-68.816 138.752-.363-3.64 1.338-8.105 2.835-11.599 4.342-1.312-4.125-2.89-8.303-4.95-12.115a59.9 59.9 0 0 0-34.8-28.421c-33.732-10.355-66.01 6.234-76.196 40.719z"/><path fill="#dc9d5b" d="M452.885 695.73c1.584-14.243 4.146-22.359 12.757-33.941 42.77-57.524 133.668-59.154 178.017-2.58 6.118 7.806 13.445 19.871 13.276 30.073-.109 6.562-6.652 7.195-11.381 7.764-7.898 1.523-12.373 2.345-19.903 4.981-4.726 1.7-8.936 3.173-13.525 5.279-6.116 3.259-12.43 6.53-18.448 9.93-17.713 12.705-25.937 20.112-38.156 38.417-10.069-18.345-21.052-28.593-38.756-39.816-5.764-3.576-11.794-6.521-17.834-9.605-3.377-1.577-8.953-3.454-12.599-4.813-7.535-1.769-14.322-3.103-21.945-4.48z"/><path fill="#faf9f8" d="M516.766 715.837c2.08-5.511 2.948-10.752 5.509-16.231 13.733-29.376 57.326-26.624 68.393 3.489 2.266 6.166 1.962 7.968 3.01 14.141-17.713 12.705-25.937 20.112-38.156 38.417-10.069-18.345-21.052-28.593-38.756-39.816"/><path fill="#faf9f8" d="M452.885 695.73c1.584-14.243 4.146-22.359 12.757-33.941 42.77-57.524 133.668-59.154 178.017-2.58 6.118 7.806 13.445 19.871 13.276 30.073-.109 6.562-6.652 7.195-11.381 7.764-6.325-32.523-33.798-55.355-64.85-63.565a98.77 98.77 0 0 0-75.873 10.665c-21.438 12.533-34.305 28.832-40.443 52.793z"/><path fill="#dc9d5b" d="M498.932 706.232c14.449-57.748 96.919-60.3 113.194 1.074-6.116 3.259-12.43 6.53-18.448 9.93-1.048-6.173-.744-7.975-3.01-14.141-11.067-30.113-54.66-32.865-68.393-3.489-2.561 5.479-3.429 10.72-5.509 16.231-5.764-3.576-11.794-6.521-17.834-9.605"/><path fill="#faf9f8" d="M486.333 701.419c4.011-16.426 15.404-30.55 29.733-39.294a74.62 74.62 0 0 1 57.59-8.644c26.13 6.476 42.827 23.692 51.995 48.546-4.726 1.7-8.936 3.173-13.525 5.279-16.275-61.374-98.745-58.822-113.194-1.074-3.377-1.577-8.953-3.454-12.599-4.813"/><path fill="#dc9d5b" d="M454.546 494.451c13.63-28.426 31.76-46.98 62.194-57.823a117.43 117.43 0 0 1 89.311 4.797c23.455 11.143 39.499 27.807 51.688 50.444l-1.998 15.847-10.702 1.232c-6.741 1.16-13.999 2.454-20.391 5.021-3.894 1.394-9.033 3.063-12.665 4.806-6.412 3.363-12.588 6.588-18.846 10.23-17.711 13.059-24.493 19.777-36.772 38.436-10.679-18.378-21.267-28.431-38.285-40.369-6.451-3.611-12.805-6.534-19.491-9.685-4.438-1.928-6.936-2.625-11.628-3.909-7.436-2.458-14.235-3.703-21.919-5.032-5.098-.825-5.217-.032-8.674-2.805-1.659-3.881-1.54-6.987-1.822-11.19"/><path fill="#faf9f8" d="M454.546 494.451c13.63-28.426 31.76-46.98 62.194-57.823a117.43 117.43 0 0 1 89.311 4.797c23.455 11.143 39.499 27.807 51.688 50.444l-1.998 15.847-10.702 1.232c-13.385-81.53-152.963-95.156-179.997-.502-5.098-.825-5.217-.032-8.674-2.805-1.659-3.881-1.54-6.987-1.822-11.19"/><path fill="#faf9f8" d="M518.08 527.072c2.446-10.661 6.099-23.606 16.396-29.096 26.755-14.264 57.932-.421 58.661 31.029-17.711 13.059-24.493 19.777-36.772 38.436-10.679-18.378-21.267-28.431-38.285-40.369"/><path fill="#dc9d5b" d="M498.589 517.387c17.912-59.992 99.759-55.393 113.394 1.388-6.412 3.363-12.588 6.588-18.846 10.23-.729-31.45-31.906-45.293-58.661-31.029-10.297 5.49-13.95 18.435-16.396 29.096-6.451-3.611-12.805-6.534-19.491-9.685"/><path fill="#faf9f8" d="M486.961 513.478c18.058-65.289 115.767-68.831 137.687.491-3.894 1.394-9.033 3.063-12.665 4.806-13.635-56.781-95.482-61.38-113.394-1.388-4.438-1.928-6.936-2.625-11.628-3.909"/><path fill="#dc9d5b" d="M673.79 507.697c8.331-36.867 35.507-61.895 71.176-72.755a118.8 118.8 0 0 1 89.919 9.26c24.795 13.527 41.055 33.351 48.83 60.354a359 359 0 0 1-15.252 1.628c-9.029.895-13.549 1.689-22.367 4.365-3.524 1.337-7.838 2.833-11.218 4.333-6.329 3.251-13.287 6.644-19.287 10.383-18.53 13.315-25.558 21.175-37.369 40.219-12.245-17.264-19.002-25.398-37.457-37.216-6.866-4.072-11.631-6.61-18.837-10.046-3.22-1.476-7.687-2.919-11.112-4.147-6.71-2.429-16.251-4.198-23.316-5.239z"/><path fill="#faf9f8" d="M673.79 507.697c8.331-36.867 35.507-61.895 71.176-72.755a118.8 118.8 0 0 1 89.919 9.26c24.795 13.527 41.055 33.351 48.83 60.354a359 359 0 0 1-15.252 1.628c-4.177-19.862-17.922-36.747-34.633-47.748a100.47 100.47 0 0 0-76.594-14.101c-37.586 8.233-57.423 29.404-69.736 64.501z"/><path fill="#faf9f8" d="M740.765 528.268c.964-6.751 1.999-13.718 5.482-19.674 9.529-16.294 34.881-22.266 50.755-12.087 10.026 6.429 15.951 17.422 18.589 28.758-18.53 13.315-25.558 21.175-37.369 40.219-12.245-17.264-19.002-25.398-37.457-37.216"/><path fill="#dc9d5b" d="M721.928 518.222a178 178 0 0 1 2.001-6.394 52.5 52.5 0 0 1 27.533-30.835c24.348-11.642 55.245-7.625 72.542 14.105 5.164 6.487 7.616 12.284 10.874 19.784-6.329 3.251-13.287 6.644-19.287 10.383-2.638-11.336-8.563-22.329-18.589-28.758-15.874-10.179-41.226-4.207-50.755 12.087-3.483 5.956-4.518 12.923-5.482 19.674-6.866-4.072-11.631-6.61-18.837-10.046"/><path fill="#faf9f8" d="M710.816 514.075c6.915-25.809 21.658-40.328 47.126-47.546a75.93 75.93 0 0 1 57.69 6.66c14.339 8.115 26.031 21.316 30.464 37.36-3.524 1.337-7.838 2.833-11.218 4.333-3.258-7.5-5.71-13.297-10.874-19.784-17.297-21.73-48.194-25.747-72.542-14.105a52.5 52.5 0 0 0-27.533 30.835 178 178 0 0 0-2.001 6.394c-3.22-1.476-7.687-2.919-11.112-4.147"/><path fill="#dc9d5b" d="M341.266 786.983c10.077-36.104 36.097-60.05 71.892-70.488a114.55 114.55 0 0 1 87.352 9.263c25.959 14.425 39.845 32.913 47.744 61.007-3.952.683-8.468 1.208-12.487 1.775-6.981 1.389-15.705 3.069-22.255 5.736-3.611 1.451-7.91 3.043-11.401 4.608a1570 1570 0 0 1-18.463 9.981c-19.32 12.325-25.359 20.203-38.52 38.309-12.997-18.736-20.149-24.647-38.746-38.121-5.847-3.962-11.405-6.719-17.656-9.974-4.375-2.109-7.416-3.247-12.003-4.885-7.019-2.708-14.077-3.948-21.452-5.143z"/><path fill="#faf9f8" d="M406.382 809.053c6.078-36.431 46.914-50.141 70.202-19.42 3.106 4.096 5.615 13.942 7.064 19.232-19.32 12.325-25.359 20.203-38.52 38.309-12.997-18.736-20.149-24.647-38.746-38.121"/><path fill="#faf9f8" d="M341.266 786.983c10.077-36.104 36.097-60.05 71.892-70.488a114.55 114.55 0 0 1 87.352 9.263c25.959 14.425 39.845 32.913 47.744 61.007-3.952.683-8.468 1.208-12.487 1.775-2.005-1.81-6.873-16.384-10.017-21.125-44.014-66.351-145.222-54.553-170.479 21.636z"/><path fill="#dc9d5b" d="M388.726 799.079c15.966-56.803 96.276-56.725 113.385-.195a1570 1570 0 0 1-18.463 9.981c-1.449-5.29-3.958-15.136-7.064-19.232-23.288-30.721-64.124-17.011-70.202 19.42-5.847-3.962-11.405-6.719-17.656-9.974"/><path fill="#faf9f8" d="M376.723 794.194c6.825-19.027 16.656-32.834 35.326-41.051 43.221-19.021 85.189-2.455 101.463 41.133-3.611 1.451-7.91 3.043-11.401 4.608-17.109-56.53-97.419-56.608-113.385.195-4.375-2.109-7.416-3.247-12.003-4.885"/><path fill="#dc9d5b" d="M565.971 776.245c12.533-28.141 31.675-45.816 60.727-56.98a112.26 112.26 0 0 1 87.903 3.029c27.291 12.497 50.363 35.279 56.2 65.521l-14.135 1.661c-8.074 1.51-14.136 2.67-21.984 4.946l-11.388 4.479c-6.975 2.956-11.066 4.772-17.582 8.531-18.662 11.175-27.353 22.81-39.133 40.234-12.322-16.853-20.529-26.822-38.161-39.031a708 708 0 0 0-18.14-9.797c-3.404-1.564-7.757-3.132-11.311-4.528-7.124-2.511-14.909-3.921-22.33-5.468-3.703-.414-6.152-.183-8.758-2.697-1.607-3.323-1.559-6.208-1.908-9.9"/><path fill="#faf9f8" d="M628.418 808.635c1.47-5.372 3.131-10.521 5.285-15.704 11.053-26.595 53.099-25.312 65.52-.928 2.464 4.838 4.785 10.167 6.489 15.429-18.662 11.175-27.353 22.81-39.133 40.234-12.322-16.853-20.529-26.822-38.161-39.031"/><path fill="#faf9f8" d="M565.971 776.245c12.533-28.141 31.675-45.816 60.727-56.98a112.26 112.26 0 0 1 87.903 3.029c27.291 12.497 50.363 35.279 56.2 65.521l-14.135 1.661c-.9-1.248-1.525-3.104-1.845-4.595-6.138-28.583-31.745-48.165-58.662-56.254a97.8 97.8 0 0 0-75.994 7.577c-22.627 12.397-36.246 28.098-43.528 52.638-3.703-.414-6.152-.183-8.758-2.697-1.607-3.323-1.559-6.208-1.908-9.9"/><path fill="#dc9d5b" d="M610.278 798.838c2.489-5.312 4.471-10.079 7.321-15.281 14.461-26.39 49.047-33.437 75.17-21.449 16.36 7.507 24.403 19.346 30.136 35.667l.389 1.126c-6.975 2.956-11.066 4.772-17.582 8.531-1.704-5.262-4.025-10.591-6.489-15.429-12.421-24.384-54.467-25.667-65.52.928-2.154 5.183-3.815 10.332-5.285 15.704a708 708 0 0 0-18.14-9.797"/><path fill="#faf9f8" d="M598.967 794.31c5.769-18.177 15.607-31.15 32.79-40.141a75.27 75.27 0 0 1 57.527-5.29c21.245 6.766 39.643 23.577 45.398 45.543l-11.388 4.479-.389-1.126c-5.733-16.321-13.776-28.16-30.136-35.667-26.123-11.988-60.709-4.941-75.17 21.449-2.85 5.202-4.832 9.969-7.321 15.281-3.404-1.564-7.757-3.132-11.311-4.528"/><path fill="#dc9d5b" d="M464.272 881.452c-3.828-.2-6.58.071-9.849-1.835-1.568-3.545-.982-4.579.438-8.595 9.37-26.503 29.887-45.94 55.415-57.366a111.76 111.76 0 0 1 86.504-2.188c24.686 9.488 46.293 28.078 57.618 52.532 2.239 4.835 2.665 8.885.585 13.717-3.609 2.939-2.954 2.045-8.226 2.943-8.293 1.633-14.096 3.318-22.172 5.985l-12.554 5.134-17.409 9.135c-18.31 12.251-25.138 20.479-37.746 37.554-10.46-14.715-23.831-29.88-39.852-38.77-6.189-3.679-11.383-5.983-17.925-8.969-4.683-2.064-7.827-2.986-12.654-4.429-7.083-2.407-14.783-3.539-22.173-4.848"/><path fill="#faf9f8" d="M464.272 881.452c-3.828-.2-6.58.071-9.849-1.835-1.568-3.545-.982-4.579.438-8.595 9.37-26.503 29.887-45.94 55.415-57.366a111.76 111.76 0 0 1 86.504-2.188c24.686 9.488 46.293 28.078 57.618 52.532 2.239 4.835 2.665 8.885.585 13.717-3.609 2.939-2.954 2.045-8.226 2.943-4.472-2.439-7.793-18.67-12.94-25.064-4.637-5.76-8.06-9.654-13.709-14.533a99.44 99.44 0 0 0-93.044-20.281c-23.478 7.011-43.849 21.97-55.292 43.874-1.854 3.549-6.284 15.829-7.5 16.796"/><path fill="#faf9f8" d="M517.024 899.698c7.032-24.692 23.76-40.107 50.463-32.567A34.44 34.44 0 0 1 589 884.508c2.153 4.121 4.569 11.767 5.622 16.406-18.31 12.251-25.138 20.479-37.746 37.554-10.46-14.715-23.831-29.88-39.852-38.77"/><path fill="#dc9d5b" d="M499.099 890.729c5.773-16.366 13.615-28.227 30.025-36.095a61.6 61.6 0 0 1 47.933-2.025c18.782 7.002 29.585 20.165 34.974 39.17l-17.409 9.135c-1.053-4.639-3.469-12.285-5.622-16.406a34.44 34.44 0 0 0-21.513-17.377c-26.703-7.54-43.431 7.875-50.463 32.567-6.189-3.679-11.383-5.983-17.925-8.969"/><path fill="#faf9f8" d="M486.445 886.3c8.621-20.499 19.118-34.177 40.42-42.931a74.74 74.74 0 0 1 58.107.588c19.382 8.256 31.614 22.346 39.257 41.761l.356.927-12.554 5.134c-5.389-19.005-16.192-32.168-34.974-39.17a61.6 61.6 0 0 0-47.933 2.025c-16.41 7.868-24.252 19.729-30.025 36.095-4.683-2.064-7.827-2.986-12.654-4.429"/><path fill="#dc9d5b" d="M338.21 412.716c11.94-26.76 32.99-44.596 60.174-55.124a122.63 122.63 0 0 1 93.409 2.268c24.552 10.918 44.727 28.509 54.798 53.813-4.876.713-10.099 1.578-14.951 2.161-8.403 1.774-13.445 2.861-21.476 5.673l-11.799 4.725c-6.084 3.106-12.115 6.123-18.043 9.522-16.861 12.637-24.129 19.831-35.724 36.968-12.036-17.916-20.044-25.822-37.712-38.918-6.911-3.947-11.412-6.51-18.693-9.562l-11.166-4.581c-8.632-2.559-14.984-4.118-23.872-5.177-4.941-.577-10.03-1.102-14.945-1.768"/><path fill="#faf9f8" d="M338.21 412.716c11.94-26.76 32.99-44.596 60.174-55.124a122.63 122.63 0 0 1 93.409 2.268c24.552 10.918 44.727 28.509 54.798 53.813-4.876.713-10.099 1.578-14.951 2.161-4.777-17.498-22.593-33.17-38.156-41.243a110.87 110.87 0 0 0-84.555-6.975 95.18 95.18 0 0 0-55.774 46.868c-4.941-.577-10.03-1.102-14.945-1.768"/><path fill="#faf9f8" d="M406.886 433.804c2.705-8.444 5.728-18.79 14.501-22.384 27.576-11.299 51.273-4.738 58.935 24.334-16.861 12.637-24.129 19.831-35.724 36.968-12.036-17.916-20.044-25.822-37.712-38.918"/><path fill="#dc9d5b" d="M388.193 424.242c7.879-18.193 23.673-27.979 42.688-30.805 29.012-4.311 54.036 5.575 67.484 32.795-6.084 3.106-12.115 6.123-18.043 9.522-7.662-29.072-31.359-35.633-58.935-24.334-8.773 3.594-11.796 13.94-14.501 22.384-6.911-3.947-11.412-6.51-18.693-9.562"/><path fill="#faf9f8" d="M377.027 419.661c24.627-50.925 111.192-49.63 133.137 1.846l-11.799 4.725c-13.448-27.22-38.472-37.106-67.484-32.795-19.015 2.826-34.809 12.612-42.688 30.805z"/><path fill="#dc9d5b" d="M562.325 413.708c7.712-23.278 25.743-39.166 47.209-50.037a125.92 125.92 0 0 1 95.676-7.155c26.889 8.85 54.739 29.293 64.12 56.979a961 961 0 0 0-13.602 2.117c-8.132 1.635-13.728 2.924-21.581 5.782-4.46 1.845-9.321 3.739-13.685 5.715l-16.799 8.696c-12.444 7.635-27.118 23.441-35.468 35.277l-1.069 1.462c-12.063-16.53-20.6-25.948-37.744-37.969-6.318-3.624-11.878-6.581-18.388-9.854-3.327-1.506-7.727-3.045-11.213-4.383a112.7 112.7 0 0 0-23.487-5.441z"/><path fill="#faf9f8" d="M562.325 413.708c7.712-23.278 25.743-39.166 47.209-50.037a125.92 125.92 0 0 1 95.676-7.155c26.889 8.85 54.739 29.293 64.12 56.979a961 961 0 0 0-13.602 2.117c-1.905-2.155-7.864-12.723-10.354-16.132-9.43-12.909-18.019-19.717-32.571-26.288a115.18 115.18 0 0 0-88.451-2.597c-20.3 7.944-39.265 24.129-48.058 44.302z"/><path fill="#faf9f8" d="M629.382 434.575c11.199-42.476 67.423-35.668 74.281 1.23-12.444 7.635-27.118 23.441-35.468 35.277l-1.069 1.462c-12.063-16.53-20.6-25.948-37.744-37.969"/><path fill="#dc9d5b" d="M610.994 424.721c21.542-43.891 93.405-43.618 109.468 2.388l-16.799 8.696c-6.858-36.898-63.082-43.706-74.281-1.23-6.318-3.624-11.878-6.581-18.388-9.854"/><path fill="#faf9f8" d="M599.781 420.338c21.53-51.324 112.307-49.324 134.366 1.056-4.46 1.845-9.321 3.739-13.685 5.715-16.063-46.006-87.926-46.279-109.468-2.388-3.327-1.506-7.727-3.045-11.213-4.383"/><path fill="#283037" d="M1496.67 387.342c18.44-23.346 34.77-35.038 62.63-46.178 59.41-23.758 152.57 6.504 169.94 73.434 57.51 10.838 105.73 47.26 109.11 109.394l-17.17-.046c-3.91-29.656-14.69-51.14-39.03-69.679a112.34 112.34 0 0 0-83.53-22.247c-30.3 4.2-55.56 18.397-73.86 43.095a124.6 124.6 0 0 0-10.25 16.775c.6 4.858.81 11.797 3.34 15.534 2.73 1.253 2.65 1.169 5.65 1.531 8.22 1.342 13.95 3.11 22 5.497l11.9 4.862c6.89 3.295 12.21 6.044 18.49 10.512 25.86 18.083 42.92 38.581 48.25 70.352l.26 1.585c62.32 8.699 107.19 44.406 113.94 109.068l-16.95-.106c-1.49-9.092-2.81-16.189-5.95-24.833-18.19-50.012-72.4-74.423-123.01-65.694a107.9 107.9 0 0 0-70.34 45.425c-3.32 4.774-6.78 10.524-9.17 15.833.63 4.708.72 9.814 3.37 13.481 2.82 1.805 4.22 1.731 7.51 2.175 6.87 1.544 15.77 3.42 22.26 6.175l11.39 4.285c6.39 3.194 12.41 6.167 18.6 9.743 27.84 19.065 39.96 39.546 48.3 71.126 58.93 11.101 107.61 43.368 112.75 107.81l-16.65.053c-5.7-30.758-16.71-52.52-43.35-70.838a111.77 111.77 0 0 0-84.31-18.457c-27.06 5.127-54.78 21.563-70.35 44.598a92.8 92.8 0 0 0-9.89 19.012c.9 5.064.46 7.281 3.42 10.892 2.6.654 3.66.794 6.34 1.097 8.47 1.619 14.73 3.45 23.05 5.911l12.49 5.256c5.74 3.159 12.69 6.762 18.16 10.151 30.77 18.646 45.36 48.89 49.32 83.402l-17 .698c-6.28-47.101-39.4-79.988-85.82-89.272a114.37 114.37 0 0 0-85.86 17.882c-27.64 18.771-37.88 40.474-43.92 71.948l-17.24-.795c.96-11.872 1.98-17.567 5.51-28.898-38.24-84.633-165-85.198-204.47-.69-5.91-.179-12.63-.86-18.59-1.34 11.64-28.872 25.95-44.13 52.35-60.545 6.7-3.41 11.3-5.31 18.35-8.025 4.5-1.792 8.06-2.671 12.7-3.918 7.65-2.5 13.68-3.24 21.64-4.332l13.87-1.219c-9.53-40.401-43.77-66.466-83.73-73.15a115.04 115.04 0 0 0-86.16 20.928c-25.33 18.348-34.76 39.678-39.48 69.378l-18.62.001c9.17-63.955 49.3-97.434 111.67-108.052 5.19-32.364 22.22-53.609 48.99-71.877 6.71-4.019 12.24-6.752 19.3-10.187 3.6-1.644 8.25-3.08 12.06-4.379 6.12-2.319 15.26-3.944 21.81-5.038 5.47-.267 8.48.717 11.4-4.084.29-4.694-1.84-10.118-3.72-14.434-15.51-35.563-52.78-56.597-90.16-59.852a114.08 114.08 0 0 0-82.71 25.959 98.3 98.3 0 0 0-34.93 67.014l-17.26-.019c.37-48.838 38.61-88.773 83.1-103.412 10.94-3.6 20.24-5.092 31.61-6.652.48-2.879 1.02-5.749 1.61-8.608 6.44-30.463 26.59-50.133 51.72-66.528 6.17-3.158 12.53-6.012 18.83-8.918l12.31-4.462c7.29-1.987 13.44-3.222 20.88-4.654l13.67-1.269c-11.74-52.151-64.67-80.381-115.57-75.825-16.56 1.482-30.51 7.447-45.86 13.319-5.81-2.857-11.6-4.235-17.64-6.725l.08-1.509c5.83-4.649 11.4-6.949 18.11-10.125l10.59-4.291c9.16-2.716 13.63-4.126 23.19-5.904l15.25-2.314c-11.94-26.948-32.84-44.536-60.2-54.98a123.92 123.92 0 0 0-95.51 2.508c-25.66 11.676-41.59 28.965-54.66 53.406l-17.75-1.203c11.59-31.481 33.96-53.041 64.33-66.932a143.86 143.86 0 0 1 110.64-2.766c27.43 10.492 44.09 24.036 60.81 47.635 9.83-13.2 16.44-20.382 29.51-30.092 47.98-35.649 116.73-35.747 164.87-.391 10.25 7.527 19.13 17.205 27.44 27.004"/><path fill="#dc9d5b" d="M1277.09 600.828c6.48-27.099 22.22-46.193 45.93-60.607a114.23 114.23 0 0 1 87.32-13.189c34.3 8.511 56.26 26.6 72.89 57.105-1.21 6.007-1.77 12.224-4.6 17.366-2.05 1.008-2.12 1.067-4.32 1.798-5.75-1.092-16.61 2.795-22.27 4.656-4.15 1.495-8.35 2.895-12.34 4.754-5.77 3.015-12.53 6.34-17.91 9.828-17.91 11.572-26.75 21.905-38.63 39.232-11.47-16.725-21.6-29.582-39.69-40.256-7.54-4.41-11.23-6.518-19.25-9.714l-10.84-3.996c-7.97-2.522-13.66-3.826-21.88-5.563z"/><path fill="#faf9f8" d="M1343.47 621.515c7.95-46.175 65.53-52.49 78.32 1.024-17.91 11.572-26.75 21.905-38.63 39.232-11.47-16.725-21.6-29.582-39.69-40.256"/><path fill="#faf9f8" d="M1277.09 600.828c6.48-27.099 22.22-46.193 45.93-60.607a114.23 114.23 0 0 1 87.32-13.189c34.3 8.511 56.26 26.6 72.89 57.105-1.21 6.007-1.77 12.224-4.6 17.366-2.05 1.008-2.12 1.067-4.32 1.798-2.07-3.433-6.18-15.844-9.06-21.332-10.54-20.09-31.7-34.361-52.7-41.264a96 96 0 0 0-73.62 5.55c-24.6 12.609-39.11 30.047-47.43 55.987z"/><path fill="#dc9d5b" d="M1324.22 611.801c.22-.277.44-.554.67-.831 8.09-21.395 19.95-35.361 43.02-40.93 15.86-3.829 34.83-.558 48.81 8.513 14.07 9.186 17.43 19.311 22.98 34.158-5.77 3.015-12.53 6.34-17.91 9.828-12.79-53.514-70.37-47.199-78.32-1.024-7.54-4.41-11.23-6.518-19.25-9.714"/><path fill="#faf9f8" d="M1313.38 607.805c13.53-63.919 117.58-70.337 138.66.152-4.15 1.495-8.35 2.895-12.34 4.754-5.55-14.847-8.91-24.972-22.98-34.158-13.98-9.071-32.95-12.342-48.81-8.513-23.07 5.569-34.93 19.535-43.02 40.93-.23.277-.45.554-.67.831z"/><path fill="#dc9d5b" d="M1402.77 697.181c-3.73-.205-6.19.175-8.91-2.222-1.89-4.526-.89-13.007 1.13-17.369 10.86-23.536 33.57-42.946 57.25-52.254a111.83 111.83 0 0 1 86.46 2.034c29.99 13.114 52.21 35.512 58.18 68.315-4.57.344-9.96.609-14.43 1.227-7.73 1.46-13.81 2.661-21.22 5.421-3.11 1.059-7.99 2.544-10.86 3.801-6.81 3.255-12.09 5.64-18.37 9.787-15.09 8.928-29.63 24.47-39.27 39.047-12.74-18.33-18.22-23.384-35.96-37.161-6.63-4.167-12.95-7.366-19.9-10.972l-10.76-4.046c-6.45-2.446-16.58-4.435-23.34-5.608"/><path fill="#faf9f8" d="M1402.77 697.181c-3.73-.205-6.19.175-8.91-2.222-1.89-4.526-.89-13.007 1.13-17.369 10.86-23.536 33.57-42.946 57.25-52.254a111.83 111.83 0 0 1 86.46 2.034c29.99 13.114 52.21 35.512 58.18 68.315-4.57.344-9.96.609-14.43 1.227-4.66-27.682-27.4-49.546-52.66-59.746a94.72 94.72 0 0 0-74.17.889c-28.68 12.576-41.99 31.03-52.85 59.126"/><path fill="#faf9f8" d="M1456.77 717.807c.51-7.504 2.06-13.293 5.55-20.191 15.24-30.138 59.42-21.324 67.44 9.4.76 2.901 1.2 6.038 2.24 8.905-15.09 8.928-29.63 24.47-39.27 39.047-12.74-18.33-18.22-23.384-35.96-37.161"/><path fill="#dc9d5b" d="M1436.87 706.835c2.16-5.84 3.89-10.818 7.05-16.271 24.36-41.978 87.26-35.281 104.18 9.693.69 1.836 1.51 4.047 2.27 5.877-6.81 3.255-12.09 5.64-18.37 9.787-1.04-2.867-1.48-6.004-2.24-8.905-8.02-30.724-52.2-39.538-67.44-9.4-3.49 6.898-5.04 12.687-5.55 20.191-6.63-4.167-12.95-7.366-19.9-10.972"/><path fill="#faf9f8" d="M1426.11 702.789a55 55 0 0 1 5.47-15.215c2.5-4.719 5.24-8.665 8.71-12.752 29.5-34.652 95.59-29.465 115.68 12.735 2.22 4.673 3.73 9.781 5.26 14.776-3.11 1.059-7.99 2.544-10.86 3.801-.76-1.83-1.58-4.041-2.27-5.877-16.92-44.974-79.82-51.671-104.18-9.693-3.16 5.453-4.89 10.431-7.05 16.271z"/><path fill="#dc9d5b" d="M1498.12 600.688c7.85-28.633 23.16-47.776 49.3-62.475a113.95 113.95 0 0 1 87.23-9.635c26.42 7.599 49.46 24.27 62.8 48.565a100 100 0 0 1 9.41 24.226l-15.46 1.731c-8.62 1.657-12.97 2.848-21.34 5.608l-11.17 4.632c-5.95 3.121-11.92 6.157-17.67 9.626-19.71 14.738-22.93 18.162-37.62 38.053-10.79-16.683-21.89-27.747-38.39-38.988-6.61-3.845-11.88-6.523-18.78-9.843-3.77-1.597-8.13-3.142-11.99-4.615-7.97-2.358-13.02-3.644-21.16-5.154z"/><path fill="#faf9f8" d="M1498.12 600.688c7.85-28.633 23.16-47.776 49.3-62.475a113.95 113.95 0 0 1 87.23-9.635c26.42 7.599 49.46 24.27 62.8 48.565a100 100 0 0 1 9.41 24.226l-15.46 1.731c-4.66-32.287-31.95-54.547-62.02-62.782a98.67 98.67 0 0 0-77.23 10.194c-21.78 12.786-32.5 28.009-38.87 51.907z"/><path fill="#faf9f8" d="M1565.21 622.031c.12-.483.25-.966.38-1.448 2.06-22.995 19.63-38.286 42.91-34.463 19.4 3.187 29.39 18.737 32.72 36.846-19.71 14.738-22.93 18.162-37.62 38.053-10.79-16.683-21.89-27.747-38.39-38.988"/><path fill="#dc9d5b" d="M1546.43 612.188c1.96-5.818 3.41-10.128 6.43-15.66 21.12-38.634 81.84-36.872 100.62 2.842 1.94 4.106 3.99 9.491 5.41 13.97-5.95 3.121-11.92 6.157-17.67 9.626-3.33-18.109-13.32-33.659-32.72-36.846-23.28-3.823-40.85 11.468-42.91 34.463-.13.482-.26.965-.38 1.448-6.61-3.845-11.88-6.523-18.78-9.843"/><path fill="#faf9f8" d="M1534.44 607.573c12.58-61.433 115.08-70.834 135.62 1.135l-11.17 4.632c-1.42-4.479-3.47-9.864-5.41-13.97-18.78-39.714-79.5-41.476-100.62-2.842-3.02 5.532-4.47 9.842-6.43 15.66-3.77-1.597-8.13-3.142-11.99-4.615"/><path fill="#dc9d5b" d="M1395.47 492.98c13.61-27.552 34.42-46.295 63.7-56.39a110.85 110.85 0 0 1 85.38 5.174c23.77 11.6 41.78 29.276 51.54 54.577 1.43 3.711 1.48 6.383.23 10.039-3.1 2.126-6.26 1.67-10.59 2.074-6.57 1.094-15.92 2.566-22.11 4.667-3.12.975-7.86 2.293-10.7 3.621-7 3.267-12.83 5.892-19.42 9.898-20.74 14.403-24.84 18.043-40.43 38.371-9.37-13.225-21.76-27.025-35.69-35.529-6.74-4.345-11.9-7.037-19.08-10.71l-10.94-4.518c-8.46-1.469-15.6-6.045-25.64-4.913-4.81-4.425-4.92-9.632-6.25-16.361"/><path fill="#faf9f8" d="M1457.38 529.482c4.67-15.697 7.53-28.839 25.52-34.844 9.76-3.258 22.11-2.921 31.49 1.662 13.61 6.653 15.01 17.215 19.11 30.34-20.74 14.403-24.84 18.043-40.43 38.371-9.37-13.225-21.76-27.025-35.69-35.529"/><path fill="#faf9f8" d="M1395.47 492.98c13.61-27.552 34.42-46.295 63.7-56.39a110.85 110.85 0 0 1 85.38 5.174c23.77 11.6 41.78 29.276 51.54 54.577 1.43 3.711 1.48 6.383.23 10.039-3.1 2.126-6.26 1.67-10.59 2.074-1.74-3.501-2.61-8.268-4.24-11.878-20.29-44.863-74.87-65.833-120.33-47.694-28.47 11.356-43.38 28.927-54.44 56.55-1.3 3.239-2.06 3.033-5 3.909-4.81-4.425-4.92-9.632-6.25-16.361"/><path fill="#dc9d5b" d="M1438.3 518.772c2.83-5.577 5.02-13.825 8.93-18.753 33.32-42.031 86.73-28.434 105.69 16.723-7 3.267-12.83 5.892-19.42 9.898-4.1-13.125-5.5-23.687-19.11-30.34-9.38-4.583-21.73-4.92-31.49-1.662-17.99 6.005-20.85 19.147-25.52 34.844-6.74-4.345-11.9-7.037-19.08-10.71"/><path fill="#faf9f8" d="M1427.36 514.254c8.9-23.662 19.36-37.637 44.24-46.098a74.28 74.28 0 0 1 57.45 4.119c18.69 9.382 28.18 21.203 34.57 40.846-3.12.975-7.86 2.293-10.7 3.621-18.96-45.157-72.37-58.754-105.69-16.723-3.91 4.928-6.1 13.176-8.93 18.753z"/><path fill="#dc9d5b" d="M1498.79 787.733c5.99-25.257 22.53-44.973 44.39-58.516a111.04 111.04 0 0 1 85.16-13.783c36.88 9.097 69.88 34.543 77.51 73.345-4.41.512-8.93.979-13.32 1.573-8.15 1.597-13.41 2.661-21.25 5.184-3.81 1.489-9 3.332-12.6 4.994-5.88 3.165-11.73 6.372-17.56 9.621-18.3 12.79-23.95 20.29-37.53 37.161-12.25-18.003-21-26.372-39.12-39.005-6.08-3.89-10.5-6.026-17.02-9.189l-12.12-4.644c-6.94-2.403-13.67-3.663-20.83-5.188z"/><path fill="#faf9f8" d="M1498.79 787.733c5.99-25.257 22.53-44.973 44.39-58.516a111.04 111.04 0 0 1 85.16-13.783c36.88 9.097 69.88 34.543 77.51 73.345-4.41.512-8.93.979-13.32 1.573-6.65-30.724-35.32-54.409-64.78-62.185a98.85 98.85 0 0 0-75.9 10.514c-20.44 12.081-31.55 27.801-37.35 50.605z"/><path fill="#faf9f8" d="M1564.47 808.307c.63-1.877 1.3-3.85 1.79-5.751 5.78-22.557 27.17-34.51 49.33-27.097 16.78 5.612 20.68 19.862 25.53 34.692-18.3 12.79-23.95 20.29-37.53 37.161-12.25-18.003-21-26.372-39.12-39.005"/><path fill="#dc9d5b" d="M1547.45 799.118c14.21-57.374 96.49-55.81 111.23 1.412-5.88 3.165-11.73 6.372-17.56 9.621-4.85-14.83-8.75-29.08-25.53-34.692-22.16-7.413-43.55 4.54-49.33 27.097-.49 1.901-1.16 3.874-1.79 5.751-6.08-3.89-10.5-6.026-17.02-9.189"/><path fill="#faf9f8" d="M1535.33 794.474c3.43-10.53 8.28-22.083 17-29.202 43.18-35.252 99.37-20.821 118.95 30.264-3.81 1.489-9 3.332-12.6 4.994-14.74-57.222-97.02-58.786-111.23-1.412z"/><path fill="#dc9d5b" d="M1277.99 786.665c8.9-28.599 23.88-47.811 50.87-62.11a114.52 114.52 0 0 1 87.47-7.479c30.04 9.557 54.5 29.214 67.04 58.497-1.93 9.341-.67 12.312-10.77 13.451-8.61 1.906-13.68 3.008-21.85 6.057l-11.52 4.617c-5.66 2.887-11.56 5.729-16.95 9.059-18.36 12.328-25.9 20.327-38.25 37.805-13.6-18.643-19.26-26.833-39.71-39.508-6.39-3.708-11.32-6.17-18.03-9.33-3.93-1.737-8.06-3.018-12.14-4.395-8.2-2.33-13.18-3.518-21.56-4.937-4.75-.594-9.86-1.337-14.6-1.727"/><path fill="#faf9f8" d="M1277.99 786.665c8.9-28.599 23.88-47.811 50.87-62.11a114.52 114.52 0 0 1 87.47-7.479c30.04 9.557 54.5 29.214 67.04 58.497-1.93 9.341-.67 12.312-10.77 13.451-9.15-28.098-31.31-50.811-59.42-60.063a98.13 98.13 0 0 0-75.52 5.533c-23.83 12.23-36.86 28.895-45.07 53.898-4.75-.594-9.86-1.337-14.6-1.727"/><path fill="#faf9f8" d="M1344.32 807.054c3.36-11.643 8.52-22.834 19.68-28.986 17.26-9.514 42.94-3.541 51.76 14.939 2.37 4.958 4.13 10.637 6.52 15.75-18.36 12.328-25.9 20.327-38.25 37.805-13.6-18.643-19.26-26.833-39.71-39.508"/><path fill="#dc9d5b" d="M1326.29 797.724c6.26-17.053 13.17-27.857 30.73-35.837a61.4 61.4 0 0 1 46.81-1.442c15.91 6.116 26.56 18.033 33.06 33.414q1.215 2.9 2.34 5.839c-5.66 2.887-11.56 5.729-16.95 9.059-2.39-5.113-4.15-10.792-6.52-15.75-8.82-18.48-34.5-24.453-51.76-14.939-11.16 6.152-16.32 17.343-19.68 28.986-6.39-3.708-11.32-6.17-18.03-9.33"/><path fill="#faf9f8" d="M1314.15 793.329c18.54-58.331 102.97-65.766 131.44-11.525 2.08 3.962 3.63 9.028 5.16 13.277l-11.52 4.617q-1.125-2.94-2.34-5.839c-6.5-15.381-17.15-27.298-33.06-33.414a61.4 61.4 0 0 0-46.81 1.442c-17.56 7.98-24.47 18.784-30.73 35.837-3.93-1.737-8.06-3.018-12.14-4.395"/><path fill="#dc9d5b" d="M1404.18 881.653c-3.73-.449-6.21-.222-8.73-2.831-1.85-4.964.07-14.182 2.35-18.85 11.91-24.342 35.96-40.806 60.74-50.053 53.4-19.93 127.5 11.294 137.34 70.858-4.26.412-8.51.866-12.77 1.364-6.85.933-15.8 2.197-22.29 4.759l-11.69 4.399c-7.1 2.798-11.48 4.999-18.26 8.576-15.62 8.541-30.26 23.82-40.19 38.45-10.57-16.266-18.88-23.906-34.32-35.309-6.54-4.404-11.8-7.062-18.83-10.698l-11.23-4.395c-7.62-2.637-14.28-4.292-22.12-6.27"/><path fill="#faf9f8" d="M1404.18 881.653c-3.73-.449-6.21-.222-8.73-2.831-1.85-4.964.07-14.182 2.35-18.85 11.91-24.342 35.96-40.806 60.74-50.053 53.4-19.93 127.5 11.294 137.34 70.858-4.26.412-8.51.866-12.77 1.364a84.5 84.5 0 0 0-29.81-45.493c-43.18-34.369-115.01-23.366-141.48 27.317-1.92 3.671-5.98 16.343-7.64 17.688"/><path fill="#faf9f8" d="M1456.36 903.016c1.23-7.176 2.54-13.372 5.88-19.964 8.86-16.817 34.74-22.259 50.57-12.506 16.31 10.043 13.05 15.307 18.06 29.329-15.62 8.541-30.26 23.82-40.19 38.45-10.57-16.266-18.88-23.906-34.32-35.309"/><path fill="#dc9d5b" d="M1437.53 892.318c1.3-4.566 2.63-8.492 4.84-12.737a57.22 57.22 0 0 1 34.11-28.194 59.96 59.96 0 0 1 46.08 4.691c15.39 8.446 21.76 19.305 26.57 35.221-7.1 2.798-11.48 4.999-18.26 8.576-5.01-14.022-1.75-19.286-18.06-29.329-15.83-9.753-41.71-4.311-50.57 12.506-3.34 6.592-4.65 12.788-5.88 19.964-6.54-4.404-11.8-7.062-18.83-10.698"/><path fill="#faf9f8" d="M1426.3 887.923c6.49-23.581 22.11-39.361 45.35-46.696a73.54 73.54 0 0 1 56.62 5.284c17.2 9.168 27.03 21.872 32.55 40.389l-11.69 4.399c-4.81-15.916-11.18-26.775-26.57-35.221a59.96 59.96 0 0 0-46.08-4.691 57.22 57.22 0 0 0-34.11 28.194c-2.21 4.245-3.54 8.171-4.84 12.737z"/><path fill="#dc9d5b" d="M1502.81 413.625c38.09-84.923 171.35-85.029 208.23.081-4.6.364-9.59.609-14.09 1.45-8.63 1.4-13.77 2.425-22.15 4.76-3.92 1.302-9.93 3.098-13.52 4.755-6.71 3.061-11.62 5.313-17.96 9.026-17.16 10.402-27.26 22.5-38.73 38.226-12.28-17.799-18.24-22.892-35.89-35.829-5.81-3.129-11.7-6.52-17.47-9.76l-11.17-4.756c-8.05-2.747-15.5-4.454-23.82-6.071-4.41-.561-9.09-1.063-13.43-1.882"/><path fill="#faf9f8" d="M1502.81 413.625c38.09-84.923 171.35-85.029 208.23.081-4.6.364-9.59.609-14.09 1.45-32.79-70.883-146.13-69.549-179.81-.139l-.9.49c-4.41-.561-9.09-1.063-13.43-1.882"/><path fill="#faf9f8" d="M1568.7 436.094c1.28-2.599 3.18-6.278 4.14-8.93 9.5-26.226 61.31-27.948 69.02.35a87 87 0 0 1 1.46 6.183c-17.16 10.402-27.26 22.5-38.73 38.226-12.28-17.799-18.24-22.892-35.89-35.829"/><path fill="#dc9d5b" d="M1551.23 426.334c21.27-44.154 87.72-45.837 110.05-1.663-6.71 3.061-11.62 5.313-17.96 9.026-.41-2.079-.9-4.141-1.46-6.183-7.71-28.298-59.52-26.576-69.02-.35-.96 2.652-2.86 6.331-4.14 8.93-5.81-3.129-11.7-6.52-17.47-9.76"/><path fill="#faf9f8" d="M1540.06 421.578a60.2 60.2 0 0 1 20.53-25.338c27.42-19.651 74.46-17.986 99.2 5.324 6.31 5.945 10.05 11.204 15.01 18.352-3.92 1.302-9.93 3.098-13.52 4.755-22.33-44.174-88.78-42.491-110.05 1.663z"/><path fill="#dc9d5b" d="M1283.48 413.537c10.81-25.376 31.44-43.425 56.77-53.792a123.63 123.63 0 0 1 94.04.428c15.73 6.648 53.12 32.442 51.38 51.328-2.65 4.502-3.74 3.724-8.94 4.075-8.32 1.562-16.3 2.883-24.31 5.756-3.86 1.301-7.61 2.511-11.39 4.046-5.41 2.767-11.46 5.64-16.5 8.929-17.77 11.779-27.03 20.364-38.18 38.382-13.03-17.764-18.44-23.559-36.63-36.91-6.17-3.565-12.22-6.626-18.57-9.865l-11.06-4.57a286 286 0 0 0-21.87-5.906c-4.71-.646-10.05-1.51-14.74-1.901"/><path fill="#faf9f8" d="M1283.48 413.537c10.81-25.376 31.44-43.425 56.77-53.792a123.63 123.63 0 0 1 94.04.428c15.73 6.648 53.12 32.442 51.38 51.328-2.65 4.502-3.74 3.724-8.94 4.075-1.83-.72-14.37-23.328-21.04-28.556-47.17-36.967-129.69-32.779-157.47 28.418-4.71-.646-10.05-1.51-14.74-1.901"/><path fill="#faf9f8" d="m1349.72 435.779.56-1.628c7.39-21.841 20.92-28.769 43.23-25.349 17.2 2.637 24.11 9.241 30.63 24.612l.39.893c-17.77 11.779-27.03 20.364-38.18 38.382-13.03-17.764-18.44-23.559-36.63-36.91"/><path fill="#dc9d5b" d="M1331.15 425.914c12.04-21.002 31.25-32.221 55.44-32.257 25.61-.038 42.47 8.445 54.44 31.721-5.41 2.767-11.46 5.64-16.5 8.929l-.39-.893c-6.52-15.371-13.43-21.975-30.63-24.612-22.31-3.42-35.84 3.508-43.23 25.349l-.56 1.628c-6.17-3.565-12.22-6.626-18.57-9.865"/><path fill="#faf9f8" d="M1320.09 421.344c3.53-13.663 21.29-25.972 33.66-31.371a84.2 84.2 0 0 1 64.34-.715c16.12 6.375 27.26 15.944 34.33 32.074-3.86 1.301-7.61 2.511-11.39 4.046-11.97-23.276-28.83-31.759-54.44-31.721-24.19.036-43.4 11.255-55.44 32.257z"/><path fill="#283037" d="M219.007 304.436c89.283-1.186 181.959.258 271.493.254l605.81.103 491.32-.379 168.18.24c20.6.055 41.22-.347 61.81-.312 4.36.007 10.31.772 14.08 3.272 2.06 1.363 3.09 3.593 3.16 6.081.09 3.102-2.23 5.749-4.07 8.071-11.49 1.03-33.91.345-46.38.338l-89.88-.062-282.73.046-940.945-.041-194.173-.146c-14.63-.048-29.218.225-43.841.449-7.324.112-19.256.819-23.274-6.462-.566-6.824 3.239-10.067 9.44-11.452"/><path fill="#d02624" d="M1017.16 467.752c.01-3.907-.95-13.423 2.37-15.247 13.27-7.28 11.57 10.523 11.6 14.754l98.8.003c14.9.027 39.69-.657 53.84.481-7.02 12.093-21.35 28.293-30.07 40.6 9.24 16.415 20.51 36.206 28.93 52.994-50.54-.092-101.08.079-151.63.514l-13.36.04c-1.17-29.177-.35-64.55-.48-94.139"/><path fill="#283037" d="M1017.16 467.752c.01-3.907-.95-13.423 2.37-15.247 13.27-7.28 11.57 10.523 11.6 14.754-4.93.324-9.02.492-13.97.493M738.127 179.275c31.16-4.181 59.83 17.632 64.113 48.779 4.282 31.146-17.438 59.887-48.57 64.271-31.276 4.403-60.178-17.438-64.48-48.728s17.633-60.121 48.937-64.322"/><path fill="#dc9d5b" d="M741.298 204.833a31.52 31.52 0 1 1 8.32 62.485c-17.136 2.073-32.753-10.022-35.031-27.132s9.63-32.87 26.711-35.353"/><path fill="#283037" d="M740.009 218.187c15.787-1.409 28.774 5.5 24.362 25.038-1.071 4.739-8.601 8.968-13.056 10.588-4.307.636-6.382 1.091-10.804.068a19.67 19.67 0 0 1-12.265-8.982c-7.017-11.811 1.139-21.594 11.763-26.712m-283.562-38.894c30.966-4.837 60.026 16.238 65.048 47.174s-15.878 60.122-46.784 65.329c-31.168 5.252-60.656-15.866-65.721-47.065s16.228-60.56 47.457-65.438"/><path fill="#dc9d5b" d="M466.333 204.871c17.297.446 31.021 14.716 30.793 32.017s-14.324 31.204-31.626 31.194a31.612 31.612 0 1 1 .833-63.211"/><path fill="#283037" d="M459.729 218.07a19.01 19.01 0 1 1 10.895 36.418c-9.961 2.732-20.281-2.99-23.242-12.886s2.522-20.345 12.347-23.532m836.531-38.717c30.98-4.954 60.13 16.066 65.22 47.021s-15.81 60.199-46.74 65.417c-31.12 5.25-60.58-15.799-65.7-46.943s16.06-60.511 47.22-65.495"/><path fill="#dc9d5b" d="M1304.11 205.275c26.03.919 42.59 23.687 28.61 48.112-5.34 9.343-15.67 11.833-25.63 13.619-44.21-2.068-47.89-54.399-2.98-61.731"/><path fill="#283037" d="M1301.21 218.102c4.52-.137 7.27-.482 11.5 1.297a19.18 19.18 0 0 1 10.41 10.594c4.86 12.242-3.36 20.398-14.24 24.176-4.86.222-7.94.352-12.5-1.606a17.77 17.77 0 0 1-9.88-10.63c-3.86-11.209 4.52-20.447 14.71-23.831m-283.1-39.007c31.03-4.036 59.5 17.71 63.78 48.708s-17.24 59.644-48.21 64.162c-31.3 4.568-60.337-17.246-64.661-48.587-4.325-31.341 17.715-60.202 49.091-64.283"/><path fill="#dc9d5b" d="M1021.08 205.149c41.18-1.723 52.95 47.897 13.23 60.513l-1.95.628c-8.4.904-15.22.601-22.89-3.776a33.33 33.33 0 0 1-15.876-20.368c-5.325-19.224 10.176-32.93 27.486-36.997"/><path fill="#283037" d="M1019.95 218.109c28.28-1.668 35.19 24.828 11.06 35.731-10.02.661-19.3.083-23.66-10.449-4.98-12.041 1.93-20.924 12.6-25.282m558.22-39.023c31.05-3.767 59.31 18.244 63.25 49.266 3.95 31.021-17.9 59.406-48.9 63.533-31.25 4.161-59.92-17.905-63.9-49.182s18.25-59.82 49.55-63.617"/><path fill="#dc9d5b" d="M1577.28 205.78c16.88-4.306 34.06 5.916 38.32 22.811 4.27 16.895-6 34.043-22.9 38.268-16.85 4.211-33.93-6.009-38.18-22.847s5.93-33.941 22.76-38.232"/><path fill="#283037" d="M1580.05 217.943c10.12-2.748 20.54 3.286 23.2 13.432 2.65 10.147-3.48 20.511-13.65 23.073-10.04 2.529-20.24-3.504-22.86-13.52s3.32-20.272 13.31-22.985"/><path fill="#dc9d5b" d="M444.325 909.411c37.838-1.268 75.603 20.442 90.672 55.817 2.024 4.751 6.326 17.998 4.384 22.539-5.23 1.145-15.901.727-21.724.692-6.056-36.968-30.145-51.895-64.87-57.348-39.121-1.426-68.544 17.945-75.432 57.422l-22.509-.342c7.523-49.513 40.768-74.609 89.479-78.78m1151.395.018a101.37 101.37 0 0 1 65.92 20.996c20.2 15.739 28.21 32.824 31.29 57.507l-22.43-.042c-7.27-35.55-29.95-54.772-66.25-57.366-21.32-1.769-45.3 8.43-58.97 24.731-9.02 10.759-11.75 19.794-14.83 33.171-6.52.19-13.55.643-19.99-.125-8.81-7.327 9.32-37.061 15.46-44.265 19.09-22.379 40.98-32.046 69.8-34.607M240.833 524.137c.743-86.045 145.402-123.227 184.91-15.828-8.975 1.55-14.3 2.8-23.027 5.419-12.893-63.457-126.42-72.485-140.088 10.408zm445.445 172.41c3.461-4.674 6.593-16.143 10.164-22.352 11.796-20.506 35.181-35.242 57.606-40.97a100.27 100.27 0 0 1 77.128 11.782c26.312 16.036 37.079 35.541 41.143 65.228l-23.33-.058c-1.306-6.828-2.511-13.932-5.818-20.053-30.55-56.547-114.389-49.893-134.198 11.904-6.597-2.314-15.796-4.3-22.695-5.481m937.522.565c8.74-26.223 20.26-42.967 45.21-56.152 53.75-28.41 133.5 4.916 136.52 69.317-7.49.276-15.05.631-22.54.578-1.2-7.677-2.04-12.963-5.22-20.19-20.39-46.197-94.04-51.462-122.29-10.387a60 60 0 0 0-9.42 23.009c-6.49-2.755-15.39-4.631-22.26-6.175M240.687 710.077c4.661-37.816 28.884-64.957 65.333-75.941a100.2 100.2 0 0 1 75.85 7.8c23.085 12.628 34.488 30.294 41.618 55.038-6.615 1.424-13.236 2.667-19.632 4.86-3.299-7.667-5.315-13.305-10.011-20.295a69.94 69.94 0 0 0-45.308-29.383c-30.874-5.779-68.805 9.691-79.806 40.783-2.07 5.851-3.15 11.748-4.3 17.832-8.465.026-15.306-.145-23.744-.694m936.813.779c3.27-48.944 53.29-85.19 100.73-80.716 29.71 2.801 63.77 19.905 76.64 48.036 1.66 3.625 6.08 16.981 7.82 18.27-6.55 1.094-15.69 2.719-21.81 5.038-11.76-49.25-78.95-64.988-115.75-34.605-15.91 13.136-21.34 23.883-25.74 43.599zm444.81 171.752c2.43-1.677 8.35-16.478 10.96-20.912 42.44-71.977 162.24-52.48 170.76 34.467l-22.12.053c-2.37-17.967-9.11-31.091-23.68-42.186a74.8 74.8 0 0 0-55.34-14.197c-25.57 3.519-53.1 21.756-57.53 48.686-8.32-2.461-14.58-4.292-23.05-5.911M241.501 896.189c1.927-17.699 7.128-30.578 18.59-44.294a96.57 96.57 0 0 1 66.908-34.44 98.2 98.2 0 0 1 71.8 22.854c12.56 10.744 23.198 25.347 24.412 42.293-7.408 1.658-12.316 2.834-19.464 5.262-8.131-24.84-23.96-41.189-49.768-47.614a76.06 76.06 0 0 0-58.536 8.881c-19.693 11.985-26.376 25.537-31.715 47.075zM1623.5 508.955c11.99-27.836 23.61-46.898 53.93-58.877a98.76 98.76 0 0 1 74.7 1.192c29.63 12.851 51.3 39.908 53.17 72.635l-21.16.117c-3.84-20.312-11.12-35.519-28.92-47.457a74.83 74.83 0 0 0-56.6-10.851c-26.5 5.39-45.24 23.007-53.12 48.738-8.05-2.387-13.78-4.155-22-5.497m-440.93 386.917c8.94-95.684 154.84-108.551 180.41-15.831-7.96 1.092-13.99 1.832-21.64 4.332-16.25-45.052-67.11-59.66-107.32-34.498-18.42 11.531-24.74 25.366-29.41 46.253zm-495.064-15.903c26.363-79.675 139.118-82.958 172.839-12.167a72.9 72.9 0 0 1 7.116 28.136l-22.727.157c-8.195-40.718-43.161-64.905-84.125-56.734a69.56 69.56 0 0 0-44.644 30.104c-3.432 5.331-5.034 9.288-7.187 15.186-7.665-2.052-13.446-3.266-21.272-4.682M1204.4 524.153c-6.23.221-12.42.807-18.48-.371l-1.16-1.728c-1.12-12.093 14.74-33.367 21.68-42.942 11.79-16.274 22.85-27.878 42.78-33.292 49.1-13.342 101.51 12.03 116.15 61.976-7.44 1.432-13.59 2.667-20.88 4.654-4.91-24.004-28.04-42.076-51.18-46.984a77.5 77.5 0 0 0-59.14 11.284c-17.65 11.729-25.67 27.248-29.77 47.403m172.14 383.264c14.83-.487 34.15 3.953 47.31 10.583 27.02 13.602 38.17 28.93 47.77 56.527-7.31.568-16.28 2.284-23.67 3.501-8.54-25.631-21.5-37.362-46.74-46.255a82 82 0 0 0-36.14-2.448c-22.03 3.506-35.91 14.348-48.62 31.886a537 537 0 0 0-24.11-1.495c15.76-35.122 47.48-49.756 84.2-52.299m-717.151.947c10.402-1.846 29.83.381 40.138 3.592 27.598 8.596 42.663 22.326 56.308 46.886a127 127 0 0 0-24.4 2.366c-15.992-26.271-45.843-35.798-75.282-31.144-30.697 6.041-46.039 18.931-56.881 48.086a608 608 0 0 0-23.747-3.634c13.916-38.811 43.011-61.057 83.864-66.152M1072.5 416.319c22.42-48.751 82.29-64.738 129.97-46.567 24.36 9.284 38.44 22.219 49.47 45.715-9.56 1.778-14.03 3.188-23.19 5.904-.78-1.847-1.6-3.672-2.48-5.472-23.08-46.773-113.49-44.245-130 7.419-8.01-2.618-15.66-4.757-23.77-6.999m-277.178-1.812c2.811-.423 2.899.225 4.485-2.384 15.718-25.847 38.752-43.598 69.285-47.852 48.402-6.745 85.694 10.781 110.524 51.998a1679 1679 0 0 1-24.275 6.313c-5.787-10.696-10.862-18.242-20.998-25.398-24.285-17.148-60.043-18.649-86.009-4.352a71.8 71.8 0 0 0-27.681 26.935c-9.665-2.789-15.292-3.997-25.331-5.26m2.816 188.3c4.218-3.306 3.428-15.49 6.49-21.677 15.912-32.156 49.406-50.77 84.13-46.464a82.44 82.44 0 0 1 55.103 31.358c8.398 10.995 11.583 20.006 14.614 33.185l-18.548.487c-2.193-6.779-4.027-12.308-7.734-18.593-22.062-37.409-82.524-38.215-104.768-.821-5.505 9.254-4.231 18.476-13.487 25.391-5.547-1.156-10.168-2.063-15.8-2.866"/><path fill="#dc9d5b" d="M276.359 524.008c1.565-7.551 2.676-13.543 6.282-20.413 19.436-37.023 75.713-38.479 99.562-5.365 5.073 7.043 6.486 11.944 8.892 19.986-6.301 3.169-13.26 6.491-19.253 10.122-.634-6.153-.995-10.66-3.9-16.266a37.3 37.3 0 0 0-23.394-18.89c-24.777-6.927-41.857 7.564-47.127 31.106zm962.151.813c-17.64.118-26.33 2.777-15.47-17.83 24.9-47.237 93.41-42.465 109.14 9.921-6.3 2.906-12.66 5.76-18.83 8.918-6.69-43.098-62.42-47.5-74.84-1.009M276.253 710.62c1.658-7.215 2.961-13.295 6.504-19.978 15.359-29.041 56.407-36.151 83.524-20.176 14.559 8.577 20.514 20.489 24.625 36.088-5.66 2.879-11.831 5.875-17.352 8.916-2.326-15.212-11.365-30.351-26.76-35.048a39.7 39.7 0 0 0-30.486 3.139c-12.07 6.733-15.184 15.296-18.844 27.399zm444.763-3.945c5.214-16.64 11.879-29.02 28.159-37.424 27.754-14.328 68.485-5.487 81.971 24.443 2.274 5.054 3.158 11.035 4.125 16.449l-19.566.108c-7.735-23.846-26.222-36.074-51.183-29.366-15.626 4.199-20.196 22.769-25.602 35.118a808 808 0 0 0-17.904-9.328m936.434.897c3.62-15.898 9.12-26.484 23.5-35.617 26.2-16.633 65.8-9.885 82.14 17.446 3.16 5.288 6.26 12.545 5.59 18.786-3.39 4.908-11.4 3.166-17.26 3.049-2.48-6.585-4.12-11.679-8.61-17.306-17.41-21.861-53.79-17.914-63.34 9.441-1.71 4.873-2.63 8.734-3.42 13.944-6.19-3.576-12.21-6.549-18.6-9.743m-444.27 3.194c.93-3.759 2.01-7.48 3.24-11.152a55.42 55.42 0 0 1 28.56-31.624c26.52-12.496 64.98-3.952 78.07 24.168 1.87 4.022 3.15 8.312 5.07 12.269l.7 1.436c-7.06 3.435-12.59 6.168-19.3 10.187-3.17-28.832-29.19-46.108-56.6-32.622-11.59 5.7-15.01 16.022-18.61 27.503zm444.22-191.452c2.3-6.774 4.24-12.286 8.08-18.424 22.84-36.446 81.65-34.705 99.57 5.625 2.48 5.599 3.37 8.907 4.7 14.981l.34 1.546.2.929-18.58.406c-1.8-5.679-3.06-10.212-6.36-15.36-15.09-23.475-51.49-22.258-64.13 2.893-2.81 5.587-2.76 12.691-5.33 17.916-6.28-4.468-11.6-7.217-18.49-10.512M297.214 896.152c-4.011.048-15.081.599-17.942-1.105-.857-6.054 2.942-16.496 6.446-21.227 29.817-40.253 93.438-30.639 104.655 19.712-5.546 2.824-11.197 5.607-16.606 8.672-1.51-4.111-3.584-10.76-5.24-14.523a38.2 38.2 0 0 0-21.287-20.108 37.88 37.88 0 0 0-28.996 1.297c-13.012 6.19-16.367 15.028-21.03 27.282m1360.636-2.377c11.55-57.517 98.45-61.434 111.31 2.626l-18.75.468c-2.37-6.699-3.32-10.419-7.87-16.241-15.81-20.218-47.88-19.473-60.61 3.572-2.95 5.351-3.78 13.936-5.92 19.726-5.47-3.389-12.42-6.992-18.16-10.151m-937.814-5.415a57.1 57.1 0 0 1 28.247-32.978 58 58 0 0 1 45.368-3.148c16.913 5.714 37.293 23.254 37.641 42.287l-1.144 1.825c-5.531.916-11.808.593-17.484.547-11.84-40.328-63.659-42.685-74.27.652-5.591-3.31-12.414-6.358-18.358-9.185m497.064 7.614c13.15-61.483 95.72-62.43 111.54-7.683-7.05 2.715-11.65 4.615-18.35 8.025-1.03-5.004-1.78-8.329-4.28-12.856a35.57 35.57 0 0 0-22.03-17.348 36.58 36.58 0 0 0-27.98 3.614c-11.15 6.551-14.57 14.867-17.63 26.446zm379.59 45.389c31.74-3.209 52.45 18.302 61.09 46.339-6.59-.01-13.19-.171-19.78-.483-7.27-18.676-13.38-24.211-32.78-29.526-24.31-1.539-34.6 9.388-42.18 30.809l-19.24.206c4.79-28.734 25.14-44.09 52.89-47.345m-1155.878 1.009c29.921-3.061 58.263 14.302 63.056 45.555a442 442 0 0 1-19.41-.321c-7.193-17.155-13.072-24.045-30.898-29.901-24.21-4.263-36.333 11.322-45.247 30.844-3.612.148-13.474.913-16.017-.563-1.801-7.254 3.299-18.442 7.807-24.081 10.669-13.341 24.091-19.626 40.709-21.533M1107.77 427.95c13.53-36.469 58.45-44.282 89.82-26.302 10.07 5.776 15.23 14.18 20.57 24.014-6.71 3.176-12.28 5.476-18.11 10.125-3.91-31.257-48.22-39.633-66.69-16.626-2.87 3.577-5.11 9.321-6.96 13.589-6.77-1.209-12.05-2.851-18.63-4.8m-273.697-3.061c12.396-31.23 51.266-38.332 79.933-26.933 14.626 5.815 23.378 16.063 30.125 29.891-7.042 2.354-11.566 3.998-18.314 7.032-2.615-5.957-4.637-11.367-9.125-16.173-17.784-19.042-55.311-16.642-63.464 10.683q-.704 2.442-1.355 4.897c-5.737-3.466-11.808-6.384-17.8-9.397M658.568 940.174c24.85-2.093 43.31 2.822 58.758 24.032-4.419 1.109-12.275 4.102-16.869 5.718a117 117 0 0 0-8.974-8.47c-9.178-7.694-16.645-8.304-27.839-7.378-17.97 4.482-23.98 11.634-30.686 28.347l-19.752-2.819c7.5-24.346 21.403-34.419 45.362-39.43m714.022-.841c29.48-2.503 53.09 11.825 62.26 40.665l-19.23 1.085c-5.06-9.888-6.72-13.301-14.97-20.877-18.73-11.115-36.26-6.74-51.92 6.67-6.36-1.572-13.01-2.258-19.53-3.122 13.83-16.544 21.95-21.552 43.39-24.421M875.535 562.338a52.03 52.03 0 0 1 26.849 5.056c15.775 7.561 19.462 16.37 25.068 31.882q-7.94-.102-15.879-.117c-8.857-14.659-12.181-19.357-29.372-23.202-21.482.234-27.05 8.152-33.854 26.729-5.532-.408-10.748-.541-16.282-.708 5.683-24.576 17.644-36.463 43.47-39.64"/><metadata><recraft-signature>{&quot;signed_by&quot;: &quot;recraft&quot;, &quot;signature_b64&quot;: &quot;secaOpVE5q3Okn+Wka45jXhnANXZ6VSex1bHMERn9Jc6t3h5IxW12CdoJCfqgmWfS90lwKIomlaNphnxCmJ6Dw==&quot;, &quot;signing_algo&quot;: &quot;Ed25519&quot;, &quot;generation_timestamp&quot;: 1777252267, &quot;identifier&quot;: &quot;20d1462a-f743-4b2e-977a-166eb75d0b6c&quot;}</recraft-signature></metadata></svg>