<svg xmlns="http://www.w3.org/2000/svg" height="1024" preserveAspectRatio="none" style="display: block;" version="1.1" viewBox="0 0 2048 2048" width="1024">

<path d="M 928.1 618.112 L 985.389 599.158 C 998.288 594.917 1015.68 588.842 1028.75 586.492 C 1028.83 608.09 1028.74 629.688 1028.5 651.285 C 1006.53 659.384 967.894 671.855 945.862 677.975 L 946.151 715.869 C 969.546 714.701 995.322 713.089 1018.64 712.988 C 1072.85 712.944 1126.97 717.639 1180.36 727.021 C 1186.14 728.03 1212.14 732.472 1216.69 734.546 C 1272.41 744.793 1362.08 779.391 1395.44 826.264 C 1430.35 875.313 1394.65 929.998 1349.87 955.772 C 1333.7 965.077 1316.87 975.161 1298.95 981.583 C 1273.06 991.116 1270.31 987.567 1253.1 1011 C 1224.68 1049.7 1209.84 1092.88 1198.56 1138.9 C 1197.74 1142.56 1196.81 1146.24 1196.47 1149.96 C 1192.97 1161.47 1191.48 1174.82 1189.55 1186.73 C 1181.04 1239.12 1183.03 1291.37 1182.75 1344.35 L 1182.56 1560.38 C 1182.54 1588.35 1183.16 1616.79 1182.9 1644.72 C 1182.49 1687.54 1154.2 1738.31 1123.4 1767.14 C 1094.89 1794.19 1056.74 1808.71 1017.45 1807.45 C 940.019 1804.67 879.339 1734.06 864.504 1661.4 C 862.387 1651.03 863.005 1629.77 863.015 1618.31 L 863.116 1554.55 L 863.047 1331.95 C 862.9 1213.24 875.951 1088.39 789.145 994.217 C 786.52 992.242 786.441 992.247 783.202 991.729 C 745.091 983.938 702.033 963.117 671.828 939.547 C 633.083 909.314 618.728 854.337 656.377 816.627 C 718.262 754.64 844.309 724.039 928.662 718.108 L 928.1 618.112 z" fill="rgb(60,76,92)" transform="translate(0,0)"></path>
<path d="M 928.1 618.112 L 985.389 599.158 C 998.288 594.917 1015.68 588.842 1028.75 586.492 C 1028.83 608.09 1028.74 629.688 1028.5 651.285 C 1006.53 659.384 967.894 671.855 945.862 677.975 L 946.151 715.869 C 969.546 714.701 995.322 713.089 1018.64 712.988 C 1072.85 712.944 1126.97 717.639 1180.36 727.021 C 1186.14 728.03 1212.14 732.472 1216.69 734.546 L 1215.26 735.715 L 1216.73 735.969 C 1236.71 739.599 1316.23 766.084 1330.7 776.861 L 1331.26 778.175 C 1316.61 775.526 1295.38 763.739 1281.06 759.578 C 1266.31 755.293 1231.78 740.812 1218.62 741.033 C 1221.15 741.968 1225.12 743.275 1227.32 744.527 C 1209.12 764.241 1194.85 781.161 1187.03 807.985 C 1188.66 809.126 1188.5 809.007 1190.45 808.916 C 1206.64 809.861 1241.78 821.479 1256.21 827.975 C 1258.44 828.942 1258.77 829.335 1261.03 829.05 C 1269.16 834.118 1276.8 837.485 1281.97 845.618 L 1284.39 848.88 C 1287.02 859.601 1282.05 864.004 1275.88 872.264 C 1272.76 872.883 1271.96 872.449 1271.76 875.493 C 1259.67 876.816 1235.97 892.534 1217.58 893.295 C 1212.1 893.521 1167.44 901.538 1165.76 902.436 C 1162.21 902.458 1162.43 902.471 1159.64 904.458 C 1148.57 905.642 1133.32 906.21 1121.84 906.992 C 1105.6 908.098 1086.28 909.938 1070.2 910.263 C 1067.53 910.408 1067.53 910.345 1065.11 911.108 C 1048.68 909.961 1030.28 912.364 1013.51 910.856 C 1008.74 910.428 988.706 909.138 985.636 910.938 C 983.413 909.897 983.45 909.844 981.013 910.229 C 948.335 907.737 918.288 905.352 885.703 901.507 C 882.655 900.963 881.26 900.612 878.301 901.502 C 850.08 919.366 827.223 935.832 804.616 961.119 C 797.487 969.094 792.152 976.672 785.506 984.725 C 786.59 985.467 786.844 985.763 787.887 986.74 C 785.592 988.639 785.351 990.106 783.202 991.729 C 745.091 983.938 702.033 963.117 671.828 939.547 C 633.083 909.314 618.728 854.337 656.377 816.627 C 718.262 754.64 844.309 724.039 928.662 718.108 L 928.1 618.112 z" fill="rgb(16,25,36)" transform="translate(0,0)"></path>
<path d="M 928.662 718.108 C 928.744 720.946 928.785 729.062 929.184 731.45 L 927.733 736.509 C 927.912 737.718 928.1 738.925 928.298 740.131 L 928.458 746.015 C 929.22 759.204 928.991 773.386 928.933 786.66 C 928.905 793.218 931.541 804.248 926.183 806.801 L 924.967 806.428 C 919.455 804.697 917.077 804.251 911.385 803.829 C 913.581 803.059 914.522 802.538 916.209 800.898 L 917.352 799.832 C 908.226 800.044 867.605 807.493 865.166 806.651 L 864.736 806.099 C 863.55 807.848 862.528 809.017 860.734 807.021 C 855.208 811.429 807.104 818.329 794.349 827.748 C 792.777 828.87 792.828 828.751 790.882 829.438 C 779.331 833.332 776.077 836.362 766.37 843.054 C 764.15 846.013 765.197 845.831 762.683 846.51 C 762.006 850.307 761.058 854.719 760.924 858.517 C 764.315 864.227 765.814 866.257 770.02 871.365 C 772.592 872.567 772.531 872.599 774.741 874.441 L 776.351 874.967 C 780.455 876.353 785.083 878.89 789.089 880.694 C 812.204 891.109 837.678 894.336 862.496 898.248 C 867.201 898.99 874.019 899.441 878.301 901.502 C 850.08 919.366 827.223 935.832 804.616 961.119 C 797.487 969.094 792.152 976.672 785.506 984.725 C 786.59 985.467 786.844 985.763 787.887 986.74 C 785.592 988.639 785.351 990.106 783.202 991.729 C 745.091 983.938 702.033 963.117 671.828 939.547 C 633.083 909.314 618.728 854.337 656.377 816.627 C 718.262 754.64 844.309 724.039 928.662 718.108 z" fill="rgb(70,100,129)" transform="translate(0,0)"></path>
<path d="M 690.268 943.036 C 708.145 905.572 738.391 889.032 774.741 874.441 L 776.351 874.967 C 780.455 876.353 785.083 878.89 789.089 880.694 C 812.204 891.109 837.678 894.336 862.496 898.248 C 867.201 898.99 874.019 899.441 878.301 901.502 C 850.08 919.366 827.223 935.832 804.616 961.119 C 797.487 969.094 792.152 976.672 785.506 984.725 C 776.547 980.855 761.861 977.623 752.659 974.524 C 740.092 970.292 697.571 953.501 690.268 943.036 z" fill="rgb(70,100,129)" transform="translate(0,0)"></path>
<path d="M 641.65 870.463 C 674.339 842.232 721.938 818.08 762.683 846.51 C 762.006 850.307 761.058 854.719 760.924 858.517 C 764.315 864.227 765.814 866.257 770.02 871.365 C 772.592 872.567 772.531 872.599 774.741 874.441 C 738.391 889.032 708.145 905.572 690.268 943.036 C 688.208 945.072 687.676 944.225 686.577 941.981 C 663.146 923.23 642.26 902.02 641.65 870.463 z" fill="rgb(70,100,129)" transform="translate(0,0)"></path>
<path d="M 770.02 871.365 C 772.592 872.567 772.531 872.599 774.741 874.441 C 738.391 889.032 708.145 905.572 690.268 943.036 C 688.208 945.072 687.676 944.225 686.577 941.981 L 687.086 940.806 C 702.071 906.444 736.595 884.541 770.02 871.365 z" fill="rgb(16,25,36)" transform="translate(0,0)"></path>
<path d="M 818.747 744.078 C 821.087 742.66 821.814 742.832 824.123 744.296 C 850.051 769.963 850.631 775.262 864.736 806.099 C 863.55 807.848 862.528 809.017 860.734 807.021 C 855.208 811.429 807.104 818.329 794.349 827.748 C 778.681 802.101 756.204 790.409 732.945 775.425 C 741.275 764.421 804.958 749.393 818.747 744.078 z" fill="rgb(70,100,129)" transform="translate(0,0)"></path>
<path d="M 818.747 744.078 C 821.087 742.66 821.814 742.832 824.123 744.296 C 850.051 769.963 850.631 775.262 864.736 806.099 C 863.55 807.848 862.528 809.017 860.734 807.021 C 847.474 775.843 841.74 768.664 818.747 744.078 z" fill="rgb(16,25,36)" transform="translate(0,0)"></path>
<path d="M 919.752 726.17 C 925.842 726.395 926.386 730.997 927.733 736.509 C 927.912 737.718 928.1 738.925 928.298 740.131 L 928.458 746.015 C 929.22 759.204 928.991 773.386 928.933 786.66 C 928.905 793.218 931.541 804.248 926.183 806.801 L 924.967 806.428 C 919.455 804.697 917.077 804.251 911.385 803.829 C 913.581 803.059 914.522 802.538 916.209 800.898 L 917.352 799.832 C 908.226 800.044 867.605 807.493 865.166 806.651 L 864.736 806.099 C 850.631 775.262 850.051 769.963 824.123 744.296 C 829.035 737.774 906.916 727.588 919.752 726.17 z" fill="rgb(70,100,129)" transform="translate(0,0)"></path>
<path d="M 928.458 746.015 C 929.22 759.204 928.991 773.386 928.933 786.66 C 928.905 793.218 931.541 804.248 926.183 806.801 L 924.967 806.428 C 919.455 804.697 917.077 804.251 911.385 803.829 C 913.581 803.059 914.522 802.538 916.209 800.898 L 917.352 799.832 C 920.123 798.871 924.993 799.012 927.982 798.979 C 927.961 783.904 928.134 768.553 927.765 753.497 C 927.714 751.436 927.483 751.034 927.641 748.843 L 928.458 746.015 z" fill="rgb(60,76,92)" transform="translate(0,0)"></path>
<path d="M 919.752 726.17 C 925.842 726.395 926.386 730.997 927.733 736.509 C 927.912 737.718 928.1 738.925 928.298 740.131 L 928.458 746.015 L 927.641 748.843 C 924.988 739.289 922.648 734.684 919.752 726.17 z" fill="rgb(16,25,36)" transform="translate(0,0)"></path>
<path d="M 928.662 718.108 C 928.744 720.946 928.785 729.062 929.184 731.45 L 927.733 736.509 C 926.386 730.997 925.842 726.395 919.752 726.17 C 906.916 727.588 829.035 737.774 824.123 744.296 C 821.814 742.832 821.087 742.66 818.747 744.078 C 804.958 749.393 741.275 764.421 732.945 775.425 C 729.819 774.224 728.649 774.912 725.891 776.594 C 697.85 786.389 659.787 817.045 646.301 844.132 C 643.961 848.832 640.396 858.947 642.397 864.041 C 642.061 866.127 641.52 868.424 641.65 870.463 C 642.26 902.02 663.146 923.23 686.577 941.981 C 687.676 944.225 688.208 945.072 690.268 943.036 C 697.571 953.501 740.092 970.292 752.659 974.524 C 761.861 977.623 776.547 980.855 785.506 984.725 C 786.59 985.467 786.844 985.763 787.887 986.74 C 785.592 988.639 785.351 990.106 783.202 991.729 C 745.091 983.938 702.033 963.117 671.828 939.547 C 633.083 909.314 618.728 854.337 656.377 816.627 C 718.262 754.64 844.309 724.039 928.662 718.108 z" fill="rgb(57,74,93)" transform="translate(0,0)"></path>
<path d="M 642.397 864.041 C 676.658 834.091 724.563 817.066 766.37 843.054 C 764.15 846.013 765.197 845.831 762.683 846.51 C 721.938 818.08 674.339 842.232 641.65 870.463 C 641.52 868.424 642.061 866.127 642.397 864.041 z" fill="rgb(16,25,36)" transform="translate(0,0)"></path>
<path d="M 725.891 776.594 C 728.649 774.912 729.819 774.224 732.945 775.425 C 756.204 790.409 778.681 802.101 794.349 827.748 C 792.777 828.87 792.828 828.751 790.882 829.438 C 774.996 807.731 751.097 786.381 725.891 776.594 z" fill="rgb(16,25,36)" transform="translate(0,0)"></path>
<path d="M 946.151 715.869 C 969.546 714.701 995.322 713.089 1018.64 712.988 C 1072.85 712.944 1126.97 717.639 1180.36 727.021 C 1186.14 728.03 1212.14 732.472 1216.69 734.546 L 1215.26 735.715 L 1216.73 735.969 C 1236.71 739.599 1316.23 766.084 1330.7 776.861 L 1331.26 778.175 C 1316.61 775.526 1295.38 763.739 1281.06 759.578 C 1266.31 755.293 1231.78 740.812 1218.62 741.033 C 1221.15 741.968 1225.12 743.275 1227.32 744.527 C 1209.12 764.241 1194.85 781.161 1187.03 807.985 C 1174.39 804.313 1116.46 797.238 1112.31 795.021 L 1111.56 790.181 C 1111.04 793.407 1110.51 798.645 1107.28 793.217 L 1106.95 793.729 C 1103.68 795.206 1073.9 791.964 1068.38 791.599 C 1054.3 790.797 1040.2 790.356 1026.1 790.276 C 1026.08 778.763 1028.02 723.597 1024.26 718.823 C 1023.73 719.434 1021.96 721.202 1021.93 722.033 C 1021.17 743.531 1020.77 769.036 1021.28 790.234 C 1009.8 790.469 953.918 795.086 946.425 793.628 L 945.614 792.319 C 946.348 766.957 947.301 741.198 946.151 715.869 z" fill="rgb(70,100,129)" transform="translate(0,0)"></path>
<path d="M 1107.28 793.217 C 1107.83 790.495 1108.45 787.754 1108.89 784.985 C 1112.07 764.707 1117.34 743.71 1126.91 725.525 C 1127.43 724.541 1130.21 726.336 1129 729.49 C 1127.45 733.551 1125.38 737.765 1123.8 741.805 C 1120.68 749.855 1118.13 758.111 1116.16 766.513 C 1114.4 774.031 1112.64 782.525 1111.56 790.181 C 1111.04 793.407 1110.51 798.645 1107.28 793.217 z" fill="rgb(16,25,36)" transform="translate(0,0)"></path>
<path d="M 928.1 618.112 L 985.389 599.158 C 998.288 594.917 1015.68 588.842 1028.75 586.492 C 1028.83 608.09 1028.74 629.688 1028.5 651.285 C 1006.53 659.384 967.894 671.855 945.862 677.975 L 946.151 715.869 C 947.301 741.198 946.348 766.957 945.614 792.319 C 945.278 795.518 944.983 797.915 945.016 801.166 C 945.216 811.965 945.189 822.512 945.139 833.297 C 944.983 867.258 891.354 889.504 867.448 866.428 C 862.01 861.278 859.031 854.05 859.261 846.564 C 859.679 832.607 870.094 820.684 880.694 812.614 C 892.923 807.39 898.235 805.941 911.385 803.829 C 917.077 804.251 919.455 804.697 924.967 806.428 L 926.183 806.801 C 931.541 804.248 928.905 793.218 928.933 786.66 C 928.991 773.386 929.22 759.204 928.458 746.015 L 928.298 740.131 C 928.1 738.925 927.912 737.718 927.733 736.509 L 929.184 731.45 C 928.785 729.062 928.744 720.946 928.662 718.108 L 928.1 618.112 z" fill="rgb(154,35,46)" transform="translate(0,0)"></path>
<path d="M 933.943 622.603 C 952.622 616.875 971.228 610.913 989.758 604.72 C 998.853 601.7 1012.21 596.412 1021.09 594.671 C 1021.19 608.059 1020.61 632.681 1021.78 645.162 C 1004.18 651.966 986.545 657.649 968.758 663.848 C 959.751 666.987 947.427 670.78 938.95 674.802 C 939.659 720.392 942.555 771.262 939.261 816.489 C 930.633 808.122 934.681 803.715 934.006 792.777 C 934.006 791.89 934.007 791.003 934.008 790.116 C 936.581 776.23 934.553 757.873 935.227 743.611 C 937.135 703.271 934.051 662.923 933.943 622.603 z" fill="rgb(200,40,56)" transform="translate(0,0)"></path>
<path d="M 928.298 740.131 C 929.713 744.456 931.869 745.235 933.974 750.445 C 933.713 755.861 933.606 786.055 934.008 790.116 C 934.007 791.003 934.006 791.89 934.006 792.777 C 932.107 799.24 934.697 810.892 926.183 806.801 C 931.541 804.248 928.905 793.218 928.933 786.66 C 928.991 773.386 929.22 759.204 928.458 746.015 L 928.298 740.131 z" fill="rgb(134,36,43)" transform="translate(0,0)"></path>
<path d="M 903.931 811.194 C 955.11 806.013 946.147 858.122 900.24 868.81 C 851.521 872.399 855.881 823.975 903.931 811.194 z" fill="rgb(200,40,56)" transform="translate(0,0)"></path>
<path d="M 1024.26 718.823 C 1028.02 723.597 1026.08 778.763 1026.1 790.276 C 1040.2 790.356 1054.3 790.797 1068.38 791.599 C 1073.9 791.964 1103.68 795.206 1106.95 793.729 L 1107.28 793.217 C 1110.51 798.645 1111.04 793.407 1111.56 790.181 L 1112.31 795.021 C 1116.46 797.238 1174.39 804.313 1187.03 807.985 C 1188.66 809.126 1188.5 809.007 1190.45 808.916 C 1206.64 809.861 1241.78 821.479 1256.21 827.975 C 1258.44 828.942 1258.77 829.335 1261.03 829.05 C 1269.16 834.118 1276.8 837.485 1281.97 845.618 L 1284.39 848.88 C 1287.02 859.601 1282.05 864.004 1275.88 872.264 C 1272.76 872.883 1271.96 872.449 1271.76 875.493 C 1259.67 876.816 1235.97 892.534 1217.58 893.295 C 1212.1 893.521 1167.44 901.538 1165.76 902.436 C 1162.21 902.458 1162.43 902.471 1159.64 904.458 C 1148.57 905.642 1133.32 906.21 1121.84 906.992 C 1105.6 908.098 1086.28 909.938 1070.2 910.263 C 1067.53 910.408 1067.53 910.345 1065.11 911.108 C 1048.68 909.961 1030.28 912.364 1013.51 910.856 C 1008.74 910.428 988.706 909.138 985.636 910.938 C 983.413 909.897 983.45 909.844 981.013 910.229 C 948.335 907.737 918.288 905.352 885.703 901.507 C 882.655 900.963 881.26 900.612 878.301 901.502 C 874.019 899.441 867.201 898.99 862.496 898.248 C 837.678 894.336 812.204 891.109 789.089 880.694 C 785.083 878.89 780.455 876.353 776.351 874.967 L 774.741 874.441 C 772.531 872.599 772.592 872.567 770.02 871.365 C 765.814 866.257 764.315 864.227 760.924 858.517 C 761.058 854.719 762.006 850.307 762.683 846.51 C 765.197 845.831 764.15 846.013 766.37 843.054 C 776.077 836.362 779.331 833.332 790.882 829.438 C 792.828 828.751 792.777 828.87 794.349 827.748 C 807.104 818.329 855.208 811.429 860.734 807.021 C 862.528 809.017 863.55 807.848 864.736 806.099 L 865.166 806.651 C 867.605 807.493 908.226 800.044 917.352 799.832 L 916.209 800.898 C 914.522 802.538 913.581 803.059 911.385 803.829 C 898.235 805.941 892.923 807.39 880.694 812.614 C 850.257 815.618 783.306 831.405 765.843 856.179 C 774.818 866.672 785.86 872.299 798.695 876.817 C 895.309 910.824 1177.08 917.598 1269.9 867.107 C 1274.24 864.748 1277.46 859.561 1278.63 854.903 C 1275.43 837.379 1223.81 823.747 1208.06 819.888 C 1121.99 799.314 1033.13 792.99 945.016 801.166 C 944.983 797.915 945.278 795.518 945.614 792.319 L 946.425 793.628 C 953.918 795.086 1009.8 790.469 1021.28 790.234 C 1020.77 769.036 1021.17 743.531 1021.93 722.033 C 1021.96 721.202 1023.73 719.434 1024.26 718.823 z" fill="rgb(57,74,93)" transform="translate(0,0)"></path>
<path d="M 1024.26 718.823 C 1028.05 735.042 1023.43 770.952 1024.76 788.976 C 1024.83 789.928 1021.35 790.224 1021.28 790.234 C 1020.77 769.036 1021.17 743.531 1021.93 722.033 C 1021.96 721.202 1023.73 719.434 1024.26 718.823 z" fill="rgb(16,25,36)" transform="translate(0,0)"></path>
<path d="M 878.301 901.502 C 881.26 900.612 882.655 900.963 885.703 901.507 C 918.288 905.352 948.335 907.737 981.013 910.229 C 968.323 933.938 956.838 961.18 951.249 987.511 L 950.318 992.01 C 949.339 997.81 948.525 1003.52 947.446 1009.31 L 946.833 1010.41 C 939.181 1012.97 876.072 1004.34 865.168 1003.23 C 842.162 1000.89 812.386 993.046 790.212 986.464 L 788.7 987.196 L 787.887 986.74 C 786.844 985.763 786.59 985.467 785.506 984.725 C 792.152 976.672 797.487 969.094 804.616 961.119 C 827.223 935.832 850.08 919.366 878.301 901.502 z" fill="rgb(70,100,129)" transform="translate(0,0)"></path>
<path d="M 878.301 901.502 C 881.26 900.612 882.655 900.963 885.703 901.507 C 878.525 906.91 870.091 911.959 862.547 916.992 C 840.169 931.922 803.857 963.129 790.212 986.464 L 788.7 987.196 L 787.887 986.74 C 786.844 985.763 786.59 985.467 785.506 984.725 C 792.152 976.672 797.487 969.094 804.616 961.119 C 827.223 935.832 850.08 919.366 878.301 901.502 z" fill="rgb(16,25,36)" transform="translate(0,0)"></path>
<path d="M 1159.64 904.458 C 1162.43 902.471 1162.21 902.458 1165.76 902.436 C 1198.37 924.401 1217.66 938.424 1242.97 970.481 C 1247.13 975.786 1251.01 981.302 1254.61 987.007 C 1252.78 987.863 1252.79 987.965 1250.89 988.07 C 1230 1000.23 1126.68 1010.33 1100.33 1010.24 C 1098.76 1010.01 1097.89 1009.93 1096.31 1009.85 C 1091.32 974.898 1082.44 942.146 1065.11 911.108 C 1067.53 910.345 1067.53 910.408 1070.2 910.263 C 1086.28 909.938 1105.6 908.098 1121.84 906.992 C 1133.32 906.21 1148.57 905.642 1159.64 904.458 z" fill="rgb(70,100,129)" transform="translate(0,0)"></path>
<path d="M 1159.64 904.458 C 1162.43 902.471 1162.21 902.458 1165.76 902.436 C 1198.37 924.401 1217.66 938.424 1242.97 970.481 C 1247.13 975.786 1251.01 981.302 1254.61 987.007 C 1252.78 987.863 1252.79 987.965 1250.89 988.07 C 1249.61 986.217 1248.3 984.381 1246.97 982.564 C 1227.32 956.187 1189.83 917.761 1159.64 904.458 z" fill="rgb(16,25,36)" transform="translate(0,0)"></path>
<path d="M 1065.11 911.108 C 1067.53 910.345 1067.53 910.408 1070.2 910.263 C 1087.79 944.146 1094.52 973.306 1100.33 1010.24 C 1098.76 1010.01 1097.89 1009.93 1096.31 1009.85 C 1091.32 974.898 1082.44 942.146 1065.11 911.108 z" fill="rgb(16,25,36)" transform="translate(0,0)"></path>
<path d="M 985.636 910.938 C 988.706 909.138 1008.74 910.428 1013.51 910.856 C 1030.28 912.364 1048.68 909.961 1065.11 911.108 C 1082.44 942.146 1091.32 974.898 1096.31 1009.85 C 1081.07 1013.14 960.098 1016.08 951.423 1010.15 C 949.559 1011.65 948.725 1011.08 947.446 1009.31 C 948.525 1003.52 949.339 997.81 950.318 992.01 L 951.249 987.511 C 956.838 961.18 968.323 933.938 981.013 910.229 C 983.45 909.844 983.413 909.897 985.636 910.938 z" fill="rgb(70,100,129)" transform="translate(0,0)"></path>
<path d="M 981.013 910.229 C 983.45 909.844 983.413 909.897 985.636 910.938 C 983.397 915.599 980.81 920.108 978.371 924.67 C 964.303 950.986 955.731 980.7 951.423 1010.15 C 949.559 1011.65 948.725 1011.08 947.446 1009.31 C 948.525 1003.52 949.339 997.81 950.318 992.01 L 951.249 987.511 C 956.838 961.18 968.323 933.938 981.013 910.229 z" fill="rgb(16,25,36)" transform="translate(0,0)"></path>
<path d="M 1165.76 902.436 C 1167.44 901.538 1212.1 893.521 1217.58 893.295 C 1235.97 892.534 1259.67 876.816 1271.76 875.493 C 1305.07 885.567 1343.29 906.929 1359.14 939.341 C 1337.26 962.801 1285.59 979.41 1254.61 987.007 C 1251.01 981.302 1247.13 975.786 1242.97 970.481 C 1217.66 938.424 1198.37 924.401 1165.76 902.436 z" fill="rgb(70,100,129)" transform="translate(0,0)"></path>
<path d="M 1284.39 848.88 C 1326.61 820.587 1368.41 835.856 1402.6 868.477 C 1401.71 894.046 1393.02 910.333 1374.77 928.477 C 1371.3 931.918 1367.15 935.68 1362.79 937.823 C 1361.37 938.321 1360.53 938.714 1359.14 939.341 C 1343.29 906.929 1305.07 885.567 1271.76 875.493 C 1271.96 872.449 1272.76 872.883 1275.88 872.264 C 1282.05 864.004 1287.02 859.601 1284.39 848.88 z" fill="rgb(70,100,129)" transform="translate(0,0)"></path>
<path d="M 1271.76 875.493 C 1271.96 872.449 1272.76 872.883 1275.88 872.264 C 1311.87 886.356 1343.41 900.998 1362.79 937.823 C 1361.37 938.321 1360.53 938.714 1359.14 939.341 C 1343.29 906.929 1305.07 885.567 1271.76 875.493 z" fill="rgb(16,25,36)" transform="translate(0,0)"></path>
<path d="M 1227.32 744.527 C 1229.78 743.494 1230.87 744.76 1232.88 746.224 C 1252.35 752.066 1300.19 764.26 1315.17 776.372 C 1286.01 792.852 1276.24 802.401 1256.21 827.975 C 1241.78 821.479 1206.64 809.861 1190.45 808.916 C 1188.5 809.007 1188.66 809.126 1187.03 807.985 C 1194.85 781.161 1209.12 764.241 1227.32 744.527 z" fill="rgb(70,100,129)" transform="translate(0,0)"></path>
<path d="M 1227.32 744.527 C 1229.78 743.494 1230.87 744.76 1232.88 746.224 C 1212.03 760.455 1199.92 786.643 1190.45 808.916 C 1188.5 809.007 1188.66 809.126 1187.03 807.985 C 1194.85 781.161 1209.12 764.241 1227.32 744.527 z" fill="rgb(16,25,36)" transform="translate(0,0)"></path>
<path d="M 1315.17 776.372 C 1317.75 775.746 1320.1 775.647 1320.95 778.522 C 1344.69 784.742 1382.89 815.081 1394.4 837.718 C 1397.54 843.9 1404.72 856.009 1401.66 862.821 C 1403.47 866.349 1403.16 864.53 1402.6 868.477 C 1368.41 835.856 1326.61 820.587 1284.39 848.88 L 1281.97 845.618 C 1276.8 837.485 1269.16 834.118 1261.03 829.05 C 1258.77 829.335 1258.44 828.942 1256.21 827.975 C 1276.24 802.401 1286.01 792.852 1315.17 776.372 z" fill="rgb(70,100,129)" transform="translate(0,0)"></path>
<path d="M 1281.97 845.618 C 1300.07 832.866 1322.47 827.746 1344.32 831.361 C 1367.6 835.398 1385.08 846.794 1401.66 862.821 C 1403.47 866.349 1403.16 864.53 1402.6 868.477 C 1368.41 835.856 1326.61 820.587 1284.39 848.88 L 1281.97 845.618 z" fill="rgb(16,25,36)" transform="translate(0,0)"></path>
<path d="M 1315.17 776.372 C 1317.75 775.746 1320.1 775.647 1320.95 778.522 L 1317.49 779.876 C 1300.6 786.657 1270.56 812.437 1261.03 829.05 C 1258.77 829.335 1258.44 828.942 1256.21 827.975 C 1276.24 802.401 1286.01 792.852 1315.17 776.372 z" fill="rgb(16,25,36)" transform="translate(0,0)"></path>
<path d="M 787.887 986.74 L 788.7 987.196 C 798.21 990.464 793.42 990.395 789.145 994.217 C 786.52 992.242 786.441 992.247 783.202 991.729 C 785.351 990.106 785.592 988.639 787.887 986.74 z" fill="rgb(70,100,129)" transform="translate(0,0)"></path>
<path d="M 1255.15 995.121 L 1256.03 995.25 L 1256.38 996.519 C 1237.08 1019.17 1246.31 1011.31 1218.21 1020.68 C 1158.78 1040.49 1113.17 1084.31 1090.94 1143.13 C 1083.69 1162.14 1078.84 1181.99 1076.51 1202.21 C 1072.48 1237.39 1074.66 1296.52 1074.66 1333.94 L 1074.78 1410.05 C 1074.83 1430.15 1074.37 1450.33 1076.76 1470.31 C 1078.87 1487.9 1083.72 1505.06 1091.12 1521.16 C 1110.18 1563.1 1133.8 1585.51 1176.27 1601.26 C 1176.55 1626.75 1180.47 1642.27 1166.51 1663.17 C 1151.22 1686.01 1127.44 1701.79 1100.47 1707.01 C 1041.15 1718.45 988.707 1676.06 978.146 1618.16 C 976.617 1607.8 976.858 1592.69 976.784 1581.89 L 976.655 1525.48 C 977.1 1441.49 976.989 1357.5 976.322 1273.52 C 975.835 1233.2 978.67 1190.31 970.71 1151.04 C 963.747 1116.7 951.071 1089.07 927.23 1063.2 C 900.757 1034.46 853.122 1014.04 814.354 1012.79 C 809.794 1007.23 805.319 1001.6 800.932 995.904 C 908.255 1032.54 1146.52 1023.62 1255.15 995.121 z" fill="rgb(231,174,104)" transform="translate(0,0)"></path>
<path d="M 1081.01 1257.42 C 1080.96 1248.72 1080.96 1240.07 1081.13 1231.37 C 1083.07 1129.22 1138.53 1051.06 1237.18 1020.82 C 1219.5 1050.26 1205.87 1081.94 1196.67 1115.02 C 1193.9 1124.62 1192.18 1134.22 1189.46 1143.79 C 1147.93 1155.36 1123.42 1180.28 1101.2 1217.21 C 1096.8 1224.53 1084.64 1250.45 1083.73 1258.49 L 1081.01 1257.42 z" fill="rgb(16,25,36)" transform="translate(0,0)"></path>
<path d="M 868.049 1178.05 C 867.523 1171.07 866.895 1164.1 866.164 1157.14 C 862.354 1120.62 852.535 1084.98 837.104 1051.67 C 834.552 1046.22 831.058 1036.9 826.339 1033.85 C 825.016 1032.99 825.545 1033.54 825.124 1031.54 L 825.862 1030.98 C 844.945 1037.32 881.428 1065.58 894.928 1079.3 C 942.502 1127.62 967.878 1201.93 968.128 1268.85 C 968.518 1271.2 969.742 1282.46 968.402 1284.29 C 968.174 1283.92 967.946 1283.55 967.717 1283.18 L 967.762 1283.66 C 966.914 1281.69 966.982 1281.91 966.74 1279.76 C 951.752 1234.76 916.282 1188.98 868.049 1178.05 z" fill="rgb(16,25,36)" transform="translate(0,0)"></path>
<path d="M 968.128 1268.85 C 968.518 1271.2 969.742 1282.46 968.402 1284.29 C 968.174 1283.92 967.946 1283.55 967.717 1283.18 L 967.762 1283.66 C 966.914 1281.69 966.982 1281.91 966.74 1279.76 C 968.494 1276.24 967.855 1272.87 968.128 1268.85 z" fill="rgb(26,36,49)" transform="translate(0,0)"></path>
<path d="M 870.696 1328.06 C 895.011 1330.02 913.827 1333.11 931.86 1351.08 C 977.772 1396.85 967.436 1447.83 969.338 1504.26 L 966.041 1504.71 C 947.367 1463.75 918.351 1430.34 870.758 1430.23 C 870.436 1396.17 870.416 1362.12 870.696 1328.06 z" fill="rgb(16,25,36)" transform="translate(0,0)"></path>
<path d="M 869.987 1200.98 C 911.247 1209.8 928.177 1220.96 949.148 1258.16 C 974.591 1303.29 967.972 1341.82 969.25 1390.34 L 966.414 1391.61 C 961.363 1376.65 951.136 1358.82 941.719 1346.22 C 923.172 1321.4 901.132 1309.85 870.891 1305.67 C 870.77 1271.13 871.07 1235.41 869.987 1200.98 z" fill="rgb(16,25,36)" transform="translate(0,0)"></path>
<path d="M 870.989 1449.96 L 872.494 1449.93 C 898.397 1449.62 919.4 1457.68 937.515 1476.61 C 975.397 1516.19 969.826 1555.35 970.053 1604.31 C 939.144 1567.63 919.296 1554.81 870.823 1550.11 L 870.989 1449.96 z" fill="rgb(16,25,36)" transform="translate(0,0)"></path>
<path d="M 1081.93 1349.26 C 1081.79 1335.51 1081.13 1320.55 1082.48 1306.9 C 1088.7 1244.09 1116.93 1177.9 1186.49 1168.68 C 1178.01 1205.35 1176.76 1236.96 1176.6 1274.17 C 1128.78 1276.68 1102.71 1305.85 1084.93 1348.47 L 1081.93 1349.26 z" fill="rgb(16,25,36)" transform="translate(0,0)"></path>
<path d="M 1174.91 1296.5 C 1176.04 1296.57 1175.39 1296.4 1176.68 1297.48 C 1176.95 1305.24 1176.28 1315.67 1176.17 1323.85 C 1175.84 1344.15 1175.65 1364.45 1175.59 1384.74 C 1126.79 1390.67 1104.75 1414.11 1083.45 1457.19 C 1082.14 1454.87 1082.06 1453.47 1081.93 1450.8 C 1079.94 1408.77 1079.54 1357.63 1107.83 1323.6 C 1125.85 1301.91 1148.92 1298.53 1174.91 1296.5 z" fill="rgb(16,25,36)" transform="translate(0,0)"></path>
<path d="M 1170.75 1407.45 C 1173.12 1407.11 1172.96 1407.12 1175.26 1407.81 C 1176.74 1412.15 1175.77 1487.69 1175.76 1498.72 C 1147.46 1499.29 1123.48 1513.22 1108.98 1537.34 L 1103.52 1528.65 C 1096.64 1516.58 1087.31 1495.34 1086.18 1481.54 C 1085.15 1468.95 1098.43 1444.34 1107.07 1434.72 C 1124.39 1415.41 1145.96 1409.19 1170.75 1407.45 z" fill="rgb(16,25,36)" transform="translate(0,0)"></path>
<path d="M 1172.7 1665.89 L 1173.39 1666.69 C 1173.49 1668.13 1173.52 1669.96 1173.11 1671.36 C 1151.69 1744.4 1084.92 1813.11 1003.29 1798.08 C 1002.45 1795.66 1004.1 1795.56 1006.9 1793.96 C 1038.5 1775.93 1051.44 1748.46 1059.45 1713.95 C 1088.41 1719.37 1113.7 1714.75 1138.87 1699.09 C 1153.08 1690.25 1162.17 1678.52 1172.7 1665.89 z" fill="rgb(16,25,36)" transform="translate(0,0)"></path>
<path d="M 871.014 1584 C 892.919 1583.87 911.95 1586.01 932.218 1593.74 C 973.098 1609.34 966.657 1621.75 981.834 1655.24 L 970.548 1661.5 C 935.437 1678.21 901.757 1673.44 871.097 1650.16 C 870.911 1628.11 870.883 1606.06 871.014 1584 z" fill="rgb(16,25,36)" transform="translate(0,0)"></path>
<path d="M 998.892 1678.92 C 1001.2 1680.55 1006.73 1686.03 1009.77 1688.41 C 1017.18 1694.21 1023.51 1698.02 1031.52 1702.83 C 1017.94 1748.75 981.68 1769.75 934.814 1766.93 C 929.543 1762.61 926.136 1759.35 921.283 1754.55 C 904.742 1736.77 893.051 1720.71 884.766 1697.91 C 927.092 1716.81 964.391 1709.84 998.892 1678.92 z" fill="rgb(16,25,36)" transform="translate(0,0)"></path>
<path d="M 818.647 1020.18 C 820.033 1020.05 822.747 1019.79 824.002 1019.94 C 874.663 1025.83 924.799 1056.31 948.004 1102.75 C 964.041 1134.84 971.419 1177.34 969.819 1213.27 C 967.274 1208.86 962.737 1189.13 960.876 1182.94 C 936.788 1102.73 893.767 1054.77 818.647 1020.18 z" fill="rgb(231,174,104)" transform="translate(0,0)"></path>
<path d="M 1133.98 1531.4 C 1142.65 1528.91 1149.14 1523.11 1160 1522.89 C 1164.06 1522.81 1171.85 1521.72 1176.27 1521.32 C 1176.04 1545.25 1175.95 1569.18 1175.99 1593.1 C 1155.8 1586 1126.13 1568.86 1115.23 1547.01 C 1115.04 1546.62 1118.02 1542.56 1118.43 1541.95 C 1118.65 1538.8 1120.72 1539.72 1119.97 1538.04 C 1119.31 1537.6 1119.28 1537.02 1119.1 1536.25 C 1121.01 1535.08 1123.13 1533.89 1124.85 1532.49 C 1128.21 1532.52 1128.81 1532.72 1132.06 1531.88 L 1133.98 1531.4 z" fill="rgb(16,25,36)" transform="translate(0,0)"></path>
<path d="M 1124.85 1532.49 C 1128.21 1532.52 1128.81 1532.72 1132.06 1531.88 L 1133.98 1531.4 C 1131.82 1532.97 1120.01 1541.49 1118.43 1541.95 C 1118.65 1538.8 1120.72 1539.72 1119.97 1538.04 C 1119.31 1537.6 1119.28 1537.02 1119.1 1536.25 C 1121.01 1535.08 1123.13 1533.89 1124.85 1532.49 z" fill="rgb(57,74,93)" transform="translate(0,0)"></path>
<path d="M 1038.38 1706.52 C 1043.3 1709.51 1048.65 1711.19 1054.11 1712.8 C 1053.22 1716.83 1052.17 1720.82 1050.96 1724.76 C 1039.56 1762.02 1022 1778.21 989.494 1795.52 C 981.767 1793.67 978.072 1792.68 970.751 1789.76 C 961.673 1785.77 953.276 1779.94 944.922 1774.54 C 995.399 1771.12 1019.37 1752.52 1038.38 1706.52 z" fill="rgb(70,100,129)" transform="translate(0,0)"></path>
<path d="M 985.171 1659.35 C 988.988 1665.56 994.786 1669.43 994.566 1675.4 L 990.396 1678.35 C 967.927 1697.63 935.215 1706.42 906.407 1698.94 C 897.775 1696.7 888.969 1691.41 880.273 1690.54 C 876.012 1680.07 873.254 1670.83 871.641 1659.66 C 885.224 1665.06 894.085 1672.65 911.041 1675.81 C 942.812 1681.72 959.485 1675.9 985.171 1659.35 z" fill="rgb(70,100,129)" transform="translate(0,0)"></path>
<path d="M 869.918 1555.99 C 899.266 1557.52 936.623 1570.27 953.431 1595.88 C 951.147 1594.98 948.67 1594.11 946.445 1593.17 L 944.667 1592.4 C 943.436 1591.87 942.22 1591.37 940.998 1590.83 C 933.918 1587.58 926.547 1585.02 918.983 1583.17 C 902.703 1579.28 886.627 1577.71 869.928 1578.91 C 869.868 1571.14 869.787 1563.79 869.918 1555.99 z" fill="rgb(70,100,129)" transform="translate(0,0)"></path>
<path d="M 1119.1 1536.25 C 1117.96 1532.51 1121.72 1528.86 1124.24 1526.27 C 1136.58 1513.64 1153.72 1504.77 1171.51 1503.99 C 1179.48 1503.64 1177.5 1508.91 1177.49 1515.88 C 1159.23 1516.58 1138.49 1518.98 1124.85 1532.49 C 1123.13 1533.89 1121.01 1535.08 1119.1 1536.25 z" fill="rgb(70,100,129)" transform="translate(0,0)"></path>
<path d="M 1164.38 1281.35 C 1170.77 1280.33 1179.94 1278.16 1175.56 1290.61 C 1175.08 1291.96 1168.65 1291.91 1167.41 1291.82 C 1153.04 1290.78 1143.42 1295.2 1130.75 1300.38 C 1129.54 1300.97 1125.68 1303.15 1124.74 1303.37 C 1122.39 1303.92 1122.98 1305.14 1122.26 1305.5 C 1119.88 1304.37 1122.84 1302.24 1123.44 1301.7 C 1136.88 1289.58 1146.63 1284.01 1164.38 1281.35 z" fill="rgb(70,100,129)" transform="translate(0,0)"></path>
<path d="M 1171.51 1391.47 C 1177.15 1390.77 1175.62 1392.54 1176.05 1396.49 C 1177.36 1403.68 1172.41 1402.03 1166.82 1402.08 C 1151.08 1402.22 1140.05 1407.09 1125.72 1413.01 C 1125.67 1413.04 1125.62 1413.07 1125.57 1413.1 L 1124.46 1413.76 C 1124.02 1413.79 1123.57 1413.83 1123.13 1413.87 C 1123.02 1413.72 1122.91 1413.57 1122.8 1413.42 C 1124.21 1407.4 1151.78 1394.05 1158.51 1393.21 C 1162.73 1392.68 1167.21 1391.9 1171.51 1391.47 z" fill="rgb(70,100,129)" transform="translate(0,0)"></path>
<path d="M 869.954 1436.45 C 885.797 1436.97 915.014 1441.31 923.514 1456.67 C 910.88 1450.12 907.061 1447.38 892.537 1444.13 C 874.997 1440.2 872.348 1451.14 869.954 1436.45 z" fill="rgb(70,100,129)" transform="translate(0,0)"></path>
<path d="M 1081.01 1257.42 L 1083.73 1258.49 C 1083.14 1260.93 1082.32 1263.31 1081.65 1265.74 L 1081.97 1264.87 L 1080.55 1265.36 L 1080.85 1266.94 L 1080.7 1266.96 C 1080.66 1267 1080.62 1267.05 1080.58 1267.09 C 1079.62 1265.66 1080.84 1259.28 1081.01 1257.42 z" fill="rgb(26,36,49)" transform="translate(0,0)"></path>
<path d="M 1081.93 1349.26 L 1084.93 1348.47 C 1083.01 1354.7 1080.88 1358.4 1081.93 1349.26 z" fill="rgb(26,36,49)" transform="translate(0,0)"></path>
<path d="M 969.338 1504.26 C 969.058 1510.87 968.082 1511.21 966.041 1504.71 L 969.338 1504.26 z" fill="rgb(26,36,49)" transform="translate(0,0)"></path>
<path d="M 969.25 1390.34 C 969.167 1391.49 969.132 1394.18 968.696 1395.13 L 968.545 1395.23 C 967.808 1394.8 966.828 1392.41 966.414 1391.61 L 969.25 1390.34 z" fill="rgb(26,36,49)" transform="translate(0,0)"></path>
<path d="M 1322.12 1116.5 C 1350.56 1115.8 1380.39 1116.07 1408.88 1116.2 L 1408.73 1227 C 1454.74 1242.55 1488.01 1275.94 1502.57 1322.5 C 1506.33 1334.36 1508.71 1346.62 1509.65 1359.02 C 1510.88 1376.25 1510.29 1400.67 1510.32 1418.59 L 1510.21 1529.21 L 1510.11 1616.78 C 1510.05 1656.48 1512.09 1691.48 1491.91 1727.99 C 1469.32 1768.87 1441.56 1790.76 1397.21 1804.24 C 1323.73 1822.86 1246.69 1776.37 1224 1705.28 C 1212.8 1670.17 1215.04 1631.19 1215.05 1594.66 L 1215.08 1490.87 L 1215.05 1405.49 C 1215.05 1390.34 1214.46 1368.49 1216.02 1353.92 C 1217.92 1335.79 1223.14 1318.17 1231.42 1301.93 C 1249.56 1266.76 1279.08 1239.66 1317 1227.59 C 1317.01 1215.42 1316.22 1120.67 1318.51 1117.01 L 1322.12 1116.5 z" fill="rgb(60,76,92)" transform="translate(0,0)"></path>
<path d="M 1409.11 1234.36 C 1473.72 1258.81 1502.62 1311.34 1503.12 1378.27 L 1503.05 1566.62 C 1503.17 1636.53 1514.51 1704.93 1460.27 1759.53 C 1434.71 1785.72 1399.74 1800.64 1363.14 1800.95 C 1285.38 1801.08 1227.23 1736.52 1221.3 1661.6 C 1219.89 1643.8 1220.68 1625.12 1220.89 1607.22 C 1221.64 1555.44 1221.93 1503.65 1221.77 1451.86 C 1221.62 1405.36 1216.08 1348.09 1236.83 1306.17 C 1253.12 1272.82 1281.99 1247.3 1317.09 1235.22 L 1316.11 1524.13 C 1345.58 1525.21 1380.03 1524.19 1409.86 1524 L 1409.11 1234.36 z" fill="rgb(16,25,36)" transform="translate(0,0)"></path>
<path d="M 1486.69 1587.5 C 1489.27 1587.21 1488.36 1587.18 1490.85 1587.76 C 1492.17 1589.83 1491.22 1608.25 1491.28 1612.22 C 1491.89 1648.17 1490.11 1684.53 1470.45 1715.94 C 1459.04 1734.17 1444.65 1750.8 1424.94 1760.29 C 1420.59 1762.41 1417.38 1764.83 1412.49 1766 L 1410.91 1764.89 C 1407.79 1753.98 1403.75 1746.66 1400.12 1736.26 C 1463.68 1707.01 1457.87 1648.34 1458.91 1588.74 C 1468.17 1588.38 1477.43 1587.97 1486.69 1587.5 z" fill="rgb(57,74,93)" transform="translate(0,0)"></path>
<path d="M 1464.88 1594.17 L 1485.07 1593.89 C 1485.13 1617.65 1486.62 1651.33 1481.21 1673.39 C 1472.72 1707.96 1455.07 1734.99 1424.87 1753.88 L 1414.23 1759.66 C 1412.2 1751.95 1410.98 1747.32 1407.99 1740.01 C 1467.11 1709.14 1464.79 1651.81 1464.88 1594.17 z" fill="rgb(231,174,104)" transform="translate(0,0)"></path>
<path d="M 1235.8 1587.08 L 1266.98 1587.08 C 1267.31 1641.56 1260.82 1713.92 1325.76 1734.42 C 1322.75 1742.23 1319.68 1750.01 1316.53 1757.76 C 1315.47 1760.41 1314.22 1763.2 1313.08 1765.84 C 1298.79 1759.08 1286.26 1752.79 1275.06 1741.43 C 1228.63 1694.36 1235.9 1646.68 1235.8 1587.08 z" fill="rgb(60,76,92)" transform="translate(0,0)"></path>
<path d="M 1254.17 1593.49 C 1263.22 1593.3 1261.91 1596.26 1261.53 1604.93 C 1259.46 1652.24 1264.62 1719.14 1317.71 1738.74 C 1315.93 1743.33 1312.34 1754.61 1309.89 1757.77 L 1307.65 1757.8 C 1296.89 1752.54 1287.06 1745.54 1278.57 1737.08 C 1237.94 1695.94 1240.73 1645.82 1241.14 1593.83 L 1254.17 1593.49 z" fill="rgb(231,174,104)" transform="translate(0,0)"></path>
<path d="M 1323.89 1122.94 C 1348.46 1122.14 1377.61 1122.26 1402.19 1122.76 C 1402.38 1253.37 1404.39 1387.24 1402.44 1517.77 C 1376.43 1518.37 1349.05 1518.02 1322.93 1518.08 C 1322.47 1386.36 1322.79 1254.65 1323.89 1122.94 z" fill="rgb(253,253,252)" transform="translate(0,0)"></path>
<path d="M 1650.28 1116.46 C 1676.81 1116.17 1703.34 1116.04 1729.87 1116.07 L 1730 1228.18 C 1738.97 1229.89 1748.93 1234.93 1756.84 1239.47 C 1790.58 1258.82 1816.92 1292.28 1826.95 1330 C 1829.49 1339.59 1831.05 1349.4 1831.62 1359.3 C 1832.71 1378.28 1832.08 1402.26 1832.06 1421.58 L 1831.93 1532.3 L 1831.9 1618.32 C 1831.89 1636.24 1832.33 1661.27 1830.05 1678.85 C 1827.32 1698.51 1820.86 1717.46 1811 1734.69 C 1789.34 1771.74 1760.23 1793.67 1718.76 1804.7 C 1688.12 1811.56 1656.09 1808.57 1627.25 1796.16 C 1589.64 1779.74 1563.01 1749.63 1548.25 1711.6 C 1542.73 1697.77 1539.34 1683.19 1538.17 1668.35 C 1536.59 1650.05 1537.02 1629.32 1537 1610.71 L 1537.92 1497.18 L 1537.78 1407.42 C 1537.73 1390.46 1536.96 1368.84 1538.64 1352.42 C 1540.25 1336.84 1544.28 1321.61 1550.6 1307.29 C 1568 1267.95 1598.43 1241.74 1638 1226.34 L 1638.05 1116.94 L 1650.28 1116.46 z" fill="rgb(60,76,92)" transform="translate(0,0)"></path>
<path d="M 1824.74 1358.78 C 1825.67 1382.81 1825.14 1409.08 1825.08 1433.28 L 1825.09 1538.75 L 1825.05 1617.55 C 1825.05 1633.88 1825.51 1653.65 1824.01 1669.63 C 1822.7 1682.94 1819.72 1696.03 1815.16 1708.6 C 1802.89 1742.94 1778.58 1771.82 1745.32 1787.4 C 1711.35 1803.31 1672.45 1805.1 1637.16 1792.39 C 1601.54 1779.48 1574.32 1753.01 1558.56 1718.78 C 1550.87 1702.31 1546.07 1684.64 1544.38 1666.55 C 1542.9 1651.11 1543.78 1627.43 1543.88 1611.3 L 1544.36 1517.47 L 1544.48 1424.83 C 1544.11 1363.86 1539.66 1311.88 1588.02 1265.42 C 1604.11 1249.96 1617.96 1242.79 1637.98 1233.65 C 1637.19 1278.71 1637.77 1325.49 1637.78 1370.67 C 1637.3 1421.72 1637.36 1472.78 1637.96 1523.83 C 1667.75 1524.61 1700.12 1523.99 1730.1 1523.99 C 1730.75 1481.89 1729.87 1438.67 1729.95 1396.46 L 1730.78 1234.81 C 1763.04 1247.82 1784.43 1265.41 1803.9 1293.93 C 1809.95 1293.17 1818.01 1324.35 1819.55 1326.38 L 1819.81 1326.46 C 1820.5 1324.24 1818.48 1321.53 1819.27 1318.37 L 1819.33 1318.39 C 1820.16 1319.99 1820.63 1321.77 1821.25 1323.46 C 1822.6 1327.21 1823.64 1331.07 1824.37 1334.99 C 1825.15 1338.98 1826.12 1342.43 1825.08 1346.49 C 1825.01 1346.37 1824.93 1346.25 1824.86 1346.12 C 1824.46 1349.51 1826.03 1355.27 1824.74 1358.78 z" fill="rgb(16,25,36)" transform="translate(0,0)"></path>
<path d="M 1803.9 1293.93 C 1809.95 1293.17 1818.01 1324.35 1819.55 1326.38 L 1819.81 1326.46 C 1820.5 1324.24 1818.48 1321.53 1819.27 1318.37 L 1819.33 1318.39 C 1820.16 1319.99 1820.63 1321.77 1821.25 1323.46 C 1822.6 1327.21 1823.64 1331.07 1824.37 1334.99 C 1825.15 1338.98 1826.12 1342.43 1825.08 1346.49 C 1825.01 1346.37 1824.93 1346.25 1824.86 1346.12 C 1824.46 1349.51 1826.03 1355.27 1824.74 1358.78 C 1823.65 1356.6 1823.84 1352.6 1823.12 1349.99 C 1822.81 1348.88 1822.4 1345.73 1822.16 1344.49 C 1819 1328.29 1813.95 1312.39 1805.75 1298 C 1804.66 1296.07 1804.37 1295.97 1803.9 1293.93 z" fill="rgb(57,74,93)" transform="translate(0,0)"></path>
<path d="M 1780.17 1587.94 C 1790.89 1587.91 1801.61 1587.76 1812.33 1587.49 C 1811.92 1626.66 1816.38 1665.83 1799.23 1702.38 C 1787.02 1728.39 1771.37 1746.1 1746.57 1760.4 L 1733.4 1766.6 C 1730.44 1754.84 1726.84 1747.11 1721.82 1736.23 C 1784.27 1707.63 1779.2 1646.45 1780.17 1587.94 z" fill="rgb(60,76,92)" transform="translate(0,0)"></path>
<path d="M 1786.08 1593.78 C 1792.51 1593.58 1799.78 1593.76 1806.28 1593.79 C 1806.14 1657.39 1808.84 1714.54 1747.64 1753.37 L 1736.23 1759.6 C 1734.49 1752.51 1732.64 1746.32 1730.48 1739.34 C 1738.83 1735.55 1747.71 1729.21 1754.08 1722.6 C 1790.16 1685.19 1786.19 1640.87 1786.08 1593.78 z" fill="rgb(231,174,104)" transform="translate(0,0)"></path>
<path d="M 1557.32 1587.42 L 1588.96 1588.19 C 1589.07 1649.65 1583 1703.81 1646.05 1735.38 C 1642.26 1745.59 1638.76 1754.98 1635.58 1765.42 L 1622.3 1758.53 C 1604.62 1752.35 1579.96 1725.05 1572.69 1708.01 L 1571.43 1704.98 C 1553.03 1669.91 1557.33 1626.06 1557.32 1587.42 z" fill="rgb(60,76,92)" transform="translate(0,0)"></path>
<path d="M 1563.01 1593.73 L 1583.05 1593.64 C 1583.03 1652.89 1579.93 1706.12 1638.81 1738.64 L 1632.45 1758.8 L 1623.46 1753.71 C 1616.29 1749.12 1605.6 1739.86 1601.88 1737.63 C 1559.05 1690.72 1563.09 1653.61 1563.01 1593.73 z" fill="rgb(231,174,104)" transform="translate(0,0)"></path>
<path d="M 1571.43 1704.98 C 1575.75 1709.06 1579.98 1718.62 1584.28 1723.52 C 1585.55 1724.96 1588.36 1728.72 1589.67 1730.46 C 1591.79 1731.65 1600.96 1745.33 1603.5 1741.74 C 1604.77 1739.93 1598.82 1740.61 1601.88 1737.63 C 1605.6 1739.86 1616.29 1749.12 1623.46 1753.71 C 1623.41 1753.59 1625.27 1757.57 1625.27 1757.52 C 1624.52 1757.98 1623.99 1757.49 1622.3 1758.53 C 1604.62 1752.35 1579.96 1725.05 1572.69 1708.01 L 1571.43 1704.98 z" fill="rgb(57,74,93)" transform="translate(0,0)"></path>
<path d="M 1668.73 1122.5 C 1686.93 1122.28 1705.12 1122.37 1723.32 1122.77 C 1724.44 1155.18 1723.47 1189.65 1723.65 1222.2 C 1724.13 1320.82 1724.07 1419.44 1723.48 1518.06 L 1701.04 1518.06 L 1644.7 1517.94 C 1644.01 1471.69 1643.79 1425.43 1644.04 1379.17 L 1644.81 1122.73 L 1668.73 1122.5 z" fill="rgb(253,253,252)" transform="translate(0,0)"></path>
<path d="M 639.058 1116.07 L 731.085 1116.03 L 731.066 1226.6 C 742.825 1230.9 759.352 1238.54 769.07 1246.43 C 778.031 1251.67 793.948 1266.28 799.387 1275.19 C 816.507 1293.94 829.248 1329.58 831.579 1354.48 C 833.059 1370.3 832.527 1389.3 832.521 1405.37 L 832.364 1493.12 L 832.633 1603.62 C 832.644 1653.43 836.25 1702.19 804.526 1744.49 C 787.712 1766.91 769.196 1784.88 743.223 1796.18 C 708.269 1811.46 668.669 1812.2 633.167 1798.24 C 594.312 1782.61 567.51 1754.36 551.353 1716.12 C 544.622 1700.44 540.362 1683.82 538.726 1666.83 C 536.869 1648.89 537.573 1625.35 537.643 1606.92 L 537.893 1513 L 537.589 1414.97 C 537.518 1396.61 536.74 1372.15 538.496 1354.37 C 540.028 1339.48 543.757 1324.89 549.561 1311.09 C 566.582 1269.87 598.737 1242.97 639.165 1226.17 L 639.058 1116.07 z" fill="rgb(60,76,92)" transform="translate(0,0)"></path>
<path d="M 638.314 1234.53 C 637.302 1271.28 638.11 1307.76 638.125 1344.5 C 637.709 1404.41 637.734 1464.32 638.198 1524.23 L 731.85 1524.11 L 731.621 1235.18 C 747.096 1240.19 754.35 1245.14 767.884 1253.8 C 770.684 1258.75 795.32 1276 798.725 1286.22 C 798.875 1286.67 808.631 1302.23 809.351 1303.17 C 811.234 1307.87 813.453 1312.68 815.525 1317.31 C 829.062 1347.62 826.677 1380.53 826.475 1413.09 L 826.186 1496.04 L 825.966 1604.77 C 825.955 1623.03 826.712 1648.78 825.419 1666.58 C 824.518 1679.84 821.924 1692.92 817.701 1705.52 C 807.076 1737.43 775.321 1772.2 745.338 1786.93 C 712.546 1802.95 674.755 1805.37 640.19 1793.66 C 604.402 1781.15 575.024 1751.51 558.81 1717.68 C 551.235 1701.89 546.457 1684.91 544.688 1667.49 C 542.865 1650.83 543.455 1624.69 543.388 1607.23 C 543.214 1573.41 543.226 1539.59 543.423 1505.77 L 543.763 1415.75 C 543.815 1399.44 543.292 1378.14 544.488 1362.3 C 545.394 1348.53 548.171 1334.96 552.742 1321.94 C 568.296 1278.68 597.984 1253.77 638.314 1234.53 z" fill="rgb(16,25,36)" transform="translate(0,0)"></path>
<path d="M 559.002 1587.27 L 591.979 1586.9 C 591.807 1639.83 586.43 1713.54 649.024 1735.48 C 645.715 1743.5 642.592 1751.59 639.658 1759.75 C 639.266 1761.1 637.835 1766.44 635.643 1765.49 C 621.548 1759.38 604.816 1748.7 594.156 1737.55 C 553.327 1694.82 558.708 1641.76 559.002 1587.27 z" fill="rgb(60,76,92)" transform="translate(0,0)"></path>
<path d="M 565.07 1593.98 L 585.302 1593.69 C 584.895 1649.87 582.472 1710.35 641.169 1739.75 C 639.352 1744.21 637.587 1748.93 635.835 1753.43 C 634.43 1756.78 635.555 1755.75 633.052 1757.56 C 623.184 1753.75 607.992 1742.67 600.562 1735 C 560.244 1693.39 564.911 1646.38 565.07 1593.98 z" fill="rgb(231,174,104)" transform="translate(0,0)"></path>
<path d="M 781.981 1587.9 L 813.9 1588.08 C 813.477 1607.9 813.832 1627.92 813.077 1647.7 C 811.354 1692.85 790.62 1737.27 750.578 1760.09 C 745.586 1762.7 740.567 1764.68 735.375 1766.85 C 731.272 1756.82 727.443 1746.69 723.891 1736.46 C 786.954 1708.55 781.803 1645.51 781.981 1587.9 z" fill="rgb(60,76,92)" transform="translate(0,0)"></path>
<path d="M 788.149 1593.89 C 794.691 1593.84 801.499 1594.02 808.064 1594.1 C 809.848 1659.01 808.902 1715.7 747.968 1754.88 C 745.027 1756.74 740.855 1758.76 737.704 1760.41 L 731.875 1739.46 C 790.322 1713.71 787.98 1647 788.149 1593.89 z" fill="rgb(231,174,104)" transform="translate(0,0)"></path>
<path d="M 767.884 1253.8 C 774.735 1252.84 795.609 1279.68 797.538 1280.19 C 800.872 1273.86 774.529 1251.33 768.614 1248.46 C 768.493 1248.13 769.151 1246.14 769.07 1246.43 C 778.031 1251.67 793.948 1266.28 799.387 1275.19 L 799.784 1277.02 C 800.391 1280.18 804.479 1285.1 803.758 1287.46 C 803.659 1287.52 803.561 1287.58 803.462 1287.63 C 803.165 1287.52 802.869 1287.41 802.572 1287.3 C 802.441 1287.78 808.49 1298.23 809.351 1303.17 C 808.631 1302.23 798.875 1286.67 798.725 1286.22 C 795.32 1276 770.684 1258.75 767.884 1253.8 z" fill="rgb(57,74,93)" transform="translate(0,0)"></path>
<path d="M 653.554 1122.49 C 677.248 1122.24 700.944 1122.26 724.638 1122.54 C 725.55 1148.7 724.945 1177.51 724.991 1203.88 L 725.309 1329.9 C 725.141 1391.99 726.313 1454.24 725.826 1516.45 C 723.646 1518.59 723.359 1517.83 719.25 1517.97 L 645.248 1518.04 C 644.754 1417.64 644.829 1317.24 645.473 1216.84 C 645.676 1191.46 645.262 1166.05 645.252 1140.67 C 645.251 1135.51 644.764 1128.61 645.653 1123.75 C 648.516 1121.78 649.278 1122.53 653.554 1122.49 z" fill="rgb(253,253,252)" transform="translate(0,0)"></path>
<path d="M 317.127 1116.11 C 347.82 1115.93 378.514 1115.94 409.206 1116.16 C 409.043 1153.14 409.092 1190.13 409.351 1227.11 C 414.701 1229.12 421.012 1231.44 426.157 1233.87 C 461.338 1250.66 488.399 1280.75 501.38 1317.51 C 505.354 1328.3 507.853 1339.58 508.811 1351.04 C 510.196 1369.34 509.275 1388.72 509.203 1407.22 L 509.164 1505.05 L 510.097 1612.27 C 510.116 1632.28 511.226 1655.29 508.43 1674.98 C 499.511 1737.78 461.482 1781.7 403.456 1802.49 C 327.571 1822.55 257.558 1787.02 227.526 1714.66 C 221.691 1700.85 218.061 1686.22 216.767 1671.29 C 215.215 1654.16 215.812 1628.99 215.786 1611.11 L 215.866 1506.36 L 215.684 1410.95 C 215.675 1395.99 215.144 1371.64 216.467 1357.18 C 217.737 1341.6 221.395 1326.32 227.313 1311.86 C 244.642 1270.5 276.316 1243.96 317.075 1227.32 L 317.127 1116.11 z" fill="rgb(60,76,92)" transform="translate(0,0)"></path>
<path d="M 410.016 1235.69 C 428.418 1240.81 447.91 1254.64 461.509 1267.78 C 491.733 1296.99 503.59 1335.67 504.178 1376.97 C 504.699 1431.88 504.829 1486.79 504.569 1541.69 C 504.674 1580.09 507.072 1654.06 498.769 1688.45 C 492.293 1715.72 478.547 1740.73 458.993 1760.81 C 407.197 1813.62 319.395 1814.75 267.354 1761.41 C 219.883 1712.75 221.839 1670.48 221.969 1607.75 L 223.251 1456.53 C 223.267 1424.31 222.246 1391.28 223.588 1359.24 C 225.083 1323.55 245.039 1287.69 270.655 1263.63 C 283.658 1251.42 299.625 1243.38 315.782 1235.95 C 314.945 1263.81 315.993 1297.67 315.988 1326.12 L 316.071 1524.14 C 343.635 1524.12 383.125 1525.26 409.987 1523.56 C 411.647 1428.77 409.482 1330.88 410.016 1235.69 z" fill="rgb(16,25,36)" transform="translate(0,0)"></path>
<path d="M 236.312 1588 C 246.893 1588.09 257.945 1588.36 268.487 1588.17 C 267.978 1648.92 262.843 1705.36 326.521 1736.45 C 321.941 1746.66 318.426 1754.95 314.499 1765.49 C 279.193 1748.87 261.78 1735.73 246.217 1696.84 C 245.111 1694.08 241.72 1682.79 241.466 1680.21 C 239.559 1673.57 238.465 1666.72 237.53 1659.89 C 235.724 1641.96 236.455 1607.33 236.312 1588 z" fill="rgb(60,76,92)" transform="translate(0,0)"></path>
<path d="M 243.042 1594.06 L 262.92 1594.1 C 262.749 1653.94 258.187 1708.01 319.347 1739.77 L 310.771 1757.8 C 271.612 1737.68 261.202 1718.71 246.649 1678.9 C 246.466 1676.07 245.774 1673.24 245.084 1670.49 C 241.965 1658.07 242.355 1646.44 241.87 1633.85 C 242.16 1620.59 242.55 1607.32 243.042 1594.06 z" fill="rgb(231,174,104)" transform="translate(0,0)"></path>
<path d="M 241.87 1633.85 C 242.355 1646.44 241.965 1658.07 245.084 1670.49 C 245.774 1673.24 246.466 1676.07 246.649 1678.9 C 242.026 1677.84 246.413 1671.9 241.467 1670.5 L 241.257 1670.64 C 240.348 1672.77 242.287 1674.67 241.863 1677.57 L 241.466 1680.21 C 239.559 1673.57 238.465 1666.72 237.53 1659.89 C 242.109 1646.69 239.88 1645.96 241.87 1633.85 z" fill="rgb(57,74,93)" transform="translate(0,0)"></path>
<path d="M 457.607 1587.58 L 490.303 1587.93 C 491.629 1657.15 492.357 1717.62 426.25 1757.85 C 420.282 1761.08 415.889 1763.09 409.638 1765.78 C 407.261 1756.08 402.425 1744.66 398.906 1734.98 C 461.056 1709.53 460.01 1644.71 457.607 1587.58 z" fill="rgb(57,74,93)" transform="translate(0,0)"></path>
<path d="M 463.831 1594.17 L 484.034 1594.24 C 484.155 1617.83 485.508 1648.14 480.534 1670.41 C 472.917 1704.51 454.654 1733.13 425.196 1752.1 L 413.478 1757.87 C 411.112 1751.65 409.491 1745 407.754 1738.57 C 467.533 1709.65 464.135 1651.22 463.831 1594.17 z" fill="rgb(231,174,104)" transform="translate(0,0)"></path>
<path d="M 324.158 1122.5 L 402.602 1122.02 C 404.44 1140.91 403.178 1175 403.083 1195.21 L 403.153 1316.13 L 403.153 1449.01 C 403.16 1465.87 404.216 1502.24 402.753 1517.93 L 323.156 1517.89 L 323.964 1224.04 C 324.187 1201.88 323.702 1179.62 323.759 1157.48 C 323.786 1146.8 323.24 1132.89 324.158 1122.5 z" fill="rgb(253,253,252)" transform="translate(0,0)"></path>
<path d="M 905.091 238.977 L 1147.29 238.75 L 1147.05 256.331 C 1091.02 263.12 1071.57 311.215 1070.78 361.846 C 1083.14 361.855 1093.85 360.468 1103.78 368.969 C 1109.8 374.225 1113.46 381.674 1113.95 389.652 C 1114.45 397.4 1111.77 405.017 1106.52 410.741 C 1097.17 420.9 1086.24 420.498 1073.76 420.894 C 1074.24 438.055 1078.16 454.946 1085.28 470.569 C 1099.17 500.562 1125.31 522.792 1154.42 537.9 C 1159.65 540.614 1169.3 543.568 1175.27 545.86 C 1181.39 548.209 1192.5 553.827 1198.15 555.138 C 1217.48 559.624 1232.03 561.738 1251 568.644 C 1250.12 571.181 1250.04 571.238 1248.55 573.501 C 1178.54 612.215 1085.02 604.621 1026.67 548.048 C 990.928 513.396 981.113 468.923 981.001 420.925 C 969.295 421.118 959.527 421.971 949.676 413.775 C 943.665 408.793 940.025 401.514 939.643 393.716 C 939.184 385.18 942.097 377.092 947.907 370.767 C 957.009 360.857 969.603 362.347 982.222 362.181 C 981.944 309.909 961.434 264.721 905.121 256.242 L 905.091 238.977 z" fill="rgb(60,76,92)" transform="translate(0,0)"></path>
<path d="M 1065.89 430.363 C 1068.08 433.003 1070.37 446.081 1071.38 450.16 C 1085.41 506.755 1136.24 543.058 1189.3 559.956 C 1205.06 564.977 1221.69 567.447 1237.54 571.966 C 1216.61 582.1 1197.74 586.26 1175.08 589.747 C 1107.88 599.047 1031.64 566.099 1003.11 502.203 C 1008.65 463.878 1026.02 437.927 1065.89 430.363 z" fill="rgb(231,174,104)" transform="translate(0,0)"></path>
<path d="M 911.59 246.379 C 921.789 245.511 937.348 245.938 947.756 245.941 L 1009.17 245.965 C 1049.65 245.954 1106.84 244.423 1146.49 247.349 C 1140.41 249.225 1134.95 249.574 1129.02 251.506 C 1104.19 259.594 1088.64 275.8 1076.75 298.13 C 1065.16 322.179 1065.34 335.724 1064.54 362.027 C 1039.86 362.521 1013.9 362.127 989.123 362.106 C 989.531 312.794 969.338 264.032 916.908 250.165 C 913.414 249.241 913.077 249.284 911.59 246.379 z" fill="rgb(16,25,36)" transform="translate(0,0)"></path>
<path d="M 963.054 369.058 C 980.919 368.281 1083.45 367.085 1094.12 371.289 C 1098.96 373.199 1102.87 377.495 1104.93 382.207 C 1107.42 387.91 1107.73 394.359 1105.43 400.18 C 1102.54 407.515 1097.02 410.58 1090.1 413.549 C 1083.57 414.247 1076.44 414.502 1069.76 414.41 C 1034.24 413.926 997.932 415.862 962.582 413.105 C 955.781 412.574 950.194 403.617 947.056 398.238 C 946.153 382.722 948.741 376.059 963.054 369.058 z" fill="rgb(253,253,252)" transform="translate(0,0)"></path>
<path d="M 1004.13 421.581 C 1018.67 420.474 1048.29 420.177 1062.32 422.671 C 1039.12 429.417 1028.57 436.403 1013.04 454.622 L 1012.39 455.538 C 1007.06 462.894 1003.54 469.718 1001.26 478.534 L 998.876 488.095 C 998.712 487.664 998.548 487.233 998.383 486.802 C 995.384 479.235 992.997 471.439 991.246 463.489 C 987.969 448.609 987.199 437.133 986.723 422.083 C 992.528 422.062 998.332 421.894 1004.13 421.581 z" fill="rgb(16,25,36)" transform="translate(0,0)"></path>
<path d="M 1251 568.644 C 1280.7 549.567 1309.07 511.971 1315.46 476.946 C 1319.42 455.224 1318.77 426.712 1306.45 407.497 C 1293.04 386.523 1255.83 377.592 1235.03 392.512 C 1217.84 404.84 1213.03 426.441 1212.38 446.392 C 1212.09 453.594 1213.31 461.241 1211.52 468.204 L 1209.47 469.322 L 1207.93 468.749 C 1206.64 464.344 1207.22 460.146 1207.18 455.5 C 1206.85 418.195 1216.87 380.126 1261.99 380.298 C 1336.02 380.579 1332.38 471.648 1305.51 518.05 C 1294.6 536.888 1276.18 558.265 1256.87 570.25 C 1340.47 602.888 1437.19 653.106 1474.52 739.228 C 1496.57 790.082 1492.88 840.256 1473.89 891.003 C 1445.37 967.226 1383.06 1018.38 1315.17 1058.84 C 1284.37 1077.19 1251.79 1096.03 1224.47 1119.67 C 1214.32 1128.45 1205.42 1139.94 1196.47 1149.96 C 1196.81 1146.24 1197.74 1142.56 1198.56 1138.9 C 1208.48 1128.99 1213.78 1121.59 1225.74 1111.83 C 1269.65 1076 1319.09 1054.18 1364.46 1019.74 C 1424.63 974.499 1470.95 915.789 1481.96 839.143 C 1500.4 710.818 1390.18 631.939 1286.09 588.267 C 1276.57 584.272 1257.94 574.818 1248.55 573.501 C 1250.04 571.238 1250.12 571.181 1251 568.644 z" fill="rgb(231,174,104)" transform="translate(0,0)"></path>
<metadata><recraft-signature>{"signed_by": "recraft", "signature_b64": "rfQKzdyDX/gZALTX1GLajmkXznmVYaq543L7MoqejpHuEcuZoJMmzz9elzsZLKbiBO5BXGtvjC+XoYtwLrzPBw==", "signing_algo": "Ed25519", "generation_timestamp": 1777262721, "identifier": "64d6e6d2-bebe-4422-8a4e-4451c21c41c4"}</recraft-signature></metadata></svg>