<svg xmlns="http://www.w3.org/2000/svg" width="1024" height="1024" preserveAspectRatio="none" style="display:block" viewBox="0 0 2048 2048"><path fill="#f9f9f8" d="M911.29 1076.7c-5.863-14.96-14.397-28.16-21.888-42.36-25.14-47.63-46.721-86.189-50.066-141.3-5.74-94.538 42.092-181.904 103.053-250.586 50.868-57.313 114.391-94.259 192.161-98.569 4.06.196 31.59-.371 32.98.905.07.276.13.551.2.827-48.04 13.13-88.81 42.319-113.77 85.86a164.55 164.55 0 0 0-15.61 126.287c13.94 50.849 44.13 93.598 87.93 122.761 15.21 10.121 31.59 18.525 46.39 28.598 88.77 60.446 123.98 113.507 125.56 221.407 152.75 69.27 271.49 196.71 329.8 353.97a601 601 0 0 1 26.82 96.48c2.91 15.33 4.72 31.02 7.56 46.1 84.79 29.82 177.47 48.3 264.35 71.58 38.99 10.45 81.62 15.55 121.24 23.57V2048H0v-337.93c21.592-4.07 46.497-6.73 69.007-10.77 44.03-8.21 87.715-18.17 130.95-29.86 23.342-6.35 46.719-14.71 69.596-22.63a4515 4515 0 0 0 121.015-43.96c9.43-89.81 54.694-191.16 105.932-264.91 95.047-136.81 248.845-235.43 414.79-261.24"/><path fill="#374e5c" d="M911.29 1076.7c-5.863-14.96-14.397-28.16-21.888-42.36-25.14-47.63-46.721-86.189-50.066-141.3-5.74-94.538 42.092-181.904 103.053-250.586 50.868-57.313 114.391-94.259 192.161-98.569 4.06.196 31.59-.371 32.98.905.07.276.13.551.2.827-48.04 13.13-88.81 42.319-113.77 85.86a164.55 164.55 0 0 0-15.61 126.287c13.94 50.849 44.13 93.598 87.93 122.761 15.21 10.121 31.59 18.525 46.39 28.598 88.77 60.446 123.98 113.507 125.56 221.407 152.75 69.27 271.49 196.71 329.8 353.97a601 601 0 0 1 26.82 96.48c2.91 15.33 4.72 31.02 7.56 46.1 84.79 29.82 177.47 48.3 264.35 71.58 38.99 10.45 81.62 15.55 121.24 23.57v20.96l-247.71-.53c-18.19-.06-75.36 2.74-88.71-1.18-13.31-3.9-74.07-46.19-92.98-55.78-65.78-33.36-131.73-64.5-192.43-106.42-93.66-64.67-141.19-142.66-160.43-254.1-1.22.51-1.12.57-2.13 1.63 4.51 92.67 9.69 188.78 83.61 254.58 48.81 43.44 107 66.46 164.11 96.74 30.79 16.31 62.87 37.3 93.45 52.46-2.18.77-4.35 1.52-6.46 2.47-42.44.1-84.87-.43-127.29-1.58-15.74-.36-40.59 1.37-54.77-3.12-8.75-2.77-78.37-58.9-93.15-70.17-33.4-25.46-66.9-51.19-89.31-87.49-43.97-71.24-24.12-150.32-7.94-226.32 11.72-55.03 28.3-131.67 27.62-187.57-.29-24.03-3.88-48.78-11.02-71.75-14.26-45.86-46.34-86.538-81.07-119.058-16.65-15.601-34.39-30.045-50.67-46.067-31.09-30.603-60.33-66.869-79.39-106.171l-1.91 1.307a311.8 311.8 0 0 0 43.78 88.133c12.5 17.741 30.96 40.219 45.77 56.125 76.99 82.711 104.6 185.121 79.91 295.851-23.19 104.01-87.42 203.78-50.46 313.84 28.67 85.33 117.75 114.28 190.95 150.84-60.09.06-120.17.79-180.24 2.18-2.44-1.78-4.86-3.61-7.23-5.49-43.63-34.63-75.91-70.84-88.27-126.47-5.19-22.4-6.46-45.53-3.77-68.37 2.97-23.71 12.28-50.27 20.58-72.62 36.94-99.42 94.43-185.22 70.8-296.44-12.06-56.74-37.47-99.71-73.32-144.75-18.26-22.939-38.73-46.456-54.34-71.333a286.2 286.2 0 0 1-41.192-117.211c-8.167-71.439 9.8-149.283 54.772-206.121l-1.25-2.4c-15.18 15.953-30.48 31.761-43.027 49.945-33.129 48.001-50.409 111.96-48.867 169.924 1.139 42.79 11.253 85.235 31.851 122.861 11.908 21.751 27.313 40.735 42.623 60.115 41.4 52.41 86.23 107.64 93.06 176.75 15.76 159.54-172.956 299.46-144.905 446.12 6.853 35.83 27.579 69.14 45.965 100.13-20.303.02-99.088 2.99-113.537-1.02-10.622-2.95-20.843-10.08-28.581-17.81-19.607-19.59-28.852-50.37-28.652-77.56.177-23.86 5.986-46.4 14.118-68.68 40.486-110.92 142.57-191.6 161.302-308.33 4.05-25.97 4.14-52.41.25-78.42-12.15-82.96-54.49-129.04-83.359-204.149-10.033-26.102-15.412-53.882-18.772-81.59-10.932-90.142 6.858-177.1 61.605-251.083l-1.355-2.275c-11.539 12.491-22.392 24.046-32.333 38.019-39.777 55.912-64.144 124.446-61.57 193.525 1.36 36.503 11.187 78.054 27.41 110.831 7.482 15.122 17.995 32.142 26.069 47.062 46.868 86.64 63.021 169.12 27.385 264.51-15.717 42.08-42.477 88.21-68.608 125.31-20.083 28.51-41.643 56.03-62.755 85.08-33.879 46.62-79.702 103.87-85.22 163.49-2.203 23.8 7.559 46.47 21.016 65.34-83.965-1.26-168.858-.39-252.461-1.94 44.193-106.79 157.726-149.55 240.164-220.47 52.148-44.86 99.27-98.39 135.233-157.03l-2.164-.81c-54.897 70.8-144.476 132.67-223.223 174.32-88.358 46.74-234.251 107.06-297.664 186.64-62.631 2.53-125.274 4.72-187.928 6.59-44.157 1.38-86.59 4.56-130.66.35-15.723-1.5-32.433-1.29-48.32-2.47v-14.04c21.592-4.07 46.497-6.73 69.007-10.77 44.03-8.21 87.715-18.17 130.95-29.86 23.342-6.35 46.719-14.71 69.596-22.63a4515 4515 0 0 0 121.015-43.96c9.43-89.81 54.694-191.16 105.932-264.91 95.047-136.81 248.845-235.43 414.79-261.24"/><path fill="#e38c38" d="M390.568 1602.85c9.43-89.81 54.694-191.16 105.932-264.91 95.047-136.81 248.845-235.43 414.79-261.24 25.816 51.46 28.804 114.64 10.284 168.88-57.148 167.36-236.456 235.74-386.131 297.52zm907.662-472.32c152.75 69.27 271.49 196.71 329.8 353.97a601 601 0 0 1 26.82 96.48c2.91 15.33 4.72 31.02 7.56 46.1-25.32-8.57-53.52-16.73-78.31-25.99-73.29-27.35-157.09-70.04-211.24-128.15a322.78 322.78 0 0 1-86.75-238.5c1.31-20.31 5.3-38.97 8.36-59.02 2.34-15.38 3.22-29.4 3.76-44.89"/><path fill="#93969b" d="M1263.61 1326.81c-.8-2.36-.94-12.12-.15-13.97.25-.15.11-.12.4-.07 1.24 1.12 1.79 10.57 1.88 12.41-1.22.51-1.12.57-2.13 1.63"/><path fill="#b9bbbd" d="M899.198 1343.67c-1.809 4.11-6.052 12.85-9.239 15.82l-2.164-.81c3.668-5.1 7.471-10.11 11.403-15.01m136.712-732.835c3.2-3.281 5.61-4.911 9.27-7.585-2.51 3.177-5.35 7.101-8.02 9.985zm-6.49 204.236a40.3 40.3 0 0 1-1.98-6.631l.06.346-.06-1.71c.06-.053.11-.106.17-.159 1.33 1.029 2.99 5.204 3.72 6.847zm-53.791-169.308c.929-.957 4.401-4.902 5.64-5.002 1.033.832-3.719 6.538-4.285 7.277z"/><path fill="#374e5c" d="M1614.41 1975.12c32.35-13.04 83.68-30.88 118.59-42.38 6.51-2.14 33.68 2.64 41.56 1.9 43.08 2.62 86.19 6.37 129.14 10.67 21.65 2.17 46.03 2.7 67.24 5.99-9.93 24.83-26.49 71.28-32.85 96.7h-229.6c-14.06-3.09-38.44-5.05-53.45-6.44-15.24-1.4-35.78-4.12-50.62-4.72zm-1467.897-18.49c18.654-4.51 40.519-7.88 59.495-11.59 9.187-1.8 35.872-7.76 42.958-7.61 23.428.49 51.075 3.75 74.741 5.99a9648 9648 0 0 0 140.022 12.41c-6.049 21.66-15.125 48.84-18.9 70.27a8226 8226 0 0 1-147.822 15.13c-14.727 1.44-53.815 4.15-66.101 6.77H127.204c6.823-28.87 14.315-61.96 19.309-91.37m754.629-103.74c24.504-5.11 57.274-6.82 82.382-10.33 10.102.17 30.406-5.82 39.666-4.22 55.61 9.62 118.34 18.98 173.11 29.83-4.36 17.75-11.11 36.96-15.86 55.65-40.91 3.95-87.96 10.59-129.46 15.67-10.71 6.71-21.49 8.65-26.4 11.68 3.69 10.14 5.74 15.12 7.43 25.75-8.37 7.6-8.3 10.02-10.58 21.31l-3.15-2.45 3.32-13.19c-2.32-2.87-4.02-5.58-6.05-8.66 1.56-6.8 4.93-15.69 7.28-22.47-10.5-1.82-16.4-2.97-26.694-5.98-48.731-9.7-102.399-20.87-150.897-32 18.279-18.57 36.354-40.59 55.903-60.59"/><path fill="#e8352d" d="M996.135 1904.26c9.445-19.51 25.545-18.54 40.825-4.9 1.73 1.54 10.15-4.76 13.13-4.86 41.87-1.43 15.88 30.08.89 44.99-10.71 6.71-21.49 8.65-26.4 11.68 3.69 10.14 5.74 15.12 7.43 25.75-8.37 7.6-8.3 10.02-10.58 21.31l-3.15-2.45 3.32-13.19c-2.32-2.87-4.02-5.58-6.05-8.66 1.56-6.8 4.93-15.69 7.28-22.47-10.5-1.82-16.4-2.97-26.694-5.98-8.936-8.9-26.236-29.78-24.782-42.79 5.566-9.1 17.379-1.89 24.781 1.57"/><path fill="#374e5c" d="M0 1824.02c47.837-2.13 84.974-2.65 132.228 7.09 43.153 8.9 90.292 11.82 133.419 22.5-13.378 22.15-27.052 48.48-39.513 71.46-27.001 7.38-62.878 15.88-90.64 21.48-7.071 1.43-40.44-4.34-49.562-5.65A3770 3770 0 0 1 0 1928.27zm1864.69 41.42c6.85-3.04 43.54-20.86 48.93-21.23 31.72-2.18 66.97-8.57 98.91-11.65 10.13-.98 25.69.19 35.47.45v101.74c-21.32 2.23-45.65 4.99-66.98 6.03-9.04.44-33.01-2.87-43.15-4.04-21.7-2.37-43.37-4.97-65.02-7.78-2.69-20.22-6.4-43.46-8.16-63.52m-1378.835 95.62 145.831 1.09c7.182 11.56 15.379 28.32 22.148 40.94 6.547 12.2 19.136 32.86 24.228 44.91h-39.616c-13.134-2.67-35.921-3.93-49.846-5.05l-85.797-6.82c-14.214-1.13-34.636-2.22-48.42-4.33 6.309-13.6 28.33-59.31 31.472-70.74M0 1945.35q43.747 5.91 87.586 11.1c10.55 1.28 29.759 4.36 39.457 4.73-2.483 27.68-4.417 59.78-7.709 86.82H0zm0-195.12c47.814-2.73 95.607-8.9 143.124-11.93a1380 1380 0 0 0-24.137 68.68c-39.466 1.07-79.568 2.51-118.987 3.04zm2048 193.97V2048h-75.66c-5.09-1.45-11.85-2.15-17.21-2.89 5.12-10.87 11-27.69 15.55-39.24 7.44-18.87 15.89-39.28 22.31-58.4 18.26-.46 36.77-1.98 55.01-3.27m0-189.48V1819c-10.52 1.64-25.63 2.51-36.84 3.74-23.52 2.81-47.08 5.32-70.67 7.54 5.6-17.06 19.99-48.32 27.63-65.99 26.02-3.8 54.21-4.83 79.88-9.57M750.831 2048c14.355-2.78 59.107-8.57 73.105-8.38 10.817.15 48.086 6.39 60.461 8.38z"/><path fill="#e8352d" d="m1018.28 1995.78 3.15 2.45c-.79 2.75-1.49 5.52-2.21 8.29-1.12 4.46-2.09 8.96-2.91 13.48-1.97 10.65-1.02 17.63 1.1 28h-4.99c-3.97-18.79-.04-34.42 5.86-52.22"/><path fill="#4f5f6c" d="M1604.78 1730.59c1.09.45 2.88 1.01 3.6 1.93-.44.96-8.99.54-10.06.54 2.11-.95 4.28-1.7 6.46-2.47"/><path fill="#374e5c" d="M1617.74 1837.26c9.71-1.21 71.43 5.84 83.7 7.22 44.65 4.95 89.34 9.52 134.07 13.72 7.3 22.75 14.72 45.46 22.25 68.13-31.98-.26-63.97-.78-95.94-1.56-6.27-.12-37.85-1.2-42.42-.25-12.08 2.49-36.16 12.3-48.57 16.88-8.37 1.84-57.75 3.11-68.58 3.55l-164.19 6.64c2.83-26.87 3.79-54.32 6.31-81.33 55.98-12.8 116.72-22.41 173.37-33m-294.17-93.72c16.89-.6 34.48-.49 51.43-.6l-41.34 95.66c-33.13 7.75-76.84 17.32-110.95 22.57-5.46.83-37.35-8.21-45.97-10.42l-70.17-17.75c-26.6-6.73-53.25-13.26-79.95-19.6 4.77-19.75 10.18-46.12 12.84-66.18 26.83.13 53.2-.75 79.91-1.01zm-511.903 177.62c7.981-1.31 52.302 8.73 62.83 10.86l78.396 15.81c17.057 3.42 36.823 7.7 53.887 9.83 1.01 13.61 5.77 40.53 4.65 52.1-.49 5.07-72.685 17.01-78.698 16.47-26.496-2.4-48.795-10.7-75.74-7.49a422 422 0 0 0-25.094 2.28c-47.148 5.73-94.926 8.81-142.045 14.24-7.918-23-21.925-54.91-31.379-78.55zm-365.783-186.71 15.031-.34c.837 22.49 2.044 55.42 4.096 77.18-11.461 3.03-28.263 5.46-40.399 7.5l-66.437 10.93c-24.116 3.88-55.958 10.05-80.043 11.1-3.94.18-29.526-6.7-35.325-8.21l-59.277-15.3c-12.856-3.42-31.587-7.75-43.638-11.94 4.621-20.71 10.901-41.93 16.754-62.38 96.397-3.36 192.811-6.2 289.238-8.54m201.308 102.03 81.895-.75c9.367 0 32.524-.42 40.457.76 30.305 4.49 61.434 11.8 91.761 17.27-6.222 14.27-16.98 33.62-24.332 47.84-12.021 3.38-36.405 6.26-49.097 7.95l-69.863 9.23c-7.226 1.03-14.549 2.16-21.786 3.01-43.301 5.09-85.304 17.28-128.243 24.69-9.944 1.71-20.505 3.91-30.282 6.4-1.08-10.89-2.566-50.28-.287-59.78 3.104-12.93 15.761-41.85 21.51-55.7 28.763-.93 59.147-.37 88.267-.92m-164.378-9.12c6.686-1.24 39.372 11.06 48.159 14.05-1.462 11.74-1.927 25.3-2.822 37.32a3309 3309 0 0 1-5.839 69.4c-20.875-.67-47.523-3.66-68.726-5.47a6085 6085 0 0 1-136.825-12.9l-66.059-6.22c10.338-23.12 21.295-45.79 30.776-69.27 21.002-3.09 44.959-5.25 66.498-8.02a4568 4568 0 0 0 134.838-18.89m642.696 113.84c8.23-.8 47.66 4.8 57.76 5.98 54.09 6.3 108.26 14.93 162.36 21.19-6.1 22.27-11.64 51.25-16.2 74.03-21.41-1.46-42.81-3.12-64.19-4.99-74.43-5.75-148.81-12.18-223.12-19.29-.57-20.05-1.33-40.11-2.28-60.15 28.6-5.74 57.17-10.53 85.67-16.77m535.93-184.78 289.7 2.91c-10.07 22.23-22.7 44.38-32.97 67.05l-3.69 8.07c-9.83 2.6-64.03 17.91-71.01 17.11-62.79-7.21-125.72-20.61-188.56-28.9.4-8.36 3.84-62.94 6.53-66.24m-269.19-7.95c40.95.23 87.42 12.4 128.7 14.95 13.93.86 26.7.22 40.56-.03 28.03-.28 56.05-1.19 84.05-2.72-2.59 18.38-8.08 36.68-10.96 55.5-14.36 3.13-32.94 5.35-47.77 7.51l-88.53 14.01c-20.18 3.3-46.94 8.81-67.19 9.34-3.97.1-21.99-4.15-27.08-5.24q-24.03-5.01-47.94-10.59c11.48-26.51 23.7-57.13 36.16-82.73m-648.677 8.17a13400 13400 0 0 0 269.727 2.68c-.92 15.81-4.5 40.85-6.6 56.7l-35.744 8.14c-30.552 7.07-63.291 12.58-93.384 20.45-5.899-1.98-30.641-7.63-37.695-9.07-16.637-3.39-44.213-11.67-60.05-12.78-16.99-1.18-41.072-.76-58.573-.84a1052 1052 0 0 0 22.319-65.28m839.977 198.92c6.31-.41 13.63-.42 20.04-.58-5.71 26.85-10.87 53.81-15.47 80.88-74.59.04-153.4 5.17-228.37 7.18l-17.39.56c8.06-21.5 15.87-47.68 22.66-69.75 29.17-3.9 56.82-13.75 86.46-14 11.5-.09 23.45-.85 34.97-1.24zm-211.92-99.12c8.18-.85 41.83 5.32 51.19 7.14 1.54 27.97 5.05 56.38 6.31 84.43-22.1 4.05-47.46 8.84-69.71 11.65-5.88.74-30.01-3.31-36.54-4.29l-55.81-8.6c-20.07-2.48-52.61-7.57-71.41-12.39 7.32-16.91 19.96-40.31 28.36-57.3 48.09-4.7 98.47-15.5 147.61-20.64m-896.867-103.58c80.675-.32 164.305 2.66 245.342 3.25-2.226 8.77-14.591 36.69-18.54 46.14l-8.116 20.4-102.024.13c-15.581.1-43.201 1.14-57.88-.4-8.362-.89-36.579-8.72-46.093-11.15-4.618-14.59-9.511-42.59-12.689-58.37"/><path fill="#4f5f6c" d="M1728.88 0h296.73c-19.31 19.574-44.65 18.55-58.5 43.05-8.74 15.453 2.2 33.892-4.16 48.937-6.78 16.016-30.52 23.054-35.71 40.63-2.88 8.287-1.78 17.519-3.84 26.042-11.06 45.816-66.08 38.171-89.38 66.745-13.95 17.107-17.31 46.849-32.26 66.508-19.15 25.177-44.56 24.194-67.96 42.989-20.52 16.577-32.65 39.079-55.23 53.308-22.06 13.902-42.08 15.6-67.13 9.852 40.44-24.47 75.61-75.554 61.3-125.538-5.61-19.567-19.78-22.636-18.1-48.808 2.21-34.514 28.29-44.387 40.93-72.391 6.78-16.743-19.02-37.658-15.59-58.397 4.96-29.907 21-41 42.09-58.292-.12-13.995-.26-22.272 6.81-34.635"/><path fill="#f9f9f8" d="M1874.04 0h21.19c-25.25 25.74-58.18 66.4-27.66 105.38 9.07 11.589 26.57-.37 33.3-8.653 20.32-24.771 17.71-36.772 5.02-62.628 2.61 14.789 4.26 22.942 2.97 38.14-3.13 5.175-5.67 9.108-11.65 11.043-17.72-2.19-3.5-53.19 4.37-59.668 14.6-3.219 23.63 17.477 26.15 28.95 1.78 8.082 2.26 18.368-2.71 25.403-12.33 18.122-29.78 29.857-47.55 41.871l1.12.899c39.77 32.497-20.2 84.739-18.1 31.905.74-18.626-4.15-33.719-8.77-51.528-2.6-9.844-4.23-20.558-6.7-30.648-18.88 16.837-66.64 91.957-67.57 116.411-.66 17.086 11.07 22.046 17.52 35.188 5.14 10.467 5.1 32.349-3.73 41.033-1.57 1.538-3.5 2.997-5.83 2.822-2.64-.199-4.21-1.343-6.01-3.117-4.44-9.846-.63-23.415-2.27-31.206-2.88-13.672-6.7-23.653-8.86-38.316-15.52 23.485-29.15 45.126-41.23 70.698-5.45 11.527-8.14 23.584-13.86 34.597-2.3 4.43-6.96 6.889-11.72 8.127-3.54-.828-2.57.143-4-2.08 3.07-13.634 7.45-24.386 8.73-38.49-2.46-3.746-3.16-4.243-3.32-8.509 3.31-9.894 19.64-12.81 27.6-25.928 15.79-26.03 31.08-52.539 45.26-79.483 7.15-13.582 18.04-29.554 23.1-43.438-34.36-1.724-41.01 6.628-65.83 26.771-2.32 1.885-8.34.248-9.45-2.296-5.13-5.565-6.82-31.579.86-35.184 22.27-10.468 54.06 9.58 77.17.213 10.03-5.082 28.2-34.896 33.46-45.66-19.35 1.027-38.52 2.88-57.1 8.392-19.73 5.852-27.55 31.04-50.06 25.517-16.17-3.97-15.7-16.469-2.29-23.834 10.61-5.823 25.57-10.042 37.46-11.048 3.15-.796 3.77-.676 7.09-.715l2.08-2.61c-5.62-2.02-14.63-6.203-16.6-12.285 2.99-1.863 70.77 17.427 84.56 5.056C1853.65 29.02 1863.79 13.64 1874.04 0"/><path fill="#b9bbbd" d="m1772.22 48.322 6.06 1.783c1.81-.087 2.24-.142 3.97.447l-.32-.056.96.858.18-.078c-1.95 1.107-16.85.673-20.02.37 3.15-.796 3.77-.676 7.09-.715z"/><path fill="#4f5f6c" d="m1772.22 48.322 6.06 1.783c-3.85.869-4.11.864-8.14.826zm104.47 103.762c-2.77-4.973-3.82-10.776-6.02-14.941-4.64-8.837-6.86-9.651-10.32-19.432 7.96 6.911 11.28 9.279 17.79 17.445.92 5.134.95 9.225 1.64 14.132-.18 1.086-.36 5.228-1.66 5.558-.98-.549-1.1-1.67-1.43-2.762"/><path fill="#5a656b" d="M1879.78 149.288c-.18 1.086-.36 5.228-1.66 5.558-.98-.549-1.1-1.67-1.43-2.762q1.53-1.416 3.09-2.796"/><path fill="#4f5f6c" d="M1751.17 102.16c1.53-.089 14.21-1.012 13.59 2.302.54-.614-19.02 5.122-21.98 6.519-3.2 2.19-6.63 4.272-9.87 6.453 6.98-8.95 7.49-10.16 18.26-15.274m-26.41 150.618c.74 6.462-11.15 27.017-15.24 32.492-1.66-7.717 10.24-26.607 15.24-32.492m65.1-6.95c-1.06-2.13-9.56-18.754-9.55-19.545 1.11-1.273 4.31.675 5.33 1.306 6.11 3.785 6.65 11.001 7.83 17.485z"/><path fill="#5a656b" d="m1789.86 245.828 3.61-.754c.72 8.328-.54 5.773-3.61.754"/><path fill="#f9f9f8" d="M1759.18 0h81.71c-17.71 12.11-57.68 40.13-78.78 18.974-5.1-5.115-3.54-12.325-2.93-18.974m172.12 0h30c-3.19 9.695-7.26 21.216-19.8 21.61-10.54.332-10.3-14.254-10.2-21.61m-195.15 161.065c7.85.681 9.85 5.521 6.02 12.523-2.51 4.584-9.13 9.595-12.95 13.496-7.74 7.906-15.16 16.014-21.01 25.501-6.61 10.183-6.65 15.573-10.39 25.978l-.97-.563c-4.01-2.255-6.5-4.273-7.59-9.003-7.91-34.273 15.37-59.733 46.89-67.932"/><path fill="#4f5f6c" d="M1695.06 203.805c4.33-17.625 18.49-22.654 34.57-26.519-13.09 11.378-20.68 10.533-31.82 27.653z"/><path fill="#93969b" d="m1695.06 203.805 2.75 1.134c-.37 1.051-2.01 6.341-3.11 6.315-.87-1.002.2-6.289.36-7.449"/><path fill="#f9f9f8" d="M1829.16 133.712c21.28 3.174 5.31 34.445 2.16 47.371-1.63 6.675-4.96 9.874-10.94 12.398-21.86-12.961-9.74-48.845 8.78-59.769m-80.68 121.843 1.51.248c15.04 2.311 21.64 27.498 13.64 39.482l-.91 1.411c-9.19 4.996-13.29.034-12.9-9.503.36-8.561-4.89-22.78-1.81-30.422z"/><path fill="#4f5f6c" d="M1757.41 281.498c-.35-3.035-3.79-14.186-3.78-14.513.5-12.684 7.27 8.521 8.01 12.569-1.48.613-2.79 1.256-4.23 1.944"/><path fill="#5a656b" d="M1761.64 279.554c-1.19 5.791-.57 7.82-4.23 1.944 1.44-.688 2.75-1.331 4.23-1.944"/><path fill="#4f5f6c" d="M1328.28 0h296.13c-15.4 16.694-28.6 15.602-45.11 27.8-27.84 20.561-10.99 40.008-17.98 64.453-4.33 15.142-30.77 23.987-35.06 41.074-2.1 8.368-1.21 15.684-2.85 24.181-2.31 12.008-5.86 14.612-12.28 22.384-19.14 23.153-52.58 22.519-71.12 39.046-17.12 15.257-19.83 49.953-35.26 70.16-20.03 26.256-40.02 25.024-64.97 42.112-21.1 14.452-34.48 39.159-55.47 53.842-24.73 17.298-42.89 17.838-71.34 13.073 39.95-26.176 76.78-77.876 59.1-128.264-7.64-16.871-18.99-27.753-16.86-47.764 1.58-21.746 18.12-40.259 31.82-55.676 25.53-28.748-6.56-42.762-7.44-69.906-.51-15.695 10.63-34.683 21.55-45.302 5.82-5.653 14.04-11.556 20.54-17.874-.65-15.108-.17-19.594 6.6-33.339"/><path fill="#f9f9f8" d="M1471.78 0h21.38c-25.51 27.065-58.09 68.426-26.13 104.976 9.61 10.993 28.4-1.379 34.94-10.58 10.65-14.99 18.64-31.17 8.8-49.088l-2.87 2.908c.55 7.356 1.3 14.98 1.03 22.323-16.1 29.939-26.89 4.31-20.31-17.034 4.58-14.857 6.92-47.13 28.64-23.182 7.91 8.681 14.23 32.232 9.17 42.42-8.2 16.498-34.01 37.753-48.93 47.08l.96.74c8.95 7 10.68 12.101 13.23 24.138 3.18 14.273-11.85 40.213-27.74 26.834-7.95-6.698-1.87-29.933-4.44-38.212-6.23-20.064-10.04-42.888-15.85-62.602-20.76 17.894-60.24 85.416-66.27 114.709-2.99 14.511 11.82 25.098 17.72 35.694 5.86 10.511 7.34 41.984-9.57 44.297-12.66-3.43-5.9-22.673-7.45-31.477-2.42-13.743-6.49-26.6-8.09-40.573-18.72 21.553-31.96 50.008-44.2 75.708-6.44 13.53-6.19 32.515-22.55 38.631l-2.68-.246c-6.75-8.965 14.09-31.685 4.3-49.818.92-8.59 18.58-13.922 23.81-21.889 6.84-10.418 13.47-21.389 19.29-32.43 16.28-30.877 36.09-62.453 50.25-94.199-9.69-.645-20.57-1.856-29.29 1.063-22.58 7.554-49.53 55.187-50.27-2.165-.4-30.434 66.72 1.18 81.83-10.433 12.87-9.885 27.35-32.863 33.43-46.632-18.6 2.244-39.13 3.516-56.92 9.127-16.16 5.63-23.24 22.641-40.58 26.298-13.32 2.808-29.74-10.204-16.85-21.633 10.4-9.218 32.76-13.532 46.13-14.507 1.76-1.353 2.56-1.896 4.52-3.053-9.95-2.76-12.81-7.36-18.62-15.383 21.32 9.119 59.74 14.64 82.55 11.858 14.66-10.171 27.27-29.12 37.63-43.668"/><path fill="#4f5f6c" d="M1504.95 33.913q3.03 5.631 5.82 11.395l-2.87 2.908a792 792 0 0 0-2.95-14.303m-134.73 13.281c3.64.877 6.78 1.908 10.45 2.507-1.56-.055-1.86.03-3.4.293-3.85.117-7.71.201-11.57.252 1.76-1.353 2.56-1.896 4.52-3.053"/><path fill="#b9bbbd" d="M1380.67 49.701c.59.344.39.181.68.475-.01.1-.01.201-.02.301-1.32.906-2.9.387-4.06-.483 1.54-.262 1.84-.348 3.4-.293"/><path fill="#4f5f6c" d="M1461.21 116.536c12.53 10.907 16.86 13.741 18.28 29.71.65 5.201.32 9.55-3.33 2.862-3.65-10.223-10.28-20.183-14.95-32.572"/><path fill="#4f5f6c" d="M1479.49 146.246c.65 5.201.32 9.55-3.33 2.862zm-100.86 79.418 1.25.118c15.21 1.295 14.1 13.441 13.25 26.65l-.19-.323c-4.84-7.866-5.3-15.842-12.04-23.8zm-52.54 26.319c1.44 5.286-12.63 29.428-16.61 34.222-.85-8.264 10.45-28.036 16.61-34.222m9.67-140.719 2.44-2.202c5.24-4.676 12.65-8.041 19.8-7.166 1.59.195 7.17.703 7.61 2.663-.54 1.506-12.92 1.865-15.1 2.476-5.31 1.482-8.46 1.964-13.07 5.116z"/><path fill="#b9bbbd" d="m1335.76 111.264 1.68.887c-.8.783-2.27 2.782-3.54 2.777a.38.38 0 0 1-.3-.145c-.33-1.331 1.31-2.644 2.16-3.519"/><path fill="#f9f9f8" d="M1358.63 0h79.28c-16.94 11.776-36.91 26.296-58.41 25.606-20.23-.65-21.63-9.272-20.87-25.606m171.64 0h29.09c-2.88 9.602-5.07 18.21-16.35 21.042-12.86 3.23-11.99-12.817-12.74-21.042M1332.6 162.212c24.39-1.397 4.13 17.671-2.57 24.295-16.91 16.713-25.25 27.07-30.71 50.202-14.28-1.308-11.26-21.122-10.25-31.205 2.02-20.264 25.17-38.223 43.53-43.292"/><path fill="#4f5f6c" d="M1294.81 205.735c2.9-18.75 16.68-23.767 33.37-26.74-10.61 8.029-24.22 16.185-30.71 27.53z"/><path fill="#b9bbbd" d="m1294.81 205.735 2.66.79c-.67 1.52-1.08 2.844-1.61 4.403-.2.797-.39 2.075-1.24 2.46-1.1-1.28-.34-4.282.09-5.721z"/><path fill="#5a656b" d="m1294.81 205.735 2.66.79c-.67 1.52-1.08 2.844-1.61 4.403-.36-1.093-.75-2.18-1.15-3.261z"/><path fill="#f9f9f8" d="M1429.32 132.869c3.27.533 6.65 1.135 8.44 4.166 2.54 4.28 1.21 13.366.43 17.977-1.97 11.062-4.5 22.72-10.12 32.563-2.56 4.486-3.76 4.234-8.31 5.286-19.82-12.655-9.17-48.887 7.98-59.034zm-80.95 122.921 1.56.083c18.23.792 21.12 26.168 14.22 39.668-3.83 2.853-10.88 3.676-12 .244-2.15-6.609-4.37-33.819-3.78-39.995"/><path fill="#4f5f6c" d="M1354.57 261.71c7.58 5.625 7.97 17.267 7.04 25.871-3.11-4.874-7.41-20.273-7.04-25.871M927.757 0H1225.4c-17.15 18.16-40.37 18.887-55.07 38.988-11.68 15.957 0 35.177-6.88 51.784-7.24 17.51-31.73 22.958-37.81 41.415-3.22 29.163-2.92 38.206-28.16 56.752-17.04 12.524-42.59 13.664-58.05 27.138-20.55 17.907-22.78 54.683-40.177 75.756-17.336 22.06-42.03 24.603-63.85 40.143-22.046 15.598-33 38.904-55.382 53.582-22.135 14.516-44.043 16.17-69.426 10.815 40.514-24.3 76.608-77.581 59.801-127.092-6.498-19.142-19.256-21.778-17.657-47.094 2.191-34.71 30.714-46.039 42.036-74.606 3.354-21.958-17.894-32.454-15.669-54.847 1.608-16.186 10.571-32.467 22.535-43.536 6-5.55 13.632-10.426 20.105-16.16.043-14.405.462-19.896 6.011-33.038"/><path fill="#f9f9f8" d="M1075.29 0h19.23c-19.3 22.342-41.49 44.38-38.7 76.259 2.89 32.827 26.62 45.453 48.15 16.584 12.73-17.06 16.92-34.213 4.81-53.399-.27 2.261-.58 4.518-.92 6.769 1.05 7.729 4.18 24.998-1.51 30.752-10.68 10.813-19.82 3.47-18.5-10.614-.02-6.167 9.84-39.741 13.91-41.684 18.88-9.031 31.91 32.092 27.14 44.837-7.22 19.296-33.75 38.619-50.52 48.87l-1.8 1.097 1.17.917c4.54 3.601 7.6 6.394 10.06 11.839 5.04 11.148 4.01 23.381-3.73 32.983-7.48 9.276-22.41 12.705-24.84-2.737-1.48-10.217.14-20.629-1.1-30.857-1.44-8.291-4.38-19.086-6.37-27.596a1102 1102 0 0 1-7.45-35.988c-18.8 21.966-71.194 93.939-69.055 121.528 1.728 22.291 26.315 26.268 21.212 56.555-.879 5.22-2.428 11.276-5.896 15.433-1.452 1.741-3.341 3.168-5.674 3.41-2.825.294-5.455-1.152-7.36-3.1-2.993-10.399-1.27-20.15-2.672-29.969-1.706-11.952-4.881-27.714-8.027-39.364-24.274 26.507-41.961 74.751-57.389 106.723-2.516 5.215-7.72 8.669-12.915 5.082-2.757-7.852 13.325-32.778 6.959-42.734.127.199-1.687-3.987-1.575-3.73.326-10.244 19.539-16.702 25.446-25.607 11.751-17.715 21.978-36.429 32.293-55.021 12.281-22.892 27.494-46.649 37.832-70.059-34.494-.562-39.274 5.939-65.409 26.021-2.181 1.676-8.508 1.331-9.906-1.473-4.719-6.696-7.522-31.183 1.661-35.265 22.954-10.204 54.111 10.061 78.015.039 9.92-5.209 27.72-34.682 33.37-45.75-17.64 1.302-41.652 3.08-58.467 8.608-18.705 6.148-25.464 30.899-50.198 26.642-19.024-3.275-14.74-15.57-1.837-24.246 11.14-7.491 31.774-11.32 45.44-11.73l1.557-2.585c-6.145-2.043-14.747-6.453-17.123-12.66l.413 2.014-.473-1.491 1.141-1.488c23.487 6.302 49.967 10.906 74.567 9.662 14.84-.75 34.53-30.457 45.04-43.477"/><path fill="#5a656b" d="M971.725 47.44c2.223.451 4.791.752 6.624 2.03-.888.69-6.963.559-8.181.555zm136.135-1.227c-.17-.742-3.23-12.092.92-6.769-.27 2.261-.58 4.518-.92 6.769"/><path fill="#4f5f6c" d="M1060.59 117.843c17.8 11.57 18.94 17.836 18.16 37.688-2.05-1.282-17.47-34.217-18.16-37.688M923.849 249.826c-.127 6.849-12.268 29.24-16.532 35.447-1.839-10.266 9.746-27.994 16.532-35.447m28.03-148.721c2.431-.091 19.804.86 8.657 3.818-4.376 1.161-10.866 1.897-15.982 3.243l-1.114.326c-4.652 1.947-8.39 3.9-12.874 6.052 7.602-8.689 9.327-10.421 21.313-13.439m27.72 124.503c12.907 2.216 13.103 13.706 11.916 24.906-3.934-.834-2.56-4.353-4.373-8.548-2.544-5.891-5.472-10.249-7.543-16.358"/><path fill="#f9f9f8" d="M956.858 0h82.232c-20.92 15.11-80.081 49.078-82.232 0m175.032 0h31.02c-9.04 23.452-29.84 33.878-31.02 0M935.145 160.179c2.234.203 5.467.542 6.588 2.997 3.618 7.828-6.531 16.442-11.611 21.126-13.151 12.125-26.906 24.984-30.835 43.247-.622 2.895-1.391 5.107-2.838 7.738l-.912 1.714c-5.048-3.166-7.502-4.895-8.764-11.13-6.524-32.22 17.782-59.569 48.372-65.692"/><path fill="#4f5f6c" d="M923.134 177.232c1.218 1.398-.218 2.539-1.428 3.484-12.837 10.025-20.086 13.505-29.896 27.183-.443.058-.303.107-.495-.026-.531-1.765 3.896-12.762 4.987-14.745 4.955-9.012 17.65-13.356 26.832-15.896"/><path fill="#f9f9f8" d="M1027.24 132.866c19.75.7 9.87 21.371 7.05 34.709-2.03 9.6-4.83 18.299-13.54 23.084-7.7-3.034-9.9-4.459-11.98-13.129-4.05-16.926 2.85-36.286 18.47-44.664m-80.203 121.665c16.88 1.598 22.437 27.076 14.516 38.93l-1.036 1.618c-15.896 8.12-12.349-9.382-13.668-19.578-1.272-9.83-3.003-11.982.188-20.97"/><path fill="#5a656b" d="M951.713 260.866c7.843 4.881 7.672 18.225 6.909 26.442-1.537-3.074-6.989-23.125-6.909-26.442"/><path fill="#4f5f6c" d="M128.815 0h300.2c-17.115 15.972-28.304 15.044-45.073 26.876-29.505 20.818-11.07 42.174-20.032 64.749-7.31 15.611-32.587 23.522-37.118 40.348-4.161 20.378-1.217 26.261-14.406 43.385-19.208 24.94-53.954 23.815-74.235 41.106-18.059 15.398-22.965 52.771-38.494 72.803-14.12 23.026-46.995 25.102-64.624 39.541-48.244 39.516-55.072 80.06-128.3 66.462 7.81-5.337 18.792-12.398 25.72-18.477 26.287-23.066 48.723-70.767 37.776-105.759-6.127-19.583-18.865-23.445-17.563-49.793 1.86-37.654 33.81-46.784 42.456-75.767 4.981-16.693-18.62-32.186-15.56-54.245 2.311-16.653 10.33-31.03 22.665-42.913 4.385-4.224 14.293-10.894 19.927-15.634-.176-14.25.499-19.68 6.661-32.682"/><path fill="#f9f9f8" d="M276.034 0h20.423c-19.366 21.147-41.515 42.583-40.403 73.511.429 11.91 8.707 38.504 23.2 35.291 31.915-7.076 46.956-46.069 29.635-72.404l-1.023-1.583-.623-.943c1.989 13.15 6.252 32.124-1.324 43.986-6 9.835-17.768 3.212-17.749-6.808.015-7.896 3.715-16.747 5.54-24.858 6.317-28.08 14.585-33.757 31.987-6.045 9.1 14.492 6.044 33.305-6.218 45.215-13.839 15.077-25.565 23.07-42.718 32.956l1.018.856c8.739 7.473 11.756 13.597 13.124 24.856 1.473 12.112-7.785 28.062-20.408 29.171-15.263 1.341-9.727-32.092-11.61-40.983-4.548-21.479-9.443-42.41-13.255-63.93-16.183 15.776-70.019 92.607-70.393 114.133-.398 22.964 11.25 22.521 18.111 37.502 4.42 9.652 4.606 32.533-3.766 40.364-1.818 1.7-5.304 3.533-7.87 3.336-2.561-.198-3.842-.857-5.299-2.972-3.909-5.674-.797-20.002-1.544-26.922-1.542-14.28-5.29-28.802-7.969-42.951l-.923 1.154c-24.872 31.377-40.599 70.795-57.39 106.647-2.52 5.38-7.458 8.452-12.937 5.012-3.451-7.494 8.286-25.943 8.897-35.72.569-9.114-4.284-5.641-3.134-13.852 4.858-7.541 19.738-13.697 25.622-22.856 12.348-19.22 23.937-39.263 34.859-59.266 11.642-21.324 25.737-42.929 35.945-64.829-33.99-.761-38.946 5.97-65.029 25.521-2.132 1.599-6.961.907-9.394-.303-6.64-7.034-8.097-30.538-.296-35.67 20.085-13.213 62.867 13.748 82.299-2.37 8.203-6.804 25.728-33.773 31.012-44.128-18.113 2.02-40.224 3.674-57.687 8.713-19.616 5.66-26.301 29.206-50.671 26.645-19.241-2.022-17.462-14.118-4.098-23.385 12.392-8.593 33.133-12.12 48.097-12.043l1.825-2.395c-11.357-3.43-14.355-7.096-20.987-16.198 19.977 7.786 54.56 13.15 76.056 12.414 17.735-.606 35.852-29.083 47.068-43.869"/><path fill="#4f5f6c" d="M173.897 47.653c2.296.291 4.273.472 6.286 1.602l.071.124.28.052c-.542.837-7.415.61-8.462.617zm87.326 71.646c15.967 4.128 18.043 19.483 17.697 33.269-2.538-1.873-16.29-28.813-17.697-33.269m-84.222 104.175c15.3 3.215 13.995 13.494 12.581 26.694 2.003 2.431-13.057-27.831-12.581-26.694m-53.393 25.516c-.111 7.645-11.199 27.773-17.387 34.156-.559-7.065 11.921-28.785 17.387-34.156m25.663-147.928c2.553-.087 12.346-.817 15.077 1.796.105.101.144.6-.043.68-4.962 2.115-11.418 1.014-16.73 3.064l-1.753.513c-5.82 1.857-8.739 3.707-14.184 6.558 7.301-7.134 8.033-8.019 17.633-12.611"/><path fill="#f9f9f8" d="M158.902 0h80.122c-18.291 13.3-36.428 25.249-60.531 24.952-8.152-.1-14.2-5.995-19.343-11.518A243 243 0 0 0 158.902 0M334.79 0h29.494c-3.296 8.794-8.566 20.82-20.299 21.113-10.166.255-9.345-14.155-9.195-21.113M131.964 160.143c10.757-.507 12.564 4.783 6.938 14.27-3.31 4.42-8.449 8.059-12.431 11.677-16.687 15.162-25.747 27.596-30.08 49.9-11.618-4.364-11.87-15.61-10.586-26.499 3.063-25.973 22.157-42.363 46.159-49.348"/><path fill="#4f5f6c" d="M91.432 205.88c2.212-9.386 4.564-16.384 13.163-21.679 1.777-1.095 17.033-8.851 18.265-5.655-2.347 4.615-25.591 13.866-29.57 29.043z"/><path fill="#93969b" d="m91.432 205.88 1.858 1.709c-.303.517-1.13 2.398-1.827 2.712-1.033-.448-.22-3.648-.031-4.421"/><path fill="#f9f9f8" d="M227.758 131.938c23.53.626 3.463 40.454-.611 52.052-.868 2.471-4.375 4.752-6.484 6.279-22.768-6.715-11.484-46.575 5.509-57.287zm-83.61 121.56c17.424.725 25.734 25.565 17.245 38.022l-.978 1.527c-8.605 5.521-13.215 4.089-13.4-6.54-.164-9.416-4.732-24.764-2.867-33.009"/><path fill="#4f5f6c" d="M150.932 260.67c8.4 3.975 8.839 15.006 7.538 23.023-2.731.041-3.156-.418-3.46-3.64-.632-6.704-3.102-12.769-4.078-19.383M524.636 0h299.723c-17.671 15.067-29.537 15.874-47.054 28.556-26.619 19.272-9.312 45.656-17.847 63.79-14.355 24.4-36.476 21.86-38.067 54.857-2.35 48.718-59.173 49.42-86.434 71.338-16.851 13.547-19.723 53.89-36.396 73.402-20.357 23.824-44.965 24.066-68.516 43.008-47.509 44.372-49.804 70.621-121.835 62.448 7.923-5.218 13.922-9.346 21.223-15.732 25.82-18.394 57.251-82.351 39.742-113.363-20.288-35.934-27.452-52.426 3.024-89.963 6.896-8.493 18.816-19.227 20.975-31.247 3.882-21.62-19.47-34.41-16.629-56.031 3.809-27.266 23.281-42.233 43.242-58.422-1.323-12.796.977-20.604 4.849-32.641"/><path fill="#f9f9f8" d="M671.09 0h20.805c-24.468 26.876-60.663 64.538-26.29 104.804 9.669 11.327 29.817-4.083 35.512-13.099 16.317-24.594 18.381-35.803.929-59.173 3.799 12.4 12.256 44.49-6.281 48.313-23.586 4.864-2.014-50.562 2.81-57.238 7.074-4.738 14.884 2.705 18.746 8.457 6.908 10.286 11.396 23.859 9.252 36.336-3.591 14.642-29.777 35.761-41.7 43.106a267 267 0 0 1-10.257 5.966c9.231 10.271 13.216 15.434 14.033 31.576 1.191 11.927-16.492 33.142-27.905 22.027-5.279-5.142-3.065-29.217-4.623-36.85-4.517-22.129-10.135-44.104-14.915-66.155-19.773 20.4-64 88.722-67.044 120.176-1.817 18.77 29.142 31.426 20.468 58.45-.951 2.963-6.205 27.473-20.379 14.311-3.782-3.513 1.643-22.48.564-27.666-2.198-12.696-6.259-27.256-9.597-39.669-18.737 21.375-33.153 52.247-44.811 77.95-4.981 10.982-6.403 36.988-24.548 34.778l-1.269-1.272c.066-7.499 8.922-28.413 11.311-38.747-2.179-3.528-5.128-7.171-5.04-11.125 2.795-7.835 16.924-13.058 21.738-19.37 22.465-29.457 37.231-65.073 55.971-97.006 3.109-5.299 16.066-25.329 15.778-29.89-3.491-2.856-11.924-2.365-15.888-2.039-19.771 1.617-32.535 15.663-47.678 26.333-2.177 1.534-7.127.916-9.128-.626-5.142-3.96-8.451-31.737-2.922-35.258 13.77-8.77 36.455-.592 51.755.28 10.014.623 16.678 1.1 25.849.115 13.098-8.37 29.097-33.308 35.845-47.036-18.992 1.173-41.576 3.167-59.676 8.272-17.985 5.073-24.387 30.506-46.807 26.212-19.786-2.532-14.831-16.658-2.152-24.982 10.101-6.631 28.645-10.44 41.05-10.333 2.509-.481 6.531 0 7.074-2.49-11.114-3.073-13.552-6.1-20.618-14.585 20.592 6.286 55.176 11.476 76.872 10.311C642.345 42.39 661.332 12.776 671.09 0"/><path fill="#93969b" d="M571.67 47.439c1.449.213 6.697.618 7.49 1.963-.831.805-7.892.688-9.178.682a178 178 0 0 1-5.386-.156c2.509-.481 6.531 0 7.074-2.49"/><path fill="#4f5f6c" d="M656.885 115.148a173 173 0 0 1 5.617 4.864c12.458 11.328 13.168 13.727 13.806 29.326a146 146 0 0 0-3.767-.655c-2.545-10.468-10.716-21.378-15.656-33.535m-71.31 129.371c-1.723-6.431-5.137-10.151-7.377-15.556-1.826-4.406 4.859-3.247 7.164-.57 4.591 5.33 3.791 10.509 3.847 16.92 0 .007-.072 3.087-.829 3.036-1.429-.096-2.347-2.901-2.805-3.83"/><path fill="#5a656b" d="M589.209 245.313c0 .007-.072 3.087-.829 3.036-1.429-.096-2.347-2.901-2.805-3.83q1.82.379 3.634.794"/><path fill="#4f5f6c" d="M522.61 249.88c3.016 3.056-11.468 29.023-14.472 32.699-4.632-2.347 11.558-28.843 14.472-32.699m25.72-148.806c2.138-.063 12.774-.34 14.314 1.449-.49 1.486-17.081 4.584-19.602 5.179-4.902 1.784-8.901 4.045-13.554 6.34 7.539-7.403 8.762-9.176 18.842-12.968m127.978 48.264c-.65 5.627-1.721 2.923-3.767-.655q1.887.303 3.767.655"/><path fill="#f9f9f8" d="M556.757 0h76.267c-16.077 12.58-55.527 40.364-74.816 15.954-3.056-3.869-2.538-11.312-1.451-15.954m173.131 0h28.871c-2.696 9.868-7.773 19.9-19.795 20.58-9.743.552-9.001-13.911-9.076-20.58M528.877 161c23.097-1.259 6.877 15.426-1.143 22.806-15.491 14.255-27.664 29.575-31.391 50.459-4.633 1.647-7.493-.341-8.89-4.945-10.89-35.891 11.898-57.388 41.424-68.32"/><path fill="#4f5f6c" d="M516.048 179.055c1.113-.105 3.423-.859 3.828.408-.913 2.503-14.173 11.522-17.084 14.306-5.028 4.808-6.172 7.092-9.989 12.828-.352.709-.595 1.462-1.252 1.899-1.998-2.17 2.502-14.54 3.852-16.875 4.35-7.523 12.805-10.206 20.645-12.566"/><path fill="#f9f9f8" d="M624.183 132.844c8.846-.279 14.098 3.174 12.759 13.15-1.973 14.698-6.963 36.7-18.916 46.555-22.418-9.849-13.146-47.536 6.157-59.705m-77.989 120.619c18.295 4.813 22.253 28.512 12.997 42.801-16.866 6.04-11.353-15.64-14.081-26.768-1.489-6.073-2.29-11.026 1.084-16.033"/><path fill="#4f5f6c" d="M549.913 262.556c7.58 3.879 8.278 15.591 8.214 23.05-4.512-3.139-7.336-17.513-8.214-23.05"/><path fill="#93969b" d="M1134.55 543.885c10.62-1.938 24.95-.623 36.02-.679 5.98-.03-.75 2.038-2.84 2.411-.07-.276-.13-.551-.2-.827-1.39-1.276-28.92-.709-32.98-.905"/><metadata><recraft-signature>{&quot;signed_by&quot;: &quot;recraft&quot;, &quot;signature_b64&quot;: &quot;kFq/xEqbZJqeuiuT8Tx9oQZcb880C5I/TpBhgkZ84UfVkgQnOFuInstPD1+NfaQt/e9/5kispzBx7uW0+GNmBQ==&quot;, &quot;signing_algo&quot;: &quot;Ed25519&quot;, &quot;generation_timestamp&quot;: 1777252431, &quot;identifier&quot;: &quot;6c415a33-3971-4c5d-b171-1f44f997234e&quot;}</recraft-signature></metadata></svg>