<svg xmlns="http://www.w3.org/2000/svg" width="1024" height="1024" preserveAspectRatio="none" style="display:block" viewBox="0 0 2048 2048"><path fill="#fff" d="M0 0h2048v374.225c-14.17-9.002-29.87-27.058-40.94-40.396-.8-.963-4.2-9.289-4.9-11.001a530 530 0 0 1-15.77-6.7c-10.83-16.285-8.02-21.323-26-28.558-5.78-11.237-11.27-23.605-17.07-34.5-4.02-7.543-26.14-12.005-33.68-15.72-3.27-16.172-3.6-15.845-16.98-25.645 11.46-21.135-3.44-22.939-13.06-34.55-1.87-8.546-2.74-26.905-14.16-25.653-4.99 3.42-7.23 6.474-11.54 9.706-1.37 1.033-10.88 4.78-12.87 5.51-13.56 4.962-11.9 12.869-16.93 23.153-11.14 4.737-20.6 7.658-28.73 17.002-1.05 9.217-1.28 20.55-9.06 26.708-4.85 3.835-13.81 7.87-17.83 12.108-7.8 8.225-9.01 19.521-18.71 26.558-8.06 5.838-17.08 5.147-25.46 9.731-7.79 4.748-10.41 14.758-17.41 20.391-7.86 6.316-23.84 9.472-30.31 16.647-20.64 22.891-35.73 40.815-60.07 60.518-6.23-10.738-42.47-34.382-49.21-48.183-6-12.268-23.54-12.387-35.5-17.112l-.65-1.006c-6.98-10.994-7.5-20.076-18.92-26.819l-14.85.655c-10.79-11.174-10.84-9.928-25.03-16.407.19-2.601.92-10.82.23-12.913-4.32-13.19-15.09-27.669-26.34-35.381l-.97.656c-6.73 4.506-16.86 8.905-21.93 13.66-5.47 5.637-6.48 14.358-13.02 19.036-10.45 7.479-24.84 10.661-33.27 20.802-9.91 11.919-14.92 27.686-26.35 38.537-6.42 6.097-15.23 8.19-22.41 13.043-6.94 5.082-14.77 14.483-21.4 20.284-8.56 7.48-17.81 14.073-26.96 20.802-19.5-17.06-18.8-12.33-36.76-23.329-4.99-8.11-6.12-14.015-10.04-20.937-5.66-2.49-9.85-3.973-15.68-5.957-7.6-14.558-10.51-23.777-26.99-28.942-4.12-1.288-10.62-4.309-14.31-6.742a87.2 87.2 0 0 1-9.74-26.453c-1.33-6.879-1.58-20.66-9.96-21.461-13.56-1.296-13.51-3.365-16.1-16.673l-6.62-6.404c-7.42-29.109-1.33-19.301-23.15-41.848-1.8-13.625-3.48-15.419-16.18-21.985-6.29 4.813-10.58 8.129-17.36 12.274-6.36 3.884-19.73 9.788-24.35 14.172-9.72 9.228-13.27 23.53-24.53 32.226-7.44 5.741-22.35 4.512-27.63 9.727-11.98 11.845-15.815 26.232-29.635 38.059-12.48 10.681-22.035 8.722-33.948 16.873-8.992 6.822-11.664 20.924-20.686 27.465-11.975 8.682-25.89 14.41-38.319 22.592-21.295 14.018-41.46 30.606-62.634 44.646-15.347-14-30.205-25.021-44.644-37.892-5.589-18.497-2.013-22.986-21.924-30.585-5.006-7.725-12.958-21.212-23.365-22.62-12.375-1.486-21.323-2.144-29.185-13.342-5.786-8.24-.378-17.327-7.751-24.136-7.727-7.136-18.127-7.229-27.838-9.417-9.265-11.008-20.867-14.445-26.474-22.594-14.197-20.638-3.851-20.416-25.835-37.107-21.389 15.655-30.72 13.874-36.288 38.21-11.611 7.961-25.189 11.581-35.555 21.217-13.86 12.883-15.824 33.887-30.003 46.516-10.874 9.83-25.297 6.275-36.651 14.291-12.153 8.579-13.05 24.45-23.445 34.15-7.846 7.321-16.837 12.997-25.777 18.821-15.335 9.991-34.616 24.569-45.61 39.374-28.457-11.716-33.462-17.044-51.889-41.546-5.269-7.006-21.182-10.999-24.327-20.779-2.404-6.845-5.047-11.887-12.863-14.327-14.598-4.557-35.575-4.726-43.157-21.555-3.982-8.839-1.237-16.572-7.976-27.326-10.074-6.159-20.031-8.583-29.801-14.18a525 525 0 0 0-3.301-9.174c-3.149-8.418-13.88-18.647-19.273-26.158-10.889 9.086-24.644 17.533-33.177 28.767-5.83 7.675-7.485 19.542-14.928 26.375-8.177 7.756-19.153 8.791-26.59 17.178-7.309 8.241-8.387 20.535-16.192 28.13-7.225 7.032-21.86 3.432-29.396 11.504-6.535 6.999-11.701 16.658-17.508 24.375-12.406 16.486-27.876 28.707-44.595 40.5z"/><path fill="#3e5265" d="M815.318 366.491c21.174-14.04 41.339-30.628 62.634-44.646 12.429-8.182 26.344-13.91 38.319-22.592 9.022-6.541 11.694-20.643 20.686-27.465 11.913-8.151 21.468-6.192 33.948-16.873 13.82-11.827 17.655-26.214 29.635-38.059 5.28-5.215 20.19-3.986 27.63-9.727 11.26-8.696 14.81-22.998 24.53-32.226 4.62-4.384 17.99-10.288 24.35-14.172 6.78-4.145 11.07-7.461 17.36-12.274 12.7 6.566 14.38 8.36 16.18 21.985 21.82 22.547 15.73 12.739 23.15 41.848l6.62 6.404c2.59 13.308 2.54 15.377 16.1 16.673 8.38.801 8.63 14.582 9.96 21.461a87.2 87.2 0 0 0 9.74 26.453c3.69 2.433 10.19 5.454 14.31 6.742 16.48 5.165 19.39 14.384 26.99 28.942 5.83 1.984 10.02 3.467 15.68 5.957 3.92 6.922 5.05 12.827 10.04 20.937 17.96 10.999 17.26 6.269 36.76 23.329 9.15-6.729 18.4-13.322 26.96-20.802 6.63-5.801 14.46-15.202 21.4-20.284 7.18-4.853 15.99-6.946 22.41-13.043 11.43-10.851 16.44-26.618 26.35-38.537 8.43-10.141 22.82-13.323 33.27-20.802 6.54-4.678 7.55-13.399 13.02-19.036 5.07-4.755 15.2-9.154 21.93-13.66l.97-.656c11.25 7.712 22.02 22.191 26.34 35.381.69 2.093-.04 10.312-.23 12.913 14.19 6.479 14.24 5.233 25.03 16.407l14.85-.655c11.42 6.743 11.94 15.825 18.92 26.819l.65 1.006c11.96 4.725 29.5 4.844 35.5 17.112 6.74 13.801 42.98 37.445 49.21 48.183 24.34-19.703 39.43-37.627 60.07-60.518 6.47-7.175 22.45-10.331 30.31-16.647 7-5.633 9.62-15.643 17.41-20.391 8.38-4.584 17.4-3.893 25.46-9.731 9.7-7.037 10.91-18.333 18.71-26.558 4.02-4.238 12.98-8.273 17.83-12.108 7.78-6.158 8.01-17.491 9.06-26.708 8.13-9.344 17.59-12.265 28.73-17.002 5.03-10.284 3.37-18.191 16.93-23.153 1.99-.73 11.5-4.477 12.87-5.51 4.31-3.232 6.55-6.286 11.54-9.706 11.42-1.252 12.29 17.107 14.16 25.653 9.62 11.611 24.52 13.415 13.06 34.55 13.38 9.8 13.71 9.473 16.98 25.645 7.54 3.715 29.66 8.177 33.68 15.72 5.8 10.895 11.29 23.263 17.07 34.5 17.98 7.235 15.17 12.273 26 28.558a530 530 0 0 0 15.77 6.7c.7 1.712 4.1 10.038 4.9 11.001 11.07 13.338 26.77 31.394 40.94 40.396v10.728a48 48 0 0 1-4.47-2.179c-9.98-5.478-40.4-33.754-45.97-45.094-1.88-3.829-3.33-8.623-4.52-12.863a563 563 0 0 0-15.72-5.483l-10.5-17.874c-8.72-4.039-17.27-7.204-22.16-16.054-2.84-5.134-2.92-12.119-5.06-17.117-13.78-32.103-31.52-5.313-41.66-42.301-15.2-10.831-15.1-11.771-12.13-30.113-5.18-6.181-10.77-10.109-14.21-18.48-1.13-2.768-3.49-6.709-5.06-9.369-3.81 3.636-10.15 9.311-12.77 13.172-8.43 12.404-13.49 19.761-27.15 26.35-3.8 1.835-6.74 6.769-7.46 11.308-3.6 22.544 18.79 18.663 29.17 31.408 5.83 7.339 4.14 20.1 12.89 25.459 15.33 9.399 31.56 10.062 45.8 22.83 6.85 5.132 9.68 17.752 15.17 23.39 9.39 9.634 29.22 11.935 41.2 13.185l-.88 2.819c-12 2.458-33.44 5.217-44.4-2.032-10.63-8.364-13.2-16.789-24.49-25.636-11.08-8.688-38.02-8.273-45.74-13.669-27.15-18.961 2.47-26.96-41.37-30.953-21.4-22.039-29.29 3.81-37.9 22.228 2.4 28.094 3.43 30.28 31.58 33.435 14.65 11.326 20.72 23.458 41.39 21.205 10.79-1.176 26.7-6.551 35.92.308 6.7 4.98 10.04 20.221 16.34 24.068 12.93 7.891 38.24 8.481 53.69 10.895a242 242 0 0 1 22.27 4.634l-3.89 2c-10.72-.812-21.36-1.623-32.13-1.521-12.4.119-23.86 2.201-36.17.574-16.84-2.227-24.37-18.321-39.11-22.503-14.32-4.063-28.61 6.136-43.77-.213-11.15-4.674-14.21-16.385-25.15-19.741-10.48-3.038-23.55 1.117-31.48-8.352-5.79-6.906-7.2-14.12-17.31-15.42-16.67-2.142-22.82 9.569-30.64 21.486-1.32 2.016-6.45 6.504-8.49 8.368.92.475 5.26 2.797 5.57 3.244 4.16 6.018 17.62 19.18 20.33 24.461.58 7.161-2.49 14.92 2.24 17.898 22.1 13.952 37.7-5.792 48.48 27.078 13.36 6.822 22.11 8.894 36.47 12.778l-3.86 1.85c-18.29-1.181-40.59-.714-56.27-10.69-5.83-3.711-10.32-9.581-16.8-11.269-13.59-3.538-29.41.349-39.98-11.31-6.34-6.993-8.51-19.678-19.56-20.331-13.48-.797-28.22 9.086-39.5 15.705-2.32 10.851-4.33 14.048-10.16 23.552 6.57.49 14.38.249 18.98 5.032 1.67 4.585-1.89 9.455 1.62 12.473 8.71 7.482 9.8 1.68 14.68 14.375l.48 1.276c10.99 3.343 19.99 6.55 30.56 11.362 23.29 10.609 50.59 17.515 75.63 23.37l-4.03 3.308c-22.92-1.489-49.52-1.341-72.47-3.564-6.63-.643-12.39-11.063-17.92-14.087-6.59-4.518-22.67-5.108-28-8.639-17.96-11.889-19.37-24.982-45.38-21.656-22.85 2.922-34.83 25.558-57.88 28.441-21.09 2.542-35.55-9.573-54.18 6.891-7.01 6.196-24.79 27.819-31.67 28.018-18.54.537-38.06 6.615-55.89 9.72l-3.95-1.864c8.91-3.751 18.06-9.389 27.03-12.469 6.34-2.18 18.07-1.347 24.1-4.634 15.64-8.513 24.89-27.199 39.5-37.312 9.88-6.609 23.03-3.3 33.22-9.131 14.83-8.476 23.08-24.248 36.4-34.578 8.35-7.152 20.62-10.054 29.55-15.826 8.05-5.201 17.15-13.09 24.8-19.149-7.28-3.856-18.08-8.565-23.4-14.546-9.43-10.589-15.09-16.047-26.67-24.073-9.09-23.542-18.9-8.57-41.1-22.382-3.03-4.63-4.55-9.161-6.57-13.971-.86-2.033-4.07-8.503-5.48-8.896-8.99-2.523-18.69-4.321-26.98-7.772-25.49-10.613-15.15-11.547-21.35-32.765.43 1.466-11.12-19.041-13.44-24.576-5.65 6.687-11.99 15.168-17.62 22.174.7 5.047.58 7.455.46 12.509 2.37 3.076 4.46 6.473 6.57 9.747-5.36 27.421 6.7 14.887 14.55 22.268 17.39 16.356 18.61 18.456 40.66 26.931l-2.03 1.383c-9.71-3.218-18.06-3.267-28.27-3.664-6.07-3.632-10.18-8.278-15.16-13.292-5.68-.644-24.16-2.449-25.51-7.455-4.3-16.006-7.03-19.464-24.69-11.138-2.51 1.18-3.99 2.601-4.79 5.998 4.25 6.516 7.15 7.812 6.59 16.604-.52 8.111 6.66 15.527 12.25 20.656 22.36 1.218 24.33 5.11 42.53 10.835 12.14 3.819 25.3-16.071 39.64 5.83 5.31 1.972 8.91 3.492 14.53 4.553-2.7.288-5.16.659-7.84 1.078-3.53-.774-6.16-1.265-8.38-4.27-8.19-11.053-20.52-5.46-31.53-2.219-9.71 2.86-17.91-1.487-26.47-6.299-7.75.402-32.29 5.637-36.84-.229-10.61-13.68-14.13-23.081-33.21-13.496-1.7 2.477-1.28 1.096-.93 4.373 5.46 4.405 8.87 3.326 10.37 13.612.43 2.992-1.25 11.241-1.85 14.559 12.11 5.131 17.55 6.575 28.33 14.608 23.46 1.363 30.02 5.214 50.37 17.264l-3.12 1.981c-28.31-9.266-27.68-6.123-55.37-2.565-8.87-4.113-11.98-8.746-19.91-13.876-5.18-3.354-17.98-1.172-23.02-2.928-7.82-2.724-16.44-10.522-23.3.467-.58 8.516 9.72 11.727 15.49 17.352 1.28 4.314 2.63 8.573 3.58 12.966 12.07 11.826 41.22 32.841 56.11 44.111l-1.06 2.526c-22.69-10.668-48.36-20.571-69.12-34.928-23.15-16.009-44.99-36.81-67.29-54.192-7.47-5.826-20.14-8.284-27.13-14.699-4.08-3.75-4.78-12.211-8.26-16.987-3.75-5.148-10.63-5.019-15.5-8.753-5.51-4.218-9.28-16.326-14.62-20.508-12.19-9.543-21.41-5.536-32.19-19.652-12.09-15.846-4.36-24.435-10.61-38.81-1.67-3.84-9.98-3.78-14.31-4.118-7.78-9.016-19.49-21.863-21.6-32.835l-2.19-11.305c-5.47-5.104-12.51-10.557-14.73-17.413-1.36-4.167-2.8-8.47-5.77-11.553-1.57-.602-2.62-1.422-3.76-.723-8.42 5.15-19.6 22.351-22.72 31.385-6.6 19.118-2.22 15.65 5.39 31.138-.39 6.872-4.37 17.106-.93 23.096 7.98 15.977 35.6 10.025 44.25 22.516 11.03 15.941 3.86 17.227 25.13 21.819-1.35.768-2.56 1.534-3.87 2.354-7.48-.174-15.71.475-21.5-5.587-2.87-3.011-2.83-9.333-4.9-11.997-12.01-15.437-35.58 3.174-47.89-11.762-3.07-3.734-4.27-11.012-7.29-15.011-9.44-9.347-15.8-1.221-15.6-17.305-4.13-5.397-14.73-2.789-17.65 1.756-2.98 4.632-14.4 13.134-16.01 16.659 1.35 3.576 7.52 4.086 8.45 6.183 3.18 7.17 2.33 8.405 7.3 15.074l-.07 13.761c5.74 7.356 8.57 9.139 18.13 10.333 10.21 1.275 28.8.233 35.64 9.695 5.26 7.284 5.09 16.959 17.11 18.448 13.42 1.663 28.84-2.317 42.27-.112 10.84 1.781 22.99 12.6 32.88 17.83 8.31 4.391 14.85 7.247 23.77 10.415l-3.75 1.816c-8.65-2.103-20.05-4.411-27.86-8.256-8.04-3.958-15.21-12.711-24.62-14.209-13.03-2.073-27.08.802-40.18 1.488-7.62.4-16.06.442-20.3-6.984-5.2-9.117-4.52-13.697-14.76-17.36-16.62-5.944-42.64 13.228-52.34-4.034-2.9-5.16-3.2-7.075-7.87-11.564-7.487-2.31-10.845-2.193-18.517-3.002-3.614-4.481-6.204-8.728-12.204-8.992-15.687-.693-25.008 12.582-5.969 20.678-4.696 13.26 3.315 15.598 3.3 31.172 7.275 10.511 9.124 14.863 23.316 16.536 22.814 2.689 22.244 7.002 38.324 20.225 13.4 9.416 28.31 1.01 43.22 4.896 10.76 2.802 20.4 21.347 28.23 23.985 24.99 8.42 41.69 5.435 65.98 19.039l-2.27 1.301c-14.17-3.048-28.61-3.869-43.08-3.101-8.36.444-17.56 2.084-25.85.701-32.21-5.372-5.91-31.783-68.74-18.403-20.5-8.23-12.12-21.091-27.8-26.331-4.963-1.659-25.769-1.558-33.56-2.522-11.578-7.898-12.867-11.514-17.372-24.479a743 743 0 0 1-12.036-7.441c-1.346-3.914-3.981-12.974-7.512-14.659-6.115-2.919-14.729-1.245-17.534 5.306-.301 8.699 5.506 11.171 11.97 15.511l-.056 16.722c3.62 2.877 7.167 5.006 9.03 9.079-.421 5.875-6.436 8.638-4.224 13.785 3.811 8.871 9.302 13.456 13.279 22.918 21.51 7.465 26.627 8.147 46.803 19.122-15.549-4.289-71.745-15.06-82.058-2.213l-.388 2.061c5.614 7.202 19.955 15.838 27.199 22.566 5.466 5.076 7.777 14.355 11.867 19.184 4.068 4.803 14.261 11.387 19.206 15.664 12.615 10.911 29.043 25.408 44.536 31.986l-.44 1.51c-28.058-10.981-49.893-21.396-74.053-39.894-10.167-7.785-20.32-17.291-30.625-24.644-9.831-7.015-20.28-10.325-29.078-19.877-13.021-13.246-19.906-36.144-34.952-47.161-17.6-12.887-39.814-22.69-57.684-35.886-5.689-4.2-11.916-7.248-16.995-12.247-7.025-6.914-7.242-16.756-12.656-24.657-9.93-9.663-25.958-25.413-36.421-33.776-5.657-.26-14.818-.313-20.157-1.385-24.718-4.965-9.559-25.039-29.228-36.385-15.348-8.852-19.475-1.115-35.96-11.828-6.783-21.739-15.94-23.216-26.153-44.72l-.789.556c-11.985 8.69-11.487 12.836-14.505 26.993-21.454 16.412-9.36 15.67-1.932 33.501l.596 1.451 8.981 3.582c9.605 36.917 29.122 2.839 49.73 33.27 11.488 16.963 31.524 18.237 49.694 18.752 4.835.137 13.271 2.315 18.369 3.453-17.437 1.451-37.502 1.537-55.224 2.51-21.032 1.155-28.673-32.649-44.224-27.986-17.34 5.199-16.018 12.046-29.833-7.738-7.437-2.723-6.099-1.871-10.41-8.241-2.656-3.924-6.903-7.002-11.818-7.496-6.592 1.726-13.239 10.566-12.571 17.154 1.988 3.697 5.627 4.253 9.804 7.157 2.717 7.664 7.872 13.899 9.273 17.451 7.634 24.606 20.905 32.175 46.522 29.925 23.628-2.075 26.888 16.378 48.142 17.743 14.888.956 32.966-7.838 48.05-2.795 10.744 3.593 16.257 13.405 27.039 18.672q-.57 1.597-1.194 3.175l-2.165.436c-13.911-2.046-16-13.07-29.387-15.92-25.62-5.454-53.441 20.277-75.654 5.227-3.584-2.429-7.178-7.19-10.307-10.16l-1.375-.288a113.7 113.7 0 0 0-21.69-2.077c-14.262.039-23.488 2.751-34.392-8.935-4.231-4.534-6.82-9.708-10.716-14.094-14.466-4.078-10.951-4.557-20.608-14.312-6.343-6.408-36.941-.821-37.771 11.141-.375 5.406 5.837 13.059 8.735 17.391-.653 5.021-1.336 9.715-1.578 14.785 6.58 3.031 23.155 6.461 23.67 12.504 2.75 32.31 38.732 14.645 61.39 23.963 17.23 7.086 31.978 29.28 51.061 34.006 20.289 3.161 36.635-2.527 58.512 4.852-4.3 2.971-4.806.301-9.976 1.732-5.18-.072-10.218-.033-15.385.368-25.782 2.003-61.123 16.29-78.015-12.172-6.36-10.717-13.876-18.951-27.083-19.684-17.848-.715-29.446 10.749-47.571 3.476-16.759-6.724-13.287-17.591-23.869-28.119-5.882-5.851-19.027-3.715-27.017-2.879-6.801-3.662-13.928-8.116-19.827-.351-8.378 11.026 14.309 20.872 17.766 29.206 3.727 8.984-9.897 13.845-8.528 22.164 1.214 7.964 22.178 14.368 30.111 20.472 13.137 10.107 14.465 17.614 24.107 28.433 7.019 7.875 23.226 17.87 32.474 23.828-12.513-3.954-31.867-9.752-40.485-18.776-14.82-15.519-23.647-20.469-44.903-24.201-2.592-.455-9.553-3.333-11.549-5.351-13.896-14.045-22.222-33.052-38.67-45.126-21.656-15.769-52.139-15.507-73.783-33.3-4.937-2.831-12.452-16.336-16.398-18.908-16.809-10.957-24.22-11.274-31.722-31.553-4.794-8.685-22.013-7.343-29.619-9.149-26.347-6.255-25.887-30.886-36.071-49.991-2.435-4.569-16.549-5.852-20.919-10.081-6.335-6.129-10.131-14.061-15.042-21.487-4.824 5.032-10.336 11.83-14.954 17.232 5.075 9.784 4.052 16.981 7.361 28.084 24.673 4.393 12.933 11.133 26.348 17.128-2.667 1.129-3.635 1.382-6.379 2.11l-11.217-10.806c-6.896.239-17.826 1.604-23.115-2.081-2.717-4.742-3.318-10.432-5.809-12.218-1.744.605-3.958 1.478-4.565 3.499-2.458 8.185-3.121 10.301-8.772 17.248 10.336 10.607 11.13 12.15 16.828 25.873l1.29.103c7.144.517 14.215-.624 20.349.243 5.637.796 14.091 13.048 19.137 15.358 12.198 5.586 22.166 6.36 33.956 14.049-15.082-4.997-21.809-4.917-37.391-7.445-5.133-.833-9.745-6.873-13.305-9.337-8.763-6.067-25.775-2.842-36.685-3.363-6.46-6.355-9.26-11.972-19.105-11.613-31.72 1.064.139 21.523 5.636 32.099 2.401 4.619-.028 14.506 1.578 18.229 5.906 13.701 28.879 2.399 38.763 11.326 6.411 5.792 10.141 11.082 15.789 16.562 17.787 4.141 30.231 3.392 48.851 9.077l-2.134 2.042c-6.695-.713-11.17-.995-18.364-.981-10.359.02-30.746 7.948-38.766-.188-4.976-5.047-6.928-13.606-16.022-13.935-13.258-2.947-35.548 5.455-43.443-4.58-6.83-8.68-7.078-16.83-10.088-25.928-7.458-6.833-10.31-8.435-20.653-8.658-7.323-.158-22.971 4.546-20.457 14.372 3.596 14.057 18.092 7.302 10.865 27.625 10.857 10.56 9.634 9.897 14.646 22.913 16.108 3.216 18.07 6.289 30.828 17.099-17.875-7.538-18.673-8.386-38.27-8.396-7.14-4.619-11.1-10.436-17.34-15.911-7.095-6.227-27.172-9.909-33.642-1.985-1.372 8.714 7.98 16.312 13.62 22.108 5.483 5.635 5.351 9.199 6.886 16.497 12.559 10.297 30.48 23.793 43.765 33.136-8.711-2.797-33.92-10.184-40.973-13.454C40.504 452.989 27.896 432.29 0 442.62v-59.459c16.719-11.793 32.189-24.014 44.595-40.5 5.807-7.717 10.973-17.376 17.508-24.375 7.537-8.072 22.171-4.472 29.396-11.504 7.805-7.595 8.883-19.889 16.192-28.13 7.437-8.387 18.413-9.422 26.59-17.178 7.443-6.833 9.098-18.7 14.928-26.375 8.533-11.234 22.288-19.681 33.177-28.767 5.393 7.511 16.124 17.74 19.273 26.158a525 525 0 0 1 3.301 9.174c9.77 5.597 19.727 8.021 29.801 14.18 6.739 10.754 3.994 18.487 7.976 27.326 7.582 16.829 28.559 16.998 43.157 21.555 7.816 2.44 10.459 7.482 12.863 14.327 3.145 9.78 19.058 13.773 24.327 20.779 18.427 24.502 23.432 29.83 51.889 41.546 10.994-14.805 30.275-29.383 45.61-39.374 8.94-5.824 17.931-11.5 25.777-18.821 10.395-9.7 11.292-25.571 23.445-34.15 11.354-8.016 25.777-4.461 36.651-14.291 14.179-12.629 16.143-33.633 30.003-46.516 10.366-9.636 23.944-13.256 35.555-21.217 5.568-24.336 14.899-22.555 36.288-38.21 21.984 16.691 11.638 16.469 25.835 37.107 5.607 8.149 17.209 11.586 26.474 22.594 9.711 2.188 20.111 2.281 27.838 9.417 7.373 6.809 1.965 15.896 7.751 24.136 7.862 11.198 16.81 11.856 29.185 13.342 10.407 1.408 18.359 14.895 23.365 22.62 19.911 7.599 16.335 12.088 21.924 30.585 14.439 12.871 29.297 23.892 44.644 37.892"/><path fill="#c97d32" d="M708.778 1277.4c38.559-14.91 70.127.25 108.249 8.49 19.749 4.27 36.874 7.29 57.267 7.43 20.741.28 41.41-2.5 61.342-8.24 10.58-3.06 28.072-9.03 38.445-10.59 15.116-2.28 35.869-.68 51.499-.74 9.72-.04 19.47-.86 28.9-1.16 8.41-.27 24.1 6.2 33.12 8.4 25.82 6.29 50.28 10.15 76.93 8.72 36.83-1.97 65.92-20.9 102.82-20.41 26.94.37 50.86 5.31 76.62 12.13 18.96 5.03 38.64 10.68 58.3 10.86 36.5-.54 65.11-19.99 101.86-22.02 44.64-2.48 78.24 20.84 121.11 22.82 24.54 1.14 49.07-8.79 72.51-14.32 12.22-2.88 25.24-3.95 37.79-3.93 12.31-.06 25.85.96 37.82 3.94 25.08 6.24 46.69 16.21 73.21 14.25 28.97-2.13 50.42-19.09 80.68-18.17 15.53.47 26.21 2.93 40.81 8.69 30.72 12.11 48.48 11.57 79.94 4.32v31.77c-26.61 7.88-53.69 7.66-79.26-2.72-12.67-5.14-30.67-11.56-44.39-10.37-32.42 2.84-46.04 18.32-82.01 19.08-43.17.92-69.01-16.95-110.48-17.65-29.92-.5-53.98 9.22-82.21 15.72-13 3-33.56 3.03-46.93 1.92-11.79-.93-23.46-3.04-34.83-6.3-20.18-5.92-42.02-15.72-63.38-15.81-20.41-.09-42.86 9.79-62.4 15.37-16.64 4.75-32.23 7.22-49.56 6.19-42.39-2.51-85.02-23.84-127.93-23.32-46.65.56-72.95 23.25-122.75 22.23-48.51-1-77.56-22.65-122.85-23.22-48.304-.61-82.057 23.65-132.004 24.35a284.8 284.8 0 0 1-60.412-5.3c-66.731-12.89-70.217-21.45-137.594 2.2 7.962-15.72 12.904-28.45 19.768-44.61M0 1282.59c27.998 7.07 63.214 12.23 91.75 5.95 30.378-6.69 46.164-12.44 78.541-12.24 11.489.02 22.955 1.06 34.263 3.09 48.285 8.69 44.705 9.13 92.698-2.55a185.8 185.8 0 0 1 100.071 3.94c-8.572 15.04-11.308 21.52-14.757 38.35-32.344-8.38-57.325-14.7-90.718-6.45-8.632 2.13-31.861 6.92-40.261 6.02-31.378-3.34-59.225-13.64-91.699-9.72-19.005 2.3-35.462 7.55-53.709 13.17-33.107 8.03-73.492 4.03-106.179-3.69zm1179.37-144.62c64.09-33.48 104.87 5.23 166.67 1.93 38.68-2.06 79.32-24.87 119.32-22.83 49.13 2.5 77.31 28.33 128.43 25.84 42.13-2.06 75.25-26.71 112.81-25.66 39.84 1.11 70.04 29.06 114.41 27.99 44.31-1.07 70.71-26.73 110.83-27.38 49.41-.79 65.46 30.32 116.16 12.12v7.56c-51.74 20.28-75.4-12.67-123.23-9.13-39.63 2.93-70.22 27.13-115.79 24.49-42.8-2.48-67.28-24.04-108.6-23.1-23.31.54-42.49 8.75-64.62 14.61-18.8 4.82-38.23 6.71-57.61 5.61-40.33-1.99-77.38-25.56-110.95-24.66-45.79 1.23-77.55 27.67-129.61 26.67-68.55-1.32-89.04-36.68-157.27-12.66zm-40.5 94.65c11.08-3.48 21.99-7.48 32.69-11.99 14.84-6.34 29.49-14.05 45.21-17.52 57.93-12.78 89.11 26.84 145.53 26.73 43.74-.09 69.24-24.1 109.1-24.72 39.88-.61 72.6 21.47 114.65 23.23 47.72 1.99 68.84-22.49 113.43-25.21 39.8-2.42 68.38 24.35 109.74 26.17 43.18 3.66 79.2-28.91 120.57-33.15 45.42-4.65 70.46 14.71 118.21 4.13v15.4c-46.28 11.73-69.43-14.66-111.09-12.58-43.98 2.19-75.7 33.9-123.64 35.09-44.98 1.12-67.68-20.69-108.14-23.54-38.98-2.75-65.06 22.36-107.03 22.73-46.33.41-70.96-19.18-115.34-23.63-45.95-4.61-70.85 20.53-115.27 23.29-53.11 3.29-86.68-31.5-138.3-26.82-22.1 2.01-40.48 11.01-61.39 17.58-9.81 3.09-18.02 4.25-27.57 6.77z"/><path fill="#c97d32" d="M1093.49 1252c19.44 3.56 28.55 10.8 52.26 12.69 45.84 3.66 75.59-27.99 117.63-28.68 41.23-.67 83.71 31.2 126.63 30.92 33.64-.22 57.65-16.11 92.39-19.71 46.9-4.85 77.5 15.04 118.82 20.7 11.18 1.53 22.5 1.82 33.75.85 37.67-3.14 65.35-23.48 100.74-24.4 24.62-.64 51.83 19.23 78.13 20.63 32.99 1.76 57.83-18.26 90.62-19.14 59.78-.92 80.99 34.59 143.54 9.46v8.32c-58.26 21.99-82.13-9.78-137.39-11.13-34.58-.85-57.86 18.25-91.17 22.17-29.27 5.36-59.99-20.88-87.23-19.28-37.61 2.19-67.54 21.4-107.73 20.9-42.58-.53-74.27-18.46-115.93-22.73-42.81-4.39-76.84 20.94-118.67 22.67-48.94 2.37-89.54-34.91-139.02-30.7-26.28 2.24-48.48 15.91-74.06 21.38-27.61 5.9-59.63.66-83.31-14.92M0 1091.91c47.157-21.61 63.314-7.18 107.702 6.16 38.803 11.67 80.53-23.22 119.157-21.9 38.048.12 57.971 20.49 97.655 21.16 34.194 2.11 61.658-23.84 95.892-19.25 13.143 1.77 26.862 6.38 38.832 11.44 41.204 17.41 86.121 15.25 127.171-1.4 4.774-1.94 10.953-4.18 16.011-5.66-6.976 5.59-14.845 12.46-22.672 17.02-22.721 13.24-48.285 15.42-73.835 13.69-33.061-2.24-59.678-22.11-91.095-26.11-28.168-3.6-55.421 17.49-83.771 17.03-39.4 1.8-61.868-18.03-96.37-20.66-28.579-2.19-61.844 24.87-94.428 27.09-62.442 4.27-74.923-40-140.249-5.14zm1513.99 5.35c22.5 6.11 35.8 15.55 61.95 19.2 56.15 7.85 85.16-31.97 141.37-28.44 46.63 2.93 77.77 32.21 123.56 28.76 39.35-2.97 73.81-33.4 109.98-33.53 40.76-.15 51.35 19.63 97.15 15.01v7.3c-46.23 5.9-54.5-12.29-93.01-12.41-38.81-.11-72.15 31.58-117.3 35.05-56.57 4.34-81.71-30.7-134.96-27.33-28.2 1.78-52.22 16.66-78.88 22.27-43.14 9.09-74.28-3.06-109.86-25.88m-23.8 76.98 1.27.11c30.99 2.84 65.68 22.41 92.88 20.54 45.88-3.15 78.71-34.7 129.69-33.53 44.35 1.02 66.44 22.41 110.65 19.57 32.09-2.07 71.18-26.6 98.51-25.45 48.41 2.02 70.37 27.59 124.81 19.72v10.61c-61.55 15.31-78.99-20.42-130.67-22.94-19.15-.93-62.29 22.76-88.19 25.33-44.9 4.44-69.19-16.76-111.8-18.98-53.61-2.3-99.88 44.36-148.66 36.61-24.8-3.94-53.21-21.59-82.21-29.16zM0 1195a150.8 150.8 0 0 1 42.85.23c17.976 2.67 41.517 9.42 59.4 6.57 39.104-6.24 59.819-33.3 101.937-40.61 48.965-8.5 74.973 16.81 120.961 16.99 39.98.16 68.665-28.32 106.74-33.91 28.635-4.21 52.072 10.16 77.167 10.87-5.747 4.36-14.239 11.21-20.121 14.9-30.659-13.28-52.237-20-85.513-7.33-16.917 6.44-36.035 18.13-53.23 21.84-58.724 12.64-89.325-27.41-150.876-15.76-44.674 8.45-70.321 42.09-109.027 44.33-28.75 1.66-53.951-15.89-90.288-12.5z"/><path fill="#c97d32" d="M0 1116.64c57.81-18.86 64.745 12.78 116.447 14.39 29.709.92 59.844-19.45 93.046-18.07 42.933 1.79 72.784 26.16 116.28 22.94 32.713-2.42 59.153-23.24 91.506-22.62 28.358.54 52.669 16.9 80.284 20.19 14.142 1.69 26.805-.19 40.784-2.02-10.496 6.46-18.29 10-30.861 10.29-31.646.72-58.532-20.15-90.13-20.87-34.471-.78-64.013 22.68-98.513 22.56-37.446.35-62.685-18.16-99.35-22.01-37.323-3.93-64.011 16.82-98.172 17.52a107.5 107.5 0 0 1-35.33-5.28c-20.862-7.03-33.464-17-56.932-14.29-11.868 1.38-17.723 3.75-29.059 7.35zm0 112.3c17.98 5.59 55.455 10.94 71.878 2.87 30.211-14.85 39.56-2.1 68.365-6.03 19.419-2.66 45.136-18.24 67.278-16.16 41.572 2.17 79.264 25.89 123.255 20.99 12.227-1.36 27.856-5.53 38.907-10.99 24.286-12 55.64-33.13 83.968-18.18l.081 1.05c-5.971 1.62-12.699.5-18.916.76-5.923.33-13.918 1.51-19.441 3.66-28.621 11.14-47.557 26.74-79.008 30.64-45.896 5.68-81.584-18.17-125.549-20.88-23.918-1.47-47.144 14.95-69.35 20.79-13.837 3.82-26.967-2.06-40.247-1.59-9.641.35-22.978 4.53-32.815 6.6-20.365 4.28-49.331 2.18-68.406-6.14zm0 37.51c37.097 6.76 58.883 9.21 95.812-2.77 14.266-4.64 37.117-10.23 51.595-10.63 35.111-.97 56.885 15.12 94.083 16.26 53.585 1.65 88.789-30.07 142.547-11.74 5.964 2.04 15.16 4.28 20.353 7.45l.379 1.56c-3.165 2.91-13.087-1.53-17.281-3.06-51.366-18.73-92.738 12.47-143.413 10.8-32.076-1.06-61.284-16.33-93.235-16.25-13.171-.05-35.556 5.29-48.151 9.51-38.89 13.02-62.973 12.11-102.689 3.89z"/><path fill="#c97d32" d="M0 1142.97c47.457-7.89 55.084 16.38 98.783 17.26 43.103.86 64.932-28.48 112.057-15.84l-3.992 2.02c-49.755-3.05-58.146 20.44-101.618 22.96-41.537 2.4-61.915-27.48-105.23-18.52z"/><path fill="#5c6069" d="M1770.57 487.962c4.91 1.42 9.93 2.382 14.91 3.537-7.22.539-11.55.648-18.94-.229z"/><path fill="#a1a8b1" d="M740.652 368.771c2.217.693 3.909 1.09 6.156 1.614 14.021 2.179-5.174 2.713-9.515 1.997l2.165-.436q.623-1.578 1.194-3.175"/><path fill="#5c6069" d="M740.652 368.771c2.217.693 3.909 1.09 6.156 1.614-.606 2.642-4.932 1.575-7.35 1.561q.623-1.578 1.194-3.175"/><path fill="#6f7078" d="M697.183 430.465c4.163.966 8.119 2.648 12.11 4.157-2.861-.314-21.037-1.93-22.086-2.425 5.17-1.431 5.676 1.239 9.976-1.732"/><path fill="#c8864e" d="M1475.71 1172.54c5.77.54 8.79.73 14.48 1.7l-3.72 2.43c-5.15-.93-7.81-1.58-13.18-2.3z"/><path fill="#6f7078" d="M1194.75 359.616c4.61 1.096 11.17 3.78 15.71 5.48-6.6-1.149-12.91-2.431-19.46-3.664z"/><path fill="#5c6069" d="M203.964 291.46c1.665.115 4.8 1.111 5.602 2.015 1.874 2.11-10.909.279-11.981.095 2.744-.728 3.712-.981 6.379-2.11"/><path fill="#8b8c90" d="M239.798 400.373c4.919 1.185 8.052 2.677 12.684 4.439-4.082-.64-10.91-1.571-14.818-2.397z"/><path fill="#6f7078" d="M1969.8 382.43c2.67.561 4.44.688 7.1 1.505l-.01 1.301c-3.81-.23-7.16-.371-10.98-.806z"/><path fill="#c8864e" d="M210.84 1144.39c2.429.58 4.408.91 6.867 1.56l-3.35 1.56c-2.62-.5-4.887-.71-7.509-1.1z"/><path fill="#6f7078" d="M1814.75 432.567c2.19.419 4.77.254 6.1 1.961l.4-.344.25.286c-.59 1.202-9.36.11-10.61-.053zm148.64-97.439c3.39-.266 4.03-.149 7.36.399-.52.255-.6.426-1.02.872-2.48.492-4.76.964-7.22 1.548z"/><path fill="#5c6069" d="M1450.54 395.37c2.19 1.57 2.88 1.975 5.23 3.21-.04.626-.07 1.252-.1 1.877-2.98-1.41-5.1-2.158-8.25-3.106z"/><path fill="#6f7078" d="M1401 452.878c1.33.816 5.81 3.374 6.35 4.56-.54 1.265-6.31-1.653-7.41-2.034z"/><path fill="#8b8c90" d="M1508.52 356.389c1.41-.131 1.68-.211 2.98.133l.37.672.63.052c-1.68 1.547-9.46.571-11.82.221 2.68-.419 5.14-.79 7.84-1.078m-339.77 68.661c1.66.762 3.38 1.479 4.95 2.425l-.56.616.32-.715 1.14.962c-.44 1.169-7.23-1.717-8.12-1.987z"/><path fill="#d9b184" d="m1138.87 1232.62 1.36 1.96c-1.18.19-5.86 1.15-6.76.11.13-1.48 4.46-1.94 5.4-2.07"/><path fill="#6f7078" d="M1394.63 516.1c1.85-.73 2.67-1.073 4.57-1.57l3.95 1.864c-2.47.357-4.93.766-7.39 1.226z"/><path fill="#e1cdbc" d="M1473.29 1174.37c-7.36-.64-3.22-3.38 2.42-1.83z"/><path fill="#c1c5cb" d="M1143.98 298.882c.84.059 5.69.141 6.21.651l-.21-.019c-1.89 1.108-7.62 1.578-9.87 1.722 1.31-.82 2.52-1.586 3.87-2.354"/><path fill="#8b8c90" d="m1493.43 326.079 1.49.614c1.15.429 2.5.819 3.28 1.818-.26 1.207-6.14-.878-6.8-1.049z"/><path fill="#c8864e" d="M1174.21 1140.11c1.77-.78 3.34-1.45 5.16-2.14l.95 1.4c-1.68.79-2.4 1.2-3.99 2.15z"/><path fill="#e1cdbc" d="M1176.33 1141.52c-.39.14-5.14 2.12-5.21.69l.07-.06.05-.61c1.07-1 1.64-1.13 2.97-1.43zm-958.623 4.43c1.666.47 1.203.24 2.638 1.11l.123.32c-.672 1.18-5.248.26-6.111.13z"/><path fill="#c1c5cb" d="m1976.9 383.935 1.55.054c1.27.005 2.36.141 2.89 1.345-.56 1.287-3.75.091-4.45-.098z"/><path fill="#a1a8b1" d="m1010.16 521.807 1.69.84c4.19 3.476.62 2.048-2.13.67z"/><path fill="#c1c5cb" d="M1455.77 398.58c1.14.367 2.14.61 2.34 1.933-.47 1.271-1.67.377-2.44-.056.03-.625.06-1.251.1-1.877m-60.01 119.04c-.41.081-3.17.873-3.29-.215.3-.693 1.57-1.049 2.16-1.305z"/><path fill="#a1a8b1" d="M1970.75 335.527c.52.092 1.06.053 1.43.413l-.01.173c-.86.509-1.4.343-2.44.286.42-.446.5-.617 1.02-.872"/><path fill="#3e5265" d="M1102.91 940.171a50.5 50.5 0 0 1-2.05 6.912 32.35 32.35 0 0 1-18.18 18.387c-12.84 5.144-29.66 3.558-41.96-2.336a52.07 52.07 0 0 1-26.5-30.193c-11.82-34.422 15.31-68.139 47.13-77.616 28.86-8.597 56.05-3.577 82.73 9.909 21.88 11.053 39.16 29.248 46.41 52.772 14.79 49.843.32 88.904-40.93 119.724-65.14 48.68-142.26 35.32-217.699 39.3-28.969 1.53-59.106 5.9-86.838 14.28-53.566 15.93-114.237 52.81-141.169 103.31 4.874 2.2 10.168 4.97 15.003 7.38 49.01-92.87 151.983-116.51 248.701-118.32 81.842-1.54 151.582 7.48 211.592-62.68-.52 5.5-.71 11.02-.57 16.53.61 25.58 6.65 42.01 25.13 59.43-79.69 31.41-47.41 118.38-120.21 151.23-47.23 22.29-162.923 26.82-192.933-26.13-28.368-50.04-64.845-75.54-123.058-48.03-39.35 18.59-57.926 60.69-70.569 100.54-13.821-22.72-39.991-89.67-17.359-111.3 78.224-74.75 195.124-96.54 299.287-103.52-3.724-2.42-6.245-1.47-11.408-1.85-87.264 3.81-200.582 26.15-272.857 78.66l-.877-1.78c28.842-35 43.402-83.05 47.454-127.77 3.334-36.808 1.875-63.467 18.06-97.871 15.054 108.321 145.148 124.121 232.954 129.331 55.356 3.29 128.256-7.19 151.566-65.965 7.31-18.433 8.15-41.722.22-60.058a52.47 52.47 0 0 0-30.08-28.502c-11.06-4.108-23.32-4.444-34.08.761a36.63 36.63 0 0 0-18.86 21.182 32.62 32.62 0 0 0 2 25.247c8.7 16.995 24.82 17.385 39.95 9.036"/><path fill="#c1c5cb" d="M967.46 1057.9c5.706-1.08 47.11-2.9 49.96-1.02-.02.09-.04.19-.07.28-.77.39-35.344 2.77-38.482 2.59-3.724-2.42-6.245-1.47-11.408-1.85"/><path fill="#fff" d="M1027.44 1090.02c40.43-1.32 98.92 27.57 96.42 75-1.88 35.9-39.21 68.76-72.62 76.36-14.73 3.35-30.8 3.53-45.88 3.73-37.812.87-72.492 3.79-100.087-27.45-14.945-16.92-16.075-27.93-15.156-49.62 4.8-40.83 23.117-61.17 62.662-72.46-2.156 15.72-1.77 32.38-1.75 48.31-2.36 2.67-5.141 5.38-7.648 7.94 3.865 1.05 7.877 2.35 11.722 3.52 8.518 17.13 11.201 32.28 28.342 44.53 8.313 5.95 42.265 20.21 48.425 11.17-.13-1.66.24-3.58-1.76-4.35-59.295-22.82-58.88-91.08-2.67-116.68"/><path fill="#c3312f" d="M918.713 1137.58c1.196.85 1.925 1.39 2.608 2.77 6.134 12.42 18.496 31.58 14.324 45.56a19.63 19.63 0 0 1-10.045 12.1c-.277.12-.554.25-.83.37l-1.652.78c-35.395-1.09-11.55-45.43-4.405-61.58"/><path fill="#fff" d="M867.752 1120.47c4.108-1.91 8.988-.22 11.046 3.81 2.059 4.03.559 8.97-3.395 11.18a8.42 8.42 0 0 1-8.601-.23 8.41 8.41 0 0 1-3.911-7.66 8.42 8.42 0 0 1 4.861-7.1m269.358-33.08a8.136 8.136 0 0 1 9.01 6.86c.66 4.34-2.24 8.43-6.56 9.23-2.92.54-5.9-.55-7.79-2.85a8.12 8.12 0 0 1-1.24-8.2 8.14 8.14 0 0 1 6.58-5.04"/><path fill="#3e5265" d="M725.938 866.392c-5.716-.856-10.926-1.826-16.622-3.176-28.448-6.742-51.793-36.098-43.034-65.92 4.438-15.11 21.343-25.739 35.115-32.412-19.07 31.853-10.282 60.336 28.643 67.157 35.799 6.532 59.201-13.102 90.66-26.952 67.573-29.748 188.77-14.604 185.32 80.785-.36 9.985-4.09 19.785-3.72 30.638a62.77 62.77 0 0 0 19.54 43.051 64.98 64.98 0 0 0 46.7 17.267c12.12-.465 24.04-4.653 32.18-13.951a38.7 38.7 0 0 0 9.37-29.232c-1.39-14.052-8.46-21.471-18.59-29.682 4.53 8.897 25.18 28.068-.36 36.523-10.01 3.313-21.53-10.907-23.14-20.926a27.3 27.3 0 0 1 5.52-20.989c5.4-6.77 14.24-9.697 22.62-10.181a42.17 42.17 0 0 1 31.48 11.457c10.54 10.063 14.98 25.613 14.89 39.856-.15 24.162-8.3 41.2-24.74 58.115-.53.656-1.07 1.312-1.61 1.968-54.48 47.322-155.849 30.802-221.966 19.352-62.442-10.81-122.721-47.129-130.032-115.617a88 88 0 0 1 7.66-12.081c35.128-46.199 87.983-66.424 143.606-73.802-4.058-2.763-4.981-1.524-9.987-1.751-53.22 4.639-101.248 28.268-136.461 68.6-27.17 31.121-30.852 62.711-33.572 102.225-3.873 56.256-18.528 114.516-58.311 156.486-25.133 30.2-51.54 39.03-85.939 54.4-41.274 18.44-81.836 50.58-107.882 87.59-22.873 32.51-26.775 80.14 6.534 107.92a62.84 62.84 0 0 0 46.3 14.07c26.043-2.88 43.22-27.72 39.802-53.2-2.83-21.11-22.508-35.28-40.623-19.36l2.878.38c6.518-3.3 11.731-3.86 18.495-.42a20.06 20.06 0 0 1 10.109 11.78c7.389 23.56-23.149 40.68-43.954 27.83a30.14 30.14 0 0 1-13.57-18.8c-5.571-23.86 11.34-41.37 33.852-45.54a61.7 61.7 0 0 1 46.407 10.03 52.4 52.4 0 0 1 22.304 35.17c3.384 20.58-3.248 37.95-15.412 54.59-29.021 41.83-95.288 59.13-137.152 25.76-43.815-34.93-30.966-92.31-13.227-136.34 27.54-68.35 76.105-110.87 143.32-137.9 35.771-14.13 67.165-28.73 91.309-59.98 51.747-66.99 36.794-144.9-28.649-196.21 33.484-2.806 54.579-9.304 73.939-38.578"/><path fill="#fff" d="M1091.74 1000.02c-46.43 1.07-92.885 1.42-139.334 1.06-64.839-.95-135.586-23.506-134.623-101.397.943-76.259 112.142-103.66 159.421-51.083 25.436 28.286 29.416 65.962-1.413 92.59a72.63 72.63 0 0 1-53.504 17.513c-15.81-1.377-32.177-8.015-42.448-20.635-16.455-20.218-14.78-55.356 6.813-71.47 9.005-6.721 22.341-9.864 33.466-8.071a33.74 33.74 0 0 1 23.064 14.851c8.459 12.79 7.32 34.112-6.872 40.835-16.069 7.612-36.327-4.898-28.806-24.28l2.286-3.214.743.645c-.214 1.624-.406 3.449-.693 5.042 1.405 16.736 15.837 24.93 27.052 10.284 13.963-18.235-10.357-41.318-29.851-36.011-21.767 4.801-33.256 27.309-28.386 48.471a46.48 46.48 0 0 0 22.025 29.761c41.974 24.562 103.95-16.772 86.862-66.052-16.271-44.916-66.041-60.495-108.731-46.203-42.546 14.244-62.332 55.638-47.676 97.48 23.539 67.205 109.462 64.336 166.139 65.414l101.256 1.497c-2.36 1.382-2.63 1.43-5.17 2.367z"/><path fill="#c1c5cb" d="M905.441 815.889c5.345-1.193 43.145-3.07 46.998-1.037l-.116.305c-.792.329-34.337 2.648-36.895 2.483-4.058-2.763-4.981-1.524-9.987-1.751m193.089 181.158c4.58.018 14.78.173 19.24.773-.53.656-1.07 1.312-1.61 1.968-8.14.212-16.28.292-24.42.232l1.62-.606c2.54-.937 2.81-.985 5.17-2.367"/><path fill="#a1a8b1" d="m530.538 1346.2-.04 4.16c-.103-7.4.141-9.51 4.791-15.74l2.878.38c-3.928 4.77-4.424 5.84-7.629 11.2"/><path fill="#3e5265" d="M531.109 994.359c-11.922-9.366-19.781-17.463-21.714-33.609a61.43 61.43 0 0 1 13.405-46.584c34.596-42.097 97.982-29.171 133.671 3.411 26.74 24.412 44.616 50.757 47.162 87.923 5.67 63.53-39.262 119.99-96.766 141.88-11.562 4.41-24.342 9.27-35.403 15.05l-2.066-1.79c25.758-17.93 48.116-34.87 69.435-57.98 47.602-51.59 48.707-126.391-5.009-174.066-27.537-24.439-71.545-30.601-97.297.022l1.849 1.634c57.605-53.741 134.738 25.483 129.731 88.75-5.358 67.7-55.962 104.83-107.395 140.67-52.611 37.1-97.413 73.01-121.401 135.21-18.111 46.96-33.812 94.98 4.704 137.62a91.8 91.8 0 0 0 64.216 29.96c28.219 1.13 57.754-10.81 78.197-30.08 27.867-26.27 49.094-68.95 23.488-104.09l1.244.62c38.823 19.71 40.618 71.48 21.976 106.11a120.64 120.64 0 0 1-71.966 57.66 140.55 140.55 0 0 1-106.428-11.55c-28.89-15.96-49.39-43.25-58.161-74.95-25.764-93.12 46.921-178.97 113.915-233.83 47.624-38.99 108.99-59.81 125.365-125.34 9.661-38.66.615-73.839-35.207-95.019-35.783-20.43-76.798-3.112-69.545 42.368"/><path fill="#c1c5cb" d="M538.376 930.25c-3.494 5.281-7.274 9.355-9.195 15.778-.339 1.135-1.757 7.214-2.646 7.461-1.36-6.69 5.769-19.965 9.992-24.873z"/><path fill="#3e5265" d="M1012.33 855.166c5.48-5.573 10.75-10.865 17.03-15.591 49.02-36.917 125.93-26.507 162.75 22.86 15.92 21.338 19.06 43.204 15.57 68.861 13.6 1.539 33.97 9.422 48.77 11.805 35.86 5.77 54.75 5.299 84.34-14.715 23.65 14.586 64.82 19.22 91.46 11.631 9.37-2.668 17.29-7.443 25.47-12.563 30.21 15.699 69.46 24.745 102.06 10.724 7.58-3.261 14.07-7.606 20.89-12.198 37.18 17.035 77.53 25.174 113.98 1.747 41.94 15.735 56.92 16.793 101.06 14.247 48.04-2.772 83.5-13.325 109.22-56.941 1.12 42.059.22 88.796.37 131.197-1.05 4.46-.87 4.66-3.69-.69-1.41-3.84-5.32-8.78-8.22-11.8-30.49-31.817-74.7-27.044-114.77-27.016l-110.26.194-318.82-.017c-48.5-.108-103.45 1.541-151.02-.438 10.46-33.651-1.3-78.806-27.91-102.232-23.02-20.263-59.61-34.994-90.71-33.239-27.81 1.57-46.18 11.671-64.47 32.005-.58-6.005-1.92-11.905-3.1-17.831"/><path fill="#5c6069" d="m1901.61 1015.54 3.69.69c-1.05 4.46-.87 4.66-3.69-.69"/><path fill="#3e5265" d="M1553.16 986.282c63.24.541 126.48.697 189.71.467 25.3-.08 50.86-.121 76.35-.318 39.8-.308 77.04 21.349 78.17 64.579.36 13.74-6.54 27.24-16.45 36.63a54.2 54.2 0 0 1-38.42 15.18 48.52 48.52 0 0 1-34.88-16.02c-13.78-15.28-16.05-40.76 1.33-54.45a35 35 0 0 1 26.6-7.41c31.38 4.4 28.79 48.33-.09 44.8-3.91-.47-7.82-3.94-9.8-7.49l-1.9.62c8.05 21.5 34.35 13.21 41.02-4.15 6.8-17.69-7.13-35.49-24.18-40.65a42.88 42.88 0 0 0-32.9 3.41c-6.73 3.73-11.47 8.14-15.57 14.62l-133.11-.1c-16.29-.04-32.76.04-49.03.08-18.31.05-24.52 3.14-38.3 14.48 3.4-23.43-1.79-46.97-18.55-64.278"/><path fill="#a1a8b1" d="M1823.78 1062.87c-.25-1.08-1.39-4.45-.09-5.22 1.31.29 1.77 3.67 1.99 4.6z"/><path fill="#3e5265" d="m380.98 1403.62 1.623-.43c9.367 44.42 41.394 80.01 83.478 96.23a151.78 151.78 0 0 0 115.713-3.01c32.623-14.74 54.483-40.4 67.1-73.47 23.962 8.43 53.357 17.08 77.799 24.8-39.714 119.61-205.275 147.7-294.29 66.32a157.78 157.78 0 0 1-51.423-110.44m1443.39-591.941c.85-.817.71-.717 1.82-1.573a16.82 16.82 0 0 1 13.46-3.19c4.55.856 8.55 4.027 11.11 7.793a21.5 21.5 0 0 1 3.19 17.057c-3.03 12.816-16.94 17.942-28.74 14.737a23.06 23.06 0 0 1-14-10.999c-5.82-10.35-5.17-24.83-2.18-36.034 7.08-26.638 35.79-37.99 61.16-29.475a57.96 57.96 0 0 1 33.79 30.16c21.35 44.827-9.64 102.062-52.83 120.279-31.48 13.276-73.26 17.415-107.15 12.553-12.79-1.834-26.33-6.868-38.42-11.241 20.55-14.608 36.34-21.857 61.42-17.334 29.11 5.253 37.46-9.204 59.51-19.453 10.66-4.95 22.99 2.85 37.86-10.139 29.98-26.195 27.91-84.36-18.49-88.919l.29 1.82c41.18 8.819 41.71 61.585 9.7 82.06-10.07 6.443-20.68 5.385-31.43 9.351-13.92 6.079-22.88 17.133-39.99 18.754-17.03 1.614-31.33-3.794-48.18.692-14.38 3.83-25.39 11.965-37.7 19.867-26.47 16.986-58.39 19.998-88.29 11.291-6.41-1.866-17.83-5.566-23.81-8.505 19.26-13.686 35.37-22.827 59.76-17.912 24.41 4.94 49.09 11.141 70.92-5.348 14.79-11.172 31.07-25.525 50.83-22.519 23.69 3.603 35.17-6.231 49.96-23.527 19.51 2.842 43.36 1.786 45.52-23.564a26.83 26.83 0 0 0-7.07-20.665c-10.34-11.038-23.27-8.423-33.02 1.717z"/><path fill="#a1a8b1" d="M1846.17 787.721c-.99.093-13.93.869-14.24.54l.12-.285c2.4-1.777 10.84-2.118 13.83-2.075z"/><path fill="#c1c5cb" d="M1824.37 811.679c-3.1 10.857-6.68 8.106-1-2.266z"/><path fill="#3e5265" d="M570.3 1365.35c-7.482 27.57-27.338 41.4-55.759 32.73a56.92 56.92 0 0 1-33.816-28.06c-35.308-66.48 56.918-139.1 107.822-163.85 31.32-15.23 48.851-18.84 77.645-40.99-9.457 36.07-1.412 68.17 17.304 100.23 1.534 2.61 3.095 5.22 4.685 7.8-39.788 3.52-58.797-24.11-68.441-58.56l-2.197-1.26.22 1.4c6.389 38.85 25.578 55.83 59.606 67.59 10.436 3.61 10.963 21.83 3.529 28.9-17.546 17.88-41.461-7.24-49.966-21.64-6.119-10.36-28.327-17.08-38.467-16.75-24.659.11-45.583 13-59.911 32.34-5.438 1.86-9.748 3.21-14.807 6.19-39.736 23.37-12.547 86.57 31.902 70 8.65-3.22 14.855-8.85 20.651-16.07"/><path fill="#c1c5cb" d="M617.543 1213.39c-.85-3-2.308-13.55-1.268-16.33 1.953-.94 3.162 15.57 3.465 17.59z"/><path fill="#3e5265" d="M1630.75 838.356c25.31-1.673 46.14 5.144 62.46 25.088-27.45 19.919-38.47 3.936-65.05 11.991-20.84 6.312-33.07 25.836-58.65 28.066-22 1.917-49.62-9.747-69.48-4.293-40.02 10.992-43.33 32.132-89.52 37.631-22.18.757-43.57-4.449-64-12.69 52.73-34.641 51.96-7.854 107.45-13.623 18.52-1.556 37.63-24.756 54.29-27.915 27.76-5.265 42.98 10.083 67.13-16.025 14.55-15.734 33.32-25.664 55.37-28.23"/><path fill="#3e5265" d="M1510.16 839.354c24.33-2.839 43.23 5.449 60.25 22.202-26.87 25.63-40.34 5.926-68.34 15.994-17.99 6.466-31.49 24.425-53.43 26.999-22.56 2.648-52.97-10.021-73.61-2.896-35.89 12.388-43.4 33.086-86.01 37.398-24.08.416-40.05-4.017-63.02-10.376 47.75-40.371 58.57-9.318 109.06-15.824 20.04-1.557 38.53-26.024 56.03-29.986 24.63-5.574 39.73 7.614 62.32-14.205 16.72-16.148 32.99-26.606 56.75-29.306m247.58.065c21.03.194 32.17 5.097 48.72 17.254-31.13 22.14-32.29 5.468-63.42 16.405-14.02 4.125-32.55 25.192-45.99 27.357-39.66 6.393-69.51-17.985-107.08 11.072-26.02 20.129-44.73 27.348-78.51 26.416-21.12-3.474-26.83-4.808-46.76-14.263 8.66-5.498 17.41-11.551 27.01-15.322 29.85-11.728 51.21 7.197 83.77.568 20.06-1.198 37.44-23.496 55.03-27.73 25.81-6.211 44.62 9.305 68.44-14.486 18.21-18.188 32.62-25.547 58.79-27.271"/><path fill="#3e5265" d="M1386.59 840.328c26.98-4.626 44.61 4.999 64.68 21.385-26.75 23.892-40.6 5.658-69.22 16.775-16.5 6.412-31.11 25.793-49.18 27.497-26.49 2.5-41.3-6.569-70.1-4.885-16.8 3.052-32.38 16.703-48.21 23.799l-1.16-.591c-.37-2.598-.22-5.285 1.77-7.039 5.19-4.594 13.54-10.331 18.98-14.323 10.89-7.987 27.52-18.812 41.19-20.17 15.5-1.541 28.61 3.502 44.07-4.085 7.16-3.516 11-6.705 16.77-12.172 17.84-16.927 26.25-22.748 50.41-26.191"/><path fill="#3e5265" d="M1266.77 839.368c25.24-2.34 45.19 5.307 62.49 23.585-21.33 18.931-29.48 12.338-54.37 13.407-9.71.417-19.11 5.094-27.54 9.517-9.79 5.621-22.81 14.981-31.89 21.671-2.16-14.432-4.71-21.383-10.74-34.567 20.31-19.506 34.07-30.107 62.05-33.613m274.8 145.426c.6-.033 3.24-.225 3.9.213 31.61 20.723 33.44 84.693-.56 100.903-3.61-1.37-9.5-3.37-12.4-5.94-17.49-15.47-20.38-45.19-14.45-66.46 3.81-13.695 11.62-22.108 23.51-28.716M583.327 1283.19c17.588-1.05 33.553 1.28 44.222 16.86 4.066 5.93 10.915 13.73 17.237 17.29 12.888 7.26 33.239 5.17 41.138 20 5.285 10.38 1.727 26.21-9.456 31.23-5.539 2.48-11.836.06-16.897-2.21-10.589-7.43-16.601-20.14-26.076-29.75-11.132-11.29-19.217-10.25-29.955-15.99-22.265-11.92-27.391-20.28-54.517-19.62 11.399-10.32 19.473-14.48 34.304-17.81m627.913-296.863c12.13-.502 26.24-.181 38.53-.154a81 81 0 0 0-5.01 3.879c-11.98 10.018-18.86 26.228-19.59 41.568-1.15 24.08 4.37 36.21 19.36 53.87l-7.34 1.78c-6.97 1.12-16.36 4.22-23.34 6.29-30.88-20.06-32.96-65.05-15.67-94.681 3.18-5.454 7.41-9.763 13.06-12.552m112.72-.072c9.01-.301 18.01-.027 27.03 0l-1.07 1.013c-15.35 14.362-22.52 29.312-21.57 50.732.69 15.52 6.72 31.17 18.7 41.47 4.44 3.82 2.81 3.7-2.22 3.88-10.19.44-16.92 1.04-27.06-.56-20.3-15.84-23.81-35.6-20.96-60.3 1.88-16.34 10.42-31.519 27.15-36.235"/><path fill="#3e5265" d="M1262.39 986.147c7.93-.377 14.51-.327 22.43-.174-28.8 24.107-30.52 54.127-14.43 86.677 3.73 7.54 12.09 11.36 2.86 11.44-7.71.22-12.33.35-20.05-.19a54.2 54.2 0 0 1-21.14-35.9c-3.21-23.92 4.23-54.352 30.33-61.853m154.61.33c6.03-.034 12.06-.022 18.08.034-5.23 4.868-7.85 7.043-11.89 13.089-10.26 15.34-10.75 35.41-6.86 52.83 2.11 9.44 9.45 24.76 18.33 29.33 1.3.67 1.57.69 2.47 1.66-.81.82-5.74.45-6.88.43-5.6 0-10.81.02-16.42-.17-26.3-21.44-35.17-54.68-14.55-85.431 3.78-5.636 10.73-10.955 17.72-11.772"/><path fill="#3e5265" d="M1451.14 986.38c5.89-.328 11.46-.386 17.34-.462-9.54 9.116-16.2 16.322-19.59 29.412-6.53 25.23-1.99 48.7 16.18 67.3l-.15.4c-.75.57-1.44.61-2.4.64l-5.34.15c-13.3-.14-15.83-5.27-25.1-15.37-19.04-20.74-12.96-77.343 19.06-82.07m74.76-.959c.23.163.46.326.68.488.31 1.046-3.08 3.935-3.7 4.552-14.73 14.529-17.48 34.829-15.49 54.539 1.64 16.35 6.54 26.26 17.3 38.45-6.16-.15-14.48 1.09-19.42-1.19-30.69-23.74-34.36-77.72 5.75-95.079 3.21-1.391 11.15-1.513 14.88-1.76"/><path fill="#c97d32" d="M1450.05 1165.06c-39.35 2.27-64.63 23.16-105.07 26.54-49.66 4.15-71.69-31.79-121.07-28.82-10.93.65-11.95 1.43-21.59 3.63-9.35 2.13-43.6 18.39-49.15 17.05-.11-3.22-.64-1.91 1.41-4.15 21.65-7.09 32.49-14.54 56.23-19.97 55.07-12.6 81.3 25.38 131.39 22.29 43.19-2.68 64.77-22.86 110.32-19.73z"/><path fill="#3e5265" d="M1297.29 986.144c5.07-.267 9.67-.32 14.74-.357-3.17 2.672-6.75 5.205-9.48 8.365-19 21.968-17.94 66.278 3.51 86.308.6.56 2.7 1.71 2.26 2.73-1.02.73-4.72.44-6.09.46-5.11-.07-8.47-.11-13.57-.6-30.84-24.91-30.66-85.537 8.63-96.906m187.68.172c5.01-.19 9.67-.235 14.69-.258-19.11 15.042-26.63 26.992-25.08 52.442.93 15.23 5.45 31.68 17.62 41.92 5.54 4.66-.52 3.34-4.9 3.43-11.99-.82-16.1-1.96-23.72-12.21-13.34-17.97-14.66-50.67-2.2-69.3a37.17 37.17 0 0 1 23.59-16.024M646.34 1367.42c4.097 2.02 10.374 6.41 14.598 7.09 24.592 3.94 45.568 16.59 31.151 45.75-9.472 8.98-29.668-1.01-41.168-4.62 1.163-17.95.93-30.88-4.581-48.22m739.08-382.132c5.92-.036 11.84.098 17.75.403l-1.14.938c-28.42 22.831-28.02 67.781-2.39 93.131 1.48 1.47 4.89 3.26 1.38 4.28-2.09-.17-9.31-.55-11.01-1.27-35.74-15.11-40.72-81.13-4.59-97.482"/><path fill="#3e5265" d="M1360.46 1083.5c-31.72-23.02-37.71-69.69-2.44-94.286 2.26-1.577 15.52-6.363 16.89-3.509-.54 1.049-7.57 7.907-9.5 10.692-14.17 20.473-13.21 47.373-2.38 69.073 4.02 8.04 6.66 8.74 12.2 14.57l4.21 2.66c.16 2.2-16.45.93-18.98.8"/><path fill="#c97d32" d="M768.597 1250.41c36.423-3.93 58.464 14.55 93.257 17.73 25.532 2.33 41.373-7.59 64.398-10.59-19.094 11.41-41.677 15.6-63.678 15.34-19.857-2.19-30.649-6.34-49.523-12.35-40.212-12.81-63.494-2.12-99.977 7.4l-.633-1.22c7.868-8.82 43.937-15.25 56.156-16.31m-16.928-46.62c35.396-29.61 79.088-28.31 111.184 5.36l-2.242 1.21c-32.136-21.39-73.139-21.52-107.205-5.04zm-400.211-.41c40.088-6.05 69.663-38.82 110.84-28.06 4.855 1.27 12.772 3.75 16.201 7.27-7.515 3.81-28.481-3.47-39.348-1.26-33.462 6.82-51.516 22.51-87.189 23.99-.303-.89-.429-1.05-.504-1.94"/><path fill="#c8864e" d="M1452.52 1161.9c5.06.75 10.21 1.67 15.24 2.56-6.95.54-10.7.73-17.71.6z"/><path fill="#c1c5cb" d="M380.98 1403.62c-1.839-6.24-.972-10.97-.273-17.46.752 5.71 1.613 11.27 1.896 17.03z"/><path fill="#d9b184" d="M351.962 1205.32c-7.168 2.06-15.007-.98-.504-1.94.075.89.201 1.05.504 1.94"/><path fill="#5c6069" d="M571.464 1162.43c-.972.51-6.419 3.75-7.668 3.02-.186-1.39 4.468-4.01 5.602-4.81z"/><path fill="#8b8c90" d="M694.603 1136.56c-.765.76-3.032 3.23-4.241 2.79-.605-1.34 2.597-3.83 3.364-4.57z"/><path fill="#c8864e" d="M862.853 1209.15c.814.87 3.126 2.76 2.645 4.1-1.158.32-4.053-2.24-4.887-2.89zm-109.447-3.83c-.807.4-4.661 2.84-5.639 2.06.183-1.14 3.071-2.97 3.902-3.59z"/><metadata><recraft-signature>{&quot;signed_by&quot;: &quot;recraft&quot;, &quot;signature_b64&quot;: &quot;PsufHLJWxwnZFlKzsvE67Uc3sBWQbaJqwwABvj2FC6gPPcYZ5aSQSMiUXIQ7xLpK9nZKgrP8qw4UIrMCmY/pAQ==&quot;, &quot;signing_algo&quot;: &quot;Ed25519&quot;, &quot;generation_timestamp&quot;: 1777252472, &quot;identifier&quot;: &quot;a2f3941f-0d95-40fa-805a-b4aff3e5a0d4&quot;}</recraft-signature></metadata></svg>