<svg xmlns="http://www.w3.org/2000/svg" width="1024" height="1024" preserveAspectRatio="none" style="display:block" viewBox="0 0 2048 2048"><defs><linearGradient id="c" x1="1003.97" x2="1019.49" y1="178.185" y2="230.972" gradientUnits="userSpaceOnUse"><stop class="stop0" offset="0" stop-color="#2c3b4f"/><stop class="stop1" offset="1" stop-color="#475261"/></linearGradient><linearGradient id="b" x1="1192.49" x2="1192.51" y1="390.971" y2="395.955" gradientUnits="userSpaceOnUse"><stop class="stop0" offset="0" stop-color="#c6c9c9"/><stop class="stop1" offset="1" stop-color="#f0e7ef"/></linearGradient><linearGradient id="a" x1="823.209" x2="841.072" y1="180.856" y2="228.129" gradientUnits="userSpaceOnUse"><stop class="stop0" offset="0" stop-color="#303c4c"/><stop class="stop1" offset="1" stop-color="#4c5768"/></linearGradient></defs><path fill="#e1a347" d="m1259.05 1212.12 145.19-6.01c8.72-.34 18.37-.53 27-1.12 39.32-2.7 65.69-3.21 80.52 40.44-22.5.58-45 .76-67.51.54-2.17 1.69-3.36 3.03-6.06 3.32-14.11 5.53-29.9 16.96-42.22 25.94-5.19 6.66-12.77 12.2-18.23 18.98-.89 1.12-7.51 9.38-8.1 9.86-1.09 2.18-6 13.41-7.13 14.01-5.02 8.3-6.94 17.31-9.04 26.53-7.13 31.35-3.76 55.89 3.47 86.67 1.73 2.28 1.23 2.61 4.37 2.84 17.34 1.32 37.6-.76 54.7.14 39.1-.43 68.31-3.76 82.31 41.64-10.21.03-61.52-.59-69.06.9l-1.25 2.33c-.07 6.45-.34 13.99.07 20.32l-.08 2.81-.09 99.04c0 8.68-.52 38.62.59 45.92l-.55 2.66c.03 9.91-.28 23.41.23 33.08-6.79-1.41-21.2-.92-28.58-.92l-49.89.09c-38.48.08-92.98-1.71-129.92.62-134.54-1.64-271.914.34-406.891-.16l-1.086 3.06-1.008.45c-37.414 14.98-67.056 35.57-83.591 74.24-18.325 42.85-11.255 100.43 42.288 111.58-36.217 17.33-50.654 47.93-53 87.25-.677 3.88.771 14.03-2.25 14.61l-4.748.31c-1.085.02-9.82.31-9.865-1.2-.294-9.89-1.607-19.66-2.702-29.4-2.816-25.07-12.53-40.09-29.087-58.33-5.113-5.57-13.211-7.76-20.505-10.64 18.65-7.88 18.151-10.96 31.939-22.59 38.465-60.84-5.598-133.34-64.348-160.67-3.31-1.33-3.898-1.51-7.012-3.5-.36-2.83.734-12.72.915-16.55.539-12.1.871-24.21.997-36.32q.2-40.155-.29-80.31c-.169-13.41-1.091-37.55.288-50.11l-.461-2.48.372-3.5c.474-5.14.186-13.27.137-18.64l-.899-2.87c-16.091-2.03-51.97-1.02-69.341-.98 10.147-46.39 46.288-42.02 82.84-41.97 20.223-.09 40.447.01 60.669.29 1.882-2.95 2.987-9.74 3.777-13.46 4.997-23.51 7.437-43.67 2.297-67.53a145.17 145.17 0 0 0-61.002-88.87c-10.534-6.89-22.222-11.41-32.51-18.37a5905 5905 0 0 0-66.548-.08c6.463-21.86 23.115-40.89 46.834-41.21 72.01-.98 145.697 4.32 217.568 5.19 130.172 1.56 261.103-2.25 391.153 2.12 1.14-.11 7.18-.27 7.62-.81-.06-.47.02-.16-.41-1.04 4.2-.24 19.71.75 25.57.87 10.47.21 24.71-1.48 33.92-.92.14 2.33 5.27 1.65 7.63 1.91"/><path fill="#e1a347" d="m1259.05 1212.12 145.19-6.01c8.72-.34 18.37-.53 27-1.12 39.32-2.7 65.69-3.21 80.52 40.44-22.5.58-45 .76-67.51.54-2.17 1.69-3.36 3.03-6.06 3.32-14.11 5.53-29.9 16.96-42.22 25.94-5.19 6.66-12.77 12.2-18.23 18.98-.89 1.12-7.51 9.38-8.1 9.86-1.09 2.18-6 13.41-7.13 14.01-5.02 8.3-6.94 17.31-9.04 26.53-7.13 31.35-3.76 55.89 3.47 86.67 1.73 2.28 1.23 2.61 4.37 2.84 17.34 1.32 37.6-.76 54.7.14-11.62.95-30.06.61-42.17.59l-68.63-.19-224.19-.39-270.897.15-81.016.46c-12.623.07-34.217.68-45.956-.56 1.882-2.95 2.987-9.74 3.777-13.46 4.997-23.51 7.437-43.67 2.297-67.53a145.17 145.17 0 0 0-61.002-88.87c-10.534-6.89-22.222-11.41-32.51-18.37a5905 5905 0 0 0-66.548-.08c6.463-21.86 23.115-40.89 46.834-41.21 72.01-.98 145.697 4.32 217.568 5.19 130.172 1.56 261.103-2.25 391.153 2.12 1.14-.11 7.18-.27 7.62-.81-.06-.47.02-.16-.41-1.04 4.2-.24 19.71.75 25.57.87 10.47.21 24.71-1.48 33.92-.92.14 2.33 5.27 1.65 7.63 1.91"/><path fill="#2c3848" d="m1259.05 1212.12 145.19-6.01c8.72-.34 18.37-.53 27-1.12 39.32-2.7 65.69-3.21 80.52 40.44-22.5.58-45 .76-67.51.54-29.61-.97-62.87-.08-92.93-.16l-214.15.02-541.457.26a5905 5905 0 0 0-66.548-.08c6.463-21.86 23.115-40.89 46.834-41.21 72.01-.98 145.697 4.32 217.568 5.19 130.172 1.56 261.103-2.25 391.153 2.12 1.14-.11 7.18-.27 7.62-.81-.06-.47.02-.16-.41-1.04 4.2-.24 19.71.75 25.57.87 10.47.21 24.71-1.48 33.92-.92.14 2.33 5.27 1.65 7.63 1.91"/><path fill="#c9b69e" d="M1191.93 1210.26c4.2-.24 19.71.75 25.57.87 10.47.21 24.71-1.48 33.92-.92.14 2.33 5.27 1.65 7.63 1.91-12.86 2-61.49 1.95-74.33-.01 1.14-.11 7.18-.27 7.62-.81-.06-.47.02-.16-.41-1.04"/><path fill="#2c3848" d="M1314.54 1332c23.66-43.29 68.22-94.58 123.65-82.71-14.11 5.53-29.9 16.96-42.22 25.94-32.85 18.68-54.37 54.58-67.95 88.57-4.02-11.47-7.92-21.02-13.48-31.8"/><path fill="#333f4f" d="M1361.75 1310.21c2.25 3.1.76 3.78.76 7.87-5.02 8.3-6.94 17.31-9.04 26.53-7.13 31.35-3.76 55.89 3.47 86.67-5.58-.51-16.5-.2-22.48-.21.38-26.85.09-36.31-4.61-62.88 9.41-24.18 15.6-37.8 31.9-57.98"/><path fill="#594835" d="M1361.75 1310.21c2.09-3.41 3.98-5.57 7.89-6.14-1.09 2.18-6 13.41-7.13 14.01 0-4.09 1.49-4.77-.76-7.87"/><path fill="#2c3848" d="m926.745 1248.5 176.705.25c20.7.02 41.46-.59 62.14-.38 81.97.84 156.88 63.22 164.85 145.62l-23.02.47c-2.5-26.76-16.04-51.97-33.4-72.02a156.3 156.3 0 0 0-108.26-53.59c-9.32-1.29-25.42-.94-35.15-.98l-61.14-.28c-40.53-.48-81.065-.65-121.6-.53-42.239.06-77.939-3.1-117.674 14.12-43.17 18.7-67.224 45.36-84.769 88.55-3.018-12.55-7.12-23.22-11.958-35.03 32.149-45.35 69.406-78.83 127.606-85.07 20.593-2.21 44.749-1.04 65.67-1.13"/><path fill="#2c3848" d="M1080.51 1270.55c17.85.24 35.7.3 53.55.16l-.11 160.32-53.59.14c1.02-51.45.83-109.2.15-160.62m-159.447-.11c14.888-1.06 36.408-.34 52.057-.45l-.098 161.09c-8.469.05-46.094.72-52.166-.35.816-16.23.213-38.42.225-55.06zm105.127-.09c17.2.31 34.41.38 51.61.18l.15 160.66-51.9.19c.82-53 .2-107.88.14-161.03m-108.215-.34-.06 99.76c-.036 19.97-.574 41.92.267 61.63-12.143-.92-35.304-.01-48.223.15l-.046-106.1c-.002-11.69-.703-43.02 1.035-52.52 6.66-3.15 37.457-2.75 47.027-2.92m-55.333 4.04 2.877-.32 1.272 1.22c.828 51.53.205 104.72.221 156.38l-47.262-.12-2.764-.35c-2.023-3.48.54-123.64-.858-139.24 15.773-8.38 29.522-12.87 46.514-17.57m113.378-3.92c15.714.14 31.43.13 47.14-.02l-.05 161.13-47.116-.04zm161.26.58c17.33.2 29.27.81 46.68 3.2l-.2 157.12h-46.73zm49.81 3.95c19.64 5.44 31.27 10.29 49.05 19.85.39 45.54.38 91.09-.04 136.63l-49.42-.06c1.2-50.72.23-105.3.41-156.42m-374.585 19.21c2.018 3.39.833 121.03 1.075 137.27l-64.656.28c-2.606-2.9-1.84-51.52-.431-56.84 9.581-36.16 33.17-61.08 64.012-80.71m427.045 2.78c7.17 4.17 18.31 13.22 24.03 19.33 36.64 39.08 41.45 65.48 41.31 115.34l-65.9-.11c-.08-44.85.11-89.71.56-134.56m-587.817-47.88 152.196.36c3.942-.2 34.816-.59 36.479.29l.029.11c-.778 1.02-4.341 1.6-5.64 1.8-47.613 14.36-74.164 40.44-103.368 78.89-17.38-38.44-42.939-61.75-79.696-81.45"/><path fill="#594835" d="M803.929 1249.13c3.942-.2 34.816-.59 36.479.29l.029.11c-.778 1.02-4.341 1.6-5.64 1.8-4.945-2.6-22.574-1.12-30.868-2.2"/><path fill="#2c3848" d="M1231.31 1249.05c45.07-1.9 91.09.47 136.22-.04 7.54-.09 15.46-.07 22.98.16-37.25 20.94-57.26 41.93-77.69 78.9-27.68-38.86-49.51-56.38-93.57-74.3-1.24-.46-2.5-.9-3.75-1.33-3.45-1.14-5.17-1.87-8.42-3.46 8-.02 16.27-.18 24.23.07"/><path fill="#333f4f" d="M1207.08 1248.98c8-.02 16.27-.18 24.23.07-8.23 2.94-6.3-1.38-12.06 4.72-1.24-.46-2.5-.9-3.75-1.33-3.45-1.14-5.17-1.87-8.42-3.46"/><path fill="#2c3848" d="M606.548 1248.38c8.145.66 24.853-.37 30.492.44 17.675 2.55 44.991 21.55 57.281 33.86 29.567 29.63 49.072 70.58 49.926 112.4l-23.386-.04a255 255 0 0 0-1.887-15.37c-7.476-46.28-37.646-81.13-74.98-107.64-11.697-8.3-26.321-15.56-36.767-23.14z"/><path fill="#2c3848" d="M669.088 1297.71c20.987 12.77 42.858 57.21 46.035 81.22 1.219 9.21 5.558 45.07.814 51.95l-3.687.28-25.678.06 2.834-11.89c11.035-46.77 5.049-80.57-20.318-121.62m638.532 100.27c7.8.02 15.6-.12 23.39-.41l.21 33.64c-7.78.1-15.56.15-23.35.14.04-11.14.19-22.24-.25-33.37m-586.767.04 23.415.07c-.066 11.11-.044 22.22.068 33.32q-11.681-.12-23.362-.03.042-16.68-.121-33.36M539.642 1476c10.147-46.39 46.288-42.02 82.84-41.97 20.223-.09 40.447.01 60.669.29 11.739 1.24 33.333.63 45.956.56l81.016-.46 270.897-.15 224.19.39 68.63.19c12.11.02 30.55.36 42.17-.59 39.1-.43 68.31-3.76 82.31 41.64-10.21.03-61.52-.59-69.06.9-54.15 2-115.7.3-170.37.33a17417 17417 0 0 1-295.394.02l-256.549-.07c-33.016-.04-64.91.62-97.964-.1-16.091-2.03-51.97-1.02-69.341-.98m70.988 174.3c36.969.75 74.887.13 111.969.24l278.121-.21 427.23-.45c.03 9.91-.28 23.41.23 33.08-6.79-1.41-21.2-.92-28.58-.92l-49.89.09c-38.48.08-92.98-1.71-129.92.62-134.54-1.64-271.914.34-406.891-.16-4.876-.9-48.95-.54-56.01-.5-48.38.31-97.737-.72-146.008.87.247-10.92-.041-21.75-.251-32.66m101.497 34.91c10.089-.01 94.812-.39 98.678.89-37.414 14.98-67.056 35.57-83.591 74.24-18.325 42.85-11.255 100.43 42.288 111.58-36.217 17.33-50.654 47.93-53 87.25-2.371.48-1.78.4-2.245 3.37h-.046c-.582-3.91.08-3.88-1.07-8.64z"/><path fill="#eb9738" d="m620.686 1687.53 2.28.53c49.712 17.76 75.448 54.53 84.289 105.17-.483 7.75-.299 16.65-.852 25.62.215-.04.998-.07 1.228-.41.148-.22.08-.63.064-.85-.007-.09-.128-1.25-.098-1.56.082-.86.803-1.19 1.432-1.64.947 39.77-.492 80.5.194 120.42-.683.5-1.059.63-1.807.99.489 3.77.783 5.06 2.336 8.42 1.456 11.32 1.253 18.52-.248 29.87-1.085.02-9.82.31-9.865-1.2-.294-9.89-1.607-19.66-2.702-29.4-2.816-25.07-12.53-40.09-29.087-58.33-5.113-5.57-13.211-7.76-20.505-10.64 18.65-7.88 18.151-10.96 31.939-22.59 38.465-60.84-5.598-133.34-64.348-160.67.029-.96.364-1.44.752-2.42z"/><path fill="#2c3848" d="M706.403 1818.85c.215-.04.998-.07 1.228-.41.148-.22.08-.63.064-.85-.007-.09-.128-1.25-.098-1.56.082-.86.803-1.19 1.432-1.64.947 39.77-.492 80.5.194 120.42-.683.5-1.059.63-1.807.99a320 320 0 0 0-1.705-6.19c-7.422-25.94-15.86-40.72-39.526-53.9-1.999-.99-1.379-.69-3.009-2.4 1.764-2.81 7.14-4.69 10.989-6.95 1.206-.63 2.39-1.31 3.548-2.03 16.429-10.34 24.589-27.22 28.69-45.48m685.647-302.44c10.89-5.89 23.93-11.21 35.95-14.15l-.09 99.04c0 8.68-.52 38.62.59 45.92-11.03-.51-25.68.01-36.95.14zm-782.677-14.42c12.33 2.19 25.692 8.17 36.673 14.15 1.023 43.85-.252 87.74.179 131.59l-35.186.08c.063-32.1-.064-64.21-.379-96.32-.032-10.97.81-37.77-.826-47.02z"/><path fill="#2c3848" d="M609.882 1479.85c48.999-.24 96.068 39.74 118.039 81.32-5.389 9.44-9.167 17.07-13.819 26.82-19.291-41.49-44.22-68.45-88.154-85.05-5.608-2.12-10.252-3.5-16.203-4.45.474-5.14.186-13.27.137-18.64m702.108 79c29.38-41.21 62.23-76.7 116.02-79.72-.07 6.45-.34 13.99.07 20.32-45.22 6.74-83.96 47.47-101.46 87.89-4.31-9.77-9.2-19.29-14.63-28.49m-689.583 126.84c28.595.45 58.441-.26 87.13-.58-.25 21.57.305 44.06-.358 65.38-.447 4.48-.645 43.14-.727 43.25l-1.197-.51c-8.841-50.64-34.577-87.41-84.289-105.17z"/><path fill="#594835" d="M709.179 1750.49c1.056 11.66.812 52.71-.15 63.9-.629.45-1.35.78-1.432 1.64-.03.31.091 1.47.098 1.56.016.22.084.63-.064.85-.23.34-1.013.37-1.228.41.553-8.97.369-17.87.852-25.62l1.197.51c.082-.11.28-38.77.727-43.25"/><path fill="#333f4f" d="M713.141 1953.9c1.15 4.76.488 4.73 1.07 8.64h.046c.465-2.97-.126-2.89 2.245-3.37-.677 3.88.771 14.03-2.25 14.61-2.019-5.42-1.338-13.9-1.111-19.88"/><path fill="#8c5e2f" d="M709.223 1934.81c1.131 3.49.742 5.69.529 9.41-1.553-3.36-1.847-4.65-2.336-8.42.748-.36 1.124-.49 1.807-.99"/><path fill="#594835" d="M620.686 1687.53c-.589-.77-.891-.87-.783-1.45.684-.35 1.786-.32 2.504-.39l.559 2.37z"/><path fill="#2c3848" d="M863.61 1480.42c16.672-1.53 38.162-.43 55.317-.4l117.683.83 87.8-.08c22.83-.03 51.06-1.87 72.97 3.62 80.03 20.07 133.61 80.84 137.79 162.98-8.13.02-16.26.12-24.4.28-6.87-78.53-57.28-131.21-134.54-145.48-3.69-.53-7.39-.98-11.1-1.34-16.25-1.56-36.66-1.18-53.11-1.13l-76.29.2-103.943-.16c-54.859.03-100.225-1.45-145.674 36.77-36.229 30.47-51.548 64.47-55.989 111.15-7.166-.5-16.977-.29-24.337-.35 1.202-39.6 13.469-73.41 39.208-104.03 27.675-32.92 75.213-59.68 118.615-62.86"/><path fill="#2c3848" d="M1184.94 1507.44c21.57 4.29 40.77 14.07 59.07 25.91l-.08 114.33-59.13.07zm-73.19-4.94 19.84-.2c-1.32 46.84-.44 98.14-.52 145.32l-29.57.06-22.34.17-.09-145.28c10.78.12 21.87-.03 32.68-.07m-86.17.35c16.7.16 33.6-.04 50.31-.1l.1 95.49c.02 11.56.76 38.72-.4 49.42-16.83-.13-33.65-.08-50.47.14zm-65.15-.33 10.876-.17c-.662 48.12-.194 97.25-.146 145.43l-40.41.06-9.57.05.465-145.21zM813.808 1522c1.752 3.04 1.049 113.19 1.047 125.72l-80.55.08-1.001-1.36c-.228-7.26 2.874-22.3 4.906-29.42 12.596-44.12 36.69-72.61 75.598-95.02m49.854-16.8c3.111-.44 1.96-.62 4.815.3 2.079 5.48.727 124.6.925 142.19l-45.652.09h-4.27c-.472-.48-.944-.95-1.416-1.42-.483-25.96-.252-105.63-.265-126.24 15.113-7.14 29.603-11.44 45.863-14.92m110.654-2.48c15.921-.17 32.054-.02 47.984-.01l-.04 144.92c-15.99-.05-31.972.05-47.956.31zm160.174.07c17.76.09 29.94 1.19 47.46 3.63-.1 14.5.43 138.09-1.1 140.99l-46.81.41zm-253.948.61c11.836-.63 25.753-.48 37.765-.61l-.128 90.77c.02 16.42.648 36.62-.183 52.78-2.216 2.11-1.698 1.41-5.746 1.44l-40.077.03.114-88.49c-.047-16.84-.716-37.53.212-54.08 2.477-1.93 4.311-1.44 8.043-1.84m-230.73 14.71c25.73 10.35 51.301 48.17 62.244 73.1-4.923 16.71-7.927 29.09-8.925 46.54-.041 4.01.053 4.91-.927 8.72-5.185 1.14-45.804 1.19-53.082 1.31zm738.118.96c2.1 2.38.76 114.31.77 128.35-12.68.13-37.56 1.18-49.16.02-2.29-2.29-1.42-.87-1.44-5.23-1.95-21.49-3.72-31.14-10.15-51.43 18.04-35.3 26.77-48.8 59.98-71.71m-745.493-38.79c65.447.56 130.896.62 196.344.17-20.717 6.84-34.366 12.25-53.191 23.47a201 201 0 0 0-55.508 53.22c-24.189-39.45-46.686-57.57-87.645-76.86m560.673.11 193.86-.01c-19.68 9.54-29.07 14.29-46.01 28.3-14.81 12.38-30.38 31.4-41.21 47.51-19.79-25.98-44.48-49.06-74.45-62.7-10.15-4.62-21.29-7.86-31.22-12.63zm44.26 56.05c34.02 21.14 60.04 71.24 59.57 111.08l-60.07.33c-.18-37.13-.02-74.27.5-111.41M987.255 499.819c39.405-5.775 55.815-2.887 94.525 4.756-3.38 11.646-7.35 26.987-9.3 39.01l-1.38 3.348c-21.7 81.089-48.9 209.863-32.93 293.051a190.7 190.7 0 0 0 22.05 58.953c21.05 36.141 63.61 68.877 101.73 86.2l5.18 2.499c17.32 7.505 23.38 8.956 41.24 13.694l3.14.23c28.01 6.63 51.94 5.96 79.93 8.01 53.11 3.91 99.83 40.78 111.1 93.64.69 3.2 3.67 14.02 5.26 16.43l1.75.99c-.11 2.88-.26 3.56-.86 6.41.54 8.89 1.66 18.53 4.05 27.12-18.38 39.41-120.03 54.19-161.32 56.05-9.21-.56-23.45 1.13-33.92.92-5.86-.12-21.37-1.11-25.57-.87-62.7-4.27-119.58-32.33-176.29-56.88-29.223-12.66-43.583-17.13-75.343-14.06-1.403.92-1.971 1.29-3.349 2.07.151 20.9.17 41.81.056 62.71-9.886.05-48.102.7-55.738-.64-11.62-.36-18.496 3.01-20.969-8.99l-6.571 10.38c-10.186-.19-25.123-.02-34.918-.78-5.154-.05-10.308-.12-15.461-.22-1.915-2.52-3.563-4.69-5.232-7.43l-2.036-3.42-6.049 10.63-43.586-.23c-6.589.3-14.974.04-21.703.01.246-39.17-1.664-76.28.264-115.76l.319-2.6a147 147 0 0 0 4.053-15.46c1.971-1.52 2.085-1.6 4.2-2.67l-1.72-.59-2.155-1.35c-3.064-7.44-4.331-15.5-6.319-23.21-13.375-51.896 10.149-91.95 23.822-140.882.117-1.333.215-2.505.41-3.835 1.821-6.048 2.933-13.931 4.018-20.224l.586-2.935c10.364-101.233-21.398-235.13-61.848-328a141 141 0 0 1-1.161-3.801l-16.306-38.974c6.54-.245 12.573-1.042 18.847-1.214 31.452-2.132 58.133-2.573 89.431 3.257 48.19 8.977 87.036 34.18 137.793 21.034 18.88-12.613 45.323-26.61 68.28-26.377"/><path fill="#2c3848" d="M733.577 1066.92c5.92-.07 10.682.89 16.636 1.15l.663-.13c7.595 2.25 47.061 5.37 57.836 6.82 52.656 7.1 104.214 13.27 156.465 23.71a519.7 519.7 0 0 1 95.363 27.78c21.16 8.3 42.38 18.72 63.87 25.73 77.8 25.39 165.24 22.22 240.32-10.9 7.31-3.23 38.98-16.69 43.07-21.44l1.75.99c-.11 2.88-.26 3.56-.86 6.41.54 8.89 1.66 18.53 4.05 27.12-18.38 39.41-120.03 54.19-161.32 56.05-9.21-.56-23.45 1.13-33.92.92-5.86-.12-21.37-1.11-25.57-.87-62.7-4.27-119.58-32.33-176.29-56.88-29.223-12.66-43.583-17.13-75.343-14.06-1.403.92-1.971 1.29-3.349 2.07.151 20.9.17 41.81.056 62.71-9.886.05-48.102.7-55.738-.64-11.62-.36-18.496 3.01-20.969-8.99l-6.571 10.38c-10.186-.19-25.123-.02-34.918-.78-5.154-.05-10.308-.12-15.461-.22-1.915-2.52-3.563-4.69-5.232-7.43l-2.036-3.42-6.049 10.63-43.586-.23c-6.589.3-14.974.04-21.703.01.246-39.17-1.664-76.28.264-115.76l.319-2.6a147 147 0 0 0 4.053-15.46c1.971-1.52 2.085-1.6 4.2-2.67"/><path fill="#eb9738" d="M733.577 1066.92c5.92-.07 10.682.89 16.636 1.15.207 1.1-.078 1.86-.293 3.07l.099.62c-.352 5.38-1.479 8.76-.18 13.74 2.246 3.26 2.007 2.92-.309 6.64-5.201 8.34-2.85 30.23-2.843 39.55l-.243 71.71c-6.589.3-14.974.04-21.703.01.246-39.17-1.664-76.28.264-115.76l.319-2.6a147 147 0 0 0 4.053-15.46c1.971-1.52 2.085-1.6 4.2-2.67"/><path fill="#eb9738" d="M733.577 1066.92c5.92-.07 10.682.89 16.636 1.15.207 1.1-.078 1.86-.293 3.07l.099.62c-.352 5.38-1.479 8.76-.18 13.74-.999.34-1.992.88-2.942 1.34-5.782-1.05-16.67-.63-21.573-1.79a147 147 0 0 0 4.053-15.46c1.971-1.52 2.085-1.6 4.2-2.67"/><path fill="#faf1d6" d="M733.577 1066.92c5.92-.07 10.682.89 16.636 1.15.207 1.1-.078 1.86-.293 3.07-5.88-.39-14.786-.98-20.543-1.55 1.971-1.52 2.085-1.6 4.2-2.67m-8.572 20.73.319-2.6c4.903 1.16 15.791.74 21.573 1.79-1.315 6.3-16.849 1.81-21.892.81"/><path fill="#e1a347" d="m750.213 1068.07.663-.13c7.595 2.25 47.061 5.37 57.836 6.82 52.656 7.1 104.214 13.27 156.465 23.71a519.7 519.7 0 0 1 95.363 27.78c21.16 8.3 42.38 18.72 63.87 25.73 77.8 25.39 165.24 22.22 240.32-10.9 7.31-3.23 38.98-16.69 43.07-21.44l1.75.99c-.11 2.88-.26 3.56-.86 6.41-.4-1.53-.06-.65-1.39-2.46-6.74 2.28-16.48 9.05-23.77 12.29-17.2 7.64-34.26 14.44-52.18 20.18a343.3 343.3 0 0 1-219.08-5.41c-9.35-3.4-19.73-7.68-28.76-11.82-72.43-33.24-148.835-44.88-227.641-55.25a2707 2707 0 0 0-105.85-12.81l-.099-.62c.215-1.21.5-1.97.293-3.07"/><path fill="#eb9738" d="M796.079 1193c2.134-3.78 4.373-7.5 6.483-11.29l1.124-1.98c5.894 8.73 9.719 15.77 15.122 24.34-5.154-.05-10.308-.12-15.461-.22-1.915-2.52-3.563-4.69-5.232-7.43zm64.218 1.47c1.267-3.1 5.739-10.8 7.552-14.08 3.509 5.71 10.695 17.25 13.417 23.07-11.62-.36-18.496 3.01-20.969-8.99m78.623-80.66c.555-1.36 1.906-5.55 3.038-6.24 1.048.03 10.918 2.12 11.07 2.2 5.403 2.98 18.498-.9 14.388 7.46-2.409 4.9-6.93 1.88-10.928.89l-1.915-.46c-5.025-1.31-9.47-2.68-14.677-2.73z"/><path fill="#e1a347" d="m938.92 1113.81.976 1.12c.521 8.37-.106 16.28.401 24.39-1.403.92-1.971 1.29-3.349 2.07-.12-4.7-1.938-25.21 1.972-27.58"/><path fill="#eb9738" d="M1218.82 1180.05c9.97.2 19.76.08 29.72-.11.52-.01 2.09.03 2.4.59.95 1.69.38 4.89.02 6.56-6.27.24-23.51 1.61-30.09.37-.89-.16-1.72-5.95-2.05-7.41m-128.17-29.95c5.76 2.72 11.83 4.91 17.74 7.25 8.56 3.37 10.89 1.53 6.19 10.63-5.08-1.85-21.26-7-25.81-10.54-.82-.63 1.44-5.96 1.88-7.34"/><path fill="#e1a347" d="M1172.86 1175.8c9.03 1.75 18.97 2.73 28.17 3.43 5.49.41 3.3 3.36 2.64 7.95-7.32-.57-14.94-1.84-22.2-3.01-9.35-1.51-8.32-.01-8.61-8.37m-43.91-10.91c4.22 1.74 28.83 7.83 29.6 8.44.37.97-1.44 5.14-1.87 6.38-2.58 1.92-23.37-6.06-27.53-7.31-.71-.22-.19-6.51-.2-7.51"/><path fill="#eb9738" d="M1291.53 1175.29c5.73-1.31 5.07 2.56 4.05 6.62-.29 1.15-21.32 3.6-23.36 3.97-4.42.38-6.1.45-4.91-6.34.13-.74 4.94-1.37 5.68-1.42 6.23-.49 12.37-1.83 18.54-2.83m-237.24-40.01c.5.19 1 .37 1.49.57 2.77 1.09 23.47 8.68 23.88 10.67.35 1.71-1.92 4.88-2.64 6.22-1.8-.31-9.34-3.91-11.41-5.1-11.31-6.49-15.04-1.09-11.32-12.36m315.55 15.71c1.05.93 4.72 5.94 3.81 6.46-6.2 3.51-17.34 6.55-23.94 9.26-2.39-.99-3.45-6.04-3.19-6.18 7.21-3.71 15.62-6.18 23.32-9.54"/><path fill="#e1a347" d="m977.522 1114.28 3.959.82c5.801 1.26 11.748 2.59 17.556 3.77 7.433 1.5 6.553.91 4.863 7.61l-.23.91c-6.368-1.48-12.72-3.15-19.2-4.28-9.287-1.63-7.972-.56-6.948-8.83m356.338 50.07c1.25 1.47 2.32 6.1 1.7 6.47-3.82 2.24-21.66 7.35-25.2 8.58-4.58-6.74-1.69-7.77 3.66-9.05 6.7-1.7 13.32-3.7 19.84-6m-318.48-41.98c5.8 2.2 20.56 6.21 26.18 8.81.8.37-.69 5.9-.99 7.43-8.37-3.03-16.95-6.09-25.28-9.16-.96-.35.03-6.37.09-7.08"/><path fill="#eb9738" d="M1400.63 1138.03c10.26 8.19-5.77 11.23-12.18 13.94l-3.24 1.37c-2.64-1.2-3.67-5.99-3.18-6.35 4.71-3.5 12.92-6.86 18.6-8.96m-635.57-50.18c6.025.92 12.383 1.42 18.466 1.89 6.617.51 5.418.73 4.986 7.65-6.152-.47-18.139-.57-24.009-2.99-.601-.24.461-5.8.557-6.55m34.297 3.11c5.427.86 12.121 1.4 17.657 1.86 6.701.55 5.43.14 4.989 7.99-5.83-.73-11.684-.98-17.526-1.66-3.775-.43-5.885.51-5.491-4.15z"/><path fill="#e1a347" d="M904.369 1101.58c6.61.66 13.672 1.59 20.17 2.29 6.137.65 4.787.87 4.743 7.54-5.935-.65-11.879-1.54-17.793-2.32-5.811-.77-7.144.32-7.043-5.63z"/><path fill="#eb9738" d="M834.483 1094.35c4.619.7 9.896 1.06 14.52 1.66 10.261 1.34 8.981-.32 7.996 8.26-5.929-.56-12.166-1.61-18.037-2.11-5.684-.48-4.991-1.96-4.479-7.81m34.795 4.01c7.682.96 16.105 1.14 23.559 2.74.739.16 1.303 4.81 1.436 5.47-6.028 1.42-17.368.11-23.554-1.21-.738-.16-1.094-4.81-1.128-5.02z"/><path fill="#2c3848" d="m710.117 544.284.696.645c31.566.557 63.638 7.175 94.11 15.004 27.581 7.085 48.748 16.222 77.714 15.877l.132 218.107c.184 24.998-.964 57.582.484 81.834-20.285.963-44.224-.236-64.888.265-9.087.221-38.122.466-45.483-.64l-.328.967c-.568.829-.841 1.129-1.514 1.89-7.287-.368-12.231-.735-19.407-1.404l.586-2.935c10.364-101.233-21.398-235.13-61.848-328 5.72-2.003 12.976.16 19.746-1.61"/><path fill="#eb9738" d="m710.117 544.284.696.645c14.579 36.64 30.311 76.608 39.756 114.895 16.949 68.708 31.04 144.727 22.313 215.552l-.328.967c-.568.829-.841 1.129-1.514 1.89-7.287-.368-12.231-.735-19.407-1.404l.586-2.935c10.364-101.233-21.398-235.13-61.848-328 5.72-2.003 12.976.16 19.746-1.61"/><path fill="#faf1d6" d="M752.219 873.894c5.401.487 15.78 1.152 20.335 2.449-.568.829-.841 1.129-1.514 1.89-7.287-.368-12.231-.735-19.407-1.404z"/><path fill="#2c3848" d="M987.255 499.819c39.405-5.775 55.815-2.887 94.525 4.756-3.38 11.646-7.35 26.987-9.3 39.01-28.61-8.213-73.986-7.561-101.191 4.108-33.991 14.581-42.046 21.647-80.966 24.271-35.952 2.423-54.754-7.898-88.8-16.382-31.08-7.744-60.106-12.89-92.217-13.907l.811 2.609c-6.77 1.77-14.026-.393-19.746 1.61a141 141 0 0 1-1.161-3.801l-16.306-38.974c6.54-.245 12.573-1.042 18.847-1.214 31.452-2.132 58.133-2.573 89.431 3.257 48.19 8.977 87.036 34.18 137.793 21.034 18.88-12.613 45.323-26.61 68.28-26.377"/><path fill="#eb9738" d="M672.904 503.119c6.54-.245 12.573-1.042 18.847-1.214l1.366 3.08c4.306 9.546 13.676 26.7 16.189 36.69l.811 2.609c-6.77 1.77-14.026-.393-19.746 1.61a141 141 0 0 1-1.161-3.801z"/><path fill="#faf1d6" d="M689.21 542.093c7.941-.579 11.86-1.29 20.096-.418l.811 2.609c-6.77 1.77-14.026-.393-19.746 1.61a141 141 0 0 1-1.161-3.801"/><path fill="#eb9738" d="M918.975 526.196c18.88-12.613 45.323-26.61 68.28-26.377-8.146 2.706-15.119 4.769-23.035 8.188-14.543 6.281-29.512 15.647-45.245 18.189m-171.77 374.692c6.308.226 13.315.752 19.56 1.76l1.2.561c-17.219 59.994-34.224 96.077-17.57 159.771.361 2.06.387 2.9.481 4.96l-.663.13c-5.954-.26-10.716-1.22-16.636-1.15l-1.72-.59-2.155-1.35c-3.064-7.44-4.331-15.5-6.319-23.21-13.375-51.896 10.149-91.95 23.822-140.882"/><path fill="#e1a347" d="M731.857 1066.33c9.977-1.64 3.253-4.17 18.538-3.35.361 2.06.387 2.9.481 4.96l-.663.13c-5.954-.26-10.716-1.22-16.636-1.15zm-22.551-524.655c32.111 1.017 61.137 6.163 92.217 13.907 34.046 8.484 52.848 18.805 88.8 16.382 38.92-2.624 46.975-9.69 80.966-24.271 27.205-11.669 72.581-12.321 101.191-4.108l-1.38 3.348c-28.49-8.558-70.19-8.006-97.368 3.435-34.478 14.515-48.084 24.664-87.976 24.792l.074 214.13c.028 13.434 1.448 82.279-.756 89.268l-.907.661-.914-3.468c-1.448-24.252-.3-56.836-.484-81.834l-.132-218.107c-28.966.345-50.133-8.792-77.714-15.877-30.472-7.829-62.544-14.447-94.11-15.004l-.696-.645zm60.387 358.109c48.912 8.913 90.634 23.351 120.81 66.051 15.65 22.144 29.517 61.045 25.237 88.185l-.881 1.25c-1.13-1.17-2.434-23.71-3.034-27.59a145.8 145.8 0 0 0-16.48-47.344c-27.509-50.146-73.299-68.913-127.38-77.127l-1.2-.561c.99-.979 1.508-1.447 2.338-2.536z"/><path fill="#eb9738" d="M751.633 876.829c7.176.669 12.12 1.036 19.407 1.404l1.104 1.082c-.193 6.127-2.926 15.683-2.451 20.469l-.59.328c-.83 1.089-1.348 1.557-2.338 2.536-6.245-1.008-13.252-1.534-19.56-1.76.117-1.333.215-2.505.41-3.835 1.821-6.048 2.933-13.931 4.018-20.224"/><path fill="#faf1d6" d="M747.615 897.053c5.824.864 16.442 1.462 21.488 3.059-.83 1.089-1.348 1.557-2.338 2.536-6.245-1.008-13.252-1.534-19.56-1.76.117-1.333.215-2.505.41-3.835"/><path fill="#e1a347" d="m1161.95 985.137 5.18 2.499c-2.36 2.34-19.83 10.177-24.18 12.904-12.06 7.57-22.25 15.21-32.56 25.11a171.5 171.5 0 0 0-32.64 43.37c-2.36 4.37-7.27 16.27-9.48 18.78l-1.51-.25c-.11-1.4-.09-2.44.41-3.79 16.42-43.75 54.87-77.67 94.78-98.623M883.253 875.751l.914 3.468-76.698-.149c-7.13-.011-29.116-.511-35.325.245l-1.104-1.082c.673-.761.946-1.061 1.514-1.89l.328-.967c7.361 1.106 36.396.861 45.483.64 20.664-.501 44.603.698 64.888-.265m112.099-90.269 1.932 1.786c.472 6.626-1.793 16.407-2.25 23.191a213.7 213.7 0 0 0 10.656 82.328c8.95 26.207 23.29 49.648 40.72 71.377 9.38 11.687 26.1 24.559 37.12 35.196l.99 3.27c-20.17-7.44-54.31-53.181-65.51-72.042-23.341-39.296-35.858-100.521-23.658-145.106"/><path fill="#2c3848" d="M844.873 170.876c1.501.899 2.815 1.574 4.356 2.368 3.039.475 1.69 3.177 1.152 5.336-1.446 5.79 3.512 12.833 5.96 17.8 3.103 6.208 9.216 10.117 12.979 14.524 22.094 15.01 62.091 37.37 39.447 71.431-2.267 3.411-6.938 8.185-8.243 11.812l-.196 1.924c-1.831 4.751-3.011 5.403-6.972 8.55-1.988 8.946-.595 11.138-1.272 18.688 3.039-.376 11.072-1.521 13.411.979l-.376 1.376c-1.325.494-1.861.496-3.314.718l-.661 1.46c.046 8.133.56 25.025-.574 32.448l-.152 2.706 21.597.061c-1.399 4.67-2.12 8.646-5.094 12.422l-3.084.643.383 1.873c.693 5.113.009 8.747-.552 13.852l-.619 2.064c.228 17.563-.034 35.432.063 53.044-13.372-.009-28.493-.318-41.767.215l-2.57.033c-16.022-.701-33.602.012-49.809-.306l-2.128.611c-9.706-1.478-30.422-.637-41.232-.828.033-8.219-.914-47.663.124-52.615l.21-1.853c-1.591-4.412-.925-9.747-.643-14.44l-.901-1.729c-1.47.096-1.711-.088-3.189-.37-3.481-3.887-5.174-8.631-7.347-13.451l13.797-.048c3.025-.109 6.469.227 8.797-1.373a811 811 0 0 0-.473-32.832l.206-1.636c-1.87-.571-1.934-.755-3.667-1.73l.501-1.405c5.018-1.63 8.606-1.464 13.854-1.683l.272-9.145c.42-10.771-3.321-7.018-8.526-15.147l2.767-3.242c-29.305-28.012-14.635-49.929 13.453-68.846 5.737-6.576 20.388-12.18 25.928-21.749 2.686-4.64 14.02-19.07 11.331-24.884-1.581-3.419-2.166-4.85 1.749-7.036z"/><path fill="#4a5361" d="M844.873 170.876c1.501.899 2.815 1.574 4.356 2.368 3.039.475 1.69 3.177 1.152 5.336-1.446 5.79 3.512 12.833 5.96 17.8 3.103 6.208 9.216 10.117 12.979 14.524 22.094 15.01 62.091 37.37 39.447 71.431-2.267 3.411-6.938 8.185-8.243 11.812q-54.569.25-109.136-.166c-29.305-28.012-14.635-49.929 13.453-68.846 5.737-6.576 20.388-12.18 25.928-21.749 2.686-4.64 14.02-19.07 11.331-24.884-1.581-3.419-2.166-4.85 1.749-7.036z"/><path fill="url(#a)" d="M844.873 170.876c1.501.899 2.815 1.574 4.356 2.368 3.039.475 1.69 3.177 1.152 5.336-1.446 5.79 3.512 12.833 5.96 17.8 3.103 6.208 9.216 10.117 12.979 14.524l.83 2.574c.966 2.944 2.666 3.8.167 6.191l-.788-.71c.61-1.892 1.077-5.255-2.016-4.399-1.594-1.829-2.945-2.867-5.54-2.249-2.2.523-3.504-2.766-5.564-2.689-.931 2.007 4.812 12.824-.941 17.014-1.257-1.709-1.235-2.069-3.302-2.591-.399-.527-.852-.978-.972-1.646-.17-.936-.276-1.882-.519-2.806-.387-1.47-.735-2.522-.41-4.051.263-1.231.554-2.261.356-3.523-.254-1.614-.209-3.433-.614-4.984-.267-1.023-.616-2.007-.635-3.073-.022-1.267.054-2.622-.983-3.57-.259-.236-.608-.501-.987-.383-.578.18-.83.629-1.113 1.122-.252.44-.518 1.079-.934 1.405-.168.132-.345.197-.556.127-.228-.075-.473-.707-.527-.865-.247-.716-.266-1.363-.812-1.888-3.024-.431-1.899 16.378-3.22 16.581-1.602-1.238 1.603-10.504-.768-11.709-2.589 1.009-.872 3.445-1.978 4.714-1.356.059-1.118-.077-1.789-1.314-1.518-.718-2.706 4.541-4.255 4.729-1.069.13-2.948.73-2.673 2.063.117.569.357 1.118.023 1.721-1.783.326-1.201-2.846-3.369.376l-1.326 1.537c-.972 1.079-1.671 2.175-2.282 3.485-4.319-.674-2.964.128-6.548 2.154-4.291-2.018-4.401 7.101-12.438 7.423l.63-1.993c2.069-1.636 1.578-1.674 1.374-4.542 5.737-6.576 20.388-12.18 25.928-21.749 2.686-4.64 14.02-19.07 11.331-24.884-1.581-3.419-2.166-4.85 1.749-7.036z"/><path fill="#a8afbb" d="M825.431 217.071c-.191.707-11.212 24.865-10.854 24.407-5.447 6.965-10.874 46.749-13.478 49.099l-.376.067c-1.246-1.408 1.623-12.293 2.111-14.199l.961-3.923c1.565-6.401 1.203-12.026 3.789-18.859 2.089-5.518 6.07-9.554 5.923-15.329-.045-1.787 7.01-13.453 8.316-16.241.611-1.31 1.31-2.406 2.282-3.485z"/><path fill="#9aa0b0" d="m869.529 218.959.788.71c-1.416 2.828-4.392 8.999-4.446 11.829-.157 6.285-3.571 7.352-1.169 14.016.855 2.373 1.833 9.672 2.458 12.48 1.876 8.423-.487 17.038 1.561 25.51.095.394 1.111 6.242.808 6.876-2.331 1.155-3.484-.628-3.281-2.875-.521-8.52-.147-16.622-.377-25.004-.111-7.469-4.88-16.78-3.209-24.002 1.759-7.602 1.69-13.195 6.867-19.54"/><path fill="#2c3848" d="M852.166 224.045c2.067.522 2.045.882 3.302 2.591-3.011 13.669-1.183 21.65.924 35.049.763 4.846-.606 13.577-.68 19.172-.476-.434-1.364-1.319-1.949-1.635 1.13-8.989 1.274-20.313-.416-29.244-1.661-8.774-.488-16.862-1.181-25.933"/><path fill="#a8afbb" d="m803.467 229.677-.63 1.993c-2.131 2.979-8.025 15.43-9.554 16.959-3.385 3.386-8.437 24.366-8.744 24.551-5.537-8.983 14.277-34.83 13.197-37.499 1.139-2.063 3.956-4.382 5.731-6.004"/><path fill="#4a5361" d="m855.712 280.857.015.585-.278.268.126.743-.098.131c-.227-.766-.237-1.385-1.01-1.786-.461.395-.942 1.513-1.44 1.596l.498-.578-.607-.889c.158-.742.395-.962.845-1.705.585.316 1.473 1.201 1.949 1.635"/><path fill="#9aa0b0" d="M834.503 227.817c2.942 2.728.465 21.154-.838 24.162-4.666 10.779-.742 17.642-1.845 28.019l-.168 1.495c-.116 1.173-.143 9.051-2.182 8.946-.529-1.175.563-18.38.45-22.97-3.28 5.809-1.604 11.581-3.018 18.03.114-.523-.107 7.035-2.388 4.358-1.034-1.214.459-4.56.574-6.342.265-4.127.92-8.989 2.04-13.039.613-2.429 1.517-5.598 1.912-7.993.689-4.176 1.902-7.911 2.871-11.997 1.736-7.325 2.014-15.176 2.592-22.669m39.206-9.035-.074 1.27c-.123 2.521-2.175 5.857-2.943 8.951-1.86 5.802.922 8.75 2.168 14.533 2.635 12.235 4.281 23.88 4.199 36.467-.026 3.961.864 7.029.582 11.616-4.01-6.601-2.974-24.778-3.894-33.108-2.271-20.539-10.276-21.031-.038-39.729m5.872 4.97c.147 5.108.145 2.688-1.323 6.845-.798 6.433 4.01 12.906 4.824 20.37 1.35 12.369 5.529 28.352 3.462 40.649-2.324-4.492-2.935-22.395-3.637-28.108-1.252-10.189-2.509-19.413-6.467-29.13-1.407-3.455 1.855-7.54 3.141-10.626m-83.802 12.337c-.245 1.296-.168 1.199-.936 2.32a102.6 102.6 0 0 0-7.552 12.81c-3.799 7.504-7.091 11.887-5.573 20.766.205 1.2 3.803 6.627 1.011 6.566-1.224-2.057-2.249-4.233-3.318-6.382-1.027-5.349-1.264-14.671 1.077-19.522l1.551-3.227c.714-1.471 1-2.187 2.554-2.707-.162 1.812-1.842 5.445-1.212 6.471 1.668-.712 4.99-11.051 12.398-17.095"/><path fill="#a8afbb" d="M842.301 226.721c3.758 3.203 2.105 56.828 1.146 64.86-3.467-8.955.201-22.444-.491-31.581-.865-11.418-.992-21.77-.655-33.279m32.16-1.894c2.786 3.041-2.221 4.667.02 10.783 5.274 14.387 8.817 40.814 7.152 55.588-2.051-2.784-1.491-5.261-1.732-8.699-.941-13.401-1.519-26.896-4.995-39.984-2.748-10.343-3.918-7.699-.445-17.688m-35.956 2.999c3.268 3.106.148 17.926.722 23.172 1.286 11.749 1.246 27.853.284 39.731-2.913-1.706-1.464-55.42-1.006-62.903m-26.797 9.953c.002 5.186-16.075 35.983-17.294 43.713-.325 2.058-.713 7.349-2.007 8.658-3.021-5.655-1.971-4.37.792-11.148 4.924-12.081 10.124-31.201 18.509-41.223"/><path fill="#9aa0b0" d="M884.029 230.038c2.868 2.445 9.976 28.156 9.779 32.463-.353 7.705-1.582 19.751-2.303 27.864-3.046-4.009-1.299-13.23-.155-17.86 1.844-7.464.031-15.241-1.891-22.52l-1.027-4.006c-1.491-5.661-4.16-10.366-4.403-15.941m8.103 1.848c4.203 4.916 9.868 22.429 10.092 29.113.267 7.937-2.045 18.178-2.6 26.326-4.327-4.04 4.44-27.317-1.457-35.829 1.247 1.799-6.181-20.236-6.035-19.61"/><path fill="#a8afbb" d="M866.398 237.86c4.198 3.685 7.012 45.803 7.391 53.363-5.034-3.851-2.868-25.603-3.921-31.679-1.299-7.492-3.805-14.07-3.47-21.684"/><path fill="#9aa0b0" d="M888.425 270.716c-.741-9.473-2.314-18.291-4.77-27.433-1.084-4.034-3.932-8.505-3.224-12.287-.195.995 2.466-4.658 2.272-4.273l.413-.018c.752 1.865.51 1.132.913 3.333l-.948.618c-3.654 2.308 3.935 13.493 4.014 19.305.046 3.421 5.544 19.305 1.459 22.526-.233-.517-.109-1.21-.129-1.771m-52.986-17.974c.643 5.05 1.46 35.399-1.083 38.434-1.337-4.639-.641-32.958 1.083-38.434"/><path fill="#a8afbb" d="M801.5 266.729c.847 5.797-1.226 9.608-2.452 15.315l-.878 3.987c-.674 2.947-.512 2.522-1.562 5.287-1.857-6.635 2.505-18.197 4.892-24.589"/><path fill="#9aa0b0" d="M859.506 287.264c.382.998.229 1.038-.013 2.242-.763-.314-.888-.235-1.097-.71.31-.561.691-1.017 1.11-1.532"/><path fill="#2c3848" d="M791.388 293.981q54.567.416 109.136.166l-.196 1.924c-1.831 4.751-3.011 5.403-6.972 8.55-1.988 8.946-.595 11.138-1.272 18.688 3.039-.376 11.072-1.521 13.411.979l-.376 1.376c-1.325.494-1.861.496-3.314.718l-.661 1.46c.046 8.133.56 25.025-.574 32.448-17.968-1.172-43.999.348-62.672-.29-9.131-.312-44.62-.453-51.444.801a811 811 0 0 0-.473-32.832l.206-1.636c-1.87-.571-1.934-.755-3.667-1.73l.501-1.405c5.018-1.63 8.606-1.464 13.854-1.683l.272-9.145c.42-10.771-3.321-7.018-8.526-15.147z"/><path fill="#2c3848" d="M791.388 293.981q54.567.416 109.136.166l-.196 1.924c-1.831 4.751-3.011 5.403-6.972 8.55-1.988 8.946-.595 11.138-1.272 18.688 3.039-.376 11.072-1.521 13.411.979l-.376 1.376c-1.325.494-1.861.496-3.314.718l-.661 1.46-115.163.127.206-1.636c-1.87-.571-1.934-.755-3.667-1.73l.501-1.405c5.018-1.63 8.606-1.464 13.854-1.683l.272-9.145c.42-10.771-3.321-7.018-8.526-15.147z"/><path fill="#cecdcc" d="M791.388 293.981q54.567.416 109.136.166l-.196 1.924q-36.49.645-72.986.442c-10.019.033-29.498-.327-38.721.71zm107.452 31.256 2.965 1.145-.661 1.46-115.163.127.206-1.636c25.813-1.644 55.792.46 81.842-.283 6.397-.182 25.316.502 30.811-.813"/><path fill="#2c3848" d="M892.084 323.309c3.039-.376 11.072-1.521 13.411.979l-.376 1.376c-1.325.494-1.861.496-3.314.718l-2.965-1.145c-1.735-.479-6.838-.442-7.218-.936.081-.441-.016-.142.462-.992"/><path fill="#cecdcc" d="M809.887 302.452c2.891 4.787 1.891 13.473 1.479 19.222-4.392-3.118-2.642-14.442-1.479-19.222m63.36 1.897c4.509 1.942 2.436 12.242 2.263 17.265-4.672-.264-2.459-13.217-2.263-17.265"/><path fill="#f2eeef" d="M851.235 304.47c4.04 2.974 2.527 12.161 2.339 17.078-4.72-.739-2.568-13.008-2.339-17.078"/><path fill="#fffefe" d="M832.271 303.704c3.41 2.804 1.882 13.418 1.37 17.652-3.601-2.833-1.923-13.44-1.37-17.652"/><path fill="#cecdcc" d="M883.489 335.621q1.01.204 2.023.377c8.117 1.354 5.319 8.764 4.385 15.781-10.063.665-7.561-6.042-6.408-16.158"/><path fill="#29354b" d="M886.229 337.592c3.826 3.307 2.375 8.013 1.328 12.604-2.698-2.421-1.45-9.068-1.328-12.604"/><path fill="#cecdcc" d="M829.173 332.044c.723 1.771 4.207 12.522 5.684 12.408 1.444-1.73-.975-8.824 2.073-7.964.781.22 2.968 20.811-2.863 13.675l-3.096.729c-4.257 2.499-1.889-16.137-1.798-18.848"/><path fill="#29354b" d="M830.971 350.892c.296-.868 2.245-6.861 2.868-2.174l.228 1.445z"/><path fill="#cecdcc" d="M797.078 352.234c-.815-1.293-2.83-15.789-.36-15.352 1.136.928 1.089 1.429 1.581 2.955 1.906.444 1.719.531 3.461-.325.172-.712.246-1.472.676-2.05 1.545.008.277 11.617-.526 13.411-.346.775-1.448.219-1.891.085z"/><path fill="#333f4f" d="M797.078 352.234c.806-3.2 1.214-7.885 2.79-2.671l.151 1.395z"/><path fill="#5c6372" d="m801.76 339.512-.409 1.283c-1.375 4.543-2.482 2.321-3.052-.958 1.906.444 1.719.531 3.461-.325"/><path fill="#f2eeef" d="M872.719 337.878c.806-.243.54-.23.917-.191.819.662 1.226 13.243-.233 13.604l-.582-.323-3.123.847c-2.297-3.026-2.66-13.023-1.199-13.861.447.029.535.155 1.026.415z"/><path fill="#cecdcc" d="M872.719 337.878c.806-.243.54-.23.917-.191.819.662 1.226 13.243-.233 13.604l-.582-.323c-1.16-5.113-1.184-7.96-.102-13.09"/><path fill="#29354b" d="m869.525 338.369 3.194-.491c-1.082 5.13-1.058 7.977.102 13.09l-3.123.847c.368-5.064.628-8.461-.173-13.446"/><path fill="#a8afbb" d="M848.076 335.786c1.491-.938 3.825-.044 5.314.354 3.7 1.01 3.174 13.075-.309 17.038-1.838-4.942-1.827-7.487-2.84-12.494-.453-2.938-.293-2.795-2.165-4.898"/><path fill="#333f4f" d="M848.076 335.786c1.491-.938 3.825-.044 5.314.354-.998 5.964-.647 10.981-.309 17.038-1.838-4.942-1.827-7.487-2.84-12.494-.453-2.938-.293-2.795-2.165-4.898"/><path fill="#cecdcc" d="M810.19 336.306c4.921 2.185 2.81 11.246 2.414 16.133-4.454-2.566-2.561-11.014-2.414-16.133m37.886-.52c1.872 2.103 1.712 1.96 2.165 4.898-.106 2.292.134 9.815-1.014 10.671-2.749 2.047-1.961-12.839-1.151-15.569"/><path fill="#f2eeef" d="M816.363 336.635c3.283 2.856 1.842 12.081 1.2 16.075-3.888-5.948-2.084-9.415-1.2-16.075"/><path fill="#2c3848" d="M786.454 360.801c6.824-1.254 42.313-1.113 51.444-.801 18.673.638 44.704-.882 62.672.29l-.152 2.706 21.597.061c-1.399 4.67-2.12 8.646-5.094 12.422l-3.084.643.383 1.873c.693 5.113.009 8.747-.552 13.852-21.785-1.28-50.356-.413-72.609-.331-19.212.071-46.477-.602-65.119.696-1.591-4.412-.925-9.747-.643-14.44l-.901-1.729c-1.47.096-1.711-.088-3.189-.37-3.481-3.887-5.174-8.631-7.347-13.451l13.797-.048c3.025-.109 6.469.227 8.797-1.373"/><path fill="#2c3848" d="M775.297 377.772c45.207.995 93.51.243 138.923.223.693 5.113.009 8.747-.552 13.852-21.785-1.28-50.356-.413-72.609-.331-19.212.071-46.477-.602-65.119.696-1.591-4.412-.925-9.747-.643-14.44"/><path fill="#cecdcc" d="M774.396 376.043c16.12-1.711 53.597-.538 71.412-.601 15.367-.055 54.102-.871 68.029.68l.383 1.873c-45.413.02-93.716.772-138.923-.223zm12.058-15.242c6.824-1.254 42.313-1.113 51.444-.801 18.673.638 44.704-.882 62.672.29l-.152 2.706c-28.232.683-57.035-.549-85.317-.114-12.176.188-25.356.097-37.444-.708 3.025-.109 6.469.227 8.797-1.373"/><path fill="#2c3848" d="M871.493 393.885q20.778.219 41.556.026c.228 17.563-.034 35.432.063 53.044-13.372-.009-28.493-.318-41.767.215.06-17.468-.198-35.942.148-53.285"/><path fill="#f2eeef" d="M885.856 409.291q6.488.054 12.972.28l.186 24.712-13.308-.015c.093-8.219-.062-16.847.15-24.977"/><path fill="#333f4f" d="M888.778 411.974c1.161.138 6.348.192 6.703 1.376 1.393 4.638 1.241 14.108.054 18.711-.997-.218-6.038-1.067-6.354-1.537-1.511-2.246-.526-16.796-.403-18.55"/><path fill="#2c3848" d="M775.73 394.065c13.101.308 27.289.112 40.446-.062.023 12.028-.744 42.733.662 53.505-9.706-1.478-30.422-.637-41.232-.828.033-8.219-.914-47.663.124-52.615"/><path fill="#f2eeef" d="M789.03 409.199q6.506-.168 13.009.119c.009 8.546-.728 16.395 1.374 24.686l-14.442.083c.072-8.247-.089-16.713.059-24.888"/><path fill="#333f4f" d="M791.501 411.858c12.634.469 8.223 4.286 8.191 18.97-1.398.065-7.106.522-7.577-.673-.947-2.401-.582-15.525-.614-18.297"/><path fill="#cecdcc" d="M775.94 392.212c18.642-1.298 45.907-.625 65.119-.696 22.253-.082 50.824-.949 72.609.331l-.619 2.064q-20.778.192-41.556-.026c-.346 17.343-.088 35.817-.148 53.285l-2.57.033q-.467-26.661-.428-53.327l-49.267.067-.114 52.954-2.128.611c-1.406-10.772-.639-41.477-.662-53.505-13.157.174-27.345.37-40.446.062z"/><path fill="#fffefe" d="M837.344 409.214q6.401-.035 12.802.121l.13 25.174c-4.631-.219-8.491-.121-13.082-.035q.357-12.628.15-25.26"/><path fill="#333f4f" d="M840.119 411.601c.957.113 6.447.407 6.706 1.08 1.567 4.073.771 14.33.728 18.566-.746-.038-6.832.042-6.972-.62-1.045-4.962-.544-13.935-.462-19.026"/><path fill="#2c3848" d="M1168.18 222.524c9.39-6.712 37.03-25.412 35.31-43.621-.26-2.741-3.71-4.51.66-6.76 2.17-.073 4.03-.283 6.19-.504l.93.794c2.9 2.324.17 6.26-.27 9.073.41 1.178 1.75 4.917 2 6.009 2.03 8.883 7.63 12.365 11.18 17.633 32.55 25.397 76.17 43.141 37.26 88.631l1.07 2.782.57 2.437c-2.54 2.734-5.25 2.642-9.54 3.494-.03 6.128-.37 14.002.73 19.85 2.25-.218 12.07-1.327 12.9 1.715-.83.587-.82.507-1.85.649l-1.33 2.529c-.36 6.54-.98 27.472.02 33.574l.04 2.182 25.56.016c-4.23 4.132-8.92 11.768-11.72 12.883l-.97 1.678c-.42 4.602-.81 9.207-1.18 13.814-1.11.937-1.35.871-.97 2.291 1.13 12.314.31 39.397.28 52.914-12.42.072-28.77-.402-40.92.387l-2.53-.294c-14.47.258-35.66.794-49.72.071-.94-.13-1.71-.254-2.65-.31-8.37 1.121-31.91.574-41.36.546.02-11.439-.71-42.952.37-53.008.1-.878.22-1.546.19-2.411l-.75-5.014q-.735-5.16-1.62-10.3c-3.74-1.501-7.44-9.341-9.65-13.156 7.37-.083 14.86-.013 22.24-.017-.62-4.14-.15-7.448.16-11.592.01-8.109-.13-16.292.58-24.362l.23-.737-1.77-1.243-.11-2.294c3.07-1.897 7.47-1.653 11.23-1.856.13-5.745.53-11.197-.41-16.851-2.51-1.322-4.68-2.092-6.26-4.381.47-2.754-.05-1.475 2.19-3.607l.38-1.492c-4.41-3.137-7-6.031-10.06-10.577a36.1 36.1 0 0 1-5.38-28.185c3.58-16.306 15.74-25.088 28.75-33.38"/><path fill="#5c6372" d="M1168.18 222.524c9.39-6.712 37.03-25.412 35.31-43.621-.26-2.741-3.71-4.51.66-6.76 2.17-.073 4.03-.283 6.19-.504l.93.794c2.9 2.324.17 6.26-.27 9.073.41 1.178 1.75 4.917 2 6.009 2.03 8.883 7.63 12.365 11.18 17.633 32.55 25.397 76.17 43.141 37.26 88.631-24.15 1.79-52.41-.21-76.96.363-7.12.166-23.14-.568-29.61.524-4.41-3.137-7-6.031-10.06-10.577a36.1 36.1 0 0 1-5.38-28.185c3.58-16.306 15.74-25.088 28.75-33.38"/><path fill="#333f4f" d="M1168.18 222.524c9.39-6.712 37.03-25.412 35.31-43.621-.26-2.741-3.71-4.51.66-6.76 2.17-.073 4.03-.283 6.19-.504l.93.794c2.9 2.324.17 6.26-.27 9.073.41 1.178 1.75 4.917 2 6.009 2.03 8.883 7.63 12.365 11.18 17.633 2.79 4.18 6.62 6.567 3.44 12.022-1.02.49-3.85-9.509-6.01-8.823-5.53 1.75-3.01-2.917-5.13-3.765l-1.03.831c-.18 1.974-.08 2.942.53 4.749.63 14.408-1.55 24.831-2 38.801-4.57-1.417 2.69-32.598-.08-37.963-.3-.573-.26-16.933-4.18-14.338-.22.671-.13 1.202-.27 1.602-.43 1.264-2.22-.48-2.9.537-1.7 2.558.34 8.236-1.65 10.053l-.35-.043c-.83-1.15-.1-2.934-1.06-3.968l-.36.096c-1.29 1.27-1.1 4.765-2.58 4.726a1.36 1.36 0 0 1-.39-.766c-1.11-7.522-9.21 3.182-12.8 4.278-5.5 1.678-8.72 7.423-12.09 11.465-.18.209-.68.096-.9.032-.35-.662.23-1.352.18-2.073-.47-.348-5.49-.071-6.37-.077"/><path fill="#9aa0b0" d="M1215.98 210.162c.05-.047.47-.526.7-.414 1.24.609.87 2.664.96 3.755.1 1.383.22 2.692.66 4.026.74 5.112-.59 11.816-1.34 16.985-.19 1.257-.34 2.214-.39 3.479-.04.802-.43 2.868-.52 3.514-.47 3.5.59 6.874 1.22 10.408.26 1.508.28 1.869.37 4.074.25 5.868.32 4.419.89 11.113.45 5.28 1.59 17.672.91 23.375 0 .001-.44.28-.75.05-.51-.376-.55-1.474-.57-2.049 0-.657 0-1.314.01-1.972-1.17-11.318-1.82-22.738-3-34.046-.19-1.797-.23-2.03-1.15-3.497.45-13.97 2.63-24.393 2-38.801"/><path fill="#a8afbb" d="M1201.53 211.748c.17 3.561-7.51 78.784-8.04 79.897-3.81-9.69 5.57-54.071 4.79-66.959-.21-3.567 1.93-9.566 3.25-12.938"/><path fill="#2c3848" d="M1187.7 219.035c-.07 1.536-10.64 17.34-11.7 23.975-.96 6.089-4.27 18.482-6.21 24.509-2.39 7.392-1.16 14.657-2.68 19.877l-.56 1.866c-2.28-16.049 8.71-59.427 21.15-70.227"/><path fill="#9aa0b0" d="M1158.8 233.999c.17.239.34.479.52.719-3.71 6.143-7.64 14.564-11.12 20.584-3.99 6.9-1.03 15.617-3.48 19.234l-.17-.031c-1.17-4.079-2.4-17.627-.95-22.244.79-1.721 5.72-12.908 7.43-12.386.63 1.301-5.46 11.053-6.11 14.015-2.77 12.51 3.08-.752 4.28-4.229 1.48-4.318 6.61-11.626 9.6-15.662"/><path fill="#a8afbb" d="M1203.36 258.736c.73 5.173 1.33 28.388-.75 32.758-1.69-6.183-.96-26.639.75-32.758"/><path fill="#2c3848" d="M1183.5 242.615c.15 3.437-3.97 35.762-4.9 39.671-1.59-9.233 1.91-30.589 4.9-39.671m77.94 51.164 1.07 2.782.57 2.437c-2.54 2.734-5.25 2.642-9.54 3.494-.03 6.128-.37 14.002.73 19.85 2.25-.218 12.07-1.327 12.9 1.715-.83.587-.82.507-1.85.649l-1.33 2.529c-.36 6.54-.98 27.472.02 33.574l.04 2.182c-36.94 1.017-78.23.154-115.4.09-.62-4.14-.15-7.448.16-11.592.01-8.109-.13-16.292.58-24.362l.23-.737-1.77-1.243-.11-2.294c3.07-1.897 7.47-1.653 11.23-1.856.13-5.745.53-11.197-.41-16.851-2.51-1.322-4.68-2.092-6.26-4.381.47-2.754-.05-1.475 2.19-3.607l.38-1.492c6.47-1.092 22.49-.358 29.61-.524 24.55-.573 52.81 1.427 76.96-.363"/><path fill="#2c3848" d="m1261.44 293.779 1.07 2.782.57 2.437c-2.54 2.734-5.25 2.642-9.54 3.494-.03 6.128-.37 14.002.73 19.85l-.15 1.921c-34.44.492-71.87 1.646-106.27.884l-.11-2.294c3.07-1.897 7.47-1.653 11.23-1.856.13-5.745.53-11.197-.41-16.851-2.51-1.322-4.68-2.092-6.26-4.381.47-2.754-.05-1.475 2.19-3.607l.38-1.492c6.47-1.092 22.49-.358 29.61-.524 24.55-.573 52.81 1.427 76.96-.363"/><path fill="#cecdcc" d="m1261.44 293.779 1.07 2.782c-32.26-1.755-77.3 2.736-108.02-.403l.38-1.492c6.47-1.092 22.49-.358 29.61-.524 24.55-.573 52.81 1.427 76.96-.363m-46.19 9.748c4.14 3.205 2.6 12.979 2.18 18.002-5.24-.322-2.68-14.023-2.18-18.002m-21.6-.078c3.68 3.991 2.44 14.021 1.54 19.033-3.94-3.085-2.26-14.422-1.54-19.033"/><path fill="#fffefe" d="M1172.21 303.689c3.66 3.093 2.05 14.157 1.29 18.469-3.72-3.694-2.33-13.593-1.29-18.469"/><path fill="#cecdcc" d="M1235.91 302.572c3.41 3.88 2.27 14.41 1.6 19.27-3.77-3.781-2.23-14.134-1.6-19.27m18.36 19.77c2.25-.218 12.07-1.327 12.9 1.715-.83.587-.82.507-1.85.649l-1.33 2.529c-25.87-.95-55.96 1.468-82.09.822-7.67-.189-25.78.892-32.51-.93l.23-.737-1.77-1.243c34.4.762 71.83-.392 106.27-.884z"/><path fill="#4a5361" d="M1254.27 322.342c2.25-.218 12.07-1.327 12.9 1.715-.83.587-.82.507-1.85.649-4.39-.42-6.77-.464-11.2-.443z"/><path fill="#a8afbb" d="M1148.65 363.081c-.62-4.14-.15-7.448.16-11.592.26 3.554-.19 6.015 1.48 8.558 34.55 2.293 77.48-1.153 113.72.762l.04 2.182c-36.94 1.017-78.23.154-115.4.09"/><path fill="#cecdcc" d="M1175.98 350.901c-6.5 2.761-3.11-12.539-2.66-13.447.55-.247 1.21.078 1.73.287l1.16.422 2.02-.209c4.02-1.302 5.08 14.336.28 13.192z"/><path fill="#cecdcc" d="M1175.98 350.901c-6.5 2.761-3.11-12.539-2.66-13.447.55-.247 1.21.078 1.73.287l1.16.422c-.67 4.587-.78 8.167-.23 12.738"/><path fill="#29354b" d="m1176.21 338.163 2.02-.209c-.31 5.578-.44 7.846.28 13.192l-2.53-.245c-.55-4.571-.44-8.151.23-12.738"/><path fill="#a8afbb" d="M1249.03 335.848c4.58 1.46 3.22 13.981 2.42 15.581-.87-.032-1.81-.366-2.63-.592l-2.3.429c-3.85 5.883-3.24-14.664-.97-14.536.33.323.13.07.59.958 1.76-.691 1.73-.496 2.89-1.84"/><path fill="#a8afbb" d="M1246.52 351.266c-3.85 5.883-3.24-14.664-.97-14.536.33.323.13.07.59.958.27 4.731.42 8.838.38 13.578"/><path fill="#333f4f" d="M1246.14 337.688c1.76-.691 1.73-.496 2.89-1.84-.01 5.033.16 9.976-.21 14.989l-2.3.429c.04-4.74-.11-8.847-.38-13.578"/><path fill="#cecdcc" d="m1236.58 337.967.9-.209c2.71 3.732.68 21.19-6.95 12.82-.64-.695-2.65-12.368 2.26-13.752z"/><path fill="#333f4f" d="m1232.79 336.826 3.79 1.141c-.71 2.619-.46 11.992-2.71 11.664-1.51-1.588-1.01-10.062-1.08-12.805m-35.51.432c3.04.577 5.75 13.987-1.19 14.469l-1.46-.163c-.76-.012-1.69.107-2.37-.275-.52-1.524-.82-12.141.34-13.437l.15.023c.36.306.62.756.89 1.133 1.12-.492 2.66-1.084 3.64-1.75"/><path fill="#cecdcc" d="M1197.28 337.258c3.04.577 5.75 13.987-1.19 14.469 1.58-4.559.98-9.395 1.19-14.469"/><path fill="#fffefe" d="M1194.63 351.564c-.76-.012-1.69.107-2.37-.275-.52-1.524-.82-12.141.34-13.437l.15.023c.36.306.62.756.89 1.133.65 4.519.2 9.01.99 12.556"/><path fill="#cecdcc" d="m1159.74 336.067 3.46.941c5.24 4.089 1.39 23.813-4.94 12.018-1.21-2.249-.3-9.958 1.48-12.959"/><path fill="#5c6372" d="m1159.74 336.067 3.46.941c-1.92 4.511.78 11.51-1.53 12.589-2.36-.186-1.76-11.429-1.93-13.53"/><path fill="#f2eeef" d="M1210.43 336.663c3.14 2.539 2.16 11.673 2.48 16.087-5.11-2.316-2.97-10.812-2.48-16.087m6.48-.148c1.84 3.506 2.09 10.849.61 14.291-3.39-1.736-1.5-11.001-.61-14.291"/><path fill="#2c3848" d="m1264.05 362.991 25.56.016c-4.23 4.132-8.92 11.768-11.72 12.883l-.97 1.678c-.42 4.602-.81 9.207-1.18 13.814-18.61-.349-42.12-.75-60.58-.157-5.55 3.767-21.42.838-31.45 2.302-1.35.976-1.31 1.042-2.56 2.345-1.38-.656-1.74-1.383-2.56-2.646-6.34 1.257-32.46.744-40.35.753.1-.878.22-1.546.19-2.411l-.75-5.014q-.735-5.16-1.62-10.3c-3.74-1.501-7.44-9.341-9.65-13.156 7.37-.083 14.86-.013 22.24-.017 37.17.064 78.46.927 115.4-.09"/><path fill="#2c3848" d="m1264.05 362.991 25.56.016c-4.23 4.132-8.92 11.768-11.72 12.883-4.87-1.48-133.39-1.171-141.83.364-3.74-1.501-7.44-9.341-9.65-13.156 7.37-.083 14.86-.013 22.24-.017 37.17.064 78.46.927 115.4-.09"/><path fill="#cecdcc" d="M1136.06 376.254c8.44-1.535 136.96-1.844 141.83-.364l-.97 1.678c-33.37 1.108-67.79-.128-101.21.354-5.9.085-33.1-.434-37.1.726-.88 3.689-.85 4.054-.93 7.906q-.735-5.16-1.62-10.3m2.37 15.314c11.51-.996 32.29-.561 44.57-.487-2.37.804-2.38.772-4.41 2.145-6.34 1.257-32.46.744-40.35.753.1-.878.22-1.546.19-2.411"/><path fill="url(#b)" d="M1183 391.081c10.46-.045 21.77-.256 32.16.144-5.55 3.767-21.42.838-31.45 2.302-1.35.976-1.31 1.042-2.56 2.345-1.38-.656-1.74-1.383-2.56-2.646 2.03-1.373 2.04-1.341 4.41-2.145"/><path fill="#2c3848" d="M1138.24 393.979c7.89-.009 34.01.504 40.35-.753.82 1.263 1.18 1.99 2.56 2.646 1.53 8.651.77 40.304.73 50.879-.94-.13-1.71-.254-2.65-.31-8.37 1.121-31.91.574-41.36.546.02-11.439-.71-42.952.37-53.008"/><path fill="#cecdcc" d="M1178.59 393.226c.82 1.263 1.18 1.99 2.56 2.646 1.53 8.651.77 40.304.73 50.879-.94-.13-1.71-.254-2.65-.31-1.07-15.851 1.05-38.436-.64-53.215"/><path fill="#fffefe" d="M1150.97 409.113c4.38-.008 8.76.013 13.13.062-.28 8.642.16 16.974.02 25.612l-13.24.155c.13-8.668.05-17.183.09-25.829"/><path fill="#333f4f" d="M1153.77 412.076c12.98.367 8.14 4.011 8.04 18.983-1.42.037-7.14.42-7.56-.421-1.09-2.216-.51-15.882-.48-18.562"/><path fill="#2c3848" d="M1234.04 393.843c10.07.134 31.42.629 40.73-.17 1.13 12.314.31 39.397.28 52.914-12.42.072-28.77-.402-40.92.387-.83-14.941.03-37.404-.09-53.131"/><path fill="#fffefe" d="M1247.75 409.178c4.27-.008 8.53.057 12.8.197.19 8.294.28 16.591.26 24.888l-13.28-.001c.16-8.36.23-16.722.22-25.084"/><path fill="#2c3848" d="M1250.05 411.793c7.88.498 8.12-1.223 8.01 7.247-.06 4.378.03 8.564-.29 13-1.44-.084-6.55-.068-7.03-.871-1.33-2.232-.71-16.92-.69-19.376"/><path fill="#cecdcc" d="M1275.74 391.382c-1.11.937-1.35.871-.97 2.291-9.31.799-30.66.304-40.73.17.12 15.727-.74 38.19.09 53.131l-2.53-.294c-.23-17.627-.31-35.256-.25-52.885-14.47.087-33.42.656-47.64-.268 10.03-1.464 25.9 1.465 31.45-2.302 18.46-.593 41.97-.192 60.58.157"/><path fill="#f2eeef" d="M1200.22 409.749c4.24.042 8.41.177 12.65.275l.09 24.013c-4.27.06-8.53.072-12.8.034-.1-7.822-.29-16.559.06-24.322"/><path fill="#2c3848" d="M1203.01 412.372c.76.069 5.95.21 6.23.874 1.69 4.106.95 13.617.98 17.984-.83-.059-6.01-.123-6.3-.724-1.77-3.661-.92-14.113-.91-18.134"/><path fill="#ee071f" d="M1202.85 927.02c-19.58-19.029-39.43-41.139-52.55-65.649-2.16-4.021-22.42-5.377-25.46-12.926-4.02-5.564-8.02-20.375-1.85-25.109 10.33-7.933 25.53 3.05 31.76 9.75 10.5-12.236 25.05-15.186 37.35-3.429.98.956 1.94 1.94 2.87 2.952 11.14-12.177 25.19-15.998 38.07-3.168a78 78 0 0 1 3.13 3.334c10.85-12.051 24.54-15.998 36.97-3.314.79.824 1.56 1.673 2.3 2.546 12.81-11.564 25.87-15.532 38.95-1.137.85.955 1.69 1.932 2.49 2.931 11.95-15.351 25.89-15.857 39.22-1.483 36.13-34.079 46.88 20.777-.28 25.226-7.15 17.223-16.57 31.182-28.64 45.466-4.33 5.125-20.78 20.324-23 25.133-.47.903-.94 1.802-1.42 2.698-7.33 7.854-14.79 14.391-21.81 22.528-.67.35-1.16.817-1.75 1.305-11.85 1.535-42.11.136-55.79.403-.98-1.503-.89-1.362-1.37-3.153-2.43-4.277-14.24-16.374-18.64-22z"/><path fill="#ee071f" d="m1203.4 929.924 99.36.917c-7.33 7.854-14.79 14.391-21.81 22.528-.67.35-1.16.817-1.75 1.305-11.85 1.535-42.11.136-55.79.403-.98-1.503-.89-1.362-1.37-3.153-2.43-4.277-14.24-16.374-18.64-22"/><path fill="#feccd5" d="M1222.04 951.924c13.5.361 47.58-.738 58.91 1.445-.67.35-1.16.817-1.75 1.305-11.85 1.535-42.11.136-55.79.403-.98-1.503-.89-1.362-1.37-3.153"/><path fill="#f2eeef" d="m1202.85 927.02 61.51.02c12.37.055 27.8-.256 39.82 1.103-.47.903-.94 1.802-1.42 2.698l-99.36-.917z"/><path fill="#2c3848" d="M1331.44 294.727c5.51-.873 101.59-1.41 105.96.265l-.07.962 2.04 2.421c-1.69 4.732-6.06 4.443-6.4 5.723-.96 3.605-.45 13.636-.35 17.337 3.38.183 8.91.036 11.64 1.601l-.18 1.008c-3.48 3.408-2.13 4.07-2.46 10.069-.44 7.893 1.51 21.641-.42 28.885l23.75.064c-2.32 4.822-5.45 13.214-10.35 15.033l-.64.835c.33 3.914 1.04 9.524-.8 13.098l.37 2.005c.96 10.178.34 41.39.24 52.532-13.57.227-27.18-.042-40.8.197l-4.05-.158c-15.5.913-32.92-.206-48.83.429l-2.35-.322-41.4-.246c-.25-17.117-.56-35.603-.3-52.629l-.83-2.716q-.015-6.956.39-13.9l.47-.868-4.52-1.154c-2.51-5.813-3.79-7.349-7.46-12.262 7.79-.081 15.68.009 23.48.027-.39-5.316-.8-5.834.17-11.512.84-7.09-.31-14.997.78-23.353l.82-2.096-4.16-.969c1.32-3.599 9.41-2.303 13.08-2.378-.01-4.779.56-15.885-1.29-19.614-5.11-1.142-5.17-.871-6.19-5.555z"/><path fill="#2c3848" d="M1331.44 294.727c5.51-.873 101.59-1.41 105.96.265l-.07.962 2.04 2.421c-1.69 4.732-6.06 4.443-6.4 5.723-.96 3.605-.45 13.636-.35 17.337 3.38.183 8.91.036 11.64 1.601l-.18 1.008c-3.48 3.408-2.13 4.07-2.46 10.069-.44 7.893 1.51 21.641-.42 28.885-35.91.413-78.11 1.487-113.63-.035-.39-5.316-.8-5.834.17-11.512.84-7.09-.31-14.997.78-23.353l.82-2.096-4.16-.969c1.32-3.599 9.41-2.303 13.08-2.378-.01-4.779.56-15.885-1.29-19.614-5.11-1.142-5.17-.871-6.19-5.555z"/><path fill="#2c3848" d="M1331.44 294.727c5.51-.873 101.59-1.41 105.96.265l-.07.962 2.04 2.421c-1.69 4.732-6.06 4.443-6.4 5.723-.96 3.605-.45 13.636-.35 17.337 3.38.183 8.91.036 11.64 1.601l-.18 1.008c-7.16 1.771-22.31.737-30.32 1.106-26.66 1.23-58.13-.659-84.42.852l-4.16-.969c1.32-3.599 9.41-2.303 13.08-2.378-.01-4.779.56-15.885-1.29-19.614-5.11-1.142-5.17-.871-6.19-5.555z"/><path fill="#cecdcc" d="M1331.44 294.727c5.51-.873 101.59-1.41 105.96.265l-.07.962c-22.52 2.825-58.08-.382-81.72.776-6.18.302-19.29-.444-24.83.756z"/><path fill="#2c3848" d="M1325.18 325.033c1.32-3.599 9.41-2.303 13.08-2.378.41.614 1.21 1.371 1.42 1.823l-.38.497.4-.599-1.42.488c-2.67-.682-10.32-.093-13.1.169"/><path fill="#cecdcc" d="M1350.99 303.496c3.87 2.93 2.46 15.648.99 19.852-3.23-3.6-1.84-15.23-.99-19.852m64.33.263c3.67 3.008 2.2 14.823 1.22 19.077-3.6-4.855-2.73-13.542-1.22-19.077m-41.34-1.293c2.7 4.531 1.96 14.944.78 19.787-3.35-3.191-1.98-15.455-.78-19.787m19.41.966c4.55 1.998 2.62 13.538 2.37 18.135-1.99-1.238-2.5-1.521-2.49-4.013q-.03-7.061.12-14.122m-64.05 22.57c26.29-1.511 57.76.378 84.42-.852 8.01-.369 23.16.665 30.32-1.106-3.48 3.408-2.13 4.07-2.46 10.069-.44 7.893 1.51 21.641-.42 28.885-35.91.413-78.11 1.487-113.63-.035-.39-5.316-.8-5.834.17-11.512.03 3.75-.16 5.153 1.03 8.778 4.02.882 29.01.377 34.54.341 25.89-.221 51.79-.306 77.68-.256l-.02-32.87c-36.51 1.082-75.76.548-112.45.654z"/><path fill="#333f4f" d="M1370.9 336.894c4.24-1.526 3.65.033 7.62-1.059 1.41 4.149 3.05 14.224-.39 17.494-1.84.226-3.58.442-5.41.723-4.09-4.063-3.23-11.961-1.82-17.158"/><path fill="#cecdcc" d="M1370.9 336.894c4.59 2.84 2.63 12.308 1.82 17.158-4.09-4.063-3.23-11.961-1.82-17.158m7.23 16.435c-1.77-4.404-1.93-13.145.39-17.494 1.41 4.149 3.05 14.224-.39 17.494"/><path fill="#333f4f" d="m1354.84 336.822 1.34.251c6.01.934 4.25 11.023 2.98 15.121-3.07 1.308-3.26 1.31-6.32.027-1.26-3.826-3.01-13.723 2-15.399"/><path fill="#cecdcc" d="M1356.18 337.073c6.01.934 4.25 11.023 2.98 15.121-3.72-3.172-.4-8.722-2.98-15.121"/><path fill="#f2eeef" d="M1352.84 352.221c-1.26-3.826-3.01-13.723 2-15.399-.76 5.128.83 12.751-2 15.399"/><path fill="#29354b" d="M1394.89 337.662c4.47-1.733 1.81 13.863 1.38 16.275-2-.257-3.48-.39-5.47-.504-.9-2.4-2.81-16.223.63-15.516z"/><path fill="#cecdcc" d="M1394.89 337.662c4.47-1.733 1.81 13.863 1.38 16.275-3.49-3.814-2.12-11.315-1.38-16.275"/><path fill="#f2eeef" d="M1390.8 353.433c-.9-2.4-2.81-16.223.63-15.516.83 4.985 1.38 10.824-.63 15.516"/><path fill="#cecdcc" d="M1412.4 338.296c3.81-4.96 4.15 18.237.07 13.22l-2.76-.633c-3.71-.827-1.35-11.897-1.17-12.057.35-.069.1-.057.87.082z"/><path fill="#f2eeef" d="M1409.71 350.883c-3.71-.827-1.35-11.897-1.17-12.057.35-.069.1-.057.87.082.74 4.334.98 7.561.3 11.975"/><path fill="#333f4f" d="m1409.41 338.908 2.99-.612c-.52 5.442-.54 7.787.07 13.22l-2.76-.633c.68-4.414.44-7.641-.3-11.975"/><path fill="#f2eeef" d="M1425.26 352.344c-3.74.702-2.91-23.497 4.49-13.338.39.536 1.95 12.11-1.53 12.928z"/><path fill="#333f4f" d="M1425.26 352.344c.54-2.628.35-13.529 2.18-12.938 1.23 2.036.66 9.419.78 12.528zm-85.41-17.308 3.1 1.255c1.14 3.423 2.4 12.86-.21 15.5l-2.86.951c-3.24-3.825-2.7-13.454-.03-17.706"/><path fill="#f2eeef" d="M1339.85 335.036c.23 5.9.24 11.806.03 17.706-3.24-3.825-2.7-13.454-.03-17.706m3.1 1.255c1.14 3.423 2.4 12.86-.21 15.5-1.1-4.828-1.27-10.736.21-15.5"/><path fill="#2c3848" d="m1441.2 362.998 23.75.064c-2.32 4.822-5.45 13.214-10.35 15.033l-.64.835c.33 3.914 1.04 9.524-.8 13.098-11.56-1.536-37.34-.968-49.8-.982l-88.15.074q-.015-6.956.39-13.9l.47-.868-4.52-1.154c-2.51-5.813-3.79-7.349-7.46-12.262 7.79-.081 15.68.009 23.48.027 35.52 1.522 77.72.448 113.63.035"/><path fill="#2c3848" d="M1315.6 377.22c10.17 1.285 28.96.792 39.74.773l64.86-.12c7.51-.01 27.52-.43 33.76 1.057.33 3.914 1.04 9.524-.8 13.098-11.56-1.536-37.34-.968-49.8-.982l-88.15.074q-.015-6.956.39-13.9"/><path fill="#cecdcc" d="M1311.55 375.198c36.31-.744 72.82.1 109.15-.168 9.28-.068 26.12-1.154 33.9 3.065l-.64.835c-6.24-1.487-26.25-1.067-33.76-1.057l-64.86.12c-10.78.019-29.57.512-39.74-.773l.47-.868z"/><path fill="#2c3848" d="M1411.83 393.732c13.92.264 27.78-.038 41.7.301.96 10.178.34 41.39.24 52.532-13.57.227-27.18-.042-40.8.197-1.71-2.703-1.08-46.317-1.14-53.03"/><path fill="#f2eeef" d="M1426.94 409.088c4.29.062 8.58.151 12.86.267.1 8.214.02 16.457.27 24.659l-13.15.076c.08-8.334.09-16.668.02-25.002"/><path fill="#333f4f" d="M1429.65 412.056c.68.048 6.19.13 6.47.746 1.82 3.912.93 14.553.91 18.752-.63-.042-6.48.009-6.71-.912-1.25-4.93-.68-13.385-.67-18.586"/><path fill="#2c3848" d="m1316.04 393.836 41.6-.125c.05 15.572.79 37.887.1 53l-41.4-.246c-.25-17.117-.56-35.603-.3-52.629"/><path fill="#fffefe" d="m1329.67 409.977 13.32.048.04 24.259c-4.37.021-8.75.077-13.13.17.03-8.159-.05-16.319-.23-24.477"/><path fill="#2c3848" d="M1332.84 412.744c.59.029 6.41-.003 6.64.702 1.39 4.254.74 13.279.74 17.843-.87-.054-6.69-.019-6.85-.767-1.09-5.017-.53-12.546-.53-17.778"/><path fill="#cecdcc" d="m1315.21 391.12 88.15-.074c12.46.014 38.24-.554 49.8.982l.37 2.005c-13.92-.339-27.78-.037-41.7-.301.06 6.713-.57 50.327 1.14 53.03l-4.05-.158c.68-15.35.08-37.238.02-52.966-16.27.231-32.55.264-48.83.098-.02 17.439-.34 35.994-.02 53.297l-2.35-.322c.69-15.113-.05-37.428-.1-53l-41.6.125z"/><path fill="#f2eeef" d="M1378.33 409.126c4.22-.039 8.45-.007 12.68.098.15 8.303.19 16.608.15 24.912q-6.57.005-13.14.091c.01-8.284-.17-16.859.31-25.101"/><path fill="#2c3848" d="M1381.27 412.2c11.61.735 7.6 6.225 7.47 18.947-1.12-.055-7.35.109-7.57-.882-.98-4.345-.71-13.878.1-18.065m-161.48 1270.55c36.94-2.33 91.44-.54 129.92-.62l49.89-.09c7.38 0 21.79-.49 28.58.92l.32 3.06c-4.72 4.24-22.71 9.82-30.13 14.25-34.18 20.39-58.9 53.8-63.8 93.77-4.42 38.42 12.72 69.95 52.22 78.01-24.37 11.79-37.22 25.43-46.31 51.77a161.4 161.4 0 0 0-7.3 32.71c-.39 3.56-.57 15.21-2.81 17.19l-15.27.26c-.1-29.13-6.37-66.14-29.29-86.48-6.6-5.86-13.29-9.85-20.87-14.36 7.35-2.96 14.7-6.15 20.58-11.28 36.91-32.25 24.07-97.54-4.71-130.82-11.17-12.91-41.39-40.09-57.72-41.64-2.03-1.46-2.24-1.47-3.75-3.42z"/><path fill="#2c3848" d="M1219.79 1682.75c36.94-2.33 91.44-.54 129.92-.62l49.89-.09c7.38 0 21.79-.49 28.58.92l.32 3.06c-4.72 4.24-22.71 9.82-30.13 14.25-34.18 20.39-58.9 53.8-63.8 93.77-4.42 38.42 12.72 69.95 52.22 78.01-24.37 11.79-37.22 25.43-46.31 51.77a161.4 161.4 0 0 0-7.3 32.71c-.39 3.56-.57 15.21-2.81 17.19-1.07-1.75-1.43-14.08-1.59-17.03l-.68-.67c-.69-3.75-1.2-5.33-2.42-8.97l.5-10.06c-.6-7.36-.2-21.51-.22-29.23l.08-60.4-.07-162.03c-28.63.94-67.51-1.74-94.31.36-4.44.48-4.77 1.03-8.57 3.71-2.03-1.46-2.24-1.47-3.75-3.42z"/><path fill="#e1a347" d="M1219.79 1682.75c36.94-2.33 91.44-.54 129.92-.62l49.89-.09c7.38 0 21.79-.49 28.58.92l.32 3.06c-5.79-1.47-13.41-.72-19.49-.68-26.54.2-53.28.81-79.82.33l-.14 176.33c-.03 30.54.84 64.44-.27 94.69l-.68-.67c-.69-3.75-1.2-5.33-2.42-8.97l.5-10.06c-.6-7.36-.2-21.51-.22-29.23l.08-60.4-.07-162.03c-28.63.94-67.51-1.74-94.31.36-4.44.48-4.77 1.03-8.57 3.71-2.03-1.46-2.24-1.47-3.75-3.42z"/><path fill="#eb9738" d="M1223.09 1689.4c3.8-2.68 4.13-3.23 8.57-3.71 25.1 9.5 44.73 19.8 61.7 40.99 37.35 46.63 46.89 115.67-13.99 146.17 28.13 16.44 35.41 32.98 44.09 63.3l2.72.84-.5 10.06c1.22 3.64 1.73 5.22 2.42 8.97l.68.67c.16 2.95.52 15.28 1.59 17.03l-15.27.26c-.1-29.13-6.37-66.14-29.29-86.48-6.6-5.86-13.29-9.85-20.87-14.36 7.35-2.96 14.7-6.15 20.58-11.28 36.91-32.25 24.07-97.54-4.71-130.82-11.17-12.91-41.39-40.09-57.72-41.64"/><path fill="#594835" d="m1323.46 1936.15 2.72.84-.5 10.06c-.6-4.36-1.64-6.41-2.22-10.9"/><path fill="#ee071f" d="M1244.65 704.411c7.77.548 15.63.469 23.42.39-.26 5.072-.74 13.945-1.5 18.879 1.06 2.11 1.52 2.13 3.66 3.301 45.49 4.302 81.55 28.187 100.51 70.166-.19 2.372.19 1.234-1.31 3.356l-.02.41c8.36.036 16.71-.03 25.07-.198 3.82-.055 9.17-.39 11.77 2.141l-.16 4.343c-5.01 5.065-26.31 2.683-34.06 2.625l-59.88-.09-209.79.497c-3.62-.027-3.48-.089-5.66-1.955-1.1-3.525-.89-3.632-.52-7.182 2.19-1.05 19.24-.412 23.07-.416 2.89-1.675 12.42-.696 17.51-1.24l.54-1.469c4.58-13.079 9.81-22.905 19.33-33.098a119.95 119.95 0 0 1 83-37.977c1.13-1.623 1.44-1.914 2.18-3.668-1.98-3.135-.93-13.985-.45-17.856.07-.6 3.36-.971 3.29-.959"/><path fill="#ee071f" d="M1370.74 797.147c-.19 2.372.19 1.234-1.31 3.356l-.02.41c8.36.036 16.71-.03 25.07-.198 3.82-.055 9.17-.39 11.77 2.141l-.16 4.343c-5.01 5.065-26.31 2.683-34.06 2.625l-59.88-.09-209.79.497c-3.62-.027-3.48-.089-5.66-1.955-1.1-3.525-.89-3.632-.52-7.182 2.19-1.05 19.24-.412 23.07-.416 2.89-1.675 12.42-.696 17.51-1.24l.54-1.469c11.92 1.889 229.83.371 233.44-.822"/><path fill="#feccd5" d="M1370.74 797.147c-.19 2.372.19 1.234-1.31 3.356l-.02.41c-31.38.914-65.39.198-97.01.163l-153.15-.398c2.89-1.675 12.42-.696 17.51-1.24l.54-1.469c11.92 1.889 229.83.371 233.44-.822"/><path fill="#ee071f" d="M1244.65 704.411c7.77.548 15.63.469 23.42.39-.26 5.072-.74 13.945-1.5 18.879-6.63-.963-17.95-.735-24.76-.454-1.98-3.135-.93-13.985-.45-17.856.07-.6 3.36-.971 3.29-.959"/><path fill="#f2eeef" d="M1241.81 723.226c6.81-.281 18.13-.509 24.76.454 1.06 2.11 1.52 2.13 3.66 3.301-10.42-.064-20.15-.338-30.6-.087 1.13-1.623 1.44-1.914 2.18-3.668m-15.32 13.895c10.05-1.006 10 3.979-.49 6.539a104.04 104.04 0 0 0-61.23 40.717c-1.52 2.723-3.51 3.588-4.49-.475-.44-1.866 3.5-6.668 4.8-8.375 14.65-19.263 38.39-33.491 61.41-38.406"/><path fill="#2c3848" d="m613.985 322.035.923 1.046c2.469 2.915 39.971 1.246 47.557 2.075 14.124.659 32.107-.006 46.512-.166.474-1.003.646-1.381 1.001-2.435 2.148-.393 7.632-1.762 9.499-.018 1.533 1.431 1.57 1.844.165 2.634l-1.68 2.477c-.58 10.533-.041 23.944-.959 33.61 2.764 1.408 4.456 1.338 7.515 1.636l15.233.083c-1.844 3.845-4.489 8.9-5.856 12.798-1.496.334-3.692.659-4.924 1.364l-.097 14.772.269 2.229c-.633 16.801-.192 35.663-.337 52.661q-20.325-.175-40.651-.071l-2.565-.055c-5.413 1.579-85.714 1.229-94.541.258-.028-7.004-.602-48.708.684-52.754l.168-2.06c-1.516-4.207-.947-10.393-.838-15.016-.878-.497-3.738-1.184-4.874-1.498-1.547-3.495-4.691-9.043-6.552-12.6l23.178.004c-2.565-9.742 1.653-30.965-2.409-37.963-4.968-3.565 12.786-3.117 13.579-3.011"/><path fill="#2c3848" d="m613.985 322.035.923 1.046c2.469 2.915 39.971 1.246 47.557 2.075 14.124.659 32.107-.006 46.512-.166.474-1.003.646-1.381 1.001-2.435 2.148-.393 7.632-1.762 9.499-.018 1.533 1.431 1.57 1.844.165 2.634l-1.68 2.477c-.58 10.533-.041 23.944-.959 33.61 2.764 1.408 4.456 1.338 7.515 1.636-39.222.981-82.23.126-121.703.115-2.565-9.742 1.653-30.965-2.409-37.963-4.968-3.565 12.786-3.117 13.579-3.011"/><path fill="#cecdcc" d="m613.985 322.035.923 1.046c2.469 2.915 39.971 1.246 47.557 2.075 14.124.659 32.107-.006 46.512-.166.474-1.003.646-1.381 1.001-2.435 2.148-.393 7.632-1.762 9.499-.018 1.533 1.431 1.57 1.844.165 2.634l-1.68 2.477q-57.477.462-114.958.345l-.006 32.51q38.065-.526 76.133-.364c7.62.006 31.76-.343 37.872 1.119 2.764 1.408 4.456 1.338 7.515 1.636-39.222.981-82.23.126-121.703.115-2.565-9.742 1.653-30.965-2.409-37.963-4.968-3.565 12.786-3.117 13.579-3.011"/><path fill="#333f4f" d="m613.985 322.035.923 1.046c2.469 2.915 39.971 1.246 47.557 2.075-6.982.754-56.854 1.406-62.059-.11-4.968-3.565 12.786-3.117 13.579-3.011"/><path fill="#29354b" d="M709.978 322.555c2.148-.393 7.632-1.762 9.499-.018 1.533 1.431 1.57 1.844.165 2.634-3.683-.197-7.002-.187-10.665-.181.474-1.003.646-1.381 1.001-2.435"/><path fill="#cecdcc" d="M647.341 335.954q2.484.292 4.973.54c3.117 4.328.706 7.589 1.668 10.398 2.308 6.738-9.16 6.113-8.757 2.683.694-5.893-1.582-9.219 2.116-13.621"/><path fill="#333f4f" d="M647.341 335.954q2.484.292 4.973.54c-1.286 4.272-.275 7.749-.963 10.514-3.332 13.408-3.703-9.405-4.01-11.054"/><path fill="#cecdcc" d="M684.533 336.243c9.629 1.413 6.907 5.877 7.74 15.885-11.094-.745-9.583-1.458-7.74-15.885"/><path fill="#333f4f" d="M687.22 338.636c3.321 3.187 2.046 8.132 1.421 12.522-2.774-2.984-1.573-7.871-1.421-12.522"/><path fill="#cecdcc" d="M628.988 335.864c1.514.738 4.944 1.942 5.013 4.124.142 4.472 1.113 8.369-1.614 12.089l-.845 1.181c-7.445-3.197-6.675-12.068-2.554-17.394"/><path fill="#2c3848" d="M629.896 338.5c3.487 3.031 2.193 7.783 1.312 12.004-3.342-3.703-1.785-7.117-1.312-12.004"/><path fill="#cecdcc" d="M613.096 336.115c1.322.216 2.416.301 3.743.419 1.087 1.002 2.284 2.089 1.97 3.941-.581 3.03 1.198 8.473-.181 11.057-.153.287-5.513 1.072-6.011-1.042-1-4.25-.52-10.333.479-14.375"/><path fill="#737b8b" d="M613.096 336.115c1.322.216 2.416.301 3.743.419-.603 2.944-.644 13.682-1.497 14.285l-.08-.014-.005-.149-.301.155c-1.727-3.103-.929-10.165-1.86-14.696"/><path fill="#f2eeef" d="M701.913 335.418c1.683.964 1.814.966 3.189 2.227l-.246-.154c2.83 3.041-1.905 1.585-2.296 2.121-2.383 3.269 6.955 6.824 1.882 12.593l-.934 1.142c-1.842-1.077-4.904-2.238-3.181-4.995.758-.001 2.865 1.937 3.344.61.208-.949-.527-2.312-1.165-2.891-3.852-3.491-2.981-6.194-.593-10.653"/><path fill="#a8afbb" d="M670.357 336.397c5.479 2.168 2.984 11.28 2.37 16.418-1.236-.471-3.092-.701-2.95-2.218.442-4.72.307-9.428.58-14.2"/><path fill="#cecdcc" d="M664.525 336.311c4.204 2.982 2.197 10.4 3.144 16.469-6.136-2.857-4.002-9.803-3.144-16.469"/><path fill="#2c3848" d="m724.518 362.894 15.233.083c-1.844 3.845-4.489 8.9-5.856 12.798-1.496.334-3.692.659-4.924 1.364l-.097 14.772-88.078-.051c-15.672-.006-33.522-.462-48.895.259-1.516-4.207-.947-10.393-.838-15.016-.878-.497-3.738-1.184-4.874-1.498-1.547-3.495-4.691-9.043-6.552-12.6l23.178.004c39.473.011 82.481.866 121.703-.115"/><path fill="#2c3848" d="M591.063 377.103c7.293 1.584 132.374 1.559 137.908.036l-.097 14.772-88.078-.051c-15.672-.006-33.522-.462-48.895.259-1.516-4.207-.947-10.393-.838-15.016"/><path fill="#cecdcc" d="M586.189 375.605c21.203-1.819 58.465.053 80.838-.458 12.652-.288 55.946-.685 66.868.628-1.496.334-3.692.659-4.924 1.364-5.534 1.523-130.615 1.548-137.908-.036-.878-.497-3.738-1.184-4.874-1.498"/><path fill="#2c3848" d="M591.733 394.179c12.949.485 27.751.158 40.783.012l-.026 52.322c-10.36-.162-31.728-.686-41.441.42-.028-7.004-.602-48.708.684-52.754"/><path fill="#fffefe" d="m604.317 409.005 13.63.006q.224 12.599.142 25.199-6.935.154-13.871.093a821 821 0 0 1 .099-25.298"/><path fill="#2c3848" d="M607.034 411.594c12.951.183 8.59 5.097 8.414 19.235-12.806 2.965-8.329-7.65-8.414-19.235m80.959-17.414q20.575.259 41.15-.04c-.633 16.801-.192 35.663-.337 52.661q-20.325-.175-40.651-.071c-.986-13.48-.11-38.093-.162-52.55"/><path fill="#fffefe" d="M701.658 409.477q6.394.084 12.781.372.303 12.181.385 24.366l-13.814.184c.07-5.034-.256-21.022.648-24.922"/><path fill="#2c3848" d="M704.143 412.241c1.095.054 6.748-.074 7.07.825 1.56 4.358.828 13.998.703 18.607-.884-.086-7.17-.325-7.329-.986-1.114-4.645-.619-13.788-.444-18.446"/><path fill="#f2eeef" d="m728.874 391.911.269 2.229q-20.575.299-41.15.04c.052 14.457-.824 39.07.162 52.55l-2.565-.055a1365 1365 0 0 1-.083-52.542q-25.205.356-50.409.035c-.281 17.187.037 34.981-.002 52.258 16.2.1 34.556-.488 50.494.249-5.413 1.579-85.714 1.229-94.541.258 9.713-1.106 31.081-.582 41.441-.42l.026-52.322c-13.032.146-27.834.473-40.783-.012l.168-2.06c15.373-.721 33.223-.265 48.895-.259z"/><path fill="#f2eeef" d="M653.069 409.572c4.905-.064 8.091.127 12.936.504q.183 12.551.224 25.104a414 414 0 0 0-13.366.147q.305-12.877.206-25.755"/><path fill="#333f4f" d="M655.985 411.734c.943.147 6.494.615 6.744 1.569 1.3 4.967.575 14.095.536 19.292-.891-.115-6.807-.469-6.936-1.06-1.118-5.102-.634-14.727-.344-19.801"/><path fill="#2c3848" d="M1071.29 322.447c2.34-.06 12.85-.899 13.94 1.877-.15 1.172-1.01 1.407-2.02 1.803l-1.24 1.905c-.17 7.226.18 26.635-.68 32.732l1.53 2.214 22.08.036c-1.1 2.098-5.98 11.795-7.02 13.324-.69.875-1.33 1.851-2.17 2.478-.5 4.786-.78 8.282-.85 13.086l.38 2.094c-.46 17.243-.02 35.622.01 52.966-9.81.003-34.65.77-43.6-.36l-2.25.144c-7.58.691-41.34.735-49.33.109l-2.363-.241c-4.538.751-36.435.339-42.12.301.089-7.701-.148-48.854 1.121-53.157l.067-2.288c-1.539-5.467-1.381-8.001-1.215-13.68l-.723-2.4c-5.298-1.822-7.058-7.175-9.788-12.357l22.432-.016.153-2.695c-.774-6.189-.711-26.146.198-32.305l.331-1.922c32.037-1.19 69.417-.242 101.807-.255z"/><path fill="#2c3848" d="M956.775 391.47c42.859-1.07 95.265-.84 138.085.432l.38 2.094c-.46 17.243-.02 35.622.01 52.966-9.81.003-34.65.77-43.6-.36l-2.25.144c-7.58.691-41.34.735-49.33.109l-2.363-.241c-4.538.751-36.435.339-42.12.301.089-7.701-.148-48.854 1.121-53.157z"/><path fill="#2c3848" d="M1051.89 393.862q21.675.201 43.35.134c-.46 17.243-.02 35.622.01 52.966-9.81.003-34.65.77-43.6-.36.93-14.738.27-37.454.24-52.74"/><path fill="#fffefe" d="m1066.48 408.875 13.45.16c.17 8.538.25 17.077.25 25.617-4.68.068-9.37.176-14.05.321.07-8.5-.01-17.677.35-26.098"/><path fill="#2c3848" d="M1069.08 411.568c1.62.107 7.16.004 7.79 1.135 1.53 2.717.76 16.102.67 19.261-1.39-.016-7.53.2-7.92-.615-1.07-2.192-.55-17.7-.54-19.781m-112.372-17.81c11.254.81 29.232.275 40.815.182-.741 16.504-.228 36.032.184 52.674-4.538.751-36.435.339-42.12.301.089-7.701-.148-48.854 1.121-53.157"/><path fill="#f2eeef" d="M970.238 409.081q6.39.031 12.774.319c.067 8.331.174 17.053.042 25.364a331 331 0 0 0-12.917.082 1020 1020 0 0 1 .101-25.765"/><path fill="#2c3848" d="M973.004 411.499c1.043.136 6.292.464 6.537 1.095 1.621 4.176 1.067 14.789.934 19.235-1.042-.024-6.718.143-6.95-.648-1.078-3.672-.564-16.146-.521-19.682"/><path fill="#cecdcc" d="M956.775 391.47c42.859-1.07 95.265-.84 138.085.432l.38 2.094q-21.675.067-43.35-.134c.03 15.286.69 38.002-.24 52.74l-2.25.144q-.315-26.474-.24-52.949c-16.39.171-32.77.2-49.161.088l.071 52.97-2.363-.241c-.412-16.642-.925-36.17-.184-52.674-11.583.093-29.561.628-40.815-.182z"/><path fill="#f2eeef" d="M1018.94 408.961q6.09.002 12.18.107c.34 8.828.29 16.436.11 25.262-4.12.076-8.24.191-12.37.344.16-8.57.19-17.142.08-25.713"/><path fill="#2c3848" d="M1021.53 411.727c1.25.117 6.86-.229 6.97 2.038.27 5.361 1.41 13.562-.98 18.464-1.08-.191-5.08-.715-5.27-1.042-1.58-2.726-.74-16.915-.72-19.46m49.76-89.28c2.34-.06 12.85-.899 13.94 1.877-.15 1.172-1.01 1.407-2.02 1.803l-1.24 1.905c-.17 7.226.18 26.635-.68 32.732-6.72-1.053-29.27-.643-37.19-.65q-38.234-.11-76.466.208c-.774-6.189-.711-26.146.198-32.305l.331-1.922c32.037-1.19 69.417-.242 101.807-.255z"/><path fill="#cecdcc" d="M1071.29 322.447c2.34-.06 12.85-.899 13.94 1.877-.15 1.172-1.01 1.407-2.02 1.803l-1.24 1.905c-35.69-1.241-77.87-.04-114.138-.015l.331-1.922c32.037-1.19 69.417-.242 101.807-.255z"/><path fill="#2c3848" d="M1071.29 322.447c2.34-.06 12.85-.899 13.94 1.877-.15 1.172-1.01 1.407-2.02 1.803-4.63-.257-8.61-.293-13.24-.287z"/><path fill="#333f4f" d="M1011.51 335.616c3.09-.06 2.88-.044 5.65 1.209a28.33 28.33 0 0 1-.28 16.264c-2.32-.541-3.64-.465-6.04-1.043-1.58-4.121-1.87-12.553.67-16.43"/><path fill="#cecdcc" d="M1016.88 353.089c-1.44-3.916-3.11-13.266.28-16.264a28.33 28.33 0 0 1-.28 16.264"/><path fill="#f2eeef" d="M1011.51 335.616c.74 3.944 2.53 13.76-.67 16.43-1.58-4.121-1.87-12.553.67-16.43"/><path fill="#cecdcc" d="M1031.39 351.339c-6.43 1.613-3.67-23.604 4.48-12.79.3.41 1.26 12.405-.55 12.929-.35-.301-.71-.602-1.06-.904z"/><path fill="#29354b" d="M1031.39 351.339c-.15-1.941-.62-12.471 1.32-13.248 1.07.477 1.24 9.986 1.55 12.483z"/><path fill="#cecdcc" d="M1068.46 336.854c.73-.222.49-.198.83-.187.51.324 3.07 15.809-1.13 14.238l-1.8-.068c-.63.179-1.61.607-2.31.419-.13-.336-2.57-15.663 1.71-13.537z"/><path fill="#cecdcc" d="M1066.36 350.837c-.63.179-1.61.607-2.31.419-.13-.336-2.57-15.663 1.71-13.537.39 4.753 0 8.246.6 13.118"/><path fill="#2c3848" d="m1065.76 337.719 2.7-.865c-.66 4.887-.48 9.117-.3 14.051l-1.8-.068c-.6-4.872-.21-8.365-.6-13.118"/><path fill="#cecdcc" d="m993.49 336.156 3.716-.623c.635 3.033 1.926 14.244.006 16.115-1.618-.955-1.706-5.598-2.786-5.145-.576 1.306-.126 3.67-1.148 4.728-1.145 1.186-2.185-1.193-1.913-2.165 1.081-3.865-1.154-8.601.293-12.063.246-.59 1.387-.751 1.832-.847"/><path fill="#4a5361" d="m993.49 336.156 3.716-.623c-.404 1.248-1.341 6.336-2.123 6.839-1.463-.421-1.411-4.716-1.593-6.216"/><path fill="#cecdcc" d="M980.497 337.135c4.994-2.551 5.348 13.714.303 15.221l-1.473.485c-1.571-4.478-1.42-7.116.045-11.805.225-.717 1.344.432 2.679-.11.82-1.509-.96-2.104-2.507-1.11l.312-.307c.263-1.181.167-1.043.641-2.374m70.363 15.365c-5.78-2.226-1.7-7.581-2.77-13.622-.37-2.114 1.33-2.227 3.04-1.715l2.61-.222c-.13 2.146-.33 4.129-.55 6.265-1.93 4.087 1.25 5.158-2.33 9.294"/><path fill="#2c3848" d="m1051.13 337.163 2.61-.222c-.13 2.146-.33 4.129-.55 6.265-1.93 4.087 1.25 5.158-2.33 9.294q-.06-7.672.27-15.337"/><path fill="#cecdcc" d="M1053.74 336.941c4.37-1.627 2.08 13.918 1.81 14.464-1.69 3.393-2.35-8.098-2.36-8.199.22-2.136.42-4.119.55-6.265"/><path fill="#2c3848" d="M955.56 377.79c17.425.335 133.12-1.574 140.15 1.026-.5 4.786-.78 8.282-.85 13.086-42.82-1.272-95.226-1.502-138.085-.432-1.539-5.467-1.381-8.001-1.215-13.68"/><path fill="#cecdcc" d="M954.837 375.39c31.708.332 63.423.359 95.133.082 10.36-.029 38.98-.679 47.91.866-.69.875-1.33 1.851-2.17 2.478-7.03-2.6-122.725-.691-140.15-1.026zm12.797-15.068q38.231-.318 76.466-.208c7.92.007 30.47-.403 37.19.65l1.53 2.214-115.339.039z"/><path fill="#4a5361" d="M1027.86 170.978c5.66 2.838-1.09 13.178 8.16 24.679 7.72 9.613 8.45 10.944 18.15 19.521 22.55 14.761 53.7 34.846 33.24 68.703-2.01 3.325-5.99 7.185-7.26 10.541l-.19 1.918c-3.82 12.883-10.52-1.535-8.67 26.107l-1.32 3.393c-32.39.013-69.77-.935-101.807.255-2.64-.556-1.562.15-3.443-1.881l.854-1.011c4.977-1.531 7.54-1.275 12.697-1.337.115-4.792 1.138-15.859-1.596-19.096l-4.026-.311c-2.162-2.8-1.369-1.152-1.296-5.617l-.427-2.606c-.344-1.49-.092-1.302-1.086-2.372-22.06-23.748-17.369-45.412 8.907-62.362 17.274-15.398 36.593-22.134 43.613-47.894.94-3.428-5.74-6.764.63-10.327 1.88.049 2.99-.108 4.87-.303"/><path fill="#2c3848" d="m971.353 296.842 73.307-.457c7.95-.062 28.18-.743 35.3-.045-3.82 12.883-10.52-1.535-8.67 26.107l-1.32 3.393c-32.39.013-69.77-.935-101.807.255-2.64-.556-1.562.15-3.443-1.881l.854-1.011c4.977-1.531 7.54-1.275 12.697-1.337.115-4.792 1.138-15.859-1.596-19.096l-4.026-.311c-2.162-2.8-1.369-1.152-1.296-5.617"/><path fill="#cecdcc" d="M1055.13 303.5c4.12 3.061 2.49 14.475 1.95 19.214-4.81-3.335-2.96-13.907-1.95-19.214m-22.06.158c3.27 3.22 2.05 14.591 1.14 18.81-3.88-3.566-2.45-14.307-1.14-18.81"/><path fill="#f2eeef" d="M990.93 303.479c2.307 4.101 1.698 14.279 1.324 18.958-4.228-2.784-2.506-14.49-1.324-18.958"/><path fill="#fffefe" d="M1012.36 302.779c3.18 2.749 1.85 14.413 1.64 18.728-3.81-2.857-2.16-14.302-1.64-18.728"/><path fill="url(#c)" d="M1027.86 170.978c5.66 2.838-1.09 13.178 8.16 24.679 7.72 9.613 8.45 10.944 18.15 19.521-.88 2.799-1.23 3.101-.78 5.856l-1.23.636c-6.1 2.415-.96-7.985-9.8-8.64l-.37.278.37-.323c-2.02 3.762.4 7.956-3.74 9.128-.07-2.712.55-8.942-2.37-3.003l-1.64-.233c-.13-.613-.11-1.809-.81-2.108-.74.154-1.37 1.083-1.86 1.583-.66.309-.76.503-1.3.412-.83-2.281.97-12.841-1.67-14.098-1.7.232-1.29 1.474-2.35 2.183-.11-.209-.07-1.231.02-1.331 1.5-1.822.61-14.452-2.69-12.125-2.15 1.513-5.8 11.324-5.11 14.038.73 2.865 1.73 8.275.56 10.999-.83-.144-1.67-.287-2.5-.43.04-.567.07-1.134.11-1.7l-.56-.814.3-.367-.14-.037-.1.136.06.109c-2.81 4.721-2.18 12.175-3.8 17.912l-2.34-.496c1.4-4.399 1.03-6.197 1.33-10.751.45.083.73-4.428.24-4.455 1.17.065 1.59-4.397 1.6-5.002-2.38 1.07-4.37 9.848-5.57 12.833.27-7.537 2.69-7.749-3.12-8.015-6.414-.293-18.404 15.785-17.569 15.766-.294-.183-.405-.43-.623-.71.761-2.655.085-3.193-1.96-1.126-2.535-.595-3.577-.881-6.011-1.781 17.274-15.398 36.593-22.134 43.613-47.894.94-3.428-5.74-6.764.63-10.327 1.88.049 2.99-.108 4.87-.303"/><path fill="#a8afbb" d="M1008.03 225.368c1.2-2.985 3.19-11.763 5.57-12.833-.01.605-.43 5.067-1.6 5.002.49.027.21 4.538-.24 4.455-.3 4.554.07 6.352-1.33 10.751-1.47 7.787-3.75 13.322-5.51 20.757-2.76 11.649-2.18 25.01-3.71 36.72-.26 1.992-2.554-1.866-1.716-2.645.716-16.042 1.366-32.546 7.436-47.614.26-.643 5.63-14.572 1.05-12.959-.1.207-1.42 5.805-1.7 6.608-5.91 17.01-9.34 34.334-9.352 52.39-.001 1.642.59 4.426-1.418 4.892-2.957-1.104-1.142-8.156-1.033-10.898.82-20.579 5.993-35.813 13.553-54.626"/><path fill="#cecdcc" d="M970.926 294.236c35.184-.02 74.454-1.011 109.224.186l-.19 1.918c-7.12-.698-27.35-.017-35.3.045l-73.307.457z"/><path fill="#9aa0b0" d="M1012.77 233.239c1.62-5.737.99-13.191 3.8-17.912l-.06-.109.1-.136.14.037-.3.367.56.814c-.04.566-.07 1.133-.11 1.7-.61 6.109-1.38 12.823-2.75 19.016-1.24 5.601-1.34 4.28-.77 9.609 1.37 12.98-3.59 28.323-1.74 41.909.32 2.298-1.19 2.769-2.23 1.135-.77-11.17.12-22.592 1.96-33.659.31-1.91 1.89-8.655-.34-9.438-3.54.823-3.84 42.551-5.55 44.088-3.32-2.23.37-27.031.7-31.657.65-9.15 5.32-16.383 6.59-25.764m19.17-14.887c.49-.5 1.12-1.429 1.86-1.583.7.299.68 1.495.81 2.108-4.04 14.783-1.99 26.731-1.4 41.62.13 3.312 2.89 29.009 2.16 30.023-3.35.932-3.08-18.102-3.78-22.068-2.02-11.38-1.62-23.429-1.44-34.963.08-5.395 2.16-9.586 1.79-15.137"/><path fill="#9aa0b0" d="M1036.25 219.11c2.92-5.939 2.3.291 2.37 3.003-5.51 12.497.67 47.096 1.12 61.885.04 1.325.79 6.216-.68 6.726-1.72-1.043-6.07-56.301-4.47-62.081.81-2.914 1.59-5.887 1.66-9.533M1056 227c3.79-2.565.68-2.298.82-5.369l.14-.06c7.89 5.357-4.3 13.682-2.55 24.042 1.92 11.325 2.51 26.523 2.7 38.137.05.795 1.7 7.793-.56 6.724-.74-.351-1.1-4.812-1.19-5.444-.74-11.944-1.58-24.145-2.66-36.031-.66-7.228-.67-10.836 2.39-17.545.59-1.289.72-3.095.91-4.454"/><path fill="#a8afbb" d="M1053.39 221.034c1.35 2.751 2.05 2.939 2.61 5.966-8.49 5.05-5.26 24.841-4.79 33.154.41 1.198.35 1.219.42 2.474 0-.022 3.42 39.837-.58 24.922-2.43-9.057-.36-31.306-2.6-40.557-3.58-14.814 8.11-16.358 3.71-25.323z"/><path fill="#9aa0b0" d="M984.758 231.283c2.045-2.067 2.721-1.529 1.96 1.126-5.887 5.846-9.341 10.137-14.204 16.644-7.038 7.563-6.361 11.843-7.583 21.456-.134 1.056-.223 5.316-1.468 6.28l-.162-.089c-1.379-2.529 1.377-20.529 3.148-23.024 5.571-7.851 12.495-14.728 18.309-22.393"/><path fill="#a8afbb" d="M1058.4 244.696c3.43 10.49 2.57 15.353 2.79 26.303.06 3.091 2.01 18.667-.22 19.692-2.78-4.798-1.21-33.102-2.82-39.192-3.12-11.837-1.55-10.984 3.62-22.607.56-1.256.24-1.887 1.26-2.542 2.59.74-3.86 12.426-4.54 13.716l-.5.927c.19 1.337.3 2.357.41 3.703m-67.663 24.643c1.276-11.699 3.229-20.633 8.009-31.372.757-1.701 2.934-10.365 4.774-11.031l.26.171c.2 1.604-8.053 25.661-9.094 30.381-.909 4.124-2.664 33.416-5.662 33.102-.739-1.299 1.193-15.671 1.464-18.687.043-1.117.028-1.476.249-2.564m81.183-37.669c5.75 3.265 2.69 4.256 5.49 9.042 10.04 17.189 6.77 26.527 6.35 44.634l-.78.166a.52.52 0 0 1-.49-.176c-.84-1 1.02-35.577-4.92-40.439-.16-.134-4.89-11.496-5.65-13.227"/><path fill="#9aa0b0" d="m1066.69 236.115.7-.048c.78.506.91 2.899 1.42 3.929 8.58 17.236 7.27 32.46 6.75 51.524-3.63-7.859-1.26-21.143-2.29-31.025-.76-7.28-7.08-20.285-6.58-24.38"/><path fill="#a8afbb" d="M1064.24 239.874c8.1 7.661 6.89 40.01 6.56 51.373-3.47-2.97-1.39-23.499-1.9-29.739-.63-7.683-4.47-14.842-4.66-21.634m-83.428 32.472c.361-3.888 1.798-25.556 7.585-25.854l.219.22-.118-.19c-1.353 3.405-3.056 6.668-3.637 10.477-1.548 10.146-2.686 20.301-3.102 30.559-.042 1.03-.737 3.398-2.146 2.933l.103-.023c-.336-.849.556-12.305.636-13.843-.027-2.056-.067-2.312.46-4.279"/><path fill="#5c6372" d="M980.812 272.346c.201 2.152.414 2.483-.46 4.279-.027-2.056-.067-2.312.46-4.279"/><path fill="#a8afbb" d="M1077.34 235.718c14.5 11.057 12.07 28.648 10.03 43.902-.22.206-.45.412-.68.618-.83-1.045-.4-5.45-.14-6.609 3.73-16.704-3.71-24.613-9.21-37.911"/><path fill="#4a5361" d="M659.462 179.378c1.453-.641.428-1.126-.125-2.637-1.762-4.814 6.049-3.984 6.576-.737.228 1.401-.364 2.601-.117 4.765 2.446 9.094 5.708 15.059 11.704 22.464 19.172 18.606 53.295 32.064 55.118 59.017 1.099 16.248-11.603 23.426-15.235 31.771l-.323 1.781c.957 2.829 1.072 1.52-.146 4.067-3.215 1.708-5.309 1.618-8.912 1.969-.088 5.698-1.274 17.08 1.976 20.717-.355 1.054-.527 1.432-1.001 2.435-14.405.16-32.388.825-46.512.166-7.586-.829-45.088.84-47.557-2.075l-.923-1.046c1.629-9.914 3.782-17.317-6.561-21.319-.327-3.142-.539-1.632.9-4.647l.224-1.758c-7.71-9.709-15.487-18.176-15.122-31.784.62-23.122 22.506-34.388 38.905-45.934 4.175-2.94 10.911-9.142 14.758-12.762 7.116-9.469 9.16-13.023 12.373-24.453"/><path fill="#2c3848" d="M717.06 295.802c.957 2.829 1.072 1.52-.146 4.067-3.215 1.708-5.309 1.618-8.912 1.969-.088 5.698-1.274 17.08 1.976 20.717-.355 1.054-.527 1.432-1.001 2.435-14.405.16-32.388.825-46.512.166-7.586-.829-45.088.84-47.557-2.075l-.923-1.046c1.629-9.914 3.782-17.317-6.561-21.319-.327-3.142-.539-1.632.9-4.647 34.347.065 74.753 1.077 108.736-.267"/><path fill="#cecdcc" d="M649.208 303.733c3.146 3.262 1.903 14.549 1.353 18.983-4.291-3.698-2.921-14.205-1.353-18.983m-22.882-.411c4.917 1.834 2.715 13.058 2.55 18.3-4.593-2.675-2.649-13.036-2.55-18.3"/><path fill="#f2eeef" d="M669.416 303.602c4.007 3.097 2.372 13.03 2.172 18.056-4.896-1.042-2.608-13.909-2.172-18.056"/><path fill="#fffefe" d="M690.94 302.45c2.582 4.349 1.835 14.995 1.216 20.014-3.917-3.436-2.441-15.36-1.216-20.014"/><path fill="#333f4f" d="M659.462 179.378c1.453-.641.428-1.126-.125-2.637-1.762-4.814 6.049-3.984 6.576-.737.228 1.401-.364 2.601-.117 4.765 2.446 9.094 5.708 15.059 11.704 22.464.003 5.346.113 6.478-1.006 11.904-3.289-1.018 2.053-8.499-3.035-10.369-2.104 1.642.452 8.993-2.443 10.24-.165-.056-.514-.087-.534-.35-.472-6.052.852-14.055-2.987-19.34-.872-1.202-2.228 2.459-1.548 4.809.938 3.238-3.54-.158-4.601 3.256.041-.447.39-2.932-.182-3.549-.132-.143-.41-.546-.62-.384-2.646 2.035-3.993 7.114-4.134 9.778-.938 4.598-.68 6.582-2.58 10.758-.284-1.546-1.247-6.157-1.021-7.222 1.479-6.969-3.101-4.748-5.72-8.933 7.116-9.469 9.16-13.023 12.373-24.453"/><path fill="#cecdcc" d="M608.548 294.311c35.956-1.016 72.92.702 108.835-.29l-.323 1.781c-33.983 1.344-74.389.332-108.736.267z"/><path fill="#9aa0b0" d="M656.41 209.228c2.201 4.231-1.421 6.071.937 11.274 1.469 3.241-.212 12.06-.685 15.989-2.124 17.656-2.647 36.632-5.747 53.868-.126.698-2.041-.293-1.667-.899 1.489-18.847 4.238-37.625 5.957-56.457.391-4.281 3.452-11.547-1.375-13.017 1.9-4.176 1.642-6.16 2.58-10.758m-44.456 44.016c-3.954 6.433-5.752 28.129-7.987 28.976l-.349-.202c-.342-.582 1.311-12.403.788-14.027-1.168-3.632 4.156-11.41 3.371-13.962-1.404-4.565 1.573-5.864 2.901-10.264.85-2.526 5.623-11.865 9.135-10.9l1.708.513c7.886 3.114-12.531 29.878-10.418 37.647.124.457-1.858 14.149-3.35 14.785-2.201-2.349 3.934-26.623 5.668-30.583z"/><path fill="#2c3848" d="m619.813 232.865 1.708.513c-2.119 3.126-11.83 22.236-12.444 18.272l.623-.076c-1.207-3.624 7.723-15.38 10.113-18.709m-6.293 19.159c1.557-3.84 4.411-12.014 7.391-14.597 1.548.493-4.822 13.071-5.605 14.943z"/><path fill="#333f4f" d="m611.954 253.244 1.566-1.22 1.786.346c-.648.963-1.265 1.874-1.885 2.857z"/><path fill="#a8afbb" d="M693.827 238.729c-.03 6.379 1.05 9.703 1.982 15.777a209 209 0 0 1 2.206 24.486c.072 1.885.389 10.038-.665 11.195l-.455-.206c-2.418-5.04-1.511-37.967-4.736-46.469-1.303-7.129-2.749-1.603-2.126 2.476 1.204 7.891 5.103 38.327 3.457 44.484-3.853-1.084-2.216-35.631-4.467-39.975-2.239-4.32 3.665-24.414 5.988-25.738.722.268.369.928.452 1.597l3.44 1.214c-2.528 3.22-4.182 7.177-5.076 11.159"/><path fill="#2c3848" d="m695.463 226.356 3.44 1.214c-2.528 3.22-4.182 7.177-5.076 11.159-.178-.022-1.146.005-1.447-.32-1.303-1.409 2.457-8.477 2.774-10.264z"/><path fill="#9aa0b0" d="M649.524 220.744c.511 6.44-6.767 65.326-8.681 70.59-2.909-2.705-.919-2.882-.387-7.326 1.141-9.533 1.073-16.772 3.097-26.373 2.301-10.913 2.327-26.164 5.971-36.891m-10.593 13.807c3.003 7.115-4.021 18.424-6.675 25.046-3.774 9.419-1.051 24.228-7.986 31.589-1.171-2.479.128-6.928.749-9.708 2.159-9.667 3.447-20.089 8.349-28.858 3.319-5.935 3.444-11.652 5.563-18.069m50.425-12.749c4.771 6.811-4.177 15.106-3.177 26.19 1.003 11.116 3.63 33.026 3.52 43.597-5.581-8.718-2.079-31.968-4.779-40.086-3.53-10.612 6.25-21.724 2.683-26.997.17-1.273.884-1.744 1.753-2.704"/><path fill="#9aa0b0" d="M685.445 221.746c.46 4.247-.033 9.729-1.382 13.765-3.147 9.41-1.393 16.332-.962 25.989.431 9.666 1.409 20.094 2.595 29.684-4.498-3.581-3.473-15.334-3.922-20.676-1.513-18-2.579-31.264 3.671-48.762"/><path fill="#a8afbb" d="M653.453 221.746c.554 6.05-5.844 63.473-7.735 69.538-2.824-3.792 2.926-35.824 3.88-42.644 1.072-7.67 1.34-19.576 3.855-26.894"/><path fill="#9aa0b0" d="M698.903 227.57c1.032 1.556-.621 4.295-1.548 5.843-2.929 4.894.573 9.077 1.588 15.062 1.476 8.696 6.593 34.441 3.359 41.591l-.577.386c-.712-.489-1.663-44.399-7.898-51.723.894-3.982 2.548-7.939 5.076-11.159"/><path fill="#a8afbb" d="M626.684 235.345c2.926 1.694-4.965 18.309-6.282 20.537-6.192 10.474-4.152 24.196-9.18 34.916-.949-2.823 2.002-18.759 2.746-22.314 2.437-11.659 8.783-21.127 12.716-33.139"/><path fill="#9aa0b0" d="m700.746 232.061.613-.016c1.363.89 7.532 18.751 8.087 21.463 2.093 10.245 3.222 26.874 2.064 36.996-.236-.095-.479-.173-.706-.286-1.865-.934-.397-15.914-.974-18.698-.655-3.159-.407-6.356-.966-9.509-.179-1.005-.385-2.006-.533-3.016-.371-2.538-.777-5.036-1.471-7.515-.186-.663-.411-1.315-.583-1.982-1.186-4.607-2.47-9.62-4.519-13.918-.831-1.744-.967-1.709-1.012-3.519m8.512 1.624c8.874 5.682 13.865 42.455 10.074 53.444l-.685-.123c2.52-21.666-2.803-33.384-9.389-53.321"/><path fill="#a8afbb" d="M637.657 252.76c.086 3.113-5.667 36.172-7.349 38.788-1.592-4.502 2.988-19.262 2.75-25.558-.132-3.484 2.761-10.032 4.599-13.23"/><path fill="#9aa0b0" d="M664.231 264.679c3.095 5.206.89 20.481-.668 26.546-2.153-2.399-1.1-4.517-.466-7.722 1.283-6.488 1.038-12.233 1.134-18.824m-2.776 1.072c.269 10.909.378 14.954-2.13 25.776-1.799-3.608.97-21.896 2.13-25.776"/><path fill="#333f4f" d="M1385.02 131.499c-1.93-.053-4.86.136-6.88.199l-1.32-1.81-1.37.147-.02 1.062-.93-.952-.15.724-.98-.52c7.92-3.149 11.76-2.339 11.57-12.559l1.27-.952 1.44.759c-.32 3.43-1.02 5.785.76 8.579 4.61 3.163 6.17.38 10.18 3.268-4.1 5.163-6.02 1.604-10.16 3.159-1.24 4.721-.74 8.796-.57 13.705 2.42 1.9 3.77 2.904 5.92 5.186-.93 1.906-2.07 1.708-4.77 2.733-1.45 1.852-1.35 9.708-1.82 13.485l.83 1.246a44 44 0 0 0 2.67 3.57c1.45 17.411 3.69 25.068 17.34 36.677 16.61 14.117 43.38 26.173 46.03 50.297 1.28 11.71-2.65 20.845-10.27 29.366-2.2 2.462-3.46 4.579-6.39 6.124-4.37-1.675-100.45-1.138-105.96-.265-6.36-8.319-15.27-19.088-14.9-29.926 1.38-41.059 64.31-44.577 65.35-87.281.12-5.252-1.1-4.049 3.22-7.699.06-4.254.61-15.089-.71-18.953-.41-1.197-2.98.071-4.26-4.38l.81-1.357 3.41-.255c1.11-3.095.67-9.708.66-13.377"/><path fill="#737b8b" d="M1417.46 242.179c3.04-7.322 6.31-20.695 12.69-5.702 2.49 5.853 10.71 49.585 9.45 53.191-1.75.964-1.12-2.006-2.15-3.043-.8-.169-.63-.18-1.32.267-.64 1.534.2 2.932-.69 3.571-1-.155-2.47-1.845-3.33-2.574-.3.505-1.04 2.349-1.72 2.221.74 1.226-.64-49.542-5.85-51.329l-.41.2c-1.1 2.484 8.12 46.765 3.28 51.117-.58.1-.29.129-.86-.114.32.422-1.68-34.236-2.78-39.458l-.85-4.013c-1.95-8.798 1.01-5.373 1.46-13.103-7.51 6.38-2.69 12.603-2.25 20.586.28 5.01 4.04 34.767 1.12 36.775-1.85-.624-2.05-18.454-2.14-21.281-.3-10.37-1.53-17.36-3.65-27.311"/><path fill="#9aa0b0" d="M1424.38 233.41c5.67 9.96 10.03 43.627 7.73 54.479-.3.505-1.04 2.349-1.72 2.221.74 1.226-.64-49.542-5.85-51.329l-.41.2c-1.1 2.484 8.12 46.765 3.28 51.117-.58.1-.29.129-.86-.114.32.422-1.68-34.236-2.78-39.458l-.85-4.013c-1.95-8.798 1.01-5.373 1.46-13.103"/><path fill="#a8afbb" d="M1383.45 198.749c.38 5.048.85 10.607-.04 15.615-.18 1.046-.4 2.085-.56 3.134-.21 1.344-.46 2.668-.68 4.007-2.58 15.437.1 13.671.64 26.652.47 11.115.15 22.217.68 33.345.11 2.491.75 5.888.25 8.284-.11.528-.14.484-.46.667-3.24-.747-2.97-44.712-3.8-51.395-3.65 9.565 1.37 50.128-1.47 51.65-2.96-4.081-2.57-45.785-.08-53.221 1.95-5.798.45-15.792 3.16-22.493 2.11-5.206.32-10.452 2.36-16.245"/><path fill="#9aa0b0" d="M1431.07 230.883c15.77 8.487 13.03 17.767 15.6 20.259.64-.31 1.07-.859 1.74-1.123 4.08 3.916 1.92 21.497.63 26.716-.63 1.058-1.19 2.778-2.49 2.982-1.52-1.878-2.96-15.607-3.35-17.223-2.6-10.776-3.05-22.215-10.73-30.121z"/><path fill="#333f4f" d="M1438.39 240.299c6.47 3.482 3.7 6.845 7.08 11.988 3.55 5.412 2.87 14.809 1.99 21.002-3.66-.71.08-14.57-3.58-19.706-1.49-2.095-3.7-9.761-5.49-13.284"/><path fill="#9aa0b0" d="M1386.34 197.81c2.96 2.988 1.55 17.784 2.05 22.725 2.42 23.818 5.14 45.591 3.81 69.745-5.01-.059-.79-34.186-2.43-41.268-4.09-17.718-4.59-33.002-3.43-51.202m-6.85 6.94c.18 17.247-8.52 27.148-10.49 43.758-.74 4.932-2.11 9.524-2.92 14.489-1.43 8.665.13 20.763-2.62 28.734-6.44-16.685 10.59-69.391 16.03-86.981"/><path fill="#a8afbb" d="m1371.96 216.09 2.26.08c-5.16 12.394-16.17 51.005-17.63 64.217-.01 1.219.03 1.302-.28 2.475-1.01 10.015-3.5 9.941-2.09.636.72-4.744.81-9.714 1.71-14.505 1.59-8.425 5.2-15.06 7.06-23.508.35-1.668.77-3.324 1.24-4.964 2.54-9.094 4.7-15.492 7.73-24.431"/><path fill="#9aa0b0" d="M1403.99 212.876c6.92 3.824 4.16 7.438 3.52 14.942-.51 6.004-3.91 11.033-3.31 17.683 1.32 14.663 1.81 29.339 1.89 44.052-.18.241-.37.482-.55.722-2.39.37-1.72-13.692-1.63-15.088.43-6.46-3.19-29.255-1.75-34.198 3.79-13.026 5.97-15.417 1.83-28.113m10.68 9.763c3.98 2.803 1.13 6.396-.53 10.888-4.34 11.766.9 22.582.64 34.974-.15 7.397.61 15.489.93 23.117l-.34-.267c-4.28-3.284-1.7-6.141-2.53-11.839-1.31-9.071-.21-21.746-1.91-30.514-2.2-11.374 2.42-15.169 3.74-26.359m-89.94 34.783c3.86-7.21 9.87-19.738 16.04-25.012-10.43 18.588-16.85 24.392-16.76 46.731-4.11-4.231-.43-8.223-3.32-12.827-3.61-5.754 6.32-25.252 10.81-26.697.11 1.687-13.06 21.136-9.17 25.929l.09-.009c1.12-1.546 1.89-6.106 2.31-8.115"/><path fill="#a8afbb" d="M1367.78 219.808c-.21 5.071-3.37 8.928-4.19 14.176-1.96 12.572-7.94 23.981-10.63 36.012-1.74 7.791.69 13.858-3.72 21.421-3.53-9.026 12.43-61.342 18.54-71.609"/><path fill="#9aa0b0" d="M1411.37 219.56c1.06 2.252 1.29 3.925.42 6.413-7.54 21.763.85 43.039-1.22 65.656-3.89-3.979-2.09-7.792-2.42-13.772-1.27-23.057-3.72-35.925 3.22-58.297m7.63 6.248c3.94 2.979-1.49 11.114-3.26 16.572 3.4 13.95 3.84 33.419 4.29 48.032-4.26.351-2.67-22.33-3.53-27.409-3.05-18.049-2.93-19.589 2.21-36.216zm-35.62 1.014c5.15 4.509 3.91 53.567 4.96 63.406-2.19.645-2.13-.908-2.31-2.719-1.38-13.889.07-28.317-1.12-42.005-.65-7.482-2.46-10.814-1.53-18.682"/><path fill="#a8afbb" d="M1334.66 281.375c1.84-14.917 3.59-24.142 10.87-37.714 1.25-2.328 7.26-14.888 9.6-14.052.13.534-11.53 21.664-10.35 20.821-5.9 4.233-7.23 38.548-11.17 39.235-.49-.449.72-5.803.83-6.615-.01-.834-.13-.965.22-1.675m40.73-51.65c1.09 6.105-.69 11.653-1.7 17.763-1.58 9.532 3.02 35.823-1.2 43.426-1.28-10.645.6-21.971-1.01-32.411-.76-4.906-1.39-1.953-.37-8.005l.85-5.504c.67-4.278 1.94-11.242 3.43-15.269m-51.38 49.416c.92-.697 2.52-1.881 2.13-3.095-2.4-7.361 10.84-37.537 16.36-40.931.52.466-.09 1.987-.2 2.596-3.96 6.942-7.8 14.391-11.17 21.825-1.76 3.886-3.44 24.128-3.76 24.37-1.32-.268-2.76-3.656-3.36-4.765"/><path fill="#9aa0b0" d="M1432.18 235.891c5.3 4.758 12.31 41.116 11.35 49.75-2.71-1.253-1.36-5.155-2.32-9.623-2.81-12.931-5.07-27.485-9.03-40.127"/><path fill="#a8afbb" d="M1369.44 257.745c1.34 11.374-.01 21.471-.53 32.691-3.45-2.768-.65-28.155.53-32.691"/><path fill="#737b8b" d="m1371.96 216.09.66-2.191c-.1-.415-.2-.83-.29-1.246l-.06-.183c2.08-.102 1.79-1.93 3.4-1.878.33.288.19.109.39.558-.13 1.564-1.22 3.59-1.84 5.02z"/><path fill="#ee071f" d="M1223.41 955.077c13.68-.267 43.94 1.132 55.79-.403 2.94 9.664 11.81 19.147 19.68 25.196 1.09.438 1.26.878 2.2 1.919 3.06 3.687 1.5 17.291 1.17 22.611-6.12-4.497-9.69-7.649-15.46-12.479-4.27 6.12-4.23 6.206-9.41 11.409-5.52-4.867-6.35-6.556-11.01-12.357-12.1 16.247-8.17 14.027-21.1.515-7.9 8.175-3.49 4.943-13.65 11.562l-.47-1.02c-7.69-17.14-8.58-8.177-19.64-.47l-3.14-.23c-2.44-5.705-6.64-18.192 2.44-19.441.51-1.084 1-2.11 1.49-3.208 9.06-8.406 14.84-11.992 11.11-23.604"/><path fill="#ee071f" d="M1223.41 955.077c13.68-.267 43.94 1.132 55.79-.403 2.94 9.664 11.81 19.147 19.68 25.196-24.04-1.095-65.66 1.348-86.58-1.189 9.06-8.406 14.84-11.992 11.11-23.604"/><path fill="#f2eeef" d="M1210.81 981.889c.51-1.084 1-2.11 1.49-3.208 20.92 2.537 62.54.094 86.58 1.189 1.09.438 1.26.878 2.2 1.919-14.4 1.828-74.53 1.024-90.27.1"/><path fill="#ee071f" d="M1225.58 668.069c23.66-9.866 32.47-9.703 56.44.074-3.62 8.729-13.02 26.324-13.11 34.504l-.84 2.154c-7.79.079-15.65.158-23.42-.39-2.98-1.091-5.83.896-4.87-3.15-1.63-8.387-9.99-24.984-14.2-33.192"/><path fill="#f2eeef" d="M1244.65 704.411c-2.98-1.091-5.83.896-4.87-3.15 8.03.187 21.7.178 29.13 1.386l-.84 2.154c-7.79.079-15.65.158-23.42-.39"/><path fill="#29354b" d="M660.955 130.407c-2.436.035-10.586.74-11.186-.152-2.786-4.661 8.471-.948 10.512-3.428 1.613-1.959-.388-10.877 1.557-10.953 6.11-.24-2.993 13.385 7.14 11.92 1.54-.223 6.29-.635 6.296 1.973-1.555 1.948-8.745 1.188-11.167 1.222-.01 3.227-.791 13.507.78 16.533.549 1.058 5.149 2.092 5.213 3.929.16 4.508-7.205-2.285-6.093 5.058.471 2.942-1.027 13.735 1.146 15.295 3.931 2.821 4.591 2.354.643 8.965-.247-2.164.345-3.364.117-4.765-.527-3.247-8.338-4.077-6.576.737.553 1.511 1.578 1.996.125 2.637-4.818-3.433-2.788-6.564 1.147-9.016 1.049-.654.358-14.676.606-15.879 1.325-6.434-6.37-3.715-4.781-9.311.913-.665 4.212 3.145 4.431.269.369-4.852.113-10.127.09-15.034"/><path fill="#333f4f" d="M1206.01 131.071c-.85-.01-18.39 1.197-10.07-3.146.56-.291 7.22.605 8.55-.124 3.57-1.955-1.13-9.583 3.08-11.216 3.28.923.17 7.472 2.33 10.468 1.73 2.403 13.36-1.271 10.53 2.984-.91 1.367-8.87 1-11.41 1.18.01 4.506-1.08 13.088 1.21 16.547.44.669 6.61 3.306 3.75 4.443-.87.345-3.73-1.094-4.61.046-.58 4.387-.69 13.351.1 17.862.03.163.67 1.184.87 1.524-2.16.221-4.02.431-6.19.504 3.4-5.665 1.56-14.249 1.69-20.707-.59-2.943-6.54-2.643-5.24-6.642.37-1.122 2.88-.184 3.42.117 3.38 1.87 1.97-11.357 1.99-13.84m-182 .298c-2.08.048-5.78.002-8.02.479-1.91.686-5.49-1.054-3.29-3.148 2.03-1.931 10.39 1.633 11.3-2.14.62-2.572-1.48-9.891 2.17-9.848 2.19 1.573-.56 9.122 1.53 11.033 2.26 2.063 8.12-.783 10.51 1.365.6 3.011-9.49 2.306-11.18 2.373l-.01 15.861c1.96 1.541 5.13 2.957 5.97 4.741-.29 1.953-5.12.117-5.41 1.056-1.18 3.93-1.2 13.986.28 17.837-1.88.195-2.99.352-4.87.303 2.01-5.157 1.36-14.1.82-19.631.04.39-9.9-8.464-1.51-6.028l.71.189c1.74-.688.99-12.133 1-14.442"/><path fill="#29354b" d="M844.854 131.481c-3.201-.232-10.263.449-11.837-1.803 1.425-4.516 14.108 2.822 11.724-7.679-.311-1.371-.443-4.936 1.761-5.097 3.782 1.797-.382 8.616 2.465 10.972 1.158.958 6.34-.026 7.526-.353 2.346-.741 2.134 2.77.568 3.421-1.061.426-8.037-.431-8.597.775-1.723 3.708-.755 10.223-.678 14.311.062 3.287 6.499 3.613 5.096 7.417-1.051.872-2.755-1.654-4.298-1.281-2.064 1.878-.796 17.11.645 21.08-1.541-.794-2.855-1.469-4.356-2.368.192-5.354 1.137-16.135-.813-20.919-.307-.751-4.858-1.866-3.761-5.042 1.045-.518 4.124 2.085 4.359.092.502-4.253.221-9.181.196-13.526"/><metadata><recraft-signature>{&quot;signed_by&quot;: &quot;recraft&quot;, &quot;signature_b64&quot;: &quot;qaiorH9X9+EuuJLxg3klKyrprwEwwZ5fjSJhkgKAH5wf2+2W9/ToSvFLuXlOs9OTlvLVBeEI/WkdO6vsrdWTDQ==&quot;, &quot;signing_algo&quot;: &quot;Ed25519&quot;, &quot;generation_timestamp&quot;: 1777252495, &quot;identifier&quot;: &quot;069cc6e2-1b38-4a71-b137-51faf1453e8d&quot;}</recraft-signature></metadata></svg>