<svg xmlns="http://www.w3.org/2000/svg" width="1024" height="1024" preserveAspectRatio="none" style="display:block" viewBox="0 0 2048 2048"><path fill="#0a293b" d="M321.227 2048c-7.393-70.52-7.127-132.1 6.255-202.34 17.97-94.34 56.309-180.93 97.994-266.84 55.165-114.49 113.207-228.55 182.862-334.99 2.885-4.41 5.96-8.77 8.719-13.25-.4 47.83-1.569 95.65-3.506 143.44-4.681-2.79-9.674-5.92-14.464-8.45l-5.067 19.75c6.133 3.61 12.515 7.51 18.792 10.8l-1.768 12.26-20.036-11.96c-2.32 7.85-4.699 15.67-6.691 23.61 9.341 3.27 16.627 6.56 25.059 11.91l-3.415 13.83c-7.233-5.27-16.279-10.06-24.156-14.51q-2.23 9.465-4.298 18.96c10.517 4.57 15.466 7.64 25.036 14-1.076 5.01-2.014 9.8-3.516 14.71-9.581-8.04-13.337-10.43-24.632-15.81-13.489 68.25 3.185 115.82 42.529 170.96 95.472 133.8 199.674 239.97 208.087 413.92z"/><path fill="#fdfcfb" d="M536.451 1912.64c4.204 15.25 7.984 33.22 11.422 48.81-49.929 28.49-93.493 53.79-141.259 86.55h-29.257c43.547-52.85 107.869-91.51 159.094-135.36M436.081 2048c33.368-22.73 79.995-49.54 115.575-68.38 3.239 15.44 6.37 31.35 9.828 46.69-24.439 3.64-73.612 13.05-96.905 21.69zm69.998-522.54 3.225 2.05c-14.924 88.57-4.799 218.67 15.463 306.5-54.637 49.22-97.711 83.02-149.85 138.06-4.985-150.59 62.411-315.81 131.162-446.61"/><path fill="#fdfcfb" d="m535.005 1491.93 1.224.31c-.155 3.19-.201 6.84-.84 9.94-6.973 112.25 66.515 191.71 125.788 276.8 32.049 46.01 56.549 86.45 79.379 137.38-7.985-5.52-16.736-10.34-25.422-14.67-54.918-27.42-114.494-50.02-172.622-69.32-3.477-14.42-6.11-34.12-9.009-49.06-17.034-87.81-23.604-197.4-.161-285.04.57-2.5.888-3.89 1.663-6.34"/><path fill="#b3bfc7" d="m535.005 1491.93 1.224.31c-.155 3.19-.201 6.84-.84 9.94-.442-1.98-.074-3.55-2.047-3.91.57-2.5.888-3.89 1.663-6.34"/><path fill="#fdfcfb" d="M565.553 1912.59c62.28 16.72 140.749 45.43 197.137 76.55 1.242 7.4 2.225 15.16 3.274 22.62-55.722-24.96-128.758-42.68-188.778-54.13-4.102-14.86-7.345-29.87-11.633-45.04m-16.422-59.52c66.644 22.75 147.49 50.62 203.437 92.57 2.115 8.24 3.615 14.71 5.102 23.07-62.332-34.93-128.934-56.1-197.459-74.5-3.54-13.98-6.935-27.33-11.08-41.14m-23.394 1.81c1.715 3.67 7.18 34.28 8.235 40.01-5.835 5.1-12.708 9.74-18.947 14.42-45.765 34.31-91.856 69.81-133.527 108.96l-2.322 1.91c-3.152-3.48-3.212-16.98-3.572-22.5 2.508-4.03 6.016-8.28 9.211-11.81 35.272-38.92 74.216-74.01 114.386-107.76 9.066-7.62 18.04-15.06 26.536-23.23m55.79 120.47a1259 1259 0 0 1 138.24 36.62c13.521 4.45 38.663 12.95 50.763 20.1.555 4.74 1.074 8.48 1.079 13.29-67.282-18.61-108.421-24.18-177.788-22.41-2.226-10.57-11.83-39.7-12.294-47.6m-70.136-460.34c-.638 4.18-1.334 8.34-2.087 12.5l-3.225-2.05c1.753-3.45 3.618-6.99 5.312-10.45"/><path fill="#56646e" d="m535.005 1491.93.231-1.25c.119-.76.379-2.13 1.317-2.04.701 1.07-.023 2.56-.324 3.6z"/><path fill="#0a293b" d="M1448.29 1238.04c53.75 98.8 104.42 192.01 153.22 293.37 67.45 140.09 132.28 272.08 131.96 431.67-.05 23.36-.51 61.75-4.49 84.92h-503c8.57-138.66 61.3-217.66 143.33-328.29 21.05-28.4 53.89-68.35 72.3-98.08 31.24-50.44 50.14-92.67 36.85-152.28-7.09 3.23-19.24 11.08-26.17 15.3-1.21-5.57-2.09-9.77-2.83-15.45l26.18-13.09c-.88-5.38-2.95-13.19-4.25-18.67-10.2 4.65-16.68 8.69-25.54 15.45l-1.93-16.87c8.71-3.7 14.83-8.62 25.19-12.63-1.34-7.21-2.81-14.4-4.42-21.55-9.06 3.7-14.31 6.76-22.28 12.21l-.61-14.91c6.43-3.35 13.21-6.61 19.72-9.85-.61-6.28-2.08-14.25-3.08-20.63-5.97 3.59-10.08 5.34-16.45 8.12-.49-43.36 1.78-88.85 2.01-132.73 1.5-3.63 1.33-3.57 4.29-6.01"/><path fill="#fdfcfb" d="M1512.92 1913.53c53.05 40.33 116.95 85.95 160.47 134.47h-29.76a2215 2215 0 0 0-141.52-86.36c3.41-15.69 6.79-32.66 10.81-48.11m-14.18 65.53c37.59 22.81 79.74 45.32 115.67 68.94h-30.17c-29.05-8.99-65.78-16.84-95.94-21.52 3.2-15.66 6.3-32.05 10.44-47.42m39.83-461.59c4.76 3.75 27.19 50.57 31.43 59.16 61.21 123.91 104.87 257.3 105.88 396.65l-10.35-11.19c-45.62-47.51-91.99-83.83-140.01-127.42a932.5 932.5 0 0 0 13.05-317.2"/><path fill="#fdfcfb" d="M1513.1 1528.18c-.11-2.85-.06-33.58.3-34.08.07-.01.15-.02.22-.02.85.77.91 1.75 1.03 2.83 30.39 100.48 13.86 234.54-8.72 335.17-9.8 2.53-19.01 6.4-28.51 9.79-58.76 21.03-112.1 43.29-167.29 72.76 5.72-15.16 13.64-29.14 21.28-43.38 25.06-46.67 57.01-93.65 88.7-136.29 48.31-65.02 89.93-121.34 92.99-206.78"/><path fill="#8d9aa5" d="M1513.1 1528.18c-.11-2.85-.06-33.58.3-34.08.07-.01.15-.02.22-.02.85.77.91 1.75 1.03 2.83-1.15 10.62.44 21.48-1.55 31.27"/><path fill="#fdfcfb" d="M1483.94 1913.24c.47 3.77-9.81 36.88-11.55 44.13-56.22 11.57-136.16 29.8-187.91 54.07-.44-5.73 1.58-17.13 2.86-22.86 57.49-31.45 133.27-58.65 196.6-75.34m14.32-59.21 1 .39c.22 3.25-8.36 33.33-9.91 40.02-72.41 18.24-129.22 40.09-195.87 72.24l-.98-.07c-1.2-3.4 1.97-12.94 3.64-16.19 16.41-31.98 164.05-83.76 202.12-96.39m24.74.37c8.02 5.78 18.49 16.03 26.21 22.78 42.86 37.55 87.95 75.9 125.54 118.73.14 5.47 1.17 21.96-1.25 26.44l-1.79-1.02c-45.07-45.85-106.39-84.8-155.56-126.23 2-13.61 4.29-27.18 6.85-40.7m-56.74 121.88.66.51c.54 4.63-8.83 40.09-10.41 46.36-62.17-1.3-117.61 2.75-177.2 22.32-1.64-3.36-.28-9.64.11-14.07 50.53-23.77 132.54-43.44 186.84-55.12"/><path fill="#0a293b" d="M0 711.985c55.413-91.554 107.187-174.577 170.84-261.08-.843 49.655-4.847 101.895-4.876 151.239l-19.653-11.76-7.222 19.583c8.158 3.39 15.617 8.649 23.046 13.482-.81 4.291-1.646 9.494-2.752 13.641-6.683-4.487-16.682-11.546-23.889-14.856-2.511 7.653-5.285 15.66-7.457 23.383 14.237 3.969 16.638 8.938 28.061 14.819-1.069 5.245-2.047 10.684-3.536 15.808-8.09-7.91-17.094-13.232-27.381-17.929-2.003 6.917-4.393 14.562-6.091 21.486 11.893 4.548 18.826 8.511 29.561 15.439l-3.952 16.04c-10.48-7.328-18.174-12.108-29.266-18.539-25.372 93.479 27.249 175.707 64.344 257.309 30.443 66.97 64.046 139.27 70.898 213.29 5.357 57.87-7.577 129.6-22.55 185.49-22.076.71-48.166 6.33-69.438 12.6 2.863-6.81 5.724-13.86 8.762-20.57-49.617-27.29-112.235-46.72-167.449-57.79z"/><path fill="#fdfcfb" d="M0 802.813c17.921-24.849 38.35-59.217 55.818-85.815-34.745 98.109-44.832 183.875-50.924 286.622-.103 1.74-3.44 4.75-4.894 6.02zm75.208-84.331 3.08 2.036c-16.93 101.806 21.285 177.377 61.052 267.163 24.222 54.689 45.677 112.929 54.936 172.189-31.907-35.17-74.166-69.92-110.884-100.29-20.63-17.06-41.427-30.87-60.71-49.99 1.269-95.097 15.18-203.174 52.526-291.108M23.216 1035.42c8.006 4.26 28.159 21.33 36.454 27.54 53.848 40.33 94.405 76.63 138.369 127.28l-.07 25.37c-2.59-1.38-21.009-20.07-24.781-23.73-44.517-43.23-103.04-77.83-150.403-116.2-.145-13.21.236-27.01.43-40.26m-.567 63.36c12.88 6.89 33.815 23.2 46.56 32.26 49.899 35.5 88.616 63.47 127.336 110.93-.376 5.93-1.11 11.67-1.813 17.56-10.611-7.61-23.846-19.88-36.422-28.94a2030 2030 0 0 0-136.257-88.64c-.063-14.39.136-28.79.596-43.17m-1.261 63.66c3.833 1.76 28.03 17.16 32.365 19.84 32.962 20.36 116.208 69.97 136.239 99.11-7.476-1.29-38.768-17.95-50.254-22.42a764 764 0 0 0-118.745-36.06c-.223-20.16-.092-40.32.395-60.47"/><path fill="#e0e3e6" d="M75.208 718.482c.553-1.096 2.299-5.194 3.28-5.824 1.03.75-.068 6.841-.2 7.86z"/><path fill="#0a293b" d="M1878.88 470.063c.82-6.237-1.58-11.854 3.42-13.944a3161 3161 0 0 1 112.49 166.279c17.35 27.605 35.81 61.995 53.21 88.056v573.126c-51.66 10.07-120.08 32-166.33 57.27 3.44 7.42 5.01 12.31 7.51 20.17-21.7-6.37-46.49-11.07-68.89-14.15-1.24-11.8-7.52-34.91-9.95-48.02-9.29-48.38-17.69-96.64-10.52-145.96 14.14-97.35 63.08-185.449 103.7-273.726 13.39-29.09 28.86-67.725 34.64-99.179a179.55 179.55 0 0 0-4.97-86.915c-8.9 3.763-21.99 12.188-30.23 17.579l-3.94-15.555c10.76-6.396 19.5-12.314 31.14-17.006-1.6-6.301-4.08-13.707-6.03-20.019-11.48 6.029-19.28 10.352-29.46 18.271-1.5-4.691-2.54-10.641-3.56-15.543 10.94-6.874 17.52-11.019 29.61-15.368-2.41-8.503-4.4-15.121-7.47-23.375-7.14 3.615-18.39 11.414-25.4 16.042-.56-4.361-.72-9.949-.97-14.429 7.37-5.358 14.74-10.112 22.96-14.059-2-6.981-3.89-12.416-6.42-19.241l-18.9 11.178c-2.29-40.163-6-91.918-5.64-131.482"/><path fill="#fdfcfb" d="M1998.98 724.157c8.75 14.844 18.45 29.086 28.05 43.407 7.2 10.747 13.87 22.431 20.97 33.023v208.843c-1.67-1.67-3.17-3.78-3.41-6.15-1.47-14.758-2.01-30.18-3.1-44.996-2.06-28.078-5.03-56.08-8.93-83.963-6.67-46.668-17.62-103.885-35.02-147.719z"/><path fill="#b3bfc7" d="M1997.54 726.602c-.26-.64-3.43-7.292-2.09-7.708 1.32.58 2.89 4.039 3.53 5.263z"/><path fill="#fdfcfb" d="m1972.66 719.334 1.89-2.022c38.2 88.629 49.36 195.974 52.99 291.908-61.14 51.84-117.52 91.53-172.63 151.21 11.2-63.21 33.52-124.21 59.58-182.856 41.29-92.918 70.99-153.449 58.17-258.24m53.23 315.696c1.68 1.92 1.07 34.94 1.08 40.24a2577 2577 0 0 0-77.61 57.03c-17.22 13.01-35.4 26.28-51.65 40.33-15.04 13-29.92 27.77-44.38 41.55-2.29-2.82-1.37-18.71-1.31-23.54 47.35-61.36 114.13-107.66 173.87-155.61m.74 62.74c1.82 10.59 1.25 33.74 1.15 44.76-19.13 9.71-41.15 24.17-59.39 35.73-38.57 24.43-77.18 50.26-111.91 79.95-.85-5.68-1.56-9.95-2.85-15.57 31.43-46.77 125.77-112.04 173-144.87m.34 65.39c1.89 2.97 1.16 52.17 1.16 59.31-62.52 14.74-107.72 30.15-165.34 57.24-.77-.59-.36-.14-.73-1.68 11.67-14.65 33.63-30.41 49.11-41.28 17.86-12.81 36.12-25.04 54.76-36.68 20.17-12.51 41.07-24.17 61.04-36.91"/><path fill="#e0e3e6" d="M1973.15 712.4c.46 1.64.93 3.277 1.4 4.912l-1.89 2.022c-.47-1.142-.92-2.291-1.36-3.446z"/><path fill="#8d9aa5" d="M1971.3 715.888c-.05-.657-.83-5.943.15-6.343.54.225.79.787 1 1.294l.7 1.561z"/><path fill="#0a293b" d="M209.198 1567.56c-1.433 49.68-6.768 105.43-6.526 154.02-5.765-3.75-12.407-7.85-17.966-11.76-2.684 6.64-4.854 11.72-6.665 18.66 7.861 3.83 13.953 8.28 21.09 13.21-.334 4.68-.546 9.01-1.341 13.66-8.059-5.37-16.182-10.95-24.565-15.76-2.632 7.6-5.611 15.7-8.04 23.32 13.677 4.21 17.009 7.15 28.459 15.83l-3.786 13.99c-9.709-6.49-18.085-12.15-28.295-17.86l-5.86 18.63c10.318 5.64 20.675 11.61 29.119 19.95l-3.781 15.87c-6.793-6.89-20.047-15.85-28.289-21.28-4.165 15.16-7.97 33.64-7.648 49.43 1.287 63.15 35.838 135 63.514 190.53H0v-175.76a2545 2545 0 0 1 121.908-187.3 4739 4739 0 0 1 52.698-72.15c11.134-14.74 24.034-30.35 34.592-45.23"/><path fill="#fdfcfb" d="m110.696 1822.87.782 1.13c.966 1.34 1.082 2.4 1.167 4.01C100.42 1910.6 113.899 1974 151.82 2048H63.045c2.12-18.28 2.28-38.16 4.474-57.14 6.3-54.53 19.312-118.35 43.177-167.99M0 1959.11c24.417-41.64 57.397-91.76 87.708-129.44-23.837 74.75-40.358 138.4-40.78 218.33H0z"/><path fill="#b3bfc7" d="M116.203 1810.61c-1.052 5.34-2.255 12.26-3.558 17.4-.085-1.61-.201-2.67-1.167-4.01l-.782-1.13c1.179-3.29 3.993-9.02 5.507-12.26"/><path fill="#0a293b" d="M1845.35 1575.15a2619 2619 0 0 1 152.88 212.06c16.54 25.46 34.77 53.47 49.77 79.79v181h-205.01c21.97-44.58 61.84-140.64 64.79-187.56 1.06-16.87-2.42-33.36-5.51-49.84-10.46 7.59-21.15 15.91-31.51 23.72-1.23-6.07-2.37-10.55-4.06-16.5 10.74-6.83 20.54-15.69 32.48-19.6-2.03-6.43-4.51-12.96-6.83-19.32-13.21 6.98-18.67 11.08-30.39 20.07-2.26-4.8-3.3-8.67-4.83-13.71 11.64-6.51 18.72-14.92 31.85-18.95-2.29-8.4-4.37-14.49-7.38-22.69-10.21 5.67-18.83 11.77-28.06 18.86-.54-4.61-1.37-9.45-2.07-14.07 9.84-7.14 15.28-11.42 26.4-16.41l-8.89-21.74c-6.43 4.06-13.63 9.67-19.83 14.26-2.57-48.5-6.38-91.1-6.33-140.23.55-4.29-.4-6.16 2.53-9.14"/><path fill="#fdfcfb" d="M1938.35 1815.34c7.84 20.8 16.26 38.68 23 60.35 16.84 54.16 24.88 115.81 25.6 172.31h-86.96c6.66-15.71 13.57-29.98 19.66-46.15 20.87-55.45 31.62-125.21 16.87-183.2zm31.3 27.77 1.67-3.81a1004 1004 0 0 1 76.68 111.76V2048h-42.96c-4.35-68.63-12.31-139.65-35.39-204.89"/><path fill="#fdfcfb" d="M1969.65 1843.11c-.44-1.41-3.73-8.22-1.98-8.63l.72.45-.78.28 1.12.07c.93 1.3 1.75 2.67 2.59 4.02z"/><path fill="#b3bfc7" d="M1936.52 1818.65c-.17-.97-1.58-6.74-.51-6.99.92.36 2 3.01 2.34 3.68z"/><path fill="#ddaa6b" d="M1836.78 1633.66c-.04 8.27-.18 16.7.12 24.95-27.28 22.24-58.3 45.5-61.38 82.69-3.05 36.84 4.25 52.42 14.67 84.27 18.96 58.01 19.78 113.55.49 171.8-4.23 12.78-12.62 41.46-22.2 50.63h-9.6c23.66-51.78 31.97-115.33 22.27-171.35-10.18-58.81-55.77-116-18.94-172.83 18.6-28.7 51.19-45.52 74.57-70.16m-1619.843 3.1c11.341 8.47 21.217 17.26 32.081 26.23 24.595 20.31 46.432 38.97 51.486 72.43 5.69 37.68-12.062 73.65-23.503 108.84-23.805 73.22-13.936 134.81 12.884 203.74h-10.558c-19.677-35.8-32.447-86.22-35.092-127.14-1.468-22.7 5.922-62.19 13.017-84.83 12.238-39.04 29.206-82.3 9.732-122.52-11.521-23.79-34.667-35.37-50.519-54-.139-7.83.139-14.91.472-22.75"/><path fill="#0a293b" d="M1894.78 1363.2c47.16-24.47 101.45-38.29 153.22-49.58v70.78c-11.26 3.84-45.92 11.88-57.28 10.42-28.86-3.71-67.51-21.35-95.94-31.62M0 1313.47c61.54 12.97 97.89 22.1 155.207 48.96a2659 2659 0 0 0-41.588 14.69c-6.588 2.44-33.37 13.63-37.817 13.45-23.813-.95-51.73-6.98-75.802-9.87z"/><path fill="#ddaa6b" d="M234.045 2048c-22.06-47.91-46.49-99.31-38.775-153.46 4.013-22.73 11.787-50.26 20.476-71.59 12.185-29.91 16.074-51.21 1.284-81.27-6.501-13.21-7.291-17.7-7.012-32.1 18.243 16.63 27.597 36.3 29.037 61.09 1.424 24.51-7.581 37.12-14.484 58.96-14.995 47.44-23.619 100.46-9.526 149.14 6.4 22.1 19.617 48.86 30.801 69.23zm1602.865-334.86c.46 9.85 1.03 13.66-2.75 22.87-6.47 15.78-12.58 32.35-10.78 49.77 2.07 20.19 13.07 39.52 18.66 58.91 18.88 59.94 18.43 95.95-4.05 153.57a538 538 0 0 1-22 49.74h-9.76c16.19-36.74 33.45-69.75 35.62-110.07 2.82-52.11-11.92-94.26-28.73-142.15-8.84-25.18 3.29-64.29 23.79-82.64M1201.11 2048c-3.41-82.43 2.86-161.02 61.77-224.69q1.185-1.275 2.43-2.49c-9.25 20-19.76 36.15-28.73 57.23-19.04 44.77-28.73 121.6-25.54 169.95zm-133.66 0c-4.33-9.01-3.6-23.64-3.73-33.62-.85-66.38 9.35-151.15 59.98-199.04-10.73 20.49-21.89 40.76-29.47 62.64-16.63 48.1-21.95 99.21-18.32 149.85.41 5.85 2.12 15.63-1.18 20.17zm-277.591-227.47c49.843 47.62 61.787 122.87 62.617 188.55.137 10.89.432 28.52-1.263 38.92h-9.473a400.55 400.55 0 0 0-30.055-183.55c-6.728-15.8-15.365-29.22-21.826-43.92m138.841-7.28c45.531 45.1 60.196 120.93 60.905 183.27.141 12.49.079 40.8-4.726 51.48h-7.175c-2.047-15.79 2.265-39.25 1.199-56.92-2.872-47.59-9.489-93.2-29.883-136.89-6.251-13.85-14.742-28.13-20.32-40.94m-89.217 5.88c44.134 41.31 62.767 132.53 63.686 191.61.149 9.52 1.362 28.33-.39 37.26h-10.223c-.021-61.48-5.863-122.85-28.861-180.78-7.115-17.92-16.433-31.6-24.212-48.09m374.717 1.7c-4.19 8-8.86 15.52-13.04 23.61-31.65 61.17-41.99 135.55-41.96 203.56h-10.03c-.29-62.32 5.09-122.64 32.97-179.4 9.02-18.37 16.59-32.11 31.22-46.94zm-64.6 30.41c-4.07 19.55-10.91 33.47-16.25 51.76-13.29 45.44-23.16 97.64-20.5 145h-9.81c-.59-61.34 10.19-146.26 46.56-196.76m-245.465-.13c28.788 36.43 52.545 150.65 44.898 196.89h-6.809l-.287-1.87c-1.051-7.24-.805-24.08-1.415-32.77a428.5 428.5 0 0 0-9.062-61.55c-3.845-18.05-7.695-34.11-12.939-51.75-4.222-14.2-11.927-34.72-14.386-48.95"/><path fill="#253543" d="M1878.88 470.063c-.5-3.398-4.16-27.296 3.42-13.944-5 2.09-2.6 7.707-3.42 13.944M1444 1244.05c.03-1.54-.54-9.7 1.41-10.23 1.3.45 2.31 3.07 2.88 4.22-2.96 2.44-2.79 2.38-4.29 6.01m398.82 340.24c-.31-2.39-1.66-11.9-.32-13.43 1.01.46 2.29 3.32 2.85 4.29-2.93 2.98-1.98 4.85-2.53 9.14"/><path fill="#0a293b" d="M965.466 80.224c50.434-13.874 83.774-13.764 134.324-1.402-10.23 39.742-14.86 67.44-11.43 108.83 15.37.166 79.17-.01 81.85 17.787-4.01 15.25-61.64 19.704-76.07 20.67-2.28.579-5.31.783-6.76 1.742-.47 9.905-.62 22.627-5.68 31.327-1.14 1.515-1.81 2.196-3.13 3.581l-3.62-.884c-.77 7.438-1.74 15.717-2.14 23.147-6.86 5.155-14.58 11.937-21.34 16.461l2.59 1.658c6.03-3.823 11.38-7.298 17.2-11.442-.26 4.856-1.32 11.93 1.08 15.876l4.51.611c-10.28 9.472-17.24 15.936-28.25 24.844 4.62 4.509 9.58 7.532 13.82 11.796-1 .846-1.91 1.582-2.93 2.393-10.75 17.122-10.52 39.689 10.57 47.858 4.32 7.316 3.33 16.94 12 18.944 11.8 2.726 22.05 2.826 32.09-4.843 8.09-6.182 11.82-3.651 20.47-4.996-12.34 49.728-33.63 97.375-51.19 145.068-17.94 48.712-35.38 95.85-55.09 144.006a6571 6571 0 0 1-97.701 220.789c-12.005 25.941-47.784 113.135-69.201 125.345-19.104 10.88-58.648 7.01-79.15.67-7.666-2.37-19.305-6.11-23.096-13.74-1.55-3.12-1.132-6.37.139-9.47 5.481-13.35 35.251-24.873 28.387-41.254-4.669-11.142-21.932-18.885-32.675-22.741-14.734-5.288-30.682-5.939-45.112.865-16.714 7.881-25.774 19.983-35.331 35.2 12.828-39.914 56.262-92.706 85.601-122.751 98.586-100.96 236.123-166.31 297.629-299.405l-2.01-.684c-18.97 34.255-40.92 57.775-68.699 84.901a938 938 0 0 1-59.804 53.221c-36.987 29.613-75.893 56.695-111.59 87.969-40.23 35.247-77.988 73.591-116.885 110.316-13.533 12.777-26.52 26.567-40.969 38.289-13.683 11.101-30.477 22.669-47.665 27.423-49.46 13.68-90.645-53.805-161.781-14.813-18.037 9.887-30.498 26.136-46.609 38.219l-3.244.015c9.363-15.069 16.958-28.663 28.675-42.566 47.142-54.808 118.531-87.66 183.71-116.184 65.829-28.807 131.489-61.057 188.425-105.537 26.097-20.388 52.45-47.682 75.136-71.925l-1.068-2.509c-56.972 58.674-127.513 101.02-200.28 137.265-19.688 9.807-40.021 18.422-59.847 28.048-8.329-63.102-62.143-94.919-120.003-65.032-17.984 9.289-29.065 20.097-42.571 34.769C474.395 678.526 596.48 667.767 682.08 638.955c122.962-41.387 303.126-129.221 375.08-240.958l-2.8-.465c-15.31 21.078-37.35 37.574-57.825 54.539-117.059 96.977-263.569 170.521-413.931 196.837-52.466 9.183-134.434 12.73-180.205-17.664-10.947-7.777-16.778-18.943-18.639-31.856-1.697-11.77 2.366-22.401 3.114-33.434 3.605-53.201-48.62-69.484-91.896-62.591-16.181 2.577-32.099 5.733-45.596 13.932l-2.704-1.12c123.191-103.665 219.454-16.493 349.858 5.899 72.881 12.168 156.368-3.072 225.704-27.159 70.805-24.598 141.229-55.681 202.24-99.542l-.89-2.073c-57.751 35.895-101.753 56.214-164.912 81.96 4.353-21.998 10.57-44.144 15.345-66.116 2.329-10.72 4.976-21.989 8.045-32.474 4.605 9.143 14.037 30.794 19.674 37.835-7.346-21.84-16.68-44.495-25.327-65.945 24.02-8.295 54.429-15.793 76.527-24.436 1.369-.843 1.465-.845 3.024-1.337-9.029-15.596-25.184-24.731-40.174-34.395a371 371 0 0 1 78.636-9.434c-.07-8.201.042-41.252-4.662-46.47-.985 8.195.798 21.537 1.762 29.903l-1.603-.365c-7.557-9.642-8.212-19.357-8.691-31.032-3.285-1.203-23.084-2.709-28.036-3.304a324 324 0 0 1-31.219-5.434c-7.248-1.67-24.003-5.476-28.009-11.887.799-15.309 70.95-18.024 86.021-18.709 1.662-41.597-3.643-72.11-14.525-111.436"/><path fill="#fdfcfb" d="M994.403 287.296c9.477 3.952 12.377 5.772 20.687 12.343-1.5.691-2.23.997-3.76 1.547-.29 7.008-.1 13.808.06 20.815 7.51 7.202 11.92 10.577 18.87 18.633 9.71-5.424 35.61-24.204 42.08-33.059l4.51.611c-10.28 9.472-17.24 15.936-28.25 24.844 4.62 4.509 9.58 7.532 13.82 11.796-1 .846-1.91 1.582-2.93 2.393-6.7-2.485-8.76-4.343-13.59-9.737l-1.02-1.12c-7.82 4.786-16.83 9.313-23.81 14.725l-1.46-1.047c1.9-3.433 2.79-5.486 4.25-9.13-5.97-6.865-18.88-18.77-26.151-25.689l1.52-1.782c2.021 1.095 4.281 2.64 6.371 3.393.27.095.93.148 1.03-.097 1.39-3.371.34-15.577.2-18.975-4.24-3.674-8.193-6.67-12.427-10.464"/><path fill="#8d9aa5" d="M873.452 652.899c7.311-9.573 17.863-18.663 25.22-28.486 1.082-1.444 8.245-10.498 9.743-10.642.431 1.963-30.475 38.212-33.895 41.637z"/><path fill="#e0e3e6" d="M1074.95 261.875c.17-1.989.48-3.903.77-5.879.74-5.018 1.39-10.107 2.67-15.004.19-.759.39-1.52.63-2.268-.06 6.528-.07 11.118-.6 17.61l3.28 2.844c-1.14 1.515-1.81 2.196-3.13 3.581z"/><path fill="#253543" d="M1078.57 262.759c-.36-3.096-.39-3.342-.15-6.425l3.28 2.844c-1.14 1.515-1.81 2.196-3.13 3.581"/><path fill="#e0e3e6" d="M1015.09 299.639c1.98 1.273 16.12 11.836 16.44 12.844-1.94 1.424-17.48-9.706-20.2-11.297 1.53-.55 2.26-.856 3.76-1.547"/><path fill="#fdfcfb" d="M955.966 322.787c4.414 3.64 5.939 16.546 6.859 22.146-3.697-6.767-5.794-16.185-9.883-20.809 1.369-.843 1.465-.845 3.024-1.337"/><path fill="#b3bfc7" d="M1054.06 303.141c-2.2 1.539-15.72 9.873-18.1 8.319l.85.128.34-.971c4.66-2.137 9.99-6.21 14.32-9.134z"/><path fill="#56646e" d="M1044.99 378.4c-3.66 3.914-7.45 7.765-11.99 10.659l-.6.39-.46-1.808c3.45-3.91 8.57-6.528 13.05-9.241"/><path fill="#b3bfc7" d="M1023.59 393.3c2.15-2.227 5.71-4.079 8.35-5.659l.46 1.808c-3.04 2.085-5.08 3.882-7.92 5.924zm63.79-165.449c-1.66.161-5.32.526-6.89-.436 1.33-2.204 10.99-1.328 13.65-1.306-2.28.579-5.31.783-6.76 1.742m-66.31 123.236c-.68.826-5.66 8.633-6.63 6.802l.39-.109-.37-.005 1.1-.631-.43-1.172c1.44-1.998 2.87-4.066 4.48-5.932zm38.15 208.242 1.2 2.138c-1.05 1.916-1.7 3.325-2.59 5.297l-2.01-.684c1.06-2.289 2.33-4.464 3.4-6.751"/><path fill="#56646e" d="M1059.22 559.329c2.62-6.991 3.79-4.541 1.2 2.138z"/><path fill="#e0e3e6" d="M1054.36 397.532c3.07-6.121 5.36-7.108 2.8.465zm-56.651-82.311c-2.775-4.332-2.954-6.221 1.52-1.782z"/><path fill="#fdfcfb" d="M982.039 212.379c31.841 9.889 73.031 5.902 104.391-4.092l1.78 1.994-.98.285c-8.52 2.544-16.03 6.303-24.84 8.463-27.53 6.749-55.94 7.914-81.747-4.683z"/><path fill="#b3bfc7" d="M1086.43 208.287c1.33-.338 5.64-1.881 6.71-.713-.37 1.045-3.98 2.265-4.93 2.707zm-105.787 6.059c-.324-.151-5.605-2.063-4.718-3.19 1.362-.558 3.23.314 4.503.728l1.611.495z"/><path fill="#ddaa6b" d="M806.767 1317.75c39.207 15.62 28.16 39.74 49.105 54.62 15.438 10.98 42.017 5.42 55.573 16.42 2.468 2 5.416 6.42 5.035 9.78-.364 3.2-30.521 24.83-35.308 29.58 11.674-2.99 29.795-9.5 40.76-14.16 37.132-15.75 41.637 25.17 67.672 37.48 11.716 4.41 32.576 5.4 43.906 1.01 17.25-6.68 26.61-15.85 46.02-9.73 23.99 7.56 28.18 32.01 45.04 45.51 19.64 15.71 51.14 1.43 72.86 8.06 14.83 5.29 19.58 25.81 36.9 27.19 35.19 2.81 70.34-10.54 104.28 6.12-30.22 23.1-22.96 19.18-35.02 54.81l1.71.69c7.7-19.4 21.63-41.62 41.36-50.3 8.79 41.15 21.8 53.21 46.67 85.84 4.12 5.41 12.15 14.82 15.59 20.24-30.45 13.14-62.27 13.7-95.04 14.13-7.14.09-19.31.11-26.13-.79-15.05-16.65-30.92-39.46-56.73-39.24-35.83.3-47.97 16.07-87.47 11.69-3.75.54-5.29.15-8.58 1.98 32.72 10.26 70.57-4.54 106.73-1.59 7.52 5.37 19.39 13.43 26.19 19.31 10.35 8.96 20.17 18.57 30.7 27.68a351 351 0 0 1-21.01 5.04c-43.72 9.44-87.61 18.1-131.65 25.98-22.76 4.17-44.27 9.69-67.5 10.98-33.06 2.97-66.11-.81-98.937-1.53-44.845-.98-83.25-8.02-126.848-17.88-62.252-14.1-127.884-23.35-187.507-46.75-9.962-3.91-20.183-7.38-29.213-13.26 10.231-14.18 22.987-24.1 36.171-35.83 34.43-30.64 44.037-68.58 52.121-112.9 6.509 19.85 13.513 39.85 20.26 59.64 5.079 14.89 10.716 32.73 17.275 46.79-7.959-41.76-24.854-85.25-34.49-126.77-.989-4.26-.208-16.45-.008-21.38 13.841 3.89 22.854 5.02 36.963 6.94 8.885 2.08 36.452.75 43.364 5.57 35.076 24.44 12.865 70.3 66.367 79.57 30.946 5.37 52.002-.43 83.01-.43 30.112-.01 55.422 19.64 75.242 41.3-26.94-55.92-52.671-53.53-108.118-49.43-23.581 1.4-61.755-8.61-71.318-32.92-14.204-36.11-14.008-61.94-61.679-59.64 2.771-24.32 7.732-42.4 12.517-65.92 3.524-17.34 3.63-35.85 3.165-53.5"/><path fill="#f4e8d3" d="M1119.11 1624.05c7.88.86 16.7 1.37 24.44 2.65-3.75.54-5.29.15-8.58 1.98-4.77-.43-11.37-2.89-15.86-4.63"/><path fill="#eac89b" d="M1299.17 1598.87c1.36-5.59 2.13-9.11 4.42-14.43l1.71.69c-2.24 6.75-2.85 7.5-6.13 13.74"/><path fill="#fdfcfb" d="M825.41 1633.55c-2.873-13.31-6.275-27.3-9.008-40.55-4.585-22.21-13.336-29.88-28.787-45.4 34.568 21.31 46.119 21.29 87.521 19.18 7.667-.11 21.273-.99 28.629 1.95 22.339 8.92 30.702 35.67 51.615 48.17 23.24 13.89 48.38 7.78 73.51 14.37 29.04 7.6 44.53 33.81 55.58 59.67l-1.77 1.26c-4.39-10.13-10.93-14-17.91-20.94-38.31-38.08-77.755-17.56-121.348-38.19-16.688-7.9-22.284-41.76-44.682-48.71-10.275-3.18-14.752-2.85-25.276-2.2-22.595 1.38-35.645-1.71-54.671-13.28 4.038 17.51 5.493 44.94 8.732 64.39z"/><path fill="#eac89b" d="m825.41 1633.55 2.135-.28c.25 1.22 1.271 7.06.114 7.93-1.665-.64-2.044-6.13-2.249-7.65m259.06 57.39c.32.94 1.35 3.34.97 4.36-1.01.72-2.51-2.69-2.74-3.1z"/><path fill="#ddaa6b" d="M1046.44 1078.72c16.45 9.89 47.98 30.43 64.19 37.53 10.62-7.4 34.64-24.91 45.06-30.08-9.98 34.71-20.94 76.19-32.66 109.79 6.29 11.56 5.53 11.93-.86 22.99 4.5 10.61 24.85 60.06 32.68 64.71 33.26 4.97 67.62 8.09 100.68 13.2-13.94 4.59-30.26 15.05-43.05 22.72-33.27 19.96-92.99 56.32-131.82 56.56-3.07 1.09-3.52 1.4-6.67 1.73 9.71.13 15.64 2.01 26.91.89 40.58-4.05 72.48-33.15 108.66-48.94-2.61 28.95-10.49 71.37-16.47 100.4 16.96-9.52 31.05-19.67 47.01-30.06 17.89-11.66 44.83-.48 63.85 5.8.16 19.84-.25 39.78-.13 59.59.1 16.78 13.96 34.25 22.89 48.39-23.29-17.77-51.97-10.99-79.68-8.5-15.15-7.24-25.9-22.14-42.22-26.93-22.87-6.73-47.91 5.64-69.91-3.15-22.39-8.94-26.92-36.15-51.27-40.79-22.04-5.61-66.51 16.25-85.027 7.43-34.187-16.29-24.361-55.24-76.219-40.56-1.258-7.12-2.189-11.49-4.172-18.42-5.765-2.57-26.569-9.9-32.299-9.86-30.163.23-30.675-11.14-44.864-36.35 31.615 9.45 67.743 8.44 100.693 9.94 12.133.55 23.552-.29 36.189.83 23.909 2.12 45.329 11.34 67.959 16.03l1.3.26c-16.72-9.19-54.881-25.41-72.473-25.77-70.896-1.45-103.733 7.28-168.685-30.77 26.83-9.42 68.917-19.2 97.891-26.87 3.046-3.08 19.096-38.73 21.579-44.64-5.607-21.55 2.294-24.87-.891-42.46-5.923-32.71-18.648-68.65-24.555-101.09a1222 1222 0 0 0 20.593 15.11l1.25-1.03c6.11 1.59 21.243 13.49 28.182 17.77l-.825 2.23c10.934-3.14 51.374-30.56 65.074-38.49-11 34.57-22.768 70.06-32.065 105.04-4.811 18.11 9.853 10.6-8.691 33.67 2.018 12.81 2.608 23.12 2.536 36.08 8.746.14 92.69-4.27 95.4-5.66l5.29-33.29c-9.1-11.41-9.27-14.31-4.32-28.67-4.66-22.03-9.5-44.03-14.52-65.99-3.62-16.49-7.05-34.14-11.52-50.32"/><path fill="#0a293b" d="M1046.44 1078.72c16.45 9.89 47.98 30.43 64.19 37.53 10.62-7.4 34.64-24.91 45.06-30.08-9.98 34.71-20.94 76.19-32.66 109.79 6.29 11.56 5.53 11.93-.86 22.99 4.5 10.61 24.85 60.06 32.68 64.71 11.07 10.11 19.9 17.13 31.93 26.19 1.01 18.6-1.81 17.97-18.81 19.09-41.17 2.73-42.22-21.64-65.41-43.58l-1.1-1.04c.01 6.66.63 13.8 1.09 20.49-32.8-9.94-26.81-15.18-31.04-47.82l5.29-33.29c-9.1-11.41-9.27-14.31-4.32-28.67-4.66-22.03-9.5-44.03-14.52-65.99-3.62-16.49-7.05-34.14-11.52-50.32m-97.184 47.63c10.934-3.14 51.374-30.56 65.074-38.49-11 34.57-22.768 70.06-32.065 105.04-4.811 18.11 9.853 10.6-8.691 33.67 2.018 12.81 2.608 23.12 2.536 36.08q-.952 13.65-1.573 27.33c-6.782 3.59-15.295 7.8-21.505 12.06l-.439-14.01c-15.268 14.48-17.503 18.77-29.161 35.92-15.581 3.9-43.226 12.46-55.269-2.22-.815-7.23 29.083-33.44 35.76-41.27 3.046-3.08 19.096-38.73 21.579-44.64-5.607-21.55 2.294-24.87-.891-42.46-5.923-32.71-18.648-68.65-24.555-101.09a1222 1222 0 0 0 20.593 15.11l1.25-1.03c6.11 1.59 21.243 13.49 28.182 17.77z"/><path fill="#e0e3e6" d="M921.899 1106.35c6.11 1.59 21.243 13.49 28.182 17.77l-.825 2.23c-9.938-5.71-19.191-12.47-28.607-18.97z"/><path fill="#eac89b" d="M1073.99 1377.87c-.7-.06-2.19.14-2.59-.68.51-1.82 8.25-1.08 9.26-1.05-3.07 1.09-3.52 1.4-6.67 1.73"/><path fill="#0a293b" d="M1042.45 675.565c10.94 14.313 22.67 28.365 33.85 42.526 11.67 14.792 22.92 29.966 36.4 43.18 16.38-10.693 39.42-31.315 56.81-44.124-6.78 39.226-10.95 87.281-16.12 127.751a6952 6952 0 0 0-11.41 92.137c-1.59 13.692-3.55 29.023-4.77 42.661-.73 8.058 4.52 24.904 4.43 34.824-.25 26.92-4.51 53.39-6.75 80.05l-24.35 17.5c-12.52-7.22-27.91-16.24-39.53-24.5-.98-28.84.27-63.58-2.28-91.198 5.08 6.318 9.64 9.968 15.89 14.988-7.44-12.756-12.44-19.173-21.76-30.418 15.02 6.912 26.42 19.168 43.35 25.738-8.01-8.933-26.81-24.345-36.26-32.432l-19.09-127.817c-3.69-25.201-8.23-53.187-10.81-78.311l-1.99 1.246c-5.41 42.691-12.59 87.351-19.34 129.926a4485 4485 0 0 1-9.44 57.615c-3.49 20.365-7.18 31.405-3.84 52.263-8.848 8.73-22.824 20.17-29.968 28.86 12.34-6.79 21.941-16.23 34.128-23.16-4.13 4.86-8.23 9.74-12.314 14.65.111 1.47.265 2.24.527 3.75-1.232 17.41-6.663 48.42-9.874 66.21-10.09 6.3-29.2 17.67-37.858 24.64-6.939-4.28-22.072-16.18-28.182-17.77.264-10.48 2.82-27.84 4.06-38.94q4.637-39.45 8.299-78.99c7.582 8.25 14.709 16 21.89 24.62-3.533-8.93-14.997-27.538-16.25-32.394-3.861-14.964-4.239-41.52-6.098-58.115 6.521-14.503 13.773-28.917 20.086-43.446 28.909-66.534 64.234-135.458 88.564-203.52"/><path fill="#e0e3e6" d="M997.286 1029.52c.111 1.47.265 2.24.527 3.75-4.453 4.53-7.461 6.76-12.451 10.69 2.442-4.2 8.394-11.34 11.924-14.44"/><path fill="#8d9aa5" d="M1038.06 769.366c.13-.993.12-3.408 1.22-4.092.96.444.64 2.025.77 2.846z"/><path fill="#0a293b" d="M1132.64 353.87c3.15-29.736-10.94-11.541-19.2-22.776 1.23-3.279.27-1.791 3.62-4.126 11.21-1.041 72.51 11.397 85.62 14.444-9.45 6.612-16.26 12.635-24.07 21.076l12.58-8.387 9.92 115.694c2.88 32.795 7.96 54.821-.56 87.033l2.29 1.867c.63-2.698 3.13-8.437 4.26-11.266l3.24.488c-.34 6.28-.54 12.647-.94 18.912-1.3 20.219 2.13 39.804 4.29 59.916l8.79 85.23c-17.29.097-34.52-.07-51.7 1.883 5.96-3.734 9.79-6.153 15.23-10.55-5.44-12.85-19.19-36.738-22.8-48.614-5.9-19.421-9.38-49.559-13.4-70.617 3.05-11.197 12.84-25.583 18.96-36.159a1301 1301 0 0 0-18.3 18.246c-5.23-29.773-9.39-39.84-.94-69.132l-2.24-.056-14.67 51.468 3.47 11.908c-12.53 7.842-23.82 16.724-35.73 25.446l1.91 1.482c11.42-5.467 24.39-10.721 36.14-15.717l-.09.563c-1.97 11.131-2.63 23.51-3.53 34.861 9.71 18.684 18.8 44.246 28.23 63.724 4.75 9.805 9.17 22.213 15.52 31.089-22.57 16.653-43.29 33.723-64.99 51.49a5932 5932 0 0 1-69.18-82.942c12.99-30.794 27.04-68.59 38.61-100.34 19.28-52.905 47.94-112.342 53.63-167.931 21.21-10.424 5.84-34.478-3.97-48.207"/><path fill="#b3bfc7" d="m1152.04 479.568 1.42 1.998c-.87 2.638-1.06 3.226-1.67 5.908l-2.26 9.558-2.24-.056c.7-4.102 3.49-12.982 4.75-17.408"/><path fill="#e0e3e6" d="m1200.55 556.828 2.29 1.867c-.47 1.251-2.46 7.297-3.42 7.79-1.15-1.125.81-8.215 1.13-9.657"/><path fill="#253543" d="M1152.04 479.568c2.98-12.027 3.41-6.883 1.42 1.998z"/><path fill="#b3bfc7" d="M1102.27 587.28c-.74.412-4.48 2.878-5.49 2.074.02-1.248 2.83-2.968 3.58-3.556z"/><path fill="#ddaa6b" d="M1786.63 1209.92c2.44 3.42 2.23 22.86 2.35 28.37-44.94 24.83-128.22 69.45-118.09 134.18 6.67 42.57 58.22 67.48 91.34 89.96 42.53 28.86 55.13 80.85 25.49 124.56-12.4 17.45-35.66 33.18-51.71 48.03-18.17 16.83-36.22 33.16-51.12 53.19-5.76-10.93-11.53-25.73-16.93-37.4 23.89-29.98 56.47-39.14 75.49-78.83 36.85-76.89-53.35-108.48-92.85-157.67-55.25-68.8 20.11-130.32 76.89-162.5 15.15-8.59 45.08-30.5 59.14-41.89m-1521.906-.06c29.811 24.04 63.479 43.53 94.263 66.38 26.062 19.47 49.127 46.06 53.622 79.35 12.497 92.55-132.392 101.99-119.91 195.52 6.58 49.3 53.503 74.18 89.511 101.38-3.906 8.11-12.074 23.18-16.742 30.82l-1.149-.37c-15.987-17.47-27.333-28.09-45.197-43.27-28.516-24.25-63.445-38.45-75.301-75.98-11.726-37.12-1.205-67.1 28.485-91.52 9.865-8.12 22.756-15.98 33.347-23.44a384 384 0 0 0 43.48-34.89c25.066-23.76 34.466-47.19 22.025-81.31-12.971-35.58-48.622-59.06-80.346-76.21-10.249-5.55-20.249-12.1-31.088-16.99 1.983-8.58 3.45-20.41 5-29.47"/><path fill="#ddaa6b" d="m1790.07 1297.89 1.66 1.25c.06 7.97-8.14 12.02-12.96 18.09-26.5 33.3-23.15 43.19 10.4 65.88 23.18 15.67 44.58 24.54 67.11 37.61a238.7 238.7 0 0 1 36.03 25.66c28.08 24.25 47.03 48.24 49.32 86.17 2.51 41.54-16.05 64.88-41.89 94.74l-1.35 1.59-1.38.04c-5.52-6.59-13.03-18.31-18.08-25.69 22.63-28.42 34.13-51.75 25.65-88.78-13.33-58.07-71.63-88.17-117.77-117.55-19.27-12.27-48.59-31.43-37.49-58.47 8.55-20.82 20.91-31.13 40.75-40.54m-1528.732-1.21c13.106 3.98 22.103 11.81 30.718 21.9 38.243 44.71-12.351 68.06-44.159 89.82-42.005 28.73-92.726 59.63-98.641 115a101.02 101.02 0 0 0 22.086 75.25c-3.43 4.91-12.676 19.21-17.361 21.14l-2.339-1.3c-26.193-32.37-43.326-57.87-34.773-101.46 7.06-35.98 29.224-59.19 58.867-79.16 12.487-8.42 27.209-14.59 39.94-22.72 18.111-11.56 35.642-24.33 53.879-35.76 9.536-5.98 20.652-14.21 22.329-25.78 2.373-16.4-8.341-32.17-20.199-42.41-5.956-5.15-12.218-6.81-10.347-14.52"/><path fill="#ddaa6b" d="M1783.02 1264.95c2.08.96 1.42.72 3.09 2.62-1.67 5.83-16.41 11.8-21.46 15.84-23.21 18.53-45.66 42.1-43.69 74.12.45 7.45 1.32 16.94 5.61 23.08 38.34 54.95 141.33 64.42 142.39 144.92.17 12.4-3.65 37.71-12.38 46.87l-7.54-9.25c7.17-19.95 8.95-41.66 1.63-61.89-23.63-65.27-109.79-66-138.9-120.62-7.01-13.15-3.34-39.05 2.74-53.06 12.73-29.32 39.32-50.74 68.51-62.63m-1515.523-.22c9.298-.14 15.827 4.52 23.6 9.45 24.594 15.62 45.522 34.91 51.613 64.52 2.775 13.5 2.777 35.38-4.978 46.87-30.441 45.08-97.943 52-128.525 100.36-15.631 24.71-15.276 46.54-9.416 73.99-1.454 2.98-3.684 6.72-5.335 9.69-.611 1.23-.122.68-1.732 1.36-3.881-4.04-6.816-15.37-7.893-21.08-15.262-80.87 52.719-98.85 106.205-136.57 12.517-8.82 26.024-19.11 34.555-32.12 7.492-11.47 8.495-31.97 5.217-44.91-7.298-28.82-34.912-51.44-59.715-65.44-3.309-1.87-2.978-2.67-3.596-6.12"/><path fill="#ddaa6b" d="M1801.32 1319.76c7.22 12.13-7.97 23.88 1.16 33.43 28.02 28.39 66.5 39.64 99.52 61.63 53.37 35.53 92.57 80.11 78.79 148.59-5.26 26.15-40.83 77.64-64.17 91.74-.98-1.23-1.79-2.43-2.7-3.72.21-1.89 1.17-4.13 2.65-5.26 10.85-8.19 18.37-16.11 26.97-26.71 25.61-31.44 31.93-67.67 27.19-107.48-4.47-37.5-40.52-69.7-69.89-89.97-14.85-10.26-36.84-17.46-53.61-25.16-22.81-10.48-54.53-22.14-59.68-50.48-1.6-9.45 8.17-19.94 13.77-26.61m-1555.46 2.26c7.261 3.03 19.982 13.95 18.055 23.01-8.333 39.19-54.562 46.02-84.657 62.51-17.283 9.08-34.742 19.19-49.1 32.59-26.188 24.45-45.045 47.42-46.626 84.32-1.613 37.66 6.606 69.06 31.436 98.36 7.295 8.6 15.59 15.22 22.825 23.26l.582.66-2.45 2.38-1.972-.23c-13.095-8.26-35.7-38.39-44.161-51.98-18.062-29.02-21.188-59.37-12.888-92.5 14.62-50.82 62.576-81.34 105.632-107.7 16.4-10.04 72.496-30.75 68.276-57.08-1.027-6.41-7.311-8.66-4.952-17.6m1011.08-21.09.32.3c1.06 2.24-7.22 83.95-8.63 91.27-25.23 4.58-22.13 9.07-43.73 22.57l-.6-.6c-2.54-9.08 8.72-69.72 10.61-83.24 13.78-11.19 27.93-19.65 42.03-30.3"/><path fill="#0a293b" d="M1076.48 275.902c24.26.069 53.96 4.944 78.17 8.626-13.88 8.598-23.92 18.927-34.52 31.344-1.9 2.236-7.45 10.178-9.04 11.598-6.02.736-13.04 1.419-18.93 2.405-1.88 2.426-3.72 6.153-6.93 6.142-9.54-.032-16.29.914-22.81 8.809-4.24-4.264-9.2-7.287-13.82-11.796 11.01-8.908 17.97-15.372 28.25-24.844l2.37-1.958-2.35-2.528c-3.11-4.826-1.1-21.81-.39-27.798"/><path fill="#e0e3e6" d="M1092.83 292.536c-4.68 5.053-8.91 8.875-13.61 13.692l-2.35-2.528c4.88-3.402 7.26-5.803 12.7-9.132z"/><path fill="#e62521" d="M1104.29 331.243c4.72.966 5.81 4.274 9.67 8.508 5.24-1.287 16.05-6.543 16.25 2.228.24 10.724-.31 7.974-4.9 14.504.28.453 2.35.401 3.65 1.036a7.2 7.2 0 0 1 3.76 4.489c1.5 5.4-1.8 14.844-4.53 19.583-3.14 5.445-5.15 6.17-10.64 7.689-10.66 2.945-19.9 2.22-29.97-2.486-1.78-.836-3.74-2.058-5.77-2.28-.73-.12-2.08.526-1.55 1.128 5.67 6.51 17.68 10.028 26.24 9.201 1.46.221 9.9-2.599 10.83-1.243 4.04 5.901-1.56 12.419-4.89 14.323-9.34 5.338-14.56 5.607-23.6 4.125-14.34-4.885-13.75-4.454-14.92-19.016-1.84-22.956.9-27.148 16.95-42.434.31 6.319.04 11.228.15 17.406.33 17.579 24.72 19.091 30.16 4.003 3.68-10.211-4.59-21.453-15.69-19.99-5.44.718-6.55 3.431-9.87 4.256-1.44-1.269-.09-6.142-1.15-8.081-.99-1.823-9.28-7.757-6.8-10.513 4.09-4.555 10.95-5.49 16.62-6.436"/><path fill="#0a293b" d="M1180.06 716.172c6.92-.436 13.81-1.045 20.76-1.515.06 20.373.69 44.94-.57 64.885l-.78 1.23c-.31.508-.61 1.026-.92 1.533-2.91 4.712-25.64 29.098-29.62 29.844-.32.06-.63.061-.93-.099-.99-.529-2.59-3.936-2.69-5.115 0-.011 14.67-23.845 16.2-28.215.13-.369.27-.736.4-1.104q-1.41-1.622-2.88-3.198c-1.58.485-8.24 2.537-9.63 1.984-.22-.483-1.55-21.051-1.44-21.41.97-3.087 2.9-1.7 2.15-7.994-1.29-10.901 5.45-18.949 9.95-30.826"/><path fill="#e0e3e6" d="M1179.03 774.418c.27-2.919 2-20.577 3.55-21.831l.48.092c.69 1.169-1.15 21.008-1.15 24.937q-1.41-1.622-2.88-3.198"/><path fill="#ddaa6b" d="M1721.52 1763.96c-4.37-18.58-10.05-41.06-4.27-60 12.96-42.52 51.55-65.54 83.68-92.33 7.62-6.35 25.63-23.19 32.58-27.18 1.05.9 1.74 1.03 1.86 2.55.98 12.37-58.01 52.78-69.01 61.76-7.27 5.93-14.13 12.26-20.22 19.41-24.66 28.92-25.64 56.5-22.63 92.86zm-355.8-194c26.14 1.34 53.32 20.36 79.75 28.14-4.26 5.52-8.66 10.93-12.94 16.41-3.49 4.79-6.83 9.29-10.12 14.23a416 416 0 0 0-30.43-32.24c-7.57-7.31-20.72-18.12-26.26-26.54m-1146.06 15.66c2.789 1.11 77.076 61.97 81.964 66.76a139 139 0 0 1 21.932 27.4c17.349 28.73 14.804 51.31 6.794 83.06-.694 2.39-.548 2.5-2.08 4.39-.866-5.3.59-12.63.816-18.35.602-15.26 1.405-31.38-3.432-46.11-12.839-40.98-49.885-61.11-80.96-86.64-11.235-9.22-21.95-15.33-25.034-30.51m720.075 205.85c53.763 2.81 96.165.52 148.655.59-3.1 1.98-5.95 3.58-9.15 5.38-28.92 9.93-55.19 11.1-85.359 7.02-10.714-1.45-48.56-6.73-54.146-12.99m-263.591-223.55c.807.18 1.041.16 1.394.55 1.806-5.6-48.312 53.19-49.123 54.13-3.225-3.91-4.782-6.06-7.754-10.06-4.266-5.78-8.131-10-12.836-15.35 16.638-8.18 51.067-22.84 68.319-29.27M7.756 1603.83c8.435 10.51 13.555 20.49 20.155 32.16 14.37 25.42 26.258 45.49 48.746 64.71l-4.538 1.16c-3.512-2.06-6.93-4.28-10.243-6.65-19.498-14.12-49.281-52.2-52.796-77.21-.648-4.61-1.026-9.5-1.324-14.17m905.077 136.49c16.743-1.49 45.848 3.56 64.08 4.4 8.933.41 42.467-.56 46.987 1.67l.59 1.8-2.52 2.9c-5.84 2.65-10.89 3.57-17.23 3.72-17.646.42-80.532-4.06-91.907-14.49m449.227-57.09 2.08.11-.33.84c-34.69 18.82-74.97 38.99-115.57 35.05-2.27-.4-1.58-.21-3.64-1.19 16.29-7.64 49.45-12.09 67.9-18.06 17.37-5.63 31.62-12.73 49.56-16.75m-304.3 69.18c18.83-6.38 39.55-7.1 59.25-9.12 22.73-2.48 45.47-4.75 68.24-6.81.99.49 1.97 1 2.95 1.52-44.11 13.22-84.49 18.57-130.44 14.41"/><path fill="#e62521" d="M1075.65 337.974c8.85-.76 8.58 2.466 13 10.089-20.55 20.117-17.77 17.973-18.61 43.933-15.13-7.442-15.99-22.114-11.78-36.988 2.74-9.668 9.33-12.405 17.39-17.034"/><path fill="#ddaa6b" d="M1216.13 1756.35c2.02-.26 10.92-1.27 11.79 1.64-1.57 6.46-34.32 15.67-41.43 16.87a133.8 133.8 0 0 1-33.74 1.62c-2.16-.13-15.16-.36-15.38-2.77-.28-2.98 20.18-5.24 22.14-5.52 4.85-.68 9.68-1.5 14.48-2.46 14.57-2.94 27.16-7.18 42.14-9.38m-1112.922-339.5c10.258 4.64-41.732 40.41-43.626 49.53-.015.07-10.144 19.67-9.942 19.38l-1.184 1.66c-.416-.5-2.864-3.13-2.876-3.92-.411-25.56 36.902-59.4 57.628-66.65m1846.882.19c22.65 2.52 65.08 44.52 61.39 69.25-5.28-3.32-9.1-12.9-13.24-19.5-6.8-10.85-46.33-42.83-48.15-49.75m-1894.458-6.07c5.772.43-3.52 7.32-4.932 8.45-16.904 13.45-29.29 26.85-40.81 45.04-1.183.24-2.406.21-2.584-1.39-3.603-32.26 24.011-44.92 48.326-52.1M2040.51 1617.9c.65.5 1.02.67.87 1.59-4.61 27.47-24.21 49.84-45.34 66.64-6.52 5.1-13.24 9.93-20.14 14.47-1.2-.72-.61-1.29.29-2.36 9.33-10.83 19.25-21.01 28.64-31.83 13.3-15.34 23.91-32.12 35.68-48.51m-1346.113 69.35c26.593 6.44 49.564 15.32 75.354 24.21 8.588 2.96 16.045 4.88 24.094 9.32-26.935 2.91-63.948-15.29-88.21-26.37-4.551-2.08-7.646-3.73-11.238-7.16m302.583 144.02c10.76-.39 18.72 1.15 29.52 1.69 12.89.98 27.26-1.85 39.89-.65 6.57.63-7.4 7.01-6.99 6.84-24.16 6.56-37.24 4.62-61.461-2.64-8.218-2.47-8.752-3.52-.959-5.24M41.77 1584.55c7.664 2.33 16.855 23.99 22.527 32.03 4.027 5.72 26.992 34.23 25.847 38.64-18.301-15.35-35.119-30.7-43.764-53.5-2.52-6.65-7.567-10.78-4.61-17.17m665.351 140.29c9.115.88 89.931 26.89 96.281 31.81l1.645 1.19c-25.191-1.37-77.269-18.53-97.926-33m1304.699-139.57c1.26.54 4.72 2.12 4.01 4.19-9.71 28.26-26.99 46.91-49.1 65.65-.88.57-.93.75-1.9.71l-.14-.18c-.22-2.09 25.36-34.09 28.62-39.41 5.82-9.48 12.32-21.86 18.51-30.96m-727.13 204.02c5.09-.97 6.46-.48 2.38 2.87-14.7 12.06-29.45 14.42-47.63 15.36-1.3-.24-9.65-2.47-6.06-4.81 11.82-7.7 37.77-11.2 51.31-13.42m758.88-115.57c2.39 2.46 1.02 4.88.35 8.28-4.77 24.28-23.09 39.8-42.8 52.96-.09-.08-.82-.63-.63-.84 16.22-18.29 29.77-40.09 43.08-60.4m-55.71-266.89c11.84.68 30.35 8.66 39.93 15.73 10.68 7.88 13.98 11.9 16.03 24.57-4.02-2.29-11.15-11.03-17.32-15.43-12.58-8.97-27-15.34-38.64-24.87M299.26 1880.6c1.25-6 1.276 8.12.868 10.69-.401 20.62-3.113 40.53-.789 61.78l-3.388-.06c-6.199-23.81-7.402-45.7 1.969-69.08z"/><path fill="#eac89b" d="M299.26 1880.6c1.25-6 1.276 8.12.868 10.69-.323-3.92-.247-6.78-.868-10.69"/><path fill="#ddaa6b" d="M784.36 1423.99c4.341.08-.118 15.13-1.434 15.48-12.353 3.23-29.008 1.83-41.464-.01-1.325-.38-3.549-.3-3.207-1.9 1.033-.43 3.453-.59 4.738-.88 12.83-2.88 29.337-7.59 41.367-12.69"/><path fill="#e62521" d="M1136.25 365.567c2.56 2.195 8.33 16.825 8.6 20.445.81 10.834-8.06 14.378-15.62 15.847-3.37-.194-6.82-1.262-7.97-4.788-1.97-6.022 1.49-4.384 4.19-6.142 7.54-4.912 9.41-17.693 10.8-25.362"/><path fill="#ddaa6b" d="M1024.34 1898.21c7.38 1.46 7.84 2.49 7.64 11.78-.26 12.12.19 25.31-1.14 37.27-1.43-.54-5.81-1.89-6.32-3.33-3.13-8.96-1.64-37.45-.18-45.72"/><path fill="#e62521" d="M1100.15 358.011c3.41-1.68 13.48-3.722 14.11 1.471-.76.969-2.17.422-3.19.943.06.498.39.577.99 1.039 8.98 9.129 4.37 17.854-8.07 17.601-6.31-.129-13.57-15.15-3.84-21.054"/><path fill="#d53838" d="M1100.15 358.011c3.41-1.68 13.48-3.722 14.11 1.471-.76.969-2.17.422-3.19.943.06.498.39.577.99 1.039-.83 1.138-1.56 2.187-2.35 3.343-3.03-1.623-6.35-3.608-9.44-4.921 3.17-.499 2.72-1.328-.12-1.875"/><path fill="#fdfcfb" d="M1100.27 359.886c3.09 1.313 6.41 3.298 9.44 4.921-6.02 7.828-10.95 1.884-9.44-4.921"/><path fill="#ddaa6b" d="M13.604 1702.76c5.037 3.67 37.162 43.63 39.858 49.2-23.33-9.26-32.16-26.98-39.858-49.2m1321.976 27.45c15.78-1.95-23.88 14.98-25.56 15.53-8.03 2.63-12.96 3.11-21.22 4.07-.59-.12-5.1-.58-5.36-1.37 2.15-5.3 44.87-16.8 52.14-18.23m-514.657-11.14c8.011.16 55.317 8.63 56.84 14.31-16.136 4.96-43.871-4.6-56.84-14.31m1204.767-209.28c13.32 5.53 7.46 38.19 3.21 48.96-9.6 1.51-5.49-6.73-4-14.27 2.45-12.37-.1-23.02.79-34.69m-1998.622.84c6.023 5.57 1.468 21.55 3.744 30.88 2.03 8.31 4.344 12.67-1.094 18.74l-.717-.7c-7.338-7.02-7.197-27.31-5.621-36.55l.362-2.01c.841-4.95 1.215-5.86 3.326-10.36m155.365-131.38c2.505-.2 6.664-.57 9.067.24-.088 1.52-13.596 6.73-15.665 7.53-8.479 3.29-16.189 7.7-24.279 11.74l-.886.49c-4.279 2.39-12.475 4.86-7.095-2.15 7.27-9.47 28.082-16.04 38.858-17.85m677.652 404.22c9.941-.21 19.574.16 29.419 1.57 2.282.32 16.016 4.91 8.945 7.23l-1.398.48c-9.76.04-18.984-1.01-28.537-3.03.411.09-20.383-4.29-10.242-5.9zm897.305 105.32c16.54 12.22 5.96 42.78.41 58.09-.3.32-1.32 1.65-1.38 1.69l-.11-.03c-1.18-5.5 7.04-31.07 4.34-40.03-.92-3.07-2.81-16-3.26-19.72m281.41-143.88c5.69 8.36-11.76 30.15-19.17 34.79-4-5.13 15.18-29.82 19.17-34.79m-868.11 57.53c4.14.05 7.01.36 11.1.76-10.54 7.08-13.51 9.11-26.91 8.36-5.57-.79-6.86-1.21-12.47-2.55 12.16-5.49 15.59-5.71 28.28-6.57m708.75-418.3c14.39 1.31 31.34 5.59 41.39 16.83-9.96.38-34.91-10.96-41.39-16.83m-859.95 597.22c7.15 2.88 5.32 30.48 1.78 37.37-7.4-2.55-3.34-31.4-1.78-37.37m-142.341-165.37c3.629-.1 28.544 1.56 20.625 8.39-4.976.59-27.186 1.71-20.625-8.39m-112.408-36.75c5.262-.15 33.223 3.54 35.038 8.42-5.479.45-5.343.23-10.781-.52a119 119 0 0 1-16.424-3.44c-4.129-1.19-6.073-1.27-7.833-4.46M14.063 1757.5c4.568 2.56 11.087 21.53 12.665 26.77-9.54.13-12.295-20.13-12.665-26.77"/><path fill="#56646e" d="m246.678 516.175 2.704 1.12c-1.879 1.394-15.926 12.384-16.562 12.498-.292-.168-.349-.299-.427-.63l.797-.252-.749.262c1.773-2.656 11.399-10.719 14.237-12.998"/><path fill="#eac89b" d="M76.657 1700.7c5.762 7.14-.85 3.42-4.538 1.16zm219.294 252.31 3.388.06c-.361 8.7-1.221 5.75-3.388-.06"/><path fill="#253543" d="m398.574 991.62 3.244-.015c-3.253 3.749-8.93 9.065-3.244.015"/><path fill="#eac89b" d="M1723.51 1761.03c.36 1.3 1.16 5.43.1 6.38-.81-.08-1.84-2.92-2.09-3.45zm-538.26-24.55c2.57-.88 9.19-.85 2.95 1.52-.98-.52-1.96-1.03-2.95-1.52"/><path fill="#253543" d="M1207.1 547.429c.38-1.083 1.14-4.221 2.34-4.641.77.564.75 3.57.8 4.152l.1.977z"/><metadata><recraft-signature>{&quot;signed_by&quot;: &quot;recraft&quot;, &quot;signature_b64&quot;: &quot;cloLoUERJ6xjhhpZAI62lR4DQR0IOcIHSaq6Ge2RIgPS/AV4kuAKNeJidm3O/7apxcL3nyQUQQpiCMJgWqSHBA==&quot;, &quot;signing_algo&quot;: &quot;Ed25519&quot;, &quot;generation_timestamp&quot;: 1777252532, &quot;identifier&quot;: &quot;5d34e027-1a04-4d45-98ec-1457aee33d2a&quot;}</recraft-signature></metadata></svg>