<svg xmlns="http://www.w3.org/2000/svg" width="1024" height="1024" preserveAspectRatio="none" style="display:block" viewBox="0 0 2048 2048"><path fill="#ca833c" d="M971.752 0h83.258c39.51 38.693 74.6 62.014 133.02 62.611 21.62.222 42.2-5.758 63.09-7.356a208.97 208.97 0 0 1 162.23 57.532c76.14 73.107 82.49 179.44 8.51 256.76-33.02 34.502-80.95 50.885-127.7 52.059-70.24 2.658-117.56-53.525-187.39-25.186a123.9 123.9 0 0 0-42.83 28.778c-21.25 21.902-34.87 51.699-34.13 82.505a96.92 96.92 0 0 0 30.59 67.635c22.23 20.818 46.08 22.743 74.56 31.589 72.35 22.472 107.84 114.257 54.55 173.449-47.14 52.373-103.61 21.016-148.47 83.041l-1.28-3.198c-5.96 9.677-9.7 17.19-12.71 28.265-.78 2.857-2.03 11.928-2.71 13.37-1.71.663-2.73.932-4.22 1.953.63-9.366 1.2-13.719 3.43-22.711 7.63-30.769 35.04-56.309 65.01-65.044 20.58-5.997 40.57-7.935 59.89-19.621 21.26-12.67 35.12-32.317 41.13-56.129 7.59-30.066.55-59.068-20.65-81.937-14.61-15.761-32.01-24.529-51.88-32.398-19.39-7.676-40.82-10.936-59.1-20.969a114.77 114.77 0 0 1-42.65-41.273c-38.962-64.567-13.43-151.411 50.21-188.887 11.93-7.028 19.05-8.918 31.55-13.632 48.69-18.918 98.58 6.59 145.47 18.419 127.62 32.198 224.81-98.155 154.22-210.734a145.85 145.85 0 0 0-54.14-51.588c-58.29-32.691-103.25-17.936-164.25-10.011-20.58 2.673-47.67-1.798-68.04-5.769C1051.21 89.996 1003.16 50.392 971.752 0"/><path fill="#353d49" d="M1009.37 0h45.64c39.51 38.693 74.6 62.014 133.02 62.611 21.62.222 42.2-5.758 63.09-7.356a208.97 208.97 0 0 1 162.23 57.532c76.14 73.107 82.49 179.44 8.51 256.76-33.02 34.502-80.95 50.885-127.7 52.059-70.24 2.658-117.56-53.525-187.39-25.186a123.9 123.9 0 0 0-42.83 28.778c-21.25 21.902-34.87 51.699-34.13 82.505a96.92 96.92 0 0 0 30.59 67.635c22.23 20.818 46.08 22.743 74.56 31.589 72.35 22.472 107.84 114.257 54.55 173.449-47.14 52.373-103.61 21.016-148.47 83.041l-1.28-3.198c10.07-18.396 35.01-36.418 55.27-41.215 11.19-2.646 22.46-3.9 33.63-7.408a119.4 119.4 0 0 0 39.52-21.644 96.22 96.22 0 0 0 34.61-65.96c3.96-47.078-26.54-90.093-69.3-106.004-38.7-13.187-67.74-11.078-95.5-45.502-43.511-53.953-29.48-130.916 24.04-172.473 44.12-34.255 85.86-36.237 137.48-17.497 23 8.347 47.05 17.665 71.34 20.403 41.74 4.946 89.12-9.977 122.1-35.486 30.04-23.47 48.34-59.839 51.81-97.435 10.03-108.566-84.78-212.147-196.47-194-31.07 5.048-65.96 12.004-96.68 8.161-57.82-7.231-106.38-39.132-142.24-84.159"/><path fill="#ca833c" d="M1055.01 0h69.25c36.19 27.247 76.83 32.985 120.72 25.676 97.59-16.254 178.03 15.306 235.61 96.081 118.6 166.38-40.69 388.193-235.6 325.366-45.23-14.56-89.24-42.62-135.71-19.63-55.83 24.592-71.6 102.125-22.97 141.169 16.04 12.876 40.55 18.437 60.3 24.238 76.52 22.477 115.93 117.394 65.77 182.973-48.89 68.275-133.37 28.562-170.07 104.559a92.4 92.4 0 0 0-8.74 52.904c1.71 13.439 7.64 30.52 8.52 42.455-.38 3.879.01 5.634-1.73 8.978-3.67-19.566-7.61-26.783-12.86-44.75.13-3.116-.34-13.571-1.21-16.389l-2.5-1.177-.18-1.925c.68-5.415.25-12.533.73-18.674.68-1.442 1.93-10.513 2.71-13.37 3.01-11.075 6.75-18.588 12.71-28.265l1.28 3.198c44.86-62.025 101.33-30.668 148.47-83.041 53.29-59.192 17.8-150.977-54.55-173.449-28.48-8.846-52.33-10.771-74.56-31.589a96.92 96.92 0 0 1-30.59-67.635c-.74-30.806 12.88-60.603 34.13-82.505a123.9 123.9 0 0 1 42.83-28.778c69.83-28.339 117.15 27.844 187.39 25.186 46.75-1.174 94.68-17.557 127.7-52.059 73.98-77.32 67.63-183.653-8.51-256.76a208.97 208.97 0 0 0-162.23-57.532c-20.89 1.598-41.47 7.578-63.09 7.356-58.42-.597-93.51-23.918-133.02-62.611"/><path fill="#2b2e35" d="m1039.76 860.219 1.28 3.198c-11.37 21.387-16.75 35.032-14.75 60.213l-2.5-1.177-.18-1.925c.68-5.415.25-12.533.73-18.674.68-1.442 1.93-10.513 2.71-13.37 3.01-11.075 6.75-18.588 12.71-28.265"/><path fill="#353d49" d="M908.099 0h63.653c31.408 50.392 79.458 89.996 138.568 101.523 20.37 3.971 47.46 8.442 68.04 5.769 61-7.925 105.96-22.68 164.25 10.011a145.85 145.85 0 0 1 54.14 51.588c70.59 112.579-26.6 242.932-154.22 210.734-46.89-11.829-96.78-37.337-145.47-18.419-12.5 4.714-19.62 6.604-31.55 13.632-63.64 37.476-89.172 124.32-50.21 188.887a114.77 114.77 0 0 0 42.65 41.273c18.28 10.033 39.71 13.293 59.1 20.969 19.87 7.869 37.27 16.637 51.88 32.398 21.2 22.869 28.24 51.871 20.65 81.937-6.01 23.812-19.87 43.459-41.13 56.129-19.32 11.686-39.31 13.624-59.89 19.621-29.97 8.735-57.38 34.275-65.01 65.044-2.23 8.992-2.8 13.345-3.43 22.711 1.49-1.021 2.51-1.29 4.22-1.953-.48 6.141-.05 13.259-.73 18.674-.78 1.109-1.55 2.223-2.32 3.34 3.22 19.417 8.77 36.32 14.2 55.128l-1.43 3.324c-4.14-20.109-13.86-38.862-17.14-59.367-2.95-18.35-3.11-37.427 2.69-55.253a94.04 94.04 0 0 1 60.94-59.878c15.65-4.999 28.54-6.687 43.91-14.48 59.07-29.924 65.07-103 8.37-139.38-23.47-15.061-43.21-16.418-68.45-23.904-29.71-8.809-62.05-33.501-75.239-62.111-32.268-69.995-16.807-160.752 47.159-207.81 43.55-34.831 104.74-41.009 157.03-24.453 46.41 14.693 81.96 31.155 129.88 7.282 53.03-26.416 69.48-96.132 42.77-146.968-22.97-43.721-71.38-67.555-119.88-63.794-27.21 2.02-53.62 9.431-80.88 10.979-57.59 4.537-116.18-11.452-164.44-42.832C964.055 76.475 928.288 39.118 908.099 0"/><path fill="#e5bf95" d="M1020.12 903.807c1.49-1.021 2.51-1.29 4.22-1.953-.48 6.141-.05 13.259-.73 18.674-.78 1.109-1.55 2.223-2.32 3.34-.94-5.225-1.1-14.681-1.17-20.061"/><path fill="#353d49" d="M368.215 0h175.601l.33 2c3.163 18.573 1.789 25.674 1.849 43.394-10.271 2.463-17.387 6.533-19.381 17.591q-.356 1.924-.774 3.834l-.41 2.03c-14.059 5.331-50.318-3.284-64.201-8.381-6.979 2.748-12.541 4.689-19.305 6.79-4.932 1.53-24.815 5.26-27.285 6.726a27.91 27.91 0 0 0-31.573-19.191C375.74 38.211 371.711 17.681 368.215 0"/><path fill="#fcfbfa" d="M524.017 0h19.799l.33 2c3.163 18.573 1.789 25.674 1.849 43.394-10.271 2.463-17.387 6.533-19.381 17.591q-.356 1.924-.774 3.834c-23.847 1.118-38.899-2.102-61.657-8.05C489.952 46.876 512.389 26.225 524.017 0M368.215 0h15.725c25.416 32.931 32.161 41.546 71.5 58.958-14.832 5.424-26.943 8.549-42.75 10.32a27.91 27.91 0 0 0-29.624-14.485C375.74 38.211 371.711 17.681 368.215 0"/><path fill="#ca833c" d="M383.94 0h9.406c8.445 15.094 11.948 19.205 25.086 30.683 3.594 2.613 6.617 4.482 10.578 6.457a60 60 0 0 0 46.514 2.662c19.781-6.82 32.645-21.415 41.564-39.802h6.929c-11.628 26.224-34.065 46.875-59.834 58.77 22.758 5.947 37.81 9.167 61.657 8.05l-.41 2.028c-14.059 5.332-50.318-3.283-64.201-8.38-6.979 2.748-12.541 4.689-19.305 6.79-4.932 1.53-24.815 5.26-27.285 6.726a28 28 0 0 0-1.949-4.705c15.807-1.772 27.918-4.897 42.75-10.321C416.101 41.546 409.356 32.93 383.94 0"/><path fill="#fcfbfa" d="M517.088 0h3.911c-13.875 26.909-33.716 44.22-60.894 56.925-16.65-6.958-27.459-12.31-41.731-23.683l.058-2.56c3.594 2.614 6.617 4.483 10.578 6.458a60 60 0 0 0 46.514 2.662c19.781-6.82 32.645-21.415 41.564-39.802"/><path fill="#efeeed" d="M388.804 0h4.542c8.445 15.094 11.948 19.205 25.086 30.683l-.058 2.56A126.3 126.3 0 0 1 388.804 0"/><path fill="#fcfbfa" d="M461.229 60.468c13.883 5.097 50.142 13.712 64.201 8.38 6.378 7.74 3.605 9.353 13.252 15.992-30.878 47.044-77.207 35.737-118.341 8.77a194 194 0 0 1-5.502-3.733 27.9 27.9 0 0 0-.2-15.893c2.47-1.467 22.353-5.195 27.285-6.727 6.764-2.1 12.326-4.041 19.305-6.79M300.658 0h67.557c3.496 17.68 7.525 38.21 14.851 54.793a27.93 27.93 0 0 0-13.733 6.71C336.72 44.951 315.743 35.188 300.658 0"/><path fill="#ca833c" d="M364.764 0h3.451c3.496 17.68 7.525 38.21 14.851 54.793a28 28 0 0 0-3.889.99C374.461 37.927 366.605 18.17 364.764 0"/><path fill="#353d49" d="M383.066 54.793a27.912 27.912 0 1 1 9.837 54.95 27.912 27.912 0 0 1-9.837-54.95"/><path fill="#fcfbfa" d="M543.816 0h50.077c-3.13 27.976-7.52 36.7-30.231 53.822-6.092-4.626-6.31-5.655-13.844-7.99-1.387-.123-2.442-.21-3.823-.438-.06-17.72 1.314-24.82-1.849-43.395z"/><path fill="#cc9052" d="M543.816 0h2.732l.157 1.08c2.722 17.77 2.995 26.825 3.113 44.752-1.387-.123-2.442-.21-3.823-.438-.06-17.72 1.314-24.82-1.849-43.395z"/><path fill="#ca833c" d="M593.893 0h2.873c-2.019 29.842-9.927 38.31-31.101 58.652 3.292 18.414-5.038 27.041-23.392 27.526-12.948 17.811-23.877 29.136-46.927 33.472-24.135 4.54-57.248-8.669-76.479-22.853q-2.58-1.916-5.038-3.987a28 28 0 0 0 1.01-2.933 194 194 0 0 0 5.502 3.732c41.134 26.968 87.463 38.275 118.341-8.77-9.647-6.638-6.874-8.25-13.252-15.99l.41-2.03q.418-1.91.774-3.834c1.994-11.058 9.11-15.128 19.381-17.591 1.381.229 2.436.315 3.823.438 7.534 2.335 7.752 3.364 13.844 7.99C586.373 36.7 590.763 27.976 593.893 0"/><path fill="#cc9052" d="M297.019 0h3.639c15.085 35.188 36.062 44.951 68.675 61.503a28 28 0 0 0-3.219 3.424c-3.826-2.305-7.66-3.566-11.578-5.62C327.263 45.01 307.449 29.652 297.019 0"/><path fill="#c09a77" d="M1042.09 975.791c1.69 7.984.81 13.631.95 21.698l-2.05-1.559c.04-4.727-.59-7.127-.63-11.161 1.74-3.344 1.35-5.099 1.73-8.978"/><path fill="#8a8b8e" d="m1035.49 978.996.72 3.988c.49 2.313 2.39 11.431 1.48 13.557l-.19.115-.14-.076.05-.056c-1.6-2.324-2.75-11.029-3.35-14.204z"/><path fill="#835635" d="M1026.29 923.63c.87 2.818 1.34 13.273 1.21 16.389-1.95-6.706-2.61-10.683-3.71-17.566z"/><path fill="#e1d4bf" d="m1040.99 995.93 2.05 1.559c.2 14.161-2.13 8.791-2.05-1.559"/><path fill="#ca833c" d="M1062.97 1100.82c63.06-45.07 154.43-11.34 170.63 65.23.78 3.72 1.45 9.15 2.67 12.48 4.74 1.24 7.74 3.84 11.52 7.05 4.75 4.2 10.76 9.25 15.16 13.65 2.69 3.06 4.83 5.18 6.81 8.75 4.72 8.09 6.28 12.4 8.23 21.76.64 4.35 2.22 15.48 1.44 19.48-2.11 18.55-12.26 40.37-22.69 55.77 6.96 4.14 36.85-.62 46.29 1.35l-.22 18.3c-8.81.04-19.21.38-27.88.11l-.39 2.57c-.36 10.79-19.3 36.59-26.45 45.1-43.32 51.57-104.88 71.52-168.45 83.42-16.36 1.16-31.72 3.7-48.44 3.93-21.35.29-41.858-1.47-63.04-3.71-62.514-13.1-101.258-23.82-151.917-67.31l-2.632 1.52-11.895-12.45c-1.445-1.53-1.875-1.63-2.722-3.38l1.908-1.83c-9.201-10.6-22.598-31.58-26.979-44.98l-1.104-2.61-28.272-.41c.208-6.05.498-12.09.871-18.13 6.211-1.05 19.05.56 22.285-1.45 3.212-48.6 18.409-78.86 54.784-109.77.812-15.76.68-19.28 5.346-34.55 1.368-5 1.948-7.75 4.72-12.17l.359-.87c2.383-5.9 4.706-8.23 7.144-14.7 43.278-54.96 106.378-59.52 166.004-28.38 1.87.59 2.74 1.43 4.76 2.08 14.65-2.72 26.62-2.44 41.32-1.34 4.67-1.55 6.57-2.13 10.83-4.51"/><path fill="#353d49" d="M1120.46 1303.72c18.48 1.03 40.6.54 59.24.06 12.03.25 69.6-1.1 77.04 1.21 6.96 4.14 36.85-.62 46.29 1.35l-.22 18.3c-8.81.04-19.21.38-27.88.11l-.39 2.57c-.36 10.79-19.3 36.59-26.45 45.1-43.32 51.57-104.88 71.52-168.45 83.42-16.36 1.16-31.72 3.7-48.44 3.93-21.35.29-41.858-1.47-63.04-3.71-62.514-13.1-101.258-23.82-151.917-67.31l-2.632 1.52-11.895-12.45c-1.445-1.53-1.875-1.63-2.722-3.38l1.908-1.83c-9.201-10.6-22.598-31.58-26.979-44.98l-1.104-2.61-28.272-.41c.208-6.05.498-12.09.871-18.13 6.211-1.05 19.05.56 22.285-1.45 6.578-1.23 18.255-1.03 25.13-.66 4.731.09 9.422.27 14.145-.01 6.825-.1 15.057-.43 21.73.04 4.3.43 8.632.45 12.934.03 5.232-.05 13.296-.35 18.246.03 4.778.35 11.794.68 16.552-.03 7.486-.13 16.533-.51 23.856.01 4.477.37 11.634.4 16.124-.11 7.483-.06 17.075-.41 24.379.09 4.159.16 7.646.48 11.785-.09 7.717-.02 17.045-.3 24.628.02 5.998.63 15.932.54 21.896.07l34.662-.25c9.93 1.28 22.92.52 32.91-.19 15.27.15 39.18.91 53.78-.26"/><path fill="#353d49" d="M1120.46 1303.72c18.48 1.03 40.6.54 59.24.06 12.03.25 69.6-1.1 77.04 1.21 6.96 4.14 36.85-.62 46.29 1.35l-.22 18.3c-8.81.04-19.21.38-27.88.11l-.39 2.57c-26.04 1.02-53.7.61-79.85.61l-123.76-.01c-98.076.05-199.137 1.21-297.007-.29l-1.104-2.61-28.272-.41c.208-6.05.498-12.09.871-18.13 6.211-1.05 19.05.56 22.285-1.45 6.578-1.23 18.255-1.03 25.13-.66 4.731.09 9.422.27 14.145-.01 6.825-.1 15.057-.43 21.73.04 4.3.43 8.632.45 12.934.03 5.232-.05 13.296-.35 18.246.03 4.778.35 11.794.68 16.552-.03 7.486-.13 16.533-.51 23.856.01 4.477.37 11.634.4 16.124-.11 7.483-.06 17.075-.41 24.379.09 4.159.16 7.646.48 11.785-.09 7.717-.02 17.045-.3 24.628.02 5.998.63 15.932.54 21.896.07l34.662-.25c9.93 1.28 22.92.52 32.91-.19 15.27.15 39.18.91 53.78-.26"/><path fill="#c7c6c5" d="m772.819 1325.02 327.381.17 117.81-.19c17.48-.05 39.83-.82 56.92-.25l-.39 2.57c-26.04 1.02-53.7.61-79.85.61l-123.76-.01c-98.076.05-199.137 1.21-297.007-.29zm347.641-21.3c18.48 1.03 40.6.54 59.24.06 12.03.25 69.6-1.1 77.04 1.21 6.96 4.14 36.85-.62 46.29 1.35-6.35 1.24-33.67.75-41.27.76-33.01.06-65.97-.84-99.02-.67-94.66.68-189.322.84-283.982.46l-84.807.12c-13.88.03-35.403.67-48.533-.53 6.211-1.05 19.05.56 22.285-1.45 6.578-1.23 18.255-1.03 25.13-.66 4.731.09 9.422.27 14.145-.01 6.825-.1 15.057-.43 21.73.04 4.3.43 8.632.45 12.934.03 5.232-.05 13.296-.35 18.246.03 4.778.35 11.794.68 16.552-.03 7.486-.13 16.533-.51 23.856.01 4.477.37 11.634.4 16.124-.11 7.483-.06 17.075-.41 24.379.09 4.159.16 7.646.48 11.785-.09 7.717-.02 17.045-.3 24.628.02 5.998.63 15.932.54 21.896.07l34.662-.25c9.93 1.28 22.92.52 32.91-.19 15.27.15 39.18.91 53.78-.26"/><path fill="#efeeed" d="m800.902 1372.61 1.256 1.35c4.752 5.2 9.19 9.75 14.085 14.79l-2.632 1.52-11.895-12.45c-1.445-1.53-1.875-1.63-2.722-3.38z"/><path fill="#353d49" d="M1247.79 1185.58c4.75 4.2 10.76 9.25 15.16 13.65 2.69 3.06 4.83 5.18 6.81 8.75 4.72 8.09 6.28 12.4 8.23 21.76.64 4.35 2.22 15.48 1.44 19.48-2.11 18.55-12.26 40.37-22.69 55.77-7.44-2.31-65.01-.96-77.04-1.21-18.64.48-40.76.97-59.24-.06-14.6 1.17-38.51.41-53.78.26-9.99.71-22.98 1.47-32.91.19l-34.662.25c-5.964.47-15.898.56-21.896-.07-7.583-.32-16.911-.04-24.628-.02-4.139.57-7.626.25-11.785.09-7.304-.5-16.896-.15-24.379-.09-4.49.51-11.647.48-16.124.11-7.323-.52-16.37-.14-23.856-.01 3.942-17.18 7.618-30.34 17.146-45.52a96.48 96.48 0 0 1 60.559-43.34c30.699-6.88 67.765-.69 92.365 19.46 8.72 7.14 18.56 17.43 27.73 23.14l1.22.75c19.65-6.05 38.85-12.16 58.83-17.05 34.71-8.5 97.3-19.75 113.5-56.29"/><path fill="#353d49" d="M1269.76 1207.98c4.72 8.09 6.28 12.4 8.23 21.76.64 4.35 2.22 15.48 1.44 19.48-2.11 18.55-12.26 40.37-22.69 55.77-7.44-2.31-65.01-.96-77.04-1.21-18.64.48-40.76.97-59.24-.06-14.6 1.17-38.51.41-53.78.26 11.26-6.66 37.35-15.77 50.21-19.26 36.39-9.9 142.91-35.91 152.87-76.74"/><path fill="#ca833c" d="M1120.46 1303.72c49.65-17.19 128.05-24.06 157.53-73.98.64 4.35 2.22 15.48 1.44 19.48-2.11 18.55-12.26 40.37-22.69 55.77-7.44-2.31-65.01-.96-77.04-1.21-18.64.48-40.76.97-59.24-.06"/><path fill="#353d49" d="M1279.43 1249.22c-2.11 18.55-12.26 40.37-22.69 55.77-7.44-2.31-65.01-.96-77.04-1.21 1.81-.71 2.92-1.2 4.81-1.61 29.63-6.47 59.06-19.12 81.89-39.41 5.46-4.84 8.17-8.85 13.03-13.54"/><path fill="#ca833c" d="M1262.95 1199.23c2.69 3.06 4.83 5.18 6.81 8.75-9.96 40.83-116.48 66.84-152.87 76.74-12.86 3.49-38.95 12.6-50.21 19.26-9.99.71-22.98 1.47-32.91.19 46.97-41.67 203.29-42.96 229.18-104.94m-322.151 105.19a99.6 99.6 0 0 1 5.402-15.42c16.523-36.98 56.939-61.75 96.519-43.34l2.87 1.59c-1.55 1.26-4.9.58-6.94.18-40.939-.8-67.287 22.38-86.066 56.9-4.139.57-7.626.25-11.785.09m-40.503.02c9.174-40.64 29.655-71.04 72.595-78.84l1.979.27c2.796.25 3.531.15 5.934 1.43-31.526 15.97-59.206 39.87-64.384 77.03-4.49.51-11.647.48-16.124.11m148.364-42.72c4.68-.06 8.93-.14 13.59-.37-2.74 1.24-6.5 3.24-9.29 3.93-27.46 13.3-32.86 17.93-53.852 39.14-5.964.47-15.898.56-21.896-.07 15.586-21.66 44.118-41.68 71.448-42.63"/><path fill="#be793d" d="M972.891 1225.6c1.678-.25 11.281-1.76 12.442-1.02.573 1.14-3.732 2.46-4.529 2.72-2.403-1.28-3.138-1.18-5.934-1.43z"/><path fill="#353d49" d="M840.056 1132.97c43.278-54.96 106.378-59.52 166.004-28.38 1.87.59 2.74 1.43 4.76 2.08 14.65-2.72 26.62-2.44 41.32-1.34 58.87 12.46 102.43 56.05 98.84 118.68l-12.03 3.82c-4.06-10.14-7.59-18.94-14.09-28.23-40.37-57.69-128.039-69.69-184.407-28.98-3.996 2.88-8.201 7.19-11.306 11 9.87-4.93 20.309-11.38 30.433-15.26 67.42-25.82 136 1.62 168.34 64.23-9.39 2.82-19 5.58-28.23 8.85-20.05-52.08-75.71-70.99-127.028-57.25-24.883 6.67-26.738 7.02-51.397 3.54a112.6 112.6 0 0 0-56.19 6.41c-28.931 11.03-48.518 30.65-60.909 58.86a132 132 0 0 0-11.333 53.37c-6.875-.37-18.552-.57-25.13.66 3.212-48.6 18.409-78.86 54.784-109.77.812-15.76.68-19.28 5.346-34.55 1.368-5 1.948-7.75 4.72-12.17l.359-.87c2.383-5.9 4.706-8.23 7.144-14.7"/><path fill="#353d49" d="M840.056 1132.97c43.278-54.96 106.378-59.52 166.004-28.38-3.9 2-12.639 3.53-18.067 5.54-7.659 2.83-12.44 5.75-19.592 8.81-5.171-4.07-14.334-5.79-20.694-7.67-36.457-10.81-75.376-3.97-103.281 22.38z"/><path fill="#ca833c" d="M844.426 1133.65c27.905-26.35 66.824-33.19 103.281-22.38 6.36 1.88 15.523 3.6 20.694 7.67l1.573 3.05c-3.007 1.74-7.005 4.22-10.005 5.73-1.189-1.12-1.034-.96-1.994-2.28-36.943-15.76-72.246-12.78-105.263 10.89-11.75 8.42-15.602 14.37-24.879 24.38 1.368-5 1.948-7.75 4.72-12.17l.359-.87c2.383-5.9 4.706-8.23 7.144-14.7z"/><path fill="#4d4c4d" d="m832.553 1148.54.359-.87c2.383-5.9 4.706-8.23 7.144-14.7l4.37.68c-2.747 3.24-9.396 13.37-11.873 14.89"/><path fill="#ca833c" d="M823.399 1192.54c5.441-21.45 19.18-35.95 38.129-46.58 29.888-16.77 50.457-17.8 82.311-9.58l1.273 2.85c-3.984 3.65-7.561 6.64-10.862 10.93l-1.527-1.28c.484-1.01.206-.3.405-2.27-28.378-11.81-69.857 1.33-89.948 23.23-6.557 7.14-12.541 16.51-19.781 22.7"/><path fill="#cc9052" d="M852.151 1180.77c24.758-13.52 40.129-18.77 68.514-13.61l1.422.21c-1.25 3.64-1.577 7.53-2.192 11.39-27.155-8.75-41.402-4.65-67.744 2.01"/><path fill="#ca833c" d="M1006.06 1104.59c1.87.59 2.74 1.43 4.76 2.08-18.062 4.68-24.307 7.28-40.846 15.32l-1.573-3.05c7.152-3.06 11.933-5.98 19.592-8.81 5.428-2.01 14.167-3.54 18.067-5.54"/><path fill="#be793d" d="M957.975 1125.44c.96 1.32.805 1.16 1.994 2.28-4.125 3.59-9.765 7.08-14.857 11.51l-1.273-2.85c3.806-2.75 10.783-7.97 14.136-10.94"/><path fill="#7a6458" d="M920.665 1167.16c3.532-6.92 6.462-12.58 12.058-18.28l1.527 1.28-4.038 5.45c-2.76 3.76-5.438 8.2-8.125 11.76z"/><path fill="#ca833c" d="M1032.51 1127.35c30.77-4.06 63.46 6.82 84.67 29.32 13.06 13.86 18.04 25.34 23.55 43.08-14.91-22.79-23.84-34.49-46.9-49.11-2.36-1.4-4.77-2.72-7.21-3.96-42.49-20.94-89.604-3.99-131.368 10.59 22.051-17.2 49.788-26.22 77.258-29.92"/><path fill="#353d49" d="M958.14 1200c15.93-5.91 31.563-12.53 48.85-12.21 37.76.69 70.1 20.27 87.98 53.24-5.54 2.33-11.57 5-17.13 7.12-21.14-24.62-43.56-40.31-77.39-41.91-69.125-3.27-126.782 24.78-140.562 98.22-4.95-.38-13.014-.08-18.246-.03-4.302.42-8.634.4-12.934-.03-6.673-.47-14.905-.14-21.73-.04.31-17.34 1.638-29.33 7.558-45.69 15.295-42.27 55.571-69.04 100.395-68.36 14.925.15 29.649 3.45 43.209 9.69"/><path fill="#ca833c" d="M902.204 1208.26c1.372.75 1.352.9 2.619 2.17-39.064 18.29-59.345 51.51-63.181 94-4.302.42-8.634.4-12.934-.03 6.479-47.21 24.929-82.82 73.496-96.14"/><path fill="#be793d" d="M902.204 1208.26c1.711-.45 7.385-2.28 8.837-.69-1.086 1.47-4.478 2.41-6.218 2.86-1.267-1.27-1.247-1.42-2.619-2.17"/><path fill="#353d49" d="M1062.97 1100.82c63.06-45.07 154.43-11.34 170.63 65.23.78 3.72 1.45 9.15 2.67 12.48-1.66 6.52-9.96 12.8-15.29 17.74.33-30.42-10.09-63.43-36.32-81.46-25.29-17.4-67.24-22.06-96.94-17.07l.12.76c44.03 4.15 91.23 11.92 114.43 53.94 9.5 17.21 11.38 29.07 10.78 48.32l-18.97 9.82c1.98-26.84-7.79-50.86-25.28-71.04-15.7-18.11-31.96-25.8-54.53-31.91 13.45 7.55 27.12 15.41 38.08 26.43 20.59 20.7 35.32 50.29 33.5 79.95-8.25 3.38-16.35 5.48-24.9 7.89.2-6.9.61-14.89.02-21.5-4.07-45-38.51-83.8-82.41-94.1-3.17-.75-13.38-3.92-15.59-5.48"/><path fill="#7a6458" d="M1087.84 1098.5c-.8.01-1.76.21-2.5-.19.02-.06.03-.11.04-.16.8-.39 1.39-.33 2.34-.41z"/><path fill="#2b2e35" d="M567.306 208.783c2.16-12.115 9.013-27.292 18.633-35.135a30.4 30.4 0 0 1 23.718-6.724c18.197 2.427 36.953 21.393 47.55 35.314 6.006-3.06 20.18-8.097 26.753-9.86 2.382-1.193 2.345-1.734 3.627-4.091 9.086-16.698 32.646-14.226 37.077 5.265 3.381 14.872-7.887 17.936-9.055 24.212.548 5.854 1.258 12.202 1.608 18.023 57.962 30.215 56.106 80.467-1.007 108.994-1.342 20.743-2.945 44.264-19.415 58.915-25.641 22.807-61.106-9.784-77.744-27.321-4.792 1.411-9.057 2.771-13.985 3.688-4.124 4.953-5.496 10.409-12.879 12.333-9.803 2.555-20.193-4.367-22.673-13.907-1.757-6.754 1.862-10.947 3.872-16.221-2.363-4.299-2.269-10.636-2.644-15.704-33.631-15.832-71.772-45.429-42.808-87.28 9.999-14.447 22.081-20.963 37.081-29.437l-.061-.436c-1.757-1.861-5.776-5.701-5.954-8.392-.377-5.701 2.154-11.554 8.306-12.236"/><path fill="#fcfbfa" d="M581.322 216.739c1.148 4.678.115 5.511 5.205 4.532 9.819-1.888 19.552-3.702 29.569-4.025 4.913-.309 10.356.195 14.903-2.043 7.719-3.8 14.844-8.649 22.499-12.539q.768.794 1.555 1.568c4.092 4.915 7.192 9.799 10.861 14.991.835 1.106 1.522 2.189 2.284 3.342 9.94 11.776 20.442 35.337 26.488 49.719 2.267 5.394 5.476 15.692 7.842 20.177l1.611 4.072.238.946c4.075 15.72 6.491 26.572 8.142 42.752.4 2.961.532 3.663.432 6.741-3.693 1.07-8.683 3.134-12.366 4.56-17.457 6.757-35.376 8.394-53.596 10.508-.272.031-22.344 11.814-24.685 13l-1.679-2.202c-3.335-2.671-8.767-9.637-11.394-13.177l-2.198-3.553c-11.926-15.098-25.6-40.824-30.174-59.477l-.386-1.181c-.65-1.936-.915-2.269-1.019-4.143-.736-3.238-1.662-6.598-2.313-9.817l-1.005-4.999c-1.896-9.791-5.092-35.1-3.496-44.733 3.836-.926 8.247-1.719 10.892-4.652q.054-1.297.073-2.595c.026-4.828.339-3.201 1.717-7.772"/><path fill="#fcfbfa" d="M581.322 216.739c1.148 4.678.115 5.511 5.205 4.532 9.819-1.888 19.552-3.702 29.569-4.025 4.913-.309 10.356.195 14.903-2.043 7.719-3.8 14.844-8.649 22.499-12.539q.768.794 1.555 1.568c4.092 4.915 7.192 9.799 10.861 14.991.835 1.106 1.522 2.189 2.284 3.342-12.456-1.589-22.833-2.481-35.215-3.696-28.264 17.174-46.574 46.877-56.124 77.762l-.386-1.181c-.65-1.936-.915-2.269-1.019-4.143-.736-3.238-1.662-6.598-2.313-9.817l-1.005-4.999c-1.896-9.791-5.092-35.1-3.496-44.733 3.836-.926 8.247-1.719 10.892-4.652q.054-1.297.073-2.595c.026-4.828.339-3.201 1.717-7.772"/><path fill="#ca833c" d="M581.322 216.739c1.148 4.678.115 5.511 5.205 4.532 9.819-1.888 19.552-3.702 29.569-4.025 4.913-.309 10.356.195 14.903-2.043 7.719-3.8 14.844-8.649 22.499-12.539q.768.794 1.555 1.568c4.092 4.915 7.192 9.799 10.861 14.991.835 1.106 1.522 2.189 2.284 3.342-12.456-1.589-22.833-2.481-35.215-3.696-28.264 17.174-46.574 46.877-56.124 77.762l-.386-1.181c-.65-1.936-.915-2.269-1.019-4.143.613-1.102 1.249-2.103 1.548-3.324 6.245-25.516 27.77-51.613 48.15-68.402-7.138.646-39.473 3.884-44.411 6.832l-1.209.693q.054-1.297.073-2.595c.026-4.828.339-3.201 1.717-7.772"/><path fill="#fcfbfa" d="M655.053 204.232c4.092 4.915 7.192 9.799 10.861 14.991-9.567-1.667-19.067-2.242-28.827-3.609 6.922-3.96 11.46-6.777 17.966-11.382m47.475 88.229 1.611 4.072.238.946c4.075 15.72 6.491 26.572 8.142 42.752.4 2.961.532 3.663.432 6.741-3.693 1.07-8.683 3.134-12.366 4.56-17.457 6.757-35.376 8.394-53.596 10.508-.272.031-22.344 11.814-24.685 13l-1.679-2.202c-3.335-2.671-8.767-9.637-11.394-13.177l-2.198-3.553c15.308 2.632 22.115 3.011 37.735 2.909 27.724-17.146 43.051-38.45 57.76-66.556"/><path fill="#ca833c" d="m702.528 292.461 1.611 4.072c-16.494 32.947-25.97 37.915-51.512 61.861 16.02-1.235 43.12-7.195 59.079-14.677.703-.33.763-2.82.813-3.486.4 2.961.532 3.663.432 6.741-3.693 1.07-8.683 3.134-12.366 4.56-17.457 6.757-35.376 8.394-53.596 10.508-.272.031-22.344 11.814-24.685 13l-1.679-2.202c-3.335-2.671-8.767-9.637-11.394-13.177l-2.198-3.553c15.308 2.632 22.115 3.011 37.735 2.909 27.724-17.146 43.051-38.45 57.76-66.556"/><path fill="#fcfbfa" d="M609.231 359.661c11.6 1.074 18.702 2.194 30.668 2.541-5.211 4.125-13.173 7.818-19.274 10.636-3.335-2.671-8.767-9.637-11.394-13.177"/><path fill="#353d49" d="M627.955 239.02c28.171-6.514 56.252 11.183 62.531 39.407 6.279 28.225-11.651 56.157-39.926 62.2-27.945 5.973-55.479-11.701-61.684-39.595-6.206-27.893 11.238-55.574 39.079-62.012"/><path fill="#fcfbfa" d="M683.96 192.378c2.382-1.193 2.345-1.734 3.627-4.091 9.086-16.698 32.646-14.226 37.077 5.265 3.381 14.872-7.887 17.936-9.055 24.212.548 5.854 1.258 12.202 1.608 18.023 57.962 30.215 56.106 80.467-1.007 108.994l-.414-2.923c-2.12-15.843-3.472-27.685-7.989-43.347l-.457-1.538c-.79-2.732-.572-2.402-1.759-4.827-1.537-2.75-1.322-2.95-2.013-6.041a303.3 303.3 0 0 0-30.55-61.688c-.901-.75-2.162-3.017-2.868-4.138-3.852-5.056-7.558-10.411-11.426-15.323-.555-.949-1.019-1.739-1.527-2.718 6.006-3.06 20.18-8.097 26.753-9.86"/><path fill="#ca833c" d="M683.96 192.378c2.382-1.193 2.345-1.734 3.627-4.091 9.086-16.698 32.646-14.226 37.077 5.265 3.381 14.872-7.887 17.936-9.055 24.212-.596.882-1.174 1.655-1.806 2.509-.601-2.209-.838-3.337-3.464-2.797-10.562 2.174-22.185-3.812-24.16-14.994-.528-2.994-.817-4.627-2.352-7.058.898-1.188.517-1.696.133-3.046"/><path fill="#fcfbfa" d="M673.028 224.417c11.691 1.629 29.487 8.387 40.949 12.668l-1.085 9.408c-1.042 9.877-4.76 31.314-9.314 39.612a303.3 303.3 0 0 0-30.55-61.688m-15.821-22.179c6.006-3.06 20.18-8.097 26.753-9.86.384 1.35.765 1.858-.133 3.046 1.535 2.431 1.824 4.064 2.352 7.058 1.975 11.182 13.598 17.168 24.16 14.994 2.626-.54 2.863.588 3.464 2.797-.131 4.323.019 8.577.005 12.912-10.594-3.271-25.357-8.517-35.826-10.986l-7.822-1.92c-3.852-5.056-7.558-10.411-11.426-15.323-.555-.949-1.019-1.739-1.527-2.718"/><path fill="#be793d" d="M657.207 202.238c6.006-3.06 20.18-8.097 26.753-9.86.384 1.35.765 1.858-.133 3.046-9.022 2.617-16.718 4.741-25.093 9.532-.555-.949-1.019-1.739-1.527-2.718"/><path fill="#ca833c" d="M713.803 220.273c.632-.854 1.21-1.627 1.806-2.509.548 5.854 1.258 12.202 1.608 18.023 57.962 30.215 56.106 80.467-1.007 108.994l-.414-2.923c20.514-13.349 46.687-33.242 39.071-61.843-5.196-19.515-20.703-31.691-37.573-41.271-2.941 15.909-3.946 39.39-11.703 53.402-1.537-2.75-1.322-2.95-2.013-6.041 4.554-8.298 8.272-29.735 9.314-39.612l1.085-9.408c-11.462-4.281-29.258-11.039-40.949-12.668-.901-.75-2.162-3.017-2.868-4.138l7.822 1.92c10.469 2.469 25.232 7.715 35.826 10.986.014-4.335-.136-8.589-.005-12.912"/><path fill="#fcfbfa" d="M570.742 346.564c-33.631-15.832-71.772-45.429-42.808-87.28 9.999-14.447 22.081-20.963 37.081-29.437l.814 3.015c.085 14.128 1.529 52.563 8.024 63.885 1.026 2.42 1.757 3.457 1.983 6.007 6.168 20.779 14.804 33.096 24.851 51.124 1.937 2.172 2.116 2.232 3.406 4.792 3.81 3.696 9.368 10.411 12.484 14.748 1.431 1.992-8.997 3.612-11.174 3.437-.281 1.63-.374 1.734-.337 3.208-4.124 4.953-5.496 10.409-12.879 12.333-9.803 2.555-20.193-4.367-22.673-13.907-1.757-6.754 1.862-10.947 3.872-16.221-2.363-4.299-2.269-10.636-2.644-15.704"/><path fill="#ca833c" d="M570.742 346.564c-33.631-15.832-71.772-45.429-42.808-87.28 9.999-14.447 22.081-20.963 37.081-29.437l.814 3.015c-61.363 32.673-59.29 81.245 3.401 109.218-.204-15.795.62-29.913 4.623-45.333 1.026 2.42 1.757 3.457 1.983 6.007 6.168 20.779 14.804 33.096 24.851 51.124 1.937 2.172 2.116 2.232 3.406 4.792 3.81 3.696 9.368 10.411 12.484 14.748 1.431 1.992-8.997 3.612-11.174 3.437-.281 1.63-.374 1.734-.337 3.208-4.124 4.953-5.496 10.409-12.879 12.333-9.803 2.555-20.193-4.367-22.673-13.907-1.757-6.754 1.862-10.947 3.872-16.221-2.363-4.299-2.269-10.636-2.644-15.704"/><path fill="#353d49" d="m573.386 362.268 2.213-1.626c11.898-8.725 28.115 2.014 29.804 16.213-.281 1.63-.374 1.734-.337 3.208-4.124 4.953-5.496 10.409-12.879 12.333-9.803 2.555-20.193-4.367-22.673-13.907-1.757-6.754 1.862-10.947 3.872-16.221"/><path fill="#fcfbfa" d="M575.836 302.754c6.168 20.779 14.804 33.096 24.851 51.124-5.65-.518-21.291-7.498-27.551-9.904-.878-13.189-.75-28.426 2.7-41.22M573.93 347.7c8.798 3.075 22.073 8.569 30.163 10.97 3.81 3.696 9.368 10.411 12.484 14.748 1.431 1.992-8.997 3.612-11.174 3.437-1.689-14.199-17.906-24.938-29.804-16.213l-2.213 1.626c1.031-6.354.726-8.034.544-14.568m48.374 27.34c2.341-1.186 24.413-12.969 24.685-13 18.22-2.114 36.139-3.751 53.596-10.508 3.683-1.426 8.673-3.49 12.366-4.56.6 71.988-48.108 78.805-90.647 28.068m-51.768-167.892c5.235-12.423 6.591-23.551 18.658-32.578 23.029-17.226 51.423 10.692 64.304 28.094-7.655 3.89-14.78 8.739-22.499 12.539-4.547 2.238-9.99 1.734-14.903 2.043-10.017.323-19.75 2.137-29.569 4.025-5.09.979-4.057.146-5.205-4.532-3.372-6.342-3.913-7.526-10.786-9.591"/><path fill="#be793d" d="M567.306 208.783c1.095-.598 2.111-1.088 3.23-1.635 6.873 2.065 7.414 3.249 10.786 9.591-1.378 4.571-1.691 2.944-1.717 7.772q-.02 1.298-.073 2.595c-2.645 2.933-7.056 3.726-10.892 4.652-.187-.828-.469-3.874-1.202-4.189-1.015.104-1.798 1.199-2.484 1.842-1.757-1.861-5.776-5.701-5.954-8.392-.377-5.701 2.154-11.554 8.306-12.236"/><path fill="#cc9052" d="M713.562 464.662c19.005-36.602 36.844-37.488 63.486-7.655 5.364-1.913 13.04-5.104 18.578-3.674-5.715 2.717-11.234 3.173-17.384 5.489l11.141 17.322c8.924 2.889 18.011 5.698 26.751 9.071-.062-3.799-.003-13.464-.621-16.691.746-.635 1.658-1.195 2.478-1.753.176 6.764.57 13.519 1.184 20.257 19.006 12.977 32.865 31.008 16.611 53.415-3.371 4.647-11.84 11.647-17.281 13.633-1.62 1.739-1.299 1.849.279 3.535 3.053 3.261-1.583 10.318-4.304 12.38-1.687 1.279-2.864 1.992-4.498 3.498-3.891 13.841-11.989 23.798-25.897 27.99-20.53-3.606-25.502-8.438-38.656-23.891l-11.477 2.814c-15.078 24.907-36.896.104-25.192-15.034.192-4.536.304-7.472 1.109-11.941-10.025-9.809-21.216-11.692-27.247-27.447-6.968-18.202 8.723-39.254 25.751-45.093 4.359-2.986-4.849-12.16 5.189-16.225"/><path fill="#fcfbfa" d="m709.258 481.743 2.662.81c.344 7.359.652 19.525 2.296 26.438 3.431 14.423-1.977 26.314-4.16 41.225-9.85-6.435-17.608-10.849-23.75-21.457-11.064-19.108 6.719-38.106 22.952-47.016m38.121 94.598c5.404-2.351 19.131-9.975 23.593-10.084 10.285-.251 20.555-.147 30.869-1.785 2.816 4.796 3.193 4.389 6.563 8.399-5.659 12.213-12.776 27.056-28.893 25.027-15.626-1.968-22.855-9.83-32.132-21.557M726.078 469.3c-1.105-1.072-7.57-6.218-7.214-7.224 13.435-38.022 39.231-24.091 55.674-4.525-7.877 4.829-12.683 7.322-20.295 13.096-11.411.566-16.188 1.484-27.861.055-.059-.525-.019-1.003-.304-1.402m93.148 21.077c9.222 6.641 19.862 14.812 21.571 26.687 2.395 16.639-12.619 27.561-22.95 36.258-2.212.525-2.207.777-3.657-.996-.399-10.496-3.699-21.98-5.061-32.691 5.18-11.772 7.201-16.65 10.097-29.258"/><path fill="#fcfbfa" d="M807.712 526.273q1.113 4.856 2.064 9.744c.997 5.381 1.654 10.873 2.907 16.171l1.507.138c1.45 1.773 1.445 1.521 3.657.996l.658.754c-1.62 1.739-1.299 1.849.279 3.535 3.053 3.261-1.583 10.318-4.304 12.38-1.687 1.279-2.864 1.992-4.498 3.498l-1.578-.618c-3.37-4.01-3.747-3.603-6.563-8.399-1.11-.855-1.318-1.112-2.589-1.657-9.124.484-17.096 1.003-26.254 1.047 16.028-10.613 27.04-19.594 34.714-37.589"/><path fill="#ca833c" d="m812.683 552.188 1.507.138c1.45 1.773 1.445 1.521 3.657.996l.658.754c-1.62 1.739-1.299 1.849.279 3.535 3.053 3.261-1.583 10.318-4.304 12.38-1.687 1.279-2.864 1.992-4.498 3.498l-1.578-.618c-3.37-4.01-3.747-3.603-6.563-8.399-1.11-.855-1.318-1.112-2.589-1.657 8.417-12.52-.129-8.049 13.431-10.627"/><path fill="#353d49" d="M711.401 563.098c14.155-3.69 19.866 2.496 23.049 15.341l-.498 1.963c-15.078 24.907-36.896.104-25.192-15.034.918-.635 1.807-1.512 2.641-2.27"/><path fill="#fcfbfa" d="M727.443 473.964c7.605-.181 13.699.166 21.598-.264-9.239 9.288-17.518 16.597-23.902 28.396-2.534 4.682-4.197 9.289-6.611 13.709l-.589 1.105a230 230 0 0 1-2.161-13.407c-1.035-7.703-1.098-13.32-1.228-21.071 5.603-1.073 9.687-.972 12.083-6.638zm-17.574 79.463 2.253.749c6.714 1.952 13.841 4.464 20.526 6.62 2.915 3.82 5.848 8.848 8.969 12.16 3.856 4.093-3.947 4.81-7.167 5.483-3.183-12.845-8.894-19.031-23.049-15.341-.834.758-1.723 1.635-2.641 2.27.192-4.536.304-7.472 1.109-11.941"/><path fill="#be793d" d="m709.869 553.427 2.253.749c-.169 3.001-.569 5.981-.721 8.922-.834.758-1.723 1.635-2.641 2.27.192-4.536.304-7.472 1.109-11.941"/><path fill="#ca833c" d="M713.562 464.662c3.867 1.693 9.197 2.954 12.516 4.638.285.399.245.877.304 1.402l1.061 3.262-.81 1.83c-2.396 5.666-6.48 5.565-12.083 6.638l-2.63.121-2.662-.81-.885-.856c4.359-2.986-4.849-12.16 5.189-16.225"/><path fill="#fcfbfa" d="M752.956 473.793c14.939.284 21.419 1.077 35.684 4.137 5.179 8.432 19.879 36.252 17.184 45.562-5.193 17.941-19.259 28.739-33.695 38.04-12.163 4.743-25.85-.011-38.007-3.737-8.563-12.022-11.838-21.915-14.891-36.173 6.919-21.269 18.084-32.542 33.725-47.829"/><path fill="#353d49" d="M755.47 484.321a36.686 36.686 0 0 1 42.737 47.377 36.68 36.68 0 0 1-27.678 24.425c-19.72 3.912-38.915-8.777-43.042-28.453-4.126-19.676 8.353-39.008 27.983-43.349"/><path fill="#fcfbfa" d="M792.771 479.781c6.879 1.663 18.126 5.594 24.027 9.271-1.809 8.859-2.674 12.218-5.711 20.875-.295.686-1.612 4.729-2.618 4.656.521.523-14.929-33.092-15.698-34.802m-75.848 47.76c2.45 5.157 3.765 10.685 6.131 15.975.632 1.414 6.671 12.865 6.517 13.144-.573.308-1.164.259-1.845.316a368 368 0 0 1-15.028-5.33c.739-8.909 1.943-15.331 4.225-24.105m58.655-67.47c3.551 3.552 7.63 10.102 10.342 14.534l-16.767-2.595-12.395-1.006c6.609-3.991 12.111-7.219 18.82-10.933m-38.843 101.211c7.121 2.052 13.058 3.825 20.545 4.268 5.34.315 6.35 1.307 1.183 3.393-4.632 2.44-7.748 4.286-12.514 6.565-3.258-4.189-7.405-9.22-9.214-14.226"/><path fill="#353d49" d="M968.16 1456.06c21.182 2.24 41.69 4 63.04 3.71 16.72-.23 32.08-2.77 48.44-3.93l1.62 3.09c-13.51 32.15-27.18 49.36-35.37 87.33-6.69 31.05-5.88 43.89-7.03 75.17q-1.14 30.255-2.67 60.48c-3.82 80.2-8.8 168.57-9.71 248.56 15.46 1.01 26.74 6.85 37.65 17.63l-77.628-.06c9.524-11.15 21.138-15.9 35.358-17.56.14-58-4.73-123.57-6.59-182.16-1.24-39.08-2.77-78.14-4.56-117.19-.96-21.52-1.5-47.91-4.37-69-3.1-22.85-14.951-53.68-24.853-74.79-2.551-5.44-14.258-25.09-13.91-28.64z"/><path fill="#c7c6c5" d="M968.16 1456.06c21.182 2.24 41.69 4 63.04 3.71 16.72-.23 32.08-2.77 48.44-3.93l1.62 3.09c-4.88-.13-11.85.51-16.7 1.21-33.28 4.81-63.85 1.22-96.983-1.44z"/><path fill="#353d49" d="M816.82 643.191c.078-3.544 2.361-7.156 4.74-9.618 14.266-14.763 26.652-8.446 38.712 2.697 2.368 2.54 4.607 4.903 6.676 7.698 4.807-1.829 9.847-3.941 14.662-5.588 2.31-2.619 9.613-9.662 13.89-9.262 10.058.943 17.96 12.121 9.849 20.501-.828.855-1.973 2.282-1.697 3.609.258 3.51.257 7.591.562 10.863 18.194 13.357 32.024 28.365 13.66 49.86a54.7 54.7 0 0 1-12.247 10.458c-3.857 2.449 3.715 6.533-6.615 12.719-3.915 9.711-6.618 19.954-17.324 24.48-12.662 5.354-28.753-3.87-36.485-13.748-.856-.742-2.005-1.491-2.944-2.162-.922-.881-.79-.655-1.382-1.71-2.878-3.83-6.022-7.468-8.67-11.463-2.117-3.027-12.491-6.224-14.609-5.672-.869.885-.341 2.274-1.149 3.17-2.759.49.328-3.789-5.276-6.324-15.922-7.202-28.797-23.191-20.774-41.076 6.578-14.664 10.384-13.777 21.104-20.473-4.532-10.152-2.78-11.735 5.317-18.959"/><path fill="#fcfbfa" d="M881.61 638.38c2.31-2.619 9.613-9.662 13.89-9.262 10.058.943 17.96 12.121 9.849 20.501-.828.855-1.973 2.282-1.697 3.609.258 3.51.257 7.591.562 10.863 18.194 13.357 32.024 28.365 13.66 49.86a54.7 54.7 0 0 1-12.247 10.458c-3.857 2.449 3.715 6.533-6.615 12.719-3.915 9.711-6.618 19.954-17.324 24.48-12.662 5.354-28.753-3.87-36.485-13.748l1.883-.318a197 197 0 0 1-2.129-2.696l-1.714-1.524c6.295-2.712 10.256-4.835 15.792-8.996 1.233-1.019 1.667-1.258 3.082-2.162 1.955-1.029 2.83-1.653 4.635-2.807l1.669-1.048c11.346-11.844 19.992-16.676 24.779-34.361-4.069-13.892-9.114-22.83-17.031-34.693-1.249-1.827-1.794-2.813-3.34-4.34-2.534-3.291-4.05-7.472-8.283-7.524l-.037-1.805c.012-2.746-2.431-4.586-4.457-6.695l.22-2.621c2.368 2.54 4.607 4.903 6.676 7.698 4.807-1.829 9.847-3.941 14.662-5.588"/><path fill="#4d4c4d" d="M881.61 638.38c2.31-2.619 9.613-9.662 13.89-9.262 10.058.943 17.96 12.121 9.849 20.501-.828.855-1.973 2.282-1.697 3.609l-2.511 1.105c-.115 3.984-.153 5.359-.76 9.206l.997 1.937c.528.62 1.438 1.259 2.079 1.758-1.33 7.554-6.558 22.317-6.936 27.468l-.433 1.198c-.316.916-.611 1.619-1.276 2.32 2.521 5.8 2.63 14.442 3.797 20.738-3.04 1.535-8.538 4.388-8.402 9.154.008.293-.403 1.87-.879 2.077-4.799 1.133-17.211 1.861-21.738 1.221l1.351-1.615-.52-1.486c11.346-11.844 19.992-16.676 24.779-34.361-4.069-13.892-9.114-22.83-17.031-34.693-1.249-1.827-1.794-2.813-3.34-4.34-2.534-3.291-4.05-7.472-8.283-7.524l-.037-1.805c.012-2.746-2.431-4.586-4.457-6.695l.22-2.621c2.368 2.54 4.607 4.903 6.676 7.698 4.807-1.829 9.847-3.941 14.662-5.588"/><path fill="#ca833c" d="M881.61 638.38c2.31-2.619 9.613-9.662 13.89-9.262 10.058.943 17.96 12.121 9.849 20.501-.828.855-1.973 2.282-1.697 3.609l-2.511 1.105c-14.709 1.378-11.99 2.441-19.308-13.573-.21-1.131-.281-1.269-.223-2.38"/><path fill="#fcfbfa" d="M894.812 698.22c2.521 5.8 2.63 14.442 3.797 20.738-3.04 1.535-8.538 4.388-8.402 9.154.008.293-.403 1.87-.879 2.077-4.799 1.133-17.211 1.861-21.738 1.221l1.351-1.615c12.124-9.171 18.448-17.552 25.45-30.793zm-27.864-54.252c4.807-1.829 9.847-3.941 14.662-5.588-.058 1.111.013 1.249.223 2.38 7.318 16.014 4.599 14.951 19.308 13.573-.115 3.984-.153 5.359-.76 9.206l.997 1.937c-7.273-1.833-13.419-4.054-21.195-4.345-1.038-1.265-1.607-2.424-2.415-3.85a176 176 0 0 0-8.727-10.912c-1.029-1.003-1.171-1.216-2.093-2.401"/><path fill="#cc9052" d="M877.768 657.281c4.64.92 19.573 3.999 22.613 6.258l.997 1.937c-7.273-1.833-13.419-4.054-21.195-4.345-1.038-1.265-1.607-2.424-2.415-3.85"/><path fill="#ca833c" d="M866.948 643.968c4.807-1.829 9.847-3.941 14.662-5.588-.058 1.111.013 1.249.223 2.38-4.379 2.135-8.549 3.527-12.792 5.609-1.029-1.003-1.171-1.216-2.093-2.401"/><path fill="#fcfbfa" d="M880.183 661.131c7.776.291 13.922 2.512 21.195 4.345-.949 9.752-2.498 16.703-6.254 25.754-4.273-12.713-8.192-18.693-14.941-30.099m-11.762 67.178.52 1.486-1.351 1.615a115 115 0 0 0-3.467 2.503c8.589.246 18.883-.809 27.725-1.323l-.135-.233c1.424 1.741 2.868 3.205 4.557 4.696l2.742.075c-3.915 9.711-6.618 19.954-17.324 24.48-12.662 5.354-28.753-3.87-36.485-13.748l1.883-.318a197 197 0 0 1-2.129-2.696l-1.714-1.524c6.295-2.712 10.256-4.835 15.792-8.996 1.233-1.019 1.667-1.258 3.082-2.162 1.955-1.029 2.83-1.653 4.635-2.807z"/><path fill="#7a6458" d="m896.27 737.053 2.742.075c-3.915 9.711-6.618 19.954-17.324 24.48-12.662 5.354-28.753-3.87-36.485-13.748l1.883-.318c21.451 18.42 40.899 21.504 49.184-10.489"/><path fill="#835635" d="m868.421 728.309.52 1.486-1.351 1.615a115 115 0 0 0-3.467 2.503c-4.763 2.461-13.83 7.91-19.166 10.933l-1.714-1.524c6.295-2.712 10.256-4.835 15.792-8.996 1.233-1.019 1.667-1.258 3.082-2.162 1.955-1.029 2.83-1.653 4.635-2.807z"/><path fill="#cc9052" d="m901.141 654.333 2.511-1.105c.258 3.51.257 7.591.562 10.863 18.194 13.357 32.024 28.365 13.66 49.86a54.7 54.7 0 0 1-12.247 10.458c-3.857 2.449 3.715 6.533-6.615 12.719l-2.742-.075c-1.689-1.491-3.133-2.955-4.557-4.696l.135.233c-8.842.514-19.136 1.569-27.725 1.323a115 115 0 0 1 3.467-2.503c4.527.64 16.939-.088 21.738-1.221.476-.207.887-1.784.879-2.077-.136-4.766 5.362-7.619 8.402-9.154-.053 1.236.016 1.35.047 2.335l.062.02c.484-.704 1.021-3.853 1.254-4.828.796 2.575 1.295 7.621 4.655 5.625 14.176-8.421 24.348-24.889 14.965-40.656-2.598-4.366-11.206-13.166-16.135-14.22-.641-.499-1.551-1.138-2.079-1.758l-.997-1.937c.607-3.847.645-5.222.76-9.206"/><path fill="#7a6458" d="M896.521 694.702c.972 3.561 3.507 18.17 3.451 21.783-.233.975-.77 4.124-1.254 4.828l-.062-.02c-.031-.985-.1-1.099-.047-2.335-1.167-6.296-1.276-14.938-3.797-20.738.665-.701.96-1.404 1.276-2.32z"/><path fill="#cc9052" d="M816.82 643.191c.078-3.544 2.361-7.156 4.74-9.618 14.266-14.763 26.652-8.446 38.712 2.697l-.22 2.621c2.026 2.109 4.469 3.949 4.457 6.695l.037 1.805c4.233.052 5.749 4.233 8.283 7.524 1.546 1.527 2.091 2.513 3.34 4.34-12.338-2.575-20.386-6.678-30.337 1.312l2.674 3.1c-10.271 5.775-10.272 6.225-17.403 15.351l-.951-.895c-4.285 7.363-5.665 10.052-7.883 18.411l-1.685 6.923c4.178 12.476 4.378 14.873 12.147 25.983 11.801 2.224 17.446 2.299 29.386 2.724-1.415.904-1.849 1.143-3.082 2.162-5.536 4.161-9.497 6.284-15.792 8.996l1.714 1.524a197 197 0 0 0 2.129 2.696l-1.883.318c-.856-.742-2.005-1.491-2.944-2.162-.922-.881-.79-.655-1.382-1.71-2.878-3.83-6.022-7.468-8.67-11.463-2.117-3.027-12.491-6.224-14.609-5.672-.869.885-.341 2.274-1.149 3.17-2.759.49.328-3.789-5.276-6.324-15.922-7.202-28.797-23.191-20.774-41.076 6.578-14.664 10.384-13.777 21.104-20.473-4.532-10.152-2.78-11.735 5.317-18.959"/><path fill="#fcfbfa" d="M816.82 643.191c.078-3.544 2.361-7.156 4.74-9.618 14.266-14.763 26.652-8.446 38.712 2.697l-.22 2.621c2.026 2.109 4.469 3.949 4.457 6.695-15.113 8.834-20.602 10.13-38.372 9.437l-.317 2.952c-3.69 3.103-6.454 4.615-10.332 7.23l-2.129-.114-1.422-1.698c-.324-1.064-.176-.69-.434-1.243-4.532-10.152-2.78-11.735 5.317-18.959"/><path fill="#ca833c" d="M818.263 642.633c3.714 5.771 4.988 3.581 7.874 12.39l-.317 2.952c-3.69 3.103-6.454 4.615-10.332 7.23l-2.129-.114-1.422-1.698c-.324-1.064-.176-.69-.434-1.243-4.532-10.152-2.78-11.735 5.317-18.959z"/><path fill="#4d4c4d" d="M816.82 643.191c.078-3.544 2.361-7.156 4.74-9.618 14.266-14.763 26.652-8.446 38.712 2.697l-.22 2.621c-16.301-14.681-29.147-18.764-41.789 3.742z"/><path fill="#fcfbfa" d="M814.071 722.954c-8.797-4.706-16.133-8.942-20.996-18.104-8.739-16.468 4.499-34.418 18.862-41.457l1.422 1.698 2.129.114c.407 11.51 1.037 18.805 3.279 29.953l-1.168 1.628c-.434 7.638-2.45 18.308-3.528 26.168"/><path fill="#8b7d75" d="m813.359 665.091 2.129.114c.407 11.51 1.037 18.805 3.279 29.953l-1.168 1.628c-4.451-13.046-2.633-19.265-4.24-31.695"/><path fill="#fcfbfa" d="M846.088 656.654c-14.397 14.632-19.149 19.245-27.321 38.504-2.242-11.148-2.872-18.443-3.279-29.953 3.878-2.615 6.642-4.127 10.332-7.23 7.506-1.369 12.635-.998 20.268-1.321m-12.251 75.816c6.408.058 18.272 1.335 25.198 1.856-5.536 4.161-9.497 6.284-15.792 8.996l1.714 1.524a197 197 0 0 0 2.129 2.696l-1.883.318c-.856-.742-2.005-1.491-2.944-2.162-.922-.881-.79-.655-1.382-1.71-2.878-3.83-6.022-7.468-8.67-11.463.614.201.886.058 1.63-.055"/><path fill="#4d4c4d" d="M832.207 732.525c.614.201.886.058 1.63-.055 2.45 3.037 6.594 8.32 9.406 10.852l1.714 1.524a197 197 0 0 0 2.129 2.696l-1.883.318c-.856-.742-2.005-1.491-2.944-2.162-.922-.881-.79-.655-1.382-1.71-2.878-3.83-6.022-7.468-8.67-11.463"/><path fill="#fcfbfa" d="M864.546 647.391c4.233.052 5.749 4.233 8.283 7.524-4.519.013-12.637-1.072-17.925-1.373 3.247-1.984 6.505-3.995 9.642-6.151"/><path fill="#efeeed" d="m845.832 660.567 2.674 3.1c-10.271 5.775-10.272 6.225-17.403 15.351l-.951-.895c4.034-5.976 9.736-13.408 15.68-17.556"/><path fill="#fcfbfa" d="M818.486 709.615c2.496 2.444 7.612 13.438 9.208 17.082-13.558-3.077-11.962-2.776-9.208-17.082m27.346-49.048c9.951-7.99 17.999-3.887 30.337-1.312 7.917 11.863 12.962 20.801 17.031 34.693-4.787 17.685-13.433 22.517-24.779 34.361l-1.669 1.048c-1.805 1.154-2.68 1.778-4.635 2.807-11.94-.425-17.585-.5-29.386-2.724-7.769-11.11-7.969-13.507-12.147-25.983l1.685-6.923c2.218-8.359 3.598-11.048 7.883-18.411l.951.895c-2.813 5.724-4.932 9.255-3.951 15.977 1.527 16.582 18.176 31.866 35.344 27.709 27.927-6.761 34.352-44.125 8.12-58.282-8.471-4.572-13.739-3.414-22.11-.755z"/><path fill="#353d49" d="M991.78 1525.19c2.939 3.29 4.994 17.97 5.677 22.73-28.729 13.78-49.457 72.58-62.855 102.2a9408 9408 0 0 1-43.921 95.32c-30.007 64.25-58.64 132.99-126.759 165.8-15.376 7.4-29.57 11.32-45.711 16.08 15.796 6.48 19.331 7.52 29.757 20.92l-79.882-.28q-18.984.27-37.967.09c10.227-4.36 27.699-8.09 38.997-10.78 19.827-4.73 35.802-9.01 54.682-16.58 91.366-36.67 119.262-116.26 154.75-198.6l58.793-138.05c12.753-29.76 24.286-46.79 54.439-58.85"/><path fill="#8a8b8e" d="M711.599 1927.83c.64-.11.818-.21 1.437-.06.022.4.043.14-.152.86-.255 0-1.299.01-1.548-.11-.016-.34-.053-.12.263-.69"/><path fill="#353d49" d="M1056.38 1525.73c45.27 17.13 50.85 51.71 68.27 92.56l41.07 95.28c24.45 57.37 47.41 120.7 92.75 165.1 38.55 37.73 93.83 53.12 145.1 64.2 6.11 1.32 10.96 3 16.78 5.08-38.68.64-78.92.02-117.73.07 7.95-11.76 11.28-13.92 24.25-19.75-.52-.87-1.03-1.74-1.54-2.61-51.45-11.33-94.61-43.98-121.54-89.01-36.55-61.11-61.68-129.02-93.54-192.66-16.07-32.08-26.59-77.93-60.56-96.34 1.97-8.61 3.28-13.72 6.69-21.92"/><path fill="#efeeed" d="M1325.33 1925.66c1.1.21 3.25.43 4.02 1.35-.12 1.05-1.47.98-2.48 1.26-.52-.87-1.03-1.74-1.54-2.61"/><path fill="#cc9052" d="M904.397 794.35c6.882-26.186 23.748-17.662 38.119-3.287 4.746-.774 9.496-1.258 14.161-2.185 3.361-2.645 7.513-9.156 11.813-7.906 8.86 2.575 11.685 11.966 3.566 17.292l.278 12.886c21.169 15.298 17.972 29.686-.673 44.975-3.069 17.628-3.171 26.432-22.122 30.937-14.527-3.434-26.5-11.687-33.532-25.051l-1.485.552c.918 2.323 1.994 3.865 2.602 6.447 2.03 8.619-8.292 11.747-13.834 6.695-3.75-3.418-1.974-7.075-2.433-12.091a128 128 0 0 1-1.487-8.335c-1.366-.253-.721-.063-2.551-.974a25.06 25.06 0 0 1-13.196-15.834 25.5 25.5 0 0 1 2.61-19.37c2.818-4.753 7.348-8.773 12.771-10.169 2.01-4.767-5.638-12.609 5.393-14.582"/><path fill="#fcfbfa" d="M906.182 793.87c5.726-21.642 22.684-15.93 33.985-2.214-4.395 3.603-7.204 5.837-11.364 9.763-2.272.756-3.363.872-4.846 2.767-8.75 8.121-12.134 13.071-17.292 23.871l-5.698-18.23c-1.163.28-1.203-.049-1.963-.895 2.01-4.767-5.638-12.609 5.393-14.582z"/><path fill="#be793d" d="m904.397 794.35 1.785-.48c3.239 1.326 6.298 2.874 7.922 6.146.34.684.144 2.159-.286 2.453-1.061.725.523 4.586.548 4.568-1.414.995-3.225.874-4.856.72-3.711-.122-5.401.595-8.543 2.07-1.163.28-1.203-.049-1.963-.895 2.01-4.767-5.638-12.609 5.393-14.582"/><path fill="#e5bf95" d="M923.957 804.186c-2.364-.125-6.601.458-8.059-1.688.274-2.194 11.486-1.18 12.905-1.079-2.272.756-3.363.872-4.846 2.767"/><path fill="#fcfbfa" d="M956.677 788.878c3.361-2.645 7.513-9.156 11.813-7.906 8.86 2.575 11.685 11.966 3.566 17.292l-1.993.754c.097 14.717.003 10.481-16.328 6.208-4.029-4.416-5.984-7.26-9.128-12.23-.855-1.061-.976-1.1-2.091-1.933 4.746-.774 9.496-1.258 14.161-2.185"/><path fill="#ca833c" d="M956.677 788.878c3.361-2.645 7.513-9.156 11.813-7.906 8.86 2.575 11.685 11.966 3.566 17.292l-1.993.754c-9.555-.813-8.039-1.275-13.715-8.536z"/><path fill="#e1d4bf" d="M942.516 791.063c4.746-.774 9.496-1.258 14.161-2.185l-.329 1.604a97 97 0 0 0-11.741 2.514c-.855-1.061-.976-1.1-2.091-1.933"/><path fill="#2b2e35" d="M902.119 862.677c3.967-1.135 8.943-3.209 12.403-.114.918 2.323 1.994 3.865 2.602 6.447 2.03 8.619-8.292 11.747-13.834 6.695-3.75-3.418-1.974-7.075-2.433-12.091.591-.288.775-.515 1.262-.937"/><path fill="#efeeed" d="M899.37 855.279c1.235.361 2.076.64 3.275 1.1 6.878 1.424 11.276-.225 13.362 5.632l-1.485.552c-3.46-3.095-8.436-1.021-12.403.114-.487.422-.671.649-1.262.937a128 128 0 0 1-1.487-8.335"/><path fill="#8b7d75" d="M899.37 855.279c1.235.361 2.076.64 3.275 1.1-.91 2.863-.612 3.22-.526 6.298-.487.422-.671.649-1.262.937a128 128 0 0 1-1.487-8.335"/><path fill="#353d49" d="M929.197 804.201c11.598-.663 11.059-1.248 22.038 2.662 7.708 9.641 9.268 13.426 13.131 24.81-5.967 14.72-12.169 21.087-25.731 29.448-10.578-.287-10.769.164-21.052-3.299-6.917-10.664-11.095-17.887-8.044-30.354 2.274-5.021 3.161-7.036 6.318-11.503 5.04-6.589 6.303-7.424 13.34-11.764"/><path fill="#fcfbfa" d="M929.197 804.201c11.598-.663 11.059-1.248 22.038 2.662 7.708 9.641 9.268 13.426 13.131 24.81-5.967 14.72-12.169 21.087-25.731 29.448-10.578-.287-10.769.164-21.052-3.299-6.917-10.664-11.095-17.887-8.044-30.354l2.943.757c-1.825 11.598 5.233 22.752 16.497 26.067s23.238-2.236 27.987-12.974.799-23.332-9.232-29.434-23.031-3.821-30.383 5.333l-1.494-1.252c5.04-6.589 6.303-7.424 13.34-11.764"/><path fill="#efeeed" d="m915.857 815.965 1.494 1.252a23.4 23.4 0 0 0-4.869 11.008l-2.943-.757c2.274-5.021 3.161-7.036 6.318-11.503"/><path fill="#fcfbfa" d="M965.304 837.675c3.977 12.072 5.025 30.865-3.323 41.313a14.16 14.16 0 0 1-9.456 5.13c-8.28.973-30.843-9.511-24.129-13.804 10.114-5.635 12.999-7.834 25.23-7.921 5.584-.039 10.782-2.086 15.767-4.212-11.502 1.874-13.251 2.052-25.174 2.496l1.53-1.056c11.532-7.821 12.266-10.592 19.555-21.946m-65.219 15.047c-4.572-1.255-7.002-3.661-10.093-7.17-10.57-12-4.343-25.958 7.16-33.993l1.609-1.167c4.486 12.884 8.833 15.726 4.665 28.434l2.206.802c1.582.236 7.698 15.133 8.859 17.598-4.006-1.262-8.922-2.164-12.558-3.892z"/><path fill="#fcfbfa" d="M905.632 839.628c1.582.236 7.698 15.133 8.859 17.598-4.006-1.262-8.922-2.164-12.558-3.892 1.501-4.826 1.428-9.031 3.699-13.706"/><path fill="#c09a77" d="m903.426 838.826 2.206.802c-2.271 4.675-2.198 8.88-3.699 13.706l-1.848-.612c1.37-4.563 1.914-9.343 3.341-13.896"/><path fill="#fcfbfa" d="M972.974 814.45c7.05 3.133 11.545 11.571 11.905 19.056.283 5.885-4.336 11.226-7.93 15.359-1.318 1.048-3.813 3.417-5.47 3.239-.79-.769-4.104-15.554-4.77-18.115 2.553-7.682 4.111-11.484 6.265-19.539m-17.345-6.492c4.703 1.012 10.225 2.581 14.7 4.31-.613 2.972-1.323 6.409-2.192 9.309l-1.002 3.358c.005-.013-1.054 2.516-1.489 1.754-3.531-6.184-6.067-12.432-10.017-18.731m-38.156 51.753c4.551 1.388 8.648 3.31 13.535 3.468.927.03 2.898-.151 3.251.806-.236.911-1.166 1.471-1.848 2.06-9.639 5.003-9.112 5.44-14.938-6.334m23.734-65.598c1.46.954 7.706 7.637 6.215 9.175-1.033.092-5.596-1.191-6.858-1.496-2.761-.097-5.528-.027-8.281-.274l-1.303-.095c2.283-1.794 5.037-4.19 7.456-5.661z"/><path fill="#353d49" d="m687.902 1260 1.214-2.14q12.522 1.56 25.029 3.24c-2.276 14.18-9.405 70.79-8.048 82.44a46.3 46.3 0 0 0 7.911 21.02c21.121 30.43 56.989 16.13 84.986 9.88.847 1.75 1.277 1.85 2.722 3.38l11.895 12.45c-10.927 4.75-47.213 12.09-59.298 11.98-18.675-.15-37.198-6.74-50.466-20.25-27.637-28.14-16.77-60.99-16.673-96.87l-.736.31-1.22.54c-35.343 15.41-49.29 44.72-53.453 81.15-1.618-.86-3.225-1.73-4.82-2.62-16.44-9.43-23.394-25.28-12.233-41.72 14.626-21.54 41.355-34.78 66.028-40.24.546.04 6.608.53 6.69-.19.781-6.84.822-15.47.472-22.36m669.168-2.72 2.19.18c2.28 4.05 4.55 83.39 2.92 91.4-3.54 17.43-15.65 34.21-30.69 43.54-29.74 18.43-65.94 6.45-97.28-.82 5.26-5.01 11.05-11.91 15.95-17.46 26.54 8.61 62.46 18.96 83.17-7.56 5.05-6.56 8.3-14.31 9.44-22.51 1.71-12.27-6.74-67.27-8.73-82.58 7.09-.98 15.87-2.86 23.03-4.19"/><path fill="#353d49" d="M595.434 1244.73c-11.326-10.99-6.437-32.71 8.176-37.4 2.093-.67 8.782 14.71 10.747 17.36 13.281 17.93 36.476 33.35 57.888 39.13 3.78 1.15 7.563 1.73 11.471 2.41.909-.46 1.494.27 2.305.76.801-1.41 1.394-1.57-.021-2.67.149-1.06.251-2.53.679-3.53l1.223-.79c.35 6.89.309 15.52-.472 22.36-.082.72-6.144.23-6.69.19l-3.793-1.8c2.033-.46 7.824-1.27 8.899-3.22-.014-.22-.123-.71-.403-.74-8.367-.95-18.164 1.04-26.669.93-3.252-1.79-5.27-1.35-9.048-1.82-11.107.64-49.366 9.14-57.096 9.83-8.277.73-17.193-31.81 1.166-38.56.569-.82 1.11-1.59 1.638-2.44"/><path fill="#353d49" d="M595.434 1244.73c-11.326-10.99-6.437-32.71 8.176-37.4 2.093-.67 8.782 14.71 10.747 17.36 13.281 17.93 36.476 33.35 57.888 39.13l-2.35 3.59c-16.351-2.34-35.265-9.24-50.846-14.82-5.366-1.93-18.737-7.31-23.615-7.86"/><path fill="#efeeed" d="M595.434 1244.73c4.878.55 18.249 5.93 23.615 7.86 15.581 5.58 34.495 12.48 50.846 14.82l2.35-3.59c3.78 1.15 7.563 1.73 11.471 2.41.909-.46 1.494.27 2.305.76.801-1.41 1.394-1.57-.021-2.67.149-1.06.251-2.53.679-3.53l1.223-.79c.35 6.89.309 15.52-.472 22.36-.082.72-6.144.23-6.69.19l-3.793-1.8c2.033-.46 7.824-1.27 8.899-3.22-.014-.22-.123-.71-.403-.74-8.367-.95-18.164 1.04-26.669.93-3.252-1.79-5.27-1.35-9.048-1.82 5.145-1.03 18.853-1.66 24.564-1.87l3.825-2.75c-29.59-3.33-53.05-14.79-80.665-23l-3.654-1.11c.569-.82 1.11-1.59 1.638-2.44"/><path fill="#4d4c4d" d="M672.245 1263.82c3.78 1.15 7.563 1.73 11.471 2.41.909-.46 1.494.27 2.305.76-4.386 1.86-11.07.8-16.126.42zm5.87 7.46c2.637-.04 4.34-.08 6.667 1.07l-.176.35.153-.01c.089 2.16-9.107 1.37-10.469 1.34z"/><path fill="#d7342f" d="M1016.54 1018.72c15.13-3.94 30.57 5.2 34.38 20.36 3.82 15.16-5.45 30.52-20.64 34.22-15.02 3.64-30.16-5.5-33.933-20.48s5.243-30.2 20.193-34.1"/><path fill="#353d49" d="M1363.03 1283.09c26.61-1.38 69.43 24.47 77.91 50.91 2.29 7.13-4.22 17.28-8.23 22.89-6.36 5.8-7.98 6.26-15.36 9.99-2.19-28.48-13.11-56.94-38.35-72.84-5.49-3.47-12.07-6.12-15.97-10.95M686 1264.32c-29.871-3.83-62.017-25.28-75.28-52.67-2.869-5.98-4.579-10.77-1.788-17.16 4.63-10.6 11.876-15.39 21.964-19.8 3.05 34.74 13.416 59.4 43.106 80.33 3.675 2.59 8.564 3.64 12.677 5.77-.428 1-.53 2.47-.679 3.53m731.47-89.77c55.3 24.23-1.29 72.86-33.47 84.66l-3.74 1.36c-7.96 3.07-12.99 3.71-21.38 4.75 5.6-3.96 11.05-7.07 16.9-10.61 30.36-18.39 39.27-46.8 41.69-80.16m-758.696 103.17c8.505.11 18.302-1.88 26.669-.93.28.03.389.52.403.74-1.075 1.95-6.866 2.76-8.899 3.22-25.63 7.22-48.217 17.29-64.676 39.2-5.231 6.97-5.45 13.05-14.861 5.25-8.263-6.85-9.654-21.65-5.567-30.76 2.428-5.41 23.027-9.47 29.147-10.82a364 364 0 0 1 18.518-3.51c6.326-1.02 12.882-1.72 19.266-2.39m795.406-28.8c3.71.21 6.09 1.13 7.85 4.55 7.34 14.25 4.66 23.68-4.65 34.46-20.44-5.9-45.29-9.9-66.58-11.98-4.49-.12-23.69.43-25.48-1.28-.18-.56-.13-.52.14-1.04-1.28.83 23.44-4.2 25.05-4.5l5-.94c19.93-3.67 39.63-12.41 58.67-19.27"/><path fill="#353d49" d="M1377.4 1278.17c12.28-1.12 35.64 3.12 48.11 5.57l7.48 1.36c5.29.98 21.14 3.87 23.89 8.86 5.3 9.6 2.94 27.86-6.89 34.27-4.18 2.72-5.3.45-7.56-3-15.99-23.89-44.38-40.33-72.53-44.78 4.04-.24 4.27-.04 7.5-2.28m-1.19-12.64c26.13-11.46 46.03-20.33 62.43-46.15 3.43-5.4 3.18-12.41 10.51-9.81 9.48 3.36 13.37 25.83 8.33 32.22-6.72 8.55-34.62 14.17-45.32 19.23-7.09 3.17-22.68 5.55-29.52 6.38-3.18-.51-3.58-.39-6.43-1.87"/><path fill="#be793d" d="M797.52 454.135c4.193-6.281 7.992-13.155 16.003-11.315 12.646 2.904 14.445 16.235 4.468 23.951-.82.558-1.732 1.118-2.478 1.753-10.412-1.594-12.495-5.806-17.993-14.389"/><path fill="#2b2e35" d="M834.73 747.284c-2.162 1.523-4.762 5.131-6.263 5.558-5.577 1.588-12.818-2.244-14.047-8.044-.805-1.381.363-9.698 1.497-10.308 15.146-8.147 17.706 3.01 18.951 11.155z"/><path fill="#4d4c4d" d="M1382.64 1267.4c-2.6.45-14.33 2.47-16.2 2.26-8.07-.91 9.85-4.15 9.77-4.13 2.85 1.48 3.25 1.36 6.43 1.87"/><path fill="#2b2e35" d="M1369.9 1280.45c-.12-.02-7.82-.38-6.36-2.62 1.19-1.83 11.3.19 13.86.34-3.23 2.24-3.46 2.04-7.5 2.28"/><path fill="#8b7d75" d="M840.877 743.988c.592 1.055.46.829 1.382 1.71-3.541 1.256-3.704 1.246-7.529 1.586l.138-1.639c2.409-.544 3.632-.84 6.009-1.657"/><metadata><recraft-signature>{&quot;signed_by&quot;: &quot;recraft&quot;, &quot;signature_b64&quot;: &quot;3B8umlpqKZflKqP0yNAOb7Uc2vxVdHwlXK5kMIIFzrhPTGB66rG0Iyd65G52V3w+kgi7fxwZET8sGFw4q+ysCA==&quot;, &quot;signing_algo&quot;: &quot;Ed25519&quot;, &quot;generation_timestamp&quot;: 1777252591, &quot;identifier&quot;: &quot;cb28441c-d492-4643-9c76-e1a21a37abff&quot;}</recraft-signature></metadata></svg>