<svg xmlns="http://www.w3.org/2000/svg" width="1024" height="1024" preserveAspectRatio="none" style="display:block" viewBox="0 0 2048 2048"><path fill="#36424a" d="M1525.5 24.04c15.21-.044 32.82-.487 47.91.108.05 1.117.2 1.263.6 2.327 2.16.227 2.02.171 3.83 1.361 1.44 3.938.54 10.014.35 14.53-24.16 6.716-27.36 27.905-27.46 49.508q-106.935-.847-213.87-.208c-.84-23.859-3.52-39.98-28.63-49.488l.07-15.193c15.45.51 38.47 1.005 53.84.07l28.68-.056-.01 18.094 18.13-.017.02-18.03 71.14.024.03 17.947 16.8.065.02-18.027c9.29.05 19.96-.134 29.13.172z"/><path fill="#ebeaeb" d="M1525.5 24.04c15.21-.044 32.82-.487 47.91.108.05 1.117.2 1.263.6 2.327-6.47 1.436-39.62.874-47.93.752z"/><path fill="#36424a" d="M702.456 1965.64c10.913 5.98 22.921 9.84 34.867 13.19-10.556 23.29-17.374 43.55-20.723 69.17h-47.709c8.391-33.1 16.614-52.36 33.565-82.36m43.598 14.54c14.115 3.5 28.625 6.01 42.821 9.19-6.917 19.42-11.331 37.9-12.062 58.63h-53.216c.59-5.4 1.466-10.15 2.589-15.49q.991-4.5 2.089-8.97c3.657-14.76 9.449-30.57 17.779-43.36m527.206 7.54c2.68-.51 5.06-.9 7.75-1.47l6.98-1.49 4.5-1.01 4.5-1.01 4.47-1.04c3.8-.89 7.74-1.8 11.52-2.74a160.5 160.5 0 0 1 21.28 52.53c1.14 5.34 2.37 11.13 3.18 16.51h-49.2c-1.11-7.42-1.95-14.6-3.42-21.99-2.67-13.09-6.54-25.9-11.56-38.29m47.49-10.55c10.82-3.13 20.74-5.71 31.13-10.3 16.22 21.23 29.12 55.13 34.71 81.13h-42.05c-5.32-29.2-9.91-44.49-23.79-70.83m-100.73 19.27c10.32-1.58 20.68-2.88 30.97-4.62l6-1c2.74-.44 5.45-1.01 8.18-1.49 9 15.89 14.54 40.58 16.09 58.67h-49.88c-2.24-18.15-6.12-34.09-11.36-51.56m-424.108-5.89c15.241 2.08 30.555 3.96 45.763 6.14l-1.194 4.16c-4.358 15.33-7.199 31.24-7.747 47.15h-48.192c.798-22.41 4.061-36.57 11.37-57.45m370.518 12.46c15.48-2.05 30.68-2.75 46.17-5.68 3.39 8.8 5.95 17.89 7.66 27.16 1.59 8.49 2.45 14.94 3.09 23.51h-50.61c-2.16-15.31-3.84-29.57-6.31-44.99m-316.927-4.92c14.636 2.44 30.031 4.04 44.805 5.53-4.846 15.28-5.336 28.61-5.722 44.38h-48.604c.333-10.67 1.968-20.06 4.336-30.45.479-2.03.978-4.05 1.496-6.07l.466-1.94 1.005-3.99c.653-2.52 1.467-4.98 2.218-7.46m50.748 6.03c16.08 1.8 32.448 2.31 48.482 3.72l-.207 1.44c-1.948 11.85-2.81 26.66-3.372 38.72h-49.179a196.8 196.8 0 0 1 3.97-42.39zm211.079 2.94c16.19-.47 31.1-2.04 47.14-3.33 3.53 13.9 6.15 29.93 6.68 44.27h-48.98c-.97-16.69-1.75-24.69-4.84-40.94m-106.74 2.65c16.33.23 32.65.29 48.98.18 2.24 14.08 2.5 24.03 3.24 38.11h-54c.21-13.28.64-25.05 1.78-38.29m56.04-.07c14.61-.81 29.85-1.07 44.76-1.78 2.46 15.82 3.55 24.24 3.69 40.14h-45.09c-.97-14.49-1.8-24.04-3.36-38.36m-105.408-1.53c14.195.57 27.866.73 41.969 1.2-.888 13.56-1.913 24.92-2.065 38.69H951.99c.519-14.18 1.978-26.04 3.232-39.89M1312.54 0h3.42c2.49.969 40.86.625 47.73.885 1.66 7.9.48 18.479-1.55 26.17-15.37.935-38.39.44-53.84-.07 6.08-3.941.62-15.183 3.29-22.93z"/><path fill="#ebeaeb" d="M1363.69.885c1.66 7.9.48 18.479-1.55 26.17-15.37.935-38.39.44-53.84-.07 6.08-3.941.62-15.183 3.29-22.93.71 4.188.41 15.014.42 19.777l50.98-.015c.02-6.606-.42-16.838.7-22.932"/><path fill="#36424a" d="M1525.12 1.28q24.435-.13 48.87.068c-.06 6.75.28 16.381-.58 22.8-15.09-.595-32.7-.152-47.91-.107-.91-6.229-.49-16.209-.38-22.76"/><path fill="#e28d30" d="M810.138 706.313c-.416-16.097-5.132-79.346 6.435-89.038 28.867-24.188 22.881-26.962 31.47-61.042 1.975-7.836 33.01-20.802 41.765-18.68 7.311 1.198 19.697 5.743 27.45 4.192 11.292-1.895 13.912-18.301 18.819-25.445 24.658-35.89 68.823-21.736 94.973 2.463 10.29 9.519 36.2-12.838 50.74-16.745 43.95-11.816 43.24 15.701 69.44 36.879 5.41 3.662 35.34-6.835 54.51 5.548 29.12 18.815 12.87 33.931 20.49 47.923 8.22 15.104 24.39 13.552 32.06 41.69 1.59 22.267.68 54.858.67 78.018 9.41 4.448 15.27 7.743 24.16 13.014 88.59 50.616 203.29 152.54 136.16 260.521-8.61 13.858-57.04 85.389-68.37 94.709-12.32 14.38-23.69 27.45-37.34 40.57l9.63 5.84c15.61 12.06 21.01 30.21 8.24 46.38-3.71 4.7-10.74 10.41-12.14 15.94 1.53 16.05 30.64 34.32 11.57 58.73-4.9 6.27-11.49 10.26-18.66 13.66l8.89 9.27c9.48 7.78 27.95 28.32 36.26 37.86 35.05 40.26 77.13 88.34 82.1 143.63 3.55 39.6-10.08 76-35.1 106.07-1.72 2.09-3.53 4.12-5.42 6.07 13.79 1.74 27.55 5.29 41.1 8.37 46.3 10.54 91.59 23.85 134.31 44.94 21.95 10.84 50.88 28.88 58.69 53.72 3.32 10.56 2.17 21.42-3.09 31.13-20.93 38.61-94.98 63.05-135.56 75.45-240.09 73.4-624.528 74.97-870.171 17.28-50.976-11.98-103.423-26.02-149.852-50.88-20.194-10.81-48.09-27.31-54.733-51.08-2.985-10.68-.487-21.28 4.931-30.74 25.843-45.1 115.35-72.24 163.804-84.39 25.095-6.29 50.948-10.5 75.838-17.26-21.545-24.45-37.109-63.66-36.088-96.58 1.646-53.07 43.557-105.66 76.292-144.8 9.682-11.58 24.294-29.82 34.937-40.02l4.618-6.58c-19.733-13.71-23.86-44.95-2.568-58.51 6.294-6.11 7.344-7.29 8.915-15.83-5.009-11.43-24.521-21.26-24.099-40.35.266-12.07 5.636-19.32 13.515-27.58l11.891-10.14c-6.453-4.22-22.169-19.89-28.509-26.4-23.443-23.71-47.062-46.65-67.983-72.66-101.039-125.629 43.572-264.009 155.01-315.117"/><path fill="#e28d30" d="M810.138 706.313c-.416-16.097-5.132-79.346 6.435-89.038 28.867-24.188 22.881-26.962 31.47-61.042 1.975-7.836 33.01-20.802 41.765-18.68 7.311 1.198 19.697 5.743 27.45 4.192 11.292-1.895 13.912-18.301 18.819-25.445 24.658-35.89 68.823-21.736 94.973 2.463 10.29 9.519 36.2-12.838 50.74-16.745 43.95-11.816 43.24 15.701 69.44 36.879 5.41 3.662 35.34-6.835 54.51 5.548 29.12 18.815 12.87 33.931 20.49 47.923 8.22 15.104 24.39 13.552 32.06 41.69 1.59 22.267.68 54.858.67 78.018 9.41 4.448 15.27 7.743 24.16 13.014 88.59 50.616 203.29 152.54 136.16 260.521-8.61 13.858-57.04 85.389-68.37 94.709-4.67 1.94-8.77 4.68-13.07 7.32-27.18 16.71-54.73 32.76-84.23 45.09-9.95 4.15-34.86 8.3-30.23-10.71 2.96-12.18 9.22-24.8 13.35-36.9 7.64-22.46 12.92-44.08 17.84-67.25-4.65 10.25-10.25 21.28-15.66 31.17-19.23 35.11-39.56 71.92-67.34 101.07-8.66 8.65-23.08 17.79-35.58 16.82-37.3-2.9-18.09-48.59-14.33-70.54 1.46-8.55 2.74-15.99 3.68-24.75-11.11 24.12-24.7 56.22-39.87 76.95-11.57 15.81-96.934 21.9-112.313 11.33-32.343-22.23-59.897-81.75-74.038-117.89l-2.814-1.51c1.08 4.45 1.973 10.59 2.489 15.23 2.993 26.94 12.081 52.32 16.721 78.79.761 4.34-.352 9.45-2.09 13.42-2.423 5.52-7.111 10.07-12.838 12.05-7.543 2.73-15.872-.23-22.421-3.65-26.335-13.75-86.079-106.33-93.444-131.26l-2.217 2.19c6.2 29.02 12.797 54.76 26.491 81.07 3.553 6.83 9.085 17.43 6.453 24.98-9.62 11.66-50.62-10.94-63.829-12.85-6.453-4.22-22.169-19.89-28.509-26.4-23.443-23.71-47.062-46.65-67.983-72.66-101.039-125.629 43.572-264.009 155.01-315.117"/><path fill="#36424a" d="M1067.45 568.317c2.37-10.649 10.49-47.891 23.99-48.299 11.11 8.804-13.67 40.153-19.76 48.485 12.23 2.896 19 5.538 30.55 10.588 9.76-8.77 28.3-28.902 41.8-24.448l1.16 2.424c-3.35 13.97-25.59 19.639-37.88 23.804 9.47 5.877 26.45 15.49 32.55 24.172 8.46-4.366 47.92-26.698 54.44-24.475 1.66.564 3.25 1.761 4.04 3.361 1.31 2.669.74 4.199.05 6.863-5.6 7.093-44.51 13.452-55.6 15.913 2.6 10.582 9.46 12.398 10.49 32.021 12.35-1.692 65.6-11.511 73.94-5.147 1.88 1.437 1.8 2.663 2 4.791-.91 2.527-3.18 6.354-5.5 6.512-19.05 1.296-51.29-3.834-70.26-5.346-.93 14.049-3.1 20.225-10.04 32.505 9.06 2.748 21.77 5.45 30.42 7.039 30.59 5.619 40.2 2.306 39.56 38.206-.09 4.923.84 13.254 5.44 16.666 2.01.382 3.25.557 5.25-1.101 6.78-5.609 9.9-12.304 10.27-20.938.72-16.647-.47-32.936.75-49.542 14.68-14.023 13.15-12.94 23.18-28.313 1.59 22.267.68 54.858.67 78.018 9.41 4.448 15.27 7.743 24.16 13.014-15.97 3.873-41.69 9.375-35.45 33.531 2.86 11.091 16.26 22.366 22.29 32.162 25.53 37.902 46.72 98.175 46.2 143.913-.31 5.173.8 7.336-1.77 11.624-11.44-51.354-31.46-106.797-77.28-138.139-22.8-15.601-81.43-26.561-99.78 2.306-8.72 13.718 4.54 36.976 1.12 52.32-4.16 25.438-14.98 48.369-27.13 70.683 4.67-25.601 5.5-43.563-10.22-66.128-27.76-39.848-88.03-51.417-127.66-22.744-28.875 20.819-42.76 54.189-51.604 87.457-1.413 5.303-3.648 21.817-4.722 24.808l-2.812.97c-2.649-27.615-1.942-63.63 3.675-90.948 2.481-10.58 7.915-20.512 10.303-31.089 5.822-25.789-18.083-41.413-40.195-45.703-16.057-3.115-34.426-.867-47.855 9.052-44.002 32.5-68.907 95.941-78.753 147.93l-2.605.822c-4.045-73.151 20.552-119.021 61.76-175.045 12.285-16.704-6.519-47.939-11.721-66.57l-.424-1.551c4.569 6.881 10.297 15.163 16.984 18.76 43.128 23.192 29.605-14.238 37.568-32.009 3.814-8.512 52.261-15.302 63.928-17.524-7.917-13.561-9.584-17.742-10.717-33.138-23.061 1.093-46.845 5.678-69.578 4.522-2.92-.148-7.619-6.872-4.703-11.7 5.934-3.902 12.792-3.145 19.537-2.215 18.271 2.519 36.461 4.871 54.81 6.813 1.46-13.195 4.116-18.524 10.62-29.621-13.101-4.046-55.718-9.092-51.347-25.419 9.515-8.742 43.902 16.696 53.402 23.645 13.946-15.017 18.308-17.648 36.248-27.442-8.542-3.542-30.666-9.788-24.237-22.783 9.463-6.616 25.113 13.223 32.379 19.72 9.975-4.088 23.415-6.691 34.139-9.016a206 206 0 0 1-7.43-7.805c-6.416-7.202-22.059-28.309-12.489-36.745 12.799-1.132 22.549 33.999 26.229 43.516 22.16-2.048 31.89-1.012 53.62 2.007"/><path fill="#e28d30" d="M1187.13 697.112c-1.52 19.167-.17 38.882-2.68 57.911-1.77 13.382-7.57 23.438-18.32 31.584-9.73 7.369-20.79 11.862-33.13 9.914-30.53-4.821-15.34-37.723-27.11-51.949-2.55-3.075-5.95-4.434-9.89-4.616-3.93-.182-6.89 1.771-9.69 4.347-8.48 7.785-5.9 22.049-6.58 32.603-.76 11.769-5.55 24.5-14.79 32.144-9.67 8.001-22.72 9.703-34.83 8.183-55.547-6.972-30.718-55.519-46.399-74.184-2.213-2.635-5.175-3.959-8.577-4.215-19.76-1.491-15.843 40.101-29.008 50.411-5.75 4.503-13.602 5.33-20.64 4.573-11.762-1.266-26.551-8.066-33.884-17.489-9.979-12.823-16.925-52.891-14.136-68.401 2.282-12.699 39.019-23.571 50.24-31.624.275-.198.543-.404.814-.606 14.812 13.711 20.85 18.514 39.099 26.71-9.636 3.804-42.768 13.542-46.096 20.598-.083 3.954-.11 3.742 1.55 7.346 5.208 3.908 10.365 1.536 15.46-1.812 11.476-7.541 22.529-16.458 33.373-24.873 21.399 5.406 42.604 11.017 64.944 9.303-1.67 8.072-10.26 49.893 1.92 50.192 2.21-1.218 7.02-4.459 7.03-6.732.06-11.509-4.68-32.568-6.61-43.778 17.19 2.403 48.26-5.324 64.6-10.839 9.96 9.154 29.94 28.535 43.78 31.077 4.06.743 7.27-5.085 6.18-9.79-5.22-7.831-35.79-19.294-45.69-23.471 13.19-6.685 20.94-11.973 31.11-22.622 15.67 5.867 32.67 13.306 47.96 20.105"/><path fill="#e28d30" d="M1017.63 579.277c33.59-5.786 88.91 14.042 103.56 46.116 19.01 41.595-29.41 60.433-47.05 13.457l-.49-1.344c-4.26 16.228-12.83 29.892-27.54 38.603q-1.965.78-3.96 1.44c-26.24 8.436-35.45-15.819-42.02-35.41-4.922 12.993-11.645 25.551-26.16 30.026-14.924 4.601-30.168-10.724-32.323-24.612-4.836-31.183 26.473-55.195 53.145-63.135 8.228-2.483 14.618-3.766 22.838-5.141"/><path fill="#36424a" d="M1022.84 586.164c6.14-.301 31.49-2.11 27.64 13.384-.6 2.421-7.59 4.647-10.07 5.365-6.55.33-13.05 1.031-19.42-.741-13.53-3.756-8.37-13.523 1.85-18.008"/><path fill="#fff" d="M972.666 617.707c13.623 3.757.543 24.595-7.399 30.049-4.552-4.156-7.177-6.508-5.889-13.174a22.8 22.8 0 0 1 10.01-14.767zm19.096-20.894c7.402.217 14.488 1.379 5.987 8.889l-1.386 1.254c-9.902 1.018-13.134-3.205-4.601-10.143"/><path fill="#5c3d1f" d="m914.302 957.853 2.812-.97c-.013 2.487.017 10.145-.352 12.242l-.613.772.257.297-.159.138-.378-.025c-.961-1.273-1.291-10.181-1.567-12.454m401.858-23.157c.98 6.497.83 12.847.96 19.424l-.91.2c-.9-2.734-1.33-5.155-1.82-8 2.57-4.288 1.46-6.451 1.77-11.624m-557.288 13.221 2.605-.822c-.15 1.215-.319 6.825-1.824 7.303-1.203-.782-.794-5.136-.781-6.481"/><path fill="#815124" d="M782.505 1027.29c-.204-1.02-1.266-4.83-.755-5.72 1.257-.32 2.492 2.68 2.972 3.53zm113.8 13.23c-.179-1.38-.472-2.5.03-3.79l.228-.11c1.288.48 2.186 4.33 2.556 5.41zm420.815-86.4c.2.593 1 2.126.19 2.719-1.14-.278-1-1.48-1.1-2.519z"/><path fill="#050201" d="M1180.3 892.235c.99-.029 1.97-.045 2.96-.046 41.17.075 51.25 62.943 6.45 58.626-12.85 18.184-29.68 37.514-44.28 54.555 10.97 8.82 26.14 19.89 29.26 34.52 1.42 6.51-1.98 11.73-8.88 11.52-12.36-.37-20.71-6.83-29.28-14.62-11.28 12.58-29.67 34.18-39.3 47.63-22.98 32.08-33.55 34.36-66.86 52.35-8.39 4.9-16.05 9.35-24.73 13.8 7.21-23.28 13.4-48.19 21.24-71.06 1.98-5.78 16.84-22.37 21.26-27.99 13.96-17.75 29.11-34.85 42.52-53.164-9.26-6.266-28.84-20.236-23.18-33.346 12.26-13.067 37.56 8.786 47.57 16.952 11.73-12.893 35.63-44.074 46.38-53.037-1.32-18.898-1.91-30.233 18.87-36.69"/><path fill="#ea1e1e" d="M1093.21 1000.64c3.67 1.56 15.07 11.36 18.82 14.47-9.18 12.31-64.08 78.01-65.31 83.58l1.28.45c6.1-4.06 58.16-71.17 66.17-81.44l19.5 16.56c-6.04 8.4-13.31 16.77-19.96 24.75a1137 1137 0 0 0-21.37 25.63c-22.23 27.89-19.33 25.5-51.4 42.73a1316 1316 0 0 0-29.95 16.96c3.8-12.09 15.73-60.09 20.82-66.85 18.19-24.13 42.37-53.18 61.4-76.84"/><path fill="#ea1e1e" d="M1071.87 964.195c19.44.028 24.93 6.351 39.37 18.524 15 12.653 65.66 41.741 58.76 64.011l-4.5.52c-18.33 1.95-32.85-20.48-47.43-30.42-3.9-3.46-9.28-7.34-12.92-10.9-9.64-9.427-41.44-24.271-33.28-41.735m106.14-67.955c15.02-1.432 27.61 2.83 34.93 16.453 8.05 14.996 2.3 27.678-11.36 34.812-32.4 5.569-53.53-35.766-23.57-51.265"/><path fill="#050201" d="M1183.9 913.953c12.4-1.057 19.89 7.258 9.72 15.88-12.49 1.273-17.87-5.901-9.72-15.88"/><path fill="#ea1e1e" d="M1187 916.525a5.63 5.63 0 0 1 5.67 1.468 5.62 5.62 0 0 1 1.31 5.71 5.63 5.63 0 0 1-4.46 3.793 5.65 5.65 0 0 1-6.39-4.31 5.645 5.645 0 0 1 3.87-6.661m-60.22 56.019c4 2.048 6.42 6.007 9.83 8.261 6.08 4.021 10.65 7.02 16.42 11.569-3.19 4.124-4.03 5.145-7.82 8.946-9.44-6.87-11.54-10.175-23.21-17.274l-3.16-1.915c2.6-3.162 5.24-6.546 7.94-9.587m24.58-28.959c5.6 1.112 17.56 10.73 23.64 14.43 1.25.744 2.49 1.506 3.71 2.289-2.39 3.116-4.18 5.301-6.81 8.256-.51-.051-.94-.087-1.41-.307-3.43-1.575-23.44-15.65-23.98-18.57-.27-1.491 4.06-5.295 4.85-6.098m-15.82 19.914c9.45 6.717 16 11.32 25.85 17.755-2.15 3.378-3.28 4.973-5.84 8.123-2.19.309-5.83-3.301-7.64-4.771-5.35-4.343-13.23-8.098-16.77-14.06-.64-1.076 3.93-6.435 4.4-7.047m7.45-10.734.25.21c7.43 6.155 18.48 12.308 25.14 19.271.54.567-3.95 5.678-4.39 6.216-6.98-3.548-19.74-11.869-24.76-17.925-.81-.965 3.16-6.84 3.76-7.772m20.26-21.905c5.66 7.671 10.77 14.222 19.72 18.433 3.71 1.746-.89 7.307-3.5 7.323-8.77-5.034-16.59-10.46-24.93-16.171 2.87-3.226 5.77-6.421 8.71-9.585"/><path fill="#fff" d="M692.986 872.259c24.894 2.184 13.23 28.413 11.072 45.494-4.269 33.797 7.834 63.346 25.75 91.277 8.936 13.93-4.779 24.2-18.524 21.27-45.109-35.094-64.17-98.283-33.076-147.426 4.025-6.361 7.635-9.119 14.778-10.615"/><path fill="#36424a" d="M1125.34 1071.64c-.94 8.76-2.22 16.2-3.68 24.75-3.76 21.95-22.97 67.64 14.33 70.54 12.5.97 26.92-8.17 35.58-16.82 27.78-29.15 48.11-65.96 67.34-101.07 5.41-9.89 11.01-20.92 15.66-31.17-4.92 23.17-10.2 44.79-17.84 67.25-4.13 12.1-10.39 24.72-13.35 36.9-4.63 19.01 20.28 14.86 30.23 10.71 29.5-12.33 57.05-28.38 84.23-45.09 4.3-2.64 8.4-5.38 13.07-7.32-12.32 14.38-23.69 27.45-37.34 40.57l9.63 5.84c15.61 12.06 21.01 30.21 8.24 46.38-3.71 4.7-10.74 10.41-12.14 15.94 1.53 16.05 30.64 34.32 11.57 58.73-4.9 6.27-11.49 10.26-18.66 13.66l8.89 9.27c-21.82 7.64-61.04 8.27-75.73 27.55-4.25 5.58 1.52 22.14 3.48 28.46 10.32 28.72 21.76 57.75 28.64 87.6-17.61-32.44-50.93-96.1-88.27-107.05-10.61-3.11-26.39-4.81-36.39.43-4.7 2.46-7.44 6.33-8.75 11.43-7.7 30.09 35.85 149.7 48.97 183.7-32.16-9.8-64.87-22.47-96.8-33.78-21.29 25.87-41.48 50.54-63.29 76.06-3.16-12.94-6.36-26.58-9.11-39.62-18.05-85.75-39.633-.41-50.517 24.69-15.727-21.69-32.384-45.99-48.445-67.03-19.65 5.8-39.501 13.05-58.883 19.77-12.759 4.42-25.125 9.75-38.214 13.07 27.32-54.61 49.901-110.98 80.481-163.97 3.504-6.08 8.499-18.7-2.155-21.55-14.563-3.09-34.768-5.96-48.667.89-32.119 21.33-51.131 65.09-70.875 97.3-6.098 9.95-13.207 22.22-17.844 31.82l-2.101-.82c8.854-24.19 17.764-48.22 25.117-72.89 15.175-50.92-4.71-74.82-52.399-87.29l4.618-6.58c-19.733-13.71-23.86-44.95-2.568-58.51 6.294-6.11 7.344-7.29 8.915-15.83-5.009-11.43-24.521-21.26-24.099-40.35.266-12.07 5.636-19.32 13.515-27.58l11.891-10.14c13.209 1.91 54.209 24.51 63.829 12.85 2.632-7.55-2.9-18.15-6.453-24.98-13.694-26.31-20.291-52.05-26.491-81.07l2.217-2.19c7.365 24.93 67.109 117.51 93.444 131.26 6.549 3.42 14.878 6.38 22.421 3.65 5.727-1.98 10.415-6.53 12.838-12.05 1.738-3.97 2.851-9.08 2.09-13.42-4.64-26.47-13.728-51.85-16.721-78.79-.516-4.64-1.409-10.78-2.489-15.23l2.814 1.51c14.141 36.14 41.695 95.66 74.038 117.89 15.379 10.57 100.743 4.48 112.313-11.33 15.17-20.73 28.76-52.83 39.87-76.95"/><path fill="#e28d30" d="M1323.2 1126.73c15.61 12.06 21.01 30.21 8.24 46.38-3.71 4.7-10.74 10.41-12.14 15.94 1.53 16.05 30.64 34.32 11.57 58.73-4.9 6.27-11.49 10.26-18.66 13.66-68.06 12.38-176.02 42.05-229.63-16.91 43.37 12.71 78.91 20.83 125.14 12.67-.12-.93-.21-1.01.71-1.3l.93-.29-.88-.08c-4.3-.42-4.46-.14-8.41-1.49-2.9-1.13-16.46-1.63-20.87-2.28-28.56-4.18-49.86-6.99-73.68-23.83 19.38-5.88 53.69-9.36 74.91-12.72 45.43-7.19 86.78-15.64 129.67-32.93l-.83-1.8c-45.79 11.37-131.66 23.88-176.43 11.03 17.15-8.89 46.71-17.02 65.61-23.46 25.15-8.57 51.23-16.87 76.53-24.92 9.31-2.96 42.03-11.88 48.22-16.4"/><path fill="#373231" d="M1200.07 1254.04c7.7-.47 16.35-.02 24.04.58-6.63 1.37-9.66 2.22-16.39 2.58-.12-.93-.21-1.01.71-1.3l.93-.29-.88-.08c-4.3-.42-4.46-.14-8.41-1.49"/><path fill="#815124" d="M1309.27 1180.48c1.1-.38 5.16-2.18 6.12-.98-.31 1.03-4.27 2.31-5.29 2.78z"/><path fill="#e28d30" d="M750.313 1198.56c-5.009-11.43-24.521-21.26-24.099-40.35.266-12.07 5.636-19.32 13.515-27.58 39.272 11.94 71.538 24.11 112.921 34.95a1127 1127 0 0 0 50.621 12.31c9.927 2.08 40.033 5.67 46.827 14.27 5.265 6.67-9.727 14.7-15.12 14.09-33.726 2.24-70.593-7.43-102.836-16.43 27.667 19.16 64.481 26.46 97 31.72-2.748 2.76-7.114 7.16-10.483 8.74-44.612 20.96-132.992-2.99-168.346-31.72m-8.915 15.83c49.124 29.05 116.225 32.65 171.183 36.88 2.461.19 4.098 3.25 4.949 5.22-.537 2.87-1.676 4.47-4.224 6.18-32.505 21.8-92.164 16.29-129.799 14.37-11.916-.61-29.391-4.18-39.541-4.14-19.733-13.71-23.86-44.95-2.568-58.51m314.232 66.77c13.19 3.07 21.31 6.02 30.37 17.1 21.99 26.9 31.63 60.8 46.62 91.49 17.42 35.65 34.89 72.14 53.46 107.16-29.38-18.7-64.53-43.25-93.38-60.39-19.95 34.4-39.22 67.34-58.35 102.21-3.85-41.33-4.45-90.22-6.38-132.64l-2.8-56.7c-.57-10.98-1.03-22.56-1.34-33.03-.23-8.01 7.69-12.15 12.6-11.09 21.36 4.58 41.92 65.55 47.03 80.67 1.1-1.26 1.38-1.4 2-2.71-3.4-40.77-14.86-65.7-29.83-102.07"/><path fill="#5c3d1f" d="M1085.46 1383.23c.56 1.65 1.3 5.94.03 7.3-1.38.04-1.88-3.85-2.03-4.59 1.1-1.26 1.38-1.4 2-2.71"/><path fill="#e28d30" d="M831.685 1492.38c35.311-55.63 64.312-118.07 104.682-170.7 6.671-8.69 29.435-32.24 41.272-27.02.419.76.838 1.52 1.256 2.29-1.399 4.77-5.717 14.49-7.641 18.38-10.479 21.18-17.892 39.39-23.665 62.42l1.69.48a253.7 253.7 0 0 1 35.578-60.34c4.366-5.5 23.703-27.94 30.793-21.34.41 8.45-6.89 38.08-9.21 48.56l-19.02 85.92c-6.143 28.81-10.79 60.54-14.726 89.67-15.214-28.6-31.65-56.33-47.898-84.36-26.412 17.95-64.86 39.38-93.111 56.04"/><path fill="#815124" d="m947.589 1377.75 1.69.48c-.339.99-2.466 8.22-3.798 8.15-.908-1.12 1.638-7.57 2.108-8.63"/><path fill="#e28d30" d="M1006.52 1173.2c11.33-1.18 22.15.13 33.4 1.31-21.38 10.17-37.96 17.96-49.808 39.82-10.984 20.28-11.712 39.76-5.294 61.57l-13.592.84c-40.687-1.04-44.329-36.32-25.051-64.35 15.765-22.92 33.449-33.77 60.345-39.19"/><path fill="#e28d30" d="M1068.55 1171.31c13.16-1.02 19.74.82 31.56 5.7-19.27 9.27-34.03 10.12-50.09 28.69-15.99 18.48-17.56 38.25-16.09 61.82l-17.07 3.2c-9.06 1.5-18.107 3.09-27.135 4.78-4.599-56.13 21.705-95.61 78.825-104.19"/><path fill="#e28d30" d="M1106.15 1179.07c3.6.72 16.69 8.11 20.37 10.35l1.64.98c-32.43 19.82-41.13 29.12-58.99 64.2-2.09 4.1-7 5.65-11.24 6.79l-20.27 4.42c.78-3.73 1.79-8.05 2.23-11.82 4.16-35.49 32.62-64.99 66.26-74.92"/><path fill="#36424a" d="M664.207 1560.88c8.167 9.73 15.468 17.64 24.796 26.32 3.498 3.25 9.938 8.33 12.814 11.24l5.107 4.99-1.31.47c-16.485 5.83-34.155 8.87-51.015 13.53-24.205 6.68-75.541 23.05-86.688 47.02-2.62 5.64-2.703 11.79-.349 17.53 8.022 19.56 39.157 33.02 57.492 40.04 177.613 67.98 651.846 69.79 825.046-7.78 14.32-6.42 35.87-17.73 41.44-33.54a21.42 21.42 0 0 0-1.28-17.3c-16.19-30.82-103-48.92-136.21-57.75l6.94-5.72c18.39-14.81 22.14-20.53 37.95-35.59 13.79 1.74 27.55 5.29 41.1 8.37 46.3 10.54 91.59 23.85 134.31 44.94 21.95 10.84 50.88 28.88 58.69 53.72 3.32 10.56 2.17 21.42-3.09 31.13-20.93 38.61-94.98 63.05-135.56 75.45-240.09 73.4-624.528 74.97-870.171 17.28-50.976-11.98-103.423-26.02-149.852-50.88-20.194-10.81-48.09-27.31-54.733-51.08-2.985-10.68-.487-21.28 4.931-30.74 25.843-45.1 115.35-72.24 163.804-84.39 25.095-6.29 50.948-10.5 75.838-17.26"/><path fill="#fff" d="m701.817 1598.44 5.107 4.99-1.31.47c-16.485 5.83-34.155 8.87-51.015 13.53-24.205 6.68-75.541 23.05-86.688 47.02-2.62 5.64-2.703 11.79-.349 17.53 8.022 19.56 39.157 33.02 57.492 40.04 177.613 67.98 651.846 69.79 825.046-7.78 14.32-6.42 35.87-17.73 41.44-33.54a21.42 21.42 0 0 0-1.28-17.3c-16.19-30.82-103-48.92-136.21-57.75l6.94-5.72c127.62 24.46 220.44 87.6 35.52 140.95-46.79 13.5-97.2 21.69-145.62 27.22-176.66 19.96-357.659 18.43-532.902-13.8-33.28-6.12-186.97-36.82-155.453-95.53 17.846-33.24 101.79-51.71 139.282-60.33"/><path fill="#36424a" d="M1297.15 1498.23c.66-4.15.76-7.62 1.68-11.78 17.12 50.59 19.85 92.96 13.77 145.56 13.53-6.34 29.39-17.15 41.45-26.36 33.21 8.83 120.02 26.93 136.21 57.75a21.42 21.42 0 0 1 1.28 17.3c-5.57 15.81-27.12 27.12-41.44 33.54-173.2 77.57-647.433 75.76-825.046 7.78-18.335-7.02-49.47-20.48-57.492-40.04-2.354-5.74-2.271-11.89.349-17.53 11.147-23.97 62.483-40.34 86.688-47.02 16.86-4.66 34.53-7.7 51.015-13.53l1.31-.47c12.431 10.4 29.593 21.32 43.165 30.15-3.592-49.28-1.993-86.57 12.303-133.97l2.608-.56c-.101 60.64 12.039 126.79 55.479 172.38 21.026 22.07 58.552 45.61 86.295 20.61 13.382-12.27 7.828-41.76 8.624-58.64 1.374-29.13 3.478-57.77 9.097-86.45 3.656 2.5 2.178 6.56 3.343 11.61 1.807 58.25 23.918 160.69 97.612 164.27a74.85 74.85 0 0 0 54.6-19.74c39.42-35.99 49.01-114.14 51.1-165.71 9.89 28.17 11.68 62.77 12.87 92.63.49 12.36-3.44 42.3 5.28 50.78 24.83 24.15 66.58 9.5 88.24-11.97 44.43-44.03 57.75-110.11 59.61-170.59"/><path fill="#5c3d1f" d="M927.627 1532.29c.396 7.52.331 18.67.211 26.27-1.165-5.05.313-9.11-3.343-11.61.741-5.18 1.763-9.6 3.132-14.66"/><path fill="#815124" d="m766.63 1439.66 2.101.82c-1.607 4.2-5.155 9.92-7.494 13.85 1.759-5.02 3.395-9.72 5.393-14.67m530.52 58.57c-.09-1.93-.69-13.41.31-14.57.35-.11.14-.09.61.12.64 1.04.54 1.26.76 2.67-.92 4.16-1.02 7.63-1.68 11.78"/><path fill="#5c3d1f" d="M762.392 1499.61c.328-1.1 1.34-6.32 2.843-6.14.622.75-.159 4.8-.235 5.58z"/><path fill="#fff" d="M1301.48 1304.89c12.07 1.65 14.13 8.72 21.64 16.55 11.19 11.66 19.82 25.23-.46 33.7-10.82-1.03-13.6-7.25-20.2-15.02-12.06-14.2-23.45-24.29-.98-35.23m55.54 68.14c15.68-.63 18.61 9.19 28.63 21.26 7.33 8.82 3.55 16.97-5.87 22.52-11.71.57-11.38-2.15-19.4-10.2-11.11-11.16-20.85-23.09-3.36-33.58"/><path fill="#36424a" d="M1634.6 1707.93c1.75 10.96 1.75 39.65-.82 50.28-5.15 21.29-25.92 36.45-43.51 47.4-46.14 28.73-102.08 45.21-154.32 58.57-231.89 59.28-558.755 59.44-791.359 6.09-64.053-14.68-184.79-44.91-221.378-103.28-7.839-15.08-5.444-41.67-5.243-59.6 8.919 13.83 19.917 24.17 33.488 33.47 47.278 32.4 107.773 48.72 162.809 61.95 220.677 53.03 525.143 57.85 748.333 15.88 73.45-13.81 195.39-38.12 252.75-88.23 7.7-6.72 13.5-14.11 19.25-22.53M1766.77 99.01l199.3-.145-.11 133.105-198.99.065z"/><path fill="#fff" d="M1860.89 131.173c4.6-.411 10.38-1.502 14.39 1.504 4.2 3.156 5.41 7.326 6.12 12.323.79 5.593 1.31 66.674.28 67.664-1.1 1.064-5.03.515-6.43.497l-23.11.03-.02-45.616c.02-15.189-3.68-26.784 8.77-36.402"/><path fill="#36424a" d="M929.919 99.022c65.517-.795 132.251.006 197.921-.279.63 43.838.05 89.378-.07 133.319l-198.603-.098c-.081-41.468-1.422-92.221.752-132.942"/><path fill="#fff" d="M1025.72 130.249c22.34.874 17.02 19.888 16.99 37.917l.06 45.037q-6.135.058-12.27.022c-5.72.008-11.45-.024-17.17-.096-.28-17.616-.03-35.341-.04-52.967 0-12.961-2.26-25.128 12.43-29.913"/><path fill="#36424a" d="m1344.03 99 198.69-.111.22 133.154-198.73-.093q.255-66.475-.18-132.95"/><path fill="#fff" d="M1438.11 130.018c5.22-.181 10.07-.283 14.27 3.3 4.11 3.507 5.12 8.528 5.4 13.677.34 6.232.77 64.026-1.03 65.555-1.23 1.051-5 .515-6.5.506l-21.9-.037-.03-45.019c-.02-9.083-.5-18.535.66-27.527.7-5.408 5.17-7.75 9.13-10.455"/><path fill="#36424a" d="m506.591 98.922 198.201.099.064 132.922c-64.526 1.255-133.339-.003-198.221-.025z"/><path fill="#fff" d="M600.866 130.011c5.275.089 10.514.316 14.567 4.185 3.396 3.241 4.42 7.758 4.58 12.297.232 6.575.473 65.2-.616 66-1.804 1.324-7.628.518-9.897.512l-18.919-.026c-.308-18.144-1.386-58.005.56-74.15 3.809-4.593 4.565-5.735 9.725-8.818"/><path fill="#36424a" d="m82.249 98.813 196.723.004-.04 133.262-196.313-.049q-.66-66.607-.37-133.217"/><path fill="#fff" d="M172.135 131.129c5.118-.463 11.291-1.234 15.674 2.118 4.08 3.121 5.206 6.854 5.91 11.752.858 5.971.976 66.018-.455 67.486-1.001 1.027-3.848.667-5.014.661l-24.464-.044-.015-43.223c-.07-14.555-3.825-29.569 8.364-38.75"/><path fill="#36424a" d="M1735.77 239.099c85.31 1.354 171.98-1.046 257.65.315-3.02 34.887-14.27 57.435-37.35 82.918-23.35 22.501-49.76 35.469-82.51 37.58a127.45 127.45 0 0 1-93.21-31.54c-25.11-22.379-42.63-55.512-44.58-89.273m-1685.208.134 257.962-.007c-2.416 32.1-16.312 60.19-38.248 83.331-22.646 22.036-46.432 34.312-78.315 37.033a127.23 127.23 0 0 1-95.137-30.292c-27.408-23.342-43.575-54.068-46.262-90.065m424.519-.059 258.375.01c-2.642 31.894-16.238 59.946-37.907 83.176-48.076 46.339-117.842 51.933-170.415 9.389a135.9 135.9 0 0 1-50.053-92.575m837.509-.106 259.27.082c-4.23 33.844-14.65 57.573-37.62 82.36a127.34 127.34 0 0 1-70.14 36.958c-51.35 8.318-97.88-12.465-127.31-55.033-14.82-21.443-20.12-38.947-24.2-64.367m-413.886-.003 258.066.074c-3.95 34.543-13.4 57.145-37.49 82.246-20.63 20.765-43.83 33.34-73.13 37.557a127.27 127.27 0 0 1-95.108-24.998c-31.366-23.928-47.294-56.433-52.338-94.879M1109.88.772l47.16-.224c-.04 5.745.29 18.609-.44 23.538.01.931.03 1.863.07 2.794 2.71.03 3.08-.246 5.4.98 2.12 3.82 1.15 9.678 1.02 14.516-24.32 6.274-26.82 28.222-28.04 49.198-20.43-.462-42.49.076-63.07.038l-149.94.139c-1.282-24.459-3.889-39.665-29.132-49.676q-.13-7.04.193-14.074l1.241-.84c.97-.868 2.256-1.777 2.924-2.878-.472-7.714-.302-15.758-.303-23.525q25.91.444 51.82.15c-.045 7.733.054 15.531-.182 23.25 2.283 3.428 20.869.94 27.381 2.1l-.083 18.453 17.371.105.016-17.854 71.484.051-.18 17.988 17.55-.045-.08-17.9c8.81.076 18.65-.065 27.37.278l.24-2.824c-1.41-7.46-.24-16.024.21-23.738"/><path fill="#36424a" d="M896.963.758q25.91.444 51.82.15c-.045 7.733.054 15.531-.182 23.25-4.583-1.178-46.748-1.193-51.335.125-.472-7.714-.302-15.758-.303-23.525m212.917.014 47.16-.224c-.04 5.745.29 18.609-.44 23.538-7.56-.161-41.21-.561-46.93.424-1.41-7.46-.24-16.024.21-23.738"/><path fill="#ebeaeb" d="M897.266 24.283c4.587-1.318 46.752-1.303 51.335-.125 2.283 3.428 20.869.94 27.381 2.1-20.788 2.985-60.188-1.176-81.64.903.97-.868 2.256-1.777 2.924-2.878m212.404.227c5.72-.985 39.37-.585 46.93-.424.01.931.03 1.863.07 2.794-8.45 1.093-37.95.852-47.24.454z"/><path fill="#36424a" d="M473.359 2.445C475.622-.697 518.228.671 524.856.701c-.109 7.593.073 15.565-.38 23.086l.673 3.302 27.755-.143-.072 18.04 17.578.02-.077-18.2q34.842.403 69.686.291L639.997 45l19.256.061.085-17.981c9.253.065 19.707-.11 28.857.265l-.358-3.27c-2.363-4.667-1.509-16.868-1.584-22.93 16.079.18 31.757-.066 47.739-.002-.012 7.322-.272 15.805.242 22.954l-.144 3.124c4.357.27 4.287-.072 6.61 2.34 1.222 3.869.069 8.033-.59 12.144-23.886 10.466-27.735 25.747-27.732 49.529q-106.692.742-213.383.275c-.57-25.123-4.134-39.697-28.98-49.17-.154-5.803-.272-9.14.403-15.014 1.22-1.056 2.96-2.007 2.772-3.764-.717-6.7-1.046-14.496.169-21.115"/><path fill="#36424a" d="M473.359 2.445C475.622-.697 518.228.671 524.856.701c-.109 7.593.073 15.565-.38 23.086l.673 3.302c-15.84.3-40.265-.777-54.731.235 1.22-1.056 2.96-2.007 2.772-3.764-.717-6.7-1.046-14.496.169-21.115"/><path fill="#ebeaeb" d="M470.418 27.324c1.22-1.056 2.96-2.007 2.772-3.764-.717-6.7-1.046-14.496.169-21.115.568 7.146.424 14.253.682 21.477 11.003.08 41.242.787 50.435-.135l.673 3.302c-15.84.3-40.265-.777-54.731.235"/><path fill="#36424a" d="M686.253 1.144c16.079.18 31.757-.066 47.739-.002-.012 7.322-.272 15.805.242 22.954l-.144 3.124c-9.712 1.092-35.355.31-45.895.124l-.358-3.27c-2.363-4.667-1.509-16.868-1.584-22.93"/><path fill="#ebeaeb" d="M687.837 24.075c13.773-.56 32.409-.26 46.397.021l-.144 3.124c-9.712 1.092-35.355.31-45.895.124z"/><path fill="#36424a" d="M1946.9 26.984c-.54-.878-.58-.685-.58-1.442.66-.556.08-20.146.79-23.867q24.84-.212 49.68-.076c-.08 7.347-.04 14.695.14 22.04 1.62 1.893 1.73 1.992 3.6 3.532.54 4.102.28 10.906.26 15.265-25.96 9.742-26.37 25.305-27.86 49.572-71.35-.446-142.71-.367-214.06.235-.15-24.348-3.46-41.557-29.03-49.646l.08-15.614c26.94.846 56.14.266 83.15.131l.09 17.3c5.75.503 13.18.383 19.08.435.13-5.825.01-12.022-.02-17.88 23.03.35 46.71.123 69.78.156l-.01 17.84 17.21.034.11-18.011z"/><path fill="#36424a" d="M1946.9 26.984c-.54-.878-.58-.685-.58-1.442.66-.556.08-20.146.79-23.867q24.84-.212 49.68-.076c-.08 7.347-.04 14.695.14 22.04 1.62 1.893 1.73 1.992 3.6 3.532-15.6-.989-37.39-.006-53.63-.187"/><path fill="#ebeaeb" d="M1946.9 26.984c-.54-.878-.58-.685-.58-1.442.66-.556.08-20.146.79-23.867.89 6.493.49 15.22.54 22.053 10.73.01 40.21.779 49.28-.09 1.62 1.894 1.73 1.992 3.6 3.533-15.6-.989-37.39-.006-53.63-.187"/><path fill="#36424a" d="M100.423.97c2.165 3.88.709 21.02-.5 26.106l28.373-.085.007 18.21 18.135.118.173-18.588c22.64.756 47.59.425 70.248.218l.076 18.025 17.359.059-.247-18.19q40.492.583 80.986.203l-.048 15.813c-24.308 6.472-28.014 27.34-28.381 48.996l-212.909-.423c-1.291-23.71-2.846-40.732-28.64-49.25-.194-5.425-2.519-10.621.87-14.96l4.51-.489-.915-2.685c-1.321-6.03-.742-16.69-.713-23.209 17.194.462 34.41-.075 51.616.13"/><path fill="#36424a" d="M100.423.97c2.165 3.88.709 21.02-.5 26.106-8.332.12-43.115.693-49.488-.343l-.915-2.685c-1.321-6.03-.742-16.69-.713-23.209 17.194.462 34.41-.075 51.616.13"/><path fill="#ebeaeb" d="M100.423.97c2.165 3.88.709 21.02-.5 26.106-8.332.12-43.115.693-49.488-.343l-.915-2.685 50.525-.108c.069-6.044-.269-17.618.378-22.97"/><path fill="#36424a" d="M962.069 1915.79c42.801.81 85.611.78 128.401-.09-1.44 21.5-10.16 46.6-20.74 65.34-4.86 7.85-9.81 14.16-15.4 21.45-18.4.33-36.8.21-55.189-.35-25.946-27.98-33.259-48.1-37.072-86.35m233.561-6.38c2.93-.57 9.18-.61 12.39-.75-5.26 29.22-17.5 53.62-37.94 75.41-4.17 4.45-9.61 8.24-14.22 12.33-8.59 1.23-16.45 2.15-25.1 2.86-5.61.57-10.02.71-15.61.88 25.83-27.66 33.87-50.7 39.52-87.64 13.59-1 27.41-1.66 40.96-3.09"/><path fill="#36424a" d="M1137.33 1913.42c3.54-.31 6.92-.33 10.46-.39-4.14 27.59-12.04 51.62-30.11 73.35-4.14 4.97-9.03 9.52-13.42 14.46-9.29.32-18.12 1.04-27.42 1.24-4.45.09-8.89.27-13.33.53 19.43-24.92 31.27-55.92 33.64-87.45 13.41-.17 26.81-.75 40.18-1.74m-347.415-10.81c17.122 1.09 34.459 3.54 51.789 4.83 3.615 35.91 20.6 63.79 45.845 88.55-7.914-1.14-40.676-3.93-45.731-7.72-27.545-20.68-43.932-52.79-51.903-85.66m115.568 10.38c16.663.77 32.508 1.91 49.413 2.52 2.022 35.7 12.552 58.49 33.942 86.15-12.314-.16-27.304-.61-39.525-1.37-27.372-24.73-39.972-50.23-43.83-87.3"/><path fill="#36424a" d="M848.65 1908.7c16.782.93 32.801 2.87 49.907 3.57 2.395 25.88 10.576 49.81 25.552 71.14 4.254 6.06 9.18 10.63 13.656 16.26-13.418-.72-25.417-1.99-38.632-3.01-25.532-22.63-42.38-45.74-49.045-80.17zm471.55-13.3c.11-.01 2.6-.36 2.32.53-10.86 35.04-33.74 62.6-60.61 86.59-13.51 2.57-24.78 4.68-38.59 5.99-.79.21-1.91.69-2.49-.1.11-.81.68-1.32 1.29-1.89 27.38-25.6 40.29-48.91 49.91-84.64 15.92-2.39 32.19-4.41 48.17-6.48"/><path fill="#36424a" d="M1259.53 1903.42c.39-.08 5.44-1.03 5.02.56-8.44 32.06-25.3 58.51-50.63 79.87-13 10.96-23.17 10.24-40.16 11.35-1.5.03-2.93.32-4.3.32-.21-.19-.11-.04-.2-.59.28-.52.22-.41.75-.89 15.08-13.42 25.42-30.28 33.95-48.35 6.26-13.27 8.65-23.15 11.37-37.45 14.28-1.92 29.73-3.17 44.2-4.82m126.48-19.98c.19 5.62-9.3 20.88-13.03 26.64-16.07 24.78-40.59 47.33-65.85 62.54-4.87 2.93-24.37 6.33-30.41 7.57.25-2.63 2.04-3.72 3.97-5.68 23.11-23.38 40.42-49.6 50.2-81.06 18.34-3.52 36.71-6.85 55.12-10.01m-653.377 11.08c7.987.86 15.956 1.98 23.873 3.36l6.499.93c6.809.93 12.241 1.92 19.18 2.46a157.5 157.5 0 0 0 47.708 86.65c-1.791-.27-3.587-.5-5.387-.71-4.952-.53-28.551-3.19-31.481-5.04-28.4-17.86-50.945-59.63-60.392-87.65m-123.154-25.21c19.398 4.65 38.096 9.33 57.678 13.2 10.882 25.51 21.948 46.28 41.729 66.47 6.497 6.63 14.316 12.13 20.723 18.66l.609.63c-40.852-10.45-76.427-39.45-103.226-71.12-5.157-6.1-15.688-20.16-17.513-27.84"/><path fill="#36424a" d="M675.643 1884.04q24.49 4.425 48.861 9.45c15.516 42.35 23.371 54.5 55.085 86.78-50.481-6.58-85.066-52.57-103.946-96.23m-126.381-32.64c15.441 5.83 34.736 11.22 50.594 15.85 18.486 34.81 48.583 69.67 83.801 87.87-6.919-.32-16.656-4.28-23.219-6.83-46.644-18.12-90.681-49.82-111.176-96.89m899.558 16.9.78 1.09c-22.33 45.13-70.97 81.77-118.25 96.93l-.53-.46c.19-1.28 24.85-22.84 27.61-25.75a169.7 169.7 0 0 0 36.77-58.62c16.52-4.61 36.83-9.31 53.62-13.19"/><path fill="#36424a" d="M1505.87 1851.19c-.81 4.88-6.45 14.03-9.24 18.32-24.3 37.29-75.61 76.08-119.68 84.82.73-2.13 15.15-10.59 18.33-12.9 28.85-20.87 47.22-44.93 64.64-75.81zM1417.89.938c17.56.332 35.4-.33 53.11-.033l-.07 22.882c-17.75-.175-35.49-.15-53.24.077.12-7.642.18-15.284.2-22.926m-839.67.291 53.668.046.011 22.616q-26.846-.225-53.693-.139zM1840.04.764c15.76.561 36.13.193 52.28.267l.04 22.827c-17.43-.086-34.87-.06-52.3.076zM1002.55.565c16.76.678 35.7.171 52.64.171-.07 7.575.05 15.323-.16 22.863q-26.16-.22-52.32-.073zM154.727.963c17.473.399 35.009.082 52.453.152q-.174 11.34-.108 22.68a3450 3450 0 0 0-52.242-.135q-.133-11.348-.103-22.697M1734.49.992l51.58.093c.02 4.11.47 19.201-.42 22.568q-25.575-.257-51.15.065zm-1473.45.201 48.097-.146-.067 22.928q-24.045-.165-48.089-.014c-.027-7.46-.161-15.344.059-22.768"/><metadata><recraft-signature>{&quot;signed_by&quot;: &quot;recraft&quot;, &quot;signature_b64&quot;: &quot;muMmlKjOt5Rnjb1MFxDg5qz8W8w2n8IhR8OKbk2e3aG4BDlszrWvjbzJHj6nmYhnxPQ2V2mmu2j/Ze91b0fOBg==&quot;, &quot;signing_algo&quot;: &quot;Ed25519&quot;, &quot;generation_timestamp&quot;: 1777252654, &quot;identifier&quot;: &quot;a13ed640-35e4-4ad6-9baf-0d9cafea8816&quot;}</recraft-signature></metadata></svg>