<svg xmlns="http://www.w3.org/2000/svg" width="1024" height="1024" preserveAspectRatio="none" style="display:block" viewBox="0 0 2048 2048"><defs><linearGradient id="g" x1="853.127" x2="893.242" y1="1755.36" y2="1790.95" gradientUnits="userSpaceOnUse"><stop class="stop0" offset="0"/><stop class="stop1" offset="1" stop-color="#222a37"/></linearGradient><linearGradient id="f" x1="869.114" x2="808.568" y1="1808.04" y2="1755.45" gradientUnits="userSpaceOnUse"><stop class="stop0" offset="0" stop-color="#121416"/><stop class="stop1" offset="1" stop-color="#1c2431"/></linearGradient><linearGradient id="e" x1="820.656" x2="792.899" y1="1552.21" y2="1609.35" gradientUnits="userSpaceOnUse"><stop class="stop0" offset="0"/><stop class="stop1" offset="1" stop-color="#1e2835"/></linearGradient><linearGradient id="d" x1="1223.26" x2="1245.96" y1="1570.13" y2="1614.59" gradientUnits="userSpaceOnUse"><stop class="stop0" offset="0" stop-color="#030303"/><stop class="stop1" offset="1" stop-color="#212936"/></linearGradient><linearGradient id="c" x1="1340.72" x2="1329.19" y1="512.617" y2="531.216" gradientUnits="userSpaceOnUse"><stop class="stop0" offset="0"/><stop class="stop1" offset="1" stop-color="#242d3a"/></linearGradient><linearGradient id="b" x1="701.911" x2="712.313" y1="520.562" y2="536.525" gradientUnits="userSpaceOnUse"><stop class="stop0" offset="0" stop-color="#070707"/><stop class="stop1" offset="1" stop-color="#222a35"/></linearGradient><linearGradient id="a" x1="815.519" x2="843.818" y1="1446.86" y2="1144.92" gradientUnits="userSpaceOnUse"><stop class="stop0" offset="0" stop-color="#0e0e0f"/><stop class="stop1" offset="1" stop-color="#1d2737"/></linearGradient></defs><path fill="#4c5567" d="M1925.86 835.889c8.92-1.059 102.44-.559 106.48.729 6.9 1.384 9.9 3.883 13.88 9.889.62.952 1.22 1.924 1.78 2.913V1101l-1.46.29c-4.11 5.73-6.19 6.91-12.55 9.07-5.35 1.76-102.69 2.27-110.38.86-8.65-1.44-13.84-6.03-16.77-14.07-1.65-7.42-1.27-39.19-1.29-49l.07-104.631-.19-54.793c-.07-8.967-.65-24.594.43-33.07.59-11.416 8.59-19.322 20-19.767"/><path fill="#090707" d="M2032.34 836.618c6.9 1.384 9.9 3.883 13.88 9.889.62.952 1.22 1.924 1.78 2.913V1101l-1.46.29-1.43-2.92c1.03-3.79 1.22-9.08 1.21-13.05-.21-66.67-.43-133.345.02-200.017.08-11.317.47-23.024-.75-34.253-.8-7.401-10.14-9.883-13.25-14.432m-126.48 19.038c.59-11.416 8.59-19.322 20-19.767 6.81.676 13.04.363 19.79.625-8.75.084-20.54.004-28.05 3.952l-1.2.624c-2.71 2.065-2.89 2.133-4.94 4.816-4.2 6.56-3.85 13.194-5.02 21.127l.06 2.938-.02-1.802c-.03-4.62-.17-7.927-.62-12.513m.98 241.494c.08-.84.27-5.97.58-6.4.77 4.19 1.72 6.82 3.95 10.37.47.76.42.66 1.1 1.46l2.19 2c.64.64.45.48 1.3 1.1 8.62 5.02 7.75 2.35 17.66 4.05.54.09 1.09.18 1.63.28l.89.27c-.15.19-10.97.78-12.53.94-8.65-1.44-13.84-6.03-16.77-14.07"/><path fill="#1a222e" d="m2045.11 1098.37 1.43 2.92c-4.11 5.73-6.19 6.91-12.55 9.07-.16-.49-.49-1-.31-1.44 6.79-4.07 7.17-4.64 11.43-10.55"/><path fill="#323c47" d="M1911.46 845.906c2.05-2.683 2.23-2.751 4.94-4.816-2.11 2.689-2.17 2.966-4.94 4.816"/><path fill="#090707" d="M1929.72 892.439c33.64-.021 68.16-1.769 101.68.698 4.01 2.845 7.89 6.532 9.26 11.406 1.82 6.463 1.15 115.837.23 130.547-.19 3.03-.47 5.63-2.01 8.29-2.7 4.69-6.66 7.2-11.79 8.57-34.64.28-69.66-.35-104.31-1.05-3.74-3.04-8.42-6.98-9.42-11.92-2.24-11.09-.64-37.98-.68-50.443l-.13-50.691c-.02-10.107-.69-20.823.57-30.84.33-2.643 1.68-5.481 3.18-7.673 3.26-4.764 8.01-6.081 13.42-6.894"/><path fill="#4c5567" d="m1925.88 895.247 62.55-.024c12.96-.003 27.95-1.558 40.51 1.37 2.88.671 5.92 1.609 7.27 4.446 1.9 3.953 2.25 10.067 2.48 14.492.73 13.802.22 120.929-1.29 125.799-1.2 3.9-5.64 5.95-9.03 7.47-18.07.68-36.44-.26-54.53-.33-15.38-.07-33.59 1.69-48.64-1.23-3.94-.77-6.24-2.62-8.24-6.08-1.28-2.22-1.55-4.09-1.74-6.61-1.22-15.86-1.85-119.454 1.1-130.168 1.31-4.733 5.56-6.993 9.56-9.135"/><path fill="#090707" d="M1913.95 1060.75c13.77-.62 27.82.01 41.62.09 28.13.27 56.27.31 84.4.13.03 8.62.01 17.24-.08 25.85-40.27.85-85.73 1.61-125.87-.29z"/><path fill="#4c5567" d="m1917.2 1063.45 80.41.28c12.45-.02 27.16-1.62 39.37.44 1.53 2.94.97 5.67.68 8.83l-77.92-.07c-13.67.01-28.5 1.19-42.04-.61l-1.29-1.74c-.16-2.79-.17-4.44.79-7.13m-1.12 12.36c19.89-1.32 40.59-.14 60.55-.16 19.76-.03 40.44-1.44 60.07.41 1.76 2.22 1.37 5.19 1.43 7.89-21.68 1.36-43.98.34-65.72.35-17.88 0-36.73 1.23-54.5-.48-2.07-2.61-1.63-4.74-1.83-8.01"/><path fill="#090707" d="M1931.14 858.482c19.02.115 38.05.094 57.08-.063 16.94-.159 35.41-.997 52.04 1.377-1.11 8.766 1.04 17.28-3.59 22.978-3.26 2.165-6.9 1.718-10.9 1.777-20.93.345-42.49-.011-63.48.087-14.9.07-33.94.548-48.33-.737l.29-25.315z"/><path fill="#4c5567" d="M1917.11 872.249c31.29-.577 62.94.533 94.26.1 7.19-.1 17.59-.419 24.48.448 1.73 2.569 1.13 5.519 1.02 8.801-21.7 1.515-50.69-.493-73.11.433-6.61.273-42.05.403-46.17-.443-1.51-2.504-.72-6.165-.48-9.339m99.16-10.737c5.78-.099 14.32-.852 19.49.712 1.9 2.431 1.26 1.809.96 5.909-4.31 3.671-89.24 1.757-100.96 1.746-3.87.016-15.59.596-18.28-.988-.2-3.082-.62-3.957.89-6.582 7.16-1.216 24.96-.684 33.11-.695z"/><path fill="#323c47" d="M0 859.881c2.073 3.358 6.368 9.616 6.582 13.26.85 14.443.616 29.888.661 44.377l-.03 88.492c-.18 33.78 1.102 76.14-2.29 109.66-.28 2.76-3.287 7.26-4.923 9.63z"/><path fill="url(#a)" d="M627.051 1153.15c-.04-3.47-.604-6.83 1.197-9.55 8.917-1.46 58.43-.48 69.724-.45l153.561-.07 573.687.04c.04 6.6.17 13.41.08 19.98l-27.51.05c-.11 7.4-.03 15.84-.41 23.14-15.17-.19-30.34-.27-45.51-.21l.24 36.95-68.88.13c-9.99.02-29.54.55-38.96-.47.75 12.22 10.29 42.32 14.06 55.62l-2.38 2.43c-20.96-6.75-41.71-16.86-62.51-23.23l-4.06-1.55c-4.79-5.7-14.59-26.35-17.34-33.62-4.57 1.42-41.47.76-48.59.76l-98.72-.14c-5.19.73-36.495.28-43.572.28l-99.756-.02c-20.662 40.94-45.222 83.61-67.035 124.32l-23.991 44.91c-4.944 9.26-11.191 22.42-17.652 30.27-14.644 17.78-46.65 21.65-66.461 11.63-28.319-14.32-28.891-61.73 3.855-70.3 7.148-1.87 16.407-.57 22.702 3.39a20 20 0 0 1 9.037 12.68 19.92 19.92 0 0 1-3.062 15.55c-6.064 8.91-17.025 12.83-26.183 5.77-4.252 7.02 11.243 12.91 15.748 14.37 5.903 2.7 19.252-2.24 23.162-7.37 12.478-16.37 19.494-49.06 25.091-68.56l32.62-115.79c-36.375.02-72.75-.16-109.124-.53l.041-38c-14.417-.8-30.679-.08-45.142.34l-.037-22.72-13.202-.24c-4.045.52-10.197 1.27-13.624-.72-2.173-3.92-1.33-3.75-1.094-9.07"/><path fill="#4c5567" d="M627.051 1153.15c-.04-3.47-.604-6.83 1.197-9.55 8.917-1.46 58.43-.48 69.724-.45l153.561-.07 573.687.04c.04 6.6.17 13.41.08 19.98l-27.51.05c-.11 7.4-.03 15.84-.41 23.14-15.17-.19-30.34-.27-45.51-.21l.24 36.95-68.88.13c-9.99.02-29.54.55-38.96-.47l.4-.9c11.06-1.45 32.42.77 41.92-1.56 20.88-.24 41.76-.29 62.64-.14.17-11.19-.16-22.86-.31-34.09-33.29.16-70.65 1.18-103.62.21-14.22-1.43-43.76-.52-59.21-.51l-113.93.11c-6.84.01-40.88.64-45.97-1.12-.37-6.13-.16-14.71-.18-21.03l13.02-.31c-10.8-4.01-33.43-1.94-46.69-2.59-30.933.19-342.977-1.53-350.571 2.18-4.045.52-10.197 1.27-13.624-.72-2.173-3.92-1.33-3.75-1.094-9.07"/><path fill="#fdfdfc" d="M1039.03 1163.35c117.95.01 238.01-1.53 355.66-.32l-.14 20.38c-86.33-.99-175.15.53-261.77.52l-68.67-.16c-7.07-.02-32.11-.53-37.92.92-.37-6.13-.16-14.71-.18-21.03z"/><path fill="#090707" d="M627.051 1153.15c-.04-3.47-.604-6.83 1.197-9.55 8.917-1.46 58.43-.48 69.724-.45l153.561-.07 573.687.04c.04 6.6.17 13.41.08 19.98l-27.51.05c-.11 7.4-.03 15.84-.41 23.14-15.17-.19-30.34-.27-45.51-.21l.24 36.95-68.88.13c-9.99.02-29.54.55-38.96-.47l.4-.9c11.06-1.45 32.42.77 41.92-1.56 20.88-.24 41.76-.29 62.64-.14.17-11.19-.16-22.86-.31-34.09-33.29.16-70.65 1.18-103.62.21-14.22-1.43-43.76-.52-59.21-.51l-113.93.11c-6.84.01-40.88.64-45.97-1.12 5.81-1.45 30.85-.94 37.92-.92l68.67.16c86.62.01 175.44-1.51 261.77-.52l.14-20.38c-117.65-1.21-237.71.33-355.66.32-10.8-4.01-33.43-1.94-46.69-2.59 2.668-.61 26.66-.37 31.13-.36l77.78.14 321.37-.16.2-14.65c-50.31.53-101.51-.03-151.91.06l-401.91.08-161.282-.12c-24.585.03-52.786-.71-76.872.18-3.104 2.34-2.326 2.61-3.795 7.22"/><path fill="#fdfdfc" d="M1245.3 1186.21c32.97.97 70.33-.05 103.62-.21.15 11.23.48 22.9.31 34.09-20.88-.15-41.76-.1-62.64.14-9.5 2.33-30.86.11-41.92 1.56l-.4.9c.75 12.22 10.29 42.32 14.06 55.62l-2.38 2.43c-20.96-6.75-41.71-16.86-62.51-23.23l-4.06-1.55c-4.79-5.7-14.59-26.35-17.34-33.62-4.57 1.42-41.47.76-48.59.76l-98.72-.14c2.35-1.68 6.52-1.84 9.59-2.23-2.97-.2-4.55-.42-7.43-.88-2.15-3.46-1.08-27.55-1-33.14 50.81-1.53 104.83.73 155.96-.04 20.83-.31 42.68.62 63.45-.46"/><path fill="#1a222e" d="M1133.43 1220.31c48.11-.29 105.77-1.78 153.16-.08-9.5 2.33-30.86.11-41.92 1.56l-.4.9c.75 12.22 10.29 42.32 14.06 55.62l-2.38 2.43c-20.96-6.75-41.71-16.86-62.51-23.23l-4.06-1.55c-4.79-5.7-14.59-26.35-17.34-33.62l.06-.12c-.82-1.31-33.55-.69-38.67-1.91"/><path fill="#090707" d="M1034.32 1220.73c8.42-1.09 33.55-.8 43.19-.59 17.79.4 38.47-.57 55.92.17 5.12 1.22 37.85.6 38.67 1.91l-.06.12c-4.57 1.42-41.47.76-48.59.76l-98.72-.14c2.35-1.68 6.52-1.84 9.59-2.23"/><path fill="#4f352d" d="M1175.21 1198.5c8.84-.4 93.35-.93 94.4.17.52.54.18 2.01.15 2.45-9.36.31-92.43 1.14-94.12-.45-.44-.42-.4-1.78-.43-2.17m-105.27-.09c8.39-.5 70.29-1.47 75.51-.29.59.13 1.05.38 1.3.96.08.2.15.41.22.61.12.3.24.59.36.89-6.85.74-73.38 1.65-76.32.24a1.29 1.29 0 0 1-.72-.87c-.06-.2-.09-.42-.13-.62-.07-.31-.15-.61-.22-.92"/><path fill="#fdfdfc" d="M856.966 1259.06c-.383 6.25-72.899 139.99-81.573 154.22-7.374 12.09-16.495 18.75-30.386 22.02-13.341 3.13-29.04 1.86-40.626-5.8-8.49-5.61-13.52-14.31-15.352-24.23-1.725-9.34-.181-19.7 5.371-27.56 5.746-8.14 13.88-10.59 23.174-12.08 3.678.56 7.38 1.31 10.789 2.86 4.813 2.19 8.676 6.26 10.245 11.35 1.138 3.69 1.351 8.23-.595 11.67-1.957 3.47-8.252 9.42-12.339 9.95-2.735.35-2.255-12.45-6.037-16.02-2.488-.52-5.235-.24-7.467 1.11-2.314 1.4-3.183 3.76-3.998 6.2-1.582 4.75-.858 9.38 1.541 13.73 3.085 5.59 8.706 9.87 14.801 11.66 7.549 2.21 15.587 1.09 22.415-2.74a31.25 31.25 0 0 0 12.287-12.5c7.521-13.91 11.142-30.7 15.585-45.84 7.279-25.02 14.393-50.1 21.341-75.22 19.152-9.17 40.816-15.42 60.824-22.78"/><path fill="#bdbabf" d="M829.616 1180.44c17.491-.85 162.599-1.64 171.654 1.02l.29 1.71-126.212-.24c-9.843-.01-37.368 1.65-45.733-.59zm91.794 26c12.441-.38 67.208-1.96 77.109.29.464.11 1.274.4 1.445.92.096.28.046.49-.082.74-.319.64-1.135.71-1.73.86l-65.151-.3c-2.28-.02-11.823.79-13.132-.9-.18-.23-.208-.42-.17-.7.397-.51 1.134-.69 1.711-.91"/><path fill="#fdfdfc" d="M752.988 1208.53c11.87-1.26 98.589-2.09 105.163.96-11.835 1.4-98.694 2.27-105.163-.96"/><path fill="#4c5567" d="M952.089 990.664c-.506-16.099-2.269-136.684 1.519-146.012 1.98-4.874 6.779-9.801 11.731-11.669 3.74-1.411 7.972-1.758 11.947-1.903 14.169-.519 28.524.54 42.734.426 18.27-.147 37.43-1.608 55.61-.187 4.8.376 9.61 1.423 13.96 3.565 5.38 2.651 7.82 6.445 9.82 11.921 1.25 5.402.76 37.023.56 44.564.26 22.71 1.88 197.791-1.3 205.751-5.86 12.61-15.49 13.26-27.87 13.07-13.08-.21-26.24.07-39.34-.27-6.98.96-56.673.76-61.658-.54-21.171-3.19-17.854-23.64-17.65-40.4-.628-6.7-.434-23.5-.386-30.8.096-14.85-.637-33.07.323-47.516"/><path fill="#1a222e" d="M952.089 990.664c-.506-16.099-2.269-136.684 1.519-146.012 1.98-4.874 6.779-9.801 11.731-11.669 3.74-1.411 7.972-1.758 11.947-1.903 14.169-.519 28.524.54 42.734.426 18.27-.147 37.43-1.608 55.61-.187 4.8.376 9.61 1.423 13.96 3.565 5.38 2.651 7.82 6.445 9.82 11.921l-1.77.958c-2.12-5.606-5.03-9.129-10.65-11.545-3.76-1.618-7.86-2.371-11.92-2.684-13.51-1.041-101.268-1.765-110.13 2.142-4.406 1.943-7.424 6.071-8.982 10.52-4.628 13.21-1.221 98.676-1.905 121.005-.222 7.249.561 16.689-1.964 23.463m79.371 119.256c16.58-2.83 34.97.23 51.53-2.69 6.51-1.15 9.79-6.94 15.68-10.11-5.86 12.61-15.49 13.26-27.87 13.07-13.08-.21-26.24.07-39.34-.27"/><path fill="#323c47" d="M1099.41 846.805c1.25 5.402.76 37.023.56 44.564-1.47-4.958-4.49-39.735-2.33-43.606z"/><path fill="#090707" d="m952.152 1068.98.112 1.07c.763 7.67 1.458 15.35 2.826 22.92a18.13 18.13 0 0 0 8.235 12.21c2.673 1.68 7.719 1.87 6.477 4.2-21.171-3.19-17.854-23.64-17.65-40.4m28.746-180.514c14.236-.456 93.622-2.14 102.112 3.207 4.18 2.632 6.38 7.372 6.9 12.098 2.5 22.89.74 47.847.76 70.955.01 20.335 1.66 42.194-.36 62.344-.27 2.66-.49 4.63-2.31 6.68-3.98 4.47-9.56 5.33-15.21 5.87-23.41.53-47.14.2-70.59.23-16.942.02-29.677 3.56-39.711-11.48-1.925-20.56.018-51.325-.683-72.83.35-20.79-.786-41.854.536-62.597.695-10.911 9.662-13.599 18.556-14.477"/><path fill="#4c5567" d="M974.812 891.267c17.5-.907 37.978-.499 55.408-.281 53.67.668 59.84-9.883 57.57 49.37-1.18 30.913 1.75 68.544-1.31 99.844-.26 2.63-7.06 5.68-9.13 6.57-18.76.68-37.71.2-56.5.21-14.64 0-31.716 1.71-45.958-1.44-4.074-.9-6.709-2.86-8.726-6.57-2.432-4.46-3.338-133.526-.741-139.836 1.594-3.872 5.942-6.022 9.387-7.867"/><path fill="#090707" d="M1027.68 937.841c.78.903 1.14 1.437 1.28 2.629.99 8.087 15.19 26.374 18.91 37.054 2.45 7.03 2.77 16.299-.79 23.016-3.27 6.19-9.1 9.24-15.47 11.29-2.55-.1-4.94-.19-7.32-1.23-6.58-2.86-11.26-9.43-13.51-16.062-6.43-18.958 8.98-40.164 16.9-56.697"/><path fill="#ec303c" d="M1027.13 945.601c5.1 6.063 9.89 16.379 12.71 23.928 3.22 8.62 4.62 16.594.38 25.066-2.66 5.325-7.3 7.715-12.64 9.555-2.49-.15-4.74-.12-6.97-1.37-4.27-2.38-6.6-6.694-7.8-11.278-3.78-14.483 6.97-33.729 14.32-45.901"/><path fill="#090707" d="m1088.65 1058.58.31.15c2.18 4.05 1.02 20.39 1.27 26.05-15.75 1.21-31.75.67-47.55.66l-78.507-.28c-3.251-4.67-1.424-19.62-1.333-25.69q38.676.66 77.36.09c16.11-.16 32.38.15 48.45-.98"/><path fill="#4c5567" d="M965.48 1062.09c28.143 1.29 56.58.18 84.74-.12 10.94-.12 24.83-1.86 35.42.33 1.27 2.93.74 5.63.58 8.77l-76.77.33c-11.814.09-32.467 2.09-43.111-.58-1.419-2.88-.937-5.59-.859-8.73m-.227 12.01c15.059.15 116.057-1.79 121.097 1.31.86 2.91.59 4.4.02 7.28-39.66.02-80.12 1.52-119.71-.42-1.856-2.58-1.323-5.04-1.407-8.17"/><path fill="#090707" d="M963.505 855.37c13.237-.786 121.335-1.742 126.345.791-.18 5.605-.04 19.933-2.35 23.847-39.95 1.234-86.7.748-126.881.32.147-5.858-1.259-22.115 2.886-24.958"/><path fill="#4c5567" d="m963.992 868.027 77.828-.018c12.38-.046 31.93-.715 43.83.275 1.63 2.648.98 5.928.84 9.236-8.83 1.009-44.82.347-56.18.232-17.27-.173-49.15 1.236-65.245-.173-1.794-3.213-1.107-5.45-1.073-9.552m.13-9.928c20.34-1.18 46.818-.211 67.728-.466 13.36-.163 40.82-.781 53.35.359 1.67 3.14.96 3.247.69 7.498l-77.11.315c-11.737.033-32.546.697-43.689-.363-1.512-2.338-.924-4.001-.969-7.343m-305.382-23.22c6.52-1.1 102.362-1.67 107.532-.221 12.148 1.15 18.238 8.615 18.966 20.447.878 6.914.378 21.683.35 29.531l-.145 54.848.073 73.936c.009 11.31.533 30.29-.556 41.06.442 7.41.232 29.29-.307 36.8l-.196 1.81c-2.314 9.78-7.982 16.99-18.914 17.46-22.282.95-44.855.3-67.183.38-14.057.06-28.792.82-42.641-.86-6.757-.82-12.514-9.04-14.063-14.99-2.387-6.63-1.864-215.397-.648-233.905-.047-6.953-.577-12.737 4.006-18.648a19.85 19.85 0 0 1 13.726-7.648"/><path fill="#1a222e" d="M772.87 1107.13c6.226-5.75 7.044-7.66 10.541-15.47l1.046 1.43c-2.314 9.78-7.982 16.99-18.914 17.46-22.282.95-44.855.3-67.183.38-14.057.06-28.792.82-42.641-.86-6.757-.82-12.514-9.04-14.063-14.99 3.639 2.79 5.759 8.01 9.201 10.49 5.236 3.33 15.249 3.33 21.382 2.96 31.941-1.91 69.335 2.74 100.631-1.4"/><path fill="#090707" d="M641.008 861.175c-.047-6.953-.577-12.737 4.006-18.648a19.85 19.85 0 0 1 13.726-7.648c2.611.236 12.882.35 14.404.939.257 1.21-9.83.888-11.177.874-4.667-.047-7.397 1.44-11.097 3.842-.741.367-.329.129-1.202.77-8.615 8.5-5.131 10.584-8.66 19.871"/><path fill="#1a222e" d="M784.96 1054.48c.442 7.41.232 29.29-.307 36.8-2.596-4.36-1.896-35.27.307-36.8"/><path fill="#090707" d="M766.272 834.658c12.148 1.15 18.238 8.615 18.966 20.447-1.58.19-1.575.676-1.764-1.508-.907-10.448-7.929-14.099-17.202-18.939m-105.327 56.619c5.06-.393 10.74-.19 15.853-.099 27.694.493 55.478-1.011 83.139.191 9.26.403 11.623 4.12 16.887 10.809.704 13.091.045 32.369.05 46.11l.136 92.032c-4.509 5.21-6.565 7.26-12.971 9.69-15.148.32-95.949 2.18-104.696-.49-3.994-1.22-8.46-5.75-10.09-9.55-2.429-5.68-2.41-131.554.386-138.566 2.071-5.191 6.455-7.873 11.306-10.127"/><path fill="#4c5567" d="M659.764 894.111c19.335-.713 38.957-.103 58.319-.168 14.713-.049 31.911-1.783 46.328.969 3.736.713 6.286 2.479 8.304 5.694 1.305 2.079 1.753 4.409 1.869 6.828.616 12.755.712 127.206-1.148 132.296-1.329 3.64-5.775 5.6-8.957 7.21-17.916 1.43-36.671.47-54.68.54-15.35.06-32.487 1.58-47.665-.56-4.347-.61-6.936-1.7-9.439-5.34-1.823-2.65-2.262-5.46-2.488-8.61-1.757-24.52-.049-50.158.053-74.829.065-15.456-2.006-39.647.913-53.997.978-4.808 4.79-7.468 8.591-10.033"/><path fill="#090707" d="M650.056 857.319c40.117-1.23 85.505-.263 126.029-.245.157 5.773 1.3 20.894-.324 25.33-13.668 1.055-32.564.615-46.637.631l-80.143.035c-.038-6.977-.603-19.564 1.075-25.751"/><path fill="#4c5567" d="M651.667 870.563q41.062.719 82.129.385c9.945-.018 30.068-.699 38.863.497 1.853 2.345 1.476 5.477 1.607 8.668-6.709.287-14.347.268-21.064.105-33.06-.8-67.421 1.506-100.346-.043-1.847-2.498-1.254-6.3-1.189-9.612m-.214-10.499 75.769-.137c12.423-.035 33.55-.709 45.423.343 1.911 2.897 1.216 3.961 1.34 8.131l-79.336-.114c-11.022-.015-32.614.596-42.445-.695-1.602-2.594-.879-3.817-.751-7.528"/><path fill="#090707" d="m649.898 1060.04 126.388-.12-.152 1.15-.231 1.93c-.959 7.43-.863 14.81-.883 22.29-14.014 2.36-30.183.92-44.423.85l-80.794-.51c-.267-8.52-.041-17.06.095-25.59"/><path fill="#4c5567" d="M652.795 1062.31c14.812.25 113.537-1.13 118.996 1.32 1.064 2.72.308 5.48-.102 8.28q-40.24.15-80.478-.18c-12.403-.12-25.579.6-37.871-1l-1.223-1.71c-.151-2.52-.018-4.28.678-6.71m-.771 11.72q34.743.765 69.495.87c16.265-.02 32.976-.92 49.185.26 1.78 2.64 1.294 4.9 1.365 8.04-26.62-.32-53.275-.09-79.9-.11-12.72-.02-26.456 1.14-39.003-.66-1.627-2.31-1.127-5.68-1.142-8.4m615.906-218.506c-.29-8.871 6.7-19.321 15.42-19.925 30.89-2.02 62.27-.94 93.26-1.001 15.67-.031 31.96-1.463 34.74 18.061 1.35 5.782.88 55.958.88 65.135l-.32 176.896c-4.41 13.82-12.94 15.58-26.11 15.69-28.27.25-56.59 0-84.86-.09-18.82-.05-33.15-.91-33.09-23.87-.74-4.76-.54-22.65-.58-28.76l-.05-66.773-.14-88.109c-.01-11.561-.65-37.034.85-47.254"/><path fill="#090707" d="M1267.93 855.524c-.29-8.871 6.7-19.321 15.42-19.925 30.89-2.02 62.27-.94 93.26-1.001 15.67-.031 31.96-1.463 34.74 18.061-4.15-2.707-6.66-14.957-15.89-15.224-37.02-1.073-74.13-1.966-111.1.374-14.68.929-15.44 23.019-16.05 23.474l-.06-1.68c-.06-1.677-.11-2.477-.32-4.079"/><path fill="#1a222e" d="M1267.85 1086.42c3.9 11.32 4.4 14.2 14.64 20.89 30.25 2.98 62.7.23 93.18.96 7.66.18 20.42.71 26.67-3.66.35-.29.7-.58 1.05-.88 3.26-2.91 4.72-5.66 8.52-9.04-4.41 13.82-12.94 15.58-26.11 15.69-28.27.25-56.59 0-84.86-.09-18.82-.05-33.15-.91-33.09-23.87"/><path fill="#090707" d="M1290.73 891.34c14.58-.663 95.37-2.22 105.04 1.941 3.28 1.413 5.58 4.512 6.66 7.846 2.59 7.995 2.31 117.703 1.32 132.003-.25 3.51-.55 6.97-2.37 10.06-2.53 4.3-6.67 5.75-11.27 6.87l-64.14.12c-12.27.02-25.88 1.19-37.92-1-6.32-1.15-8.97-5-12.52-10.04-.35-26.95-.02-53.939-.2-80.899-.11-16.418-1.46-33.967.02-50.298.28-3.129.73-6.277 2.46-8.97 3.15-4.911 7.43-6.483 12.92-7.633"/><path fill="#4c5567" d="M1287.49 894.232q33.12-.366 66.24-.279c12.08-.01 26.46-1.466 38.21 1.024 3.6.763 5.5 1.967 7.4 5.221 2.32 3.96 3.65 132.802.82 139.712-1.7 4.17-4.47 5.41-8.33 7.17-18.49 1.51-37.79.39-56.39.38-15.21-.01-32.1 1.56-47.02-.84-5.19-.84-7.47-3.98-10.48-7.93l-.09-87.212c-.08-12.362-2.13-36.803.73-48.029 1.14-4.476 5.25-6.988 8.91-9.217"/><path fill="#090707" d="m1275.9 856.985 127.33-.084c-.16 8.566.13 17.603.27 26.206-24.87.345-50.49-.05-75.42.012-15.29.039-37.6.671-52.11-.776z"/><path fill="#4c5567" d="M1277.84 870.471c33.93.768 68.11-.009 102.07.245 6.68.05 13.1-.254 19.75.53 1.69 2.638 1.11 5.942 1.03 9.27-27.66-.675-55.8-.028-83.46-.274-7.18-.064-32.21.639-38.12-.466-1.74-2.654-1.26-5.946-1.27-9.305m-.24-10.493 78.79-.084c11.2-.028 33.08-.64 43.27.462 1.86 2.719 1.32 4.027 1.65 7.842l-79.49.023c-11.38-.009-31.61.574-42.45-.6-2.12-2.602-1.44-3.543-1.77-7.643"/><path fill="#090707" d="M1276.93 1060.06c41.83.43 83.72.01 125.56 0 .72 8.49.41 17.14.42 25.66l-126.04-.18z"/><path fill="#4c5567" d="M1279.73 1062.59c27.72.72 55.57.27 83.3.2 11.22-.03 25.58-1.75 36.46.57 1.59 2.48.77 5.54.48 8.32l-79.09.21c-13.17.02-27.68 1.39-40.65-.51-1.35-2.93-.72-5.64-.5-8.79m-.4 11.53 77.19.52c14.09.01 28.5-.88 42.54.07 1.92 2.43 1.5 5.27 1.51 8.21l-79.53.07c-13.12.02-27.46 1.16-40.42-.59-1.69-2.71-1.22-5.12-1.29-8.28M11.788 861.659c-.029-2.937.658-5.812 1.73-8.542 2.017-5.143 5.75-9.787 10.883-12.038 8.393-3.681 109.742-3.319 117.57.14 6.527 2.884 10.088 7.743 12.424 14.287.978 9.48.535 22.95.515 32.761l-.097 56.089c-.097 49.572.84 105.024-.839 154.184-4.27 10.97-8.035 15.36-20.384 15.68-23.08.58-46.245.49-69.338.62-12.84.07-27.002 1.19-39.477-1.52-5.589-1.23-10.047-8.85-12.1-13.19-1.464-8.21-1.004-44.32-1.033-54.12l-.121-118.021-.198-42.09c-.034-6.225-.496-18.478.464-24.24"/><path fill="#1a222e" d="M11.788 861.659c-.029-2.937.658-5.812 1.73-8.542 2.017-5.143 5.75-9.787 10.883-12.038 8.393-3.681 109.742-3.319 117.57.14 6.527 2.884 10.088 7.743 12.424 14.287-3.414 47.84 1.254 107.874-.906 156.974-.639-49.9-1.366-99.702-1.581-149.683-.053-12.232-4.457-18.006-17.825-20.551-31.668-1.183-64.15.549-95.964-.501-5.946-.174-14.495 1.355-18.32 5.897-3.342 3.405-5.883 12.051-8.011 14.017m.888 238.471.707-5.3c2.537 6.93 4.104 11.74 11.191 15.29 7.548 3.79 107.737 4.14 116.927.65 6.302-2.4 7.464-8.85 12.473-12.23-4.27 10.97-8.035 15.36-20.384 15.68-23.08.58-46.245.49-69.338.62-12.84.07-27.002 1.19-39.477-1.52-5.589-1.23-10.047-8.85-12.1-13.19"/><path fill="#090707" d="M30.253 896.433c17.179-.8 94.742-1.806 107.219 2.366 2.941.984 6.094 2.396 7.353 5.395 3.566 8.495 3.819 133.706.339 141.696-1.874 4.3-5.21 7.13-9.433 8.93-20.216.74-40.666.04-60.904.01-15.59-.03-32.12 1-47.57-.92-2.526-2.33-5.278-4.96-6.697-8.14-2.874-6.45-2.411-134.115.71-141.212 1.887-4.292 4.772-6.383 8.983-8.125"/><path fill="#4c5567" d="M29.546 899.098c30.991-.537 62.363-.251 93.337.561 6.163.162 13.623-.463 18.094 4.478 1.687 1.865 2.693 3.976 3.041 6.492 2.082 15.036.505 32.262.504 47.486 0 25.635 1.018 51.765-.351 77.345-.411 7.68-1.832 11.29-7.654 16.49-31.169 1.62-63.485.47-94.725-.12-5.43-.1-12.605.18-16.507-4-1.767-1.9-2.546-3.52-2.894-6.06-2.129-15.53-.437-33.54-.45-49.277-.02-26.262-1.282-53.189.204-79.369.386-6.794 2.361-9.594 7.401-14.026"/><path fill="#090707" d="m116.765 861.466 30.108-.339c.106 8.891-.336 17.848-.674 26.739-29.784 1.244-64.694.304-94.699.163q-15.692.196-31.375-.357c-.244-8.359-.118-17.424-.168-25.845 32.313-.34 64.363.452 96.808-.361"/><path fill="#4c5567" d="m22.34 875.761 73.992.173c11.87-.034 35.183-.814 46.332.365 1.525 2.551 1.057 6.53 1.023 9.703l-76.898-.39c-13.495-.034-30.048.639-43.081-.286-1.843-3.053-1.26-5.578-1.368-9.565m90.895-11.242c6.099-.131 27.104-1.433 30.661 1.357.803 2.962.829 1.483-.422 4.563-5.632 5.226-19.136 3.022-27.2 3.013l-64.594-.353c-8.317-.038-17.554.238-25.93.088-2.223-.04-2.96-1.921-3.83-3.444.309-3.777-.477-2.364 1.775-4.688 23.833-1.914 63.779-.292 89.54-.536"/><path fill="#090707" d="M20.18 1063.97c13.815-1.6 29.207-.21 43.167-.13 27.56.21 55.12.26 82.68.13l.026 25.5c-20.567.87-41.25.51-61.841.54-21.213.03-42.617.48-63.807-.52z"/><path fill="#4c5567" d="m22.688 1066 78.95.34c13.264-.01 27.611-1.14 40.749.54 1.882 2.5 1.287 6.04 1.261 9.03-26.216.99-52.788.13-79.042.18-11.718.02-30.404 1.98-41.08-.37-1.324-2.8-.86-6.63-.838-9.72m.105 12.46c27.494.75 55.057.37 82.562.33 11.77-.02 25.201-1.38 36.759.47 1.732 2.45 1.515 4.64 1.816 7.6-20.462 1.02-41.395.06-61.906.13-18.905.06-38.73 1.42-57.535-.29-1.875-2.52-1.471-5.16-1.696-8.24"/><path fill="#090707" d="M1003.23 380.561c59.38-2.845 109.39 4.767 166.68 18.012 21.44 51.276 76.09 82.211 112 119.556-24.32-9.889-47.44-21.596-72.85-30.889-49.91-18.254-106.26-32.224-159.42-34.555-23.6-2.191-50.579-.402-74.15 2.135-75.318 8.108-136.705 31.611-204.882 62.983 38.292-32.202 85.235-73.26 106.29-118.511a717 717 0 0 1 126.332-18.731"/><path fill="#af6129" d="M1010.25 382.734c1.92-1.473 21.45-1.199 23.54-.129 50.7 1.2 85.25 7.316 134.21 18.121 22.09 49.188 64.22 73.469 100.29 107.814-23.03-9.644-49.11-21.042-72.54-29.227-126.37-44.132-248.753-38.47-372.743 12.337a2074 2074 0 0 0-35.079 14.712c35.698-32.209 69.432-60.848 90.834-104.913a980 980 0 0 1 88.662-15.815c.661-.495.729-.359 1.772-.359 5.695-.258 12.456-1.018 18.228-1.534 1.671-1.285 2.249-.976 4.277-.485z"/><path fill="#4f352d" d="M1010.25 382.734c1.92-1.473 21.45-1.199 23.54-.129-3.07.402-20.36.502-23.54.129m-22.826 1.007c1.671-1.285 2.249-.976 4.277-.485-1.766.917-2.123.707-4.277.485"/><path fill="#4c5567" d="M580.913 594.964c52.06-115.491 147.948-182.002 276.029-182.206-6.974 10.134-18.111 22.24-26.476 31.291-57.13 62.868-131.463 106.584-207.525 142.702-11.127 5.284-36.997 17.828-47.28 20.456a796 796 0 0 1 5.252-12.243"/><path fill="url(#b)" d="M826.239 442.637c2.317 1.067 1.82 1.103 4.227 1.412-57.13 62.868-131.463 106.584-207.525 142.702-11.127 5.284-36.997 17.828-47.28 20.456a796 796 0 0 1 5.252-12.243l1.697 1.574c-.299 1.441-.246.566.273 2.615 2.14-.269 21.479-12.715 25.673-15.051 72.391-40.323 154.812-87.431 217.683-141.465"/><path fill="#090707" d="M580.913 594.964c52.06-115.491 147.948-182.002 276.029-182.206-6.974 10.134-18.111 22.24-26.476 31.291-2.407-.309-1.91-.345-4.227-1.412 8.656-9.039 17.414-18.023 25.701-27.399-61.811 1.12-133.108 21.237-180.205 62.314-.697.351-.518.25-1.08.81l-4.965 4.154c-.654.386-.46.254-1.022.863-9.035 7.825-21.784 20.323-29.516 29.578-.554.417-.472.384-.851 1.012l-5.172 6.004c-.548.42-.483.435-.845 1.091l-4.189 4.877c-.689.645-.339.291-1.04 1.072l-1.647 2.724-1.383 1.395-1.62 2.568c-.605.548-.543.538-.988 1.265-3.325 4.665-6.441 8.918-9.327 13.896-.456.577-.389.532-.71 1.237-9.306 15.208-17.299 34.541-24.77 46.44z"/><path fill="#4c5567" d="M1188.48 412.076c130.49 1.948 225.55 64.477 279.53 183.027l4.53 10.803c-15.86-4.119-43.19-18.119-58.34-25.537-80.65-39.479-147.32-83.002-209.01-149.041a510 510 0 0 1-16.71-19.252"/><path fill="url(#c)" d="M1205.19 431.328c.71-.333 3.26-1.053 4.11-1.314 64.94 60.326 147.61 107.138 224.71 150.202 9.82 5.487 21.12 13.037 30.87 17.852l.18-.95 2.95-2.015 4.53 10.803c-15.86-4.119-43.19-18.119-58.34-25.537-80.65-39.479-147.32-83.002-209.01-149.041"/><path fill="#090707" d="M1188.48 412.076c130.49 1.948 225.55 64.477 279.53 183.027l-2.95 2.015c-2.82-14.653-15.41-29.894-20.3-42.018-.66-.942-.34-.567-.9-1.169-1.32-2.455-2.74-4.604-4.23-6.953-.59-.887-.47-.75-1.08-1.435-.79-1.019-1.36-1.642-1.96-2.781-.79-1.15-1.43-1.947-2.04-3.201-.79-1.051-1.36-1.683-1.95-2.854-2.1-2.182-2.13-2.219-3.67-4.832-1.49-1.405-1.43-1.313-2.24-3.198-1.5-2.414-1.82-3.265-3.94-5.032-1.52-2.24-2.63-4.04-4.71-5.8-4.57-5.581-6.94-8.429-12.19-13.331-3.69-3.145-8.24-7.63-11.24-11.456l-4.48-4.029c-1.39-1.886-2.59-2.534-4.52-3.944l-3.25-2.771c-.68-.658-.44-.472-1.12-.883l-3.89-3.123c-.74-.599-.49-.436-1.2-.812-8.23-7.228-20.58-15.357-29.83-21.223-.68-.558-.48-.441-1.23-.786-42.98-27.383-100.07-40.215-150.6-40.532l14.81 15.059c-.85.261-3.4.981-4.11 1.314a510 510 0 0 1-16.71-19.252"/><path fill="#323c47" d="M1394.61 493.058a59.3 59.3 0 0 1 11.24 11.456c-3.69-3.145-8.24-7.63-11.24-11.456m23.43 24.787c2.08 1.76 3.19 3.56 4.71 5.8-2.09-1.986-4-3.015-4.71-5.8m-32.43-32.76c1.93 1.41 3.13 2.058 4.52 3.944-1.71-.366-2.3-1.043-3.33-2.432zm37.14 38.56c2.12 1.767 2.44 2.618 3.94 5.032-1.96-1.925-2.95-2.454-3.94-5.032"/><path fill="#4c5567" d="M1108.55 1621.25c1.21-2.26 2.87-4.69 4.54-6.59 53.4-60.58 159.81-115.66 239.69-122.06-2.5 7.09-5.25 12.92-8.4 19.76-51.81 102.72-125.87 131.4-236.06 130.56.24-7.15-.11-14.08.23-21.67"/><path fill="url(#d)" d="m1341.29 1509.35 3.09 3.01c-51.81 102.72-125.87 131.4-236.06 130.56 1.45-9.14 6.9-7.43 16.91-8.32 33.08-2.93 63.19-13.31 93.55-26.01 3.16-1.48 6.05-2.81 9.27-4.14 3.03-2.38 23.28-12.16 29.04-15.79 30.56-19.22 65.97-48.27 84.2-79.31"/><path fill="#090707" d="m1228.05 1604.45-.14 1.23c-.3 3.46-5.59 4.97-9.13 2.91 3.16-1.48 6.05-2.81 9.27-4.14m-119.5 16.8c1.21-2.26 2.87-4.69 4.54-6.59 53.4-60.58 159.81-115.66 239.69-122.06-2.5 7.09-5.25 12.92-8.4 19.76l-3.09-3.01 7.25-13.96c-66.74 10.5-137.08 38.43-189.73 81.2-.67.32-.52.24-1.13.76l-3.91 3.23c-.66.33-.5.25-1.09.77l-3.92 3.22c-.71.35-.31.12-1.15.74-4.16 3.99-10.24 8.67-13.75 12.32-1.46.84-1.38.76-2.33 2.2-7.19 6.54-12.95 12.8-19.45 20.04-1.01.65-.91.74-1.59 1.93z"/><path fill="#323c47" d="M1112.08 1619.87c-.32 1.25-.37 1.12-1.59 1.93.68-1.19.58-1.28 1.59-1.93"/><path fill="#4c5567" d="m704.268 1498.17-.346-2.14c3.351-2.24 22.63 1.99 27.564 3.07 64.818 14.26 126.302 45.68 177.25 88.04 10.245 8.51 29.382 24.91 35.809 35.92.63 6.91.441 13.97.412 20.92-7.963.08-15.926.07-23.889-.01-37.642-.67-72.532-6.11-107.135-21.88-49.905-22.74-91.23-72.64-109.665-123.92"/><path fill="url(#e)" d="m704.268 1498.17 2.791-.61c22.166 52.19 88 97.36 139.524 117.75 8.035 3.18 16.328 5.99 24.286 9.27 1.247 4.94 11.066 5.48 16.126 7.15 5.011 1.66 13.199 2.69 18.51 4.09 4.284 1.13 11.061 1.09 14.263 4.17.77 1.26-1.093 1.61 1.3 3.98-37.642-.67-72.532-6.11-107.135-21.88-49.905-22.74-91.23-72.64-109.665-123.92"/><path fill="#090707" d="m704.268 1498.17-.346-2.14c3.351-2.24 22.63 1.99 27.564 3.07 64.818 14.26 126.302 45.68 177.25 88.04 10.245 8.51 29.382 24.91 35.809 35.92-4.072-.88-7.833-5.82-10.833-9.02-.373-.63-.308-.63-.847-1.06-4.253-5.08-6.888-7.44-11.777-11.88-1.326-1.93-2.478-2.49-4.439-3.86l-3.357-2.86c-.697-.66-.45-.47-1.135-.89l-4.855-4.12c-.702-.66-.452-.47-1.147-.88-53.533-47.16-128.772-79.9-199.096-90.93zm166.601 126.41c7.239 1.77 14.341 4.05 21.618 5.69 2.822.68 5.658 1.3 8.504 1.87 1.81.37 3.158.64 4.994.96a489 489 0 0 0 19.006 3.08c2.494.36 15.752 1.7 18.561 2.24.445.08 1.16 4.46 1.405 5.56-7.963.08-15.926.07-23.889-.01-2.393-2.37-.53-2.72-1.3-3.98-3.202-3.08-9.979-3.04-14.263-4.17-5.311-1.4-13.499-2.43-18.51-4.09-5.06-1.67-14.879-2.21-16.126-7.15"/><path fill="#323c47" d="M916.649 1597.24c1.961 1.37 3.113 1.93 4.439 3.86-2.388-.67-2.763-1.78-4.439-3.86"/><path fill="#090707" d="M546.833 1638.79c-2.39-3.29-6.991-8.04-5.44-12.02 4.138-1.21 12.118.94 16.969 1.77a646 646 0 0 0 100.747 4.08c6.753-.57 10.093-.72 16.874-.43 56.54-1.86 121.256-3.47 173.78 19.41-4.828 2.4-9.736 4.92-14.643 7.13-56.89 26.43-123.34 47.56-186.699 38.29-39.721-5.82-77.578-25.43-101.588-58.23"/><path fill="#4c5567" d="M558.362 1628.54a646 646 0 0 0 100.747 4.08c6.753-.57 10.093-.72 16.874-.43 50.006 3.55 106.341-1.62 154.103 15.06l-1.027 3.02c-90.255-3.88-179.55 35.19-263.928-10.38-4.329-2.34-8.72-4.56-13.049-6.92-1.141-1.04-.575-.34-1.351-2.35 1.96-1.9 4.728-1.74 7.631-2.08"/><path fill="#090707" d="M558.362 1628.54a646 646 0 0 0 100.747 4.08l4.137 1.11c-8.287 4.07-60.995.55-73.126.44-7.974-.07-32.086-4.88-38.038-1.2-1.141-1.04-.575-.34-1.351-2.35 1.96-1.9 4.728-1.74 7.631-2.08"/><path fill="#323c47" d="M830.086 1647.25c1.321.34 4.509.73 5.283 2.17-.41 1.18-5.485.83-6.31.85z"/><path fill="#4c5567" d="M548.473 1636.06c4.985.42 20.203 8.86 26.106 11.43 23.901 10.41 48.405 17.05 74.571 17.65 16.93.34 33.866-.33 50.716-2 24.235-2.24 117.67-14.5 136.031-8.95-9.535 6.62-27.696 12.9-38.847 17.35-50.859 20.35-110.655 32.63-164.798 19.64-29.286-7.02-68.019-28.51-83.779-55.12"/><path fill="#090707" d="M649.786 453.87c6.875-1.405 12.698-1.609 19.632-2.007-4.164 4.122-8.075 7.46-12.299 11.421-36.942 33.471-67.563 74.554-90.35 118.664-18.878 36.542-35.172 72.018-62.26 103.358-9.474 10.962-18.215 22.954-27.836 34.056-12.192-121.482 46.864-238.664 173.113-265.492"/><path fill="#af6129" d="M653.371 459.657c1.128-.376 1.567-.602 2.727-.529l.174.135c.014.354-.181.413-.483.762-3.369 4.704-18.183 18.151-23.349 23.87-14.427 16.256-30.005 33.716-41.77 52.024-37.012 57.594-55.628 116.474-104.865 166.489a99 99 0 0 1 1.81-8.712c18.048-71.268 58.31-153.049 115.316-200.245 16.485-13.648 32.262-23.044 50.44-33.794"/><path fill="#090707" d="M649.786 453.87c6.875-1.405 12.698-1.609 19.632-2.007-4.164 4.122-8.075 7.46-12.299 11.421l-1.33-3.259c.302-.349.497-.408.483-.762l-.174-.135c-1.16-.073-1.599.153-2.727.529-1.118-4.17-1.235-2.642-3.585-5.787"/><path fill="#af6129" d="M647.636 457.288c1.58-.229.656-.198 2.766.159-2.167 2.515-24.143 15.014-29.148 18.371a241 241 0 0 0-27.216 21.312c-62.005 56.029-90.632 130.693-113.395 208.661l-1.592 1.205c-2.593-4.461.224-42.733.885-50.326 3.317-38.105 16.332-77.873 37.32-109.953a204.14 204.14 0 0 1 130.38-89.429"/><path fill="#090707" d="M1495.54 1623.18c7.19-1.29 11.69-2.16 18.98-2.46-4.71 7.97-8.29 12.75-14.25 19.97-16.4 20.33-37.52 33.86-61.81 43.15-77.16 29.5-163.85-3.3-235.07-35.19 62.69-30.15 156.7-18.81 225.21-19.66 22.42-.31 44.8-2.25 66.94-5.81"/><path fill="#4c5567" d="M1503.19 1629.4c-1.22 2.52-2.82 6.14-4.26 8.39-15.8 22.74-46.82 39.49-72.47 47.79-51.79 16.75-111.75 2.66-161.76-14.83-17.36-6.07-36.52-13.14-52.91-21.54a840 840 0 0 1 91.77 4.97c74.54 7.8 131.51 18.53 199.63-24.78"/><path fill="#4c5567" d="m1500.23 1625.09 1.12.7-.5 1.19c-74.18 51.7-158.82 24.47-241.14 20.55-14.99-.72-29.94-.75-44.93-1.44 64.78-22.87 136.85-14.89 204.16-14.41 26.78.19 54.85-2.2 81.29-6.59"/><path fill="#090707" d="M1382.4 452.15q6.51.462 13.02 1.022c61.82 11.886 104.78 40.011 142.1 92.001 30.57 42.592 45.21 120.114 36.17 172.255-20.07-20.711-52.39-67.967-66.21-93.565-15.75-29.175-26.18-51.931-45.03-80.31a436 436 0 0 0-42.41-53.889c-5.44-5.799-21.64-21.128-25.35-25.921-4.31-3.755-8.17-7.662-12.29-11.593"/><path fill="#af6129" d="M1395.29 460.149c-.12-.391-.21-.377-.09-.696.56-.212 1.09-.262 1.72-.32 19.81 11.076 38.13 22.842 55.07 37.321 57.85 49.449 93.44 123.294 111.99 195.984 1.23 4.825 2.65 9.809 4.28 14.587-16.58-20.261-39.15-49.439-51.37-72.091-28.67-53.133-53.69-105.482-96.75-149.037-7.46-7.547-18.24-17.605-24.85-25.748"/><path fill="#090707" d="M1382.4 452.15q6.51.462 13.02 1.022c1.04 2.324 2.3 3.64 1.5 5.961-.63.058-1.16.108-1.72.32-.12.319-.03.305.09.696l-.6 3.594c-4.31-3.755-8.17-7.662-12.29-11.593"/><path fill="#af6129" d="M1398.58 456.863c50.31 4.882 103.83 44.43 132.66 84.225 26.29 36.293 39.24 81.983 41.41 126.451.58 11.916 1.24 27.628-.5 39.447-1.95-1.616-3.88-10.807-4.69-13.927-19.57-75.611-55.8-151.693-117.49-201.801-17-13.804-32.37-23.26-51.39-34.395"/><path fill="#090707" d="M663.096 661.284c.332 5.269-7.65 17.2-10.671 22.138-34.898 57.026-97.323 85.079-150.963 120.608-25.76 17.063-48.959 35.841-72.283 56.009-2.879-18.482 11.894-56.527 20.889-73.042 41.961-77.042 133.879-102.855 213.028-125.713"/><path fill="#4c5567" d="M432.899 852.656c55.147-105.686 130.33-118.166 221.454-180.888-7.165 15.956-12.086 23.369-23.9 36.504-.39.661-.263.476-.865 1.05-4.904 5.372-8.115 8.717-13.525 13.537-.733 1.126-.592 1.016-1.768 1.562-29.505 28.041-63.673 45.081-97.767 66.581a783 783 0 0 0-83.629 61.654"/><path fill="#4c5567" d="M489.824 741.649c33.588-31.083 82.707-50.097 125.91-62.879 12.843-3.799 27.386-9.222 40.336-11.985-86.043 64.254-166.466 71.416-222.732 179.707a157.17 157.17 0 0 1 30.244-75.701c.252-.657.27-.575.85-1.085l1.62-2.63 1.164-1.126c4.607-6.63 15.217-17.629 21.269-23.06.529-.803.505-.775 1.339-1.241"/><path fill="#090707" d="M1389.29 660.574c81.62 25.404 169.3 46.595 213.54 128.651 7.31 13.553 21.53 50.694 19.65 65.642l-1.32 1.179c-3.51-1.064-6.52-4.311-9.36-6.835-21.07-18.617-58.27-45.648-82.34-60.152-58.13-35.034-94.26-53.231-132.46-112.009-2.68-5.357-5.61-10.889-7.71-16.476"/><path fill="#4c5567" d="m1399.14 675.085-.42-1.707c3.5-.469 9.1 3.813 12.05 5.883 31.91 22.38 67.28 38.627 100.49 59.037a401 401 0 0 1 33.24 22.549c17.18 13.202 68.84 63.925 69.6 85.93-19.48-12.965-40.08-32.408-61.69-46.36-62.93-40.646-111.24-58.314-153.27-125.332"/><path fill="#4c5567" d="M1396.99 666.753c25.79 4.115 104.13 32.575 127.15 46.697.8.371.36.138 1.27.74l3.68 2.289c.78.313.53.18 1.33.689l3.69 2.325c.77.363.82.622 1.37 1.34 1.25.52 1.28.549 2.42 1.301l6.27 4.32c.65.315.65.367 1.17.866l9.82 8.176c.7.394.52.281 1.15.876 14.2 12.483 29.62 29.075 39.37 45.336.56.656.54.534.83 1.224 9.98 15.987 20.39 41.779 21.63 60.83-9.18-14.621-12.18-21.898-23.58-37.329-50.76-68.714-132.16-91.173-197.57-139.68"/><path fill="#090707" d="M1513.48 1253.67c.27.26.59.46.8.76 4.36 6.08 5.96 19.51 7.72 27.05 10.7 46 18.45 91.84 7.78 138.82-10.2 44.93-41.03 80.75-79.4 104.92-4.97 2.86-10.23 5.18-15.43 7.58 13.26-30.16 19.77-60.73 24.85-93.13 8.16-51.97 10.17-102.78 32.56-151.46 5.63-12.25 12.19-24.36 21.12-34.54"/><path fill="#4c5567" d="M1514.44 1261.26c16.72 66.26 32.67 138.07-4.8 201.42a166.54 166.54 0 0 1-67.09 62.47c14.66-50.66 20.04-76.8 25.79-130.56-.06-1.02-.07-.82.27-1.81l.6-5.96c-.04-1.46-.18-1.44.43-2.59 3.59-36.08 17.28-90.68 39.35-119.49-15.51 70-.54 140.54-29.74 205.02-9.48 20.94-23.23 35.62-34.59 53.99 10.49-9.21 16.03-18.6 24.04-29.5 50.42-68.72 21.41-158.63 45.74-232.99"/><path fill="#323c47" d="M1469.21 1386.82c-.04-1.46-.18-1.44.43-2.59-.02 1.34.05 1.4-.43 2.59"/><path fill="#090707" d="M536.739 1257.35c6.646 2.9 12.597 15.39 15.894 21.64 35.104 66.54 30.146 121.53 43.83 191.82 4.466 22.94 10.888 44.9 20.88 66.1l-13.178-6.99c-28.379-18.23-51.76-39.17-67.751-69.4-30.857-58.34-18.546-142.27.325-203.17"/><path fill="#4c5567" d="M538.258 1264.72c10.293 12.79 11.883 125.85 14.765 147.7a245 245 0 0 0 14.705 56.71c8.9 22.23 21.136 38.27 35.918 56.78-4.434-2.35-8.442-4.63-12.35-7.84-22.088-14.12-40.449-35.75-52.391-58.95-29.859-58.03-19.625-134.35-.647-194.4"/><path fill="#4c5567" d="M543.899 1270.68c5.314 6.09 9.722 15.33 13.218 22.57 25.949 53.8 25.735 112.77 35.365 170.48 3.36 20.14 9.926 39.01 14.468 58.81l-2.233-.65c-12.565-11.88-22.279-27.4-29.486-43.01-23.157-50.15-20.927-101.99-24.611-155.56-1.216-17.68-5.794-35.04-6.721-52.64"/><path fill="#090707" d="m333.866 1380.6 10.759 6.78c24.911 16.03 51.652 30.69 79.244 41.85 53.432 21.61 106.201 45.84 148.289 86.38 8.565 8.25 15.995 16.36 21.588 26.89-96.215-12.78-216.631-39.4-254.524-141.2-2.685-8.23-3.89-12.24-5.356-20.7"/><path fill="#4c5567" d="M567.512 1534.99c-8.515-.26-38.987-6.17-47.493-8.26-64.571-15.84-131.65-41.17-167.305-101.27-4.023-6.78-11.543-21.06-9.763-28.88l.881.83c48.669 58.77 120.841 80.38 187.438 111.36 8.305 3.87 40.605 19.79 46.684 24.69 8.796 5.82-8.853 1.9-10.442 1.53"/><path fill="#323c47" d="M577.954 1533.46c8.796 5.82-8.853 1.9-10.442 1.53 5.405 0 6.115.8 10.442-1.53"/><path fill="#4c5567" d="M341.279 1389.41c6.12 2.51 15.94 8.89 21.978 12.44a487 487 0 0 0 32.754 17.51c29.272 13.95 60.434 25.42 89.195 39.95 33.609 16.97 79.734 44.99 100.557 76.29-14.078-10.36-42.222-24.31-58.701-32.06-68.956-32.43-128.095-48.38-180.987-107.08z"/><path fill="#090707" d="m1717.3 1378.8 1.15.43c.26.83.46 1.25.37 2.21-1.8 19.9-24.19 54.75-37.83 69.43-44.34 47.69-109.44 67.78-171.67 79.38-16.37 3.05-33.22 6.48-49.89 7.14l-.31.06-.84-.76c6-9.96 15.75-18.54 24.23-26.44 59.54-55.49 122.07-71.18 191.96-106.4 14.84-7.48 28.83-16.12 42.83-25.05"/><path fill="#4c5567" d="M1471.4 1530.79c67.01-41.44 152.99-59.78 213.83-111.6 10.69-9.1 19.04-19.23 27.84-30.04-35.4 103.12-138.77 128.55-234.97 143.1-1 .17-10.3 2.28-9.85.13 1.25-1.14 1.44-1.08 3.15-1.59"/><path fill="#323c47" d="M1471.4 1530.79c2.83.96 3.63.97 6.7 1.46-1 .17-10.3 2.28-9.85.13 1.25-1.14 1.44-1.08 3.15-1.59"/><path fill="#4c5567" d="M1504.78 1494.56c47.03-37.26 93.98-53.59 148.26-77.5 21.93-9.66 37.59-18.86 58.1-30.5-51.25 70.02-150.31 91.35-223.32 131.14-5.37 2.93-11.32 5.89-16.85 8.51 7.35-9.06 23.11-23.58 32.73-30.83.6-.59.39-.46 1.08-.82"/><path fill="#090707" d="M1546.67 1008.62c8.56 6.84 15.65 17.01 22.62 25.47 27.11 32.92 50.96 64.95 66.05 105.42 17.1 45.84 10.82 90.27-9.26 133.99-2.89 5.58-6.48 10.61-10.08 15.74-1.95-13.78-4.36-27.1-8.4-40.46-22.61-74.73-79.43-159.38-60.93-240.16"/><path fill="#4c5567" d="M1546.59 1032.21c.18-4.38-.13-7.42 1.93-11.24l1.42-.06c3.37 5.01 5.35 12.94 7.96 18.7 26.19 57.68 62.21 115.27 64 180.37.55 20.15-1.84 42.91-3.29 63.1-5.41-24.18-8.85-38.03-17.4-61.1-19.38-52.26-59.66-130.4-55.01-187.19-.01-1.38-.12-1.41.39-2.58"/><path fill="#323c47" d="M1546.2 1034.79c-.01-1.38-.12-1.41.39-2.58.23 1.48.37 1.44-.39 2.58"/><path fill="#4c5567" d="M1552.48 1017.87c4.62 5.29 8.26 9.45 12.36 15.13.56.39.47.35.85.97l9.19 11c.59.52.41.32.86 1.05l4.13 4.94c.56.52.42.37.85 1.07l3.21 3.88c1.96 1.44 2.43 2.64 3.74 4.77 1.63 1.36 1.64 1.72 2.66 3.65l.23.43c1.69 1.18 1.54 1.28 2.49 3.18 2.19 2.05 2.09 2.12 3.55 4.75.83.79 1.36 1.86 1.96 2.85.83.9 1.34 1.98 1.97 3.07.86.84 1.4 1.92 2.04 2.96.82.88 1.34 1.98 1.95 3.04.61.61.58.67 1.02 1.46l4.31 6.85c.51.52.43.63.63 1.38 2.82 4.41 5.2 7.77 7.24 12.63 2.69 3.91 3.38 5.42 4.91 9.87 19.89 33.69 24.86 78.15 15.36 115.63-2.93 11.56-8.8 30.29-15.49 40.06 12.82-126.81-31.91-149.5-70.02-254.62"/><path fill="#323c47" d="M1617.72 1106.93c2.69 3.91 3.38 5.42 4.91 9.87-2.67-4-3.28-5.34-4.91-9.87m-33.79-51.02c1.96 1.44 2.43 2.64 3.74 4.77-1.77-1.76-2.94-2.4-3.74-4.77"/><path fill="#090707" d="M504.642 1010.79c3.014 9.39 3.17 20.64 3.257 30.43.791 89.31-58.248 163.44-73.984 249.35-3.212-4.73-5.97-9.74-8.811-14.7-10.514-22.99-17.332-47.52-18.095-72.88-2.225-73.94 49.555-140.81 97.633-192.2"/><path fill="#4c5567" d="M502.758 1021.78c.211.25.455.48.632.76 2.897 4.53 1.867 14.19 1.851 19.47-.196 66.52-32.019 123.64-55.629 183.94-6.509 16.63-11.657 33.56-16.424 50.75-.322-.51-.713-.99-.967-1.54-3.612-7.81-2.46-21.42-2.514-30.08-.516-82.55 38.884-150.9 73.051-223.3"/><path fill="#4c5567" d="M483.124 1038.97c6.089-8.23 10.63-11.39 16.682-18.51-21.161 49.16-49.606 97.1-63.316 148.74-8.371 31.53-12.431 76.71-7.019 108.58-42.689-82.21-11.007-161.69 45.009-227.95.3-.67.269-.54.874-1.14l6.964-8.67c.351-.64.279-.62.806-1.05"/><path fill="#090707" d="M304.224 812.832c9.81 19.888 17.662 41.086 27.378 61.016 30.375 62.302 57.821 129.572 40.732 200.422-.326 3.17-.322 7.8-2.206 10-2.896-1.12-2.751-2.11-4.903-5.23-2.914-3.74-5.669-8.25-8.342-12.22-24.349-36.15-49.523-73.622-64.131-114.988-16.124-45.661-15.51-97.602 11.472-139"/><path fill="#4c5567" d="M368.935 1077.06c-4.591-11.31-10.745-40.72-15.488-54.95-23.828-71.509-49.666-122.755-48.158-200.196 8.559 17.632 16.399 36.372 24.59 54.278 17.554 38.372 33.974 70.847 41.467 112.86.35.817.32.958.479 1.889 4.089 33.809 2.805 52.349-2.89 86.119"/><path fill="#4c5567" d="M301.569 824.784c.678 7.144.594 17.466 1.206 25.473a332.6 332.6 0 0 0 12.032 67.573c11.506 39.862 28.39 78.722 40.05 118.56 2.388 8.16 7.495 23.21 8.729 31.11l-1.023.71c-3.654-2.38-4.682-4.4-7.308-8.02-43.982-65.407-99.971-157.275-53.686-235.406"/><path fill="#090707" d="M1747.82 812.462c8.26 4.734 17.45 35.626 19.49 45.432 16.78 80.782-35.3 151.456-77.25 214.876-2.55 4.5-5.83 9.1-8.75 13.42-.46-8.41-2.06-20.06-3.44-28.46-15.27-93.096 35.94-162.805 69.95-245.268"/><path fill="#4c5567" d="M1679.29 1048.4c-6.97-100.929 34.77-143.296 68.65-229.961 7.31 70.067-30.98 142.328-50.89 207.581-5.68 18.64-11.1 34.43-13.4 54.04-1.45-9.67-2.98-19.33-4.03-29.06-.54-1.29-.48-1.14-.33-2.6"/><path fill="#323c47" d="M1679.29 1048.4c.71 1.05.5 1.09.33 2.6-.54-1.29-.48-1.14-.33-2.6"/><path fill="#4c5567" d="M1751.2 822.655c7.2 5.652 12.73 30.514 14.4 39.4 13.43 71.26-30.7 140.255-69.9 196.185l-7.61 11.53c15.83-80.384 69.06-162.712 63.11-247.115"/><path fill="#090707" d="m1620.68 1512.03.82.71c-.01.35.02.71-.02 1.06-1.78 14.59-27.62 43.14-38.58 52.83-53.68 47.46-135.6 54.53-204.3 52.4-14.08-.43-28.27-1.91-42.36-2.77-1.36-.11-2.17-.39-3.43-.86l.51-1.81c55.75-49.46 133.55-56.5 202.87-73.73a587.4 587.4 0 0 0 84.49-27.83"/><path fill="#af6129" d="M1604.92 1531.15c1.41 1.21 1.61 1.49 2.94 2.94-52.96 81.27-179.21 89.02-267 79.54 24.33-9.35 53.91-15.47 79.47-20.48 74.39-14.59 120.86-17.68 184.59-62"/><path fill="#af6129" d="m1612.24 1518.16.49.49c-.24.61-.4 1.26-.72 1.82-2.5 4.31-12.42 10.7-16.56 13.7-70.62 51.2-169.58 47.21-250.15 74.61l-.51-.78c6.48-5.86 15.24-10.58 22.89-14.85 54.84-30.61 116.95-37.25 176.91-52.61 23.14-5.93 45.27-14.13 67.65-22.38"/><path fill="#a65922" d="M1604.92 1531.15c1.2-1.64 7.83-6.89 9.83-8.54-2.04 3.6-4.46 8.32-6.89 11.48-1.33-1.45-1.53-1.73-2.94-2.94"/><path fill="#4c5567" d="M696.426 1716.78c20.886-4.68 42.465-9.06 62.76-15.52 48.342-15.39 94.09-34.2 145.014-40.06 7.816-.9 36.019-5.14 41.077-1.27-.068 3.7-.38 10.01.096 13.46l-.48 4.12c.033 6.58.383 16.21-.018 22.55-4.969 4.94-13.672 9.04-19.977 12.26-72.971 37.3-156.233 54.28-228.472 4.46"/><path fill="#4c5567" d="M709.156 1721.87c62.857 1.26 97.224-1.41 157.023-22.34 15.037-5.26 63.228-19.61 78.714-22.02.033 6.58.383 16.21-.018 22.55-4.123-1.19-8.267 1.63-12.351 4.06-43.989 26.24-97.98 43.98-149.908 40.67-1.819.21-1.819.39-3.401-.39-26.265-2.04-47.286-10.06-70.059-22.53"/><path fill="#323c47" d="M779.215 1744.4c1.869-.21 1.906-.47 3.401.39-1.819.21-1.819.39-3.401-.39"/><path fill="#090707" d="M696.426 1716.78c20.886-4.68 42.465-9.06 62.76-15.52 48.342-15.39 94.09-34.2 145.014-40.06 7.816-.9 36.019-5.14 41.077-1.27-8.114 1.96-27.244 2.12-37.699 3.41-1.005-.03-.829-.04-1.801.28-52.554 6.95-91.932 22.35-141.613 38.77-20.224 6.69-40.997 10.03-60.517 15.73 97.472 10.06 151.215-21.69 241.726-44.73l-.48 4.12c-15.486 2.41-63.677 16.76-78.714 22.02-59.799 20.93-94.166 23.6-157.023 22.34 22.773 12.47 43.794 20.49 70.059 22.53 1.582.78 1.582.6 3.401.39 51.928 3.31 105.919-14.43 149.908-40.67 4.084-2.43 8.228-5.25 12.351-4.06-4.969 4.94-13.672 9.04-19.977 12.26-72.971 37.3-156.233 54.28-228.472 4.46M430.517 1516.1c35.15 15.64 72.997 26.42 110.501 34.68 37.784 8.31 76.439 14.84 112.679 28.78 11.35 4.37 59.574 27.85 64.467 38.83l-2.384.96q-2.435.42-4.885.75c-72.657 9.85-176.048 2.48-235.306-43.71-15.499-12.08-42.603-40.12-45.072-60.29"/><path fill="#af6129" d="M437.935 1528.34c11.525 7.35 20.504 16.95 33.684 23.99 72.973 39 153.404 38.45 233.405 63.21q-1.036 1.38-2.041 2.79c-12.417-.14-26.641 1.53-39.303 1.77-89.455 1.68-174.306-10.92-225.745-91.76"/><path fill="#af6129" d="M436.843 1522.56c8.333 1.52 17.313 5.87 25.356 8.71a589 589 0 0 0 41.651 13.16c67.334 18.59 146.027 22.4 202.495 67.73-7.465-1.22-15.168-4.13-22.532-6.12a553 553 0 0 0-35.949-8.32c-63.768-12.97-136.567-19.13-190.976-58.14-7.044-5.05-14.329-10.45-20.045-17.02"/><path fill="#a65922" d="M705.024 1615.54c1.099.28 2.475.43 3.344 1.25.091.31.094.15-.003.45-1.084.91-4.14.94-5.382 1.09q1.005-1.41 2.041-2.79"/><path fill="#4c5567" d="M1108.68 1658.04c4.76-3.78 36.82-.51 44.65.4 68.12 7.91 128.82 38.69 196.52 52.72 12.29.1 1.53 5.54-2.87 8.23-69.68 38.39-139.99 26.12-209.38-6.4-5.81-2.72-27.97-12.6-29.1-17.92.48-5.5.38-13.97.49-19.71l-.22-1.44c-.28-4.91-.11-10.88-.09-15.88"/><path fill="#4c5567" d="M1108.68 1658.04c4.76-3.78 36.82-.51 44.65.4 68.12 7.91 128.82 38.69 196.52 52.72 12.29.1 1.53 5.54-2.87 8.23a3 3 0 0 1-.07-.27c-.16-.59-.31-1.19-.47-1.79-.18-.28-.25-.4-.57-.48-.4.11-.15 0-.78.46-1.11-.53-2.69-1.22-3.7-1.88-16.97 5.02-49.27 2.81-66.64.98-56.76-6.01-109.51-32.48-165.76-41.05l-.22-1.44c-.28-4.91-.11-10.88-.09-15.88"/><path fill="#090707" d="M1108.68 1658.04c4.76-3.78 36.82-.51 44.65.4 68.12 7.91 128.82 38.69 196.52 52.72 12.29.1 1.53 5.54-2.87 8.23a3 3 0 0 1-.07-.27c-.16-.59-.31-1.19-.47-1.79-.18-.28-.25-.4-.57-.48-.4.11-.15 0-.78.46-1.11-.53-2.69-1.22-3.7-1.88-16.97 5.02-49.27 2.81-66.64.98-56.76-6.01-109.51-32.48-165.76-41.05l-.22-1.44c2.94-2.81 19.41 1.81 24.18 2.98 74.18 18.22 132.03 47.96 210.82 36.03-67.52-16.95-132.67-46.65-201.96-52.75-10.06-.89-23.71.06-33.13-2.14"/><path fill="#1a222e" d="M1349.85 1711.16c12.29.1 1.53 5.54-2.87 8.23a3 3 0 0 1-.07-.27c-.16-.59-.31-1.19-.47-1.79-.18-.28-.25-.4-.57-.48-.4.11-.15 0-.78.46-1.11-.53-2.69-1.22-3.7-1.88 2.51-1.09 6.13-2.85 8.46-4.27"/><path fill="#090707" d="M1108.5 1695.07c.57.2 1.14.41 1.71.61 66.98 36.6 143.36 63.18 219.14 29.48 5.35-2.41 10.6-5.03 15.74-7.85.63-.46.38-.35.78-.46.32.08.39.2.57.48.16.6.31 1.2.47 1.79.02.09.04.18.07.27-69.68 38.39-139.99 26.12-209.38-6.4-5.81-2.72-27.97-12.6-29.1-17.92m-843.683-584.36c13.022 11.47 24.691 24.81 37.154 36.92 21.32 20.72 43.534 40.7 63.665 62.6 27.816 30.26 47.808 62.76 61.445 101.63 2.768 7.89 6.676 17.45 6.333 25.91-8.338-4.19-16.383-9.63-24.391-14.46-37.645-22.71-75.872-49.05-103.935-83.34-30.972-37.85-45.291-80.51-40.271-129.26"/><path fill="#4c5567" d="M270.365 1120.21c4.204 3.5 8.05 7.36 11.876 11.26 13.735 14.01 28.113 27.34 42.081 41.11 1.259.55 1.069.41 1.769 1.66 9.711 8.43 29.688 27.68 37.963 37.57 2.123 1.57 3.243 3.34 4.748 5.48l3.138 3.55c1.094.85.98.73 1.625 1.95l3.322 4.18c.594.5.429.33.901 1.02l3.06 3.98c.601.54.471.44.895 1.14l1.881 2.6c.653.57.617.62 1.115 1.4l1.88 2.61c.61.59.581.47.899 1.13 18.113 22.14 36.831 62.5 42.657 90.92-9.163-13.8-22.207-32.26-33.211-44.28-49.726-54.34-103.855-93.91-126.599-167.28"/><path fill="#323c47" d="M364.054 1211.81c2.123 1.57 3.243 3.34 4.748 5.48-2.599-2.01-4.005-2.51-4.748-5.48"/><path fill="#4c5567" d="M266.233 1122.46c4.327 3.23 10.987 24.39 14.027 30.67 5.917 12.22 13.132 24.31 21.1 35.32 36.794 50.88 91.143 88.14 124.117 141.64-39.094-20.32-89.588-57.05-117.671-90.92-26.493-31.96-45.434-74.38-41.573-116.71"/><path fill="#090707" d="m1786.45 1108.77 1.06 1.47c2.7 19.07.42 40.11-4.22 58.71-19.49 78.13-99.22 126.38-163.61 165.07l-.72-.26c-.12-.56-.34-1.11-.36-1.68-.15-5.82 5.35-20.39 7.27-26.22 19.06-57.85 59.22-98.46 101.93-139.61 19.82-18.88 39.38-38.04 58.65-57.48"/><path fill="#4c5567" d="M1671.1 1228.97c22.05-26.32 46.12-48.95 70.94-72.55 12.77-12.14 26.7-27.12 39.81-38.48-17.49 69.26-90.74 124.11-135.88 177.19-6.61 7.77-14.21 19.1-20.3 27.63-3.87-11.03 22.7-61.63 29.86-71.98.25-.68.22-.54.78-1.15 2.32-4.47 10.61-15.38 13.98-19.64.36-.62.28-.6.81-1.02"/><path fill="#4c5567" d="m1783.69 1122.15 2.44 2.81c-.26 14.55-2.42 31.82-6.13 45.87-18.2 68.88-93.3 121.56-152.26 155.06 11.21-19.49 29.69-39.08 45-55.44 44.25-47.26 90.7-84.64 110.95-148.3"/><path fill="#323c47" d="M1783.69 1122.15c.2-1.24.29-4.03 1.62-4.46.95.58.79 6.35.82 7.27z"/><path fill="#090707" d="m483.389 564.676.928.296.677 1.476c-3.681 12.943-8.889 25.626-12.471 38.485-9.82 35.254-11.757 71.401-14.749 107.666-3.895 47.22-22.215 85.357-48.986 123.674l-3.172-9.699c-21.119-101.579-25.604-202.652 77.773-261.898"/><path fill="#4c5567" d="M397.295 763.407c-3.943-60.959-1.453-110.564 41.391-159.276 10.126-11.514 23.211-23.711 36.937-30.734-51.63 65.667-47.619 112.899-55.066 189.339a468 468 0 0 1-11.302 67.117c-4.969-19.271-9.485-44.778-11.68-64.634-.303-.971-.297-.81-.28-1.812"/><path fill="#4c5567" d="M477.721 575.777c.576 3.506-12.314 45.038-13.735 54.009-11.048 69.718-4.101 130.983-48.934 192.152-1.24-5.542 6.497-39.694 7.271-48.938 6.354-75.8 5.644-134.134 55.398-197.223"/><path fill="#090707" d="M1566.72 563.544c24.61 10.627 52.61 39.339 66.58 61.851 36.74 59.201 27.77 133.75 12.88 198.289-.57 3.172-2.21 8.864-3.05 12.187-8.02-8.699-14.9-21.715-20.64-31.766-31.25-54.641-26.67-108.207-35.52-167.52-3.92-26.327-12.51-47.798-20.25-73.041"/><path fill="#4c5567" d="M1577.5 572.938c18.45 10.546 39.49 32.379 50.98 50.014.66.468.63.471 1.21 1.084a164.9 164.9 0 0 1 24.72 69.749c.3.978.29.816.26 1.822 4.15 39.47-.42 94.695-12.76 132.713-5.71-23.951-9.14-41.514-11.3-66.205-4.04-46.266-3.18-95.038-21.54-138.442-8.09-19.107-19.29-34.298-31.57-50.735"/><path fill="#4c5567" d="M1574.37 576.647c6.59 3.806 14.24 17.259 18.61 23.716 32.22 47.541 29.57 107.327 34.86 162.09 1.98 20.464 5.83 39.503 9.07 59.725-4.48-3.93-9.42-15.395-12.55-20.757-30.25-51.86-26.56-104.803-34.12-161.471-2.61-19.608-10.1-43.836-15.87-63.303"/><path fill="#090707" d="M1525.01 887.452c6.05 3.614 19.15 17.249 25.12 22.482 69.77 61.147 138.83 129.246 113.13 231.886-1.15 3.6-.09 2.7-2.43 4.26-2.97-2.68-9.8-20.01-12.19-24.69-4.74-9.23-10.1-18.12-16.02-26.64-43.26-63.24-111.99-122.702-107.61-207.298"/><path fill="#4c5567" d="M1528.95 912.545c-.44-1.935-2.26-20.354 1.32-10.397 39.41 74.804 120.91 139.292 127.13 229.752-35.04-70.35-99.49-118.74-123.58-194.318-2.01-6.305-5.02-18.571-4.87-25.037"/><path fill="#323c47" d="M1528.95 912.545c-.44-1.935-2.26-20.354 1.32-10.397-1.56 3.919-.47 6.01-1.32 10.397"/><path fill="#4c5567" d="M1530.59 896.784c8.05 5.459 13.6 11.069 20.57 17.719.71.375.46.206 1.19.816l2.2 1.849c2.17 1.677 6.01 4.651 7.61 6.829l6.47 6.07c2.29 1.706 4.87 3.599 6.5 5.986 2.93 2.68 8.13 7.15 10.58 9.991 4.32 3.391 10.81 9.788 14.13 14.19 30.1 31.244 61.25 73.906 64.58 118.566.31 1 .3.82.24 1.85 3.03 24.46 1.61 37.08-3.86 60.36-3.8-72.93-44.3-123.11-86.68-178.316-14.13-18.403-33.52-45.097-43.53-65.91"/><path fill="#323c47" d="M1585.71 946.044c4.32 3.391 10.81 9.788 14.13 14.19-2.55-1.878-11.36-10.123-13.05-12.653zm-31.16-28.876c2.17 1.677 6.01 4.651 7.61 6.829-2.76-.529-5.75-4.615-7.61-6.829m14.08 12.899c2.29 1.706 4.87 3.599 6.5 5.986-2.97-.931-4.54-3.465-6.5-5.986"/><path fill="#090707" d="M1779.16 945.735c11.19 11.723 16.16 41.759 16.46 57.565 1.65 85.33-69.84 144.19-123.89 200.26-3.15 3.19-6.23 5.9-9.93 8.44 1.13-17.8 2.53-34.98 7.28-52.27 14.31-52.18 49.1-95.37 76.26-141.19a378.5 378.5 0 0 0 33.82-72.805"/><path fill="#af6129" d="M1782.87 967.511c.04-1.055-.22-6.301.69-6.768 1 .402 1.51 1.459 2.22 2.422 31.15 104.465-50.43 171.015-115.47 237.125 5.33-13.46 9.21-22.98 16.47-35.78 34.65-61.11 95.65-123.26 96.09-196.999"/><path fill="#a65922" d="M1782.87 967.511c.04-1.055-.22-6.301.69-6.768 1 .402 1.51 1.459 2.22 2.422z"/><path fill="#af6129" d="M1777.59 959.753c.46.46.53.483.87 1.223 2.45 5.41.9 14.707.29 20.478-6.84 64.996-60.11 123.846-92.9 178.636-7.9 13.21-13.64 26.95-19.3 41.2l-.9.14c.58-66.59 47.29-123.85 80.07-178.22a438 438 0 0 0 31.87-63.457"/><path fill="#090707" d="m519.011 895.529 9.38-8.953c-.057 6.528.035 13.176-.557 19.663-5.168 72.075-68.337 134.311-108.206 189.931-11.691 16.31-20.261 34.21-28.784 52.27a151.4 151.4 0 0 1-6.992-46.94c1.269-96.3 74.199-146.553 135.159-205.971"/><path fill="#4c5567" d="m524.711 898.405 1.316 1.456c-.822 3.053-1.459 9.74-1.992 13.227-13.745 89.842-89.768 142.502-129.589 219.962 10.624-62.76 41.092-110.76 80.055-159.363 20.35-25.386 35.911-45.901 50.21-75.282"/><path fill="#4c5567" d="M523.117 895.807c-10.814 24.881-28.715 48.317-45.595 69.27-33.464 41.543-62.794 82.253-78.356 134.223-3.917 13.08-5.662 23-8.734 35.95-1.904-8.03-3.751-15.39-3.715-23.71-.971-5.82-.961-8.26.011-14.08 2.468-77.93 55.089-127.182 108.847-176.192 9.182-8.371 18.255-17.329 27.542-25.461"/><path fill="#323c47" d="M386.717 1111.54c-.971-5.82-.961-8.26.011-14.08.262 4.98.225 9.1-.011 14.08"/><path fill="#090707" d="m1454.45 1368.78.98 1.06c.51 11.87-1.28 24.32-2.78 36.1-5.68 44.39-16.36 90.34-40.61 128.51-27.19 42.79-68.14 65.86-116.79 76.81l-1.08-1.67c15.68-19.69 31.41-39.21 43.91-61.15 32.6-57.22 43.58-101.23 89.6-153.05 8.21-9.25 16.93-19.1 26.77-26.61"/><path fill="#af6129" d="M1451.56 1381.72c1.48 10.84-1.14 22.97-2.77 33.71-6.42 42.12-17.11 84-40.87 120.03a164.1 164.1 0 0 1-104.09 70.5l.1-.83c12.93-5.64 25.16-17.74 35.44-27.43 44.2-41.67 68.29-94.98 92.12-149.69 6.41-14.7 11.53-31.42 19.45-45.24.2-.36.42-.7.62-1.05"/><path fill="#af6129" d="m1448.76 1377.07.59.93c-6.72 18.37-15.08 36.35-22.95 54.26-23.7 54-47.15 102.54-90.2 144.18-8.97 8.67-18.48 18.08-29.09 24.68l-.78-1.46c5.08-8.19 11.65-15.25 17.15-23.13 8.7-12.45 16.26-25.91 23.58-39.19 10.88-19.73 19.68-40.51 29.73-60.66 19.04-38.17 41.94-69.44 71.97-99.61m-852.517-4.95c4.118 3.67 8.33 7.77 12.368 11.57 17.718 17.97 38.364 39.7 50.981 61.72 30.313 52.9 46.89 104.16 86.798 151.89 4.524 5.51 9.621 11.44 13.56 17.32-7.033-1.22-14.457-2.62-21.196-5.05-101.768-25.52-135.676-130.61-141.747-223.9z"/><path fill="#af6129" d="M608.611 1383.69c17.718 17.97 38.364 39.7 50.981 61.72 30.313 52.9 46.89 104.16 86.798 151.89l-1.437 2.88 2.48 3.49-.485.55c-62.792-39.72-92.607-101.66-120.833-167.36-3.58-8.34-20.066-44.84-21.96-51.94l.913.08z"/><path fill="#090707" d="M608.611 1383.69c17.718 17.97 38.364 39.7 50.981 61.72 30.313 52.9 46.89 104.16 86.798 151.89l-1.437 2.88c-17.406-22.37-29.51-38.86-42.515-64.42-23.748-46.67-41.442-94.17-78.566-132.64-5.06-5.25-13.035-13.99-18.804-18.12z"/><path fill="#090707" d="M596.243 1372.12c4.118 3.67 8.33 7.77 12.368 11.57l-3.543 1.31-.913-.08c1.894 7.1 18.38 43.6 21.96 51.94 28.226 65.7 58.041 127.64 120.833 167.36l.485-.55-2.48-3.49 1.437-2.88c4.524 5.51 9.621 11.44 13.56 17.32-7.033-1.22-14.457-2.62-21.196-5.05 2.94-1.07 4.109-.35 7.083-.71-3.108-1.38-4.568-1.57-7.947-2.24l1.786-3.34c-63.428-42.9-92.059-108.95-121.493-176.22-3.631-8.3-13.613-35.02-17.967-40.17l-3.209-1.22z"/><path fill="#a65922" d="M739.676 1603.28c2.204 1.33 7.134 3.18 6.161 5.58-3.108-1.38-4.568-1.57-7.947-2.24z"/><path fill="#090707" d="m597.007 1385.67 3.209 1.22c.431 30.48 7.836 60.29 16.014 89.48 17.616 62.86 56.423 112.38 121.66 130.25 3.379.67 4.839.86 7.947 2.24-2.974.36-4.143-.36-7.083.71-101.768-25.52-135.676-130.61-141.747-223.9M269.029 960.777c1.789-.929 2.78-1.474 4.487-2.517 2.222 3.009 3.288 7.085 4.676 10.671l2.021-1.716c20.584 48.815 38.574 73.965 66.643 117.765.96 1.39.978 1.29 1.483 2.78 32.725 53.55 34.733 65.72 41.873 127.71-11.894-9.26-23.683-22.77-34.338-33.78-58.115-60.09-126.492-132.1-89.753-222.704 1.045.852 1.712 1.136 2.908 1.791"/><path fill="#af6129" d="m267.999 963.163 2.17 3.834c-.522 7.176 1.272 21.144 2.44 28.173 8.802 52.98 42.373 92.77 70.818 136.16 15.028 22.93 28.957 46.83 39.149 72.49-6.183-4.84-11.73-11.08-17.261-16.68-56.598-57.27-134.751-136.33-97.316-223.977"/><path fill="#af6129" d="M273.516 958.26c2.222 3.009 3.288 7.085 4.676 10.671l2.021-1.716c20.584 48.815 38.574 73.965 66.643 117.765.96 1.39.978 1.29 1.483 2.78l-.124 4.44c22.572 37.62 35 65 37.78 110.4-4.396-7.89-9.423-19.46-13.69-27.91a482 482 0 0 0-20.354-35.6c-32.749-52.67-86.602-112.75-78.435-180.83"/><path fill="#090707" d="M280.213 967.215c20.584 48.815 38.574 73.965 66.643 117.765l-3.059.09c-2.616-4.67-6.66-10.51-9.72-14.96-22.418-32.58-40.422-64.77-55.885-101.179z"/><path fill="#4f352d" d="M346.856 1084.98c.96 1.39.978 1.29 1.483 2.78l-.124 4.44c-1.529-2.34-2.952-4.75-4.418-7.13z"/><path fill="#a65922" d="M269.029 960.777c1.061 3.035.969 3.037 1.14 6.22l-2.17-3.834z"/><path fill="#090707" d="M1768.72 1245.73c3.48 20.63-7.59 48.42-17.24 66.13-40.3 73.97-127.66 106.3-204.07 128.41l-.1-1.53c2.56-6.15 7.42-12.03 11.07-17.64 36.69-56.3 97.09-87.14 150.17-125.42a623 623 0 0 0 60.17-49.95"/><path fill="#af6129" d="m1764.64 1259.93.69.92c.28 18.03-12.67 45.12-22.71 60.17-9.83 14.73-20.97 28.04-34.37 39.65-35.62 30.88-102.63 63.75-149.35 72.97l-.46-.35c6.88-8.77 27.74-22.28 37.47-29.32 59.3-42.91 131.44-78.16 168.73-144.04"/><path fill="#af6129" d="m1761.93 1256.32.54.43c-18.89 48.79-96.82 95.14-139.05 124.12-22.2 15.23-43.78 30.88-64.56 48.02l-.81-.8c1.92-6.09 8.22-13.39 12.2-18.59 36.13-47.31 89.32-74.91 136.65-109.25 19.09-13.86 36.65-29.19 55.03-43.93"/><path fill="#090707" d="M283.139 1248.69c20.044 20.59 43.015 39.08 66.494 55.58 56.569 39.77 123.701 75.18 155.075 140.41-9.021-2.03-18.101-5.31-26.922-8.12-53.887-17.2-113.556-43.73-152.179-86.13-25.332-27.82-44.112-63.14-42.468-101.74"/><path fill="#af6129" d="M286.091 1263.56c8.492 6.48 14.265 20.4 21.058 28.91 10.405 13.03 23.531 25.46 36.336 36.17 23.32 19.5 49.526 35.53 74.749 52.42 25.769 17.25 50.57 35.53 73.701 56.18-11.022-1.61-22.392-6.24-32.817-10.15-35.948-13.48-72.022-29.52-102.879-52.72-36.873-27.72-63.591-64.6-70.148-110.81"/><path fill="#af6129" d="M288.834 1258.67c7.537 3.57 30.386 26.69 39.472 33.49 51.449 38.54 111.314 67.97 151.719 119.4 5.327 6.78 11.196 13.83 14.518 21.83-12.242-6.34-32.518-25.46-45.642-34.84-50.992-36.42-134.883-81.63-160.067-139.88"/><path fill="#090707" d="M507.509 1138.57c4.775 4.84 6.217 13.82 7.852 20.31 16.3 64.77-4.831 127.86-10.688 192.35-2.158 23.76-1.899 46.89.869 70.61-6.441-5.49-12.139-11.85-17.346-18.5a168.15 168.15 0 0 1-31.776-65.64c-13.343-54.04 5.418-107.21 28.493-155.67 6.992-14.69 14.194-29.53 22.596-43.46"/><path fill="#af6129" d="M497.257 1400.09c-5.927-10.18-10.812-28.54-13.574-39.86-13.82-56.65 1.087-112.26 15.132-167.08 3.857-15.05 5.775-30.62 10.037-45.67 20.223 62.52 5.984 108.1-2.915 169.38a541 541 0 0 0-6.024 75.91c-1.006 2.59-1.433 4.81-2.656 7.32"/><path fill="#af6129" d="m501.441 1155.85.553-1.18c.301-.66.643-1.65 1.419-1.9 1.035.65-1.02 8.55-1.282 9.7-2.336 14.92-7.857 36.03-11.561 51.1-13.27 54.02-22.663 102.24-7.166 157.39 3.311 11.78 7.825 23.61 12.026 35.25-66.84-75.93-40.503-171.84 6.011-250.36"/><path fill="#834519" d="m501.441 1155.85.553-1.18c.301-.66.643-1.65 1.419-1.9 1.035.65-1.02 8.55-1.282 9.7-.251-2.21-.481-4.41-.69-6.62"/><path fill="#a65922" d="M499.913 1392.77c.455 5.89 1.006 10.57 1.65 16.45-1.941-3.44-3.484-5.16-4.306-9.13 1.223-2.51 1.65-4.73 2.656-7.32"/><path fill="#090707" d="M1544 1133.59c6.17 6.69 10.65 18.03 14.71 26.25 16.82 34.08 33.12 68.78 39.34 106.62 8.2 49.86-3.02 89.8-32.07 130.15-5.63 7.63-11.58 14.76-18.29 21.45 1.23-23.31 3.08-45.56.83-68.94-7.2-74.65-32.35-141.18-4.52-215.53"/><path fill="#af6129" d="M1544.22 1141.79c15.62 91.93 51.7 162.69 11.21 255.29-1.33-1.39-1.67-1.54-2.46-3.05.23-21.69-1.21-43.37-4.3-64.85-6.96-49.24-19.75-97.52-13.61-147.71 1.69-13.74 5.36-26.45 9.16-39.68"/><path fill="#af6129" d="M1552.43 1154.23c31.54 61.52 59.55 121.79 37.4 193.4-6.57 21.25-18.65 37.99-32.82 54.88 25.54-70.56 25.68-107.18 7.32-181.19-4.22-17.02-11.28-43.53-13.69-60.39.59-2.79.83-3.97 1.79-6.7"/><path fill="#834519" d="M1552.97 1394.03c.79 1.51 1.13 1.66 2.46 3.05-.28 1.04-1.98 9.4-2.93 9.19l-.25-1.27-.04.3c-.35-3.6.45-7.64.76-11.27"/><path fill="#a65922" d="M1550.64 1160.93c-.23-1.38-1.94-10.31-1.01-11.04 1.33.42 2.3 3.32 2.8 4.34-.96 2.73-1.2 3.91-1.79 6.7"/><path fill="#090707" d="m761.906 540.208.545.895c-1.919 7.325-3.314 10.76-6.876 17.409-38.858 72.52-113.239 95.957-185.51 121.382-21.942 7.72-42.874 18.257-65.788 25.361l-.794-.91c.098-.863.176-2.001.565-2.769 37.325-73.806 122.367-100.396 192.806-131.613 23.07-10.224 43.314-19.821 65.052-29.755"/><path fill="#af6129" d="m754.044 551.991.675 1.334c-2.227 5.592-5.114 9.688-8.214 14.764-38.337 62.782-109.86 84.786-175.155 108.412a2308 2308 0 0 0-56.026 21.646l-.911-1.039c42.213-37.174 105.381-62.646 155.01-88.781 33.96-17.884 55.14-32.238 84.621-56.336"/><path fill="#af6129" d="m752.114 547.073.744.82c-5.262 6.65-17.598 15.101-24.721 20.738-61.969 49.038-160.727 73.001-216.193 127.578l-.405-.086-.42-1.085c39.218-65.893 116.753-92.789 184.067-121.608a992 992 0 0 0 56.928-26.357"/><path fill="#090707" d="M1290.17 540.797c7.45 2.131 18.2 7.848 25.43 11.343 71.13 34.354 154.42 55.557 209.46 115.452 9.39 10.222 17.41 25.321 23.63 37.646l-1-.283-1.64-.493c-6.68-1.939-12.44-4.169-18.81-7.014-72.31-32.316-157.57-47.209-210.93-111.021-9.41-11.257-23.23-31.199-26.14-45.63"/><path fill="#af6129" d="M1297.93 551.742c2.6 1.274 16.53 11.997 19.71 14.363 11.18 8.335 21.57 15.623 33.66 22.733 56.68 33.317 119.73 57.858 172.98 96.626 4.88 3.556 14.32 10.3 18.13 14.465-1.28-.277-3.62-.729-4.8-1.278-85.95-40.054-193.63-52.792-239.68-146.909"/><path fill="#af6129" d="m1299.97 548.652.48.133c70.33 33.459 201.73 71.699 238.23 143.716-5.09-1.922-28.6-20.502-35.1-24.9-61.73-41.773-149.03-68.196-203.61-118.949"/><path fill="#090707" d="M569.963 776.183c2.537 2.925-3.453 18.819-5.099 22.908-32.642 81.073-109.787 132.05-167.39 195.038l-.714-.808c-2.173-10.799 1.534-37.889 3.976-48.926 17.331-78.32 105.401-127.822 169.227-168.212"/><path fill="#af6129" d="m562.69 784.076.557.882c-3.826 6.016-8.978 10.812-13.505 16.276-39.02 47.097-91.785 81.429-124.871 133.601-9.423 14.859-16.999 30.59-24.697 46.338l-.731-.323c-1.189-8.651 2.581-31.172 4.774-40.125 16.61-67.823 100.415-122.097 158.473-156.649"/><path fill="#af6129" d="m560.596 793.08 2.846 1.808c-25.189 72.336-107.39 135.057-161.528 189.529 34.082-74.098 68.382-99.58 125.681-154.234 8.569-8.174 24.299-27.226 33.001-37.103"/><path fill="#834519" d="M560.596 793.08c1.162-2.069 2.023-3.554 3.809-5.02 1.092.966-.686 5.822-.963 6.828z"/><path fill="#090707" d="M1482.83 784.091a56 56 0 0 1-1.11-3.574c-2.9-10.587 7.7-1.376 11.17.979 63.07 39.966 142.08 84.258 158.92 163.065 1.25 5.855 3.57 19.035 3.06 24.874q.525 12.44.54 24.891c-3.06-3.217-5.86-6.127-8.58-9.653-12.77-15.397-25.97-27.375-40.16-41.156-52.67-51.151-100.46-86.55-123.84-159.426"/><path fill="#af6129" d="M1489.51 783.132c10.74 5.644 21.32 12.913 31.69 19.291 57.83 35.557 130.36 90.243 130.65 165.63a97 97 0 0 1-2.72 4.731c-33.9-84.076-107.94-120.467-159.62-189.652"/><path fill="#af6129" d="M1487.19 785.899c10.19 12.56 21.64 26.544 33.08 37.81 40.86 40.209 86.11 75.534 114.66 126.377 4.69 8.351 11.61 20.93 13.19 30.479-47.19-51.771-109.28-94.232-145.28-155.68-3.72-6.353-16.71-32.943-15.65-38.986"/><path fill="#090707" d="M1653 978.062c.91-3.199 1.17-5.437 1.87-8.627q.525 12.44.54 24.891c-3.06-3.217-5.86-6.127-8.58-9.653.92-.827 2.99-2.346 2.97-3.783.51-.838 1.41-.782 2.33-.949zm-170.17-193.971a56 56 0 0 1-1.11-3.574c-2.9-10.587 7.7-1.376 11.17.979-4.36 1.795-1.85 2.973-5.7 4.403-1.01-1.428-1.3-2.562-3.2-2.07z"/><path fill="#a65922" d="M1651.85 968.053c.26 4.49.18 5.749 1.15 10.009l-.87 1.879c-.94-2.431-1.83-4.819-3-7.157.95-1.552 1.86-3.13 2.72-4.731"/><path fill="#090707" d="M1675.94 691.38c18.11 10.849 35.04 44.737 40.66 64.909 17.27 61.958-9.96 121.224-39.88 174.386-4.72 8.45-8.82 15.921-14.25 23.976-8.74-30.672-12.21-85.12-4.74-116.647 12.65-53.43 20.39-91.34 18.21-146.624"/><path fill="#af6129" d="M1685.6 704.06c24.57 27.101 35.27 65.071 33.23 101.194-2.27 40.176-16.67 70.312-34.7 105.262-3.05 5.923-13.17 23.279-14.96 28.212l-1.81-2.636c4.8-25.287 9.97-50.505 15.49-75.645 13.1-61.563 22.63-94.482 2.75-156.387"/><path fill="#af6129" d="M1680.2 701.57c3.82 2.59 6.42 14.355 7.74 19.169a173 173 0 0 1 6.44 52.1c-.71 25.065-7.4 53.322-12.59 78.022l-17.08 82.336c-.53 2.766-.6 4.179-2.06 6.631-7.45-19.138-7.42-77.513-2.94-98.057 10.91-50.012 20.13-88.014 20.49-140.201"/><path fill="#834519" d="m1667.36 936.092 1.81 2.636c-.27.426-.55.847-.8 1.288-.12.205-.19.43-.3.638-.22.415-.64 1.069-1.16 1.127a.3.3 0 0 1-.22-.086c-.33-.36-.16-1.251-.08-1.638.1-.525.24-1.041.34-1.566.15-.797.26-1.601.41-2.399"/><path fill="#090707" d="m375.913 692.015.64.832c-.222 22.975-1.539 49.264 2.933 71.883 13.156 66.541 30.622 121.28 9.663 189.445-5.791-6.048-9.188-13.318-13.124-20.675-23.716-44.281-48.579-94.94-45.17-145.884 2.453-36.648 17.706-71.017 45.058-95.601"/><path fill="#af6129" d="M381.788 937.295c-30.406-55.422-62.437-116.633-42.661-181.562 6.389-20.975 14.76-36.018 29.685-51.856-4.478 12.281-9.32 25.557-11.273 38.496-9.559 63.328 20.849 133.6 26.757 194.644z"/><path fill="#af6129" d="M372.5 701.775c1.711 2.72.838 34.501 1.419 40.477 5.771 59.39 30.54 113.459 20.263 174.302-.992 5.877-2.22 19.448-5.132 24.352l-.715-1.914c-10.609-61.56-33.35-130.015-28.508-191.661 1.095-13.929 7.818-32.257 12.673-45.556"/><path fill="#a65922" d="M384.296 937.017c1.805 6.413-.081 5.162-2.508.278z"/><path fill="#fdfdfc" d="m1189.38 1255.96 4.06 1.55c20.8 6.37 41.55 16.48 62.51 23.23l2.38-2.43c6.12 21.53 30.38 115.6 42.14 127.76 5.29 5.48 12.85 9.01 20.52 8.86 6.61-.12 12.83-3.69 17.12-8.56 2.33-2.64 3.97-5.34 3.65-8.99-5.24 1.7-5.9 4.7-12.24 4.83-20.3 1.53-24.11-26.34-10.08-35.34 27.66-17.3 53.91 11.72 46.84 39.78-9.15 36.27-64.78 42.92-86.1 15.87-11-13.95-22.39-37.92-30.89-53.73q-30.345-56.205-59.91-112.83"/><path fill="#090707" d="m1189.38 1255.96 4.06 1.55c23.99 49.49 53.41 98.38 78.73 147.39 2.78 5.38 6.31 10.68 10.04 15.46 17.42 20.87 55.01 21.03 73.04.84 15.88-17.79 10.8-50.01-14.26-56.08-17.53-4.25-35.96 14.25-22.79 30.09 2.42 2.92 1.7 3.27 5.42 4.33 7-4.81 3.41-12.91 13.22-15.76 21.19 4.01.13 42.32-24.52 32.9-29.57-11.3-28.3-49.65-38.66-75.47-6.68-19.49-11.39-40.76-17.71-60.47l2.38-2.43c6.12 21.53 30.38 115.6 42.14 127.76 5.29 5.48 12.85 9.01 20.52 8.86 6.61-.12 12.83-3.69 17.12-8.56 2.33-2.64 3.97-5.34 3.65-8.99-5.24 1.7-5.9 4.7-12.24 4.83-20.3 1.53-24.11-26.34-10.08-35.34 27.66-17.3 53.91 11.72 46.84 39.78-9.15 36.27-64.78 42.92-86.1 15.87-11-13.95-22.39-37.92-30.89-53.73q-30.345-56.205-59.91-112.83"/><path fill="#1a222e" d="M790.84 868.821c3.198-7.506 13.408-16.107 21.612-16.683.888.406 2.831.896 2.866 2.016 1.894 61.048.279 122.694.826 183.926.094 10.47-8.021 16.17-15.146 22.55 6.521.63 13.397 1.86 17.704 6.99 9.666 11.51 1.836 23.79-4.526 34.39-2.906 4.85-2.644 13.11.66 17.56 5.321 7.25 10.953-3.83 16.156-2.68a4.5 4.5 0 0 1 2.869 2.03c3.208 5.1-2.984 11.77-7.314 13.62-13.681 5.85-28.375-5.18-33.617-17.54-1.613-3.8-1.937-6.37-2.327-10.29-.996-2.74-1.404-227.281.237-235.889"/><path fill="#4c5567" d="M790.84 868.821c.831 23.538-1.639 188.519 1.013 193.649 4.361-1.18 4.811.17 9.145-1.84 6.521.63 13.397 1.86 17.704 6.99 9.666 11.51 1.836 23.79-4.526 34.39-2.906 4.85-2.644 13.11.66 17.56 5.321 7.25 10.953-3.83 16.156-2.68a4.5 4.5 0 0 1 2.869 2.03c3.208 5.1-2.984 11.77-7.314 13.62-13.681 5.85-28.375-5.18-33.617-17.54-1.613-3.8-1.937-6.37-2.327-10.29-.996-2.74-1.404-227.281.237-235.889"/><path fill="#090707" d="M800.998 1060.63c6.521.63 13.397 1.86 17.704 6.99 9.666 11.51 1.836 23.79-4.526 34.39-2.906 4.85-2.644 13.11.66 17.56 5.321 7.25 10.953-3.83 16.156-2.68a4.5 4.5 0 0 1 2.869 2.03c3.208 5.1-2.984 11.77-7.314 13.62-13.681 5.85-28.375-5.18-33.617-17.54-1.613-3.8-1.937-6.37-2.327-10.29l.894-1.59c.076.05 4.045 11.52 5.976 14.97.384.71.21.45.84 1.18 5.144 6.95 8.052 9.59 16.352 12.15 3.276-.08 4.82-.03 8.108.21 2.309-1.13 3.209-1.61 5.299-3.08 1.904-1.35 5.174-6.04 2.918-8.17-2.836-2.68-7.528 4.21-11.967 3.61-3.009-.41-4.023-.97-6.384-3.6-4.048-5.25-4.239-14.02-.65-19.77 5.872-9.23 13.212-20.43 4.925-30.69-5.013-6.21-11.179-6.32-18.417-6.89-2.312-.18-4.298-.27-6.644-.57 4.361-1.18 4.811.17 9.145-1.84"/><path fill="#323c47" d="M814.665 1131.42c3.276-.08 4.82-.03 8.108.21-3.859.37-4.319.46-8.108-.21"/><path fill="#090707" d="M1001.13 1751.7c-9.801 1.52-22.329 2.02-31.451-2.38-4.35-2.1-9.579-6.06-10.983-10.83-3.845-13.06-3.135-111.75-1.531-128.16.327-3.34.785-5.93 2.481-8.88 3.423-5.93 9.72-9.99 16.332-11.47 5.408-1.2 19.531-2.87 23.937.35 1.255.91.735 2.66.755 4.07 1.92 50.97-.938 105.81.46 157.3"/><path fill="#4c5567" d="m984.071 1591.51 14.561-.01c-.102 7.18.398 14.07.834 21.23-.014-6.12-.41-12.4 1.204-18.33 1.92 50.97-.938 105.81.46 157.3l-1.165-2.38c-2.632-.78-12.178-.06-16.014-.13-1.52-49.61.002-107.58.12-157.68"/><path fill="#af6129" d="M975.602 1591.99c2.017-.2 2.918-.22 4.941.28 2.124 6.1.857 141.76-.263 155.42l-1.718.99c-3.76-.04-6.69-1.48-10.108-2.93-2.692-2.17-5.532-4.77-7.195-7.84-1.21-2.23-1.839-4.85-2.058-7.37-1.267-14.58-1.557-117.45 1.087-125.58 2.312-7.11 9.086-10.09 15.314-12.97"/><path fill="#4c5567" d="M794.285 1821.88c4.632.27 11.922.48 16.146-1.39 28.5-12.64 37.022-49.54 62.101-70.06 26.974-22.08 41.408-26.58 72.459-37.99l-.001 25.54-18.18 8.15c-18.022 10.85-31.466 19.77-45.501 36.02-22.811 26.42-43.983 78.43-89.378 66.58a40.33 40.33 0 0 1-24.759-18.66c-10.355-17.86-1.857-33.55 16.821-39.68 17.221 4.93 24.586 17.5 10.292 31.49"/><path fill="url(#f)" d="m921.491 1744.45 1.865-2.16c1.481 1.43 2.151 2.24 3.454 3.84-18.022 10.85-31.466 19.77-45.501 36.02-22.811 26.42-43.983 78.43-89.378 66.58a40.33 40.33 0 0 1-24.759-18.66c-10.355-17.86-1.857-33.55 16.821-39.68 17.221 4.93 24.586 17.5 10.292 31.49l-4.919-1.18-.844.77.695 1.26c.161 6.91 6.112 17.85 9.212 24.04 34.836 1.62 47.224-19.76 64.361-44.71a235 235 0 0 1 21.377-27.17c13.3-14.53 24.851-19.18 37.324-30.44"/><path fill="url(#g)" d="M794.285 1821.88c4.632.27 11.922.48 16.146-1.39 28.5-12.64 37.022-49.54 62.101-70.06 26.974-22.08 41.408-26.58 72.459-37.99l-.001 25.54-18.18 8.15c-1.303-1.6-1.973-2.41-3.454-3.84l-1.865 2.16c-.446-7.67-1.089-11.9-2.454-19.49-15.039 7.28-22.752 10.94-36.238 20.6-.673.36-.413.18-1.11.8l-3.885 3.23c-.687.35-.483.23-1.092.8-5.319 4.54-11.315 10.01-15.608 15.56-1.414 1.06-1.265 1.12-2.397 2.84l-1.165 1.63c-.601 1.3-1.301 2.07-2.167 3.24-.495 1.16-1.154 1.85-1.934 2.87-.54 1.24-1.204 1.99-2.008 3.1-.617.58-.554.57-1.005 1.33-14.299 21.5-29.906 52.4-61.211 41.77l-.695-1.26.844-.77z"/><path fill="#090707" d="M1054.17 1589.36c12.22-.18 26.65-1.93 36.49 6.85 4.49 4 5.23 12.92 5.54 18.7 1.14 20.96.17 42.53.15 63.55-.02 15.87 2 42.77-1.39 57.44-.92 3.95-4.33 7.08-6.99 10.02-10.15 8.1-22.26 6.26-34.45 6.07.99-17.5.33-35.38.35-52.91z"/><path fill="#af6129" d="M1056.72 1591.91c17.74-.11 36.94-2.47 36.86 21.17-.14 39.7 1.29 79.99-.67 119.61-.45 9.12-10.62 14.99-18.66 16.77-5.17.76-12.51 1.04-17.61.01z"/><path fill="#834519" d="M1056.64 1749.47c6.16-.79 11.41-.41 17.61-.01-5.17.76-12.51 1.04-17.61.01"/><path fill="#4c5567" d="M1011.65 1589.23c10.68-.24 21.41-.09 32.1-.11.42 28.79.08 57.64.09 86.44.01 25.56.45 51.23-.39 76.77-10.79.22-21.57.25-32.36.09l.1-102.55c.02-20.18-.41-40.49.46-60.64"/><path fill="#090707" d="M1108.15 1711.45c8.32 2.22 17.71 4.78 25.53 8.37l1.04.45c22.31 9.69 36.34 17.8 53.96 35.85 19.14 19.61 28.55 54.3 56.88 62.26 3.76 1.06 10.56.64 14.58.47 1.4-.78 8.29-3.82 8.53-.6.81 10.87-7.43 16.62-8.56 27.42-45.33 8.53-63.51-37.31-86.97-64.7-14.63-17.09-27.13-25.91-46.25-37.08-6.8-4.02-11.28-6.1-18.75-8.63-.05-7.94-.04-15.87.01-23.81"/><path fill="#1a222e" d="M1108.15 1711.45c8.32 2.22 17.71 4.78 25.53 8.37l1.04.45c-4.32 2.33-1.02 2.04-2.38 5.9-2.12 6.03-3.89 11.51-5.45 17.72-6.8-4.02-11.28-6.1-18.75-8.63-.05-7.94-.04-15.87.01-23.81"/><path fill="#4c5567" d="M1136.97 1723.65c15.2 6.72 23.17 11.82 36.16 21.86.69.39.53.29 1.15.87a131.9 131.9 0 0 1 32.48 39.57c.66.61 1.28 1.81 1.73 2.56.83.91 1.4 2.07 2.05 3.14.8.81 1.38 1.95 1.99 2.95.66.63.66.72 1.18 1.53l1.9 2.59c.65.53.56.5 1.03 1.24 4.38 4.43 8.87 9.11 13.3 13.45.69.41.68.32 1.1.84 13.56 8.96 18.57 7.84 34.19 6.39-5.26 18.9-10.77 29.21-31.97 20.26-30.21-12.74-40.37-44.39-61.75-66.79-12.71-13.33-25.82-22.16-41.11-32 1.69-5.77 4.45-12.72 6.57-18.46"/><path fill="#1a222e" d="M1106.18 865.513c6.84-11.952 12.39-14.002 24.97-17.3 2.15 45.521-.4 95.35.4 141.3.28 16.317.01 36.557-.33 53.067-.15 7.03-12.52 11.8-13.96 17.67 2.54.12 3.34.35 5.88.8-5.54.43-11.1.54-16.65.32-.12 6.3.32 10.04-1.06 16.2.11-69.74-.92-142.659.75-212.057m-185.033-16.406c12.907 3.192 25.11 7.191 25.486 22.767.525 21.734.283 43.639.29 65.373l.02 126.753-1.611-.35c-7.111-2.57-11.071-2.43-18.21-.64l-.503-1.52c3.323-.89 5.866-1.59 9.253-2.14-7.202-6.08-14.559-10.62-14.579-20.84-.118-62.948-1.008-126.484-.146-189.403M159.068 1066.34c-.565-11.61-.071-28.12-.057-40l.11-78.96.088-47.571c.063-24.073-2.9-38.533 25.808-43.088l-.382 131.272c-.119 19.197.401 39.567-.681 58.717-.435 7.72-7.927 13.3-13.685 17.71-1.946 1.76-1.812 1.61-4.418 2.41-1.93.16-3.815.21-5.748.29zM611.006 851.7c11.571 2.136 24.045 6.579 24.574 20.067.809 20.643.404 42.014.399 62.667l.006 129.636c-6.569-.38-4.975-1.09-12.866-.76l.646-2.72c-1.022-3.46-8.311-8.39-12.625-14.8-.985-19.39-1.044-40.61-.705-60.062.776-44.499-.521-89.595.571-134.028m1264.784.895c12.35 2.517 24.21 5.931 24.86 21.347.57 13.696.19 27.622.19 41.351l-.05 78.201-.13 58.236c-.02 6.97.26 24.26-.51 30.72-1.01-8.14-.32-15.37-.66-23.38 0 6.05.57 3.94-3.23 4.62q-4.92.12-9.84-.03c1.41-.32 5.64-.86 6.67-1.18-1.34-.78-2.41-1.36-3.81-2.08-6.07-5.03-9.51-8.18-13.75-15.2-.66-63.811.2-128.679.26-192.605m-458.46 177.695-.28-107.554c-.01-17.232-.66-36.052.68-53.221 1.1-14.171 12.11-16.728 24.42-16.975l.1 124.741c.03 19.118.91 48.239-.27 66.619-3.32 5.49-13.19 15.52-12.76 17.38-2.5 1.66-6 1.29-8.69.34-5.7-6.66-.45-23.54-3.2-31.33m-179.17 15.46c-.94-13.69-.48-30.45-.43-44.44l.17-73.191-.1-48.696c-.02-6.852-.45-21.543.66-27.625 5.14-1.512 13.43 2.543 17.07 6.068a20.4 20.4 0 0 1 5.72 10.679c1.27 6.618 1.09 39.685 1.16 48.33q.51 55.205.21 110.415c-2.37 6.91 1.09 31.59-1.38 38.03-2.92-1.41-5.5-3.03-8.72-3.43l-3.73-.44.05-1.55.15-1.93c-3.78-3.29-8.08-8.57-10.83-12.22"/><path fill="#090707" d="M1417.33 1030.29c2.75 7.79-2.5 24.67 3.2 31.33 2.69.95 6.19 1.32 8.69-.34 4.85-.23 12.52.98 16.69 4.06 18.48 13.68-18.61 44.37-2.19 54.88 6.95.21 11.28-6.1 16.59-3.3 2.87 8.45-2.13 17.47-11.77 16.86-8.53-.53-13.74-3.1-20.26-8.43-10.95-8.96-11.33-23.68-11.32-36.67.07-19.43.22-38.92.37-58.39"/><path fill="#4c5567" d="M1419.61 1063.97c8.41-.37 15.01-1.38 22.49 2.53 2.49 1.97 2.46 1.93 4.34 4.42 9.24 22.07-17.63 24.75-6.75 49.14 1.35.8 1.25.86 2.07 2.3 8.29 2.37 6.94-.42 13.82-3.39l.02.03c.96-.27.52-.23 1.31-.2 3.76 2.5.27 8.46-2.95 10.12-11.43 6.33-23.16-2.73-29.04-12.47-8.24-13.64-5.33-36.44-5.31-52.48m-492.488-.96c7.139-1.79 11.099-1.93 18.21.64l1.611.35c-.134 16.44 2.722 42.52-6.19 56.38-5.74 8.94-20.355 16.15-30.744 12.5-5.729-1.2-10.155-14.82-3.95-17.07 2.774-1.01 12.368 13.07 18.079-.29 2.772-8.86-6.058-19.49-9.438-27.5-4.187-9.92-.666-22.04 10.14-25.87l1.779-.66z"/><path fill="#090707" d="M946.943 1064c-.134 16.44 2.722 42.52-6.19 56.38-5.74 8.94-20.355 16.15-30.744 12.5-5.729-1.2-10.155-14.82-3.95-17.07 2.774-1.01 12.368 13.07 18.079-.29 2.772-8.86-6.058-19.49-9.438-27.5-4.187-9.92-.666-22.04 10.14-25.87l1.779-.66.503 1.52c-2.382 1.35-3.215 1.94-5.351 3.54-.917.66-.706.45-1.342 1.38-15.957 20.68 14.786 31.5 4.921 50.67-3.204 6.23-11.111 6.84-16.266 1.83-6.701-4.84-3.18 10 3.029 10.19 38.972 1.17 32.135-37.89 33.219-66.97z"/><path fill="#4c5567" d="M601.801 1078.75c4.183-13.71 7.548-16.93 21.964-18.16l-.646 2.72c7.891-.33 6.297.38 12.866.76.122 5.42.251 13.89-.173 19.16.058 12.96 1.663 27.63-6.386 38.43-7.811 10.49-21.099 16.71-32.884 9.3-5.903-3.71-5.574-14.82-.38-14.93 6.255-.14 7.53 12.24 16.249.62 5.844-7.98-2.531-16.69-5.89-23.83-2.457-5.22-3.311-8.3-4.72-14.07"/><path fill="#090707" d="M601.801 1078.75c4.183-13.71 7.548-16.93 21.964-18.16l-.646 2.72c-26.266 1.89-19.124 23.9-8.64 38.27 4.231 5.8 3.301 11.51-.443 17.58l-.587.97c-.29.6-.34.54-.926.99-4.896 3.04-6.039 3.68-11.199 1.78-.904-.79-1.27-1.02-1.959-1.97-2.143-1.64-4.771-2.4-4.578.97 1.828 15.41 22.187 9.29 30.244 1.12 13.063-13.25 4.277-28.86 10.781-39.79.058 12.96 1.663 27.63-6.386 38.43-7.811 10.49-21.099 16.71-32.884 9.3-5.903-3.71-5.574-14.82-.38-14.93 6.255-.14 7.53 12.24 16.249.62 5.844-7.98-2.531-16.69-5.89-23.83-2.457-5.22-3.311-8.3-4.72-14.07"/><path fill="#4c5567" d="M1123.14 1061.05c5.15.06 9.95 3.31 13.1 7.33 7.44 9.52 2 19.26-3.14 28.23-6.61 11.54-9.43 22.85 6.68 24.8l1.38-2.04c8.45-14.34 14.55 13.13-2.66 13.7-31.92 1.07-33.9-31.68-33.07-55.5 1.38-6.16.94-9.9 1.06-16.2 5.55.22 11.11.11 16.65-.32"/><path fill="#090707" d="M1123.14 1061.05c5.15.06 9.95 3.31 13.1 7.33 7.44 9.52 2 19.26-3.14 28.23-6.61 11.54-9.43 22.85 6.68 24.8 1.93 4.78-9.25 1.67-12.09-2.77-11.33-17.72 21.88-34.45 3.72-51.25-6.07-5.63-14.72-4.07-22.34-3.51-.56 18.42-5.51 35.68 5.22 53.16 4.29 10.42 24.48 20.32 32.09 8.39 5.39-8.45-3.37-6.13-5.22-6.06 8.45-14.34 14.55 13.13-2.66 13.7-31.92 1.07-33.9-31.68-33.07-55.5 1.38-6.16.94-9.9 1.06-16.2 5.55.22 11.11.11 16.65-.32"/><path fill="#4c5567" d="M170.269 1064.42c12.122 2.67 24.51 7.43 22.416 22.58-1.53 11.07-16.847 22.69-8.893 35.02 7.255 11.25 11.771-8.3 17.531-1.36a7.3 7.3 0 0 1 1.54 5.84c-3.206 18.27-31.492 12-38.338-4.04-7.812-18.3-5.561-36.79-5.457-56.12l1.035.78c1.933-.08 3.818-.13 5.748-.29 2.606-.8 2.472-.65 4.418-2.41"/><path fill="#090707" d="M170.269 1064.42c12.122 2.67 24.51 7.43 22.416 22.58-1.53 11.07-16.847 22.69-8.893 35.02 7.255 11.25 11.771-8.3 17.531-1.36a7.3 7.3 0 0 1 1.54 5.84c-3.206 18.27-31.492 12-38.338-4.04-7.812-18.3-5.561-36.79-5.457-56.12l1.035.78c-1.116 6.03.249 14.39.428 20.93.456 16.59.238 30.64 14.435 42.47 7.316 6.1 26.373 6.83 25.048-7.45-2.822-5.35-6.959 6.47-13.06 4.49-8.051-2.6-9.718-16.35-5.752-22.4 12.634-19.29 15.249-36.48-15.351-38.33 2.606-.8 2.472-.65 4.418-2.41"/><path fill="#4c5567" d="M1896.26 1063.69c3.8-.68 3.23 1.43 3.23-4.62.34 8.01-.35 15.24.66 23.38 1.47 11.47.08 26.74-4.32 36.97-7.95 18.46-45.45 22.79-36.99-2.62 1.2-3.61 5.7 2.08 6.65 3.28 1.77 2.24 9.41 1.51 10.91-1.45 6.96-12-7.96-24.15-8.88-36.11-1.09-14.15 9.16-20.58 21.76-22.12 1.4.72 2.47 1.3 3.81 2.08-1.03.32-5.26.86-6.67 1.18q4.92.15 9.84.03"/><path fill="#090707" d="M1896.26 1063.69c3.8-.68 3.23 1.43 3.23-4.62.34 8.01-.35 15.24.66 23.38 1.47 11.47.08 26.74-4.32 36.97-7.95 18.46-45.45 22.79-36.99-2.62 1.2-3.61 5.7 2.08 6.65 3.28 1.77 2.24 9.41 1.51 10.91-1.45 6.96-12-7.96-24.15-8.88-36.11-1.09-14.15 9.16-20.58 21.76-22.12 1.4.72 2.47 1.3 3.81 2.08-1.03.32-5.26.86-6.67 1.18-5.33.97-11.55 4.04-14.57 8.77-9.21 14.4 14.56 30.17 8.29 44.56-5.36 12.31-13.96 3.99-19.06 2.88-6.42 2.55 5.4 21.6 25.19 6.61.67-.43.3-.16 1.08-.86 14.93-13.54 9.72-35.38 10.88-53.63.22-3.41.46-5.88-1.97-8.3"/><path fill="#4c5567" d="M1261.24 1065.32c2.47-6.44-.99-31.12 1.38-38.03.07 23.38.22 45.34-.15 70.51-.28 19.34-16.51 43.77-39.53 31.81-2.9-1.5-4.59-10.42-2.78-14.03 7.43-1.41 8.96 8.76 17.76 3.47 7.4-14.27-13.95-33.62-5.76-49.13 3.46-6.54 9.41-9.48 16.68-10.02l-.05 1.55 3.73.44c3.22.4 5.8 2.02 8.72 3.43"/><path fill="#090707" d="M1261.24 1065.32c2.47-6.44-.99-31.12 1.38-38.03.07 23.38.22 45.34-.15 70.51-.28 19.34-16.51 43.77-39.53 31.81-2.9-1.5-4.59-10.42-2.78-14.03 7.43-1.41 8.96 8.76 17.76 3.47 7.4-14.27-13.95-33.62-5.76-49.13 3.46-6.54 9.41-9.48 16.68-10.02l-.05 1.55c-11.21 3.49-20.4 12.84-15.2 25.17 4.2 9.95 12.44 19.65 7.89 31.14-1.63 4.14-6.62 7.61-10.96 5.16-1.93-.91-4.79-5.89-7.12-5.35-1.93.45-1.46 6.42-.09 8.04 6.47 7.61 16.77 5.15 23.69-.1 8.96-6.81 11.93-14.68 13-25.51 1.38-9.6-.67-26.65 1.24-34.68"/><path fill="#1a222e" d="M1260.14 1818.85c-4.06-4.23-8.73-7.79-8.3-14.34 1.1-16.7 24.75-21.5 32.98-7.49 14.1 24-3.92 41.01-24.71 48.65 1.13-10.8 9.37-16.55 8.56-27.42-.24-3.22-7.13-.18-8.53.6"/><path fill="#090707" d="M272.473 946.074c2.684 7.01 5.064 14.117 7.74 21.141l-2.021 1.716c-1.388-3.586-2.454-7.662-4.676-10.671-1.707 1.043-2.698 1.588-4.487 2.517-1.196-.655-1.863-.939-2.908-1.791z"/><metadata><recraft-signature>{&quot;signed_by&quot;: &quot;recraft&quot;, &quot;signature_b64&quot;: &quot;q+z4OxCQ7fzmN1cFVdLE9BiP4JiWAnjlD3S+zQLKmecLXFB3qH1f5Z08jg3iDQNxsEqzgS4vLE/S26n4ipCOCQ==&quot;, &quot;signing_algo&quot;: &quot;Ed25519&quot;, &quot;generation_timestamp&quot;: 1777252712, &quot;identifier&quot;: &quot;b7d7a005-a3d7-4615-be54-66a8334302d7&quot;}</recraft-signature></metadata></svg>