<svg xmlns="http://www.w3.org/2000/svg" width="1024" height="1024" preserveAspectRatio="none" style="display:block" viewBox="0 0 2048 2048"><path fill="#364045" d="M906.782 1426.94a631 631 0 0 1-28.996-10.03c-84.028-31.74-159.866-109.69-196.431-191.08a376.52 376.52 0 0 1-8.921-287.7 375.6 375.6 0 0 1 199.315-211.659c95.225-42.557 192.291-44.755 289.631-7.309a374.83 374.83 0 0 1 208.66 197.209c88.04 199.569-3.72 417.409-201.25 504.509 2.38-25.81 4.18-51.66 5.42-77.55.58-11.42.27-27.09 1.81-37.83 52.97-31.29 93.81-85 113.74-142.93a281.95 281.95 0 0 0-14-217.41 277.72 277.72 0 0 0-159.1-139.186c-69.87-23.384-151.831-18.494-217.684 14.844a282.24 282.24 0 0 0-141.462 163.725 281.8 281.8 0 0 0 18.348 217.237c23.677 45.33 63.736 85.52 108.128 110.34 9.095 5.08 21.067 11.76 30.898 14.83-3.451 32.41-4.978 66.83-8.106 99.99"/><path fill="#0b0d0e" d="M796.141 757.707c-.959-25.904-.215-52.493-.248-78.462-.028-21.379-.84-44.549 1.444-65.668 11.796-109.082 108.344-195.327 216.793-199.265a228.3 228.3 0 0 1 167.73 63.237 226.73 226.73 0 0 1 70.06 157.975c1.01 38.695.41 81.343.37 120.282-49.93-33.712-91.14-51.586-149.5-65.291-24.85-5.328-44.13-4.634-65.07-8.463l-23.36-.277c-24.775 2.497-42.974 3.953-67.471 8.814-44.387 10.657-79.211 22.392-118.955 46.036-11.344 6.749-21.595 14.927-31.793 21.082"/><path fill="#c97c33" d="M921.048 449.287a549 549 0 0 0 17.119-8.333c12.303 17.728 22.292 38.57 33.976 56.816 39.057-16.292 67.377-17.65 107.457-1.189 7.92-13.053 26.26-44.593 34.52-54.957 4.67 2.667 11.72 6.438 16.04 9.334-10.94 18.998-23.59 38.081-35.38 56.675 21.45 13.007 38.65 40.055 44.7 64.136a137.6 137.6 0 0 1 3.93 29.411l89.73-.007-.12 19.721-90.48.089c-7.24 32.276-15.5 46.337-39.75 69.532-24.85-5.328-44.13-4.634-65.07-8.463l-23.36-.277c-24.775 2.497-42.974 3.953-67.471 8.814-20.166-17.727-35.477-42.884-38.699-69.801l-89.224.104.044-19.765 87.84-.019c6.04-44.556 13.207-62.856 47.716-92.708-9.798-19.861-23.775-39.285-33.518-59.113"/><path fill="#0b0d0e" d="M1014.36 681.775c-22.926-4.496-41.096-13.688-54.434-33.764a82.15 82.15 0 0 1-12.506-62.418 78.72 78.72 0 0 1 34.469-49.706 80.73 80.73 0 0 1 61.001-10.948 81.58 81.58 0 0 1 50.57 36.731c24.31 39.347 10.41 86.392-28.19 110.401-7.95 4.948-18.65 7.066-27.55 9.981z"/><path fill="#fcfbfa" d="M1019.87 549.365c29.58-2.666 55.72 19.131 58.42 48.704s-19.07 55.742-48.64 58.474c-29.61 2.736-55.834-19.073-58.537-48.693-2.704-29.62 19.135-55.815 48.757-58.485"/><path fill="#364045" d="M915.271 1315.56c-47.904-21.13-81.518-47.58-112.128-90.53a265.46 265.46 0 0 1-45.088-198.15 270.4 270.4 0 0 1 109.533-175.632 275.16 275.16 0 0 1 206.102-46.006 269.7 269.7 0 0 1 173.43 111.667 270.4 270.4 0 0 1 43.29 201.701c-13.55 73.53-53.07 132.89-114.39 175.34.93-38.19.88-79.19-6.12-116.9 26.13-38.1 40.06-78.08 35.37-124.97-4.69-47-31.33-92.745-68.25-122.033a182.35 182.35 0 0 0-136.46-38.451c-48.065 5.583-90.565 30.927-120.215 68.899a174.83 174.83 0 0 0-35.437 128.935 175.78 175.78 0 0 0 65.932 114.61c1.755 34.49 7.694 76.82 4.431 111.52"/><path fill="#0b0d0e" d="M880.264 1129.73c.251-7.93-.471-30.37 2.592-35.34l1.971-.55c10.874 6.2 21.087 38.05 24.305 49.84 34.938 128.04 4.791 422.76-62.112 539.42-6.126 10.68-13.373 21.17-22.295 29.72l217.045-56.85q28.92-7.425 57.75-15.15c8.37-2.22 21.82-6.26 29.65-7.7l.54 1.67c-9.3 28.49-26.46 73.98-48.38 94.39l-177.027.47-56.312.09c-8.961-.01-23.4.32-31.95-.58-1.724.18-13.25.92-13.677-.78.319-.49 1.057-.76 1.551-1 30.582-17.89 45.991-60.37 57.995-92.39 2.802-7 5.833-16.78 8.472-24.17.511-1.88 1.698-4.94 2.378-6.89.932-8.75 7.497-30.93 9.637-40.51 4.117-18.43 7.966-36.83 11.888-55.31.69-3.58 1.187-4.83-.287-7.39-11.055-1.53-58.327-.28-72.162-.18q-.202-50.01.131-100.02c23.415 15.96 55.581 29.35 82.911 37.43.716-3.4 1.306-7.52 1.904-11.01 3.128-33.16 4.655-67.58 8.106-99.99l.383-11.39c3.263-34.7-2.676-77.03-4.431-111.52-.26-4.29-.453-8.75-.881-13.01-17.878-11.94-36.835-40.33-44.688-60.08z"/><path fill="#0f090c" d="M803.915 1727.38c3.208.13 13.032-1.48 12.126 1.78-1.724.18-13.25.92-13.677-.78.319-.49 1.057-.76 1.551-1"/><path fill="#364045" d="M1155.22 1029.51q18.93-.33 37.86.03c7.55 34.08 6.23 60.26-4.08 93.18l-12.24-.39.03-39-282.29-.22-22.55.19c-.051 9.62 1.578 30.53-.939 38.52-3.296 1.82-1.533 1.34-5.556 1.14-17.676-8.87-12.52-75.54-10.005-93.28 38.563 1.29 81.341.44 120.188.4q89.793.195 179.582-.57m-601.532-52.295c9.961-1.079 25.405-.601 35.821-.571l59.629.217c-15.847 63.109-14.463 125.789-.288 188.919l-.197 2.16c-6.552 2.9-79.002.18-91.192.3-4.404.05-8.188-6.58-10.431-10.4l-.108-109.94c-.027-19.7-.227-39.78.182-59.47.123-5.916 2.343-7.663 6.584-11.215m583.572 633.655h450.44c64.61-.34 129.21-.34 193.82-.01 34.21.03 70.12-.52 104.13.12.02 7.86.15 15.97-.01 23.8l-462.81-.5-158.46.11c-22.07-.02-55.81 1.01-76.46-.23-5.55.78-50.51.74-58.2.63l-.54-1.67c.96-.7.93-.68 2.02-1.16 2.25-7.05 4.12-13.96 6.07-21.09"/><path fill="#575c61" d="M1131.19 1631.96c-.34 2.42.71 1.8 2.8 1.78 11.2-.09 22.42-.08 33.62-.09 6.48.05 13.99-.46 20.3.51-5.55.78-50.51.74-58.2.63l-.54-1.67c.96-.7.93-.68 2.02-1.16"/><path fill="#364045" d="m160.952 1610.27 709.43.55c-2.639 7.39-5.67 17.17-8.472 24.17-5.19-1.9-129.339-.29-145.966-.3l-555.004-.29zm455.233-829.898c16.211-.585 115.916-1.411 124.924 2.031 5.767 2.204 7.839 7.084 10.065 12.435-5.311 7.893-19.48 22.899-26.221 31.138a376.2 376.2 0 0 0-46.079 70.524c-12.029 24.386-18.284 41.799-26.425 67.555-10.072-.004-32.599 2.321-39.77-5.145-1.106-4.107-1.871-9.332-1.869-13.653.025-53.019-.735-106.133.123-159.121.038-2.388 3.411-4.528 5.252-5.764m699.025-.011c14.75-.45 115.75-1.625 121.56 2.076 2.15 1.366 3.46 3.777 3.92 6.188 1.98 10.458.36 43.597.36 56.897l.13 58.078c.05 10.946.37 22.152-.3 33.058-.48 7.855-6.48 11.319-13.63 11.571l-33.5-.204c-13.46-36.603-28.94-68.47-51.44-100.438a408 408 0 0 0-16.26-21.63c-8.13-9.915-19.86-19.977-26.04-30.75-4.22-7.372 9.57-13.842 15.2-14.846m92.26 205.126c24.03.425 60.59-.796 85.04 1.744 1.79-.057 6.18 4.905 6.11 6.285-.97 20.184 4.04 134.764-.94 145.154-2.87 2.96-3.75 2.94-7.85 4.26-26.84.58-55.38.09-82.36.09 7.13-45.14 10.12-90.2.74-135.49-1-4.8-4.18-16.959-3.12-21.433zm-171.86 521.993c11.06-.17 38.71-2.59 46.68 3.31 2.05 1.02 2.88 7.31 2.71 9.51-1.27 16.32 4.75 69.87-4.72 80.97-6.67 2.76-76.52 1.54-88.78 1.53l-51.4-.21c5.49-32.16 13.19-60.81 17.74-94.84 25.93.05 51.85-.04 77.77-.27m-943.695-35.95c3.007 1.99 3.951 4.68 5.681 7.94 4.588 1.86 9.655 4.39 14.19 6.51 5.864-3.36 9.974-6.86 15.237-11.07 5.418 5.69 8.325 8.67 12.744 15.09-2.648 3.62-6.752 7.97-9.805 11.41 2.885 6.61 5.342 12.99 7.926 19.72 5.687 1.38 11.34 2.9 16.953 4.55l-.299 17.05c-4.559 1.17-11.479 1.94-16.306 2.62-2.379 8.81-4.242 12.29-8.445 20.12 2.753 5.03 5.26 7.87 8.83 12.25-4.282 5.85-7.555 9.6-12.602 14.69-5.025-2.61-10.833-6.48-15.734-9.56-4.931 2.43-9.799 3.88-15.003 5.63-1.323 4.45-2.669 8.9-4.04 13.34-6.2.21-17.418 2.23-20.528-3.08-2.448-15.16-7.755-9.63-18.07-16.16-5.48 4.13-8.987 6.68-14.858 10.22-5.584-5.47-8.052-9.16-12.067-15.65 3.281-3.42 6.237-6.89 9.335-10.47-4.789-8.24-6.142-12.29-8.504-21.33-5.121-.53-11.878-2.02-17.065-3-.493-6.07-.361-12.1-.339-18.19 4.987-1.23 11.938-2.26 17.152-3.18 2.394-7.49 4.846-12.6 8.768-19.29-3.047-4.21-7.516-8.95-11.026-12.91 4.766-5.47 9.144-9.48 14.464-14.44 4.299 2.81 10.597 8.7 14.641 12.28 6.392-2.64 12.349-6.75 18.215-10.47 5.162 3.33 12.305 8.27 18.233 3.78 2.825-2.14 2.126-5.1 2.322-8.4"/><path fill="#fcfbfa" d="M275.284 1511.14a23.873 23.873 0 0 1 29.161 29.96 23.87 23.87 0 0 1-17.887 16.42c-12.633 2.68-25.109-5.17-28.159-17.72s4.431-25.25 16.885-28.66"/><path fill="#364045" d="M472.973 1474.79c5.68 5.44 12.028 8.27 18.979 11.82l14.651-10.53c3.872 3.81 8.169 9.15 11.767 13.36-2.464 4.05-6.287 8.69-9.244 12.52 2.839 6.14 5.264 13.17 7.626 19.57 7.185 1.36 11.052 2.2 17.984 4.42.093 5.57-.546 10.85-1.096 16.37-7.042 1.96-8.995 2.39-16.312 2.98-2.64 8.75-5.048 13.27-9.244 21.37 2.9 3.55 6.43 7.3 9.528 10.74-4.019 5.57-7.23 9.53-11.7 14.76-4.069-1.59-12.402-6.55-16.617-8.94l-14.861 6.8a855 855 0 0 1-2.983 12.82c-6.729.07-17.795 1.72-22.028-3.44-.109-12.91-6.466-11.79-17.057-17.47-15.666 11.38-15.342 11.46-28.424-2.8l10.151-12.66c-4.89-8.01-6.012-12.55-8.431-21.43-5.66-.36-11.428-1.08-17.076-1.71-.274-6.17 0-12.52.145-18.72l17.04-3.91c2.581-8.24 4.64-11.92 8.921-19.24-3.3-3.61-7.374-7.51-10.864-11.03 4.887-7 6.905-9.53 12.887-15.53 5.308 2.96 10.678 7.17 15.634 10.79 2.771-1.35 15.593-8.74 16.694-8.55 8.435 1.43 15.977 10.16 23.93-2.36"/><path fill="#fcfbfa" d="M455.166 1510.57a24.142 24.142 0 1 1 11.405 46.91c-12.866 2.93-25.701-5.01-28.818-17.83-3.118-12.83 4.638-25.78 17.413-29.08"/><path fill="#364045" d="M655.803 1479.56c.604-4.71 1.378-12.38 4.378-1.88 4.31 3.8 10.486 6.28 15.787 8.82a963 963 0 0 1 15.619-10.5c4.222 4.8 8.621 9.68 12.723 14.56-3.741 3.64-7.639 7.22-10.966 11.22 3.254 7.04 6.455 14.11 9.605 21.2 6.612.21 9.561.42 16.093 1.53l-.05 18.12c-5.466.95-12.903 2.47-18.229 2.8-2.716 8.11-4.579 13.2-8.822 20.72 3.65 5.06 5.008 6.63 9.35 11.15-4.664 6.48-7.169 9.73-12.591 15.54-5.158-3.67-9.233-6.56-14.032-10.71-6.544 3.62-8.945 4.21-16.178 6.11-2.454 17.76-6.48 15.25-22.857 14.07l-2.499-13.45c-6.092-2.25-11.291-4.1-17.123-6.99-5.512 4.28-8.863 7.08-15.06 10.31-5.145-5.17-7.112-7.56-11.459-13.44a375 375 0 0 1 8.901-12.99c-4.76-8.2-6.197-11.13-8.857-20.51-7.484-.51-10.019-1.06-17.346-2.88l-.232-17.37c6.172-1.56 12.339-3.18 18.568-4.48 2.373-5.83 5.199-13.34 7.99-18.83-3.074-3.66-6.471-7.97-9.874-11.24 4.536-6.95 7.699-11.28 14.419-16.59 4.708 4.51 6.995 7.08 11.128 12.11l1.422-.27c10.023-1.92 12.175-4.2 20.764-9.82l.627.92c.796 1.15 1.429 1.96 2.294 3.04 4.2.3 12.317.6 16.507-.27"/><path fill="#575c61" d="M655.803 1479.56c.604-4.71 1.378-12.38 4.378-1.88-2.034.64-2.417.86-4.378 1.88"/><path fill="#fcfbfa" d="M641.345 1510.4c12.873-2.12 25.054 6.52 27.301 19.37 2.248 12.86-6.276 25.12-19.105 27.49-13.008 2.41-25.479-6.26-27.758-19.29s6.51-25.42 19.562-27.57"/><path fill="#364045" d="M1776.29 1472.81c2.69.69 1.79.49 3.63 2.39 4.14 4.27 12.12 8.47 17.39 11.28 6.03-3.54 10.8-7.26 16.3-10.56 3.92 4.71 7.72 9.74 11.6 14.34l-9.35 11.12c2.69 7.2 5.65 12.57 9.24 19.38 6.16 1.59 10.01 2.39 15.75 5.19-.02 5.39.09 11.13-.31 16.48l-16.76 3.52c-2.71 9-3.54 12.18-8.58 20.33 2.91 3.8 6.21 7.9 8.81 11.87-4.88 6.91-5.89 8.49-12.16 14.22-5.95-2.77-10.24-5.96-15.42-9.97-4.93 2.62-9.73 5.25-14.82 7.54-1.22 3.69-2.62 8.46-4.27 11.88-10.92.6-19.75 3.88-21.1-9.04-1.85-5.97-11.77-8.55-17.44-11.7-14.77 12.78-15.77 13.32-27.28-3.49 3.02-3.68 6.39-7.6 9.26-11.35-4.52-9.45-5.54-12.27-8.25-22.43l-17.55-.98-.08-18.17c6.71-1.71 11.38-2.52 18.25-3.58 1.99-8.38 3.31-11.45 7.87-19.2-3.9-5.53-5.45-7.72-11.04-11.94 5.46-6.33 8.72-9.43 14.98-15.04l14.04 11.36 1.46-.63c4.27-1.86 14.74-8.87 17.12-9.18 2.91 5.24 15.17 5.61 19.52 1.74.61-2.6.18-2.78-.81-5.38"/><path fill="#fcfbfa" d="M1765.34 1510.42c12.97-1.51 24.75 7.69 26.44 20.64 1.68 12.95-7.36 24.85-20.29 26.71a23.9 23.9 0 0 1-22.29-9.05 23.88 23.88 0 0 1-3.1-23.85 23.9 23.9 0 0 1 19.24-14.45"/><path fill="#364045" d="M1603.03 1471.64c1.62 1.53 2.44 3.81 4.17 5.71 3.8 4.18 10.07 6.9 15.11 9.34 6.18-2.57 11.26-6.69 16.69-10.63 6.04 5.19 8.15 7.95 13.17 14.22-3.04 4.13-7.35 8.29-10.96 12.03 4.03 6.85 6.28 12.36 9.42 19.71 5.98 1.05 10.65 2.14 16.51 3.59-2.15 16.58 1.61 19.07-17.43 19.5-2.23 9.54-4.29 12.47-9.33 20.63 2.53 3.67 6.59 8.01 9.61 11.45-4.54 6.96-6.45 9.66-12.14 15.56-5.82-2.95-10.24-6.76-15.36-10.8-5.09 2.84-11.06 5.18-16.46 7.48-.89 4.25-1.83 8.49-2.83 12.71-6.06.31-17.32 2.01-21.26-2.36l-1.41-10.58c-6.38-2.24-10.79-3.68-16.39-7.52-5.76 4.55-8.94 7.04-15.22 10.73-5.69-4.87-8.53-8.7-12.83-14.67l10.83-11.45c-3.76-7.65-6.38-12.55-8.76-20.68-5.6-.76-10.31-2.05-15.76-3.42-.47-5.92-.3-11.6-.24-17.53 5.3-1.6 11.21-3.06 16.61-4.49 2.71-6.88 4.65-12.68 8.83-18.8-3.33-3.96-7.04-7.84-10.57-11.65 4.83-6.16 7.13-9.3 12.96-14.41l15.13 11.09c2.5-1.38 13.37-7.41 15.69-8.17 5.97-1.97 10.16 6.34 19.55 1.97 2.87-3.97 1.98-3.05 2.67-8.56"/><path fill="#fcfbfa" d="M1586.62 1511.24c8.36-2.29 17.3.09 23.4 6.24 6.1 6.16 8.41 15.12 6.04 23.45a23.97 23.97 0 0 1-17.46 16.77c-12.74 3.07-25.58-4.65-28.85-17.33-3.27-12.69 4.24-25.65 16.87-29.13"/><path fill="#364045" d="M1418.76 1473.6c.91.62.93.49 1.48 1.38 3.32 5.41 10.84 8.39 16.71 11.22 6.3-4.12 8.99-6.06 14.61-11.01 4.88 5.08 9.58 10.05 12.57 16.44-2.45 3.22-6.51 7.29-9.36 10.33l8.76 19.21c4.9 1.45 10.46 3.4 15.38 5.01l.42 16.44c-5.32 1.79-10.99 2.89-16.48 4.12-2.84 8.25-4.77 12.05-8.85 19.86 2.86 3.98 6.27 8.18 9.29 12.09-3.94 5.05-7.91 9.44-12.17 14.2-5.08-2.87-10.45-6.25-15.48-9.29-5.31 2.71-10.46 4.23-16.11 6.13-1.61 12.81-6.13 16.63-20.15 12.52-2.83-.82-2.81-2.18-3.61-4.67-1.14-10.43-8.04-10.84-16.96-15.6-5.16 3.72-10.89 6.96-16.37 10.21-3.57-3.78-8.54-10.26-11.94-14.43 3.27-4.11 6.81-8.19 10.2-12.21-5.02-7.61-6.33-10.91-8.49-19.42-19.18-2.57-17.51-3.45-18.25-22.44l18.36-2.58c2.16-8.26 3.94-11.85 7.68-19.44l-9.95-11.76c4.79-6.67 7.82-9.55 13.8-14.92 4.88 4.42 7.73 7.3 13.09 11.75 5.3-2.31 10.56-5.02 15.74-7.6l-.46.37c5.78.94 17.14 2.81 22.56.75 2.9-1.1 2.95-3.56 3.98-6.66"/><path fill="#fcfbfa" d="M1404 1510.53c12.94-1.29 24.51 8.02 26.02 20.93s-7.61 24.65-20.5 26.37a23.81 23.81 0 0 1-22.18-9.28c-5.18-6.87-6.24-16-2.79-23.88a23.79 23.79 0 0 1 19.45-14.14"/><path fill="#364045" d="M1555.7 1164.09c23.95-.1 47.91-.07 71.86.09-2.93 11.16-8.07 23.75-13.4 33.95a166 166 0 0 1-98.84 82.77c-22.31 7.1-42.42 6.26-65.34 6.03v-62.69c16.68.16 33.83 1.06 49.63-4.75 26.38-9.7 44.46-30.58 56.09-55.4m-682.94 439.84c-14.079-6.48-97.566 4.4-106.95-5.11-2.513-2.55-2.822-9.45-2.923-12.85-.429-14.48.263-29.12.349-43.62.048-8.12-1.06-17.84.338-25.78.419-2.38 1.449-4.62 3.314-6.23 2.646-2.28 6.317-2.62 9.644-2.96 14.376-1.47 29.708-.27 44.19-.06l73.563.79c-3.922 18.48-7.771 36.88-11.888 55.31-2.14 9.58-8.705 31.76-9.637 40.51M507.697 720.543c-3.213-9.21-10.718-7.643-10.296-17.078 4.991-11.673 25.264-8.704 15.825 10.418 16.895 53.254 31.695 107.301 49.44 160.287 2.266 6.765 5.958 5.969 12.358 6.428.064 8.356 2.052 54.663-.755 59.155-6.078 2.327-14.11-5.887-16.753-11.057-24.684 4.218-40.652 12.647-56.005 33.485-15.715 21.33-13.493 49.479-13.407 75.279 4.544.9 5.401.3 8.392 2.88 1.508 11.17.49 55.31.468 68.48l-31.785-.21-.021-15.43c-8.109-.04-30.221 2.34-35.116-3.34-4.931-5.72-5.924-35.09 2.226-38.93 7.159-3.38 22.722-1.61 31.58-1.83-.504-43.95-5.552-81.867 28.001-116.508 18.704-19.31 42.163-28.663 68.261-34.325-3.711-21.825-21.396-73.721-28.56-97.645-6.446-25.532-16.317-54.352-23.853-80.059m977.483 114.409 1.4-.003c74.59.339 140.92 68.595 140.22 142.521l-53.32.223c-7.99-45.192-41.38-82.273-88.52-85.838zM1395.8 1186.8c10.45.06 32.18-2.29 41.07 2.73 2.07.65 3.71 5.48 3.68 7.5-.2 17.62 4.23 105.21-2.78 114.82-9.66 4-50.6 2.1-64.02 1.97l-45.85-.19c30.9-39.01 53.11-79.22 67.9-126.83"/><path fill="#c73936" d="M507.697 720.543c7.536 25.707 17.407 54.527 23.853 80.059-59.363 13.459-129.916 25.431-190.24 35.915-2.622-.693-3.485-.879-5.993-1.922 24.701-17.41 52.783-35.022 78.122-52.071 30.751-20.69 62.791-42.745 94.258-61.981"/><path fill="#364045" d="M1547.27 1047.59c2.74-3.18 5.58-6.95 8.22-10.28 3.45 1.89 4.32 5.18 8.04 5.62 9.25-7.23.92-10.55 2.42-16.05 3.49-2.89 1.65-2.27 5.44-2.99 9.74 4.24 16.18 6.94 22.32-4.33 2.75-5.06 9.75-6.92 14.42-3.54 2.85 10.3 6.25 9.83 15.68 12.45 2.94-3.66 3.49-4.99 7.65-6.64 3.94 8.01 8.52 4.27 3.11 13.46.85 3.27 3.85 5.99 7.02 6.98 3.56-.97 3.72-1.21 7.52-.96 3.27 1.84 4.58 6.01 6.27 9.57-6.61 2.97-10.08 6.93-5.22 13.79 4.15 1.93 3.9 1.06 9.37.33.08 4.87.24 8.23-.39 13.11l-1.66 1.06c-2.06-.55-4.11-1.13-6.15-1.76-1.55 3.1-4.33 7.97-4.81 11.2 4.43 1.51 5.11 2.09 8.66 5.21-2.11 3.72-4.62 7.58-6.9 11.23-3.74-3.14-4.46-4.32-9.04-4.52-4.14 4.58.05 9.17-3.67 16.17-8.83 6.65-5.89-2.37-14.01-1.54-4.51.46-7.17.25-10.25 3.75-3.12 11.43-6.33 9.71-16.85 9.45l-.17-9.08c-8.15-6.44-16.09-3.47-23 2.69-2.38-2.35-2.64-2.32-3.83-5.56.96-5.67 2.33-12.96-3.8-15.33-3.72.43-4.88 1.84-7.84 4.16-3.32-3.76-3.98-4.44-6.36-8.76.32-5.3 1.77.15 7.09-6.85.87-4.18-.92-7.3-2.48-11.47-3.65-.38-6.24-.35-9.53-1.98-1.59-2.91-1.2-6.95.5-9.71 2.99.43 3.71.84 6.5-.24 2.78-3.04 3.46-7.74 4.53-11.87z"/><path fill="#fcfbfa" d="M1594.09 1051.34a21.72 21.72 0 0 1 19.76 3.17 21.74 21.74 0 0 1 8.79 17.98 21.75 21.75 0 0 1-15.15 20.19c-11.39 3.61-23.56-2.65-27.25-14.02-3.68-11.37 2.51-23.57 13.85-27.32"/><path fill="#364045" d="M1598.8 1060.01c6.55-1.38 13.01 2.72 14.56 9.23 1.55 6.52-2.37 13.08-8.84 14.81-4.34 1.16-8.97-.13-12.09-3.37a12.37 12.37 0 0 1-2.91-12.21c1.32-4.3 4.88-7.54 9.28-8.46M949.617 365.269l151.353-.062c-.09 17.468-.06 34.937.08 52.405l-9.55-2.58c-52.69-14.296-90.92-11.463-142.465 1.901q-.005-25.835.582-51.664"/><path fill="#0b0d0e" d="M1226.97 1402.24c1.59 2.34 1.02 88.58 1.04 98.41-22.53.23-45.13-.27-67.65-.1-1.63-1.36 7.14-60.92 7.96-68.48 24.64-10.26 35.86-17.35 58.65-29.83"/><path fill="#364045" d="M1402.72 1390.24c6.81-.07 11.22-1.8 11.61 5.6.26 4.87 5.97 6.15 10 8.4 3.01-2.54 4.28-4.1 7.04-6.71 6.75 6.39 11.83 7.87 4.6 14.94l-1.21 1.22c6.76 14.96 1.04 10.68 14.18 14.45 1.18.33 1.56 9.03.42 10.23-1.86 1.94-6.95 1.92-9.65 2.38-1.37 4.12-2.69 8.23-4.14 12.33.06.2 5.02 5.81 5.6 6.53-2.21 2.65-6.47 8.12-10.2 8.87-2.64.69-6.21-6.88-8.09-4.74-3.07 3.48-10.02.18-10.16 5.24-.08 2.73.1 3.49-1.74 5.22-6.55.01-12.81 2.1-12.17-5.72.08-.97-10.8-5.38-10.86-5.39-1.43-.04-8.16 5.33-9.43 6.23-2.84-2.74-5.59-5.79-8.31-8.68 2.5-2.96 4.33-5.31 6.67-8.37-1.21-2.45-5.1-12.38-7.8-12.3-8.53.22-7.54-4.06-6.78-11.33.15-1.39 7.32-2.72 9.15-3.16l.57-1.13c1.15-2.28 5.91-10.34 5.37-11.1-2.23-3.17-8.87-5.44-2.23-10.7 7.41-5.88 6.03-4.47 13.52.9 1.35-.61 9.11-3.81 9.49-4.22 3.02-3.29-1.21-5.93 4.55-8.99"/><path fill="#fcfbfa" d="M1402.32 1418.45c8.06-2.12 16.33 2.62 18.57 10.65 2.23 8.02-2.39 16.36-10.38 18.71-5.28 1.56-10.98.15-14.92-3.68a15.23 15.23 0 0 1-4.13-14.81c1.39-5.32 5.54-9.47 10.86-10.87"/><path fill="#364045" d="M1758.93 1397.34c2.32-8.25 2.79-6.66 13.6-5.4 2.91.34 2.03 7.76 4.83 8.59 2.68 1.33 5.24 2.42 7.93 3.61 2.91-2.42 4.82-3.77 7.91-5.92l8.79 8-1.22 1.63c-1.52 2.15-3.24 4.13-4.78 6.27 2.25 3.96 4.3 7.86 6.48 11.83l2.14.59c6.93 1.84 7.26 2.38 6.04 10.91-.4 2.83-5.53 3.44-7.92 3.58l.8-.08c-8.94 12.37-9.7 7.79-1.85 18.95-1.8 1.77-7.25 7.96-8.66 7.14-11.08-6.51-5.35-1.9-16.53.01-4.84.82-2.34 3.6-.2 5.76-20 3.09-16.14 3.29-17.6-5.15-.11-.62-8.76-3.75-10.89-4.65l-1.6 1.25c-5.79 4.66-7.02 5.76-12.69-2.42-2.88-4.17 4.76-2.46 2.84-5.84-.33-.87 2.01-3.75 1.5-4.96-2.09-3.1-4.04-6.23-6.07-9.4-.74-1.15-2.43-1.59-3.74-1.89-6.32-1.45-5.34-5.98-4.88-11.26.18-2.14 8.47-4.13 10.63-4.89l4.58-11.04c-.15-.24-.47-.32-.71-.47-1.98-1.25-4.02-3.98-5.7-5.72 2.92-2.88 5.89-5.69 8.92-8.44l4.01 2.32c3.26 1.93 4.29 5.04 7.11 1.89 1.29-1.45 5.97-1.01 7.59-2.49.19-.55-.44-1.76-.66-2.31"/><path fill="#fcfbfa" d="M1763.76 1418.55c8.22-1.75 16.3 3.47 18.09 11.67 1.79 8.21-3.39 16.32-11.59 18.15-8.25 1.84-16.43-3.39-18.23-11.65s3.46-16.41 11.73-18.17"/><path fill="#364045" d="M641.587 1391.29c12.966-.53 10.375-2.44 13.315 8.28 3.413 1.41 6.787 2.9 10.119 4.49 2.667-2.17 4.83-3.82 7.668-5.76 3.01 2.85 5.993 5.74 8.948 8.65-1.801 2.43-3.556 4.41-5.415 6.77 1.603 3.56 3.326 7.15 4.761 10.82 1.411 3.6 8.217 1.03 9.131 3.97.709 2.28.349 7.47-.543 9.76-.426 1.09-3.035 2.24-4.161 2.31-1.766.1-3.234.42-4.128 1.94-2.249 3.84-4.869 7.41-7.401 11.05 2.724 2.25 5.131 4.04 7.785 6.44-1.697 1.77-10.402 13.16-13.485 4.96-2.032-5.4-9.246.23-13.402 1.98-1.58 3-1.855 6.11-4.723 7.45-1.446-.1-2.893-.2-4.34-.29-14.235-.93-2.058-5.42-9.713-7.99-.558-.19-2.88.3-3.91-1.19-3.837-5.55-9.162 1.48-12.579 4.24-3.593-4.01-4.732-5.68-7.969-10.03 9.322-8.98 7.998-4.94.73-19.06-6.057-1.52-10.642-.21-10.303-7.07.237-4.8-1.297-5.63 5.034-7.07 3.364-.19 7.265-3.76 8.006-6.95-.83-1.31 3.511-5.68 2.913-6.28-1.748-1.75-6.423-3.12-5.617-6.64.517-2.26 7.48-7.16 9.315-8.64 10.044 8.6 3.88 6.66 13.369 3.53 7.808-2.58 2.13-3.56 6.595-9.67"/><path fill="#fcfbfa" d="M645 1418.14c8.262-.75 15.615 5.23 16.558 13.47s-4.871 15.73-13.091 16.86a15.28 15.28 0 0 1-14.275-5.95c-3.328-4.42-4-10.3-1.756-15.36a15.28 15.28 0 0 1 12.564-9.02"/><path fill="#364045" d="M455.362 1390.99c2.521-.06 9.967-.49 12.058.19 2.793 1.22.832 6.01 1.942 7.61 1.363 1.97 5.709 1.45 7.446 3.42.29.33 1.579 1.83 2.224 1.73 2.691-.43 6.782-3.38 9.155-4.77 4.076 3.16 5.286 4.01 9.101 7.57-1.525 2.12-4.504 5.55-5.709 7.49 1.479 4.32 2.289 7.1 3.521 11.44q1.847.45 3.707.84c1.39.29 5.679.81 5.965 2.99 1.32 10.07.509 9.54-8.653 10.98-.731 1.62-5.219 11.24-5.073 11.55 3.897 8.15 9.244 4.84-3.363 16.65-14.579-9.89-3.473-4.68-16.665-1.63-4.611 1.07-2.721.05-3.03 6.25l-.058 1.02c-16.132-.33-13.428.74-13.9-6.93-.08-1.29-9.388-3.37-12.046-4.17-2.559 2.01-4.393 3.7-7.211 5.64l-8.492-9.23c2.961-3.11 4.069-3.93 7.21-6.73-2.347-3.84-4.547-7.74-6.903-11.58-1.604-2.61-5.63-.52-7.537-2.83-1.284-1.55-1.639-6.33-1.532-8.19.412-5.2 8.159-2.46 10.768-4.64-.93.77 3.95-10.41 3.816-9.2.407-3.69-3.642-5.66-3.468-9.49.067-1.47.706-2.19 1.733-3.16q3.464-3.3 7.096-6.42c1.333 1.25 5.678 5.72 7.047 6.29-.619.16 6.293-4.11 7.972-3.74 1.271.28 1.753-4.43 2.133-5.97z"/><path fill="#fcfbfa" d="M458.245 1418.73c8.137-2.05 16.406 2.83 18.548 10.94 2.142 8.12-2.64 16.44-10.726 18.68a15.33 15.33 0 0 1-14.918-3.93 15.317 15.317 0 0 1 7.096-25.69"/><path fill="#364045" d="M277.654 1391.1c17.806-.18 9.308-1.51 14.901 8.88 1.727 1.89 8.325 5.88 10.333 2.86 5.218-7.86 11.442.34 15.757 4.01-1.385 1.2-6.436 5.09-7.468 6.63-.253.38.475 1.6.913 2 2.921 2.6 3.113 6.89 4.877 9.99 1.612 2.84 9.092.27 9.674 3.99 1.565 10-1.563 9.27-9.77 11.49-1.858 3.69-3.517 7.35-5.351 11.03 3.422 4.99 8.635 9.18-2.514 14.96-1.916.99-7.009-2.72-8.317-3.6-.523-.35-11.061 3.76-11.726 4.17-.829 1.75-.989 4.4-1.542 6.47-11.026.12-11.774 1.63-12.496-5.03-.183-1.69-8.785-5.22-11.486-6.73-2.359 2.47-4.541 4.96-6.957 7.46-2.975-3.18-5.686-6.41-8.75-9.65 9.038-11.41 6.605-4.79 1.805-18.01-2.538-1.21-10.065-3.68-10.413-6.02-1.264-8.47 1.699-9.08 8.94-9.96 3.85-.3 2.974-7.3 4.752-8.61 3.62-2.67-.379-6.02-2.539-10.81l-.541-1.24c2.906-2.32 5.584-4.4 8.456-6.81 8.118 4.9 5.55 4.95 14.332 2.28 5.504-1.67 2.606-2.28 5.13-9.75"/><path fill="#fcfbfa" d="M278.38 1418.53c7.98-2.43 16.423 2.06 18.869 10.03 2.446 7.98-2.029 16.43-10.001 18.89-7.991 2.46-16.465-2.03-18.917-10.02-2.452-8 2.05-16.46 10.049-18.9"/><path fill="#364045" d="M1586.97 1390.96c6.98-.05 14.05-2.1 13.19 4.65-.44 3.43 7.05 7.18 9.7 9.02 3.34-2.18 6.33-4.27 9.57-6.56 3.1 3.36 4.92 5.55 7.81 9.06-10.18 11.05-5.93 3.07-2.47 14.43 2.78 9.14 3.05 2.86 9.07 7.03 3.54 2.46 1.76 12.46-4.89 10.58-1.2-.27-7.46 11.09-8.82 13.19 2.93 3.52 8.05 7.08 3.73 11.08-5.95 5.51-7.05 4.76-11.52-.33-2.13-.74-7.33 2.33-8.94 2.57-5.05.76-4.08 2.7-4.24 6.11l-.11 1.94c-2.8.03-14.13 1.45-13.81-2.57.13-2.32.31-4.32-2.19-5-12.71-3.46-4.85-8.24-16.76 3.12-3.79-3.15-5.31-4.52-8.72-8.07 2.25-3.08 4.37-5.91 6.52-9.07-3.38-8.43-2.99-12.49-12.1-13.08-.66-.08-2.27-.61-2.41-1.36-1.75-8.9-1.15-10.4 8.12-12.33 5.16-1.07 1.71-7.61 5.3-10.96.25-.23-3.62-7.13-4.38-8.58 3.05-2.73 5.73-4.93 8.89-7.52 5.11 3.23 8.05 7.13 17.91 1.55.71-.4 1.28-7.34 1.55-8.9"/><path fill="#fcfbfa" d="M1590.89 1418.37c8.15-.85 15.47 4.98 16.47 13.11.99 8.13-4.72 15.55-12.83 16.69a15.03 15.03 0 0 1-14.02-5.77 15.03 15.03 0 0 1-1.84-15.06c2.16-4.98 6.83-8.41 12.22-8.97"/><path fill="#364045" d="M1260.93 642.511c16.92.255 35.33.335 52.18.212 24.96-.183 43.95 4.956 61.83 23.437 21.03 21.745 24.25 44.883 23.89 73.674-8.68-.144-17.35-.225-26.03-.243l.1-9.723c.09-28.942-11.93-50.554-40.79-59.883-12.13-3.922-23.85-3.106-36.45-3.102l-34.73.077zm-539.23.722c17.198-1.556 48.242-.568 66.327-.434l-.039 24.512a1396 1396 0 0 1-47.249-.474c-29.407-.817-45.914 9.629-60.783 34.248-6.4 14.491-6.918 22.5-6.511 38.276l-25.143.078c-.431-32.436 5.751-56.362 31.738-77.604 13.392-10.946 24.842-15.51 41.66-18.602M505.832 1013.08c10.717-.59 22.99-.24 33.833-.17l.091 76.06c.022 10.76.563 27.75-.309 38.1l-1.396 1.15c-6.777-.17-33.441 3.21-33.463-5.93-.03-12.38-3.002-103.35 1.244-109.21m1047.128-29.665 99.05-.255c-.11 8.312.04 18.59-.73 26.72l-17.84 1.44c-.07 3.34.47 8.17-1.98 10.51-5.98-3.12-8.59-.7-14.68-2.21-3.23-3.85-2.78-5.51-3.22-10.85l-24.09.35.2 10.48c-5.14.07-13.11.69-17.71-.82-2.48-3.64-.46-3.76-4.51-7.22-7.18-.98-15.11-.65-22.41-.56-.12-6.85-1.74-21.479 1.82-26.476 2.89-1.155 2.93-.992 6.1-1.109M1448.91 810.05c9.2-.15 20.88-2.067 27.44 5.31 3.27 10.167 3.56 86.804-.87 95.908-9 4.9-16.44 3.653-26.7 3.547zm182.32 311.51.79-.08c1.87 2.49 1.39 7.75 1.57 11.52l17.53.05-.06 24.87a3356 3356 0 0 0-98.31-.84c-6.91.17-8.23-1.1-8.17-8.45.04-5.4.47-11.07.62-16.52 4.71.01 18.86.63 22.44-1.16.07-13.51 7.7-1.94 17.92-8.39l1.7.59c4.56 13.65 14.02 10.74 25.98 9.51.66-3.7.7-4.94 2.44-8.37 4-3.3 10.05-2.57 15.55-2.73M623.024 746.998l95.735-.023.113 26.116-95.939.204q-.052-13.15.091-26.297m709.766.065 95.39-.098-.09 26.137-95.79-.008c.05-8.678.21-17.356.49-26.031"/><path fill="#0b0d0e" d="M1054.17 318.467c3.07.956 1.79 33.527 1.82 38.512-20.33-.187-40.65-.227-60.974-.121-3.808-.984-1.947-33.079-1.874-38.028 20.338.097 40.688-.024 61.028-.363"/><path fill="#364045" d="M586.202 858.18c6.724-.37 10.631-.282 17.309.032.421 31.809-.012 64.494-.734 96.139-.014.613-3.811 1.071-4.026 1.105-4.985.135-11.373 1.195-14.642-3.436-5.382-7.626-2.621-22.068-2.724-32.119-.19-18.718-.291-38.206.533-56.899.093-2.099 2.827-3.815 4.284-4.822m920.038 172.11c4.58-.18 22.92-2.31 22.76 5.67-.15 7.82.78 22.62-.01 29.79-1.22 10.98 2.92 40.15-2.52 47.88-7.87 3.04-12.08 2.08-20.49 1.44-.15-26.03-.75-58.98.26-84.78"/><path fill="#0b0d0e" d="M1143.65 1091.51c8.66-.04 17.33.03 25.99.22.26 12.91-.51 26.09-.04 38.66 5.41.25 10.73.34 16.14.51-4.31 10.01-5.89 13.11-11.37 22.73-1.89 3.54-4.26 7.41-6.39 10.83-4.96-17.64-8.45-35.14-15.38-52.19-2.8-6.9-6.45-13.95-8.95-20.76"/><path fill="#364045" d="M1535.85 1053.56c1.17.17 3.74.64 4.13.66 1.14-.09 17.24 5.15 8.07 5.82-2.94-.37-5.99.25-7.9 2.96-2.93 4.14-1.62 16.42-.92 21.14 3.12-.16 7.17-.7 10.22-.3 1.46.19 1.03 2.33.47 2.57-3.29 1.35-10.07.85-13.82.92z"/><path fill="#ce4742" d="M335.317 834.595c2.508 1.043 3.371 1.229 5.993 1.922-3.688.652-16.336 3.891-5.993-1.922"/><metadata><recraft-signature>{&quot;signed_by&quot;: &quot;recraft&quot;, &quot;signature_b64&quot;: &quot;sJiaHuj6woeyU3J1W3X+T+r28Aor+c9wSrZBl7whgh57k22illy1PqkkbJVf0HpwSVocF8EZa8S70QtkUdewBQ==&quot;, &quot;signing_algo&quot;: &quot;Ed25519&quot;, &quot;generation_timestamp&quot;: 1777252749, &quot;identifier&quot;: &quot;586ad312-665c-471d-bc98-b7f6d87899b2&quot;}</recraft-signature></metadata></svg>