<svg xmlns="http://www.w3.org/2000/svg" width="1024" height="1024" preserveAspectRatio="none" style="display:block" viewBox="0 0 2048 2048"><defs><linearGradient id="b" x1="483.254" x2="470.907" y1="1139.11" y2="1137.45" gradientUnits="userSpaceOnUse"><stop class="stop0" offset="0" stop-color="#667883"/><stop class="stop1" offset="1" stop-color="#728d98"/></linearGradient><linearGradient id="a" x1="958.394" x2="940.096" y1="292.057" y2="288.429" gradientUnits="userSpaceOnUse"><stop class="stop0" offset="0" stop-color="#607282"/><stop class="stop1" offset="1" stop-color="#708894"/></linearGradient></defs><path fill="#687e8a" d="M1061.81 219.417c-3.5-2.793-7.26-4.173-10.02-7.468l.56-1.585c6.1-2.039 13.18 1.042 17.64 5.257 3.37 3.191 2.36 10.137 5.32 13.072l1.17-1.425c.79.963.73.882 2.07 1.055l.53.073c.08-6.142-.91-13.203-.77-18.545 24.41 17.575 18.68 20.22 27.6 46.417 1.19 3.514 11.65 12.465 14.95 17.488 1.11 13.167-1.26 25.514 9.71 34.219 7.85 6.221 15.71 9.709 22.76 16.738 12.91 12.862 11.93 39.678 20.72 52.203 7.15 10.19 25.31 13.698 32.21 28.439 6.96 14.863 3.68 31.778 13.44 44.085 11.76 14.842 32.77 13.704 34.76 36.793 1.31 15.184-.12 24.488 12.69 35.119 7.13 5.919 18.4 10.727 24.44 16.297 11.86 10.925 5.4 30.444 16.46 43.654 10.77 12.857 27.09 15.179 38.1 26.537 12.14 12.52 13.89 35.391 23.41 48.705 10.42 14.579 32.57 20.306 45.69 33.668 12.21 12.425 8.83 27.211 16.43 39.762 12 19.82 35.62 24.403 37.3 51.669.3 4.853 1.38 16.461 2.68 21.181 5.9 21.562 26.05 23.025 35.53 43.817 7.55 16.55-1.4 33.234 3.8 46.253 5.19 13.023 21.3 23.406 27.83 39.332 6.8 16.585 1.52 25.872 5.92 40.132 3.62 11.749 20.56 21.629 24.85 35.581 5.32 17.3-4.05 30.26-2.25 46.62 1.66 15.14 16.68 26.87 20.01 41.59 2.81 12.42-5.97 23.03-5.56 34.89.63 18.37 11.45 25.67 9.9 45.36-1.25 15.91-8.7 18-9.73 32.08-.79 10.66 4.35 21.02 5.76 31.08.82 5.9-4.71 20.62-6.44 26.16-1.07 3.39-4.11 12.7-6.54 14.8-1.55-1.04-1.1-.48-1.69-1.34-3.52-6.42-4.23-8.15-1.21-15.27 8-13.67-5.39-38.49-17.58-45.66-24.1-14.18-12.54-24.76-17.44-47.94-1.71-8.08-10.88-20.19-14.56-28.58-4.47-10.19-9.29-20.38-14.88-30.45 4.87 3.12 7.75 5.64 12.1 9.34 6.31 20.47 20 32.14 26.81 51.5 3.44 9.8 1.06 64.89 27.38 24 4.54-7.06 1.24-22.09-1.25-30.36-3.35 4.68-1.01 3.24-2.08 8.45-.44 5.9-2.46 21.32-10.41 21.33-6.51-5.95-5.07-24.36-8.1-32.26-3.37-8.76-18.99-16.42-20.7-26.37-1.2-7.01-1.68-15.55-2.68-22.98-7.6-7.39-13.55-8.63-23.41-11.32-6.82-12.01-12.76-25.97-20.18-39 10 7.4 14.52 13.47 20.6 24.08l1.28.32c3.09-14.75-11.18-32.02-26.07-34.28-7.14-22.35-10.36-28.12-24.49-45.72 15.43 9.64 18.36 19.17 29.52 32.33 7.08 6.77 12.94 7.54 19.88 15.15 7.63 8.37 13.94 43.04 29.23 42 16.96-1.15 17.94-25.14 10.61-36.71-4.19-6.62-4.98-7.68-11.36-12.96 2.32 8.79 10.18 21.77 4.11 29.28-16.06 7.11-15.87-13.66-22.46-20.08-16.24-15.81-29.14-31.51-42.66-49.52-19.06-7.995-23.82-2.37-34.45-25.305l1.03-.34c7.55 5.476 10.18 9.228 16.24 16.018-2.61-9.35-3.85-12.574-8.41-20.776-4.66-2.005-9.92-2.991-14.9-4.158-6.35-6.179-12.07-13.474-17.86-20.401-5.91-6.809-9.53-17.012-16.64-22.442-3.05-2.324-3.85-1.578-4.65-5.394l1.33-.302c14.04 3.239 15.33 17.756 26.84 28.012 11.75 10.47 25.91 15.146 36.01 25.128 4.26 4.205 7.56 18.115 14.35 23.86 6.98 6.94 21.09 4.19 27.27 11.94 9.82 12.32 9.18 32.5 29.38 34.23 12.81 1.1 18.32-15.27 18.5-25.71.25-13.98-6.73-24.211-16.04-33.858-2.65-2.786-5.98-5.082-9.91-5.107l-.44 1.312c2.6 5.767 7.55 8.946 11 14.279 3.59 5.564 3.96 23.964-3.5 25.654-13.85 3.15-17.11-18.53-27.62-24.859-8.41-5.069-14.98-6.17-23.85-9.512-5.86-7.592-10.39-18.215-16.26-26.9-10.12-5.179-22.52-7.944-30.6-13.176-8.51-5.506-13.52-22.904-23.32-29.735-4.76-5.024-20.58-4.693-24.77-7.9-12.61-9.646-19.64-19.138-33.69-27.944 19.19 3.774 19.37 8.351 31.88 21.919-7.3-25.688-11.85-25.362-37.14-29.085-15.68-16.026-38.67-40.087-60.51-47.483l1.44-1.996c29.19 3.753 34.39 21.673 57.8 35.545 9.26 5.488 22.17 4.3 30.06 9.619 9.02 6.076 10.78 20.062 20.05 28.171 10.48 9.156 20.64 7.856 30.58 16.852 8.57 7.757 12.14 20.382 19.58 28.333 8.2 8.778 19.72 8.169 30.58 7.935 5.84 8.464 7.54 16.815 16.7 23.561 9.48 7.633 21.15 8.567 28.23-2.716 12.45-19.841 4.8-46.667-14.99-58.521-2.76-1.655-5.66-3.411-8.84-2.716.8 6.023 31.21 34.54 10.8 48.041-11.39 2.588-18.66-15.799-27.76-20.659-5.41-2.888-13.34-2.863-19.49-4.397-17.54-4.375-18.89-24.509-31.4-34.476-7.97-6.351-20.23-4.95-27.7-12.588-5.02-5.127-7.14-13.109-11.09-19.252-8.46-13.131-29.99-11.322-44.87-14.059l-1.12-.216c-7.71-6.03-14.78-17.554-24.03-24.315-17.47-12.758-23.7-12.707-43.41-10.528-19.03-11.156-30.94-26.71-50.73-34.827l1.12-1.806c18.82 3.112 26.35 16.641 43.35 26.769-34.04-56.629-40.67-25.392-84.72-39.856-46.58-15.293-109.11-87.652-162.07-46.871-25.641-18.092-34.975-11.735-64.117-9.992-5.727.342-14.366-.862-20.308-1.642-14.842 6.731-17.444 11.668-24.669 25.611 14.922-10.086 19.144-13.656 36.513-18.666-7.164 4.607-19.563 11.981-25.445 17.64-34.903 33.579-66.437-11.037-91.172 41.682 15.716-5.486 24.951-16.647 41.311-19.294 1.428-.297 9.036-2.024 9.932-1.375.057.766-2.379 1.826-2.95 2.16-13.135 7.905-39.004 21.22-52.799 27.056-65.938-13.824-39.014 11.321-69.756 20.247-14.478 4.203-23.743-3.462-38.472 5.605-18.305 37.275-25.616 15.519-55.864 25.193-7.214 2.307-22.251 20.325-30.818 26.225-7.743-.066-15.129-.345-22.905 1.955-9.057 2.678-25.024 30.09-34.403 22.471-2.137-5.384-1.498-12.846.341-17.998 10.061-28.182 25.627-16.918 45.518-25.065 6.6-2.704 14.31-13.049 24.613-18.225 17.156.498 39.71 5.553 47.57-14.245 2.514-6.334 4.644-9.114 10.208-12.845 12.611-8.458 22.528-3.586 35.875-.873 20.802 4.227 24.053-22.438 35.936-28.106 8.138-3.881 16.971 2.203 32.104-3.246 19.687-7.087 26.627-17.726 43.747-26.122 11.131-5.46 26.679 2.168 41.655-2.838 16.899-5.651 17.342-21.109 27.878-27.646 11.33-7.029 29.905-4.622 43.248-14.657 19.726-14.835 38.339-37.067 42.829-61.992.87-4.834 1.04-10.606-1.81-14.626-.84-.234-1.6-.508-2.44-.379-19.027 2.911-27.673 24.325-40.883 34.378-5.923 4.508-20.913-1.359-26.904 4.395-6.39 6.138-9.276 14.574-16.072 20.578-11.804 10.427-23.578 2.442-36.86 1.93-12.689-.49-16.619 8.517-24.716 16.239-10.07 9.603-21.196 3.166-32.574 2.817-17.9-.549-21.19 15.008-31.1 24.993-7.166 7.22-20.394 3.537-29.59 2.979-15.716-.953-28.407 14.881-39.175 24.173-17.621 15.204-23.077 3.92-39.998 1.997-13.09-1.487-21.288 18.661-28.84 25.443-3.979 3.701-9.236 5.172-14.553 4.701-7.843-.695-7.547-11.967-5.173-17.241 5.252-11.669 20.68-27.682 33.648-30.072 9.426-1.738 19.8.293 28.947-4.242 11.644-5.284 18.284-14.856 30-20.072 19.958.47 40.347 10.591 56.457-6.721 6.248-6.714 11.272-13.599 18.665-19.03 6.377-6.155 22.071-1.387 28.35-4.645 18.226-9.458 14.143-26.58 38.701-16.97 13.561 5.306 21.327-16.866 34.109-24.883 14.544-1.973 21.137 2.638 33.582 1.509 9.278-.302 26.124-22.733 31.719-24.059 17.515-4.154 14.795-4.319 27.459-13.082 14.651-10.137 18.811-3.468 29.141-22.846 10.09 23.036 31.34 30.587 35.9 40.384 18.84 40.542 18.14 32.458 58.14 41.966 17.88 4.249 20.87 29.717 54.02 29.945 18.47 10.147 22.35 29.458 39.78 39.92 13.17 7.903 30.64 9.701 45.01 17.554 19.32 10.556 34.9 27.342 55.05 35.474 12.31 4.972 24.9-2.027 36.93 3.694 12.51 5.688 20.2 18.53 32.93 23.885 16.81 7.074 38.85 4.267 45.45-14.897a50.04 50.04 0 0 0-2.68-38.454c-5.22-10.145-23.23-27.322-35.05-21.254.45 2.164 15.21 12.103 18.24 18.068 4.97 9.794 12.96 23.988-1.7 30.28-14.41 6.182-30.45 1.783-42.78-6.501-5.61-3.686-12.33-7.85-18.79-9.682-10.07-2.376-21.67 1.183-31.48-3.814-17.79-9.054-32.65-24.034-50.87-32.355-12.53-5.587-27.21-1.098-41.07-10.576-13.73-9.39-18.85-20.572-30.37-31.856-5.59-5.485-15.85-3.241-22.22-7.772-9.64-6.856-16.8-21.613-27.09-27.175-14.99-8.101-34.85-7.592-50.92-13.077-15.35-5.238-20.94-22.448-27.35-36.625 22.82 9.621 13.8 16.696 32.36 27.314 13.04 7.464 34.91-5.46 45.05-1.062 15.86 6.877 10.97 24.973 32.65 34.693 21.51 9.641 34.38-.018 54.4 3.841 16.02 3.088 33.63 17.311 50.44 22.042 17.14 4.929 38.44.527 53.95-7.76 16.3-8.713 13.45-25.382 4.49-38.511-8.78-12.875-19.08-15.606-33.31-18.537l-1.56.711-.54-.428c16.3 11.128 34.24 27.942 5.98 44.766-13.16 7.83-38.84-1.867-50.16-9.462-5.27-3.541-14.18-8.471-20.69-9.465-17.4-2.105-35.1 7.778-52.31 1.396-17.77-6.326-18.36-28.664-35.54-36.219-15.74-7.9-30.37 4.275-45.58-.015-12.78-3.606-17.88-21.008-30.02-27.276-9.05-4.669-18.55-3.687-27.62-6.93-8.89-3.184-16.43-22.849-20.65-31.723-10.25 16.91-28.56 36.419-47.352 45.143-2.886 1.34-13.883-.778-17.18 1.522-7.898 5.509-11.698 18.458-19.476 24.055-11.083 7.976-22.983 1.472-34.685.108-17.355-2.022-22.484 13.898-35.304 21.199-7.572 4.312-17.769-.856-26.525 2.141-8.899 3.047-15.012 13.122-22.557 17.024-6.667 3.447-14.731.827-22.467 6.587-9.176 6.83-14.899 15.844-23.696 22.776-12.741 10.04-26.311 2.795-40.109.82-17.811-2.549-20.63 8.48-32.27 17.761-3.118 2.487-9.157 3.594-12.928 2.48-3.454-1.02-8.616-1.928-10.701-5.052-2.509-11.599 5.758-19.08 12.897-26.715 17.849-19.09 35.234-3.866 55.785-10.373 10.319-3.268 13.051-20.245 24.556-21.548 19.347-2.266 29.369 7.762 49.338-1.241 21.962-9.903 33.084-33.44 55.524-40.026 18.979-4.735 33.878 10.424 53.193 3.418 21.245-7.027 15.808-42.542 41.029-40.664 24.656 1.482 26.213-18.401 37.038-33.371 2.02-2.789 15.2-26.143 13.95-24.899 2.88 4.373 1.61 14.653 3.79 19.248 2.52 5.335 8.33 13.492 10.83 18.521 20.24 40.793 27.97 11.529 57.2 27.51 7.39 4.041 12.12 20.344 25.52 22.902 12.58 2.793 24.19-5.842 36.66.148 18.96 9.106 29 23.813 49.77 30.94 23.07 7.917 46.02 16.031 69.9 5.257 16.56-7.468 29.96-22.45 20.95-41.178-6.7-13.14-19.57-19.727-32.9-24.01-4.85-.253-4.77-1.055-8.54 1.758 9.32 3.943 18.03 7.842 22.04 17.715 4.57 11.263-1.96 21.566-13.28 24.658-17.53 4.789-41.45 4.934-58.15-2.769-6.12-2.826-13.77-11.606-20.75-13.461-13.75-2.638-25.85-5.653-38.87-11.084-4.95-2.066-13.42-2.195-18.26-5.29-9.33-5.98-15.51-16.255-26.11-20.431-12.46-5.157-30.63-1.77-42.01-8.227-15.31-8.684-17.91-24.33-21.68-39.7-2.33-9.484-6.91-11.539-14.73-15.773.43-7.519.17-14.595 0-22.122 2.14 3.647 5.62 9.964 9.02 12.476 2.34 1.721 9.72-.168 11.21 2.418 9.14 15.919 10.61 38.63 24.45 51.319 14.02 12.849 29.88 4.121 46.53 3.175l1.53-.079c23.58 11.151 12.9 27.761 40.56 35.172 24.49-7.159 52.81 7.031 75.73-5.999a32.98 32.98 0 0 0 15.49-20.502c6.22-25.147-29.11-38.042-38.84-31.685 4.69 3.403 13.25 2.89 16.44 7.799 11.18 17.177-13.98 33.993-28.89 34.183-12.4.157-44.77 3.142-52.27-9.073-13.12-21.374-21.07-25.935-46.74-22.324-40.7 4.972-23.96-35.154-46.87-54.874-20.29.214-23.23-6.322-25.86-25.467l-3.27-2.03c-3.16 10.695-8.6 19.719-13.56 29.557-4.27 8.465-7.97 17.022-12.826 25.033-12.35 20.382-29.044 11.376-47.351 18.712-10.612 4.253-16.294 17.837-27.642 21.086-12.356 3.238-22.476-2.955-36.216 3.557-12.582 5.964-17.308 22.299-29.712 26.283-14.862 4.327-25.127-6.082-40.729-1.157-9.421 2.974-26.465 18.657-34.206 15.546-9.929-3.991-6.469-17.803-1.359-24.462 6.501-8.473 10.002-11.017 20.546-13.258 14.79-3.328 35.455 5.374 48.404-3.33 9.233-6.207 15.014-13.908 25.205-20.137 15.749 1.542 33.07 5.323 45.112-5.518 5.747-5.175 14.387-13.097 20.86-16.379 11.312 1.141 18.777 2.51 30.254 1.833 6.863-5.554 12.517-11.022 19.496-16.496 5.958-4.671 12.644-8.4 18.164-12.917-16.819 3.773-32.489 8.704-48.794 14.076-6.228 2.051-20.62-5.345-27.992-.796-13.976 5.219-22.285 20.413-35.853 23.634-9.047 2.148-19.077-6.399-29.875-2.271-14.301 5.467-17.732 25.1-35.126 19.935-2.084-1.937-3.511-3.273-3.204-6.267 3.032-29.503 21.831-17.265 40.145-24.199 4.03-1.526 12.263-12.887 16.899-16.648 11.027 3.875 25.959 10.226 36.827 4.052 11.557-6.565 18.034-17.809 30.756-23.646 15.752 2.65 27.563 8.043 41.508-2.819 10.449-8.138 27.369-23.532 30.749-37.074.37-1.496.94-8.478 1.18-10.663 4.13 26.863 2.71 32.836 26.51 49.887 6.18 4.425 15.23 10.328 21.26 14.924 5.42 5.154 9.42 12.787 15.35 17.323 6.11 4.672 13.64 6.968 20.78 10.691 23.4 12.2 80.25 31.53 101.53 7.46 17.08-19.329-6.83-52.029-30.02-58.459-5.94.335-8.74-.877-13.14 1.924 4.81.644 7.61 1.177 11.59 4.167a25.87 25.87 0 0 1 10.25 17.476 25.95 25.95 0 0 1-5.96 20.218c-18.52 21.437-76.83 3.365-94.81-12.585-4.63-14.286-7.12-22.89-23.57-25.95-26.55-4.94-21.24-37.348-36.33-54.037-2.31-2.557-3.35-11.472-3.89-15.069 5.84 7.795 17.22 13.387 20.63 19.932 9.87 18.905 10.77 31.598 34.28 38.098 13.59 3.758 32.11-3.431 43.64 4.95 12.26 8.914 3.2 21.443-8.22 25.338-10 3.75-17.05 3.919-26.96 4.642 17.82 2.751 41.51 5.717 54.56-9.408 2.85-2.586 7.61-9.769 6.49-14.083-3.49-13.386-26.56-22.785-38.88-24.756-11.31-1.807-23.54-1.172-33.83-5.408-9.32-3.84-12.14-20.455-18.17-27.403-7.41-9.239-14.69-10.942-23.57-17.78-9.37-8.061-10.41-36.602-10.98-49.042 12.04 23.199 13.26 39.845 38.63 51.926 6.64-.53 12.8-2.744 19-3.653 18.72-2.745 21.09 15.371 9.37 26.108-6.27 5.74-11.58 2.814-18.18 6.151 2.13 2.773 6.63 4.291 9.99 4.888 37.23 6.623 51.96-41.927 14.51-50.892-25.72-6.158-33.19 7.678-53.68-18.282l-1.82-12.695c-3.81-3.187-8.15-5.654-11.7-9.237-9.89-9.994-6.88-26.815-6.31-39.834 6.47 14.371 8.52 25.787 22.91 33.065 8.96-.106 27.1-6.601 27.18 13.547.03 8.671-12.49 16.273-19.13 21.477l.51 1.368c3.66 1.601 9.94 2.421 13.83 1.913a23.83 23.83 0 0 0 16.28-9.716c11.72-16.615-1.07-40.447-19.34-42.585-23.74-2.78-37.59-10.914-41.18-36.551-.31-2.215-.8-6.25.58-8.015 5.04 6.032 7.76 15.007 11.98 21.656 5.71 8.961 18.02 13.598 27.05 6.646 3.67-2.796 6-7.002 6.42-11.594.46-5.17-1.35-8.937-4.4-12.857-4.31.638-6.86 8.566-10.63 11.384-10.19 7.634-25.86-17.41-28.67-24.793-.52-3.034-1.35-24.601-.94-27.629l.33.081c.77 1.592 1.93 6.744 1.66 8.461 5.1 12.948 7.7 8.263 17.36 17.002 3.7 3.348.36 8.22 4.19 13.968 12.39 6.514 17.85-11.718 17.37-20.133-.34-6.005-21.91-5.82-27.28-10.051-7.16-5.647-9.92-15.313-11.94-24.221l-.34-1.541c9.91 7.734 13.38 11.811 21.61 21.44 3.17 3.702 7.47 6.29 12.49 6.471 12.17-5.481 3.56-21.021-.26-29.72"/><path fill="#ae5d0e" d="M1078.31 209.851c24.41 17.575 18.68 20.22 27.6 46.417 1.19 3.514 11.65 12.465 14.95 17.488 1.11 13.167-1.26 25.514 9.71 34.219 7.85 6.221 15.71 9.709 22.76 16.738 12.91 12.862 11.93 39.678 20.72 52.203 7.15 10.19 25.31 13.698 32.21 28.439 6.96 14.863 3.68 31.778 13.44 44.085 11.76 14.842 32.77 13.704 34.76 36.793 1.31 15.184-.12 24.488 12.69 35.119 7.13 5.919 18.4 10.727 24.44 16.297 11.86 10.925 5.4 30.444 16.46 43.654 10.77 12.857 27.09 15.179 38.1 26.537 12.14 12.52 13.89 35.391 23.41 48.705 10.42 14.579 32.57 20.306 45.69 33.668 12.21 12.425 8.83 27.211 16.43 39.762 12 19.82 35.62 24.403 37.3 51.669.3 4.853 1.38 16.461 2.68 21.181 5.9 21.562 26.05 23.025 35.53 43.817 7.55 16.55-1.4 33.234 3.8 46.253 5.19 13.023 21.3 23.406 27.83 39.332 6.8 16.585 1.52 25.872 5.92 40.132 3.62 11.749 20.56 21.629 24.85 35.581 5.32 17.3-4.05 30.26-2.25 46.62 1.66 15.14 16.68 26.87 20.01 41.59 2.81 12.42-5.97 23.03-5.56 34.89.63 18.37 11.45 25.67 9.9 45.36-1.25 15.91-8.7 18-9.73 32.08-.79 10.66 4.35 21.02 5.76 31.08.82 5.9-4.71 20.62-6.44 26.16-1.07 3.39-4.11 12.7-6.54 14.8-1.55-1.04-1.1-.48-1.69-1.34-3.52-6.42-4.23-8.15-1.21-15.27 8-13.67-5.39-38.49-17.58-45.66-24.1-14.18-12.54-24.76-17.44-47.94-1.71-8.08-10.88-20.19-14.56-28.58-4.47-10.19-9.29-20.38-14.88-30.45 4.87 3.12 7.75 5.64 12.1 9.34 6.31 20.47 20 32.14 26.81 51.5 3.44 9.8 1.06 64.89 27.38 24 4.54-7.06 1.24-22.09-1.25-30.36-1.32-5.74-6.44-10.2-7.08-16.11 1.12-1.56 2.19-3.08 3.03-4.81l.85-1.68c4.73-14.96 3.76-20.01.46-34.47 1.36-3.52-.75-2.5 1.69-5.74-2.78-7.33-8.86-13.06-14.19-18.78-1.15-15.03-4.89-23.44-10.49-37.1 12.9-37.86 3.9-48.114-20.96-76.317 5.21-38.272-1.13-41.982-27.34-69.082-2.27-23.972-1.08-33.425-19.37-49.469-.22-30.824-16.46-36.085-35.05-55.628l-.81-.867c-2.04-39.748-6.45-48.295-42.16-67.298 1.62-35.698-10.7-50.94-45.23-60.303-7.38-24.02-7.73-32.003-31.97-41.798-2.29-.926-12.13-8.672-12.44-9.902-8.07-31.918-16.91-34.524-46.45-49.716 1.23-34.452-3.06-39.903-34.39-55.598-1.33-16.759.84-31.104-13.61-44.147-10.48-9.452-27.36-14.649-36.69-24.862 1.1-6.086 2.2-12.288 3.26-18.374 5.99-34.218-28.45-41.844-43.23-62.324-1.01-17.787-.97-41.075-20.93-49.782-4.44-1.939-9.72-1.811-12.87-5.28-6.74-21.541 15.66-14.168-12.54-49.353 2.18-13.33.64-26.134-14.83-28.574.08-6.142-.91-13.203-.77-18.545"/><path fill="#687e8a" d="M1507.38 1111.28c4.87 3.12 7.75 5.64 12.1 9.34 6.31 20.47 20 32.14 26.81 51.5 3.44 9.8 1.06 64.89 27.38 24 4.54-7.06 1.24-22.09-1.25-30.36-1.32-5.74-6.44-10.2-7.08-16.11 1.12-1.56 2.19-3.08 3.03-4.81l.85-1.68 2.72 1.26c-.21 7.27 8.21 21.67 9.48 30.25 2.22 14.98-3.76 27.53-13.57 38.19-.6.65-1.22 1.3-1.84 1.95 5.24 8.33 17.08 24.68 14.7 34.02-2.6 10.19-7.58 19.25-7.66 30.35-3.52-6.42-4.23-8.15-1.21-15.27 8-13.67-5.39-38.49-17.58-45.66-24.1-14.18-12.54-24.76-17.44-47.94-1.71-8.08-10.88-20.19-14.56-28.58-4.47-10.19-9.29-20.38-14.88-30.45"/><path fill="#70838f" d="M1569.68 1108.69c1.36-3.52-.75-2.5 1.69-5.74 6.61 14.16 5 26.79.57 41.47l-2.72-1.26c4.73-14.96 3.76-20.01.46-34.47"/><path fill="#f6f3f3" d="M1547.16 1088.44c9.79 4.19 17.62 10.68 22.52 20.25 3.3 14.46 4.27 19.51-.46 34.47l-.85 1.68c-.84 1.73-1.91 3.25-3.03 4.81-.57.29-.65.25-.97.6-18.46 1.8-25.41-9.2-27.63-26.23-1.37-10.5-5.3-17-9.76-26.13 10.39 7.26 14.26 10.87 18.89 23.53 1.54 4.2 5.57 11.26 11.06 10.15 7.67-1.54 7.79-12.83 6.2-18.6-2.32-11.73-8.26-16.17-15.97-24.53"/><path fill="#aaaeb5" d="M1564.37 1150.25c.32-.35.4-.31.97-.6.64 5.91 5.76 10.37 7.08 16.11-3.35 4.68-1.01 3.24-2.08 8.45-.86-5.19-.48-7.88-1.97-13.36-2.67-9.81-6.34-1.32-4-10.6m-536.81-884.961c-.52-3.034-1.35-24.601-.94-27.629l.33.081c.77 1.592 1.93 6.744 1.66 8.461-1.92 7.29-.91 11.42-1.05 19.087m140.53 201.275c-1.02.122-5.15.721-5.7-.806.58-2.704 16.22-1.588 18.84-1.118-5.94.335-8.74-.877-13.14 1.924"/><path fill="#f6f3f3" d="M1257.74 579.522c-1.92-.175-2.11.021-3.83-.991-.02-.104-.03-.208-.05-.312.48-2.606 10.51-.851 12.42-.455-4.85-.253-4.77-1.055-8.54 1.758m-233.58-121.975c.36-1.263.94-5.217 2.19-5.775.93.549.97 6.518 1.08 7.805z"/><path fill="#70838f" d="M872.503 759.831c1.428-.297 9.036-2.024 9.932-1.375.057.766-2.379 1.826-2.95 2.16-2.349-.198-4.645-.5-6.982-.785"/><path fill="#f6f3f3" d="M1024.44 611.569c4.93 4.613 9.06 10.232 14.98 13.694 4.81 2.815 10.9 3.497 15.06 7.407 9.71 9.129 11.61 24.134 23.3 31.823 10.85 7.137 25.16 5.204 35.74 12.992 12.02 8.851 18.76 22.148 31.92 30.224 7.52.361 14.86-.386 22.28 1.393 25.8 6.184 30.48 38.204 53.28 50.049 11.44 5.94 26.04-2.251 36.73 6.486 10.2 8.333 12.56 24.476 25.06 30.647 10.62 5.244 24.39 1.707 35.74 5.479 13.37 4.443 20.16 19.088 32.73 24.613 17.34 7.622 33.38-4.039 53.35 6.703 6.41 3.451 11.98 8.605 17.73 13.058 5.43 4.217 12.2 8.316 19.39 7.124 3.7-.614 7.85-2.635 10.01-5.802 2.44-3.58 2.42-8.081 1.31-12.117-3.55-12.912-12.73-16.75-23.32-22.417l-.25-1.27c4.86-1.432 10.12.084 14.62 2.087 10.36 4.624 21.09 13.621 25.02 24.472 2.38 6.586 1.63 12.64-1.61 18.786-3.83 7.253-10.44 13.749-18.57 15.805-21.18 5.356-33.56-22.821-49.34-30.974-3.36-1.737-6.56-2.391-10.24-1.34l-.74 2.118c.73 3.443 2.05 5.505 4.36 8.158 13.74 15.756 28.55 20.174 45.35 30.863 10.46 6.657 19.21 17.257 32.65 17.58 3.04.073 5.73-.642 7.71-3.108 3.39-4.238 2.92-10.414 2.26-15.408-2.66-8.394-7.53-15.108-11.8-22.716 5.18 2.245 9.82 4.276 13.49 8.749 7.04 8.582 10.89 21.273 9.69 32.312-.68 6.247-3.05 12.528-8.18 16.459-6.59 5.053-18.47 5.406-25.62 1.369-11-6.212-16.18-20.009-25.71-28.147-7.46-6.366-16.19-11.277-24.07-17.115-10.61-7.864-21.07-19.964-33.17-25.111-10.23-4.353-21.95-3.121-31.82-8.783-11.36-6.514-17.38-18.866-30.39-23.372-9.04-3.132-18.52-.227-27.65-1.982-19.32-3.714-24.32-29.579-40.14-38.808-6.27-3.654-14.22-5.541-21.05-8.035-8.21-2.997-16.54-6.892-24.14-11.206-14.04-7.969-20.59-21.63-32.4-29.043-8.28-5.195-18.95-3.815-27.61-8.391-11.41-6.027-17.57-19.091-27.84-26.669-13.14-9.705-32.25-7.362-45.87-17.741-8.79-6.697-9.65-18.465-17.45-25.112-10.3-8.772-15.02-3.784-24.86-17.642-.5 14.069-3.74 29.484-9.04 42.514-5.69 13.969-14.34 20.806-27.907 26.329-4.328 1.761-9.59 4.205-14.058 2.283-.673-4.75 9.33-13.785 12.706-17.427 6.792-7.325 15.869-14.154 21.699-22.127 10.17-13.909 9.43-34.108 16.68-49.713"/><path fill="#f6f3f3" d="M1194.68 677.977c25.99-1.394 22.83 15.444 41.9 22.363 14.12 5.121 30.42-.737 45.21 2.9 14.65 3.604 25.51 15.921 39.49 21.381 11.31 4.416 28.98 6.334 40.17.964 4.23-2.029 7.72-5.297 9.12-9.869 1.81-5.939-.21-12.096-3.11-17.314-.29-.512-.59-1.013-.88-1.522-3.73-6.548-9.76-10.572-15.63-15.088l-.01-1.7c2.06-1.245 2.66-1.45 5.18-1.183 10.87 1.155 18.57 8.947 25.05 16.972 4.38 6.485 8.03 13.6 9.25 21.411 1.28 8.241-.5 18.851-5.54 25.635-6.51 8.762-16.12 12.012-26.52 13.313-36.97 4.625-46.47-26.762-76.51-34.929-16.32-4.439-35.29 3.349-50.49-5.02-15.82-8.712-21.58-26.692-35.51-37.415zm-168.22-22.58c17.34 6.941 20.25 26.445 34.37 35.696 14.16 9.277 32.92 2.656 47.03 12.584 7.13 5.017 12.48 12.18 18.29 18.599 10.96 12.122 21.28 9.187 36.05 9.891 8.25 6.017 13.96 15.154 22.54 20.751 6.98 4.555 19.48 6.527 24.69 12.666-33.46 6.625-35.84-15.085-58.28-26.304-8.06-4.031-17.36-3.819-25.29-8.905-9.71-6.232-17.29-16.126-28.24-20.305-15.87-6.058-32.47.803-47.76-9.549-13.21-8.945-20.47-30.129-23.4-45.124m95.07-268.933c8.84-.363 18.69-.483 27.47.83 9.52 1.424 17.99 4.878 23.72 12.926 4.67 6.561 6.04 15.464 4.78 23.317-1.64 10.207-5.91 17.897-14.39 24.001-6.38 4.596-11.69 6.543-19.46 5.31-9.15-4.331-18.48-9.132-27.13-14.363 7.99-.513 18.31.639 25.34-3.733a22.5 22.5 0 0 0 10.03-14.76c5.87-30.987-27.83-27.091-31.65-32.544.22-.438.96-.775 1.29-.984m-18.8-66.076c3.25-.584 7.01-.58 10.26-.006 6.81 1.2 11.47 3.994 15.47 9.784 4.77 6.887 6.25 15.718 4.57 23.837-1.5 7.295-6.96 13.892-13.23 17.695-7.16 4.343-14.24 5.242-22.3 3.332q-1.29-.307-2.58-.642l-2.09-.833c-1.39-.541-3.25-1.052-4.46-1.996-.4-.309-.49-.463-.56-.957.77-1.004 3.01-1.36 4.19-1.532 1.01-.148 1.99-.219 2.99-.436.51-.111 1.02-.241 1.53-.354 1.38-.305 2.68-.583 4.04-.983 6.66-1.952 11.32-5.549 14.55-11.745 2.97-5.683 4.31-13.382 2.2-19.569-4.89-14.393-18.63-6.082-26.9-10.915-.41-.237-.88-.56-.93-1.074-.02-.29.1-.582.3-.79 2.26-2.343 9.84-2.414 12.95-2.816m-28.78-57.581c4.63 1.119 10.22 1.615 14.57 3.047 5.53 1.825 11.71 7.082 14.09 12.424 2.26 5.079 2.24 11.385.02 16.456-3.52 8.047-11.03 12.17-18.84 15.234-3.7.395-7.34.929-10.78-.847-.75-.389-1.96-1.113-2.04-2.091-.19-2.19 14.03-10.802 16.63-15.389 2.02-3.582 3.36-8.536 2.24-12.614-1.97-7.176-8.07-8.168-13.46-11.483-1.12-.692-1.94-1.824-2.17-3.135-.02-.136-.03-.275-.06-.412zm1.5-28.662c.51.045 1.02.097 1.53.134 4.73.349 7.86 1.604 11.04 5.215 3.14 3.567 3.34 7.476 2.96 12.023-.37 4.412-4.33 7.417-7.46 10.008-.48-.118-.97-.248-1.46-.333-.42-.073-.51 0-.9-.18-.29-.13-.49-.395-.58-.69-.15-.481 0-1.022.2-1.462.44-.965.96-1.843 1.23-2.876.85-3.31-.35-7.603-2.06-10.452-1.34-2.221-2.89-3.405-5.4-3.911-.71-.144-2.14-.235-2.8-.796-.24-.203-.36-.514-.39-.82-.11-1.344 1.37-2.977 2.18-3.86.25-.27.51-.526.77-.791z"/><path fill="#687e8a" d="M1292.98 1402.47c.38.18 2.65 1.09 2.71 1.74.66 7.73.39 20.29.64 27.77 1.72 15.91-1.5 18.99-1.97 33.53-.5 15.38-.37 31.92-.41 47.36l-.03 144c.1 21.81 1 46.36.68 67.84 26.66 14.16 26.8 41.04 4.29 59.61-.09 27.64-1.6 58.44 1.5 85.57 2.71 23.65 30.33 40.11 53.1 36.74.93 4.53.55 8.44.4 13.11-5.64-1.3-51.03-.78-60.47-.77l-149.99.05H813.847l-81.088-.1c-8.501-.02-33.069-.72-39.676.66-.109-5.01-.538-9.41.689-14.21 11.861 3.91 33.674-4.66 42.212-12.99a46.4 46.4 0 0 0 12.692-22.82c2.477-10.72 1.362-31.95 1.201-43.52q-.146-20.685.05-41.37c-7.089-4.76-11.658-9.3-14.897-17.45a32.12 32.12 0 0 1 .425-25.24c4.675-10.26 11.714-14.03 21.49-17.48 1.666-86.6-1.067-179.2-1.109-266.2-.003-6.02-5.241-5.79-3.294-17.02 9.695-.1 19.414.08 29.127.06 1.149 8.01-2.232 14.11-2.561 24.12-.298 9.06-.323 16.65-.294 25.72l.113 234.17c23.638 13.93 24.447 42.32 3.555 59.4-.199 16.56-2.235 74 1.615 87.61a45.16 45.16 0 0 0 11.092 18.99 49.47 49.47 0 0 0 36.325 14.99 50.94 50.94 0 0 0 36.028-16.45c14.655-15.92 11.808-34.33 11.723-54.25a1931 1931 0 0 1 .071-51.23c-26.014-16.7-22.165-44.89 3.428-60.24.895-44.03.002-89.77.019-133.98l-.18-97.94c-.011-10 .297-20.1.468-30.1.188-11-6.3-10.05-3.704-20.56 8.245.23 21.094.43 29.141-.28 1.672 5.81-2.388 19.83-2.186 29.52 1.761 84.31-.664 169.46.454 253.67 27.547 13.17 26.279 42.33 4.369 60.84.229 16.15-.38 74.29 2.481 85.76a44.1 44.1 0 0 0 11.815 21.03c9.456 9.46 23.153 14.41 36.446 13.98a50.75 50.75 0 0 0 35.688-16.84c12.215-13.64 11.695-29.24 11.585-46.28-.12-19.6-.21-39.22-.12-58.82-8.62-5.71-14.827-12.67-16.818-23.14a31.78 31.78 0 0 1 5.447-24.42c4.211-5.98 9.021-9.38 15.411-12.77 1.38-39.48.3-81.27.14-120.9l-.21-144c-.1-8.6-5.27-8.37-2.58-17.39 5.27.16 21.96.41 27.67-.29.91-.11 1.16-2.19 1.31-3.01 1.34 9.8-.99 11.42-1.91 20.76-1.15 11.66-.79 24-.78 35.76-.73 76.5-.68 153 .14 229.5 25.05 12.84 28.48 43.68 5.15 60.16.05 16.51-1.43 75.16 1.56 87.21a44.06 44.06 0 0 0 10.39 19.34c8.86 9.72 20.97 14.95 34.05 15.27 14.06.35 27.64-5.07 37.6-14.99 4.7-4.66 11.28-14.33 11.98-20.61 2.94-26.17 1.42-60.15 1.45-86.72-24.8-19.19-22.59-45.74 5.27-60.27-.99-20.75-.57-47-.76-68.13-.37-54.78-.26-109.56.34-164.34.14-14.64.12-29.21-2.57-43.65-.8-4.27-.23-8.61.25-12.89.65-10.23-.21-20.4.47-30.57.04-.63 1.35-.9 1.8-.99l1.27-.28c5.64.31 14.81.23 20.37-.35l1.29.34c3.55.87 2.79 1.92 2.81 5.17.04 10.72-.64 21.65.75 32.31 1.03 8.01-1.97 16.02-1.96 24.14.15 86.28-2.41 174.27-.14 260.43 26.91 12.69 26.13 41.45 3.77 59.1-.1 15.47-1.43 74.14 1.19 85.56a48.6 48.6 0 0 0 12.49 23.13c18.68 19.01 49.58 17.01 67.7-1.9a42.1 42.1 0 0 0 10.57-18.67c2.83-11.03 1.78-28.98 1.75-40.82-.07-15.25.05-30.49.35-45.74-25.85-18.88-20.93-45.74 4.32-62.81.36-57.44.26-114.89-.3-172.33-.04-21.31 1.85-85.68-2.67-102.37-.67-2.48-.56-5.1.32-7.51 1.83-12.9-.03-24 .69-36.77.02-.29 1.88-.58 2.14-.62l1.53-.26c5.93.31 15 .23 20.9-.37"/><path fill="#ae5d0e" d="M1292.98 1402.47c.38.18 2.65 1.09 2.71 1.74.66 7.73.39 20.29.64 27.77-.19 9.69 1.71 9.35-8.9 9.11-6.42-.14-13.41.73-19.71-.6 1.83-12.9-.03-24 .69-36.77.02-.29 1.88-.58 2.14-.62l1.53-.26c5.93.31 15 .23 20.9-.37m-127.5-.01 1.29.34c3.55.87 2.79 1.92 2.81 5.17.04 10.72-.64 21.65.75 32.31-7.48.98-20.18.74-27.94.09-1-.08-.8-5.03-.82-5.72.65-10.23-.21-20.4.47-30.57.04-.63 1.35-.9 1.8-.99l1.27-.28c5.64.31 14.81.23 20.37-.35m-146.65 327.6c8.96-2.22 18.41.56 24.75 7.26 6.34 6.71 8.58 16.3 5.86 25.12a25.57 25.57 0 0 1-18.97 17.46c-13.68 3.01-27.23-5.54-30.41-19.18-3.188-13.63 5.18-27.3 18.77-30.66m257.15-.11c13.75-3.18 27.47 5.4 30.63 19.16 3.16 13.75-5.45 27.46-19.22 30.59-13.72 3.12-27.38-5.46-30.53-19.18s5.41-27.39 19.12-30.57m-517.525.6a25.39 25.39 0 0 1 24.748 6.87 25.39 25.39 0 0 1 6.069 24.96 25.36 25.36 0 0 1-18.829 17.47c-13.479 2.98-26.865-5.37-30.127-18.78-3.261-13.41 4.798-26.97 18.139-30.52m392.385-1.03c13.82-2.44 27 6.81 29.39 20.64s-6.9 26.97-20.74 29.32c-13.77 2.33-26.84-6.91-29.22-20.67-2.38-13.77 6.82-26.86 20.57-29.29m-261.389.65a25.34 25.34 0 0 1 24.501 8.19 25.338 25.338 0 0 1-15.492 41.66c-13.524 1.98-26.181-7.12-28.612-20.57s6.242-26.4 19.603-29.28"/><path fill="#687e8a" d="M1525.76 1162.53c3.61 9.37 7.37 18.56 8.04 28.65.66 9.85.29 16.11 3.21 25.64 9.73 7.02 22.93 14.48 24.99 26.68 1.67 9.87-1.3 16.7-1.77 25.65 6.73 10.69 15.91 17.17 12 31.28-4.02 14.52-17.53 30.74-9.16 46.53 2.79 5.26 13.28 11.39 14.95 16.37 5.43 16.23-5.06 34.99 2.82 53 5.15 11.77 15.49 10.37 23.1 15.88 13.55 9.83 12.78 32.13 33.73 35.97 11.23 2.06 21.16 1.52 28.04 12.85 6.59 10.84 9.49 12.96 22.81 15.82 6.84 1.47 15.33 1.15 22.55 1.34 11.17 10.72 10.41 23.11 17.78 33.43 13.63 19.11 25.63 20.26 25.91 46.97.52 51.39-44.77 84.32-32.4 138.12 3.08 16.13 7.27 31.62 21.24 43.46 27.54 22.9 58.73 44.18 89.32 62.83 12.78 7.79 31.08 6.89 43.84 18.15 27.74 24.47 15.59 74.96-24.65 73.36-26.39-1.05-36.58-24.68-54.08-39.69-19.41-14.4-37.67-19.49-48.47-42.99-7.07-15.4-12.63-32.68-19.91-47.7-12.98-26.8-32.31-46.72-31.27-78.65.96-29.19 46.51-55.71 22.94-84.75-2.56-2.97-5.18-5.49-7.5-8.58-5.97-27.66 6.12-37.54-22.2-50.75-4.79-2.24-7.33-28.94-20.66-30.34-12.14-3.6-47.69-1.45-49.96-17.68-3.68-26.21-3.7-17.14-24.17-26.75-13.42-6.3-23.18-40.19-27.54-55.74l2-1.42c7 12.66 12.36 13.53 19.29 23.99 3.2 4.83 5.4 18.31 11.12 23.33 8.15 7.15 20.81 11.03 29.9 16.43 12.77 7.58 22.46 16.56 36.36 22.7 4.78 2.11 22 .54 24.3 2.45 8.6 7.17 3.75 25.53 14.73 35.86 4.33 4.07 7.53 6.09 12.14 9.32-1.8-20.23 3.66-42.64-15.34-55.57-8.88.17-21.82 1.1-30.11-1.16-9.46-2.6-17.31-16.47-24.72-23.1-11.47-2.54-29.45-4.83-34.17-16.62-7.45-18.64-20.52-18.01-33.31-31.31-12.2-12.68-1.41-71-21.77-70.4-8.35 12.57 8.24 49.36-40.66 48.53-29.28-.49-29.14 26.04-37.2 44.23-5.78 13.03-25.81 1.2-35.11 3.58-15.16 2.9-20.98 12.84-29.82 24.22-11.55.25-26.43-.72-35.47 7.51-10.54 9.61-10.15 35.23-10.36 48.7 13.76-33.8 25.97-24.01 49.54-43.88 2.46-2.07 6.41-12.88 9.12-16.57 8.75-11.94 25.21-2.49 41.22-6.21 23.58-5.48 18.99-30.54 26.92-36.35 17.63-12.9 43.23-5.33 59.35-30.14l2.79 2.38c-2.32 11.33-5.85 20.73-15.28 28.46-10.48 8.6-28.95 2.06-34.59 5.21-21.61 12.03-4.35 38.14-34.04 40.15-9.37.64-16.01-1.22-25.29-1.92-10.43 4.77-12.57 7.19-20.05 15.74 5.58-.99 9.82-1.75 15.55-1.83 17.97-.25 34.05 6.58 46.41-10.76 7.44-10.45 8.82-25.92 22.74-27.44 18.09-1.96 19.45.9 33.52-11.7l1.65 2.11c-13.78 16.33-25.31 21.93-44.45 29.32-3.79 1.46-4.22 13.94-2.64 18.8l1.69 1.01c2.8-1.94 3.73-6.42 4.96-9.93 8.79-5.21 19.85-11 27.92-16.62-13.2 16.91-29.49 39.21-52.35 42.95-19.1 3.12-41.7-16.53-56.74.15-7.02 7.79-8.35 27.95-8.16 38.32 17.46-31.67 21.05-29.13 54.55-26.56l-1.23.8c-9.92 6.36-21.1 9.97-31.33 15.57-29.01 15.88-47.72 37.1-51.04 70.77l-1.65-.06c-.88-5.28-3.45-19.19-2.53-24.99 2.57-16.06 20.52-37.97 19.36-54.08-.37-1.79-2.54-4.04-4.32-4.22-20.52-2.09-32.15 22.81-36.4 37.48 1.47 8.46-.78 6.4-2.03.29-2.4-21.42-4.38-62.9 5.01-83.02 5.07-10.87 14.82-7.98 23.82-10.84 11.14-3.55 10.1-20.11 14.64-27.95 10.8-18.7 23.92-6.73 36.13-10.57 14.98-4.71 17.66-31.49 22.24-44.5 8.7-24.76 33.69-30.15 51.31-47.43 10.39-10.18 12.73-13.95 19.42-26.79l3.1.99c-1.09 42.94-40.28 37.18-51.54 60.25-15 30.72-.88 57.31-54.05 61.7-3.76 3.81-7.93 5.76-12.38 9.51 2.77.16 5.56-1.44 8.23-2.59 5.56 1.65 16.67 5.44 22.1 4.18 15.57-3.6 29.75-26.22 35.65-40.17 4.36-10.32 4.61-26.01 11.44-35.02 11.07-13.75 29.08-12.27 39.08-27.72 20.46-31.62 6.94-70.17-.09-105.26l1.6-3.3c6.75 19.17 11.27 42.92 16.23 63.02 1.11 4.49-.58 17.83-1.86 22.91l2.2 1.63c1.51-9.65 7.28-15.67 7.44-25.75.16-9.52-6.67-17.02-8.45-24.98-2.04-9.1 1.48-18.07-3.15-27.55-3.73-8.93-15.06-20.09-17.1-29.22-4.02-17.89-7.6-38.46-10.56-56.49z"/><path fill="#aaaeb5" d="M1364.26 1568.41c1.28.87 1.15 1.12 2.03-.29 1.47 8.46-.78 6.4-2.03.29"/><path fill="#dedde0" d="m1554.34 1325.81 2.2 1.63c-1.41 6.36-2.71 2.98-2.2-1.63"/><path fill="#f6f3f3" d="M1553.37 1338.45c.98.68 1.59.97 2.22 1.88 1.68 2.4 1.64 5.34 1.05 8.11-.11.52-.24 1.04-.35 1.57-.85 3.85-1.15 7.09-1.53 10.99-1.58 16.42-17.19 35-29.26 45.17 2.99-11.49 9.05-19.93 15.13-29.92-5.85 2.58-10.26 4.43-15.13 8.68-4.11 4.97-7.06 10.07-10.32 15.61-5.67 1.19-10.86 1.68-16.64 2.09.38-2.74.78-5.42 1.26-8.15.4-2.21.82-4.35 1.72-6.44 5.03-11.72 19.59-13.75 29.86-18.39 13.26-6 17.11-18.7 21.99-31.2m171.94 231.91c3.41 1.92 6.4 4.52 8.76 7.64 6.41 8.38 6.26 14.91 5.09 25-.44 3.76-1.2 7.32-2 11.01-.43 1.94-.84 3.86-1.32 5.78-.24.45-.49.96-.85 1.33-.13.13-.35.22-.54.15-2.35-.91-5.37-7.97-6.5-10.28-.28-.57-.54-1.15-.82-1.72-.27-.55-.55-1.1-.83-1.64.18-1.72.41-3.42.58-5.14 1.02-9.94 1.95-18.42-.6-28.32z"/><path fill="#687e8a" d="M883.043 220.9c-58.428 2.289-63.036 50.365-110.949 64.515-46.736 13.803-79.041-25.042-127.774 8.204-46.2 31.518-56.809 62.657-64.474 115.55-6.218 36.56-53.547 103.459-86.474 122.706a90.4 90.4 0 0 1-44.924 12.559c-63.063.78-82.997-57.126-138.201-71.245-25.016-6.925-50.655 3.124-68.978 20.476-15.064 14.268-29.265 33.279-53.157 25.925-9.217-2.838-19.134-10.348-23.031-19.516-20.115-47.232 34.205-72.269 66.622-88.475 54.777-27.383 101.936-18.724 145.485 22.453 28.127 26.596 57.625 44.038 97.392 34.333 58.015-14.158 74.78-71.886 96.062-120.396 15.266-29.396 34.396-60.107 62.78-78.38 12.701-8.177 23.369-12.322 37.816-14.405 38.355-5.529 67.888 24.109 105.941 11.279 27.787-9.369 30.634-36.84 57.121-48.074 18.925-8.027 36.034-6.929 55.026-.032-3.025 2.309-2.55 1.9-6.283 2.523m-69.709-65.604c18.658-1.488 32.093 4.971 46.926 15.527-68.179-19.874-69.055 28.442-118.78 36.894-40.647 6.909-62.021-21.034-114.972.139-44.461 16.286-72.989 61.401-119.674 71.872-75.716 16.984-124.576-70.531-197.832-47.802-37.584 11.661-60.134 29.297-88.473 54.872-13.623 10.453-28.992 10.435-43.085.359a40.23 40.23 0 0 1-16.353-26.531c-6.335-38.879 41.21-64.704 70.745-77.938a255 255 0 0 1 73.102-20.927c43.543-5.588 71.091.796 112.51 12.269 29.667 8.218 64.894 16.039 95.635 18.363 9.064.664 18.159.816 27.241.455 39.539-1.653 68.61-16.03 107.993-17.809 27.654-1.249 53.309 13.781 76.129 12.795 31.541-1.362 55.136-27.607 88.888-32.538m365.416 57.996c18.42-5.435 38.09-4.883 55.28 4.271 21.7 11.549 30.36 34.418 52.73 46.027 25.58 13.278 39.42 1.795 63.02-5.143a90.24 90.24 0 0 1 67.16 6.427c94.66 49.259 69.78 156.792 162.59 198.213 15.32 6.84 37.41 7.96 53.18 2.83 18.58-5.648 36.75-21.94 50.86-35.066 42.87-40.541 98.67-42.32 148.71-13.658 21.56 12.35 46.96 24.775 55.42 50.072 11.56 34.582-21.34 70.77-54.46 46.862-29.28-21.132-54.28-51.501-94.88-41.714-29.12 6.566-46.82 26.859-68.73 45.281-39.94 31.086-77.64 27.264-119.21 2.982-100.38-58.633-44.86-179.917-140.02-229.579-45.02-23.49-86.7 8.004-122.36-7.324-43.77-18.815-39.06-61.458-100.46-67.938-3.43.467-16.39 1.1-20.76 1.426 3.47-1.315 8.29-3.291 11.93-3.969"/><path fill="#859199" d="M1166.82 217.261c3.47-1.315 8.29-3.291 11.93-3.969 5.24 4.34 6.17.478 8.83 2.543-3.43.467-16.39 1.1-20.76 1.426"/><path fill="#687e8a" d="M1205.06 229.648c37 7.445 34.24 55.091 72.48 72.388 41.99 20.499 77.36-13.074 121.37 9.136 75.29 38 60.83 115.517 84.92 182.358 14.92 41.404 42.23 72.794 82.5 91.775 40.15 18.927 83.75 11.916 116.18-18.867 36.21-36.671 77.85-69.13 130.76-41.833 14.64 7.553 50.62 24.757 61.96 35.098a46.6 46.6 0 0 1 12.52 18.858c4.06 11.663 2.81 22.894-2.3 33.939-11.25 17.262-29.27 24.632-46.36 12.853-20.33-14.013-46.99-44.243-74.79-41.582-58.47 5.596-73.15 73.702-141.35 72.548-50.29-.851-79.77-22.527-115.86-55.665-35.72-33.85-66.66-79.548-71.64-129.577-3-30.193 3.14-56.879-6.74-86.634-10.63-31.991-42.72-58.59-75.9-62.783-31.57-3.988-59.86 3.801-88.51-15.242-33.06-19.989-33.82-52.786-59.24-76.77m-348.706 9.183 1.77.297c-.651 2.413-5.463 4.806-7.495 6.637-5.507 4.959-10.908 11.499-14.473 17.974-6.884 12.503-12.637 26.091-22.262 36.814-42.16 46.967-98.515-1.853-150.139 38.133-37.355 28.933-37.741 83.311-43.409 125.882-2.328 17.486-6.123 34.787-12.998 51.086-16.477 39.064-58.164 89.935-92.118 115.778-47.932 36.484-101.614 40.596-150.218 2.423-22.691-17.822-42.288-46.975-72.964-50.614-30.202-3.584-50.723 20.779-72.11 37.731-8.211 6.508-17.69 11.338-28.476 9.807-10.034-1.423-17.417-7.775-23.497-15.446-1.615-2.806-3.288-5.656-4.441-8.692-4.1-10.797-3.52-22.383 1.47-32.769a48.9 48.9 0 0 1 12.998-16.443c11.893-9.757 54.661-32.218 69.489-37.614 74.682-27.176 99.802 38.805 156.84 65.347 28.606 13.312 58.765 14.953 88.322 3.829 49.515-18.636 90.522-85.476 101.16-135.071 6.311-29.426 5.534-58.242 18.403-86.318 8.037-17.534 19.655-34.296 34.071-47.19 50.697-45.344 88.826 4.873 139.702-19.097 32.936-15.518 37.319-50.277 70.375-62.484"/><path fill="#687e8a" d="M830.507 180.19c20.004-1.465 39.003 3.66 54.379 16.813-26.955-9.077-50.622-5.204-71.532 15.184-9.005 8.78-15.15 17.526-25.1 25.741-36.747 30.339-65.113 8.034-103.69 3.748a109.23 109.23 0 0 0-55.007 8.275c-69.528 30.013-60.493 96.718-116.674 140.54-15.36 11.981-29.114 18.443-48.214 21.302-62.326 9.329-91.89-56.033-144.573-63.453-35.821-5.045-73.003 29.907-99.539 51.504-38.028 33.414-79.939-25.484-52.954-54.731 26.828-29.078 92.346-58.186 129.874-67.049 73.651-17.393 90.888 51.811 162.989 54.981 83.446 3.669 101.273-74.397 167.06-104.602 52.123-24.895 77.369-1.271 127.703-8.067 25.355-3.6 45.696-34.786 75.278-40.186m193.663 643.566c7.38 21.508 14.39 49.962 20.4 72.333 1.8 4.075 19.51 19.714 24.14 24.901 9.27 10.362 15.69 19.204 23.36 30.987 19.96 30.688 33.36 62.173 43.24 97.563 14.95 53.14 24.57 110.6 14.63 165.52-3.41 15.97-10.81 32.25-24.8 41.48-28.56 18.81-60.79-9.68-52.95-40.93 4.55-18.13 18.9-23.02 36.07-18.56 13.85 3.6 17.32 16.85 13.2 29.42-3.63 10.59-10.07 15.47-18.98 21.58 11.49-2.93 20.34-7.68 26-19.06 20.45-41.11 9.85-112.37-2.47-155.48-12.36-43.26-32.13-77.534-61.75-109.767 3.23 13.432 5.51 24.022 4.96 37.897-4.83-6.475-10.02-12.351-14.63-18.525 2.28 11.72 3.25 13.443-6.07 21.945-3.52 17.52-4.31 49.38-5.27 68-2.06 35.1-3.9 70.22-5.52 105.34-2.14 44.6-5.45 89.48-7.96 133.95-.57 10.03 3.8 86.06 6.24 90.38-6.27.33-15.68.5-21.86.12 1.86-5.43 1.34-25.7 2.09-33.12 3.91-38.69 1.58-76.31-.38-115.03l-7.13-132.2-3.05-66.06c-.65-14.23-1.24-29.03-3.09-43.16-.64-4.87-5.488-12.02-8.213-16.499l.013-12.772c-4.857 5.738-9.269 11.157-14.715 16.361.086-13.141 1.136-21.892 3.736-34.781-6.206 8.264-14.782 16.84-20.955 25.189-17.204 23.262-31.668 53.712-39.662 82.002-11.984 42.42-22.5 115.24-2.286 155.68 5.532 11.06 12.849 15.59 23.828 18.59-7.019-5.76-12.505-10.07-16.347-18.81-9.301-21.16 16.209-39.58 35.245-30.49 13.187 5.68 18.724 26.69 13.237 39.17-20.774 47.26-66.936 23.49-75.882-17.19-5.503-25.01-7.01-41.42-5.767-66.01 1.303-31.07 6.676-62.27 14.042-92.32 13.402-54.69 37.028-105.193 75.834-146.523 3.606-3.841 17.312-14.979 18.582-18.636 6.85-23.796 13.61-48.963 20.89-72.485"/><path fill="#ae5d0e" d="M1024.17 823.756c7.38 21.508 14.39 49.962 20.4 72.333-3.9-2.512-6-4.136-10.48-5.631l-1 1.258c.91 9.972 12.57 52.219 15.45 62.886-9.57 11.265-10.69 17.957-13.05 32.377-2.65 16.231-6.72 30.981-12.07 46.491-6.92-23.48-9.41-48.979-17.29-71.874-.71-2.078-4.5-6.475-6.09-8.322 5.64-19.469 12.28-45.862 16.59-65.61-4.02 3.19-8.54 7.513-13.35 8.577 6.85-23.796 13.61-48.963 20.89-72.485"/><path fill="#687e8a" d="M1190.91 188.997c17.84-9.947 40.62-13.164 60.48-8.119 26.33 6.691 30.36 30.628 60.63 36.873 22.22 4.583 33.75.818 56-1.482 22.5-2.326 40.25 1.139 60.95 9.188 65.21 25.359 94.71 103.875 171.49 100.638a110 110 0 0 0 50.62-14.334c11.82-6.637 22.69-15.386 34.24-22.476 24.1-14.792 53.85-16.295 80.62-9.043 27.46 7.439 50.95 21.448 74.94 36.096 10.23 5.865 20.83 9.872 30.42 16.918 10.75 7.91 15.8 17.835 17.51 30.833 2.17 16.519-5 33.381-20.82 40.868a32.8 32.8 0 0 1-25.46 1.095c-9.44-3.452-23.43-16.31-30.41-22.329-54.5-47.003-97.04-48.092-149.01 1.157-19.37 18.356-59.69 32.543-85.22 20.391-80.56-33.815-67.45-119.186-143.99-157.162-58.15-28.858-91.34 13.568-134.38-.487-44.96-14.682-38.12-61.09-101.08-57.366z"/><path fill="#70838f" d="M1241.92 154.408c20.85-1.574 32.03 6.787 48.14 15.996 35.03 20.036 58.74 14.94 95.15 3.517 8.41-2.636 23.29-2.009 32.8-1.482 39.04 2.164 72.13 29.872 110.98 30.6 55.65-1.203 110.35-35.563 164.47-42.608 63.78-7.79 124.62 13.414 175.1 51.588 33.47 25.31 28.48 79.51-16.03 82.43-21.25-1.362-38.97-26.804-59.44-39.232-58.43-35.48-87.13-36.47-147.38-4.479-14.61 7.755-35.69 19.787-51.85 22.606-32.09 5.598-65.57-6.53-91.78-24.616-11.92-8.227-22.67-17.571-34.76-25.047a163.8 163.8 0 0 0-40.28-18.036 151.2 151.2 0 0 0-45.64-6.283c-24.02.439-56.54 8.811-78.92-.719-10.1-4.3-19.97-18.757-30.35-24.922-23.58-13.999-47.75-10.636-72.66-4.894 15.07-9.696 24.73-12.797 42.45-14.419"/><path fill="#687e8a" d="m696.06 342.859 1.056.22c.014 1.235-9.494 8.704-11.231 10.55-12.006 12.763-20.062 29.724-24.572 46.529-6.003 22.363-6.939 45.728-4.444 68.662 2.341 21.511 8.927 45.803 3.381 67.13-5.468 21.024-19.336 40.955-32.086 58.273-30.707 41.705-71.291 74.56-113.726 103.614-14.436 9.884-29.694 18.711-43.721 29.18-24.65 18.396-46.843 49.086-79.403 53.389-40.623 5.37-62.124-36.192-89.352-57.463-10.361-8.094-22.44-14.333-35.636-15.908-35.063-4.183-41.097 25.347-67.532 28.07-9.983 1.028-18.004-3.146-25.586-9.197-3.817-3.768-6.977-8.04-9.173-12.955-4.455-9.967-4.348-21.083-.373-31.197 6.812-17.332 22.808-27.059 38.978-34.375 65.546-29.657 86.06-11.801 135.108 32.277 13.652 12.267 28.323 23.518 45.7 29.925 23.85 8.794 47.087 5.088 69.735-5.398 17.583-8.141 33.728-19.389 49.385-30.724 57.169-41.388 116.713-100.488 132.716-171.412 7.94-35.189 2.701-72.362 15.421-106.333 8.41-22.463 23.069-42.808 45.355-52.857m670.12-2.597c63.51 29.237 45.71 78.862 49.63 134.154 6.38 90 76.54 176.663 157.54 212.662 55.75 26.689 102.28 33.98 147.5-14.641 20.37-21.902 61.46-48.381 92.75-38.609 23.42 7.316 66.88 23.749 74.56 49.976 12.17 41.533-31.76 70.28-62.1 35.119-10.61-12.174-32.19-14.453-46.23-10.86-49.9 9.772-59.58 69.35-114.58 66.404-46.54-2.493-62.97-33.929-96.21-58.695-23.33-17.375-56.6-26.868-78.14-48.533-16.18-12.239-23.92-35.408-36.3-49.414-9.2-10.42-22.1-29.642-30.98-38.42-34.8-34.409-34.88-51.868-28.13-100.067 6.85-48.876 14.61-102.692-31.39-136.319zm-89.97 610.521c3.04 12.196 21.22 72.387 20.33 79.387.8 2.83 12.73 14.31 15.55 17.51 5.88 6.66 11.4 13.62 16.55 20.86 38.67 54.14 58.59 118.43 54.94 185.13-1.02 18.59-6.46 45.39-21.22 57.68-28.67 23.9-56.7-27.68-31.1-47.37 5-3.85 11.35-5.51 17.6-4.6 10.25 1.53 18.26 10.02 15.48 20.6-1.2 4.57-4.56 8.34-7.54 11.85-3.28-5.63-6.08-12.3-12.93-14.04-7.38-1.88-11.66 3.44-12.57 10.01-2.29 16.55 20.16 20.27 29.2 10.53 13.16-14.17 14-39.16 14.24-57.31-.66-40.11-10.24-86.45-31.3-120.92-7.82-12.8-20.9-27.6-31-38.71 2 10.98 3.06 20.81 4.29 31.89-4.37-5.44-9.92-12.79-14.82-17.44.21 4.69 1.05 9.36-1.15 13.22-2.85 2.26-4.17 2.58-7.5 3.88-4.41 21.8-3.16 71.75-4.05 96.74-1.28 35.62-2.68 75.65-3.25 110.85-.12 7.59 5.52 77.04 7.02 81.94-5.9.6-14.97.68-20.9.37 1.45-7.02 1.01-19.04 1.81-26.67 3.6-34.62.42-67.4-1.99-102.05l-4.99-81.9-2.75-46.7c-.55-9.36-.84-21.58-2.65-30.59l-10.14-6.01c-.65-3.73-1.14-7.81-1.67-11.59-4.38 4.48-9.08 10.35-13.19 15.21.52-12.14 2.07-19.03 4.36-30.87-7.01 6.3-12.39 11.87-18.46 19.33-35.26 43.4-48.61 109.26-43.82 163.83 1.52 12.61 4.94 26.86 15.45 34.98 8.87 6.57 19.35 7.24 25.97-2.76 4.23-6.38 3.63-15.1-4.09-18.49-6.87-3.02-14.99 6.77-20.58 9.42-1.99.95-2.45.38-4.29-.35-3.64-5.4-3.5-15.16.03-20.91 5.83-9.51 21.05-10.65 29.11-3.72 26.46 22.71-.96 72.91-33.46 46.37-15.06-12.77-18.79-46.24-18.74-65.62.14-61.95 18.73-127.26 55.31-177.71 7.4-10.14 21.09-24.34 29.9-33.51l-.58-1.32c2.14-10.95 6.97-24.32 10.17-35.149 4.45-15.079 8.78-30.265 13.42-45.278"/><path fill="#ae5d0e" d="M1276.21 950.783c3.04 12.196 21.22 72.387 20.33 79.387-4.13-3.32-8.11-6.65-12.5-9.62l9.28 52.82c-8.74 19.58-11.34 30.46-14.55 52.03-.82 5.52-1.46 17.39-3.03 21.27-1.76-1-1.99-1.15-2.25-3.53-2.6-24.15-.65-44.18-11.4-66.86 3.09-21.03 4.59-34.04 5.1-55.38-3.22 2.39-11.51 8.8-14.57 10.31 2.14-10.95 6.97-24.32 10.17-35.149 4.45-15.079 8.78-30.265 13.42-45.278"/><path fill="#687e8a" d="M771.47 950.918c2.906 10.275 20.773 72.142 19.387 77.462l-2.46.21c.221 2.53 21.233 21.95 24.478 25.88 40.324 48.77 63.062 113.22 66.351 176.15 1.171 22.4.077 56.78-14.579 75.51-15.361 18.27-43.14 11.01-47.039-12.7-1.313-7.98.966-23.02 6.867-27.97 20.249-16.99 46.787.63 29.198 24.53l-1.795.64c-5.517-3.32-6.705-15.08-15.114-14.15-3.083.34-9.293 4.77-10.146 7.8-4.066 14.43 8.176 23.36 21.454 18.53 12.938-4.7 17.686-18.66 19.657-31.02 5.174-42.83-.894-87.34-17.245-127.18-10.42-25.39-25.554-43.54-44.144-62.86 1.904 11.73 2.471 18.18 3.475 29.95-4.283-5.02-9.291-11.24-14.097-15.58.332 4.57 1.315 9.05-.748 12.84-3.047 2.6-3.692 2.72-7.465 4.31-2.589 15.27-3.282 31.59-4.301 47.11l-4.063 65.64-3.348 61.18c-1.12 17.32-3.157 39.56-2.861 56.54.133 7.57 2.504 55.45 4.478 58.75-5.278 1.04-17.144 1.17-22.573.95 2.612-3.56 2.377-9.38 2.877-13.89 7.082-63.86 4.541-127.04 1.987-191.08-1.049-26.29-.978-52.36-2.94-78.8-4.197-5.15-6.452-7.92-12.209-11.24l.012-13.08c-3.818 5.8-10.003 13.34-14.37 18.99.514-9.6 2-23.82 4.232-33.02-5.237 5.14-14.113 14.93-18.66 20.8-33.361 44.02-47.038 103.98-42.164 158.56 1.373 15.37 9.365 45.88 30.328 43.9 8.095-.77 15.08-11.51 12.45-19.77a9.43 9.43 0 0 0-4.905-5.71c-9.945-4.68-15.817 2.61-18.86 11.11l-.47 1.34c-28.885-31.28 24.839-49.24 33.503-12.06a32.53 32.53 0 0 1-4.327 24.93c-3.691 5.68-9.915 10.81-16.669 11.92-23.255 3.83-34.829-24.2-37.961-42.21-12.07-69.1 8.069-140.86 45.428-199.24 5.329-8.33 12.116-15.7 18.321-23.34 4.568-5.62 10.854-11.83 14.721-17.73l1.102-1.71c1.123-4.59 2.703-9.02 4.193-13.49 7.462-22.425 14.173-45.086 21.014-67.702"/><path fill="#ae5d0e" d="M771.47 950.918c2.906 10.275 20.773 72.142 19.387 77.462l-2.46.21c-2.763-2.39-3.546-3.74-6.801-4.58-1.983 3.56 3.147 48.22 3.587 56.16-12.903 22.31-9.302 44.94-14.503 69.98-6.099-26.32-6.058-53.16-16.326-78.05 3.542-18.77 6.419-33.27 7.722-52.35-4.215 3.48-11.398 9.74-15.813 12.36 1.123-4.59 2.703-9.02 4.193-13.49 7.462-22.425 14.173-45.086 21.014-67.702"/><path fill="#687e8a" d="M436.206 1374.64c24.357-41.18 30.744-19.49 36.706-75.24 2.413 14.16 5.249 46.67-3.098 58.71-7.357 10.62-20.362 9.29-29.13 21.72-10.147 14.37-3.049 30.22-16.018 41.49-6.884 5.98-23.498 7.64-26.651 17.3-4.503 13.79 2.511 29.61-8.819 43.61-24.339 30.08-62.664 1.2-53.379 63.52.652 4.38 1.591 10.31 2.707 15.11 9.16-21.34 15.525-39.99 37.348-51.83 27.62-15 30.004-32.4 30.484-61.18 9.825-7.21 21.964-10.72 30.312-19.54 10.218-10.78 6.694-27.18 13.376-39.45 11.425-17.63 28.327-5.37 32.977-35.39.773-4.99 2.677-14.63 3.112-20.42-.254-4.96-.592-19 .396-23.53 1.857 1.31 1.552 3.93 1.449 5.93 4.512 20.01 5.837 44.45-4.69 63.27-5.699 10.18-16.313 12.67-22.674 23.52-5.024 8.57-4.576 30.71-10.676 35.96-7.579 6.52-35.381 8.14-37.472 22.31l.939 3.06c1.72.57 1.109.65 2.822-.06 8.1-3.37 15.983-1.63 24.803-1.61 26.366-18.33 11.248-42.57 38.866-58.67l1.599-.95c-4.355 19.61-6.167 54.22-24.725 65.03-19.107 11.13-40.41-2.88-48.877 29.98a311 311 0 0 0-3.338 14.83c16.615-13.3 22.716-17.34 44.091-21.32 18.32-3.41 30.134-21.01 35.567-38.02l1.241 1.8-.42 1.15c-8.242 23.04-9.419 43.76-36.724 58.34-20.301 10.83-46.07-8.47-57.096 20.36-3.86 10.09-4.597 20.59-5.824 31.01 22.677-36.93 30.292-25.11 64.141-41.89-9.876 10.75-19.961 20.49-32.77 27.7-38.782 21.83-62.142 57.22-59.962 102.85.5 9.63 2.073 19.17 4.691 28.44l-1.708.64c-2.42-6.76-9.427-17.84-11.751-25.4-6.037-16.52-11.097-61.15 4.46-73.88 20.401-16.7 20.116-16.6 28.586-43-14.785 14.58-28.922 9.1-39.372 27.82-14.023 25.12-8.285 65.67-1.529 91.81-33.07-50.93-8.207-71.84-22.789-122.55-13.123 19.16-21.232 32.53-22.091 55.75-.41 1.78-.805 3.57-1.185 5.36-7.383-23.99-8.731-35.4 3.221-58.13 10.571-20.1 2.41-39.89 8.291-60.61 4.738-16.69 21.362-22.18 35.336-29.52 6.578-13.67 9.412-32.48 18.551-45.28 18.451-25.84 37.988-18.43 57.02-46.95l2.799 1.27c-4.2 15.96-1.837 24.02-16.271 36.36-5.093 1.16-11.124 1.32-16.043 2.3-33.326 6.67-4.933 46.86-17.263 64.81-6.244 7.16-19.047 5.06-27.756 6.2-31.546 4.16-33.432 39.53-29.284 64.24 6.403-11.56 8.106-19.51 16.585-30.87 11.838-15.87 36.85-15.22 44.802-26.45 11.337-16.02 12.881-38.23 24.196-58.43l.65-1.14c12.413-7.51 17.405-5.84 25.963-20.15.861-11.34-1.305-22.82-.393-33.37 1.512-17.49 19.305-25.28 30.192-36.25 2.053-2.07 5.032-7.42 6.613-10.21.472-.94 1.934-4.59 2.836-5.07l.178.01c.336.51-.289 4.73-.351 5.8-2.607 14.18-6.156 18.97-18.094 27.23-11.954 8.26-10.627 16.8-9.683 29.76"/><path fill="#aaaeb5" d="M486.133 1333.05c-.254-4.96-.592-19 .396-23.53 1.857 1.31 1.552 3.93 1.449 5.93-1.8 7.74-.513 10.4-1.845 17.6"/><path fill="#687e8a" d="M461.32 1316.91c.472-.94 1.934-4.59 2.836-5.07l.178.01c.336.51-.289 4.73-.351 5.8zm73.259-587.549-.017.675c-4.429 7.474-14.9 14.946-21.623 20.673-13.585 11.571-28.788 21.6-41.011 34.65-24.04 25.665-38.83 59.679-70.971 77.262-10.001 5.471-21.262 8.73-32.704 8.681-44.767-.19-63.423-49.858-103.888-61.016-24.022-6.623-34.997 11.397-53.23 21.352-7.915 4.322-17.981 5.932-26.663 3.046-10.034-3.335-16.59-12.276-21.134-21.33l-.121-.407c-3.572-12.713-3.197-24.376 3.555-36.046 11.041-19.082 38.48-29.096 58.751-34.019 65.095-15.811 72.46 45.971 115.76 71.818 11.53 6.883 25.719 10.051 39.09 9.07 48.26-3.539 70.583-46.697 105.927-72.717 14.805-10.9 30.585-17.138 48.279-21.692m981.851.449c60.69 3.819 82.31 77.53 139.62 91.19 69.92 16.662 77.03-45.726 120.91-72.382 15.54-9.446 31.31-9.95 48.51-5.682 20.88 5.182 46.7 13.109 57.99 33.004 6.93 12.208 7.46 24.521 3.93 37.791-2.14 4.473-4.53 8.489-7.87 12.186-30.04 33.255-55.99-24.384-88.34-18.295-42.68 8.033-61.58 61.131-107.16 62.649-53.18 1.771-77.4-57.794-107.69-88.619-18.38-18.704-40.85-33.55-59.9-51.842"/><path fill="#ae5d0e" d="M966.539 247.438c.05-4.381-.17-6.382.857-10.607l.087.797c.838 8.208.439 6.221 3.325 13.555-3.977 3.13-7.321 5.661-10.254 8.934-8.124 9.064-8.414 22.659 2.935 29.081l.521.505c-22.041 9.154-20.383 4.043-31.177 25.312l-.008 1.518c-.002 5.883 2.15 14.494 1.797 16.781-18.835 10.325-32.101 20.856-20.472 44.207-6.502 7.695-24.145-.03-25.541 31.796.042 1.678.815 9.065-.221 9.655-6.543 3.728-17.892 4.027-20.596 13.754-2.666 12.087-2.916 10.044-1.712 21.257-.684.792-2.702 1.237-3.569 1.218-9.564-.212-14.808 9.194-19.74 11.917-5.007 10.282-5.879 17.898-2.937 29.163.355 1.358 1.737 4.712 1.661 5.939-.268 4.304-26.895 4.214-21.234 41.324-19.308 1.523-35.659 1.794-49.575 18.419-9.84 11.756-11.283 24.456-10.583 39.066-33.564 9.238-46.284 24.32-47.656 59.481-.272 6.955-36.228 6.283-43.395 25.528-5.452 14.641-14.151 26.191-1.472 41.452l-.339.983c-10.196.998-11.862 1.099-21.028 5.771-19.219 9.797-37.265 33.314-21.078 53.959-23.605 4.099-38.588 17.584-33.055 43.219a84 84 0 0 0 1.824 6.884c-28.182 10.506-44.025 32.292-31.735 62.439-14.037 10.005-28.001 19.036-31.361 37.781-1.819 10.149 1.876 16.464 7.068 24.617.559.879-1.163 2.29-2.439 3.138-12.153 8.083-24.625 15.718-26.67 31.895-1.267 10.034.657 17.024 5.206 25.924-7.926 5.18-11.575 7.31-17.203 15.25-3.757 2.93-2.152 1.94-6.33.94l-.603.98c-1.495-2.59-1.551-2.52-3.797-4.57-3.05-40.001 6.042-33.9 22.27-61.951l.692-1.212c.615-10.871-2.454-23.277.324-32.775 4.286-14.652 15.594-22.99 23.001-37.285 6.945-13.403 6.771-34.592 12.012-45.376 8.68-17.858 25.016-36.072 35.45-54.331 9.765-17.087 11.061-31.962 19.857-47.713 5.782-10.353 21.666-22.029 28.897-33.414 8.307-13.077 10.394-29.655 19.496-40.957 11.85-14.715 31.48-20.257 44.603-34.019 11.169-11.713 14.841-37.758 25.543-47.4 7.244-6.527 21.18-8.889 30.028-20.561 8.078-10.658 7.514-25.862 16.129-36.312 5.468-6.632 12.607-10.219 20.143-14.403 10.244-5.686 18.036-12.789 25.162-22.025 8.136-10.546 8.032-24.603 15.182-35.056 7.66-11.198 22.843-18.42 28.312-31.544 4.753-11.619 1.913-23.494 7.373-34.496 5.611-11.307 18.402-14.139 27.206-22.545 12-11.456 6.671-30.048 12.346-43.328 6.021-14.092 20.665-23.173 30.51-36.67l1.036-1.434c10.898-21.581 3.675-27.116 24.35-45.634 2.533-5.406 3.004-6.141 4.406-12.37l.794-.599c6.064-5.015 4.202-3.343 5.377 4.148"/><path fill="#687e8a" d="M843.819 460.026c4.138 3.463-1.793 1.864-1.048 7.092-5.007 10.282-5.879 17.898-2.937 29.163.355 1.358 1.737 4.712 1.661 5.939-.268 4.304-26.895 4.214-21.234 41.324-19.308 1.523-35.659 1.794-49.575 18.419-9.84 11.756-11.283 24.456-10.583 39.066-33.564 9.238-46.284 24.32-47.656 59.481-.272 6.955-36.228 6.283-43.395 25.528-5.452 14.641-14.151 26.191-1.472 41.452l-.339.983c-10.196.998-11.862 1.099-21.028 5.771-19.219 9.797-37.265 33.314-21.078 53.959-23.605 4.099-38.588 17.584-33.055 43.219a84 84 0 0 0 1.824 6.884c-28.182 10.506-44.025 32.292-31.735 62.439-14.037 10.005-28.001 19.036-31.361 37.781-1.819 10.149 1.876 16.464 7.068 24.617.559.879-1.163 2.29-2.439 3.138-12.153 8.083-24.625 15.718-26.67 31.895-1.267 10.034.657 17.024 5.206 25.924-7.926 5.18-11.575 7.31-17.203 15.25-3.757 2.93-2.152 1.94-6.33.94 1.654-6.63 9.811-16.69 13.952-23.07l-.072-1.05c-1.616-25.393 2.6-37.155 19.223-56.176-1.427-29.64 4.608-43.923 28.976-61.695-1.775-38.654 3.074-42.79 29.549-69.049q.38-4.012.928-8.004c2.969-20.792 14.08-31.039 29.733-42.709-.508-34.793 18.17-39.679 39.58-58.553l.762-.684c5.524-39.426 12.873-43.732 45.869-61.967 7.551-15.147 16.25-46.143 32.034-53.794 29.449-14.276 21.204-26.176 38.77-48.52 5.27-7.106 27.543-13.743 31.488-20.09 11.629-18.707 13.14-25.273 30.449-40.465.477-13.852.681-24.485 12.138-34.438m87.731-152.258 1.203.399c.266-.561.393-.669.754-.971.281 3.161-1.248 2.116-.674 7.819l-.008 1.518c-.002 5.883 2.15 14.494 1.797 16.781-18.835 10.325-32.101 20.856-20.472 44.207-6.502 7.695-24.145-.03-25.541 31.796-1.492 5.244-.465 3.966-5.28 5.268-.864-20.227 4.601-28.724 20.203-41.35 1.668-22.629 4.887-31.215 24.353-43.763.091-7.95-.214-14.59 3.665-21.704"/><path fill="url(#a)" d="M966.539 247.438c.05-4.381-.17-6.382.857-10.607l.087.797c.838 8.208.439 6.221 3.325 13.555-3.977 3.13-7.321 5.661-10.254 8.934-8.124 9.064-8.414 22.659 2.935 29.081l.521.505c-22.041 9.154-20.383 4.043-31.177 25.312-.574-5.703.955-4.658.674-7.819-.361.302-.488.41-.754.971l-1.203-.399c.777-1.794 1.383-3.152 2.267-4.895 8.471-11.393 7.039-7.851 17.093-16.696.79-17.11-1.482-13.996 7.933-27.107l-2.881-2.811c2.533-5.406 3.004-6.141 4.406-12.37l.794-.599c6.064-5.015 4.202-3.343 5.377 4.148"/><path fill="#bd6c16" d="m960.368 243.889.794-.599c6.064-5.015 4.202-3.343 5.377 4.148-.268 3.401-5.515 8.925-7.696 11.632l-2.881-2.811c2.533-5.406 3.004-6.141 4.406-12.37"/><path fill="#70838f" d="M864.422 429.488c2.82-.005 2.42.576 3.37 3.238-2.666 12.087-2.916 10.044-1.712 21.257-.684.792-2.702 1.237-3.569 1.218-9.564-.212-14.808 9.194-19.74 11.917-.745-5.228 5.186-3.629 1.048-7.092 1.521-2.082 11.626-9.021 14.433-11.036q.282-1.263.547-2.531c1.467-7.055 2.282-10.635 5.623-16.971"/><path fill="#70838f" d="M883.329 414.585c4.815-1.302 3.788-.024 5.28-5.268.042 1.678.815 9.065-.221 9.655-6.543 3.728-17.892 4.027-20.596 13.754-.95-2.662-.55-3.243-3.37-3.238 6.524-8.21 9.639-10.233 18.907-14.903"/><path fill="#687e8a" d="m489.032 809 .693 1.062c-13.52 20.277-26.391 41.279-41.826 60.181-18.074 22.135-39.653 39.972-60.136 59.698-10.247 9.868-19.386 21.061-30.588 29.888-6.855 5.4-14.244 10.155-22.6 12.834-19.448 6.238-41.13 2.262-58.701 14.012-25.899 17.315-39.932 57.385-75.116 60.125-10.688.83-20.311-3.3-28.237-10.23a54 54 0 0 1-2.431-2.85c-6.348-8.03-9.657-18.57-8.102-28.77a45.58 45.58 0 0 1 15.958-28.167c14.241-11.772 34.073-12.676 49.938-21.815 23.21-13.369 36.779-38.444 63.933-46.054 33.605-9.419 55.386 9.852 92.338-10.533 26.912-14.846 49.686-37.016 71.277-58.608 10.763-10.763 21.116-21.956 33.6-30.773m1069.438-.361c13.07 4.585 43.51 39.423 55.75 50.613 15.8 14.442 33.32 29.637 52.18 39.804 37.89 20.425 57.53.632 91.51 9.526 25.86 6.768 39.97 30.532 61.96 43.723 15.01 9.006 33.18 11.427 47.6 20.88 9.98 6.539 18.64 17.785 20.71 29.715 2 11.48-2.09 22-8.44 31.34-2.06 2.28-4.15 4.41-6.63 6.25-7.87 5.84-17.32 8.4-27.02 6.6-35.51-6.59-47.14-47.308-74.27-62.559-12.66-7.12-26.91-6.338-40.79-8.496-34.73-5.401-49.4-28.166-72.76-51.122-16.11-15.824-33.65-29.627-48.69-46.607-19.04-21.477-34.15-46.559-51.11-69.667m32.11 100.382c22.52 11.014 43.7 28.49 58.9 48.385 13.67 17.88 24.74 38.536 44.53 50.604 27.86 16.99 49.75 4.63 75.55 13.46 20.78 7.11 35.72 30.05 54.8 41.21 15.25 8.91 35.18 9.91 48.7 21.08 8.99 7.43 14.2 18.28 15.14 29.83.89 10.9-2.6 20.19-9.44 28.52-.81.77-1.6 1.49-2.48 2.18-7.87 6.16-18.16 9.83-28.19 8.39-29.82-4.29-37.75-38.55-58.19-55.57-18.84-15.68-47.09-13.71-68.37-27.62-10.7-6.99-19.27-16.29-28.23-25.28-11.54-11.56-23.67-22.9-33.68-35.85-16.52-21.37-29.15-45.722-44.33-68.065-7.43-10.929-16.78-20.666-24.71-31.274m-1133.291.848c.463.087.788.52 1.154.816-12.083 14.278-23.737 28.754-33.757 44.592-8.8 13.911-16.286 28.737-25.547 42.341-13.92 20.452-60.886 72.002-83.45 79.712-17.912 6.13-35.844 6.07-51.683 17.88-21.732 16.22-31.855 52.93-60.923 57.78-11.014 1.83-19.631-2.44-28.267-8.67-3.504-3.56-6.637-7.37-8.906-11.86-5.056-10-4.952-20.2-1.346-30.66 2.739-7.95 7.614-14.9 14.445-19.85 13.726-9.94 32.644-10.19 47.541-18.87 19.898-11.59 34.962-32.24 56.812-40.37 25.889-9.63 49.352 2.06 75.915-16.43 12.625-8.785 21.63-21.327 30.433-33.7 19.248-27.054 37.409-47.431 67.579-62.711M310.73 1580.81c2.236 3.11.427 16.28.393 20.62-.081 10.17 1.375 20.58 3.833 30.44 6.645 26.68 24.338 33.85 32.359 54.89 7.909 20.75 2.795 47.19-7.533 66.27-5.922 10.93-13.45 20.83-18.655 32.19-6.292 13.73-9.417 28.65-15.658 42.34-3.634 7.97-8.557 15.99-14.844 22.13-10.319 10.06-23.76 14.85-34.944 23.5-15.851 12.25-24.968 32.51-44.769 39.38-11.246 3.89-21.975 2.26-32.437-3.03-9.507-6.83-16.079-15.31-18.416-27.02-3.167-15.87 3.536-32.5 16.01-42.59 11.369-9.19 28.039-10.68 41.169-16.82 16.971-7.93 32.222-20 47.635-30.54 11.732-8.02 24.457-15.69 35.288-24.88 6.292-5.34 12.338-11.42 16.748-18.44 12.22-19.45 16.969-54.49 7.774-75.74-7.234-16.72-18.804-29.72-22.997-48.11-3.879-17 .082-30.16 9.044-44.59m1322.86-532.1c7.58.37 17.04 4.5 24.01 7.57 23.08 10.18 39.96 25.68 55.52 45.19 8.23 10.33 15.98 21.16 27.53 28.06 19.35 11.57 28.44 1.54 46.37 4.06 17.44 2.46 23.88 23.05 37.57 32.14 14.24 9.45 32.64 8.41 46.8 17.48 9.99 6.39 15.87 17.96 18.23 29.34 2.48 11.99-1.35 21.42-7.88 31.21-2.11 2.26-4.27 4.34-6.76 6.19-6.67 4.97-14.4 7.48-22.72 6.17-26.57-4.18-34.44-29.49-52.34-44.94-18.07-15.6-44.24-19.78-63.76-35.16-20.05-15.79-32.75-44.39-47.93-65.04a414 414 0 0 0-30.47-36.21c-8.09-8.52-17.06-16.69-24.17-26.06m-1219.711.29.772.59c-1.062 6.08-26.687 29.65-32.266 35.92a299 299 0 0 0-27.65 36.41c-11.827 18.23-22.54 40.22-39.159 54.54-18.161 15.66-43.834 16.55-62.046 32.53-9.24 8.1-15.512 18.96-23.044 28.54-7.666 9.74-17.846 17.35-30.54 18.56-11.361 1.07-20.326-3.56-28.783-10.57-1.872-2.12-3.63-4.29-5.174-6.67-5.883-9.03-6.335-19.93-3.882-30.22 8.577-35.98 42.188-28.1 65.329-43.68 10.773-7.26 16.887-19.07 27.977-25.84 13.704-.73 28.597 4.68 41.845 1.55 23.847-5.64 38.695-42.1 56.784-58.18 17.581-15.63 38.229-24.91 59.837-33.48m1244.481 91.63c41.63 8.79 49.36 57.81 75.59 76.89 12.87 9.36 29.49 11.66 43.67 18.55 19.03 9.25 35 24.02 53.54 34.15 12.73 6.95 27.77 8.83 39.97 16.82 10.21 6.68 16.01 16.67 18.14 28.56 2.38 13.19-1.17 23.73-8.71 34.39-6.62 5.87-14.35 10.31-23.49 9.99-31.19-1.11-40.4-45.14-62.17-61.23-18.18-13.44-43.19-18.06-57.58-36.41-11.49-14.65-19.05-33.57-27.88-49.96-14.37-26.71-30.92-49.17-51.08-71.75m-1269.462.59.519.32c-8.829 14.14-22.377 26.02-31.676 40.52-14.176 22.11-24.13 46.66-37.496 69.26-3.51 5.93-7.352 12.16-12.119 17.18-14.521 15.3-35.415 18.17-51.44 30.63-15.878 12.34-24.197 32.23-37.077 47.22-6.608 7.69-14.798 13.27-25.178 13.85-9.16.52-16.295-3.34-23.074-9.1-3.294-3.59-6.098-7.81-7.959-12.32-4.369-10.59-3.654-23.29.845-33.73 3.224-7.49 8.508-13.41 15.173-18.01 13.89-9.61 32.332-13.18 47.496-20.62 12.775-6.26 24.209-15.4 37.496-20.65 14.905-5.89 30.743-6.79 43.434-17.73 33.959-29.26 34.417-67.26 81.056-86.82m-48.069 119.7.771.95c-9.29 36.9-28.768 47.58-47.413 76.2-8.082 12.4-11.466 27.13-19.098 39.75-9.798 16.2-24.844 27.43-36.081 42.4-7.293 9.71-11.257 21.7-18.715 31.25-6.358 8.14-15.33 14.62-25.86 15.63-9.288.89-16.003-2.4-22.962-8.22-6.053-7.74-10.817-15.46-11.696-25.56-1.186-13.62 4.531-27.94 14.35-37.35 15.781-15.12 39.617-16.5 57.692-28.3 14.398-9.39 24.093-24.76 36.329-36.66 25.407-24.71 49.457-41.8 72.683-70.09m1367.531-.37c8.1 5.89 22.2 24.25 31.02 32.52 15.74 14.76 34.13 27.28 48.99 42.87 9.75 10.22 17.3 22.79 28.91 31.13 15.37 11.05 34.16 12.39 50.03 21.66a47.33 47.33 0 0 1 21.9 29.53c3.46 14.09-.18 26.56-7.53 38.6-3.96 3.86-8.35 7.04-13.67 8.76a30.52 30.52 0 0 1-24.69-2.67c-17.69-10.19-22.32-32.02-34.37-47.18-9.95-12.51-22.82-22.04-31.45-35.8-8.71-13.88-13.01-29.91-22.4-43.44-10.68-15.38-24.29-27.93-33.87-44.27-5.97-10.17-10.02-20.28-12.87-31.71M243.528 843.259q4.276-.399 8.569-.508c28.98-.525 53.116 16.942 73.116 36.218-41.433-1.388-66.642 21.991-95.697 47.824-7.092 6.002-14.271 11.153-23.478 13.398a37.1 37.1 0 0 1-27.892-4.235c-8.32-5.097-13.87-13.466-15.744-23.002-2.206-11.23.766-22.987 7.265-32.312 12.98-18.624 52.007-33.495 73.861-37.383m1549.692-.897c14.06-1.729 27.73 2.66 40.4 8.313 20.19 9.013 45.83 18.492 53.89 41.024a38.87 38.87 0 0 1-1.93 30.956c-4.33 8.407-11.69 14.872-20.83 17.47-10.59 3.007-20.47.614-29.85-4.516-10.83-7.246-19.9-16.679-29.35-25.562-21.96-20.635-46.21-33.162-76.09-37.593 17.64-15.581 40.38-27.019 63.76-30.092"/><path fill="#687e8a" d="M280.558 1637.79c2.808 3.06 3.315 9.22 3.985 13.24 3.902 23.33 3.324 53.39-16.593 69.66-8.662 7.07-18.759 12.51-25.918 21.29-9.734 11.92-12.464 28.07-21.658 40.42-5.741 7.71-13.975 13.98-23.681 15.38-9.199 1.33-17.369-2.09-24.623-7.4-8.464-8.79-13.096-18.98-12.903-31.32.179-11.51 3.972-22.23 11.864-30.72 13.468-14.49 40.933-18.46 59.541-33.44 20.428-16.44 31.613-39.23 49.986-57.11m210.273-342.13c11.647-20.88.566-30.11 19.525-58.27-5.564 20.66-15.414 60.64-3.981 80.37 1.175 2.03 4.743 6.47 6.34 8.42.03 9.36-1.29 21.79 2.815 29.81l1.541.42c3.222-4.57 2.483-15.17 1.577-20.46-1.821-10.63-3.335-13.33-9.931-21.25-.166-2.96-.281-8.38-.996-11.07l2.087-.57c6.819 13.56 13.358 17.49 18.979 27.31.208 10.52-1.589 29.43 4.303 37.55 6.931 3.44 14.699 3.49 18.694 12.93 7.5 17.73 1.658 17.81 17.905 30.72-2.122-7.99-4.166-20.44-3.553-28.66 2.061-27.59-19.837-13.17-27.372-37.23-1.13-3.7-2.2-7.41-3.209-11.14 12.065 10.64 30.166 23.59 41.992 33.15 7.524 6.08 9.002 40.97 18.249 50.07 10.333 15.42 26.693 14.81 32.628 22.91 6.106 8.33 8.183 23.34 17.397 36.37 3.127-11.35 7.065-26.35.702-37.42-8.961-15.58-34.781-14.38-44.309-29.08-4.951-7.64-8.466-20.75-11.899-29.63 24.861 24.45 67.172 30.39 66.554 68.95-.275 17.17-2.383 37.75 8.431 52.29 5.117 6.88 10.557 12.15 14.893 19.73.72-7.22.909-11.08.761-18.33-12.167-13.77-17.905-19.96-16.965-39.29l2.613-3.56c5.633 11.52 12.776 23.22 17.973 34.19 9.444 19.92 8.449 49.51 1.28 70.27l-.409 1.15-1.704-1.98c.237-28.51-8.25-43.97-33.622-57.13-23.691-12.29-14.01-32.16-23.979-51.44-4.622-8.94-21.865-8.7-28.957-14.29-15.305-12.08-22.287-22.18-43.675-21.49-12.958.05-12.204-30.64-17.946-38.86-6.141-8.8-10.671-10.07-21.91-12.92-13.968-18.69-10.977-42.28-19.73-60.48-13.392-9.11-17.477-14-21.413-29.86 2.403-4.92.405-9.26 3.726-18.2 1.585 4.71 1.517 4.58.574 9.67.78 13.99 3.204 17.12 14.021 26.33m1278.279 341.82c11.77 7.52 20.03 22.64 28.45 33.47 5.81 7.49 12.5 14.7 19.77 20.8 7.73 6.36 16.23 11.72 25.32 15.93 10.75 4.92 22.84 8.41 32.06 16.06 9.91 8.22 15.47 20 16.31 32.78.87 13.33-3.56 23.25-12.22 33.05-1.65 1.32-3.32 2.66-5.09 3.83-5.71 3.78-13.39 5.42-20.12 4.03-29.15-6-29.8-39.71-45.89-58.09-10.62-12.14-24.48-15.19-33.9-30.61-13.26-21.7-10.47-47.63-4.69-71.25M282.851 1415.95c.905 1.49 1.137 3 1.434 4.71 4.146 23.89.746 55.77-17.207 73.42-8.58 8.44-18.929 14.82-26.021 24.77-8.51 11.93-11.44 26.92-20.053 38.79-5.941 8.18-14.916 15.86-25.272 17.26-9.067 1.23-17.033-2.84-23.907-8.33-1.229-1.23-2.438-2.49-3.534-3.84a41.67 41.67 0 0 1-8.968-30.22c1.077-10.57 5.383-20.58 12.915-28.15 10.341-10.38 24.945-13.85 37.826-20a134.5 134.5 0 0 0 22.077-13.58c21.89-16.55 31.489-38.77 50.71-54.83m1485.099 1.54c15.31 8.99 27.33 33.38 42.56 46.52 10.32 8.9 21.75 17.49 34.34 22.94 9.04 3.91 19.25 6.72 27.36 12.42 10.08 7.08 16.62 19.15 18.31 31.24 1.8 12.91-2.36 23.65-10.11 33.73-1.96 2-4.15 3.98-6.44 5.59-5.78 4.05-13.5 5.81-20.43 4.5-30.3-5.72-32-41.03-47.78-60.85-7.2-9.04-18.68-13.75-26.46-24.79-14.53-20.62-15.31-47.26-11.35-71.3M275.86 1525.94c1.007 1.1 1.49 2.66 1.776 4.12 5.14 26.18 4.712 52.79-13.843 73.8-7.09 8.03-15.682 15.12-21.97 23.8-8.468 11.68-12.452 25.86-20.376 37.89-5.766 8.76-14.1 16.86-24.787 18.76-8.964 1.59-16.631-1.85-23.812-6.85-.193-.19-.392-.38-.58-.58-8.146-8.56-13.569-19.93-13.145-31.94.393-11.14 4.737-23.04 12.454-31.15 15.347-16.11 40.033-16.01 57.129-29.42 17.894-14.03 27.534-40.89 47.154-58.43m1496.81.32c21.26 12.33 28.73 39.14 46 55.49 15.2 14.39 37.11 15.18 53.62 26.92 10.61 7.55 16.51 18.89 18.21 31.68 1.84 13.9-2.41 24.41-10.63 35.3-6.34 5.48-13.91 9.68-22.55 8.99-28.64-2.3-34.75-38.43-47.59-57.34-5.87-8.65-15.38-14.37-22-22.49-17.81-21.83-17.96-52-15.06-78.55M990.999 640.788l1.502.887c.091 1.251.153 1.384-.053 2.828-1.152 8.051-7.024 16.41-11.74 22.831-32.24 43.9-71.91 28.198-82.369 37.922-4.401 4.093-1.474 12.49-1.377 17.68.052 2.754-1.008 5.036-3.052 6.877-8.542 7.694-26.269-.123-36.371-.976-17.051-1.441-26.092 9.846-37.809 19.571-13.996 11.617-29.252 10.115-45.992 8.606-11.545 7.422-11.787 18.566-20.827 26.307-8.513 7.288-21.021-.28-30.518-1.139-21.812-1.972-32.661 20.955-47.32 32.08-10.495 7.965-21.594 5.955-33.689 4.371-11.44 4.085-16.815 11.682-30.035 11.421-1.189-1.124-2.056-2.147-2.912-3.564-1.674-2.77-2.015-7.106-1.139-10.192.969-3.412 3.182-6.894 5.36-9.663 11.906-15.135 27.247.234 41.335-7.853 12.153-6.975 15.705-18.681 31.453-26.585 9.367.215 18.826 1.972 28.212 1.264 28.611-2.156 23.17-18.282 45.611-27.981 6.69-2.892 13.775-2.209 20.873-2.811 20.592-1.748 29.935-14.61 45.591-25.672 5.321 1.582 10.884 3.387 16.462 3.652 17.818.849 16.752-10.204 27.786-19.411 10.54-8.796 21.559-3.265 33.591-2.797 27.391 1.065 23.616-14.179 36.66-25.037 5.019-4.178 9.886-2.847 15.863-2.202 18.954-8.917 19.741-24.387 34.904-30.414m581.721 669.622c-.41 23.54 1.87 24.4 17.91 40.46 8.58 8.59 3.31 26.12 8.31 36.01 4.28 9.22 13.16 10.69 18.33 17.56 5.05 6.73 6.84 17.71 9.13 25.88 12.1-34.1 27.33.93 35.37 12.15 3.2 4.49 18.76 13.13 25.02 19.01-6.21-16.91-11.43-21.23-21.79-35.23-12.86-17.38-13.04-16.84-33.93-21.14-15.48-15.51-13.9-29.32-24.62-44.31-13.49-18.85-21.46-14.2-25.46-41.77l2.93-3.04c8.98 15.98 18.04 16.05 25.98 26.89 17.36 23.69 2.28 52.13 44.72 51.11 6.17 5.69 7.97 13.74 12.49 17.31 8.86-3.36-1.74-27.08-14.07-28.78-15.35-2.12-19.99-11.05-21.71-26.12l1.52.98c14.15 9.08 41.59 14.12 43.36 32.17 2.04 20.78-.06 52.24 20.73 65.67 16.28 10.52 47.5 4.75 53.15 31.18 2.09 8.7 2.03 30.21-4.87 36.28-11.12-2.32-11.91-35.28-24.85-37.95-6.13-1.27-13.33.82-19.45-.17-18.27-2.96-18.38-27.22-36.57-29.92-13.07-1.94-26.22 3.7-34.84-9.43-6.13-8.89-8.05-18.71-15.97-26.61-6.03-6.02-21.21-6.51-23.9-11.91-6.14-12.33 5.07-36.26-4.76-49.31-4.97-6.6-11.84-10.39-17.9-15.6.03-12.85.45-19.18 5.74-31.37m-554.34-823.767 1.3 1.494c1.67 14.098-1.81 32.699-8.87 44.986-5.14 8.952-20.093 30.065-31.598 29.862-6.445-.114-14.58-3.913-20.773-1.496-8.15 3.18-9.912 17.228-12.739 24.548-13.398 34.692-50.253 3.836-76.22 13.293-19.092 6.953-22.572 25.71-37.472 36.425-19.766 14.214-41.071-2.817-61.559 1.648-14.621 3.187-17.832 17.755-29.923 23.095-3.129-.045-7.624.312-10.571-.573-1.351-.405-2.901-1.001-3.451-2.403-1.032-2.633-.399-6.154.484-8.762 1.64-4.847 4.763-9.832 7.52-14.137 15.408-24.057 36.445-10.912 58.024-19.766 12.278-5.038 22.217-15.616 35.603-17.999 13.275-2.363 27.551 2.681 40.503-2.41 14.868-5.845 22.807-22.093 37.475-29.077 18.222 1.545 25.889 5.545 41.226-8.027 4.019-3.558 7.734-7.175 12.679-9.45 9.532-4.386 20.433-4.441 30.28-7.856 23.172-8.035 18.892-33.776 27.492-52.171z"/><path fill="#687e8a" d="m536.026 1438.72-1.047-1.03c-4.934-4.91-11.32-13.53-12.78-20.22-1.484-6.8-10.04-30.98-8.289-36.39 3.467-.41 7.968.41 10.556 2.78 9.965 9.11 6.035 28.41 12.963 39.62 6.008 9.72 17.191 7.35 26.07 11.2 14.58 6.33 10.95 28.71 31.018 28.23 7.407.17 16.329-4.63 22.768.27 8.06 6.13 2.378 33.63 7.474 38.39 15.279 14.29 23.946 10.64 34.365 33.02 5.167 11.09 21.88 21.29 18.727 38.88-.708 9.35-2.668 15.31-5.844 24.22-2.025-28.66-6.858-24.21-23.21-44.41-8.5-10.5-3.13-21.59-17.427-35.38-9.065-2.22-14.612-1.78-23.085-3.24-3.382-2.82-8.739-7.55-12.393-9.48-11.481-6.04-29.243-7.99-39.723-15.66-24.39-17.83-10.986-42.9-52.427-43.84-17.471-13.28-16.989-30.1-15.914-49.66.261-1.46.547-4.96 1.28-6.03.237-.12.29-.21.52-.17.393.05.834.7.98.85 4.271 30.74 15.736 44.16 44.2 55.93 7.355 3.05 16.061 1.14 21.791 6.79 12.5 16.35 4.689 24.76 23.023 40.64 11.056-.04 16-.79 26.406 2.71-9.601-14.82-20.086-17.21-29.702-28.29-14.856-17.12-8.292-35.92-40.3-29.73"/><path fill="#e21215" d="M1562 1465.55c.32-.52 1.12-2.26 1.59-2.59.59-.04.64.22 1.27.75 1.58 49.87 4.84 99.67 9.77 149.33 1.7 17.11 3.51 34.2 5.44 51.29 2 18.17 10.13 56.45-19.17 59.48-13.92 1.45-23.2-17.89-21.99-29.55 2.23-28.36 8.27-56.46 11.88-84.56 5.87-45.72 12.12-98.06 11.21-144.15"/><path fill="#687e8a" d="M1263.78 323.557c26.11 20.094 32.11 16.275 61.88 17.778 31.72 1.601 52.54 31.229 54.99 60.761 4.09 30.765-7.39 55.511-22.11 81.404l-1.83-3.346c6.76-22.496 8.61-50.833-3.27-71.914-24.15-42.837-68.19-40.234-89.66-84.683M579.549 943.108c7.502.069 15.274.528 22.821-1.267 14.127-2.09 17.512-27.202 29.523-32.325 23.122-9.861 23.498-5.612 34.235-29.421 6.806-15.09 41.056-11.085 55.526-20.903 11.816-8.017 21.728-20.765 36.316-23.793l.837 2.791c-20.935 13.305-25.074 16.246-42.021 33.614-11.203 2.278-44.644 10.301-41.24 26.042 5.519 1.142 15.509-10.854 21.165-13.913 4.362-2.358 6.154-2.938 10.788-4.497-10.172 8.589-19.935 18.658-29.703 27.864a251 251 0 0 0-8.025-.804c-31.114-2.486-31.005 28.41-47.825 41.962-6.506 5.242-22.022 2.302-31.283 12.232-8.701 9.329-8.735 19.621-17.574 27.641-6.689 5.763-17.205 5.027-24.677 9.045-8.139 4.374-12.908 16.834-23.184 15.994-6.065-3.81-6.087-9.22-4.803-15.162 5.496-25.452 25.111-20.234 40.659-30.315 7.447-4.829 5.226-16.184 18.465-24.785"/><path fill="#687e8a" d="M634.852 880.948c13.069-8.461 18.808-23.114 31.81-29.732 10.656-5.425 24.88-2.885 37.336-6.963 12.946-4.239 17.668-17.359 25.808-21.816 8.727-4.778 26.999.983 38.899-8.348 6.67-5.23 9.451-9.378 15.488-14.998 8.432-7.85 18.163-6.769 28.715-5.928l-.952 1.994c-17.949 2.346-22.096 19.755-36.533 28.194-10.011 5.851-20.076 2.018-30.148 5.496-12.98 4.482-20.694 21.306-34.183 25.189-10.492 3.021-21.776.145-32.811 2.318-20.063 3.949-17.463 19.94-29.204 31.082-7.838 7.438-22.901 3.864-31.07 14.559-4.552 5.961-6.854 11.947-10.893 18.049-7.727 11.078-15.284 6.653-29.08 8.004-15.748 1.543-14.148 37.189-30.547 25.103-2.731-2.013-4.134-11.638-3.386-15.155 5.368-25.243 28.783-22.405 45.946-33.478 7.747-5.436 9.056-15.012 21.687-23.442 6.775-.446 16.15-.149 23.118-.128m57.21-375.435a516 516 0 0 1-7.965-27.1c-8.14-31.283-13.958-71.528 3.543-100.768a74.68 74.68 0 0 1 56.351-35.884c18.285-1.775 25.582.408 44.788-4.357l1.139 2.721-1.16.869c-10.616 7.871-28.466 16.316-40.62 22.334-53.182 26.336-56.62 81.48-54.77 134.486.202 1.962 1.139 8.926.286 10.614-.968.568-1.463-2.389-1.592-2.915"/><path fill="#859199" d="M693.368 497.814c.202 1.962 1.139 8.926.286 10.614-.968.568-1.463-2.389-1.592-2.915z"/><path fill="#687e8a" d="m1013.91 405.816 3.34.889c.04 7.693.26 23.783-4.34 29.597-6.75 8.529-23.68 21.204-33.509 25.338-11.115 4.674-26.578-5.395-38.901.365-12.732 5.952-17.722 19.628-31.982 22.277-9.23 1.665-17.401-6.991-26.816-4.024-9.662 2.455-15.685 16.912-25.629 17.495-9.474.555-9.824-11.268-8.326-17.713 5.079-21.851 30.079-11.344 45.624-13.438 8.354-1.125 13.268-8.599 21.37-10.46 11.223-2.565 23.464 1.554 34.38-2.716 12.476-4.882 19.584-16.37 30.94-23.239 24.019-.24 25.209-2.278 33.849-24.371M499.779 1450.69c3.496 1.14 6.506 4.24 9.43 6.42 5.82 4.34 11.322 8.76 16.028 14.32 9.638 11.39 16.063 24.31 28.746 32.91 18.844 12.78 42.939 9.79 61.594 21.11 11.347 6.89 11.869 22.69 19.594 32.63 6.862 8.82 17.313 13.85 23.786 23.29a43.6 43.6 0 0 1 6.562 15.13c5.768 24.89-4.284 48.64-17.25 69.31 6.951-19.49 11.429-36.28 9.483-57.18-8.609-50.48-62.526-42.52-88.572-78.5 14.216 3.8 24.561 4.63 36.358 14.44 4.181 3.48 7.622 7.62 12.126 10.72l1.471-.72c1.321-4.32.103-7.52-1.757-11.45-10.775-22.75-34.633-13.8-54.275-20.83-30.883-11.07-49.976-43.73-63.324-71.6M1015.45 309.776c.58.894.74 1.03 1.12 2.2 6.21 18.908-1.66 36.87-8.83 53.907-2.74 6.518-5.2 13.327-9.147 19.229-9.519 4.99-19.215 5.558-29.693 5.97-5.031 7.607-9.728 16.952-18.155 21.312-8.714 4.509-17.233 1.215-25.818-1.581-.692.466-1.392.922-2.078 1.396-3.959 2.739-7.07 4.766-11.729 6.137-2.888-1.473-5.537-2.758-7.059-5.792-1.852-3.694-.87-10.528.701-14.205 5.624-13.172 22.176-8.275 32.584-13.587 7.219-3.685 11.587-10.962 19.733-13.341 8.236-2.406 17.041-.722 25.175-4.108 21.446-8.928 25.116-38.47 33.196-57.537"/><path fill="#ae5d0e" d="M483.87 1047.49c1.378-.32 2.758-.64 4.14-.94l.112 1.96c2.515 1.34 2.654 1.26 4.678-.72-2.43 8.39-2.821 13.3.083 21.47 1.863 3.3 3.015 5.55 4.545 9.04.297.68.601 1.36.912 2.03-2.169 2.23-6.99 7.54-9.626 8.68-11.297 15.13-15.819 35.73-1.612 50.51-8.948 14.56-14.457 20.04-11.328 38.12 3.422 9.32 3.675 10.13 9.936 18.01-9.354 16.66-17.587 26.19-8.816 45.98l.691 1.59-1.408 3c-1.795-3.11-3.466-6.64-5.046-9.87l-1.761 3.42c-4.634-8.37-7.233-14.11-9.726-23.24 3.099-9.42 11.309-27.95 8.588-37.26-.612-2.09-5.478-10.41-6.988-15.25-6.824-21.87 7.038-28.8 8.884-48.6.977-10.47-5.637-24.57-2.346-35.32 3.241-10.59 10.713-22.65 16.088-32.61"/><path fill="url(#b)" d="M475.398 1100.76c5.282-5.61 6.106-10.64 13.316-11.75-11.297 15.13-15.819 35.73-1.612 50.51-8.948 14.56-14.457 20.04-11.328 38.12-.602 2.19-1.166 3.79-1.922 5.92l-.349-1.16c-5.713-18.49-1.549-24.01 3.727-40.4 1.074-3.33-2.457-15.73-3.207-20-1.54-8.78-.776-12.5 1.375-21.24"/><path fill="#687e8a" d="M475.774 1177.64c3.422 9.32 3.675 10.13 9.936 18.01-9.354 16.66-17.587 26.19-8.816 45.98l.691 1.59-1.408 3c-1.795-3.11-3.466-6.64-5.046-9.87l-.181-.7c-5.331-19.83-.594-22.88 5.912-39.62-.891-4.27-2.283-8.72-3.01-12.47.756-2.13 1.32-3.73 1.922-5.92m13.265-106.36 3.844-2.02c1.863 3.3 3.015 5.55 4.545 9.04.297.68.601 1.36.912 2.03-2.169 2.23-6.99 7.54-9.626 8.68-7.21 1.11-8.034 6.14-13.316 11.75 4.965-17.31 13.144-17.18 13.641-29.48"/><path fill="#859199" d="M488.122 1048.51c2.515 1.34 2.654 1.26 4.678-.72-2.43 8.39-2.821 13.3.083 21.47l-3.844 2.02c-2.557-6.01-2.15-16.4-.917-22.77"/><path fill="#687e8a" d="M1589.45 1488.58c1.63 1.02 1.09.56 2.3 1.72 6.18 5.94 11.84 9.04 19.62 12.36 3.33 33.98 14.82 20.77 34.27 37.96 5.59 4.94 9.39 13.67 13.85 19.82-.29-7.46-1.39-13.93-3.36-21.08 13.9 11.87 16.96 20.01 27.91 31.89 3.41 3.71 9.47 4.07 12.6 8.01 8.58 10.82 5.49 46.64 4.57 60.87 4.19 2.39 8.52 4.82 9.89 9.8 1.42 5.17-1.48 9.92-3.98 14.19-5.45 7.59-11.61 14.85-17.4 22.19 15.11-53.85-3.91-99.85-45.55-135.09-6.17-5.23-13.4-9.43-20.13-13.9-19.37-12.88-27.65-26.94-34.59-48.74M668.3 912.707c1.929.335 1.172-.125 2.347 1.248-17.615 14.765-27.694 34.323-43.247 50.557q-1.309.33-2.615.672c-18.206 4.829-22.646 13.657-31.716 28.721-7.019 11.655-11.018 12.285-23.275 15.745-12.888 3.64-14.283 14.55-20.695 24.63-6.573 10.34-19.775 14.49-28.739 22.24-6.107 5.27-8.032 14.65-16.538 16.6-1.392-1.51-3.068-3.31-3.868-5.22-2.274-5.44.607-18.7 3.292-23.8 5.967-11.33 21.314-9.52 30.663-16.83 6.921-5.42 11.192-16.27 18.665-20.28 6.224-3.34 15.454-3.48 22.413-5.52l1.339-.4c9.691-9.315 13.184-23.55 22.656-33.071 7.479-7.518 17.658-1.065 24.462-6.898 4.232-3.628 7.233-8.64 10.178-13.302 9.926-15.716 17.068-27.22 34.678-35.092m350.16-644.106c.08-1.747-.05-.8.75-2.032l.12-.004c1.57 1.749.3 9.496-.14 11.762-.63 6.61-2.87 16.049-5.6 22.057-3.74 7.553-8.93 13.823-13.41 20.962-6.785 10.811-11.171 26.246-23.325 32.339-10.648 4.539-18.844-1.453-29.879 3.044-8.223 3.35-19.217 21.735-26.156 11.293-1.635-2.462-2.425-5.687-1.679-8.522 2.972-11.295 15.908-15.222 26.361-14.501 14.081.815 25.892-7.156 27.376-22.009.96-9.616 3.741-12.138 12.881-15.53 18.931-7.022 24.161-23.084 32.701-38.859"/><path fill="#859199" d="M1018.46 268.601c.08-1.747-.05-.8.75-2.032l.12-.004c1.57 1.749.3 9.496-.14 11.762-.21-3.646-.22-6.091-.73-9.726"/><path fill="#687e8a" d="M1017.91 359.952c1.7-3.063 2.9-6.009 3.77-.862q-.72 5.707-1.65 11.384c-2.17 12.593-7.51 27.326-14.61 37.881-8.582 12.75-23.116 3.702-34.774 8.984-12.857 5.825-17.667 20.966-31.284 25.592-13.137 4.462-26.72-3.202-39.657 1.553-3.263 1.439-6.641 4.833-9.57 6.498-12.239 6.956-15.283-8.619-11.689-17.079 2.258-5.317 8.314-7.756 12.691-10.019 14.4 9.849 21.863 3.82 36.404-2.508 19.842 4.643 28.41 5.542 43.981-9.312 8.724-8.322 12.401-8.182 22.68-12.059 11.788-4.447 19.178-28.58 23.708-40.053"/><path fill="#70838f" d="M1017.91 359.952c1.7-3.063 2.9-6.009 3.77-.862z"/><path fill="#687e8a" d="m618.566 975.907.537.375.019 1.161c-3.495 3.807-7.468 7.727-10.244 12.089-5.066 7.96-7.48 20.958-15.451 26.518-4.861 3.39-11.493 4.12-16.668 7.14-4.916 2.87-7.629 7.14-9.038 12.58-.775 2.99-1.748 6.78-.141 9.47 4.465-2.12 7.493-10.71 11.558-14.21 2.852-2.45 7.234-4.2 10.603-5.88-6.386 8.36-12.242 16.84-17.947 25.67l-1.3.07-2.037.13c-27.286 1.54-24.348 17.54-36.671 35.14-5.583 7.98-14.121 13.75-20.967 20.66-4.213 5.22-6.284 12.13-10.611 17.01-1.802 2.03-2.935 2.48-5.565 2.65-3.368-1.9-5.532-6.11-6.776-9.68-7.196-20.64 19.926-24.67 30.19-34.09 5.369-4.93 6.909-13.51 11.682-19.09 5.704-6.67 12.38-9 19.153-13.83 7.641-5.44 12.016-18.29 16.05-26.52 7.77-5.12 17.749-6.4 24.777-12.63 12.972-11.507 7.399-21.905 28.847-34.733m274.377 295.703c.362-.83.136-1.46 1.035-1.45 1.269 1.32 1.022 6.55 1.056 8.23l5.655 81.34c.735 11.19 1.384 32.91 2.774 42.68-5.858.82-13.111.9-18.961-.02 1.112-7.29 1.773-31.15 2.37-39.96a8977 8977 0 0 0 6.071-90.82"/><path fill="#aaaeb5" d="M892.943 1271.61c.362-.83.136-1.46 1.035-1.45 1.269 1.32 1.022 6.55 1.056 8.23-.807-2.38-1.446-4.34-2.091-6.78"/><path fill="#687e8a" d="M567.871 1057.16c-.308 1.21-.055.78-.888 1.75-11.004 12.84-18.173 27.06-25.903 41.98-23.234 13.88-16.633 19.4-24.563 42.05-.134.38-.277.76-.416 1.14-4.72 4.31-11.594 6.78-15.635 11.73-6.152 7.54-.6 19.69-6.549 26.64-3.231.5-4.209-.11-7.199-1.26-1.328-2-2.722-4.04-3.575-6.29-7.419-19.61 11.893-25.13 20.817-37.38 3.916-5.38 5.29-12.65 8.078-18.65 5.002-10.76 16.835-15.59 24.399-24.18 8.056-9.15 11.739-21.56 20.029-30.45 3.303-3.54 6.953-5.35 11.405-7.08m585.069 225 2.36-2.97c2.99 36.32 5.06 88.7 10.18 123.27-5.56.58-14.73.66-20.37.35 1.56-5.02 2.62-32.6 3.02-40.04 1.4-26.88 3.01-53.75 4.81-80.61M1016.56 242.792c.3.411.64.815.88 1.273 1.3 2.503-3.14 14.245-4.18 17.378-1.79 5.4-7.2 8.48-10.66 12.868-3.52 4.46-5.81 9.639-9.222 14.065-1.312 1.702-2.841 3.01-4.562 4.298-4.557 3.41-11.722 3.578-16.816 6.291-7.689 4.096-10.415 12.234-12.63 20.136-.456 1.63-.943 3.272-1.326 4.921-.399 1.714-.777 3.92-1.709 5.444-.699 1.144-1.516 1.508-2.775 1.853-2.834.779-4.842-.357-7.252-1.732-11.217-28.428 21.449-29.983 22.207-37.075.051-.478-.402-.974-.728-1.263-.538-.478-1.292-.941-1.645-1.617.316-.268.933-.391 1.353-.468 1.524-.279 2.568-.482 4.013-1.081 7.883-3.272 8.248-8.836 11.19-16.095 1.603-.269 3.206-.565 4.818-.772.497-.064.996-.102 1.493-.166 15.151-1.949 19.391-17.665 27.551-28.258m377.45 1304.978 1.16.43c-1.02 4.19-6.13 8.72-8.58 12.46a56 56 0 0 0-7.95 19.77c-4.95 24.67 4.83 50.14 12.72 73.14 1.38 4.02 4.68 9.9 4.76 14.06l-2.1-1.25c-6.02-6.41-11.51-12.65-15.79-20.38-10.81-19.5-15.12-48.58-8.5-70.05 4.2-13.62 12.08-21.6 24.28-28.18"/><path fill="#ae5d0e" d="M1036.01 1402.73c.18.04 3.25.58 3.26 1.16.26 11.35-.21 22.89.14 34.36-.15.82-.4 2.9-1.31 3.01-5.71.7-22.4.45-27.67.29.66-6.26-.22-35.28.78-37.85.51-.36 1.05-.47 1.65-.58l1.29-.27c6.18.38 15.59.21 21.86-.12m-132.547-.32c.626.11 4.071.64 4.113 1.25.75 11.04-.571 27.1.932 37.65-8.047.71-20.896.51-29.141.28 1.14-8.76-.059-28.83 1.26-38.13.092-.65 2.98-.95 3.875-1.07 5.85.92 13.103.84 18.961.02m-126.053.08c5.079 1.36 3.623 1.21 3.783 5.99.352 10.49-1.065 22.56.476 32.86-9.713.02-19.432-.16-29.127-.06.775-6.37-.887-35.84 2.295-37.84 5.429.22 17.295.09 22.573-.95"/><path fill="#687e8a" d="m537.207 1112.06 1.086 2.15c-5.066 10.25-8.393 20.85-12.878 31.05-8.452 19.23-14.627 24.22-12.461 45.88-8.142 9.68-19.786 18.42-21.357 31.73-.581 4.92-.55 9.92-5.132 12.26-2-1.55-3.418-4.44-3.613-6.73-1.314-15.41 11.005-26.73 18.247-38.64 2.894-4.76 2.17-18.45 4.303-22.78 2.961-6.01 9.438-14.13 12.897-20.46 6.904-12.65 10.239-22.64 18.908-34.46M1683.96 1397.7c3.18 2.84 5.94 6.06 9.27 8.73 8.72 7 18.91 13.23 26.22 21.72 6.71 7.79 11.52 18.18 16.27 27.23-.6-.38-1.21-.75-1.78-1.16-5.94-4.28-12.54-6.28-18.94-9.69-14.13-7.51-23.46-17.86-27.75-33.55-.35-1.31-.71-2.67-1.03-4-.75-3.09-1.44-6.2-2.26-9.28m-301.54 64.01c9.82-9.25 12.83-24.95 22.9-32.83 16-12.52 30.92-16.85 47.3-30.58-10.62 27.41-17.1 23.63-40.99 36.11-7.26 3.78-12.99 14.57-17.5 21.14-1.4 2.02-7.31 6.14-9.72 8.18zm-885.029-116.92c.892.94 1.231 1.38 1.518 2.66.147.66.237 1.33.388 1.99.542 2.36 1.108 4.7 1.537 7.08.714 3.98 1.489 7.99 2.04 11.99.299 2.18.741 4.33 1.033 6.5.25 1.86.614 3.65.912 5.5.277 1.72.576 3.31.944 5 1.935 8.92 5.892 17.13 7.996 26.01l.948 4.02c.72 3.02 1.569 5.94 2.698 8.84.718 1.84 1.286 2.68.822 4.61-7.458-6.31-16.585-13.08-19.079-23-.371-1.47-.777-3-1.048-4.49-.327-1.81-.77-3.68-.987-5.5-2.206-18.59-1.502-32.63.278-51.21m21.617-147.84c-5.682 18.49-10.275 35.44-21.721 51.23-4.686 6.46-5.888 19.1-7.295 26.83-1.119 6.59-4.301 4.08-5.359-1.01-1.469-7.05.403-13.24 2.892-19.73-.007-1.44.051-1.51-.317-2.88 16.556-15.01 7.393-19.94 15.83-37.86 2.591-5.5 10.054-7.43 13.912-16.43zM1014.2 234.165l3.38.47c-1.93 3.519-2.58 6.302-6.57 8.341-6.99 3.567-10.68 10.743-16.003 16.415-3.502.909-8.188 2.335-11.669 3.145-8.371.787-9.901 15.044-14.746 16.398-7.741 2.163-7.145-11.503-3.934-15.237 7.244-8.422 21.034-2.098 27.795-14.79 4.495-8.44 14.447-9.532 21.747-14.742m-24.184-.445c-3.232 5.291-4.622 10.44-10.506 13.438-6.629 3.378-6.462-4.689-4.565-8.673 2.953-6.202 8.182-8.888 14.549-10.5 1.019-.38 2.375-1.134 3.524-1.203 11.792-.704 15.912-11.157 22.052-19.338 2.11-2.803 4.42-6.203 6.84-8.77-1.12 5.651-1.57 8.835-3.6 14.347-.7.772-.59.712-.7 1.84-7.4 15.118-12.06 13.99-27.594 18.859m37.004-33.86 3.11-.886a43 43 0 0 0 3.96 8.036c3.67 5.803 10.22 8.066 15.97 7.833 2.45 2.307 6.61 12.775 8.02 15.173 3.14 5.344 1.39 14.049-4.74 6.108-7.43-9.638-15.98-14.108-25.84-20.604a248 248 0 0 1-.48-15.66"/><path fill="#ae5d0e" d="M671.298 1900.76c4.554-.19 21.251-2.72 21.846 1.83.209.93.418 1.85.628 2.78-1.227 4.8-.798 9.2-.689 14.21-2.763 2.3-16.983 1.27-21.86 1.29zm682.192 5.87c.72-6.23-.06-6.42 6.5-6.33 4.89.06 9.79-.02 14.71.18l-.07 20.55c-4.72-.02-17.87 1.04-20.74-1.29.15-4.67.53-8.58-.4-13.11"/><path fill="#687e8a" d="M1026.44 192.128c3.17-.463 5.56-.798 8.7-.065 10.78 2.326 17.95 4.005 27.42 9.83 4.54 2.793 11.39 3.786 15.75 7.958-.14 5.342.85 12.403.77 18.545l-.53-.073c-1.34-.173-1.28-.092-2.07-1.055-.27-15.607-2.3-18.209-17.03-23.17-4.23 1.742-6.94 2.782-11.36 4.197-5.81-4.703-11.52-9.558-17.39-14.157l-1.73 1.985c-.85-1.324-1.7-2.656-2.53-3.995"/><path fill="#dedde0" d="M1026.44 192.128c3.17-.463 5.56-.798 8.7-.065-2.52.558-4.77-.285-4.44 2.075l-1.73 1.985c-.85-1.324-1.7-2.656-2.53-3.995"/><path fill="#687e8a" d="M999.561 200.105c12.449-5.422 11.389-5.204 24.459-7.029-10.16 6.224-13.72 9.93-19.68 20.228-5.936 10.266-14.556 5.824-9.1-5.802l-.45-2.888c2.9-1.514 3.908-2.014 6.97-3.072z"/><path fill="#dedde0" d="M1001.76 201.542c.17.149.35.298.52.447-.18.924-5.859 4.74-7.04 5.513l-.45-2.888c2.9-1.514 3.908-2.014 6.97-3.072"/><path fill="#ae5d0e" d="M969.944 222.637c4.944-5.46 8.577-8.666 14.77-12.699-1.328 9.45-3.285 9.52-10.668 16.733l.501.824c-4.516 4.197-3.999 4.371-7.151 9.336-1.027 4.225-.807 6.226-.857 10.607-1.175-7.491.687-9.163-5.377-4.148l-.794.599c1.181-6.983 4.592-16.221 9.576-21.252M471.131 1236.35c1.58 3.23 3.251 6.76 5.046 9.87 2.948 5.07 1.327 8.11.059 13.44-3.321 8.94-1.323 13.28-3.726 18.2-1.919-11.39.542-28.34-2.483-36.3l-.657-1.79z"/><path fill="#859199" d="M984.714 209.938c2.447-3.26 10.973-8.143 14.847-9.833l2.199 1.437c-3.062 1.058-4.07 1.558-6.97 3.072-6.266 3.792-5.234 3.099-7.48 9.38-2.676 7.482 3.22 10.149 3.358 11.723-1.644 1.655-4.43-3.297-7.124-2.429-3.123 1.007-6.075 2.7-8.997 4.207l-.501-.824c7.383-7.213 9.34-7.283 10.668-16.733"/><path fill="#70838f" d="M477.585 1243.22c5.176 4.87 1.882 5.29 9.623 8.17.368 1.37.31 1.44.317 2.88-5.595-3.69-9.531 12.13-10.715 15.06.943-5.09 1.011-4.96-.574-9.67 1.268-5.33 2.889-8.37-.059-13.44z"/><path fill="#859199" d="M516.95 1197.1c2.034-5 4.673-29.75 6.597-30.91 1.699 1.88-3.636 27.11-4.539 30.76z"/><path fill="#aaaeb5" d="M1017.61 214.861c.11-1.128 0-1.068.7-1.84 2.99 5.924.51 15.329-.73 21.614l-3.38-.47c2.38-6.803 4.78-11.907 3.41-19.304"/><path fill="#70838f" d="M490.44 1040.29c4.178 1 2.573 1.99 6.33-.94-1.415 2.77-2.608 5.64-3.97 8.44-2.024 1.98-2.163 2.06-4.678.72l-.112-1.96c.717-1.86 1.232-3.4 1.827-5.28z"/><path fill="#e8958a" d="M1562 1465.55c-.32-8.21 0-13.27 1.22-21.28.71 5.73 2.11 14.04 1.64 19.44-.63-.53-.68-.79-1.27-.75-.47.33-1.27 2.07-1.59 2.59"/><path fill="#ae5d0e" d="M486.04 1036.7c2.246 2.05 2.302 1.98 3.797 4.57-.595 1.88-1.11 3.42-1.827 5.28-1.382.3-2.762.62-4.14.94 1.376-4.05 1.587-6.5 2.17-10.79"/><path fill="#859199" d="M1152.94 1282.16c-.02-1.91-.4-15.4 1.56-15.05l-.15.72c.74.94.62.54.63 1.72.03 3.22.14 6.43.32 9.64z"/><path fill="#aaaeb5" d="M487.828 1396.02c-.01-7.53 1.166-14.94 2.491-22.36.109 4.95.7 12.31.289 17.01-.146-.15-.587-.8-.98-.85-.23-.04-.283.05-.52.17-.733 1.07-1.019 4.57-1.28 6.03"/><path fill="#859199" d="M889.326 218.377c3.314.9 7.071 3.128 10.274 4.719-6.524-1.253-9.789-1.868-16.557-2.196 3.733-.623 3.258-.214 6.283-2.523M1557.24 1409.01c.59-1.65 2.29-7.33 3.31-8.44l.09-.02c1.15 1-.41 9.4-.61 10.84z"/><path fill="#70838f" d="M1364.1 343.019c-.83-.57-6.45-3.911-6.41-4.531.87-.527 7.01 1.442 8.49 1.774zm-165.66-152.763c-1.17.184-10.15 1.805-11.76 1.465-.08-.017-.06-.108-.06-.223.81-1.057 3.07-1.911 4.29-2.501z"/><path fill="#687e8a" d="M1580.99 1319.03c-.1-1.49-.21-2.98-.34-4.47-.1-1.08-.58-3.01.1-3.96 1.12.05 2.54 4.18 3.17 5.39z"/><path fill="#859199" d="M788.779 337.404c1.048-.553 5.605-3.65 6.605-2.848.027 1.151-4.433 4.67-5.466 5.569zM1549 1447.3c2.81-5.58 6.38-5.48 1.65 2.11z"/><path fill="#70838f" d="M757.97 835.399c.988-.339 4.38-1.935 5.425-1.059.078.986-3.674 3.191-4.588 3.85zm811.32 595.491c-.31-.95-2.53-6.15-1.7-6.93 1.09.23 3.17 4.55 3.7 5.51zm-32.46-113.58c.47-1.06 2.13-5.7 3.37-5.67.67.96.15 2.82.01 3.92-.11.92-.2 1.83-.28 2.74zm-522.92-911.494c.64-1.42 1.71-4.905 2.64-5.862.84.474.67 5.992.7 6.751z"/><path fill="#aaaeb5" d="M484.213 1452.78c.381-1.52.923-4.9 2.148-5.95 1.919-.04-.698 6.95-.907 7.75z"/><path fill="#859199" d="M1026.44 192.128c.83 1.339 1.68 2.671 2.53 3.995l1.16 2.851-3.11.886c-.29-2.829-.51-4.865-.58-7.732m330.27 288.026 1.83 3.346c-.58.822-2.12 3.74-3.03 3.883-.96-.813.92-5.952 1.2-7.229"/><path fill="#aaaeb5" d="m683.742 1564.33 1.704 1.98c-.184.87-.839 4.13-1.988 4.24-1.147-1.45-.364-4.65.284-6.22"/><path fill="#70838f" d="M416.53 1358.6c.754-1.09 1.868-3.22 3.048-3.86 1.204.27-.091 4.4-.249 5.13z"/><path fill="#aaaeb5" d="M361.49 1682.54c.445.93 2.233 3.82 1.312 4.81-1.226.05-2.643-3.45-3.02-4.17z"/><path fill="#859199" d="M537.207 1112.06c.457-.7 2-3.46 3.163-3.29.752 1.18-1.629 4.61-2.077 5.44zm685.503-325.804c-1.03-.516-4.62-1.886-5.04-2.733l.04-.107c2.23-.329 3.99.205 6.12 1.034z"/><path fill="#70838f" d="M663.989 1464.26c-.005-1.3-.323-6.89.446-7.6.679.56.997 1.56 1.373 2.36l.794 1.68z"/><path fill="#aaaeb5" d="M295.296 1593.73c.244 1.5 1.511 6.19-.189 7.27-.81-.31-.81-1.14-.996-1.91.38-1.79.775-3.58 1.185-5.36"/><path fill="#859199" d="M507.721 1303.63c-.226-.94-1.441-4.97-.402-5.81.858.26 2.13 4.24 2.489 5.24z"/><path fill="#70838f" d="M1282.32 829.465c-.83-.39-2.92-1.161-3.46-1.973.08-.125.16-.25.23-.375 1.61-.48 3.13-.173 4.67.352zm102.09 634.265c-1.05.4-2.77 1.33-3.9 1.18-.74-.94 1.31-2.54 1.91-3.2z"/><path fill="#aaaeb5" d="M812.908 793.163c1.089.02 2.558-.161 3.571.381l.052.32c-1.017.959-3.247 1.088-4.575 1.293zm725.462 450.017c-.42-2.83-1.58-7.22 1.6-3.3zm-148.19 370.75 1.65.06c-.02.4.19 3.47-.75 3.46-.63-.43-.73-1.45-.77-2.13zm134.54-450.48c-.33-.77-.83-1.52-.43-2.34.8-.19 1.07.93 1.47 1.42z"/><metadata><recraft-signature>{&quot;signed_by&quot;: &quot;recraft&quot;, &quot;signature_b64&quot;: &quot;etpXmRHzP11wLospD0qMhKkwF7nOfexzKuVVnwR2lfl9TlyXTxJUmHwU3Vlfs7ITTS2N2qX8eQ6NZxvk19Z9AA==&quot;, &quot;signing_algo&quot;: &quot;Ed25519&quot;, &quot;generation_timestamp&quot;: 1777235118, &quot;identifier&quot;: &quot;442ebd2c-ac2d-49cc-9e21-57eff2cb1d82&quot;}</recraft-signature></metadata></svg>