<svg xmlns="http://www.w3.org/2000/svg" width="1024" height="1024" preserveAspectRatio="none" style="display:block" viewBox="0 0 2048 2048"><path fill="#fefefe" d="M627.322 1647c18.712-12.05 38.718-28.24 56.162-42.47 24.047-19.61 52.263-38.52 75.24-58.86 61.822-54.73 123.384-109.66 186.062-163.41 15.155-12.99 30.46-29.54 44.879-43.6a3768 3768 0 0 1 59.395-56.12l1.78.09c22.65 26.16 43.73 56.36 65.54 83.03 9.36 11.44 27.18 28.95 37.76 40.2l61.43 66.55c25.18 27.81 50.54 55.45 76.08 82.93 12.04 13.11 28.8 32.86 41.26 44.72 22.06 21.01 47.54 42.86 70.58 63.03 12.16 10.64 32.76 30.95 44.06 39.5l-37.23 89.51c-7.21 17.33-17.04 39-23.29 56.31-1.49 3.8-4.06 10.71-6.58 13.62-16.46 19.04-36.2 38.37-53.71 56.43-6.8 7.01-30.48 32.5-36.5 37.11 1.44 4.23 8.48 24.12 8.82 27.48l3.48 10.64c5.39-4.12 27.28-21.67 32.55-22.5a541 541 0 0 0 33.26 36.61c5.61-5.47 10.53-10.22 16.49-15.3 10.39 9.81 21.19 19.58 31.7 29.29 2.27-2.8 2.38-3.76 5.41-4.96 6.63 5.34 14.53 13.67 20.71 19.83 6.95-10.12 14.52-22.31 22.32-31.6 4.25-5.06 16.7-8.33 22.19-13.19 19.41-17.21 38.85-34.99 57.97-52.49l1.06 1.85c-28.67 33.11-60.6 72.61-88.76 106.77H0v-161.85c10.267-7.43 20.543-14.98 30.149-23.26 38.373-33.08 76.297-66.68 113.996-100.53 10.873-9.76 20.778-20.56 31.719-30.25l2.015-1.55c5.557 2.51 46.204 41.66 53.543 48.51l22.322-24.21c3.81 4.5 7.896 9.54 11.788 13.89l8.211 12.52c9.762-26.31 19.808-57.77 32.525-82.63 1.759-3.44 11.072-14.16 14.183-17.91 4.922-8.22 8.89-24.66 13.38-34.27 1.972-6.18 11.469-19.27 12.11-24.97 1.738-15.49 1.399-35.46 2.191-50.89 7.812 9.36 14.943 18.42 23.009 27.77 11.812-47.65 23.947-95.23 36.405-142.71 4.582-4.36 13.663-10.9 18.942-14.95 5.26-18.55 9.326-42.56 15.204-60.4 2.66-8.07 23.871-33.81 30.566-41.07l1.174.81a1248 1248 0 0 1 43.732 83.97l12.625-12.16c1.855 5.18 4.038 10.88 5.614 16.11 1.984 13.29 9.951 38.53 13.552 52.51l5.958 18.51c-1.371 3.85-2.945 8.73-4.449 12.42 10.415 30.03 18.672 62.26 27.99 92.77 3.954 12.94 7.961 30.99 13.116 43.37 9.59-11 14.771-22.29 22.807-32.38l1.57-2.33c2.96 2.36 7.576 22.93 10.112 29.34z"/><path fill="#223442" d="M1050.84 1282.63c22.65 26.16 43.73 56.36 65.54 83.03 9.36 11.44 27.18 28.95 37.76 40.2l61.43 66.55c25.18 27.81 50.54 55.45 76.08 82.93 12.04 13.11 28.8 32.86 41.26 44.72 22.06 21.01 47.54 42.86 70.58 63.03 12.16 10.64 32.76 30.95 44.06 39.5l-37.23 89.51c-7.21 17.33-17.04 39-23.29 56.31-1.49 3.8-4.06 10.71-6.58 13.62-16.46 19.04-36.2 38.37-53.71 56.43-6.8 7.01-30.48 32.5-36.5 37.11 1.44 4.23 8.48 24.12 8.82 27.48l3.48 10.64c5.39-4.12 27.28-21.67 32.55-22.5a541 541 0 0 0 33.26 36.61c5.61-5.47 10.53-10.22 16.49-15.3 10.39 9.81 21.19 19.58 31.7 29.29 2.27-2.8 2.38-3.76 5.41-4.96 6.63 5.34 14.53 13.67 20.71 19.83 6.95-10.12 14.52-22.31 22.32-31.6 4.25-5.06 16.7-8.33 22.19-13.19 19.41-17.21 38.85-34.99 57.97-52.49l1.06 1.85c-28.67 33.11-60.6 72.61-88.76 106.77H802.683c3.927-8.86 36.042-90.64 36.24-93.99 5.737-15.38 19.414-56.35 29.385-63.82 29.114-21.8 31.903-27.97 38.318-63.49.927-5.13 9.389-17.82 11.636-24.36 4.15-12.08 7.045-25.57 9.316-38.29 5.579 4.45 13.247 14.3 17.987 20.13 2.713 4.48 7.064 9.45 11.025 12.88 3.604-4.98 9.424-30.09 11.146-37.03a8264 8264 0 0 0 21.089-86.97c2.917-12.26 8.163-37.46 12.175-48.02 5.38-3.35 13.5-7.46 19.25-10.61 5.37-26.14 11.09-60.02 19.81-84.97 1.09-3.13 8.54-13.43 10.85-16.65-1.33-1.28-2.28-2.18-3.7-3.36-2.24-4.53-4.25-11.94-5.81-16.95 7.83-13.36 21.27-31.15 30.21-45.28-10.85-21.2-30.59-55.19-39.24-74.99 8.61-15.01 17.31-29.96 26.09-44.87-1.89-14.67-5.54-29.69-7.62-44.73"/><path fill="#fefefe" d="M1050.91 1512.81c2.65-3.15 7.64-11.13 10.75-12.52-2.19 7.66-4.36 15.75-6.69 23.32-2.56 11.42-3.51 22.89-6.05 34.02 5.87 4.54 12.02 9.11 17.42 14.17-3.2 13.23-6.67 26.19-9.99 39.36l.4 2.9c5.27 3.46 9.79 4.19 14.41 7.47-5.34 16.79-9.77 23.55-15.61 38.34 6.91 6.12 13.97 12.08 21.16 17.87-1.16 7.04-2.38 12.41-4.11 19.35-.76 1.11-1.97 3.01-2.77 3.97-12.72 13.79-7.23 15.7-14.35 31.92-1.38 3.12-12.89 15.72-16.09 19.74-2.2 14.2-6.12 29.08-7.85 43.01 27.93-7.73 28.73-8.01 50.26-26.82l13.9.14c.87 8.45 1.41 20.99 3.05 28.71-10.03 13-24.74 24.99-32.85 38.23-11.17 15.28-19.78 28.35-29.96 44.27 12.74-12.36 26.04-23.2 38.7-35.15 1.18 2.85 2.32 5.71 3.43 8.59 1.64 8.55 4.66 22.36 5.49 30.51-14.89 14.88-41.31 38.4-59.31 49.57-3.68 2.28-15.58 5.74-20.23 7.14-6.702 19.26-12.829 39.44-23.037 57.04-9.754 16.82-17.59 36.3-31.459 50.04H802.683c3.927-8.86 36.042-90.64 36.24-93.99 5.737-15.38 19.414-56.35 29.385-63.82 29.114-21.8 31.903-27.97 38.318-63.49.927-5.13 9.389-17.82 11.636-24.36 4.15-12.08 7.045-25.57 9.316-38.29 5.579 4.45 13.247 14.3 17.987 20.13 2.713 4.48 7.064 9.45 11.025 12.88 3.604-4.98 9.424-30.09 11.146-37.03a8264 8264 0 0 0 21.089-86.97c2.917-12.26 8.163-37.46 12.175-48.02 5.38-3.35 13.5-7.46 19.25-10.61 5.37-26.14 11.09-60.02 19.81-84.97 1.09-3.13 8.54-13.43 10.85-16.65"/><path fill="#d8832f" d="M927.578 1764.05c5.579 4.45 13.247 14.3 17.987 20.13 2.713 4.48 7.064 9.45 11.025 12.88-16.895 20.88-29.786 51.17-41.092 75.22-5.642 12.32-33.164 27.16-39.741 41.12-4.497 9.55-8.191 24.75-11.091 35.12a996 996 0 0 1-13.147 44.12c-6.579 20.41-14.744 35.86-22.585 55.36h-26.251c3.927-8.86 36.042-90.64 36.24-93.99 5.737-15.38 19.414-56.35 29.385-63.82 29.114-21.8 31.903-27.97 38.318-63.49.927-5.13 9.389-17.82 11.636-24.36 4.15-12.08 7.045-25.57 9.316-38.29"/><path fill="#223442" d="M927.578 1764.05c5.579 4.45 13.247 14.3 17.987 20.13 2.713 4.48 7.064 9.45 11.025 12.88-16.895 20.88-29.786 51.17-41.092 75.22-1.404-9.4 1.874-33.97 1.684-45.74 5.543-7.04 9.703-10.85 16.318-16.92a603 603 0 0 0-5.922-45.57"/><path fill="#65798a" d="M948.715 1917.87c16.645-68.08 22.044-72.9 75.655-119.24-7.9 14.09-16.51 28.09-25.217 41.69-7.542 11.79-5.052 18.44-8.07 30.98 10.147-9.42 18.747-16.73 30.257-24.72-18.84 24.59-39.696 48.53-57.424 73.87-5.171 7.39-7.219 23.85-10.925 32.46-4.873 11.98-16.758 26.99-23.729 38.34-4.641 7.55-24.379 18.63-31.609 26.08-9.591 9.89-12.077 20.59-18.929 30.67h-13.94c7.382-13.7 13.411-26.43 19.344-40.75 3.573-8.62 11.205-17.63 15.11-26.32 5.806-13.04 10.814-27.64 15.738-41.08 10.993-8.11 22.738-14.25 33.739-21.98"/><path fill="#fefefe" d="M866.908 2048c3.956-4.75 6.894-9.03 11.082-13.8-.787 4.61-1.585 9.23-2.609 13.8z"/><path fill="#65798a" d="M1187.18 1648.94c27.53 30.16 64.28 64.89 93.59 93.61l106.26 105.86c-1.49 3.8-4.06 10.71-6.58 13.62-16.46 19.04-36.2 38.37-53.71 56.43-6.8 7.01-30.48 32.5-36.5 37.11-6.59-15.75-15.22-47.02-20.39-63.99l-29.03-92-3.31 7.11c-5.16 4.16-20.87 31.04-27.54 39.14-13.22-47.8-28.91-96.01-42.52-143.97zm-109.11 204.76c12.05 11.98 25.17 41.56 37.66 53.88 3.18 3.12 17.01 9.73 22.09 13.13 4.44 9.17 8.57 20.54 13.06 28.99 18.79 12.24 38.12 24.02 56.54 36.66-8.73-1.73-19.51-3.56-27.86-6.13 5.58 15.9 11.6 30.77 17.75 46.44-1.43 2.35-1.56 2.56-3.4 4.71l1.94 3.15c2.17 3.47 4.87 6.27 7.71 9.15.78 1.75 1.29 2.63 2.24 4.32H949.524c13.869-13.74 21.705-33.22 31.459-50.04 10.208-17.6 16.335-37.78 23.037-57.04 4.65-1.4 16.55-4.86 20.23-7.14 18-11.17 44.42-34.69 59.31-49.57-.83-8.15-3.85-21.96-5.49-30.51"/><path fill="#fefefe" d="M1031.29 2048c20.16-18.05 38.54-36.55 57.68-55.47l.63-.62c.69 4.35 1.15 7.31 3.05 11.28 1.46 16.56-6.52 20.77-13.81 35.24-1.57 3.12-1.4 5.89-2.81 9.57z"/><path fill="#223442" d="M1092.65 2003.19c3.98 1.68 32.86 37.98 39.69 44.81h-56.31c1.41-3.68 1.24-6.45 2.81-9.57 7.29-14.47 15.27-18.68 13.81-35.24"/><path fill="#d8832f" d="M1089.6 1991.91c13.91 7.31 50.41 44.06 62.64 56.09h-19.9c-6.83-6.83-35.71-43.13-39.69-44.81-1.9-3.97-2.36-6.93-3.05-11.28m86.73 56.09c3.25-3.17 14.89-17.36 17.58-16.62l1.94 3.15c2.17 3.47 4.87 6.27 7.71 9.15.78 1.75 1.29 2.63 2.24 4.32z"/><path fill="#65798a" d="M1069.83 1701.06c8.32 12.8 15.89 27.77 24.32 41.31 4.97-4.92 12.14-12.46 17.31-16.79 5.72 22.51 10.27 52.76 14.42 76.24-6.84-8.39-12.7-14.58-20.16-22.36l-.94 1.74c7.88 9.08 30.7 38.57 34.87 49.03 9.04 22.68 19.22 58.32 25.12 81.9l-2.09 2.82c-8.83-13.88-32.62-44.71-43.21-57.38-16.58-6.06-38.05-13.5-53.57-21.58 8.11-13.24 22.82-25.23 32.85-38.23-1.64-7.72-2.18-20.26-3.05-28.71l-13.9-.14c-21.53 18.81-22.33 19.09-50.26 26.82 1.73-13.93 5.65-28.81 7.85-43.01 3.2-4.02 14.71-16.62 16.09-19.74 7.12-16.22 1.63-18.13 14.35-31.92"/><path fill="#46525d" d="M1104.78 1781.2c-1.25-1.4-6.58-7.05-6.82-8.62 1.67-1.28 6.94 5.86 7.76 6.88z"/><path fill="#d8832f" d="M1048.92 1557.63c2.54-11.13 3.49-22.6 6.05-34.02 3.02 14.72 9.32 25.18 13.65 38.41 4.29 13.09-6.34 10.68 10.07 24.2-5.66 8.32-13.44 17.03-20.02 24.81 2.45 1.15 8.46 3.91 10.08 5.69 9.86 10.87 20.13 34.24 25.68 47.71-3.65 5.69-17.9 28.77-21.83 32.66 1.73-6.94 2.95-12.31 4.11-19.35a591 591 0 0 1-21.16-17.87c5.84-14.79 10.27-21.55 15.61-38.34-4.62-3.28-9.14-4.01-14.41-7.47l-.4-2.9c3.32-13.17 6.79-26.13 9.99-39.36-5.4-5.06-11.55-9.63-17.42-14.17m161.05 288.2c6.67-8.1 22.38-34.98 27.54-39.14-.98 2.6-1.76 5.14-2.75 7.76l-18.69 51.01c-.43-1.13-.85-2.25-1.28-3.38a94.4 94.4 0 0 1-3.93-13.57c-.25-1.17-.45-1.59-.89-2.68m92.57 147.86c5.39-4.12 27.28-21.67 32.55-22.5-4.02 7.36-21.17 26.68-27.93 35.92-1.49-4.49-3.03-8.97-4.62-13.42"/><path fill="#e29237" d="M1047.21 1509.45c7.3-7.69 13.49-16.66 19.83-25.16-1.4 4.92-3.26 11.41-5.38 16-3.11 1.39-8.1 9.37-10.75 12.52-1.33-1.28-2.28-2.18-3.7-3.36"/><path fill="#5a7081" d="M1197.31 2026.67c2.18 4.81 5.34 11.91 6.25 17.01-2.84-2.88-5.54-5.68-7.71-9.15l-1.94-3.15c1.84-2.15 1.97-2.36 3.4-4.71m-32.54-114.54c.23.92 1.33 4.29.83 5.26-.85.53-2.53-1.99-2.92-2.44z"/><path fill="#fefefe" d="M627.322 1647c18.712-12.05 38.718-28.24 56.162-42.47 24.047-19.61 52.263-38.52 75.24-58.86 61.822-54.73 123.384-109.66 186.062-163.41 15.155-12.99 30.46-29.54 44.879-43.6a3768 3768 0 0 1 59.395-56.12l1.78.09c2.08 15.04 5.73 30.06 7.62 44.73-8.78 14.91-17.48 29.86-26.09 44.87 8.65 19.8 28.39 53.79 39.24 74.99-8.94 14.13-22.38 31.92-30.21 45.28 1.56 5.01 3.57 12.42 5.81 16.95 1.42 1.18 2.37 2.08 3.7 3.36-2.31 3.22-9.76 13.52-10.85 16.65-8.72 24.95-14.44 58.83-19.81 84.97-5.75 3.15-13.87 7.26-19.25 10.61-4.012 10.56-9.258 35.76-12.175 48.02a8264 8264 0 0 1-21.089 86.97c-1.722 6.94-7.542 32.05-11.146 37.03-3.961-3.43-8.312-8.4-11.025-12.88-4.74-5.83-12.408-15.68-17.987-20.13-2.271 12.72-5.166 26.21-9.316 38.29-2.247 6.54-10.709 19.23-11.636 24.36-6.415 35.52-9.204 41.69-38.318 63.49-9.971 7.47-23.648 48.44-29.385 63.82-6.487-7.71-12.212-14.6-19.342-21.78-3.511 2.1-7.476 4.02-11.142 5.88-4.952-11.68-10.648-32.37-15.452-45.78-9.484 12.85-23.294 36.9-31.973 51.35l-35.044-94.61c-6.816-18.76-14.331-38.66-19.581-57.79l124.035-146.44c18.454-21.75 37.445-45.78 56.723-66.6l-1.088-2.32a4103 4103 0 0 0-89.87 80.79c-11.321 10.42-34.085 32.6-45.464 40.72-9.625 6.87-41.008 22.03-52.856 27.82-10.203 16.69-20.592 33-29.517 50.4-12.089-42.61-28.287-85.79-41.03-128.65"/><path fill="#d8832f" d="M1032.37 1372.23c8.65 19.8 28.39 53.79 39.24 74.99-8.94 14.13-22.38 31.92-30.21 45.28 1.56 5.01 3.57 12.42 5.81 16.95 1.42 1.18 2.37 2.08 3.7 3.36-2.31 3.22-9.76 13.52-10.85 16.65-8.72 24.95-14.44 58.83-19.81 84.97-5.75 3.15-13.87 7.26-19.25 10.61-4.012 10.56-9.258 35.76-12.175 48.02a8264 8264 0 0 1-21.089 86.97c-1.722 6.94-7.542 32.05-11.146 37.03-3.961-3.43-8.312-8.4-11.025-12.88 1.935-3.17 8.087-26.03 9.322-30.51l24.535-91.98c3.093-11.73 8.213-34.57 12.354-45.03 8.414-4.51 13.284-7.55 21.064-13.07 3.12-12.18 6.49-30.07 10.05-41.12-5.65-19.01-11.97-36.68-18.49-55.41 3.45-7.07 11.94-19.73 16.56-27.06l29.23-46.41c-5.3-17.72-14.69-36.9-19.54-55.02-.94-3.5 0-3.89 1.72-6.34"/><path fill="#65798a" d="M886.059 1575.92c1.069-1.03 9.266-9.53 10.178-8.31-.089.9-8.044 9.5-9.09 10.63z"/><path fill="#223442" d="M473.432 1340.05a1248 1248 0 0 1 43.732 83.97l12.625-12.16c1.855 5.18 4.038 10.88 5.614 16.11 1.984 13.29 9.951 38.53 13.552 52.51l5.958 18.51c-1.371 3.85-2.945 8.73-4.449 12.42 10.415 30.03 18.672 62.26 27.99 92.77 3.954 12.94 7.961 30.99 13.116 43.37 9.59-11 14.771-22.29 22.807-32.38l1.57-2.33c2.96 2.36 7.576 22.93 10.112 29.34l1.263 4.82c12.743 42.86 28.941 86.04 41.03 128.65 8.925-17.4 19.314-33.71 29.517-50.4 11.848-5.79 43.231-20.95 52.856-27.82 11.379-8.12 34.143-30.3 45.464-40.72a4103 4103 0 0 1 89.87-80.79l1.088 2.32c-19.278 20.82-38.269 44.85-56.723 66.6l-124.035 146.44c5.25 19.13 12.765 39.03 19.581 57.79l35.044 94.61c8.679-14.45 22.489-38.5 31.973-51.35 4.804 13.41 10.5 34.1 15.452 45.78 3.666-1.86 7.631-3.78 11.142-5.88 7.13 7.18 12.855 14.07 19.342 21.78-.198 3.35-32.313 85.13-36.24 93.99h-370.75c19.905-28.25 39.486-58.93 59.283-87.74-5.923-20.44-12.906-44.05-19.876-64.04 4.634-9.48 16.503-27.8 22.379-37.51-3.212-7.87-11.19-22.7-9.373-29.7 3.442-4.53 12.377-20.56 14.917-25.53-.183-6.5-.564-11.43-1.248-17.9l-.79-3.25c8.216 3.89 46.748 42.43 58.912 52.49 6.509-5.86 22.061-21.42 29.907-22.55-.336-3.19-14.873-37.61-17.636-46.45l9.263 1.33c2.939-.39 5.253-.51 8.07-1.5l-43.657-27.96c-2.847-6.96-5.555-14.26-8.273-21.3-7.002-5.29-13.504-7.41-20.47-14.3-12.047-11.92-19.081-30.96-30.724-43.28-1.243-4.41-.435-4.16-3.293-6.76-5.971.36-16.625 12.17-21.979 16.95l-3.038-1.5q8.837-14.025 17.27-28.29c5.902-9.27 19.353-23.83 26.857-32.33l-4.122-25.92-11.55.16c-17.826 16.53-19.377 18.76-42.93 25.66 3.163-13.68 3.138-30.44 7.779-42.32.997-2.55 12.277-13.01 13.834-17.51 4.327-12.53 1.75-14.79 9.86-25.73l8.451-13.77c-1.079-5.42-2.196-8-4.98-12.88 1.041-4.76 4.168-15.78 2.21-19.91l-1.234-.93c-7.169-5.52-13.79-4.19-13.936-11.88.288-4.88 1.26-8.09 2.409-12.83l1.466-6.04c1.334-5.61 2.607-10.76 4.121-16.34-5.098-5.55-7.265-7.6-11.533-13.79-.659-8.57-.91-23.62.558-32.11-.164-4.9 9.315-27.58 11.544-33.54.895-1.66 2.265-5.27 3.051-7.15"/><path fill="#65798a" d="M439.832 1606.78c3.163-13.68 3.138-30.44 7.779-42.32.997-2.55 12.277-13.01 13.834-17.51 4.327-12.53 1.75-14.79 9.86-25.73 9.139 11.72 13.898 23.11 20.235 36.46q8.058-7.365 15.923-14.94c4.262 22.02 9.05 44.42 12.821 66.45-6.067-6.88-12.418-14.38-18.595-21.08l-.971 2.02c8.077 10.14 30.704 36.95 34.233 47.28 8.072 23.63 15.694 50.03 23.092 74.01-13.575-16.11-28.533-35.85-41.353-52.74-12.44-4.66-36.571-11.54-45.113-19.47 5.902-9.27 19.353-23.83 26.857-32.33l-4.122-25.92-11.55.16c-17.826 16.53-19.377 18.76-42.93 25.66"/><path fill="#223442" d="M500.718 1590.13c-.779-1.05-4.082-4.62-4.066-5.55.143-.25.032-.13.373-.34l.892.39-.538.63.553-.73c1.408.96 2.586 2.34 3.757 3.58z"/><path fill="#d8832f" d="M493.719 1858.71c-3.212-7.87-11.19-22.7-9.373-29.7 6.298 11.57 15.494 26.76 19.778 38.69-5.642 7.28-10.159 13.76-15.322 21.33 7.521 23.61 13.534 59 19.926 84.7-21.288 25.07-41.282 49.64-63.187 74.27h-13.608c19.905-28.25 39.486-58.93 59.283-87.74-5.923-20.44-12.906-44.05-19.876-64.04 4.634-9.48 16.503-27.8 22.379-37.51m3.506-76.38c8.216 3.89 46.748 42.43 58.912 52.49 6.509-5.86 22.061-21.42 29.907-22.55 5.254 14.26 32.364 43.09 43.501 55.38l-2.724 1.39c-13.11-13.05-26.723-26.78-41.728-37.62-4.7 8.31-10.462 17.93-14.606 26.39 8.389 11.5 17.946 21.42 26.878 32.39 29.966 36.78 63.53 69.78 97.59 102.73 3.2 3.1 6.91 6.78 10.279 9.62l-1.439 1.83c-21.039-19.43-45.591-38.73-65.674-58.31-11.925-11.63-29.539-32.83-41.346-45.8l-66.475-71.82c-11.931-13.12-22.745-32.8-32.285-42.87zm-38.388-401.59c4.297 6.43 12.37 27.41 13.834 35.27.273 1.46.219 11.84.28 14.48 2.336 2.27 4.615 4.24 7.021 6.41-2.782 4.63-13.981 22.73-17.213 25.4l-.943-.45c.288-4.88 1.26-8.09 2.409-12.83l1.466-6.04c1.334-5.61 2.607-10.76 4.121-16.34-5.098-5.55-7.265-7.6-11.533-13.79-.659-8.57-.91-23.62.558-32.11"/><path fill="#d8832f" d="m461.816 1461.85.943.45c5.73 5.66 11.524.29 18.109 11.27.965 2.37 1.415 2.82 2.849 5.05a100 100 0 0 1 6.332 11.59c-2.569 4.94-7.108 12.84-10.293 17.24-1.079-5.42-2.196-8-4.98-12.88 1.041-4.76 4.168-15.78 2.21-19.91l-1.234-.93c-7.169-5.52-13.79-4.19-13.936-11.88m152.561 153.32c-.86 4.22-.926 3.85-2.326 7.83-5.193 14.78-8.71 29.89-13.797 44.86-1.861-6.58-5.305-14.54-6.684-20.31 9.59-11 14.771-22.29 22.807-32.38"/><path fill="#7d644a" d="M629.545 1867.65c2.464 2.51 17.622 18.69 16.945 20.78-1.492-.16-17.304-16.85-19.669-19.39zm75.689 134.9c7.064 6.03 12.921 12.21 19.217 18.96-6.777-4.49-15.064-11.24-20.656-17.13z"/><path fill="#5a7081" d="m585.741 1765.65 1.405.87c.827.5 1.77.93 2.14 1.88-.463 1.46-10.263-.95-11.615-1.25 2.939-.39 5.253-.51 8.07-1.5"/><path fill="#d8832f" d="M692.416 1763.83c1.429 7.52-10.189 29.94-11.899 38.27-.137.66-.845 4.27-2.115 4.41-.577-.27-.81-1.13-1.069-1.73a625 625 0 0 1-5.908-18.21c6.363-7.09 14.405-15.78 20.991-22.74"/><path fill="#fefefe" d="m175.864 1732.11.722 1.14c1.33 6.81 1.629 10.21 2.06 17.14a537 537 0 0 1-14.434 22.47c-.458 6.18 6.642 22.18 9.324 28.8-5.734 11.25-15.008 21-21.574 31.94 5.01 19.14 12.059 38.62 17.632 57.94-8.231 16.9-18.414 29.2-27.919 44.51-16.307 26.26-38.281 56.5-52.91 83.22l-10.603-11c-14.81 12.76-28.71 27.48-43.64 39.73H0v-161.85c10.267-7.43 20.543-14.98 30.149-23.26 38.373-33.08 76.297-66.68 113.996-100.53 10.873-9.76 20.778-20.56 31.719-30.25"/><path fill="#223442" d="m92.405 1874.38.962 1.81a4454 4454 0 0 1-71.777 86.22c-7.265 8.64-14.405 18.27-21.59 26.64v-28.77c6.601-8.4 11.13-17.95 18.16-25.55 4.125-4.46 15.522-6.94 20.263-11.02 18.399-15.82 35.804-33.23 53.982-49.33"/><path fill="#46525d" d="m98.626 1868.72.504 1.59c-2.142 1.9-3.753 3.82-5.763 5.88l-.962-1.81c1.961-2.14 4.064-3.59 6.221-5.66"/><path fill="#d8d9db" d="M98.626 1868.72c7.044-8.55 8.676-5.5.504 1.59z"/><path fill="#65798a" d="M482.617 1658.81c11.643 12.32 18.677 31.36 30.724 43.28 6.966 6.89 13.468 9.01 20.47 14.3 2.718 7.04 5.426 14.34 8.273 21.3l43.657 27.96c-2.817.99-5.131 1.11-8.07 1.5l-9.263-1.33c2.763 8.84 17.3 43.26 17.636 46.45-7.846 1.13-23.398 16.69-29.907 22.55-12.164-10.06-50.696-48.6-58.912-52.49-52.589 53.26-112.885 103.86-169.322 153.27-14.453 12.66-32.683 24.32-47.924 36.43l-2.479-.35c26.356-23.76 45.339-49.1 60.86-81.35 3.129-6.5 2.864-19.47 6.409-25.35 7.693-12.75 27.529-28.85 35.374-40.34 18.801-27.56 29.38-60.36 41.7-90.03 25.519-10.74 46.655-31.71 65.715-51.82-2.047-6.83-4.07-16.91-4.941-23.98"/><path fill="#223442" d="M176.586 1733.25c5.791 2.28 21.911 24.32 27.227 29.9 17.597 18.47 35.275 40.2 53.972 57.37-3.433 8.43-13.988 37.47-17.759 42.7-13.007 18.06-31.921 38.36-46.491 55.7L131.726 1992c-14.294 16.82-34.226 40.37-49.516 56H34.522c14.93-12.25 28.83-26.97 43.64-39.73l10.603 11c14.629-26.72 36.603-56.96 52.91-83.22 9.505-15.31 19.688-27.61 27.919-44.51-5.573-19.32-12.622-38.8-17.632-57.94 6.566-10.94 15.84-20.69 21.574-31.94-2.682-6.62-9.782-22.62-9.324-28.8a537 537 0 0 0 14.434-22.47c-.431-6.93-.73-10.33-2.06-17.14"/><path fill="#d8832f" d="M164.212 1772.86c6.448 5.42 15.297 26.22 19.932 34.83-4.493 6.09-11.174 14.57-14.676 20.97 7.158 24.18 10.031 52.92 17.976 76.82l-61.713 74.28c-4.665 5.73-31.522 40.48-35.108 41.98-1.334-1.32-1.275-.88-1.858-2.47 14.629-26.72 36.603-56.96 52.91-83.22 9.505-15.31 19.688-27.61 27.919-44.51-5.573-19.32-12.622-38.8-17.632-57.94 6.566-10.94 15.84-20.69 21.574-31.94-2.682-6.62-9.782-22.62-9.324-28.8"/><path fill="#d8832f" d="M426.488 1440.71c5.26-18.55 9.326-42.56 15.204-60.4 2.66-8.07 23.871-33.81 30.566-41.07l1.174.81c-.786 1.88-2.156 5.49-3.051 7.15-3.266 1.22-23.986 32.58-25.068 36.52-7.233 26.28-13.69 56.83-18.652 83.51-4.817 2.59-9.993 5.24-14.722 7.92-9.877 30.47-17.037 65.2-26.594 96.02-3.035 9.8-6.686 27.48-10.695 36.09-1.869 5.29-5.589 11.94-7.935 17.15-4.671 10.37-20.443 50.31-25.798 57.48-4.039 3.99-22.009 19.57-23.215 22.78-17.132 45.59-25.795 93.21-48.713 136.97-5.086 9.71-8.944 21.33-14.292 31.05-7.361 11.25-15.98 24.07-24.501 34.47-10.854 13.25-21.236 31.45-32.582 43.58-29.28 31.31-59.128 68.23-90.277 97.26H82.21c15.29-15.63 35.222-39.18 49.516-56l61.809-73.08c14.57-17.34 33.484-37.64 46.491-55.7 3.771-5.23 14.326-34.27 17.759-42.7-18.697-17.17-36.375-38.9-53.972-57.37-5.316-5.58-21.436-27.62-27.227-29.9l-.722-1.14 2.015-1.55c5.557 2.51 46.204 41.66 53.543 48.51l22.322-24.21c3.81 4.5 7.896 9.54 11.788 13.89l8.211 12.52c9.762-26.31 19.808-57.77 32.525-82.63 1.759-3.44 11.072-14.16 14.183-17.91 4.922-8.22 8.89-24.66 13.38-34.27 1.972-6.18 11.469-19.27 12.11-24.97 1.738-15.49 1.399-35.46 2.191-50.89 7.812 9.36 14.943 18.42 23.009 27.77 11.812-47.65 23.947-95.23 36.405-142.71 4.582-4.36 13.663-10.9 18.942-14.95"/><path fill="#223442" d="m345.108 1639.88.856-1.23c2.965-4.33 25.07-30.64 28.686-31.39-1.869 5.29-5.589 11.94-7.935 17.15-4.671 10.37-20.443 50.31-25.798 57.48.551-13.97 4.44-26.23 4.2-41.11zm-89.535 133.65c5.733 4.1 9.688 8.5 16.27 12.99-3.574 9.85-8.715 19.54-11.89 28.87-5.585-5.2-12.977-12.87-18.149-18.4q6.956-11.685 13.769-23.46m43.625 262.21c5.869-7.99 21.983-31.06 29.025-35.19 8.482-4.96 14.118-5.22 24.078-13.97 16.506-14.5 32.216-30.4 48.997-44.44l1.972 1.25a3213 3213 0 0 0-60.527 71.52c-8.279 10.04-19.61 22.78-26.852 33.09H207.424c15.186-9.69 51.371-25.48 68.758-34.11 7.592 6.71 15.639 14.77 23.016 21.85m-48.937-48.7.855 2.18c-17.559 17.15-36.975 40.26-55.196 58.78h-29.621c24.411-12.27 30.396-17.82 51.251-34.91 10.732-8.9 21.638-17.58 32.711-26.05"/><path fill="#d8d9db" d="M279.979 1972.03c-.84.84-9.38 9.81-10.784 7.76.458-3 5.305-5.36 8.305-8.11z"/><path fill="#aeb0b8" d="M409.89 1933.55c1.364-1.51 7.126-8.67 9.249-7.81.158 1.43-7.978 9.25-9.137 10.43z"/><path fill="#46525d" d="m454.307 1667.5 3.038 1.5c-3.514 3.48-6.902 6.92-10.584 10.23 2.52-3.9 5.004-7.87 7.546-11.73m-44.417 266.05.112 2.62c-2.293 2.37-4.398 4.81-6.732 7.22l-1.972-1.25c2.809-3.02 5.75-5.6 8.592-8.59"/><path fill="#65798a" d="M261.736 1978.44a160 160 0 0 1-10.62 10.78l-.855-2.18c3.606-3.39 7.416-5.78 11.475-8.6m111.925-263.75c1.9-9.29 2.982-21.75 5.418-30.37 8.648-30.63 30.899-56.5 55.693-75.46-15.43 25.02-22.137 36.58-26.825 64.32 6.339-7.05 13.188-13.7 19.916-20.39l1.537 1.32c-6.897 10.02-14.044 20.21-20.816 30.15-5.903 8.66-18.151 21.36-21.831 30.56-8.777 21.96-11.24 41.33-26.404 61.05-7.797 10.14-14.325 14.25-24.296 22.27-8.161 7.67-14.218 19.7-19.627 29.56-.825-1.96-1.336-3.57-1.998-5.58l-1.043-.44c-4.158 4.43-7.018 9.42-10.302 14.55l-1.677-.59c7.202-14.52 13.488-28.55 19.928-43.39 3.241-7.47 11.173-19.07 13.7-26.21 3.862-10.9 5.958-21.11 10.269-32.33 8.962-6.76 18.898-12.91 28.358-19.02"/><path fill="#aeb0b8" d="m301.406 1835.64 1.677.59c-.707 1.65-10.436 17.96-11.554 19.03-.684-1.44 8.548-17.82 9.877-19.62"/><path fill="#788697" d="M314.428 1822.12c.662 2.01 1.173 3.62 1.998 5.58-.978 2.59-4.137 8.06-5.607 10.69 1.728-6.42 2.919-9.7 3.609-16.27"/><path fill="#aeb0b8" d="M427.863 1652.79c3.283-3.72 3.921-3.11 1.537 1.32z"/><path fill="#223442" d="M1023 368.086c25.44 57.282 54.68 111.307 82.07 167.256 7.25-7.876 16.84-18.861 24.33-26.105l35.94 134.031c6.25 23.518 12.49 51.218 19.59 73.829-2.81 8.116-5.62 16.604-8.59 24.629 11.23 34.62 21.6 75.19 31.51 110.606l48.73 171.948c3.09-4.15 11.95-25.255 15.42-31.801 11.55-21.831 22.37-44.62 34.26-66.272 2.69 1.389 2.98 5.146 4.2 8.908 11.14 34.401 20.79 69.245 31.3 103.845l48.88 158.69c10.89 35.76 21.76 73.19 33.51 108.61 8.44-13.11 17.24-25.09 27.04-37.18 4.57-5.64 10.89-15.22 15.3-20.13l1.22-1.28c5.15 6.02 68.81 211.3 78.42 235.63 10.03-25.89-.54-22.63 25.99-43.16 6-20.93 10.39-44.4 18.22-64.36 2.16-5.49 23.56-33.22 27.8-36.41l1.93.32-2.44 4.4c-5.51 4.82-9.87 12.52-14.25 18.47-22.26 30.29-19.18 72.62-32.35 106.84-5.06 3.16-8.31 5.13-13.71 7.78-9.41 31.85-17.23 63.52-26.02 95.49-1.69 6.14-8.86 32.01-11.47 36.42a965 965 0 0 0-30.41 65.14c-3.34 10.27-26.27 22.39-29.45 32.33-13.95 43.5-22.49 86.83-45.22 127.09-5.63 9.99-10.54 23.69-16.88 33.66-25.9 31.46-52.46 63.07-79.22 93.85-5.64 6.49-13.48 16.57-19.59 21.89-.34-3.36-7.38-23.25-8.82-27.48 6.02-4.61 29.7-30.1 36.5-37.11 17.51-18.06 37.25-37.39 53.71-56.43 2.52-2.91 5.09-9.82 6.58-13.62 6.25-17.31 16.08-38.98 23.29-56.31l37.23-89.51c-11.3-8.55-31.9-28.86-44.06-39.5-23.04-20.17-48.52-42.02-70.58-63.03-12.46-11.86-29.22-31.61-41.26-44.72-25.54-27.48-50.9-55.12-76.08-82.93l-61.43-66.55c-10.58-11.25-28.4-28.76-37.76-40.2-21.81-26.67-42.89-56.87-65.54-83.03l-1.78-.09c-20 18.49-39.8 37.2-59.395 56.12-14.419 14.06-29.724 30.61-44.879 43.6-62.678 53.75-124.24 108.68-186.062 163.41-22.977 20.34-51.193 39.25-75.24 58.86-17.444 14.23-37.45 30.42-56.162 42.47l-1.263-4.82c-2.536-6.41-7.152-26.98-10.112-29.34l-1.57 2.33c-8.036 10.09-13.217 21.38-22.807 32.38-5.155-12.38-9.162-30.43-13.116-43.37-9.318-30.51-17.575-62.74-27.99-92.77 1.504-3.69 3.078-8.57 4.449-12.42l-5.958-18.51c5.463-17.7 17.628-39.69 25.799-57.04 13.89-29.49 27.248-60.2 42.377-88.98 10.502-19.98 13.89-38.19 20.068-59.48a8432 8432 0 0 0 27.088-92.96c1.584-5.48 11.301-40.62 13.673-44.23 13.357-18.06 33.278-31.99 49.374-47.69 5.721-5.58 12.573-10.2 16.447-17.22 11.539-19.45 18.389-49.14 29.918-69.62 13.952-24.783 29.811-48.32 43.625-73.152 15.633-49.77 28.353-108.544 41.463-159.256 12.536-48.492 24.736-98.139 34.835-147.16a243 243 0 0 0 31.73-18.521c9.833-31.08 16.576-67.063 24.713-98.752 2.767-10.777 7.639-36.543 11.995-45.224 6.234-12.423 21.793-29.543 30.357-41.888 5.287-7.623 16.733-27.365 22.083-33.077l2.38-4.207z"/><path fill="#fefefe" d="M925.352 605.171c9.833-31.08 16.576-67.063 24.713-98.752 2.767-10.777 7.639-36.543 11.995-45.224 6.234-12.423 21.793-29.543 30.357-41.888 5.287-7.623 16.733-27.365 22.083-33.077-4.18 10.847-25.574 61.243-26.766 69.416-2.215 14.665-4.062 30.904-7.407 45.146 10.788 9.011 19.923 20.014 29.953 29.948-2.31 9.47-19.989 70.31-18.407 74.661.053.146.203.237.304.356 3.386.954 5.569 1.566 8.773 2.999 5.26 2.858 10.97 5.695 16.62 7.666.48 8.176-22.698 60.397-27.099 70.948 11.599 9.229 26.419 20.388 37.349 30.052a334 334 0 0 1-6.07 36.378l-4.96 6.389c-3.66 4.285-9.52 10.859-12.25 15.62-6.838 11.923-8.588 34.129-15.167 45.601-5.965 10.401-21.618 26.601-29.973 36.291-4.556 25.321-9.408 52.819-12.838 78.277 8.352-2.677 37.23-11.793 43.454-15.131 10.554-5.659 31.664-26.968 41.924-36.047 7.84.019 25.47-2.249 29.71 4.095 1.36 16.772 1.53 32.476 3.49 49.276-11.64 13.842-23.44 26.74-35.5 40.154-6.09 6.771-16.88 18.332-21.74 25.595-16.276 22.49-32.942 49.81-48.502 73.37l1.895 1.01c19.664-17.53 42.397-37.35 62.407-54.54 1.98 4.96 3.64 8.78 4.92 14 3.23 18.13 8.8 35.66 12.84 53.64a6255 6255 0 0 0-64.818 56.01c-6.944 6.1-27.812 25.26-34.802 29.68-7.783 4.91-31.489 12.35-41.628 17.08-9.3 25.02-17.456 54.45-27.377 78.32-7.135 17.16-26.497 45.03-35.481 62.86-4.346 8.63-17.679 32.9-22.964 39-24.329 28.08-58.49 57.19-82.876 84.26-1.262 6.42-7.392 42.56-9.202 45.95-17.956 33.69-41.015 71.89-62.055 103.65-3.386 5.11-29.306 29.68-34.198 33.97-2.536-6.41-7.152-26.98-10.112-29.34l-1.57 2.33c-8.036 10.09-13.217 21.38-22.807 32.38-5.155-12.38-9.162-30.43-13.116-43.37-9.318-30.51-17.575-62.74-27.99-92.77 1.504-3.69 3.078-8.57 4.449-12.42l-5.958-18.51c5.463-17.7 17.628-39.69 25.799-57.04 13.89-29.49 27.248-60.2 42.377-88.98 10.502-19.98 13.89-38.19 20.068-59.48a8432 8432 0 0 0 27.088-92.96c1.584-5.48 11.301-40.62 13.673-44.23 13.357-18.06 33.278-31.99 49.374-47.69 5.721-5.58 12.573-10.2 16.447-17.22 11.539-19.45 18.389-49.14 29.918-69.62 13.952-24.783 29.811-48.32 43.625-73.152 15.633-49.77 28.353-108.544 41.463-159.256 12.536-48.492 24.736-98.139 34.835-147.16a243 243 0 0 0 31.73-18.521"/><path fill="#65798a" d="M961.293 1078.3c-.756.77-3.423 3.93-4.633 3.79-.588-1.2 2.14-4.05 2.738-4.8zm-156.764 72.42c7.429-42.28 12.828-71.92 35.041-108.41 3.09-5.08 9.567-22.69 13.064-26.11 26.618-26.078 54.789-54.452 83.258-78.468-15.54 26.755-38.687 61.902-51.903 90.388-1.991 4.29-4.854 33.17-5.467 39.79 15.331-14.88 33.71-30.87 49.949-44.59l1.065 2.11a4847 4847 0 0 0-75.05 96.31c-3.808 4.98-24.255 30.6-25.983 34.27-6.318 13.44-13.05 43.24-18.479 57.99-7.814 21.24-27.676 49.26-39.1 68.8-4.434 7.58-51.015 38.89-58.098 47.81-12.56 15.83-26.971 44.01-37.554 62.11-.349.95-.699 2.63-1.792 3.04-1.204-.89-.231-5.95-.077-7.08l5.812-26.12c-14.805 20.11-31.501 45.51-45.078 66.69l-1.668-.66 28.387-53.15c3.665-6.76 15.836-26.36 17.349-31.52 7.336-24.98 18.342-42.45 32.529-64.29 3.054-4.71 8.269-13.38 10.152-18.76 8.173-23.33 15.142-47.16 22.892-70.68 16.065-11.63 43.127-27.88 60.751-39.47"/><path fill="#788697" d="M675.272 1392.72c-.349.95-.699 2.63-1.792 3.04-1.204-.89-.231-5.95-.077-7.08z"/><path fill="#aeb0b8" d="m632.469 1428.59 1.668.66c-1.712 3.39-4.935 7.88-7.644 10.61 1.383-3.34 3.915-8.36 5.976-11.27m296.002-405.27c.887-.92 4.35-4.48 5.733-3.92.322 1.49-3.647 5.05-4.668 6.03z"/><path fill="#d8d9db" d="M624.576 1442.93c.001-2.01.161-2.17 1.917-3.07-.277 1.65-.345 2.42-1.917 3.07"/><path fill="#65798a" d="M1028.62 1037.76c10.55 11.38 35.79 53.44 44.1 68.31 20.92 37.42 29.8 32.31 62.89 53.68 6.72 15.99 11.79 33.35 18.61 48.42 29.06 18.35 69.56 42.02 95.94 61.87-15.26-2.68-31.21-5.74-46.46-8.07 9.73 28.85 26.88 60.41 37.99 89.34 3.04 7.93 10 21.44 11.79 28.83-7.19-6.51-26.34-33.71-35.6-43.97-16.39 16.44-36.47 35.96-51.61 53.25l-63.19-61.04c-10.69-10.42-40.49-41.44-51.09-47.06l-1.15 1.31-1.78-.09c-20 18.49-39.8 37.2-59.395 56.12-14.419 14.06-29.724 30.61-44.879 43.6-62.678 53.75-124.24 108.68-186.062 163.41-22.977 20.34-51.193 39.25-75.24 58.86-17.444 14.23-37.45 30.42-56.162 42.47l-1.263-4.82c4.892-4.29 30.812-28.86 34.198-33.97 21.04-31.76 44.099-69.96 62.055-103.65 1.81-3.39 7.94-39.53 9.202-45.95 24.386-27.07 58.547-56.18 82.876-84.26 5.285-6.1 18.618-30.37 22.964-39 8.984-17.83 28.346-45.7 35.481-62.86 9.921-23.87 18.077-53.3 27.377-78.32 10.139-4.73 33.845-12.17 41.628-17.08 6.99-4.42 27.858-23.58 34.802-29.68a6255 6255 0 0 1 64.818-56.01c-4.04-17.98-9.61-35.51-12.84-53.64"/><path fill="#d8832f" d="m1050.84 1282.63 1.15-1.31c10.6 5.62 40.4 36.64 51.09 47.06l63.19 61.04c15.14-17.29 35.22-36.81 51.61-53.25 9.26 10.26 28.41 37.46 35.6 43.97 4.03 7.67 21.19 25.62 27.52 32.62 20.64 22.92 41.57 45.57 62.79 67.96l-3.01 1.27c-32.21-32.17-67.85-62.62-100.94-94.03-4.7-4.46-10.27-9.68-15.23-13.78-7.35 14.92-17.71 38.34-25.24 51.79 32.56 41.65 67.62 81.34 101.06 122.2 25.38 31.03 52.79 57.05 81.07 85.35 22.4 22.42 43.63 45.74 66.95 67.34l.85-1.21c6.84-9.54 17.5-17.95 22.67-26.89 4.67-8.09 8.03-25.47 11.89-34.64 4.13-9.81 10.85-19.16 15.84-28.56-2.91-10.8-4.45-21.71-6.23-32.74l24.1 27.53 20.39-85.62c1.22-5.15 7.93-31.79 8.17-35.43 10.03-25.89-.54-22.63 25.99-43.16 6-20.93 10.39-44.4 18.22-64.36 2.16-5.49 23.56-33.22 27.8-36.41l1.93.32-2.44 4.4c-5.51 4.82-9.87 12.52-14.25 18.47-22.26 30.29-19.18 72.62-32.35 106.84-5.06 3.16-8.31 5.13-13.71 7.78-9.41 31.85-17.23 63.52-26.02 95.49-1.69 6.14-8.86 32.01-11.47 36.42a965 965 0 0 0-30.41 65.14c-3.34 10.27-26.27 22.39-29.45 32.33-13.95 43.5-22.49 86.83-45.22 127.09-5.63 9.99-10.54 23.69-16.88 33.66-25.9 31.46-52.46 63.07-79.22 93.85-5.64 6.49-13.48 16.57-19.59 21.89-.34-3.36-7.38-23.25-8.82-27.48 6.02-4.61 29.7-30.1 36.5-37.11 17.51-18.06 37.25-37.39 53.71-56.43 2.52-2.91 5.09-9.82 6.58-13.62 6.25-17.31 16.08-38.98 23.29-56.31l37.23-89.51c-11.3-8.55-31.9-28.86-44.06-39.5-23.04-20.17-48.52-42.02-70.58-63.03-12.46-11.86-29.22-31.61-41.26-44.72-25.54-27.48-50.9-55.12-76.08-82.93l-61.43-66.55c-10.58-11.25-28.4-28.76-37.76-40.2-21.81-26.67-42.89-56.87-65.54-83.03"/><path fill="#223442" d="M1492.22 1638.05c4.69-6.4 20.48-27.99 27.61-28.96a965 965 0 0 0-30.41 65.14c-1.15-9.09 1.96-26.18 2.8-36.18"/><path fill="#65798a" d="M1016.79 760.189a2866 2866 0 0 1 39.07 76.196c12.55-10.8 22.4-20.443 34.37-31.581 6.44 42.903 12.51 94.536 20.59 136.029-8.12-9.537-39.39-46.163-47.59-52.411l-1.58.473c-4.24-6.344-21.87-4.076-29.71-4.095-10.26 9.079-31.37 30.388-41.924 36.047-6.224 3.338-35.102 12.454-43.454 15.131 3.43-25.458 8.282-52.956 12.838-78.277 8.355-9.69 24.008-25.89 29.973-36.291 6.579-11.472 8.329-33.678 15.167-45.601 2.73-4.761 8.59-11.335 12.25-15.62"/><path fill="#65798a" d="M1061.65 888.895c17.35 22.115 34.11 46.054 50.86 68.624 3.84 5.165 22.33 28.621 23.51 32.002 18.64 53.219 31.09 113.299 47.76 166.949-9.1-11.28-18.76-25.83-27.49-37.87a4099 4099 0 0 1-53.65-74.73c-26.56-9.05-68.57-28.44-94.74-39.95 4.86-7.263 15.65-18.824 21.74-25.595 12.06-13.414 23.86-26.312 35.5-40.154-1.96-16.8-2.13-32.504-3.49-49.276"/><path fill="#d8832f" d="m1017.57 616.422 1.08-1.079c15.99 26.995 27.07 53.838 41.54 80.171-9.34 13.471-30.01 48.302-38.44 58.286a334 334 0 0 0 6.07-36.378c-10.93-9.664-25.75-20.823-37.349-30.052 4.401-10.551 27.579-62.772 27.099-70.948m-29.836-160.776c8.585 19.259 23.566 39.375 27.746 59.234.75 3.566.42 19.218.37 23.708 5.58 5.415 10.56 10.361 16.6 15.26-13.51 16.188-24.89 30.117-36.774 47.485-1.166 1.623-2.261 2.862-3.499 4.424-.101-.119-.251-.21-.304-.356-1.582-4.351 16.097-65.191 18.407-74.661-10.03-9.934-19.165-20.937-29.953-29.948 3.345-14.242 5.192-30.481 7.407-45.146m318.526 470.561c-.74 5.582-9.28 32.677-11.34 40.013a4047 4047 0 0 1-27.89 97.89c-2.57-15.77-7.34-26-10.45-39.83 3.09-4.15 11.95-25.255 15.42-31.801 11.55-21.831 22.37-44.62 34.26-66.272m117.89 380.053c8.44-13.11 17.24-25.09 27.04-37.18 4.57-5.64 10.89-15.22 15.3-20.13-.8 5.89-2.73 9.51-4.78 15.04-9.47 25.46-18.31 50.9-26.57 76.77-1.16-4.02-9.7-31.72-10.99-34.5"/><path fill="#d8832f" d="M995.676 601.333c3.611 2.027 7.024 3.297 10.814 4.95 8.75.491 8.9 2.089 12.16 9.06l-1.08 1.079c-5.65-1.971-11.36-4.808-16.62-7.666-3.204-1.433-5.387-2.045-8.773-2.999 1.238-1.562 2.333-2.801 3.499-4.424"/><path fill="#5e564b" d="M1352.8 1490.62c2.08 1.64 16.29 16.01 16.5 18.82-.64.27-.94.09-1.61-.03-.38-.33-1.62-2.65-3.05-3.96-4.91-4.54-10.36-9.48-14.89-14.37z"/><path fill="#a57440" d="M1343.79 1480.72c2.75 2.81 6.18 6.87 9.01 9.9l-3.05.46c-2.8-3.12-6.04-5.95-8.97-9.09z"/><path fill="#223442" d="m1617.63 1344.09 2.44-4.4c14.27 25.34 27.97 54.25 41.44 80.41 4.79-5.56 8.19-9.57 13.57-14.52 4.58 20.24 10.5 39.91 15.56 59.99 4.03 15.98 10.9 29.29 5.73 45.44 12.92 45.96 26.69 91.69 41.29 137.15 7.38-7.67 13.83-25.06 20.9-32.99l1.1-1.43c3.38 2.52 11.34 32.49 13.68 39.31 1.24 4.02 4.18 12.61 5.01 16.33 5.91 19.2 11.14 38.49 17.1 57.65 1.78 6.23 3.32 11.8 5.64 17.86 4.32 13.35 9.03 27.25 12.67 40.74 2.26-2.21 21.32-21.49 22.56-22.09l.09.04c.41.6.5 1.32.68 2.04l1.42.95c3.5 12.16 10.61 36.05 16.02 47.04 4.73 13.16 11.03 35.58 16.03 46.74 2.22-.04 1.17.2 3.15-.71-.09.42-.18.84-.26 1.26-1.97 11.22 11.1 41.8 14.76 54.61 2.89-6.29 4.59-10.22 8.4-16 2.11 3.07 5.27 7.39 6.9 10.59 5.63 29.58 28.01 56.71 48.4 78.15 5.25 5.52 25.17 17.81 32.11 22.55 17.7 11.9 35.05 24.3 52.03 37.2h-578.61c28.16-34.16 60.09-73.66 88.76-106.77l-1.06-1.85c-19.12 17.5-38.56 35.28-57.97 52.49-5.49 4.86-17.94 8.13-22.19 13.19-7.8 9.29-15.37 21.48-22.32 31.6-6.18-6.16-14.08-14.49-20.71-19.83-3.03 1.2-3.14 2.16-5.41 4.96-10.51-9.71-21.31-19.48-31.7-29.29-5.96 5.08-10.88 9.83-16.49 15.3a541 541 0 0 1-33.26-36.61c-5.27.83-27.16 18.38-32.55 22.5l-3.48-10.64c6.11-5.32 13.95-15.4 19.59-21.89 26.76-30.78 53.32-62.39 79.22-93.85 6.34-9.97 11.25-23.67 16.88-33.66 22.73-40.26 31.27-83.59 45.22-127.09 3.18-9.94 26.11-22.06 29.45-32.33a965 965 0 0 1 30.41-65.14c2.61-4.41 9.78-30.28 11.47-36.42 8.79-31.97 16.61-63.64 26.02-95.49 5.4-2.65 8.65-4.62 13.71-7.78 13.17-34.22 10.09-76.55 32.35-106.84 4.38-5.95 8.74-13.65 14.25-18.47"/><path fill="#fefefe" d="M1571.03 1469.4c13.17-34.22 10.09-76.55 32.35-106.84 4.38-5.95 8.74-13.65 14.25-18.47-3.78 10.64-9.71 26.24-12.34 36.68-1.1 10.89-2.57 20.88-2.23 31.84 4.31 4.14 8.47 8.43 12.47 12.86-2.47 8.64-8.39 30.59-9.27 38.77 1.77 2.36 2.64 2.34 5.43 3.43 4.64 2.47 9.68 4.99 14.06 7.85-2.47 7.63-4.22 13.7-6.13 21.48 3.16 4.29 3.97 4.95 5.39 9.92-2.32 4.69-4.8 10.07-7.41 14.54-8.92 10.65-4.71 14.4-9.79 25.59-1.98 4.35-11.56 13.21-15.47 18.41-1.3 10.95-4.26 29.19-4.58 39.49 26.78-6.71 21.62-8.78 40.71-24.57l12.89-.47c1.18 8.99 1.73 16.76 2.31 25.76-8.34 10.53-19.51 23.33-26.53 34.24-6.02 10.78-18.1 28.34-25.56 38.57 4.21-3.94 29.29-27.75 32.91-29.11 2.34 2.68 2.22 3.08 3.25 6.42 12.08 9.34 20.15 33.68 31.24 44.6 6.05 5.95 12.61 9.26 19.94 13.44 1.26 2.77 7.96 18.54 8.85 19.58 11.5 13.35 36.53 24.54 51.48 35.2-8.58-1.68-18.31-3.87-26.79-5.3 5.13 12.9 23.63 53.84 25.28 65.72-4.93-4.47-13.79-15.9-18.37-21.48-8.63 6.45-16.65 15.64-25.59 22.92-10.9-8.96-44.84-44.81-55.81-48.21l-2.22 1.33 1.84 4.57 2.73 15.19c-2.58 5.01-10.46 19.21-13.95 23.86-3.24 8.07 4.93 24.26 8.48 33.55-7.01 11.63-16.4 23.39-22.37 34.91 7.1 21.31 12.58 43.27 19.7 64.28-10.15 13.31-18.29 27.41-27.38 41.42-10.13 15.63-20.75 30.99-30.86 46.63h-116.5c28.16-34.16 60.09-73.66 88.76-106.77l-1.06-1.85c-19.12 17.5-38.56 35.28-57.97 52.49-5.49 4.86-17.94 8.13-22.19 13.19-7.8 9.29-15.37 21.48-22.32 31.6-6.18-6.16-14.08-14.49-20.71-19.83-3.03 1.2-3.14 2.16-5.41 4.96-10.51-9.71-21.31-19.48-31.7-29.29-5.96 5.08-10.88 9.83-16.49 15.3a541 541 0 0 1-33.26-36.61c-5.27.83-27.16 18.38-32.55 22.5l-3.48-10.64c6.11-5.32 13.95-15.4 19.59-21.89 26.76-30.78 53.32-62.39 79.22-93.85 6.34-9.97 11.25-23.67 16.88-33.66 22.73-40.26 31.27-83.59 45.22-127.09 3.18-9.94 26.11-22.06 29.45-32.33a965 965 0 0 1 30.41-65.14c2.61-4.41 9.78-30.28 11.47-36.42 8.79-31.97 16.61-63.64 26.02-95.49 5.4-2.65 8.65-4.62 13.71-7.78"/><path fill="#65798a" d="M1627.74 1655.79c12.08 9.34 20.15 33.68 31.24 44.6 6.05 5.95 12.61 9.26 19.94 13.44 1.26 2.77 7.96 18.54 8.85 19.58 11.5 13.35 36.53 24.54 51.48 35.2-8.58-1.68-18.31-3.87-26.79-5.3 5.13 12.9 23.63 53.84 25.28 65.72-4.93-4.47-13.79-15.9-18.37-21.48-8.63 6.45-16.65 15.64-25.59 22.92-10.9-8.96-44.84-44.81-55.81-48.21l-2.22 1.33c-50.09 51.82-108.28 99.14-161.03 148.46-13.52 12.64-34.72 24.06-49.59 37.06l-2.13-1.02c8.91-8.92 22.72-22.08 30.59-31.45 9.48-11.29 20.33-34.14 27.4-47.66 3.46-6.61 3.42-18.68 7.59-25.52 8.77-14.34 31.14-31.2 39.72-44.66 9.78-17.08 19.73-35.41 27.52-53.48 4.88-11.33 7.34-23.71 12.95-34.97 3.21-.81 11.36-3.02 13.77-4.58 17.34-11.22 36.63-30.84 51.98-45.13-3.01-9.13-4.66-15.45-6.78-24.85"/><path fill="#aeb0b8" d="M1562.45 1923.37c-3.46 4.35-7.39 8.98-11.45 12.79l.08-2.75c5.05-6.06 5.16-5.47 11.37-10.04"/><path fill="#d8d9db" d="M1419.79 1974.06c-12.32 13.04-12.67 5.42-1.69-1.02z"/><path fill="#46525d" d="m1551.08 1933.41-.08 2.75c-1.77 1.65-3.11 3.32-4.8 5.07l-1.06-1.85c1.96-2.02 3.97-3.95 5.94-5.97"/><path fill="#aeb0b8" d="M1418.1 1973.04c1.61-1.67 3.24-3.32 4.9-4.95l2.13 1.02c-1.91 1.58-3.7 3.09-5.34 4.95z"/><path fill="#65798a" d="M1519.37 1713.03c4.48-11.73 4.11-20.88 7.68-30.93 12.33-34.69 28.66-50.86 54.33-75.51-13.15 29-22.39 32.74-25.99 64.91 8.17-8.12 16.92-16.31 25.25-24.32-.36.62-.72 1.24-1.09 1.86-10.77 21.53-33.08 41.69-44.35 62.05-10.8 19.53-11.35 42.06-27.87 61.55-10.46 12.34-16.79 17.02-29.52 26.87-4.95 3.83-13.19 21.13-16.38 27.37-1.2-1.29-1.37-1.29-2.05-2.66l.89-5.3-.86-.47c-4.57 2.97-15.03 20.56-17.7 25.99l-.81-1.58c8.7-14.36 15.42-31.27 22.88-46.3 8.87-17.89 18.74-34.14 23.8-53.75 3.63-14.04 19.35-23.92 31.79-29.78"/><path fill="#aeb0b8" d="m1440.9 1842.86.81 1.58c-.57 1.77-4.68 9.79-6.09 10.7-1.05-1.5 4.26-10.62 5.28-12.28"/><path fill="#788697" d="M1456.73 1834.89c.67-2.83 1.7-8.21 2.65-10.67.68 1.37.85 1.37 2.05 2.66-1.22 2.66-3.13 5.5-4.7 8.01"/><path fill="#65798a" d="M1617.6 1521.46c7.55 12.58 13.68 22.95 20.32 36.06 5.04-5.1 10.19-10.08 15.45-14.95 2.97 17.46 8.94 48.12 13.66 65.05-5.1-5.12-8.37-8.66-12.96-14.22l-1.44 1.78c4.86 5.97 21.68 27.93 24.81 34.33 10.44 21.42 16.93 50.41 24.43 73.29l-2.79 2.3c-8.76-11.09-29.03-40.08-38.65-46.54-3.78-2.54-37.06-16.02-43.29-18.65 7.02-10.91 18.19-23.71 26.53-34.24-.58-9-1.13-16.77-2.31-25.76l-12.89.47c-19.09 15.79-13.93 17.86-40.71 24.57.32-10.3 3.28-28.54 4.58-39.49 3.91-5.2 13.49-14.06 15.47-18.41 5.08-11.19.87-14.94 9.79-25.59"/><path fill="#46525d" d="M1652.63 1595.18c-.93-1.04-9.62-9.09-6.72-10.26.73.25 7.62 7.62 8.16 8.48z"/><path fill="#d8832f" d="M1634.85 1860.76c-3.55-9.29-11.72-25.48-8.48-33.55 3.4 12.46 13.96 28.38 20.48 40.19-5.38 6.67-11.69 14.13-16.71 20.96 6.34 20.89 16.42 64.48 19.84 85.89-20.66 24.41-40.48 49.28-61.09 73.75h-14.95c10.11-15.64 20.73-31 30.86-46.63 9.09-14.01 17.23-28.11 27.38-41.42-7.12-21.01-12.6-42.97-19.7-64.28 5.97-11.52 15.36-23.28 22.37-34.91m.9-77.17 2.22-1.33c10.97 3.4 44.91 39.25 55.81 48.21 8.94-7.28 16.96-16.47 25.59-22.92 4.58 5.58 13.44 17.01 18.37 21.48 6.47 10.34 25.14 31.33 34.03 40.4l-3.01.52c-14.97-15-30.4-28.02-45.94-42.28-5.05 8.97-10.37 18.91-15.8 27.57 31.12 34.21 61.14 69.04 94.67 100.88 15.35 14.58 30.4 29.67 45.65 44.38l-1.64 1.92c-23.58-21.28-52.06-41.65-73.63-64.37-25.52-28.23-50.31-57.34-76.77-84.7-16.59-17.16-32.11-34.25-46.6-53.25-2.46-3.22-7.89-10.36-11.11-11.94zm-30.46-402.82c9.13 15.95 15.45 29.25 13.9 47.78l6.78 7.39c-1.86 3.59-15.38 26.37-15.23 28.01 16.09 6.79 16.77 8.85 25.88 23.81-3.76 7.06-7.23 12.43-11.61 19.16-1.42-4.97-2.23-5.63-5.39-9.92 1.91-7.78 3.66-13.85 6.13-21.48-4.38-2.86-9.42-5.38-14.06-7.85-2.79-1.09-3.66-1.07-5.43-3.43.88-8.18 6.8-30.13 9.27-38.77-4-4.43-8.16-8.72-12.47-12.86-.34-10.96 1.13-20.95 2.23-31.84m208.47 404.86c2.26-2.21 21.32-21.49 22.56-22.09l.09.04c.41.6.5 1.32.68 2.04-2.57 4.26-12.98 33.08-16.26 40.69-1.74-5.21-4.97-16.08-7.07-20.68m-55.2-170.46c-.62 4.69-5.63 17.75-7.41 24.35l-.49 1.9c-2.3 8.43-4.87 16.79-7.56 25.1l-.3-.97c-1.9-6.04-3.52-11.23-5.14-17.39 7.38-7.67 13.83-25.06 20.9-32.99"/><path fill="#7d644a" d="M1847.34 2000.5c6.42 5.93 13.62 13.45 19.86 19.72l-2.7-1.53c-4.52-2.54-14.93-12.25-18.8-16.27zm-75.57-131.07c2.45 2.32 7.28 8.94 9.49 11.88-4.51-3.78-8.41-7.03-12.5-11.36z"/><path fill="#5a7081" d="M1701.87 1702.8c.28 1.82 1.64 5.09 1.42 6.49-.29 1.79-4.51-4.62-4.21-4.19z"/><path fill="#223442" d="M1924.78 1342.08c10.77 19.21 25.03 50.34 36.35 67.32 3.22-3.51 6.8-7.61 10.12-10.95 5.02 22.74 16.78 66.27 24.21 88.49-1.45 3.81-2.97 8.13-4.59 11.83 9.44 34.36 22.96 82.71 34.46 115.91.6-.87 2.28-3.56 2.77-4.11 7.07-8.05 9.46-17.18 15.44-25.47l1.24-1.59c1.9 2.4 1.77 4.17 3.22 6.71V2048h-11.95c-16.98-12.9-34.33-25.3-52.03-37.2-6.94-4.74-26.86-17.03-32.11-22.55-20.39-21.44-42.77-48.57-48.4-78.15-1.63-3.2-4.79-7.52-6.9-10.59-3.81 5.78-5.51 9.71-8.4 16-3.66-12.81-16.73-43.39-14.76-54.61.08-.42.17-.84.26-1.26-1.98.91-.93.67-3.15.71-5-11.16-11.3-33.58-16.03-46.74-5.41-10.99-12.52-34.88-16.02-47.04l-1.42-.95c-.18-.72-.27-1.44-.68-2.04l-.09-.04c-1.24.6-20.3 19.88-22.56 22.09-3.64-13.49-8.35-27.39-12.67-40.74-2.32-6.06-3.86-11.63-5.64-17.86-5.96-19.16-11.19-38.45-17.1-57.65 7.19-7.72 27.13-25.04 30.97-32.07 10.9-22.71 15.02-36.07 29.17-57.75 7.1-10.12 28.24-110.26 35.63-131.77 4.24-2.26 8.02-4.46 12.13-6.91 1.42-18.03 6.44-37.22 11.11-54.77 2.17-7.61 11.36-19.47 16.47-26.03 1.94-3.37 3.26-6.06 6.58-7.79 2.46-3.37 3.19-6.23 4.37-10.21"/><path fill="#223442" d="M1930.66 1622.73c6.11 4.8 19.37 30.85 26.47 37.35 6.18 5.66 13.01 8.99 19.59 13.83 2.33 6.02 4.84 13.91 9.48 18.29 11.86 11.2 28.05 20.82 41.65 29.9l-21.14-4.17c5.04 15.44 9.91 26.33 16.92 41.14 5.89 10.32 16.72 23.25 24.37 32.69V2048h-11.95c-16.98-12.9-34.33-25.3-52.03-37.2-6.94-4.74-26.86-17.03-32.11-22.55-20.39-21.44-42.77-48.57-48.4-78.15-1.63-3.2-4.79-7.52-6.9-10.59-3.81 5.78-5.51 9.71-8.4 16-3.66-12.81-16.73-43.39-14.76-54.61.08-.42.17-.84.26-1.26-1.98.91-.93.67-3.15.71-5-11.16-11.3-33.58-16.03-46.74-5.41-10.99-12.52-34.88-16.02-47.04 10.72-5.34 34.5-65.88 39.08-78.29 5.19-1.89 12.13-4.08 16.53-7.28 14.69-10.71 28.45-24.17 41.88-36.41-1.76-7.58-4.15-13.98-5.34-21.86"/><path fill="#65798a" d="M1930.66 1622.73c6.11 4.8 19.37 30.85 26.47 37.35 6.18 5.66 13.01 8.99 19.59 13.83 2.33 6.02 4.84 13.91 9.48 18.29 11.86 11.2 28.05 20.82 41.65 29.9l-21.14-4.17c5.04 15.44 9.91 26.33 16.92 41.14-2.41-1.35-2.41-1.26-5.14-1.85-7.63 2.33-14.38 11.45-19.91 17.64-17.71-12.7-33.44-27.69-49.28-42.54-.65-.61-1.92-.81-2.79-1l-1.91.8c-2.89.95-15.26 14.7-19.44 18.4-23.41 20.66-46.71 43.23-70.63 63.09-5.41-10.99-12.52-34.88-16.02-47.04 10.72-5.34 34.5-65.88 39.08-78.29 5.19-1.89 12.13-4.08 16.53-7.28 14.69-10.71 28.45-24.17 41.88-36.41-1.76-7.58-4.15-13.98-5.34-21.86"/><path fill="#fefefe" d="M1854.53 1813.61c23.92-19.86 47.22-42.43 70.63-63.09 4.18-3.7 16.55-17.45 19.44-18.4.61 4.98 1.14 9.99 2.06 14.92-4.18 8.01-8.47 15.97-12.86 23.87.36 8.12 4.95 16.83 8.34 24.31-4.73 11.68-12.2 24-18.44 35.15 4.82 15.38 13.4 43.23 19.66 58.19a1355 1355 0 0 0-26.63 38.14c-4.51-6.22-8.22-10.75-13.22-16.6-1.63-3.2-4.79-7.52-6.9-10.59-3.81 5.78-5.51 9.71-8.4 16-3.66-12.81-16.73-43.39-14.76-54.61.08-.42.17-.84.26-1.26-1.98.91-.93.67-3.15.71-5-11.16-11.3-33.58-16.03-46.74"/><path fill="#65798a" d="M1903.51 1910.1c5 5.85 8.71 10.38 13.22 16.6 1.99 3.01 5.62 8.15 7.18 11.16 2.71 6.67 18.63 27.73 23.58 34.48l15.65-32.72c3.88 9.46 10.71 31.37 16.18 37.94 3.1.01 1.97.03 5.08-1.53 6.43 1.47 19.87 24.22 25.92 24.93 11.19 1.32 27.67 16.53 37.68 24.32V2048h-11.95c-16.98-12.9-34.33-25.3-52.03-37.2-6.94-4.74-26.86-17.03-32.11-22.55-20.39-21.44-42.77-48.57-48.4-78.15"/><path fill="#d8832f" d="M1946.51 1731.32c.87.19 2.14.39 2.79 1 15.84 14.85 31.57 29.84 49.28 42.54 5.53-6.19 12.28-15.31 19.91-17.64 2.73.59 2.73.5 5.14 1.85 5.89 10.32 16.72 23.25 24.37 32.69v56.76c-15.65-17.24-31.11-36.77-47.58-53-21.24-20.9-36.49-39.87-53.91-64.2"/><path fill="#223442" d="M2020.51 1771.31c8.8 8.63 18.15 18.35 27.49 26.17v42.32c-12.05-12.94-29.43-32.37-40.39-46.1 4.33-7.02 8.74-15.12 12.9-22.39"/><path fill="#d8832f" d="M1933.8 1770.91c5.46 7.7 13.28 24.8 17.41 33.76-4.85 7.08-8.52 12.4-12.56 19.91 5.95 22.89 11.02 51.52 17.89 73.78-9.58 12.98-21.92 27.23-32.63 39.5-1.56-3.01-5.19-8.15-7.18-11.16a1355 1355 0 0 1 26.63-38.14c-6.26-14.96-14.84-42.81-19.66-58.19 6.24-11.15 13.71-23.47 18.44-35.15-3.39-7.48-7.98-16.19-8.34-24.31"/><path fill="#fefefe" d="M1913.83 1360.08c1.94-3.37 3.26-6.06 6.58-7.79-.81 1.95-2.88 7.23-3.78 8.81l-5.61 14.81c-.85 7.02-1.89 14.67-2.5 21.69 5.01 3.96 8.62 6.59 12.84 11.41-2.77 10.57-8.53 22-6.57 30.99 2.88 3.65 4.51 3.55 9.41 4.6-3.43 10.28-6.98 20.63-10.28 30.94 6.25 3.51 8.55 5.92 13.38 11.2-.09 4.15-.35 8.09.21 12.19l-2.91 4.71c-5.89 6.31-7.24 11.24-8.74 19.85-1.96 11.24-7.18 14.03-14.67 21.97-1.15 7.69-4.52 24.96-7.11 31.94l1.49 1.1c7.36-2.56 17.76-4.94 23.31-10.03 5.08-4.66 20.42-20.68 24.91-6.94l.16 1.26c.63 7.19.68 10.16.24 17.37-6.58 7.7-17.12 19.01-22.34 26.93-4.96 7.7-11.99 18.01-16.46 25.73l1.97 1.59c6.86-5.68 13.36-11.52 20.35-17.21l1.08.27 1.87 5.26c1.19 7.88 3.58 14.28 5.34 21.86-13.43 12.24-27.19 25.7-41.88 36.41-4.4 3.2-11.34 5.39-16.53 7.28-4.58 12.41-28.36 72.95-39.08 78.29l-1.42-.95c-.18-.72-.27-1.44-.68-2.04l-.09-.04c-1.24.6-20.3 19.88-22.56 22.09-3.64-13.49-8.35-27.39-12.67-40.74-2.32-6.06-3.86-11.63-5.64-17.86-5.96-19.16-11.19-38.45-17.1-57.65 7.19-7.72 27.13-25.04 30.97-32.07 10.9-22.71 15.02-36.07 29.17-57.75 7.1-10.12 28.24-110.26 35.63-131.77 4.24-2.26 8.02-4.46 12.13-6.91 1.42-18.03 6.44-37.22 11.11-54.77 2.17-7.61 11.36-19.47 16.47-26.03"/><path fill="#fefefe" d="M1895.57 1578.5c7.36-2.56 17.76-4.94 23.31-10.03 5.08-4.66 20.42-20.68 24.91-6.94l.16 1.26c.63 7.19.68 10.16.24 17.37-6.58 7.7-17.12 19.01-22.34 26.93-4.96 7.7-11.99 18.01-16.46 25.73l1.97 1.59c6.86-5.68 13.36-11.52 20.35-17.21l1.08.27 1.87 5.26c1.19 7.88 3.58 14.28 5.34 21.86-13.43 12.24-27.19 25.7-41.88 36.41-4.4 3.2-11.34 5.39-16.53 7.28-4.58 12.41-28.36 72.95-39.08 78.29l-1.42-.95c-.18-.72-.27-1.44-.68-2.04l-.09-.04c-1.24.6-20.3 19.88-22.56 22.09-3.64-13.49-8.35-27.39-12.67-40.74-2.32-6.06-3.86-11.63-5.64-17.86 3.75-5.73 11.32-30.86 14.28-39.06 7.97-4.98 17.73-12.98 25.36-16.96 8.56-43.56 17.17-58.36 51.61-88.2l2.69-3.3c2-1.76 2.07-1.64 4.69-2.11z"/><path fill="#65798a" d="m1886.7 1582.81 1.39 1.15c-10.94 20.89-18.6 28.1-21.35 51.92 7.09-8.16 12.14-13.23 20.9-19.72-11.23 18.76-27.96 35.89-39.88 54.28-4.69 7.23-6.7 17.71-9.65 26.05-4.03 11.39-11.29 22.81-17.96 32.86-3.99 6.01-14.37 9.51-19.06 15.54-2.32-6.06-3.86-11.63-5.64-17.86 3.75-5.73 11.32-30.86 14.28-39.06 7.97-4.98 17.73-12.98 25.36-16.96 8.56-43.56 17.17-58.36 51.61-88.2"/><path fill="#46525d" d="m1905.39 1632.82 1.97 1.59c-.95.88-3.43 3.65-4.7 3.84-1.14-.72 2.29-4.87 2.73-5.43"/><path fill="#d8d9db" d="M1889.39 1579.51c2-1.76 2.07-1.64 4.69-2.11l1.49 1.1c-1.71.56-2.96 1-4.63 1.64z"/><path fill="#788697" d="m1889.39 1579.51 1.55.63a97 97 0 0 1-2.85 3.82l-1.39-1.15z"/><path fill="#65798a" d="M1901.19 1545.46c7.49-7.94 12.71-10.73 14.67-21.97 1.5-8.61 2.85-13.54 8.74-19.85l.51 1.83c2.26 8.59 10.94 22.73 15.68 30.61 5.77-4.16 9.06-6.85 14.53-11.59 2.87 15.68 6.11 31.22 8.88 47l1.85 10.46c-4.4-4.85-8.58-10.41-13-15.62l-1.22 1.58c-4.2-4.4-.85-4.18-7.88-5.12l-.16-1.26c-4.49-13.74-19.83 2.28-24.91 6.94-5.55 5.09-15.95 7.47-23.31 10.03l-1.49-1.1c2.59-6.98 5.96-24.25 7.11-31.94"/><path fill="#5a7081" d="M1943.79 1561.53c1.57-6.69 7.8 2.09 9.26 4.8l-1.22 1.58c-4.2-4.4-.85-4.18-7.88-5.12z"/><path fill="#65798a" d="M1943.95 1562.79c7.03.94 3.68.72 7.88 5.12 4.57 4.88 20.78 27.77 23.78 34.19 9.93 21.24 15.1 47.09 22.34 69.62-10.41-12.52-27.19-34.51-35.6-48.37-22.15-4.87-23.37-9.58-40.5-16.26 5.22-7.92 15.76-19.23 22.34-26.93.44-7.21.39-10.18-.24-17.37"/><path fill="#d8832f" d="M1911.02 1375.91c5.8 11.93 10.21 21.74 13.28 34.74 1.07 4.51 2.46 5.6 5.43 9.03-5.35 6.17-10.57 11.83-14.81 18.83 3.01 1.5 6.97 3.63 9.97 4.92l16.42 35.16c-4.09 6.08-9.49 14.68-13.8 20.34-.56-4.1-.3-8.04-.21-12.19-4.83-5.28-7.13-7.69-13.38-11.2 3.3-10.31 6.85-20.66 10.28-30.94-4.9-1.05-6.53-.95-9.41-4.6-1.96-8.99 3.8-20.42 6.57-30.99-4.22-4.82-7.83-7.45-12.84-11.41.61-7.02 1.65-14.67 2.5-21.69m132.52 209.19c-1.16 8.37-9.75 34.77-12.89 43.65l-.45 1.32-1.1-4.05c-.95-3.48-2.5-8.01-3.77-11.34.6-.87 2.28-3.56 2.77-4.11 7.07-8.05 9.46-17.18 15.44-25.47"/><path fill="#fefefe" d="M162.392 1338.23c5.65 4.6 32.69 60.36 38.911 71.71l12.891-11.65c5.719 27.19 15.361 61.21 22.856 88.41l-3.021 11.99 21.007 69.4c4.216 13.9 10.361 35.01 15.899 48.26 4.512-7.48 14.228-27.01 18.889-32.11l.821-.63c5.484 7.11 24.645 81.56 29.806 97.12-3.111 3.75-12.424 14.47-14.183 17.91-12.717 24.86-22.763 56.32-32.525 82.63l-8.211-12.52c-3.892-4.35-7.978-9.39-11.788-13.89l-22.322 24.21c-7.339-6.85-47.986-46-53.543-48.51l-2.015 1.55c-10.941 9.69-20.846 20.49-31.719 30.25-37.699 33.85-75.623 67.45-113.996 100.53-9.606 8.28-19.882 15.83-30.149 23.26v-221.69c8.676-9.35 19.701-15.57 27.869-25.09 4.838-5.65 5.234-16.64 8.038-22.81 4.734-10.16 13.337-18.98 17.01-29.63 3.133-9.1 3.104-19.4 7.215-28.25 1.265-5.32 10.512 10.95 12.527 13.36 1.582 1.33 3.109 3 4.564 4.5 7.561-16.49 14.21-54.65 19.835-73.86 2.55-8.71 11.343-40.37 12.302-47.55 5.234-3.8 9.099-6 14.21-10.37 5.063-22.32 8.389-50.31 15.669-71.63.739-2.16 11.441-14.74 14.085-18.31l2.346 1.14c1.557-3.41 2.734-6.08 3.951-9.62 1.78-2.83 1.914-4.78 2.771-8.11"/><path fill="#223442" d="M162.392 1338.23c5.65 4.6 32.69 60.36 38.911 71.71l12.891-11.65c5.719 27.19 15.361 61.21 22.856 88.41l-3.021 11.99 21.007 69.4c4.216 13.9 10.361 35.01 15.899 48.26 4.512-7.48 14.228-27.01 18.889-32.11l.821-.63c5.484 7.11 24.645 81.56 29.806 97.12-3.111 3.75-12.424 14.47-14.183 17.91-12.717 24.86-22.763 56.32-32.525 82.63l-8.211-12.52c-.578-4.5-19.249-42.71-22.955-52.57l23.13 6.09c-9.161-6.74-18.429-12.79-27.957-18.9-5.457-3.5-12.629-7.62-16.713-12.49-4.299-5.12-5.028-14.99-10.411-19.71-5.613-4.92-13.546-7.28-18.259-13.36-8.264-10.49-14.941-25.19-23.913-34.93l-2.76-9.88c-9.632 9.31-19.368 17.55-29.548 26.24 7.306-9.7 15.144-22.59 21.76-32.97 5.194-10.13 17.019-20.48 24.424-30.38-.553-5.92-1.492-12.31-2.249-18.25l-.256-.83c-9.839-12.23-19.419 7.36-27.405 12.1-5.422 3.22-13.443 4.44-19.795 6.47.367-3.74.567-6.14 1.122-9.88a264 264 0 0 1 2.466-13.99c4.159-19.32 13.354-16.48 17.529-34.03 1.4-5.89 3.472-9.84 6.332-14.97 1.669-2.86 3.463-5.62 5.241-8.41 3.416-15.06 2.497-15.96-6.947-27.52 1.1-7.21 5.408-16.35 3.33-22.15l-11.364-3.72c2.419-8.91 5.447-24.34 8.786-32.19-2.877-4.75-5.588-6.43-9.885-9.82-.261-8.18.842-18.99 1.716-27.14.05-5.76 2.476-10.3 4.719-15.6 1.557-3.41 2.734-6.08 3.951-9.62 1.78-2.83 1.914-4.78 2.771-8.11"/><path fill="#65798a" d="M160.074 1502.51c6.98 11.42 12.483 20.66 18.433 32.61 4.052-4.12 9.333-9.53 13.548-13.42 2.67 11.07 10.554 45.42 9.679 55.48l-2.681 1.59c-5.834-7.19-11.5-15.43-18.972-21.13l-.256-.83c-9.839-12.23-19.419 7.36-27.405 12.1-5.422 3.22-13.443 4.44-19.795 6.47.367-3.74.567-6.14 1.122-9.88a264 264 0 0 1 2.466-13.99c4.159-19.32 13.354-16.48 17.529-34.03 1.4-5.89 3.472-9.84 6.332-14.97"/><path fill="#46525d" d="M179.825 1556.81c5.709-.75 15.854 15.95 21.909 20.37l-2.681 1.59c-5.834-7.19-11.5-15.43-18.972-21.13z"/><path fill="#65798a" d="M180.081 1557.64c7.472 5.7 13.138 13.94 18.972 21.13 3.009 4.26 11.112 15.45 13.05 19.63 9.735 20.96 14.638 46.99 21.288 69.35-28.322-36.7-27.556-48.79-75.485-61.48 5.194-10.13 17.019-20.48 24.424-30.38-.553-5.92-1.492-12.31-2.249-18.25"/><path fill="#d8832f" d="M150.951 1371.56c3.399 9.03 12.407 27.67 10.475 36.21 1.868 5.7 2.124 5.74 7.614 8.96-3.182 4.6-13.969 17.92-13.53 22.08 2.721 1.44 5.646 2.74 7.865 4.81 4.559 7.81 11.994 21.44 17.267 28.18-3.383 5.44-11.219 18.48-15.327 22.3 3.416-15.06 2.497-15.96-6.947-27.52 1.1-7.21 5.408-16.35 3.33-22.15l-11.364-3.72c2.419-8.91 5.447-24.34 8.786-32.19-2.877-4.75-5.588-6.43-9.885-9.82-.261-8.18.842-18.99 1.716-27.14"/><path fill="#e29237" d="m289.824 1584.24-.579 3.06c-.644 3.25-4.297 9.05-5.636 13.08-3.165 9.54-5.898 19.21-8.48 28.91-1.453-4.58-2.97-8.14-4.194-12.94 4.512-7.48 14.228-27.01 18.889-32.11"/><path fill="#65798a" d="M168.454 1622.88c8.972 9.74 15.649 24.44 23.913 34.93 4.713 6.08 12.646 8.44 18.259 13.36 5.383 4.72 6.112 14.59 10.411 19.71 4.084 4.87 11.256 8.99 16.713 12.49 9.528 6.11 18.796 12.16 27.957 18.9l-23.13-6.09c3.706 9.86 22.377 48.07 22.955 52.57-3.892-4.35-7.978-9.39-11.788-13.89l-22.322 24.21c-7.339-6.85-47.986-46-53.543-48.51l-2.015 1.55c-10.941 9.69-20.846 20.49-31.719 30.25-37.699 33.85-75.623 67.45-113.996 100.53-9.606 8.28-19.882 15.83-30.149 23.26v-7.66c10.285-7.07 14.188-14.99 20.341-25.24 10.585-17.62 15.804-27.78 19.27-48.21 43.67-45.06 52.68-59.18 73.848-119.03 18.866-5.36 46.063-28.78 58.158-43.61-1.409-7.07-2.392-12.38-3.163-19.52m-98.127 47.08c8.707-42.16 20.979-67.33 57.329-92.76-11.875 23.53-21.773 28.64-23.837 54.82 6.837-6.9 11.588-11.13 19.765-16.59-13.777 18.66-29.364 38.54-42.203 57.65-2.573 3.83-6.04 18.99-8.273 24.56-3.238 8.07-9.696 15.71-13.332 22.2-7.916 14.15-18.434 16.35-27.448 25.84-4.389 4.62-12.56 22.2-18.32 30.59l2.361-14.67c1.331-1.36 1.596-2.27.992-4.19-.76-.72-.864-.26-2.014-1.05l.022.1c.779-3.55.922-2.49 1.047-6.64 2.799-13.78 12.963-22.29 17.849-33.94 3.282-7.82 6.593-21.05 9.415-29.58 8.727-5.9 18.97-11.04 26.647-16.34"/><path fill="#d8832f" d="M60.133 1558.68c1.264-5.32 10.511 10.95 12.526 13.36 1.582 1.33 3.109 3 4.564 4.5-4.009 7-8.115 13.49-11.987 20.63l-.775 1.67c-5.586 12.48-12.152 27.08-18.302 39.21-6.498 13.38-23.098 21.78-33.444 31.74-3.418 11.42-8.287 27.67-12.715 38.63v-43.96c8.676-9.35 19.701-15.57 27.869-25.09 4.838-5.65 5.234-16.64 8.038-22.81 4.734-10.16 13.337-18.98 17.01-29.63 3.133-9.1 3.104-19.4 7.215-28.25"/><path fill="#223442" d="M60.133 1558.68c1.264-5.32 10.511 10.95 12.526 13.36 1.582 1.33 3.109 3 4.564 4.5-4.009 7-8.115 13.49-11.987 20.63l-1.475-1.58c.91-9.43-1.99-26.71-3.629-36.91m-10.645 50c4.704-4.23 9.656-9.02 14.274-13.09l1.475 1.58-.775 1.67c-5.586 12.48-12.152 27.08-18.302 39.21-.66-8.58 1.622-20.84 3.328-29.37"/><path fill="#788697" d="M16.416 1749.82c-.125 4.15-.268 3.09-1.047 6.64l-.022-.1c1.15.79 1.254.33 2.014 1.05.604 1.92.34 2.83-.992 4.19-6.246 7.36-10.58 15.12-16.369 22.26v-2.91c5.97-9.67 11.66-20.84 16.416-31.13"/><path fill="#d8832f" d="m766.676 874.939 1.006-1.195c4.945 3.986 14.108 16 18.764 21.301 5.824 6.632 11.399 12.428 17.487 18.822a324 324 0 0 0 13.391 16.241c-13.814 24.832-29.673 48.369-43.625 73.152-11.529 20.48-18.379 50.17-29.918 69.62-3.874 7.02-10.726 11.64-16.447 17.22-16.096 15.7-36.017 29.63-49.374 47.69-2.372 3.61-12.089 38.75-13.673 44.23a8432 8432 0 0 1-27.088 92.96c-6.178 21.29-9.566 39.5-20.068 59.48-15.129 28.78-28.487 59.49-42.377 88.98-8.171 17.35-20.336 39.34-25.799 57.04-3.601-13.98-11.568-39.22-13.552-52.51 1.914-3 12.698-34.75 15.44-41.71 27.19-68.95 52.513-139.17 79.072-208.36 3.483-9.07 21.359-60.87 25.228-65.47 10.51-12.49 43.65-41.13 57.439-53.56 4.592-23.55 12.251-52.77 18.319-76.198 1.795-6.932 14.289-26.488 16.995-34.9 7.085-22.022 14.458-50.278 18.78-72.833"/><path fill="#223442" d="m766.676 874.939 1.006-1.195c4.945 3.986 14.108 16 18.764 21.301 5.824 6.632 11.399 12.428 17.487 18.822a324 324 0 0 0 13.391 16.241c-13.814 24.832-29.673 48.369-43.625 73.152-11.529 20.48-18.379 50.17-29.918 69.62-.194-4.12 1.338-22.03 1.644-27.47l3.119-60.535a863 863 0 0 1 28.797-30.695c-2.553-22.229-6.913-57.175-10.665-79.241"/><path fill="#d8832f" d="m1013.49 378.201 3.39 3.822-2.38 4.207c-5.35 5.712-16.796 25.454-22.083 33.077-8.564 12.345-24.123 29.465-30.357 41.888-4.356 8.681-9.228 34.447-11.995 45.224-8.137 31.689-14.88 67.672-24.713 98.752a243 243 0 0 1-31.73 18.521c-10.099 49.021-22.299 98.668-34.835 147.16-13.11 50.712-25.83 109.486-41.463 159.256a324 324 0 0 1-13.391-16.241c3.022-4.058 13.775-51.272 15.693-59.086l41.869-165.03c4.984-19.528 14.045-62.498 20.904-79.333 7.848-6.542 22.098-13.197 32.864-21.827 5.651-22.843 31.079-126.36 39.772-140.577 3.852-6.299 9.654-12.244 14.392-17.941 14.447-17.366 30.222-34.07 44.063-51.872"/><path fill="#bd342d" d="M1013.49 378.201c.83-7.842.18-17.502.41-25.533.63-22.754-1.16-48.462.36-70.933 4.71-2.706 10.66 5.074 16.61 4.932 8.79-.211 17.55-.601 26.35-.633l73.9-.073c-13.35 11.747-28.05 22.412-41.55 34.242 12.37 7.76 25.34 17.023 37.83 25.151-34.48.312-70.15-.319-104.78-.392.06 7.709.19 15.417.38 23.124l-6.12 13.937z"/><path fill="#d8832f" d="M1820 1557.87c3.17-1.67 12.73 13.29 14.78 15.99 1.24 2.17 1.83 3.11 3.29 5.11l.42.59c-14.15 21.68-18.27 35.04-29.17 57.75-3.84 7.03-23.78 24.35-30.97 32.07-.83-3.72-3.77-12.31-5.01-16.33 26.66-19.86 21-20.07 31.08-49.6 5.32-15.57 11.19-28.63 15.58-45.58"/><path fill="#223442" d="M1820 1557.87c3.17-1.67 12.73 13.29 14.78 15.99 1.24 2.17 1.83 3.11 3.29 5.11l.42.59c-14.15 21.68-18.27 35.04-29.17 57.75-.72-7.87 1.51-26.15 2.41-34.84 5.14-6.31 7.98-8.21 11.71-15.61-1.67-9.6-1.59-20.5-3.44-28.99"/><path fill="#d8832f" d="M106.109 1439.52c2.381-2.27 10.317-8.43 11.652-10.82 8.44-14.79 9.677-33.74 15.21-49.37 4.14-11.69 19.993-32.54 29.421-41.1-.857 3.33-.991 5.28-2.771 8.11-1.217 3.54-2.394 6.21-3.951 9.62l-2.346-1.14c-2.644 3.57-13.346 16.15-14.085 18.31-7.28 21.32-10.606 49.31-15.669 71.63-5.111 4.37-8.976 6.57-14.21 10.37-.959 7.18-9.751 38.84-12.302 47.55-5.624 19.21-12.274 57.37-19.835 73.86-1.455-1.5-2.981-3.17-4.564-4.5 2.814-6.04 10.19-39.61 12.273-48.4q9.883-42.24 21.177-84.12"/><path fill="#f4e2cc" d="M153.324 1354.82c1.608-4.23 2.996-5.76 6.297-8.48-1.217 3.54-2.394 6.21-3.951 9.62z"/><path fill="#d8832f" d="m1895.32 1382.22 2.04 3.89c-4.67 17.55-9.69 36.74-11.11 54.77-4.11 2.45-7.89 4.65-12.13 6.91-7.39 21.51-28.53 121.65-35.63 131.77l-.42-.59c-1.46-2-2.05-2.94-3.29-5.11 2.03-4.99 9.31-39.08 11.05-46.75 6.14-26.93 14.71-55.57 20.15-82.32 3.98-3.13 10.63-6.75 15.14-9.42 5.17-12.9 10.13-38.35 14.2-53.15"/><path fill="#e29237" d="M1895.32 1382.22c1.33-6.87 23.78-35.01 29.46-40.14-1.18 3.98-1.91 6.84-4.37 10.21-3.32 1.73-4.64 4.42-6.58 7.79-5.11 6.56-14.3 18.42-16.47 26.03z"/><metadata><recraft-signature>{&quot;signed_by&quot;: &quot;recraft&quot;, &quot;signature_b64&quot;: &quot;TsegHa3WeAr/4ECg8eoDjdEW642cBVFBIXfN574cDXiGS165GyD9EvRfxWG3AMP/4pwhp+H9iSqkvdU8eKmTBA==&quot;, &quot;signing_algo&quot;: &quot;Ed25519&quot;, &quot;generation_timestamp&quot;: 1777235405, &quot;identifier&quot;: &quot;06212be5-413a-4166-b7cf-84a396c25009&quot;}</recraft-signature></metadata></svg>