<svg xmlns="http://www.w3.org/2000/svg" width="1024" height="1024" preserveAspectRatio="none" style="display:block" viewBox="0 0 2048 2048"><path fill="#1f303c" d="m0 1374.86 425.368.09c89.46-.12 180.743-1.04 270.068-.11-8.176 29.05-15.281 52.83-25.125 81.36L0 1455.69zm1352.15.15 695.85.18v80.79l-670.69-.09c-9.17-21.05-20.26-58.44-25.16-80.88"/><path fill="#1f303c" d="m723.089 798.316 86.047-.291.17 295.205c.166 198.81 5.409 408.16-82.787 591.76l-61.019.04-87.349.08c.525-45.61 19.688-99.6 47.467-135.46 105.937-136.72 97.476-294.75 97.262-462.33zm515.951 1.002c28.74.341 57.48.446 86.23.316l-.51 277.756c-.62 99.17-4.38 193.16 15.18 291.53 9.68 48.44 27.1 95 51.58 137.91 11.09 19.85 26.71 36.7 38.4 56.73 23 39.39 38.32 75.47 37.92 121.74l-146.29.01c-49.63-99.64-66.85-196.98-77.14-307.27-3.71-36.5-6.14-73.12-7.28-109.78-.36-16.95.76-35.74.83-53.13l.56-141.63zM956.879 542.877c3.259-9.178 6.333-13.748 13.003-20.639 4.613-4.766 4.15-4.86 4.253-11.408l1.065-1.369c28.95-1.846 73.1-.435 103.18-.421l.06 10.513c6.59 6.931 12.55 13.741 14.85 23.445-.64 7.037.7 19.914 1.88 27.098-.35 11.473-7.51 21.526-13.92 30.657-.3 57.48-.28 114.96.04 172.439.4 36.325 2 85.631.42 121.802-2.28 10.009-2.36 47.934-.05 57.895 1.13 15.12.47 36.466.41 52.101-.19 9.23-1.38 81.15.63 83.73.41 35.96.04 72.48-.01 108.48-12.43-1.12-28.47-.81-41.17-.84-24.92-.03-49.835.12-74.749.46.149-46.35-.915-95.36.142-141.46-8.166-.39-17.407-.18-25.721-.31-.315-3.4-.49-6.13-.977-9.55 4.101-2.75 6.816-4.32 10.446-7.84 9.468-9.18 7.368-19.18 8.619-30.5.088-.79 6.07-.6 7.539-.63l.325-56.173c-3.886.106-11.492.819-14.269-1.192l-2.116-.898c.138-10.173-.797-33.892.455-43.259 1.499-2.259 1.192-5.297 1.666-8.127l.598-1.273c3.722-1.332 10.722-.774 14.966-.694q-.795-148.115.416-296.228c-8.609-6.752-12.626-20.412-14.5-30.856-.67-8.465 1.06-16.64 2.519-24.953"/><path fill="#31444f" d="M940.215 1045.5c4.101-2.75 6.816-4.32 10.446-7.84 9.468-9.18 7.368-19.18 8.619-30.5.088-.79 6.07-.6 7.539-.63 1.046 6.97 1.241 42.05.094 48.83-8.166-.39-17.407-.18-25.721-.31-.315-3.4-.49-6.13-.977-9.55"/><path fill="#9da5ac" d="M952.88 896.881c.659 13.41.809 38.937-.005 52.284l-2.116-.898c.138-10.173-.797-33.892.455-43.259 1.499-2.259 1.192-5.297 1.666-8.127"/><path fill="#df9048" d="M1058.83 823.071c1.78 1.846.9 13.336.82 16.518-10.67 7.424-17.48 11.262-27.48 20.38 9 .13 17.9.046 26.89.093l-.04 15.752-57.27.242a259 259 0 0 1-10.382-.068c-.129-9.87-.644-24.333.916-33.983 1.16-7.168 6.527-9.751 12.026-12.989 5.01-.082 9.38-.038 14.39.113 6.72 4.736 7.71 4.968 12.17 12.341l.72 1.185c8.38-6.471 18.47-13.469 27.24-19.584"/><path fill="#1f303c" d="M1008.94 844.955c17.8.337 14.52 15.339 9.31 16.013-3.17-.026-6.34-.002-9.5.07-7.59.132-5.67-1.038-5.86-8.582-.08-2.981 4.09-5.857 6.05-7.501"/><path fill="#df9048" d="M1058.81 707.875c1.99 2.016 1.11 14.972 1.14 19.219-7.04 7.72-14.6 14.114-21.74 21.401-12.14 12.381 17.06 10.276 21.18 10.298.03 4.713 0 9.427-.11 14.14-21.6-.008-44.56.272-66.119-.297a403 403 0 0 1-.103-13.684l22.192.069c2.02-.009 3.44.287 5.23-.555-.19-.763-6.65-5.436-7.56-6.334-7.61-7.537-15.422-14.728-20.949-23.98a860 860 0 0 1-.008-18.734c11.327 11.099 21.067 22.835 32.067 34.203 11.63-12.138 22.55-24.094 34.78-35.746m-12.23-60.66c4.27-.054 8.55-.042 12.82.034-.08 15.259.26 30.666-.06 45.877l-66.967-.148a3172 3172 0 0 1-.2-43.736c2.138-2.822 9.697-1.611 13.097-1.502.02 9.68-.46 20.213.49 29.734.12 1.196 10.81 1.049 10.94.123 1.03-7.455.42-16.56.48-24.224q6.435-.092 12.87.028l.06 24.482 16.49-.127zm-10.44 313.802c8.16-.19 14.78.026 21.15 7.737 7.6 9.201 5.51 35.746-5.86 41.576-.74.38-8.87-6.76-10.48-8 3.79-6.455 7.6-12.518 7.16-20.329-.25-4.346-2.14-7.749-7.07-7.523-6.19.283-8.13 9.282-9.74 14.054-2.16 6.375-4.1 10.031-8.34 15.188-11.86 8.02-27.282 3.08-31.483-11.153-3.079-10.435-.245-18.716 4.633-28.099 4.71 2.598 7.47 3.699 12.09 5.986-2.1 4.64-6.33 13.978-3.98 17.981 6.27 10.123 11.07 1.732 13.74-5.548 4.07-11.138 7.68-17.125 18.18-21.87m-45.982-66.063a612 612 0 0 1 13.132.035c.23 7.047.34 14.098.31 21.149 18.89.077 38.79-.298 57.59.306l-.03 14.523-22.41-.031a2366 2366 0 0 0-35.04.061c-.57 6.881-.47 12.746-.58 19.633-4.592.215-8.4.218-12.965.17zm1.968-100.035c21.484-.581 45.784-.271 67.454-.22-.04 4.787-.06 9.229-.22 14.027-17.21 1.192-49.07.266-67.427.173q-.07-6.992.193-13.98"/><path fill="#1f303c" d="m528.807 1693.36 990.113-.24-.04 70.73-990.151-.1zM1716.29 556.443c72.8 33.588 147.54 66.621 219.86 100.589-23.45 41.551-38.09 71.492-53.23 117.46-4.96 15.051-14.59 51.254-19.63 63.563-18.87-12.253-48.83-32.097-68.2-42.316-1.77 1.46-2.01 1.57-4 2.702-17.38 7.317-7.61 27.397-36.04 10.309-17.99 1.751-17.3.6-24.26-17.132-17.16-13.303-12.28-16.97-4.9-35.133 1.15-1.86 1.83-2.856 3.2-4.623-26.52-14.782-55.02-33.363-81.82-49.109 17.64-44.142 43.09-105.971 69.02-146.31"/><path fill="#dc2f26" d="M1729.09 751.862c10.7-13.19 9.51-8.32 21.52-14.589 12.22-6.38 8.48-9.169 24.02-.107 8.23 3.856 14.25 5.664 19.29 13.789 2.68 4.319 2.24 9.705 4.09 13.035 7.29 13.086 10.47 21.113-2.92 31.749-1.77 1.46-2.01 1.57-4 2.702-17.38 7.317-7.61 27.397-36.04 10.309-17.99 1.751-17.3.6-24.26-17.132-17.16-13.303-12.28-16.97-4.9-35.133 1.15-1.86 1.83-2.856 3.2-4.623"/><path fill="#511212" d="M1774.74 802.169c-15.71 6.607-33.83-.509-40.86-16.047-7.02-15.537-.39-33.84 14.96-41.273 15.34-7.433 33.82-1.289 41.65 13.853 7.84 15.143 2.19 33.773-12.74 42.01a31 31 0 0 1-3.01 1.457"/><path fill="#dc2f26" d="M1744.99 749.348a29.496 29.496 0 0 1 46.79 20.423 29.5 29.5 0 0 1-17.13 30.185c-13.09 5.931-28.54 1.568-36.6-10.33-8.05-11.899-6.36-27.87 4.01-37.815.98-.862 1.87-1.705 2.93-2.463"/><path fill="#96221e" d="M1774.65 799.956c.99-.449 1.95-.953 2.89-1.508l.21 2.264a31 31 0 0 1-3.01 1.457zm17.13-30.185c.7 2.985.65 3.548.02 6.455.23-2.146.22-4.31-.02-6.455"/><path fill="#1f303c" d="M1645.6 706.549c20.27 14.714 58.03 37.156 80.29 49.936-7.38 18.163-12.26 21.83 4.9 35.133 6.96 17.732 6.27 18.883 24.26 17.132 28.43 17.088 18.66-2.992 36.04-10.309 12.54 10.579 54.76 34.924 70.18 44.195-40.34 58.126-64.44 105.35-81.29 174.184-9.89-6.37-23.38-18.146-32.87-25.726a2296 2296 0 0 0-46.59-35.605l-96.95-70.916c-17.69-12.749-36.71-25.65-53.9-38.868 3.18-4.881 6.38-10.914 9.17-16.096 24.1-44.755 53.64-84.542 86.76-123.06m-627.86-338.077c8.52-.186 17.43-.084 25.98-.118-.27 19.875-.31 39.751-.13 59.626l207.13-.013.2 65.947-216.99-.105-236.827.109.059-65.96 208.958-.08c-.04-9.991-.78-51.152.48-57.962 3.26-1.774 7.31-1.391 11.14-1.444M800.343 1483.02l446.277.04a882 882 0 0 0 13.01 62.54l-12.27.35-459.849.05c4.661-17.67 9.71-45.09 12.832-62.98m684.017-285.99 15.86 27.94 82.81-.13-.03 143.66-39.5-.13-98.75-.07-.55-142.18c11.92-7.25 28.59-20.41 40.16-29.09"/><path fill="#c4c7ca" d="M1517.92 1276.11c2.9.07 9.62 1.23 11.67.57 6.82-2.48 4.9 11.8 3.92 12.58-4.41 3.5-1.04-11.8-4.17-9.57s.84 6.63-4.16 10.48c-1.75-.77-2.42-.69-4.5-.95-1.67.1-1.67.13-2.83-1.17-1.52-.58-1.65.12-2.83 1.11.1-4.54-.01-7.18.5-11.69.78-.4 1.64-.92 2.4-1.36"/><path fill="#31444f" d="M1515.52 1277.47c.78-.4 1.64-.92 2.4-1.36-.01 3.99.03 7.94-.07 11.94-1.52-.58-1.65.12-2.83 1.11.1-4.54-.01-7.18.5-11.69m5.16 11.75c.54-3.02.32-8.2 1.71-9.55 2.36.21 1.43 7.13 2.79 10.5-1.75-.77-2.42-.69-4.5-.95"/><path fill="#c4c7ca" d="M1498.96 1276.87c3.58-.87 12.91-.79 16.56.6-.51 4.51-.4 7.15-.5 11.69-7.04.99-.17-10.46-5.53-9.56-3.43.57 1.21 8.56-4.15 10.41-1.02-.53-2.04-1.04-3.06-1.54-1.7.9-1.76 1.06-3.44 1.47-.9-2.49-1.13-4.99-2.09-7.15-.37-1.96-.6-2.59-.55-4.53.97-.47 1.81-.86 2.76-1.39"/><path fill="#31444f" d="M1496.2 1278.26c.97-.47 1.81-.86 2.76-1.39-.1 4.36-.14 8.71-.12 13.07-.9-2.49-1.13-4.99-2.09-7.15-.37-1.96-.6-2.59-.55-4.53"/><path fill="#233142" d="M1502.28 1288.47c-.16-1.96-1.02-7.39.77-8.96 1.52.25 2 8.83 2.29 10.5-1.02-.53-2.04-1.04-3.06-1.54"/><path fill="#c4c7ca" d="M1479.43 1298.81c2.75.15 8.95-.31 10.38 3.13.2.49.33 1.71-.1 2.15-2.47 2.49-4.91-2.23-8.06-1.06-.62.18-.95.29-1.09.92-.58 4.53 7.97 2.76 9.58 6.98.97 2.56.87 3.83-.17 6.23l-.54 1.3c-.97.1-15.18 1.71-11.76-5.25.41-.84 3.6.7 4.36 1.17 1.34.83 2.89.42 4.56-.21-1.85-5.26-15.65-2.48-7.16-15.36m44.29 9.7c4.35-4.12 12.83-5.03 10.79-.85 0 1.11.06 2.11.11 3.22 8.89 7.31-3.34 8.7-10.87 5.9-.46-.1-1.24.11-1.63.18.08-1.47.13-3.26.33-4.68 1.17-1.82 1.36-1.7 1.27-3.77"/><path fill="#233142" d="M1522.45 1312.28c1.17-1.82 1.36-1.7 1.27-3.77 3.46 4.68 9.56 4.67 8.8 6.68-3.46 2.72-4.29-4.63-8.77 1.59-.46-.1-1.24.11-1.63.18.08-1.47.13-3.26.33-4.68"/><path fill="#31444f" d="M1534.62 1310.88c-7.83-1.88-7.65-2.4-.11-3.22 0 1.11.06 2.11.11 3.22"/><path fill="#c4c7ca" d="M1552.97 1314.01c-1.55 5.23-6.16 6.42-10.51 3.5a6.2 6.2 0 0 1-2.58-3.97c-1.72-9.34 12.83-13.34 13.14-1z"/><path fill="#31444f" d="m1553.02 1312.54-.05 1.47c-4.1.44-5.54 2.85-8.81 1l.59.17-.69-1.18c1.13-1.4 7.19-1.26 8.96-1.46m-7.75-3.85c1.8-.94 1.5-1.1 2.34.56-1.71.81-1.39.96-2.34-.56"/><path fill="#c4c7ca" d="M1482.23 1287.67c-12.63 7.6-14.66-4.72-12.83-13.7 1.15-5.6 11.05-5.54 12.26-1.4.29 1.06.15 2.19-.38 3.14-1.93 3.5-4.33-3.39-6.75-2.88-1.82 1.58-1.69 10.55-.27 12.37 2.48 3.17 4.89-1.63 7.14-1.78l2.8.79.09 1.87c-.69.53-1.37 1.06-2.06 1.59"/><path fill="#31444f" d="m1481.4 1283.42 2.8.79.09 1.87c-.69.53-1.37 1.06-2.06 1.59z"/><path fill="#c4c7ca" d="M1506.01 1316.1a6.85 6.85 0 0 1-8.61 2.01 6.844 6.844 0 0 1-3.4-8.16 6.83 6.83 0 0 1 7.49-4.7c3.31.47 5.79 3.26 5.87 6.61.04 1.52-.44 3.01-1.35 4.24"/><path fill="#31444f" d="M1506.01 1316.1c-15.28-1.52-7.07-2.56 1.35-4.24.04 1.52-.44 3.01-1.35 4.24m-6.79-7.4c1.44-.37 1.33-.41 2.57-.42.22.43.06.55-.09 1.18-2.1.27-2.66 1.03-2.48-.76"/><path fill="#c4c7ca" d="M1547.76 1287.73a6.606 6.606 0 0 1-9.32-.02 6.597 6.597 0 0 1-.03-9.32 6.606 6.606 0 0 1 9.32-.08 6.57 6.57 0 0 1 1.99 4.71c.01 1.77-.7 3.47-1.96 4.71"/><path fill="#1f303c" d="M1542.04 1278.49c4.53 2.25 3.44 4.47 2.67 9.3-4.95-2.73-4.28-3.76-2.67-9.3"/><path fill="#c4c7ca" d="M1547.73 1278.31c1.26-.09 2.45-.07 3.68-.34l1.76-.44c9.64-2.52 12.11 2.88 9.5 12-5.59 4.19-1.85-9.51-5.13-9.73-5.33-.35.95 13.11-6.4 9.25l-3.38-1.32a6.56 6.56 0 0 0 1.96-4.71c0-1.78-.72-3.47-1.99-4.71"/><path fill="#31444f" d="M1547.73 1278.31c1.26-.09 2.45-.07 3.68-.34.47 4.59.31 6.54-.27 11.08l-3.38-1.32a6.56 6.56 0 0 0 1.96-4.71c0-1.78-.72-3.47-1.99-4.71"/><path fill="#c4c7ca" d="M1484.2 1284.21c1-6.01 3.83-11.18 10.46-6.89l1.54.94c-.05 1.94.18 2.57.55 4.53-1.95 8.12-6.72 9.64-12.46 3.29z"/><path fill="#31444f" d="M1489 1279.94c2.44-1.45 3.05-1.28 4.07 1.43l.5 1.27c-3.26-.48-7.08.25-4.57-2.7"/><path fill="#233142" d="M1489.41 1284.73c.82-.51 1.25-.93 2.13-.98.59.48.09.95-.06 1.69-1.64 1.2-2.06 1.55-2.07-.71"/><path fill="#c4c7ca" d="M1509.83 1305.47c8.54.13 10.66-2.32 12.62 6.81-.2 1.42-.25 3.21-.33 4.68-2.79 3.67-4.17 1.79-4.24-1.95-.03-1.26.77-8.1-2.83-6.84-2.69 1.48-.4 8.7-1.88 9.96-4.84 4.09-3.34-11.58-3.34-12.66"/><path fill="#1f303c" d="M289.942 1198.32c3.569 3.61 12.119 21.06 14.934 26.68l83.929.01.084 143.11-38.389-.02-99.688.16-.514-142.19c13.368-8.57 25.812-19.6 39.644-27.75"/><path fill="#c4c7ca" d="M324.248 1277.42c1.688-1.35 14.511-1.68 16.961 1.35l2.059.56c.325 3.63.348 4.43.026 8.05-1.704.74-1.682.62-2.988 1.65-.834.2-1.669.39-2.503.59l-4.47-.98c-4.841 3.93-.26-12.92-4.358-9.57-2.652 2.16 1.88 8.44-3.632 10.9-1.64.19-3.333.52-4.968.79 1.774-6.11.734-4.79 1.267-11.14l.091-1.01c.714-.14 2.054-.95 2.515-1.19"/><path fill="#31444f" d="m333.333 1288.64.528-1.79c.675-2.39-.344-5.72 1.745-7.59 2.946-.52 2.174 9.1 2.197 10.36z"/><path fill="#233142" d="M324.248 1277.42c-.211 5-1.018 8.33 1.095 12.55-1.64.19-3.333.52-4.968.79 1.774-6.11.734-4.79 1.267-11.14l.091-1.01c.714-.14 2.054-.95 2.515-1.19"/><path fill="#31444f" d="m341.209 1278.77 2.059.56c.325 3.63.348 4.43.026 8.05-1.704.74-1.682.62-2.988 1.65.907-4.38.712-5.69.903-10.26"/><path fill="#c4c7ca" d="M296.844 1315.09c-3.234 3.39-3.591 2.86-8.832 3.31-3.201.28-8.624-2.5-5.376-6.23 1.406-.46 4.349 2.3 4.984 2.55 4.695 2.05 6.79-4.42 1.378-4.71-6.205.2-10.474-6.46-5.374-10.73 1.18-.99 10.327-1.43 11.754 1.52-1.524 3.96-7.353-.86-9.357 2.57 1.344 3.99 7.445.63 10.767 7.38-.021 1.47.021 2.86.056 4.34m4.336-37.1c.751-.03 1.754-.03 2.489-.19 5.103-1.36 13.563-2.61 18.064.81l-.091 1.01c-.533 6.35.507 5.03-1.267 11.14-4.856-4.31-.432-9.78-3.832-11.02-3.945.97-.756 9.75-4.121 10.09-3.127-1.52-.296-8.57-1.997-9.7-5.679-3.77-.581 10.1-5.584 9.19-2.106-2.61-1.733-3.84-3.793-1.48.011-3.31.002-6.55.132-9.85"/><path fill="#31444f" d="M301.18 1277.99c.751-.03 1.754-.03 2.489-.19.292 5.46-.124 6.26 1.172 11.52-2.106-2.61-1.733-3.84-3.793-1.48.011-3.31.002-6.55.132-9.85"/><path fill="#c4c7ca" d="M298.626 1309.52c5.775-8.78 10.894-4.27 14.62 2.82-.677 1.58-1.15 2.29-2.054 3.77-4.533 4.65-8.616 3.03-12.551-1.37l-1.797.35c-.035-1.48-.077-2.87-.056-4.34z"/><path fill="#31444f" d="M313.246 1312.34c-.677 1.58-1.15 2.29-2.054 3.77-3.366-3.72-3.643.53-8.236-2.03l.225-1.06c1.804-.96 7.986-.64 10.065-.68m-16.458-1.59 1.838-1.23c.178 2.03.097 3.17.015 5.22l-1.797.35c-.035-1.48-.077-2.87-.056-4.34m8.111-2.01c1.072-.31 1.37-.75 1.883.39-1.027.32-1.119.4-1.883-.39"/><path fill="#c4c7ca" d="M276.711 1268.83c1.282.05 13.037-.31 9.468 6.74-2.97 1.49-4.159-5.04-7.734-1.9-2.818 2.47.033 18.48 3.14 10.82 1.438-1.12 2.348-2.02 4.142-2.41l1.134.74c-.474 9.05-11.613 9.05-12.671 2.17-.98-6.38-1.111-10.92 2.521-16.16"/><path fill="#c4c7ca" d="M301.048 1287.84c-15.179 8.56-17.136-17.95.132-9.85-.13 3.3-.121 6.54-.132 9.85"/><path fill="#1f303c" d="M293.852 1278.3c2.935 1.46 3.601 1.72 3.236 5.26l-.394 3.51c-4.882-2.46-3.844-3.07-2.842-8.77"/><path fill="#c4c7ca" d="M357.732 1314.41c-4.244 7.34-10.083 4.88-12.371-.53-2.492-5.89 9.269-15.6 12.757-1.41z"/><path fill="#31444f" d="m358.118 1312.47-.386 1.94c-2.104.06-6.393 1.69-7.319 1.09-4.877-3.17 6.955-2.94 7.705-3.03m-7.722-3.64c.241-.06 1.456-.26 1.654-.29.117.39-.084.6-.263 1.06-.229.01-1.355-.04-1.528-.05-.072-.34-.074-.12.137-.72"/><path fill="#c4c7ca" d="M343.268 1279.33c4.136-3.58 8.304-4.32 12.108.03-.348 3.51-.394 6.35-.526 9.82-5.52.37-7.283 1.2-11.556-1.8.322-3.62.299-4.42-.026-8.05"/><path fill="#1f303c" d="M348.124 1278.48c4.75 2.05 3.824 4.06 2.821 8.95-5.48-1.87-4.496-3.65-2.821-8.95"/><path fill="#c4c7ca" d="M332.075 1312.03c-6.551-5.69 5.264-9.7 8.265-4.76.034 1.15.251 2.58.391 3.71 8.293 10.77-16.335 7.74-9.181 3.68.134-.54.576-1.91.525-2.63"/><path fill="#31444f" d="M340.731 1310.98c-9.213-2.49-8.054-1.8-.391-3.71.034 1.15.251 2.58.391 3.71"/><path fill="#4e5a66" d="M332.075 1312.03c.96.29 6.346 1.32 5.365 3.23-1.323.9-4.483-.28-5.89-.6.134-.54.576-1.91.525-2.63"/><path fill="#c4c7ca" d="M315.034 1305.3c4.404.4 7.062-.06 11.512-.12.125 1.76.686 11.88.295 12.26-4.758 4.61-4.015-7.17-4.03-7.38-.39-1.25-.404-1.56-1.456-2.27-4.615.75-.587 8.19-4.478 11.11-3.525.16-1.896-10.93-1.843-13.6m42.934-26.34c.916-2.81 2.091-2.39 5.153-3.18.791 1.22 1.008 1.66 1.668 2.99-6.003 5.13-.431 6.76-5.545 11.83-1.557-.56-2.783-1.02-4.394-1.42.132-3.47.178-6.31.526-9.82z"/><path fill="#233142" d="m355.376 1279.36 2.592-.4c.067 5.43-.568 6.96 1.276 11.64-1.557-.56-2.783-1.02-4.394-1.42.132-3.47.178-6.31.526-9.82"/><path fill="#c4c7ca" d="m363.121 1275.78 1.456.36c5.914 1.34 6.015 7.6 4.547 11.92-2.695 7.91-4.247-8.94-4.335-9.29-.66-1.33-.877-1.77-1.668-2.99"/><path fill="#1f303c" d="M89.36 1197.84c3.666 3.3 12.764 21.53 15.679 27.11l83.795.03.005 143.21-38.339-.08-99.65-.02-.428-141.41z"/><path fill="#c4c7ca" d="m104.023 1276.24 3.474.16c4.285-.01 9.554-.16 13.505 1.3-.09 3.95-.057 7.85-.16 11.82-1.865.2-1.648.17-3.604-.21l-3.338.32c-1.525-.14-1.43-.06-2.789-.49-.966-.22-2.312-.58-3.269-.62-1.716.17-3.282.91-3.726-1.2l-.273-1.16c-.385-.37-.903-1.13-1.477-1.27-.309.12-.144 0-.464.44-.605-2.84-1.035-5.46-1.491-8.33 1.223-.23 2.397-.49 3.612-.76"/><path fill="#31444f" d="M113.9 1289.63c.791-14.22 3.688-13.75 3.338-.32zM100.411 1277c1.223-.23 2.397-.49 3.612-.76-.023 3.36-.042 6.57-.18 9.92-.385-.37-.903-1.13-1.477-1.27-.309.12-.144 0-.464.44-.605-2.84-1.035-5.46-1.491-8.33"/><path fill="#233142" d="M107.842 1288.52c-.056-2.44-.431-6.25.694-8.51.273-.54 1.142-.71 1.513-.29 1.524 1.69.993 7.46 1.062 9.42-.966-.22-2.312-.58-3.269-.62"/><path fill="#c4c7ca" d="M124.949 1275.95c1.82-.28 1.885-.19 3.762.16 6.237 1.62 6.564-1.15 12.282 1.82l2.304.64c-.221 3.6-.208 5.35.06 8.94l-2.252.66c-4.927 7.24-2.614-8.07-4.783-8.66-5.25-1.44-.831 15.65-6.426 8.33-1.188-.22-1.456.1-2.835.62-1.149 1.02-1.031.97-2.574 1.26l-3.645-.2c.103-3.97.07-7.87.16-11.82 1.274-.55 2.709-1.13 3.947-1.75"/><path fill="#c4c7ca" d="M124.949 1275.95c1.82-.28 1.885-.19 3.762.16.807 6.01 1.589 4.29 1.185 11.73-1.188-.22-1.456.1-2.835.62-1.149 1.02-1.031.97-2.574 1.26l-3.645-.2c.103-3.97.07-7.87.16-11.82 1.274-.55 2.709-1.13 3.947-1.75"/><path fill="#233142" d="M121.002 1277.7c1.274-.55 2.709-1.13 3.947-1.75-1.445 6.14-1.369 7.27-.462 13.77l-3.645-.2c.103-3.97.07-7.87.16-11.82"/><path fill="#31444f" d="M124.949 1275.95c1.82-.28 1.885-.19 3.762.16.807 6.01 1.589 4.29 1.185 11.73-1.188-.22-1.456.1-2.835.62-.021-4.81 1.481-9.39-2.112-12.51m16.044 1.98 2.304.64c-.221 3.6-.208 5.35.06 8.94l-2.252.66c-.14-3.63-.176-6.61-.112-10.24"/><path fill="#c4c7ca" d="M85.28 1310.01c-10.988-12.28 9.523-15.4 9.667-8.27-1.32 1.89-12.57-2.45-7.349 4.03 2.137 2.66 12.134 3.32 7.424 10.72-3.12 4.93-17.042 1.89-11.76-4.49.485-.45 1.598-1.43 2.017-1.99"/><path fill="#1f303c" d="M85.28 1310.01c6.242.77 10.763 7.63-2.017 1.99.484-.45 1.597-1.43 2.016-1.99"/><path fill="#c4c7ca" d="M111.189 1314.28c-1.392 5.73-7.353 6.31-10.148 3.16-10.242-11.57 13.324-19.36 10.347-4.48z"/><path fill="#31444f" d="M111.189 1314.28c-9.709 2.8-12.166-1.46.199-1.32zm-6.873-5.56c.44-.25 1.045-.83 1.592-.73.424.37.352.54.569 1.25-1.362.6-1.367.79-2.161-.52"/><path fill="#c4c7ca" d="M158.046 1315.4c-7.759 10.47-19.31-3.48-9.039-10.12 3.803-2.46 10.702 1.79 7.921 7.17.346 1.02.726 1.95 1.118 2.95"/><path fill="#31444f" d="M158.046 1315.4c-4.166-.16-6.917 1.42-9.485-1.75 2.31-2.05 5.379-1.24 8.367-1.2.346 1.02.726 1.95 1.118 2.95"/><path fill="#c4c7ca" d="M101.902 1285.33c-10.129 16.32-22.9-14.89-1.491-8.33.456 2.87.886 5.49 1.491 8.33"/><path fill="#31444f" d="M93.54 1278.23c5.148 2.23 3.543 3.17 3.143 9.06-4.628-2.99-3.843-3.22-3.142-9.06"/><path fill="#c4c7ca" d="M157.641 1277.4c2.527-1.22 3.112-.43 5.952-1.12 2.391-.79 5.612.97 5.435 3.65-.079 1.19.637 9.05-.673 9.63-5.597 2.46-1.325-8.8-4.044-10.09-1.461-.69-2.528.71-2.737 1.71-.8 2.7.574 6.17-.948 8.14-.146.17-.686.15-.839.04-.336-.15-.671-.29-1.007-.44-1.725-.37-2.038-.35-3.965-.5.1-2.89.146-5.55-.188-8.42l-.188-1.87c1.312-.23 1.966-.29 3.202-.73"/><path fill="#233142" d="M154.439 1278.13c1.312-.23 1.966-.29 3.202-.73.225 5.53-.31 6.37 1.139 11.52-1.725-.37-2.038-.35-3.965-.5.1-2.89.146-5.55-.188-8.42z"/><path fill="#c4c7ca" d="M77.232 1268.42c2.41.49 12.43 3.06 8.758 7.46-4.081 1.25-4.847-6.19-6.993-2.91-1.032 1.57-.812 9.48-.45 11.58.277 1.62 1.676 1.17 2.667.47.289-.26 2.21-2.01 2.223-2.01 11.197.2-6.522 12.96-8.728 3.03-1.348-6.07-1.023-12.65 2.522-17.62m66.066 10.15c3.542-2.11 5.523-3.39 9.459-1.29l1.683.85.188 1.87c.334 2.87.288 5.53.188 8.42-5.401 1.97-6.639 2.37-11.458-.91-.268-3.59-.281-5.34-.06-8.94"/><path fill="#1f303c" d="M147.999 1278.48c4.543 2.3 3.454 4.4 2.643 9.31-4.965-2.69-4.324-3.71-2.643-9.31"/><path fill="#c4c7ca" d="M132.756 1312.25c-10.856-5.21 11.223-10.61 6.93-4.7l.835 3.93c7.041 5.68-7.756 11.48-10.829 3.59q1.552-1.38 3.064-2.82"/><path fill="#31444f" d="M132.756 1312.25c-.074-.02 7.677 2.24 3.827 3.41-.996.31-5.653-.47-6.891-.59q1.552-1.38 3.064-2.82m7.765-.77c-5.205-1.9-9.899-3.01-.835-3.93z"/><path fill="#c4c7ca" d="M115.024 1305.19c2.139.04 9.111-.76 10.147.54 2.323 2.93 3.662 11.16-.293 13.44l-1.285-.57c-.831-1.97-.781-6.17-.95-8.5-.326-1.47-.246-1.61-1.367-2.36-4.69 1.61-.269 9.59-4.054 11.12-3.902-.53-2.216-10.26-2.198-13.67"/><path fill="#1f303c" d="M490.691 1198.23c4.61 4.7 11.616 20.25 14.695 26.86l83.843-.15-.096 143.31-38.633-.06-99.369-.14.24-141.73c11.409-8.84 27.417-19.93 39.32-28.09"/><path fill="#c4c7ca" d="M553.873 1288.81c-17.978 2.97-12.638-18.41.935-10.31l2.11-1.28c2.967-1.71 3.486.61 7.097-.49 2.798-.85 5.631 1.15 5.066 4.25-.066 1.42.486 7.31-.702 8.07-5.432 3.49-1.216-9.59-4.374-9.3-4.94.44.077 11.39-5.134 9.16-2.061-.33-2.985-.66-4.998-.1"/><path fill="#c4c7ca" d="M553.873 1288.81c-17.978 2.97-12.638-18.41.935-10.31-.394 3.38-.531 6.8-.935 10.31"/><path fill="#31444f" d="M547.82 1278.43c4.305 2.6 3.561 4.18 2.167 8.93-4.612-2.48-3.574-4.08-2.167-8.93"/><path fill="#233142" d="M556.918 1277.22c.348 4.69.574 7.2 1.953 11.69-2.061-.33-2.985-.66-4.998-.1.404-3.51.541-6.93.935-10.31z"/><path fill="#c4c7ca" d="M504.09 1277.66c3.119-2.87 8.29.17 12.937-1.41 5.761-1.95 4.765 10.74 3.638 12.43-.608.26-1.476-.56-1.927-.84l-3.435.65c-7.344 4.22-.439-10.57-6.03-9.96-2.459.27.553 15.94-4.88 9.94l-1.893-.44c-.798-4.07-.662-5.82.07-9.89z"/><path fill="#233142" d="M504.09 1277.66c.186 3.66.207 7.15.303 10.81l-1.893-.44c-.798-4.07-.662-5.82.07-9.89z"/><path fill="#31444f" d="M515.303 1288.49c.142-1.91.289-6 .667-7.71l.02.17.399-1.14c1.859-.93 1.987 6.35 2.349 8.03z"/><path fill="#c4c7ca" d="M494.098 1308.08c11.424 10.3-9.04 14.6-10.15 7.04 1.436-2.32 5.909.59 8.338-.51 2.597-.63 1.158-3.7-.777-3.69-8.537.05-10.496-11.44-3.057-13.27 2.364-.58 7.729.72 7.427 4.8l-.074 1.49c-.892 1.75-1.07 2.24-1.707 4.14"/><path fill="#233142" d="M494.098 1308.08c-3.491-.9-5.714-1.07-6.519-4.68l.73-.88c2.763-.89 4.372.93 7.496 1.42-.892 1.75-1.07 2.24-1.707 4.14"/><path fill="#c4c7ca" d="M527.798 1288.64c-5.089 3.53-7.035-12.95.233-12.47l1.791.22c2.223.2 8.401-.47 9.787.94 1.404 1.42 1.944 10.53.12 12.02-.306.25-.702.35-1.09.29-2.684-.43-.278-8.92-2.129-9.94-3.277-1.81-3.076 5.01-3.16 6.31-.141 2.17-.422 4.77-2.95 2.69z"/><path fill="#c4c7ca" d="M527.798 1288.64c-5.089 3.53-7.035-12.95.233-12.47l1.791.22c.188 4.3.184 7.97.578 12.31z"/><path fill="#31444f" d="m528.031 1276.17 1.791.22c.188 4.3.184 7.97.578 12.31l-2.602-.06c.162-4.23.199-8.25.233-12.47"/><path fill="#c4c7ca" d="M546.436 1308.73c6.23-8.32 10.945-2.73 13.354 4.84-.333 1.7-.404 2.49-.574 4.25-6.245 1.83-8.195 2.19-13.21-1.72l.511-2.96.593-2.37z"/><path fill="#4e5a66" d="M546.436 1308.73c1.556-.13 6.436-1.28 7.768-.09a.9.9 0 0 1 .299.78c-.19 1.57-6.006 1.23-7.393 1.35z"/><path fill="#233142" d="M555.163 1315.85c-6.858-.04-6.412-3.61 1.497-1.92z"/><path fill="#767e87" d="m556.66 1313.93 3.13-.36c-.333 1.7-.404 2.49-.574 4.25-1.651-.99-2.244-1.53-4.053-1.97z"/><path fill="#c4c7ca" d="M490.404 1281.53c2.338-5.4 5.288-7.5 10.951-4.1l1.215.71c-.732 4.07-.868 5.82-.07 9.89-5.402 1.38-7.595 2.79-11.443-1.35l-2.446.79q-.039-2.655.02-5.31c.973-.01 1.276.13 1.773-.63"/><path fill="#31444f" d="M490.404 1281.53c.364 2.03.48 3.12.653 5.15l-2.446.79q-.039-2.655.02-5.31c.973-.01 1.276.13 1.773-.63"/><path fill="#1f303c" d="M494.944 1278.42c5.187 1.89 3.936 5.51 1.537 9.49-2.892-3.51-2.274-4.64-1.537-9.49"/><path fill="#c4c7ca" d="M509.837 1315.79c1.987 1.46 2.549 1.93-.212 3.17-8.323 3.74-11.564-8.67-7.784-12.04 4.621-4.13 11.539-1.69 11.392 5.98-1.465 1.01-2.086 1.66-3.396 2.89"/><path fill="#233142" d="M509.837 1315.79c-1.178.02-4.122.49-4.714-1.05.478-2.35 4.468-1.85 6.074-1.83l2.036-.01c-1.465 1.01-2.086 1.66-3.396 2.89"/><path fill="#31444f" d="M507.038 1308.04c.335-.09.578-.22.852-.12.128.42-.029.72-.134 1.23-.902.23-1.64.53-2.128.4.121-.46.767-.91 1.41-1.51"/><path fill="#c4c7ca" d="M488.611 1287.47c-10.762 7.74-15.403-3.61-13.225-12.93 2.001-8.57 13.035-4.31 13.511-1.01.969 8.73-8.658-6.43-9.221.46-1.27 15.53.259 13.51 8.955 8.17a145 145 0 0 0-.02 5.31m55.523 30.15c-2.297.78-14.763 2.84-11.981-2.56 1.614-.88 5.648 2.26 7.348.21-.112-2.18-10.042-2.15-7.418-7.32 1.539-3.04 9.435-4.31 10.023.34l-.583 3.29c.725.33 1.841.53 2.613.71l2.381.85-.511 2.96z"/><path fill="#31444f" d="M541.523 1311.58c-11.082-3.26-3.097-2.91.583-3.29z"/><path fill="#233142" d="m544.136 1312.29 2.381.85-.511 2.96-1.872 1.52c-.02-1.78-.019-3.56.002-5.33"/><path fill="#c4c7ca" d="M516.541 1305.88c6.335-.04 12.169-2.04 11.714 6.14-.123 2.2.875 7.65-3.074 7.04-1.122-1.55-.779-6.78-.857-9.08-5.258-6.92-3.07 7.6-5.903 9.23-3.025-.79-1.917-10.52-1.88-13.33"/><path fill="#1f303c" d="M1887.95 1198.72c2.96 1.96 13.35 21.68 16.06 26.37l83.04.01.16 142.89h-37.71l-100.46.05-.22-141.73c12.98-8.61 25.75-18.7 39.13-27.59"/><path fill="#c4c7ca" d="M1888.59 1280.81c3.19-5.87 4.42-6.15 11.15-3.54 1.59.56 1.43.37 3.18-.43 2.19-.59 13.93-.56 16.39-.3.71.52 1.5.6 2.41.84l.45 1.9c-.12-.53.69 17.83 3.89 8.04 6.26 5.11-10.28 5.1-11.63 3.01-.54-.85-.28-7.26-.37-8.56-.62 3.51.39 7.77-3.4 7.74l-4.69-.25c-.95.19-1.9.38-2.85.58-.99-.53-1.92-1.05-2.93-1.55-4.48 1.34-7.92 2.71-11.17-1.17l-.91-1.05c.24-1.95.45-3.31.48-5.26"/><path fill="#c4c7ca" d="M1888.59 1280.81c3.19-5.87 4.42-6.15 11.15-3.54.03 2.51.21 5.21.29 7.77.04 1.09.1 2.17.16 3.25-4.48 1.34-7.92 2.71-11.17-1.17l-.91-1.05c.24-1.95.45-3.31.48-5.26"/><path fill="#1f303c" d="M1892.97 1278.3c4.8 2 3.77 4.6 1.86 8.99-3.91-2.74-2.79-4.5-1.86-8.99"/><path fill="#233142" d="M1919.31 1276.54c.71.52 1.5.6 2.41.84l.45 1.9c-.12-.53.69 17.83 3.89 8.04 6.26 5.11-10.28 5.1-11.63 3.01-.54-.85-.28-7.26-.37-8.56 1.89-8.1 1.68 8.45 3.83 8.05 3.96-.73 1.7-11.63 1.42-13.28"/><path fill="#31444f" d="M1899.74 1277.27c1.59.56 1.43.37 3.18-.43-.01 4.47-.02 8.52.2 13-.99-.53-1.92-1.05-2.93-1.55-.06-1.08-.12-2.16-.16-3.25-.08-2.56-.26-5.26-.29-7.77m6.23 11.99c.22-3.05.06-6.87 1.52-9.5.93-.33.57-.4 1.09-.22 1.76 1.97 1.55 6.98 2.08 9.97z"/><path fill="#c4c7ca" d="m1942.42 1277.81 1.54-.71c3.62-1.72 5.75-.5 9.63-.08l2.39.11c1.5-.86 12.95-2.15 11.94 2.84-.59 2.96 1.73 8.63-1.79 10.3-3.99-1.87-.56-9.71-3.51-10.52-3.92-1.07-1.68 8.39-3.39 9.48-1.53.97-1.43.59-2.71.49-1.01-.14-2.67-.42-3.71-.44-4.32.84-4.84.96-9.12.09-1.72-5.48-2.06-5.71-1.27-11.56"/><path fill="#c4c7ca" d="m1942.42 1277.81 1.54-.71c3.62-1.72 5.75-.5 9.63-.08.33 6.21.74 6.49-.78 12.26-4.32.84-4.84.96-9.12.09-1.72-5.48-2.06-5.71-1.27-11.56"/><path fill="#1f303c" d="M1947.09 1278.76c4.35 2.31 3.93 3.83 2.81 8.29-5.3-1.36-4.53-3.35-2.81-8.29"/><path fill="#233142" d="m1953.59 1277.02 2.39.11c.2 4.4.15 8.15.54 12.59-1.01-.14-2.67-.42-3.71-.44 1.52-5.77 1.11-6.05.78-12.26"/><path fill="#c4c7ca" d="M1921.72 1277.38c2.7-1.76 14.14-1.26 17.57-.69 1.1.44 2.01.74 3.13 1.12-.79 5.85-.45 6.08 1.27 11.56-1.46-.11-2.84-.21-4.3-.27-.46.16-.91.33-1.37.49-1.44.25-1.76-1.64-1.78-2.58-.05-2.21.22-4.36-.35-6.45-.21-.76-1.44-1.51-1.97-.7-1.19 1.54-.97 4.4-.93 6.15.04 1.25-.45 4.64-2.41 3.87-3.17-1.35-.3-8.22-1.91-10.29-1.37-1.76-3.05 1.57-2.77 2.97.21 1.06.14 3.6.16 4.76-3.2 9.79-4.01-8.57-3.89-8.04z"/><path fill="#233142" d="M1939.29 1276.69c1.1.44 2.01.74 3.13 1.12-.79 5.85-.45 6.08 1.27 11.56-1.46-.11-2.84-.21-4.3-.27.76-5.16.64-7.18-.1-12.41"/><path fill="#c4c7ca" d="M1883.08 1297.96c2.87.1 7.28-.3 9.83 1.62 1.74 1.36.61 3.81-1.5 2.92 0-1.4-8.43-1.4-6.74.95 4.33 6.03 17.36 4.83 6.73 15.66-2.53-.06-13.28-.06-10.26-6.08.24-.48.69-.82 1.22-.91 1.72-.3 4.36 5.42 8.38 1.75 1.95-5.79-16.7-1.61-7.66-15.91m44.74 12.87c2.52-7.19 8.29-7.42 12.93-1.98-.97.56-1.66 1.32-2.51 2.11 6.09 7.98-4.82 10.86-10.92 4.49l-1.86 2.53.3-5.74z"/><path fill="#233142" d="m1925.76 1312.24 2.06-1.41c1.07.53 7.79 3.33 8.06 3.98-.26 1.39-6 .07-8.56.64l-1.86 2.53z"/><path fill="#31444f" d="M1938.24 1310.96c-2.53-.34-3.69-.38-5.89-1.58l.41.3-.26-.6-.08-.04c1.14-1.55 5.59-.27 7.28-.21l1.05.02c-.97.56-1.66 1.32-2.51 2.11"/><path fill="#c4c7ca" d="M1885.79 1287.05c-12.59 7.01-15.63-6.72-12.27-14.21a5.9 5.9 0 0 1 3.28-3.09c3.41-1.29 11.89-.02 8.62 5.63-1.11 1.91-3.64-5.01-6.77-3.17-3.82 2.24-2.93 8.6-1.18 11.92 2.23 3.67 5.71-1.28 8.16-2.9 1.33-.07 1.71 0 2.96-.42-.03 1.95-.24 3.31-.48 5.26-1.03.31-1.36.51-2.32.98"/><path fill="#233142" d="M1888.59 1280.81c-.03 1.95-.24 3.31-.48 5.26-1.03.31-1.36.51-2.32.98.05-2.26 0-3.6-.16-5.82 1.33-.07 1.71 0 2.96-.42"/><path fill="#c4c7ca" d="M1910.33 1315.73c-6.64 8.74-15.96-1.6-12.09-7.13 4.43-6.32 11.13-4.41 12.75 4.54z"/><path fill="#31444f" d="M1910.33 1315.73c-3.72-.64-5.97 1.08-8.72-.98.22-2.79 7.48-1.67 9.38-1.61z"/><path fill="#1f303c" d="M1902.55 1308.76c.71-.23 1.47-.69 2.21-.58.2.52-.07.84-.26 1.48-.94.1-1.57.38-2.31.05.04-.52-.02-.18.36-.95"/><path fill="#c4c7ca" d="M1955.2 1316.88c-4.05 3.28-9.83 2.75-11.3-2.85-2.57-9.77 12.56-13.35 11.95-1.11-.25 1.33-.44 2.62-.65 3.96"/><path fill="#31444f" d="M1955.2 1316.88c-8.68-2.24-10.28-2.86.65-3.96-.25 1.33-.44 2.62-.65 3.96m-5.84-8.09c1.01-.4 1.07-.48 1.73.46-.51.28-.78.55-1.32.47-.24-.33-.09-.08-.41-.93"/><path fill="#c4c7ca" d="M1913.6 1305.25c8.3-.15 11.2-1.56 12.16 6.99l-.3 5.74c-6.39 4.9-1.06-11.11-6.29-9.66-3.63 1.01 1.05 13.77-5.64 9.67-.69-.42.14-5.17.13-6.5z"/><path fill="#1f303c" d="M1687.45 1198.68c3.97.35 15.01 21.77 17.53 26.25l83 .13c.12 47.68-.03 95.35-.46 143.02h-35.02l-102.16.1-.35-141.34c11.66-9.07 25.44-19.87 37.46-28.16"/><path fill="#c4c7ca" d="M1699.51 1275.74c1.78.03 2.95-.19 4.73-.42 1.33.54 2.35.89 3.71 1.34l1.08-.03c1.33 4.64 1.05 6.13.92 11.21-.89.1-1.62.11-2.43.33l-3.35 1.04c-1.36-.28-2.33-.58-3.7-.58-8.11 1.08-14.27 1.48-9.66-11.01.78-2.12 6.72-1.75 8.7-1.88"/><path fill="#c4c7ca" d="M1699.51 1275.74c1.78.03 2.95-.19 4.73-.42 1.33.54 2.35.89 3.71 1.34l1.08-.03c1.33 4.64 1.05 6.13.92 11.21-.89.1-1.62.11-2.43.33l-3.35 1.04c-1.36-.28-2.33-.58-3.7-.58.32-6.4.94-6.83-.96-12.89"/><path fill="#233142" d="M1699.51 1275.74c1.78.03 2.95-.19 4.73-.42-.42 5.22-.42 8.68-.07 13.89-1.36-.28-2.33-.58-3.7-.58.32-6.4.94-6.83-.96-12.89"/><path fill="#31444f" d="m1707.95 1276.66 1.08-.03c1.33 4.64 1.05 6.13.92 11.21-.89.1-1.62.11-2.43.33-.25-4.42.03-7.15.43-11.51"/><path fill="#c4c7ca" d="M1682.6 1297.97c3.29-.14 13.08-1.68 11.32 4.73-.98 3.58-5.43-2.58-9.09.29-1.2 5.47 14.53 2.99 8.37 15.35-3.37.53-6.97 1.39-10.25-.28-1.2-.23-2.72-4.05-1.65-4.72 2.14-1.5 6.37 4.01 8.56.58 2.15-3.35-7.19-3.83-8.21-6.73-.94-2.69-.8-4.03.1-6.77.28-.82.56-1.63.85-2.45m26.43-21.34c5.19-1.3 7.51-.66 12.02 1.52 1.2-.57 2.06-1.16 3.19-1.87 1.32.12 1.87.06 3.23.01-.48 4.28-.56 5.2-.32 9.55-.52 2.73-.22 4.06-3.14 3.16-.9-.49-2.09-.9-3.06-1.29-7.57 4.9-.47-7.23-5.66-8.47-3.74 1.86 1.66 13.18-5.34 8.6.13-5.08.41-6.57-.92-11.21"/><path fill="#c4c7ca" d="M1724.24 1276.28c1.32.12 1.87.06 3.23.01-.48 4.28-.56 5.2-.32 9.55-.52 2.73-.22 4.06-3.14 3.16-.9-.49-2.09-.9-3.06-1.29.03-1.4.04-2.81.02-4.21-.04-2.37-.15-3.03.08-5.35 1.2-.57 2.06-1.16 3.19-1.87"/><path fill="#233142" d="M1721.05 1278.15c1.2-.57 2.06-1.16 3.19-1.87-.41 4.85-.39 7.92-.23 12.72-.9-.49-2.09-.9-3.06-1.29.03-1.4.04-2.81.02-4.21-.04-2.37-.15-3.03.08-5.35"/><path fill="#c4c7ca" d="M1757.41 1315.11c-3.27 7.15-12.15 4.46-13.34-1.58-2.04-10.29 14.21-12.89 13.64-.46z"/><path fill="#31444f" d="M1757.41 1315.11c-13.25 1.05-11.58-2.34.3-2.04zm-8.02-6.43c1.54-.99 1.57-1.17 2.32.55-1.52.74-1.61 1.13-2.32-.55"/><path fill="#c4c7ca" d="M1754.59 1287.13c-12.44 10.83-18.67-15.27-.91-9.77 1.6.42 1.61.29 3.36-.1.01 3.32.03 6.32-.13 9.65-.94-.26-1.17-.05-2.32.22"/><path fill="#31444f" d="M1757.04 1277.26c.01 3.32.03 6.32-.13 9.65-.94-.26-1.17-.05-2.32.22-.55-3.61-.57-6.22-.91-9.77 1.6.42 1.61.29 3.36-.1"/><path fill="#1f303c" d="M1748.1 1278.51c4.19 2.64 3.26 4.9 1.55 9.27-2.6-2.15-4.26-3.42-2.65-6.9z"/><path fill="#c4c7ca" d="M1675.42 1269.02c2.52-.03 6.1-.53 8.47.56 1.97.86 3.95 3.79 2.53 5.91-1.63 2.43-4.42-2.97-6.37-2.59-.58.11-1.39.33-1.61.85-1.26 2.87-.66 7.22-.39 10.27.26 1.88 1.74 2 3.18 1.53 8.65-7.11 5.33 2.06 2.2 3.27-11.93 4.59-11.15-12.92-8.01-19.8m55.69 43.83c-.46-.52-.92-1.04-1.39-1.56-.56-.8-.76-1.81-.55-2.77.98-4.28 8.5-5.14 11.69.1l-1.52 2.89c12.31 8.48-18.75 9.58-8.65 2.87z"/><path fill="#31444f" d="M1739.34 1311.51c-.4-.12-6.48-1.45-5.46-2.91.64-.92 6.01-.03 6.98.02zm-8.23 1.34c9.78 1.8 5.29 4.66-.42 1.53z"/><path fill="#c4c7ca" d="M1700.57 1304.77c3.65.26 9.97.57 10.25 6.08.02.59-.21 1.17-.64 1.58-2.31 2.18-6.94-.19-8.38 1.71.75 2.12 3.35 1.84 5.22 1.99l1.04.13c1.13-.5.9-.86 1.62-.24.27 6.28-19.4 2.9-9.98-10.01z"/><path fill="#31444f" d="M1703.22 1308.77c1.23-.53 1.14-.67 1.99.47-1.26.48-1.33.76-1.99-.47"/><path fill="#c4c7ca" d="M1728.86 1276.31c3.16.16 3.54.63 6.7.1 5.99-1 4.83 6.13 4.89 9.6.04 2.25-1.25 5.78-2.96 2.39-.73-1.57.63-8.46-1.25-8.99-4.64-1.3-1.82 9.03-4.54 10.37-.13-.02-.27-.03-.4-.04-1.22-1.93-.92-1.31-1.45-3.69-.51-.95-.56-1.68-1.45-2.06-.23.28-.45.57-.68.85l-.57 1c-.24-4.35-.16-5.27.32-9.55z"/><path fill="#31444f" d="m1727.47 1276.29 1.39.02c.91 4.52 1.18 5.12.99 9.74-.51-.95-.56-1.68-1.45-2.06-.23.28-.45.57-.68.85l-.57 1c-.24-4.35-.16-5.27.32-9.55"/><path fill="#c4c7ca" d="M1713.41 1305.26c4.77.71 9.41-1.55 11.63 2.27 3.25 5.61-1.42 21.46-3.57 3.47-.28-3.44-2.49-2.61-2.67-2.24-.81 1.59-2.96 14.56-3.47 16.57-1.99-9.98-1.6-9.74-1.92-20.07m43.63-28c16.75-5.68 12.74 12.44 9.63 12.65-.82-.54-1.26-1.28-1.54-2.41-.51-2.04.63-6.31-1.31-7.93-.2-.17-.63-.15-.84.02-1.18.93-1.73 1.96-1.93 3.4-.35 2.05.63 4.68-.97 6.37-.26.28-.7.32-1.05.22-1.25-.33-1.58-1.63-2.12-2.67.16-3.33.14-6.33.13-9.65"/><path fill="#31444f" d="M654.941 896.414c-.412-12.087-4.315-5.614-6.597-12.272 3.116-1.749 47.533-1.557 52.706-.814l1.278 1.364-.168 2-1.616 1.035c-1.865 1.213-2.108 1.371-3.513 3.182-.364 3.814-.862 2.24.764 5.06l4.606 1.05c1.28 3.436.861 1.645.113 6.005-2.244 1.256-2.346 1.114-4.935 1.518-1.408 3.286-1.22 1.662-.867 5.009 5.021 3.303 6.737 2.813 6.29 9.514-4.715 4.151-4.2-.668-6.836 4.364l.317 3.114c5.458 4.331 3.301-2.33 6.567 3.406-.509 5.166-.088 5.231-5.384 7.006-1.179 2.258-.663 3.364-.293 5.964l1.427 1.351 3.257-.136c1.56 4.454.738 36.462 1.061 43.759 1.048-.29 1.874-.84 2.846-1.368 2.228-.503 7.944-1.061 9.963-.299.863 1.035 1.369 28.634-.001 30.464-.225.3-8.032 1.91-10.399-1.63-2.863 1.21-.387 55.67-2.361 64.51-.48 7.15.581 15.75-.358 22.95-.569 4.37-2.099.71-6.411 3.81-.757 3.07-1.024 3.07-.277 6.07 1.942.62 3.548.77 5.576.91 1.655 2.47 1.374 2.61 1.553 5.67-1.727 3.28-2.966 2.8-6.95 5.19-.276 9.88 2.997 3.25 6.594 9.82-.169 3.9.557 2.81-1.125 5.54-2.782-.12-3.083-.42-5.504.77-.565 3.18-.768 1.67.794 4.64 2.777 1.38 5.165 2.08 6.563 4.7-.384 2.73-.356 2.53-2.225 4.58-3.407-.01-2.37-.32-5.418.74l-.819 2.63c1.372 3.46 3.707 3.59 7.855 5.4l.552 1.98-1.611 2.72c-5.714.91-49.003.93-53.885.15l-1.069-2.47.692-1.59c3.941-1.4 6.129-1.3 7.577-5.28-1.902-5.78-5.443-1.16-8.151-6.58.936-6.55.887-5.53 7.033-5.71l.955-1.19c-.182-4.3.648-2.73-1.464-5.45l-5.366.14c-1.545-3.17-.923-6.68 1.171-9.42 2.501-1.06 4.003-1.34 5.4-3.62.015-7.43-3.936-1.34-7.939-8.19.348-3.18.091-3.25 1.884-5.81q2.873-.165 5.745-.36c1.821-3.05 1.24-2.21 1.244-6.3-3.069-2.99-4.094.71-7.908-2.38-1.374-6.96-.67-32-.634-40.71l-2.039-.4c-.613-5.33-.233-18.33-.209-24.07l.113-46.462 1.968-.638c-.046-7.618-1.061-41.272 1.505-45.847a70 70 0 0 1 4.399-.705l1.396-.169c4.242-8.521-4.745-8.407-6.516-10.098-.815-10.278 2.84-2.886 7.118-8.592.017-2.745.328-3.091-1.001-5.38-3.014-.189-3.462.172-5.701-1.649-1.067-3.42-.814-3.52-.173-6.942 1.778-.782 3.568-1.13 5.474-1.477 1.757-2.636 1.05-2.862.888-6.784-1.461-.201-5.216-.174-6.146-.945-1.261-1.405-.795-6.068.137-7.401.09-.129 5.662.991 6.488 1.053"/><path fill="#31444f" d="M705.964 986.525c2.228-.503 7.944-1.061 9.963-.299.863 1.035 1.369 28.634-.001 30.464-.225.3-8.032 1.91-10.399-1.63.873-9.45.099-18.963.437-28.535"/><path fill="#c4c7ca" d="m645.105 991.988 1.968-.638c.728 10.74 1.334 61.38.167 71.57l-2.039-.4c-.613-5.33-.233-18.33-.209-24.07z"/><path fill="#f4f3f2" d="M703.118 987.893c1.048-.29 1.874-.84 2.846-1.368-.338 9.572.436 19.085-.437 28.535-2.863 1.21-.387 55.67-2.361 64.51-.58-17.16-.069-36.18-.161-53.48-.057-10.81-.462-27.645.113-38.197"/><path fill="#31444f" d="M654.462 903.707c-1.461-.201-5.216-.174-6.146-.945-1.261-1.405-.795-6.068.137-7.401.09-.129 5.662.991 6.488 1.053-.382 2.69-.442 4.601-.479 7.293m685.998-19.917c7.61-1.615 45.53-1.082 54.49-.689l1.19.946c-1.8 5.154-6.81 6.158-5.6 12.538 2.36-.032 2.4-.054 4.68-.394 1.43 1.999 1.12 3.298 1.18 5.828-3.69 5.166-7.12.622-6.17 7.496.43 3.075 1.89 3.084 4.75 3.547 1.71 2.182 1.39 3.758 1.43 6.57l-.92 1.55c-4.51-.144-3.05-.995-5.45 1.217-.39 4.086-.8 2.265.96 5.717 2.45.641 2.97.433 5.55.297l.99 1.237c-1.54 6.556-5.92 8.27-6.86 14.335l1.01 1.507 3.97-.355c4.15 5.446-.01 107.453 1.24 120.793.35 3.75-.04 32.91-.58 38.07-5.36 3.47-3.27-1.94-6.53 2.97.79 5.04 2.6 5.06 7.03 7.41 4.05 7.95-5.48 7.3-7.42 10.16 3.94 7.87 9.32 3.87 6.97 12.87-2.57 2-2.6 1.81-5.8 2.73-1.59 3.2-1.06 1.44-.38 5.84 5.09 3.97 1.96-2.43 6.47 2.76.34 3.03.69 3.22-.1 6.05-2.88.46-2.96.25-5.88-.34-2.27 2.06-1.7.84-2.01 3.69 3.71 4.35 7.59 4.82 8.91 8.17-.78 1.57-.6 2.18-2.12 2.41-6.51 1.01-50.31 1.13-53.97-.29l-.17-1.55c4.43-4.86 7.86-5.23 8.27-9.34l-1.02-1.72-5.63-.64c-1.56-2.66-1.87-2.59-1.75-5.59 4.5-5.59 6.61-.95 8.12-6.18l-.67-2.96c-5.83-3.6-3.25 1.49-7.06-3.36-.29-2.89-.71-4.11.6-6.7 2.6-1.05 2.64-.87 5.51-.88 1.69-2.56 1.12-1.49 1.43-4.9-3.9-6.07-7.88 1.44-8.15-9.27 2.01-3.43 2.34-2.69 7.38-4.13 1.57-3.05 1.03-1.36.32-5.71-2.46-1.4-4.6-1.22-7.46-1.38-1.74-13.82 1.88-79.34-1.03-87.06-1.79-.07-9.08.82-8.91-2.01.58-9.46-1.16-20.423.67-29.487.14-.697 7.3-.67 7.85-.702l1.3-.655c-.02-8.582-.96-31.401.8-38.426 2.04-.767 2.33-.784 4.45-.873l1.82-.064 1-1.776c-.37-4.571.57-2.873-1.89-5.752-2.67-.04-3.43.288-5.65-1.012-.51-4.282-.95-3.085.56-6.634 2.06-.579 4.08-.907 6.22-1.139 1.21-2.344.78-3.265.5-5.946-3.16-3.556-.9.42-6.91-1.718-1.81-3.156-1.52-1.559-1.4-4.828 1.91-2.67 3.79-2.975 6.93-4.215l1.31-.509.2-3.089c-1.76-3.646-1.51-2.556-6.51-4.609-1.73-2.987-1.04-3.025-.86-7.193-.14-2.144-.35-4.284-.61-6.415-.3-2.387-.44-3.819-.59-6.218"/><path fill="#31444f" d="M1340.18 1017.06c-1.79-.07-9.08.82-8.91-2.01.58-9.46-1.16-20.423.67-29.487.14-.697 7.3-.67 7.85-.702.8 9.879-.3 21.829.39 32.199"/><path fill="#9da5ac" d="m1339.79 984.861 1.3-.655c1.52 9.592 1.19 44.274.99 56.114-.27 16.49.99 48.75-.87 63.8-1.74-13.82 1.88-79.34-1.03-87.06-.69-10.37.41-22.32-.39-32.199"/><path fill="#f4f3f2" d="M1341.66 896.423c-.14-2.144-.35-4.284-.61-6.415-.3-2.387-.44-3.819-.59-6.218l1.03 2.671c1.69 4.261 6.38.187 7.12 2.163 3.89 10.406-4.78 7.864-6.95 7.799"/><path fill="#1f303c" d="M990.292 1218.6h66.028c.06 13.42 1.43 52.83-.02 64.19l-1.13 1.82a45.09 45.09 0 0 1 13.63 35.88 45.1 45.1 0 0 1-18.93 33.4 45.12 45.12 0 0 1-58.335-68.36l-1.523-4.15c.859-19.68.12-42.73.28-62.78"/><path fill="#1f303c" d="M990.292 1218.6h66.028c.06 13.42 1.43 52.83-.02 64.19l-1.13 1.82c-17.85-17.26-46.29-16.84-63.635.92l-1.523-4.15c.859-19.68.12-42.73.28-62.78"/><path fill="#9da5ac" d="M990.012 1281.38c1.789 1.29 1.991.66 4.012-1.12 16.206-14.26 47.536-13.13 62.276 2.53l-1.13 1.82c-17.85-17.26-46.29-16.84-63.635.92z"/><path fill="#1f303c" d="M897.21 1441.37c28.138-.67 58.916-.13 87.264-.12l165.166.04c8.7 7.41 16.59 14.15 25.74 21.02l-.23 13.41-25.65.03-276.401.13c-.068-4.43-.548-9-.919-13.43a611 611 0 0 0 25.03-21.08"/><path fill="#31444f" d="M734.79 217.755c30.618-3.413 58.168 18.734 61.414 49.37s-19.052 58.064-49.704 61.143c-30.417 3.055-57.589-19.034-60.81-49.434s18.718-57.692 49.1-61.079"/><path fill="#fffffe" d="M737.856 230.882c23.091-1.745 43.242 15.516 45.063 38.601 1.822 23.084-15.374 43.293-38.452 45.19-23.186 1.906-43.509-15.387-45.339-38.579s15.53-43.458 38.728-45.212"/><path fill="#31444f" d="m1195.87 981.841 33.94-.019-.29 73.998c-28.39.15-56.78.14-85.18-.04-21.36-.34-39.73-1.48-61.62-1.33.05 10.08.5 24.56-.02 34.27-2.01-2.58-.82-74.5-.63-83.73 5.23.01 12.54.21 17.62-.1l1.48.01c2.61-6.169 7.03-11.484 13.33-14.082a22.93 22.93 0 0 1 17.68.205c7.14 2.998 12.27 9.347 14.44 16.697l1.6.31 28.28.05-.02-15.024 19.02-.027z"/><path fill="#9da5ac" d="m1099.69 1004.89 1.48.01c-.36 2.55-1 5.2-1.29 7.6-.79 6.52 2.69 12.87 7.05 17.57 4.41 4.73 10.54 7.28 17.08 7.19 0-.02 3.22-.26 3.36 0 .97 1.92-2.71 2.54-4 2.16l-2.36-.36c-7.18-.71-12.76-3.1-17.21-8.98-7.16-9.48-5.86-14.42-4.11-25.19"/><path fill="#767e87" d="m1146.62 1007.72 1.6.31c-.23 4.56-2.94 25.44-10.79 23.53l-.05-.09c10.26-13.49 6.19-9.29 9.24-23.75"/><path fill="#31444f" d="m1090.82 1065.99 138.9-.19c-.08 14.6.33 38.24-.35 53.6-.47.52-.95 1.04-1.43 1.56-15.47-.04-108.21-2.19-117.32.52l-1.25 3.14c-4.1 1.19-13.8.54-18.48.41zm-270.859.01c45.677.1 91.354-.04 137.03-.43l-.226 59.09c-4.105.1-12.53.7-16.053-.43l-.967-2.95c-7.29-2.34-105.457-.47-119.793-.43zm31.921-84.939c.235 3.76.14 8.035.262 11.926l19.458.103q-.148 6.825-.174 13.65c9.47.08 18.941.1 28.411.04l.921.04c3.855-10.056 6.898-12.426 15.794-17.673 9.847-.531 18.322-1.047 26.041 6.258 9.804 9.275 10.04 28.205.588 37.775a21.25 21.25 0 0 1-15.677 6.45c-2.217-.05-3.738-.36-5.915-.75-2.595 1.25-1.998 3.4-2.005 6.08-.013 1.2-.042 2.41-.088 3.61.099.77.919 6.52-.538 6.56-30.413.84-69.501.79-99.334.72.268-24.94-.329-49.82-.151-74.696z"/><path fill="#31444f" d="M916.554 989.147c9.847-.531 18.322-1.047 26.041 6.258 9.804 9.275 10.04 28.205.588 37.775a21.25 21.25 0 0 1-15.677 6.45c-2.217-.05-3.738-.36-5.915-.75-2.124-1.55-2.112.43-4.414-.96-8.959-5.38-17.68-13.53-16.896-24.92l.479-6.18c3.855-10.056 6.898-12.426 15.794-17.673"/><path fill="#4e5a66" d="m899.839 1006.78.921.04-.479 6.18c-.784 11.39 7.937 19.54 16.896 24.92 2.302 1.39 2.29-.59 4.414.96-2.595 1.25-1.998 3.4-2.005 6.08-.013 1.2-.042 2.41-.088 3.61-3.279-15.66 2.831-4.39-12.442-15.44-3.642-2.63-7.164-9.48-9.562-13.49.613-4.73 1.571-8.18 2.345-12.86"/><path fill="#1f303c" d="M1102.97 1130.76c23.87-.47 27.93.72 49.27 11.88 34.25 17.9 53.48 38.41 74.78 70.24.04 22.47-1.43 40.64-.25 63.68-5.71 1.18-11.38.87-17.25.87-3.6-9.25-5.27-19.19-9.59-29.07-20.91-47.77-52.02-65.54-96.99-84.43-.26-10.85-.02-22.28.03-33.17"/><path fill="#31444f" d="M928.717 1556.84c5.03-.52 26.629-1.16 32.628-.36.207.03.16.37.166.5-.878 1.08-1.274.96-2.713 1.23l-.936.19c-1.871.54-3.573 1.05-5.472 1.49-63.917 15.21-120.077 57.28-127.687 125.98l-59.831.24c19.031-51.99 59.867-96.37 109.948-120.38 4.912-2.36 12.322-7.99 17.707-8.49 11.759-1.09 24.293-.51 36.19-.4"/><path fill="#9da5ac" d="M928.717 1556.84c5.03-.52 26.629-1.16 32.628-.36.207.03.16.37.166.5-.878 1.08-1.274.96-2.713 1.23l-.936.19c-1.871.54-3.573 1.05-5.472 1.49l-2.279-2.92c-7.128.38-14.271.33-21.394-.13"/><path fill="#4e5a66" d="m950.111 1556.97 1.945.06c2.721.02 3.511.12 5.806 1.37-1.871.54-3.573 1.05-5.472 1.49z"/><path fill="#31444f" d="M1081.71 894.994c4.39-.121 8.12-.819 11.71 1.345 4.05 5.765.17 8.029 4.15 8.28 12.77.805 27 .499 39.7.488l91.69-.115-.22 43.797-84.95-.065c-15.03-.008-32.72-.51-47.38.211-1.65 1.735-1.09.955-1.78 3.453-5.03.829-7.93.609-12.97.501-2.31-9.961-2.23-47.886.05-57.895"/><path fill="#1f303c" d="M920.82 1131.25c7.307-.35 16.092-.19 23.516-.25.104 10.94.149 21.89.137 32.83-56.835 17.44-92.849 45.91-108.911 104.42l-2.055 10.94-14.535.07c.027-24.94.402-49.88 1.127-74.81 20.217-33.13 63.321-63.74 100.721-73.2"/><path fill="#31444f" d="M1090.06 1557.5c-1.09-.3-3.67-.64-4.48-1.66-.07-.07-.09-.31.02-.37 1.71-.85 5.7-.49 7.5-.48 15.61.02 56.41-2.5 69.39 3.93 51.19 25.34 99.04 71.19 117.06 126.54l-56.18-.11c-12.67-74.69-65-108.14-133.31-127.85"/><path fill="#4e5a66" d="M1090.06 1557.5c-1.09-.3-3.67-.64-4.48-1.66-.07-.07-.09-.31.02-.37 1.71-.85 5.7-.49 7.5-.48-1.59 1.02-1.56 1.11-3.04 2.51"/><path fill="#1f303c" d="m1097.62 1292.15 128.05-.25c.59 18.21 2.28 37.71 3.36 56.02l-54.69.02c-30.8-18.6-40.97-14.87-76.71-14.08zm-278.629.2 129.193.02-.331 40.48-16.889-.15c-27.473-.19-35.207.98-59.084 15.31l-55.008.08c.548-18.62 1.689-36.9 2.119-55.74m638.589-315.359c37.04.376 39.55 96.499 4.1 103.599-28.82 5.78-27.94-45.21-33.67-49.41-3.54-.2-3.41-.4-6.57 1.08l-.54 2.49-.07 28.29-20.61-.01-.05-72.977 20.76.036c.12 8.494-3.7 34.001 6.55 34.051 9.41-8.06 1.04-36.816 30.1-47.149m-833.405 85.969c-.211-9.1 4.102-30.85-8.418-29.9-5.604 5.04-5.026 46.98-28.102 47.78-39.542 1.37-39.277-97.574-3.768-103.465 25.455-4.223 25.464 40.625 31.551 45.815 3.762.38 3.64.54 7.269-1.12 2.679-4.01 1.45-23.809 1.394-30.24l21.004.158-.113 46.462c-.024 5.74-.404 18.74.209 24.07-5.737.7-14.96.44-21.026.44"/><path fill="#31444f" d="M857.48 1417.27c48.178.86 98.301.2 146.52.09l185.68.47.21 17.15-332.377.15zm-37.608-512.735c42.316 1.318 88.724.42 131.342.473-1.252 9.367-.317 33.086-.455 43.259-42.839-.72-87.89.008-130.899.122zm25.109-402.554 40.121-.155v41.218c6.306.106 21.458 1.195 26.993-1.388 1.312-.612 1.468-3.456 1.93-5.378 4.29-3.059 24.096-3.828 28.061-.577.807 3.176.668 3.572 2.757 6.171 3.341 1.867 8.024 1.146 12.036 1.005-1.459 8.313-3.189 16.488-2.519 24.953-3.708-.08-7.623-.411-11.343-.652l.043 18.346-29.833-.275-.285-17.578c-8.076-.216-19.67-.928-27.363.282-.922 1.817-.664 1.236-1.293 2.722l-.392.948c-7.046 1.049-30.496.54-39.019.524zm319.879.585 40.86-.085c-.07 22.352.37 47.342-.36 69.476-7.09.044-34.67.689-40.1-.915-2.74-3.51-2.54-3.805-6.95-3.975-5.79-.224-11.61.023-17.4.174l.01 16.214-30.02-.25-.14-15.448c-4.8-.159-9.54-.657-14.14.494l-1.45 1.845c-1.18-7.184-2.52-20.061-1.88-27.098 4.76.213 9.86 1.032 13.97-.915 2.42-2.426 2.39-2.693 3.93-5.631 4.33-2.681 27.09-2.943 31.27.759.58 2.498.28 3.896 1.84 4.569 4.78 2.049 15.06 1.182 20.44 1.034zm-11.47-331.199c11.94 2.69 24.31 5.061 35.94 8.906 22.13 7.32 28.39 33.27 12.29 50.028-7.77 8.091-13.88 8.775-24.29 8.813 7.38 17.837 15.54 36.673 22.14 54.715-5.25-1.631-11-2.964-16.35-4.323l-4.59-12.263c-2.9-7.716-13.15-44.37-22.16-42.155-6.18 6.093-10.74 35.148-12.74 44.738l-13.35-3.506a5301 5301 0 0 0 23.11-104.953"/><path fill="#fffffe" d="M1163.45 188.143c9.97 2.302 24.03 2.591 30.47 11.422a16.08 16.08 0 0 1 2.8 11.93c-1.02 6.33-3.78 9.262-8.62 12.839-12.17 3.12-20.15.822-31.63-2.697.42-1.867.94-3.806 1.34-5.65l3.45-16.473c.94-4.313 1.62-6.941 2.19-11.371"/><path fill="#31444f" d="M611.42 287.113c6.905-.757 14.342-.92 20.158 3.107 18.453 12.776 18.422 30.947 8.138 48.061 12.29 5.938 39.684 16.254 52.581 20.406-4.711 2.995-8.564 6.186-12.921 9.641a1120 1120 0 0 1-51.303-20.5c-3.273 2.369-5.76 3.861-8.276 7.008-.53 3.45-.555 2.161 2.08 5.919 7.941 10.524 15.831 20.795 23.205 31.732-3.289 2.901-7.166 5.908-10.602 8.703-11.6-18.238-24.822-36.149-37.526-53.672-8.069-11.13-16.55-23.743-25.234-34.171 13.421-9.275 24.513-20.793 39.7-26.234"/><path fill="#fffffe" d="M614.151 300.09c7.004.466 11.873 1.733 16.077 7.765 8.697 12.479-.663 22.485-10.394 29.456l-8.197 5.765c-3.332-.917-16.538-22.952-18.987-27.422 8.362-7.029 11.046-11.72 21.501-15.564"/><path fill="#31444f" d="M909.176 166.279c2.534 2.544 21.483 97.009 24.602 109.18-12.764-9.328-25.889-17.377-38.731-26.345-17.385-12.142-34.794-24.441-52.112-36.684 6.137 24.142 10.208 50.867 15.768 75.627-3.972 1.16-8.543 2.872-12.572 2.696-8.441-33.558-16.522-74.57-23.889-109.304 29.357 22.584 60.991 42.961 91.644 63.797a4258 4258 0 0 0-17.217-75.95zm129.204-5.631c14.2.141 36.17-.128 48.11 7.563 13.83 9.807 15.57 31.345 5.14 44.065-11.73 14.317-26.87 8.037-41.83 9.77l-1.6.202c-.85 15.028-1.88 30.044-3.11 45.046a493 493 0 0 1-13.15-.818c2.45-35.292 3.35-70.445 6.44-105.828"/><path fill="#fffffe" d="M1051.07 175.289c7.77.208 20.7.015 27.08 4.456a15.52 15.52 0 0 1 6.61 10.758c.61 4.88-2.36 10.155-5.4 13.755-10.4 6.023-18.2 4.113-30.44 3.678 1.03-11.688 1.79-20.818 2.15-32.647"/><path fill="#31444f" d="M1273.02 203.369c19.34 8.159 37.93 15.288 57.19 23.136l-4 12.628c-13.67-4.691-31.09-12.707-44.48-18.571-3.94 8.467-7.87 19.246-11.35 28.07 14.91 4.849 29.78 10.616 44.47 16.143-2.35 4.72-3.08 7.173-4.65 12.15-8.18-3.002-38.06-15.983-43.85-17.023l-1.34 2.011-13.35 34.615c13.46 4.606 31.37 12.753 44.85 18.441l-6.39 11.812c-17.26-8.289-37.28-16.199-55.1-23.769 13.21-32.92 25.17-66.515 38-99.643m208.76 125.824c26.47-1.113 36.63 18.103 38.36 41.559l-13.19-.541c-.23-7.96-.72-14.929-6.75-20.797-7.34-7.154-16.88-10.533-24.87-2.479-9.1 9.188.25 20.738 5.9 28.882 10.8 15.562 12.9 32.858-2.37 46.318-9.07 8.031-15.97 10.412-28.12 9.716-17.08-3.55-28.4-17.828-30.44-34.975-.79-6.627-1.75-11.694 4.12-15.799 4.88-.291 9.03 1.497 13.77 3.005-3.28 5.972-5.01 10.842-3.31 17.65a21.13 21.13 0 0 0 10.39 13.532c19.05 10.371 41.01-12.04 23.15-33.938-16.3-19.984-16.77-44.395 13.36-52.133m-96.41-66.024c25.82-1.575 37.89 13.347 43.41 36.742l-14.06.073c-3.04-11.809-6.69-21.22-20.73-23.137-12.83-1.751-20.84 10.348-14.09 21.098 7.59 12.11 22.25 21.813 23.02 37.54 1.13 23.256-14.39 34.015-35.3 35.138-13.86-3.714-25.04-9.494-31.02-23.583-2.36-5.572-4.07-15.485-1.8-21.283 3.16-1.449 10.42-.754 14.27-.645-1.35 5.319-2.65 9.772-1.15 15.193a23.85 23.85 0 0 0 12.05 14.805c10.95 5.565 25.62.438 28.91-11.555 6.59-24.039-35.1-37.574-23.62-64.783 3.02-7.161 13.17-13.192 20.11-15.603"/><path fill="#1f303c" d="m994.175 1556.06 58.765.02c.2 16.34.07 32.87.08 49.23-19.6.09-39.21.09-58.822-.02zm55.695-202.17 1.35 1.79c.66 4.99 1.17 16.33.16 21.53-.28 1.44-5.16.26-5.91 1.47-1.27 10.22-.63 22.47-.6 33.01-13.96-.15-27.91-.19-41.86-.12-.03-7.04.22-17.26-.02-21.89-.6-11.32 2.7-11.82-6.43-12.13-1.674-.06-.57-14.99-.722-16.58-.158-1.84.258-2.61 1.484-3.69l2.968-1.73a45.12 45.12 0 0 0 49.58-1.66"/><path fill="#9da5ac" d="m1049.87 1353.89 1.35 1.79c-26.46 12.65-26.79 11.45-53.898 1.6l2.968-1.73a45.12 45.12 0 0 0 49.58-1.66"/><path fill="#1f303c" d="M1929.73 682.609c6.23 4.164 16.83 13.001 23.62 17.919-3.22 5.311-7.53 10.939-11.39 15.838-20.09 25.476-36.69 52.526-53.6 80.159-3.94 5.806-7.97 12.355-11.8 18.304 14.58-44.462 31.24-90.824 53.17-132.22M816.086 1356.04l46.756-.11c-30.731 32.11-35.065 42.41-48.934 84.55-1.865 6.75-5.877 31.22-9.206 34.76-1.991-7.55 6.02-55.09 7.35-67.85 1.715-17.08 3.06-34.2 4.034-51.35m368.724.03h46.03c.39 36.96 9.66 82.49 12.81 119.92-1.24-.27-2.14-.05-2.46-1.33-7.47-30.2-12.9-60.56-30.5-87.17-7.48-11.31-16.83-20.96-25.88-31.42"/><path fill="#df9048" d="M435.259 1860.99c2.181-.03 9.986-.42 10.793.28 2.864 2.48 8.308 18.78 9.841 22.25l1.109 2.46c2.196-8.13 4.781-16.8 7.189-24.91 3.253.07 7.4-.21 10.56.35 1.283 1.29 1.619 4.48 1.99 6.09 3.094 13.46 6.856 26.87 10.045 40.3-4.227.08-8.455.09-12.683.06-.324-1.29-.631-2.58-.92-3.88-.729-3.42-1.657-6.8-2.409-10.21-.82-4.02-1.739-8.02-2.636-12.02-1.304 4.05-6.052 25.92-10.143 26.27-2.571.23-4.82.38-5.908-2.46-2.812-7.34-5.386-15.18-8.259-22.58l-.353-.89-.358 1.66c-3.06 13.69-.174 26.93-12.095 24.23-5.529-1.26-3.257-1.83-2.214-7.99.723-4.51 1.534-9.01 2.432-13.48 1.66-8.29 2.712-17.12 4.019-25.53"/><path fill="#31444f" d="M528.148 353.708c3.001 1.312 67.403 70.607 73.27 77.235-3.664 3.764-5.308 5.518-9.499 8.775-1.212-.432-66.802-70.025-73.396-77.117 3.507-3.009 6.299-5.681 9.625-8.893"/><path fill="#df9048" d="M1173.67 1861.18c7.72-.05 20.8-1.71 27.43 2.31 5.41 4.64 5.38 10.64 1.94 16-5.72 8.92 10.35 1.46 3.89 22.86-9.07 8.26-21.06 5.64-33.03 5.6.06-15.59-.01-31.18-.23-46.77"/><path fill="#fffffe" d="M1185.08 1887.13c8.38.33 15.1.57 10.66 10.81-12.76 2.78-10.83.97-10.66-10.81m-.2-17.18c6.16.17 9.51-1.03 9.83 6.29l.12 1.67c-11.15 2.62-9.8 1.71-9.95-7.96"/><path fill="#df9048" d="M1650 1860.99c14.04-.02 34.97-3.64 32.89 17.54-.51 5.17-3.47 6.73-7.02 9.95 3.28 6.38 6.95 13.1 10.11 19.41-4.23.14-8.47.07-12.7.06-3.64-5.41-6.36-12.52-11.57-20.19-1.55 18.96 5.03 20.18-11.72 20.18z"/><path fill="#f4f3f2" d="M1661.97 1870.37c8.2 1.55 8.95 1.16 8.59 9.68-10.77 2.16-8.77.71-8.59-9.68"/><path fill="#df9048" d="M977.096 1861.35c13.018-.2 29.864-3.51 32.674 11.67 1.41 7.64-1.94 11.31-5.46 17.44l-.08.03c.67 1.62 3.77 6.87 4.73 8.5 1.78 3.09 3.62 6.14 5.54 9.15-4.45.03-8.91-.01-13.37-.1-1.891-4.13-12.799-30.73-12.183-10.98.194 6.23 2.906 14.61-10.584 10.47-.822-.25-1.136-41.89-1.267-46.18"/><path fill="#fffffe" d="M989.173 1870.71c8.353 1.12 10.253.9 7.78 9.6-9.773 1.41-7.757.37-7.78-9.6"/><path fill="#df9048" d="M560.894 1861.29c7.769.05 22.571-1.45 28.268 3.52a11.6 11.6 0 0 1 3.923 8.17c.499 10.02.091 10.23-5.649 17.52 2.729 4.68 5.004 8.91 8.07 13.47l2.373 3.45c-5.044.18-7.664.33-12.834-.05-4.324-6.47-7.909-13.86-12.406-20.88l.041 20.86c-3.974.14-7.399.15-11.365.12.079-15.91-.107-30.33-.421-46.18"/><path fill="#fffffe" d="M572.09 1870.96c9.766.82 11.391-.13 8.437 9.51-9.677 1.15-7.32-.16-8.437-9.51"/><path fill="#df9048" d="M384.82 1860.54c10.535.99 7.217 2.38 12.078 13.46 4.739 10.79 8.725 21.91 13.989 32.49 1.203 2.42-13.223 3.26-12.866-1.95.016-2.17-2.307-4.09-4.773-4.53-15.461.01-11.741-2.16-16.894 7.28-.691 1.26-9.358.69-11.895.54 6.253-14.83 13.337-33.03 20.361-47.29"/><path fill="#fffffe" d="M386.981 1880.5c2.212 2.35 6.333 8.81 3.46 11.75-9.71-1.53-6.544-1.53-3.46-11.75"/><path fill="#df9048" d="M728.583 1860.89c1.688.1 6.037.1 6.262.52 7.346 13.36 12.027 29.33 19.283 43.05 3.328 6.29-11.42 4.41-12.184.11-.421-2.38-2.443-4.05-4.85-4.42-12.162.07-11.943-2.37-16.246 5.81-1.274 2.42-9.781 1.76-12.63 1.67 6.476-14.89 13.734-32.16 20.365-46.74"/><path fill="#fffffe" d="M730.955 1880.5c2.033 2.52 5.849 9.04 2.213 11.52l-1.247.89c-7.25-3.33-3.74-3.8-.966-12.41"/><path fill="#df9048" d="M507.641 1861.14c4.951.04 29.228-.5 29.78.83 7.247 19.45-20.962.44-17.64 14.59 4.277 6.84 19.484-5.87 14.773 11.28-1.377 5.02-11.482-5.58-17.261 5.64l1.051 2.01c2.978 9.02 27.321-5.99 19.928 11.77-.503 1.21-25.735.71-30.893.73-.077-15.62.011-31.23.262-46.85m721.679.38c2.69-.05 28.11-1.08 28.86.95 7.45 20.13-20.01.42-16.87 14.97.7 3.27 14.25.06 15.41 1.94 1.34 2.18 1.65 10.93-3.72 9.35-11.44-.16-10.28-3.02-13.32 5.54.24.37.47.74.71 1.11 4.41 8.42 26.13-5.91 19.9 11.85-.42 1.18-23.99.67-30.7.72 0-15.38-.35-31.14-.27-46.43"/><path fill="#1f303c" d="m955.27 1281.15 17.161.17c-.123 21.18.028 42.36.453 63.53-5.727.1-11.455.15-17.182.16.008-21.29-.136-42.58-.432-63.86"/><path fill="#df9048" d="M1596.16 1861.41c4.12-.06 28.71-.91 30.23.7 1.09 1.15.22 8.07.14 9.5l-14.03-.21c-4.15-.08-4.92-.36-4.68 5.21.29 6.92 20.18-5.48 15.61 10.67-1.05 3.73-12.94-3.31-17.43 4.07 3.6 14.3 6.54 3.92 20.05 7.44 1.79.47 1.09 8.38.47 8.54-4.84 1.26-26.54.66-30.42.65-.11-14.51-.39-32.14.06-46.57m-155.14-.26c9.96-.06 19.91-.05 29.87.04-.4 3.2-.87 6.97-1.4 10.09-2.78.01-14.07-.71-15.71.51-.73.55-2.6 9.12 3.17 7.62 2.2-.56 8.91-1.85 11.17-2.32-.49 4.06-.94 7.71-1.28 11.81-3.35.05-12.43-1.07-14.35 1.64l-.68.9c3.58 13.74 7.37 3.07 18.9 7.01 1.13.39 3.64 9.29-1.69 9.28q-13.92-.12-27.84-.06c.04-15.51-.01-31.02-.16-46.52"/><path fill="#1f303c" d="m1845.3 876.094 1.09 2.182c-18.16 40.917-29.55 76.743-41.04 119.543l-11.67-6.363c15.35-47.395 26.96-72.136 51.62-115.362"/><path fill="#df9048" d="M1043.95 1860.25c2.45-.02 22.96-1.39 16.42 13.09-.76 1.69-9.96-5-13.73-3.11-1.72-.55-3.41 3.59-2.59 4.22 9.72 7.56 26.3 7.87 18.77 25.55-2.3 5.39-7.46 7.14-13.44 9.11-9.43-.29-8.42-.09-17.48-3.75l.88-13.62c4.35 2.47 15.81 11.94 18.82 3.03 1.63-4.78-16.75-9.11-18.03-15.07-.92-4.26-1.22-8.74.7-12.58 2.2-4.41 5.42-5.52 9.68-6.87"/><path fill="#1f303c" d="M1075.03 1281.88c5.31-.18 10.63-.26 15.95-.24l-.04 63.43c-5.78-.09-11.09-.16-16.88-.51 1.33-21.45.76-41.27.97-62.68"/><path fill="#df9048" d="M1398.87 1861.03c5.6-.21 12.68-.58 17.69 2.64.85.55-.38 11.46-1.09 11.94-.63.02-2.25-1.54-3.1-2.34-2.42-3.27-17.11-3.75-10.75 2.49 3.86 3.8 13.71 3.46 17.09 12.34 3.04 7.99.45 15.62-7.71 18.86l-3.76 1.49c-9.09.59-10.07.06-18.72-2.74.39-5.1.81-8.71 1.53-13.76 4.02 3.36 10.03 8.62 15.48 5.17 9.19-5.83-12.24-9.54-14.89-15.79-4.43-10.45-.66-15.39 8.23-20.3m-582.139.04c12.88-.66 20.627-.58 17.262 10.44.216 1.3-.204 4.48-2.403 2.41-2.955-2.78-9.362-5.02-12.4-.93-2.522 3.41 8.458 7.12 10.636 8.57 3.711 2.47 7.053 5.1 8.097 9.96 1.883 10.57-6.264 15.22-15.018 17.14-8.636-.19-9.262-.55-16.991-2.25.172-5.01.355-8.51.831-13.52 1.184.66 17.355 10.92 19.255 2.46 1.057-4.7-14.937-7.75-17.214-13.31-3.904-9.52-.706-15.91 7.945-20.97m474.009.09c1.92-.17 21.45-1.66 20.12 4.33-2.88 8.48-.82 7.75-8.36 5.51-10.66-3.16-11.27 6.23-.5 8.99 13.92 3.57 14.33 22.04 1 27.03l-3.82 1.42c-8.94.92-9.74-.04-18.51-2.75.28-3.57.4-6.89.77-10.48l.17-1.7c3.91 1.96 12.96 7.77 17.13 4.17 10.37-8.97-23.62-9.69-16.51-26.67 2.86-6.83 1.66-5.87 8.51-9.85m-621.473.01c5.928-.29 13.697-1.15 18.707 2.77 1.574 1.23 1.2 8.27-.339 9.46-.128.1-1.382-.29-1.595-.39-4.573-2.07-10.234-2.94-15.075-1.33-7.786 2.64-11.116 11.77-7.412 18.97 1.754 3.54 5.048 5.84 8.833 6.78 5.483 1.37 11.32.32 16.021-2.82l1.51-.96c.031 3.4.514 6.7.566 9.77-1.061 1.91-2.457 2.73-4.484 3.58-19.959 8.4-42.701-11.82-32.958-32.48 3.623-7.68 8.488-10.51 16.226-13.35"/><path fill="#1f303c" d="M970.468 1202.82c23.52.71 47.972-.14 71.522.15 10.04.13 23.92-.61 33.63.45 1.73 2.61 1 3.97.96 7.8-23.02.33-46.04.51-69.06.51-9.549-.02-26.825.33-35.711-.74-1.653-2.65-1.192-4.67-1.341-8.17"/><path fill="#df9048" d="m1081.15 1861.2 40.48.1c.3 13.82-.77 10.52-14.26 10.33-.14 7.75-.17 15.49-.09 23.23-.01 2.67.61 9.99-.71 12.4-.75 1.38-9.65.69-9.75-.08-1.38-10.75-.73-24.23-.76-35.33-15.71-.06-15.18 3.59-14.91-10.65m-189.051.25c8.783.03 17.713-.23 26.445.1 2.338.08 1.44 7.72 1.129 8.48-1.521 3.73-12.473-.5-14.665 1.36-1.795 1.52-2.308 9.25 2.503 8 8.381-.81 10.495-1.76 9.589 7.65-.105 1.09-.437 1.16-1.31 1.91-4.145-.06-8.292-.04-12.437.04l-.012 18.44c-4.152.18-7.128.29-11.277.2-.014-14.63-.52-31.81.035-46.18m439.171-.32c5.88.04 30.36-.42 37.01.54 1.21.76.97 6.28.97 6.34.33 5.29-4.96 3.61-13.25 3.31l.04 24.93c.03 2.86.52 7.48-.41 10.12-.65 1.82-10.19 2.3-10.3 1.25-1.2-11.39-.59-24.65-.85-36.32-14.19-.28-13.53 3.04-13.21-10.17m214.8.33c3.67-.07 7.28-.16 10.94-.03l-.16 36.27c4.1-.07 13.91-.77 17.82.41.73.21 1.37 6.88-.92 9.32-9.29.33-18.6.29-27.89-.12-.39-5.75-1.35-41.92.21-45.85m-51.94-.32c4.27-.01 8.53.03 12.79.1-1.41 12.18-.95 24.7-.99 37.03 15.43.11 17.61-4.58 18.16 9.12-9.7.38-19.51.24-29.24.31q0-23.28-.72-46.56m-550.908-.11c13.012.14 10.969-2.03 10.966 11.68-.001 11.74.017 23.55-.012 35.29-1.794 0-9.301.76-10.589-.64-1.495-1.64-.472-41.09-.365-46.33m-324.542-.02c11.385.03 10.719-2.27 10.553 8.86-.186 12.56-.133 25.34-.156 37.91-1.677-.01-8.43.68-9.586-.63-1.769-2.01-.758-40.09-.811-46.14m159.161.4c1.385.03 2.77.05 4.154.04.531 0 4.589-.17 4.558.81-.157 4.95-3.859 14.89-5.911 18.97-1.64.06-8.096.42-8.354.25-1.909-1.25 5.002-18.32 5.553-20.07"/><path fill="#767e87" d="M1845.3 876.094c.46-1.231 6.26-12.567 6.81-12.852.08-.198.17-.396.26-.593l.39.195c.3 1.798-.97 4.086-1.67 5.671l-.58 1.357c-1.33 3.001-2.52 5.541-4.12 8.404z"/><metadata><recraft-signature>{&quot;signed_by&quot;: &quot;recraft&quot;, &quot;signature_b64&quot;: &quot;NqkcH1CYBts/uQZK4nfgT3xGWVnfb6MyHe3e3wqT/fXVzruosLY3cDVWrKOngrrcU9ocruqRQ2DTsrVUzgm0Dg==&quot;, &quot;signing_algo&quot;: &quot;Ed25519&quot;, &quot;generation_timestamp&quot;: 1777253094, &quot;identifier&quot;: &quot;224b783e-4659-4162-bfbd-44c8002fb2a2&quot;}</recraft-signature></metadata></svg>