<svg xmlns="http://www.w3.org/2000/svg" width="1024" height="1024" preserveAspectRatio="none" style="display:block" viewBox="0 0 2048 2048"><defs><linearGradient id="b" x1="1096.83" x2="1109.27" y1="674.752" y2="675.965" gradientUnits="userSpaceOnUse"><stop class="stop0" offset="0" stop-color="#bf702c"/><stop class="stop1" offset="1" stop-color="#cc9150"/></linearGradient><linearGradient id="a" x1="990.351" x2="983.674" y1="673.542" y2="673.391" gradientUnits="userSpaceOnUse"><stop class="stop0" offset="0" stop-color="#b9611f"/><stop class="stop1" offset="1" stop-color="#9e5227"/></linearGradient></defs><path fill="#142c39" d="M0 0h37.904C158.835 21.883 256.209 98.598 244.63 231.894l2.873.302-.277-1.298c.574 4.965.973 9.739.764 14.738l-3.279 1.354c-13.159 57.868-47.968 100.448-97.61 132.076-23.36 14.884-68.054 33.268-95.454 36.88l-1.567 1.891-4.096.83-2.003.775c-3.54-.537-1.863.198-4.678-3.339-12.524 1.686-26.9 3.812-39.304 6.359z"/><path fill="#fff" d="M39.304 416.103c37.56-8.371 74.084-19.857 106.759-40.163 44.26-27.505 80.508-70.539 93.429-121.512 1.904-7.511 3.412-14.986 5.139-22.534l2.873.302-.277-1.298c.574 4.965.973 9.739.764 14.738l-3.279 1.354c-13.159 57.868-47.968 100.448-97.61 132.076-23.36 14.884-68.054 33.268-95.454 36.88l-1.567 1.891-4.096.83-2.003.775c-3.54-.537-1.863.198-4.678-3.339"/><path fill="#4a4e55" d="M247.227 230.898c.574 4.965.973 9.739.764 14.738l-3.279 1.354c.816-3.654 2.2-10.953 2.792-14.794z"/><path fill="#858790" d="M45.985 418.667c-.408-.076-3.084-.349-3.278-1.06.314-.338 8.12-1.52 8.941-1.661l-1.567 1.891z"/><path fill="#142c39" d="M2047.29 0h.71v413.867l-2.28-.549-.8 2.534-1.04 1.713c-5.69 1.919-54.6 1.036-64.64 1.061l-184.15.006.91-215.714c8.52-.064 10.76-3.218 17.22-1.764 4.4-.29 9.66-1.555 14.11-2.359C1941.48 178.181 2017.35 111.047 2047.29 0"/><path fill="#142c39" d="M2047.29 0h.71v409.186c-8.94-33.112-6.87-45.474-26.36-78.906a260.48 260.48 0 0 0-153.48-117.983c-8.52-2.443-17.19-4.362-25.88-6.081-9.64-1.905-19.6-2.337-29.06-5.062 4.4-.29 9.66-1.555 14.11-2.359C1941.48 178.181 2017.35 111.047 2047.29 0"/><path fill="#fff" d="M1796 202.918c8.52-.064 10.76-3.218 17.22-1.764 9.46 2.725 19.42 3.157 29.06 5.062 8.69 1.719 17.36 3.638 25.88 6.081a260.48 260.48 0 0 1 153.48 117.983c19.49 33.432 17.42 45.794 26.36 78.906v4.681l-2.28-.549-.8 2.534c-1.25-4.816-1.98-10.015-2.67-14.945-13.81-99.314-103.8-171.848-198.1-191.366-17.11-3.54-31.42-4.133-48.15-6.623"/><path fill="#142c39" d="M772.677 0H1021.7l.01 158.848c.01 11.526 1.24 80.518-1.32 84.921l1.27 6.801 1.07.513.76-1.776c1.68 3.197 1.68 1.722 1.15 4.566-1.84.454-2.62.671-4.35 1.519l-.71 3.643c4.46 34.935 2.64 68.22 3.26 103.358.19 10.941-.42 26.252.56 36.916l-1.94 3.518c-17.2-104.623-116.84-194.739-222.691-201.124-3.137-1.874-24.411-.597-28.618-.344l-.124-147.634c.016-7.138-.657-45.542.709-49.46l2.194-.38c2.466-.136 4.573-.864 6.954-1.526z"/><path fill="#142c39" d="M772.677 0H1021.7l.01 158.848c.01 11.526 1.24 80.518-1.32 84.921a272.4 272.4 0 0 0-30.665-83.678C944.582 82.243 866.552 25.351 779.884 2.359z"/><path fill="#fff" d="M779.884 2.359C866.552 25.35 944.582 82.243 989.725 160.09a272.4 272.4 0 0 1 30.665 83.678l1.27 6.801 1.07.513.76-1.776c1.68 3.197 1.68 1.722 1.15 4.566-1.84.454-2.62.671-4.35 1.519l-.71 3.643a257.7 257.7 0 0 0-29.803-91.845c-31.444-57.091-87.301-109.177-145.774-137.517-24.3-11.777-45.306-18.35-71.073-25.788 2.466-.136 4.573-.864 6.954-1.526"/><path fill="#142c39" d="M1781.67 202.929c10.34.172 10.83-2.794 10.33 7.57-.2 4.245-.06 10.397.23 14.664l-.56 193.373c-84.39-.608-168.77-.621-253.15-.039a238.95 238.95 0 0 1 61.6-134.057c45.85-49.295 114.43-79.099 181.55-81.511M249.883 0h259.008c-9.947 64.748-50.15 119.501-103.924 155.298-47.534 31.644-99.493 45.815-155.821 48.289zM1276.81 0h257.95c-7 29.738-13.92 50.982-29.84 77.579-48.73 81.44-136.26 121.541-228.86 123.445 1.36-66.006.24-134.564.75-201.024"/><path fill="#142c39" d="M1542.21 0h250.36l.26 195.255c-2 7.434 2.47 6.408-7.43 5.653-41.73-1.6-104.96-24.412-138.93-47.878-56.24-38.847-90.52-86.377-104.26-153.03M510.95 1.29c2.86 6.237 6.142 17.338 8.773 24.267a233.6 233.6 0 0 0 24.892 48.28c48.062 70.558 122.86 110.934 205.349 126.573-.797 3.221-3.552 2.082-6.983 2.539-76.788.875-155.147.077-232.044.187l-.2-126.748c-.092-24.117-1.071-51.376.213-75.098m-266.238 245.7 3.279-1.354c.044 5.191-.046 10.233.131 15.433l-.413 157.639-128.451-.102c-17.122.012-53.628.902-69.177-.769l1.567-1.891c27.4-3.612 72.094-21.996 95.454-36.88 49.642-31.628 84.451-74.208 97.61-132.076"/><path fill="#4a4e55" d="M1021.7 0h1.01l.05 169.01.13 51.436c.02 7.183-.26 21.984.6 28.861l-.76 1.776-1.07-.513-1.27-6.801c2.56-4.403 1.33-73.395 1.32-84.921z"/><path fill="#0d1719" d="M1175.98 2048c2.58-22.56 2.62-46.76 6.97-68.66.16-.79 1.62.36 1.57 1.19-1.54 22.33-4.03 45.17-5.74 67.47zm150.83 0c.44-12.03 1.35-23.99 2.13-36 .08-1.14-.05-9.21 2.58-8.82 1.15 1.97-1.49 39.39-1.72 44.82zm248.4 0c-.29-7.17-3.11-37.05-1.97-41.98.53-.11 1.07-.22 1.61-.33 1.1 1.4.9 3.12.95 4.8l.2 5.51c.35 10.2 1.64 21.7 2.13 32zm-900.394 0c.45-4.06 3.244-36.67 5.023-37.88 2.984.73-1.533 33.29-2.04 37.88zm141.004 0c-.031-10.44-.34-23.06.913-33.25.076-.62 2.087-.87 2.121.21.345 10.97.108 22.04.2 33.04zm-51.624 0c.752-5.65 1.165-14.08 1.923-18 .592-3.06 1.156-22.02 4.194-15.57.119.26-.089 1.97-.14 2.08-.957 10.12-1.565 21.51-3.077 31.49zm94.535 0c.195-4.01-.165-27.61 3.617-27.92 1.546 1.84-.426 23.96-.802 27.92z"/><path fill="#858790" d="M749.964 200.41c6.857.492 13.339.663 20.187.949 4.207-.253 25.481-1.53 28.618.344-9.563.878-20.623-.811-30.423.69-7.288 1.117-17.928.889-25.365.556 3.431-.457 6.186.682 6.983-2.539"/><path fill="#0d1719" d="M1133.06 2048c0 .16-1.05-24.11 2.92-17.98.63.97.07 14.8.01 17.98z"/><path fill="#aeb2b9" d="M1785.4 200.908c9.9.755 5.43 1.781 7.43-5.653.69 3.716.51 26.189-.6 29.908-.29-4.267-.43-10.419-.23-14.664.5-10.364.01-7.398-10.33-7.57 1.27-.736 2.37-1.454 3.73-2.021"/><path fill="#dddad9" d="M247.227 230.898c.671-.853.821-1.178 1.256-1.427l.097.028c1.331 3.093.254 27.389-.458 31.57-.177-5.2-.087-10.242-.131-15.433.209-4.999-.19-9.773-.764-14.738"/><path fill="#0d1719" d="M1509.59 2035.21c.49 4.26.94 8.52 1.34 12.79h-2.94l-.24-3.72c.45-3.93.05-5.7 1.84-9.07"/><path fill="#858790" d="M1023.4 399.309c.18.907 1.44 18.101-1.18 10.472l.07.367c-.48-1.824-.66-5.374-.83-7.321z"/><path fill="#142c39" d="M1507.75 2044.28c-.35-2.53-2.2-11.83.67-12.84 1.28 1.11 1.19 2.2 1.17 3.77-1.79 3.37-1.39 5.14-1.84 9.07M463.167 1758.35c2.595-6.91.908-95.55.882-108.34l.124-420.03-.032-109.98c.028-54.99-9.916-109.2 51.334-133.699 12.348-4.938 24.73-9.681 37.19-14.363l74.117-27.793 254.524-94.647c26.222-9.77 52.698-19.562 78.762-29.71 15.279-5.949 25.961-15.033 43.152-19.269 36.12-8.901 86.37-1.921 93.17 42.479 36.97 17.7 77.09 34.836 114.7 51.558l214.01 94.69a5257 5257 0 0 0 73.23 32.444c16.04 6.97 35.14 14.29 50.13 23.12 42.23 24.89 35.78 70.55 35.69 112.85l-.14 66.13-.47 358.45-.49 117.4c-.04 12.65-.99 47.51.32 58.93 11.86-1.17 29.81-.7 42.25-.71h71.98l107.28.03c9.93 0 57.56-1.05 62.76 1.72-6.65 1.67-35.48 1.11-43.67 1.11l-83.22-.07c-14.52.85-37.07.07-52.25.05l-105.45-.13c-.07 16.31-.01 32.62.18 48.92.05 9.78.67 20.7-1.04 30.28-5.72 31.55-38.04 37.52-63.81 44.64-10.15 2.8-20.27 7.12-30.76 8.11 4.87-2.93 8.55-4.42 13.71-6.62q-.495-93.93.51-187.86l1.81-364.32.82-142.32c.25-25 .81-51.43.03-76.46-.25-8.15-5.38-16.99-9.71-23.86-15.26-8.73-46.19-21.06-63.41-28.86l-152.73-67.999a10206 10206 0 0 0-173.83-77.082c-21.6-9.473-55.03-26.196-76.03-33.398-10.08.535-105.465 39.026-122.264 45.344l-199.697 75.595c-36.052 13.63-72.465 26.46-108.062 41.27-11.358 4.72-17.601 9.2-26.049 18.03-22.767 23.79-18.79 52.16-18.714 83.09l.073 78.39.364 259.11c-.116 33.34 1.218 77.22-.449 109.68 1.152 22.03-.007 49.97.172 72.74l.977 211.53 12.194 7.1-.414-212.62 1.582.23c.481 2.49.323 1.93 1.249 4.2 1.605-2.2 1.565-5.72 1.915-8.73 4.666-31.46 24.31-84.82 39.292-113.22a418.26 418.26 0 0 1 196.004-183.4c12.408-5.61 27.975-10.85 41.036-15.62l55.321-20.45c39.55-14.55 87.524-33.73 127.1-45.92-1 46.37-11.82 86.96-30.32 129.24-37.686 86.12-112.7 150.16-198.684 185.09l.916 2.12c18.155-6.27 35.267-7.41 54.55-7.71 69.832-1.07 141.774 42.66 164.728 110.14 2.12 6.22 3.99 12.85 5.86 19.22L716.992 1839.8l-94.393 34.09c-17.439 6.41-34.55 13.52-52.155 19.63-8.797-7.88-38.21-22.33-41.8-26.68-8.39-4.6-16.604-9.52-24.625-14.74-40.433-23.28-41.76-28.76-39.777-76.12.189-4.52.409-11.64-.807-16.02z"/><path fill="#142c39" d="M571.667 1668.7c4.666-31.46 24.31-84.82 39.292-113.22a418.26 418.26 0 0 1 196.004-183.4c12.408-5.61 27.975-10.85 41.036-15.62l55.321-20.45c39.55-14.55 87.524-33.73 127.1-45.92-1 46.37-11.82 86.96-30.32 129.24-37.686 86.12-112.7 150.16-198.684 185.09l.916 2.12c18.155-6.27 35.267-7.41 54.55-7.71 69.832-1.07 141.774 42.66 164.728 110.14 2.12 6.22 3.99 12.85 5.86 19.22L716.992 1839.8l-94.393 34.09c-17.439 6.41-34.55 13.52-52.155 19.63-8.797-7.88-38.21-22.33-41.8-26.68l.545-3.63c.323-33.32.379-66.65.17-99.97 1.112 2.31 1.779 93.75.855 100.8 3.791-7.46 2.293-61.3 2.26-72.85-.569-54.28-.801-108.57-.697-162.86-.027-20.78-1.16-59.89.451-79.53 1.526 36.1.422 78.19.496 114.8l.238 201.65c5.833 3.58 12.967 8.22 18.861 11.42q-.82-75.375-.572-150.75c-.012-15.37-1.364-57.09-.089-70.36 2.286-11.08-.132-46.31 1.118-60.65l1.712-.66c1.152 22.03-.007 49.97.172 72.74l.977 211.53 12.194 7.1-.414-212.62 1.582.23c.481 2.49.323 1.93 1.249 4.2 1.605-2.2 1.565-5.72 1.915-8.73"/><path fill="#aeb2b9" d="m801.416 1604.42.916 2.12c-2.506.61-7.091 2.37-9.16 2.22l-.309-.24c1.336-1.72 6.445-3.46 8.553-4.1"/><path fill="#0d1719" d="M954.02 849.641c2.026-1.594 2.239-1.353 4.871-1.721 5.363 2.376 10.526 4.76 15.775 7.393 17.827 8.94 36.274 15.587 54.044 24.728 13.48-4.268 24.19-8.753 37.29-13.936l-.1 3.582c91.15 37.72 185.15 82.491 276.13 122.244a6005 6005 0 0 1 124.54 55.259c8.86 3.98 17.95 7.84 26.67 11.88 14.63 6.77 29.35 10.79 39.43 24.25 7.46 9.97 11.65 20.99 11.98 33.59.52 34.92-.02 69.91-.27 104.83l-.72 183.51-1.42 335.92c-.31 36.65.34 74.82-.57 111.26-1.62 7.13-.25 18.38-2.11 21.79-5.82 2.01-10.26 3.68-16.34 4.8l-2.19.04c-1.44-16.77-.29-52.57-.23-70.88l.53-139.44 1.67-420.11c.1-23.14 3-133.46-2.84-147.31-2.85-6.77-7.74-14.52-14.05-18.42-19.96-12.35-44.06-20.63-65.57-30.14l-122.71-54.298c-89.11-38.861-183.29-84.647-273.03-120.39-4.12 1.108-7.03 2.494-10.88 4.183l-5.13 1.486c-10.08.535-105.465 39.026-122.264 45.344l-199.697 75.595c-36.052 13.63-72.465 26.46-108.062 41.27-11.358 4.72-17.601 9.2-26.049 18.03-22.767 23.79-18.79 52.16-18.714 83.09l.073 78.39.364 259.11c-.116 33.34 1.218 77.22-.449 109.68l-1.712.66c-1.25 14.34 1.168 49.57-1.118 60.65-1.275 13.27.077 54.99.089 70.36q-.249 75.375.572 150.75c-5.894-3.2-13.028-7.84-18.861-11.42l-.238-201.65c-.074-36.61 1.03-78.7-.496-114.8-1.611 19.64-.478 58.75-.451 79.53-.104 54.29.128 108.58.697 162.86.033 11.55 1.531 65.39-2.26 72.85.924-7.05.257-98.49-.855-100.8.209 33.32.153 66.65-.17 99.97l-.545 3.63c-8.39-4.6-16.604-9.52-24.625-14.74l1.727-2.82-12.731-7.99-.899-573.34-.136-125.68c-.051-22.19.361-44.81-.09-66.96-1.303-63.88 65.959-74.98 115.638-93.895l255.401-96.41 61.884-23.366c8.405-3.216 21.872-7.673 29.207-11.998"/><path fill="#fff" d="m509.027 1850.95-.09-540.55-.246-152.39c-.092-25.37-.636-51.28-.093-76.06.476-21.77 15.759-47.44 35.508-56.72 20.59-9.67 46.286-18.68 67.877-26.922l135.502-51.266 147.983-56.263c24.704-9.357 57.253-22.692 81.844-29.779q10.441 4.242 20.787 8.711c-20.963 6.29-46.031 16.429-66.83 24.29L805.14 942.047l-162.661 61.933c-23.619 8.97-47.537 17.41-71.227 26.13-7.863 3.23-14.414 8.71-20.307 14.49-20.653 20.29-22.824 45.06-21.899 72.52.402 11.92.028 25.06.021 37.13l-.029 136.4.321 472.59c.209 33.32.153 66.65-.17 99.97-5.334-3.91-14.21-8.78-20.162-12.26"/><path fill="#fff" d="M532.228 1548.8c1.182-40.54.126-86.08.071-126.94l.269-218.15-.179-73.01c-.065-13.04-.824-35.32 1.269-47.16a67.08 67.08 0 0 1 20.216-36.93c17.505-16.59 60.653-28.46 84.584-37.59l173.56-65.729 124.729-47.683c16.509-6.259 49.117-19.512 65.373-23.664 6.72 2.97 13.55 5.897 20.1 9.19L712.315 998.925l-77.319 29.115c-29.033 10.89-66.446 21.39-78.099 53.06-9.788 26.61-6.271 73.44-6.35 102.5l.13 161.76.306 201.81c.014 34.37-.981 74.41.179 108.39-1.275 13.27.077 54.99.089 70.36q-.249 75.375.572 150.75c-5.894-3.2-13.028-7.84-18.861-11.42l-.238-201.65c-.074-36.61 1.03-78.7-.496-114.8"/><path fill="#fff" d="M954.02 849.641c6.401 3.722 11.078 5.938 17.851 9.018-33.205 11.543-67.357 25.255-100.346 37.768l-184.611 69.925-98.682 37.448c-31.127 11.97-60.391 18.24-76.062 50.98a72.5 72.5 0 0 0-6.994 26.56c-1.334 18.29-.084 48.65-.041 68.03l.146 132.4.738 396.7c-.066 54.86 1.393 116.85-.273 170.81l-12.731-7.99-.899-573.34-.136-125.68c-.051-22.19.361-44.81-.09-66.96-1.303-63.88 65.959-74.98 115.638-93.895l255.401-96.41 61.884-23.366c8.405-3.216 21.872-7.673 29.207-11.998m106.34 21.881c7.52 2.208 19.53 7.867 26.92 11.115l48.68 21.544 171.52 76.395a10690 10690 0 0 1 155.09 68.654c81.47 36.53 79.02 27.45 78.64 117.25l-.51 117.17-1.54 453.95-.39 87.35c-.12 11.42-1.65 39.91.79 49.27-5.82 2.01-10.26 3.68-16.34 4.8 1.08-10.82.68-26.86.7-38.06l.13-62.72.96-191.36 1.01-335.18c.07-44.01.65-88.07.71-132.06.01-8.02-.76-13.2-3.83-20.68-2.18-5.3-11.33-17.6-16.26-20.6-3-1.82-14.59-6.71-18.27-8.34l-38.04-16.85a8000 8000 0 0 0-144.81-64.113l-157.78-70.246c-33-14.69-65.65-30.097-99.66-42.24z"/><path fill="#fff" d="M1044.8 878.072c89.74 35.743 183.92 81.529 273.03 120.39l122.71 54.298c21.51 9.51 45.61 17.79 65.57 30.14 6.31 3.9 11.2 11.65 14.05 18.42 5.84 13.85 2.94 124.17 2.84 147.31l-1.67 420.11-.53 139.44c-.06 18.31-1.21 54.11.23 70.88-3.03 2.72-11.89 4.62-16.17 5.82-1.87-184.11 1.8-371.65 2.28-556.2l.9-148.19c.11-21.32.83-43.53.25-64.84-.26-9.53-5.55-19.25-10.36-27.36-22.92-12.14-58.02-26.59-82.44-37.46l-153.73-68.262a14768 14768 0 0 0-156.6-69.319c-23.45-10.233-47.19-22.617-71.24-30.994 3.85-1.689 6.76-3.075 10.88-4.183"/><path fill="#fff" d="M1078.22 864.088c38.59 18.349 81.22 36.402 120.53 53.828l196.37 87.024 83.25 37.29c17.21 7.6 36.59 14.27 52.46 24.37 9.74 6.2 17.27 14.66 21.21 25.62 6.62 18.42 3.14 98.48 3.15 124.54l-.13 202.35-.23 304.02c-.15 46.79.87 100.08-.74 146.44-4.07 1.46-8.32 3.07-12.42 4.37v-21.51c.91-36.44.26-74.61.57-111.26l1.42-335.92.72-183.51c.25-34.92.79-69.91.27-104.83-.33-12.6-4.52-23.62-11.98-33.59-10.08-13.46-24.8-17.48-39.43-24.25-8.72-4.04-17.81-7.9-26.67-11.88-41.3-18.89-82.82-37.31-124.54-55.259-90.98-39.753-184.98-84.524-276.13-122.244 4.03-1.816 8.37-3.672 12.32-5.599M958.891 847.92c29.952-17.633 49.149-29.568 85.169-21.517 18.14 4.056 55.36 27.212 21.94 39.702-13.1 5.183-23.81 9.668-37.29 13.936-17.77-9.141-36.217-15.788-54.044-24.728-5.249-2.633-10.412-5.017-15.775-7.393"/><path fill="#0d1719" d="M1583.37 1758.57c11.86-1.17 29.81-.7 42.25-.71h71.98l107.28.03c9.93 0 57.56-1.05 62.76 1.72-6.65 1.67-35.48 1.11-43.67 1.11l-83.22-.07c-6.83-3.95-127.12 1.03-144.21-.93-3.95-.46-8.26.75-13.17-1.15"/><path fill="#142c39" d="M565.866 1466.21c-1.524-13.71-.79-40.76-.761-55.44l.06-98.64-.354-127.97c-.136-26.11-4.066-68.96 6.354-92.25a85.74 85.74 0 0 1 30.428-35.75c14.693-9.59 60.175-25.23 78.94-32.27l124.458-47.077.97 266.417-.056 76.77c-.02 14.79.362 33.68-.832 48.1-26.61 10.88-54.941 20.23-82.092 29.9a7881 7881 0 0 0-101.113 37.02c-7.458 2.76-48.845 17.59-53.302 20.91l-1.793-1.15c-.907 4.86-.143 7.2-.907 11.43M1264 1833.55l-159.21-69.86c-21.94-9.82-51.87-22.41-72.93-33.41.24-3.43 2.46-9.35 3.64-12.87 27.46-81.65 126.12-114.48 204.29-93.28 8.71 2.36 16.3 3.33 24.3 7.36l3.73 1.75c9.29 2.62 26.14 12.28 34.83 17.32a388.64 388.64 0 0 1 143.84 148.07c15.26 27.33 46.77 100.6 40.8 129.85l-1.02.89c-8.2-1.3-52.66-22.01-63.8-26.81a7911 7911 0 0 1-95.49-41.55c-10.57-4.57-54.8-21.99-60.01-27.52z"/><path fill="#142c39" d="m1264 1833.55-159.21-69.86c-21.94-9.82-51.87-22.41-72.93-33.41.24-3.43 2.46-9.35 3.64-12.87 27.46-81.65 126.12-114.48 204.29-93.28 8.71 2.36 16.3 3.33 24.3 7.36l3.73 1.75.08 134.84c-.01 13.71.78 54.49-.93 65.41z"/><path fill="#fff" d="m1264.09 1631.49 3.73 1.75.08 134.84c-.01 13.71.78 54.49-.93 65.41l-2.97.06z"/><path fill="#142c39" d="m1271.41 16.398 2.02.195c-2.16 33.471.05 71.857-.83 105.745-.32 12.178.67 28.131-.43 39.789.47 12.457.28 25.262.27 37.75-5.06.823-11.18-.324-15.13 1.225l-.68 1.82 1.51 2.545 15.02-1.56-.26 214.692-246.52-.04c1.3-8.629 2.56-18.36 4.28-26.829l-3.31-1.866c-.49-3.442-1.11-7.248-.71-10.714-.56-57.061-1.33-120.142-.33-177.009 3.55-2.871 2.77-3.135 6.62-3.671 5.14-1.071 8.64-1.715 13.92-2.152a302 302 0 0 0 104.7-33.489 242.9 242.9 0 0 0 118.88-141.778z"/><path fill="#142c39" d="m1271.41 16.398 2.02.195c-2.16 33.471.05 71.857-.83 105.745-.32 12.178.67 28.131-.43 39.789.47 12.457.28 25.262.27 37.75-5.06.823-11.18-.324-15.13 1.225l-.68 1.82 1.51 2.545c-74.26 11.701-146.25 45.254-191.44 107.362a214.8 214.8 0 0 0-36.04 78.901l-3.31-1.866c-.49-3.442-1.11-7.248-.71-10.714-.56-57.061-1.33-120.142-.33-177.009 3.55-2.871 2.77-3.135 6.62-3.671 5.14-1.071 8.64-1.715 13.92-2.152a302 302 0 0 0 104.7-33.489 242.9 242.9 0 0 0 118.88-141.778z"/><path fill="#142c39" d="m1271.41 16.398 2.02.195c-2.16 33.471.05 71.857-.83 105.745-.32 12.178.67 28.131-.43 39.789.47 12.457.28 25.262.27 37.75-8.25-1.787-67.45-.429-80.38-.465l-82.27-.575c-19.53-.294-39.9-1.118-59.34-.472-.82-.184-3.48-.44-4.02-.977-.07-.46.11-.523.42-1.07a302 302 0 0 0 104.7-33.489 242.9 242.9 0 0 0 118.88-141.778z"/><path fill="#343d3f" d="m1271.41 16.398 2.02.195c-2.16 33.471.05 71.857-.83 105.745-.32 12.178.67 28.131-.43 39.789-2.47-19.994 2.43-134.737-1.74-141.076z"/><path fill="#fff" d="M1032.93 198.47c5.14-1.071 8.64-1.715 13.92-2.152-.31.547-.49.61-.42 1.07.54.537 3.2.793 4.02.977 19.44-.646 39.81.178 59.34.472l82.27.575c12.93.036 72.13-1.322 80.38.465-5.06.823-11.18-.324-15.13 1.225l-.68 1.82 1.51 2.545c-74.26 11.701-146.25 45.254-191.44 107.362a214.8 214.8 0 0 0-36.04 78.901l-3.31-1.866c-.49-3.442-1.11-7.248-.71-10.714l3.55 1.385c28.9-100.457 112.58-152.323 208.8-174.879-4.56-2.744-11.09-1.792-17.26-2.499-5.82-.342-12.96-.223-18.81-.123-58.77 1.004-117.9-1.91-176.61-.893 3.55-2.871 2.77-3.135 6.62-3.671"/><path fill="#343d3f" d="M1221.73 203.157c9.89-.383 19.79-.338 29.68.135l-1.86.484c-3.8 1.026-6.57 1.496-10.56 1.88-4.56-2.744-11.09-1.792-17.26-2.499"/><path fill="#858790" d="M1032.93 198.47c5.14-1.071 8.64-1.715 13.92-2.152-.31.547-.49.61-.42 1.07.54.537 3.2.793 4.02.977-5.62.904-11.88.637-17.52.105"/><path fill="#343d3f" d="M1027.35 389.864c-.49-3.442-1.11-7.248-.71-10.714l3.55 1.385c-1 3.125-1.81 6.13-2.84 9.329"/><path fill="#142c39" d="M1325.38 1423.63c8.77 2.33 31.43 13.2 40.68 17.05l124.39 53.09-.84 225.06-41.29-17.62c-30.85-12.58-61.3-26.3-92.1-38.78-29.35-11.9-59.25-22.42-88.22-35.48l-.02-178.15c25.37 1.06 41.2-5.38 57.4-25.17m-290.72-531.083 229.7 104.502-.27 190.161c-9.85-5.47-19.38-10.64-28.85-16.77l-.89 2.86-1.56.34c-3.34-1.06-6.27-1.97-9.21-3.93-17.17-6.64-36.56-15.7-53.63-23.15l-89.63-38.69c-15.18-6.5-32.04-14.16-47.39-19.73.67-53.41.94-106.823.79-160.235.08-2.43-.26-8.526 1.08-10.038l3.55.148c-2.03-8.45-3.4-16.758-3.69-25.468"/><path fill="#142c39" d="m1033.72 927.905 3.67-.945c28.57 100.63 99.94 182.35 185.58 239.8l1.12 1.32-.51 1.63c-17.17-6.64-36.56-15.7-53.63-23.15l-89.63-38.69c-15.18-6.5-32.04-14.16-47.39-19.73.67-53.41.94-106.823.79-160.235"/><path fill="#fff" d="M1033.72 927.905c.08-2.43-.26-8.526 1.08-10.038l3.55.148c28.44 109.155 104.2 192.225 196.89 252.425l-.89 2.86-1.56.34c-3.34-1.06-6.27-1.97-9.21-3.93l.51-1.63-1.12-1.32c-85.64-57.45-157.01-139.17-185.58-239.8z"/><path fill="#343d3f" d="M1033.72 927.905c.08-2.43-.26-8.526 1.08-10.038 1.16 2.918 1.66 6.016 2.59 9.093z"/><path fill="#4a4e55" d="M1225.03 1167.78c3.31 2.27 4.95 3.11 7.76 5.86-3.34-1.06-6.27-1.97-9.21-3.93l.51-1.63z"/><path fill="#142c39" d="M1032.83 1089.74c10.74 7.71 60.87 27.12 75.39 33.69 50.74 22.98 105.42 44.68 155.41 68.8-1.36 42.81-.26 92.3-.24 135.57-11.95 2.93-16.4 4.38-26.59 11.13-11.22 8.69-15.12 14.93-21.41 27.35-13.25-5.16-29.4-12.78-42.61-18.59l-92.01-40.1c-15.57-6.71-33.19-14.73-48.83-20.64l.15-122.95c.04-23.55-.61-51.21.74-74.26m.85 202.4c17.62 6.27 41.29 16.91 58.68 24.36l121.74 53.21c-9.31 38.9 11.57 70.99 50.63 77.92l-.66 174.62-.53 2.52c-6.1.26-54.7-37.74-62.82-44.39-81.06-66.43-158.28-181.2-167.04-288.24M643.113 234.12q2.941-.165 5.887-.133c30.102.137 63.151 8.346 84.982 30.279 39.77 39.956 31.869 102.057 31.793 154.294l-130.525-.111q-63.07.352-126.139-.001c3.428-14.301 6.74-28.607 11.633-42.484 21.73-61.628 63.051-113.154 122.369-141.844m624.977 764.568 145.37 64.812c21.44 9.38 55.69 22.77 75.25 33.07-9.85 26-23.41 43.76-42.75 63.44-48.73 46.09-117.36 52.92-178.25 28.26z"/><path fill="#142c39" d="M1032.85 1345.11c-.51-3.89-2.22-28.27.59-29.56.47.98.56 1 .69 2.02.21 1.6.38 3.21.5 4.83.43 3 .85 4.78 1.51 7.7 24.41 101.05 82.73 184.82 161.3 251.95 16.74 14.3 38.15 29.46 56.35 42.17-86.74-24.29-179.48-2.16-219.15 85.05-.28 2.74-1.94 6.09-2.97 8.74-.32-6.38-.56-11.2-.45-17.62-.49-29.87.56-60 .66-89.93z"/><path fill="#aeb2b9" d="M1032.85 1345.11c-.51-3.89-2.22-28.27.59-29.56.47.98.56 1 .69 2.02.21 1.6.38 3.21.5 4.83.43 3 .85 4.78 1.51 7.7l-3.05-.49c.01 5.43.07 10.07-.24 15.5"/><path fill="#343d3f" d="M1033.09 1329.61c-.07-2.36-1.05-6.43 1.54-7.21.43 3 .85 4.78 1.51 7.7zm-1.87 370.78c1.25 4.25.24 6.29 3.42 8.88-.28 2.74-1.94 6.09-2.97 8.74-.32-6.38-.56-11.2-.45-17.62"/><path fill="#142c39" d="M1267.31 1194.81c43.05 19.78 105.95 82.19 135.09 119.69a460.1 460.1 0 0 1 78.05 146.93c1.66 5.27 6.79 19.64 6.24 24.04l-1.54 1.1-4.39-1.23c-21.15-8.19-43.39-18.18-64.36-27.14a3342 3342 0 0 1-88.54-38.65c5.6-10.45 8.4-19.64 8.31-31.57a60.68 60.68 0 0 0-18.61-43.63c-14.32-13.75-31.4-17.16-50.41-16.89z"/><path fill="#142c39" d="M1279.22 1196.5c34.31 10.52 79.12 12.99 113.05.72 51.87-18.75 75.76-50.94 98.75-97.54 1.32 12.84.5 31.1.3 44.42-.3 20.81-.43 41.63-.39 62.44l-.78 255.14c-.19 3.03-.3 5.39-.28 8.42l-2.64 1.04c-33.26-116.13-109.48-207.47-208.01-274.64m-250.28-303.334c-.09.887-.16 2.175-.63 2.906-48.536 75.244-135.991 130.038-218.693 156.488l-.502-77.233 116.36-43.646c35.009-13.358 67.9-26.603 103.465-38.515"/><path fill="#a91c1c" d="M1263.86 1331.07c31.54-5.56 61.6 15.56 67.06 47.12 5.47 31.56-15.74 61.55-47.32 66.92-31.44 5.35-61.28-15.75-66.72-47.18-5.44-31.42 15.57-61.33 46.98-66.86"/><path fill="#142c39" d="M1312.2 1649.48c57.15 20.92 121.02 49.27 177.33 73.56-.68 45.19-.49 91.62-.37 136.86 1.28 12.12.82 27.5.44 39.63-.11 3.71-2.55-7.21-2.26-5.74-.65-2.65-1.34-5.3-2.06-7.94l-.42-1.95c-24.92-94.18-89.83-181.58-172.96-231.76z"/><path fill="#858790" d="M1489.16 1859.9c1.28 12.12.82 27.5.44 39.63-.11 3.71-2.55-7.21-2.26-5.74-.65-2.65-1.34-5.3-2.06-7.94l3.77 1.2c-.31-7.73-.42-19.55.11-27.15"/><path fill="#343d3f" d="m1485.28 1885.85 3.77 1.2c-.04 2.49.84 6.01-1.71 6.74-.65-2.65-1.34-5.3-2.06-7.94"/><path fill="#fff" d="M875.828 636.675c7.986.481 11.091-.665 18.504 2.455 14.66 8.774 13.338 20.872-1.604 28.305-6.215 2.307-9.914 2.036-16.484 2.892-.064 5.565 2.488 21.903-3.65 20.734-2.246-.428-2.302-1.203-2.205-3.014.843-15.628.533-31.401.498-47.049-.012-3.83-1.76-3.735 3.047-4.129z"/><path fill="#c06f2f" d="M876.244 670.327c-.064 5.565 2.488 21.903-3.65 20.734-2.246-.428-2.302-1.203-2.205-3.014.843-15.628.533-31.401.498-47.049-.012-3.83-1.76-3.735 3.047-4.129l1.894-.194c.187 8.912-.475 25.404.416 33.652m16.961-29.605 1.127-1.592c14.66 8.774 13.338 20.872-1.604 28.305l-.504-1.278c7.857-7.204 8.909-17.827.981-25.435"/><path fill="#dbccbf" d="M875.828 636.675c7.986.481 11.091-.665 18.504 2.455l-1.127 1.592c-6.294-2.148-9.857-2.565-16.313-3.331-.437 5.862-1.024 24.04.389 30.16.425 1.841 12.756-.955 14.943-1.394l.504 1.278c-6.215 2.307-9.914 2.036-16.484 2.892-.891-8.248-.229-24.74-.416-33.652"/><path fill="#0d1719" d="M565.866 1466.21c.764-4.23 0-6.57.907-11.43l1.793 1.15c1.197 23.33.55 52.02.589 75.69 2.208 31.36-.029 67.64.853 99.21.234 8.36-.829 31.04.534 37.47l1.125.4c-.35 3.01-.31 6.53-1.915 8.73-.926-2.27-.768-1.71-1.249-4.2l-1.582-.23c-.606-44.97-.913-89.95-.919-134.92-.091-22.34-1.248-50.18-.136-71.87"/><path fill="#858790" d="M569.155 1531.62c2.208 31.36-.029 67.64.853 99.21.234 8.36-.829 31.04.534 37.47l1.125.4c-.35 3.01-.31 6.53-1.915 8.73-.926-2.27-.768-1.71-1.249-4.2 1.151-7.16.409-31.07.61-39.83.762-33.19-1.324-68.76.042-101.78"/><path fill="#0d1719" d="M463.435 1759.96c-18.694.75-41.758.22-60.735.24l-119.835.02c-12.777 0-96.449 1.37-103.696-1.02l.142-.9c5.205-1.12 39.38-.8 46.58-.82l123.16.06 69.939.04c11.405-.05 33.722-.71 44.177.77z"/><path fill="#fff" d="M1060.53 657.777c4.92-4.394 9.68-3.882 14.51.68 4.83 2.95 12.58 9.476 2.97 11.779-4.88 1.038-16.98 1.131-22.27 1.075.16-1.174.27-2.063.34-3.246 1.74-4.645 1.64-5.152 4.86-8.931z"/><path fill="#c06f2f" d="M1075.04 658.457c4.83 2.95 12.58 9.476 2.97 11.779l-.62-1.358c-1.12-3.083-2.2-5.889-3.39-8.946z"/><path fill="#dbccbf" d="M1055.74 671.311c.16-1.174.27-2.063.34-3.246 3.89 1.635 16.71 1.053 21.31.813l.62 1.358c-4.88 1.038-16.98 1.131-22.27 1.075m4.79-13.534c4.92-4.394 9.68-3.882 14.51.68l-1.04 1.475-.72-.407c-6.41-3.54-5.32-4.01-12.34-.391z"/><path fill="#c06f2f" d="M1163.71 689.554c4.99-7.306 3.77-10.814-5.1-12.963l-7.1-1.757c-14.08-3.504-6.76-16.273-2.38-16.746.74.789-5.87 7.316 1.67 11.282 6.26 3.288 17.1 2.347 19.83 8.879 1.93 6.024-.56 8.979-5.17 12.131zm-150.34-29.594.6 1.331c-.14 15.502 16.53 7.576 22.79 15.874 3.05 4.049-.06 9.606-4.99 11.997 6.29-19.741-19.96-6.104-21.95-22.182-.37-2.981 1.58-4.924 3.55-7.02"/><path fill="#0d1719" d="M1387.34 1921.6c.13.09 1.88 1.23 1.89 1.36.97 10.94.77 51.47.36 60.35l-.33-.09c.42.29-2.11-.52-2.12-.85-.42-11.31-.67-51.6.2-60.77"/><path fill="url(#a)" d="M983.814 658.792c.836-.74 1.589-1.416 2.46-2.119 11.639 8.933 4.056 18.591 6.431 31.829.799 4.449-5.613 2.386-5.647 1.895-.735-10.494 3.905-23.299-3.244-31.605"/><path fill="#aa6027" d="M967.889 665.285c-2.731 6.764-.126 24.203-1.196 24.94-9.198 6.339-3.438-14.912-4.943-17.969-.807-1.638.202-12.911.412-12.992 7.119-2.728 5.325-.201 5.017 4.251z"/><path fill="#0d1719" d="M411.047 1790.38c.182.14 2.015 1.4 1.966 1.75-2.197 15.62-1.363 39.64-5 54.5.422.31-2.198-1.44-2.184-1.78.471-11.49 3.369-45.65 5.218-54.47m1335.003-9.72c3.2 3.22 2.34 51.93 1.5 59.17l-.31-.29c.17.15-1.78-1.48-1.79-1.82-.25-10.23-1.52-50.04.6-57.06m-485.42 146.75c.27.25 1.9 1.6 1.88 1.9-1.07 12.95-1.63 49.2-4.16 59.27-.19-.2-1.64-1.65-1.63-1.78.61-11.1 1.95-50.95 3.91-59.39"/><path fill="url(#b)" d="m1103.72 659.824 2.12.437a24.76 24.76 0 0 0-3.68 19.239c1.22 5.6 4.3 7.96 8.66 11.23l-.38 1.553c-9.78-5.094-14.68-5.792-14.37-20.794.11-5.272 3.76-8.508 7.65-11.665"/><path fill="#0d1719" d="M787.662 1838.31c-.976-.36 2.262.72 2.201.99-3.969 17.59-7.385 35.44-10.408 53.39-4.199-1.74-2.329-3.93-1.622-8.69 1.518-10.21 3.742-20.43 5.946-30.52l1.012-4.5.923-4c.694-2.89.967-3.83 1.948-6.67m-346.561 42.23c2.65 4.7 2.959 47.41.398 52.05 1.475 1.28-2.015-1.56-2.018-1.94-.119-14.95.588-30.14.246-45.16-.042-1.83 1.001-4.03 1.374-4.95m539.933-51.92c.142.12 1.504 1.17 1.512 1.25 1.029 10.06.49 47.61-.059 54.81-.382-.28-2.221-1.49-2.228-1.83-.21-9.29-.877-47.4.775-54.23m-667.199-32.14c.151.15 1.535 1.44 1.53 1.54-.572 10.48-3.39 42.4-4.959 51.05-.134-.12-2.078-1.68-2.097-1.82-.814-6.08 2.184-24.59 2.482-29.76.508-8.82.996-14.17 3.044-21.01m557.4 32.28c2.796 2.84 3.342 49.11 1.831 54.65-.169-.14-1.894-1.34-1.899-2.01-.124-16.21-.864-32.23-1.377-48.41-.043-1.36.98-3.25 1.445-4.23m208.055-65.05c2.97 3.22.58 9.5-.47 13.98-3.25 13.78-3.94 29.63-7.46 43.1-3.65-3.31-1.7-7.14-.48-12.3 3.05-12.81 3.52-32.99 8.41-44.78"/><path fill="#c06f2f" d="m922.675 658.626 1.128.426c-5.661 9.706-6.797 22.164 1.993 30.343l-.744 1.299c-14.705-6.274-15.207-23.152-2.377-32.068"/><path fill="#0d1719" d="M494.134 1875.38c.204.15 1.874 1.29 1.888 1.46.839 10.14.948 46.4.599 53.79-.328-.13-2.249-.78-2.268-1.01-.81-10.2-.88-46.5-.219-54.24m729.006 86.23c3.73 3.12-1.28 50.26-2.68 57.67-3.09-2.73 1.17-51.6 2.68-57.67m-308.184-158.23c.192.15 1.765 1.28 1.765 1.43-.044 9.59-3.982 47.28-4.895 53.84-1.78-1.38-2.312-1.26-2.119-3.62 1.001-12.27 2.166-24.57 3.385-36.81.491-4.94.872-10.03 1.864-14.84m434.414 97.96c.18.07 2.24.82 2.23 1.06-.04 10.29-1.91 45.08-2.61 53.14-2.57.31-2.1-.6-2.11-3.04-.07-17.08 1.4-34.12 2.49-51.16m348.71 54.25c2.77 3.11-1.17 20.13-1.99 25.42-1.51 9.84-2.49 21.35-4.72 30.85-3.2-2.71-2.29-2.37-1.54-6.85 1.49-8.97 2.58-18.06 4.08-27.02 1.27-7.58 1.31-15.26 4.17-22.4m-707.824-209.11c.198.16 1.575 1.22 1.578 1.34.308 11.08-2.19 43.97-3.117 52.78-.213-.17-1.741-1.29-1.749-1.41-.717-9.9 1.933-44.63 3.288-52.71m-50.15 141.14c.139.12 1.658 1.29 1.655 1.51-.155 10.14-1.979 42.98-3.435 51.43.499.41-2.022-1.53-2.02-1.83.079-9.39 2.16-44.27 3.8-51.11m619.664 18.9c.16.13 1.67 1.42 1.67 1.51.64 8.51 1.09 43.82.15 49.95-.34-.34-1.93-1.83-1.94-1.97-.82-9.64-1.36-42.87.12-49.49m63.17-111.12c.2.15 1.8 1.27 1.81 1.45.71 10.01.96 46.77.34 54.69-.2-.15-1.72-1.24-1.73-1.35-1.23-11.43-.87-45.58-.42-54.79M409.271 1963.63c3.475 2.66 5.795 45.92 5.375 52.56-.097-.04-.195-.07-.293-.11-.414-.14-1.471-.38-1.857-.84-1.797-2.14-3.595-46.11-3.225-51.61m326.153-86.37c-.428-.16 2.446.84 2.461 1.11.47 8.66-2.35 42.2-3.241 49.15.638.4-1.938-1.11-1.938-1.31-.007-9.9 2.247-41.24 2.718-48.95m774.996 57.99c.23.15 2.44 1.51 2.43 1.89-.48 13.39 3.13 35.85.31 48.3-.14-.12-1.61-1.37-1.62-1.46-.55-8.6-1.5-42.03-1.12-48.73m-369.16-56.92c-.62-.24 2.35.83 2.4 1.11 1.63 8.05 1.54 39.4.92 45.82.42.26-1.82-.99-1.84-1.22-.7-8.72-1.59-38.71-1.48-45.71m98.2-11.85c.26.21 1.57 1.24 1.57 1.37-.12 7.91-3.33 40.25-5.39 45.53-.27-.21-1.67-1.25-1.66-1.51.5-10.27 3.36-36.67 5.48-45.39m-876.016-74.87c2.973 2.49 1.325 10.8.572 14.3-1.588 7.36-1.768 23.78-4.568 30.04-4.73-3.97-.154-13.99.225-20.96.343-6.31 1.914-17.63 3.771-23.38m-13.344 168.8c.015.01 1.634 1.11 1.641 1.15 1.611 8.36 5.188 40.6 5.245 47.01-2.063-1.1-2.834-1.06-2.981-3.51-.851-14.2-4.678-30.61-3.905-44.65"/><path fill="#c06f2f" d="m1060.53 657.777.41 1.357c-3.22 3.779-3.12 4.286-4.86 8.931-.07 1.183-.18 2.072-.34 3.246.38 9.9.55 11.478 7.03 18.17l-.95 1.154c-14.91-8.121-14.59-23.024-1.29-32.858"/><path fill="#0d1719" d="M946.886 1986.54c-.281-.22 1.809 1.27 1.822 1.6.276 7.03-.383 40.84-2.166 45.47-1.781-1.78-2.187-1.52-1.993-4.06.668-8.78.404-17.55 1.108-26.34.47-5.86.016-10.83 1.229-16.67m656.044-81.94c2.89 2.98 1.76 45.84.63 51.41-1.36-1.63-2.35-2.18-2.06-4.44 1.69-12.76-1.9-35.42 1.43-46.97m125.32-37.85c2.82 3.06.16 40.59-.86 46.94-.4-.29-2.26-1.5-2.27-1.85-.17-7.77 1.35-39.98 3.13-45.09m-828.018 50.01c3.272 3.64 1.49 41.99.408 48.57-.177-.15-1.393-1.05-1.413-1.44-.428-8.41-1.012-41.26 1.005-47.13m82.881 7.77c.293.23 1.747 1.28 1.747 1.59.003 8.89-1.285 38.69-2.764 45.42-1.597-1.24-2.487-1.41-2.237-3.5 1.612-13.46.684-30.53 3.254-43.51m481.077 35.76c.5.22 2.3.92 2.31 1.15.51 7.95-.43 38.34-1.31 44.07-.47.01-1.41.16-1.78-.17-1.18-3.26.47-38.96.78-45.05m285.95-2.75c2.03 4.29-1.34 39.76-3.7 44.14-3.18-5.29 1.28-38.02 3.7-44.14m-689.84 40.28c2.59 2.61 4.53 42.58 3.11 46.32-.66-.05-1.42.02-1.92-.32-.86-3.37-2-43.37-1.19-46m241-60.39c-.51-.32 2 1.15 2.01 1.43.19 8.69-2.12 35.76-2.79 43.09-.09-.03-.19-.05-.28-.07-.35-.08-1.4-.18-1.77-.57-1.68-1.8 2.36-38.84 2.83-43.88m-663.428 33.14c-.201-.18 1.424 1.18 1.459 1.44 1.009 7.61 1.273 38.6-.248 44.4-3.101-3.13-2.446-40.27-1.211-45.84m1041.448-118.98c.26.14 2.13 1.12 2.16 1.38.71 6.88-.29 36.57-.92 41.86-4.19-2.32-1.97-37.12-1.24-43.24m-1079.477 48.66c.221.17 2 1.39 2.023 1.59.818 6.94-1.679 35.68-2.879 40.59-3.877-3.1.025-35.7.856-42.18m418.907-9.77c3.56 3.43-.09 38.34-1.85 43.86-3.29-3.22.52-38.99 1.85-43.86m193.71-57.75c3.58 3.4-1.14 38.98-2.03 45.47-.19-.19-1.89-1.76-1.89-1.93.13-7.77 2.31-37.92 3.92-43.54m209.62 166.54c.22.16 1.97 1.39 1.95 1.58-1.22 10.11-1.31 33.28-4.49 42.23-1.64-2.43-2.41-2.68-1.93-5.59 2.06-12.59 2.41-25.67 4.47-38.22m-390.77-188.71c3.57 2.66 4.94 35.37 5.38 41.58.23.03-3.16-.25-3.18-.7-.51-11.23-3.17-30.47-2.2-40.88m152.41 93.83c.35.25 2.14 1.43 2.14 1.76.23 8.63 2.25 33.1.16 40.22-3.36-2.97-2.99-36.8-2.3-41.98m-405.589 27.14c3.382 2.83.974 6.17.091 10.98l-1.066 5.51c-1.65 8.2-3.254 20.85-6.386 28.3-2.935-3.41 3.089-24.85 4.096-30.34l.962-5c.678-3.51 1.209-6.04 2.303-9.45"/><path fill="#142c39" d="M1704.34 1778.81c2.84 3.21 1.75 36.97 1.19 42.62-.3-.29-2.39-2.16-2.37-2.55.52-9.79-1.73-31.64 1.18-40.07"/><path fill="#0d1719" d="M310.77 1961.47c.2.15 1.703 1.24 1.716 1.35.915 7.73.809 34.75.037 40.91.42.33-2.114-1.54-2.127-1.93-.266-7.87-.916-33.82.374-40.33m752.9-49.23c2.65 1.1 3.37.73 2.9 3.64-1.96 12.22-2.72 24.58-5.03 36.74-3.75-1.96-1.76-5.72-1.24-10.61 1.06-9.9 2.14-19.89 3.37-29.77m-241.367 30.13c.239.09 2.269.78 2.293 1.05.737 8.11.049 32.51-.069 39.34-.299-.05-1.954-.29-2.017-.56-1.475-6.47-.562-35.21-.207-39.83m276.867 29.85c.64.27 1.92.61 2.41 1.18.42.47-1.72 36.33-2.01 39.9-.21-.1-2.03-.86-2.08-1.13-1.41-7.27 1.27-33.63 1.68-39.95m-559.233 31.17c4.119 3.3-.302 12.1-1.644 17.63l-.997 4c-1.518 5.99-2.602 13.43-5.352 18.78l-.465-.51c-2.599-3.03 2.049-14.81 3.208-19.31l1.048-4c.321-1.25.728-2.74 1.033-4l.99-4zm2.988-88.78c3.018 2.9 3.188 37.28 2.63 42.44-.242-.22-2.233-1.8-2.222-2.18.302-10.69-3.139-30.76-.408-40.26m477.015 66.99c3.26 2.67 3.24 38.36 2.12 43.8-3.27-3.17-3.33-38.88-2.12-43.8m-358.976-87.03c3.049 3.48-.507 34.82-1.83 39.9.41.35-1.81-1.41-1.802-1.7.228-8.21 1.111-31.78 3.632-38.2m291.205-134.14c.265.13 2.321.99 2.344 1.36.612 9.67.044 23.64-.934 33.22-.481-.16-2.25-.64-2.288-1.19-.515-7.31-.515-27.17.878-33.39m1.867 62.19c3.848 3.37-.294 34.6-2.184 39.71-2.839-3.11.652-34.86 2.184-39.71m684.414 162.19c1.62 1.68 1.35 2.31.81 4.66l-4 17.55-2.07 9.5c-.8 3.71-1.05 5.2-2.46 8.76-3.07-3.63.91-14.77 2-19.81l1.12-4.99.91-4c1-4.81 1.57-7.33 3.69-11.67m-817.14-115.14c3.494 2.7 4.5 32.26 4.419 37.82-.323-.12-2.19-.76-2.228-.97-1.661-9.32-3.429-27.76-2.191-36.85m11.958-69.84c3.204 3.09 4.8 32.1 3.713 36.49-3.603-3.07-5.688-31.58-3.713-36.49m30.526 137.7c3.402 2.96 3.054 33.97 2.467 39.15-.372-.26-2.29-1.48-2.299-1.83-.23-9.04-1.709-29.55-.168-37.32M385.2 1885.71c3.389 2.99.245 33.81-.693 39.52-3.443-2.82-1.113-34.36.693-39.52m1270.26 28.54c.25.09 3.25.91 3.24 1.45-.23 7.97 1.51 25.48-1.16 32.22-2.53-2.73-2.51-3.82-2.15-7.91.76-8.6-.16-17.26.07-25.76M1114.2 1792.6c3.84 3.1 1.06 32.9.31 38.3-.38-.33-2.15-1.77-2.15-2.1.03-7.55.39-29.57 1.84-36.2m-4.2 113.77c2.1 1.5 2.71 1.3 2.25 3.6-2.16 11.02-2.38 22.76-4.48 33.74-3.37-1.65-2.52-1.59-1.85-6.2 1.45-10.07 1.84-21.24 4.08-31.14m49.37-111.7c3.63 3.18-.45 32.18-2 37.32-.5-.48-.99-.95-1.49-1.42-.1-9.75 1.58-26.69 3.49-35.9m-172.876 210.74c.214.09 2.059.76 2.086 1 .686 6.27-2.343 31.4-3.093 36.27-4.176-1.91.338-31.29 1.007-37.27m156.346-40.89c4.04 3.01 2.5 31.01 1.51 36.12-3.5-5.1-2.86-30.11-1.51-36.12m40.84-129.14c3.94 3.11 1.92 4.54 1.47 10.12-.72 8.73-1.4 17.75-2.71 26.4-5.42-4.52 1.06-23.79.41-30.91-.07-.88.61-4.42.83-5.61m481.12-67c.34.25 2.04 1.4 2.05 1.76.15 7.32-1.15 28.33-2.83 34.26-3.09-3.01-.12-30.93.78-36.02m-291.75 241.13c3.26 2.54 2.09 29.78 1.39 35.03.36.24-2.12-1.31-2.15-1.7-.65-7.81-.75-26.55.76-33.33m-89.47 1.86c-.76-.33 2.05.79 2.03 1.03-.63 9.11-3.09 24.49-4.6 33.16-5.33.27 1.81-29.15 2.57-34.19m146.51-78.16c.52.21 2.65.95 2.64 1.47-.15 7.23 1 21.39-1.07 27.78-4.55-3.08-2.19-23.76-1.57-29.25m-343.78-88.74c.2.15 1.75 1.14 1.77 1.25.7 7.19.03 30.77.27 36.89-.09 0-.18-.01-.27-.01-.27 0-1.38.14-1.71-.27-1.76-2.19-.44-33.42-.06-37.86m-359.224 145.91c3.955 3.01 1.733 6.46 1.019 11.62-.851 6.16-1.711 14.36-3.675 20.07-3.533-2.71 1.355-27.01 2.656-31.69m-132.874-4.14c.409.19 2.26.95 2.253 1.21-.182 6.64-2.188 24.98-2.735 30.35-.441-.18-2.351-.87-2.383-1.14-.569-4.67 2.344-27.14 2.865-30.42m102.708-52.63c3.178 2.92 3.312 29.39 2.279 33.84-3.407-2.99-3.452-29.47-2.279-33.84m-367.142-42.24c4.188 3.42-.528 26.21-2.312 31.65-3.278-2.33-.922-8.86-.548-12.52a235 235 0 0 1 2.86-19.13m365.457-28.82c3.624 2.89 2.015 26.93 1.272 31.77-3.971-4.34-2.68-26.09-1.272-31.77m339.995-118.92c3.18 2.67-.13 28.02-.75 32.99-4.48-3.9-.81-27.44.75-32.99m-131.258 251.75c4.01 3.05.055 27.25-.77 33.16-4.226-3.3-.159-27.43.77-33.16m-416.64-13.88c3.657 3-.822 28.35-2.696 32.7-2.966-3.42 1.601-27.29 2.696-32.7m790.938-125.09c4.58 2.92 1.98 26.42 1.79 33.12-4.12.34-2.02-8.96-2.17-12.89-.24-6.43.03-13.8.38-20.23"/><path fill="#142c39" d="M1316.94 1874.22c.45.21 2.45 1.06 2.5 1.31 1.07 5.23-.03 21.27-.27 25.81-3.78.01-2.28-23.19-2.23-27.12"/><path fill="#dbccbf" d="M1062.77 689.481c6.48.698 8.22 1.268 13.94-2.168 5.01-3.008 5.51-11.043 6.74-12.212l.47.105c3.63 6.548-8.26 20.908-22.1 15.429z"/><path fill="#aa6027" d="M1116.94 656.828c4.5 1.965 13.4 7.137 10.66 12.747-2.53 5.183-6.36-7.874-10.52-11.621z"/><path fill="#dbccbf" d="M925.796 689.395c21.513.873 11.226-3.158 21.672-8.603l.495.133c1.864 6.274-14.622 13.396-22.911 9.769zm185.024 1.335c7.32.151 13.13-1.735 17.4-8.55.36-.574.69-1.009 1.28-1.31l.39.126c2.92 5.812-12.21 12.956-19.45 11.287z"/><path fill="#858790" d="M1490.15 1461.68c.33 2.64 1.72 22.82.18 23.88-1.43-.32-1.24-4-1.1-5.04-.69-3.03-1.49-6.34-2-9.38l2.64-1.04c-.02-3.03.09-5.39.28-8.42"/><path fill="#343d3f" d="m1487.23 1471.14 2.64-1.04c.05 4.57-.09 5.85-.64 10.42-.69-3.03-1.49-6.34-2-9.38"/><path fill="#aa6027" d="M937.5 657.959c2.975 1.631 12.367 9.073 5.775 11.548-2.373-.385-4.243-7.398-6.216-10.651zm134.13-19.489c8.86 1.506 4.1 2.689-2.3 9.922-.53.991-.61 1.412-1.51 1.934-.26-.056-.14.01-.37-.225-.22-1.081.19-2.102.61-3.096z"/><path fill="#dddad9" d="m1147.63 689.711 9.37.367c1.87.091 3.04-.128 4.91-.336l1.8-.188 1.75.826c-7.38 2.309-9.5 2.294-17.55.586zm-132.88-.268c8.43.968 9.53.373 17.02-.281-2.91 2.447-7.09 3.163-10.77 2.792a31.4 31.4 0 0 1-7.31-1.689zm-1.38-29.483c5.24-4.88 9.62-4.997 15.63-1.934l-.78.687c-7.54-1.373-8.51-1.484-14.25 2.578z"/><path fill="#c06f2f" d="M1160.01 656.803c9.24 1.119 8.97.227 9.23 8.561-3.04-2.142-5.04-5.484-9.23-8.561m-12.1 34.163c-.16-.038-2.28-.647-2.45-.6-6.38 1.673-7.79-8.854-2.23-4.71 2.04 1.526 3.46 3.196 4.4 4.055z"/><path fill="#dddad9" d="M922.675 658.626c6.277-3.644 8.409-3.217 14.825-.667l-.441.897c-4.833-1.146-8.495-1.2-13.256.196z"/><path fill="#be9679" d="M983.814 658.792c-.926.066-10.175 1.056-10.584.495.504-2.734 10.971-2.484 13.044-2.614-.871.703-1.624 1.379-2.46 2.119"/><path fill="#dbccbf" d="M1103.72 659.824c5.04-2.622 7.85-5.114 13.22-2.996l.14 1.126c-6.3.508-5.22-.171-11.24 2.307z"/><path fill="#aa6027" d="M1013.69 690.265c-1.95-.796-3.7-.902-5.44-1.611-.9-.365-.4-5.116 1.1-4.435 1.75.795 3.89 3.723 5.4 5.224zm15.31-32.239c3.24 1.003 2.21.073 5.37.001.99 1.022.83 4.521.23 5.744l-.24.155c-.57-.238-5.27-4.48-6.14-5.213z"/><path fill="#4a4e55" d="M1299.26 1645.1c4.52 1.44 8.5 2.68 12.94 4.38l-.3 2.66c-4.54-2.1-8.38-4.51-12.64-7.04"/><path fill="#aeb2b9" d="M1271.41 16.398c.31-1.669.46-6.579 2.07-7.608l.13.035.03.198c1.14 1.366.22 5.825-.21 7.57z"/><path fill="#dbccbf" d="M967.179 663.515c6.423-5.413 5.982-2.474.71 1.77zm-40.597 4.71c.679.115.758.043 1.21.395l.085.394c-.311.4-.093.172-.748.579.13-.01-2.531.48-2.666-.169.252-.4.712-.572 1.131-.747z"/><metadata><recraft-signature>{&quot;signed_by&quot;: &quot;recraft&quot;, &quot;signature_b64&quot;: &quot;qW12Z01JljUvWpK0cOd1o/Nn6BdE+r+M58Kh74iwNnRgkPRadpXQSNv438X/PDodPFke6zba81KLKS3XAUoXCQ==&quot;, &quot;signing_algo&quot;: &quot;Ed25519&quot;, &quot;generation_timestamp&quot;: 1777253114, &quot;identifier&quot;: &quot;9e2908a3-0380-4430-81cc-b73dffc9e0d4&quot;}</recraft-signature></metadata></svg>