<svg xmlns="http://www.w3.org/2000/svg" width="1024" height="1024" preserveAspectRatio="none" style="display:block" viewBox="0 0 2048 2048"><path fill="#25343d" d="M853.611 736.243c15.126-4.48 31.065-7.474 46.486-11.749a437.4 437.4 0 0 0 93.306-38.048c37.337-20.336 65.247-47.626 97.717-73.33 34.37-27.208 82.75-33.381 121.09-11.527 15.01 8.162 30.69 21.816 40.17 36.275 2.53 3.857 4.42 10.477 7.42 13.413 23.11 22.683 46.99 30.914 73.91 46.789-50.22 15.454-95.4 35.486-121.45 84.507a185.5 185.5 0 0 0-18.17 53.73c44.94 20.565 56.41 59.699 66.11 105.18 5.84 27.414 7.99 54.504 11.77 82.147 7.16 49.12 17.04 97.81 29.58 145.84 3.16 12.15 8.59 34.42 13.06 45.48 36.35-16.78 70.97-36.01 107.85-51.7 24.38-10.37 48.53-21.17 73.03-31.27A1600.4 1600.4 0 0 1 2048 1011.15V2048H0v-642.2c88.528 13.07 174.988 31.27 262.7 48.58 7.264 1.44 16.648 3.08 24.042 3.74 9.844-3.05 36.008-15.55 45.646-20.34a1058 1058 0 0 0 138.167-81.34l-.975-2.15c-25.933 11.6-50.004 20.9-77.534 28.05-89.719 23.28-205.994 16.27-294.78-9.01 99.553-9.47 168.162-8.79 258.736-59.17l.068-3.66c-35.776 6.42-63.882 5.44-99.828 4.56l-1.911-2.47c15.986-4.83 33.601-8.32 50.266-13.42 47.159-14.46 80.529-31.31 122.326-56.09l-1.059-2.85c-75.889 26.58-151.365 29.5-231.261 24.15-18.52-1.24-39.966-5.43-57.041-6.46l.506-1.77c178.736-21.68 319.126-76.82 473.739-168.79 32.806-19.52 61.927-40.82 93.295-60.49l-2.037-1.77c-86.054 44.9-138.762 54.97-236.56 52.99-42.034-.85-82.207-2.32-124.642-5.33-20.837-1.48-48.109-5.8-67.361-6.85l2.259-1.93c23.04.36 68.858-7.2 92.917-10.48 196.947-26.87 358.383-111.21 520.921-220.301-68.371 25.252-120.998 26.38-193.659 22.974l-.639-2.505c86.285-11.758 177.444-57.026 251.5-100.376 13.834-8.098 27.076-17.632 40.85-25.789-48.82 13.357-85.198 13.747-135.04 8.74"/><path fill="#fefefe" d="M888.633 1588.24c6.953-4.39 18.578-9.48 26.282-13.14a3097 3097 0 0 0 44.743-21.6c65.022-32.03 126.022-65.16 195.302-88.27 69.44-23.17 138.3-37.44 211.49-40.13 5.24-.19 25.28-1.99 28.93-.18 9.75 21.95 20.83 48.35 32.19 69.21-10.96 3.23-52.02 5.22-65.69 6.85-41.15 4.72-82.07 11.22-122.66 19.49 1.34.7 2.68 1.4 4.01 2.11 8.86-2.42 31.31-5.12 40.89-6.19 47.12-5.26 105.17-10.49 152.53-6.4 30.46 2.29 59.32 4.83 89.55 10.29 61.9 11.19 122.99 29.39 183.34 47.65 79.92 24.19 162.06 55.68 246.2 60.96 31.5 1.97 61.18-1.21 92.26-5.42V2048H0v-431.5c24.886 7.34 54.912 13.34 80.585 19.02a1646 1646 0 0 0 390.72 41.34c30.304-.54 60.582-2.05 90.788-4.54 10.311-.81 61.693-7.7 66.991-6.66 26.924-6.47 56.515-10.5 84.785-17.29a750 750 0 0 0 33.673-8.74c10.702-3.15 44.105-14.31 52.45-14.5 12.552-5.86 29.864-12.37 42.858-17.89 7.945-3.38 39.42-18.03 45.783-19"/><path fill="#25343d" d="M1684.42 1888.36c-32.8-11.45-64.62-22.41-98.47-8.99-25.98 8.83-56.06 40-53.73 69.46 4.33 54.87 82.79 55.13 118.19 41.27 97.76-38.27 160.38-128.23 257.15-167.51 45.32-18.39 92.24-30.77 140.44-34.94V2048H0v-97.62c7.927-5.21 20.067-15.33 28.45-21.46a319.4 319.4 0 0 1 59.537-34.26c48.943-21.47 91.822-25.88 141.615-6.3l-2.711 2.67c-36.587-.01-80.932 14.24-104.664 42.82-19.22 23.14-1.406 41.28 23.477 44.31 42.562 5.2 71.194-31.23 98.91-56.88a553 553 0 0 1 40.736-33.89c58.557-43.62 141.94-71.63 205.854-22.24-14.613-3.72-28.579-6.15-45.903-5.18-42.108 2.35-110.592 35.41-111.188 84.53-.294 24.14 41.951 35.86 62.992 27.25 21.075-8.62 40.002-23.74 58.889-36.94 41.138-28.58 81.141-53.73 127.646-72.36 53.907-21.6 92.956-21.96 140.305 14.24-25.823-8.28-41.801-13.14-68.638-3.9-27.867 10.01-54.423 25.9-68.368 53.01-21.978 42.72 27.195 73.22 64.394 54.96 50.143-24.61 89.789-69.18 134.32-102.22a388.3 388.3 0 0 1 84.728-47.7c47.186-19.44 110.766-32.85 159.599-12.28 35.1 14.79 63.24 45.3 77.59 80.29a134.75 134.75 0 0 0-79.61-28.42c-40.909-1.25-93.539 16.14-95.797 66.19-.534 11.84 5.783 24.52 14.53 32.43 24.636 22.93 64.717 24.92 94.277 10.05 71.18-35.81 130.92-105.52 215.74-109.53 32.03-1.51 57.57 10.15 80.64 32.13q-4.23-1.05-8.49-2.01c-45.77-10.3-93.58 2.91-106.91 52.47-5.54 20.61 13.36 39.39 32.53 40.05 66.12 1.68 122.27-62.55 172.75-98.86 77.31-55.62 188.68-97.36 257.19-4.99m-795.787-300.12c6.953-4.39 18.578-9.48 26.282-13.14a3097 3097 0 0 0 44.743-21.6c65.022-32.03 126.022-65.16 195.302-88.27 69.44-23.17 138.3-37.44 211.49-40.13 5.24-.19 25.28-1.99 28.93-.18 9.75 21.95 20.83 48.35 32.19 69.21-10.96 3.23-52.02 5.22-65.69 6.85-41.15 4.72-82.07 11.22-122.66 19.49 1.34.7 2.68 1.4 4.01 2.11 8.86-2.42 31.31-5.12 40.89-6.19 47.12-5.26 105.17-10.49 152.53-6.4 6.02 13.12 13.85 25.46 21.66 37.57 31.45 48.79 73.43 95.25 134.62 101.24-31.31 19.41-71.5 21.83-106.66 13.57-4.12-.98-8.18-2.22-12.16-3.69 6.8 17.43 14.2 25.4 28.76 36.9-2.84 1.02-3.93 1.2-6.93 1.77-55.92-7.73-105.53 17.02-152.78 43.99 18.37-28.65 38.31-47.76 59.07-72.91-34.52 23.16-64.35 47.74-102.96 65.2-36.55 16.52-70.1 22.6-108.7 30.57 29.84-20.8 66.99-56.37 89.86-84.42-52.39 31.94-121.15 65.04-182.61 72.81-1.83-.88-1.88-.93-3.61-2.06 44.81-26.44 84.04-53.35 118.75-92.91-40.3 12.4-81.43 36.31-118.24 56.68-59.2 32.76-111.589 58.26-177.741 73.96 14.577-9.86 36.019-27.73 49.116-39.81a823 823 0 0 1-104.097 36.06c-22.517 6.09-46.186 11.17-68.442 17.57 12.017-7.77 24.332-15.53 36.733-22.65 50.784-29.17 100.291-60.59 147.446-95.44-56.522 20.35-108.507 38.75-166.582 55.11a1777 1777 0 0 1-141.55 32.68c-29.223 5.57-74.791 13.55-104.588 15.39l-2.14-2.86a1337.7 1337.7 0 0 0 264.865-149.84c20.759-14.88 40.613-30.71 60.893-46.23"/><path fill="#79664c" d="M1243.23 1522.58c-12.23 2.39-44.84 9.93-55.54 9.95l.11.03c-1.67.35-2.74.85-4.45 1.1l-.42-.33-.26.26-.01-.05c1.35-1.95 6.92-1.92 9.32-2.51l3.52-.89c11.69-3.09 32.1-8.35 43.72-9.67 1.34.7 2.68 1.4 4.01 2.11"/><path fill="#dd9245" d="m1235.11 1579.58.84 2.41c-90.12 25.57-162.56 72.09-259.88 55.62-5.629-.35-13.363-2.4-18.829-4.12l.527-1.4c16.66 2.91 24.655 2.64 41.358 3.02 37.244-2.07 88.944-23.73 126.584-32.95 37.35-9.16 71.49-15.83 109.4-22.58"/><path fill="#a67e54" d="M957.768 1632.09c16.66 2.91 24.655 2.64 41.358 3.02-9.151 2.04-18.345-.39-23.056 2.5-5.629-.35-13.363-2.4-18.829-4.12z"/><path fill="#646261" d="M957.241 1633.49c-3.517-.4-12.72-3.72-15.613-5.57l-.257-.88-.598.02-.046-.32c1.021-.85 15.165 4.58 17.041 5.35z"/><path fill="#79664c" d="M1235.11 1579.58c1.99-.89 11.07-2.39 12.92-2.11l.11.2c-.5 1.14-10.39 3.81-12.19 4.32z"/><path fill="#dd9245" d="M1704.85 1781.64c85.5 15.05 154.25-16.09 230.01-49.5 36.83-16.25 74.95-30.03 113.14-42.69v52.3c-40.55 5.84-80.73 14.01-120.34 24.47-22.97 6.18-45.02 14.2-67.48 20.25-51.23 13.81-103.28 14.69-154.25-1.52zM0 1755.67c84.914-27.35 167.672-28.76 253.322-2.37-5.253 4.19-17.589 1.06-25.849 1.81-68.09-.53-125.531 4.89-189.901 30.82-14.012 5.64-24.516 12.74-37.572 18.88z"/><path fill="#25343d" d="M629.084 1665.66c26.924-6.47 56.515-10.5 84.785-17.29a750 750 0 0 0 33.673-8.74c10.702-3.15 44.105-14.31 52.45-14.5a772.3 772.3 0 0 1-287.846 89.67c-13.183 1.33-31.386 3.32-44.356 3.5-6.871-1.34-8.312 2.56-14.111-1.94 53.892-14.23 123.018-32.57 175.405-50.7"/><path fill="#d9a66f" d="M253.322 1753.3c2.531.5 8.17 2.69 10.791 3.68-8.916-.05-27.986-.48-36.64-1.87 8.26-.75 20.596 2.38 25.849-1.81"/><path fill="#dfbd95" d="M1705.93 1784.95c-2.15-.63-18.16-6.06-18.62-7.06 1-.86 15.55 3.07 17.54 3.75z"/><path fill="#646261" d="M441.095 1719.42c4.32-1.12 8.185-2.46 12.584-3.06 5.799 4.5 7.24.6 14.111 1.94-1.815.87-21.665 1.5-24.824 1.23z"/><path fill="#464a4d" d="M1502.87 1695.58c2.66 1.42 6.4 4.05 9.04 5.81-6.08-1.7-9.67-2.89-15.97-4.04 3-.57 4.09-.75 6.93-1.77m-950.843 93.69c3.618-1.66 7.231-3.31 10.848-4.96l2.14 2.86c-4.024.65-7.834 1.21-11.859 1.91zm-322.425 99.09c1.497.5 5.563 1.64 6.4 3.06-.63 1.04-7.929-.27-9.111-.39zm858.638-134.75c1.91-1.22 3.92-2.13 5.97-3.08 1.73 1.13 1.78 1.18 3.61 2.06-2.13.74-6.13 1.27-8.6 1.73z"/><path fill="#b5b9bd" d="M1089.22 1754.32c-.83.37-2.1 1.09-2.99.42l-.01-.2c.48-.61 1.25-.67 2.02-.93z"/><path fill="#dd9245" d="m1837.64 1671.49.72 1.74c-78.82 56.43-143.41 49.88-233.45 52.63-49.73 1.52-110.65 14.31-158.06 29.13 44.48-34.55 121.15-55.04 177.51-55.76 76.23-.99 141.01 5.09 213.28-27.74M197.402 1781.27c2.459.68 7.824 1.68 9.306 2.17 75.247 11.36 184.426 32.87 257.465 15.95l1.215 1.92-3.184 1.32c-62.586 25.45-133.116 22.97-197.549 5.47-21.082-5.72-41.581-14.29-61.673-22.77-1.577-.44-2.43-.76-4.011-1.33z"/><path fill="#d9a66f" d="M197.402 1781.27c2.459.68 7.824 1.68 9.306 2.17-2.042.05-2.158.55-3.726 1.89-1.577-.44-2.43-.76-4.011-1.33z"/><path fill="#dd9245" d="M1203.7 1817.96c56.21.48 113.18-21.25 165.28-41.17-46.75 39.19-100.17 48.71-159.69 43.48l-3.27-.3z"/><path fill="#dfbd95" d="M1206.02 1819.97c-2.31-.29-12.54-1.37-14.11-2.48 1.57-1.38 9.64-.06 11.79.47zm-741.847-20.58c.593-.24 1.052-.55 2.256-.75.893-.14 5.72-2.11 7.138-1.44.572.28-.594 1.06-1.122 1.29-2.247.95-4.7 1.89-7.057 2.82zm1385.617-134.91c-3.19 2.84-7.74 6.62-11.43 8.75l-.72-1.74c2.2-1.6 9.32-5.39 12.15-7.01M198.971 1784c-2.023-.66-8.213-2.16-9.421-3.48l.017-.12c1.01-.64 6.393.66 7.835.87z"/><path fill="#fefefe" d="M2048 1288.22v335.25c-31.08 4.21-60.76 7.39-92.26 5.42-84.14-5.28-166.28-36.77-246.2-60.96-60.35-18.26-121.44-36.46-183.34-47.65-30.23-5.46-59.09-8-89.55-10.29-47.36-4.09-105.41 1.14-152.53 6.4-9.58 1.07-32.03 3.77-40.89 6.19-1.33-.71-2.67-1.41-4.01-2.11 40.59-8.27 81.51-14.77 122.66-19.49 13.67-1.63 54.73-3.62 65.69-6.85-11.36-20.86-22.44-47.26-32.19-69.21 5.26-2.61 58.85-1.93 68.43-2.17 116.23-2.33 224.06-31.51 331.41-74.05 78.23-30.99 169.78-49.38 252.78-60.48"/><path fill="#dd9245" d="M1427.57 1494.13c2.42 1.15 48.22.79 54.42.91 30.41.7 60.75 3.03 90.91 6.99 66.53 8.86 134.09 26.5 199.12 42.73 93.89 23.44 180.42 38.91 275.98 15.94v62.77c-31.08 4.21-60.76 7.39-92.26 5.42-84.14-5.28-166.28-36.77-246.2-60.96-60.35-18.26-121.44-36.46-183.34-47.65-30.23-5.46-59.09-8-89.55-10.29-47.36-4.09-105.41 1.14-152.53 6.4-9.58 1.07-32.03 3.77-40.89 6.19-1.33-.71-2.67-1.41-4.01-2.11 40.59-8.27 81.51-14.77 122.66-19.49 13.67-1.63 54.73-3.62 65.69-6.85m383.18-.06c5.78-2.41 11.57-4.77 17.38-7.08 79.73-31.5 142.57-27.32 219.87 6.15v29.76c-56.07-26.5-141.34-40.82-202.69-33.16-9.32 1.16-24.05 2.97-32.72 5.68z"/><path fill="#dfbd95" d="M1812.59 1495.42c-1.31.34-4.58 1.73-5.84.9-.18-1.6 2.94-2.05 4-2.25z"/><path fill="#fefefe" d="M1326.71 1251.69c4.43-1.15 16.87-6.17 21.6-7.92l43.33-15.9c39.64-14.09 79.39-27.85 119.26-41.28 162.43-55.94 365.45-103.03 537.1-95.78v95.72c-66.39 13.1-111.8 23.93-175.27 49.25-68.46 27.3-132.12 63.47-198.38 92.96a853.2 853.2 0 0 1-206.35 61.15 1527 1527 0 0 1-56.73 8.12c-6.1.79-19.93 2.89-25.75 3.06-21.42-48.42-39.57-99.95-58.81-149.38"/><path fill="#dd9245" d="M1390.26 1341.59c18.83-22.64 41.3-40.13 64.63-57.4 72.18-53.43 140.77-70.41 228.15-84.63l.62 3.3c-101.37 29.09-204.01 82.87-293.4 138.73"/><path fill="#d9a66f" d="M1683.04 1199.56c10.33-1.26 19.91-3.11 30.43-4.06-9.91 2.6-19.9 4.74-29.81 7.36z"/><path fill="#dd9245" d="M1385.52 1401.07c5.82-.17 19.65-2.27 25.75-3.06 18.96-2.35 37.87-5.06 56.73-8.12a853.2 853.2 0 0 0 206.35-61.15c66.26-29.49 129.92-65.66 198.38-92.96 63.47-25.32 108.88-36.15 175.27-49.25v101.69c-83 11.1-174.55 29.49-252.78 60.48-107.35 42.54-215.18 71.72-331.41 74.05-9.58.24-63.17-.44-68.43 2.17-3.65-1.81-23.69-.01-28.93.18-73.19 2.69-142.05 16.96-211.49 40.13-69.28 23.11-130.28 56.24-195.302 88.27a3097 3097 0 0 1-44.743 21.6c-7.704 3.66-19.329 8.75-26.282 13.14-6.363.97-37.838 15.62-45.783 19-12.994 5.52-30.306 12.03-42.858 17.89-8.345.19-41.748 11.35-52.45 14.5a750 750 0 0 1-33.673 8.74c-28.27 6.79-57.861 10.82-84.785 17.29-5.298-1.04-56.68 5.85-66.991 6.66-30.206 2.49-60.484 4-90.788 4.54a1646 1646 0 0 1-390.72-41.34c-25.673-5.68-55.699-11.68-80.585-19.02v-8.74c46.485 11.06 104.059 17.22 151.708 23.02 179.669 21.88 355.862 12.31 531.542-32.85 39.434-10.14 75.936-23.44 114.561-35.86 3.803-1.34 6.821-1.11 8.945-4.44 26.959-6.14 66.355-24.58 92.399-35.79 115.865-49.87 232.595-94.64 358.915-108.76 41.5-4.64 86.27-5.93 127.45-12.01"/><path fill="#fefefe" d="M0 1475.42a4478 4478 0 0 1 196.324 16.69c15.251 1.5 56.164 3.65 68.968 6.46-54.435 26.72-99.252 40.75-157.093 57.78.583 2.53 6.462 1.62 9.109 1.8 95.511.18 190.963-4.77 285.942-14.83 34.707-3.86 73.022-8.5 106.974-15.1-12.699 6.93-26.609 12.34-39.821 18.24-48.225 21.52-94.651 34.65-145.386 47.98 4.602 2.53 27.094.97 35.427 1.71 140.207 1.12 295.632-14.58 433.726-36.65l3.641 2.57c-38.625 12.42-75.127 25.72-114.561 35.86-175.68 45.16-351.873 54.73-531.542 32.85-47.649-5.8-105.223-11.96-151.708-23.02z"/><path fill="#646261" d="M360.444 1596.15c-3.843.44-41.087 1.48-41.89.16l.099-.29c1.766-1.17 4.249-1.31 6.364-1.58 4.602 2.53 27.094.97 35.427 1.71"/><path fill="#8d8e90" d="M117.308 1558.15c-2.35.33-13.436 1.64-14.6.21-.075-1.42 4.672-1.86 5.491-2.01.583 2.53 6.462 1.62 9.109 1.8"/><path fill="#dd9245" d="M2048 1011.15v79.66c-171.65-7.25-374.67 39.84-537.1 95.78a7596 7596 0 0 0-119.26 41.28l-43.33 15.9c-4.73 1.75-17.17 6.77-21.6 7.92-90.28 31.56-173.59 60.17-267.06 82.52a2323 2323 0 0 1-102.364 22.53c-14.41 2.8-49.358 8.15-61.665 11.75l-2.119-2.14c6.595-1.1 13.375-2.78 19.892-4.25 102.226-23.1 200.666-56.79 296.726-98.6 35.04-15.25 70.71-30.61 104.49-48.55 36.35-16.78 70.97-36.01 107.85-51.7 24.38-10.37 48.53-21.17 73.03-31.27A1600.4 1600.4 0 0 1 2048 1011.15M0 1405.8c88.528 13.07 174.988 31.27 262.7 48.58 7.264 1.44 16.648 3.08 24.042 3.74 12.26 4.39 64.474 9.91 80.835 11.61 151.515 15.78 309.037 1.06 457.131-33.16 31.098-7.19 61.931-17.19 92.136-26.91.353.74.706 1.48 1.059 2.21-31.891 11.07-64.276 23.29-96.532 33.11a1350.5 1350.5 0 0 1-373.938 59.5c-39.065.14-78.129-.55-117.165-2.09-19.115-.93-47.285-3.95-64.976-3.82-12.804-2.81-53.717-4.96-68.968-6.46A4478 4478 0 0 0 0 1475.42z"/><path fill="#79664c" d="m966.936 1391.33-.108 1.57c-15.719 4.66-32.53 13.79-48.925 18.97-.353-.73-.706-1.47-1.059-2.21 3.438-2.07 42.116-14.69 50.092-18.33m-71.315-22.84c-3.759.84-37.647 6.9-38.873 5.83l.069-.19c1.418-.9 33.89-7.49 36.685-7.78z"/><path fill="#ebecec" d="M794.17 1559.5c3.762-.64 8.9-1.49 12.586-1.87-2.124 3.33-5.142 3.1-8.945 4.44z"/><path fill="#b5b9bd" d="M719.083 1016.5c-5.012 4.26-8.753 6.59-13.981 10.37l-2.037-1.77c5.539-3.43 10.236-5.71 16.018-8.6"/><path fill="#ebecec" d="M425.864 1240.23c5.254-2.37 10.756-4.45 16.122-6.58-4.582 2.98-10.356 6.91-15.063 9.43zm55.404 108.19c-4.379 3.88-6.009 4.81-10.713 8.02l-.975-2.15c2.575-1.8 8.558-4.37 11.688-5.87M356.07 1310.5l4.895-.92c.687-.13 1.716-.38 2.316.11-.174 1.21-6.251 3.97-7.279 4.47z"/><path fill="#464a4d" d="M966.936 1391.33c8.988-4.38 9.838-1.41-.108 1.57z"/><path fill="#fefefe" d="M0 0h2048v441.918L0 441.892z"/><path fill="#25343d" d="M0 0h147.275l.211 244.223c-.097 39.998-1.956 93.852.051 132.51l1774.643.005c-.18-125.062-1.01-251.739.5-376.738H2048v441.918L0 441.892z"/><path fill="#25343d" d="M835.597 0h10.406c16.786 26.87 21.773 53.908 22.336 85.086-9.043 8.482-21.774 19.481-30.019 28.034a1980 1980 0 0 0 28.364-9.661c-17.654 66.24-42.971 91.068-107.537 113.224 3.572 2.058 6.097 1.287 10.32 1.497 19.187-2.248 33.152-7.535 49.776-17.289-40.655 42.452-82.565 60.381-142.05 62.069q-1.29.039-2.582.04l1.101 3.348c22.932 9.51 31.413 11.03 55.663 14.284-33.712 9.684-63.192 6.288-96.884-2.076 9.359 6.408 25.723 18.242 34.091 25.727l-.635 1.769c-15.967-7.373-34.755-16.108-51.652-20.91-4.676-1.329-13.943-1.22-19.444-2.266l-1.877-.372-1.26-1.871c-14.786 10.124-58.768 37.061-75.422 40.682-1.98-2.27-1.487-4.156-1.91-7.847 33.784-14.2 50.501-22.862 82.609-41.119 4.13-22.15 5.015-39.292-3.199-60.269l2.399-1.991c8.894 11.108 12.224 17.961 17.065 31.427 6.231-32.12 7.983-46.657 29.425-71.359-5.751 15.734-10.181 30.834-10.767 47.784q.435 4.236.756 8.484c2.368-4.568 4.942-10.497 7.003-15.232 15.582-35.794 36.698-61.613 67.916-85.61 2.288-1.591 4.68-3.05 7.046-4.525 1.849-3.189 2.263-3.957 5.162-1.562 4.195-8.493 32.227-28.957 41.36-39.004 7.411-8.153 17.311-18.519 24.992-27.059-9.2 21.652-19.594 41.63-29.348 62.958 19.827-22.48 27.843-47.003 42.166-71.645C807.333 33.794 826.881 10.8 835.597 0"/><path fill="#fefefe" d="M596.809 277.952c61.415-39.469 96.165-65.031 150.255-112.835l1.103 2.152c-48.549 49.238-87.868 78.666-148.799 111.943z"/><path fill="#ebecec" d="M716.635 121.058c1.849-3.189 2.263-3.957 5.162-1.562l-.915 1.716c-4.388 8.503-22.435 37.86-28.298 44.377l-1.277 1.444c4.437-8.954 15.87-30.583 21.058-38.695l-2.776-2.755c2.288-1.591 4.68-3.05 7.046-4.525"/><path fill="#464a4d" d="M709.589 125.583c2.288-1.591 4.68-3.05 7.046-4.525-1.483 3.058-2.337 4.419-4.27 7.28z"/><path fill="#b5b9bd" d="M747.064 165.117c1.796-1.792 10.469-10.584 12.359-10.67l.274.303-.481.363.552-.216c-2.444 3.511-8.356 9.21-11.601 12.372zm12.083 51.566c3.572 2.058 6.097 1.287 10.32 1.497-2.228.414-12.792 1.775-13.81.145l.099-.484c1.038-.846 2.056-.886 3.391-1.158"/><path fill="#ebecec" d="M633.914 217.941q.435 4.236.756 8.484c-2.448 6.415-.93-7.667-.756-8.484m-37.105 60.011 2.559 1.26c-2.069 1.332-2.528 1.715-4.394 3.292l-1.26-1.871a111 111 0 0 1 3.095-2.681m78.903-11.604c-3.724-1.639-8.789-3.516-1.101-3.348z"/><path fill="#25343d" d="M1198.28 0h10.76c17.73 30.612 21.74 47.59 22.08 83.51-9.83 10.259-19.88 19.073-30.26 28.718 9.4-2.783 18.81-5.491 28.25-8.124-19.11 69.741-47.59 94.212-116.17 113.755 27.35-.906 42.35-1.798 66.58-16.172-32.03 40.457-88.69 60.282-139.12 60.206l-4.17 2.806c14.98 6.264 33.3 13.98 49.68 14.423 1.45 1.078 1.53.91 1.86 2.547-29.91 7.02-56.37 5.492-85.84-3.317l-.94 3.778c10.32 6.813 19.79 16.023 28.39 21.626l-.78 1.829c-22.44-11.025-47.42-23.126-72.526-23.945 59.076-34.882 97.866-57.063 146.686-107.449 1.59-3.691 3.72-3.752 3.81-6.834-40.32 35.586-79.29 65.355-124.816 94.249-29.315 18.604-56.231 40.229-88.821 53.875-4.005 1.677-10.353 5.574-14.407 6.052-.852-3.916-.6-4.513-.063-8.592 1.83-1.831 24.837-11.275 29.396-13.325 18.505-8.322 34.347-17.558 51.613-28.111 4.803-31.929 5.36-41.189-7.539-70.28 14 14.032 17.847 23.502 25.639 41.311.908-33.978 9.39-51.55 31.108-76.617-12.573 25.923-13.762 35.01-13.412 62.727 15.442-36.235 25.462-60.567 55.902-87.479 11.05-9.769 17.07-15.757 30.42-23.163.78-4.613 3.29-2.193 4.95.089 4.14-7.186 8.14-10.875 14.67-15.932 19.66-15.226 34.58-31.563 50.5-50.504-5.17 11.453-10.39 23.118-15.88 34.396-5.15 10.591-10.9 20.27-15.4 31.218 19.07-24.33 28.25-43.844 42.38-70.124 7.06-13.14 25.89-34.96 35.47-47.147"/><path fill="#ebecec" d="M1081.59 118.004c.78-4.613 3.29-2.193 4.95.089-2.72 5.671-23.79 39.998-27.2 44.539 7.25-17.234 15.84-30.1 22.25-44.628"/><path fill="#b5b9bd" d="M1126.28 148.867c-2.74 4.196-19.52 22.958-23.52 25.324 1.59-3.691 3.72-3.752 3.81-6.834 1.66-2.409 16.7-15.746 19.71-18.49"/><path fill="#ebecec" d="M1000.99 282.13c-.79-.393-4.52-1.873-4.611-3.17a.55.55 0 0 1 .204-.463c.868-.687 2.393-.369 3.38-.281l1.967.136zm35.24-17.431c-.92-.42-3.06-1.088-3.46-2.198l.13-.198c1.26-.665 5.98-.411 7.5-.41z"/><path fill="#25343d" d="M499.224 0h11.079c16.766 27.51 21.074 50.054 20.678 82.462-7.935 9.718-20.703 20.484-30.409 28.981 8.465-2.643 20.299-5.945 28.344-9.022-20.804 64.539-45.221 90.871-110.964 110.061 4.635 3.048 4.573.644 9.723 1.763 15.559-.796 25.718-4.024 39.787-10.199l1.708 3.287c-42.188 40.288-85.127 48.691-141.62 51.223 14.329 7.803 24.904 11.473 41.072 15.067 4.742 1.054 14.432 2.707 18.655 4.003-32.009 9.215-66.782 3.771-97.932-5.838 12.498 9.847 28.879 23.513 41.799 32.106-19.778-8.386-51.676-25.937-72.812-25.9l-2.149-3.926c62.235-34.015 99.352-58.36 150.197-108.636l-1.775-1.86c-12.487 10.716-27.14 23.807-40.078 33.64-32.801 24.926-68.541 48.448-103.389 70.489-16.56 10.6-69.34 47.01-88.639 45.941l-1.515-2.408c4.756-9.012 19.795-11.362 28.619-15.459 18.624-8.649 39.362-18.008 56.154-29.87l1.228-.88c.051-2.166 2.276-16.088 2.647-18.639 3.318-22.837-.206-33.884-9.547-54.138 13.585 14.756 18.917 26.365 24.85 45.173 5.256-30.039 12.261-45.734 30.887-69.503l2.672 2.238c-8.077 19.782-10.745 33.261-14.558 53.838 6.651-10.039 14.188-27.28 20.748-38.59 19.959-34.409 48.696-56.257 81.276-77.838-7.664 16.785-15.921 34.493-22.129 51.856 12.575-18.007 18.454-37.472 29.678-55.636 3.588-5.808 17.921-18.076 23.481-23.656 9.201-9.233 15.247-16.532 23.299-26.648-6.612 15.063-25.113 48.649-29.024 60.902 18.307-24.263 29.903-45.008 44.113-71.73C471.589 30.973 490.05 10.27 499.224 0"/><path fill="#ebecec" d="m413.58 155.654.872 1.673c-2.769 2.638-5.302 5.416-8.072 8.105l-1.775-1.86zm4.372 56.828c4.635 3.048 4.573.644 9.723 1.763-3.987 2.099-23.141.368-9.723-1.763"/><path fill="#8d8e90" d="M413.58 155.654c.655-.757 6.85-7.352 7.678-5.982-.056 1.596-4.624 5.628-5.959 6.873l-.847.782z"/><path fill="#25343d" d="M1531.84 0h13.26c13.61 28.848 21 48.974 20.83 82.144-7.24 9.255-20.02 20.604-29 29.068 10.04-2.453 17.67-4.52 27.13-8.866-13.03 65.053-40.47 93.321-100.05 118.238l2.58 2.48c18.05-1.845 37.79-8.892 52.57-19.463-41.76 50.586-75.45 55.322-136.84 62.938 21.56 7.852 33.85 13.286 57 14.643.76 1.12.63 1.031.68 2.495-36.01 7.589-55.67 5.939-91.54-3.744 11.5 8.725 24.05 18.678 35.73 26.952l-.72 1.677c-27.9-12.923-40.13-22.628-71.44-24.015l-.07-1.512c.8-.37 1.56-.601 2.16-1.194 49.1-23.92 95.31-64.652 130.7-105.77 1.08-.876 1.04-.884 1.75-2.097l.57-.697-1.38-1.671c-34 35.383-73.61 66.294-113.51 94.646-24.46 17.385-49.04 35.227-76.47 47.707-4.32 1.968-15.97 8.292-20.11 7.934-.84-3.601-.62-3.799-.16-7.36 3.82-5.706 10.47-5.167 16.42-7.733 15.79-6.819 45.03-20.38 58-30.255 7.81-5.942 7.47-39.756 4.98-48.938-1.43-6.952-3.72-13.745-5.93-20.176l.68-.768c7.83 12.764 10.67 19.899 14.78 34.239 6.9-21.352 6.24-42.465 24-62.248-7.86 23.38-9.95 35.641-10.63 60.351 13.01-38.611 35.06-81.31 68.75-105.941.83-5.401 2.78.214 4.21 1.915 12.03-18.81 32.73-33.549 48.37-49.895 7.57-7.91 12.86-14.324 19.69-22.8l2.81.799c-5.95 17.482-18.2 37.387-24.45 55.114 19.34-26.848 28.64-48.035 43.14-76.893 5.05-10.047 24.12-32.017 31.51-41.304"/><path fill="#ebecec" d="M1406.56 133.064c.83-5.401 2.78.214 4.21 1.915-8.23 13.658-22.95 36.165-32.28 48.222 7.87-14.958 21.5-36.241 28.07-50.137"/><path fill="#b5b9bd" d="M1445.76 171.606c2.18-2.47 12.8-13.978 15.13-15.293l.45.133c-.97 2.661-11.86 14.766-14.2 16.831z"/><path fill="#ebecec" d="m1464.01 220.584 2.58 2.48c-.8.065-8.03 1.277-7.23-.213.49-.902 3.62-1.891 4.65-2.267"/><path fill="#25343d" d="M1821.57 0h16.38c14.23 17.89 24.55 45.863 27.48 68.363-6.43 11.83-14.05 21.47-22.15 32.139 6.66-3.545 16.69-9.275 23.47-11.806-7.04 67.577-25.23 90.647-84.4 121.143 26.28-5.874 39.86-11.595 59.48-29.703-30.42 49.323-58.87 67.011-115.79 80.362q-3.48.82-6.99 1.504c11.37 4.038 27.14 6.751 39.21 7.429 3.51 2.609 6.78-.877 12.56 2.053a135.25 135.25 0 0 1-71.08 10.098c-2.36.572-3.19.77-5.42 1.705 6.08 3.356 21.75 12.398 27.65 14.514l-.45 2.724c-10.42-5.918-54.44-13.63-69.23-12.686 16.14-14.659 32.77-27.232 49.15-41.526 28.14-24.557 47.53-50.735 69.02-80.874l-2.15-1.459c-9.92 12.109-30.13 36.815-40.22 47.15-24.91 25.501-106.93 104.641-137.19 115.386l-1.44-.259c-1.54-4.067-1.56-2.197-.94-5.829 5.13-5.343 19.75-12.032 27.15-16.73a311.5 311.5 0 0 0 43.58-33.35c-.08-31.362.32-41.095-16.13-69.033 9.94 8.868 21.13 21.437 25.91 34.089 1.33-.706 2.67-1.394 4.01-2.062-.23-3.13 1.69-10.087 2.49-13.346 5.44-22.227 13.74-44.756 27-63.57-6.58 19.006-8.42 41.258-13.82 61.41l1.51.58c16.36-40.377 30.52-73.265 59.48-106.226.99-1.99 1.27-1.54 3.42-1.204 3.05-7.63 14.05-20.615 18.94-28.32 5.96-9.395 11.55-18.648 17.27-28.216-4.46 16.16-8.57 32.425-13.97 48.308-1.65 4.852-3.12 9.734-4.37 14.706 13.8-26.557 20.72-47.494 29.38-75.993 3.35-11.029 15.42-30.91 21.2-41.471"/><path fill="#b5b9bd" d="M1749.7 112.19c.99-1.99 1.27-1.54 3.42-1.204-1.55 5.132-12.28 37.204-14.6 39.445-1.2-4.012 10.88-31.032 11.18-38.241m32.67 33.406c-3.46 6.97-7.02 13.699-11.91 19.843l-2.15-1.459c2.96-4.85 10.43-13.8 14.06-18.384"/><path fill="#ebecec" d="M1694.32 283.287c-.95-.341-3.49-1.003-3.91-2.097.2-1.397 8.36.201 9.33.392-2.36.572-3.19.77-5.42 1.705m-25.29-47.883c1.33-.706 2.67-1.394 4.01-2.062l-.49 1.782c-.5 2.213-1.06 5.607-2.77 1.838q-.36-.786-.75-1.558"/><path fill="#8d8e90" d="m1688.71 217.836 1.51.58c-.14.5-.74 3.682-1.91 2.992-.59-1.142.04-2.416.4-3.572"/><path fill="#464a4d" d="M1758.26 269.431c2.25-.047 15.76-.874 17.02-.1l.06.145c-1.16 1.21-2.96 1.563-4.52 2.008-5.78-2.93-9.05.556-12.56-2.053"/><path fill="#646261" d="M467.462 204.046c4.265-2.124 7.728-4.538 11.753-7.048a431 431 0 0 1-10.045 10.335z"/><path fill="#464a4d" d="M305.822 167.918c7.248-8.682 7.372-6.863 2.672 2.238z"/><path fill="#8d8e90" d="M1439.32 281.182c1.29-.102 5.92-.594 6.74.326 1.21 1.35-6.05 2.168-6.06 2.169-.05-1.464.08-1.375-.68-2.495"/><path fill="#464a4d" d="M595.792 212.08c-.456-.892-3.93-6.706-3.18-7.329 1.181.059 4.726 4.397 5.579 5.338zM1478.83 62.285l8.14-10.316c-1.38 2.981-3.76 8.567-5.33 11.114z"/><path fill="#8d8e90" d="M1085.91 279.122c6.29-.372 11.11 1.217 1.86 2.547-.33-1.637-.41-1.469-1.86-2.547"/><path fill="#464a4d" d="M258.332 277.994c-2.101-.194-10.043-.18-3.612-3.206l1.463-.72z"/><path fill="#646261" d="M1029.38 303.756c6.79 4.039 4.55 6.033-.78 1.829zm354.81 3.129c1.24.624 4.19 1.897 4.19 3.504-1.02.838-4.26-1.423-4.91-1.827zm-715.608-2.602 1.672.952c.862.472 2.821 1.227 3.129 2.342-.368 1.226-4.913-1.297-5.436-1.525z"/><path fill="#8d8e90" d="M1721.97 297.801c4.51 2.468 5.71 3.819-.45 2.724z"/><path fill="#b5b9bd" d="M1308.98 207.431c-.6-.827-1.4-1.375-.91-2.392 1.14-.183.89.602 1.59 1.624zm135.84-31.36c.3-1.458.37-1.44 1.75-2.097-.71 1.213-.67 1.221-1.75 2.097"/><path fill="#dd9245" d="M0 500.703c116.159 9.578 249.786 55.696 363.253 88.427 154.556 44.583 282.2 69.285 443.104 74.913 7.222 1.39 22.21.321 30.244.854 6.729.446 13.798 1.018 20.502 1.385-6.582 1.087-25.174 1.482-32.711 1.777a2009 2009 0 0 1-83.025 1.416c-127.521-.439-236.186-16.051-360.952-42.48-91.118-19.302-190.2-45.336-281.791-59.437A1136 1136 0 0 0 0 556.944zm0 241.549c229.463 55.756 554.521 62.012 786.374 17.715l.416 1.647C537.672 818.563 253.458 835.946 0 802.125zm0 276.008a1459 1459 0 0 1 193.504-45.822c88.17-14.347 191.749-21.693 281.037-28.177a9236 9236 0 0 0 174.664-14.766l1.149 2.376C423.072 965.765 209.569 976.513 0 1084.52zm0 163.41c84.745-37.95 167.956-53 260.711-45.53 44.38 3.57 84.465 9.82 129.268 11.97 8.897 1.06 13.361-1.28 18.629 2.64-41.933 4.95-82.164 3.33-123.941 5.38-77.647 3.8-150.768 16.84-223.73 43.79-18.457 6.82-43.677 15.68-60.937 25.1zm0-258.737c4.885.254 10.693 2.45 15.715 3.359 52.512 9.505 111.907-8.842 162.14-22.034 69.248-18.184 136.436-40.067 208.65-41.095 18.469-.263 35.82.811 54.155 2.102-.277 2.617-4.954 2.051-7.791 2.651-130.52 6.725-264.278 92.154-398.72 69.716-12.82-2.14-22.726-9.189-34.149-13.467z"/><path fill="#d9a66f" d="M806.357 664.043c13.412-.535 27.127-.119 40.63-.461a5444 5444 0 0 0 71.581-3c-5.719 2.042-53.209 5.555-61.465 5.7-6.704-.367-13.773-.939-20.502-1.385-8.034-.533-23.022.536-30.244-.854"/><path fill="#dfbd95" d="M649.205 929.495c1.915-.802 42.26-5.316 44.058-4.731l.04.331c-.759.549-39.67 6.361-42.949 6.776zM389.979 1148.11c13.405-.65 26.66.24 40.049-1.98 3.948-.66 3.827-.69 8.458-.62l-.074.02c-6.487 1.36-23.698 5.95-29.804 5.22-5.268-3.92-9.732-1.58-18.629-2.64m396.395-388.143c3.894-1.317 34.498-7.597 35.464-6.377-.508 1.064-31.098 7.474-35.048 8.024zM440.66 865.265c1.374.112 20.945 2.124 21.462 2.345.22.965-3.288.65-5.091.598-4.835-.141-20.556-.115-24.162-.292 2.837-.6 7.514-.034 7.791-2.651"/><path fill="#8d8e90" d="M274.502 1065.91c-2.339.01-3.88-.02-6.196-.55l.655.07-1.854-.56.12-.35-.332.07c1.606-.81 7.97-.66 9.866-.61z"/><path fill="#464a4d" d="M250.133 1313.23c1.42-.2 2.787-.37 4.198-.64l1.911 2.47c-2.705-.04-4.126-.23-6.805-.59z"/><path fill="#8d8e90" d="M696.94 856.173c-1.231-.182-5.195-.508-6.035-1.587l.037-.102c.538-.381 1.319-.453 1.971-.51l3.388-.306z"/><path fill="#646261" d="M137.562 1257.92c-.555-.1-3.443-.25-3.317-1.39.614-.54 1.527-.46 2.289-.42l1.534.04z"/><path fill="#8d8e90" d="M249.437 1314.47h-.317l-1.562-.12-.051-.19c.764-.81 1.57-.79 2.626-.93z"/><path fill="#cc0d1d" d="M1611.36 619.13c12-31.701 23.41-62.399 52.82-82.36 18.93-12.844 38.94-20.112 58.31-31.628-.57 8.374-2.56 16.015-4.42 24.167l12.53-10.997c3.76 23.257-2.94 43.053-16.59 61.857-25.36 34.928-61.34 40.191-101.1 40.865z"/><path fill="#cc0d1d" d="m1611.36 619.13 1.55 1.904c-3.43 3.402-27.84 29.098-30.3 29.235-.05-.107-.1-.214-.16-.322 1.83-5.181 23.72-25.168 28.91-30.817"/><metadata><recraft-signature>{&quot;signed_by&quot;: &quot;recraft&quot;, &quot;signature_b64&quot;: &quot;BhiDEx+movCUEjAeEM92/vVwz3nX45s1Jy5X969cfMPC1CK30C3VPGKBuNQEK8eNOtpNEJ5me1hndh6g+ua5Dw==&quot;, &quot;signing_algo&quot;: &quot;Ed25519&quot;, &quot;generation_timestamp&quot;: 1777253154, &quot;identifier&quot;: &quot;b9dd890e-af27-4de6-a21b-bc36436d5e3e&quot;}</recraft-signature></metadata></svg>