<svg xmlns="http://www.w3.org/2000/svg" width="1024" height="1024" preserveAspectRatio="none" style="display:block" viewBox="0 0 2048 2048"><path fill="#e59d60" d="M657.829 585.117c110.996-23.109 157.342 81.402 210.681 155.94 12.853 17.96 61.205 79.42 78.447 90.347l1.273-.456.172-1.592c-.079-.267 1.408 4.641 1.014 3.927 7.176 13.016 36.444 26.325 48.751 31.604 23.303 9.993 55.973 17.967 80.973 11.686.56-.242 1.13-.484 1.7-.727l1.36-.117c42.39-4.034 85.33-35.673 129.96-37.224 40.88-1.421 73.68 15.1 111.59 27.08 30.37 8.603 59.68 9.019 84.74 32.105 17.96 14.93 24.48 30.902 32.72 52.87 6.01 16.543 12.26 32.44 21.49 47.551 2.11 2.429 5.87 7.059 8.01 9.159 12.56 11.46 28.57 23.62 43.92 31.1 7.05 2.67 21.91 8.11 29.46 7.86a91.37 91.37 0 0 1 42.16 55.32c1.46 5.39 2.17 9.98 2.95 15.49-40.1-.03-81.14.39-121.17-.29-12.63-.08-20.26.42-32.65 2.03-37.79 4.91-77.25 8.65-114.37-1.78-88.8.75-177.6.73-266.39-.08-10.73 4.89-21.24 9.97-32.25 13.83-34.719 12.19-75.663 10.45-110.272-1.26-24.162-8.17-20.995-11.51-48.142-12.24-93.171-1.86-188.735 1.73-281.667-.16 6.23-47.93 36.622-75.07 81.565-87.55l-19.669-171.186c-3.124-27.183-7.612-57.423-9.681-84.344-12.642-4.572-23.205-8.823-33.85-17.188-40.823-32.075-47.342-96.616-14.127-136.455 20.018-24.012 40.929-32.056 71.302-35.25"/><path fill="#47535a" d="M657.829 585.117c5.631 3.068 21.919 5.795 29.073 7.35 32.75 7.117 47.116 36.711 57.309 65.599 19.003 57.795 17.881 129.137 24.607 190.038 9.625 87.147 34.205 219.906 114.71 269.146-6.217-.03-13.449-.25-19.572 0-93.171-1.86-188.735 1.73-281.667-.16 6.23-47.93 36.622-75.07 81.565-87.55l-19.669-171.186c-3.124-27.183-7.612-57.423-9.681-84.344-12.642-4.572-23.205-8.823-33.85-17.188-40.823-32.075-47.342-96.616-14.127-136.455 20.018-24.012 40.929-32.056 71.302-35.25m543.311 316.298c28.32 59.229 86.17 116.415 152.39 129.395 38.46 7.54 84.72-1.42 117.18-23.54 12.56 11.46 28.57 23.62 43.92 31.1-19.51 21.67-42.51 39.29-70.05 49.46a171.53 171.53 0 0 1-131.01-6.26c-49.94-23.03-83.86-67.3-103.63-117.623-5.8-14.755-8.83-29.71-14.35-44.481 1.93-5.838 3.73-12.14 5.55-18.051"/><path fill="#47535a" d="M1054.62 1116.92c73.87-47.8 97.77-94.27 131.08-170.495 25.14 66.555 57.3 131.835 123.35 164.235 2.9 1.42 9.57 4.57 11.96 6.34-88.8.75-177.6.73-266.39-.08m408.08-118.809c-67.54 49.509-159.37 20.139-207.29-41.01-23.01-29.369-32.43-49.624-45.17-83.842 42.29 50.166 100.54 92.954 168.86 92.483 22.64-.157 42.47-3.756 62.11-15.182 6.01 16.543 12.26 32.44 21.49 47.551m81.39 48.119a91.37 91.37 0 0 1 42.16 55.32c1.46 5.39 2.17 9.98 2.95 15.49-40.1-.03-81.14.39-121.17-.29-5.64-.51-13.26-.55-19.06-.75 35.39-13.25 75.47-36.25 95.12-69.77"/><path fill="#47535a" d="m779.51 731.65 1.594-2.338a1735 1735 0 0 0 30.951 116.406c19.4 63.616 48.143 149.345 107.242 186.382a132.7 132.7 0 0 0 101.693 16.7c69.5-16.37 112.43-73.869 147.54-131.502a413 413 0 0 0 15.48-28.168l1.47 2.457c-3.61 9.464-6.17 20.01-9.82 29.938-29.67 80.625-88.2 182.275-182.199 193.445-72.417 8.6-122.941-34.58-157.803-93.79-53.465-90.794-45.684-188.935-56.148-289.53"/><path fill="#47535a" d="M788.878 689.066c27.846 87.003 87.729 213.367 171.134 259.01 67.728 37.061 150.748-.749 197.108-53.544 8.1-9.217 17.5-20.605 26.22-29.174-67.09 160.572-233.227 265.182-329.563 58.466-26.463-56.785-40.269-116.507-54.381-177.241-4.21-18.499-7.297-37.744-11.652-56.255z"/><path fill="#47535a" d="m817.405 708.741 1.511-2.325c25.3 58.145 111.116 149.099 170.464 172.644a171.64 171.64 0 0 0 134.05-2.778c12.81-5.608 26.23-12.912 38.49-19.718-30.81 42.211-64.7 86.583-119.62 93.913-123.966 16.545-193.214-152.479-224.895-241.736M1242.6 882.792c76.07 22.009 130.85-22.595 188.21 56.965l-7.77 4.378a127.55 127.55 0 0 1-52.04 7.816c-54.78-2.737-93.12-30.064-128.4-69.159"/><path fill="#896349" d="m777.669 720.343 1.276-1.864c.685 3.497 1.877 7.367 2.159 10.833l-1.594 2.338c-.668-4.098-.939-7.148-1.841-11.307M1184.01 889.13c.71-1.806 1.42-3.615 2.11-5.432l.97-.16c.18-.916.19-.502.05-1.241 1.85-.051-1.4 8.283-1.66 9.29z"/><path fill="#c48150" d="M787.744 690.328c-.419-1.329-2.51-8.955-1.101-9.564.978.443 1.209 1.698 1.365 2.688l.87 5.614zm-10.075 30.015c-2.882-10.807-.452-14.259 1.276-1.864z"/><path fill="#896349" d="M817.405 708.741c-.259-1.227-1.155-3.843-.734-5.14.262-.169.116-.137.442-.071 1.256 1.358.926.988 1.803 2.886z"/><path fill="#47535a" d="m1676.95 1143.04 4.22.75 1.07 1.61c-.88 2.08-1.75 4.16-2.6 6.25 3.76 8.06 22.53 3.73 17.02 33.29-7.16 38.33-37.52 52.21-61.21 78.96-6.02 6.81-2.92 25.34-12.11 29.82-2.75-30.96 9.99-36.9 30.64-55.59 6.68-6.03 12.37-12.43 18.16-19.25 8.48-9.97 22.46-38.38 8.86-47.81-13.61-2.3-21.46 24.99-24.99 35.22-13.33 38.57-30.2 59.9-65.04 80.36 6.79 11.9 1.96 13.47-7.76 20.27a269 269 0 0 0-.97 42.3c10.17 7.62 3.36 7.37 17.73 10.35 10.87 2.26 34.64 7.19 40.98 16.48 1.51 23.14-135.85 20.97-134.57-.79 5.48-8 20.45-10.86 29.96-13.48 6.72-1.56 13.63-2.62 20.43-3.77 3.1-4.52 4.07-5.31 8.24-8.93.16-13.95.04-27.89-.35-41.84-11.18-8.76-10.01-8.68-8.65-19.17.5-3.81-16.48-11.99-21.42-15.69-19.5-14.63-32.26-36.52-41.18-58.81-4.42-11.03-12.97-45.33-28.28-44.1-13.64 8.83-1.04 34.08 5.46 44.75 13.17 21.61 37.59 32.83 50.29 53.94 1.47 2.44 3.25 22.27 2.17 24.59l-1.86-.67c-2.12-2.86-5.12-7.88-4.94-11.54.84-15.13-14.67-25.77-25.09-34.73-21.21-18.23-43.23-42.29-41.77-72.28.73-15.03 6.87-12.09 16.04-20.09.7-3.43-.34-3.54-2.52-7.62l.58-1.57c16.42-2.09 16.58 13.28 18.66 25.55 48.82 4.64 130.57 3.16 180.13.74 2.57-13.03 2.09-20.78 14.67-27.5m-1107.892 28.65c2.017-9.18 4.975-24.49 15.053-28.76 1.919-.82 6.063.5 6.739 2.77-1.923 2.64-3.448 4.21-4.07 7.41 3.612 5.91 19.553 3.05 18.916 24-.922 41.53-38.892 60.7-62.935 88.21-8.254 9.45-.472 17.64-12.855 30.54 1.574-8.08.869-16.95 2.568-24.55 2.456-10.99 16.566-20.51 24.508-28.12 3.104-2.98 7.414-7.14 10.747-9.89 11.866-9.78 38.505-48.3 21.886-61.87-13.937-11.39-28.738 42.39-32.081 49.87-11.444 27.65-31.342 53.46-60.507 65.55 8.274 11.27 2.845 14.66-7.115 19.79-.908 15.07-.965 28.64-.981 43.76 4.654 2.87 5.402 3.27 8.561 7.69 10.778 1.46 49.29 7.43 50.868 19.33-9.877 20.99-122.18 18.56-135.577 1.12-2.464-13.27 39.966-18.74 49.151-19.95l-.554-.19c3.768-4.28 6.083-5.75 10.612-9.11.151-14.04-.193-28.09-1.032-42.11-9.963-6.95-12.547-9.07-6.481-20.21-5.847-3.07-12.04-6.37-17.55-9.82-29.618-18.5-43.187-50.09-52.929-82.18-1.802-5.93-11.153-22.77-17.272-24.24-12.138-2.93-11.301 12.37-9.023 19.68 3.707 15.98 10.964 28.04 21.674 40.02 12.233 13.69 40.476 27.14 39.743 47.12l-.055 1.23c.399 2.35 5.138 21.69-1.577 13.34-8.45-8.3-2.119-27.54-24.586-42.16-14.924-9.71-39.699-36.4-43.805-54.44-4.351-19.11-6.258-34.7 16.398-40.64-3.097-4.52-5.333-5.93-2.312-10.71 11.664-2.14 16.088 20.17 17.806 27.65 64.829 2.57 113.458 2.39 178.067-.13"/><path fill="#5a5f67" d="M429.067 1278.78c.399 2.35 5.138 21.69-1.577 13.34 2.892-7.02-1.966-5.2 1.577-13.34"/><path fill="#47535a" d="m1131.5 1141.87 4.08.07 1.32 1.51c-.34 3.13-3.33 6.47-5.33 9.19 10.77 2.83 20.15 8.06 20.02 20.62-.43 42.02-37.02 61.84-61.67 89.35-8.04 8.97-.16 18.32-13.11 31.41 1.2-9.82.33-18.66 3.94-28.11 4.98-11.61 16.53-20 26.6-27.65 12.92-9.83 42.24-48.44 32.12-65.61a8.48 8.48 0 0 0-5.85-4.06c-14.43-2.61-25.72 44.58-30.93 55.56a149.4 149.4 0 0 1-21.36 33.22c-11.61 13.55-21.8 19.73-36.78 28.72 6.88 11.76.58 14.26-8.46 20.65-.28 13.94-.32 27.88-.1 41.81 4.97 3.86 5.91 4.5 9.52 9.69 11.28 1.62 46.84 7.02 50.49 18.8-6.24 22.24-140.668 19.61-134.875-3.17 5.864-6.85 20.268-10.04 29.061-12.43 6.585-1.56 14.894-2.86 21.644-4.08 2.62-4.72 3.35-5.1 7.46-8.83-.15-12.37.14-30.4-1.37-42.2-3.35-3.26-7.48-6.84-11-10.04l4.11-10.71c-14.001-8.37-24.82-14.7-36.088-26.87-16.093-17.4-25.562-37.65-32.855-59.97-3.199-9.79-8.152-21.4-16.276-27.95-2.623-2.12-4.928-1.48-7.814-.84-2.028 1.52-3.495 2.77-3.696 5.5-2.333 30.81 21.512 53.77 42.898 72.26 13.653 11.8 24.576 24.83 18.871 44.3l.231-.9-2.222-.3c-3.212-7.76-3.385-9.37-3.073-17.53-15.382-27.53-53.825-43.48-64.33-76.22-6.665-20.77-8.758-36.11 15.189-43.78-1.58-2.74-2.197-3.82-3.455-6.82.619-3.19-.126-1.92 2.121-4.03 10.643.26 14.764 18.24 17.244 26.4 19.082 3.21 53.66 3.17 73.675 3.33 32.98.27 72.13.9 104.97-2.39 2.74-12.56 2.62-21.77 15.08-27.9m272.27 1.23c2.98-.07 3.56-.35 6.25.95.23 3.49-1.8 5.5-3.86 9.02 7.46 2.35 8.7 2.5 15.35 6.57 5.98 9.44 6.22 18.8 3.16 29.42-11.16 38.84-63.25 65.26-65.23 84.54-.54 5.3-.83 13.53-4.41 17.67-1.03 1.19-1.62.86-3.05.95-1.61-2.43-.01-7.98-.19-11.22-.88-16.18 7.66-24.37 19.25-34.12 20.41-17.18 41.72-35.31 44.57-63.69.34-3.38-.28-8.99-3.2-11.55-12.65-8.87-21.57 14.73-23.99 21.94-10 29.79-22.66 58.7-47.83 78.65-5.61 4.45-17.84 8.59-21.7 14.55 2.52 11.5 1.63 13.35-8.28 20.07-1.23 12.3-.87 29.63-.52 42 3.8 3.08 7.17 6.25 10.76 9.56 10.58 1.77 45.23 7.28 48.21 18.56-6.77 22.32-140.62 19.77-134.3-3.21 6.42-7.56 20.38-10.25 29.79-12.62 7.37-1.42 16.84-1.36 21.24-6.56 1.87-2.22 3.62-3.2 6.09-4.79l.97-.62c.19-14.13-.16-28.27-1.05-42.37-5.2-3.87-7.23-5.7-11.81-10.24l4.73-10.36c-30.59-18.58-49.49-36.2-62.78-70.8-3.63-9.45-14.08-54.42-30.66-44.95-2.72 3.86-3.42 6.69-3.28 11.55.92 31.1 26.61 50.21 47.47 69.4 16.32 15.01 14.81 20.49 15.42 41.02l-1.07.19c-8.07-9.47-4.54-21.29-10.02-27.36-21.33-23.63-52.21-41.5-60.35-74.71-2.12-8.61-2.01-20.95 2.91-29.02 2.95-4.85 8.63-5.51 13.77-6.55-2.26-3.59-3.46-4.86-4.14-8.92 1.17-3.03.18-1.93 3.06-3.42 11.66 2.72 14.22 17.94 16.6 27.61 64.62 3.19 114.82 2.76 179.53.07 1.69-10.21 2.36-22.42 12.59-27.21m-757.046-.05c17.38.31 16.217 12.27 19.866 26.73 47.098 3.57 131.65 4.15 178.502-.54 2.13-9.39 5.568-26.52 18.171-26.29l1.61 1.78c.154 3.34-2.2 5.63-4.288 8.53 13.972 2.87 20.298 10.23 19.867 25.07-1.021 35.1-34.302 55.99-56.745 78.13-10.563 10.42-10.441 14.13-10.315 28.47-2.231 2.86-5.015 5.75-7.487 8.44.986-5.86.51-22.3 2.09-25.46 15.628-28.25 43.59-34.79 57.509-66.36 14.215-32.25-8.28-41.99-16.649-21.22-20.233 50.2-26.917 79.15-77.634 105.53 7.706 11.96 3.416 13.91-6.049 21.25-.481 15.71-1.224 26.75-.143 42.44 11.557 6.76 1.836 8.39 20.758 10.73.805.12 1.607.25 2.405.41 10.625 1.98 29.06 5.84 35.374 15.08.457 22.8-136.519 21.9-135.888-1.15 8.028-11.83 44.012-13.68 53.192-18.61 2.7-4.04 3.265-4.31 7.144-7.42.11-13.66.166-28.31-1.15-41.86-8.807-7.56-13.017-9.75-5.996-21.29-44.863-22.03-54.371-45.98-70.629-91.23-2.868-7.98-10.983-23.08-19.518-26.62-8.161.7-8.558 11.06-7.942 17.41 3.675 37.84 40.703 53.29 60.086 80.66 3.016 4.26 1.519 18.74 2.816 26l-1.124.04c-8.739-7.88-3.886-19.57-11.052-29.17-4.245-5.11-9.41-9.75-14.647-13.93-24.119-19.27-52.863-48.41-44.637-82.35 1.424-5.87 6.373-7.99 11.239-10.37 2.311-1.14 3.375-1.86 4.085-4.31a353 353 0 0 1-3.956-6.59z"/><path fill="#cb1022" d="M1034.52 743.354c2.03-22.027 3.37-33.795-.07-55.872 10.78 11.787 13.1 15.954 20.91 30.188 5.64-6.239 12.11-13.786 17.96-19.662l.4 28.319a172.3 172.3 0 0 1 35.3-4.468c-17.84 9.937-27.05 19.541-38.95 36.538 42.77 34.566 52.12 68.336 14.17 113.54-1.1 1.329-2.24 2.632-3.4 3.909-.57.243-1.14.485-1.7.727-25 6.281-57.67-1.693-80.973-11.686-12.307-5.279-41.575-18.588-48.751-31.604.394.714-1.093-4.194-1.014-3.927-3.318-43.572 12.394-83.382 61.558-85.96 8.32-.435 16.24-.265 24.56-.042"/><metadata><recraft-signature>{&quot;signed_by&quot;: &quot;recraft&quot;, &quot;signature_b64&quot;: &quot;ee6xPPUI37+1J9BF93M6gaLu+tFIEHgMd6alvfGm/rJxZ1u/4Fj++4LwjezGbWFiV6/rwiUGhOaHlthg7rD/Dw==&quot;, &quot;signing_algo&quot;: &quot;Ed25519&quot;, &quot;generation_timestamp&quot;: 1777253191, &quot;identifier&quot;: &quot;60df4a5a-6a9d-4053-8588-06a87663ca11&quot;}</recraft-signature></metadata></svg>