<svg xmlns="http://www.w3.org/2000/svg" width="1024" height="1024" preserveAspectRatio="none" style="display:block" viewBox="0 0 2048 2048"><path fill="#fff" d="M340.789 0H1708.77l-.59 1561.31c-23.35-2.69-46.67-5.65-69.95-8.91-14.57-1.98-30.2-4.82-44.83-4.99 7.39 4.33 16.39 9.67 17.65 18.72 3.18 22.74-19.12 27.12-34.08 15.44-1.94-1.53-3.85-3.1-5.73-4.7-3.42 14.33-4.59 57.11-5.4 73.62l-5.84 149.52c-.84 21.96-.93 49.64-3.06 71.1l-104.52-.26c5.29-18.1 9.73-41.82 13.87-60.71l23.09-104.71 14.82-66.94c3.52-15.84 8.29-34.54 9.21-50.43-8.89 4.81-16.46 9.44-26.99 6.42-9.9-2.84-15-13.65-11.16-23.15 3.94-9.74 12.18-12.71 21.14-16.35-17.28-3.58-172.93-15.24-181.7-11.7 9.96 8.95 25.65 14.9 10.18 33.54-9.9 11.92-22.67 2.9-33.54-3.31-4.53 6.15-1.81 33.73-1.69 42.47.25 17.64.54 35.44.75 53.1.57 67.31 1.89 134.61 3.97 201.89l-91.76-.09 62.34-558.47 25.6-228.51 6.72-61.6c2.98-26.463 9.28-62.921 3.3-88.079-16.15 13.014-31.2 24.28-53.49 21.989a48.44 48.44 0 0 1-33.06-17.776c-23.88-29.894-7.59-62.827 23.61-78 .34-1.749.19-1.888-.17-3.746l-.24-.825c1.64-2.001 2.29-1.668 4.94-1.859l2.01-.27c-11.56-1.815-53.91-1.338-67.33-1.377l-142.83.177-159.194-.066c-17.028.056-62.897-.914-77.135 2.641l.858.297c21.454 7.573 40.815 19.737 45.504 44.108 5.244 27.254-13.767 52.941-41.173 56.795-23.847 3.354-37.514-9.48-55.179-22.516-6.399 31.629 3.511 82.287 7.084 116.717l19.425 180.48a63982 63982 0 0 0 72.196 639.91c-22.087.32-44.177.34-66.264.07l-.353-192.59c-.007-29 1.302-80.07-1.585-107.17-7.802 6.85-15.484 13.83-26.879 10.91a17.5 17.5 0 0 1-10.871-8.15c-8.726-15.09 5.116-26.18 16.782-32.66-17.456-1.27-173.4 8.73-185.331 13.87l.391 1.06c14.326 3.47 25.093 15.96 17.075 31.36-4.499 8.64-22.134 12.26-29.219 5.18-1.478-1.48-3.808-2.61-5.993-3.2l-.907 1.29c-1.907 16.45 55.349 245.77 64.395 280.05q-63.533.33-127.065-.03a16508 16508 0 0 0-8.902-202.05c-1.283-24.62-2.05-71.65-6.645-93.72a183 183 0 0 1-5.098 4.77c-13.404 11.88-36.216 9.13-33.408-12.76 1.207-9.4 9.124-15.03 16.31-20.21-15.214-.49-35.584 3.02-51.148 5.21l-61.444 8.39c1.254-22.3.651-47.77.594-70.3l-.225-107.81-.091-331.91z"/><path fill="#0c0303" d="M1244.17 853.734c11.93 2.076-2.65 4.97-6.54 6.7.34-1.749.19-1.888-.17-3.746l-.24-.825c1.64-2.001 2.29-1.668 4.94-1.859z"/><path fill="#fff" d="M1738.81 0H2048v1870.99l-336.9-.14c5.43-16.24 10.44-35.36 15.29-52.05l27.93-96.63c9.35-32.68 26.52-85.82 31.07-117.68-9.07 5.7-19.16 11-29.5 4.08-8.24-5.51-10.33-17.67-4.87-25.88 5.54-8.33 12.39-9.55 21.48-11.23-11.22-3.19-22.4-4.47-33.94-6.17z"/><path fill="#707d8d" d="M809.504 855.57c15.3-.994 37.066-.304 52.928-.29l97.053.076q134.874-.91 269.755.262l4 3.321c-14.71 8.183-26.76 19.841-31.36 36.554a63 63 0 0 0-1.19 5.444c.21 4.714.23 6.939-.16 11.638 2.78 15.379 8.19 28.54 21.89 37.686a54.95 54.95 0 0 0 42.54 7.617c13.33-3.087 23.89-10.212 34.15-18.978 2.83 31.924-1.59 53.879-4.71 85.35-3.6 36.4-8.75 73.7-11.82 110.05.01 1 .04.81-.3 1.75-7.68 67.13-15.95 135.1-22.72 202.27-.39.73-.29.87-.33 1.75l-.64 8.19c-.38.77-.28.89-.3 1.79-.57 5.21-1.32 11.08-1.7 16.26.05 1.02.08.81-.3 1.76-.58 5.12-1.43 11.12-1.71 16.19-.38.77-.28.9-.3 1.8-1.75 15.47-4.71 36-5.69 51.26-.39.74-.28.87-.3 1.76-.56 5.1-1.4 11.19-1.68 16.24-.41.73-.31.92-.34 1.8l-.66 7.21c-.42.72-.32.89-.36 1.77l-.61 7.3c-.45.69-.32.9-.34 1.79l-.67 7.18c-.45.7-.33.9-.37 1.78l-.63 8.21c-.42.71-.32.9-.35 1.76l-.65 6.28c-.45.68-.34.86-.37 1.74l-.63 7.26c-.43.68-.32.86-.36 1.71l-.65 6.26c-.42.69-.32.87-.37 1.72l-.63 7.28c-.42.7-.31.9-.34 1.77l-.68 7.17c-.41.74-.31.88-.35 1.77l-.64 8.24c-.4.73-.3.93-.33 1.81l-.67 7.21c-.42.72-.32.91-.35 1.78l-.64 8.21c-.42.73-.31.94-.33 1.82l-.67 7.2c-.43.71-.32.9-.36 1.78l-.65 8.19c-.4.74-.29.88-.31 1.77-1.13 9.85-3.09 23.63-3.7 33.28.04.99.08.79-.31 1.7-.54 4.56-1.31 9.81-1.67 14.32-.6 1.04-.45 1.06-.37 2.45l-.63 6.52c-.43.7-.33.88-.37 1.76l-.61 8.24c-.6 1.06-.45 1.07-.36 2.47l-2.72 25.48c-.39.74-.28.87-.31 1.76-2.47 22.95-7.4 56.95-8.65 79.24-.39.74-.3.86-.35 1.74l-.65 6.28c-.42.72-.32.85-.37 1.72l-.62 7.27c.04 1.02.08.81-.31 1.76-2.32 20.38-6.57 50.06-7.65 69.81-.03.9.05 1.09-.3 1.82-2.01 17.53-4.28 35.03-6.8 52.5-29.69-1.53-55.68-.49-85.28-.28l-120.314.27-82.741-.24c-15.17-.12-39.462-.95-53.804.86-5.762-58.92-15.186-121.57-21.803-181.15l-26.052-233.47c-4.598-41.45-8.701-83.86-13.849-125.16-.364-.94-.327-.74-.3-1.75-.88-14.84-3.941-35.96-5.709-51.2-.374-.91-.351-.82-.304-1.79-.237-5.18-1.085-10.99-1.703-16.19-.386-.95-.355-.74-.309-1.75-.26-5.23-1.086-10.99-1.705-16.23-.392-.94-.375-.84-.309-1.83-.382-12.96-3.928-39.8-5.675-53.22-.381-.94-.345-.73-.301-1.73-4.852-54.34-12.27-110.75-17.692-165.51.1-1.42.256-1.42-.355-2.5-.41-15.18-5.611-50.67-7.648-66.288-.386-.953-.348-.741-.306-1.769-1.51-17.263-3.009-29.22.095-46.194 16.568 14.576 36.095 25.666 58.938 19.903a51.3 51.3 0 0 0 32.445-24.353 49.6 49.6 0 0 0 4.936-39.187c-5.844-20.26-19.381-29.235-36.301-38.882"/><path fill="#434a53" d="M1200.69 900.937c.21 4.714.23 6.939-.16 11.638-.86-4.974-.72-6.654.16-11.638"/><path fill="#121314" d="M879.682 882.655c97.504.936 195.018 1.017 292.518.242-14.96 44.229 6.35 87.001 50.68 103.463 14.35 5.328 34.58 3.732 49.45 1.045l-35.69 340.885c.05.99.07.89-.31 1.83-2.54 26.76-6.16 53.45-8.68 80.1.04 1.01.07.91-.33 1.85l-.67 7.16c.05 1.01.07.91-.33 1.87l-.68 8.12c.09 1.03.1.94-.3 1.89l-1.69 17.11c.06 1.02.08.92-.32 1.88l-.68 7.16c.04 1.05.08.84-.32 1.83l-2.7 25.13c.02 1.05.06.85-.32 1.82l-.65 6.29c.01 1.02.05.81-.34 1.76-1.81 17.42-4.17 35.78-5.68 53.13.06 1.02.07.92-.31 1.89-5.73 65.62-13.83 132.88-21.28 198.4-5.15 45.36-9.37 93.33-15.22 138.24-33.03-1.2-65.84-.27-98.87-.03l-124.235.68c-24.415.28-56.779 1.73-80.479.81-1.283-9.83-2.944-20.72-3.617-30.52-.426-.73-.308-.8-.315-1.83-1.863-22.01-5.465-45.4-7.651-67.74-.375-.97-.348-.77-.321-1.8l-13.669-126.24c-.358-1-.329-.8-.306-1.85l-13.693-125.4c-.535-1.16-.438-1.17-.352-2.51l-1.653-16.2c-.385-.95-.354-.75-.35-1.77l-.663-6.25c-.406-.92-.384-.82-.337-1.8l-.635-7.22c-.364-.97-.332-.78-.327-1.81l-1.68-15.23c-.319-.94-.289-.78-.297-1.78-.731-5.78-1.194-11.56-1.701-17.36-.589-1.23-.507-1.08-.371-2.53-.585-5.84-1.123-11.69-1.616-17.54-.565-1.15-.465-1.15-.372-2.5-.61-5.74-1.157-11.48-1.642-17.23-.382-1-.352-.79-.332-1.85l-.688-7.14c-.419-.94-.399-.83-.341-1.83l-.64-8.15c-.385-.93-.37-.84-.332-1.83-.657-5.7-1.219-11.41-1.687-17.14-.389-.97-.382-.87-.32-1.89a919 919 0 0 1-1.649-17.45c-.56-1.16-.457-1.16-.365-2.52a1206 1206 0 0 1-3.652-37.14c-.389-.97-.38-.87-.325-1.89-.798-6.24-1.202-12.14-1.65-18.41-.578-1.27-.481-1.13-.344-2.64-.725-6.34-1.17-12.72-1.674-19.09-.381-.98-.368-.88-.319-1.91q-.929-9.015-1.703-18.06c-.399-.96-.39-.86-.339-1.88l-.673-7.14c-.397-.96-.393-.88-.318-1.92l-.637-8.13c-.374-.98-.342-.77-.328-1.81-8.807-84.3-16.789-168.68-23.943-253.128 20.068 5.927 42.974 2.71 61.227-7.267a84.26 84.26 0 0 0 40.028-50.434c4.924-17.334 3.276-29.534.008-46.796"/><path fill="#434a53" d="M824.308 1457.37c.761 1.02.589 1.04.371 2.53-.589-1.23-.507-1.08-.371-2.53m-15.955-157.15c.603 1.17.453 1.15.344 2.64-.578-1.27-.481-1.13-.344-2.64m13.967 137.11c.671 1.07.506 1.05.372 2.5-.565-1.15-.465-1.15-.372-2.5m10.002 91.99c.658 1.08.493 1.06.352 2.51-.535-1.16-.438-1.17-.352-2.51m-17.998-169.02c.636 1.1.48 1.08.365 2.52-.56-1.16-.457-1.16-.365-2.52m-10.997-110.08c.411.79.303.99.318 1.92-.397-.96-.393-.88-.318-1.92"/><path fill="#fff" d="M896.385 1587.3c7.269 1.3 39.284.65 48.474.65l108.531-.15c13.16 12.45 9.52 38.72 31.54 44.4 13.79 3.56 21.17 2.16 25.23-12.1l92.25-.11c-1.73 22.24-5.12 47.85-7.58 70.26q-11.25 96.12-21.12 192.39l-13.96-.04c-38.25-.79-80.35.69-119.03 1.01-55.415-.05-110.835.28-166.251.97-3.958-25.55-6.69-56.14-9.699-82.1l-18.405-169.42c39.799 4.69 32.604-26.88 49.146-44.83z"/><path fill="#707d8d" d="M939.98 1194.85c14.814-1.65 40.961-.3 56.52-.75 10.28-.29 37.34-.88 46.04.71 11.38-.05 21.04.04 32.44.64.82.2 1.88.32 2.51.79l.07.19c-.05.11-2.9 2.23-3.16 2.46-31.34 14.12-5.75 70.79 34.21 39.12.93 28.63-7.02 77.65-11.02 107.34.15.99.16.88-.33 1.77l-.59 7.27c.12.97.13.87-.34 1.74-.56 4.55-1.32 9.72-1.71 14.24.12.97.14.87-.31 1.74l-.66 5.29c.14.99.14.88-.36 1.76l-.6 6.24c.14.99.13.89-.35 1.79l-.66 6.21c.12.99.12.88-.4 1.76l-.61 7.22c.06.95.09.84-.36 1.7l-.66 5.3c.08.96.1.86-.35 1.71l-14.71 111.24c.1.97.13.85-.29 1.75l-.65 5.31c.13.99.14.88-.36 1.75l-.61 6.25c.12.98.13.88-.35 1.75-.52 4.68-1.27 10.25-1.63 14.87.05 1 .16.99-.28 1.69-1.06 8.1-2.12 14.33-3.81 22.32-47.38-.82-95.022.67-142.428-.11-14.049-.23-27.978-.47-42.015.45-4.428-22.34-7.361-46.58-10.487-69.25-.423-.88-.399-.76-.296-1.71-3.966-34.38-9.268-69.78-13.7-104.28-.439-.86-.425-.76-.302-1.73-.395-4.6-1.13-9.64-1.701-14.27-.43-.86-.417-.77-.295-1.73-1.591-20.5-6.848-52.19-9.708-73.26-.444-.87-.43-.77-.296-1.73-.681-8.75-2.547-20.36-3.705-29.28-.447-.85-.433-.75-.336-1.71l-.608-7.26c-.506-.88-.499-.78-.377-1.76l-.672-5.27c-.462-.85-.447-.75-.347-1.71-.68-9.1-1.152-17.07-1.299-26.19 22.838 17.46 42.703 13.71 51.262-14.72-3.152-15.36-7.321-18.89-19.694-27.82 22.841-.36 47.311.19 70.374.17"/><path fill="#434a53" d="M939.98 1194.85c14.814-1.65 40.961-.3 56.52-.75 10.28-.29 37.34-.88 46.04.71-16.97.8-37.69.01-55.04.13-13.936.1-34.188.8-47.52-.09"/><path fill="#8a8a8e" d="M1074.98 1195.45c.82.2 1.88.32 2.51.79l.07.19c-.05.11-2.9 2.23-3.16 2.46-.7-.33-4.58-1.89-4.79-2.22.43-.45 4.47-1.03 5.37-1.22"/><path fill="#121314" d="M900.402 1209.43c48.791.9 97.597.74 146.378-.48-5.66 18.63-2.46 35.17 14.22 46.77.76.27.62.21 1.22.8 12.11 6 19.17 6.98 32.75 3.65-4.48 34-8.59 68.05-12.32 102.14.05 1.04.07.83-.3 1.8q-1.215 12.12-2.7 24.21c.04 1.02.07.82-.28 1.78-3 24-7.84 54.81-9.72 78.19.05 1.04.08.83-.28 1.81l-1.73 14.21c.03 1.01.06.82-.28 1.77-1.66 13.65-4.8 33.95-5.66 47.29.16 1.34.27 1.34-.38 2.46l-.62 6.54c.1 1.33.2 1.33-.38 2.46l-2.28 24.18-108.341-.16c-15.711.02-41.281.95-55.993-.17-2.298-2.66-1.618-2.82-2.233-7.01-.285-.72-.207-.92-.215-1.78l-.552-5.86c-.329-.88-.295-.75-.349-1.69a3390 3390 0 0 1-11.701-89.3c-.304-.9-.278-.78-.319-1.74l-.654-6.25c-.392-.95-.353-.74-.347-1.77l-.637-6.26c-.339-.9-.304-.77-.369-1.73l-.628-6.45c-.572-1.13-.479-1.12-.409-2.44l-.588-5.56c-.526-1.13-.444-1.14-.425-2.44l-.563-5.57c-.578-1.12-.484-1.11-.425-2.43l-.586-5.57c-.518-1.14-.434-1.17-.416-2.48l-.598-6.26c-.411-.87-.384-.78-.374-1.72l-.629-5.53c-.509-1.13-.43-1.15-.416-2.44l-.575-5.37c-.37-.93-.329-.75-.361-1.75l-.638-6.25c-.341-.89-.306-.75-.373-1.71l-.631-5.3c-.329-.9-.297-.77-.359-1.73l-.637-6.25c-.348-.87-.311-.73-.383-1.67l-.623-5.32c-.361-.9-.323-.72-.351-1.7l-1.707-13.28c-.338-.93-.307-.76-.317-1.75l-.634-6.28c-.311-.88-.283-.77-.342-1.7l-1.683-14.29c-.301-.92-.275-.79-.302-1.75q-3.84-30.345-8.442-60.57c2.901 1.22 5.992 2.45 9.139 2.73a40.84 40.84 0 0 0 29.82-9.62c8.448-7.25 11.552-14.79 12.575-25.51-.634-4.14-.475-4.61.034-8.84-1.041-3.68-1.576-5.58-3.081-9.06"/><path fill="#434a53" d="M903.483 1218.49c.59 3.31.896 5.55-.034 8.84-.634-4.14-.475-4.61.034-8.84"/><path fill="#fff" d="M904.839 1212.27a7726 7726 0 0 0 137.861-.45c-4.74 35.59 13.44 53.83 48.7 53.08-1.19 19.81-5.87 47.26-8 67.89-8.05 77.84-19.76 155.42-27.64 233.32l-12.51.04-148.856.08-25.929-201.43c-4.365-33.09-8.021-67.03-12.927-99.93 36.096 1.95 53.654-16.98 49.301-52.6"/><path fill="#fff" d="M1198.87 1193.66c16.44-5.86 33.37-9.03 50.61-15.62-.41 6.51-.67 10.49-1.62 16.94.01 2.17.54 3.75-.37 5.68-5.28 37.42-8.16 78.98-12.22 116.8l-27.39 251.43-137.09-.38c1.67-8.04 3.1-22.83 4.25-31.35l9.87-76.6c6.35-45.83 12.33-91.71 17.95-137.64 3.18-25.27 10.1-66.61 7.76-90.14-6.86 5.87-11.99 10.72-21.45 11.92-6.12.81-12.31-.89-17.16-4.71-10.15-8.07-12.6-23.83-3.31-33.56 9.62-10.28 24.05-9.04 37.11-8.53 31.43 1.22 62.69-.74 94.1-.91-.13-.49-.16-1.07-.63-1.37-.19-.13-1.03-.58-1.28-.8-.13-.12-.21-.23-.16-.39.11-.35.93-.71 1.03-.77"/><path fill="#fff" d="M1198.87 1193.66c16.44-5.86 33.37-9.03 50.61-15.62-.41 6.51-.67 10.49-1.62 16.94-12.8-.01-37.48.3-48.99-1.32"/><path fill="#584437" d="M1199.91 1196.99c-.13-.49-.16-1.07-.63-1.37-.19-.13-1.03-.58-1.28-.8-.13-.12-.21-.23-.16-.39.11-.35.93-.71 1.03-.77 11.51 1.62 36.19 1.31 48.99 1.32.01 2.17.54 3.75-.37 5.68-.25-.59-.72-1.86-.8-1.87-8.92-1.08-39.43-.7-46.78-1.8"/><path fill="#fff" d="M882.885 885.329c33.161-.633 69.396.223 102.751.327l182.354.157c-7.44 28.809-3.78 41.566 8.92 67.71-46.02 1.371-110.5 11.042-157.85 18.796-44.141 10.559-107.196 16.726-140.737 49.961-9.565 9.47.262 22.06 10.022 27.74 13.078 6.28 82.969 30.9 86.482 39.32.053 3.44-.041 3.2-1.811 6.2-18.028 13.8-150.162 28.17-179.151 31a2120 2120 0 0 1-4.261-51c29.713-8.49 60.875-22.32 13.77-41.41-6.177-2.5-12.722-5.5-18.909-8.14l-2.826-34.041c9.878 1.476 20.782 1.641 30.646.029a87.52 87.52 0 0 0 57.762-36.038c15.916-22.604 17.494-44.357 12.838-70.611"/><path fill="#707d8d" d="M970.7 1080.87c-18.894-7.7-73.474-27.26-86.882-37.37-3.643-2.74-5.713-6.16-6.032-10.76-.295-4.26 1.562-8.15 4.255-11.34 34.533-40.869 239.619-62.082 295.979-65.308 2.71 2.902 4.96 5.931 7.39 9.066 14.85 14.721 25.29 21.224 45.78 26.515 4.8.522 36.95.675 36.99.694-.03 2.713.33 4.589-1.34 6.59-6.4 2.583-19.61.963-27.22 1.373-44.97 2.39-188.26 8.66-211.67 53.32.33 19.44 21.45 22.05 34.78 29.87 9.68 3.63 28.5 10.83 33.03 20.05 7.96 16.2-37.06 23.52-47.3 26.12l-6.44 1.49c-7.97 1.88-17.26 4.13-25.34 5.15-2.32 1.18-7.91 1.83-10.69 2.36l-31.721 5.53c-11.736 2.58-44.473 8.64-50.81 17.7-1.252 10.42 23.35 15.57 31.206 19.84 1.793 3.1 3.596 5.9 5.204 9.1l.523 1.02c-10.293.08-64.273 1.26-71.217-.7-1.26-10.79-6.426-10.86-15.804-14.77-20.291-4.16-36.094-12.75-55.245-20.01-6.805-2.58-14.277-4.82-20.749-8.06-1.788-.89-1.747-3.22-2.123-5.11-.121-4.65-.626-9.35-1.042-13.99 19.638-1.85 40.232-3.67 59.705-6.38 26.076-3.63 52.234-8.5 78.319-12.14 1.359-.68 2.111-.8 3.745-1.03 12.91-1.81 24.759-6.28 37.148-9.61 7.7-7.97 6.935-13.2-2.429-19.21"/><path fill="#bf8759" d="M970.7 1080.87c-18.894-7.7-73.474-27.26-86.882-37.37-3.643-2.74-5.713-6.16-6.032-10.76-.295-4.26 1.562-8.15 4.255-11.34 34.533-40.869 239.619-62.082 295.979-65.308 2.71 2.902 4.96 5.931 7.39 9.066-20.46.486-41.31 3.649-61.68 5.76-45.51 4.718-196.92 18.908-227.219 50.962-2.366 2.5-4.256 5.73-3.809 9.32.755 6.05 7.165 10.66 11.924 13.6 11.768 7.27 62.357 27.44 66.074 36.07"/><path fill="#bf8759" d="M1231.19 991.673c4.8.522 36.95.675 36.99.694-.03 2.713.33 4.589-1.34 6.59-6.4 2.583-19.61.963-27.22 1.373-44.97 2.39-188.26 8.66-211.67 53.32-.18-.51-.37-1.03-.55-1.54-1.14-4-.48-8.31 1.8-11.79 20.45-31.88 162.48-46.639 200.05-48.166.65-.16 1.3-.32 1.94-.481M932.236 1110.72c2.963 3.93 15.918-3.46 20.212-2.09l-.021.3.079-.29c-1.981 1.28-4.28.73-7.877 3.65-11.753 4.07-29.47 6.89-42.135 9.19l-59.422 10.44c-13.44 2.3-33.459 4.56-44.987 11.06l-2.831.25c-.121-4.65-.626-9.35-1.042-13.99 19.638-1.85 40.232-3.67 59.705-6.38 26.076-3.63 52.234-8.5 78.319-12.14m130.494-27.2c9.68 3.63 28.5 10.83 33.03 20.05 7.96 16.2-37.06 23.52-47.3 26.12l-6.44 1.49c-7.97 1.88-17.26 4.13-25.34 5.15-.69-.52-.56-.55-1.2-.66-.7.26-9.74 1.02-10.43.83l.16.1c4.22-1.39 9.03-2.33 12.66-4.9 13.13-4.64 28.32-7.21 43.43-12.16 15.32-5.01 31.92-8.94 12.34-27.15-4.28-3.99-7.46-3.27-10.91-8.87"/><path fill="#bf8759" d="m795.254 1143.23 2.831-.25c13.279 8.21 28.613 11.35 42.387 18.1 9.403 4.6 25.343 9.11 32.899 15.33-20.291-4.16-36.094-12.75-55.245-20.01-6.805-2.58-14.277-4.82-20.749-8.06-1.788-.89-1.747-3.22-2.123-5.11"/><path fill="#a98069" d="M974.269 1144.22c3.973-3.12 3.639-3.24 8.707-4.32 11.525-2.46 23.344-5.99 34.894-8.2-3.63 2.57-8.44 3.51-12.66 4.9l-.16-.1c.69.19 9.73-.57 10.43-.83.64.11.51.14 1.2.66-2.32 1.18-7.91 1.83-10.69 2.36zm-1.14-44.14c-4.807 6.9-20.183 10.17-28.5 12.21 3.597-2.92 5.896-2.37 7.877-3.65l-.079.29.021-.3c-4.294-1.37-17.249 6.02-20.212 2.09 1.359-.68 2.111-.8 3.745-1.03 12.91-1.81 24.759-6.28 37.148-9.61"/><path fill="#fff" d="m1239.83 1003.5 27.98-.46c-5.06 42.4-9.44 84.89-13.15 127.43-10.5 1.03-27.48 5.03-38 7.42-30.87 7.24-61.49 15.49-91.81 24.75-25.63 7.79-48.26 12.8-70.21 28.92-16.72.71-46.85 1.54-63.155-.47-10.624-1.32-61.477-19.13-65.129-27.59 1.385-3.53.383-1.89 3.853-4.59 27.131-10.38 53.516-13.52 80.761-18.6 16.49-3.07 74.47-14.49 83.89-23.89 30.22-30.16-94.41-42.35-58.84-70.5 45.11-35.7 150.96-40.23 203.81-42.42"/><path fill="#0c0303" d="M1171.07 1044.55c16.05-2.26 30.91 8.89 33.23 24.94 2.32 16.04-8.78 30.94-24.82 33.31-16.12 2.39-31.1-8.78-33.43-24.9-2.33-16.13 8.89-31.08 25.02-33.35"/><path fill="#d82c2c" d="M1169.64 1047.56c14.52-3.11 28.79 6.19 31.8 20.73s-6.39 28.74-20.95 31.65c-14.41 2.88-28.45-6.41-31.43-20.8s6.21-28.49 20.58-31.58"/><path fill="#fff" d="m825.745 1205.49 53.246-.41c11.169 15.71 8.652 36.05-13.057 39.35-11.873 1.8-20.646-5.29-29.629-11.91-1.765 18.66 1.695 38.85 4.084 57.58l8.484 63.78q11.468 91.02 24.068 181.89c.793 9.22 3.317 23.57 4.6 33.19l-38.244.07a18735 18735 0 0 1-37.852-363.17z"/><path fill="#707d8d" d="M1067.1 1192.41c-3.47-.16-3.72.26-6.56-1.33 9.98-10.11 47.01-20.25 61.84-24.82a1174 1174 0 0 1 108.38-28.29c4.76-1.01 17.92-4.11 21.9-3.87 1.77 2.35 1.02 1.13.81 5.2-2.05 10.78-2.67 25.04-3.73 36.34-16.92 5.91-51.92 16.74-69.55 18.61-23.51 2.49-56.27.67-80.51.6-10.18-.03-21.84-2.46-32.58-2.44"/><path fill="#bf8759" d="M1067.1 1192.41c-3.47-.16-3.72.26-6.56-1.33 9.98-10.11 47.01-20.25 61.84-24.82a1174 1174 0 0 1 108.38-28.29c4.76-1.01 17.92-4.11 21.9-3.87 1.77 2.35 1.02 1.13.81 5.2-38.24 6.57-93.36 20.02-129.4 31.95a402 402 0 0 0-32.06 11.84c-7.57 3.24-17.18 9.18-24.91 9.32m3.53 378.31c13.34-.71 33.82.05 47.61.13l89.4.35c-.85 7.08-1.4 15.08-2.07 22.25-24.17.68-48.91.03-73.13.43-12.08.2-25.33-.35-37.22.91-8.77-6.93-15.38-9.23-23.8-15.8-2.26-1.75-1.13-5.19-.79-8.27"/><path fill="#707d8d" d="M796.571 1155.68c-.083-.64-1.129-5.13.808-4.32 12.971 5.46 26.6 10.07 39.365 16.01 9.934 4.51 13.75 6.52 24.225 9.31l1.311.29c6.897 1.35 17.059 3.7 21.468 9.65 6.023 8.12-12.558 5.44-17.391 5.6-2.643 1.04-2.724 1.17-5.059 2.9 6.672 1.61 8.378 3.04 14.444 6.59-12.881.46-29.452.49-42.325.15-2.649.26-30.342.92-31.73.59-.501-.65-.574-1.64-.738-2.42-1.476-5.34-3.515-36.56-4.378-44.35"/><path fill="#a98069" d="m860.969 1176.68 1.311.29c6.897 1.35 17.059 3.7 21.468 9.65 6.023 8.12-12.558 5.44-17.391 5.6.566-11.7-1.441-4.93-12.089-13.42.793-2.84 2.987-.16 6.701-2.12m-64.398-21c-.083-.64-1.129-5.13.808-4.32 12.971 5.46 26.6 10.07 39.365 16.01l-1.975 3.33c-12.093-4.41-29.136-7-38.198-15.02"/><path fill="#bf8759" d="M861.298 1195.12c6.672 1.61 8.378 3.04 14.444 6.59-12.881.46-29.452.49-42.325.15 2.059-.51 16.239-1.96 16.815-3.39-.251-.33-.036-.11-.906-.71 3.185-1.46 6.321-.15 10.374-1.97z"/><path fill="#bf8759" d="M800.949 1200.03c15.902-.43 32.23-1.84 48.377-2.27.87.6.655.38.906.71-.576 1.43-14.756 2.88-16.815 3.39-2.649.26-30.342.92-31.73.59-.501-.65-.574-1.64-.738-2.42"/><path fill="#8a8a8e" d="M836.744 1167.37c9.934 4.51 13.75 6.52 24.225 9.31-3.714 1.96-5.908-.72-6.701 2.12-1.794-.46-17.776-7.2-19.499-8.1z"/><path fill="#707d8d" d="M1097.82 1596.24c35.56-.61 71.79-.06 107.48-.4-1.13 7.69-1.91 13.95-2.5 21.68-5.27.78-12.79.48-18.18.31-24.47.39-49.9-.04-74.44-.17-2.74-9.63-5.84-14.24-12.36-21.42"/><path fill="#5b646f" d="M1184.62 1617.83c6.66-1.16 11.45-1.16 18.18-.31-5.27.78-12.79.48-18.18.31"/><path fill="#707d8d" d="M1050.52 1581.04c6.25-.08 15.05-1.33 20.48 1.53 15.11 7.92 44.12 24.78 33.51 45.74-13.16 8.57-33.22-3.69-37.07-16.6-4.77-15.98-4.15-18.98-16.92-30.67m-153.774-.58c.935-.03 1.255-.16 1.7.19-.09.48-.228.63-.611.97-23.322 21.18-8.021 49.41-50.404 49.39-2.999-3.6-3.249-14.06-3.524-18.82 12.448-21.12 28.916-30.75 52.839-31.73m-111.99-550.98c10.773 4.78 23.372 10.62 34.197 14.82 2.238 1.38 3.811 2.38 5.948 3.93.699 1.47.64 1.4.889 2.99-7.118 13.2-18.958 16.05-32.299 20.58-4.614 1.56-4.126.75-5.547-3.6.537-6.56-2.542-30.68-3.188-38.72"/><path fill="#bf8759" d="M818.953 1044.3c2.238 1.38 3.811 2.38 5.948 3.93.699 1.47.64 1.4.889 2.99-7.118 13.2-18.958 16.05-32.299 20.58-4.614 1.56-4.126.75-5.547-3.6 12.156-4.13 27.719-10.37 31.009-23.9"/><path fill="#a98069" d="M898.304 1586.18c1.313-.75 8.171-4.7 9.259-4.73 44.138-1.53 88.84-1.46 133.027-.58 4.09.08 7.03 1.26 10.42 3.37-.98 3.46-23.21 1.88-27.08 1.59-37.641-.14-88.74-2.12-125.626.35"/><path fill="#584437" d="M1051.01 1584.24c-.98 3.46-23.21 1.88-27.08 1.59 8.59-.88 18.68-.11 27.08-1.59"/><path fill="#bf8759" d="M839.951 1571.42c4.967-.72 33.545-.79 38.368-.05 1.149 9.61 1.522 6.94-6.724 10.93-5.268 2.56-10.366 6.44-15.23 10.08-2.925 2.19-10.446 3.08-13.709 1.21-1.51-1.32-2.52-19.74-2.705-22.17"/><path fill="#584437" d="M839.951 1571.42c4.967-.72 33.545-.79 38.368-.05-7.737.96-30.927.98-38.368.05"/><path fill="#a98069" d="m954.665 1181.76 3.826 1.24c8.831 2.94 17.111 6.08 26.134 8.67l-24.233.21-.523-1.02c-1.608-3.2-3.411-6-5.204-9.1"/><path fill="#8a8a8e" d="M842.545 1596.76c8.627.25 10.574-.94 4.178 5.94-.567.7-1.813 2.93-3.047 2.67-.895-.89-.947-6.96-1.131-8.61"/><path fill="#fff" d="m356.259 1924.91 138.787.08c11.946 9.61 25.602 16.5 35.091.03l74.051-.18c-7.628 10.97-17.761 35.13 9.088 29.03 11.66-2.64 17.064-17.75 19.796-28.8l149.341-.06c5.97 5.29 10.087 8.9 17.259 12.7-54.624 54.84-1.142 89.4 42.784 45.17 15.074-15.18 13.556-38.08 28.459-57.78l303.015-.02c7.1 13.51 9.01 24.8 14.15 38.87 6.02 16.48 23.19 31.78 39.89 36.93 14.45 4.45 36.57 1.24 39.77-16.48 4.33-23.99-20.37-45.61-37.43-58.6 6.85.01 23.9-.63 29.91.75l-.15 1.17c-.46 3.71-1.02 7.09 1.63 10.02 11.52 12.74 29.69-3.41 36.22-12.82 46.77.85 93.87-.62 140.64.06 2.16 12.23 3.66 22.12 14.68 30.08 12.53 9.05 28.6 1.75 22.98-14.66-2.06-6-6.06-10.56-10.06-15.42 16.58-.08 33.7-.65 50.17.73 1.73.14 7.36 10.84 14.57 10.78 10.15-.09 15.86-4.79 22.87-11.46l89.44-.05c11.25-.01 34.42-.73 44.33.62 5.56 5.68 1.08 17.9 17.74 33.19 27.86 7.01 24.61-12.35 12.83-29.36-1.05-1.5-2.13-2.97-3.25-4.41l333.14.19V2048H0v-122.78l330.748-.08c-5.761 7.33-13.849 16.87-12.503 26.83 1.23 9.1 10.174 10.35 17.239 7.16 13.905-6.27 17.422-20.91 20.775-34.22"/><path fill="#707d8d" d="M310.026 0h28.303a13579 13579 0 0 0-.357 142.433l.014 266.554.019 773.473.111 238.12c.069 46.07.939 94.25-.185 140.13-7.057.88-15.254 2.11-22.245 2.63-2.234 1-2.974.27-5.283-.05-.116-.59-.294-1.21-.234-1.79-.784-16.61-.058-39.77-.043-56.77l-.084-107.57-.052-355.23z"/><path fill="#434a53" d="M310.169 1561.5c.586-3.53 1.172-15.95 1.522-16.8.268-.07.128-.08.421.05 3.357 4.8-3.181 18.51 3.574 18.59-2.234 1-2.974.27-5.283-.05-.116-.59-.294-1.21-.234-1.79"/><path fill="#707d8d" d="M1710.85 0h26.4c-.86 40.787-.08 84.548-.1 125.531l.14 280.175-1.09 1159.614c-8.27-1.39-16.88-2.5-25.21-3.68l-.16-1081.053-.23-320.047c.38-53.512.47-107.027.25-160.54"/><path fill="#bf8759" d="M1710.41 1873.21c25.76-.43 53.24.18 79.21.12l258.38.03v32.5l-346.47-.35c3.08-10.55 5.96-21.67 8.88-32.3M0 1873.06q124.884.96 249.769.51c27.951.05 58.231-.37 86.027.3 2.768 10.26 5.489 20.83 8.389 31.03A24835 24835 0 0 1 0 1905.73z"/><path fill="#707d8d" d="M1712.1 1921.86c-4.74-3.25-11.39-6.06-11.79-12.08 3.35-3 110.44-1.74 123.37-1.72l224.32.15v14.33c-76.56-1-153.86.54-230.46-.03-34.93-.26-70.56.57-105.44-.65M0 1907.97l243.992.07 65.4-.22c7.362-.07 27.907-.83 33.626.05 2.377 2.47 1.764 1.04 1.974 4.41-2.32 4.87-6.413 6.91-11.013 10.03-10.093-.8-27.404-.3-38.13-.31l-70.806-.03L0 1922.03z"/><path fill="#434a53" d="m0 1922.03 225.043-.06 70.806.03c10.726.01 28.037-.49 38.13.31-7.541 1.21-27.105.73-35.725.69l-63.521-.21-234.733.1z"/><path fill="#8a8a8e" d="M1229.24 855.618q3.99.243 7.98.245l.24.825c-1.42.729-2.82 1.48-4.22 2.251z"/><path fill="#707d8d" d="M678.742 1547.33c23.166-1.2 44.954-3.31 68.251-3.74-6.202 6.18-9.952 9.96-11.613 19.1.379 1.54.255 1.42-.069 3.14.956 3.7 1.515 6.7 3.284 10.11.597.37.566.57.912 1.23 2.099 1.93 4.045 3.87 6.331 5.56.834.13.765.15 1.409.74l7.652 2.12c2.817-.39 2.782-.38 5.577-.03 6.94-2.22 9.483-5.21 15.638-7.46.804 3.32.952 3.4.59 6.71.764 67.7.941 135.41.53 203.12-.026 34.23 1.446 75.19.026 108.96-27.82 2.54-54.462 5.77-82.597 7.47-7.926.48-39.073 2.31-44.48 3.42l-1.049 3.13c-1.91.88-3.362 1.63-5.192 2.68-.646-3.13-.556-2.96-2.16-5.65-3.988.12-8.769.82-12.806 1.29-4.15-14.3-7.272-29.74-10.718-44.3l-18.288-76.97c-14.971-63.14-31.186-127.74-44.388-191.16-.66-1.39-.492-1.44-.223-3.11 12.744 6.14 27.243 9.09 36.32-5.18a20.2 20.2 0 0 0 2.558-15.34c-2.109-9.1-7.218-13.09-14.441-17.76l19.208-1.77c1.314-.53 1.156-.47 2.639-.32 6.965-.34 14.563-1.09 21.569-1.65 1.595-.75 1.571-.59 3.418-.36 6.812-.25 14.53-1.06 21.4-1.63 1.297-.63 1.235-.53 2.731-.34l13.082-.65c.97-.43.874-.43 1.922-.29l8.577-.63c1.693-1.1 2.176-.74 4.4-.44"/><path fill="#0c0303" d="M641.782 1907.94c2.941.03 5.474-.04 8.401-.16l-1.049 3.13c-1.91.88-3.362 1.63-5.192 2.68-.646-3.13-.556-2.96-2.16-5.65"/><path fill="#434a53" d="M674.342 1547.77c1.693-1.1 2.176-.74 4.4-.44-1.859.95-2.162.73-4.4.44m101.772 30.33c.804 3.32.952 3.4.59 6.71-.582-1.61-.599-3.13-.579-4.82zm-152.902-26.43c1.595-.75 1.571-.59 3.418-.36-1.489.83-1.593.58-3.418.36m112.099 14.16c-.404-1.54-.318-1.5.069-3.14.379 1.54.255 1.42-.069 3.14m-87.281-16.15c1.297-.63 1.235-.53 2.731-.34-1.174.65-1.18.48-2.731.34m106.869 35.91c2.817-.39 2.782-.38 5.577-.03-2.733.4-3.046.63-5.577.03"/><path fill="#121314" d="M696.786 1557.38q13.529-.795 27.037-1.92c.326 29.59 7.689 41.92 39.159 41.15 1.533-.03 3.064-.1 4.594-.2-1.228 38.2-.643 80.99-.382 119.42.83 8.19 1.089 46.14.644 54.7.626 39.88.987 79.78 1.081 119.67q-9.586.63-19.182 1.11c-1.898.93-2.246.68-4.524.4-17.559 1.27-35.954 2.78-53.484 3.6-1.567.86-1.607.63-3.489.4l-8.497.65c-1.167.61-1.194.45-2.712.35l-11.307.59c-1.799.95-2.142.72-4.346.43-7.151.73-17.144 2.04-24.046.79-3.184-2.88-5.201-15.6-6.349-20.24-21.96-88.75-39.511-179.82-62.116-268.26 20.22.42 32.542-6.35 37.561-26.57-.395-4.54-.422-5.32.002-9.85-.588-2.64-1.211-5.27-1.868-7.9l1.251-1.58 5.194-.54c.776-.15 1.001-.17 1.789-.18l27.378-1.69c1.215-.59 1.221-.49 2.604-.35l12.311-.66c1.273-.61 1.25-.51 2.683-.35l10.186-.67c.939-.34.861-.35 1.83-.3l11.316-.7c1.27-.57 1.259-.48 2.679-.34l11.121-.67c.966-.34.886-.34 1.882-.29"/><path fill="#434a53" d="M767.194 1715.83c.83 8.19 1.089 46.14.644 54.7-1.209-8.04-1.181-46.01-.644-54.7M606.43 1573.6c.746 4.22.743 5.63-.002 9.85-.395-4.54-.422-5.32.002-9.85m54.948 324.13c1.726-1.11 2.209-.78 4.346-.43-1.799.95-2.142.72-4.346.43m83.835-6.02c1.906-.91 2.268-.67 4.524-.4-1.898.93-2.246.68-4.524.4m-56.973 4c1.581-.87 1.565-.68 3.489-.4-1.567.86-1.607.63-3.489.4m-11.209 1c1.285-.66 1.212-.56 2.712-.35-1.167.61-1.194.45-2.712.35m-21.942-336.01c1.273-.61 1.25-.51 2.683-.35-1.168.65-1.149.49-2.683.35"/><path fill="#fff" d="M719.624 1558.45c2.718 2.81 1.616 24.51 11.078 32.1 11.216 9.01 20.592 8.74 33.943 8.64-1.902 94.71 1.193 193.46 1.429 288.64l-128.377 9.11-3.654-15.72a6711 6711 0 0 0-25.708-110.81l-36.05-156.77c29.157-3.49 39.889-18.83 35.388-47.39 36.608-3.01 75.304-5.58 111.951-7.8"/><path fill="#707d8d" d="M1327.94 1550.72c-2.72-2.23-5.82-4.44-8.66-6.56 8.31.6 16.9.79 25.25 1.08 2.22-.12 4.18-.58 6.18.51 8.69.61 17.92 1.42 26.59 1.56 1.88-.27 1.89-.47 3.39.42l9.61.59c2.14-.36 2.62-.7 4.33.44l12.68.55c2.22-.34 2.65-.69 4.33.44l8.71.58c1.92-.32 1.84-.58 3.29.42l11.6.59c1.95-.28 1.9-.53 3.46.39l9.53.64c1.5-.23 1.44-.34 2.67.36 11.86.88 23.7 1.9 35.52 3.07-8.72 5.92-12.43 8.54-15.03 19.44.33 1.86.18 1.96-.06 3.94.96 3.13 2.02 6.97 3.26 9.91 2.81 2.08 4.19 3.43 6.24 6.24 12.2 5.05 18.85 3.91 29.83-3.19-3.76 31.5-17.09 82.36-24.25 115.5l-23.85 107.26c-6.94 31.58-13.38 63.79-21.57 95.1-24.74-4.26-63.52-3.39-89.59-6.05-13.94-1.43-42.37-5.82-54.22-4.2.11-21.77-.32-43.54-1.29-65.28-1.31-6.98-1.04-14.5-.71-21.6l-3.33-204.31c-1.5-6.97-1.02-11.56-.67-18.72-.02-3.61-.5-8.61 1.03-11.65l1.83-.47 3.84 2.75c.65.37.84.38 1.18.94 21.42 11.33 43.25-8.91 30.36-29.25-.95-.6-.99-.51-1.48-1.44"/><path fill="#434a53" d="M1295.18 1812.87c.89 7.16 1.12 14.39.71 21.6-1.31-6.98-1.04-14.5-.71-21.6m-4-223.03c.93 6.92 1.03 11.78.67 18.72-1.5-6.97-1.02-11.56-.67-18.72m53.35-44.6c2.22-.12 4.18-.58 6.18.51-3.03.36-3.23.19-6.18-.51m62.78 4.07c2.22-.34 2.65-.69 4.33.44-2.19.26-2.52.49-4.33-.44m-17.01-.99c2.14-.36 2.62-.7 4.33.44-2.18.26-2.54.49-4.33-.44m84.29 40.77c2.81 2.08 4.19 3.43 6.24 6.24-3.04-2.32-3.88-3.2-6.24-6.24m-39.35-37.75c1.95-.28 1.9-.53 3.46.39-1.85.2-1.88.4-3.46-.39m-57.94-4.03c1.88-.27 1.89-.47 3.39.42-1.83.21-1.87.43-3.39-.42m43.05 3.02c1.92-.32 1.84-.58 3.29.42-1.77.19-1.82.41-3.29-.42m27.88 2.04c1.5-.23 1.44-.34 2.67.36-1.5.09-1.5.24-2.67-.36m23.1 26.81c-.34-1.92-.26-1.93.06-3.94.33 1.86.18 1.96-.06 3.94"/><path fill="#121314" d="M1301.6 1596.22c4.59.5 9.23.56 13.84.18 24.12-1.78 30.35-19.11 28.94-40.35q15.39 1.5 30.84 2.31c1.81-.2 1.91-.41 3.4.36l23.61 1.68c1.04-.08.96-.08 1.92.31 9.32.55 18.76 1.21 28.06 1.66 1.84-.21 1.94-.42 3.46.35l25.72 1.38c-3.11 27.95 3.69 48.5 37.12 45.01-7.27 20.31-16.61 71.38-21.5 94.75l-31.51 144.64c-1.57 7.2-8.35 48.46-11.98 51.34-3.02.07-4.66.1-7.73-.14-2.4.31-3.35.57-5.46-.43-7.84-.2-16.47-1.03-24.35-1.63-1.52.12-1.55.29-2.7-.34l-13.29-.62c-1.47.09-1.54.27-2.61-.38l-9.6-.64c-1.88.25-1.93.51-3.46-.38l-13.55-.6c-1.85.21-1.92.46-3.44-.39l-13.56-.58c-4.29.63-8.77.06-13.05-.55l-15.77-.01-.13-60.79c-1-8.73-1.2-38.14-.65-46.91l-.34-43.32c-.9-7.4-1.3-50.12-.71-58.16l-.29-39.45c-1.06-8.42-1.1-27.32-.65-36.06z"/><path fill="#434a53" d="M1303.12 1683.97c1.29 8.58 1.21 48.28.71 58.16-.9-7.4-1.3-50.12-.71-58.16m1.05 101.48c1.61 7.94 1.16 38.02.65 46.91-1-8.73-1.2-38.14-.65-46.91m-1.99-176.99c1.21 6.57 1.05 28.54.65 36.06-1.06-8.42-1.1-27.32-.65-36.06m18.54 284.7c3.27-.16 6.54-.25 9.81-.26 1.65 0 1.93-.01 3.24.81-4.29.63-8.77.06-13.05-.55m99.61 6.11c2.31-.27 3.39-.58 5.46.43-2.4.31-3.35.57-5.46-.43m-73-4.98c1.94-.34 1.89-.53 3.44.39-1.85.21-1.92.46-3.44-.39m16.99.99c1.89-.26 1.87-.44 3.46.38-1.88.25-1.93.51-3.46-.38m10.9-336.92c1.81-.2 1.91-.41 3.4.36-1.84.26-1.82.45-3.4-.36m56.99 4.01c1.84-.21 1.94-.42 3.46.35-1.84.23-1.86.42-3.46-.35m-38.93 334.93c1.53-.14 1.36-.21 2.7.34-1.52.12-1.55.29-2.7-.34"/><path fill="#fff" d="m1347.28 1559.01 110.8 7.44c-5.79 29.34 8.21 43.17 36.25 46.2-14.27 59.2-25.16 119.44-38.57 178.86-6.77 29.98-13.55 60.03-19.62 90.15l-3.79 16.02c-5.82-.68-11.97-.92-17.84-1.33-35.78-2.46-71.39-5.22-107.25-5.73l-2.39-290.82c28.28-1.29 42.74-10.43 42.41-40.79"/><path fill="#707d8d" d="M432.656 1550.39c3.139-.41 6.249-1.32 8.84.09-.112 8.25-18.035 17.91-.548 35.19.759.31.678.29 1.199.98 13 6.31 20.924 2.75 31.37-6.22 1.162 6.37 1.537 9.28 1.839 15.78.53 1.21.388 1.23.311 2.74l.626 13.26c.987 2.06.667 3.13.416 5.49q.624 15.3 1.515 30.57c1.529 2.42.757 7.61.623 10.76.311 9.75.772 19.49 1.383 29.23 1.49 2.36.738 6.73.608 9.78.493 11.42 1.565 26.01 1.555 37.17.724 1.64.524 1.7.311 3.58l.533 15.44c1.516 2.41.722 5.86.596 9.02l.271 9.36c1.369 5.89 1.065 7.15.729 13.43l.403 15.19c1.442 2.43.738 6.77.599 9.81l.419 13.19c1.462 2.44.702 6.81.575 9.87l.44 15.12c1.386 2.41.706 5.81.581 8.82.24 12.79.405 25.58.497 38.38-4.526.26-11.635.46-15.888 1.25-1.585.28-2.896.48-4.497.66-32.518 5.58-65.51 8.09-98.264 11.93-7.22.85-13.39 1.44-20.517 3.02-7.547-31.9-19.511-68.7-28.865-100.65l-31.769-112.59c-6.096-21.02-22.166-72.08-24.424-91.39 6.702 2.93 8.962 3.82 16.071 5.56l1.658-.51c6.71-2.03 13.057-5.27 16.751-11.6a17.24 17.24 0 0 0 1.76-13.2c-2.508-9.56-10.179-14.27-17.848-19.03 29.138-2.47 60.462-7.19 89.406-11.16.926-.37.715-.34 1.711-.28l57.28-7.74c.89-.38.791-.36 1.744-.3"/><path fill="#434a53" d="M484.104 1772.61c1.369 5.89 1.065 7.15.729 13.43-1.008-5.82-.987-7.56-.729-13.43m-5.88-124.34c1.529 2.42.757 7.61.623 10.76-.642-4.09-1.261-6.72-.623-10.76m7.012 152.96c1.442 2.43.738 6.77.599 9.81-.756-4.15-1.142-5.71-.599-9.81m1.018 23c1.462 2.44.702 6.81.575 9.87-.721-4.11-1.092-5.81-.575-9.87m-6.024-135.97c1.49 2.36.738 6.73.608 9.78-.682-3.95-1.169-5.88-.608-9.78m3.007 65.97c1.516 2.41.722 5.86.596 9.02-.783-3.99-1.128-5.03-.596-9.02m4.032 94.99c1.386 2.41.706 5.81.581 8.82-.708-3.86-1.052-4.99-.581-8.82m-10.976-237.01c.987 2.06.667 3.13.416 5.49-.996-2.09-.714-3.19-.416-5.49"/><path fill="#5b646f" d="M482.393 1735.21c.724 1.64.524 1.7.311 3.58-.811-1.63-.612-1.65-.311-3.58"/><path fill="#434a53" d="M475.356 1596.21c.53 1.21.388 1.23.311 2.74-.589-1.3-.487-1.29-.311-2.74"/><path fill="#121314" d="M421.716 1563.45c-1.281 26.94 17.961 47.98 44.21 35.26-.325 10.28.809 26.46 1.188 37.26 1.087 6.77 1.156 8.81.752 15.59.514 8.4 1.164 17.01 1.23 25.41.694 4.06 1.313 5.87.612 9.8.536 7.27 1.396 16.06 1.365 23.2.716 3.82 1.296 5.11.603 8.79.578 10.01 1.297 20.22 1.463 30.22.459 4.29 1.469 9.7.559 13.8.583 9.62 1.35 19.57 1.348 29.19.744 3.54 1.17 4.35.661 7.8q1.898 29.13 3.204 58.29c.321 6.88 1.41 25.07.544 31.25-2.674 1.49-4.591 1.13-7.67 1.09-1.203.59-1.223.43-2.753.32l-10.382.62c-1.079.66-1.102.49-2.578.39l-6.428.64c-.718.46-.926.33-1.836.34l-8.163.67c-.717.45-.923.33-1.834.35l-6.17.64c-.698.44-.866.33-1.735.37l-7.283.63c-.695.45-.871.32-1.761.32-4.817.55-10.061 1.26-14.854 1.63-.998.3-.774.26-1.797.3-16.151 1.8-32.252 3.48-48.301 6.07-5.225-24.2-15.899-57.85-22.788-82.94l-55.524-195.48q4.714-.66 9.369-1.65c24.949-5.37 27.312-24.92 22.445-46.36 37.499-4.06 74.938-8.66 112.304-13.81"/><path fill="#5b646f" d="M473.139 1748.98c.459 4.29 1.469 9.7.559 13.8-1.498-2.67-.715-10.29-.559-13.8"/><path fill="#434a53" d="M467.114 1635.97c1.087 6.77 1.156 8.81.752 15.59-1.478-6.38-1.025-9-.752-15.59m1.982 41c.694 4.06 1.313 5.87.612 9.8-1.46-2.41-.73-6.74-.612-9.8"/><path fill="#5b646f" d="M471.073 1709.97c.716 3.82 1.296 5.11.603 8.79-1.449-2.3-.719-5.86-.603-8.79"/><path fill="#434a53" d="M475.046 1791.97c.744 3.54 1.17 4.35.661 7.8-1.179-2.1-.78-3.36-.706-5.86zm-6.014 98.75c1.307-.62 1.247-.53 2.753-.32-1.203.59-1.223.43-2.753.32m-12.96 1.01c1.221-.65 1.148-.56 2.578-.39-1.079.66-1.102.49-2.578.39"/><path fill="#fff" d="M411.73 1567.39c2.787-.5 3.411-.34 6.215-.29 1.931 2.4.897 3.28 1.229 6.38 2.606 24.36 21.085 33.46 44.061 30.21l9.382 182.2c1.621 31.46 4.73 70.75 4.537 101.52-39.46 3.32-78.879 9.31-118.031 12.59-2.507-2.24-2.11-3.58-3.171-7.5-26.323-86.72-48.235-178.86-75.421-264.72 31.3-6.94 35.467-18.48 32.159-48.58 9.433-.32 25.649-2.71 35.596-3.94z"/><path fill="#707d8d" d="M1572.81 1581.15c5.57 5.62 10.53 9.53 18.79 9.94 6.09.31 12.03-1.91 16.43-6.13 11.61-11.26 5.92-24.57-3.96-34.33 12.49.39 48.87 5.85 62.7 7.94 28.16 4.27 66.48 6.87 93.24 12.68-9.78 6.3-11.83 8.27-14.64 19.57.32 1.43.24 1.37.08 2.94 4.18 22.08 18.05 25.31 36.47 15.96-3.08 20.04-8.38 36.82-13.97 56.24l-18.27 63.44c-17.19 59.6-34.6 123.67-53.33 182.37-21.21-3.97-50.41-4.37-72.97-7.28-17.61-2.27-48.31-8.46-63.87-8.66-.26-22.02 1.56-42.58 1.68-64.31-.27-6.88-.66-11.02.7-17.79l.31-9.24c-.24-5.91-.54-7.12.68-12.81l.31-14.23c-.32-7.29-.7-13.37.73-20.5l.26-8.58c-.18-5.32-.43-6.27.73-11.44l.28-13.65c-.29-6.86-.63-12.77.71-19.47l3.29-69.56c-.08-2.92-.68-6.52.61-8.95.79-14.83 1.47-29.38 3.01-44.15"/><path fill="#434a53" d="M1563.92 1756.95c.42 7.14.28 13.43-.73 20.5-.32-7.29-.7-13.37.73-20.5m1.98-53.14c.34 6.72.26 12.81-.71 19.47-.29-6.86-.63-12.77.71-19.47m-4.01 109.92c.33 6.79.27 11.08-.7 17.79-.27-6.88-.66-11.02.7-17.79m.31-9.24c-.24-5.91-.54-7.12.68-12.81.26 5.93.34 7.12-.68 12.81m2.71-67.56c.25 5.54.34 6.08-.73 11.44-.18-5.32-.43-6.27.73-11.44m4.89-111.63c.46 3.88.12 5.07-.61 8.95-.08-2.92-.68-6.52.61-8.95"/><path fill="#5b646f" d="M1745.45 1593.76c-.56-1.43-.48-1.35-.08-2.94.32 1.43.24 1.37.08 2.94"/><path fill="#121314" d="M1581.01 1600.21c30.54 4.83 42.73-5.94 43.75-36.17.97-.44 70.64 9.36 78.55 10.35.96.03.82 0 1.72.31 10.65 1.07 20.55 2.23 31.29 2.19-5.87 29.84.17 44.86 32.66 48.01l-78.32 278.67c-7.49-1.73-11.26-2.2-18.96-2.92-1.03.02-.82.06-1.78-.32-7.62-.8-15.23-1.7-22.82-2.68-.89.02-1.05.14-1.76-.28-5.13-.34-11.02-1.14-16.19-1.71-.9 0-1.09.13-1.81-.31l-8.2-.64c-.89-.02-1.08.09-1.79-.35l-6.24-.67c-.9-.02-1.08.09-1.81-.33l-9.12-.66c-.9-.02-1.13.09-1.88-.32l-30.2-2.84 1.03-18.98c-.25-5.79-.37-6.94.75-12.61l.27-8.39c-.23-5.6-.34-7.03.72-12.6l.4-13.2c-.5-3.67-.19-4.26.61-7.96l.39-11.04c-.6-3.94-.15-5.84.6-9.81l.2-10.72c-.33-6.31-.13-6.99.86-13.26l.17-5.41c-.37-6.85-.25-10.71.77-17.59l.41-18.21c-.33-2.17-.62-2.63.48-4.37l.32-7c-.25-5.91-.26-7.58.79-13.43l.36-15.2c-.56-3.95-.21-4.89.65-8.82l.24-7.37c-.25-5.97-.33-8.71.72-14.75l.4-16.05c-.54-3.77-.2-4.42.6-8.25.27-11.44.66-22.87 1.17-34.31"/><path fill="#434a53" d="M1574.87 1747.97c.53 7.57.85 10.41-.77 17.59-.37-6.85-.25-10.71.77-17.59m3.97-89.15c.36 6.47.8 8.49-.72 14.75-.25-5.97-.33-8.71.72-14.75m-1.97 46.14c.45 6.46.81 7.3-.79 13.43-.25-5.91-.26-7.58.79-13.43m-2.94 66.01c.35 6.31.64 7.25-.86 13.26-.33-6.31-.13-6.99.86-13.26m-1.06 23.98c.19 3.17 1.11 7.34-.6 9.81-.6-3.94-.15-5.84.6-9.81m-2.99 63c.38 6.27.65 6.56-.75 12.61-.25-5.79-.37-6.94.75-12.61m.99-20.99c.37 6.16.65 6.68-.72 12.6-.23-5.6-.34-7.03.72-12.6m7.01-156.02c.13 2.99.87 6.46-.65 8.82-.56-3.95-.21-4.89.65-8.82m-6 134.86c.2 2.77.98 5.62-.61 7.96-.5-3.67-.19-4.26.61-7.96m7.36-173.03c-.54-3.77-.2-4.42.6-8.25.11 3.02.87 5.9-.6 8.25m-3.48 82.62c.36 2.29.66 2.57-.48 4.37-.33-2.17-.62-2.63.48-4.37"/><path fill="#fff" d="M1627.54 1566.77c34.38 3.08 69.55 10.25 104.87 12.86l-.15 1.02c-3.88 27.22 5.19 43.72 33.58 46.62l-72.88 257.5-3.88 15.36c-37.78-5.24-80.1-9.11-118.2-12.93.44-27.05 2.61-57.42 3.83-84.7l8.73-198.83c27.86 3.31 43.34-8.8 44.1-36.9"/><path fill="#707d8d" d="M1154.52 1906.99c36.25-.66 51.15 2.43 81.55 26.55.72.47.54.31 1.2.95l3.83 3.11c2.65 1.68 6.01 5.34 7.88 7.88 4.25 4.73 8.64 9.91 11.46 15.56 16.72 33.55-12.12 46.6-40.21 33.84-43.9-19.95-23.23-68.41-65.71-87.89"/><path fill="#434a53" d="M1241.1 1937.6c2.65 1.68 6.01 5.34 7.88 7.88-2.06-1.35-6.76-5.8-7.88-7.88"/><path fill="#707d8d" d="M779.156 1986.74c-1.141-18.87 7.037-33.01 21.157-45.06 24.58-20.98 44.348-35.24 77.381-33.68 1.808-.04 11.251-.39 12.17.39-.077.16-.155.32-.232.49-1.029.52-1.441.55-2.384 1.32-38.842 13.35-24.946 62.11-58.924 82.1-17.009 10.01-37.095 12.54-49.168-5.56"/><path fill="#8a8a8e" d="M877.694 1908c1.808-.04 11.251-.39 12.17.39-.077.16-.155.32-.232.49-1.029.52-1.441.55-2.384 1.32-5.069-.96-4.824-.33-9.554-2.2"/><path fill="#bf8759" d="M495.786 1873.21c26.764-.74 54.501-.05 81.357-.29 7.704-.07 35.123-.42 40.844.61a762 762 0 0 0 7.929 32.12c-35.951-.79-72.15.86-108.037-.33-7.868-.26-16.325-7.45-26.875-8.93.126-5.83-1.669-19.28 1.552-23z"/><path fill="#7b512b" d="M495.786 1873.21c26.764-.74 54.501-.05 81.357-.29 7.704-.07 35.123-.42 40.844.61-16.989 1.14-41.889.49-59.155.49-18.752 0-44.755.55-63.046-.81"/><path fill="#707d8d" d="M875.909 1920c4.687-2.87 17.595-11.13 22.627-11.47 16.396-1.1 34.874-.67 51.391-.66l103.853.09 61.14-.11c26.43-.16 36.58-4.51 58.05 14.36-73 .6-146 .69-219 .28-15.388-.15-30.844.14-46.213.09-5.115-.02-18.627.22-23.092-.51-2.197.11-7.33 1.01-9.23-.05-.25-.14-.551-.38-.537-.7.02-.52.828-1.13 1.011-1.32"/><path fill="#74869f" d="M875.909 1920c4.217.59 4.893.59 8.756 2.07-2.197.11-7.33 1.01-9.23-.05-.25-.14-.551-.38-.537-.7.02-.52.828-1.13 1.011-1.32"/><path fill="#bf8759" d="M1452.35 1873.17c34.86.49 69.72.71 104.57.66l-.3 22.06c-3.3.87-6.7 2.14-9.95 3.27-16.56 8.77-31.34 6.41-49.68 6.29l-51.61-.37c2.19-10.96 4.23-21.05 6.97-31.91m-250.03.03c29.46-.14 62.97-.48 92.17.26.04 8.52.36 17.38-.04 25.83-.04.84-4.68 2.39-5.77 2.98-1.66.73-5.97 2.83-7.68 2.83-27.7.06-55.79 1.01-83.44-.07 1.84-10.47 3.64-21.26 4.76-31.83m-421.517.25c22.225.54 43.636.14 65.78.03 1.083 9.44 2.698 23.04 4.292 32.12-14.34-.13-35.088-.61-49.038.42-9.77-5.82-10.565-6.37-21.373-8.52z"/><path fill="#707d8d" d="M649.134 1910.91c16.415-2.91 47.467-3.12 64.302-3.09 18.593.03 40.429-.36 58.901.36 3.079 4.66 6.31 9.39 9.196 14.15l-147.959-.1c3.716-3.45 6.071-5.86 10.368-8.64 1.83-1.05 3.282-1.8 5.192-2.68m662.106-4.36c28.49-1.51 83.37 2.74 112.87 4.74 5.11 3.4 10.12 6.96 15.01 10.67l-11.94.04c-42.28.28-86.41 1.15-128.52-.04 1.28-2.6 2.62-5.16 4.03-7.69 2.53-4.47 3.74-6.38 8.55-7.72m-942.345 6.89c40.854-4.84 74.01-9.17 115.392-6.52 5.484 5.16 7.268 8.47 10.104 15.48l-14.593-.05c-1.587.68-2.003.68-3.598.02-39.042-.74-79.393.83-118-.38 3.567-2.92 7.01-5.77 10.695-8.55"/><path fill="#434a53" d="M476.2 1922.37c1.832-.31 1.69-.26 3.598-.02-1.587.68-2.003.68-3.598.02"/><path fill="#707d8d" d="M1566.2 1906.14c37.29-.35 74.57 1.88 111.55 6.68 2.81 2.47 7.04 5.29 7.99 8.31-2.67 1.72-6.62 1.2-9.99 1.17l-120.36.22c3.17-6.27 6-11.21 10.81-16.38m-1048.443 2.07c20.392-.33 41.405-.07 61.848-.16 15.549-.07 35.249-.41 50.422.75l-10.426 5.23c-4.075 2.27-8.067 5.29-11.894 8.01l-77.7.36c-3.998-7.07-6.235-9.16-12.25-14.19m925.433.12c7.5-1.16 21.72-.55 29.86-.53l57.35.16c-2.24 2.36-4.52 4.38-6.83 6.84-1.77 2.46-3.59 5.05-5.38 7.47-16.67.02-34.05 0-50.7-.23-3.7-.05-21.81-9.85-24.3-13.71m-13.16 3.72c2.15.17 10.8.67 12.68 1.44 12.63 5.16 23.2 12.21 30.07 24.32.56.53.89.99 1.37 1.58.51 1.9.94 3.75 1.39 5.65.61 1.35.5 1.31.27 2.85-1.85 3.7-5.3 8.66-9.81 8.46-21.71-.96-21.97-21.23-25.18-34.51l-.45-1.67c-4.42-3.94-5.45-4.69-10.34-8.12"/><path fill="#434a53" d="M1475.54 1945.04c.61 1.35.5 1.31.27 2.85z"/><path fill="#707d8d" d="M1682.67 1912.74c5.23.67 9.34 1.23 14.63 1.7 7.76 5.77 14.75 10.48 20.37 18.45.61.49.59.57 1.04 1.21l1.9 3.82c1.43.95 1.43 1.37 1.89 3.1.78 1.98 1.4 3.78 2.1 5.79.78 2.83.42 3.97.07 6.95-6.55 5.96-11.95 4.07-19.8 1.54-4.44-5.37-9.73-11.55-10.03-18.8-.5-12.13-4.19-16.1-12.17-23.76"/><path fill="#434a53" d="M1724.6 1946.81c.78 2.83.42 3.97.07 6.95-.42-3.32-.62-3.65-.07-6.95m-3.99-8.89c1.43.95 1.43 1.37 1.89 3.1-1.41-.71-1.37-1.64-1.89-3.1"/><path fill="#707d8d" d="M1299.75 1902.4c1.74-.19 3.49-.29 5.25-.31 1.07-.01 4.19-.22 5.12.69-.44.5-.93.97-1.54 1.27-8.29 4.03-9.72 13.05-14.18 20.57-5.44 9.16-9.69 11.78-19.38 14.62-4.71-.24-15.08-.78-12.83-8.21 4.88-16.15 22.26-26.49 37.56-28.63m-938.149 11.5c-.414.45-.829.9-1.243 1.36-13.638 13.06-5.324 34.06-27.918 42.26-3.318.49-3.329.52-6.665-.05-16.386-9.75 4.978-29.12 14.368-36.24 8.366-6.34 11.385-5.73 21.458-7.33"/><path fill="#434a53" d="M325.775 1957.47c2.993-.34 3.6-.23 6.665.05-3.318.49-3.329.52-6.665-.05"/><path fill="#707d8d" d="M1527.4 1933.61c-10.41-6.04-6.83-12.33.74-19.49 12.92-12.23 25.11-16.06 41.91-15.96-2.94 2.89-10.05 9.68-11.93 12.82-5.46 9.13-4.12 11.42-13.02 18.67-.58.84-.72.72-1.88 1.1-5.53 2.1-5.49 2.05-11.41 2.75-1.87.65-2.32.35-4.41.11"/><path fill="#434a53" d="M1527.4 1933.61c1.98-.25 2.31-.21 4.41-.11-1.87.65-2.32.35-4.41.11"/><path fill="#707d8d" d="M634.963 1911.25c.995-.07 6.219-.94 6.37.33-.039.08-8.902 7.25-10.58 9.07-2.563 11.57-5.33 28.48-19.737 31.39l-4.172.8c-3.02-.59-8.389-1.28-8.614-5.31-1.117-19.97 21.381-32.42 36.733-36.28m132.553-11.08c24.014-.66 34.048 6.56 50.335 23.47-2.056 1.85-4.2 3.52-6.351 5.25-1.754 1.41-7.359 6.22-8.985 5.98-15.157-2.27-22.43-23.73-34.999-34.7m433.824 8.15c24.56-.5 50.61.09 75.52-.27-3.15 2.59-5.08 4.44-7.92 7.36-1.73 2.56-3.63 5.01-5.38 7.56-33.11.03-33.54 3.95-62.22-14.65m-720.298-8.44c3.185-1.59 12.761-.82 15.95.24 8.599 2.85 44.518 21.43 22.862 31.47-5.168 2.39-20.414-3.84-22.516-9.76-2.447-6.38-8.728-17.42-15.862-19.51zm324.281 8.19c10.501-.07 21.094.07 31.574-.05 1.798 1.01 2.309 1.38 3.983 2.66-6.126 2.67-14.308 7.19-19.591 11.33-6.089-6.15-8.981-8.62-15.966-13.94"/><path fill="#7b512b" d="M753.231 1902.58c4.854-.45 9.998-1.58 14.196 1.74 3.689 2.92-28.928 1.45-30.677 1.46-1.571-.03-11.334.16-11.972-.39l1.07-.3-.178-.12c6.422-1.95 20.372-1.22 27.561-2.39"/><path fill="#0c0303" d="M472.459 1897.67c5.005-.08 5.089-1.13 8.583 2.21l.434 2.44c-.833.13-1.546.42-2.354.69-7.416 1.48-11.814.35-19.23-.36 3.479-.57 6.928-1.21 10.388-1.9l-2.318-2.42c1.601-.18 2.912-.38 4.497-.66"/><path fill="#83756c" d="m470.28 1900.75 1.851.16c3.391.22 3.941.65 6.991 2.1-7.416 1.48-11.814.35-19.23-.36 3.479-.57 6.928-1.21 10.388-1.9m1106.02-.36c1.28.24 7.91 1.2 8.42 2.08l-.09.12c-.9.3-1.25.23-2.39.3-1.84.11-9.47.94-10.64.36l-.03-.19c.36-.68 3.88-2.18 4.73-2.67"/><path fill="#8a8a8e" d="M836.897 1908.02c1.629.01 7.275-.28 8.311.55.115.87-3.735 1.89-4.328 2.11-1.674-1.28-2.185-1.65-3.983-2.66"/><metadata><recraft-signature>{&quot;signed_by&quot;: &quot;recraft&quot;, &quot;signature_b64&quot;: &quot;wH4ZJ7UV+QV06pSqVo2Cxpg2xxn4nmpd6h2JOW80P7SvmQhCDCTn8UXm5w0MI42vd17CSPgcSlMuoieAv0ZYAg==&quot;, &quot;signing_algo&quot;: &quot;Ed25519&quot;, &quot;generation_timestamp&quot;: 1777235961, &quot;identifier&quot;: &quot;d1258fef-fe58-40ab-b3f0-432f13af8bae&quot;}</recraft-signature></metadata></svg>