<svg xmlns="http://www.w3.org/2000/svg" width="1024" height="1024" preserveAspectRatio="none" style="display:block" viewBox="0 0 2048 2048"><path fill="#f9f8f8" d="M1927 574.709c5.64-1.302 8.23-1.404 10.51-7.172-.23-7.045-6.82-11.409-6-18.061.98-7.932-4.15-5.987-5.09-9.321 6.49-3.581 59.33-20.776 67.64-22.482 9.37 4.734 9.64 1.331 18 2.634.01.001 13.52 13.854 16.03 15.892 1.08 3.127.98 3.785 1.24 7.035-7.77 8.894-8.07 13.92 3.84 18.514l-3.59 1023.692c-4.57 2.42-11.3 5.52-12.55 10.84-1 4.24-.37 6.66-4.85 9.07-4.28 2.31-12.18 4.01-16.99 5.21l-.04 19.93c11.37 8.06 22.64 16.28 34.49 23.61l18.36-3.79V2048H0v-397.64c6.816 1.37 14.013 2.23 20.985 3.62 8.736-7.81 21.025-15.4 30.978-21.9q.292-11.115-.038-22.23c-32.893-5.54-5.744-11.36-31.227-23.73-.936-14.49-.506-32.5-.515-47.28l-.04-77.73-.169-240.67-2.825-658.683c4.6-3.098 4.695-2.369 7.71-7.023.497-6.034-3.324-7.106-4.11-11.585-1.686-9.586 13.646-21.135 21.729-22.765 19.563-3.946 37.788 6.593 56.236 11.787 5.128 1.444 19.68 5.898 23.409 8.237-5.591 9.673-11.034 18.1-10.114 29.379l.146 1.708 8.805 4.105c6.831 13.926-.072 6.655-.832 17.905-.3 4.45 6.309 6.897 6.51 11.786.896 21.702.418 45.203.403 66.906-24.878 3.729-44.811 11.202-63.934 28.254-25.05 22.382-35.6 56.45-37.005 89.098-.59 13.698-1.381 18.27 6.694 28.42 1.302 1.638-.768 13.741 6.916 17.766 2.415 1.265-1.573 10.129.15 12.217 1.266 2.639 8.124 5.976 8.619 6.862 8.318 14.905 8.173 29.502 26.452 34.578-.29 29.897-8.575 26.218-27.05 46.08-4.165 4.476-10.22 13.989-9.012 20.589 3.898 21.287 34.053 21.36 51.29 31.222 14.872 8.51 19.878 12.389 33.029 22.347l-.087 479.86c-9.854 6.38-4.299 4.81-9.335 13.74-.584 1.04-9.633 6.32-11.607 7.6l-.182 15.93c22.4 1.94 50.333 6.78 73.041 9.93a602 602 0 0 0 21.563-16.1l-.683-14.74-14.534-3.61c-1.166-7.64-3.425-9.6-9.509-14.03l.016-439.24c32.276 13.79 45.163-10.78 34.094-38.75-7.192-18.183-14.847-29.786-25.774-45.614 16.57-18.183 21.484-24.356 14.339-48.929 26.934 5.024 60.129 2.114 46.058-34.796 3.779-3.364 9.489-7.677 5.67-12.769-4.464-5.953 3.066-12.844 5.472-20.833a100 100 0 0 0 2.316-.247c8.437-1.016 10.802-1.842 15.778-8.289l-.745 340.217c-.161 73.59 1.308 152.55-.511 225.73-11.177 11.46-3.426 11.18-18.493 18.83l-.17 16.87c16.046 1.58 44.584 5.67 60.176 8.83 6.644-4.98 13.832-11 20.381-16.24.036-3.85-.219-7.83-.388-11.69-22.529-4.97-4.274-5.13-21.24-16.31l-.78-432.148-1.033-221.152-.117-64.673c-.016-11.895-.33-24.755.438-36.288.124-1.855 11.768-8.285 3.507-16.401-3.537-2.656 6.274-14.09 8.492-14.959 20.86-8.169 54.797 8.121 75.925 13.257-10.348 15.406-11.38 21.325.457 28.844 6.169 3.92-1.461 9.038-1.955 13.574 1.689 4.048 2.909 4.679 6.297 7.725l-.211 43.744c-38.854 6.544-68.19 27.174-73.241 69.258-.655 5.464-2.191 15.448-1.055 20.656 3.753 17.202 12.617 33.225 22.918 47.367 3.315 4.574 12.812 18.793 14.111 22.929-2.115 26.492-34.177 28.846-34.344 49.846-.108 13.61 33.07 20.138 43.458 27.239 9.693 6.626 18.035 13.796 27.434 22.587 1.434 10.776.902 30.055.906 41.455l-.002 71.38-.264 232.24c-13.175 9.09-2.554 9.61-20.713 20.12l-1.077 15.71c18.728 2.58 37.281 6.32 56.003 8.52 6.99-5.09 22.86-13.78 18.521-23.87-2.65-6.16-8.577-3.36-12.069-7.18l.435-4.24c-1.422-3.71-5.561-6.7-8.662-9.46-.982-36.8-.04-78.26-.021-115.41l-.345-208c3.767-.31 7.322-.57 10.622-2.58a15.53 15.53 0 0 0 7.259-10.411c2.865-14.47-11.535-37.787-19.653-49.17 4.768-14.811 10.48-15.468 13.302-35.183 25.028 3.404 43.271 1.152 35.921-26.227.138.514 4.332-16.465 4.709-18.559-1.182-2.708-2.239-4.208-1.606-7.042 4.119-3.705 12.934.443 14.32-6.922 2.868-15.232-13.874-36.029-15.653-49.315-2.22-16.586 1.676-18.414-5.856-36.105 5.865-9.002 14.225-29.87 4.16-38.135-9.51-7.81-35.386-4.788-47.921-4.452-.427-13.39-.257-27.287-.254-40.725 3.598-2.953 5.306-4.031 5.515-8.854-1.566-2.749-2.309-3.654-2.817-6.83 2.58-7.08 12.532-11.266 19.289-15.134 9.269 2.016 56.542 12.706 61.859 16.616-2.605 5.591-8.514 13.05 1.465 18.711 5.839 3.312 6.503 4.122 7.303 10.624-2.398 2.143-2.483 2.236-4.327 4.87-.419 4.227-.704 2.23.994 6.209 6.444 4.367 5.316 4.437 5.34 12.449.17 55.248-.681 110.492-.512 165.743l.558 412.992c-4.797 3.3-14.222 16.83-20.782 23.32l-.097 15.16c24.294.59 50.548.05 74.989-.03l-.141-14.04c-6.067-7.11-12.957-20.11-18.206-24.79l-1.093-441.092c3.405.775 9.239 1.6 11.569 3.763 1.182 4.235 1.232 5.158 3.624 8.712 4.811 3.397 7.891 1.545 12.042 4.393.781 2.536 1.427 4.327 2.366 6.772 4.647 4.932 8.44 2.785 9.546 4.235 7.332 9.606 2.73 9.401 15.39 13.042l-.471 2.488c-4.117 22.727-19.396 24.824-28.422 38.852l.868 1.33c10.28 5.226 22.842 6.044 33.627 12.149 14.298 8.095 57.536 58.926 75.461 41.486a9.38 9.38 0 0 0 2.863-7.057c-.418-11.892-10.134-31.928-19.145-40.636 4.08-12.674 8.573-21.917 11.716-35.496 13.667 1.572 33.216 4.174 35.286-14.398.777-6.974.525-32.482 3.832-36.292 3.587-.67 5.508-.754 8.639-2.688 3.613-9.283-13.933-31.181-16.977-42.789-2.742-10.457-4.272-18.822-6.224-29.387 14.18-18.884-6.721-45.118-27.553-44.93-9.086.082-13.966 4.244-19.93 10.453-13.396-6.812-27.237-9.499-42.058-5.13-17.484 5.153-22.756 16.052-30.702 30.379-18.856 7.226-27.234 10.049-33.05 30.397l-2.767.95c-.1-31.687-.866-63.584-.124-95.206.101-4.292 8.598-2.679 2.294-15.551-.362-11.648 10.513-11.377 16.303-17.647 3.293-3.565 1.746-10.149 1.08-14.803 84.477-1.467 175.465-1.064 260.054-.277-4.842 23.377-18.039 29.734-22.546 52.295-5.977 29.913 24.121 60.153 21.948 84.587-2.069 23.261-25.08 33.209-22.262 64.704 2.325 25.972 23.932 46.753 23.045 68.627-.95 23.425-24.634 34.257-23.133 63.428 1.445 28.087 25.276 46.657 24.179 71.657-.991 22.59-27.549 38.65-25.959 65.63-.223 23.03 25.279 34.72 25.143 56.78-.108 17.48-12.99 41.75-31.266 45.92-11.278 2.58-25.372 1.19-37.103 1.26-11.52.08-23.041-.07-34.533.02-.272 10.88-.159 22.4-.226 33.32l40.69-.15-.357 23.21c21.997 1.02 51.343.7 73.468.23 22.113 21.99 47.682 40.57 70.737 61.57 3.973 3.62 4.5 3.34 10.146 4.67l1.675.39c2.598 4.17 1.044 34.88.956 42.53l12.102.25c-15.613 102.64-28.696 207.19-43.02 310.18l-12.272 87.39c-1.811 12.88-2.702 28.59-5.767 40.84-11.187 44.69-47.254 62.75-88.444 68.81-.906 21.38-.181 48.89.171 70.39 13.101 1.08 40.345.38 54.545.4h110.925c94.565-.04 194.255 1.52 288.455-.19.28-23.16.03-46.85.03-70.06-20.33-4.87-34.3-6.68-52.35-18.43-33.9-22.05-36.05-53.17-41.27-89.42-3.47-24.14-6.8-48.29-9.99-72.46l-30.85-222.74c-4.24-30.37-8.11-75.69-14.15-104.44l11.48-.1c-.32-14.87-.45-29.75-.37-44.62 3.98.02 8.34-.18 12.36-.29 23.62-18.33 49.29-44.99 72.98-64.72l73.19.04.06-23.32c12.66.07 25.31-.08 37.97-.43-.12-11.74-.01-20.95.7-32.7-13.54-.43-59.49 1.03-68.47-.63-4.91-.92-9.56-2.9-13.64-5.8-10.13-7.21-17.66-23.02-19.63-35.13-2.92-17.98 6.66-25.95 16.34-39.08 29.53-40.07-18.29-57.87-16.53-94.01 1.06-21.63 21.02-38.87 24.44-62.6 4.5-31.287-24.25-42.942-24.38-69.112-.13-25.516 25.98-46.168 24.88-74.594-.97-24.885-25.43-38.385-23.63-61.807 1.8-23.282 26.09-48.159 24.55-73.203-1.54-25.088-20.42-32.134-24.69-59.134l169.18.042c26.54.046 64.45-.995 90.51.824-.86 5.59-2.67 6.724-2.39 12.942 2.6 3.674 12.93 6.127 16.85 10.414 8.56 9.373-.9 11.182-.36 17.647 1.55 3.433 2.04 3.559 5.16 5.995l.88.675c0 12.195.73 107.919-1.56 112.804l-1.36-.213c-2.01-2.882-1.03-4.071-.46-7.841 3.8-24.886-16.78-33.342-35.02-42.804-16.41-29.792-40.56-40.302-72.2-23.014-24.56-31.647-68.79 14.675-46.32 34.767-3.91 9.029-4.89 20.974-8.86 30.718-4.7 11.522-15.28 25.85-17.29 37.665 2.22 7.096 5.79 3.081 11.75 6.757-.1 3.092-.58 13.845-.11 16.519 1.01 5.805 5.1 4.28 2.51 13.751-.34 1.279-.88 5.598-.74 7.23a11.55 11.55 0 0 0 4.41 8.177c7.69 5.935 22.48 4.282 31.63 3.101 2.07 14.995 6.59 20.841 11.16 34.778-7.67 10.619-27.29 40.146-17.01 48.972 19.53 16.764 61.39-33.334 74.22-41.163 12.29-7.505 29.85-7.771 36.49-12.873-1.1-9.826-33.72-22.665-26.68-41.53 8.23-4.268 8.47-6.432 13.91-13.151 2.43-2.989 11.5-2.378 12.13-9.457.16-1.765.86-2.607 2.12-3.815 3.81-.188 5.05-.03 8.63-1.529 2.82-2.753 3.38-6.398 4.47-10.259 5.4-1.337 7.12-1.709 12.22-4.211l1.05-.526-.83 283.788c.14 53.04-.02 106.09-.48 159.13-6.19 4.16-13.72 16.5-19.37 23.53-.91 5.98-.8 9.39-.74 15.33l74.17-.01c.11-5.91-.21-10.66-.6-16.55-7.43-7.51-10.93-16.11-18.09-22.84-.87-42.99.04-89.28.19-132.45l.91-255.919-.18-132.844c-.04-15.158-1.08-51.926.6-65.247 2.41-2.164 3.78-2.977 4.87-6.04-.08-4.615-1.47-5.462-4.25-8.996 3.72-15.769 20.74-6.805 9.06-29.16a497 497 0 0 1 61.19-17.234c5.65 4.388 7.45 5.487 14.31 7.581 2.26 2.62 4.36 4.4 4.97 7.705-4.62 7.506-3.46 10.159 2.65 15.606 1.45 7.7.5 31.621.36 40.784-35.16-1.432-72.73-7.576-47.17 43.649-6.72 18.148-2.92 18.867-6.05 37.462-1.68 10.01-18.34 35.671-15.06 47.426 1.61 5.776 10.12 4.051 15.19 5.903l.65 2.159c-2.56 5.668-1.74 14.108-.64 20.264 8.32 9.414.5 7.957 1.32 17.86 1.46 17.61 27.48 13.463 37.66 12.172 1.71 15.139 6.24 21.139 13.74 33.77-10.73 16.173-42.33 67.799 2.39 61.969l-.7 325.14c-8.19 5.49-8.82 7.61-10.22 14.04.01-.02-8.89 1.88-11.43 3.77-3.88 15.76 6.92 18.98 18.67 27.3 18.57-2.84 37.61-5.53 56.04-8.96l-.44-14.86c-2.76-2.33-7.33-5.28-10.42-7.41-1.96-8.46-2.81-8.58-9.88-13.82-1.61-114.67-.34-232.47-.2-347.401 20.24-20.962 35.86-24.834 59.94-37.747 23.49-15.349-12.55-32.172-20.28-44.157-16.01-24.841 17-41.165 24.85-66.083 8.52-27.04 8.33-49.755-7.6-73.853-14.59-22.087-34.78-29.642-59.07-34.577-.29-14.556-.01-29.83.05-44.441 4.76-4.041 7.31-7.226 3.88-12.856l-.92-1.498c.51-16.772 20.51-8.709.69-35.471 20.34-5.263 48.28-17.418 69.54-16.529 5.06.212 18.37 11.796 16.92 18.535-7.56 6.896-7.05 9.438 1.9 14.862l.99.59-2.18 753.456c-3.61 3-7.36 5.67-9.95 9.51l1.13 2.25-.73 1.44c-5.42 1.34-6.94 1.8-11.98 4.22l-1.18.58.92 11.62c6.3 5.24 13.85 10.72 20.43 15.96 17.73-4.08 43.1-7.06 61.44-9.48-.02-4.15.74-11.32-1-14.58-17.41-12.61-6.92-10.22-18.1-20.92-1.36-22.19-.48-54.34-.52-77.19l-.33-139.07c-.18-115.87-2.1-234.773-.64-350.292 6.13 9.089 7.24 6.869 16.82 10.087 1.75.586 2.62 9.026 8.05 13.778 1.14 8.038-10.2 3.937 3.25 19.947-13.09 36.973 18.02 38.11 45.13 34.227-6.2 24.087-1.33 31.136 15.34 48.109l-9.52 14.494c-16.97 25.87-41.07 86.27 16.71 71.04 1.08 45.51.09 95.62.09 141.5l-.29 297.46c-15.01 10.34-3.27 12.52-24.83 16.36l-.04 15.59c6.38 5.77 14.14 9.53 21.81 16.55 23.17-3.52 49.37-6.33 72.01-10.85-.54-6.03-.62-9.62-.56-15.6-1.71-1.02-8.69-5.11-9.44-6.31-6.09-9.72-1.84-8.76-11.77-15.46l.14-476.42c10.33-9.54 26.86-21.466 39.76-27.274 11.67-5.423 31.44-8.228 40.52-17.353 18.35-18.431-7.64-40.092-21.8-50.321-7.1-5.127-6.87-21.258-7.03-29.157 18.49-2.931 7.94-11.083 19.16-19.545 6.1-4.599 4.3-6.463 5.78-14.329 14.54-8.148 7.08-7.615 8.8-19.275 8.48-8.048 5.93-6.765 6.65-17.553.15-2.218 6.21-5.542 6.57-9.541 2.76-30.336-3.53-64.785-21.03-90.181-20.52-29.052-46.56-40.367-79.6-46.501.06-21.26-1.3-48.343.05-68.863l.73-.509c6.9-4.842 8.82-9.214 2.54-15.917l-.82-.866c-.17-3.875 2.46-7.219 4.51-10.696"/><path fill="#f9f8f8" d="M0 0h2048v356.512c-12.71 5.396-25.89 12.178-38.54 18.099l-86.44 40.347-273.11 126.104a4198 4198 0 0 1-93.41 43.482c-37.08 17.093-30.53 16.971-71.9 16.714l-52.93-.168-196.17-.015c-5.07-24.485-11.77-22.764-22.67-42.574-15.04-27.341 14.62-42.151 21.13-65.554 6.88-24.724-8.21-36.293-18.99-55.345-17.25-30.46 10.48-51.513 17.61-79.115 6.73-21.622-5.21-34.259-15.94-51.65-14.69-23.808 2.42-41.557 7.85-63.883 28.5-.566 70.72 2.694 96.48-7.922a77.58 77.58 0 0 0 42.68-43.194c7.32-18.314 5.4-39.432-2.51-57.226a77.78 77.78 0 0 0-43.44-40.983c-10.6-3.968-27.96-6.81-39.24-7.296-21.28-.918-43.44-.382-64.87-.412-21.58-.03-44.71-.651-66.13.868-8.21.582-21.13 4.189-28.58 7.709-47.51 22.428-65.21 82.108-52.91 130.632 4.85 19.107 16.25 34.005 16.43 52.194.18 17.315-12.66 34.369-18.24 50.244-9.96 28.32 1.94 41.35 13.64 64.196 12.98 25.321-5.56 48.903-14.39 71.666-10.61 27.31 3.1 38.339 14.09 60.566 13.33 26.993-4.88 49.633-14.21 73.695-10.92 28.167 4.69 39.258 15.48 61.674 11.59 24.095-8.09 45.672-16.33 66.632-12.23 31.107 5.6 39.808 17.14 63.434 9.57 19.593-8.56 40.484-15.66 57.95-12.02 29.588 3.95 41.394 14.68 64.995 10.91 24.024-4.54 46.38-13.65 67.393-13.39 30.851 2.69 41.571 13.92 66.091 10.94 23.9-6.38 49.28-15.3 70.11-12.63 29.53 4.36 39.22 15.15 62.02 8.8 18.6-2.76 44.72-10.63 62.72l-85.595.1c-4.828-12.73-12.673-27.48-15.02-40.7-5.196-29.29 24.037-40.4 21.416-71.65-2.082-24.83-24.595-44.33-21.681-68.75 2.713-22.74 22.274-34.64 21.597-61.268-.652-25.657-22.555-48.061-21.836-71.203.8-25.743 26.179-37.896 21.977-69.037-3.009-22.302-23.298-37.432-22.789-57.23.569-22.131 25.439-34.094 23.414-60.817-1.902-25.101-22.615-42.741-22.959-66.854-.326-22.795 24.28-33.819 22.507-60.165-1.755-26.09-21.595-44.044-22.051-69.625-.49-27.467 22.937-36.903 21.785-66.369-.957-24.464-21.107-46.246-21.286-67.743-.186-22.319 21.357-35.788 21.041-63.438-.332-29.006-19.843-44.491-21.365-70.665-.665-11.424 9.781-30.027 13.71-41.561 4.436-12.074 6.125-23.904 6.372-36.679 1.159-59.761-37.038-112.716-100.397-111.294-21.851.491-44.9-.341-66.977.032-40.134.755-84.982-5.708-116.418 25.016-29.841 29.166-31.429 77.605-1.831 107.414 30.258 30.474 82.458 24.678 122.108 24.664 3.28 13.107 12.225 28.764 13.418 40.687 3.013 30.101-22.932 36.826-20.309 68.867 2.084 25.451 25.397 47.657 23.06 69.222-2.637 24.326-26.957 32.668-25.508 63.574 1.218 25.999 27.442 38.303 25.265 59.714-2.5 24.6-22.391 26.379-25.337 56.038l-202.323-.051-50.008.102c-11.05.032-28.912 1.139-38.663-2.958-14.691-6.174-29.717-13.73-44.196-20.543l-69.764-32.292-262.885-121.103A8515 8515 0 0 0 0 357.331z"/><path fill="#010001" d="M1020.27 769.889c17.95-1.753 33.91 11.404 35.62 29.36 1.71 17.957-11.49 33.887-29.45 35.55-17.9 1.657-33.76-11.483-35.462-29.376s11.402-33.787 29.292-35.534"/><path fill="#ae1d2a" d="M1018.3 773.438c15.74-2.857 30.81 7.624 33.6 23.376 2.8 15.752-7.74 30.776-23.5 33.509-15.68 2.718-30.603-7.751-33.382-23.416-2.78-15.665 7.632-30.629 23.282-33.469"/><path fill="#010001" d="M1020.35 779.599c12.37-1.738 23.86 6.769 25.8 19.114s-6.37 23.968-18.68 26.115a22.89 22.89 0 0 1-21.66-8.067 22.89 22.89 0 0 1-3.6-22.833 22.91 22.91 0 0 1 18.14-14.329"/><path fill="#ae1d2a" d="M1019.02 783.12c8.73-.681 17.8.126 21.39 8.98 5.46 13.492-.92 24.181-12.68 29.22-24.78 3.206-33.564-26.662-8.71-38.2"/><path fill="#8891a4" d="M0 560.463c4.62.225 9.561.562 14.16.618l2.12 310.332c-.607 12.511-.706 26.967-.27 39.581.936 27.095-1.275 56.489.861 83.287.098 39.409 1.57 87.599.337 126.159-.763 16.67-.223 36.27-.146 53.15l.281 89.71.045 68.27c-.004 11.15-.5 29.18.454 39.9.078 70.44-1.25 144.75.124 214.85L0 1589.68zm2035.81 2.158c3.86-1.331 8.07-1.403 12.19-1.748V1590.1l-15.49-3.74c-.91-38.93-.42-79.6-.49-118.72l.15-221.26c1-8.96 1.13-32.69.67-41.92l1.71-390.775 1.01-162.995c.17-28.83.86-59.364.25-88.069m-511.8 84.488c15.07-5.245 42.26-17.634 58.28-24.199a5453 5453 0 0 1 120.49-48.552L2048 439.341v30.214c-27.82 11.801-59.43 22.617-87.87 33.123l-128.43 47.463-204.7 75.858c-34.06 12.292-68.95 22.542-102.78 35.827zM0 439.856c20.639 8.988 43.418 16.789 64.56 24.919l119.561 46.08a16168 16168 0 0 1 198.016 78.013c46.894 18.836 97.442 38.594 143.584 58.977l-.054 14.028c-61.52-22.57-124.377-43.201-186.262-65.562l-200.129-74.498C93.716 504.748 44.615 487.651 0 468.867zm0-79.526 342.875 157.718 107.83 49.605c19.262 8.848 38.569 17.356 57.357 27.199 5.06 2.651 17.58 6.414 18.737 11.966-5.568 5.083-57.141-20.701-68.065-25.448a24789 24789 0 0 1-270.957-119.762C125.753 434.189 61.499 407.656 0 379.966zm2048 18.602a5036 5036 0 0 1-124.21 54.885l-154.69 68.309c-79.4 35.018-158.48 70.793-237.6 106.353-3.58 1.605-3.66 1.859-6.66 1.067l-.42-2.439c1.61-4.443 1.77-4.783 6.98-7.376 15.38-7.667 31.46-14.455 47.1-21.649l93.08-43.362L2048 359.712zM0 472.84c24.587 10.906 158.832 57.175 166.548 65.068l-.207 1.651c-4.629 2.012-25.33 2.447-29.274.93-10.38-3.993-79.743-23.104-83.167-28.647.053-1.371.517-5.013-.263-5.525-10.715-7.039-34.213-16.176-47.347-16.985-3.57-.22-3.064-.009-6.29-.711zm2048 1.115v14.946c-15.48.418-24.92 5.431-39.26 10.78-4.15 1.549-9.45 3.21-12.77 6.096.09-.084-1.75 6.773-2.15 7.137-23.16 9.87-47.77 16.626-71.79 24.08l-2.07 2.926c-6.57 1.591-32.89 1.252-39.5.119l-.73-1.27c6.28-6.415 150.18-58.11 168.27-64.814m-46.76 1138.805 1.32-.42c22.01-7.19 22.87-4.8 45.44-.14v10.21c-5.64 1.85-12.29 3.7-18.13 5.51-10.01-5.77-19.13-9.82-28.63-15.16m-1970.847-5.99c5.98 2.67 8.214 3.57 14.45 5.69-8.887 4.95-15.46 9.97-24.645 14.83l-1.834-.46c-6.071-1.57-12.28-2.5-18.364-4.03v-9.04c11.564-1.84 19.055-3.36 30.393-6.99M0 1593.6c6.635-1.58 13.026-2.99 19.745-4.25l3.756 1.67c2.888 1.3 9.553 6.11 6.934 9.47-4.826 6.2-23.359 8.25-30.435 9.19zM0 511.058c17.337.046 18.965.955 35.425 7.069-9.446 5.193-5.487 2.105-12.807 11.059-7.958-.395-14.742-1.298-22.618-2.721zm2014.82 6.83c20.89-6.358 13.19-6.669 33.18-6.095v14.654l-6.01 1.241c-5.74 1.23-9.44 1.803-15.3 2.484-5.04-4.516-7.56-7.21-11.87-12.284m24.9-130.985c3-1.525 5.21-2.36 8.28-3.7v52.484c-1.42.538-5.97 2.716-7.43 1.871-1.18-.683-.87-45.703-.85-50.655M2048 1608.42c-7-.97-43.92-4.36-22.51-16.42 6.42-3.62 15.88-.1 22.51 2.01zM0 1626.4c5.794 1.33 11.645 2.37 17.454 3.62l1.466.31c-.284 6.57-.347 13.06-.501 19.63-6.156-1.06-12.32-1.94-18.419-3.31zm2031.05 5.32c6.61-2.36 9.9-4.39 16.95-4.43v19.57c-5.99 1.37-10.81 1.96-16.84 2.61-.11-5.92-.15-11.84-.11-17.75M0 383.644l1.56 1.055c.59.391 3.653 1.826 3.651 2.853-.036 16.49.624 33.47-.447 49.861-.054.835-4.387-.838-4.764-.951z"/><path fill="#4a4e5d" d="M17.208 1120.44c1.462 6.91.984 25.07.985 32.87l.003 55.99-.028 104.36c-.01 17.8.593 40.3-.325 57.81-.955-10.72-.459-28.75-.455-39.9l-.045-68.27-.28-89.71c-.078-16.88-.618-36.48.145-53.15"/><path fill="#8891a4" d="M0 546.884c5.96.255 29.872-2.061 19.589 9.399-1.17 1.302-16.639 1.299-19.589 1.49zm0-16.197c5.776.491 13.047 1.583 18.881 2.332a418 418 0 0 1-4.118 11.036q-7.38-.112-14.763-.089zm2048 16.333v9.752c-3.38.252-15.66 2.124-17.49.302-12.92-12.914 15.44-10.049 17.49-10.054m0-16.692v12.93c-4.76.331-9.53.609-14.29.833-1.03-3.379-1.9-6.801-2.92-10.181 5.76-1.174 11.44-2.424 17.21-3.582M0 492.798c5.284 1.038 6.848.763 11.779 1.362-1.246 14.574 2.084 13.978-11.779 13.786z"/><path fill="#4a4e5d" d="M16.28 871.413c1.566 6.74 1.345 50.188 1.02 59.84-.586 17.436.887 46.38-.429 63.028-2.135-26.798.075-56.192-.861-83.287-.436-12.614-.337-27.07.27-39.581"/><path fill="#8891a4" d="M2048 507.679c-3.4.022-8.74 1.514-8.82-3.17-.21-11.911-2.28-11.006 8.82-11.703z"/><path fill="#dcdede" d="m560.066 809.346 2.767-.95c-.426 3.942-1.131 7.309-.137 11.124.519 1.995 1.406 7.067-1.228 7.95-2.418.811-1.459-16.148-1.402-18.124"/><path fill="#4a4e5d" d="M2032.17 1246.38c-.48-7.53-.7-34.8.67-41.92.46 9.23.33 32.96-.67 41.92"/><path fill="#8891a4" d="M772.156 91.373c-1.158-.23-2.185-.651-3.31-1.012l-.644-.676-.422.094-.059-.167.134-.181c2.003-.825 21.786.04 25.168.415l62.482-.087c36.795-.042 69.181-3.518 97.565 25.154 20.903 21.115 30.678 51.847 30.142 81.053-.283 15.393-2.713 29.222-8.143 43.577-3.451 9.124-12.441 24.681-11.992 34.257 1.32 28.129 21.066 42.018 21.305 72.788.234 30.062-24.249 41.186-20.658 67.487 2.942 21.55 20.8 41.372 21.091 64.92.323 26.161-20.653 36.629-21.604 61.921-1.054 27.993 21.391 47.093 21.815 74.557.36 23.339-21.726 33.868-22.437 56.189-.852 26.772 22.69 45.035 23.2 71.297.461 23.789-22.854 35.377-23.264 57.925-.431 23.703 21.011 36.437 22.846 60.821 1.998 26.542-20.816 41.095-22.193 64.425-1.392 23.585 19.309 44.442 21.485 69.195 2.535 28.825-21.454 42.005-21.559 68.395-.088 22.21 17.493 39.4 21.092 61.23 5.51 33.41-25.994 43.18-20.645 75.63 2.558 15.52 10.071 26.57 14.503 40.34l-159.859-.13c15.78-11.82 21.616-22.4 25.116-41.68 5.472-30.15-24.554-35.32-24.576-64.6-.019-24.1 25.577-40.85 26.186-63.54.717-26.73-23.886-45.56-24.17-74.467-.239-24.43 22.838-39.275 23.126-60.273.352-25.715-23.217-46.412-23.367-75.075-.133-25.426 22.298-38.308 22.712-60.046.481-25.25-22.292-45.864-22.789-74.053-.48-27.279 21.191-36.812 22.558-61.372 1.255-22.546-23.205-42.758-24.186-65.124-.964-21.973 24.5-34.018 24.936-56.123.486-24.692-23.811-33.674-25.457-59.765-1.798-28.509 23.103-38.02 25.683-62.068 2.626-24.478-22.432-46.591-23.454-73.225-.934-24.342 17.134-31.471 20.373-54.413 3.266-19.662-10.238-36.475-13.074-54.881-1.48-9.601-.143-24.34.83-34.139 5.024-50.574-5.293-94.174-56.486-114.573"/><path fill="#646576" d="M772.156 91.373c-1.158-.23-2.185-.651-3.31-1.012l-.644-.676-.422.094-.059-.167.134-.181c2.003-.825 21.786.04 25.168.415-6.533.565-16.36-.61-20.867 1.527"/><path fill="#8891a4" d="M1072.4 1240.79c6.38-14.94 9.1-20.93 12.38-36.21 7.64-35.52-24.18-46.4-21.25-73.07 2.72-24.7 25.99-44.38 22.41-73.86-2.78-22.88-22.43-35.82-22.07-56.36.44-24.583 22.39-44.167 22.46-70.952.08-27.689-21.82-37.509-22.51-63.343-.64-23.6 22.93-42.402 22.15-65.983-.8-24.561-27.29-34.771-23.25-61.004 3.77-24.496 23.51-40.491 23.67-66.001.13-21.06-21.95-37.59-22.59-56.555-.86-25.768 22.52-44.783 22.39-72.61-.13-26.346-19.71-37.964-22.52-59.736-2.92-22.598 21.66-47.177 22.41-71.73.86-28.037-21.44-38.419-21.48-65.831-.03-26.287 22.39-46.338 22.24-72.572-.06-12.105-8.28-25.125-12.62-36.539a125.8 125.8 0 0 1-8.23-43.533c-.12-28.545 9.65-59.341 30.1-79.853a82.9 82.9 0 0 1 37.03-21.78c18.03-4.98 48.14-3.488 67.58-3.445l75.15.216-.85 2.582c-10.51 2.073-26.38 15.162-33.26 23.009-23.03 26.278-25.88 56.432-22.49 89.824 1.02 10.059 2 27.339.52 36.84-3.04 19.462-15.32 30-12 51.946 3.26 21.55 23.9 30.005 22.86 52.143-1.36 28.997-27.7 46.299-24.77 75.885 2.4 24.165 26.6 35.684 25.66 60.569-1.02 26.869-28.44 36.278-26.54 63.654 1.49 21.48 26.17 33.536 25.98 52.991-.24 23.316-26.04 41.283-24.93 66.026 1.09 24.305 25.17 37.216 24.87 61.268-.35 26.892-24.76 48.574-24.81 74.143-.04 22.614 23.55 37.178 23.61 60.382.06 28.559-25.59 47.064-24.69 75.192.75 23.356 25.22 36.801 24.96 60.321-.31 27.806-25.73 45.476-25.2 73.326.47 25.38 26.09 41.55 26.16 65.24.07 24.58-29.13 33.69-26.13 60.62 2.31 20.78 10.01 31.61 25.08 44.97z"/><path fill="#cb7931" d="M893.008 1846.51c87.654-1.47 177.862.98 266.152.06 15.31 45.48 41.71 62.57 88.14 70.89l-.17 63.54h-92.63l-353.767-.1-.135-63.54c33.593-4.88 60.083-17.21 78.65-47.33 4.398-7.14 6.634-16.13 10.933-22.99z"/><path fill="#010001" d="M1013.21 1908.39c47.15-7.32 78.29 29.05 125.58 34.99 16.02 1.93 32.27.93 47.93-2.95 9.83-2.52 18.51-8.62 27.41-7.59l-.02 1.3c-8.48 6.05-29.95 11.1-40.11 12.68-27.91 4.36-57.97-1.27-83.04-14.13-19.29-9.9-31.2-16.76-52.72-20.62-60.992-4.63-63.454 22.35-119.251 33.82-21.21 4.36-67.674.84-85.259-11.35l-.299-1.66c3.736-1.26 10.159 2.1 14.646 3.49 20.737 6.44 39.644 8.9 61.168 7.11 43.669-3.61 61.553-30.69 103.965-35.09"/><path fill="#8891a4" d="m272.89 649.019 30.652.013 1.443 517.558.013 159.45c.003 22.98 1.2 58.12-.199 80.11-7.551.54-26.034 2.2-31.966-1.34-1.143-5.58-.673-54.85-.674-62.38l.27-158.5zm1472.56.784c9.92.179 20.16.117 30.1.171 1.59 67.15.27 141.489.26 209.085l.99 331.301.24 152.69c.02 9.34.67 57.14-.79 62.38l-2.49.89c-11.94.98-18.73 1.4-30.44-.79zM127.051 1014.44c14.71 10.4 23.522 21.54 41.304 33-1.967 102.3-.278 209.93-.298 312.56l.037 84.14c.005 12.65.587 33.81-.391 45.93-17.534 2.95-23.233 2.68-40.882-.3.057-157.79-1.649-317.72.23-475.33m92.409-294.675c18.917 20.154 17.214 61.883 33.374 85.829 3.684 5.458 13.908 27.385 12.222 33.281-5.961 5.817-26.675 6.648-33.16 2.055-2.397-6.259 4.749-8.31 4.782-14.386-7.506-.512-13.006 10.819-7.342 16.497 5.333 5.346 12.017 4.242 18.91 4.198-6.343 13.315-6.154 11.856-19.373 13.549l-.967 1.266c4.805 4.226 15.879.678 15.911 9.259-1.962 4.171-4.568 5.442-8.347 8.142 3.694 6.497 4.017 7.388 6.028 14.388-1.505 6.552-2.296 8.725-5.785 14.416-13.872 9.028-29.796 6.221-44.989 2.91-44.519-14.057-48.403-27.676-60.409-69.68-22.483-2.332-14.456-2.787-26.832-19.208-15.144-20.093-10.52-51.117 19.72-37.635 5.509 2.456 8.36 12.066 13.249 15.055l1-1.523c-.146-.566-1.301-5.25-.834-5.591 9.712-7.087 17.723-6.844 26.798-16.203 11.174-11.525 3.374-28.351 12.626-39.213 17.106-11.445 25.861 2.714 43.418-17.406"/><path fill="#010001" d="M212.993 781.15c22.087-1.194 24.771 17.435-2.232 16.591-30.833-5.193-20.19-10.664 2.232-16.591"/><path fill="#8891a4" d="M209.167 785.963c.572-.028 4.049-.526 4.196-.096 3.325 9.715-3.226 8.052-6.602 7.824-13.875-2.678-6.032-4.37 2.406-7.728m9.41.05a4.186 4.186 0 1 1 5.334 6.453 4.186 4.186 0 0 1-5.334-6.453"/><path fill="#010001" d="M112.139 793.675c4.797 2.939 10.927 12.835 15.639 17.344 2.385 2.282-.662 11.942-1.919 14.763-15.001-1.313-19.58-20.728-14.591-30.318z"/><path fill="#8891a4" d="M113.169 801.51c.666.32 1.829.797 2.262 1.389 7.694 10.511 9.956 7.34 9.732 19.169-11.228-1.018-11.021-11.299-11.994-20.558"/><path fill="#010001" d="M205.846 765.194c7.874-.558 16.384-.745 24.191.52 1.15.187 5.066 2.073 3.163 2.697-4.749 1.558-15.735.046-21.04.075-6.824.619-11.43 1.263-17.605 4.676-1.125.621-4.386 2.634-5.617 1.209-.346-4.556 13.593-8.408 16.908-9.177"/><path fill="#8891a4" d="M1826.98 718.887c19.92 20.255 23.86 8.079 43.46 17.214 8.78 4.096 5.17 28.664 11.62 38.395 7.88 11.888 21.27 11.209 29.18 18.847-.6 3.915-1.32 5.144 1.66 7.512 3.06-2.499 3.3-7.388 6.09-10.18 27.12-27.161 44.84 5.734 26.09 31.768-10.48 14.557-7.23 19.817-28.5 18.957-7.2 36.212-15.96 55.081-52.33 67.943-13.77 4.454-46.42 11.412-54.9-5.779-3.88-7.854-.36-15.494 2.64-23.022-4.2-4.29-7.82-6.132-6.78-12.496 4.51-4.731 14.2-4.309 20.7-5.387-7.63-2.333-23.49-1.765-24.63-12.784 4.66-4.665 13.82-.473 18.89-8.346 1.19-6.797-2.46-13.771-9.88-14.01.41 4.246 5.72 6.806 6.05 11.536-6.93 9.416-34.43 3.7-33.36-1.684 3.67-18.386 16.8-37.748 23.51-55.599 8.27-22.02 7.09-42.937 20.49-62.885"/><path fill="#010001" d="M1825.99 781.217c10.35-1.022 21.28.965 29.48 8.477 3.58 3.277-6.79 6.28-8.41 6.86-5.52.735-10.97 1.639-16.56 1.238-11-.79-18.6-8.382-6.2-15.559z"/><path fill="#8891a4" d="M1834.53 784.333c3.87.846 15.38 2.935 15.17 7.925-14.62 2.914-15.09 4.825-15.17-7.925m-6.77.111c5.22 1.315 4.99 7.69-.29 8.954-.66-.322-1.32-.635-1.99-.938-3.65-1.641-4.45-3.465-.82-5.927z"/><path fill="#010001" d="M1933.98 795.561c12.96.037 2.03 23.81-6.06 29.555l-1.55 1.168c-9.21-.903-6.5-7.961-6.22-16.392 4.4-5.247 8.84-9.626 13.83-14.331"/><path fill="#8891a4" d="M1934.77 799.846c5.39 5.91-4.85 19.149-10.08 23.114-6.65-7.046 5.47-18.027 10.08-23.114"/><path fill="#010001" d="M1822.54 765.18c11.89-.736 25.06-.473 35.55 5.672 1.72 1.007 1.76 5.265-4.38 1.816-11.09-4.122-19.87-5.343-31.7-3.401-10.84 1.781-8.57-1.803.53-4.087"/><path fill="#8891a4" d="M1917.62 1016.82c2.27 2.94 1.44 136.08 1.46 154.06l-.05 319.43c-15.84 2.49-22.16 3.7-37.83.42l-1.55-.94c-2.03-3.89-1.03-43.39-1.02-51.05l.19-100.7.15-290.12c15.55-10.8 24.71-18.56 38.65-31.1M1573.7 769.514c14.85 13.311 32.63 7.895 40.77 15.21 15.3 13.75 18.56 23.183 39.04 36.582 3.3-2.391 9.6-6.957 13.88-5.261 25.44 10.08-12.81 36.697-3.77 53.139 4.33 7.877 11.21 9.939 18.08 12.038 2.94 34.799 17.53 28.242 34.11 49.722q-3.54-.045-7.08.084c-28.76 1.181-62.78 18.998-81.91 40.072-3.15 3.463-13.2 13.189-13.08 16.668 1.78.68 2.57 1.488 3.82.035 7.24-8.374 12.33-15.482 20.85-22.776 19.2-16.441 42.15-26.07 66.95-30.316 3.69-.632 5.76-.149 8.43 1.974l.15 2.296c-3.56 6.528-12.8 8.234-19.52 11.019a149.4 149.4 0 0 0-21.8 11.309c-11.93 7.56-23.7 18.798-34.29 28.375-42.77 36.826-46.7-6.7-22.66-36.144l1.43.177 2.43 5.146 1.09-.034c1.34-3.275.45-12.878.26-17.011-9.19-13.314-11.21-16.281-13.72-32.198 10.21-4.268 18.75-7.726 27.2-15.217 5.09-4.516 13.08-16.503 13.29-23.344l-1.47-1.128-1.61.452c-1.54 3.026-4.8 12.425-6.58 14.983-10.68 15.382-45.99 28.758-63.38 20.278-11.36-5.536.73-19.554.09-22.991-3.44-1.362-4.42-1.55-7.28-4.033-.96-3.531-.97-1.805.12-5.365 5.74-2.055 6.18 2.009 11.4-.225l.52-2.111-.91-1.224c-3.49-.584-6.16-.594-8.81-2.815-1.56-3.228-1.15-3.649-.65-7.194 4.94-1.85 8.56-2.682 12.04-6.506 1.22-4.54-1-9.751-5.52-11.218-3.61 2.851 1.65 4.205-.43 10.384-5.86 4.894-16.74.807-22.44-2.862-.51-12.77 14.71-35.416 16.33-49.687l18.06-1.401c10.94-.932 21.68 8.8 30.63 8.383l-.52-.88-.16 1.022-.52-1.631c-28.77-22.167-59.07 7.657-42.86-35.776"/><path fill="#010001" d="M1585.45 812.007c8.61-.149 30.99 5.581 9.12 11.712-17.36 4.107-27.34-7.345-11.03-11.224z"/><path fill="#8891a4" d="M1593.58 816.877c2.22-.9 3.2-.042 4.5 1.743-1.28.338-6.77 2.727-5.07-.558z"/><path fill="#646576" d="M1581.8 817.148c1.94.273 1.47.41.77 1.674-.77.033-1 .154-1.69-.103-.33-.821.15-.713.92-1.571"/><path fill="#010001" d="M1663.61 827.142c.51.185 3.21.881 3.07 1.818-.99 6.415-7.56 16.043-11.45 20.753-2.27-.816-5.2-1.44-2.2-4.157 5.42-4.9 7.67-11.911 10.58-18.414"/><path fill="#8891a4" d="m472.043 769.834 1.007.519c2.983 5.287 5.652 15.732 4.139 21.884-6.665 7.433-35.609-2.131-46.204 14.285l.411 1.357c4.61.459 10.769-6.145 18.653-7.665 11.181-2.155 14.836-1.643 25.712-.416 3.072 10.935 21.474 42.73 17.131 50.851-4.728 3.577-18.007 4.691-22.58.873 1.006-3.862 1.431-5.429 1.818-9.358l-1.481.059c-2.875 2.628-4.417 4.213-4.348 8.383.165 9.905 9.222 4.652 12.68 8.411.358 3.349.71 4.244-.651 7.367-2.95 2.507-6.293 2.232-10.602 3.531l.143 2.179c2.839 1.55 5.703.085 10.211-.154 2.329 2.498 2.503 3.876.984 6.641-2.756 1.428-3.425 1.608-5.768 3.71-.144 6.544 7.491 10.565 2.93 18.602-3.526 6.715-11.148 7.925-18.244 7.426-20.707-1.456-48.552-12.664-54.057-34.577l-.957-3.791c-.62-2.476.094-1.504-2.038-2.876l-1.145 1.351a39.5 39.5 0 0 0 4.052 14.543c7.407 14.857 21.23 20.874 35.897 25.831-1.488 16.035-7.14 18.771-12.454 33.186-1.595 4.324-2.793 11.539-.68 15.926l3.284-3.387 1.655.227c22.658 31.463 21.786 69.628-22.615 35.535-14.047-12.521-26.343-25.626-43.489-34.136-8.651-4.293-31.254-8.727-33.119-19.083l1.626-1.439c24.636-4.179 65.999 18.425 82 36.326 4.912 5.496 10.033 14.321 16.095 17.882l1.355-.535c-1.045-6.678-17.346-22.911-22.761-27.47-22.276-18.753-50.216-31.891-79.693-29.972 13.724-19.867 34.871-18.95 34.691-48.93 41.811-21.078 2.612-31.474 7.034-61.693 1.356-9.269 15.486-3.505 21.016-.337 20.322-11.715 23.536-24.768 39.227-36.284 11.103-8.149 22.229-.967 39.135-14.782"/><path fill="#010001" d="M456.496 811.787c20.843-.785 19.125 14.9-3.22 11.342-1.926-.357-10.899-1.1-10.92-4.165-.02-3.032 8.821-3.913 9.694-2.406-.298.693-.914 1.107-1.124 1.849.511.644 3.355.728 2.793-.891-.771-2.219 1.501-3.954 2.777-5.729"/><path fill="#8891a4" d="m463.762 816.913 1.268-.232c.017.406.04.139-.16.872l-1.469.118c.019-.363-.042-.126.361-.758"/><path fill="#010001" d="m379.764 827.393.448.123c7.613 2.013 4.712 6.842 8.942 12.765 3.251 4.553 4.865 4.847 8.106 10.172-10.187-1.79-14.602-14.187-17.496-23.06"/><path fill="#8891a4" d="M1493.01 712.977c8.96.05 18.46-.28 27.47-.438 1.77 195.946-2.52 392.361-.87 587.871-9.52.14-19.04.03-28.55-.32zm-963.368-.516c7.667.829 18.401.56 26.327.589.893 43.906-.516 85.546-.089 128.372l2.09 459.218c-7.961.66-20.374.19-28.672.12 1.726-149.45-1.111-300.67-.355-450.416l.002-93.781c-.007-8.978-.566-37.226.697-44.102"/><path fill="#cb7931" d="m855.443 1297.04 337.797-.01a3952 3952 0 0 1-32.81 29.21 1463 1463 0 0 1-36.65 31.98c-23.22 1.22-53.91.24-77.82.19l-118.479.28c-21.655-20.19-48.91-41.34-72.038-61.65"/><path fill="#8891a4" d="M112.228 841.799c5.467 2.039 10.225 2.429 15.987 3.249 9.599 44.13 20.292 55.793 62.715 70.502 8.112 22.487 1.691 29.371-12.73 45.847l-.048 1.074c-.186 4.313-1.12 18.302 1.735 21.414 1.572-4.085 1.307-6.942 1.395-11.284 15.136 21.709 25.4 38.749 24.56 65.389-20.712 33.75-67.102-18.95-84.782-34.13a160.5 160.5 0 0 0-21.671-15.692c-17.127-10.15-31.797-11.524-48.253-20.658-5.781-3.208-7.557-8.485-8.752-14.655 49.132-4.063 94.129 22.372 126.295 57.655 5.264 5.78 10.694 11.88 16.272 17.33l1.685-.65c-.113-4.69-7.344-10.84-10.615-14.42-37.741-41.353-76.477-64.693-133.085-63.689 15.891-30.244 35.818-17.407 34.982-61.884 21.452-10.918 29.452-21.697 34.31-45.398m1822.712.455.97.686c7.28 23.435 12.42 31.655 34.01 44.135 2.08 51.302 18.99 27.091 34.62 61.935-52.75-1.159-91.65 21.169-127.94 58.51-3.46 3.57-16.14 15.26-14.42 19.81 2.69-.78 16.95-17.17 20.44-20.5 37.41-35.644 68.18-53.76 119.63-53.942 2.43.235 1.38-.243 3.15 1.426 0 18.138-38.2 22.664-51.42 30.526-20.86 12.412-36.38 27.13-54.6 43.02-9.74 8.48-25.42 20.86-39.18 21.57-36.5-1.17-7.42-61.309 5.51-73.774.77 2.774 1.33 5.362 1.94 8.164l1.22.754c2.57-4.462 1.21-17.904.97-23.876-16.69-17.234-19.12-21.339-13.44-44.827 40.63-11.82 55.33-29.182 62.73-70.412l2.38-.257c6.54-.661 7.14-.627 13.43-2.948M750.956 92.3c20.699-1.06 41.364 10.869 54.486 26.334 18.994 22.386 22.159 52.473 19.568 80.721-15.57 21.71-38.046 33.431-63.921 37.614-37.706.122-70.219-22.019-75.925-60.712a71.8 71.8 0 0 1 14.1-54.525c12.85-16.962 30.823-26.584 51.692-29.433"/><path fill="#010001" d="M751.093 134.861c21.546-2.774 41.22 12.55 43.805 34.119s-12.911 41.108-34.501 43.505c-21.325 2.366-40.573-12.898-43.126-34.201s12.542-40.684 33.822-43.423"/><path fill="#8891a4" d="M750.713 138.875a35.15 35.15 0 0 1 37.742 48.103 35.15 35.15 0 0 1-28.079 21.522c-19.102 2.432-36.605-10.961-39.253-30.035-2.647-19.074 10.547-36.727 29.59-39.59"/><path fill="#010001" d="M754.958 158.178c7.277-1.527 14.454 2.994 16.219 10.217s-2.517 14.544-9.678 16.546a13.783 13.783 0 1 1-6.541-26.763"/><path fill="#8891a4" d="M754.718 162.242c5.134-1.61 10.599 1.256 12.194 6.395s-1.286 10.596-6.43 12.176c-5.122 1.574-10.552-1.294-12.141-6.411-1.588-5.118 1.263-10.557 6.377-12.16M1286.15 93.1c38.02-1.972 70.46 23.252 77.03 60.924a68.7 68.7 0 0 1-11.67 52.062c-13.16 18.332-30.46 27.306-52.27 30.801-30.92 1.293-56.9-15.269-76.56-38.061-6.6-46.796 15.79-93.036 63.47-105.726"/><path fill="#010001" d="M1284.42 135.583a39.05 39.05 0 0 1 37.61 11.854 39.06 39.06 0 0 1 8.09 38.595 39.05 39.05 0 0 1-29.69 25.957c-20.91 4.001-41.18-9.495-45.54-30.336-4.37-20.84 8.77-41.337 29.53-46.07"/><path fill="#8891a4" d="M1289.7 138.616c19.3-1.86 36.45 12.274 38.31 31.572s-12.27 36.452-31.57 38.317-36.45-12.27-38.32-31.571c-1.86-19.301 12.28-36.457 31.58-38.318"/><path fill="#010001" d="M1289.98 157.903c7.49-.773 14.22 4.576 15.16 12.044.94 7.467-4.26 14.316-11.71 15.418a13.85 13.85 0 0 1-13-5.251 13.82 13.82 0 0 1-1.74-13.908 13.84 13.84 0 0 1 11.29-8.303"/><path fill="#8891a4" d="M1288.26 161.967c5.2-1.727 10.81 1.106 12.51 6.313 1.69 5.207-1.18 10.799-6.4 12.461-5.17 1.646-10.7-1.191-12.38-6.352s1.12-10.71 6.27-12.422"/><path fill="#cb7931" d="m1025.63 1421.33 26.36-.08c.52 41.01 3.62 85.9 5.52 127.15l6.85 172.65c1.74 40.47 4.51 81.52 5.58 121.93l-44.8-.09zm-29.65-.02 25.96-.04-.4 421.65-16.58-.02-26.707.04c3.114-139.44 12.731-281.98 17.727-421.63"/><path fill="#8891a4" d="m741.043 1244.39 565.747.05c-.29 8.28-.27 17.1-.39 25.44-75.15.97-151.92.15-227.19.12l-338.262.04z"/><path fill="#f9f8f8" d="M169.216 603.897c3.729-3.653 8.113-6.359 7.633-11.849-5.132-4.758-6.184-6.675-1.333-12.875 4.533-5.792 10.158-8.334 16.649-11.116 23.561 4.945 56.662 18.085 80.783 26.039-12.773 1.14-15.494.182-18.496 14.231-3.228 15.108 15.58 13.548 13.889 25.959l-3.963 1.022c-5.756 6.145 3.362 12.255 4.378 15.294.324.966.573 14.077.58 15.813l.771 159.72c-.934 1.507-1.647 2.913-2.463 4.472-3.094-13.383-17.209-36.202-21.765-49.801-8.744-26.102-6.928-42.121-24.127-64.966 15.305-45.015-19.163-46.93-52.737-46.866-.069-21.035-.613-44.211.201-65.077"/><path fill="#8891a4" d="M1337.64 790.088c6.37 1.569 11.78 2.603 17.65 5.581 12.24 17.533 12.52 33.099 41.28 34.373 7.16.317 23.12-3.404 25.89 5.37 5.93 14.571-17.72 22.809-20.92 31.178-5.41 14.181 19.06 27.96 28.03 31.144-1.6 21.262 13.9 31.325 28.81 42.575-43.33 4.53-48.64 27.778-80.96 48.552-5.54 3.173-15.26 7.985-21.48 5.525-9-3.558-1.66-17.516 1.2-23.813 1.72-3.637 5.76-13.026 8.64-15.227l2.3 3.203 1.6-.999c4.97-11.455-6.94-29.287-10.01-45.833 10.85-3.24 20.05-7.532 27.09-16.836 3.2-4.228 8.28-14.963 7.49-20.006l-1.71-.382c-4.09 10.395-12.16 26.067-23.4 30.335-12.2 3.882-39.53 11.613-46.36-4.004-2.33-5.327 6.92-10.742 5.07-16.001-3.38-1.659-6.5-2.214-5.75-6.248 3.1-2.314 5.2-.638 10.88-.49l1.07-1.103c-2.2-4.435-10.82-1.851-13.46-9.644 1.42-3.57.31-2.314 2.89-4.411 3.74.465 6.23 1.27 9.47-.442 2.43-4.917.47-8.761-3.9-11.627l-.89.667c.79 2.438 1.6 3.935.97 6.381-4.72 2.534-13.09-.251-18.76-1.454 5.24-14.256 12.66-25.36 18.59-38.915 3.67-8.389 2.64-18.815 8.68-27.449"/><path fill="#010001" d="M1338.43 820.792c4.33.493 26.73 2.928 15.43 10.631l-1.43 1.012c-11.48 3.083-25.35-.813-14-11.643"/><path fill="#8891a4" d="M1347.41 826.758c.63-.294.69-.445 1.19-.329.34.346.15.106.59.805-1.1.342-1.3.581-1.78-.476"/><path fill="#010001" d="M1408.32 835.489c10.43 5.925.76 15.01-5.81 19.931-7.13-.62-2.57-3.777-2.17-9.437.35-4.849 4.13-7.945 7.98-10.494"/><path fill="#8891a4" d="M1407.5 839.701c3.48 3.299-.9 7.406-3.19 10.461-1.99-3.556 1.08-7.605 3.19-10.461"/><path fill="#010001" d="M1337.2 811.278c6.07-.312 15.76-1.336 21.31 1.671.91.492 1.55 3.38-1.74 2.33-1.92-.184-33.16.896-19.57-4.001"/><path fill="#f9f8f8" d="M1777.1 593.45c18.07-6.512 65.67-24.865 82.61-24.485 32.33 21.44-3.55 20.927 18.47 33.385l-.11 66.662c-34.32-.345-68.27 1.845-53.54 47.336-15.17 20.887-12.95 40.936-21.44 63.197-6.01 15.763-15.29 31.828-21.74 48.27-.32 1.455-.56 3.164-1.71 4.145l-.04.145-.11-.052c-.88-1.587-.45-12.144-.38-14.575-.18-24.599-.8-135.036.86-166.626.01-.335 2.87-2.313 3.52-2.769.94-3.499 1.82-8.569.21-11.93l-3.5-1.812c-1.4-10.754 15.04-11.932 12.67-24.523-2.4-12.714-3.2-13.931-15.77-16.368"/><path fill="#dcdede" d="M1779.11 817.478c.62 4.156.37 6.89 2.24 10.337-.32 1.455-.56 3.164-1.71 4.145l-.04.145-.11-.052c-.88-1.587-.45-12.144-.38-14.575"/><path fill="#8891a4" d="M706.179 791.175c2.848-.397 3.494-.753 6.212.166 2.89 5.839 2.741 18.043 5.651 24.766 6.003 13.871 13.222 26.996 19.557 40.86-3.08.654-9.345 2.108-12.297 2.159-9.513.165-5.451-5.216-8.361-7.692l-2.098.709c-1.984 3.376-1.944 5.721-.169 9.155 3.066 2.299 6.003 1.282 9.974 2.177 2.063 2.949 1.637 1.389 1.632 4.743-1.877 2.651-2.517 2.735-5.402 4.045l-4.884 2.231c.815 3.029.176 1.612 2.605 3.978a98 98 0 0 0 4.889-2.224c2.7 1.865 1.928.64 2.59 3.663-1.901 2.997-3.088 3.329-6.182 5.042l-1.072.582c.993 5.674 7.428 10.44 3.418 17.255-10.889 18.505-49.905 1.489-59.208-11.993-3.733-5.41-4.592-14.631-10.064-17.371l-.371.841c3.487 21.251 16.988 30.427 35.358 38.269-2.87 12.131-13.586 32.728-10.906 43.214 6.739 3.93 3.981-.987 8.914 6.982 3.764 7.872 12.68 23.147 6.806 30.846-21.097 8.962-50.35-29.604-65.714-39.771-10.457-6.919-25.442-10.766-37.424-13.736 19.244-15.552 24.769-16.798 28.83-41.827 20.011-9.402 21.155-10.752 29.287-31.351-6.532-7.388-17.028-10.635-20.553-22.121-1.131-3.685-.233-11.872 1.202-12.508 10.52-2.976 21.364-.944 32.907-3.116 26.464-4.981 21.382-33.35 44.873-37.973"/><path fill="#010001" d="M701.878 822.584c7.829-1.98 20.472 6.447 2.683 10.874l-1.929.525c-2.021-.259-17.613-2.535-10.248-10.468 1.372-1.478 4.352 1.285 7.85-.215zm-64.184 12.359c4.126 1.731 6.17 4.126 9.966 6.933.311 1.845 2.91 13.357 2.856 13.911-9.68-.955-9.475-3.572-13.962-13.503-1.156-2.56-.219-4.987 1.14-7.341"/><path fill="#8891a4" d="M639.494 840.607c4.496 2.419 4.58 4.539 5.631 9.586-3.221-2.823-4.173-5.551-5.631-9.586"/><path fill="#010001" d="M702.311 811.373c9.634.125 20.264 5.874 3.105 3.428-1.865.087-13.506 1.24-13.405 1.308-5.568-3.787 9.286-4.615 10.3-4.736"/><path fill="#646576" d="m631.233 838.135.788-.282c.199.331.118.612.126 1.078l-.922.446-.087-.08c-.042-.469-.042-.136.095-1.162"/><path fill="#cb7931" d="m1074.33 1421.17 26.43-.13c3.31 16.99 6.12 45.47 8.51 63.42l14.52 105.57 34.7 252.42-17.27.44-23.81.14c-2.33-12.22-4.13-25.95-3.4-38.39.64-11.76 3.78-24.45 2.02-36.16-2.06-13.66-10.98-25.75-11.05-39.97-.06-13.81 4.85-26.69 4.08-40.62-.85-15.29-10.17-27.98-11.57-43.11-.98-12.33 4.54-25.45 3.58-38.56-1.13-15.44-10.28-26.65-12.77-41.44-1.97-11.68 2.97-25.68 2.34-37.37-.67-12.36-7.93-24.03-10.08-36.23-2.09-11.84 2.93-26.35 2.27-37.6-.58-9.84-6.37-19.89-8.28-31.03zm-126.056-.06h27.043c-2.86 9.16-10.156 26.22-10.449 34.94-.386 11.47 4.45 24.59 2.032 37.1-2.152 11.14-9.84 22.47-10.098 33.5-.289 12.43 4.284 26.07 2.023 38.86-2.494 14.1-10.775 24.86-11.753 39.7-.905 13.74 5.254 28.16 3.805 41.3-1.518 13.77-10.212 25.38-11.409 40.16-1.244 15.36 5.318 29.21 4.104 43.85-1.21 14.58-11.832 28.17-12.581 43.47-.526 10.73 2.221 20.88 2.814 31.4.632 11.23-1.643 24.23-3.392 35.4-.161.36-1.132 1.42-1.433 1.77-9.013 1.03-29.428.44-39.301.4 5.19-28.5 9.378-67.36 13.512-96.61l32.545-236.13c3.973-28.48 7.3-61.15 12.538-89.11"/><path fill="#cb7931" d="m1056.13 1421.17 14.19-.04c1.85 11.39 7.84 23.15 8.41 33.06.7 12.24-4.32 26.08-1.79 39.47 2.11 11.13 8.85 21.48 9.72 32.34.98 12.08-4.08 26.05-2.38 38.49 2.01 14.67 11.29 25.36 12.81 40.29 1.5 14.7-4.96 27.58-3.34 41.89 1.55 13.7 9.74 26.12 11.1 40.07 1.48 15.3-5.02 28.97-3.78 44.33 1.08 13.43 9.68 25.75 11.16 38.64 1.18 10.21-1.56 24.19-2.17 34.86-.56 9.93.08 15.47 1.22 25.49.52 4.02 1.51 8.96 2.21 13.04l-39.8.04-11.49-274.2c-2.16-48.81-5.37-99.06-6.07-147.77m-77.273.05 13.473.01c-.064 47.77-5.052 102.38-6.852 150.7-3.359 90.15-9.135 180.81-11.041 271-12.737.05-28.125.47-40.623-.23 5.888-28.54 2.692-42.7 1.599-70.59-.425-10.82 11.645-29.04 12.195-41.79.662-15.38-4.699-27.52-4.114-42.62.928-15.11 9.881-25.79 11.567-40.51 1.647-14.37-5.239-28.49-3.894-42.74 1.323-14.03 9.882-25.79 11.77-40.1 1.707-12.95-2.832-25.82-2.168-38.17.548-10.19 7.974-22.43 9.921-33.26 2.277-12.67-2.296-24.82-1.86-36.57.345-9.31 7.179-23.06 9.686-33.65zm-197.523-147.2 486.796-.07c.14 6.07.57 12.49-.31 18.45l-1.66.95-484.973.42z"/><path fill="#8891a4" d="M403.511 990.539c8.747 6.964 14.533 11.291 24.567 16.141l.647 216.69c.072 33.96 1.241 75.99-.147 109.33l-25.232.13c-1.334-37.28-.03-85.38-.009-123.47zm1242.479-2.788c.36.448.72.897 1.07 1.346.86 95.903.13 253.223.77 342.883l-22.9.16-1.1-.4c-.31-.55-.63-1.1-.94-1.65 1-91.55-1-237.93.51-325.58 9.35-4.983 14.85-9.657 22.59-16.759M532.353 613.489c30.797-1.134 66.724-.317 97.807-.293q93.564-.163 187.126.614c1.568 3.417 3.636 7.18 4.064 10.836l-4.317.689c-3.023 4.216 1.312 12.485-2.494 17.872l-4.215.223c-7.05-3.951-.646-11.666-3.667-17.635-3.132-.586-1.826-.963-4.187.364-1.83 4.959.591 9.801-.824 16.128-3.92 2.417-1.96 2.083-5.87 2.013-6.182-6.555 1.518-15.413-5.635-19.816-6.377 3.96.087 12.344-3.551 18.774-2.959 2.024-1.501 1.88-4.366 1.42-7.215-5.579.295-17.223-6.122-20.447l-2.428 1.988c-2.746 6.201 2.928 12.616-2.253 17.275-2.485.242-4.122.68-6.382-.319-2.524-7.059 3.04-14.146-2.996-18.79l-1.748.689c-2.076 5.037.705 21.284-7.671 19.701-4.497-6.653 1.418-17.198-4.551-20.223l-2.183 1.014c-2.435 7.212 2.577 13.971-3.697 18.421-3.823-.066-2.269.593-4.963-1.665-.394-6.518-.574-11.424-2.794-17.592l-2.322.134c-1.59 6.888.97 14.882-4.384 19.841-12.034-.038-.721-15.679-7.737-19.689l-2.083.631c-1.739 2.602-1.08 6.474-.94 9.814-.047 4.306.639 4.817-1.196 8.023-3.166.146-3.537.237-6.777-.312-2.584-4.674 1.287-12.862-1.809-17.745l-2.081-.222c-4.592 4.685-.318 9.997-2.422 16.655-2.907 2.442-1.269 1.627-5.206 2.293-7.751-3.415.446-12.036-4.549-18.931l-3.364.146c-2.906 5.664 3.259 13.015-3.152 18.012-4.23.66-2.73 1.256-5.626-.291-2.036-6.004.418-10.32-.925-17.265-2.715-.881-1.386-.755-4.059-.065-3.96 5.828 3.305 14.772-3.781 18.239-4.533-.523-2.787.397-5.875-1.966-2.455-7.021 3.835-11.517-2.064-17.047l-1.712.093c-2.976 5.738.861 13.271-4.203 18.979l-3.048-.056c-7.029-4.807-.179-11.875-3.632-18.452l-2.435-.328c-5.396 4.639-.247 10.457-2.954 17.148-3.025 2.48-1.346 1.799-5.196 2.17-7.083-3.882.146-12.074-3.924-19.228l-2.364-.196c-4.06 3.614 1.639 14.907-6.708 20.234l-1.251-.544c-5.999-7.136 1.451-16.055-6.44-20.21l-1.444.891c-1.748 5.405.762 10.514-.789 17.505l-1.51.927c-3.794.002-3.475.57-6.323-1.044-2.877-7.31 2.809-11.45-3.26-17.833-5.342.799.535 11.088-6.762 20.202l-2.962-.988c-2.703-5.705-1.719-11.429-2.055-17.708l-1.565-1.296c-8.405.618-.826 13.495-5.139 18.389l-3.278-.005c-7.577-4.831-1.949-13.617-6.317-18.365l-2.246 1.127c-2.807 5.646 2.362 11.144-2.189 16.554-2.598.36-3.571.825-5.879-.284-1.055-3.374-.748-11.59-.763-15.509-1.545-2.408-.465-1.752-3.022-2.423-3.239 4.269-1.194 13.488-5.081 18.229-3.004.616-2.784.601-5.735-.264-2.521-5.61 1.711-14.076-2.348-17.453l-2.776.378c-1.976 3.07-1.224 12.9-1.228 17.414l-18.475-.035c-.105-5.724-.916-23.876.765-28.682zm699.427-.153c94.98.075 194.37-1.621 288.93.711l-.11 29.016-17.57.252c.16-6.331.92-12.759-2.64-18.184l-2.32.507 1.2-1.724c-4.83 7.597 2.15 16.684-6.67 20.042-3.42-1.152-2.2-.097-3.88-3.18.06-4.358 1.06-11.881-.84-15.001l-2.37-1.584c-3.22 6.5.18 14.393-5.9 18.829-3.68.406-2.31.957-4.88-.491-.59-5.179.32-14.291-1.36-17.411-2.74-.626-1.39-.696-4.09.8-1.83 5.876 1.14 11.87-.89 16.915-3.3.948-3.5.746-6.83.473-5.4-7.036 4.24-15.529-4.17-18.604-4.37 2.319-2.74 13.721-2.67 18.834l-8.54-.024c.11-3.639.72-14.699-.13-17.497-2.77-1.371-1.33-1.185-4.48-.352-2.31 4.491 1.53 13.204-1.6 17.384-3.18.356-3.69.62-6.84-.129-3.21-4.986.53-12.874-2-17.741l-2.21-.105c-3.22 3.267-2.32 4.465-2.27 9.97l.09 8.475-8.07-.101c.08-4.921.66-13.664-.74-17.907-3.36-.273-1.94-.714-4.5.956-2.14 7.719 2.95 10.98-2.88 16.517-2.69.754-2.95 1.129-5.61.563-3.14-4.636.77-13.051-1.87-17.843-2.93-.467-1.51-.597-4.38.59-1.83 5.397.97 12.014-1.17 17.051-2.94.628-2.93.429-5.94-.153-5.31-7.338 3.45-14.617-4.05-17.855-7.72 1.691 2.17 11.197-5.3 18.147l-2.97.608c-5.19-3.677-2.68-13.74-6.04-19.109-4.61 1.052-3.03 13.921-2.99 18.444l-8.64.023c.19-5.438.86-12.046-.5-17.139l-1.58-1.233c-7.61 2.682-.68 11.63-3.91 17.785-2.47 1.077-3.37.495-6.06-.128-6.48-5.919-.02-10.866-2.87-17.296-3.4-.395-1.97-.846-4.5 1.12-1.92 7.865 2.92 13.425-2.67 16.878-4.76-.318-2.87.561-6.19-1.919-2.05-6.683 3.15-12.429-1.85-17.108l-1.68.233c-3.2 6.855.73 26.276-10.41 17.258-1.8-6.892 1.84-10.287-.51-16.227-3.23-.848-1.64-.833-4.94.056-1.6 7.137 2.39 13.642-2.64 18.822-3.84-.177-1.95.215-5.74-2.077-2.84-7.674 3.31-14.116-3.04-17.487l-2.57.656c-3.26 5.892 3.63 11.563-3.36 17.384l-4.18.631c-4.49-5.408 2.69-17.137-4.39-18.65-7 4.099 2.7 13.435-4.87 18.743-3.6.242-2.4.58-5.53-.553-2.72-6.505 3-14.423-2.66-18.143l-2.55.362c-3.99 6.827 3.38 13.35-3.87 18.34l-4.03.171c-4.42-4.476.04-13.823-2.68-18.559-3.13-.486-1.73-.78-4.36.743-2.34 6.709 3.33 12.3-2.99 17.5-3.99.336-2.87 1.016-5.36-.535-2.06-6.868.99-12.272-1.41-17.449-2.93-.633-1.55-.8-4.27.579-3.16 6.745 3.26 13.631-3.26 17.769-2.78.043-3.29.373-5.66-.888-2.07-5.394 2.41-13.788-1.89-18.041l-3.84-.934-1.37-.854zM154.671 673.414c8.418-1.095 30.254-.347 39.208-.16-9.588 8.263-28.199 19.239-39.15 26.576-31.992 21.433-65.184 40.952-98.253 60.674a551 551 0 0 1-25.123 14.804c5.73-34.09 14.468-59.319 43.94-80.008 25.955-18.221 49.096-19.652 79.378-21.886m1697.369.003c79.69-4.315 150.76 8.506 163.89 100.519-6.02-1.853-37.28-20.895-44.42-25.347-38.67-24.135-82.56-48.764-119.47-75.172m-638.81-26.767c27.77 1.607 69.84.104 98.88.167l208.83.221c.05 4.25.67 12.673-1.22 15.941-102.37-2.469-207.92-.781-310.58-.953 1.16-5.198 2.65-10.249 4.09-15.376m-396.555-.167 17.468-.487c2.693 6.296 3.436 9.394 5.116 16.003l-185.673.012c-27.379.007-73.525-1.369-99.587.719l-24.836.28-.12-16.395q143.817.94 287.632-.132m755.695 80.973c.74.18 1.84.37 2.38.936 10.95 11.431 22.6 24.274 35.66 33.376 33.37 23.268 69.27 42.276 105.17 61.277-6.85 23.031-14.59 31.809-29.03 50.401-1.53 2.061-1.66 2.055-3.55 3.846-1.23.147-2.26.233-3.45-.206-34.17-11.99 7.7-36.332-.57-55.903-5.32-12.596-16.91-9.136-25.83-4.738-4.41-2.798-10.34-6.857-13.99-10.56-5.8-5.48-14.61-20.733-21.61-23.725-25.88-11.063-52.13-5.748-50.96-44.405.15-4.964 2.14-6.925 5.78-10.299m-1098.846.086c8.168 5.92 6.011 14.461 4.795 23.064-4.103 29.028-33.682 20.125-48.43 31.772-13.36 10.551-20.015 23.086-36.066 34.062-8.425-3.759-17.046-6.462-23.541 2.734-14.368 20.343 34.457 49.536-5.797 58.893-1.095.255-2.956-2.715-3.659-3.588-12.677-19.52-23.347-28.349-28.746-52.238 43.189-21.311 110.765-57.008 141.444-94.699m1373.266-53.56c20.85 15.735 55.35 36.292 77.79 50.331 29.88 18.698 62.11 38.527 93.05 55.152.33 4.733.42 10.315.61 15.117l-13.65-6.343c-27.66-13.44-54.65-29.261-82.27-43.301-31.4-15.955-64.28-31.94-93.83-51.192-2.82-1.835-2.74-2.131-3.11-5.107 3.44-7.939 13.71-11.573 21.41-14.657m-1646.789-.097c7.197 2.092 20.287 7.674 21.607 15.999-3.329 8.399-60.194 35.787-72.725 42.326L46.559 786.181c-5.232 2.551-11.932 6.716-17.08 9.729.116-5.319.627-10.848 1.02-16.171 35.132-18.647 73.888-43.586 107.807-64.748 19.444-12.131 43.486-27.469 61.695-41.106m483.17 72.29c17.798-.988 23.919 4.558 31.637 20.015-13.944 2.566-31.665 6.845-38.254 20.48-12.233 25.315-26.631 26.228-52.579 26.332-21.178 15.87-9.101 41.002-40.106 38.534-5.403-.249-7.634 2.562-12.504 5.295-4.689.389-10.274-1.704-11.239-5.921-7.138-31.183 17.973-18.707 33.454-24.064 6.743-2.333 10.694-14.85 12.137-20.54 15.075-15.664 31.351-2.651 47.493-15.322 18.972-14.893 5.93-31.537 29.961-44.809m718.219 3.062c26.23-2.472 36.05 11.258 47.18 29.176 1.97 3.174 18.65 9 23.85 13.735 8.3 7.55 13.93 20.109 9.46 31.2-.84 1.645-12.28 2.496-15.13 2.563-8.36-1.795-8.55-1.636-16.04-6.262l-.35-.819c-6.97-16.159-4.97-24.833-27.06-24.18-26.23.775-34.88-11.149-40.75-35.135-1.65-6.757 14.81-9.571 18.84-10.278"/><path fill="#8891a4" d="M1355.45 746.215c31 .752 20.23 27.881 38.24 44.483 10.55 12.74 44.15.796 49.58 18.358 6.48 20.969 14.33 22.48 39.05 18.892 15.49 14.444 3.79 38.645-11.32 24.815l-1.26-1.465c-3.35-1.42-11.92-.001-16.26.375-26.41-15.426-.75-37.603-48.37-40.061-38.31-1.977-21.21-39.619-73.21-44.791 6.71-11.566 10.77-16.929 23.55-20.606m-716.554 3.101c8.231-.243 16.216.834 23.601 4.671l3.478 1.834c-12.758 60.04-40.808 24.1-61.867 46.231-.831.873-1.645 1.761-2.482 2.63-1.9 10.208-1.504 12.335-10.481 18.517-4.557 1.54-19.884 5.1-23.48.172-3.626-4.968-.777-16.825 1.583-22.362 5.347-12.545 17.689-15.063 29.056-19.583 13.197-21.085 11.924-28.129 40.592-32.11m-419.74-50.56c5.544 1.684.767 11.91-.847 15.876-7.015 17.235-25.641 10.84-39.705 16.448-16.409 6.543-7.696 23.905-14.42 36.463-6.724 13.21-18.345 16.667-31.08 21.157a72 72 0 0 0-6.34-5.56c-5.46-4.166-12.759-6.406-19.591-5.109a19.7 19.7 0 0 0-12.716 8.6c-5.121 7.8-4.831 13.883-2.88 22.369-8.851 19.601-13.602 28.73-32.937 39.367-12.393 5.061-22.052-2.979-12.18-12.064 4.579-4.215 15.543-8.042 21.575-13.608 18.072-16.676 15.06-49.426 42.163-56.097 9.082-2.127 19.181 2.567 27.861-.423 14.615-5.033 23.223-26.093 29.857-38.872l-.548.194c-.866 1.4 46.614-25.432 51.788-28.741m1606.054-2.176c18.32 11.096 36.67 20.859 54.85 31.707 8.06 14.934 13.67 29.831 28.21 38.599 8.88.756 23.87-1.35 31.69.435 24.61 7.101 23.25 40.115 40.55 56.202 7.4 6.873 23.47 10.245 24.74 19.847-1.16 3.721-1.96 4.056-4.87 6.574-3.26 1.23-4.43.594-7.83-.23-20.99-10.804-26.43-20.365-35.84-41.454.96-10.066 2.98-16.651-5.21-25.101a19.46 19.46 0 0 0-14.33-6.033c-9.21.16-16.15 5.651-22.13 12.04-33.88-9.989-31.67-19.067-35.98-49.32-14.23-19.036-31.85-4.839-47.65-21.162-5.27-5.444-6.64-14.734-6.2-22.104m-197.57-66.734c29.57-11.546 58.41-21.525 88.05-32.425l78.52-29.525 47.4-17.461c12.09-4.508 24.98-9.786 37.53-12.547-8.14 5.527-23.66 11.511-33.24 15.277l2.25 12.762c-26.61 6.749-54.01 19.195-80.5 26.851-10.72 3.101-25.88-2.394-37.2 3.122-19.89 6.283-15.14 12.84-21.58 16.14-7.6 3.893-62.57 20.321-68.55 19.737-2.64.221-14.43 1.34-17.65.667l-.06-.382c.17-.759 2.44-1.364 2.75-1.463z"/><path fill="#727b90" d="M1640.32 631.777c-2.64.221-14.43 1.34-17.65.667l-.06-.382c.17-.759 2.44-1.364 2.75-1.463l2.28-.753c4.85 1.489 7.82.908 12.68 1.931"/><path fill="#8891a4" d="M130.718 601.909c11.746.011 23.06-.126 34.833.178.164 17.264 1.162 50.765-.001 66.85-11.55.582-23.258 1.723-34.887 2.494q-.294-34.762.055-69.522m1752.702-.45c10.89-.081 21.77-.091 32.65-.03.26 10.688 1.57 62.828-.19 69.812-11.87-1.03-22.4-1.458-34.26-1.995l-.02-45.795c.01-4.007-1.03-19.868 1.82-21.992"/><path fill="#593f30" d="m956.892 1362.05 149.268-.1c-.17 7.86.21 19.31-.33 26.57-.01 2.72.44 9.22-.27 11.83-.03.4-1.16 1.22-1.48 1.06-.73-.36-6.34.97-6.39.02-.71-12.54-.45-25.75-.51-38.39-1.88.43-4.8.61-5.22 1.95-3.4 10.81.42 26.23-1.37 37.43-1.71-.11-6.58.28-7.99-.86-.9-.72-.3-35.14-.34-37.95-2.56.33-4.73-.11-7.29-.44-3.88-.5-5.37-.62-9.04.43-2.46.14-4.1-.07-6.55-.25-3.02-.81-5.88-1.18-8.59.53-1.55.15-4.46.03-4.81 1.06-3.43 10.08.34 27.08-1.44 37.59-3.38-.06-6.32-.07-9.72.01-.03-12.63.33-26.29-.13-38.82-2.74.31-3.78-.19-6.56-.74-2.98-.59-5.82-.45-8.83-.15-2.78.84-3.56.51-6.45.2l.1 39.56-6.17.39c-10.018-5.85 1.17-27.93-4.71-37.89-.72-1.21-3.235-1.14-5.037-1.41-2.665-1.27-5.97-.74-9.035-.62-1.847.43-4.599.58-5.004 1.9-2.743 8.97-.292 21.74-1.209 31.56.199 7.7-1.111 5.46-9.078 5.89-2.449-7.24 2.155-29.27-1.641-37.27-.573-1.2-3.107-1.01-4.906-1.2.002 12.45.17 25.48-.367 37.73-.034.79-5.429.48-5.775.51-6.461.57-.983-16.3-2.853-21.15-.224-6.52-.356-12.46-.273-18.98"/><path fill="#cb7931" d="M1034.69 1363.72c2.03-1.08 7.44-1.62 9.18-.43.23.49.12 34.2.67 39.24-3.38-.06-6.32-.07-9.72.01-.03-12.63.33-26.29-.13-38.82m-77.525 17.31c1.019-7.68-3.361-23.64 8.995-17.09.002 12.45.17 25.48-.367 37.73-.034.79-5.429.48-5.775.51-6.461.57-.983-16.3-2.853-21.15m55.785 21.56c-12.17-1.7-8.23 1.47-8.85-14.62-.09-2.28-.09-24.57-.03-24.68 1.81-1.15 6.62-.68 8.78-.26zm-40.243-.18c.396-3.77.391-39.11.354-39.05 1.245-.58 6.577-.55 7.75.02.125.18.514 29.56.974 33.14.199 7.7-1.111 5.46-9.078 5.89m124.473-39.37c1.73-.11 5.67-.59 7.28.25.41.21.49 1.15.5 1.58.2 8.03-.15 15.63.87 23.65-.01 2.72.44 9.22-.27 11.83-.03.4-1.16 1.22-1.48 1.06-.73-.36-6.34.97-6.39.02-.71-12.54-.45-25.75-.51-38.39m-14.92.57c6.56-1.87 7.57-1.84 7.72 3.38.32 11.36-.71 24.31.61 35.43-1.71-.11-6.58.28-7.99-.86-.9-.72-.3-35.14-.34-37.95"/><path fill="#8891a4" d="m713.045 770.196 1.992.135c5.309 5.483 1.026 11.107-2.746 16.228-37.856 5.328-18.169 21.638-46.82 37.523-12.835 7.116-29.546-1.485-38.808 3.676-4.423 5.518-3.48 11.987-3.495 19.18-8.965 16.046-23.579 23.742-41.819 22.855-3.763-2.092-5.033-4.211-6.069-8.262 3.019-11.939 18.326-1.302 27.372-9.499 15.55-14.089 5.632-20.855 22.485-35.348 28.847-2.278 41.582-.58 55.573-30.538 4.541-9.723 22.392-13.725 32.335-15.95m618.315-.097c27.72 3.429 28.81 8.855 44.08 29.862 11.5 15.815 30.73 15.74 48.2 17.663 3.55 2.543 5.35 4.345 8.54 7.397 4.05 15.363 6.19 22.36 20.12 30.984 10.25-.929 27.38-2.315 16.8 14.035-15.98.143-39.27-7.022-41.13-23.248-3.72-32.233-16.04-18.25-39.14-21.28-19.08-2.504-21.07-19.307-31.25-33.437-12.53-5.147-30.87-3.105-26.22-21.976m-916.809-31.706c7.378-.567 16.127-.229 23.691-.329-11.918 8.09-22.026 16.644-34.69 24.996-14.25 9.397-29.937 16.803-43.393 25.58a1104 1104 0 0 0-16.708 9.817c6.811-30.752 17.57-46.875 49.51-56.958 7.623-2.407 13.764-2.529 21.59-3.106m1207.069.01c27.85-4.516 73.43 17.087 79.13 47.14 1.25 6.553 5.94 13.781-2.21 9.468-27.09-15.863-53.52-29.301-78.5-49.18-1.7-1.351-7.45-4.801-7.95-6.306l.15-.234c1.31-.497 7.53-.755 9.38-.888m-1461.966-7.401.614.577c-.386 4.977-10.188 20.36-14.591 24.88-10.995 13.315-22.01 4.249-32.61 5.558-42.861 5.293-25.63 68.264-74.501 69.546-2.616-4.713-1.858-9.767-1.777-15.278 23.048-8.369 28.021-18.874 37.876-39.547 9.06-5.854 21.286-11.861 30.98-17.03zm39.668-177.972c-6.104-2.457-20.991-8.194-25.725-12.414 7.295-1.123 142.401 50.466 161.292 58.13l.052 2.728c-8.142-1.11-18.276-4.736-25.464-8.71-36.014 4.392-73.799-16.755-110.12-27.192zM1885.45 730.618c20.83 7.97 66.62 34.729 87.49 45.746 5.16 11.376 10.64 26.453 22.34 32.692 6.74 3.597 9.32 3.408 14.85 9.502 1.22 3.984.16 6.943-.66 11.109-14.23 6.899-30.92-12.502-36.4-23.905-5.75-11.97-8.91-22.439-17.54-32.981-11.89-14.508-29.51-8.922-46.58-9.885-10.9-7.095-17.2-20.901-23.5-32.278"/><path fill="#8891a4" d="m455.622 726.936 14.025-.271c-24.752 32.302-93.369 68.445-129.023 87.6-2.881 1.59-7.171 4.593-10.143 4.207l-1.059-2.928c1.288-8.666 14.663-12.775 21.559-16.635 38.682-21.652 71.75-42.058 104.641-71.973m72.233-122.781c24.506.884 51.08.401 75.735.457l145.958.034c17.466-.012 45.715-.478 63.887.589 1.09.064 2.377 3.554 3.108 5.036l-285.692-.059c-2.624-1.855-1.91-2.063-2.996-6.057M1578.79 726.291l12.57-.09c22.69 24.851 65.28 49.299 94.52 66.438 10 5.859 21.14 10.089 30.7 17.024 1.58 3.742.78 4.148.29 8.846-3.55-.106-18.12-8.461-22.15-10.743-38.1-21.572-89.18-46.701-115.93-81.475M1232.9 604.835c22.94-.587 285.26-.298 287.71 1.331l.57 4.764a9218 9218 0 0 0-214.25-.903c-9.29.006-70.58.692-73.63-1.032z"/><path fill="#cb7931" d="M950.023 1406.97c30.899-.46 62.747.27 93.767-.03 10.13-.1 47.55-.57 54.49 1.12 2.26 2.69 1.87 5.29 2.05 8.93l-103.866.01c-9.425.01-39.514.73-46.855-.4-1.155-3.13-.168-6.2.414-9.63"/><path fill="#8891a4" d="M1595.82 726.056c61.06 1.511 114.69 8.378 122.09 79.475-2.97-1.196-7.38-3.921-10.27-5.584-2.92-18.322-8.27-34.177-23.48-45.849-26.07-19.997-46.55-20.911-77.28-17.965-4.84-3.666-6.92-5.82-11.06-10.077m-1144.696.855c-2.703 2.452-5.626 4.845-8.421 7.208-44.901.098-88.766 3.3-101.358 55.128-.669 3.709-1.048 7.361-1.485 11.098l-10.384 6.363c.792-18.574 4.496-34.086 16.621-48.781 20.778-25.183 49.208-27.725 79.502-30.52 7.721-.523 17.64-.386 25.525-.496m1169.956-45.043c8.38.172 16.15.068 24.55.652l-.24 44.003c-3.52-.05-20.39-2.112-24.41-2.677zm-1217.257.554 24.002.234c.068 6.054 1.883 40.36-1.77 41.347-7.964.733-14.917 1.364-22.877 2.349.236-12.731-.255-31.859.645-43.93M102.239 826.751c2.21 3.012 4.723 9.304 6.371 12.923-2.812 15.357-6.737 27.336-20.275 36.687-7.745 5.35-9.883 7.761-19.493 7.499-6.09-4.827-5.485-5.404-7.268-13.157 25.547-8.171 31.736-19.952 40.665-43.952m1843.301 2.208c1.92 2.142 3.73 7.749 5.21 11.028 4.75 11.295 15.96 25.279 28.38 28.641 8.29 2.246 6.46 9.022 1.08 14.405l-1.18 1.223c-23.88-2.009-34.74-24.336-39.82-44.747 2.94-4.398 3.93-5.803 6.33-10.55"/><path fill="#8891a4" d="M1953.76 812.627c1.43 1.303 1.61 1.473 2.4 3.334 6.98 17.185 18.06 29.94 35.17 37.558 4.71 2.092 1.76 9.313-.45 12.391-25.61.273-35.05-21.687-42.42-42.543 1.85-3.619 3.58-7.045 5.3-10.74M334.889 598.746l2.265.621c11.334 4.34 79.347 29.635 85.757 29.464.722.431 2.529 1.244 2.72 2.227a.5.5 0 0 1-.165.483c-.945.812-7.835.602-9.542.676-4.842.097-9.794.512-14.304-1.474-6.015-2.511-12.726-3.238-19.277-5.224-14.834-4.499-29.324-9.86-44.356-13.55-.585-.143-.871-1.387-1.006-1.812-.648-3.378-.309-7.059-2.04-8.683z"/><path fill="#8891a4" d="M422.911 628.831c.722.431 2.529 1.244 2.72 2.227a.5.5 0 0 1-.165.483c-.945.812-7.835.602-9.542.676 2.889-.804 4.29-2.076 6.987-3.386"/><path fill="#646576" d="m334.889 598.746 2.265.621c-.024 4.191.138 6.542-.173 10.79-.648-3.378-.309-7.059-2.04-8.683z"/><path fill="#8891a4" d="M93.216 813.864c1.956 1.876 4.817 5.93 6.663 8.261-7.963 22.076-15.16 39.75-40.606 44.771-4.18-2.515-6.503-6.271-5.831-11.931.169-1.424 5.048-2.6 6.5-3.222 16.719-7.158 27.067-21.261 33.274-37.879m-65.69-417.765c5.101 2.015 11.175 4.551 16.248 6.713a3817 3817 0 0 0-.477 49.948c-5.69-2.53-9.831-4.041-15.546-6.078-.288-16.12-.618-34.571-.225-50.583m1989.374.963c1.83 2.227.91 43.98.88 50.025-4.67 1.596-9.34 3.551-13.97 5.329-2.24-1.181-1.14-44.213-1.13-48.661 4.74-2.259 9.5-4.374 14.22-6.693m17.35-8.208c2.81 1.047 1.84 44.914 1.93 51.135-4.54 1.649-8.69 3.332-13.16 5.044-3.18-1.856-1.66-43.499-1.47-49.809 4.31-1.978 8.54-4.103 12.7-6.37M9.22 388.35c4.42 1.829 9.977 4.527 14.464 6.573.396 16.428.266 34.237.188 50.718-5.498-2.288-8.815-3.808-14.598-5.724a5031 5031 0 0 1-.054-51.567m1989.52 16.702c.7 3.824.25 42.502.31 49.272-5.25 1.935-10.38 4.149-15.59 6.205-.59-10.662.47-36.42.38-48.725a241 241 0 0 0 14.9-6.752M65.925 412.477c5.052 2.317 9.699 4.577 14.933 6.503v47.972c-5.298-2.165-9.929-4.112-15.323-6.193q.056-24.142.39-48.282m-18.772-8.246c5.071 2.218 9.711 4.653 14.914 6.682l-.256 48.56c-5.16-2.181-9.568-3.799-14.776-5.719a4055 4055 0 0 1 .118-49.523M1924.8 559.476c9.37-.086 9.14 1.758 7.03 10.384-.38 1.574-54.56 1.37-59.59 1.833-3.19-.062-6.83-3.117-9.71-5.023 2.23-.83 16.87-6.811 17.45-6.817 14.6-.172 30.24.121 44.82-.377M106.035 1513.14c21.529 4.28 44.166 3.93 65.357 8.82.976.22.551 10.28.544 11.3a8200 8200 0 0 1-51.947-8.13c-14.402-2.3-14.502 1.68-13.954-11.99M1978.24 413.868c3.83 1.242 1.35 42.106.68 48.4-4.49 1.354-7.81 2.812-12.06 4.733-2.47-2.13-1.52-40.208-1.69-47.015a216 216 0 0 0 13.07-6.118M115.47 559.673c16.894-.268 37.249.498 54.312.668.474.005 11.657 5.231 12.35 6.59-.181 1.207-2.222 3.666-2.943 4.657-1.526.927-1.409 1.037-3.706.642-18.952-3.266-40.508.863-59.2-2.79-1.631-.319-.923-8.164-.813-9.767m1822.78 953.747c2.26 1.59 2.93 10.13-.72 10.57-20.24 2.43-40.62 6.47-60.87 8.49-.98-.04-1.91-.35-1.82-1.46.75-10.16-1.62-9.52 8.15-10.45 18.46-1.78 36.9-4.7 55.26-7.15M1960 421.921c3.07 2.175 1.79 41.353 1.81 47.232-4.41 1.51-8.54 3.185-12.87 4.855-3.39-1.409-1.86-40.506-1.86-46.091 4.08-1.718 8.93-4.011 12.92-5.996"/><path fill="#727b90" d="M1223.14 204.935c16.1 16.619 25.68 22.737 46.58 31.631 1.28.3 3.91.738 4.81 1.886-.68 1.021-9.53.492-11.13.456-11.35.566-27 .073-38.68.074-.01-12.248-.3-21.754-1.58-34.047"/><path fill="#646576" d="M1269.72 236.566c1.28.3 3.91.738 4.81 1.886-.68 1.021-9.53.492-11.13.456 2.22-.766 4.15-1.449 6.32-2.342"/><path fill="#8891a4" d="M156.815 452.291c5.288 2.685 10.699 5.025 16.156 7.332l-.758 42.186c-2.968.082-12.106-3.82-15.582-4.964zm-54.669-23.759q3.51 1.398 6.948 2.967a149 149 0 0 0 7.844 3.397l.042 46.484c-4.228-1.95-10.688-4.681-15.051-6.273q.32-23.287.217-46.575m18.773 7.666 14.279 6.588q.23 22.939.228 45.879c-4.742-2.278-9.646-4.073-14.573-5.893q-.111-23.287.066-46.574m1821.191-6.238c2.42 2.023 1.39 39.832 1.65 46.239a207 207 0 0 0-12.35 4.808c-.46-.055-1.64-.139-1.68-.518-.9-9.69-.59-35.991-.6-44.498 4.22-1.879 8.87-3.975 12.98-6.031m-54.48 24.024c.83.02 1.45-.1 2.08.258.61.976.37 38.574.34 42.671l-13.32 5.138c-3.4-.843-1.84-36.717-1.9-42.111 4.2-1.809 8.65-3.98 12.8-5.956M84.515 420.769c4.748 1.965 9.203 4.235 13.9 6.217.075 6.665.369 41.54-.657 46.581a791 791 0 0 1-13.447-5.342q.369-23.726.204-47.456m1839.565 17.224c2.27 2.043 1.63 39.599 1.65 45.101-4.37 1.529-8.7 3.147-13 4.854-2.87-.94-1.68-38.749-1.69-44.107 4.1-1.677 9.04-3.927 13.04-5.848M176.864 461.164l15.16 6.721a653 653 0 0 0-.629 41.943c-5.007-2.178-10.079-4.083-15.261-5.8zm1693.066.804c2.49 2.096 1.23 36.649 1.2 42.142-4.21 1.469-10 3.721-14.03 5.553-1.61-1.81-.88-35.48-.9-41.227 4.57-2.216 9.15-4.148 13.73-6.468M123.258 1492.81c14.857 1.46 28.82 5.5 44.267.44 5.764-1.89 14.003 6.23 6.267 9.88-18.351 4.12-27.315 5.67-46.308 1.99-2.183-.42-4.466-.26-6.734-1.88a4.32 4.32 0 0 1-1.776-3.23c-.169-3.02 2.418-5.21 4.284-7.2"/><path fill="#727b90" d="M779.062 236.732c20.992-6.704 30.675-14.43 45.771-30.063-1.064 11.339-1.484 20.138-1.533 31.455-7.185 1.32-43.375.925-52.518.849 3.167-.966 4.952-1.748 8.28-2.241"/><path fill="#646576" d="M779.062 236.732c4.371 2.789 35.556.326 44.238 1.392-7.185 1.32-43.375.925-52.518.849 3.167-.966 4.952-1.748 8.28-2.241"/><path fill="#8891a4" d="M1471.06 1326.05c21.13.36 42.37.4 63.49-.11.53-.01 2.09.02 2.39.58 1.04 2 .43 6.79.08 8.81-20.81-.24-41.76.38-62.58.28-.98-.01-2.17.07-2.79-.77-1.13-1.54-.6-6.92-.59-8.79m402.18 166.47c10.21 1.48 25.81 6.23 35.77 2.63 6.68-2.41 24.26-3.01 15.78 8.37-14.79 5.73-38.66 4.67-53.24-1.61-4.61-1.99.28-7.61 1.69-9.39m32.58-1046.567c2.73 2.063 1.61 38.384 1.6 44.071-4.51 1.519-8.7 3.391-13.15 5.015-1.08-3.327-.8-37.7-.67-43.247 4.05-2.004 8.16-3.822 12.22-5.839m-1766.694-1.72c4.209 1.929 9.474 4.518 13.697 6.604-.01 14.546-.436 29.13-.548 43.706-2.576-.004-9.603-3.315-13.172-4.461zm369.316 881.837c7.246-.05 66.443-.36 66.972.41 1.365 1.98.639 6.39.3 8.6l-67.269-.06c.011-3.08.066-5.83-.003-8.95M1978.66 779.335c7.81 3.066 28.86 14.548 39.34 19.27-.3 5.948-.57 7.466-1.79 13.204-3.56 2.28-6.06 1.137-9.81-.473-13.09-5.616-21.65-14.897-26.47-28.337zM195.472 469.249a346 346 0 0 0 13.615 6.329l.095 41.141a177 177 0 0 0-14.078-5.696c-.05-13.534-.182-28.289.368-41.774M1879.7 544.328c14.66.951 33.4-1.293 47.41 1.105 1.25.214.71 9.317.7 10.367-4.9 1.4-26.22.343-32.81.414-16.68.179-14.96 2.463-15.3-11.886M1423.55 848.76c1.84 2.451 1.98 4.129 3.72 6.62 5.33 8.053 15.51 15.144 25.28 16.528 7.66 1.086 4.11 7.155-.66 10.001-18.81.055-27.12-4.717-35.66-22.457 2.76-3.79 4.87-6.618 7.32-10.692m410.39-370.848c2.89 1.458 1.54 35.508 1.6 40.363-4 1.331-7.37 2.758-11.25 4.319.01-.002-1.87.483-1.91-.017-.86-12.723-.5-26.001-.7-38.841 4.07-1.987 8.18-3.812 12.26-5.824m17.74-7.843c1.87 2.747.5 35.825.38 41.347l-1.1.403a247 247 0 0 0-10.53 4.271c-2.34-2.547-1.2-33.793-1.2-40.199 4.18-2.021 8.26-3.867 12.45-5.822m-1638.642 7.093c4.344 1.933 8.952 4.246 13.334 5.916.253 13.032.124 26.676.171 39.776-3.143-.428-9.8-3.511-13.495-4.718zM68.321 779.101c.55 2.889-1.375 5.229-2.624 7.798-6.279 12.912-18.77 24.839-33.757 25.258-5.074-12.926-1.534-12.435 8.459-18.397 9.123-5.443 18.847-9.452 27.922-14.659m54.043-235.053c17.1-.362 26.17 1.414 45.475.166-.544 4.277-.871 7.798-1.703 12.064-14.568.646-29.096.161-43.652-.302-3.323-.105-.552-10.227-.12-11.928m511.879 317.388c4.1 1.788 5.338 3.412 8.669 6.44-5.994 17.092-11.188 23.866-30.458 27.756-1.551-.837-10.134-5.289-8.072-9.511.592-1.211 7.028-2.074 9.192-2.817 11.394-3.908 15.586-11.741 20.669-21.868M123.914 574.318c16.1-.121 33.648.578 49.933.753a317 317 0 0 1-5.617 9.463c-2.408 4.449-33.099 2.134-39.506 1.761l-.219-.656c-1.533-4.751-2.649-6.9-4.591-11.321"/><path fill="#8891a4" d="M1412.19 861.908c2.28 1.042 2.29 4.254 4.35 6.833 5.01 6.621 14.08 15.511 23 16.165 8.23.602 2.97 5.245-1.15 9.114-19.92.774-27.32-9.416-34.47-26.234 3.14-2.405 4.95-3.704 8.27-5.878m462.76-286.813c15.96-.418 31.94-.538 47.91-.359-1.41 3.103-2.89 5.921-4.4 8.963-.84 2.602-1.18 3.114-3.94 3.045-11.48-.289-22.99.137-34.47.205-1.83-5.021-2.49-7.113-5.1-11.854M624.962 850.742c2.243 1.721 4.748 6.404 6.256 9.018-9.137 17.562-14.02 20.649-33.389 22.055-7.857-2.172-11.003-8.491-.373-10.019 11.253-1.618 21.799-10.998 27.506-21.054M1794.9 1428.48c2.78 1.31 1.38 7.85 1 7.93-17.8 3.6-36.83 5.36-54.73 8.81-3.43-3.45-2.7-9.32 3.81-10.14 16.63-2.1 33.29-4.52 49.92-6.6m-1541.644.26c16.445 3.47 33.337 2.73 49.773 6.06 5.109 1.04 6.953.79 6.658 6.22l-.199 3.73c-10.666.79-33.842-5.86-45.975-6.06-10.331-.17-9.62-1.8-10.257-9.95m1486.544-20.22c6.82.39 10.64 2.7 18.69 2.5 4.82 1.05 16.51-2.73 20.53-2.07 3.96.64 8.02 6.51 1.65 9.93-11.75 2.55-23.79 3.62-35.68 1.33-12.53-2.4-13.53-3.06-5.19-11.69m17.87-787.104c5.24-.684 18.09-.484 23.75-.516l-.62 1.328c-6.08 12.846-.72 12.745-13.55 12.77l-23.07.188c-1.66-4.407-2.34-6.37-4.44-10.437l-.74-1.461c6.86-.893 11.79-1.277 18.67-1.872M230.16 484.797c4.151 1.805 8.062 3.646 12.271 5.374q.119 19.853-.084 39.704c-3.525-1.587-8.294-3.6-11.942-4.982-.239-13.256-.078-26.758-.245-40.096m35.714 136.165c5.142.037 42.619-.241 43.909 3.638-.546 1.596-2.372 1.85-3.193 4.79-.285.622-1.749 4.614-2.172 4.739-4.251 1.257-27.426.735-30.813.762-3.663-8.687-.768-6.036-7.731-13.929M1666.87 1355.36c1.66 1.72 1.95 6.76 1.14 8.13-.82 1.37-13.8 3.1-15.52 3.35l-6.5.99c-9.28 1.38-18.37 2.71-27.67 3.95-2.63-2.49-.32-8.8.22-8.92 12.73-2.91 35.88-5.93 48.33-7.5m-1398.04 53.88c11.725 1.5 27.316 2.39 39.159-.19.819-.18 10.217 4.32 2.195 9.76-6.773 1.82-62.478 6.13-41.354-9.57m1532.92-917.092c1.92 2.01 1.17 33.735 1.19 38.807l-10.76 4.001c-2.44-1.808-1.55-32.24-1.63-38.09 3.68-1.542 7.57-3.133 11.2-4.718m-17.23 117.312c7.57.167 6.71 8.237 1 8.2-15.19-.096-35.59-.784-50.34 2.177-2.25-.966-4.2-2.493-6.08-4.034l-1.54-1.234c1.97-.773 9.65-4.193 11.45-4.234 15.11-.341 30.39-.424 45.51-.875m248.95-115.653c4.11.375 2.41 9.515 2.51 13.473-12.05 3.163-21.34 7.857-34.09 10.275-13.43-12.154 21.15-18.927 31.58-23.748M257.993 610.141c10.623-.127 56.098-.856 62.961 4.485-.363 1.136-3.403 2.142-4.526 2.736-2.156 2.556-2.509 4.395-5.824 3.444-16.275-4.667-34.818-1.819-51.429-4.324-1.437-.217-1.162-5.83-1.182-6.341m-11.269-117.969c3.906 1.751 7.271 3.323 11.292 4.875.01 11.526.404 27.996-.215 39.073-3.867-1.784-7.509-3.235-11.457-4.803.045-9.331-.355-30.836.38-39.145m1568.826-6.403c.39.012 1.84.009 1.88.263.93 6.476.6 33.888.66 39.082-2.66 1.184-6.07 2.226-8.86 3.191.02-.013-1.94.899-1.99.334-1.04-11.991-.55-26.031-.42-38.171 2.82-1.711 5.81-3.118 8.73-4.699M381.768 1355.72c14.607 2.36 34.053 3.91 48.808 6.84.279.06.213.99.057 1.23-1.534 2.33.004 5.53.775 7.81-4.447 1.26-29.708-4.58-36.418-5.46-13.762-1.81-12.82.36-13.222-10.42M16.077 493.692c7.79 3.802 17.081 6.84 25.112 10.573 10.215 4.749 10.808.899 7.197 13.459-6.349.382-25.474-7.513-33.554-10.094.46-4.764.918-9.135 1.245-13.938M1999 1616.08c5.88 2.5 22.68 11.38 28.29 14.8-.09 5.74-.13 11.48-.11 17.22-9.81-6.13-18.25-12.54-28.23-18.62-.04-4.47-.03-8.93.05-13.4M1755.06 512.06c1.33 1.183 1.31 2.097 1.36 3.897l.77 32.995c-3.81 1.392-6.77 2.417-10.57 4.018-2.7-1.015-1.59-31.33-1.61-36.233 3.35-1.603 6.72-3.036 10.05-4.677m15.86-6.998c1.67 2.203 1.27 33.015 1.39 38.049l-.66.224c-3.52 1.161-6.81 2.476-10.3 3.65-.85-4.716-1.04-30.09-1.24-36.818zM176.697 1505.07c1.122-.08 10.862 2.68 12.728 3.11-5.355 3.33-10.518 6.97-15.879 10.23-16.249-2.82-32.075-4.15-48.305-6.25-2.728-.2-10.245-.99-12.796-1.5-4.21-1.41 2.53-5.67 5.921-4.39 18.666 7.02 40.683 5.14 58.331-1.2m85.281-1006.345c3.73 1.835 7.779 3.802 11.602 5.411-.134 12.312-.422 24.918-.088 37.21-1.982.465-9.331-3.053-11.487-3.906zM1480.11 1314.38c15.09 1.12 34.6.54 49.77.13 4.81 5.58 7.52 7.41-.63 7.64-17.95.43-36.43.81-54.3-.11-2.78-.15 5.05-7.55 5.16-7.66M275.625 596.327c2.114-.866 24.561 3.028 28.957.978 3.189-1.487 2.898 8.834 1.674 9.296-3.029 1.143-8.978.316-12.528.24-4.813-.244-27.792-.057-33.353-.977-.312-.394-.203-1.396-.038-1.772.762-1.726.057-4.885 2.643-5.26 4.27-.62 8.463-1.396 12.645-2.505M46.37 1615.8c3.437 1.06 1.856 11.21 1.777 14.71-8.072 5.75-15.654 10.78-23.736 16.75-3.584-2.49-1.853-12.26-1.58-16.63 7.954-4.89 15.461-10.14 23.539-14.83M1784.92 498.902c3.52 1.105 2.07 32.472 2.09 38.127-2.93 1.278-6.3 2.376-9.37 3.615-2.76-.6-2.06-32.397-2.12-37.254 3.14-1.549 6.23-2.892 9.4-4.488M519.384 1314.02c13.069 2.34 36.932-.86 49.396 2.12.828.75 3.025 3.98 2.991 4.88-.072 1.96-4.755 1.26-6.521 1.25-18.418.38-36.253.19-54.65.09 3.492-3.92 4.327-5.58 8.784-8.34M1869.21 1505.4c1.39.06 2.06.22 3.26.72 16.85 7.02 39.52 7.31 55.97-.76.45-.22 9.35 5.53 3.08 5.68-2.02.05-4.41.69-6.61.85-9.84 1.54-30.96 4.03-41.41 5.04l-11.06 1.09-1.89-1.15c-2.54-1.51-10.94-6.51-13.25-8.98-.08-.08-.1-.39.08-.49 2.56-1.43 9.23-1.72 11.83-2M277.578 506.108c3.812 1.48 7.407 3.183 11.124 4.873.161 8.423.485 28.947-.182 36.93-3.691-1.59-7.376-3.071-11.053-4.693q-.1-18.556.111-37.11m246.395 181.014a301 301 0 0 1 36.593.856c-2.661 6.357-2.042 3.828-3.648 10.736-1.7 2.587-25.031 1.248-29.556 1.231-1.287-6.494-.379-6.03-3.389-12.823M292.682 512.35c3.778 2.086 7.293 3.468 11.205 5.279q.102 18.081.011 36.164a137 137 0 0 0-11.418-4.605c-.262-12.049.08-24.731.202-36.838M1498.19 687.374c9.34-.24 18.67-.276 28.01-.107-1.79 3.601-4.11 12.116-7.08 12.807-8.46.013-17.6.271-25.96.073-3.45-11.65-7.12-11.329 5.03-12.773m145.99 661.206c2.43-.23 14.35-1.32 15.35-.84 11.21 5.45-.76 5.08-3.52 5.54-11.47 1.91-22.52 2.91-33.77 4.36-9.46 1.2-13.05-2.19-20.98-8.19 14.47-.9 29 .34 42.92-.87M307.672 519.054c3.982 2.005 7.265 3.478 11.271 5.299-.138 11.311-.139 22.881-.38 34.148-3.4-.252-7.453-2.29-11.005-3.397q-.086-18.025.114-36.05M1743 596.777c12.5.55 30.93-.979 42.78 2.37 1.36.385 1.24 6.068 1.28 6.948-3.93.001-43.14.64-43.49.203-1.39-1.696-.59-7.485-.57-9.521M390.393 1347.9c19.054 1.53 38.067.44 56.269 2.42l-.618.45c-2.398 1.8-4.663 3.3-7.107 5-9.837 4.81-21.913.08-32.942-.68-3.836-.27-17.425-1.61-20.476-2.58-.064-.17-.128-.34-.192-.52.406-1.43 3.771-3.19 5.066-4.09m1228.117-11.84c10.95-.19 22.5-.09 33.39.22 1.08.03 8.68 7.42 1.34 8.62-6.37.09-55.28 5.88-34.73-8.84m-1217.087.46c8.144-.15 33.714-4.38 35.544 4.96.891 4.55-6.016 3.83-8.216 3.86-10.085.55-23.164.68-33.114-.78-2.491-.37-1.195-7.74 5.786-8.04m112.716-659.598c7.676.142 52.246-.061 55.993 1.803.579.288 1.184.74 1.313 1.416.156.815-.487 1.308-.956 1.904-2.405 1.555-4.245 3.845-7.465 3.267-11.854-2.229-24.549-.974-36.525-1.367-9.214-.302-10.278 2.855-11.987-5.282zM1739.69 519.026c2.4 2.146 1.4 30.839 1.41 35.713-2.73 1.179-5.94 2.25-8.77 3.216-2.45-2.016-1.55-29.941-1.62-34.551 2.86-1.55 6.03-2.952 8.98-4.378m147.62 71.492c9.52-.134 25.48-.994 35.1.657.53.199.89.838.93 1.327.56 7.113-8.34 5.511-13.09 5.505-4.43-.015-32.2.867-34.26-1.067-8.1-7.586 8.2-6.379 11.32-6.422m-1763.915-.308c15.858.158 32.292.603 48.165.879 3.204.056.834 4.808.308 6.244-6.185 1.351-37.541 1.127-45.79.181-1.484-.171-2.422-5.509-2.683-7.304M1528.3 677.488c9.66-.259 6.26 7.492 2.75 7.349-10.87-.445-34.88-2.53-44.58 1.605-2.62-.525-4.1-2.711-6.49-4.581l-2.45-1.893c17.49-3.395 32.84-2.027 50.77-2.48"/><path fill="#cb7931" d="M1065.93 1363.6c3.67-1.05 5.16-.93 9.04-.43.05 6.16.67 31.51-.51 38.81-.1.63-7.8.75-7.87-.03-1.21-12.4-.26-25.66-.66-38.35"/><path fill="#8891a4" d="M378.124 550.283c2.911 1.181 5.451 2.533 8.291 3.802a153 153 0 0 1 2.921 1.315q-.324 16.146-.282 32.295a262 262 0 0 0-10.722-4.483c.048-11.024-.173-21.924-.208-32.929"/><path fill="#cb7931" d="M987.998 1363.06c3.065-.12 6.37-.65 9.035.62-.073 10.06.245 27.13-.282 37.72-.02.4-1.11.76-1.236.79-.878.22-6.81.26-6.921-.41-1.051-6.37-.598-33.94-.596-38.72"/><path fill="#8891a4" d="M1724.48 525.794c.46.029 2.15.034 2.18.557.44 9.052.47 24.78.06 33.326-.05 1.222-6.39 3.524-7.39 3.946-5.23.299-1.11-29.466-2.06-34.013-.18-.84 6.26-3.367 7.21-3.816m-40.85 18.279c2.07 2.002 1.26 28.444 1.31 33.187-3.21 1.179-6.34 2.518-9.57 3.643-.9-1.387-.91-1.491-.94-3.319l-.35-29.007c3.21-1.662 6.29-2.977 9.55-4.504"/><path fill="#cb7931" d="M1019.3 1362.83c3.01-.3 5.85-.44 8.83.15.08 7.54.49 30.21-.25 38.87-.08.95-4.61.55-4.87.54-.18-.01-2.9.15-2.98-.45-.87-7.41-.68-32.63-.73-39.11"/><path fill="#8891a4" d="M397.152 657.221c10.14-.286 20.259-.133 30.371.703.62.051 5.086-.242 5.227 1.046.164 1.491-2.576 4.154-3.329 5.066-.282.56-1.875 4.173-2.183 4.263-5.234 1.528-19.34.767-24.647.804-1.179-3.371-1.869-5.433-3.6-8.575z"/><path fill="#cb7931" d="M1050.79 1363.88c2.71-1.71 5.57-1.34 8.59-.53-.05 12.74.77 25.93.03 38.52-.06 1.14-8.18.78-8.24-.05-.81-12.39-.35-25.43-.38-37.94"/><path fill="#8891a4" d="M322.134 525.651c2.326 1.018 4.585 2.09 6.879 3.101l3.399 1.49q-.168 17.25.219 34.497l-10.578-4.503zm-60.726 894.829c4.375.76 6.717 2.74 11.624 3.26 11.459 1 26.074 1.92 37.169-1.37 2.116-.63 11.058-2.62 11.377 1.21-.513.98-1.669 1.61-2.535 2.21l-1.56 1.12c-2.934 1.95-4.886 3.11-8.024 4.71a605 605 0 0 0-44.96-4.62c-1.498-.07-7.149-.46-8.011-1.5.158-1.15 3.906-4.12 4.92-5.02M1711.85 531.077c1.95 2.025 1.13 30.133 1.16 34.981-3.01 1.35-5.76 2.184-9 3.696-1.55-2.102-.99-29.01-1.06-34.184 2.98-1.57 5.91-2.895 8.9-4.493m74.31 889.233c2.67 1.41 4.96 3.23 7.3 5.11-15.67 1.38-31.8 3.64-47.47 5.41-8.65.98-4.39 2.92-11.19-1.2l-.83-.5c-1.62-.95-9.45-4.57-9.09-6.52 1.6-1.51 9.11-1.14 11.12-.64 16.27 4.11 34.33 4.68 50.16-1.66M363.426 543.931l10.592 4.692q.24 16.544.171 33.091c-3.505-1.55-6.908-2.941-10.431-4.538-.202-11.021.061-22.287-.332-33.245m1333.754-6.079c3.42 1.168 1.86 28.497 1.82 33.493-2.96 1.555-5.4 2.353-8.49 3.647-3-.534-1.73-28.025-1.75-32.514 2.72-1.717 5.58-3.038 8.42-4.626m-68.33 109.65c3.2-.051 27.59-.63 28.49.647 7.33 10.441-17.4 5.796-25.15 5.902-4.73.197-12.36 1.335-16.69 1.092-27.44-1.536 3.37-7.224 13.35-7.641m-12.55 10.833c10.47-.609 21.3-.838 31.77-.611 4.11.089-.86 8.42-1.5 9.738l-.73.211c-6.84 2.031-17.88 1.137-25.44 1.117-1.79-2.824-5.41-7.542-4.1-10.455m-81.75-47.466c4.16.403 2.46 22.194 2.52 26.865-3.22 1.366-6.52 2.524-9.8 3.728-4.63 1.089-2.49-21.89-2.48-26.389 3.08-1.453 6.54-2.742 9.76-4.204m135.07-60.812c1.16 3.418.82 27.076.93 32.997-3.36 1.312-6.66 2.399-10.04 3.761-.32-10.676-.24-21.55-.47-32.29 3.16-1.661 6.33-3.003 9.58-4.468m-28.14 12.885c3.17.733 1.51 26.477 1.49 30.819-3.11 1.308-6.38 2.403-9.56 3.542-1.66-2.284-.99-24.736-1.03-29.815 2.89-1.623 6.09-3.028 9.1-4.546M513.75 609.219c4.191 1.96 7.281 3.702 11.276 5.929l.072 28.462c-4.043-2.068-7.264-3.334-11.35-5.109q-.11-14.642.002-29.282m-163.747-71.118c3.619 1.475 6.307 2.767 9.723 4.721q-.022 16.465.158 32.931a89 89 0 0 1-9.895-4.382q.108-16.635.014-33.27m57.084 25.031c3.643 1.539 6.966 3.25 10.654 4.745q-.613 14.92-.652 29.855c-3.44.143-6.883-1.93-10.215-3.386a1203 1203 0 0 1 .213-31.214m-18.325 84.721c12.253-.468 32.669.515 45.656.368 2.137-.024 6.445 2.843 8.088 5.477-12.1 3.783-37.854-.978-51.834-.012-.437.03-.998-1.888-1.084-2.262l-.398-1.8zm-52.416-116.028a357 357 0 0 1 9.631 4.699l-.025 33.564c-3.212-1.251-6.458-2.473-9.605-3.879a1583 1583 0 0 1-.001-34.384m56.783 25.529a434 434 0 0 1 10.021 4.037 2184 2184 0 0 0-.235 31.452c-3.25-1.132-6.849-2.425-10.053-3.693q.017-15.899.267-31.796m1481.001-12.487c3.66.651 2.39 7.85 2.62 11.474-8.71 4.245-14.38 7.061-23.89 9.45-11.21-10.817 14.31-17.555 21.27-20.924m-136.91 94.451c13.95-.476 29.42-.615 43.37.072 1 .049.61 6.51.61 6.852-13.07.124-27.12.202-40.22-.427-1.97-.095-3.02-2.883-3.35-4.576zm-1281.191 2.057c11.258 3.727 56.09 17.562 64.01 23.487-12.228-1.403-37.398-9.105-50.064-12.488l-3.996-1.044-4.529-1.146c-4.678-1.17-4.03-3.97-5.421-8.809m-55.984-6.629c10.965 2.57 24.368-.733 30.331.599 1.13 1.346 2.694 8.668-3.127 8.821-9.677.296-23.066 1.251-32.531-.528-2.887-.543 4.917-8.497 5.327-8.892m34.612-59.643c3.302 1.312 6.485 2.712 9.824 4.02.094 10.115-.166 20.449-.238 30.597-3.25-1.668-6.638-3.039-9.991-4.484a880 880 0 0 1 .405-30.133m85.526 91.803c3.47.045 40.416-.646 41.329.392 1.199 1.365 1.246 5.19 1.259 6.95-6.914-.093-35.462.505-43.131-1.433-.264-.067-.117-1.488-.062-1.767.252-1.265.432-2.764.605-4.142"/><path fill="#727b90" d="M1590.97 642.188c6.49 4.843-8.55 8.98-10.98 9.519-16.06 3.561-31.56 10.276-47.7 13.312-2.37-2.298-.36-2.402 2.14-3.327 18.29-6.763 37.73-14.401 56.54-19.504"/><path fill="#cb7931" d="M950.739 1362.52c.019.36.079.7-.004 1.06-1.444 6.07.893 35.66-1.109 37.86-1.096 1.2-6.137.71-7.57.77.285-10.46.845-21.2.654-31.65-.178-9.67-3.307-7.47 8.029-8.04"/><path fill="#8891a4" d="M171.357 543.751c4.532 2.317 9.101 5.51 13.548 7.56 10.619 4.897 11.409 2.233 10.619 14.205-10.418-1.187-16.255-4.714-25.792-8.976.427-4.513 1.025-8.324 1.625-12.789m94.869 94.659c13.296.212 26.544-.336 39.809.01 5.411.142 3.999 2.463 2.862 6.551-6.476.277-34.009 1.496-40.886-.454-1.066-.303-1.641-4.769-1.785-6.107m1222.024 665.67c3.49-.11 29.93-.61 34.15.46-1.06-.27 9.06 6.17-.15 6.61-6.32.28-31.03 1.14-38.59-.5-.15-.04-.26-.45-.23-.61.32-1.88 3.6-4.72 4.82-5.96m.25-637.305c11.35.107 26.72.286 38.43.42 1.6.019 5.45 5.539 6.06 6.32-10.36 1.518-31.67.073-42.95.17-1.11.01-1.39-5.778-1.54-6.91m166.2-109.768c2.93 2.61 1.01 25.867 1.33 30.997.07 1.177-6.67 3.386-7.84 3.853-1.99-1.852-1.06-26.582-1.08-31.154 2.7-1.511 4.7-2.448 7.59-3.696M421.228 569.346a329 329 0 0 1 9.578 4.28c-.444 10.02-.476 19.211-.494 29.232-3.292.114-6.248-1.418-9.4-2.818a1434 1434 0 0 1 .316-30.694m27.456 11.785 9.206 4.393q.06 14.84-.03 29.679a440 440 0 0 1-6.277-2.477l-3.408-1.395c.013-8.23-.247-22.506.509-30.2m1150.756.49c6.26.073.96 22.708 3.2 27.931.36.818-6.55 3.324-7.4 3.66-.02.008-1.85.815-1.94.194-.99-6.584-.63-14.618-.78-21.412l-.03-1.918c-.15-6.5 1.02-5.054 6.95-8.455m27.22-11.632c4.33 2.328.82 19.759 1.88 25.013.99 4.933-1.69 5.016-5.97 6.588l-1.9.706c-3.62.602-.91-24.593-1.3-28.138-.13-1.106 6.35-3.732 7.29-4.169m19.33 65.49c4.42-.866 7.49 5.246 10.04 8.57l-26.48-.161c-4.28.045-15.23 2.502-10.85-6.171 1.04-2.059 23.91-2.01 27.29-2.238M474.363 592.844c3.298 1.702 6.379 3.039 9.699 4.638a923 923 0 0 0-.164 28.476c-3.189-1.493-6.423-2.767-9.726-3.987q.003-14.563.191-29.127m51.919 711.406c10.45.45 23.772-.73 34.24.54 1.047.13 7.219 5.77 2.335 6.81-10.669-.25-28.243.48-38.834-1.77-2.935-.63 1.491-4.81 2.259-5.58M1548.36 604.783c4.43.911 1.32 22.47 1.58 26.673.07 1.181-6.88 3.887-7.99 4.415-2.27-2.705-.73-21.755-1.51-26.256-.25-1.452 6.98-4.365 7.92-4.832M461.634 587.117c2.896 1.522 5.891 2.709 8.945 3.867l-.189 29.702c-10.66-4.86-9.279-1.762-9.125-15.185.07-6.076-.281-12.303.369-18.384m1153.326-12.173c.69 4.066.29 24.261-.2 29.435-.11 1.114-6.84 3.336-8.28 3.88-.61-7.856-.4-20.61-.51-28.795 2.92-1.615 5.98-2.943 8.99-4.52m-28.4 12.885c5.29.579 1.04 22.313 2.47 27.533.27 1.005-6.12 3.318-7.03 3.706-3.93-.723-1.53-13.834-2.28-18.568-1.56-9.796-1.13-8.53 6.84-12.671m-11.69 5.346c2.2 3.086 1.27 23.178 1.19 27.764-.02.833-6.7 3.049-7.71 3.433-2.15-2.711-1.47-23.098-1.54-27.567 2.7-1.292 5.35-2.384 8.06-3.63m-1086.862 6.067c8.478 3.284 8.858 2.622 8.821 11.751-.027 6.669.061 13.503-.057 20.209-3.397-1.411-5.813-2.416-9.136-4.097-.09-9.486-.09-18.382.372-27.863m12.869 5.187c9.859 4.388 9.217 1.444 9.024 12.539-.108 6.235.008 13.073-.039 19.369-2.967-1.125-6.134-2.101-8.939-3.491q-.207-14.208-.046-28.417m1060.413-5.591c3.98 1.211.77 18.291 2.08 22.691 1.34 4.466-1.46 5.791-5.46 7.236l-1.58.642c-4.76.811-1.28-22.635-2.07-26.416-.2-.931 6-3.616 7.03-4.153m85.5 72.702c5.68-4.037 4.75 6.32 1.77 6.579-7.21.627-20.62-.136-27.81-.129-4.41-.164-6.67-2.224-5.1-4.606 1.24-1.878 27.21-1.206 31.14-1.844m90.23-74.555c3.21 2.126 1.32 8.806.93 9.017-5.66 3.078-14.36 6.143-20.62 7.849-8.79-8.602 14.1-14.727 19.69-16.866M526.198 703.476c10.985.121 23.391-.518 34.111.854 2.155.276-2.332 4.851-2.555 5.042-9.232.51-21.23.659-30.31-.847-2.104-.349-8.026-4.074-1.246-5.049m-215.55-106.132c6.738 2.74 14.829 4.812 21.395 7.537 1.395.579 1.793 5.974 2.12 7.758-6.085-.338-16.773-2.343-22.485-5.01-1.247-.582-.977-8.28-1.03-10.285M1485.88 704.238c7.03-.886 17.44-.881 24.62-.49 7.41.404 14.92-3.398 15.55 4.076-8.41 2.763-27.39.919-37.04.991-1.06.008-2.09-2.34-2.46-3.164zM395.435 673.129c6.737-.681 29.633-1.042 37.309.142.894.138 1.258 2.776 1.397 3.515-7.966 3.008-23.79.844-32.709 1.127-2.273.072-3.744-1.804-4.989-3.485zM190.703 1510.71c9.48 7.5-8.545 17.2-13.062 20.08-2.699-.34-3.184-10.08 1.318-11.63 2.491-.86 9.52-6.72 11.744-8.45m1663.327-.17c5.35 2.7 10.15 8.02 15.19 9.88 4.97 1.83 2.71 4.31 1.65 10.22-3.37.3-10.52-6.86-14.03-8.42-4.14-1.84-2.92-7.77-2.81-11.68M434.591 635.284c6.213 2.756 13.77 4.083 19.883 6.679.447.19-.521 3.822-.645 4.522l-.155.907c-.33.067-8.84 2.103-8.229 2.432-11.735-6.314-10.435-3.407-10.854-14.54m1178.519.799c2.21 1.611 2.03 6.475 1.27 7.415-2.38 2.977-12.24 5.596-16.1 6.785-4.23-2.106-2.14-8.19-1.97-8.281 3.98-2.14 11.92-4.136 16.8-5.919m-385.71-12.825 1.37.854c.21 6.511.14 12.956.13 19.468l-11.85-.331c3-5.918 6.84-14.572 10.35-19.991"/><path fill="#727b90" d="M1599.52 1354.55c4.61 1.12 11.04 5.13 15.17 7.75.95.61-.31 5.2-.52 6.41l-.15.86c-2.9.24-5.31-3.11-7.9-4.79-5.98-3.87-5.82-4.13-6.6-10.23"/><path fill="#8891a4" d="M1477.96 668.156c2.46-.058 9.76-1.32 7.52 4.546-.76 1.985-4.69 2.56-6.77 3.481-1.13.583-4.92 3.007-5.66 2.255-6.66-6.781 1.85-9.431 4.91-10.282"/><path fill="#727b90" d="M1721.71 1426.84c5.07 1.24 10.75 4.89 14.77 8.14 1.01.82.12 5.6.01 6.65-4.65.1-13.75-7.9-14.5-13.15z"/><path fill="#8891a4" d="M447.116 1353.95c7.037 5.83-6.965 12.68-10.438 14.79-2.38-.42-2.099-3.84-1.654-5.24.982-3.1 9.527-7.89 12.092-9.55m-121.208 72.12c5.541 5.58-8.914 13.42-12.46 15.76l-.381-1.62c-1.939-7.98 5.927-9.97 12.841-14.14m496.278-799.551c3.548 2.42 8.099 12.354 10.26 16.617-13.798.156-11.105-.15-10.26-16.617"/><path fill="#727b90" d="M565.163 666.569c10.059 2.556 12.727 2.679 11.958 11.806-8.822-2.651-10.838-3.955-11.958-11.806"/><path fill="#dcdede" d="M270.107 826.135c-.023 1.127.42 6.494-1.009 6.758-.922-.54-.978-1.174-1.454-2.286.816-1.559 1.529-2.965 2.463-4.472"/><path fill="#646576" d="M1275.85 90.039c1.14.064 2.29-.017 3.28.401l.08.112c-.24.58-3.27 1.678-3.82 1.909l-.39.16z"/><metadata><recraft-signature>{&quot;signed_by&quot;: &quot;recraft&quot;, &quot;signature_b64&quot;: &quot;RD4WXe8sef0vz3Xxw4NWzJxpKjqF19TxZdISOYc6d9+mTEAoxN383JfiELQbDAl+B6GZEKzOTjVs7jj9oU4wAg==&quot;, &quot;signing_algo&quot;: &quot;Ed25519&quot;, &quot;generation_timestamp&quot;: 1777253252, &quot;identifier&quot;: &quot;4c11484c-fab8-4a44-94ae-5dbb53feff56&quot;}</recraft-signature></metadata></svg>