<svg xmlns="http://www.w3.org/2000/svg" width="1024" height="1024" preserveAspectRatio="none" style="display:block" viewBox="0 0 2048 2048"><defs><linearGradient id="a" x1="976.455" x2="997.783" y1="1325.01" y2="1313.26" gradientUnits="userSpaceOnUse"><stop class="stop0" offset="0" stop-color="#151c24"/><stop class="stop1" offset="1" stop-color="#3b4143"/></linearGradient></defs><path fill="#586572" d="M1008.8 308.713c27.11-5.515 78.68 9.688 100.14 26.855-5.12-.015-8.82-.897-13.95-.834 1.48 2.014 2.54 4.41 4.09 5.646 2.51 2.461 3.93 3.595 6.82 5.721l4.16 2.769c15.23 13.383 27.41 26.457 41.28 41.126 9.11 9.63 21.69 19.978 30.22 29.738-8.82-3.363-15.97-6.467-24.55-10.422 8.83 8.085 19.91 17.223 28.16 25.227l-17-3.254c8.93 7.784 19.68 16.741 29.23 23.838l-1.13 3.268c-4.14-1-8.3-1.953-12.47-2.859l-3.57 1.719c8.64 6.517 15.79 12.332 24.04 19.287-6.33-1.519-12.64-3.093-18.94-4.723 17.47 22.635 25.74 35.639 35.98 62.623-10.4-10.13-15.44-16.108-28.92-22.504 8.48 9.389 13.92 15.867 20.98 26.488a91 91 0 0 1 5.27 8.493c5.8 7.659 15.26 26.094 18.3 35.325-4.3-4.107-12.02-12.417-17.64-13.847 15.86 21.658 46.6 44.046 69.69 57.008l-2.58 2.092c-4.34-.947-8.26-1.97-12.55-3.134l-3.84 2.709c20.51 20.704 30.65 35.206 40.81 62.938-5.05-4.991-10.49-10.626-15.9-15.112 2.69 6.163 7.16 9.858 9.96 15.52 8.39 16.993 12.92 35.512 15.55 54.205l-3.34 1.328c.14.581.27 1.162.4 1.742l-.88 1.055c-.97 1.071-1.17 1.581-1.25 3.022 2.15 13.455 4.12 25.521 5.3 39.083 3.12 32.05 6.53 63.96 7.23 96.183.44 20.422 2.01 38.151-7.01 57.098-1.49 2.741-2.69 5.595-4.66 8.048l-2.43 2.999c-3.33-5.108-4.67-8.269-7.39-13.522l-.87 2.086c-.57 8.837.01 17.888-1.64 26.412-.52 12.447-3.54 38.517-5.35 51.217-1.97 14.29-3.82 28.33-6.31 42.57-.38 11.95-4.93 38.58-6.92 51.03-5.26 32.22-10.76 64.4-16.51 96.53-1.25 6.98-7.68 43.55-9.35 47.2-.72 4.3-1.01 5.2-2.27 9.28 6.64 6.37 30.91 7.27 40.32 5.39 6.35-1.39 19.07-2.54 24.64-5.85 9.89-5.88 27.9-27.57 40.74-17.87 5.41 4.1 12.72 21.93 8.53 29.1-6.83 4.53-19.27 2.96-20.72 14.22-1.31 10.93 18.53 23.65 7.1 33.89-10.42 9.34-18.56 5.02-28.05-1.82-23.51-16.94-54.96-13.53-81.56-9.19-4.89 27.11-10.18 54.51-14.01 81.8-1.18 8.33-1.56 14.04 1.37 22.02 3.19 5.51 8.47 14.56 10.96 20.11 2.58 3.44 29.57 50.06 30.87 54.02 1.04 1.77 2.06 3.4 2.98 5.24 18.91 30.95 37.01 62.13 57.39 92.18 2.67 3.95 5.72 8.44 8.16 12.49 2.01 2.55 2.36 2.84 3.83 5.85l-10.11 4.7c25.11 39.73 51.37 83.16 67.83 127.15-64.55-30.3-95.73-66.02-147.49-110.67-14.85-10.98-31-26.36-44.75-39.05-.17 24.54-10.68 79.17-19.84 102.39-1.8-.76-1.95-.64-3.25-1.87-.6 3.04-.78 3.41-2.37 6.01l-3.2-8.44-3.02 3.26c.38 5.28 1.72 21.92 1.17 26.34-3.57 28.49-14.53 64.29-25.01 90.78l-2.95 9.22c-2.83-4.26-4.55-8.31-7.84-12.28l-1.19.7c-9 29.1-22.07 65.77-38.62 91.54-20.97-38.43-29.79-57.21-39.45-100.31-3.05 6.65-5.27 13.62-8.34 20.04l-3.93-6.72c-9.43-17.12-24.36-70.82-28.39-91.58-1.04-5.38-.87-16.26-.72-21.97-1.35-6.06 1.91-7.17-1.71-11.87l-6.2 20.39-3.29-12.1c-.81-2.3-1.56-4.63-2.24-6.97-7.99-32.85-17.705-74.53-18.11-108.67-.093-7.83 4.84-32.44 6.52-41.58l-2.27-1.14c-4.803 13.86-8.573 23.43-15.095 36.88l-1.541-12.82c-5.36-28.01-2.963-65.06.217-93.57.17-10.63 5.641-28.78 5.232-38.8-1.54-37.78 6.59-54.85 23.757-88.71-1.2-3.8-2.28-5.36-5.03-7.97-12.426 6.84-22.788 8.81-32.03-3.13l-2.555.19-.336-2.15.843-1.87-.337-2.73c-.057-4.42-.117-8.62.027-13.05.571-2.6.263-7.53 2.493-7.81.118-6.41-4.434-9.58-3.635-14.35 2.199-1.5 2.656-1.64 4.332-3.65l-1.275-1.38.211-.75c1.485-.7 2.946-1.44 4.381-2.23-1.932-3.69-7.408-12.5-9.831-15.93-2.708-6.44-16.198-28.13-20.676-36.03-2.938-4.24-7.276-12.58-10.698-13.73-5.665-6.69-17.604-31.93-25.869-42.41 1.789 10.9 3.387 20.97 3.976 32.04-5.695-6.62-7.602-9.23-12.045-16.68-30.605-35.07-45.217-111.28-51.475-156.66-2.082-15.1-5.932-35.132-6.948-50.129-2.7-12.74-4.306-22.447-8.528-34.861-1.864 6.755-4.915 35.761-10.33 37.334-2.824-2.848-3.488-6.871-4.644-10.817-19.512-48.322-17.212-117.62-8.554-168.888l-3.111-1.279c-1.361 3.626-2.884 7.393-4.298 11.032l-6.689-1.377c-.182-21.475.201-35.247 6.871-56.033-1.433.289-2.61.46-4.053.661.147-2.369.207-4.082.63-6.428.314-1.664.611-3.181.854-4.857 3.184-14.976 9.533-31.974 15.021-46.294.805-2.779 2.066-5.163 3.16-7.857.506-1.894 1.936-4.868 2.762-6.772l-2.637-.287-7.211 8.919c12.045-39.659 29.642-66.486 68.833-82.485l-2.574-2.554-4.509.186c4.489-5.95 6.214-4.071 12.132-8.99-4.777.768-7.869 3.789-5.68-2.39 20.921-17.282 28.635-28.05 41.879-50.772.339-1.647.581-2.873.598-4.565-3.219.7-8.205 5.618-10.889 7.969 3.779-10.418 7.325-20.099 8.87-31.042 1.882-13.344-3.457-36.044-11.686-46.622l-.556 2.68c-4.002-.243-14.346-17.265-16.42-21.777l-.35 13.379c-3.277-5.316-5.635-10.958-8.237-16.643l-.904.13c-2.091-.653-3.31-1.061-5.371-1.901-3.797-6.853-10.703-6.475-17.933-7.744-28.941-5.079-58.339-9.061-86.475-17.82l-1.54-.282c-4.102-1.283-15.076-2.252-19.906-2.794-5.156-.699-10.629-.565-15.852-.468-4.247-.166-4.822.402-8.837 2.266-11.938 8.639-4.089-5.113-1.509-9.623 13.074-42.986 63.459-66.873 104.479-71.938 6.478-.8 23.353-.685 28.207-2.898-.451-6.123 9.156.12 11.726 1.303-1.326-2.299-3.42-4.765-3.039-6.724 2.677 2.163 5.045 4.427 8.117 5.817l.051-3.116c1.508-.539 8.618 1.143 10.763 1.649 9.754 2.3 17.334 2.536 27.285 2.848 20.693-12.557 32.805-19.503 55.963-27.061 1.745-.997 1.484-.814 2.728.618l2.565 3.18c6.716-1.894 11.256-2.578 18.138-3.648 4.877-.816 7.437-.853 12.427-1.082"/><path fill="#1f2a34" d="M1008.8 308.713c27.11-5.515 78.68 9.688 100.14 26.855-5.12-.015-8.82-.897-13.95-.834 1.48 2.014 2.54 4.41 4.09 5.646 2.51 2.461 3.93 3.595 6.82 5.721l4.16 2.769c15.23 13.383 27.41 26.457 41.28 41.126 9.11 9.63 21.69 19.978 30.22 29.738-8.82-3.363-15.97-6.467-24.55-10.422 8.83 8.085 19.91 17.223 28.16 25.227l-17-3.254c8.93 7.784 19.68 16.741 29.23 23.838l-1.13 3.268c-4.14-1-8.3-1.953-12.47-2.859l-3.57 1.719c8.64 6.517 15.79 12.332 24.04 19.287-6.33-1.519-12.64-3.093-18.94-4.723 17.47 22.635 25.74 35.639 35.98 62.623-10.4-10.13-15.44-16.108-28.92-22.504 8.48 9.389 13.92 15.867 20.98 26.488a91 91 0 0 1 5.27 8.493c5.8 7.659 15.26 26.094 18.3 35.325-4.3-4.107-12.02-12.417-17.64-13.847 15.86 21.658 46.6 44.046 69.69 57.008l-2.58 2.092c-4.34-.947-8.26-1.97-12.55-3.134-4.18-3.591-48.04-19.144-57.72-23.335 4.78 15.768 10.28 32.839 11.03 49.275-8.39-14.944-15.38-28.072-25.8-41.835-1.29 25.955-2.12 50.358-5.56 76.203-4.6-10.796-8.87-20.468-13.99-31.043-2.56 8.931-8.37 30.726-8.92 39.621-1.58 25.843-4.93 48.304-9.75 73.729-8.66-19.904-16.92-41.727-24.74-62.031-4.23-10.987-6.83-23.836-11.26-35.308a2150 2150 0 0 0-6.42 33.788c-7.52-24.108-9.88-43.646-21.73-66.585-2.4 8.574-4.7 14.911-5.69 23.791-22.61-41.928-26.12-40.283-62.87-67.089-2.81 8.066-4.32 13.337-6.31 21.658-13.75-16.095-28.465-30.113-43.496-44.962-15.933 24.155-16.622 26.816-24.426 54.84-1.88-17.771-6.223-35.933-7.576-53.801-12.15 10.987-19.317 18.486-30.497 30.673 2.966-9.434 6.234-18.974 8.03-28.679-7.746 7.102-26.535 19.243-35.977 24.515-4.777.768-7.869 3.789-5.68-2.39 20.921-17.282 28.635-28.05 41.879-50.772.339-1.647.581-2.873.598-4.565-3.219.7-8.205 5.618-10.889 7.969 3.779-10.418 7.325-20.099 8.87-31.042 1.882-13.344-3.457-36.044-11.686-46.622l-.556 2.68c-4.002-.243-14.346-17.265-16.42-21.777l-.35 13.379c-3.277-5.316-5.635-10.958-8.237-16.643l-.904.13c-2.091-.653-3.31-1.061-5.371-1.901-3.797-6.853-10.703-6.475-17.933-7.744-28.941-5.079-58.339-9.061-86.475-17.82l-1.54-.282c-4.102-1.283-15.076-2.252-19.906-2.794-5.156-.699-10.629-.565-15.852-.468-4.247-.166-4.822.402-8.837 2.266-11.938 8.639-4.089-5.113-1.509-9.623 13.074-42.986 63.459-66.873 104.479-71.938 6.478-.8 23.353-.685 28.207-2.898-.451-6.123 9.156.12 11.726 1.303-1.326-2.299-3.42-4.765-3.039-6.724 2.677 2.163 5.045 4.427 8.117 5.817l.051-3.116c1.508-.539 8.618 1.143 10.763 1.649 9.754 2.3 17.334 2.536 27.285 2.848 20.693-12.557 32.805-19.503 55.963-27.061 1.745-.997 1.484-.814 2.728.618l2.565 3.18c6.716-1.894 11.256-2.578 18.138-3.648 4.877-.816 7.437-.853 12.427-1.082"/><path fill="#1f2a34" d="M972.942 309.645c1.745-.997 1.484-.814 2.728.618l2.565 3.18c6.716-1.894 11.256-2.578 18.138-3.648 4.877-.816 7.437-.853 12.427-1.082-1.06 3.054-1.76 3.704-5.02 3.913-24.763 5.424-44.23 11.956-61.587 30.626 21.267-5.996 41.294-14.603 62.867-19.598l1.01-.222c-5.98 3.398-15.122 8.215-20.651 11.878 7.816-.461 20.671-2.072 27.281 1.145l.9 1.942c-2.55 2.642-10.44 2.177-14.616 2.267 18.206 6.174 24.456 10.826 39.596 22.867-8.65-2.441-12.92-4.065-21.22-7.638 3.07 4.815 6.18 9.914 9.84 14.409 3.67 4.502 15.28 8.134 14.39 12.92-2.09.472-4.16.98-6.23 1.522-.46 2.755 11.75 36.026 13.43 41.621a132.4 132.4 0 0 0-24.28-19.439c1.3 10.497 2.44 18.428 2.41 29.054l.01 1.192-12.43-19.468c-.6 7.907-1.46 16.675-1.77 24.529-1.86 2.949-.31 17.328-1.49 24.02-1.21-3.597-1.24-5.818-3.67-7.91-1.38 1.745-2.27 2.774-4.03 4.136-5.171-1.398-6.696-6.423-9.027-11.008-1.495 16.035-3.363 28.313.553 44.164-5.224-5.626-10.794-13.456-14.971-19.944.186 4.568.294 9.217.76 13.757-8.889-4.676-19.261-9.849-27.894-14.748 2.494 10.399 4.656 20.215 5.581 30.905-5.101-7.503-9.007-13.356-13.424-21.237.342 11.45 1.546 20.79.894 32.38-4.974-8.242-7.662-15.315-11.301-24.157-2.267 14.316-2.333 37.146-5.001 48.281l-2.725-.815c-3.219.7-8.205 5.618-10.889 7.969 3.779-10.418 7.325-20.099 8.87-31.042 1.882-13.344-3.457-36.044-11.686-46.622l-.556 2.68c-4.002-.243-14.346-17.265-16.42-21.777l-.35 13.379c-3.277-5.316-5.635-10.958-8.237-16.643l-.904.13c-2.091-.653-3.31-1.061-5.371-1.901-3.797-6.853-10.703-6.475-17.933-7.744-28.941-5.079-58.339-9.061-86.475-17.82l-1.54-.282c-4.102-1.283-15.076-2.252-19.906-2.794-5.156-.699-10.629-.565-15.852-.468-4.247-.166-4.822.402-8.837 2.266-11.938 8.639-4.089-5.113-1.509-9.623 13.074-42.986 63.459-66.873 104.479-71.938 6.478-.8 23.353-.685 28.207-2.898-.451-6.123 9.156.12 11.726 1.303-1.326-2.299-3.42-4.765-3.039-6.724 2.677 2.163 5.045 4.427 8.117 5.817l.051-3.116c1.508-.539 8.618 1.143 10.763 1.649 9.754 2.3 17.334 2.536 27.285 2.848 20.693-12.557 32.805-19.503 55.963-27.061"/><path fill="#55606e" d="M862.076 334.929c2.665.447 4.541.855 7.176 1.51-3.47 1.64-6.985 3.286-8.944 6.684l2.069 1.192.818 2.718c-3.027-.283-4.379-.965-6.645.175 5.305 2.077 10.578 2.647 16.229 3.654-11.479 4.241-29.14 2.654-41.575 6.509 5.353.313 11.41.813 16.713.815l-.699 2.389c-4.227.813-11.314 2.485-15.343 2.252-1.886.785-3.556 1.564-5.409 2.422 15.819 2.081 31.792 4.545 47.556 7.009 7.485 1.171 20.944 2.314 27.672 4.484-1.527 2.067-.919 1.186-3.91 2.412 6.443 1.758 13.393-.578 20.742 1.56-1.611 1.336-1.962 1.669-3.232 3.42 5.503 4.504 24.506 3.086 31.755 14.402.131 6.481-4.882 6.618-9.942 6.817-.891.462-.936.351-1.983.292-4.93.307-5.386-.583-8.002 2.007-1.673 7.82 3.274 15.806 6.882 23.44-18.61-3.884-37.118-6.888-56.116-8.121-30.03-1.95-61.338-6.295-91.461-4.683-3.533 1.169-5.818.952-9.393 2.378l-1.54-.282c-4.102-1.283-15.076-2.252-19.906-2.794-5.156-.699-10.629-.565-15.852-.468-4.247-.166-4.822.402-8.837 2.266-11.938 8.639-4.089-5.113-1.509-9.623 13.074-42.986 63.459-66.873 104.479-71.938 6.478-.8 23.353-.685 28.207-2.898"/><path fill="#1f2a34" d="M743.744 410.572c13.314-5.653 32.265-12.747 46.268-15.585 42.572-8.632 101.098-9.681 141.998 5.464-.605.663-1.16 1.523-1.676 2.259-.679-.01-1.358-.009-2.037-.028-17.87-.51-35.124-8.197-52.899-9.398-24.952-1.687-100.299 13.721-127.672 20.058z"/><path fill="#48525e" d="M730.899 419.388c-11.938 8.639-4.089-5.113-1.509-9.623 1.233 4.078.838 5.542 1.509 9.623"/><path fill="#313b48" d="M747.726 413.342c.981-.155-16.858 4.092-10.383-.128l.047.049c2.169-.785 4.256-1.737 6.354-2.691zm184.284-12.891c5.849 1.62 3.674 1.094 5.097 4.902-.891.462-.936.351-1.983.292-2.165-1.641-2.328-1.857-4.79-2.935.516-.736 1.071-1.596 1.676-2.259m-156.516 19.933c4.59-2.528 5.436-2.318 10.933-2.096-3.533 1.169-5.818.952-9.393 2.378zm50.972-55.135c-.985-.053-2.193.035-2.929-.629.382-1.674 7.075-1.721 8.338-1.793-1.886.785-3.556 1.564-5.409 2.422"/><path fill="#e1e1e5" d="M972.942 309.645c1.745-.997 1.484-.814 2.728.618l2.565 3.18a80 80 0 0 0-9.927 2.804l-2.162-1.363c2.741-1.297 4.71-2.221 7.544-3.302z"/><path fill="#95989f" d="M972.942 309.645c1.745-.997 1.484-.814 2.728.618-.798.954-.747.831-1.98 1.319z"/><path fill="#313b48" d="M996.373 309.795c4.877-.816 7.437-.853 12.427-1.082-1.06 3.054-1.76 3.704-5.02 3.913-2.58-1.349-3.64-1.441-6.368-2.442zm-134.297 25.134c-.451-6.123 9.156.12 11.726 1.303-1.944-.091-2.713-.291-4.55.207-2.635-.655-4.511-1.063-7.176-1.51"/><path fill="#48525e" d="M847.917 358.186c5.432-.472 9.261.138 14.609.619-4.772.678-10.5 1.54-15.308 1.77z"/><path fill="#95989f" d="M968.308 316.247c-1.602.668-10.892 5.395-11.683 5.122-.18-.217-.118-.08-.16-.428.782-1.454 8.014-5.234 9.681-6.057z"/><path fill="#586572" d="m862.377 344.315 1.504.503c1.487.452 2.259.946 3.348 2.062q-2.016.102-4.034.153z"/><path fill="#bc6d3d" d="M979.979 348.304c16.593-2.192 31.801 9.545 33.881 26.153s-9.76 31.733-26.381 33.703c-16.464 1.951-31.417-9.752-33.478-26.203s9.542-31.482 25.978-33.653"/><path fill="#1f2a34" d="M979.086 351.349c14.864-2.529 28.974 7.441 31.554 22.296 2.58 14.854-7.34 28.998-22.186 31.63-14.92 2.646-29.149-7.335-31.742-22.263s7.437-29.123 22.374-31.663"/><path fill="#bc6d3d" d="M981.501 355.237c9.526-.923 19.279 4.615 22.889 13.567a24.04 24.04 0 0 1-.18 18.759c-3.68 8.311-9.445 12.093-17.466 15.17-32.233-2.27-34.98-42.908-7.175-47.181z"/><path fill="#1f2a34" d="M977.852 359.742a19.798 19.798 0 1 1 10.584 38.144c-10.434 2.654-21.077-3.518-23.956-13.893s3.062-21.149 13.372-24.251"/><path fill="#bc6d3d" d="M979.097 362.245c22.373-.858 27.043 20.02 8.443 31.616-14.037 1.119-21.191-6.35-19.364-21.848.338-2.874 5.132-6.738 7.697-8.095z"/><path fill="#1f2a34" d="M981.836 366.274c6.693-.786 12.742 4.036 13.467 10.735.726 6.699-4.15 12.705-10.855 13.371-6.621.657-12.534-4.144-13.251-10.759s4.031-12.571 10.639-13.347"/><path fill="#bc6d3d" d="M983.522 368.844c11.316 3.088 9.912 11.923 2.33 18.681-11.272-4.728-15.546-13.915-2.33-18.681"/><path fill="#1f2a34" d="M983.139 371.428c6.44 3.073 4.343 7.923 1.204 12.804-5.89-4.747-5.246-7.36-1.204-12.804"/><path fill="#586572" d="M1115.61 394.802c20.14 16.221 40.3 38.75 59.19 51.695l-2.82 1.865c1.15 3.193-.39 3.656 2.11 4.827 2.13 1.517 3.85 2.784 6.14 4.062 8.64 6.517 15.79 12.332 24.04 19.287-6.33-1.519-12.64-3.093-18.94-4.723 17.47 22.635 25.74 35.639 35.98 62.623-10.4-10.13-15.44-16.108-28.92-22.504 8.48 9.389 13.92 15.867 20.98 26.488-1.19 1.62-2.42 3.216-3.68 4.786-20.57-12.945-30.36-15.265-53.88-18.669 2.72 14.297 4.16 24.187 4.46 38.718l-3.4-.686c-5.29-8.643-10.9-15.759-17.03-23.774.37 7.291.15 52.508 1.11 54.624l-1.1 1.994 3.09 3.35c11.8 37.671 17.74 65.308 14.67 104.896-13.3-30.309-28.49-67.172-47.12-94.504l-2.63-3.998-.7.5c.13 1.86.22 4.057.44 5.876l4.85 22.751-1.52 3.603c-12.52-24.934-27.74-37.05-42.44-59.169 3.5 14.938 8.55 29.783 13.27 44.407-25.06-31.532-35.1-45.522-45.64-85.102 0 18.162 6.73 33.738 10.83 51.404-13.86-6.978-23.06-16.156-34.34-26.522 1.73 11.032 1.37 19.414 1.2 30.437-11.29-23.857-16.441-37.756-19.248-63.788 10.008 9.49 14.568 12.346 26.708 19.152-6.75-11.969-8.57-20.93-12.19-34.121 21.44 12.106 26.74 14.586 50.93 17.787l-.05-3.383c-6.38-5.364-11.47-14.354-15.77-21.44 12.91 1.764 25.83 3.416 38.77 4.957-8.28-7.682-14.75-13.933-21.57-22.915 12.87.444 16.04.001 28.36-3.775-1.84-2.766-3.56-6.089-5.18-9.044 10.99-1.18 22.53-1.431 33.45.335-10.61-13.672-10.62-19.453-14.11-35.965 12.75 2.834 21.84 7.03 33.84 11.95-4.45-4.029-12.09-10.85-15.67-15.487-9.57-12.412-12.98-19.116-24.86-29.898 9.24 5.27 17.96 11.517 27.6 16.038-6.84-11.358-6.8-16.036-9.21-28.945"/><path fill="#1f2a34" d="M1143.88 441.824c9.2 1.83 18.93 4.342 28.1 6.538 1.15 3.193-.39 3.656 2.11 4.827 2.13 1.517 3.85 2.784 6.14 4.062 8.64 6.517 15.79 12.332 24.04 19.287-6.33-1.519-12.64-3.093-18.94-4.723 17.47 22.635 25.74 35.639 35.98 62.623-10.4-10.13-15.44-16.108-28.92-22.504 8.48 9.389 13.92 15.867 20.98 26.488-1.19 1.62-2.42 3.216-3.68 4.786-20.57-12.945-30.36-15.265-53.88-18.669 2.72 14.297 4.16 24.187 4.46 38.718l-3.4-.686c-5.29-8.643-10.9-15.759-17.03-23.774.37 7.291.15 52.508 1.11 54.624l-1.1 1.994c-31.82-28.972-62.99-14.946-99.03-49.114 6.46 2.49 11.84 5.499 19.07 8.085 16.31 5.831 29.98 7.039 46.96 9.022a2180 2180 0 0 1-32.03-34.251c18.82 7.891 27.56 9.531 47.37 12.229l-18.59-14.282c11.36-.795 22.55-2.164 33.86-3.458-16.26-9.088-26.4-11.07-39.78-25.372 19.36 5.404 25.85 5.502 45.81 4.739-2.76-6.258-5.38-11.101-8.66-17.116 12.96 2.321 26.35 3.292 39.48 4.503-16.35-13.255-32.16-20.037-50.96-28.892 14.27 3.107 26.86 3.922 41.32 4.769-7.52-10.709-10.78-16.205-20.79-24.453"/><path fill="#313b48" d="M1059.96 528.991c1.34.79 4.3 2.346 5.23 3.42v.15c-1.15.851-3.95.032-5.18-.187z"/><path fill="#586572" d="M1008.8 308.713c27.11-5.515 78.68 9.688 100.14 26.855-5.12-.015-8.82-.897-13.95-.834-4.12-1.075-8.25-2.2-12.41-3.116 28.88 25.519 27.44 34.36 46.94 62.116-10.75-4.931-23.54-12.292-33.97-16.193 9.39 9.382 9.11 11.477 14.03 23.477-16.04-3.416-21.53-3.874-34.22-14.253 8.43 18.989 17.68 30.007 21.14 50.979-7.42-1.694-11.75-2.604-18.75-5.399 4.44 11.038 7.11 19.214 10.18 30.775-19.79-2.206-23.86-3.343-42.51-10 8.96 7.882 20.79 16.304 27.28 25.636-14.82-2.73-29.69-5.219-44.59-7.467 5.83 7.944 8.61 15.029 11.96 24.234-13.44-2.021-21.62-4.005-33.61-10.765 3.99 7.884 9.88 18.233 13.23 25.901-11.91-4.05-22.748-6.657-34.291-11.761 5.579 8.95 9.188 14.551 13.525 24.279-7.18-3.804-12.487-7.075-19.351-11.473 4.235 17.049 5.482 24.049 6.491 41.99-3.915-6.261-11.755-17.557-12.719-24.433l-1.738 3.331c.368 12.015-.351 23.491-3.351 35.196-5.541-14.289-7.709-28.677-13.574-42.417l-.374-.849c-6.743 17.953-14.333 25.901-26.442 40.611.109-5.024.072-12.574.575-17.334-.672-1.111-1.336-2.097-2.054-3.177.339-1.647.581-2.873.598-4.565l2.725.815c2.668-11.135 2.734-33.965 5.001-48.281 3.639 8.842 6.327 15.915 11.301 24.157.652-11.59-.552-20.93-.894-32.38 4.417 7.881 8.323 13.734 13.424 21.237-.925-10.69-3.087-20.506-5.581-30.905 8.633 4.899 19.005 10.072 27.894 14.748-.466-4.54-.574-9.189-.76-13.757 4.177 6.488 9.747 14.318 14.971 19.944-3.916-15.851-2.048-28.129-.553-44.164 2.331 4.585 3.856 9.61 9.027 11.008 1.76-1.362 2.65-2.391 4.03-4.136 2.43 2.092 2.46 4.313 3.67 7.91 1.18-6.692-.37-21.071 1.49-24.02.31-7.854 1.17-16.622 1.77-24.529l12.43 19.468-.01-1.192c.03-10.626-1.11-18.557-2.41-29.054a132.4 132.4 0 0 1 24.28 19.439c-1.68-5.595-13.89-38.866-13.43-41.621 2.07-.542 4.14-1.05 6.23-1.522.89-4.786-10.72-8.418-14.39-12.92-3.66-4.495-6.77-9.594-9.84-14.409 8.3 3.573 12.57 5.197 21.22 7.638-15.14-12.041-21.39-16.693-39.596-22.867 4.176-.09 12.066.375 14.616-2.267l-.9-1.942c-6.61-3.217-19.465-1.606-27.281-1.145 5.529-3.663 14.671-8.48 20.651-11.878l-1.01.222c-21.573 4.995-41.6 13.602-62.867 19.598 17.357-18.67 36.824-25.202 61.587-30.626 3.26-.209 3.96-.859 5.02-3.913"/><path fill="#313b48" d="M1011.24 466.253c1.18-6.692-.37-21.071 1.49-24.02.34 4.625-.06 10.121-.15 14.83.05-2.805 1.01 20.555-1.34 9.19m-84.255 73.804 2.725.815c-.165 2.246-.419 4.836-1.269 6.927-.672-1.111-1.336-2.097-2.054-3.177.339-1.647.581-2.873.598-4.565m44.622-7.465c-.056-.471-1.008-5.97.194-6.108.886.442 1.26 2.016 1.544 2.777z"/><path fill="#586572" d="M1155.81 524.539c23.52 3.404 33.31 5.724 53.88 18.669 1.26-1.57 2.49-3.166 3.68-4.786a91 91 0 0 1 5.27 8.493c5.8 7.659 15.26 26.094 18.3 35.325-4.3-4.107-12.02-12.417-17.64-13.847-6.03-6.429-16.72-9.383-25.21-12.008 3.75 23.51 2.13 42.051-5.71 64.882-3.26-12.446-8.13-22.643-11.43-33.957l-1.37 5.795c1.97 19.922-.36 44.665-2.38 64.461-10.89-21.398-15-39.065-29.27-60.434l-.99 1.633-3.09-3.35 1.1-1.994c-.96-2.116-.74-47.333-1.11-54.624 6.13 8.015 11.74 15.131 17.03 23.774l3.4.686c-.3-14.531-1.74-24.421-4.46-38.718"/><path fill="#313b48" d="M1213.37 538.422a91 91 0 0 1 5.27 8.493c-4.21 1.369-5.77-.691-8.95-3.707 1.26-1.57 2.49-3.166 3.68-4.786m-37.79 54.683c-.16-.955-2.28-12.504-.44-11.201.68.486 1.54 4.312 1.81 5.406zm-18.71-30.534 3.4.686c-.08.815-.16 3.468-.75 4.029-.66-.368-1.83-3.087-2.23-3.879zm-15.92 30.85c1.41 1.516 1.9 1.956 2.98 3.711l-.99 1.633-3.09-3.35zm33.85-146.924c5.09 2.204 6.02 4.07 8.41 8.78l.59.255-3.57 1.719c-2.29-1.278-4.01-2.545-6.14-4.062-2.5-1.171-.96-1.634-2.11-4.827z"/><path fill="#e1e1e5" d="M1174.09 453.189c3.81.342 5.4.922 9.12 2.088l.59.255-3.57 1.719c-2.29-1.278-4.01-2.545-6.14-4.062"/><path fill="#313b48" d="M1112.45 634.286c.39 1.666 2.87 10.988 1.97 12.006-1.76-.053-3.23-7.214-3.49-8.403z"/><path fill="#586572" d="m980.629 1278.96.791 1.02c18.436 24.19 36.79 55.74 55.92 81.44 30.26 40.13 61.4 79.59 93.42 118.33 41.12 50.52 80.79 101.63 127.89 146.93 1.17 1.13 1.18 2.6 1.32 4.06-14.85-10.98-31-26.36-44.75-39.05-.17 24.54-10.68 79.17-19.84 102.39-1.8-.76-1.95-.64-3.25-1.87-.6 3.04-.78 3.41-2.37 6.01l-3.2-8.44-3.02 3.26c.38 5.28 1.72 21.92 1.17 26.34-3.57 28.49-14.53 64.29-25.01 90.78l-2.95 9.22c-2.83-4.26-4.55-8.31-7.84-12.28l-1.19.7c-9 29.1-22.07 65.77-38.62 91.54-20.97-38.43-29.79-57.21-39.45-100.31-3.05 6.65-5.27 13.62-8.34 20.04l-3.93-6.72c-9.43-17.12-24.36-70.82-28.39-91.58-1.04-5.38-.87-16.26-.72-21.97-1.35-6.06 1.91-7.17-1.71-11.87l-6.2 20.39-3.29-12.1c-.81-2.3-1.56-4.63-2.24-6.97-7.99-32.85-17.705-74.53-18.11-108.67-.093-7.83 4.84-32.44 6.52-41.58l-2.27-1.14c-4.803 13.86-8.573 23.43-15.095 36.88l-1.541-12.82c-5.36-28.01-2.963-65.06.217-93.57.17-10.63 5.641-28.78 5.232-38.8-1.54-37.78 6.59-54.85 23.757-88.71-1.2-3.8-2.28-5.36-5.03-7.97-12.426 6.84-22.788 8.81-32.03-3.13l-2.555.19-.336-2.15.843-1.87-.337-2.73c-.057-4.42-.117-8.62.027-13.05.571-2.6.263-7.53 2.493-7.81.118-6.41-4.434-9.58-3.635-14.35 2.199-1.5 2.656-1.64 4.332-3.65l-1.275-1.38.211-.75c1.485-.7 2.946-1.44 4.381-2.23"/><path fill="#1f2a34" d="M1082.95 1440.95c12.79 16.15 36.85 47.89 50.31 61.99q-1.14 82.14-1.26 164.28c.17 42.03-1.92 86.26 10.63 126.52 1.36 4.36 4.12 10 5.09 14.06-9 29.1-22.07 65.77-38.62 91.54-20.97-38.43-29.79-57.21-39.45-100.31 2.11-4.94 3.01-11.01 4.31-16.29 8.52-34.73 4.2-68.53 5.11-103.8 1.17-45.14 2.2-90.79 2.87-136 .51-34.06-.15-67.8 1.01-101.99"/><path fill="#1f2a34" d="M1030.18 1675.9c1.77-5.19 5.76-39.88 6.71-48.01 6.19-52.61 9.28-106.11 12.85-159 1.56-23.13 4.15-46.21 5.69-68.98 6.51 9.86 14.66 22.87 21.65 32.07-1.7 46.36-3.02 92.74-3.95 139.13-.4 36.34 7.23 217.59-15.75 241.24-9.43-17.12-24.36-70.82-28.39-91.58-1.04-5.38-.87-16.26-.72-21.97-1.35-6.06 1.91-7.17-1.71-11.87.94-4.94 1.22-6.8 3.62-11.03"/><path fill="#e1e1e5" d="M1030.18 1675.9c-.18 2.56-1.5 21.89-1.91 22.9-1.35-6.06 1.91-7.17-1.71-11.87.94-4.94 1.22-6.8 3.62-11.03"/><path fill="#1f2a34" d="M1142.62 1512c8.94 8.8 21.36 23.76 29.99 33.53-.3 3.98-.03 8.49.04 12.55.72 37.25 1.63 74.71 7.78 111.53.61 3.69.72 10.17 2.23 13.21.3-.47.37-.89.82-1 1.35 1.21 2.44 6.04 3.08 7.96l-3.02 3.26c.38 5.28 1.72 21.92 1.17 26.34-3.57 28.49-14.53 64.29-25.01 90.78-11.87-16.9-18.38-57.58-20.13-77.73-2.63-30.31-.02-62.57.55-93.31.8-42.26.92-84.94 2.5-127.12"/><path fill="#e1e1e5" d="M1182.66 1682.82c.3-.47.37-.89.82-1 1.35 1.21 2.44 6.04 3.08 7.96l-3.02 3.26c-.39-3.41-.58-6.81-.88-10.22"/><path fill="#1f2a34" d="M1030.16 1363.83c6.12 9.08 12.45 18.01 19 26.78-.51 64.43-8.7 142.74-16.84 207.3-2.13 16.66-4.45 33.3-6.98 49.9-1.53 9.44-6.84 34.2-6.14 42.24l-4.37-1.8c-7.99-32.85-17.705-74.53-18.11-108.67-.093-7.83 4.84-32.44 6.52-41.58.27-1.81.51-3.22.88-5.01l.56-2.4c1.66-10.67 4.09-20.64 6.66-31.15 9.51-38.98 12.9-79.26 17.49-119.04.62-5.39 1.22-11.16 1.33-16.57m-16.62-23.99c5.09 1.75 9.66 13.25 12.29 18.53-9.07 56.55-10.2 112.11-27.634 167.16-3.508 11.07-5.787 25.09-12.152 34.86l-1.71.53c-5.36-28.01-2.963-65.06.217-93.57.17-10.63 5.641-28.78 5.232-38.8-1.54-37.78 6.59-54.85 23.757-88.71m163.49 210.41c11.77 14.6 27.35 27.98 38.19 41.44-.17 24.54-10.68 79.17-19.84 102.39-1.8-.76-1.95-.64-3.25-1.87-11.26-49.3-11.82-92.72-15.1-141.96"/><path fill="url(#a)" d="M974.122 1309.13c.571-2.6.263-7.53 2.493-7.81.899 8.02 2.404 7.56 2.774 17.79 1.341 5.56.888 4.35 4.933 7.48.809 6.89 18.118 5 23.348 3.34l.84 1.94c-12.426 6.84-22.788 8.81-32.03-3.13l-2.555.19-.336-2.15.843-1.87-.337-2.73c-.057-4.42-.117-8.62.027-13.05"/><path fill="#95989f" d="M974.432 1324.91c.737 1.27 1.372 2.53 2.048 3.83l-2.555.19-.336-2.15z"/><path fill="#fafaf9" d="M998.205 1319.1c3.305.76 6.745 6.29 8.425 9.09l1.04 1.74c-5.23 1.66-22.539 3.55-23.348-3.34 4.62-2.25 9.323-5.04 13.883-7.49"/><path fill="#767b87" d="M979.389 1319.11c12.212-2.92 8.632-2.53 18.816-.01-4.56 2.45-9.263 5.24-13.883 7.49-4.045-3.13-3.592-1.92-4.933-7.48"/><path fill="#313b48" d="m1014.83 1688.25 4.37 1.8c-.62 2.78-.71 2.72-2.13 5.17-.81-2.3-1.56-4.63-2.24-6.97"/><path fill="#e1e1e5" d="M1001.83 1532.99h2.29c-.37 1.79-.61 3.2-.88 5.01l-2.27-1.14c.28-1.29.57-2.58.86-3.87"/><path fill="#95989f" d="M1001.83 1532.99c.22-.65 1.42-5.12 1.89-5.25.74.5.82 2.12.96 2.85l-.56 2.4z"/><path fill="#1f2a34" d="M956.208 625.076c7.804-28.024 8.493-30.685 24.426-54.84 15.031 14.849 29.746 28.867 43.496 44.962 1.99-8.321 3.5-13.592 6.31-21.658 36.75 26.806 40.26 25.161 62.87 67.089.99-8.88 3.29-15.217 5.69-23.791 11.85 22.939 14.21 42.477 21.73 66.585q3.075-16.92 6.42-33.788c4.43 11.472 7.03 24.321 11.26 35.308 7.82 20.304 16.08 42.127 24.74 62.031 4.82-25.425 8.17-47.886 9.75-73.729.55-8.895 6.36-30.69 8.92-39.621 5.12 10.575 9.39 20.247 13.99 31.043 3.44-25.845 4.27-50.248 5.56-76.203 10.42 13.763 17.41 26.891 25.8 41.835-.75-16.436-6.25-33.507-11.03-49.275 9.68 4.191 53.54 19.744 57.72 23.335l-3.84 2.709c20.51 20.704 30.65 35.206 40.81 62.938-5.05-4.991-10.49-10.626-15.9-15.112 2.69 6.163 7.16 9.858 9.96 15.52 8.39 16.993 12.92 35.512 15.55 54.205l-3.34 1.328-3.71-8.805c-7.51-18.805-21.76-40.011-36.65-53.882.9 20.495-.11 29.735-2.47 50.148-2.76-15.06-7.21-25.231-13.85-39.086-4.55 38.681-13.25 63.161-28.17 98.537-.8-.609-1.71-1.226-2.54-1.813.16-7.274-.14-11.946-.74-19.23-10.44 22.938-16.96 45.852-22.4 70.332l-2.59-2.088c-.04.657-.1 1.312-.13 1.969-.04.856.06 2.047-.06 2.911-.04.285-.16 1.401-.58 1.587-.28.124-1.12-.416-1.2-.455-.11-.053-.23-.083-.33-.149-.07-.05-.12-.13-.19-.195-.85-.042-1.04.568-1.63 1.254l1.85 3.656c-1.47 5.3 2.43 32.535 2.84 40.49.97 21.447 4.14 34.268 1.33 56.641-1.99 15.878-20.04 91.811-41.95 89.001-15.39-1.97-11.95-49.259-13.73-62.219-1.46-10.647-6.42-35.106-13.13-47.354l-1.12 2.083c-1.36-3.409-2.19-14.846-2.81-19.368-3.81-27.168-12.93-55.586-28.84-78.276-15.33-21.858-29.77-43.641-44.26-66.154.13 9.138.24 15.41 1.38 24.405l-.94 7.402c-22.68-40.467-35.49-60.917-72.441-91.834 2.671 6.805 5.504 12.669 8.086 19.796-24.604-14.26-37.009-25.547-55.407-47.376-3.89-4.615-8.86-11.671-12.617-15.794l-1.071-1.162.179 20.658c-11.177-13.754-21.703-34.454-27.587-51.077a394 394 0 0 0-21.169 27.343c1.455-8.47 3.776-16.665 5.976-24.969a141.06 141.06 0 0 0-56.546 43.158l-.031 1.498c-.005 1.968-.998 3.675-1.698 5.465l-2.637-.287-7.211 8.919c12.045-39.659 29.642-66.486 68.833-82.485l-2.574-2.554-4.509.186c4.489-5.95 6.214-4.071 12.132-8.99 9.442-5.272 28.231-17.413 35.977-24.515-1.796 9.705-5.064 19.245-8.03 28.679 11.18-12.187 18.347-19.686 30.497-30.673 1.353 17.868 5.696 36.03 7.576 53.801"/><path fill="#586572" d="M956.208 625.076c7.804-28.024 8.493-30.685 24.426-54.84 15.031 14.849 29.746 28.867 43.496 44.962 1.99-8.321 3.5-13.592 6.31-21.658 36.75 26.806 40.26 25.161 62.87 67.089.99-8.88 3.29-15.217 5.69-23.791 11.85 22.939 14.21 42.477 21.73 66.585q3.075-16.92 6.42-33.788c4.43 11.472 7.03 24.321 11.26 35.308 7.82 20.304 16.08 42.127 24.74 62.031 4.82-25.425 8.17-47.886 9.75-73.729.55-8.895 6.36-30.69 8.92-39.621 5.12 10.575 9.39 20.247 13.99 31.043 3.44-25.845 4.27-50.248 5.56-76.203 10.42 13.763 17.41 26.891 25.8 41.835-.75-16.436-6.25-33.507-11.03-49.275 9.68 4.191 53.54 19.744 57.72 23.335l-3.84 2.709a276 276 0 0 1-13.9-5.419c2.08 21.099.41 37.042-3.79 57.829-5.05-12.451-9.1-22.981-15.51-34.81l-1.27 4.195c6.64 29.078 6.28 50.896-1.1 80.046l-2.76-1.948c-1.59-17.462-8.08-38.227-13.36-54.809-2.41 4.409-.68 8.323-2.14 15.403-3.2 44.874-7.74 86.166-31.06 125.672 1.16-34.676.8-47.881-3.28-82.024-1.79 14.406-1.8 31.413-3.36 46.396-2.29 21.985-6.25 41.006-10.76 62.687-7.59-17.226-14.96-34.934-20.74-52.856-5.97-18.541-9.94-35.477-17.86-53.419.84 20.204 1.61 54.034.8 73.714-7.68-17.093-15.85-33.9-21.3-51.876-9.65-31.85-20.13-64.236-28.39-96.442l-2.3 5.892c.23 12.273-.85 25.632-.51 38.001.37 13.242 1.31 26.645 1.96 39.912-15.88-26.874-28.61-70.535-37.18-100.399a235 235 0 0 0-1.64 5.833c1.2 28.016 4.76 54.446 14.08 80.955-28.31-31.986-49.62-78.099-62.555-118.848-1.573 38.76 4.54 53.192 13.955 87.845-23.603-16.918-37.088-31.789-53.565-55.829l-2.395 2.276c2.724 10.699 6.168 22.38 10.388 32.563-18.223-16.129-35.162-40.861-42.428-64.131a174 174 0 0 0-1.541 6.502c.996 9.569 3.159 17.125 5.688 26.39-12.748-10.904-27.722-40.764-31.192-42.418l-1.944 2.438q-1.98 1.348-3.922 2.753l-2.574-2.554-4.509.186c4.489-5.95 6.214-4.071 12.132-8.99 9.442-5.272 28.231-17.413 35.977-24.515-1.796 9.705-5.064 19.245-8.03 28.679 11.18-12.187 18.347-19.686 30.497-30.673 1.353 17.868 5.696 36.03 7.576 53.801"/><path fill="#313b48" d="M1215.64 661.736c.9 2.819 2.31 7.585 2.69 10.416-2.41 4.409-.68 8.323-2.14 15.403-.18-8.65-.24-17.151-.55-25.819m-265.55-16.691c-.57-1.973-3.114-12.616-2.297-13.703l.545.098c1.014 1.087 2.567 8.303 4.147 11.329zm-33.581-25.066c-.159-1.175-1.468-9.377.594-9.792l.498.745-.341-.804c.856 1.498.673 1.435.79 3.349a174 174 0 0 0-1.541 6.502"/><path fill="#e1e1e5" d="M882.565 606.588c3.122-.83 3.235-.586 6.496-.199q-1.98 1.348-3.922 2.753z"/><path fill="#313b48" d="M1040.57 648.646c-.14-.909-1.29-7.855.2-8.078.85.51 1.06 1.321 1.44 2.245a235 235 0 0 0-1.64 5.833m37.37 16.653c.01-1.233.94-14.162 2.3-5.892zm157.61-16.436c-.15-.685-1.67-6.812-.85-7.423l.08.149.75.336c.55.954.99 1.669 1.29 2.743z"/><path fill="#586572" d="M1158 971.954c1.01-40.659 8.37-78.018 24.52-115.556 6.14-14.261 13.48-26.885 19.54-40.912.94 7.652 1.36 16.784 1.92 24.574-.04.657-.1 1.312-.13 1.969-.04.856.06 2.047-.06 2.911-.04.285-.16 1.401-.58 1.587-.28.124-1.12-.416-1.2-.455-.11-.053-.23-.083-.33-.149-.07-.05-.12-.13-.19-.195-.85-.042-1.04.568-1.63 1.254-7.66 45.737-18.93 84.506-41.86 124.972"/><path fill="#e1e1e5" d="m827.883 676.032-.031 1.498c-.005 1.968-.998 3.675-1.698 5.465l-2.637-.287z"/><path fill="#48525e" d="m1231.69 726.961 2.76 1.948c-1.84 7.685-2.39 2.258-2.76-1.948"/><path fill="#1f2a34" d="M857.528 970.16c5.741 9.049 11.479 13.205 19.758 3.926 8.247 12.955 40.514 64.174 56.588 60.154 7.98-7.81.235-27.85-2.594-37.794l.634 1.02c5.191 8.514 9.242 17.964 13.823 26.854 35.652 69.12 78.253 137.63 133.783 192.64 13.05 12.93 27.16 27.62 43.54 36.19 21.65 60.91 19.36 83.69-42.02 33.72-79.75-64.93-138.438-152.4-188.276-241.33-9.09-16.34-31.208-55.988-35.86-73.214z"/><path fill="#1f2a34" d="M847.063 979.431c1.49-7.824-2.889-16.813-.917-21.499l1.086.408c.279 4.271 3.309 28.278 5.685 30.478 1.712 8.366 2.74 13.652 5.561 21.622 2.425-4.11 1.43-4.99 1.833-9.98l.192-2.958c2.355 2.416 15.361 30.638 18.287 36.138 10.589 19.91 20.818 40.78 32.034 60.38a1147 1147 0 0 0 100.776 146.11c27.29 33.7 53.88 62.69 88.68 89.33 7.31 5.6 41.7 35.25 52.41 23.15 5.3-5.99-1.35-36.23-3.32-44.64-2.36-10.19-5.2-20.27-8.5-30.19-1.91-5.77-6.22-16.45-6.94-21.56 3.96-3.21 4.28-1.26 8.81-5.99 5.65 3.38 71.1 134.86 72.72 151.44.56 5.8 4.03 18.9-7.47 19.79-46.49-6.73-86.84-51.65-122.29-79.51-57.54-51.38-107.844-111-150.321-174.7-13.853-20.77-25.837-42.87-38.617-63.89 3.312 14.55 18.643 72.49 8.724 82.86-30.605-35.07-45.217-111.28-51.475-156.66-2.082-15.1-5.932-35.132-6.948-50.129"/><path fill="#48525e" d="M860.311 1000.46c1.049 6.65.514 17.6 4.216 23.04-3.791.02-5.805-10.33-6.049-13.06 2.425-4.11 1.43-4.99 1.833-9.98"/><path fill="#1f2a34" d="M818.089 789.299c9.444-19.285 9.696-54.453 15.331-73.834 1.756 36.823 12.697 97.39 31.24 129.109-.588-36.972-3.739-71.895-3.556-109.552l2.675.788c10.798 35.316 20.537 70.096 40.154 101.868 2.989 4.84 6.582 13.384 11.758 15.722 1.336-3.676-2.422-4.354-.119-6.218 4.072 7.132 8.489 14.75 12.048 22.139 9.862 20.476 23.445 37.75 38.036 55.088.337 6.934 2.308 28.159-2.677 32.413-6.042-1.887-31.652-61.026-33.785-70.484l-1.711 2.355c2.585 7.048 8.365 35.365 9.345 43.107-8.892 19.862-21.97 7.985-33.08-2.601-17.18-16.369-28.122-38.749-39.33-59.35 1.002 14.772 7.231 30.674 8.056 45.626.53 9.619 3.297 42.144-5.432 47.891l-2.436-.879c-14.849-15.02-23.312-58.016-27.117-79.298-2.897 5.171-.457 17.174-2.346 26.357-.809 11.668-2.095 55.693-11.582 61.541-19.512-48.322-17.212-117.62-8.554-168.888l-3.111-1.279a120 120 0 0 0 2.314-5.796l2.255.458c.505-2.495.865-3.864 1.624-6.283"/><path fill="#48525e" d="M835.143 909.546c-.067-2.409-.042-33.081.365-33.476l.235.059c1.449 1.438 1.364 5.08 1.746 7.06-2.897 5.171-.457 17.174-2.346 26.357"/><path fill="#e1e1e5" d="m814.21 795.124 2.255.458c-.507 2.27-1.042 4.315-1.458 6.617l-3.111-1.279a120 120 0 0 0 2.314-5.796"/><path fill="#313b48" d="M927.483 888.693c-.157-.692-2.446-8.31-.503-7.992l-.26.327 1.125 1.039-.23-.566c.811 1.451 1.204 3.244 1.579 4.837z"/><path fill="#1f2a34" d="m950.122 1227 1.282-1.54c4.291 4.82 10.623 16.54 14.642 22.43l35.974 51.96c28.19 41.26 63.93 87.24 97.05 124.41 4.85 5.45 24.94 27.84 29.14 30.78l1.73-1.54c4.15 2.17 29.21 32.42 34.69 37.96 37.32 37.72 119.21 125.63 175 122.8 25.11 39.73 51.37 83.16 67.83 127.15-64.55-30.3-95.73-66.02-147.49-110.67-.14-1.46-.15-2.93-1.32-4.06-47.1-45.3-86.77-96.41-127.89-146.93-32.02-38.74-63.16-78.2-93.42-118.33-19.13-25.7-37.484-57.25-55.92-81.44l-.791-1.02c-1.932-3.69-7.408-12.5-9.831-15.93-2.708-6.44-16.198-28.13-20.676-36.03m308.768-418.979 3.05-.954c.92 5.996 4.39 16.799 6.13 23.044 4.33 15.578 8.9 30.727 12.23 46.618-.54 2.096-.96 3.78-1.35 5.925-6.2 50.572-6.8 117.816-32.69 162.666-.15-10.28-.36-20.25.06-30.53-.54-5.13 1.29-3.8-1.68-7.92-6.22 22.17-25.79 90.85-56.16 94.22-20.87 2.31-17.55-37.51-16.99-51.85 27.6-27.46 27.7-56.733 36.09-92.506 1.71-7.301 8.27-19.676 10.6-27.911 7.38-26.028 12.51-52.373 15.2-79.241l.35 1.674c.41 2.242 1.74 3.942 2.35 7.149-1.18 37.756-4.73 60.073-9.07 97.046 23.58-43.605 32.25-97.924 31.88-147.43"/><path fill="#48525e" d="M1244.64 1006.87c1.02-4.27 2.81-9.166 4.24-13.377-.33 2.642-2.09 20.337-2.56 21.297-.54-5.13 1.29-3.8-1.68-7.92"/><path fill="#1f2a34" d="M1345.91 1603.71c-12.28.01-55.09-22.38-66.82-29.68-76.25-47.43-138.51-119.87-196.61-187.32-4.23-4.92-27.13-31.66-28.06-35.47l1.54-.31c2.55 4.47 21.52 24.36 26.7 29.81 48.21 50.58 99.37 102.58 163.89 131.87 10.27 4.67 26.07 7.34 30.55-6.13 1.2-3.5 1.03-4.48 3.26-7.44 18.91 30.95 37.01 62.13 57.39 92.18 2.67 3.95 5.72 8.44 8.16 12.49m-38.82-729.143a266 266 0 0 0 6.48-31.374c1.13-8.073 3.75-49.212 5.83-53.008l1.27.664c3.12 32.05 6.53 63.96 7.23 96.183.44 20.422 2.01 38.151-7.01 57.098-1.49 2.741-2.69 5.595-4.66 8.048l-2.43 2.999c-3.33-5.108-4.67-8.269-7.39-13.522l-.87 2.086c-.57 8.837.01 17.888-1.64 26.412-2.45-6.319.39-7.574-2.11-15.308-3.8 24.216-5.59 49.065-17.68 70.185-3.01 1.26-7.99 2.82-11.22 3.95-9.7-19.89-1.21-32.487 1.91-52.701a480.5 480.5 0 0 0 6.01-81.066c.35-3.122-.23-5.878 1.64-8.161 9.03-6.282 15.94-57.512 16.65-70.777 1.64-7.228.44-11.081 1.85-18.583 6.48 27.517 6.2 49.135 6.14 76.875"/><path fill="#586572" d="M1304.32 891.169c2.18 3.516 1.73 5.819 2.58 9.965.33 9.391 1.77 17.49 2.99 26.749-1.59 4.792-1.9 8.862-3.48 13.772l-.87 2.086a305 305 0 0 0-2.35-4.975c-1.12-11.858.56-35.106 1.13-47.597"/><path fill="#48525e" d="M1309.89 927.883c2.59 8.079 4.41 11.002 11 16.247-1.49 2.741-2.69 5.595-4.66 8.048l-2.43 2.999c-3.33-5.108-4.67-8.269-7.39-13.522 1.58-4.91 1.89-8.98 3.48-13.772"/><path fill="#5f6c75" d="M1303.19 938.766c.8 1.651 1.58 3.31 2.35 4.975-.57 8.837.01 17.888-1.64 26.412-2.45-6.319.39-7.574-2.11-15.308.44-6.437.35-9.398 1.4-16.079"/><path fill="#48525e" d="M1304.32 891.169c-.2-5.305.71-8.186 2.09-13.323.41 8.044.74 15.17.49 23.288-.85-4.146-.4-6.449-2.58-9.965"/><path fill="#1f2a34" d="M1246.49 1449.78c.63 1.65 1.28 3.3 1.96 4.93 4.24 10.4 14.18 30.07 10.09 39.81-10.01 9.96-47.13-14.07-56.43-20.35-59.81-40.39-109.68-95.9-156.84-150.02-10.44-11.99-65.499-75.94-67.831-87.18.409-.11.825-.46 1.227-.33 1.209.41 17.552 23.78 20.236 27.11 42.058 52.27 145.908 156.68 210.588 174.04 5.96 1.6 13.53 3.34 19.03-.49 3.83-2.67 4.92-7.01 5.56-11.38.04-.33.09-.65.13-.97.3-2.65.38-2.71 1.34-5.28 3.19 5.51 8.47 14.56 10.96 20.11-2.86 1.41-.75-1.09-2.97-1.6-.96 1.97 5.68 8.17 2.95 11.6"/><path fill="#55606e" d="M1234.21 1424.95c.3-2.65.38-2.71 1.34-5.28 3.19 5.51 8.47 14.56 10.96 20.11-2.86 1.41-.75-1.09-2.97-1.6-.96 1.97 5.68 8.17 2.95 11.6-4.05-6.42-8.79-17.73-12.28-24.83"/><path fill="#1f2a34" d="M1254.6 1264.31c1.1 2.59.88 2.59 1.03 5.54-3.26 6.05-11.12 44.51-13.64 54.27-5.5 21.31-11.39 43.62-17.04 64.99-3.31-7.53-6.7-15.04-10.16-22.51 21.1-34.41 26.71-65.18 39.81-102.29M816.524 733.544c-.011 1.6.001 2.945.042 4.527 1.526 3.769 1.193 6.414 1.527 10.433-.262 11.349-5.854 37.034-4.007 45.817l.124.803a120 120 0 0 1-2.314 5.796c-1.361 3.626-2.884 7.393-4.298 11.032l-6.689-1.377c-.182-21.475.201-35.247 6.871-56.033-1.433.289-2.61.46-4.053.661.147-2.369.207-4.082.63-6.428.314-1.664.611-3.181.854-4.857l3.123 1.105c2.962-4.846 4.543-7.089 8.19-11.479"/><path fill="#e1e1e5" d="M816.524 733.544c-.011 1.6.001 2.945.042 4.527-5.803 7.735-5.556 7.15-8.786 16.471-1.433.289-2.61.46-4.053.661.147-2.369.207-4.082.63-6.428.314-1.664.611-3.181.854-4.857l3.123 1.105c2.962-4.846 4.543-7.089 8.19-11.479"/><path fill="#313b48" d="M804.357 748.775c.314-1.664.611-3.181.854-4.857l3.123 1.105c-.989 2.009-1.436 3.002-2.264 5.077z"/><path fill="#767b87" d="m804.357 748.775 1.713 1.325c-.768 1.933-1.426 3.254-2.343 5.103.147-2.369.207-4.082.63-6.428"/><path fill="#1f2a34" d="M1292.24 1063.94c-2.54 3.76-11.02 36.65-13.2 17.08l-1.8-17.53c-.59-5.69-.64-15.38-.02-21.06.04-.31 2.2-.2 2.28-.21 11.49-1.56 13.21-19.59 17.96-25.14.3.55.82 3.34 1.09 4.29-1.97 14.29-3.82 28.33-6.31 42.57M823.392 689.767c.86 5.075.3 8.29-.828 13.426-.861 6.278-2.137 23.314-3.432 27.466-1.504 1.118-1.453 1.284-2.608 2.885-3.647 4.39-5.228 6.633-8.19 11.479l-3.123-1.105c3.184-14.976 9.533-31.974 15.021-46.294.805-2.779 2.066-5.163 3.16-7.857"/><path fill="#48525e" d="M847.232 958.34c3.46 2.58 9.712 7.126 10.296 11.82l-.624 2.166c-5.972-8.779-3.997 16.552-3.987 16.492-2.376-2.2-5.406-26.207-5.685-30.478"/><path fill="#313b48" d="M1233.38 849.582c.47-5.618.39-26.495 1.42-30.047l.08-.062c1.52.728 1.3 34.461 1.2 38.932-.61-3.207-1.94-4.907-2.35-7.149zm-29.4-9.522 2.59 2.088q-.195 2.96-.54 5.907c-.36 3.372-1.45 3.175-4.32 2.583l-1.85-3.656c.59-.686.78-1.296 1.63-1.254.07.065.12.145.19.195.1.066.22.096.33.149.08.039.92.579 1.2.455.42-.186.54-1.302.58-1.587.12-.864.02-2.055.06-2.911.03-.657.09-1.312.13-1.969"/><path fill="#48525e" d="M1254.6 1264.31c.14-1.19.2-4.44 1.83-4.58.46.44.72.87 1.36.82l.15-.18c.03-.85-.05-2.94.51-3.62.34.65.67 1.3 1.01 1.95-.72 4.3-1.01 5.2-2.27 9.28-.62.93-.78 1.06-1.56 1.87-.15-2.95.07-2.95-1.03-5.54"/><path fill="#313b48" d="M816.524 733.544c1.155-1.601 1.104-1.767 2.608-2.885-.1 6.735.192 11.196-1.039 17.845-.334-4.019-.001-6.664-1.527-10.433a131 131 0 0 1-.042-4.527M1280.3 876.729c.96 4.38 1.69 5.783 2.15 10.323-1.87 2.283-1.29 5.039-1.64 8.161-.71-4.372-.83-8.221-1.86-12.559.39-2.145.81-3.829 1.35-5.925m18.8-60.454c-.05-2.666-.31-24.041.35-24.667l.12.045c1.25 1.511 1.5 4.131 1.38 6.039-1.41 7.502-.21 11.355-1.85 18.583"/><path fill="#e1e1e5" d="m1313.39 737.142 3.71 8.805c.14.581.27 1.162.4 1.742l-.88 1.055c-.97 1.071-1.17 1.581-1.25 3.022-1.15-4.405-2.14-10.09-1.98-14.624"/><path fill="#313b48" d="M1277.38 1493.8c1.04 1.77 2.06 3.4 2.98 5.24-2.23 2.96-2.06 3.94-3.26 7.44-.25-5.3-.69-7.49.28-12.68M861.104 735.022c-.119-2.175-.902-4.566.496-6.013l.253.396-.578-1.058c1.341-.254 2.273 6.436 2.504 7.463zm200.316 54.865c.23 1.409 1.28 9.031.86 10.236l-.43.175c-.97-.729-1.32-1.851-1.37-3.009z"/><path fill="#95989f" d="M814.086 794.321c1.182-2.382 1.436-4.724 4.003-5.022-.759 2.419-1.119 3.788-1.624 6.283l-2.255-.458z"/><path fill="#313b48" d="M1258.89 808.021c.03-1.004-.05-5.268.65-6.091 1.04.665 1.98 3.924 2.4 5.137zm-29.18-16.975c.83.587 1.74 1.204 2.54 1.813l-.18 1.183c-.11.803-.15 2.516-1.25 2.535-1.03-.845-1.02-4.416-1.11-5.531"/><path fill="#1f2a34" d="M948.812 747.728c-.668-1.9-1.151-22.982-.108-23.901l.317.131.281.397-.229-.362c1.432 3.06.925 6.798 1.374 10.242 6.198 51.966 29.543 110.886 62.993 151.283-3.67-39.264-7.51-62.071-7.38-102.737l2.61.56c10.24 39.903 20.17 73.72 45.63 107.636-3.41-26.798-3.56-46.126-3.27-73.278 13.13 42.221 23.47 94.007 56.22 127.685-10.5-37.74-16.66-70.382-21.89-109.54.48-2.612.52-2.493 1.94-4.782 7.39 21.197 32.24 91.871 43.09 106.685l1.82.849 3.69-.618c3.69 15.523 9.47 35.949 7.73 51.665-3.9 35.357-43.74 1.073-55.3-9.808-29.89-28.115-48.5-63.953-68.01-99.39 3.01 10.977 4.14 14.737 8.73 25.476 3.64 8.503 11.72 24.323 13.29 32.46-1.77 7.393-5.83 12.11-14.12 11.271-40.801-4.133-72.324-49.911-93.974-80.929-5.798-8.305-19.647-29.726-21.744-37.39-8.392-30.669-6.719-68.652-6.448-100.357 1.212-.495 1.309-.541 2.593-.818 8.952 54.138 20.753 81.759 54.81 125.16-10.036-28.858-14.498-77.156-14.645-107.59"/><path fill="#313b48" d="M948.812 747.728c-.668-1.9-1.151-22.982-.108-23.901l.317.131.281.397-.229-.362c1.432 3.06.925 6.798 1.374 10.242-2.269 5.325-.836 7.732-1.635 13.493"/><path fill="#1f2a34" d="M942.423 938.725c3.505 3.669 11.74 30.232 18.975 33.335 7.294 3.128 7.116-4.34 9.987-5.6 7.893 13.577 14.784 27.379 23.444 40.55 30.021 45.64 74.331 95.65 122.541 121.66 4.04 19.85 12.69 40.43 15.49 60.83 2.15 15.64 9.91 35.19-14.35 30.01-19.11-5.11-41.87-27.25-55.54-41.39-61.22-63.32-110.991-142.85-144.199-224.195 17.893 3.117 17.453 1.755 23.652-15.2"/><path fill="#1f2a34" d="M971.78 929.595c16.029 14.287 68.35 54.72 76.74 13.262 24.44 32.584 33.68 55.114 71.83 80.253 6.11 19.75 11.18 39.46 12.83 60.15.11 3.67.54 12.55-2.68 15.58-5.28 5.55-18.96 2.49-25.29-.75-43.23-22.14-77.32-63.94-105.994-102.243-10.453-13.964-20.742-28.504-26.439-44.668-1.094-3.106-.957-17.581-.997-21.584m270.18 122.495c.68 2.37-.02 1.49 2.03 2.69 8.57-2.53 16.68-19.68 20.31-27.66 2.59 8.19.56 6.13 7.43 12.82l1.43 1.37c.07 1.3.15 1.72-.11 3.16-1.64 9.03-6.13 19.12-9.01 27.94-9.84 30.18-45.99 139.91-70.3 155.41-1.97 1.25-4.53 2.17-6.84 1.4-3.42-1.16-5.39-4-6.9-7.12-8.31-17.19-3.42-80.1 3.39-97.74 1.36-3.54 11.44-6.26 15.17-8.15 14.9-7.56 35.74-51.63 41.06-67.12.71.64 1.74 2.18 2.34 3"/><path fill="#1f2a34" d="M1147.53 1019.93c2.51 10.9 4.32 23.41 12.83 30.85 4.4.57 6.76.59 6.09 5.98-2.47 19.99-6.82 48.99 12.07 62.44a374.5 374.5 0 0 0-12.19 70.1c-1.3 19.08-2.11 53.61 11.06 68.81-1.93 14.03-1.79 23.74-.1 37.7l-5.89-10.45c-8.57-15.8-17.71-30.46-25.63-46.73 4.03-31.28-8.79-77.57-16.27-108.67 28.64-29.79-1.72-93.1 2.45-101.61 9.38-.53 9.2-1.55 15.58-8.42m121.11 53.51c5.74 10.46-1.97 21.8 13.16 34.91-5.67 26.1-67.16 205.98-86.77 203.73-13.06-16.63-11.66-34.61-15.04-54.19.64-.43 1.28-.86 1.91-1.31 36.67-25.86 79.03-140.53 86.74-183.14M880.977 916.701c1.698 1.562 4.811 6.72 6.228 8.823 9.06 13.447 11.459 16.648 25.292 24.783 4.325 10.51 15.357 59.633 15.383 70.703-14.451-1.88-42.743-54.708-44.984-69.601-1.298-8.624-.462-23.5-1.732-33.327z"/><path fill="#1f2a34" d="m1267.82 1179.73 1.32.51c-3.99 11.91-7.54 29.25-11.19 42.1-11.2 39.53-27.72 99.26-46.84 134.92-4.96-7.13-10.75-17.59-15.28-25.26 27.44-26.25 60.01-114.8 71.99-152.27"/><path fill="#313b48" d="M906.054 730.976c-.396-13.859 1.365-16.897 2.593-.818-1.284.277-1.381.323-2.593.818m100.006 51.805c-.13-1.824-.31-9.014.44-10.376l.27.037c1.11 1.491 1.55 8.677 1.9 10.899zm77.29 34.697c.74 2.395 3.68 11.515 3.95 13.584-1.42 2.289-1.46 2.17-1.94 4.782-.32-1.162-1.83-16.568-2.01-18.366m160.16 216.832c-.43 6-1.32 12.02-1.55 17.78-.6-.82-1.63-2.36-2.34-3 .68-3.95 2.77-10.94 3.89-14.78"/><path fill="#48525e" d="M1267.82 1179.73c1.04-5.71 3.88-6.26 1.32.51z"/><path fill="#313b48" d="M1132.21 938.596c2.06-3.611 2.92-7.633 3.69-.618z"/><path fill="#55606e" d="M1908.19 698.323c-.3-6.721-1.92-21.53 1.59-27.108 3.7 4.49 4.09 47.413 4.57 55.869.92 16.222-27.42 33.402-29.22 49.51-1.19 7.418 5.96 35.195 12.08 39.94 5.71-2.135 2.61-18.545 4.74-24.422 1.42 4.21 5.67 20.203 3.96 24.258-.36.854-4.65 7.719-5.5 9.047-.07 18.691 6.29 40.5 3.31 58.873-2.84 17.478-15.41 36.626-20.08 54.218-4.41 18.322-5.6 37.764-9.29 56.344-1.16 5.828 1.93 32.838 6.18 36.678 8.9 8.04 19.99-13.24 23.17-17.94 19.48-8.4 18.44-8.84 28.52-27.744 10.4-19.51 17.92-35.972 16.03-58.806-.7-8.532 3.19-24.926 8.9-32.034l1.33-.57c2.5 2.366 1.4 1.029 2.43 5.207-1.35 5.472-3.17 7.693-5.13 12.721-4.08 10.431-.72 20.555 1.88 30.902 22.99-17.228 27.74-42.751 34.96-48.425l1.71.418c1.16 6.557-8.51 16.928-7 19.58 1.53-.665 4.07-2.151 5.29-1.839 1.65 7.903-25.01 26.933-29.82 34.934-7.77 12.918-14.06 27.449-17.87 41.921l1.65-.491c4.77-1.395 11.87-3.46 16.05.202 2.29-2.898 7.77-11.974 7.59-11.773l2.13.991 1.59-.673c2.33-.993 3.87-1.89 6.07-3.135l2.14.197c1.15 3.182 1 1.553.17 5.074-1.3 1.357-17.82 18.898-18.43 19.082-9.87 2.961-13.08 1.721-22.87 8.891-26.22 19.23-49.57 44.77-71.8 68.44-6.42 6.83-17.76 30.66-18.4 40.28.3 9.45 8.15 17.11 8.49 28.13.25 8.32-7.55 17.08-8.62 22.24-4.26 20.37 6.43 41.07 19.66 56.04 2.58 2.92 5.74 3.42 8.96 3.36 7.53-6.28 10.1-15.14 15.58-21.1 11.13-12.11 18.05-24.09 26.92-37.41 9.24-13.87 10.29-16.8 12.79-32.84 1.88-12.06-10.29-50.05-3.54-56.42 5.3 2.82 4.16 21.26 5.6 28.38l.85.22.03-.71 2.69.13c-.87 6.52-3.96 33.02 1.65 36.16 9.65-1.18 30.27-37.83 32.84-47.75 1.72-6.68-2.78-12.8 5.55-17.6l1.85.58c2.69 6.96-4.6 16.02-3.86 25.18l2.37.84c-6.21 14.45-38.98 48.09-45.91 61.59l1.11.87c16.77.31 16.19-13.43 33.25-22.95l1.29-.71c-6.82 10.13-14.48 16.85-20.89 27.99 7.07-1.32 16.29-5.64 22.61-4.49l-.15 1.37c-9.79 9.55-45.09-2.2-50.58 22.99-3.59 16.45-9.78 27.96-22 39.54-14.98 14.18-10.23 32.56-5.84 49.88 1.63 6.32.34 15.15 5.81 19.54 10.25 1.79 17.9-14 28.27-12.16 2.81 2.81 4.27 10.16 2.37 13.07-6.6 10.13-19.43 15.88-27.44 24.99-4.06 4.61-6.21 9.75-9.09 15.13-13.94 25.9-18.18 50.41-24.47 78.48-2.53 11.3-7.09 21.57-7.46 33.53-.87 10.15 6.58 19.65 6.98 29.24.33 7.77-8.39 29.58-18.86 27.02-11.29-2.75-10.17-26.23-17.07-32.47-8.42-7.61-13.58 8.34-23.69 9.5-6.02-1.43-13.1-10.83-15.33-16.06-5.26-12.33 22.33-22.36 27.99-32.83 6.68-12.32 13.92-23.23 16.82-37.22 2.76-20.4 10.5-33.98 18.36-52.47 4.07-9.59.44-28.23-1.13-38.28-1.45-7.18-.08-15.46-1.16-22.56-4.28-28.06-18.96-46.68-34.32-69.07-9.78-13.83-4.62-19.26-.12-33.51 7.06-21.57-2.36-30.19-9.45-46.88-9.48-22.34-11.16-20.79-29.57-35.2-3.61-2.82-7.78-12-11.68-16.27-3.46-3.79-12-9.03-13.93-12.55 2.75-.85 3.91.47 7.39 1.93 1.52.01 3.42-.84 5.03-1.24 1.7 2.04 12.18 7.6 17.45 12.26-5.01-21.17-11.17-42.11-22.32-60.94-7.3-12.34-12.75-25.503-19.36-38.095-4.07-1.786-15.29-5.983-17.49-8.449 2.43-.748 7.1.282 9.95.681-.13-1.661-1.31-3.76-2.05-5.411l1.36-2.959c16.23 17.531 17.64 27.604 30.87 44.143 8.28-18.292 10.33-39.024 8.28-58.768-.8-7.695-5.45-27.028-1.91-33.165l1.64.369c2.78 5.031 3.01 27.989 3.86 35.971.66.466 1.13.688 1.83 1.062.92.814 1.27 1.165 2.17 1.829-4.76 35.672-10.03 51.152 1.95 85.662 12.4 35.68 3.62 43.18 35.59 69.64 5.64-13.08 8.46-26.82 14.04-39.23 2.81-6.28 13.98-16.35 16.31-25.33 2.5-9.62-.07-20.16.75-28.82 2.14-21.34 5.01-44.516-.83-65.518-1.09-3.929-12.67-13.733-16.25-20.689 4.49-11.653 5.85-15.798 6.78-28.163.15-2.099-.04-3.105 1.18-4.681 2.37-.293 1.29 12.895 1.2 14.86l1.93 1.051 2.53-2.064 2.37.838-6.38 18.591c5.36 4.104 13.49 11.996 20.53 9.228 6.03-6.343 7.19-34.075 2.58-37.037-23.73-15.238-31.47-30.31-46.48-52.363-6.23-2.406-17.37-3.566-21.11-5.04-6.54-2.58-31.56-13.426-35.52-15.905l.24-1.014c6.94-.436 12.45 2.075 18.85 4.493q-6.33-13.335-12.42-26.784c10.74 14.937 19.71 32.532 39.7 34.712l11.44 1.255c2.98 2.825 5.74 6.759 9.85 5.668 2.05-3.977-.31-10.113-1.57-14.48-2.8-1.865-13.18-8.493-14.68-10.433-13.8-17.793-25.54-60.237-45.75-70.825-2.7-1.414-6.07-.967-8.92-4.866l.65-1.014c3.4.077 6.32.242 9.71.498.25-5.401-6.01-8.638-10.55-13.897-.87-3.811-1.04-2.043.26-5.509l2.2-.76c8.73 4.247 24.95 40.162 31 45.285 11.98-6.77 5.04-59.216 9.57-65.722l2.13.186c2.93 3.756 1.98 6.416 1.74 11.756 2.29 1.653 1.45-2.204 4.44-2.66-.63 5.056-3.63 11.091-3.92 15.727-2.06 33.055-11.3 49.966 11.07 79.693l1.17 1.527c3.8 5.066 8.48 7.551 13.84 10.99 3.73 14.595 12.45 30.07 19.14 44.859 8 17.67 28.49 32.459 38.89 6.387 1-2.512-.45-9.835-1.34-12.665-3.63-11.691-6.67-26.007-5.79-38.377 1.58-22.245-6.35-30.409-18.04-47.219 1.61-7.608 5.82-16.601 6.78-24.074 2.18-16.863-2.28-35.858-3.48-53.503 1.48-3.072.38-2.034 3.09-3.518 6.16 4.955 6.01 51.077 10.07 55.955 9.29-.959 23.39-30.532 26.65-39.04l-2.87-12.78c-1.8-8.555-14.27-16.478-6.3-17.684 1.81-.275 6.26 6.538 8.12 8.488"/><path fill="#586572" d="M1906.37 707.519c-1.8-8.555-14.27-16.478-6.3-17.684 1.81-.275 6.26 6.538 8.12 8.488.28 3.063-1.12 6.054-1.82 9.196"/><path fill="#767b87" d="M1840.39 910.19c.15-2.099-.04-3.105 1.18-4.681 2.37-.293 1.29 12.895 1.2 14.86-.78-4.109-.32-6.598-2.38-10.179"/><path fill="#55606e" d="M639.512 697.925c2.624-8.58-2.932-23.232 1.725-26.423 1.742.257 1.873-.176 2.664 1.095.989 1.589 3.266 53.179 3.339 59.432-8.084 12.259-23.286 28.249-29.675 40.504-3.096 5.938 5.413 41.187 13.021 44.474 4.809-4.402.596-18.896 2.673-25.275 2.331 2.331 2.883 5.714 2.75 8.65-.216 4.742 4.036 9.613 3.694 11.995-.716 4.993-7.097 11.007-7.152 16.262-.185 17.582 6.438 39.493 2.93 56.976-3.544 17.665-13.432 37.822-19.118 55.167-2.902 8.849-3.26 21.635-4.354 31.501-.646 5.832-5.815 17.205-5.829 19.184-.062 8.953.91 34.963 6.947 42.303.95 1.16 3.174.9 4.803.77 7.983-.64 14.386-17.16 17.307-19.33 13.379-9.96 18.463-4.22 27.362-22.347 6.261-12.755 15.067-29.886 17.647-43.837 2.908-15.729-4.055-29.588 5.654-45.121 2.346-3.753 2.711-6.057 6.757-9.269l1.538.803c-.885 12.191-2.526 12.3-8.395 22.926 1.412 8.465 3.023 17.276 4.053 25.765l1.167-.716c22.193-13.905 27.602-47.118 36.05-49.684 2.654 6.5-7.562 17.287-6.821 22.028l4.025-2.935 1.324.692.66 3.45c-3.815 5.229-9.949 10.249-14.793 14.959-17.372 16.891-27.749 34.373-34.034 58.032 9.199-2.979 9.359-3.611 18.604-.96 4.265-4.332 5.452-9.26 8.524-13.924 1.001-.116 2.469.113 3.508.221 2.708-.1 4.039-.479 6.574-1.259l1.66.672c1.295 5.85-15.407 19.873-20.07 26.084-7.548-.833-12.381.15-20.081 5.68-28.039 20.12-55.76 50.1-77.865 76.45-5.038 6.01-10.619 24.65-12.4 32.36-.604 16.15 15.638 22.14 5.738 40.53-9.913 18.42-8.793 40.86 6.939 55.68 3.89 3.89 6.496 13.74 13.168 15.57 10.486-4.95 12-15.07 18.359-22.28 15.068-17.09 25.281-33.74 35.281-54.1 7.517-15.3-6.494-63.9-1.712-71.2l1.904-.47c6.552 4.05.968 14.08 3.785 22.99 1.127-1.85 1.856-3.25 2.837-5.16 1.021-3.24 1.691-.31 1.649.07-1.758 15.8-.283 31.83-1.171 47.58l1.368 1.48 1.938-.08c8.586-5.74 28.362-36.19 31.92-47.31 1.382-4.31 1.153-13.11 3.721-19.86 2.477-1.41 1.175-1.21 4.052-.44 5.746 6.79-3.191 9.47-3.193 23.06l1.503 1.45 1.414 1.38c-7.714 11.66-19.118 24.96-27.484 36.66-7.634 10.68-14.324 14.4-20.02 27.42 4.507-.9 6.637-1.16 10.946-2.99 6.599-2.8 16.19-18.41 21.498-18.28-.66 6.53-10.302 13.06-15.402 20.99-1.068 3.38-1.717 3.99-5.058 4.65-.743.15-1.484.31-2.225.47-2.494 1.71-8.752 2.17-11.765 3.59-5.819 2.75-7.81 10.86-9.531 16.22-2.237 6.98-4.142 15.98-8.211 21.87-7.129 10.32-18.241 18.17-22.204 30.57a31 31 0 0 0-1.361 12.28c.184 2.26 9.399 40.23 9.973 41.37 9.29 7.42 15.883-13.01 27.777-11.22 9.776 7.86 1.292 17.24-6.678 23.2-42.671 31.91-45.236 92.7-57.958 140.33-1.312 4.91 3.896 18.03 5.662 24.35 2.914 10.43-3.461 30.23-14.994 33.51-13.675 1.02-12.606-26.81-22.602-34.07-6.531-.67-10.753 6.51-16.935 10.4-7.544 4.74-18.674-11.53-20.069-16.27-3.708-12.63 24.275-22.59 30.338-33.72 6.981-12.82 14.452-24.92 16.636-39.91 2.289-16.4 7.06-26.24 14.86-40.44 8.875-16.15 2.62-32.01 1.349-48.26-.749-15.56-4.721-44.62-13.537-57.67-12.856-19.04-20.731-25.5-29.59-48.58 5.866-11.34 14.282-31.55 7.356-43.38-6.628-11.32-14.427-28.38-20.539-40.15-1.371-2.64-15.162-9.66-18.438-12.5-6.763-5.84-10.154-13.51-15.955-20.13-2.91-3.09-9.654-4.87-14.661-9.61l-.016-1.9c4.966-1.16 3.53 1.83 8.158 1.34-4.778-7.31-7.49-11.52-11.238-19.32 5.795 5.59 10.568 12.77 16.958 18.08 6.699 5.57 11.532 7.64 18.596 13.45-9.091-38.53-24.906-66.46-44.326-100.327-3.843-1.304-14.9-4.202-16.326-7.587 3.296-1.021 5.93.326 9.751 1.276l.471-1.213-2.874-6.35 1.24-1.907c14.173 16.339 19.017 28.753 30.318 42.258l1.592-.2c15.42-23.172 2.699-81.059 5.823-88.128l1.57.2c4.37 5.051 1.423 27.47 4.656 36.692 1.237.905 2.425 1.75 3.606 2.731-2.49 14.17-8.15 43.705-5.471 57.395 2.336 11.94 9.345 30.46 12.913 42.79 2.164 7.48 4.595 22.83 7.739 28.44 6.064 10.81 14.071 17.57 24.074 24.32 7.957-13.6 7.181-22.65 12.676-35.08 5.006-11.32 15.238-19.72 17.742-34.36 1.709-6.46-1.862-13.75-1.244-20.19 2.129-22.07 7.248-47.419-.835-68.865-1.489-3.951-12.542-12.644-16.336-18.821 4.893-12.374 6.397-21.035 7.622-34.149-.001-.549-.084-2.434.075-2.762l.346.978.243.984c2.947 8.109.867 12.068 2.313 19.143 2.511.53 2.351.628 3.381 3.102l-3.293 11.967c4.569 4.402 11.305 10.39 18.085 9.358 6.518-5.079 8.737-30.383 4.594-34.399-20.135-19.514-34.171-26.924-46.049-54.232-8.62-3.404-55.919-14.783-58.884-22.362 5.101-2.247 14.194 1.787 19.905 3.645-4.291-9.332-8.965-16.906-12.779-26.807 15.465 21.338 19.484 36.2 49.343 35.872 4.906 3.31 7.712 6.246 11.907 10.316-.762-7.627-1.116-11.407-3.122-18.758-18.122-14.7-20.371-19.85-30.433-41.523-6.628-11.648-13.77-23.852-21.519-34.746-3.134-4.407-14.743-4.106-15.843-11.889 3.396-1.28 4.022 1.615 9.597 1.795-.007-6.118-7.173-8.631-10.919-14.663-.089-3.285-.512-1.754 1.744-4.605 9.774-2.512 23.948 39.986 31.696 43.95 11.447-3.127 7.204-61.709 10.323-65.629l1.913-.179c2.108 2.306 1.927 7.993 2.264 11.572l1.007.189 2.981-2.789c-3.716 11.752-4.097 22.048-5.804 33.991-2.374 16.614-4.343 28.918 3.414 44.62 4.315 8.737 7.472 15.532 12.886 23.577 16.813 4.179 10.479 7.694 16.997 20.415 6.885 13.435 19.283 57.119 39.906 50.579 5.375-1.704 11.102-7.499 13.259-12.955-1.048-11.592-4.958-24.511-6.328-34.65-3.154-23.347 2.907-41.816-16.109-59.043-6.609-5.987 3.069-18.913 4.691-26.439 3.97-18.409-6.258-41.362-3.053-59.918l2.727-1.068c5.254 6.772 3.1 12.584 4.149 20.416a548 548 0 0 1 3.816 38.69c18.117-12.856 35.155-37.476 24.535-60.164.796-1.694.721-2.105 2.148-3.099"/><path fill="#95989f" d="M672.184 1096.84c1.021-3.24 1.691-.31 1.649.07-1.758 15.8-.283 31.83-1.171 47.58-2.2-11.7 1.307-26.72-2.131-36.71-.367-2.16-.584-3.66-1.184-5.78 1.127-1.85 1.856-3.25 2.837-5.16"/><path fill="#e1e1e5" d="M672.184 1096.84c-.344 4.4.335 7.09-1.653 10.94-.367-2.16-.584-3.66-1.184-5.78 1.127-1.85 1.856-3.25 2.837-5.16"/><path fill="#95989f" d="M573.402 905.445c-.001-.549-.084-2.434.075-2.762l.346.978.243.984c-.168.43-.313.472-.664.8"/><path fill="#55606e" d="M1573.03 699.175c-.16-8.547-.82-15.808-1.57-24.314 1.52-3.039.35-2.209 3.11-3.15 3.38 3.399 4.32 51.106 4.46 59.478-9.16 17.125-25.89 29.251-28.6 45.8-1.35 8.217 6.13 33.528 11.79 40.324 6.19-6.658 5.56-9.053 2.32-17.973-.86-2.367-.67-8.589 2.78-6.331 1.74 1.137 2.14 11.528 2.34 13.833 5.57 9.143-.48 11.074-4.46 19.801.63 16.61 6.29 40.695 3.72 56.127-2.62 15.689-12.12 37.796-16.41 53.761-3.43 12.777-4.34 21.286-5.92 34.363-.66 5.44-4.44 17.543-4.53 22.493-.16 8.293.27 34.973 5.17 40.703 8.97 4.27 18.99-15.19 26.04-20.36 5.42-3.99 12.14-7.1 16.2-12.21 8.79-14.901 21.36-38.515 24.79-55.101 2.3-11.108-3.22-44.904 10.86-50.564l1.6.819c1.84 6.418-4.94 15.492-7.9 23.037 1.6 8.685 2.68 16.096 6.08 24.301 16.59-12.092 29.52-46.603 33.74-49.52l1.82.589c1.24 5.119-5.17 13.602-7.09 19.543 1.78-.742 3.45-1.409 5.37-1.699.87 4.438-11.06 15.999-14.95 19.686-16.21 15.394-26.81 32.848-32.13 55.351 8.78-2.066 11.11-3.908 17.75 3.34 1.66 1.877 2.49 3.212 3.94 5.261-6.49 6.037-12.18 2.816-22.59 9.367-21.3 13.41-33.22 28.86-51.34 46.16-17.79 16.98-36.32 37.93-39.56 63.62-1.64 13.03 16.51 25.89 5.64 42.19-8.53 16.73-4.52 39.79 8.05 53.59 3.99 4.69 7.28 14.39 13.08 15.69 9.27-2.49 13.35-14.91 18.62-21.71 7.46-9.62 15.19-18.13 20.63-29.17 21.58-34.46 19.16-41.16 11.78-80.69-.85-4.59-3.63-13.05.88-15.92l1.02-.64c6.24 4.19 1.94 21.68 5.69 29.83l2.72.12c-.5 7.62-3.06 30.13 1.1 35.11l1.69.13c9.55-4.94 29.95-38.35 33.16-50.2 1.47-5.4-2-11.8 3.61-16.25l2.87.6c3.36 7.04-4.05 15.52-3.14 24.45l2.77 1.58c-6.74 10.42-46.21 56.13-46.6 62.02 11.34 7.85 22.89-19.09 30.9-19.38.35 3.75-13.01 18.86-16.23 23.02 7.47-1.16 11.64-3.22 19.14-2.32l.34.93c-13.58 6.97-22.08 3.96-34.13 6.48-14.42 5.61-12.28 28.82-20.14 38.86-16.81 21.49-30.69 31.7-19.24 60.65 1.85 4.67 1.9 15.1 4.57 20.03 1.94 3.59 1.85 4.63 5.72 6.3 8.47-.28 20.87-26.8 28.26-6.26 2.23 6.21-10.33 16.14-15.04 20.12-39.31 33.15-42.84 92.62-54.17 139.58 1.13 15.89 13.27 30.4 1.96 45.98-21 28.92-22.08-15.51-33.26-24.1-6.55-1.09-14.45 6.92-22.61 11.14-7.15-7.79-11.31-12.44-16.06-21.86 8.75-12.25 18.97-14.61 27.13-24.18 8.37-10.7 19.2-30.55 20.4-44.25 1.86-21.24 11.45-31.32 17.67-50.26 4.27-12.97-.71-26.51-1.29-39-.64-19.68-5.24-43.24-14.49-60.83-6.95-13.22-24.38-26.36-28.05-42.74-1.79-8.03 4.86-10.88 6.82-18.48 5.28-20.49-2.03-34.15-12.22-51.06-1.89-3.58-4.92-15.54-8.32-17.7-18.71-11.88-23.26-17.18-35.49-35.53-4.79-1.8-10.55-3.16-12.68-7.64l.87-1.49c2.06.29 3.72.74 5.69 1.43-.91-3.16-4.09-8.48-5.78-11.57l1.22-1.95c12.75 14.81 14.16 14.24 29.39 25.98-4.95-37.17-27.34-67.8-43.89-101.118-9.85-3.421-11.95-3.745-20.99-8.943 6.56.919 10.1 1.957 16.47 3.754-3.61-5.453-6.64-11.298-9.77-17.045 7.16 7.03 11.49 12.056 17.6 19.761 4.96 6.255 15.32 27.141 19.8 30.211 7.61-2.87 9.76-42.936 9.59-51.442-.16-8.35-5.85-32.198-2.53-38.582l1.7.135c4.7 6.649 1.28 26.542 4.33 36.355l1.71-1.263c2.09.889 2.08.5 2.29 2.633-2.19 15.729-4.86 35.987-5.4 51.624-.61 17.61 10.37 40.95 14.91 58.08 1.51 5.66 1.86 14.79 4.28 19.23 6.7 12.31 16 18.95 25.17 28.07 5.35-12.56 7.66-24.18 12.4-36.41 3.95-10.17 15.57-19.49 17.99-31.5 1.78-8.81-.67-13.5-.78-22.19 4.02-25.3 4.83-43.021.2-68.671-24.33-28.566-17.27-7.283-12.01-47.082 1.61 1.578 1.93 1.637 2.7 3.51.13 2.832.24 3.347.88 6.127l1.13.276c2.58-2.929 4.16-5.703 6.24-8.998-2.04 10.006-4.1 15.492-7.64 25.085 26.24 27.599 28.31-4.671 23.74-25.256-7.73-8.036-20.27-14.344-29.47-25.137-8.29-9.724-12.92-22.969-20.27-30.23-13.62-3.122-45.4-10.583-56.07-19.22l.38-1.666c4.6-1.698 13.23 2.807 18.24 4.819-1.81-5.163-5.93-12.873-8.48-17.989l1.13-2.194c16.26 23.182 17.89 26.681 46.35 29.191 3.81 2.455 6.8 5.434 10.15 8.488-.81-6.596-1.15-9.582-2.96-16.014-5.77-5.168-12.9-10.267-17.13-17.024-11.69-18.636-21.24-41.977-34.84-59.293-1.87-2.38-13.02-8.43-16.15-10.185l-.2-1.784 1.44-1.33c3.57-.128 7.47 2.183 10.85 3.749-4.23-5.852-16.14-15.033-11.28-21.283 5.97.497 7.28 7.316 10.58 11.829 6.85 9.36 13.23 23.021 20.85 31.473l1.93-.696c7.15-10.724 5.83-48.248 5.73-60.98-.02-1.865 1.41-2.555 2.71-3.329l1.84 1.168c5.97 12.558-2.01 54.76-3.34 71.532 8.79 18.645 12.3 33.126 30.99 43.554 5.04 14.479 27.41 75.836 49.61 64.528 17.67-8.995 5.41-31.08 3.29-45.026-2-13.217.63-27.317-2.63-40.112-2.09-8.049-12.16-17.867-16.81-24.534l-.64-.939c2.35-7.891 5.46-14.952 7.61-23.607 3.21-12.934-8.46-50.336-1.36-57.732l1.62.304c4.32 6.537 6.86 49.216 7.15 58.929 15.33-11.922 22.6-26.022 28.61-43.935-2.56-11.069-9.87-23.429-10.34-28.861 4.53 1.087 7.06 6.295 9.51 10.02"/><path fill="#586572" d="M1562.22 817.313c6.19-6.658 5.56-9.053 2.32-17.973-.86-2.367-.67-8.589 2.78-6.331 1.74 1.137 2.14 11.528 2.34 13.833-2.75 4.624-.52 10.803-7.44 10.471"/><path fill="#55606e" d="m251.396 699.012-1.224-26.636 2.542-.859c4.721 11.662 4.464 46.932 4.645 61.248l-.696 1.132c-12.521 20.034-34.463 33.461-28.11 55.856 1.793 6.323 5.752 21.576 10.272 26.076 2.85-.493 2.684-.744 4.772-2.871 3.281-8.084-6.026-17.473-.856-20.149 4.155 3.299 4.665 12.173 7.335 19.678-1.413 2.769-5.197 10.006-5.596 12.713-2.994 20.15 5.711 39.728 1.813 60.297-2.856 15.071-10.035 27.941-16.455 43.106-8.255 19.5-4.944 42.319-13.081 61.891-1.877 4.514 4.074 33.376 4.288 39.776.265 1.97 2.072 3.44 3.516 4.37 11.157 1.91 16.008-12.68 20.003-20.9 11.456-3.41 19.595-3.95 24.689-14.931 7.196-15.515 14.746-30.472 19.486-46.945 3.5-12.161-2.812-50.414 11.865-56.088 6.663 3.81-3.722 17.337-6.249 23.135.864 5.738 2.204 20.618 5.673 23.99 6.658-.813 20.145-21.84 23.351-27.639 2.995 2.457 5.526 7.703 7.672-.271l2.777-1.899 1.85.829c-.754 5.95-10.841 14.069-15.742 18.283-18.994 16.333-25.517 34.416-33.045 58.197l1.149-.691c7.214-4.257 9.232-3.635 16.716-.094 7.538-8.001 12.613-24.898 20.284-32.729-3.378 7.76-6.337 14.298-10.198 21.811 3.124-1.844 5.676-3.945 9.137-3.833l1.512 1.156c-.187 5.267-14.368 17.969-19.634 25.159-1.754-.1-9.473-.63-10.772.07-21.403 11.38-35.817 28.79-52.569 45.47-22.658 22.56-48.023 42.26-47.406 77.72 13.253 21.23 11.712 18.16 1.325 40.28-7.931 16.89 7.086 52.38 22.976 60.83 8.506 4.53 15.207-15.07 17.657-19.48 2.409-4.33 9.932-9.73 12.833-14.18 5.109-8.11 19.804-29.66 22.844-36.96a62.3 62.3 0 0 0 4.13-16.09c.916-7.21.604-10.69.295-17.7-.413-9.34-9.375-35.29-3.774-41.84 3.056.49 1.81-.16 3.984 1.75 2.043 8.57-1.235 13.72 1.596 26.33.235.69.151.91.617 1.17.546-.07 2.052-1.07 2.775-1.42-.591 16.2-1.625 24.73 2.405 40.31 8.731-9.42 22.61-29.52 28.636-41.02l.865-1.67c4.305-8.15.739-26.44 7.934-27.82 8.054 5.1-2.343 17.45-3.235 27.62l4.199.54-.661 1.05c-5.175 8.05-44.679 56.37-44.915 60.8 3.425 1.17 6.459.3 10.13-.22 4.505-4.51 16.379-19.13 20.204-20.19 1.545 3.25-11.235 17.08-14.169 20.07-4.694 1.43 2.522 3.78-10.369 6.97-20.344 5.01-16.845 23.45-24.645 37.12-14.021 24.57-33.906 31.89-21.478 63.6 2.932 7.48 2.213 25.38 13.531 26.63 9.156-3.25 11.483-14.72 19.958-14.68 1.887 1.33 2.852 2.49 3.861 4.53 1.933 3.9 2.409 8.04-.063 11.87-4.081 6.31-13.321 11.97-19.06 16.85-15.537 13.2-25.017 37.33-31.084 56.52-2.713 8.58-18.034 74.19-17.699 80.11.446 7.88 4.021 14.43 7.569 21.27-.261 3.63-.435 7.65-1.272 10.93-6.515 25.55-25.839 29.25-30.088.14-.855-4.66-3.986-12.19-9.334-13-7.256-1.1-12.783 12.45-20.931 9.95-4.944-1.52-10.993-11.07-13.881-15.49-4.993-7.65 8.024-14.79 12.692-18.46 5.832-4.4 10.793-7.47 15.562-14.16a103.4 103.4 0 0 0 17.386-40.78c4.006-20.43 7.845-28.06 16.542-46.22 6.634-14.88 1.028-29.72-.018-43.89-1.505-20.38-5.104-42.98-15.324-61.02-11.298-19.95-36.304-32.37-22.089-59.42 10.183-23.13-2.706-32.25-9.143-47.89-10.024-24.36-3.675-19.84-27.69-33.55-6.08-3.47-10.189-21.59-23.361-25.74q1.593-1.11 3.17-2.25c-1.725-4.95-7.71-11.97-11.17-21.1 5.368 5.33 9.726 11.53 15.479 16.64 6.431 5.72 11.963 9.42 18.542 15.35-1.942-8.33-4.174-16.44-6.845-24.56-2.845-8.65-5.819-17.33-9.505-25.66-3.624-8.19-24.614-49.599-30.024-51.827-1.462-.602-2.972-1.113-4.44-1.74l1.83-2.714c-.599-1.946-2.783-6.578-3.704-8.662l1.61-1.861c3.684 4.127 9.164 10.123 12.026 14.712 6.911 11.084 10.338 19.292 18.901 29.152 17.501-35.364 2.227-78.772 7.219-90.378l1.436.069c3.208 3.672 3.438 28.356 3.913 35.709.144.753.231 1.796.606 2.496l.187.113c.369-.109.136.005.724-.504l2.352-.386c-2.624 14.645-6.03 34.421-6.157 49.161a69 69 0 0 0 1.649 16.03c2.39 10.79 7.935 24.89 11.117 35.98 3.82 11.81 4.198 23.6 10.502 34.55 5.542 9.63 13.45 12.78 20.733 20.36 7.651-14.06 7.708-22.7 13.385-36.3 2.677-6.41 11.214-15.84 15.025-24.3 6.451-14.32.058-20.81 1.406-30.05 3.5-22.11 6.016-45.971-.006-67.866-2.326-8.458-23.372-14.345-13.222-28.042 5.746-7.754 2.878-19.939 6.692-29.149l.657 22.719 8.793-18.077c-1.368 11.721-4.743 21.062-7.93 32.406 24.929 25.694 27.409-12.494 20.693-27.668-.616-1.392-15.485-12.068-18.654-15.061-8.851-5.801-22.462-34.406-30.778-37.7-8.565-3.392-46.455-13.607-53.255-20.544l1.143-1.359c6.017-.462 13.006 2.107 19.002 3.826-3.287-5.617-6.63-12.181-9.742-17.975l1.243-2.191c16.183 23.041 15.641 27.789 45.169 30.172 3.844 2.362 6.587 5.049 9.951 8.037.807-26.52-6.709-15.264-17.35-29.13-7.497-9.77-12.175-28.402-20.736-41.08.69-3.605 1.485-2.792 2.676-5.822 6.524-15.214 8.174-43.995 7.213-60.724-.199-3.466.174-6.116 2.51-8.419 3.037 1.451 1.969.355 3.373 3.34-.437 3.567-.558 4.928-.554 8.498l1.331 1.336 1.87 1.888c-4.345 12.178-7.339 45.799-6.832 59.169.209 5.523 12.595 37.046 19.889 38.802 2.499.601 7.312 1.09 8.818 3.646 8.695 18.893 31.322 101.692 59.301 53.518 2.654-4.57-5.005-25.029-6.27-31.051-3.447-16.398 2.618-34.907-6.518-49.763-4.425-7.196-13.559-14.137-11.937-23.133 1.143-6.638 6.46-15.146 7.075-21.039 1.477-14.154-8.136-42.876-1.958-55.477l1.301-.033c3.428 6.481 6.881 49.763 6.783 58.746 50.32-37.963 15.673-64.217 19.44-71.562 3.876 1.076 6.395 5.46 8.915 8.954m688.028 514.258c3.422 1.15 7.76 9.49 10.698 13.73 4.478 7.9 17.968 29.59 20.676 36.03 2.423 3.43 7.899 12.24 9.831 15.93a78 78 0 0 1-4.381 2.23l-.211.75 1.275 1.38c-1.676 2.01-2.133 2.15-4.332 3.65-.799 4.77 3.753 7.94 3.635 14.35-2.23.28-1.922 5.21-2.493 7.81-.144 4.43-.084 8.63-.027 13.05l.337 2.73-.843 1.87.336 2.15a98 98 0 0 0-2.849 2.48c-11.77 2.42-17.252-1.3-22.336-12.24-8.725 4.33-17.812 7.56-26.7 11.49-13.409 5.92-25.317 8.68-26.904 25.02-1.972 1.75-4.128 3.55-6.027 5.34-.325-7.15-.262-12.54-.013-19.71 11.187-16.53 15.424-13.57 29.09-22.02l1.389-.88c-7.21-1.27-17.31.15-24.548-.19-34.782-1.61-62.667 10.03-86.488 35.31-7.445 7.9-6.582 21.78-18.199 20.9-8.819-8.45-17.557-14.91-27.32-22.18-2.826-2.11-2.709-10.9-.458-14.36 5.246-1.95 17.832 1.8 24.621-.26 30.791-8.79 34.459-57.82.183-63.38-21.307-1.81-33.756-4.17-15.998-26.62 18.095-22.88 20.843 1.05 29.84 13.66 5.18 7.26 21.907 4.99 27.964 7.98 26.969 13.33 52.611 15.86 82.104 18.09 2.092-19.49 27.377-29.14 41.653-43.82l1.016-1.05a1084 1084 0 0 0-14.521-29.22"/><path fill="#586572" d="M959.798 1283.99c.862 1.66 8.39 7.96 10.505 11.14 4.47 6.71 3.36 6.24 3.819 14-.144 4.43-.084 8.63-.027 13.05l.337 2.73-.843 1.87.336 2.15a98 98 0 0 0-2.849 2.48c-11.77 2.42-17.252-1.3-22.336-12.24 2.792-3.51.367-8.62-.035-15.05.703-.43.948-.47 1.822-.81l-.949-7.18c.572-3.86.309-7.42-.135-11.28 4.008.11 6.769.63 10.355-.86"/><path fill="#1f2a34" d="M948.705 1304.12c.703-.43.948-.47 1.822-.81 1.383 5.54 3.898 15.17 8.74 18.83 7.654-.4 5.911 1.58 14.828.04l.337 2.73-.843 1.87.336 2.15a98 98 0 0 0-2.849 2.48c-11.77 2.42-17.252-1.3-22.336-12.24 2.792-3.51.367-8.62-.035-15.05"/><path fill="#e1e1e5" d="M959.267 1322.14c7.654-.4 5.911 1.58 14.828.04l.337 2.73-.843 1.87.336 2.15a98 98 0 0 0-2.849 2.48c-1.839-1.37-3.572-2.71-5.448-4.04-2.648-1.84-3.978-3.11-6.361-5.23"/><path fill="#313b48" d="m973.589 1326.78.336 2.15a98 98 0 0 0-2.849 2.48c-1.839-1.37-3.572-2.71-5.448-4.04 2.791-.13 5.193-.32 7.961-.59"/><path fill="#1f2a34" d="M919.575 1318.41c-3.142-6.74-11.812-20.47-7.751-26.97 7.492-12 6.313 6.84 6.386 8.02 2.968 8.32 6.123 12.45 12.869 18.27.736.64 2.946 2.24 2.694 3.3-2.257 2.41-11.594-2.03-14.198-2.62"/><path fill="#fafaf9" d="M976.037 1281.94c-12.012 8.87-16.386-27.45-10.055-19.25 1.368.14 3.502.43 4.816.34 2.423 3.43 7.899 12.24 9.831 15.93a78 78 0 0 1-4.381 2.23z"/><path fill="#5f6c75" d="M970.798 1263.03c2.423 3.43 7.899 12.24 9.831 15.93a78 78 0 0 1-4.381 2.23c-2.45-6.38-6.412-12.83-10.266-18.5 1.368.14 3.502.43 4.816.34"/><path fill="#fafaf9" d="M949.443 1284.85c.416-12.49 5.754-6.95 10.355-.86-3.586 1.49-6.347.97-10.355.86"/><path fill="#313b48" d="m949.578 1296.13.949 7.18c-.874.34-1.119.38-1.822.81-1.213-3.42-.925-4.94.873-7.99"/><path fill="#fafaf9" d="M930.13 1281.06c4.129-.15 10.515-1.32 13.114 2.55l-1.077 1.41.506-.32c-1.551 1.21-1.909 1.22-3.772 1.77l-8.071 1.04c-6.131.85-3.733-3.65-.7-6.45"/><path fill="#eba8a7" d="M748.4 688.129c-.04-21.772-1.973-180.616.904-188.2 2.816 8.783 1.474 33.208 1.489 43.658l.152 78.963-.005 44.385c-.007 4.923.27 17.575-.316 21.966-.906-.377-1.277-.515-2.224-.772"/><path fill="#de2c2e" d="M739.736 417.122c5.223-.097 10.696-.231 15.852.468-7.111 12.241-6.035 14.257-3.741 28.411.856 5.281 7.41 26.273-4.356 25.07a5.8 5.8 0 0 1-4.162-2.397c-7.712-10.855 13.672-34.251-3.593-51.552"/><path fill="#586572" d="M115.639 755.945c-1.286-1.922-4.981-7.891-7.011-9.576-3.368-2.796-7.765-5.068-4.708-9.832.996-1.551 4.81-1.006 5.739-.14 1.607 1.497 4.002 7.38 5.109 9.201 3.886 6.395 7.819 12.343 11.564 18.785 3.53 5.589 6.247 14.148 11.314 17.933-1.191 3.03-1.986 2.217-2.676 5.822-5.477-8.132-10.749-18.073-17.507-24.961-2.153-2.194-17.433-6.384-13.152-9.724 1.303-1.016 9.263 1.945 11.328 2.492"/><path fill="#48525e" d="M1094.99 334.734c5.13-.063 8.83.819 13.95.834 10.02 5.649 19.67 17.608 26.7 26.531l-2.68.047c-4.81-5.723-14.02-10.756-20.34-14.579l-.81-.497-1.75 1.8-4.16-2.769c-2.89-2.126-4.31-3.26-6.82-5.721-1.55-1.236-2.61-3.632-4.09-5.646"/><path fill="#767b87" d="M1099.08 340.38c3.07.131 5.26 1.4 7.51 3.562l-.69 2.159c-2.89-2.126-4.31-3.26-6.82-5.721"/><path fill="#e1e1e5" d="M1106.59 343.942c1.82 1.026 3.44 2.015 5.22 3.128l-1.75 1.8-4.16-2.769z"/><path fill="#586572" d="M1636.37 977.895c3.71-8.088 8.35-15.72 13.81-22.746-3.29 7.283-7.31 15.426-10.39 22.628 4.32-.595 7.86-7.096 10.56-.888 1.13 2.586-13.68 14.226-17 19.674-1.45-2.049-2.28-3.384-3.94-5.261l.78-1.325c2.8-4.67 3.94-8.213 6.18-12.082"/><path fill="#1f2a34" d="M889.109 1361.02c1.899-1.79 4.055-3.59 6.027-5.34 3.223 16.45 4.077 19.07 20.244 22.62 3.921-1.28 7.582-1.85 10.733-4.75.628-.58 2.027-2.22 2.631-2.11.151.19.295.29.116.57-9.244 14.6-31.747 11.09-37.78-4.52-.871-2.25-1.35-4.29-1.971-6.47"/><path fill="#de2c2e" d="M748.4 688.129c.947.257 1.318.395 2.224.772.832 4.419 5.421 18.95-.15 20.207-10.804 2.436-2.481-19.346-2.074-20.979"/><path fill="#586572" d="M323.379 915.262c1.643-4.059 4.498-9.403 6.017-12.64 7.567-16.124 9.9-6.217 3.232 4.735-1.616 2.655-4.485 7.434-3.773 8.241.639.182 1.601-.366 2.196-.607-2.146 7.974-4.677 2.728-7.672.271"/><path fill="#48525e" d="M884.508 595.394c-2.189 6.179.903 3.158 5.68 2.39-5.918 4.919-7.643 3.04-12.132 8.99-6.602 5.339-22.709 6.57-6.396-2.886 4.147-2.403 8.71-5.854 12.848-8.494"/><path fill="#5f6c75" d="M293.761 1166.6c-.257 6.64 12.789.56 12.203 1.16 4.832-4.96 11.902-.69 5.561 2.45-6.949 2.42-20.008 3.4-28.133 3.36 12.891-3.19 5.675-5.54 10.369-6.97"/><path fill="#586572" d="M684.923 1167.97c8.11 4.08 16.729-5.41 19.958-.64 3.603 5.31-25.075 5.88-27.241 5.76.741-.16 1.482-.32 2.225-.47 3.341-.66 3.99-1.27 5.058-4.65m1068.327-111.25c3.67 4.05 11.74 13.05 14.52 17.39-1.61.4-3.51 1.25-5.03 1.24-6.2-10.26-4.99-6.89-9.49-18.63"/><path fill="#313b48" d="m800.909 810.575 6.689 1.377c-1.894 5.874-2.952 9.796-5.288 15.571-.809-6.704-1.193-10.145-1.401-16.948"/><path fill="#586572" d="M637.364 701.024c-2.821-1.387-9.423-9.856-4.942-12.153 2.459.477 4.884 6.083 7.09 9.054-1.427.994-1.352 1.405-2.148 3.099M1982.3 956.597c-2.5 11.502-5.03 12.32-9.95 22.187l-2.13-.991 1.51-3.308a97.6 97.6 0 0 1 7.36-12.961c1.08-1.617 2.15-3.292 3.21-4.927"/><path fill="#55606e" d="M714.982 954.953c-2.478 12.998-3.352 10.288-6.915 20.34-1.039-.108-2.507-.337-3.508-.221a198 198 0 0 1 8.547-16.801z"/><path fill="#586572" d="M576.379 923.788c3.076-3.434 6.305-8.489 9.582-12.539-1.498 4.317-3.796 11.982-6.201 15.641-1.03-2.474-.87-2.572-3.381-3.102"/><path fill="#48525e" d="M510.916 961.234c2.244-6.824 2.887-9.877 5.751-16.764-.658 7.02-1.339 12.543-2.145 19.495-1.181-.981-2.369-1.826-3.606-2.731m-387.1-3.182 1.128-6.572c.176-1.025 1.066-3.755 1.86-3.326 1.63.881-.978 12.003-1.164 13.235l-2.352.386c-.588.509-.355.395-.724.504l-.187-.113c-.375-.7-.462-1.743-.606-2.496.7-.576 1.3-1.1 2.045-1.618"/><path fill="#e1e1e5" d="M123.816 958.052c.008 1.509-.225 2.229-.528 3.723-.588.509-.355.395-.724.504l-.187-.113c-.375-.7-.462-1.743-.606-2.496.7-.576 1.3-1.1 2.045-1.618"/><path fill="#48525e" d="M1192.13 1692.21c1.3 1.23 1.45 1.11 3.25 1.87-.39 1.73-2.05 9.21-3.59 9.3-.7-.61-1.65-4.12-2.03-5.16 1.59-2.6 1.77-2.97 2.37-6.01m587.65-735.12c.37-1.486 1.36-7.088 2.17-7.313 2.34-.653.19 11.343.1 12.861-.9-.664-1.25-1.015-2.17-1.829-.7-.374-1.17-.596-1.83-1.062.42-.668 1.21-2.014 1.73-2.657"/><path fill="#e1e1e5" d="m1779.78 957.09.1 3.719c-.7-.374-1.17-.596-1.83-1.062.42-.668 1.21-2.014 1.73-2.657"/><path fill="#95989f" d="M278.976 1107.38c.486-1.76 1.704-10.82 3.465-10.5 1.124 1.64.239 8.27-.073 10.25-.723.35-2.229 1.35-2.775 1.42-.466-.26-.382-.48-.617-1.17"/><path fill="#48525e" d="M78.54 983.643c-2.53-1.426-9.176-2.971-9.75-4.939 1.762-1.787 9.62 1.553 11.58 2.225z"/><path fill="#5f6c75" d="M318.973 1104.55c4.795-4.58 8.243-8 13.339-12.44-3.006 4.26-6.056 8.8-9.14 12.98z"/><path fill="#313b48" d="M881.442 446.23c2.061.84 3.28 1.248 5.371 1.901-.268 3.515.757 7.365 1.146 11.15-1.624-2.91-3.483-5.755-4.782-8.83z"/><path fill="#586572" d="M1453.78 943.224c-.87 5.471-1.95 12.142-3.16 17.572-.21-2.133-.2-1.744-2.29-2.633 1.27-5.424 3.34-9.821 5.45-14.939"/><path fill="#48525e" d="M103.333 1078.79c-10.103-5.49-5.952-7.15 3.17-2.25q-1.577 1.14-3.17 2.25"/><path fill="#586572" d="M1605.25 1108.88c.35-2.27.99-10.85 2.12-12.19.26-.09.14-.09.37 0 .96 2.16.34 9.67.23 12.31z"/><path fill="#313b48" d="M1320.44 744.619c.4 2.883.61 5.527 1.09 8.436l-1.74 1.357c-.72-2.738-1.24-4.117-2.29-6.723-.13-.58-.26-1.161-.4-1.742z"/><path fill="#767b87" d="M1937.54 1106.83c.81-1.78 2.22-11.04 3.73-10.37.42 1.14-.77 9.22-1.04 10.5z"/><path fill="#586572" d="M1507.38 911.947c-.04-1.995.02-3.534.17-5.527l.92-.807c-.12-.27-.23-.541-.34-.811.25-.226.12-.176.39-.189 1.21.745 1.51 9.379 1.56 10.844-.77-1.873-1.09-1.932-2.7-3.51m470.88 191.583c7.32-7.97 12.68-12.97 2.37.84zm-331-.69c3.56-2.76 6.38-6.3 10.18-9.38-2.43 3.62-5.03 7.36-7.41 10.96zm-933.289-.05c6.304-8.68 10.617-9.36 1.414 1.38z"/><path fill="#767b87" d="M1847.23 919.356c0 .001 5.23-9.92 5.49-6.057.04.555-2.57 5.638-3.12 6.895z"/><path fill="#586572" d="M1288.99 625.401c1.4.49 5.72 2.284 6.54 3.489l-.01.212c-.65.566-2.33-.074-3-.234l-1.52-.348c-1.61-.381-2.95-.707-4.59-1.027z"/><path fill="#313b48" d="M1197.4 455.123c1.3.768 5.28 2.805 5.69 4.281-.79 1.264-5.84-.74-6.82-1.013z"/><path fill="#767b87" d="M76.666 972.267c-.673-1.161-3.617-5.337-3.246-6.505.215-.173.086-.13.395-.107l-.026.137c1.91.817 3.288 2.846 4.487 4.614zm1657.284 1.889c-.68-1.119-3.28-4.593-2.54-5.871 1.31-.783 3.37 2.218 3.9 2.912z"/><path fill="#586572" d="M151.519 726.347c.529-.638 3.778-5.516 4.762-4.63.204 1.093-.985 2.349-1.29 3.281.007-.023-1.613 3.259-1.602 3.237z"/><path fill="#767b87" d="M1438.76 823.268c-.77-1.329-3.13-5.124-3.01-6.601 1.03-1.193 3.95 4.083 4.14 4.407zM465.717 972.319c-.554-.881-4.39-5.977-3.125-6.573 1.071.516 3.399 3.574 4.365 4.666zM116.693 822.33c-1.906-3.85-2.543-7.893 1.243-2.191z"/><path fill="#95989f" d="M1135.64 362.099c.62.77 1.45 1.455 1.27 2.516-1.23.743-1.82-.628-2.63-1.134l-1.32-1.335z"/><path fill="#767b87" d="M1423.7 1062.31c-.27-.54-2.43-4.09-1.2-4.6 1.11.27 1.82 1.74 2.42 2.65z"/><path fill="#95989f" d="M1321.53 753.055c.3 1.241.83 2.912.18 4.121l-.16.051c-.87-.538-1.35-2.023-1.76-2.815z"/><metadata><recraft-signature>{&quot;signed_by&quot;: &quot;recraft&quot;, &quot;signature_b64&quot;: &quot;6wlFvgG1QqQHK5h31hYcOVqxBY9ut7HOH2i+GdZqBcB25TwO1AA3GmPfbDdGt7m1nvUY+vrCdIsdiQ5yx3KTCw==&quot;, &quot;signing_algo&quot;: &quot;Ed25519&quot;, &quot;generation_timestamp&quot;: 1777235082, &quot;identifier&quot;: &quot;d1d41e96-2886-498e-8e88-2bd2878d5127&quot;}</recraft-signature></metadata></svg>