<svg xmlns="http://www.w3.org/2000/svg" width="1024" height="1024" preserveAspectRatio="none" style="display:block" viewBox="0 0 2048 2048"><path fill="#050607" d="M988.647 377.44c63.133-3.29 161.683 1.256 222.193 24.138 6.77 2.583 18.48 9.781 20.3 17.063 5.16 20.668-40.78 30.312-53.86 33.939l-.06 14.816c5.55 1.438 9.93 2.685 14.78 5.729 22.97 14.426 22.06 51.388-4.45 61.333-4.79 1.797-8.96 2.241-13.9 2.896-51.3 45.519-55.63 113.377-8 163.761 31 32.788 43.62 44.222 47.32 90.462 6 75.065-62.26 86.691-77.01 150.65-8.51 34.926 5.59 76.483 30.29 101.833 31.69 31.04 43.66 49.83 47.02 93.47 5.84 75.83-61.27 90.35-77.64 154.25-9.8 37.63 7.01 77.21 34.36 103.11 31.12 29.47 40.12 40.39 43.47 83.11 5.45 69.35-56.92 86.26-71.23 146.34-5.78 24.28 2.19 54.74 15.54 75.47 27.42 8.45 44.91 14.5 71.08 25.95-.12 10.86-.05 21.72.23 32.57 8.85 2.94 19.62 6.37 27.61 10.91l.16 26.64-197.35.27-270.15-.11a688 688 0 0 1 .086-28.59c8.523-3.68 23.361-8.36 32.552-11.51-.04-9.8.24-22.06-.749-31.62 10.8-5.55 25.901-11.06 37.298-15.35-29.323-46.41-22.41-101.2 15.952-139.88 12.52-12.62 27.038-20.97 35.714-37.4 7.681-14.55 11.384-29.04 12.266-45.48 5.087-76.42-62.673-83.64-79.961-149.67-10.5-35.37 2.19-78.1 27.457-104.74 29.901-31.53 50.911-46.19 52.404-92.88 2.2-68.77-62.798-82.37-78.953-143.162-10.485-39.455.058-79.315 28.522-108.71 15.336-15.944 26.771-21.496 38.061-41.612a101.25 101.25 0 0 0 12.807-50.021c.206-74.915-64.743-77.198-82.326-143.372-9.054-34.075 2.037-71.374 27.778-95.259 13.933-12.929 22.901-15.229 32.53-31.956-13.023-17.376-15.17-31.795 2.029-46.965-4.852-1.521-7.958-2.92-12.564-4.943-.4-4.866-.097-12.023-.034-17.071-18.561-3.94-45.478-9.88-61.034-21.297-19.082-14.004.08-29.237 15.584-34.943 45.397-16.71 95.926-19.866 143.878-22.169"/><path fill="#57666e" d="M975.863 520.845c11.816 11.354-26.535 28.933-33.902 33.3a127 127 0 0 0-14.988 10.441c-51.728 41.887-42.435 89.851 3.267 132.34 5.944 5.525 12.482 9.186 19.059 13.818a100.44 100.44 0 0 1 30.74 34.975 97.6 97.6 0 0 1 11.437 53.888c-5.934 74.477-76.053 73.057-96.649 139.927-10.861 35.266 6.042 76.176 32.368 99.476 22.538 19.95 36.25 22.67 51.912 52.39a100.53 100.53 0 0 1 11.776 51.8c-1.703 44.36-27.87 66.3-59.827 91.01-14.49 11.2-30.498 36.16-36.303 53.75-12.209 36.98 8.461 74.53 35.873 98.76 19.878 16.48 38.934 26.09 51.114 50.27 20.84 38.38 8.991 90.01-24.843 117.14-26.157 20.97-50.724 38.58-61.595 73.03-7.991 25.31-1.925 45.56 10.033 68.63l-13.443 3.39c-10.638 2.78-18.859 5.09-29.346 8.68-29.955-42.08-22.73-101.85 14.822-136.23 32.412-29.68 45.174-40.7 48.584-86.59 5.603-75.4-66.235-86.64-80.921-152.53-7.786-34.94 2.177-69.38 26.006-96.58 30.318-32.46 52.883-49.01 54.852-96.64 2.937-71.08-67.278-85.84-80.594-150.41-7.633-37.009 3.085-72.008 29.137-99.498 13.128-13.785 26.739-21.958 36.994-39.572 10.635-18.269 14.296-31.52 14.874-51.992 2.205-78.081-67.447-82.046-83.145-149.816-7.645-33.006 4.085-68.052 29.095-90.389 15.181-13.56 20.809-13.186 32-31.214 26.774 16.791 47.647 15.88 71.613-5.554"/><path fill="#57666e" d="M1034.77 522.632c5.06 3.869 5.05 6.899 14.11 10.826 11.92 5.169 20.34 2.786 31.83-1.245-21.37 21.185-44.64 20.416-63 51.497-28.108 47.577 1.81 102.328 46.79 125.873 19.56 10.235 38.16 41.75 43 63.253 7.79 34.568-5.99 66.642-32.52 89.255-20.43 15.429-41.39 28.863-54.76 51.479-33.222 56.184-3 111.53 47.44 142.71 32.3 19.98 46.34 66.27 39.25 102.36-11.01 56.1-56.81 61.34-84.24 104.71-34.443 58.07-2.78 109.43 47.92 141.79 32.01 20.44 45.01 60.18 36.6 96.67-9.95 50.93-60.78 61.61-85.44 102.23-17.25 28.43-17.44 47.35-10.39 78.74l-1.33 1.29c-17.576.5-33.644 1.77-51.169 3.09-16.659-42.58-1.697-81.79 32.137-110.93 19.052-16.41 33.092-22.68 47.232-46.2 23.5-39.12 16.46-84.69-15.37-116.88-30.092-27.11-58.157-38.77-68.633-83.72-8.359-35.86 7.974-69.86 35.567-93.34 18.126-15.43 36.996-24.95 48.766-46.96 24.62-41.81 15.56-89.91-17.7-124.06-10.57-10.85-17.13-14.17-28.7-22.94-19.016-14.42-32.037-36.18-37.696-59.085-8.947-36.209 7.846-70.586 35.07-93.944 20.126-17.265 33.586-22.167 48.536-46.809 24.6-40.56 16.14-87.242-16.17-120.774-11.08-11.498-18.53-15.278-30.664-24.853-18.953-14.956-31.595-35.056-37.465-58.239-7.824-30.899 8.717-58.288 33.148-75.652 23.111-16.429 31.061-12.955 47.851-40.142"/><path fill="#57666e" d="M1147.93 520.549c1.22.634.74.245 1.64 1.255 7.85 8.79 10.54 10.799 20.87 14.606-16.69 13.298-26.66 28.798-34.29 48.613-16.37 42.492-3.79 83.212 25.34 116.501 15.23 17.406 30 27.753 39.37 50.035 7.26 17.23 8.94 29.185 8.87 47.362-.24 66.023-53.03 76.543-73.06 128.678-15.93 41.473-2.19 85.901 26.33 118.071 14.39 15.95 29.59 29.1 38.19 49.29 15.98 37.56 10.81 86.28-16.38 117.51-18.63 21.4-38.43 37.1-48.29 64.71-15.73 44.08-3.3 86.05 29.53 118.32 13.39 13.26 29.03 26.51 36.59 43.97 6.85 15.92 7.3 27.54 7.64 44.08 1.24 59.55-47.61 77.67-66.9 125.79-12.77 31.86-4.19 59.56 9.22 89.39-22.28-6.01-55.13-10.16-78-12.13l-2.14-6.84c-.34-1.14-.66-2.3-.95-3.46-9.89-39.67 4.04-73.39 34.08-100.09 19.91-17.71 31.46-20.28 46.37-45.71 26.26-44.81 14.54-85.85-20.06-121.78-8.4-8.72-17.72-13.52-26.95-20.66-17.09-13.2-30.47-33.85-35.52-54.77-9.13-37.85 5.12-71.41 34.26-96 18.41-15.53 33.01-21.78 45.94-43.77 24.42-41.54 16.63-94.48-15.18-129.81-8.76-9.73-17.02-14.43-27.19-22.23a103.03 103.03 0 0 1-36.95-56.598c-9.18-37.829 5.12-75.33 34.11-100.349 20.38-17.583 33.04-21.031 48.14-46.292 26.84-44.883 10.84-87.633-23.92-122.341-8.87-8.861-18.76-13.094-28.86-20.038-15.11-10.398-25.34-28.897-29.67-46.374a89.9 89.9 0 0 1 .76-45.366c15.13-55.932 51.7-41.942 77.06-83.573m-165.843 7.543c16.716 11.076 25.143 10.997 43.153 3.536-8.42 8.746-13.78 12.937-24.61 18.715-17.338 9.325-38.154 25.814-46.17 44.263-20.391 46.924 13.291 92.342 50.83 116.716 33.99 22.063 52.82 71.438 39.19 109.482-9.46 26.417-26.72 44.186-49.86 59.705-15.025 10.774-28.603 27.711-37.102 44.096-19.383 37.368-5.847 82.235 22.392 111.065 7.497 8.11 17.115 13.77 25.85 20.45 50.95 37.69 59.58 111.41 10.82 154.73-24.351 21.63-42.668 27.9-58.687 60.49-19.926 40.52-7.018 80.94 23.302 112.3 8.148 8.43 18.11 13.83 27.295 20.92 19.52 15.51 35.22 38.22 39.34 63.14 5.08 30.74-8.25 61.22-30.08 82.54-6.48 6.3-14.22 11.62-21.303 17.17-28.765 22.54-52.499 56.27-47.892 94.47 1.165 9.65 3.427 16.82 6.539 26.06l-10.331 1.25a732 732 0 0 0-36.059 5.76c-25.393-45.53-12.814-83.36 24.935-117.83 19.043-17.38 32.48-22.75 47.002-45.74 23.559-36.62 19.379-84.53-10.145-116.52-10.621-11.49-21.635-17.78-33.659-27.47-19.106-15.38-34.755-37.27-40.518-61.17-8.066-33.44 12.788-67.75 36.661-89.28 18.765-16.92 31.45-21.22 46.509-45.39 25.631-41.12 17.562-90.61-14.473-125.75-9.569-10.5-17.413-14.71-28.167-23.32-20.579-16.47-33.834-36.6-39.94-62.016-8.598-35.792 11.03-69.319 37.227-92.157 18.118-14.17 33.457-24.845 46.167-44.655 24.787-38.636 18.018-87.908-12.76-121.101-10.349-11.161-20.751-17.174-32.578-26.489-18.053-14.22-33.609-36.84-38.517-59.469-7.825-33.072 19.264-60.764 44.222-77.839 15.453-10.573 29.593-12.291 40.624-29.407z"/><path fill="#57666e" d="M1091.41 520.649c13.73 15.735 23.98 17.095 43.53 13.671-20.97 17.883-43.2 18.635-59.3 49.063-18.29 34.566-15.43 76.628 11.76 105.845 8.35 8.977 18.9 14.106 28.66 21.061 19.26 13.723 36.89 38.314 43.57 60.917 9.29 31.412-3.41 63.905-26.4 85.892-7.14 6.821-15.83 12.559-23.77 18.569a120.6 120.6 0 0 0-32.82 38.132c-22.25 40.799-14.32 86.251 16.86 120.161 8.48 9.22 16.46 13.72 26.18 21.16 17.46 13.36 30.48 34.23 36.64 55.21 5.06 16.8 5.75 34.61 2.02 51.75-13.29 60.81-58.06 57.06-84.51 106.45-20.29 37.88-10.49 82.58 18.69 112.89 7.93 9.14 18.82 14.61 28.08 22.12 49.62 40.28 57.9 101.73 10.71 147.8-6.62 6.47-14.04 11.33-21.16 16.86a126.1 126.1 0 0 0-34.72 41.05c-13.9 26.64-13.14 49.09-4.29 76.91-7.32-.83-13.6-1.05-20.96-1.32-12.28-.86-22.24-.92-34.55-.88-.43-1.38-.84-2.75-1.24-4.14-12.01-41.23 4.33-76.4 35.98-103.08 21.71-18.3 36.47-23.92 51.29-51.21a99 99 0 0 0 11.77-47.37c.2-47.13-31.97-69.72-65.48-93.68-13.42-9.6-27.23-33.1-32.09-49.03-11.45-37.59 4.75-73.79 33.81-98.4 20.33-17.4 37.63-25.05 50.99-50.78 21.58-41.56 13.57-88.54-18.77-122.06-9.35-9.69-18.02-14.39-28.56-21.96a107.23 107.23 0 0 1-39.63-56.146c-11.53-39.496 4.5-74.536 34.93-99.672 21.88-18.074 40.69-26.863 54.95-53.996 20.95-39.893 6.4-85.515-24.58-115.631-7.54-8.52-18.03-12.406-26.96-18.841-46.58-33.523-60.732-100.915-8.77-136.893 22.18-15.357 34.59-15.425 48.14-40.422M993.203 380.5c57.897-2.797 172.817 1.403 227.277 29.817 3 1.763 8.01 6.925 7.92 10.68-.38 14.839-31.03 22.725-42.05 25.527-41.17 10.463-85.22 14.064-127.54 15.558-56.07 3.21-175.017-.067-226.936-29.809-3.281-2.138-7.405-6.627-7.342-10.628-.212-7.179 7.945-12.953 14.046-15.55 46.077-19.619 105.463-23.6 154.625-25.595m19.287 1353c68.53-1.83 141 6.25 206.89 25.42 11.21 3.26 22.84 6.48 33.51 11.25.36 7.61.65 15.21.88 22.82-73.42.56-146.85.73-220.27.5-80.348-.36-160.734.84-241.086-.4-.351-7.79-.287-15.63-.407-23.42 69.7-27.18 146.297-34.55 220.483-36.17"/><path fill="#57666e" d="M990.53 1688.4c45.97-4.94 119.68 3.09 164.44 14.86 24.16 6.36 47.13 15.1 70.48 23.89-.18 10.07-.01 20.17.03 30.24-48.11-18.58-110.05-22.58-161.23-26.31-79.118-2.62-162.223.27-238.377 23.74-.362-9.33-.283-18.68-.322-28.02 50.721-25.82 108.853-34.52 164.979-38.4M893.916 456.212a884.7 884.7 0 0 0 214.044 6.624c22.62-2.09 42.65-6.057 64.26-8.565 2.4 1.958 1.66 2.082 2.32 6.118.53 3.518.74 4.033-.01 7.473-67.3 26.409-170.59 29.153-240.25 12.92-12.952-3.019-28.309-5.404-40.739-10.003-.059-4.666.224-9.862.375-14.567"/><path fill="#444d53" d="M1174.54 460.389c.53 3.518.74 4.033-.01 7.473-.5-3.683-.42-3.788.01-7.473"/><path fill="#57666e" d="M906.218 479.954c8.571-.381 16.802 2.128 25.297 3.88l4.496.93c12.956 2.614 26.738 5.146 39.87 6.672q-.227 12.162-.265 24.326c-6.124 6.711-6.969 7.382-14.588 12.185-20.043 10.574-44.203 6.851-60.385-9.329-6.228-6.226-6.17-14.394-5.555-22.625.537-7.176 5.917-11.896 11.13-16.039m269.022-9.013c5.15-.056 6.98 1.015 11.76 3.318a31.1 31.1 0 0 1 16.09 18.733c2.49 7.785 1.59 18.153-2.27 25.422a27.42 27.42 0 0 1-17.32 13.552l-3.02.798-.95.288c-13.98.213-20.64-4.34-28.28-16.162 3.75-14.884 3.73-22.461-.65-37.366 8.69-2.897 15.99-5.354 24.64-8.583"/><path fill="#57666e" d="M1144.04 481.249c2.28-.404 3.69-.258 4.6 2.319 10.07 28.427-11.33 60.668-43.42 44.71-14.8-11.412-12.11-20.224-12.18-37.884 1.96-.214 4.02-.356 5.96-.673l9.51-1.515c12.19-1.824 23.57-4.5 35.53-6.957M979.33 491.77c15.751 1.932 37.03 2.591 53.07 3 .1 7.514-.05 14.696.46 22.197-3.02 4.359-3.22 4.921-6.84 8.843-14.08 10.925-38.636 11.1-46.405-8.718-1.613-4.114-.522-20.142-.285-25.322m105.2-.313c1.12-.264 4-.794 4.3 1.007 5.34 31.315-10.8 48.295-41.57 36.784-4.77-3.548-4.82-3.616-8.27-8.054l-1.27-1.601-.1-.598c-1.55-8.485-1.57-16.231-1.76-24.745a609 609 0 0 0 48.67-2.793"/><path fill="#050607" d="m735.498 247.443 573.942-.187-.11 49.826-15.04-.298c1.25 19.637.74 53.008.37 73.171-16.64.095-35.41.441-51.93-.081-10.93.832-32.59.297-44 .328l-89.17.278c-105.57.423-211.151.211-316.723-.637-5.577.307-31.709.705-35.9-.693-1.433-3.106-1.804-64.538-2.066-72.497l-19.76.293z"/><path fill="#8d5829" d="M1292.03 317.858c1.58 8.684-1.02 24.638 1.64 30.338l.1-.021c.94-2.443-.03-44.42.52-51.391 1.25 19.637.74 53.008.37 73.171-16.64.095-35.41.441-51.93-.081-2.25-1.628-3.13-.263-5.89-1.759.47-20.734-2.69-49.971 22.14-58.345 12.53-4.226 21.25-.636 32.24 4.86.21.854.38 1.278.7 2.158z"/><path fill="#140e09" d="M1292.03 317.858c1.58 8.684-1.02 24.638 1.64 30.338l.1-.021c.94-2.443-.03-44.42.52-51.391 1.25 19.637.74 53.008.37 73.171-16.64.095-35.41.441-51.93-.081-2.25-1.628-3.13-.263-5.89-1.759 6.97-1.801 45.08-1.012 55.06-1.102.31-16.056-.52-33.395.13-49.155"/><path fill="#8d5829" d="M759.159 367.914c-.504-8.571-1.616-48.577 1.767-53.411 6.808-9.731 32.692-6.324 40.62 3.327 10.446 12.717 9.917 24.277 9.366 39.669q-.237 5.296-.66 10.579c-4.561 2.43-10.552-.456-17.415 1.765-5.577.307-31.709.705-35.9-.693.994-.014 2.265.197 3.194-.181-.054-.492-.593-.733-.972-1.055"/><path fill="#140e09" d="M759.159 367.914c6.034-1.14 45.354-1.296 51.093.164-4.561 2.43-10.552-.456-17.415 1.765-5.577.307-31.709.705-35.9-.693.994-.014 2.265.197 3.194-.181-.054-.492-.593-.733-.972-1.055"/><path fill="#57666e" d="M1026.26 250.507c37.87-.773 75.95.833 113.85.33 55.31-.734 111.11.832 166.38-.595.08 10.699-.02 21.399-.28 32.095l-286.96-.115c-92.792.317-187.588-1.614-280.11.08-1.036-11.04-1.103-20.601-1.088-31.672 33.423.908 69.601.225 103.283.225z"/><path fill="#8d5829" d="M1100.56 308.12c39.49-2.272 41.31 29.042 39.53 59.438a894 894 0 0 0-22.09.161l-41.98.23c-.29-23.574-3.22-50.753 24.54-59.829m-80-.893c35.77-.172 38.28 33.535 34.17 60.8-7.82-.052-15.64-.047-23.45.016-12.72.11-25.43.098-38.142-.037-.341-26.159-4.101-52.293 27.422-60.779m160.77 1.019c3.73-.329 6.37-.637 10.17-.384a27.06 27.06 0 0 1 19.08 9.817c11.54 14.006 11.12 32.261 9.76 49.349l-23.84.123-40.43.177c-.08-25.201-3.34-48.436 25.26-59.082m-346.655 59.382c-.965-.332-3.212-1.033-3.283-2.191-.812-13.388-1.807-29.355 4.024-41.122a29.9 29.9 0 0 1 18.076-15.396c7.673-2.426 16.299-1.36 23.219 2.64 20.194 11.672 17.595 36.024 16.363 55.528l-54.313.261c-1.054.356-1.889.458-2.991.355zm104.042-59.492c11.83-.624 18.535 1.182 27.258 9.859 12.552 12.483 10.018 32.737 8.331 48.944q-12.359.1-24.718.065l-36.873.073c-.371-24.252-3.379-50.658 26.002-58.941"/><path fill="#050607" d="M1502.98 1349.96c6.4.32 61.49 4.22 59.12 19.62-1.2 7.84-15.41 5.77-17.87 16.93l.96.88c4.61.13 8.74 2 12.02 5.27 3.57 3.59 5.48 8.51 5.26 13.58-.89 20.38-34.55 18.11-37.38 52.67-3.85 47.02 40.43 40.05 37.16 84.26-3.22 33.98-41.94 36.99-37.96 73.05.79 7.96 3.45 16.67 9 22.54 16.95 17.88 31.43 23.5 29.53 52.35-1.29 19.65-13.58 28.59-22.55 44.49-2.1 3.72-3.81 10.74-4.91 15.25 9.39 2.4 14.26 3.64 23.06 7.28-1.87 21.2 1.12 16.52 17.81 24.19.1 4.76.26 9.47.06 14.23-56.87.67-113.91.05-170.8-.02-6-.01-12.6-.09-18.56-.53l.06-15.19 16.88-5.88.73-17.04 10.27-3.06c-1.05-5.07-2.06-9.45-2.58-14.62 10.64-23.72 42.2-36.71 29.52-67.26-10.54-25.41-50.89-41.14-32.79-77.49 11.53-23.15 45.14-34.47 33.06-68.82-8.31-26.25-51.2-37.66-34.12-77.36 5.85-13.61 17.58-20.55 28.99-28.64-1.39-7.65-2.18-13.45 1.77-20.63-6.12-4.27-8.67-5.3-11.42-12.25-.11-.39-.21-3.6-.24-4.1-8.36-1.75-21.82-4.74-24.85-13.73.27-16.64 49.08-19.46 61.07-20.12 5.37.53 33.34.31 39.7.15"/><path fill="#57666e" d="m1544.23 1386.51.96.88c3.97 3.72 6.31 4.02 9.76 6.84 1.33 1.1 1.17.98 2.31 2.35 8.01 13.76-5.33 22.53-15.74 29.56-20.3 13.71-24.13 39.15-14.36 60.42 9.32 18.98 29.58 22.03 32.32 46.64.31.77.26.91.33 1.8l.02 8.04c-.1 1-.03.99-.35 1.76-1.54 25.21-36.03 34.11-38.06 63.92-2.04 29.74 15.89 34.44 31.5 53.58 10.63 13.33 8.96 37.29-.3 50.78-10.52 15.33-16.96 18.87-19.92 37.63-8.78-1.88-18.33-3.34-27.23-4.87 6.82-30.76 32.54-26.3 38.06-56.01 6.43-30.31-24.49-38.98-36.69-58.15-26.18-41.16 31.61-53 37.03-84.58 5.6-32.61-22-39.8-36.68-59.76-18.16-24.7-1.35-53.2 24.63-62.82 12.16-4.65 5.89-20.84 5.81-27.68-.01-.44 5.32-2.25 6.6-10.33"/><path fill="#57666e" d="M1427.06 1383.66c33.39 5.6 65.21 7.37 98.92 2.06 5.25-.83 10.37-3.3 15.66-3.05 1.12 2.85.93 2.73.5 5.82-8.98 15.96-90.44 16.42-106.05 5.07-3.57-2.59-5.16-3.81-7.7-7.32l-1.09 1.52c-.11-.39-.21-3.6-.24-4.1m11.28 39.01c5.06 1.49 9.75 4.78 15.12 6.36-10.39 7.06-20.72 16.33-23.43 29.22-6.35 30.09 26.99 39.71 39.63 59.8 4.24 6.74 6.07 13.75 5.93 21.69-.56 33.07-36.48 35.59-42.65 64.12-7.31 33.79 24.3 40.04 37.08 60.51a36.77 36.77 0 0 1 5.6 19.67c.12 30.8-31.29 34.06-38.25 62.36l-.32 1.36-1.39 1.58c-6.11 1.8-12.34 4.78-18.42 1.63-11.16-18.33 28.28-35.55 29.88-61.31 1.53-24.73-14.94-33.99-28.89-50.31-5.75-6.73-8.96-14.31-9.79-23.11-3.09-33 36.24-41.72 38.23-73.85 1.55-25.01-15.44-34.52-29.28-51.28-6.8-8.23-11.2-18.47-9.84-29.31 2.31-18.35 17.22-28.87 30.79-39.13m92.35-23.45.75-.26c9 2.75 5.81 19.5 1.9 21.11-36.79 15.17-51.45 52.86-17.04 80.77 13.38 10.85 25.92 19.95 25.18 40.4-1.16 31.96-37.13 33.67-42.63 63.29-8.18 42.85 42.85 41.71 42.22 80.28-.4 24.63-22.62 29.48-33.77 47.47-1.99 3.23-3.36 9.9-4.27 13.75l-8.95-.67c-3.71.04-8.57 1.09-10.16-2.47 9.33-26.62 35.57-24.91 38.29-55.22 3.46-38.51-38.87-37.87-42.68-72.28-2.95-26.67 20.2-34.24 34.38-51.08 11.45-10.25 12.35-41.46-1.53-51.94-22.27-16.83-52.26-46-23.49-74.75 16.36-16.33 30.51-1.07 25.48-35.25 6.23-.83 10.24-1.72 16.32-3.15"/><path fill="#57666e" d="M1469 1403.95c6.94.28 13.88.6 20.82.95-.03 5.49-.11 10.99-.21 16.49-4.46 2.47-9.2 4.44-13.68 7.2-27.07 16.73-31.82 46.84-7.38 68.79 15.08 13.55 29.01 19.92 28.76 43.08-.37 35-37.5 33.85-42.59 65.25-4.88 30.36 22.16 38.93 37.1 58.43 4.65 6.2 6.42 14.94 6.1 22.58-1.27 29.8-29.99 29.8-36.99 53.61-.7 2.38-.12 1.77-1.51 5.06l-2.67.75c-6.09.62-12.23 1.7-18.28 2.66 5.96-16.96 12.17-21.71 25.64-33.12 14.42-12.44 19.39-31.97 10.58-49.22-4.97-9.73-12.23-15.13-20.55-21.64-11.38-8.89-19.98-20.53-19.06-35.74 1.09-18.21 17.18-27.57 29.44-38.45 15.35-13.63 18.53-35.35 8.03-52.98-5.99-10.87-16.74-16.48-25.65-24.71-17.46-16.14-19.36-38.1-1.05-54.49 7.52-6.75 17.48-9.73 24.55-16.85-.2-6.79-.5-10.93-1.4-17.65"/><path fill="#57666e" d="M1502.22 1403.6c3.16-.48 5.54-1.23 8.45-.12 16.75 19-20.93 22.49-30.21 40.85-23.5 46.52 26.87 52.31 37.95 85.45 10.47 31.32-25.4 43.8-36.73 62.56a37.96 37.96 0 0 0-5.36 19.68c-.12 33.67 37.51 36.49 42.38 64.57 5.04 29.07-13.33 34.67-29.93 50.93-4.58 4.49-3.77 11-7.18 16.33-2.76 2.06-6.28 1.49-9.91 1.44-4.69.31-4.7 1.1-7.99-.84-4.44-16.63 36.85-28.95 37.64-55.93 3.12-30.15-23.16-35.83-36.65-54.84-30.17-42.49 30.52-52.55 35.19-88.12 5.98-45.49-49.95-43.07-43.83-86.61 2.94-20.99 20.94-26.19 34.87-35.32l1.07-.72c.22-5.99.15-12.56.21-18.6zm-112.92 386.24c.5-3.91-.1-5.6 2.98-7.73 7.83-5.4 17.19-7.46 26.34-9.45 38.3-8.32 79.28-8.8 117.76-1.18 8.94 1.77 35.5 7.58 39.27 16.84-.91 2.1-1.79 2.95-3.93 3.89-8.99 3.93-159.52 1.76-182.06 1.71-.93-1.8-.72-1.98-.36-4.08"/><path fill="#444d53" d="M1389.66 1793.92c-.93-1.8-.72-1.98-.36-4.08.25 1.75.3 2.34.36 4.08"/><path fill="#57666e" d="M1553.35 1362.21c4.33 2.22 4.98 2.27 5.27 6.83-11.53 23.43-162.75 22.92-153.25-4.37 1.81-1.79 3.11-2.96 5.56-3.89 32.87-12.49 110.44-12.62 141 .77.82.18.69.17 1.42.66m-77.6 386.27c14.36-.64 66.83 3.19 78.7 11.32 1.7 1.16 1.48 1.66 1.72 3.58.43 3.46.07 5.88-2.14 8.65-4.84 1.28-21.89-4.1-28.03-5.14-11.85-2.01-23.86-2.82-35.83-3.72-28.26-.8-55.86 2.67-83.22 9.65-.12-4.51-.72-9.26.98-13.51 11.34-6.91 52.93-10.32 67.82-10.83m-34.69-347.06c4.45-.93 20.2 1.75 25.7 2.54l.76 15.97c-4.55 4.41-5.77 4.84-11.35 7.66-14.27-4.47-18.36-6.78-17.48-22.7.85-1.36 1.35-2.25 2.37-3.47"/><path fill="#050607" d="M576.634 1346.15c5.319.82 17.487.63 20.074 1.57-1.057.66-.927.67-1.321 2.04 12.439 1.28 52.377 4.45 54.395 19.17-3.348 8.84-11.395 6.02-15.617 11.88.859 9.45 17.095 6.84 17.721 20.87.788 17.64-15.271 18.85-24.994 29.67-17.73 19.63-13.184 48.62 5.268 65.82 12.404 11.86 20.193 22.13 20.044 40.2-.284 34.48-39.669 39.17-34.865 76.99 4.113 32.37 40.17 37.68 37.552 72.32-2.236 29.59-23.561 34.17-26.895 64.77l20.914 6.52c.203 6.21.176 11.91 1.455 18.01 15.517 5.01 15.802 4.06 15.986 20.57-19.299.08-179.884 1.87-186.548-.56l-.928-1.15c-.618-2.48-.601-6.03-.731-8.75l.807-4.58c4.025-4.01 10.908-5.65 16.473-7.53.592-5.28.914-11.67 1.315-17.05l10.846-3.01c-1.859-4.32-3.247-8.58-4.775-13.03 5.99-25.39 27.717-28.58 31.836-50.03 5.758-30-14.912-38.16-29.021-58.13-4.545-6.43-6.527-15.39-7.021-23.19-2.119-33.49 31.097-38.33 36.302-65.92 5.454-28.91-14.98-37.59-29.3-56.17-6.349-8.24-9.966-22.95-7.08-33.12 5.869-20.68 10.396-23.09 26.987-33.61-.785-6.7.319-21.97-1.244-24.69-2.608-1.43-3.628-2.08-6.039-3.82-2.056-3.34-1.704-6.06-1.848-10.03-7.962-2.4-20.502-4.76-23.47-13.46 1.658-15.59 39.048-17.88 51.672-18.96-.137-2.22-2.72-1.49-4.737-1.7l-1.988-.21c10.367-1.55 27.812-1.11 38.775-1.7"/><path fill="#57666e" d="m478.144 1786.09 1.449 2.47c.912-3.23 1.229-5.57 4.491-6.87 55.545-22.16 121.684-21.06 176.903.77 1.316.88 1.195.89 2.228 2.25.147 3.15.733 5.53-1.026 7.97-8.616 1.9-39.307 1.32-49.235 1.33l-98.732-.16c-6.394-.01-30.223-.49-35.347.99-.618-2.48-.601-6.03-.731-8.75"/><path fill="#afaead" d="M576.634 1346.15c5.319.82 17.487.63 20.074 1.57-1.057.66-.927.67-1.321 2.04-9.207-.04-17.999-.98-27.887-.84-7.098.09-16.597.93-22.916.84-.137-2.22-2.72-1.49-4.737-1.7l-1.988-.21c10.367-1.55 27.812-1.11 38.775-1.7"/><path fill="#57666e" d="M635.049 1389.98c9.34-2.07 14.693 6.26 13.811 14.96-1.451 14.33-13.608 13.94-21.723 21.33-7.522 6.84-14.041 22.56-14.237 32.44-.467 23.39 11.475 34.29 25.905 49.59 6.695 7.1 9.911 15.93 10.64 25.53 2.375 34.08-32.757 37.84-35.254 72.01-2.85 39.01 35.46 41.25 37.884 75.59 2.172 30.79-24.478 39.11-26.305 69.37-10.118-2.06-18.503-3.42-28.662-4.87-2.581-.24-1.503.25-3.175-1.74.195-18.9 30.483-34.65 35.457-47.05 18.782-46.8-33.123-46.22-39.402-81.45-5.915-33.2 23.667-40.08 36.237-58.59a37.7 37.7 0 0 0 6.519-21.41c-.068-34.56-37.767-37.3-43.185-68.19-2.44-13.91 3.898-33.89 17.983-39.38 7.675-2.99 13.899-4.91 18.755-12.17 4.82-7.2.701-11.46.962-19.52 2.152-4.04 3.446-3.86 7.79-6.45m-107.328 31.66c4.365 3.27 8.548 5.06 13.74 6.71-8.878 6.26-17.443 15.35-20.423 26.03-8.699 31.17 29.559 43.8 39.85 64.21 2.87 5.7 3.76 11.54 3.377 17.87-1.837 30.34-35.311 35.43-42.727 61.81-9.727 34.59 27.641 41.94 39.747 65.53 3.119 6.08 4.258 12.68 3.798 19.47-1.932 28.57-32.322 33.12-39.622 58.03l-.414 1.45c.325 2.79.695 3.51-.61 5.94-2.835 1.38-5.691 2.82-8.874 3.14-3.118.33-4.888-.62-7.173-2.59-9.88-21.93 25.305-36.35 29.56-59.91 4.968-27.5-15.831-37.53-28.976-56.53-4.634-6.7-7.011-13.85-7.533-21.96-2.027-31.53 31.607-39.26 36.486-67.81 4.869-28.49-14.991-36.27-28.548-55.28-6.817-9.55-10.464-20.97-8.283-32.71 2.933-15.79 14.168-24.88 26.625-33.4"/><path fill="#57666e" d="m619.499 1397.22 1.577-.46c5.046 1.77 5.849 8.55 4.407 12.59-8.754 24.54-31.959 7.14-37.941 42.6-6.362 37.73 18.633 39.1 36.672 63.86 3.694 5.06 5.615 13.6 5.499 19.7.857 31.4-37.898 35.78-42.774 64.59-2.367 12.14 1.008 26.35 9.477 35.62 12.823 13.82 35.6 22.55 33.574 45.57-2.888 32.82-31.742 29.44-39.19 64.05l-15.05-.38c-4.053.02-2.6.74-5.453-1.03 3.322-26.06 39.312-30.29 40.73-60.9 2.624-34.08-41.972-39.28-43.843-71.82-2.321-40.37 47.135-38.62 43.738-79.85-2.929-35.53-40.91-33.04-43.956-67.47-.905-9.55 2.273-22.16 10.195-28.45 17.644-14 29.433-8.02 25.627-34.86 5.544-.95 11.194-2.21 16.711-3.36"/><path fill="#57666e" d="m594.544 1401.41 3.017-.43c7.5 3.21 3.506 20.14-5.341 22.02-13.492 3.07-26.834 18.73-28.565 32.4-5.05 39.9 43.973 42.63 44.541 78.97.517 33.08-34.262 33.76-41.951 62.51-4.622 17.29.045 30.79 12.927 42.9 14.638 13.49 31.574 22.8 28.492 45.67-2.994 22.21-21.469 27.16-33.712 42.52-3.552 4.46-5.273 11.58-6.831 17.05-4.148.02-8.704.4-12.879.65l-3.357.16-1.339-1.33c-1.347-16.6 31.914-31.47 37.63-50.84 11.437-38.77-27.679-45.07-40.078-72.54-2.257-5-2.517-10.69-2.216-15.92 1.629-28.27 33.509-32.01 41.454-55.85 14.462-43.4-27.174-45.94-40.221-75.59-3.747-8.52-2.25-19.47 1.755-27.37 6.99-13.8 18.159-18.22 31.574-22.92 1.269-7.77 1.571-12.65 1.627-20.64z"/><path fill="#57666e" d="M558.033 1402.7c6.233.47 13.993.37 20.365.45-.028 5.34-.348 11.05-.547 16.41-15.068 7.58-33.765 17.48-36.825 36.78-4.355 27.47 25.109 40.39 38.732 58.35 4.977 6.56 7.533 16.09 6.197 24.19-2.643 31.08-39.41 33.37-43.747 63.64-5.936 41.42 44.409 42.27 43.926 79.45-.425 32.79-33.998 31.88-39.347 63.01l-.234 1.42c-6.043.6-11.681 1.66-17.755 1.56-8.005-9.54 17.071-28.33 23.077-34 10.776-10.53 15.947-17.1 16.582-32.49 1.543-37.43-46.277-39.72-45.438-75.93.37-15.99 15.509-27.32 26.848-36.7 21.858-18.08 23.983-47.22 1.631-66.02-13.005-10.43-29.558-23.56-28.212-42.25 1.545-21.44 21.454-28.99 34.577-41.38zm50.957-49.11c8.237.91 36.899 5 36.837 15.3-2.138 3.52-5.176 5.04-8.773 6.79-27.279 13.28-103.274 10.76-131.175.39-5.143-1.91-9.228-3.84-11.648-8.95.348-1.61.439-3.22 2.124-4.03 29.61-14.35 79.115-13.14 110.034-9.79 1.433-.25 1.348-.33 2.601.29"/><path fill="#444d53" d="M606.389 1353.3c1.433-.25 1.348-.33 2.601.29-1.465.15-1.531.34-2.601-.29"/><path fill="#57666e" d="M560.733 1748.42c29.597-1.16 57.354 2.8 85.565 11.6l.201 13.78c-19.503-6.28-39.17-8.74-59.454-10.73-30.44-.77-59.496 1.03-88.668 10.54l.679-14.81c20.479-6.04 40.393-9.12 61.677-10.38m67.466-366.12 2.225.25c1.827 3.59 1.687 1.85 1.199 5.29-4.38 5.86-16.03 7.32-22.879 8.64-28.429 5.49-54.685 4.51-82.514-3.49-2.046-.4-2.503-.79-4.443-1.66-2.373-3.74-2.33-2.53-2.482-6.43.638-.52 1.277-1.03 1.915-1.55 14.631.71 33.599 4.29 48.08 4.37 21.245.1 38.687-1.88 58.899-5.42m-100.404 15.1c9.758 1.63 18.026 3.76 28.084 4.94-.564 6.56.531 13.52-3.495 17.36-4.121 3.22-6.48 5.96-11.853 5.45-14.978-1.44-13.472-16.62-12.736-27.75"/><path fill="#050607" d="m281.015 1454.83 1.777-.35c5.55.86 15.839.64 21.907.79h2.426l.05.74c-3.101.2-12.303-.9-13.088 1.73 9.122 1.38 24.194 2.45 31.161 7.6 3.739 7.55-4.759 12.04-10.481 15.97 5.446 2.14 19.19 9.5 13.385 17.21-12.595 16.74-31.289 23.44-23.367 49.39 4.363 15.43 34.527 26.39 23.082 52.22-9.03 16.77-33.712 28.06-23.383 51.49 7.804 17.71 37.421 32.25 23.011 56.45-14.88 24.98-42.368 47.19 4.457 61.83.001 3.46-.435 9.25.995 12.08 3.93 1.87 8.555 3.41 10.393 7.25-.093 3.54-.241 3.31-2.359 6.23-7.821 1.97-125.286 1.12-135.298-.02-2.337-3.01-1.699-7.63-1.585-11.59 4.37-1.23 8.321-2.08 12.313-4.22l.16-9.49c2.724-4.99 10.71-1.74 15.398-8.95l-3.323-2.47c-5.291-6.02-9.924-16.91-7.903-25.09 3.973-16.07 21.069-20.25 22.85-38 2.93-18.56-12.835-23.78-21.107-35.86-21.791-31.83 18.074-42.36 22.633-67.65 2.271-12.6-5.277-21.49-13.886-28.79-10.079-8.54-16.518-18.63-13.309-32.32 2.844-12.65 11.85-17.15 22.18-23.64-3.374-12.03-2.517-8.58.433-18.9-9.363-5.7-3.316-5.16-6.205-9.57-1.718-2.62-8.291-.35-12.868-6.94-1.988-11.13 21.573-13.04 29.526-14.04l.015-2.21c8.151-1.23 21.864-1.5 30.01-.88"/><path fill="#57666e" d="M241.248 1507.91c3.364.9 7.483 2.15 10.872 2.57-7.857 5.09-17.309 12.5-18.601 22.12-3.752 27.93 36.655 32.77 32.18 59.84-4.24 22.59-31.476 23.25-31.848 48.49-.386 26.2 37.29 28.25 31.386 54.15-7.461 32.74-45.037 24.47-23.681 65.56-2.828 2.56-5.658 1.41-8.984.15l-.603.4-3.323-2.47c4.145-9.69-19.972-19.53 6.232-41.53 1.035-1.6 2.688-3.35 4.431-4.22 4.966-6.93 8.629-15.16 6.814-24.08-4.689-23.04-40.547-34.28-21.641-62.54 9.058-13.53 26.702-21.49 23.152-41.58-2.681-25.1-41.566-32.31-23.368-60.79 3.999-6.25 11.267-11.56 16.982-16.07"/><path fill="#444d53" d="M239.309 1712.97c-.941 2.04-2.289 3.5-4.431 4.22 1.035-1.6 2.688-3.35 4.431-4.22"/><path fill="#57666e" d="M216.571 1770.14c5.455-.6 8.363-1.96 13.471-3.47 24.832-7.31 51.501-6.98 76.756-2.07 6.646 1.29 22.6 6 24.689 12.85-6.549 4.06-23.194-1.85-30.9-2.81-25.31-3.14-59.688-2.96-84.176 4.99z"/><path fill="#afaead" d="m281.015 1454.83 1.777-.35c5.55.86 15.839.64 21.907.79h2.426l.05.74c-3.101.2-12.303-.9-13.088 1.73-5.4-.02-11.43-1.05-17.087-1.12-8.855-.1-17.249.8-26.01 1.3l.015-2.21c8.151-1.23 21.864-1.5 30.01-.88"/><path fill="#57666e" d="M292.707 1759.22c-2.768-2.78-4.279-4.43-5.907-8.13-11.561-26.27 20.777-32.51 27.026-51.04 8.788-26.07-20.726-32.44-28.027-51.17-10.873-27.89 21.002-33.43 28.575-54.03 9.943-27.05-20.945-28.66-27.933-48.09-2.438-6.77-1.922-13.83 1.009-20.11 4.121-8.82 16.184-18.64 25.215-22.18 2.351.68 1.6.27 3.486 2-15.567 17.24-23.3 33.86-6.354 54.36l.916 1.09c.987.57.77.44 1.539 1.41 4.418 3.89 9.685 8.28 12.609 13.41.313.45.627.9.94 1.34 10.755 35.18-34.195 36.23-24.46 71.48a45 45 0 0 0 4.265 10.36c.653.47.547.46 1.022 1.13l3.107 3.83c1.323.92 4.531 4.21 5.394 5.43 10.136 9.36 13.418 13.27 12.671 27.73-.078.99-.012.99-.278 1.77-1.956 23.96-38.349 29.71-16.683 63.37-6.346-1.18-11.855-2.43-18.132-3.96"/><path fill="#444d53" d="M309.735 1664.88c1.323.92 4.531 4.21 5.394 5.43-2.466-1.07-4.269-3.01-5.394-5.43"/><path fill="#57666e" d="M287.764 1493.36c2.256-.28 3.412-.5 5.445.62 1.397 3.39-.014 7.53-.729 11.04-5.588 4.6-13.046 7-18.122 12.11-5.221 5.25-9.395 12.03-9.152 19.67.478 14.99 13.008 23.26 22.92 32.37 4.958 4.56 9.222 10.68 9.314 17.64.216 16.29-12.571 22.06-22.336 32.37-6.299 6.66-9.62 14.81-9.118 24.03.818 15.01 12.736 20.62 22.477 29.61 5.379 4.97 8.429 10.7 8.482 18.1.118 16.49-12.962 22.83-22.982 33.2-5.461 5.65-9.528 14.65-6.991 22.57 1.097 3.42 3.112 6.32 3.123 10.02-2.619 1.99-5.108 1.4-8.343 1.48l-3.23-.18c-.838-.74-.975-.77-1.665-1.87-1.339-2.13-2.176-5.65-2.925-8.08-7.019-22.71 24.303-29.47 29.691-51.21 5.69-22.96-19.357-28.72-28.254-44.72-15.27-27.48 22.096-35.37 27.874-56.41 6.871-25.03-19.635-30.1-28.92-47.72-2.974-5.64-4.562-12.35-2.289-18.51 4.038-10.93 15.236-16.72 25.124-21.31.905-4.2.823-8.33 2.528-12.34 2.811-2.33 4.508-2.07 8.078-2.48"/><path fill="#57666e" d="M306.484 1490.18c1.709-.05 2.422.37 3.954 1.06 5.861 12.23-23.378 24.46-26.69 35.58-9.799 32.89 17.041 30.75 27.171 50.26 13.136 25.29-23.029 34.04-28.536 53.47-7.824 27.61 18.408 32.44 27.675 50.35 12.537 24.23-20.84 33.96-26.505 52.86-3.46 11.55.357 15.29 5.449 24.59-1.863 1.54-4.854.54-7.234.32-3.759-.02-7.348-1.22-9.864-4.15-2.711-3.15-3.461-7.24-3.177-11.3.946-13.49 9.518-19.19 18.508-27.5 6.611-6.11 12.331-14.12 12.483-23.46.267-16.41-14.761-23.21-24.26-33.71-4.907-5.42-7.567-12.16-7.085-19.51.876-13.33 9.697-19.34 18.792-27.46 7.154-6.4 12.445-13.18 12.749-23.18.511-16.85-15.413-23.69-24.952-34.72-4.485-5.19-7.708-11.84-7.009-18.85 1.598-16 15.529-19.26 25.825-27.99.275-.23.543-.47.814-.71.766-4.24.636-8.37 2.371-12.39 2.397-2.58 6.204-2.87 9.521-3.56"/><path fill="#57666e" d="m262.143 1493.49 14.797 1.11-1.396 11.13c-11.552 7.48-20.736 9.83-25.62 24.32-8.775 26.03 22.083 30.77 29.937 49.18 11.075 25.97-22.275 32.62-28.742 51.9-9.871 29.42 20.095 31.25 28.434 49.51 1.811 3.96 2.117 8.26 1.686 12.55-2.132 21.25-23.59 24.17-29.596 41.49-2.886 8.33.126 15.51 3.564 23.02l-.687.84c-2.957 1.49-6.484 1.39-9.736 1.63-1.298-2.09-2.621-4.16-3.847-6.3-14.369-25.05 21.051-34.47 26.237-56 5.995-24.88-17.449-28.43-27.338-45.32-16.073-27.44 23.648-36.39 28.315-58.28 4.82-22.6-18.895-29.9-28.3-45.76-3.182-5.37-4.684-11.48-2.869-17.59 3.306-11.12 12.855-16.49 22.486-21.33 1.816-5.51 2.437-10.37 2.675-16.1m-55.783 292.23c45.423-15.18 87.891-14.38 132.676 1.54.585 2.78.683 1.44-.787 4.06-6.183 3.57-32.647 1.96-41.733 2.01-30.119.29-60.241.18-90.357-.32-.379-3.36-.29-3.96.201-7.29"/><path fill="#444d53" d="M206.159 1793.01c-.379-3.36-.29-3.96.201-7.29.241 3.42.244 3.86-.201 7.29"/><path fill="#57666e" d="M259.218 1459.62c1.604-.81 1.588-.63 3.489-.34 13.327-.47 25.495-.29 38.786 1.85 2.409.39 23.902 3.44 22.989 8.26-5.428 8.93-18.949 11.17-28.488 12.27-23.157 3.03-48.843 2.56-69.795-9-12.128-6.7 20.122-11.8 23.002-12.1.769-.31.902-.24 1.795-.3 2.737-.26 5.478-.47 8.222-.64"/><path fill="#444d53" d="M259.218 1459.62c1.604-.81 1.588-.63 3.489-.34-1.557.86-1.605.61-3.489.34"/><path fill="#57666e" d="M236.893 1481.04c5.08.77 10.047 2.32 15.11 3 14.2 1.93 27.292 1.95 41.505.23 1.502-.18 3.002-.26 4.492-.54 1.002-.19 1.995-.43 3.006-.56 3.014-.37 8.208-2.34 10.981-1.8.585.12 1.081.51 1.339 1.05.43.89.182 1.7-.195 2.54-.551.2-1.104.39-1.652.6-4.809 1.78-9.892 3.59-14.981 4.36l-5.006.77c-11.292 1.7-44.514 1-53.189-6.06-1.236-1.01-1.21-2.08-1.41-3.59m6.426 9.07c4.352-.25 11.373 2.2 15.457 3.54 1.847.61.791 9.63.07 10.85-6.408 10.86-15.437.55-18.973-4.77.117-5.22.241-5.47 3.446-9.62"/><path fill="#444d53" d="M243.319 1490.11c-1.704 3.12-2.772 6.15-3.446 9.62.117-5.22.241-5.47 3.446-9.62"/><path fill="#57666e" d="M326.257 1493.04c.773 8.16-1.166 6.53-7.196 12.57-1.796 1.79-2.854-2.19-3.73-3.06-.272-.06-3.9 1.09-2.12-1.95 2.967-5.08-.837-9.57-.911-12.23 1.306-1.41 6.317-2.8 8.435-2.56l1.195 1.11c2.461 2.2 2.91 3.23 4.327 6.12"/><path fill="#444d53" d="m320.735 1485.81 1.195 1.11c2.461 2.2 2.91 3.23 4.327 6.12-2.026-2.55-3.71-4.54-5.522-7.23"/><path fill="#050607" d="M1790.07 1454.89c6.57.32 13.07.14 19.63.24l3.4-.24c6.23.22 12.58-.09 18.72.39-6.11 1.83-32.51-1.26-33.56 2.44 8 .89 34.17 1.89 32.21 12.83l-.98.31c-2.9 2.97-5.67 5.86-8.7 8.7 6.36 2.45 19.13 9.7 11.91 18.41-11.44 13.8-27.39 21.79-21.85 43.59 5.14 19.98 37.88 32.07 21.94 58.21-9.53 15.63-28.55 22.62-21.31 46.29 7.84 22.11 35.92 30.09 21.18 58.75-7.13 13.86-24.03 23.75-19.05 41.87 3.51 12.82 13.94 18.75 24.93 24.14 2.79 19.92 6.1 8.08 11.23 18.04-.17 4.13.29 2.12-2.09 6.09-7.81 1.71-37.76 1.09-47.02 1.08l-86.55-.15-.06-11.88 10.88-3.44c-.08-4.39-.43-6.53.91-10.61 3.84-2.64 12.86-5.29 17.63-6.89-6.1-5.34-11.8-12.97-13.44-21.24-3.66-18.45 12.98-26.06 19.72-38.45 15.95-29.34-18.9-37.5-23.19-58.63-4.5-22.16 11.66-30.55 22.57-45.07 3.21-4.27 4.29-10.4 4.46-15.67.65-21.42-23.63-24.86-26.92-43.6-4.12-23.48 9.83-24.54 17.89-36.67-1.67-9.66-.61-8.84 5.38-16.12l-4.6-1c-1.25-.96-2.06-1.6-2.32-3.3-1.78-11.42-8.52-4.66-14.17-12.27-.57-1.59-.77-1.59-.57-3.11 5.95-7.94 22.17-9.38 31.66-10.03v-1.83l3.21-1.06 4.05-.07c6.62.14 13.24.13 19.86-.04z"/><path fill="#57666e" d="M1790.07 1454.89c6.57.32 13.07.14 19.63.24l3.4-.24c6.23.22 12.58-.09 18.72.39-6.11 1.83-32.51-1.26-33.56 2.44 8 .89 34.17 1.89 32.21 12.83l-.98.31c-1.93.48-2.89.58-4.6 1.49-9.61 10.39-66.18 11.32-79.46 3.83-3.79-2.13-12.49-6.25-16.58-5.14-.57-1.59-.77-1.59-.57-3.11 5.95-7.94 22.17-9.38 31.66-10.03v-1.83l3.21-1.06 4.05-.07c6.62.14 13.24.13 19.86-.04z"/><path fill="#050607" d="M1790.07 1454.89c6.57.32 13.07.14 19.63.24l3.4-.24c6.23.22 12.58-.09 18.72.39-6.11 1.83-32.51-1.26-33.56 2.44 8 .89 34.17 1.89 32.21 12.83-.77-.95-1.41-1.84-2.14-2.82-12-10.14-53.63-8.67-68.72-7.41-1.47-.12-1.31-.18-2.61.35-7.72.7-18.29 2.17-25.09 6.2-1.48.88-1.91.83-3.63 1.06 5.95-7.94 22.17-9.38 31.66-10.03v-1.83l3.21-1.06 4.05-.07c6.62.14 13.24.13 19.86-.04z"/><path fill="#afaead" d="M1790.07 1454.89c6.57.32 13.07.14 19.63.24l3.4-.24c6.23.22 12.58-.09 18.72.39-6.11 1.83-32.51-1.26-33.56 2.44-14.44-.32-23.48-.88-38.32.18v-1.83l3.21-1.06 4.05-.07c6.62.14 13.24.13 19.86-.04z"/><path fill="#444d53" d="M1828.33 1467.73c.73.98 1.37 1.87 2.14 2.82l-.98.31c-1.93.48-2.89.58-4.6 1.49 1.14-1.54 2.29-3.09 3.44-4.62"/><path fill="#57666e" d="m1725.84 1769.95.82 1.1c30.62-10.58 60.62-11 92.42-5.87 5.96.96 16.81 5.39 19.03 11.34-3.23 4.77-16.21.7-21.53-.48-29.89-6.58-61.93-3.65-91.65 4.52-.08-4.39-.43-6.53.91-10.61m21.5-264.35c3.47.48 6.96 1.88 10.3 2.94-8.13 6.98-13.69 13.58-14.83 24.57-2.01 19.53 18.08 24.41 27.54 37.14 3.28 4.4 4.71 9.29 4.6 14.75-.46 22.29-28.85 26.32-31.77 47.95-2.87 21.19 15.72 27.04 26.02 41.14 20.7 28.35-21.4 39.94-24.6 63.51-1.17 8.61 3.5 15.29 8.45 21.72 1.09.53.42.11 1.69 1.67-1.56.83-1.25.86-2.68 1.07-3.19.46-6.32.46-8.95-1.64-7.69-6.13-10.37-19.77-11.09-28.97 7.05-15.56 24.07-23.82 24.04-42.7-.03-13.42-9.77-20.71-18.12-29.63-5.07-5.41-8.52-11.72-9.18-19.19-2.2-24.75 27.25-31.44 27.61-55.49.23-15.33-10.92-23-20.39-32.91-4.75-4.96-7.85-11.95-7.33-18.89.9-11.86 10.38-19.82 18.69-27.04m75.88-9.66c-1.57-5.29-2.93-6.95-1.69-11.82 6.09-3.65 11.07 7.77 10.44 11.42-1.3 7.61-23.28 16.58-24.94 23.08l1.97.55c1.93 2.85-1.71 11.25-1.17 16.99.53 5.68.89 6.79 2.48 12.24 1.97 1.79 2.11 2.9 3.19 5.48.64.4.6.64.93 1.39 1.67 1.59 5.58 5.11 6.71 6.87 6.22 5.64 9.71 8.05 12.44 16.14.7 5.18.6 8.59-.28 13.67-4.11 19.65-26.01 17.12-24.98 49.28.65 1.15.49 1.1.31 2.61 1.21 4.03 2.03 7.29 3.96 11.09 1.56 1 2.12 2.29 2.83 4 5.33 5.38 11.8 11.35 15.53 17.82l1.21 1.63 1.32 5.86c.3.85.25.87.36 1.76.36 9.3-.42 15.7-6.34 23.19-1.25 1.72-1.83 2.85-3.64 3.92-16.42 19.77-16.63 26.7-4.87 49.27-4.07-.43-13.2-.86-15.5-3.86-4.42-5.75-9.8-12.99-9.64-20.63.43-22.17 31.24-26.55 29.88-49.86-1.44-24.83-30.97-23.92-31.44-50.19-.49-27.6 33.12-27.23 30.89-55.41-1.8-22.85-28.6-23.64-29.88-45.93-1.83-23.31 17.82-25.89 29.92-40.56"/><path fill="#444d53" d="M1833.58 1578.28c.7 5.18.6 8.59-.28 13.67-.3-4.54-.11-9.14.28-13.67m-19.15-23.01c1.67 1.59 5.58 5.11 6.71 6.87-3.17-.92-5.01-4.15-6.71-6.87m13.07 153.92c-1.25 1.72-1.83 2.85-3.64 3.92.39-2.33 1.63-2.59 3.64-3.92m-14.91-54.26c1.56 1 2.12 2.29 2.83 4-1.93-.88-2.11-2.13-2.83-4m-2.28-106.53c1.97 1.79 2.11 2.9 3.19 5.48-2.58-2.4-2.31-2.11-3.19-5.48"/><path fill="#57666e" d="m1796.56 1490.45 2.85-.15c.5 1.01.86 1.98 1.08 3.08 1.89 9.2-7.91 12.28-13.75 16.97-2.95 2.37-5.43 5.71-7.5 8.86-20.76 31.57 22.81 39.92 26.53 60.75 3.72 20.82-16.86 25.97-26.02 40.01-3.1 4.77-4.49 10.3-5.01 15.92-2.41 25.83 27.21 27.42 30.78 48.62 3.27 19.39-15.47 25.41-24.59 38.68-11.02 16.01-1.54 20.38.8 34.89-2.01 1.98-5.76 1.28-8.59 1.29-2.14-.24-3.46-.89-4.84-2.63-23.26-29.63 23.94-41.59 25.21-67.37.81-16.4-15.73-23.37-24.97-33.9-4.46-5.09-7.29-11.04-7.33-17.88-.18-24.36 31.01-28.29 32.52-52.26 1.09-17.23-16.51-23.59-25.68-34.7-4.59-5.55-7.99-13.29-6.88-20.62 1.92-12.68 13.55-16.12 21.83-23.23 2.76-2.38 3.02-4.31 3.22-7.77.15-2.47.24-3.96 1.49-6.19 3.14-2.15 5.12-1.98 8.85-2.37"/><path fill="#57666e" d="M1786.12 1759.21c-19.73-31.06 1.81-35.84 18.37-57.02 2.58-3.3 3.61-10 3.73-14.15.62-21.54-25.47-24.44-30.31-42.91-5.33-25.63 15.96-31.73 27.49-48.59 6.34-6.7 2.74-26.77-4.88-31.43-16.95-10.35-30.18-24.45-18.68-45.59 2.13-3.93 17.78-16.64 22.31-17.42-.88 7.82-5.82 7.39-5.51 10.84-4.75 6.45-7.67 11.81-8.3 20.11-1.89 24.63 29.23 27.92 30.27 50.36 1.16 25.07-28.15 25.01-30.78 50.24-3.25 31.03 29.41 28.58 31.07 54.84 1.28 21.72-28.29 25.87-29.04 46.61-.35 9.79 4.05 17.9 10.29 24.99-5.45-.04-10.6-.48-16.03-.88"/><path fill="#57666e" d="M1759.36 1510.78c4.24.11 8.39-.17 12.61-.46-5.89 5.6-11.93 12.33-13.36 20.65-3.71 21.47 19.91 26.83 28.89 41.08 16.85 26.77-24.27 37.56-28.55 59.33-4.94 25.09 18.13 29.18 28.59 45.44 16.1 25.03-23.44 37.41-27.14 57.58-1.84 10.08 2.54 17.85 7.81 25.92l-11.82-.64c-29.31-34.72 19.99-40.78 20.56-70.07.33-17.29-13.94-23.58-23.88-34.75-5.28-5.92-8.04-12.92-7.25-20.89 1.25-12.49 10.91-18.56 19.62-26.07 6.9-5.95 12.18-12.45 12.62-21.9.85-18.04-15.9-24.25-26.18-35.59-4.18-4.6-7.03-10.17-6.45-16.53.91-10.05 6.61-16.91 13.93-23.1m10.28 264.62c.62-.08 1.23-.17 1.85-.23 15.57-1.37 62.94 2.25 74.38 12.59.74 2.26.65 2.14-.39 4.29-9.86 3.47-40.69 1.3-52.73 1.22-13.59-.03-69.34 3.39-77.42-3.73l.24-1.9c10.98-9.44 39.61-10.73 54.07-12.24m-19.04-295.16c4.44 1.55 7.68 2.1 12.4 2.46 14.91 1.14 29.77 1.51 44.48-1.74 2.22-.49 8.51-2.48 10.57-2.32l.82.63c-.51 5.33-17.28 7.95-21.86 8.74-14.54 2.52-30.85 1.4-44.91-3.31-.8-.27-1.34-.22-2.19-.29zm3.6 8.64c2.92.18 5.45.51 8.31 1.04 2.71.51 5.33 1.13 8 1.79-2.24 4.8-3.79 9.36-7.75 13.07-.72.23-1.44.47-2.15.71-1.24.44-2.26.86-3.6.8-2.79-.14-6.8-1.42-8.64-3.67-1.29-1.57-1.7-3.66-1.45-5.65.39-2.94 2.44-4.75 4.76-6.36.84-.58 1.69-1.14 2.52-1.73m63.76-3.67c1.01 3.97 1.45 6.71 2.03 10.81-2.83 2.83-18.67 16.04-21.35 16.92-.31-3.45 4.63-3.02 5.51-10.84-1.29-4.79-1.06-7.71-1.31-12.64 5.05-1.45 10.08-2.76 15.12-4.25m-45.81 6.38c2.8.11 5.61.17 8.41.33.93.05 2.11.07 2.7.92 1.12 1.59.48 5.95.13 7.74-.83 4.17-4.43 5.91-7.78 8.01-.9.06-1.71.13-2.61.04-2.25-.22-5.37.02-7.48-.75-.56-.2-.78-.31-1.01-.85.23-.39.16-.32.51-.7 3.37-3.56 4.7-6.6 6.13-11.33z"/><path fill="#444d53" d="M1749.91 1484.41c-1.25-.13-4.21.01-4.86-1.55-.13-.33-.11-.7.06-1.01.63-1.1 2.65-1.08 3.73-1.25l1.76-.36z"/><path fill="#050607" d="M1430.77 1294.04c16.88-.06 35.4-.48 52.15.15l121.07-.17c.03 5.95-.23 15.13.12 20.79-3.91.16-8.09.41-11.98.29 1.24 8.74.82 23.69.76 32.87-9.96 0-20.51-.17-30.43.2l-1.61-.23c-13.52.13-27.03.07-40.54-.18-5.69.27-12.77.06-18.58.03l1.25 2.17c-6.36.16-34.33.38-39.7-.15.59-.9.48-.6.58-1.02-.86-.97-12.87-.75-14.92-.87-6.84-.07-13.94.07-20.79.15l-9.3.18c-9.57.12-21.04-.38-30.31.24-2.44-.28-1.97-.22-4.3-.98-2.52-4.53-1.66-24.3-1.75-30.91-3.06-.63-6.82-.73-9.98-.93-.4-6.77-.28-14.76-.33-21.64 19.22 0 39.48.37 58.59.01"/><path fill="#57666e" d="M1430.77 1294.04c16.88-.06 35.4-.48 52.15.15l121.07-.17c.03 5.95-.23 15.13.12 20.79-.94-2.32-.59-1.55-2.36-3.52-5.34.42-18.6-.12-24.86-.14l-56.05-.09c-13.81-.04-142.07.65-146.41-1.12-1.7.93-1.52 3.79-1.92 5.73-.4-6.77-.28-14.76-.33-21.64 19.22 0 39.48.37 58.59.01"/><path fill="#35393c" d="M1372.18 1294.03c19.22 0 39.48.37 58.59.01-6.48 4.04-45.21 2.97-55.56 3.05-.01 5.75.17 7.28-.78 12.85-1.7.93-1.52 3.79-1.92 5.73-.4-6.77-.28-14.76-.33-21.64m110.74.16 121.07-.17c.03 5.95-.23 15.13.12 20.79-.94-2.32-.59-1.55-2.36-3.52-.99-4.15-.59-10.28-.53-14.71-13.79-.01-36.31-1.38-50.22-1.68-14.82-.32-57.04 1.5-68.08-.71"/><path fill="#8d5829" d="M1387.68 1345.74c2.17-32.96 35.21-32.09 31.23.63l-.06 1.88c-9.57.12-21.04-.38-30.31.24z"/><path fill="#140e09" d="M1387.68 1345.74c10.01.7 21.84-.41 31.23.63l-.06 1.88c-9.57.12-21.04-.38-30.31.24z"/><path fill="#8d5829" d="M1428.23 1346.48c-.95-5.6-1.21-13.59 2.35-18.18 10.84-14 16.83-6.06 24.7 2.64-.03 5.17-.18 10.28-.18 15.45l.04.55c-2.16.27-4.05.59-6.2.98-6.84-.07-13.94.07-20.79.15z"/><path fill="#140e09" d="M1428.23 1346.48c6.83-1.1 19.56-.3 26.87-.09l.04.55c-2.16.27-4.05.59-6.2.98-6.84-.07-13.94.07-20.79.15z"/><path fill="#8d5829" d="M1590.7 1329.49c.18-.01.36-.02.53-.02.49-.49.38-11.19.9-14.37 1.24 8.74.82 23.69.76 32.87-9.96 0-20.51-.17-30.43.2 2.42-.54 3.06-.83 5.44-1.77l-2.58-1.06c1.23-16.55 13.24-36.14 25.38-15.85"/><path fill="#140e09" d="M1590.7 1329.49c.18-.01.36-.02.53-.02.49-.49.38-11.19.9-14.37 1.24 8.74.82 23.69.76 32.87-9.96 0-20.51-.17-30.43.2 2.42-.54 3.06-.83 5.44-1.77 6.83-1.12 14.97.33 20.84-.91 1.2-6.33 1.18-8.95 1.85-15.14z"/><path fill="#593619" d="M1565.32 1345.34c6.51-.32 17.16-.86 23.42.15-5.87 1.24-14.01-.21-20.84.91z"/><path fill="#afaead" d="M1455.14 1346.94c15.45.65 30.78-.25 46.59.85l1.25 2.17c-6.36.16-34.33.38-39.7-.15.59-.9.48-.6.58-1.02-.86-.97-12.87-.75-14.92-.87 2.15-.39 4.04-.71 6.2-.98"/><path fill="#8d5829" d="M1497.08 1345.38c-1.12-11.41 3.56-32.4 20.31-22.14 5.4 3.31 6.75 16.4 7.95 22.7-4.65.68-23.77.41-28.26-.56"/><path fill="#84532a" d="M1497.08 1345.38c5.26-.72 22.6-.1 28.26.56-4.65.68-23.77.41-28.26-.56"/><path fill="#8d5829" d="M1531.92 1346.29c.12-6.51-1.42-18.98 5.26-22.01 10.59-4.79 15.39-2.82 20.71 6.19l1 1.65c.15 4.85.29 8.06-.13 12.93l-.56-.06c-4.47 1.18-5.53 1.01-10.24 1-5.27-.03-10.83-.11-16.04.3"/><path fill="#593619" d="M1547.96 1345.99c4.8-1.07 5.31-1.14 10.24-1-4.47 1.18-5.53 1.01-10.24 1"/><path fill="#8d5829" d="M1473.42 1320.25c4.59.39 5.11-.43 10.08 3.25 4.81 3.56 8.34 15.37 5.63 20.98-.41.85-8.27.45-10.13.43-2.36.02-15.45 1.05-15.89-1.34-1.58-8.64 1.69-19.58 10.31-23.32"/><path fill="#050607" d="M459.792 1294.74c6.711-1.24 37.022-.79 45.425-.78l93.851.05c28.878.32 62.487-.96 91.002.59-.017 4.7-.145 9.66-.051 14.33-1.135 4.93-.096 3.93-3.325 6.05q-4.229-.09-8.459-.09c1.225 6.64.773 25.29.673 32.94-25.742.55-56.474.5-82.2-.11-2.587-.94-14.755-.75-20.074-1.57-10.963.59-28.408.15-38.775 1.7l-66.59.21c-.221-11.15.332-20.07-.32-31.76-4.801-.45-8.706.23-11.64-2.35-.001-5.97.341-13.13.483-19.21"/><path fill="#57666e" d="M459.792 1294.74c6.711-1.24 37.022-.79 45.425-.78l93.851.05c28.878.32 62.487-.96 91.002.59-.017 4.7-.145 9.66-.051 14.33l-3.483 1.73c-2.61 1.6-15.567.6-19.37.53-13.089-.11-26.178-.16-39.267-.14-54.685-.07-111.9-.91-166.325.7l-2.265 2.2c-.001-5.97.341-13.13.483-19.21"/><path fill="#35393c" d="M599.068 1294.01c28.878.32 62.487-.96 91.002.59-.017 4.7-.145 9.66-.051 14.33l-3.483 1.73c.25-4.45.4-8.91.45-13.37-7.701.1-88.366-.82-89.035-1.21-.451-1.15-.143-.66.381-1.42zm-139.276.73c6.822.65 14.497.14 21.497.19 21.726.15 43.508.03 65.237.51.194.06.388.11.581.17l.287-.1-.099-.03c-6.74 1.79-11.886.65-18.766 1.13-22.05 1.53-44.088.61-66.305.65-.037 5.3.25 9.2-.65 14.49l-2.265 2.2c-.001-5.97.341-13.13.483-19.21"/><path fill="#8d5829" d="M677.296 1331.74c.98-5.85-.391-11.24.939-16.85 1.225 6.64.773 25.29.673 32.94-25.742.55-56.474.5-82.2-.11-2.587-.94-14.755-.75-20.074-1.57 2.477-.28 6.131-.24 8.335-1.01 2.636-.2 4.366-.15 6.993-.13 7.608-.34 12.841.54 20.029.43l.866-.15c2.54 2.07 3.959 1.98 6.365-.2l.548-.07c8.943.59 17.295-.78 26.581.23l.683.09c1.581 1.52 2.713 2.44 4.262.26 1.429-17.7 16.974-38.05 26-13.86"/><path fill="#140e09" d="M677.296 1331.74c.98-5.85-.391-11.24.939-16.85 1.225 6.64.773 25.29.673 32.94-25.742.55-56.474.5-82.2-.11-2.587-.94-14.755-.75-20.074-1.57 2.477-.28 6.131-.24 8.335-1.01 2.636-.2 4.366-.15 6.993-.13 7.608-.34 12.841.54 20.029.43l.866-.15c2.54 2.07 3.959 1.98 6.365-.2l.548-.07c8.943.59 17.295-.78 26.581.23l.683.09c1.581 1.52 2.713 2.44 4.262.26 7.205-.92 17.644-.51 25.569-.93.298-4.24.209-8.58.431-12.93"/><path fill="#84532a" d="M619.77 1345.02c8.943.59 17.295-.78 26.581.23-4.358 1.15-22.259 1.47-26.581-.23"/><path fill="#593619" d="M591.962 1345.01c7.608-.34 12.841.54 20.029.43-5.118 1.74-14.788.62-20.029-.43"/><path fill="#8d5829" d="M635.795 1322.14c5.728 2.08 6.607 3.93 10.224 8.47 1.593 4.85 1.088 9.55 1.015 14.73l-.683-.09c-9.286-1.01-17.638.36-26.581-.23l-.548.07c.69-13.89 1.934-23.16 16.573-22.95m-50.826 23c.014-8.2-1.045-13.84 5.675-19.75 11.684-10.28 18.44-.69 20.549 11.1l1.664 8.8-.866.15c-7.188.11-12.421-.77-20.029-.43-2.627-.02-4.357-.07-6.993.13"/><path fill="#140e09" d="m635.795 1322.14 1.158-.68c8.17-5.22 8.977 4.13 9.066 9.15-3.617-4.54-4.496-6.39-10.224-8.47"/><path fill="#8d5829" d="M523.806 1321.05c18.247-.35 18.914 9.44 19.414 24.96-4.569.16-8.329.19-12.882.15-2.105.92-15.738 2.22-15.594-3.17l.054-1.49c.279-10.66.8-13.72 9.008-20.45m-46.282 24.5c.517-6.66.961-16.84 6.887-20.79 18.343-12.24 22.432 7.93 22.707 20.79-4.179.74-25.383.71-29.594 0"/><path fill="#593619" d="M477.524 1345.55c6.093-.85 23.697-.94 29.594 0-4.179.74-25.383.71-29.594 0"/><path fill="#8d5829" d="M552.714 1344.85c-8.287-.22-.132-18.21 1.038-19.06 19.667-14.37 23.094 10.2 23.389 18.85-6.394 1.41-17.961 1.01-24.427.21"/><path fill="#593619" d="M552.714 1344.85c7.107-1.1 17.267-1.3 24.427-.21-6.394 1.41-17.961 1.01-24.427.21"/><path fill="#db2a2c" d="M966.668 1869.09c23.445-.89 50.572 8.77 70.772 20.07 12.6-9.74 29.92-15.41 45.35-18.45 6.71 4.87 12.27 10.76 18.02 16.67-18.38-1.49-29.69-.89-46.01 8.71 6.45 4.07 12.95 7.68 19.76 11.09 4.42-.65 8.75-1.26 13.23-.8 6.84.7 13.47 3.78 17.83 9.19 4.42 5.5 6.05 12.68 5.3 19.61a29 29 0 0 1-11.26 20.02c-12.53 9.56-28.82 6.97-43.26 4.81-13.32-3.41-25.71-8.95-38.33-14.32-11.95 4.82-23.281 11.42-35.944 14.27-9.146 2.05-19.365 2.09-27.409-3.32-5.887-3.96-9.723-10.44-11.042-17.35a30.55 30.55 0 0 1 5.287-23.91 25.44 25.44 0 0 1 17.463-10.19c10.302-1.2 18.326 3.9 25.914 10.09 10.541-3.96 19.961-11.23 28.601-18.3-22.858-12.34-42.466-14.25-67.32-7.59 3.152-8.14 6.725-14.23 13.048-20.3"/><path fill="#fbfbfa" d="M1054.05 1911.94c5.26 3.33 11.32 7.4 17.49 8.72 6.25 1.33 15.54-2.01 20.87 1.42 2.57 1.66 3.67 4.65 4.18 7.53.62 3.52-.89 6.96-2.88 9.78-3.5 4.97-8.88 6.93-14.65 7.74-5.31-.04-10.32-.09-15.57-.9a85 85 0 0 1-5.02-.91c-9.47-1.98-17.34-5.62-26.01-9.74 6.07-4.67 19.11-12.37 20.82-20.12.13-.59.24-1.19.37-1.78.13-.58.27-1.16.4-1.74m-87.965 6.96c10.281.17 12.191 4.05 20.292 9.51 5.313 3.58 10.688 5.78 16.573 8.18-3.658 1.5-7.246 3.17-10.884 4.72l-1.746.76c-6.11 2.1-14.218 5.22-20.821 4.6-3.803-.37-7.577-1.82-9.935-4.94-2.531-3.35-3.324-8.16-2.603-12.25.627-3.55 3.543-6.72 6.404-8.71.904-.63 1.82-1.23 2.72-1.87m72.755-14.15c.63.2 1.2.26 1.66.73.42.43.46 1.33.33 1.88-1.61 6.7-25.6 20.4-32.14 24.22-.76-1.27-2.65-3.58-2.44-5.16.11-.82 1.47-1.61 2.05-2 4.07-2.74 8.84-4.68 13.06-7.24 6.15-3.73 11.67-8.22 17.48-12.43"/><path fill="#050607" d="M200.055 1420.29c47.913.27 100.798-1.61 147.961.59.11 3.97.805 8.78-1.076 12.04-2.324 1.24-2.137 1.25-4.759 1.24l-.369 5.68c.449 5.05.217 11.07.17 16.2-4.353.03-8.378.11-12.736-.18l-1.702-.02c-6.66.49-13.636.08-20.369.17l-.05-.74h-2.426c-6.068-.15-16.357.07-21.907-.79l-1.777.35c-8.146-.62-21.859-.35-30.01.88-5.277.34-28.998.7-33.078-.19-3.099-.05-5.356.27-7.989-1.26-3.649-5.71-1.901-12.03-1.218-19.07-3.209-.08-4.635-.18-7.79-.67-1.339-5.71-1.046-8.48-.875-14.23"/><path fill="#57666e" d="M200.055 1420.29c47.913.27 100.798-1.61 147.961.59.11 3.97.805 8.78-1.076 12.04-2.324 1.24-2.137 1.25-4.759 1.24l1.215-1.46c-4.492-3.65-123.264-1.57-136.982-.8.81 1.1 1.536 2.17 2.306 3.29-3.209-.08-4.635-.18-7.79-.67-1.339-5.71-1.046-8.48-.875-14.23"/><path fill="#35393c" d="M200.93 1434.52c2.51-1.48 2.736-1.7 5.484-2.62.81 1.1 1.536 2.17 2.306 3.29-3.209-.08-4.635-.18-7.79-.67"/><path fill="#84532a" d="M239.574 1449.89c1.446-7.68 1.085-13.9 10.865-12.64 11.469 1.47 4.808 22.4 12.591 16.33-.125-.69-.458-.5-.771-.86-2.948-3.47 1.428-11.71 3.488-14.3 1.093-1.38 2.882-1.46 4.25-1.45 11.432.09 9.702 7.34 10.856 15.97l.162 1.89c-8.146-.62-21.859-.35-30.01.88-5.277.34-28.998.7-33.078-.19-.142-4.89-1.716-13.62 2.92-16.78 6.205-4.22 12.577.23 16.338 5.37.917 2.87.997 3.22 2.389 5.78"/><path fill="#140e09" d="M237.185 1444.11c.917 2.87.997 3.22 2.389 5.78-.165 1.73-.52 3.17-1.357 4.7l.109-.08-.658-.15c-1.224-2.23-.551-7.43-.483-10.25"/><path fill="#8d5829" d="M307.125 1455.27c1.102-10.32-1.695-19.46 12.872-17.4a7.55 7.55 0 0 1 5.105 3.15c3.099 4.46-.183 11.96 2.442 14.82-6.66.49-13.636.08-20.369.17zm-23.914-3.16c.712-2.86 3.001-14.07 6.61-14.59 6.64-.97 12.215.48 13.258 8l.621 4.61c.295 1.81.622 3.34.999 5.14-6.068-.15-16.357.07-21.907-.79q.221-1.185.419-2.37"/><path fill="#593619" d="M303.7 1450.13c.295 1.81.622 3.34.999 5.14-6.068-.15-16.357.07-21.907-.79q.221-1.185.419-2.37c1.966.71 18.316 1.58 19.221 1.45 1.002-.83 1.048-2.22 1.268-3.43"/><path fill="#84532a" d="M329.246 1455.86c5.749-3.59-5.629-19.54 12.566-16.02.449 5.05.217 11.07.17 16.2-4.353.03-8.378.11-12.736-.18"/><path fill="#050607" d="M1708.56 1420.38c32.73-1.14 67.64.38 100.5-.1 9.86-.15 36.19.82 44.95-.72 1.46 5.5 3.9 13.51-2.85 14.44l-2.6.74c-.76 1.82-.84 1.7-1.18 3.61 2.89 16.76 3.23 17.03-10.32 16.82l-4.4-.23-.84.34c-6.14-.48-12.49-.17-18.72-.39l-3.4.24c-6.56-.1-13.06.08-19.63-.24l-3.01.01c-6.62.17-13.24.18-19.86.04l-4.05.07-3.21 1.06c-4.41-.21-9.22-.06-13.71-.11-8.09-.01-21.23-.29-29.13.23-.45-8.73.18-13.52-2.01-22.14-1.9.62-2.72.85-4.62.2l-1.54-.48c-.71-4.52-.44-8.81-.37-13.39"/><path fill="#57666e" d="M1708.56 1420.38c32.73-1.14 67.64.38 100.5-.1 9.86-.15 36.19.82 44.95-.72 1.46 5.5 3.9 13.51-2.85 14.44l-.06-1.66c-10.28-1.56-33.98-1.24-45.04-1.25-28.59.1-57.17.05-85.76-.18-2.7 1.15-3.45 1.04-5.21 3.14-1.9.62-2.72.85-4.62.2l-1.54-.48c-.71-4.52-.44-8.81-.37-13.39"/><path fill="#35393c" d="M1854.01 1419.56c1.46 5.5 3.9 13.51-2.85 14.44l-.06-1.66c-.23-5.01 3-6.37-.66-9.2-1.2-.94 1.44-2.42 2.03-2.73z"/><path fill="#140e09" d="M1708.93 1433.77c4.03-2.35 6.72-2.67 11.37-2.86-2.7 1.15-3.45 1.04-5.21 3.14-1.9.62-2.72.85-4.62.2z"/><path fill="#8d5829" d="M1717.1 1456.19c11.44-2.6.28-14.58 12.39-18.15 13.97-4.12 13.3 14.38 16.39 17.25.79-3.56 2.13-29.49 16.14-12.27 1.36 1.67 1.14 9.6 1.13 11.99l-3.21 1.06c-4.41-.21-9.22-.06-13.71-.11-8.09-.01-21.23-.29-29.13.23m96-1.3c-.04-7.59.86-25.2 16.07-15.06 3.09 2.05 2.36 11.06 3.49 15.11l-.84.34c-6.14-.48-12.49-.17-18.72-.39m-23.03 0c.21-9.53 4.62-25.6 16.69-13.76 2.37 2.32 2.58 10.51 2.94 14-6.56-.1-13.06.08-19.63-.24"/><path fill="#84532a" d="M1767.2 1454.94c.08-4.98-.15-11.62 4.19-14.29 15.03-9.29 15.33 6.9 15.67 14.25-6.62.17-13.24.18-19.86.04"/><path fill="#8d5829" d="M1837.06 1455.17c-1.11-17.18-2.48-13.94 10.32-16.82 2.89 16.76 3.23 17.03-10.32 16.82"/><metadata><recraft-signature>{&quot;signed_by&quot;: &quot;recraft&quot;, &quot;signature_b64&quot;: &quot;v2bbRXH4FA8LezmQRInSjC2p3OlLiblAl34a/JaC5zs/hT/m6yyFl2ojCEbXoQLYFFSlMD3LsjzG7vWZhut2DA==&quot;, &quot;signing_algo&quot;: &quot;Ed25519&quot;, &quot;generation_timestamp&quot;: 1777235642, &quot;identifier&quot;: &quot;05f20154-82f9-466f-85fa-5e41bc3dea56&quot;}</recraft-signature></metadata></svg>