<svg xmlns="http://www.w3.org/2000/svg" width="1024" height="1024" preserveAspectRatio="none" style="display:block" viewBox="0 0 2048 2048"><defs><linearGradient id="a" x1="1948.31" x2="1916.74" y1="891.221" y2="894.255" gradientUnits="userSpaceOnUse"><stop class="stop0" offset="0" stop-color="#38464f"/><stop class="stop1" offset="1" stop-color="#586871"/></linearGradient></defs><path fill="#fff" d="M0 0h2048v1065.99c-19.68.06-45.43.82-64.64-.75-13.5-1.1-28.36-7.7-44.65-7.92-24.36-.33-49.43 1.66-73.72 3.38l-2.76 2.3c-8.21-.07-39.43-1.12-45.98-4.39l3.17-2.32c-19.81-5.39-48.39-1.2-69.97-3.42-15.16-1.56-27.79-7.37-40.97-8.65-23.91-2.32-50.15.49-74.52-.98-18.6-1.12-29.87-7.83-48.64-9.91-24.99-2.77-48.34.98-72.48.77-3.95 2.81-8.29 1.99-13.85 2.14-11.66-.43-23.33-.73-34.99-.9-13.69-.36-28.02-4.26-41.26-5.1-16.22-1.03-32.78 1.13-49.29-.91-11.24-1.14-23.72-7.09-34.68-8.38-20.1-2.37-43.6-2.1-63.81-1.71-1.71-1.17-.94-.5-1.94-2.72-2.2-8.4-9.05-18.919-10.56-30.072-2.71-19.953-.84-39.921-.71-59.95a301.5 301.5 0 0 0-39.63-152.339c-31.26-54.383-81.95-96.289-142.91-112.6-2.37-.849-4.79-1.659-7.18-2.482-4.72-5.97 8.47-76.939 5.68-85.627l-2.73-.823c-9.38-.703-25.99-.18-35.81-.18l-67.591.079q-1.762.16-3.519.357l-13.402-.164c.603 20.781 6.141 65.995 9.506 87.25-62.737 13.474-119.665 59.26-154.098 112.594a287.65 287.65 0 0 0-44.163 129.162c-4.021 44.922 6.148 77.087-18.144 114.845-13.345 2.88-48.066-.17-64.166.71-17.342.94-32.452 8.22-46.04 9.32-23.891 1.92-38.51-.53-63.602 3.21l.054 2.35c-11.362 2.04-31.742 3.12-44.09 4.23-17.412 1.7-41.164-3.29-60.1-1.95-20.265 1.44-35.462 7.61-55.066 10.67-40.729 3.21-64.189-3.8-104.955 6.49-8.134 2.1-15.996 3.69-24.466 3.47-7.734 1.57-32.185.96-41.587.87l-1.327.13c-8.743.94-19.759 4.01-26.653 4.85-10.429 1.27-40.496 2.92-50.163 1.2-19.909-.56-38.702-3.53-58.77-2.96-14.623.42-30.035 6.62-43.222 7.82-19.612 1.78-43.634 1.1-63.606 1.07z"/><path fill="#2d3940" d="M139.777 844.205c16.313-19.201 38.742-21.157 62.242-18.678 15.52 1.637 23.774 8.158 32.679 19.983 24.705-6.494 52.521-8.018 68.685 15.667 21.453-.741 37.496-2.974 43.511 21.933a1680 1680 0 0 0-40.283.222c-15.046 11.695-23.915 7.335-40.089 10.889-11.278 2.478-28.206 13.273-37.378 19.775-11.665 8.269-22.344 25.166-22.853 39.392-.862 24.11-3.027 86.122 11.416 103.902 3.551 1.13 8.343-.76 12.502-1.55 15.468-2.93 32.115-1.89 48.044-1.91 2.454-1.21 6.471-.77 9.322-.73 6.365-.19 15.156-1.94 21.669-3.03l.55 1.53c-8.134 2.1-15.996 3.69-24.466 3.47-7.734 1.57-32.185.96-41.587.87l-1.327.13c-8.743.94-19.759 4.01-26.653 4.85-10.429 1.27-40.496 2.92-50.163 1.2 2.171-.28 4.346-.51 6.526-.71l-1.281-.64c15.763-31.95 11.408-59.06 12.465-92.84 1.206-38.547-16.962-51.252-49.403-67.07-16.436 2.018-32.279-3.088-45.28-13.157-11.088-.907-31.229.272-39.926-1.498-3.9-3.758 1.328-11.251 4.238-14.501 7.04-7.861 19.648-7.612 29.408-8.095 3.876-5.283 6.347-8.463 11.545-12.508 10.338-8.044 33.338-9.447 45.887-6.896"/><path fill="#858884" d="M243.741 1055.94c6.021-1.64 34.932-1.43 41.587-.87-7.734 1.57-32.185.96-41.587.87m34.512-2.11c2.454-1.21 6.471-.77 9.322-.73-4.054 1.05-5.335 1.67-9.322.73"/><path fill="#fff" d="M180.463 871.392c4.391-.249 9.301 11.103 11.478 14.877-1.718 8.465-3.434 16.152-5.753 24.482q-.823-.93-1.63-1.872c-3.257-3.825-5.043-5.219-9.145-8.198-7.377-4.323-14.76-8.304-22.212-12.475l-.298-14.743c10.305-1.279 17.361-1.362 27.56-2.071m29.091 1.534c7.075 1.2 15.229 1.847 22.428 2.661-1.098 5.539-1.807 10.321-3.195 15.88-11.207 5.421-14.368 6.936-22.737 16.479-3.557 6.398-4.053 8.499-6.026 15.341-5.67-23.209-6.941-32.683 9.53-50.361m-81.858 2.53c2.112-.399 4.316-.92 5.402 1.469 8.593 19.01 35.233 19.18 45.713 36.066 2.118 3.412 4.817 9.614-1.736 6.074l-1.59-.8c-9.658-6.285-19.282-11.784-29.673-17.255-9.48-4.99-26.277-9.688-29.866-21.072-1.561-4.949 8.425-4.127 11.75-4.482"/><path fill="#fff" d="M259.99 875.405c5.965-.047 30.188-2.323 16.702 8.19-3.175 2.474-19.501 8.045-24.72 10.927-10.394 5.739-20.783 11.669-31.12 17.503-4.307 2.965-8.505 6.019-12.823 8.932l1.388-4.284c6.13-19.363 23.735-18.774 38.181-29.101 5.415-3.871 6.212-10.285 12.392-12.167m-22.152.401c5.302-.08 10.049-.034 15.325.076-3.096 2.579-5.504 4.574-8.772 6.985-3.116 2.207-6.315 4.167-9.631 6.056l2.119-8.932c.329-1.44.607-2.747.959-4.185M97.359 887.278c5.281-.245 10.545.61 16.047.923 2.828 2.558 4.508 4.232 7.093 7.042-7.355-.678-17.018-3.771-23.14-7.965m42.175-14.097c.897.051 8.057-.077 8.181 1.385.184 2.175 1.753 10.003-1.424 9.999-3.202-2.949-12.031-8.33-6.757-11.384m49.598-1.535c11.514.223 16.277-2.291 8.67 6.534-4.362 6.041-6.187-1.702-8.67-6.534"/><path fill="#e7e6e7" d="M294.983 882.392c3.81 2.184-9.46 4.543-10.61 4.82-4.053-3.864 9.321-4.658 10.61-4.82"/><path fill="#2d3940" d="M1801.7 845.763c12.57-14.603 23.11-19.507 42.13-20.733 22.15-1.429 40.65 2.684 55.37 20.149 21.63-1.613 42.37-3.137 54.67 18.351 21.55 1.449 32.98.618 40.78 23.16-11.99.047-26.08.378-37.95-.543-3.26 1.267-5.45 2.702-8.27 4.741-9.42 6.815-25.14 10.659-36.55 8.287l-2.15-.461c-19.11 7.353-43.42 20.023-52.18 39.345-10.43 23.016-6.2 89.441 2.51 112.541 1.3 3.43 2.63 7.24 4.93 10.1l-2.76 2.3c-8.21-.07-39.43-1.12-45.98-4.39l3.17-2.32c12.36-24.39 8.76-54.63 9.83-80.426 2.07-50.107-12.58-56.702-51.57-80.499-7.14.292-11.56-.319-18.45-1.377-4.53-1.44-16.35-4.566-19.44-8.19-12.13-8.109-43.58 3.437-48.66-7.207.72-5.255 5.11-9.736 9.02-13.041 8.55-7.223 23.78-5.69 34.75-5.425 15.06-23.042 43.63-21.718 66.8-14.362"/><path fill="#fff" d="M1760.13 876.758c4.54-3.804 14.83-2.02 22.1-1.929.77.982.3.582.96 1.581 16.85 25.562 41.64 12.011 47.75 46.538-25.35-19.45-39.4-26.337-68.56-38.521-2.38-1.533-1.92-2.836-2.05-5.635z"/><path fill="url(#a)" d="M1944.15 886.087c3.41-.157 5.07 1.696 6.97.67 2.37-1.281 3.1-1.893 5.58-.61-3.26 1.267-5.45 2.702-8.27 4.741-9.42 6.815-25.14 10.659-36.55 8.287l-2.15-.461c3.8-1.638 12.92-3.428 13.97-4.565 7.03-2.114 12.55-2.31 18.94-6.995z"/><path fill="#3c3f40" d="M1739.79 885.798c3.05-2.53 2.47-4.306 6-2.758 2.56 3.077 8.46 3.99 12.28 4.126 1.81.438 3.48.713 5.31 1.029-1.58 2.06-2.74 3.619-4.15 5.793-4.53-1.44-16.35-4.566-19.44-8.19"/><path fill="#fff" d="M1923.7 894.149c-1.56-6.101 16.18-8.039 20.45-8.062l-1.51 1.067c-6.39 4.685-11.91 4.881-18.94 6.995"/><path fill="#e7e6e7" d="M1745.79 883.04c4.16.078 8.3-.035 12.46.208-.09 1.381-.14 2.545-.18 3.918-3.82-.136-9.72-1.049-12.28-4.126"/><path fill="#565e62" d="M1758.25 883.248c1.95-1.379 1.55-2.497 1.69-4.885l.19-1.605.2 2.034c.13 2.799-.33 4.102 2.05 5.635 1.03 1.866 1.15 1.744 1 3.768-1.83-.316-3.5-.591-5.31-1.029.04-1.373.09-2.537.18-3.918"/><path fill="#fff" d="M1830.96 873.451c7.4-1.356 9.64 7.107 13.18 13.018 3.83 6.408-2.84 17.837-5.42 24.31-2.7-3.358-4.84-5.589-7.86-8.636-15.76-14.134-18.88-4.82-22.88-26.919 8.27-.34 14.73-.733 22.98-1.773m31.24-1.572c5.73.005 15.7.904 21.38 1.347 4.76.37-1.02 14.57-2.24 17.18-5.84 3.578-11.51 6.52-17.29 10.035-6.59 4.368-8.03 5.717-13.25 11.608.29-9.326.56-15.715.11-25.087 4.25-5.125 7.32-9.905 11.29-15.083m49.45 2.968c17.37.645 5.81 1.832 12.25 11.891-.83 1.969-6.83 3.698-8.9 4.442-17.48 6.273-32.77 15.106-48.97 23.89l-9.93 7.306c9.49-22.771 19.27-20.364 39.44-32.85 6.12-3.792 11.44-9.259 16.11-14.679m-20.34-1.298c5.3.104 10.24.181 15.56.384-2.46 2.227-4.82 4.516-7.51 6.458l-1.38 1.034a224 224 0 0 1-10.41 6.702c.79-2.869 1.54-5.751 2.24-8.643.5-2.079.93-3.854 1.5-5.935m-103.62 1.155 15.53.294c.81 4.072 1.76 8.047 2.68 12.098-9.24-3.647-11.53-5.142-18.21-12.392m52.96-2.624c2.71-.053 14.49-.758 15.8.341-.28.819-2.68 3.338-3.4 4.139-6.77 6.787-5.16 3.899-12.4-4.48"/><path fill="#2d3940" d="M510.803 845.311c19.773-23.472 63.425-23.737 83.322-.247 19.171-2.676 35.098-3.77 46.496 14.458 15.748-2.458 22.909-4.085 36.382 5.513 1.958 3.485 2.232 4.303 3.479 8.145-1.149 6.766-6.074 5.311-11.73 5.029a780 780 0 0 0-14.83-.601c-16.203 12.121-17.267 7.058-34.464 10.361-12.656 3.297-25.828 10.721-36.563 17.553-21.793 13.868-21.013 34.7-20.758 57.449.226 20.116-.438 49.359 11.814 66.839l.054 2.35c-11.362 2.04-31.742 3.12-44.09 4.23l-.626-2.29c15.282-25.6 13.727-68.262 11.699-97.161-1.738-24.759-35.986-46.137-58.609-47.155-7.803-.351-16.559-6.077-23.352-10.718-7.492-.263-33.557 1.457-37.204-1.879.468-19.561 21.337-18.817 34.931-18.136 12.543-18.45 34.387-18.996 54.049-13.74"/><path fill="#fff" d="M520.022 870.821c4.61-1.565 19.877-1.756 25.56-1.967 10.213 12.561 12.006 20.308 4.532 35.36-5.741-6.959-18.068-17.741-26.952-19.768-2.271-.542-4.937-.654-6.583-2.213-5.763-4.188-6.859-5.798-11.294-11.32 3.84-.231 7.948-.672 11.733-.106z"/><path fill="#fff" d="M505.285 870.913c3.84-.231 7.948-.672 11.733-.106-.002 4.25.007 7.157-.439 11.426-5.763-4.188-6.859-5.798-11.294-11.32"/><path fill="#3c3f40" d="m517.018 870.807 3.004.014c.143 6.855-.552 7.832 3.14 13.625-2.271-.542-4.937-.654-6.583-2.213.446-4.269.437-7.176.439-11.426"/><path fill="#fff" d="M486.611 871.308q7.401-.484 14.816-.728c11.122 20.23 18.691 14.131 34.723 27.867 2.064 1.769 8.993 11.585 6.288 13.568-1.039.127-1.325-.279-2.165-.929-5.502-4.027-10.634-6.619-16.08-10.24-10.638-8.059-24.042-11.661-35.209-17.936-5.858-3.291-12.283-9.386-2.373-11.602m83.779-2.136c7.078.599 12.335 1.115 19.365 2.136l-.493 1.399a203 203 0 0 0-4.04 12.493c-9.561 5.1-9.644 5.434-18.055 12.157-3.712 4.286-5.513 7.963-8.68 12.68 1.537-13.26 1.908-15.498 1.394-29.246 3.645-3.983 6.709-7.699 10.509-11.619m38.39 4.643c1.54.241 9.991 1.917 11.239 1.876 6.981-.228 5.901 6.346 1.021 7.053-15.449 2.238-27.839 12.023-41.43 18.821-1.66.895-11.418 7.114-12.417 5.587-.309-8.743 32.024-22.174 40.263-31.823zm-16.034-2.674c10.93 1.387 14.933-.597 5.19 7.305-9.734 6.239-7.467 2.703-5.19-7.305m-42.078-2.214c6.484-.107 15.135-2.886 11.577 4.015-6.625 4.969-4.788 2.672-11.577-4.015m81.311 8.726c3.159.091 18.602-1.388 9.078 3.143-8.335 2.363-14.43 5.599-9.078-3.143M470.831 879.4c1.188-.107 5.891-.849 6.683-.641 1.698.445 7.152 4.975 6.587 7.057-2.397-.521-15.062-2.721-13.27-6.416"/><path fill="#2d3940" d="M1451.44 843.085c21.13-20.426 58.78-21.203 79.12.294l1.11 1.182c21.26-4.077 38.72-3.299 53.43 14.605 9.62-.229 21.31-1.372 28.79 5.904 2.83 2.756 7.27 10.294 3.03 13.288-9.16 1.424-19.04-1.293-28.12-.407-7.51.731-14.3 7.454-21.71 10.32-6.07 2.345-13.73.166-17.61.991-13.99 2.979-34.29 16.034-42.68 27.041a42 42 0 0 0-7.97 17.761c-1.25 6.546-1.14 13.735-1.03 20.385.47 27.112-1.4 56.291 15.04 79.651-3.95 2.81-8.29 1.99-13.85 2.14-11.66-.43-23.33-.73-34.99-.9l-1.15-2.1c19.25-28.29 15.96-67.364 13.99-100.165-1.38-23.075-36.17-41.498-55.99-45.392-4.93-1.273-12.81-1.148-17.39-2.836-10.69-3.937-15.61-8.977-27.79-7.265-12.96 1.821-15.19-2.263-6.96-13.681 6.74-9.335 24.91-7.151 36.01-6.691 12.04-18.033 27.82-14.678 46.72-14.125"/><path fill="#fff" d="M1541.56 870.323c9.23.333 16.72-2.37 17.61 6.682l.22 2.019 1.53.939c-1.32 1.801-2.62 3.356-3.97 5.117-3.05-1.26-5.53.81-10.21.13-12.43 1.751-37.41 20.547-51.31 27.231 8.46-15.679 12.7-18.505 29.28-26.001 8.88-4.018 11.61-8.511 16.85-16.117"/><path fill="#3c3f40" d="m1559.39 879.024 1.53.939c-1.32 1.801-2.62 3.356-3.97 5.117-3.05-1.26-5.53.81-10.21.13 6.13-2.516 7.53-2.21 12.65-6.186"/><path fill="#fff" d="M1497.5 869.663c7.43-.175 14.85.251 22.22 1.107-1.63 5.294-2.89 9.205-4.88 14.37-6.93 4.165-9.82 5.465-16.24 10.691-4.06 4.331-6.09 7.777-9.76 11.857-1.2-9.511-1.87-14.147-1.85-23.68 4.28-7.444 4.63-8.368 10.51-14.345m-27.51-.275c4.52 4.911 7.29 8.391 11.19 13.864-.15 7.387-.39 10.525-1.17 17.862-8.18-6.896-13.93-10.153-23.14-15.14-2.36-4.248-2.56-4.324-3.87-8.802-.8-4.16-2.32-4.834.86-7.19 6.09.197 10.1-.031 16.13-.594m-38.78 3.002c6.12 3.714 14.57 13.773 22.79 17.407 13 5.75 15.65 9.68 22.07 21.485-3.35-2.457-6.3-4.616-9.74-6.962-11.9-6.899-28.17-18.699-41.86-21.166-6.79-1.222-13.52-7.266-3.46-8.868 3.39-.54 6.71-1.38 10.2-1.896"/><path fill="#fff" d="M1445.94 870.128c2.89-.829 4.9-.518 7.92-.146-3.18 2.356-1.66 3.03-.86 7.19-1.23 1.199-2.37 2.388-3.56 3.619-3.42-.659-9.87-5.517-11.8-8.353-1.14-1.663 7.63-2.197 8.3-2.31"/><path fill="#565e62" d="M1445.94 870.128c2.89-.829 4.9-.518 7.92-.146-3.18 2.356-1.66 3.03-.86 7.19-1.23 1.199-2.37 2.388-3.56 3.619.82-8.93 3.81-9.365-3.5-10.663"/><path fill="#fff" d="M1523.55 870.926c9.44.004 15.49-1.8 6.08 6.965-3.37 2.155-5.2 3.179-8.81 4.954.87-3.884 1.9-8.099 2.73-11.919m-47.91-1.868c1.93-.022 15.49-.536 16.18.555-.03 1.192-1.84 2.851-2.61 3.729-6.84 7.239-5.53 3.841-13.57-4.284"/><path fill="#e7e6e7" d="M1560.92 879.963c5.76-1.677 10.9-1.184 16.95-1.165-8.52 3.636-11.64 5.547-20.92 6.282 1.35-1.761 2.65-3.316 3.97-5.117"/><path fill="#fff" d="M1401.12 876.533c4.32-.316 16.27-2.52 8.56 5.689-1.11-.331-17.96-5.345-8.56-5.689"/><path fill="#3c3f40" d="M502.431 1032.81c8.01.37 19.598 1.78 26.858 1.29l.626 2.29c-17.412 1.7-41.164-3.29-60.1-1.95-20.265 1.44-35.462 7.61-55.066 10.67-40.729 3.21-64.189-3.8-104.955 6.49l-.55-1.53c36.521-11.95 68.263-2.9 105.907-7.25 17.341-2 30.302-9 48.332-9.98 9.724.6 29.196.6 38.948-.03"/><path fill="#1f2529" d="M1273.02 1016.52c20.38 1.12 41.36-.38 61.35 1.41 13.7 1.23 28.39 8.58 42.91 9.53 14.65.95 29.83-.11 44.22.64 12.49.64 28.77 3.3 41.35 5.14l1.15 2.1c-13.69-.36-28.02-4.26-41.26-5.1-16.22-1.03-32.78 1.13-49.29-.91-11.24-1.14-23.72-7.09-34.68-8.38-20.1-2.37-43.6-2.1-63.81-1.71-1.71-1.17-.94-.5-1.94-2.72M0 1065.88c37.11-.6 60.545 2.26 96.97-8.01 11.533-3.25 59.857.55 73.873 2.9l1.281.64c-2.18.2-4.355.43-6.526.71-19.909-.56-38.702-3.53-58.77-2.96-14.623.42-30.035 6.62-43.222 7.82-19.612 1.78-43.634 1.1-63.606 1.07z"/><path fill="#858884" d="M463.483 1032.84c7.12-1.29 31.557-1.08 38.948-.03-9.752.63-29.224.63-38.948.03"/><path fill="#2d3940" d="m971.579 572.526 67.591-.079c9.82 0 26.43-.523 35.81.18l2.73.823c2.79 8.688-10.4 79.657-5.68 85.627 2.39.823 4.81 1.633 7.18 2.482 60.96 16.311 111.65 58.217 142.91 112.6a301.5 301.5 0 0 1 39.63 152.339c-.13 20.029-2 39.997.71 59.95 1.51 11.153 8.36 21.672 10.56 30.072 1 2.22.23 1.55 1.94 2.72 23.06 29.19 46.47 40.64 82.16 50.2 23.47 6.28 67.44 14.71 67.88 46.09 0 .8-.23 1.43-.47 2.18-3.1 14.56-14.71 22.09-25.7 30.01l.09 2.41c-3.55 3.38.34-.22-3.23 1.6-221.99 113.05-502.599 108.78-730.818 15.8-10.208-4.16-21.565-11.66-31.715-15.15-32.391 15.44-72.595 34.95-106.155 46.5-3.735-.85-7.864-1.59-11.31-3.17l-.482 2.63c-3.282-.7-3.381-.65-6.349-2.14 1.083-1.66 99.726-43.32 114.13-50.51-60.548-44.73 48.803-68.76 73.541-82.66 18.775-10.54 35.021-26.54 48.667-43.2-21.788-.01-47.133-1.42-68.413.31-13.776 1.12-34.329 9.07-49.428 9.48-20.001.55-33.499-1.31-53.353 2.54l-.054-2.35c25.092-3.74 39.711-1.29 63.602-3.21 13.588-1.1 28.698-8.38 46.04-9.32 16.1-.88 50.821 2.17 64.166-.71 24.292-37.758 14.123-69.923 18.144-114.845a287.65 287.65 0 0 1 44.163-129.162c34.433-53.334 91.361-99.12 154.098-112.594-3.365-21.255-8.903-66.469-9.506-87.25l13.402.164q1.757-.197 3.519-.357"/><path fill="#c78147" d="m971.579 572.526 67.591-.079c9.82 0 26.43-.523 35.81.18l2.73.823c2.79 8.688-10.4 79.657-5.68 85.627 2.39.823 4.81 1.633 7.18 2.482-3.48.811-4.15.481-7.5-.282-2.38 1.751-2.34 3.071-2.71 7.05-2.54 27.68-6.76 56.635-9.08 84.24-1.92 22.794-6.35 47.504-8.14 69.539-22.96.141-45.93.455-68.885.94-4.827-34.23-7.699-70.176-12.118-104.664-1.235-9.642-6.193-45.919-6.009-53.415l-1.589.804c-6.819 3.403-14.419 6.237-21.475 9.591-69.675 33.117-119.801 94.577-145.036 167.448a269.6 269.6 0 0 0-14.434 76.554c-2.448 49.182 7.043 82.036-32.456 119.876-16.075 15.4-23.454 20.41-42.951 31.16-22.028 12.14-73.541 19.55-82.334 42.55a19 19 0 0 0 .632 15.01c11.179 23.36 114.109 55.91 140.035 64.48 79.834 26.38 164.079 33.05 247.6 33.88 122.78 1.22 258.05-17.3 368.12-74.87 5.04-2.65 10.06-5.34 15.05-8.07l1.63 2.16c11.46-7.6 17.88-11.39 23.94-24.38l3.03-3.45c-3.1 14.56-14.71 22.09-25.7 30.01l.09 2.41c-3.55 3.38.34-.22-3.23 1.6-221.99 113.05-502.599 108.78-730.818 15.8-10.208-4.16-21.565-11.66-31.715-15.15-32.391 15.44-72.595 34.95-106.155 46.5-3.735-.85-7.864-1.59-11.31-3.17l-.482 2.63c-3.282-.7-3.381-.65-6.349-2.14 1.083-1.66 99.726-43.32 114.13-50.51-60.548-44.73 48.803-68.76 73.541-82.66 18.775-10.54 35.021-26.54 48.667-43.2-21.788-.01-47.133-1.42-68.413.31-13.776 1.12-34.329 9.07-49.428 9.48-20.001.55-33.499-1.31-53.353 2.54l-.054-2.35c25.092-3.74 39.711-1.29 63.602-3.21 13.588-1.1 28.698-8.38 46.04-9.32 16.1-.88 50.821 2.17 64.166-.71 24.292-37.758 14.123-69.923 18.144-114.845a287.65 287.65 0 0 1 44.163-129.162c34.433-53.334 91.361-99.12 154.098-112.594-3.365-21.255-8.903-66.469-9.506-87.25l13.402.164q1.757-.197 3.519-.357"/><path fill="#2d3940" d="m971.579 572.526 67.591-.079c9.82 0 26.43-.523 35.81.18l.13 1.374c1.05 5.45-3.36 42.123-4.13 50.129a8187 8187 0 0 1-13.37 125.987c-2.29 20.444-4.63 48.439-8.15 68.27l-1.73 1.76c-7.77-.667-50.825-.665-58.396.736 1.104-4.837-1.702-34.802-2.271-42.195l-9.998-120.17c-2.26-27.765-3.178-56.29-5.726-83.864z"/><path fill="#c78147" d="M1075.11 574.001c1.05 5.45-3.36 42.123-4.13 50.129a8187 8187 0 0 1-13.37 125.987c-2.29 20.444-4.63 48.439-8.15 68.27l-1.73 1.76c-.2-.701-.83-2.955-.7-4.244 8.15-79.878 17.33-159.721 25.79-239.582.77-.774 1.53-1.547 2.29-2.32"/><path fill="#110d0c" d="M968.06 572.883q1.757-.197 3.519-.357l-.24 2.128c2.548 27.574 3.466 56.099 5.726 83.864l9.998 120.17c.569 7.393 3.375 37.358 2.271 42.195 7.571-1.401 50.626-1.403 58.396-.736l1.73-1.76c3.52-19.831 5.86-47.826 8.15-68.27 4.78-41.961 9.24-83.958 13.37-125.987.77-8.006 5.18-44.679 4.13-50.129l-.13-1.374 2.73.823c2.79 8.688-10.4 79.657-5.68 85.627 2.39.823 4.81 1.633 7.18 2.482-3.48.811-4.15.481-7.5-.282-2.38 1.751-2.34 3.071-2.71 7.05-2.54 27.68-6.76 56.635-9.08 84.24-1.92 22.794-6.35 47.504-8.14 69.539-22.96.141-45.93.455-68.885.94-4.827-34.23-7.699-70.176-12.118-104.664-1.235-9.642-6.193-45.919-6.009-53.415-3.689-4.385-15.747 1.226-21.01 3.096a256.15 256.15 0 0 0-96.949 62.394c-52.988 54.495-78.671 123.162-79.436 198.573-.26 25.583 1.873 57.548-12.283 80.27-14.514 23.6-32.63 39.94-55.399 54.77-23.081 15.03-87.838 24.3-91.456 55.85-2.717 23.69 68.378 49.96 87.213 56.85a936.4 936.4 0 0 0 381.392 55.78c109.04-5.99 225.51-31.98 320.72-87.01 11.46-7.6 17.88-11.39 23.94-24.38l3.03-3.45c-3.1 14.56-14.71 22.09-25.7 30.01l.09 2.41c-3.55 3.38.34-.22-3.23 1.6-221.99 113.05-502.599 108.78-730.818 15.8-10.208-4.16-21.565-11.66-31.715-15.15-32.391 15.44-72.595 34.95-106.155 46.5-3.735-.85-7.864-1.59-11.31-3.17l-.482 2.63c-3.282-.7-3.381-.65-6.349-2.14 1.083-1.66 99.726-43.32 114.13-50.51-60.548-44.73 48.803-68.76 73.541-82.66 18.775-10.54 35.021-26.54 48.667-43.2-21.788-.01-47.133-1.42-68.413.31-13.776 1.12-34.329 9.07-49.428 9.48-20.001.55-33.499-1.31-53.353 2.54l-.054-2.35c25.092-3.74 39.711-1.29 63.602-3.21 13.588-1.1 28.698-8.38 46.04-9.32 16.1-.88 50.821 2.17 64.166-.71 24.292-37.758 14.123-69.923 18.144-114.845a287.65 287.65 0 0 1 44.163-129.162c34.433-53.334 91.361-99.12 154.098-112.594-3.365-21.255-8.903-66.469-9.506-87.25z"/><path fill="#c78147" d="M968.06 572.883q1.757-.197 3.519-.357l-.24 2.128c2.548 27.574 3.466 56.099 5.726 83.864l9.998 120.17c.569 7.393 3.375 37.358 2.271 42.195l-4.019-1.333c-1.763-2.98-20.416-170.052-22.594-187.766.058-1.399.189-1.388-.359-2.502-.777-7.836-6.508-51.824-3.797-54.391 3.359-.843 6.158-1.289 9.495-2.008"/><path fill="#6d4828" d="M968.06 572.883q1.757-.197 3.519-.357l-.24 2.128c-4.847.321-7.843.402-12.774.237 3.359-.843 6.158-1.289 9.495-2.008"/><path fill="#c78147" d="m625.192 1147.27 7.965 5.11c-32.391 15.44-72.595 34.95-106.155 46.5-3.735-.85-7.864-1.59-11.31-3.17 1.082-1.28 99.13-43.82 109.5-48.44"/><path fill="#4d2c18" d="M962.362 629.282c.548 1.114.417 1.103.359 2.502-.686-.949-.594-1.341-.359-2.502"/><path fill="#956a44" d="M1395.93 1143.38c6.79-5.59 15.26-9.37 20.63-17.3 1.28-1.89 2.4-6.23 4.94-4.92-6.06 12.99-12.48 16.78-23.94 24.38z"/><path fill="#2d3940" d="M1398.92 1150.13c15.67 7.97 31.73 12.86 48.97 16.19 9.73 1.87 19.28 3.23 28.75 6.3 8.56 2.77 17.87 9.72 26.01 12.13 23.56 6.96 48.51 12.45 71.49 21.02 14.53 5.65 27.59 14.28 42.02 20.09 10.63 4.29 22.53 6.42 33.17 10.37 14.09 5.24 29.17 11.23 42.89 17.39-7.72 2.66-11.04 3.51-19.08 5.02-34.4-14.08-25.58-.48-55.07.54-19.41-2.39-32.55-19.09-53.61-9.38-22.02 10.14-23.53 17.38-48.41 8.44-23.52-8.46-32.02-19.2-51.87-32.52-5.9-3.96-27.09-7.88-36.37-11.48l.82 1.37c8.66 14.26 25.68 22.55 23.57 40.87-6.91 11.25-30.43-7.79-39.84-5.82-11.86 2.47-21.15 7.65-33.68 10.25l243.94 102.6c-16.98.14-28.97 2.51-45.65 5.1-10.7 1.66-27.17-4.77-38.32-4.56-22.96 2.19-50.36 11.41-73.2 16.16-8.06-9.05-16.27-18.27-23.81-27.75-9.68-12.16-22.64-13.32-35.61-19.09 1.83 4.7 3.63 9.03 4.95 13.9-4.58 11.31-9.18 12.42-8.4 22.52-7.19 5.74-139.35-13.75-150.51-8.82 21.43 15.78 52.89 37.98 75.5 51.88-7.54 1.46-16.04 2.89-23.46 4.59-7.8-2.75-12.74-4.49-20.75-6.24-6.34 8.44-10.65 11.65-19.16 17.96 17.82 1.73 29.05-1.46 42.94 11.09 14.77.43 33.55-1.4 48.46-3.31 4.79 2.47 9.16 5.53 13.51 8.69 42.19 30.68 85.7 59.74 127.89 90.35-11.35 1.51-39.98 6.19-50.14 5.62-14.56-.8-21.95-8.06-41.27-5.38-20.57 2.86-36.57 20.17-54.03 21.21-16.31.97-43.25-17.63-58.4-20.45-24.3-4.52-54.95 17.03-80.18 19.74-10.91 1.18-20.89-5.6-29.56-3.4-12.52 3.17-24.51 12.11-37.04 16.82-8.71-14.53-9.12-15.48-9.6-32.38-17.41-22.05-28.25-12.56-25.69-48.84-2.99-2.78-4.5-4.7-8.23-6.06-2.37 11.04-5.77 13.37-16.79 15.61l-1.48 2.23c4.06 20 5.65 24.36-11.58 36.4.17 7.78.4 15.56.7 23.34-23.92-1.78-47.02-4.87-70.66-7.73-11.733-1.41-42.776-6.8-52.364-5.41-26.079 3.79-60.955 18.48-86.971 20.4-22.989 1.7-50.394-13.44-74.505-14.73-19.606-1.05-26.796 3.37-45.006 6.23-9.073 1.43-31.036.94-41.113.89q-3.422-1.29-6.898-2.4c9.777-2.76 28.702-12.82 38.297-17.8l54.965-28.5q49.392-24.735 98.514-50.01c16.664-8.58 35.853-17.9 51.673-27.48-6.753.69-10.717 1.19-17.504.82-4.071-2.5-7.971-2.74-12.429-1.13l-.529 1.11.665 1.78c-8.561-1.49-18.293-1.06-26.895-1.64-38.399-2.55-82.88 5.12-120.234-.66 4.186-9.75 7.321-13.32 14.167-21.06.879-24.01 15.705-41.4 28.875-61.21-23.164 8.27-36.156 28.32-54.762 43.37-4.8 3.88-15.17 5.4-20.593 11.41-7.985 8.84-13.75 18.54-21.636 27.41-10.487 11.79-25.109-6.56-41.184-3.35-9.089 1.81-19.805 7.97-27.606 8.45-15.225.94-42.012-17.16-56.627-16.51-17.999.81-40.658 14.07-60.292 16.08-16.095 1.66-30.648-7.4-44.172-7.61-18.353-.29-37.588.9-56.406.8 42.641-21.58 91.585-38.34 134.634-60.03 8.626-4.35 21.088-5.72 30.16-9.43 5.745-2.35 11.235-5.64 16.602-8.75-2.169-3.02-2.901-1.24-7.152-1.74-1.732-.71-3.445-1.69-5.114-2.57-1.997-3.71-7.919-3.37-13.628-6.1 32.705-17.77 70.771-33.2 104.347-50.06 11.552-5.8 34.68-14.68 44.46-21.66-4.94.07-9.359.22-14.298-.22-4.278-.84-6.637-1.45-10.341 1.5-1.337-.38-2.458-.76-3.835-.98-28.556-1.67-61.157-5.42-89.721-4.49-6.695.22-24.487 9.81-32.338 11.5-9.117 1.95-18.659 3.7-27.854 5.55-7.164 1.45-16.404 4.24-23.369 5.34-5.006.79-14.372-2.54-20.582-1.47-9.163 1.57-20.286 6.68-29.042 7.63-13.77 1.5-29.798-10.04-43.774-10.57-13.408-.51-22.501 9.61-36.117 10.5-11.471.74-24.814-8.95-35.08-8.35-10.626.62-54.865 3.31-63.158.55 4.088.1 5.842.73 8.703-2.35 14.4 5.41 36.933-6.33 50.183-12.1 32.192-14.02 63.967-29.12 96.224-43.01 11.054-4.76 22.345-9.03 33.158-14.32 3.396.29 3.218.44 6.296-.91 25.804 6.43 40.236 4.42 65.891-.99 3.674-1.22 7.963-2.06 11.092-3.15.264-.27.528-.53.791-.8-.236-1.07-6.451-2.54-7.713-2.99-2.646-.85-10.76-3.99-12.833-4.18-13.695-1.25-20.307-.99-33.862-4.97l.482-2.63c3.446 1.58 7.575 2.32 11.31 3.17 33.56-11.55 73.764-31.06 106.155-46.5 10.15 3.49 21.507 10.99 31.715 15.15 228.219 92.98 508.828 97.25 730.818-15.8 3.57-1.82-.32 1.78 3.23-1.6"/><path fill="#110d0c" d="M561.905 1207.49c4.533-1.28 5.741-1.17 10.593-.54 6.447.84 13.291-.81 19.721-1.58l-6.925 2.91c-6.382 2.76-20.541 6.86-27.559 6.15 3.674-1.22 7.963-2.06 11.092-3.15.264-.27.528-.53.791-.8-.236-1.07-6.451-2.54-7.713-2.99m50.221 142.21c-2.019-7.29 10.802 3.71-6.675 4.02 2.859-1.56 4.044-2.19 6.675-4.02"/><path fill="#e7e6e7" d="M596.724 1352.01c4.758-1.14 10.528-1.92 15.402-2.31-2.631 1.83-3.816 2.46-6.675 4.02l-1.575.03c-2.169-3.02-2.901-1.24-7.152-1.74"/><path fill="#110d0c" d="M1244.04 1357.77c4.17-2.25 4.65.84 8.03 3.2-1.76 1.76-2.08 1.8-4.38-.14zm-141.68 122.2c3.28.29 3.29 1.18.5 2.89-2.57-.77-4.56-2.06-.5-2.89"/><path fill="#1f2529" d="M1084.59 1500.7c-4.81.1-2.37-6.05 1.48-2.23z"/><path fill="#110d0c" d="M993.046 1294.38c19.824-.17 39.654.06 59.474.68 2.15 7.47 18.7 38.15 23.06 46.41-5.84 13.16-11.26 25.57-17.39 38.7 13.59-.07 77.36-1.11 80.95 14.95-4.61 11.92-52.23 12.73-64.8 12.98-13.6 8.18-33.03 25.92-45.52 36.53-2.18 1.91-1.27 1.44-3.9 2.47l-2.01-1.58c-3.51-8.04-2.87-42.53-3.02-53.48-9.03-.42-16.06-.41-25.099-.14-6.986-13.15-15.501-38.64-24.688-48.56 10.497-18.61 15.386-29.09 22.943-48.96"/><path fill="#1f2529" d="M1058.19 1380.17c13.59-.07 77.36-1.11 80.95 14.95-4.61 11.92-52.23 12.73-64.8 12.98-13.6 8.18-33.03 25.92-45.52 36.53l-3.73-1.45c1.02-4.51.69-6.54.99-11.16 6.25-10.7-.06-32.95 5.61-42.17 6 .27 11.37.01 17.33.43 1.19.69 1.42.5 2.95.68 3.73-2.03 4.94-6.89 6.22-10.79"/><path fill="#eb2a2e" d="M1006.74 1372.1c11.27.04 22.54.16 33.81.38 3.2 5.8 7.26 11.4 8.47 17.8-5.96-.42-11.33-.16-17.33-.43-12.05-1.46-21.93-.83-33.83-.41 2.61-5.71 5.89-11.79 8.88-17.34"/><path fill="#c78147" d="M1025.09 1443.18c-1.92.61-1.65-1.7-1.75-3.19-.6-10.17-.33-20.3-.7-30.49-.03-.97-2.56-20.68 2.14-16.86 1.72 1.4 1.12 9.52 1.13 12.51.04 8.61-.13 18.1.17 26.87-.3 4.62.03 6.65-.99 11.16"/><path fill="#eb2a2e" d="M1006.09 1315.18c8.87 1.19 24.22.68 33.79.77 5.54 9.21 9.61 15.85 14.86 25.37-4.65 9.73-9.98 17.99-14.08 27.91-11.83-.26-23.67-.34-35.51-.24-3.87-9.17-8.108-17.69-12.425-26.61 4.356-9.62 8.695-17.84 13.365-27.2m-9.063-17.89c15.053-.37 37.493-.05 52.633.4a561 561 0 0 0-6.44 10.15c-4.94 6.7-5.46 4.55-14.22 4.59-7.51.03-15.08-.12-22.59-.14-2.46-3.5-7.884-11.17-9.383-15m59.893 45.54c5 .15 9.99.23 14.99.24-5.83 13.63-11.9 27.16-18.21 40.58-.35.98-.76 3.33-2.19 3.3-.98-.7-7.29-13.43-8.34-15.43zm-82.06 1.19 15.489-.05c4.666 9.34 8.736 19.02 13.281 28.36-1.89 3.78-3.722 7.25-5.734 10.98-.459.82-2.282 5.43-3.675 2.69-6.809-13.4-11.9-29.07-19.361-41.98"/><path fill="#fc827d" d="M994.513 1299.75c3.041 2.95 6.817 10.35 9.057 14.24-4.174 7.92-9.698 18.06-13.517 26.43-.319.7-2.244.51-2.803.5-3.829.04-13.06 2.09-10.459-2.95 6.421-12.43 11.791-25.55 17.722-38.22"/><path fill="#eb2a2e" d="M1050.71 1300.63c6.89 6.39 13.9 29.68 20.42 37.92 1.36 1.73-1.78 1.75-2.66 1.77l-1.31.05c-14.1-.89-8.65-.07-16.87-13.16-2.59-4.14-5.36-8.55-7.93-12.74 2.79-4.62 5.46-9.31 8.35-13.84"/><path fill="#110d0c" d="M1418.77 1206.9c2.91.91 12.22 4.39 9.9 8.28-3.17 3.12-8.45-5.59-9.9-8.28m-16.01 118.78c2.91 3.62 3.49 4.45 2.78 8.8-4.34-2.76-3.91-4.03-2.78-8.8m-594.616 21.94c2.433 2.25 1.874 2.65.207 5.45l-.707 1.41c-2.184-1.82-2.621-3.11-.673-5.41zm567.496-87.47c.38-.14 1.26-.61 1.79-.51-.01.52-.66 1.25-.88 1.57-.22.01-1.54-.04-1.67-.05.04-.41.47-.7.76-1.01m-112.46 168.32 1.48-.33c-.43.3-.85.61-1.28.92-.26-.01-1.5 0-1.78-.1.53-.16 1.05-.32 1.58-.49"/><path fill="#c78147" d="M922.138 1434.72c6.787.37 10.751-.13 17.504-.82-15.82 9.58-35.009 18.9-51.673 27.48a10109 10109 0 0 1-98.514 50.01l-54.965 28.5c-9.595 4.98-28.52 15.04-38.297 17.8-6.095.58-13.37.29-19.611.22 14.899-9.13 41.323-21.53 57.369-29.55l93.344-46.93c26.325-13.16 68.863-37.94 94.843-46.71M475.21 1211.3l10.338 5.03c-10.813 5.29-22.104 9.56-33.158 14.32-32.257 13.89-64.032 28.99-96.224 43.01-13.25 5.77-35.783 17.51-50.183 12.1 16.649-6.8 34.633-15.4 51.249-22.74zm237.281 60.1c4.939.44 9.358.29 14.298.22-9.78 6.98-32.908 15.86-44.46 21.66-33.576 16.86-71.642 32.29-104.347 50.06l-2.1.75c-5.829-.07-11.659.03-17.482.32l-1.608-.73c3.803-3.12 17.771-8.95 22.958-11.29.622-.52.529-.53 1.255-.71l89.274-41.6c11.192-5.14 31.613-15.38 42.212-18.68"/><path fill="#3c3f40" d="M1512.84 1034.1c24.14.21 47.49-3.54 72.48-.77 18.77 2.08 30.04 8.79 48.64 9.91 24.37 1.47 50.61-1.34 74.52.98 13.18 1.28 25.81 7.09 40.97 8.65 21.58 2.22 50.16-1.97 69.97 3.42l-3.17 2.32c-6.02-1.99-7.55-2.15-13.68-2.79-7.9.24-17.92.38-25.74-.04h-1.28c-7.03.36-17.11.56-24-.6-13.89-.02-29.46-7.08-42.57-8.62-23.73-2.78-54.12 1.11-77.43-1.03-19.9-1.83-33.34-9.7-56.46-10.64-9.97.3-23.3.26-33.26 0-13.46 1.27-29.53 2.95-42.84 1.35 5.56-.15 9.9.67 13.85-2.14"/><path fill="#565e62" d="M1541.83 1034.89c7.67-1.59 25.68-1.36 33.26 0-9.97.3-23.3.26-33.26 0"/><path fill="#858884" d="M1776.83 1055.78c6.64-1.41 19.02-1.54 25.74.04-7.9.24-17.92.38-25.74-.04m-25.28-.6c6.96-.54 17.08-.71 24 .6-7.03.36-17.11.56-24-.6"/><path fill="#110d0c" d="m909.845 1436.48-.665-1.78.529-1.11c4.458-1.61 8.358-1.37 12.429 1.13-25.98 8.77-68.518 33.55-94.843 46.71l-93.344 46.93c-16.046 8.02-42.47 20.42-57.369 29.55 6.241.07 13.516.36 19.611-.22q3.476 1.11 6.898 2.4c-11.756-.18-26.105 1.12-37.474.17 13.537-5.78 26.589-13.14 39.761-19.82l84.636-43.26 85.514-43.18c10.448-5.36 24.775-11.73 34.317-17.52M702.15 1272.9c3.704-2.95 6.063-2.34 10.341-1.5-10.599 3.3-31.02 13.54-42.212 18.68l-89.274 41.6c-.726.18-.633.19-1.255.71-5.187 2.34-19.155 8.17-22.958 11.29l1.608.73c5.823-.29 11.653-.39 17.482-.32l2.1-.75c5.709 2.73 11.631 2.39 13.628 6.1-10.536-4.08-35.388-3.18-47.656-2.88 49.577-24.39 103.065-47.84 153.406-71.58l.955-3.06c1.377.22 2.498.6 3.835.98"/><path fill="#6d4828" d="M558.4 1344.41c5.823-.29 11.653-.39 17.482-.32-6.574 1.88-10.928 1.91-17.482.32"/><path fill="#e7e6e7" d="M698.315 1271.92c1.377.22 2.498.6 3.835.98l-4.79 2.08z"/><path fill="#110d0c" d="M474.62 1209.07c5.688 2.42 11.389 4.32 17.224 6.35-3.078 1.35-2.9 1.2-6.296.91l-10.338-5.03-117.978 51.72c-16.616 7.34-34.6 15.94-51.249 22.74-2.861 3.08-4.615 2.45-8.703 2.35 3.784-3.4 39.759-18.72 46.425-21.67z"/><path fill="#1f2529" d="M1864.99 1060.7c24.29-1.72 49.36-3.71 73.72-3.38 16.29.22 31.15 6.82 44.65 7.92 19.21 1.57 44.96.81 64.64.75v2.01c-19.07.16-46.64 1.21-65.05-.55-14.72-1.41-28.97-7.68-46.71-8.07-25.26-.56-49.17 3.4-74.01 3.62z"/><metadata><recraft-signature>{&quot;signed_by&quot;: &quot;recraft&quot;, &quot;signature_b64&quot;: &quot;x01EdkFwN1NX71kASk95jGqKQ9oO5+5L/nHi+s/PZ12es6vg/GYtU6a8ENFbnsH9Zpcqr2b3B7ttLCMTlfjEAQ==&quot;, &quot;signing_algo&quot;: &quot;Ed25519&quot;, &quot;generation_timestamp&quot;: 1777253308, &quot;identifier&quot;: &quot;b5fbc8d4-637e-4bf3-8496-53e6ef168721&quot;}</recraft-signature></metadata></svg>