<svg xmlns="http://www.w3.org/2000/svg" width="1024" height="1024" preserveAspectRatio="none" style="display:block" viewBox="0 0 2048 2048"><defs><linearGradient id="b" x1="768.62" x2="759.202" y1="593.649" y2="595.384" gradientUnits="userSpaceOnUse"><stop class="stop0" offset="0" stop-color="#1b2c35"/><stop class="stop1" offset="1" stop-color="#17253e"/></linearGradient><linearGradient id="a" x1="374.724" x2="358.576" y1="757.163" y2="761.489" gradientUnits="userSpaceOnUse"><stop class="stop0" offset="0" stop-color="#182830"/><stop class="stop1" offset="1" stop-color="#1d2c41"/></linearGradient></defs><path fill="#fbfafa" d="M0 0h2048v779.932c-32.89-2.632-72.32-14.417-93.43-41.836-5.8-7.533-12.1-20.585-19.55-26.688-12.43-10.18-45.34 2.744-61.49 4.058-14.03 1.141-16.13 1.169-30.31-.075-32.11-2.817-50.58-15.237-68.29-41.844-5.38-8.095-13.92-24.28-21.55-29.137-11.64-7.417-43.38 4.054-57.77 5.695-37.42 4.269-70.62 4.093-99.81-22.582-10.44-9.537-20.91-19.658-31.9-28.429-2.21-1.762-6.25-3.955-9.22-3.751-10.76.738-21.77 6.732-32.31 9.414-7.26 1.847-13.8 3.03-21 4.322-.44.307-.89.614-1.34.922l-3.93 1.92-.64-2.362c-41.49 4.455-59.9-1.257-93.56-27.724-10.5-8.251-20.98-21.45-32.45-26.373-49.22 5.099-92.13 44.571-143.58 14.443-25.36-14.855-37.05-38.05-67.76-17.409-27.58 17.258-59.59 25.665-91.77 17.935-35.35-6.902-54.86-41.066-91.784-45.21-12.401 6.569-16.056 15.254-25.905 22.168-29.37 20.617-63.586 23.021-97.604 13.232a164.5 164.5 0 0 1-31.369-12.434c-5.487-2.866-12.968-7.499-18.309-9.786l-.965.674c-4.777 3.394-9.102 7.109-13.523 10.793-27.957 23.292-65.171 42.689-102.534 36.502-28.544-4.726-52.408-18.547-80.442-22.184-10.798-1.143-25.054 14.427-32.13 21.398 2.866 7.164 4.498 36.706 3.689 44.59l-.888.467c-5.102-10.128-4.639-27.672-7.186-40.599-34.03 22.95-51.942 45.956-96.102 34.949-16.88-4.208-41.859-13.851-55.616-1.895-40.5 35.2-68.855 62.247-126.255 48.663-13.012-3.08-44.046-12.332-55.651-2.193-31.137 31.24-57.073 74.716-108.763 65.831-15.048-2.586-31.469-6.437-47.73-6.174-8.274 7.042-11.917 16.207-18.376 22.933C39.335 772.526 23.49 788.373 0 804.076z"/><path fill="#162937" d="M862.579 389.455c76.713 17.299 151.561 30.447 230.321 33.978 17.54.786 36.85.727 54.07 1.867-42 35.927-40.81 45.715-97.74 62.16 15.31 11.244 39.36 18.613 58.09 12.084 30.41-11.501 59.33-24.578 92.68-19.902 47.52 6.661 51.53 45.675 104.18 22.062a890 890 0 0 0-24.96-6.096c-10.73-22.378-30.19-59.022-42.65-80.254l1.45.311c40.84 8.937 92.07 27.405 133.14 32.432 17.13 2.096 135.02 21.471 144.12 18.055l.62-.238 2.31 2.446c-2.97 4.873-12.46 11.745-17.08 15.408-23.31 18.501-38.46 28.814-67.35 36.076 16.9 14.301 28.16 23.667 52.03 21.15 52.03-5.485 82.45-30.026 128.86 9.899 22.73 19.553 32.69 32.485 63.42 33.597.52-.735 1.76-1.81 2.45-2.464-8.48-2.945-17.3-5.747-25.33-9.709l-32.28-86.122c69.44 33.537 140.33 55.658 214.65 74.433 18.62 4.704 41.36 11.571 60.24 14.166-24.65 18.164-54.56 36.139-85.01 41.142 9.83 14.063 15.21 25.898 33.07 28.737 36.42 5.79 65.62-13.537 101.69-2.538 32.38 9.875 36.15 35.277 60.49 51.659 7.07 4.753 30.58 8.559 39.94 10.177v75.961c-32.89-2.632-72.32-14.417-93.43-41.836-5.8-7.533-12.1-20.585-19.55-26.688-12.43-10.18-45.34 2.744-61.49 4.058-14.03 1.141-16.13 1.169-30.31-.075-32.11-2.817-50.58-15.237-68.29-41.844-5.38-8.095-13.92-24.28-21.55-29.137-11.64-7.417-43.38 4.054-57.77 5.695-37.42 4.269-70.62 4.093-99.81-22.582-10.44-9.537-20.91-19.658-31.9-28.429-2.21-1.762-6.25-3.955-9.22-3.751-10.76.738-21.77 6.732-32.31 9.414-7.26 1.847-13.8 3.03-21 4.322-.44.307-.89.614-1.34.922l-3.93 1.92-.64-2.362c-41.49 4.455-59.9-1.257-93.56-27.724-10.5-8.251-20.98-21.45-32.45-26.373-49.22 5.099-92.13 44.571-143.58 14.443-25.36-14.855-37.05-38.05-67.76-17.409-27.58 17.258-59.59 25.665-91.77 17.935-35.35-6.902-54.86-41.066-91.784-45.21-12.401 6.569-16.056 15.254-25.905 22.168-29.37 20.617-63.586 23.021-97.604 13.232a164.5 164.5 0 0 1-31.369-12.434c-5.487-2.866-12.968-7.499-18.309-9.786l-.965.674c-4.777 3.394-9.102 7.109-13.523 10.793-27.957 23.292-65.171 42.689-102.534 36.502-28.544-4.726-52.408-18.547-80.442-22.184-10.798-1.143-25.054 14.427-32.13 21.398 2.866 7.164 4.498 36.706 3.689 44.59l-.888.467c-5.102-10.128-4.639-27.672-7.186-40.599-34.03 22.95-51.942 45.956-96.102 34.949-16.88-4.208-41.859-13.851-55.616-1.895-40.5 35.2-68.855 62.247-126.255 48.663-13.012-3.08-44.046-12.332-55.651-2.193-31.137 31.24-57.073 74.716-108.763 65.831-15.048-2.586-31.469-6.437-47.73-6.174-8.274 7.042-11.917 16.207-18.376 22.933C39.335 772.526 23.49 788.373 0 804.076v-91.003c24.517-21.052 37.352-38.543 69.783-46.837 7.552-1.893 22.495-6.237 30.309-5.199 48.243 6.408 56.097 3.332 89.367-32.144-19.202-7.98-58.516-39.733-75.275-54.756 7.511-1.845 34.143-4.377 43.035-5.466a548 548 0 0 0 61.177-10.83 1617 1617 0 0 0 109.983-30.324c11.637-3.545 32.431-11.213 42.997-13.798l1.806-.432c-12.217 41.196-25.801 63.253-55.741 92.913 45.326-8.927 62.377-56.299 121.527-54.803 19.006.481 26.187 2.854 44.255 5.951 19.887 3.408 47.681-24.064 62.131-36.946l-15.497-.533c-17.631-15.993-42.303-43.176-59.45-61.046 71.085.63 142.081-5.17 212.121-17.327 14.608-2.452 42.274-6.792 56.09-11.167 2.685-.146 2.593-.25 5.088.633-19.274 35.183-43.685 58.619-79.056 77.045 37.014 21.738 56.558 5.942 90.013-10.361 37.951-18.494 74.564-16.224 113.508-3.847 27.665 8.791 53.3-5.933 76.758-19.978-12.115-2.476-24.4-4.013-36.635-6.493-14.922-26.028-30.787-51.668-45.715-77.873"/><path fill="#83868c" d="M1495.46 609.559c2.62-.552 3.25-.51 5.91-.48-.44.307-.89.614-1.34.922l-3.93 1.92z"/><path fill="#f0eff1" d="M1680.54 582.026c3.34 1.41-1.4 2.19-2.45 2.464.52-.735 1.76-1.81 2.45-2.464"/><path fill="#fbfafa" d="M1695.32 543.268c14.68-.875 25.83-.019 40.21 2.543-.52 4.239-1.28 7.717-1.84 11.821 3.79 1.433 11.89 3.676 14.99 6.458.33.289-1.05 3.032-1.25 3.49-.23.249-2.81 3.578-3.46 3.21-14.97-8.456-35.22-17.088-48.65-27.522M969.538 427.367c3.091-.636 9.481-.798 12.911-.977-.715 4.316-1.444 8.087-2.087 12.485a199 199 0 0 0 12.686 2.892c4.278.794 5.266 1.492 2.343 7.274-.778 1.537-13.61-3.269-15.906-4.162-12.144-3.498-25.87-9.353-39.042-13.411 2.406-.448 5.185-1.078 7.562-1.372zm381.092 32.093c9.02-1.239 3.83 5.539 1.61 11.869 6.27 1.377 11.96 2.267 18.31 3.275-1.14 2.918-2.2 5.869-3.37 8.774-5.59-2.061-13.05-4.845-18.31-7.361-11.24-5.332-23.32-9.786-34.86-15.019 12.18-.599 24.42-.706 36.62-1.538m-764.903 7.542c6.172.396 2.474 4.807 6.286 8.458 3.802 2.853 11.113-3.297 12.25 1.562 2.843 12.147-9.473 6.679-23.137 5.276a501 501 0 0 1-27.082-2.68c11.5-3.985 21.599-9.177 31.683-12.616M217.585 572.911c6.358-.394 2.163 3.61 3.777 8.117 2.75 7.681 14.328-7.178 15.322 4.126.608 6.916-17.717 7.404-21.172 7.784-.668-3.474-1.279-7.204-1.987-10.62-1.336.191-17.472 2.787-18.052 2.514-2.658-1.249-2.537-4.748 1.995-5.71a108.5 108.5 0 0 0 17.164-5.08zm1626.555 3.557c5.56 1.107 11.31 2.625 16.83 4.014-1.69 4.765-3.26 8.891-5.48 13.444l-1.87 3.791c-3.7 1.119-9.86-2.728-14.58-4.463 1.87-5.951 3.4-10.763 5.1-16.786m-377.67-100.531c6.57.769 10.86.927 17.4 1.158-1.67 5.69-3.32 10.929-4.79 16.726-3.17.302-11.64-.895-15.58-1.068.87-5.693 1.99-11.178 2.97-16.816M344.801 537.171c.312-.036 2.427-.384 2.624 0 1.047 2.047 1.026 16.594 1.043 17.722-3.807 1.321-7.217 2.418-10.871 4.142-2.404-6.007-4.073-12.093-6.037-18.215 4.443-1.168 8.824-2.494 13.241-3.649M1093.35 437.9c5.54.234 10.58.902 16.21 1.182l-1.3 6.427c-.61 3.116-1.32 6.057-1.92 9.162l-15.78-.746c.81-5.316 1.71-10.76 2.79-16.025m-382.1 11.507c3.563.793 2.546 12.793 2.462 15.948-4.145.619-8.336 1.119-12.507 1.715-2.553-2.232-3.136-11.575-3.809-15.625 5.2-.635 8.699-1.257 13.854-2.038M272.495 571.066c2.499-.253 5.251.418 4.61 4.353-.268 1.649-7.775 3.418-9.818 4.088-3.306.815-8.785-4.617.86-7.163z"/><path fill="#f0eff1" d="M1770.97 569.257c3.94-.4 11.18-.818 13.45 3.221l.85 1.404c-5.54.02-10.91.024-14.3-4.625"/><path fill="#fbfafa" d="M1396.43 477.123c5.35-.345 9.53-.957 12.16 4.135-6.22.553-9.29 1.07-12.16-4.135m-756.429-9.542c6.062 3.168.622 4.632-2.785 5.919-5.338-2.655-3.346-3.947 1.071-5.312z"/><path fill="#f0eff1" d="M1023.69 443.46c4.05-.455 8.43-1.702 11.49 1.236-4.79 2.08-7.76 2.498-11.49-1.236"/><path fill="#162937" d="M1423.86 204.267c7.67 7.532 17.76 22.363 23.83 31.79 37.73 58.588 62.89 141.451 67.48 211.008l-1.6.697c-19.51-16.703-60.84-24.482-85.55-30.398-17.09-4.09-25.06 2.717-32.02 1.851l-3.01-3.023c6.04-53.664 14.8-107.624 23.15-160.963 2.12-13.556 4.82-28.038 5.84-41.693l2.59-1.93c.57-3.171.38-3.181-.81-6.224z"/><path fill="#f0eff1" d="M1424.57 211.606A6120 6120 0 0 0 1396 419.215l-3.01-3.023c6.04-53.664 14.8-107.624 23.15-160.963 2.12-13.556 4.82-28.038 5.84-41.693z"/><path fill="#fbfafa" d="M1438.5 319.436c4.63-.255 29.4-1.529 31.26.728.7 3.777-8.08 2.728-9.35 6.207-2.58 7.064-3.72 14.479-5.93 21.637-1.03 3.326-2.54 10.478-5.1 12.778-1.3.597-3.45-.691-4.62-1.247-6.81-2.701-11.32-4.522-18.48-6.511 10.39-5.963 8.45-5.335 19.66-4.756 2.73-7.749 4.71-15.152 7.28-22.694-1.42-.139-21.79-1.695-14.72-6.142m34.25 36.197c3.95 3.564 11.65 33.553 13.46 40.296-3.48-2.218-6.77-4.428-10.21-6.729-6.13-4.563-13.28-9.267-19.64-13.583 5.19-6.63 10.71-13.782 16.39-19.984m-27.91-85.788c4.37.992 10.86 21.811 13.08 26.958l1.6 3.747c-2.81-2.122-5.71-4.553-8.41-6.829-5.16-4.905-14.41-11.262-20.11-16.409 4.58-2.497 9.35-4.832 13.84-7.467"/><path fill="#162937" d="M1023.09 390.81c2.04-13.568 2.43-37.964 3.24-52.363 2.23-38.766 4.86-77.506 7.92-116.216.98-12.859 1.4-34.604 3.15-46.133 66.52 65.773 88.87 141.422 108.03 229.427l-1.18 1.072c-17.78-17.503-85.25-25.076-109.82-24.516-4.4 2.574-7.46 5.444-11.34 8.729"/><path fill="#fbfafa" d="M1069.95 284.586c7.01-.577 33.92-3.71 12.79 5.39l-.8.355c-2.29 9.502-4.49 24.59-7.84 33.179l-1.34 3.423c-5.05-1.768-10.55-3.505-15.45-5.276-1.54-.244-7.2-.215-7.41-1.7 3.18-5.075 15.18-5.859 20.15-6.215 1.24-7.007 2.39-14.276 3.85-21.231l.38-1.881c-11.09-1.131-29.7-3.256-4.33-6.044m26.89 34.964c3.59 2.006 15.47 32.849 18.05 39.16-3.52-2.304-6.59-4.44-10.21-6.619-8.05-4.849-15.38-8.332-23.69-12.524 5.45-6.516 10.33-13.517 15.85-20.017m-33.26-84.696c2.41 3.059 11.69 23.73 14.54 29.167-3.44-2.505-6.42-4.708-10.01-7.027-7.38-3.958-14.42-8.152-21.68-12.291 6.63-3.16 10.95-5.733 17.15-9.849"/><path fill="#162937" d="M623.724 426.368c-2.639-18.247-7.024-36.724-10.255-54.944a8111 8111 0 0 1-16.135-97.49c-2.675-16.333-6.718-36.846-8.142-53.027 11.308 8.488 22.276 16.141 33.05 25.382a442.8 442.8 0 0 1 118.485 164.464l-1.565 1.05c-23.068-7.736-82.535-6.981-105.294 3.147-4.345 1.933-5.45 4.284-7.907 8.058z"/><path fill="#f0eff1" d="M661.383 311.092c4.75.678-4.505 5.247-5.647 6.047-.294 12.806-.921 23.937-.142 36.761-8.71.109-17.371.162-26.074.666 2.242-2.28 4.527-4.508 6.738-6.819 3.869-3.626 5.803-2.913 10.937-4.335a610 610 0 0 1 1.283-23.133c-3.967.979-7.862 2.147-11.888 2.8-1.834.298-2.68-2.124-2.059-2.609 5.254-4.103 20.245-7.655 26.852-9.378"/><path fill="#fbfafa" d="M675.726 341.62c6.453 5.182 14.456 19.264 20.243 25.904.578.663 3.357 4.182 2.707 5.109-.885.327-4.622-.816-5.673-1.04l-1.557-.442c-8.48-2.454-17.463-4.445-26.079-6.767 3.616-9.931 4.983-13.421 10.359-22.764m-49.931-68.77c2.169 2.048 17.786 21.287 17.768 21.957l-.176.166c-1.524.243-3.656-1.022-4.943-1.605l-.912-.399c-7.761-3.371-16.6-6.377-24.64-9.077 5.414-4.516 8.017-5.781 12.903-11.042"/><path fill="#162937" d="M201.377 322.331c77.658 43.805 124.803 90.621 171.074 167.439l-2.002 1.284c-29.232-2.263-92.375 1.733-112.49 25.773-1.623-8.038-4.104-16.601-6.635-24.416-17.186-53.062-31.646-106.833-47.52-160.282a135 135 0 0 1-2.427-9.798"/><path fill="#fbfafa" d="M302.473 432.529c5.312 3.91 19.821 20.633 24.496 26.118-4.042.141-7.929.059-11.967.015l-24.917.621c4.07-9.472 7.48-17.497 12.388-26.754m-63.535-69.184c3.649 1.558 25.144 19.932 25.537 22.127l-.122.16c-1.225.401-2.363.062-3.644-.139-10.435-2.935-20.355-4.596-31.049-6.031a1118 1118 0 0 0 9.278-16.117m37.773 44.839c.656 4.121-.638 13.788-.966 18.841-5.932 3.429-10.238 5.328-16.504 8.029-1.204-5.982-1.357-8.43-1.95-14.599 6.823-4.91 12.211-8.015 19.42-12.271"/><path fill="#162937" d="m1016.39 211.95 2.75 2.034c-2.43 61.593-6.19 123.287-8.32 184.675-20.018-17.026-63.568-23.171-87.096-11.552l-.931-1.039a656 656 0 0 0 93.597-174.118"/><path fill="#162937" d="M1015.9 409.286c2.69-63.469 8.78-124.098 12.42-187.198.66-13.37 1.4-26.737 2.21-40.099.37-5.418 2.99-14.724-.41-18.455-3.07-.515-3.4-.225-5.94-1.804l.38-1.842c2.92-1.406 6.93-.415 10.35.023 1.83 2.605 1.07 4.077 1.04 8.043.23 3.23-.23 6.236 1.45 8.144-1.75 11.529-2.17 33.274-3.15 46.133-3.06 38.71-5.69 77.45-7.92 116.216-.81 14.399-1.2 38.795-3.24 52.363 3.88-3.285 6.94-6.155 11.34-8.729 24.57-.56 92.04 7.013 109.82 24.516.75 4.013 1.53 7.595 2.16 11.651l2.19.195c4.56.602 9.18.669 12.9 3.097-1.83 2.672-8.63 1.526-11.66 1.284l-2.87 2.476c-17.22-1.14-36.53-1.081-54.07-1.867-78.76-3.531-153.608-16.679-230.321-33.978l-.294-3.513c-3.131-.866-10.202-2.51-12.603-4.116l-.102-1.325c7.061-1.146 56.503 12.16 68.04 14.562 1.642-3.188 2.984-6.152 5.173-8.995l.931 1.039c-2.023 2.935-4.277 5.138-2.051 8.407 12.884 4.569 78.347 13.005 94.227 13.772"/><path fill="#fbfafa" d="M1034.43 382.081c24.57-.56 92.04 7.013 109.82 24.516.75 4.013 1.53 7.595 2.16 11.651-6.38 1.061-27.06-.497-34.74-.966-30.97-1.81-61.9-4.291-92.76-7.444.85-5.639.95-10.473 1.18-16.138l1.39-2.717 1.61-.173c3.88-3.285 6.94-6.155 11.34-8.729"/><path fill="#f0eff1" d="M862.285 385.942c33.524 7.292 64.505 15.04 98.723 20.114 29.281 4.342 57.382 6.943 86.872 9.599 22.3 1.988 44.62 3.646 66.97 4.972 7.32.426 28.86 1.038 34.99 2.197l-2.87 2.476c-17.22-1.14-36.53-1.081-54.07-1.867-78.76-3.531-153.608-16.679-230.321-33.978zm173.665-217.988c.23 3.23-.23 6.236 1.45 8.144-1.75 11.529-2.17 33.274-3.15 46.133-3.06 38.71-5.69 77.45-7.92 116.216-.81 14.399-1.2 38.795-3.24 52.363l-1.61.173-1.39 2.717c3.02-66.66 9.1-132.689 13.55-199.223.61-9.016.77-17.548 2.31-26.523"/><path fill="#162937" d="m1401.51 246.479 1.94.898c-3.35 22.7-5.13 43.839-7.77 66.465a7010 7010 0 0 1-15.27 119.108c-15.26-18.065-66.09-31.248-84.16-15.751l-1.53-.145c13.7-19.319 29.92-39.362 44.07-59.46 27.73-39.413 43.56-67.581 62.72-111.115m-824.431 14.404c.875-2.067.595-3.053 2.637-3.691a5841 5841 0 0 1 22.298 118.46c3.074 17.41 7.455 39.966 9.571 57.411-20.16-9.221-79.216-10.849-82.968 17.899l-1.483-1.032c3.495-12.686 13.422-37.121 18.042-50.789 14.433-42.706 29.416-93.001 31.903-138.258M197.466 362.23c18.606 56.605 35.259 116.214 53.085 173.393-9.902-4.778-17.051-6.235-28.142-5.389-15.689 1.197-40.981 6.878-51.511 19.4l-1.378-2.231c15.031-55.759 24.901-106.583 25.811-164.687 3.102-3.329-.836-13.582 2.135-20.486"/><path fill="#fbfafa" d="M203.804 332.129c15.874 53.449 30.334 107.22 47.52 160.282 2.531 7.815 5.012 16.378 6.635 24.416 20.115-24.04 83.258-28.036 112.49-25.773 4.2 4.056 5.478 7.796 8.328 12.938-4.507 2.598-24.16 8.03-29.98 9.88-29.269 9.302-59.223 16.34-88.671 24.789-4.624-20.142-12.548-45.363-18.424-65.491a4812 4812 0 0 1-25.82-90.104c-4.816-16.794-10.094-32.999-13.945-50.07zM1396 419.215c6.96.866 14.93-5.941 32.02-1.851 24.71 5.916 66.04 13.695 85.55 30.398.6 4.6.86 7.396 1.78 12.032l-1.07 1.118c-5.92 1.712-114.01-14.203-126.35-16.45 2.67-10.053 3.7-18.069 5.06-28.27z"/><path fill="#162937" d="M257.304 539.706c-3.616-16.751-12.294-43.31-17.34-60.628a10253 10253 0 0 1-33.398-116.182c-1.371-4.863-12.369-46.651-13.527-47.634-3.046 1.094-3.475 1.432-6.764 1.6l-.983-1.68c3.117-3.696 4.405-4.175 9.168-3.372 3.366 2.532 2.495 2.942 3.941 8.131 1.587.937 1.575 1.015 2.976 2.39a135 135 0 0 0 2.427 9.798l-1.867.867c3.851 17.071 9.129 33.276 13.945 50.07a4812 4812 0 0 0 25.82 90.104c5.876 20.128 13.8 45.349 18.424 65.491 29.448-8.449 59.402-15.487 88.671-24.789 5.82-1.85 25.473-7.282 29.98-9.88l1.555-.691c4.71-1.028 8.501-2.562 12.957-1.515l-.393 1.302c-6.855 3.624-11.592 4.658-19.057 6.712l-.657 3.487-1.806.432c-10.566 2.585-31.36 10.253-42.997 13.798a1617 1617 0 0 1-109.983 30.324 548 548 0 0 1-61.177 10.83c-8.892 1.089-35.524 3.621-43.035 5.466-.981-3.799-4.147-3.004-7.72-3.449-3.314.407-3.729.789-6.683-.759l-.232-1.668c2.294-1.511 57.14-6.714 66.501-8.204 2.118.016 2.892.26 4.772-.499 25.049-4.003 62.818-11.796 86.482-19.852"/><path fill="#f0eff1" d="M106.464 570.688c25.711-3.709 51.862-5.005 77.773-10.234 64.141-12.945 126.819-32.943 189.602-50.654l-.657 3.487-1.806.432c-10.566 2.585-31.36 10.253-42.997 13.798a1617 1617 0 0 1-109.983 30.324 548 548 0 0 1-61.177 10.83c-8.892 1.089-35.524 3.621-43.035 5.466-.981-3.799-4.147-3.004-7.72-3.449m91.937-250.747c1.587.937 1.575 1.015 2.976 2.39a135 135 0 0 0 2.427 9.798l-1.867.867c-1.375-4.356-2.411-8.637-3.536-13.055"/><path fill="#fbfafa" d="m623.724 426.368 2.237-3.36c2.457-3.774 3.562-6.125 7.907-8.058 22.759-10.128 82.226-10.883 105.294-3.147 2.405 4.138 3.327 6.544 5.085 10.961-11.632 6.837-102.261 17.427-120.667 20.482-.489-3.094-2.329-13.391-2.447-16.01z"/><path fill="#162937" d="M1384.3 444.212c3.71-15.463 37.2-249.331 37.08-250.124-.38-2.568-4.61-3.677-6.75-4.726l-.09-1.47c2.84-1.662 8.01-1.082 10.65.865 2.12 3.929-.27 10.818-1.33 15.51l-.1 1.115c1.19 3.043 1.38 3.053.81 6.224l-2.59 1.93c-1.02 13.655-3.72 28.137-5.84 41.693-8.35 53.339-17.11 107.299-23.15 160.963-1.36 10.201-2.39 18.217-5.06 28.27 12.34 2.247 120.43 18.162 126.35 16.45l1.07-1.118 1.84.68c4.93 3.747 14.66.647 15.5 5.195-3.36 2.055-11.29-.06-16.79.245l-.62.238c-9.1 3.416-126.99-15.959-144.12-18.055-41.07-5.027-92.3-23.495-133.14-32.432l-1.45-.311c-.68-1.484-.39-.825-.07-2.905-3.86-1.281-9.5-2.413-11.47-5.347l1.54-1.714c11.5 1.293 55.54 19.311 63.16 17.454l2.32-2.952.76 1.544-.53 2.054c4.33 4.365 80.75 18.605 92.02 20.724"/><path fill="#f0eff1" d="M1236.5 412.449c16.95 3.705 33.67 9.569 50.5 13.715 30.8 7.585 62.13 15.271 93.47 20.149 40.36 6.281 80.74 11.63 121.17 17.321 4.27.601 9.68 1.03 13.64 2.518-9.1 3.416-126.99-15.959-144.12-18.055-41.07-5.027-92.3-23.495-133.14-32.432l-1.45-.311c-.68-1.484-.39-.825-.07-2.905"/><path fill="#83868c" d="M1423.76 205.382c1.19 3.043 1.38 3.053.81 6.224l-2.59 1.93c.48-3.111.93-5.126 1.78-8.154"/><path fill="#162937" d="M619.207 443.725c-.583-11.628-4.504-32.048-6.512-44.115a6645 6645 0 0 0-13.236-78.066 4282 4282 0 0 1-12.012-72.776c-1.124-7.259-3.419-32.91-7.013-36.47-2.552-.36-3.437-.481-5.89-1.211l-.174-1.764c2.413-1.992 6.722-2.483 9.981-3.165l2.411 11.329c.565.747 2.148 2.669 2.43 3.42 1.424 16.181 5.467 36.694 8.142 53.027a8111 8111 0 0 0 16.135 97.49c3.231 18.22 7.616 36.697 10.255 54.944l-2.591.868c.118 2.619 1.958 12.916 2.447 16.01 18.406-3.055 109.035-13.645 120.667-20.482l1.764.037c4.332-.655 8.218-1.757 12.254-.458l-.148 1.204c-4.628 2.766-9.073 3.088-14.436 4.037l.025 3.378c-2.495-.883-2.403-.779-5.088-.633l-1.425-1.411c-81.336 13.777-160.088 26.088-242.773 25.509-6.99-.048-29.843 1.506-35.446-.213l-.453-1.076c6.495-4.926 58.626.357 68.613-3.208l1.483 1.032c27.641-.088 62.902-4.102 90.59-7.237"/><path fill="#f0eff1" d="M586.762 217.487c.565.747 2.148 2.669 2.43 3.42 1.424 16.181 5.467 36.694 8.142 53.027a8111 8111 0 0 0 16.135 97.49c3.231 18.22 7.616 36.697 10.255 54.944l-2.591.868c-3.066-12.448-6.165-32.655-8.384-45.572a5453 5453 0 0 1-13.616-83.026c-3.913-25.23-10.568-56.447-12.371-81.151m150.431 211.431c2.646-.707 3.777-.953 6.488-1.334l.025 3.378c-2.495-.883-2.403-.779-5.088-.633z"/><path fill="#373a42" d="M194.96 351.544c.79 2.811 1.567 6.315 2.159 9.201l.347 1.485c-2.971 6.904.967 17.157-2.135 20.486a1259 1259 0 0 1-.371-31.172"/><path fill="#83868c" d="M372.451 489.77c2.643 3.686 5.936 9.454 7.881 13.531l-1.555.691c-2.85-5.142-4.128-8.882-8.328-12.938z"/><path fill="#696b72" d="M166.05 560.057c1.134-4.205 2.413-8.414 3.47-12.654l1.378 2.231-.484 1.598c-1.063 3.435-3.179 6.424.408 8.326-1.88.759-2.654.515-4.772.499"/><path fill="#373a42" d="m1018.63 203.671 1.75.428c-.4 3.417-.76 6.464-1.24 9.885l-2.75-2.034c.85-2.718 1.61-5.5 2.24-8.279"/><path fill="#696b72" d="M740.727 410.753c2.244 3.586 4.043 8.007 5.284 12.048l-1.764-.037c-1.758-4.417-2.68-6.823-5.085-10.961z"/><path fill="#83868c" d="m1513.57 447.762 1.6-.697c1.02 4.038 1.34 9.1 2.02 13.409l-1.84-.68c-.92-4.636-1.18-7.432-1.78-12.032"/><path fill="#696b72" d="M1145.43 405.525c.94 4.272 2.29 8.617 3.17 12.918l-2.19-.195c-.63-4.056-1.41-7.638-2.16-11.651zM577.079 260.883c-.016-.681-.938-13.566 1.372-11.627l.519 1.419-.056-.211c.232 2.252.484 4.487.802 6.728-2.042.638-1.762 1.624-2.637 3.691"/><path fill="#83868c" d="M1401.51 246.479c.67-3.18 1.65-5.227 2.2-8.556l1.31-.482.03-.635-.72-.412.15-.232.71.389-.08-.783.2.029c.78 1.101-1.49 9.95-1.86 11.58zM1292.05 419.89c1.17-1.479 1.27-1.676 2.67-2.836l1.53.145c-1.47 2.21-1.51 2.265-3.44 4.235z"/><path fill="#696b72" d="m1018.63 203.671.16-1.364c.3-3.216 3-4.559 1.59 1.792z"/><path fill="#162937" d="M1770.32 535.484c12.78-53.996 27.31-107.651 40.16-161.604 2.62-10.997 21.96-74.963 20.07-80.427-2.55-.828-4.43-1.13-6.26-3.038l.91-1.672c3.62-.772 7.94.861 11.66 1.849-1.12 5.825-2.65 11.529-4.11 17.281l1.44.587c6.86 3.646 27.34 48.011 31.44 57.612 23.77 55.634 32.94 115.998 33.61 176.268.48 2.216.41 23.243.44 26.922 5.8.896 7.86.907 12.47 4.401l-.76.698c-14.45-1.94-29.24-5.688-43.46-9.429-54.93-14.449-110.93-28.383-164.07-48.492-27.1-10.256-52.73-22.614-79.92-32.563-3.56-1.302-11.13-5.181-12.57-8.609 7.11-.266 56.46 23.333 66.14 27.724l7.94-8.519 3.88.051-9.98 9.28a897 897 0 0 0 90.97 31.68"/><path fill="#fbfafa" d="M1781.03 517.385c5.63-4.842 11.33-5.793 18.6-5.019 26.31 2.799 81.64 27.224 98.93 44.474-.23 3.663-.09 6.284-1.58 9.636-7.26 2.571-110.21-26.842-123.9-30.591 2.14-6.403 3.52-11.837 5.16-18.398l1.93.485z"/><path fill="#162937" d="M1770.32 535.484c12.78-53.996 27.31-107.651 40.16-161.604 2.62-10.997 21.96-74.963 20.07-80.427-2.55-.828-4.43-1.13-6.26-3.038l.91-1.672c3.62-.772 7.94.861 11.66 1.849-1.12 5.825-2.65 11.529-4.11 17.281l1.44.587c-3.81 12.053-6.91 26.504-10.38 38.969a4242 4242 0 0 0-42.78 169.956l-.86.587-1.93-.485c-1.64 6.561-3.02 11.995-5.16 18.398 13.69 3.749 116.64 33.162 123.9 30.591 1.49-3.352 1.35-5.973 1.58-9.636.45-5.065.57-9.45.68-14.5.48 2.216.41 23.243.44 26.922 5.8.896 7.86.907 12.47 4.401l-.76.698c-14.45-1.94-29.24-5.688-43.46-9.429-54.93-14.449-110.93-28.383-164.07-48.492-27.1-10.256-52.73-22.614-79.92-32.563-3.56-1.302-11.13-5.181-12.57-8.609 7.11-.266 56.46 23.333 66.14 27.724l7.94-8.519 3.88.051-9.98 9.28a897 897 0 0 0 90.97 31.68"/><path fill="#f0eff1" d="m1832.75 307.873 1.44.587c-3.81 12.053-6.91 26.504-10.38 38.969a4242 4242 0 0 0-42.78 169.956l-.86.587-1.93-.485c3.78-21.616 14.92-60.94 20.68-83.504 10.04-39.258 21.35-87.729 33.83-126.11"/><path fill="#fbfafa" d="M1832.62 420.087c4.95-.338 56.8 2.23 24.05 8.381-2.98 6.54-9.99 28.859-15.18 35.53-.44.573-2.28-.347-2.95-.651-6.97-4.329-11.29-7.346-19.27-9.549l-1.84-.558c4.85-2 14.9-7.252 19.59-5.363 5.83 2.35 9.8-13.818 12.71-19.797-7.06-2.09-16.71-1.598-17.11-7.993m33.56 39.681c2.06 1.05 2.03 3.36 2.6 5.738l.95 4.024c2.59 11.659 5.35 23.28 8.27 34.861-3.67-3.392-6.57-6.307-10.46-9.553-6.78-6.254-13.73-11.747-20.44-17.881 6.38-5.658 12.74-11.609 19.08-17.189m-18.15-88.682c1.31 1.108 7.93 27.346 9.69 32.174a818 818 0 0 1-9.07-8.988c-5.88-5.803-11.5-11.258-17.09-17.351 5.45-1.658 11.06-3.913 16.47-5.835"/><path fill="#162937" d="M1685.45 494.473c43.19-44.749 85.9-91.978 117.06-146.394 3.41-5.955 6.66-12.227 10.27-18.033-14.79 57.641-26.73 115.995-41.25 173.713-1.6 6.345-3.05 12.451-4.08 18.923-13.21-18.598-55.78-35.87-78.12-28.158zm-545.24 710.937c.24-17.66-.69-26.15-4.19-43.29-.59-2.91-.72-4.4.82-6.28l2.09.29c7.28 7.61 7.1 39.67 6.98 50.32l9.83 1.76c8.48-13.59 13.59-22.73 25.94-32.73l1.08.14c-3.18-7.73-5.46-6.02-7.26-15.15 5.64-3.29 18.77 3.7 23.34 7.57.49 2.67-.54 4.57-1.47 7.19.99.67 2.01 1.08 2.54 2.16-3.9.65-11.56.12-15.89.02l-.27 1.15c-8.28 10.38-14.46 18.87-21.4 30.28 12.79 1.02 21.47 3.5 33.56 5.67 36.95 6.62 46.41 44.82 7.96 60.76 3.98 21.15 10.66 45.31 15.83 66.43l26.89 110.26c3.43 13.97 8.54 31.82 11.29 45.6 11.21 1.64 20.05 5.17 27.24 14.65a33.74 33.74 0 0 1 6.5 25.05c-1.51 10.85-7.77 19.1-16.57 25.25a73 73 0 0 1-4.81 3.02 4841 4841 0 0 0 23.08 96.42c6.99 28.02 16.34 59.08 18.92 87.56 7.02 77.47-43.75 135.12-115.27 154.87l1.99 2.76 168.89.05.15 54.23q-33.495-.495-66.99-.3l.1 86.88H749.439l-.08-86.97h-62.168l-.083-53.53 180.596-.27c-10.904-3.54-21.437-5.97-32.306-10.15-55.554-21.4-96.961-75.85-94.455-136.58 1.472-35.67 13.954-76.23 22.937-111.27l20.894-84.34c-9.069-5.7-15.694-11.14-19.101-22.02a34 34 0 0 1 2.982-27.24c5.756-9.89 14.502-15.32 25.267-18.19a9360 9360 0 0 0 33.231-130.43c7.286-28.33 18.214-65.45 23.322-93.81-5.52-2.18-11.019-4.51-15.145-8.95-4.944-5.31-8.404-14.57-7.885-21.83.507-7.09 4.518-12.97 9.806-17.48 30.943-26.4 177.099-26.4 218.369-25.24 28.32.79 56.39 3.1 84.59 5.71"/><path fill="#fbfafa" d="m795.693 1961.02 458.187.13c-.03 28.6.35 58.34-.25 86.85H795.151z"/><path fill="#f0eff1" d="M1198.96 1907.14c-1.34-.03-6.05.15-7.04-.66.63-1.06 3.9-1.77 5.05-2.1z"/><path fill="#d08945" d="M799.039 1503.16c7.264-.49 37.35 7.4 46.596 9.37a763 763 0 0 0 43.226 7.84c36.744 5.69 71.265 8.91 108.279 11.89 14.15 1.14 35.53 1.57 48.65 3.46.28 1.06.31 6.68-.43 6.95-14.35 5.3-80.954-2.2-89.018 3.38l-.389 2.42c2.584 4.37 34.743 12.77 41.805 14.9 13.402 3.95 27.062 7.16 40.042 12.29l-4.04 11.42c-69.23 1.27-139.415-3.19-207.646-18-22.06-4.79-68.755-14.56-50.58-50.93 3.825-7.65 15.207-13.1 23.505-14.99"/><path fill="#162937" d="M874.079 1550.01c15.835 1.43 31.597 3.75 47.438 5.14 5.606.49 4.916 3.66 4.132 8.09-14.761-.66-29.959-2.69-44.648-4.34-7.889-.89-8.776-1.94-6.922-8.89m-68.537-27.48c5.189.76 15.81 2.62 20.026 5.86.823.63-1.032 5.33-1.316 6.23-3.609-.05-7.662-2.65-11.797-3.49-7.003-1.42-8.17 0-7.169-6.62z"/><path fill="#d08945" d="M1173.93 1633.2c5.77-.06 12.08.19 17.89.33 2.67 36.78 5.63 73.53 8.88 110.26l-5.78 1.04c-4.79.85-9.75 2.81-8.52 8.7 4.5 5.59 8.07 4.96 15.42 5.87 2.63 34.8 15.53 80.76 26.82 114.45-8.59 4.49-15.51 7.67-24.39 11.51-17.69 6.77-32.96 10.26-51.28 14.36-.15-68.86.18-137.73 1-206.59l18.25.34c.96-19.73 1.19-40.46 1.71-60.27"/><path fill="#d08945" d="M1293.98 1715.16c2.39 2.72 3.47 11.65 4.2 15.29 9.88 48.91-3.25 94.39-43.06 125.76-6.02 4.74-13.08 10.62-19.88 14.26l-1.75-.54-.77-3.07c-3.42-18.16-9.17-37.71-14.15-55.64 7.3-3.4 16.57-6.61 24.24-9.48-.13-23.09 1.06-48.88 2.28-71.98 16.51-3.73 32.86-9.24 48.89-14.6m-29.3-209.46c18.63 6.53 27.39 29 13.13 44.37-9.46 10.19-24.01 13.38-37.22 16.28-42.53 9.34-87.83 16.7-131.32 18.75l-1.21-12.79c15.47-1.7 30.87-3.96 46.17-6.76l25.36-3.54c4.68-.7 13.61-1.74 16.39-5.49l-.78-1.7c-8.74-4.73-52.98-7.36-66.24-8.7l.29-18.01c39.94-2.65 80.94-11.28 119.89-20.25 2.03 6.01 4.76 12.17 7.23 18.04l13.17-4.97c-1.75-4.65-3.37-10.41-4.86-15.23"/><path fill="#162937" d="M1234.5 1532.03c3.52.05 5.27 3.02 4.13 4.85-1.74 2.79-18.49 7.48-21.41 8.45-2.34-.32-7.12-2.75-4.59-5.1 3.83-3.56 16.38-6.74 21.87-8.2"/><path fill="#d08945" d="M833.219 1748.9c7.291-.06 11.811.5 19.093 1.38-.104 8.97.217 16.87.649 25.79l13.037.04c2.236 12.92 3.711 32.43 5.168 45.74l8.64 72.59-8.889-2.57c-20.148-5.87-31.95-10.87-50.332-20.91 5.757-34.84 8.84-85.47 12.634-122.06m10.238-520.33c10.253 2.02 23.942 8.34 37.363 10.92 53.258 10.22 107.165 13.45 161.27 14.88l-.09 12.43c-36.91.17-73.63.74-110.513-.68-3.222 1.93-2.106.63-3.619 3.89l.943 2.11c4.065 1.85 12.182 2.23 16.953 2.72 8.655.49 81.776 6.27 84.226 7.8l.14 1.76c-15.57 6.84-127.678-3.23-150.404-9.11l1.612-12.06c-7.14-1.1-11.523-.21-17.713-3.96-4.062-7.15-5.336-6.56-13.48-9.05-1.399 3.44-2.839 8.22-5.641 9.96-1.896-.23-3.702-.21-4.807-1.98-7.333-11.73-5.17-21.38 3.76-29.63"/><path fill="#162937" d="M881.172 1251.54c3.847.84 7.5 1.53 11.346 2.31l4.517.94c1.395.28 3.216.39 4.102 1.65.095 1.39-1.472 3.88-2.094 5.09-.524-.08-19.836-3.08-18.73-2.55-.532-1.91.446-5.49.859-7.44"/><path fill="#d08945" d="M759.058 1720c7.68 1.25 15.369 2.44 23.064 3.59a2628 2628 0 0 0 9.304 70.08c9.906 2.36 19.548 6.14 29.509 7.8-1.583 11.25-3.926 57.08-6.855 65.04l-1.717-.41c-19.847-14.29-35.837-28.09-47.467-50.14-3.553-6.74-9.522-20.19-7.253-27.49 1.552-.33 2.636-.53 4.229-.75l1.428-.19c2.577-5.06 1.179-19.24 1.065-25.73-.126-7.16 1.518-18.55-2.832-24.03-2.509-1.12-3.942-1.44-5.491-3.7-.571-4.1 1.73-9.88 3.016-14.07m360.762 93.6c8.48.3 16.96.46 25.44.49.23 28.81.69 57.62 1.39 86.43-4.83.78-9.79 1.85-14.65 2.36l-16.38 1.62c-7.17.78-18.01.87-25.31.95.39-8.09.65-15.54 1.73-23.57 7.26.2 12.61.69 19.79 1.3 2.94-23 4.36-46.67 7.99-69.58m-242.527-1.6c7.826.32 15.222.67 23.086.84.788 3.07 1.73 6.08 2.433 9.18l.905 3.99c.363 1.6.801 3.41 1.132 5l.865 4c.355 1.62.773 3.4 1.11 5l.967 4.51 1.965 8.99 1.497 6.98c1.632 7.56 3.124 14.45 4.323 22.09 8.411.29 13.733.27 22.089-.48 1.082 7.41 1.901 14.16 2.516 21.66-16.863-1.97-35.019-2.96-51.597-6.75l-1.888-.42c-3.655-27.8-5.024-57.1-9.403-84.59m271.737-482.31c2.59.16 5.78.72 7.72 2.53 2.04 1.89 22.35 116.82 22.13 124.21-.09 3.02-1.67 3.84-3.65 5.85-3.95-.95-4.03-.86-7.49-2.83-7.02-8.34-18.5-100.64-22.74-117.8-1.49-6.01-.1-7.93 4.03-11.96m95.12 266.33c3.32-.17 3.3-.18 6.55.52 2.89 3.01 18.8 97.05 18.65 105.85-1.93 3.78-1.28 2.59-5.24 5.22-3.37-.57-3.33-.64-6.44-2.13-4.25-4.67-17.78-92.19-19.12-103.97 1.53-3.58 1.77-2.84 5.6-5.49m-367.577-235.51c3.281 1.51 9.398 3.15 13.056 4.25-2.238 13.89-20.195 97.42-24.963 106.69-6.016 1.11-8.451 1.01-11.299-4.3.401-5.67 5.113-26.53 6.591-32.84 5.402-23.08 9.874-51.51 16.615-73.8m339.967-124.63c6.21.41 9.64 27-17.05 32l-4.5.86c-3.21.65-6 1.31-9.17 2.05 3.56-15.94-.29-11.82-17.85-10.21-2.6.36-13.94 1.45-16.36-.2-1.02-.7-1.14-8.13-.09-9.65 5-1.67 13.43-1.99 18.97-3.03 15.57-2.93 31.65-4.66 46.05-11.82"/><path fill="#0a0403" d="M1203.99 1249.16c.92-.02 17.07-.48 8.78 3.48-5.42 1.74-12.18 5.36-8.78-3.48"/><path fill="#d08945" d="M816.669 1607.56c4.255 1.45 8.514 2.52 12.834 3.76l-4.233 20.69c-1.331 6.3-2.796 12.72-4.061 19a759 759 0 0 0-3.157 15.99c-.259 1.52-.573 3.01-.886 4.51l-1.001 5.5c-.923 5.67-1.964 10.14-3.765 15.6-12.256.82-12.718-2.5-10.633-13.12 1.716-8.73 3.355-17.73 5.08-26.51l1.96-9.5.949-4.49c.339-1.62.751-3.41 1.069-5.01l.998-4.99 1.01-5c.962-4.87 2.008-9.68 3.318-14.47zm49.944-289.01c5.84 1.01 9.785 2 8.635 8.95-1.565 9.45-12.837 60.86-18.123 65.28-14.629-6.91-10.24-6.8-6.446-22.8l1.054-4.5 1.527-6.46 1.504-6.04c.152-.66.304-1.31.457-1.96l1.017-4 .439-1.6c2.34-8.87 3.937-20.09 9.936-26.87m317.757 13.31c6.13.35 6.21.1 7.5 7.15l1.93 10.51c1.17 6.4 3.43 9.46-1.91 12.48-7.3-1.15-8.98-.37-9.71-9.02-1.12-13.35-8.45-14.73 2.19-21.12m-94.88-77.28c1.31-.12 17.75-4.73 12.16 8.22-.59 1.38-20.49 1.57-25.4 1.9-1.39.05-9.41 1.1-10.04-1.18-3.46-12.42 11.46-7.28 23.28-8.94m95.65 136.41c12.98-.22 10.6-1.71 12.12 10.99.68 5.65 2.06 10.41 1.51 16.29-9.27 1.2-11.59 3.18-11.65-6.27-.04-6.81-1.26-14.19-1.98-21.01m-121.09 185.52c3.89.01 21.53-2.52 21.14 2.35-.4 5.02 1.31 6.4-3.94 6.23-3.29.18-20.06 1.49-20.58.31-1.84-4.19-4.15-8.91 3.38-8.89m-220.938-169.17c4.22 1.11 6.964 2.06 11.02 3.6-1.741 6.4-3.338 11.47-5.359 17.82-13.543 2.42-9.403-8.88-7.157-16.33zm-4.335 291.38c3.857.52 7.702 1.11 11.535 1.78-1.3 6.29-2.573 12.39-3.98 18.66l-.864-.24q-4.954-1.455-9.807-3.21l.296-1.38c.323-1.43.703-2.88.911-4.34.514-3.77 1.151-7.53 1.909-11.27"/><path fill="#0a0403" d="M1181.68 1175.48c-12.51-14.45-22.5-58.77-21.59-77.79.92-19.1 18.84-8.35 28.45-9.31 15.62-1.55 16.65 1.77 21.48 15.04 11.65-1.7 15.24-2.43 25.92 5.4 6.45 4.72 14.88 15.25 17.86 22.55-.48 6.31-3.6 15.6.85 19.95 5.37 5.25 4.2 18.55 4.02 25.71-3.95 24.58-41.87 6.24-55.86 3.44-7.66-1.54-12.15.34-19.06-1.91l.27-1.15c4.33.1 11.99.63 15.89-.02-.53-1.08-1.55-1.49-2.54-2.16.93-2.62 1.96-4.52 1.47-7.19-4.57-3.87-17.7-10.86-23.34-7.57 1.8 9.13 4.08 7.42 7.26 15.15z"/><path fill="#e9141d" d="M1212.35 1105.09c2.56-.17 10.32-.93 12.13.07 12.46 6.69 30.01 20.55 24.42 36.79-4.6 13.37-25.11 21.6-37.48 27.83-1.65.68-10.13 4.18-11.05 3.9-.07-.28-.05-.76.06-1.02 3.09-7.09-9.34-12.52-14.94-13.56l-6.86-1.28c1.34-25.99 6.64-43.22 33.72-52.73"/><path fill="#e9141d" d="M1172.51 1149.86c-5.2-12.76-12.35-42.13-8.95-57.26.36-1.59 5.28-4.54 6.92-4.6 3.38-.23 7.01 2.52 10.5 2.86 11.34 1.11 23.66-3.47 25.36 12.13.08.75-1.26 2.2-1.91 2.42-18.43 6.14-29.35 26.67-28.05 45.68-.02.54.14 5.5-.9 5.44-1.29-1.04-2.41-5.06-2.97-6.67m76.9 1.01c6.95 1.5 5.4 11.2 5.71 16.64.29 4.79 3.45 14.47-2.28 16.81-12.13 4.95-27.84 1.03-39.58-3.2-4.69-1.53-8.73-2.89-13.54-4.33 29.83-11.72 23.56-9.34 49.69-25.92"/><path fill="#162937" d="m1496.1 611.921 3.93-1.92c6.28 9.857 1.12 6.921-.27 17.988-.43 3.397-1.28 7.146-1.94 10.501l-1.02 5c-2.26 10.945-4.08 18.287-8.94 28.288.21-8.921 1.21-16.082 3.36-24.765 3.1-12.597 3.5-22.516 4.88-35.092M0 879.802l1.151 1.537c3.682 4.761 15.353 41.394 4.369 33.867-.866-.593-4.433-9.439-5.52-11.852zm2037.59-55.365c1.48-13.518 2.23-24.067 10.41-35.688v11.045c-4.07 9.04-5.35 15.504-10.41 24.643m-964.33-244.556c2.94.449 4.63.374 6.86 2.315 1.95 7.471-1.56 59.377-2.05 70.856-1.04 24.339 1.81 61.46-3.26 83.745-.8.709-.19.231-2.12.996-3.25-4.254-1.59-38.339-1.36-45.272.68-17.726.81-35.469.39-53.204-.36-14.312-3.33-46.589 1.54-59.436m723.81 136.35c3.59.673 3.71.769 6.86 2.159 4.08 7.561-29.02 99.302-31.29 115.65.88 1.67 1.15 2.113 2.37 3.382-1.87 5.685-7.11 15.202-10.03 20.893l-2.33 2.649-1.43-.544c-1.54-12.7 23.73-94.661 28.37-109.747 2.96-9.62 5.42-24.047 7.48-34.442M3.767 814.311l2.812.642c3.976 3.802 9.964 45.752 12.088 54.354 2.851 11.542 6.598 24.918 9.606 36.617 5.568 21.656 10.87 44.01 14.473 66.068l-1.927 3.312c-7.324-4.245-12.521-41.043-14.673-49.896-8.369-34.437-16.224-69.169-23.938-103.758-.64-2.865.24-4.909 1.56-7.339m713.543-221.742c3.123 7.443 2.847 17.702 2.815 25.788-.173 43.579 2.853 87.185 2.636 130.726-.022 4.41.102 7.532-3.172 10.608a365 365 0 0 1-.891-8.344c-4.72-49.718-3.88-101.732-5.236-151.736-.062-2.287 2.421-5.315 3.848-7.042M1955.5 758.239c3.52 1.147 2.24.158 4.45 2.496.77 9.347-11.5 39.854-15.01 50.396-1.44 4.321-5.31 11.988-5.58 16.34 2.85 1.249 2.11.524 4.05 2.621-2.41 7.285-15.31 31.075-19.54 38.93-1.94 3.566-4.09 5.642-6.81 8.664 6.78-27.019 11.51-47.42 22.64-73.153 5.78-13.356 10.43-31.816 15.8-46.294"/><path fill="url(#a)" d="M354.244 682.407c8.204 3.31 29.504 145.281 25.442 155.534a30 30 0 0 1-1.571-3.663c-2.207-6.357-4.129-17.854-5.209-24.847-6.207-40.198-11.573-80.237-20.019-120.07-.725-3.416-.102-3.907 1.357-6.954"/><path fill="#162937" d="m1450.79 622.25 3.13 1.297c.25.757-13.82 78.072-15.04 85.729-3.66 23.093-6.27 58.139-13.93 79.516l-.84.481-1.18-.626c-2.41-8.177 1.57-26.989 3.61-35.593 8.3-34.974 11.95-70.35 17.33-105.789 1.12-7.4 4.66-17.684 6.92-25.015M124.484 742.652c3.063.013 2.971-.006 5.898.886 6.701 11.518 11.721 33.406 16.095 46.682 6.323 19.188 19.33 42.713 18.206 62.723-7.128-2.058-15.64-38.474-18.703-46.387-8.106-20.939-14.912-42.448-21.496-63.904m204.977-58.299 4.525.724c1.485 2.409 3.009 12.342 3.769 15.552 2.966 12.531 18.76 84.459 13.498 91.708-6.263-11.953-8.695-45.662-12.631-60.683-3.552-13.556-8.648-27.174-11.692-40.746-.649-2.897 1.011-4.419 2.531-6.555m150.01-50.717c3.074.068 3.199-.176 5.88 1.165 3.872 6.861 6.173 42.867 8.181 53.161 2.526 12.946 8.625 38.257 7.163 50.288-8.05-5.753-19.981-91.171-21.224-104.614m210.961-37.951c2.843.357 2.836.175 5.231 1.646.814 4.548 2.306 38.08 2.269 43.621-.113 17.025 3.429 53.335 1.311 68.642l-2.099-1.735c-4.105-10.366-6.792-95.124-6.712-112.174m161.887-28.397c3.849.747 4.492.312 6.286 3.354.206 13.639 4.52 98.295 2.242 105.617l-1.253-1.337c-1.925-6.737-1.669-14.933-2.765-21.857-3.149-19.874-4.355-38.969-4.107-59.083.11-8.892-.998-17.575-.403-26.694m374.421 16.124c6.01 2.969 4.82 5.027 3.88 12.319-3.05 23.713-2.2 47.669-5.44 71.275a178 178 0 0 1-3.13 16.812c-5.48-.17-3.53-6.56-2.86-12.817 2.98-27.764 2.07-60.241 7.55-87.589m-400.144-23.657c4.616 1.247 5.418 1.202 6.338 6.229 2.57 14.559 6.184 28.815 7.966 43.524.921 7.609 4.154-.861 4.361 9.985.189 9.946 2.098 21.472.573 31.385l-.876-1.23c-3.292-4.53-19.485-83.648-18.362-89.893m777.614 82.623c5.08 3.205 2.62 9.015.64 14.5-9.05 25.063-8.92 65.988-21.76 88.31l-.26-.04-1.06-.153a.86.86 0 0 1-.63-.504c-1.22-2.853 6.53-33.07 7.64-38.505l1.05-5c3.53-17.449 8.45-42.058 14.38-58.608M247.187 683.177c7.501 1.422 7.501 8.327 9.51 15.841l.511 1.96 1.053 3.999c1.317 4.8 10.169 33.5 7.931 36.097-3.602 1.33-4.853-7.703-5.447-9.836-1.746-7.816-3.674-12.231-6.14-19.685-.914 5.349-1.501 10.749-2.286 16.122-2.004-5.853-3.611-11.677-5.078-17.689l-1.082-4.5c-2.291-9.351-4.218-14.51 1.028-22.309m1576.703 41.391c.1.017 6.02.504 5.64 1.902-7.48 28.028-16.08 56.909-26.17 84.204-.38.651-.84 1.687-1.71 1.747-4.22-3.317 18.82-73.679 21.17-83.431zm-296.02-112.87c1.27.174 3.35.12 4.17.949 1.22 4.536-5.2 36.777-5.69 43.925-.1 1.511-3.49 2.768-3.4-1.546.16-7.558.92-16.284 1.42-23.782.13-.552.44-1.308-.18-1.587-1.71.48-10.83 17.8-12.46 20.562 1.55-15.247-.13-31.861 16.14-38.521m-157.36-35.439c1.51.343 5.96 1.047 6.63 2.72 4.23 10.851-2.85 21.753-4.4 32.512-1.41 9.801-2.3 19.643-5.28 29.101-7.55 10.832-.79-35.879-.57-37.597zm392.09 192.495.93-3.128c.97-4.025 1.87-8.057 2.69-12.114l.94-4.499c.57-2.789 1.28-6.268 2.05-8.997 3.72-13.211 7.33-26.777 11.4-39.774.17-.564 2.31-.379 2.84.879 1.06 2.256.11 5.006-.25 7.393-.42 2.745-.82 6.302-1.49 8.986-4.75 18.945-9.42 41.424-17.13 59.248-.56 1.073-.64 1.684-1.69 2.054-2.41-.541-.54-8.532-.29-10.048"/><path fill="#162937" d="M1762.6 768.754c.64 3.384.49 4.967 1.98 7.994-.56 1.073-.64 1.684-1.69 2.054-2.41-.541-.54-8.532-.29-10.048m-289.33-147.206c3.7 3.214 2.5 5.706 1.78 10.448-2.75 18.149-8.73 36.018-13.68 53.607l-1.12 3.948c-.88 3.179-1.19 3.904-2.52 6.948-3.91-2.48-2.74-3.072-1.98-7.998 1.26-8.209 3.16-16.418 5.01-24.518l1.06-4.502c2.75-12.389 6.19-26.505 11.45-37.933m-863.241-47.367c1.538.463 4.34.647 4.563 3.381.954 11.706-.264 25.212 1.584 36.517 1.849 11.31 6.229 34.78 3.71 44.518-3.505-1.377-4.769-3.079-4.813-7.083-.209-19.147-8.856-60.598-5.044-77.333m667.691 13.939c6.43-1.178 7.18 4.956 6.7 9.878a159 159 0 0 1-2.24 15.523c-3.3 16.97-7.65-8.035-6.76-6.852-.21-.095-.08-.08-.4.013-.56.622-.86 1.492-1.06 2.302l-1.5 5.781c-2.01 5.198-4.11 13.65-6.14 19.616.1-10.891 1.58-20.627 2.65-31.383 1.29-12.901-2.99-12.395 8.75-14.878m137.95 105.967c.5-8.886 1.3-17.753 2.4-26.584 1.32-11.185 5.9-23.723 6.64-35.508.32-5.036 1.62-16.684 4.65-20.522 4.44-1.27 2.04 6.756 1.97 7.518-1.76 20.261-5.69 39.6-9.54 59.504-.9 4.661-1.52 10.556-2.29 15.481-1.28.026-2.55.063-3.83.111m-368.16-121.802c.11.047 4.98 1.953 5.02 2.759 1.16 19.168-1.74 39.452-.79 58.902.42 8.66.47 14.198-1.34 22.496-6.27-1.947-3.17-74.478-2.89-84.157m-386.979 21.149c.856.325 4.914 1.52 5.264 2.709.763 2.584.458 7.134.33 9.854-.763 16.037 1.394 32.146 1.65 48.023.012.734-2.645 2.356-2.804-1.535-.184-4.506-.942-9.707-1.323-14.33-.56-3.638-.86-7.005-1.513-10.661a317 317 0 0 0-3.416-16.116c-1.354 5.214-2.397 10.379-3.674 15.611-.955-6.085-2.029-12.377-2.268-18.49.024-.346-1.075-7.546.184-7.587 7.18-.235 3.606.79 7.57-7.478m293.258-43.683c4.366 3.425 4.342 40.357 2.883 42.01-1.211.384-1.704-1.888-1.814-2.749-.808-6.332-1.277-13.198-2.984-19.354-4.031 3.542-4.343 15.194-5.126 20.6-2.641-12.171-4.665-19.563-4.79-32.161 5.166-4.673 5.419-5.075 11.831-8.346m144.911 30.454c1.69.616 3.44 1.127 4.52 2.695 2.7 3.925-2.69 63.838-4.03 72.873-.21.844-.17 1.806-1.13 2.07-.3-.122-.53-.163-.55-.397-1.55-17-1.08-62.956 1.19-77.241m644.01 71.371c5.68 5.102-3.54 28.14-5.4 35.003l-.5 1.899-.44 1.594-.51 1.913c-2.23 8.199-6.65 22.711-10.65 30.012 0 0-2.91-1.88-2.84-2.358 2.45-17.565 10.29-34.419 15.04-51.553 1.46-5.288 3.46-11.3 5.3-16.51m243.3 120.003c1.59.66 7.32 2.417 7.2 3.451-1.39 11.7-14.02 36.303-17.26 46.763-9.87 7.089 4.11-24.793 3.42-28.257-1.11-5.563 4.39-16.206 6.64-21.957M403.825 644.337c3.53 2.31 4.733 4.776 4.857 9.147.223 7.816 4.417 41.248.82 46.488l-.737 1.144c-6.188-7.354-9.185-47.986-4.94-56.779m843.855-54.092c6.57 2.666 2.84 13.681 2.02 20.747-1.56 13.581-4.85 34.244-9.12 46.711-.69.583-.67.93-1.44.752-2.95-5.23 6.14-58.956 8.54-68.21m-870.361 70.202c5.789 3.576 5.411 33.645 6.482 41.552.862 6.37 5.886 18.077.444 20.74a87 87 0 0 1-2.039-7.247c-1.498-7.046-3.544-13.965-5.041-21.01l-.953-4.501c-.93-4.468-1.904-9.444-2.34-13.984l-.228-2.007c-.833-7.662-.844-8.079 3.675-13.543m1526.511 52.244c5.63 3.624-6.44 20.467-7.66 28.209-1 6.27-9.13 27.482-13.9 30.696.16-12.096 7.3-24.28 10.09-36.003.2-.828.78-2.753 1.01-3.657.8-3.112-1.81-3.603-2.09-6.257 2.16-4.272 5.31-8.67 9.4-11.132zm-554.38-145.974c13.96.058 7.46 4.441 6.69 16.794-.54 8.619-3.8 18.009-6.12 26.31-9.04 15.533-.74-41.533-.57-43.104m-368.723-30.419c1.207.392 2.909.712 3.817 1.716.147.163-1.655 67.192-2.378 73.57-7.186.231-1.253-40.448-3.368-47.348-1.124-3.669.103-23.126 1.414-26.53zM447.745 635.02c6.747 1.358 7.282 1.858 9.274 9.472 3.496 13.363 8.674 35.07 7.697 48.497-5.46-.952-5.888-9.38-6.687-14.491-2.398-15.353-5.393-28.765-10.284-43.478m952.525-40.882c.62.133 4.98.741 5.06 1.638 1.07 12.33-3.36 28.449-6.09 40.244l-.43 1.965c-1.27 5.557-1.87 10.165-2.69 15.778-.51 2.029-2 2.716-2.21 1.292-2.14-14.941 5.02-46.825 6.36-60.917M102.427 740.482c2.23.38 4.408.137 5.204 2.667 2.945 9.37 17.939 50.374 15.269 57.608l-.672-.66c-1.015-.977-1.721-1.801-2.343-3.096-1.996-4.164-18.779-53.25-18.243-54.622.051-.129.11-.254.163-.382zm167.986-64.006c8.038 1.471 6.671 7.418 8.428 16.036l.958 4.504 2.013 9.5c2.535 12.111 6.563 28.046 7.919 40.044-3.374-2.139-3.181-3.246-3.977-7.545-3.136-16.943-15.517-46.346-15.341-62.539m1350.737-24.702c8.36 3.001 5.94 3.264 4.05 12.29-.9 4.266-2.32 8.672-3.44 12.915l-1.03 3.997c-2.04 7.629-4.45 17.468-7.67 24.472-5.45 5.398.52-17.64.85-18.665 3.26-9.874 2.78-26.406 7.24-35.009M1005.06 549.17c.31.119 3.46 1.153 3.46 1.681-.07 15.923 1.2 40.528-1.09 55.936-.53-.238-3.1-1.152-3.18-1.837-1.15-10.159-3.29-46.922.16-54.304zm187.07 7.081c3.3 1.475 3.54 1.579 3.06 5.606-1.92 16.26-1.72 38.667-5.97 54.091-4.4-7.898-2.18-53.139 2.91-59.697m-453.582 30.544c2.963 2.942.606 38.54.98 45.204.035.626-2.196 1.111-2.687 1.19l-1.544.267c-2.004-8.665-3.046-32.074-3.22-41.898-.03-1.69 4.906-3.979 6.471-4.763m469.712-10.342c9.09 4.588 2.52 48.278-.01 57.646-.2.117-2.85 1.701-2.88.462-.5-18.437 1.65-39.645 2.89-58.108m-576.535.922c2.002 1.096 3.194 1.204 3.379 3.578 1.268 16.273 3.687 32.738 3.949 49.028.02 1.197-1.601 2.209-2.401 2.871-2.672-6.563-9.551-50.128-6.069-54.11zM304.182 686.242c4.271 1.705 3.598 4.469 4.599 9.266l.974 4.508c1.892 8.404 10.778 41.515 8.538 47.391-6.091-13.517-8.989-29.404-13.416-43.604-1.166-3.741-4.152-11.921-2.023-15.354z"/><path fill="url(#b)" d="M764.309 570.255c.488.214 3.202 1.311 3.173 1.908-.589 11.909-.11 38.076-1.851 48.148-9.126-5.426-2.975-22.029-4.565-32.314-1.15-7.444-1.225-12.043 3.243-17.742"/><path fill="#162937" d="M1761.66 669.197c9.67 6.957-3.12 33.416-4.39 43.342-.33 2.537-2.45 12.689-3.33 15.208l-3.96-2.837c5.01-17.972 7.44-37.648 11.68-55.713m-202.54-60.618c6.6 6.052-8.1 49.728-11.89 57.492l-.27-.333c-4.7-5.714 3.85-25.151 5.77-33.273l.97-4.018c1.64-6.87 2.96-13.211 5.42-19.868M800.133 551.39c5.897.693 5.408.062 6.776 6.104 3.836 16.953 4.113 28.988 3.75 46.266-5.339-2.161-3.978-3.571-3.631-10.263.677-13.034-7.156-29.75-6.895-42.107M76.597 741.442c5.285.556 5.524-.015 6.707 5.526 2.767 12.954 9.317 27.553 10.881 40.518-7.593-3.341-17.189-37.068-17.588-46.044M1580.51 629.401c10.73 5.377-.67 21.498-3.17 28.732-1.8 5.173-3.57 10.388-5.24 15.606-6.47 7.394.72-16.232.78-16.752 1.1-9.863 4.27-18.342 7.63-27.586m-655.673-67.16c8.587 4 1.385 33.173 5.068 42.269.858 2.119.1 4.903-1.537 6.73-6.102-10.931-4.14-31.239-6.499-43.758-.372-1.972.64-3.066 1.964-4.281zM1925.36 723.145c.31.083 3.57.775 3.43 1.505-3.06 15.462-11.61 37.806-17.08 51.88-.12.007-2.18.277-2.04-.474 3-16.587 9.76-37.303 15.69-52.911M591.588 584.641c4.198 3.397 6.933 41.585 3.939 44.482l-.911.908c-2.58-5.041-3.863-15.888-4.543-22.039-1.129-10.222-5.555-16.145 1.515-23.351M150.365 747.514c5.754.996 8.106 3.333 8.556 9.484.547 7.485 9.925 27.089 7.531 33.004l-.581 1.512c-4.149-7.371-6.89-16.894-10.137-24.924-1.952-4.825-8.163-13.678-6.076-17.664zm971.775-167.269c5.14 1.985 4.14 3.368 2.99 9.253-2.17 11.148-2.38 26.085-5.08 36.685-6.06.509-2.04-39.567 2.09-45.938M202.785 719.312c1.331.463 3.42.793 3.764 2.323 2.089 9.305 14.416 30.733 11.268 39.243-7.406-6.115-11.588-27.189-16.597-35.901-1.085-1.886.643-4.14 1.565-5.665m820.075-158.931c4.56 3.562 5.74 57.265 2.66 63.804-.2-.236-.41-.475-.61-.709-4.44-5.015.47-37.951-2.56-48.065-1.75-5.864-1.66-9.307.51-15.03m-238.496.037c4.503 2.399 3.89 11.089 3.52 15.331-.58 6.671 1.741 26.782-2.933 30.739-4.148-13.677-1.801-24.781-2.969-38.493-.43-5.041-1.277-3.384 2.382-7.577m899.586 98.287c1.02.142 6.12.421 5.91 1.964-1.15 8.38-9.43 28.317-12.89 35.555-8.7 11.734 6.37-35.848 6.29-35.642zm-380.99-80.276c3.33 1.799 4.66 2.074 3.77 6.051-2.68 12.007-2.75 24.242-5.52 36.233-8.06-.228-1.76-16.912-2.34-23.219-.32-3.483 1.92-14.424 3.48-17.72zm542.26 152.055c.71.427 3.6 1.921 3.54 2.585-1.12 11.497-7.56 22.866-10.57 33.958-1.54 5.694-2.08 8.02-4.73 13.389-4.12.664-.45-9.785.31-12.43 3.55-12.47 7.6-25.044 11.45-37.502M45.474 782.413c5.853 4.422 13.32 33.463 11.244 41.605-3.995-2.899-3.773-3.649-5.377-9.032l-.57-1.96c-2.14-7.228-7.75-23.927-5.297-30.613m179.776-84.149c.815.124 3.903.441 4.229.944 3.835 5.917 7.913 30.509 6.77 36.18-6.698-4.96-11.372-28.844-10.999-37.124m205.041-33.467a79 79 0 0 1-3.055-9.331l-1.023-3.986c-.653-2.554-4.852-17.178-3.703-18.487 8.922-10.162 9.275 19.328 9.772 23.78.269 1.626 1.865 11.998.256 12.552-1.317-.531-1.899-3.353-2.247-4.528"/><path fill="#373a42" d="M432.282 656.773c.269 1.626 1.865 11.998.256 12.552-1.317-.531-1.899-3.353-2.247-4.528 1.626-3.02 1.43-4.622 1.991-8.024"/><path fill="#162937" d="M2025.8 790.31c7.71 4.914.97 10.714-.71 19.428-1.21 6.304-5.54 15.285-9.07 20.71-5.18-1.999 7.42-30.77 8.87-36.448zM60.27 766.388c3.942 3.242 4.559 10.145 5.605 15.127q1.125 5.473 1.963 10.997c.593 4.534 2.242 7.249-.947 10.315-2.069-3.703-4.828-10.716-5.535-14.904-1.237-7.334-6.868-13.745-2.232-19.928zm1810.59-39.881c.11.052 2.11.835 1.99 1.505-2.14 11.72-6.53 26.794-11.06 37.801-.65-.31-3.05-1.203-2.84-2.358 2.01-11.058 5.58-27.682 11.91-36.948m-725.73-160.728c.57.263 3.27 1.364 3.22 1.694-1.25 8.412-4.16 27.73-6.76 34.826-5.47 1.138-1.48-31.247 3.54-36.52m184.16 6.353c.12.039 3.31.966 3.35 1.338.82 8.455-2.61 19.461-3.53 28.045-.4 3.704-1.14 5.921-1.76 8.789-7.02 2.212.88-34.598 1.94-38.172M27.07 797.681c1.8 1.787 3.146 5.431 3.243 7.744.278 6.686 10.825 26.378 6.89 30.967-5.383-8.053-10.81-25.141-13.229-34.879-.286-1.151 2.472-3.266 3.095-3.832m152.541-71.256c2.873 1.28 3.669 1.543 4.227 5.056 1.186 7.469 6.04 25.436 4.023 32.172-4.389-6.992-11.818-29.769-8.25-37.228m1822.69 55.941c.48.117 5.42 1.042 5.14 2.252-2.24 9.645-8.04 23.042-12.54 31.64-.06.047-.95 1.041-1.31 1.016-1.41-.098-.62-2.625-.6-2.712 2.68-10.876 5.89-21.529 9.31-32.196M553.649 614.349c7.574 3.975 3.962 19.357 5.794 27.146.763 3.249.51 6.371-.693 9.498-3.487-6.592-9.018-30.339-5.101-36.644m612.531-50.867c.59.348 2.66 1.37 2.64 2.126-.21 8.481 2.08 30.47-1.23 37.027-3.27-4.687-4.4-33.592-2.11-37.806zm-293.398 16.863c3.618.157 5.771-.181 6.293 4.095.999 8.199 1.469 16.532.553 24.757-5.686-3.708-6.959-22.314-6.846-28.852m833.748 79.114c4.94 2.615 1.56 7.251.7 12.56-1.32 8.088-2.92 16.589-4.92 24.536-6.16-2.787 2.08-31.824 4.22-37.096M535.434 625.506c4.913 3.823 2.986 17.805 4.083 23.918.217 1.207-2.029 2.65-2.785 3.166-.968-2.243-2.435-6.253-2.597-8.606-.814-11.807-7.363-11.231 1.299-18.478m361.136-55.157c5.636 2.168 4.18 3.555 4.995 9.794.679 5.197 1.815 11.921.099 16.852-5.404-3.695-8.361-21.181-5.094-26.646m753.19 89.86c.49.113 4.35.774 4.3 1.875-.36 8.112-4.48 19.813-8.01 27.163-5.24 1.058.11-11.445.81-15.269l.95-4.999c.61-3.185 1.21-5.599 1.95-8.77M506.087 630.332c6.933 2.334 8.54 22.384 8.758 28.822-4.921-5.243-10.727-21.377-8.758-28.822"/><path fill="#373a42" d="M1415.67 694.087c1.28-.048 2.55-.085 3.83-.111-2.33 4.535-3.12 7.186-3.83.111"/><metadata><recraft-signature>{&quot;signed_by&quot;: &quot;recraft&quot;, &quot;signature_b64&quot;: &quot;403Zok82s+IKRqN9CfdouM9Odcobtm5aGBAvr7F7t7IppP7Q/0Q6SKBC24oRQqzIp4lIQcsSKmhm1o13tPpiAw==&quot;, &quot;signing_algo&quot;: &quot;Ed25519&quot;, &quot;generation_timestamp&quot;: 1777253326, &quot;identifier&quot;: &quot;251d4082-ecda-4093-8e48-8aa51326752d&quot;}</recraft-signature></metadata></svg>