<svg xmlns="http://www.w3.org/2000/svg" width="1024" height="1024" preserveAspectRatio="none" style="display:block" viewBox="0 0 2048 2048"><defs><linearGradient id="a" x1="1173.85" x2="1210.32" y1="564.938" y2="489.632" gradientUnits="userSpaceOnUse"><stop class="stop0" offset="0" stop-color="#63727d"/><stop class="stop1" offset="1" stop-color="#787882"/></linearGradient></defs><path fill="#080808" d="m493.166 298.095 1058.864-.325.08 396.868c.03 67.619-1.55 143.674.61 210.533-28.63-.087-60.47-.733-88.94.153.79 6.579 1.49 13.17 2.09 19.77l-270.45.247c-46.4.008-98.57-1.117-144.65.204-.55 5.581-1.81 25.96-2.66 29.748 17.72-1.307 49.71-.251 68.73-.248l139.12.026 232.98.063c45.02-.162 90.05-.041 135.07.363l-.05 58.243-42.44.1c-1.07 39.42-25.84 68.21-65.26 73.59l-.11 90.25-33.16.16-.09 89.73-32.71.09c-2.19 176.21-.15 356.42.01 532.9 48.85 10.59 97.62 30.7 122.3 77.88 6.07 12.12 9.32 28.7 3.73 41.57-16.6 38.25-66.9 35.88-82.16-2.51-5.2 11.18-11.73 19.64-23.11 25.19a45.55 45.55 0 0 1-34.25 2.14c-13.9-4.79-21.96-14.62-27.99-27.37-16.14 40.2-64.68 39.49-84.67 1.3-5.18 10.71-11.1 18.5-22.15 23.94a46.92 46.92 0 0 1-36.24 1.84c-13.81-5.06-20.89-14.12-26.81-26.81-4.53 9.61-8.94 16.58-18.34 22.49a45.43 45.43 0 0 1-35.31 5.35c-15.56-4.17-23.42-13.87-30.93-26.91-5.22 10.69-11.06 18.18-22.01 23.66a45.9 45.9 0 0 1-35.99 2.23c-13.49-4.88-21.44-14.26-27.41-26.77-17.2 40.35-64.58 38.7-85.109.44-5.222 10.64-10.617 18.34-21.641 24.02-11 5.6-23.813 6.47-35.465 2.39-13.676-4.84-20.987-13.77-27.07-26.19-5.511 10.14-9.165 16.61-19.994 22.82a45.8 45.8 0 0 1-35.826 4.22c-14.872-4.55-22.539-13.68-29.349-26.72-5.382 9.69-9.745 16.62-19.862 22.5a45.7 45.7 0 0 1-35.806 4.12c-15.146-4.7-22.709-14.37-29.561-27.61-4.085 10.22-10.931 18.53-20.713 23.78a45.73 45.73 0 0 1-36.123 2.94c-14.141-4.85-21.308-13.66-27.697-26.35-5.368 11.13-12.481 19.91-24.072 25.06a46.64 46.64 0 0 1-36.663.4c-11.485-4.86-19.329-13.8-23.736-25.3-1.079 2.65-2.307 5.47-3.651 7.99a44.1 44.1 0 0 1-26.225 21.3 49.24 49.24 0 0 1-38.892-4.74c-13.194-7.92-23.506-25.59-21.746-40.87 7.217-62.63 76.732-90.81 129.004-101.49l-.459-532.84-33.238.13-.282-90.02q-16.173.03-32.344-.21l-.203-89.81a74.36 74.36 0 0 1-39.047-16.94c-18.167-15.41-24.626-34.19-26.504-57.19-14.487.09-28.975.03-43.462-.17l-.02-58.251 562.939-.162.19-16.418-.252-13.062c-14.942-.935-34.327-.42-49.569-.388l-86.09.164-268.579-.032c.965-6.588 1.746-13.445 2.591-20.071-29.337-.092-61.848-.792-90.907.148l.218-312.068c.032-97.742 1.062-197.618-.479-295.205"/><path fill="#fff" d="m493.166 298.095 1058.864-.325.08 396.868c.03 67.619-1.55 143.674.61 210.533-28.63-.087-60.47-.733-88.94.153l-1.05-9.34c-18.59-123.127-30.1-248.975-48.12-372.34-2.93-20.118-5.58-40.878-7.94-61.076-5.17.086-10.47-.09-15.66-.192l-3.5-11.636c-1.79-.031-7.04.414-7.62-.82-4.04-8.517.45-10.597-11.49-10.869-3.02-2.877-2.02-6.033-3.45-10.177-1.06-3.062-8.77-1.516-9.35-2.466-4.42-7.265 2.09-13.1-10.17-10.366-4.44-2.634-.62-6.245-5.44-10.057-6.86-.932-6.71.267-8.75-6.555-2.62-1.554-40.06-1.004-46.48-1.203-36.79-1.141-68.79-17.844-100.38-35.612-47.51-26.716-127.47-33.063-159.59 21.224-41.021-60.963-123.064-45.213-176.594-12.641-27.014 16.437-57.944 27.528-89.7 27.442-6.038.1-36.293-.542-39.009.421-1.377 2.637-1.729 3.53-2.718 6.347-2.397 1.144-4.13.588-6.81.241-3.778 2.599-2.622 8.543-3.681 9.019-7.411 3.331-10.317-4.731-11.472 10.462l-1.279 1.531c-3.893-.384-5.443-1.242-8.391.197-1.874 4.253-.846 8.209-3.047 11.211-5.362.468-6.78-.727-9.712 2.091-1.953 8.072-.973 9.699-9.449 11.804-2.179 2.777-2.099 5.561-2.579 9.149-3.394 2.961-13.849 2.015-18.861 1.923-3.414 19.509-5.614 40.603-8.145 60.346l-11.433 87.477-36.947 285.309c-.183 2.817-.32 6.309-.629 9.052-29.337-.092-61.848-.792-90.907.148l.218-312.068c.032-97.742 1.062-197.618-.479-295.205"/><path fill="#5d6b79" d="m493.166 298.095 1058.864-.325.08 396.868c.03 67.619-1.55 143.674.61 210.533-28.63-.087-60.47-.733-88.94.153l-1.05-9.34 79.83.178c1.65-70.26 0-146.709-.09-217.409l-.12-371.503c-44.39-1.069-92.81-.006-137.59-.006l-283.43.055-424.446.015c-64.309.053-129.487-.678-193.711.085-1.668 72.492-.082 152.401-.029 225.582l.081 362.366c26.932.642 54.733.558 81.738.821-.183 2.817-.32 6.309-.629 9.052-29.337-.092-61.848-.792-90.907.148l.218-312.068c.032-97.742 1.062-197.618-.479-295.205"/><path fill="#fff" d="M1025.05 392.501c10.86-25.335 28.64-35.966 54.08-43.062 64.92-18.102 112.78 27.434 169.64 46.611 22.81 7.693 54.92 5.979 79.81 5.772 6.26 26.979 9.95 77.03 14.03 106.285l33.65 251.406c4.52 33.108 8.56 70.838 14.24 103.367-29.71-.499-98.06 1.717-123.44-3.645-62.31-13.163-109.92-61.239-182.19-42.644-25.75 6.627-44.34 19.885-58.09 42.855l-.06-283.12c.01-15.726 1.55-132.485-.66-136.266l-1.88.157c-1.97 3.691-1.13 123.219-1.13 135.783l.18 286.081c-14.41-27.562-35.939-40.027-65.63-46.715-65.874-14.837-114.586 30.569-173.628 43.341-32.902 7.117-90.155 4.12-125.442 3.552 6.821-43.11 11.701-86.179 17.502-129.401l28.522-207.222a3873 3873 0 0 0 9.561-72.475c1.698-13.907 4.074-38.687 7.594-51.486 18.732.211 48.69 1.531 66.277-2.48 57.26-13.06 79.926-46.538 141.818-52.797 37.586-4.515 78.536 10.251 95.246 46.103"/><path fill="#5d6b79" d="M919.662 773.426c19.817-1.957 45.512 4.657 60.478 18.147 2.989 2.694 3.939 3.266 4.24 7.503-1.753 2.556-.577 1.695-3.792 2.451-14.618-15.203-30.909-18.998-51.126-20.537-38.404-2.923-68.057 14.582-102.434 28.291a323 323 0 0 1-47.291 15.017c-13.133 2.943-72.099 10.325-82.026 5.787-1.832-2.939-1.429-1.342-.933-5.022 1.522-1.001 36.747-1.976 42.13-2.004 67.024-.35 115.432-45.162 180.754-49.633m203.528-.021c53.11-.905 86.1 28.649 139.64 41.741a326.3 326.3 0 0 0 62.34 8.665c9.67.401 18.95-.541 28.49.775 2.09 2.56 1.26 1.114 1.53 5.034-5.32 4.572-63.43-1.194-72.99-2.675-24.14-4.1-46.55-12.053-69.07-21.089-29.05-11.655-52.75-25.966-85.1-25.344-15.19.292-22.34 1.005-36.77 6.368-10.61 3.943-16.76 13.931-21.71 13.944-3.19-2.906-2.68-1.302-3.08-4.571.56-.919.99-1.737 1.83-2.461 17.84-15.474 32.95-19.014 54.89-20.387m-219.649-50.003c15.332-2.107 75.824 2.477 75.111 24.43l-1.597.732c-5.652-1.057-10.949-6.852-16.447-9.415-57.39-26.747-114.969 8.85-167.448 24.354a282 282 0 0 1-37.81 9.118c-7.563 1.265-41.969 6.554-47.568 2.541-.816-3.276-.848-1.605.75-5.127 3.881-.945 23.212-1.686 28.945-2.204 14.27-1.29 27.139-3.647 41.057-7.217 48.174-12.353 73.344-32.76 125.007-37.212m218.439-.007c57.21-6.367 101.75 25.125 155.06 38.326a258.4 258.4 0 0 0 37.33 6.149c8.76.731 19.57.974 27.98 2.624l.9 2.731c-3.21 8.057-50.4-1.261-59.47-3.102-40.17-8.177-65.62-23.115-103.78-34.271-24.87-7.27-64.16-8.949-88.28 2.241-4.12 1.915-10.73 7.719-15.93 10.741-3.69-2.334-3.85-3-2.65-6.735 10.93-11.488 33.35-17.245 48.84-18.704m-218.178-48.961c13.651-.308 64.295 5.364 69.701 18.497-1.032 3.004-1.194 2.37-4.131 4.752-17.206-10.412-23.601-12.216-43.567-14.914-49.29-6.662-89.012 15.07-134.071 29.615-21.047 5.803-49.304 11.889-71.939 11.373-2.458-.056-2.735-1.301-3.59-2.785l.761-2.526c3.972-1.177 19.078-2.455 24.058-3.035a251 251 0 0 0 33.428-5.933c49.834-12.197 75.261-32.474 129.35-35.044m223.838-.047c46.61-6.917 105.32 25.138 150.97 35.924 9.4 2.245 18.92 3.902 28.52 4.962 7.03.718 19.39.89 25.37 2.831l.69 1.867c-.56 3.116.2 1.902-2.3 3.787-9.71 1.925-46.41-4.998-57.63-7.409-33.63-7.886-66.71-25.33-101.31-32.019-25.23-4.879-52.29-4.727-76.78 4.961-1.51.595-11.7 7.572-13.57 8.829-3.56-2.114-2.31-.711-4.16-4.101l.65-2.168c9.74-10.498 35.61-16.067 49.55-17.464m-1.75-44c61.91-7.685 124 37.176 186.09 39.197 4.57.149 10.89-1.034 14.53 1.589 1.37 3.244 1.29 1.675.68 4.821-8.51 3.657-42.61-2.81-53.4-4.9-58.67-13.665-116.52-50.507-178-26.589-4.84 1.879-9.39 6.525-14.26 7.36-2.82-2.777-2.06-1.176-2.69-4.789 5.12-9.792 36.5-15.548 47.05-16.689m-227.056-43.984c17.495-1.894 39.324.639 55.651 7.589 6.035 2.569 14.145 4.585 17.679 10.345-.339 3.433.337 2.014-2.024 4.438-4.641-.907-8.566-4.236-12.902-6.207-49.617-22.555-103.386.251-150.121 16.656-9.574 2.978-76.11 20.974-80.008 9.339l1.689-2.445c2.516-1.032 16.199-1.603 20.62-1.81 20.999-.986 45.568-7.449 64.905-14.818 26.984-10.284 56.835-20.311 84.511-23.087m232.486.013c58.78-3.788 107.33 32.949 164.61 37.609 4.34.353 22.8.916 24.81 2.651.31 3.26.76 3.425-.48 6.123-16.78 1.082-44.66-4.348-60.93-8.535-24.1-5.769-44.19-15.284-67.72-22.704-28.69-9.046-61.68-12.267-90.78-2.906-4.55 1.464-15.6 7.544-20.25 10.029-2.91-2.573-2.75-3.366-1.86-6.595 9.57-10.334 38.88-14.853 52.6-15.672m-232.2 43.995c20.906-1.325 58.64 1.881 74.035 17.833-.828 2.708-.482 1.535-3.307 3.871-2.535-.224-5.889-2.051-8.2-3.306-51.636-28.027-108.892-1.972-160.407 15.574-10.902 3.496-73.921 18.857-78.92 9.214l1.152-3.032c4.03-2.054 19.088-1.528 24.525-1.985 53.143-4.468 97.833-33.921 151.122-38.169m229.89-87.017c4.86-.553 11.63-.412 16.52-.165 43.21 2.08 82.17 22.786 124.01 31.083 14.22 2.819 28.79 2.803 43.13 4.453.81.903 1.63 1.805 2.44 2.708l-.6 2.166c-9.37 5.346-49.26-2.704-60.51-5.638-47.3-12.541-94.49-36.47-143.98-23.929-6.07 1.537-13.68 3.654-19.4 6.287-3.87 1.781-7.08 4.849-11.27 6.057l-1.63-2.908c2-12.68 40.29-19.033 51.29-20.114m-226.876.01c14.306-1.289 65.936 4.035 70.321 19.277-1.02 1.501-1.693 3.27-3.311 2.417-4.438-2.341-10.941-5.198-15.415-6.958a116.6 116.6 0 0 0-32.47-7.399c-36.849-3.175-75.882 12.569-111.033 23.377-15.69 4.232-61.736 14.935-75.155 9.464l-.753-1.836c3.14-4.484 9.391-4.083 14.741-4.181 53.986-.988 99.739-29.6 153.075-34.161m-1.151-40.99a148.6 148.6 0 0 1 24.584.036c12.063 1.093 38.456 5.808 46.303 15.278.711 3.406.939 1.772-1.132 4.992-3.879-.485-4.925-2.026-8.559-3.653-49.803-22.292-97.346-4.382-144.108 10.83-14.82 4.344-58.857 14.84-73.902 10.647-.609-3.054-.501-1.816.554-5.12 2.972-1.916 34.959-3.089 44.029-5.146 40.749-9.244 69.367-24.471 112.231-27.864"/><path fill="url(#a)" d="M1122.05 502.379c53.93-5.567 90.66 18.215 141.21 28.326 11.95 2.39 29.39 2.65 41.87 3.701 1.65.139 1.99 1.815 2.71 3.447l-.94 1.654c-9.7 4.461-44.23-1.608-54.66-3.877-51.42-12.031-109.01-43.61-162.83-17.975-3.53 1.684-5.34 4.208-9.52 5.446l-2.75-1.93c-2.36-10.533 36.89-17.904 44.91-18.792"/><path fill="#5d6b79" d="M1133.06 458.433c3.62-.039 7.25.032 10.88.212 45.72 2.605 79.5 24.776 123.22 33.464 9.85 1.958 24.94 2.439 35.26 3.528.63.706 1.27 1.413 1.9 2.12l-.12 2.109c-7.77 7.136-50.41-3.795-60.98-6.686-45.61-14.629-84-34.669-133.03-25.176-8.93 1.728-25.92 13.346-32.96 9.099l-.29-1.791c7.69-10.544 43.51-16.212 56.12-16.879m-235.962.932c26.201-3.018 55.431 1.671 77.552 16.703l-1.234 2.698c-10.529-.885-23.913-7.858-35.25-10.198-41.189-8.502-74.712 4.136-112.411 17.985-16.667 5.945-61.602 19.383-77.436 15.055-2.179-2.352-1.396-.916-1.318-5.028 2.356-2.023 31.744-3.408 39.185-5.139 40.171-9.343 69.092-26.842 110.912-32.076"/><path fill="#b96f2d" d="M910.595 385.689c7.78-1.3 21.909.129 22.624 10.271 1.222 17.351-10.385 17.513-23.253 15.769.888 8.52-.802 11.869 1.627 20.46l-.493 2.12c-4.043-.267-7.969-.263-12.053-.519l1.769-1.81c3.261-6.297 1.328-33.22 1.64-41.758.033-.899-2.027-1.941-2.682-2.259l-1.296-.656-.376-.229-.534-.518c1.024-1.124 9.278-.557 10.766-.513z"/><path fill="#b96f2d" d="m908.334 386.047 2.261-.358-.238 3.079c-.289 4.811-.412 15.757.213 20.39l-.604 2.571c.888 8.52-.802 11.869 1.627 20.46l-.493 2.12c-4.043-.267-7.969-.263-12.053-.519l1.769-1.81c3.261-6.297 1.328-33.22 1.64-41.758.033-.899-2.027-1.941-2.682-2.259l-1.296-.656-.376-.229-.534-.518c1.024-1.124 9.278-.557 10.766-.513"/><path fill="#fff" d="M910.357 388.768c9.652.328 15.872.234 14.82 12.244-.791 9.033-7.803 7.88-14.607 8.146-.625-4.633-.502-15.579-.213-20.39m165.933 44.315c.86 4.573.7 8.024 1.11 12.56.09 1.054 3.4 1.394 4.18 2.235.78.842.32 1.968-.61 2.048-2 .173-13.83 1.133-14.15-.957.74-1.639 3.64-1.97 3.73-3.142.98-12.1.29-25.049.31-37.295-.68-1.767-3.13-1.016-3.74-2.505-.56-1.377 10.81-4.477 9.78-1.081-.05.161.15 1.776.18 2.115l1.5-.482c1.21-.403 2.26-1.444 3.18-1.799 25.65-9.966 25.34 40.713-5.47 28.303"/><path fill="#c47533" d="M1076.29 433.083c.86 4.573.7 8.024 1.11 12.56.09 1.054 3.4 1.394 4.18 2.235.78.842.32 1.968-.61 2.048-2 .173-13.83 1.133-14.15-.957.74-1.639 3.64-1.97 3.73-3.142.98-12.1.29-25.049.31-37.295-.68-1.767-3.13-1.016-3.74-2.505-.56-1.377 10.81-4.477 9.78-1.081-.05.161.15 1.776.18 2.115l1.35 1.581-.4 1.202c-1.52 4.341-.83 16.26-.86 21.228z"/><path fill="#c47533" d="m1077.08 407.061 1.5-.482c1.21-.403 2.26-1.444 3.18-1.799 25.65-9.966 25.34 40.713-5.47 28.303l.88-2.011c12.75 2.281 18.34-2.21 15.55-17.066-1.59-8.486-8.1-6.913-14.29-5.364zm52.39-3.408c6.67-1.098 15.8-1.567 17.41 6.832.8 4.173-1.73 18.711-.22 19.061 9.34 2.167 4.58 8.731-2.76 2.941-1.76-1.388-16.4 7.779-20.55-1.701-3.47-7.577.59-11.212 6.74-13.622 7.91-1.826 9.29-.923 11.36-8.261-4.68-3.268-4.8-3.284-10.31-2.359-1.2-1.075-1.12-1.286-1.67-2.891"/><path fill="#fff" d="M1129.52 421.014c12.43-4.904 9.68-4.831 12.01 4.842-7.55 8.81-13.52 6.71-12.01-4.842"/><path fill="#c47533" d="M981.822 432.457c.505-.427 3.116-2.109 3.089-2.959-.189-6.124.985-14.043-.5-19.843-.219-.855-3.517-2.003-3.923-3.222-.072.371 9.227-7.219 10.812.935.658.223 8.83-6.308 15.73-3.158 5.55 2.537 5.59 3.141 5.75 10.287-.29 4.952.03 10.054-.12 15.022-.05 1.571 2.05 2.922 2.1 4.341-.92.678-4.16.36-5.31.379a87 87 0 0 0-4.44-.223c-1.42-.024-4.14.386-5.249-.954-.33-1.791 5.229-1.384 5.949-1.317.38-3.019 1.45-20.341-.47-22.893-3.94-5.249-15.107-.447-14.171 6.139.833 5.857-2.654 14.966 3.187 16.646l1.258.861c-1.364 2.701-8.118 1.386-10.576 1.194-1.286.197-2.806.628-3.996.106-.063-.11-.129-.161-.108-.284.073-.44.798-.891.988-1.057"/><path fill="#c97f3f" d="M1009.45 434.239a87 87 0 0 0-4.44-.223c-1.42-.024-4.14.386-5.249-.954-.33-1.791 5.229-1.384 5.949-1.317 1.23.849 2.48 1.681 3.74 2.494"/><path fill="#b96f2d" d="M981.822 432.457c2.057-.214 2.529-.775 3.116 1.235-1.286.197-2.806.628-3.996.106-.063-.11-.129-.161-.108-.284.073-.44.798-.891.988-1.057"/><path fill="#c47533" d="M939.63 430.516c.199-.165 1.115-.788 1.167-1.51.428-6.583.872-14.394-.068-20.854-1.013-1.329-5.16.94-5.337-1.43-.256-3.426 10.108-3.546 11.669-2.816.907.425 1.07 1.942 1.267 2.983l.969 1.312c-1.849 5.677-2.321 15.416-.783 21.372.408 1.579 5.177 1.737 5.753 3.787-.308 1.119-13.611.855-16.391 1.206zm20.434-24.447c1.931-.683 11.666-4.771 12.671-1.1 1.814 6.631-2.2 21.042 1.556 26.407.273.407 2.743.484 2.224 2.173-1.044.88-7.965.437-9.37.375-.616.018-8.448.777-7.775-1.051.936-.766 1.377-.681 2.716-.954 8.021-4.852 3.192-14.505 3.517-23.42.031-.86-4.412-.586-4.843-.572z"/><path fill="#b96f2d" d="M962.086 431.919c2.443.753 2.885.832 5.059 2.005-.616.018-8.448.777-7.775-1.051.936-.766 1.377-.681 2.716-.954"/><path fill="#c47533" d="M1113.76 403.211c1.92 5.625-.41 18.956.52 25.379-.01 2.173 4.47 2.977 4.63 4.313.25 2.24-13.55 1.269-14.84 1.256-3.89-3.71 2.79-2.628 2.97-4.279.78-6.833.09-14.283.51-21.236.08-1.269-4.6-1.303-2.87-3.199 1.91-1.823 6.53-1.888 9.08-2.234"/><path fill="#b96f2d" d="M1027.18 434.886c-15.75-14.753-3.32-40.3 16.47-28.79.97.565.14 4.661-2.36 5.948-1.47-.374-11.82-15.432-15.21 4.459-1.25 7.342.98 11.59 5.95 16.735-1.8 1.248-2.7 1.261-4.85 1.648m27.64-32.29c6.09.974 3.84 3.26 4.11 8.909.3 6.216-.59 12.809.21 18.99.22 1.719 3.26 2.559 3.55 3.083l-.08.223c-1.11.925-8.08.781-9.73.83-1.45-.136-3.08.023-4.33-.826-.83-1.633 3.18-1.701 3.43-2.346 2.07-5.344.22-14.22.9-19.915.6-4.987-3.47-3.899-3.87-5.947.68-1.454 2.83-1.857 4.18-2.346z"/><path fill="#c97f3f" d="M1107.42 385.255c7.96.667 8.11 3.115 5.27 10.427-7.14.013-5.91-4.935-5.27-10.427"/><path fill="#b96f2d" d="M948.328 406.889c3.595-2.649 9.801-7.391 11.736-.82l.696 1.858c-7.446 11.065-.73-2.726-11.463.274zM967 386.439a4.222 4.222 0 1 1 4.156 7.35 4.222 4.222 0 0 1-4.156-7.35"/><path fill="#c97f3f" d="M1131.14 406.544c-2.35 12.43-13.49 4.359-1.67-2.891.55 1.605.47 1.816 1.67 2.891m-99.11 26.694.86-.341c-.24.095 11.71-5.238 9.48-4.963 1.37.874-.74 4.004-1.65 4.788-3.72 3.199-9.04 2.479-13.54 2.164 2.15-.387 3.05-.4 4.85-1.648"/><path fill="#b96f2d" d="M1053.43 387.239c1-.918 2.46-1.132 3.68-.538a3.296 3.296 0 0 1-.49 6.116 3.3 3.3 0 0 1-3.82-1.518 3.3 3.3 0 0 1 .63-4.06"/><path fill="#c97f3f" d="M911.593 432.189c7.45-.462 8.834 1.894-.493 2.12zm28.037-1.673-1.754 4.05c-4.797-1.466-1.48-2.315 1.754-4.05m-40.583 3.274c-.678-.09-1.098-.017-1.581-.372l-.015-.341c.945-.811 2.184-.887 3.365-1.097z"/><path fill="#5d6b79" d="m469.836 1013.41 1108.174.06c-.78 22.15-5.67 34.58-20.47 51.06-11 10.34-26.37 19.44-41.6 20.17-19.16.93-39.72.49-59.01.45l-105.12-.06-336.48.03-324.662.05-101.189-.03c-31.489-.02-69.47 5.38-94.39-16.91-16.671-14.92-23.811-32.74-25.253-54.82"/><path fill="#c97f3f" d="M1048.28 958.236c54.87-1.516 115.11-.361 170.3-.37l402.14.303-.02 52.451-301.25-.51-893.163.02a1842 1842 0 0 0-.01-51.987l559.673-.164c.033 11.725-.107 23.908.293 35.591 6.188-8.375 22.847-24.037 30.987-32.013 9.66 9.818 22.72 21.746 29.7 32.951.62-11.665.93-23.345.93-35.027z"/><path fill="#5d6b79" d="M615.559 1802.41c49.412-1.81 108.455-.31 158.334-.26l285.827.05 253.96-.12c37.75.06 83.3-1.33 120.31.47a177.5 177.5 0 0 1 123.6 59.11c-37.96-1.51-84.43.2-123.09.28l-945.021-.39c33.413-36.91 76.572-55.91 126.08-59.14"/><path fill="#c97f3f" d="m705.212 1088.21 77.243-.01-.389 710.71-77-.14zm416.238-.14 77.02-.02-.17 710.78c-19.75 1.32-56.24.05-77.27 0zM985 1088l76.45.01-.26 710.83-76.255-.02zm280.14.04 75.91-.02-.09 710.88q-37.95-.27-75.9-.09zm-416.068.07 74.904-.02-.132 710.68c-24.999-.17-49.999-.18-74.999-.04z"/><path fill="#5d6b79" d="m1201.65 1087.98 60.9.01c-.33 75.23-.26 150.45.21 225.68l-.29 485.3-61.08.06.28-470.44c.02-79.81-.94-160.93-.02-240.61m-416.063.12c19.754.32 40.681-.01 60.517-.03l.086 482.43-.238 153.58c-.05 21.55 1.178 54.62-.276 74.91l-60.574.02zm558.443-.14c19.89.21 40.25.02 60.17.02l.46 710.95c-18.77.59-41.55.05-60.58.07zm-702.203.17c19.573.47 40.488.08 60.162.07l.074 710.65q-30.479-.225-60.956.06zm285.253-.05c18.14.22 36.658 0 54.829-.02l-.094 444.18c-.136 88.45-1.137 178.48-.058 266.74l-54.773-.05zm137.75-.07c17.74.25 35.97.04 53.76.04l-.42 708.99-.7 1.25c-5.05 1.13-44.9.62-52.65.61z"/><path fill="#c97f3f" d="m1407.65 1267.44 39.28-.18.04 533.11c-11.98-2.05-26.91-1.56-39.26-1.49zm-805.767-.12c12.059-.19 24.4-.1 36.485-.15-.715 48.77.012 99.37.065 148.23l-.135 246.78.121 92.83c.022 7.74.61 37.73-.564 43.93-13.244-.15-23.103-.07-36.25 1.4l.391-346.3c-.029-61.52-1.12-125.42-.113-186.72"/><path fill="#5d6b79" d="M1026.91 878.96c.87-43.537 54.91-64.35 92.15-62.862 39.19 1.565 71.29 16.74 106.03 33.258 53.7 25.581 110.64 11.728 166.84 17.895 7.07.775 30.16 24.117 38.47 30.822l-129.25.102c-27.27-.062-53.11-.413-80.38-1.585-43.13-1.855-105.22-38.296-141.01-1.894a116 116 0 0 0-4.21 4.584c-4.35-5.42-11.38-8.762-17.47-11.897-11.63-5.321-18.27-7.267-31.17-8.423m-373.27-12.594c44.141-3.103 93.938 4.241 136.992-5.934 42.603-10.284 76.206-36.337 120.343-42.351 46.079-6.279 103.675 7.171 111.435 60.787-16.15 1.465-21.65 3.095-36.069 10.529-5.069 3.098-7.916 4.713-11.83 9.499-36.988-40.296-90.094-9.621-135.134-3.758a402 402 0 0 1-33.236 2.617c-17.977.585-179.213 1.338-185.073-.918 1.229-3.179 1.966-3.528 4.443-5.709 8.806-7.695 19.413-17.839 28.129-24.762"/><path fill="#7f8590" d="M625.511 891.128c-.002 4.348-.4 5.273-4.443 5.709 1.229-3.179 1.966-3.528 4.443-5.709"/><path fill="#c97f3f" d="M1407.23 1088c35.24.17 70.48.14 105.72-.11l.11 54.6c.01 8.57.44 24.14-.61 32.07-32.92-1.07-72.08-.37-105.15-.17zm-871.626 0 103.086.05-.155 86.73c-30.722 1.31-71.172-.52-102.893-.52.119-28.34-.875-58.08-.038-86.26m871.676 89.74c23.6-.43 48.11.18 71.94-.04.78 28.28.11 58.38-.03 86.84-23.02-.71-48.73-.4-71.82-.23zM662.991 463.996c.467-4.065.298-7.549 3.116-10.379l1.833-.352c1.605 1.914 1.766 4.585 1.458 7.003-6.069 47.734-13.83 95.381-19.862 143.097l-26.651 199.409c-4.167 30.42-8.225 68.832-13.4 98.237l132.986-.324c45.083-.024 90.668 2.078 134.598-9.707 30.695-8.234 63.064-18.539 89.929 5.121 3.943 3.47 4.106 5.78 3.82 10.616-5.914-1.231-27.794-.88-34.575-.871l-63.518.078-269.417.06c3.517-28.969 7.978-57.537 11.758-86.388l30.769-233.205c5.336-39.608 13.539-83.119 17.156-122.395m-94.37 713.964 69.89.03.005 83.76c-.073.2-.598 1.89-.826 1.9-14.831.8-56.759.68-69.082.84zm-80.796 686.7c22.598-.21 47.042.17 69.747.31-.056 6.1.059 12.27-.044 18.37-.409 24.13 4.436 41.87-18.933 57.25-26.076 14.73-60.297 0-65.1-30.09-2.725-17.08 4.914-32.28 14.33-45.84M1439.1 901.067c-3.2-12.702-5.35-34.744-7.04-48.293q-4.695-38.46-9.93-76.852l-40.67-309.482c-.5-4.063-1.41-8.851-.32-12.71l2.93-.68c1.88 4.849 4.55 29.448 5.57 36.111 6 39.154 9.88 78.767 14.95 118l29.44 220.974c3.14 24.23 8.1 54.487 10.42 78.108l-252.24-.198-77.02-.056c-6.81.006-33.35 1.518-37.31-1.271.13-2.157-.01-1.632.62-3.69 25.17-32.545 68.97-16.182 101.62-8.216a257 257 0 0 0 40.84 6.769c26.29 2.079 59.22 1.238 86.01 1.24zm-198.75 963.963 82.31-.01.04 26.04c.06 18.21 1.65 26.81-11.74 41.41-18.67 14.33-41.43 16.08-59.4-1.03-3.81-3.62-9.83-12.72-10.22-18.03-1.16-15.86-.97-32.41-.99-48.38m-509.694-.19 81.698-.07c.123 9.24.156 18.49.098 27.73-.005 17.62 1.44 26.19-11.678 40.23-24.676 18.64-60.037 13.88-68.631-19.73-2.893-11.32-1.514-35.48-1.487-48.16m169.495.16 82.274.01-.109 26.86c.003 18.5 1.343 26.54-12.337 40.95-8.854 7.31-17.36 10.9-28.978 11a39.86 39.86 0 0 1-28.215-11.58c-16.538-16.36-12.525-44.27-12.635-67.24m170.659.04 81.58-.01c.17 22.75 4.72 49.55-11.17 66.9-9.15 7.66-17.29 11.8-29.72 11.94a40.54 40.54 0 0 1-28.49-11.36c-13.16-12.81-12.41-22.05-12.14-38.99.15-9.27-.02-19.19-.06-28.48m255 .01 81.35-.05c.03 14.28.64 33.66-.66 48.02-.5 5.44-6.95 14.67-10.8 19.04-23.06 21.33-61.05 12.46-68.62-17.56-2.48-9.84-1.46-38.29-1.27-49.45"/><path fill="#c97f3f" d="m815.759 1864.9 81.257.02c.048 24.27 4.767 50.51-11.116 67.67-17.986 14.25-41.414 15.77-58.736-.76-12.871-12.28-11.342-25.12-11.369-41.18-.092-8.58-.104-17.17-.036-25.75m-169.878.14 81.179-.08c-.03 8.98.02 18.33.029 27.3.017 18.07 2.214 25.51-10.558 39.59-24.654 20.08-62.04 14.05-69.709-20.33-2.288-10.26-1.058-35.14-.941-46.48m764.869-.06 81.15-.09c.07 23.12 4.82 49.28-11.37 67.04-8.43 7.08-18.89 12.58-30.03 11.85-47.95-3.12-39.69-47.66-39.75-78.8m-255 .06 81.28-.01.03 26.94c.02 18.13 1.51 25.89-11.75 40.25-9.28 7.58-16.61 11.35-28.81 11.43-11.44.13-22.4-4.58-30.18-12.97-12.44-13.18-10.57-24.1-10.6-40.64-.08-8.33-.07-16.67.03-25m-594.651-.04 81.015.03.051 27.97c.019 18.41 1.589 24.77-11.687 39.61-8.446 7.21-18.355 11.82-29.478 11.08-47.403-3.14-40.002-47.84-39.901-78.69m424.913.09 81.058-.04c.01 25.52 4.87 48.79-11.64 67.13-23.49 19.65-61.607 13.38-68.584-19.67-2.272-10.76-1.119-35.55-.834-47.42"/><path fill="#c97f3f" d="M1547.15 1864.52c3.95-.06 8.07-.19 12-.12 6.9 9.84 14.38 19.42 15.86 31.6 4.12 34.02-19.03 50.31-49.63 46.8-36.77-11.18-30.35-47.08-30.24-78.03 17.34.01 34.68-.07 52.01-.25"/><path fill="#dc3e3a" d="M993.342 889.2c14.168-5.892 47.108-10.814 59.188.203-1.93 8.184-2.94 16.319-4.24 24.605-.66 4.139-1.14 8.306-1.42 12.489-.42 5.821-1.89 14.527-1.67 20.138a791 791 0 0 0-1.32 37.722c-9.12-10.209-17.55-18.257-26.05-29.183a858 858 0 0 1-28.745 29.862c-.069-13.959.767-34.276.092-47.28.389-2.805.613-3.495.489-6.207 2.059-15.323.848-26.62 3.676-42.349"/><path fill="#c3c2c3" d="M680.425 440.798c2.711 2.883-2.497 31.63-3.202 36.779l-12.536 93.187-31.212 228.801c-3.975 28.081-7.627 56.279-11.795 84.321-1 6.728-1.785 8.524-5.688 14.066-3.29-4.036 8.725-81.79 10.048-91.806l36.644-272.116 8.138-57.894c1.409-10.025 2.337-22.186 5.154-31.863.777-2.671 1.811-2.398 4.449-3.475m7.34-11.57c2.623.201 3.03.281 5.576.961 1.138 3.833-2.79 27.716-3.568 33.206l-10.388 74.263-28.672 210.505c-2.419 17.873-15.793 128.978-21.279 136.998-1.16.519-2.09.747-3.306 1.119-1.374-2.415-.84-5.39-.468-8.158zm668.745-.165 4.03 1.011c.57.625 1.13 1.25 1.7 1.875 6 32.455 11.39 79.321 15.41 110.572l27.53 208.203c5.71 43.298 11.38 94.982 19.18 137.901-3.19-1.51-5.03-3.785-7.54-6.295-7.17-43.286-12.45-88.489-18.13-132.001a11863 11863 0 0 1-20.28-152.58l-15.11-113.03c-2.29-17.474-5.57-38.32-6.79-55.656m-657.112-11.599c3.194.331 3.305.098 5.997 1.7-.002 8.23-3.19 26.818-4.409 35.833l-12.097 85.955-29.19 216.157-9.747 73.263c-1.527 10.911-4.404 34.358-8.13 43.737-1.095.469-2.536.948-3.679 1.363-1.077-1.879-1.163-3.828-.818-5.943 6.618-40.544 11.647-81.525 17.141-122.28zm668.692 23.984 3.95.858c2.32 2.026 3.09 2.533 3.63 6.213 2.05 13.96 3.94 28.157 5.8 42.122l12.53 98.603 40.65 308.243c-4.69-2.716-5.91-3.503-6.8-9.074-6.55-40.87-11.46-81.894-16.83-122.913l-21.34-160.091-13.84-107.116c-2.13-15.804-7.05-42.255-7.75-56.845m-23.91-23.043c1.91.198 3.31.442 5.19.761 3.72 4.687 15.36 105.148 17.39 120.187 14.29 113.145 29.6 226.16 45.92 339.03-2.83-1.657-5.65-5.557-7.84-8.195zm-9.93-10.143 3.26.635c2.46 2.482 2.23 2.266 2.85 6.577 8.22 57.561 15.39 115.563 22.85 173.225l37.26 278.125c-6.86-3.023-6.46-3.291-7.61-10.736-4.43-28.582-7.97-57.315-11.62-86.006l-15.86-120.187-15.52-117.152c-5.36-38.673-12.34-85.65-15.61-124.481m-623.307-.468 4.075 1.531c1.98 3.378-8.084 71.608-9.567 82.031L688.88 611.812l-19.573 142.123c-4.459 34.45-8.611 69.186-13.829 103.528-.645 4.248-1.229 5.002-4.364 7.76l-1.918.195c-1.397-3.696 3.826-32.355 4.672-38.688a11297 11297 0 0 1 15.789-115.596z"/><path fill="#564e48" d="m1055.43 891.335 2.39-.501c3.9 2.81 18.64 9.314 15.17 15.18-4.88 8.263-13.71 10.393-22.09 13.052.96-5.93 4.69-22.808 4.53-27.731m-68.908 23.88c-2.474-2.065-9.77-6.082-10.769-8.049-3.096-6.098 10.942-14.567 13.853-16.083-.325 5.273-.47 21.055-3.084 24.132"/><path fill="#5d6b79" d="M1019.72 108.408c37.31-3.634 77.38 21.343 83.74 59.781a66.3 66.3 0 0 1-11.64 49.675c-14.78 20.493-33.97 28.565-58.02 32.259-22.56.516-43.414-3.314-61.504-17.86a69.42 69.42 0 0 1-25.6-47.239c-3.987-42.796 33.036-73.098 73.024-76.616"/><path fill="#fff" d="M1020.36 155.101c13.35-2.716 26.41 5.817 29.28 19.14 2.88 13.323-5.5 26.479-18.79 29.509a24.88 24.88 0 0 1-23.91-7.484 24.88 24.88 0 0 1-5.28-24.492 24.87 24.87 0 0 1 18.7-16.673"/><path fill="#080808" d="M779.518 106.829c6.147-1.307 11.233-.565 17.404.09 32.287 3.427 55.361 26.822 61.611 58.233a71.5 71.5 0 0 1-10.52 53.974c-12.958 19.096-33.846 30.475-56.763 31.967-38.421-.384-72.945-23.753-77.745-63.612a72 72 0 0 1 15.639-53.66c12.866-16.063 30.086-24.714 50.374-26.992"/><path fill="#5d6b79" d="M779.518 106.829c6.147-1.307 11.233-.565 17.404.09 32.287 3.427 55.361 26.822 61.611 58.233a71.5 71.5 0 0 1-10.52 53.974c-12.958 19.096-33.846 30.475-56.763 31.967-1.237-45.633 1.595-98.325-.684-142.943-2.33-1.646-7.893-1.252-11.048-1.321"/><path fill="#fff" d="M791.719 112.504c57.862 7.345 81.339 68.985 42.804 112.413-14.396 13.212-23.752 16.627-42.518 19.675z"/><path fill="#5d6b79" d="M555.753 107.639c39.64-5.234 75.956 22.826 80.894 62.505 4.937 39.679-23.394 75.784-63.109 80.424-39.297 4.591-74.939-23.377-79.824-62.638s22.815-75.112 62.039-80.291"/><path fill="#fff" d="M557.269 114.678c35.432-4.329 67.698 20.799 72.179 56.213 4.481 35.413-20.509 67.786-55.903 72.418-35.609 4.66-68.221-20.514-72.729-56.142s20.806-68.133 56.453-72.489"/><path fill="#5d6b79" d="M556.511 136.912c23.29-4.912 46.163 9.952 51.134 33.231 4.97 23.278-9.836 46.188-33.101 51.217-23.349 5.048-46.359-9.823-51.347-33.184-4.989-23.362 9.94-46.334 33.314-51.264"/><path fill="#fff" d="M558.71 143.742c19.352-3.684 38.047 8.951 41.844 28.282 3.797 19.33-8.729 38.098-28.037 42.008-19.468 3.943-38.426-8.71-42.255-28.201-3.828-19.491 8.935-38.375 28.448-42.089"/><path fill="#5d6b79" d="M561.66 163.335c8.619-1.789 17.062 3.723 18.892 12.332s-3.641 17.08-12.242 18.951c-8.659 1.883-17.198-3.633-19.041-12.301s3.715-17.181 12.391-18.982m697.98-53.944a64.46 64.46 0 0 1 40.01 13.068 61.14 61.14 0 0 1 23.59 40.436c1.89 14.979-2.08 31.233-11.51 43.121a53.94 53.94 0 0 1-36.24 19.952 52.16 52.16 0 0 1-38.86-11.34c-19.57-15.985-24.46-45.096-7.8-65.27 7.81-8.688 16.11-13.496 27.75-14.709 31.76-3.307 57.07 33.849 32.37 58.638-5.45 5.472-13.57 8.244-21.56 7.923a25.26 25.26 0 0 1-18.27-8.663c-8.31-9.511-6.91-22.369 2.66-30.409 7.29-6.124 26.77.074 23.42 11.238-.96 3.21-8.35 5.26-11.37 6.384l-.08 1.138c2.55 1.472 8.41 2.085 10.36.158 14.07-13.852-7.55-34.157-23.28-23.665-7.7 5.131-10.15 12.178-12.34 20.699 10.37 47.941 66.9 29.45 64.76-10.803-1.13-21.342-25.39-40.832-47.05-37.831-46.31 6.418-58.12 64.481-19.33 91.309a56.57 56.57 0 0 0 43.65 9.093c32.98-6.856 54.4-39.27 46.73-72.412l-.3-1.275 1.17-1.886c3.32-1.529 1.63-1.32 5.25-.618 3.52 3.676 3.13 9.609 3.33 14.59 1.45 36.884-28.85 69.967-66.17 70.342-34.99.351-64.09-25.812-63.96-61.969a54.56 54.56 0 0 1 16.47-39.178c10.49-10.377 23.66-15.672 38.44-15.314a51.84 51.84 0 0 1 37.09 16.473c11.21 12.215 12.86 23.581 12.31 39.072-.71 3.216-1.72 7.346-2.95 10.417a39.85 39.85 0 0 1-21.78 22.108c-10.37 4.336-23.14 4.806-33.52.252a34.12 34.12 0 0 1-18.31-18.981c-10.55-27.047 12.95-54.652 40.8-40.701 15.74 7.888 14.87 35.435-4.6 38.961-8.71 1.577-14.86-4.163-15.9-12.394 2.69-6.789 6.32-3.193 12.34-6.713-1.07-2.161-3.59-3.929-5.72-3.634-11.48 1.84-14.12 16.081-4.35 22.752 11.06 7.55 24.28 4.141 30.78-7.468 12.45-22.232-13.65-46.734-36.12-38.827-20.7 7.285-30.32 26.916-22.84 47.311a42.3 42.3 0 0 0 23.45 24.325c22.37 9.251 51.67-2.094 60.28-25.077 17.8-47.486-32.68-88.434-76.99-67.828a60.8 60.8 0 0 0-31.24 34.477 62.35 62.35 0 0 0 2.28 47.734 68.6 68.6 0 0 0 39.35 35.502 68.73 68.73 0 0 0 52.78-2.329c35.59-16.923 53.19-58.828 38.34-95.742-2.63-6.547-9.36-17.887-7.14-24.239 2.92-.612 1.49-.722 4.4.63 20.78 29.558 19.91 74.125-2.72 102.567a79.73 79.73 0 0 1-54.32 29.962 77.56 77.56 0 0 1-57.16-16.918 72.73 72.73 0 0 1-26.17-50.337c-3.64-41.537 25.29-71.044 65.79-74.102m210.37 44.542c16.13-.132 32.56.214 48.74.201l-.06 1.286c3.45 1.807 4.43 2.752 5.66 6.507 2.82 8.652-4.43 11.59-6.3 15.762.01.094 13.42 10.688 3.21 19.56-.66.572-3.95 3.068-4.07 3.332.8.645 1.88.966 2.78 1.43 7.63 3.966 6.04 16.138-.99 19.876-.78.414-1.24 1.202-.45 1.898 6.94 4.687 9.89 12.412 3.98 19.237-4.06 4.694-9.05 5.433-15 5.412-6.51.24-12.69.234-19.2.346-11.38.197-26.17.367-26.54-14.784-.14-5.68 4.25-8.602 8.06-12.41-4.62-3.195-5.63-2.416-7.69-8.05-2.71-7.434 6.25-13.596 6.52-14.586-.6-1.424-6.35-3.603-6.56-8.903-.28-7.129 1.36-9.25 7.49-12.303l-1.22-1.905c-9.14-4.405-7.88-15.54 1.3-20.243z"/><path fill="#7f8590" d="M1470.01 153.933c16.13-.132 32.56.214 48.74.201l-.06 1.286c-7.48.822-41.55.835-49.02.176zm-1.64 21.906c7.3.1 30.27.086 36.08 1.631-1.79.509-31.87.492-34.86.274z"/><path fill="#fff" d="M1472.84 230.11c3.33-.089 13.71-.743 16.6-.156 6.85 1.391 33.96-4.745 25.31 8.745-6.94.437-15.47.71-22.46.374-6.6-.317-26.5 3.187-19.45-8.963m.1-45.18c12.71-.96 27.28-.298 40.09.127 3.19.106 2.05 5.89 1.62 7.881-12.85.126-25.88.325-38.7-.139-5.35-.194-3.98-4.603-3.01-7.869m-1.04 22.126c13.37-.2 27.23-.402 40.55.314 4.51.243 3.62 4.697 2.79 7.493-12.71.506-25.56.307-38.28.166-5.84-.064-5.91-3.444-5.06-7.973m1.38-44.889c12.84-.391 26.69-.636 39.42.182 3.09.198 2.13 4.877 1.06 6.776-12.7 1.764-26.96.218-39.82-.267-2.72-.103-1.79-3.537-1.24-5.043z"/><path fill="#5d6b79" d="M1470.01 153.933c-3.83-2.123-5.56-3.099-7.19-7.407-3.12-8.302 7.43-13.357 7.98-14.534-1.71-3.609-15.58-9.629-4.65-21.845 5.4-6.026 26.09-3.215 34.07-3.771 6.2-.433 16.75.155 21.23 4.683 10.66 10.448-1.98 17.229-3.26 20.395.86 3.281 15.2 10.81.56 22.68-16.18.013-32.61-.333-48.74-.201"/><path fill="#fff" d="M1472.91 116.053c10.68-.176 21.42-.221 32.09-.108 6.38.068 14.18-.204 9.35 7.889-11.05.904-22.26 1.293-33.35.86-5.06-.197-10.6-.931-8.56-7.162zm.88 23.04c13.08-.112 26.21-.119 39.28.123 4.47.082 2.13 5.435 1.54 8.252-13.16-.004-26.91.462-39.97-.72-2.85-.259-3.34-4.003-1.63-6.487z"/><metadata><recraft-signature>{&quot;signed_by&quot;: &quot;recraft&quot;, &quot;signature_b64&quot;: &quot;BAXAtCZGvtpZTX4dBVg9o2gGqynM4+hs8kyXjel7HPXkpEgJISI9kkwTEI108ZLalUz4Ws+k7XGj5TKOt9IsCA==&quot;, &quot;signing_algo&quot;: &quot;Ed25519&quot;, &quot;generation_timestamp&quot;: 1777253427, &quot;identifier&quot;: &quot;23432ba4-a257-49f5-8170-6f3de7f9067f&quot;}</recraft-signature></metadata></svg>