<svg xmlns="http://www.w3.org/2000/svg" width="1024" height="1024" preserveAspectRatio="none" style="display:block" viewBox="0 0 2048 2048"><defs><linearGradient id="a" x1="958.358" x2="996.395" y1="1230.44" y2="1227.91" gradientUnits="userSpaceOnUse"><stop class="stop0" offset="0" stop-color="#c05f27"/><stop class="stop1" offset="1" stop-color="#cb7c37"/></linearGradient></defs><path fill="#fff" d="M0 0h2048v297.861c-88.6-.934-177.2-.933-265.79.003l-424.78.038L0 297.747z"/><path fill="#465865" d="M546.851 150.421c14.593 4.775 29.969 9.102 44.909 11.992 44.334 8.577 142.542 9.498 183.472-8.076 2.571.2 1.981.832 2.559 3.326-6.507 7.309-9.126 9.961-11.509 20.078-1.188.255-1.093.284-2.249-.065-16.034 43.986-17.79 56.465-58.598 78.919 7.012-2.539 11.91-5.214 19.158-4.533l1.073.663c-3.615 8.817-21.019 11.975-29.273 13.286 5.92 3.004 10.547 4.238 12.619 10.484-.655 3.215-.688 3.129-2.252 6.048 31.404-1.481 64.623-.533 96.156-.515l141.718.126c9.868.027 61.026 1.88 67.306.176-3.49-3.833-2.81-2.091-3.69-6.839 1.67-5.513 5.31-6.176 10.19-8.096l3.05-1.221c-31.055-6.187-51.123-25.192-58.954-55.86-6.85-26.823-13.77-44.086-38.154-59.526 12.034 3.621 28.106 8.813 40.538 10.925 50.8 8.632 106.77 9.058 157.74.957 10.24-1.627 19.52-4.991 29.14-7.745-21.42 44.928-17.62 71.286-63.44 99.642 4.02-1.346 9.38-3.56 13.43-3.414l1.34 1.254c-.58 12.874-24.06 11.247-25.51 14.824l1.13.821c5.67 4.184 9.23 6.564 6.29 14.025l.26 1.031c6.04-2.579 213.59.089 236.6-.969 9.09-.418 39.43 1.992 51.28.073l-2.18-3.306c-.18-7.824 3.56-9.157 10.46-11.273l-.55-2.386c-24.58-2.891-44.98-24.942-52.86-47.288-4.54-12.862-6.23-26.369-13.1-38.599-6.73-11.994-15.76-19.842-26.11-28.555 1.76.634 3.53 1.241 5.3 1.822 57.45 18.917 125.77 18.904 185.33 10.832 10.86-1.471 25.37-4.054 34.86-9.224l1.06 1.427c-17.9 34.932-19.44 66.444-51.16 90.911-.29 2.151-.08 2.08 1.54 3.538.07 14.34-20.21 12.858-25.65 15.824l1.53 1.131c7 5.209 11.87 7.878 5.59 15.884 67.97-1.503 139.12-1.054 207.19-.832 18.13.032 36.27.205 54.4.517 10.3.169 24.21.835 34.25.15-1.3-2.678-2.48-4.398-2.42-7.346 2.6-5.703 6.49-6.656 12.35-9.482-28.93-5.557-48.24-22.546-56.87-50.498-9.19-29.784-11.23-45.227-38.49-64.032 13.08 2.935 26.21 8.121 40.17 10.421 55.28 9.11 114.45 9.762 169.46-1.719 1.98-.413 11.33-4.849 14.2-5.941l1.12.833c-.5 2.595-.77 4.257-1.06 6.932 2.8.822 11.52-10.66 22.48-8.655 14.7 1.873 26.27 11.777 22.93 27.482-6.26 29.483-31.66 36.908-55.58 47.305-9.67 4.208-19.31 10.272-28.04 16.155l-.79-1.803c7.94-6.369 11.78-13.25 17.3-21.633 17.73-5.357 46.8-13.441 51-35.24 1.8-9.393-4.56-17.925-14.13-18.795-8.81-.801-14.39 5.83-20.66 11.196-.53-1.296-.98-2.451-1.57-3.725-9.91 28.125-17.45 57.148-44.16 73.162 2.66 2.59 2.02 1.521 5.42 3.199-4.53 12.285-17.58 13.646-28.97 16.128 9.06 3.61 10.9 5.167 12.28 14.97l.14 1.678c8.98-1.789 60.7-1.069 72.66-1.076q78.075-.392 156.15.087v15.473c-88.6-.934-177.2-.933-265.79.003l-424.78.038L0 297.747v-14.989c75.858-1.877 152.454.315 228.394-.658 9.96-.127 19.805.541 29.789.042-.352-1.285-1.116-1.342-2.721-2.518-1.468-6.085 2.789-9.23 8-11.297l.955-3.24c-45.289-6.026-51.345-49.212-63.934-82.79-4.266-11.379-16.491-23.003-26.112-30.419 60.846 18.288 167.201 26.688 226.706 1.487-24.383 33.138-11.916 54.275-47.982 89.308.528.797 1.272 2.426 1.675 3.25l-.063 1.35c-1.406.787-2.554 1.41-4.013 2.114-4.796 14.294-12.455 14.618-26.184 15.832l-.585.727c1.934 1.286 6.071 3.974 7.484 5.684 6.112 7.397.488 7.455.482 11.181 87.319-2.112 175.433-.082 262.812-.382 13.115-.045 26.749.858 39.797.204-10.121-8.197.386-13.648 8.35-15.552l1.476-.342c-30.553-5.604-49.614-23.003-58.578-52.385-9.468-31.032-10.776-43.863-38.897-63.933"/><path fill="#ebeaea" d="M775.232 154.337c2.571.2 1.981.832 2.559 3.326-6.507 7.309-9.126 9.961-11.509 20.078-1.188.255-1.093.284-2.249-.065 2.711-8.582 5.603-16.304 11.199-23.339m-422.137 88.336c.528.797 1.272 2.426 1.675 3.25l-.063 1.35c-1.406.787-2.554 1.41-4.013 2.114-3.418.162-9.177 2.75-12.375 4.22l-1.648-1.55c6.392-2.385 10.812-5.831 16.424-9.384m1112.675 7.438c-5.25.685-9.52 3.81-14.57 4.346-.21.022-.22-.112-.27-.273.18-.314 12.46-7.162 13.3-7.611-.29 2.151-.08 2.08 1.54 3.538m408.71-75.871c0 .007.64-1.981 1.14-2.848 1.08-1.884 2-6.424 4.07-7.513.27-.141.54-.076.78.014.94 1.947-3.22 9.999-4.04 12.798l-.38 1.274c-.53-1.296-.98-2.451-1.57-3.725"/><path fill="#c6c9cd" d="M1816.55 255.446c4.59-2.681 9.14-5.426 13.77-8.044 2.66 2.59 2.02 1.521 5.42 3.199-5.9-.638-12.94 2.848-19.19 4.845"/><path fill="#868c92" d="M1806.54 286.046c3.53-1.519 8.75-4.122 12.51-4.347l.14 1.678c-3.6 1.132-6.89 1.964-10.67 2.391z"/><path fill="#ebeaea" d="M264.417 265.087c9.456-.438 1.95 2.13-.955 3.24z"/><path fill="#868c92" d="M1085.3 283.108c-5.66 3.718-11.78 3.85-.26-1.031zm-746.981-29.501c-1.399.282-3.374.847-4.731.076-.168-.27-.145-.134-.097-.405.835-.919 1.965-.981 3.18-1.221z"/><path fill="#c6c9cd" d="M1380.91 265.247c.98-.073 3.3-.363 4.2.205l.04.07c-.66.86-2.68 1.656-3.69 2.111z"/><path fill="#fff" d="M209.215 170.417c17 18.438 13.754 21.315 22.28 44.104 7.307 19.531 21.957 31.653 40.742 39.704l-4.266 1.298c-29.722-9.075-41.232-22.177-47.777-52.538l-.987-4.499c-2.715-12.632-5.331-16.699-9.992-28.069m817.495 86.25c-1.36-.412-3.86-1.321-5.23-1.521-22.551-4.11-42.431-22.652-47.285-45.163-1.644-7.62-2.201-14.588-4.254-21.978-1.743-6.276-5.08-10.685-8.086-16.189 17.558 15.861 14.701 22.447 22.987 43.614 7.996 20.427 21.848 31.197 41.988 38.9zm728.99-1.16c-8.67-3.103-15.15-3.625-23.54-8.79-15.55-9.582-24.47-25.765-27.99-43.228l-.95-4.504c-2.56-12.247-5.36-17.072-9.54-28.083 6.04 5.892 11.12 10.179 13.5 18.561 7.92 27.824 18.1 55.331 50.14 64.062zm-369.21.073c-8.7-3.271-15.61-4.749-23.87-9.857-11.45-6.45-22.36-22.125-24.46-35.252-2.54-15.925-3.84-20.822-10.95-35.079l-1.4-2.824c18.65 17.073 12.56 21.632 21.66 42.994a67.46 67.46 0 0 0 37.54 36.49c1.24.488 2.48.976 3.73 1.464zm-747.136-1.467c-36.77-14.483-39.396-30.705-47.749-66.493-.812-3.482-5.702-11.631-7.424-16.341 15.816 16.401 15.351 23.614 22.561 44.302 5.501 15.787 19.973 29.42 35.5 35.851z"/><path fill="#ebeaea" d="M642.242 251.432c6.048 2.16 10.36 3.503 16.055 6.552-5.677-1.066-13.374-2.443-18.943-3.871z"/><path fill="#c6c9cd" d="M1388.74 253.516c1.79.387 3.55.929 5.32 1.458l.52 1.169.63-.119c.07.067.14.133.2.2-.95 1.148-7.48-.388-8.92-.644zm-1116.503.709c2.962.684 5.748 1.946 8.641 2.861-6.308-.477-6.242-.367-12.907-1.563zm754.593.105c1.49.315 5.2.772 6.23 2.127-.39 1.243-5.59.308-6.35.21z"/><path fill="#a7acb4" d="M1757.32 253.525c.98.36 5.36 1.425 5.18 2.703-.87.758-3.24-.076-3.98-.212l-1.62-.28-1.2-.229z"/><path fill="#465865" d="M405.305 155.547c9.798-1.861 17.828-3.768 26.684 2.292 15.724 10.759 10.024 29.851.683 42.871-12.525 17.457-32.892 21.245-50.991 30.274-10.983 5.432-16.998 9.182-26.974 16.289l.063-1.35c9.47-10.634 11.723-12.577 19.949-24.835 16.039-6.123 40.094-10.572 49.19-27.632 7.363-13.811-3.503-32.174-19.9-25.606-2.801 1.146-10.822 9.534-13.868 12.264 4.03-11.515 5.678-17.009 15.164-24.567m372.486 2.116c17.958-11.095 46.308 2.857 38.58 26.93-12.194 37.986-49.967 35.915-78.514 56.657l-2.11-1.713c7.052-6.917 9.194-11.1 13.981-19.315 14.288-3.428 19.246-4.726 33.811-12.165 16.997-8.681 28.146-33.632 3.938-40.714-6.564-1.92-15.813 6.143-21.195 10.398 2.383-10.117 5.002-12.769 11.509-20.078"/><path fill="#868c92" d="m725.027 249.288 10.72-9.751 2.11 1.713c-4.189 3.089-8.188 5.698-12.83 8.038"/><path fill="#a7acb4" d="m1842.54 242.437.79 1.803c-.91.713-4.29 3.752-5.62 3.054-.5-1.312 4.04-4.275 4.83-4.857"/><path fill="#c57335" d="M270.607 133.432c21.18-1.471 110.424 1.15 121.357 15.869l-.313 1.947c-10.179 8.627-63.084 10.435-78.151 11.08-16.601.716-116.137-1.315-123.254-14.791l.672-1.926c11.564-8.965 63.817-11.312 79.689-12.179m753.833-.005c31.03-1.666 98 .144 123.65 16.208-21.53 10.946-57.77 11.803-82.27 12.358-15.75.066-118.811-.798-124.152-14.963 9.363-10.235 68.172-12.831 82.772-13.603m359.57.002c15.43-.569 123.53.543 124.26 17.268-10.04 8.499-62.25 10.718-77.02 11.272-17.49.472-117.51-1.131-126.14-13.816l.6-1.852c12.54-9.724 61.14-11.938 78.3-12.872m-743.267.006c18.148-.811 120.023-.134 125.393 16.682-6.023 8.954-60.96 11.148-72.562 11.725-13.51.351-127.877-.01-128.115-15.374 9.185-9.965 60.652-12.102 75.284-13.033m1111.977 0c22.1-1.671 113.01.613 125.14 16.924-5.2 8.166-67.2 10.884-77.74 11.41-35.09.905-97.51.78-129.39-13.795 19.73-11.601 58.75-13.111 81.99-14.539"/><path fill="#465865" d="M1524.89 154.328c19.76-1.701 29.09 1.442 34.58 21.342-7.88 36.13-30.01 41.937-60.77 54.79-5.1 2.133-25.96 15.972-28.14 15.456-.5-.957 2.58-2.69 3.4-3.366 9.76-9.448 10.07-12.087 18.27-21.722 13.88-4.945 26.39-7.905 38.47-17.152 8.88-5.985 16.71-21.001 8.08-30.49-11.52-12.66-22.54-2.045-31.2 5.612 3.87-9.981 6.1-21.687 17.31-24.47m-379.91 24.65.98-4.987c6.86-33.438 58.09-23.489 48.77 9.994-3.65 13.132-13.97 25.275-26.35 31.661-16.93 6.949-31.79 14.217-48.09 22.413l-3.11-1.18c3.94-5.477 7.33-10.888 11.14-16.205 11.41-4.223 19.38-6.093 31.7-12.166 15.85-7.815 30.57-28.552 9.43-40.419-9.53-5.352-18.05 4.136-24.47 10.889"/><path fill="#6d727c" d="m1117.18 236.879 3.11 1.18c-6.3 4.647-11.39 8.721-17.93 13.183 2.31-2.402 12.35-12.772 14.82-14.363"/><path fill="#465865" d="M754.26 955.898c-18.598-125.075-51.649-253.081-115.439-363.301-24.932-43.079-48.859-74.594-87.952-106.457-36.687-29.903-108.739-15.557-118.36-69.085-7.43-41.337 34.237-74.347 71.995-76.972 84.991-6.851 171.96 14.878 253.598 36.628 156.43 44.974 318.588 63.786 479.128 29.066 44.15-9.549 88.35-21.009 131.41-34.099 78.05-23.73 159.85-42.508 241.67-29.517 28.21 4.48 58.67 29.839 61.51 59.906 6.55 67.583-79 53.606-118.2 77.982-17.95 11.166-31.23 22.912-45.2 38.709-83.71 93.756-127.34 229.773-153.16 350.338-5.29 24.689-13.13 63.394-15.56 87.66-.18 1.506-.59 9.867-1.25 10.658-2.49 2.981-1.14-19.221-.63-21.07.06-55.104 7.52-117.583 21.24-173.698 26.92-110.19 75.08-257.931 172.16-327.285 18.51-12.29 39.07-18.376 59.85-25.155 12.51-4.083 43.41-12.448 46.2-27.106 3.36-17.662-21.89-29.221-36.48-30.659-48.6-4.79-91.96 17.489-129.52 46.035l-1.82-.933c30.52-29.358 55.42-45.032 96.85-54.954-4.31-3.293-3.88-1.084-9.09-1.895-69.63 2.401-125.58 20.293-173.95 72.215a247 247 0 0 0-22.52 27.871l-1-1.976c15.82-31.107 40.14-56.391 69.15-75.372l-2.78-2.264c-20.46 6.276-50.74 13.802-69.42 22.414-29.72 13.708-63.02 55.985-77.01 85.799-61.94 132.026-82.02 285.738-96.55 429.7-.79 7.863-1.11 15.901-2.11 23.695l-3 4.046c10.55-161.085 22.62-341.599 104.11-485.937 8.9-15.773 28.88-34.419 42.23-46.951-22.67 5.976-45.33 11.277-67.17 20.057-74.06 29.785-86.48 126.513-99.07 195.957-18.75 103.332-24.29 210.595-28.91 315.663l-3.2 3.526a2360 2360 0 0 1 13.26-255.25c6.03-58.464 17.02-145.476 40.27-199.386a140.9 140.9 0 0 1 28.72-42.878c4.1-4.098 8.48-7.897 13.12-11.367-52.18 13.275-84.45 15.363-138.3 18.768-3.67 127.222-6 254.478-6.99 381.748l-2.03 116.763c-.16 21.947.88 57.225-.82 77.575-.35-4.07.02-25.39-.91-26.544-2.15-.112-1.37 12.414-1.55 14.814-1.44-13.35-.9-36.951-.96-51.124-.15-24.137-.54-48.272-1.16-72.401l-3.84-304.768c-.93-43.913-1.03-91.553-4.53-135.018-50.43-.542-87.901-4.925-136.515-14.966 20.182 15.067 33.672 35.235 42.916 58.556 12.71 32.065 19.756 66.218 25.611 100.112 17.718 102.581 24.388 207.099 23.568 311.127-.17 20.027.47 42.284-.64 62.119-1.28-13.223.19-33.165-.59-47.672l-.83-.538-1.22 2.939c-1.97-27.603-1.56-55.427-3.14-83.078-5.26-92.127-22.76-331.168-91.411-391.12-19.426-16.964-42.167-20.805-66.224-27.139a734 734 0 0 1-39.068-11.539c18.116 13.18 35.427 27.751 47.762 46.893 45.069 69.934 67.311 179.952 81.214 260.749 19.979 116.108 20.317 233.59 19.091 350.508.32 4.03-.311 7.98-.821 11.98-.263 2.07.593 13.7-1.244 13.64l-.267-.57.353-.35c-.563-.7.013-55.75.329-61.25-.104-40.162-.085-80.295-2.687-120.397-7.589-116.933-39.011-343.395-101.451-440.041-7.992-12.371-17.687-23.594-28.028-34.05-37.865-38.281-79.231-49.811-130.136-60.661l-2.539 2.174c50.245 27.967 87.65 82.24 108.011 134.983 5.305 13.743 10.075 30.58 15.13 42.961l-1.287 1.863c-13.349-41.995-42.271-93.719-72.692-125.349-51.503-53.551-104.722-77.5-179.275-79.065-3.892.382-5.723-.142-9.094 1.627 61.252 19.883 95.383 73.689 128.006 125.283l-1.508.487C645.177 431.04 602.25 374.61 538.88 365.092c-23.209-3.486-61.964-3.051-68.107 26.225-3.187 15.192 21.671 23.444 32.304 26.888 13.516 4.379 27.209 8.8 40.127 14.763 13.725 6.595 26.319 15.611 37.746 25.613 117.028 106.628 176.162 346.43 175.995 496.638-1.242.663-1.17.554-2.685.679"/><path fill="#a7acb4" d="M959.164 1030.47c1.574 10.38.529 24.76 1.65 36.55.32 4.03-.311 7.98-.821 11.98-.263 2.07.593 13.7-1.244 13.64l-.267-.57.353-.35c-.563-.7.013-55.75.329-61.25"/><path fill="#c6c9cd" d="M1557.21 350.694c2.28-1.132 19.95-1.235 23.26-1.157-5.74 1.429-8.08 2.552-14.17 3.052-4.31-3.293-3.88-1.084-9.09-1.895"/><path fill="#868c92" d="M1337.82 946.344c.54 3.546-1.24 9.893 1.88 10.412-.18 1.506-.59 9.867-1.25 10.658-2.49 2.981-1.14-19.221-.63-21.07"/><path fill="#ebeaea" d="M544.486 352.219c7.527-.242 12.181-.625 19.724.669-3.892.382-5.723-.142-9.094 1.627-4.86-.641-6.113-1.316-10.63-2.296m881.624 18.949c1.27-.368 7.35-2.537 8.46-1.629-.06.76.04.189-1.15 1.305l.33-.242c-1.58 1.019-3.17 1.993-4.86 2.83z"/><path fill="#fff" d="M683.42 372.007c4.217 1.013 9.324 2.177 13.442 3.314l-2.539 2.174c-3.688-1.948-7.194-3.629-10.903-5.488"/><path fill="#465865" d="M1406.26 1375.45c52.79-63.04 43.3-96.82 23.92-170.8-16.01-61.1-16.1-144.02 25.91-194.8 26.18-31.955 92.79-70.108 131.12-37.546a52.83 52.83 0 0 1 18.42 36.246c2.39 31.99-26.6 57.66-57.26 58.5-20.53.56-32.82-6.38-46.98-19.97-29.68 45.25-29.47 99.25-18.77 150.86 3.38 15.93 8.29 31.49 14.66 46.48 16.1 37.21 37.67 65.01 32.05 108.32a93.9 93.9 0 0 1-14.51 39.42c-9.02 13.66-36.6 38.96-53.35 39.51-3.14-4.22-6.04-8.2-9.11-12.48-1.74-2.95-4.76-7.13-6.75-10.08 26.11-5.79 47.53-21.91 56.86-47.44 20.48-56.08-17.82-109.91-34.16-161.73-8.05-25.52-12.24-48.99-11.02-75.78-.5-2.05-.03-3.63-2.04-3.74-2.42 31.92.44 51.91 8.75 83.17 14.98 56.31 70.26 134.42 14.14 184.01-9.64 8.52-22.68 14.46-34.12 19.8-5.14-4.88-11.1-10.28-16.03-15.25-7.33-6.36-13.57-11.36-21.73-16.7"/><path fill="#fff" d="M1499.1 998.911c17.09-9.783 33.14-16.659 53.29-11.906 29.39 6.935 28.6 46.745 3.71 58.595-11.24 5.36-23.32 3.6-34.61-.21 7.03-4.29 13.91-8.43 16.4-16.77 2.36-7.9-6.17-12.23-12.72-12.27-15.96-.08-31.09 10.49-42.25 21.04-25.05 24.67-38.16 61.93-38.55 96.6-.85 77.04 66.13 180.78 1.47 245.85-5.29 5.32-10.73 9.72-17.85 12.31 2.79-3.79 6.5-7.03 9.69-10.51 9.85-10.76 19.17-22.58 24.83-36.15 27.44-65.84-44.74-169.77-13.12-264.24 8.86-26.47 26.37-51.05 51.76-63.65 10.17-5.05 22.94-9.29 34.13-5.16 3.19 1.18 5.39 3.01 6.77 6.2 2.98 6.91-1.9 16.96-4.31 23.42l.92.78c4.52.26 8.31.64 12.64-1.01 19.95-7.66 23.53-42.116 1.14-49.081-18.17-5.651-34.95-.595-51.26 7.431z"/><path fill="#a7acb4" d="M1456.89 1101.81c1.08 6.41 1.8 15.97.4 22.35-.5-2.05-.03-3.63-2.04-3.74-.01-5.35 1.1-13.07 1.64-18.61"/><path fill="#c6c9cd" d="m1499.1 998.911 2.08 1.269c-4.2 2.87-8.59 5.45-12.98 8.01 4.69-4.58 5.45-5.51 10.9-9.279"/><path fill="#465865" d="M603.085 1047.77a114 114 0 0 1-3.156 3.62c-21.37 23.22-60.125 18.84-82.27-2.4-36.844-35.34-6.517-90.42 39.581-90.403 27.624.01 61.171 23.014 80.062 42.423 51.498 52.9 50.436 133.99 34.966 201.4-6.193 27.32-16.055 54.23-17.489 82.5-1.649 32.48 14.271 64.6 36.3 88.02-6.023 5.18-13.13 10.65-19.373 15.69-53.404-36.64-39.719-100.63-26.402-153.49 5.485-21.6 8.644-39.49 12.71-61.75 11.014-60.28-4.648-143.5-72.619-161.83-6.854-1.85-18.458 2.53-18.061 11.27.366 8.08 3.674 14.13 9.121 20.06l.955 1.03c-7.285.34-11.563.94-18.571-1.85-23.04-9.18-25.407-42.159.519-49.524 16.04-4.557 32.175.214 46.571 7.484l2.127-1.113c-4.78-3.048-8.732-5.459-13.931-7.812-17.918-8.204-43.914-8.875-55.55 9.765-8.935 14.32-2.19 35.26 11.961 43.55 11.801 6.91 23.017 5.19 35.158.89-6.499-5.55-12.154-10.55-13.9-19.35-1.315-6.62 7.144-10.37 12.135-9.19 55.823 13.19 77.441 84.72 72.613 134.13-6.911 70.72-55.558 156.76-9.591 220.63 5.784 7.29 14.685 14.98 23.205 18.75-5.074 5.05-10.434 10.23-15.289 15.46a74.2 74.2 0 0 1-44.874-33.19c-22.4-37.22-5.759-80.52 8.881-117.14 16.96-42.43 31.758-82.67 28.89-129.3-.91-.45-.999-.39-1.953.13.01 25.98-2.853 44.24-11.125 70.03-18.72 58.36-70.888 136.1-19.363 192.07 9.828 10.68 23.68 16.82 36.892 21.65-4.435 4.83-8.464 11.04-11.742 16.71-.925 2.41-.828 2.76-2.57 4.58-18.226-4.02-41.685-23.6-51.986-39.71a103 103 0 0 1-13.929-35.63c-8.096-42.73 12.822-69.85 29.863-106.95a258.2 258.2 0 0 0 17.552-51.87c10.069-46.5 10.125-108.14-16.318-149.34"/><path fill="#a7acb4" d="M645.811 1126.23c-.666-2.04-1.955-18.95-1.069-19.73 2.148.37 3.049 17.49 3.022 19.6-.91-.45-.999-.39-1.953.13"/><path fill="#868c92" d="M608.056 998.907c11.168 8.183 7.083 8.453-2.127 1.113z"/><path fill="#465865" d="m638.336 1461.51 1.165.3c2.431 3.6 8.824 2.86 13.41 3.89l.127 1.9c23.869 5.41 52.964 12.24 76.815 16.46-31.992 6.71-64.321 18.42-81.812 47.42-49.811 82.6 17.999 179.03 55.731 247.8l1.954-.65c-29.696-70.11-121.557-216.73-14.668-276.73 30.323-17.02 62.057-15.49 94.019-7.8 11.144 2.69 24.128 3.05 35.618 7.11-37.572 5.45-67.817 4.81-100.068 32.01-17.921 15.11-25.213 30.84-32.235 52.7-14.009 43.63-3.525 100.7 11.645 143.54 17.516 49.46 38.267 92.45 33.687 147.72-2.686 27.77-11.742 55.67-33.981 73.79-15.366 12.52-41.201 22.98-56.004 4.63-7.715-9.57-4.234-23.24 5.186-30.07 12.861-9.33 28.855 8.53 41.283-2.42 7.875-7.68 13-23.83 15.341-34.5 10.164-46.35-11.01-99.23-34.596-137.38-37.658-60.91-88.125-120.46-82.71-196.54 2.554-35.88 22.829-70.57 50.093-93.18"/><path fill="#a7acb4" d="m638.336 1461.51 1.165.3c2.431 3.6 8.824 2.86 13.41 3.89l.127 1.9c-7.109-.41-12.959.56-14.702-6.09m67.39 317.12c.973 1.37 5.171 10.19 5.403 11.63l-.041.07c-1.331.01-6.529-9.51-7.316-11.05z"/><path fill="#465865" d="m1460.39 1462.82.85.77c2.05-.32 2.06-.86 3.73.71 23.9 22.9 41.35 51.51 45.24 84.89 13.55 115.99-106.51 187.23-117.7 296.8-1.51 22.89.22 55.88 17.3 72.62 14.06 13.77 49.89-5.79 50.7 21.14 1.07 35.75-41.29 27.09-59 10.73-22.01-20.34-31.81-41.44-34.19-70.22-1.91-24.66.12-49.47 6.01-73.48 11.57-46.83 34.97-90.19 42.69-137.64 8.24-50.65.91-103.35-38.87-138.62-17.53-15.55-60.68-32.6-83.49-31.88a174 174 0 0 0 3.23-2.86c13.65.02 36.43-4.44 50.06-7.02 21.92-4.14 30.24-5.89 50.91 4.15 8.6 4.1 16.49 9.55 23.37 16.14 20.78 20.19 30.43 54.9 30.47 83.12.08 62.63-36.45 135.73-63.79 191.88l2.11-.04c2.5-5.66 8.28-14.48 11.7-20.15 37.82-62.74 77.03-136.68 54.62-211.96-12.2-40.97-32.31-52.45-67.27-70.7-.3-1.46-.42-2.31-.62-3.83 12.81-2.45 25.75-4.93 38.59-7.25l12.95-2.32c8.6-1.53 12.31-2 20.4-4.98"/><path fill="#c6c9cd" d="m1460.39 1462.82.85.77-1.13.82c-2.99 2.34-17.61 5.02-22.09 5.87-11.53 2.23-23.03 4.57-34.51 7.01-4.6 1.01-10.22 2.01-14.44 3.91-.3-1.46-.42-2.31-.62-3.83 12.81-2.45 25.75-4.93 38.59-7.25l12.95-2.32c8.6-1.53 12.31-2 20.4-4.98"/><path fill="#a7acb4" d="m1387.91 1784.05 2.11-.04c-.4.74-2.11 4.43-3.43 4.42-.62-.85.24-2.16.66-2.98z"/><path fill="#465865" d="M640.079 1430.3c48.88 12.28 97.904 16.94 147.445 23.64 128.78 17.4 251.936 23.65 381.916 15.93-12.19 12.91-27.4 30.22-37.23 45.06-135.28 5.39-263.613-9.7-396.429-34.45-25.176-4.7-58.639-8.22-82.87-14.78-4.586-1.03-10.979-.29-13.41-3.89 1.146-11.13 1.22-20.29.578-31.51m198.306 72.24c37.006 2.15 77.983 12.05 116.374 13.27 1.163.82 2.33 1.59 3.511 2.37-105.386 10.95-83.621 77.98-70.793 154.53 4.794 28.61.969 67.09-11.773 94.12-8.46 17.95-34.722 50.15-59.161 38.9-17.717-10.33-11.55-34.14 10.07-35.31 8.189-.45 21.299-7.55 25.748-14.64 28.964-46.18 4.391-100.98-16.102-145.18-18.876-40.29-23.154-69.3 2.126-108.06m406.235.74c4.64-.79 6.52-1.36 9.53 3 42.87 62.19-16.76 114.13-27.33 175.15-4.55 26.24-5.75 52.49 10.32 75.49 7.04 11.83 17.48 11.59 29.15 14.15 22.21 4.87 19.59 27.64 1.79 37.18-16.98 3.19-33.09-10.99-42.95-23.25-33.93-41.7-25.07-102.6-16.99-151.73 7.24-43.97 10.78-58.49-11.66-97.19 3.95-8.01 9.59-20.37 14.15-27.65 11.66-1.37 22.43-3.19 33.99-5.15m15.85-385.96c2.03-41.26 9.23-92.24 41.67-121.463a95.7 95.7 0 0 1 36.08-20.502c35.46-11.206 158.85-19.917 197.47-15.991-112.48 22.121-147.89 64.116-160.99 177.396-.49 5.94-1.03 8.89-2.23 14.61-.37-9.51-.86-23.94.42-33.39 1.92-41.69 16.4-94.91 48.24-124.091 12.57-11.518 21.04-14.714 34.89-22.666-36.39 4.45-63.85 14.518-87.82 43.847-21.01 25.7-31.45 76.29-31.3 109.47.1 2.68.89 16.3-1.15 17.57-1.24-.81-.72-5.53-.6-6.67-2.6-60.09-.43-123.77 59.38-154.93l-3.51-1.845c-34.98 10.042-48.14 14.224-67.02 48.275-12.57 22.66-17.62 43.49-22.46 69.01l-2.01-3.36c4.13-41.31 11.53-73.56 42.5-102.976-36.19 17.896-53.65 40.266-67.2 78.806-4.19 11.93-10.58 36.3-12.15 49.38z"/><path fill="#a7acb4" d="M1372.89 1117.98c.18 3.49-1.05 18.26 1.81 18.78-.49 5.94-1.03 8.89-2.23 14.61-.37-9.51-.86-23.94.42-33.39m-37.74 17.46c.67-3.71 1.02-7.18 1.75-10.9.1 2.68.89 16.3-1.15 17.57-1.24-.81-.72-5.53-.6-6.67"/><path fill="#ebeaea" d="m1391.02 978.665 4.95-1.068c.74-.159 1.8-.446 2.47.046.11.909-3.36 2.533-3.91 2.867z"/><path fill="#465865" d="M581.012 958.014c32.534-.499 67.847 1.955 100.36 5.036 38.443 3.643 84.315 7.022 113.339 35.247 27.192 26.443 41.146 79.683 40.407 116.603-.403 4.09.208 6.38-1.757 9.89a264.5 264.5 0 0 0-13.459-56.67c-10.813-29.81-30.019-61.35-59.696-75.293l-1.168 2.153c25.646 22.88 34.215 60.31 37.448 93.2-.714 3.04-.655 3.09-2.163 5.8-4.826-25.44-10.048-45.43-22.509-68.4-19.082-35.19-38.355-42.205-76.369-49.591 15.244 8.451 26.932 14.508 38.214 28.071 24.346 29.26 28.9 68.35 28.208 105.11-.134 7.09-.986 15.22-.843 22.22-.79 2.32-1.444 4.28-2.081 6.64.356-36.66-4.213-85.15-25.06-116.47-21.111-31.706-51.727-43.193-87.264-50.265l-.614 2.66c57.259 22.637 75.951 92.785 78.91 148.385.547 10.28-.341 20.85.151 30.95-.054 2 .103 5.54-1.265 7.17-.936.19-.913-1.94-1-2.45 2.341-32.01-13.041-96.73-29.085-125.12-25.447-45.039-67.484-59.003-114.319-72.421.116-1.427.52-1.56 1.615-2.455"/><path fill="#c6c9cd" d="M759.038 994.98c-.733-.532-4.717-3.035-4.497-4.197 1.198-.857 4.565 1.443 5.665 2.044zm-113.033-21.025c-.902-.321-4.257-1.01-4.534-2.339.94-1.096 3.908-.474 5.148-.321zm76.796 184.055c.699-1.98 1.24-2.83 2.265-4.72-.054 2 .103 5.54-1.265 7.17-.936.19-.913-1.94-1-2.45"/><path fill="#465865" d="M1461.47 1431.67c-.24 7.75-.25 24.42-1.08 31.15-8.09 2.98-11.8 3.45-20.4 4.98l-12.95 2.32c-12.84 2.32-25.78 4.8-38.59 7.25a4569 4569 0 0 1-174.14 27c11.5-15.89 20.56-26.77 34.12-40.83 14.21-2.09 29.59-3.46 43.96-5.19 46.88-5.67 93.11-13.21 139.68-20.85 9.93-1.27 19.69-3.47 29.4-5.83"/><path fill="#cb7d38" d="M1216.05 1477.91c1.25-2.43 1.07-2.57 3.25-4.11.41 3.02.04 5.43-.23 8.44-.03.02 18.92-31.25 22.28-36.05l2.6.74c.61 2.95.61 3.97-1.47 7.14-2.48 2.97-5.27 7.63-7.73 11.03-7.18 8.63-15.63 29.87-21.16 32.95l-.55-2.05-3.17-1.32c-4.4 10.16-7.23 20.23-11.05 30.57-6.98 18.91-14.9 38.84-20.15 58.3-1.07-1.02-2.14-2.05-3.19-3.09l-1.08.51c-2.82 11.8-3.46 22.4-5.58 34.02-1.46-5.17-2.97-10.26-4.15-15.5-3.21 16.7-3.82 41.69-3.48 58.59l-3.16.66-2.42-3.91-.93.15c-1.48 12.87-.21 31.8.64 44.71 2.98 44.99 12.63 88.91 34.21 128.85 7.23 13.39 16.34 24.68 23.8 37.76 5.64 10.33 5.22 24.63-4.59 32.32-9.78 7.67-23.93 5.63-34.39.04-15.51-7.48-20.59-17.2-27.16-32.03l3.74 17.44c-14.51-17.5-23.36-38.06-22.94-61.1-.86-2.71-.92-2.68-2.52-5.06-1.99 4.99-2.79 10.83-3.78 16.17-6.23-13.32-8.69-20.18-9.77-35-1.31-6.36-1.19-15.17-.74-21.7l-2.65-3.49c.65-1.58 1.3-3.06 1.98-4.62-1.16-3.15-1.97-3.56-.76-6.59l.21-3.05 2.41.54c3.64-6.3 5.61-8.36 11.5-12.67.04-6.04-.26-10.96 1.62-16.76l1.06-.96c1.58 5.38 3.03 20.77.4 25.65-2.56-1.31-2.28-1.91-4.06-4.77-8.8 4.11-2.8 49.95-1.03 59.25 4.04-9.57 7.11-17.02 12.21-26.15-.14 23.18-.37 48.53 9.74 69.95.15-11.32.12-15.92 3.54-26.8 1.38 1.47 1.67 1.62 2.61 3.17.28 14.53 1.93 25.53 10.97 37.47 7.05 10.43 33.17 21.12 43.57 11.71 11.14-10.06-13.13-42.04-18.83-52.01-4.71-8.37-8.95-16.99-12.72-25.82-17.6-40.95-24.28-88.3-23.64-132.73.13-9.34.51-18.59.21-27.93.92-.55 2.21-1.27 3.08-1.91 1.08 3.56 1.25 4.85 3.47 7.91 1.09-1.07 2.63-36.65 3.15-42.02.94-9.7 2.41-19.34 4.41-28.87 2.09.14 2.43.24 4.47.7a336 336 0 0 1 18.34-55.44l1.94 2.07c-2.73 8.15-4.66 15.03-6.84 23.37l2.23 2.67c2.09-12.96 24.25-59.54 32.28-71.34"/><path fill="#d4a67c" d="M1110.51 1769.27c-1.16-3.15-1.97-3.56-.76-6.59l1.15.51c-.15 5.03 1.69 5.93 1.19 11.31-.75 8.07.11 16.52-.17 24.58-1.31-6.36-1.19-15.17-.74-21.7l-2.65-3.49c.65-1.58 1.3-3.06 1.98-4.62"/><path fill="#ebeaea" d="M1110.51 1769.27c.7 3.67.63 4.28.67 8.11l-2.65-3.49c.65-1.58 1.3-3.06 1.98-4.62m53.12-193.39c2.09.14 2.43.24 4.47.7-.24 1.29-.97 6.79-1.69 7.47-.9-.39-2.11-6.59-2.78-8.17m46.24-81.2c1.46-2.99 1.53-5.17 4.57-6.28-.42 3.2-.47 4.53-1.4 7.6zm-84.4 323.23c.28-.96 1.27-4.17 1.95-4.23 1.32-.1.59 8.68.57 9.29-.86-2.71-.92-2.68-2.52-5.06"/><path fill="#e7cbb8" d="m1181.54 1546.58 2.23 2.67c-.43.61-2.11 3.74-3.03 3.32-.5-.92.59-4.88.8-5.99"/><path fill="#ebeaea" d="m1109.96 1759.63 2.41.54c-.47 1.02-.96 2.02-1.47 3.02l-1.15-.51z"/><path fill="#d62123" d="m951.181 1287.52 5.102 1.13c3.017 2.06 4.487 3.56 7.877 4.44l.599 1.68c-20.643 23.87-45.213 34.69-76.842 33.87 12.106 22.21 8.794 45.03 1.854 68.52a292 292 0 0 1-14.924 38.9c-.548-3.79-.539-7.54-3.15-10.14-6.543-1.19-11.58 5.22-20.594 8.78 14.006-23.1 32.967-54.9 34.002-82.65-.127-2.29.729-8.37-1.676-8.7a99 99 0 0 1-2.13 6.43c-4.237 11.29-14.136 28.95-25.658 33.73a18.22 18.22 0 0 1-14.819-.35 18.5 18.5 0 0 1-9.586-10.46c-8.046-22.27 23.391-42.6 41.001-48.79-15.394-4.54-22.642-7.81-36.128-16.44-1.132-1.76-1.152-1.85-1.139-3.89 3.483-2.58 4.543-3.85 8.896-4.42 2.523.39 2.535.68 4.903.28l-.005 2.36c25.799 21.34 72.866 11.95 98.217-4.81 2.505-1.65 5.218-3.38 5.749-6.29l-2.233-1.69z"/><path fill="#eaadbd" d="M883.429 1343.35c.422-5.12.628-6.99 2.241-11.66.197 7.14.775 13.36-.565 20.36-.127-2.29.729-8.37-1.676-8.7"/><path fill="#fff" d="M872.852 1333.11c.066 10.28-16.839 35.91-26.251 39.4l-1.584.62c-5.291-13.82 17.252-33.37 27.835-40.02"/><path fill="#465865" d="M1354.48 468.973c-8.69 24.153-19.68 48.405-29.07 72.456-37.88 97.053-66.24 203.16-79.92 306.485a1959 1959 0 0 0-9.32 85.437c-1.11 13.125-1.54 28.238-2.88 40.882-.23-3.663 1.18-9.507-2.15-10.05-.71-32.19 2.88-77.903 6.38-110.294 13.73-127.302 45.14-277.122 116.96-384.916m-670.512 43.01c11.832 18.528 27.688 42.826 37.246 62.111 57.459 115.942 81.496 265.189 89.056 392.757a448 448 0 0 0-1.717 5.174 1565 1565 0 0 0-41.594-237.672c-16.293-63.849-35.838-124.618-65.589-183.725-6.37-12.655-12.534-25.561-18.733-38.308zm717.932-5.915 1.52 2.391c-24.37 54.192-48.66 109.279-65.34 166.422-25.08 85.901-46.52 177.814-54.36 266.978l-1.91-.858c-.09-23.313 6.07-70.706 9.3-94.335 15.54-113.547 46.7-243.497 110.79-340.598"/><path fill="#c57335" d="M1205.02 1119.25c16.43-1.01 34.85 4.56 50.04 10.45-4.17 1.26-8.1 2.52-12.36 3.44 8.83 6.47 19.89 10.58 29.39 16.41 24.35 14.96 53.08 40.09 67.99 64.62l-15.3-6.45c9.68 13.46 32.74 49.88 34.14 65.36l-1.05.85c-6.27-4.15-11.01-11.76-15.5-17.93 6.45 15.42 12.87 31.05 13.7 47.98.48 9.72 2.43 35.66-5.03 42.53l-1.91-.15c-1.13-1.6-2.17-3.09-3.25-4.72 1.3-1.7 1.31-2.09 3.41-2.54 7.86-26.18-12.65-79.09-25.24-101.86l12.01 6.95c-7.02-15.24-19.94-34.25-31.63-46.16-1.86-1.9-3.85-3.8-3.78-5.98 4.75-.64 9.48 2.57 13.23 5.05l1.61-1.41c-35.05-31.17-58.35-42.18-101.21-58.77 6.22-3.24 11.81-5.46 18.3-8.1-5.73-1.25-30.75-6.14-34.23-8 2.27-.59 4.4-1 6.67-1.57"/><path fill="#e7cbb8" d="M1315.49 1195.69c.45.38 5.96 4.65 4.96 5.57-.99.15-3.09-1.55-3.66-1.96-.98-.71-1.95-1.45-2.91-2.2z"/><path fill="#465865" d="M739.779 510.623c17.061 30.194 33.491 61.054 46.186 93.372 49.529 126.095 74.393 262.681 74.095 397.975l-.23 3.17-.563 1.02.344.67-.109.27c-.565-2.56-.723-4.82-1.404-7.588-.208-53.159-9.821-114.705-19.325-166.965-15.753-86.625-37.493-172.06-70.382-253.841-9.482-23.578-17.292-43.986-29.615-66.546z"/><path fill="#c57335" d="M1147.73 1416.2c1.72 4.04 3.11 5.18 2.34 8.57-3.58.88-7.48-.67-11.11-1.41-17.65-3.61-35.71-5.58-53.66-7.01-28.69-2.3-57.44-3.74-86.211-4.3-15.545-.2-119.284 6.66-74.44-31.8 26.843-23.01 88.821-16.99 122.521-14.01-4.2 2.91-6.06 1.51-11.23 2.62-29.27 1.57-59.642.07-87.885 8.47-7.429 2.21-28.072 13-28.77 21.49 5.957 5.83 11.444 2.23 14.901-4.08 4.6-8.39 17.019-11.34 25.775-13.33-11.118 6.59-19.09 10.64-26.073 21.98 6.211 1.11 10.459 1.83 16.779 2.34 5.548-9.77 10.847-12.09 20.635-17.05-6.557 6.95-10.916 8.26-16.285 16.45 62.903-3.06 124.823-.43 186.243 14.41.83.2 1.89-.27 2.66-.56 1.15-2.73.64-1.57 0-5.32.27-1.05.28-1.84 1.14-2.45 2.58-.21-.58 2.89 2.67 4.99"/><path fill="#cb7d38" d="m1244.51 1398.52.95 1.79c-33.95 32.39-75.47 79.41-101.57 118.52l17.51-12c-13.12 19.33-25.91 40.89-34.62 62.64l9.11-10.28 2.57.84c-14.95 26.88-23.83 57.97-28.19 88.28 3.23-4.8 6.39-9.82 10.26-14.1 1.22 2.84 1.19 3.35 1.78 6.46-4.98 20.34-12.2 57.1-18.55 75.02-1.79 1.19-2.13 2.5-3.76.94l-.76-.67c4.68-25.36 14.82-50.15 18.85-72.42-6.09 6.97-10.43 15.48-15.57 23.45-2.1-28.18 6.38-49.75 15.78-75.57-2.3 2.08-4.03 4.66-5.9 7.16l-4.24.35c7.62-28.05 17.61-48.27 34.48-71.68-8 5.07-12.73 8.55-19.83 14.72 26.79-52.37 77.28-104.75 121.7-143.45"/><path fill="#465865" d="M832.73 575.989c46.426 111.931 66.234 228.013 74.188 348.486 3.021 45.755 2.407 91.705 1.878 137.545.225 1.82.693 8.82-.344 10.3-.226.11-.086.08-.44.01-1.424-3.05-1.099-24.25-.835-28.89-.144-12.81-.665-28.18-.106-40.77-.203-4.334-.465-8.304-.096-12.642-1.405-9.175-1.628-26.732-2.205-36.755a1361 1361 0 0 0-5.358-61.505c-12.149-103.902-33.678-214.348-67.705-313.54z"/><path fill="#a7acb4" d="M907.177 1043.44c1.6 7.23.986 11.42 1.619 18.58.225 1.82.693 8.82-.344 10.3-.226.11-.086.08-.44.01-1.424-3.05-1.099-24.25-.835-28.89"/><path fill="#333d45" d="M906.975 990.028c3.181 3.057 1.373 8.934.096 12.642-.203-4.334-.465-8.304-.096-12.642"/><path fill="#465865" d="M654.207 1410.17c33.542-35.44 85.316-61.19 129.689-81l.115 2.01c-5.611 2.78-17.127 10.95-22.528 14.74-29.23 20.48-75.461 56.72-92.393 87.53-5.911-.98-22.91-3.42-27.315-5.96l-1.302-.8c3.278-5.67 7.307-11.88 11.742-16.71z"/><path fill="#a7acb4" d="m652.215 1409.98 1.992.19c-4.87 6.55-7.836 10.47-12.432 17.32l-1.302-.8c3.278-5.67 7.307-11.88 11.742-16.71"/><path fill="#c57335" d="M1051.33 1359.76c-4.06-28.51.45-57.58 12.97-83.52 21.66-44.58 73.77-75.64 121.52-51.78l-4.88 2c-61.28-13.23-115.95 45.61-123.99 101.52-1.07 7.43-2.29 14.16-3.05 21.68-.96 3.55-.97 7.07-2.57 10.1"/><path fill="#465865" d="M1355.95 1357.61c36.89 13.03 70.05 31.09 94.75 62.61l1.66-1.03c3.07 4.28 5.97 8.26 9.11 12.48-9.71 2.36-19.47 4.56-29.4 5.83l.26-2.76c-6.46-16.28-62.74-61.27-78.32-73.29z"/><path fill="#ebeaea" d="M1452.36 1419.19c3.07 4.28 5.97 8.26 9.11 12.48-9.71 2.36-19.47 4.56-29.4 5.83l.26-2.76c7.83-.52 18.14-2.99 26.12-4.59-2.59-3.52-5.08-6.52-7.75-9.93z"/><path fill="#c57335" d="m1153.9 1105.82-5.54 9.15c17.13-3.02 39.05-5.16 55.54 1.84.37.82.74 1.63 1.12 2.44-2.27.57-4.4.98-6.67 1.57l-1.44-2.7c-14.49-3.89-42.77.61-56.42 7.45-2.45-3.5.4-7.42 2.15-11-18.04 6.12-26.38 8.37-41.16 20.4 1.12-4.82 2.19-9.66 3.55-14.41-17.07 9.36-28.7 16.11-42.96 29.77-.33-4.14-.7-8.23-.83-12.37-14.69 13-29.09 25.63-42.69 39.79-2.73 2.84-12.64 14.83-14.61 15.63-12.244-18.26 49.7-63.42 64.47-67.21-.24 2.36-1.15 2.64-2.99 4.87 1.75.17 2.99.21 4.68.65a172 172 0 0 1 48.04-19.85c-4.18 3.57-7.75 7.6-11.49 11.63 19.96-7.72 24.12-12.14 47.25-17.65"/><path fill="#ebeaea" d="M1203.9 1116.81c.37.82.74 1.63 1.12 2.44-2.27.57-4.4.98-6.67 1.57l-1.44-2.7c3.65-.19 3.84.2 6.99-1.31"/><path fill="#fff" d="M1065.42 1131.04c1.75.17 2.99.21 4.68.65-2.99 2.82-6.07 5.53-4.68-.65"/><path fill="#c57335" d="M1284.12 1424.75c14.64-15.65 30.94-43.67 40.75-62.49 1.32 5.04 2.75 8.82 4.55 13.66-1.03 6.99-4.36-.37-6.46 10.25-12.39 24.09-26.73 42.28-50.85 56.05 3.29-6.69 5.87-12.07 8.6-18.99-7.25 9.46-33.17 40.09-41.78 45.52l-.19-1.6-3.99-2.05c2.46-3.4 5.25-8.06 7.73-11.03 2.08-3.17 2.08-4.19 1.47-7.14l-2.6-.74c5.71-8.12 12.28-15.23 19.3-22.21l-7.3 18.42c11.7-13.42 31.15-36.07 43.55-47.94-4.35 8.87-8.94 20.96-12.78 30.29"/><path fill="#ebeaea" d="M1234.75 1465.1c2.46-3.4 5.25-8.06 7.73-11.03-2.12 6.04-3.38 6.66-3.74 13.08z"/><path fill="url(#a)" d="m978.373 1167.93 2.093-.63c3.442 3.02 7.284 11.88 9.496 16.16 13.718 26.54 6.306 54.98-5.229 80.92l-.319 2.22c-3.537 2.82-6.237 8.73-8.562 12.9l-.589 2.63c-3.664 2.6-6.451 6.58-9.322 10.14-.138-.03-.275-.06-.416-.07-.432-.04-1.217.77-1.365.89-3.39-.88-4.86-2.38-7.877-4.44 2.963-2.85 5.955-4.69 5.822-8.79-.547-3.48-.14-1.54 4.35-2.26 2.79-4.26 3.837-6.4 5.979-11.05l.91-2.77c9.324-8.92 13.428-47.42 10.925-60.22-1.77-9.05-4.656-18.74-5.509-27.86-.384-2.14-.282-2.04-1.163-3.89.476-1.71.63-2.12.776-3.88"/><path fill="#cb7d38" d="M764.398 1143.76c28.137 8.55 62.206 29.94 77.134 56.06l2.838 5.05-1.45-1.13c-6.922-5.31-10.769-11.56-16.921-17.14-15.521-14.06-33.334-24.84-53.129-31.65 8.658 26.96 18.363 41.77 38.687 60.93-7.622-3.44-13.92-6.8-21.34-10.59 2.042 3.09 18.812 24.73 18.861 23.99-.43.65-1.353.77-2.042.99l-2.595 3.76c-1.178-10.18-10.741-9.85-15.665-20.27-10.518-22.25-20.928-45.42-24.378-70m155.047 52.74c6.781-37.56 19.619-61.95 42.622-91.51l2.032-2.63c10.63 21.29 9.206 36.81 12.386 59.06.86 2.71-.144 5.67 1.888 6.51-.146 1.76-.3 2.17-.776 3.88.881 1.85.779 1.75 1.163 3.89-14.403 15.27-11.096 9.21-9.196-5.68l-2.577-1.38c.628-1.26.771-1.31 1.761-2.56-1.678-1.25-2.746-2.05-4.324-3.46 5.397-16.34 3.705-30.13-2.027-45.96-20.768 23.71-29.267 52.39-42.952 79.84"/><path fill="#e7cbb8" d="M976.485 1161.42c.86 2.71-.144 5.67 1.888 6.51-.146 1.76-.3 2.17-.776 3.88-3.048-.58-1.382-7.64-1.112-10.39"/><path fill="#ebeaea" d="M968.748 1166.08c1.424.71.824 2.34.816 3.94l-2.577-1.38c.628-1.26.771-1.31 1.761-2.56"/><path fill="#c57335" d="M912.832 1164.09c7.351-10.16 10.867-15.82 20.283-24.69-8.586 16.98-16.054 35.05-20.153 53.69-2.372-5.26-5.328-14.69-11.383-16.36-19.324-5.29-39.159 3.49-57.524 6.7-1.215-1.06-1.745-1.56-2.995-2.42 4.491-3.72 10.845-5.77 16.289-8.02 19.877-8.21 33.843-10.73 55.483-8.9m190.928 551.6c6.36-3.27 9.11-6.21 14.34-11.07-6.08 20.71-7.62 33.49-8.14 55.01l-.21 3.05c-1.21 3.03-.4 3.44.76 6.59-.68 1.56-1.33 3.04-1.98 4.62l-.71 1.54c-2.23 4.78-3.57 10.13-5.28 15.19-5.03-25.28-3.67-44.4 3.38-69.07-2.97 2.71-4.31 4.11-6.98 7.03l-1.39 1.5c.47-5.57.94-8.68 1.69-14.12l.76.67c1.63 1.56 1.97.25 3.76-.94m-299.319-481.66 2.595-3.76q.885 5.64 2.078 11.22c2.108 10.31 8.456 27.64 14.788 36.24l1.086 2.52c3.326 4.87 5.126 6.23 8.937 10.41 1.885.49 1.68.4 3.461 1.46.197 2.89 4.215 4.74 6.48 7.04-4.353.57-5.413 1.84-8.896 4.42l-1.294.56c-3.619-2.79-4.624-5.2-8.157-7.47l-.726-2.18c-3.795-4.45-6.463-10.23-9.091-13.19l-.892-2.2c-7.671-15.36-9.115-28.43-10.369-45.07"/><path fill="#cb7d38" d="M1340.3 1323.33c3.04 5.27 5.79 10.71 8.99 15.77-2.1.45-2.11.84-3.41 2.54-.27-.62-.11-1.15-.83-1.13-.48.76-.95 6.66-1.17 7.98-1.97 12.01-3.91 23.92-8.83 35.17-2.13 4.63-3.73 11.09-7.37 14.73-.59.59-1.56.18-1.52-.88.29-8.12 3.23-5.86-3.2-11.34 2.1-10.62 5.43-3.26 6.46-10.25 6.89-2.63 10.3-45.4 10.88-52.59"/><path fill="#465865" d="M1471.66 425.841c-23.44 22.589-38.67 41.175-52.42 71.446l-1.79-.548c10.18-30.326 21.59-53.331 50.97-69.129zM718.79 1194.16c1.642 36.41-.243 52.25-18.749 83.87l-1.866-.04c7.367-17.22 20.624-64.39 18.471-83z"/><path fill="#333d45" d="m1012.59 921.746 1.22-2.939.83.538c.78 14.507-.69 34.449.59 47.672.47 29.661-1.75 66.043-.57 94.273.41 2.19 1.25 21.17-.86 21.71-1.46-1.23-.73-7.41-.5-8.99.77-13.18-.15-36.44-.2-50.59z"/><path fill="#a7acb4" d="M1013.3 1074.01c.27-4.35-.74-10.54 1.36-12.72.41 2.19 1.25 21.17-.86 21.71-1.46-1.23-.73-7.41-.5-8.99"/><path fill="#5a646c" d="m1178.02 936.822 3-4.046c.01 38.73-1.97 77.874-1.15 116.714.15 7 .74 24.15-.34 30.11-1.57-18.22-1.4-37.92-1.61-56.34-.51-28.808-.47-57.627.1-86.438"/><path fill="#465865" d="M1400.42 1235.34c12.31 27.71 10.48 46.71 1.67 74.7l-1.35-.22c4.79-28.77 4.21-43.45-2.26-72.46z"/><path fill="#cb7d38" d="M1320.96 1271.57c1.6.99 2.36 1.4 3.39 3.09 10.85 17.79 12.27 36.42 8.35 56.23-1.28 1.66-1.63.72-1.67-1.28-.37-20.49-4.48-38.53-10.07-58.04"/><path fill="#c57335" d="M896.176 1287.87c-21.809-12.64 2.15-11.27 12.706-11.69 7.677 5.05-7.896 6.34-5.823 16.5l-1.012 1.6c-.933-.37-1.865-.75-2.797-1.13-.838-.73-1.606-1.38-2.404-2.15-.216-1.08-.404-2.07-.67-3.13"/><path fill="#cb7d38" d="M908.882 1276.18c7.677 5.05-7.896 6.34-5.823 16.5l-1.012 1.6c-.933-.37-1.865-.75-2.797-1.13-.838-.73-1.606-1.38-2.404-2.15-.216-1.08-.404-2.07-.67-3.13-.008-1.01-.188-1.83-.346-2.87 4.749-1.55 4.377-1.58 8.046-5.37 1.674-1.12 3.332-2.31 5.006-3.45"/><path fill="#ebeaea" d="M895.83 1285c-3.312-6.85.529-5.68 8.046-5.37-3.669 3.79-3.297 3.82-8.046 5.37"/><path fill="#5a646c" d="M1378.29 1150.35c2.19.26 1.77 7.11 2.53 10.23 1.06 16.04 2.08 31.97 4.67 47.87l-1.73 2.62c-6.63-25.81-8.51-33.4-5.47-60.72"/><path fill="#333d45" d="m1126.01 939.137 3.2-3.526-1.35 70.849c-1.96 10.94-.42 21.79-1.72 32.56-.63-33.47.03-66.504-.13-99.883"/><path fill="#c57335" d="M842.397 1242.4c8.124-.98 17.927-.4 25.788 2.23 8.612 2.88 9.497 7.94 12.853 15.7-6.035-2.74-11.274-7.01-18.038-10.27-6.588-3.18-15.693-4.9-20.603-7.66"/><path fill="#cb7d38" d="M945.329 1224.95c.281.07.562.13.843.2l.332.3c-.514 1.16-15.051 10.25-17.712 12.3-6.242 4.79-9.465 9.36-14.797 14.78-3.222-.68-2.162-4.94-1.166-7.05 5.306-11.24 21.943-15.78 32.5-20.53"/><path fill="#333d45" d="M1070.78 1013.38c.18-2.4-.6-14.926 1.55-14.814.93 1.154.56 22.474.91 26.544.29 4.4.02 58.08-.78 59.99l.02-.25-.4-.29c-1.73-8.04-1.98-60.62-1.3-71.18"/><path fill="#cb7d38" d="M1155.53 1133.18c3.75-.25 19.07-1.19 21.69 1.32-1.03.97-20.72 4.33-24.11 5.18-6.41 1.96-12.32 4.37-18.9 6.32 8.32-7.39 10.31-9.27 21.32-12.82m129.96 65.5c12.52 2.2 26.78 23.12 27.83 35.71-3.5-3.41-6.63-11.01-10.46-15.79-5.81-7.23-11.64-12.7-17.37-19.92"/><path fill="#c57335" d="M811.117 1158.03c8.898 5.32 16.848 10.43 24.232 17.85 1.375 1.38 4.258 6.13 5.711 5.13 1.25.86 1.78 1.36 2.995 2.42-3.622.54-1.649 2.36-2.391 5.18l.189-.06-.233.1c-.319-.27-.637-.53-.956-.8l.26.27c-6.82-6.19-24.447-23.68-29.807-30.09"/><path fill="#6d727c" d="M1231.14 964.183c3.33.543 1.92 6.387 2.15 10.05 1.02 16.389-1.44 34.687-.11 51.247.1 1.16 1.06 10-.35 9.95-2.59-6.21-2.13-61.73-1.69-71.247"/><path fill="#cb7d38" d="M1113.67 1140.06c.45.05 1.14.06 1.54.31l.02.09c-7.96 5.98-26.25 12.5-35.77 16.44-12.63-1.89 33.43-16.63 34.21-16.84m-279.994 164.08 1.294-.56c-.013 2.04.007 2.13 1.139 3.89-18.363 11.74-27.679 24.18-42.075 39.13.635-1.14 1.261-2.27 1.877-3.42 7.436-14.03 35.901-34.79 37.765-39.04m310.244 109.52c-2.52-3.2-.69-5.45 3.57-3.94 13.31 4.71 21.21 10.85 30.5 21.09-8.79-5.59-19.94-14.77-30.26-14.61-3.25-2.1-.09-5.2-2.67-4.99-.86.61-.87 1.4-1.14 2.45"/><path fill="#d3914f" d="M1043.86 1180.65c1.3.4 2.7.63 3.26 2-.31 1.05-22.53 19.74-24.91 21.61-.5.34-1.02.85-1.67.71-2.29-3.67 19.47-21.6 23.32-24.32"/><path fill="#cb7d38" d="M1126.76 1647.03c.2-1.31.16-2.99 1.54-3.46 1.53.84.76 10.42.02 12.59-.09.98-3.58 24.69-6.9 17.75-2.06-4.33 3.59-21.39 5.34-26.88"/><path fill="#d3914f" d="M1126.76 1647.03c.2-1.31.16-2.99 1.54-3.46 1.53.84.76 10.42.02 12.59-.96-5.66 1.36-4.71-1.56-9.13m18.63-79.36c2.2 2.2 1.03 4.12.33 7.31l-1.39 6.04c-1.83 7.66-3.78 14.05-6.97 21.25-4.56-4.43 5.45-29.07 8.03-34.6"/><path fill="#c57335" d="M964.16 1293.09c.148-.12.933-.93 1.365-.89.141.01.278.04.416.07 5.891 2.69 43.059 22.08 42.079 27.27-1.74.27-5.7-3.15-7.22-4.28l-1.415-1.05c-12.158-9.02-21.32-13.12-34.626-19.44z"/><path fill="#cb7d38" d="M975.852 1279.5c20.927 7.26 31.118 10.76 48.908 24.19-20.29-8.68-25.847-14.34-49.497-21.56zm-49.648-4.67c16.429-8.95 28.451-11.03 47.14-11.05l-.91 2.77c-23.696 1.41-24.236 2.41-46.23 8.28"/><path fill="#868c92" d="M1126.14 1039.02c1.3-10.77-.24-21.62 1.72-32.56.57 13.01 1.65 58.32-.39 69.64l-.18.08c-1.86-1.13-1.6-33.07-1.15-37.16"/><path fill="#cb7d38" d="M1261.4 1169.96c11.62 1.31 20.03 7.32 25.66 17.52l1.66 3c-2.04-.93-23.33-17.62-27.32-20.52m-299.295 109.9c-1.584-.16-39.047-1.91-37.044-1.16-.316-.38-.227-.15-.222-.7 2.437-3.84 36.322-1.28 41.616-.4-4.49.72-4.897-1.22-4.35 2.26m94.645-121.97c2.86 2.75-14.19 16.34-17.37 19.28-4.48-6.09 13.44-16.69 17.37-19.28"/><path fill="#c57335" d="M984.733 1264.38c3.19.52 6.562 1.15 9.756 1.75l5 .98c3.721.83 18.201 3.63 22.051 6.12.67.43-1.05 1.41-1.41 1.04-8.21-1.91-16.24-4.23-24.623-5.39-3.775-.53-7.449-1.15-11.093-2.28z"/><path fill="#cb7d38" d="M899.25 1293.15c-7.327 7.35-19.579 14.08-29.852 9.31 15.055-2.42 15.135-.87 27.448-11.46.798.77 1.566 1.42 2.404 2.15"/><path fill="#c57335" d="m787.418 1313.62 3.376-2.36c12.442-8.86 20.084-10.77 33.277-16.45l.722-.32.726 2.18c-.575.25-1.151.5-1.726.76-13.218 4.26-23.723 11.14-36.375 16.19"/><path fill="#d3914f" d="m814.81 1279.1.892 2.2c-11.591 2.31-24.24 7.27-34.866 12.43-1.299.63-1.643 1.21-3.127 1.57-.077-.09-.154-.18-.231-.26.069-6.25 31.575-12.99 37.332-15.94m88.249 13.58c9.287 2.26 13.036 6.76 24.441.19.309-.18.742-.41 1.117-.37.481.37.416.41.519 1-1.383 3.01-9.394 4.84-12.358 5.73-7.483-1.83-7.463-1.4-14.731-4.95z"/><path fill="#cb7d38" d="M840.766 1276.13c8.79-.46 18.09.11 26.753 1.71.967.47 1.203.43 1.633 1.27-.411 1.58-6.328.35-7.234.21-7.302-.85-15.432-.93-22.85-1.51z"/><path fill="#e7cbb8" d="M867.519 1277.84c.967.47 1.203.43 1.633 1.27-.411 1.58-6.328.35-7.234.21 1.863-.5 3.73-1 5.601-1.48"/><path fill="#a7acb4" d="M858.098 999.512c.681 2.768.839 5.028 1.404 7.588l.109-.27-.344-.67.563-1.02.23-3.17c.403 3.16 1.347 29.41-.583 30.84l-.206-.09c-1.053-1.71-1.319-30-1.173-33.208"/><path fill="#cb7d38" d="M833.925 1290.66c3.052-.59 4.37-.67 9.067-1.72 5.359-1.2 15.65-5.27 21.544-2.51.228.11.206.55-.019.64-3.693 1.37-7.876.89-12.027 1.82-5.057 1.12-10.084 2.38-15.104 3.23-1.781-1.06-1.576-.97-3.461-1.46"/><path fill="#d3914f" d="M964.424 1162.62c1.578 1.41 2.646 2.21 4.324 3.46-.99 1.25-1.133 1.3-1.761 2.56-3.382 6.11-5.37 8.3-9.79 13.53l1.115-3.32q2.248-6.93 5.07-13.65z"/><path fill="#6d727c" d="M1283.72 941.859c-.54 3.558-1.62 29.042-2.6 29.793-.31.043-.19.074-.4-.051-1.11-3.161.16-26.498 1.09-30.6z"/><path fill="#cb7d38" d="M1051.33 1359.76c1.6-3.03 1.61-6.55 2.57-10.1l.23 19.4c-6.07-.03-12.12 0-18.19-.2 5.17-1.11 7.03.29 11.23-2.62 6.29.96 4.05-.52 4.16-6.48"/><path fill="#5a646c" d="M796.486 1088.18c1.001 7.67.539 17.06.358 24.85.079 1.2.507 3.34-.868 3.74-1.275-.93-.942-11.3-.921-13.3-.12-3.35-.457-6.18-.732-9.49 1.508-2.71 1.449-2.76 2.163-5.8"/><path fill="#a7acb4" d="M795.055 1103.47c.981 3.84 1.184 5.58 1.789 9.56.079 1.2.507 3.34-.868 3.74-1.275-.93-.942-11.3-.921-13.3"/><path fill="#d4a67c" d="M848.769 1299.44c2.273-1.81 18.156-11.66 19.12-8.96-.424 1.51-15.434 8.48-19.125 11.32z"/><path fill="#6d727c" d="M1299.06 1111.19c-.03-6.71-.36-11.85.47-18.6l2.01 3.36c-.27 2.31-.46 4.58-.47 6.92-.02 1.27-.3 12.34-1.85 11.84-.62-1.51-.39-1.55-.16-3.52"/><path fill="#c6c9cd" d="M1301.07 1102.87c-.02 1.27-.3 12.34-1.85 11.84-.62-1.51-.39-1.55-.16-3.52.65-3.33 1.03-5.13 2.01-8.32m-38.39 14.93c-.46 5.78-2.39 17.17-1.8 22.21l-.44.41-.29-.42c.05-.61.17-1.15 0-1.49-1.23-2.43-.16-18.84.32-21.19z"/><path fill="#d3914f" d="M950.497 1289.01c-5.457-.83-10.37-2.82-15.911-1.56-.376.09-4.04.56-3.253-.79 7.018-3.62 12.946-.86 19.848.86z"/><path fill="#868c92" d="M1378.29 1150.35c.17-2.11.22-12.92 1.88-13.7 1.4 1.12.71 20.62.65 23.93-.76-3.12-.34-9.97-2.53-10.23"/><path fill="#6d727c" d="M835.118 1114.9c1.074 7.22.748 13.91 1.309 21.19l-1.658 3.03c-.586-4.5-1.184-9.83-1.408-14.33 1.965-3.51 1.354-5.8 1.757-9.89"/><path fill="#d4a67c" d="M1244.51 1398.52c4.47-5.05 11.73-10.65 17.73-13.86-5.37 5.22-11.05 10.91-16.78 15.65z"/><path fill="#6d727c" d="M810.27 966.851c1.155 8.451.746 15.469.578 23.918l-1.213-5.767c-.871-4.304-.536-8.544-1.082-12.977a448 448 0 0 1 1.717-5.174"/><path fill="#c6c9cd" d="M783.896 1329.17c1.466-1.12 14.9-9.52 15.856-6.68-.06.1-13.926 7.47-15.741 8.69z"/><path fill="#d4a67c" d="M823.902 1277.73c5.524-1.29 11.215-1.4 16.864-1.6l-1.698 1.68c-4.715.27-9.574 1-14.08 2.44z"/><path fill="#868c92" d="M579.397 960.469c-2.055-.099-9.672-.617-11.05-1.97l.118-.183c1.188-.539 10.586-.29 12.547-.302-1.095.895-1.499 1.028-1.615 2.455m806.093 247.981c.76 3.92 1.66 7.81 2.69 11.66.19.69.37 1.3.14 1.96-1.77.02-4.12-9.59-4.56-11z"/><path fill="#6d727c" d="m1417.45 496.739 1.79.548c-.91 2.2-3.98 12.052-4.71 12.757l-.11-.085c-.71-2.612 1.36-9.495 2.48-11.965z"/><path fill="#cb7d38" d="M1185.82 1224.46c1.23.54 4.4 2.23 4.91 3.29 1.11 2.31-8.77-1.06-9.79-1.29z"/><path fill="#868c92" d="M756.945 955.219c.374 10.508-2.22 11.344-2.685.679 1.515-.125 1.443-.016 2.685-.679"/><path fill="#d3914f" d="M1120.53 1634.21c7.13-10.02 2.52 3.07 1.78 6.46-.59-3.11-.56-3.62-1.78-6.46"/><path fill="#a7acb4" d="m738.776 512.16-.182-.309c-.897-1.488-6.06-10.723-5.996-12.174l.067-.043.409.333-.203-.409c1.876 2.148 5.965 8.499 6.908 11.065z"/><path fill="#868c92" d="M831.707 578.228c-.767-2.131-4.393-10.304-4.243-11.811l.388-.115c1.371.742 4.353 7.997 4.878 9.687z"/><path fill="#5a646c" d="M1354.01 1361.45c-8.7-6.21-6.6-5.32 1.94-3.84z"/><path fill="#868c92" d="M817.464 555.439c.35 1.44 3.526 10.35 2.115 11.154-1.506-.81-2.856-7.521-3.402-9.291z"/><path fill="#6d727c" d="m1359.74 448.804 1 1.976c-.92 2.015-2.02 3.25-2.69 4.735l-.74 1.641-1.33.124-.08.639.55.454c-.58.22-.57.415-1.06.056-.37-1.565 3.47-8.137 4.35-9.625"/><path fill="#868c92" d="M683.122 479.798c.81 1.1 5.603 7.386 5.128 8.614-1.569.171-5.75-6.719-6.636-8.127z"/><path fill="#c6c9cd" d="M836.427 1136.09c.438 1.59 1.261 7.5-.716 8.27-1.319-.25-.933-4.46-.942-5.24z"/><path fill="#d3914f" d="m1147.35 1826.91.44-1.51c.29-1.07.58-2.92 1.68-3.49.88 1.07.54 6.74.49 8.17-.94-1.55-1.23-1.7-2.61-3.17"/><path fill="#c6c9cd" d="M682.637 512.32c-1.156-1.286-4.283-5.322-3.364-6.961 1.446-.414 4.099 5.354 4.695 6.624z"/><path fill="#d4a67c" d="M1186.44 1521.14c.59-1.44 1.74-5.37 3.02-6.17 1.46.74-.82 7.28-1.08 8.24z"/><path fill="#a7acb4" d="M758.943 1138.03c.637-2.36 1.291-4.32 2.081-6.64 0 .86.465 11.28-1.635 10.3-.618-1.36-.428-2.1-.446-3.66"/><path fill="#868c92" d="M1398.48 1237.36c-.15-.81-.3-1.63-.46-2.45-.19-.94-1.52-5.09-.46-6.06l.03.09-.04.28.25-.18 1.01 1.73-.24-.62c.65 1.72 1.41 3.39 1.85 5.19z"/><path fill="#d3914f" d="M1161.19 1658.08c.09.73.98 5.43.13 6.09-1.03-.17-2.8-4.47-3.29-5.43z"/><path fill="#5a646c" d="M1401.9 506.068c.73-1.032 2.33-3.858 3.48-4.39 1.44.349-1.72 6.243-1.96 6.781z"/><path fill="#d3914f" d="M1175.48 1580.46c1.05 1.04 2.12 2.07 3.19 3.09-2.72 8.88-2.71.82-3.19-3.09m-39.59-21.27c2.73-4.33 5.7-6.09 2.57.84z"/><path fill="#868c92" d="m1469.45 407.543 1.82.933c-1.06.902-4.26 3.821-5.66 3.662-1.04-1.318 3.29-4.198 3.84-4.595M698.175 1277.99l1.866.04c-.496 1.1-2.305 5.33-3.545 5.52-1.047-.78.378-2.97.794-3.77z"/><path fill="#d3914f" d="M1149.52 1640.77c.35-2.56.26-7.14 2.59-3.38l.49 1.47c-.87.64-2.16 1.36-3.08 1.91"/><path fill="#a7acb4" d="M1293.66 1498.64c-.45-.08-3.66-.54-4.03-1.2.64-1.42 5.82-1.53 7.26-1.66a174 174 0 0 1-3.23 2.86m-338.901 17.17c.575.04 6.211-.01 6.256 1.41-.441.85-2.059.84-2.745.96-1.181-.78-2.348-1.55-3.511-2.37"/><path fill="#cb7d38" d="m1108.16 1598.93 4.24-.35c-4.09 6.24-3.25 5.2-4.24.35"/><path fill="#868c92" d="M716.646 1194.99c.043-.38.013-4.89 1.531-4.59.864.74.609 2.82.613 3.76z"/><path fill="#a7acb4" d="m1400.74 1309.82 1.35.22c-.15.41-1.21 4.01-1.69 4.23l-.15-.08c-.56-1.16.18-3.27.49-4.37"/><metadata><recraft-signature>{&quot;signed_by&quot;: &quot;recraft&quot;, &quot;signature_b64&quot;: &quot;HDNaSrK3EGX6Pfq8YY48EBBt3jD69GyEbzfLL7ZasCv/lxf/uqcY+Y4RBLozbbs3Mw+h3Wha4Bqn/UniXwI8AQ==&quot;, &quot;signing_algo&quot;: &quot;Ed25519&quot;, &quot;generation_timestamp&quot;: 1777253445, &quot;identifier&quot;: &quot;c059594a-9ab5-4f35-838e-e47f59bedb48&quot;}</recraft-signature></metadata></svg>