<svg xmlns="http://www.w3.org/2000/svg" width="1024" height="1024" preserveAspectRatio="none" style="display:block" viewBox="0 0 2048 2048"><defs><linearGradient id="a" x1="894.493" x2="713.173" y1="806.951" y2="823.966" gradientUnits="userSpaceOnUse"><stop class="stop0" offset="0" stop-color="#070605"/><stop class="stop1" offset="1" stop-color="#2b2727"/></linearGradient></defs><path fill="#272b30" d="M1160.61 423.884c3.58-10.49 7.98-20.405 14.73-29.264 19.17-25.161 54.72-38.759 84.89-27.394 4.83.768 13.31 6.066 17.52 8.954 27.22 18.71 34.78 53.678 13.96 80.486-7.2 7.343-14.19 12.699-24.57 14.527-7.15 2.546-12.09 2.029-19.27.25-11.7-2.897-19.95-9.198-23.38-21.052-4.35-14.055 6.16-27.048 20.62-28.485l1.15-2.528c-10.55-5.205-18.16-6.005-29.53-2.572-9.45 2.85-20.33 14.365-23.17 23.445-19.5 62.304 12.98 167.964 37.75 224.355 39.95 90.965 99.57 158.588 96.88 262.606-.68 28.92-6.32 57.51-16.66 84.528-14.47 36.72-39.34 71.68-70.89 95.78-14.78 11.3-36 22.75-52.34 31.75 4.21 3.33 9.14 6.88 12.65 10.84l2.24 1.06.77 2.77-2.83 1.38c-34.29-31.55-85.76-39.03-130.31-44.15-15.95-.74-31.78-2.42-47.82-2.09-4.62.1-10 .19-14.57-.12-7.43.51-26.872 2.17-33.413 1.85-29.362-3.95-85.894 9.99-110.64 25.57-1.995 1.53-1.918 2.14-3.49 1.99-30.098-14.61-53.348-28.53-76.575-53.28-64.856-69.12-77.766-174.861-44.092-261.674 22.388-57.718 58.352-108.642 82.136-165.792 22.529-54.329 39.56-116.506 40.609-175.514-.054-5.389-.203-12.017.022-17.325-1.252-8.353-2.401-14.503-4.321-22.717-5.221-12.41-9.916-20.121-23.108-25.294a35.35 35.35 0 0 0-26.971.483c-2.826 1.239-6.116 2.996-8.92 4.42 2.784.181 9.318-.091 11.333.824 33.681 15.298 13.618 53.165-18.496 50.256-9.01-.816-14.579-2.983-22.085-6.853-30.917-20.285-28.56-64.72-1.185-86.639 7.931-6.351 14.975-9.856 24.577-12.912 19.345-4.016 32.259-3.734 50.899 3.875 33.473 13.665 54.087 57.771 54.466 92.514 1.487 4.566 1.869 16.61.807 21.222q9.602.189 19.206.082c.007-5.913-.393-35.892 1.117-39.083 2.765 6.714.245 29.776 1.966 39.192 8.229-.218 28.988-.478 36.595.37.121-5.472-.886-41.98 1.519-43.52 1.602 1.189.633 38.634.547 43.432 13.775-.783 28.866.035 42.787-.46.2-7.032-1-36.511 1.79-40.161 1.04 10.368.6 29.075.59 40.072 9.6.889 27.84.304 37.87.334-.13-13.759-.68-26.211 1.3-39.84 1.07 12.951.7 27.075.67 40.144 11.24.435 25.63-.201 37.13-.446-.02-13.147.67-27.414.21-40.416 4.11 4.73 2.18 32.508 2.1 40.531 13.56.187 27.12.175 40.67-.035-.04-7.352-.59-34.494 1.17-40.492l.31.199c1.01 12.975.64 27.108.58 40.213 7.89.105 14.67.157 22.52-.285-2.46-14.191 3.71-47.043 9.98-59.911"/><path fill="#515a65" d="M1160.61 423.884c3.58-10.49 7.98-20.405 14.73-29.264 19.17-25.161 54.72-38.759 84.89-27.394 4.83.768 13.31 6.066 17.52 8.954 27.22 18.71 34.78 53.678 13.96 80.486-7.2 7.343-14.19 12.699-24.57 14.527-7.15 2.546-12.09 2.029-19.27.25-11.7-2.897-19.95-9.198-23.38-21.052-4.35-14.055 6.16-27.048 20.62-28.485l1.15-2.528c-10.55-5.205-18.16-6.005-29.53-2.572-9.45 2.85-20.33 14.365-23.17 23.445-19.5 62.304 12.98 167.964 37.75 224.355 39.95 90.965 99.57 158.588 96.88 262.606-.68 28.92-6.32 57.51-16.66 84.528-14.47 36.72-39.34 71.68-70.89 95.78-14.78 11.3-36 22.75-52.34 31.75 4.21 3.33 9.14 6.88 12.65 10.84l2.24 1.06.77 2.77-2.83 1.38c-34.29-31.55-85.76-39.03-130.31-44.15-15.95-.74-31.78-2.42-47.82-2.09-4.62.1-10 .19-14.57-.12-7.43.51-26.872 2.17-33.413 1.85-29.362-3.95-85.894 9.99-110.64 25.57-1.995 1.53-1.918 2.14-3.49 1.99-30.098-14.61-53.348-28.53-76.575-53.28-64.856-69.12-77.766-174.861-44.092-261.674 22.388-57.718 58.352-108.642 82.136-165.792 22.529-54.329 39.56-116.506 40.609-175.514-.054-5.389-.203-12.017.022-17.325-1.252-8.353-2.401-14.503-4.321-22.717-5.221-12.41-9.916-20.121-23.108-25.294a35.35 35.35 0 0 0-26.971.483c-2.826 1.239-6.116 2.996-8.92 4.42 2.784.181 9.318-.091 11.333.824 33.681 15.298 13.618 53.165-18.496 50.256-9.01-.816-14.579-2.983-22.085-6.853-30.917-20.285-28.56-64.72-1.185-86.639 7.931-6.351 14.975-9.856 24.577-12.912 19.345-4.016 32.259-3.734 50.899 3.875 33.473 13.665 54.087 57.771 54.466 92.514 1.487 4.566 1.869 16.61.807 21.222-2.289 3.701-3.598 29.938-2.551 34.683l.845.439c1.011 5.752-2.649 35.029-4.848 39.61-1.962 16.542-5.588 34.058-9.181 50.318l-2.492 10.97c-.643 2.779-1.395 5.672-2.069 8.46l-1.994 8.002-1.014 3.99-.418 1.58-2.593 9.97a115 115 0 0 1-2.084 7.146l-.225 1.022c-5.668 24.975-16.079 54.236-25.161 78.172-29.141 76.796-55.611 176.722-8.441 251.69a176.8 176.8 0 0 0 31.36 37.574c2.123 1.9 13.605 10.85 14.177 11.64.035.42.046 1.62.452 1.92 73.43 53.54 192.354 51.88 270.144 7.95 8.28-4.67 29.24-18.5 30.99-25.81 1.52-2.63 17.7-19.15 20.87-23.5 5.23-7.179 8.42-12.42 12.58-20.23 23.28-43.771 22.11-81.533 17.99-128.507-3.11-17.7-6.9-33.749-10.74-51.201-.63-1.224-1.63-5.089-2.07-6.613-4.44-12.814-8.02-26.41-12.82-39.435-1.81-4.927-8.69-23.656-9.56-27.84-14.02-26.419-33.61-105.327-38.67-134.773 1.77-4.971-2.11-22.17-3.25-28.991a420 420 0 0 1-5.38-43.738c-.68-10.59-.65-23.274-1.6-33.445l-1.6-1.222c-2.46-14.191 3.71-47.043 9.98-59.911"/><path fill="#fff" d="M1185.4 473.551c2.52-14.916-.48-26.251 8.7-40.052 15.02-22.57 36.33-27.929 58.9-12.903-1.06 2.462-.9 2.516-2.84 4.206l-1.72-1.211 2.48-.674-.85-1.241c-1.3-.813-2.46-1.558-3.81-2.298-10.55-5.205-18.16-6.005-29.53-2.572-9.45 2.85-20.33 14.365-23.17 23.445-19.5 62.304 12.98 167.964 37.75 224.355 39.95 90.965 99.57 158.588 96.88 262.606-.68 28.92-6.32 57.51-16.66 84.528-14.47 36.72-39.34 71.68-70.89 95.78-14.78 11.3-36 22.75-52.34 31.75 4.21 3.33 9.14 6.88 12.65 10.84l2.24 1.06.77 2.77-2.83 1.38c-34.29-31.55-85.76-39.03-130.31-44.15l.15-2.37c39.1 1.15 77 13.06 112.84 27.71 12.3-7.14 52.07-27.05 58.83-37.02.91-2.4 2.3-4.03 3.99-5.88 77.47-84.19 82.51-199.689 35.64-300.088-17.39-39.558-38.83-77.132-56.12-116.74-23.4-53.635-36.87-105.39-42.52-163.404-.75-5.222-.61-10.06-1.1-15.391.64-2.353.05-3.396 2.28-3.717.37-6.296-.41-14.663.59-20.719"/><path fill="#272b30" d="M1185.4 473.551c2.52-14.916-.48-26.251 8.7-40.052 15.02-22.57 36.33-27.929 58.9-12.903-1.06 2.462-.9 2.516-2.84 4.206l-1.72-1.211 2.48-.674-.85-1.241c-1.3-.813-2.46-1.558-3.81-2.298-10.55-5.205-18.16-6.005-29.53-2.572-9.45 2.85-20.33 14.365-23.17 23.445-19.5 62.304 12.98 167.964 37.75 224.355 39.95 90.965 99.57 158.588 96.88 262.606-.68 28.92-6.32 57.51-16.66 84.528-14.47 36.72-39.34 71.68-70.89 95.78-14.78 11.3-36 22.75-52.34 31.75 4.21 3.33 9.14 6.88 12.65 10.84l2.24 1.06.77 2.77-2.83 1.38c-34.29-31.55-85.76-39.03-130.31-44.15l.15-2.37c39.1 1.15 77 13.06 112.84 27.71 12.3-7.14 52.07-27.05 58.83-37.02 43.46-38.42 65.3-78.11 76.41-134.889 22.26-113.818-45.58-193.798-87.99-290.945a564 564 0 0 1-45.35-163.665l-2.08 3.387c-.75-5.222-.61-10.06-1.1-15.391.64-2.353.05-3.396 2.28-3.717.37-6.296-.41-14.663.59-20.719"/><path fill="#c7c9cd" d="M1182.53 497.987c.64-2.353.05-3.396 2.28-3.717.2 5.06.79 11.018.9 15.721l-2.08 3.387c-.75-5.222-.61-10.06-1.1-15.391"/><path fill="#fff" d="m862.965 482.11 2.441.791c-.149 5.146-.619 13.777-.298 18.592-.19 5.477-.688 9.234-1.095 14.528l2.335.821c-6.386 53.602-15.489 93.466-35.535 144.595-42.552 108.538-113.864 190.549-89.149 314.333a237.9 237.9 0 0 0 46.27 101.72 88 88 0 0 0 7.208 8.2l-.354 2.61c4.454 4.64 8.647 8.2 13.68 12.16 11.98 14.12 39.947 26.54 55.909 35.92-1.995 1.53-1.918 2.14-3.49 1.99-30.098-14.61-53.348-28.53-76.575-53.28-64.856-69.12-77.766-174.861-44.092-261.674 22.388-57.718 58.352-108.642 82.136-165.792 22.529-54.329 39.56-116.506 40.609-175.514"/><path fill="url(#a)" d="m862.965 482.11 2.441.791c-.149 5.146-.619 13.777-.298 18.592-.19 5.477-.688 9.234-1.095 14.528a548.5 548.5 0 0 1-42.371 152.349c-44.31 101.256-105.885 168.115-91.768 286.143a227.06 227.06 0 0 0 46.419 113.237 192.5 192.5 0 0 0 18.495 20.55c4.454 4.64 8.647 8.2 13.68 12.16 11.98 14.12 39.947 26.54 55.909 35.92-1.995 1.53-1.918 2.14-3.49 1.99-30.098-14.61-53.348-28.53-76.575-53.28-64.856-69.12-77.766-174.861-44.092-261.674 22.388-57.718 58.352-108.642 82.136-165.792 22.529-54.329 39.56-116.506 40.609-175.514"/><path fill="#fff" d="M1246.4 365.633c6.47-.252 8.35 1.819 13.83 1.593 4.83.768 13.31 6.066 17.52 8.954 27.22 18.71 34.78 53.678 13.96 80.486l-2.15-2.804c4.85-5.883 9.8-14.973 6.81-22.604-2.81 6.105-4.26 7.963-8 13.577-6.18 9.273-28.47 15.183-36.96 7.279l.6-.695 1.28.191c52.84 7.464 45.99-73.224-17.08-72.997-16.34-.1-32 6.55-43.27 18.378-10.96 11.344-16.96 24.115-21.36 39.012l-2.29.391c11.8-43.628 32.68-66.894 79.87-65.51-4.08-1.532-7.43-1.998-2.76-5.251"/><path fill="#272b30" d="M1246.4 365.633c6.47-.252 8.35 1.819 13.83 1.593 4.83.768 13.31 6.066 17.52 8.954 27.22 18.71 34.78 53.678 13.96 80.486l-2.15-2.804c4.85-5.883 9.8-14.973 6.81-22.604 5.47-30.133-18.05-57.58-47.21-60.374-4.08-1.532-7.43-1.998-2.76-5.251"/><path fill="#fff" d="M793.811 366.353a277 277 0 0 1-3.079 4.452c-2.233 2.155-3.646 2.766-6.114 5.447 43.695-13.609 81.116 5.711 94.239 49.915a325 325 0 0 1 3.211 12.006l-1.563.521c-7.647-22.083-16.804-43.406-39.138-54.269-25.026-12.172-61.983-3.94-73.858 22.843-6.369 14.339-4.771 37.538 12.101 43.633 3.588 1.297 9.014 2.195 12.802 1.637q1.834.978 3.648 1.994c-24.423 5.206-31.569-6.315-42.381-25.131.145 11.795 5.927 26.467 15.883 32.66 2.029 1.263 1.115-.044 2.937 2.336l-2.08 1.507c-30.917-20.285-28.56-64.72-1.185-86.639 7.931-6.351 14.975-9.856 24.577-12.912"/><path fill="#272b30" d="M793.811 366.353a277 277 0 0 1-3.079 4.452c-2.233 2.155-3.646 2.766-6.114 5.447l-.963.594-1.181.639c-12.536 7.091-22.876 18.151-27.122 32.103-2.708 8.897-1.206 11.872-1.673 19.813.145 11.795 5.927 26.467 15.883 32.66 2.029 1.263 1.115-.044 2.937 2.336l-2.08 1.507c-30.917-20.285-28.56-64.72-1.185-86.639 7.931-6.351 14.975-9.856 24.577-12.912"/><path fill="#131314" d="M807.774 422.632c-3.569 1.614-8.789 4.553-12.71 5.796-1.955.863-3.199-1.365-1.928-2.848 17.431-20.33 48.518-17.6 62.712 5.022 3.12 4.972 4.028 6.517 2.818 11.466-5.221-12.41-9.916-20.121-23.108-25.294a35.35 35.35 0 0 0-26.971.483c-2.826 1.239-6.116 2.996-8.92 4.42 2.784.181 9.318-.091 11.333.824 33.681 15.298 13.618 53.165-18.496 50.256-9.01-.816-14.579-2.983-22.085-6.853l2.08-1.507c44.501 22.781 73.701-23.328 36.874-40.972z"/><path fill="#272b30" d="M793.811 366.353c19.345-4.016 32.259-3.734 50.899 3.875 33.473 13.665 54.087 57.771 54.466 92.514l-.197.217c-.83-.831-10.709-50.287-24.56-66.025-1.012-1.767-1.879-2.79-3.507-4.015-2.688-3.213-5.537-5.679-8.606-8.515-.651-.597-.41-.428-1.045-.78-24.304-18.768-41.645-19.357-70.529-12.819a277 277 0 0 0 3.079-4.452"/><path fill="#131314" d="M1160.61 423.884c3.58-10.49 7.98-20.405 14.73-29.264 19.17-25.161 54.72-38.759 84.89-27.394-5.48.226-7.36-1.845-13.83-1.593l-1.66.348c-8.5 1.021-11.44-1.657-21.73 1.284-17.51 5.003-32.4 12.151-43.86 26.708-.62.553-.47.434-1.09 1.248l-1.71 2.447c-.54 1.166-1.02 1.663-1.81 2.693-.58.645-.68.82-1.12 1.563-2.81 3.726-10.66 21.703-11.73 22.316-.57-.017-.19.028-1.08-.356"/><path fill="#272b30" d="M871.584 659.132c-1.932-4.674-.334-5.831 1.017-11.147l.48-1.968 1.678-6.542.467-1.946c1.269-4.831 2.407-9.694 3.597-14.544l.852-3.999c.354-1.673.741-3.336 1.136-5.001l.813-3.995 2.027-9.532c.364-1.721.857-3.768 1.17-5.468l2.307-11.973c.565-2.931 3.987-25.071 5.342-25.644.593.237.574.591.959 1.323-1.962 16.542-5.588 34.058-9.181 50.318l-2.492 10.97c-.643 2.779-1.395 5.672-2.069 8.46l-1.994 8.002-1.014 3.99-.418 1.58-2.593 9.97a115 115 0 0 1-2.084 7.146m329.546 66.832c.2-.228.76-1.011 1.2-1.042a.6.6 0 0 1 .44.167c1.02.986 1.22 3.103 1.53 4.44.29 1.26.11.535.5 1.489.89 2.165 1.42 4.44 2.25 6.626.25.656.43 1.336.67 1.997.64 1.783 1.82 3.382 2.7 5.048 4.29 8.145 7.1 20.175 9.16 29.283.2.872.52 1.711.8 2.56l.46 1.407.39 1.137.61 1.864c1.79 4.971 2.94 7.457 1.67 12.299-4.44-12.814-8.02-26.41-12.82-39.435-1.81-4.927-8.69-23.656-9.56-27.84m-192.7 382.996c3.19-2.89 57.19-1.29 62.54-.16l-.15 2.37c-15.95-.74-31.78-2.42-47.82-2.09-4.62.1-10 .19-14.57-.12m217.15-309.108c.33-.063 1.34-.378 1.77-.178.16.828 1.95 6.904 2.31 7.787 2.49 6.148 3.01 11.957 4.61 18.207.88 2.387.63 3.412.37 5.812-.09.782 1.32 2.668.86 4.517.01-.035 1.55 7.874 1.59 8.022.75 3.297.79 4.325-.77 7.034-3.11-17.7-6.9-33.749-10.74-51.201"/><path fill="#c7c9cd" d="M866.03 469.02c.457 2.934.824 3.765 1.848 6.627-.402 14.04.687 26.96-1.53 41.195l-2.335-.821c.407-5.294.905-9.051 1.095-14.528 1.241-6.585 1.301-25.616.922-32.473"/><path fill="#272b30" d="m1289.56 453.862 2.15 2.804c-7.2 7.343-14.19 12.699-24.57 14.527.89-3.025 3.58-3.409 6.16-4.72 6.54-3.316 11.46-7.031 16.26-12.611m-65.07-3.471c3.93 2.099 6.79 10.243 13.08 13.294 2.65 1.282 9.76 4.871 10.3 7.758-11.7-2.897-19.95-9.198-23.38-21.052"/><path fill="#9a9ca3" d="M1182.53 497.987c-1.75-7.212.96-20.26.95-27.978l1.2-.609c-.07-.379-.13-.758-.19-1.137l-.47-.557.69-.391c.54.571.58 5.047.69 6.236-1 6.056-.22 14.423-.59 20.719-2.23.321-1.64 1.364-2.28 3.717"/><path fill="#272b30" d="M862.987 464.785c1.007-.177.688-.198 1.129-.1.79.866 1.323 16.68 1.29 18.216l-2.441-.791c-.054-5.389-.203-12.017.022-17.325"/><path fill="#9a9ca3" d="M795.142 1085.69c3.034 2.86 12.412 11.24 13.326 14.77-5.033-3.96-9.226-7.52-13.68-12.16z"/><path fill="#131314" d="M1253 420.596c6.98 7.932 7.22 8.944-2.84 4.206 1.94-1.69 1.78-1.744 2.84-4.206"/><path fill="#9a9ca3" d="m1171.58 436.003-.39 3.495c-.44 3.763-1.77 9.233-2.43 13.181-.76-6.236-.4-10.067.53-16.285zm-291.075 2.691 1.563-.521c.711 2.098 2.78 10.383 1.298 11.974-1.291-.501-2.715-9.951-2.861-11.453"/><path fill="#c7c9cd" d="M792.412 452.538c3.067-.531 6.159-.736 9.227-1.266a183 183 0 0 1 6.677-.963c-4.128 1.56-7.981 3.147-12.256 4.223a201 201 0 0 0-3.648-1.994"/><path fill="#85818e" d="M866.03 469.02c.376-9.462 1.922 3.914 1.848 6.627-1.024-2.862-1.391-3.693-1.848-6.627"/><path fill="#f0eff1" d="M1246.26 419.378c1.35.74 2.51 1.485 3.81 2.298-1.77.182-3.19.193-4.96.23z"/><path fill="#47474a" d="M870.912 392.919c1.628 1.225 2.495 2.248 3.507 4.015-2.016-.942-2.752-1.922-3.507-4.015"/><path fill="#fff" d="m1128.27 519.094 22.78-.064c3.17 25.796 5.93 46.633 11.41 72.161 5.06 29.446 24.65 108.354 38.67 134.773.87 4.184 7.75 22.913 9.56 27.84 4.8 13.025 8.38 26.621 12.82 39.435.44 1.524 1.44 5.389 2.07 6.613 3.84 17.452 7.63 33.501 10.74 51.201 4.12 46.974 5.29 84.736-17.99 128.507-4.16 7.81-7.35 13.051-12.58 20.23-3.17 4.35-19.35 20.87-20.87 23.5-20.4 17.12-25.72 20.86-49.44 32.79-.51-23.77-.65-47.55-.43-71.325 6.5 2.517 19.27 8.834 25.51 6.509l.28-1.586c-5.49-6.942-17.29-9.249-25.81-11.552l-6.21-442.537c.24-5.868.53-10.725-.51-16.495m-229.993-.008c5.794-.359 14.513-.02 20.534.035-.83 6.376-.847 14.981-.637 21.463-.216 28.507-2.098 64.155-1.321 91.282-1.187 8.459-1.032 28.812-.651 37.701-.137 14.312-.903 33.304-.35 47.229-.863 7.445-.925 22.085-.685 29.781a9291 9291 0 0 0-2.383 130.811c-.166 12.845-1.041 26.688-.959 39.301-.781 6.305-.834 11.566-.659 17.9-.124 6.842-.588 16.292-.314 22.929-.864 6.967-.889 15.055-.678 22.072l-.34 21.25c-.987 7.48-.958 20.04-.654 27.72l-.302 25.7c-9.907-5.3-16.104-9.15-25.584-15.03-.572-.79-12.054-9.74-14.177-11.64a176.8 176.8 0 0 1-31.36-37.574c-47.17-74.968-20.7-174.894 8.441-251.69 9.082-23.936 19.493-53.197 25.161-78.172l.225-1.022a115 115 0 0 0 2.084-7.146l2.593-9.97.418-1.58 1.014-3.99 1.994-8.002c.674-2.788 1.426-5.681 2.069-8.46l2.492-10.97c3.593-16.26 7.219-33.776 9.181-50.318 2.199-4.581 5.859-33.858 4.848-39.61m115.763-.201c7.57.536 20.51.935 27.77-.444 3.38 5.181 1.88 53.027 1.9 62.592l.35 232.644-.07 47.972c.06 6.3 2.45 26.792-2.19 32.076-.93 1.06-5.21 1.376-6.96 1.563-3.73-.093-5.58.675-8.87 2.146-4.18-2.661 1.93-13.034.94-18.657-2.42-13.779-10.45-25.156-16.65-37.451l.69-5.457c.37-3.102 1.51-12.778-.59-13.662-3.89-1.641-5.36-2.28-5.2-9.515.42-19.299.46-38.873.54-58.314l.1-125.541.1-75.465c.03-7.003-.34-28.038.73-33.206 2.74-1.792 3.54-1.154 7.41-1.281"/><path fill="#515a65" d="M958.867 484.525c.121-5.472-.886-41.98 1.519-43.52 1.602 1.189.633 38.634.547 43.432 13.775-.783 28.866.035 42.787-.46-.24.544-.01 30.352.03 32.966-15.4.093-31.275 1.473-46.755.503-11.905-.745-23.719-.665-35.674-.639.183-11.639.562-21.249.951-32.652 8.229-.218 28.988-.478 36.595.37"/><path fill="#47474a" d="M958.867 484.525c.121-5.472-.886-41.98 1.519-43.52 1.602 1.189.633 38.634.547 43.432 1.855.464 4.474.66 5.913 1.062l.083.182c-.714.943-3.894.717-4.665 1.745-3.197 4.265.674 26.314-2.099 28.437-3.083-.487-1.63-25.547-1.67-29.373-2.32 0-14.803.608-16.395-.813v-.076c1.25-.528 13.199-.418 16.767-1.076"/><path fill="#515a65" d="M1006.1 483.888c9.6.889 27.84.304 37.87.334-.82.32-3.98 1.165-4.46 1.734.36 2.126 3.97 1 3.92 2.143-.38 8.592 1.75 22.517-1.62 30.342-7.26 1.379-20.2.98-27.77.444-1.29-3.755-6.08.802-7.17-1.982-2.41-6.117-.34-19.514-.88-26.412-.28-3.656 1.34-2.981 1.67-4.887-.25-.275-.51-.551-.76-.826zm13.24 420.402c1.19 1.027 2.24 1.921 3.46 2.919-1.88 4.806-.33 10.835.18 15.939-6.22-2.26-7.63-3.88-14.19-2.952-.51-.742-1.01-1.483-1.52-2.225 3.52-1.918 10.37-9.44 12.07-13.681"/><path fill="#78563e" d="M1025.97 897.434c3.29-1.471 5.14-2.239 8.87-2.146.68 1.88.78 1.265 2.74 2.48-4.27 3.009-9.54 5.714-14.78 9.441-1.22-.998-2.27-1.892-3.46-2.919 2.75-4.38 5.97-4.536 6.63-6.856"/><path fill="#515a65" d="M916.853 631.866c.613 7.104.902 30.83-.651 37.701-.381-8.889-.536-29.242.651-37.701m-1.001 84.93c.745 7.794 1.163 22.237-.685 29.781-.24-7.696-.178-22.336.685-29.781m-6.018 284.044c.698 7.9 1.086 20.04-.654 27.72-.304-7.68-.333-20.24.654-27.72"/><path fill="#9a9ca3" d="M1007.27 917.971c.51.742 1.01 1.483 1.52 2.225-.66.886-7.64 9.522-8.52 9.211-.853-1.4 5.93-10.024 7-11.436"/><path fill="#515a65" d="M918.811 519.121c1.018 5.629.839 15.723-.637 21.463-.21-6.482-.193-15.087.637-21.463m-8.637 460.469c-.211-7.017-.186-15.105.678-22.072.613 7.055 1.14 15.224-.678 22.072m218.096-460.496c1.04 5.77.75 10.627.51 16.495-1.28-4.89-1.72-11.622-.51-16.495M911.825 916.689c.595 7.134 1.128 11.101-.659 17.9-.175-6.334-.122-11.595.659-17.9"/><path fill="#fff" d="M920.821 527.413c.191-3.539-.347-5.498 1.335-7.951 7.793-1.032 27.267-.46 36-.389l-.317 90.657c.669 8.003 1.205 25.294-.645 32.849a7071 7071 0 0 0-1.158 122.724c-.092 23.488-.525 47.709-.97 71.265-.057 3.016-1.015 3.691-2.752 5.565l1.058.874c2.724 2.217 1.6 3.29 1.815 6.955l-1.475 2.173c-3.187 4.172-4.295 5.41-8.554 8.342-2.034.296-2.234.401-3.779 1.825-3.024-2.361-2.267 3.456-7.79 1.568-.047-1.452-.023-2.277.039-3.762-2.997 4.409-7.42 10.026-8.743 14.945 2.494 3.859 7.756 2.344 6.043 5.164-15.404 25.37-25.237 38.638 15.267 37.741-8.748 10.532-12.13 18.369-16.034 31.556 8.976-10.109 10.587-11.978 23.752-15.421-.876 44.596-1.883 91.607-1.793 136.167-8.955-2.75-34.921-10.08-40.689-15.93l-.243-3.18c-.606-7.9-1.069-36.64.647-43.72l.338-20.005c-.572-7.075-1.101-14.141.65-21.008l.338-25.361c-.587-7.006-1.132-11.979.679-18.649a6184 6184 0 0 0 3.333-166.913c-.604-8.259-1.08-26.278.649-34.056.368-9.938.252-21.214.351-31.248-.628-7.617-1.054-34.817.629-41.767l.371-30.143c-.531-6.974-1.041-14.101.645-20.859q.453-19.042.384-38.09c-.554-7.128-1.138-25.168.619-31.918"/><path fill="#440808" d="m952.314 842.133 1.058.874c2.724 2.217 1.6 3.29 1.815 6.955l-1.475 2.173c-3.187 4.172-4.295 5.41-8.554 8.342-2.034.296-2.234.401-3.779 1.825-3.024-2.361-2.267 3.456-7.79 1.568-.047-1.452-.023-2.277.039-3.762 4.178-7.104 11.546-13.843 18.686-17.975"/><path fill="#db3d36" d="M953.372 843.007c2.724 2.217 1.6 3.29 1.815 6.955-7.722 1.928-9.516 5.409-16.266 9.55-.798.49-2.29 3.011-3.294 3.689l-.371-.104c-1.287-5.16 14.355-17.498 18.116-20.09"/><path fill="#7f231f" d="M953.712 852.135c-3.187 4.172-4.295 5.41-8.554 8.342 1.96-4.258 4.573-5.852 8.554-8.342"/><path fill="#515a65" d="M911.188 1051.15c-.606-7.9-1.069-36.64.647-43.72.288 8.75.383 35.88-.647 43.72m6.985-360.96c-.628-7.617-1.054-34.817.629-41.767.365 9.577.422 32.883-.629 41.767m-1 65.304c-.604-8.259-1.08-26.278.649-34.056.351 8.672.422 25.725-.649 34.056m40.666-145.764c.669 8.003 1.205 25.294-.645 32.849-.329-8.274-.255-24.929.645-32.849m-37.637-50.399c-.554-7.128-1.138-25.168.619-31.918.265 8.148.152 23.801-.619 31.918m-8.029 428.094c-.572-7.075-1.101-14.141.65-21.008.235 7.034.288 14.025-.65 21.008m7-369.145c-.531-6.974-1.041-14.101.645-20.859.249 7.07.285 13.837-.645 20.859m-6.012 322.776c-.587-7.006-1.132-11.979.679-18.649.162 6.44.233 12.255-.679 18.649"/><path fill="#fff" d="M1085.99 519.031c13.35-.154 27.15.101 40.54.182 1.26 5.617.77 22.984.32 29.109 1.76 96.93 3 193.869 3.74 290.812.49 45.46 2 92.473 1.79 137.829-15.67-6.145-28.39-11.692-43.47-19.413-1.08-63.721-.44-126.492-1.08-190.018-1.44-8.921-1.67-55.073-.67-65.925.81-18.273-.13-43.626-.27-62.448z"/><path fill="#515a65" d="M1087.16 701.607c1.16 10.096 1.13 55.336.67 65.925-1.44-8.921-1.67-55.073-.67-65.925m39.37-182.394c1.26 5.617.77 22.984.32 29.109-1-6.947-1.23-21.961-.32-29.109"/><path fill="#fff" d="m1045.9 519.065 38.05-.034 1.75 331.069.14 71.482c.04 6.239 1.57 29.653-.6 33.633l-2.68-.921c-12.57-7.393-23.17-13.77-35.26-21.921-.07-8.266-.65-28.536.35-37.357.05-.43 2.99-1.382 4.25-3.84l-4.28.772c-2.11-4.565-1.7-335.244-1.72-372.883m-85.806.016 43.846-.099-.85 305.128c-4.52 4.821-6.122 6.947-9.859 12.27l-.604-.176c-2.542-3.026-5.389-6.622-8.194-9.332-7.353 2.867-19.881 7.948-26.793 11.804-1.819-6.32-.561-19.036.231-25.697 1.201-19.481.852-44.748.871-64.292l.418-90.453c-.663-8.049-1.061-31.455.651-38.804q.41-50.174.283-100.349"/><path fill="#515a65" d="M959.16 658.234c-.663-8.049-1.061-31.455.651-38.804.356 8.537.304 30.381-.651 38.804"/><path fill="#47474a" d="M957.871 812.979c.277 7.19.314 18.6-.231 25.697-1.819-6.32-.561-19.036.231-25.697"/><path fill="#fff" d="m999.985 922.205.565 1.186c-2.879 3.244-2.398 6.493-4.934 10.945-3.36 5.895-6.503 10.2-10.505 15.663 6.877-6.037 10.869-10.785 16.829-17.695l-.08 145.876c-5.333-.36-11.244-1.05-16.617-1.57-10.682-1.52-20.193-3.4-30.748-5.52 1.709-43.84 1.34-92.768 1.669-136.951 20.964-1.847 25.131-2.771 43.821-11.934m10.055-.34c11.09 1.024 25.13 12.125 35.01 18.683.01 13.227.9 134.332-1.15 137.052l-3.65.4c-12.03.8-24.1.91-36.14.32l.28-103.848c.11-14.282-.25-31.208 1.32-45.42.29-2.638 2.58-5.226 4.33-7.187m36.73 12.602c13.71 8.48 26.96 16.77 40.8 25.121l.45.25 1.13 2.838-2.7.183c.87 8.034.43 27.65.5 36.657l.54 72.474c-14.06 2.75-25.49 4.49-39.8 5.27.76-44.22.1-90.524.1-134.903l8.6 5.089.71-1.905c-3.69-2.22-5.87-3.772-9.8-5.565z"/><path fill="#db3d36" d="M1046.77 934.467c13.71 8.48 26.96 16.77 40.8 25.121l.45.25 1.13 2.838-2.7.183c-4.26-.403-25.59-12.467-30.06-15.413l.71-1.905c-3.69-2.22-5.87-3.772-9.8-5.565z"/><path fill="#7f231f" d="M1057.1 945.541c6.06 2.224 25.18 16.852 30.47 14.047l.45.25 1.13 2.838-2.7.183c-4.26-.403-25.59-12.467-30.06-15.413z"/><path fill="#fff" d="M1088.88 965.057c14.88 6.436 28.64 12.504 43.81 18.739-.35 24.004.21 49.284.4 73.404l-10.84 4.26c-10.11 4.05-21.8 7.13-32.38 9.74.16-35.05-.86-70.9-.99-106.143"/><path fill="#db3d36" d="M955.69 893.797c6.921-11.199 17.496-22.062 24.853-33.276 3.632-5.536 4.313-4.335 8.045-.844 1.188 2.089 2.182 2.45 4.155 3.827 4.931 21.592 9.077 25.973 25.777 37.239-3.58 6.18-4.85 9.19-10.9 13.658-20.411 15.095-30.936 2.965-52.166-.308-.167-7.738-.196-12.624.236-20.296"/><path fill="#db3d36" d="M1008.06 822.667c3.07 1.634 1.75 3.459 1.01 6.373-2.73 10.855-.93 14.059 4.6 23.168 5.51 9.606 12.59 22.134 10.24 33.794-1.14 5.677-1.41 12.834-7.74 10.972-16.703-11.864-19.656-23.45-22.084-43.475-1.699-14.02 3.685-21.754 13.974-30.832"/><path fill="#515a65" d="M1087.69 485.885c10.49-.926 27.6.475 38.29 1.84 0 4.55 1.04 27.283-1.31 29.077l-38.73.116c-.11-5.781-1.91-28.023 1.75-31.033m-41.51 1.41c9.57.979 26.75-.028 36.71-.529l.13 29.92c-7.65.828-27.96.147-36.91.225z"/><path fill="#db3d36" d="M930.557 884.574c6.361 5.562 15.523 13.374 21.259 18.649.763 10.164 3.647 11.896-6.892 12.524-4.377-.109-18.614.136-21.417-2.719-7.575-7.717 1.869-22.51 7.05-28.454"/><path fill="#515a65" d="M1128.19 487.101c7.23.055 14.47.249 21.69.58.04 5.1 1.09 25.913.5 28.712-5.2.59-16.84.662-22.07.073q-.21-14.683-.12-29.365"/><path fill="#47474a" d="M1128.31 516.466c7.5-.6 14.57-.734 22.07-.073-5.2.59-16.84.662-22.07.073"/><path fill="#515a65" d="M901.193 487.458c6.093-.023 11.569-.098 17.674-.304-.091 6.774.116 23.592-.773 29.34-6.481 0-12.544-.128-19.013-.266.876-9.704 1-19.33 2.112-28.77"/><path fill="#db3d36" d="M967.613 848.148c2.266-2.612 10.193-20.867 14.144-17.065.396 1.624-1.509 5.609-2.158 7.098 1.333 3.969 2.181 7.754 3.072 11.837-6.046 10.418-11.829 20.429-19.512 29.802-7.321 10.272-6.372-1.797-6.137-5.977 2.041-4.533 4.056-4.72 6.545-8.58 5.986-9.284 10.652-16.674 14.723-27.1-.288-.613-.354-.925-.738-1.358l-.173-.049c-1.225 1.086-5.346 11.522-8.907 16.211-1.359-2.2-1.535-2.351-.859-4.819"/><path fill="#bb2424" d="M957.022 873.843c7.253 1.799 2.507-1.012 6.137 5.977-7.321 10.272-6.372-1.797-6.137-5.977"/><path fill="#fff" d="M1042.97 897.794c1.46 1.167 1.7 1.635 1.71 3.642.11 9.688.05 19.377-.17 29.063-3.74-2.653-6.35-4.817-9.96-7.597-5.18-4.805-7.46-7.088-11.45-12.969 6.35-3.929 13.81-8.226 19.87-12.139"/><path fill="#db3d36" d="M955.471 916.919c2.128.365 33.081 7.561 33.082 7.562-.446.632-2.259 1.442-2.991 1.746-11.202 3.138-18.099 4.049-29.456 5.261q-.424-7.28-.635-14.569m-14.092-54.617c-1.135 1.478-3.134 3.348-3.455 5.055 1.318 2.344 14.588-9.723 16.457-10.485.926.658.764 5.07-.579 6.479-5.826 6.116-16.458 15.106-25.829 12.263-.27-.082-.645-.778-.624-1.063 1.183-3.567 4.014-5.908 6.24-10.681 5.523 1.888 4.766-3.929 7.79-1.568"/><path fill="#db3d36" d="M953.076 867.027c2.023 2.332.746 12.801.632 16.824-8.804.191-9.792.683-18.479-.885-7.352-2.208 7.249-7.771 8.396-8.544 3.456-2.33 6.318-4.688 9.451-7.395m134.944 92.811c15.12 5.476 29.95 15.138 45.81 19.658 4.59 1.309 9.89 2.668 14.08 4.649 3.53 1.959 9.37 1.76 11.69 5.313.19.302-.58 1.64-1.1 1.475-15.73-4.915-56.78-20.915-69.35-28.257zm-137.862-42.353c4.378 1.165 2.801 6.289 3.451 11.044l.468 3.409c-5.013 1.342-8.884 1.816-13.43 4.731l-3.177 2.066c-.26.285-.733.946-1.214 1.012-.234.032-.354.004-.516-.128-.182-.147-.172-.697-.157-.871.663-7.572 9.358-16.494 14.575-21.263m72.142-3.661c11.38 11.256 11.48 10.677 23.77 20.032.23.203.47.407.7.611l.53 5.509c-1.08-.885-2.15-1.78-3.2-2.687l-1.19-.85c-1.42-.776-1.47-.729-2.6-1.847-13.06-8.386-12.29-6.729-18.01-20.768"/><path fill="#440808" d="M1046.07 933.856c.23.203.47.407.7.611l.53 5.509c-1.08-.885-2.15-1.78-3.2-2.687.79-1.274 1.35-2.081 1.97-3.433"/><path fill="#db3d36" d="M967.613 848.148c-.676 2.468-.5 2.619.859 4.819-1.554 2.998-5.091 8.014-7.058 11.248-.368 1.042-2.211 5.361-3.796 5.082-1.038-1.139.056-6.888-.623-9.364 1.697-6.131 4.268-9.389 10.618-11.785"/><path fill="#7f231f" d="M956.995 859.933c1.53 2.799 1.586 2.751 4.419 4.282-.368 1.042-2.211 5.361-3.796 5.082-1.038-1.139.056-6.888-.623-9.364"/><path fill="#db3d36" d="M946.328 886.447c.717-.13 6.052-1.084 6.306-.144.574 2.132.257 11.665-1.143 12.81-1.152-.12-2.057-1.152-2.911-1.85-3.362-2.78-6.376-5.711-9.886-8.177l-.795-1.304c.634-.601 7.214-1.135 8.429-1.335m46.299-50.243.604.176c-2.422 7.399-1.593 19.581-.488 27.124-1.973-1.377-2.967-1.738-4.155-3.827-.083-2.667-.323-3.102-1.455-5.678l-.735-1.636-.46-1.077c2.251-4.543 4.962-10.37 6.689-15.082"/><path fill="#bb2424" d="M966.835 835.662c11.287.273-4.503 8.832-4.843 11.274l-1.026 1.174c-2.766 3.189-9.107-4.305 5.869-12.448"/><path fill="#db3d36" d="M983.937 830.373c7.808 4.248 5.144 8.529 2.058 15.613-4.223 4.659-2.633-13.275-2.058-15.613"/><path fill="#515a65" d="M1008.43 1108.96c4.57.31 9.95.22 14.57.12 16.04-.33 31.87 1.35 47.82 2.09 44.55 5.12 96.02 12.6 130.31 44.15l2.83-1.38-.77-2.77-2.24-1.06c8.78-4.24 26.52-10.39 36.08-11.44 20.92-7.35 56.73.08 77.22 7.8 3.56 1.58 7.44 3.23 11.03 4.75 7.43-3.4 35.38.59 44.07 2.48 22.16 4.82 45.38 16.44 62.41 31.58 28.29 25.16 60.25 45.89 97.74 54.11 13.83 2.94 34.93-2.17 28.57 22.65-.43 1.59-1.48 2.94-2.45 4.28-3.7 6.92-8.01 10.71-14.27 15.3-14.29 13.11-40.15 18.16-59.08 17.33-7.89-.38-15.73-1.59-23.37-3.59-3.15 9.44-3.62 12.09-9.66 20.59-10.67 17.66-31.55 31.4-51.4 36.17-14.94 3.59-24.79 2.49-39.64.28-.83.75-4.83 4.47-5.48 4.9-4.31 4.56-8.25 7.84-13.42 11.31-29.53 24.31-95.69 21.96-132.37 18-27.65-2.98-59.27-10.28-86.88-8.8-20.02 1.08-43.12 9.7-64.28 13.02-76.983 12.09-138.063 3.93-209.776-25.1-38.159 19.24-73.305 28.53-116.611 15.99-2.367-.69-7.806-2.83-9.681-4.05a115 115 0 0 1-30.41-18.48c-10.021-6.88-17.649-16.47-24.887-26.07l-3.33 1.23c-11.276 5.23-33.998 4.53-45.149-1.01-8.945-3.5-15.333-7.93-18.882-17.32-1.753-4.64-1.311-4.14-6.253-3.08l-1.843.34c-16.571 7.02-62.443 10.2-79.008 1.06-8.147-3.08-13.211-6.05-18.525-13.08-17.386-21.83 36.093-31.47 49.585-36.59 11.55-5.47 19.369-10.33 29.719-17.37 5.669-5.36 13.63-11.35 18.782-16.63 7.011-7.19 13.595-15.26 20.754-22.48 36.775-37.06 68.197-45.81 118.039-46.7l1.375-.56c5.803-2.3 8.956-4.88 14.388-7.67 12.002-6.18 26.86-11.65 40.182-13.81 14.701-4.21 41.786-2.94 56.136 2.19 3.322.58 8.107 2.23 11.44 3.26 3.154-2.56 5.689-4.26 9.072-6.53 1.572.15 1.495-.46 3.49-1.99 24.746-15.58 81.278-29.52 110.64-25.57 6.541.32 25.983-1.34 33.413-1.85"/><path fill="#515a65" d="M1008.43 1108.96c4.57.31 9.95.22 14.57.12 16.04-.33 31.87 1.35 47.82 2.09 44.55 5.12 96.02 12.6 130.31 44.15 11.7 12.38 28.37 43.03 21.64 59.91l-1.88 1.31-4.49-1.02c-23.73-8.21-82.79-15.12-107.41-11.99l.69 1.35c-41.07 1.15-60 2.44-99.67 10.66-5.38-2.48-15.865 1.85-21.677 3.67-49.82-19.18-105.399-21.24-157.498-11.71-2.399.73-3.031.77-5.508 1.21-1.753-1.47-2.809-2.84-2.584-5.36 6.418-71.87 98.594-88.17 152.274-92.54 6.541.32 25.983-1.34 33.413-1.85"/><path fill="#fff" d="M1008.43 1108.96c4.57.31 9.95.22 14.57.12 16.04-.33 31.87 1.35 47.82 2.09 44.55 5.12 96.02 12.6 130.31 44.15 11.7 12.38 28.37 43.03 21.64 59.91l-1.88 1.31-4.49-1.02c4.4-77.23-97.53-95.57-156.79-99.81-65.562-4.69-152.575 1.83-207.373 42.02-14.95 10.97-20.325 32.21-21.402 49.77-2.399.73-3.031.77-5.508 1.21-1.753-1.47-2.809-2.84-2.584-5.36 6.418-71.87 98.594-88.17 152.274-92.54 6.541.32 25.983-1.34 33.413-1.85"/><path fill="#f0eff1" d="M1182.35 1160.62c11.32 5.89 18.22 26.2 19.36 38.31-2.18-1.23-3.31-1.7-3.61-4.39-1.44-12.61-8.68-23.75-15.75-33.92"/><path fill="#c7c9cd" d="M876.13 1151.83c.537.24.915.27 1.145.69-.483 1.3-4.614 3.5-5.871 4.35-13.784 9.27-19.326 20.2-23.296 35.67-.364 0-1.237.1-1.517-.08.009-16.62 15.829-33.03 29.539-40.63"/><path fill="#272b30" d="M1140.8 1155.48c11.55 3.91 22.27 34.51 22.95 45.69-3.2-3.62-6.76-24.43-12.44-30.67-1.39-1.54-9.2-13.06-10.51-15.02"/><path fill="#c7c9cd" d="M1159.96 1157.02c10.61 8.17 18.62 24.05 20.17 37.29-4.1-3.08-4.96-13.97-9.32-21.22-3.05-5.06-8.73-11.99-10.85-16.07m-275.4 5.14c.313 2.57-1.511 3.02-3.724 4.3-10.018 5.8-11.648 13.12-16.078 22.82-2.946-10.82 11.042-22.79 19.802-27.12"/><path fill="#9a9ca3" d="M904.802 1162.9c.603.61.994.8 1.047 1.52-1.842 3.19-11.378 8.85-15.94 17.02l-1.533 2.8c-4.471-4.48 12.953-18.88 16.426-21.34"/><path fill="#fff" d="M1203.96 1153.94c18.19 17.82 24.78 41.97 22.07 66.78 17.77 6.97 58.67 23.66 68.21 40.73l-.68 1.92c-5.9-.28-15.01-11.76-20.65-15.12-49.47-29.5-111.66-38.12-167.89-34.99-66.09 3.68-134.098 10.71-185.209 56.42-1.718 1.53-4.435 2.45-6.795 2.14 2.442-7.9 23.079-21.75 30.136-27.2 24.19-13.97 39.789-21.63 66.858-29.08 39.67-8.22 58.6-9.51 99.67-10.66l-.69-1.35c24.62-3.13 83.68 3.78 107.41 11.99l4.49 1.02 1.88-1.31c6.73-16.88-9.94-47.53-21.64-59.91z"/><path fill="#131314" d="M1203.96 1153.94c18.19 17.82 24.78 41.97 22.07 66.78-31.81-11.96-82.24-15.61-116.35-15.84l-.69-1.35c24.62-3.13 83.68 3.78 107.41 11.99l4.49 1.02 1.88-1.31c6.73-16.88-9.94-47.53-21.64-59.91z"/><path fill="#fff" d="M864.377 1136.38c24.746-15.58 81.278-29.52 110.64-25.57-53.68 4.37-145.856 20.67-152.274 92.54-.225 2.52.831 3.89 2.584 5.36 2.477-.44 3.109-.48 5.508-1.21 52.099-9.53 107.678-7.47 157.498 11.71 5.812-1.82 16.297-6.15 21.677-3.67-27.069 7.45-42.668 15.11-66.858 29.08 3.411-8.02 26.785-15.94 34.248-21.71a325.4 325.4 0 0 0-126.906-7.5c-34.255 4.74-75.057 16.13-99.946 41.88-8.839 9.15-8.905 12.39-15.685 21.32l-1.456-.17c-.325-2.23-.669-1.72.091-3.45 16.219-37 48.574-45.88 80.549-59.61l-.328-.89c1.948-2.21 3.321-2.1 6.516-3.24.19-28.73 8.338-45.79 30.255-64.19-3.309-1.4-7.855-2.85-10.115-5.42 3.322.58 8.107 2.23 11.44 3.26 3.154-2.56 5.689-4.26 9.072-6.53 1.572.15 1.495-.46 3.49-1.99"/><path fill="#272b30" d="M864.377 1136.38c24.746-15.58 81.278-29.52 110.64-25.57-53.68 4.37-145.856 20.67-152.274 92.54-.225 2.52.831 3.89 2.584 5.36 2.477-.44 3.109-.48 5.508-1.21 52.099-9.53 107.678-7.47 157.498 11.71 5.812-1.82 16.297-6.15 21.677-3.67-27.069 7.45-42.668 15.11-66.858 29.08 3.411-8.02 26.785-15.94 34.248-21.71 1.506-.28 2.687-.82 4.15-1.36l.094-1.4c-5.562-4.25-20.116-7.07-27.363-8.6-47.332-10.04-93.616-9.64-140.234 3.83l-.328-.89c1.948-2.21 3.321-2.1 6.516-3.24.19-28.73 8.338-45.79 30.255-64.19-3.309-1.4-7.855-2.85-10.115-5.42 3.322.58 8.107 2.23 11.44 3.26 3.154-2.56 5.689-4.26 9.072-6.53 1.572.15 1.495-.46 3.49-1.99m-80.138 3.07c.702.34 1.099.35 1.372.91-.451.74-40.3 10.74-46.257 19.12-.982.22-3.127.38-3.77 1.37-.049 1.15 2.19 1.16 2.866 1.26a98 98 0 0 1 9.891 1.98l1.825.44c-3.358.65-21.325.67-21.872-3.04l1.375-.56c5.803-2.3 8.956-4.88 14.388-7.67 12.002-6.18 26.86-11.65 40.182-13.81"/><path fill="#f0eff1" d="m1311.77 1150.21 1.95.12c1.15.03 2.34.02 3.36.61l.25.46c-.13.39-.18.34-.63.63-18.91 2.81-28.45 5.18-45.17 15.54-3.52 2.19-4.71-3.76 9.76-9.18 11.81-4.44 18.65-5.27 30.48-8.18m-572.416 9.27c6.548 1.5 13.41 2.24 19.654 4.5 1.913.7 8.299 2.47 8.874 4.05 1.848 5.09-4.082 1.24-4.414 1.07a48.4 48.4 0 0 0-12.348-4.35 33 33 0 0 1-.954-.22l-1.825-.44a98 98 0 0 0-9.891-1.98c-.676-.1-2.915-.11-2.866-1.26.643-.99 2.788-1.15 3.77-1.37"/><path fill="#272b30" d="M1200.95 1150.11c8.78-4.24 26.52-10.39 36.08-11.44-3.11 2.18-2.42 1.77-5.91 2.76a82 82 0 0 0-10.91 3.89c-3.98 1.74-12.79 4.6-17.02 5.85zm-612.002 163.17c2.31-1.88 5.073-3.58 8.07-4.01 1.208-.18 1.157 2.26 1.225 2.73.963 6.7 5.395 12.3 10.835 16.08 1.473 1.11 7.089 3.55 7.296 4.13-.172.59-.042.23-.448 1.13-8.945-3.5-15.333-7.93-18.882-17.32-1.753-4.64-1.311-4.14-6.253-3.08zm100.344 45.91c2.533.23 29.154 16.19 30.41 18.48a115 115 0 0 1-30.41-18.48M570.719 1247.3c-.899 5.4-23.606 17.8-29.719 17.37 11.55-5.47 19.369-10.33 29.719-17.37m743.531-100.83c3.56 1.58 7.44 3.23 11.03 4.75-2.56 1.67-7.12 4.67-8.58.81.45-.29.5-.24.63-.63l-.25-.46c-1.02-.59-2.21-.58-3.36-.61l-1.95-.12a84 84 0 0 1 2.48-3.74m-822.835 154.79c1.273.2 16.364 10.13 18.862 11.74.079.54-.075.71-.337 1.34-8.147-3.08-13.211-6.05-18.525-13.08m957.825 14.69c.15-4.27.7-4.1 2.98-7.93 1.92-3.23 3.53-7.26 3.67-11.05.03-.88.08-2.82 1.03-3.26 1.24-.57 1.73.89 1.98 1.65-3.15 9.44-3.62 12.09-9.66 20.59m92.11-34.33c.37-2.42 12.17-14.89 14.27-15.3-3.7 6.92-8.01 10.71-14.27 15.3m-202.05 86.99c.32-3.38 9.75-11.05 13.42-11.31-4.31 4.56-8.25 7.84-13.42 11.31m-678.225-34.26c-1.638-3.66 3.533-3.44 3.33-1.23z"/><path fill="#fff" d="M1297.58 1200.44c15.11-.66 30.22 1.29 44.67 5.79 21.48 6.92 47.47 21.43 58.14 42.25-6.4-3.87-12.53-10.22-18.03-15.47-27.73-21.74-57.31-32.37-92.51-27.96-6.19.78-12.66 1.24-18.89 1.77l-1.06-1.13.69-1.22c6.83-3.29 19.36-3.56 26.99-4.03m-579.043-9.12c16.331-2.35 41.021.5 56.456 6.73-8.554.57-20.192-1.47-29.013-2.32-27.951-2.7-48.359 1.55-72.395 15.47-8.302 5.17-25.806 21.86-29.96 22.82l-.848-.53c1.793-4.59 8.062-9.91 11.802-13.22 18.463-16.35 39.723-25.25 63.958-28.95"/><path fill="#272b30" d="M400.525 1736.73c-12.422-20.91-3.823-30.43-2.218-51.86 1.013-13.53-7.3-28.78 7.044-38.77 21.309-2.19 44.073-.35 65.65-.53l163.527.12 663.032-2.85c33.64.15 67.59 2.59 101.34 2.12 13.13-.18 27.09 1.96 40.48 1.85 26.32-.23 52.48-2.98 78.8-1.63 19.63 1.64 42.88.2 62.13 1.52 15.51 1.07 62.28-3.7 74 .86 1.77 2.34 2.78 4.39 3.45 7.26 2.29 9.81 4.84 27.24 5.3 37.29.34 7.2-.38 14.43 0 21.64.31 5.87 2.13 13.28 1.27 18.99-.24 1.57-1.15 3.05-2.06 4.31-11.92 16.38-97.34 2.98-118.53 3.24-17.77.22-35.37 2.98-53.2 1.43-17.97-1.56-34-7.38-52.52-6.91-20.98.53-41.23 6.85-62.16 7.82-25.38 1.18-50.98-2.99-76.36-3.46-13.74-.26-27.5 2.51-41.26 2.81-27.76.6-55.51-.84-83.27-.43-19.06.21-38.11 1.02-57.12 2.45-20.44 1.7-48.12 5.15-68 4.73-24.14-.5-49.38-8.61-75.511-7.99-30.886.73-54.487 7.28-86.022 6.28-28.46-.89-53.881-5.72-81.958-7.97-15.8-1.27-35.43 2.61-51.454 2.61-17.494-.01-34.542-3.5-52.266-4.78-15.798-1.13-33.924 2.45-48.114 1.58-34.716-2.13-52.706-8.49-88.666-4.2q-.22 1.365-.412 2.73c-5.908 1.73-12.87 2.74-19.006 1.98-.968-.6-1.921-.82-3.034-1.04l-1.574-.34c-19.866 1.98-40.852 1.52-60.927 2.5-25.314 1.24-57.21 9.44-80.381-3.36"/><path fill="#fff" d="M541.833 1737.59c7.914-1.24 16.079-2.28 24.026-3.33q-.22 1.365-.412 2.73c-5.908 1.73-12.87 2.74-19.006 1.98-.968-.6-1.921-.82-3.034-1.04z"/><path fill="#f0eff1" d="M1202.31 1682.42c27.27-2.42 56.63 3.16 84.05 5.09 13.83.98 30.61-.4 43.2.9l-.34 1.08c-13.37 5.77-85.12-4.26-103.72-4.59-27.25-.48-53.82 3.26-80.75 4.23-36.83 3.35-70.06 2.8-106.77-.14-4.44-.35-17.08-.29-19.98-2.21l.71-1.26c7.28-.81 19.14.78 26.83 1.35 52.77 3.93 104.06-.87 156.77-4.45m-660.557-5.26c24.281-2.68 50.577 13.32 76.528 7.66 4.102-.89 14.475-3.14 18.104-2.65l.029.93c-12.799 6.48-39.623 6.7-53.375 3.34-23.843-5.81-32.426-9.19-56.776-1.9-24.353 6.46-38.482-4.58-63.085-4.04-10.696.24-20.841 3.05-31.564 4.54l.022-1.33c14.384-6.86 40.488-7.22 55.664-3.55 24.63 5.97 30.712 3.68 54.453-3m260.699 4.31c53.025-2.49 108.47 1.28 161.718-.48 4.44-.14 9.815-.49 14.081.55l.404 1.91c-8.848 1.03-28.014.6-37.495.6l-65.977-.03c-9.494 0-66.374.79-71.868-.5zm723.258-.11c6.63-1.23 55.97 4.91 68.62 5.57 23.17 1.2 30.42-.11 53.17-1.93l1.3 1.3c-16.79 6.42-109.98 2.87-123.09-4.94m-45.74-10.1 1.02 1.27-.95 1.37c-14.1 3.27-40.07 13.33-52.83 13.44-26.46.22-30.13-5.1-57.91.33-.74-.47-.3-.09-.79-1.56 9.71-8.01 46.83.04 60.61-1.79 18.54-2.46 32.83-8.7 50.85-13.06m-800.777 7.3c9.539-1.48 63.663-2.03 68.291 3.74-3.895.33-19.068-.51-22.703-1.34-9.806-2.24-38.918 1.21-45.588-2.4"/><path fill="#272b30" d="M1435.04 1739.08c10.03-3.69 35.62 2.15 45.93 4.67-.82 28.45.92 56.46-1.76 84.79-.68 7.21.74 16.92-.93 23.79-5.82 3.03-36.86 3.07-41.89-2.44l-.35-1.89-3.26-.47c-2.24-1.26-19.91-16.59-23.24-19.35-3.3-16.21-1.42-69.41-.42-87 6.96-1.12 16.81-3.01 23.57-1.49l.73.25z"/><path fill="#272b30" d="M1409.12 1741.18c6.96-1.12 16.81-3.01 23.57-1.49-.91 6.99-.21 17.59-.19 25.12q-.075 25.56.24 51.12c.13 9 .85 22.98.04 31.6-2.24-1.26-19.91-16.59-23.24-19.35-3.3-16.21-1.42-69.41-.42-87"/><path fill="#c7c9cd" d="M1435.04 1739.08c.27 10.21 2.07 105.55 1 108.92l-3.26-.47c.81-8.62.09-22.6-.04-31.6q-.315-25.56-.24-51.12c-.02-7.53-.72-18.13.19-25.12l.73.25z"/><path fill="#272b30" d="M567.689 1737.5c16.166-1.29 29.062-1.69 45.307-.34-.13 33.32-2.319 66.51-1.026 99.87.223 5.76.099 11.5-.337 17.25-6.825 3.92-30.044 3.96-38.659 3.64-1.568-.06-2.248-1.21-3.549-2.47-1.176-4.15-1.317-5.79-1.789-10.14-1.704 2.16-.937 2.03-2.871 2.61-6.323-5.4-11.137-8.4-17.742-14.66-.884-32.6-4.572-61.25-.582-94.29 6.136.76 13.098-.25 19.006-1.98z"/><path fill="#272b30" d="m565.447 1736.99 2.242.51c-.501 23.04 1.277 38.38 3.281 60.78 1.064 11.89-3.429 32.58-3.334 47.03-1.704 2.16-.937 2.03-2.871 2.61-6.323-5.4-11.137-8.4-17.742-14.66-.884-32.6-4.572-61.25-.582-94.29 6.136.76 13.098-.25 19.006-1.98"/><path fill="#f0eff1" d="m565.447 1736.99 2.242.51c-.501 23.04 1.277 38.38 3.281 60.78 1.064 11.89-3.429 32.58-3.334 47.03-1.704 2.16-.937 2.03-2.871 2.61-.039-15.6 4.029-35.76 3.203-49.2-1.406-22.89-3.934-37.67-2.521-61.73"/><path fill="#d58a46" d="M1464.82 1427.42c-4.05 22.85-10.91 45.2-36.19 50.86l-13.39 15.52c-1.58 1.85-2.8 3.44-4.24 5.41-7.16 7.86-14.52 14.27-22.4 21.34 15.16-6.65 29.37-8.8 45.86-7.18 5.21.51 11.02-.47 12.84 5.2-1.05 3.43-2.43 4.99-5.69 6.55-16.57 7.95-44.22 13.32-60.67 2.47l-.87-2.75c.37-1.81-.49-12.61-.63-15.42-1.24-24.19 6.18-36.86 23.47-53.17.86 14.71 2.37 32.07-5.84 45.18-3.83 6.11-8.91 11.98-12.45 18.01 6.88-2.99 32.32-30.88 37.27-39.04 4.38-7.21 3.67-8.83 6.19-16.4 5.84-17.54 21.34-28.38 36.74-36.58m-927.274 117.05c9.45-2.07 50.572-6.79 50.785 7.29-6.097 8.72-48.06 20.06-59.29 13.54-3.989-2.32-9.901-6.96-13.659-10.08-9.245 2.64-17.811 5.93-26.804 9.27 5.687 3.32 8.872-.53 13.195 1.85 17.884 1.83 24.114 6.97 36.747 19.15-18.443 7.23-56.061 1.82-67.503-15.28 2.11-.97 1.65-1.16 1.96-3.62 5.506-2.7 30.44-10.95 37.922-13.69 2.394-.89 2.709-.89 4.651-2.3l15.842-8.37.552 2.37c1.07-.76 2.086-1.49 3.184-2.21z"/><path fill="#f4e6d5" d="M475.789 1568.42c2.98-1.01 9.869-3.38 12.789-3.93 5.687 3.32 8.872-.53 13.195 1.85-5.905.79-20.004 1.73-25.984 2.08m59.339-26.03 2.418 2.08c-1.592.35-5.7 1.7-6.94 1.22-.018-.07-.037-.13-.056-.2.327-.48.841-.61 1.394-.89 1.07-.76 2.086-1.49 3.184-2.21"/><path fill="#d58a46" d="M757.501 1571.83c-3.839-32.6 19.631-57.65 48.047-69.18-.428 2.46-.942 4.91-1.342 7.36a86 86 0 0 1-.962 5.01c-7.965 35.84-40.288 46.3-42.654 52.48.15.5.358.48.936.88l1.899 3.03c3.24-1.68 11.416-4.31 15.143-5.08l3.686 2.72c12.219.06 29.562 4.36 37.258 14.03 7.892 9.91-59.025 14.03-62.383-9.1.717-1.01.761-.93.372-2.15"/><path fill="#f4e6d5" d="M763.425 1571.41c3.24-1.68 11.416-4.31 15.143-5.08l3.686 2.72c-4.538.62-14.496 2.58-18.829 2.36"/><path fill="#d58a46" d="M1634.64 1541.6c.96.98 1.79 1.92 2.71 2.94 16.51-3.79 31.05-1.91 46.04 6.03-15.21 10.73-56.38 20.68-69.07 4.01-5.31.11-20.56 7.85-27.42 10.07a97 97 0 0 0 3.7 2.18c15.35 1.28 29.05 5.73 40.07 17.04-19.1 9.38-54.59 7.45-67.13-11.5 1.98.13 3.79-1.6 5.9-2.93l-1.3-1.53-.31-.67c7.56-.84 41.64-14.7 49.13-19.01l-.66-1.55c2.81-1.17 4.25-2.25 6.97-3.5l1.82.91c.52-.21 1.05-.41 1.58-.6 2.13.02 3.09.25 5.23.62 1.25-1.43 1.23-1.64 2.74-2.51"/><path fill="#efceb3" d="M1586.9 1564.65a97 97 0 0 0 3.7 2.18c-1.7.13-12.28 1.8-12.34.4.81-.81 7.21-2.34 8.64-2.58m29.4-17.97c2.81-1.17 4.25-2.25 6.97-3.5l1.82.91-1.2.81c-2.13 1.48-4.57 2.3-6.93 3.33z"/><path fill="#f4e6d5" d="M1634.64 1541.6c.96.98 1.79 1.92 2.71 2.94-2.48-.03-2.93-.05-5.45-.43 1.25-1.43 1.23-1.64 2.74-2.51"/><path fill="#d58a46" d="M1066.33 1551.68c3.98-16.91 13.99-54.33 36.84-53.75l.83 1.16c-.53 9.84-10.72 27.1-16.38 35.3-2.94 4.25-13.06 8.56-14.32 14.11l4.72-2.16c1.35.66 1.45.87 2.86.75 23.22-4.24 32.19-4.55 53.57 6.87l.72 1.51c-1.99 3.55-3.83 4.78-7.9 5.79-18.86 4.72-44.62 7.52-59.91-7.05-8.07 3.87-17.39 8.52-25.94 10.86l.12 3.09c-4.4.72-11.6 2.35-15.7 2.39l-1-.39-.91-1.49c1.11-.85 2.16-1.66 3.3-2.47 5.68.47 32.82-11.67 39.1-14.52"/><path fill="#f4e6d5" d="M1025.84 1570.55c5.07-1.87 10.43-4.06 15.58-5.48l.12 3.09c-4.4.72-11.6 2.35-15.7 2.39"/><path fill="#d58a46" d="M873.17 1451.93c3.235 17.85 4.003 36.11-6.706 51.89-4.11 6.05-8.324 8.57-11.026 14.5 2.208-1.07 2.494-1.08 4.321-2.58.886 1.22.855 1.62 2.385 1.51 20.496-6.64 33.942-6.91 55.053-1.51l-3.108 2.76c-14.023 12.36-47.043 19.1-62.698 7.47l-.658-2.32c2.516-2.43 2.583-2.33 3.845-5.44-4.351-26.98-.668-46.23 18.592-66.28m740.17 48.83c1.98 3.1.54 8.75-.1 12.23-3.49 18.85-16.09 33.53-31.87 43.69-3.72 2.4-10.89 7.17-13.54 10.56-3.35-3.32-.09-8.76.94-13.24 6.42-27.99 20.03-40.77 44.57-53.24"/><path fill="#d58a46" d="M813.506 1547.46c13.098-6.22 25.325-15.46 37.227-23.81l.658 2.32c-9.193 7.08-19.544 13.73-29.477 19.78 22.069-2.74 30.422-4.32 51.217 6.21-20.061 12.74-48.931 20.09-68.829 3.13-8.394 3.9-17.038 8.16-25.734 11.24-3.727.77-11.903 3.4-15.143 5.08l-1.899-3.03c10.401-1.82 34.626-11.81 43.548-17.15 2.844-1.32 5.57-2.39 8.432-3.77m-102.089 39.11c-8.342-29.56 21.241-51.92 43.915-63.55l-1.423 7.46c-5.686 31.01-21.087 38.23-40.934 55.91zm810.393-3.85c1.54-37.3 14.19-45.45 44.65-63.49-3.92 26.78-14.08 45.99-38.48 59.78-2.37 1.26-3.93 2.28-6.17 3.71m-1077.48-3.15c2.793-1.38 3.611-1.76 6.673-2.4 2.3 1.24 4.756 1.97 7.197 2.89 18.06 4.27 27.096 12.38 38.54 26.13-20.379-.25-46.664-5.17-57.258-24.88a222.7 222.7 0 0 0-47.089 27.62c-6.901 5.18-17.69 17.11-24.177 16.87l-2.425-1.74c-.306-2.05-.778-2.07.356-3.24 11.818-12.22 47.971-27.63 58.39-36.62l.905-.04c3.897-.78 13.113-4.83 17.189-6.51z"/><path fill="#f0eff1" d="M444.33 1579.57c2.793-1.38 3.611-1.76 6.673-2.4 2.3 1.24 4.756 1.97 7.197 2.89-4.647-.03-9.543.48-13.87-.49"/><path fill="#d58a46" d="M1021.5 1567.18c2.06-34.77 17.8-47.76 46.74-62.87-4.09 22.96-9.84 35.53-29.21 49.89-3.92 2.9-9.74 6.48-13.13 9.65l1.33 2.35c-1.14.81-2.19 1.62-3.3 2.47l-1.76.16z"/><path fill="#f0eff1" d="m1025.9 1563.85 1.33 2.35c-1.14.81-2.19 1.62-3.3 2.47l-1.76.16-.67-1.65z"/><path fill="#d58a46" d="M508.581 1509.03c1.267 1.81.95 2.26.399 4.47-.353 1.51-.758 3-1.214 4.48-7.02 22.78-23.466 37.8-44.329 48.44-1.854-3.55-.676-6.98-.188-10.91 3.074-24.77 24.157-37.87 45.332-46.48m818.519 1.86c11.51 1.3-18.9 43.72-25.94 44.79-1.75.26-14.36 9.76-16.55 11.84-.22.2-1.49 1.52-1.58.2-2-30.12 19.66-47.81 44.07-56.83m24.96 34.69 3.34 2.6c20.42-.95 28.96-1.68 45.95 10.92l-2.75 1.86c-14.58 9.72-35.39 9.55-52.09 5.89-6.24-1.36-10.68-5.98-14.79-10.64 5.17-1.52 7.73-5.67 12.23-6.5.84-.37 1.72-.74 2.53-1.17z"/><path fill="#f4e6d5" d="m1352.06 1545.58 3.34 2.6c-3.78.7-7.61 1.34-11.45 1.53.84-.37 1.72-.74 2.53-1.17z"/><path fill="#d58a46" d="M572.188 1518.22c19.98-10 40.479-7.43 60.383 1.22a61.82 61.82 0 0 1-45.068 13.24c-9.753-.98-16.997-2.56-25.493-7.63.818-.96 1.513-1.78 2.294-2.77 2.134-2.16 3.594-3.89 6.146-5.52z"/><path fill="#efceb3" d="m570.45 1516.76 1.738 1.46c-3.026 2.02-3.259 2.2-6.511 3.5l-1.373.56c2.134-2.16 3.594-3.89 6.146-5.52"/><path fill="#d58a46" d="M1289.46 1571.34c3.81-1.58 4.52-2.05 8.55-2.92l4.15 2.6c18.69 0 36.39.82 50.78 15.31.84.83 1.65 1.69 2.45 2.56-.61.27-1.23.54-1.85.81-.3.14-.61.29-.91.44-12.23 5.67-30.32 4.29-42.65-.84-11.06-4.61-14.94-7.5-21.57-16.95z"/><path fill="#f4e6d5" d="M1289.46 1571.34c3.81-1.58 4.52-2.05 8.55-2.92l4.15 2.6c-4.01.1-8.92.61-12.7.32"/><path fill="#d58a46" d="M1041.54 1568.16c23.85-1.34 32.42.87 49.47 18.83-15.7 3.45-25.89 4.41-41.78.13-13.95-3.75-16.15-5.34-25.78-15.31l1.39-1.65 1 .39c4.1-.04 11.3-1.67 15.7-2.39m-57.639 4.49c.539-25.33 18.189-35.09 38.149-45.16l-.24.9c-6.35 24.13-9.13 34.22-28.603 49.56l1.342 2.78c-3.062 1.3-4.156 1.75-7.358 2.63-4.297.53-2.853-6.85-3.29-10.71"/><path fill="#f0eff1" d="m993.207 1577.95 1.342 2.78c-3.062 1.3-4.156 1.75-7.358 2.63 2.454-2.52 3.201-3.29 6.016-5.41"/><path fill="#d58a46" d="M424.537 1584.2c-4.367-30.01 11.727-46.32 38.454-57.33-9.855 33.53-12.41 34.9-37.549 57.29zm855.663-57.24c-2.65 23.43-10.66 38.88-28.91 53.63-2.66 1.71-3.82 2.91-6.03 5.17-2.87-4.6-.86-13.02-.44-18.27 1.53-19.07 19.84-32.6 35.38-40.53m-143.74-74.26c3.19 3.04 2.21 6.76 2.95 10.71 4.44 23.43-5.48 37.47-20.21 53.44-3.25-3.55-3.43-11.8-3.2-16.35.94-18.67 6.86-34.87 20.46-47.8m533.03 64.82c20.59-6.7 32.41-8.49 53.54-1.38-15.7 15.79-33.01 20.32-54.52 14.72-3.77-.99-5.4-2.03-8.25-4.54 3.1-2.08 7.19-5.78 9.23-8.8m-543.25-.14c14.88-5.51 35.73-6.26 50.25.89 2.72 1.34-2.41 4.91-3.09 5.51-10.43 9.34-46.84 13.48-57.65 4.02 3.67-5.62 7.71-6.36 10.49-10.42m32.78-39.24c5.03-25.47 21.8-36.84 44.03-46.82-.73 2.56-1.49 5.12-2.29 7.66-4.39 14.05-17.35 32.07-30.52 39.37-4.46 2.47-5.93.02-9.99 1.6l-1.24.08zm522.86-25.34c3.17 3.16 3.65 13.87 3.77 18.21.43 16.2-8.75 30.44-19.02 42.19l-.67.78c-8.68-7.31-1.21-36.77 3.76-45.4 4.57-7.93 4.99-10.27 12.16-15.78m-1079.025 23.65c-5.081-12.74 16.229-35.28 25.726-41.88 4.655-3.24 8.648-4.89 13.771-7.03-4.487 16.9-12.317 36.33-27.664 47.09-1.42.99-7.23 2.35-9.521 3.21zm291.697 1.15.222-1.5c-.22-22.9 16.132-40.85 36.139-49.55-3.215 17.01-9.71 37.33-24.508 48.15-3.46 2.52-6.712 1.95-10.473 3.76zm-384.289 73.88c-1.498-10.33 4.143-27.35 11.008-34.24 3.103-3.11 29.517-29.85 25.005-11.75-5.983 24.01-14 30.06-31.559 43.25l.833 1.86c-1.942 1.41-2.257 1.41-4.651 2.3z"/><path fill="#efceb3" d="M510.263 1551.48c1.474-.93 2.959-1.85 4.454-2.74l.833 1.86c-1.942 1.41-2.257 1.41-4.651 2.3z"/><path fill="#d58a46" d="M841.918 1494.49c-3.488 24.46-9.458 34.5-28.889 50.38l.477 2.59c-2.862 1.38-5.588 2.45-8.432 3.77l-.281-1.96c3.308-26.81 12.895-42.95 37.125-54.78"/><path fill="#f4e6d5" d="m813.029 1544.87.477 2.59c-2.862 1.38-5.588 2.45-8.432 3.77l-.281-1.96c4.053-1.02 4.607-2.08 8.236-4.4"/><path fill="#d58a46" d="M1616.3 1546.68c3.48-26.86 14.17-40.85 37.27-54.58-2.43 21.5-5.23 27.99-20.44 43.42l1.05 3.31c-1.64 1.56-5.36 3.38-7.51 4.66-.53.19-1.06.39-1.58.6l-1.82-.91c-2.72 1.25-4.16 2.33-6.97 3.5"/><path fill="#f0eff1" d="m1633.13 1535.52 1.05 3.31c-1.64 1.56-5.36 3.38-7.51 4.66-.53.19-1.06.39-1.58.6l-1.82-.91c4.34-2.79 6.07-4.23 9.86-7.66"/><path fill="#d58a46" d="M1701.61 1474.21c-1.41-6.52 2.69-17.02 6.12-22.37a68.94 68.94 0 0 1 28.04-24.67c.56-.27 1.13-.55 1.69-.82l-1.61 8.14c-1.98 10.01-5.03 18.04-10.76 26.51-7.34 10.85-9.16 12.69-21.09 15.69zm-977.593 111.38c3.383-1.16 6.507-2.18 9.854-3.51l1.98 2.87c21.697 2.32 29.626 6.36 36.983 26.7-18.48-1.13-42.88-4.99-51.755-23.67l2.252-2.06z"/><path fill="#f4e6d5" d="M724.017 1585.59c3.383-1.16 6.507-2.18 9.854-3.51l1.98 2.87c-5.275.91-6.648 1.02-11.834.64"/><path fill="#d58a46" d="m579.143 1454.23 1.419 7.9c2.552 14.72 3.325 31.03-5.545 43.7-3.08 3.36-7.274 7.25-9.565 10.83l-.322.49c-.451 0-.782.2-1.22.39-8.619-19.89 3.592-46.92 15.233-63.31m837.867 40.71c17.47-14.89 29.06-15.47 51.1-17.12-8.23 13.1-15.25 20.45-31.13 23.98-8.44 1.88-17.34 3.66-24.52-.85-.5-.64-.87-1.17-1.46-1.74 1.44-1.97 2.66-3.56 4.24-5.41z"/><path fill="#f4e6d5" d="M1411 1499.21c1.44-1.97 2.66-3.56 4.24-5.41l1.77 1.14c-2.16 2.55-2.77 3.23-4.55 6.01-.5-.64-.87-1.17-1.46-1.74"/><path fill="#d58a46" d="M1537.93 1581.84c21.63-2.39 38.34 7.4 45.85 27.94-17.6-3.5-41.5-7.61-52.11-23.41l-.75-1.12c3.21-2.23 4.94-1.45 7.01-3.41m-937.821-93.22c18.01-10.48 28.05-11.29 48.741-11.65-6.036 6.24-14.462 14.82-22.148 18.65-8.728 4.34-26.956 7.92-36.176 4.22l-1.383-1.91c1.792-2.45 4.614-5.81 6.666-8l1.42 1.11 1.405-.98c.61-.86.568-.99 1.475-1.44"/><path fill="#efceb3" d="m595.809 1489.93 1.42 1.11c-2.752 3.34-4.452 5.09-6.703 8.8l-1.383-1.91c1.792-2.45 4.614-5.81 6.666-8"/><path fill="#d58a46" d="M1151.37 1494.54c16.83-13.29 30.72-12.35 50.9-12.69-17.14 19.92-34.28 25.78-60.22 21.63.72-.91 1.43-1.83 2.13-2.75 1.05-3.55 2.28-4.6 5.37-7.16z"/><path fill="#f4e6d5" d="m1149.55 1493.57 1.82.97c-2.77 2.58-4.2 3.92-7.19 6.19 1.05-3.55 2.28-4.6 5.37-7.16"/><path fill="#d58a46" d="M890.107 1489.8c21.965-9.16 22.141-12.12 47.711-12.26l-2.766 3.47c-11.285 14.07-23.18 19.75-41.042 20.64-3.495.18-8.671 1.1-11.754-.74l-1.161-2.65c1.831-3.04 5.965-7.81 8.536-10.2z"/><path fill="#f4e6d5" d="m889.631 1488.06.476 1.74c-2.977 3.78-5.048 7.23-7.851 11.11l-1.161-2.65c1.831-3.04 5.965-7.81 8.536-10.2"/><path fill="#d58a46" d="M1265.05 1580.54c2.88 1.8 3.67 1.62 7.06 2.4 19.8 1.44 30.05 11.63 37.94 28.71-28.47-5.73-31.94-6.64-52.99-26.22 1.86-.74 3.74-1.45 5.62-2.13l-2.16-1.14 2.46-.52c.51-.29 1.5-.9 2.07-1.1"/><path fill="#f4e6d5" d="M1265.05 1580.54c2.88 1.8 3.67 1.62 7.06 2.4-3.28.07-6.13.1-9.43.36l-2.16-1.14 2.46-.52c.51-.29 1.5-.9 2.07-1.1"/><path fill="#d58a46" d="M1327.33 1554.31c5.25-29.28 11.61-41.59 38.51-54.97-3.69 14.4-8.9 28.64-19.98 39.11-4.98 4.7-11.15 9.29-15.73 14.2-.96.69-1.75 1.07-2.8 1.66m367.96-62.14c10.9-10.84 21.96-12.95 36.7-15.38 14.42-2.39 7.74 3.91.58 11.41-9.53 9.99-33.39 17.57-46.49 11.55.45-.41.91-.82 1.36-1.24 4.39-2 4.37-2.48 7.85-6.34m-699.432 91.74c1.39-1.02 1.568-1.39 3.02-1.63 20.062 1.49 28.352.59 43.612 19.21 8.92 10.87-10.11 5.98-14.95 4.27-12.56-4.42-27.3-7.7-31.682-21.85"/><path fill="#d89042" d="M1529.99 1581.36c11.59-4.78 26.22-9.72 38.15-13.45l1.3 1.53c-2.11 1.33-3.92 3.06-5.9 2.93-5.9 1.96-20.93 6.55-25.61 9.47-2.07 1.96-3.8 1.18-7.01 3.41-15.42 4.63-28.54 10.33-42.72 18.01-7.74 4.19-16.91 16.37-25.52 18.28l-1.39-1.03c.73-11.43 50.03-32.11 60.55-36.87l-.03-.92c2.24-1.43 3.8-2.45 6.17-3.71z"/><path fill="#f0eff1" d="m1527.98 1579.01 2.01 2.35c-2.71.79-5.4 1.59-8.15 2.28l-.03-.92c2.24-1.43 3.8-2.45 6.17-3.71"/><path fill="#d58a46" d="M983.155 1586.01c.011-5.67-.284-7.83.746-13.36.437 3.86-1.007 11.24 3.29 10.71 3.202-.88 4.296-1.33 7.358-2.63l.597 3.53c-12.45 6.56-38.594 19-47.048 28.93-10.655 12.51-23.57 12.9-15.215 3.59 7.782-8.67 39.003-24.52 50.272-30.77m-270.18.38c1.875-.4 3.642-.88 5.459-1.5l1.715-.56 3.182 1.59-2.252 2.06c-1.134-.67-1.609-.15-2.807.36-20.054 8.51-39.004 17.83-55.377 32.49-1.789 1.13-6.776 7.17-8.806 6.95-8.949-1.61-2.566-4.83-.272-7.99 9.039-12.45 50.433-25.66 57.6-33.22z"/><path fill="#d89042" d="m1380.07 1524.84.87 2.75c-9.87 5.65-19.03 12.93-28.88 17.99l-5.58 2.96c-.81.43-1.69.8-2.53 1.17-4.5.83-7.06 4.98-12.23 6.5-10.11 2.86-23.51 8.43-33.71 12.21-4.03.87-4.74 1.34-8.55 2.92l-1.05 1.01c-7.77 2.78-15.56 5.51-23.36 8.19-.57.2-1.56.81-2.07 1.1l-.51-2.21c20.01-9.31 43.74-16.65 64.86-25.12 1.05-.59 1.84-.97 2.8-1.66 20.75-6.54 32.76-18.54 49.94-27.81"/><path fill="#d58a46" d="M1255.2 1582.22c2.42-1.08 4.77-1.92 7.27-2.79l.51 2.21-2.46.52 2.16 1.14c-1.88.68-3.76 1.39-5.62 2.13l-2.05-.43c-3.01 2.02-10.03 4.39-14.11 6.65a180.6 180.6 0 0 0-35.62 25.13c-2.49 2.25-10.98 11.59-13.79 7.74-4.82-5.49.75-4.07 3.51-7.68 6.9-8.99 45.36-25.2 50.26-31.08 2.21-2.26 3.37-3.46 6.03-5.17z"/><path fill="#f0eff1" d="m1251.29 1580.59 3.91 1.63c-4.54 1.82-5.16 2.34-9.94 3.54 2.21-2.26 3.37-3.46 6.03-5.17"/><path fill="#d89042" d="M1255.01 1585c2.36-1.46 2.9-1.92 5.51-2.84l2.16 1.14c-1.88.68-3.76 1.39-5.62 2.13zm-95.99-106.86-.01 1.89 1.24-.08c-.77 1.52-1.49 2.45-2.47 3.86-2.69 3.13-5.53 6.58-8.23 9.76-3.09 2.56-4.32 3.61-5.37 7.16-.7.92-1.41 1.84-2.13 2.75-2.21-.05-14.65 12.16-15.81 13.9-2.78 4.06-6.82 4.8-10.49 10.42-.11-.66.01-.92-.39-1.2 1.93.05-33.82 20.02-34.48 20.49-1.41.12-1.51-.09-2.86-.75 25.67-16.89 48.06-28.3 68.17-52.94 4.11-5.04 8.6-10.31 12.83-15.26"/><path fill="#d58a46" d="m1701.61 1474.21 2.39 2.48c-2.63 4.42-6.43 9.37-9.7 13.34l.99 2.14c-3.48 3.86-3.46 4.34-7.85 6.34-.45.42-.91.83-1.36 1.24-5.41 6.93-10.37 11.76-16.59 17.77-2.04 3.02-6.13 6.72-9.23 8.8-2.58.41-21.23 12.93-25.62 15.28-1.51.87-1.49 1.08-2.74 2.51-2.14-.37-3.1-.6-5.23-.62 2.15-1.28 5.87-3.1 7.51-4.66a182.55 182.55 0 0 0 56.56-48.44c4.24-5.55 6.72-10.82 10.87-16.18"/><path fill="#f4e6d5" d="m1694.3 1490.03.99 2.14c-3.48 3.86-3.46 4.34-7.85 6.34 2.53-3.31 4.07-5.37 6.86-8.48"/><path fill="#d58a46" d="m602.855 1476.45 2.312 1.39c-2.488 4.78-5.667 8.25-9.358 12.09-2.052 2.19-4.874 5.55-6.666 8-4.471 5.09-13.691 14.14-18.693 18.83-2.552 1.63-4.012 3.36-6.146 5.52-.781.99-1.476 1.81-2.294 2.77-7.542 4.55-20.091 12.29-26.882 17.34-1.098.72-2.114 1.45-3.184 2.21l-.552-2.37c5.714-4.94 30.565-18.16 32.518-24.69.438-.19.769-.39 1.22-.39l.322-.49c2.291-3.58 6.485-7.47 9.565-10.83l1.979.62c10.224-11.02 17.447-16.08 25.859-30"/><path fill="#efceb3" d="m575.017 1505.83 1.979.62c-4.286 4.75-6.543 7.42-11.866 10.7l.322-.49c2.291-3.58 6.485-7.47 9.565-10.83"/><path fill="#d58a46" d="m894.552 1477.6 1.38.86c-2.055 3.99-3.455 6.22-6.301 9.6-2.571 2.39-6.705 7.16-8.536 10.2-5.327 5.98-13.102 13.54-18.951 18.99-1.53.11-1.499-.29-2.385-1.51 15.201-14.84 21.268-22.86 34.793-38.14"/><path fill="#d89042" d="M757.501 1571.83c.389 1.22.345 1.14-.372 2.15-7.8 2.27-15.15 5.71-23.258 8.1-3.347 1.33-6.471 2.35-9.854 3.51l-.686.33-3.182-1.59c6.35-2.64 31.124-12.27 37.352-12.5m264.669-3 1.76-.16.91 1.49-1.39 1.65c-6.48 3.47-17.43 7.29-24.572 10.47-1.452.24-1.63.61-3.02 1.63l-.712.35-.597-3.53c7.141-3.04 21.461-8.76 27.621-11.9m-579.539 8.82.267-.09c8.483-2.8 17.538-7.01 26.098-9.73l3.981-1.24c-.31 2.46.15 2.65-1.96 3.62-6.502 2.65-13.061 3.98-19.016 6.54l-.998.42c-3.062.64-3.88 1.02-6.673 2.4z"/><metadata><recraft-signature>{&quot;signed_by&quot;: &quot;recraft&quot;, &quot;signature_b64&quot;: &quot;3gmpqUaFh1zupBJ1dkdFy2slvRkvA/JAQ2g3GbC4eenTcL2ENQ1dQVHHe+rNjXo3j4xbiIMAE7Z4roEcegTuCQ==&quot;, &quot;signing_algo&quot;: &quot;Ed25519&quot;, &quot;generation_timestamp&quot;: 1777253483, &quot;identifier&quot;: &quot;6adb9031-4d02-4ac7-8aec-13608799371a&quot;}</recraft-signature></metadata></svg>