<svg xmlns="http://www.w3.org/2000/svg" width="1024" height="1024" preserveAspectRatio="none" style="display:block" viewBox="0 0 2048 2048"><path fill="#3f474e" d="M260.993 643.84c5.579.993 24.149 8.465 30.339 10.83l75.678 29.482c-.023-5.167-.874-14.587 3.742-17.756 2.621.393 3.058 1.331 4.984 3.257 1.384 2.995-1.2 14.009-1.796 18.34 5.714 4.181 11.425 6.595 10.963 14.379-3.432 7.055-12.538 7.842-13.14 16.27-.715 10.013 17.091 15.418 16.276 24.331-.919 10.051-16.929 9.751-17.132 19.579.326 11.629 11.436 21.646 18.506 30.084-7.127 8.016-11.829 14.844-17.285 23.982 3.774 12.091 7.151 17.207 13.98 27.876-5.239 7.771-8.941 11.518-13.377 20.25 17.044 20.927 14.46 13.637-.779 36.529 3.778 8.994 8.495 15.08 13.415 23.436a536 536 0 0 0-15.077 17.703c5.267 6.512 9.534 11.627 13.985 18.691a709 709 0 0 0-12.715 19.355 579 579 0 0 1 13.291 21.332c-3.334 5.05-11.147 13.32-15.5 18.43 5.717 6.9 9.641 10.87 16.233 16.83-4.827 6.56-7.993 10.83-11.908 17.89 3.088 9.34 6.687 14.5 11.636 22.9-5.904 4.74-12.32 8.58-14.642 15.53.142 7.42 8.749 12.64 14.16 19.58l.662.87c-5.397 6.71-10.279 12.24-15.609 19.3 2.884 5.03 8.082 11.82 11.597 16.69l-.43 1.13c-2.682 7.21-5.507 11.51-9.447 18.14 5.077 7.3 8.511 12.03 12.288 20.03-5.969 5.78-9.447 9.48-14.753 15.84 4.928 7.64 10.131 11.85 16.56 18.23-3.86 4.81-7.765 9.59-11.713 14.33 4.158 4.73 8.845 8.38 13.668 12.44-4.126 5.65-11.297 12.71-16.53 19.52-.204.29-.695 2.08-.821 2.49 1.511 7.36 11.826 15.66 17.655 21.77-3.913 6.91-13.546 16.15-14.739 23.75-1.145 7.28 10.899 19.3 16.088 25.98-4.769 4-7.273 6.04-12.551 9.44.366 5.79 2.062 14.07-4.201 17.03l-2.108-1.41c-2.349-3.75-2.214-7.45-2.662-11.95-32.665 9.76-63.538 24.02-95.88 34.49-6.32 2.04-18.972 3.14-20.318-6.15-.807-5.58 1.636-14.69 1.098-20.68-1.371-26.66-2.01-54.6-1.851-81.15.126-21.21-2.304-35.07 7.334-54.13 1.366-2.71 2.003-18.22 1.86-21.94-.803-20.85 1.276-42.25-.786-63-1.316-14.04-9.885-38.66-9.207-51.09 1.615-29.61 11.588-55.08 10.67-85.98-.737-24.766-7.615-44.579-9.116-68.444.052-15.542 7.626-29.889 9.765-45.003 3.555-25.11 1.818-53.875.93-79.338-.314-9.014-3.729-15.498-10.535-20.785q.514-37.611 1.483-75.213c.587-25.968 2.66-40.671-4.891-65.752 3.163-2.681 9.001-6.205 12.653-8.565"/><path fill="#f7f7f6" d="M356.109 688.489c3.04.587 6.696 2.382 9.634 3.665-.1 1.233-.58 5.539-.566 6.384.143 9.117-5.033 13.168-6.665 22.358.729 3.8 2.998 5.334 5.812 8.13-1.645 9.02-.532 16.965-1.885 25.8-.493 3.221-4.106 1.525-5.632 7.142.652 3.76 3.099 6.006 5.587 8.995.393 12.839-.424 30.478 2.158 42.527-14.718 34.446 9.819 66.51-6.7 102.911-7.984 17.595-.53 45.829 4.796 63.913-7.934 33.866-12.657 43.926 1.065 78.226-4.974 21.77-21.475 53.96-2.616 73.81-1.065 14.24-.304 22.51-.154 36.47-.674 8.02-4.704 17.04-4.131 25.07 1.709 23.99 9.841 46.36 4.669 70.5-.32 1.49-3.439 2.46-4.873 3.16-1.997 2.79-1.489 1.2-.983 5.1 2.313 3.17 3.776 3.59 7.223 5.4-.093 8.94 1.553 27.25.576 34.16-2.054 2.41-2.607 2.68-3.488 5.74 1.392 4.08 1.89 3.49 5.594 6.84.692 7.65 1.27 15.3 1.732 22.96l-12.001 6.45-5.958-6.97c-9.148-14.07-22.97-34.37-24.386-51-.56-6.58 1.061-20.7-.506-26.79-3.83-14.88-10.583-23.5-8.3-40.23 2.099-15.38 11.478-22.31 10.632-38.48-.974-18.6-11.945-30.48-11.253-49.24.516-14.01 9.552-25.65 9.459-38.72-.097-13.82-10.598-27.56-9.11-42.23 1.703-16.79 11.913-24.13 12.107-42.25.198-18.473-8.589-26.451-11.339-43.37-2.529-15.563 8.745-28.448 8.78-43.621.036-15.692-8.588-25.052-9.128-41.335-.573-17.299 12.35-29.165 10.27-44.956-.808-6.128-5.375-16.677-7.234-23.387-4.771-17.219 1.872-28.101 6.176-44.326 3.411-9.142-1.967-22.266-.809-30.88 2.754-20.499 21.306-40.041 31.447-57.926m14.304 94.11c7.81 5.034 9.962 8.331 5.137 15.067-.815 1.09-2.762 4.11-3.935 4.954-.119.086-.39-.063-.393-.07-1.011-2.282-.784-17.969-.809-19.951"/><path fill="#f7f7f6" d="M368.331 912.743c1.839 1.916 5.797 8.102 6.769 10.762.499 1.363-2.333 4.474-3.153 5.42l-1.16 1.391c-7.494 9.125-2.832-14.652-2.456-17.573m-.977 193.877c9.705 5.77 8.805 7 3.455 13.79-.639.93-1.455 2.41-2.469 2.93-.224.12-.673.1-.763-.07-1.133-2.13-.31-14.63-.223-16.65m-.275-153.95c4.942 3.887 9.744 6.903 5.951 12.339l-.979 1.601c-.827.787-2.037 2.599-3.088 2.343-1.693-1.669-1.864-13.623-1.884-16.283m3.142-119.867c2.292 2.845 3.832 6.955 5.575 10.228.986 1.853-1.838 5.658-2.675 7.181-5.924 5.779-3.1-14.839-2.9-17.409m-1.051 158.681c4.025 2.647 7.89 7.545 4.949 12.286l-.81 1.38c-.783.65-2.854 3.03-3.941 2.51-.914-1.41-.272-13.875-.198-16.176m1.828 295.926c8.553 5.77 7.679 6.06 2.825 12.71-.401.67-.923 1.67-1.574 2.08-.155.1-.632.21-.708.07-.938-1.77-.52-13-.543-14.86m-1.841-255.75c7.113 5.8 7.036 6.46 2.726 13.22-4.413 4.96-2.743-11.23-2.726-13.22m-1.051 147.87c5.134 3.88 5.968 6.27 3.413 11.74l-.618 1.5c-5.304 3.54-2.939-9.94-2.795-13.24m3.697-443.217c6.827 4.261 8.411 4.109 3.985 9.087-7.524 4.822-4.892-2.047-3.985-9.087m-2.238 331.157c6.22 7.51 6.595 7.66 1.363 13.68-4.602 1.74-1.646-10.16-1.363-13.68m1.216-192.929c7.05 6.011 6.392 5.952 2.509 13-4.929 2.645-2.591-9.247-2.509-13m-2.576 270.259c3.403 2.96 5.978 5.84 4.069 10.22l-.674 1.63c-6.018 3.93-3.537-7.53-3.395-11.85m1.059 72.76c5.483 3.15 6.916 4.28 3.943 9.54l-.762 1.54c-3.882 3.62-3.007-8.59-3.181-11.08m1.762 29.77c5.084 2.85 6.827 2.68 4.079 7.68-6.661 4.53-4.263.71-4.079-7.68"/><path fill="#ebe9e8" d="M374.187 696.759c4.081 2.596 4.141 2.639 1.943 6.729-5.028.4-3.111-2.296-1.943-6.729m.15 640.721c3.456 1.6 4.001 1.75 4.252 5.67-4.06 1.34-3.869.42-4.06-3.73z"/><path fill="#3f474e" d="M1392.15 644c23.22-1.584 10.1 21.408 10.15 33.202.17 38.554 2.62 77.536 1.8 116.079-18.57 20.092-10.78 74.652-9.71 101.323.48 11.83 10.18 32.31 9.36 45.174-1.69 26.318-10.1 48.265-9.86 75.392.24 15.82 1.86 31.6 4.86 47.14 1.5 7.95 7.27 32.51 6.31 39.56-3.54 25.86-13.86 47.98-12.05 75.13 1.66 24.94-5.34 50.65 11.83 71.56-1.15 17.24-.94 34.95-1.56 52.26-.68 19.04-.87 38.19-1.38 57.23-.64 8.64 7.59 23.42 4.29 31.48-4.19 10.22-26.82 3.54-34.12.82-7.78-2.89-14.6-5.35-21.84-8.09-21.05-8.06-42.03-16.29-62.94-24.7-.12 5.77.54 15.54-4.99 18.92l-1.4-.83c-3.72-7.61-2-11.59-.57-20.21-14.55-7.45-11.11-13.4-.01-22.57 1.27-6.29 2.1-13.82 2.96-20.28-4.57-6.34-9.26-12.5-12.88-19.43 3.23-4.39 7.15-8.14 10.97-12.06 12.49-11.67-2.21-18.46-10.48-26.1 6.22-7.47 9.4-11.2 13.39-20a584 584 0 0 0-13.54-12.8c5.32-8.45 10.7-13.47 16.29-23.5-22.15-18.02-11.73-13.96-3.62-34.85l.62-1.6c-3.34-4.25-6.17-8.19-9.29-12.59 4.36-6.89 6.23-9.73 9.19-17.24-3.02-5.48-8.3-11.62-12.31-16.62l5.25-6.96c17.6-22.94-1.59-20.4-7-27.23-1.08-5.83 7.7-13.74 11.94-21.72l.69-1.31c-18.32-25.47-9.56-12.94 4.06-35.2l.75-1.24c-7.97-9.32-16.85-13.04-9.27-26.453 2.01-3.552 4.25-9.044 6.03-12.887q-5.31-9.04-10.74-18.004c2.81-5.232 8.7-13.376 12.22-18.546-3.07-5.68-9.59-13.255-13.71-19.574 5.77-9.264 7.65-13.339 11.28-23.499-3.7-5.465-9.1-12.189-13.18-17.568 5.27-6.567 8.84-10.677 12.77-18.063-3.32-6.451-8.11-13.721-12.01-19.981 7.23-15.368 20.19-22.749 6.49-39.039-2.58-3.079-5.46-8.207-7.55-11.768 5.12-9.026 15.03-17.419 16.54-27.866 1.32-6.683-19.42-14.576-17.14-20.572 2.3-6.015 17.77-16.777 16.83-25.301-.43-3.865-6.28-7.34-9.52-9.705-12.88-9.405-2-19.003 5.65-26.773-2.04-5.994-6.42-15.457-1.01-20.591l1.06.305c5.88 5.299 5.42 8.55 6.55 16.406 34.83-11.608 69.77-27.579 103.55-38.661"/><path fill="#f7f7f6" d="m1303.23 686.048 1.36.617c7.62 14.565 25.42 38.678 25.47 53.724.03 10.875-2.05 25.29-.31 36.814 1.95 12.906 6.8 23.794 6.25 37.115-.5 11.913-5.16 24.669-4.83 36.176.37 12.928 7.78 28.323 6.54 41.519-1.33 14.213-7.42 22.543-7.97 37.704-.47 13.044 10.21 33.534 8.82 43.258-2.57 18.032-10.41 24.402-10.08 45.365.36 22.05 11.62 27.58 12.22 46.66.32 10.17-9.15 26.36-9.71 37.65-.75 15.03 7.13 25.4 8.16 40.35 1.3 19.04-11.4 31.08-10.17 50.11.78 11.93 6.02 20.85 8.4 32.27 3 14.44-3.56 26.37-5.85 40.23-1.43 9.73.57 19.65.2 29.42-.46 12.05-7.5 22.25-13.79 32.05-5.23 8.15-10.04 16.55-15.41 24.59-3.65 1.67-1.67 1.38-6.27-.12-3.13-1.43-3.21-1.37-5.98-3.7-1.2-3.1-1.38-3.39-1-6.86l1-9.78c3.34-2.21 6.93-4.1 8.32-7.71-1.13-3.78-2.71-4.01-6.27-7.17-.72-7.98.57-28.34.78-38.03l8.77-7.22-7.19-6.71c.25-5.61.18-10.6.11-16.18-.37-30.09 9.34-57.05-2.04-86.73 3.97-13.51 3.48-16.87-.17-30.4 13.3-24.45 8.97-47.27-2.36-71.6 14.24-25.94 12.8-49.85 1.78-76.447 9.86-26.041 15.63-55.232-1.04-80.117 3.57-15.143 5.24-20.85 1.97-36.248 5.38-13.779 7.59-24.602 4.52-39.761-.57-2.838-4.15-10.348-4.16-11.668-.09-13.024-.08-26.898-.3-39.857 4.01-2.985 5.2-3.611 5.93-8.27-1.29-3.696-3.7-5.106-6.75-7.67.81-9.156.82-18.964 1.01-28.202 2.77-2.39 5.57-4.754 8.39-7.093-2.89-2.286-6.2-4.644-9.18-6.867-.22-7.72-1.05-18.701-2.46-26.229 5.13-2.468 7.97-3.329 13.29-4.983m-19.07 152.862 3.24.783c-.42 6.425-.28 13.323-.37 19.815-3.34-4.52-5.22-7.263-8.24-11.962 1.85-2.93 3.68-5.587 5.37-8.636"/><path fill="#f7f7f6" d="M1287.39 915.624c.83 2.2 5.82 23.63-.2 18.434-2.12-2.973-4.35-5.759-6.42-8.676 2.17-3.273 4.38-6.526 6.62-9.758m-.65 78.083c2.58 2.512 4.09 18.673 1.1 17.613-2.2-2.51-4.21-4.6-6.53-6.99 1.75-3.6 3.66-7.032 5.43-10.623m1.1 217.213c1.18 1.33 1.86 16.29-1.92 14.36-8.04-5.89-4.72-5.29 1.92-14.36m-.15-254.157c1.97 1.918 1.42 16.744-1.83 13.589-6.43-6.952-5.62-5.753 1.83-13.589m-3.14-167.939c1.12 1.274 3.33 17.546-.94 14.639-6.01-7.166-5.79-6.669.94-14.639m2.73 384.856c.52 1.69 4.17 17.17-.4 14.7-7.33-7.19-5.51-5.48.4-14.7m.49-139.69c1.68 2.15-1.24 13.33-2.9 15.15l-.89-1.33c-5.33-7.8-3.05-6.99 3.79-13.82m-1.11 73.67c.6 1.86 2.85 16.15-1.54 13.43-5.14-6.9-4.83-6.1 1.54-13.43m-1.91-37.85c1.41 1.45 4.04 11.46.4 12.53-7.13-5.46-5.78-4.33-.4-12.53m1.86-192.059c.11 1.971 1.07 16.141-2.66 13.785-.42-.646-.85-1.287-1.28-1.923-4.02-5.79-.83-6.444 3.94-11.862m-1.75-136.777c1.2 1.44 1.35 11.118-1.87 12.024-6.06-5.726-4.24-4.703 1.87-12.024m1.76 504.746c.84 4 2.67 12.76-3.06 12.02-4.03-5.67-1.83-5.84 3.06-12.02m-1.83 42.16c1.11 2.51 1.09 10.34-.96 12.36-4.94-6.91-5.34-6.06.96-12.36m-3.09-590.149c1.81 1.735 3.56 10.666-.44 9.59-5.44-5.154-4.99-4.048.44-9.59"/><path fill="#ebe9e8" d="M1286.48 1143.76c2.57 2.5 1.25 6.93.23 9.96-3.87-4.96-3.47-4.5-.23-9.96m-2.32-304.85c.54-1.14 1.51-3.598 2.45-4.356 1.07-.039.77 4.632.79 5.139z"/><path fill="#a3a2a8" d="M1280.09 1343.42c.49.4.33.31.25 1.02-.16-.13-.32-.25-.48-.38-.01-.39-.05-.16.23-.64"/><path fill="#3f474e" d="M1435.86 646.956c7.87-.477 90.13 31.641 103.38 37.452 1.3-6.198 1.18-10.734 7.1-14.098 6.24 2.427 2.19 13.119.9 17.76 27.69 24.022 6.15 21.272-1.68 35.629-1.34 9.292 11.72 14.382 17.42 25.063-.16 7.12-14.04 12.827-19.75 20.962-3.31 11.66 15.97 19.891 17.66 30.462.83 5.176-11.52 19.44-15.19 24.445 18.53 31.718 15.82 18.77.61 48.898 4.9 6.086 9.07 9.951 13.22 16.827-6.51 9.188-9.88 13.442-14.02 23.955 13.14 21.499 18.39 13.08-1.83 34.878 12.76 21.448 18.51 15.062 2.01 39.419 14.96 20.262 15 19.032-1.74 37.122 5.11 6.27 10.1 9.79 14.92 17.13l-13.26 17.48c3.78 6.42 9.35 13.67 13.83 19.81-4.36 5.1-13.21 11.96-18.73 16.89 4.96 6.83 11.14 11.34 15.4 17.91.02 6.03-7.52 12.13-11.94 18.5l-.77 1.12c9.54 20.08 15.44 12.25.91 34.29 2.89 4.85 9.79 13.58 13.43 18.62-3.86 5.08-10.59 11.25-15.34 15.88 3.78 6 11.4 14.11 16.29 19.59-2.94 4.76-8.14 10.36-11.93 14.75 19.79 16.75 5.05 15.99-4.75 32.52 3.42 8.09 12.4 15.08 18.86 22.42-3.98 6.2-10.83 14.08-15.65 19.97 3.04 11.74 5.13 11.58 11.69 20.94 2.46 3.51 3.74 5.9 2.86 10.17-2.04 3.59-5.03 4.95-8.57 7.24 1.07 5.91 4.14 15.51-2.33 18.85l-2.21-1.49c-2.66-4.04-2.55-8.52-3.06-13.48-17.97 7.81-92.98 40.03-107.98 38.19-3.19-.39-5.76-2.05-7.44-4.85a10.4 10.4 0 0 1-1.44-5.65c.16-4.95 1.46-10.99 1.29-16.13-.74-22.96-1.02-45.61-1.08-68.6-.03-12.9-.43-26.14-.09-39.17.14-5.27 7.33-18.16 7.69-22.93 2.05-27.82 3.91-61.64-.86-88.92-2.1-12.06-9.12-34.26-9.07-43.8.11-24.31 10.27-50.3 11.07-75.43.62-19.38-1.45-35.028-4.99-54.006-2.01-10.816-4.81-20.982-4.66-32.292.93-15.414 7.84-30.053 10.25-45.221 2.11-13.248 1.92-26.878 1.76-40.242-.19-15.104.93-30.606-2.59-45.326-1.53-6.37-4.02-10.057-7.66-15.163-1.98-39.075 4.11-81.147 1.65-120.373-.36-5.805-3.38-14.961-5.09-20.774 2.84-2.295 8.19-5.238 11.5-7.197"/><path fill="#f7f7f6" d="M1532.43 690.622c1.67.74 4.44 1.487 4.75 2.813 1.58 6.845 1.1 20.207-1.27 26.618-2.37.836-2.4.808-4.45 2.226l-.38 2.731c1.2 3.69 3.28 4.907 6.25 7.458-1.69 9.934-2.2 21.169-2.11 31.24-4.65 3.698-5.99 3.9-5.1 9.918.72.703 4.36 4.363 4.35 4.989-.16 14.749 1.27 33.156.9 47.378-.14 5.726-5.14 16.036-4.86 22.451.42 9.75 2.55 16.275 6.42 24.482-2.6 16.318-3.57 23.685-.63 39.768-13.26 24.465-8.68 49.44 1.76 74.095-11.72 22.901-13.09 52.651.16 75.181-12.86 30.68-11.74 44.59-5.48 75.83 1.81 9.05.37 20.17 2.91 32.06-8.06 18.1-7.57 52.03 1.78 68.94-2.12 9.01-2.4 14.59-2.68 23.76-2.49 2.6-5.38 5.34-5.45 8.84 2.46 3.63 2.01 2.6 6.64 4.74.49 7.92 1.87 23.98 1.13 32.32-.15 1.61-4.29 3.13-4.37 8.55 1.38 3.48 3.6 4.41 6.76 6.53l1.99 23.66c-5.45 3.06-7.41 3.79-13.16 5.83l-5.4-8.17c-6-8.13-16.89-23.36-20.17-32.8-3.8-10.96-1.01-31.19-3.45-43.01-2.62-12.69-9.89-23.55-8.12-37.37 2.13-16.69 11.19-24.44 10.4-42.58-.8-18.33-11.97-28.77-11.24-46.88.59-14.44 9.42-24.02 9.28-38.69-.12-13.87-10.24-29.23-8.69-42.27 1.9-15.95 11.64-20.72 12.02-39.39.42-20.55-10.08-30.474-11.17-49.106-.75-12.795 9.72-26.002 9.8-39.995.08-16.117-9.24-26.618-9.35-42.384-.09-13.412 9.3-24.995 10.43-37.954 1.23-14.16-8.5-27.493-9.19-41.338-.59-11.724 7.03-22.209 8.54-33.843 1.23-9.403-1.9-19.796-2.32-28.406-.92-18.973 20.43-45.08 32.77-58.222m10.57 98.847c3.02 2.258 8 8.635 10.91 11.846-2.06 3.137-3.66 5.1-5.9 8.052-1.73 2.021-3.34 4.107-4.95 6.223q-.165-13.06-.06-26.121m.38-51.858c3.69 2.668 12.71 10.299 7.93 14.694l-1.04 1.003c-1.12.83-5.01 4.089-5.94 4.469-2.16-.589-.99-17.56-.95-20.166m-.3 99.068c3.57 3.14 6.22 9.627 8.55 14.021-2.02 2.325-3.33 3.641-5.11 6.186-.47.994-2.32 5.251-3.02 5.631-1.12-1.035-.54-22.976-.42-25.838"/><path fill="#f7f7f6" d="M1539.89 1109.41c6.02 4.3 9.98 5.92 4.86 11.32l-1.26 1.38c-7.73 7.55-4.2-7.75-3.6-12.7m1.26-149.621c7.59 6.929 8.52 7.495 4.58 14.624-6.89 8.2-4.62-10.756-4.58-14.624m1.57 37.825c1.71 1.577 6.38 7.406 6.59 9.296.09.81-.15 1.62-.67 2.25-.65.79-1.3 1.58-1.96 2.37-.2.14-3.74 3.12-4.01 2.16-1.19-4.27-.61-11.76.05-16.076m.58 72.826c6.82 4.85 7.18 8.4 1.99 13.62-1.04.36-2.67 1.28-3.74 1.23-.99-1.42 1.3-12.54 1.75-14.85m2.96-372.876c7.9 5.037 8.19 6.297 2.66 12.126-7.28 5.578-3.44-7.834-2.66-12.126m-2.37 185.016c6.05 5.521 7.51 6.893 3.13 12.636l-1.22 1.621-.66.854c-4.31 5.542-1.29-14.836-1.25-15.111m-2.02 41.949c6.46 5.142 8.52 6.828 3.77 11.991-7.86 5.57-4.58-5.539-3.77-11.991m.97 112.381c8.38 6.82 7.53 6.16 2.31 13.56-4.08 7.12-2.35-13.25-2.31-13.56m-1.59 141.97c7.24 6.13 7.82 7.12 2.67 12.96-6.62 5.67-2.98-8.41-2.67-12.96m.46 35.7c5.31 4.85 8.13 6.28 5.6 12.5-.91.48-3.12 1.94-3.72 2.12-2.01-1.48-1.83-12-1.88-14.62m2.74 71.01c6.5 4.78 8.73 5.82 4.92 11.62-.94.82-2.57 2.81-3.84 2.98-.53-.92-.88-12.42-1.08-14.6m-3.76-140.14c5.72 5.14 6.24 6.13 3.63 12.25-.72.34-2.37 1.45-2.99 1.08-.68-1.51-.6-11-.64-13.33m3.42 99.96c5.7 3.63 5.28 4.56 2.33 9.68-.39.12-1.24.5-1.81.49-.47-.01-.86-.3-1.12-.68-1.11-1.64.35-7.59.6-9.49"/><path fill="#ebe9e8" d="M1547.61 1334.63c2.37 2.12 4.64 3.43 3.3 6.49-3.21 2.93-2.81-3.3-3.3-6.49"/><path fill="#3f474e" d="M614.994 645.276c5.256.539 7.508.946 11.509 4.336 3.974 7.306-3.209 17.7-3.236 29.255-.029 12.106.31 23.043.689 35.136q.779 24.966.947 49.943c.048 4.735.418 23.761-.277 27.216-2.334 11.61-9.571 21.256-9.448 34.997.209 23.423-1.643 49.82 2.241 72.788 2.286 13.515 8.782 30.45 9.408 43.313.441 9.075-4.984 29.132-7.013 38.758a193 193 0 0 0-3.72 30.212c-.663 18.24.973 36.49 4.871 54.33 1.676 7.85 7.162 29.54 6.875 37-1.451 18.73-10.324 35.49-11.309 54.58a547 547 0 0 0-.57 41.02c.405 17.25-1.344 35.2 10.202 49.28.553 35.59-2.176 71.48-2.49 107.1-.088 9.91 3.852 22.71 3.346 32.39-5.826 13.21-45.138-6.66-55.368-10.49a1154 1154 0 0 0-63.499-21.71c-.571 6.45-.159 11.85-4.714 16.46l-1.701-.49c-4.373-7.56-2.971-12.23-2.38-21.21-4.8-2.63-6.107-2.43-6.693-7.92 1.634-4.32 5.949-7.73 9.42-11.1.803-6.93 1.382-14.3 2.05-21.29-4.619-5.98-8.475-11.1-12.674-17.37 3.537-5.13 7.764-9.22 12.089-13.7 9.967-15.54-.027-15.13-8.264-25.13-1.163-6.25 6.176-13.98 10.398-21.44a614 614 0 0 1-12.121-12.96c6.421-8.23 10.311-12.8 14.848-22.24-4.812-4.23-9.383-8.61-14.033-13.02 7.91-8.16 9.161-9.26 12.598-20.04-4.045-5.68-6.381-9.2-9.783-15.26 5.087-6.59 6.316-8.86 9.374-16.23-21.203-25.44-6.478-15.15-.254-37.95 1.502-5.5-9.284-10.33-13.425-15.27-1.269-5.94 8.413-14.53 11.708-22.27-19.599-25.25-7.033-16.28 4.688-36.66l-13.425-15.76c4.418-9.808 6.268-12.838 9.007-23.349-2.536-4.893-7.39-11.986-10.508-17.653 6.208-7.497 7.912-10.016 12.948-18.407-4.152-5.635-9.588-11.922-14.106-17.407 6.588-8.8 8.086-11.999 11.63-22.094-4.954-6.457-7.715-10.087-11.694-17.094 3.075-4.656 8.063-10.143 11.905-15.82a691 691 0 0 0-12.838-19.742c8.31-13.893 10.537-17.224 14.92-32.943a578 578 0 0 1-14.896-21.113c4.159-9.222 15.883-19.722 16.547-29.24.44-6.305-16.889-9.626-16.155-19.281.854-11.24 15.545-13.044 15.131-22.992-.307-7.377-11.061-15.536-16.404-20.093 3.309-7.892 7.702-12.909 12.928-19.632-1.7-6.021-5.038-13.366-.802-18.776l1.791.171c5.918 5.209 5.741 8.501 7.454 16.226 22.65-7.034 52.038-21.729 75.325-29.582 8.866-2.99 17.564-7.564 26.953-9.783"/><path fill="#f7f7f6" d="m523.997 689.262.872.328c3.04 2.62 9.293 12.507 11.397 16.053 10.748 18.119 20.66 30.629 16.277 52.544-.931 4.65-1.783 16.22-.946 20.613 2.42 12.706 8.136 22.58 7.493 36.173-.614 12.965-6.271 24.156-6.076 37.228.202 13.589 8.548 28.748 7.19 42.319-1.428 14.262-7.818 22.331-8.414 37.697-.533 13.752 10.518 31.922 8.925 42.279-2.653 17.254-10.745 22.142-10.485 42.934.276 22.13 11.513 27.96 12.592 47.53.565 10.23-9.165 25.66-9.612 36.66-.619 15.21 7.803 27.3 8.468 42.77.815 18.94-12.489 33.59-10.231 53.19 1.123 9.75 6.155 18.2 8.44 27.65 3.479 14.39-3.015 25.37-6.117 39.05-2.25 9.92.895 21.03.215 29.76-1.345 17.29-19.006 39.92-28.46 55.44-6.407-1-10.024-2.03-16.001-4.36.41-4.43.957-14.28 2.545-17.95 4.738-1.96 6.134-1.62 7.085-6.69-1.893-3.84-1.706-2.81-6.109-5.42-2.097-4.01 1.05-30.71 1.119-38.27l7.203-8.26c-1.579-2.53-3.687-5.45-5.404-7.96.232-7.5-.527-15.42.017-22.82 1.756-23.9 7.367-53.45-1.492-76.5 3.028-12.7 4.007-16.9-.084-29.21 11.817-26.66 10.737-46.59-2.996-72.49 15.103-28.97 16.003-47.49 2.699-77.345 10.436-29.101 13.712-49.677-1.838-77.797l2.015-7.88c3.586-13.614 3.325-38.863 6.407-53.866 1.058-5.153-3.72-21.936-3.869-28.554-.276-12.253-.053-24.624-.099-36.92 2.097-2.263 4.076-4.633 6.086-6.977l-7.023-10.168c.439-7.133.341-20.495 1.43-27.858.173-1.172 3.391-.523 4.607-5.177-1.102-3.903-3.792-6.218-6.571-9.319-.974-10.071.328-16.191-2.119-26.3zm-16.194 149.571 2.544 1.866a398 398 0 0 0-1.587 22.353c-2.673-3.378-4.901-6.472-7.476-9.896 2.466-4.845 4.727-9.172 6.519-14.323m-.08-51.165c.628 1.919 2.438 18.524-.734 17.539-2.245-2.849-4.487-5.674-6.616-8.612 2.445-2.952 4.867-6.052 7.35-8.927m.985 128.187c1.031 1.887 3.338 18.159 1.526 18.686l-.918-.585a248 248 0 0 0-6.683-7.186 316 316 0 0 1 6.075-10.915"/><path fill="#f7f7f6" d="M509.574 1104.72c.327 1.9 2.684 21.48-3.272 15.68-6.497-7.65-3.222-6.31 3.272-15.68m.337-149.796c1.949 2.271.641 17.564-1.981 16.187a294 294 0 0 1-5.17-7.368c2.363-3.009 4.8-5.842 7.151-8.819m-1.134 76.976c1.654 1.88.888 15.83-1.932 14.21-6.241-8.02-5.665-6.94 1.932-14.21m.605-41.227c.832 2.819 2.875 16.377.943 17.737-.367.01-.116.04-.848-.17-7.082-7.24-4.101-7.27-.095-17.567m-1.377-248.68c1.121 1.305 2.432 16.214-1.51 12.687-7.853-6.092-5.798-4.343 1.51-12.687m-1.568 327.807c.724.87 5.87 13 1.075 11.47-7.439-6.5-7.809-4.88-1.075-11.47m3.328 139.23c1.074 1.17.819 12.32-2.812 13.52-5.799-6.35-3.968-4.82 2.057-12.54zm-1.185-328.337c.54 2.356 1.603 14.191-2.317 13.693a55 55 0 0 0-1.145-1.524c-3.703-4.727.197-7.486 3.462-12.169m1.259 295.247c1.444 1.71 2.243 9.85-.914 11.26-6.236-5.85-4.345-4.24.914-11.26m-1.995 66.96c1.307 1.44 2.698 10.97-.53 10.46-5.767-5.27-4.359-3.98.53-10.46m-3.13-544.042c1.664 2.193 3.558 8.087 1.052 10.409-5.96-4.688-5.816-3.721-1.052-10.409m-1.278 587.532c4.013 1.75 1.709 7.63 1.337 12.15-3.909-6.48-5.512-6.06-1.337-12.15"/><path fill="#ebe9e8" d="M508.483 1143.71c.836 4.22 1.121 5.37-.982 8.8-2.23-4.44-1.531-4.28.982-8.8m-.68-304.877c.149-.332.757-2.092 1.364-2.465.07-.043.158-.048.237-.072.766.529.836 3.606.943 4.403z"/><path fill="#3f474e" d="M1786.42 644.321c24.72 1.951 9.23 17.252 9.43 34.517.45 38.008 2.85 76.854 2.14 114.788-7.13 10.443-10.68 22.176-10.92 34.83-.35 19.389-.41 38.947.24 58.32.64 18.651 8.79 35.842 10.04 54.262.61 9.599-3.33 24.23-5.23 33.988a234 234 0 0 0-4.32 35.804c-1.23 34.79 6.39 60.88 10.4 94.46.79 6.67-7.67 28.47-9 37.12-2.27 14.71-2.9 28.59-2.33 43.65.98 21.97-2.99 44.5 10.27 63.39.17 25.98-.18 51.96-1.06 77.92-.34 10.88-1.14 22.75-1.33 33.42-.12 6.15 5.07 18.37 4.79 26.39-7.9 14.58-35.92-.37-47.89-4.84-22.85-8.4-45.56-17.22-68.09-26.44-1.13 8.35-.78 11.35-5.31 18.38l-2.13.27c-3.62-7.16-1.19-15.79.17-23.4-10.42-5.04-17.11-7.3-6.44-18.93 8.36-9.1 8.46-13.33 8.53-24.92-8.33-8.95-19.63-17.09-6.22-26.95 13.62-15.47 8.74-16.23-6.03-28.15 4.15-6.4 8.39-12.11 12.61-18.83-19.02-17.83-5.49-17.37 4.37-35.02-5.02-5.63-9.8-7.8-14.12-13.83-.65-4.64 6.77-10.54 10.57-19.76l.59-1.44c-4.93-5.61-6.56-7.43-10.3-13.85 4.15-6.25 7.04-10.8 10.59-17.38-21.04-26.12-12.48-12.85.91-38.95-4.5-6.28-9.35-7.93-14.8-14.5-1.33-5.5 6.73-14.4 10.66-21.09-2.65-4.89-8.05-10.54-9.76-15.43-2.59-7.43 10.33-14.41 14.92-23.01-16.85-24.406-16.71-8.48-4.61-39.524a696 696 0 0 0-11.59-16.977c2.77-5.382 9.64-15.147 13.15-20.372-4.34-6.239-8.65-10.708-13.78-16.289 5.12-9.814 7.91-11.329 11.4-22.854-4.44-6.297-8.39-11.977-12.46-18.512 3.51-5.367 9.06-11.167 13.28-17.33-4.44-7.131-9.7-12.896-14.25-20.355 9.61-10.864 12.28-14.365 16.49-28.194-3.25-6.123-12.55-18.167-17.03-24.453 6.36-10.604 12.3-14.714 18.07-27.844-4.41-6.153-15.35-14.648-16.68-18.482 1.14-4.483 5.88-8.745 8.65-12.52 23.07-31.472-29.59-16.004 3.44-49.762-1.74-5.313-5.6-12.86 1.49-15.387 5.6 2.095 5.68 6.559 7.02 11.855 28.18-9.088 56.39-22.582 84.53-32.203 5.92-2.023 10.74-4.132 16.93-5.586"/><path fill="#f7f7f6" d="m1695.1 687.663 1.61.536c12.19 16.96 28.47 36.801 28.57 58.947.04 8.521-3.35 19.685-1.78 28.665 2.13 12.186 8.67 25.814 7.39 38.294-1.35 13.31-6.62 22.212-6.11 36.456.48 13.695 8.54 25.793 7.82 38.796-.86 15.468-8.29 25.201-8.28 41.789.01 14.046 10.66 31.894 9.05 43.17-2.4 16.752-10.84 21.613-11.12 42.184-.3 22.03 12.07 28.84 12.18 48.01.07 10.56-9.5 24.99-10.3 37.46-1.04 16.27 8.02 26.23 8.94 41.54 1.11 18.22-12.24 34.15-10.56 53.06.98 11.07 7.15 18.48 9.25 29.19 2.91 14.9-3.65 26.12-6.22 40.28-1.64 9.06.34 20.34.07 29.01-.53 16.79-19.47 40.59-29.5 55.33l-.79.3c-4.08-.84-7.68-3.28-11.37-5.37-.07-6.4.56-12.94 1.04-19.33 3.32-2.91 5.4-4.89 6.35-9.19-.6-4.15-2.24-5.32-5.1-8.69 1.58-9.94 1.61-23.54 1.9-33.85 2.77-2.55 4.6-3.67 5.6-7.26-.29-3.5-2.4-5.38-4.65-8.23.27-9.04.37-18.13.68-27.17.78-22.49 7.86-47.96-1.51-69.09 2.84-13.49 3.9-17.99-.43-31.23.45-1.06.89-2.12 1.3-3.19 10.3-26.28 6.92-44.17-4.14-69.57 13.75-29.83 14.81-49.56.77-79.788 11.9-32.009 13.31-46.579-.85-77.846 5.32-16.24 5.87-19.189 2.81-35.979 14.07-31.767-1.6-40.132.25-71.216.37-6.165-.37-12.85-1.11-18.894 2.49-3.669 5.07-6.461 5.32-10.712-.96-3.528-2.65-4.385-5.49-6.749.23-9.144.83-17.38 1.53-26.471 3.02-2.104 5.29-4.192 8.06-6.62-2.83-3.179-5.05-4.946-8.32-7.713-.47-5.256-2.57-23.751-1.43-27.885zm-13.67 147.056c.71 3.684-.17 17.26-.58 21.705-.01.163-.1.156-.28.201-.6-.18-1.1-.971-1.44-1.371-1.64-2.528-2.75-4.168-4.55-6.593l-1.01-1.384c2.71-4.194 5.21-8.348 7.86-12.558m.02 155.061c.89 1.049 5.23 19.67.85 17.2l-6.24-6.78c1.87-3.677 3.33-6.774 5.39-10.42m-1.31-75.227c.98 2.374 5.18 17.678 1.95 18.322l-6.82-9.054c1.62-3.171 3.11-6.174 4.87-9.268m2.3 37.203c.34 2.122.08 17.72-2.09 17.59l-.66-.909c-6.73-8.419-5.11-6.894 2.75-16.681m-3.51-165.731c1.17 1.463.68 14.847.31 15.565-.45.195-.13.1-1.09.21-7.22-9.022-6.76-6.39.78-15.775m4.07 245.895c.14 1.8-.41 14.31-2.6 14.39-.4-.29-.15-.06-.79-.85-6.72-8.16-5.26-6.41 3.39-13.54m-1.38 74.77c2.76 2.83 1.08 13-.24 13.73-.36-.01-.12.03-.78-.21-2.77-2.88-6.16-4.58-3.22-8.26zm-1.94-38.81c1.33 2.06 4.37 11.21 1.5 12.85-8.62-5.39-7.63-4.41-1.5-12.85m.91-192.143c.47 4.182-.03 11.41-1.1 15.597-.18.695-1.31-.494-1.31-.495-5.42-8.129-4.5-6.593 2.41-15.102"/><path fill="#f7f7f6" d="M1683.27 1174.56c1.18 2.94 4.06 13.24-1.07 13.33-6.34-6.53-3.9-4.37 1.07-13.33m-3.7 108.23c.15.77 1.62 16.81-1.96 11.56-6.11-6.72-5.21-4.8 1.96-11.56m-3.15-587.176c2.05 1.903 3.86 10.561.51 11.863-5.65-5.508-5.85-4.868-.51-11.863m4.44 518.176c2.07 2.06 1.49 9.87.44 10.61-.42.04-.14.05-.95-.13-2.8-2.69-5.79-3.86-2.54-7.29zm-.19 30.12c1.7 1.93 1.8 9.17-.87 11.23-.5-.46-1.01-.92-1.52-1.37-4.61-3.98-1.21-5.29 2.39-9.86m-1.83-503.126c.59 2.782 1.63 9.513-2.08 10.068-4.27-5.633-3.68-4.558 2.08-10.068m2.63 402.956c2.53 2.45 1.4 7.82.32 10.77-3.58-5.59-3.42-4.86-.32-10.77"/><path fill="#3f474e" d="M659.003 644.823c18.97 7.843 39.252 15.051 58.467 22.521 13.059 5.076 28.575 11.85 41.547 15.945.668-5.886.239-13.875 5.824-16.86 3.01.56 2.89.871 5.208 3.017.607 2.131-3.129 12.22-4.072 16.465 25.24 22.909 18.274 19.635-1.684 40.427 7.151 8.838 16.284 14.706 22.565 23.625-26.078 25.715-31.506 18.892-2.136 50.736-4.924 7.652-11.837 16.008-17.537 23.269 4.33 10.895 9.431 17.556 15.13 27.59-5.35 6.969-10.111 13.049-14.785 20.548 19.075 25.94 13.833 11.232.053 38.53 3.486 8.541 7.985 13.215 13.887 20.211-4.096 5.236-11.862 13.153-16.511 18.14 5.3 6.074 9.678 10.997 14.318 17.565-3.028 7.1-8.263 14.009-12.699 20.426 5.222 7.432 9.15 13.132 13.673 20.962-4.056 5.17-10.995 12.38-15.559 17.51 18.284 18.52 17.151 14.85 2.495 35.71 14.272 22.04 13.54 18.51-3.857 36.2 3.74 5.63 12.167 13.79 17.084 18.79-6.783 10.79-10.514 7.97-14.683 21.9 13.995 17.54 11.144 16.16-.486 33.78 15.808 25.48 15.382 10.67-.658 34.39l-.598.9c11.869 18.13 21.332 13.69 2.798 33.11 4.935 5.31 11.665 9.17 11.8 15.97-1.399 4.36-5.337 7.28-8.819 10.58-2.137 2.94-4.169 6.94-5.953 10.19 5.152 8.12 9.821 11.62 15.441 18.37 6.59 7.91-11.347 14.86-12.451 24.15-1.518 12.79 17.219 17.73 14.938 28.62-2.651 3.36-7.102 4.8-11.167 6.67.791 7.09 3.877 14.37-1.504 20.45l-1.562-.14c-4.744-5.4-4.344-9.13-4.767-16.21-30.607 11.52-62.872 24.09-94.477 32.81-2.39.53-7.859 1.49-9.569-.93-9.762-13.83-7.785-51.34-7.92-66.92l-.459-76.94c2.899-4.25 7.013-10.83 7.463-16.16.749-19.93 5.636-76.1-.951-92.78-19.12-48.43-2.415-69.36 2.47-117.44 6.046-22.324-12.805-63.16-10.321-81.779 3.99-29.903 16.296-48.847 11.745-83.218-3.341-25.237 5.85-38.91-10.89-64.095 1.951-30.766.908-62.599 2.753-93.409 1.042-17.414-1.373-28.499-5.384-45.107z"/><path fill="#f7f7f6" d="M756.689 691.837c2.309 3.879.881 20.868.684 26.428-2.111 2.215-4.364 5.206-6.313 7.655l6.818 7.31c-.978 10.736-1.31 20.339-1.653 31.088-2.66 2.608-4.054 3.566-5.441 7.055 1.416 4.207 1.764 3.451 5.651 6.878-.194 17.555-.806 28.162 2.693 45.437-7.532 17.546-6.384 32.131.364 49.621-3.24 14.451-2.432 21.872-.094 36.348-12.821 25.903-10.093 50.43-1.371 77.191-6.996 22.542-11.706 52.892 1.778 73.762l-.34.98c-7.928 23.02-14.923 50.34-3.73 73.23-1.946 13.86-1.373 21.23 1.356 34.71-7.471 20.21-5.918 53.48 1.88 73.57-2.268 8.19-2.878 12.96-3.594 21.48-.453 5.39-1.402 4.94-5.218 7.61l-.241 2.29c1.358 3.64 3.752 5.22 6.682 7.85.233 10.66.393 19.53 1.581 30.18-2.783 3.38-4.13 4.37-4.891 8.48 1.088 3.8.801 2.63 4.77 5.55a39.9 39.9 0 0 1 3.083 15.74c-.044 4.33-.503 6.67-3.538 9.72-3.194 1.43-3.005 1.25-6.521.79-3.268-1.84-5.208-5.28-7.424-8.42-12.111-18.89-24.442-35.71-21.742-59.19.443-3.86.308-13.28-.545-16.88-2.22-9.38-8.056-18.22-8.393-28.16-1.275-17.92 9.869-28.65 10.164-46.12.287-17.04-9.529-30.2-10.635-46.49-1.091-16.07 9.938-28.47 9.517-44.75-.344-13.33-11.636-28.86-9.696-41.31 2.447-15.69 12.524-19.82 13.374-38.59.984-21.72-9.891-28.983-11.79-48.516-1.288-13.255 9.056-27.242 9.24-40.467.216-15.545-9.23-25.107-9.04-41.147.173-14.603 9.342-25.956 10.471-38.949 1.168-13.436-8.594-26.89-8.877-42.087-.292-15.701 8.678-26.299 8.76-40.451.067-11.552-4.074-20.248-.381-33.101 3.243-11.288 23.391-41.692 32.602-46.325m8.378 99.08c3.163 2.645 6.611 7.193 9.402 10.472-1.061 1.765-2.07 3.542-3.226 5.249l-.963 1.48c-.537.637-3.27 4.075-3.806 4.415-2.465-.351-1.481-18.986-1.407-21.616m.543-51.666c1.379 1.04 10.727 8.818 11.059 10.112-.331.971-4.128 3.278-5.08 3.955-2.244 1.403-4.258 2.974-6.374 4.564q.125-9.316.395-18.631m-.468 100.433c2.781 2.278 6.172 8.031 7.697 11.357.505 1.1-2.793 5.404-3.433 6.402-.802 1-2.255 3.715-3.826 3.528-.945-1.056-.492-19.026-.438-21.287m-2.878 268.856c3.68 2.25 5.485 5.03 8.213 8.46a290 290 0 0 1-5.276 6.59l-.828 1.02c-5.49 6.88-2.214-14.29-2.109-16.07m.847-149.075c9.414 6.141 8.507 7.33 3.459 15.12-.511.726-1.557 2.952-2.792 2.63-.516-.558-.561-1.347-.564-2.076zm3.15-262.009c5.925 4.723 10.978 6.215 5.729 11.638-9.279 7.503-6.413-.736-5.729-11.638m-2.91 224.1c5.291 3.444 8.844 7.776 4.611 12.869-.824.911-3.23 4.063-4.374 4.466l-.235-.12c-.869-1.676-.143-14.596-.002-17.215m.781 76.07c3.154 2.356 8.381 7.864 5.868 12.064l-.733 1.27c-1.067.85-3.291 2.93-4.296 3.39l-.332-.13c-1.235-1.87-.627-14.2-.507-16.594m1.761-114.045c8.217 6.337 7.194 6.135 1.87 12.982-5.092 6.391-2.105-11.142-1.87-12.982m-3.643 298.909c5.462 2.85 7.831 5.25 4.707 10.31-1.604 1.35-5.329 5.53-5.113.26zm3.021 109.35c5.795 4.96 8.206 5.46 4.666 11.44-1.883 1.39-4.902 4.38-4.779-.17.106-3.76.144-7.52.113-11.27"/><path fill="#f7f7f6" d="M762.152 1146.49c4.844 2.87 6.863 6.49 5.031 11.74-8.085 3.48-5.351-4.1-5.031-11.74m1.901-109.06c8.211 5.33 7.655 4.31 2.742 11.46-.349.69-.946 2.2-1.761 2.46-.181.06-.42.07-.494-.05-1.006-1.7-.49-12.33-.487-13.87m1.418 213.08c7.435 5.56 6.562 5.15.604 10.91-.209.15-1.115 1.01-1.684 1.01-.376-.01-.678-.16-.872-.49-1.219-2.09 1.366-9.18 1.952-11.43m-1.207-179.05c6.001 4.78 5.975 6.84 1.846 12.03-5.884 3.41-2.358-8.43-1.846-12.03m-1.425 148.96c6.057 3.4 6.998 4.31 4.711 10.16-6.07 1.72-4.34-3.93-4.711-10.16"/><path fill="#ebe9e8" d="M768.777 1339.51c3.589 1.85 4.981 2.45 4.648 6.46-5.967 1.63-4.304-.28-4.648-6.46"/><path fill="#3f474e" d="M214.971 644.993c5.605-.272 11.36 2.01 14.277 6.986.521 3.583-.98 6.75-2.178 10.069-5.627 15.59 1.058 100.051.005 125.008-.517 12.24-7.253 17.079-9.057 27.627-3.747 21.899-2.386 50.408-1.852 72.822.474 19.86 9.95 38.578 9.624 58.301-.226 13.631-3.64 27.28-5.804 40.701a237.5 237.5 0 0 0-2.964 46.723c.76 25.5 8.67 48.74 9.929 73.09-.42 16.02-11.122 36.84-10.572 52.5.84 23.96-5.828 71.45 9.674 89.77 2.112 26.09-.083 57.15-.746 83.6-.202 8.08-1.031 16.71-1.228 24.92-.201 8.37 4.413 23.53 3.466 30.16-3.372 3.87-7.06 5.55-11.96 3.72-32.035-11.99-67.208-25.29-98.21-38.98-.968 7.73-.756 14.04-5.923 19.7l-1.478-.21c-4.107-6.89-2.155-14.87-1.242-22.83-5.311-2.93-8.793-3.93-8.673-10.39 1.963-4.35 4.512-5.94 8.16-9.04 2.262-8.47 2.529-11.02 3.321-19.82-17.428-24-15.61-15.37 2.722-38.86-.324-5.07-10.13-9.48-14.432-16.11-.935-6.67 5.371-10.96 9.995-18.8l.684-1.18c-19.126-22.24-10.358-12.8 2.313-35.04l.781-1.39c-3.068-3.12-10.506-8.55-11.805-12.05-1.97-5.3 6.717-15.58 9.297-21.96-3.418-5-6.887-9.96-10.407-14.89 5.38-6.43 7.571-9.29 11.943-16.4-4.425-6.11-11.049-12.17-13.658-18.34.478-7.35 8.623-12.41 14.123-20.24l.734-1.06c-5.863-5.78-10.698-6.97-15.467-13.12-1.193-6.09 6.283-14.64 10.35-21.7-4.662-6.34-9.098-12.15-13.03-19 7.226-6.27 11.285-10.09 17.707-17.15-19.186-23.189-15.626-10.32-3.607-34.405l.551-1.129c-3.999-7.312-10.836-14.37-13.108-20.346.534-3.222 12.343-14.446 15.963-19.471l.809-1.137c-14.823-24.576-22.214-10.905-3.72-40.101-3.293-5.503-12.355-14.092-12.192-19.65.098-3.348 11.377-16.707 13.891-20.517-3.681-6.515-9.675-12.868-14.692-18.526l2.943-3.73c6.939-8.8 7.797-13.629 10.669-24.304-5.103-6.965-10.474-13.796-14.345-21.501 7.863-8.475 14.866-16.668 19.134-27.457-5.872-6.236-12.643-9.93-17.537-16.115-.404-4.648 3.223-7.686 6.503-10.829 18.45-17.683 6.736-21.928-7.827-35.702 5.098-6.752 12.402-13.905 18.2-21.214-2.431-6.214-5.674-11.642-1.285-17.662 7.353-.478 7.401 10.2 8.015 15.474 27.103-13.464 64.918-27.871 93.216-38.815"/><path fill="#f7f7f6" d="m127.238 689.619 1.981.721c11.265 14.271 27.911 40.64 27.196 59.757-.307 8.191-3.745 19.893-2.297 28.379 2.191 12.837 9.74 24.698 8.754 38.049-.819 11.097-6.952 20.089-6.805 31.832.166 13.218 8.577 28.025 7.483 40.894-1.348 15.864-8.403 25.079-8.852 42.028-.375 14.165 9.817 29.396 8.972 39.716-1.339 16.35-11.955 24.432-11.263 45.095.663 19.82 9.025 23.46 12.225 40.81 2.565 13.92-9.523 28.83-9.694 43.84-.178 15.7 9.904 27.18 9.76 42-.175 18-14.725 34.8-10.911 53.99 1.609 8.09 6.154 15.17 8.281 23.2 4.646 17.55-5.057 30.37-7.196 46.65-1.211 9.21 2.461 27.12-1.174 35.91-4.999 12.08-14.918 25.78-21.783 37.64-3.619 6.28-7.478 9.08-13.478 2.63-1.379-3.71.245-10.93.516-15.34 2.818-2.39 5.606-5.01 8.346-7.51-2.094-2.44-4.928-5.19-7.203-7.53.094-11.07.067-21.97.762-33.02.609-9.69 4.606-5.06 6.563-12.34-.471-3.39-2.604-4.78-5.146-7.28.152-10.18-.946-17.91-1.564-27.73.15-5.88 4.807-16.37 4.412-21.76-1.895-25.9-4.079-51.35-2.09-77.33.979-12.8 5.755-21.01 4.85-34.99a96 96 0 0 0-11.006-39.16q1.236-2.34 2.375-4.74c10.518-22.2 8.302-47.36.148-69.91 8.515-24.275 14.633-55.266-.18-78.749 6.838-13.85 8.922-24.929 1.792-39.113 4.985-18.377 7.062-33.047-1.487-51.034 1.979-9.461 3.073-27.269 3.516-36.954l5.839-9.081c-1.731-2.131-4.004-4.607-5.843-6.712.217-8.553-.778-21.443.624-29.245 2.236-2.281 3.53-3.135 4.246-6.238-.877-3.088-3.105-4.417-5.623-6.584.745-7.676.119-14.428.517-22.048.306-5.864.755-5.497 4.437-8.743M115.546 874.71c.428 2.25 3.04 27.233-4.495 19.376-1.856-2.874-3.367-5.028-5.018-8.072 3.552-4.028 6.099-7.143 9.513-11.304m.996 80.142c.211 2.279-1.169 20.426-2.95 21.118-.874-.332-1.777-1.727-2.31-2.437-2.086-2.623-3.879-4.722-6.091-7.23 4.095-3.972 7.409-7.367 11.351-11.451m-2.034-40.133c.173.633 5.046 25.443.166 18.807-2.75-3.617-4.658-5.988-7.585-9.474 3.061-4.141 3.881-5.423 7.419-9.333m.116 190.041c2.045 1.98 1.696 14.08.909 15.29-.208.32-.551.52-.93.55-.67.06-1.531-.85-1.926-1.2-1.745-1.9-3.496-3.78-5.094-5.8l-.655-.81c2.528-2.71 5.093-5.39 7.696-8.03m-.07-317.009c.514 2.787-.137 18.134-2.233 18.721-.545-.248-.78-.61-1.222-1.082-1.599-2.365-3.374-5.007-4.74-7.496 2.879-3.713 5.033-6.637 8.195-10.143m-1.027 44.877c.75 2.285 3.065 22.398-.693 20.807-1.683-2.406-3.367-4.647-5.004-7.1 1.969-4.599 3.774-9.11 5.697-13.707m.053 200.212c.258 1.74.827 16.96-3.382 14.22-6.773-7.9-4.485-6.03 3.382-14.22m1.211 178.11c1.698 1.93-.093 13.42-1.444 14.57-.545.1-.191.06-1.066-.06-7.318-7.17-4.141-5.9 2.51-14.51m-.125-513.174c.221 1.73.718 13.264-.224 14.126-1.009-.052-2.413-1.038-3.314-1.545-6.122-5.743-3.063-5.665 3.538-12.581M113.5 995.672c2.072 1.983 3.073 15.758-.446 13.598-7.025-6.75-5.41-4.94.446-13.598m1.008-252.93c.646 3.138 2.725 14.641-2.548 13.479-6.463-6.081-4.171-5.723 2.548-13.479m-1.154 501.038c.694 2.24 1.413 11.08.074 12.45-1.098-.16-2.15-.45-3.259-.59-4.702-6.21-2.435-5.41 3.185-11.86m-1.601-173.93c1.315 1.4 4.035 11.5.561 11.96-7.721-5.34-6.241-4.39-.561-11.96m.334 107.98c1.177.25 2.274.42 3.461.61-.327 2.84-.327 5.47-.505 8.16-.519 3.77-5.397-1.8-5.69-2.67-.525-1.57 1.88-4.46 2.734-6.1m.111 106.91c.756 2.5 2.007 10.1-2.212 9.82-2.064-2.52-4.475-4.04-1.307-6.8zm2.008-141.07c1.01 3.56 1.449 7.05-1.3 9.75-3.008-4.9-2.257-4.82 1.3-9.75"/><path fill="#ebe9e8" d="M112.087 1177.83c.553-.93 1.387-2.64 2.26-3.19.876.16 1.067 3.11 1.201 3.8-1.187-.19-2.284-.36-3.461-.61"/><path fill="#a3a2a8" d="M107.05 1340.15c.396.02.792.04 1.188.05-.065.46.01.17-.319.94-.907-.22-.661-.08-.969-.33-.051-.34-.059-.13.1-.66"/><path fill="#3f474e" d="M1833.33 646.773c1.57.456 10.27 6.356 13.8 7.642 29.03 10.567 56.35 19.954 83.81 34.24 1.5-7.555 1.59-10.419 6.5-16.505l2.63.208c3.43 6.097.23 16.496-1.24 22.945 20.33 19.795 17.13 19.941-3.37 37.648 4.49 6.048 16.35 17.537 18.52 22.657-.95 6.044-13.99 15.706-20.01 21.958 2.57 5.695 4.49 9.265 7.89 14.497 3.29 5.056 8.97 9.658 10.61 14.861-.51 6.326-11.17 18.807-15.57 25.359 10.4 23.075 18.33 16.292 2.6 40.528 4.68 5.394 8.08 8.274 12.77 14.318-15.3 20.075-16.23 18.482-1.08 38.297-4.06 7.465-9.26 12.397-15.02 18.602 4.61 7.01 9.08 11.358 13.88 19.431-3.05 5.722-8.41 13.201-12.17 18.765 2.78 6.441 8.97 15.862 12.81 22.096-4.54 5.91-9.59 10.94-14.74 16.31 14.86 24.94 18.02 7.91 2.79 38.63 12.1 22.71 15.89 15.76-5.08 34.79 4.87 6.14 11.58 12.96 16.98 19.53-6.63 7.05-10.38 10.05-15.67 18.26 4.1 7.09 7.68 12.08 12.49 18.76-3.57 7.45-7 12.02-11.86 18.79 3.9 5.82 9.82 13.06 14.22 18.65-6.96 6.61-10.84 9.72-16.37 17.58 14.74 18.04 22.02 14.19 4.51 35.01 4.66 4.52 8.75 8.83 13.19 13.57-4.27 6.34-6.97 9.11-12.27 14.71-10.38 12.03 7.52 17.08 11.49 26.83 3.53 8.67-11.6 14.64-13.03 23-2.18 12.78 16.04 16.58 13.74 27.66-2.7 3.8-6.18 4.87-10.48 6.96.44 5.64 2.61 16.47-3.89 18.92-4.88-2.86-4.14-10.12-4.42-15.29-21.44 7.62-43.7 17.51-65.71 24.53-10.64 3.28-21.42 8.98-32.59 10.04-19.6 1.86-9.91-18.58-10.5-28.53-2.18-36.45-.81-72.83-.97-109.27 16.13-20.71 8.83-57.7 10.66-82.93 2.8-20.19-11.74-47.65-11.17-65.29.89-27.75 10.97-54.3 11.11-83.32.14-29.105-9.21-52.928-10.56-80.709.39-20.416 12.76-44.347 10.8-64.747-2.54-26.583 7.52-63.422-12.46-83.681 5.65-32.457.47-77.121 3.75-110.539.91-9.37-3.19-18.624-2.81-27.785.12-2.963 9.22-6.893 11.49-7.986"/><path fill="#f7f7f6" d="M1923.82 694.575c2.52 1.074 2.17 1.042 4.44 2.725 2.43 5.718 1.56 22.211-.43 28.577-.51 1.621-4.11.915-5.65 6.616 1.19 3.266 2.31 3.22 5.62 5.797l-.37 30.422c-3.52 2.835-5.05 3.643-5.72 8.136 1.09 3.629 2.42 4.357 5.23 6.895-.59 8.562-1.15 16.648-1.17 25.242-.02 6.851 1.41 16.463 1.2 22.819-.26 7.923-3.13 17.336-2.7 25.882.21 4.122 4 13.209 3.98 15.999-.1 13.793-2.98 17.513 1.25 31.174-10.33 26.031-12.07 53.5-1.35 79.973-5.64 20.698-11.62 55.878 2.64 74.248-14.81 37.99-12.7 39.86-6.55 79.1 5.46 34.88-10.72 67.48 4.89 104.59-2.4 8.22-2.66 16.34-3.23 24.84-3.48 2.89-4.7 2.87-5.83 6.41 1.53 3.97 1.74 3.17 5.61 6.27 1.4 5.53 2.38 25.16 3.06 32.62-3.44 2.89-4.6 3.58-5.03 7.5 1.74 3.21 2.95 3.69 5.94 5.73.97 7.29 1.75 14.83 2.61 22.16-3.62 1.57-7.98 2.85-11.78 4.08l-5.86-8.58c-9.44-15.3-22.7-33.45-22.86-51.78-.05-6.97 1.46-19.56-.32-25.9-3.62-12.9-10.09-23.86-7.93-38.06 2.35-15.45 11.02-20.47 10.65-37.38-.4-18.44-11.34-30-11.1-47.42.19-14.06 9.3-27.06 9.26-41-.03-13.03-10.45-27.23-9.4-40.24 1.38-17.05 13.07-23.14 13.02-42.05-.06-18.87-8.44-27.335-11.4-44.934-2.55-15.18 9.66-29.05 9.28-42.749-.4-14.513-9.12-24.943-9.26-40.953-.15-17.377 11.04-26.048 11.01-41.804-.02-9.812-6.79-22.612-8.5-32.746-2.53-14.986 4.41-23.447 7.44-37.094 1.81-8.112-.72-19.896-1.65-28.318-1.95-17.613 20.14-42.41 30.96-56.797m11.02 102.078c4.48 3.658 6.88 7.74 10.08 12.497-1.89 3.065-2.87 4.356-5.07 7.217-.59.728-3.43 5.007-4.41 4.372-.87-1.79-.69-20.804-.6-24.086m.8-52.268c1.67 1.518 8.63 9.044 8.69 11.673.02.976-2.19 2.863-2.96 3.546-1.19 1.016-3.49 3.172-4.89 3.973-.1.056-.33-.047-.37-.101-1.53-2.422-.53-16.797-.47-19.091m-.59 172.574c6.59 8.118 8.05 8.559 1.87 16.267-.78.654-1.42 1.52-2.37 1.928l-.36-.183c-1.33-2.788-.1-14.512.86-18.012m2.2-211.43c7.83 5.862 9.03 6.526 3.78 12.487-8.54 6.908-4.32-5.005-3.78-12.487m-4.12 249.294c8.99 7.672 7.58 7.103 3.27 15.897-3.44 8.277-3.24-14.784-3.27-15.897m2 334.987c2.62 2.26 8.99 7.45 6.88 10.9l-.7 1.2c-1.12.87-3.61 3.31-4.77 3.34-.83-1.16-1.29-13.24-1.41-15.44m-2.34-183.32c7 5.49 8.43 5.27 4.68 11.78-.93.8-2.67 2.82-3.92 2.98-1.24-1.32-.79-12.32-.76-14.76m.21 111.02c7.12 4.71 8.71 6.06 5.09 12.01-5.81 5.32-4.18-1.82-4.71-7.56zm2.05-184.96c6.13 4.75 6.75 6.95 3.51 12.76l-.74 1.33c-.43.49-1.75 2.03-2.31 2.28-1.16-1.3-.51-13.92-.46-16.37m-2.57 146.89c7.3 6.55 7.94 6.54 3.15 13.03-.94.55-1.89 1.58-3.07 1.43-.79-.94-.16-12.74-.08-14.46"/><path fill="#ebe9e8" d="M1935.19 846.857c6.7 6.132 5.98 8.183 2.82 14.745-4.86 7.719-2.88-12.422-2.82-14.745"/><path fill="#f7f7f6" d="M1935.26 994.751c5.63 5.299 6.78 6.789 3.48 12.679-.83.58-2.23 1.91-3.23 2.09-.98-.85-.33-12.553-.25-14.769m.94-113.206c5.72 3.589 7.63 4.804 4.35 9.954-7.42 7.585-4.53-2.034-4.35-9.954m-3.04 263.145c3.06 2.79 6.73 5.95 4.83 10.03l-.41.92c-.7.39-3.56 2.49-4.24 2.12-1.04-2.01-.33-10.46-.18-13.07m2.32-74.18c3.87 2.35 5.25 5.44 2.96 9.46l-.66 1.31c-6.61 1.72-3.04-4.22-2.3-10.77m.03 179.96c6.07 2.99 6.05 4.14 2.9 8.93-6.92 3.16-3.79-2.17-2.9-8.93"/><path fill="#ebe9e8" d="M1938.18 1339.49c2.58 1.01 5.69 1.43 3.47 4.21-2.83 4.39-3.05-1.83-3.47-4.21"/><path fill="#3f474e" d="M1169.86 249.115c20.32-.597 46.54 15.763 61.33 28.603 45.2 39.243 63.26 93.786 42.18 151.161-19.6-15.102-50.71-16.69-63.59 8.616-4.76 9.342-3.33 29.539 8.52 33.386 9.91 3.22 27.3-6.785 18.88-18.616-5.8-7.719-13.38 2.84-20.78 1.224-9.29-13.905 10.19-29.889 25.91-28.6 48.58 3.981 11.21 42.912-4.06 61.04-10.28 12.193-23.42 21.297-34.95 31.91 5.02-16.486 1.65-53.881-10.46-67.509-8.4-9.46-34.87-17.145-47.54-16.236-32.68 2.346-77.63-.504-102.05 26.223a38.76 38.76 0 0 0-9.8 20.263c-4.78 30.63 25.93 35.348 26.43 56.236.11 5.03-1.87 9.882-5.45 13.409-10 9.878-49.55 3.926-64.636 3.89-14.17-.034-28.394 1.53-42.305 1.662-33.207.314-57.739-24.338-55.946-57.984.69-16.719 2.927-22.426 14.651-33.643 19.966-14.686 78.559 20.524 62.819 49.034-9.621 17.428-36.429 16.162-28.352-8.834 1.569-4.855 8.349-10.204 8.438-14.78l-1.7-1.562c-15.547-4.548-27.765 6.808-25.063 22.536 5.107 24.559 30.448 22.064 47.775 19.794 57.079-7.479 34.319-63.596 52.589-90.093 19.33-28.045 90.25-30.882 121.12-25.306 14.02 2.533 34.22 7.036 48.71 5.958 18.89-4.131 49.84-19.381 60.62-35.103 20.6-30.048 3.45-80.704-25.24-100.147 2.81 5.416 7.83 12.872 11.16 19.103 13.22 22.569 12.64 42.633 11.84 66.79-.78 23.614-69.59 53.475-76.66 43.979 2.36-2.606 9.34-6.845 12.8-8.656 16.64-8.697 37.3-33.371 39.56-52.254 2.98-24.844-9.45-56.572-24.35-76.288-6.24-8.263-30.79-22.728-32.4-29.206m-69.77 483.253c8.73-.927 21.97-1.946 29.59 2.344 20.87 11.76 22.27 34.158 20.94 54.836-2.31 35.794-15.48 61.539-37.56 88.986-8.85 11.014-22.99 24.411-29.02 36.181l-.65 1.29c-5.93-.061-10.44-.604-15.82 2.204-18.43 11.077-28.28 20.848-31.01 43.301-3.32 27.397 18.47 54.68 43.71 31.124 8.63-8.056 9.8-38.176-10.15-36.282-3.51 2.51-3.45 2.325-5.74 5.913-.37 7.501 8.61 8.418 14.74 10.153 9.44 14.96-14.79 28.032-26.43 18.849-14.47-11.416-11.78-39.175-1.19-52.623 19.76-25.114 66.43-18.61 68.24 16.796.49 17.055-10.98 55.22-22.16 67.72-27.93-8.61-39.09-15.11-67.99-3.49 2.07-5.44 4.13-11.49 4.71-17.28 1.81-18.483-14.41-33.593-32.16-34.82-12.472-.864-30.159 3.397-39.519-7.643-5.611-6.618-5.465-17.166-4.896-25.425 1.988-9.953 9.575-29.818 22.415-31.55 2.756-.372 8.695-.267 10.872 1.498-8.761 8.936-19.846 15.876-14.131 31.241 6.879 18.492 26.819 14.585 41.599 9.439 6.44-11.432 14.22-31.333 21.25-40.055 19.24-24.903 54.7-19.984 71.47-45.773 14.65-22.543 15.03-68.442-9.47-84.192-10.74-.822-18.18-.08-27.49 6.554-13.77 9.817-25.18 39.197-14.83 54.274 6.67 9.708 28.15 5.284 28.39-8.058-1.77-2.922-.72-2.441-3.09-3.483-5.69 4.98-12.22 4.971-14.82-3.092-3.88-12.452 2.13-33.901 16.09-37.555 29.67-7.77 31.76 32.246 26.75 51.447-8.09 30.947-41.62 56.536-71.33 34.018-13.04-9.879-23.38-22.669-25.69-39.751-2.65-31.955 16.22-72.247 46.52-85.943 14.25-6.443 22.7-9.195 37.86-11.153"/><path fill="#8a1d22" d="M1182.43 1356.42c37.51 1.55 48.06 30.45 52.06 62.04.88 7.01 2.98 13.16 3.4 20.66 2.19 39.02-46.36 72.89-82.22 56.15-4.36-2.75-12.31-9.82-16.2-11.47-21.09-8.93-41.53-9.12-44.95-36.75-3.26-19.05 4.95-33.96 10.96-50.29 11.22-30.52 21.84-34.44 52.78-36.87 6.52-.52 16.51-2.76 24.17-3.47"/><path fill="#f7f7f6" d="M1163.33 1375.4c29.36-2.86 55.47 18.65 58.29 48.01 2.82 29.37-18.73 55.45-48.1 58.22-29.31 2.77-55.32-18.72-58.14-48.03-2.81-29.3 18.65-55.35 47.95-58.2"/><path fill="#8a1d22" d="M1157.46 1379.72c26.77-6.11 53.46 10.52 59.78 37.24 6.33 26.72-10.08 53.54-36.74 60.08-26.98 6.62-54.19-10.02-60.58-37.05-6.4-27.03 10.46-54.1 37.54-60.27"/><path fill="#3f474e" d="M1234.85 1544.49c12.28-1.16 16.4-.91 28.46 1.67-.82 18.08 1.83 33.41 2.05 50.93.81 65.39 7.33 131.73 7.73 196.97l-23.35-.47c-12.95.14-25.89.17-38.83.1-1.06-49.11 5.97-98.88 5.73-148.11-.1-22.39-1.35-43.16.76-65.75 1.01-10.87.69-23.69 1.25-34.87zm-422.148-3.91 16.492-1.17c2.452 14.16 1.59 31.32 2.105 46.07l3.974 102.77c.778 18.75 1.882 37.42 2.254 56.23.265 13.4 3.148 27.67 3.207 41.21.011 2.6-2.461 6.78-3.709 9.08q-16.1-.435-32.202-.66l-28.065.21c2.784-34.26 3.32-70 6.382-104.45 1.364-15.37-.16-32.45 1.59-47.67 3.992-34.74 6.892-66.61 8.131-101.6 6.614.1 13.228.09 19.841-.02M1106.34 442.341c23.9-.734 49.05-2.311 69.66 11.114 24.49 15.963 28.66 50.562 11.6 73.311-11.95 15.921-28.85 20.982-47.21 24.047 7.89-6.522 21.71-18.456 25.85-27.027 21.2-43.869-19.14-75.257-60.99-60.486-12.79 3.64-28.74 10.466-34.73 23.61-17.61 38.689 48.32 56.026 64.72 25.481 4.89-9.091 1.26-24.436-10.63-28.726-9.39 1.759-17.36 8.652-12.2 18.68 4.58 2.831 8.6 4.866 10.32 10.059-.34 1.152-.43 2.477-1.39 3.157-11.81 8.302-31.32 6.719-41.68-3.272-9.48-9.791-3.68-22.255 5.27-30.38 26.02-23.643 80.84-26.911 78.34 21.299-.71 13.647-13.85 32.234-24.85 40.975-20.82 16.555-57.48 14.834-82.05 12.017 18.7-17.998 17.78-29.648-4.04-42.499-15.19-8.95-11.66-34.707-1.64-46.964 12.25-14.982 37.01-21.943 55.65-24.396M1024.7 1053.4c14.45-1.72 32.13 2.92 42.12 13.78 14.32 15.57 27.66 44.52 9.71 62.29-6.72 6.66-12.63 5.91-21.21 5.7-4.12-4.39-8-8-12.4-12.08-.16-3.89-.78-6.13-2.74-9.34-10.07-5.18-14.71 2.24-9.94 10.87 2.93 5.3 8.16 6.15 13.47 7.69-17.03 9.51-24.48 13.55-26.25 33.9-11.87-7.67-18.854-14.59-19.155-30.39-.36-18.92 13.005-39.91 33.755-39.75 9.63.07 23.02 8.63 22.02 19.88-1.67 2.65-2.83 3.96-3.2 7.08 1.82 2.08.72 1.35 3.64 1.79 1.73-.94 4.25-2.14 4.37-4.27 1.09-18.32-8.72-27.86-22.84-33.12-18.06-1.65-25.36 2.67-35.41 17.64-16.961 25.24-12.018 65.96 22.5 72.15 7.16 1.28 26.31-1.11 31.02 1.93 5.25 7.15 2.32 24.81-2.94 30.46-14.33 15.42-38.75 5.77-52.712-5.38-21.068-16.83-30.303-37.35-32.833-63.89-2.072-20.54-4.277-45.04 9.581-62.14 14.527-16.93 27.974-22.59 49.444-24.8m-41.371 429.06 1.675-.04c3.742 4.59 6.141 39.92 6.449 47.57-19.591-.76-38.96-3.3-58.328-3.75-13.692-.32-29.612 2.5-43.626 2.62-48.37.43-96.704.26-145.054 1.68-3.661-.41-9.666-.29-9.895-5.01-.234-6.38-.008-13.1-.077-19.49-.186-17.1 1.318-22.16 18.881-22.82 16.109-.61 31.137.21 47.078.67l51.354 1.03c39.733 1.06 91.995.32 131.543-2.46m81.091-1.38c16.25 1.01 32.89-.18 48.82 1.84 3.63.46 7.6 4.27 11.61 5.76 3.58 1.33 15.64 1.02 17.98 2.2 11.16 5.64 17.5 12.06 31.57 11.92 18.1-.18 31.19-5.91 44.21-17.9 31.14.07 63.42 1.14 94.19.91.02 10.13-.97 21.84-1.04 32.7-.99 7.46-2.59 15.26-11.92 15.2-12.1-.08-24.2-.32-36.3-.33-45.85-.05-91.76-1.83-137.55-3.76-15.52-.66-50.8 1.14-64-2.1-.77-3.79 1.34-42.75 2.43-46.44M936.536 696.271c13.669-.029 22.918 7.414 35.798 7.277 27.816-.295 50.006-5.164 78.346-4.437-16.49 19.98-36.59 19.033-57.337 44.394-9.479-15.234-22.105-23.158-40.151-15.569a36.28 36.28 0 0 0-19.793 20.197c-3.581 8.852-6.534 34.899 5.583 39.26 11.374 4.094 31.392-19.28 25.503-29.296-8.504-4.822-5.282 5.12-18.235 7.658-23.376-13.694 13.187-49.374 31.937-31.241 19.869 19.213 2.575 46.41-1.834 68.029-.983 4.817.91 20.014 1.275 25.672a108 108 0 0 1-3.274.837c-60.506 14.75-77.213-21.83-78.965-74.535-.792-23.813 16.813-53.59 41.147-58.246m-53.838-275.894c28.232-1.306 45.962.093 72.297 11.124 16.506 6.913 36.802 12.616 47.485 28.858 16.58 25.208-5.477 57.726-31.014 65.548-2.128.652-3.579-.516-5.115-1.571.042-.756 8.105-5.849 8.533-8.637 6.248-40.63-20.771-57.554-56.448-64.672-16.545-3.301-35.314-.997-48.432 7.89l-1.105.763c-14.866 13.634-23.052 26.462-23.969 46.886-21.815-4.137-36.347-13.224-49.717-31.689-6.745-10.19-23.195-29.938-20.779-42.694 2.519-13.297 29.77-11.743 38.917-7.46 6.375 2.986 16.091 6.169 18.977 13.337 2.333 5.795 1.147 10.774-5.199 12.591-1.444-3.528-2.012-4.79-3.955-8.046l-1.602-.146c-6.8 10.214 4.891 24.7 14.194 24.099 11.274-.728 2.394-21.672 11.796-30.774 10.659-10.318 19.972-13.832 35.136-15.407"/><path fill="#3f474e" d="M1110.72 700.427c5.45-.712 44.54-.231 49.22.659 2.12 2.375 1.48.964 1.48 4.57-5.46 10.479-18.35 17.501-28.35 23.347-16.58-5.305-43.95-1.122-60.96 1.825-18.37 3.413-33.5 16.061-42.71 31.724-15.51 27.045-30.193 52.346-16.41 83.483 10.97 24.785 21.01 24.68 40.97 37.132 1.61 1.956 1.32 1.635 2.5 3.921-2.94 3.664-16.08 7.603-19.85 11.853-3.13 3.52-6.58 10.11-8.95 14.314-1.48-10.377-4.33-24.451-10.16-33.034-10.29-15.14-32.61-27.986-33.389-49.411-1.053-28.989 7.642-71.098 26.909-93.777 24.68-29.054 63.78-34.115 99.7-36.606M884.864 253.199c2.513-.048 1.476-.466 3.198 1.005-2.25 3.387-13.456 8.681-17.301 11.638-19.442 14.951-38.734 40.884-43.249 65.234-6.348 34.236 7.857 54.25 33.05 75.436 5.244 4.411 9.532 3.569 11.957 7.103-3.709 7.832-28.27-2.43-34.101-5.565-44.986-24.188-32.252-69.344-15.523-103.627-15.126 14.585-19.123 23.132-22.769 43.669-7.969 41.2 21.353 63.169 57.288 71.385l-.832.434-1.372.747c-9.171 4.912-10.937 7.419-16.939 15.602-20.516-18.756-33.126-25.051-61.346-18.567-11.894-33.837-4.893-70.908 13.795-100.822 19.202-30.736 59.456-55.486 94.144-63.672m102.474 994.531c24.912 2.66 39.072 2.45 63.812.62 24.34 16.96 29.47 45.63 11.38 69.4-10.25 13.47-24.29-3.59-18.27-9.07 3.69 3.63 5.2 5.79 10.08 6.11 12.73-7.36 6.06-48.68-23.92-36.57-27.55 11.13-26.42 37.78-16.78 60.62 18.35 33.96 48.91 19.9 48.36 77.95-19.55-30.56-23.92-23.54-52.25-40.25-19.201-11.33-29.547-48.52-33.896-69.13-3.629-17.2.944-44.69 11.484-59.68m-144.187 381.43c54.095-.51 108.194-.57 162.289-.2 1.78 8 7.82 36.49 4.33 42.05l-164.622.18c-.731-11.92-3.923-30.69-1.997-42.03m364.509 1.27.71.57c.67 2.13-.53 34.96-1.38 37.9-5.08 3.68-66.4 1.24-77.67 1.21-27.44.13-54.87 1.23-82.23 3.3-.55-4.89 4.41-33.49 5.3-41.17 33.06 2.93 68.56-2.34 101.84-.86 17.47.77 35.91.04 53.43-.95"/><path fill="#3f474e" d="M1020.04 1397.23c29.87-2.42 31.82 22.67 34.64 42.37 5.84 40.77-37.15 48.55-35.08 8.87.1-2.07 2.97-2.85 4.53-3.29 5.23 3.01 2.39 4.47 7.75 9.24 3.83.31 2.09.7 5.42-1.16 3.49-5.3.79-12.17-2.91-15.63-10.3-9.56-24.9 5.41-23.63 16.47 2.14 18.66 12.01 27.87 30.43 27.38 5.5-1.53 7.29-2.75 12.1-5.53-1.57 13.52-3.89 65.56-7.6 75.88-13.23 4.99-43.51-60.72-47.481-72.39-8.713-25.58-9.07-71.15 21.831-82.21m-52.897-533.023c17.889-.913 32.387 3.242 45.227 19.62 14.49 18.474 16.05 65.396-17.863 61.682-9.708-1.063-15.152-16.73-11.838-26.761 7.668-8.174 17.881 5.119 22.781-5.484 2.94-6.365-2.01-11.661-7.959-14.173a30.7 30.7 0 0 0-22.737-.239l-1.075.434c-29.682 18.996-29.109 47.212-8.271 72.799-56.416-21.406-54.837-95.138 1.735-107.878m90.977 276.053c18.03.73 22.72 14.05 26.11 29.73 6.24 19.97-5.26 56.12-22.79 67.56-19 12.41-71.472 13.85-85.384-9.69-11.154-18.87-13.254-25.81-10.886-45.86l1.33-2.89 1.738-.45c3.35 2.67 3.949 8.15 6.665 11.76 9.457 13.09 20.809 20.94 34.797 28.3 17.22 9.08 41.03 11.69 54.62-5.72a28.38 28.38 0 0 0 5.86-21.31c-1.33-9.59-5.26-14.26-12.46-19.85-9.42-.13-28.75 1.07-33.57-7.47-1.23-12.26 23.48-22.57 33.97-24.11m-71.485-167.831c16.725-2.201 38.585 6.66 41.275 25.135a26.18 26.18 0 0 1-5.01 19.786c-18.8 24.39-47.176-1.87-32.399-21.996 2.598-3.537 8.464-1.838 10.969 1.776-.69 3.6-4.635 5.55-7.573 9.78l.612 1.5c1.928.8 3.219 1.02 5.36.97a12.8 12.8 0 0 0 9.271-4.44c9.23-10.669-12.631-31.323-25.387-8.466l-.613 1.12c-6.052 22.676 2.592 33.086 23.38 39.116-10.882 15.91-30.096 25.94-42.801 39.41-5.03-9.1-9.192-24.25-10.112-34.66-2.022-22.85-8.706-56.328 18.557-67.031 3.761-1.476 10.313-1.706 14.471-2m65.535 48.971c45.72-.91 65.3 33.51 51.35 74.38-2.32 6.79-4.71 26.85-12.1 28.24l-1.83-1.92c2.99-10.96 4.46-17.59 3.09-28.94-5.96-15.98-15.06-34.85-31.79-41.25-19.45-7.44-38.73-8.95-57.92-1.17 11.92-19.8 26.63-27.25 49.2-29.34m-38.99 554.2c7.28 4.04 14.06 12.84 23.29 13.38 4.08.23 4.69.29 7.05 3.29 1.86 16.67-9.18 128.65-13.83 145.97-1.45 6.84-2.53 11.35-4.64 18-9.81-32.45-3.75-63.15-6.09-96.6-1.86-26.7-6.8-57.79-5.78-84.04m25.04-1170.13c14.1-.457 25.49 2.108 39.37 4.456-29.37 5.783-58.62 10.88-69.62 42.793-9.463-3.951-21.545-12.315-30.51-18.111a123 123 0 0 0-26.899-11.861c-4.931-1.51-23.616-4.79-24.739-9.717 6.265-3.882 24.302-1.553 32.752-2.598 27.171-3.362 52.316-4.36 79.646-4.962m-144.079 53.534c3.237.07 6.238.067 3.149 4.109-5.985 7.834-10.984 16.642-12.107 26.897-1.785 16.29 1.147 35.512 12.115 48.365 8.554 8.511 8.8 6.545 17.161 17.471-9-1.318-15.055-2.678-23.697-5.551-18.403-9.194-28.758-14.2-35.395-35.293-9.792-31.119 13.344-47.421 38.774-55.998m143.529 824.046c4.76-.09 10.62-.19 12.76 4.22 8.01 16.46-7.66 9.15-9.86 11.81-5.11 5.76-4.19 19.94 1.29 25.47 10.14 10.2 18.03 4.62 26.26-2.85-2.27 17-3.63 33.17-4.36 50.32-.25 1.51-.64 5.27-2.44 5.88-2.12-.46-6.44-8.31-8.07-10.1-21.4-23.46-42.75-19.94-35.91-60.28l.36-2.02c2.2-12.82 7.53-18.68 19.97-22.45"/><path fill="#3f474e" d="M977.633 835.522c2.445-.677 2.616.244 3.085 3.009 1.334 7.859 5.182 14.465 8.191 21.753-24.596-2.777-40.189-3.407-58.737 16.081-5.588 3.492-14.065-41.408-5.019-39.777 15.546 2.803 36.54.252 52.48-1.066m834.807-62.815c1.54 6.073.39 47.225.42 55.885l.32 122.737-.4 215.031c-.05 15.01 1.72 109.76-3.01 115.18-1.56-4.31-1.61-8.42-1.58-12.99.5-88.94 1.65-177.89 1.81-266.83l.9-137.877c.03-11.897-.93-85.361 1.54-91.136m-808.48 736.013c3.14 2.99 3.22 6.39 5.23 10.7 6.57 14.09 13.87 28.15 26.9 37.36 2.69 1.9 8.07 4.2 11.46 6.13-.78 8.21-.71 10.05-2.09 18.26-8.54-1.01-22.61-7.88-29.97-12.66-14.51-9.43-10.84-33.27-12.1-48.01-.44-5.16-.91-6.97.57-11.78"/><path fill="#1c2022" d="M239.85 852.482c.813-8.638-1.041-22.382 2.1-27.803.566 101.608.249 203.221-.952 304.821l-.722 84.55c-.005 19.23.731 41.25-.083 60.24l-.916.69c-4.287-7.73-2.018-30.49-2.004-40.69q-.03-49.995.77-99.99l1.187-202.71c-.417-9.676-.43-49.245.667-57.743a963 963 0 0 1-.047-21.365"/><path fill="#74717d" d="M239.897 873.847c.779 8.196 1.132 50.935-.667 57.743-.417-9.676-.43-49.245.667-57.743"/><path fill="#3f474e" d="M1412.39 801.29c.15-7.666.25-17.229 2.01-24.646.04 8.168-.82 19.294-.38 26.652 1.18 1.79.89 2.146.54 4.419 1.35 39.695 2.96 471.625-.16 475.145-1.64-3.16-2.45-6.17-2.47-9.77l1.05-467.393c-1.18-1.771-.88-2.199-.59-4.407"/><path fill="#a3a2a8" d="M1412.39 801.29c1.57 1.707 1.11 2.16.59 4.407-1.18-1.771-.88-2.199-.59-4.407m1.63 2.006c1.18 1.79.89 2.146.54 4.419-1.5-1.717-1.06-2.254-.54-4.419"/><path fill="#ba7027" d="M884.336 648.633c2.934 2.588 5.355 7.383 7.319 10.862-6.904 20.321-14.421 28.416 8.865 29.062 26.539.736 34.953-15.253 52.48-31.235.383-.35 9.422 2.102 3.376 9.709-9.563 10.165-20.262 22.334-33.491 27.447-16.311 6.303-35.778 3.96-51.486-2.582 6.641-15.682 9.441-26.983 12.937-43.263m101.581-83.434c14.763-1.071 15.983 1.043 28.453 7.019 13.54 6.489-1.14 6.946 5.2 9.481 9.13 3.657 13.33 7.895 20.6 14.069 7.27 6.182 14.47 12.322 21.51 18.745 1.29 1.768-2.8 6.716-3.72 6.645-3.69-.289-11.42-7.366-14.4-9.455l-2.68-1.841c-25.44-17.042-39.62-51.361-72.721-26.898l-1.538 1.104c-2.936-3.093-4.13-5.06-6.281-8.724 10.317-4.968 14.213-6.91 25.577-10.145m125.613 18.41c-1.27-.817-1.48-1.083-2.9-1.866-17.44-9.791 22.33-21.211 28.87-21.404 7.19-.212 13.38-.364 21 .739 8.93 1.291 17.17 3.382 25.97 5.918a201 201 0 0 0-8.27 25.528c-.51 1.984-1 3.962-1.44 5.964l-.94 4.007c-.79 3.322-1.04 4.489-3.51 6.379-2.49-3.825-5.4-6.93-7.91-10.764 2.19-8.906 3.98-18.092 6.56-26.846-21.1-2.024-41.43-7.478-56.47 11.172z"/><path fill="#3f474e" d="M636.44 771.791c1.584 2.728-.471 72.582-.464 82.623l1.052 299.496.124 75.4c.043 12.52.69 33.4-.653 45.31l-.695-.35c-2.048-4.06-.807-155.54-1.134-174.33-.996-57.2 1.281-122.164-.656-179.94-1.611-48.072 1.578-100.763 2.426-148.209"/><path fill="#ba7027" d="M1161.04 660.459c1.16-3.852 3.38-9.065 3.87-12.962 2.25-17.996-4.47-37.185-18.92-48.426-4.92-3.835-7.65 3.489-15.56-2.523-11.3-8.586.3-9.233 8.58-9.75 8.66-.297 16.35 7.709 22.6 14.474.37-1.102.85-2.057.79-3.162 2.51 3.834 5.42 6.939 7.91 10.764l-1.21 3.475c6.67 16.972 5.43 38.898-.39 55.99a428 428 0 0 0-7.67-7.88"/><path fill="#ebe9e8" d="M1162.4 598.11c2.51 3.834 5.42 6.939 7.91 10.764l-1.21 3.475c-1.41-2.109-6.83-9.528-7.49-11.077.37-1.102.85-2.057.79-3.162"/><path fill="#ba7027" d="M1092.66 666.917c-11.86 11.896-20.5 27.091-39.66 30.154-11.5 1.839-27.44-6.872-33.69-16.193-2.35-3.505 5.39-6.633 7.7-3.757 29.38 25.615 50.19-2.86 64.34-27.618.76-1.332 7.99 3.653 8.43 6.102.38 2.063-2.34 5.77-3.65 8.094.67 1.842 1.28 3.381 2.05 5.2l-1.22 2.235c-1.79-2.553-1.69-2.411-4.3-4.217"/><path fill="#ebe9e8" d="M1092.66 666.917c1.1-1.142 2.39-2.046 3.47-3.218.67 1.842 1.28 3.381 2.05 5.2l-1.22 2.235c-1.79-2.553-1.69-2.411-4.3-4.217"/><path fill="#ba7027" d="M880.903 590.221c16.633 10.602 1.505 12.674 6.091 29.281 4.056 14.689 16.486 30.233 27.087 40.928 1.995 2.013 20.466-2.02 9.192 7.584-3.248 2.016-5.941 3.321-9.214 5.133-16.981-12.379-31.038-31.564-36.01-52.15-3.016-12.484-.56-19.199 2.854-30.776m137.817 64.461c2.38 1.829 4.07 3.167 6.07 5.442l2.44 2.824c-20 22.314-38.321 44.885-69.735 23.831-3.732-2.851-4.944-3.851-8.348-7.128 2.973-2.147 5.699-4.08 8.644-6.308a318 318 0 0 0 3.777 3.473c25.808 22.972 41.652-4.113 57.152-22.134M866.609 554.651c18.951 17.076 36.389 35.335 55.131 52.518 2.007 1.84-5.041 7.184-5.852 7.862-5.625-3.684-9.32-7.632-13.945-12.51-13.394-14.126-28.559-26.499-42.271-40.247a269 269 0 0 1 6.937-7.623m229.631 23.095c5.95 3.994 13.9 12.437 21.18 17.38 6.28 5.598 15.4 10.772 20.98 16.958 8.41 9.325 18.89 13.967 7.42 23.769l-1.51 1.327c-1.46-1.887-1.11-1.576-1.59-3.167-3.55-11.751-43.55-40.637-53.68-46.672 2.56-3.66 4.32-6.125 7.2-9.595m33.55 52.907c3.54 2.439 3.59 5.793 6.47 9.155 13.81 16.144 29.45 32.676 44.17 48.065-2.79 2.667-4.48 4.462-7.71 6.535-4.85-4.388-51.72-55.107-51.74-56.768-.01-.353.04-.906.37-1.131.24-.158.65-.052.87-.023.25.032.5.081.75.1 1.98.143 5.51-4.585 6.82-5.933"/><path fill="#3f474e" d="M1122.52 875.836c2.18 2.318-1.28 32.066-2.32 36.68-3.88 17.281-3.51 15.979-17.14 9.599l-1.36-.621q-4.95-2.436-9.78-5.094c6.09-11.169 11.39-16.007 19.55-25.482 3.59-4.167 7.46-10.452 11.05-15.082"/><path fill="#ba7027" d="M1084.81 620.699c3.95 3.005 8.29 7.912 11.93 11.456 9 8.766 17.92 17.703 26.93 26.456.83.81 3.93-.719 5.33-.489 3.08.509 7.42 4.124 7.72 7.292.06 1.161-4.57 4.506-5.43 5.163-7.63 1.521-8.85-.355-15.05-5.836-13.02-11.501-26.06-23.398-38.46-35.574 2.49-3.292 4.24-5.372 7.03-8.468m-25.13-31.62c19.85-.753 29.58 10.161 40.01 25.493 2.9-3.888 6.25-11.768 11.35-7.428.64.541 2.21 1.853 2.03 2.825-.97 5.387-7.71 11.633-11.32 15.563-9.65-2.497-24.47-29.114-38.31-27.566-2.81.315-3.45 5.958-5.48 5.672-1.5-.212-10.07-8.134-11.43-9.309 4.56-1.991 8.42-3.645 13.15-5.25"/><path fill="#3f474e" d="M988.113 1362.61c3.509 1.95 4.021 4.25 5.966 7.82 6.931 12.71 16.221 14.14 28.481 19.35-9.96 4.18-12.51 3.71-21 10.72-7.999 8.09-7.288 9-10.805 19.19-2.084-11.54-6.285-47.15-2.642-57.08"/><path fill="#ba7027" d="M940.465 623.663c3.407 2.247 4.156 4.403 6.848 6.715 11.511 9.885 19.998 20.989 31.288 31.397.738-1.185 3.847-7.521 4.924-7.255 4.192 1.035 11.869 5.593 8.136 10.525l-.912 1.287c-1.864 1.499-5.978 5.172-8.256 4.78-13.744-2.363-37.754-30.101-48.747-40.024 2.326-2.859 4.151-4.794 6.719-7.425m67.415-.041c3.66 1.78 6.23 5.8 9.45 9.045 9.51 9.583 20.02 19.351 30.19 28.051.62.529 3.96-2.998 4.95-2.891 8.82.953 1.45 10.61-1.13 14.056-6.96 4.313-13.88-5.962-19.16-11.149-10.25-10.062-21.06-19.828-30.7-30.309-1.08-1.169 5.86-6.373 6.4-6.803m-16.851-35.35c14.331.991 23.501 14.808 33.561 23.377 1.84-.06 2.07-3.699 4.35-2.511 8.82 4.599 3.99 21.153-4.97 15.213-9.59-8.967-19.74-18.697-30.546-26.127-.85-.585-6.012 3.422-6.685 3.863-12.637-8.94-13.684-11.02 4.29-13.815m107.151 80.627c16.9 14.123 29.3 17.65 48.73 6.777 4.13 3.62 5.59 5.082 9.2 9.131-12.2 7.446-22.81 10.425-37.1 6.927-5.15-1.261-24.02-10.186-25.98-14.743.16-1.108 3.04-4.585 3.93-5.857zm-52.33-47.152c7.71 6.004 5.56 6.176 3.15 10.823-.5.959 4.73 4.766 6.86 6.76 3.84 3.588 8.61 7.938 12.6 11.7 6.31-6.697 5.14-6.076 7.24-14.503 3.23 2.792 6.28 5.409 9.46 8.283-1.88 2.192-3.8 4.354-5.75 6.484-3.45 4.233-6.99 8.769-10.76 12.672-8.58-6.522-26.01-22.778-34.03-30.686 4.57-4.291 7.05-7.048 11.23-11.533m13.92-58.518c9.86.04 20.66 4.344 28.06 10.916 2.93 2.595-1.54 11.17-3.75 9.71-8.76-5.793-14.1-9.495-24.72-11.318-4.59 1.144-14.1 4.124-16.79 7.572-8.56 10.999-18.99-1.132-5.82-7.68 9.56-4.755 11.9-7.01 23.02-9.2m-154.776 55.166c4.899 1.843 22.533 29.935 29.619 31.619 1.547-1.208 3.642-5.376 4.573-5.33 8.355.416 5.646 7.913 4.112 11.091-1.806 1.537-7.344 6.597-9.835 5.289-11.695-6.142-26.566-23.416-33.733-33.794 1.038-2.048 1.976-4.097 3.276-5.999zm23.02-56.008c12.185.473 15.727 2.99 24.187 11.432-2.724 3.923-3.413 5.1-6.679 8.741-8.903-6.112-9.534-7.69-20.098-10.071-6.824 2.195-13.629 6.813-16.915 8.675-2.117 1.2-16.438-6.751-1.834-12.567 10.114-4.028 8.751-5.171 21.339-6.21m6.806 44.289c-2.314-2.051-6.689-6.587-10.342-6.504-1.274.162-3.061.417-4.147-.556-1.816-1.629-4.005-5.139-4.225-7.637-.306-3.472 4.964-3.856 7.395-3.709 5.327.346 9.74 3.744 13.722 6.99 6.505 5.303 12.443 11.318 17.863 17.731 2.79 3.301 3.386-5.153 5.823-2.949 1.538 1.391 1.81 5.566 1.901 7.474-.389 3.512-5.036 7.31-7.41 9.532-5.679-5.385-10.306-10.739-16.15-15.991-1.269-1.602-2.878-3.06-4.43-4.381m36.991 16.069c8.523 7.299 15.595 19.024 26.169 24.26 1.934.958 5.16-6.807 10.15-2.248 2.91 2.665 4.71 3.565 1.44 7.53l-4.47 5.39c-1.16 1.177-4.02 4.163-4.7 3.565-7.274-6.425-30.261-25.171-36.265-30.103 2.771-3.385 4.626-5.292 7.676-8.394m-17.888-43c8.754 5.364 23.087 23.234 32.796 29.615 3.131 2.057-.109 7.799-3.918 8.864-13.101-9.157-25.124-20.799-36.596-31.881-2.229-2.153 6.949-6.151 7.718-6.598"/><path fill="#3f474e" d="M1078.41 1221.59c3.1 2.78-1.67 42.21-2.03 42.67-1.24-.19-3.39-4.03-4.06-5.05-2.8-4.86-5.15-8.22-8.53-12.66 13.41-13.07 7.55-9.13 14.62-24.96"/><path fill="#ba7027" d="m1075.7 606.794 1.45.92c8.86 5.712 1.47 8.85-3.38 15.08-3.35 4.283-7.48 8.56-11.24 12.475-.72-.333-7.02-2.805-6.35-4.253 4.08-8.77 12.56-17.754 19.52-24.222"/><path fill="#3f474e" d="M239.85 852.482c-.889-8.086-.455-18.96-.55-27.357q-.195-23.573-1.206-47.125c-.476-13.923 7.199-10.294 5.723 4.459-1.29 12.892-.157 28.771-1.867 42.22-3.141 5.421-1.287 19.165-2.1 27.803"/><path fill="#ba7027" d="M934.82 606.676c1.552 1.321 3.161 2.779 4.43 4.381-.722 1.273-.947 1.621-1.483 2.892-1.604 2.83-13.6 18.277-16.257 16.957-13.883-6.898 5.073-19.406 11.657-22.691q.835-.76 1.653-1.539"/><path fill="#ebe9e8" d="M934.82 606.676c1.552 1.321 3.161 2.779 4.43 4.381-.722 1.273-.947 1.621-1.483 2.892-1.854-2.966-2.154-3.26-4.6-5.734q.835-.76 1.653-1.539"/><path fill="#ba7027" d="M998.843 609.71c8.537 1.876 6.237 8.667 1.197 12.788-3.154 2.581-6.377 7.575-9.954 10.875-1.554-.878-8.815-4.821-7.883-6.862 2.055-4.501 12.851-13.679 16.64-16.801m122.237 6.895c4.33 2.129 7.17 5.037 3.81 9.333-5.57 7.116-3.14 7.327-10.43 12.708-7.62-5.492-9.9-6.646-2.62-12.198 2.46-1.877 6.82-7.274 9.24-9.843"/><metadata><recraft-signature>{&quot;signed_by&quot;: &quot;recraft&quot;, &quot;signature_b64&quot;: &quot;19NnjzvRJd1p/W+AuqXto02mW1itC8Ml11vsT8suhPFcZNeF3YQGHv3hku9C8kybSQ6ghYdDT3jtVujkmAZaCA==&quot;, &quot;signing_algo&quot;: &quot;Ed25519&quot;, &quot;generation_timestamp&quot;: 1777253526, &quot;identifier&quot;: &quot;2ead87ff-1739-4db3-8478-5dc49b6f8d91&quot;}</recraft-signature></metadata></svg>