<svg xmlns="http://www.w3.org/2000/svg" width="1024" height="1024" preserveAspectRatio="none" style="display:block" viewBox="0 0 2048 2048"><path fill="#172a33" d="M1641.67 1455.7c6.69 39.47 11.49 79.69 17.68 119.28l-16.53.14c2.23 5.11 3.05 6.59 6.85 10.66-.79 1.43-1.76 3.2-2.93 5.31-.03 16.03.33 39.22.36 54.51 7 2.52 12.4 6.34 17.97 11.15 2.13 6.02 2.77 10.59 4.18 16.74 4.55 19.84 11.4 33.4 23.34 49.45 24.37 26.47 47.75 36.58 83.76 36.11-33.78 25.52-63.7 19.59-94.9-6.08l-1.6 4.01c1.58 2.27 2.7 4.32 4.12 6.66 22.18 24.99 43.38 40.64 78.29 39.17l3.02 3.6c-38.14 20.63-64.8 4.75-91.8-23.72l-.73 1.05c3.09 7.59 8.73 13.76 13.31 20.9-9.83-2.02-15.96-3.31-26.19-4.06l-.19 2.16c3.01 3.57 5.38 6.27 7.01 10.83.05 1.95.21 3.01.46 4.94l1.98 2.64c20.94 31.63 56.79 53.17 95.11 53.93l.41 3.56c-50.85 14.38-69.13 3.86-101.38-35.44l-1.54 2.06c-.84-1.07-1.68-2.14-2.5-3.21-4.07 6.48-3.45 43.94-7.86 53.63-.2-.75-.33-1.96-.95-2.53l-.22.01c-.35.5-.79 8.4-1.27 10.21-.33.21-.26.17-.69.13.04.04-.6-9.42-1.21-11.76-1.75 28.15-2.04 55.55-3.95 84.09-2.88 9.91 1.52 12.75-4.19 21.14q-.03 2.775.12 5.55c-.27 7.41-.39 13.47-1.14 20.99-1.09-5.56-2.01-24.14-2.48-30.64l-4.55-61.55c-.44-5.45-1.3-20.61-3.18-25.17.68-10.34-3.07-56.57-8-64.12l-1.45-1.78c-30.97 42.11-54.57 52.5-105.79 37.64l-1.52-4.19c13.05-.5 24.33-1.04 36.97-4.74 24.92-7.28 50.56-26.12 63.22-48.97 1.12-1.61 2-2.77 3.21-4.27l-1.32-2.17c2.25-3.33 4.77-6.5 6.97-9.8.07-1.13.14-2.2.25-3.32-9.88 1.15-15.89 4.24-26.23 4.26 3.29-4.63 5.83-7.44 8.75-12.53l-2.15-2.9c-25.9 23.95-54.03 34.74-87.09 17.19l-.66-3.92c33.42 2.24 58.53-11.56 80.15-36.09 1.5-2.21 3.01-4.4 4.54-6.58l.31-4.69c-29.7 23.52-62.46 28.75-93.34 3.95 1.12 0 2.24 0 3.35-.02 33.58-.36 55.37-10.44 78.61-34.11 10.6-14.98 20.28-31.21 23.45-49.5 2.84-16.38 6.95-25.15 25.1-29.09l.04-54.18-4.11-6.68c2.94-3.32 5.44-6.8 8.11-10.34l1.07-.63c1.4-3.82-.12-83.22-.32-92.93.33-7.91-.07-18.52 1.89-25.94"/><path fill="#9c5d2b" d="M1634.99 1646.4c-.05 2.76.44 15.61-.69 18.05-.28.6-3.76.78-4.86.94 2.69.53 4.32-.21 5.29 2.11.03 4.91-.3 16.37.38 20.6l-.85 2.71c.36 8.03 3.38 19.28-5.18 20.41-12.07 2.77-27.54 6.69-38.48 12.31-1.44.74-2.6 1-4.16 1.46 10.6-14.98 20.28-31.21 23.45-49.5 2.84-16.38 6.95-25.15 25.1-29.09"/><path fill="#192424" d="M1615.5 1690.95c9.73-1.72 8.69-3.39 19.61-2.85l-.85 2.71c-10.06.16-8.69-.36-18.19 2.86zm13.94-25.56c2.69.53 4.32-.21 5.29 2.11-5.18 1.47-18.87 2.42-24.7 2.61 2.41-.65 4.81-1.32 7.21-2.02 4.27-1.28 7.78-2.02 12.2-2.7"/><path fill="#6d4425" d="M1616.07 1693.67c-6.71-.91-8.57-2.56-.57-2.72z"/><path fill="#9c5d2b" d="M1647.1 1645.6c7 2.52 12.4 6.34 17.97 11.15 2.13 6.02 2.77 10.59 4.18 16.74 4.55 19.84 11.4 33.4 23.34 49.45-16.41-3.64-26.84-9.97-45.8-12.31-.02-4.86-1.44-17.61 2.02-20.4-1.14-.51-1.54-.41-2.58-.74-.08-.51.43-1.07.67-1.45.12-6.74-2.74-18.64 3.43-20.64l-.43-1.22c-5.1-1.95-3.02-15.13-2.8-20.58"/><path fill="#192424" d="M1646.9 1688.04c4.39-.09 17.23 1.58 19.14 5.3-.74.75-15.07-2.67-17.23-3.11-1.14-.51-1.54-.41-2.58-.74-.08-.51.43-1.07.67-1.45"/><path fill="#473320" d="M1649.9 1666.18c1.01-.01 11.14.1 11.93 2.95.31 1.13-3.66-.17-4.32-.36-2.07-.61-4.8-.97-7.18-1.37z"/><path fill="#9c5d2b" d="M1632.88 1825.42c1.22 4.28 2.19 55.78 2.24 64.28.2 35.83 3.04 71.72 3.77 107.27q-.03 2.775.12 5.55c-.27 7.41-.39 13.47-1.14 20.99-1.09-5.56-2.01-24.14-2.48-30.64l-4.55-61.55c-.44-5.45-1.3-20.61-3.18-25.17.68-10.34-3.07-56.57-8-64.12l-1.45-1.78c2.68-3.49-.16-7.77 2.61-12.6 3.72-2.06 7.71-1.89 12.06-2.23m-1.79-112.26c5.05 2.82 3.36 16.81 1.69 20.89l.37 2.77c.55 3.38 1.55 17.28-1.07 19.7-14.67 1.9-23.76 6.91-39.11 9.92 1.5-2.21 3.01-4.4 4.54-6.58l.31-4.69c1.51-2.13 7.15-7.38 9.43-9.85.71-1.55 2.03-3.71 3.11-4.98 9.13-10.64 7.78-21.22 20.73-27.18"/><path fill="#192424" d="M1609.91 1741.47c8.81-4.28 12.78-6.09 22.87-7.42l.37 2.77c-7.62 1.6-15.59 3.16-23.24 4.65"/><path fill="#f0eee0" d="M1607.25 1745.32c-3.08 6.1-5.59 9.15-9.74 14.54l.31-4.69c1.51-2.13 7.15-7.38 9.43-9.85"/><path fill="#9c5d2b" d="M1631.78 1758.85c2.41 4.52 1.53 14.79 1.16 20.19-.27 1.15-.22 1.58-.28 2.86.75 4.7.45 13.09.37 18.13-3.29-.17-9.64-.54-12.83.4-9.88 1.15-15.89 4.24-26.23 4.26 3.29-4.63 5.83-7.44 8.75-12.53l-2.15-2.9c3.25-3.33 6.11-6.23 9.25-9.71 3.24-6.74 12.46-17.9 20.12-20.12z"/><path fill="#192424" d="M1632.66 1781.9c-2.29.07-14.81.75-15.9.36l.02-.02-.8-.69c1.8-2.76 13.82-2.49 16.96-2.51-.27 1.15-.22 1.58-.28 2.86"/><path fill="#ebf0ef" d="M1609.82 1779.55c-.57 3.82-4.61 10.25-7.1 12.61l-2.15-2.9c3.25-3.33 6.11-6.23 9.25-9.71"/><path fill="#9c5d2b" d="M1647.02 1778.85c-.03-8.21-4.64-29.7 13.61-13.22 3.02 2.73 10.8 13.4 12.85 17.06l-.73 1.05c3.09 7.59 8.73 13.76 13.31 20.9-9.83-2.02-15.96-3.31-26.19-4.06l-.19 2.16c-3.81-1.1-8.12-.75-12.25-.91l-.55-2.45c.29-5.49.14-11.48.2-17.04 6.53-.13 12.9.34 19.13-1.2-6.95-2.02-12.09-2.1-19.19-2.29"/><path fill="#252824" d="M1646.88 1799.38c2.99.17 10.6.3 12.99 1.2l-.19 2.16c-3.81-1.1-8.12-.75-12.25-.91z"/><path fill="#9c5d2b" d="M1647.03 1826.05c17.91.42 10.72-1.54 13.08 13.16l-.88 2.84c-4.07 6.48-3.45 43.94-7.86 53.63-.2-.75-.33-1.96-.95-2.53l-.22.01c-.35.5-.79 8.4-1.27 10.21-.33.21-.26.17-.69.13.04.04-.6-9.42-1.21-11.76-.57-4.75-.17-17.45-.12-22.97zm-.06-69.47c.07-15.95-4.82-20.9 10.56-18.91 4.84.67 4.84 1.17 9.77.97 3.21 1.26 5.43 3.73 7.09 6.74 2.39 2.77 4.86 5.04 7.06 7.59l-1.6 4.01c1.58 2.27 2.7 4.32 4.12 6.66-12.64-2.72-24.1-5.97-37-7.06"/><path fill="#fff" d="M1679.85 1756.98c-2.02-3.28-5.3-8.01-5.46-11.6 2.39 2.77 4.86 5.04 7.06 7.59z"/><path fill="#9c5d2b" d="M1620.2 1800.43c3.19-.94 9.54-.57 12.83-.4l-.02 1.85c.25 6.45.41 15.11.05 21.46-15.73-1.27-13.91 4.77-18.76-7.62l-1.32-2.17c2.25-3.33 4.77-6.5 6.97-9.8.07-1.13.14-2.2.25-3.32"/><path fill="#252824" d="M1620.2 1800.43c3.19-.94 9.54-.57 12.83-.4l-.02 1.85c-6.62.09-7.43-.63-13.06 1.87.07-1.13.14-2.2.25-3.32"/><path fill="#9c5d2b" d="M1647.43 1801.83c4.13.16 8.44-.19 12.25.91 3.01 3.57 5.38 6.27 7.01 10.83.05 1.95.21 3.01.46 4.94-2.21 1.19-1.62 1.51-3.03 2.55-3.68 2.72-12.72 1.93-17.1 1.91-.02-5.81-.33-15.68.41-21.14m-.46-68.08c-.02-6.96-3.44-30.76 8.84-13.69 3.79 5.27 9.01 11.46 11.4 17.42l.09 1.16c-4.93.2-4.93-.3-9.77-.97l-.66-2.95-1.66-.17c-2.88-.34-5.42-.5-8.24-.8"/><path fill="#192424" d="M1656.87 1734.72c4.41.8 6.56.79 10.34 2.76l.09 1.16c-4.93.2-4.93-.3-9.77-.97z"/><path fill="#bec4c7" d="M1660.11 1839.21a94 94 0 0 1 3.16 3.99l-1.54 2.06c-.84-1.07-1.68-2.14-2.5-3.21z"/><path fill="#172a33" d="m410.672 1461.67 2.357-1.62c6.308 37.41 10.912 76.82 16.736 114.61-5.619.03-11.5-.03-17.093.17.902 1.46 5.837 9.24 5.739 10.24-1.997 20.27-1.426 40.42-1.318 60.79-.134 4.58-.763 13.25.513 17.87.109.39 5.175 1.95 5.381 2.02 2.475-.37 2.646-.16 5.207.06 1.379.11 2.759.19 4.141.26 5.59-1.3 1.541 2.06 2.062 3.68.419 1.3 5.03 2.99 6.504 3.67 7.428 27.06 8.932 27.85 23.783 50.43 19.828 21.05 40.325 32.93 69.689 35.36 4.977 1.51 6-.15 8.573 3.98a72.9 72.9 0 0 1-38.211 12.28c-21.409.68-38.695-10.37-53.614-24.54l-2.253 1.97c3.369 4.62 6.708 9.29 9.815 14.09 25.271 26.9 47.737 40.78 86.201 34.59-34.288 21.57-60.612 18.09-90.523-9.76-3.316-3.09-7.506-7.93-10.945-10.63 1.411 3.67 9.8 17.82 12.455 22.37l-1.04-.3c-6.351-1.92-9.255-2.38-15.805-2.47-2.625.29-6.79.14-8.992 1.18 1.812 2.52 5.988 9.24 7.388 12.14.13 1.34.073 1.42-.166 2.74-1.494 3.12-1.105 3.93-3.094 6.63l.084 3.05c.393 5.04-.346 8.37-1.087 13.34l.02 6.08c-2.918 5.13-5.86 17.77-3.939 23.22l-.707 1.67c-3.777 7.85-4.836 26.42-6.047 35.82l-.566 4.79c-4.738 5.36-3.846 43.29-5.72 53.1.077-10.83 1.515-35.76.492-44.57l-.902-.48-.564.39c-.345 26.92-2.33 55.26-2.27 81.51-.11.29-1.836 5.45-1.587 5.09l-.512.09c-.68-.93-1.276-19.74-1.688-22.84-.086-6.74-1.053-33.65-2.018-39.44l.31-1.35-3.947 3.09c-.425-4.21-.428-7.19-.405-11.34-.73-9.45-1.452-18.08-2.657-27.52-.911-10.9-2.751-30.18-5.433-40.7l-.749-.9c1.264-4.85-.949-19.83-3.056-24.81l-.542-2.77c-26.768 45-67.491 59.19-115.559 36.2 53.238-1.18 79.88-15.03 112.422-58.28.001-1.79.127-2.98.294-4.75-32.645 36.25-60.606 50.08-107.847 31.17l2.148-3.58c.844.05 1.688.08 2.532.11 33.805.97 56.757-11.26 80.685-33.92 3.506-5.23 6.71-10.37 10.111-15.49l-2.637-1.65c-26.253 24.99-54.65 37.63-88.903 18.52l1.58-3.58c32.379 1.52 57.13-13.22 78.793-35.97 2.194-3.46 4.636-6.77 6.704-10.26l-1.296-3.59c-27.089 22.68-58.728 31.64-89.621 9.23 2.027-3.87 1.86-2.23 5.773-3.43l1.775-.55c28.846-1.58 49.096-13.08 68.796-33.3 3.719-4.74 6.797-8.62 10.185-13.33 11.726-16.3 12.578-33.57 17.518-51.99 1.18-4.4 11.968-11.47 16.432-12.34 6.617-1.29 4.58-3.44 5.219-10.3.112-12.19.366-33.84-.742-46.92.043.51-2.115-3.08-2.296-3.3-1.464-1.81 5.017-8.81 7.111-11.55l.755-.56c.968-13.01-.085-38.82.123-53.24.211-14.61 1.226-46.23-.055-59.68"/><path fill="#9c5d2b" d="M405.776 1636.92c.524 7.75-.424 14.35-.001 22.36.143 2.01.474 7.74-.337 9.34-.348 5.16.125 15.35-1.308 19.34l.264 2.91c.954 4.47.576 15.49.556 20.51-5.829.94-13.079 3.25-18.431 3.86-11.076 1.26-20.677 7.18-30.097 9.64 3.719-4.74 6.797-8.62 10.185-13.33 11.726-16.3 12.578-33.57 17.518-51.99 1.18-4.4 11.968-11.47 16.432-12.34 6.617-1.29 4.58-3.44 5.219-10.3"/><path fill="#192424" d="M405.775 1659.28c.143 2.01.474 7.74-.337 9.34-1.903-2.48-8.347.27-11.345.98l-.642-2.13c5.206-1.76 11.294-1.45 12.005-6.26zm-15.412 31.07c5.893-1.9 7.801-2.39 13.767-2.39l.264 2.91c-5.315.23-6.746.04-11.894 1.31l-1.503.36z"/><path fill="#6d4425" d="M390.997 1692.54c-1.61.4-9.398 3.34-9.737 3.13-.716-3.05 6.89-4.66 9.103-5.32zm3.096-22.94c-2.849.38-4.559.68-7.189-.52l1.161-.87-1.287.54-.093-.08c.378-1.02 5.747-1.07 6.766-1.2z"/><path fill="#9c5d2b" d="M422.987 1665.75c2.475-.37 2.646-.16 5.207.06 1.379.11 2.759.19 4.141.26 5.59-1.3 1.541 2.06 2.062 3.68.419 1.3 5.03 2.99 6.504 3.67 7.428 27.06 8.932 27.85 23.783 50.43-4.772-1.19-9.163-3.32-13.886-4.89-8.398-2.79-16.704-4.84-25.309-6.86a174 174 0 0 0-8.491-1.47c-.017-4.51-.776-16.69.863-19.86 1.404-.85 2.376-1.35 3.614-2.41-.659-.13-4.319-.45-4.21-1.38 1.019-8.78-5.298-17.88 4.566-19.59z"/><path fill="#192424" d="M421.475 1688.36c9.04 1.47 13.112 2.96 21.416 6.59-8.041-1.3-17.24-3.62-25.03-4.18 1.404-.85 2.376-1.35 3.614-2.41"/><path fill="#252824" d="M422.987 1665.75c2.475-.37 2.646-.16 5.207.06 1.379.11 2.759.19 4.141.26 4.68 7.64-7.59 2.31-10.504 1.32z"/><path fill="#9c5d2b" d="M417.895 1822.95c5.653.01 10.641-.17 16.267.53l.084 3.05c.393 5.04-.346 8.37-1.087 13.34l.02 6.08c-2.918 5.13-5.86 17.77-3.939 23.22l-.707 1.67c-3.777 7.85-4.836 26.42-6.047 35.82l-.566 4.79c-4.738 5.36-3.846 43.29-5.72 53.1.077-10.83 1.515-35.76.492-44.57l-.902-.48-.564.39c.11-27.52.497-66.26 2.323-93.75.128-1.08.257-2.11.346-3.19"/><path fill="#192424" d="M417.895 1822.95c5.653.01 10.641-.17 16.267.53l.084 3.05c-6.284-.49-10.359-.46-16.697-.39.128-1.08.257-2.11.346-3.19"/><path fill="#9c5d2b" d="M378.371 1743.16c1.958-4.64 13.757-17.94 15.734-24.18 1.294-4.09 10.065-3.93 10.239-3.28 1.16 4.32.642 14.57.538 19.38-.205 1.06-.206 1.49-.262 2.55.53 5.7.266 14.13.206 20.03-14.317 1.45-26.784 4.92-40.535 9.12 2.194-3.46 4.636-6.77 6.704-10.26l-1.296-3.59c1.47-2.03 6.831-7.8 8.672-9.77"/><path fill="#192424" d="M384.405 1739.02c8.286-3.29 11.195-4.32 20.477-3.94-.205 1.06-.206 1.49-.262 2.55-6.953.4-13.276.84-20.215 1.39"/><path fill="#f0eee0" d="M378.371 1743.16c-2.099 5.85-3.762 8.18-7.376 13.36l-1.296-3.59c1.47-2.03 6.831-7.8 8.672-9.77"/><path fill="#9c5d2b" d="M417.245 1733.92c.451-5.68-.181-11.37.028-17.04.131-3.56 5.578-2.02 7.108-.74 8.15 6.82 11.893 18.03 19.178 25.67.877.92 1.078 1.28 1.694 2.34 1.955 2.41 3.782 4.48 5.868 6.78l-2.253 1.97c3.369 4.62 6.708 9.29 9.815 14.09-3.548-.87-6.56-2.01-10.199-2.86l-3.999-.94c-10.211-2.36-15.919-5.28-26.751-6.67-.091-6.66-.197-13.03.224-19.69z"/><path fill="#252824" d="M417.245 1733.92c11.106.27 13.065 1.05 22.337 6.24-8.652-1.63-12.809-2.75-21.624-3.33z"/><path fill="#ebddd7" d="M448.868 1752.9c-2.376-3.83-3.285-4.52-3.615-8.75 1.955 2.41 3.782 4.48 5.868 6.78z"/><path fill="#9c5d2b" d="M379.358 1781.17c5.999-8.21 11.538-19.76 22.647-20.13.49-.02 1.931.02 2.092.54 1.28 4.14.528 11.92.581 16.26l.039 1.95-.417 2.05c.534 5.07.252 11.98.244 17.27-22.579-.18-18.492 1.3-39.197 5.84 3.506-5.23 6.71-10.37 10.111-15.49 2.328-3.66 2.664-4.36 3.9-8.29"/><path fill="#192424" d="M404.3 1781.84c-5.61.46-11.297.86-16.815 2.05-.65.14-4.608 1.42-4.187-.48l.868-.71-.087-.01c4.608-2.71 15.382-2.91 20.638-2.9z"/><path fill="#9c5d2b" d="M390.672 1838c.754-3.65-.073-7.73 2.004-10.4 3.224-1.37 8.381-.94 12.063-.92.316 31.12 1.306 62.6 1.486 93.58-4.51 3.22 1.335 13.74-3.116 14.44-.73-9.45-1.452-18.08-2.657-27.52-.911-10.9-2.751-30.18-5.433-40.7l-.749-.9c1.264-4.85-.949-19.83-3.056-24.81zm27.497-57.86c5.626-.65 18.88-.24 24.529.35l.718.7c1.411 3.67 9.8 17.82 12.455 22.37l-1.04-.3c-6.351-1.92-9.255-2.38-15.805-2.47-2.625.29-6.79.14-8.992 1.18-1.374.13-2.124.2-3.533.19l-8.537-.12-.671-2.54c1.118-6.78.013-11.22 1.014-17.39z"/><path fill="#192424" d="M418.169 1780.14c5.626-.65 18.88-.24 24.529.35-5.963 3.76-17.308 2.22-24.391 1.62zm-.876 19.36c6.89-.63 14.798.39 21.733 1.29-2.625.29-6.79.14-8.992 1.18-1.374.13-2.124.2-3.533.19l-8.537-.12z"/><path fill="#9c5d2b" d="m417.964 1802.04 8.537.12c1.409.01 2.159-.06 3.533-.19 1.812 2.52 5.988 9.24 7.388 12.14.13 1.34.073 1.42-.166 2.74-1.494 3.12-1.105 3.93-3.094 6.63-5.626-.7-10.614-.52-16.267-.53-.92-2.92-.181-17.42.069-20.91m.205-21.9c-1.24-11.68-4.094-32.03 15.308-13.06 2.232 2.18 7.547 10.58 9.221 13.41-5.649-.59-18.903-1-24.529-.35m-23.012 21.18c4.538 1 4.671.85 9.34-.02.283 7.18.301 14.37.054 21.56-15.036.57-12.992 4.33-17.016-6.94.001-1.79.127-2.98.294-4.75 1.721-4.2 4.262-6.69 7.328-9.85m11.068 118.94c1.023 2.75.742 17.9 1.236 22.69l-3.947 3.09c-.425-4.21-.428-7.19-.405-11.34 4.451-.7-1.394-11.22 3.116-14.44"/><path fill="#192424" d="M395.157 1801.32c-.137-.22-.275-.43-.412-.64.577-1.34 7.761-.37 9.752.62-4.669.87-4.802 1.02-9.34.02"/><path fill="#ebf0ef" d="M379.358 1781.17c-1.236 3.93-1.572 4.63-3.9 8.29l-2.637-1.65c2.15-2.24 4.329-4.45 6.537-6.64"/><path fill="#172a33" d="M1233.13 1462.03c.66-2.07.52-2.49 2.52-2.78 5.29 38.13 10.62 77.89 16.68 115.83l-16.89-.3c2.44 3.87 5.3 7.68 6.39 12.03l-.56 1.93c-3.66 12.88-1.9 42.38-1.32 56.86 8.68 1.98 13.47 5.85 19.38 12.08 1.45 5.25 2.49 10.96 3.47 16.33 3.78 20.66 11.92 34.11 23.99 50.74 25.09 24.84 45.38 34.62 80.83 34.52l1.87-.02c-31.68 24.93-68.03 20.01-96.02-7.88l-1.65 1.75c.62 1.02 1.25 2.03 1.87 3.05 1.76 2.83 3.43 5.72 5.03 8.64-9.13-3.05-17.37-4.93-26.91-6.52.15 1.05.17 2.23.22 3.29 2.69 4.23 8.09 11.78 11.19 16.41 1.32 1.61 2.66 3.2 4.02 4.78 1.15 1.23 2.25 2.39 3.36 3.65l-1.82 1.77c3.01 5.28 6.86 10.19 9.96 15.58 25.63 27.72 54.65 39.25 92.64 34.25-39.91 26.09-82.57 11.03-111.01-23.92.06 1.46.01 1.64-.24 3.07-2.01 2.74-1.74 2.5-2.94 5.8-.96 2.19-1.11 2.5-1.7 4.71.21 4.14-.31 6.59-.27 10.38-.05 1.4-.11 2.24-.25 3.69-2 6.25-4.34 18.75-3.83 25.12.03 1.72.05 2.5.27 4.2-3.01 8.26-5.79 27.3-7.18 36.18-1.35 4.32-1.24 6.43-1.56 10.99-.22.03-1.32 0-1.68.36-.4.41-.44 1.31-.38 1.83.18 1.46.76 4.27.17 5.65-.03.07-.09.05-.15.05-.84-2.95-.69-6.96-1.62-10.72-2.26 24.69-2.16 50.29-3.3 75.19-.61 1.94-1.43 7.52-2.17 8.4-.17-.07-1.33-6.13-1.55-6.92-2.44 3.74-1.61 6.7-2.1 11.26-1.38-7.76-2.96-36.16-3.15-44.65-2.12-5.13-1.78-43.74-4.3-54.95 1.05-5.81-3.44-33.08-5.42-39.54.2-5.48-1.6-17.42-4.7-22.01l-.67-1.06c-3.05 2.61-7.89 9.02-10.42 12.28-28.01 36.12-64.14 37.81-103.62 21.13 18.42-.47 27.26-1.2 45.11-6.19 23.77-6.64 52.13-28.93 63.51-50.7-.33-.84-.61-1.29-.66-2.11 2.61-4.46 6.33-9.2 10.29-12.52l1.37-1.19-.13-1.85c-10.22.29-20.83 2.69-30.83 4.98 4.09-5.62 8.54-11.61 12.4-17.38 1.83-1.74 4.03-4.23 4.18-6.89l.12-1.37c2.52-4.21 11.59-16.56 15.37-19.09-1.29-.53-2.58-1.08-3.86-1.64-7.31 3.08-18.64 5.06-26.54 6.05 2.18-3.5 4.17-6.78 6.54-10.19l-2-2.24c-30.39 30.21-63.39 28.24-97.23 5.69 3.39.12 6.77.16 10.15.12 34.2-.56 52.34-11.47 75.55-35.35 9.29-14.97 20.11-30.13 21.97-48.18 1.83-17.74 8.21-23.58 25.43-29.53.26-16 .28-34.27.05-50.46-.02-1.81-2.5-6.09-2.79-8.65-.29-2.45 5.56-8.67 7.39-10.87.93-8.08.17-30.13.12-39.35z"/><path fill="#9c5d2b" d="M1180.95 1722.67c9.29-14.97 20.11-30.13 21.97-48.18 1.83-17.74 8.21-23.58 25.43-29.53.06 7.42.15 12.31-.64 19.75-.03 1.15.01 2.21.04 3.35.24 4.14 1.83 19.11-2.6 20.24 1.35.69 1.59.54 1.53 2.09 2.07 3.66 1.24 14.94 1.27 19.87-13.02 3.32-32.67 8.12-45.28 11.91z"/><path fill="#252824" d="M1226.68 1690.39c-3.1.58-22.85 5.94-23.94 5.1 2.28-2.93 18.47-6.64 22.41-7.19 1.35.69 1.59.54 1.53 2.09"/><path fill="#473320" d="M1227.71 1664.71c-.03 1.15.01 2.21.04 3.35-2.76.06-20.15 2.61-20.54 2.14.47-1.57 18.06-5.28 20.5-5.49"/><path fill="#9c5d2b" d="M1239.95 1645.6c8.68 1.98 13.47 5.85 19.38 12.08 1.45 5.25 2.49 10.96 3.47 16.33 3.78 20.66 11.92 34.11 23.99 50.74-16.45-5.91-29.17-10.63-46.6-14.52-.07-5.54.23-14.29-.35-19.41-.14-1.37-.21-1.66-.08-3 .6-3.99.22-15.22.29-20.09l-.69-2.57c.89-5.73.4-13.46.59-19.56"/><path fill="#192424" d="M1239.76 1687.82c5.4.56 10.69 1.11 15.37 3.92l-.41 1.49c-4.06-.4-10.69-1.69-14.88-2.41-.14-1.37-.21-1.66-.08-3"/><path fill="#252824" d="M1239.36 1665.16c1 .08 7.35.7 7.63.88 2.8 1.81 9.14.19 10.38.41.5.43.4.38.48 1.05-1.61 3.13-14.59.52-17.8.23z"/><path fill="#6d4425" d="M1255.13 1691.74c1.1.42 10.98 4.18 9.65 5.96-2.5.1-7.26-3.22-10.06-4.47z"/><path fill="#9c5d2b" d="m1211.66 1827.13 16.09-.63c.5 39.02.33 82.01 1.65 120.68-.72 3.29-1.48 4.48-2.45 6.76.24-.58.16 3.41-.21 4.75-2.12-5.13-1.78-43.74-4.3-54.95 1.05-5.81-3.44-33.08-5.42-39.54.2-5.48-1.6-17.42-4.7-22.01l-.67-1.06c2.21-3.98.54-9.05.01-14m6.68-66.9c3.47-.21 6.03-.39 9.52-.28-.18 6.06.04 12.38-.34 18.3 0 1.74.03 3.08.11 4.81.02 4.83.6 12.71-.74 16.95-3.24-.08-6.53 0-9.79-.03-10.22.29-20.83 2.69-30.83 4.98 4.09-5.62 8.54-11.61 12.4-17.38 1.83-1.74 4.03-4.23 4.18-6.89l.12-1.37c2.52-4.21 11.59-16.56 15.37-19.09"/><path fill="#252824" d="M1227.63 1783.06c-3.12-1.97-17.56.93-21.65-.14-7.97-2.07 19.94-4.46 21.54-4.67 0 1.74.03 3.08.11 4.81"/><path fill="#9c5d2b" d="M1241.15 1756.83c3.86.26 6.84.63 10.66 1.46.15 1.05.17 2.23.22 3.29 2.69 4.23 8.09 11.78 11.19 16.41 1.32 1.61 2.66 3.2 4.02 4.78 1.15 1.23 2.25 2.39 3.36 3.65l-1.82 1.77c3.01 5.28 6.86 10.19 9.96 15.58-6.26-.88-14.02-2.76-20-2.88-6.42-1.13-10.92-1.09-17.42-1.43-.06-5.67-.16-10.81.08-16.49.05-1.45.05-2.61.01-4.06-.49-6.47-.35-12.54-.37-19.01.03-1.03.07-2.05.11-3.07"/><path fill="#192424" d="M1241.41 1778.91c1.33.01 26.62-1.01 17.01 3.82-.65.32-14.48.09-17.02.24.05-1.45.05-2.61.01-4.06"/><path fill="#252824" d="M1241.15 1756.83c3.86.26 6.84.63 10.66 1.46.15 1.05.17 2.23.22 3.29-3.41-.88-7.47-1.41-10.99-1.68.03-1.03.07-2.05.11-3.07"/><path fill="#bd8f67" d="M1265.56 1783.65c-.58-.48-1.17-.95-1.78-1.41-1.16-.88-2.04-1.71-1.18-3.17l.62-1.08c1.32 1.61 2.66 3.2 4.02 4.78z"/><path fill="#ebddd7" d="M1267.24 1782.77c1.15 1.23 2.25 2.39 3.36 3.65l-1.82 1.77c-1.04-1.54-2.11-3.05-3.22-4.54z"/><path fill="#9c5d2b" d="M1241.3 1733.65c-.66-3.43-1.07-17.94-.01-18.61 6.08-3.88 22.06 24.16 23.56 26.95 1.65.89 7.47 7.85 8.62 9.38l-1.65 1.75c.62 1.02 1.25 2.03 1.87 3.05 1.76 2.83 3.43 5.72 5.03 8.64-9.13-3.05-17.37-4.93-26.91-6.52-3.82-.83-6.8-1.2-10.66-1.46-.12-4.83-.68-16.36.47-20.57z"/><path fill="#252824" d="M1241.3 1733.65c6.96.57 12.77 1.96 18.66 5.78-5.91-1.05-12.56-1.94-18.34-3.17z"/><path fill="#ebddd7" d="M1264.85 1741.99c1.65.89 7.47 7.85 8.62 9.38l-1.65 1.75c-2.04-2.71-6.24-7.87-6.97-11.13"/><path fill="#9c5d2b" d="M1240.38 1826.98c5.8.06 9.48.37 15.11.7.21 4.14-.31 6.59-.27 10.38-.05 1.4-.11 2.24-.25 3.69-2 6.25-4.34 18.75-3.83 25.12.03 1.72.05 2.5.27 4.2-3.01 8.26-5.79 27.3-7.18 36.18-1.35 4.32-1.24 6.43-1.56 10.99-.22.03-1.32 0-1.68.36-.4.41-.44 1.31-.38 1.83.18 1.46.76 4.27.17 5.65-.03.07-.09.05-.15.05-.84-2.95-.69-6.96-1.62-10.72-1.1-8.04.43-40.08.52-49.91.08-9.53.17-29.49.85-38.52m-30.46-91.05c6.17-.7 11.71-1.96 17.99-2.17l-.47 3.05c.6 6.25-.28 14.54.76 19.93-.09 1.14-.2 2.07-.34 3.21-3.49-.11-6.05.07-9.52.28-1.29-.53-2.58-1.08-3.86-1.64-7.31 3.08-18.64 5.06-26.54 6.05 2.18-3.5 4.17-6.78 6.54-10.19 1-1.37 1.72-2.47 2.66-3.86l2.1-3.1c3.58-3.86 6.61-8.17 10.68-11.56"/><path fill="#252824" d="M1209.92 1735.93c6.17-.7 11.71-1.96 17.99-2.17l-.47 3.05c-5.02.21-14.89 2.61-17.52-.88"/><path fill="#192424" d="M1214.48 1758.59c6.65-1.88 6.75-1.62 13.72-1.85-.09 1.14-.2 2.07-.34 3.21-3.49-.11-6.05.07-9.52.28-1.29-.53-2.58-1.08-3.86-1.64"/><path fill="#9c5d2b" d="M1240.3 1815.56c1.74-11.03-2.72-14.5 9.26-12.98l3.53.48c3.41 3.31 5.95 6.25 7.28 11.04.06 1.46.01 1.64-.24 3.07-2.01 2.74-1.74 2.5-2.94 5.8-.96 2.19-1.11 2.5-1.7 4.71-5.63-.33-9.31-.64-15.11-.7.22-4.74-1.57-6.83-.08-11.42"/><path fill="#192424" d="M1240.38 1826.98c.22-4.74-1.57-6.83-.08-11.42 1.37 10.5 4.31 7.46 16.89 7.41-.96 2.19-1.11 2.5-1.7 4.71-5.63-.33-9.31-.64-15.11-.7"/><path fill="#9c5d2b" d="M1217.1 1799.98c3.26.03 6.55-.05 9.79.03l.22 2.15c.9 4.02.62 16.07.62 20.75-11.53.13-16.55 3.85-21.5-5.26-.33-.84-.61-1.29-.66-2.11 2.61-4.46 6.33-9.2 10.29-12.52l1.37-1.19z"/><path fill="#252824" d="M1217.1 1799.98c3.26.03 6.55-.05 9.79.03l.22 2.15c-3.42-.13-6.42-.31-9.88-.33z"/><path fill="#9c5d2b" d="M1207.66 1734.56c2.87-4.38 11.21-18.52 14.8-19.8l1-.35c7.62-2.44 3.98 13 4.45 19.35-6.28.21-11.82 1.47-17.99 2.17z"/><path fill="#8c5a34" d="M1229.4 1947.18c.6 7.37 2.92 39.57 2.59 44.9-2.44 3.74-1.61 6.7-2.1 11.26-1.38-7.76-2.96-36.16-3.15-44.65.37-1.34.45-5.33.21-4.75.97-2.28 1.73-3.47 2.45-6.76"/><path fill="#bd8f67" d="m1207.66 1734.56 2.26 1.37c-4.07 3.39-7.1 7.7-10.68 11.56l-.52-1.82c2.18-3.41 6.23-7.88 8.94-11.11"/><path fill="#f0eee0" d="M1192.48 1752.21c1.85-2.2 4.2-4.46 6.24-6.54l.52 1.82-2.1 3.1c-.94 1.39-1.66 2.49-2.66 3.86z"/><path fill="#172a33" d="M815.668 1456.06c6.35 39.66 10.949 79.57 17.191 119.22-4.029-.05-10.552-.7-13.821.75-.085 3.91.838 5.66 4.053 7.9-.514 4.65-2.675 7.38-2.823 10.64-.67 14.79-.172 30.84.043 45.64.373 1.17.489 5.88 1.243 6.08 15.17 4.16 19.552 11.28 21.593 26.19 2.713 19.82 12.75 35.53 23.446 51.6 21.002 22.02 43.464 34.38 74.383 35.06 2.993.06 5.987.09 8.98.08-31.14 26.21-67.833 18.85-96.086-7.48l-2.115 1.63c3.082 4.11 4.928 6.38 7.263 10.95 19.859 23.83 46.485 40.22 78.242 38.6l3.189 2.97c-38.372 19.67-60.998 7.43-90.069-19.79-.017 1.64-.049 3.28-.095 4.91 2.379 3.96 6.024 8.54 8.698 12.61-10.764-2.82-14.862-3.26-25.936-3.82l-.258 2.63c2.889 3.69 6.302 7.01 7.82 11.56-.052 1.38-.115 2.77-.191 4.16-1.212 1.59-1.47 2.02-2.447 3.81-.331 1.39-.653 2.79-.967 4.18-.45 2.63-2.023 10.68-1.946 12.87l-.212 3.78c-1.601 4.57-10.006 58.61-9.551 63.51-2.035 5.46-2.846 21.84-3.321 28.3-1.05 1.54-1.196 1.72-1.582 3.36l-1.016.72.044.04-.207-.05c.162.33-.117-14.16-.332-16.09-2.087 11.38-3.02 56.06-3.025 69.22-1.004 5.87-1.477 11.58-2.388 17.51-.972-7.33-1.041-16.56-2.42-22.64-.651 10.34.601 7.63-1.302 17.78-4.695-33.04-2.999-70.34-7.229-100.59-1.963-9.63-1.531-27.34-5.907-35.96l-.997-1.61c.696-5.48-.72-18.5-3.3-23.47l-.468-2.88c.316-1.18.578-11.35 1.077-14.67-.532-1.42-.347-1.38-1.431-2.1-2.312-1.95-2.222-3.25-4.92-4.31.491-2.21 1.249-4.32 1.722-6.53 2.676-4.1 4.639-6.74 8.01-10.25l10.744-.15.514-2c-.595-6.31-.257-11.64-.708-17.86l.107-2.26c.272-6.06.179-12.92.039-19-2.553.12-5.102.31-7.645.56-1.151-.77-2.289-1.55-3.413-2.36-4.195.34-11.535 2.23-15.928 3.22l-4.498 1.04c-2.54.59-4.963 1.21-7.543 1.78l2.936-4.92-.198-5.08c-13.815 10.05-25.361 17.76-43 19.51-18.138 1.79-38.026-4.71-52.119-16.13 39.648-.22 55.589-5.88 84.492-33.67 9.209-14.5 19.497-28.14 22.698-45.77 4.174-23 4.146-24.11 25.378-32.99-.05-14.76 1.348-41.13-.746-56.39.196 1.43-2.176-4.51-1.998-4.07 2.082-3.77 4.777-6.54 7.595-9.81 1.958-5.57.942-86.04.725-96.88.257-6.26-.681-18.02 1.933-22.79"/><path fill="#9c5d2b" d="M760.083 1724.76c9.209-14.5 19.497-28.14 22.698-45.77 4.174-23 4.146-24.11 25.378-32.99.031 4.07.31 14.71-.264 18.08-.087 1.18-.112 2.26-.147 3.45.112 2.69.361 16.77-1.52 19.89-.407.68-5.331.76-6.328.83.66.83 1.988 2.02 2.731 2.73.83-.02 3.954-.25 4.092.41.698 3.32.342 16.23.353 18.98-3.842.94-7.672 1.93-11.492 2.96-13.2 3.59-23.411 7.69-35.501 11.43"/><path fill="#192424" d="M780.93 1696.1c5.161-2.56 13.573-7.3 18.97-7.85.66.83 1.988 2.02 2.731 2.73-5.553 1.82-15.681 3.77-21.701 5.12"/><path fill="#252824" d="M787.719 1671.42c7.226-2.98 12.625-5.36 20.176-7.34-.087 1.18-.112 2.26-.147 3.45-4.575.7-8.564 1.93-12.926 2.69z"/><path fill="#9c5d2b" d="M820.311 1640.21c.373 1.17.489 5.88 1.243 6.08 15.17 4.16 19.552 11.28 21.593 26.19 2.713 19.82 12.75 35.53 23.446 51.6-15.689-5.05-29.917-8.91-45.686-13.5-.001-4.83-.364-15.95.445-20.11-.025-.95-.036-1.85-.106-2.8-.419-2.98-1.198-18.33.638-20 1.628-.6 3.185-1.16 4.784-1.85-.506-.21-5.173-1.96-5.325-2.34-1.815-4.48-1.544-18.64-1.032-23.27"/><path fill="#192424" d="M821.246 1687.67c4.382.66 13.785 2.49 17.138 5.42l.079.29c-.402.38-15.151-2.59-17.111-2.91-.025-.95-.036-1.85-.106-2.8"/><path fill="#252824" d="M826.668 1665.82c4.055.19 8.392 2.44 12.335 3.96-5.724-.65-11.5-1.6-17.119-2.11 1.628-.6 3.185-1.16 4.784-1.85"/><path fill="#9c5d2b" d="M792.922 1825.27c5.071 1.01 8.706.63 13.916.45.693 6.59.706 13.07.893 19.68 1.332 47.08 1.4 94.21 3.317 141.27-.651 10.34.601 7.63-1.302 17.78-4.695-33.04-2.999-70.34-7.229-100.59-1.963-9.63-1.531-27.34-5.907-35.96l-.997-1.61c.696-5.48-.72-18.5-3.3-23.47l-.468-2.88c.316-1.18.578-11.35 1.077-14.67m-13.269-79.77c2.057-3.74 6.237-7.64 8.841-11.47 7.485-11.02 6.455-14.79 17.764-21.3l.764-.45c.014 6.56-.281 15.52.332 21.76-.353.77-.552 1.69-.771 2.51.984 6.73.1 13.81.99 21.37l-.574 2.89c-2.553.12-5.102.31-7.645.56-1.151-.77-2.289-1.55-3.413-2.36-4.195.34-11.535 2.23-15.928 3.22l-4.498 1.04c-2.54.59-4.963 1.21-7.543 1.78l2.936-4.92-.198-5.08c1.283-1.77 7.068-7.48 8.943-9.55"/><path fill="#192424" d="M806.583 1736.55c-2.543.29-5.051.48-7.577.77l-3.508.54c-.865-.33-6.938 1.58-6.982.62-.163-3.51 15.952-4.4 18.838-4.44-.353.77-.552 1.69-.771 2.51"/><path fill="#ebf0ef" d="M779.653 1745.5c-.246 3.47-6.212 10.81-8.745 14.63l-.198-5.08c1.283-1.77 7.068-7.48 8.943-9.55"/><path fill="#192424" d="m807.573 1757.92-.574 2.89c-2.553.12-5.102.31-7.645.56-1.151-.77-2.289-1.55-3.413-2.36 4.698-1 6.773-1.18 11.632-1.09"/><path fill="#9c5d2b" d="M820.877 1825.06c7.337.05 8.999.13 16.127 1.08-.45 2.63-2.023 10.68-1.946 12.87l-.212 3.78c-1.601 4.57-10.006 58.61-9.551 63.51-2.035 5.46-2.846 21.84-3.321 28.3-1.05 1.54-1.196 1.72-1.582 3.36l-1.016.72.044.04-.207-.05c.162.33-.117-14.16-.332-16.09-.151-8.5.663-19.89.83-28.77zm.399-45.48c-.538-4.24-.675-13.91.112-18.14.256-1.37 9.935-.58 12.141 2.36 3.575 4.76 7.547 10.2 10.251 15.54l.598.61c2.102 2.11 4.209 3.78 6.002 6.15-.017 1.64-.049 3.28-.095 4.91 2.379 3.96 6.024 8.54 8.698 12.61-10.764-2.82-14.862-3.26-25.936-3.82l-.258 2.63c-4.056-.68-7.614-.47-11.726-.46l-.705-2.14c.992-6.45.419-10.47.907-16.85.018-1.16.044-2.24.011-3.4"/><path fill="#252824" d="M821.276 1779.58c-1.142-.16 24.347 2.43 18.048 3.86-2.866.65-14.098-.41-18.059-.46.018-1.16.044-2.24.011-3.4"/><path fill="#192424" d="M820.358 1799.83c5.529-.74 7.068-.56 12.689-.03l-.258 2.63c-4.056-.68-7.614-.47-11.726-.46z"/><path fill="#fff" d="m843.78 1779.34.598.61c2.102 2.11 4.209 3.78 6.002 6.15-.017 1.64-.049 3.28-.095 4.91-2.254-3.06-4.5-6.26-5.794-9.86z"/><path fill="#9c5d2b" d="M822.744 1734.32c6.825.96 10.644 1.84 17.008 4.89l.255.44c2.062 1.64 3.15 2.85 5.06 4.55 1.826 2.95 4.504 6.44 6.688 9.17 3.082 4.11 4.928 6.38 7.263 10.95-9.167-3.03-28.442-6.74-38.011-7.54-.017-5.44-.383-14.51.23-19.57.517-.97 1.023-1.9 1.507-2.89"/><path fill="#192424" d="M822.744 1734.32c6.825.96 10.644 1.84 17.008 4.89l.255.44c-3.705.09-14.193-1.8-18.77-2.44.517-.97 1.023-1.9 1.507-2.89"/><path fill="#9c5d2b" d="m796.303 1802.08 10.744-.15c.272 6.43.605 15.09-.391 21.35-.084 1.01.037 1.38.182 2.44-5.21.18-8.845.56-13.916-.45-.532-1.42-.347-1.38-1.431-2.1-2.312-1.95-2.222-3.25-4.92-4.31.491-2.21 1.249-4.32 1.722-6.53 2.676-4.1 4.639-6.74 8.01-10.25"/><path fill="#252824" d="M791.491 1823.17c4.763-.13 10.44-.21 15.165.11-.084 1.01.037 1.38.182 2.44-5.21.18-8.845.56-13.916-.45-.532-1.42-.347-1.38-1.431-2.1"/><path fill="#9c5d2b" d="M821.063 1801.97c4.112-.01 7.67-.22 11.726.46 2.889 3.69 6.302 7.01 7.82 11.56-.052 1.38-.115 2.77-.191 4.16-1.212 1.59-1.47 2.02-2.447 3.81-.331 1.39-.653 2.79-.967 4.18-7.128-.95-8.79-1.03-16.127-1.08-.03-1.3-.04-2.13.004-3.38.15-6.57.061-13.12.182-19.71"/><path fill="#252824" d="M820.881 1821.68c5.26.25 11.729.25 17.09.28-.331 1.39-.653 2.79-.967 4.18-7.128-.95-8.79-1.03-16.127-1.08-.03-1.3-.04-2.13.004-3.38"/><path fill="#9c5d2b" d="M822.744 1734.32c-2.93-1.33-1.62-6.19-1.834-9.07-2.129-28.67 17.305 3.89 20.567 11.73l-1.725 2.23c-6.364-3.05-10.183-3.93-17.008-4.89"/><path fill="#ebddd7" d="M845.878 1742.98c2.627 3.32 5.163 5.7 7.992 8.76l-2.115 1.63c-2.184-2.73-4.862-6.22-6.688-9.17z"/><path fill="#bd8f67" d="m839.752 1739.21 1.725-2.23c1.644 2.1 2.955 3.76 4.401 6l-.811 1.22c-1.91-1.7-2.998-2.91-5.06-4.55z"/><path fill="#172a33" d="M1659.23 1842.05c.82 1.07 1.66 2.14 2.5 3.21 17.98 31.15 34.09 49.62 70.36 59.69 9.4 2.61 22.92 4.53 32.65 3.88l2.51 3.1c-22.07 8.36-50.32 10.72-71.96-.35-11.98-6.13-19.07-14.99-26.66-25.74l-1.8 2.25c14.32 26.25 33.74 43.02 62.84 51.45 13.1 3.78 26.78 5.13 40.37 3.99 2.63.7 3.28.85 5.71 2.02-50.86 25.66-98.95 13.77-125.22-38.08.55-3.08.57-8.35.84-11.79 4.41-9.69 3.79-47.15 7.86-53.63"/><path fill="#bec4c7" d="M1666.83 1888.09c-1.33-2.29-9.88-17.42-9.57-19.21.2-.26.13-.2.47-.27.19.14.38.29.58.44l-.37.25c.99.33 9.76 14.77 10.69 16.54z"/><path fill="#172a33" d="M1619.66 1842.03c4.93 7.55 8.68 53.78 8 64.12-19.51 44.9-66.13 65.39-111.56 45.32-3.05-1.37-6.08-2.79-9.08-4.25l1.7-3.46c12.06 1.16 24.22.31 36-2.51 29.53-7.13 51.08-25.36 66.66-50.93l-1.66-3.25c-28.03 36.88-53.08 37.6-95.68 25.32l1.7-3.71c47.56 1.8 84.33-24.21 103.92-66.65"/><path fill="#bec4c7" d="M1609.72 1887.07c.77-1.58 11.26-21.03 11.76-21.24l-.02.03.25.42c-2.18 7.53-6.47 17.27-10.33 24.04z"/><path fill="#172a33" d="M834.846 1842.79c19.588 43.92 54.223 66.42 102.573 66.03l3.142 3.29c-42.654 13.03-71.714 10.94-98.667-26.83l-2.383 1.23c21.657 39.92 60.208 62.64 106.184 57.16l1.037 3.62q-1.414.69-2.844 1.35c-49.003 22.68-96.135 7.48-118.593-42.34-.455-4.9 7.95-58.94 9.551-63.51"/><path fill="#bec4c7" d="M839.511 1886.51c-1.297-2.55-7.31-14.82-7.047-17.38.092-.07.183-.14.275-.2.806.4 8.008 14.25 9.155 16.35z"/><path fill="#172a33" d="M1217.02 1864.2c1.98 6.46 6.47 33.73 5.42 39.54-28.16 57.5-77.81 70.3-132.31 37.67 53.42 10.91 94.02-13.61 119.21-59.9l-.96-3.26c2.26-4.58 5.51-10.03 8.64-14.05"/><path fill="#bec4c7" d="M1217.02 1864.2c-2.07 6.52-4.27 11.33-7.68 17.31l-.96-3.26c2.26-4.58 5.51-10.03 8.64-14.05"/><path fill="#172a33" d="M388.309 1879.25c2.562-4.4 3.987-8.49 6.71-12.77 2.682 10.52 4.522 29.8 5.433 40.7-14.048 23.97-30.01 42.06-57.923 49.48-22.539 5.99-49.185.01-68.796-11.98 3.267-.31 6.45-.48 9.735-.81 47.439 1.07 78.892-17.35 101.793-58.72 1.117-2.01 1.96-3.91 3.048-5.9m408.301-11.35c4.376 8.62 3.944 26.33 5.907 35.96-26.991 51.23-68.076 69.88-122.283 43.72l.518-4.08c12.79 1.98 27.887.05 40.307-3.24 34.897-9.23 52.042-30.46 69.426-60.41 2.206-3.68 4.344-8.04 6.125-11.95m-28.638-102.85c2.58-.57 5.003-1.19 7.543-1.78l4.498-1.04c4.393-.99 11.733-2.88 15.928-3.22 1.124.81 2.262 1.59 3.413 2.36 2.543-.25 5.092-.44 7.645-.56.14 6.08.233 12.94-.039 19l-.107 2.26c.451 6.22.113 11.55.708 17.86l-.514 2-10.744.15-.477-2.31c-10.167.81-18.874 3.55-28.818 4.88l8.369-12.26-2.261-2.27c-25.304 22.24-55.442 35.46-87.053 16.07l2.07-3.36c36.534 1.87 55.551-13.12 79.839-37.78"/><path fill="#9c5d2b" d="M783.891 1780.34c3.031-1.23 18.733-.63 23.069-.53l-.107 2.26c.451 6.22.113 11.55.708 17.86l-.514 2-10.744.15-.477-2.31c-10.167.81-18.874 3.55-28.818 4.88l8.369-12.26-2.261-2.27 9.519-10.18z"/><path fill="#252824" d="M783.891 1780.34c3.031-1.23 18.733-.63 23.069-.53l-.107 2.26c-5.936-.05-18.407.92-22.921-1.32z"/><path fill="#ebf0ef" d="m782.635 1779.94 1.256.4.041.41c-3.015 3.86-5.658 7.74-8.555 11.64l-2.261-2.27z"/><path fill="#192424" d="m807.561 1799.93-.514 2-10.744.15-.477-2.31c4.511-.21 7.209-.39 11.735.16"/><path fill="#9c5d2b" d="M799.354 1761.37c2.543-.25 5.092-.44 7.645-.56.14 6.08.233 12.94-.039 19-4.336-.1-20.038-.7-23.069.53l-1.256-.4c5.14-5.79 10.221-15.69 16.719-18.57"/><path fill="#172a33" d="M1251.41 1871.07c1.92 3.3 3.39 6.04 5.18 9.41 21.87 41.68 58.99 69.31 108.06 63.22l1.14 3.71c-18.46 10.69-46.41 14.03-66.94 8.28-26.53-7.44-41.56-25.5-54.62-48.44 1.39-8.88 4.17-27.92 7.18-36.18m-828.924 35.59c1.211-9.4 2.27-27.97 6.047-35.82 1.824 3.27 3.386 6.29 5.108 9.62 21.922 45.33 67.302 72.9 117.932 61.2-51.857 29.81-97.224 22.04-127.362-31.85q-.88-1.56-1.725-3.15m364.085-87.8c2.698 1.06 2.608 2.36 4.92 4.31 1.084.72.899.68 1.431 2.1-.499 3.32-.761 13.49-1.077 14.67-27.275 42.19-60.678 53.89-107.7 37.08l2.132-3.25c35.5 2.02 81.967-22.19 98.671-53.7z"/><path fill="#172a33" d="M429.24 1869.17c-1.921-5.45 1.021-18.09 3.939-23.22 15.023 28.23 33.533 48.19 65.076 57.98a114.7 114.7 0 0 0 38.351 4.89l2.537 2.92c-16.433 6.54-40.169 10-57.465 5.7-23.638-5.88-34.471-19.54-46.648-38.89l-1.389 1.91c-1.722-3.33-3.284-6.35-5.108-9.62z"/><path fill="#bec4c7" d="M429.24 1869.17c2.138 2.44 4.291 6.48 5.79 9.38l-1.389 1.91c-1.722-3.33-3.284-6.35-5.108-9.62z"/><path fill="#172a33" d="M1254.97 1841.75c7.97 23.39 27.53 45.47 49.82 56.14 21.43 10.27 39.2 10.68 62.55 11.29-20.43 9.56-48.14 14.26-69.95 6.5-17.75-6.33-29.56-22.26-39.36-37.55l-1.44 2.35c-1.79-3.37-3.26-6.11-5.18-9.41-.22-1.7-.24-2.48-.27-4.2-.51-6.37 1.83-18.87 3.83-25.12"/><path fill="#bec4c7" d="M1251.41 1871.07c-.22-1.7-.24-2.48-.27-4.2 2.47 3.65 4.77 7.4 6.89 11.26l-1.44 2.35c-1.79-3.37-3.26-6.11-5.18-9.41"/><path fill="#172a33" d="M1212.32 1842.19c3.1 4.59 4.9 16.53 4.7 22.01-3.13 4.02-6.38 9.47-8.64 14.05-25.92 42.04-60.72 50.99-106.15 32.18 6.65-2.67 12.06.54 15.51-2.01 44.45-1.61 76.46-26.77 94.58-66.23m-778.158-18.71c1.989-2.7 1.6-3.51 3.094-6.63 1.284 1.84 2.585 3.66 3.902 5.48 26.919 37.9 57.759 51.74 103.532 52.01-17.487 9.31-41.912 14.34-61.118 8.23-24.923-7.93-36.152-22.86-50.413-42.7.741-4.97 1.48-8.3 1.087-13.34zm-42.948 17.29c2.107 4.98 4.32 19.96 3.056 24.81l.749.9c-2.723 4.28-4.148 8.37-6.71 12.77-1.088 1.99-1.931 3.89-3.048 5.9l-1.871-1.62c-12.676 17.11-26.585 31.94-48.87 34.87-17.384 2.3-36.121-.41-52.342-6.85 2.529-1.06 4.693-1.6 7.286-2.5 44.09-.83 87.306-24.92 101.75-68.28"/><path fill="#929ba0" d="m394.27 1865.58.749.9c-2.723 4.28-4.148 8.37-6.71 12.77l-1.08-2.12c1.518-3.52 4.376-8.83 7.041-11.55"/><path fill="#bec4c7" d="m387.229 1877.13 1.08 2.12c-1.088 1.99-1.931 3.89-3.048 5.9l-1.871-1.62c1.259-2.14 2.539-4.28 3.839-6.4"/><path fill="#172a33" d="M792.313 1842.82c2.58 4.97 3.996 17.99 3.3 23.47l.997 1.61c-1.781 3.91-3.919 8.27-6.125 11.95l-2.121-.89c-29.898 43.31-56.171 48.66-106.222 32.41 3.481-1.78 6.321-1.52 10.183-2.26 45.382-1.86 82.406-23.32 99.988-66.29"/><path fill="#bec4c7" d="m795.613 1866.29.997 1.61c-1.781 3.91-3.919 8.27-6.125 11.95l-2.121-.89c.502-1.19 6.367-11.36 7.249-12.67"/><path fill="#172a33" d="M1257.19 1822.97c1.2-3.3.93-3.06 2.94-5.8 19.74 35 58.42 55.5 97.91 57.02l1.64 4.18c-50.87 14.84-75.6 3.72-104.46-40.31-.04-3.79.48-6.24.27-10.38.59-2.21.74-2.52 1.7-4.71m-42.71-64.38c1.28.56 2.57 1.11 3.86 1.64-3.78 2.53-12.85 14.88-15.37 19.09l-.12 1.37c-.15 2.66-2.35 5.15-4.18 6.89l-4.35.19c-28.27 27.2-54.53 38.05-91.01 16.64.95-.84 1.22-1.18 2.31-1.76 34.02 3.18 60.81-12.8 82.32-38.01 7.9-.99 19.23-2.97 26.54-6.05"/><path fill="#ebf0ef" d="m1202.97 1779.32-.12 1.37c-.15 2.66-2.35 5.15-4.18 6.89l-4.35.19c2.98-3.05 5.56-5.54 8.65-8.45"/><path fill="#172a33" d="M840.418 1818.15c22.282 32.87 54.188 55.38 94.984 56.15 2.126 1.43 2.233 1.65 4.043 3.58-47.302 18.02-78.176 1.95-104.387-38.87-.077-2.19 1.496-10.24 1.946-12.87.314-1.39.636-2.79.967-4.18.977-1.79 1.235-2.22 2.447-3.81m411.392-59.86c9.54 1.59 17.78 3.47 26.91 6.52 26.2 26.43 49.35 44.62 88.11 36.17-32.9 27.25-69.55 13.26-96.23-14.56-1.11-1.26-2.21-2.42-3.36-3.65-1.36-1.58-2.7-3.17-4.02-4.78-3.1-4.63-8.5-12.18-11.19-16.41-.05-1.06-.07-2.24-.22-3.29"/><path fill="#172a33" d="M833.047 1799.8c11.074.56 15.172 1 25.936 3.82 23.679 23.83 44.233 35.43 78.848 35.54a552 552 0 0 0 12.204-.16c-42.227 23.63-79.727 10.76-109.426-25.01-1.518-4.55-4.931-7.87-7.82-11.56zm-66.039 4.85c9.944-1.33 18.651-4.07 28.818-4.88l.477 2.31c-3.371 3.51-5.334 6.15-8.01 10.25-.473 2.21-1.231 4.32-1.722 6.53l-1.623 1.21-1.665-2.42c-33.157 35.01-67.724 42.37-111.748 20.52 39.727 3.43 67.689-3.66 95.473-33.52"/><path fill="#f0eee0" d="M788.293 1812.33c-.473 2.21-1.231 4.32-1.722 6.53l-1.623 1.21-1.665-2.42c1.65-1.79 3.32-3.57 5.01-5.32"/><path fill="#172a33" d="M439.026 1800.79c6.55.09 9.454.55 15.805 2.47l1.04.3c31.005 29.32 50.205 35.96 92.656 35.49-40.666 21.89-74.668 10.33-106.312-19.65l-1.057 2.93a392 392 0 0 1-3.902-5.48c.239-1.32.296-1.4.166-2.74-1.4-2.9-5.576-9.62-7.388-12.14 2.202-1.04 6.367-.89 8.992-1.18"/><path fill="#ebddd7" d="M437.422 1814.11c1.699 1.74 3.463 3.29 4.793 5.29l-1.057 2.93a392 392 0 0 1-3.902-5.48c.239-1.32.296-1.4.166-2.74"/><path fill="#172a33" d="M1186.27 1804.96c10-2.29 20.61-4.69 30.83-4.98l.13 1.85-1.37 1.19c-3.96 3.32-7.68 8.06-10.29 12.52-31.53 33.58-61.35 44.56-105.48 26.19 4.12-2.09 5.9-1.59 10.35-2.71 33.51-2.47 53.06-8.81 75.83-34.06m473.6-4.38c10.23.75 16.36 2.04 26.19 4.06 22.74 23.14 43.49 34.01 76.89 34.48 4.65.04 9.31.01 13.96-.08-40.93 20.6-73.78 13.33-104.75-19.14l-3.03 1.25-1.98-2.64c-.25-1.93-.41-2.99-.46-4.94-1.63-4.56-4-7.26-7.01-10.83z"/><path fill="#ebddd7" d="M1666.69 1813.57c1.87 2.32 3.46 4.13 5.47 6.33l-3.03 1.25-1.98-2.64c-.25-1.93-.41-2.99-.46-4.94"/><path fill="#172a33" d="M1593.97 1804.69c10.34-.02 16.35-3.11 26.23-4.26-.11 1.12-.18 2.19-.25 3.32-2.2 3.3-4.72 6.47-6.97 9.8l1.32 2.17c-1.21 1.5-2.09 2.66-3.21 4.27l-2.18-1.87c-28.86 30.5-62.8 42.68-102.72 23.41 5.03-2.08 6.2.45 10.59-1.78l1.34-.65c33.34-2.18 52.17-10.9 75.85-34.41"/><path fill="#f0eee0" d="m1612.98 1813.55 1.32 2.17c-1.21 1.5-2.09 2.66-3.21 4.27l-2.18-1.87c1.35-1.56 2.7-3.03 4.07-4.57"/><path fill="#9c5d2b" d="M407.528 1457.15c1.079 2.63 1.042 2.43 3.144 4.52 1.281 13.45.266 45.07.055 59.68-.208 14.42.845 40.23-.123 53.24l-.755.56c-5.501-.3-12.662-.11-18.299-.13a5229 5229 0 0 0 15.978-117.87m399.839 24.63c3.137-.43 4.089-14.95 4.168-18.3.46 4.33-.957 14.73 2.2 15.37.217 10.84 1.233 91.31-.725 96.88l-18.527-1.09c1.754-23.06 8.699-69.85 12.884-92.86m827.303-6.51c3.67-6.91 2.24-12.61 3.91-15.56l.12.01c.96 1.14.09 8.97-.51 10.86-.75 2.36.87 8.8 1.59 11.06.2 9.71 1.72 89.11.32 92.93l-1.07.63-18.11-.37c5.35-27.91 7.22-57.01 11.47-85.15.72-4.74 1.03-9.8 2.28-14.41m-404.62-14.06c1.44.33 1.8.4 3.08.82l-.01 73.6c.05 9.22.81 31.27-.12 39.35l-18.62-.11c5.66-37.35 10.44-76.09 15.67-113.66m-812.957 184.65c18.234 4.85 20.624 9.7 23.808 27.56-1.474-.68-6.085-2.37-6.504-3.67-.521-1.62 3.528-4.98-2.062-3.68-1.382-.07-2.762-.15-4.141-.26-2.561-.22-2.732-.43-5.207-.06-.206-.07-5.272-1.63-5.381-2.02-1.276-4.62-.647-13.29-.513-17.87"/><path fill="#a26c3e" d="m415.226 1919.89.564-.39.902.48c1.023 8.81-.415 33.74-.492 44.57 1.874-9.81.982-47.74 5.72-53.1-1.732 32.32-4.92 64.73-6.606 97.08-.199 3.81-.455 9.34-1.226 12.97-.497-6.55-.618-13.28-1.132-20.1-.06-26.25 1.925-54.59 2.27-81.51m1231.804-28.15c.61 2.34 1.25 11.8 1.21 11.76.43.04.36.08.69-.13.48-1.81.92-9.71 1.27-10.21l.22-.01c.62.57.75 1.78.95 2.53-.27 3.44-.29 8.71-.84 11.79-3.79 21.1-1.43 57.34-5.5 79.14-1.56-5.29-1.03-5.48-1.95-10.78 1.91-28.54 2.2-55.94 3.95-84.09"/><path fill="#6d4425" d="M811.048 1986.67c1.379 6.08 1.448 15.31 2.42 22.64.911-5.93 1.384-11.64 2.388-17.51.395 6.94.444 10.14 1.318 17.24-.361 13.01-1.114 26-2.259 38.96h-2.734c-.621-14.1-1.539-29.42-2.435-43.55 1.903-10.15.651-7.44 1.302-17.78"/><path fill="#8c5a34" d="M1239.01 1915.41c.93 3.76.78 7.77 1.62 10.72.06 0 .12.02.15-.05.59-1.38.01-4.19-.17-5.65-.06-.52-.02-1.42.38-1.83.36-.36 1.46-.33 1.68-.36.14 4.64-1.1 14.81-1.5 19.76-1.56 19.26-.99 47.03-4 65.32-.94-5.2-.97-7.45-1.46-12.72 1.14-24.9 1.04-50.5 3.3-75.19"/><path fill="#6d4425" d="M1231.99 1992.08c.22.79 1.38 6.85 1.55 6.92.74-.88 1.56-6.46 2.17-8.4.49 5.27.52 7.52 1.46 12.72-.13 11-1.21 25.71-2.17 36.83l-2.95 1.96c-.75-10.21-2.27-28.88-2.16-38.77.49-4.56-.34-7.52 2.1-11.26"/><path fill="#8c5a34" d="M815.856 1991.8c.005-13.16.938-57.84 3.025-69.22.215 1.93.494 16.42.332 16.09l.207.05-.044-.04 1.016-.72c.386-1.64.532-1.82 1.582-3.36-.196 14.11-2.003 30.21-2.77 44.4-.485 8.97-.609 21.38-2.03 30.04-.874-7.1-.923-10.3-1.318-17.24"/><path fill="#6d4425" d="M409.169 1983.74c.412 3.1 1.008 21.91 1.688 22.84l.512-.09c-.249.36 1.477-4.8 1.587-5.09.514 6.82.635 13.55 1.132 20.1.168 8.76-.962 17.59-1.203 26.5h-2.669c-1.003-10.37-2.428-27.24-2.253-37.47 2.696-7.79.57-16.96 1.206-26.79"/><path fill="#8c5a34" d="m407.461 1942.95-.31 1.35c.965 5.79 1.932 32.7 2.018 39.44-.636 9.83 1.49 19-1.206 26.79-1.111-6.23-3.229-38.39-3.077-45.24-1.116-6.51-.89-12.6-1.372-19.25z"/><path fill="#a26c3e" d="M807.367 1481.78c-.279-5.94 4.629-34.75 6.343-41.37.714 4.81 1.889 10.83 1.958 15.65-2.614 4.77-1.676 16.53-1.933 22.79-3.157-.64-1.74-11.04-2.2-15.37-.079 3.35-1.031 17.87-4.168 18.3"/><path fill="#6d4425" d="M1639.01 2002.52c1.21 4.84 1.76 11 1.36 15.98l.72.5c-.17.34-.34.69-.51 1.04l.01.08c.53-.17 2.04-5.55 2.41-6.51.11 11.31-.81 22.98-1.28 34.39h-2.74c-.33-8.08-1.3-16.49-1.11-24.49.75-7.52.87-13.58 1.14-20.99"/><path fill="#473320" d="M1643.08 1975.83c.92 5.3.39 5.49 1.95 10.78-.07 4.34-1.34 23.36-2.03 27-.37.96-1.88 6.34-2.41 6.51l-.01-.08c.17-.35.34-.7.51-1.04l-.72-.5c.4-4.98-.15-11.14-1.36-15.98q-.15-2.775-.12-5.55c5.71-8.39 1.31-11.23 4.19-21.14"/><path fill="#8c5a34" d="M1634.67 1475.27c.24-3.84 3.04-32.99 5.06-33.85.98 1.68 2.05 12.28 1.94 14.28-1.96 7.42-1.56 18.03-1.89 25.94-.72-2.26-2.34-8.7-1.59-11.06.6-1.89 1.47-9.72.51-10.86l-.12-.01c-1.67 2.95-.24 8.65-3.91 15.56"/><path fill="#a26c3e" d="M1233.01 1437.82c.99 6.91 2.15 14.49 2.64 21.43-2 .29-1.86.71-2.52 2.78-1.28-.42-1.64-.49-3.08-.82.29-6.95 1.94-16.4 2.96-23.39"/><path fill="#8c5a34" d="M409.706 1437.89c1.751 7.13 3.39 14.79 3.323 22.16l-2.357 1.62c-2.102-2.09-2.065-1.89-3.144-4.52z"/><path fill="#4a535f" d="M1102.23 1910.43c-2.09-.62-2.52-.4-3.54-2.13l-.3.22c.07-.22.13-.45.2-.67.33-.1 17.44.58 19.15.57-3.45 2.55-8.86-.66-15.51 2.01"/><path fill="#2a3645" d="M1506.19 1841.53c-1.03-.36-2.98-.75-3.37-1.99.84-1.22 13.29-.51 15.3-.44l-1.34.65c-4.39 2.23-5.56-.3-10.59 1.78"/><path fill="#3a4248" d="M1503.68 1907.71c3.49.26 8.75.5 12.06.97l-1.7 3.71c-3.78-1.54-6.73-2.77-10.36-4.68"/><path fill="#2a3645" d="M1100.09 1841.73c-.58-.23-5.02-1.54-4.42-2.9.83-.53 13.04.12 14.77.19-4.45 1.12-6.23.62-10.35 2.71m-565.717-82.52c5.601-.09 18.092-2.45 8.573 3.98-2.573-4.13-3.596-2.47-8.573-3.98m1227.887 43.6c2.45-.49 4.96-.91 7.37-1.61.29-.08 1.95-.28 1.82.34-.37 1.82-4.7 3.98-6.17 4.87zM680.234 1947.58c-1.122-.53-8.139-3.22-7.485-4.76 1-.73 6.402.47 8.003.68zm-400.156-185.42c-8.969-6.24 1.461-4.03 7.548-3.98l-1.775.55c-3.913 1.2-3.746-.44-5.773 3.43m1217.592 179.97c3.68.59 7.48.83 11.05 1.63l-1.7 3.46c-3.58-1.74-5.96-3.21-9.35-5.09m-821.305-142.64c4.857 1.45 6.611 2.23 11.768 3.34l-2.07 3.36c-3.352-2.07-6.484-4.41-9.698-6.7m259.037 74.81 6.164.03c5.629.06-.078 2.9-2.121 3.55-1.81-1.93-1.917-2.15-4.043-3.58m422.638-.11c2.47.15 11.12.39 3.55 3.27-.64.29-1.28.6-1.91.91zm-1078.058-31.85c-.993-.52-5.49-2.33-5.467-3.61 1.155-1.38 5.989-.19 7.615.03z"/><path fill="#3a4248" d="M1764.24 1875.08c10.23-.81 9.45-.37.41 3.56z"/><path fill="#8c5a34" d="M1235 2040.15c0 2.62-.03 5.23-.08 7.85h-2.16c-.37-2.15-.56-3.71-.71-5.89z"/><path fill="#2a3645" d="M1364.65 1943.7c9.65-2.06 8.39-.13 1.14 3.71z"/><path fill="#7d8084" d="M682.142 1911.37c-13.399-2.6 11.068-2.23 10.183-2.26-3.862.74-6.702.48-10.183 2.26"/><path fill="#2a3645" d="M283.918 1806.33c-1.417-.78-4.701-2.23-5.375-3.66.535-1.38 5.857-.08 6.955.08zm-1.74 105.22c-10.742-3.78 5.515-2.54 7.286-2.5-2.593.9-4.757 1.44-7.286 2.5"/><path fill="#3a4248" d="M945.695 1943.67c8.586-1.56 8.622-.18 1.037 3.62zm824.345-.14c1.16-.18 8.15-1.5 8.8-.05-.2 1.28-2.09 1.71-3.09 2.07-2.43-1.17-3.08-1.32-5.71-2.02m-832.621-34.71c2.438.04 4.883-.02 7.318.07l.659.88.59-.47.143.13c-.522.87-4.294 2.11-5.568 2.68zm576.061-102.37c-.67-.4-5.84-3.07-6.03-4.75.05-.06.11-.13.17-.19 1.14-.48 4.37.71 5.2 1.02zM273.733 1944.68c-.815-.37-1.128-.37-1.634-1.04.382-1.93 9.776-.05 11.369.23-3.285.33-6.468.5-9.735.81"/><path fill="#2a3645" d="M1512.42 1877.89c-1.36-.56-6.38-2.23-6.89-3.38.45-1.06 4.6-.79 5.37-.81z"/><path fill="#3a4248" d="M937.26 1802.92c1.298-.22 6.215-1.58 7.104-.4-.199 1.05-3.168 2.82-3.915 3.37zm-253.115 74.1c-1.755-.67-4.095-1.12-5.465-2.46l.034-.1c1.196-.69 6.019-.63 7.563-.69zm1080.595 31.81c1.16 0 6.35-.45 6.9.66-.51 1.12-2.63 1.72-3.75 2.17l-.64.27z"/><path fill="#4a535f" d="M1103.31 1804.41c-1.34-.73-3.55-1.68-4.35-2.88 1.05-.98 5.5.51 6.66 1.12-1.09.58-1.36.92-2.31 1.76"/><path fill="#3a4248" d="M536.606 1908.82c.984.01 6.493-.43 6.834.71-.775 1.17-3.074 1.78-4.297 2.21z"/><path fill="#172a33" d="m1017.85 436.317-.32-85.385c-.02-7.149-.55-32.306.67-37.429l2.35-.786 2.12 1.137c2.61 5.5 1.74 14.308 1.71 20.799-.33 9.915-.37 19.838-.12 29.757l-.23 71.888c33.23 4.786 39.85 34.02 43.4 62.346 1.93 15.315 3.87 30.758 5.75 46.091q8.64 74.35 18.03 148.61c2.55 20.283 6.06 55.295 10.18 74.267 49.56-9.171 138.77-47.604 98.2-112.638 19.09 6.226 36.33 12.059 53.84 22.069 2.83 33.48-2.28 63.177-28.77 86.362l.36 2.763c29.94-21.04 40.9-42.973 42.99-78.741 10.61 8.079 24.21 18.556 32.76 28.756-8.25 37.081-30.65 65.762-67.29 78.326l2.17 2.019c36.66-9.992 65.75-30.205 79.72-66.861 9.04 11.424 19.21 25.498 26.38 38.336-7.92 19.839-29.06 37.346-48.5 45.614a98 98 0 0 1-21.64 6.501l1.31 3.077c31.1-1.916 60.22-12.809 78.46-38.979a351 351 0 0 1 19.28 53.469c-25.53 20.218-58.07 26.079-89.91 22.324a171.5 171.5 0 0 1-27.38-5.55l-1.01 2.166c43.95 14.309 80.05 20.367 124.37 2.94 3.39 15.377 7.81 33.423 10.22 48.761-36.83 9.564-85.18.868-118.84-15.884l-1.2 1.616c35.74 19.386 80.75 35.07 121.9 28.615 1.91 11.503 4.9 28.803 5.46 40.336-48.46.188-79.43-5.893-121.63-32.455l-.65 2.55c40.22 28.348 74.01 47.074 124.59 50.418.94 14.011 3.02 31.568 3.41 44.918-46.17-4.6-85.82-19.97-121.59-50.222.12 2.896.71 3.141 2.43 5.564 33.13 30.008 75.19 57.928 120.04 65.548q1.905 24.33 2.82 48.72c-55.22-11.46-87.22-28.46-127.18-68.8l-1.14 2.23c37.99 43.55 72.2 72.86 129.56 89.18.22 14.7 1.19 30.73 1.07 45.12-50.97-8.65-99.35-42.28-131.58-81.95l-1.44 2.17c38.8 51.55 71.67 80.92 133.89 100.67.34 17.5 1.51 36.1 2.12 53.73-34.3-5.33-67-18.18-95.76-37.62-47.56-32.41-78.08-74.29-103.71-124.74-17.11-33.7-17.11-30.72-16.37-68.81.37-19.051-10.97-66.591-19.91-85.162-19.05-39.566-55.14-72.816-67.52-117.142-3.88-13.695-6.56-24.099-9.21-38.27-10.16.994-20.79 2.638-31.17 3.711.18 1.611 7.96 13.859 9.42 16.824 3.09 5.061 12.09 22.525 14.06 27.605 4.99 7.112 12.06 17.447 15.85 25.33 5.58 6.074 12.98 18.401 18.88 25.7 8.93 11.048 23.84 23.879 28.35 36.837 6.05 10.589 9.7 19 13.82 30.491 4.26 12.968 9.8 28.548 12.07 41.805 1.9 10.015 3.34 17.788 4.36 28.001-.25 10.57.76 20.13.76 30.35.08 9.94-.21 16.65-1.09 26.55-2.68-2.31-6.14-5.5-8.93-7.52l-1.22 2c25.02 30.8 41.27 66.04 37.28 106.76a96.4 96.4 0 0 1-8.22 29.87c-7 15.68-17.72 28.84-20.49 46.13-5.78 36.24 16.68 58.27 52.09 56.53 3.11 1.2 2.06 1.64.37 4.48l.17.84c-39.62 14.7-79.54-8.94-90.67-46.36-17.49-58.78 37.31-100.4-30.54-147.15 8.71 73.18 18.15 146.26 28.33 219.25l10.24 73.31c1.62 11.65 4.41 28.05 5.17 39.27-6.28-.03-12.91-.18-19.15.08-4.45-28.29-9.02-65.08-14.49-92.57-65.55.35-132.931-.68-198.212.29-4.161 26.88-9.398 66.02-14.915 91.96l-19 .08c3.232-21.74 5.583-43.82 8.618-65.65l22.315-162.78 8.278-63.21c1.384-10.2 4.059-26.23 4.56-36.16-37.168 29.96-36.516 56.32-25.789 100.24 11.048 45.22-25.125 99.92-74.611 94.16-3.492-.38-6.94-1.1-10.298-2.13-4.495-1.2-7.431-2.47-11.7-4.21-4.061-1.6-6.153-4-9.372-6.75 11.032 3.3 12.263 3.59 23.774 3.69 14.075-2.32 27.299-7.34 35.863-19.51a44.15 44.15 0 0 0 7.608-20.86c2.551-24.39-11.399-36.65-21.005-56.38-22.161-45.52-5.579-97.53 21.437-136.46l-2.472-2.39-1.387-.49c-2.78-4.12-.932-18.26-.511-24.05a942 942 0 0 0 2.769-32.74c1.587-10.014 2.788-17.401 5.352-27.296 2.315-11.005 9.237-33.985 13.356-44.322 3.5-10.015 6.422-17.646 11.818-26.803 3.058-6.568 37.142-57.526 41.972-62.371 5.577-9.425 9.888-16.585 16.281-25.548 7.587-12.673 13.971-24.238 21.277-36.981 1.942-3.717 3.81-5.741 6.486-8.949-12.537 0-20.382-1.063-32.749-2.569-7.746 40.48-20.1 72.314-43.208 106.549-12.18 18.358-26.537 38.791-34.48 59.209-9.065 23.304-17.945 58.647-17.819 83.881.161 32.54.62 32.69-14.816 62.41-24.496 47.17-57.177 91.34-101.689 121.36a229.7 229.7 0 0 1-103.769 38.78c.367-17.96 1.252-36.39 1.42-54.21 59.915-13.89 104.179-50.19 138.86-100.12l-2.402-.88c-31.911 40.39-83.845 73.8-135.617 80 .559-15.14 1.38-30.27 2.462-45.38 54.389-12.19 98.083-46.05 133.233-88.03.417-.91.363-1.06 1.129-1.62l1.481-.87-1.538-2.07c-33.246 37.5-83.731 64.39-133.66 70.15l2.977-47.96c49.226-7.36 89.412-36.21 126.173-67.497l-.488-3.177c-37.081 31.074-76.447 45.454-123.921 48.934.847-14.75 2.483-29.795 3.381-44.723 49.071-2.278 83.499-19.522 122.825-46.299l-1.262-2.252c-39.035 23.55-74.821 28.464-119.197 27.954a3831 3831 0 0 1 6.303-39c48.399 1.868 72.254-4.345 116.137-24.808l-1.839-1.884c-35.347 13.424-74.237 18.945-111.651 11.818 1.327-14.534 6.32-36.375 9.465-50.764 38.835 18.23 77.871 14.217 117.761 1.575l-2.586-2.384c-40.899 7.725-73.608 4.057-108.67-19.065 3.88-16.828 12.161-38.723 20.173-54.193a154 154 0 0 0 5.078 6.622c19.611 23.74 48.678 30.083 77.6 32.919 3.454-.522 3.729.304 5.65-2.41-34.39-2.622-63.056-23.424-78.276-53.839 5.549-10.906 18.216-28.099 25.891-38.231 14.218 35.791 41.986 57.239 78.801 67.568l2.673-2.211c-37.529-14.522-55.268-42.005-67.234-78.642 11.114-10.51 20.756-19.272 32.943-28.444 1.159 33.702 14.018 57.171 41.043 76.825l2.803-1.621c-24.925-21.247-34.351-53.461-29.097-85.179 11.689-7.084 39.66-18.084 52.95-22.854-13.654 20.074-14.909 41.23-.77 61.284 21.011 29.799 65.327 45.593 99.517 51.84a12901 12901 0 0 0 23.97-188.963c3.534-28.538 8.625-93.213 18.643-116.278 5.947-13.691 15.564-20.745 28.994-26.094"/><path fill="#9c5d2b" d="M880.633 1049.51c29.401-22.72 73.942-30.83 110.125-31.84l-.82 33.31c-44.434 8.63-79.382 24.08-105.832 62.58-13.708 19.95-20.449 43.98-15.545 68.25 7.222 32.23 29.304 62.68 8.479 95.09-12.742 19.82-32.165 25.69-54.334 26.68-4.495-1.2-7.431-2.47-11.7-4.21-4.061-1.6-6.153-4-9.372-6.75 11.032 3.3 12.263 3.59 23.774 3.69 14.075-2.32 27.299-7.34 35.863-19.51a44.15 44.15 0 0 0 7.608-20.86c2.551-24.39-11.399-36.65-21.005-56.38-22.161-45.52-5.579-97.53 21.437-136.46l-2.472-2.39c3.749-3.63 9.527-8.21 13.794-11.2"/><path fill="#a26c3e" d="M801.634 1292.62c11.032 3.3 12.263 3.59 23.774 3.69-6.007 3.19-7.934 1.68-14.402 3.06-4.061-1.6-6.153-4-9.372-6.75"/><path fill="#f0eee0" d="M880.633 1049.51c-.756 2.86-8.675 10.65-11.322 13.59l-2.472-2.39c3.749-3.63 9.527-8.21 13.794-11.2"/><path fill="#9c5d2b" d="M1056.24 1017.71c33.32 1.01 82.33 10.12 109.07 30.69 2.92 2.12 4.95 3.41 7.58 5.94l-1.22 2c25.02 30.8 41.27 66.04 37.28 106.76a96.4 96.4 0 0 1-8.22 29.87c-7 15.68-17.72 28.84-20.49 46.13-5.78 36.24 16.68 58.27 52.09 56.53 3.11 1.2 2.06 1.64.37 4.48-7.99 1.81-14.68 2.54-22.92 1.51a52.75 52.75 0 0 1-35.14-20.18c-27.54-36.13 4.23-69.46 7.61-105.56 6.41-68.59-62.85-118.16-124.35-125.31-1.01-10.15-1.22-22.52-1.66-32.86"/><path fill="#ebddd7" d="M1165.31 1048.4c2.92 2.12 4.95 3.41 7.58 5.94l-1.22 2c-2.84-2.78-5.43-4.42-6.36-7.94"/><path fill="#9c5d2b" d="m992.801 950.226-.007 11.44.07 2.02c.195 1.722.588 2.569-.248 4.087-.201 3.692.124 7.05-1.61 10.016-5.323 1.903-12.987 2.175-15.968 4.448-1.368 2.923-1.327 1.504-.384 4.38 2.947.764 13.514-3.372 17.343-4.497l-.801 19.81c-38.728-4.208-70.641 1.46-105.358 20.15-9.16 4.93-13.725 9.59-20.897 14.09a942 942 0 0 0 2.769-32.74c8.428-3.907 20.116-13.785 29.352-19.098 31.1-17.893 60.982-26.409 95.739-34.106"/><path fill="#252824" d="m992.794 961.666.07 2.02c.195 1.722.588 2.569-.248 4.087-2.915-3.532-15.106 4.161-18.173 3.191-3.516-1.112-.364-5.244 3.057-5.888 5.081-.957 10.092-2.571 15.294-3.41"/><path fill="#9c5d2b" d="M1055.03 949.034c56.73 14.951 76.96 20.372 127.12 55.926-.25 10.57.76 20.13.76 30.35-41.47-32.24-77.3-34.9-127.02-34.37l-.36-18.154c4.94 1.198 14.42 4.46 18.67 1.647-4.26-4.369-12.75-5.152-18.73-6.119l-.23-13.258c5.01 1.705 14.61 5.99 19.28 3.381-3.35-4.997-13.89-5.913-19.46-6.867zm-1.86-64.881c24.58 6.8 44.56 12.585 68.11 24.816 13.67 7.099 29.11 18.183 42.29 26.6l2.15-.415c4.26 12.968 9.8 28.548 12.07 41.805-34.97-30.022-79.13-39.597-123.65-43.373l-.31-16.102c6.17.879 13.79 3.848 19.55 1.187-3.77-4.37-13.83-5.319-19.57-6.272-.43-5.17-.67-5.943.41-10.887.69-1.866.66-1.728.51-3.681-2.31-3.518-1.64-9.226-1.56-13.678"/><path fill="#252824" d="M1054.73 897.831c5.45-.097 9.41 1.258 14.77 2.305 3.76.733 6.03 2.365 4.04 6.339-.4.705-9.92-3.456-11.09-3.23-2.72-.5-4.32-1.116-6.82-1.504l-1.41-.229c.69-1.866.66-1.728.51-3.681"/><path fill="#9c5d2b" d="m994.941 884.022-.238 11.912c-.283 1.357-.426 3.038-.584 4.451.097 4.253.208 8.156.044 12.422-5.672 1.051-13.17 1.675-17.681 4.504-1.511 3.336-1.246 1.569-.261 5.539 8.318-2.126 8.325-3.395 17.83-4.692l-.055 14.514c-45.449 5.144-83.717 14.656-120.934 43.462 2.315-11.005 9.237-33.985 13.356-44.322 1.772.68 14.338-7.744 17.265-9.562 31.064-19.29 56.337-28.531 91.258-38.228"/><path fill="#252824" d="M994.703 895.934c-.283 1.357-.426 3.038-.584 4.451-2.95.868-23.089 9.778-18.884 1.62 1.27-2.465 16.12-5.306 19.468-6.071"/><path fill="#9c5d2b" d="M940.208 842.638c18.591-6.324 33.04-16.193 56.484-22.903.34 1.988.522 18.367-.228 20.059-1.103 12.994-.487 6.937-15.001 10.945-4.219 1.165-5.006.467-4.412 5.827.338 3.939 9.228-3.215 11.941-1.89-.232-.113 6.76-.989 7.002-1.019a523 523 0 0 0-.046 12.954c-29.202 5.244-54.098 10.032-79.294 27.011-5.48 3.692-12.496 8.854-18.418 11.387 3.058-6.568 37.142-57.526 41.972-62.371"/><path fill="#252824" d="M996.692 819.735c.34 1.988.522 18.367-.228 20.059-.167-.45-.461-1.868-.983-2.062-2.457-.82-5.36 1.032-7.964 1.456-3.141.511-6.793 2.307-10.026 1.899-1.145-.144-1.83-1.993-1.178-2.88 1.62-2.201 5.36-2.138 7.711-2.896 1.41-.356 3.461-.795 4.979-1.156 2.393-.568 4.77-1.118 7.171-1.726.084-4.774.065-7.861.518-12.694"/><path fill="#9c5d2b" d="M1051.75 830.472c.58-3.676.26-8.714.25-12.583 9.65 3.979 18.46 7.218 28.14 11.581 6.51 2.938 20.02 11.757 24.53 12.656 5.58 6.074 12.98 18.401 18.88 25.7 8.93 11.048 23.84 23.879 28.35 36.837-14.45-8.633-24.75-17.447-41.23-24.11-20.13-8.135-36.65-10.631-57.63-13.695l-.04-14.052c4.95 1.049 23.82 8.421 18.67 1.354-2.92-4.01-14.62-6.197-18.81-7.22-.2-3.575-.68-7.184.1-10.588-.36-1.973-.87-3.9-1.21-5.88"/><path fill="#192424" d="M1051.75 830.472c2.82.747 20.07 5.133 21.07 7.121 4.07 8.057-17.4-.413-19.86-1.241-.36-1.973-.87-3.9-1.21-5.88"/><path fill="#9c5d2b" d="M977.766 780.109c4.779.901-.279 1.833 2.038 5.474 10.257 5.458 17.544-8.331 18.31 1.507q.091 1.072.213 2.142a92 92 0 0 0-.564 5.185c.283 12.284.767 7.547-12.996 11.142-10.896 2.846-18.328 6.657-28.278 11.531 7.587-12.673 13.971-24.238 21.277-36.981"/><path fill="#252824" d="M997.763 794.417c-22.426 6.415-19.131-1.515.564-5.185a92 92 0 0 0-.564 5.185"/><path fill="#9c5d2b" d="M1067.1 784.597c2.07 1.638 5.27 3.351 7.66 4.594 3.09 5.061 12.09 22.525 14.06 27.605-10.68-5.179-21.3-11.149-33.39-12.657-5.4-.675-5.54-4.925-3.37-9.519.15-1.363.28-1.707.06-3.037-6.67-8.627 5.57-4.992 9.25-3.135 6.54 3.308 6.3 1.964 5.73-3.851"/><path fill="#192424" d="M1052.12 791.583c7.66.867 10.83 3.13 17.6 6.548-6.12-1.007-11.63-2-17.66-3.511.15-1.363.28-1.707.06-3.037"/><path fill="#fff" d="M990.116 756.951c-3.949.26-8.752.959-12.64 1.877-6.002 1.468-11.883 1.374-11.73-6.357.317-7.689 5.675-10.642 12.741-10.446 9.871.273 9.961.826 16.507 7.716-.676 3.652-1.144 6.231-4.878 7.21m62.314-9.849c8.92-5.076 7.7-7.15 18.56-4.982 7.06 1.41 12.32 5.369 8.78 13.292a6.16 6.16 0 0 1-3.45 3.285c-1.27.487-15.75-1.869-20.26-2.074-1.76-3.778-2.61-5.534-3.63-9.521"/><path fill="#9c5d2b" d="m1048.78 745.403 2.16.451 1.49 1.248c1.02 3.987 1.87 5.743 3.63 9.521 1.44 7.312.82 15.769 9.28 15.744.18 1.611 7.96 13.859 9.42 16.824-2.39-1.243-5.59-2.956-7.66-4.594l-.46-.429c-4.98-4.785-9.66-4.493-16.52-5.716-.15-10.745-.44-22.335-1.34-33.049m-53.786 4.338c.621-.768 2.706-4.08 3.481-4.292 1.007 1.522.265 26.662.105 30.238l-1.911.736c-9.793 3.699-12.302.945-16.865 9.16-2.317-3.641 2.741-4.573-2.038-5.474 1.942-3.717 3.81-5.741 6.486-8.949 5.174-3.836 5.279-7.854 5.864-14.209 3.734-.979 4.202-3.558 4.878-7.21"/><path fill="#929ba0" d="M1272.92 823.195c-5.9.508-33.45.75-37.51-3.292l.02-.158c7.09 2.616 28.69 1.749 36.18.373zm-487.921-2.039c2.506-.059 26.951.26 27.488.721l-.015.304c-4.375 1.576-28.511 2.33-33.123 1.385 3.454-.522 3.729.304 5.65-2.41m495.831 162.626c-7.39-6.075-13.85-14.104-21.28-20.158-1.29-1.053-1.05-1.364-1.1-3.073 1.08.255 19.04 16.386 19.95 17.667.12 2.896.71 3.141 2.43 5.564M785.168 857.283c1.466-.527.893-.326 2.324-.641a124 124 0 0 0 18.502-5.447c1.696-.577 3.379-1.117 4.987-1.912l.85.368.288-.84c.676-.162.368-.132.916-.138l.118.076-.273.583-.313-.226.516.085-1.027.81-.562-.392-.066.847c-6.035 3.229-17.126 7.63-23.674 9.211zm-15.416 121.833c2.933-4.264 12.114-8.446 14.801-14.124.648-1.37 2.934-2.992 4.674-2.814.196 2.102-16.597 17.989-18.987 20.115zm502.238-46.012c-4.69-3.313-17.02-12.244-19.54-17.258l.05-.119c5.1 3.288 15.95 11.041 20.14 14.827zm.99 152.896c-1.53-1.88-14.96-22.59-14.45-23.62 2.06 1.72 2.81 1.03 4.02 3.92 2.75 6.6 8.45 11.57 11.87 17.53zm-16.15-79.87c5.72 6.65 14.73 16.41 19.68 23.12l-1.14 2.23c-7.37-8.5-12.74-15.79-18.54-25.35"/><path fill="#bec4c7" d="M791.723 920.723c-7.115 7.173-11.519 10.423-19.686 16.305l-1.262-2.252c6.24-4.553 14.439-9.813 20.948-14.053"/><path fill="#929ba0" d="M773.6 1085.57c3.087-4.66 8.771-12.02 12.399-16.5l.971-.05-.321-.67c.339-.28.13-.15.651-.37 1.105.79-6.042 11.03-6.927 12.36-1.306 1.97-2.692 4.52-4.371 6.11zm1.15-57.97c5.231-6.04 10.805-12.42 16.397-18.08-4.574 7.19-9.26 13.67-14.859 20.15z"/><path fill="#bec4c7" d="M823.643 762.561c5.67 4.331 11.431 7.84 16.92 12.176-7.546-3.316-12.95-5.554-19.723-10.555z"/><path fill="#7d8084" d="M1252.36 856.625c-1.82-.787-17.03-6.365-15.81-8.088.85-.098 15.61 5.368 16.82 5.922z"/><path fill="#929ba0" d="M814.088 794.443c1.246.221 13.738 3.209 14.374 3.909-.958 1.097-15.074-1.347-17.047-1.698z"/><path fill="#bec4c7" d="M791.152 888.327c-6.523 4.704-10.07 6.781-17.134 10.595l-1.839-1.884a1359 1359 0 0 1 18.973-8.711"/><path fill="#929ba0" d="M1235.65 796.528c-2.3.475-11.47 2.688-13.74 1.955-.09-.029-.07-.131-.08-.225.38-.496.43-.64 1.09-.83l4.11-1.23c2.43-.724 4-1.283 6.45-1.689zm31.26 97.53c-3.86-1.732-10.35-5.97-13.76-8.695l-1.12-.858c4.01 1.771 12.73 5.426 16.08 7.937z"/><path fill="#4a535f" d="m1218.2 768.335 1.21.798c-9.2 6.577-14.76 4.998-1.21-.798"/><path fill="#bec4c7" d="m1224.66 763.405.36 2.763c-1.83 1.111-3.73 1.967-5.61 2.965l-1.21-.798c2.66-1.719 4.01-2.971 6.46-4.93"/><path fill="#3a4248" d="M1048.78 745.403c-.57-2.466-.95-3.47-.26-5.75 1.7-.85 2.2 5.287 2.42 6.201z"/><path fill="#fff" d="M1055.69 1086.45c8.06 1.09 16.03 2.76 23.85 4.99 10.94 63 19.99 127.74 32.01 190.19l-41.96-.37-135.327-.04c2.369-20.81 6.995-44.84 10.377-65.74l19.715-122.28a225 225 0 0 1 25.616-5.81c6.706 4.16 10.969 8.4 18.729 9.66 19.04 3.09 31.28-.6 46.99-10.6m-124 208.58 181.09-.14c1.47 5.91 6.34 30.83 4.89 35.35l-2.42.48c-62.74.98-125.766-.5-188.613.08.748-9.77 3.553-25.69 5.053-35.77m49.606-626.755c6.316-.665 11.55.446 17.796 1.053q.05 7.574-.128 15.146c-5.115-.546-9.551-.775-14.662-.896-6.552 1.561-10.429 2.586-16.684 5.103.337-6.821.528-11.077 1.331-17.842 4.281-.991 7.992-1.824 12.347-2.564m-1.706 37.041c4.897-.678 12.572.326 16.437 3.592 2.257 1.908 1.585 9.273 1.558 12.004-4.199.064-8.384-.018-12.559.383-7.765 1.268-9.844 1.763-17.338 4.368-.623-6.81-.708-10.909-.725-17.691 5.118-1.394 7.315-1.851 12.627-2.656m17.806-75.931c6.054-1.083 3.534 10.886 3.524 15.668-12.56.016-15.487-.29-27.07 5.996-5.765 4.002-2.037-14.601-1.677-17.313 8.407-1.513 16.77-3.249 25.223-4.351m59.344 38.975c10.66-.695 11.12.353 21.24 3.254.09 5.549 3.13 18.084-4.18 14.457-10.47-2.879-14.18-2.685-24.88-2.013-.04-13.664-3.68-14.431 7.82-15.698m-56.66-78.245c5.57-1.19 2.44 11.773 2.09 15.684-10.938 2.163-15.565 3.11-25.957 7.773-4.413 2.707-1.027-12.532-.798-14.978 7.267-3.366 16.865-6.383 24.665-8.479m60.79 115.09c8.12-.431 10.36.901 18.08 4.17.01 1.969.45 14.617-.53 15.452-1.13.015-4.47-1.913-5.75-2.479-7.52-1.384-15.23-1.829-22.97-2.754.36-11.966-1.01-11.062 11.17-14.389m-15.92-116.849c8.89 2.674 18.04 6.076 26.76 9.323l1 16.74a98.3 98.3 0 0 0-23.21-8.39c-1.35-.306-2.71-.581-4.08-.895-.47-6.005-.46-10.785-.47-16.778m2.19 40.289c10.36 1.523 17.43 2.81 27.39 6.157a268 268 0 0 1 1.6 17.204c-13.55-7.215-14.2-7.032-28.41-6.798-.4-6.05-.61-10.44-.58-16.563m-4.16-79.313c8.27 4.058 18 8.172 25.64 12.49.43 5.251.69 10.383 1.16 15.676-12.16-5.232-11.78-6.647-26.38-10.266-.39-6.304-.43-11.579-.42-17.9m-39.97.661c2.36 2.117 1.15 12.942 1.1 16.385-11.274 2.814-13.457 3.778-23.734 8.958-2.581-2.606-1.188-11.078-.858-14.602 7.715-4.116 15.618-6.908 23.492-10.741m3.08-35.895c2.16 2.2-.06 11.872-.41 15.146-9.047 4.445-13.119 6.313-21.899 11.649-1.797-1.835-.665-12.596-.527-15.728 8.98-5.886 13.388-6.982 22.836-11.067m35.95.264c7.6 3.431 14.5 7.407 22.24 10.397.69 5.453 1.07 10.404 1.54 15.869-9.44-4.239-12.37-7.018-23.58-10.683a900 900 0 0 0-.2-15.583m-36.75-31.651c5.13.172 2.79 7.667 2.64 12.196-6.68 3.697-12.985 6.964-19.441 11.198-4.97 2.485-1.609-9.765-1.292-12.921 6.234-3.999 11.729-6.884 18.093-10.473m35.77 1.03c6.87 2.906 13.7 5.906 20.63 8.664l.34 15.692c-4.13-2.327-8.74-6.702-12.55-8.588-10.6-5.235-8.59-2.868-8.42-15.768"/><path fill="#2a3645" d="M793.483 918.294c1.869 1.184 1.438.8-.562 2.08-.413-.241-1.05-.42-1.113-.961.323-.61 1.016-.793 1.675-1.119"/><path fill="#172a33" d="M56.33 1897.02c21.967-144.11 44.43-287.94 77.97-430.01a4188 4188 0 0 1 112.816-393.7C349.6 775.96 540.702 354.697 799.025 164.77c77.061-56.657 170.596-97.998 268.055-83.109 158.73 24.252 305.61 184.272 395.94 307.908a1914 1914 0 0 1 125.12 199.021c164.67 295.735 279.08 646.96 347.11 978.05a5411 5411 0 0 1 38.35 211.04l12.97 86.98c1.8 12.2 3.45 27.97 5.7 39.56l-1.97-.28c-55.52-389.22-174.12-797.22-351.33-1148.751-51.11-101.403-114.39-213.823-182.63-305.718-92.8-123.762-228.23-278.251-388.75-303.896-198.655-31.737-373.634 165.922-477.837 308.653-75.585 103.535-142.28 221.651-197.979 337.044C223.21 1140.49 117.071 1518.71 57.595 1901.18c-.541-1.53-1.008-2.58-1.265-4.16"/><path fill="#d21924" d="M1024.38 334.653c8.17-1.48 15.93-3.485 23.98-5.398 17.65-4.193 25.48-3.901 28.02 14.972 27.62 6.004 39.48 17.87 64.54 16.814-13.14 6.617-21.37 10.74-36.46 9.45 14.6 12.099 17.28 12.193 36.58 12.99-3.58 1.884-9.04 4.916-12.93 5.497-20.39 3.041-45.35-5.857-59.8-20.297-.17-5.654 3.24-6.852 7.74-10.425-.43-2.278-.39-4.9-3.04-5.861-14.7-5.338-35.69 8.403-48.75 12.015-.25-9.919-.21-19.842.12-29.757"/><path fill="#0a0302" d="M1076.05 358.256c-.38 6.795-1.86 8.309-7.74 10.425-.17-5.654 3.24-6.852 7.74-10.425"/><path fill="#7d8084" d="m1990.3 1903.94 1.97.28c1.88 8.14 9.89 68.74 8.25 72.89-4.16-11.82-3.27-37.78-6.96-51.1-.99-3.57-2.16-12.58-2.66-16.51-.25-1.85-.45-3.7-.6-5.56m-1932.705-2.76c-.813 19.89-6.756 42.08-8.151 62.19-.288 4.15-1.91 11.07-1.94 14.86-.288-19.96 4.349-42.24 6.327-62.24.453-4.58 1.38-14.74 2.5-18.97.256 1.58.723 2.63 1.264 4.16"/><path fill="#9c5d2b" d="M1232.33 1295.63c2.04-.81 9.3-2.2 12-2.99-4.48 3.95-5.89 5.9-11.46 8.31l-.17-.84c1.69-2.84 2.74-3.28-.37-4.48"/><metadata><recraft-signature>{&quot;signed_by&quot;: &quot;recraft&quot;, &quot;signature_b64&quot;: &quot;n+5Nhg+rAlYRc/9eGGNnU5WJJYliIUNgqsjJPE4113P0+2ZnzWZHN63b/u5qjbk4OqDoQoHs6ugV0u5lRTCoBg==&quot;, &quot;signing_algo&quot;: &quot;Ed25519&quot;, &quot;generation_timestamp&quot;: 1777253585, &quot;identifier&quot;: &quot;db4f690d-4acb-4a10-8e59-a98556ee3082&quot;}</recraft-signature></metadata></svg>