<svg xmlns="http://www.w3.org/2000/svg" width="1024" height="1024" preserveAspectRatio="none" style="display:block" viewBox="0 0 2048 2048"><path fill="#fbfbfa" d="M963.215 1368.67c14.407-40.46 27.891-84.68 41.245-125.72l47.25-142.71c7.57-23.7 15.49-47.28 23.75-70.75 4.15-11.98 12.05-33.197 14.68-45.096 7.69 17.086 15.52 32.706 16.11 51.836.92 29.23-15.74 52.58-28.7 77.35-8.15 15.57-12.21 33.36-10.86 50.96.58 7.4 3.33 32.49 11.33 34.6-1.05 3.75 1.94 8.84 3.65 12.45 2.42 3.52 6.34 9.63 8.93 12.72 2.33 4.28 6.18 11.91 8.68 15.76l6.36 13.01c1.09 5.98 2.22 11.96 3.4 17.93l.09 5.49c-.83 13.09.53 15.37-2.74 28.45-2.04 6.55-3.08 9.05-6.05 15.2-3.22 5.97-6.38 11.96-9.49 17.99-3.51 5.87-7.07 11.72-10.67 17.54-3.16 4.2-6.56 12.26-8.48 17.29l348.13.01c-.19 86.19.69 174.48-.35 260.37l255.35.34c55.43-.11 112.78-1.13 168.08-.43l.11 414.74H206.712L206 1633.16l422.097.6V1373.1l199.196-.01 54.573-.2c8.959-.03 26.651-.46 34.927 1.17l.15 2.44c17.696 6.67 22.461 7.96 38.526 17.03.839-2.59 1.476-5.01 2.272-7.51z"/><path fill="#5f717a" d="M963.215 1368.67c14.407-40.46 27.891-84.68 41.245-125.72l47.25-142.71c7.57-23.7 15.49-47.28 23.75-70.75 4.15-11.98 12.05-33.197 14.68-45.096 7.69 17.086 15.52 32.706 16.11 51.836.92 29.23-15.74 52.58-28.7 77.35-8.15 15.57-12.21 33.36-10.86 50.96.58 7.4 3.33 32.49 11.33 34.6-1.05 3.75 1.94 8.84 3.65 12.45 2.42 3.52 6.34 9.63 8.93 12.72 2.33 4.28 6.18 11.91 8.68 15.76l6.36 13.01c1.09 5.98 2.22 11.96 3.4 17.93l.09 5.49c-.83 13.09.53 15.37-2.74 28.45-2.04 6.55-3.08 9.05-6.05 15.2-3.22 5.97-6.38 11.96-9.49 17.99-3.51 5.87-7.07 11.72-10.67 17.54-3.16 4.2-6.56 12.26-8.48 17.29-10.24 36.88-3.35 58.6 16.87 89.99 23.35 32.65 25.57 80.34 0 111.91-51.95 64.15 1.96 94.1 17.54 156.48 10.8 43.23-37.98 81.52-36.74 121.99 1.45 47.01 47.47 64.69 35.62 120.56a82.72 82.72 0 0 1-35.79 51.49 77.47 77.47 0 0 1-58.37 10.39c-20.546-4.54-40.111-18.12-51.33-35.56-16.907-26.27-16.576-60.52-1.321-87.3 12.954-22.74 26.646-36.82 22.926-65.67-5.505-42.7-41.924-64.41-37.894-110.77 3.671-42.24 40.943-68.42 39.431-108.98-1.586-42.55-42.92-64.69-40.21-112.06 1.071-32.82 26.523-56.76 33.093-88.26 4.47-21.43-.198-40.35-12.31-58.51"/><path fill="#141313" d="M772.403 1815.71c.977-3.45 1.953-6.87 3.118-10.27 7.006 9.57 19.579 43.86 27.818 49.58-.984 3.44-2.612 8.12-3.942 11.47-4.47 14.49-9.479 29.14-14.072 43.68-13.182-4.52-25.969-9.71-39.234-14 7.009-22.95 18.285-57.71 26.312-80.46"/><path fill="#5f717a" d="M772.403 1815.71c.977-3.45 1.953-6.87 3.118-10.27 7.006 9.57 19.579 43.86 27.818 49.58-.984 3.44-2.612 8.12-3.942 11.47-3.552-8.05-22.112-44.15-26.994-50.78"/><path fill="#141313" d="M916.943 1376.5c17.696 6.67 22.461 7.96 38.526 17.03-9.455 25.16-19.049 55.57-27.013 81.58-6.328-6.25-22.238-40.55-28.398-50.31 5.189-14.54 12.515-33.95 16.885-48.3"/><path fill="#141313" d="M900.058 1424.8c6.16 9.76 22.07 44.06 28.398 50.31-1.226 4.14-2.843 7.94-3.981 12.06-4.627 12.37-7.934 26.54-12.953 38.82l-.458 1.3c-.076.23-.152.46-.228.7-.928 2.54-1.889 5.07-2.882 7.58-5.264-9.71-22.571-44.11-27.729-50.9.93-3.31 2.194-6.35 3.242-9.58 4.469-12.08 8.769-27.41 13.177-40.06.803-3.6 2.186-6.76 3.414-10.23"/><path fill="#5f717a" d="M900.058 1424.8c6.16 9.76 22.07 44.06 28.398 50.31-1.226 4.14-2.843 7.94-3.981 12.06-5.718-9.04-20.942-45.16-27.831-52.14.803-3.6 2.186-6.76 3.414-10.23m-19.833 59.87c.93-3.31 2.194-6.35 3.242-9.58 9.007 14.65 18.664 36.27 27.383 49.83l.672 1.07-.458 1.3c-.076.23-.152.46-.228.7-.928 2.54-1.889 5.07-2.882 7.58-5.264-9.71-22.571-44.11-27.729-50.9"/><path fill="#141313" d="M880.225 1484.67c5.158 6.79 22.465 41.19 27.729 50.9-.51 4.09-10.64 35.84-12.352 40.5-.966 2.9-2.026 5.76-2.859 8.7-1.763-3.2-4.786-6.45-7.147-10.39-5.741-9.6-14.041-32.78-22.156-38.58 1.028-4.79 2.561-8.18 4.589-12.6 2.944-6.69 9.365-29.83 12.196-38.53"/><path fill="#5f717a" d="M868.029 1523.2c8.44 17.46 17.233 36.6 27.573 52.87-.966 2.9-2.026 5.76-2.859 8.7-1.763-3.2-4.786-6.45-7.147-10.39-5.741-9.6-14.041-32.78-22.156-38.58 1.028-4.79 2.561-8.18 4.589-12.6"/><path fill="#141313" d="M804.368 1716.57c9.053 5.36 20.759 37.41 28.651 48.8-.951 3.29-2.218 6.27-3.219 9.46-3.947 10.17-6.482 20.9-10.228 31.14-.7 2.3-2.28 6.86-2.536 9.01-5.565-8.83-23.738-45.28-27.844-49.32 1.131-3.41 1.935-6.69 2.806-10.18 3.723-9.62 7.046-21.82 10.318-31.8.657-2.38 1.317-4.75 2.052-7.11"/><path fill="#5f717a" d="M804.368 1716.57c9.053 5.36 20.759 37.41 28.651 48.8-.951 3.29-2.218 6.27-3.219 9.46-5.427-8.96-23.438-46.89-27.484-51.15.657-2.38 1.317-4.75 2.052-7.11m-12.37 38.91c6.304 6.49 21.117 39.85 27.574 50.49-.7 2.3-2.28 6.86-2.536 9.01-5.565-8.83-23.738-45.28-27.844-49.32 1.131-3.41 1.935-6.69 2.806-10.18"/><path fill="#141313" d="M863.44 1535.8c8.115 5.8 16.415 28.98 22.156 38.58 2.361 3.94 5.384 7.19 7.147 10.39-4.734 12.38-8.78 25.89-13.049 38.54l-.529 1.69c-.783 2.62-1.935 5.1-2.562 7.77-9.749-15.43-19.672-37.74-28.506-50.77.952-2.6 2.541-7.52 3.268-10.17 4.466-11.49 7.733-24.29 12.075-36.03"/><path fill="#5f717a" d="M851.365 1571.83c10.658 13.73 18.037 36.73 28.329 51.48l-.529 1.69c-.783 2.62-1.935 5.1-2.562 7.77-9.749-15.43-19.672-37.74-28.506-50.77.952-2.6 2.541-7.52 3.268-10.17"/><path fill="#141313" d="M848.097 1582c8.834 13.03 18.757 35.34 28.506 50.77-4.676 12.59-8.226 26.68-13.082 39.22-1.062 3.42-2.245 6.17-3.213 9.71-9.555-16.73-17.23-35.74-27.469-51.83.405-2.17.939-3.97 1.646-6.08l1.401-4.05c3.803-9.57 8.981-27.4 12.211-37.74"/><path fill="#5f717a" d="M832.839 1629.87c.405-2.17.939-3.97 1.646-6.08l1.401-4.05c10.35 15.89 17.053 35.69 27.635 52.25-1.062 3.42-2.245 6.17-3.213 9.71-9.555-16.73-17.23-35.74-27.469-51.83"/><path fill="#141313" d="M820.353 1668.53c10.147 15.74 17.905 33.95 28.132 49.45-.988 3.79-2.185 6.66-3.543 10.29-2.946 11.3-8.01 25.9-11.923 37.1-7.892-11.39-19.598-43.44-28.651-48.8 3.581-8.49 9.639-28.11 12.826-37.54.7-3.65 2.2-6.95 3.159-10.5"/><path fill="#5f717a" d="M820.353 1668.53c10.147 15.74 17.905 33.95 28.132 49.45-.988 3.79-2.185 6.66-3.543 10.29-4.079-6.79-23.48-47.93-27.748-49.24.7-3.65 2.2-6.95 3.159-10.5"/><path fill="#141313" d="M789.192 1765.66c4.106 4.04 22.279 40.49 27.844 49.32-5.629 14.76-8.834 25.4-13.697 40.04-8.239-5.72-20.812-40.01-27.818-49.58 3.71-8.8 10.4-29.69 13.671-39.78m43.647-135.79c10.239 16.09 17.914 35.1 27.469 51.83-4.121 11.8-7.658 24.39-11.823 36.28-10.227-15.5-17.985-33.71-28.132-49.45 3.148-8.39 10.024-29.8 12.486-38.66"/><path fill="#c5332d" d="M766.214 1932.63c7.039 11.83 14.887 40.1 19.729 53.88 5.825 16.56-.427 29.6-17.99 33.59l-3.963-.74c-38.063-6.79-8.147-67.22 2.224-86.73"/><path fill="#75838b" d="M1308.38 1198.12c15.63.36 31.27.56 46.9.59 25.17.68 53.36.44 78.56-.02l144.11.25c.02 84.21-1.1 170.5-.23 254.48 11.98 1.08 35.04.44 47.93.42l92.73-.43c12.42-.08 60.01.75 68.11-.71 11.42 2.3 67.29 1.31 82.48 1.39l131.03-.97.4 594.88h-157.38l-.11-414.74c-55.3-.7-112.65.32-168.08.43l-255.35-.34c1.04-85.89.16-174.18.35-260.37l-348.13-.01c1.92-5.03 5.32-13.09 8.48-17.29 3.6-5.82 7.16-11.67 10.67-17.54 3.11-6.03 6.27-12.02 9.49-17.99 2.97-6.15 4.01-8.65 6.05-15.2 3.27-13.08 1.91-15.36 2.74-28.45l-.09-5.49c-1.18-5.97-2.31-11.95-3.4-17.93l-6.36-13.01c-2.5-3.85-6.35-11.48-8.68-15.76-2.59-3.09-6.51-9.2-8.93-12.72-1.71-3.61-4.7-8.7-3.65-12.45 22.53-1.45 54.89-.46 78.38-.56 50.66-.43 101.32-.59 151.98-.46"/><path fill="#fbfbfa" d="m1090.85 1338.14 362.16-.08-.1 260.75 298.67-.57 75.95.12c13.33.05 36.65 1.13 48.85-1.29 1.05 18.49.49 40.69.46 59.42l-.13 96.45-.09 295.06h-33.6l-.11-414.74c-55.3-.7-112.65.32-168.08.43l-255.35-.34c1.04-85.89.16-174.18.35-260.37l-348.13-.01c1.92-5.03 5.32-13.09 8.48-17.29 3.6-5.82 7.16-11.67 10.67-17.54"/><path fill="#75838b" d="M1071.7 1372.97c1.92-5.03 5.32-13.09 8.48-17.29l354.93-.45v260.3l289.06.51c41.76.05 91.67 1.39 132.89-.1l1.13 432.06h-15.17l-.11-414.74c-55.3-.7-112.65.32-168.08.43l-255.35-.34c1.04-85.89.16-174.18.35-260.37z"/><path fill="#75838b" d="M1308.38 1198.12c15.63.36 31.27.56 46.9.59 25.17.68 53.36.44 78.56-.02l144.11.25c.02 84.21-1.1 170.5-.23 254.48 11.98 1.08 35.04.44 47.93.42l92.73-.43c12.42-.08 60.01.75 68.11-.71 11.42 2.3 67.29 1.31 82.48 1.39l131.03-.97.4 594.88h-30.36l-.32-391.43-.08-117.04c.01-16.21-1.18-44.16 1.19-58.88l.13-.83c-18.31-.91-38.99-.27-57.57-.2l-96.44.25c-86.24.09-173.77-.85-259.85.1l-10.09 10.37c2.72-55.79 1.26-121.52 1.3-178.01l.1-53.19c.03-8.31-.06-17.34.36-25.62.08-1.49 1.55-6.01 1.95-8.88-12.3-.97-37.51-.12-50.55-.09l-98.46.19-311.11-.43c-2.59-3.09-6.51-9.2-8.93-12.72-1.71-3.61-4.7-8.7-3.65-12.45 22.53-1.45 54.89-.46 78.38-.56 50.66-.43 101.32-.59 151.98-.46"/><path fill="#fbfbfa" d="m1081.67 1211.59 255.59-.08c74.91.03 152.36-.64 227.08.35l-.28 255.85c54.24-1.63 113.8-.39 168.41-.47 84.23-.78 168.46-.83 252.68-.14-.66 63.45.04 127.79 0 191.35l-.03 389.55h-15.08l-.32-391.43-.08-117.04c.01-16.21-1.18-44.16 1.19-58.88l.13-.83c-18.31-.91-38.99-.27-57.57-.2l-96.44.25c-86.24.09-173.77-.85-259.85.1l-10.09 10.37c2.72-55.79 1.26-121.52 1.3-178.01l.1-53.19c.03-8.31-.06-17.34.36-25.62.08-1.49 1.55-6.01 1.95-8.88-12.3-.97-37.51-.12-50.55-.09l-98.46.19-311.11-.43c-2.59-3.09-6.51-9.2-8.93-12.72"/><path fill="#fbfbfa" d="M1099.28 1240.07c6.17-1.19 29.15-.64 36.58-.62l76.46.17 325.9.21c-3.38 3.96-7 8.03-10.1 12.19l.56 176.27c-.02 27.01.6 57.73-.3 84.51-4.25 5.18-8.81 11.01-13.17 16.02l414.81.1c-4.47 5.61-8.59 10.78-13.38 16.13l-414.39.14 6.74-11.49c-.51-86.67-.52-173.34-.02-260.01-4.08 4.27-8.07 8.71-12.58 12.48-92.04 2.07-190.39.05-283.03.04l-65.55.05c-6.12.02-31.98.63-36.63-.66-2.02-2.22-1.77-5.85-2.05-9.1l-.09-5.49c-1.18-5.97-2.31-11.95-3.4-17.93z"/><path fill="#75838b" d="m1105.64 1253.08 263.17.8c52.68-.1 106.09-1.37 158.71-.7l-15.46 17.85c-14.09-1-36.08-.3-50.59-.27l-92.43.13c-86.07.06-174.13-.92-260 .12-1.18-5.97-2.31-11.95-3.4-17.93m367.11 58.87c-1.35 8.95-1.03 23.85-1.08 33.27l-.07 53.79.24 181.12 416.66-.31 5.09-6.75 2.71.87c-1.97 48.55-.14 109.62-.11 159.08l.17 314.98h-19.74l.09-295.06.13-96.45c.03-18.73.59-40.93-.46-59.42-12.2 2.42-35.52 1.34-48.85 1.29l-75.95-.12-298.67.57.1-260.75-362.16.08c3.11-6.03 6.27-12.02 9.49-17.99 27.34 1.63 68.57.28 97.14.25l170.56-.14c30.89-.01 65.25-.65 95.97.33 2.97-2.84 5.97-5.61 8.74-8.64"/><path fill="#fbfbfa" d="m1479.45 1305.01 10.84-9.63c.78 53.93-.26 109.36-.22 163.43l.11 58.71c.07 13.37 1.62 34.18-2.76 46.17 137.29.66 276.6-1.36 413.66.89 4.53-4.86 8.53-9.14 12.75-14.3-1.02 61.25-.06 125.07-.08 186.51l-.16 311.21h-17.23l-.17-314.98c-.03-49.46-1.86-110.53.11-159.08l-2.71-.87-5.09 6.75-416.66.31-.24-181.12.07-53.79c.05-9.42-.27-24.32 1.08-33.27-2.77 3.03-5.77 5.8-8.74 8.64-30.72-.98-65.08-.34-95.97-.33l-170.56.14c-28.57.03-69.8 1.38-97.14-.25 2.97-6.15 4.01-8.65 6.05-15.2l243.36-.1c42.18-.03 87.71-.84 129.7.16"/><path fill="#898f94" d="M1893.59 1573.07c1.39-3.25 4.12-6.5 2.91-.18l-.2 1.05z"/><path fill="#fbfbfa" d="M1543.77 1495.27c29.4.99 60.11.79 89.56.37 108.35-1.55 217.39 1.49 325.66-.52-2.84 3.47-6.14 7.32-8.76 10.89-.25 180.04-1.87 362.03.2 541.99h-17.36l.07-521.04c4.69-6.24 8.45-11.22 13.64-17l-294.87.48c-39.84-.1-81.94.87-121.44-.13 4.59-5.03 8.93-9.82 13.3-15.04"/><path fill="#75838b" d="M652.149 1197.59c31.728.77 63.37.28 94.916 1.01l216.799-.23c-1.781 2.48-6.127 10.78-6.895 13.54-1.131 3.54-2.571 7.68-3.456 11.24.21 5.44.353 10.89.427 16.33-.004 4.49.072 9.2-.055 13.66l.896 4.2c-1.602 4.99-3.072 9.61-4.979 14.51l-4.544 14.66a868 868 0 0 1-6.594 20.19c-1.399 3.83-3.486 10.19-5.092 13.72l-5.858 18.44-5.68 16.97c-1.281 4.4-3.078 9.93-3.972 14.32-.332 1.48-.746 2.47-1.269 3.91-8.276-1.63-25.968-1.2-34.927-1.17l-54.573.2-199.196.01v260.66l-422.097-.6.712 414.84H49.004l-.145-594.62c43.988.12 94.635 1.2 138.261-.33 35.406 1.42 87.296 1.9 122.682.67l158.713-.01c.739-28.51.098-59.82.077-88.5l-.502-167.13c61.353.48 122.709.32 184.059-.49"/><path fill="#75838b" d="M538.21 1279.91c2.346 2.24 5.006 4.45 7.478 6.59 132.054-2.63 267.857 2.79 399.57.01a868 868 0 0 1-6.594 20.19c-1.399 3.83-3.486 10.19-5.092 13.72l-5.858 18.44-5.68 16.97c-1.281 4.4-3.078 9.93-3.972 14.32-.332 1.48-.746 2.47-1.269 3.91-8.276-1.63-25.968-1.2-34.927-1.17l-54.573.2-199.196.01v260.66l-422.097-.6.712 414.84h-91.524l.05-345.16c.231-56.36.162-112.73-.206-169.1 3.165 3.74 6.846 7.64 10.162 11.31l415.784.51c-1.452-3.75-2.708-7.6-2.77-11.64-.459-30.22.028-61.07.204-91.27.289-54.25.221-108.5-.202-162.74"/><path fill="#fbfbfa" d="m594.938 1337.77 224.429.22c13.12-.01 104.533-1.11 108.347.87l-5.68 16.97c-1.281 4.4-3.078 9.93-3.972 14.32-.332 1.48-.746 2.47-1.269 3.91-8.276-1.63-25.968-1.2-34.927-1.17l-54.573.2-199.196.01v260.66l-422.097-.6.712 414.84h-35.507l-.294-449.65 424.144.29z"/><path fill="#75838b" d="M922.034 1355.83c-1.281 4.4-3.078 9.93-3.972 14.32-.332 1.48-.746 2.47-1.269 3.91-8.276-1.63-25.968-1.2-34.927-1.17l-54.573.2-199.196.01v260.66l-422.097-.6.712 414.84h-18.569c-1.329-143.76 1.042-288.03-.88-431.93 141.461 1.29 283.862-1.53 425.266.25l-.224-261.15z"/><path fill="#75838b" d="M576.23 1320.08c118.545.26 239.107-.99 357.342.34l-5.858 18.44c-3.814-1.98-95.227-.88-108.347-.87l-224.429-.22.117 260.87-424.144-.29.294 449.65h-18.467l.047-467.63c42.796 1.56 95.943-.23 140.039-.3l283.234-.11c-1.048-33.02-.27-70.05-.243-103.36z"/><path fill="#fbfbfa" d="m557.028 1303.49 1.957.43c8.676 1.94 59.724 1.06 77.731 1.11 98.828.26 201.112-.65 300.303.19.548.49 1.097.99 1.645 1.48-1.399 3.83-3.486 10.19-5.092 13.72-118.235-1.33-238.797-.08-357.342-.34l-.415 156.52c-.027 33.31-.805 70.34.243 103.36l-283.234.11c-44.096.07-97.243 1.86-140.039.3l-.047 467.63h-18.066c-.509-114.28-.411-228.55.296-342.83l-.087-98.82c-.009-8.78-.545-38.37.666-45.81 2.65 1.44 5.508 3.05 8.543 3.1 14.862.25 29.984.16 44.832.18l91.395.05 277.459.31z"/><path fill="#fbfbfa" d="M652.149 1197.59c31.728.77 63.37.28 94.916 1.01l216.799-.23c-1.781 2.48-6.127 10.78-6.895 13.54-1.131 3.54-2.571 7.68-3.456 11.24-7.093 3.39-414.777.99-462.817.94 2.436 2.59 5.658 5.81 7.744 8.59 1.3 28.95.611 62.2.599 91.51l-.03 167.08c-3.644-3.89-7.667-8.38-11.459-12.04-95.812 2.22-197.698.7-293.961.43l-78.975-.41c-14.093-.08-33.384-.66-47.136.53 5.219 5.63 7.23 8.18 11.582 14.51L79.03 2048H49.005l-.145-594.62c43.988.12 94.635 1.2 138.261-.33 35.406 1.42 87.296 1.9 122.682.67l158.713-.01c.739-28.51.098-59.82.077-88.5l-.502-167.13c61.353.48 122.709.32 184.059-.49"/><path fill="#75838b" d="M652.149 1197.59c31.728.77 63.37.28 94.916 1.01l216.799-.23c-1.781 2.48-6.127 10.78-6.895 13.54-18.467-.98-41.556-.44-60.294-.36l-103.557.37-311.016-.36-.024 255.73-419.8.13c1.659 78.72.76 159.9.768 238.76l.09 341.82H49.004l-.145-594.62c43.988.12 94.635 1.2 138.261-.33 35.406 1.42 87.296 1.9 122.682.67l158.713-.01c.739-28.51.098-59.82.077-88.5l-.502-167.13c61.353.48 122.709.32 184.059-.49"/><path fill="#fbfbfa" d="M517.798 1255.82c4.75 5.77 8.25 10.33 14.034 15.09l310.359.02c14.088 0 101.643-1.24 107.611.92l-4.544 14.66c-131.713 2.78-267.516-2.64-399.57-.01-2.472-2.14-5.132-4.35-7.478-6.59.423 54.24.491 108.49.202 162.74-.176 30.2-.663 61.05-.204 91.27.062 4.04 1.318 7.89 2.77 11.64l-415.784-.51c-3.316-3.67-6.997-7.57-10.162-11.31.368 56.37.437 112.74.206 169.1l-.05 345.16H97.731l.605-531.07 11.585 11.44 418.115.64-10.841-15.68zm-11.9-16.45 448.042.11c-.004 4.49.072 9.2-.055 13.66-13.947.66-32.51.15-46.755.16l-89.633.14c-100.213.71-200.43.59-300.641-.35-3.819-4.48-7.347-9.08-10.958-13.72"/><path fill="#fbfbfa" d="m81.165 1495.08 270.343.11c47.413.03 102.964-1.26 149.785.72 4.806 5.03 9.068 9.27 13.155 14.93l-260.804-.42c-52.332-.19-106.705-1.17-158.877-.34-4.994-4.63-9.188-9.82-13.602-15"/><path fill="#5f717a" d="M949.343 287.944c2.397-3.683 8.199-16.593 11.399-22.095 6.206-10.67 15.932-27.224 19.193-38.562 16.817-58.476-41.742-64.298-32.79-126.608a78.6 78.6 0 0 1 31.456-52.186c34.629-25.406 87.849-18.522 113.369 16.85 19.09 26.013 20.42 63.159 2.01 89.941-13.36 16.905-32.43 42.154-24.96 65.669 5.02 15.787 22.36 53.161 32.36 66.595 1.13 4.021 3.85 12.575 3.95 16.345.82 3.89 1.84 8.092 2.19 12.02-.18 6.048-.47 11.959-.08 18-1.07 3.893-2.17 8.316-3.41 12.109 13.9 3.759 28.25 6.484 41.98 10.438a372.5 372.5 0 0 1 94.45 43.359l4.3-11.96 5.89-18.608 4.06-12.299 4.66-15.011c7.01-15.802 18.21-55.215 23.92-72.942 10.74-33.29 22.97-67.817 33.2-101.078 9.18 3.006 33.13 11.257 42.15 12.401l.86.115c-12.24 33.281-23.39 69.045-34.5 102.777l-28.78 84.492a214 214 0 0 1-5.5 16.336c-1.35 3.775-2.89 7.806-3.97 11.642l-6.08 19.369c-1 3.102-2.7 9.042-3.86 11.834-2.19 7.917-3.86 13.38-6.76 21.032-1.46 3.44-3.02 6.973-4.34 10.461l-.62 1.782c-2.08 5.863-4.53 12.746-6.26 18.689-1.07 3.418-2.12 7.185-3.57 10.411-1.87 5.11-4.54 12.134-5.44 17.405-17.52 61.484-41.88 122.911-61.15 184.011-2.45 7.755-5.35 15.969-8.16 23.583-2.94 8.828-6.08 17.863-8.73 26.762-1.27 3.659-3.52 9.518-4.46 13.073-.31 1.028-.52 1.935-.78 2.973l-48.81 146.54c-8.3 24.865-18.05 57.365-27.59 80.785-2.63 11.899-10.53 33.116-14.68 45.096-8.26 23.47-16.18 47.05-23.75 70.75l-47.25 142.71c-13.354 41.04-26.838 85.26-41.245 125.72l-5.474 17.35c-.796 2.5-1.433 4.92-2.272 7.51-16.065-9.07-20.83-10.36-38.526-17.03l-.15-2.44c.523-1.44.937-2.43 1.269-3.91.894-4.39 2.691-9.92 3.972-14.32l5.68-16.97 5.858-18.44c1.606-3.53 3.693-9.89 5.092-13.72a868 868 0 0 0 6.594-20.19l4.544-14.66c1.907-4.9 3.377-9.52 4.979-14.51l-.896-4.2c.127-4.46.051-9.17.055-13.66-.074-5.44-.217-10.89-.427-16.33.885-3.56 2.325-7.7 3.456-11.24.768-2.76 5.114-11.06 6.895-13.54 4.389-4.49 9.061-16.64 11.658-22.55 25.658-58.46-40.104-95.16-32.742-153.59 5.191-41.19 35.62-67.588 38.408-108.477 4.242-53.115-36.887-75.828-36.981-126.629-.08-43.52 40.934-74.839 39.793-115.113a63 63 0 0 0-.383-5.324c-4.112-36.038-42.451-61.685-40.949-104.423 2.121-60.38 51.994-80.073 35.9-146.003-1.532-5.175-2.879-9.18-4.72-14.227l-6.118-11.282c-2.673-3.208-5.765-9.839-7.791-13.779a332 332 0 0 1-7.484-11.856l-5.494-15.62c-1.269-4.288-2.324-9.255-3.374-13.654.255-6.618-.87-10.513-.985-16.746.268-4.95 1.093-8.493 2.052-13.316 1.004-5.245 2.863-12.928 4.689-17.837"/><path fill="#141313" d="M1316.49 167.921c9.18 3.006 33.13 11.257 42.15 12.401l.86.115c-12.24 33.281-23.39 69.045-34.5 102.777l-28.78 84.492a214 214 0 0 1-5.5 16.336c-1.35 3.775-2.89 7.806-3.97 11.642l-6.08 19.369c-1 3.102-2.7 9.042-3.86 11.834-2.19 7.917-3.86 13.38-6.76 21.032-1.46 3.44-3.02 6.973-4.34 10.461l-.62 1.782c-2.08 5.863-4.53 12.746-6.26 18.689-1.07 3.418-2.12 7.185-3.57 10.411-1.87 5.11-4.54 12.134-5.44 17.405-17.52 61.484-41.88 122.911-61.15 184.011-2.45 7.755-5.35 15.969-8.16 23.583-2.94 8.828-6.08 17.863-8.73 26.762-1.27 3.659-3.52 9.518-4.46 13.073-.31 1.028-.52 1.935-.78 2.973l-48.81 146.54c-8.3 24.865-18.05 57.365-27.59 80.785-2.63 11.899-10.53 33.116-14.68 45.096-8.26 23.47-16.18 47.05-23.75 70.75l-47.25 142.71c-13.354 41.04-26.838 85.26-41.245 125.72l-5.474 17.35c-.796 2.5-1.433 4.92-2.272 7.51-16.065-9.07-20.83-10.36-38.526-17.03l-.15-2.44c.523-1.44.937-2.43 1.269-3.91.894-4.39 2.691-9.92 3.972-14.32l5.68-16.97 5.858-18.44c1.606-3.53 3.693-9.89 5.092-13.72a868 868 0 0 0 6.594-20.19l4.544-14.66c1.907-4.9 3.377-9.52 4.979-14.51 6.598-14.19 17.861-51.78 23.818-69.2l51.471-152.4 56.34-169.904c8.47-25.597 20.67-58.485 27.43-83.667-.65-2.85-.88-3.118-.56-6.028l2.93-.572a25313 25313 0 0 1 100.02-301.381c2.34-6.035 3.54-9.816 5.23-16.07l3.78-9.79c1.17-4.815 3.73-12.229 5.29-17.167l4.19-12.275c1.88-6.367 3.79-12.723 5.74-19.067l4.3-11.96 5.89-18.608 4.06-12.299 4.66-15.011c7.01-15.802 18.21-55.215 23.92-72.942 10.74-33.29 22.97-67.817 33.2-101.078"/><path fill="#5f717a" d="M918.062 1370.15c13.992 3.49 26.822 9.62 39.679 15.87-.796 2.5-1.433 4.92-2.272 7.51-16.065-9.07-20.83-10.36-38.526-17.03l-.15-2.44c.523-1.44.937-2.43 1.269-3.91"/><path fill="#d4d4d8" d="m1113.28 776.141 2.93-.572q-1.215 3.288-2.37 6.6c-.65-2.85-.88-3.118-.56-6.028"/><path fill="#fbfbfa" d="M1097.22 363.878c1.33-6.503 3.79-12.017 6.81-17.856 13.9 3.759 28.25 6.484 41.98 10.438a372.5 372.5 0 0 1 94.45 43.359c-1.95 6.344-3.86 12.7-5.74 19.067l-4.19 12.275c-1.56 4.938-4.12 12.352-5.29 17.167l-3.78 9.79c-1.69 6.254-2.89 10.035-5.23 16.07a25313 25313 0 0 0-100.02 301.381l-2.93.572c-3.23-31.219-23.22-54.731-35.85-82.128-19.9-40.578 10.1-68.268 24.26-103.973 28.19-71.119-58.84-103.195-30.61-176.525 2.39-4.263 1.01-5.537 5.48-11.881l6.57-11.953c1.74-4.416 4.63-10.005 7.55-13.708 3.08-4.797 4.21-6.893 6.54-12.095"/><path fill="#75838b" d="M1097.22 363.878c1.33-6.503 3.79-12.017 6.81-17.856 13.9 3.759 28.25 6.484 41.98 10.438a372.5 372.5 0 0 1 94.45 43.359c-1.95 6.344-3.86 12.7-5.74 19.067l-4.19 12.275c-1.56 4.938-4.12 12.352-5.29 17.167-47.5-34.597-85.71-46.78-142.11-58.647 1.74-4.416 4.63-10.005 7.55-13.708 3.08-4.797 4.21-6.893 6.54-12.095"/><path fill="#75838b" d="M1097.22 363.878c1.33-6.503 3.79-12.017 6.81-17.856 13.9 3.759 28.25 6.484 41.98 10.438a372.5 372.5 0 0 1 94.45 43.359c-1.95 6.344-3.86 12.7-5.74 19.067-33.78-25.929-95.46-51.12-137.5-55.008"/><path fill="#fbfbfa" d="M1097.22 363.878c42.04 3.888 103.72 29.079 137.5 55.008l-4.19 12.275c-38.97-30.717-91.53-47.203-139.85-55.188 3.08-4.797 4.21-6.893 6.54-12.095"/><path fill="#75838b" d="M1083.13 389.681c56.4 11.867 94.61 24.05 142.11 58.647l-3.78 9.79c-1.69 6.254-2.89 10.035-5.23 16.07-42.43-35.569-92.28-49.965-145.15-60.673 2.39-4.263 1.01-5.537 5.48-11.881z"/><path fill="#fbfbfa" d="M1083.13 389.681c56.4 11.867 94.61 24.05 142.11 58.647l-3.78 9.79c-42.28-31.182-92.99-49.721-144.9-56.484z"/><path fill="#da8b3a" d="M1180.51 714.261c41.5 1.58 94.86-.04 137.08-.133l245.31-.143c.42 11.497 2.03 95.428.34 100.618.31 27.564 1.29 72.864-.38 99.513l.05 51.566c-14.53-.198-30.52-.749-44.94-.501a1039 1039 0 0 0 7.87 26.224l-10.18 1.926c2.1 6.588 9.08 23.259 7.25 28.609-3.65 1.35-6.94 1.24-8.77 3.2 1.85 8.23 7.87 20.66 8.53 27.14-4.02 3.89-6.51-.17-8.76 3.7 1.74 8.71 9.94 21.48 8.32 27.43-3.03 1.77-4.79 1.68-8.26 2.07 2.4 10.92 4.18 17.48 8.97 27.64-5.89.5-11.04.94-16.96 1.01l-1.18 11.66-19.89.23c-.06 7.78.02 13.08-1.19 20.72-9.5 1.17-12.62-.25-15.9 9.66-4.75 4.08-11.31 2.84-17.93 2.75-.26 6.83-.6 13.77-.76 20.59-5.56.42-10.36.37-15.43 2.76l.14 16.19c-25.2.46-53.39.7-78.56.02-15.63-.03-31.27-.23-46.9-.59-50.66-.13-101.32.03-151.98.46-23.49.1-55.85-.89-78.38.56-8-2.11-10.75-27.2-11.33-34.6-1.35-17.6 2.71-35.39 10.86-50.96 12.96-24.77 29.62-48.12 28.7-77.35-.59-19.13-8.42-34.75-16.11-51.836 9.54-23.42 19.29-55.92 27.59-80.785l48.81-146.54c.26-1.038.47-1.945.78-2.973.94-3.555 3.19-9.414 4.46-13.073 2.65-8.899 5.79-17.934 8.73-26.762"/><path fill="#ce8943" d="m1366.18 716.934 195.72-.012-.36 59.883c.04 10.203.8 23.098.23 32.991q.075 2.58.12 5.162l1.35-.355c.31 27.564 1.29 72.864-.38 99.513l.05 51.566c-14.53-.198-30.52-.749-44.94-.501a1039 1039 0 0 0 7.87 26.224l-10.18 1.926c2.1 6.588 9.08 23.259 7.25 28.609-3.65 1.35-6.94 1.24-8.77 3.2 1.85 8.23 7.87 20.66 8.53 27.14-4.02 3.89-6.51-.17-8.76 3.7 1.74 8.71 9.94 21.48 8.32 27.43-3.03 1.77-4.79 1.68-8.26 2.07 2.4 10.92 4.18 17.48 8.97 27.64-5.89.5-11.04.94-16.96 1.01l-1.18 11.66-19.89.23c-.06 7.78.02 13.08-1.19 20.72-9.5 1.17-12.62-.25-15.9 9.66-4.75 4.08-11.31 2.84-17.93 2.75-.26 6.83-.6 13.77-.76 20.59-5.56.42-10.36.37-15.43 2.76l.14 16.19c-25.2.46-53.39.7-78.56.02-15.63-.03-31.27-.23-46.9-.59.18-6.14.22-12.27.12-18.41-8.82-.11-17.65-.09-26.48.05-.09-6.28-.27-12.46-.25-18.74-15.97-.31-17.73 3.57-18.06-10.7 10.75 2.95 10.95 3.26 11.13-6.7-.58-.92-.89-2.56-.82-3.56 1.64-24.85 14.66-48.56 37.01-60.44 15.08-8.01 27.62-8.97 44.05-9.7.01-3.88.05-7.75.12-11.62 3.07 4.54-.92 8.06 2.72 11.64.42-12.86-.04-26.25.19-39.24-1.46-1.71-5.37-1.47-8.27-1.75 10.21-1.27 24.83-.84 35.42-.82l-.02-97.932c-.02-38.604 5.98-67.79-19.4-99.818.82-1.177 1.58-3.711 2.54-4.602 3.33-3.098 11.03-1.625 15.87-2.253l1.04-.144c-4.7-.094-13.68 1.904-16.5-1.769l1.64-3.569-3.7-2.037c-2.03-3.193-1.14-6.443-.74-10.353.92-8.87.42-23.378.39-32.699z"/><path fill="#141313" d="m1367.41 826.324 194.84-.093q-.225 28.172.03 56.345c.05 8.543-.27 23.334.58 31.54l.05 51.566c-14.53-.198-30.52-.749-44.94-.501a1039 1039 0 0 0 7.87 26.224l-10.18 1.926c2.1 6.588 9.08 23.259 7.25 28.609-3.65 1.35-6.94 1.24-8.77 3.2 1.85 8.23 7.87 20.66 8.53 27.14-4.02 3.89-6.51-.17-8.76 3.7 1.74 8.71 9.94 21.48 8.32 27.43-3.03 1.77-4.79 1.68-8.26 2.07 2.4 10.92 4.18 17.48 8.97 27.64-5.89.5-11.04.94-16.96 1.01l-1.18 11.66-19.89.23c-.06 7.78.02 13.08-1.19 20.72-9.5 1.17-12.62-.25-15.9 9.66-4.75 4.08-11.31 2.84-17.93 2.75-.26 6.83-.6 13.77-.76 20.59-5.56.42-10.36.37-15.43 2.76-3.86-9.18-1.96-16.25-9.08-27.95-11.23-18.44-28.3-27.22-48.61-32.31 24.3-1.42 53.22-1.03 77.78-1.29 1.08-28.98-4.06-44.19-34.87-50.48l-.17-38.71 16.72-.08.4-29.12c.31-37.903-13.94-37.748-47.16-37.195-.06-26.03.01-52.06.23-78.089-2.04-1.238-1.3-.37-2.2-2.635l1.87-1.34c-.95-22.604-5.5-39.766-21.2-56.977"/><path fill="#da8b3a" d="M1388.61 883.301c34.4-20.189 62.04-32.835 103.28-22.354 15.91 4.042 34.68 12.998 48.16 22.377-26.34 21.381-54.44 32.88-88.74 29.461-18.98-1.892-48.23-13.088-62.37-25.509-2.04-1.238-1.3-.37-2.2-2.635z"/><path fill="#141313" d="m1366.18 716.934 195.72-.012-.36 59.883c.04 10.203.8 23.098.23 32.991l-2.46 1.058c-2-4.579-4.68-8.804-7.18-13.119-14.56-25.118-29.84-49.829-43.66-75.363-13.61 16.147-30.28 53.205-43.46 72.628-12.31-23.582-26.18-50.722-39.82-73.413-16.89 27.898-37.18 61.594-55.01 88.448l-4.21-.816.02-3.566c.92-8.87.42-23.378.39-32.699zm-89.04 424.966c-.95-16.09 7.07-33.36 17.49-45.5 26.84-31.27 67.57-21.55 103.96-23.28 36.54-1.73 51.02 7.4 52.26 44.78-33.97.79-70.29.25-104.45.3-27.82-1.98-50.82.85-69.26 23.7"/><path fill="#da8b3a" d="M1277.14 1141.9c18.44-22.85 41.44-25.68 69.26-23.7 2.1.57 11.15 1.66 10.78 1.48-.7 1.26-.17 1.91.29 3.11-.79 5.51-.42 20.05-.41 26.35l.09 47.87-1.87 1.7c-15.63-.03-31.27-.23-46.9-.59.18-6.14.22-12.27.12-18.41-8.82-.11-17.65-.09-26.48.05-.09-6.28-.27-12.46-.25-18.74-15.97-.31-17.73 3.57-18.06-10.7 10.75 2.95 10.95 3.26 11.13-6.7.78-1.35.75-1.19 2.3-1.72"/><path fill="#141313" d="M1357.47 1122.79c25.59 3.82 47.16 8.07 63.23 31.81 8.81 13.02 9.4 27.23 9.38 42.38q-36.465-.18-72.93.03l-.09-47.87c-.01-6.3-.38-20.84.41-26.35m22.32-319.843 105.71.312c19.81.118 44.57.84 64.14.025 3.46 5.847 9.03 14.641 11.91 20.501-7.73-.607-15.27-.758-23.03-.722-51.04.239-102.2-.359-153.23.318-4.7-.094-13.68 1.904-16.5-1.769l1.64-3.569zm-21.68 227.753c4.89 1.22 50.16.74 57.74.68-.14 12.91-.15 25.81-.04 38.71-19.41-.27-38.56-.05-57.89-.15.42-12.86-.04-26.25.19-39.24"/><path fill="#272116" d="m1365.97 809.219 4.21.816c-.42.761-1.91 4.38-3.02 4.057-.73-.853-.83-1.95-.95-3.031z"/><path fill="#442d1b" d="m1559.31 810.854 2.46-1.058q.075 2.58.12 5.162c-.11.445-.12.819-.38 1.098-1.15-1.944-1.4-2.966-2.2-5.202"/><path fill="#141313" d="M1425.32 730.687c3.46 3.753 33.14 60.787 36.84 68.527l-40.89.009-38.47-.052c9.27-17.877 30.92-50.273 42.52-68.484m82.01.742c3.92 3.187 35.28 60.014 39.38 68.179-13.51.222-27.41.002-40.96-.016-12.22-.004-25.23.181-37.39-.282 11.68-20.586 26.8-48.282 38.97-67.881m-118.46 236.878c41.39 1.89 44.84.079 43.63 46.223-.11 4.19.07 9.31.09 13.6-12.91.61-30.33.11-43.68.13-.01-19.68-.42-40.34-.04-59.953"/><path fill="#fbfbfa" d="M1166.54 757.069c2.47 4.267 1.66 10.403 2.32 16.217l.38 119.266c.12 24.105.81 48.194.43 72.287l43.26.128c-1.68 5.464-7.11 21.054-6.25 25.723 2.12 1.2 3.43.876 5.92.843 4.42 4.521-5.04 21.027-5.21 28.757 4.58 3.57 5.94-.05 8.2 3.21-.64 10.09-6.75 18.26-7.45 27.97 4.08 4.06 5.26-.13 7.05 4.01-.99 10.23-7.01 17.55-7.76 27.53 4.46 3.98 5.74.08 8.45 3.97-.77 6.46-5.44 19.2-7.67 25.89l17.63.1.33 13.62 19.9.38-.21 21.93c6.12.08 11.95-.17 17.85 1.42.33 14.27 2.09 10.39 18.06 10.7-.02 6.28.16 12.46.25 18.74 8.83-.14 17.66-.16 26.48-.05.1 6.14.06 12.27-.12 18.41-50.66-.13-101.32.03-151.98.46-23.49.1-55.85-.89-78.38.56-8-2.11-10.75-27.2-11.33-34.6-1.35-17.6 2.71-35.39 10.86-50.96 12.96-24.77 29.62-48.12 28.7-77.35-.59-19.13-8.42-34.75-16.11-51.836 9.54-23.42 19.29-55.92 27.59-80.785z"/><path fill="#5f717a" d="M1171.78 741.023c7.22 15.356 13.63 26.682 22.64 41.16 2.83 4.545 5.91 15.609 8.19 20.966 6.16 14.476 18.83 25.775 33.61 30.914 8.98 3.125 18.73 4.597 27.71 7.276 29.79 8.886 42.42 19.438 60.45 43.516-15.24-9.146-23.83-13.948-41.22-18.498l1.45 3.757c17.76 5.279 28.7 9.875 42.9 22.101l1.21.762c-1.07 2.272-2.77 6.04-5.02 7.332-35.2 51.406-39.42 71.297-38.64 130.231 23.03.72 47.03.45 70.14.49-.03 8.67-.3 18.71 0 27.27-.07 3.87-.11 7.74-.12 11.62-16.43.73-28.97 1.69-44.05 9.7-22.35 11.88-35.37 35.59-37.01 60.44-.07 1 .24 2.64.82 3.56-.18 9.96-.38 9.65-11.13 6.7-5.9-1.59-11.73-1.34-17.85-1.42l.21-21.93-19.9-.38-.33-13.62-17.63-.1c2.23-6.69 6.9-19.43 7.67-25.89-2.71-3.89-3.99.01-8.45-3.97.75-9.98 6.77-17.3 7.76-27.53-1.79-4.14-2.97.05-7.05-4.01.7-9.71 6.81-17.88 7.45-27.97-2.26-3.26-3.62.36-8.2-3.21.17-7.73 9.63-24.236 5.21-28.757-2.49.033-3.8.357-5.92-.843-.86-4.669 4.57-20.259 6.25-25.723l-43.26-.128c.38-24.093-.31-48.182-.43-72.287l-.38-119.266c-.66-5.814.15-11.95-2.32-16.217.26-1.038.47-1.945.78-2.973.94-3.555 3.19-9.414 4.46-13.073"/><path fill="#141313" d="M1196.25 890.871c1.07-.726 2.14-1.446 3.22-2.157 27.81-18.341 52.43-25.234 85.14-18.6 17.76 5.279 28.7 9.875 42.9 22.101-48.53 29.544-83.76 30.287-131.26-1.344"/><path fill="#ce8943" d="M1190.76 891.2c3.08-2.366 6.21-4.654 9.4-6.863 25.26-17.406 52.98-23.641 83-17.98l1.45 3.757c-32.71-6.634-57.33.259-85.14 18.6-1.08.711-2.15 1.431-3.22 2.157 47.5 31.631 82.73 30.888 131.26 1.344l1.21.762c-1.07 2.272-2.77 6.04-5.02 7.332-3.2.062-23.53 10.468-31.02 12.604-26.42 7.535-52.13 6.108-76.76-6.598-8.45-4.356-16.74-10.183-25.16-15.115"/><path fill="#d4d4d8" d="M1167.32 754.096c3.09.889 1.71 15.72 1.54 19.19-.66-5.814.15-11.95-2.32-16.217.26-1.038.47-1.945.78-2.973"/><path fill="#141313" d="M1200.47 788.406c57.89 52.723 126.77 7.324 165.37 41.974 25.38 32.028 19.38 61.214 19.4 99.818l.02 97.932c-10.59-.02-25.21-.45-35.42.82l.13-79.62c-.01-18.82 1.73-49.631-3.01-66.709-23.44-84.422-124.09-7.471-146.49-94.215m113.45 225.724c19.1-1.36 19.69 13.6 13.33 13.6-5.14-.01-20.66 2.51-19.4-3.66 1.18-5.75 1.85-6.41 6.07-9.94"/><path fill="#da8b3a" d="m477.035 714.022 249.896-.065c34.267-.435 68.538-.464 102.805-.089 10.834.094 33.912-.565 43.704.504 2.262 2.51 1.354 3.337 1.303 7.965l.377 169.477.062 47.773c.001 5.897.216 20.252-.537 25.59l-45.742-.131c2.587 8.39 5.732 17.786 8.025 26.163l-10.776 1.021c1.639 4.809 9.264 26.21 9.292 29.32-3.827 1.5-6.705 1.22-10.863 1.31 1.442 5.93 8.699 25.3 8.961 28.94-4.129 4.02-6.147-.01-8.346 3.63 1.657 10.93 11.732 21.68 8.362 28.07-2.416.39-4.157.76-6.455 1.6-3.177 6.93 3.903 20.86 6.997 27.72-10.152.18-13.967-1.83-18.687 8.03-5.343 3.82-11.88 2.6-18.742 2.43l-.13 19.4-14.447 1.87-.695 13.1-20.108.41c-.007 4.93.508 16.39-1.399 20.31l-2.475.9c-5.411.31-5.728-.57-9.437 2.03-1.93 3.78-.89 12.4-.915 17.3-31.546-.73-63.188-.24-94.916-1.01l.203-.29-26.869-.04-.334-19.89-24.549-.29c-.866-6.52-1.15-11.54-1.466-18.12-5.129.19-12.172 1.15-16.442-.96-2.729-2.5-2.594-5.53-3.182-9.39-3.146-.91-12.661-1.21-16.465-1.43.029-7.31-.213-14.61-.725-21.89-7.785-.21-15.378.05-23.371-.25-.422-3.82-.634-8.05-.913-11.92l-21.005-.12c3.109-9.46 6.154-18.95 9.135-28.46-3.488-.19-7.274.1-10.015-1.53 1.009-5.95 7.305-22.09 9.647-28.84-3.111-.48-7.736-.64-9.305-2.63 1.343-7.09 6.696-21.27 9.256-28.63l-11.785-1.02c1.854-8.31 7.723-22.102 8.239-29.019-3.131-3.329-2.196.555-7.225-2.654-2.138-6.58 2.71-17.541 5.087-24.432l-42.9-.388-.044-234.458z"/><path fill="#141313" d="M679.69 826.786c64.324-.374 130.821.537 194.787-.639a5004 5004 0 0 0-.174 90.368c-.015 10.696-.776 39.861.342 48.662l-45.742-.131c2.587 8.39 5.732 17.786 8.025 26.163l-10.776 1.021c1.639 4.809 9.264 26.21 9.292 29.32-3.827 1.5-6.705 1.22-10.863 1.31 1.442 5.93 8.699 25.3 8.961 28.94-4.129 4.02-6.147-.01-8.346 3.63 1.657 10.93 11.732 21.68 8.362 28.07-2.416.39-4.157.76-6.455 1.6-3.177 6.93 3.903 20.86 6.997 27.72-10.152.18-13.967-1.83-18.687 8.03-5.343 3.82-11.88 2.6-18.742 2.43l-.13 19.4-14.447 1.87-.695 13.1-20.108.41c-.007 4.93.508 16.39-1.399 20.31l-2.475.9-9.911-.65c-1.25-1.63-3.838-13.95-5.733-18.32-8.776-20.23-22.534-29.79-42.459-37.74.312-2.24 2.977-2.03 5.128-2.63 18.172.08 41.649.66 59.573-1.21 1.944-.14 1.01.2 2.699-1.26 1.545-8.08-2.013-24.66-6.316-31.6-6.999-11.29-16.18-13.68-27.912-16.69l-.266-38.98 15.826-.18.243-33.196c-.075-33.724-19.607-32.323-46.635-31.912l-.516-75.084c-1.341-4.311-1.321-2.223-.189-6.493.073-21.467-5.962-40.98-21.259-56.539"/><path fill="#da8b3a" d="M700.949 883.325c52.368-32.931 98.691-35.947 151.176.195-38.705 31.516-81.698 39.368-127.312 17.99-5.649-2.647-18.303-10.838-23.675-11.692-1.341-4.311-1.321-2.223-.189-6.493"/><path fill="#ce8943" d="m873.246 717.091 1.497 5.246.377 169.477.062 47.773c.001 5.897.216 20.252-.537 25.59-1.118-8.801-.357-37.966-.342-48.662a5004 5004 0 0 1 .174-90.368c-63.966 1.176-130.463.265-194.787.639 15.297 15.559 21.332 35.072 21.259 56.539-1.132 4.27-1.152 2.182.189 6.493l.516 75.084c27.028-.411 46.56-1.812 46.635 31.912l-.243 33.196-15.826.18.266 38.98c11.732 3.01 20.913 5.4 27.912 16.69 4.303 6.94 7.861 23.52 6.316 31.6-1.689 1.46-.755 1.12-2.699 1.26-17.924 1.87-41.401 1.29-59.573 1.21-2.151.6-4.816.39-5.128 2.63 19.925 7.95 33.683 17.51 42.459 37.74 1.895 4.37 4.483 16.69 5.733 18.32l9.911.65c-5.411.31-5.728-.57-9.437 2.03-1.93 3.78-.89 12.4-.915 17.3-31.546-.73-63.188-.24-94.916-1.01l.203-.29-26.869-.04-.334-19.89-24.549-.29c-.866-6.52-1.15-11.54-1.466-18.12-5.129.19-12.172 1.15-16.442-.96-2.729-2.5-2.594-5.53-3.182-9.39 4.33.58 5.505 1.22 8.722-.47l.807-2.93a75.45 75.45 0 0 1 17.04-50.28c17.433-20.95 36.644-23.77 61.819-25.95l-.04-38.97c-13.774-.04-33.855.36-47.106-.89 8.359-1.19 38.139.78 41.658-1.17 8.66-1.12 26.21-.73 35.721-.75l.217-104.898c-.143-37.105 4.728-61.347-19.617-91.939-1.17-3.631-.798-2.532.051-6.741-1.224-.686-.67-.149-1.248-1.946 2.673-5.902 7.971-13.175 11.731-18.721 1.655-2.766.307-2.543 2.917-5.072 4.484 2.505 70.51 1.373 79.407 1.212l.681 1.238c1.141-2.342 1.104-2.646 2.774-4.676l-.409-.882c13.501-21.287 26.933-48.632 40.496-71.03 18.659 31.408 39.592 63.811 58.754 95.405-1.393-9.762-.871-27.688-.844-38.252z"/><path fill="#da8b3a" d="M591.445 1141.11c28.374-33.12 53.556-23.58 93.081-24.35 16.02-.32 34.15-1.01 49.967.08 7.976 1.1 24.84-.36 29.522 1.88-17.924 1.87-41.401 1.29-59.573 1.21-2.151.6-4.816.39-5.128 2.63 19.925 7.95 33.683 17.51 42.459 37.74 1.895 4.37 4.483 16.69 5.733 18.32l9.911.65c-5.411.31-5.728-.57-9.437 2.03-1.93 3.78-.89 12.4-.915 17.3-31.546-.73-63.188-.24-94.916-1.01l.203-.29-26.869-.04-.334-19.89-24.549-.29c-.866-6.52-1.15-11.54-1.466-18.12-5.129.19-12.172 1.15-16.442-.96-2.729-2.5-2.594-5.53-3.182-9.39 4.33.58 5.505 1.22 8.722-.47l.807-2.93z"/><path fill="#141313" d="m690.263 1123.51-.591-2.56 1.277-1.31 3.082.55c1.103 2.04 2.535 1.77 5.283 2.37 19.925 7.95 33.683 17.51 42.459 37.74 1.895 4.37 4.483 16.69 5.733 18.32l9.911.65c-5.411.31-5.728-.57-9.437 2.03-1.93 3.78-.89 12.4-.915 17.3-31.546-.73-63.188-.24-94.916-1.01l.203-.29c5.627-.56 13.914 1.52 17.823-1.4-1.409-17.84-.154-54.96-.177-74.14 9.113.3 11.212.27 20.265 1.75"/><path fill="#ce8943" d="m690.263 1123.51-.591-2.56 1.277-1.31 3.082.55c1.103 2.04 2.535 1.77 5.283 2.37 19.925 7.95 33.683 17.51 42.459 37.74 1.895 4.37 4.483 16.69 5.733 18.32l9.911.65c-5.411.31-5.728-.57-9.437 2.03-1.93 3.78-.89 12.4-.915 17.3-31.546-.73-63.188-.24-94.916-1.01l.203-.29c5.627-.56 13.914 1.52 17.823-1.4 19.949-1.47 52.894-.64 73.368-.32-.319-36.39-15.854-63.35-53.28-72.07"/><path fill="#442d1b" d="M694.031 1120.19c3.925-.24 6.501-.31 10.411-.26-2.151.6-4.816.39-5.128 2.63-2.748-.6-4.18-.33-5.283-2.37"/><path fill="#141313" d="M591.445 1141.11c2.375-38.19 30.052-67.07 68.347-68.6 18.35-1.11 37.198-.19 55.511-.7 35.695-.98 46.322 9.82 48.501 44.55-9.775-.01-19.559-.16-29.311.48-15.817-1.09-33.947-.4-49.967-.08-39.525.77-64.707-8.77-93.081 24.35m97.82-338.155 169.939.098c3.543 6.15 8.11 14.622 12.201 20.121l-192.623.448c-1.224-.686-.67-.149-1.248-1.946 2.673-5.902 7.971-13.175 11.731-18.721m125.441-69.38c4.593 3.243 36.411 57.038 41.57 66.046l-36.526-.131-41.921-.266c8.826-19.522 25.986-45.509 36.877-65.649M701.259 968.083a275 275 0 0 1 15.742-.203c27.749.323 28.692 14.882 27.929 38.28-.22 6.76.182 14.01-.076 20.89l-43.865.17c-.135-16.47-.774-43.377.27-59.137m-30.205 62.057 58.333.06.123 38.74c-18.907.43-39.449-.03-58.584.08-.008-12.76-.185-26.18.128-38.88"/><path fill="#5f717a" d="m477.121 730.939.712 1.696c2.914 7.045 7.185 24.104 11.108 29.235 11.14 14.572 16.459 22.867 20.781 40.607 2.762 11.337 21.555 28.175 32.476 32.092 9.777 4.155 19.72 4.801 29.914 7.038 29.997 6.58 44.11 18.62 62.327 41.537-44.444-22.471-92.179-27.968-132.603 6.927 47.65 33.391 82.489 36.404 133.943 7.403-5.69 9.876-11.931 19.344-17.385 29.338-19.425 35.591-20.576 63.304-20.444 102.328 6.229.03 16.931.42 22.802-.02 13.251 1.25 33.332.85 47.106.89l.04 38.97c-25.175 2.18-44.386 5-61.819 25.95a75.45 75.45 0 0 0-17.04 50.28l-.807 2.93c-3.217 1.69-4.392 1.05-8.722.47-3.146-.91-12.661-1.21-16.465-1.43.029-7.31-.213-14.61-.725-21.89-7.785-.21-15.378.05-23.371-.25-.422-3.82-.634-8.05-.913-11.92l-21.005-.12c3.109-9.46 6.154-18.95 9.135-28.46-3.488-.19-7.274.1-10.015-1.53 1.009-5.95 7.305-22.09 9.647-28.84-3.111-.48-7.736-.64-9.305-2.63 1.343-7.09 6.696-21.27 9.256-28.63l-11.785-1.02c1.854-8.31 7.723-22.102 8.239-29.019-3.131-3.329-2.196.555-7.225-2.654-2.138-6.58 2.71-17.541 5.087-24.432l-42.9-.388z"/><path fill="#141313" d="M507.829 786.766c56.769 55.844 130.77 6.401 170.902 43.597 24.345 30.592 19.474 54.834 19.617 91.939l-.217 104.898c-9.511.02-27.061-.37-35.721.75l.149-87.882c.036-14.307 1.429-46.35-2.287-58.969-25.428-86.349-131.304-.907-152.443-94.333m167.424-69.907 197.993.232-.205 63.807c-.027 10.564-.549 28.49.844 38.252-19.162-31.594-40.095-63.997-58.754-95.405-13.563 22.398-26.995 49.743-40.496 71.03-13.444-22.83-26.56-51.171-39.925-72.29-19.488 26.09-39.625 64.423-59.579 92.878z"/><path fill="#141313" d="M734.33 730.945c7.666 13.292 15.076 27.189 22.239 40.781 4.345 8.245 11.386 19.394 15.02 27.369-8.897.161-74.923 1.293-79.407-1.212 12.547-20.522 28.691-47.33 42.148-66.938M569.635 867.43c25.473.903 48.549 8.065 68.989 23.62-19.12 12.989-38.193 21.345-61.268 23.231-29.519.083-45.804-7.847-70.634-23.809 22.819-15.105 35.673-21.075 62.913-23.042m59.472 143.55c8.731.55 13.068 3.24 14.52 12.84.508 3.35-3.125 2.82-5.377 2.83-3.113-.01-15.91.82-16.838-.91-3.611-6.73 4.91-12.89 7.695-14.76"/><path fill="#da8b3a" d="m47.089 969.135 197.121-.1-5.369 2.544.216 100.651c.84 2.47.888 2.27 3.025 3.83l-.484 2.6c2.817 1.88 3.556 1.28 7.522 1.56l.776 3.35-2.855-.03-4.676 1.12c22.93 25.99 20.489 47.6 20.345 80.5-.079 18.04-.58 37.05-.362 55.02l.55 61.94c-11.621.05-24.361.36-35.898.09l.038 1.91 3.747 1.14c2.674 5.19 1.447 31.3 1.434 38.31-8.306.21-15.394.2-23.467 2.17-33.919 8.26-56.322 36.71-56.119 71.58-1.679 5.29-.743 5.05-4.248 8.36-2.52.22-2.462.35-4.85-.37l-17.359-2.87.377-21.43c-7.11-.13-14.217-.34-21.322-.62-.538-3.82-.761-8.42-1.054-12.33l-20.277-.16c2.227-6.28 9.044-22.17 6.637-27.73-2.172.15-2.997.18-5.161.04-3.286-8.14 9.083-21.29 5.559-30.16-1.712-.52-3.382-.8-5.16-.99-2.445-5.05 5.335-24.08 7.614-30.98l-11.367-1.02c2.324-6.64 8.645-22.96 8.531-29.08l-1.6-1.52c-2.838-.22-3.01 0-5.438-1.35-2.112-5.86 3.195-18.36 5.399-24.87-13.332-.43-27.866-.23-41.291-.28l-.507-232.155z"/><path fill="#5f717a" d="m47.116 987.805.684 1.757c2.752 7.188 8.525 28.088 12.696 33.158 12.003 14.58 11.243 15.21 17.46 32.77a56.6 56.6 0 0 0 29.163 32.13c8.237 3.81 21.463 6.1 30.642 7.85 28.116 5.36 46.751 20.27 62.129 44.18-13.106-7.87-21.03-11.18-35.439-16.24l-2.875 3.07c15.752 4.69 28.802 9.53 41.09 20.95-10.175 8.85-27.876 16.05-40.815 19.73l1.243 2.8c14.972-4.77 23.423-8.78 37.389-15.94-33.687 49.84-38.219 72.54-37.345 129.79 21.301-.03 42.601.08 63.9.31l3.747 1.14c2.674 5.19 1.447 31.3 1.434 38.31-8.306.21-15.394.2-23.467 2.17-33.919 8.26-56.322 36.71-56.119 71.58-1.679 5.29-.743 5.05-4.248 8.36-2.52.22-2.462.35-4.85-.37l-17.359-2.87.377-21.43c-7.11-.13-14.217-.34-21.322-.62-.538-3.82-.761-8.42-1.054-12.33l-20.277-.16c2.227-6.28 9.044-22.17 6.637-27.73-2.172.15-2.997.18-5.161.04-3.286-8.14 9.083-21.29 5.559-30.16-1.712-.52-3.382-.8-5.16-.99-2.445-5.05 5.335-24.08 7.614-30.98l-11.367-1.02c2.324-6.64 8.645-22.96 8.531-29.08l-1.6-1.52c-2.838-.22-3.01 0-5.438-1.35-2.112-5.86 3.195-18.36 5.399-24.87-13.332-.43-27.866-.23-41.291-.28z"/><path fill="#141313" d="M72.997 1146.12c29.97-18.25 52.931-28.03 88.579-19.64 15.752 4.69 28.802 9.53 41.09 20.95-10.175 8.85-27.876 16.05-40.815 19.73-34.851 8.1-60.734-.67-88.854-21.04"/><path fill="#ce8943" d="M68.407 1146.4c21.294-17.07 51.096-28.61 78.588-26.09 5.993.55 11.6 2.2 17.456 3.1l-2.875 3.07c-35.648-8.39-58.609 1.39-88.58 19.64 28.121 20.37 54.004 29.14 88.855 21.04l1.243 2.8c-17.581 2.36-24.261 5.06-43.101 1.34-21.214-4.2-34.595-12.26-51.586-24.9"/><path fill="#141313" d="M76.432 1043.59c58.876 52.81 115.149 3.43 165.933 41.07 22.93 25.99 20.489 47.6 20.345 80.5-.079 18.04-.58 37.05-.362 55.02l.55 61.94c-11.621.05-24.361.36-35.898.09.199-27.34 3.464-129.87-3.269-149.61-9.23-27.06-35.876-39.28-62.639-41.48-18.268-1.5-38.676 1.19-55.456-7.62-16.284-8.56-23.743-23.21-29.204-39.91m116.54 223.29c7.027.46 15.787 3.19 15.152 14.33-.049.86-7.97.23-8.875.2-5.073-.05-9.899.11-14.962.22 1.398-8.32 1.532-10.21 8.685-14.75"/><path fill="#141313" d="m242.365 1084.66 4.676-1.12 2.855.03c14.593-1.48 44.767-.49 60.585-.49l126.35-.13a7705 7705 0 0 0-.238 85.87c-.002 11.87-.674 36.36.475 47.45l-.476 2.89c-5.218 2.09-35.874.83-43.979 1.07 2.583 7.71 8.214 18.74 5.203 25.17-3.415 1.83-3.502 1.11-8.03.99 3.521 9.89 6.986 19.8 10.395 29.72l-12.995 1.49c1.093 3.82 10.464 29.53 10.034 30.44-3.326.8-5.057 1.13-8.443 1.59 3.642 11.28 6.204 17.95 10.778 28.98l-12.217 1.37 10.368 27.67-16.697.19-.97 10.94-19.154.15-.135 18.29-13.863.14-.026 14.42-21.804.25-.002 20.73-12.358.71c-3.891 3.83-.698 13.67-2.895 20.25-35.386 1.23-87.276.75-122.682-.67l.195-1.3c-.302-5.72-.192-12.65-.253-18.47-8.079-.2-14.85 1.61-22.118-.86-2.54-2.76-1.703-2.43-2.066-7.22-1.509-3.12-6.392-10.27-9.506-11.81-3.671-.16-7.661.19-10.469-1.9-.929-3.77-.793-1.8.632-6.18 2.388.72 2.33.59 4.85.37 3.505-3.31 2.569-3.07 4.248-8.36-.203-34.87 22.2-63.32 56.119-71.58 8.073-1.97 15.161-1.96 23.467-2.17.013-7.01 1.24-33.12-1.434-38.31l-3.747-1.14-.038-1.91c11.537.27 24.277-.04 35.898-.09l-.55-61.94c-.218-17.97.283-36.98.362-55.02.144-32.9 2.585-54.51-20.345-80.5"/><path fill="#ce8943" d="M262.348 1220.18c5.906-12.6-1.113-63.55 3.427-69.85 1.393 17.07.299 50.01.249 68.63 36.91-.51 49.454.06 47.274 42.05-.371 7.14-.082 16.63-.135 24l-17.057.01-.003 38.58c30.367 6.48 36.12 22.32 35.825 51.37l-69.949-.06-.917 2.51a65.13 65.13 0 0 1 40.348 30.08c2.991 5.06 4.936 10.15 6.902 15.67 1.525 4.28.798 7.8 4.385 10.3-3.891 3.83-.698 13.67-2.895 20.25-35.386 1.23-87.276.75-122.682-.67l.195-1.3c-.302-5.72-.192-12.65-.253-18.47-8.079-.2-14.85 1.61-22.118-.86-2.54-2.76-1.703-2.43-2.066-7.22-1.509-3.12-6.392-10.27-9.506-11.81-3.671-.16-7.661.19-10.469-1.9-.929-3.77-.793-1.8.632-6.18 2.388.72 2.33.59 4.85.37 3.505-3.31 2.569-3.07 4.248-8.36-.203-34.87 22.2-63.32 56.119-71.58 8.073-1.97 15.161-1.96 23.467-2.17.013-7.01 1.24-33.12-1.434-38.31l-3.747-1.14-.038-1.91c11.537.27 24.277-.04 35.898-.09z"/><path fill="#141313" d="M154.737 1394.92c.741-13.91 6.45-29.99 15.096-41.07a70.84 70.84 0 0 1 46.877-26.5c16.617-1.97 34.279-.59 50.879-.99 40.752-.96 56.866 1.44 60.95 45.19-31.958-.8-65.028-.46-97.076-.42-27.701-.54-49.575-3.08-71.038 17.79a122 122 0 0 0-5.688 6"/><path fill="#da8b3a" d="M154.737 1394.92a122 122 0 0 1 5.688-6c21.463-20.87 43.337-18.33 71.038-17.79 5.269 1.88 12.16 2.14 15.846 3.62-3.106.3-11.011.87-13.776 1.49.304 22.64-.464 52.87.722 74.76-5.294 2.51-39.899 1.67-46.94.75-.302-5.72-.192-12.65-.253-18.47-8.079-.2-14.85 1.61-22.118-.86-2.54-2.76-1.703-2.43-2.066-7.22-1.509-3.12-6.392-10.27-9.506-11.81-3.671-.16-7.661.19-10.469-1.9-.929-3.77-.793-1.8.632-6.18 2.388.72 2.33.59 4.85.37 3.505-3.31 2.569-3.07 4.248-8.36z"/><path fill="#efe0ca" d="M153.372 1413.39c11.681.16 9.84-1.64 9.506 11.81-1.509-3.12-6.392-10.27-9.506-11.81"/><path fill="#141313" d="M233.533 1376.24c5.869 1.03 11.944.92 17.962 1.92 25.047 4.17 45.734 21.58 53.427 45.85 2.954 9.32 2.223 16.97 1.782 26.62-19.402-.23-53.625-1.02-72.449.37-1.186-21.89-.418-52.12-.722-74.76"/><path fill="#442d1b" d="M261.062 1377.42c-.901-.23-6.89-1.64-7.267-2.08l.27-.27.841.61.347-.86c2.237-.1 4.488 0 6.726.09z"/><path fill="#141313" d="M266.01 1222.13c54.036-.14 43.966 8.93 44.125 59.97-14.69.25-29.381.3-44.072.17-.014-19.85-.399-40.37-.053-60.14m-30.889 62.88 57.858.02-.075 38.79q-28.784-.435-57.57-.18c-.196-12.88-.266-25.75-.213-38.63"/><path fill="#da8b3a" d="m242.365 1084.66 4.676-1.12c13.64 17.01 17.777 30.62 19.916 52.32 33.512-19.05 64.797-30.52 103.376-19.76a147.2 147.2 0 0 1 44.729 21.68c-41.438 32.61-80.313 39.06-127.777 16.41-4.769-2.28-16.803-10.65-19.882-10.91-2.166 2.2-1.41 2.95-1.628 7.05-4.54 6.3 2.479 57.25-3.427 69.85-.218-17.97.283-36.98.362-55.02.144-32.9 2.585-54.51-20.345-80.5M1603.9 968.905c129.84-.12 263.51 1.929 392.93-.033-.46 36.718.17 72.108.34 108.708l-3.62 2.25c-49.71.82-99.68-.28-149.42.18-15.19.14-30.7.14-45.88-.26l-1.53.93c31.66 27.75 25.33 69.27 25.36 107.82l.16 93.22c-9.07.02-27.17-.35-35.61.54l-.34 1.52c-12.7 1.12-49.6.21-63.91.2-.84-58.68 4.94-81.4 38.73-131.12-16.68 9.13-31.19 17.3-50.46 19.15l-1.47-2.54c22.52-3.14 34.94-10.69 53.21-22.88-1.2-3.26-1.59-5.12-4.42-7.07a97.6 97.6 0 0 0-55.53-41.21c-24.57-7.1-48.76-9.48-61.78-34.9-8.56-16.7-15.47-33.37-26.11-49.21-3.86-5.74-6.54-15.379-9.68-21.832l-.76-1.551c-.13-7.262-.34-14.663-.21-21.912"/><path fill="#141313" d="M1634.67 1043.28c57.81 50.12 113.42 8.16 162.05 37.4 31.66 27.75 25.33 69.27 25.36 107.82l.16 93.22c-9.07.02-27.17-.35-35.61.54-1.56-8.82.36-21.13-.32-29.56-2.12-26.59 6.16-105.77-4.6-126.28-37.75-72-114.13 6.48-147.04-83.14m175.17 16.39c55.76-.99 117.1 1.64 171.92-.58 3.6 6.58 7.73 14.61 11.79 20.74-49.71.82-99.68-.28-149.42.18-15.19.14-30.7.14-45.88-.26 3.78-6.72 7.51-13.54 11.59-20.08"/><path fill="#141313" d="m1796.28 972.86 131.63-.009c16.47-.003 52.99.971 67.24-.716-.1 33.405.77 69.995-.44 102.975-4.82-9.89-10.67-19.27-16.61-28.53-14.03-21.87-26.17-45.31-40.26-67.086-13.59 24.456-27.53 50.066-42.25 73.866-8.8-17.27-29.34-59.019-39.46-73.554a4357 4357 0 0 1-32.74 51.464c-6.89 10.51-16.88 24.54-23.06 35.04l-3.59 1.03c-.35-31.49-.51-62.99-.46-94.48"/><path fill="#141313" d="M1855.51 988.877c4.99 5.417 31.73 56.433 37.09 66.983-14.03.04-28.07.01-42.1-.09q-19.05-.315-38.1 0l.69-.97c14.27-19.85 27.87-43.77 41.38-64.303zm82.08.667c4.53 3.822 34.48 56.586 41.12 66.446l-35.46-.16-43.68-.06c10.71-21.38 26.26-44.02 38.02-66.226m-184.61 276.496c16.23.23 20.71 15.08 9.27 14.98-5.29-.01-19.98 2.97-16.58-5.58 2.47-6.18 1.24-5.27 7.31-9.4"/><path fill="#272116" d="m1796.74 1067.34 3.59-1.03c-.42.84-2.31 5.32-3.58 5.32-.96-.95-.25-3.12-.01-4.29"/><path fill="#141313" d="M1798.25 1079.75c15.18.4 30.69.4 45.88.26 49.74-.46 99.71.64 149.42-.18l3.62-2.25c-.02 16.95.76 45.91-.35 61.93l.18 80.4c-14.65-.16-31.07-.72-45.58-.41 2.37 8.03 8.26 19.74 5.98 25.99-2.38 1.93-4.29 1.78-7.37 2.12 1.55 9.45 5.39 19.83 8.39 29.05l-11.01 1.67.4 1.69c1.8 7.42 8.08 22.16 8.69 26.38-3.34 5.1-9.19.42-7.17 7.48 2.24 7.83 6.69 17.24 9.93 24.89l-12.41.77c3.28 10.07 6.87 18.81 10.19 28.46l-10.76-.27c-3.19-.1-3.39-.19-6.01 1.54-1.97 2.87-1.44 6.11-1.44 9.77-6.37.1-13.47.02-19.72.73l-.14 18.82-13.83.26-.11 13.68c-6.89.15-14.28.18-21.12.55l.14 19.74c-4.79.34-9.48.54-14.18 1.44-.38-1-.66-1.68-.79-2.75-2.95-23.94-21.91-44.31-44.25-52.17-1.86-.65-3.58-1.18-5.44-1.91l-4.97-.53c-1.45-.88-1.81-1.02-3.01-2.02l-1.99-1.19 1.42-2.47c-34.97-.32-71.38-6.88-96.05 22.41-1.52 2.38-1.58 2.16-2.52 4.73-1-16.91 5.65-37.49 17.04-50.05 18.3-20.19 36.8-23.33 62.15-24.92-.02-8.12 1.9-33.83-1.45-39.04l-3.72-.57.34-1.52c8.44-.89 26.54-.52 35.61-.54l-.16-93.22c-.03-38.55 6.3-80.07-25.36-107.82z"/><path fill="#ce8943" d="M1798.25 1079.75c15.18.4 30.69.4 45.88.26 49.74-.46 99.71.64 149.42-.18l3.62-2.25c-.02 16.95.76 45.91-.35 61.93-1.41-14.31-.59-41.4-.54-56.55l-191.58.15c14.02 14.22 19.24 30.74 19.37 50.42-.26 3.19-1 4.98.23 7.32 1.66 17.86.6 58.01.62 77.61 58.14-.05 47.19 15.79 47.16 65.81l-17.12-.15-.12 38.5c29.9 7.79 36.54 22.04 35.57 51.62-23.84.56-47.69.8-71.54.72l.52 2.47-4.97-.53c-1.45-.88-1.81-1.02-3.01-2.02l-1.99-1.19 1.42-2.47c-34.97-.32-71.38-6.88-96.05 22.41-1.52 2.38-1.58 2.16-2.52 4.73-1-16.91 5.65-37.49 17.04-50.05 18.3-20.19 36.8-23.33 62.15-24.92-.02-8.12 1.9-33.83-1.45-39.04l-3.72-.57.34-1.52c8.44-.89 26.54-.52 35.61-.54l-.16-93.22c-.03-38.55 6.3-80.07-25.36-107.82z"/><path fill="#141313" d="M1795.96 1326.02c16.68.56 39.82.22 56.58 0 26.93 4.84 34.28 19.5 34.3 45.27-24.82-.02-51.36-.57-76-.07-34.97-.32-71.38-6.88-96.05 22.41.31-14.31 8.9-35.54 19.15-45.9 19.2-19.42 36.85-20.91 62.02-21.71"/><path fill="#141313" d="M1794.11 1284.35c19.14.2 38.42-.17 57.54.13.17 9.81-.53 29.52.64 38.24l.25 3.3c-16.76.22-39.9.56-56.58 0-.28-.84-.44-1.41-.82-2.23-1.67-5.48-.94-32.07-1.03-39.44"/><path fill="#ce8943" d="m1852.29 1322.72.25 3.3c-16.76.22-39.9.56-56.58 0-.28-.84-.44-1.41-.82-2.23 9.87-2.03 44.16-.17 57.15-1.07"/><path fill="#442d1b" d="M1811.41 1374.88c2.51 0 4.95-.01 7.46.08l.52 2.47-4.97-.53c-1.45-.88-1.81-1.02-3.01-2.02"/><path fill="#141313" d="M1824.98 1221.9c54.57.04 43.78 10.04 44.08 60.01-12.24.62-31.28.15-43.95-.02z"/><path fill="#da8b3a" d="m1824.07 1133.53 1.37 3.03c3.67-1.08 10.77-5.36 14.33-7.48 40.65-24.17 95.69-22.25 133.44 9.43-43.76 40.06-102.72 36.02-148.91 2.34-1.23-2.34-.49-4.13-.23-7.32"/><path fill="#5f717a" d="m1604.11 990.817.76 1.551c3.14 6.453 5.82 16.092 9.68 21.832 10.64 15.84 17.55 32.51 26.11 49.21 13.02 25.42 37.21 27.8 61.78 34.9a97.6 97.6 0 0 1 55.53 41.21c2.83 1.95 3.22 3.81 4.42 7.07-18.27 12.19-30.69 19.74-53.21 22.88l1.47 2.54c19.27-1.85 33.78-10.02 50.46-19.15-33.79 49.72-39.57 72.44-38.73 131.12 14.31.01 51.21.92 63.91-.2l3.72.57c3.35 5.21 1.43 30.92 1.45 39.04-25.35 1.59-43.85 4.73-62.15 24.92-11.39 12.56-18.04 33.14-17.04 50.05-2.71 8.07-4.37 10.81-13.18 11.82.19-3 .68-4.66-1-7.08-3.68-1.95-11.5-1.78-16.19-2.32l-.08-22.83c-7.06.3-16.98 1.84-22.29-2.39-.67-2.85-.58-2.76-2.11-5.22-3.21-1.93-7.88-1.33-11.81-1.29 1.46-6.06 8.34-24.73 6.52-28.25-2.72-.16-4.48.01-6.82-1.37-.86-6.26 8.24-18.94 6.47-28.48-1.74-1.67-2.56-1.81-4.86-2.45-1.58-4.5 5.69-23.25 7.47-30.3l-10.92-1.45c2.12-7.42 6.81-21.49 7.43-28.37-2.22-3.34-3.1.37-8.27-2.56.2-4.12 4.97-20.37 6.27-26.2-14.78-.18-30 .04-44.82.07-.15-75.39-.95-153.79.03-228.873"/><path fill="#141313" d="M1632.49 1146.4c38.31-23.39 70.04-31.57 111.79-10.01 6.2 3.2 12.01 7.01 18.11 10.2-18.27 12.19-30.69 19.74-53.21 22.88-31.38 3.68-52.07-4.58-76.69-23.07"/><path fill="#ce8943" d="M1627.08 1146.18c47.24-32.77 81.28-32.37 130.89-6.66 2.83 1.95 3.22 3.81 4.42 7.07-6.1-3.19-11.91-7-18.11-10.2-41.75-21.56-73.48-13.38-111.79 10.01 24.62 18.49 45.31 26.75 76.69 23.07l1.47 2.54c-2.69.55-5.41.95-8.14 1.17-28.21 2.26-54.24-9.01-75.43-27M244.21 969.035c28.845-.073 74.18-1.559 101.715.085 8.11.998 14.714.557 22.688 2.904 5.352.598 21.792.337 27.922.295q19.638.025 39.275-.248c.394 3.296.092 8.653 1.125 10.722a6004 6004 0 0 1 .851 170.337c0 8.89.711 56.61-.718 63.14-1.149-11.09-.477-35.58-.475-47.45-.08-28.63-.001-57.25.238-85.87l-126.35.13c-15.818 0-45.992-.99-60.585.49l-.776-3.35c-3.966-.28-4.705.32-7.522-1.56l.484-2.6c-2.137-1.56-2.185-1.36-3.025-3.83l-.216-100.651z"/><path fill="#141313" d="M244.21 969.035c28.845-.073 74.18-1.559 101.715.085 8.11.998 14.714.557 22.688 2.904 5.352.598 21.792.337 27.922.295q19.638.025 39.275-.248c-1.942 23.383 1.531 58.759-.651 79.419-.886 7.59 1.023 15.26-2.615 18.53-13.159-22.22-26.797-44.08-39.436-66.62-4.327-7.712-9.34-16.152-14.678-23.112-14.448 24.162-26.628 46.782-39.87 71.602-13.201-23.95-28.513-48.67-40.599-72.922-20.677 29.032-39.21 63.142-58.904 93.262l-.216-100.651z"/><path fill="#ce8943" d="M244.21 969.035c28.845-.073 74.18-1.559 101.715.085 8.11.998 14.714.557 22.688 2.904-20.057 1.023-47.228.114-67.975.149-17.395.029-45.764.763-61.797-.594z"/><path fill="#141313" d="M421.084 1059.01c1.926 5.04 8.748 15.75 11.744 20.87l-122.412.04c-16.642 0-46.115-.99-61.296.3-3.966-.28-4.705.32-7.522-1.56l.484-2.6c2.361-2.97 7.4-12.35 9.547-16.15 55.239-.46 114.765.55 169.455-.9"/><path fill="#272116" d="M435.159 1051.49c.335 2.8 1.401 22.16.079 23.21-1.398-.34-2.283-3.4-2.694-4.68 3.638-3.27 1.729-10.94 2.615-18.53"/><path fill="#141313" d="M297.319 987.667c3.18 3.465 11.897 21.473 14.883 26.743 7.696 13.57 15.228 27.66 22.778 41.33q-21.615.165-43.23.09c-11.493-.04-25.641.64-36.802-.47l27.8-44.67c4.586-7.34 9.423-16.167 14.571-23.023m81.732 1.181c11.45 18.852 27.705 49.812 39.749 66.542-7.044.51-73.854.79-76.598-.77 7.453-16.58 27.255-50.12 36.849-65.772M1319.02 157.03c-21.33-17.923-27.06-48.41-13.67-72.849 13.38-24.438 42.15-36.037 68.74-27.715s43.62 34.253 40.68 61.961-25.02 49.494-52.76 52.057c-.94 3.215-1.65 6.672-2.51 9.953l-.86-.115c-9.02-1.144-32.97-9.395-42.15-12.401.63-2.658 1.28-5.297 1.86-7.967z"/><path fill="#5f717a" d="M1319.02 157.03a58.48 58.48 0 0 0 42.99 13.454c-.94 3.215-1.65 6.672-2.51 9.953l-.86-.115c-9.02-1.144-32.97-9.395-42.15-12.401.63-2.658 1.28-5.297 1.86-7.967z"/><path fill="#da8b3a" d="M1714.79 1393.63c24.67-29.29 61.08-22.73 96.05-22.41l-1.42 2.47 1.99 1.19c1.2 1 1.56 1.14 3.01 2.02l4.97.53c1.86.73 3.58 1.26 5.44 1.91 22.34 7.86 41.3 28.23 44.25 52.17.13 1.07.41 1.75.79 2.75.27 6.21-.41 11.14.43 17.48l-1.33 2.35c-15.19-.08-71.06.91-82.48-1.39-7.22-1.07-32.46-.48-40.49-.43l-.16-20.14-24.61-.1-1.33-17.86c-4.66-.28-9.32-.62-13.97-1.02-3.82-.36-4.74-.44-6.84-2.97 8.81-1.01 10.47-3.75 13.18-11.82.94-2.57 1-2.35 2.52-4.73"/><path fill="#141313" d="m1814.42 1376.9 4.97.53c1.86.73 3.58 1.26 5.44 1.91 22.34 7.86 41.3 28.23 44.25 52.17.13 1.07.41 1.75.79 2.75.27 6.21-.41 11.14.43 17.48-10.51-.67-25.57-.22-36.05.42-3.22.2-19.03 1.38-21.82-1.11-6.57-.3-12.85-.21-19.41-.2-.05-24.08-.24-48.77.1-72.81 8.13.07 11.74.33 19.8 1.33z"/><path fill="#ce8943" d="m1814.42 1376.9 4.97.53c1.86.73 3.58 1.26 5.44 1.91 22.34 7.86 41.3 28.23 44.25 52.17.13 1.07.41 1.75.79 2.75.27 6.21-.41 11.14.43 17.48-10.51-.67-25.57-.22-36.05.42-3.22.2-19.03 1.38-21.82-1.11 8.11-.94 44.63-.08 54.13-.01-.26-38.35-14.89-62.23-53.64-71.67z"/><path fill="#75838b" d="M613.03 550.628c10.428-30.026 43.074-81.231 62.64-106.456 64.207-82.78 169.05-143.986 273.673-156.228-1.826 4.909-3.685 12.592-4.689 17.837-7.499-3.363-39.323 7.726-48.054 10.477-103.553 32.63-183.469 92.477-239.641 185.819-9.681 16.087-17.402 31.584-25.993 48.517z"/><path fill="#75838b" d="M942.602 319.097c.115 6.233 1.24 10.128.985 16.746a481.4 481.4 0 0 0-66.167 19.08 375.54 375.54 0 0 0-211.729 195.678l-21.185-.134c48.549-98.527 117.94-170.157 221.888-209.966a451 451 0 0 1 48.968-15.215c7.806-1.891 20.286-3.434 27.24-6.189"/><path fill="#75838b" d="M679.858 550.766c10.303-24.253 26.445-49.034 42.835-69.792a357.45 357.45 0 0 1 175.525-120.191c15.096-4.692 33.165-9.44 48.743-11.286l5.494 15.62a413 413 0 0 0-56.603 14.415c-83.513 27.324-155.906 93.27-195.444 171.255z"/><path fill="#75838b" d="M959.939 376.973c2.026 3.94 5.118 10.571 7.791 13.779a925 925 0 0 0-20.77 4.309c-73.369 16.368-132.709 51.384-181.548 109.456-11.226 13.348-22.264 31.415-31.656 46.182q-9.585-.026-19.17-.17c2.906-7.09 7.832-15.441 11.907-21.951a326.06 326.06 0 0 1 168.271-135.006c26.037-8.985 39.856-10.712 65.175-16.599m147.581-61.06c45.59 9.907 103.83 27.324 143.13 53.338l-5.89 18.608-4.3 11.96a372.5 372.5 0 0 0-94.45-43.359c-13.73-3.954-28.08-6.679-41.98-10.438 1.24-3.793 2.34-8.216 3.41-12.109-.39-6.041-.1-11.952.08-18"/><path fill="#fbfbfa" d="M1107.44 333.913c31.29 6.378 62.77 15.928 91.8 29.329 8.69 4.013 40.95 18.313 45.52 24.617l-4.3 11.96a372.5 372.5 0 0 0-94.45-43.359c-13.73-3.954-28.08-6.679-41.98-10.438 1.24-3.793 2.34-8.216 3.41-12.109"/><path fill="#75838b" d="M1101.38 287.548c55.06 5.564 110.44 26.732 157.99 54.393l-4.66 15.011-4.06 12.299c-39.3-26.014-97.54-43.431-143.13-53.338-.35-3.928-1.37-8.13-2.19-12.02-.1-3.77-2.82-12.324-3.95-16.345"/><path fill="#fbfbfa" d="M1105.33 303.893c4.12-1.363 17.24 2.059 21.85 3.184 43.19 10.516 89.19 27.262 127.53 49.875l-4.06 12.299c-39.3-26.014-97.54-43.431-143.13-53.338-.35-3.928-1.37-8.13-2.19-12.02"/><path fill="#75838b" d="M973.848 402.034c1.841 5.047 3.188 9.052 4.72 14.227-15.443 1.792-41.753 8.168-56.264 13.008a293.1 293.1 0 0 0-132.288 88.778c-8.657 10.135-17.432 20.917-23.376 32.856l-19.464.042q.601-1.1 1.227-2.184c34.241-59.269 100.633-111.959 165.405-131.737 22.727-6.94 38.935-9.207 60.04-14.99m316.872-17.992c2.05-5.37 3.89-10.819 5.5-16.336 64.08 54.117 108.01 104.811 141.85 183.234l-18.44.052c-11.4-39.062-59.12-100.218-87.44-128.973-11.48-11.645-28.94-27.009-41.47-37.977"/><path fill="#75838b" d="M1286.75 395.684c51.91 49.238 89.22 87.821 118.95 155.366l-19.35-.107c-27.4-51.98-60.45-97.709-105.68-135.89zm-9.94 31.203c38.28 38.759 71.03 72.586 94.32 123.218-6.56.124-13.54.376-20.06.32-19.19-31.43-51.56-79.985-81.02-102.506 2.9-7.652 4.57-13.115 6.76-21.032m-11.1 31.493 2.11 2.635c3.77 4.665 9.3 9.555 13.47 14.004 20.47 21.846 41.18 48.168 54.42 75.04-6.9.05-13.79.01-20.69-.121l-1.13-1.69-1.07-1.638c-15.52-23.468-32.04-49.656-53.99-67.759 1.73-5.943 4.18-12.826 6.26-18.689zm-10.45 30.882c3.2 4.587 9.19 10.247 12.92 14.61 12.4 14.509 23.11 29.065 31.91 46.06-6.1.01-12.19-.019-18.29-.085l-.99-1.601c-7.88-12.909-19.8-31.43-30.99-41.579.9-5.271 3.57-12.295 5.44-17.405"/><path fill="#ce8943" d="M345.925 969.12c17.776-.623 37.428-.105 55.386-.161l-4.776 3.36c-6.13.042-22.57.303-27.922-.295-7.974-2.347-14.578-1.906-22.688-2.904"/><path fill="#ce8943" d="m401.311 968.959 35.524-.077c.071 4.484.474 9.569.1 13.911-1.033-2.069-.731-7.426-1.125-10.722q-19.637.273-39.275.248z"/><metadata><recraft-signature>{&quot;signed_by&quot;: &quot;recraft&quot;, &quot;signature_b64&quot;: &quot;mdwSjIXraNnlJyMvV840ZwotNa0KS/lb7/IgqQ3saJvPoOdKEuWOFciB7XKdS3e2hSyjInwt78p6IjTei6S8CQ==&quot;, &quot;signing_algo&quot;: &quot;Ed25519&quot;, &quot;generation_timestamp&quot;: 1777253626, &quot;identifier&quot;: &quot;2fbb1b63-8f73-4686-8cab-e3bb3acff675&quot;}</recraft-signature></metadata></svg>