<svg xmlns="http://www.w3.org/2000/svg" width="1024" height="1024" preserveAspectRatio="none" style="display:block" viewBox="0 0 2048 2048"><defs><linearGradient id="b" x1="910.674" x2="901.317" y1="1244.9" y2="1260.44" gradientUnits="userSpaceOnUse"><stop class="stop0" offset="0" stop-color="#59656a"/><stop class="stop1" offset="1" stop-color="#73777d"/></linearGradient><linearGradient id="a" x1="917.272" x2="917.598" y1="856.71" y2="851.405" gradientUnits="userSpaceOnUse"><stop class="stop0" offset="0" stop-color="#e8d9c9"/><stop class="stop1" offset="1" stop-color="#fff"/></linearGradient></defs><path fill="#5b6369" d="M755.974 1182.57c-98.297-146.21-69.406-343.83 68.74-453.551a324.06 324.06 0 0 1 238.836-66.941c84.15 10.198 160.56 56.227 212.42 122.707a341.94 341.94 0 0 1 70.76 183.12c1.15 14.688 1.8 29.937.01 44.545l.39 2.5c-1.73 17.45-3.06 32.34-6.66 49.52a331.34 331.34 0 0 1-111.4 186.54c-.19 27.07-.23 54.14-.1 81.21l28.3.01.16 24.36 23.72.26c.01 8.27-.22 17.65.05 25.83l-.33.78c9.17.1 21.67-.25 30.48.72-12.2 1.36-39.99.67-53.45.67h-98.45l-334.624-.1-177.282.1c-9.48 0-64.646.71-71.216-.88l.921-1.42c5.978-.98 39.6-.83 47.119-.6 12.996.41 43.87-1.01 55.459.73.709-19.08.082-41.72.026-61.08l.117-101.34a744 744 0 0 0-36.585.09l-.073-37.33c6.454.05 14.603.37 20.841-.53l1.726.01c5.554.8 23.357.42 29.828.4z"/><path fill="#4c5054" d="m576.328 1383.97.921-1.42c5.978-.98 39.6-.83 47.119-.6 12.996.41 43.87-1.01 55.459.73l.31.8c-28.646-.1-57.406.91-86.088.21-5.577-.13-12.199-.15-17.721.28"/><path fill="#fdfdfc" d="M907.454 717.873c5.193-2.727 10.787-4.945 16.269-7.015 84.877-32.048 193.747-19.93 266.577 35.262 1.31.839 3.15 1.754 3.93 2.92 39.08 28.201 66.84 63.777 89.58 105.843l1.2 1.56c2.21 7.306 3.06 12.451 3.63 20.106l2.96 1.621-1.62-7.009c5.75 3.599 15.1 39.2 16.97 46.848 7.84 32.185 8.14 61.365 8.03 94.161.02 2.06.38 2.23-.39 3.6-2.63 23.51-6.1 59.65-17.53 80.97l-.65 3.19c-7.48 26.07-27.38 61.08-45.07 82.78-.59.73-5.53.67-6.31.7-.56-2.05-.73-1.71-2.25-3.55l-1.29 1.1c-3.36 2.98-41.91 2.1-48.3 1.4-9.65 1.32-148.56 1.32-153.91-.17l-1.03-.29-2.24.72q-12.15.315-24.3.15l-2.4-.06c-25.774.07-64.573 1.31-89.598-.3l-2.261.53c-5.249-.7-28.595-.51-34.72-.38-19.03.4-41.698-.73-60.41.54l-1.458-.51c-4.464.31-9.735.82-13.873-.66-1.961.28-4.383.41-6.062 1.22-2.609-.07-2.259-.08-4.821-.63-19.712-18.06-43.693-72.33-51.126-98.3l-1.734-3.03c-1.728-6.89-3.562-13.75-5.048-20.7l-.979-4.51c-1.634-7.72-8.119-35.72-3.401-40.9l.018-.88c-7.003-2.77-2.409-42.224-1.95-49.704.745-12.157 3.86-24.646 6.276-36.485 1.847-9.049 3.185-6.94 6.2-13.636-1.537.122-2.664 1.408-3.348 1.162l-.127-.295c.2-1.17.215-.963.864-2.197.676-3.731 2.276-9.374 3.537-13.02 31.386-90.699 78.152-139.608 161.341-182.366z"/><path fill="#fdfdfc" d="M752.71 907.164c20.188-32.98 75.003-58.6 112.554-60.886 10.547-.642 31.862-1.036 41.493 3.455 1.654-.243 1.724-.292 3.099-.362 6.234 1.724 13.616 3.992 19.628 5.546l1.599 2.153c17.096.223 51.75 28.198 61.147 42.11l1.746 1.141c4.036 6.063 5.971 10.778 9.174 17.129a76.7 76.7 0 0 0-37.498 23.807 76.693 76.693 0 0 0 41.488 124.943c-1.26 3.82-4.07 14.8-5.51 17.44l-.39 1.96c-5.007 38.93-4.351 59.26 8.07 97.11-25.774.07-64.573 1.31-89.598-.3l-2.261.53c-5.249-.7-28.595-.51-34.72-.38-19.03.4-41.698-.73-60.41.54l-1.458-.51c-4.464.31-9.735.82-13.873-.66-1.961.28-4.383.41-6.062 1.22-2.609-.07-2.259-.08-4.821-.63-19.712-18.06-43.693-72.33-51.126-98.3l-1.734-3.03c-1.728-6.89-3.562-13.75-5.048-20.7l-.979-4.51c-1.634-7.72-8.119-35.72-3.401-40.9l.018-.88c-7.003-2.77-2.409-42.224-1.95-49.704.745-12.157 3.86-24.646 6.276-36.485 1.847-9.049 3.185-6.94 6.2-13.636-1.537.122-2.664 1.408-3.348 1.162l-.127-.295c.2-1.17.215-.963.864-2.197.77-.32 2.827-1.584 3.163-1.647 3.198-3.452 4.622-6.994 5.502-11.503l2.522 1.03z"/><path fill="#fdfdfc" d="M929.533 998.124c5.471-1.229 12.186-2.673 17.569-4.082q.05 1.423.153 2.843a76.8 76.8 0 0 0 3.562 18.165 76.7 76.7 0 0 0 13.555 24.82q1.242 1.515 2.561 2.97a76.7 76.7 0 0 0 40.207 23.36c-1.26 3.82-4.07 14.8-5.51 17.44l-.39 1.96c-5.007 38.93-4.351 59.26 8.07 97.11-25.774.07-64.573 1.31-89.598-.3l-2.261.53c-5.249-.7-28.595-.51-34.72-.38-19.03.4-41.698-.73-60.41.54l-1.458-.51c-8.727-69.41 13.091-123.95 69.122-166.28l3.003-2.13c13.404-5.64 18.501-10.17 34.721-15.582z"/><path fill="#fdfdfc" d="M954.619 1054.84c4.604-3.47 8.093-7.91 12.314-12a76.7 76.7 0 0 0 40.207 23.36c-1.26 3.82-4.07 14.8-5.51 17.44l-.39 1.96c-5.007 38.93-4.351 59.26 8.07 97.11-25.774.07-64.573 1.31-89.598-.3a246 246 0 0 1-.891-7.11c-4.708-43.38 6.945-85.22 34.418-119.15.46-.43.92-.87 1.38-1.31"/><path fill="#fdfdfc" d="M954.619 1054.84c4.604-3.47 8.093-7.91 12.314-12a76.7 76.7 0 0 0 40.207 23.36c-1.26 3.82-4.07 14.8-5.51 17.44-16.903-4.65-35.773-15.16-47.011-28.8"/><path fill="#d9bda0" d="M954.619 1054.84c11.238 13.64 30.108 24.15 47.011 28.8l-.39 1.96c-16.102-2.51-37.349-17.36-48.001-29.45.46-.43.92-.87 1.38-1.31m-24.936-54.35c3.563-.42 13.92-2.652 17.572-3.605a76.8 76.8 0 0 0 3.562 18.165 76.7 76.7 0 0 0 13.555 24.82c-3.473 4.65-7.714 9.34-11.632 13.69l-1.29 1.14-.569-.63c-9.326-10.17-15.045-23.45-19.689-36.26l-.676-1.82c-9.941-.53-23.194.19-32.324-.85.826-.61 1.526-1.16 2.412-1.69 8.692-5.48 16.708-8.84 26.291-12.44 1.177-.3 1.542-.35 2.788-.52"/><path fill="#fdfdfc" d="M950.817 1015.05a76.7 76.7 0 0 0 13.555 24.82c-3.473 4.65-7.714 9.34-11.632 13.69-10.851-13.32-14.219-22.22-20.181-37.74 6.532-.38 11.677-.68 18.258-.77m-21.134-14.56c3.563-.42 13.92-2.652 17.572-3.605a77 77 0 0 0 2.188 13.435c-1.837 3.54-12.681 2.98-17.813 3.77-.942-4.94-1.579-8.6-1.947-13.6m-2.788.52c2.363 4.5 2.293 7.98 2.895 12.99-6.297-.09-23.561-.06-29.186-.55 8.692-5.48 16.708-8.84 26.291-12.44"/><path fill="#b87c48" d="M929.533 998.124c5.471-1.229 12.186-2.673 17.569-4.082q.05 1.423.153 2.843c-3.652.953-14.009 3.185-17.572 3.605-1.246.17-1.611.22-2.788.52-9.583 3.6-17.599 6.96-26.291 12.44-.886.53-1.586 1.08-2.412 1.69-15.009 6.57-31.255 22.87-41.315 35.52-23.541 29.59-36.634 67.72-34.953 105.61.334 7.51 1.353 19.87.397 26.83l-1.458-.51c-8.727-69.41 13.091-123.95 69.122-166.28l3.003-2.13c13.404-5.64 18.501-10.17 34.721-15.582zm34.839 41.746q1.242 1.515 2.561 2.97c-4.221 4.09-7.71 8.53-12.314 12-.46.44-.92.88-1.38 1.31-27.473 33.93-39.126 75.77-34.418 119.15q.393 3.555.891 7.11l-2.261.53c-7.669-36.69 5.859-102.23 33.999-128.24l1.29-1.14c3.918-4.35 8.159-9.04 11.632-13.69"/><path fill="#fdfdfc" d="M764.245 1015.31c27.175-.39 54.352-.5 81.528-.32 10.312.02 35.599-.54 44.212 1.32-56.031 42.33-77.849 96.87-69.122 166.28-4.464.31-9.735.82-13.873-.66-1.961.28-4.383.41-6.062 1.22-2.609-.07-2.259-.08-4.821-.63-19.712-18.06-43.693-72.33-51.126-98.3l-1.734-3.03c3.042-12.23 1.317-12.71-.872-24.16.711-.33 1.421-.65 2.132-.97l.842-4.55.916 1.97c-.396 4.85-.803 6.2 1.362 10.5 3.494-18.15 8.651-32.11 16.618-48.67"/><path fill="#5b6369" d="m745.349 1051.51.916 1.97c-.396 4.85-.803 6.2 1.362 10.5 1.485 2.52 3.378 10.19 4.369 13.61 11.795 40.76 29.19 70.98 54.994 104.34-1.961.28-4.383.41-6.062 1.22-2.609-.07-2.259-.08-4.821-.63-19.712-18.06-43.693-72.33-51.126-98.3l-1.734-3.03c3.042-12.23 1.317-12.71-.872-24.16.711-.33 1.421-.65 2.132-.97z"/><path fill="#fdfdfc" d="m744.981 1084.22 2.074-5.43c1.841 1.25 8.771 22.29 10.233 26.17 5.631 14.95 12.707 28.51 19.93 42.43 3.681 7.09 22.762 32.16 23.71 35.76-2.609-.07-2.259-.08-4.821-.63-19.712-18.06-43.693-72.33-51.126-98.3m21.184-72.17c14.159-28.007 42.133-54.433 69.823-68.885a147.3 147.3 0 0 1 111.129-9.981c.556.426 1.672.78 2.227 1 3.52.702 13.06 5.24 16.308 7.073a76.7 76.7 0 0 0-18.55 52.785c-5.383 1.409-12.098 2.853-17.569 4.082l-1.824.474c-16.22 5.412-21.317 9.942-34.721 15.582l-3.003 2.13c-8.613-1.86-33.9-1.3-44.212-1.32-27.176-.18-54.353-.07-81.528.32z"/><path fill="#fdfdfc" d="M949.344 934.184c3.52.702 13.06 5.24 16.308 7.073a76.7 76.7 0 0 0-18.55 52.785c-5.383 1.409-12.098 2.853-17.569 4.082.298-25.296 4.301-41.301 18.955-62.287z"/><path fill="#d9bda0" d="m764.245 1015.31 1.92-3.26c5.257 1.48 33.416.57 40.635.66 28.815.35 57.344-.65 86.188 1.47l-3.003 2.13c-8.613-1.86-33.9-1.3-44.212-1.32-27.176-.18-54.353-.07-81.528.32m182.872-82.126c.556.426 1.672.78 2.227 1l-.856 1.653c-14.654 20.986-18.657 36.991-18.955 62.287l-1.824.474c-.894-16.574 2.366-34.078 10.201-48.84 2.582-4.865 7.576-11.848 9.207-16.574"/><path fill="#5b6369" d="m750.417 899.895 2.522 1.03-.229 6.239c-13.375 47.423-12.777 57.847-12.175 106.016l.381 2.27c.744 12.55 2.781 23.8 4.433 36.06l-.842 4.55c-.711.32-1.421.64-2.132.97 2.189 11.45 3.914 11.93.872 24.16-1.728-6.89-3.562-13.75-5.048-20.7l-.979-4.51c-1.634-7.72-8.119-35.72-3.401-40.9l.018-.88c-7.003-2.77-2.409-42.224-1.95-49.704.745-12.157 3.86-24.646 6.276-36.485 1.847-9.049 3.185-6.94 6.2-13.636-1.537.122-2.664 1.408-3.348 1.162l-.127-.295c.2-1.17.215-.963.864-2.197.77-.32 2.827-1.584 3.163-1.647 3.198-3.452 4.622-6.994 5.502-11.503"/><path fill="#fdfdfc" d="m744.363 914.375 2.025.924c-8.679 31.129-13.285 63.865-10.769 96.211.101 1.3-.955 1.97-1.782 2.69-7.003-2.77-2.409-42.224-1.95-49.704.745-12.157 3.86-24.646 6.276-36.485 1.847-9.049 3.185-6.94 6.2-13.636m-10.544 100.705c2.646 2.77 2.619 3.84 3 7.91 1.039 11.12 2.519 23.29 5.556 34.04 2.189 11.45 3.914 11.93.872 24.16-1.728-6.89-3.562-13.75-5.048-20.7l-.979-4.51c-1.634-7.72-8.119-35.72-3.401-40.9"/><path fill="#adaaaa" d="M741.752 913.045c.77-.32 2.827-1.584 3.163-1.647 2.219 1.94 3.632.213 1.473 3.901l-2.025-.924c-1.537.122-2.664 1.408-3.348 1.162l-.127-.295c.2-1.17.215-.963.864-2.197"/><path fill="#b87c48" d="M762.178 1013.03c32.002-56.936 90.094-93.794 156.632-88.662 10.761.83 20.283 4.481 30.51 6.478q.871.322 1.735.663c5.136 2.199 11.955 4.637 16.741 7.363a77 77 0 0 0-2.144 2.385c-3.248-1.833-12.788-6.371-16.308-7.073-.555-.22-1.671-.574-2.227-1a147.3 147.3 0 0 0-111.129 9.981c-27.69 14.452-55.664 40.878-69.823 68.885l-1.92 3.26c-7.967 16.56-13.124 30.52-16.618 48.67-2.165-4.3-1.758-5.65-1.362-10.5l-.916-1.97c-1.652-12.26-3.689-23.51-4.433-36.06 4.698-.22 15.904-.96 19.775.42.729-1.17.869-1.52 1.487-2.84"/><path fill="#fdfdfc" d="M740.916 1015.45c4.698-.22 15.904-.96 19.775.42a233 233 0 0 0-9.321 22.35c-1.688 4.85-2.97 11.01-5.105 15.26l-.916-1.97c-1.652-12.26-3.689-23.51-4.433-36.06m253.06-115.129c4.036 6.063 5.971 10.778 9.174 17.129a76.7 76.7 0 0 0-35.354 21.422c-4.786-2.726-11.605-5.164-16.741-7.363l.637-.862c12.344-16.99 24.56-21.753 42.284-30.326"/><path fill="#d9bda0" d="M949.32 930.846c10.676-16.702 25.347-24.059 42.91-31.666l1.746 1.141c-17.724 8.573-29.94 13.336-42.284 30.326l-.637.862a89 89 0 0 0-1.735-.663"/><path fill="url(#a)" d="M909.856 849.371c6.234 1.724 13.616 3.992 19.628 5.546-3.318.817-4.171.731-6.689 2.884l-.607-.11c-5.581-5.433-17.206 4.046-12.332-8.32"/><path fill="#d9bda0" d="M906.757 849.733c1.654-.243 1.724-.292 3.099-.362-4.874 12.366 6.751 2.887 12.332 8.32-11.213.25-17.583 4.019-15.431-7.958M740.535 1013.18c7.158-.31 14.446-.08 21.643-.15-.618 1.32-.758 1.67-1.487 2.84-3.871-1.38-15.077-.64-19.775-.42zm188.949-158.263 1.599 2.153c-3.697 1.056-4.307.828-8.288.731 2.518-2.153 3.371-2.067 6.689-2.884"/><path fill="#fdfdfc" d="M1231.76 1020.01c26.97.66 47.41.02 74.15-3.91-2.29 24.36-5.84 42.21-12.85 65.66-1.56 5.23-7.31 21.5-8.1 25.12-.8 1.56-1.3 3.05-2.5 4.13l-.34.75a335 335 0 0 1-25.03 46.81c-2.4 3.8-13.5 19.06-14.31 21.29l-1.29 1.1c-3.36 2.98-41.91 2.1-48.3 1.4-9.65 1.32-148.56 1.32-153.91-.17l-1.03-.29-2.24.72q-12.15.315-24.3.15l-2.4-.06c-12.421-37.85-13.077-58.18-8.07-97.11l.39-1.96c1.44-2.64 4.25-13.62 5.51-17.44.94.21 1.88.4 2.83.57 8.55 1.56 17.3 1.66 25.88.29.99-.16 1.96-.34 2.94-.53.55 3.08 7.52 15.3 9.53 18.22l.47.44c31.25-13.13 27.64-11.02 50.77-35.13 31.32 7 60.36 4.43 90.45-5.76l3.15-1.17c15.87-5.79 25.3-12.89 38.6-23.12"/><path fill="#fdfdfc" d="M1231.76 1020.01c26.97.66 47.41.02 74.15-3.91-2.29 24.36-5.84 42.21-12.85 65.66-1.56 5.23-7.31 21.5-8.1 25.12-7.07 2.95-15.69 11.28-22.56 15.75-18.67 12.14-46.93 23.38-69.29 24.36l-3.81.91c.94-1.62 2.3-95.18.71-103.6l3.15-1.17c15.87-5.79 25.3-12.89 38.6-23.12"/><path fill="#d9bda0" d="m1190.01 1044.3 3.15-1.17c-.5 34.7.48 69.65-.05 103.86l-3.81.91c.94-1.62 2.3-95.18.71-103.6"/><path fill="#fdfdfc" d="M1190.01 1044.3c1.59 8.42.23 101.98-.71 103.6-54.11 2.52-110.81-14.09-140.51-62.71 31.25-13.13 27.64-11.02 50.77-35.13 31.32 7 60.36 4.43 90.45-5.76m92.45 66.71-.34.75a335 335 0 0 1-25.03 46.81c-2.4 3.8-13.5 19.06-14.31 21.29l-1.29 1.1c-3.36 2.98-41.91 2.1-48.3 1.4.09-5.39-1.41-31.03 1.76-32.61l1.15-.62c21.51-.93 53.23-14.7 71.25-26.66 6.32-4.19 9.45-7.36 15.11-11.46m-275.32-44.81c.94.21 1.88.4 2.83.57-1.14 2.66-1.16 2.64-1.97 5.51-.89 3.23-1.87 6.43-2.94 9.61l-.63 1.91.08 2.29c-6.686 17.62-2.42 40.35 5.12 57.15a116.2 116.2 0 0 0 28.62 38.66l-2.24.72q-12.15.315-24.3.15l-2.4-.06c-12.421-37.85-13.077-58.18-8.07-97.11l.39-1.96c1.44-2.64 4.25-13.62 5.51-17.44"/><path fill="#b87c48" d="M1007.14 1066.2c.94.21 1.88.4 2.83.57-1.14 2.66-1.16 2.64-1.97 5.51-.89 3.23-1.87 6.43-2.94 9.61l-.63 1.91.08 2.29c-6.686 17.62-2.42 40.35 5.12 57.15a116.2 116.2 0 0 0 28.62 38.66l-2.24.72c-15.62-15.55-25.54-26.96-32.57-49l-2.59-.26c.43 6.27 1.63 12.51 2.93 18.65l1.45 6.98c1.84 8.54 4.35 15.59 6.48 23.78l-2.4-.06c-12.421-37.85-13.077-58.18-8.07-97.11l.39-1.96c1.44-2.64 4.25-13.62 5.51-17.44"/><path fill="#fdfdfc" d="M1000.85 1133.36c-.05-.92-.65-4.88-.02-5.51 1.21.06 2.39 5.08 2.61 5.77z"/><path fill="#b87c48" d="M1035.85 1067.06c.99-.16 1.96-.34 2.94-.53.55 3.08 7.52 15.3 9.53 18.22l.47.44c29.7 48.62 86.4 65.23 140.51 62.71l3.81-.91c22.36-.98 50.62-12.22 69.29-24.36 6.87-4.47 15.49-12.8 22.56-15.75-.8 1.56-1.3 3.05-2.5 4.13-5.66 4.1-8.79 7.27-15.11 11.46-18.02 11.96-49.74 25.73-71.25 26.66-3.09.33-2.52.1-5.37 1.1-7.01-.12-14 .58-21.25.32-50.44-1.78-94.83-21.59-123.36-64.68l-1.59-2.2c-2.46-5.64-5.9-11.09-8.68-16.61"/><path fill="#fdfdfc" d="M1009.97 1066.77c8.55 1.56 17.3 1.66 25.88.29 2.78 5.52 6.22 10.97 8.68 16.61-8.31 2.76-31.17 1.52-40.1.13l.63-1.91c1.07-3.18 2.05-6.38 2.94-9.61.81-2.87.83-2.85 1.97-5.51"/><path fill="#d9bda0" d="M1190.73 1150.23c2.85-1 2.28-.77 5.37-1.1l-1.15.62c-3.17 1.58-1.67 27.22-1.76 32.61-9.65 1.32-148.56 1.32-153.91-.17l151.54-.13c.22-10.4-.03-21.38-.09-31.83m-146.2-66.56 1.59 2.2c-12.74 1.05-28.99 2.64-41.61.22l-.08-2.29c8.93 1.39 31.79 2.63 40.1-.13"/><path fill="#fdfdfc" d="m908.568 727.241.312 24.699c54.095 7.898 102.25 37.241 125.29 87.684 2.15 4.712 5.08 11.557 7.65 15.946.53 1.754.62 1.621.48 3.296 4.69 15.88 4.94 22.879 6.77 38.737l-.1 1.694c-.4 6.728-.96 12.363-1.17 19.204q-1.08-.354-2.16-.677a76.7 76.7 0 0 0-42.49-.374c-3.203-6.351-5.138-11.066-9.174-17.129l-1.746-1.141c-9.397-13.912-44.051-41.887-61.147-42.11l-1.599-2.153c-6.012-1.554-13.394-3.822-19.628-5.546-1.375.07-1.445.119-3.099.362-9.631-4.491-30.946-4.097-41.493-3.455-37.551 2.286-92.366 27.906-112.554 60.886l.229-6.239 3.512-4.933c3.185-8.136 6.141-15.935 9.758-23.905a294.15 294.15 0 0 1 71.617-99.145c5.75-5.144 16.102-13.814 23.202-16.492l3.094-3.576c11.477-8.442 29.006-18.729 42.016-24.47z"/><path fill="#fdfdfc" d="M861.028 756.45c14.923-1.807 31.016-1.766 46.168-2.449-.686 5.58-.632 11.227-.675 16.856-.19 24.975-.559 50.1-.363 75.068-49.501-6.6-85.004 1.308-127.518 30.972-7.229 5.044-15.261 14.109-22.189 19.095 3.185-8.136 6.141-15.935 9.758-23.905a294.15 294.15 0 0 1 71.617-99.145c5.75-5.144 16.102-13.814 23.202-16.492"/><path fill="#b87c48" d="m908.568 727.241.312 24.699c54.095 7.898 102.25 37.241 125.29 87.684 2.15 4.712 5.08 11.557 7.65 15.946.53 1.754.62 1.621.48 3.296 4.69 15.88 4.94 22.879 6.77 38.737l-.1 1.694c-.4 6.728-.96 12.363-1.17 19.204q-1.08-.354-2.16-.677a76.7 76.7 0 0 0-42.49-.374c-3.203-6.351-5.138-11.066-9.174-17.129l-1.746-1.141c-9.397-13.912-44.051-41.887-61.147-42.11l-1.599-2.153c-6.012-1.554-13.394-3.822-19.628-5.546-1.375.07-1.445.119-3.099.362-9.631-4.491-30.946-4.097-41.493-3.455-37.551 2.286-92.366 27.906-112.554 60.886l.229-6.239 3.512-4.933c6.928-4.986 14.96-14.051 22.189-19.095 42.514-29.664 78.017-37.572 127.518-30.972l2.421.748c6.452 1.757 29.294 8.921 34.227 9.358 23.679-.804 47.683.487 71.404-.479 7.63-.311 16.11-.62 23.71-.319-3.87-20.414-26.85-49.069-42.324-63.068-.613-.479-.527-.362-.917-1.021-28.183-21.51-50.105-31.22-85.407-36.624l-2.076-.519c-15.152.683-31.245.642-46.168 2.449l3.094-3.576c11.477-8.442 29.006-18.729 42.016-24.47z"/><path fill="#fdfdfc" d="M942.806 856.031c23.679-.804 47.683.487 71.404-.479 7.63-.311 16.11-.62 23.71-.319.56.885 1.12 1.774 1.67 2.667 1.33 4.061 8.11 32.343 5.71 37.682-.66 1.487-11.76-.535-14.85-.835-10.43-1.012-23.86 1.848-33.989 3.952l-1.153.251c-15.244-17.988-29.267-30.369-50.921-40.599z"/><path fill="#d9bda0" d="M942.806 856.031c23.679-.804 47.683.487 71.404-.479 7.63-.311 16.11-.62 23.71-.319.56.885 1.12 1.774 1.67 2.667-16.64-.885-37.3.309-54.374.006-7.358-.13-34.819-.52-40.829.445z"/><path fill="#fdfdfc" d="M1006.2 916.667c-3.9-9.356-15.218-17.686-.54-18.615 3.28-.208 9.75-2.214 13.86-2.129 29.9.619 26.45-2.848 26.12 21.901a76.7 76.7 0 0 0-39.44-1.157M906.138 728.404c.557 7.426.355 16.02.352 23.543-15.482-.228-27.4.686-42.368.927 11.477-8.442 29.006-18.729 42.016-24.47"/><path fill="#d9bda0" d="m907.196 754.001 2.076.519c.213 29.329-1.758 63.709-.693 92.153l-2.421-.748c-.196-24.968.173-50.093.363-75.068.043-5.629-.011-11.276.675-16.856"/><path fill="#fdfdfc" d="m998.339 703.571.332-.066c4.799-3.806 10.409-2.218 16.629-1.19 43.43 19.669 72.1 45.26 90.2 90.488 10.97 27.417 7.02 38.701 10.97 62.958-.02.816-.16 1.031-.42 1.859-6.66 33.948-3.08 35.536-21.72 68.604-.23 1.13-.14.851-.75 1.868-4.1 4.563-6.87 8.851-11.38 13.58q-.675-.783-1.35-1.548a76.73 76.73 0 0 0-33.05-21.623c.21-6.841.77-12.476 1.17-19.204l.1-1.694c-1.83-15.858-2.08-22.857-6.77-38.737.14-1.675.05-1.542-.48-3.296-2.57-4.389-5.5-11.234-7.65-15.946-23.04-50.443-71.195-79.786-125.29-87.684l-.312-24.699c24.603-11.754 63.194-20.613 89.771-23.67"/><path fill="#fdfdfc" d="M1042.3 858.866c3.78-1.837 62.68-1.004 70.59-.922-.58 19.575-8.56 49.669-20.51 65.356l-1.33 2.182c-2.75 5.273-7.11 9.447-10.2 14.642a76.73 76.73 0 0 0-33.05-21.623c.21-6.841.77-12.476 1.17-19.204l.1-1.694c-1.83-15.858-2.08-22.857-6.77-38.737"/><path fill="#fdfdfc" d="M1048.97 899.297c15.64 4.038 30.37 15.364 42.08 26.185-2.75 5.273-7.11 9.447-10.2 14.642a76.73 76.73 0 0 0-33.05-21.623c.21-6.841.77-12.476 1.17-19.204"/><path fill="#d9bda0" d="M1049.07 897.603c22.1 5.071 26.79 15.406 43.31 25.697l-1.33 2.182c-11.71-10.821-26.44-22.147-42.08-26.185z"/><path fill="#b87c48" d="m998.339 703.571.332-.066c4.799-3.806 10.409-2.218 16.629-1.19 43.43 19.669 72.1 45.26 90.2 90.488 10.97 27.417 7.02 38.701 10.97 62.958-.02.816-.16 1.031-.42 1.859-6.66 33.948-3.08 35.536-21.72 68.604-.23 1.13-.14.851-.75 1.868-4.1 4.563-6.87 8.851-11.38 13.58q-.675-.783-1.35-1.548c3.09-5.195 7.45-9.369 10.2-14.642l1.33-2.182c11.95-15.687 19.93-45.781 20.51-65.356l-.13-2.1c2.19-15.014-3.16-40.9-7.42-55.361-12.91-43.878-59.03-94.129-107.001-96.912"/><path fill="#d9bda0" d="M1041.82 855.57c7.1-.624 17.31.074 24.87.152 15.35.161 30.71.202 46.07.122l.13 2.1c-7.91-.082-66.81-.915-70.59.922.14-1.675.05-1.542-.48-3.296"/><path fill="#5b6369" d="M1006.2 916.667a76.7 76.7 0 0 1 41.6 1.834 76.73 76.73 0 0 1 33.05 21.623q.675.765 1.35 1.548a76.7 76.7 0 0 1 15.57 29.585q.345 1.3.66 2.615a77 77 0 0 1 1.99 18.999 79 79 0 0 1-.12 3.085 76.5 76.5 0 0 1-2.99 17.054c-.31 1.04-.63 2.07-.98 3.09a76.7 76.7 0 0 1-12.99 23.5c-.83 1.03-1.69 2.04-2.58 3.02a76.7 76.7 0 0 1-41.97 23.91c-.98.19-1.95.37-2.94.53a76.8 76.8 0 0 1-25.88-.29 76.705 76.705 0 0 1-62.868-72.728 76.69 76.69 0 0 1 59.098-77.375"/><path fill="#fdfdfc" d="M990.99 1014.04c-11.1-16.447-8.391-38.558 6.351-51.839 14.739-13.282 37.019-13.676 52.219-.926s18.69 34.752 8.18 51.585c-.86 1.39-1.82 2.72-2.85 3.99a39.81 39.81 0 0 1-30.89 14.73c-11.99 0-23.34-5.4-30.906-14.7a40 40 0 0 1-2.104-2.84"/><path fill="#fdfdfc" d="M993.094 1016.88c6.681-.54 58.556-1.19 61.796-.03a39.81 39.81 0 0 1-30.89 14.73c-11.99 0-23.34-5.4-30.906-14.7"/><path fill="#d9bda0" d="M990.99 1014.04c20.27.57 46.77.56 66.75-1.18-.86 1.39-1.82 2.72-2.85 3.99-3.24-1.16-55.115-.51-61.796.03a40 40 0 0 1-2.104-2.84"/><path fill="#4c5054" d="m1022.3 971.25.38.023c21.07 1.055 24.09 27.134 6.41 35.137l-2.34 1.04c-20.83.13-27.271-29.343-6.26-35.633z"/><path fill="#fdfdfc" d="M1009.31 986.172c.61-1.545 1.47-3.928 2.19-5.333a13.18 13.18 0 0 1 8.48-6.833c5.3-1.364 8.43-.411 12.84 2.125.97.752.99.724 1.68 1.709 7.54 11.986 4.28 22.97-9.22 27.85-1.41.16-1.15.15-2.56.02-8.52-4.12-10.59-6.482-13.28-15.657-.5-1.845-.39-1.867-.13-3.881m5.99-283.857c55.62-5.019 134.62 22.285 177.79 57.995q1.11.924 2.19 1.879c14.46 22.054 23.47 68.055 16.85 93.303-6.08-.447-30.26-.433-36.57-.265-12.29.327-49.16-1.34-59.09.534-3.95-24.257 0-35.541-10.97-62.958-18.1-45.228-46.77-70.819-90.2-90.488"/><path fill="#5b6369" d="M907.454 717.873c5.193-2.727 10.787-4.945 16.269-7.015 84.877-32.048 193.747-19.93 266.577 35.262 1.31.839 3.15 1.754 3.93 2.92 39.08 28.201 66.84 63.777 89.58 105.843l1.2 1.56c2.21 7.306 3.06 12.451 3.63 20.106l2.96 1.621-1.62-7.009c5.75 3.599 15.1 39.2 16.97 46.848 7.84 32.185 8.14 61.365 8.03 94.161.02 2.06.38 2.23-.39 3.6-2.63 23.51-6.1 59.65-17.53 80.97l-.65 3.19c-7.48 26.07-27.38 61.08-45.07 82.78-.59.73-5.53.67-6.31.7-.56-2.05-.73-1.71-2.25-3.55.81-2.23 11.91-17.49 14.31-21.29a335 335 0 0 0 25.03-46.81l.34-.75c1.2-1.08 1.7-2.57 2.5-4.13.79-3.62 6.54-19.89 8.1-25.12 7.01-23.45 10.56-41.3 12.85-65.66l.39-3.43c2.05-37.971-3.32-74.508-13.42-111.025-1.04-4.383-.95-4.833-3.8-8.115-1.96-10.596-9.16-25.925-14.25-35.509-13.81-.275-46.97.844-58.86-.567-1.16-4.411-1.04-4.467-.38-9.167 1.89-14.903-.18-34.009-2.48-48.797-1.77-11.337-7.1-20.965-11.14-31.26l-.72-1.847c-2.26-2.666-2.86-2.671-5.97-4.194a96 96 0 0 0-2.19-1.879c-43.17-35.71-122.17-63.014-177.79-57.995-6.22-1.028-11.83-2.616-16.629 1.19l-.332.066c-26.577 3.057-65.168 11.916-89.771 23.67l-2.43 1.163c-13.01 5.741-30.539 16.028-42.016 24.47l-3.094 3.576c-7.1 2.678-17.452 11.348-23.202 16.492a294.15 294.15 0 0 0-71.617 99.145c-3.617 7.97-6.573 15.769-9.758 23.905l-3.512 4.933-2.522-1.03c-.88 4.509-2.304 8.051-5.502 11.503-.336.063-2.393 1.327-3.163 1.647.676-3.731 2.276-9.374 3.537-13.02 31.386-90.699 78.152-139.608 161.341-182.366z"/><path fill="#fdfdfc" d="M1201.25 766.383c21.67 16.289 62.55 63.945 71.81 88.992l1.77 2.646c-13.81-.275-46.97.844-58.86-.567-1.16-4.411-1.04-4.467-.38-9.167 1.89-14.903-.18-34.009-2.48-48.797-1.77-11.337-7.1-20.965-11.14-31.26z"/><path fill="#d9bda0" d="M1215.97 857.454c-1.16-4.411-1.04-4.467-.38-9.167.12 1.142.31 7.043 1.14 7.086 13.53.694 44.2 1.042 56.33.002l1.77 2.646c-13.81-.275-46.97.844-58.86-.567"/><path fill="#fdfdfc" d="M907.454 717.873c5.193-2.727 10.787-4.945 16.269-7.015 84.877-32.048 193.747-19.93 266.577 35.262l.03 5.196-.69.491c-76.43-53.374-169.5-68.572-258.249-37.518-5.906 2.067-17.497 9.095-23.145 7.319zm-.824-.214c-.298 2.569-.135 6.006-2.692 7.261-75.376 37.002-124.903 93.034-153.521 174.975-.88 4.509-2.304 8.051-5.502 11.503-.336.063-2.393 1.327-3.163 1.647.676-3.731 2.276-9.374 3.537-13.02 31.386-90.699 78.152-139.608 161.341-182.366m287.6 31.381c39.08 28.201 66.84 63.777 89.58 105.843l-1.28.114c-6.86 1.17-10.65-12.408-13.8-17.473-19.54-31.41-43.63-58.46-72.9-81.096-2.04-1.578-1.61-5.029-1.6-7.388m97.37 129.13-1.62-7.009c5.75 3.599 15.1 39.2 16.97 46.848 7.84 32.185 8.14 61.365 8.03 94.161-2.47-.29-1.31.14-3.45-1.36-1.24-6.66-.78-20.961-.92-28.332-.24-12.724-.88-21.375-2.9-34.015a351 351 0 0 0-6.51-31.448c-2.43-9.312-9.73-30.903-9.6-38.845m-46.57 305.24c15.73-22.7 30.6-43.32 41.02-69.41 2.68-6.7 3.15-12.55 10.36-14.07-7.48 26.07-27.38 61.08-45.07 82.78-.59.73-5.53.67-6.31.7m52.03-86.67c-.64.11-3.24.75-3.9.33.21.4 10.87-37.5 11.62-41.09l1.05-4.99c2.04-10.16 3.61-19.61 3.97-29.99.14-3.9.06-7.17 4.79-5.23-2.63 23.51-6.1 59.65-17.53 80.97m-12.05-240.297c2.21 7.306 3.06 12.451 3.63 20.106l-.3-.042-.3-.357.24.556c-.78-1.254-8.28-17.707-8.35-18.19.63-.821 3.73-1.491 5.08-2.073m-89.73-94.254c3.11 1.523 3.71 1.528 5.97 4.194l.72 1.847c4.04 10.295 9.37 19.923 11.14 31.26 2.3 14.788 4.37 33.894 2.48 48.797-.66 4.7-.78 4.756.38 9.167-3.04 11.718-4.41 22.522-8.17 34.153-11.78 36.513-35.63 70.406-69.72 89.105-3.43 1.881-8.66 4.153-9.56 7.105l-.83 1.221c-4.47-1.912-5.11.465-9.97 1.046-.7.422-1.39.843-2.08 1.264-5.32 1.834-10.21 2.871-15.34 4.608q.09-1.542.12-3.085a77 77 0 0 0-1.99-18.999q-.315-1.314-.66-2.615a76.7 76.7 0 0 0-15.57-29.585c4.51-4.729 7.28-9.017 11.38-13.58.61-1.017.52-.738.75-1.868 18.64-33.068 15.06-34.656 21.72-68.604.26-.828.4-1.043.42-1.859 9.93-1.874 46.8-.207 59.09-.534 6.31-.168 30.49-.182 36.57.265 6.62-25.248-2.39-71.249-16.85-93.303"/><path fill="#b87c48" d="M1195.28 762.189c3.11 1.523 3.71 1.528 5.97 4.194l.72 1.847c4.04 10.295 9.37 19.923 11.14 31.26 2.3 14.788 4.37 33.894 2.48 48.797-.66 4.7-.78 4.756.38 9.167-3.04 11.718-4.41 22.522-8.17 34.153-11.78 36.513-35.63 70.406-69.72 89.105-3.43 1.881-8.66 4.153-9.56 7.105l-.83 1.221c-4.47-1.912-5.11.465-9.97 1.046-.7.422-1.39.843-2.08 1.264-5.32 1.834-10.21 2.871-15.34 4.608q.09-1.542.12-3.085a77 77 0 0 0-1.99-18.999q-.315-1.314-.66-2.615c5.43 2.679 12.61 6.533 18.02 9.488 1.13.85 1.12.878 2.27 1.527.96.655 3.84 2.676 4.93 2.728 7.58.36 26.76-13.996 31.93-18.244 31.97-26.297 53.56-67.726 57.33-108.869l-.12-2.395c6.62-25.248-2.39-71.249-16.85-93.303"/><path fill="#fdfdfc" d="M1098.43 973.872c7.82 4.423 14.81 8.486 22.47 13.166-6.73 2.041-13.97 3.739-20.48 5.833a77 77 0 0 0-1.99-18.999m-4.85-45.78c11.99 14.007 20.23 34.353 22.21 52.653-5.41-2.955-12.59-6.809-18.02-9.488a76.7 76.7 0 0 0-15.57-29.585c4.51-4.729 7.28-9.017 11.38-13.58"/><path fill="#d9bda0" d="M1116.47 855.761c9.93-1.874 46.8-.207 59.09-.534 6.31-.168 30.49-.182 36.57.265l.12 2.395c-31.14-1.174-64.89-.054-96.2-.267.26-.828.4-1.043.42-1.859m-22.14 70.463c14.27 18.782 20.54 32.312 23.73 56.048-1.15-.649-1.14-.677-2.27-1.527-1.98-18.3-10.22-38.646-22.21-52.653.61-1.017.52-.738.75-1.868"/><path fill="#b87c48" d="M1289.08 893.53c2.85 3.282 2.76 3.732 3.8 8.115 10.1 36.517 15.47 73.054 13.42 111.025l-.39 3.43c-26.74 3.93-47.18 4.57-74.15 3.91-13.3 10.23-22.73 17.33-38.6 23.12l-3.15 1.17c-30.09 10.19-59.13 12.76-90.45 5.76-23.13 24.11-19.52 22-50.77 35.13l-.47-.44c-2.01-2.92-8.98-15.14-9.53-18.22a76.7 76.7 0 0 0 41.97-23.91c.89-.98 1.75-1.99 2.58-3.02a76.7 76.7 0 0 0 12.99-23.5c.35-1.02.67-2.05.98-3.09a76.5 76.5 0 0 0 2.99-17.054c5.13-1.737 10.02-2.774 15.34-4.608.69-.421 1.38-.842 2.08-1.264 4.86-.581 5.5-2.958 9.97-1.046l.83-1.221c25.17 12.493 52.9 21.823 80.89 26.523 4 .68 14.55-.54 21.51.29l.39.56c-3.18.45-2.88.16-5.77 1.42l1.23.93c4.94-.01 7.47-2.68 11.06-6.13a163.8 163.8 0 0 0 51.25-117.88"/><path fill="#fdfdfc" d="M1117.72 990.084c4.86-.581 5.5-2.958 9.97-1.046 12.69 10.349 43.44 17.452 58.26 24.022.23.1-.19 1.01.22 1.54 1.58.52 3.98-.19 5.59-.35l2.14.36c-.14 8.6-.19 17.21-.14 25.81-.86.15-1.71.29-2.57.43-19 11.87-67.34 11.65-88.92 6.57-.31-.52-.89-.82-1.4-1.17-3.11-.2-14.2-5.2-17.53-6.65a76.7 76.7 0 0 0 12.99-23.5c.35-1.02.67-2.05.98-3.09a76.5 76.5 0 0 0 2.99-17.054c5.13-1.737 10.02-2.774 15.34-4.608.69-.421 1.38-.842 2.08-1.264"/><path fill="#fdfdfc" d="m1096.33 1016.1 16.45-.76c-4.24 15.16-8.57 20.49-11.91 30.91-3.11-.2-14.2-5.2-17.53-6.65a76.7 76.7 0 0 0 12.99-23.5m3.97-20.144c5.13-1.737 10.02-2.774 15.34-4.608-.17 8.365-.86 13.032-2.05 21.082l-.17 1.09c-5.67-.23-10.33-.09-16.11-.51a76.5 76.5 0 0 0 2.99-17.054"/><path fill="#d9bda0" d="M1115.64 991.348c.69-.421 1.38-.842 2.08-1.264.46 6.191-.03 12.836-1.25 18.926a123 123 0 0 0-.77 4.27c6.1-.07 60.8.46 62.35 1.3.02.09.04.19.05.28l-.25.19.18-.02c-6.25 1.68-53.66.15-63.04.04-3.22 12.4-7.05 20.78-12.72 32.35-.31-.52-.89-.82-1.4-1.17 3.34-10.42 7.67-15.75 11.91-30.91l-16.45.76c.35-1.02.67-2.05.98-3.09 5.78.42 10.44.28 16.11.51l.17-1.09c1.19-8.05 1.88-12.717 2.05-21.082m76.12 22.902 2.14.36c-.14 8.6-.19 17.21-.14 25.81-.86.15-1.71.29-2.57.43-.35-8.87-.16-17.76.57-26.6"/><path fill="#fdfdfc" d="M1241.23 1011.78c36.97-39.661 41.64-58.689 51.65-110.135 10.1 36.517 15.47 73.054 13.42 111.025-1.88.28-6.9 1.15-8.53 1.16-15.05-4.14-45.55 1.17-56.54-2.05m-160.47 30.84c5.78 2.09 11.47 4.02 17.23 6.22-10.27 12.66-22.92 25.2-38.45 30.79-3.73 1.34-7.84 3.11-11.22 5.12-2.01-2.92-8.98-15.14-9.53-18.22a76.7 76.7 0 0 0 41.97-23.91m113.14-28.01c6.5.21 26.79 4.19 34.04 5.52-12.91 9.54-19.38 13.96-34.18 20.29-.05-8.6 0-17.21.14-25.81"/><path fill="#ece8e3" d="M1241.23 1011.78c10.99 3.22 41.49-2.09 56.54 2.05-18.07 5.05-44.77 4.39-63.68 4.38z"/><path fill="#fdfdfc" d="M775.971 1219.8c1.799-.11 3.595-.26 5.389-.43 1.886.06 5.433.13 6.89 1.38 16.742 14.31 31.761 29.93 49.534 43.11 105.534 78.31 242.656 84.21 354.246 15.51l.03 52.46q-195.66.99-391.315-.09l-.021 24.53-25.048.74c-.01 7.87.27 17.83-.105 25.53-.029.67.015.42-.093.81-1.029.88-51.584-.07-57.647.24a4 4 0 0 1-.201-.2c.184-.38.037-.14.547-.73-.739-30.89-.075-64.38.204-95.38l.437-3.78c-1.243-6.67-.133-53.47-.055-63.46 18.674-.11 38.669.35 57.208-.24"/><path fill="#fdfdfc" d="M718.763 1220.04c18.674-.11 38.669.35 57.208-.24-9.395 39.51-19.521 50.14-57.153 63.7-1.243-6.67-.133-53.47-.055-63.46"/><path fill="#5b6369" d="M775.971 1219.8c1.799-.11 3.595-.26 5.389-.43-10.678 39.73-20.848 56.36-62.979 67.91l.437-3.78c37.632-13.56 47.758-24.19 57.153-63.7"/><path fill="#4c5054" d="M718.177 1382.66c6.004-1.14 51.013-1.19 57.394-.12-.029.67.015.42-.093.81-1.029.88-51.584-.07-57.647.24a4 4 0 0 1-.201-.2c.184-.38.037-.14.547-.73"/><path fill="#fdfdfc" d="m841.131 1220.39 5.804-.44c27.093.41 54.189.57 81.284.46l2.192-.05c21.778-.15 43.557-.17 65.335-.05 11.324.03 25.974.55 36.874-.12l2.1.67c42.9-.04 85.41-1.21 128.13 2.61 9.21.83 26.57-1.51 36.68-2.32-21.11 21.11-49.58 32.23-74.62 46.16l1.71 1.83c2.7.82 5.01.73 7.31 2.11l-1.01 1.43c-1.89.82-3.79 1.62-5.7 2.37-38.49 12.95-70.36 20.49-111.8 18.81-7.27-.29-17.954-.44-24.55-3.51l-2.888 1.26c-45.997-2.48-120.891-37.51-153.036-70.1l.323-1.05z"/><path fill="#fdfdfc" d="M1034.72 1220.86c42.9-.04 85.41-1.21 128.13 2.61 9.21.83 26.57-1.51 36.68-2.32-21.11 21.11-49.58 32.23-74.62 46.16-2.03.6-4.53 1.23-6.46 1.99-2.51.99-3.63 1.53-6.26 2.1-1.29-.6-1.87-.9-3.21-1.24-23.42-5.92-45.36-19.18-63.42-34.97-.58-.43-.54-.39-.94-.98-4.96-4.54-8.78-8.13-12-14.02z"/><path fill="#b87c48" d="m1032.62 1220.19 2.1.67c20.07 22.76 53.08 44.89 83.73 48.44-2.51.99-3.63 1.53-6.26 2.1-1.29-.6-1.87-.9-3.21-1.24-23.42-5.92-45.36-19.18-63.42-34.97-.58-.43-.54-.39-.94-.98-4.96-4.54-8.78-8.13-12-14.02"/><path fill="#fdfdfc" d="m841.131 1220.39 5.804-.44c27.093.41 54.189.57 81.284.46 10.315 28.89 22.558 38.76 42.046 59.05l1.592.41-1.228 3.59c7.993 1.74 10.76 3.24 17.353 8.15-45.997-2.48-120.891-37.51-153.036-70.1l.323-1.05z"/><path fill="#fdfdfc" d="m841.131 1220.39 5.804-.44c27.152 25.71 86.603 52.97 123.33 59.51l1.592.41-1.228 3.59c7.993 1.74 10.76 3.24 17.353 8.15-45.997-2.48-120.891-37.51-153.036-70.1l.323-1.05z"/><path fill="url(#b)" d="m841.131 1220.39 5.804-.44c27.152 25.71 86.603 52.97 123.33 59.51l1.592.41-1.228 3.59c-44.675-8.38-96.317-31.94-129.498-63.07"/><path fill="#fdfdfc" d="M1118.45 1269.3c1.93-.76 4.43-1.39 6.46-1.99l1.71 1.83c2.7.82 5.01.73 7.31 2.11l-1.01 1.43c-1.89.82-3.79 1.62-5.7 2.37-38.49 12.95-70.36 20.49-111.8 18.81-7.27-.29-17.954-.44-24.55-3.51l-2.888 1.26c-6.593-4.91-9.36-6.41-17.353-8.15l1.228-3.59 1.812-.93c3.945 3.41 16.747 3.59 22.325 4.26 40.436 4.91 77.396-1.1 116.196-11.8 2.63-.57 3.75-1.11 6.26-2.1"/><path fill="#5b6369" d="M1118.45 1269.3c1.93-.76 4.43-1.39 6.46-1.99l1.71 1.83c2.7.82 5.01.73 7.31 2.11l-1.01 1.43c-1.69-.7-1.64-.79-3.3-.94-12.64-.35-28.21 6.65-41.54 9.78a253.4 253.4 0 0 1-71.77 6.64c-4.84-.2-31.897-2.9-32.669-2.21 3.099 2.29 3.774 2.77 7.229 4.4l-2.888 1.26c-6.593-4.91-9.36-6.41-17.353-8.15l1.228-3.59 1.812-.93c3.945 3.41 16.747 3.59 22.325 4.26 40.436 4.91 77.396-1.1 116.196-11.8 2.63-.57 3.75-1.11 6.26-2.1"/><path fill="#b8bcbf" d="M1129.62 1271.74c1.66.15 1.61.24 3.3.94-1.89.82-3.79 1.62-5.7 2.37z"/><path fill="#b87c48" d="m928.219 1220.41 2.192-.05c12.762 29.47 21.121 36.83 43.258 58.58l-1.812.93-1.592-.41c-19.488-20.29-31.731-30.16-42.046-59.05"/><path fill="#b8bcbf" d="M1011.9 666.393c18.85-.748 37.72.232 56.39 2.929 86.13 12.061 159.93 59.627 210.59 128.586 107.02 145.646 75.02 360.382-73.88 464.062-12.46 8.68-23.63 17.32-37.25 24.51-108.59 57.36-248.002 41.43-341.305-38.39-8.657-7.4-21.066-17.49-27.662-26.43l.222-1.16c45.967 41.32 80.848 70.49 143.226 87.08 178.839 47.56 341.909-60.42 388.839-235.08a334.5 334.5 0 0 0-20.36-215.834c-31.58-71.842-99.05-138.664-172.54-166.911a319 319 0 0 0-242.63 5.902C755.143 758.541 678.567 919.73 714.085 1068.16c2.693 11.25 5.35 25.39 9.796 35.9 5.894 13.94 12.179 27.84 18.275 41.68 4.525 9.95 18.288 26.83 20.44 36.72-5.734-4.4-12.58-18.82-16.297-25.3-70.223-122.57-52.273-277.67 40.606-384.15A317.8 317.8 0 0 1 963.18 671.978c16.726-3.261 31.819-4.412 48.72-5.585"/><path fill="#b8bcbf" d="M1009.41 682.451c42.2-.896 80.84 2.84 120.38 18.511 164.14 65.056 237.5 247.848 175.37 409.958a311.37 311.37 0 0 1-163.15 170.8 287.9 287.9 0 0 1-221.572 4.63c-23.849-9.25-93.378-46.36-103.373-69.1 14.164 13.27 27.048 24.1 42.805 35 125.625 86.88 295.15 61.55 391.81-55.86 38.41-46.66 56.45-88.23 69.57-146.59a322.16 322.16 0 0 0-53.86-238.479c-97.57-139.129-285.795-167.419-421.896-67.917-107.214 78.382-150.436 226.11-107.775 351.176a324.2 324.2 0 0 0 33.515 70.79c1.676 2.68 10.095 15.18 9.812 16.87-3.792-2.55-10.655-14.39-13.326-18.66A330.5 330.5 0 0 1 719.828 1018c-13.238-175.016 114.45-322.612 289.582-335.549"/><path fill="#fdfdfc" d="m1126.62 1269.14 1.64-.74c5.22-2.41 10.92-3.69 16.26-6.34 22.34-11.11 44.01-24.16 62.77-40.7.55-.49 5.99-.85 6.62.31-3.11 9.14-66.66 47.43-79.35 49.47l-.63.11c-2.3-1.38-4.61-1.29-7.31-2.11"/><path fill="#5b6369" d="M2003.4 827.682c1.37 4.486.83 23.485.79 29.146 3.53.037 8.26-.358 11.23 1.188-2.94 1.642-7.42 1.348-10.95 1.467-.75 16.182-.32 36.275-.32 52.706l.02 92.401 7.69 7.05-7.76 7.71.01 143.6c3.36.01 8.87-.41 11.43 1.17-3.12 1.56-7.62 1.12-11.26 1.12.06 6.5.38 18.01-1.18 24.17-1.07-7.99-.87-16.11-.88-24.18-37.3-.49-74.78.26-112.1.05-11.31-.06-22.78-.05-34.06.57-2.65 2.8-2.8 4.09-5.58 4.18l-3.78-4.12c-12.05-1.13-37.3-.43-50.02-.41l-93.69.29.02 18.46c-.23 3.05.33 3.77-1.33 5.25-1.5-4.13-.39-13.24-.82-18.65-.73-9.22-3.78-2.23-8.41-6.35 2.17-.83 4.48-.78 6.99-1.33.44-.56.89-1.11 1.34-1.67.48-31.03.22-115.86.2-141.89l-8.2-7.21 8.26-8.69-.31-144.201-3.2-.287-.47-1.07-3.26.163-.38-.494c3.01-.444 3.46-.616 6.35-1.629 1.29-3.493 1.25-18.805 1.59-24.233l.55-.214c1.45 8.658 1.14 16.397 1.07 25.114 47.2-.254 94.39-.249 141.59.013 1.98-2.77 2.51-4.041 5.61-5.481 3.37.353 5.3 2.965 7.92 5.443 47.58-.641 96.35-.107 144.05-.129.03-7.425-.38-22.372 1.25-29.023"/><path fill="#fdfdfc" d="m1778.65 935.677-2.95-4.097c.4-1.659.02-1.9 1.3-2.622 4.46-2.518 143.81-1.188 154.13.71-2.54 2.851-18.59 20.366-19.19 22.348 8.01-6.323 15.01-17.27 21.93-17.292 4.04 4.074 3.71 8.29 3.66 14.17l-.53 135.186-5.67 4.56c-3.67-3.41-8.86-8.53-12.63-11.5-9.88-11.37-27.3-26.59-38.41-38.47-3.99-4.29-20.52-21.24-24.5-24.08l-1.7.39-1.47-1.45-1.72-.78c-7.45 5.6-22.55 21.3-29.29 28.09a4730 4730 0 0 0-48.15 48.97c-1-.91-5.32-4.92-5.31-5.39.12-24.43-2.83-130.611.63-147.448 1.85-1.858 2.38-2.877 4.88-3.349l3.21 2.626z"/><path fill="#fdfdfc" d="M1773.46 1089.81c-1-.91-5.32-4.92-5.31-5.39.12-24.43-2.83-130.611.63-147.448 1.85-1.858 2.38-2.877 4.88-3.349l3.21 2.626 1.78-.572c1.25 1.268 2.49 2.553 3.71 3.853 19.38 19.664 41.01 41.149 59.87 60.97l-.23 2.6c2.54 2.44 7.02 6.81 8.9 9.65-7.45 5.6-22.55 21.3-29.29 28.09a4730 4730 0 0 0-48.15 48.97"/><path fill="#5b6369" d="M1782.36 939.53c19.38 19.664 41.01 41.149 59.87 60.97l-.23 2.6c-13.54-12.984-32.32-30.918-44.47-44.818-.67-.743-.38-.363-.89-1.126-4.84-4.901-9.84-10.596-14.83-15.217z"/><path fill="#7a7c7d" d="M1778.65 935.677c1.25 1.268 2.49 2.553 3.71 3.853l-.55 2.409c-1.96-1.9-3.59-3.351-4.94-5.69z"/><path fill="#363838" d="M1852.12 1010.5c6.78-6.74 38.26-39.365 44.44-43.049.04.078.08.156.13.234.27 2.902-38.64 37.635-42.75 43.795.07 1.21 1.18 2.19 1.85 3.11l-1.7.39-1.47-1.45-1.72-.78c-1.88-2.84-6.36-7.21-8.9-9.65l.23-2.6c3.26 3.41 6.57 6.66 9.89 10"/><path fill="#fdfdfc" d="m1852.62 1013.53 1.47 1.45 1.7-.39c3.98 2.84 20.51 19.79 24.5 24.08 11.11 11.88 28.53 27.1 38.41 38.47l-1.54.82c2.23 2.16 4.41 4.36 6.55 6.6 2.43 2.58 4.29 4.79 4.14 8.38l-1.21 1c-7.02 1.62-142.27 1.44-150.31-.71l-.66-1.46c2.12-5.32 69.35-71.87 76.95-78.24"/><path fill="#363838" d="M1880.29 1038.67c11.11 11.88 28.53 27.1 38.41 38.47l-1.54.82c-7.58-8.25-29.09-29.75-37.15-37.05z"/><path fill="#7a7c7d" d="M1855.79 1014.59c3.98 2.84 20.51 19.79 24.5 24.08l-.28 2.24c-6.49-5.79-19.87-19.46-25.92-25.93z"/><path fill="#fdfdfc" d="m1845.33 859.091 11.89.085a3212 3212 0 0 0 41.99 41.466c2.16 1.724 2.86 2.021 4.15 4.353 7.5 7.859 13.53 13.813 21.53 21.185l-144.97-.143c21.97-21.875 43.61-44.766 65.41-66.946m-65.46 237.609c16.17.64 35.01.17 51.35.17l91.47.14c-11.5 11.81-23.07 23.54-34.72 35.19-10.88 10.32-21.61 20.8-32.19 31.43l-8.53.05c-21.89-21.87-44.85-46.23-67.38-66.98m145.76.17 11.14-.09c21.11 24.82 42.75 43.25 64.54 66.29l-67.56.18c-25.19-.14-50.39-.06-75.58.24 22.85-21.84 45.34-44.05 67.46-66.62m-66.03-237.872 142.02.052-35.88 36.206c-7.62 7.842-26.46 28.177-34.7 33.534-6.92-5.302-21.47-20.668-28.11-27.34a2853 2853 0 0 0-43.33-42.452m-91.75 237.582c3.14-.18 5.12-.21 8.26-.13 11.1 8.49 58.2 54.72 67.44 66.93l-63.05-.15-76.86.07c19.43-21.66 46.39-45.24 64.21-66.72m-64.4-237.602 138.86.108-35.09 36.281c-6.8 7.103-26.49 29.474-34.33 31.802-7.85-3.607-60.54-58.669-69.44-68.191m235.95 66.243c20.67-21.912 41.66-42.853 62.7-64.364 0 14.628 1.6 135.91-1.04 139.793-.84-.48-2.14-1.151-2.9-1.682l-.65-1.117c-13.58-16.921-40.92-41.056-57.57-59.919zm62.25 96.569c1.06 7.89.5 36.49.49 45.05l-.17 93.63c-9.84-10-20.55-20.08-30.65-29.88a593 593 0 0 1-31.86-33.9c-.03-4.03.27-8.49.45-12.55 20.07-21.29 40.65-42.08 61.74-62.35m-298.67-159.38c4.09 2.89 19.33 18.559 23.56 22.982 12.56 13.099 27.61 26.793 39.42 40.152l-.56 13.13c-9.65 8.914-21.74 22-31.18 31.622a1590 1590 0 0 0-31.19 31.194z"/><path fill="#fdfdfc" d="M1939.28 940.389c11.44 12.992 25.02 26.298 37.26 38.736 3.94 3.114 9.82 8.759 12.74 12.786l.53.395c2.81 1.987 3.45 2.82 5.48 5.596l.69.649 1.53-.7.65 1.117-.64 1.342 3.5 3.66c1.68 4.75 1.05 9.87.9 15.03a1493 1493 0 0 0-62.7 63.14c.4-26.55.56-53.1.46-79.65.05-20.139.56-42.248-.4-62.101"/><path fill="#adaaaa" d="M1976.54 979.125c3.94 3.114 9.82 8.759 12.74 12.786-3.44-2.723-9.83-9.288-12.74-12.786"/><path fill="#959399" d="M1989.81 992.306c2.81 1.987 3.45 2.82 5.48 5.596-2.69-2.086-3.42-2.894-5.48-5.596"/><path fill="#fdfdfc" d="M1703.12 1160.53c-.54-35.96.53-72.16-.05-108.15-.14-8.89-.61-19.97.33-28.61 2.15.03 3.07 1.73 5.18 3.71l1.82-.95c2.58 2.46 17.82 17.13 18.85 19.39l.96 1.54c2.7 4.6 10.71 11 14.62 15.91l20.37 20.16c-.15 4.89.11 8.33.45 13.16-19.83 21.26-42.02 43.04-62.53 63.84"/><path fill="#959399" d="M1710.4 1026.53c2.58 2.46 17.82 17.13 18.85 19.39l.96 1.54c2.7 4.6 10.71 11 14.62 15.91-6.38-5.09-29.82-29.1-36.25-35.89z"/><path fill="#fdfdfc" d="M1703.08 1004.45c19.93-21.06 41.65-42.123 62.09-63.06l.19 139.54c-6.53-6.61-30.06-31.02-36.11-35.01-1.03-2.26-16.27-16.93-18.85-19.39l-7.29-7.19z"/><path fill="#ece8e3" d="M1700.63 1006.74c.43 3.38 2.04 9-1.95 9.32-3.86-5.48-3.1-4.07 1.95-9.32m67.19 80.39c5.65 4.73 6.61 5.37-.06 7.74-.7-4.05-.72-3.74.06-7.74"/><path fill="#959399" d="M1767.76 1094.87c-.7-4.05-.72-3.74.06-7.74.09 2.79.04 4.96-.06 7.74"/><path fill="#ece8e3" d="M2004.18 1007.72c3.68 2.31 4.67 2.43 3.92 6.47-5.95 2.52-4.12 0-3.92-6.47m-68.05 78.8c1.13 2.54 2.27 5.61-.53 7.38-2.95-4.28-3.15-3.62.53-7.38m-168-158.729c3.48 2.207 3.96 2.02 2.95 5.848-4.77 1.723-3.18-1.143-2.95-5.848m166.97 1.806c3.66-.964 2.43 1.247.2 2.26-2.7-.466-2.51-1.293-.2-2.26m-85.74-77.114c1.43.65 5.49 2.155 4.54 4.311-5.36-.194-6.46.967-4.54-4.311"/><path fill="#5b6369" d="M376.132 856.883c-.058-7.31-.36-19.359 1.174-26.389.868 8.742.692 17.612.697 26.405l89.05.06c13.294-.004 37.311.473 49.901-.78 2.47-2.79 1.685-2.963 2.171-7.589l.96-.104c.809 1.872.779 2.343.924 4.333l.136 2.021 1.731 1.677c39.308 1.212 104.775.49 141.183.52-.149-3.083-.745-25.991.578-27.149 1.944.631 1.502 16.335 1.23 19.11-1.269 12.961 4.505 6.075 8.15 8.493.217.771.192.41.143 1.077-.771.821-4.041.69-5.09.723q-1.668.045-3.335.117c.428 33.564-.45 67.301.221 100.813.168 8.417 3.815 22.219 4.868 31.017.78 6.517 1.224 12.912 1.962 19.372 5.009 3.99 7.409-.25 8.142 3.11-3.097.15-4.313.19-7.427.76-8.852 14.2-9.137 128.31-7.261 147.25 3.742 3.06 5.179-.3 8.433 2.26l-.632.95-7.392.56c-1.301 3.6-.801 12.71-.77 17l-1.726-.01-.173-17.4c-16.409.72-137.768-1.07-142.587 1.23-.262 2.18-.505 4.37-.728 6.56l-1.385.01c-.352-2.27-.443-3.87-.592-6.15-4.24-2.64-125.979-1.75-140.093-1.74.058 6.01.418 19.1-1.42 24.67-1.057-8.14-.734-16.19-.624-24.39-3.708-.07-6.883.24-10.218-1.24 2.654-1.5 6.79-1.18 10.028-1.24l-.003-55.61c-.042-27.43-.496-39.71-10.272-65.59-2.119-5.6-1.323-19.73-4.009-27.46l-.533-1.06 1.288-1.23c1.761-22.921 4.301-40.77 13.217-62.024.771-1.839.272-29.335.245-33.054l-.037-57.721c-3.428-.008-8.706.511-11.415-1.028 3.805-1.5 7.157-1.133 11.29-1.14"/><path fill="#fdfdfc" d="M491.857 1014.01c6.172 0 22.576-.54 27.352.99-1.044 9.97-.385 39.31-.378 50.2l.107 97.81a158.9 158.9 0 0 1-96.632-34.33c-39.053-31.2-52.157-67.05-57.336-114.67zm34.578-.03 143.675.08c-1.779 28.2-6.134 49.78-20.713 74.5-25.495 43.23-78.053 73.78-128.386 74.49l.024-148.29c2.303-.53 3.05-.61 5.4-.78m136.939-154.95.631 2.892-.245 59.533c-2.075 10.81.097 23.233-1.578 33.786-6.412-15.015-11.58-24.9-21.449-37.732-4.746-6.763-12.109-14.808-18.304-20.233l-.711-.718c-23.646-21.158-38.752-27.601-68.206-36.583 33.189-1.809 75.797-.789 109.862-.945m-285.237-.033c36.448.001 74.166.479 110.512-.363-24.118 9.534-35.063 8.619-59.098 26.785-12.217 7.698-31.626 26.607-39.132 39.114-3.302 4.662-8.499 14.716-11.133 19.926-1.839-3.269-1.145-75.277-1.149-85.462"/><path fill="#fdfdfc" d="m429.551 885.419.624 1.646c-3.756 2.661-7.211 5.32-10.857 8.117 3.248 3.757 6.523 7.216 9.68 11.064l-.002 2.669c3.643 3.568 10.857 12.021 14.682 16.197.725 1.251.574 1.269 1.703 1.877 2.099 2.254 3.762 4.063 5.725 6.485 2.588 2.233 4.048 3.519 6.891 5.278 2.336 1.237 12.637 13.143 14.004 16.085 3.219 2.678 32.393 36.058 36.858 41.306l1.606-1.261c1.568 1.606 3.367 2.908 5.044 4.396l.454 2.242c-2.08 2.43-2.077 1.32-5.1 1.57-.299.82-.072.71.192 1.67-2.093-.76-2.059-.66-3.803-1.81-8.297-4.691-26.248-18.851-34.895-25.158a5304 5304 0 0 1-71.495-52.673c-4.895-3.474-5.123-4.5-9.004-.334l-1.439-.252c7.506-12.507 26.915-31.416 39.132-39.114"/><path fill="#5b6369" d="m403.491 924.519 76.155 55.979c6.46 4.677 21.837 16.821 28.092 19.972l-.783-3.673c-4.351-4.869-9.176-9.859-13.659-14.657-.716-.635-.707-.594-1.257-1.374-6.375-6.889-13.953-16.303-20.184-23.643l.146-2.286c3.219 2.678 32.393 36.058 36.858 41.306l1.606-1.261c1.568 1.606 3.367 2.908 5.044 4.396l.454 2.242c-2.08 2.43-2.077 1.32-5.1 1.57-.299.82-.072.71.192 1.67-2.093-.76-2.059-.66-3.803-1.81-8.297-4.691-26.248-18.851-34.895-25.158a5304 5304 0 0 1-71.495-52.673z"/><path fill="#b8bcbf" d="M510.465 994.882c1.568 1.606 3.367 2.908 5.044 4.396l.454 2.242c-2.542-1.691-4.72-3.47-7.104-5.377zm-3.51 1.915 2.984 2.784c3.344 3.129.729 3.039-2.201.889z"/><path fill="#4c5054" d="m429.551 885.419.624 1.646c-3.756 2.661-7.211 5.32-10.857 8.117 3.248 3.757 6.523 7.216 9.68 11.064l-.002 2.669c-2.822-2.663-7.629-8.758-11.079-12.332-7.839 7.825-14.559 14.421-21.586 23.015a137 137 0 0 0 7.16 4.921l-2.629.6c-4.895-3.474-5.123-4.5-9.004-.334l-1.439-.252c7.506-12.507 26.915-31.416 39.132-39.114"/><path fill="#5b6369" d="M451.106 933.474c2.588 2.233 4.048 3.519 6.891 5.278 2.336 1.237 12.637 13.143 14.004 16.085-.755-.124-1.829-.209-2.563-.555-5.618-6.856-13.513-14.632-18.332-20.808"/><path fill="#fdfdfc" d="m657.666 954.766 2.224.822c5.24 14.647 6.991 23.742 9.469 39.081-23.552 4.209-103.591 10.971-130.344 14.471-.369.05-2.406-1.44-2.859-1.88 8.481-2.68 117.62-49.345 121.51-52.494"/><path fill="#fdfdfc" d="M532.309 1005.03c5.652-3.03 29.619-22.642 35.806-27.392 24.352-18.695 48.553-38.044 73.365-56.171 7.837 11.346 10.669 18.863 17.185 30.325q.629 1.893 1.225 3.796l-2.224-.822c-3.89 3.149-113.029 49.814-121.51 52.494l-1.099-.22-1.104-.18c-.974.36-2.323 1.2-3.374.67-1.254-.62 1.723-2.5 1.73-2.5"/><path fill="#4c5054" d="M655.355 954.393c1.025-.395 1.318-.155 2.311.373-3.89 3.149-113.029 49.814-121.51 52.494l-1.099-.22-1.104-.18c10.134-5.72 29.087-13.222 39.97-17.922 27.017-11.67 54.644-22.279 81.432-34.545"/><path fill="#7a7c7d" d="M658.665 951.792q.629 1.893 1.225 3.796l-2.224-.822c-.993-.528-1.286-.768-2.311-.373 1.118-.898 2.166-1.73 3.31-2.601"/><path fill="#fdfdfc" d="M391.858 924.785c3.881-4.166 4.109-3.14 9.004.334a5304 5304 0 0 0 71.495 52.673c8.647 6.307 26.598 20.467 34.895 25.158l-1.381 1.23c-28.529-9.823-95.405-37.622-125.616-52.415-1.85-.906-.734-3.127-.181-5.567l-.788-1.739c2.634-5.21 7.831-15.264 11.133-19.926z"/><path fill="#5b6369" d="m390.419 924.533 1.439.252c-1.097 2.933-9.77 18.713-11.784 21.413l-.788-1.739c2.634-5.21 7.831-15.264 11.133-19.926"/><path fill="#fdfdfc" d="M481.735 863.245c14.242-3.309 22.264-4.367 36.7-4.134-1.588 16.68.779 129.984-1.42 134.41l-.695.039c-.623-8.882-11.253-38.852-14.137-49.744-7.099-26.812-14.319-53.462-20.448-80.571m108.955 13.243c6.952 4.07 21.203 12.797 25.576 18.922l-1.107 2.147 2.148-.099a3861 3861 0 0 1-63.243 76.074c-6.633 7.808-12.216 15.778-19.414 23.795l-.579.713-1.752-.728-1.116 1.05c-1.619 1.571-2.205 2.108-4.396 2.528 7.702-10.822 18.874-34.316 25.104-46.857 12.92-26.008 25.073-51.834 38.779-77.545"/><path fill="#4c5054" d="m615.159 897.557 2.148-.099a3861 3861 0 0 1-63.243 76.074c-6.633 7.808-12.216 15.778-19.414 23.795l-.579.713-1.752-.728c22.262-27.378 45.18-54.164 67.389-81.588 4.767-5.887 10.23-12.769 15.451-18.167"/><path fill="#fdfdfc" d="M520.952 859.059c13.393.109 22.207 1.428 35.344 4.251-10.755 40.917-20.151 81.336-30.314 122.334-1.684-.163-3.226-.833-4.863-1.244a9662 9662 0 0 1-.167-125.341m-72.918 16.992c11.415-5.577 19.689-8.528 31.8-12.286 10.246 44.369 20.94 81.826 33.905 125.433l-2.031 2.679c-10.135-15.458-21.128-36.627-30.131-53.025-11.251-20.493-23.237-41.955-33.543-62.801m-17.859 11.014c5.184-3.262 11.012-7.106 16.271-10.113 20.312 40.16 42.378 78.626 64.019 117.93l-1.606 1.261c-4.465-5.248-33.639-38.628-36.858-41.306-1.367-2.942-11.668-14.848-14.004-16.085-2.843-1.759-4.303-3.045-6.891-5.278-1.963-2.422-3.626-4.231-5.725-6.485-1.129-.608-.978-.626-1.703-1.877-3.825-4.176-11.039-12.629-14.682-16.197l.002-2.669c-3.157-3.848-6.432-7.307-9.68-11.064 3.646-2.797 7.101-5.456 10.857-8.117"/><path fill="#5b6369" d="M428.998 906.246c5.16 5.477 25.573 27.247 28.999 32.506-2.843-1.759-4.303-3.045-6.891-5.278-1.963-2.422-3.626-4.231-5.725-6.485-1.129-.608-.978-.626-1.703-1.877-3.825-4.176-11.039-12.629-14.682-16.197z"/><path fill="#fdfdfc" d="m621.718 896.558.711.718c6.195 5.425 13.558 13.47 18.304 20.233l-.902 1.822c-5.848 5.924-34.504 27.363-42.768 33.414-19.688 14.414-40.602 32.331-60.088 46.243l-2.325-1.661c7.198-8.017 12.781-15.987 19.414-23.795a3861 3861 0 0 0 63.243-76.074l1.892-.263z"/><path fill="#4c5054" d="M622.429 897.276c6.195 5.425 13.558 13.47 18.304 20.233l-.902 1.822c-2.741-3.769-5.471-6.76-8.414-10.349-2.927-5.265-8.477-6.352-8.988-11.706"/><path fill="#959399" d="m621.718 896.558.711.718c.511 5.354 6.061 6.441 8.988 11.706-1.736-.902-10.254-9.825-12.218-11.787z"/><path fill="#4c5054" d="m532.319 997.312 1.752.728.579-.713 2.325 1.661c-2.13 1.842-2.781 2.362-4.638 4.462l-.028 1.58c-.007 0-2.984 1.88-1.73 2.5 1.051.53 2.4-.31 3.374-.67l1.104.18c-2.305 2.17-5.661 4.1-8.622 6.94-2.35.17-3.097.25-5.4.78l-1.826.24c-4.776-1.53-21.18-.99-27.352-.99-.493-.13-3.232-.49-3.22-1.31-.109.08 13.064-1.42 14.12-1.21 5.167 1.05 6.074-.84 8.406-4.82.389-.12.778-.25 1.167-.37-.366-.56-.8-1.03-1.275-1.54-.264-.96-.491-.85-.192-1.67 3.023-.25 3.02.86 5.1-1.57l-.454-2.242 1.109-1.98c.646.769 1.312 1.54 1.935 2.324 1.557-.161 1.641-.326 3.221-1.005.658.471 1.662 1.453 2.236 1.983 1.46.27 1.478.35 2.797.29 2.191-.42 2.777-.957 4.396-2.528z"/><path fill="#ece8e3" d="m534.65 997.327 2.325 1.661c-2.13 1.842-2.781 2.362-4.638 4.462-.341.09-2.459 1.01-2.84.1.109-.91 3.717-4.453 4.574-5.51z"/><path fill="#b8bcbf" d="M518.435 859.111c1.182 9.621.789 47.955.444 58.861-.815 25.771.843 56.451-.326 81.65-.623-.784-1.289-1.555-1.935-2.324-2.916-2.162-3.241-2.096-4.91-5.421l2.031-2.679 1.093 4.46.942.328.546-.426.695-.039c2.199-4.426-.168-117.73 1.42-134.41"/><path fill="#5b6369" d="M664.059 857.037c-.149-3.083-.745-25.991.578-27.149 1.944.631 1.502 16.335 1.23 19.11-1.269 12.961 4.505 6.075 8.15 8.493.217.771.192.41.143 1.077-.771.821-4.041.69-5.09.723q-1.668.045-3.335.117l-1.73 2.514-.631-2.892q.337-.998.685-1.993"/><path fill="#ece8e3" d="M521.119 984.4c1.637.411 3.179 1.081 4.863 1.244-1.264 6.183-2.064 8.777-1.972 14.956-.574-.53-1.578-1.512-2.236-1.983-.385-5.006-.557-9.204-.655-14.217"/><path fill="#b8bcbf" d="M662.182 955.241c1.675-10.553-.497-22.976 1.578-33.786.171 5.418.729 33.028-.062 36.667l-.256.27c-.937-.725-1.094-2.051-1.26-3.151"/><path fill="#ece8e3" d="M507.252 1002.95c1.744 1.15 1.71 1.05 3.803 1.81.475.51.909.98 1.275 1.54-.389.12-.778.25-1.167.37-2.695-.95-2.934-.93-5.292-2.49z"/><path fill="#fdfdfc" d="M663.326 1065.69c1.03 4.56.633 28.43.609 34.61l.003 62.97c-37.382.42-75.26-.04-112.696.02l-.122-1.18c1.934-2.07 14.159-5.25 17.728-6.59 48.682-18.33 72.607-44.61 94.478-89.83M377.431 952.551c7.535 4.798 34.757 16.397 44.224 20.09 28.559 11.143 60.814 25.856 89.552 35.569-3.683.22-8.199.09-11.957.08-43.738-1.44-91.526-9.519-133.65-10.389 3.367-19.03 4.708-27.327 11.831-45.35m.593 123.219c5.843 14.09 17.758 29.84 28.158 40.89 2.182 1.71 2.864 1.99 4.204 4.31 26.796 24.85 45.353 30.89 78.757 41.7-31.189 2.04-78.801.48-110.682.33.388-29.08.242-58.16-.437-87.23m180.572-211.762c11.872 3.009 19.137 6.084 30.07 11.569-3.486 8.492-11.444 22.986-15.815 31.822a4227 4227 0 0 1-35.063 70.011c-3.209 6.781-9.221 16.778-13.024 23.58 12.035-45.681 20.289-90.868 33.832-136.982m108.025 133.53c1.383-.446.531-.339 2.561.285 1.33 3.807.942 10.157.943 14.417l-114.375-.36c-2.157-.27-1.193.13-2.896-1.19 3.564-2.57 100.679-11.818 113.767-13.152m-300.825 2.258c26.731.574 84.774 7.614 114.036 10.124l1.851 1.92c-38.869-.06-77.738.11-116.604.52.071-4.11.44-8.44.717-12.564"/><path fill="#5b6369" d="M1375.3 856.818c0-5.907-.88-23.836 1.41-27.867l.86.561c.32 9.125.4 18.256.23 27.385l89.89-.2c16.13.022 35.4.646 51.32-.015 3.25-4.35-.11-6.02 2.41-7.44.52 4.307-.1 5.088 2.42 7.355 12.06 1.017 34.79.316 47.49.298l91.08-.105c0-9.283-.24-16.864 1.35-26.074 1.49 1.918 1.17 22.327 1.12 26.196 4.54-.073 9.92-.621 14 .928-3.61 1.993-9.63 1.456-13.93 1.418l.07 153.302c5.84-.01 10.68-.48 16.15 1.43-5.51 1.54-10.39 1.28-16.12.58l-.31 148.7c4.35-.09 10.18-.65 14.07.8-3.57 2-9.78 1.58-13.99 1.53-.17 7.59-.09 16.25-1.44 23.62-1.76-4.1-1.03-18.87-.85-23.71l-90.88.01c-11.39-.01-37.48-.62-47.65.69-3.63 5.55.74 7.35-2.88 8.58-1.29-5.33.65-4.9-2.1-8.56-5.42-1.07-26.27-.7-32.98-.81-36.23-.34-72.47-.43-108.71-.28-.08 8.1.01 16.26-.92 24.29-1.67-6.99-1.35-16.94-1.27-24.22-4.38.05-9.43.57-13.32-1.01 3.27-1.85 9.52-1.24 13.48-1.15l-.44-138.2c-7.08-2.58-9.01-2.3-12.17-9.7-.07-.93-.09-1.84-.29-2.74l.25-1.12c1.38-6.4 5.37-9.52 11.81-10.6 1.39-47.192 1.69-94.405.9-141.606-4.24.028-9.74.499-13.5-1.038 2.76-1.765 9.9-1.265 13.44-1.228"/><path fill="#fdfdfc" d="M1376.83 1001c1.4-78.25 65.23-140.008 143.19-140.292l.16 151.782-131.86-.29c-3.42-7.11-3.94-8.46-11.49-11.2m11.7 12.8c42.23 1.98 88.87-.37 131.75 1.05l-.07 52.57-136.4-.43c-3.64-12.1-6.23-28.98-6.55-41.78 8.34-3.78 5.46-5.94 11.27-11.41"/><path fill="#b43438" d="m1362.4 1012.41.25-1.12c1.38-6.4 5.37-9.52 11.81-10.6l2.37.31c7.55 2.74 8.07 4.09 11.49 11.2l.21 1.6c-5.81 5.47-2.93 7.63-11.27 11.41l-2.4-.36c-7.08-2.58-9.01-2.3-12.17-9.7-.07-.93-.09-1.84-.29-2.74"/><path fill="#adaaaa" d="M1665.05 1014.57c4.56-.84 11.01-.36 16.12-.58-5.51 1.54-10.39 1.28-16.12.58"/><path fill="#fdfdfc" d="M1522.26 860.484c38.01 1.13 71.62 15.34 98.13 42.484 31.68 32.439 42.67 64.777 42.48 109.312-44.87 1.13-95.07.11-140.37.21zm.74 154.206c6.44-1.19 20.41-.94 27.1-.51 37.09-.04 75.79-.64 112.75.16.19 40.9-12.75 76.68-42.04 105.93a146.24 146.24 0 0 1-98.07 42.6z"/><path fill="#b8bcbf" d="M1523 1014.69c6.44-1.19 20.41-.94 27.1-.51-5.99.66-21.19.89-27.1.51"/><path fill="#fdfdfc" d="M1385.26 1069.38q67.68-.375 135.36.3l-.29 93.04c-54.16 1.45-118.94-40.78-135.07-93.34m164.48-207.577c-1.17-.3-2.49-.385-3.12-1.53.22-1.514 7.25-1.338 8.53-1.366 35.55.714 72.18-.586 107.33.356l.01 69.786c.01 13.864.47 30.494-.65 44.013-16.52-57.46-52.36-97.704-112.1-111.259"/><path fill="#ece8e3" d="M1549.74 861.803c-1.17-.3-2.49-.385-3.12-1.53.22-1.514 7.25-1.338 8.53-1.366a86 86 0 0 0-5.41 2.896"/><path fill="#fdfdfc" d="M1660.73 1055.5c.08.07.17.13.24.21 3.37 4.38 1.53 94.61 1.52 107.51-37.03.4-74.7-.71-111.54.09-.85-.84-.56-.3-.65-1.72 13.67-4.32 22.29-5.94 35.41-13.14 39.9-21.9 61.43-50.7 75.02-92.95m-282.91-196.419 108.7-.003c1.68.957 1.77 1.07 3.37 2.294-56.34 14.408-92.78 49.595-110.69 104.431-.17 1.063-.21 3.019-1.28 3.671-1.53-.46-.69-7.347-.52-8.834 1.98-27.526.53-72.716.42-101.559"/><path fill="#b8bcbf" d="M1379.2 965.803c-.17 1.063-.21 3.019-1.28 3.671-1.53-.46-.69-7.347-.52-8.834.61 2.274.84 3.005 1.8 5.163"/><path fill="#fdfdfc" d="M1377.64 1059.39c1.72 1.26 10.52 21.79 12.21 25.13 16.59 32.69 42.83 55.84 76.82 69.36 4.81 1.91 18.41 5.28 21.72 8.25-10.5 3.05-94.47.9-110.89.86.24-34.53.29-69.07.14-103.6"/><path fill="#ece8e3" d="M1486.52 859.078c2.32-.023 7.85-.307 9.76.315l.18.19c-.06.111-.11.223-.17.334l-.65-.374-.26.851c-1.51.549-3.79.68-5.49.978-1.6-1.224-1.69-1.337-3.37-2.294"/><path fill="#5b6369" d="M340.756 856.956c-.057-9.246-.316-17.103.985-26.312 1.349 2.355 1.12 22.232 1.085 26.265 3.58-.029 7.639-.466 10.724 1.049-2.598 1.63-7.201 1.123-10.529 1.132l.181 153.36c6.598-.72 12.985-.32 19.63-.6l-1.288 1.23.533 1.06-18.905.08-.125 148.81c3.712-.07 7.566-.58 10.621 1.07-3.234 1.51-7.022 1.11-10.684 1.09-.012 4.17.172 21.3-1.614 24.34-.919-8.42-.662-15.97-.545-24.4-15.347.01-135.733-.9-139.388 1.63l-.671 5.73-1.229.77c-1.223-2.55-.9-2.15-1.046-5.11l-.039-.91c-4.146-3.38-124.883-2.1-141.358-2.13.019 4.99.223 19.65-1.05 23.86-1.595-8.42-1.253-15.28-1.168-23.79-4.984.06-8.946.05-13.978-.27l-1.252-1.17-.233.95-.8-.85-.542.55-.01-.6c.83.78.314.52 1.607.65l.72-1.09c3.633-.54 10.616-.31 14.535-.3l.398-148.33c-4.135.08-7.655.52-11.505-.84 3.251-1.51 7.87-1.19 11.594-1.27-.678-6.46-.444-14.526.296-20.959-.675-43.91.636-88.906-.406-132.581-4.32.008-10.528.229-14.634-.406l-.826-1.081-.569.068.158.791-1.208-.564 2.79-.646-1.553.174-.163.799.575.07 1.279-1.149c5.04-.298 9.01-.335 14.02-.291-.022-8.82-.152-16.647.784-25.469 1.71 5.221 1.446 19.837 1.435 25.583 42.326-.023 98.878-1.754 140.25.621 2.905-4.253-.432-6.625 2.371-8.912 2.799 3.572-.947 4.688 2.346 8.599 45.545.485 92.703-.264 138.401-.301"/><path fill="#adaaaa" d="m362.832 1011.85-1.288 1.23c-5.445-.24-13.874.49-18.342-.63 6.598-.72 12.985-.32 19.63-.6"/><path fill="#959399" d="M55.41 1012.61c-.678-6.46-.444-14.526.296-20.959.278 6.689.503 14.339-.296 20.959"/><path fill="#fdfdfc" d="m200.915 860.907 3.156.016c70.505.556 130.738 63.731 136.476 131.999.536 6.379.417 13.098.331 19.498l-140.533.01q-.245-75.765.57-151.523m-12.346.498c1.728-.371 8.082-.429 10.133-.493.415 49.75-.672 101.378-.684 151.418l-128.962-.13-11.654.11c.436-21.383 1.69-37.328 9.783-57.487 20.876-52.007 65.558-88.065 121.384-93.418M57.657 1014.17c46.34-.55 94.004-.23 140.378.06-.29 49.25.418 99.07.627 148.37-80.463-.34-139.813-70.2-141.005-148.43m142.609-.06c45.86-.35 94.955-.7 140.686.27l.043 3.42c.292 39.64-15.587 74.77-43.164 102.78-29.469 27.29-56.83 39.95-96.903 42.08z"/><path fill="#fdfdfc" d="M57.61 859.154c38.577-.021 80.835-.868 119.118.679-34.632 10.032-52.148 17.469-78.438 43.197-22.691 23.713-30.77 42.765-40.214 73.377-.99-13.638-.456-32.139-.411-46.165q.15-35.544-.055-71.088m-.22 186.656c.96.89 8.455 24.11 9.808 27.36a159.8 159.8 0 0 0 31.437 47.79c10.525 11.02 24.112 19.79 37.116 27.56 7.924 4.73 30.427 10.17 33.665 14.1-6.01 1-29.824.6-37.108.6l-75.205-.06c.183-38.44 1.188-79.09.287-117.35m178.374-186.363c33.96-.951 70.786-.289 104.964-.327-.121 13.479 1.069 109.638-1.267 112.893l-1.18-2.241c-11.724-51.493-56.572-95.249-107.285-107.515-2.699-.652-2.038.122-4.223-1.753 2.194-1.214 6.184-.961 8.991-1.057m-5.124 301.133c32.404-6.09 69.137-33.41 87.032-60.65 12.79-19.47 17.523-31.4 22.61-53.63 1.771 35.93.571 80.11.58 116.77-33.739-.04-75.896-1.32-108.93.1z"/><path fill="#b8bcbf" d="M231.932 1163.17c-.774.11-8.84 2.26-9.411.7-.389-1.06 4.156-2.03 5.119-2.28l3-1.01z"/><path fill="#363838" d="M1281.2 1382.68c7.31-1.42 25.79-.9 34.02-.88l58.88.11 56.3.13c8.04.02 21.86-.35 29.41.45l.76 1.11.56-.11-.53-.88 1.34.71c-8.11 1.99-62.95 1.47-74.91 1.07-21.46-.7-55.12 1.12-75.68-.21-8.81-.97-21.31-.62-30.48-.72z"/><path fill="#181718" d="M202.326 828.215c-15.62 7.904-15.024-17.96-1.791-11.594l1.525.638c.894-.066 2.378-.578 3.283-.847 4.293-3.462 16.038 1.853 8.656 6.878-1.779 1.211-4.832.196-5.938 2.244-1.004 2.242.767 3.53-2.699 4.231z"/><path fill="#181718" d="M205.343 816.412c4.293-3.462 16.038 1.853 8.656 6.878-1.779 1.211-4.832.196-5.938 2.244-1.004 2.242.767 3.53-2.699 4.231l-3.036-1.55c.713-5.281 1.075-5.91-.266-10.956.894-.066 2.378-.578 3.283-.847"/><path fill="#ece8e3" d="M202.06 817.259c.894-.066 2.378-.578 3.283-.847-.041 4.493-.177 8.863.019 13.353l-3.036-1.55c.713-5.281 1.075-5.91-.266-10.956m6.382 1.377a2.6 2.6 0 1 1 4.491 2.62 2.6 2.6 0 0 1-4.491-2.62"/><path fill="#fdfdfc" d="M194.681 817.305c8.327 1.678 6.768 4.347 4.105 11.204-5.348-2.218-7.078-4.191-4.647-9.873z"/><path fill="#181718" d="M1521.96 826.333c-3.42 3.532-10.36 5.877-11.73 2.042-4.76-13.317 2.18-14.241 10.21-12.154.59 3.606.77 6.489 1.52 10.112"/><path fill="#fdfdfc" d="M1512.73 816.505c7.6 1.918 7.31 4.789 4.7 12.114-7.59-2.154-7.65-4.841-4.7-12.114"/><path fill="#181718" d="M514.898 814.813c10.658.97 11.039 6.42 7.105 15.684-10.869-1.131-13.554-6.341-7.105-15.684"/><path fill="#fdfdfc" d="M515.909 816.18c7.539 2.327 5.921 4.787 4.335 12.445-8.005-2.649-7.046-5.123-4.335-12.445"/><path fill="#181718" d="M1843.2 815.645a6.96 6.96 0 0 1 6.99 1.331 6.98 6.98 0 0 1 2.17 6.78 6.962 6.962 0 0 1-13.41.542 6.96 6.96 0 0 1 4.25-8.653"/><path fill="#fdfdfc" d="M1844.02 816.205c6.54 2.17 6.02 5.099 3.51 11.36-7.69-1.629-6.84-4.956-3.51-11.36"/><path fill="#181718" d="M1495.16 816.697c3.62-4.059 13.3-.208 11.37 2.716-3.14 4.791.86 8.685-.69 10.281-2.93.343-3.83-11.127-7.8-4.219-.69 1.202.56 1.8-1.44 4.231l-.05.012-.02-.065-.89-.367c-.45-1.724-.54-4.605-.67-6.416l-1.82-.162c-.22-2.715-.08-2.748.53-5.459z"/><path fill="#ece8e3" d="M1495.16 816.697c.01 2.172-.06 3.991-.19 6.173l-1.82-.162c-.22-2.715-.08-2.748.53-5.459zm3.55 1.011a2.5 2.5 0 0 1 2.19-1.076 2.48 2.48 0 0 1 2.06 1.298c.6 1.081.31 2.433-.67 3.184-.97.752-2.35.68-3.24-.17a2.496 2.496 0 0 1-.34-3.236"/><path fill="#181718" d="M1826.15 816.381c3.43-3.454 13.46-.976 11.01 2.58-2.3 3.332 1.04 12.852-2.87 9.059-.6-.576-.25-4.311-2.43-4.808-4.48-.807-1.31 4.238-4.49 5.824-.91-1.988-.9-3.829-1.18-5.985l-2.66-.41c.29-1.969.57-3.876.81-5.854z"/><path fill="#ece8e3" d="m1824.34 816.787 1.81-.406c.08 2.317.08 4.356.04 6.67l-2.66-.41c.29-1.969.57-3.876.81-5.854m5.36.805a2.48 2.48 0 0 1 3.46-.65 2.49 2.49 0 0 1 .63 3.462 2.49 2.49 0 0 1-3.45.627 2.48 2.48 0 0 1-.64-3.439"/><path fill="#181718" d="M1524.03 816.036c10.86-3.638 12.1 7.557 5.92 8.432-8.39 1.187-.48 3.932-5.68 5.428l-2.31-3.563c-.75-3.623-.93-6.506-1.52-10.112 1.76 1.107 1.79.74 3.59-.185"/><path fill="#ece8e3" d="M1520.44 816.221c1.76 1.107 1.79.74 3.59-.185-.27 5.347-.24 8.537.24 13.86l-2.31-3.563c-.75-3.623-.93-6.506-1.52-10.112m6.68 1.453a2.57 2.57 0 0 1 3.44 1.093 2.569 2.569 0 0 1-3.63 3.38 2.57 2.57 0 0 1-1.21-2.293 2.58 2.58 0 0 1 1.4-2.18"/><path fill="#181718" d="M499.05 815.003c2.98.063 13.019-.41 10.069 5.496-2.206 4.416 1.923 7.39-.001 9.092-.556-.067-.571-.222-.994-.721-1.131-1.714-2.443-4.307-4.309-5.19-3.28.91-.86 5.343-3.444 6.13-2.175-.593-1.345-12.847-1.321-14.807"/><path fill="#ece8e3" d="M502.521 817.583a2.423 2.423 0 1 1 3.33 3.52 2.423 2.423 0 0 1-3.33-3.52"/><path fill="#181718" d="M177.613 815.331c2.832.072 12.394-.745 10.578 4.655-.78 2.316.59 9.475-1.621 9.703-.154-.631-.148-.816-.06-2.081-5.838-10.169-4.867 1.486-7.353 2.111l-.771-1.368.089.354c-.789-2.196-.739-10.288-.862-13.374m308.579-.266c2.824.081 8.421-.572 10.314 2.394 1.619 2.539-.695 5.05-2.944 6.101l-2.93 1.335c-3.15.24-.642 3.267-2.715 4.823-2.974.424-1.759-12.751-1.725-14.653"/><path fill="#ece8e3" d="M489.197 818.59a2.285 2.285 0 1 1 4.12 1.98 2.285 2.285 0 0 1-4.12-1.98"/><path fill="#181718" d="M165.152 815.078c8.473.749 17.979 5.147 5.083 9.22l-1.712.581c-.263.373-1.145 6.774-2.71 4.411-1.54-2.328-.748-11.208-.661-14.212"/><path fill="#ece8e3" d="M167.987 818.621a2.416 2.416 0 1 1 4.257 2.286 2.416 2.416 0 0 1-4.257-2.286"/><path fill="#181718" d="M1823.53 822.641c-1.59.299-5.15 1.078-6.53 1.909-.94.567.97 4.76-1.5 4.563-.27-.021-1-.186-1.08-.517-.63-3.029-.78-9.162-.29-12.144.53-3.222 7.47-1.063 9.08-.221l1.13.556c-.24 1.978-.52 3.885-.81 5.854"/><path fill="#ece8e3" d="M1817.25 817.577a2.39 2.39 0 0 1 3.3.134c.88.92.89 2.374 0 3.297-.6.632-1.5.882-2.35.651a2.39 2.39 0 0 1-1.69-1.759c-.2-.852.09-1.744.74-2.323"/><path fill="#181718" d="M1493.15 822.708c-7.91 2.928-7-.96-8.25 6.355-.13.734-.32.3-.57.543-.44-.336-8.81-19.999 9.35-12.357-.61 2.711-.75 2.744-.53 5.459"/><path fill="#ece8e3" d="M1486.75 817.654a2.33 2.33 0 0 1 3 .765 2.339 2.339 0 0 1-2.87 3.455 2.35 2.35 0 0 1-1.4-2.066 2.33 2.33 0 0 1 1.27-2.154"/><path fill="#181718" d="M1854.54 814.828c9.13.308 16.3 3.43 5.07 10.052-4.87-1.127-1.46 4.775-4.05 4.035-1.57-1.915-1.02-11.115-1.02-14.087"/><path fill="#ece8e3" d="M1857.61 817.576c.69-.67 1.7-.884 2.6-.55s1.53 1.155 1.62 2.111c.08.957-.39 1.878-1.22 2.367a2.483 2.483 0 0 1-3.24-.63 2.49 2.49 0 0 1 .24-3.298"/><path fill="#181718" d="M527.236 815.007c12.17.76 14.319 5.719 2.624 10.445-.069 1.48.024 3.368-1.413 4.296l-.752-.349c-.907-2.148-.452-11.547-.459-14.392"/><path fill="#ece8e3" d="M531.491 817.563a2.228 2.228 0 1 1 1.315 4.258 2.228 2.228 0 0 1-1.315-4.258"/><path fill="#181718" d="m1881.95 827.115.42-1.546c.82-3.075 1.89-9.37 5.05-10.634l-.36.334.59.365c-.07.548-.15 1.095-.22 1.642-.74 2.348-2.86 10.912-4.11 12.047-4.57 4.151-6.77-13.381-6.81-14.662 3.47 2.563 4.08 8.126 5.44 12.454m-327.12-1.42c.54-1.612 2.94-10.474 4.98-10.45 1.1.76.61 1.852.32 2.983-1.93 5.643-3.52 9.033-6.01 14.439-1.29-4.635-4.39-13.704-4.62-17.963 3.44 2.723 3.4 6.042 5.33 10.991"/><path fill="#cb8880" d="M1346.74 1012.45c3.48-.06 12.74.22 15.66-.04.2.9.22 1.81.29 2.74-4.58-.41-10.79-.19-15.56-.2z"/><path fill="#363838" d="M547.743 815.332c4.039 2.957 2.32 10.631 1.609 15.22-3.798-3.606-2.05-10.056-1.609-15.22"/><path fill="#181718" d="M553.54 814.343c3.166 4.596 2.055 11.425.985 16.686-2.624-4.82-1.925-11.328-.985-16.686m991.7.266c2.13 4.876 1.26 10.917-.35 15.851-1.99-4.168-1.07-11.579.35-15.851m-1316.926 1.012c3.466 2.903 1.913 10.384 1.673 14.844-3.652-2.976-1.994-10.311-1.673-14.844"/><path fill="#4c5054" d="M1867.72 827.196c.56-.027.37-.072.66.056.04.32.05.079-.24.893l-1.08-.064-.02-.085c.2-.363.03-.119.68-.8"/><path fill="#7a7c7d" d="M541.151 828.903c.663-.129.523.02 1.094.372l-.62.057c-.329-.164-.165-.036-.474-.429"/><metadata><recraft-signature>{&quot;signed_by&quot;: &quot;recraft&quot;, &quot;signature_b64&quot;: &quot;N5HyBtH72jO6gzuVk/947ZR8NQ1xKwW60KYc7QUuCnkzW+BSI4/Nij6td8bRQ/bxsIz6eK7LBwdgL/axLDeWAw==&quot;, &quot;signing_algo&quot;: &quot;Ed25519&quot;, &quot;generation_timestamp&quot;: 1777253666, &quot;identifier&quot;: &quot;584b7448-9acf-448c-95ca-d2e66f27dab3&quot;}</recraft-signature></metadata></svg>