<svg xmlns="http://www.w3.org/2000/svg" width="1024" height="1024" preserveAspectRatio="none" style="display:block" viewBox="0 0 2048 2048"><path fill="#0a2230" d="M1017.87 115.485c10.34 18.873 22.98 37.736 32.53 55.707-4.39 7.743-9.33 15.714-13.91 23.388 1.27 3.182 2.69 5.78 4.27 8.8 5.9-8.847 12.69-18.472 17.54-27.826 3.93-6.451 3.82-4.686 4.42 1.749-1.85 19.76-.43 51.088.22 71.647.19 6.029 5.71 22.064 7.29 29.116 2.99 13.373 4.94 26.647 8.28 40.011 1.75 7.017 4.09 16.121 5.76 23.287.28 1.188-1.26 2.924-2.06 3.967.07 5.503 4.34 27.304 5.59 34.379l13.58 75.276 36.02 198.384c3.87 20.96 7.26 42.607 11.37 63.41 1.89 9.678.18 7.142-8.87 13.122l3.09 2.136c3.3 2.416 6.7 4.685 10.04 7.043l2.17 11.909c2.13 11.673 4 23.227 6.29 34.898 3.3 16.223 6.96 33.742 9.38 50.119.71 4.809 2.35 10.891 2.95 15.514 1.13 8.835 5.54 5.039 5.27 13.458-.11 3.491 1.1 10.122 1.06 14.549.5 4.893 1.04 16.271 1.81 20.03 4.01 19.703 6.67 26.621 7.07 47.178.15 3.902.41 7.529.64 11.415 4.79-3.331 8.38-5.824 13.36-8.825.03 5.221-.21 68.004.48 67.194-.87-.08-1.6-.33-2.44-.53-2.47 7.81 9.89 34.36 5.02 46.4.86 4.08 2.61 5.19 6.13 8.29 8.4 44.39 16.49 88.83 24.26 133.34 5.92 35.62 12.89 70.31 19.56 105.65 3.51 17.47 6.39 35.02 9.9 52.47-2.86-2.52-6.07-5.19-8.62-7.98-8.02 17.22-11.52 32.67-16.49 50.98l16.04-6.17c-8.65 21.57-17.1 43.23-25.34 64.97l-1.98-3.54c3.26-22.12.3-24.12-7.75-45.41-4.72 6.72-8.33 11.63-13.6 17.9 2.31-15.13 4.63-29.53 6.7-44.75-9.79-7.31-17.11-12.24-27.62-18.41 2.27-7.93 5.94-17.4 8.78-25.3-7.43-6.84-10.54-10.15-15.82-18.66-8.99 3.79-18.44 8.2-27.41 12.19-2.38 7.12-4.19 8.54-10.38 12.77-8.92 5.92-19.76 13.46-28.81 18.75 8.95 7.18 16.71 15.02 25.43 21.37 1.66 14.72 1.66 28.44 3.48 43.68 7.57 5.26 9.63 4.24 7.18 12.87l-2.85 1.3c-3.92-.25-30.79-28.55-35.33-32.99a5725 5725 0 0 0-81.09-77.06c-10.8-10.09-37.265-33.53-45.022-43.94l-1.735-2.01c8.062-7.54 15.762-11.81 23.497-18.48l1.45-1.22c-8.41-.04-16.824.04-25.234.25-3.498-10.97-6.889-22.41-11.901-32.68-6.816 3.11-14.145 6.26-20.849 9.43-12.379 6.11-24.453 10.79-37.272 15.91 5.11 6.33 10.529 11.93 16.104 17.83-14.727 29.73-11.534 24.24-12.645 55.71.179 5.75.519 15.15-.327 21.05-.018.13-.347.25-.484.2-1.038-.33-1.333-3.01-1.53-3.8-2.099-6.9-7.021-22.95-10.934-28.41-14.339-19.97-41.683-42.31-60.185-59.44q-1.028 7.41-1.785 14.85c-5.308-9.9-11.427-19.46-16.87-29.74 13.762-4.54 25.571-10.31 38.579-16.52a435 435 0 0 1-24.673-43.59c-1.309 6.55-1.702 13.05-2.264 19.7-10.472-21.63-23.491-44.5-34.892-65.89l-2.807 3.02.55 21.32c-4.537 5.03-12.27 13.11-16.074 18.31l12.863 14.59a327 327 0 0 0-2.158 18.62l.268 11.34c.105 5.22-2.089.64-2.755-1.29-3.26-6.56-6.209-17.76-10.041-26.12-13.13 24.47-26.386 53.99-40.235 76.93 3.471-15.07 9.088-32.85 13.265-48.04a6078 6078 0 0 1 34.494-122.7c19.545-69.27 37.928-141.921 58.453-210.662 6.358-27.64 17.961-67.604 26.364-95.066 11.332-49.926 29.156-103.077 41.585-152.901 3.42-13.71 2.04-23.682 5.888-38.156 16.944-63.723 34.799-127.257 52.096-190.891l26.936-99.733c5.07-18.097 13.67-45.289 16.68-63.007 1.83-10.753 1.04-42.017.97-54.491-.32-31.148-.3-62.3.04-93.448"/><path fill="#e99652" d="M815.822 1027.34c32.022 31.93 72.234 66.97 106.014 98.32 9.208 8.53 18.301 17.18 27.278 25.96 4.423 4.33 10.188 10.92 14.828 14.27l1.465.41c3.257.38 6.678 13.68 8.349 17.69 2.207.51 17.969 3.17 18.607 3.86.095.41-.015.57-.118 1.01.177 1.6.269 3.17.7 4.71 35.155 32.23 71.005 72.43 104.495 106.95 14.32 14.76 29.08 33.15 43.67 47.03l1.34 3.18c-8.92 5.92-19.76 13.46-28.81 18.75 8.95 7.18 16.71 15.02 25.43 21.37 1.66 14.72 1.66 28.44 3.48 43.68 7.57 5.26 9.63 4.24 7.18 12.87l-2.85 1.3c-3.92-.25-30.79-28.55-35.33-32.99a5725 5725 0 0 0-81.09-77.06c-10.8-10.09-37.265-33.53-45.022-43.94l-1.735-2.01c8.062-7.54 15.762-11.81 23.497-18.48l1.45-1.22c-8.41-.04-16.824.04-25.234.25-3.498-10.97-6.889-22.41-11.901-32.68-6.816 3.11-14.145 6.26-20.849 9.43l-3.35-1.4c-5.69-4.52-10.705-9.66-16.049-14.56-46.419-42.55-89.924-88.02-135.251-131.68 2.513-16.42 14.667-58.22 19.806-75.02"/><path fill="#0a2230" d="M965.407 1166.3c3.257.38 6.678 13.68 8.349 17.69 2.207.51 17.969 3.17 18.607 3.86.095.41-.015.57-.118 1.01-4.168 4.37-9.29 7.89-13.976 11.78 1.992 7.78 4.596 16.35 6.89 24.08-8.879-8.74-7.19-8.21-18.103-13.57-8.979 4.31-9.009 4.26-16.805 10.5 1.078-7.32 2.327-14.57 3.39-21.92-6.801-4.6-12.62-8.55-18.706-14.17 7.305-.56 15.312-1.32 22.508-1.78 2.821-5.87 5.33-11.52 7.964-17.48"/><path fill="#14181a" d="M947.316 1248.6c9.722-4.13 16.555-7.15 26.08-11.69 4.802 9.62 9.398 23.02 12.352 33.45 6.071-.27 12.31-.38 18.252-.56 3.52-.19 7.43-1.29 10.73.54.71.4.45 1.54-.12 1.91-10.37 6.76-19.619 14.71-29.172 22.46l-1.735-2.01c8.062-7.54 15.762-11.81 23.497-18.48l1.45-1.22c-8.41-.04-16.824.04-25.234.25-3.498-10.97-6.889-22.41-11.901-32.68-6.816 3.11-14.145 6.26-20.849 9.43zm193.794 98.95 1.34 3.18c-8.92 5.92-19.76 13.46-28.81 18.75 8.95 7.18 16.71 15.02 25.43 21.37 1.66 14.72 1.66 28.44 3.48 43.68 7.57 5.26 9.63 4.24 7.18 12.87l-2.85 1.3c1.43-9.7 1.59-6.73-6.7-12.38-1.82-15.35-2.4-28.61-3.76-43.61-6.82-5.43-21.83-16.82-27.41-22.47 7.52-4.84 26.34-16.94 32.1-22.69"/><path fill="#e99652" d="m966.163 1058.25-1.268-1.36c1.718-3.42 61.555-62.507 69.915-69.822 25.13 29.562 46.98 61.622 70.41 92.472 8.96 11.79 22.72 33.35 32.24 43.15 17.7 18.24 41.14 36.58 60.08 54.09 5.22 4.83 32.12 28.98 36.05 31.06l2.89-3.82c5.92 35.62 12.89 70.31 19.56 105.65l-.82 8.46c-.17.07-.32.19-.49.2-5.27.1-36.79-30.66-41.96-36.07l-1.36 1.49c-6.47-4.91-20.18-15.88-25.99-21.26.19-1.38.29-1.94.31-3.27a336 336 0 0 1-27.25-22.69c-13.99-13.05-120.49-119.23-121.92-124.47l1.99-3.82c-17.09 2.48-34.3 4.12-51.551 4.92l-.152-13.44c-3.05-2.66-7.646-5.55-11.091-7.87 2.634-2.68 4.505-5.12 6.851-8.06a542 542 0 0 0-17.899-22.07l1.029-1.14z"/><path fill="#fcfcfb" d="m1015.04 1057.23 3.68-9.21c1.51 10.54 8.03 9.04 15.9 7.33-2.63 6.92-3.26 8.58-7.35 14.74l16.23 10.2-5.97 12.34c12.47 2.95 29.72 4.46 42.79 6.18-9.53 3.67-30.94 7.35-41.77 9.43-17.09 2.48-34.3 4.12-51.551 4.92l-.152-13.44c-3.05-2.66-7.646-5.55-11.091-7.87 2.634-2.68 4.505-5.12 6.851-8.06a542 542 0 0 0-17.899-22.07l1.029-1.14c13.654-3.3 18.83-4.46 30.345-12.55 8.938 2.26 12.128 2.67 18.958 9.2"/><path fill="#14181a" d="M1014.48 1052.4c1.01-4.28 1.26-7.81 4.28-10.77l1.89.02c3.51 4.2 3.27 8.01 3.6 13.39l13.97-3.08-6.42 17.1c5.96 4.25 8.77 6.03 15.25 9.4l-5.95 12 54.66 8.33c-19.48 6.12-44.97 8.43-59.2 13.27l1.99-3.82c10.83-2.08 32.24-5.76 41.77-9.43-13.07-1.72-30.32-3.23-42.79-6.18l5.97-12.34-16.23-10.2c4.09-6.16 4.72-7.82 7.35-14.74-7.87 1.71-14.39 3.21-15.9-7.33l-3.68 9.21c-6.83-6.53-10.02-6.94-18.958-9.2-11.515 8.09-16.691 9.25-30.345 12.55l.426-2.33c12.156-3.7 18.083-5.39 28.114-13.55 8.563 1.95 12.543 2.81 20.203 7.7m222 151.62c5.92 35.62 12.89 70.31 19.56 105.65l-.82 8.46c-9.29-30.16-13.1-78.9-21.63-110.29zm-50.75 55.2c7.94 5.13 20.33 16.24 27.04 23.04l-1.36 1.49c-6.47-4.91-20.18-15.88-25.99-21.26.19-1.38.29-1.94.31-3.27"/><path fill="#0a2230" d="M1167.83 1179.9c2.82 2.79.44 10.84-.1 14.64 5.08 3.12 10.05 6.04 15.19 9.07-5.53 2.31-10.63 4.29-16.14 6.52-1.03 4.68-1.84 9.28-2.93 14.02-3.44-5.28-4.8-7.9-7.8-13.34-7.12.86-9.8 1.13-17.08 1.38 3.93-4.92 6.66-9.42 10.35-14.34l-1.03-1.43c-3.22-4.39-4.57-6.72-6.99-11.56 4.9 1.43 9.78 2.96 14.62 4.59 3.96-2.92 8.01-6.42 11.91-9.55"/><path fill="#e99652" d="M1107.12 934.378c22.02 5.417 56.28 10.229 79.01 13.888l2.9-1.53c.15 3.902.41 7.529.64 11.415 4.79-3.331 8.38-5.824 13.36-8.825.03 5.221-.21 68.004.48 67.194-.87-.08-1.6-.33-2.44-.53-1.53-.33-2.74-.67-4.24-1.09 3.93 14.54 8.06 36.63 6.21 51.4 3.76 3.26 8.42 7.63 7.38 13.22l-1.74.09c-5.84-3.41-24.56-20.25-30.29-25.49-20.69-18.92-43.38-38.41-63.08-58.261-2.15-19.589-5.78-41.349-8.19-61.481"/><path fill="#14181a" d="M1189.03 946.736c.15 3.902.41 7.529.64 11.415 4.79-3.331 8.38-5.824 13.36-8.825.03 5.221-.21 68.004.48 67.194-.87-.08-1.6-.33-2.44-.53-1.53-.33-2.74-.67-4.24-1.09.78-2.8 2.95-4.21 2.99-5.04.97-18.397.36-37.144.13-55.603-4.53 2.608-9.31 5.162-13.77 7.775.05-4.746.08-9.008-.05-13.766z"/><path fill="#0a2230" d="M1169.38 984.821c2.47 2.676 3.61 7.156 5.29 10.823 4 .496 7.66.84 11.7 1.404-1.37 1.675-4.98 6.862-6.36 7.112-6.91 1.26 1.25 8.04-2.21 12.58-1.34 1.75-7.25-4.31-8.16-5.13-1.96-.44-9.06 6.69-11.13 8.4 1.44-5.58 2.57-9.84 4.55-15.28-.95-.66-8.95-5.318-7.75-6.748 1.33-1.587 7.31-.647 8.39-1.444 2.3-1.685 4.58-8.863 5.68-11.717"/><path fill="#e99652" d="M1111.37 681.198c12.67 9.917 32.24 23.578 35.36 39.909.77-1.969 1.01-2.514 2.04-4.327 1.89 9.678.18 7.142-8.87 13.122l3.09 2.136c3.3 2.416 6.7 4.685 10.04 7.043l2.17 11.909c2.13 11.673 4 23.227 6.29 34.898l-2.62.132c-6.66 1.436-51.48 1.053-61.3 1.069 2.38-32.741 10.49-70.944 13.8-105.891"/><path fill="#14181a" d="M1146.73 721.107c.77-1.969 1.01-2.514 2.04-4.327 1.89 9.678.18 7.142-8.87 13.122l3.09 2.136c3.3 2.416 6.7 4.685 10.04 7.043l2.17 11.909c2.13 11.673 4 23.227 6.29 34.898l-2.62.132c-3.4-14.686-4.94-29.816-8.49-44.555-6.36-4.209-10.48-7.544-16.41-12.284 6.52-3.096 7.7-2.933 12.76-8.074"/><path fill="#e99652" d="M873.675 808.112c.747.481 2.234 1.01 2.904 1.283 3.539.28 44.092 44.383 48.859 49.834a129 129 0 0 1 4.813 5.947c-8.372 5.514-72.77 39.785-80.477 40.782a100 100 0 0 1-2.463-2.78c6.358-27.64 17.961-67.604 26.364-95.066"/><path fill="#14181a" d="M873.675 808.112c.747.481 2.234 1.01 2.904 1.283-8.218 23.596-21.107 72.017-26.805 96.563a100 100 0 0 1-2.463-2.78c6.358-27.64 17.961-67.604 26.364-95.066"/><path fill="#e99652" d="M1129.44 864.767c4.38-3.851 35.59-31.217 38.28-31.608 1.95 1.121 1.82 1.041 3.15 2.848.71 4.809 2.35 10.891 2.95 15.514 1.13 8.835 5.54 5.039 5.27 13.458-.11 3.491 1.1 10.122 1.06 14.549-.41 3.997-.59 8.014-.55 12.031.01 1.859-.28 2.164-1.42 3.402-4.55-2.108-14.6-9.177-19.47-12.202-9.54-5.916-20.04-11.814-29.27-17.992"/><path fill="#14181a" d="M1167.72 833.159c1.95 1.121 1.82 1.041 3.15 2.848.71 4.809 2.35 10.891 2.95 15.514 1.13 8.835 5.54 5.039 5.27 13.458-.11 3.491 1.1 10.122 1.06 14.549-.41 3.997-.59 8.014-.55 12.031.01 1.859-.28 2.164-1.42 3.402-.36-10.195-.87-20.384-1.54-30.564-6.39-9.088-7.71-20.151-8.92-31.238"/><path fill="#fcfcfb" d="M1166.67 1277.24c6.09-5.34 12.29-9.86 18.75-14.75 5.81 5.38 19.52 16.35 25.99 21.26-.56 3.89-1.34 7.43-2.18 11.26l-.9 4c-.61 2.62-1.28 4.91-1.94 7.48-10.93.83-20.54 1.45-31.49 1.62.03-7.62.24-15.18.2-22.8l-1-1.04c-2.65-2.79-4.58-4.5-7.43-7.03"/><path fill="#e99652" d="M963.942 1165.89c1.766-2.61 3.082-4.15 5.403-6.25 3.44 5.69 5.463 10.52 8.5 16.33 7.676 3.17 15.365 6.15 23.005 9.37a573 573 0 0 0-7.905 8.23c-.431-1.54-.523-3.11-.7-4.71.103-.44.213-.6.118-1.01-.638-.69-16.4-3.35-18.607-3.86-1.671-4.01-5.092-17.31-8.349-17.69z"/><path fill="#525456" d="M914.512 1356.9c2.324-4.45.941-10.54 2.341-17.45.179 5.75.519 15.15-.327 21.05-.018.13-.347.25-.484.2-1.038-.33-1.333-3.01-1.53-3.8"/><path fill="#28313b" d="m793.862 1223.72.268 11.34c.105 5.22-2.089.64-2.755-1.29 2.398-4.72 1.355-5 2.487-10.05"/><path fill="#14181a" d="M1058.3 175.554c3.93-6.451 3.82-4.686 4.42 1.749-1.5-.579-2.93-1.132-4.42-1.749"/><path fill="#fcfcfb" d="M798.681 1150.88c-.068-1.21-.739-5.53.153-6.47 1.228-.38 2.362 2.78 2.654 3.45z"/><path fill="#e99652" d="M945.984 539.973c22.819 19.501 48.255 38.465 69.486 59.26.92.509 1.77 1.253 2.6 1.908-3.44 4.61-6.91 5.91-12.03 8.852l-1.1.643c7.36 9.908 15.26 19.727 23.12 29.258 3.83-2.114 15.88-9.073 18.65-11.706l3.18-.53c.59.38 1.09.66 1.52 1.191-.01.155-.02.309-.04.464 4.6 4.364 14.59 11.699 19.89 16.239a2580 2580 0 0 1 31.89 27.797c-8.99 7.311-17.38 17.068-25.35 25.606-13.68 14.648-26.89 29.406-41.6 43.07-11.86-12.523-24.74-30.024-36.445-43.254-24.301-27.475-49.02-58.096-73.63-85.078 4.199-21.476 12.737-53.094 19.859-73.72"/><path fill="#14181a" d="M1015.47 599.233c.92.509 1.77 1.253 2.6 1.908-3.44 4.61-6.91 5.91-12.03 8.852l-1.1.643c7.36 9.908 15.26 19.727 23.12 29.258 3.83-2.114 15.88-9.073 18.65-11.706l3.18-.53c.59.38 1.09.66 1.52 1.191-.01.155-.02.309-.04.464-6.77 4.027-14.98 9.692-21.64 13.142l-1.8.959c-8.98-9.591-18.8-22.642-26.71-33.356 5.4-3.607 10.45-5.79 14.25-10.825"/><path fill="#0a2230" d="M1042.56 647.695c1.35 6.333 2.09 10.743 2.59 17.122 5.22 1.265 9.46 2.288 14.6 3.976-4.28 2.062-7.12 3.261-11.21 5.727l-3.27 1.971c.8 6.233 1.26 12.086 1.43 18.378-3.47-4.029-7.56-10.624-12.03-12.77-7.45 1.759-10.18 3.097-17.27 6.221 2.7-4.941 5.39-9.596 8.12-14.49-3.68-5.288-7.59-10.324-11.24-15.609 6.4 1.008 11.9 2.143 18.23 3.383 3.5-6.071 5.15-8.695 10.05-13.909"/><path fill="#e99652" d="M992.719 368.377c35.161 32.265 73.661 67.286 107.931 100.141 4.01 18.279 6.8 38.769 10.14 57.352 3.32 18.422 7.47 37.889 10.08 56.286-15.36-12.203-30.66-25.588-46.1-37.408-.52-3.341-.52-8.204-.92-12.105-.8 4.063-1.12 14.58-1.36 19.14-9.43-10.534-24.83-31.311-29.67-44.455-4.79-3.626-15.17-9.466-18.13-13.835l1.03-2.757c-.98-.191-1.89-.375-2.88-.525-16.24-14.72-35.209-29.306-52.466-42.971 6.851-23.827 14.612-56.553 22.345-78.863"/><path fill="#fcfcfb" d="M1025.72 490.736c8.73-8.928 18.31-32.819 26.66-43.336 1.33-1.674 5.35 4.971 5.52 5.208 7.63 13.417 13.52 28.312 18.19 42.992.44 10.353-2.29 26.145-2.24 37.043-.8 4.063-1.12 14.58-1.36 19.14-9.43-10.534-24.83-31.311-29.67-44.455-4.79-3.626-15.17-9.466-18.13-13.835z"/><path fill="#0a2230" d="M1061.33 450.774c3.22 1.48 15.77 9.241 19.65 11.427-.28 11.088-1.45 21.981-2.03 33.018l-2.86.381c-4.67-14.68-10.56-29.575-18.19-42.992z"/><path fill="#14181a" d="M1022.84 490.211c9.99-15.007 19.75-32.86 28.73-48.581 3.94 3.319 6.14 5.624 9.76 9.144l-3.43 1.834c-.17-.237-4.19-6.882-5.52-5.208-8.35 10.517-17.93 34.408-26.66 43.336-.98-.191-1.89-.375-2.88-.525m56.11 5.008c-.02 7.403-2 43.913-4.18 49.529-.52-3.341-.52-8.204-.92-12.105-.05-10.898 2.68-26.69 2.24-37.043z"/><path fill="#e82527" d="M1027.77 824.47c33.26-1.783 61.7 23.698 63.56 56.963 1.87 33.264-23.55 61.761-56.81 63.703-33.37 1.949-61.985-23.569-63.854-56.946-1.869-33.378 23.718-61.931 57.104-63.72"/><path fill="#e99652" d="M909.346 688.343c7.147 3.787 41.591 34.923 49.248 41.836 3.667 15.283 7.894 50.634 8.695 66.32l-15.53-4.141c-16.617-4.247-34.299-8.028-51.079-11.883-4.234-4.972-8.508-9.602-12.93-14.401zm47.601 251.104 3.986.145 1.006 1.504c-3.357 19.008-16.542 60.394-22.574 80.464-13.005-12.59-28.662-25.708-42.38-37.892-14.342-12.641-28.751-25.939-43.011-38.761 30.625-3.07 71.292-3.9 102.973-5.46m78.063-736.784c3.34 3.719 8.27 16.087 10.63 20.842 13.54 27.303 23.12 53.705 27.45 83.956 1.16 8.091 4.41 18.736 6.64 27.012l-12.12-9.675c-17.24-14.741-34.5-28.632-51.8-43.151 6.8-26.231 13.2-52.562 19.2-78.984"/><path fill="#fcfcfb" d="M1012.97 541.085c22.61 20.847 46.92 41.057 69 61.462 10.16 6.126-5.86 2.185-8.17 1.711-8.69-2.4-17.24-5.262-25.92-7.767.1 10.082-.81 17.14-1.18 27.061 2.5-1.07 7.05-7.707 9.49-4.729-.28 4.474-3.37 6.359-6.3 8.835l-3.18.53c-2.77 2.633-14.82 9.592-18.65 11.706-7.86-9.531-15.76-19.35-23.12-29.258l1.1-.643c5.12-2.942 8.59-4.242 12.03-8.852-.93-5.427-.82-10.75-1.32-16.138-1.35-14.601-2.96-29.272-3.78-43.918m31.83-208.125c2.01 2.767 4.29 11.793 5.31 15.351-3.58 7.224-17.52 30.717-22.94 35.193-2.65-7.899-4.71-14.631-7.63-22.583 7.02-11.761 15.4-18.653 25.26-27.961"/><path fill="#0a2230" d="M604.642 832.957c1.454-.33 2.881-.68 4.366-.854a495 495 0 0 1 94.643-2.897c6.055.027 27.095.937 28.236 5.574 4.312 17.532 1.015 49.487 2.195 67.35 1.095 16.577 2.927 26.932 2.896 41.537 10.765 5.507 51.012 23.813 57.354 28.698 3.346 1.295 10.947 3.665 7.838 8.625-3.454 5.509-8.76 10.254-13.919 14.113 3.011 3.466 13.308-.131 20.117 2.232 1.714 2.845 1.173 1.259.956 5.115l-1.795 1.44c-11.438 1.04-25.114-.52-36.249 1.39-4.818.82-15.898 5.64-21.592 7.37a201 201 0 0 1-52.869 8.27c-19.049.54-34.68-1.25-53.07-6.22-14.683-3.87-27.684-10.18-43.171-10.15-70.666.14-141.386-.96-212.04-.01-4.906.07-16.781 5.69-22.299 7.38a200.7 200.7 0 0 1-57.349 9.01c-14.444.12-44.401-2.46-57.734-7.69-24.006-9.42-29.624-8.86-55.215-8.88l-104.43-.03c-9.276.01-42.288.89-49.162-.8-2.354-2.5-1.627-1.06-2.184-4.517.212-.261.388-.555.635-.783 5.922-5.464 61.495-2.359 72.791-2.555-10.982-35.024-20.017-70.413-30.388-105.593-1.124-5.486-2.163-9.139 1.274-14.158 13.081-19.098 63.562-31.438 86.167-35.866 48.159-9.027 97.858-13.956 146.865-11.034 12.842.766 28.926-.826 29.724 14.959-.065 27.99-1.145 55.776 2.143 83.551.67 5.652.108 10.752.967 16.582 16.533 8.47 47.001 21.706 61.277 30.094l.81.545c9.936 6.439-7.505 17.304-11.909 20.568l17.228.11c27.398-.512 53.697.677 81.792-.274a6820 6820 0 0 1-19.474-67.681c-3.626-12.736-16.401-46.098-6.605-54.554 27.771-23.974 95.832-37.815 131.18-39.967"/><path fill="#e99652" d="M83.203 890.082c-1.124-5.486-2.163-9.139 1.274-14.158 13.081-19.098 63.562-31.438 86.167-35.866 48.159-9.027 97.858-13.956 146.865-11.034 12.842.766 28.926-.826 29.724 14.959l-2.555 1.237c-27.647 43.351-223.031 80.181-258.584 43.674z"/><path fill="#14181a" d="M83.203 890.082c-1.124-5.486-2.163-9.139 1.274-14.158 13.081-19.098 63.562-31.438 86.167-35.866 48.159-9.027 97.858-13.956 146.865-11.034 12.842.766 28.926-.826 29.724 14.959l-2.555 1.237c-.347-3.671-.129-5.901-2.4-8.751-6.286-3.792-20.465-4.079-28.048-4.432-52.066-2.424-108.426 2.95-159.19 14.633-18.748 4.315-57.09 15.313-68.225 31.899-2.39 3.56-1.578 6.46-.721 10.325z"/><path fill="#0a2230" d="M257.139 839.424c20.577-2.057 62.869-1.079 82.654 2.951-21.255 22.895-87.643 41.697-119.552 47.944-14.256 2.79-31.645 4.408-46.275 5.555-16.015.512-76.192 2.283-82.41-12.375.265-.766.506-1.639 1.053-2.17 32.133-31.189 124.943-39.401 164.53-41.905"/><path fill="#e99652" d="M604.642 832.957c1.454-.33 2.881-.68 4.366-.854a495 495 0 0 1 94.643-2.897c-6.985 2.206-10.544.34-17.367 1.889l1.21.146c3.944.45 16.658 1.717 20.019 1.314 23.362-2.799 34.24 12.941 9.661 26.424-66.759 36.623-151.651 52.852-226.877 39.656-5.22-.915-13.78-4.449-16.389-9.364-7.07-13.322 11.992-22.664 21.66-26.864 37.789-16.412 80.193-23.629 120.953-27.784-.028-2.261-9.575-1.49-11.879-1.666"/><path fill="#14181a" d="M604.642 832.957c1.454-.33 2.881-.68 4.366-.854a495 495 0 0 1 94.643-2.897c-6.985 2.206-10.544.34-17.367 1.889-3.775.536-19.177.109-24.283.273-15.271.491-30.516 2.33-45.48 3.255-.028-2.261-9.575-1.49-11.879-1.666"/><path fill="#0a2230" d="M668.669 838.456c9.662-.454 48.075-.784 55.051 3.199l.089 1.978c-8.156 11.351-34.249 21.262-47.696 26.748-44.864 18.3-90.966 24.92-139.081 26.426-12.558-.562-52.362-1.148-57.467-13.307 8.894-33.173 158.434-44.081 189.104-45.044"/><path fill="#e99652" d="M794.332 972.365c3.346 1.295 10.947 3.665 7.838 8.625-3.454 5.509-8.76 10.254-13.919 14.113-1.224-1.596-1.124-1.553-2.878-2.456-39.187 24.273-89.064 30.483-133.861 20.563-12.079-2.68-42.445-11.5-51.397-19.463l.218-1.948c2.355-.991 5.896-1.046 8.234-.082 16.039 7.546 31.947 12.593 49.132 16.643 34.604 8.15 116.187-.12 136.727-34.063z"/><path fill="#14181a" d="M794.332 972.365c3.346 1.295 10.947 3.665 7.838 8.625-3.454 5.509-8.76 10.254-13.919 14.113-1.224-1.596-1.124-1.553-2.878-2.456 4.366-3.58 19.128-12.491 10.701-17.346l-1.648-1.004z"/><path fill="#e99652" d="M399.951 992.387c-11.835 6.531-15.844 9.683-29.42 14.433-50.386 17.66-103.644 13.79-151.511-9.649-2.69-1.317-3.857-1.989-4.586-4.354 2.032-1.256 4.776-1.334 6.985-.615 19.346 6.306 35.136 14.228 55.616 17.108 40.594 5.72 78.033.76 114.065-19.09 6.45-3.554 14.617-13.147 20.055-14.811 3.279 7.799-6.274 11.983-11.204 16.978"/><path fill="#14181a" d="m411.62 974.21.81.545c9.936 6.439-7.505 17.304-11.909 20.568l17.228.11c-2.008 1.547-15.018 1.292-16.677.46-.591-.871-.859-2.472-1.121-3.506 4.93-4.995 14.483-9.179 11.204-16.978z"/><path fill="#e99652" d="M730.903 926.919c2.394 2.428 1.633 16.247 1.615 20.53-31.419 31.84-90.986 32.13-131.32 36.69-2.11-2.404-2.207-17.673-2.432-22.105 46.693-2.623 91.845-9.836 132.137-35.115m-386.201-1.064c1.158 6.558 1.077 13.392 2.638 21.316-34.939 30.551-88.404 34.941-133.015 36.707-1.541-2.692-1.384-17.334-1.606-21.79 43.603-.819 96.137-10.323 131.983-36.233M193.301 960.95c18.122 1.282 17.082 17.037 5.472 22.625l-1.655.85c-19.219-.998-17.654-18.744-5.713-22.764zm382.619.534a11.665 11.665 0 1 1 9.375 21.364 11.665 11.665 0 0 1-9.375-21.364"/><path fill="#0a2230" d="M1647.49 893.646c-.51-2.637-1.13-5.377-1.16-8.07-.04-4.703 1.8-8.406 5.06-11.722 31.74-32.293 153.42-43.124 198.06-43.448 11.7-.085 52.44-1.107 59.22 7.33 2.99 3.715 2.36 9.534 2.32 14.018.07 26.173-.46 52.193 2.01 78.245.52 5.425.64 11.007.78 16.459 9.39 4.249 60.39 27.172 65.21 33.392.45 4.094-2.3 6.69-4.85 9.548-2.61 2.308-5.2 4.235-7.74 6.616l-3.2-2.186c-4.58 3.086-8.37 5.942-13.13 8.892-1.11.37-1.01.29-1.93.81l.87 2.32c-32.78 18.51-98.68 21.92-133.44 9.87-29.4-10.2-26-9.71-58.94-9.83l-122.5.1c-21.14.04-42.96-.14-64.09.43-8.74 1.07-17.65 6.34-26.07 8.7-29.21 8.24-78.71 12.18-107.99 1.37-36.3-13.4-53.27-10.65-92.02-10.57l-86.53-.1c-12.18-.02-24.52.15-36.71.28-2.58.03-4.32-1.66-5.88-3.51-.81-3.256-1.11-1.82.24-4.511 5.58-3.042 67.09-1.085 77.64-.942-9.74-30.729-23.75-80.09-30.84-111.832 1.33-4.893 1.95-6.092 4.34-10.606 31.41-26.993 113.69-39.048 156.56-42.532 17.5-1.422 83.88-4.708 101.44 4.096 3.15 1.576 3.32 10.036 3.29 14.012-.09 27.284-.55 54.531 2.5 81.596.55 4.838.09 9.688.7 14.893 11.74 5.054 59.63 28.02 67.71 34.915-5.43 6.26-9.39 9.69-15.68 15.21 31.04.262 62.07.254 93.1-.025a5114 5114 0 0 0-19-68.748c-2.58-9.346-6.44-26.113-9.35-34.47"/><path fill="#e99652" d="M1647.49 893.646c-.51-2.637-1.13-5.377-1.16-8.07-.04-4.703 1.8-8.406 5.06-11.722 31.74-32.293 153.42-43.124 198.06-43.448 11.7-.085 52.44-1.107 59.22 7.33 2.99 3.715 2.36 9.534 2.32 14.018l-3.28-1.657c-9.73 10.335-22.42 16.322-35.26 22.195a369.5 369.5 0 0 1-140.93 32.64c-20.9.624-62.89 1.151-78.99-11.601l-1.49-1.165z"/><path fill="#14181a" d="M1647.49 893.646c-.51-2.637-1.13-5.377-1.16-8.07-.04-4.703 1.8-8.406 5.06-11.722 31.74-32.293 153.42-43.124 198.06-43.448 11.7-.085 52.44-1.107 59.22 7.33 2.99 3.715 2.36 9.534 2.32 14.018l-3.28-1.657c.38-3.445 1.03-7.286-1.28-10.215-4.02-5.079-33.37-5.603-41.19-5.808-47.91-1.255-174.89 8.166-210.09 41.372-2.8 2.635-6.25 6.891-5.89 11.009.17 1.914.96 3.976 1.78 5.711z"/><path fill="#0a2230" d="M1825.25 841.426c11.89-.496 67.73-2.866 74.11 4.805-1.62 8.612-21.73 16.262-29.44 19.653-44.24 19.469-90.71 30.84-139.09 32.227-21.36 1.206-43.37-.31-64.37-4.688-5.26-1.096-9.13-2.12-10.57-7.52 2.85-8.112 16.72-14.042 24.24-17.292 45.24-19.54 96.42-24.505 145.12-27.185"/><path fill="#e99652" d="M1266.22 874.699c31.41-26.993 113.69-39.048 156.56-42.532 17.5-1.422 83.88-4.708 101.44 4.096 3.15 1.576 3.32 10.036 3.29 14.012l-2.63-2.078c-13.82 21.62-82.15 43.32-109.31 48.688-42.32 8.365-103.24 14.93-143.98-1.238-8.52-3.383-6.43-12.82-2.41-19.105z"/><path fill="#14181a" d="M1266.22 874.699c31.41-26.993 113.69-39.048 156.56-42.532 17.5-1.422 83.88-4.708 101.44 4.096 3.15 1.576 3.32 10.036 3.29 14.012l-2.63-2.078c-.06-4.143.16-4.715-1.69-8.249-6.58-6.244-52.78-6.239-63.53-5.917-55.64 1.67-145.05 10.116-190.48 42.511z"/><path fill="#0a2230" d="M1438.08 841.428c10.55-.9 75.35-1.975 80 5.062-2.52 6.859-20.07 13.863-26.66 16.915-45.58 21.092-89.65 32.949-140.05 34.734-13.54 1.134-74.02 1.07-79.85-11.94 1.75-6.617 15.85-13.966 22.21-16.58 45.37-18.665 95.72-25.216 144.35-28.191"/><path fill="#e99652" d="M1948.14 1003.53c-7.3 4.14-24.1 9.11-32.85 11.02-45.42 9.92-95.03 5.99-135.85-17.473-2.17-1.245-1.84-1.117-2.18-2.695 6.61-4.134 35.46 11.108 47.73 14.068 13.77 3.31 27.89 4.96 42.06 4.93 32.46.13 64.4-5.91 91.41-24.459 3.97-2.727 10.46-9.478 14.99-9.365l1.06 1.577c-.17 3.306-1.36 4.104-3.56 6.629l3.19 1.636c-2.61 2.308-5.2 4.235-7.74 6.616l-3.2-2.186c-4.58 3.086-8.37 5.942-13.13 8.892-1.11.37-1.01.29-1.93.81"/><path fill="#14181a" d="m1970.95 987.762 3.19 1.636c-2.61 2.308-5.2 4.235-7.74 6.616l-3.2-2.186c3.16-2.239 4.79-3.529 7.75-6.066"/><path fill="#e99652" d="m1907.3 929.982 1.03.391c1.78 5.338.56 15.645-.03 21.331-29.88 27.416-89.7 32.758-129.09 34.335-3.26-3.233-2.5-16.508-2.59-22.004 51.48-2.058 84.85-7.803 130.68-34.053m-383.53.059c3.34 3.334 1.63 21.633-4.03 25.738-33.78 24.527-85.34 28.5-125.3 29.967-.49-2.602-1.27-18.078-1.61-21.995 48.16-.839 89.52-8.096 130.94-33.71m64.51 48.728c2.3 1.061 1.48.577 3.29 2.554l-.33 2.329c-6.58 10.007-29.39 21.638-40.76 25.498-54.65 18.51-102.55 13.01-153.78-11.222-1.37-.611-1.94-1.098-3.2-1.934l.71-1.155c1.61-.471 5.71-1.613 7.11-1.157 14.54 4.735 28.75 12.238 43.76 15.698 13.12 2.88 26.52 4.32 39.96 4.3 35.23.25 77.41-9.56 103.24-34.911m165.62-14.778c18.91-.603 23.51 13.229 8.45 22.498-15.19 1.867-22.55-12.974-8.45-22.498m-381.64-1.102c6.68.186 16.09 3.361 14.2 11.706-.9 3.99-3.35 7.461-6.8 9.656l-.75.439-1.48.916c-3.94.361-8.4.417-11.01-2.987-7.1-9.274-1.09-14.343 5.84-19.73"/><path fill="#0a2230" d="m972.958 1302.31 10.745-9.61 1.735 2.01c7.757 10.41 34.222 33.85 45.022 43.94 27.28 25.42 54.31 51.11 81.09 77.06 4.54 4.44 31.41 32.74 35.33 32.99l2.85-1.3c-2.35 7.62-8.8 27.12-9.6 33.87-3.15 26.73 1.24 49.79 8.61 74.87-4.69-5.03-9.33-10.1-13.92-15.23 1.66 15.7 4.38 38.74 4.46 54.12-6.57-10.46-14.66-24.41-18.92-36.09-2.24 22.39-3.61 50.85-4.47 73.54.19 7.31-.38 12.52-.89 19.72-1.91-6.18-2-8.03-2-14.33.13-8.95-1.46-25.74-1.98-35.32-1.33-23.7-2.49-47.4-3.48-71.12-10.04-9.05-20.83-20.38-30.47-30.1-.08 4.15-.02 8.41-.01 12.58-.01.7.67 12.98-2.09 6.86l-.08-.2c-5.2-18.5-9.96-40.75-23.72-53.84.08 11.5 1.71 75.94-1.27 83.36-5.18 12.91-27.74 54.77-35.35 69.8-.45 1.07-1.59 4.13-2.59 4.68-.56.31-.81-1.65-.8-1.96.17-6.83-.03-14.1.69-20.87-.89-8.28-.25-30.68-.16-39.48l.65-75.65c0-12.73.29-31.5-1.04-43.94-10.92-15.6-16.969-26.31-29.484-41.76-5.369 4.72-9.719 8.64-15.562 12.78 1.468-10.66 3.903-21.86 6.005-32.46-3.837-8.73-7.923-16.16-12.646-24.41-2.419 6.69-5.203 18.23-7.173 25.41a431 431 0 0 0-2.829-6.35c-1.829-13.2-3.257-24.16-6.197-37.17 19.27-1.3 44.171-1.34 63.846-1.85-13.072-12.76-22.232-19.77-34.302-34.55"/><path fill="#28313b" d="M1011.85 1601.74c1.05 7.91-1.09 14.54 2.7 18.15-.45 1.07-1.59 4.13-2.59 4.68-.56.31-.81-1.65-.8-1.96.17-6.83-.03-14.1.69-20.87"/><path fill="#737378" d="M1113 1637.87c.14.43.72 2.28.79 2.61.14.73.28 1.56.56 2.27l.15.3-.21-.38.31.17c.62-3.29.5-6.57 1.29-10.36.19 7.31-.38 12.52-.89 19.72-1.91-6.18-2-8.03-2-14.33m-38.11-117.3c.69-2.23 1.42-4.45 2.17-6.66-.01.7.67 12.98-2.09 6.86z"/><path fill="#0a2230" d="M1129.94 1768.76c27.27-8.05 54.36-16.66 81.27-25.82 9.99-3.37 50.93-18.46 58.03-17.78 22.47 2.15 51.99 7.6 74.72 11.27 86.16 14.12 172.24 28.72 258.23 43.81-3 1.62-2.94 1.61-6.26 2.4l-1.03.25-463.94-10.54zm-38.01 25.94c48.89 4.66 101.02 12.7 149.84 19.72 5.34.77 28.56 14.05 34.22 17.13l60.17 33.07a8581 8581 0 0 1 81.97 45.09c9.61 5.32 26.73 14.07 35.41 19.61l-.64 1.9c-7.12-3.02-45.69-13.05-56.13-16.2a16843 16843 0 0 0-173.12-50.11c-21.89-6.17-49.01-13.09-70.04-21.32-4.18-1.63-21.95-15.85-26.59-19.36a2268 2268 0 0 0-35.68-25.94zm-632.471-15.71c14.716-3.06 39.878-5.72 55.589-7.83l124.918-16.12c34.764-4.58 69.559-8.94 104.382-13.06 9.407-1.17 40.432-5.56 47.882-5.06 8.881.58 35.757 8 45.967 10.58l80.193 20.02c3.257 1.09 5.697 1.67 8.941 2.56.838-.09 4.334-.6 4.386 1.13-.88 1.39-26.002.89-29.114.65l-259.145 5.19c-34.206.99-68.418 1.73-102.635 2.24-12.579.2-30.807 1.25-42.776.83-4.602.67-48.411 1.63-50.523.4 4.563-.92 7.194-1.57 11.935-1.53"/><path fill="#28313b" d="M447.524 1780.52c4.563-.92 7.194-1.57 11.935-1.53 7.689 2.17 28.042.06 38.588 1.13-4.602.67-48.411 1.63-50.523.4"/><path fill="#b9bcba" d="M918.39 1767.52c3.257 1.09 5.697 1.67 8.941 2.56.838-.09 4.334-.6 4.386 1.13-.88 1.39-26.002.89-29.114.65 5.037-.69 8.546-.76 13.681-.73z"/><path fill="#28313b" d="M918.39 1767.52c3.257 1.09 5.697 1.67 8.941 2.56-4.866 1.12-5.95.92-11.047 1.05z"/><path fill="#0a2230" d="M994.974 1804.94c9.526 9.63 20.266 24.56 29.876 35.12 38.9 42.73 76.27 91.26 116.11 132.81-13.61-6.73-27.29-14.74-40.56-22.25l-167.058-90.75c18.596-16.98 42.307-39.6 61.632-54.93m-320.768 84.29 103.551-57.15c14.27-7.97 34.956-20.15 49.656-26.8 4.377-1.98 33.501-4.63 39.75-5.28 25.684-2.74 51.393-5.25 77.124-7.51 1.527 1.38 2.192 2.23 3.546 3.82l-39.378 21.24c-8.563 4.72-18.152 10.69-27.176 14.27-10.476 4.16-22.358 7.11-33.242 10.21-52.18 14.82-104.62 28.66-156.481 44.61-4.926 1.52-10.472 3-15.249 4.8zm4.874-228.22c29.589 2.89 60.835 7.37 90.458 11.06l131.125 16.34c24.243 20.52 53.561 46.54 77.354 67.87-29.527-8.53-59.265-25.98-85.861-34.45-29.359-9.34-66.719-18.4-97.323-26.93l-76.776-21.29c-12.241-3.42-26.803-8.07-38.882-10.88zm474.72 27.6c7.73-1.83 16.45-2.89 24.34-4.15 59.75-9.58 119.88-16.92 179.66-26.16l.79 2.46c-27.63 9.23-59.81 18.21-87.9 26.53l-130.21 38.52c-21.32 6.2-42.92 11.84-64.05 18.59 4.91-9.17 11.99-19.99 17.38-29.27 15.57-4.97 36.24-8.78 49.96-16.95 1.58-.94 8.26-7.78 10.03-9.57m-93.63-128.48-.3 72.43-51.5 82.42c-6.04 17.24-2.49-42.77-2.53-42.44-.32-5.75-.51-11.5-.56-17.25 7.51-9.24 12.07-21.47 18.19-31.33 11.99-19.3 24.68-45.54 36.7-63.83"/><path fill="#28313b" d="M1008.37 1714.98c-6.04 17.24-2.49-42.77-2.53-42.44.93 7.58-1.17 39.55 2.53 42.44"/><path fill="#0a2230" d="M1052.57 1661.7c1.26 5.02.63 38.8.59 46.41l-.17 94.03c-6.06-5.67-16.47-12.99-23.37-18.14l-16.59-13.24c-1-12.65-.28-31.22-.08-44.14 13.84-21.24 27.06-42.89 39.62-64.92m8.62-1596.882 1.23.411c.41.543-.78 79.834-.43 87.789.18 4.054-5.6 9.371-6.91 7.919-3.61-3.997-9.55-15.861-12.15-20.415-7.19-13.994-16.12-29.371-23.77-43.292a372 372 0 0 0 16.28-12.346c7.54-6.144 17.87-14.811 25.75-20.066m888.88 937.902c4.76-2.95 8.55-5.806 13.13-8.892l3.2 2.186c2.83 2.325 22.06.277 26.61.969 2.82.737 12.62-1.9 13.75 2 .54 1.837.79 6.637-2.22 6.627-15.51-.06-32.55 1.25-47.94.2l-7.59.04-.87-2.32c.92-.52.82-.44 1.93-.81"/><path fill="#14181a" d="M1948.14 1003.53c.92-.52.82-.44 1.93-.81 1.97 2.66 3.23 2.17 6.53 3.09l-7.59.04z"/><path fill="#737378" d="M1357.8 1658.3c2.13-.53.27-.11 2.7-.55 3.02-.52 6.02-1.16 8.99-1.92 1.61-.39 2.42-.51 4.02-.06l.03.14.17.14-.25.16-.08-.15c-1.05.96-12.9 4.3-14.79 4.7z"/><path fill="#28313b" d="M944.287 1792.49c1.967-.48 2.636-.41 4.709-.54q3.51-.225 7.002-.63c-2.638 1.61-5.593 3.36-8.165 4.99-1.354-1.59-2.019-2.44-3.546-3.82"/><path fill="#14181a" d="M1602.19 1780.24c2.16.34 4.29.74 6.45 1.08-.15.94-.29 1.13-.65 2.05-4.44-.27-8.65-.36-13.09-.48l1.03-.25c3.32-.79 3.26-.78 6.26-2.4"/><path fill="#737378" d="M1608.64 1781.32c4.78.7 6.45 1.3 10.96 2.51-3.64-.01-8.23.5-11.61-.46.36-.92.5-1.11.65-2.05m-659.029-405.44a431 431 0 0 1 2.829 6.35c.259 1.76.466 4.1-.704 5.63l-.191.02c-.465-.88-.501-1.33-.631-2.36z"/><path fill="#28313b" d="M1231.53 1463.94c-.25.98-.84 5.1-2.11 5.32-1.18-.96-.09-7.36.13-8.86z"/><path fill="#737378" d="M679.175 1662.73c-1.353-.24-8.871-1.35-9.711-2.3l.015-.14c1.806-.97 7.511.18 9.601.72z"/><path fill="#28313b" d="M1130.96 1772.35c-1.09-.07-7.05-.11-7.55-.94.49-.95 4.57-1.93 5.54-2.28l.99-.37z"/><path fill="#525456" d="M676.307 1891.44c-1.164.29-7.964 2.56-8.714 1.97l.009-.19 1.282-1.05-.51.34c1.878-1.2 3.871-2.22 5.832-3.28z"/><path fill="#28313b" d="M1091.34 1798.29c-.78-.5-4.59-2.55-4.78-3.68.86-.96 4.19-.08 5.37.09z"/><path fill="#525456" d="M1453.54 1929.32c1.43.69 4.73 1.97 5.56 3.13-.12 1.16-5.63-1.04-6.2-1.23z"/><metadata><recraft-signature>{&quot;signed_by&quot;: &quot;recraft&quot;, &quot;signature_b64&quot;: &quot;f+62Df5Q/G/mkOVvTBGO1sUe82kmORoU/42huerNlr525ecytriJIDNNZVj1QeRxVg25UWvTchxsflQAJrEnDw==&quot;, &quot;signing_algo&quot;: &quot;Ed25519&quot;, &quot;generation_timestamp&quot;: 1777253706, &quot;identifier&quot;: &quot;7dd4afd3-a803-4c42-bb70-e63571096bcb&quot;}</recraft-signature></metadata></svg>