<svg xmlns="http://www.w3.org/2000/svg" width="1024" height="1024" preserveAspectRatio="none" style="display:block" viewBox="0 0 2048 2048"><defs><linearGradient id="c" x1="1019.08" x2="1018.37" y1="85.012" y2="148.85" gradientUnits="userSpaceOnUse"><stop class="stop0" offset="0" stop-color="#323134"/><stop class="stop1" offset="1" stop-color="#55585b"/></linearGradient><linearGradient id="b" x1="1574.73" x2="1604.91" y1="97.196" y2="151.283" gradientUnits="userSpaceOnUse"><stop class="stop0" offset="0" stop-color="#36383d"/><stop class="stop1" offset="1" stop-color="#545759"/></linearGradient><linearGradient id="a" x1="192.245" x2="240.326" y1="94.277" y2="137.149" gradientUnits="userSpaceOnUse"><stop class="stop0" offset="0" stop-color="#3a3c41"/><stop class="stop1" offset="1" stop-color="#515457"/></linearGradient></defs><path fill="#15232b" d="M1825.94 151.823c5.82-2.005 6.11-3.051 11.83-1.676l.22 1.196c3.16-.728 5.36-1.418 8.46-2.423.88 4.133 1.73 4.941.52 8.917.17 1.168-.02 4.302 2 3.38 10.81-4.93 25.6-7.919 36.27-1.517 11.88 7.125 4.96 18.785 15.21 21.552 11.32 3.056 18.2 18.148 13.21 28.696-1.25 3.19-4.72 6.771-6.78 9.249 4.43 9.617.52 22.084-9.29 26.335a21.6 21.6 0 0 1-6.12 1.606c-3.13-.555-5.28-1.338-8.15-.18-4.63 4.445-4.57 10.109-9.94 16.182l-.85.951c-9.49 3.738-11.77 3.051-21.81 1.634l-5.75 17.287c-9.06-.329-17.15-.541-26.22-.406-6.66-6.943-6.51-5.564-9.46-16.36-19.82 2.242-20.1 1.159-26.84-15.541-3.6-8.916-13.08-5.36-19.68-9.233-3.8-2.228-5.66-7.599-9.82-8.635-1.52-4.397-1.48-10.494 1.51-14.259l-1.33-1.498c-.27-4.323-10.31-12.719-4.86-21.538 4.76-7.724 9.79-9.549 18.01-11.96 11.76-45.551 38.72-12.214 50.74-19.235 2.32-3.752.24-7.18 1.1-11.821l1.87-1.021c2.37.423 3.58.676 5.95.318"/><path fill="#394044" d="M1846.97 157.837c.17 1.168-.02 4.302 2 3.38 10.81-4.93 25.6-7.919 36.27-1.517 11.88 7.125 4.96 18.785 15.21 21.552 11.32 3.056 18.2 18.148 13.21 28.696-1.25 3.19-4.72 6.771-6.78 9.249-9.41-11.798 21.39-9.041-4.75-34.317-3.32-.794-6.52-1.524-9.85-2.387-4.84-20.931-8.2-24.439-30.79-21.564-11.61 1.477-16.24 12.107-19.86 1.108l-.64-1.833c1.49-1.697 2.2-2.282 4.48-2.315z"/><path fill="#393f45" d="M1846.45 148.92c.88 4.133 1.73 4.941.52 8.917l-1.5.052c-2.28.033-2.99.618-4.48 2.315-1.48-1.102-2.07-6.44-3-8.861 3.16-.728 5.36-1.418 8.46-2.423"/><path fill="#fffffe" d="M1850.95 191.051c12.26-22.889 49.75 5.999 33.45 29.308a27.88 27.88 0 0 1-18.9 11.511c-3.43.467-10.51-.172-14.21-.493-.48 1.698-.92 3.393-1.34 5.104a19.47 19.47 0 0 1-9.55 12.356c-15.06 8.235-34.55-5.584-26.76-19.222.52-2.013.39-1.231-.05-3.452-3.95-.941-11.37 2.07-15.95 3.464-10.57-3.218-20.8-8.453-21.1-21.12a20.9 20.9 0 0 1 6.78-15.759c11.65-10.899 23.59-4.867 32.32 5.589 12.86-12.459 18.67-6.018 31.71-2.174 2.47-2.203 2.3-2.05 3.6-5.112"/><path fill="#44484e" d="M1850.95 191.051c12.26-22.889 49.75 5.999 33.45 29.308a27.88 27.88 0 0 1-18.9 11.511c-3.43.467-10.51-.172-14.21-.493-.48 1.698-.92 3.393-1.34 5.104a19.47 19.47 0 0 1-9.55 12.356c-15.06 8.235-34.55-5.584-26.76-19.222 1.12 13.114 8.15 20.586 21.88 17.426 13.59-3.127 9.78-15.696 12.59-20.735 4.85-1.563 12.64 3.787 20.87 1.404 20.2-5.852 21.03-31.159 2.56-39.891-8.5-4.02-13.01.575-20.59 3.232"/><path fill="#15232b" d="M226.057 151.37c2.341.242 1.207-1.422 2.447-1.306 5.089.476 4.134 11.806 5.066 15.537l1.958 1.15c14.936-4.659 17.761-8.224 34.476-4.99 8.12 7.627 9.648 10.512 10.83 21.568 3.728.441 7.11.81 10.797 1.514 12.336 10.477 13.632 20.037 2.266 31.864-.04 5.621.065 11.995-.175 17.544-8.753 9.774-10.76 9.099-24.001 11.103-3.31 19.244-12.117 21.452-30.51 21.251-.755 3.216-2.111 11.531-5.163 12.944-7.104 3.29-28.383 5.77-32.636-2.675-1.696-3.366-.253-6.941-3.447-10.261-18.029-2.577-21.732.915-30.684-16.973l-1.96-.337c-18.267-1.873-29.557-11.004-24.24-30.12-19.865-18.622-10.291-30.479 11.043-39.777l.537-1.997.763-.83c7.73-8.278 1.132-7.648 13.912-15.899l.756-.495c8.666-.431 13.983-1.45 22.013 2.509 6.78 3.342 10.418 5.4 16.571.826 1.844-5.495.333-7.155 4.2-11.172 7.178-2.49 7.765-2.12 15.181-.978"/><path fill="#fffffe" d="M185.443 229.462c-11.52 2.279-16.946-1.117-22.879-11.649-2.646-5.835-2.681-10.912-.92-16.845 4.62-15.93 23.732-22.225 37.038-12.624 2.068 1.303 4.236 6.391 7.339 3.808 5.798-4.827 15.813-5.074 22.603-2.601 6.022 2.193 4.358 2.862 10.506 2.396 4.126-3.263 4.913-3.428 9.897-5.47 1.062-.698 4.412-1.574 5.534-1.625 18.757-.846 26.752 21.265 17.676 36.134-6.891 11.289-18.024 12.666-30.281 10.348-3.937-.745-3.48 13.472-9.545 15.488-15.466 9.582-32.086 4.422-34.11-14.774-.365-3.459-6.767-2.639-9.747-3.01z"/><path fill="#44484e" d="M249.027 186.477c1.062-.698 4.412-1.574 5.534-1.625 18.757-.846 26.752 21.265 17.676 36.134-6.891 11.289-18.024 12.666-30.281 10.348-3.937-.745-3.48 13.472-9.545 15.488-15.466 9.582-32.086 4.422-34.11-14.774-.365-3.459-6.767-2.639-9.747-3.01 5.784-1.691 7.508-2.58 12.672-5.5.623 11.34.788 24.275 15.276 24.336 17.153.073 18.255-8.461 18.707-21.982 3.129.833 8.295 2.459 11.299 3.042 5.664.746 13.464-.21 17.979-3.923 13.811-11.358 9.625-36.645-9.984-38.009-2.252-.157-3.334-.133-5.476-.525"/><path fill="#44484e" d="M185.443 229.462c-11.52 2.279-16.946-1.117-22.879-11.649-2.646-5.835-2.681-10.912-.92-16.845 4.62-15.93 23.732-22.225 37.038-12.624 2.068 1.303 4.236 6.391 7.339 3.808 5.798-4.827 15.813-5.074 22.603-2.601 6.022 2.193 4.358 2.862 10.506 2.396-.985 1.423-4.126 6.705-5.144 7.172-2.223-2.302-1.724-4.3-5.518-6.109-7.71-3.676-15.783-3.137-21.935 3.084a65 65 0 0 0-3.345 3.691c-3.681-5.759-5.473-9.99-12.675-11.818-19.327-4.905-32.942 16.763-21.819 32.665 4.2 6.005 10.083 7.222 16.749 8.83"/><path fill="#15232b" d="M1274.17 160.738c5.55-.927 7.34-1.414 13.04-1.282 8.67.2 20.53 10.612 25.71 6.965 2.91-13.741 1.63-15.603 18.37-16.228 7.19 3.317 6.48 5.325 7.17 12.827 7.8 8.273 30.38-12.533 41.95.631 9.77 11.106-2.56 18.621 17.49 21.179 22.37 17.828.98 28.545 4.69 33.964 7.33 18.028-4.31 27.678-21.82 28.025-3.68 16.2-13.98 29.198-32.17 22.263-4.35 2.516-5.85 7.954-8.46 12.582-9.57.308-16.33.452-26.07.225-6.42-8.237-4.51-5.385-6.98-15.455-14.64.399-24.76.008-29.92-16.063-.65-2.054-1.62-3.841-3.97-2.782-6.14.404-16.11-.829-20.31-6.086-6.75-8.444-2.77-17.235-3.73-25.419-1.6-6.119-6.76-5.737-6.36-14.529.56-11.989 11.37-15.878 20.95-18.766.66-9.633.59-13.425 8.24-20.185a97 97 0 0 1 2.18-1.866"/><path fill="#fffffe" d="M1334.81 191.544c-.05.011 6.87-1.106 5.57-.326 12.99-7.812 26.75-14.093 38.17.691a26.12 26.12 0 0 1 5.06 19.819c-2.84 19.578-18.61 21.406-34.59 18.734-3.46 9.364-7.35 18.195-17.97 20.724-16.65 3.965-22.6-7.591-26.02-20.434-8.61 1.685-17.11 2.838-24.5-2.035-20.72-13.651-13.05-43.41 11.82-45.519 7.64-.647 12.62 4.883 17.82 9.356 6.36.087 6.6-8.858 16.67-2.658 1.91.439 6.4 1.598 7.97 1.648"/><path fill="#393f45" d="M1334.81 191.544c-.05.011 6.87-1.106 5.57-.326 12.99-7.812 26.75-14.093 38.17.691a26.12 26.12 0 0 1 5.06 19.819c-2.84 19.578-18.61 21.406-34.59 18.734-3.46 9.364-7.35 18.195-17.97 20.724-16.65 3.965-22.6-7.591-26.02-20.434-8.61 1.685-17.11 2.838-24.5-2.035-20.72-13.651-13.05-43.41 11.82-45.519 7.64-.647 12.62 4.883 17.82 9.356 6.36.087 6.6-8.858 16.67-2.658-10.07 2.302-9.66 1.827-16.55 8.659-5.87-6.154-9.02-11.334-17.46-11.512a19.7 19.7 0 0 0-14.43 5.919 21.1 21.1 0 0 0-6.1 16.169c1.34 20.92 20.36 23.156 36.29 14.903.21 8.012.17 13.937 6.57 19.678 7.28 6.541 17.47 5.786 23.88-1.506 4.59-5.234 4.24-9.771 4.42-16.252 7.9 2.038 18.17 5.194 25.82.657 11.93-7.084 14.29-22.702 6.24-33.729-9.28-12.697-23.72-4.871-33.51 2.656-1.13.868-6.22-3.211-7.2-3.994"/><path fill="#15232b" d="M692.559 161.962c-2.18-6.611-2.18-7.945.337-14.422l5.155 3.419 1.686-.577c2.551-.154 4.175-.316 6.702-.134 10.383 1.472 11.131 1.292 11.815 12.744 2.602 3.117 1.012 1.984 5.115 3.263 10.446-1.396 23.932-13.371 35.611-4.767 7.073 5.211 8.867 13.078 10.754 20.941 15.745 4.284 16.983 8.84 21.845 23.835-2.34 4.724-4.202 8.611-7.062 13.09 1.085 7.124 2.269 13.853-2.462 19.883-4.426 5.642-14.335 7.24-20.868 8.806-1.037.249-1.411 2.532-1.624 3.686-3.434 2.697-6 8.743-9.762 11.77-6.329 5.094-13.27 1.47-20.246 3.497-2.549.741-5.337 8.767-6.861 11.994-4.788 3.964-16.232 2.286-22.117 2.273-11.872-.024-10.75-5.248-14.106-14.572-.603-1.676-12.815-.167-15.373-1.157-4.061-1.57-6.169-3.479-9.452-6.112-9.844-23.431-15.374-6.157-29.854-25.407.056-6.887.075-9.352 1.307-16.204-16.975-17.641-9.018-28.64 11.238-36.08l.92-4.513c1.958-9.853 5.533-13.788 15.191-17.333 12.427-4.56 21.168 9.963 31.022 6.338 1.614-2.54 1.231-1.175 1.089-4.261"/><path fill="#fffffe" d="M706.356 252.879c-22.527-7.268-12.727-14.363-22.196-20.914-11.517-2.066-20.874 4.187-30.128-8.53a24.53 24.53 0 0 1-4.295-18.736c1.165-6.767 4.852-12.923 10.589-16.773a23.84 23.84 0 0 1 19.025-3.193c5.649 1.403 8.451 3.559 12.627 7.374 8.919-4.038 9.206-4.459 18.668-1.897 5.883 2.624 7.111 3.162 12.352 7.264 7.34-8.285 9.362-10.886 21.022-10.536 4.35-1.117 8.866-.516 12.507 2.392 4.882 3.901 6.908 16.057 6.708 21.951-.184 5.445-1.72 10.523-5.943 14.188-10.902 9.463-22.952 3.384-28.344 5.471-4.665 1.806 1.12 16.083-22.592 21.939"/><path fill="#393f45" d="M706.356 252.879c-22.527-7.268-12.727-14.363-22.196-20.914-11.517-2.066-20.874 4.187-30.128-8.53a24.53 24.53 0 0 1-4.295-18.736c1.165-6.767 4.852-12.923 10.589-16.773a23.84 23.84 0 0 1 19.025-3.193c5.649 1.403 8.451 3.559 12.627 7.374 8.919-4.038 9.206-4.459 18.668-1.897-9.827.709-11.728 1.173-18.591 7.957-11.356-14.265-29.307-17.138-36.594 1.939a24.27 24.27 0 0 0 1.036 19.4c7.273 14.337 22.489 10.586 33.943 4.205.284 11.006 2.345 24.552 16.687 24.907a14.73 14.73 0 0 0 10.747-4.338c6.294-6.201 5.48-11.705 5.59-20.007 6.29 2.436 9.799 3.376 16.285 5.027 25.78-5.394 29.14-33.463 4.271-42.362 4.35-1.117 8.866-.516 12.507 2.392 4.882 3.901 6.908 16.057 6.708 21.951-.184 5.445-1.72 10.523-5.943 14.188-10.902 9.463-22.952 3.384-28.344 5.471-4.665 1.806 1.12 16.083-22.592 21.939"/><path fill="#393f45" d="M641.101 179.937c7.166-43.022 36.506-13.477 51.458-17.975.142 3.086.525 1.721-1.089 4.261-9.854 3.625-18.595-10.898-31.022-6.338-9.658 3.545-13.233 7.48-15.191 17.333l-.92 4.513c-20.256 7.44-28.213 18.439-11.238 36.08-1.232 6.852-1.251 9.317-1.307 16.204 14.48 19.25 20.01 1.976 29.854 25.407 3.283 2.633 5.391 4.542 9.452 6.112 2.558.99 14.77-.519 15.373 1.157 3.356 9.324 2.234 14.548 14.106 14.572 5.885.013 17.329 1.691 22.117-2.273 1.524-3.227 4.312-11.253 6.861-11.994 6.976-2.027 13.917 1.597 20.246-3.497 3.762-3.027 6.328-9.073 9.762-11.77-2.838 17.573-14.389 19.642-30.197 19.038-2.442 9.032-2.54 7.985-8.646 14.538 3.941 6.123 8.618 12.194 10.327 19.117 1.406 3.92 2.809 12.536-2.291 14.581l-2.139 3.139c1.137 5.501 5.13 6.693 6.895 13.584-.447 4.171-.05 8.865-2.748 12.3-2.398 4.63-3.496 5.105-7.682 8.528q-.685 87.145-.078 174.292l75.038.109c.074 4.894.785 21.481-.647 25.421-2.399.274-1.434.57-3.009-.34 1.383-32.8-.136-21.712-29.813-22.523-13.766-.377-27.899-.201-41.679.445l.223 72.409 1.087-.301c9.293-2.644 18.216-5.333 27.133.149-8.69 1-19.468-.482-27.05 1.398.387 2.471.208 1.361 1.519 3.332 6.163 9.264 1.712 18.041-7.965 20.852l1.153 2.556c-5.702 8.986-14.193 12.041-22.062 4.332-10.174-9.969-15.761-20.198-5.586-31.432.806-29.638.111-58.788.695-88.277-.647-14.543-.066-34.504-.091-49.435l-.073-91.513c-.801-5.419-.722-16.473-.838-22.381-7.353-5.108-8.295-9.301-10.626-17.416 1.778-5.867 6.904-13.449 6.475-16.689-12.107-13.294-2.313-23.434 6.463-35.983-4.803-4.555-5.438-4.957-8.033-11.474-2.697-6.774-14.258-2.973-19.494-5.71-6.51-3.403-9.672-12.015-11.854-18.594-22.821-5.781-26.193-8.939-24.848-32.419-7.098-5.482-11.399-14.212-7.298-23.119 4.161-9.035 10.581-11.153 19.277-14.306"/><path fill="#15232b" d="M695.096 355.54c8.048.028 15.473.199 23.5-.713.062 10.701 2.621 18.454 2.803 28.167.759 40.442.255 81.033.087 121.484-.042 9.264-2.512 17.673-2.371 27.072q-12.166.07-24.33-.06l-.645-8.415c.29 3.204.966 4.219-.276 6.575-1.522-4.474-1.452-5.856-1.823-10.674-.647-14.543-.066-34.504-.091-49.435l-.073-91.513c1.003-7.062 1.515-12.289 1.95-19.412l.197 12.113.002-.072.21 2.979c.41-6.135.837-11.94.86-18.096m-2.918-1.579c-10.777-11.228-10.862-15.628.135-32.317 1.445-2.194 12.971-1.889 15.722-1.861 8.069.083 15.576 2.345 19.466 10.053 1.783 3.247 2.749 4.611 6.011 5.89-.447 4.171-.05 8.865-2.748 12.3-4.881 1.829-7.645 4.677-12.774 5.346-8.293 1.081-17.453.635-25.812.589"/><path fill="#15232b" d="M697.479 282.952c5.657.183 10.964.299 16.63.655 2.869 3.448 14.471 19.304 16.938 20.815 1.406 3.92 2.809 12.536-2.291 14.581-1.725-.891-2.37-1.375-4.203-.175-3.161 2.07-6.274.702-10.041.12a67.2 67.2 0 0 0-16.975-.464c-5.017.481-10.127 3.745-11.49-4.457-2.01-12.098 6.325-20.756 11.432-31.075m21.515 351.401c-2.292.754-7.48 3.06-9.503 2.985-18.441-.688-18.997-10.925 8.35-5.541zM695.51 533.618c8.97.514 15.585 1.125 24.624.704-.125 7.641.37 72.679-.549 73.541-8.605-.168-15.965.042-24.499.141.043-11.621 2.082-24.019-1.933-35.031-.864-2.369-.748-14.009.118-16.406 2.298-6.358 2.245-16.204 2.239-22.949m-1.911 76.519c7.036-.438 22.038-1.428 28.485.721 3.873 1.29 1.691 12.614-1.333 16.431-5.972.525-25.124 1.773-29.873-1.717-3.377-2.482-.629-11.797 2.721-15.435m620.411-254.97c4.76.339 26.62-1.368 25.71 2.83-1.02 4.729.55 3.828 2.75 6.848-.58 47.535.34 95.09-.33 142.632-.1 6.812.33 14.572-.21 21.303 2.85 3.77 9.93 2.014 14.87 2.199 6.91 5.243 12.04 2.806 21.22 3.209 11.57-.733 23.88.314 36.35-.654 2.09 3.88.18 10.021.81 14.473 1.13 8.053-2.15 6.393-8.44 6.933-3.88-1.298-2.15-1.472-5.39-.369l-.46.98c-3.74 3.45-3.31 5.446-4.86 10.439-.84 1.1-.24.445-2.07 1.678-6.84-2.398-5.51-4.066-7.67-10.922-3.15-1.665-6.3-1.092-9.98-.973.87 5.364.15 26.56 1.13 26.821 16.18 4.285 5.04-7.395 13.54-9.498l.99-.26c3.29.338 3.85.292 7.07 1.354 2.17 3.168 1.16 6.56.64 10.781 4.24-.846 5.72-.654 10.16-.562.04-1.832.57-5.484.79-7.456-.31-3.706 8.18-2.94 8.25-1.957.7 10.087.38 20.892.17 31.08-7.18.083-14.2.194-21.39-.003-17.4.033-36.93.749-53.92.563-2.06-.119-1.07-.202-2.22.203-5.18 1.834-21.58 1.333-27.52 1.35.02-8.259 1.58-21.365-2.96-28.005-.6-11.8-.37-25.453-.27-37.333.47-53.009-.47-106.215.27-159.198 3.2-2.531-.28-14.279 1.68-15.16l.16.115c.42 1.035-.9 12.1.91 12.507 1.12-1.412.25-22.941.22-25.948"/><path fill="#44484e" d="M1313.78 533.053c-.07 1.593-.13 12.136-.54 12.402-.62-2.544-.63-28.557.02-30.808l.04-.001c.22.62.41 14.385.46 16.16 5.03.19 11.35.122 16.24.457 9.84.675 5.57.662 11.93-2.483 2.85 3.77 9.93 2.014 14.87 2.199 6.91 5.243 12.04 2.806 21.22 3.209-8.94.831-25.67.323-35.33.322-.52 11.54.78 64.197-1.35 71.028l-.1.047.14-.369c-2.95-2.386-.77-63.557-1.26-71.681-.21-3.506-5.48-1.102-6.62-1.099-6.64.017-13.13.321-19.72.617"/><path fill="#393f45" d="M1410.63 576.953c-.31-3.706 8.18-2.94 8.25-1.957.7 10.087.38 20.892.17 31.08-7.18.083-14.2.194-21.39-.003 10.67-4.336 3.21-4.058 17.99-4.206-.02-2.139-.63-20.836.32-21.511 2.2.089 1.36 17.575 1.39 19.846l.07.132.18-.046c1.3-4.713-.12-13.854.14-18.821.33-6.347-1.71-5.463-7.12-4.514"/><path fill="#394044" d="M1391.73 587.008c-3.5.11-13.73 1.123-16.08-.484-.39-.267.15-28.504.66-30.751.87 5.364.15 26.56 1.13 26.821 16.18 4.285 5.04-7.395 13.54-9.498l.99-.26c.29 5.373.11 8.802-.24 14.172"/><path fill="#1d1c1d" d="M1399.68 584.971c4.24-.846 5.72-.654 10.16-.562-4.49 4.845-13.27 5.373-10.16.562"/><path fill="#15232b" d="M1012 146.737c7.74-2.886 11.03-3.039 18.13.733 1.48 1.118 2.34 1.941 3.69 3.192-1.77 2.65.69 8.147-2.41 16.001l8.34-2.405c3.01-.074 6.43-.928 9 .106 5.55 2.233 10.58 1.051 16.37.917 1.58 2.485 4.53 6.942 4.7 9.641.78 12.788 15.55 5.512 19.49 19.487.84 2.983 3.7 2.451 1.18 5.279-.99 1.785-4.14 9.422-4.66 11.58 5.29 19.483-4.55 23.623-19.3 27.053-3.02.702-8.95 18.242-16.08 17.04-6.27.207-6.08.31-12.52-.987-.17-.713-.16-1.535-.99-1.627-.85.691-3.84 10.165-5.09 10.707-4.97 2.164-17.2 1.557-22.39 1.608-3.46-18.809-3.07-12.77-19.752-11.915-5.131-4.81-7.314-8.388-13.221-11.384l-1.012-2.265c-8.825-2.746-23.739-6.184-21.337-17.853 3.04-14.772-11.91-15.34-7.08-28.45 2.163-5.869 4.619-8.249 10.128-10.635 11.619-5.032 5.295-10.835 16.998-20.873 14.94-3.001 17.808-.896 31.676 5.157 1.61-4.235 1.06-8.86 1.8-14.086 2.19-3.502-1.38-1.971 4.34-6.021"/><path fill="#393f45" d="M1012 146.737c7.74-2.886 11.03-3.039 18.13.733 1.48 1.118 2.34 1.941 3.69 3.192-1.77 2.65.69 8.147-2.41 16.001-1.45-2.114-1.43-1.989-2.19-4.382-9.89 1.217-9.79 2.158-18.03-3.388-.9 2.786-1.88 9.333-5.33 7.951 1.61-4.235 1.06-8.86 1.8-14.086 2.19-3.502-1.38-1.971 4.34-6.021"/><path fill="#393f45" d="m1014.86 154.368 9.87 1.085c5.32.244 4.2 1.531 4.49 6.828-9.89 1.217-9.79 2.158-18.03-3.388 1.9-1.837 2.4-2.272 3.67-4.525"/><path fill="#fffffe" d="M1014.86 154.368c-1.53-5.579 13.55-3.494 9.87 1.085zm-9.15 38.663 1.41-.875c7.5-4.736 11.71-9.629 22.93-4.166 8.37 4.078 6.78-3.162 12.97-3.902 23.61-2.821 28.26 14.07 22.26 32.077l-1.27 1.23c-6.53 6.554-13.08 8.92-22.5 7.066-5.55.238-1.18 5.79-8.22 11.124-8.7 6.591-20.85 8.551-27.27-2.15-4-6.666-.96-9.039.16-16.033-3.65.609-5.99 3.754-11.149 4.737-16.785 3.197-26.582-18.321-15.619-30.441 6.731-7.44 16.449-8.431 24.118-.862z"/><path fill="#44484e" d="m1005.71 193.031 1.41-.875c7.5-4.736 11.71-9.629 22.93-4.166 8.37 4.078 6.78-3.162 12.97-3.902 23.61-2.821 28.26 14.07 22.26 32.077l-1.27 1.23c-6.53 6.554-13.08 8.92-22.5 7.066-5.55.238-1.18 5.79-8.22 11.124-8.7 6.591-20.85 8.551-27.27-2.15-4-6.666-.96-9.039.16-16.033 2.42 10.97.57 23.944 19.37 19.125 10.4-2.666 7.18-14.929 8.77-18.402 1.26-.911 7.7 4.016 13.67 3.367 4.56-.113 9.52-1.741 12.55-5.358 14.59-17.375-8.97-42.417-24.97-23.027-1.38 1.551-2.06 3.908-4 1.72-6.1-6.857-13.99-7.584-21.09-1.865-2.37 1.908-3.46 3.366-4.77.069"/><path fill="#15232b" d="M1587.69 148.643c6.91-4.319 11.37-4.354 19.19-1.715 1.21 1.192 2.43 2.366 3.67 3.524.22 4.548-.11 11.903 1.54 15.25 5.35-2.332 7.69-3.455 13.52-4.74 2.87.307 6.26.26 8.93 1.127 3.64 1.182 4.42-.444 7.07 2.309 4.24 4.416 7.51 8.248 8.42 14.555.07.417 1.06 3.69 1.56 3.804 5.68 1.297 10.82 1.508 13.38 8.256 4.16 10.963-.07 12.288-1.58 20.912 4.5 17.599-3.55 22.957-19.84 26.09-5.87 15.455-11.83 20.186-28.63 16.216-.39-.121-.79-.243-1.18-.365-.27 1.019-1.07 1.891-1.21 2.501-2.72 11.547-13.1 8.03-26.9 7.588l-1.54-9.462-.54-3.622c-12.12.875-8.16 1.477-20.15-.231-3.38-3.065-4.85-4.537-8.76-6.816-3.44-10.369-12.42-4.505-18.83-10.938-8.48-8.528 1.37-20.358-9.82-25.936-2.43-1.21-1.13-12.321-.89-15.959 6.09-6.16 8.84-7.526 16.35-11.19 4.62-25.45 21.15-21.087 39.94-14.584l4.98-1.085c3.11-3.161 3.04-6.022 5.16-9.308.58-.887 5.44-.516 7.5-1.402-3.47-.401-6.12 1.238-7.03-1.945z"/><path fill="#44484e" d="M1587.69 148.643c6.91-4.319 11.37-4.354 19.19-1.715 1.21 1.192 2.43 2.366 3.67 3.524.22 4.548-.11 11.903 1.54 15.25-7.81 6.827-2.99-9.813-8.11-13.212l-4.95.932c-3.47-.401-6.12 1.238-7.03-1.945z"/><path fill="#9a9592" d="M1592 151.477c3.48-.594 10.73-3.139 11.98 1.013l-4.95.932c-3.47-.401-6.12 1.238-7.03-1.945"/><path fill="#fffffe" d="M1624.21 186.03c6.71.339 13.03 1.489 16.64 7.977 4.16 7.473 3.61 19.796-4.86 24.213-8.77 4.574-15.74 1.78-24.56-.639-.8 10.259-.64 26.045-21.32 18.224-5.47-2.069-5.38-12.308-5.46-16.867-.06-3.525-5.69-.055-7.4.593-24.19 8.515-35.55-25.358-11.66-32.192 9.3-2.658 13.63 1.858 19.17 8.325.26.308 1.86-.761 1.94-.923 5.79-5.753 14.28-6.726 20.65-1.373 1.9 1.597 3.26 3.83 5 .965 2.9-4.758 6.84-6.7 11.86-8.303"/><path fill="#15232b" d="M204.071 364.236c3.827-5.532 1.258-8.708 6.89-8.484 8.168.324 15.875-.511 24.088-.164-.552 31.892.382 64.006-.255 95.835-1.907 8.122-1.338 69.471-.744 79.776-4.519-.132-28.171.419-30.469-.15 1.367-55.078-.199-111.552.49-166.813M1844.77 530.424c-5.62.365-23.44 2.194-27.3.03a62 62 0 0 1-1.28-7.915c-.59-5.677-.67-33.614-.22-38.612 1.48-16.472-2.54-121.18 3.11-128.205 7.47-1.655 19.2-.948 26.85-.15l.09 87.434c0 12.752.56 33.052-.2 45.448-1.42 6.189-1.04 34.453-1.05 41.97m-1574.738.594c10.37-.706 30.478-.171 41.277-.096-.087 2.972.231 21.943-.899 25.021-2.067.768-5.294.599-7.444.339-.801.014-5.191-.318-5.428.455-2.279 6.956 1.453 9.859-8.004 9.049-9.763-.835-4.47-2.739-7.243-9.366-.449-1.072-8.621-.986-8.709-.188-1.015 9.183.087 18.401-.989 27.818-1.281 6.775 19.378 3.408 21.275 1.226 4.613.752 6.954 3.199 11.151.808 6.927-3.947 4.169 8.566 5.761 14.52.236 1.903 1.242 5.91-1.728 5.961-24.357.415-49.541-.758-73.825.506-.769-20.728.284-51.777.283-73.561 3.824-.006 29.93.428 31.791-.149l-.264-.301c-2.15-.285-8.088.465-9.323-.605 1.046-1.319 9.119-.978 12.318-1.437m1649.988.123c3.06.766 1.93 20.65 1.97 25.207-5.73-.283-11.1-.588-16.82-1.001-1.49 10.759.77 10.675-13.15 9.667-6.18-.447 8.75-9.878-12.08-9.589q.09 12.285-.06 24.568c0 .314.07 2.668.49 2.723 5.01.651 12.83 2.803 10.83-4.795-1.83-6.974 6.41-4.099 9.87-4.679 4.15-.57 2.71 8.525 2.67 10.751 5.63 6.084 12.87 1.065 14.09 6.109 2 2.786 2.75 3.842 4.21 6.948l.06 8.595c-6.4 2.016-25.04.823-32.74.372-13.18 1.113-29.77.09-43.21 1.346.26-24.493.2-48.988-.19-73.479 23.5-.159 50.79-.307 74.06-2.743"/><path fill="#393f45" d="M1889.36 606.017c2.73-.991 5.62-2.051 8.35-2.996 6.43.469 18.27.663 24.39 2.624-6.4 2.016-25.04.823-32.74.372"/><path fill="#1d1c1d" d="M1917.83 590.102c2 2.786 2.75 3.842 4.21 6.948l.06 8.595c-6.12-1.961-17.96-2.155-24.39-2.624 7.45-1.874 14.18-1.256 21.83-1.02-.5-4.183-1.25-7.569-1.71-11.899"/><path fill="#15232b" d="M722.894 533.958c13.78-.646 27.913-.822 41.679-.445 29.677.811 31.196-10.277 29.813 22.523-3.312.425-4.829.806-7.92-.1-9.965-2.797-3.885 4.599-6.874 9.326-.844 1.336-8.671.908-10.131.905-6.631-.014.414-10.409-5.431-10.521-5.411-.104-9.261-1.706-8.279 5.365.714 6.567-.969 15.094.73 21.262.343 1.244 6.292.793 7.011.804 5.704.041 1.848-5.306 3.122-7.896.694-1.41 4.546-1.528 6.006-2.831.816-.728 7.558 1.186 8.217 2.682.99 2.251-.945 4.696-.227 6.768.557 1.153 5.809 2.336 6.821 1.174 2.155-2.475-.557-8.637 3.975-8.812 2.323-.106 7.079-.908 6.953 2.746-.336 9.694-.295 19.379-.118 29.086-13.867-.052-33.917.83-46.904.221-8.917-5.482-17.84-2.793-27.133-.149l-1.087.301z"/><path fill="#44484e" d="M1850.06 324.267c7.97 9.535 10.56 18.906-.45 28.663-.84.747-2.99 1.949-3.68 2.642-7.65-.798-19.38-1.505-26.85.15-5.65 7.025-1.63 111.733-3.11 128.205-.45 4.998-.37 32.935.22 38.612a62 62 0 0 0 1.28 7.915c3.86 2.164 21.68.335 27.3-.03.01-7.517-.37-35.781 1.05-41.97.23 14.021.28 28.044.14 42.066 24.02.744 50.92-.657 74.06.621-23.27 2.436-50.56 2.584-74.06 2.743.39 24.491.45 48.986.19 73.479.63 1.442 2.06 3.759 2.59 3.929 3.66 1.165 3.5 15.322.51 16.033-11.1 2.644-10.37 19.998-22.15 16.181-2.65-.857-3.72-1.682-5.25-2.592-1.58-2.57-2.46-4.054-3.8-6.829-1.53-3.48-21.14-17.76-2.94-24.159-.69-19.502-.19-42.441-.19-62.291l.17-116.729c.07-23.389.58-48.262-.48-71.609-.13-2.92-1.47-4.475-3.33-6.561 11.83 2.843 21.82.748 34.03.29 17.39-16.922 6.5-9.918 4.75-28.759"/><path fill="#15232b" d="m1815.11 609.926.93.015c7.23.066 18.76-1.086 25.47.165 9.65 1.797 8.14 12.017 3.43 18.005-8.54 1.66-35.37 4.937-32.9-8.632.73-4.021 2.28-5.864 3.07-9.553"/><path fill="#15232b" d="M1818.05 634.085c1.98-2.183 3.48-2.909 6.44-2.995 5.6-.118 11.2-.321 16.79-.609-9.36 11.788-5.4 9.204-19.43 10.433-1.58-2.57-2.46-4.054-3.8-6.829m-.71-101.236c8.47-.025 17.88.346 26.4.598.4 23.487-.04 47.073.3 70.568.04 2.476.9 3.299-1.96 3.928-4.63.087-9.61.349-14.16.141-9.33-.428-9.55 2.409-10.85-6.544-1.43-9.774-1.08-19.442-1.32-29.321.18-6.631-.92-13.309 1.14-19.688 2.41-7.485.83-12.847.45-19.682"/><path fill="#44484e" d="M1326.72 0h3.71l.65 104.178c21.99 8.532 25.61 25.158 10.3 42.63l-.85.985c2.06 5.631 1.71 5.849.32 11.673l1.2 1.569c10.04 1.001 29.05-13.626 41.04.097 5.48 6.273 5.89 11.006 7.26 18.569 20.3 6.173 29.68 21.78 12.79 38.539l-.55.554c-3.71-5.419 17.68-16.136-4.69-33.964-20.05-2.558-7.72-10.073-17.49-21.179-11.57-13.164-34.15 7.642-41.95-.631-.69-7.502.02-9.51-7.17-12.827-16.74.625-15.46 2.487-18.37 16.228-5.18 3.647-17.04-6.765-25.71-6.965-5.7-.132-7.49.355-13.04 1.282a97 97 0 0 0-2.18 1.866c-7.65 6.76-7.58 10.552-8.24 20.185-9.58 2.888-20.39 6.777-20.95 18.766-.4 8.792 4.76 8.41 6.36 14.529-5.29-1.565-6.57-3.542-8.11-8.326-6.32-19.642 7.42-19.253 18.96-28.7.66-3.274 1.34-8.133 3.17-10.966 11.84-18.257 27.23-14.973 47.81-2.51-.12-5.858-1.4-12.387 1.27-17.202 2.57-4.645-7.62-2.903-10.42-16.38a21.28 21.28 0 0 1 3.65-16.791c5.64-7.87 12.28-10.269 21.28-11.903z"/><path fill="#fffffe" d="M1322.18 110.119c10.28-.437 17.24 1.824 21.5 12.49a16.12 16.12 0 0 1-.69 13.376c-4 7.789-5.88 6.713-10.94 3.024-4.54-.277-18.13 1.763-17.94 1.915-11.28-9.059-6.14-26.132 6.25-30.148zm-.41 35.926c3.53-.171 6.85-.596 9.96 1.343.31-.017 2.37 1.469 1.6 1.93-1.05.636-5-.155-5.98-.25-1.77.253-11.65 3.304-10.91.907.53-1.743 2.22-2.63 3.74-3.248z"/><path fill="#15232b" d="M1009.8 322.436c4.83-.673 14.27-1.656 18.93.239.44.182.45 1.372 2.38 2.313 1.6 7.135 1.03 32.546 1.04 41.343l.07 85.955c-6.27 2.324-15 2.894-21.68 3.455-.06-5.185.26-8.655-.6-13.781-1.42-37.048.09-81.666-.14-119.524m576.19.349c7.27.133 15.84.04 22.94.378l.2 129.99c-6.19 1.336-15.9.865-22.51.796.42-25.567 2.06-79.382-.49-103.089-.46-8.529-.15-19.376-.14-28.075"/><path fill="#394044" d="M234.609 164.3c24.579-12.127 42.019-13.966 50.105 16.407 21.956 5.578 26.355 20.352 12.915 38.146-2.887 3.821 2.175 21.283-7.991 25.116-7.478 2.818-9.144 3.308-17.078 3.954-3.04 19.609-11.476 22.463-30.021 22.07-2.642 8.567-3.042 9.853-10.223 15.359 7.552 12.264 19.682 25.63 4.763 36.884 3.274 4.177 5.59 6.697 7.79 11.573-7.352-2.778-3.895-4.191-8.293-8.491-8.679-8.486-25.911-5.033-35.523-2.461-20.788-7.216 2.051-28.913 1.422-38.588-3.872-5.003-5.522-6.508-6.187-13.133-15.47-1.022-28.917-3.88-30.967-21.833l1.96.337c8.952 17.888 12.655 14.396 30.684 16.973 3.194 3.32 1.751 6.895 3.447 10.261 4.253 8.445 25.532 5.965 32.636 2.675 3.052-1.413 4.408-9.728 5.163-12.944 18.393.201 27.2-2.007 30.51-21.251 13.241-2.004 15.248-1.329 24.001-11.103.24-5.549.135-11.923.175-17.544 11.366-11.827 10.07-21.387-2.266-31.864-3.687-.704-7.069-1.073-10.797-1.514-1.182-11.056-2.71-13.941-10.83-21.568-16.715-3.234-19.54.331-34.476 4.99l-1.958-1.15z"/><path fill="#15232b" d="M208.268 283.915a202 202 0 0 1 20.36-.228q.444 1.049.867 2.108c4.132 10.295 11.064 15.581 10.973 27.2-.063 8.017-7.113 6.076-12.865 6.003-5.908-.538-27.362.774-29.977-1.552-6.054-5.386 7.123-28.418 10.642-33.531"/><path fill="#44484e" d="M1830.29 0h3.78l-.02 104.135c23.55 6.556 26.34 26.705 12.4 44.785-3.1 1.005-5.3 1.695-8.46 2.423l-.22-1.196c-5.72-1.375-6.01-.329-11.83 1.676-2.37.358-3.58.105-5.95-.318l-1.87 1.021c-.86 4.641 1.22 8.069-1.1 11.821-12.02 7.021-38.98-26.316-50.74 19.235-8.22 2.411-13.25 4.236-18.01 11.96-5.45 8.819 4.59 17.215 4.86 21.538-8.76-3.016-8.43-13.094-8.77-20.77 5.04-10.858 8.38-12.449 19.14-16.903 10.08-29.39 25.63-27.665 50.72-15.386.15-5.245.52-9.203 1.83-14.291.9-2.59-1.89-4.524-3.46-6.622-13.36-17.853-3.59-35.21 16.88-38.89.12-9.569.14-19.19.66-28.741-.45-24.353-.2-51.032.16-75.477"/><path fill="#1d1c1d" d="M1830.29 0h3c-.06 10.877.21 60.017-1.3 74.046 0 .049-1.55 1.194-1.86 1.43-.45-24.352-.2-51.031.16-75.476"/><path fill="#fffffe" d="M1825.94 151.823c-9.02-4.214 11.71-8.289 11.83-1.676-5.72-1.375-6.01-.329-11.83 1.676m3.5-41.523c16.89.981 27.67 15.014 14.49 31.556-.91 1.137-8.58-2.307-10.5-2.893-2.02-.008-14.08 1.565-12.98 1.95-13.09-4.576-9.26-27.204 7.02-30.204z"/><path fill="#44484e" d="M704.055 103.466c.272-22.699-.628-54.271.773-75.974.561 6.384-.112 55.787 1.304 56.846.917-.255 1.388-1.538 1.878-2.25l.206 21.565c25.652 6.703 28.775 26.013 12.783 45.493 1.36 6.039 1.428 7.529 1.584 13.67 22.601-9.752 43.635-15.147 50.128 15.252 10.864 11.159 21.724 6.184 18.868 28.196-4.862-14.995-6.1-19.551-21.845-23.835-1.887-7.863-3.681-15.73-10.754-20.941-11.679-8.604-25.165 3.371-35.611 4.767-4.103-1.279-2.513-.146-5.115-3.263-.684-11.452-1.432-11.272-11.815-12.744-2.527-.182-4.151-.02-6.702.134l-1.686.577-5.155-3.419-.556-1.433c-20.313-12.497-9.954-36.168 11.715-42.641"/><path fill="#fffffe" d="M699.737 150.382c-.792-.444-.906-.366-1.276-.941-.176-6.34 27.061.249 11.589.644q-1.806.064-3.611.163c-2.527-.182-4.151-.02-6.702.134m6.682-41.174c16.463 2.099 26.297 20.455 11.527 33.061-.403.344-8.729-3.455-10.255-3.988-4.542.817-12 4.856-14.616 2.462-12.802-11.717-2.628-28.561 11.383-31.124z"/><path fill="#15232b" d="M1609.48 456.877c16.07 2.193 38.52-2.401 53.17.186-1.55 8.96-.08 10.04-7.45 14.869-3.5 1.774 3.86 8.484-4.37 8.633-8.76.158-7.79-.572-7.78-8.638 0-.899-9.45-2.88-8 3.075.77 3.193-1.07 13.038.47 16.59 1.02 1.129 5.89.788 6.54-.183.97-1.446-.08-4.829 1.26-6.064 1.41-1.299 9.24-1.784 10.21.302 1.39 2.996-.68 5.086 1.98 8.462 9.29 1.204 8.68 4.519 11.12 13.355-.32 2.875-35.06 1.853-39.18 1.664-6.63-.611-10.84-.4-17.49-.208.18-17.979.55-34.005-.48-52.043m-576.39-.484c8.21.46 14.04-.044 21.91-.211 10.17.3 20.01 1.231 29.97-.67 4.64-.883-.49 9.871 3.72 15.767-2.43 1.467-6.35.206-9.32.113-7.79-.245 1.95 8.601-7.81 7.777-7.35-.62-4.01.02-6.33-6.634-.25-.573-6.46-.848-7.33.109-1.25 4.382-.15 14.253 0 19.252 6.61 4.988 13.67 4.946 20.75 1.266l1.74-.378 1.8.14c7.03.468.58 7.115 6.82 13.48.02.626.15 2.341-.29 2.356-7.59.263-38.09.782-44.33.34-2.45-.25-10.97.223-11.01-1.585-.3-16.023-.2-35.429-.29-51.122"/><path fill="#394044" d="M1586.13 350.86c2.55 23.707.91 77.522.49 103.089 6.61.069 16.32.54 22.51-.796 8.92 1.229 45.11-.138 56.85-.061-1.26 2.011-1.46 2.609-3.33 3.971-14.65-2.587-37.1 2.007-53.17-.186 1.03 18.038.66 34.064.48 52.043 6.65-.192 10.86-.403 17.49.208-6.06.78-13.56.265-18.61 1.539l1.79 3.359c2.1 1.904 2.6 5.032 1.91 7.697-1.6 3.604-6 8.866-6.51 10.842-4.39-6.03-10.52-6.457-17.46-3.637l-1.52.586c-10.32-11.004-3.01-12.392-1.02-24.896.7-4.372.17-12.292.11-17.099-.29-45.552-.29-91.106-.01-136.659"/><path fill="#15232b" d="M1587.29 455.842c1.6.015 19.08 1.151 19.33 2.844 2.28 15.547-1.3 34.436 1.12 49.983l.04 1.553c-1.3.016-19.13.152-19.04.176-1.82-2.064-1.56-47.832-1.45-54.556"/><path fill="#15232b" d="M1612.54 521.723c-2.57 1.175-5.83 3.778-7.99 4.118-1.47.231-16.54.745-16.97-.31-7.38-18.343 13-13.433 23.05-11.505 2.1 1.904 2.6 5.032 1.91 7.697"/><path fill="#44484e" d="M1608.64 455.501c8.16-.033 27.82-1.154 35.02-.265l.11.183-.07.092c-2.82 1.383-28.61-1.097-34.22 1.366 1.03 18.038.66 34.064.48 52.043 6.65-.192 10.86-.403 17.49.208-6.06.78-13.56.265-18.61 1.539l-1.06-.445-.04-1.553c1.03-16.709-.11-35.029.9-53.168"/><path fill="#15232b" d="M203.973 546.534c2.31-6.017.979-12.726 1.73-13.226l-.05-.021c.528 2.224.023 8.854.743 9.735.619-1.618-.164-8.315.922-8.689 5.359-1.847 20.09-1.262 25.344-1.494-.721 24.719-.717 49.454.01 74.172-6.973.591-18.333 1.603-25.319.372-.843-.148-.803-3.95-.862-4.524-.503.792-.356 1.764-.852 2.578l.007-.008c-.687-2.202-.747-3.619-1.632-6.11-.42-4.963-.474-47.723-.041-52.785"/><path fill="url(#a)" d="M215.417 69.736c.468 10.767.321 23.3.322 34.12 10.062 1.334 15.584 1.226 22.497 9.969a23.28 23.28 0 0 1 4.76 18.176c-.947 5.56-5.677 11.892-8.881 16.431.471-1.173.488 15.753.494 15.868l-1.039 1.301c-.932-3.731.023-15.061-5.066-15.537-1.24-.116-.106 1.548-2.447 1.306-7.416-1.142-8.003-1.512-15.181.978-3.867 4.017-2.356 5.677-4.2 11.172l-2.127-.739c.371-4.495-.858-11.26-1.382-16.117l1.03.83c-16.167-12.04-11.781-32.606 5.427-42.023l1.586-.898c.279-10.165.244-20.432.604-30.557 1.503-2.423 1.526-2.364 3.603-4.28"/><path fill="#fffffe" d="M210.876 152.348c1.9-8.066 13.289-9.888 15.181-.978-7.416-1.142-8.003-1.512-15.181.978m2.267-42.272c10.399-.725 18.779 1.115 23.341 12.001 2.486 5.934-.063 17.641-6.06 20.691-1.229.625-5.837-3.02-6.855-3.698-4.058-.238-8.863-.855-11.941 2.119-2.313 3.11-6.801.397-8.312-2.486-7.262-13.855-.979-21.599 9.827-28.627"/><path fill="#393f45" d="M1273.2 247.589c2.35-1.059 3.32.728 3.97 2.782 5.16 16.071 15.28 16.462 29.92 16.063 2.47 10.07.56 7.218 6.98 15.455 9.74.227 16.5.083 26.07-.225 2.61-4.628 4.11-10.066 8.46-12.582l-.03 1.891c.06 10.507-4.07 9.286-8.98 13.378-.23 1.898 23.87 28.603 5.62 37.809-12.46-3.384-25.64-2.486-37.89.939-12.7-14.372-1.63-24.209 5.2-39.202-2.67-2.504-6.72-5.157-7.64-8.868-.25-.996-.43-2.978-1.19-3.813-.11-.112-16.3-1.777-22.27-7.039-5.01-4.409-7.88-9.917-8.22-16.588"/><path fill="#15232b" d="M1336.03 283.476c2.19 1.183 1.91 6.212 5.12 9.454 2.75 2.771 5.85 9.495 6.71 13.562.42 2.016.59 11.374-3.88 12.365-9.2-1.042-16.57-1.029-25.82-.058-4.18.28-7.4.838-11.72.947-1.43-17.344.84-20.628 10.31-35.869 6.45-.108 12.84-.36 19.28-.401M201.053 322.857c9.612-2.572 26.844-6.025 35.523 2.461 4.398 4.3.941 5.713 8.293 8.491l.046 1.76c.255 7.673-.807 14.931-8.879 18.195l-.987 1.824c-8.213-.347-15.92.488-24.088.164-5.632-.224-3.063 2.952-6.89 8.484a172 172 0 0 1-.156-3.363c-.286-11.004-10.908-4.052-11.506-22.584 1.682-8.863 1.324-9.403 8.644-15.432"/><path fill="#393f45" d="M204.071 364.236a172 172 0 0 1-.156-3.363c-.286-11.004-10.908-4.052-11.506-22.584 2.873 3.005 3.444 1.639 4.138 5.655 2.414 13.977 29.642 9.201 39.489 9.82l-.987 1.824c-8.213-.347-15.92.488-24.088.164-5.632-.224-3.063 2.952-6.89 8.484"/><path fill="#44484e" d="M234.05 531.199c-.594-10.305-1.163-71.654.744-79.776.215 26.176-.223 52.65.251 78.746 9.652.315 26.126.037 34.987.849-3.199.459-11.272.118-12.318 1.437 1.235 1.07 7.173.32 9.323.605l.264.301c-1.861.577-27.967.143-31.791.149.001 21.784-1.052 52.833-.283 73.561 13.232 19.861.876 15.721-4.268 27.786-1.926-3.132-2.19-3.306-4.293-1.499-2.643 2.272-20.483-2.347-20.752-2.271-8-2.578-11.01-8.773-7.154-16.416 3.697-7.329 5.412-6.52 5.254-15.352.885 2.491.945 3.908 1.632 6.11l-.007.008c.496-.814.349-1.786.852-2.578.059.574.019 4.376.862 4.524 6.986 1.231 18.346.219 25.319-.372a1267 1267 0 0 1-.01-74.172c-5.254.232-19.985-.353-25.344 1.494-1.086.374-.303 7.071-.922 8.689-.72-.881-.215-7.511-.743-9.735l.05.021c-.751.5.58 7.209-1.73 13.226-.455-5.69-.448-9.803-.392-15.485 2.298.569 25.95.018 30.469.15"/><path fill="#15232b" d="M205.848 610.087q12.947-.177 25.895-.183c6.322 7.499 10.058 11.409.721 18.57-11.076.561-44.186 3.152-27.813-16.854zM1307.32 323.099c12.25-3.425 25.43-4.323 37.89-.939.89 1.172 1.33 1.755 2.27 2.809.02 7.853 5.35 13.647.44 20.6-2 2.831-4.15 5.164-6.19 8.006-3.32-.062-15.77-.724-17.98-.351-20.05 3.383-15.78-11.721-22.97-16.612.62-5.752 2.8-8.913 6.54-13.513m509.63-1.41c10.93-1.83 9.43-2.174 20.55-.758 3.46.439 9.21 2.133 10.23 2.242l1.64.162.69.932c1.75 18.841 12.64 11.837-4.75 28.759-12.21.458-22.2 2.553-34.03-.29-2.83-2.653-3.65-4.207-5.23-7.723 4.9-8.466.56-11.777 10.9-23.324"/><path fill="#15232b" d="M1818.15 285.159c8.02-.467 16.07-.362 24.08.315l-.47-.035c3.38 6.214 16.79 28.151 6.92 34.169-3.86.815-12.79-.62-16.6-.985-9.95-.953-27.18 5.2-24.03-11.631 1.38-7.341 8.62-12.791 10.14-21.126z"/><path fill="#393f45" d="M1311.04 580.184c4.54 6.64 2.98 19.746 2.96 28.005 5.94-.017 22.34.484 27.52-1.35 1.15-.405.16-.322 2.22-.203l.67 1.656c1.86 4.524 2.9 6.957 2.92 11.706 1.12 6.507-8.53 11.048-9.11 13.594-2.65 11.531-19.32 12.672-23.13 2.404-3.2-8.638-10.05-3.908-10.79-14.47-.48-6.872 2.07-8.832 6.26-14.132.3-9.08.01-18.268.48-27.21"/><path fill="#15232b" d="M1312.73 610.076c4.01-.104 26.66-.916 28.55.354 5.91 3.964 1.62 14.181-2.42 18.234-15.03-.598-43.87 4.114-26.13-18.588m3.18 20.235c2.49.024 17.6.371 18.74 1.253.66 1.676-.85 3.916-1.56 5.454-9.6 3.359-13.6 2.814-17.18-6.707m-306.02-158.266c3.4-19.046-6.01-15.323 20.75-16.337-.69 18.156.82 36.75-.2 54.03-6.8.328-11.81.442-18.63.219-.6-5.484-.65-9.764-1.89-15.158-.35-4.612-.46-18.231-.03-22.754"/><path fill="#393f45" d="M1752.95 232.837c4.16 1.036 6.02 6.407 9.82 8.635 6.6 3.873 16.08.317 19.68 9.233 6.74 16.7 7.02 17.783 26.84 15.541 2.95 10.796 2.8 9.417 9.46 16.36 9.07-.135 17.16.077 26.22.406l5.75-17.287c10.04 1.417 12.32 2.104 21.81-1.634l.85-.951c5.37-6.073 5.31-11.737 9.94-16.182 2.87-1.158 5.02-.375 8.15.18-1.62.241-5.44.317-6.11 1.564-9.48 17.813-10.38 24.134-32.62 20.986-2.34 7.561-3.43 10.918-6.85 17.983 7.04 12.234 15.16 23.81 3.48 35.664l-1.64-.162c-1.02-.109-6.77-1.803-10.23-2.242-11.12-1.416-9.62-1.072-20.55.758-10.34 11.547-6 14.858-10.9 23.324-3.19-9.241.76-14.529 5.17-22.383-11.7-10.937-3.47-29.371 6.97-36.764-1.52 8.335-8.76 13.785-10.14 21.126-3.15 16.831 14.08 10.678 24.03 11.631 3.81.365 12.74 1.8 16.6.985 9.87-6.018-3.54-27.955-6.92-34.169l.47.035c-8.01-.677-16.06-.782-24.08-.315-7-4.017-7.67-6.565-11.53-13.666-18.36-1.606-23.48-6.011-28.91-23.38-10.74-.414-23.06-2.865-24.76-15.276"/><path fill="#15232b" d="M1584.73 297.217c5.61-2.733 20.99-3.472 26.51-.098 4.96 6.275 9.1 11.69 3.63 20.107-2.59 3.263-2.68 3.337-5.94 5.937-7.1-.338-15.67-.245-22.94-.378-3.99-3.724-5.86-4.291-7.22-9.957l-.53-1.94c.48-6.222 2.44-9.192 6.49-13.671"/><path fill="#394044" d="m1578.24 310.888 1.4 1.116c2.66 2.026 6.15 6.336 8.54 8.863 5.68.223 16.29 1.189 21.17-2.432 1.37-1.018 3.99-1.013 5.52-1.209-2.59 3.263-2.68 3.337-5.94 5.937-7.1-.338-15.67-.245-22.94-.378-3.99-3.724-5.86-4.291-7.22-9.957z"/><path fill="#15232b" d="m1007.13 296.828 1.18-.777c4.31-2.952 20.84-.703 26.37 1.153 6.15 6.964 7.78 15.603.15 22.113l-1.15 1.056c-1.46 1.255-1.9 2.868-2.57 4.615-1.93-.941-1.94-2.131-2.38-2.313-4.66-1.895-14.1-.912-18.93-.239l-.6-2.133c-12.349-4.539-8.98-15.51-2.07-23.475"/><path fill="#394044" d="M1009.2 320.303c6.47-.972 18.37-.697 25.63-.986l-1.15 1.056c-1.46 1.255-1.9 2.868-2.57 4.615-1.93-.941-1.94-2.131-2.38-2.313-4.66-1.895-14.1-.912-18.93-.239z"/><path fill="#15232b" d="M1590.42 266.088c4.73-.165 19.11-2.222 17.58 5.404-.09.43 3.46 11.284 4.01 12.969 3.81 11.729-12.76 7.823-18.01 8.693-11.78 1.952-8.44-.412-15.89-5.152.83-3.09.82-4.814 2.43-7.636l1.55-.79c4.27-1.998 6.54-9.313 8.33-13.488"/><path fill="#fffffe" d="M1587.69 148.643c-8.47-.515-12.02-11.994-8.02-18.832 12.85-21.962 41.1-.926 27.21 17.117-7.82-2.639-12.28-2.604-19.19 1.715"/><path fill="url(#b)" d="M1595.17 64.492c1.21 13.08.67 36.78.83 50.792 7.06 2.07 13.09 3.532 16.96 10.708 3.58 6.637 3.63 19.219-2.41 24.46a191 191 0 0 1-3.67-3.524c13.89-18.043-14.36-39.079-27.21-17.117-4 6.838-.45 18.317 8.02 18.832l4.31 2.834c.91 3.183 3.56 1.544 7.03 1.945-2.06.886-6.92.515-7.5 1.402-2.12 3.286-2.05 6.147-5.16 9.308-.56-1.139-1.42-2.843-1.25-4.133.34-6.788-7.56-7.631-10.11-15.493-5.24-16.126 2.26-23.535 16.37-29.09.05-6.161-.01-21.428.71-27.08 4.58-3.366 2.35-17.081 3.08-23.844"/><path fill="#15232b" d="M1002.72 282.198c18.75-11.682-6.383-14.93 26.58-15.2 6.08 30.482 16.03 26.078-21.82 25.926-2.07-2.019-3.98-4.056-6.09-6.085.42-1.559.75-3.131 1.33-4.641"/><path fill="#fffffe" d="M1012 146.737c-7.73-4.542-11.08-9.812-5.81-18.133 12.43-19.614 40.07.673 23.94 18.866-7.1-3.772-10.39-3.619-18.13-.733"/><path fill="url(#c)" d="m1016.79 84.47 3.39 1.666.72 28.804c7.28 2.107 12.71 3.255 16.62 10.511 4.5 8.331 3.33 18.885-3.7 25.211-1.35-1.251-2.21-2.074-3.69-3.192 16.13-18.193-11.51-38.48-23.94-18.866-5.27 8.321-1.92 13.591 5.81 18.133-5.72 4.05-2.15 2.519-4.34 6.021-.5-.833-1.09-1.926-1.85-2.496-9.556-7.104-9.284-23.121.38-29.992 3.55-2.521 6.12-3.064 10.05-4.612.12-10.397.3-20.793.55-31.188"/><path fill="#393f45" d="M1009.94 441.96c.86 5.126.54 8.596.6 13.781 6.68-.561 15.41-1.131 21.68-3.455 2.56 1.449 50.65.704 56.84.644-.21 6.155-.1 12.297-.37 18.349-4.21-5.896.92-16.65-3.72-15.767-9.96 1.901-19.8.97-29.97.67-7.87.167-13.7.671-21.91.211.09 15.693-.01 35.099.29 51.122.04 1.808 8.56 1.335 11.01 1.585-6.31.955-11.34-1.319-10.29 4.902-1.64-.219-1.9-.094-3.35-.694-5.92-2.46-15.19-1.042-21.81-1.316.99-4.067.65-12.26.98-17.193 1.24 5.394 1.29 9.674 1.89 15.158 6.82.223 11.83.109 18.63-.219 1.02-17.28-.49-35.874.2-54.03-26.76 1.014-17.35-2.709-20.75 16.337-.64-7.817-.59-22.491.05-30.085m544.7-198.136c3.91 2.279 5.38 3.751 8.76 6.816 11.99 1.708 8.03 1.106 20.15.231l.54 3.622 1.54 9.462c13.8.442 24.18 3.959 26.9-7.588.14-.61.94-1.482 1.21-2.501.39.122.79.244 1.18.365.02 6.296-5.83 14.093-5.33 15.247 3.91 9.016 12.25 19.85 1.65 27.641-5.52-3.374-20.9-2.635-26.51.098-3.6-2.202-5.07-3.132-6.08-7.273l-.54-1.942c7.45 4.74 4.11 7.104 15.89 5.152 5.25-.87 21.82 3.036 18.01-8.693-.55-1.685-4.1-12.539-4.01-12.969 1.53-7.626-12.85-5.569-17.58-5.404-1.79 4.175-4.06 11.49-8.33 13.488l-1.55.79c1.96-5.48 2.71-6.512 5.27-11.754-3.45-5.988-3.75-5.818-6.47-12.678-13.17.703-18.83.405-24.7-12.11"/><path fill="#394044" d="M976.487 241.763c5.907 2.996 8.09 6.574 13.221 11.384 16.682-.855 16.292-6.894 19.752 11.915 5.19-.051 17.42.556 22.39-1.608 1.25-.542 4.24-10.016 5.09-10.707.83.092.82.914.99 1.627-2.51 8.208-.53 7.201-6.08 14.656 6.23 12.466 10.86 16.965 2.83 28.174-5.53-1.856-22.06-4.105-26.37-1.153l-1.18.777c-5.16-3.463-4.65-3.756-5.74-9.989 2.11 2.029 4.02 4.066 6.09 6.085 37.85.152 27.9 4.556 21.82-25.926-32.963.27-7.83 3.518-26.58 15.2 1.83-4.73 4-8.197 6.23-12.708-2.53-4.97-4.28-7.987-5.52-13.725-.09-.408-1.9-.363-2.38-.268-11.786 2.314-19.68-1.87-24.563-13.734"/><path fill="#393f45" d="M1347.48 324.969c7.98 8.901 8.06 22.654-2.88 29.188-2.65 1.584-1.64 7.587-2.13 10.688-2.2-3.02-3.77-2.119-2.75-6.848.91-4.198-20.95-2.491-25.71-2.83.03 3.007.9 24.536-.22 25.948-1.81-.407-.49-11.472-.91-12.507l-.16-.115c-1.96.881 1.52 12.629-1.68 15.16-.65-5.207-1.01-22.436-1.18-28.259-7.88-7.549-8.73-8.601-9.08-18.782 7.19 4.891 2.92 19.995 22.97 16.612 2.21-.373 14.66.289 17.98.351 2.04-2.842 4.19-5.175 6.19-8.006 4.91-6.953-.42-12.747-.44-20.6"/><path fill="#15232b" d="M1008.94 511.992c6.62.274 15.89-1.144 21.81 1.316 1.45.6 1.71.475 3.35.694 1.21 3.21 1.67 5.658.31 8.964-6.94-1.167-3.98 2.196-7.86 2.657-11.23 1.337-14.98.075-21.85-8.319l.84-1.204c1.51-2.184 1.48-2.388 3.4-4.108"/><path fill="#393f45" d="m1039.75 164.258 1.61-.725c20.12-9.497 27.93-2.092 34.68 16.028 6.49 2.964 11.64 3.909 15.24 11.325 3.09 6.384 2.42 17.904-5.45 20.382.52-2.158 3.67-9.795 4.66-11.58 2.52-2.828-.34-2.296-1.18-5.279-3.94-13.975-18.71-6.699-19.49-19.487-.17-2.699-3.12-7.156-4.7-9.641-5.79.134-10.82 1.316-16.37-.917-2.57-1.034-5.99-.18-9-.106"/><path fill="#1d1c1d" d="M1591.98 0h3.48c.15 13.179.88 52.162-.29 64.492-.73 6.763 1.5 20.478-3.08 23.845-.7-28.501-.14-59.649-.11-88.337m-575.14 0h3.26c.1 28.538-.36 57.666.08 86.136l-3.39-1.666c.47-27.714.16-56.7.05-84.47M211.96 0h3.435c-.001 22.556-.757 47.365.022 69.736-2.077 1.916-2.1 1.857-3.603 4.28.554-24.03.015-49.791.146-74.016"/><path fill="#44484e" d="M1625.61 160.962c18.25-4.516 23.06 3.839 28.94 18.727l-.03.015c6 2.724 10.72 3.003 14.01 10.163 4.49 9.776 2.52 15.522-5.14 22.058 1.51-8.624 5.74-9.949 1.58-20.912-2.56-6.748-7.7-6.959-13.38-8.256-.5-.114-1.49-3.387-1.56-3.804-.91-6.307-4.18-10.139-8.42-14.555-2.65-2.753-3.43-1.127-7.07-2.309-2.67-.867-6.06-.82-8.93-1.127"/><path fill="#1d1c1d" d="M704.817 0h3.103c.065 27.124-.393 55.066.09 82.088-.49.712-.961 1.995-1.878 2.25-1.416-1.058-.743-50.462-1.304-56.846-.457-8.076-.086-19.245-.011-27.492"/><path fill="#393f45" d="M1004.7 517.304c6.87 8.394 10.62 9.656 21.85 8.319 3.88-.461.92-3.824 7.86-2.657-5.23 7.585-13.91 21.142-22.44 8.534-6.5-9.611-5.69-3.216-7.27-14.196"/><path fill="#1d1c1d" d="M272.593 584.05c2.367-.155 9.221.189 11.099-1.183 1.382-1.01-1.375-8.584 1.282-8.782 12.789-.954 13.292-2.156 11.61 9.737-1.524.509-1.736.41-2.716 1.454-1.897 2.182-22.556 5.549-21.275-1.226"/><path fill="#393f45" d="m152.661 177.409.237-1.368c1.784-10.702 3.297-12.954 13.093-18.292 13.14-7.16 27.617 5.9 35.484 5.296l3.074-.264 2.127.739c-6.153 4.574-9.791 2.516-16.571-.826-8.03-3.959-13.347-2.94-22.013-2.509l-.756.495c-12.78 8.251-6.182 7.621-13.912 15.899zm53.253 453.678c.269-.076 18.109 4.543 20.752 2.271 2.103-1.807 2.367-1.633 4.293 1.499l-.627 1.043c-7.465 12.683-20.27 9.686-24.418-4.813M1396.6 530.889c7.71-.451 15.52-.286 23.28-.403-.06 3.769.99 21.6-.85 24.592-1.76 2.843-9.13.832-12.29-.138 6.29-.54 9.57 1.12 8.44-6.933-.63-4.452 1.28-10.593-.81-14.473-7.97-1.154-10.15.661-17.77-2.645m507.14 53.104c2.17-.342 6.51-.449 8.38-1.476 1.62-1.388-.3-6.118.55-7.086.71-.82 8.58-.96 8.7.06.44 3.726.62 18.236.67 21.559-1.46-3.106-2.21-4.162-4.21-6.948-1.22-5.044-8.46-.025-14.09-6.109"/><path fill="#394044" d="M1356.8 530.979c10.2-.197 30.11-.853 39.8-.09 7.62 3.306 9.8 1.491 17.77 2.645-12.47.968-24.78-.079-36.35.654-9.18-.403-14.31 2.034-21.22-3.209"/><path fill="#1d1c1d" d="M1057.9 491.896c17.56-2.575-.21-7.762 16.11-7.646 2.42.017 1.33 5.456 4.64 8.912-7.08 3.68-14.14 3.722-20.75-1.266"/><path fill="#393f45" d="M296.584 583.822c13.877 2.187-2.498-13.53 13.351-8.786 1.974.591.999 20.916.845 25.568-1.592-5.954 1.166-18.467-5.761-14.52-4.197 2.391-6.538-.056-11.151-.808.98-1.044 1.192-.945 2.716-1.454"/><path fill="#15232b" d="m1587.05 529.514 1.52-.586c6.94-2.82 13.07-2.393 17.46 3.637-8.03 7.399-13.12 5.102-18.98-3.051"/><path fill="#394044" d="M1655.51 494.109c2.22-3.628 2.32-8.823 7.04-8.108.52.078 2.76-.433 3.46.656 1.62 4.786.78 15.853.62 20.807-2.44-8.836-1.83-12.151-11.12-13.355"/><path fill="#393f45" d="M1080.39 492.784c1.31-2.333 1.54-5.956 3.14-6.87 10.48-6 5.87 15.576 5.48 20.49-6.24-6.365.21-13.012-6.82-13.48z"/><path fill="#44484e" d="M1665.98 453.092c.22 6.874.28 13.64.54 20.577-5.49-1.185-6.04-2.03-11.32-1.737 7.37-4.829 5.9-5.909 7.45-14.869 1.87-1.362 2.07-1.96 3.33-3.971"/><path fill="#394044" d="M1396.03 565.99c1.55-4.993 1.12-6.989 4.86-10.439 1.19 16.526.07 8.797-4.86 10.439"/><path fill="#df914b" d="M944.454 694.859c3.788-11.948 6.809-19.178 15.996-28.287 12.606-12.502 33.688-22.759 51.58-18.327 6.49 1.608 16.59 7.071 23.41 7.881 8.37 1.071 17.05.212 25.47.631 24.05 1.194 46.23 10.696 44.55 38.309a349 349 0 0 1 31.86 8.087c14.88 3.318 35.68 11.425 49.79 17.444a415.7 415.7 0 0 1 188.3 158.459c34.21 53.84 58.15 115.466 62.99 179.454 5.65.26 17.55.51 22.63 1.37 3.95-.24 7.36-.06 11.28.11l17.99-.41c-.48 25.09-.78 55.74.19 80.72-.61 26.96.86 64.94-.74 90.4l.34 12.85c-.17 1.12-.35 2.24-.53 3.36-5.92 6.53-17.41 17.02-22.75 23.29-13.05 15.32-26.48 35.1-36.09 52.66-59.65 108.98-78.95 243.09-85.97 365.64-1.48 25.97-3.13 71.24-1.05 96.64 78.84 36.34 129.97 117.87 130.37 204.32-16.27-6-24.78-8.56-42.07-8.6-16.42.38-25.84 2.49-41.1 8.04-11.66-68.93-51.75-116.25-120.15-134.76-30.26-6.25-60.02-6.84-89.65 3.06a163.46 163.46 0 0 0-94.31 81.78c-6.3 12.78-8.15 20.77-11.99 34.11-.29 4.38-1.27 8.13-1.5 13.13-.12.96-.17 3.11-.9 3.75 2.61-.38-33.37-9.61-34.73-9.98l-2.06-.13c-12.22.16-19.39-.18-31.6 2.33-4.74 1.01-9.408 2.32-13.975 3.94-3.356.92-7.798 2.78-11.153 4.06a157.8 157.8 0 0 0-35.941-81.87 166.03 166.03 0 0 0-116.136-58.82 159.3 159.3 0 0 0-115.762 39.54 148.96 148.96 0 0 0-50.526 100.37c-22.217-9.05-36.569-9.81-60.336-7.39-3.393-1.42-4.852-1.55-8.494-2.33-3.05 1.31-11.93 6.49-12.349 1.82-.809-5.21-1.847-9.68-2.563-14.93.811-14.35 4.926-34.95 9.86-48.51a156 156 0 0 1 1.807-5.26c18.346-50.5 63.527-103.19 112.503-125.9.025-164.17-8.063-344.99-97.996-489.21-14.768-23.68-27.325-33.08-43.055-52.21l-1.038-1.28c.464-8.65.139-18.56.416-27.47-1.594-30.91.509-68.12-.153-99.69-.22-10.49-.646-50.43.689-57.9 10.553.38 21.302.92 31.842.68 5.352-.81 13.618-.86 19.294-1.06.315-11.94 2.002-28.11 4.743-39.83 34.896-153.482 140.062-267.547 291.323-313.798 12.532-3.833 24.84-6.812 37.444-10.283"/><path fill="#df914b" d="M944.454 694.859c3.788-11.948 6.809-19.178 15.996-28.287 12.606-12.502 33.688-22.759 51.58-18.327 6.49 1.608 16.59 7.071 23.41 7.881 8.37 1.071 17.05.212 25.47.631 24.05 1.194 46.23 10.696 44.55 38.309a349 349 0 0 1 31.86 8.087c14.88 3.318 35.68 11.425 49.79 17.444a415.7 415.7 0 0 1 188.3 158.459c34.21 53.84 58.15 115.466 62.99 179.454 5.65.26 17.55.51 22.63 1.37-4.85.64-5.25-.19-9.16 1.86-1.49.78-9.64.3-12.78.65l-.83-.47c-12.45-.15-24.84-.58-37.26-.93-125.74-3.64-282.21 36.75-374.79 126.24-112.463-96.5-260.056-131.83-404.221-126.23-9.319.36-20.514-1.1-30.339-1.17 5.352-.81 13.618-.86 19.294-1.06.315-11.94 2.002-28.11 4.743-39.83 34.896-153.482 140.062-267.547 291.323-313.798 12.532-3.833 24.84-6.812 37.444-10.283"/><path fill="#15232b" d="M944.454 694.859c3.788-11.948 6.809-19.178 15.996-28.287 12.606-12.502 33.688-22.759 51.58-18.327 6.49 1.608 16.59 7.071 23.41 7.881 8.37 1.071 17.05.212 25.47.631 24.05 1.194 46.23 10.696 44.55 38.309a349 349 0 0 1 31.86 8.087c14.88 3.318 35.68 11.425 49.79 17.444a415.7 415.7 0 0 1 188.3 158.459c34.21 53.84 58.15 115.466 62.99 179.454 5.65.26 17.55.51 22.63 1.37-4.85.64-5.25-.19-9.16 1.86-1.49.78-9.64.3-12.78.65l-.83-.47c-.61-1.17-1.28-1.85-2.12-2.9a928 928 0 0 0-88.1-.07c-8.73-61.601-24.74-111.728-61.56-163.095a325.8 325.8 0 0 0-208.91-129.315c-87.109-14.224-174.116 6.086-245.005 58.37-78.724 58.063-120.74 138.553-135.993 233.45-26.913-.67-53.838-.67-80.751-.02-1.865.43-2.941.37-4.877.43.315-11.94 2.002-28.11 4.743-39.83 34.896-153.482 140.062-267.547 291.323-313.798 12.532-3.833 24.84-6.812 37.444-10.283"/><path fill="#e23e33" d="M948.197 695.928c.809-9.937 2.883-15.525 10.908-22.26 9.767-8.198 24.712-13.499 37.425-12.376 9.01.796 19.95 9.367 27.43 10.153 18.19 1.797 33.26-8.589 51.42.684 6.39 3.264 11.08 5.466 15.69 11.417 6.54 8.435 6.71 12.922 4.75 22.758-12.89 13.244-36.14 26.405-55.05 26.201-16.59-.178-46.496 2.266-59.715-9.21-6.009-5.217-10.855-13.76-17.217-18.997-5.02-4.132-11.004-4.201-15.641-8.37"/><path fill="#1d1c1d" d="M944.454 694.859c3.788-11.948 6.809-19.178 15.996-28.287 12.606-12.502 33.688-22.759 51.58-18.327 6.49 1.608 16.59 7.071 23.41 7.881 8.37 1.071 17.05.212 25.47.631 24.05 1.194 46.23 10.696 44.55 38.309a349 349 0 0 1 31.86 8.087c-2.62 1.489-3.09 1.95-5.97 2.876-9.06-4.164-21.3-5.528-26.75-8.328l-.01-1.95-1.14-.705-1.33 2.785-2.13-.683c-.63 2.457-.88 4.114-1.23 6.622l-2.94 2.534c1.96-9.836 1.79-14.323-4.75-22.758-4.61-5.951-9.3-8.153-15.69-11.417-18.16-9.273-33.23 1.113-51.42-.684-7.48-.786-18.42-9.357-27.43-10.153-12.713-1.123-27.658 4.178-37.425 12.376-8.025 6.735-10.099 12.323-10.908 22.26-3.926 1.205-6.829 4.212-12.733 5.685-27.835 6.942-53.008 15.272-79.385 26.791A405.62 405.62 0 0 0 639.241 953.19c-9.113 22.862-12.786 41.21-19.621 63.71l-3.933 2.04c34.896-153.482 140.062-267.547 291.323-313.798 12.532-3.833 24.84-6.812 37.444-10.283"/><path fill="#e23e33" d="M962.583 667.98c9.987-8.085 24.327-17.905 37.607-18.408 11.34-.604 23.49 7.615 34.33 8.502 28.11 2.299 68-3.702 68.93 36.972l-1.33 2.785-2.13-.683c-1.55-20.979-28.22-33.467-46.91-32.064-8.29.622-16.57 4.15-25.05 3.581-10.52-.706-17.92-5.301-27.1-9.614-9.525-4.209-29.191 4.846-38.347 8.929"/><path fill="#44484e" d="M1137.32 703.153c14.88 3.318 35.68 11.425 49.79 17.444a415.7 415.7 0 0 1 188.3 158.459c34.21 53.84 58.15 115.466 62.99 179.454 5.65.26 17.55.51 22.63 1.37-4.85.64-5.25-.19-9.16 1.86-1.49.78-9.64.3-12.78.65l-.83-.47c-.61-1.17-1.28-1.85-2.12-2.9-1.09-1.97-7.9-43.71-9.37-50.27a406.3 406.3 0 0 0-80.3-163.426 410.8 410.8 0 0 0-174.31-126.241c-9.66-3.732-30.95-12.061-40.81-13.054 2.88-.926 3.35-1.387 5.97-2.876"/><path fill="#393f45" d="m615.687 1018.94 3.933-2.04c-.333 5.39-6.667 37.64-5.983 40.42.543.59 1.427.75 2.184 1.02-1.865.43-2.941.37-4.877.43.315-11.94 2.002-28.11 4.743-39.83"/><path fill="#a75446" d="m1099.99 697.148 2.13.683c-.76 3.307-.49 4.283-3.36 5.939.35-2.508.6-4.165 1.23-6.622"/><path fill="#15232b" d="M1015.35 765.44c9.44-.74 25.59.234 35.37 1.059a323.8 323.8 0 0 1 169.62 65.79c73.78 57.217 112.58 135.471 124.2 226.701-37.7 3.28-62.03 6.54-98.58 14.81-4.06-53.89-15.98-97.272-50.68-140.072-43.09-53.16-95.56-78.202-162.25-85.682a221.7 221.7 0 0 0-156.533 57.888c-49.725 45.001-72.752 101.506-76.048 167.516-26.06-7.74-73.689-13.2-100.603-14.82 26.19-165.824 144.95-284.743 315.504-293.19"/><path fill="#15232b" d="M1008.81 851.402c53.39-5.222 118.37 21.011 157.68 56.636 49.91 45.235 72.71 99.822 75.91 166.332-40.77 10.27-65.52 19.19-104.11 35.26.05-21.06.2-38.28-4.87-58.99-12.72-51.951-42.42-95.555-96.58-107.34-66.168-10.239-112.452 50.13-124.65 108.36-3.948 18.85-4.674 38.43-3.213 57.57-37.163-15.67-66.027-26.03-105.691-35.17 4.477-53.88 15.165-94.472 49.703-137.976 40.004-50.39 92.281-77.429 155.821-84.682"/><path fill="#15232b" d="M1020.03 945.412q2.22-.087 4.44-.061c57 .861 95.35 56.859 106.01 107.439 4.55 21.57 4.62 36.97 4.41 58.68-44.7 21.79-71.08 37.39-108.61 70.8-2.65-.72-14.65-11.1-17.72-13.56-29.177-23.35-63.343-41.31-96.487-57.96-3.77-48.34 6.976-92.87 38.779-130.527 19.326-22.885 39.814-32.41 69.178-34.811"/><path fill="#15232b" d="M559.808 1059.15c10.553.38 21.302.92 31.842.68 9.825.07 21.02 1.53 30.339 1.17 144.165-5.6 291.758 29.73 404.221 126.23 92.58-89.49 249.05-129.88 374.79-126.24 12.42.35 24.81.78 37.26.93l.83.47c3.14-.35 11.29.13 12.78-.65 3.91-2.05 4.31-1.22 9.16-1.86 3.95-.24 7.36-.06 11.28.11l17.99-.41c-.48 25.09-.78 55.74.19 80.72-.61 26.96.86 64.94-.74 90.4l.34 12.85c-5.61-1.62-18.09-1.13-24.11-.45-14.68.57-33.37.01-48.37 0-41.07 1.53-75.03 3.74-115.84 10.71-90.31 15.42-207.99 64.71-271.01 133.49-2.07 2.27-4.08 4.6-6.04 6.97-84.874-93.69-239.131-143.88-362.343-149.95-9.958-.4-19.92-.68-29.884-.86-20.097-.62-49.022-.4-69.015.48l-3.395.33-1.227-.06c.464-8.65.139-18.56.416-27.47-1.594-30.91.509-68.12-.153-99.69-.22-10.49-.646-50.43.689-57.9"/><path fill="#15232b" d="M604.32 1169.04c38.541-2.41 63.656-3.1 102.671.9 7.819.82 15.457 2.27 23.207 3.32 8.145 1.39 27.184 3.7 34.47 6.39 97.243 18.54 191.199 65.64 260.842 136.41 79.8-89.04 204.09-134.14 320.72-145.64 2.8.7 2.77.91 5.13 2.7 6.29-.2 12.67-.89 19.03-1.27 5.33-1.57 6.62-.71 11.4-3.81 11.42-.8 30.31-.73 42.03.01 3.36 2.47 6.5 2.91 10.49 3.89 13.81 1.01 27.87 1.22 41.7 2.87 10.05 1.19 10.1-1.54 12.37 8.85 1.93 7.12-1.78 43.96 1.37 47.04l.34 12.85c-5.61-1.62-18.09-1.13-24.11-.45-14.68.57-33.37.01-48.37 0-41.07 1.53-75.03 3.74-115.84 10.71-90.31 15.42-207.99 64.71-271.01 133.49-2.07 2.27-4.08 4.6-6.04 6.97-84.874-93.69-239.131-143.88-362.343-149.95-9.958-.4-19.92-.68-29.884-.86-20.097-.62-49.022-.4-69.015.48l-3.395.33-1.227-.06c.464-8.65.139-18.56.416-27.47 2.182-2.64 1.067-29.74 1.162-34.75.035-1.86-.151-4.6 1.217-6.12.123-.14.25-.16.429-.13.348.07 1.021.88 1.177 1.05 1.702-1.51 25.574-3.06 30.224-3.48 2.809-.22 5.09-.28 7.907-.3z"/><path fill="#394044" d="M1025.51 1316.06c79.8-89.04 204.09-134.14 320.72-145.64 2.8.7 2.77.91 5.13 2.7-105.23 10.52-210.06 44.85-291.84 113.93-12.95 10.94-22.45 21.84-34.06 33.82-74.795-75.72-155.92-113.72-258.818-137.06l-1.974-4.16c97.243 18.54 191.199 65.64 260.842 136.41"/><path fill="#393f45" d="M604.32 1169.04c38.541-2.41 63.656-3.1 102.671.9l-1.424 3.68a554.4 554.4 0 0 0-104.179-.61zm-45.048 47.7c2.182-2.64 1.067-29.74 1.162-34.75.035-1.86-.151-4.6 1.217-6.12.123-.14.25-.16.429-.13.348.07 1.021.88 1.177 1.05-.065 21.93-1.342 45.22.221 67.15l-3.395.33-1.227-.06c.464-8.65.139-18.56.416-27.47"/><path fill="#394044" d="M1381.79 1168.04c11.42-.8 30.31-.73 42.03.01 3.36 2.47 6.5 2.91 10.49 3.89-5.47-.12-10.79-.42-16.25-.77-15.91-1-31.82 1.12-47.67.68 5.33-1.57 6.62-.71 11.4-3.81m-651.592 5.22c8.145 1.39 27.184 3.7 34.47 6.39l1.974 4.16-1.795-.35c-11.707-2.15-24.111-4.28-35.659-6.87zm-23.207-3.32c7.819.82 15.457 2.27 23.207 3.32l-1.01 3.33c-8.044-.78-15.553-2.28-23.621-2.97z"/><path fill="#df914b" d="M713.33 1132.94c4.077-.01 5.996.2 9.98.77 100.832 10.9 191.673 42.57 271.089 107.89 12.071 9.93 19.541 20.63 30.031 30.63 41.1-49.89 116.75-92.57 177.36-113.06 14.36-4.85 28.24-8.16 42.84-11.95l2.87 3.48c6.22-1.33 12.39-2.69 18.63-3.98-.72-1.21-1.37-2.3-2.14-3.48 3.79-.47 7.79-1.29 11.52-2.11 14.74-3.24 29.63-4.48 44.5-6.56l1.49.84c1.48.88 2.96 1.36 4.62 1.75l1.05.25a824 824 0 0 1 116-1.11c6.28-1.52 4.77-2.01 11.71-2.85 8.67.75 17.2 1.39 25.78 2.9 5.72 1.01 6.27-1.21 9.83 3.95-.61 26.96.86 64.94-.74 90.4-3.15-3.08.56-39.92-1.37-47.04-2.27-10.39-2.32-7.66-12.37-8.85-13.83-1.65-27.89-1.86-41.7-2.87-3.99-.98-7.13-1.42-10.49-3.89-11.72-.74-30.61-.81-42.03-.01-4.78 3.1-6.07 2.24-11.4 3.81-6.36.38-12.74 1.07-19.03 1.27-2.36-1.79-2.33-2-5.13-2.7-116.63 11.5-240.92 56.6-320.72 145.64-69.643-70.77-163.599-117.87-260.842-136.41-7.286-2.69-26.325-5-34.47-6.39-7.75-1.05-15.388-2.5-23.207-3.32-39.015-4-64.13-3.31-102.671-.9l-2.932 3.97c-2.817.02-5.098.08-7.907.3l-1.908-3.22c-9.529 1.01-19.069 1.91-28.62 2.68l-.035-31.68a1581 1581 0 0 1 41.761-4.63c35.253-3.18 62.314-1.84 97.134-1.36 5.068-.61 7.227.27 11.517-2.16"/><path fill="#44484e" d="M723.31 1133.71c100.832 10.9 191.673 42.57 271.089 107.89 12.071 9.93 19.541 20.63 30.031 30.63 41.1-49.89 116.75-92.57 177.36-113.06 14.36-4.85 28.24-8.16 42.84-11.95l2.87 3.48c-72.09 11.74-177.97 68.84-221.81 128.7-11.07-12.15-22.46-24.77-34.991-35.42-68.842-58.49-155.259-91.52-244.182-103.43-10.654-1.43-21.864-2.82-32.423-4.51 3.799-2.46 4.491-1.79 9.216-2.33"/><path fill="#393f45" d="M1454.88 1133.45c8.67.75 17.2 1.39 25.78 2.9 5.72 1.01 6.27-1.21 9.83 3.95-.61 26.96.86 64.94-.74 90.4-3.15-3.08.56-39.92-1.37-47.04-2.27-10.39-2.32-7.66-12.37-8.85-13.83-1.65-27.89-1.86-41.7-2.87-3.99-.98-7.13-1.42-10.49-3.89 16.55.09 47.41 2.31 63.29 4.85.1-10.9.1-21.8-.02-32.69-13.77-.71-30.06-2.47-43.92-3.91 6.28-1.52 4.77-2.01 11.71-2.85m-190.89 9.79c3.79-.47 7.79-1.29 11.52-2.11 14.74-3.24 29.63-4.48 44.5-6.56l1.49.84c1.48.88 2.96 1.36 4.62 1.75l1.05.25c-20.79 3.24-39.71 4.82-60.85 9.27l-.19.04c-.72-1.21-1.37-2.3-2.14-3.48m82.24 27.18c5.17-1.07 30.02-2.4 35.56-2.38-4.78 3.1-6.07 2.24-11.4 3.81-6.36.38-12.74 1.07-19.03 1.27-2.36-1.79-2.33-2-5.13-2.7"/><path fill="#394044" d="M591.573 1170.09c4.558-.19 8.262-.67 12.747-1.05l-2.932 3.97c-2.817.02-5.098.08-7.907.3z"/><path fill="#393f45" d="M713.33 1132.94c4.077-.01 5.996.2 9.98.77-4.725.54-5.417-.13-9.216 2.33-4.774-.02-7.539-.1-12.281-.94 5.068-.61 7.227.27 11.517-2.16"/><path fill="#44484e" d="M559.272 1216.74c-1.594-30.91.509-68.12-.153-99.69-.22-10.49-.646-50.43.689-57.9 1.755 12.18.065 36.39.629 49.95.358 8.58 2.229 22.93 2.116 29.56 12.438-2.15 23.455-3.59 36.004-5.05 2.218 1.16 3.727 2.14 6.122 2.85a1581 1581 0 0 0-41.761 4.63l.035 31.68c9.551-.77 19.091-1.67 28.62-2.68l1.908 3.22c-4.65.42-28.522 1.97-30.224 3.48-.156-.17-.829-.98-1.177-1.05-.179-.03-.306-.01-.429.13-1.368 1.52-1.182 4.26-1.217 6.12-.095 5.01 1.02 32.11-1.162 34.75"/><path fill="#393f45" d="M1320.01 1134.57c44.83-5.55 89.95-4.24 134.87-1.12-6.94.84-5.43 1.33-11.71 2.85a824 824 0 0 0-116 1.11l-1.05-.25c-1.66-.39-3.14-.87-4.62-1.75z"/><path fill="#394044" d="M598.557 1133.61c18.286-4.37 96.083-4.39 114.773-.67-4.29 2.43-6.449 1.55-11.517 2.16-34.82-.48-61.881-1.82-97.134 1.36-2.395-.71-3.904-1.69-6.122-2.85"/><path fill="#393f45" d="M1244.63 1147.22c6.38-.96 12.96-2.83 19.36-3.98.77 1.18 1.42 2.27 2.14 3.48-6.24 1.29-12.41 2.65-18.63 3.98zm216.4-87.34c3.95-.24 7.36-.06 11.28.11-5.13 5.08-26.44 3.49-33.22 2.4 3.14-.35 11.29.13 12.78-.65 3.91-2.05 4.31-1.22 9.16-1.86"/><path fill="#15232b" d="M757.035 1769.2a238.1 238.1 0 0 1 182.232 28.73c30.575 18.66 54.261 38.81 72.923 69.24 1.13 1.86 7.17 11.07 8.1 11.97 1.2 2.82 1.42 3.87 3.65 6.03 2.81-1.52 2.96-3.54 4.71-7.1 4.63-5.58 10.29-15.66 15.31-22.25 59.19-77.61 155-107.42 249.13-86.55 11.36 3 37.73 11.58 47.35 17.62 2.75 2.72 11.47 6.82 15.2 9a246 246 0 0 1 24.47 16.05c49.22 37.25 81.79 92.73 89.73 153.58.8 6.15-1 8.31.9 17.08l-.67 1.06c-7.94-2.59-16.56-5.44-24.81-6.49l-2.71.56c-6.37 1.29-1.37 2.14-10.54 2.39l-.01.74c-16.42.38-25.84 2.49-41.1 8.04-11.66-68.93-51.75-116.25-120.15-134.76-30.26-6.25-60.02-6.84-89.65 3.06a163.46 163.46 0 0 0-94.31 81.78c-6.3 12.78-8.15 20.77-11.99 34.11-.29 4.38-1.27 8.13-1.5 13.13-.12.96-.17 3.11-.9 3.75 2.61-.38-33.37-9.61-34.73-9.98l-2.06-.13c-12.22.16-19.39-.18-31.6 2.33-4.74 1.01-9.408 2.32-13.975 3.94-3.356.92-7.798 2.78-11.153 4.06a157.8 157.8 0 0 0-35.941-81.87 166.03 166.03 0 0 0-116.136-58.82 159.3 159.3 0 0 0-115.762 39.54 148.96 148.96 0 0 0-50.526 100.37c-22.217-9.05-36.569-9.81-60.336-7.39-3.393-1.42-4.852-1.55-8.494-2.33-3.05 1.31-11.93 6.49-12.349 1.82-.809-5.21-1.847-9.68-2.563-14.93.811-14.35 4.926-34.95 9.86-48.51 2.834-2.73 2.865-3.12 6.336-4.73 10.743-38.05 49.457-81.72 81.2-105.23 9.488-7.03 22.646-12.95 31.04-20.36 13.522-7.08 36.84-14.48 51.824-18.55"/><path fill="#393f45" d="M656.723 1983.29c4.208-39.7 25.905-76.92 56.9-101.76 36.632-29.36 77.622-40.02 123.874-34.82a164.76 164.76 0 0 1 110.772 61.9c15.475 19.48 32.729 50.63 33.145 76.07 3.816.39 5.002.27 8.621 1.45-3.356.92-7.798 2.78-11.153 4.06a157.8 157.8 0 0 0-35.941-81.87 166.03 166.03 0 0 0-116.136-58.82 159.3 159.3 0 0 0-115.762 39.54 148.96 148.96 0 0 0-50.526 100.37c-22.217-9.05-36.569-9.81-60.336-7.39-3.393-1.42-4.852-1.55-8.494-2.33 24.702-5.38 40.971-5.11 65.036 3.6m512.047-126.03c32.63-14.9 72.8-14.46 107.12-6.16 63.43 18.69 107.38 65.87 117.35 131.67 7.54-1.55 18.46-4.33 25.64-5.07 4.24.59 7.76 1.68 11.63 2.2l1.5.22-.01.74c-16.42.38-25.84 2.49-41.1 8.04-11.66-68.93-51.75-116.25-120.15-134.76-30.26-6.25-60.02-6.84-89.65 3.06-5.57-.81-6.71-.64-12.33.06"/><path fill="#44484e" d="M1168.77 1857.26c5.62-.7 6.76-.87 12.33-.06a163.46 163.46 0 0 0-94.31 81.78c-6.3 12.78-8.15 20.77-11.99 34.11-1.39-3.8-1.26-4.45-2.06-8.5 14.64-48.29 48.71-88.47 96.03-107.33"/><path fill="#393f45" d="M586.635 1918.07c2.834-2.73 2.865-3.12 6.336-4.73-8.914 23.5-11.088 43.73-13.633 68.17-.809-5.21-1.847-9.68-2.563-14.93.811-14.35 4.926-34.95 9.86-48.51"/><path fill="#44484e" d="M981.414 1984.68c17.338-6.35 36.036-10.22 54.196-4.82-12.22.16-19.39-.18-31.6 2.33-4.74 1.01-9.408 2.32-13.975 3.94-3.619-1.18-4.805-1.06-8.621-1.45m56.256-4.69c6.53-4.93 23.46 1.93 31.12 4.27 1.58.63 2.97 1.26 4.51 1.96-.12.96-.17 3.11-.9 3.75 2.61-.38-33.37-9.61-34.73-9.98"/><path fill="#393f45" d="M1068.79 1984.26c.65-7.36 2.37-12.48 3.95-19.67.8 4.05.67 4.7 2.06 8.5-.29 4.38-1.27 8.13-1.5 13.13-1.54-.7-2.93-1.33-4.51-1.96"/><path fill="#394044" d="M1418.88 1977.7c8.21-1.29 18.01-.77 26.38-.53l-2.71.56c-6.37 1.29-1.37 2.14-10.54 2.39l-1.5-.22c-3.87-.52-7.39-1.61-11.63-2.2"/><path fill="#15232b" d="M563.478 1243.94c19.993-.88 48.918-1.1 69.015-.48l.693 2.99c1.552.03 6.206.01 7.479.23 32.387.68 90.882 5.41 121.946 14.88 39.598 102.44 58.395 209.01 66.624 318.31 4.536 60.25 3.885 119.63 3.835 179.96-22.106-1.79-53.802-.82-75.162 5.68l-2.509 1.52 1.636 2.17c-14.984 4.07-38.302 11.47-51.824 18.55-8.394 7.41-21.552 13.33-31.04 20.36-31.743 23.51-70.457 67.18-81.2 105.23-3.471 1.61-3.502 2-6.336 4.73a156 156 0 0 1 1.807-5.26c18.346-50.5 63.527-103.19 112.503-125.9.025-164.17-8.063-344.99-97.996-489.21-14.768-23.68-27.325-33.08-43.055-52.21l-1.038-1.28 1.227.06z"/><path fill="#df914b" d="M563.478 1243.94c19.993-.88 48.918-1.1 69.015-.48l.693 2.99c1.552.03 6.206.01 7.479.23l-1.875.91c2.442 7.01 12.474 18.67 16.669 25.79 67.281 114.16 99.936 264.22 103.918 395.71.625 19.89.659 39.79.104 59.68-.386 11.85-1.507 25.15-1.573 36.74l-2.509 1.52 1.636 2.17c-14.984 4.07-38.302 11.47-51.824 18.55-8.394 7.41-21.552 13.33-31.04 20.36-31.743 23.51-70.457 67.18-81.2 105.23-3.471 1.61-3.502 2-6.336 4.73a156 156 0 0 1 1.807-5.26c18.346-50.5 63.527-103.19 112.503-125.9.025-164.17-8.063-344.99-97.996-489.21-14.768-23.68-27.325-33.08-43.055-52.21l-1.038-1.28 1.227.06z"/><path fill="#393f45" d="m558.856 1244.21 1.227.06c10.891 6.86 22.081 19.3 29.794 29.88 100.416 137.71 113.464 323.43 113.67 488.48.006 4.79-.676 22.08 1.664 25.12-8.394 7.41-21.552 13.33-31.04 20.36-31.743 23.51-70.457 67.18-81.2 105.23-3.471 1.61-3.502 2-6.336 4.73a156 156 0 0 1 1.807-5.26c18.346-50.5 63.527-103.19 112.503-125.9.025-164.17-8.063-344.99-97.996-489.21-14.768-23.68-27.325-33.08-43.055-52.21z"/><path fill="#394044" d="M633.186 1246.45c1.552.03 6.206.01 7.479.23l-1.875.91c2.442 7.01 12.474 18.67 16.669 25.79 67.281 114.16 99.936 264.22 103.918 395.71.625 19.89.659 39.79.104 59.68-.386 11.85-1.507 25.15-1.573 36.74l-2.509 1.52c-1.189-8.48.349-35.24.534-45.46.561-26.36.083-52.73-1.434-79.05-7.766-121.11-39.586-265.99-104.708-371.81-4.861-7.9-11.388-15.32-16.162-23.32-.148-.31-.295-.63-.443-.94"/><path fill="#15232b" d="M1465.98 1243.1c6.02-.68 18.5-1.17 24.11.45-.17 1.12-.35 2.24-.53 3.36-5.92 6.53-17.41 17.02-22.75 23.29-13.05 15.32-26.48 35.1-36.09 52.66-59.65 108.98-78.95 243.09-85.97 365.64-1.48 25.97-3.13 71.24-1.05 96.64 78.84 36.34 129.97 117.87 130.37 204.32-16.27-6-24.78-8.56-42.07-8.6l.01-.74c9.17-.25 4.17-1.1 10.54-2.39l2.71-.56c8.25 1.05 16.87 3.9 24.81 6.49l.67-1.06c-1.9-8.77-.1-10.93-.9-17.08-7.94-60.85-40.51-116.33-89.73-153.58-7.83-5.83-16-11.19-24.47-16.05-3.73-2.18-12.45-6.28-15.2-9-9.62-6.04-35.99-14.62-47.35-17.62.86-3.51 1.16-2.1.3-5.02-.92 1.52-1.19 1.5-2.95 1.85-18.39-7.46-55.38-7.6-75.22-6.01-2.3-164.69 8.81-345.12 69.59-499.69 36.13-8.74 86.77-12.56 123.46-13.74l5.45-.77-.06-1.15 3.95-1.64c15 .01 33.69.57 48.37 0"/><path fill="#df914b" d="M1465.98 1243.1c6.02-.68 18.5-1.17 24.11.45-.17 1.12-.35 2.24-.53 3.36-5.92 6.53-17.41 17.02-22.75 23.29-13.05 15.32-26.48 35.1-36.09 52.66-59.65 108.98-78.95 243.09-85.97 365.64-1.48 25.97-3.13 71.24-1.05 96.64 78.84 36.34 129.97 117.87 130.37 204.32-16.27-6-24.78-8.56-42.07-8.6l.01-.74c9.17-.25 4.17-1.1 10.54-2.39l2.71-.56c8.25 1.05 16.87 3.9 24.81 6.49l.67-1.06c-1.9-8.77-.1-10.93-.9-17.08-7.94-60.85-40.51-116.33-89.73-153.58-7.83-5.83-16-11.19-24.47-16.05-3.73-2.18-12.45-6.28-15.2-9-9.62-6.04-35.99-14.62-47.35-17.62.86-3.51 1.16-2.1.3-5.02-1.77-24.09-.88-48.05-1.62-71.82.48-23.78 1.58-47.54 3.31-71.25 1.46-6.38 1.95-16.71 2.69-23.52 6.15-57.18 16.07-113.45 31.2-168.96 16.94-59.12 38.58-113.11 72.84-164.43 4.32-6.2 8.32-11.71 11.91-18.38l-.06-1.15 3.95-1.64c15 .01 33.69.57 48.37 0"/><path fill="#1d1c1d" d="M1465.98 1243.1c6.02-.68 18.5-1.17 24.11.45-.17 1.12-.35 2.24-.53 3.36-5.92 6.53-17.41 17.02-22.75 23.29-13.05 15.32-26.48 35.1-36.09 52.66-59.65 108.98-78.95 243.09-85.97 365.64-1.48 25.97-3.13 71.24-1.05 96.64 78.84 36.34 129.97 117.87 130.37 204.32-16.27-6-24.78-8.56-42.07-8.6l.01-.74c9.17-.25 4.17-1.1 10.54-2.39l2.71-.56c8.25 1.05 16.87 3.9 24.81 6.49l.67-1.06c-1.9-8.77-.1-10.93-.9-17.08-7.94-60.85-40.51-116.33-89.73-153.58-7.83-5.83-16-11.19-24.47-16.05-3.73-2.18-12.45-6.28-15.2-9 .32-28.92-.86-59.27.86-89.06 8.26-143.25 29.88-307.97 119.38-425.51 7.68-10.09 18.55-20.07 27.67-28.59-7.5-.07-14.89-.05-22.37-.63"/><path fill="#393f45" d="m1408.27 1246.66 5.45-.77c-3.59 6.67-7.59 12.18-11.91 18.38-34.26 51.32-55.9 105.31-72.84 164.43l-4.04-.53c11.74-47.9 43.75-122.44 71.39-162.99 3.35-5.73 8.26-12.83 11.95-18.52"/><path fill="#44484e" d="m1324.93 1428.17 4.04.53c-15.13 55.51-25.05 111.78-31.2 168.96-.74 6.81-1.23 17.14-2.69 23.52-3.29-7.4.27-25.79 1.13-34.92 5.13-54.25 15.4-105.24 28.72-158.09"/><path fill="#394044" d="M1290.44 1766.1c-.68-5.73-.39-8.09-.61-13.57-.8-3.28.04-8.62-.37-11.57-.63-4.61 1.25-3.34 1.99-5.97.51-1.82-.6-7.35-.52-9.49.41-10.21-1.49-23.29.84-33.07.74 23.77-.15 47.73 1.62 71.82-.92 1.52-1.19 1.5-2.95 1.85"/><path fill="#15232b" d="M766.638 1262.36c42.651 10.03 93.879 24.61 132.366 45.58 7.27 25.09 11.044 52.2 14.877 77.98 10.847 72.98 12.059 142.96 12.632 216.42q.596 92.25-.205 184.5c-33.446-15.98-53.521-21.7-89.893-26.96 5.157-154.09-9.713-316.91-57.139-463.91-3.546-11-9.121-21.76-12.391-32.76zm510.392-.12 2.16.14c.54 3.67-11.09 31.72-13.53 39.48a918 918 0 0 0-29.91 121.43c-21.73 118.57-24.58 218.16-23.56 337.28-35.51 3.17-56.57 10.99-88.81 24.9l-.7.12-1.11-1.02c.01-86.83-2.41-179.13 2.02-265.33 3.33-71.33 12.01-142.32 25.97-212.35 34.41-18.62 89.58-35.95 127.47-44.65"/><path fill="#15232b" d="M903.265 1310.23c34.113 13.46 96.009 59.31 119.415 87.3 1.36 112.44.11 227.35.25 340.09v91.53c0 12-.63 37.16.8 47.79-2.67-2.82-6.49-8.87-8.68-12.28-21.152-32.93-51.95-57.32-86.003-76.38 2.212-38.62.97-91.03 1.064-130.49.256-107.69.031-243.09-26.846-347.56m240.235-.24 1.47.28c.6 2.95-6.94 37.51-7.9 43.22-19.36 115.87-19.12 229.68-19.01 346.78l.05 54.21c.01 9.42-.47 24.66.86 33.4-36.61 19.63-70.16 49.95-91.38 85.71l-.67.83c-2.46-5.18-.46-433.16-1-476.82 37.94-40.11 68.16-62.05 117.58-87.61"/><path fill="#44484e" d="M575.817 1989.9c-.077-7.46-.187-15.95.958-23.32.716 5.25 1.754 9.72 2.563 14.93.419 4.67 9.299-.51 12.349-1.82 3.642.78 5.101.91 8.494 2.33-9.155 2.38-15.563 4.89-24.364 7.88"/><metadata><recraft-signature>{&quot;signed_by&quot;: &quot;recraft&quot;, &quot;signature_b64&quot;: &quot;vHrS8UaWaJM6L6Mt36aqIzx1Ngv4+yP4jHVWEzuPWgdd0hMXVefM9jNEOyZltww+2bPAbHotXLCbwjr+0To/AQ==&quot;, &quot;signing_algo&quot;: &quot;Ed25519&quot;, &quot;generation_timestamp&quot;: 1777235368, &quot;identifier&quot;: &quot;c17362bc-cc58-4207-aee7-489cd9e91a65&quot;}</recraft-signature></metadata></svg>