<svg xmlns="http://www.w3.org/2000/svg" width="1024" height="1024" preserveAspectRatio="none" style="display:block" viewBox="0 0 2048 2048"><defs><linearGradient id="c" x1="1021.58" x2="999.957" y1="1512.74" y2="1506.42" gradientUnits="userSpaceOnUse"><stop class="stop0" offset="0" stop-color="#f9cfcf"/><stop class="stop1" offset="1" stop-color="#fff"/></linearGradient><linearGradient id="b" x1="1200.95" x2="1233.05" y1="881.815" y2="874.185" gradientUnits="userSpaceOnUse"><stop class="stop0" offset="0" stop-color="#c07439"/><stop class="stop1" offset="1" stop-color="#e2874b"/></linearGradient><linearGradient id="a" x1="890.412" x2="855.751" y1="1283.62" y2="1249.45" gradientUnits="userSpaceOnUse"><stop class="stop0" offset="0" stop-color="#2f2a2c"/><stop class="stop1" offset="1" stop-color="#454c4f"/></linearGradient></defs><path fill="#393e43" d="M1090.39 488.216c15.01-8.621 30.72-17.369 45.4-26.423q14.91 8.9 29.37 18.497l.35 146.975c8.55 8.252 21.99 16.361 31.79 23.424 20.54 14.811 42.97 28.827 63.47 43.554 7.73-3.406 13.6-6.087 20.98-10.124 15.57 59.247 31.27 114.855 62.1 167.954 3 5.16 22.32 33.793 22.4 36.036-5.57 5.427-17.88-1.417-24.41-3.964.03 17.354-.15 35.195.2 52.508 2.31 2.962 4.96 6.11 6.75 9.37.13 2.343.57 9.489.2 11.562-1.37 7.783-10.4 25.43-5.42 32.861 1.91.699 3.71 1.371 5.4 2.509 2.05 6.452 1.66 29.065.35 36.595-.25 1.51-4.7 3.27-6.45 4.11-7.31 10.38 5.2 39.51 5.29 51.62.11 13.22-7.28 22.73-7.18 35.62 1.02 19.26 2.11 36.28 2.12 55.68l11.78 2.75.05 13.68c-4.86 4.55-6.83 6.05-12.76 9.12-.17 11.3-.9 29.63.18 40.24 4.06 3.58 3.8-.71 7.14 3.56.77 13.83-3.1 14.44-3.94 24.79-.84 10.32-.3 25.69-.24 36.63 7.34-.43 10.54-.7 17.73-2.18 2.33-8.17 4.45-15.56 6.24-23.89-5.84 7.68-10.65 13.83-18.26 19.92 2.35-9.23 5.87-18.54 9.44-27.38 10.66-26.41 21.24-52.5 31.02-79.26-7.47 8.01-14.94 15.23-23.98 21.49 9.03-23.93 12.12-40.9 18-65.41 3.54-14.78 10.89-27.24 14.48-44.04-4.76 4.87-12.23 12.11-16.06 17.31 6.58-25.99 18.6-50.36 24.26-74.2-4.74 6.44-7.58 9.88-13.74 15.17 6.96-23.55 14.06-43.77 22.57-66.825-4.61 5.835-7.58 10.345-11.62 16.625l-1.95-4.74c6.82-21.629 18.7-76.86 21.5-99.791l2.82-2.107c.04 27.889 12.1 80.241 19.65 107.588-4.54-7.28-8.91-15.4-13.34-22.324 3.35 20.934 14.76 60.744 20.8 81.854-5.66-5.51-11.27-11.07-16.84-16.67 6.96 29.85 16.16 56.75 25.47 85.96-7.08-7.36-12.96-13.67-19.63-21.47 5.68 30.19 23.04 66.9 30.24 97-7.89-8.79-15.21-16.4-21.82-26.2l-.68-1.03c8.71 36.73 25.4 76.23 34.42 112.67-8.01-8.38-14.74-15.36-22.02-24.41 11.26 33.37 24.3 66.47 35.27 99.05-3.81-4.81-7.67-9.58-11.57-14.31 2.6 11.04 5.55 19.77 9.12 30.51-1.05 4.89-1.56 4.56-4.28.68l-.76-1.39c-2 2.95-1.13 8.08-2.51 12.24l-.54 1.52c-.52 2.23-.84 4.14-1.22 6.4 3.65 1.11 9.57 2.17 13.47 3 4.67-10.79 10.81-29.41 14.14-40.86-4.78 6.27-6.13 7.54-12.08 12.67.07-.38.13-.76.19-1.13l.34-1.88c4.82-27.04 18.83-59.4 25.83-86.51-4.48 4.74-8.94 9.78-13.34 14.63.78-4.89 2.18-9.43 3.63-14.15 8.42-27.44 14.5-56.25 23.9-83.36-5.54 5.01-11.84 11.61-17.21 16.96 3.4-14.05 10.48-33.57 15.18-47.72l-4.9-1.35c.67-9.94 13.87-50.28 17.77-61.1 2.22-5.53 2.95-8.89 3.35-14.82-2.94 3.66-7.32 7.71-10.73 11.07 3.41-15.91 9.37-31.93 13.31-47.88l-1.91-1.94c-2.18 6.27-4.45 11.65-7.04 17.77 2.39-17.42 7.33-37.05 10.93-54.41 2.95-14.24 5.06-30.18 8.18-44.086 1.94 6.577 2.23 12.716 3.38 19.386 4.17 24.04 8.57 49.68 15.03 73.22-3.29-4.36-6.27-8.48-10.08-12.43 5.51 18.95 8.69 36.14 15.54 54.8l-12.74-11.03 21.41 68.79-12.16-15.57a845 845 0 0 0 11.75 45.08c2.01 7.12 5.23 16.67 6.44 23.63-4.72-6.85-10.61-12.31-16.49-18.17 6.76 18.51 13.03 36.57 19.08 55.33 4.27 13.23 9.46 25.83 12.46 39.55-6.75-5.05-12.6-11.59-18.44-17.7 9.92 32.75 22.61 69.88 31.36 102.03-5.25-4.8-12.62-11.93-18.09-16.12 5.43 22.16 14.33 40.45 23.77 61.07 37.54 7.39 86.84 20.6 119.69 39.78l-1.49.83c-39.92-21.76-158.24-36.73-204.39-43.04-50.5-6.91-116.82-16.46-167.19-17.18-4.07.21-22.47-1.03-23.05 1.78 42.24 10.5 65.98 12.71 107.06 30.23l-1.46 1.39c-36.38-14.92-74.15-14.05-112.28-10.41-.64.97-1.02 1.69-1.57 2.7 39.39 9.4 72.78 19.42 110.2 35.73-27.49-5.74-48.51-10.31-76.75-10.48-2.66.17-7.72-.81-8.35 1.87 46.45 9.42 83.07 23.58 122.3 50.29-54.85-23.3-97.88-35.64-158.1-37.84-16.64-.61-33.27.22-49.4-.21-1.5 1.14-1.44.98-1.94 2.78 32.52 4 79.67 19.73 107.17 36.49-11.19-3.32-22.01-7.37-33.26-10.63a351 351 0 0 0-96.76-14.42c-6.68.83-16.71-.22-21.08 2.3 25.65 6.75 59.08 20.11 81.6 34.92-45.6-12.87-82.77-22.52-131.09-22.56l1.19 3.67c13.35 5.29 40.29 15.24 52.13 21.46-1.72.37-3.44.75-5.16 1.16-46.42-6.4-69.4-6.56-115.56-6.12l-.21 3.04c23.98 7.5 35.14 12.29 56.52 25.32a446.5 446.5 0 0 0-78.71-15.28c4.73 4.09 9.39 8.3 14.46 11.94-35.4.39-70.81.42-106.21.08-29.156-.07-59.235.33-88.308-.14l8.731-12.06c-8.833 1.52-24.048 3.59-33.045 4.28-1.824-.41-3.652-.79-5.486-1.15 10.913-5.45 23.652-12.39 35.433-14.89-1.987-.68-3.957-1.41-5.91-2.18-29.751-.21-93.025-2.81-121.011 6.59l-2.551-2.16c4.671-1.09 44.892-21.07 54.85-24.99-1.025-.81-1.398-1.2-2.569-1.75-31.217 1.78-91.775 10.03-121.822 19.86l-2.211-2.15c20.663-10.53 56.517-22.82 78.792-27.62-.863-2.7-22.966-1.9-27.475-2.55-53.857-.33-72.735 4.48-123.228 21.11 22.98-12.06 45.319-22.9 70.69-29.14 4.827-1.19 9.602-2.35 14.366-3.78l-.469-1.16c-67.612-3.69-116.942-1.87-179.548 28.18l-1.049-1.51c35.425-23.04 80.505-33.02 121.627-40.25-18.957-2.34-50.631-.01-69.636 3.63-1.516-.44-3.035-.86-4.557-1.28 3.99-1.23 8.678-3.08 12.584-4.6 19.955-7.78 39.922-13.88 60.552-19.59-37.8-7.62-71.506-4.45-107.49 8.59l-2.298-1.29c13.724-5.83 26.094-10.64 40.454-14.73 23.468-6.68 46.094-11.71 70.257-14.62 2.068-.24 3.694-1.35 4.973-2.96l-.215-1.79c-15.674-9.51-173.796 11.26-201.443 16.12-60.902 10.69-146.821 16.32-202.633 41.24l-.712-1.25c32.609-18.78 85.972-32.21 123.301-38.54 9.443-19.28 20.43-41.27 26.268-61.73-5.513 5.82-13.189 12.03-19.386 17.34 8.411-30.8 22.324-67.64 33.839-97.64-7.687 8.09-13.452 14.59-21.735 22.68l-.432-.6c1.949-13.63 6.35-22.78 10.409-35.67 7.413-23.53 16.739-46.03 24.813-69.31-7.189 5.96-11.582 8.53-18.653 15.49 1.355-5.53 3.498-11.41 5.546-16.76 6.198-16.2 11.244-32.44 16.229-49.06l-13.004 14.64c5.268-20.57 14.779-45.44 22.258-65.75a285 285 0 0 1-.71-4.9c-2.246 4.08-6.339 8.57-9.402 12.24 3.53-16 8.38-31.68 14.501-46.89l-1.741-5.21-2.083 1.88-4.255 1.01c6.419-28.05 13.297-54.04 19.229-82.587l.822.108c4.255 26.229 8.086 53.779 16.311 79.099l-2.636 3.15c-1.504-2.51-2.012-3.89-4.52-5.41-.059 9.63 12.325 38.73 15.503 50.83-6.171-6.08-11.028-10.76-16.427-17.61 4.162 18.64 13.607 39.2 20.458 57.43-3.786-4.71-7.509-9.43-11.465-14.01q10.718 33.81 22.184 67.38c-5.312-5.97-10.967-12.61-16.636-18.17 8.147 37.57 22.15 73.36 29.889 110.77-4.206-5.41-10.67-14.31-15.063-19.17 4.493 28.53 22.417 69.23 33.58 96.98a1507 1507 0 0 0 25.213-61.03c-5.248 6.72-7.841 9.99-15.021 15.11 4.788-16.16 14.015-35.2 20.178-51.52-10.185 9.61-18.392 17.11-29.891 25.43 14.026-34.14 31.1-60.88 42.994-96.54l-16.315 15.59c8.819-33.82 13.939-46.91 26.505-78.12l-1.857-3.46c-4.133 6.89-7.718 12.75-11.191 19.98l-1.93-1.31c4.361-15.24 10.472-31.98 15.172-47.59-5.59 5.83-11.244 11.59-16.963 17.3 8.121-27.74 17.675-54.32 24.955-82.27-7.692 8.65-14.233 15.96-21.226 25.22 7.339-25.51 20.776-49.01 26.727-76.46-4.45 5.98-9.169 13.84-13.244 20.24 7.508-22.49 11.566-51.287 14.803-74.847 1.541-11.216 2.616-24.403 5.084-35.252 8.977 44.634 12.911 67.248 26.352 111.319-.455 1.64-.895 3.28-1.322 4.93-4.011-6.48-6.664-10.82-9.921-17.67l-1.803.15-.133.52c8.242 25.52 15.046 46.69 25.462 71.47-2.84-2.27-13.6-12.54-15.088-12.79-2.471 12.29 18.101 60.91 20.259 82.06-5.246-7.85-9.319-13.66-15.537-20.78 8.935 20.96 14.846 36.2 21.59 57.81-4.309-3.9-8.547-6.94-13.194-10.39a720 720 0 0 1 19.306 49.73c-7.354-7.18-15.183-14.28-22.733-21.29a337.8 337.8 0 0 0 24.439 66.76c.028-18.48.098-33.95 3.027-52.22 1.666-10.38.018-25.1.459-35.84.493-12.01-8.76-48.15-4.261-57.8.907-.37 4.063-1.55 4.263-2.15 2.325-6.97.76-31.06 1.368-38.48.764-9.34-5.297-16.16-5.459-27.94-.224-16.26 5.863-9.71 5.807-20.16-.279-51.731-.608-103.099.223-154.827-7.95 2.898-17.286 7.585-25.077 11.242l-5.6-9.79c50.425-57.338 74.265-132.306 96.56-203.893 7.905 3.784 12.299 6.028 20.632 8.375 8.917-4.415 164.566-99.157 168.485-103.718 8.588-9.996 14.336-26.021 20.27-37.901l34.898-69.544c12.49 24.375 25.53 48.593 37.82 73.032 12.63 7.217 25.17 15.66 37.39 23.632.2-3.879.44-7.757.74-11.63-.86-11.003-.32-46.514.14-58.211-.29-6.354-.18-14.386-.66-20.351"/><path fill="#edeaec" d="M1564.93 1103.12c.05-1.01-.11-1.45.5-2.05 1.14-.27 2.38 5.82 3.03 7.3l.32.74.32 1.38c.49 1.9.4 4.62 2.41 4.9 1.29-.49 2.53-.98 3.83-1.43 2.25 7.96 3.23 14.24 4.32 22.39l-2.61-5.14c-.94-1.86-3.42-9.89-5.38-10.19-.69.77-2.11 4.18-2.73 5.41-.76-1.57-1.22-2.77-1.85-4.39l-.75-2.22c-1.96-6.17-6.19 2.32-8.36 4.86-1.42.01-2.06.08-3.54.23 2.22-5.53 2.95-8.89 3.35-14.82l2.04 2.67c1.96-3.42 3.3-6.23 5.1-9.64"/><path fill="#46474c" d="m1557.79 1110.09 2.04 2.67c-.71 3.74-1.63 8.15-1.85 11.92-1.42.01-2.06.08-3.54.23 2.22-5.53 2.95-8.89 3.35-14.82"/><path fill="#adadb1" d="M1564.93 1103.12c.05-1.01-.11-1.45.5-2.05 1.14-.27 2.38 5.82 3.03 7.3l.32.74c-1.51 1.35-2.37 4.46-3.24 4.36-1.55-1.64 2.07-5.39-.61-10.35"/><path fill="#d17d3e" d="M1463.47 1411.59c.14-4.34.4-8.58.52-13.04 4.73 2.68 19.58 11.5 24.75 10.76-.52 2.23-.84 4.14-1.22 6.4-7.36-1.83-16.45-2.81-24.05-4.12"/><path fill="#fdfdfc" d="M648.052 995.281c.601 1.969 1.821 6.589 2.688 8.359.233 5.74.582 10.95.562 16.73-.943-1.2-3.458-5.13-3.607-5.03-4.887 3.07-10.729 7.74-7.927-5.25l.355-1.81c1.479.15 2.959.28 4.44.4 2.307-5.35 2.376-7.78 3.489-13.399"/><path fill="#1c1b1c" d="M1091.05 508.567c4.31 6.476.68 55.575 1.62 67.39l-.51.577c.09.57.19 1.14.28 1.711l-.15-.152.07.209-.06.028-.32-.635.21.118-.38-.287c-.6-2.257-.55-7.868-.9-10.748-.86-11.003-.32-46.514.14-58.211"/><path fill="#edeaec" d="M1549.43 1171.88c2.7-4.42 2.95-8.96 6.28-11.55l3.41 1.15c-2.55 4.52-2.3 6.26-4.1 11.13l-1.02-.13c-1.64-.17-2.94-.28-4.57-.6"/><path fill="#46474c" d="m1555.71 1160.33 3.41 1.15c-2.55 4.52-2.3 6.26-4.1 11.13l-1.02-.13c.03-4.81.59-7.44 1.71-12.15"/><path fill="#fdfdfc" d="M1549.43 1171.88c1.63.32 2.93.43 4.57.6l1.02.13c1.98.54 2.43.51 4.02 1.5-.77 2.46-1.4 4.19-2.37 6.57-3.31-5.31-1.08-2.22-6.09-2.96l-1.29-3.17z"/><path fill="#edeaec" d="M1489.28 1407.79c-.27-2.62-2.23-16.07-1.38-17.36.39-.19.2-.17.56-.13l1.46 1.36-.24-.46c.96 1.51 1.49 2.69 2.11 4.35-2 2.95-1.13 8.08-2.51 12.24"/><path fill="#cbcbce" d="M1550.58 1177.72c5.01.74 2.78-2.35 6.09 2.96-1.61 1.37-4.75 6.1-5.86 5.81-.58-.71-.37-1.38-.46-2.43l.06.61c.18-2.32.09-4.61.17-6.95"/><path fill="#edeaec" d="M1559.12 1161.48c2.02 2.42-.12 9.07-.08 12.63-1.59-.99-2.04-.96-4.02-1.5 1.8-4.87 1.55-6.61 4.1-11.13"/><path fill="#8b8d91" d="M788.478 1501.16c11.505-.8 25.578.22 37.606.34-3.555 1.01-6.389 1.81-10.131 2.21-.863-2.7-22.966-1.9-27.475-2.55"/><path fill="#adadb1" d="M1366.32 1424.65c-1.44-.19-2.85-.4-4.27-.64l-.84-.87-.27.48c-3.81-2.19 11.26-1.64 11.06-1.63 5.96-.03 11.48-.06 17.37.88-4.07.21-22.47-1.03-23.05 1.78"/><path fill="#75777c" d="M1252.1 1504.44c-1.24-.07-5.73-.19-6.55-1.25.47-2.24 24.48-1.31 27.63-1.05-6.68.83-16.71-.22-21.08 2.3"/><path fill="#edeaec" d="m1544.41 1174.9.56 1.18c-1.55 3.59-2.52 7.47-3.4 11.28l-4.9-1.35c2.43-3.12 4.21-6.66 6.68-9.75z"/><path fill="#8b8d91" d="M1383.17 1475.68c-1.96-.26-11.61-1.24-12.65-3.03l.07-.13c1.24-.59 18.72.98 20.93 1.29-2.66.17-7.72-.81-8.35 1.87"/><path fill="#edeaec" d="M1572.09 1108.16c2.26.9 2.7 3.56 3.25 5.8-1.3.45-2.54.94-3.83 1.43-2.01-.28-1.92-3-2.41-4.9 1.2-1.06 1.62-1.54 2.99-2.33"/><path fill="#1c1b1c" d="M1569.1 1110.49c1.2-1.06 1.62-1.54 2.99-2.33-.01 3.14-.12 4.13-.58 7.23-2.01-.28-1.92-3-2.41-4.9"/><path fill="#46474c" d="M650.74 1003.64c1.353 1.39 1.737 1.67 2.713 3.24.033 3.61-.138 3.26 1.541 6.41l-.133.52c-3.367 2.29-2.361 2.58-3.559 6.56.02-5.78-.329-10.99-.562-16.73"/><path fill="#edeaec" d="M643.63 994.952c.224 2.685-.077 12.608.933 13.728-1.481-.12-2.961-.25-4.44-.4 1.259-4.54 2.335-8.765 3.507-13.328"/><path fill="#8b8d91" d="m1129.46 1538.74-10.01-.84c-.63-.05-2.65-.25-2.16-1.29 2.02-.97 10.23-.75 12.58-.05z"/><path fill="#edeaec" d="M482.804 1072.41c1.207-3.2 3.37-4.95 5.627-7.52-1.419 4.39-2.981 8.22-3.886 12.73z"/><path fill="#75777c" d="M1296.03 1490.7c-9.96.58-11.31-3.3 1.94-2.78-1.5 1.14-1.44.98-1.94 2.78"/><path fill="#edeaec" d="m1129.87 1536.56 5.34.41-.21 3.04c-1.91-.49-3.61-.87-5.54-1.27z"/><path fill="#cbcbce" d="M1567.09 1122.04c.63 1.62 1.09 2.82 1.85 4.39.05 1.91 0 2.41-.25 4.28l-1.14.53c.02.42.05.85.08 1.27-1.05-1.01-.55-8.99-.54-10.47"/><path fill="#59585a" d="M1544.41 1174.9c2.2-2.17 1.99-2.19 5.02-3.02l-.14 2.67q-2.175.735-4.32 1.53z"/><path fill="#fdfdfc" d="M1203.8 1520.47c-1.49-.67-6.41-2.4-7.11-3.28v-.31c.91-.77 4.62-.15 5.92-.08z"/><path fill="#cbcbce" d="M1358.07 1448.56s-5.63-.57-4.44-1.76c.9-.91 4.82-.87 6.01-.94-.64.97-1.02 1.69-1.57 2.7"/><path fill="#edeaec" d="M619.501 1149.55c.55-.96 1.78-3.59 2.833-4.13 1.318.2-.784 6.69-.976 7.59z"/><path fill="#8b8d91" d="m479.446 1112.27.347-1.28c.216-.86.444-1.92 1.191-2.49 2.001.12-.474 7.41-.828 8.67a285 285 0 0 1-.71-4.9"/><path fill="#adadb1" d="M1558.46 1071.34c.59-1.17 2.05-5.03 3.1-5.52 1.25.43-.99 6.67-1.19 7.46zm-625.985 464.59c.75 0 14.721.54 5.91 2.18-1.987-.68-3.957-1.41-5.91-2.18m-71.281-22.31c1.244-.43 5.03-1.3 6.014-.03-.575 1.26-2.213 1.51-3.445 1.78-1.025-.81-1.398-1.2-2.569-1.75"/><path fill="#8b8d91" d="M654.994 1013.29c-1.679-3.15-1.508-2.8-1.541-6.41 1.697 2.71 2.233 3.24 3.344 6.26z"/><path fill="#46474c" d="M1496.83 1396.26c-1.05 4.89-1.56 4.56-4.28.68 1.37-.24 2.92-.54 4.28-.68"/><path fill="#adadb1" d="M749.837 1488.19c.911.18 2.235-.17 2.778.79-.361.77-1.756.41-2.309.37z"/><path fill="#fdfdfc" d="M1014.46 505.284c9.48 15.961 19.38 35.842 28.12 52.517l53.58 103.659c-5.63.91-12.39 1.798-17.83 3.178 8.08 4 18.07 8.198 25.56 12.493 4.7 7.715 9.17 15.563 13.43 23.532l-15.34 4.878 24.47 9.987c7.27 13.125 13.8 26.853 20.39 40.347a1162 1162 0 0 1-37.92 1.207c.05 10.065-.17 22.039.23 31.956 1.12-7.111-.53-9.612 2.78-14.488.17 5.479.2 10.922.3 16.402 4.35.047 9.06-.023 13.35.185 5.34.76 16.67.622 19.69 2.245l.37 14.403c-9.59 4.572-32.87 13.391-39.34 17.313 13.94 1.718 27.8 2.009 41.1 3.611l.21 14.028c-11.21 6.829-17.13 9.855-30.09 12.738 9.79 2.145 19.59 4.396 29.47 6.074l-.07 14.036-45.13.51.93.279c1.49.432 3 .736 4.48 1.177-.66 1.082-2.85.686-3.1 1.787-1.57 7.069 1.61 23.66-2.03 29.515l-.35 2.499c4.1 3.136 41.02 5.707 48.01 5.905.06 5.337.89 5.454-1.3 9.495-8.47 4.735-18.14-.256-30.67 2.184.06 7.38.25 14.808-.22 22.172-.16 2.53.58 2.638 2.89 2.365 9.48.144 19.31.153 28.76.479.44 15.303.53 23.076-16.85 26.944-5.34 1.187-10.96 2.562-16.37 3.678 0 3.125-.18 8.497.12 11.418 3.49 1.068 1.47 17.488 2.11 22.418-.33.66-1.53 1.17-2.08 1.48 7.44 3.65 27.42-1.71 30.69 6.84 3.46 9.05 2.12 29.33.82 39.03-8.25.14-19.52.62-27.42-.49l.34 3.59-1.06 3.04c-1.3 4.04 1.55 6.37-2.48 6.91-.24 7.37-.29 14.75-.16 22.12 35.04 4.23 37.01.03 35.97 36.29-15.18 1.56-32.25 2.98-47.03 6.08 16.26 5.85 24.66 8.32 39.06 17.62-.05 4.6.07 10.5-.23 14.98-14.15 4.31-22.98 4.38-37.91 4.56.01 10.51-.36 24.17.13 34.43 8.47 1.71 17.07 3.32 25.5 5.25 16.74 3.82 15.02 16.64 14.6 30.47a133.3 133.3 0 0 1-27.7 19.29l-.25 15.49c5.12-.58 6.61-1.01 11.48-.07 4.69 1.49 10.41 3.86 13.36 7.93 2.68 12.85-24.44 20.96-34.2 24.65 12.05 1.39 32.88 3.13 44.01 5.44l.2 24.83c-14.9 6.73-27.55 10.51-42.87 16l2.08 3.26c13.58-.05 27.02 1.63 40.49 1.69l1.55 10.32c-9.16 3.11-20.77 7.42-29.93 9.86 19.21 4.25 31.31 6.26 26.78 30.38-3.34 17.83-33.5 20.22-47.87 22.58-.44 9.21-.71 18.43-.81 27.65l.98.53c9.57 5.02 46.09 15.55 42.61 28.23-6.19 5.98-15.67 5.7-23.83 6.56-2.14.22-1.8-.49-1.84 1.06 6.44.65 22.83.44 20.01 10.24-4.53 4.75-9.49 4.6-16.03 4.7-16.08.27-31.9.28-47.99.95-.06-2.94.02-8.3-.27-11.02-1.14-5.78-2.35-7.71-3.22-14.25l.47-101.64c1.39-12.75-1.19-63.22 2.95-68.72 1.06-10.08.62-27.36.52-38.02-35.11.21-70.23.12-105.335-.27.351 79.04.271 158.07-.242 237.1-21.903.82-43.834-.06-65.742.59-4.543.14-9.076.18-13.619.01 1.184-1.26 7.204-7.64 8.14-8.11 15.197-7.72 15.107-3.12 14.519-22.35a56 56 0 0 0-.085-2.08c-8.26 1.33-18.156-.79-23.924 1.62-2.077.86-1.256.57-3.742 1.07-3.471-.04-5.898-.09-9.406-.39-.258-.98-.473-2.07-.903-3-.851-7.24-.357-37.75.827-44.72 3.401-1.93 19.336-1.12 23.925-1.06.903-.25 1.001-.25 1.817-.66l.103-25.4-26.385-.14c-.979-11.19-.603-25.67-.615-37.17l.593-1.98c.374-.17 30.226-.29 34.486-.74-9.466-1-33.559-.75-44.157-.9l.014-31.29c4.157-.23 7.038-.23 11.29-.66.612-2.82 33.963-1.98 39.852-2.88-13.36-.45-28.606-.12-42.115-.14.645-4.27 1.349-8.52 2.111-12.77 12.618-9.86 23.182-12.91 39.018-13.66.017-12.5-.05-24.99-.198-37.49-1.118 5.65-.831 11.01-.927 16.72-.018 1.05.433 8.83-.743 8.91-.847-.64-.968-5.51-1.11-6.71-.18 4.75-.16 9.16-.145 13.91-15.825.02-31.651-.05-47.475-.23a733 733 0 0 0-.143-11.59l-2.278.72c-.318 1.17-.62 2.35-.907 3.53-.182-8.6-.457-18.14.305-26.65.084-.94 4.06-.76 4.099-1.47.754-13.68 1.368-29.55.801-43.33-2.713.16-4.853.23-7.564.22-1.777-7.23.45-28.59-.554-30.71-3.639-1.91-27.55-6.94-33.835-8.46 12.265-1.65 29.477-4.95 40.605-9.64.145-4.42.648-13.58.181-17.81-.749-6.78-6.219-28.67-3.361-35.05l2.806-.67c3-3.73 1.402-40.7 1.286-48.21-3.406-5.36-.773 1.43-5.495-2.15-.808-5.39-1.105-23.74-.068-28.8 2.094-.44 2.964-.67 4.986-1.37 1.832-6.12 1.522-35.33-.1-40.5-9.93-5.98-7.271-13.564-6.639-24.068 2.124-2.996 5.379-6.658 7.797-9.545-.016-9.061.904-77.006-.925-80.083l-3.607-.332c4.03-1.791 6.336-2.611 10.722-3.129-10.208-.363-8.822 1.328-8.64-10.306.059-3.81-1.535-19.378 1.855-20.161l1.063-.286c6.336.306 31.728.223 37.215-.509-1.522-.31-7.827-.2-7.153-1.867 1.547-1.078 5.99-1.046 8.122-1.29-9.478-.408-21.272-.174-30.917-.212l.151-62.764c24.621-2.48 51.01-2.913 76.074-4.851-16.586-3.343-35.313-5.076-52.334-7.444 5.425-3.83 15.976-8.202 18.499-12.309l-.532-2.106c-2.923-2.333-6.667-2.684-10.409-3.458 8.715-4.913 32.157-17.531 38.524-23.833q-3.629.373-7.269.613c-4.685.289-13.999.922-17.424-2.071l1.851-1.866c1.959-4.792 13.476-23.513 17.818-25.971 10.259-8.842 18.335-18.856 29.574-27.905-7.125.535-14.508.662-21.666.878 8.92-13.774 18.428-18.763 29.596-30.31-7.175 1.392-12.708 3.128-19.719 5.267 13.965-22.231 24.812-23.568 44.032-39.004-8.104.173-16.179.996-24.15 2.46l9.407-13.443c2.148-5.86 9.602-22.522 14.113-26.174 9.11-8.104 19.51-15.026 27.71-22.417l-18.55-.852c6.31-4.698 10.89-7.74 17.61-11.859-4.98-5.797-12.44-21.945-16.2-29.441-11.14 27.83-29.612 60.612-43.078 87.988l-50.348 100.265c-4.661 9.285-23.413 49.9-28.334 53.865-3.119-.148-4.4.418-6.163-1.194 2.906-7.133 6.47-14.293 9.962-21.164 20.89-41.111 41.471-82.331 61.999-123.635l35.624-71.358c4.772-9.655 15.548-33.129 20.988-40.555"/><path fill="#393e43" d="M875.559 894.563c5.405.199 10.98.044 16.278.493-2.652 3.95-6.362.737-12.019 2.654-4.243 3.188-2.36 22.621-2.214 28.599.386.715.483 1.51.669 2.319-2.339 3.375-1.701 13.553-.69 17.392l.423 3.13c-1.389 5.926-.757 20.571-.66 27.43 3.728.06 14.907-.005 18.023.455 6.243 4.961 21.336 1.331 32.394 2.631.436 8.141.202 19.011.061 27.214-4.619.83-29.758 2.56-30.372 3.19q-10.124.69-20.27.78c-.02 13.32-.409 29.07.215 42.17 7.768 0 20.286-.38 27.606.73.027 6.63.372 20.99-.39 28.2-.136 1.29-8.068.24-9.738.11-5.904.26-11.811.44-17.719.57-.049 16.83.123 33.66.515 50.48 6.185-.01 30.633-.31 35.471.57q-.007 4.695-.078 9.39l.012 12.99c-11.368 6.04-25.046 15.85-35.143 24.24l.074 26.03 17.985.76c-3.327 2.6-4.441 1.9-8.555 2.83-6.429.53-16.595.16-23.352.17.032 3.58.119 7.03-.103 10.61-.509-.29-.592-.41-1.066-.48-1.206.56-.739 12.06-1.156 14.87-1.777-7.23.45-28.59-.554-30.71-3.639-1.91-27.55-6.94-33.835-8.46 12.265-1.65 29.477-4.95 40.605-9.64.145-4.42.648-13.58.181-17.81-.749-6.78-6.219-28.67-3.361-35.05l2.806-.67c3-3.73 1.402-40.7 1.286-48.21-3.406-5.36-.773 1.43-5.495-2.15-.808-5.39-1.105-23.74-.068-28.8 2.094-.44 2.964-.67 4.986-1.37 1.832-6.12 1.522-35.33-.1-40.5-9.93-5.98-7.271-13.564-6.639-24.068 2.124-2.996 5.379-6.658 7.797-9.545-.016-9.061.904-77.006-.925-80.083l-3.607-.332c4.03-1.791 6.336-2.611 10.722-3.129"/><path fill="#fdfdfc" d="M927.763 979.666c.436 8.141.202 19.011.061 27.214-1.753-.62-3.517-1.31-5.336-1.73-18.415-4.24-36.369-11.1-54.555-16.041 3.336-3.033 6.509-6.002 9.9-8.99 13.726-.139 37.093.684 49.93-.453m-22.76 74.084c.027 6.63.372 20.99-.39 28.2-.136 1.29-8.068.24-9.738.11 1.188-3.15 3.058-2.03 6.478-2.73-9.007-.71-25.796-.43-35.117-.34-.12-7.64-.126-15.27-.019-22.91 4.017-.02 7.925.07 11.934-.23 5.25-3.22 18.835-1.19 26.852-2.1"/><path fill="#1c1b1c" d="M905.003 1053.75c.027 6.63.372 20.99-.39 28.2-.136 1.29-8.068.24-9.738.11 1.188-3.15 3.058-2.03 6.478-2.73q-.146-11.475-.124-22.95c-7.823-.39-15.299-.27-23.078-.53 5.25-3.22 18.835-1.19 26.852-2.1"/><path fill="#fdfdfc" d="M867.819 1136.99c10.124-.07 34.083.46 42.672-.52.149 2.32.205 4.37.221 6.69-.265 3.74-.246 7.29-.431 11.01-14.177.17-28.356.26-42.535.25q-.026-8.715.073-17.43"/><path fill="#1c1b1c" d="M913.142 1133.68q-.007 4.695-.078 9.39l-2.352.09a112 112 0 0 0-.221-6.69c-6.01-1.05-29.764-.07-32.868-1.34l-.071-.19.06-.11c3.047-.93 28.768-.16 35.53-1.15"/><path fill="#fdfdfc" d="M879.179 1348c12.733.38 26.633.06 39.537.15.011 8.61.496 23.14-.941 31.84-.144.87-5.076.82-5.743.86-9.466-1-33.559-.75-44.157-.9l.014-31.29c4.157-.23 7.038-.23 11.29-.66m38.714-68.11-.046 1.17c-1.118 5.65-.831 11.01-.927 16.72-.018 1.05.433 8.83-.743 8.91-.847-.64-.968-5.51-1.11-6.71-.18 4.75-.16 9.16-.145 13.91-15.825.02-31.651-.05-47.475-.23a733 733 0 0 0-.143-11.59q-.074-4.755-.272-9.51c.469-3.14.373-7.05.455-10.32 7.573-.16 18.433.15 25.616-.36 1.125-3.02 19.921-1.47 24.79-1.99"/><path fill="#1c1b1c" d="m917.893 1279.89-.046 1.17c-1.118 5.65-.831 11.01-.927 16.72-.018 1.05.433 8.83-.743 8.91-.847-.64-.968-5.51-1.11-6.71-.151-5.91-.06-11.91-.16-17.86-7.261-.02-14.553.04-21.804-.24 1.125-3.02 19.921-1.47 24.79-1.99"/><path fill="#fdfdfc" d="M895.992 1207.09c6.492-.35 13.582-.15 20.144-.17q-.138 14.115.041 28.23c-10.237-.04-29.819.58-39.075-.69-3.05-1.76-4.619-.97-7.778.41-2.713.16-4.853.23-7.564.22.417-2.81-.05-14.31 1.156-14.87.474.07.557.19 1.066.48.222-3.58.135-7.03.103-10.61 6.757-.01 16.923.36 23.352-.17 4.114-.93 5.228-.23 8.555-2.83"/><path fill="#1c1b1c" d="M895.992 1207.09c6.492-.35 13.582-.15 20.144-.17q-.138 14.115.041 28.23c-10.237-.04-29.819.58-39.075-.69-3.05-1.76-4.619-.97-7.778.41-2.713.16-4.853.23-7.564.22.417-2.81-.05-14.31 1.156-14.87.474.07.557.19 1.066.48.197 12.5-2.467 11.53 9.515 11.51 13.113-.02 26.471.09 39.596.3.01-9.68.323-12.97-1.08-22.42-8.193.05-16.385-.01-24.576-.17 4.114-.93 5.228-.23 8.555-2.83"/><path fill="#fdfdfc" d="M869.837 863.81c6.336.306 31.728.223 37.215-.509q.093 15.765-.043 31.529c-5.093.049-10.081-.023-15.172.226-5.298-.449-10.873-.294-16.278-.493-10.208-.363-8.822 1.328-8.64-10.306.059-3.81-1.535-19.378 1.855-20.161z"/><path fill="url(#a)" d="M869.324 1234.87c3.159-1.38 4.728-2.17 7.778-.41-.448 14.14-.308 30.26-.271 44.45 8.145.1 34.612-.22 41.062.98-4.869.52-23.665-1.03-24.79 1.99-7.183.51-18.043.2-25.616.36-.082 3.27.014 7.18-.455 10.32q.198 4.755.272 9.51l-2.278.72c-.318 1.17-.62 2.35-.907 3.53-.182-8.6-.457-18.14.305-26.65.084-.94 4.06-.76 4.099-1.47.754-13.68 1.368-29.55.801-43.33"/><path fill="#1c1b1c" d="M865.026 1302.79c.029-5.8-.851-5.97 2.006-10.23q.198 4.755.272 9.51zm209.124 92.48c1.39-12.75-1.19-63.22 2.95-68.72 1.53 58.68.51 125.67-.2 184.61-1.14-5.78-2.35-7.71-3.22-14.25z"/><path fill="#fdfdfc" d="M878.273 928.628c7.413.87 16.948.435 24.644.471q.084 8.445-.088 16.888l-25.246.033c-1.011-3.839-1.649-14.017.69-17.392"/><path fill="#bf6d36" d="M942.053 713.872c4.665 2.375 18.363 1.298 24.496 1.287-9.44 5.564-17.293 12.447-26.954 16.983-5.25 2.466-10.179 5.345-15.36 7.701 1.959-4.792 13.476-23.513 17.818-25.971"/><path fill="#d17d3e" d="M1003.24 585.641c6.42.052 12.6-1.425 19.03-1.924 2.09 2.445 1.7-.68 5.63 1.69-11.2 8.7-26.7 17.636-38.773 26.408 2.148-5.86 9.602-22.522 14.113-26.174"/><path fill="#1c1b1c" d="M919.031 1345.12c.606-.01 2.029-.2 2.593.27.637 1.63-.115 34.27-.224 38.81-13.249-.29-31.959.33-44.447-.63l.593-1.98c.374-.17 30.226-.29 34.486-.74.667-.04 5.599.01 5.743-.86 1.437-8.7.952-23.23.941-31.84-12.904-.09-26.804.23-39.537-.15.612-2.82 33.963-1.98 39.852-2.88m-41.427-418.811c8.878.132 19.627.166 28.488-.045a888 888 0 0 0 .013 22.847c-9.275.014-18.858.14-28.099.039l-.423-3.13 25.246-.033q.172-8.443.088-16.888c-7.696-.036-17.231.399-24.644-.471-.186-.809-.283-1.604-.669-2.319m17.765 50.726c11.587-.462 23.666-.167 35.321-.231a1248 1248 0 0 0-.045 31.916c-8.391 1.28-24.484 2.15-33.193 1.35.614-.63 25.753-2.36 30.372-3.19.141-8.203.375-19.073-.061-27.214-11.058-1.3-26.151 2.33-32.394-2.631m12.652-116.891c.686.119 1.35.117 1.866.537.578 1.928.043 32.708.024 37.455-9.54-.162-20.827.207-30.093-.426 5.657-1.917 9.367 1.296 12.019-2.654 5.091-.249 10.079-.177 15.172-.226q.136-15.764.043-31.529c-1.522-.31-7.827-.2-7.153-1.867 1.547-1.078 5.99-1.046 8.122-1.29m201.129-71.106c1.12-7.111-.53-9.612 2.78-14.488.17 5.479.2 10.922.3 16.402 4.35.047 9.06-.023 13.35.185 5.34.76 16.67.622 19.69 2.245-9.97 1.83-23.04-.011-33.34.738-3.84.278-3.09-2.089-2.78-5.082M877.281 1492.72c11.873.47 26.812-.45 37.975.7-8.26 1.33-18.156-.79-23.924 1.62-2.077.86-1.256.57-3.742 1.07-3.471-.04-5.898-.09-9.406-.39-.258-.98-.473-2.07-.903-3m224.509-616.625.93.279c1.49.432 3 .736 4.48 1.177-.66 1.082-2.85.686-3.1 1.787-1.57 7.069 1.61 23.66-2.03 29.515-.51-9.736-.37-22.93-.28-32.758m14.3 119.897c3.49 1.068 1.47 17.488 2.11 22.418-.33.66-1.53 1.17-2.08 1.48-.52-6.15-.26-17.64-.03-23.898m.92 82.818c-.42-5.16-2.6-13.03 3.2-13.54l.34 3.59-1.06 3.04c-1.3 4.04 1.55 6.37-2.48 6.91"/><path fill="#bf6d36" d="M1022.27 583.717c1.41-.82 7.83-2.358 8.99-1.163.17 1.237-2.53 2.432-3.36 2.853-3.93-2.37-3.54.755-5.63-1.69"/><path fill="#75777c" d="M1118.99 1285.39c5.12-.58 6.61-1.01 11.48-.07-5.12.91-6.36.97-11.48.07"/><path fill="#46474c" d="M1113.05 1367.43c-.55-.03-5.07.03-5.29-.94.43-1 2.26-1.78 3.21-2.32z"/><path fill="#393e43" d="m1036.61 1003.25 31.45.04c-.02 19.09-1.52 121.79 1.57 130.49 3.22 1.34 4.93.96 8.4.79 2.29 3.14 1.38 13.03 1.32 17.51l-110.367.02.056-17.05c3.626-.14 7.677.07 11.342.16 1.479-8.52.683-32.19.75-42.04.202-29.46-.721-59.4-.34-88.87l31.439-.14.15 85.54c.02 12.8.65 33.7-.23 45.78 6.22-.77 18.02-.99 24.2.31z"/><path fill="#fdfdfc" d="M969.039 1135.05c3.626-.14 7.677.07 11.342.16l.506 2.02q29.796.96 59.603.84c8.34.04 27.47.47 35.47-.5l2.07-3c2.29 3.14 1.38 13.03 1.32 17.51l-110.367.02z"/><path fill="#1c1b1c" d="M969.039 1135.05c3.626-.14 7.677.07 11.342.16l.506 2.02c-6.107.13-10.87.51-9.66 8.83 3.473 4.3 22.781 3.12 28.823 2.98 9.62-.22 21.6.63 30.86.03 9.58-.62 37.53 1.52 44.57-.85 1.53-3.41 1.1-6.89.48-10.65l2.07-3c2.29 3.14 1.38 13.03 1.32 17.51l-110.367.02z"/><path fill="#1c1b1c" d="M1012.15 1135.48c6.22-.77 18.02-.99 24.2.31.29.2.58.4.87.59-1.23.53-24.67.56-26.04.08.32-.33.64-.65.97-.98"/><path fill="#393e43" d="m1036.94 826.826 31.04.145-.11 83.784c-.01 5.661-.35 32.695.69 36.66 4.55-.393 4.84-1.158 8.35.494 2.28 3.589 1.43 11.239 1.38 16.071-36.52-.448-73.05-.497-109.572-.147l.126-16.79 11.498-.277c.935-7.377.606-15.57.665-23.046.255-32.228-.431-64.541-.135-96.761l31.318.222c.07 39.431-.33 79.76.27 119.114l24.43.173z"/><path fill="#fdfdfc" d="m968.844 947.043 11.498-.277-.367 2.201c9.641.084 20.185.393 29.745-.077 8.25.271 18.82.336 27.08-.009 10.65.467 20.72.231 31.36.05l.4-1.516c4.55-.393 4.84-1.158 8.35.494 2.28 3.589 1.43 11.239 1.38 16.071-36.52-.448-73.05-.497-109.572-.147z"/><path fill="#1c1b1c" d="m968.844 947.043 11.498-.277-.367 2.201c-5.279.037-4.739-.867-7.657 1.788-1.042 3.289-1.608 6.17.959 8.906 11.829 1.089 26.698.657 38.833.636l60.65-.209c3.78-3.286 3.93-6.712.67-10.714-2.48-.442-2.78-.513-5.27-.443l.4-1.516c4.55-.393 4.84-1.158 8.35.494 2.28 3.589 1.43 11.239 1.38 16.071-36.52-.448-73.05-.497-109.572-.147z"/><path fill="#46474c" d="M1009.72 948.89c4.12-2.275 23.21-2.407 27.08-.009-8.26.345-18.83.28-27.08.009"/><path fill="#393e43" d="M1026.74 1179.69c9.88 7.63 62.64 66.69 75.14 81.75.55.66.23 5.81-1.42 8.01-8.6 2.45-60.22 1.5-71.96 1.48-13.88-.01-64.322.84-75.845-1.08-1.802-2.41-.907-3.19-1.264-6.37-.056-.5.564-3.9.642-3.98 7.028-7.89 14.567-15.31 21.903-22.91 8.079-8.36 16.354-16.73 24.201-25.29 9.613-10.5 18.443-21.65 28.603-31.61"/><path fill="#fdfdfc" d="M1022.71 1196.66c6.5 5.34 17.66 18.86 23.55 25.74a991 991 0 0 0 31.58 35.72c-17.94.58-37.58.27-55.65.34q-28.231.06-56.46-.27c19.819-21.19 37.99-39.35 56.98-61.53"/><path fill="#393e43" d="M1023.08 1203.88c6.46 6.17 12.46 15.67 18.76 22.2 8.1 8.38 15.19 16.53 22.17 25.91l-43.76.34c-13.91.13-28.288-.08-42.064.15 15.011-17.3 29.894-30.03 44.894-48.6m-33.899-543.046 23.499.171.23 98.889 21.46-.013c1.25-31.158.43-67.158.46-98.675l22.42.395c-.09 30.113-1.39 69.668.17 98.924 15.15-2.861 10.64 2.033 10.62 16.48l-87.089.013c.047-5.09.005-9.682.423-14.779.073-1.365-.121-.586 1.089-2.146l4.458-.303c3.725-4.957 2.189-86.274 2.26-98.956"/><path fill="#fdfdfc" d="M1057.42 760.525c15.15-2.861 10.64 2.033 10.62 16.48l-87.089.013c.047-5.09.005-9.682.423-14.779 1.862 3.644.959 7.139 1.774 11.506.214-2.236.151-10.108 1.33-10.224 19.202-1.882 63.952 1.363 80.522-1.327-1.98-.395-7.46-.535-8.27-.864z"/><path fill="#1c1b1c" d="M1057.42 760.525c15.15-2.861 10.64 2.033 10.62 16.48l-87.089.013c.047-5.09.005-9.682.423-14.779 1.862 3.644.959 7.139 1.774 11.506 7.99.234 79.722.823 81.072-.432 1.57-1.459.77-9.155.78-11.119-1.98-.395-7.46-.535-8.27-.864z"/><path fill="#d17d3e" d="M918.19 1190.3c5.613.19 11.443.19 17.055.18 10.279-.02 8.198-1.32 9.114 8.05-4.825.51-10.46.36-15.359.22-11.563-.33-11.03 2.31-10.81-8.45m6.247 261.2c2.925-.03 16.974-.55 18.618.33.357.19 4.114 8-3.805 8.16-2.972.01-19.38.38-19.599-.31-1.828-5.83-1.629-7.98 4.786-8.18m150.623-726.485c3.34.02 22-.432 25.44.581.82.241.58 5.747.6 7.385-3.77-.039-21.36.392-25.31-.646-.99-.26-.71-5.858-.73-7.32M940.885 935.481c.951-.02 12.223-2.627 7.144 6.997-.633 1.199-15.092.909-18.279.955-2.026.064-9.826 1.52-5.981-7.051.551-1.227 14.007-.842 17.116-.901m-8.178 104.979c3.224.01 22.708-.83 25.672.54.623.29.26 5.7.242 7.03-5.169-.03-10.473.19-15.622.01-10.442-.37-10.545 2.41-10.292-7.58m170.053-9.22c3.46-.04 20.3-.5 24.13.3 1.21.26.58 5.91.52 7.53-4.59-.04-9.35.19-13.91-.04-10.6-.52-11.04 2.5-10.74-7.79m-21.62-32.027c5.37.042 10.92-.184 16.27.03 9.88.397 9.17-2.201 9.7 6.507l.06.91c-4.36-.03-19.73.3-24.7-.31-.95-.11-1.15-5.51-1.33-7.137M927.053 1395.07c6.984.01 17.621-.76 24.362.69.985.21.361 4.34.269 4.91l-.239 1.67c-5.006.17-10 .33-15.007.2-10.16-.26-9.146 1.86-9.385-7.47m-8.612-294.03c2.461 0 19.016-.45 21.44.51 1.062.42.889 5.97.952 7.55-4.384-.01-8.893-.02-13.27-.06-10.169-.08-9.226 1.43-9.122-8m29.579-281.536c3.672 1.099 1.694 6.536 1.022 6.814-4.58 1.898-14.357 1.077-19.793 1.249-3.781-1.346-1.727-6.813-1.549-6.895 4.217-1.954 15.157-1.077 20.32-1.168"/><path fill="#bf6d36" d="M1109.94 1410.89c7.69.04 16.91-.64 24.38.55.74.12.66 5.66.69 6.17-2.75.28-22.25.91-23.86.21-.75-1-.97-5.36-1.21-6.93"/><path fill="#d17d3e" d="M1038 625.003c2.19-.004 17.84-.595 19.58.579.74.506.43 5.872.41 7.182-1.95.039-17.44.801-19.49-.364-.95-.541-.52-5.901-.5-7.397m52.53 878.477c3 .03 15.77-.34 18.91.2.83.14.97 5.04 1.1 6.25l.1.97c-2.65-.03-18.06.74-20.44-.84-.93-.62-.08-5.06.33-6.58m-159.688-366.33c2.22-.02 16.006-.59 17.64.48.905.59.665 5.99.697 7.42-4.27-.01-13.553.58-17.668-.66-.793-.24-.659-4.69-.656-5.21zm.322-261.876c2.004-.012 15.491-.44 17.305.404.899.418.722 6.128.772 7.517-6.645-.052-18.392 2.843-18.193-4.193l.068-1.789zM1099.5 1329.51c3.16.03 15.89-.4 18.79.96.55.26.7 5.52.79 6.55-4.98.18-13.48.63-18.29-.53-.73-.17-1.19-6.25-1.29-6.98m-160.402-25.7c5.78-.2 13.982-.59 19.622.4.505.09 1.302 5.31 1.408 5.82-5.5.3-14.118.84-19.487-.25-.454-.09-1.181-4.48-1.28-4.9zm159.522-460.303c2.82-.1 11.7-1.036 13.99.237 1.28.71 1.61 5.399-.7 7.258-2.84-.031-12.61.843-14.62-1.029-1.05-.978-.81-4.913 1.33-6.466"/><path fill="#bf6d36" d="M1090.18 795.102c-8.07 0-11.26-3.357-4.73-6.562-.87.427 5.39-.397 5.31-.383 1.79.026 8.81-.456 9.6.968 4.56 8.189-8.55 5.94-10.18 5.977"/><path fill="#d17d3e" d="M1090.18 795.102c-8.07 0-11.26-3.357-4.73-6.562-.87.427 5.39-.397 5.31-.383-1.87 2.161-.83 3.994-.58 6.945m-4.26 406.938c4.03.16 8.06.24 12.09.23 4.68-.04 5.65.39 5.86 5.01l.16 1.71c-13.05-.04-17.53 4.12-18.11-6.95"/><path fill="#fdfdfc" d="M735.506 878.535c43.981-17.585 88.59-40.429 133.515-58.387.05 6.172.707 35.778-.791 39.544l.65.802c1.229 1.322 1.842 1.596.957 3.316l-1.063.286c-3.39.783-1.796 16.351-1.855 20.161-.182 11.634-1.568 9.943 8.64 10.306-4.386.518-6.692 1.338-10.722 3.129l3.607.332c1.829 3.077.909 71.022.925 80.083-2.418 2.887-5.673 6.549-7.797 9.545-.632 10.504-3.291 18.088 6.639 24.068 1.622 5.17 1.932 34.38.1 40.5-2.022.7-2.892.93-4.986 1.37-1.037 5.06-.74 23.41.068 28.8 4.722 3.58 2.089-3.21 5.495 2.15.116 7.51 1.714 44.48-1.286 48.21l-2.806.67c-2.858 6.38 2.612 28.27 3.361 35.05.467 4.23-.036 13.39-.181 17.81-11.128 4.69-28.34 7.99-40.605 9.64 6.285 1.52 30.196 6.55 33.835 8.46 1.004 2.12-1.223 23.48.554 30.71 2.711.01 4.851-.06 7.564-.22.567 13.78-.047 29.65-.801 43.33-.039.71-4.015.53-4.099 1.47-.762 8.51-.487 18.05-.305 26.65-.142 7.79-1.006 7.54 3.117 14.59 2.761 4.72 3.203 18.49 1.355 23.64l-1.138.12c-1.782.2-1.079.11-3.29.49-.986 4.15-.594 32.95.031 37.86 2.233 1.59 1.259 1.09 4.196 1.46 1.308 4.51 1.735 28.06-.107 33.14-.187.52-2.617 2.88-3.278 3.49-1.684 6.7-1.494 17.33-1.3 24.4 3.475 4.67 2.966-1.63 4.467 1.98 1.777 4.27.838 23.56.758 27.48-18.748-1.02-145.946-4.78-153.998-8.6-9.306-11.21 4.486-22.89 13.356-29.38 11.616-.18 27.337-.02 38.441-1.12l-.18-26.95c-6.449-.34-19.566-.61-25.497-1.42l-1.855-3.44c12.406-3.99 36.047-15.1 48.333-20.93q-39.757-.495-79.518-.21l.185-42.66c15.62-8.81 31.431-17.28 47.421-25.41-16.21.58-32.414 1.3-48.611 2.17l-.103-31.63 22.52-.01c-.158-15.42-.075-30.84.248-46.25 7.893-1.08 14.039-1.91 21.746-3.77-8.863-2.26-25.575-4.57-35.482-6.5-.502-4.7-.455-10.05-.546-14.82 8.278-3.83 19.006-7.46 27.716-10.66-10.973-5.17-30.522-10.97-27.82-25.57 3.546-1.45 15.162-.93 19.762-.95-5.292-.66-5.531.02-9.575-2.86l6.723-.57c2.688-2.81-.872-20.28 2.499-21.3l.934-4.19c2.88-3.47 24.589-8.91 31.138-11.29-17.269-3.47-33.387-6.77-50.865-8.98-.315-4.23-.419-8.96-.611-13.24 10.221-3.38 21.505-6.15 31.97-8.93-14.051-5.8-32.226-9.95-32.052-27.74 3.251-3.33 26.803-1.77 33.809-1.94-1.269-.91-1.118-.84-2.177-2.14 6.916-2.27 4.265-10.94 4.261-18.44-.124-.04-.248-.07-.372-.11l-1.011-.26-.142-.23c-.589-.07-1.178-.14-1.768-.2 5.743.62 4.629-6.53 5.091-10.47-2.227-2.08-33.764-6.32-39.816-7.33l.381-49.455c5.605-6.079 8.446-8.556 14.91-13.641-7.47-1.787-9.334-2.535-16.066-5.784-.25-4.219-.138-9.131-.153-13.415 6.289-.671 23.788.926 27.296-2.387l.018-3.968c-.502 1.588-1.726 6.789-3.599 2.764-7.037-1.264-16.585-.804-23.983-.848q-.244-22.059.006-44.117c5.916-.031 13.821.74 19.015-.768-2.565-1.425-6.525-1.026-9.55-1.351-.276-6.486-.026-13.144.104-19.644z"/><path fill="#d17d3e" d="M735.506 878.535c4.197 1.974 88.42-21.627 100.517-24.432-25.062 15.946-68.445 33.853-96.98 47.283-7.416 2.044-10.057 1.57-17.684 2.284-.276-6.486-.026-13.144.104-19.644z"/><path fill="#fdfdfc" d="M721.359 903.67c7.627-.714 10.268-.24 17.684-2.284.888 14.744.273 31.63.427 46.604-.502 1.588-1.726 6.789-3.599 2.764-7.037-1.264-16.585-.804-23.983-.848q-.244-22.059.006-44.117c5.916-.031 13.821.74 19.015-.768-2.565-1.425-6.525-1.026-9.55-1.351"/><path fill="#1c1b1c" d="M721.359 903.67c7.627-.714 10.268-.24 17.684-2.284.888 14.744.273 31.63.427 46.604-.502 1.588-1.726 6.789-3.599 2.764.442-14.05.147-28.711-.169-42.742-.023-1.062-4.208-2.711-4.793-2.991-2.565-1.425-6.525-1.026-9.55-1.351m143.478-5.978c-1.746-1.406-1.453-2.218-1.331-4.668.517-10.305-.223-20.738.422-31.009.055-.879 2.158-1.5 2.709-1.701l1.593-.622.65.802c1.229 1.322 1.842 1.596.957 3.316l-1.063.286c-3.39.783-1.796 16.351-1.855 20.161-.182 11.634-1.568 9.943 8.64 10.306-4.386.518-6.692 1.338-10.722 3.129M752.9 1043.97c.186 3.33.837 27.17-.122 31.63-.119.55-2.992.27-3.76.22-1.269-.91-1.118-.84-2.177-2.14 6.916-2.27 4.265-10.94 4.261-18.44-.124-.04-.248-.07-.372-.11l-1.011-.26-.142-.23c-.589-.07-1.178-.14-1.768-.2 5.743.62 4.629-6.53 5.091-10.47m-18.205 108.16c.777 4.73.333 19.25.353 24.73-5.292-.66-5.531.02-9.575-2.86l6.723-.57c2.688-2.81-.872-20.28 2.499-21.3"/><path fill="#393e43" d="m794.493 1259.93 25.292-.09-.464 108c-8.145-.1-16.497.03-24.659.07.112-36.12-.567-71.67-.169-107.98m-.352-182.59 25.237.11.26 106.01c-8.22.26-17.322.06-25.612.05zm.607-168.065 25.095.128c.024 32.701-.989 68.415-.44 100.747-8.227.11-16.615-.01-24.802.37-.117-33.108-.565-68.242.147-101.245"/><path fill="#d17d3e" d="M804.357 1026.89c4.6-.04 20.471-.89 24.802.6 1.131.39 1.193 6.19 1.34 7.72-3.412.07-21.438.65-25.143-.44-.865-.25-.898-6.42-.999-7.88m-27.912 418.7c4.584.07 19.203-.31 23.902.73.977.22.584 7.01.562 8.54-5.212-.79-10.638-.82-15.911-.82-9.566 0-8.481 1-8.553-8.45m43.67-215.52c3.312-.1 21.949-.96 25.351.54.912.4.52 5.63.461 7.01-3.068.05-22.031.83-25.535-.74-.53-.23-.565-2.49-.512-3.38zm-85.898-225.95c2.895-.01 19.578-.67 22.379.47.756.3.545 6.18.573 7.66-4.692.01-9.461.08-14.149.01-9.763-.14-9.183 1.48-8.803-8.14m78.018 398.41c4.881-.04 30.259-4.09 21.448 7.25l-4.364.12c-3.333.08-15.879.74-18.772-.57-.267-.13-2.176-4.96 1.688-6.8m-80.239-52.27c7.374-.04 14.76-.19 22.128-.07 3.17.06 1.956 5.52 1.457 7.35-3.639.01-18.954.56-23.138-.7-.623-.18-.493-3.86-.474-4.63zm47.061-150.83c3.509-.03 19.875-.7 23.303.43.999.34.668 5.38.647 6.78-3.182-.02-20.153.38-23.566-.87-.734-.27-.421-5.01-.384-6.34m57.019-84.17c2.828 0 16.681-.67 19.381.65.845.41.382 6.58.34 7.97-1.991.01-17.563.58-19.28-.48-.822-.51-.473-6.7-.441-8.14m-81.714 49.85c4.721-.01 9.59-.21 14.293-.04 11.022.41 9.547-2.37 11.004 7.11-6.77.02-17.435.52-24.214-.45-.555-.08-.879-5.11-.951-5.66zm-4.67-204.917c7.473-.203 14.897-.144 22.358-.23 4.961-.057 3.712 2.553 3.472 6.959-4.769.039-19.627.564-24.087-1.268-1.256-.516-1.574-4.132-1.743-5.461m12.637 372.637c2.438.01 17.718-.64 19.746.71.686.46.462 5.72.481 7.21-2.528.49-16.493 1.11-19.195-.04-.84-.36-.922-6.51-1.032-7.88m-11.9-427.055c4.854-.094 9.805-.125 14.644-.155 9.097-.055 7.296-.714 7.969 7.306-3.811.17-17.502.804-21.391-.277-.75-.209-1.062-5.64-1.222-6.874m30.734 141.695c5.811-.22 23.952-2.94 20.65 4.03-.117.25-.444 3.09-.483 3.36-2.188.09-17.311.68-19.906-.46-.913-.4-.36-5.6-.261-6.93m-23.708 229.52c6.028-.02 15.629-.67 21.455.55.564.11.163 6.18.159 6.56-5.182.08-16.274.93-21.153-.63-.647-.2-.457-5.61-.461-6.48m87.763-21.09c5.572.03 14.437-.57 19.825.62.659.14.784 5.34.847 6.13-3.405.43-15.474 1.05-19.28.18-.794-.18-1.089-4.93-1.234-5.91zm-8.903-287.441c2.786.038 16.054-.26 19.041.341.662.134 1.267 5.175 1.521 6.523-6.475-.04-12.989.006-19.449-.147-2.754-.065-1.367-5.395-1.113-6.717m4.186 385.791c13.587 0 14.31-3.68 14.645 8.4-13.543-.23-14.243 3.62-14.645-8.4"/><path fill="#fdfdfc" d="M1203.23 831.371c7.74 2.674 29.06 10.082 35.86 14.11 21.85 8.188 52.65 19.016 73.47 27.948 2.37 1.868 2.36 1.676 5.35 2.413l8.57 4.288c.41 8.231.46 15.525.42 23.777-6.66 4.106-17.19 7.532-24.81 10.303 7.33 2.82 18.84 6.164 23.33 12.133 1.06 3.381.62 5.015.27 8.509l-1.13 1.111c-11.11-.222-23.84-4.458-35.42-5.204l-8.26 1.278c12.73 7.228 26.05 14.631 37.52 23.726 3.09 2.446 6.97 7.41 7.67 11.355 3.35 18.727-18.19 15.974-29.38 15.452-.12 7.227-.1 15.128-.47 22.29 9.49 4.99 26.99 13.39 34.41 19.27.36 9.67.47 19.35.33 29.02-15.76 5.46-31.28 6.89-46.62 11.74 13.58 8.74 30.69 14.45 44.73 22.43l.26 47.02c-13.47 3.04-25.96 5.27-39.57 7.63 6.82 4.49 25.58 16 29.93 21.58 1.39 8.41-21.16 9.44-27.53 10.36l1.33.4c10.94 3.17 22.16 5.27 33.51 6.28 5.51.45 18.56.23 22.46 2.85 1.13 3.17 1.33 1.79.33 4.35-3.56.67-26.74-1.74-34.52-1.69 7.1 4.01 12.1 7.43 17.99 13.24-10.81 4.85-21.74 7.44-33.02 11.02 7.15 6.63 12.89 11.62 17.18 20.51-11.08 5.89-20.05 7.92-32.18 11.27l1.76 3.27c8.2.32 53.58 1.35 56.86 3.98.07 3.67.72 2.35-.87 4.91-7.23 1.22-21.49.21-29.58.11-11.85-.11-23.7.07-35.54.54 10.21 4.07 43.62 16.24 48.37 23.03.78 10.33-19 18.68-27.38 23.18l1.31.53c5.89 2.35 12.02 3.96 17.79 5.19 5.37 1.14 20.6 3.34 14.36 11.97-5.59 7.74-30.56 9.04-39.41 11.2 17.29 13.11 18.22 13.65 17.93 35.06 6.54 1.19 14.93 2.47 21.07 4.51l-.1 25.86c-11.5.8-23.34 1.42-34.65 3.62 7.87 3.75 16.33 7.6 24.01 11.6-15.96 1.78-34.79 3.2-50.89 3.49-.92 2.18-1.04 2.04-2.9 3.58l1.52.74c14.13 6.76 56.08 18.04 60.91 28.04-1.44 9.19-50.51 14.24-60.39 14.89 6.86 2.4 13.64 4.82 20.59 6.96l-2.03 2.82c-17.76.01-43.51 2.59-61.55 4.09q17.97-14.25 35.28-29.28c-21.49-.33-51.82 1.15-73.26 2.79 7.72-5.2 22.64-13.21 31.3-18.22-5.12-5.89-8.11-1.93-16.37-4.38-9.45-.2-18.89-.55-28.33-1.04l.01-14.46c21.6-4.93 41.3-11.21 61.32-20.85-16.29-8.2-32.45-16.65-48.48-25.36 8.71-3.38 14.55-6.18 22.88-10.46-11.44-2.35-23.26-5.93-34.54-9.11 6.62-3.51 29.02-12.29 32.71-16.42l-.69-1.58c-7.21-4.19-32.56-10.58-35.32-16.77l1.22-1.39c4.8-1.45 48.33-4.61 55.47-4.96-14.47-8.04-27.64-14.97-42.76-21.61 11.14-3.26 22.34-6.44 33-11.03-15.06-5.82-25.5-9.57-39.39-17.9 9.19-4.37 23.45-11.71 32.78-14.42-13.93-6.43-21.77-8.74-33.61-18.43 19.57-7.32 35.09-11.37 55.46-16.57-14.14-5.8-43.56-24.31-57.78-32.76 6.28 1.05 47.4 6.76 50.97 5.13-6.68-5.76-28.59-18.24-38.1-24.73 12.59-4.84 27.95-9.07 41.26-13.82-18.68-4.73-37.47-9.02-56.36-12.85-.18-10.01-.08-20.43-.11-30.48 14.57-1.96 25.13-2.1 39.68-5.97-10.19-10.84-18.48-22.05-27.14-34.06 18.17 0 35.63-1.19 53.45-1.24-19.41-12.03-35.79-23.01-54.46-36.05 16.14 3.47 31.89 4.71 47.75 7.96-15.61-14.5-43.51-43.795-54.02-60.785 15.36 3.977 28.39 8.571 43.41 13.748-6.06-18.691-16.01-38.425-21.47-56.354 10.92 1.002 21.15-.154 31.34 1.251-3.78-3.601-7.57-6.731-11.55-10.081-5.88-2.092-9.19-5.975-14.82-9.295-2.02-1.194-15.91-9.11-15.56-11.921.37-3.045 12.98-.016 15.2.834l23.41 4.162c-4.53-6.503-33.42-33.485-40.27-39.952 6.75 2.064 12.76 3.24 19.11 4.98 13.23 2.744 24.18 5.459 37.22 9.033.39-.415.77-.829 1.15-1.244-.79-1.98-38.53-32.873-44.19-37.995"/><path fill="#393e43" d="M1240.11 909.67c7.45.21 14.23.232 21.69.939.44 5.063 1.18 9.142.92 14.196l.34 2.208c.15 27.197.15 54.394-.01 81.587l-22.6.29z"/><path fill="url(#b)" d="M1189.94 856.597c6.75 2.064 12.76 3.24 19.11 4.98.96 4.362 29.59 32.73 34.67 38.307-4-.911-9.78-1.971-13.51-3.335-4.53-6.503-33.42-33.485-40.27-39.952"/><path fill="#d17d3e" d="M1203.23 831.371c7.74 2.674 29.06 10.082 35.86 14.11 1.19 6.873 13.35 26.141 13.35 26.038-1.3 1.325-4.74-.29-6.17-.909.39-.415.77-.829 1.15-1.244-.79-1.98-38.53-32.873-44.19-37.995"/><path fill="#bf6d36" d="M1221.98 912.769c-5.88-2.092-9.19-5.975-14.82-9.295-2.02-1.194-15.91-9.11-15.56-11.921.37-3.045 12.98-.016 15.2.834-.33.202-1.32.73-1.63 1.119 2.04 3.557 12.61 12.36 16.81 19.263"/><path fill="#d17d3e" d="M1217.85 1425.92c-.52-13.34 5.13-4.69 16.69-7.39 4.75-1.12 4.26 4.59 2.75 7.18-.77 1.14-8.91 1.08-11.45 1.47-3.13-1.28-4.59-1.08-7.99-1.26"/><path fill="#46474c" d="M1217.85 1425.92c3.4.18 4.86-.02 7.99 1.26-2.11 1.15-3.97 2.45-6.09 3.42-5.12-5.89-8.11-1.93-16.37-4.38 4.81-.12 9.71-.04 14.47-.3"/><path fill="#edeaec" d="M1262.72 924.805c5.46 2.122 10.32 2.53 14.12 4.108l.04 1.562c-4.88-.986-8.77-2.747-13.82-3.462z"/><path fill="#46474c" d="M1287 1245.41c-1.23-.1-8.72-.16-9.38-1.15.1-1.35 6.12-1.75 7.62-2.12zm-10.16-316.497c4.57 1.166 7.7 1.074 12.3 1.846l-8.26 1.278c-1.38-.514-2.63-1.01-4-1.562zm-9.46 488.857c-7.65-3.74-1.41-3.3 2.9-3.58-.92 2.18-1.04 2.04-2.9 3.58"/><path fill="#393e43" d="m1239.19 1077.74 24.75.37-.75 104.67c-6.18.52-17.54.16-24.11.16zm.78 182.04 23.47-.15.45 107.42-23.68.02z"/><path fill="#d17d3e" d="M1279.21 1364.29c4.8 0 17.46-.83 22.24.69.45.14-.49 5.92-.61 7.1-6.25-.09-14.54.4-20.54-.69-1.07-.19-1.05-4.63-1.05-5.17zm-8.12-480.233c7-.057 14.01-.141 21-.1 3.02.018 1.84 5.077 1.56 6.942-5.9-.005-12.29-.086-18.17.257-.87.051-3.04.598-3.88-.201-.69-.663-.49-6.095-.51-6.898m-44.34 347.443c1.46-.01 12.09-2.21 7.04 7.07-.41.76-6.92.33-8.44.33-2.95 0-8.17.55-10.68-.37-1.34-.49-1.46-5.36-.24-6.09 2.45-1.46 9.58-.89 12.32-.94m-33.13-127.1c15.57.37 18.19-4.42 18.15 8.4-2.18.06-15.47.58-17.38-.41-.9-.47-.73-6.44-.77-7.99m65.85 92.73c6.49-.1 13.18-.29 19.64.05 2.39.12.62 4.96.36 6.36-4.3.92-15.27 1.48-19.8.02-.6-.19-.23-5.68-.2-6.43m20.76 84.37c3.15-.01 14.98-.67 18.2.48.83.3.14 5.88.03 6.99-5.68.01-24.75 3.32-18.23-7.47"/><path fill="#bf6d36" d="M1291.01 1109.33c2.82-.05 16.15-.84 18.44.62.77.5.57 5.77.6 7.03-6.54-.04-18.38 2.9-18.89-4.91z"/><path fill="#d17d3e" d="M1295.23 1032c13.73.15 17.72-3.92 18.03 8.14-6.52-.09-17.88 2.74-18-4.6zm-34.75 364.01c5.03-.15 13.26-.87 18.16.18.8.17.41 6.09.4 6.57-5.15.07-13 .64-17.98-.3-.97-.19-.58-5.91-.58-6.45m-.75-370.61c4.25-.37 8.52-.57 12.79-.6 5.59-.04 6.27 4.35 3.14 6.78-2.26 0-25.84 2.18-15.93-6.18"/><path fill="#fdfdfc" d="M1036.16 1316.18c12.63-.6 25.26-1.39 37.86-2.37-.02 24.73-1.03 57.4.13 81.46l-.47 101.64-.56 26.09c-5.18-.17-7.74-.73-12.4 1.48l-1.01 1.51c2.42 2.6 4.97 2.42 9.06 3.13 7.18 6.54 18.46 15.43 24.74 21.77-46.47.08-92.95.43-139.423 1.02 8.124-9.22 16.793-13.7 24.389-21.85 12.408-.36 24.824-.6 37.234-.71l.57-2.26c-4.09-1.97-8.54-5.15-12.46-7.67-4.467-10.87-4.687-14.76-1.07-25.41 6.29-15.07 4.22-41.11 4.2-57.7l-.25-87.14c11.54-1.88 28.09-3.09 39.96-4.25-8.43-2.05-34.29-2.78-38.52-6.13 2.44-1.33 41.02-4.98 47.87-6.24-16.31-2.4-31.07-3.05-47.2-5.01 17.62-3.82 36.96-2.75 57.14-6.8-10.08-.59-20.24-2.04-30.27-3.31z"/><path fill="#cc0806" d="M1023.9 1476.58c6.5-3.31 23.42-7.92 23.99 3.19l1.56-.23c1.47-.2 8.87-.37 9.8.72-2.82 11.47-1.64 7.81 1.54 16.42l-1.23-.93c-.95-.72-.91-1.73-2.18-2.24.72-.39-10.99 11.88-15.2 11.93-.09 0-1.97.96-2.04 1.01-10.04 2.69-18.88 5.93-25.54-5.99-1.28-2.27-1.3-2.7-2.95-4.77-2.85-1.57-3.85-2.51-5.05-5.56l-.68-1.62c3.21-3.36 2.93-3.15 7.2-5.02 1.04.06 2.32.17 3.36.13-1.16-7.72-2.66-6.77 5.85-10.86z"/><path fill="#edeaec" d="M1023.9 1476.58c6.5-3.31 23.42-7.92 23.99 3.19-2.65 2.04-2.1 1.97-1.9 5.22.62 10.11-15.49 16.4-19.77 3.45l-.53-1.56c-7.58-2.49-2.69.22-10.02 2.54.18-2.45.31-3.39.81-5.8-1.16-7.72-2.66-6.77 5.85-10.86z"/><path fill="#db1d16" d="m1022.33 1472.76 1.57 3.82-1.21 1.08c-1.94 1.69-2.41 2.69-3.08 5.18l-.01-.03.85.91c1.32.11 2.07-1.02 2.25-2.12.71-4.35 18.08-8.04 18.74-4.24-2.7 2.59-13.56-3.82-15.75 9.52-7.58-2.49-2.69.22-10.02 2.54.18-2.45.31-3.39.81-5.8-1.16-7.72-2.66-6.77 5.85-10.86"/><path fill="#a67d79" d="M1033.69 1488.26c.35-2.99-1.91-8.91.84-8.52.45.07.86.31 1.14.67 1.32 1.71-1.57 4.27.49 6.15 1.5-.09 2.43-4.13 5.58-6.61-.38.66-.42 1.46-.11 2.15-1.81.86-1.66 1.79-2.24 3.6 9.85.69 2.71 5.67-3.89 6.45l-1.15.14c.17-2.06.19-2.2-.66-4.03"/><path fill="#cc0806" d="M1039.39 1485.7c9.85.69 2.71 5.67-3.89 6.45.6-4.75-.64-4.23 3.89-6.45m-5.04 6.59c-2.71-1.03-8.77-4.81-6.1-8.39.87.24 4.04 3.38 5.44 4.36.85 1.83.83 1.97.66 4.03m7.39-12.34c.54-.94 1.66-1.38 2.69-1.07 1.04.3 1.74 1.28 1.68 2.36a2.33 2.33 0 0 1-1.9 2.19c-1.06.21-2.13-.34-2.58-1.33-.31-.69-.27-1.49.11-2.15"/><path fill="#edeaec" d="M1049.45 1479.54c1.47-.2 8.87-.37 9.8.72-2.82 11.47-1.64 7.81 1.54 16.42l-1.23-.93c-.95-.72-.91-1.73-2.18-2.24.72-.39-10.99 11.88-15.2 11.93-.09 0-1.97.96-2.04 1.01-10.04 2.69-18.88 5.93-25.54-5.99-1.28-2.27-1.3-2.7-2.95-4.77-2.85-1.57-3.85-2.51-5.05-5.56l-.68-1.62c3.21-3.36 2.93-3.15 7.2-5.02 1.04.06 2.32.17 3.36.13-.5 2.41-.63 3.35-.81 5.8-.02 3.16-.88 6.92 1.35 9.54 7.08 9.41 26.33 6.24 33.5-1.37 6.4-6.81 4.86-12.72-1.07-18.05"/><path fill="#db1d16" d="M1005.92 1488.51c3.21-3.36 2.93-3.15 7.2-5.02-.09 5.2-.13 5.96-1.23 11.02l-.24 1.18c-2.85-1.57-3.85-2.51-5.05-5.56z"/><path fill="#cc0806" d="m1005.92 1488.51.68 1.62c1.2 3.05 2.2 3.99 5.05 5.56 1.65 2.07 1.67 2.5 2.95 4.77 6.66 11.92 15.5 8.68 25.54 5.99.22 3.43.38 7.22 1.5 10.46 4.21 1.34 6.21 1.09 10.46 1.95-.5.12-.99.24-1.49.34-1.09.22-2.11.09-3.2.01-.42-.03-1.44-.12-1.79.2-.31.28-.23 1.12-.24 1.33-11.44 3.57-11.83 9.24-24.15 8.35-1.49-.75-2.98-1.49-4.49-2.21l-.46.21c-4.09-1.97-8.54-5.15-12.46-7.67-4.467-10.87-4.687-14.76-1.07-25.41l3.51-.02c-.08-1.83-.19-3.66-.34-5.48"/><path fill="url(#c)" d="m1002.75 1494.01 3.51-.02c-.32 23.12-6.781 13.96 11.82 30.55-.46.77-.91 1.55-1.34 2.34l-.46.21c-4.09-1.97-8.54-5.15-12.46-7.67-4.467-10.87-4.687-14.76-1.07-25.41"/><path fill="#edeaec" d="M1041.64 1516.91c4.21 1.34 6.21 1.09 10.46 1.95-.5.12-.99.24-1.49.34-1.09.22-2.11.09-3.2.01-.42-.03-1.44-.12-1.79.2-.31.28-.23 1.12-.24 1.33-11.44 3.57-11.83 9.24-24.15 8.35-1.49-.75-2.98-1.49-4.49-2.21.43-.79.88-1.57 1.34-2.34 11.34 3.24 14.75.16 23.56-7.63"/><path fill="#cc0806" d="M1040.14 1506.45c.07-.05 1.95-1.01 2.04-1.01 4.21-.05 15.92-12.32 15.2-11.93 1.27.51 1.23 1.52 2.18 2.24l1.23.93c1.5 2.06 2.85-.06 3.42 1.5 1.34 3.67.5 8.61.76 12.79-5.21 5.17-5.92 5.31-12.87 7.89-4.25-.86-6.25-.61-10.46-1.95-1.12-3.24-1.28-7.03-1.5-10.46m5.24 14.29c1.65.38 11.17 1.2 11.47 2.21 1.3 4.42-7.28 10.09-10.84 11.14-10.34 3.3-16.46 4.59-24.82-3.42l.04-1.58c12.32.89 12.71-4.78 24.15-8.35m-23.05-47.98c6.2-12.88 16.93-8.99 25.16-.19 4.73 5.06 7.91-5.11 15.92 9.54l-4.16-1.85c-.93-1.09-8.33-.92-9.8-.72l-1.56.23c-.57-11.11-17.49-6.5-23.99-3.19z"/><path fill="#db1d16" d="M1063.41 1482.11c7.45 2.2 3.35 23.65 1.56 28.86-.26-4.18.58-9.12-.76-12.79-.57-1.56-1.92.56-3.42-1.5-3.18-8.61-4.36-4.95-1.54-16.42z"/><path fill="#9e4544" d="M1016.74 1526.88c1.51.72 3 1.46 4.49 2.21l-.04 1.58c-1.82-.46-3.65-.9-5.48-1.32l.57-2.26z"/><path fill="#46474c" d="M1012.69 1415.73c10.26-.42 10.98.16 8.72 11.87-9.99.16-9.41-1.63-8.72-11.87"/><path fill="#fdfdfc" d="M1132.8 474.997c.8 5.191.29 32.866.28 40.01l-.24 91.268c-7.83-4.696-16.69-10.896-24.39-16.01l-14.7-9.576.29-82.962c14.13-6.999 25.6-14.264 38.76-22.73m-19.58 708.493c14.56-.03 29.12.08 43.67.31.01 4.81 1.62 27.56-2.09 28.82-15.07.01-29.87-.42-44.93-.68.04-5.94-.35-21.06.46-27.55.09-.66 2.33-.83 2.89-.9M953.587 602.045c.665.373.244.055.694 1.424-1.377 3.323-4.715 9.587-7.634 11.415-16.448 10.301-34.834 20.66-51.584 30.307L787.505 707.66c-1.534-2.601-.958-1.195-.58-4.949 3.668-5.34 152.192-92.507 166.662-100.666M751.231 1411.46c4.028-.14 8.058-.18 12.088-.14l-.066 21.35c-15.386.16-31.17-.57-46.753-.63l-14.497-.05c-.081-6.77-.105-13.55-.072-20.32 16.574-.32 32.33.39 49.3-.21m634.159-88.43c3.28-7.16 6.11-13.41 9.02-20.76.89 12.46 2.43 24.35 4.27 36.69 4.01-8.66 9.89-23.57 13.52-32.88 3.88 10.89 5.72 19.79 8.72 30.9l.66-1.56c3.41-7.63 4.2-17.98 5.38-26.29 2.36 9.95 4.53 19.96 7.44 29.75.45 1.51 1.58 5.53.84 6.67-2.77 4.22-8.47-11.12-8.96-12.27l-.73 1.81-.76 1.8c-2.8 6.82-3.58 11.64-5.06 18.67-2.87-11.24-5.94-22.63-8.67-33.87-7.51 17.17-10.08 25.32-14.47 43.32-1.51-12.98-2.98-23.61-5.43-36.51-3.58 7.11-8.17 18-11 25.4-.36-13.63-1.25-15.4-2.65-28.05-.51-1.09-.92-1.95-1.48-3.03 1.2-3.28 2.53-7 3.55-10.31l3.58-.74c.35-1.07.69-2.06 1.01-3.14-.03 5.75-1.5 10.23 1.22 14.4"/><path fill="#46474c" d="M1383.16 1311.77c.35-1.07.69-2.06 1.01-3.14-.03 5.75-1.5 10.23 1.22 14.4-.37 1.56-.51 3.96-1.85 5.09l-.15-.08c-.83-1.44-.31-13.91-.23-16.27"/><path fill="#fdfdfc" d="M1104.8 879.398c17-.438 34.01-.215 51 .67q-.48 8.736-.54 17.482c-2.79.553-4.81.398-7.5.949-5.76.615-9.56 1.236-15.27 2.382a282 282 0 0 0-27.66 7.108c-.05-9.344-.25-19.281-.03-28.591M941.952 624.217l.272.268-.026 1.997c-1.291 2.413-2.557 4.791-4.941 6.345-50.595 32.98-105.193 60.352-156.476 92.068l-.623-.652c-.228-4.151 2.901-7.976 6.245-10.014 50.769-30.945 105.602-57.833 155.549-90.012m164.518 821.443 52.07 1.36c.03 4.16.56 15.5-.7 18.93-16.26.19-35.36.65-51.6 1.8.06-7.42.01-14.66.23-22.09m12.51-457.497q17.385-.246 34.77.219c.08 9.769.08 19.538-.02 29.308-11.6.15-23.2.22-34.8.23zm298.65 259.617c.34-1.65.66-3.3.98-4.96 1.84-10.13 5.06-18.99 7.18-29.49 3.91 9.88 5.81 18.36 8.47 28.62 1.25-9.73 2.88-18.99 4.61-28.64 4.68 15.71 7.76 28.72 10.66 44.91-3.72-6.82-5.68-11.75-8.9-18.69-1.41 8.83-2.36 17.65-3.92 26.42-4.66-11.05-6.67-17-9.88-28.79-2.14 9.65-4.16 19.28-6.22 28.94-4.7-12.42-7.38-18.63-10.95-31.45-1.58 4.15-3.93 10.62-4.83 14.87l-2.25.7c.13-16.48 2.5-18.36 9.77-33.74.82 11.46 2.33 20.29 5.28 31.3m-305.37-486c10.9 1.739 22.06 3.054 33.03 4.661l.14 24.631c-6.7-.06-13.15-.168-19.85.065-4.29-.208-9-.138-13.35-.185-.1-5.48-.13-10.923-.3-16.402.53-3.819.31-8.802.33-12.77m8.29 307.08c10.88.42 22.52.11 33.52.25l.05 21.32c-11.69 2.46-22.31 4.31-34.06 6.26-.02-5.46.3-20.25-.57-24.79zm-416.724-13.07c8.924-.08 40.562.73 47.276-.55.004 7.5 2.655 16.17-4.261 18.44-7.999-1.37-33.165-.62-42.919-.9-.078-5.66-.11-11.32-.096-16.99m2.172 184.33 19.581-.23c.044 13.74-.022 27.47-.199 41.21-6.446.03-12.892.01-19.338-.04-.128-13.65-.143-27.29-.044-40.94m-89.288 66.87c.801 1.87 1.592 3.75 2.373 5.63.085 2.32 4.387 18.31 5.269 22.07.832-8.86 1.579-13.21 2.992-21.86.228-1.34.468-2.69.719-4.03 1.719 12.67 4.006 21.84 7.124 34.17 2.486-11.26 3.333-14.49 8.25-25.19.429 15.08-1.948 26.72-3.536 41.57l-2.918-.85c-2.147-6.52-4.874-12.72-7.193-19.16-2.487 4.54-4.254 8.28-6.121 13.09l-2.479.8c-.545-9.47-1.705-15.6-3.974-24.56-2.63 8.32-5.093 13.52-8.94 21.29-1.901-24.99 4.409-23.19 8.434-42.97"/><path fill="#edeaec" d="m913.41 678.841 1.041.309c-.939 3.176-131.848 73.369-145.96 81.589l-.769.005-.729-1.158c1.119-3.785 1.668-5.581 5.266-7.735 15.885-9.089 32.463-17.666 48.832-25.907 30.726-15.469 61.217-32.491 92.319-47.103"/><path fill="#fdfdfc" d="M652.84 1130.31c5.092 16.53 6.48 20.79 8.594 38.25.211 1.6 1.159 6.98.22 8.29-.094.01-.187.03-.28.04-.55-.47-.613-.8-.984-1.53-3.371-6.26-6.223-11.59-9.303-18-1.65 4.36-4.505 9.91-4.406 14.62.025 1.19.737 3.33-.284 4.19-3.646-.55-7.592-21.77-8.521-25.67-4.031 8.54-7.956 17.14-12.014 25.71-.189-16.73 1.624-24 4.005-40.15 1.437 6.07 2.276 10.94 3.407 17.07l.847-1.74c2.726-5.51 3.793-9.09 6.041-14.62l.379-.91c2.172 6.13 4.341 11.64 6.65 17.71 4.469-10.68 4.167-12.09 5.649-23.26"/><path fill="#cbcbce" d="M661.434 1168.56c.211 1.6 1.159 6.98.22 8.29-.094.01-.187.03-.28.04-.55-.47-.613-.8-.984-1.53.296-2.28.644-4.54 1.044-6.8"/><path fill="#fdfdfc" d="M1578.06 1312.21c1.25 4.47 8.18 36.44 8.96 12.97l2.71-.99 1.69 2.4c2.14 5.12 2.98 6.48 3.7 12.21-.23 5.6-.19 11.06-.43 16.78-4.57-8.24-4.68-9.61-7.83-18.2-3.6 17.56-4.37 9.96-9.09-2.51-2.56 6.07-4.61 12.33-6.94 18.52-1.07-7.86-1.32-9.26-3.09-17.06-2.74 7.73-3.42 10.56-4.89 18.45-1.32-3.62-3.2-8.72-3.41-12.56.24-10.09 4.38-20.88 7.69-30.35 1.62 7.95 2.68 14.17 4.86 22.03 1.79-9.48 2.34-12.43 6.07-21.69m-917.247-1.63.769 1.37c5.308 9.09 7.612 19.21 13.551 29.12 1.017-8.38 1.528-16.77 2.689-25.08.369-2.63 2.483-2.31 2.749-.71 2.908 17.46-.161 36.28-2.168 53.67-3.98-14.81-9.08-24.47-14.953-38.55a197 197 0 0 0-3.188 22.97l-3.6-.69c-2.167-7.38-5.66-12.07-6.853-20.26-.958-5.06-.697-7.33-1.18-12.29l1.874-1.75c.368 1.59.695 3.02.983 4.62 1.609 5.45 3.185 11.04 4.719 16.51l1.967-11.5c.343-2.1.666-3.86.986-6z"/><path fill="#edeaec" d="M650.503 1318.38c.368 1.59.695 3.02.983 4.62-2.309 3.46-1.385 5.22-1.677 9.42-.958-5.06-.697-7.33-1.18-12.29z"/><path fill="#fdfdfc" d="M1276.6 693.147c-.09 1.72-1.31 4.463-2.14 5.968-20.48 36.915-41.35 73.569-62.41 110.135-1.27 2.206-1.91 2.061-4.03 2.804l-1.67-1.232c-.07-.794-.14-1.588-.22-2.382 5.44-7.231 12.2-17.075 16.04-24.831l-1.06-1.434c-.84-.407-.41-.087-1.08-1.173 2.96-2.067 7.66-5.453 8.54-9.093-2.94.703-2.35 1.21-3.97.218 2.8-4.014 10.28-8.211 11.59-13.568l-4.3 1.001c2.84-5.038 10.7-6.031 11.14-12.452l-3.54.417c1.08-5.639 12.45-8.66 10.9-14.191l-4.93 1.293c-.2-4.114 11-9.065 14.14-14.989-2.2-1.366-4.56-.352-7.9.083 5.21-5.975 12.66-9.633 18.72-16.858-5.63 1.515-10.93 3.809-16.35 5.971 8.18-7.927 12.58-9.872 22.53-15.687m-158.84 235.789c7.48.954 27.7-.391 31.59 1.398q.03 9.955-.21 19.906c-8.89.198-19.55-.238-28.11.586 4.62.691 25.84.257 27.4.937l.15.237c-.42.654-23.85.607-28.15 1.473-2.31.273-3.05.165-2.89-2.365.47-7.364.28-14.792.22-22.172"/><path fill="#1c1b1c" d="M1117.76 928.936c7.48.954 27.7-.391 31.59 1.398-6.06 1.288-21.36.781-28.28.833l-.04 19.659c4.62.691 25.84.257 27.4.937l.15.237c-.42.654-23.85.607-28.15 1.473-2.31.273-3.05.165-2.89-2.365.47-7.364.28-14.792.22-22.172"/><path fill="#fdfdfc" d="M1409.43 1148.99c3.23-8.17 6.32-15.09 9.85-23.07 1.02 9.1 2.22 18.17 3.61 27.21 2.79-7.45 4.92-14.78 8.01-22.15 4.21 18.69 5.01 21.51 2.85 40.75-2.4-6.48-4.69-12.47-7.24-18.91-1.84 4.8-3.6 9.23-5.01 14.18-.04 6.55-2.48 6.55-2.42-.91-1.18-8.45-2.49-16.88-3.66-25.33-5.57 9.01-6.42 9.12-9.09 20.67l-2.4-2.59c.04-5.55.02-11.09-.07-16.64-4.58 8.09-8.41 15.86-13.03 23.85 1.42-7.43 1.79-9.96 4.52-17.08 3.26-8.47 9.23-12.84 9.98-21.06l3.04 4.83c-.13 1.09.94 13.84 1.06 16.25"/><path fill="#cbcbce" d="M1419.08 1166.09c1.09.53 1.25.59 2.42.91-.04 6.55-2.48 6.55-2.42-.91"/><path fill="#edeaec" d="m927.591 653.049.806 1.06c-1.408 2.977-46.674 27.723-54.115 32.026a5056 5056 0 0 1-60.609 34.49c-11.888 6.677-26.958 15.618-39.126 20.83-.833-.739-.448-.209-.623-1.867 1.649-2.353 4.597-5.283 7.119-6.576 49.28-25.262 97.331-54.842 146.548-79.963"/><path fill="#fdfdfc" d="M1299.79 986.552c2.05.233 4.18.377 6.2.777a799 799 0 0 1 18.49 3.902c4.85 1.08 15.58 3.212 20.03 5.468 1.33.676.75 8.861.72 10.541-14.05-.23-28.03-1.81-41.77-4.74-.64-.14-1.28-.29-1.92-.44l-1.89-.4c0-5.035.04-10.072.14-15.108M867.874 1424.99c10.814-.17 21.629-.16 32.442.02.054 4.69-.183 11.37.575 15.83l-.41 1.09c-.706 2.03-2.458 1.75-4.356 1.98-7.387-.97-21.184-.83-29.028-.83q.253-9.045.777-18.09m-162.923-273.74 27.09-.33c.019 6.87-.274 15.87.155 22.51l-6.723.57c-4.843-1.04-15.011-.75-20.397-.92-.121-7.28-.163-14.55-.125-21.83m860.769 79.58c3.58 10.32 3.58 11.68 4.93 22.57 1.4-5.97 4.08-15.09 4.28-20.98l2.2 1.02c.57 4.78 1.34 5.5 3.09 10.03.37 1.74.61 2.3 1.24 3.98 3.5 10.95 1.78 18.36-.07 29.32-2.96-7.89-5.88-14.22-9.41-21.84l-1.78 8.58c-1.04 5.05-1.96 9.11-3.26 14.1-4.72-21.92-8.67-25.16-1.22-46.78m-1069.571 1.83c2.465 6.74 3.924 14.22 8.127 20.11l2.624 3.63c.408 8.63.292 11.43-.27 19.93-5.619-12.33-2.009-8.91-11.569-19.04-1.449 5.14-2.563 10.39-3.811 15.6-1.382-3.79-2.659-7.06-4.263-10.77-.612-1.28-2.383-6.47-3.534-6.93-2.343.41-2.966 6.19-4.77 5.69-1.099-1.17-3.679-9.9-1.666-12.35 2.612-3.18 4.748-10.09 6.213-14.12 3.25 8.4 4.09 12.03 8.088 20.48.458-2.33 1.246-5.2 1.56-7.4.755-5.01 1.847-9.97 3.271-14.83"/><path fill="#edeaec" d="m884.952 734.291.14.695c-44.698 24.845-92.469 46.212-137.127 72.01l-.905-.891c.323-3.604 2.42-5.83 5.557-7.458 36.266-18.82 72.918-36.715 109.858-54.172 7.455-3.523 14.725-7.343 22.477-10.184"/><path fill="#fdfdfc" d="M887.59 1496.11h24.249c-.05 4.9-.055 9.79-.015 14.68q-17.424-.27-34.849-.09c-.017-4.53-.959-11.75 1.209-14.98 3.508.3 5.935.35 9.406.39m575.75-179.51c-.05-.78-1.48-18.27 1.98-8.36a178.7 178.7 0 0 1 11.98 32.21c.79 3 1.78 6.07 2.66 9.06-4.64-6.43-6.98-10.07-10.08-17.56-1.1.76-2.1 1.42-3.21 2.14.71 6.99 1.16 19.57 1.41 26.74-3.63-7.02-11.23-21.41-12.86-28.34l-.97-4.01c-1.1-4.55-2.18-9.1-3.36-13.62 3.7 6.06 6.18 9.62 9.26 16.26.77-4.34 1.51-8.66 2.73-12.89z"/><path fill="#edeaec" d="M1463.34 1316.6c-.05-.78-1.48-18.27 1.98-8.36-1.07 2.93-1.25 5.29-1.98 8.36"/><path fill="#46474c" d="M1466.67 1334.09c.3-4.68.06-8.85 3.21-2.14-1.1.76-2.1 1.42-3.21 2.14"/><path fill="#fdfdfc" d="m519.019 1392.54 1.01 3.44c1.553 5.14 5.466 11.91 9.043 16.03 1.465 1.69 3.917-4.3 4.122-4.68-.019-1.4-.669-9.75.334-10.08 1.288.87 1.5 2.41 1.849 3.88 2.426 5.33 7.026 12.86 6.309 18.47-.504 3.94-8.829-8.65-11.478-4.26-.97 1.6-.139 10.76-.084 13.17-4.213-5.61-7.645-10.72-11.659-16.38-2.672 5.51-4.3 8.28-7.582 13.46q-2.64-6.84-4.85-13.83c7.886-8.48 8.114-9.21 12.986-19.22"/><path fill="#cbcbce" d="M533.194 1407.33c-.019-1.4-.669-9.75.334-10.08 1.288.87 1.5 2.41 1.849 3.88-1.246 2.63-1.387 3.31-2.183 6.2"/><path fill="#fdfdfc" d="M637.27 1217.11c4.999 11.79 7.123 20.85 13.634 32.27-2.044 6.84-4.305 14.07-6.151 20.91a165.8 165.8 0 0 0-7.944-33.11c-3.064 7.37-4.123 9.97-6.451 17.59-.259 1.49-.307 2.8-1.391 3.88-.09-.01-.18-.03-.269-.05-1.223-1.49-.497-14.97-.14-17.42 3.077-9.5 5.287-14.97 8.712-24.07"/><path fill="#adadb1" d="M630.358 1254.77c-.259 1.49-.307 2.8-1.391 3.88-.09-.01-.18-.03-.269-.05-1.223-1.49-.497-14.97-.14-17.42.554 4.58-.113 9.78 1.8 13.59"/><path fill="#edeaec" d="m900.428 706.004.888.286c-1.464 2.45-126.329 66.845-142.865 77.134l-1.177.072.146-1.808c4.457-7.786 30.295-18.11 39.429-22.899a4571 4571 0 0 1 103.579-52.785m412.132 167.425c-10.99-28.749-20.34-69.528-28.92-99.857-1.41-4.973-6.69-21.014-6.87-25.039 2.4 3.273 38.47 117.624 41.14 127.309-2.99-.737-2.98-.545-5.35-2.413"/><path fill="#fdfdfc" d="M1122.2 1273.25c11.47.17 23.03 1.21 34.5 1.44 9.85.19 9.97-1.37 9.23 8.66-5.37.03-42.07 1.23-43.38-.17-1.27-1.37-.4-8.3-.35-9.93m-650.292 131.13c3.872 20.04 10.179-5.03 12.075-11.69 1.239 5.48 2.359 9.71 3.713 15.11-3.488 6.23-6.88 12.77-10.531 18.81-2.903-8.15-3.07-9.36-8.411-15.66-2.048 5.79-3.424 10.8-6.114 16.37-1.88-7.9-3.136-12.78-5.678-20.46.797-3.29 1.251-6.37 2.072-9.7l2.074.95c1.182 10.34 4.244 14.03 8.623 2.29l.197-.52q1.027 2.235 1.98 4.5m13.647-90.3-.092-1.1.052-1.44c.533.29.677.75 1.044 1.33 1.45 4.75 2.234 12.46 2.996 17.68 3.261-5.74 5.728-13.28 7.504-19.61 4.593 13.83 5.275 15.08 4.968 29.4l-2.827-.73a134 134 0 0 0-4.294-11.67c-1.429 10.86-3.388 18.28-4.902 28.86-8.341-27.74-8.064-15.88-4.449-42.72"/><path fill="#adadb1" d="m485.555 1314.08-.092-1.1.052-1.44c.533.29.677.75 1.044 1.33-.283.6-.508.72-1.004 1.21m387.636-551.988c1.508.311.768-.006 2.152 1.094-10.611 2.722-32.535 14.659-43.686 20.182a4912 4912 0 0 0-93.333 47.202l-1.538.18-.169-1.208c3.449-5.358 122.817-61.601 136.574-67.45"/><path fill="#fdfdfc" d="M1571.48 1169.13c.06-.62.15-7.59 1.47-7.79.88-.14 1.32 3.34 1.14 3.65.7 5.05 1.99 9.99 2.85 15.01.47 4.26-1.11 14.23-1.73 18.88-.8-3.98-1.68-8.63-2.2-11.9-.71-4.49-1.47-3.43-4.02-1.71-.7.47-.92-1.44-2.08-1.68-.57.65-2.54 9.95-3.01 11.61l-.03.98-.6.46.36.42c-2.12 2.29-1.68-6.53-1.68-6.56-.08-4.28.05-8.37.95-12.55.25-4.39.85-7.67 2.15-11.9l1.53.36 1.55-1.76z"/><path fill="#46474c" d="m1568.13 1164.65 3.35 4.48c-3.75 6.05-3.81 4.18-4.9-2.72z"/><path fill="#adadb1" d="M1562.9 1177.95c.27 6.93-.67 10.63 1 17.25l-.03.98-.6.46.36.42c-2.12 2.29-1.68-6.53-1.68-6.56-.08-4.28.05-8.37.95-12.55"/><path fill="#fdfdfc" d="M1347.92 1358.44q.765-1.755 1.5-3.54c3.66-9.19 18.73-39.55 23.45-48.49-1.31 8.89-2.09 14.38-1.73 23.35l1.15 1.72c-1.37 2.4-5.24 10.43-6.56 13.18l-2.95-3.65c-5.23 5.81-9.02 11.37-14.86 17.43m256.22-41.54 1.7.14c.84 6.89 3.13 13.92 4.81 20.97.52 2.18.48 14.27-3.64 12.05-1.81-.98-8.01-9.06-9.13-11.04l-.57-1-2.19.78c-.72-5.73-1.56-7.09-3.7-12.21.74-.5 1.9-1.9 2.54-2.61.36-1.05.37-1.36 1.14-2.08 2.06-.48 4.63 11.48 5.27 13.44l.34 1.11c.75-2.5 1.33-4.31 2.29-6.73.09-4.3.89-8.29 1.14-12.82"/><path fill="#59585a" d="M1593.96 1323.98c.97 5.18 2.53 9.26 3.35 14.04l-2.19.78c-.72-5.73-1.56-7.09-3.7-12.21.74-.5 1.9-1.9 2.54-2.61m9.04 5.74c-.01 2.77 1.51 10.05-2.29 6.73.75-2.5 1.33-4.31 2.29-6.73"/><path fill="#fdfdfc" d="M464.884 1311.28c2.124 2.85 1.811 4.51 2.756 7.74 1.629 11.73 1.176 9.84-.767 21.37l-2.803.96c-.097-3.4 1.322-17.82-4.68-9.12-3.83 5.56-6.428 11.87-10.748 17.66l-3.504 4.62c3.386-11.23 8.804-23.92 13.715-34.66 1.651-3.11 1.643-3.03 4.078-5.54l1.108.78-.064-.09c.499-1.55.239-1.83.909-3.72"/><path fill="#46474c" d="M464.884 1311.28c2.124 2.85 1.811 4.51 2.756 7.74-1.136 1.42-1.798 2.65-2.738 4.21-.173 1.04-.192 2.12-1.13 2.75-1.823.14-2.017-3.91-2.265-5.15-.935-.37-1.695-.68-2.654-.98 1.651-3.11 1.643-3.03 4.078-5.54l1.108.78-.064-.09c.499-1.55.239-1.83.909-3.72"/><path fill="#cbcbce" d="M464.884 1311.28c2.124 2.85 1.811 4.51 2.756 7.74-1.136 1.42-1.798 2.65-2.738 4.21.111-4.22.13-7.74-.018-11.95"/><path fill="#edeaec" d="M462.931 1314.31c-.422 2.73-.705 3.87-1.424 6.52-.935-.37-1.695-.68-2.654-.98 1.651-3.11 1.643-3.03 4.078-5.54"/><path fill="#fdfdfc" d="M1396.56 1211.89c1.27 1.44.93 1.69.99 3.57.54 16.51-.3 22.66-5.76 37.89-.19-2.1-.94-19.56-2.5-19.67-.35.27-.69.55-1.03.82-1.17 1.7-7.66 13.96-9.13 12.62-1.08-4.45 13.28-29.03 16.36-33.6zm-827.983 198.79c.387-.14 26.688-11.24 24.186-11.35.57.94.087 6.92.039 8.19-.352 2.87-.588 5.25-.762 8.15-4.61 1.81-10.244 2.05-15.139 3.06l-3.533.72c-1.079-1.86-4.299-7-4.79-8.67l-.074-.24zm98.591-195.01c7.011 5.79 12.58 37.11 12.955 46.69-15.663-21.12-13.714-24.57-12.955-46.69m910.372 179.08c2.63 2.53 2.66 13.84 3.13 17.8 2.75-6.56 4.46-10.79 6.33-17.68l.39 1.03c4.25 10.86 5.76 17.85 5.25 29.72l-.82-1.5c-2.25-4.01-3.58-9.54-4.87-14.09-2.44 4.5-4.32 8.99-6.63 13.31l-1.96 3.61c-4.39-21.35-3.31-12.73-.82-32.2M631.712 1076c1.233-9.74 2.706-14.71 5.255-24.11 1.237 4.65 2.839 9.82 3.697 14.54 1.049.31 2.054.6 3.091.95 5.368-23.54 3.327 20.07 2.919 23.22a616 616 0 0 0-8.527-20.77c-1.934 4.67-2.699 5.4-3.278 10.26a336 336 0 0 0-3.157-4.09"/><path fill="#46474c" d="M643.755 1067.38c.771 6.63-1.963 1.62-3.091-.95 1.049.31 2.054.6 3.091.95"/><path fill="#d17d3e" d="M1365.76 1386.85c2.35 2.34 2.21 17.07 2.29 20.94-5.25-.09-10.5-.13-15.75-.11-7.06-4.09 9.78-17.22 13.46-20.83"/><path fill="#fdfdfc" d="M1547.51 1330.24c.68-1.51 6.39-14.16 7.03-15.04.08.03 4.89 23.86 4.9 27.02-.86-.51-5.09-3.79-5.45-3.4-2.96 3.24-6.03 10.96-8.05 14.99.1-5.04.04-19.39 1.57-23.57m-132.81-282.27c2.93-4.97 2.79-4.7 4.28.59-.13 1.64-.65 5.98.18 7.33.16.07.22.14.37.08.41-.14.71-.94.83-1.15l3.99.58c.81 4.07 1.56 6.71 2.85 10.66-.2 3.82-.72 7.47-.83 11.08-2.83 8.51-1.72-5.7-4.57-7.28-1.31.35-2.31.65-3.66.84-.06-1.95.35-12.06-.58-12.55-1.01.64-4.35 6.71-5.87 3.75-2.12-4.12 1.7-9.79 3.01-13.93"/><path fill="#edeaec" d="M1414.7 1047.97c2.93-4.97 2.79-4.7 4.28.59-1.43-.19-2.85-.36-4.28-.59"/><path fill="#fdfdfc" d="M555.891 1377.95c3.007 2.01 9.487 8.25 11.705 11.69-.042-.07 1.416 3.77 2.332 3.05 2.633-2.06 5.328-7.28 7.474-10.27-.988 4.98-1.894 9.86-3.274 14.76-2.221 4.68-3.829 7.11-6.617 11.4-3.323-8.12-10.087-22.79-11.62-30.63m56.301-144.5c3.092-6.3 6.883-13.72 10.554-19.64l.435-.72c.153 3.31.348 6.61.586 9.91.835 13.2-1.927 25.34-5.276 38.05-.485-7.49-.291-21.47-1.16-27.21-2.108-.41-2.981-.36-5.139-.39m998.268 163.17c5.37 12.16 2.29 24.04.1 36.62-1.81-4.76-2.27-6.95-4.51-11.93-1.26-2.6-6.64-19.65-2.55-21.15.62.39 4.31 8.01 4.94 9.17.58-4.44 1.3-8.34 2.02-12.71m-947.724-271.09c2.285 3.37 7.058 11.47 7.199 15.47.235 6.65 4.442 19.92 3.084 25.53-3.891-6.3-8.222-15.48-11.843-22.31.579-6.87 1.234-11.44 1.56-18.69"/><path fill="#75777c" d="M1154.41 644.773c5.1 1.286 84.02 51.249 88.42 55.416-3.11-.341-3.32-.159-5.83-1.872a484 484 0 0 0-24.62-15.698c-17.18-10.456-33.8-21.167-50.46-32.38l-2.98-1.992c-2.47-1.618-2.35-1.519-4.53-3.474"/><path fill="#fdfdfc" d="m654.028 1232.89 2.342-1.79c1.958 7.02 5.052 21.62 4.434 28.77.105 2.31.648 12.05-.143 13.46-.099.01-.199.03-.299.04-.754-.84-.899-1.7-1.048-2.8-9.017-24.36-6.202-14.34-5.286-37.68"/><path fill="#cbcbce" d="M660.804 1259.87c.105 2.31.648 12.05-.143 13.46-.099.01-.199.03-.299.04-.754-.84-.899-1.7-1.048-2.8.795-3.78.699-6.95 1.49-10.7"/><path fill="#fdfdfc" d="M507.613 1227.75c3.1 2.95 11.649 34.21 9.238 36.03-4.447-7.33-8.113-11.95-13.258-18.55 1.868-6.24 3.041-10.97 4.02-17.48m1074.327 2.33c.87-.66 1.75-1.31 2.62-1.96 3.69 9.88 6.22 16.44 8.03 26.85.22 1.81.87 7.91.04 9.47l-.14.06c-.82-.66-1.08-1.93-1.44-2.88-1.97-6.37-3.16-10.18-7.48-15.13l-2.11.96c-.63-1.68-.87-2.24-1.24-3.98.45-3.77-.05-7.72 1.51-10.98z"/><path fill="#59585a" d="M1580.22 1243.47c.45-3.77-.05-7.72 1.51-10.98.44 5.77-.91 9.52 1.84 14l-2.11.96c-.63-1.68-.87-2.24-1.24-3.98"/><path fill="#cbcbce" d="M1592.59 1254.97c.22 1.81.87 7.91.04 9.47l-.14.06c-.82-.66-1.08-1.93-1.44-2.88.53-2.21 1.04-4.43 1.54-6.65"/><path fill="#fdfdfc" d="m605.523 1309.95 2.748 2.82c-.653 2.59-1.118 4.6-1.562 7.22-2.115 12.47-7.362 23.5-12.298 35.01 1.632-18.33 3.672-28.31 11.112-45.05m-82.583 17.3c.041-2.73-.22-12.27.576-14.3 1.254 1.04 1.595 5.59 1.928 7.19 5.999 20.66 8.28 16.46 6.11 38.45-2.211-6.3-4.678-12.47-6.91-18.79-.238-1.57-.593-3.09-.785-4.66-.738-3.53-.779-4.26-.919-7.89"/><path fill="#cbcbce" d="M522.94 1327.25c.041-2.73-.22-12.27.576-14.3 1.254 1.04 1.595 5.59 1.928 7.19-2.678 4.68-1.225 9.46-1.585 15-.738-3.53-.779-4.26-.919-7.89"/><path fill="#fdfdfc" d="M501.278 1394.72c1.274 4.27 2.904 9 4.048 13.23-1.9 3.28-7.185 16.29-10.227 15.6-.984-1.92-6.32-11.06-4.517-12.59.97 0 2.333 1.3 2.85.74 2.677-2.93 5.474-9.57 6.652-13.21z"/><path fill="#8b8d91" d="M808.916 812.185c2.919 2.726-19.866 9.02-22.147 11.361-.623.639-4.307 2.438-5.162 2.832a1513 1513 0 0 0-49.82 24.373c-1.171.61-2.262 1.178-3.441 1.767.13.137-1.258-1.136-.872-1.35 20.723-11.525 60.918-31.21 81.442-38.983"/><path fill="#fdfdfc" d="M688.356 1317.99c1.401 3.68 9.93 22.19 8.006 25.62-1.381 2.47-1.672 7.03-2.415 7.67l-.212.04c-3.187-2.35-7.793-23.57-7.77-29.02zm741.774-253.89c-.03.83-.54-19.52 2.29-7.86 1.74 5.16 6.24 20.24 3.87 25.67-1.52 3.49-4.12-5.69-4.16-5.83-2.51.67-3.11.87-5.76 1.06.11-3.61.63-7.26.83-11.08z"/><path fill="#46474c" d="M1430.13 1064.1c.1 3.16.21 3.95.8 7.03.19 1.9.61 3.12 1.2 4.95-2.51.67-3.11.87-5.76 1.06.11-3.61.63-7.26.83-11.08z"/><path fill="#edeaec" d="M1430.13 1064.1c-.03.83-.54-19.52 2.29-7.86-1.68 3.81-1.1 9.98-1.49 14.89-.59-3.08-.7-3.87-.8-7.03"/><path fill="#fdfdfc" d="M1554.49 1235.95c.28-.96.83-3.82 1.94-4.22 1.03.82.56 9.63.53 11.55.64 5.25 3.02 9.6 1.57 15.04-1.49 5.56-3.34 10.97-4.94 16.51-1.05-10.53-1.93-28.61.9-38.88"/><path fill="#cbcbce" d="M1554.49 1235.95c.28-.96.83-3.82 1.94-4.22 1.03.82.56 9.63.53 11.55-.78-3.63-.51-4.29-2.47-7.33"/><path fill="#d17d3e" d="M592.802 1407.52c5.419-.56 19.204-5.2 19.549-4.09 2.497 8.06-.868 9-8.338 9.72-.647.06-5.706 1.29-6.01 1-2.062.22-4.023.89-5.963 1.52.174-2.9.41-5.28.762-8.15"/><path fill="#fdfdfc" d="m533.501 1311.79.837 3.45c4.853 11.19 5.788 16.03 8.113 27.52l-3.014.83c-5.049-11.5-8.547-5.69-7.289-19.02-.08-4.34-.079-8.14-.425-12.49z"/><path fill="#edeaec" d="m533.501 1311.79.837 3.45c-1.313 3.13-1.394 6-2.19 9.33-.08-4.34-.079-8.14-.425-12.49z"/><path fill="#fdfdfc" d="M477.357 1311.58c3.277 7.69 3.601 19.98.701 27.92-.626 1.72-.065 5.43-2.163 5.56-.211-.73-.417-1.46-.616-2.2-1.385-5.06-2.195-6.21-4.315-10.71 2.673-7.19 4.206-13.37 6.393-20.57m-28.662 78.18c.481 9.63-12.086 35.1-16.74 43.93-3.082-9.98 12.624-35.35 16.74-43.93"/><path fill="#75777c" d="M1166.68 679.214c7.36 3.53 13.36 6.223 20.32 11.036 13.15 9.086 30.77 16.252 43.16 25.923-6.79-1.26-59.1-31.238-63.48-36.959"/><path fill="#fdfdfc" d="M1617.78 1414.12c-.6-2.78-1.63-14.83-.46-16.39.1-.01.21-.03.31-.05.51.54.77 1.34 1.04 2.02l.33.88c2.55 6.73 9.09 20.45 7.78 28.55-.03.17-.42.45-.58.39-1.29-.11-3.15-3.51-3.73-4.41-2.22-3.51-3.2-7.21-4.69-10.99"/><path fill="#cbcbce" d="M1617.78 1414.12c-.6-2.78-1.63-14.83-.46-16.39.1-.01.21-.03.31-.05.51.54.77 1.34 1.04 2.02-1.05 6.17-.67 8.2-.89 14.42"/><path fill="#fdfdfc" d="m1543.46 1322.27 2.05 2.24c-2.52 9.79-6.04 19.66-11.14 28.55-.19.32-.57.06-.77-.03-4.03-5.77 5.56-23.92 8.87-29.17zm-1021.273 18.57c-.36 2.06-.738 4.13-1.134 6.18-2.97 14.67-5.953-20.88-3.681-24.73 1.145-.52 2.536 3.43 2.884 4.1l2.684.86c.14 3.63.181 4.36.919 7.89.192 1.57.547 3.09.785 4.66z"/><path fill="#46474c" d="M522.94 1327.25c.14 3.63.181 4.36.919 7.89.192 1.57.547 3.09.785 4.66l-2.457 1.04c-.512-4.94-1.196-9.54-1.931-14.45z"/><path fill="#fdfdfc" d="M472.662 1232.26c2.961 7.12-.192 19.51-3.009 26.34l-2.785-.49c.045-2.41.382-3.1-.842-5.16-.861-.64-2.112-1.52-2.931-2.24a749 749 0 0 1 9.567-18.45m969.528 90.38c6.41 5.46 3.64 24.39 2.33 31.81-6.12-5.08-3.94-24.7-2.33-31.81m-950.142-160.8c.477.81.371.45.486 1.01l.796.54-.231.3.25.18.078-.03c.435-1.36.664-2.03 2.092-2.34 2.216 4.14 1.165 12.47-1.074 16.62-1.775 3.29-1.584 10.22-2.832 15-1.748-12.29-1.632-18.4-1.991-30.37z"/><path fill="#46474c" d="M488.377 1101.97c.208 1.69.44 3.39.698 5.08l2.001-1.84c.914.24 1.165.63 1.914 1.32l1.433.41c2.196 3.82 1.896 4.25 2.648 8.69-1.566.43-1.859.71-3.182.44-3.605.64-4.167 1.68-7.129 3.92-.728 1.46-1.141 2.61-1.717 4.12-.66-1.32-1.299-2.65-1.916-3.98 1.968-6.05 3.402-12.07 5.25-18.16"/><path fill="#edeaec" d="M488.377 1101.97c.208 1.69.44 3.39.698 5.08l-.776 4.46a95 95 0 0 1-1.539 8.48c-.728 1.46-1.141 2.61-1.717 4.12-.66-1.32-1.299-2.65-1.916-3.98 1.968-6.05 3.402-12.07 5.25-18.16m5.512 14.1c-.691-4.38-2.08-5.34-.899-9.54l1.433.41c2.196 3.82 1.896 4.25 2.648 8.69-1.566.43-1.859.71-3.182.44"/><path fill="#d17d3e" d="M1444.25 1394.67c3.88 3.12 9.32 11.52 12.07 15.79-6.78-.5-9.48-.65-16.11-1.75-2.12-1.82-5.17-6.51-3.7-9.21.56.08 1.05.52 1.42.93 8.47 9.08 7.97 2.38 6.32-5.76"/><path fill="#fdfdfc" d="M510.185 1320.75c4.894 12.43 4.978 16.11.509 29.03-1.837-5.86-3.103-11.87-4.883-17.82 1.606-3.67 3.065-7.41 4.374-11.21"/><path fill="#edeaec" d="m472.734 1181.95 2.296-11.43c.349-1.66 4.442-13.47 6.427-13.08-.525 1.37-1.714 3.91.065 4.77 4.548-.48 2.537 11.64 2.615 15.87l-1.391-.31c-.57-.93-1.917-3.95-3.016-4.25-.354-.09-.73-.04-1.052.13-.899.47-5.029 6.93-5.944 8.3"/><path fill="#fdfdfc" d="M1534.57 1319.79c.52 7.8-8.24 26.82-12.71 34.06-2.33-8.75 7.91-26.73 12.71-34.06M490.843 1069.11l.103-1.87c.089-2.1 2.356-9.63 3.627-10.75.287 0 .159-.04.384.15.95 4.03-2.263 4.77 3.818 4.76.819.8 3.437 14.71.819 15.12-1.668-.7-1.426-3.99-2.892-5.21-1.303.64.336 2.75-2.707 2.72-1.25-2.61-1.303-2.65-3.152-4.92m1047.537 330.42c5.42 4.55 3.03 14.22 1.01 19.83l-1.22 3.35c-6.9-.69-1.13-19.13.21-23.18"/><path fill="#bf6d36" d="M1384.21 1406.76c6.82-7.53 8.93-11.3 14.9-19.17-.77 4.35-3.26 13.9-2.6 17.34 1.82.46 3.16 1.04 4.93 1.72-5.82-.09-11.52.24-17.23.11"/><path fill="#edeaec" d="M1448.1 1210.53c4.77 3.63 9.3 29.26 9.77 35.68-5.94-14.22-9.69-19.95-9.77-35.68"/><path fill="#fdfdfc" d="M508.79 1161.12c-.238-1.16-1.02-4.49-.741-5.61.3-1.21-.758-10.85.444-10.98 1.358.9 1.636 3.09 2.009 4.63 1.982 4.94 3.012 8.97 3.977 14.21.199 1.73 1.145 8.69-.055 9.96-.828-.26-1.034-1.4-1.321-2.1-1.61-3.58-2.848-6.43-4.313-10.11"/><path fill="#edeaec" d="M508.79 1161.12c-.238-1.16-1.02-4.49-.741-5.61.3-1.21-.758-10.85.444-10.98 1.358.9 1.636 3.09 2.009 4.63-1.939 3.95-1.302 7.12-1.712 11.96"/><path fill="#cbcbce" d="M514.479 1163.37c.199 1.73 1.145 8.69-.055 9.96-.828-.26-1.034-1.4-1.321-2.1q.792-3.915 1.376-7.86"/><path fill="#fdfdfc" d="m499.948 1155.73 1.574.84c6.08 11.77 5.81 8.37 3.367 19.43l-2.581 1.17c-2.933-7.82-3.931-10.93-2.627-19.43zm938.012-26.11c4.59 6 6.61 22.89 7.31 30.72-8.16-8.77-7.19-19.4-7.31-30.72m-921.7 100.52c.869-.59 1.737-1.19 2.605-1.78 3.008 8.84 4.962 18.07 7.137 27.16-2.98-4.93-6.087-10.86-9.586-15.29-3.187-4.05-1.383-5.48-.156-10.09m33.681 172.38c1.362 1.6 15.616 21.99 4.931 15.49-.833-.25-.482-.23-1.033-.22-.484.29-3.093 5.39-3.819 3.3-1.8-5.17-.779-13.12-.079-18.57"/><path fill="#edeaec" d="M1567.27 1058.76c.26 1.09.65 4.92 2.08 5.2 1.14-.96-.2-4.3 1.78-4.99 4.28 2.7 4.02 14.46 2.36 18.47-1.66-3.67-2.58-6.98-4.02-10.66-1.25 2.06-.95 6.43-2.35 7.33-2.65-.92-.66-12.72.15-15.35m-144.54-70.832c1.08 1.297.7 1.11.63 3.063-.09.842-.18 1.685-.26 2.527-.19 4.062 1.93 2.982 2.72-.04.3-1.146.29-3.232 1.58-3.692 1.02 1.163 3.01 14.024 2.02 14.654-.2-.11-.4-.22-.6-.34-5.82-8.926-5.27-6.247-9.37 3.7.85-10.556-.98-10.728 3.28-19.872"/><path fill="#fdfdfc" d="M452.983 1403.52c.641.34 3.399 1.66 3.195 2.54-1.099 4.75-7.44 15.22-10.29 18.72-4.109-.31 5.292-18.69 7.095-21.26m1112.537-2.63c.66 2.94 3.44 22.49-1.31 21.67-1.37-4.16-2.84-8.28-4.17-12.46 2.12-3.31 3.69-5.68 5.48-9.21m-33.96-4.15c1 8.01-2.45 18.89-6.28 25.9-2.68-8.66 2.27-18.48 6.28-25.9m20.88 4.62c1.12.13 1.21.18 2.29.52 1.85 11.91.55 12.19-4.49 23.87-.38-12.37-.62-12.28 2.2-24.39m-899.962-344.69c5.149 4.4 5.395 17.75 6.163 24.57-6.128-5.23-6.601-17.19-6.163-24.57m866.332 342.19c3.77 4.12-2.39 17.08-4.26 21.52-1.8-3.78-1.09-7.64-1.43-11.91 2.45-3.72 3.6-5.49 5.69-9.61"/><path fill="#edeaec" d="M1581.27 1158.43c2.86 6.07 4.62 18.18 4.7 24.85-5.98-4.82-4.64-17.88-4.7-24.85m-1086.847-51.49c1.547-.34 2.916-.62 4.482-.91 2.363 1.72 7.76 13.31 1.019 9.75-.332-.06-.877-.08-1.187-.34-.274-.22-.499-.64-.853-.63-.324.01-.805.81-.813.82-.752-4.44-.452-4.87-2.648-8.69"/><path fill="#59585a" d="M494.423 1106.94c1.547-.34 2.916-.62 4.482-.91-1.136 3.47-.057 5.99 1.019 9.75-.332-.06-.877-.08-1.187-.34-.274-.22-.499-.64-.853-.63-.324.01-.805.81-.813.82-.752-4.44-.452-4.87-2.648-8.69"/><path fill="#d17d3e" d="m1406.87 1390.52-.28 2.84c-.6 6.4 1.62 12.52-5.15 13.29-1.77-.68-3.11-1.26-4.93-1.72 6.04-3.15 7.46-8.41 10.36-14.41"/><path fill="#cbcbce" d="M1549.57 1227.73c.97 6.45-2.47 21.57-5.08 27.54-.91-6.8 2.38-21.15 5.08-27.54"/><path fill="#1c1b1c" d="M900.891 1440.84c3.152-.57 2.119 2.04 2.959 5.44-.816.41-.914.41-1.817.66-10.109-1.91-18.249-.42-28.17-2.54 1.863.61 19.611-.18 22.262-.49 1.898-.23 3.65.05 4.356-1.98z"/><path fill="#d17d3e" d="M659.187 1403.55c5.49.83 10.253 2.61 14.604 6.12-9.498 1.58-10.534 2.14-14.604-6.12m36.224-6.96c4.867 4.34 4.206 8.12 2.152 13.41-6.874-.17-3.087-7.81-2.152-13.41"/><path fill="#edeaec" d="M612.192 1233.45c2.158.03 3.031-.02 5.139.39-6.01 4.58-8.008 11.31-12.1 18.37 2.275-7.1 4.014-11.98 6.961-18.76"/><path fill="#cbcbce" d="m1362.78 1341.01 2.95 3.65c-.6 1.71-2.86 9.99-4.06 10.83-1.12-.56 1.15-11.81 1.11-14.48"/><path fill="#75777c" d="M490.843 1069.11c1.849 2.27 1.902 2.31 3.152 4.92-3.455-1.22-1.328 5.29-2.571 7.49-2.718-.09-1.106-10.45-.581-12.41"/><path fill="#edeaec" d="M516.26 1230.14c-1.417-6.6-1.035-6.49-1.392-13.26a673 673 0 0 1 3.041 8.64c.136.41.271.83.406 1.24l.55 1.6c-.868.59-1.736 1.19-2.605 1.78m-58.426 32.09c1.214-2.91 3.597-9.03 5.261-11.52.819.72 2.07 1.6 2.931 2.24-3.184 2.98-5.403 5.95-8.192 9.28"/><path fill="#cbcbce" d="M1371.14 1329.76c1.94-2.38 3.15-4.45 4.89-6.94.56 1.08.97 1.94 1.48 3.03-1.97 2.3-3.05 3.59-5.22 5.63z"/><path fill="#46474c" d="m482.746 1177.77 1.391.31c-1.372 3.02-1.608 9.9-3.609 9.94-1.926-1.11 1.442-7.69 1.847-9.01z"/><path fill="#cbcbce" d="M1418.14 1070.7c1.35-.19 2.35-.49 3.66-.84-1.21 2.44-1.98 8.1-2.56 8.62-.12-.02-.24-.04-.36-.05-.95-1.41-.76-6.15-.74-7.73"/><path fill="#adadb1" d="m502.308 1177.17 2.581-1.17.474 1.34c.236 1.26 1.486 6.45-.086 7.29l-.071-.08.197-.62-.883.04c-.552-1.39-.56-1.77-.713-3.27-.49-1.2-.937-2.37-1.499-3.53"/><path fill="#edeaec" d="m502.308 1177.17 2.581-1.17.474 1.34-1.556 3.36c-.49-1.2-.937-2.37-1.499-3.53m918.052-122.35c3.12-7.23 3.21-11.91 3.99.58z"/><path fill="#75777c" d="M485.043 1124.11c-.151 1.63-.276 4.11-1.51 5.24-1.153-.32-.621-8.01-.406-9.22.617 1.33 1.256 2.66 1.916 3.98"/><path fill="#8b8d91" d="M469.928 1399.88c.381-10.75 2.168-2.49 1.98 4.5q-.953-2.265-1.98-4.5m1095.122-233.83c-.32 1.21 2.73-13.17 3-4.63l.08 3.23-1.55 1.76z"/><path fill="#edeaec" d="M502.027 1340.34c.005 1.21.373 4.8-.658 5.79-1.365-.23-1.922-5.37-2.169-6.52zm103.496-30.39c3.727-8.91 2.987-.25 2.748 2.82z"/><path fill="#adadb1" d="M1552.44 1401.36c1.25-8.67 2.95-7.09 2.29.52-1.08-.34-1.17-.39-2.29-.52"/><path fill="#59585a" d="M616.71 1306.99c.049-1.18-.059-3.69.671-4.61 1.796-.33 1.552 8.77 1.702 10.24-.781-1.88-1.572-3.76-2.373-5.63"/><path fill="#adadb1" d="M685.965 1322.3c.032-1.73-.267-7.36.704-8.64.134 0 .269-.01.403-.01.99 1.18 1.042 2.89 1.284 4.34zm888.965-89.88c-1.81-5.47.67-8.1 2.2 1.02z"/><path fill="#edeaec" d="M1379.58 1312.51c1.06-2.2 3.46-9.6 4.59-3.88-.32 1.08-.66 2.07-1.01 3.14z"/><path fill="#8b8d91" d="M648.629 1320.13c-1.177-6.36.285-11.15 1.874-1.75z"/><path fill="#edeaec" d="M1587.02 1325.18c-.02-1.7-.25-6.99.29-8.5l.06-.04c.25.56.5 1.12.74 1.68l-.1-.26c.65 2.03 1.18 4.07 1.72 6.13z"/><path fill="#cbcbce" d="M1543.46 1322.27c.65-1.4 1.93-4.65 2.98-5.69l.18-.04c.81.89-.87 6.69-1.11 7.97z"/><path fill="#edeaec" d="M1290.01 1468.4c1.32.42 3.12.71 4.1 1.79l.05.24c-.56.83-5.43.76-6.18.79z"/><path fill="#75777c" d="M499.948 1155.73c.586-1.43.828-4.19 2.293-4.33l1.011.59c.301 1.35.069 2.33-.812 3.4l-.918 1.18z"/><path fill="#edeaec" d="M741.052 1407.5c-8.335-1.11-8.062-.71-1.855-3.44zm840.888-177.42c0-.54-.39-6.44.94-6.28 1.11.81 1.38 3.12 1.68 4.32-.87.65-1.75 1.3-2.62 1.96"/><path fill="#cbcbce" d="M654.028 1232.89c-.022-1.84-.146-6.22.529-7.9 1.057 2.79 1.185 2.45 1.813 6.11z"/><path fill="#edeaec" d="m464.07 1341.35 2.803-.96c-1.018 4.57-2.937 11.27-2.803.96"/><path fill="#8b8d91" d="M488.377 1101.97c.113-1.36.007-.93.539-2.24l.423-.17c.445.46 1.444 4.71 1.737 5.65l-2.001 1.84c-.258-1.69-.49-3.39-.698-5.08"/><path fill="#edeaec" d="m660.262 1353.37-.298 1.86c-1.611 3.67-1.791.69-3.302-2.55z"/><path fill="#8b8d91" d="M1404.83 1249.52c-.13 1.41-.14 4.94-1.23 5.96l-.11.01c-.75-.92-.8-4.1-.91-5.27z"/><path fill="#edeaec" d="m466.868 1258.11 2.785.49c-1.149 3.51-1.502 6.44-2.669 1.45z"/><path fill="#cbcbce" d="m1403.93 1158.84 2.4 2.59-.14.59c-.17.78-.27 2.24-1.23 2.53-1.33-.77-1-4.45-1.03-5.71"/><path fill="#adadb1" d="M1405.33 1127.91c.5-.79 1.14-2.19 2.07-2.42.89.42.88 6.08.97 7.25z"/><path fill="#edeaec" d="M639.901 1359.35c-.03.84.262 2.82-.866 3.21-1.197-.62-1.63-2.94-2.052-4.06zm-18.711-6.12 2.479-.8c-.219 1.03-.545 4.48-1.706 5.04-1.355-.14-.798-3.65-.773-4.24m-81.753-9.64 3.014-.83c.057 1.04.38 2.71-.192 3.65-.825.3-2.334-2.21-2.822-2.82M631.712 1076c1.061 1.35 2.114 2.72 3.157 4.09-.806 1.03-1.199 1.93-2.301 2.36-.862-.64-.775-5.33-.856-6.45"/><path fill="#adadb1" d="M459.034 1397.16c.062-1.04-.058-2.66.648-3.54h.319c1.199 1.06 1.037 3.08 1.107 4.49z"/><path fill="#46474c" d="m467.533 1270.25.697-.09c.408.35.299 1.12.324 1.6-.565.16-.678.3-1.095.15-.097-.56-.009-1.06.074-1.66"/><path fill="#8b8d91" d="M531.723 1312.08c-.388-1.42-.933-2.87-.466-4.31 1.212-.7 2.025 3.32 2.244 4.02z"/><path fill="#edeaec" d="m489.622 1162.75.089-.46c.741-4.08 1.765-5.84 2.337-.45z"/><path fill="#1c1b1c" d="M764.517 1415.19c.611-.11.618-.22 1.001-.01.306.54-.022 2.17-.083 2.68-.479.07-.586.16-.913-.03-.311-.55-.051-2.11-.005-2.64"/><path fill="#adadb1" d="M1604.14 1316.9c.01-.77-.26-3.1.68-3.38.95.77.91 2.47 1.02 3.52zm-568.46.53c-.84.03-1.82.27-2.51-.28-.02-1.13 2.6-.88 2.99-.97z"/><path fill="#59585a" d="m512.828 1071.92.203 1.64c.114.87 2.293 6.76 1.037 6.75-1.34-.01-3.212-4.05-3.876-5.24z"/><path fill="#46474c" d="m1403.44 1009.94 1.95 4.74c-.3.55-.59 1.09-.89 1.64.29-.19-1.49 2.99-1.93 2.88-1.43-.34.68-8.11.87-9.26"/><path fill="#59585a" d="M726.343 1537.13c2.478-1.42 5.13-2.98 7.667-4.25l3.151-1.55 2.211 2.15c-3.999.86-9.045 2.47-13.029 3.65m-58.303-511.25c.825 3.02 1.544 5.68 2.481 8.71l-1.895.99c-.737-2.3-.8-2.69-1.908-4.77.427-1.65.867-3.29 1.322-4.93"/><path fill="#8b8d91" d="M279.152 1488.92c4.238-3.07 6.633-4.88 11.551-6.84l.712 1.25c-3.854 2.13-8.195 3.8-12.263 5.59"/><path fill="#59585a" d="M1255.93 1541.93c.77.35 4.21 1.63 4.55 2.67-.44.89-2.22.27-2.91.1l-4.68-1.1c-.7-.17-1.41-.34-2.12-.51 1.72-.41 3.44-.79 5.16-1.16m217.45-87.05c2.31 1.05 4.61 2.15 6.98 3.07l-.57 1.38c-2.71-.98-5.24-2.12-7.87-3.06z"/><path fill="#8b8d91" d="M1480.36 1457.95c1.25.31 6.36 2.24 6.17 3.72-1.22.97-5.56-1.73-6.74-2.34z"/><path fill="#46474c" d="m476.466 1075.3 4.255-1.01c-.877 1.09-4.06 5.68-5.076 5.97l-.134-.08c-.508-.91.662-3.88.955-4.88"/><path fill="#75777c" d="M621.231 1478.24c-1.119.24-9.08 2.21-8.865.65.569-.77 3.341-1.53 4.308-1.93 1.522.42 3.041.84 4.557 1.28"/><path fill="#46474c" d="m606.38 1168.22 1.93 1.31c-4.031 8.01-4.173 4.96-1.93-1.31"/><path fill="#59585a" d="M908.438 1554.15c-2.062.44-6.584 1.67-8.731 1.25-.537-.11 1.085-1.48 1.245-1.38.077.05 2.437-1.25 2-1.02 1.834.36 3.662.74 5.486 1.15"/><path fill="#adadb1" d="M1762.44 1482.26c6.68 2.66 7.46 5.86-1.49.83z"/><path fill="#59585a" d="M563.48 1518.22a71 71 0 0 1 5.76-3.36l1.049 1.51-1.552.81c-1.392.75-2.248 1.22-3.729 1.96z"/><path fill="#adadb1" d="M1424.94 910.149c.08-1.189.08-6.039 1.47-6.626.77.347 1.17 3.676 1.35 4.519z"/><path fill="#75777c" d="M575.257 1462.15c1.739-.82 2.95-1.38 4.765-2.08l2.298 1.29a430 430 0 0 0-6.091 2.02zm236.207 80.37c-5.679 1.06-9.088 2.13-2.551-2.16z"/><path fill="#8b8d91" d="M565.008 1519.14c-1.306.81-2.556 1.74-4.003 2.29-.249.09-1.641.41-1.316-.33.615-1.4 2.589-2.23 3.791-2.88z"/><path fill="#adadb1" d="M670.521 1034.59c.331.86 1.387 2.68.548 3.43-1.226-.01-1.882-1.59-2.443-2.44z"/><path fill="#8b8d91" d="M495.695 992.713c-.068-.871-.382-2.03.197-2.807l.222-.023c.702.669.408 2.256.403 2.938z"/><path fill="#adadb1" d="M576.229 1463.38c-.864.48-1.304 1.01-2.223.54-.228-1.15.316-.89 1.251-1.77z"/><metadata><recraft-signature>{&quot;signed_by&quot;: &quot;recraft&quot;, &quot;signature_b64&quot;: &quot;eedbIVroslPv4FoSgVUYMLkpurqBch4QVArrPrWyaFILTYriOk1T9WGfg30KY/azaLpbsmL0tELbIRnCG1WTBw==&quot;, &quot;signing_algo&quot;: &quot;Ed25519&quot;, &quot;generation_timestamp&quot;: 1777253724, &quot;identifier&quot;: &quot;b8499e03-22de-433a-a0c6-cb878645e357&quot;}</recraft-signature></metadata></svg>