<svg xmlns="http://www.w3.org/2000/svg" width="1024" height="1024" preserveAspectRatio="none" style="display:block" viewBox="0 0 2048 2048"><defs><linearGradient id="d" x1="699.966" x2="882.819" y1="1170.78" y2="985.241" gradientUnits="userSpaceOnUse"><stop class="stop0" offset="0"/><stop class="stop1" offset="1" stop-color="#1a1b24"/></linearGradient><linearGradient id="c" x1="999.43" x2="1016.07" y1="1127.67" y2="1144.85" gradientUnits="userSpaceOnUse"><stop class="stop0" offset="0" stop-color="#5e6a75"/><stop class="stop1" offset="1" stop-color="#848a9e"/></linearGradient><linearGradient id="b" x1="906.047" x2="1023.59" y1="1021.37" y2="888.804" gradientUnits="userSpaceOnUse"><stop class="stop0" offset="0" stop-color="#000100"/><stop class="stop1" offset="1" stop-color="#191b25"/></linearGradient><linearGradient id="a" x1="171.53" x2="145.47" y1="1030.77" y2="1001.23" gradientUnits="userSpaceOnUse"><stop class="stop0" offset="0" stop-color="#161412"/><stop class="stop1" offset="1" stop-color="#21242f"/></linearGradient></defs><path fill="#151821" d="M75.558 999.765c.674 3.305-.102 10.255-.136 14.385-.08 9.8.108 17.84 1.06 27.65 13.088-1.43 22.254-2.32 33.279 6.45a49 49 0 0 1 2.825 2.39c7.866.31 14.487.43 22.247 1.7 6.706 7.1 9.294 11.51 19.773 10.15l1.148 2.61c2.188-.18 3.911-.22 6.074-.65l4.455-.04c2.941-.69 5.343-1.33 8.243-2.18 3.645.38 7.176.7 10.797 1.28 6.061 10.43 10.509 18.51 18.885 27.37 5.266.05 16.663-1.09 20.498 2.51 2.038 1.91 4.142 6.92 7.204 6.8 10.468-.41 17.411 8.92 26.213 13.78 4.212 2.32 9.397 4.74 13.624 7.2-5.813.32-17.918.72-23.4 1.69l-14.908-1.08c-6.582-1.19-30.977.73-38.703.78-64.488.41-130.349-2.77-194.736-.51v-106.41c4.585-.56 9.786-.45 14.45-.5 9.899 6.93 10.962 7.64 22.738 10.01 5.676 20.15 12.463 14.69 31 14.93.129-8.63.105-33.61 1.651-40.872q2.857.3 5.719.557"/><path fill="#717b8a" d="M0 1035.63c11.643 3.56 14.164 7.38 24.134 13.47 3.793 2.31 14.435 3.26 18.195 5.96 10.912 7.82 15.194 10.66 27.839 14.82 3.748 4.44 6.642 8.65 11.653 11.43 5.569.34 9.191-.34 16.173-.21 28.595.53 50.109 13.3 72.416 29.77.206.3.413.59.619.89-5.386 1.1-11.314-1.98-16.17-4.3l-1.134.43c-7.203 2.74-13.664 9.03-22.407 6.62-12.888-3.54-23.414-14.61-36.447-18.41-12.19-3.73-14.734 3.98-24.697 2.05-5.352-1.04-8.9-6.55-13.981-6.78-1.784 2.25-1.363.98-1.07 4.02 3.769 4.07 9.556 7.53 14.44 10.21-7.797 1.12-13.226 2.11-20.854-.82-4.707-1.8-15.911-5.75-17.72-10.41 4.774-5.41 14.343-3.65 19.34-7.21-8.236-6.75-40.727 0-50.329-2.63z"/><path fill="#151821" d="M0 1048.99c6.9 5.52 16.186 13.59 24.474 16.46 1.294.45 4.37 1.08 4.605 2.6-1.284 2.97-16.132-.59-18.633-1.15-3.574 1.15-7.04 2.65-10.446 3.68z"/><path fill="#717b8a" d="M210.736 1100.46c16.088 5.25 17.793 8.8 31.89 15.7-.372.84-.706 2.03-.98 2.9-14.468-.06-17.184-.79-29.728-6.87-5.628.92-17.038 4.56-21.853-1.28-1.491-1.81 5.983-4.26 7.357-4.91 4.256-2.02 8.917-3.69 13.314-5.54"/><path fill="#6b7786" d="m161.828 1064.45 4.455-.04c5.898.49 11.461.73 17.308 1.18 6.207 12.91 6.521 12.91 15.08 24.2-3.831-.77-6.745-1.5-10.608-2.08l-1.805-.28c-2.222-3.13-13.58-16.98-16.443-18.98-.848-.01-1.786 1.35-2.424 1.57-3.2 1.1-8.842 1.62-12.418 1.84-7.378.46-4.018-4.69.781-6.76 2.188-.18 3.911-.22 6.074-.65"/><path fill="#181a20" d="M242.175 1120.1c2.189-.16 4.377-.34 6.563-.53l-.391 3.29-14.908-1.08c3.159-.62 5.694-.64 8.736-1.68"/><path fill="#6b7786" d="M242.626 1116.16c2.482 1.2 3.98 1.71 6.112 3.41-2.186.19-4.374.37-6.563.53l-.529-1.04c.274-.87.608-2.06.98-2.9"/><path fill="#717b8a" d="M81.434 1059.43c8.254.43 15.69-.11 23.959-.33l3.063 4.01c3.576 4.76 10.417 12.32 11.974 17.73-3.613.05-9.759.14-12.825-2.21-8.376-6.43-16.982 1.5-22.09-9.81-1.786-3.96-3.699-5.09-4.081-9.39"/><path fill="#2c2d35" d="m125.266 1054.32 1.235-.63-.89 1.11c-.715.26-1.431.53-2.146.79.233-.33 2.026-1.42 1.801-1.27"/><path fill="#151821" d="M1971.83 1000.43c3.49.1 3.37.19 6.41-1.484.98 14.644.3 26.754.68 41.004 7.72-.96 12.93-1.04 20.76-1.11 1.63-2.56 5.42-8.79 7.72-10.3 11.83-7.77 26.58-13.96 40.6-10.58v103.14c-57.36 1.15-114.67 1.45-172.02.81-4.35-.05-25.79 1.33-28.72.44-3.58-3.81-7.96-3.99-6.24-9.99-6.02-1.41-21.08 4.7-28.89 6.26-1.92.17-3.85.31-5.79.43-1.8-.83-3.26-1.54-5.13-2.2l-2.89 1.77c-.99 2.78-1.73 1.86-4.69 2.86-5.42-.1-12.72.16-17.74-1.32l-.23-1.31c7.21-5.57 27.04-16.28 36.2-18.09l8.04-8.25c6.57-.89 12.13-1.36 18.74-1.83 3.86-2.51 4.64-2.98 7.84-6.2l2.03 1.45c9.17-8.33 6.6-10.93 13.58-20.18 4.98-.61 11.46-1.43 16.41-.98 4.14.38 5.67 1.26 10.1 1.22 3.25-2.03 3.4-1.35 6.59-2.63 9.75-2.61 12.11-9.8 21.47-12.18 2.34-.59 13.81-1.13 16.68-1.28 13.85-10.91 21.69-9.32 38.51-8.99.1-4.3-.34-39.92-.02-40.48"/><path fill="#717b8a" d="M2048 1036v46.98c-3.16 2.09-4.38 3.06-8.13 2.32-16.07-3.17-27.43-2.97-43.45-1.93 6.66 6.93 10.83 7.98 19.39 12.53-3.83 6.13-27.73 11.54-35.98 8.95l-.47-1.38c4.85-6.49 9.02-5.85 15.48-14.82-7.6 2.43-11.68 5.44-18.44 9.74-9.52-.39-13.27-1.75-22.05-4.75-16.6 11.74-24.23 14.45-43.34 21.13-24.78-10-15.35-4.43-37.13-2.1l-.43-.82c6.18-7.61 41.12-24.52 51.24-27.07 16.45-4.14 36.23 4.01 48.47-10.66 6.48-7.76 25.13-13.94 34.58-19.33 3.8-2.17 12.46-3.91 16.37-6.61 11.1-8.27 9.57-11.58 23.89-12.18"/><path fill="#151821" d="M2048 1062.47c-1.87 1.97-6.55 7.42-8.98 5.73-5.63-3.91-24.59 10.4-25.59 4.31-.53 1.32 32.6-21.12 34.57-22.22z"/><path fill="#6b7786" d="M1833.19 1099.58c4 .68 8 1.43 11.98 2.24 7.59 9.94 11.21 15.35-4.15 10.54-6.02-1.41-21.08 4.7-28.89 6.26-1.92.17-3.85.31-5.79.43-1.8-.83-3.26-1.54-5.13-2.2 11.04-5.19 21.18-12.23 31.98-17.27m28.9-33.83c4.98-.61 11.46-1.43 16.41-.98 4.14.38 5.67 1.26 10.1 1.22 4.19.73 11.6 1.14 3.37 6.26-2.21 1.37-9.45-2.38-11.96-3.38-6.9 4.95-12.64 10.49-19.5 15.64-1.95 1.47-14.23 7.23-12 1.42 9.17-8.33 6.6-10.93 13.58-20.18"/><path fill="#717b8a" d="M1956.4 1060.55c.77-.09 14.07-2.44 9.06 2.33-3.76 3.58-7.56 12.55-12.04 10.42-2.16-1.03-7.75.94-9.43 2.22-4.51 3.43-8.67 3.9-14.37 4.95-14.39 1.75-7.46-2.43-.04-8.55 3.81-3.14 8.34-7.67 12.22-10.19l1.26-.85c3.72.05 10.49.79 13.34-.33"/><path fill="#181a20" d="M67.194 935.237c.539-1.395 2.725-10.256 5.244-9.046 3.875 1.862 2.87 7.616 7.512 11.858 6.835 6.244 8.483 6.343 16.807 7.509.805.109.822 2.321-.346 2.857-7.22 5.298-17.578-7.02-20.407-6.932-6.434.203 8.531 14.561 8.994 14.972-.591-.061 22.285 1.28 13.126 5.59-5.744 2.702-17.039-2.861-22.814-6.789.548 3.149.902 7.441 2.32 10.356 3.409 7.005 12.504 11.255 19.87 12.115 3.096.158 7.117-1.463 10.099-.218 2.23.93 3.058 3.955-.107 4.63-10.144 2.163-19.633-.891-28.1-6.54-.698-.465-2.236-1.941-3.103-2.141-1.813 1.468 1.383 11.656 1.956 13.855-.467 1.341-.94 2.055-1.634 3.304-.92 3.715-.772 5.329-1.053 9.148a378 378 0 0 1-5.719-.557c-.11-1.189.087-4.635-1.284-5.101-1.847 1.021-6.38 6.143-10.56 8.643-4.887 2.92-22.807 3.46-19.532-2.62 1.18-.425 8.06 1.36 12.521.52 5.858-1.096 19.534-11.898 17.67-18.098-.83-.421-1.678.412-2.226 1.062-4.434 5.257-11.138 8.545-17.925 9.394-4.643.581-11.18 2.399-13.767-2.658.968-4.07 19.437 1.296 25.187-7.547 1.095-1.685 12.769-11.107 8.461-16.035.52.129-27.415 16.266-29.078 7.609a1.54 1.54 0 0 1 .27-1.222c.513-.698 19.597-3.681 22.066-8.533.668-1.314 7.435-4.378 7.738-8.075.294-3.603.379-6.032-3.36-3.099-4.669 4.615-8.953 6.821-15.542 7.841-6.743.898-4.375-5.59-1.004-5.187 5.864.702 26.03-14.275 18.563-14.585-.91-.038-12.492 8.547-16.073 7.664-3.725-.918-3.09-2.684-.41-4.08 5.622-2.129 10.954-6.153 15.64-9.864M1883.1 970.075c4.69 7.411 8.77 14.877 18.38 16.08 2.13.267 9.67 1.577 3.17 4.278-5.22 2.172-10.38-2.302-14.58-4.748-3.19-1.864-2.57 3.629-1.14 4.789 3.11 2.386 10.82 7.519 15.08 6.783 4.96-.857 5.75 3.213 2.45 4.393-3.02 1.1-11.71-.82-14.47-2.625-.51-.339-3.75-2.195-4.52-1.772-3.19 6.457 18.49 17.807 24.51 14.467 4.54-1.78 7.65 1.38 2.73 4.52-5.48 3.5-25.49-5.46-24.77-5.65-5.03 5.15 16.88 14.62 20.06 13.64 4.3-1.32 14.08-.33 6.55 4.73-4.49 3.01-19.18-2.66-23.47-5.18l-3.03-1.8c.11 12.88-.25 27 .16 39.87.03.88 4.42 1.4 4.98 1.51-3.19 1.28-3.34.6-6.59 2.63-4.43.04-5.96-.84-10.1-1.22-4.95-.45-11.43.37-16.41.98l-.35-2.57c8.11-.96 13.77-1.28 22.01-1.42.02-14.28.74-27.55.16-41.92-4.57 2.95-18.78 13.66-21.27 4.66-.53-1.9 4.9-1.62 5.79-1.85 5.12-1.32 10.9-4.68 14.31-8.71.79-.94.81-5.74-.4-5.47-4.41 1-9.15 7.08-13.8 8.66-1.59.61-8.91 3.29-10.26 2.43-5.41-3.46-1.08-4.16 1.22-4.69 8.21-1.91 17.05-7.05 22.35-13.47 1.11-1.34 2.04-6.629-.93-4.591-3.2 4.651-15.72 10.411-20.73 7.901-3.75-1.89 1.34-7.224 5.32-4.847 3.86.054 13.42-6.071 14.72-8.713 5.84-11.916-4.91.491-8.23.778-2.13.183-7.84-.267-9.43-2.038-2.24-2.486 2.23-3.554 3.94-3.065 6.38 1.644 12.17-3.755 14.17-9.422.85-2.429 1.65-4.872 2.42-7.328m80.34-22.274c-3.3.224-8.8 1.008-11.94.446-.88-.397-.63-2.528-.08-2.934 3.13-2.311 9.11-.637 12.6-3.226 2.69-1.933 7.12-8.836 7.68-12.127.45-5.734 6.29-4.1 6.27.522-.03 7.991 6.95 11.794 13.58 14.272-.43-.162 11.96 2.53 8.54 4.788-2.56 1.684-12.22-1.206-15.2-2.479l-2.06 2.094c7.76 6.001 7.32 6.027 17.7 6.572 4.3.225 4.61 7.602-7.54 4.291-10.5-2.863-16.11-10.724-13.66 3.448.2 2.004.49 3.008.09 4.923-1.66 9.771-1.89 7.604 2.76 13.74-1.29 1.284-2.14 2.262-3.31 3.631.11 1.308.21 2.249.4 3.536-1.17 3.14.67 2.616-1.07 4.471-.08 1.675 0 3.484.04 5.177-3.04 1.674-2.92 1.584-6.41 1.484-.12-1.357-.11-7.039-1.55-7.939-.63-.391-16.79 8.109-20.26 8.539-1.16.14-2.33.24-3.49.41-.52.07-1 .18-1.54.2-1.11.03-2.45-.24-3.2-1.13-.73-.855-1.01-1.668-1-2.782 1.98-2.72 16.02 5.092 31.35-16.221.15-4.589.09-7.382.67-11.953-6.59 5.228-14.72 11.528-23.41 13.001-1.81 1.265-11.24-2.332-8.18-5.062 1.83-1.625 11.38.552 16.28-2.445 5.67-3.465 11.81-6.267 14.79-13.027.87-1.963 1.25-5.463.7-7.401-.53-1.15-5.38 2.904-6.79 3.685-5.21 2.973-8.69 3.263-14.69 2.949-2.08-.109-5.68 1.163-4.08-3.878.14-.441 2.08-.418 2.53-.353 7.54 1.034 16.3-2.437 20.85-8.624 1.07-1.026 3.42-6.771 1.79-7.78-.51-.316-7.96 6.284-9.16 7.182"/><path fill="#e4e2e7" d="M1982.83 949.157c.01.002-4.67-5.154-2.97-5.357 1.3-.157 3.97 2.348 5.03 3.263z"/><path fill="#181a20" d="M155.564 1017.57c3.579.82 3.98.83 7.72.88.382 2.2.067 2.21-1.143 4.38.212 6.67-1.929 35.15-.091 38.47-.428.77-1.581 1.89-1.644 2.26.28.49.941.65 1.422.89-2.163.43-3.886.47-6.074.65l-1.148-2.61c.56-4.64.942-9.31 1.146-13.99.442-8.8.62-17.18 1.153-26.02-3.521 2.05-10.304 6.47-14.353 6.45-3.05-.01-18.424 1.61-18.817-2.68.821-1.77 1.866-1.92 3.688-1.51 12.463 2.8 17.942-1.06 28.141-7.17"/><path fill="url(#a)" d="m159.896 997.97 1.353.352c3.006 6.628 3.233 5.998 9.368 10.328 2.156 2.33 18.216 7.08 18.506 8.15 1.433 6.17-7.096 1.06-9.062.7-4.375-.79-13.759-8.44-17.03-7.98-1.223.18-.715 6.59.253 8.93-3.74-.05-4.141-.06-7.72-.88.771-1.44 2.66-5.74.875-7.08l.028-.01c-2.506 1.12-5.264 3.09-8.072 4.18-1.805 1.21-17.819 2.5-18.301 1.8-4.189-6.09 16.853-3.39 22.307-9.7 4.35-5.04 4.08-.54 7.495-8.79"/><path fill="#181a20" d="m160.225 982.863 2.08-.043 1.176.484-.033 1.063c-.248 9.515 5.055 12.951 14.561 14.697 5.634 1.036 8.391 6.496 3.412 7.416-6.172-2.44-13.542-5.9-20.172-8.158l-1.353-.352c-6.219-.013-11.237 4.34-16.404 3.38-9.611-1.791 4.893-5.042 5.978-5.482 7.695-3.119 8.145-6.072 10.755-13.005M1812.13 1118.62c7.81-1.56 22.87-7.67 28.89-6.26-1.72 6 2.66 6.18 6.24 9.99-8.51.1-22.35-.08-30.82-.52-1.95-1.66-2.22-2-4.31-3.21m170.05-136.489c10.18 5.622 15.75 8.031 27.34 6.86 1.49-.15 3.22-.184 3.56 1.502a3.76 3.76 0 0 1-.63 2.945c-1.73 2.43-14.88.203-17.93-.547-5.36-1.318-10.78-4.516-15.65-7.129 1.17-1.369 2.02-2.347 3.31-3.631M78.245 987.313c6.555 5.586 15.385 9.908 24.254 9.663 2.997-.083 7.848-1.983 10.113-1.698 6.441 6.162-14.08 5.972-16.113 5.632-9.688-1.622-12.903-4.284-19.888-10.293.695-1.249 1.167-1.963 1.634-3.304"/><path fill="#151821" d="M160.225 982.863c-3.788 1.684-12.673 8.004-17.192 5.683-4.94-2.571-.035-5.258 2.947-4.81 11.048 1.659 11.072-19.087 17.423-8.623l.189 1.898c.552 5.203 1.464 1.689-1.287 5.809z"/><path fill="#080809" d="M1979.27 989.298c8.67 7.383 12.85 9.291 24.31 9.614 2.25.064 3.28 3.408 1.35 3.708-12.21 1.87-18.62-1.59-26.73-8.851 1.74-1.855-.1-1.331 1.07-4.471"/><path fill="#181a20" d="M1979.33 963.468c8.92 5.295 16.06 7.621 26.13 7.845.72.016 1.61 1 1.99 1.646-2.48 6.124-23.14-.882-28.03-4.568.4-1.915.11-2.919-.09-4.923"/><path fill="#080809" d="M1846.48 1084.48c2.54-4.77 9.6-18.02 13.87-20.46l1.39-.84.35 2.57c-6.98 9.25-4.41 11.85-13.58 20.18zm-1683.196-66.03c1.055.02 15.418 4.36 15.742 4.61 12.865 10.02-15.653-.07-16.885-.23 1.21-2.17 1.525-2.18 1.143-4.38"/><path fill="#181a20" d="M163.403 975.113c2.84 3.87 5.147 8.694 9.004 11.429 1.745 1.238 8.503.658 8.48 3.449-.023 2.805-4.863 2.44-6.406 1.974-4.642-1.402-7.924-5.345-11-8.661l-1.176-.484c2.751-4.12 1.839-.606 1.287-5.809z"/><path fill="#080809" d="M1801.21 1116.85c1.87.66 3.33 1.37 5.13 2.2 1.94-.12 3.87-.26 5.79-.43 2.09 1.21 2.36 1.55 4.31 3.21-8.12 0-14.65.43-22.81-.35 2.96-1 3.7-.08 4.69-2.86z"/><path fill="#464c58" d="M1801.21 1116.85c1.87.66 3.33 1.37 5.13 2.2-3.25.38-5.15 1-8.02-.43z"/><path fill="#181a20" d="M162.05 1061.3c4.627 0 7.906.5 12.476.93-2.9.85-5.302 1.49-8.243 2.18l-4.455.04c-.481-.24-1.142-.4-1.422-.89.063-.37 1.216-1.49 1.644-2.26"/><path fill="#151821" d="M1227.94 652.9c6.71-19.659 24.91-10.436 25.41-3.391 1.98 28.079-6.4 59.668-8.55 87.825-2.87 36.384-6.4 71.895-9.61 107.801 34.24 5.548 97.58 4.543 112.96 42.444-4.35 20.667-7.44 18.389-27.45 19.545-4.33 12.976-8.51 19.387-10.1 33.322-2.77 24.196 11.02 36.691 9.4 60.974-3.54 52.99-11.57 105.64-12.22 158.71-.32 26.06-3.79 52.93-5.92 78.87-1.91 25.17-3.16 50.6-5 75.84-8.42.21-17.26.29-25.63.83-.43-33.38-.77-70.3-.49-103.69-.87-3.19-.68-15.02-.71-18.91-18.93-19.31-31.95-41-48.58-58.04-2.94 26.18-3.72 51.37-6.28 77.3-5.78-.21-15.25.31-19.3-3.28-2.35-7.5-.85-66.28-.76-78.02-29.07-.87-63.38 2.52-93.11 1.94-19.69-.38-39.43-2.16-59.01-2.14-.06 15.77 2.42 67.68-.44 79.76-4.28 3.6-12.75 2.44-18.51 2.27-5.51-28.61-1.59-49.72-4.66-76.36-7.63 14.65-34.963 54.03-35.86 67.25-2.078 37.55-1.073 72.56-2.539 109.15-7.562 1.52-17.69 1.84-25.615 2.37-1.333-36.88-3.418-74.58-3.474-111.41-.043-29.09 2.483-59.41 2.593-88.64.062-16.45-1.869-33.56-1.603-50.09-.827-6.83-3.116-79.785-1.693-83.704 11.891-32.729 13.424-41.66 8.52-77.471-8.898-.074-15.992 2.488-23.51.435-2.493-2.657-1.727-1.635-1.905-6.292 1.758-4.033 1.569-6.716 1.804-11.143l-.034-1.749c-.196-4.95 3.895-3.998 8.429-3.28 18.842 2.985 24.979-7.861 21.597 12.257l1.883-.367c14.702-11.773 10.769-15.706 31.332-27.053 9.145-4 18.525-8.628 28.395-8.886l-.58 1.32c.48 2.535.9 5.079 1.27 7.631l2.74-1.128c.83-5.844-5.22-47.05-5.8-55.999-1.23-18.641-3.27-39.717-5.56-58.261-.07-10.208-3.44-37.007-4.46-49.026a102.5 102.5 0 0 1 23.1-3.56l.13-2.99c11.44-.91 22.88-1.908 34.31-2.996 2.28.059 4.55.073 6.83.041l.52-.869c6.36.127 16.37-.749 21.97-.005 2.79 1.796 3.11.93 5.63 2.122 6.06.897 14.57 1.273 20.67.657 4.02 2.528 2.49 9.768 2.39 14.494l3.05 1.599c.07-3.5.08-6.978.36-10.468 4.59-.558 9.06-1.26 13.63-1.833.71-.057.51-.101.77.005-.33-.728.32 8.279.38 8.747.92-4.383.42-8.454 2.18-12.2 6.56.573 19.67.106 23.36 3.649l.16 1.984 2.04.315c3.78-1.088 10.55.611 12.11 4.701l1.16-2.328c1.03 3.069.89 3.763 1.22 6.977.28-4.226.12-7.059 1.87-10.866 4.31-2.778 22.87 1.116 28.83 2.172l1.19 2.117 2.79-3.014c1.19-11.197 2.49-22.385 3.17-33.624-.23-2.853-.42-5.711-.55-8.57z"/><path fill="#080809" d="M1227.94 652.9c6.71-19.659 24.91-10.436 25.41-3.391 1.98 28.079-6.4 59.668-8.55 87.825-2.87 36.384-6.4 71.895-9.61 107.801 34.24 5.548 97.58 4.543 112.96 42.444-4.35 20.667-7.44 18.389-27.45 19.545-4.33 12.976-8.51 19.387-10.1 33.322-2.77 24.196 11.02 36.691 9.4 60.974-3.54 52.99-11.57 105.64-12.22 158.71-.32 26.06-3.79 52.93-5.92 78.87-1.91 25.17-3.16 50.6-5 75.84-8.42.21-17.26.29-25.63.83-.43-33.38-.77-70.3-.49-103.69l3.11-.92.16-47.91c-.4-23.36 1.41-54.06 3.78-77.12l2.71-.3 1.46.18 1.1-1.29c2.65-17.27 3.28-36.14 4.57-53.58 1.03-13.98 3.83-22.1 2.35-36.425l-3.12 1.337c-10.95 1.817-23.87 1.279-35.12 1.599-30.74.872-61.17-.602-91.8-1.391l-171.515-3.288-1.284-2 1.869-.118c5.889-.407 15.84.931 19.43-3.067l1.24-1.209c1.41 1.776 1.41 1.612 1.52 3.86l.79-.219c5.58-7.735 25.2-31.792 33.5-33.518l2.54-2.73c-3.05-.165-4.48.053-7.04-1.612-2.23-3.51-1.49-8.917-1.41-13.325 7.88.155 79.35 1.035 84.16-.634-1.07-.374-.47-.074-1.66-1.13l4.31-2.013-1.87-.578c1.28-19.224-.43-39.11.77-58.538 3.4-54.865 6.45-110.204 8.62-165.134.07-3.5.08-6.978.36-10.468 4.59-.558 9.06-1.26 13.63-1.833.71-.057.51-.101.77.005-.33-.728.32 8.279.38 8.747.92-4.383.42-8.454 2.18-12.2 6.56.573 19.67.106 23.36 3.649l.16 1.984 2.04.315c3.78-1.088 10.55.611 12.11 4.701l1.16-2.328c1.03 3.069.89 3.763 1.22 6.977.28-4.226.12-7.059 1.87-10.866 4.31-2.778 22.87 1.116 28.83 2.172l1.19 2.117 2.79-3.014c1.19-11.197 2.49-22.385 3.17-33.624-.23-2.853-.42-5.711-.55-8.57z"/><path fill="#717b8a" d="M1295.4 902.794c.38-4.623 14.12-.33 16.71 2.328-6.09 15.091-13.89 37.607-6.75 53.229 5.6 12.263 10.72 19.256 11.18 33.691.4 12.508-1.53 24.878-2.27 37.238-1.86 31.16-6.52 62.4-9.22 93.25-2.09 23.82-1.03 51.17-3.1 75.74-1.46 17.4-2.67 35.08-4.11 52.51-1.58 19.07-1.92 42.13-4.94 60.97-6.17.35-12.48.63-18.62 1.07.05-30.75 1.17-72.02-.43-101.76l.16-47.91c-.4-23.36 1.41-54.06 3.78-77.12l2.71-.3 1.46.18 1.1-1.29c2.65-17.27 3.28-36.14 4.57-53.58 1.03-13.98 3.83-22.1 2.35-36.425-.53-5.526-5.78-19.191-6.77-25.606-3.42-22.329 4.29-46.136 12.19-66.215"/><path fill="#181a20" d="M1295.4 902.794c.38-4.623 14.12-.33 16.71 2.328-1.71-.266-7.79-1.89-8.1-1.261-2.18 4.496-6.11 16.131-7.91 20.655-.06-7.766.43-13.564 1.54-21.165.05-.332-1.3-.453-1.34-.458z"/><path fill="#717b8a" d="M1045.49 956.601c27.52 3.406 53.81-.2 80.71.776 24.78.899 54.25-1.202 78.31.581 11.82 12.039 34.91 28.769 50.27 35.994-64.6 5.266-139.22-5.33-205.06-.456-12.39.918-23.72-5.732-37.73-3.377 5.58-7.735 25.2-31.792 33.5-33.518m184.38-301.657c2.61-6.165 8.18-12.202 15.27-9.996 6.31 1.963 5.69 16.786 5.27 21.793-1.94 22.869-5.94 45.464-8.44 68.271a4090 4090 0 0 0-11.13 127.986c-2.52 31.186-6.25 62.017-6.58 93.343l-23.47-2.188c1.4-31.247 4.74-63.914 7.94-95.047 2.32-22.491 1.84-47.035 4.73-69.053 3.95-30.004 8.62-59.077 12.5-89.188 1.19-11.197 2.49-22.385 3.17-33.624-.23-2.853-.42-5.711-.55-8.57.27-1.406.76-2.399 1.29-3.727"/><path fill="#464c58" d="M1228.58 658.671c.27-1.406.76-2.399 1.29-3.727.04 5.01.1 7.463-.74 12.297-.23-2.853-.42-5.711-.55-8.57"/><path fill="#fbfbfa" d="M1191.28 710.456c.28-4.226.12-7.059 1.87-10.866 4.31-2.778 22.87 1.116 28.83 2.172l1.19 2.117c-1.71 7.534-3.84 19.92-4.65 27.735-2.42 23.384-8.39 49.653-9.59 72.842-2.29 44.398-7.95 89.127-10.95 133.266-9.73-.746-19.47-1.282-29.17-2.112 7.16-54.913 9.9-109.91 16.42-164.88 2.36-19.89 4.3-40.31 6.05-60.274m-40.05-15.298c6.56.573 19.67.106 23.36 3.649l.16 1.984c-5.07 23.48-7.11 66.329-8.98 90.969l-11.79 143.167-14.81-.02c-.19-19.312 1.3-38.423 2.39-57.696l4.34-78.27c1.05-19.174.78-38.784 1.2-57.955.26-11.656 2.19-21.416 1.95-33.628.92-4.383.42-8.454 2.18-12.2"/><path fill="#717b8a" d="M1134.27 700.439c4.59-.558 9.06-1.26 13.63-1.833-.44 4.468-.99 9.195-1.23 13.654-.41.8-.31.96-.37 1.897-5.18 56.239-4.37 114.896-8.68 171.472-.53 6.927-1.12 45.446-2.38 48.636-3.63 1.139-5.11.919-8.85.892l-1.87-.578c1.28-19.224-.43-39.11.77-58.538 3.4-54.865 6.45-110.204 8.62-165.134.07-3.5.08-6.978.36-10.468"/><path fill="#6b7786" d="M1176.79 701.106c3.78-1.088 10.55.611 12.11 4.701-2.2 18.047-3.5 36.647-5.37 54.809l-17.43 175.422c-5.11-.236-8.91 1.393-8.36-4.454l.11-1.446c1.29-4.084 2.72-33.483 3.13-39.564l5.11-65.985 6.41-75.235c1.38-14.532 3.88-34.109 4.29-48.248"/><path fill="#717b8a" d="M1157.85 930.138c9.29-3.736 7.48-1.485 8.25 5.9-5.11-.236-8.91 1.393-8.36-4.454zm-34.11 8.162c10.86.042 61.86.672 69.96 2.342-.25 1.394-4.05 9.795-5.01 13.357-33.12-.104-65.33-1.488-98.46.725-12.64.845-29.27-.635-42.2-.853-3.05-.165-4.48.053-7.04-1.612-2.23-3.51-1.49-8.917-1.41-13.325 7.88.155 79.35 1.035 84.16-.634"/><path fill="#fbfbfa" d="M1235.05 863.931c15.84 2.901 46.92 15.368 59.45 25.969-6.87 30.13-23.2 56.17-11.88 90.513.36 3.304.89 2.179-.42 4.33-7.66-3.573-49.37-24.021-53.61-27.729-2.16-9.653 3.43-82.612 6.46-93.083"/><path fill="#717b8a" d="M1268.3 851.887c6.15.466 18.66 3.55 25.18 5.356 17 4.71 38.2 9.048 49.11 24.131.73 1.011 2.12 6.529.47 6.549-9.69.114-21.77.377-31.05-2.94-5.45-3.261-11.06-10.965-16.28-14.667-11.61-8.223-24.07-11.621-36.51-16.851 3.53-1.312 5.26-1.089 9.08-1.578m-59.4 106.956c5.02-.007 16.28.135 20.68 2.28 18.21 8.874 35.61 20.204 54.34 28.012.68.283.98 1.29 1.11 1.92l.32 1.407-1.24.256c-8.51 1.809-16.34 1.311-25.04 1.259-12.71-7.814-39.88-25.52-50.17-35.134"/><path fill="#6b7786" d="M1235.81 851.434c4.32.894 8.51 2.258 12.77 3.367l.91.228c17.66 4.65 61.69 17.749 58.08 42.251-11.71-6.711-10.67-9.17-19.15-15.686-14.23-9.586-32.74-13.859-48.92-19.286-4.43-1.486-6.43-1.081-4.93-6.477z"/><path fill="#717b8a" d="M1309.29 888.506c2.24.46 4.46 1.049 6.72 1.418 3.21.526 26.46.872 27.05 1.681 1.19 1.636-1.35 7.591-1.89 9.157-5.3 1.927-22.18 3.62-27.98.923-2.15-1.001-3.43-10.657-3.9-13.179"/><path fill="#6b7786" d="M1259.22 853.465c-21.47-4.468 4.84-2.316 9.08-1.578-3.82.489-5.55.266-9.08 1.578"/><path fill="#717b8a" d="M1072.85 692.868c2.28.059 4.55.073 6.83.041l-2.67 2.211 3.82.699c-6.69 32.627 12.13 229.236 6.02 237.838-1.95.198-2.77.336-4.73.285l-2.26.373c-3.43.772-6.61.478-10.14.401-1.18-.34-.4-.023-1.98-1.576-3.54 2.858-22.75 2.675-28.53 2.875-2.88-24.607-4.05-45.4-8.08-70.315.83-5.844-5.22-47.05-5.8-55.999-1.23-18.641-3.27-39.717-5.56-58.261-.07-10.208-3.44-37.007-4.46-49.026a102.5 102.5 0 0 1 23.1-3.56l.13-2.99c11.44-.91 22.88-1.908 34.31-2.996"/><path fill="#fbfbfa" d="M1015.31 702.414a102.5 102.5 0 0 1 23.1-3.56c3.29 7.59 6.39 52.247 7.52 63.474 4.09 40.529 8.84 80.989 14.25 121.363 1.79 12.848 4.66 37.96 7.56 49.449-3.54 2.858-22.75 2.675-28.53 2.875-2.88-24.607-4.05-45.4-8.08-70.315.83-5.844-5.22-47.05-5.8-55.999-1.23-18.641-3.27-39.717-5.56-58.261-.07-10.208-3.44-37.007-4.46-49.026m61.7-7.294 3.82.699c-6.69 32.627 12.13 229.236 6.02 237.838-1.95.198-2.77.336-4.73.285.04-10.171-2.17-25.793-3.12-36.414-2.36-26.249-5.44-52.3-8.71-78.441-5.05-40.336-6.57-81.363-11.59-121.701 6.11-.836 12.17-1.724 18.31-2.266"/><path fill="#080809" d="M1072.85 692.868c2.28.059 4.55.073 6.83.041l-2.67 2.211c-6.14.542-12.2 1.43-18.31 2.266 5.02 40.338 6.54 81.365 11.59 121.701 3.27 26.141 6.35 52.192 8.71 78.441.95 10.621 3.16 26.243 3.12 36.414l-2.26.373c-5.64-23.785-4.45-54.775-8.24-79.736-5.75-37.827-8.46-75.296-10.92-113.429-.04-.912.06-1.106-.35-1.878q-1.05-9.735-1.65-19.508c-.84-1.593-.65-1.599-.4-3.516l-.56-8.163c0-.911.09-1.072-.23-1.888-.43-4.105.29-5.132-2.01-7.028-3.82.651-7.26 1.24-11.03 2.101-3.09 6.624 11.42 117.345 12.46 136.472 1.5 27.304 12.58 67.728 12.79 96.974-1.18-.34-.4-.023-1.98-1.576-2.9-11.489-5.77-36.601-7.56-49.449a3745 3745 0 0 1-14.25-121.363c-1.13-11.227-4.23-55.884-7.52-63.474l.13-2.99c11.44-.91 22.88-1.908 34.31-2.996"/><path fill="#464c58" d="M1058.3 716.248c1 1.447.77 1.802.4 3.516-.84-1.593-.65-1.599-.4-3.516"/><path fill="#717b8a" d="M967.973 893.816c14.702-11.773 10.769-15.706 31.332-27.053l1.845 2.219c-11.771 7.011-12.767 7.442-20.746 17.484-1.773.06-1.594 1.829-2.128 3.501a309 309 0 0 0 2.902 12.634c1.324 8.137 5.297 19.824 5.721 26.651.803 12.902 1.055 34.414-1.93 46.866-4.872 20.319-1.428 32.422-1.572 52.202-.199 27.29-2.199 53.59-1.259 81.12.286 1.31.93 6.86 1.164 7.3.486.16.803.29 1.238.51.098.36.148 17.87.608 21.99.098 6.52-.243 13.78-.355 20.38l.53-.8c8.246-12.23 10.586-20.9 21.107-32.82l1.71 2.03c-.76 1.15-2.8 4.29-3.59 5.17-5.092 5.67-15.603 29.13-19.582 33.86-.854-1.89.266-2.68.76-4.34.911-3.06-3.231-1.88-2.837 1.26.138 1.1-1.696 6.4-.505 8.05.354 1.9-.018 2.57-1.3 3.63-.332 7.33-1.111 17.45-1.035 24.57 2.267.97 2.449 1.07 3.469 3.52-2.078 37.55-1.073 72.56-2.539 109.15-7.562 1.52-17.69 1.84-25.615 2.37-1.333-36.88-3.418-74.58-3.474-111.41-.043-29.09 2.483-59.41 2.593-88.64.062-16.45-1.869-33.56-1.603-50.09-.827-6.83-3.116-79.785-1.693-83.704 11.891-32.729 13.424-41.66 8.52-77.471-8.898-.074-15.992 2.488-23.51.435-2.493-2.657-1.727-1.635-1.905-6.292 1.758-4.033 1.569-6.716 1.804-11.143l-.034-1.749c-.196-4.95 3.895-3.998 8.429-3.28 18.842 2.985 24.979-7.861 21.597 12.257z"/><path fill="url(#b)" d="M967.973 893.816c14.702-11.773 10.769-15.706 31.332-27.053l1.845 2.219c-11.771 7.011-12.767 7.442-20.746 17.484-1.773.06-1.594 1.829-2.128 3.501l-6.336 9.59c2.719 6.368 5.336 17.955 4.299 24.854l-1.102 1.323c-3.694-2.252-4.603-7.745-6.58-11.852-2.659 13.452-.991 26.639-4.072 39.927-2.846 12.276-10.989 23.727-11.14 36.528-.232 19.813 3.943 47.673 2.067 66.923-1.696 3.42-.358 5.05-2.53 7.87-.827-6.83-3.116-79.785-1.693-83.704 11.891-32.729 13.424-41.66 8.52-77.471-8.898-.074-15.992 2.488-23.51.435-2.493-2.657-1.727-1.635-1.905-6.292 1.758-4.033 1.569-6.716 1.804-11.143l-.034-1.749c-.196-4.95 3.895-3.998 8.429-3.28 18.842 2.985 24.979-7.861 21.597 12.257z"/><path fill="#717b8a" d="m936.098 886.955-.034-1.749c-.196-4.95 3.895-3.998 8.429-3.28 18.842 2.985 24.979-7.861 21.597 12.257-2.193 4.032-4.233 6.529-9.096 6.46-6.652-.096-13.029.964-19.579 1.842-.447-6.083-.229-9.332-1.317-15.53"/><path fill="#080809" d="M952.882 1065.13c2.172-2.82.834-4.45 2.53-7.87 2.711 42.27 2.903 82.3.28 124.63-2.318 37.39 1.58 75.46 1.83 112.89.076 5.15 1.008 11.76 1.642 16.92 6.861-.54 11.842-.72 18.724-.69.382-35.19-.311-76.03 2.163-110.78 2.267.97 2.449 1.07 3.469 3.52-2.078 37.55-1.073 72.56-2.539 109.15-7.562 1.52-17.69 1.84-25.615 2.37-1.333-36.88-3.418-74.58-3.474-111.41-.043-29.09 2.483-59.41 2.593-88.64.062-16.45-1.869-33.56-1.603-50.09m29.256 44.31c.286 1.31.93 6.86 1.164 7.3.486.16.803.29 1.238.51.098.36.148 17.87.608 21.99.098 6.52-.243 13.78-.355 20.38l.53-.8c8.246-12.23 10.586-20.9 21.107-32.82l1.71 2.03c-.76 1.15-2.8 4.29-3.59 5.17-5.092 5.67-15.603 29.13-19.582 33.86-.854-1.89.266-2.68.76-4.34.911-3.06-3.231-1.88-2.837 1.26.138 1.1-1.696 6.4-.505 8.05.354 1.9-.018 2.57-1.3 3.63-.276-4.16-.154-12.43.132-16.66 1.12-16.55.531-33.02.92-49.56"/><path fill="#fbfbfa" d="M1133.84 1043.01c13.83.06 28.16-1.45 41.02-1.16 2.61.25 13.16.37 14.2 1.29.11.42-.06.57-.28 1.06 5 .91 7.72.92 12.74 1a260 260 0 0 0-2.58 36.89c-11.77-.4-32-1.54-43.44-.91a314 314 0 0 0-46.03.01c-20.66 1.3-47.51-.84-69.47-.22.32-11.05-.85-24.62-1.33-35.96 14.72 2.06 79.6 3.48 95.15 1.45-1.51-1.69-2.29-2.18.02-3.45"/><path fill="#080809" d="M1133.84 1043.01c13.83.06 28.16-1.45 41.02-1.16 2.61.25 13.16.37 14.2 1.29.11.42-.06.57-.28 1.06-13.83 1.34-39.61 1.53-54.96 2.26-1.51-1.69-2.29-2.18.02-3.45"/><path fill="#717b8a" d="M1014.74 1020.41c12.37 1.62 37.95-.69 51.54-1.55 17.9-1.13 33.94 1.83 50.74 1.54l78.98-1.09c16.62-.14 23.17-1.53 40.27.68 1.46 1.1 9.57.93 12.21.76 12.26-.78-1.55 5.8 13.96 4.59l2.22-.31c1.06.86 1.3 1.27 2.16 2.35-3.4 1.09-15.38 3.81-17.28 4.76-25.93 12.99-47.88 6.4-74.68 9.71-12.86-.29-27.19 1.22-41.02 1.16-29.71.71-59.27 1.31-88.98-.72-12.12-.83-23.53-1.44-35.66-1.2-.62 1.24-.62 1.46-.93 2.82-5.75 1.05-14.033.29-19.993-.1.573-3.5-.751-6.09-.486-7.16.904-3.64 7.358 2.08 8.046-3.59l-1.546-1.2c1.705-1.61 4.25-1.53 7.049-2.05l.35-2.56-6.605-3.7c13.255-1.84 7.925 2.98 19.655-3.14"/><path fill="#181a20" d="M995.837 1033.06c14.423 1.6 5.243 3.12-2.795 7.17 6.066.54 10.008.76 16.158.86-.62 1.24-.62 1.46-.93 2.82-5.75 1.05-14.033.29-19.993-.1.573-3.5-.751-6.09-.486-7.16.904-3.64 7.358 2.08 8.046-3.59"/><path fill="#2c2d35" d="M1001.69 1027.25c9.26 1.71 10.43 3.32-.35 2.56z"/><path fill="#fbfbfa" d="M1107.8 694.157c6.06.897 14.57 1.273 20.67.657 4.02 2.528 2.49 9.768 2.39 14.494l3.05 1.599c-2.17 54.93-5.22 110.269-8.62 165.134-1.2 19.428.51 39.314-.77 58.538l-4.4-.449c-3.4 1.001-10.23.364-14.06.205.47-22.029-.18-45.198.2-67.35.32-18.507 1.77-56.88-1.01-74.822-.3-27.893-.72-56.602-1.59-84.453.2-7.148-2.6-12.183 4.14-13.553"/><path fill="#181a20" d="m1130.86 709.308 3.05 1.599c-2.17 54.93-5.22 110.269-8.62 165.134-1.2 19.428.51 39.314-.77 58.538l-4.4-.449c-.34-6.547.53-15.432.41-22.446-.53-31.394 2.95-62.305 4.37-93.485l3.67-76.683c.52-9.366.42-23.516 2.29-32.208"/><path fill="#fbfbfa" d="M1224.14 1044.11c19.6 1.09 30.57-1.56 53.46.51l-2.58 33.45c1.82-.68 3.23-2.23 4.33-1.1l1.15 8.76-2.71.3c-2.37 23.06-4.18 53.76-3.78 77.12l-3.01-1.95-.65.69c-3.04-3-4.72-6.28-7.5-9.32-10.73-11.71-21.07-23.87-31.6-35.78-1.55-1.29-3.45-6.03-5.21-6.88-4.94-2.4-2.18-3.93-4.01-7.58-.22-4.91 1.44-13.77 1.68-19.87.52-12.98.48-25.35.43-38.35"/><path fill="#080809" d="M1275.02 1078.07c1.82-.68 3.23-2.23 4.33-1.1l1.15 8.76-2.71.3c-2.37 23.06-4.18 53.76-3.78 77.12l-3.01-1.95c-1.01-14.95 1.47-33.51 1.15-49.2-.19-9.75 2.78-23.17 2.87-33.93"/><path fill="#6b7786" d="M1277.79 1086.03c.21-4.58-.25-5.29 1.56-9.06l1.15 8.76z"/><path fill="#717b8a" d="M1080.2 692.04c6.36.127 16.37-.749 21.97-.005 2.79 1.796 3.11.93 5.63 2.122-6.74 1.37-3.94 6.405-4.14 13.553.87 27.851 1.29 56.56 1.59 84.453-1.89-2.621-1.89-2.58-2.98-5.556-.07 45.072 1.3 90.445.31 135.597-.13 6.023.41 7.605-3.83 12.395-3.25 1.383-1.73 1.46-4.67.624-4.62-4.633-2.73-16.9-2.97-24.015-.58-14.574-1.25-29.143-2-43.709-2.98-57.694-6.2-113.405-6.27-171.276-1.09-.536-1.08-.718-2.01-.404l-3.82-.699 2.67-2.211z"/><path fill="#080809" d="M1100.86 711.054c.14-.951.78-8.507 1.04-8.6l.22.155c1.06 2.329-.48 2.975 1.54 5.101.87 27.851 1.29 56.56 1.59 84.453-1.89-2.621-1.89-2.58-2.98-5.556-.82-20.495-2.52-55.803-1.41-75.553"/><path fill="#181a20" d="M1080.2 692.04c6.36.127 16.37-.749 21.97-.005 2.79 1.796 3.11.93 5.63 2.122-6.74 1.37-3.94 6.405-4.14 13.553-2.02-2.126-.48-2.772-1.54-5.101l-.22-.155c-.26.093-.9 7.649-1.04 8.6-.26-2.162-.57-11.413-1.31-11.784-3.03-1.514-11.35 3.216-14.45-1.963-.79-1.314-1.01-1.696-2.26-1.084-1.09-.536-1.08-.718-2.01-.404l-3.82-.699 2.67-2.211z"/><path fill="#717b8a" d="m988.425 992.872 171.515 3.288c30.63.789 61.06 2.263 91.8 1.391 11.25-.32 24.17.218 35.12-1.599.16 2.922.29 2.847-.6 5.588-.69.46-1.38.91-2.07 1.37-19.77.2-44.82 5.46-63.61 5.53-8.87-.5-18-2.88-26.88-2.72-19.11.35-37.58 4.23-56.74 2.69-7.16-.57-15.37-.73-22.58-.9-16.98-.4-33.86-1.15-50.81-2.23-9.04-.87-21.14 1.19-29.81-.03-14.61-2.06-31.81-.71-45.828-2.28-2.636-1.75-1.823-.58-2.552-3.627.973-3.634 1.038-3.525 3.045-6.471"/><path fill="#fbfbfa" d="M988.277 1043.81c5.96.39 14.243 1.15 19.993.1 7.09 2.22 6.66 8.93 6.71 15.67.12 16.09 1.42 31.17 3.26 47.14-2.97 5.22-8.2 15.09-11.81 19.28-10.521 11.92-12.861 20.59-21.107 32.82l-.53.8c.112-6.6.453-13.86.355-20.38 1.045-6.8.452-15.84.755-22.7.871-19.67-1.518-54.33 2.374-72.73"/><path fill="#717b8a" d="M1007.17 876.771c4.88-5.313 13.92-13.556 19.95-17.574.48 2.535.9 5.079 1.27 7.631 3.59 25.367 7.99 60.278 7.71 85.656l-1.63-.499c-6-1.968-18.46-2.39-20.65-3.483.71-8.747-.67-16.028-1.73-24.505a1495 1495 0 0 1-4.92-47.226"/><path fill="#fbfbfa" d="M1001.15 868.982c3.92 1.895 8.53 64.59 10.5 74.298-.56 9.121-.22 6.445-7.06 12.922-5.014 4.756-9.518 9.528-14.893 14.027 1.765-25.387 3.943-42.658-4.966-67.242l-3.553-.386a309 309 0 0 1-2.902-12.634c.534-1.672.355-3.441 2.128-3.501 7.979-10.042 8.975-10.473 20.746-17.484"/><path fill="#080809" d="M978.276 889.967c.534-1.672.355-3.441 2.128-3.501 1.436 3.94 2.532 10.463 3.974 15.302l.353 1.219-3.553-.386a309 309 0 0 1-2.902-12.634"/><path fill="#717b8a" d="M1210.66 1097.51c3.5 5.5 3.33 5.72 9.06 9.64 1.86-2.25 2.3-2.07 2.31-4.82 1.83 3.65-.93 5.18 4.01 7.58 1.76.85 3.66 5.59 5.21 6.88 10.53 11.91 20.87 24.07 31.6 35.78 2.78 3.04 4.46 6.32 7.5 9.32.33 2.18.25 2.22.07 4.51-.54 4.1-.4 7.97-.51 12.12-15.94-15.91-28.29-34.66-44.35-50.77-9.74-9.78-7.92-14.13-21.06-19.53 2.38-3.76 4.11-6.83 6.16-10.71"/><path fill="#181a20" d="M1222.03 1102.33c1.83 3.65-.93 5.18 4.01 7.58 1.76.85 3.66 5.59 5.21 6.88 10.53 11.91 20.87 24.07 31.6 35.78 2.78 3.04 4.46 6.32 7.5 9.32.33 2.18.25 2.22.07 4.51-2.87-3.67-4.81-6.93-7.99-10.46-.69-1.2-.57-1.15-1.74-1.87-9.56-10.42-18.98-20.97-28.26-31.66-3.39-3.94-9.53-12-12.71-15.26 1.86-2.25 2.3-2.07 2.31-4.82"/><path fill="#717b8a" d="M987.141 990.872c-.551-9.954 19.849-18.236 26.259-25.044 6-6.363 32.53-15.984 12.5 1.721-2.55 2.259-15.14 16.22-16.22 18.929l-1.24 1.209c-3.59 3.998-13.541 2.66-19.43 3.067z"/><path fill="url(#c)" d="m1008.14 1128.03.96-1.22c5.27-6.77 9.45-15.84 14.26-23.48 4.36-6.93 10.46-5.7 8.66-2.24-12.79 24.52-31.75 47.26-43.992 72.42l-2.965-.02c-.011-2.15-.042-4.29-.095-6.43 3.979-4.73 14.49-28.19 19.582-33.86.79-.88 2.83-4.02 3.59-5.17"/><path fill="#080809" d="M1109.47 1081.19c15.32-1.13 30.7-1.13 46.03-.01-8.1 2.01-38.04 2.31-46.03.01"/><path fill="#2c2d35" d="M995.085 1023.55c-.54-1-.674-.57-.224-1.44.44-.18 1.12-.41 1.613-.29 4.786 1.17 3.146-6.17 8.946-3.76.39.14.78.28 1.17.41l2.87.6c2.07.73 3.34.39 5.28 1.34-11.73 6.12-6.4 1.3-19.655 3.14"/><path fill="#6b7786" d="M1236.27 1019.99c9.61-.92 22.76-.49 33.33-1.26-2.59.94-12.45 3.55-12.77 4.67.81 1.46 4.17 1.66 5.61 1.94-15.51 1.21-1.7-5.37-13.96-4.59-2.64.17-10.75.34-12.21-.76m28.39 5.04c1.78-.06 4.15-.42 5.87.37.64.3-.29 1-.56 1.12-.99.45-2.09.64-3.15.86-.86-1.08-1.1-1.49-2.16-2.35"/><path fill="#464c58" d="m984.778 1176.91 1.546.39c-1.324 5.42-2.823 4.05-1.546-.39"/><path fill="#717b8a" d="m985.063 1173.49 2.965.02c-.591 1.25-1.159 2.51-1.704 3.79l-1.546-.39c.107-1.05.276-2.36.285-3.42"/><path fill="#fbfbfa" d="M1041.08 1096.95c26.77 1.51 53.59 2.22 80.41 2.15 22.4-.2 53.55-1.6 75.55-.1-.1 5.97.5 12.47-2.14 17.53-3.39 2.29-2.98 1.47-8 1.39l-.83 3.85c-7.82 4.16-71.93 7.35-84.8 7.27-9.79-.06-48.12-1.76-57.32-3.24-1.89-2.63-1.33-1.07-.68-5.17l.47-2.69c-2.24-5.58-2.24-14.66-2.66-20.99"/><path fill="#6b7786" d="M1043.27 1120.63c32.93 1.08 63.97-1.15 96.75-.86 13.75.12 32.78-.83 46.05 2-7.82 4.16-71.93 7.35-84.8 7.27-9.79-.06-48.12-1.76-57.32-3.24-1.89-2.63-1.33-1.07-.68-5.17"/><path fill="#181a20" d="M1043.74 1117.94c48.97.57 93.67-2.18 143.16-.02l-.83 3.85c-13.27-2.83-32.3-1.88-46.05-2-32.78-.29-63.82 1.94-96.75.86z"/><path fill="#717b8a" d="M1039.56 1084.11c18.86-.76 40.15.91 59.38.69 25.9-.29 68.42-2.34 93.51 1.52l.09 1.47c-16.83 1.14-144.33 5.01-152.23.19z"/><path fill="#464c58" d="M1261.47 1032.39c.63-.17.93-.35 1.27-.22-.02.45-.47.95-.69 1.3-.33.06-1.07.32-1.49.14.07-.45.69-.97.91-1.22"/><path fill="#151821" d="M798.207 356.933c27.035-10.554 48.394-13.244 76.883-5.137l-.169 12.605c.062 4.173-.602 7.972.443 11.902-7.719 7.792-15.528 1.374-16.173 16.488-1.102 25.848-.51 51.466.631 77.297.744 16.583-1.094 34.63-.687 50.938.744 29.757 2.026 59.667-.343 89.441-.676 8.49-.014 31.7-1.142 37.986 1.521 11.867.927 21.963 1.284 33.871.515 17.189.598 34.648.403 51.843q-.01 2.003.027 4.006c2.507 15.93-.554 38.071 2.943 56.505 8.558 5.393 18.397 12.686 26.963 18.569 9.183 6.306 27.663 16.151 34.895 22.796-.265 8.59 2.255 20.035-6.621 22.917-1.299 2.916-.877 7.283-.836 10.658 1.641 47.032-1.782 96.799-.945 144.232l-2.542-.56c-3.045.29-7.416-.45-10.684-.46-52.071-.15-105.115 2.35-157.081-1-2.742 2.19-2.226 1.12-3.411 3.98 1.325-47.263-1.399-98.558.825-145.732.213-3.392.852-5.978-.853-8.763-5.063-4.194-7.363-.443-10.804-4.178l.157-3.216c.07-3.401-.349-13.909 3.441-14.857 2.256-.058 9.289-.121 10.899-.947 21.095-10.819 41.741-28.677 62.4-40.688-1.852-26.882 1.32-55.061.3-81.989-.412-10.869.182-21.878.117-32.777a8138 8138 0 0 1 1.573-297.138l-12.448-2.305c-.662-7.199.212-18.735.555-26.287"/><path fill="#151821" d="M749.661 860.249c24.559-.45 51.375.289 76.339-.035l51.766-.386c10.555-.104 26.64-1.066 36.729.481l.943.675c.254 2.987.297 5.818 1.27 8.634 1.641 47.032-1.782 96.799-.945 144.232l-2.542-.56c-3.045.29-7.416-.45-10.684-.46-52.071-.15-105.115 2.35-157.081-1-2.742 2.19-2.226 1.12-3.411 3.98 1.325-47.263-1.399-98.558.825-145.732l1.859-.816c.351-2.944.11-4.515-.139-7.417l1.421-1.637z"/><path fill="#717b8a" d="M749.661 860.249c24.559-.45 51.375.289 76.339-.035l51.766-.386c10.555-.104 26.64-1.066 36.729.481l.943.675c.254 2.987.297 5.818 1.27 8.634 1.641 47.032-1.782 96.799-.945 144.232l-2.542-.56-1.219-7.02c-9.781-3.02-22.392 6.54-24.638-8.04-1.607-23.343.993-51.523 1.296-75.174.234-18.257-1.152-38.347.053-56.224-9.555.052-19.228.999-28.695.934-29.481-.203-59.033-.438-88.502.482l-1.997 1.473c-.55-1.339-.398-.765-2.4-1.712-1.425 41.353-1.302 93.954.02 135.811-6.073.05-14.258-.11-20.139.33l2.419.92c-3.153 2.32-4.528-1.24-5.919 2.05l.238.58 1.718 4.13c-2.742 2.19-2.226 1.12-3.411 3.98 1.325-47.263-1.399-98.558.825-145.732l1.859-.816c.351-2.944.11-4.515-.139-7.417l1.421-1.637z"/><path fill="#181a20" d="m914.495 860.309.943.675c.254 2.987.297 5.818 1.27 8.634 1.641 47.032-1.782 96.799-.945 144.232l-2.542-.56-1.219-7.02c-9.781-3.02-22.392 6.54-24.638-8.04-1.607-23.343.993-51.523 1.296-75.174.234-18.257-1.152-38.347.053-56.224-9.555.052-19.228.999-28.695.934-29.481-.203-59.033-.438-88.502.482l-1.997 1.473c-.55-1.339-.398-.765-2.4-1.712l.256-1.974c4.232-3.044 106.147.374 124.058-3.079-.13 18.914.764 38.256.417 57.043-.524 28.313-2.177 55.313-1.567 83.761l22.465-.81c.637-45.177-1.392-98.368 1.747-142.641"/><path fill="#080809" d="m742.87 870.078 1.859-.816c.351-2.944.11-4.515-.139-7.417l1.421-1.637 3.65.041-3.53.805c-1.395 3.997-.998 53.386-.683 60.391.507 11.247-1.884 76.685 1.552 82.705l2.419.92c-3.153 2.32-4.528-1.24-5.919 2.05l.238.58 1.718 4.13c-2.742 2.19-2.226 1.12-3.411 3.98 1.325-47.263-1.399-98.558.825-145.732"/><path fill="#181a20" d="M903.205 923.584c4.527 3.42 2.665 12.391.569 16.854-5.328-4.786-4.696-11.305-.569-16.854"/><path fill="#080809" d="M756.986 923.424c4.215 2.817 2.401 12.637 1.188 17.019-4.693-3.331-4.204-12.587-1.188-17.019"/><path fill="#717b8a" d="m769.519 869.721 1.997-1.473c29.469-.92 59.021-.685 88.502-.482 9.467.065 19.14-.882 28.695-.934-1.205 17.877.181 37.967-.053 56.224-.303 23.651-2.903 51.831-1.296 75.174-.179 2.58-.209 2.43-1.326 4.79l-1.676.09c-6.846-10.56 9.83-61.782-16.524-95.59-7.283-9.343-16.862-15.731-28.804-16.932-14.156-1.424-29.805 2.514-40.64 11.906-26.342 22.833-17.519 68.401-19.204 99.126-2.418 1.69-3.192 1.04-6.805 1.07-2.47-2.55-1.652-117.67-2.751-131.593z"/><path fill="#151821" d="M792.737 870.442c5.517-.577 15.858.443 21.954.315 23.581-.495 47.005.547 70.567 1.492.894 14.523.293 25.982-.826 40.251-7.471-9.828-12.011-16.927-21.963-24.466-5.896-3.444-11.613-6.486-18.451-7.529-31.832-4.857-51.232 6.049-67.933 32.074-.754-14.443-1.224-26.521-.995-40.95a533 533 0 0 1 17.647-1.187"/><path fill="#6b7786" d="M743.738 1007.7c5.9-1.04 38.978.37 47.027.47 21.294.16 44.125.01 65.227-.68 9.367-.3 50.315 1.69 56.01-1.22l1.219 7.02c-3.045.29-7.416-.45-10.684-.46-52.071-.15-105.115 2.35-157.081-1z"/><path fill="#717b8a" d="M820.562 438.745c4.373-14.478 13.052-44.543 20.628-56.369 4.672.001 8.899.001 13.585-.288.626 17.452.151 32.665.218 49.909l.854 81.039c.027 19.503 1.14 39.981 1.079 59.562-.06 19.484-5.294 68.367-1.804 85.39 3.249-.96 1.832-5.356 2.528-9.535 1.521 11.867.927 21.963 1.284 33.871.515 17.189.598 34.648.403 51.843q-.01 2.003.027 4.006l-3.349-1.261c.895 13.626 1.555 23.409-.232 37.101l-11.301 16.512-.603-1.551c-.214-2.549.242-1.488-1.128-3.276-3.27.612-9.387 6.368-12.498 8.799 1.651-9.276 12.838-38.144 12.306-42.382l-1.577-.848c-4.312 1.234-7.081 4.714-10.436 7.958 3.618-6.3 20.282-29.164 17.921-34.766-3.993-1.172-4.408-.691-8.285 1.318-.993-4.03 1.507-9.773.815-15.12-1.439-1.802-4.029-4.904-4.091-7.021-.519-17.677 6.973-31.274 1.478-48.753-3.401 6.809-6.183 12.445-9.022 19.483l-1.842-.603c1.585-7.066 11.421-43.531 6.692-47.319-5.795 1.839-11.498 14.044-14.69 19.695 2.072-14.889 19.038-57.972 16.908-63.604-1.951.088-3.376.239-5.317.478l.957.426-.873-.002c1.821-7.803 27.856-49.522 15.732-53.061-4.59 1.084-8.541 4.432-12.522 7.22 2.104-6.975 7.267-26.729 6.879-33.123l-1.546-.75c-3.383 2.24-10.407 10.774-13.952 14.455 2.352-6.859 12.464-27.323 6.458-31.753-3.71.179-5.591 2.059-8.703 4.229 2.826-7.167 12.468-29.051 10.69-35.065l-3.169-.886c-2.326-3.693 10.733-34.366 8.151-43.325l-1.419.389c-4.822 5.881-12.661 20.442-15.611 27.458z"/><path fill="#181a20" d="M855.122 657.988c3.249-.96 1.832-5.356 2.528-9.535 1.521 11.867.927 21.963 1.284 33.871.515 17.189.598 34.648.403 51.843q-.01 2.003.027 4.006l-3.349-1.261c-.173-19.747-.058-40.196-1.534-59.877-.454-6.049.469-12.734.641-19.047"/><path fill="#717b8a" d="M735.007 844.197c13.992-6.67 99.694-2.145 119.993-3.983 17.97-1.627 48.298-2.921 66.15-2.136l-.16 15.209c-28.692-3.584-57.398-2.17-86.415-2.181-32.014-.013-68.591-2.509-99.684 3.179.002-3.363.091-6.722.116-10.088"/><path fill="#6b7786" d="M801.577 359.355c20.497-9.322 41.047-9.85 63.241-6.833 4.024.547 7.287.567 7.453 4.933-.264 4.802.441 9.484-1.363 13.364-24.568-10.61-46.193-6.915-69.561 4.251-.118-5.817-.19-9.877.23-15.715"/><path fill="#181a20" d="M731.37 853.921c.07-3.401-.349-13.909 3.441-14.857-.023 2.6-.583 2.658.196 5.133-.025 3.366-.114 6.725-.116 10.088-1.205-.141-2.309-.279-3.521-.364"/><path fill="#464c58" d="M872.271 357.455c.817 4.392.724 6.854 1.004 11.092l.428.211-.24.331c.529-1.081 1.031-3.398 1.458-4.688.062 4.173-.602 7.972.443 11.902-2.686-6.211-3.141-3.062-4.456-5.484 1.804-3.88 1.099-8.562 1.363-13.364"/><path fill="#6b7786" d="m827.52 673.763 1.842.603c-.715 1.683-3.054 8.551-4.613 9.11-1.53-.366 2.416-8.95 2.771-9.713"/><path fill="#464c58" d="M822.185 439.225c-1.005 2.375-1.586 7.268-3.532 7.774-1.03-1.34 1.319-6.936 1.909-8.254zm22.297 351.3c-.276.574-.421 1.242-.968 1.56l-.195-.077c-.279-1.241.099-1.784.56-3.034z"/><path fill="#6b7786" d="M858.747 798.477c10.209 4.805 19.571 10.187 27.581 18.236-2.748.926-20.216 5.511-22.165 5.064l-.182-.349c.597-1.826 3.177-2.006 3.927-3.759l-.066-.263c-1.435-.591-9.776-.436-11.74-.404l-1.182-1.113c.864-.435 3.465-1.501 3.831-2.401.676-1.659-3.088-1.259-3.321-2.767-.097-.622 1.003-1.581 1.29-2.216-1.462-3.394-15.962 6.502-17.832 7.205-4.435 1.67-8.712 2.763-13.28 3.979 5.57-3.436 11.943-6.621 17.139-9.929 5.148-3.279 10.559-7.702 16-11.283"/><path fill="#464c58" d="M856.102 817.002c-.542.315-6.407 4.06-6.556 2.328-.016-.205.03-.411.132-.59.717-1.281 4.06-2.403 5.242-2.851z"/><path fill="#080809" d="M745.456 1011.83c51.966 3.35 105.01.85 157.081 1 3.268.01 7.639.75 10.684.46l2.542.56c.058 2.69.206 5.9.151 8.54-1.112 41.72 2.511 83.37.184 125.11-1.123 20.13.652 41.61.004 61.87.075 5.95-.985 15.11 2.998 19.57 4.08 4.53 3.16 8.87 3.033 14.76-.536 10.13-2.779 2.89-3.204 13.22-.709 17.27 1.505 35.3 1.072 52.34-8.717-1.12-16.286-2.19-25.13-2.35l-.936-9.57c-.798-7.77 1.01-23.66.203-28-8.929-2.54-19.858-.82-29.013-1.63-32.117-2.85-64.548.91-96.438.68-.436 3.61-1.328 9.34-1.272 12.83.315 19.57 3.744 29.75-22.256 26.83-1.71-10.17.163-52.65-1.05-55.31-2.615-.82-3.261-.99-5.961-1.37.397-6.94-1.153-20.39 3.464-23.99 1.563-1.22.8-17.77.715-20.82-.735-29.23 1.48-58.75 1.616-87.89.155-33.39-2.35-68.53-1.795-101.85l-.103-1.01c1.185-2.86.669-1.79 3.411-3.98"/><path fill="#151821" d="M781.114 1172.56c1.876-26.47-4.05-84.65 2.77-107.23a39.5 39.5 0 0 1 9.897-16.58c18.426-18.29 51.724-21.2 68.989-1.16 6.468 7.51 14.562 20.23 15.89 30.05 4.178 30.87 1.997 63.23 1.702 94.38 6.878-.01 12.733.08 19.593.47-5.856.71-15.955.27-19.879 2.54-33.218 2.35-77.589 1.37-111.602 1.12l-2.898-3.42c4.723-.22 10.72-.13 15.538-.17"/><path fill="#f43534" d="M815.078 1134.35c2.715 7.51 6.68-4.66 7.938-6.83 5.095-8.8 8.441-17.69 6.913-28.02-.174-1.17-.674-3.76.448-4.64 7.257.27 11.745 32.05 13.045 38.38 3.643-9.87 4.324-15 5.455-25.35 10.193 27.58 6.492 39.98-16.258 59.51-.2-2.01-.29-25.32-6.503-19.26-5.382 5.25-5.145 12.85-5.574 19.72-20.518-13.34-14.551-17.05-8.501-38.2 1.039 1.55 2.051 3.11 3.037 4.69"/><path fill="#d83f40" d="M812.041 1129.66c.374-1.27.893-4.62 2.375-4.93 1.426 1.11.693 7.78.662 9.62-.986-1.58-1.998-3.14-3.037-4.69"/><path fill="#717b8a" d="M745.456 1011.83c51.966 3.35 105.01.85 157.081 1 3.268.01 7.639.75 10.684.46l2.542.56c.058 2.69.206 5.9.151 8.54l-1.469-4.54-1.734 1.76c-2.287-1.95-2.231-1.75-5.219-2.42-4.805 2.8-4.145 6.88-4.385 12.14-.235-3.74-.182-7.4-1.581-10.85-2.118 17.23-.272 48.93-.476 66.99-.327 28.9-.577 58.11-1.095 87.02-6.86-.39-12.715-.48-19.593-.47.295-31.15 2.476-63.51-1.702-94.38-1.328-9.82-9.422-22.54-15.89-30.05-17.265-20.04-50.563-17.13-68.989 1.16a39.5 39.5 0 0 0-9.897 16.58c-6.82 22.58-.894 80.76-2.77 107.23-4.818.04-10.815-.05-15.538.17-1.946-.05-3.772-.11-5.721-.21l-.53 1.69c-1.473 4.39-.732 14.44-.176 19.16.279 8.51.46 25.66-.971 33.76l-2.29.9c-2.735 1.37-6.981 1.68-9.608-.08-1.242-5.34-.925-32.15-.811-38.98l1.441-66.56c.316-12.08-.956-24.22-.553-36.18.783-23.24.329-45.66-1.394-68.85l-2.815-.56-.103-1.01c1.185-2.86.669-1.79 3.411-3.98"/><path fill="#717b8a" d="M744.963 1017.38c4.22-.36 6.557-1.01 10.328.53 1.089 2.16 1.009 192.2.597 210.12-2.735 1.37-6.981 1.68-9.608-.08-1.242-5.34-.925-32.15-.811-38.98l1.441-66.56c.316-12.08-.956-24.22-.553-36.18.783-23.24.329-45.66-1.394-68.85"/><path fill="url(#d)" d="M745.456 1011.83c51.966 3.35 105.01.85 157.081 1 3.268.01 7.639.75 10.684.46l2.542.56c.058 2.69.206 5.9.151 8.54l-1.469-4.54-1.734 1.76c-2.287-1.95-2.231-1.75-5.219-2.42-4.805 2.8-4.145 6.88-4.385 12.14-.235-3.74-.182-7.4-1.581-10.85-14.486-1.74-34.797.21-49.538.18l-62.584-.65c-9.026-.13-20.517-.82-29.278-.42-2.422 37.3-.809 79.07-.581 116.66.076 12.43-.557 26.12.31 38.27l-.53 1.69c-1.473 4.39-.732 14.44-.176 19.16.279 8.51.46 25.66-.971 33.76l-2.29.9c.412-17.92.492-207.96-.597-210.12-3.771-1.54-6.108-.89-10.328-.53l-2.815-.56-.103-1.01c1.185-2.86.669-1.79 3.411-3.98"/><path fill="#717b8a" d="M759.855 1172.52c1.949.1 3.775.16 5.721.21l2.898 3.42c34.013.25 78.384 1.23 111.602-1.12 7.096.22 13.543.34 20.637.21.124 16.08-.32 38.23.753 53.77-16.014.4-137.639 2.91-143.288-1.88 1.431-8.1 1.25-25.25.971-33.76-.556-4.72-1.297-14.77.176-19.16z"/><path fill="#181a20" d="M759.855 1172.52c1.949.1 3.775.16 5.721.21l2.898 3.42c-13.455.39-7.691 3.34-9.325 17.22-.556-4.72-1.297-14.77.176-19.16z"/><path fill="#6b7786" d="M834.025 1226.15c-4.497.48-4.157-2.05-7.096-1.34-1.61.39-10.149 1.62-10.183-.54-.211-13.13-.007-26.51.065-39.66.115-4.64 11.316-.1 11.955.09 1.033.06 8.15.21 7.988 1.88-1.095 11.23 3.603 30.75-2.729 39.57"/><path fill="#181a20" d="M828.766 1184.7c1.033.06 8.15.21 7.988 1.88-1.095 11.23 3.603 30.75-2.729 39.57-7.937-6-4.337-29.75-5.259-41.45m-10.865.21c1.48.01 7.964-.73 8.055 1.51.498 12.21.33 25.35.176 37.55-1.638-.03-7.43.15-7.628-.95-1.172-6.5-.675-32.79-.603-38.11m-33.793.88c1.964.02 8.023-.32 8.224.82 1.126 6.4.473 32.41.307 37.57-1.603-.05-7.829.17-8.024-.95-1.259-7.24-.684-31.29-.507-37.44"/><path fill="#151821" d="M861.481 1185.63c10.253.47 8.24-.25 8.371 10.87.108 9.22.493 18.69-.812 27.82-1.126-.11-6.432-.27-6.719-1.77-1.868-9.77-1.514-27.26-.84-36.92m-54.452-1.19c5.997.81 7.478-.57 7.505 5.73q-.025 16.785-.528 33.57c-.733.03-7.292.71-7.424-1.01-.933-12.18-.252-25.98.447-38.29"/><path fill="#181a20" d="M851.573 1185.15c.731.12 6.17.65 6.133 2.05-.242 9.22 2.08 29.6-.522 37.75-2.307-.55-6.802-.86-6.718-4.07.173-6.62-2.029-31.17 1.107-35.73m-10.082-.76c1.133.25 5.556.65 5.593 2.64.163 8.79 2.852 31.69-1.15 38.98-1.274-.41-4.835-1.37-5.014-3.06-.935-8.91-2.356-30.81.571-38.56"/><path fill="#151821" d="M774.308 1184.24c.708.21 5.714 1.38 5.767 2.39.472 8.96 2.198 30.78-.589 38.56-1.239-.19-5.998-.7-6.091-1.83-.758-9.09-.625-31.35.913-39.12"/><path fill="#181a20" d="M873.59 1185.41c.337.04 6.089.44 6.15 1 1.182 10.78 1.655 27.5.936 38.28-.944-.15-5.431-.56-5.818-1.58-3.186-8.4-1.721-29.28-1.268-37.7m-77.405-.45c.733.08 6.498.34 6.518 1.29.231 11.11.992 26.57-.393 37.4-.379-.01-5.798.18-5.84-.29-.944-10.52-.755-28.06-.285-38.4m87.797.15c.138.03 4.772.85 4.822 1.27 1.441 11.99 1.456 26.88 1.169 39.03-.649-.16-4.285-.87-4.445-1.49-2.572-9.95-1.831-28.82-1.546-38.81"/><path fill="#151821" d="M922.133 1243.7c-.536 10.13-2.779 2.89-3.204 13.22-.709 17.27 1.505 35.3 1.072 52.34-8.717-1.12-16.286-2.19-25.13-2.35l-.936-9.57c-.798-7.77 1.01-23.66.203-28-8.929-2.54-19.858-.82-29.013-1.63-32.117-2.85-64.548.91-96.438.68-.436 3.61-1.328 9.34-1.272 12.83.315 19.57 3.744 29.75-22.256 26.83-1.71-10.17.163-52.65-1.05-55.31-2.615-.82-3.261-.99-5.961-1.37l4.587-1.24c24.23-2.77 42.339-1.64 66.272-1.86l97.984-1.56c5.206.45 8.552 1.12 13.605-.23z"/><path fill="#6b7786" d="M742.735 1250.13c-2.013-3.11-.036-13.9.559-17.95 16.255-1.33 41.965.66 59.2.88 38.874.58 77.756.24 116.613-1.02l.123 3.97c.126 3.64.79 6.03-1.2 8.96-3.108 2.08-7.144 1.66-11.039 1.74l-97.984 1.56c-23.933.22-42.042-.91-66.272 1.86"/><path fill="#717b8a" d="M903.107 1029.33c.24-5.26-.42-9.34 4.385-12.14 2.988.67 2.932.47 5.219 2.42-.482 22.27 2.121 202.23-.869 208.73-4.306 1.14-2.461 1.45-5.885.2-4.825-9.41.28-170.37-2.85-199.21"/><path fill="#181a20" d="M1612.2 915.569c3.27 5.998 12.27 16.479 12.44 18.31-3.98.005-7.23-2.403-10.79-4.403.5 5.94-2.98 4.129-.53 9.913 1.19 14.044 20.27 13.868 25.83 19.648l-.93 1.619c-11.06.904-19.65-10.028-24.68-5.655-1.67 23.333 31.3 15.612 35.24 23.105-4.61 6.218-27.7-2.351-33.25-6.298l-.99.724 1.35 6.353c-1.14 2.062-1.42 2.661-1.76 5.031-.15 20.334-.17 40.674-.08 61.004 7.07 4.3 10.66 7.25 18.55 9.96 4.92 1.69 9.83 2.64 14.29 4.91 2.54 3.43 4.91 6.6 7.27 10.17 8.47 2.3 10.43 2.94 18.1 7.84l9.89-1.22-.18-35.5c-17.02 8.77-23.47 11.11-41.53 4.24 14.99-1.07 33.57 3.36 41.15-13.61l-.37-1.19c-6.89 1.6-14.79 7.35-19.77 5.17l-.52-2.46c3.19-4.43 19.35-3.74 19.82-13.11l1.39.37-.17.55-.85-1.04c-4.15.83-13.28 3.54-16.7 3.25l-.86-1.09c3.72-4.92 13.8-3.7 17.16-11.93l-.68-1.72c-.74-1.2-1.46-2.25-2.25-3.41l4.85-10.607 5.68 11.007c3.49 1.88 7.97 3.71 10.09 6.87l.31 2.03c-.64 1.14-1.18 2.19-1.78 3.34 2.68 6.17-6.02 1.33-8.03.39l-1.78 1.93c2.65 7.46 15.34 6.11 19.18 10.77-3.97 5.47-13.93-2.93-19.65-1.75 0 3.75.56 4.58 3.31 7.34-1.57 1.02-1.57 1.19-2.98 2.73-.06 11.72-.2 23.5.47 35.2 2.44 1.77 5.57 3.9 7.72 5.94 1.35 4.63 3.65 13.96 5.23 17.9 13.99-2.44 16.43-1.75 24.1 10.85 8.42-.07 24.85-.21 28.2 9.39l-.84 1.98c-5.68 1.5-43.19.84-52.49 1.09-36.4 1.32-72.82 1.75-109.24 1.32-25.51-.24-51.37-.77-76.89-1.31-16.02-.34-36.44 1.88-51.67 1.26-26.7-1.09-50.33-1.9-77.2-1.69-10.43.91-31.09-.25-38.28.71-4.06.26-9.46 1.95-10.38-2.7 2.5-3.76 6.76-6.9 10.79-9.02 12.35-6.53 23.9-15.71 36.65-21.28 1.95-.85 13.29.25 15.97.47 5.36-7.53 19.93-28.59 26.75-33.48 10.65-1.53 15.65-1.82 26.54-2.03 2.63-2.02 5.51-4.58 8.08-6.74 11.04-14.04 27.33-42.18 46.7-19 7.4-2.78 9.07-3.58 15.23-8.21 7.15 1.91 11.51 5.35 18.73 3.74 1.23-1.1 2.68-2.02 2.62-4.06-.29-10.08-.71-18.41-.01-28.53-1.49-1.687-1.31-1.609-1.57-3.938 1.36-2.918 1.14-3.726 1.28-6.94-.92-1.95-1-2.154-1.63-4.21.94-2.392.96-2.227.9-4.78-3.58-.738-8.55 3.176-15.32 3.79-3.04-1.289-2.09-.201-3.41-2.856 3.46-3.101 9.21-1.8 13.76-4.617 4.84-3.002 5.46-9.655 9.52-11.846 2.84 1.942 2.28 2.329 3.95 6.085 1.9 3.016 3.36 4.945 5.2 6.903 1.78 1.905 10.56 5.925 9.22 8.446-5.04 9.476-16.76-1.108-18.13-2l.39 1c3.83 9.707 6.05 12.279 16.66 10.082l2.07 1.028.17 1.918c-5.78 5.222-10.54 3.086-17.2.933l-.62 1.289 1.34 3.797c-.03 1.315-.42 3.186-.65 4.524-1.86 5.352-.94 20.052-.67 26.202 4.3 3.57 6.53 6.16 11.93 7.27 9.89 2.03 10.18 2.21 16.88 9.12l3.42 3.51c1.95 1.58 4.95 3.47 7.11 4.92 7.66-4.63 11.07-5.12 19.63-6.6-.1-7.84 1.17-48.939-.65-53.244-6.34 5.558-25.98 10.764-32.75 5.68l.11-1.816c13.31-4.901 11.7 4.359 30.95-8.066l-.18-2.905 2.37.649-.46.822-.71-1.47c-6.01-.658-25.46 5.728-28.56.501 5.86-9.578 30.59 6.98 30.41-20.677-6.18 4.262-22.78 12.996-29.42 7.517l.36-1.757c6.96-3.237 15.65-1.841 21.6-7.102 3.81-3.357 8.87-7.971 7.22-13.598-2.63-.091-9.75 6.091-12.96 8.397-6.2.617-7.53.744-13.75.002l-.78-.999c.84-.667 5.76-2.466 6.97-2.861 14.04-4.598 15.75-7.74 23.72-19.843-11.27 6.605-14.04 8.636-26.67 11.113 15.75-11.729 18.32-9.462 27.38-28.754"/><path fill="#717b8a" d="M1541.85 975.862c.94-2.392.96-2.227.9-4.78-3.58-.738-8.55 3.176-15.32 3.79-3.04-1.289-2.09-.201-3.41-2.856 3.46-3.101 9.21-1.8 13.76-4.617 4.84-3.002 5.46-9.655 9.52-11.846 2.84 1.942 2.28 2.329 3.95 6.085 1.9 3.016 3.36 4.945 5.2 6.903 1.78 1.905 10.56 5.925 9.22 8.446-5.04 9.476-16.76-1.108-18.13-2l.39 1c3.83 9.707 6.05 12.279 16.66 10.082l2.07 1.028.17 1.918c-5.78 5.222-10.54 3.086-17.2.933l-.62 1.289 1.34 3.797c-.03 1.315-.42 3.186-.65 4.524-1.86 5.352-.94 20.052-.67 26.202 4.3 3.57 6.53 6.16 11.93 7.27 9.89 2.03 10.18 2.21 16.88 9.12l3.42 3.51-2.38 1.66c-4.56-4.06-6.95-6.33-12.13-9.51-4.13 2.05-7.87 3.4-11.04 6.99-5.06 5.75-10.84-4.18-15.19 5.52l-.24 2.58c-15.91 4.55-22.82 13.75-36.22 24.7l.23 2.82c4.18.01 33.66 4.39 36.36 5.9-4.39 3.7-14 3.88-18.23 6.25-14.12 7.9-21.32 12.21-37.38 16.05 5.64-6.37 14.14-10.7 18.19-16.09l-.57-1.04c-10.92.23-11.47 5.64-18.64 7.55-4.25 1.13-16.29 1.23-22.08 2.3l-6.66 7.34c-29.6 2.8-30.88 11.84-63.38 8.86-4.77.49-3.19.23-7.52 3.54-10.43.91-31.09-.25-38.28.71-4.06.26-9.46 1.95-10.38-2.7 2.5-3.76 6.76-6.9 10.79-9.02 12.35-6.53 23.9-15.71 36.65-21.28 1.95-.85 13.29.25 15.97.47 5.36-7.53 19.93-28.59 26.75-33.48 10.65-1.53 15.65-1.82 26.54-2.03 2.63-2.02 5.51-4.58 8.08-6.74 11.04-14.04 27.33-42.18 46.7-19 7.4-2.78 9.07-3.58 15.23-8.21 7.15 1.91 11.51 5.35 18.73 3.74 1.23-1.1 2.68-2.02 2.62-4.06-.29-10.08-.71-18.41-.01-28.53-1.49-1.687-1.31-1.609-1.57-3.938 1.36-2.918 1.14-3.726 1.28-6.94-.92-1.95-1-2.154-1.63-4.21"/><path fill="#151821" d="M1541.85 975.862c.94-2.392.96-2.227.9-4.78-3.58-.738-8.55 3.176-15.32 3.79-3.04-1.289-2.09-.201-3.41-2.856 3.46-3.101 9.21-1.8 13.76-4.617 4.84-3.002 5.46-9.655 9.52-11.846 2.84 1.942 2.28 2.329 3.95 6.085 1.9 3.016 3.36 4.945 5.2 6.903 1.78 1.905 10.56 5.925 9.22 8.446-5.04 9.476-16.76-1.108-18.13-2l.39 1c3.83 9.707 6.05 12.279 16.66 10.082l2.07 1.028.17 1.918c-5.78 5.222-10.54 3.086-17.2.933l-.62 1.289 1.34 3.797c-.03 1.315-.42 3.186-.65 4.524-1.86 5.352-.94 20.052-.67 26.202 4.3 3.57 6.53 6.16 11.93 7.27 9.89 2.03 10.18 2.21 16.88 9.12l3.42 3.51-2.38 1.66c-4.56-4.06-6.95-6.33-12.13-9.51-4.13 2.05-7.87 3.4-11.04 6.99-5.06 5.75-10.84-4.18-15.19 5.52l-.24 2.58c-15.91 4.55-22.82 13.75-36.22 24.7l.23 2.82c-4.55.92-32.73 7.16-35.3 6.41l-.7-2.05c4.6-8.11 37.62-16.93 47.76-19.37 4.9-5.34 5.9-6.91 9.6-13.13-4.25-.18-10.76.23-13.56-2.98 1.04-2.12 9.25-8.9 12.52-12.42l-1.85.65c-9.67 3.3-19.22 9.89-28.37 14.52-7.15 3.61-7.42-.48-13.39-2.52.08.03-6.26-.93-6.66-.99-.75-2.78 2.13-6.63 3.84-9.88 5.44-3.38 18.1-7.68 19.53-10.89-4.2-7.52-14.89-1.24-20.84 1.62-4.72 9.12-8.41 13.48-15.46 20.82l-.91-3.2c11.04-14.04 27.33-42.18 46.7-19 7.4-2.78 9.07-3.58 15.23-8.21 7.15 1.91 11.51 5.35 18.73 3.74 1.23-1.1 2.68-2.02 2.62-4.06-.29-10.08-.71-18.41-.01-28.53-1.49-1.687-1.31-1.609-1.57-3.938 1.36-2.918 1.14-3.726 1.28-6.94-.92-1.95-1-2.154-1.63-4.21"/><path fill="#181a20" d="M1551.25 961.638c1.9 3.016 3.36 4.945 5.2 6.903 1.78 1.905 10.56 5.925 9.22 8.446-5.04 9.476-16.76-1.108-18.13-2-.92-2.423.47-1.367.47-3.883.57-1.621 1.11-3.221 1.72-4.825.86-2.099 1.16-2.495 1.52-4.641"/><path fill="#e4e2e7" d="M1549.73 966.279c5.71 5.552 5.11 5.654 11.99 10.036l-1.13 1.286c-4.49-1.906-8.53-3.688-12.58-6.497.57-1.621 1.11-3.221 1.72-4.825"/><path fill="#8c8d8b" d="M1561.72 976.315c2.19 2.094-.29 2.855-1.13 1.286z"/><path fill="#151821" d="M1440.48 1070.97c14.9 4.7 16.34.61 27.92 3.15l.22 1.78c-6.91 6.05-35.94 16.62-45.87 23.22-8.12 5.39-22.33 13.9-30.85 18.42-4.77.49-3.19.23-7.52 3.54-10.43.91-31.09-.25-38.28.71-2.78-.53-5.32-1.26-8.04-1.99 7.87-1.59 14.36-1.56 22.31-1.83 12.37-11.23 19.93-12.14 36.93-14.74 1.95-2.17 3.54-4.62 5.41-6.87l1.07-.84c8.83 1.12 19.66-2.46 26.72-7.76l.69-1.62c-3.61-1.74-4.14-1.95-8-3.02l-.45-1.5c3.67-4.77 12.18-8.2 17.74-10.65"/><path fill="#6b7786" d="M1452.42 1053.75c2.63-2.02 5.51-4.58 8.08-6.74l.91 3.2c-1.92 2.77-3.26 4.34-4.35 7.58-11.46-.99-17.48-1.07-28.86.72-7.68 5.66-16.76 18.64-22.1 26.79-2.53 3.88-2.43 5.6-2.32 10.22l-1.07.84c-1.87 2.25-3.46 4.7-5.41 6.87-17 2.6-24.56 3.51-36.93 14.74-7.95.27-14.44.24-22.31 1.83 2.72.73 5.26 1.46 8.04 1.99-4.06.26-9.46 1.95-10.38-2.7 2.5-3.76 6.76-6.9 10.79-9.02 12.35-6.53 23.9-15.71 36.65-21.28 1.95-.85 13.29.25 15.97.47 5.36-7.53 19.93-28.59 26.75-33.48 10.65-1.53 15.65-1.82 26.54-2.03"/><path fill="#080809" d="M1452.42 1053.75c2.63-2.02 5.51-4.58 8.08-6.74l.91 3.2c-1.92 2.77-3.26 4.34-4.35 7.58-11.46-.99-17.48-1.07-28.86.72-7.68 5.66-16.76 18.64-22.1 26.79-2.53 3.88-2.43 5.6-2.32 10.22l-1.07.84-.42-1.15c-1.6-4.85-19.43-4-23.65-.81-12.75 9.64-27.39 16.63-40.58 25.4 2.72.73 5.26 1.46 8.04 1.99-4.06.26-9.46 1.95-10.38-2.7 2.5-3.76 6.76-6.9 10.79-9.02 12.35-6.53 23.9-15.71 36.65-21.28 1.95-.85 13.29.25 15.97.47 5.36-7.53 19.93-28.59 26.75-33.48 10.65-1.53 15.65-1.82 26.54-2.03"/><path fill="#717b8a" d="M1540.52 1050.32c1.78.93 2.15 1.12 3.77 2.16.35.97.73 1.93 1.11 2.88 2.54 2.4 2.49 3.41 4.26 5.98 6.33 1.54 22.2 1.86 6.7 12.1-1.92 1.27-7.09.45-8.9-.45-3.68-.67-9.84 2.47-14.46 2.64-10.96.41-17.61 3.71-28.94 1.97 13.4-10.95 20.31-20.15 36.22-24.7z"/><path fill="#464c58" d="M1540.52 1050.32c1.78.93 2.15 1.12 3.77 2.16.35.97.73 1.93 1.11 2.88-1.7-.84-3.41-1.66-5.12-2.46z"/><path fill="#6b7786" d="M1566.75 1037.81c5.18 3.18 7.57 5.45 12.13 9.51 2.68 2.6 9.61 7.01-.88 10.49-5.62 1.85-17.92-8.45-24.23-3.14-1.9 1.22-6.97-1.33-9.48-2.19-1.62-1.04-1.99-1.23-3.77-2.16 4.35-9.7 10.13.23 15.19-5.52 3.17-3.59 6.91-4.94 11.04-6.99"/><path fill="#080809" d="M1689 1014.24c3.01 1 3.58 1.31 6.46 2.77l1.48.73c2.68 6.17-6.02 1.33-8.03.39.66-2.15.82-1.95.09-3.89"/><path fill="#e4e2e7" d="M1689 1014.24c-.03-.05-1.02-1.64-1.09-1.67-.45-.17-.6-2.25.05-2.05 3.99 1.27 4.99 2.78 9.62 3.66l1.14.22c-.64 1.14-1.18 2.19-1.78 3.34l-1.48-.73c-2.88-1.46-3.45-1.77-6.46-2.77"/><path fill="#717b8a" d="M1648.28 1074.35c9.76-.7 28.16 17.16 34.57 24.21-10.94-3.62-19.77-2.21-28.15-7.46l-1.41-.92c-2.41.09-24.36 7.76-29.58 9.13 3.01.77 4.49 1.17 7.47 2.28l.48 1.33c-6.48 4.4-17.81-1.34-28.16 4.25-17.63 11.43-24.87 9.82-45.72 9.89 7.97-5.68 13.67-12.36 21.93-17.51 6.12-3.82 14.61-2.72 20.37-5.36 22.6-10.36 22.45-16.33 48.2-19.84"/><path fill="#6b7786" d="M1531.69 1104.12c4.23-.28 14.01-.97 17.36 1.75 3 2.44-.92 8.48-5.02 7.92-4.05-.56-9.96.77-13.78 1.98l-2.92.94c-3.21 1.88-12.98 1.3-17.26 1.3 8.03-6.11 12.06-8.66 20.74-13.4zm64.25-27.48c2.49.23 16.71 1.85 14.34 7.74-.56 1.41-8.88 6.07-10.62 7.1-4.06 1.52-7.48 2.18-11.68 3.22 2.41-6 5.4-12.03 7.96-18.06"/><path fill="#151821" d="M436.215 976.841c5.339.324 4.646-.444 6.388 3.833 2.381 6.019 3.872 8.857 8.418 13.627 7.939.841 14.768 1.137 22.233 4.039l-.167.805c-12.156 1.875-20.721 2.255-30.267-6.08a1364 1364 0 0 0 1.021 52.625c20.999 2.45 16.617 2.82 30.438-10.34l12.632-1.19c5.481-5.07 6.691-7.07 13.982-8.88-.941-7.58-.885-20.52-.971-28.4-5.741 4.36-6.604 5.07-13.216 8.44-5.152-1.26-10.4-2.78-15.556-4.12 13.357-2.376 15.075.71 26.832-8.183.881 1.416 1.639 1.445 3.181 2.047l1.044-.894 1.229-1.012c2.682 5.813-3.095 20.442 2.429 27.402l.443 3.41c6.005 2.68 12.017-4.39 19.101-4.85 5.118 2.13 12.3 8.96 17.251 12.81l11.238-12.93c7.283 2.1 16.22 4.42 23.178 7.06 1.312 4.24 1.936 7.13 4.371 10.91 19.526 21.53 14.624 14.91 42.769 20.38 5.008 5.68 6.718 9.76 11.135 15.31 5.685 7.14 10.493 8.62 15.363 17.04 2.6 2.38 10.612-.03 19.333 3.73 15.571 6.71 26.109 18.56 40.764 24.91.664.15 2.654.51 2.76 1.15.481 2.94-14.69 2.28-16.85 2.44-34.241 2.01-72.084-2.84-106.211-1.75-33.04 1.05-64.852 1.11-97.801 1.11l-138.768.1c-9.341.06-57.167 2.58-62.333-1.61l-.135-2.87c4.476-8.28 21.825-6.89 29.347-10.01 2.873-1.19 6.596-5.34 9.342-7.41 5.344-4.04 11.669-2.19 17.897-1.15 3.546-13.67 4.411-15.81 15.09-24.86 1.571-11.52 1.019-23.23.851-34.87-4.778 2.42-19.485 9.63-22.945 3.19 5.719-4.1 22.393-1.07 22.789-12.71l-1.758-.4c-6.78 3.07-10.488 4.48-18.346 3.09 3.04-4.05 17.527-3.98 20.23-11.94-3.965-.92-8.246 2.57-12.178.83l.534-2.13c4.448-2.95 10.736-3.75 11.066-8.79-4.388-1.15-6.977 4.21-12.872 3.06l-.808-1.21c2.499-2.56 7.998-5.04 11.418-6.86 1.929-3.72 2.384-6.042 5.52-7.568 2.671 1.826 3.306 5.238 4.47 8.508 4.988 2.31 9.954 3.74 13.295 7.66l-.818.93c-5.706-.13-8.584-2.09-13.589-4.66 2.316 5.26 6.43 8.8 10.583 12.52.421.37 8.253-6.42 7.591 2.39-.294 3.92-7.692-1.21-9.579-.12-2.7.8-7.017-5.35-8.034-5.17-2.489 2.36 2.973 8.32 3.48 9.57 6.989 3.92 9.785 4.2 18.019 5.15.539.65 1.078 1.29 1.617 1.93l-1.267 1.02c-6.894.82-13.36-.4-19.678-3.12l-1.736-.76-1.062.87c2.829 6.37 8.103 7.49 13.547 10.42 6.959 3.73 15.13-1.94 18.086-1.3l.358 2.55c-4.459 10.05-25.328 0-32.082-3.69.398 8.75-2.553 28.7 2.611 33.93 7.467 2.38 17.956-2.08 26.208-4.3 6.016-17.38 5.481-16.65 23.665-16.35 4.703-8.29 4.559-7.57 13.159-11.45 3.449-7.76.925-49.461.546-59.916-7.403 5.324-16.895 12.891-26.933 9.844-2.925-.888-4.047-.372-5.58-2.906 7.138-6.629 13.556 3.62 31.629-12.9z"/><path fill="#717b8a" d="M562.437 1031.74c-5.036-.96-6.338-.49-9.838-3.46l-.061-1.79c6.472-4.3 14.837-.72 21.311 1.71l5.707 11.11 1.891-2.34c19.526 21.53 14.624 14.91 42.769 20.38 5.008 5.68 6.718 9.76 11.135 15.31 5.685 7.14 10.493 8.62 15.363 17.04l-3.191.82.358 1.63a73 73 0 0 0-6.436.03c-5.085-.17-18.509.33-20.337-5.03 1.776-2.35 2.191-2.69 3.353-5.46-4.854-11.34-23.214-9.54-32.966-7.32-8.239-3.28-13.713-4.69-22.304-6.46 11.817 9.76 33.276 18.55 46.481 27.11 11.684 7.58 19.718 15.8 32.42 22.61-19.724 3.24-39.478-3.2-58.624-8.06-3.697-5.83-5.449-6.8-11.502-10.29l-11.949 2.24c-9.064-4.06-15.499-6.57-24.928-9.53 6.846 5.7 14.238 7.37 17.851 14.22l-.536 1.73c-8.056 3.23-49.396-14.87-54.208-20.93 1.322-5.55 8.348-4.99 13.126-5.53 8.475-.95 15.611-1.29 24.063-.05 7.208 1.07 30.418 10.19 35.5 5.36-4.567-8.57-28.948-15.76-37.556-20.88-6.009-3.57-12.432-9.11-17.996-13.53 4.067.68 9.968 2.69 12.576-.8-.745-2.74-6.7-10.19-9.06-14.16 10.112 3.28 17.946 9.04 25.4 16.53 11.513-3.54 15.007-3.35 26.884-4.24-4.301-4.49-10.025-12.58-14.696-17.97"/><path fill="#080809" d="M581.447 1036.97c19.526 21.53 14.624 14.91 42.769 20.38 5.008 5.68 6.718 9.76 11.135 15.31 5.685 7.14 10.493 8.62 15.363 17.04l-3.191.82c-2.771-6.26-9.95-10.06-14.248-15.76-3.697-4.9-6.848-9.78-10.578-14.69-9.716-.02-16.598-.81-26.146-1.16-6.816-6.34-11.357-12.18-16.995-19.6z"/><path fill="#6b7786" d="M641.445 1092.18c2.317-.11 4.119-.11 6.436-.03l3.398 1.86c13.96.22 19.112 1.76 31.779 9.48.73.36.538.25 1.196.84l3.756 2.22c.767.37.59.28 1.291.87 1.644 1.58 1.768 2.03 3.778 2.83 1.492 1.1 2.666 2.03 4.279 2.95 8.5 15.39-33.809-10.34-38.36-8.3-5.857 2.64-13.804-3.86-16.23-10.48.732-1.31-.14-1.42-1.323-2.24"/><path fill="#181a20" d="M641.445 1092.18c2.317-.11 4.119-.11 6.436-.03l3.398 1.86c-3.149.25-5.362.5-8.511.41.732-1.31-.14-1.42-1.323-2.24"/><path fill="#2c2d35" d="M497.982 993.017c.881 1.416 1.639 1.445 3.181 2.047 1.701 4.268.387 26.006-.27 30.216-.941-7.58-.885-20.52-.971-28.4-5.741 4.36-6.604 5.07-13.216 8.44-5.152-1.26-10.4-2.78-15.556-4.12 13.357-2.376 15.075.71 26.832-8.183"/><path fill="#080809" d="M374.049 1028.8c-7.294-1.05-7.022-11.79-3.722-13.51-.86-3.25-1.262-2.19-.319-5.68 2.316 5.26 6.43 8.8 10.583 12.52.421.37 8.253-6.42 7.591 2.39-.294 3.92-7.692-1.21-9.579-.12-2.7.8-7.017-5.35-8.034-5.17-2.489 2.36 2.973 8.32 3.48 9.57"/><path fill="#2c2d35" d="M710.811 1118.34c.664.15 2.654.51 2.76 1.15.481 2.94-14.69 2.28-16.85 2.44 6.095-5.49 7.205-.05 14.09-3.59"/><path fill="#717b8a" d="M400.131 1076.31c18.316-1.5 25.158 10.45 39.795 16.83 17.235 7.52 28.303 13.94 44.175 23.96-10.903.04-20.405-.57-30.921-3.71-3.547-1.06-9.274-3.55-12.578-3.9l-.405-1.08c-5.206-11.75-21.813 2.83-30.687-3.47 1.823-1.47 2.666-2.23 4.313-3.9-2.198-5.26-12.728-5.24-20.528-11.64-9.3 7.53-17.041 8.09-28.897 11.12 9.363-10.61 20.794-22.94 35.733-24.21m75.57-37.54c10.735 1.25 9.384 2.06 18.851 7.13.503.27 2.07.22 3.295 1.28 7.774 6.77 15.514 7.47 23.404 11.27 6.008 2.9 16.449 12.76 22.342 17.62-19.899-1.39-22.563 2.97-41.348-3.49-3.076.62-5.921 1.89-8.889 2.89l-11.793-7.65c7.575-5.97 5.631-4.46 15.432-4.61 1.054-.02 10.205-1.82 6.542-3.86-8.919-4.98-14.121-1.46-22.526-1.69-10.455-1.97-12.192.02-22.389 2.02 5.614-8.48 9.889-13.87 17.079-20.91m26.437 62.12c10.644-.98 18.703 10.63 26.151 17.92-3.785-.18-7.768-.3-11.524-.66-7.796-1.91-7.402-.38-11.763-6.31-2.593-2.72-7.25-.78-8.976-1.02-17.031-2.31 2.34-8.39 6.112-9.93"/><path fill="#6b7786" d="M440.097 1078.6c13.392.8 20.731 17.2 13.567 17.57-4.136-1.64-16.092-7.49-18.568-12.15-.491-.93 4.109-4.63 5.001-5.42"/><path fill="#717b8a" d="M1011.71 662.776c4.27-3.081 7.26-5.257 12.21-7.265 73.77-29.93 130.73-22.611 201.68 6.374 1.8-2.389 1.84-5.752 2.34-8.985l.64 5.771c.13 2.859.32 5.717.55 8.57-.68 11.239-1.98 22.427-3.17 33.624l-2.79 3.014-1.19-2.117c-5.96-1.056-24.52-4.95-28.83-2.172-1.75 3.807-1.59 6.64-1.87 10.866-.33-3.214-.19-3.908-1.22-6.977l-1.16 2.328c-1.56-4.09-8.33-5.789-12.11-4.701l-2.04-.315-.16-1.984c-3.69-3.543-16.8-3.076-23.36-3.649-1.61-1.674-2.59-2.265-4.51-3.576-6.35.397-11.36.388-17.67.43-.34.85-.44 1.929-.58 2.802-6.1.616-14.61.24-20.67-.657-2.52-1.192-2.84-.326-5.63-2.122-5.6-.744-15.61.132-21.97.005l-.52.869c-2.28.032-4.55.018-6.83-.041a2219 2219 0 0 1-34.31 2.996l-.13 2.99c-7.81.302-15.56 1.497-23.1 3.56 1.02 12.019 4.39 38.818 4.46 49.026-.88 4.974-1.65 8.732-1.85 13.815-3.68-19.158-7.38-107.007-13.78-117.035-1.4-2.199-3.5-3.896-6.16-4.224-3.144-.388-7.17 1.133-9.402 3.407-4.841 4.931-3.391 14.508-2.888 20.761l-2.872 1.489c-6.807-29.751 22.612-43.363 28.892-6.877"/><path fill="#181a20" d="M1011.71 662.776c4.27-3.081 7.26-5.257 12.21-7.265 73.77-29.93 130.73-22.611 201.68 6.374 1.8-2.389 1.84-5.752 2.34-8.985l.64 5.771c.13 2.859.32 5.717.55 8.57-.68 11.239-1.98 22.427-3.17 33.624l-2.79 3.014-1.19-2.117c-5.96-1.056-24.52-4.95-28.83-2.172-1.75 3.807-1.59 6.64-1.87 10.866-.33-3.214-.19-3.908-1.22-6.977l-1.16 2.328c-1.56-4.09-8.33-5.789-12.11-4.701l-2.04-.315-.16-1.984c-3.69-3.543-16.8-3.076-23.36-3.649-1.61-1.674-2.59-2.265-4.51-3.576 26.99.819 43.03 2.355 69.93 5.419.96-9.508 2.03-24.672 3.95-33.616-70.51-25.773-123.35-35.782-196.49-4.093-3.01 1.301-6.95 3.823-9.62 5.702 1.51 10.865 3.53 22.697 4.8 33.458 6.52-1.284 12.57-2.427 19.25-2.588l-.13 2.99c-7.81.302-15.56 1.497-23.1 3.56 1.02 12.019 4.39 38.818 4.46 49.026-.88 4.974-1.65 8.732-1.85 13.815-3.68-19.158-7.38-107.007-13.78-117.035-1.4-2.199-3.5-3.896-6.16-4.224-3.144-.388-7.17 1.133-9.402 3.407-4.841 4.931-3.391 14.508-2.888 20.761l-2.872 1.489c-6.807-29.751 22.612-43.363 28.892-6.877"/><path fill="#080809" d="M1102.17 692.035c8.98-.293 17.9-.003 26.88-.023-.34.85-.44 1.929-.58 2.802-6.1.616-14.61.24-20.67-.657-2.52-1.192-2.84-.326-5.63-2.122"/><path fill="#464c58" d="M1072.85 692.868c3.38-.758 3.89-.819 7.35-.828l-.52.869c-2.28.032-4.55.018-6.83-.041"/><path fill="#717b8a" d="M985.69 668.164c-.503-6.253-1.953-15.83 2.888-20.761 2.232-2.274 6.258-3.795 9.402-3.407 2.66.328 4.76 2.025 6.16 4.224 6.4 10.028 10.1 97.877 13.78 117.035.2-5.083.97-8.841 1.85-13.815 2.29 18.544 4.33 39.62 5.56 58.261.58 8.949 6.63 50.155 5.8 55.999l-2.74 1.128c-.37-2.552-.79-5.096-1.27-7.631l.58-1.32c-9.87.258-19.25 4.886-28.395 8.886-20.563 11.347-16.63 15.28-31.332 27.053l-1.883.367c3.382-20.118-2.755-9.272-21.597-12.257-4.534-.718-8.625-1.67-8.429 3.28l.034 1.749c-.235 4.427-.046 7.11-1.804 11.143-1.708-9.206-1.745-14.713-2.031-24.19 15.975-23.911 39.454-30.206 66.831-32.653-6.247-42.895-9.29-86.1-13.35-129.227-1.34-14.238-2.759-28.041-2.926-42.375z"/><path fill="#080809" d="m982.818 669.653 2.872-1.489c3.869 35.086 5.402 71.935 8.775 107.316 2.047 21.466 5.885 43.695 7.665 64.561 10.39.007 14.52 1.407 24.3 5.026-3.2-26.48-5.23-54.349-8.51-79.812.2-5.083.97-8.841 1.85-13.815 2.29 18.544 4.33 39.62 5.56 58.261.58 8.949 6.63 50.155 5.8 55.999l-2.74 1.128c-.37-2.552-.79-5.096-1.27-7.631l.58-1.32c-9.87.258-19.25 4.886-28.395 8.886-20.563 11.347-16.63 15.28-31.332 27.053l-1.883.367c3.382-20.118-2.755-9.272-21.597-12.257-4.534-.718-8.625-1.67-8.429 3.28l.034 1.749c-.235 4.427-.046 7.11-1.804 11.143-1.708-9.206-1.745-14.713-2.031-24.19 15.975-23.911 39.454-30.206 66.831-32.653-6.247-42.895-9.29-86.1-13.35-129.227-1.34-14.238-2.759-28.041-2.926-42.375"/><path fill="#717b8a" d="M967.973 893.816c-1.506-20.136 17.436-30.453 33.027-37.306 6.23-2.736 18.17-7.355 25.04-6.266.76.122 1.52 6.899 1.66 7.633-9.87.258-19.25 4.886-28.395 8.886-20.563 11.347-16.63 15.28-31.332 27.053"/><path fill="#717b8a" d="M999.487 844.624c8.923-1.413 12.923-1.341 21.793 1.626l1.7.529c-21.44 4.298-41.752 12.402-55.019 29.68-2.55 3.321-7.144 2.509-11.389 2.597a646 646 0 0 1-22.784-1.121c8.459-12.461 16.714-20.688 31.193-26.038 6.982-2.581 13.474-5.66 21.033-6.655 4.513-.594 9.031.248 13.473-.618"/><path fill="#181a20" d="m438.625 913.802.614 1.37c2.231 4.898 4.045 9.793 6.403 14.972-1.613 1.832-1.579 1.659-3.869 2.517-.46 3.002.217 3.884 2.029 6.368 4.711 6.447 9.164 12.004 17.711 12.625 1.337.097 3.918.425 5.126-.173 1.608-.795 4.999 1.459 4.634 2.997-1.065 4.484-7.507 1.826-10.266 1.323-7.696-1.307-11.671-3.6-17.57-8.579l-1.169-.967c1.299 16.446 5.683 19.071 24.231 21.397 7.504.941 4.207 3.042-.805 4.986-3.036.811-6.711-1.441-9.69-1.92-6.559-1.482-9.164-4.409-13.94-8.715.777 9.283-1.126 10.015 4.74 16.745l-2.974 1.345-1.227.581c-1.742-4.277-1.049-3.509-6.388-3.833.019-3.77.192-6.714.453-10.443-5.986 5.18-19.683 15.044-30.371 11.268-1.912-.675-1.331-3.588 2.141-3.688 5.602-.687 11.407-1.536 16.348-4.253 2.802-1.541 16.285-10.994 11.547-15.68-2.611.698-6.003 6.255-11.232 6.45-3.71.139-8.433.936-12.128-1.036-1.033-.551-1.428-2.604-.345-3.304 3.211-1.727 9.013-.668 12.687-.795l1.177-.794c5.173-3.423 9.787-6.608 10.628-13.27l-.82-.804c-1.717-.137-5.424 3.777-7.11 5.082-4.665.709-12.263 3.625-14.815-1.338.593-1.315 2.649-2.837 3.612-2.433 5.295 2.224 20.717-8.629 18.447-13.366-2.652-.866-12.356 10.347-14.453 7.447 1.185-5.015 6.978-7.307 10.066-11.367 2.612-3.433 4.28-7.044 6.578-10.715"/><path fill="#d98a4b" d="M1058.49 1620.47c.42.04 6.64.26 6.71 1.46 1.21 20.67-.09 42.03.66 63.08.36 10.07 2.7 26.05-1.05 34.32-11.65-3.29-9.31-11.28-9.31-24.31.02-18.51-2.85-55.95 2.45-72.73z"/><path fill="#080809" d="M484.976 971.908c4.835-4.365 11.337-8.699 14.058-14.36 3.122-6.494 6.849 4.152 9.016 7.323 3.209 4.696 17.184 8.525 17.428 9.075 2.823 6.378-11.197.303-12.411-.464-15.412-8.866-2.999 5.105 3.06 9.538 2.316-.048 8.586-.059 10.518-.556 3.882-.999 4.316 3.553 2.332 4.24-3.244 1.125-10.025.458-13.745.282-1.593-1.071-8.17-6.294-9.271-5.517-2.826 5.881 10.599 10.687 14.063 12.522 2.842 1.505 5.792 1.21 8.104-.934 2.746-2.549 4.727 2.725 1.894 4.062-9.338 4.411-16.945-1.978-24.378-6.229-.431 10.25.151 19.54.221 29.67-5.524-6.96.253-21.589-2.429-27.402l-1.229 1.012-1.044.894c-1.542-.602-2.3-.631-3.181-2.047 2.018-4.328.384-5.204-3.413-2.912-2.334 2.529-13.591 4.805-16.269 1.557-4.795-5.815 11.754-1.963 13.132-5.818.158-.443 7.285-2.873 7.723-3.719 1.262-1.708 1.599-8.459-2.152-4.975-2.297 2.132-19.164 8.623-16.236 1.648-2.065-6.813-2.711-4.816 4.209-6.89"/><path fill="#e4e2e7" d="M484.613 974.322c3.889-1.286 7.732-3.159 10.801-5.936 3.602-3.261 5.636-1.367 2.644 2.095-3.662 4.238-10.396 6.322-15.747 7.674l-1.544.643c-2.065-6.813-2.711-4.816 4.209-6.89z"/><path fill="#2c2d35" d="m484.976 971.908-.363 2.414c-1.913 1.393-2.083 1.505-2.302 3.833l-1.544.643c-2.065-6.813-2.711-4.816 4.209-6.89"/><path fill="#d98a4b" d="m1016.95 1363.22 3.4 1.23c4.39 5.88 1.5 86.6 2.28 98.1.08 1.2-1.5 3.94-2.14 5.05-3.24-.93-3.61-.74-5.93-3.25-2.52-11.01-1.95-91.23 2.39-101.13m89.08 184.24c9.15 2.97 6.04 16.28 5.99 25.29-.08 15.21 3.82 67.01-1.68 77.82-.83-.16-7.06-1.2-7.11-3.21-.47-20.45.96-41.41.8-61.86-.05-6.7-1.12-31.68 1.15-36.26zm-86.56 167.95c1.73.46 4.33.77 5.7 2.08 3.47 3.32 3.66 73.42 3.42 82.52-.09 3.8-.5 6.12-2.03 9.55-.68-.1-1.36-.22-2.04-.3-1.46-.17-2.86-.11-4.03-1.11-3.91-3.33-1.43-59.95-2.07-69.65-.48-7.42-1.72-16.08 1.05-23.09M927.52 390.354c.662.11 1.321.232 1.985.33 1.388.204 2.955.156 4.064 1.16 3.687 3.336 1.09 71.185 1.777 81.667.307 4.679-.239 5.977-2.66 9.983-12.754-4.373-5.197-46.623-6.777-59.088-1.116-8.798-.851-25.749 1.611-34.052m138.71-77.069c3.39.355 7.66.26 7.76 5.172.2 9.517.02 19.202-.07 28.73-1.13 6.456 1.7 18.577.79 24.313-1.43 8.986 1.38 25.799-1.97 32.987l-.39.07c-.82.155-1.95.466-2.87.443-.94-.024-1.67-.376-2.25-1.115-3.69-4.65-2.09-74.227-1.58-83.888.12-2.28.27-4.452.58-6.712m-7.12 1160.415c.18-1.23.48-7.47 1.8-8.16 10.89-5.72 7.26 14.68 6.19 20.94.78 16.73-.26 33.75-.18 50.51.02 3.61.37 7.39-1.96 10.46-.91 1.19-2.35 2.04-3.86 2.18-1.09.09-1.93-.38-2.64-1.18-4.5-5.05.37-63.85.65-74.75"/><path fill="#e2995c" d="M1059.11 1473.7c.18-1.23.48-7.47 1.8-8.16 10.89-5.72 7.26 14.68 6.19 20.94-.93-9.1 2.8-14.59-7.99-12.78"/><path fill="#d98a4b" d="M995.421 1522.43c4.273.84 6.519.33 6.839 5.07 1.37 20.65-.43 41.27.88 61.91.48 7.54 2.55 14.47-2.23 20.8-.35-.09-5.029-1.14-5.087-1.74-1.366-14.08-5.562-76.12-.402-86.04m-17.815 126.96c7.781 2.06 5.503 2.9 5.957 11.63.728 13.98 2.859 63.37-2.965 73.11-1.446 0-6.214.43-6.328-2.33-1.036-25.23 2.148-50.83 1.092-76.25-.065-1.58 1.535-4.75 2.244-6.16m-39.4-78.92c1.023.14 6.969.24 6.959 2.09-.083 15.23-.371 30.72-.102 45.94.255 14.37 3.574 22.83-2.4 36.74-.888-.09-6.541-.39-6.429-2.31 1.365-23.37-3.474-60.1 1.972-82.46m81.754-1333.032c8.59 1.505 7.88 5.576 7.02 15.011-1.61 17.502 3.38 55.708-2.15 70.632-2.56-.04-6.35.874-6.2-2.546.92-21.07-4.08-64.665 1.33-83.097m179.99 1314.792c8.42 1.87 5.94 5.81 6.08 14.77.1 6.39.83 14.47.39 20.5-.59 9.16-.65 18.34-.18 27.5.48 9.86 2.67 12.89-2.21 21.4-5.32-.86-6.39-.57-6.64-6.38-.58-14.17-.71-28.35-.38-42.52.21-8.63-.43-28.84 2.94-35.27M681.307 767.093l.384.103c.495.129 4.132.948 4.177 1.793.692 13.108 4.742 72.102.911 81.452-2.636-.511-6.685-1.025-6.84-3.937-.927-17.501-3.836-65.238 1.368-79.411m423.383 595.367.47.05c11.77 1.27 2.83 54.32 5.8 65.48 1.32 4.97.28 13.54-2.43 18.42l-.95-.49c-1.43-.72-4.08-1.95-4.25-3.98-2.08-24.73-1.43-50.06-1.04-74.9.02-1.07 1.91-3.8 2.4-4.58m-176.233 16.98c.642.07 5.434.44 5.448 1.09.244 11.16 5.54 68.25.606 73.92l-1.169 1.4c-1.391-.55-6.082-2.08-6.054-3.43.343-16.93-4.456-58.92 1.169-72.98m414.093-677.471c1.28.29 6.11.838 6.22 3.023 1.08 22.422-.2 44.996.65 67.485.09 2.337-1.59 5.049-2.65 6.956-3.73-.725-5.29-.884-5.81-5.412-1.18-10.258-2.47-65.387 1.59-72.052M888.151 1490.21l1.567.63c.616.24 2.386.96 2.43 1.71 1.496 25.68-.335 51.77 1.528 77.45.151 2.08-1.494 6.66-1.813 7.67-1.829-.48-6.425-1.89-6.541-4.33-1.196-25.26-.275-50.55-.137-75.82.014-2.61 1.643-5.21 2.966-7.31m354.269-12.92c.74.29 6.33 2 6.3 2.85-.67 16.6 4.41 62.54-.96 76.7l-1.18.03c-12.62.38-2.3-48.84-5.62-59.35-.95-3 .74-16.41 1.46-20.23m-435.137 26.26c10.059 1.01 9.249 2.29 8.721 13.42-.795 16.74 1.677 38.52-2.293 54.65-2.25-.09-8.231-.16-8.274-1.47-.347-10.54 1.081-59.36 1.846-66.6m579.447-254c.53.02 6.39-.09 6.3 1.03-1.23 14.16 2.59 64.56-2.63 73.96-1.15-.52-4.64-2.07-4.85-3.09-3.67-17.62-2.23-56.41 1.18-71.9m-672.917 84.9c1.548.1 7.731.15 7.933 1.22 2.42 12.86 2.41 58.28.813 69-9.222.64-8.508-6.79-8.423-15.17.183-18.29-.949-36.85-.323-55.05M1265.8 529.249c11.43 2.419 5.42 17.799 5.3 28.751-.13 11.082 1.56 38.316-2.48 46.955-1.04-.243-6.35-1.123-6.33-3.131.14-13.767-1.76-60.195 2.95-71.19zm29.15 878.961c.71.2 4.3.96 4.53 2 2.96 13.35 5.24 60.1 1.52 71.58l-.61 1.95c-.34-.08-5.21-.92-5.45-1.79-5.03-18.82.73-41.39-1.56-60.95-.81-6.95-1.21-7.06 1.57-12.79m-538.448 9.17c1.052.14 6.426.25 6.341 2.14-.702 15.57 3.344 61.11-3.308 73.1-.648-.21-6.139-1.79-6.033-2.87 1.905-19.48-1.196-54.44 3-72.37M976.16 332.465c.004.001 6.626 1.051 6.485 2.145-1.401 10.856 2.757 68.772-.978 75.046l-.992 1.734c-.405-.144-5.164-1.58-5.184-2.461-.548-23.028-3.193-53.793.669-76.464M636.796 856.521c7.197 1.925 6.767 1.546 7.572 8.473 1.691 14.56.944 29.583 1.901 44.007l.293 4.505c.315 4.518.131 5.776-1.068 10.07-12.844-2.228-7.902-9.151-8.536-22.294-.62-12.849-3.55-33.052-.162-44.761m-11.028 319.669c.581.16 5.487 1.32 5.479 2.29-.145 17.67 4.021 55.66 1.077 71.52-1.305-.03-6.715.24-6.894-1.48-1.957-18.85-3.115-54.97.338-72.33m683.002-561.829c.96.226 6.43 1.194 6.31 3.2-.78 13.645 4.96 54.629.95 65.866q-1.155-.004-2.31.014c-7.62.102-6.14-6.536-5.95-12.938.52-17.302-2.57-39.393 1-56.142m-198.54-233.917c10.21 4.856 4.42 33.873 4.9 44.181.3 6.474-.12 23.38-2.48 28.794-1.5-.509-3.2-.801-4.56-1.672a3.38 3.38 0 0 1-1.5-2.188c-1.44-6.865 1.79-53.65 1.15-64.008-.08-1.266 1.86-4.1 2.49-5.107M809.631 1372.37l.481.12c1.801.46 5.894 1.61 5.702 4.04-.918 11.6 2.107 52.91-3.526 60.64l-1.091 1.54c-8.321-2.29-6.371-7.06-5.499-15.21 1.268-11.85-.433-41.58 3.933-51.13m35.173 203.01c12.456 2.43 2.617 27.98 5.6 39.12 1.485 5.54.391 20.2-1.154 26.08-2.754-.52-7.479-1.05-7.669-4.88-.909-18.36.253-36.78.637-55.14.023-1.09 2.024-4.23 2.586-5.18m536.846-786.874c6.27.305 8.27-.224 7.22 6.984-1.61 10.939-.13 22.043-1.67 33.013-1.32 9.412 2.43 16.642-3.62 24.585-.9-.353-5.32-1.945-5.39-3.064-.87-14.285.23-48.438 3.46-61.518m-93.49-96.949c.58.056 7.61.269 7.51 1.796-1.01 15.641 1.63 50.172-3.07 64.24-6.47-1.308-7.65-1.796-7.04-9.079 1.56-18.706.62-38.381 2.6-56.957m130.73 175.28c.69.235 5.05 1.461 5.12 2.163 1.16 10.854 1.92 50.281-.95 58.413-6.62-2.309-9.07-3.746-8.09-11.907 1.55-13.017-3.38-38.74 3.92-48.669M710.736 676.462c.145.023 5.204.562 5.304 1.07 2.847 14.483-2.422 31.708-.525 46.793.474 3.77 1.815 9.611.486 13.088l-.56 1.552c-1.293-.012-7.774.645-7.83-2.345-.281-14.879-3.225-47.196 3.125-60.158m629.774 654.008c7.5 2.64 6.4 14.49 5.27 20.03-1.86 9.15 1.4 46.12-2.27 50.48l-.82 1.03c-1.15-.49-5.05-1.81-5.08-3.46-.27-13.1-1.82-57.58 2.9-68.08m-190.2 163.96c.4.07 6.5.87 6.36 1.94-2 15.69 3.37 52.55-.63 65.96-.94-.28-6.03-1.41-6.12-2.9-.95-15.18-3.61-51.59.39-65m-484.223-239.8c6.563 2.61 5.379 3.42 5.947 10.8 1.518 19.75.606 39.38 1.762 59.1.133 2.26-1.711 3.46-3.214 4.91-8.932-8.51-4.394-31.44-4.924-43.44-.374-8.47-.896-23.39.429-31.37m84.57-653.31c1.067.577 2.245 1.105 3.188 1.877 1.737 1.423 1.913 4.225 2.032 6.299.358 6.243.96 50.742-1.067 52.861-.2.209-.415.401-.618.606l-1.194 1.226c-5.017-3.446-5.402-3.64-5.633-10.683-.324-9.887-.277-20.116-.241-30.006.02-5.523-1.265-17.051 2.349-20.893zm479.973 769.08c10.62 2.62 3.9 22.74 5.33 33.1.97 7.03 1.58 25.89-2.92 30.42-10.67-10.71-3.53-41.41-4.74-55.93-.29-3.47.55-4.75 2.33-7.59m-118.19-849.151c1.09.251 6.15.866 6.27 2.707 1.12 16.826-.2 33.615 1.16 50.478.11 1.372-2.46 4.909-3.2 5.941-11.85-3.776-4.63-28.814-6.14-38.905-.69-4.599.75-15.455 1.91-20.221m241.08 669.821c.72.16 6.54.99 6.61 2.41.9 17.41 3.57 43.07 1.34 60.16-.33-.02-.66-.04-.99-.05-1.86-.07-4.35.15-5.77-1.37-2.63-2.79-1.11-53.32-1.19-61.15m-334.07-665.682c16.06.953 1.72 25.621 6.14 37.908 1.5 4.149.05 16.063-1.11 20.794-.82-.029-5.97.189-6.16-1.717-1.24-12.952-2.97-45.205 1.13-56.985m409.39 654.802c1.17.2 5.53.79 5.52 2.65-.1 13.33 3.54 54.19-.49 65.27-.77-.17-5.67-.94-5.68-2.22-.13-16.18-2.17-50.71.65-65.7m-731.107 13.18c.585.09 6.894.5 6.744 2.26-1.182 13.84 3.324 49.46-.455 61.29-1.313-.21-5.267-.7-5.572-1.85-2.591-9.81-1.74-52.93-.717-61.7m162.821 168.98c11.018 1.87 6.416 7.18 6.851 18.65.317 8.36 2.337 28.98-1.113 35.29-13.165-1.46-7.044-18.01-8.198-28.59-.648-5.94.554-19.85 2.46-25.35m79.225-823.142c13.315 1.396 5.32 10.171 6.288 21.294.621 7.15-1.444 16.313-.358 23.044.885 5.481 2.02 3.624.407 9.701-1.284.112-6.461.94-7.043-.809-4.489-13.482-2.562-40.241.706-53.23M1449.08 936.46c.94.103 6.97.182 7.12 1.549 1.35 12.91.28 26.335.66 39.368.21 7.404 1.2 9.575-1.93 16.01-.7-.084-1.39-.151-2.09-.204-.82-.068-2.85-.342-3.08-.971-3.53-9.389-.91-46.541-.68-55.752m-225.1-487.058c1.79 1.151 3.85 2.117 3.87 4.575.07 11.653 3.93 41.579-2.77 50.408-1.72-.569-6.09-1.286-5.91-3.81.72-10.111-2.15-43.183 3.61-49.703zm-39.42 893.998c.5.08 6.49.79 6.48 1.65-.07 12.05 1.1 43.36-1.99 54.01-8.82-.27-6.97-3.99-6.87-12.56.17-14.35.3-28.9 2.38-43.1m-114.29-874.154c2.89 1.211 3.55 1.372 3.69 4.711.31 7.935 3.44 42.422-1.4 47.294l-2.23 2.219-.45-.247c-8.84-4.86-1-21.064-3.26-31.724-1.39-6.55-.64-16.65 3.65-22.253M597.784 932.198c.333.083 4.387.901 4.5 1.551 2.301 13.288.36 28.899 1.036 42.754l.218 4.501c.221 4.845.304 5.481-1.767 9.82-.635-.195-5.254-1.331-5.357-2.284-1.678-15.518-1.392-41.318 1.37-56.342m88.108-5.964c.8.17 5.162.81 5.179 2.404.134 12.886 4.012 38.53-1.555 49.589-10.025-3.027-5.916-8.046-5.651-18.227.287-10.987-1.814-23.681 2.027-33.766m291.953-441.81c.53.077 5.845.354 5.882 1.85.274 11.14.166 22.565-.168 33.726-.133 4.41 1.225 8.782-.681 12.576l-.755 1.563c-11.852-2.202-5.686-10.024-6.857-21.14-.91-8.651.472-20.048 2.579-28.575m392.145 446.248c.46.044 6.82.233 6.72 1.659-.84 11.88 2.55 39.277-.9 49.656-.87-.206-5.82-.957-5.84-2.604-.14-10.281-3-39.876.02-48.711m-219.75-490.304c.02.003 2.1.334 2.15.323 9.19-2.325 6.07 43.515 3.82 47.775-6.01-.938-7.02-1.775-6.73-8.641.54-13.075.04-26.405.76-39.457m53.54 99.762c5.28 1.562 6.79 2.697 6.07 8.99-.97 8.477 2.86 31.667-.8 38.068-7.79-1.628-6.82-6.034-7.05-13.153-.37-11.174-1.45-23.121 1.78-33.905m-.92 909.15c2.23.55 4.75.72 4.93 3.66.77 12.4-.99 24.74-.39 37.12.05.95-1.93 3.3-2.4 3.9-7.89-4.74-5.18-4.25-5.37-12.96-.25-11.11-.68-21.12 3.23-31.72M733.312 743.415c12.254 2.1 4.536 7.734 6.563 21.085.829 5.464.368 12.528-3.14 16.878-2.25-1.065-5.634-2.09-5.523-5.355.359-10.534-4.433-23.48 2.1-32.608m424.278 688.765.95.33c.77.26 4.54 1.49 4.67 2.4 1.44 10.15 1.4 28.74-2.07 37.84l-1.81-.47c-5.69-1.44-4.8-7.13-4.56-12.27.42-9.19.46-18.92 2.82-27.83M634.608 952.26c.923.265 4.786.789 4.979 1.432 1.938 6.475.875 37.105.19 41.581-.704-.073-6.473-.412-6.507-1.888-.284-12.223-1.453-29.408 1.338-41.125m312.342 514.15c8.283 3.34 5.695 6.93 5.97 15.75.247 7.92.743 18.1-2.058 25.47-1.378-.6-5.417-1.93-5.69-3.63-1.501-9.32-1.333-29.17 1.778-37.59m73.9-1042.062c.61.09 5.63.501 5.64 1.8.12 12.026 2.65 29.875.88 41.452-8.5-1.376-6.77-4.169-7.29-13.209-.53-9.421-.7-20.697.77-30.043m-130.467 69.341c.95.088 5.958.228 5.994 1.016.436 9.549 2.84 33.069 1.954 41.302-.502-.007-5.575.209-5.817-1.04-2.162-11.181-3.465-29.994-2.131-41.278M655.514 1171.25c1.095.14 7.151.27 7.41 2.35 1.053 8.47 2.818 31.5-.874 38.74-6.79-1.38-6.261-4.51-5.795-12.34.625-10.5.166-18.4-.741-28.75m113.471-467.977c9.261 2.596 3.087 9.735 4.905 19.73 1.054 5.796 1.239 11.757-2.959 15.776-9.813-6.146-4.953-12.97-5.069-23.788-.073-6.738-.547-6.395 3.123-11.718m641.305 265.222c1.42.158 6.9.129 6.59 2.443-1.1 8.369 2.82 25.753-1.67 32.172-1.27-.22-5.73-.81-5.82-2.6-.43-8-1.53-25.031.9-32.015M846.746 1456.18c8.116 1.94 6.126 4.53 6.358 12.82.222 7.95.425 16.7-.436 24.58-.87-.12-5.952-.35-6.149-1.72-1.374-9.56-1.668-26.44.227-35.68m547.894-283.34c1.07.37 5.34 1.37 5.23 3.11-.34 5.84 1.52 25.43-1.47 29.28l-1.08 1.48c-9.81-3.18-3.65-13.44-5.49-22.21-.42-2.04-.02-8.51 1.76-10.43zm-216.36-668.625c1.37.225 7.08.379 7.14 2.65.25 10.616 2.79 18.476-1.91 28.339-4.82-2.089-5.19-2.059-5.7-7.678-.68-7.527-.76-15.845.47-23.311M580.636 1165.32c1.385.25 4.869.47 5.505 1.56 3.233 5.55 3.069 21.81 2.191 27.48-10.469-1.01-6.703-4.37-8.21-14.36-.661-4.38-.268-10.32.514-14.68"/><path fill="#181a20" d="M1129.05 692.012c6.31-.042 11.32-.033 17.67-.43 1.92 1.311 2.9 1.902 4.51 3.576-1.76 3.746-1.26 7.817-2.18 12.2-.06-.468-.71-9.475-.38-8.747-.26-.106-.06-.062-.77-.005-4.57.573-9.04 1.275-13.63 1.833-.28 3.49-.29 6.968-.36 10.468l-3.05-1.599c.1-4.726 1.63-11.966-2.39-14.494.14-.873.24-1.952.58-2.802"/><path fill="#d98a4b" d="M1463.76 1162.26c7.64 1.94 5.6 4.87 4.31 12.75-1.08 6.56-.14 12.68-1.84 18.64-2-.59-4.6-1.12-4.89-3.62-1.09-9.06-.65-19.29 2.42-27.77"/><path fill="#080809" d="M1615.89 978.885c9.93 5.744 16.78 14.857 30.23 8.1 1.51-.758 2.38-.445 3.18 1.01-.68 4.688-9.45 5.717-13.05 6.54l-5.24-1.569c-6.74-2.011-12.68-7.741-16.88-9.05.34-2.37.62-2.969 1.76-5.031m-2.57-39.496c-2.45-5.784 1.03-3.973.53-9.913 1.97 4.345 8.32 11.691 11.75 11.228 6.98-.945 18.04 6.05 2.89 5.285-7.99-.403-10.39-5.958-15.17-6.6"/><path fill="#181a20" d="M1541.85 975.862c.63 2.056.71 2.26 1.63 4.21-7.05 3.265-10.86 8.292-19.99 6.274-1.1-1.266-4.44 1.117-5.26.37-6.28-5.628 2.58-4.968 6.29-3.991 6.94 1.828 12.78-4.903 17.33-6.863"/><path fill="#080809" d="M1543.77 990.95c-7.43 4.601-14.04 10.21-23.35 6.588-2.44-.949-1.81-4.644 2.08-3.496 6.75 1.988 13.85-4.23 19.7-7.03.26 2.329.08 2.251 1.57 3.938M446.804 978.748c5.746 4.04 6.107 5.472 14.637 4.715 19.482-1.73 13.618 6.138-9.699 3.077-3.521-2.424-4.847-3.558-7.912-6.447z"/><path fill="#181a20" d="m445.642 930.144 1.163 1.064c4.204 3.82 28.497 9.548 16.692 10.73-7.342.736-15.851-6.39-21.724-9.277 2.29-.858 2.256-.685 3.869-2.517M1686.99 1039.15c1.41-1.54 1.41-1.71 2.98-2.73 5.67 2.94 9.83 5.46 16.55 5.29 1.31-.03 3.48-.78 3.52.73.19 8.92-20.67-1.94-23.05-3.29m-136.64-44.116 3.1 2.058c4.72 3.068 9.13 3.208 14.59 2.938.55-.03 2.3.07 2.53.56 1.35 2.78-6.51 3.2-7.59 3.24-5.01.19-9.12-1.74-13.28-4.272.23-1.338.62-3.209.65-4.524m127.44 10.066c.79 1.16 1.51 2.21 2.25 3.41-2.86 2.56-17.28 9.54-14.62 3.53 3.87-2.75 5.82-1.05 12.37-6.94"/><metadata><recraft-signature>{&quot;signed_by&quot;: &quot;recraft&quot;, &quot;signature_b64&quot;: &quot;SHOyZwQLOemYE/R30WPL91V1GYzPJAXcylDcwCqilZRuiAmI0N7wXVFZQeWsNz0EIoZtsWnNBpbMW+oFdqcSBw==&quot;, &quot;signing_algo&quot;: &quot;Ed25519&quot;, &quot;generation_timestamp&quot;: 1777253744, &quot;identifier&quot;: &quot;d8437c50-1dad-4d81-a2b2-034c4d2a2b55&quot;}</recraft-signature></metadata></svg>