<svg xmlns="http://www.w3.org/2000/svg" width="1024" height="1024" preserveAspectRatio="none" style="display:block" viewBox="0 0 2048 2048"><defs><linearGradient id="a" x1="1045.66" x2="1070.64" y1="1164.3" y2="1362.35" gradientUnits="userSpaceOnUse"><stop class="stop0" offset="0" stop-color="#171d1e"/><stop class="stop1" offset="1" stop-color="#1e3846"/></linearGradient></defs><path fill="#fff" d="M0 0h2048v455.11c-38.25-22.498-86.04-38.401-128.67-50.402-84.44-23.768-172.17-42.507-258.47-57.971a3602.8 3602.8 0 0 0-1362.248 16.625C199.832 384.524 91.332 409.574 0 452.74z"/><path fill="#1c303d" d="M320.143 186.578c4.128-.453 5.408-.803 9.402-.071 5.321 11.85 15.25 74.063 19.32 90.845.37 1.527-1.088 12.843-1.412 15.354l10.884 2.162c.64 7.653 1.64 12.083 3.321 19.632l13.94-2.958c4.742 6.066 9.628 13.183 14.426 19.498a646 646 0 0 1-46.24 8.8c-6.783-7.465-13.329-10.305-22.166-15.113l-3.503 10.517c-7.681-.304-17.067-1.397-25.057-1.906 1.841 4.724 4.005 9.503 6.031 14.165-5.544 1.674-39.121 12.719-42.009 11.932l-1.525-3.968c-4.913-.974-11.046 7.295-15.299 9.588-7.242 3.905-21.128 5.359-29.457 6.73-14.722 2.855-29.464 5.581-44.03 9.145 1.158-11.285 2.056-20.943 2.514-32.304 10.844-1.563 21.52-3.271 32.457-3.983-10.29-8.217-20.165-16.78-30.799-24.551a384 384 0 0 1 .826-38.66c-5.649-6.545-11.888-12.72-17.708-19.231.016-11.204.037-23.076-1.896-34.134 15.964-6.991 33.326-13.709 49.356-20.559 7.657-3.272 31.324-13.439 37.875-14.347 25.279-3.504 55.136-4.88 80.749-6.583m1401.517 1.415c21.46 1.773 69.96 1.997 88.91 5.155 10.07 1.677 77.13 29.761 86.51 34.499-4.02 15.803-7.87 31.65-11.54 47.538-4.93 21.691-6.43 39.468-20.17 57.634l8.85 4.904c-1.6 5.569-6.32 14.555-9.02 20.108a552 552 0 0 1 15.44 3.422c.84 7.441 1.73 14.878 2.65 22.31-13.61-2.852-31.53-6.856-44.53-11.176-1.01-3.293-2.3-6.734-3.44-10-3.97-5.389-7.71-9.248-12.28-14.123l-7.63 7.884c-5.88-3.179-14.23-8.948-20.44-12.697-.56 4.965-.63 10.886-.82 15.949-8.5-1.77-40.46-3.699-44.02-7.041-.04-2.595.15-2.936-.76-5.312-6.13-.781-16.05 3.055-21.35 1.913-20.13-4.337-40.53-10.352-60.67-14.723 3.82-7.786 11.96-20.199 16.71-27.951 9.8 3.167 19.48 5.707 29.42 8.374-4.76-10.663-11.36-25.334-18.34-34.288a602 602 0 0 0 18.23-34.583c-2.3-7.008-5.75-20.584-6.82-27.651 7.44-10.864 10.21-17.779 15.11-30.145m-315.3-54.584c25.16-1.914 73.43 14.07 99.69 20.875-.34 24.13-4.14 49.855-5.43 74.094-.73 13.629-2.04 20.344-8.81 32.161 2.94 2.142 6.19 4.219 9.23 6.237-1.71 7.077-2.71 12.097-3.81 19.291 6.83 2.094 8.72 2.583 15.84 3.326l6.08 21.04c-16.8-1.972-31.22-3.236-47.93-6.26-4.29-11.235-7.59-12.789-16.85-20.355l-7.03 6.559c-7.27-2.673-14.33-6.296-21.31-9.699.64 5.667.88 11.291 1.2 16.984l-8.98-.745c-6.85-.398-33.09.119-36.66-2.264l.05-3.594c-3.7-3.469-14.05 4.409-17.67 4.224-22.04-1.123-51.56-4.782-73.2-6.768 4.27-9.547 7.9-18.592 14.09-27.022 9.94.227 19.71 2.102 29.53 3.699-6.7-11.79-13.2-23.188-21.25-34.151 4.93-10.744 10.1-24.955 13.6-36.154l-10.61-22.571c4.93-11.788 9.15-21.497 11.45-34.198 24.83-.692 53.73-3.054 78.78-4.709m-386.19-22.042c10.47-1.347 78.64 9.855 94.91 11.783-.11 18.656-.07 37.313.13 55.968.15 19.08 3.14 35.388-6.4 52.436q5.31 2.4 10.56 4.899c-1.6 8.301-2.43 12.949-2.91 21.313l16.64.734c2.16 7.189 4.55 13.457 7.22 20.481-15.81-.488-31.62-1.154-47.42-1.999-5.94-10.255-10-12.716-19.49-19.166-2.39 3.662-3.76 5.367-6.59 8.73-6.92-2.015-15.58-5.629-22.48-8.307l5.38 17.719-19.87.486c-7.34.401-16.4 1.19-23.66.625-6.03-.469-2.69-3.085-5.22-6.599-6.622.952-15.096 7.744-19.357 7.896-20.876.743-45.872-.63-66.801-1.231a852 852 0 0 1 10.173-29.532c10.725-.588 21.031.12 31.688 1.177-8.383-10.714-16.19-20.541-25.061-30.842 2.698-11.055 6.244-25.467 9.724-36.114l-12.569-23.65c2.14-9.078 6.099-23.8 6.383-32.599 27.824-4.28 57.888-10.662 85.02-14.208m-384.171 19.067 86.716 1.713c1.357 20.735 4.753 42.088 6.488 62.907 1.573 18.884 4.251 27.687-.844 46.536l10.659 3.726c-.186 7.015.094 14.257.268 21.292l16.125-1.308 10.948 19.132c-15.6 1.261-30.423 2.504-46.058 2.915-7.161-8.623-11.371-10.686-21.02-16.151-2.438 3.705-3.937 5.385-6.891 8.753l-22.507-4.973 4.313 16.605a1110 1110 0 0 1-32.428 4.562c-2.965.574-4.579.813-7.583 1.103-3.91-2.1-2.219-.703-4.862-4.8-5.329-.13-11.602 7.998-19.065 9.16-22.725 3.536-46.136 3.929-69.116 6.504 2.921-9.855 5.455-21.187 7.939-31.26 10.591-.018 20.545-.782 31.06-1.872-9.809-9.887-16.607-18.366-27.477-27.845 2.023-12.713 3.674-25.964 5.426-38.76l-15.976-21.838c1.572-10.855 2.638-19.406 3.456-30.397 12.664-5.012 78.686-25.008 90.429-25.704"/><path fill="#1c303d" d="M930.723 61.399c28.657 1.959 57.462 6.383 86.157 8.243 14.5.94 29.26-1.132 43.7-2.54q28.53-2.7 57.03-5.764c-5.35 7.893-10.06 17.968-10.47 27.657-.39 9.058 4.46 19.816 4.62 28.34-23.59-1.75-59.19-10.634-80.16-11.838-20.66-1.187-73.286 11.094-95.481 15.782 7.597-22.288 9.568-40.197-5.396-59.88m-615.727 64.656 1.767-.241c.829 1.566-9.596 29.134 6.613 52.36l1.027 1.456c-9.533 3.967-70.991 3.985-84.033 7.035-28.626 6.696-60.104 26.577-87.4 35.352.853-25.68 1.74-33.826-14.896-56.043 43.528-6.87 87.656-8.362 129.014-24.198 14.893-5.703 32.607-10.768 47.908-15.721m1417.274.738c21.86 3.147 61.82 20.657 84.51 25.596 9.91 2.155 23.82 3.033 34.14 4.164 20.89 2.185 41.74 4.709 62.54 7.572-1.9 1.931-3.77 3.903-5.59 5.915-13.1 14.404-14.8 25.749-13.8 44.211.41 2.305.49 2.158-.36 4.318-6.21.965-64.61-27.567-78.3-30.049-30.93-5.607-61.71-3.603-92.52-7.36a64.6 64.6 0 0 0 10.28-16.671c5.83-14.104 4.55-24.267-.9-37.696M1330.92 76.45c29.41 3.957 60.62 12.054 90.17 15.68 6.8.834 24.77.17 32.27.104q31.41-.51 62.82.055c-16.05 17.864-16.56 33.19-11.4 55.3-13.89 1.16-63.51-19.504-81.87-20.145-31.66-1.104-62.31 4.036-93.75 4.572 9.18-18.975 13.21-36.098 1.76-55.566m-613.822-5.206.878.118.359 1.023c-10.303 17.71-5.65 36.719 2.047 54.145-23.526.229-67.396-3.562-89.078-1.408-13.78 1.37-68.416 19.768-83.875 24.854-.238-1.896.872-9.051 1.005-11.518 1.089-20.292-.163-26.999-11.181-43.243 30.505-2.436 61.349-2.97 91.759-5.7 7.429-.668 22.812-4.394 30.736-6.046a5006 5006 0 0 0 57.35-12.225"/><path fill="#283b46" d="M1918.23 167.934c28.89-2.514 23.9 48.084.86 61.684-20.09 1.648-21.47-15.637-19.74-32.071 1.33-12.663 8.39-22.553 18.88-29.613"/><path fill="#fff" d="M1919.22 174.724c14.86 1.394 15.16 12.765 13.05 25.288-1.75 10.358-5.14 16.11-13.59 22.099-23.22-1.006-14.04-38.009-1.02-46.365z"/><path fill="#fff" d="M1919.78 216.744c-21.89 13.469-8.75-53.267 6.61-34.788l.92 1.299c7.06 9.821-1.36 25.331-7.53 33.489"/><path fill="#283b46" d="M1919.78 216.744c-21.89 13.469-8.75-53.267 6.61-34.788l.18 1.954c.38 3.946 1.68 2.829.33 6.551-3.84-3.383-4.27-4.342-7.62-8.124-3.15 9.731-11.86 25.398-1.64 32.882z"/><path fill="#3a4b57" d="m1926.39 181.956.92 1.299c7.06 9.821-1.36 25.331-7.53 33.489l-2.14-1.525c7.18-8.286 6.33-14.646 9.26-24.758 1.35-3.722.05-2.605-.33-6.551z"/><path fill="#3a4b57" d="M1918.58 191.323c6.27 3.29 1.35 10.673-.32 18.267-5.2-4.048 1.37-6.445.5-13.032-.38-2.864-.4-2.485-.18-5.235"/><path fill="#283b46" d="M1523.59 93.007c29.11-2.722 24.07 53.983 6.25 61.369l-1.57.742c-5.96.161-9.87.421-14.18-4.648-13.03-15.294-8.08-44.948 8.01-56.354z"/><path fill="#fff" d="M1525.3 99.843c.91.11 1.83.218 2.74.327 3.2.437 6.07 2.184 7.92 4.823 6.17 8.977 4.4 36.527-7.14 41.643l-1.6.749c-15.04-1.816-14.6-14.495-14.02-27.878.3-6.653 4.55-15.061 10.53-18.668z"/><path fill="#283b46" d="M1525.06 103.792c18.26 2.431 11.62 30.505 2.98 39.12l-1.25 1.275c-17.67-1.729-11.82-30.415-1.73-40.395"/><path fill="#fff" d="M1523.23 140.338c-2.33-6.536-5.26-39.119 7.97-26.43 3.51 3.36.66 21.684-5.03 26.37-1.02.005-1.92-.002-2.94.06"/><path fill="#3a4b57" d="m1524.12 130.349.31-1.654c1.03-6.18 7.14-6.409 1.8 3.405z"/><path fill="#9a9da5" d="m1524.12 130.349 2.11 1.751c-.2 3.362-.23 4.848-.06 8.178-1.02.005-1.92-.002-2.94.06.82-3.871 1.15-5.941.89-9.989"/><path fill="#3a4b57" d="M1525.84 113.616c2.06 1.994 3.67 3.265 2.17 5.974-4.8 1.922-2.7-1.697-2.17-5.974"/><path fill="#283b46" d="M1127.43 59.974c1.71.192 4.55.45 6.08.838 15.2 3.85 17.86 31.604 14.06 43.568-3.21 10.1-5.65 14.576-14.16 19.242-3.74-.232-8.85-.62-11.62-3.361-14.79-14.615-11.83-50.211 5.64-60.287"/><path fill="#fff" d="M1127.75 67.822c13.57.835 14.78 7.558 15.55 20.678.58 9.892.19 20.176-9.62 25.325l-1.76.967c-18.01-2.134-17.13-35.955-5.39-45.909z"/><path fill="#283b46" d="M1131.83 111.344c-20.42-1.865-9.38-55.365 6.57-33.634 3.5 4.765 1.47 21.31-.89 27.126-1.94 3.352-2.66 4.051-5.68 6.508"/><path fill="#fff" d="M1131.89 109.699c-3.91-4.502-4.03-5.601-5.76-12.203-1.07-4.077.3-25.216 9.14-16.27 3.36 3.39.79 15.808.17 20.978.65 1.386.83 1.363 2.07 2.632-1.94 3.352-2.66 4.051-5.68 6.508z"/><path fill="#3a4b57" d="M1131.89 109.699c2.01-3.132 2.35-4.003 3.55-7.495.65 1.386.83 1.363 2.07 2.632-1.94 3.352-2.66 4.051-5.68 6.508zm-.89-27.161c1.22 1.42 2.04 2.341 1.18 4.44-1.55 3.814-.25 7.277-.16 11.48-5.19-3.465-3.38-11.098-1.02-15.92"/><path fill="#283b46" d="M518.983 95.007c8.042-.117 11.703-.321 16.831 6.597 7.797 10.506 9.75 24.745 7.494 37.409-1.571 8.816-3.952 13.147-11.208 17.969-4.36.032-7.907.309-11.418-2.415-16.04-12.443-20.253-48.339-1.699-59.56"/><path fill="#fff" d="m520.703 101.981 2.364.059c13.091.341 16.555 20.257 15.864 30.464-.535 7.907-3.077 11.673-8.742 16.773-5.411-.52-8.997-1.074-12.159-6.261-7.085-11.622-11.387-32.961 2.673-41.035"/><path fill="#283b46" d="M519.585 138.353c-4.658-9.465-10.309-34.241 6.956-31.616 12.803 1.947 13.625 50.85-3.984 35.603-1.236-2.027-1.322-2.114-2.972-3.987"/><path fill="#fff" d="M521.629 137.327c-1.745-5.408-7.867-28.439 5.055-22.962 2.399 1.017 9.83 24.077-2.576 27.201l-1.551.774c-1.236-2.027-1.322-2.114-2.972-3.987z"/><path fill="#3a4b57" d="M521.629 137.327q1.22 2.132 2.479 4.239l-1.551.774c-1.236-2.027-1.322-2.114-2.972-3.987zm.548-18.809c7.096 2.711 5.822 8.872 4.684 15.917-1.928-1.476-3.048-3.472-2.291-5.797 1.436-4.416-1.106-4.204-1.965-8.241z"/><path fill="#283b46" d="M731.39 66.908c13.39.383 19.374 11.208 21.481 23.606 2.761 16.243 3.336 29.686-11.664 39.086-7.521-.617-11.663-.685-16.465-7.401-6.787-9.493-8.53-21.859-6.65-33.195 1.905-11.495 4.11-15.35 13.298-22.096"/><path fill="#fff" d="M732.037 73.561c4.204.63 9.132 1.925 11.657 5.672 6.545 9.714 10.091 33.065-.363 41.187l-2.495 1.922c-21.629-4.392-22.692-36.15-10.127-47.542z"/><path fill="#283b46" d="M734.569 77.556c6.546 1.348 8.7 5.643 10.187 12.013 2.965 12.7 2.463 20.125-5.822 30.051-7.296-3.27-10.64-6.123-11.948-14.606-1.956-12.683-2.152-19.307 7.583-27.458"/><path fill="#fff" d="M734.321 83.24c10.698 4.801 11.219 23.696 5.423 32.422-10.159-5.666-9.827-22.713-5.423-32.422"/><path fill="#3a4b57" d="M735.059 89.511c5.397 3.29 2.425 6.979 3.101 11.989.436 3.227.699 4.697.705 7.968-3.732-6.349-5.822-12.695-3.806-19.957"/><path fill="#283b46" d="M1711.89 122.134c5.9.031 11.5.413 14.57 6.392 9.81 19.107 4.11 43.277-14.55 54.165-4.91.255-10.98.739-13.96-4.151-8.07-13.213-5.65-32.714 1.76-45.725 3.34-5.881 6.11-8.021 12.18-10.681"/><path fill="#fff" d="M1712.57 127.759c7.43 1.006 8.29 4.108 12.35 10.351.67 13.892-.13 27.609-12.81 36.173-4.03-.083-9.71-.145-11.79-4.627-3.56-7.676-1.19-20.199.92-28.088 2.34-8.79 3.95-9.595 11.33-13.809"/><path fill="#283b46" d="M1711.09 132.484c18.48 3.002 11.3 29.395.22 39.437-16-2.776-10.47-30.198-.22-39.437"/><path fill="#fff" d="M1711.45 138.458c9.17 3.117 2.2 23.45-1.67 29.197-8.87-2.821-4.44-21.921.39-27.647z"/><path fill="#3a4b57" d="M1708.81 157.839c.62-13.897 4.65-20.323 1.93-.532-.14 4.531-3.36 4.181-1.93.532"/><path fill="#9a9da5" d="M1710.74 157.307c-.14 4.531-3.36 4.181-1.93.532.94-.14 1.15-.055 1.93-.532"/><path fill="#283b46" d="M1310.48 73.066c6.75-.514 10.84-1.186 15.28 5.057 10.69 15.022 9.39 44.087-7.23 55.04-30.01 6.934-27.48-45.93-9.48-59.024z"/><path fill="#fff" d="M1313.21 78.676c20.3 6.333 16.54 37.922 1.74 47.875-8.3-.313-12.11-3.476-13.16-11.984-1.72-13.945-1.65-28.39 11.42-35.89"/><path fill="#283b46" d="M1312.01 82.51c16.61 3.307 13.9 30.332 4.75 39.268l-1.35 1.362c-16.57 1.058-13.66-30.65-4.68-39.343z"/><path fill="#fff" d="M1310.1 90.785c3.64-.121 7.27-2.047 8.24 3.164 1.43 7.636 1.17 15.43-2.83 22.253l-.73 1.289c-12.46 3.616-7.02-20.793-4.68-26.706"/><path fill="#3a4b57" d="M1312.94 95.661c5.82 4.799 2.5 8.536.26 13.678l-.77 1.793c-.52.217-.47.333-.87.17-1.57-2.263.54-12.956 1.38-15.641"/><path fill="#283b46" d="M915.091 60.873c8.734.284 12.58 2.755 16.685 11.134 8.231 16.803 7.028 40.492-9.819 50.691-3.01.222-9.904.804-11.949-1.669-13.495-16.315-14.943-49.803 5.083-60.156"/><path fill="#fff" d="M914.954 67.8c19.765 2.96 19.74 37.425 5.965 46.1l-1.465.958c-14.93-1.996-14.499-18.79-13.993-31.24.274-6.762 3.884-12.067 9.493-15.819"/><path fill="#283b46" d="M911.485 105.658c-2.792-8.521-7.284-28.382 3.98-32.529 7.787-2.866 11.312 10.5 11.751 15.356 1.043 11.529 1.147 15.68-6.937 23.569-5.463-.64-5.997-1.539-8.794-6.396"/><path fill="#fff" d="M913.589 104.067c-1.01-6.09-3.995-18.24-.11-23.1 4.921-6.154 7.377 1.024 7.705 5.512.306 4.207 1.303 7.047.264 11.535-.293 5.507-.76 6.122-2.941 11.115q.903 1.452 1.772 2.925c-5.463-.64-5.997-1.539-8.794-6.396z"/><path fill="#3a4b57" d="M913.589 104.067c1.197 3.77 1.188 4.38 4.918 5.062q.903 1.452 1.772 2.925c-5.463-.64-5.997-1.539-8.794-6.396zm2.442-14.257c3.075 2.585 2.821 4.447 3.38 8.584-3.958-2.658-3.38-3.875-3.38-8.585"/><path fill="#283b46" d="M329.738 122.061c10.991-1.042 14.604 1.259 20.113 11.505 7.219 13.425 11.663 39.996-4.717 48.344-11.781.479-12.816-.374-19.557-11.287a47.57 47.57 0 0 1-5.368-36.609c1.682-6.452 4.075-8.934 9.529-11.953"/><path fill="#fff" d="M335.315 127.924c15.92 4.822 23.133 39.502 6.425 46.332l-1.314.562c-17.556-8.789-24.803-37.929-5.111-46.894"/><path fill="#283b46" d="M332.879 131.37c16.737 5.394 20.035 28.954 9.473 40.178-15.672-4.661-19.981-27.87-10.641-38.749z"/><path fill="#fff" d="M334.973 139.365c12.896 2.451 10.822 19.784 7.793 29.264-9.728-4.829-11.153-19.726-7.793-29.264"/><path fill="#283b46" d="M336.13 145.441c5.68 2.18 4.262 9.464 4.471 15.166-4.042-4.074-3.982-9.547-4.471-15.166m-212.681 22.446c21.171-.806 28.181 31.399 25.247 47.574-1.197 6.597-5.23 10.252-10.47 13.639-1.253-.004-5.809.111-6.718-.209-15.422-5.425-21.765-31.321-19.361-45.39 1.467-8.582 5.762-11.738 11.302-15.614"/><path fill="#fff" d="M125.365 174.887c18.684 1.487 24.269 37.829 10.395 45.951-.844-.004-6.032.107-6.321-.027-10.06-4.646-13.444-26.053-12.046-35.705.921-6.362 3.447-7.368 7.972-10.219"/><path fill="#283b46" d="M125.468 178.524c16.167 3.889 20.049 27.652 9.726 39.177-16.227-2.722-19.79-30.438-9.726-39.177"/><path fill="#fff" d="M127.67 185.539c9.886 1.783 8.987 21.864 4.72 29.674-6.781-4.952-7.33-12.944-9.454-20.726-.987-3.621 2.629-6.633 4.734-8.948"/><path fill="#3a4b57" d="M127.552 190.584c5.883 2.573 5.447 11.115 3.343 15.92-4.297-7.872-.002-4.922-2.871-14.337z"/><path fill="#1c303d" d="M828.942 256.342c2.647 1.569 18.431 15.325 17.746 17.333-.864.497-1.931.189-2.936.086-8.565-.708-11.235-.761-19.571-2.187 1.429-5.968 2.568-9.473 4.761-15.232m-380.605 45.109c6.719 4.058 12.812 10.013 19.721 13.423l.418.798c-.373.462-1.336.65-1.833.811-8.077.489-14.452.853-22.5 1.631l.352-1.763c.998-5.035 2.28-10.01 3.842-14.9m1137.783-5.882c.24.239 16.7 18.451 16.49 18.02-.08 1.081-4.37.262-4.84.212-5.35-.908-9.42-1.501-14.77-2.771l-3.91-.819c2.44-5.804 3.5-9.257 7.03-14.642M74.193 385.906c6.63 2.617 12.96 5.966 19.816 8.01.854.254 2.24.32 2.129 1.498-.762.521-4.443 1.435-5.354 1.651l-7.302 1.677-11.471 2.635c1.091-5.282 1.692-10.106 2.182-15.471m1870.627-7.007c.48.529 7.71 20.566 7.71 20.748-1.03 1.151-4.73-1.273-5.5-1.733-4.53-2.557-9-5.226-13.4-8.004q5.385-5.716 11.19-11.011m-742.9-123.331c1.7 1.565 15.54 16.739 14.82 17.982-.7.315-1.2.123-2.05.022-6.29-1.345-12.48-2.502-18.74-3.882 1.79-4.643 3.73-9.705 5.97-14.122m422.49 50.961c2.65 2.29 6.69 3.79 4.24 6.768-8.67-.481-8.38.901-4.69-5.937z"/><path fill="#1f2328" d="M113.219 379.431c2.115.382 7.944.887 7.186 4.083-5.752 2.492-5.95 4.366-6.819-2.121zm375.548-74.328c3.391 1.347 5.615 1.348 4.143 4.878-5.445.669-5.669 1.225-4.143-4.878m748.713-33.502c4.12.97 3.8 1.36 5.86 5.149-3.91-.529-6.91.657-6.1-3.686zm-370.672-5.987c2.63 2.041 4.751 2.707 2.439 5.394-5.173-.43-4.371-.372-2.439-5.394M1974.53 405.462c2.54 1.676 3.47 2.673 2.48 5.79-4.5-1.868-4.77-1.197-2.48-5.79"/><path fill="#b97639" d="M0 452.74c91.333-43.166 199.832-68.216 298.612-89.378a3602.8 3602.8 0 0 1 1362.248-16.625c86.3 15.464 174.03 34.203 258.47 57.971 42.63 12.001 90.42 27.904 128.67 50.402v3.114c-98.81-55.222-279.71-88.933-392.57-109.299a3588.7 3588.7 0 0 0-1331.569 12.203 2209 2209 0 0 0-176.725 41.717C95.505 417.276 47.906 431.744 0 456.322z"/><path fill="#1c303d" d="M749.597 1396.44c13.453-.69 25.205 5.77 38.175 9.06 5.205 1.33 21.433 3.04 24.755 5.11 13.339 8.33 26.591 18.53 41.465 24.12 7.163 2.63 21.411.04 29.75 1.42 4.585.22 13.348 7.06 17.161 7.42 13.091 1.24 25.637 4.2 38.395 6.62 10.422 1.97 23.721 1.84 34.542 2.68 13.663 1.06 25.886 2.71 39.36 5.12-13.387 17.76-34.274 42.7-12.64 63.16 5.83 5.51 12.53 7.61 20.48 7.08 7.16-.49 13.82-3.83 18.48-9.29 21.27-25.28-8.65-45.72-9.92-58.15 1.74-2.29 1.5-1.56 5.33-2.15 1.11-1.77 3.64-5.95 5.37-6.41 20.53-5.46 39.06 2.95 61.35-3.83 14.64-4.45 26.75-16.27 38.9-17.77 17.73-2.19 38.95-1.5 56.32-5.35 6.59-1.46 18.12-11.4 25.33-15.61l1.1-.64c7.29.59 34.98 3.89 39.49 1.38 22.68-12.6 32.78-13.44 58.91-14.06-37.68 32.48-46.83 76.37-49.03 124.52-1.58 34.86 1.89 63.61 18.09 94.9 10.31 19.03 22.72 32.91 43.24 40.3-10.25 2.65-46.84 5.17-56.16 2.29-32.49-10.03-31.96-16.36-66.85-11.6-10.32-13.69-15.45-11.99-31.92-11.92-2.09 1.62-5.15 3.67-7.37 5.24-13.02.21-33.06.85-45.53-1.04-31.42-4.79-28.32-17.41-62.06-6.38-22.84-6.1-24.37-6.27-47.56-2.34-28.262-22.32-26.467-16.04-57.703-7.95-13.953 3.62-12.683-2.71-27.811 7.49-22.52-2.64-25.93-8.35-46.732 6.84-14.711.94-17.081 1.07-28.38 10.56-15.654-.49-20.828 6.59-31.72 6.82-25.857.54-40.541-8.19-66.257 5.01-7.961 4.09-30.857.54-40.964-1.12 54.57-34.05 59.216-117.05 50.265-174.23-4.284-27.36-17.421-69.59-41.079-86.36 7.812-.23 15.622-.54 23.428-.94m538.143-895.03c9.57-.358 15.06-.139 24.62.655-8.14 5.545-13.77 9.331-19.91 17.782-28.68 39.431-26.94 102.653-22.12 149.361 1.89 18.37 16.32 62.88 28.34 77.744 2.76 3.407 7.36 6.872 10.98 9.57-30.05 4.164-36.17-6.743-63.26-13.381-8.24-2.019-31.33 2.731-40.36-.961-11.45-4.682-25.2-12.456-36.42-18.086-18.29.664-35.49 4.694-53.52 3.472-9.56-.649-22.99-12.219-29.89-13.855-20.54-4.866-50.02-2.817-71.73-3.901-5.74.143-19.31-.283-24.098 2.029-19.502 9.42-28.534 10.625-50.112 6.919-12.546-2.154-31.653-2.399-44.61-1.406-10.053.77-21.367 10.097-31.354 12.487-13.588 3.53-28.753 2.17-42.122 5.5-6.831 1.702-15.097 7.99-22.683 11.39-19.499 8.738-32.035 7.651-51.986 11.528-8.906 1.398-15.008 1.771-23.945 1.821 21.394-13.98 31.453-35.236 41.63-57.744 20.837-46.081 24.63-169.121-25.106-199.461 23.599-.575 26.856 3.681 49.07 6.951 9.741 1.433 23.771-2.241 35.415 1.522 19.44 6.283 38.746 18.618 58.744 21.535 24.983 3.645 57.068-2.297 81.166 1.788 21.13 3.582 52.011 21.908 73.451 20.196 18.74-1.496 35.12-22.224 52.41-28.334 12.45-4.403 28.89 2.212 41.53.421 9.34-1.322 19.54-6.681 29.79-9.545 35.86 13.084 50.03 18.912 74.94-5.847 1.32-1.314 18.91-3.014 22.91-3.826 9.44-1.912 18.5-6.059 28.23-6.324M589.953 1736.94l871.197.21-.03 201.68-.01 5.49c.03 22.51-.47 47.44.16 69.74l-.08 4.92-47.38-.05c-.61-81.82-.66-163.64-.17-245.46-109.62 1.47-222.57-.2-332.59-.24l-446.069.05-.045 240.39.067 5.01c-7.037.05-41.931 1.13-45.297-1.26 1.063-22.41.614-56.06-.093-78.73z"/><path fill="#1c303d" d="M998.901 719.152c15.429-1.208 42.999.036 59.289.28l.78 362.668-.05 95.96c-.03 35 1.36 53.98-4 88.76l-10.13 3.01c-5.84 2-14.62 6.02-20.54 8.52-9.71-3.06-22.85-8.47-32.624-12.21-3.017-29.05-1.594-72.17-1.606-102.42q-.528-95.505.722-191.009l.098-166.958c-.034-23.369-1.362-61.942.174-83.223 2.751-3.051 2.948-2.217 7.887-3.378m-83.27 7.476c28.286-.019 42.878 7.728 69.218-4.056 1.421 122.579-1.718 246.868-1.866 369.628l-.196 82.67c-.114 14.51-.951 34.43-.142 48.59l-3.808.23c-12.984-29.16-35.98-49.1-63.282-64.1zM517.877 1699.14H1527.12c.19 7.68.75 23.86-.22 31.01l-1008.955-.35c.159-10.06-.032-20.56-.068-30.66m546.963-979.385c2.45.155 12.44.777 14.09 1.42 23.21 9.034 26.32 17.52 53.14 15.807l.8 420.358c-22.73 13.03-52.56 36.14-62.39 61.35l-4.33-.69c1.18-11.54.29-39.55.22-52.08l-.51-101.19zm93.3 13.618c1.87-.298 7.24-.34 9.4-.405 12.39 8.417 19.86 11.222 33.61 16.746a25659 25659 0 0 1 3.53 343.176c-12.84 13.78-24.23 26.19-35 41.76-4.46 9.72-5 9.3-15.47 12.75-4.09 1.34-10.02 4.2-14.1 6.04-1.04-48.19-.22-99.49-.34-147.88l-.84-269.905zm-255.669-6.962c3.06-.307 2.959-.323 5.971.275 2.429 8.795.558 82.798.547 95.888l-1.133 330.956c-6.332-2.94-14.255-6.99-20.871-8.58-2.638.67-3.59 1.09-6.313.98a449 449 0 0 0-4.585-8.75c-9.014-12.44-16.443-22.57-27.152-33.77-1.286-70.17.039-146.103.735-216.344l.719-146.384c29.136.152 26.777-13.014 52.082-14.271m-97.684 30.935c14.377-12.589 19.976-13.9 38.764-16.705.988 117.329-2.082 236.497-2.465 353.969-3.059-2.53-5.536-5.17-9.381-5.8-8.331 1.95-8.538 15.59-9.642 23.36-.66-2.73-1.266-4.9-2.09-7.58-2.002-24.63-20.048-54.16-35.627-72.93 1.937-10.32 4.444-26.32 8.164-35.55 23.755-3.461 10.377-11.228 3.125-23.601-5.354-9.133-4.081-8.976-12.684-15.908 3.405-18.864.265-23.555-.45-41.959-.188-4.84 6.566-12.733 7.642-16.189 2.602-8.349.331-25.42-.444-34.385 9.002-12.091 14.13-19.108 30.178-19.224 7.569-15.86 10.393-20.328-9.387-23.332-1.88-2.237-5.355-6.488-7.701-8.522-8.201-7.109-22.818-14.063-21.761-26.939.304-3.711 5.077-7.176 8.171-8.825 5.352-2.852 11.897-3.465 17.993-4.394-.188-6.828-.426-8.862-2.405-15.486m512.963-227.078c10.42-.398 17.27 4.316 23.48 12.311 28.14 36.221 32.46 180.407-22.51 192.251-25.26-5.457-31.98-29.106-36.92-51.268-9.18-41.108-21.24-142.382 35.95-153.294"/><path fill="#fff" d="M1310.94 545.033c11.64-.778 19.14 2.253 24.93 13.38 17.36 33.358 20.7 140.487-13.49 160.069-21.72 2.938-28.71-17.031-31.79-35.093-5.66-33.21-14.85-120.118 20.35-138.356"/><path fill="#1c303d" d="M1293.49 599.189c1.7-14.436 11.37-63.873 33.91-38.149 13.06 14.898 20.12 114.789-.63 121.481-14.25-9.662-1.01-63.973-1.23-80.322-.58-43.744-18.44-31.474-29.92-.214-.95-1.088-1.48-1.523-2.13-2.796"/><path fill="#1c303d" d="M1313.42 584.455c9.22 5.571-4.08 60.299-1.92 72.779 2.38 13.664-2.39 35.485 18.71 34.405l1.37-.082.55 1.763c-1.43 5.613-6.72 12.32-11.16 16.069-34.81 8.115-27.33-100.715-7.55-124.934"/><path fill="#575b65" d="M1295.62 601.985c-.34 1.312-1.22 5.715-2.21 6.457l.11-.176-.18-.047c-.69-2.032-.46-6.864.15-9.03.65 1.273 1.18 1.708 2.13 2.796"/><path fill="#1c303d" d="M1224.4 752.576c17.52-1.503 22.36-1.146 36.82 9.423.45 9.924-.25 23.433-.08 34.008-11.16 13.299-11.69 13.577-2.19 28.408-5.49 24.791-6.16 21.009-20.14 40.033 5.22 23.193 19.42 20.983 25.26 41.002 5.87 20.42-14.57 43.823-14.1 62.543.5 19.674 10.72 29.475 11.07 51.577-5.89 9.08-13.87 19.37-20.25 28.87-11.86 18.87-13.03 24.07-18.27 44.83l-2.15-.35c-2.82-3.39-3.72-3.88-7.64-5.97-2.77-45.73-1.63-95.853-2.03-141.985l-2.79-192.034c6.12.116 10.37.056 16.49-.355m-510.055-246.41c26.279-2.967 42.155 24.056 48.43 46.167 13.519 47.835 12.124 116.151-11.048 160.602-23.8 45.656-61.066 6.96-67.539-27.724-8.885-41.74-7.974-97.822 13.88-135.816 24.402-42.425 50.004-2.448 52.995 27.282 3.981 39.566 5.62 85.426-14.866 120.563-3.403 5.837-15.225 13.723-22.001 7.215-12.958-15.402-13.987-45.175-15.404-64.622-.913-12.531-1.018-55.421 16.37-57.656 1.494-.102 1.691.76 2.721 1.988 1.364 10.473-10.251 41.264-10.395 56.272-.645 13.386-1.291 32.111 6.556 43.487 3.409 4.943 12.415 5.009 15.412-.701 13.599-25.911 16.314-70.933 12.293-99.313-1.846-13.991-10.664-43.36-28.443-31.295-19.782 15.994-23.568 56.256-22.871 79.788.641 21.644.948 78.684 27.849 84.199 15.397 3.157 29.217-16.767 33.482-29.911 4.53-13.957 8.212-28.991 9.178-43.937 2.435-31.973 2.398-62.21-8.458-92.722-8.852-24.878-31.327-40.228-52.429-17.85-23.6 25.027-29.365 75.255-29.168 107.929.175 29.073 6.018 69.099 27.55 90.871 11.195 10.906 21.07 10.454 35.031 9.968-26.541 30.052-49.497-1.343-61.151-26.21-25.118-53.598-20.376-180.932 42.026-208.574m309.875 801.594c4.78 1.83 25.9 15.51 31.75 18.87.13 37.69-.79 75.67-1.02 113.45-6.85 1.51-12.17 3.05-18.66 5.83-6.45 2.76-6.71 4.28-12.95 2.32-10.71 1.75-21.18-1.66-32.032-3.76-.215-38.8-.199-77.61.051-116.41 11.811-6.85 21.591-12.66 32.861-20.3m-382.073 472.72 37.227-.39-.309 158.58-.01 6.27-.233 35-36.734.86c.708-66.47.121-133.78.059-200.32m137.9-517.42c25.645 11.33 37.841 14.04 65.805 15.2-12.905 9.87-27.259 17.04-7.223 29.14-.054 27.51-1.34 55.08-1.001 82.63.067 5.45.816 19.99-.17 24.28l-1.8.27c-8.818-4.28-11.964-8.44-18.702-15.26-9.876-1.59-26.498-.74-34.787-3.74-.002-.25-.029-2.03.073-2.37 2.792-9.39-1.914-17.9-.868-27.7.524-4.91 2.111-10.56 3.361-15.42l-5.667-15.74c10.538-12.71 11.855-15.52 7.029-31.47-19.266-7.27-20.822-14.11-5.882-28.26zm590.563 517.78 35.8.01c-1.39 66.76.38 133.56-.65 200-11.61-.19-22.85-.38-34.47-.11l-.2-35.76.1-6.48c-.53-52.55-.73-105.11-.58-157.66m-164.27-470.79 1.27.88.02 97.18c-17.56 14.83-46.33 10.28-69.32 14.11-1.36-2.4-.33-88.09-.33-97.88 26.28 2.72 45.53-2.17 68.36-14.29m-360.877 1.91c24.134 11.64 36.445 12.94 62.667 13.05-.064 11.57.541 107.19-1.523 110.09-20.864-8.41-24.058-9.81-46.119-6.84-6.664-3.23-10.268-5.71-16.45-9.89 1.349-35.26.077-71.21 1.425-106.41M1257.65 1266c2.21-.14 3.75.29 5.47 2.1 10.76 11.32.64 31.79-.1 44.33-.5 8.69 1.54 22.72 2.59 31.46-1.88 2.84-4.98 6.66-7.11 9.46.85 11.73 4.49 37.47-2.91 47.39-3.53 4.74-25.01-.37-32.83.05-3 .96-5.34 2.39-7.69 1.59-.85-9.67-.5-24.3-.55-34.28l-.3-63.02 6.83-7.8-7.11-7.52c-.28-4.26-.37-8.83-.52-13.13 18.29-1.98 27.32-3.68 44.23-10.63m70.63 203.78c2.97-7.84 9.99-23.47 20.49-15.81 12.78 9.82 20.8 33.24 22.84 48.95 4.43 34.04 6.34 80.65-12.82 110.83-9.51 14.98-34.55 22.28-48.8 9.68-19.11-16.91-26.15-48.56-28.56-72.98-2.56-38.53.79-86.57 25.04-118.41 8.47-11.13 24.75-15.66 35.56-5.09 4.82 4.72 6.48 10.42 8.67 16.66-42.93-22.19-55.48 44.82-55.3 74.39.15 25.78-.51 105.68 44.32 97.16 35.12-6.69 23.75-170.89-7.45-145.7zm-614.658-48.54a92 92 0 0 1 2.353 0c6.837.14 17.531.88 21.821 6.46 20.515 26.65 25.999 79.84 24.331 112.01-1.774 25.7-5.322 62.7-24.585 81.76-12.516 12.38-36.016 7.14-45.713-6.88-20.722-29.95-17.586-74.17-14.488-108.91 1.484-16.64 7.309-41.99 20.638-52.91 7.399-5.91 14.213-1.79 18.901 4.92 2.898 6.69 4.735 13.54 6.805 20.53-4.111-4.79-10.765-14.24-17.777-12.8-18.217 11.77-17.814 97.51-13.951 119.5 9.475 53.96 48.026 32.8 54.526-10.42 5.64-37.51 13.619-118.51-33.81-133.52-7.219-2.28-18.472 3.61-23.975 7.99 4.476-15.27 8.586-23.71 24.924-27.73m268.891-88.37c.475.53.95 1.06 1.425 1.6.681 22.63.606 91.97.694 109.74-12.118-1.61-25.144-1.44-37.332-2.72-10.116-1.06-20.983-3.66-31.028-5.72-1.603-3.11-.329-65.72-.232-74.77l13.707 10.7c17.891-15.96 33.017-25.52 52.766-38.83"/><path fill="#1c303d" d="M1314.92 1413.32c6.65-6.32 11.02-11.25 21.04-11.26 9.18-.01 18.47 6.59 24.28 13.32 29.32 33.96 36.32 88.4 33.69 131.65-.64 10.64-2.52 30.67-5.62 39.98 14.49.01 29.75.26 44.18-.09l65 69.7c7.78 8.34 25.52 26.37 31.48 34.48-32.67 1.41-74.2.15-107.33.14l-.75-4.62c29.14 1.53 65.86.55 95.46.4-26.79-31.02-59.14-63.36-87.15-93.78-13.75-.05-27.89.06-41.6-.22-4.93 17.67-15.57 49.96-32.5 59.53q-1.32.75-2.67 1.44c-20.61-2.6-27.05-8.46-42.8-21.33 27.83 11.74 55.03-1.03 64.31-29.96 13.51-42.12 12.96-98.61-6.6-139.02-13.29-27.45-11.09-57.32-52.42-50.36m-251.05-81.97c11.02 5.88 43.62 30.94 55.34 39.55 5.51-2.83 6.95-3.91 11.71-7.6l-.07 59.59-9.88 4.55c-10.21 7.11-45.22 18.99-56.35 13.69-3.28-8.78-1.01-95.11-.75-109.78"/><path fill="#b97639" d="M528.166 1687.77c18.445-1.57 42.68-.89 61.628-.84l95.713.03 352.133-.44 285.55-.33 65.27-.22c5.22-.02 28.53-.32 32.43.65l.75 4.62c-26.86 1.75-65.63.71-93.35.81l-173.48.59-628.697-1.65z"/><path fill="#1c303d" d="M661.166 1585.59a274.4 274.4 0 0 1-6.568-69.14c.974-36.16 8.267-75.61 35.359-101.57 17.449-16.72 29.719-15.96 44.978 1.18-8.275-1.53-18.542-3.05-26.704-1.12-25.097 5.93-27.48 32.03-31.951 52.64-8.408 38.75-13.482 79.9-5.224 119.11 3.451 16.39 11.95 35.81 26.915 44.75 12.353 7.04 20.522 5.51 33.26 2.57-35.84 44.67-61.473-8.11-69.882-40.95-15.444.52-30.899.62-46.349.32-5.19 5.03-10.699 10.87-15.421 16.38-22.769 26.56-48.675 51.6-71.413 78.01l-2.053 3.22c-3.774-.29-5.595.27-8.103-1.62 2.366-3.75 22.262-24.9 26.676-29.72l66.985-72.94c15.292.26 34.575 1.02 49.495-1.12M1322.19 506.197c13.42-1.171 24.13 2.304 33 13.014 27.01 32.597 28.78 86.681 27.44 127.35-1.07 32.627-9.09 75.876-34.18 98.669-17.69 16.061-36.27 6.299-49.8-9.432 4.08 2.205 7.86 3.746 12.11 5.56 32.26 6.628 48.17-31.45 53.82-56.629 6-27.108 6.57-54.71 3.86-82.554-2.56-26.281-11.52-72.722-42.75-79.785-13.51-3.055-24.2 4.443-34.62 11.837 9.07-15.182 14.83-20.987 31.12-28.03"/><path fill="#b97639" d="m679.065 1938.67 692.125-.17-.1 6.48-692.035-.04z"/><path fill="url(#a)" d="m1266.65 1140.54 2.05 1.72c-42.51 49.73-80.75 79.35-139.46 108.1-13.37 6.54-26.49 14.7-40.57 20.69-18.36 7.81-36.17 13.68-54.12 22.53 36.09 16.02 63.51 35.14 93.58 60.01l-7.99 6.52c-9.16-7.44-18.3-14.76-27.63-21.98-20.99-16.24-45.13-26.6-67.38-40.92-35.32 19.96-64.471 35.1-96.137 61.55l-7.534-7.07c33.326-26.77 54.524-39.38 92.941-58.79-58.882-20.66-143.546-58.63-190.522-99.73l3.052-.7c33.416 27.23 81.393 53.75 121.489 69.11 27.054 10.37 49.126 16.06 76.101 28.58 16.11-8.12 28.24-12.83 45.46-18.62 9.25-2.59 23.68-8.19 32.12-12.41 65.94-27.84 118.28-63.83 164.55-118.59"/><path fill="#1c303d" d="M1066.38 1269.48c.33-11.6 2.62-23.05 6.77-33.89 13.78-36.22 49.64-62.77 83.93-78-9.76 38.18-20.81 77.18-57.09 99.54l2.11 2c-8.44 4.22-22.87 9.82-32.12 12.41z"/><path fill="#cccfd5" d="m1099.99 1257.13 2.11 2c-8.44 4.22-22.87 9.82-32.12 12.41l-3.6-2.06c12.5-2.4 22.5-6.1 33.61-12.35"/><path fill="#1c303d" d="M890.291 1159.43c45.642 20.99 88.157 54.23 89.673 108.92-56.925-7.03-78.805-59.88-89.673-108.92m233.259 105.89c31.1-2.19 59.5 13.92 83.16 32.06-14.28 8.58-24.07 13.27-40.47 15.37-11.67 1.77-23.53 1.8-35.21.08-18.24-2.87-39.4-12.24-50.45-27.56 12.98-11.72 25.75-17.71 42.97-19.95m-214.907 2.09c21.582-.52 40.125 5.34 56.621 19.2a62 62 0 0 1-3.61 4.05c-18.036 18.18-37.458 23.2-61.923 23.67-23.337-.63-40.167-5.12-59.875-17.26 23.323-19.11 38.802-27.65 68.787-29.66m-135.515-229.75c30.176 26.97 50.003 86.7 29.594 124.8l-1.48-.08c-21.895-18.41-34.65-47.62-36.338-75.94-.951-15.93 4.273-33.41 8.224-48.78m490.742-.86c6.57 6.88 10.77 42.52 10.38 53.03-.96 27.6-12.83 53.69-33 72.56-7.24-4.2-9.05-16.37-9.78-24.03-3.92-41.26 6.82-69.6 32.4-101.56m-604.566 48.6c58.545 3.43 86.26 26.58 114.951 74.72-45.037-3.44-74.56-20.06-102.84-55.81-4.141-5.23-10.099-12.61-12.111-18.91m712.866 1.02c2.94-.26 5.94-.9 8.57.15-.57 1.48-.81 2.09-1.78 3.36-32.67 42.77-51.7 62.09-104.71 70.74-3.68.37-3.9.52-7.69-.09l-.2-1.27c27-41.22 53.74-69.08 105.81-72.89m-638.716 90.97c35.063-5.59 77.885 4.84 101.235 33.61 4.083 5.03-21.447 6.79-25.306 7.1-44.522.04-69.467-8.55-105.804-35.6 9.467-2.82 20.077-4.13 29.875-5.11m543.496-.99c18.18-1.85 43.09 1.64 60.74 5.93-23.11 19.62-45 28.04-74.23 33.41-8.42 1.25-16.94 1.75-25.45 1.51-6.74-.14-27.63-1.24-32.02-5.85.11-6.81 9.33-11.01 14.51-14.44 17.59-11.66 35.4-18.57 56.45-20.56m-80.5 50.89c27.33-2.84 51.04 4.37 73.4 19.8-13.27 8.54-32.15 15.21-47.74 17.62-27.38 4.16-52.3-.21-75.09-16.84 20.06-12.54 26.41-16.77 49.43-20.58m13.07-123.53c14.49 23.36-3.8 85.86-23.83 103.32-7.5 6.53-11.64 9.94-20.16 14.89l-1.08.6c-1.83-1.68-1.34-.83-1.38-3.89-.65-54.75 11.55-77.04 46.45-114.92m-376.321-.35c6.938 4.54 17.997 18.33 22.973 25.08 17.904 24.29 29.682 67 24.563 96.97-24.386-14.14-36.98-34.18-45.328-60.7-6.433-20.43-3.863-40.45-2.208-61.35m-2.469 125.01c23.926-2.08 46.336 4.78 63.826 21.47-19.409 11.46-32.89 15.08-54.919 16.77-30.194-1.64-38.516-6.51-65.7-18.97 18.708-11.73 34.98-17.52 56.793-19.27M636.183 975.464c46.986 9.319 75.188 47.806 82.534 93.336-43.003-13.49-72.182-50.37-82.534-93.336m65.597-57.477c2.205-38.204 14.139-75.245 45.664-99.366 2.526 24.72 5.537 48.893-6.58 71.774-8.99 16.978-21.045 32.711-38.028 42.307-1.494-3.15-1.017-10.704-1.056-14.715m699.89 58.273c.12.106.9.718.85.95-5.17 27.72-19.17 53.13-41.57 70.72-10.69 8.4-21.81 11.66-34.7 15.38-.32-.28-1.52-1.22-1.42-1.84 6.11-40.7 38.21-77.13 76.84-85.21m-107.02-157.6c29.66 26.408 42.93 58.011 44.62 97.324-.07 4.149.1 13.457-1.11 16.729-42.99-29.5-49.97-65.203-43.51-114.053m-641.524 60.681c13.054 5.054 30.478 24.563 37.343 36.857 10.366 18.564 10.807 38.495 5.216 58.578-3.941 1.311-9.404-3.05-12.453-5.34-25.29-18.994-36.5-60.044-30.106-90.095m734.964-.247c2.44 2.894 1.97 9.279 2.19 12.885 1.83 30.103-9.39 56.992-31.38 77.482-2.26 2.104-6.69 6.15-10.02 6.027-3.09-13.758-7.24-28.575-3.77-42.479 6.41-25.683 21.4-40.074 42.98-53.915m-36.65 698.846c-.79 2.54-1.88 7.07-2.38 9.58-5.02 29.23-28.15 25.58-36.63-.43-11.98-36.73-12.74-85.75 1.49-122.1 4.36-11.14 11.45-15.98 21.82-19.8-22.34 21.39-16.4 39.94-17.53 68.22-.5 12.45 3.44 100.25 31.38 64.55zM708.974 992.107c-.339-19.184 8.635-41.328 21.575-55.559 2.296-2.525 25.818-22.372 28.774-17.127 1.1 1.953.177 14.224-.344 17.079-4.57 27.077-22.353 47.717-43.397 64.08-2.25 1.75-3.242 2.46-5.667 3.75l-1.338.92c-.689-4.18-1.401-7.013-1.795-11.294z"/><path fill="#cccfd5" d="m706.782 993.956 2.192-1.849c.063 6.584-.349 5.904.941 12.223l-1.338.92c-.689-4.18-1.401-7.013-1.795-11.294"/><path fill="#1c303d" d="M731.323 1067.89c-10.006-26.37-4.007-52.88 11.832-75.291q5.019-7.08 10.48-13.826c12.042 33.527 9.227 73.827-18.208 99.197-1.146-2.03-1.115-2.18-2.601-3.8-.368-2.83-.608-3.51-1.503-6.28m555.897-89.271c19.06 18.538 29.5 44.761 25.04 71.391-1.04 6.31-2.63 12.53-4.74 18.57l2.2 2.33c-1.3 2.68-1.85 3.83-3.52 6.28l-.78-1c-5.32-1.77-10.34-10.79-13.3-15.52-16.55-26.44-14.05-53.67-4.9-82.051"/><path fill="#cccfd5" d="m1307.52 1068.58 2.2 2.33c-1.3 2.68-1.85 3.83-3.52 6.28l-.78-1c.77-2.61 1.44-4.97 2.1-7.61"/><path fill="#1c303d" d="M1281.72 915.915c30.45 14.549 46.84 36.251 49.63 70.385 2.47 2.669-.2 5.06 2.28 9.538-.21 2.633-.65 4.972-1.1 7.572h-2.35c-20.06-11.721-40.11-37.482-44.98-60.422-1.95-9.209-2.86-17.714-3.48-27.073"/><path fill="#fff" d="M1331.35 986.3c2.47 2.669-.2 5.06 2.28 9.538-.21 2.633-.65 4.972-1.1 7.572h-2.35c1.44-7.066.33-10.737 1.17-17.11"/><path fill="#1c303d" d="M728.528 1461.21c18.225 30.71 15.987 81.52 8.425 115.18-2.311 10.29-11.354 34.06-24.052 30.94-12.269-3.01-14.647-36.54-15.149-45.81.244-2.64-.572-7.36 2.008-8.06.435 7.93.33 21.27 6.821 26.97 4.487 3.94 11.461 2.3 13.692-3.05 12.506-29.95 14.588-80.53 6.472-111.74z"/><path fill="#b97639" d="M589.265 1943.81a24313 24313 0 0 0-395.074-1.18c-40.667.28-81.335.01-121.993-.82-12.98-.15-41.155.64-52.819-.53 2.264-2.04 512.394-1.21 570.234-2.59.707 22.67 1.156 56.32.093 78.73-.759-5.74-.505-19.5-.504-25.66zm871.855-4.98 376.55 1.12 124.33.54c21.03.07 49.26-.87 69.27.48-15.71 1.06-34.41.64-50.34.7l-79.99.55-299.14 1.15c-44.74.16-96.62-.66-140.69.95z"/><path fill="#1c303d" d="M719.879 558.514c23.053 11.876 15.792 105.98 3.092 118.531-2.439-.831-2.575-2.366-4.325-5.255-4.282-14.476-2.745-29.626-.454-44.341 1.92-12.337 14.022-44.402 1.964-53.175-4.896-1.18-7.066.569-11.999.645l-.008-1.976c3.634-7.065 5.502-9.551 11.73-14.429M1338.4 1475.46c10.86 5.58 7.77 82.74 4.43 95.98-.82 3.24-3.83 4.33-6.34 5.63-1.53-2.9-2.59-4.85-3.35-8.08l-.95-4c-4.61-19.88-9.11-71.38 4.95-87.99zm-630.478-.13c25.302 16.31 14.066 68.97 7.211 93.13-11.737 29.18-10.738-84.22-8.367-90.26z"/><path fill="#bf2831" d="M1019.95 1466.92c.29.32.77.8.9 1.18 3.05 8.78 10.48 14.96 14.1 23.91 2.13 5.25 2.34 10.18-.07 15.44-3.27 7.17-7.57 8.85-14.27 11.32-17.4-1.43-21.603-12.85-16.29-29.16 2.19-6.74 11.07-16.9 15.63-22.69"/><path fill="#1f2328" d="M701.78 917.987c.039 4.011-.438 11.565 1.056 14.715 1.076 7.181 1.099 22.785 1.555 30.937.31 5.545 2.641 26.868 2.391 30.317.394 4.281 1.106 7.114 1.795 11.294 3.694 18.03 12.3 45.08 20.373 62.05l2.373.59c.895 2.77 1.135 3.45 1.503 6.28 1.486 1.62 1.455 1.77 2.601 3.8-.962 5.04 8.587 18.32 11.711 23.02 23.159 34.77 47.655 64.5 79.792 91.48l-3.052.7-5.568-5.03c-.954-.62-.826-.45-1.468-1.29C736.524 1120 693.9 1022.28 701.78 917.987"/><path fill="#9a9da5" d="m728.95 1067.3 2.373.59c.895 2.77 1.135 3.45 1.503 6.28-2.349-2.65-2.522-3.48-3.876-6.87"/><path fill="#b97639" d="M634.936 2013.67c64.187.41 135.42-.13 199.044 3.23-8.011 1.21-44.251.9-53.722.93l-90.621.2c-17.236.04-37.711-.38-54.634.65z"/><path fill="#1c303d" d="M973.953 1289.29c2.045.63 17.199 4.56 8.078 9.67-17.799 9.97-35.153 18.86-50.897 32.25-2.586 2.2-5.671 4.69-8.385 6.74-5.795 5.36-6.934 8.15-6.793-1.45.057-3.96-.097-8.15-.178-12.13 19.586-4.02 50.012-15.17 58.175-35.08"/><path fill="#b97639" d="m1461.27 2014.06 113.73 1.14c19.15.31 41.48 1.53 60.3 1.13 2.52-.5 12.58-.41 14.42 1.17l.03.12c-.15-.05-.29-.1-.43-.15l-.68.58c-2.37.09-3.32.04-5.63-.32l-181.82 1.25z"/><path fill="#ebd7c9" d="M1635.3 2016.33c2.52-.5 12.58-.41 14.42 1.17l.03.12c-.15-.05-.29-.1-.43-.15l-.68.58c-2.37.09-3.32.04-5.63-.32-2.88-.18-5.73.54-7.71-1.4"/><path fill="#1c303d" d="M1068.54 1290.37c4.83 1.42 9.82 9.48 14.86 13.23 14.67 10.89 30.12 15.62 47.5 19.92-.02 3.21 1.76 19.15-2.06 17.73-3.45-2.7-6.86-5.59-10.27-8.38a209 209 0 0 0-19.98-14.54c-11.5-7.34-24.12-13.14-35.22-21-2.14-1.51 4.53-6.42 5.17-6.96"/><path fill="#1f2328" d="M1339.27 915.984a312.25 312.25 0 0 1-70.57 226.276l-2.05-1.72c16.76-21.33 28.86-38.38 39.55-63.35 1.67-2.45 2.22-3.6 3.52-6.28 12.46-24.68 17.02-41.19 22.81-67.5.45-2.6.89-4.939 1.1-7.572 3.28-15.443 4.58-47.12 4.53-63.125 1.21-3.272 1.04-12.58 1.11-16.729"/><path fill="#1c303d" d="M820.595 1144.51c2.409 6.04 2.808 14.04 4.253 20.51.399 1.79 3.232 15.26 2.606 15.78-.913-.14-1.222-.72-1.902-1.47-3.874-3.99-7.715-8-11.52-12.05 2.805-8.05 4.263-14.78 6.563-22.77m401.865 8.25c1.67 2.28 5.78 12.2 7.31 15.56-3.64 2.94-6.37 4.91-10.23 7.53-.55.49-2.23 2.37-3.17 1.72.12-1.11 5.45-21.97 6.09-24.81m-331.269 53.99c1.247 1.33 10.82 18.97 11.908 21.66-11.586-6.93-15.365-8.4-11.908-21.66"/><path fill="#9a9da5" d="M1349.59 1577.96c.96-8.11 2.97-15.95 3.26-24.46.1-3.21.03-21.15.74-22.68.1.02.2.03.3.05 3.25 5.2-.62 39.46-2.45 47.07z"/><path fill="#1c303d" d="M1154.57 1210.73c1.63 10.71-3.35 10.96-10.89 17.92-.99-6.51 6.51-13.78 10.89-17.92"/><path fill="#575b65" d="M697.752 1561.52c-.703-5.1-1.645-31.14.29-35.23l.249-.09.155.09c.488.82 1.327 24.57 1.314 27.17-2.58.7-1.764 5.42-2.008 8.06"/><path fill="#1f2328" d="M1198.03 1276.98c9.19.09 9.56-2.19 10.59 6.45-4.85-1.49-6.47-3.01-10.59-6.45"/><path fill="#cccfd5" d="M819.973 1104.59c.824 2.68 1.43 4.85 2.09 7.58.05 2.7.095 2.14-.632 4.65l-.433-.52-.164.18-.099-.06c-1.262-2.47-.836-9-.762-11.83"/><path fill="#283b46" d="M726.745 1465.64c-.33-1.21-3.47-8.65-2.227-8.84 1.238.56 1.962 1.88 2.768 2.91l1.242 1.5zm601.535 4.14 3.99-.32c-.74 1.12-3.88 6.95-4.53 7.09-.69-.6.42-5.65.54-6.77m-345.635-246.32c-.136.68-.514 3.62-1.201 4.19-1.019.11-2.338-3.43-2.607-3.96zm83.505-5.46 4.33.69c-3.11 5.23-3.24 4.67-4.33-.69"/><metadata><recraft-signature>{&quot;signed_by&quot;: &quot;recraft&quot;, &quot;signature_b64&quot;: &quot;x56kAXdPG80uOfIerfTVkPW0Zdk2MpHHz9mYSi08wV5avEQtO0aFmcim+u6rWtHCZZKCrJMkp8cVpYtE4mTNCA==&quot;, &quot;signing_algo&quot;: &quot;Ed25519&quot;, &quot;generation_timestamp&quot;: 1777253781, &quot;identifier&quot;: &quot;b40ecf54-e011-4789-a8db-c3b677e44f08&quot;}</recraft-signature></metadata></svg>