<svg xmlns="http://www.w3.org/2000/svg" width="1024" height="1024" preserveAspectRatio="none" style="display:block" viewBox="0 0 2048 2048"><defs><linearGradient id="e" x1="377.588" x2="376.283" y1="1515.47" y2="1506.66" gradientUnits="userSpaceOnUse"><stop class="stop0" offset="0" stop-color="#3c414e"/><stop class="stop1" offset="1" stop-color="#545959"/></linearGradient><linearGradient id="d" x1="962.175" x2="1029.33" y1="676.904" y2="606.003" gradientUnits="userSpaceOnUse"><stop class="stop0" offset="0" stop-color="#2f3946"/><stop class="stop1" offset="1" stop-color="#4c5559"/></linearGradient><linearGradient id="c" x1="1037.5" x2="1030.5" y1="1125.23" y2="1125.77" gradientUnits="userSpaceOnUse"><stop class="stop0" offset="0" stop-color="#455254"/><stop class="stop1" offset="1" stop-color="#414758"/></linearGradient><linearGradient id="b" x1="1109.05" x2="1104.88" y1="809.682" y2="757.403" gradientUnits="userSpaceOnUse"><stop class="stop0" offset="0" stop-color="#3b4a4b"/><stop class="stop1" offset="1" stop-color="#50555e"/></linearGradient><linearGradient id="a" x1="175.294" x2="177.706" y1="1413.52" y2="1406.48" gradientUnits="userSpaceOnUse"><stop class="stop0" offset="0" stop-color="#3f414c"/><stop class="stop1" offset="1" stop-color="#565d5c"/></linearGradient></defs><path fill="#424c53" d="M1101.46 673.667c49.63 22.227 84.4 54.965 110.41 102.133 29.01 52.607 49.47 54.392 93.09 87.412 55.02 41.643 125.01 91.152 155.92 153.718 3.58 7.32 9.27 22.82-1.78 25.23-17.99 3.92-37.8 4.48-55.48 9.22 12.39 70.45 25.35 140.8 38.86 211.04 5.79 29.29 14.09 75.85 22.09 103.97 14.69 2.34 24.89 7.57 24.82 23.62 2.18 9.74 14.25 37.06 18.57 47.02 18.38.1 36.7.38 55.05-.19 9.52-.29 9.48-3.59 17.65-5.99 1.26-.36 13.44.23 15.61.34 3.36-7.73 12.99-43.63 15.33-53.62 3.7-15.75 14.57-50.53 16.15-65.38 1.76-16.48 2.32-51.81 2.04-68.71-10.75-1.6-21.66-4.25-32.29-6.63-1.35-.25-6.31-1.12-6.25-3.35.84-32.37 61.56-77.82 88.75-85.48l3.94-1.09c3.03 2.68 5.2 4.53 8.02 7.55 25.32 18.04 51.17 36.97 65.13 65.79 2.39 4.92 3.92 9.04 1.4 14.23-6.01 4.79-28.54 8.36-36.47 8.84-.23 17.9-1.89 65.15.39 79.64 5.32 33.87 19.55 74.78 26.76 108.58 10.92-4.16 24.16-4.01 29.59 8.17l.16 2.27c-10.25.4-20.29 1.06-30.36 2.92 7 .88 21.87 2 29.06 2.06l2.65 2.21c-11.88 2.63-27.31 3.91-39.68 5.32l-.01 1.04c5.43.54 18.7 1 21.86 4.72-5.63 4.74-52.6 5.84-62.07 5.71-.58.93-1.17 1.84-1.78 2.75 13.44.07 28.08 2.39 40.34 2.22 1.03 0 8.23-.44 8.64 1.29-.17.61-.74.64-1.31.85-14.8 2.36-34.16 2.17-49.52 2.27-30.98.22-69.45.9-99.74-3.82q27-1.41 53.97-3.42l-4.84-2.25c-8.35.25-53.08-.45-57.26-4.77 2.76-3.66 13.6-4.39 18.17-5.03l-.1-1.86c-8.58-1.26-23.27-1.7-30.8-3.95l-.88-2.14-.3-3.25c-21.19.01-43.58-.44-64.66-.1 1.66 3.57 3.3 6.07 3.21 9.94-2.9 3.37-28.9 2.11-34.97 2.1-19.11.09-38.22-.14-57.32-.69 1.35 8.25 2.26 11.95 4.73 19.95 3.99 2.23 4.36 1.55 5.92 4.86-3.89 8.93-59.27 5.07-70.7 4.94-5.97.39-30.88-.17-33.65.64.18.4.36.79.54 1.19 28.31 2.92 64.15 3.96 90.92 7.85-49.59 4.57-104.44.17-154.17-2.05-2.88-.13-5.31.11-7.7 1.77 1.48 6.72 35.01 5.89 42.8 6.29 24.9 1.36 49.8 2.53 74.72 3.51 9.75.34 35.35.53 43.57 2.56.55.39.86.42.99.93-.51.69-2.38.11-2.94.02a3163 3163 0 0 1-219.07 2.13c-65.23-1.64-130.42-5.74-195.59-3.95-19.218.53-38.59.59-57.82.84a4567 4567 0 0 1-183.581-.19c-29.573-.57-74.543.56-102.783-5.67 22.566-2.94 51.369-2.8 74.183-3.26l95.795-2.13c18.55-.3 35.416.09 53.912-1.83-12.183-7.47-218.159 5.11-229.026-5.66.256-.49.511-.97.766-1.46 10.261-1.75 35.732-3.65 44.483-6.59l-.13-.94c-10.787-1.68-61.593 3.16-62.258-6.57 4.078-6.2 16.427-12.84 22.906-20.03-15.171-.56-40.943.22-54.664-1.19-10.857 1.12-101.16 2.44-105.575-.63.101-3.62.988-3.75 3.195-7.39-3.004-2.91-45.632-.46-52.886.19 11.08 3.12 21.174 2.57 32.499 4.1-15.352 5.59-27.155 3.57-43.883 7.25 6.751.97 24.805 1.47 28.167 4.58-1.322 1.89-3.647 3.17-5.786 3.35-17.388 1.46-34.99 1.1-52.462 2.66.515 1.36.575 1.58 1.244 2.8 9.571.57 22.33 1.92 31.573 2.1 5.184-.14 6.371-.5 11.138 1.01-8.612 4.8-130.614 2.7-146.723 1.66-.601-.04-4.547-.13-4.687-1.18.31-.5.602-.44 1.323-.7 12.279-.26 25.797-1.45 38.319-1.95 5.008-.96 7.032-.99 12.26-.92l-1.845-2.09c-2.503-.06-15.714-1.27-18.89-1.6-13.887-1.45-34.791 1-46.97-3.92l-.523-1.37c4.133-2.34 10.067-2.4 14.925-2.85 1.856-.72 4.643-.86 4.828-2.81-6.647-.86-22.123-2.48-27.42-4.45l1.324-3.15c6.09-.27 15.044-.27 20.645-1.94-7.027-3.96-61.797-2.21-73.273-1.74l-.056 2.2c8.115.38 23.767.8 31.197 2.5-3.415 1.54-20.136 1.88-25.091 2.03-36.219 1.07-83.135 3.39-118.413-3.74 8.801-1.32 22.206-1.05 31.437-1.13 3.431-.58 10.29.32 10.804-2.73-9.007-.78-56.215-1.28-60.06-4.73l1.09-1.16c7.751-3.11 16.78-.49 23.291-2.42 10.143-3.02 8.79-7.6 21.57-6.79 4.933-8.29 18.028-60.16 20.892-72.51 1.03-4.44.707-37.19-.33-43.21-2.21-.31-4.234-.64-6.429-1.06-6.211-.51-6.705-.21-12.746-1.62-6.187-1.01 1.097-11.18 3.021-13.73 11.92-15.79 30.016-27.59 48.447-34.23 2.169-.78 4.53 1.66 5.976 2.79 9.253 6.66 43.706 31.93 36.828 44.98-3.727 1.89-16.762 4.17-22.033 5.45-.051 9.43-.765 39.17.469 47.48 2.954 19.88 11.357 48.28 16.665 68.52 15.469-3.46 17.876-4.82 31.699 2.35 16.278-7.76 22.237-8.82 38.125-.74 6.355-24.73 12.55-50.19 18.196-75.06 2.581-11.37 10.742-39.34 11.245-49.76.934-19.39.473-43.73.832-63.77-9.544-1.67-18.068-3.52-27.48-5.65-4.442-.44-8.549-.38-12.317-2.54-13.154-19.97 71.861-87.51 94.612-84.1 3.118.47 5.156 3.45 6.801 5.52 23.669 17.3 46.424 35.13 62.226 60.36 3.779 6.03 8.846 13.13 4.725 20-7.189 4.97-28.221 6.68-38.07 8.02.02 45.64-2.389 82.53 12.101 126.55 6.29 19.11 10.232 41.11 16.454 60.68 19.951-7.92 24.095-8.78 40.994 5.84l15.388-.74c3.647-4.32 22.433-27.44 24.202-31.49 6.104-13.97 11.407-40.3 15.557-55.95 5.916-22.31 11.435-45.02 17.337-67.31 3.043-11.5 5.287-28.97 10.639-38.68-3.391-3.65-6.235.38-11.037-1.66l-.013-3.31c-4.684-2.07-18.852-7.31-24.054-8.6-4.601-2.79-7.527-5.21-5.199-11.59 5.267-14.42 12.801-27.71 20.742-40.77 35.939-59.13 87.602-94.58 144.877-130.54-7.39-.39-16.483-1.65-24.246-2.26-14.098.33-25.392-.3-19.668-18.55 4.402-13.81 13.178-26 21.933-37.371 44.769-58.132 108.344-98.661 165.529-143.366 8.779-6.863 17.6-14.058 27.224-19.63-6.297 9.083-15.726 16.129-24.309 23.093 6.039-2.149 8.035-3.432 13.379-6.642 2.782-3.31 13.711-7.915 18.248-10.146-3.134 5.546-3.601 6.846-7.744 11.684-.218.821-.229.749-.882 1.331-2.289 3.294-3.679 3.912-2.397 7.517l3.652-2.895 2.592 2.321-4.831 5.364c2.284-1.117 2.907-1.257 5.426-2.003 1.431-1.586 3.146-3.034 4.739-4.483l2.776 3.756a133 133 0 0 0-5.138 5.898c1.678.324 1.94.586 3.282.159 16.034-12.699 30.544-22.579 41.629-40.138 9.486-15.027 21.041-29.511 30.448-44.629.113-3.974.249-2.554-2.103-6.408l.506-.773c1.357.267 2.392.495 3.745.845l1.237.328c4.839-2.817 10.569-10.872 10.07-16.713-.983-2.477-1.413-4.424-2.266-6.928l.419-1.159c36.898-42.653 80.199-57.475 135.419-43.904.24-7.148 2.61-20.242 3.79-27.671"/><path fill="#fff" d="M962.251 745.242c36.898-42.653 80.199-57.475 135.419-43.904 5 2.303 9.99 4.69 15.05 6.816 39.67 16.653 61.38 56.537 81.77 92.031 7.51 13.092 14.6 27.404 25.2 38.461 12.29 12.309 28.43 22.248 41.73 34.064a1626 1626 0 0 1 98.89 96.93c-.71 1.424-1.06 1.829-.5 3.357 2.03 6.017 14.81 37.933 14.12 41.103-2.25 1.44-.98 1.01-4.11.52-6.61-4.82-8.21-14.64-12.02-21.506-8.96-16.177-16.56-35.264-26.56-50.676l-.81-1.23c5.59 24.276 17.67 47.721 25.79 71.492-6.38-9.66-13.01-24.05-18.3-34.74a1108 1108 0 0 0-21.75-42.067l-1.66 1.11c3.82 14.136 22.77 64.077 22.72 73.957l-1.16.25c-8.47-8.62-34.89-72.231-40.12-86.26l-2.37 1.631c5.82 21.783 10.15 44.328 16.24 66.105 1.42 5.073 4.69 12.614 2.47 17.384-1.09.08-4.63-.24-5.01-1.23-12.77-32.523-21.91-66.747-35.29-99.01l-.6-1.137c6.33 30.486 13.85 61.284 20.51 91.747.68 3.1.92 5.19-.87 7.85l-1.76-.15c-4.92-5.22-36.94-105.715-41.9-119.88l-1.79 3.776c3.58 14.697 28.63 106.941 26.5 114.634l-1.43.2c-2.95-2.72-10.52-30.248-12.04-35.682l-2.17-.053c1.32 9.323 2.54 19.301 4.08 28.534a168 168 0 0 0-1.92 4.051c-7.97-25.137-18.87-65.071-24.54-90.458a186 186 0 0 1-2.51-.933c1.47 10.821 14.56 90.491 12.46 94.021-3.69.56-4.37.45-8.15.15-3.75-16.689-6.91-35.293-11.19-51.45-2.83.859-1.69 7.383-1.81 10.261.3 6.515 3.45 37.119 1.74 39.489-3.29.14-3.57.38-6.65-.95-3-7.262-3.23-15.118-5.06-22.592-4.92-20.037-7.64-45.672-13.19-65.134l-.42-1.447c-.85 19.291.01 34.001 1.45 53.135.87 11.423 2.37 29.656.99 40.388-5.64-27.451-10.18-62.602-14.08-90.731l-2.12 1.864c2.26 26.686 4.84 56.323 6.7 82.937-2.68.99-2.6.78-5.47.27-1.54-1.46-3.05-3.801-3.26-5.953-2.49-25.587-10.6-52.876-12.34-78.3-.87-1.362-1.69-2.625-2.49-4.03.53 18.116 1.33 36.224 2.38 54.318.41 7.434 2.3 25.53 1.16 31.545l-1.06.92c-3.17-4.728-4.95-24.67-7.09-31.738-8.03-26.428-11.4-62.921-21.35-87.899l.03 1.814c.36 16.683 14.87 111.57 11.69 117.473-1.54-.18-2.43.06-2.69-1.085-3.55-15.1-7.22-39.589-10.2-54.461-2.29 3.846-1.26 7.596-1.64 12.322-.12 9.943 2.44 32.886-.22 40.752l-1.17-.726c-2.65-7.902-5.14-26.553-6.58-35.569a2566 2566 0 0 1-10.32-68.711c-1.86 3.349-1.36 4.847-1.78 8.821.12 17.752 7.96 85.288 5.35 97.336l-1.04-.354c-4.84-10.132-4.58-24.746-6.19-36.359a1592 1592 0 0 0-7.64-50.027c-.68 9.78-1.2 83.127-2.26 85.871l-2.48.295c-4.47-3.065-8.81-77.039-11.71-87.791-2.47 6.479-2.78 77.952-4.73 91.126l-.21 1.33-.24-.91-.36-1.51c-2.64-10.589-4.08-29.076-5.2-40.606a1872 1872 0 0 0-6.51-62.525c-.93-.868-1.02-1.134-.9-2.391-1.2 4.476-1.22 21.514-1.53 26.921-1.48 25.332.17 54.407-1.83 79.341-6.71-13.093-11.21-92.363-12.51-112.24-.19-.151-.72-.737-1.14-.724-.3.009-.52.349-.64.568-.26.467-.28.858-.42 1.389-.19.691-.37 1.026-.67 1.765.03 20.706.13 41.349-1.38 62.008-.35 4.796-.68 9.597-.73 14.406-2.01-.569-1.8-1.23-2.35-3.394l-.51-1.461c.33-14.344-2.49-38.086-4.26-52.563-2.28 22.245-3.58 70.934-9.37 89.006-3.65-38.058-.32-88.203-3.33-129.297-.65 1.43-1.34 2.718-2.06 4.11-.92 14.189-6.59 118.877-9.93 122.747-3.02-1.973-2.38-21.589-2.52-26.268q-.915-30.984-1.41-61.979c-.08-4.072.13-17.191-.86-20.015-1.69 3.458-1.75 15.96-2.06 20.844l-3.68 57.399c-.49 7.577-.24 26.188-3.96 31.519l-2.28.77-1.68-.84c-.97-10.253-.53-26.473-.25-36.879-.51-1.624-.24-2.114-2.04-2.346-1 7.164-2.952 37.363-6.047 40.735l-1.8-.24-1.428-2.25c.193-21.314 1.992-48.98 2.076-69.638l-2.884-1.023c-1.585 9.91-8.698 70.583-10.622 73.851-2.759 1.63-1.32 1.33-4.445 1.04-1.553-3.285 1.042-48.571.995-56.259-.474-6.039.702-11.328-1.691-15.359-1.994 13.613-8.823 61.973-12.595 72.048l-.728-.55c-.176-9.303 1.537-24.259 2.407-33.914 2.392-26.559 5.726-52.807 7.896-79.434l-1.988-1.867c-2.138 13.698-20.898 115.905-24.773 119.995-1.15-.6-2.432-1.25-2.401-3.27.476-30.469 7.151-75.862 7.987-105.423-.903-3.756.945-4.527-2.035-6.584a4170 4170 0 0 1-11.004 61.182c-3.027 15.7-7.347 34.65-9.49 50.215l-2.365-.02c1.883-11.196 2.917-26.091 4.029-37.576a1740 1740 0 0 0 5.549-65.819l-2.588-.905c-5.914 27.655-9.833 56.286-16 83.957-2.061 9.251-4.124 22.863-7.591 31.283-.419-24.726 8.521-55.936 9.427-80.711l-1.849-1.544c-3.038 12.09-15.092 70.755-19.298 78.295l-1.565.06c-3.21-8.09 16.484-104.132 19.226-121.644.663-4.235 2.222-8.345 2.103-13.646-7.004 7.51-27.317 116.174-40.046 136.66l-.856-.3c.506-7.05 1.964-15.074 3.327-22.043 4.892-25.006 8.09-51.268 14.269-75.967l-1.729-2.512c-9.245 27.156-15.888 54.989-24.607 82.307-2.026 6.35-4.075 12.925-7.016 18.905l-.995.08c-.603-11.01 4.265-25.206 6.206-36.479 3.843-22.324 8.317-44.266 13.149-66.388l-2.127-2.964c-4.706 13.394-31.58 103.181-36.243 108.181-3.399-8.58 14.952-84.362 17.352-100.043l-2.056-1.421c-6.815 23.331-15.361 47.404-22.92 70.578-2.805 8.599-8.259 26.816-11.771 34.386 3.234-25.982 14.52-78.426 20.723-104.615l-.635 1.191c-6.421 12.247-34.48 95.234-37.826 98.204l-2.935-.25c-2.575-3.92-.499-8.27 1.17-12.46 7.532-18.925 10.831-42.282 18.225-60.92l-1.477-1.778c-5.64 16.182-14.129 32.577-19.903 48.862-3.016 8.505-6.169 20.406-13.588 25.916l-1.004-.52c-.175-8.66 24.93-72.287 29.856-83.782-14.318 17.785-23.309 39.479-34.039 59.508-2.254 4.208-9.148 20.314-12.606 20.954-.143-4.36 21.536-50.501 24.738-57.838a410 410 0 0 0-18.997 25.833c-6.227 9.349-18.105 29.125-25.761 36.065 14.299-46.471 69.215-91.652 105.039-123.015 21.756-19.046 43.188-39.358 68.109-54.224 67.321-1.462 135.426 1.086 202.886.007 26.65-.426 53.47.367 80.19-.737-4.84-7.172-7.65-10.289-13.57-16.715l.9-3.021c-3.66-2.564-10.58-7.033-12.94-10.617.81-1.265 1.7-2.32 2.76-3.378-2.91-1.823-4.31.735-7.66-3.18-5.12-5.965-7.1-6.334-7.15-14.699v-1.18c-6.28-5.443-6.4-4.021-10.53-12.156-.84-1.021-1.66-2.053-2.48-3.095-3.49-6.01-8.19-7.099-10.51-11.992 1.28-1.391 1.81-1.908 3.28-3.187l1.27-1.095-.52-1.43c-8.71-3.112-2.3 6.84-15.6-6.307l-3.3-3.134c-1.18-3.98-10.25-8.737-14.25-11.604l-.24-1.78c1.55-1.718 1.87-1.946 3.11-3.869-5.47 2.142-10.94 3.275-15.99-.821-.47-2.064-.71-4.07-.83-6.181l-1.85-.767c-3.96 1.849-6.04 3.296-10.28 3.299-2.74-1.028-2.55-.939-4.23-3.358.41-2.077.85-4.146 1.34-6.208-1.68.289-3.8 3.952-5.22 5.815-6.94-1.603-14.64-2.25-20.78-3.859l-.02-2.585-1.63-.571c-.06.085-2.2 3.151-2.35 3.157-13.53.611-24.25 2.508-36.92 7.326l-.86-.41c-.07-2.94.09-3.197-.84-5.93l-1.37.134c-2.25 2.549-2.49 5.926-3.22 9.396-4.31 2.436-7.6 4.576-12.34 6.059q-1.536 1.333-3.019 2.721c-3.805 3.185-8.245 7.752-12.938 8.542-.802 1.14-1.621 2.223-2.455 3.339-2.569 2.421-12.873 12.856-15.21 13.225l-2.37-1.226c-.983-2.477-1.413-4.424-2.266-6.928z"/><path fill="#6d6d73" d="M950.224 892.163c1.394-7.479 1.731-10.383 4.296-17.735-.281 3.272-1.486 22.593-2.261 24.319-.903-3.756.945-4.527-2.035-6.584m28.211 23.775c.79 8.549.908 22.101-.29 30.583-.474-6.039.702-11.328-1.691-15.359.732-4.454 1.273-10.389 1.981-15.224"/><path fill="#4a5058" d="M1119.82 902.033c-.37-2.682-1.72-18.803-.34-19.997l.51.073c1.24 1.293 1.25 8.698 1.61 11.103-1.86 3.349-1.36 4.847-1.78 8.821"/><path fill="#8a8c90" d="M1056.96 892.538c-.11-8.056.21-12.434 1.62-20.135.29 3.922 1.41 13.888 1.25 17.137-.19-.151-.72-.737-1.14-.724-.3.009-.52.349-.64.568-.26.467-.28.858-.42 1.389-.19.691-.37 1.026-.67 1.765"/><path fill="#6d6d73" d="M1139.11 931.639c1.12 4.999 1.58 8.587 2.42 13.505-2.29 3.846-1.26 7.596-1.64 12.322-1.21-8.131-.89-17.561-.78-25.827"/><path fill="#8a8c90" d="M1002.3 960.305c.28-2.298.53-10.456 1.94-11.686.11.027.22.054.32.081.79 2.164.57 11.422-.22 13.951-.51-1.624-.24-2.114-2.04-2.346"/><path fill="#3e4248" d="M934.355 899.24c.337-2.315 1.076-7.757 2.103-9.719l-.029.17.505-.885c.364-.114.198-.106.503-.052 1.26 1.444-.287 9.106-.494 11.391z"/><path fill="#4a5058" d="M992.217 927.889c1.98-13.149 2.686-10.593 2.884 1.023zm193.003-24.492.23 1.259c.79 4.174 1.46 9.19 2.19 12.813l-2.12 1.864c-.58-4.891-.56-7.822-.58-12.683.24-1.442.31-1.792.28-3.253"/><path fill="#8a8c90" d="M899.237 896.117c-.877 6.103-2.559 11.553-3.735 17.523l-1.729-2.512c1.87-4.969 3.54-9.98 5.464-15.011"/><path fill="#4a5058" d="M1154.24 766.63c6.87-4.195 10.21-2.098 2.48 3.095-.84-1.021-1.66-2.053-2.48-3.095"/><path fill="#a9abae" d="M1222.86 965.311c-.45-2.316-1.78-14.434-.21-15.5 1.53.481 1.68 3.774 2.02 5.239-2.83.859-1.69 7.383-1.81 10.261"/><path fill="#6d6d73" d="M971.446 887.445c.453-3.849 1.001-7.028 1.962-10.767.048-.012.45-.232.487.121.414 4.011.127 8.545-.461 12.513z"/><path fill="#4a5058" d="M1242.88 877.231c1.72 3.768 3.43 6.894 4.49 11.029l-1.79 3.776c-.86-4.777-1.75-10.099-2.7-14.805"/><path fill="#8a8c90" d="M1168.66 914.257c-.27-1.576-.67-3.65-.69-5.264l.72-.992-.51-.153c.32-.48.11-.37.52-.47 1.91.504 2.33 9.218 2.45 10.909-.87-1.362-1.69-2.625-2.49-4.03"/><path fill="#6d6d73" d="M878.383 906.589c.795-1.752 2.743-6.749 3.867-7.866.839.279-.45 4.499-.507 4.743q-.69 3.029-1.233 6.087z"/><path fill="#8a8c90" d="M1130.12 738.677c1.36-1.526 6.41-8.052 7.55-8.404l.36.224c-.76 2.26-3.66 5.791-5.21 8.557z"/><path fill="#3e4248" d="M981.678 741.33c-.992-4.773-1.147-12.431 2.455-3.339-.802 1.14-1.621 2.223-2.455 3.339"/><path fill="#4a5058" d="M920.308 921.852c.224 1.763.609 3.675.926 5.432-.257 2.777-.415 3.77-1.043 6.485l-1.849-1.544z"/><path fill="#a9abae" d="M1032.97 875.353c0-1.086-.2-11.553 1.68-10.691.73 1.12.39 5.275.38 6.581-.65 1.43-1.34 2.718-2.06 4.11"/><path fill="#c8c9cc" d="M962.251 745.242c2.507 3.275 2.746 5.433 4.217 9.313l-2.37-1.226c-.983-2.477-1.413-4.424-2.266-6.928z"/><path fill="#3e4248" d="M997.071 729.449c-.019-.715-.732-8.593.467-8.513 1.171.91 2.072 4.407 2.552 5.792q-1.536 1.333-3.019 2.721"/><path fill="#6d6d73" d="M1314.51 937.003c-.51-1.428-1.28-3.939-1.63-5.433l.91-.869c-.21-.535-.42-1.07-.62-1.605.56.647 2.5 5.638 3 6.797zm-82.96-24.674c-1.2-4.713.69-5.777 1.93-1.063.18.669.38 1.334.58 1.996a186 186 0 0 1-2.51-.933"/><path fill="#8a8c90" d="M819.99 937.642c.392-.976 1.494-4.408 2.539-4.878 1.064.336-.872 5.839-1.062 6.656z"/><path fill="#6d6d73" d="M1293.58 926.581c-.55-3.072-.08-8.773 1.7-3.404l.67 1.773z"/><path fill="#a9abae" d="M1256.44 971.135c-.2-1.396-.64-3.007 0-4.317 1.4-.943 2.07 3.966 2.17 4.37zm-336.132-49.283c.367-.861.617-1.474 1.132-2.19l.298.122c.701 2.35-.025 5.19-.504 7.5-.317-1.757-.702-3.669-.926-5.432"/><path fill="#e5e6e6" d="m1128.86 739.485 1.26-.808 2.7.377-.66 3.565z"/><path fill="#8a8c90" d="M1075.7 895.518c.45-.395.59-.725 1.08-.703.35.999-.03 2.028-.18 3.094-.93-.868-1.02-1.134-.9-2.391"/><path fill="#6d6d73" d="m857.436 913.306.776-1.041c2.707-4.319 2.378-.371 1.28 2.462z"/><path fill="#c8c9cc" d="M1184.94 906.65c-1.02-1.216-2.17-3.065.28-3.253.03 1.461-.04 1.811-.28 3.253"/><path fill="#fff" d="m1293.16 1322.76 2.1-.25c4.56-7.71 7.76-80.14 10.66-93.67.66-3.09.27-8.82 1.42-12.88 2.16-2.21 3.97-3.48 4.49-6.44-11.19-6.62-30.17-12.12-42.43-20.28-11.68-7.78-18.33-14.94-28.56-23.51-20.03-16.27-38.17-35.12-57.61-51.89-22.3-19.25-45.86-38.3-69.12-56.37-6.21-4.83-10.24-5.29-10.98-13.93l1.22-.44c9.23 6.58 8.44 4.21 17.81 5.93 2 .37 18.35 12.7 21.9 14.99-2-4.09-4.37-8.16-6.61-12.16l14.09 8.44c5.12-1.49-.91-1.1 2.41-5.44 5.97 2.67 4.27 8.73 12.49 9.91l1.28-1.52c.78-1.04 1.7-2.36 2.53-3.3 1.77 2.85 1.74 3.16 4.47 5.27 3.43-2.18.74-8.86 4.71-11.68 3.29 1.69 3.72 4.83 6.81 8.9l2.15.23c1.54-3.03.92-5.49.83-9.17 2.77-1.5 5.16 3.11 7.23 3.5.87.16 6.58.44 7.74.52.24 14.66.35 29.32.34 43.99 0 2.95-.04 5.81-.6 8.71 2.82 1.59 2.82 1.48 5.21 3.48l-1.99.05c-1.88.02-6.72-.61-7 2.6-.03.45.75 1.01 1.16 1.14 14.23.51 47.49 1.2 60.66.38 2.77-.39 9.25.27 9.88-2.07 2.09-.41 4.26-.97 6.33-1.46 1.87-.75 4.16-.4 5.55-1.4l-.12-.33-.12.38-.46-.64c-1.04-.23-2.07-.38-3.13-.53l-1.7-.41c-2.47-3.26-2.12-47.13-2.21-54.55 2.6 1.41 4.12 2.51 7.08 2.87 5.95-2.82 6.09-.5 10.72 3.6.97-.41 1.84-.78 2.84-1.12l63.88 227.68c6.71 23.39 13.9 52.69 21.06 75.31-41.91-.75-83.82.88-125.55 4.86-12.32 1.19-29.05 2.52-41 4.76-.32-17.35-.03-35.48 0-52.89 19.8-.1 39.61-.03 59.42.24a40.9 40.9 0 0 0 15.07.68c1.55-.23 2.06-.14 3.65-.09"/><path fill="#4a5058" d="M1197.01 1122.63c-.16-10.64-2.93-13.08 6.92-12.41 2.82 1.59 2.82 1.48 5.21 3.48l-1.99.05c-1.88.02-6.72-.61-7 2.6-.03.45.75 1.01 1.16 1.14 14.23.51 47.49 1.2 60.66.38 2.77-.39 9.25.27 9.88-2.07 2.09-.41 4.26-.97 6.33-1.46 1.87-.75 4.16-.4 5.55-1.4l-.12-.33-.12.38-.46-.64c-1.04-.23-2.07-.38-3.13-.53 2.4-.61 5.97-1.83 6.14 2.04.03.66.25 8.57-1.03 8.59-29.03.49-58.84.71-88 .18"/><path fill="#e5e6e6" d="M1278.18 1114.34c16.82 4.53-17.44 3.48-16.21 3.53 2.77-.39 9.25.27 9.88-2.07 2.09-.41 4.26-.97 6.33-1.46"/><path fill="#d59d5b" d="M869.773 825.863c-6.297 9.083-15.726 16.129-24.309 23.093 6.039-2.149 8.035-3.432 13.379-6.642 2.782-3.31 13.711-7.915 18.248-10.146-3.134 5.546-3.601 6.846-7.744 11.684-.218.821-.229.749-.882 1.331-2.289 3.294-3.679 3.912-2.397 7.517-14.818 12.319-30.42 23.849-45.113 36.025-47.221 39.132-92.318 79.361-128.959 128.815-3.917 5.29-16.891 20.99-17.693 26.33l.452.91c-14.098.33-25.392-.3-19.668-18.55 4.402-13.81 13.178-26 21.933-37.371 44.769-58.132 108.344-98.661 165.529-143.366 8.779-6.863 17.6-14.058 27.224-19.63"/><path fill="#e1ab69" d="M858.843 842.314c2.782-3.31 13.711-7.915 18.248-10.146-3.134 5.546-3.601 6.846-7.744 11.684-.218.821-.229.749-.882 1.331-5.507-1.975-9.291 6.405-12.372 4.908-1.099-1.7.158-2.795 1.814-2.88l.164.158c2.703-.864 2.669-3.204.772-5.055"/><path fill="#fff" d="M1214.89 1387c38.49-.07 77.55.38 116.03 1.4 15.19.4 49.32-.32 63.07 1.66 4.79 13.37 9.2 31.79 12.22 45.69-10.39-3.98-18.8-3.07-29.89-3.14-5.13-19.25-12.35-18.17-30.9-18-21.91.2-37.34 1.15-50.53 20.39l-15.54-.1c-3.79-7.62-4.38-9.24-9.54-16.11-15.87.17-28.57 2.63-42.36 10.67-4.98 2.91-6.49 2.37-12.37 2.19z"/><path fill="#d59d5b" d="M1381.57 1365.2c19.85 2.38 59.91.06 83 1.19 14.69 2.34 24.89 7.57 24.82 23.62l-95.4.05c-13.75-1.98-47.88-1.26-63.07-1.66-38.48-1.02-77.54-1.47-116.03-1.4-14.19-1.39-33.33-1.15-46.84-3.83 7.1-1.38 43.29-6.67 46.97-8.35 11.95-2.24 28.68-3.57 41-4.76 41.73-3.98 83.64-5.61 125.55-4.86m-682.569-318.16c1.471.06 4.962.1 6.241.29l3.713.75c1.465.14 2.713.35 4.161.58-4.961 4.74-10.263 7.39-9.943 14.22l-.878 1.15c-28.93 22.11-65.789 51.56-90.152 78.28-16.026 17.57-66.08 68.89-73.562 87.63-4.601-2.79-7.527-5.21-5.199-11.59 5.267-14.42 12.801-27.71 20.742-40.77 35.939-59.13 87.602-94.58 144.877-130.54"/><path fill="#e1ab69" d="m705.242 1047.33 3.713.75c1.465.14 2.713.35 4.161.58-4.961 4.74-10.263 7.39-9.943 14.22l-.878 1.15c-5.805-1.12-5.249.11-9.318-3.97-1.835-4.75 8.8-10.8 12.265-12.73"/><path fill="#e5e6e6" d="m705.242 1047.33 3.713.75c-5.701 4.2-10.731 7.15-15.978 11.98-1.835-4.75 8.8-10.8 12.265-12.73"/><path fill="#fff" d="M303.036 1237.35c-4.442-.44-8.549-.38-12.317-2.54-13.154-19.97 71.861-87.51 94.612-84.1 3.118.47 5.156 3.45 6.801 5.52-2.985 2.27-7.111 5.6-10.195 7.5l1.944 3.81c3.389 6.61 9.509 11.91 14.045 20.66l-.094 1.13c2.032 8.26 4.944 17.74 7.797 25.76 2.014 5.67-.654 8.64-2.361 4.36-6.56-16.43-13.469-33.03-20.952-49.07.012 10.67.5 19.61 2.512 30.13.675 3.53 5.378 25.31 3.402 26.91-4.146.72-6.422-19.65-7.053-22.93l-1.009-5-.963-4.51c-.543-2.47-1.071-4.67-1.663-7.12-4.151 5.74 1.362 27.42-1.957 35.69l-.283 3.12c-.78-.83-1.504-1.63-2.325-2.43-.17-7.59-3.811-43.31-5.714-49.42-1.619 17.03-1.952 34.47-3.696 50.9-.528.4-.694.42-.939.92-1.416-6.79-2.199-41.25-2.539-50.23-6.325 18.54-10.399 42.16-18.664 59.13 1.594-13.08 4.059-25.76 6.143-38.77l-4.008-.96c-3.643 9.83-7.231 19.01-10.222 29.15l-1.685-.43c2.984-10.43 5.378-22.21 7.322-32.88-7.243 11.55-13.253 24.49-18.907 36.9-1.033 2.27-.942 1.98-3.253 1.61-1.964-.3-3.822-.44-5.81-.44l-1.998-.02-2.693.36c-1.09 2.56-1.991 4.81-3.278 7.29"/><path fill="#d59d5b" d="M303.036 1237.35c-4.442-.44-8.549-.38-12.317-2.54-13.154-19.97 71.861-87.51 94.612-84.1 3.118.47 5.156 3.45 6.801 5.52-2.985 2.27-7.111 5.6-10.195 7.5-20.479 3.05-55.148 29.23-65.814 46.86-3.519 5.81-10.774 12.46-9.809 19.47-1.09 2.56-1.991 4.81-3.278 7.29"/><path fill="#4a5058" d="M325.574 1205.38c-2.337 6.96-7.767 19.23-8.759 24.78-1.964-.3-3.822-.44-5.81-.44l-1.998-.02c4.869-8.05 11.109-16.51 16.567-24.32m50.011 18.17c-.998-11.68-.864-39.47-.127-51.1.814 5.25 1.495 10.13 2.084 15.41-4.151 5.74 1.362 27.42-1.957 35.69"/><path fill="#8a8c90" d="M343.56 1195.81c.439-.96 7.135-15.38 6.928-15.26-.16 4.61-1.825 11.64-2.92 16.22z"/><path fill="#fff" d="M1597.5 1236.85c-1.35-.25-6.31-1.12-6.25-3.35.84-32.37 61.56-77.82 88.75-85.48l3.94-1.09c3.03 2.68 5.2 4.53 8.02 7.55-3.95 2.56-6.99 3.97-11.08 6.14 3.26 7.51 13.72 19.52 15.01 23.79.44 2.01.45 1.86 1.64 3.54 1.6 4.65 10.56 29.61 7.63 32.97l-.61.01c-.36-.23-20.47-47.6-23.01-52.67.73 6.99 9.58 55.09 7.12 57.51-2.27.22-6.08-24.52-6.51-27.28-.67-4.53-1.61-9.01-2.82-13.42-.29-1.02-.56-2.05-.82-3.08-2.57 4.51-1.22 13.95-2.37 21.45-.15 3.74.52 24.26-1.12 25.32-.57-.04-.81-.17-.86-.37-3.68-16.23-2.97-35.22-6.16-51.08-.05-.25-.56.11-.56.11-.2.38-3.37 45.26-3.47 49.57-.67-2.42-.85-3.19-1.86-5.47-.16-7.71-1.5-28.77-.76-35.13-1.01-1.42-2-2.72-2.87-4.22-.46 2.95-.98 5.89-1.57 8.82-2.28 11.7-6.08 24.32-9.56 35.71l-1.72-3.98.36-1.58c2.63-11.21 4.44-26.67 5.64-38.25-4.93 10.29-12.37 28.89-14.89 39.9l-1.91-.79c1.44-11 4.49-20.8 5.74-32.55-2.48 5.88-4.82 12.28-8.19 18.52-1.9 3.53-8.89 19.88-11.05 22.62-1.38 1.74-1.29-3.73-.15-5.57 2.62-7.97 5.77-15.61 8.46-23.6l-3.05 4.32c-3.58 5.11-6.74 11.55-9.78 17-4.46 8-2.4 7.62-10.58 7.44-2.48 1.16-6.35 4.78-8.73 6.67"/><path fill="#d59d5b" d="M1597.5 1236.85c-1.35-.25-6.31-1.12-6.25-3.35.84-32.37 61.56-77.82 88.75-85.48l3.94-1.09c3.03 2.68 5.2 4.53 8.02 7.55-3.95 2.56-6.99 3.97-11.08 6.14-13.4 6.02-32.32 15.05-42.99 24.99-8.93 8.31-30.33 32.73-31.66 44.57-2.48 1.16-6.35 4.78-8.73 6.67"/><path fill="#8a8c90" d="M1676.14 1203.44c-.21-4.82-.32-9.9-.11-14.7.49-2.64-.67-8.57.4-10.79 1.11-2.32 2.09 4.11 2.08 4.04-2.57 4.51-1.22 13.95-2.37 21.45"/><path fill="#6d6d73" d="M1658.48 1182.17c2.4-7.75 2.74 2.55 2.87 4.22-1.01-1.42-2-2.72-2.87-4.22"/><path fill="#fff" d="M1238.32 1080.76c-.03-3.15-.62-23.28.32-24.32 4.27-4.73 2.98 21.73 3.02 24.22 9.1.18 18.21.12 27.32-.16-.04-4.97-1.07-21.1 1.2-24.18v.1l1.32.42c2.04 9.47-.93 56.12.35 58.96-.63 2.34-7.11 1.68-9.88 2.07-13.17.82-46.43.13-60.66-.38-.41-.13-1.19-.69-1.16-1.14.28-3.21 5.12-2.58 7-2.6l1.99-.05c-2.39-2-2.39-1.89-5.21-3.48.56-2.9.6-5.76.6-8.71.01-14.67-.1-29.33-.34-43.99 2.34-.03 3.5-.18 5.82-.51.17.03 2.54.31 2.6.74.74 5.31.38 18.09.37 22.89 8.47.18 16.87.08 25.34.12"/><path fill="#424c53" d="m1212.49 1084.03 25.83-.09c.06 10.51.05 19.6.68 30.06-8.17.01-16.63-.12-24.77.04l-1.41-2.98q-.45-13.515-.33-27.03"/><path fill="#4a5058" d="M1204.19 1057.52c2.34-.03 3.5-.18 5.82-.51-1.56 5.84-.55 44.53-.45 52.67.01.83 2.4 1.21 3.26 1.38l1.41 2.98c-1.72-.1-3.36-.2-5.09-.34-2.39-2-2.39-1.89-5.21-3.48.56-2.9.6-5.76.6-8.71.01-14.67-.1-29.33-.34-43.99"/><path fill="#424c53" d="m1241.71 1083.94 27.33-.1c-.05 10.06-.05 20.12.01 30.18-9.13.07-18.26.06-27.39-.02.24-10.09.09-19.98.05-30.06"/><path fill="#c8c9cc" d="M141.046 1308.72c-6.187-1.01 1.097-11.18 3.021-13.73 11.92-15.79 30.016-27.59 48.447-34.23 2.169-.78 4.53 1.66 5.976 2.79-3.6 1.82-5.423 2.58-7.712 5.71 2.996 3.99 19.381 23.39 19.796 25.71l-.089.26c-.978.45-9.199-11.42-10.077-12.56.497 2.53 4.234 15.82 4.006 16.8l.008-.29-.826-.39c-3.262-6.31-4.987-11.79-7.58-18.2q-.526 3.945-1.192 7.89a38.7 38.7 0 0 0 3.622 13.03c.425.91.418 1.94.164 2.89-.083.02-.166.05-.249.07-1.722-1.28-.371-2.7-3.071-3.05.45-1.14.587-2.01.087-3.18-.75-.46-.389-.36-1.033-.44-1.554.79-.598 4.81-.759 6.21-.472 4.09-3.471.99-2.689-1.56.085-.27-.115-.97-.316-1.28-.868.24-.605 3.96-1.253 5.2l-.001-.02-.32.08c-1.153-3.35-1.435-13.63-3.789-17.97-.249-.46-.722-13.61-.795-15.06-.464 3.29-3.137 32.95-3.271 33.07-1.956.1-1.248-11.68-1.239-13.38-.888-1.41-1.008-1.5-2.14-2.84-1.984 6.68-2.597 10.95-7.949 15.56l-2.252-2.01q-.129-2.73-.123-5.46c-.681-1.62-.815-2.1-1.794-3.53-2.533 4.63-3.223 7.03-6.371 11.08.212 2.27.451 3.24.938 5.51-2.21-.31-4.234-.64-6.429-1.06-6.211-.51-6.705-.21-12.746-1.62"/><path fill="#d59d5b" d="M141.046 1308.72c-6.187-1.01 1.097-11.18 3.021-13.73 11.92-15.79 30.016-27.59 48.447-34.23 2.169-.78 4.53 1.66 5.976 2.79-3.6 1.82-5.423 2.58-7.712 5.71-4.056 3.34-7.227 3.86-11.741 5.67-10.948 4.39-27.467 19.89-30.219 31.41 1.308-.28 2.669-.43 3.998-.61l.976 4.61c-6.211-.51-6.705-.21-12.746-1.62"/><path fill="#946035" d="m152.816 1305.73.976 4.61c-6.211-.51-6.705-.21-12.746-1.62 2.892-1.79 4.133-1.93 7.772-2.38 1.308-.28 2.669-.43 3.998-.61"/><path fill="#4a5058" d="M152.816 1305.73c1.409-1.45 11.278-14.29 11.028-14.18-.423 6.26-7.346 8.6-4.561 14.34.212 2.27.451 3.24.938 5.51-2.21-.31-4.234-.64-6.429-1.06zm14.755-1.93c1.489-2.96 6.319-20.58 7.156-19.64l-.185.03c1.786 5.09-2.763 16.79-4.719 21.62z"/><path fill="#6d6d73" d="M177.772 1290.25c-.05-2.15 1.001-11.07 2.672-12.76-.019-.06-.518 13.94-.532 15.6-.888-1.41-1.008-1.5-2.14-2.84"/><path fill="#4a5058" d="M165.654 1294.81c1.477-3.85 3.383-8.35 5.044-12.12-.64 3.61-1.978 12.75-3.25 15.65-.681-1.62-.815-2.1-1.794-3.53m29.17-6.33c-.349-1.86-2.15-10.84-1.391-11.88l.092.01c1.101 1.14 1.728 2.6 2.491 3.98q-.526 3.945-1.192 7.89"/><path fill="#fff" d="M1279.81 1304.92c-.08-25.6-.53-54.9.69-80.38 6.68 2.68 9.98 4.11 16.4 7.29-.44 22.17-1.82 45.48-3.3 67.66-.17 2.54-.24 3.62-.16 6.12h-2.71c-3.8-.36-7.44-.35-10.92-.69m-710.696 145.51c-.259-12.52 14.655-10.71 23.9-13.51 4.844-1.47 3.243 9.32 2.38 11.48-.339.85-6.708 1.19-8.52 1.51-4.76-.3-13.027-.07-17.76.52m790.696-477.433c-.56-1.528-.21-1.933.5-3.357 12.31 12.229 18.26 21.834 27.04 36.43-10.66-9.245-17.86-24.737-27.54-33.073"/><path fill="#4a5058" d="m877.646 851.004 2.776 3.756a133 133 0 0 0-5.138 5.898c-2.224 1.472-3.886 3.153-5.378 5.356-1.836-1.781-3.311-2.37-4.736-3.865-.465.255-1.31.963-1.884.509-.588-1.489 3.198-4.501 4.195-5.168 2.284-1.117 2.907-1.257 5.426-2.003 1.431-1.586 3.146-3.034 4.739-4.483"/><path fill="#c8c9cc" d="M867.481 857.49c2.284-1.117 2.907-1.257 5.426-2.003-2.561 2.326-5.137 4.405-7.737 6.662-.465.255-1.31.963-1.884.509-.588-1.489 3.198-4.501 4.195-5.168"/><path fill="#e5e6e6" d="M713.116 1048.66c2.183.4 6.605.68 8.409 1.93-.296.64-16.702 11.24-18.352 12.29-.32-6.83 4.982-9.48 9.943-14.22m577.614 256.95h2.71c.39 5.23-.4 11.39-.28 17.15-1.59-.05-2.1-.14-3.65.09-5.03.71-10.14.48-15.07-.68 5.02-.17 9.47-.13 14.48-.05.01-8.25-.91-9.19 1.81-16.51"/><path fill="#c8c9cc" d="m1695.89 1184.41 1.55.89c5.67 2.99 18.23 19.22 19.55 25.81.67 3.35-7.54-7.63-10.88-14.01-1.79-3.41-5.57-6.58-8.58-9.15-1.19-1.68-1.2-1.53-1.64-3.54m-120.93 260.46c12.31-1.72 18.11-.51 29.83 1.37-8.06.83-23.84.19-29.53 1.88zM397.926 1188.2c3.689.64 20.38 20.33 17.676 24.31-.891.01-13.294-21.5-17.77-23.18z"/><path fill="#8a8c90" d="M153.768 1442.22c3.284 0 16.643-.1 18.771 1.16l.298-.05.181.16-.11.06-.26-.17c-4.283 2.08-24.187 1.99-29.684 1.57 3.431-.58 10.29.32 10.804-2.73"/><path fill="#3e4248" d="M586.874 1449.91c7.13.8 9.565-.71 16.499 2.17-7.114-.82-31.03.66-34.969-.56l.685-.95-.443.54c.156-.23.312-.45.468-.68 4.733-.59 13-.82 17.76-.52"/><path fill="#a9abae" d="M1328.06 1487.7c-2.15.08-4.59-.06-6.47-1.06-.58-.31-.46-.91-.26-.95 6.67-1.35 35.12-.48 39.84.18-5.97.39-30.88-.17-33.65.64.18.4.36.79.54 1.19m-276.07-523.603.51 1.461c.55 2.164.34 2.825 2.35 3.394.24 2.277.01 17.844-2.26 17.464-.42-1.329-.61-19.718-.6-22.319"/><path fill="#8a8c90" d="M223.834 1445.29c-1.891-.05-18.417-1.28-20.228-2.11l-.161-.33-.091.02.057-.09c2.03-.76 17.318-.05 20.479.31z"/><path fill="#a9abae" d="M387.95 1468.04c1.966-.7 16.444-2.01 18.692-1.85.515 1.36.575 1.58 1.244 2.8-6.236.39-13.571-.5-19.936-.95m-85.336-13.67c5.018-.69 8.778.1 13.822.73-7.18 1.02-11.42 1.85-18.65 2.08 1.856-.72 4.643-.86 4.828-2.81"/><path fill="#6d6d73" d="M356.319 1468.16c1.224-.09 2.899-.41 3.902.4.114.3.271.62.227.94-1.944.63-18.886.63-21.619.43 5.008-.96 7.032-.99 12.26-.92 1.844-.27 3.393-.51 5.23-.85"/><path fill="#c8c9cc" d="M875.284 860.658c1.678.324 1.94.586 3.282.159-1.263 1.316-6.634 6.313-8.66 5.197 1.492-2.203 3.154-3.884 5.378-5.356"/><path fill="#8a8c90" d="M1646.13 1465.87c2.02.01 11.34-.02 12.96 1.22.03.1.05.21.08.31-1.48.88-6.32.82-8.2.72z"/><path fill="#a9abae" d="m1634.83 1222 1.91.79c-.93 10.72-3.8 8.03-1.91-.79"/><path fill="#fff" d="M1647.35 1226.7c-.29 1.65-.29 3.75-2.07 4.15-1.01-.99-.67-2.6-.44-3.83.28-1.43.54-2.86.79-4.3zm-479.63-163.45c-.28-1.35-1.86-6.01-.79-6.97 1.71-.08 2.91 2.31 3.32 3.67-.83.94-1.75 2.26-2.53 3.3"/><path fill="#8a8c90" d="M1606.94 1454.21c1.64-.11 5.85-.51 7.25.6.43 1.46-4.77 1.22-5.17 1.23l-1.98.03z"/><path fill="#a9abae" d="M1698.59 1468.73c-8.66-2.07-2.61-2.64 1.78-2.75-.58.93-1.17 1.84-1.78 2.75"/><path fill="#fff" d="M1293.79 1063.33c.07-1.56-.73-6.62.73-6.85l-.33 1.04 1.08-.23c.69 1.4 1.01 3.38 1.36 4.92-1 .34-1.87.71-2.84 1.12m-33.27-63.661c.12.861 1.35 6.391-.78 6.511-.89-.68-.88-1.31-1.14-2.46.62-1.35 1.26-2.71 1.92-4.051"/><path fill="#e5e6e6" d="m927.365 1003.54 2.365.02c-.595 5.62-3.207 5.84-2.365-.02"/><path fill="#8a8c90" d="M439.459 1471.09c5.184-.14 6.371-.5 11.138 1.01-5.48.3-5.79.26-11.138-1.01"/><path fill="#a9abae" d="M372.977 1224.24c.821.8 1.545 1.6 2.325 2.43-.064.66.141 3.19-1.063 3.15-1.181-1.13-1.144-4.07-1.262-5.58"/><path fill="#8a8c90" d="M1738.93 1470.95c1.03 0 8.23-.44 8.64 1.29-.17.61-.74.64-1.31.85-2.45-.68-4.9-1.4-7.33-2.14"/><path fill="#c8c9cc" d="M1662.11 1221.52c1.01 2.28 1.19 3.05 1.86 5.47-2.17 5.33-1.87-5.05-1.86-5.47"/><path fill="#a9abae" d="m331.653 1224.53 1.685.43c-.184.67-.861 4.11-1.955 4.39-1.018-.76.03-3.77.27-4.82m-27.779 249.23c-.601-.04-4.547-.13-4.687-1.18.31-.5.602-.44 1.323-.7 1.921.63 1.758.6 3.364 1.88"/><path fill="#c8c9cc" d="M349.244 1466.92c2.687.32 4.437.66 7.075 1.24-1.837.34-3.386.58-5.23.85zm13.384-240.28c.245-.5.411-.52.939-.92.012.27.225 2.2-.052 2.69-.495-.44-.633-1.14-.887-1.77"/><path fill="#8a8c90" d="M1418.2 1507.63c.55.39.86.42.99.93-.51.69-2.38.11-2.94.02 1.04-.68.79-.55 1.95-.95"/><path fill="#a9abae" d="M1740.58 1455.55c.16 0-3.09.28-2.76-.67.7-.64 1.96-.38 2.77-.37z"/><path fill="#fff" d="M992.803 1065.61c15.457-6.97 43.347-38.84 63.667-49.8 8.42 8.04 24.13 26.5 30.44 35.84-13.21-4.14-26.5-2.58-40.74-3.18 8.65-.59 18.06-.38 26.79-.37l-19.07-20.41c-5.45 5.9-21.21 19.22-22.78 24.51 2.39 1.22 1.43.93 4.15.98 4.93 1.69 6.18 3.67 9.77 7.65l-74.665 64.08c-10.932 9.51-40.579 38.4-52.44 40.76 2.067 5.82 19.704 25.99 25.068 34.16-3.587-.36-7.484-1.13-10.769.04 2.091 3.35 8.141 10.55 8.611 13.81 2.083 14.46 1.446 32.11 1.552 46.87q.638 49.455-.127 98.91c-2.409 4.01-6.019 8.65-8.843 12.5l-.826 11.14-233.86-.8c7.62-85.44 18.02-170.84 26.474-256.22 2.11-21.31 3.102-42.31 6.311-63.54l6.665-4.02.825.49c-.939 3.55-2.059 8.83.165 12.04l1.914-.27c3.597-3.43 6.86-8.66 9.751-12.84-2.004 5.74-4.019 9.92-3.876 15.93l1.3.29c5.405-4.79 6.17-9.68 10.214-12.35.08 1.95.178 3.91.296 5.86l1.614.8c3.742-.94 4.204-2.32 6.776-5.65l.874-1.15c1.408 2.21 1.108 9.05 1.233 12.28 7.94-7.62 16.193-15.1 23.058-23.68l-2.747 15.44c3.786-2.26 8.608-5.98 12.778-5.21a73 73 0 0 0 1.892 4.07c4.915.62 10.309-5.56 14.668-4.87-1.259 4.09-1.907 3.59-.45 6.35 5.097.26 2.612-1.92 8.673-3.3l1.881 2.77 2.978-.24c-.2 7.43-.551 41.92-2.074 46.11-2.553-.57-3.823-1.25-6.084-.15-1.878 2.84-1.006 7.84-.811 11.51 20.873-.63 41.758-.81 62.639-.53 5.146.07 23.511 2.06 26.171-.73.276-4.2.508-5.17-.375-9.19-2.384-2.14-2.26-1.38-6.551-1.42l-1.283-1.42c-.985-8.35-.119-40.43 1.482-48.39l1.258-.51c1.209 2.66 1.266 3.44 3.526 5.28 4.431-.45 5.053-4.65 9.663-5.41l-.717 6.18 1.116 1.38c2.865-.15 5.752-3.06 8.184-5.01l.705.45c-.598 2.93-1.654 5.64-.414 8.12 6.399.49 14.66-9.99 19.306-14.64-1.546 3.37-5.331 10.29-4.841 13.6 3.106-.64 2.96-1.35 5.688-3.87l2.297 2.17c.466.3 1.647.51 2.259.66 6.806-2.37 20.951-12.78 27.763-17.47-2.092 5.77-6.728 11.03-3.934 16.64 4.645 1.83 11.083-1.28 15.832-3.03"/><path fill="#d59d5b" d="M992.803 1065.61c15.457-6.97 43.347-38.84 63.667-49.8 8.42 8.04 24.13 26.5 30.44 35.84-13.21-4.14-26.5-2.58-40.74-3.18 8.65-.59 18.06-.38 26.79-.37l-19.07-20.41c-5.45 5.9-21.21 19.22-22.78 24.51 2.39 1.22 1.43.93 4.15.98 4.93 1.69 6.18 3.67 9.77 7.65l-74.665 64.08c-10.932 9.51-40.579 38.4-52.44 40.76 2.067 5.82 19.704 25.99 25.068 34.16-3.587-.36-7.484-1.13-10.769.04-1.222-8.87-32.153-35-40.327-42.39 17.3-17.24 35.94-33.35 54.092-49.49 7.089-6.31 44.579-36.12 46.814-42.38"/><path fill="#fff" d="M911.041 1157.38c31.758-27.97 62.923-56.12 95.879-82.71 7.53-6.08 15.85-14.73 23.67-20.73 1.87-.31 3.43-.56 4.67-.76 4.93 1.69 6.18 3.67 9.77 7.65l-74.665 64.08c-10.932 9.51-40.579 38.4-52.44 40.76-1.505-2.66-4.749-5.91-6.884-8.29"/><path fill="#424c53" d="M827.068 1207.33c24.402.37 48.807.54 73.213.53-.381 26.17-1.829 72.17.144 96.65 9.959 3.87 8.376 7.48 7.095 16.98-1.798 1.38-3.405.83-6.27.86-25.911-.54-55.71-.77-81.481.33-.026-4.43-.668-12.92 1.258-16.11l4.963-.38c3.403-4.86 1.128-85.99 1.078-98.86"/><path fill="#fff" d="M852.236 1212.55c14.451-.31 28.374-.87 42.853.08.035 12.34-.2 76.07-.915 92.86-.018.43-3.234 2.72-2.986-3.98.194-5.21-.008-13.07.03-19.03l-26.565-.13.07 14.9c.021 1.75.206 8.51-.343 8.94-4.332 3.47-2.547-20.72-2.546-23.96l-26.849.02c-.005 2.96 1.621 26.18-2.352 22.48-.974-.91-.662-6.55-.659-8.73.033-27.54-.441-55.15-.027-82.69 6.157-.29 14.622-.1 20.289-.76"/><path fill="#424c53" d="M880.255 1215.5c2.214-.15 10.515-.9 10.687.26.68 4.59.393 26.18.423 30.33l-26.575-.06c0-6.17.046-12.38-.01-18.53-.134-1.48.317-8.1-.402-9.15-3.727-5.41-2.737 12.76-2.737 13.58.038 4.69.03 9.39-.024 14.08-8.852.08-17.705.08-26.557.01l.036-30.2zm-15.615 33.52 26.752.05q-.223 15.345-.061 30.69-13.287.135-26.572-.09c.065-10.22.025-20.43-.119-30.65m-29.409.5c8.434-.5 17.629-.33 26.152-.39-.222 10.08.109 20.67-.226 30.5-8.712.05-17.424.03-26.136-.04.062-9.07-.344-21.41.21-30.07"/><path fill="#fff" d="M824.411 1310.15c25.742.12 51.93-.51 77.523.38 1.061.04.894 6.2.911 6.59-23.421.06-53.414 1.63-77.219-.04-.786-.06-1.018-5.37-1.091-5.97zm-138.083-82.85.672 1.83c7.946-.47 8.769-8.49 13.354-9.43 1.252 4.93-.023 7.17 2.171 9.34 2.287-.6 2.711-.76 4.862-1.75.687 6.3-2.423 34.4-3.252 41.98-2.395 21.87-3.848 45.14-6.521 66.86l-25.262-.03 1.768.59.585.18c4.344 3.88 20.309-.45 21.845 2.65-.194.68-4.548.45-5.051.46-12.842.39-25.079-1.37-37.938.18 9.585 1.25 32.449 1.09 43.276 1.38-2.969 24.42.183 35.4-10.473 58.18-49.021.31-98.043.36-147.064.17 2.647-15.66 11.977-48.32 16.233-64.94 6.404-25.01 14.273-61.24 22.513-84.64 4.83-2.17 5.55-3.79 10.831-4.91 1.114 2.61-1.126 3.02-2.745 7.53 5.715-.9 9.507-6.25 13.652-6.2-.471 3.39-.839 4.83-.39 8.28 5.68 3.06 9.576-9.15 15.684-10.01l2.286 2.63c4.538-1.84 23.309-13.73 26.426-12.66-.224 3.6-.64 5.47.618 8.88l2.023.7c4.025-4.23 8.123-8.39 12.292-12.49.82-1.18 6.462-8.55 4.468-2.1-.939 3.04-1.772 2.85-2.281 6.69 4.864-2.33 6.14-4.31 9.096-8.6l1.846.66c-.093 2.74-.39 3.63.727 6.12l1.904-.13c3.516-3.5 6.008-6.83 9.065-10.71 5.496-5.71 3.612-1.16 2.78 3.31"/><path fill="#3e4248" d="M653.561 1340.16c-7.461.66-16.051-.47-23.542-.07.37-.02-9.877.99-6.805-3.54.666-.98 9.875-.62 11.786-.56 12.28.35 25.076-.49 37.352.11l1.768.59.585.18c4.344 3.88 20.309-.45 21.845 2.65-.194.68-4.548.45-5.051.46-12.842.39-25.079-1.37-37.938.18"/><path fill="#fff" d="M658.723 1232.06c.82-1.18 6.462-8.55 4.468-2.1-.939 3.04-1.772 2.85-2.281 6.69-1.09-1.98-1.323-2.48-2.187-4.59m24.825-8.07c5.496-5.71 3.612-1.16 2.78 3.31-.927-1.12-1.814-2.22-2.78-3.31"/><path fill="#424c53" d="m636.029 1292.91 21.237-.04q-.169 16.545.049 33.09-10.382.165-20.764.12c-.506-11-.42-22.15-.522-33.17m1.493-35.47c6.736-.17 12.724-.21 19.453.09.139 5.18 1.487 30.24-1.231 32.31-6.615.06-13.231.05-19.847-.02-.007-5.13-1.39-30.22 1.625-32.38m23.023-.34c6.909-.08 13.819-.09 20.729-.04.08 10.95.451 21.95.49 32.8-7.036.13-14.073.15-21.11.07.045-10.94.009-21.89-.109-32.83m.212 35.65c7.056-.03 13.964.04 21.035-.08l-.075 32.55c-7.123.5-13.635.52-20.776.46z"/><path fill="#4a5058" d="M635.502 1374.24c4.005-.23 37.382-4.22 26.008 5.99-.319 0-44.294-.37-26.008-5.99"/><path fill="#fff" d="M697.862 1388.18c77.082-.88 157.37-.13 234.658-.04l-.605 18.39c-8.204.26-17.1.11-25.362.13.791 7.74.536 17.42.542 25.34-15.072.28-29.037-.89-44.046-1.01-17.397 1.88-32.051 9.16-48.917 12.96-7.851 2.21-17.854-2.59-25.36-1.75-7.938.89-18.03 5.88-25.942 8.51-16.101-4.71-21.717-10.46-34.953-17.78-12.927-7.14-45.334 12.76-60.872 15.93 8.222-19.86 21.327-40.2 30.857-60.68"/><path fill="#4a5058" d="M755.027 1427.31c9.448-.45 25.594-1.27 34.603.32 3.614.64 3.878 5.26-2.895 6.62l-1.683.36c-6.25.45-14.165-.01-19.896.57-6.539.65-27.497-3.54-10.129-7.87m91.172-7.91c2.223-.17 25.007-1.59 17.586 5.4-3.14 2.96-16.351 1.9-21.117 1.96-1.887.01-19.814.64-20.784-3.51-.562-2.4 8.375-2.37 10.106-2.58 4.336-.55 9.487-.85 14.209-1.27m-56.507-14.96a95.5 95.5 0 0 1 17.815.26c1.563.18 4.885.16 5.406 2.23.129.5.005 1.03-.333 1.42-2.599 3.03-14.194 2.78-17.782 2.77-21.635-.46-45.202-4.34-5.106-6.68m72.811-.04c25.421-1.17 32.88 6.65 4.684 6.64-2.735-.37-5.461-.8-8.178-1.28-5.726-1.05-12.573-1.75-18.509-2.65 9.411-1.68 12.598-2.01 22.003-2.71"/><path fill="#fff" d="M1637.26 1251.45c4.9.5 10 1.23 14.91 1.86 2.91 23.68 7.76 30.24 29.54 39.74 7.54 38.56-20.7 91.06 6.13 128.92-5.66.3-42.74.6-44.17 1.98 9.18 4.23 46.34 4.92 58.4 5.29 1.85-.11 12.27-.37 13.19.6.08 1.07-1.59 1.11-2.24 1.26l2.34 3.77 3.64.06-1.87 2.28c-7.32-.52-25.87.65-34.33.63l-81.84-.63c6.96-22.42 13.55-46.83 19.9-69.45 3.66-13.02 12.15-41.76 13.24-54.1 1.72-19.46 1.82-42.13 3.16-62.21"/><path fill="#e5e6e6" d="M1702.07 1429.24c1.85-.11 12.27-.37 13.19.6.08 1.07-1.59 1.11-2.24 1.26-3.5.77-3.53.7-7.21.58-2.81-.6-9.87.21-12.67 1.8-.32-.06-.64-.12-.96-.17-.97.27-1.78-2.7-1.52-2.78 3.52-1.1 7.11-.35 11.41-1.29"/><path fill="#8a8c90" d="M1693.14 1433.48c2.8-1.59 9.86-2.4 12.67-1.8l.2 2.34c-4.82.1-8.09-.08-12.87-.54"/><path fill="#4a5058" d="M1705.81 1431.68c3.68.12 3.71.19 7.21-.58l2.34 3.77c-3.88-.57-5.44-.78-9.35-.85zm-82.03-19.32c1.48-.14 36.99-2.14 29.95 4.5-4.29.84-34.42 4.25-29.95-4.5"/><path fill="#fff" d="M336.994 1256.65c4.82-.06 11.325-.6 15.698.84 3.049 21.33 9.488 27.97 28.485 36.92.348 46.89-17.496 82.5 3.672 126.86-9.363.16-40.794.4-48.073 3.16 5.288 2.85 39.504 3.41 47.332 3.49-8.253 4.39-1.214 5.73 3.554 4.83l24.279 1.19 2.328 2.24c-9.497-.18-23.031.79-33.161.86-25.014.03-50.028-.09-75.041-.37 5.331-28.72 14.73-59.58 21.074-88.4 2.537-11.52 8.119-29.85 9.056-40.92 1.274-15.07.789-35.4.797-50.7"/><path fill="#4a5058" d="M332.697 1409.21c9.898-.47 18.469-1.09 27.31 3.83l-.002 1.56c-2.073 1.34-2.7 1.41-4.947 1.98-2.188-.07-46.643-2.22-22.361-7.37"/><path fill="#fff" d="M893.604 1438.06c99.641-.27 206.186-1.74 305.436.42-.03 3.61.11 10.41-.38 13.74-.35 3.15-.7 2.87.23 5.62.73 3.87 1.29 3.36-.08 6.2-6.63 3.11-19.81.96-27.58 1q-37.605.345-75.21.09l-202.842.18c-.962-4.51.021-8.05.755-12.65-.266-5.16-.468-9.4-.329-14.6"/><path fill="#fff" d="M893.933 1452.66c64.056-.56 128.117-.73 192.177-.5 36.83.01 75.88-.67 112.55.06-.35 3.15-.7 2.87.23 5.62.73 3.87 1.29 3.36-.08 6.2-6.63 3.11-19.81.96-27.58 1q-37.605.345-75.21.09l-202.842.18c-.962-4.51.021-8.05.755-12.65"/><path fill="#4a5058" d="M893.933 1452.66c64.056-.56 128.117-.73 192.177-.5 36.83.01 75.88-.67 112.55.06-.35 3.15-.7 2.87.23 5.62l-249.573-.17c-8.965.04-41.863-.06-53.482.41l-1.601 1.38-1.056 5.85c-.962-4.51.021-8.05.755-12.65"/><path fill="#fff" d="M1111.35 1409.92c4.68-5.8 35.21.36 38.71-4.6.01.22.01.43.01.65 2.2-2.01.15-6.17 1.08-7.43l.18-.04c2.57 3.97-4.06 5.44 3.05 11.7l29.31.74c-.08 6.87-.06 14.04-.29 20.88l-270.783.18q-.5-10.53-.429-21.06c50.987-.65 100.012-.08 150.912.04 1.44-.01 2.87-.05 4.31-.11 14.68-.07 29.29.03 43.94-.95"/><path fill="#13171c" d="M1111.35 1409.92c4.68-5.8 35.21.36 38.71-4.6.01.22.01.43.01.65 2.2-2.01.15-6.17 1.08-7.43l.18-.04c2.57 3.97-4.06 5.44 3.05 11.7-13.31-.43-30.6.58-43.03-.28"/><path fill="#fff" d="M587.471 1405.52c31.837-.4 63.677-.53 95.516-.4a958 958 0 0 0-18.243 35.03c-15.987-1.25-36.153-.62-52.989-1.43-15.043-6.43-35.995-8.16-48.421 4.36l-17.334.37c-2.362-4.87-8.561-17.99-13.584-21.18-.569-.37-3.555.88-7.004-.62 3.245-5.33 8.52-10.99 12.708-15.81z"/><path fill="#4a5058" d="M564.961 1417.35c5.631-.28 29.592-2.73 34.054 1.53 1.77 1.69-1.125 3.47-2.99 4.19-3.007.03-34.805-.02-34.114-4.46.734-.82 2.031-.98 3.05-1.26m66.391 2.05c3.845-.36 13.153-1.11 16.964.3 1.299.48 1.118 4.2.088 4.69-3.173 1.52-11.038.67-14.531.62-8.491-.34-12.674-1.43-20.839-3.33 7.618-1.31 10.673-1.59 18.318-2.28"/><path fill="#fff" d="M1105.99 1234.87c11.51-.77 22.34-.68 33.86-.67-.13 8.7-.03 17.41.29 26.11-.54 12.06-.49 36.08.01 48.3-.8 14.84-.19 35.01-.19 50.25-11.59.01-23.18-.08-34.77-.29z"/><path fill="#fff" d="m1152.46 1198.47 12.5.15.07 208.2-12.08-.06c-.05-9.75-.01-19.5.13-29.25.06-6.86-7.57-14.37-8.04-17.08-1.23-7.18-.28-20.01-1.09-27.94-1.99-1.35-3.47-20.98-3.8-23.88-.5-12.22-.55-36.24-.01-48.3 1.94 2.63.08 7.07 1.28 7.98 2.54.06-.76-8.34 2.53-10.92.88-14.47-.14-30.62 2.73-44.69.82-3.99 4.22-10.07 5.78-14.21"/><path fill="#13171c" d="M1140.14 1260.31c1.94 2.63.08 7.07 1.28 7.98 2.54.06-.76-8.34 2.53-10.92.6 10.36.1 26.89.1 37.69.01 11.07.54 26.96-.1 37.43-1.99-1.35-3.47-20.98-3.8-23.88-.5-12.22-.55-36.24-.01-48.3"/><path fill="#fff" d="M950.931 1234.5c10.019-.1 20.038-.05 30.054.18.172 13.33 1.699 115.59-.449 122.62l-2.286.8-30.503.25c.28-16.2-2.191-114.91.471-123.12zm95.239-186.03c14.24.6 27.53-.96 40.74 3.18 24.74 29.2 55.09 57.21 80.68 85.98 6.42 7.23 12.59 12.69 18.15 20.87-6.5.59-14.26.48-20.88.55-5.43-4.17-10.63-8.68-15.74-13.26-33.29-29.76-68.16-58.07-99.66-89.73-1.71-1.71-2.68-5.28-3.29-7.59m-880.095 271.05 10.76-.47c.104.68.212 1.36.326 2.05 2.533 15 4.214 16.48 16.1 25.04-1.915 20.67-7.175 43.64-1.985 63.22l1.004 2.59 2.356 3.81-.645 1.5c-5.5 2.05-12.497.35-19.868 1.84l.258 1.42c11.187 1.25 17.447 1.65 28.256 5.29l-5.257-.49c4.524 2.48 6.486 3.02 11.725 2.4 1.19 1.06 2.394 2.2 3.635 3.18-6.062-.88-57.614 1.97-68.656 2.04 7.425-21.96 15.919-52.23 20.889-74.95 1.501-6.86 1.121-30.59 1.102-38.47"/><path fill="url(#a)" d="M157.253 1408.71c12.065-1.48 19.702-1.42 31.511 1.34l-3.615 1.93c-11.076 2.75-17.484.19-27.896-3.27"/><path fill="#8a8c90" d="m191.276 1409.36 1.004 2.59-7.131.03 3.615-1.93zm-16.895 11.16c-.967 0-2.131.16-2.856-.55l.046-.31c.362-.18.747-.36 1.229-.4l1.323-.16z"/><path fill="#fff" d="M865.188 1080.05c-.005-1.45-1.36-30.89 3.312-19.44.092.22-.066 17.91-.115 19.46 8.655.04 17.309.02 25.964-.03-.047-4.64-2.482-21.08 2.949-21.33 2.318 1.6 2.216 50.65-.039 53.23l2.207 2.04 1.3.11c1.766.12 4.15.1 5.578 1.43.677.53-.088 1.73-.666 1.76-24.469 1.07-49.414.13-73.987-.06-1.664-.02-4.821-.05-5.701-1.88.987-.82.581-.59 1.989-.89.511-.77 1.511-2.2 1.945-3.06 1.523-4.19 1.874-38.68 2.074-46.11 1.257-2.35.99-2.98 3.39-1.58l.565-1.04c5.947-11.25 4.382 16.59 4.379 17.29 8.285.1 16.57.14 24.856.1"/><path fill="#424c53" d="M868.468 1087.4c-.468-3.03-.444-3.98 2.96-3.94 7.775.07 15.552.03 23.329.11.009 6.49-.808 23.6.965 28.49l1.537-.12 2.207 2.04 1.3.11c1.766.12 4.15.1 5.578 1.43.677.53-.088 1.73-.666 1.76-24.469 1.07-49.414.13-73.987-.06-1.664-.02-4.821-.05-5.701-1.88.987-.82.581-.59 1.989-.89 2.936-.28 5.867-.49 8.794-.81 9.386.41 18.9.2 28.297.05.377-1.78.4-1.83.313-3.62-.022 0 2.205.89 2.275.46 1.137-6.92.441-16.01.81-23.13"/><path fill="#fff" d="M836.773 1113.64c9.386.41 18.9.2 28.297.05 11.376.08 23.037.31 34.396.29l1.3.11c1.766.12 4.15.1 5.578 1.43.677.53-.088 1.73-.666 1.76-24.469 1.07-49.414.13-73.987-.06-1.664-.02-4.821-.05-5.701-1.88.987-.82.581-.59 1.989-.89 2.936-.28 5.867-.49 8.794-.81"/><path fill="#4a5058" d="M868.468 1087.4c1.573 6.56.958 17.94.97 25.17 5.112.06 22.731.56 26.284-.51l1.537-.12 2.207 2.04c-11.359.02-23.02-.21-34.396-.29.377-1.78.4-1.83.313-3.62-.022 0 2.205.89 2.275.46 1.137-6.92.441-16.01.81-23.13"/><path fill="#424c53" d="M840.015 1083.41c8.471-.05 16.831.04 25.32-.11-.158 8.93-.142 17.85.048 26.77.087 1.79.064 1.84-.313 3.62-9.397.15-18.911.36-28.297-.05l.334-.31c4.721-4.44 2.896-22.86 2.908-29.92"/><path fill="#4a5058" d="M831.998 1065.28c1.257-2.35.99-2.98 3.39-1.58-.202 7.1.058 45.14 1.719 49.63l-.334.31c-2.927.32-5.858.53-8.794.81.511-.77 1.511-2.2 1.945-3.06 1.523-4.19 1.874-38.68 2.074-46.11"/><path fill="#fff" d="M1121.34 741.479c4.94 3.654 10.85 9.251 14.7 11.824 1.34.176 1.57.117 2.03 1.292.64 1.643 1.75.53 3.27.983 0 .46-.53 1.318-.7 1.651 3.28 4.85 7.71 9.95 11.37 15.078-17.05 8.671-44.81 25.254-60.49 36.094-1.9 1.344-10.89 7.42-12.97 5.842v-.65c-1.5.638-1.78.67-2.18 2.173-.61-4.06-1.41-1.067-1.88-4.097 1.14-3.256 4.78-7.385 7.09-10.018 14.98-19.806 25.88-39.912 39.76-60.172"/><path fill="#fff" d="M1089.52 806.612c7.16-6.066 48.73-48.859 51.12-49.383 3.28 4.85 7.71 9.95 11.37 15.078-17.05 8.671-44.81 25.254-60.49 36.094z"/><path fill="url(#b)" d="M1136.04 753.303c1.34.176 1.57.117 2.03 1.292.64 1.643 1.75.53 3.27.983 0 .46-.53 1.318-.7 1.651-2.39.524-43.96 43.317-51.12 49.383l2 1.789c-1.9 1.344-10.89 7.42-12.97 5.842v-.65c-1.5.638-1.78.67-2.18 2.173-.61-4.06-1.41-1.067-1.88-4.097 1.14-3.256 4.78-7.385 7.09-10.018l1.7 1.552c10.84-11.754 25.1-24.543 36.69-35.715 4.66-4.487 11.97-9.991 16.07-14.185"/><path fill="#c8c9cc" d="M1078.55 813.593c4.74-2.236 6.86-3.958 10.97-6.981l2 1.789c-1.9 1.344-10.89 7.42-12.97 5.842zm3.03-11.942 1.7 1.552c-3.26 3.654-4.88 5.451-8.79 8.466 1.14-3.256 4.78-7.385 7.09-10.018"/><path fill="#fff" d="M1045.92 1079.91c-.12 25.48.17 51.12 0 76.61-.03 5.25-3.51 3.31-9.04 3.8-1.79-.52-2.92-.82-4.77-1.17-2.18 1.16-8.93 2.11-8.99-1.11-.33-18.4-.21-38.55-.16-56.81 3.27-2.72 5.53-4.42 8.68-7.36 1.13-.98 2.33-1.85 3.42-2.88l1.43-1.28c1.84-2.41 7-7.22 9.43-9.8"/><path fill="#fff" d="M1031.64 1093.87c1.79 13.97-.03 49.04.47 65.28-2.18 1.16-8.93 2.11-8.99-1.11-.33-18.4-.21-38.55-.16-56.81 3.27-2.72 5.53-4.42 8.68-7.36"/><path fill="url(#c)" d="M1031.64 1093.87c1.13-.98 2.33-1.85 3.42-2.88l1.43-1.28c2.06 9.94.81 58.18.39 70.61-1.79-.52-2.92-.82-4.77-1.17-.5-16.24 1.32-51.31-.47-65.28"/><path fill="#fff" d="m939.438 1375.96 50.06-.12c.129 4.25 1.486 27.65-.844 29.77q-25.302.54-50.61.3c-.38-12.68-1.932-17.66 1.394-29.95m201.692-.49c.98-.03 6.4-.55 6.51.87.63 8.62.32 21.27.34 29.61-14.74.24-29.48.32-44.23.24-8.59-.29-6.49-.2-6.76-9.33-.21-6.88 0-13.94.02-20.83 14.77-.19 29.33-.15 44.12-.56m199.32 44.96c6.81-.3 15.93-.59 22.52.93 4.69 1.08-2 11.42-3.15 13.04-6.65 9.33-21 14.49-32.15 13.22-4.17-.54-34.62-2.69-27.62-12.62 10.06-14.28 24.92-13.63 40.4-14.57"/><path fill="#e5e6e6" d="M1271.57 1227.41c5.45 4.94.92 61.34 2.51 72.59.23 1.61.13 4.94-1.68 5.8l-.71-.39c-1.05-2.12-.68-20.45-.72-24.06-8.58.36-16.26.36-24.83.36-3.01 3.64.24 16.5-1.28 21.26-.35 1.1-2.11 1.56-2.14.81-.89-19.08-.73-39.38-.63-58.65q14.31-.09 28.62.06c.07-5.96-.26-12.01.86-17.78"/><path fill="#424c53" d="M1245.01 1248.07c8.58.07 17.15.08 25.73.04l.06 30.94c-8.73-.39-17.08-.17-25.82-.69-.05-10.1-.04-20.19.03-30.29"/><path fill="#fff" d="M994.905 1126.78c.35-5.36 5.385-7.69 9.495-11.4-.12 11.36.03 22.76-.05 34.12-.08 11.81 1.97 10.21-9.246 10.5-2.006-.25-3.102-.36-5.117-.46l-8.792.34c-1.612-.15-3.227-.28-4.843-.38-11.574.21-9.527 1.18-9.386-11.37 3.256-2.94 6.366-5.96 9.757-8.73 1.587-.83 3.032-1.65 4.578-2.53 1.125-2.76 6.727-7.34 9.225-9.51 1.961-.13 2.414-.22 4.379-.58"/><path fill="#fff" d="M990.526 1127.36c.036 8.05.199 24.52-.539 32.18l-8.792.34c-1.612-.15-3.227-.28-4.843-.38-11.574.21-9.527 1.18-9.386-11.37 3.256-2.94 6.366-5.96 9.757-8.73 1.587-.83 3.032-1.65 4.578-2.53 1.125-2.76 6.727-7.34 9.225-9.51"/><path fill="#fff" d="M976.723 1139.4q-.236 10.05-.371 20.1c-11.574.21-9.527 1.18-9.386-11.37 3.256-2.94 6.366-5.96 9.757-8.73"/><path fill="#4a5058" d="M976.723 1139.4c1.587-.83 3.032-1.65 4.578-2.53-.08 7.65-.327 15.36-.106 23.01-1.612-.15-3.227-.28-4.843-.38q.135-10.05.371-20.1m13.803-12.04c1.961-.13 2.414-.22 4.379-.58.456 10.72.11 22.38.199 33.22-2.006-.25-3.102-.36-5.117-.46.738-7.66.575-24.13.539-32.18"/><path fill="#fff" d="M717.286 1437.02c11.188.05 11.936 15.26 8.278 18.18-9.225 7.35-24.114 11.95-36.12 11.4-9.144-1.75-16.08-3.57-11.505-14.66 1.122-2.72 35.527-13.69 39.347-14.92"/><path fill="#e34a4b" d="M1056.56 1373.67c4.15-14.1 19.93-14.81 26.88-3.75l.7 1.06c3.22 2.72 3.3 4.13 4.01 8.01 2.73 14.81-13.95 13.21-17.66 17.2-1.57.08-2.18.05-3.43-.93l-1.08-.79c-4.67-3.3-9.41-2.41-14.57-7.28-4.8-4.52-2.1-23.39 4.61-11.8z"/><path fill="#e34a4b" d="M1056.56 1373.67c4.15-14.1 19.93-14.81 26.88-3.75l.7 1.06-.98.22c-2.65 10.13-9.6 8.65-16.97 6.8-4.06.02-7.16.4-10.17-2.61z"/><path fill="#3e4248" d="M1066.86 1376.05c1.36-8.69-5.39-3.14-6.09-6.51.54-.5.94-.49 1.7-.67l.04.04c3.81-.02 4.94-1.66 8.49-1.36.49.35 7.26-.37 6.58 1.78-1.56 4.95-6.82.39-8.19 1.43.02-.12.66 6 1.78 6.14 5.1.67 7.44-4.01 11.99-5.7-2.65 10.13-9.6 8.65-16.97 6.8z"/><path fill="#7e3f40" d="m1056.56 1373.67.83.76c2.52 2.41 6.05 1.54 9.47 1.62l-.67 1.95c-4.06.02-7.16.4-10.17-2.61z"/><path fill="#fff" d="M1397.59 1444.42c4.62.02 7.27.27 11.87.73 3.28 3.46 5.8 6.44 8.88 10.09-12.15 8.31-22.84 11.88-37.4 14.5-10.64 1.69-24.94 5.37-13.24-11.99 5.89-8.75 19.63-12.31 29.89-13.33m-335.8-712.97c11.39-.561 16.42.114 27.56.713l-.36.896c-4.1 9.896-8.87 19.516-12.74 29.511-4.18 10.815-6.92 22.125-11.05 32.958l-3.35.826c.78-21.736.19-43.187-.06-64.904m32.91 1.464c4.13 1.253 10.92 3.076 15.13 4.095l7.26 1.785c-4.7 6.319-9.36 11.652-13.98 17.781-8.68 11.511-16.37 24.218-24.39 36.207l-1.13 1.651c-3.85 6.423-6.34 10.215-10.96 15.987 11.29-25.785 18.38-51.528 28.07-77.506m-41.48.251c.07-.005 2.97-.442 2.91.445-1.55 23.405-1.03 47.559-2.41 70.964-1.22-3.917-2.05-7.998-3.32-11.821-5.67-17.977-10.87-35.757-16.91-53.746 7.01-2.352 12.4-4.186 19.73-5.842m.77 339.245c2 .75 5.85 2.53 5.91 5.06.2 7.47-.57 15.05-.37 22.53.53 19.5-.42 38.96-.35 58.45.01.8-1.15 2.01-1.64 2.62-1.48-.33-4.82-.79-6.21-1.53-.2-.11-.33-.8-.33-1-.53-18.58-.77-37.16-.27-55.75.23-8.66-.02-17.12.25-25.76.1-.94.71-1.71 1.28-2.43.58-.73 1.15-1.46 1.73-2.19m-265.706 374.68c17.932.91-4.258 14.57-8.663 18.18-7.417 6.09-13.809 15.99-23.093 17.98-29.666-9.63 20.393-33.44 31.756-36.16m276.146-366.53c3.75 2.26 5.35 3.97 8.53 6.95.03 24.5 1.11 47.67.61 72.38-1.67.08-8.26.83-8.39-.86-1.69-21.63-1.23-58.28-.75-78.47m-231.573 386.62c16.841-.47 23.708-.48 38.562 7.23-8.051 3.88-12.096 4.97-20.565 7.17l-.909.24c-14.257 2.35-24.041 1.62-38.006-.3 6.775-6.38 11.993-10.94 20.918-14.34m322.833-689.215c4.17 6.602 5.22 8.12 8.81 15.212-16.35 2.5-52.24 16.021-68.21 23.154l-1.91-1.835c5.07-2.661 13.15-7.833 18.42-11.023 12.7-7.684 31.32-17.1 42.89-25.508m-77.23 314.375c4.31 2.9 4.8 3.56 8.45 7.21 1.15 21.08 1.03 39.51 1.06 60.62-1.94-.05-6.76.6-8.37-.6-2.52-1.87-1.13-59.79-1.14-67.23m-67.2-342.015c5.58-3.263 10.57-5.983 16.47-8.586 4.2 15.822 11.82 45.402 17.84 60.17l-1.61 1.134c-11.37-17.073-20.96-35.174-32.7-52.718m97.43 69.06c20.64-7.449 37.1-12.283 57.37-21.379 2.74 5.722 4.22 9.709 6.12 15.751l-26.68 3.375c-10.63 1.262-22.15 2.783-32.7 4.462zm-102.08-65.427c8.95 18.854 19.02 33.878 30.38 51.357l-1.37 1.908a419 419 0 0 0-42.796-41.518c3.88-3.76 7.936-7.417 12.296-10.622zm208.42 556.032c21.79-.28 43.58-.15 65.36.05 3.01.03 4.78-.08 4.36 3.46-.1 1.11-.19 2.23-.28 3.34-20.9.49-47.19.44-68.48.1-1.29-.02-.93-5.85-.96-6.95m-122.31-205.52c3.82 2.59 4.84 3.65 8.16 6.74.15 16.32.21 32.63.18 48.95-1.22-.04-8.14.18-8.22-.78-1.39-14.95-.45-40.91-.12-54.91m-233.223 331.88c2.88-.27 25.277-3.24 18.481 6.11-3.015 4.15-15.448 6.25-20.762 7.46-22.39 3.87-30.294-9.63 2.281-13.57m156.733-329.61c.21.04 1.46.25 1.46.46.25 7.56.84 48.05-.08 52.34-.86.56-4.97 1.24-6.08 1.51-.68-.69-2.09-1.95-2.13-3.03-.57-13.99-.35-31.8-.35-45.49 2.48-2.31 4.49-3.75 7.18-5.79m244.2 316.51c20.57-3.37-7.43 20.28-13.91 18.87-.13-.02-3.91 1.11-4.49 1.28-5.84-.42-11.6-2.21-8.54-10.94 1.58-4.49 21.37-8.22 26.94-9.21M957.032 803.574c17.97 5.888 37.596 12.285 55.798 16.937-2.7 1.518-2.85 1.423-5.83 1.995-15.196-1.926-31.075-5.115-46.002-6.366l-12.895-1.152c3.044-3.775 5.96-7.578 8.929-11.414m4.778-6.337c3.953-4.874 5.84-7.644 10.6-11.994 7.098 6.368 41.71 26.896 50.98 30.728l-1.8 1.285c-7.41-4.215-50.656-17.686-59.78-20.019m144.05 419.823c11.36-.12 22.73-.13 34.09-.05l-.07 12.15c-10.91.86-22.86.64-33.84.39-.22-4.11-.16-8.36-.18-12.49m15.63-389.749c12.94-2.087 26.05-4.239 39-6.489 12.31-2.139 14.14-3.707 16.7 8.444-7.64 1.48-65.67 1.34-71.99-.378 3.45-.421 13.35-1.862 16.29-1.577"/><path fill="#e5e6e6" d="M1105.2 828.888c3.45-.421 13.35-1.862 16.29-1.577 6.76 4.517 43.4.815 55.7 1.955-7.64 1.48-65.67 1.34-71.99-.378"/><path fill="#fff" d="M947.949 1217.31c11.039-.27 22.082-.29 33.122-.08.104 4.26.086 8.51-.052 12.76-6.71-.04-13.097-.01-19.784-.62-14.728-1.34-14.486 3.5-13.286-12.06m39.656-446.791c5.977 6.568 27.685 27.105 35.035 33.682l-.67 2.815a1816 1816 0 0 1-44.059-26.632c3.573-3.977 5.715-6.19 9.694-9.865m-48.608 59.113.382-.667c1.559-2.667 2.915-5.303 4.462-7.939 15.932 2.002 37.596 5.453 53.234 6.16 2.056-.314 16.825 1.07 17.495 1.629l-.05.509c-1.61 1.277-35.191 1.004-39.543.581a2085 2085 0 0 0-35.98-.273"/><path fill="#8a8c90" d="M997.075 827.186c2.056-.314 16.825 1.07 17.495 1.629l-.05.509c-1.61 1.277-35.191 1.004-39.543.581 4.81-.577 20.967.719 22.098-2.719"/><path fill="#fff" d="M1106.01 1117.3c4.01 1.96 5.24 3.5 8.54 6.56-.08 11.99.2 23.87-.09 35.89-1.83.19-6.23.99-7.82-.26-1.28-.99-.67-37.83-.63-42.19m-.34 245.74c11.32-.16 23.42-.22 34.66.41-.08-.01 6.62 7.05-1.08 7.32-9.25.06-29.51.63-39.37-.55-.29-.03-.51-.46-.55-.82.03-.09 5.13-4.71 6.34-6.36m-159.953.28c11.912-.1 24.068-.38 35.934.18.831.04 6.536 5.36 2.258 7.34-13.452-.08-27.679.55-40.955-.68-2.105-.2 2.653-6.68 2.763-6.84m-256.864-223.69 1.481 1.74c-5.871 15.27-10.057 31.19-16.843 47.57l-1.633 3.93c-3.197 2.25-6.571 4.25-9.872 6.35 8.413-20.38 17.798-39.58 26.867-59.59m-165.668 285.56c1.241-.03 7.233-.54 7.883.32 3.498 4.62-11.845 18.77-14.733 21.65-2.016-.07-8.683.02-9-.78-1.344-3.38 14.081-19.5 15.85-21.19m779.945 27.64c4.28.29 15.08 15.8-8.19 15.73l-5.97-.42c-1.67-.14-4.22-.72-3.16-3.17 3.02-7 10.79-9.49 17.32-12.14m-587.728-317.74 2.11 2.34c-2.427 7.86-5.346 21.25-7.208 29.59l-2.056 9.5c-.733 3.74-1.594 8.12-3.081 11.55-.442 1.02-6.547 2.42-6.168.92 3.642-14.39 11.772-41.11 16.403-53.9m560.868 312.96c21.53-.26-9.93 13.47-14.41 14.97-2.5.36-10.51 1.87-7.51-5.78 1.29-3.31 17.27-8.01 21.92-9.19m-156.17-318.38c3.56 2.11 5.94 4.87 8.88 7.8.01 7.49-.02 14.99-.08 22.48-11.51.21-8.84 1.08-9.12-11.1-.14-6.3-.05-12.9.32-19.18m-481.274 17.34c.03.04.76.91.676 1.09-8.225 17.91-14.84 36.63-23.616 54.28-.246.49-1.732.57-2.204.59l-1.747.14c-.303-.21-1.601-1.07-1.433-1.43 5.882-12.57 21.638-44.53 28.324-54.67m66.37-13.67.803.18c-4.529 17.28-11.545 34.11-16.641 50.99-3.541 11.74-7.14 8.28-6.994 7.83 6.292-19.72 14.309-40.06 22.832-59"/><path fill="#e5e6e6" d="M677.69 1137.04c-.563 4.24-26.717 61.27-30.351 63.24l-1.397.8c-.947-4.22 27.42-59.28 31.748-64.04"/><path fill="#fff" d="M944.152 1207.4c12.39-.08 26.471-.14 38.822.64.828.05.792 2.98.815 3.41-5.943.88-30.476 1.05-37.619.41-.937-.09-1.772-3.52-2.018-4.46"/><path fill="#e5e6e6" d="M659.707 1135.04c.226.14.452.27.678.41-4.186 12.94-24.502 55.18-32.151 66.48-2.468-2.71 27.899-59.49 31.473-66.89"/><path fill="#fff" d="M1101.65 1208.34c9.57-1.14 27.5-.49 37.75-.18.9.03 1.76 2.13 2.12 2.84-3.4 1.03-10.88 1.73-14.02 1.12-9.58-1.86-20.1 4.37-25.85-3.78"/><path fill="#e5e6e6" d="M621.64 1149.76c.289 5.1-23.161 50.4-27.785 54.92.002 0-.752-1.93-.754-1.92 5.046-12.27 23.721-42.84 28.539-53"/><path fill="#dd764a" d="M1063.1 1410.98c-4.31-5.39-.22-10.93 2.88-16.51l1.08.79c1.25.98 1.86 1.01 3.43.93.54 6.06 1.58 10.55-3.08 14.68-1.44.06-2.87.1-4.31.11"/><path fill="#fff" d="M1134.18 1141.36c3.21 2.14 4.63 3.14 7.52 5.74-.29 4.55-.42 8.38-.51 12.96-.5-.02-6.48.08-6.66-.66-1.12-4.47-.54-13.47-.35-18.04"/><path fill="#c8c9cc" d="M384.108 1427.92c10.569-.16 18.002.81 28.457 1.99-6.755 1.33-20.422.32-24.903 2.84-4.768.9-11.807-.44-3.554-4.83"/><path fill="#fff" d="M1147.06 1151.53c2.47 1.72 7.17 4.63 7.33 7.85-9.39.39-8.44 1.3-7.33-7.85"/><path fill="#c8c9cc" d="M1112.8 821.594c-5.39 1.164-12.66 2.31-18.19 2.886-.2-.146-.1-.018-.2-.55.72-1.071 12.95-4.359 14.28-4.545z"/><path fill="#fff" d="M961.023 1151.97c2.619 3.04 2.032 7.56-3.069 7.92l-1.55.19c-4.166-2.81 1.181-5.08 4.619-8.11"/><path fill="#a9abae" d="M715.402 1135.09c.628-2.71 4.729-14.49 4.793-16.07l.3-.47.12.03c.65 3.58-2.231 14.93-3.103 18.85zm307.238-330.889c5.7 5.214 11.06 9.606 16.71 14.772l-3.39-1.747c-3.68-1.907-10.23-7.322-13.99-10.21zm-9.81 16.31c3.7.544 9.1 2.044 12.31 3.959-1.23.259-16.04-1.573-18.14-1.964 2.98-.572 3.13-.477 5.83-1.995"/><path fill="#e5e6e6" d="M948.586 1066.64c4.124-4.15 6.135-6.58 10.637-10.5-2.973 4.76-5.231 8.06-8.34 12.67z"/><path fill="#c8c9cc" d="M1080.66 821.846c4.4-2.539 9.19-4.982 13.72-7.35l1.91 1.835c-2.44 1.015-4.74 2.1-7.27 2.88z"/><path fill="#e5e6e6" d="m1061.85 796.354 3.35-.826c-.59 1.558-2.7 8.397-3.74 8.937-1.23-.416-.04-6.874.39-8.111"/><path fill="#c8c9cc" d="M1036.99 805.315c2.94 3.484 5.94 7.734 8.69 11.442-4.2-3.516-6.26-5.479-10.06-9.534z"/><path fill="#a9abae" d="M1045.57 801.909c.53 1.079 3.53 6.455 2.75 7.596l-.06-.02-.13.056-.64-.324.69-.486-1.26-.136c-1.51-2.105-1.98-3.211-2.96-5.552z"/><path fill="#8a8c90" d="M1023.39 815.971c1.82.45 2.94 1.058 4.67 1.847l.35 1.512.66-.248v.03l.14-.157c.48 2.541-6.25-1.05-6.86-1.343l-.76-.356z"/><path fill="#a9abae" d="M1719 1434.93c2.38-.01 5.85-.37 7.61.71l-.03-.51c.6.27.47.14.61.35l-.26.17-.51-.42-.7.77c-3.26.59-5.2.95-8.59 1.21z"/><path fill="#c8c9cc" d="M688.853 1139.63c3.089-7.56 4.116-4.63 1.481 1.74z"/><path fill="#6d6d73" d="M705.196 1133.34c1.069-9.22 4.613-6.46.803.18z"/><path fill="#a9abae" d="M411.941 1433.94c4.439.14 13.098 1.47 2.328 2.24z"/><path fill="#c8c9cc" d="m670.006 1228.05.483-1.46c.385-1.25 1.13-3.93 2.819-3.84.719.99-.29 2.75-.634 3.67-.283.76-.557 1.52-.822 2.29z"/><path fill="#a9abae" d="M209.105 1427.72c.973.1 6.268.12 6.399 1.61-.489.98-1.84 1.18-2.764 1.57-1.241-.98-2.445-2.12-3.635-3.18"/><path fill="#424c53" d="M1826.79 1310.23c-7.53.25-9.35-3.46-5.34-9.79 11.61-18.34 30.37-30.98 50.08-39.25 1.81-.76 3.38.97 4.66 1.98 4.13 3.29 45.41 33.42 38.48 45.2-1.32 2.24-16.8 5.3-20.91 6.22-.17 8.66-1.44 39.64.43 45.87 4.06 13.52 12.43 55 18.65 65.56 11.43-2.86 17.94 6.18 29.4 8.98 4.65 1.13 14.26.11 18.45 1.6l.25 1.43c-4.61 2.22-43.81 4.02-50.68 4.04l-1 .33c-1.23.4-2.55.58-3.73 1.11l.78-.39.48.63c3.64-.14 6.25.33 9.77 1.16 8.95.61 17.91 1.06 26.88 1.34-16.02 4.1-51 4.33-68.84 4.86-.14.18-.79.77-.78 1.2.01.26.31.52.5.63.28.17.6.28.89.45.33.18.64.4.96.6-4.59.06-12.73.02-17.28-.23.16-.33.44-.76.42-1.05-.63-.31-1.51-.38-2.2-.38-3.86.03-7.7-.38-11.47-1.2-11.43-.23-32.18-.59-42.81-2.31-1.4.17-1.49.05-3.08-.16-6.84-.2-13.13.85-19.48.53l-2.65-2.21c-7.19-.06-22.06-1.18-29.06-2.06 10.07-1.86 20.11-2.52 30.36-2.92l-.16-2.27c1.43.12 2.74.18 4.17.24l1.12-.95c13.99-11.76 17.31-11.98 34.73-10.51 7.55-22.74 17.59-54.27 21.62-77.7.93-5.38.49-31.11.44-38.31z"/><path fill="#d59d5b" d="M1826.79 1310.23c-7.53.25-9.35-3.46-5.34-9.79 11.61-18.34 30.37-30.98 50.08-39.25 1.81-.76 3.38.97 4.66 1.98-2.41 2.35-4.33 4.32-6.49 6.91-2.69.84-10.79 5.56-13.83 7.26-9.17 4.28-25.88 17.95-26.61 28.54-1.24 1.19-1.74 2.81-2.47 4.35"/><path fill="#fff" d="M1778.76 1439.73c1.43.12 2.74.18 4.17.24 2.09.44 2.18.68 4.13 1.92 5.89.32 12.95.19 18.92.22 5.98.7 28.78.36 31.79 1.35-.23.47-.46.93-.69 1.39-4.08.08-32.77.94-34.65 2.86-.03.34.25.78.4 1.11-1.4.17-1.49.05-3.08-.16-6.84-.2-13.13.85-19.48.53l-2.65-2.21c-7.19-.06-22.06-1.18-29.06-2.06 10.07-1.86 20.11-2.52 30.36-2.92z"/><path fill="#e5e6e6" d="M1777.62 1446.98c3.76-.19 18.88-.03 22.13 1.68-6.84-.2-13.13.85-19.48.53z"/><path fill="#4a5058" d="M1778.76 1439.73c1.43.12 2.74.18 4.17.24 2.09.44 2.18.68 4.13 1.92-2.71.1-5.43.14-8.14.11z"/><path fill="#e5e6e6" d="M1855.87 1277.34c-.79 1.78-1.54 3.58-2.26 5.4 1.57 4.71 1.65 6.47 1.1 11.51l-1 4.93-2.07-3.56c-.8 2.72-1.88 6.44-3.25 8.91l-4.29-.85c-.4.52-.23.42-.49.51-1.45-1.46 2.77-14.73 3.36-16.99-1.28 2.32-10.28 21.3-12.77 19.54-.32-1.53 2.81-4.68 2.58-6.57l-.2-.06c-3.31 2.1.21 3.22-7.32 5.77.73-10.59 17.44-24.26 26.61-28.54"/><path fill="#4a5058" d="M1844.1 1303.68c1.07-2.41 5.36-17.14 5.4-17.21 2.46.13-1.06 14.74-1.11 18.06zm9.51-20.94c1.57 4.71 1.65 6.47 1.1 11.51l-1 4.93-2.07-3.56c1.52-5.49 1.12-7.57 1.97-12.88"/><path fill="#fff" d="M1855.87 1277.34c3.04-1.7 11.14-6.42 13.83-7.26 1.62 2.45 3.54 4.06 2.43 6.87l-2.83 2.09c.26 1.3.45 2.42.66 3.73.55 2.16.98 4.28 1.53 6.42-2.64 5.71.11 7.51-2.22 15.04l-.58-1.59c-1.99-5.37-3.25-13.61-3.75-19.3.43-3.21 1.05-3.36-.55-6.06-3.09 2.71-2.3 2.42-4.13 5.5-.18-.45-.32-.9-.62-1.28-1.69-.33-2.68 12.85-2.86 14.36l-2.07-1.61c.55-5.04.47-6.8-1.1-11.51.72-1.82 1.47-3.62 2.26-5.4"/><path fill="#4a5058" d="m1868.52 1286.11 1.44-3.34c.55 2.16.98 4.28 1.53 6.42-2.64 5.71.11 7.51-2.22 15.04-.33-6.48-.12-11.52-.75-18.12"/><path fill="#a9abae" d="M1868.52 1286.11c-.31-1.21-1.13-6.58.02-7.31.33-.01.1-.05.76.24.26 1.3.45 2.42.66 3.73z"/><path fill="#4a5058" d="M1856.78 1295.86c.18-1.51 1.17-14.69 2.86-14.36.3.38.44.83.62 1.28-.57 7.26-.33 11.99.32 19.17-2.02 1.09-2.74 1.6-4.93 2.02-.58.29-.61.43-1.08.38-.85-.81-.65-2.21-.67-3.28l-.19-1.89 1-4.93z"/><path fill="#c8c9cc" d="m1853.71 1299.18 1-4.93 2.07 1.61-.27 1.88c-.34 2.23-.61 3.97-.86 6.23-.58.29-.61.43-1.08.38-.85-.81-.65-2.21-.67-3.28z"/><path fill="#8a8c90" d="M1805.98 1442.11c5.65-.47 49.78-.6 51.4.71.05.24.06.12-.08.38-1.03.64-17.63 1.91-20.22 1.65.23-.46.46-.92.69-1.39-3.01-.99-25.81-.65-31.79-1.35"/><path fill="#e5e6e6" d="M1860.26 1282.78c1.83-3.08 1.04-2.79 4.13-5.5 1.6 2.7.98 2.85.55 6.06l-1.87.68c-.13 3.16 1.08 20.96-2.49 17.93-.65-7.18-.89-11.91-.32-19.17"/><path fill="#8a8c90" d="M1864.39 1277.28c1.6 2.7.98 2.85.55 6.06l-1.87.68c.41-2.25.85-4.5 1.32-6.74"/><path fill="#c8c9cc" d="M1845.64 1451.13c8.15-.25 20.69-.31 28.96-.02-.14.18-.79.77-.78 1.2.01.26.31.52.5.63.28.17.6.28.89.45.33.18.64.4.96.6-4.59.06-12.73.02-17.28-.23.16-.33.44-.76.42-1.05-.63-.31-1.51-.38-2.2-.38-3.86.03-7.7-.38-11.47-1.2"/><path fill="#e5e6e6" d="m1869.3 1279.04 2.83-2.09c1.89 8.96 3.44 18.74 4.65 27.82-2.25-5.7-3.46-9.86-5.29-15.58-.55-2.14-.98-4.26-1.53-6.42-.21-1.31-.4-2.43-.66-3.73"/><path fill="#a9abae" d="M1916.56 1444.91c-2.99.12-28.77-.65-29.3-1.73 1.16-1.56 20.23-1.22 23-1.11l-1 .33c-1.23.4-2.55.58-3.73 1.11l.78-.39.48.63c3.64-.14 6.25.33 9.77 1.16"/><path fill="#fff" d="M1845.82 1317.48c19.08-1.11 8.46 4.44 17.96 19.18 1.25 1.93 7.99 6.74 10.22 8.37-.57 28.98-8.21 46.81 3.64 72.7l-10.14.36c-3.89.94-5.45 1.04-9.31 1.37l.2-.08-.16.18-.05-.03c2.19.51 3.88.79 6.13 1.43 3.93.55 13.45 1.92 17.29 1.91 5.39-.16 13.09-.99 16.92 3.46l-.09-.05-.88 1.37c-1.8.2-2.37.45-4.22.34-17.09 2.03-50.98.99-69.21.89 6.67-23.54 16.76-49.3 20.56-73.18 1.46-9.2 1.13-28.12 1.14-38.22"/><path fill="#a9abae" d="M1881.6 1422.87c5.39-.16 13.09-.99 16.92 3.46l-.09-.05-.88 1.37c-1.8.2-2.37.45-4.22.34-4.46-3.07-6.94-2.98-11.73-5.12m-17.29-1.91c-.23.01-20.87.06-11.88-2.39 1.61-.44 13.15-.52 15.07-.48-3.89.94-5.45 1.04-9.31 1.37l.2-.08-.16.18-.05-.03c2.19.51 3.88.79 6.13 1.43"/><path fill="#13171c" d="M1846.07 1411.41c4.4-.76 17.17-2.16 20.26 1.3-7.95 1.21-13.19 2.84-20.26-1.3"/><path fill="#c8c9cc" d="M1882.6 1290.09c.59 1.07 4.95 8.52 3.77 9.63-1.48-.48-12.19-21.67-12-22.26l.15-.08c1.44.38 4.2 4.05 5.47 5.22 1.96 1.11 1.98.98 3.4 2.49.62 1.6 1.23 3.06 1.89 4.63z"/><path fill="#4a5058" d="M1879.99 1282.6c1.96 1.11 1.98.98 3.4 2.49.62 1.6 1.23 3.06 1.89 4.63l-2.68.37c-1.17-2.79-1.72-4.58-2.61-7.49"/><path fill="#a9abae" d="M1883.39 1285.09c1.66 1.54 8.6 8.06 7.92 10.31-1.27.9-5.11-4.69-6.03-5.68-.66-1.57-1.27-3.03-1.89-4.63"/><path fill="#424c53" d="M721.881 1518.82c15.922-4.32 86.144-4.34 104.677-4.62a9361 9361 0 0 1 221.052-1.43c34.2.47 281.23 6.06 299.14 14.27l-.12 1.28c-13.65 5.33-133.46 3.56-156.76 3.42-97.85-.14-195.683-1.6-293.487-4.39-40.307-.88-80.591-2.56-120.83-5.05-16.156-.86-38.586-.86-53.608-2.81z"/><path fill="#d59d5b" d="M879.168 817.893c44.387-69.942 124.692-186.227 222.292-144.226-1.18 7.429-3.55 20.523-3.79 27.671-55.22-13.571-98.521 1.251-135.419 43.904l-.419 1.159c-6.75 7.137-24.137 31.175-28.625 39.574l-2.022 3.37c-3.066 4.589-7.378 11.253-11.018 15.241l-.809 1.547c-4.104 3.679-10.285 10.836-14.22 13.162l-.751-.762 1.758-3.664a137 137 0 0 1-3.183-.541l1.056-2.308-2.291-.833-.306-2.423c-3.289.592-6.208 5.54-11.044 8.228.104-3.343 4.745-10.514 6.631-13.858-6.655 4.564-10.697 9.707-17.84 14.759"/><path fill="#fff" d="M904.018 812.02c.657-.803 2.223-3.119 3.349-3.306 1.61.601-.895 5.427-1.222 6.155a137 137 0 0 1-3.183-.541z"/><path fill="#424c53" d="M837.112 1537.54c22.6-1.14 49.171-.49 72.05-.39 50.178.14 100.348 1.09 150.498 2.85 17.09.53 85.77 2.16 98.01 6.65l.47 1.22c-8.46 4.46-40.16 4.22-50.74 4.49-65.64.54-131.297-.41-196.902-2.87-39.94-1.2-91.148-1.22-130.116-8.49 15.749-2.83 39.994-2.97 56.73-3.46m232.118-921.333c26.29-.382 52.95-.1 79.14.149.87.008 1.47 8.398.25 9.927-1.45 1.831-8.5.584-8.56 1.68-.9 16.974-.11 35.011-.01 52.287-.04 3.65 1.16 8.153-3.42 5.613-18.84-10.453-38.97-20.561-59.62-26.856l.06-10.86c.01-4.089.55-19.93-1.58-20.549-6.98-2.021-6.45 4.482-6.26-11.391"/><path fill="#fff" d="M1082.46 627.058q13.26-.109 26.52.01c.02 9.672.51 27.771-.23 36.846l-.78-.238c-8.21-2.417-17.45-5.897-25.83-8.546-.06-9.327-.16-18.759.32-28.072"/><path fill="#424c53" d="M1004.24 1568.43c22.44-1.97 202.49-.37 215.48 7.69l-.4 1.49c-8.13 3.91-21.75 3.84-31.07 4.32-29 .82-205.344 1.7-218.097-7.99l.819-1.33c9.733-3.9 22.629-3.73 33.268-4.18"/><path fill="url(#d)" d="M964.237 615.434c15.723 1.778 61.683-.264 80.063 1.173 1.05.082.75 7.489.7 9.425-.11 3.853-8.32.627-8.82 2.364-1.5 5.266-.51 26.39-.45 31.377-10.52 3.68-20.21 7.327-30.6 11.12-.32-8.944-.45-17.893-.4-26.842l.13-16.007-26.488-.058c-.592 20.891.442 41.947-.682 62.679.004-.07-4.324 6.181-4.23.948.355-19.693.25-39.434.137-59.132-.008-1.429.447-3.737-.968-4.573-1.436-.909-5.714 1.261-6.878-.622-1.67-2.703-1.384-8.667-1.514-11.852"/><path fill="#4a5058" d="M1009.64 1627.46c24.26-.9 133.86-.8 150.5 6.46.52.23 1.81.77 1.98 1.25-6.37 4.62-46.31 5.05-56.87 5.42-22.21.87-142.222 2.15-152.994-5.75l.368-1.43c8.772-4.71 45.712-5.44 57.016-5.95"/><path fill="#424c53" d="M1109.45 548.773c4.65 5.541 26.77 54.626 31.2 64.265l-30.15-.018-32.49-.033c10.44-21.368 21.32-42.704 31.44-64.214m-104.05.722c3.42 2.941 26.79 53.594 31.91 62.879-9.78.455-19.3.113-29.06.189-11.691.063-21.907.244-33.589-.649 10.179-20.841 21.195-40.954 30.739-62.419"/><path fill="#4a5058" d="M1653.86 1494.13c-6.85-.52-31.27-1.78-35.97-5.58 2.19-2.91 8.41-3.46 12.17-4.05 31.57-4.94 72.81-4.16 104.16 3.3-10.73 3.52-27.67 6.71-39.13 7.12l.03 2.16c7.92-.2 16.86 1.52 24.65 2.91-20.84 4.78-69.57 5.41-89.99.26 8.3-1.81 14.88-3.05 23.28-4.25z"/><path fill="#8a8c90" d="M1653.86 1494.13c1.95-.12 6.41-.35 8.13.58-.72 1.59-7.44 1.31-8.93 1.29z"/><path fill="#a9abae" d="M1695.12 1497.08c-2.77-.09-4.62-.06-7.3-.85l.81.17c-1.7-.55-1.24-.08-1.81-.82l.09-.13c1.52-.76 6.42-.54 8.18-.53z"/><path fill="#424c53" d="M312.055 1487.64c34.928-5.84 67.725-8.46 102.82-2.85 4.721.76 14.607 1.13 18.192 3.53l-.831 1.22c-8.534 3.48-27.861 4.51-37.35 4.3q-1.554 1.185-3.144 2.31c10.469 1.09 20.467 2.4 30.707 4.96-20.738 2.28-67.306 5.36-86.929-.03l-1.28-1.39c3.474-2.1 14.475-2.51 18.658-2.53l-.036-2.45c-11.658-1.07-30.114-3.05-40.807-7.07"/><path fill="#a9abae" d="M391.742 1496.15c-8.05-.7 1.341-2.21 3.144-2.31q-1.554 1.185-3.144 2.31"/><path fill="#c8c9cc" d="M352.862 1494.71c1.212.07 5.695.06 6.521.83-1.114 1.05-4.962 1.41-6.485 1.62z"/><path fill="#4a5058" d="M1041.45 1598.55c21.98-.97 43.99-.51 65.91 1.36 5.09.47 14.4 1.24 17.6 5.08-4.52 6.48-42.78 5.93-51.65 5.94-11.58.15-75.983.55-82.572-5.81l.667-1.52c9.965-5.33 38.255-4.78 50.045-5.05"/><path fill="#424c53" d="M127.766 1457.51c31.606-4.87 78.449-6.12 109.785.15-5.954 1.14-11.457 2.08-17.533 2.45-.557 1.58-.927 2.97-1.367 4.57-5.572 5.71-58.685 4.4-62.821.71-.176-.54-.202-.29.001-.75 1.164-.84 4.788-1.23 6.2-1.52l.858-.6c-.436-.45-1.155-1.09-1.615-1.5-10.262 0-23.301-1.88-33.508-3.51"/><path fill="#c8c9cc" d="M195.629 1460.62c6.626-.17 18.18-.86 24.389-.51-.557 1.58-.927 2.97-1.367 4.57-5.308-2.05-16.519-2.7-23.022-4.06"/><path fill="#a9abae" d="M161.274 1461.02c1.097-.02 10.014-.52 10.052 1.39-.389.52-.644.47-1.402.77-2.584-.02-5.434.44-7.893-.06l.858-.6c-.436-.45-1.155-1.09-1.615-1.5"/><path fill="#424c53" d="M1858.89 1453.76c4.55.25 12.69.29 17.28.23 12.5-.01 35.49 2.46 48.75 3.89-6.64.8-15.48 1.8-22.1 2.21-1.72 1.87-1.72 2.06-3.19 4.4-3.31 6.19-54.07 3.41-62.17.59.06-2.03-.59-2.55-1.74-4.18-8.11-.16-12.09-1.28-19.69-3.35 13.12-2.23 29.45-3.17 42.86-3.79"/><path fill="#c8c9cc" d="M1878.1 1460.97c6.48-.68 18.38-1.47 24.72-.88-1.72 1.87-1.72 2.06-3.19 4.4-5-2.36-15.98-2.94-21.53-3.52"/><path fill="#a9abae" d="M1835.72 1460.9c2.78-.06 21.16-.22 21.5 1.21.16-.13-16.69 1.95-19.76 2.97.06-2.03-.59-2.55-1.74-4.18"/><path fill="#4a5058" d="M1012.79 1666.42c4.02-.04 42.89-2 38.63 8.01-1.69 3.95-17.25 4.83-21.93 5.17-4.65.25-34.639.48-37.048-5.68-2.141-5.47 16.368-7.15 20.348-7.5m-382.509-120.03c4.226-.18 36.244-1.67 31.123 8.99-1.134 2.37-10.993 3.54-13.768 3.78-8.301.29-24.657.91-31.612-3.27-11.673-7.01 11.815-9.3 14.257-9.5m232.316 35.98c5.71-.32 18.74-.6 23.656 2.12 9.159 5.05-7.383 9.07-10.258 9.46l-4.48.58c-24.995 1.25-46.146-8.22-8.918-12.16m412.613 11.87c6.22-.55 21.99-1.61 26.81 1.72 8.02 5.54-9 9.49-10.77 9.89-7.09.54-21.7 1.52-27.37-2.63-8.03-5.86 9.73-8.67 11.33-8.98m-347.537 6.09c6.816-.1 39.836 3.6 17.437 10.75-6.834.24-21.68 1.25-26.56-3.2-7.168-6.54 7.886-7.4 9.123-7.55m539.157-55.02c5.72-.19 19.25-.42 24.16 2.57 6.47 3.94-.35 6.78-4.23 7.47-6.18.61-17.15 1.17-22.75-1.28-9.02-3.95-2.68-7.33 2.82-8.76m-951.512-28.03c17.171-.99 27.229 6.38 4.626 10.71-3.508.11-17.234.95-18.772-3.51-.283-.8-.174-1.68.294-2.39 2.143-3.26 10.364-4.25 13.852-4.81m1128.382-8.11c13.3-.26 43.94-.58 58.38 2.12.12.02.11.11.12.26-.85.86-2.11.91-3.28 1.05-17.31 2.61-31.92 4.11-49.44.59-1.09-.22-7.88-.85-7.55-2.83.34-.41.8-.6 1.77-1.19"/><path fill="url(#e)" d="M368.634 1509.45c8.858-.68 33.601.35 43.347.83-10.543 3.32-13.838 3.2-24.74 4.52-14.105.92-31.581-.97-45.989-2.53 12.931-1.96 14.494-2.05 27.382-2.82"/><path fill="#4a5058" d="M1548.35 1501.21c19.16-1.12 22 7.3 4.39 10.35-18.04.5-25.65-6.41-4.39-10.35m-830.831 32.06c6.261-.1 35.507 2.72 14.661 9.77-2.119.13-21.761 1.21-20.775-5.83.235-1.68 4.514-3.37 6.114-3.94m788.871-63.97c7.56-.01 30.12 1.39 12.39 10.05-4.19-.08-16.41-.26-19.15-2.99-6.53-6.47 5.22-6.81 6.76-7.06m-274.49 74.9c2.77-.2 20.7-2.3 17.67 5.37-.78 1.99-3.28 3.12-5.21 3.81l-1.62.6c-8.81.6-30.32-1.22-10.84-9.78m-683.586-76.87c4.714-.2 13.617-1.32 16.689 4.13.193.34.242 1.01-.056 1.36-2.062 2.42-3.977 3.22-6.94 4.11-3.115-.03-14.339-.05-16.588-1.66-7.332-5.23 5.411-7.63 6.895-7.94m1112.656 55.13c10.14-.58 20.43-.96 30.51.56 1.02.16 1.89 1.15 1.03 2.04-1.34 1.39-3.47 1.63-5.28 1.66-9.52 1.04-23 2.23-32.22-1.25l-.07-1.61c1.64-.99 2.47-1.12 4.34-1.25zm-1294.283.05c8.926-.59 18.087-1.16 26.802 1.36 1.322.39 1.939 1.63.832 2.34-1.961 1.27-6.803.87-9.071.92-16.738.24-19.458.62-35.7-3.14 7.072-.99 10.035-1.19 17.137-1.48m-8.687 9.91c2.873-.23 39.993-2.52 33.785 3.95-6.094 1.17-33.026 4.44-33.785-3.95m1304.69-.15c4.38-.52 41.7.9 19.09 5.37-4.27.32-25.48 1.43-27.51-2.92.58-1.9 6.87-2.22 8.42-2.45m-119.46-111.94c4.18.02 15.95-.49 18.24 3.8l-.37 1.1c-2.23 1.78-4.59 1.89-7.33 2.36-5.64-.32-32.23-3.42-10.54-7.26"/><path fill="#3e4248" d="M1852.89 1475.45c3.75-.29 31.9-1.62 33.27.14-.47 1.15-2.91 1.6-3.9 1.92-5.79 1.29-29.41 3.75-32.98-.47.21-.82 1.24-1.03 1.98-1.18z"/><path fill="#4a5058" d="M181.509 1474.49c1.383-.78 22.863 0 23.607 2.05l-.404.78c-1.608.76-11.403 1.01-14.237 1.26-3.978.96-23.262-1.87-29.461-2.42 8.277-1.05 12.309-1.08 20.495-1.67m-9.976 8.89c.774-.06 39.703-1.82 28.909 3.24-2.069.27-37.422 2.46-28.909-3.24"/><path fill="#3e4248" d="M1852.11 1484.51c3.19-.12 29.26-.77 30.25 1.01-.18.33-.03.11-.64.76-5.81 1.25-26.03 4.24-29.61-1.77"/><path fill="#8a795c" d="m876.151 843.889.772-.41c1.039-.563 5.781-3.943 6.699-2.995-.136 1.519-9.504 9.973-11.31 11.642l-2.592-2.321-3.652 2.895c-1.282-3.605.108-4.223 2.397-7.517.653-.582.664-.51.882-1.331 2.281 6.035 1.726-1.186 6.804.037"/><path fill="#fff" d="M869.347 843.852c2.281 6.035 1.726-1.186 6.804.037-1.161 1.903-4.318 3.88-6.431 5.916l-3.652 2.895c-1.282-3.605.108-4.223 2.397-7.517.653-.582.664-.51.882-1.331"/><path fill="#ae9e7b" d="M877.646 851.004c5.811-5.295 11.941-8.469 18.795-12.09-6.476 6.473-9.748 8.382-16.019 15.846z"/><path fill="#e1ab69" d="M902.962 814.328c-.883.797-5.03 6.239-5.961 4.578.061-2.265 3.243-6.018 4.726-7.719l2.291.833z"/><path fill="#5e4b38" d="m931.185 789.345 2.022-3.37 1.373.995c3.879 3.348 5.444 4.732-.554 5.414-.952-1.039-1.849-2.036-2.841-3.039"/><path fill="#e5e6e6" d="m931.185 789.345 2.022-3.37 1.373.995c-.256 1.73-.392 3.665-.554 5.414-.952-1.039-1.849-2.036-2.841-3.039"/><path fill="#8a8c90" d="M275.194 1449.92c-8.793-2.75-8.648-2.81 1.324-3.15z"/><path fill="#e1ab69" d="m919.358 806.133.809-1.547c8.019 3.926 6.109 7.924-.809 1.547"/><path fill="#8a8c90" d="m721.945 1519.49-1.369-.21c.46-.27.11-.11 1.305-.46z"/><metadata><recraft-signature>{&quot;signed_by&quot;: &quot;recraft&quot;, &quot;signature_b64&quot;: &quot;Uyou1gV6lxX8E1AFLHbE0oQbuLRrsvrRxZ8yQONIhs1MerNNmBPvLMSJPdWxxj9AqTYVgONYl0JndriGccUsBA==&quot;, &quot;signing_algo&quot;: &quot;Ed25519&quot;, &quot;generation_timestamp&quot;: 1777253801, &quot;identifier&quot;: &quot;b9ba37f0-8ab6-438d-9a86-fbaa73ad0190&quot;}</recraft-signature></metadata></svg>