<svg xmlns="http://www.w3.org/2000/svg" width="1024" height="1024" preserveAspectRatio="none" style="display:block" viewBox="0 0 2048 2048"><path fill="#536068" d="M969.344 702.979c47.006 39.308 55.456 48.615 60.996 110.604 6.44 71.965-7.73 173.203-54.914 230.017-14.117 17-30.265 29.55-49.96 39.48-23.168 11.68-70.666 22.04-86.383 41.45-4.211 5.2-5.735 12.85-5.145 19.38 1.494 16.54 10.303 32-2.028 47.29-5.015 6.22-13.303 8.37-20.945 8.89-5.687.39-10.721-.69-15.068-4.54-20.547-18.2-4.138-55.01-52.643-77.2-7.715-3.53-16.601-7.32-25.213-7-7.411.27-14.152 3.9-19.001 9.43-4.58 5.22-10.501 16-17.916 16.51-3.192.22-6.38-1.63-8.533-3.87-3.677-3.83-4.475-9.24-4.013-14.33 1.229-13.58 10.319-26.9 20.725-35.21 24.661-19.67 60.454-18.23 89.951-24.37 64.989-13.51 134.636-54.81 177.783-105.877 15.74-18.629 28.05-39.531 39.447-60.992l-2.784.316c-46.647 66.772-137.416 136.963-215.933 160.143 2.527-14.17 2.382-29.77-9.174-40.27-18.919-17.204-29.241 24.59-47.077 23.85-16.293-.67-21.682-14.9-17.854-28.25 3.594-12.54 15.742-20.571 27.316-24.332 14.369-4.966 28.513-2.754 43.296-2.253 36.513 1.649 73.541-5.184 105.562-23.345 30.926-16.748 60.819-41.413 77.004-73.227 10.298-20.241 17.537-47.092 18.306-69.801-.352-4.174.361-6.769-1.654-10.303-9.151 43.997-26.733 85.748-61.703 115.597 4.401-9.368 9.955-18.728 14.08-28.262 17.869-41.298 23.246-86.058 7.427-128.578l-1.513.619c18.752 83.757-39.746 172.948-122.924 191.393a234 234 0 0 1-17.279 3.119c1.062-48.289-2.558-74.053-42.97-101.935 35.511-.109 49.771 8.222 77.109 30.883-12.968-19.555-23.031-25.078-43.865-35.744 29.881-10.586 56.069-15.796 85.802-3.13-10.622-10.666-15.15-13.302-30.185-15.969 7.784-7.291 12.971-11.089 22.047-16.684l-3.672-1.983c-.356-6.334 17.641-19.67 20.929-29.716 7.901-24.144 1.573-31.965 23.936-49.44 5.768-21.991 18.002-31.711 41.142-23.984 7.956-2.543 19.562-6.595 27.491-8.376"/><path fill="#cecdd1" d="M973.492 805.169c.131-1.325.191-2.42.53-3.701l.89-.67-.527-.268-.093.675.589-1.126c2.225 1.42.726 12.676.265 15.393-.352-4.174.361-6.769-1.654-10.303"/><path fill="#aeb0b6" d="M993.7 892.957c.911-1.392 3.321-5.397 4.873-6.108l.126.072-.058.106.254.096c-.236 2.385-1.043 3.577-2.411 5.518zm-61.917-128.412c-.363-1.186-1.094-2.864-.688-4.061.197-.176.079-.127.36-.138.874.553 1.471 2.633 1.841 3.58z"/><path fill="#536068" d="M1091.73 702.06c12.05 2.948 18.39 5.765 29.61 11.191 6.97-2.217 11.5-3.113 18.89-3.85 22.64 9.189 22.99 20.45 22.88 42.706 13.93 19.756 25.9 36.305 40.75 55.345-5.45-1.312-21.95-4.346-24.25 3.024 24.2 2.665 35.38 7.075 55.42 23.457-23.09 2.266-42.52 16.477-36.57 41.842 1.02-.633 1.47-.791 2.23-1.678 1.28-9.251 3.66-19.82 11.61-25.503 19.63-14.039 58.73-.078 79.61 6.458-16.2 10.239-28.42 19.906-36.98 37.598-14.69 30.347-13.44 60.344-3.07 91.771-76.11-26.488-111.43-82.867-122.29-159.334-1.16-8.155-2.3-19.614-4.15-27.197-4.69 67.857 14.15 130.969 59.22 182.728a296.5 296.5 0 0 0 43.62 41.222c8.27 6.5 16.67 12.83 25.19 19 21.71 15.45 54.07 36.35 51.89 67.75a38.67 38.67 0 0 1-14.07 27.04c-17.62 14.56-39.77 11.65-38.27-15.66 45.5-49.35-17.31-59.18-51.58-39.72-13.19 7.48-19.32 14.28-29.26 25.68-8-17.41-10.97-33.44-30.46-41.61-28.4-11.91-65.89 12.11-55.3 43.57 10 19.78 44.15-5.61 54.44 12.34 6.79 13.93.37 31.62-13.71 37.06-34.9 13.48-66.53-10.97-77.84-44.45-27.95-82.77-12.99-176.051-11.23-261.827.53-25.637.97-49.707 1.73-75.187.6-30.816 26.08-59.101 51.94-73.766"/><path fill="#f1eeec" d="M1198.46 875.775c1.02-.633 1.47-.791 2.23-1.678.15 1.064.9 6.21-.14 7.08-1.2-.283-1.87-4.445-2.09-5.402"/><path fill="#fcfcfb" d="m1107.54 918.797 2.29-.742c11.29 35.993 33.04 77.262 56.07 107.075 9.27 11.99 25.05 27.6 36.03 38.69-56.62-33.86-77.94-84.403-94.39-145.023"/><path fill="#aeb0b6" d="M1105.12 904.844c2.52 5.114 3.22 7.469 4.71 13.211l-2.29.742c-1.26-5.641-1.58-8.201-2.42-13.953"/><path fill="#536068" d="M248.535 614.557c10.359 6.618 20.732 14.883 23.738 27.509 3.846 16.15-16.834 36.794.792 48.516 11.967 7.959 28.758 6.973 32.746 24.002 2.576 10.995-3.128 28.668 7.591 36.309 4.956 3.533 12.134 3.176 17.802 2.011 9.261-1.905 18.83-7.667 24.112-15.621 4.206-6.334 5.905-14.221 3.974-21.644-5.128-19.712-50.08-35.636-29.574-72.801 6.431-11.656 16.396-19.501 29.197-23.18 11.344-3.26 23.219-2.652 33.644 3.138 9.662 5.366 18.956 14.868 22.088 25.686 3.297 11.389.11 23.494-5.596 33.541-9.448 16.632-27.28 28.004-21.766 50.01a32.27 32.27 0 0 0 15.181 20.067c9.312 5.293 27.81 6.314 31.698-4.388 3.714-10.222-3.082-24.272 2.062-37.092 7.492-18.669 22.578-14.31 33.091-28.736 13.77-23.244-10.451-26.681 5.554-50.294 7.143-10.538 9.214-9.402 15.225-16.037l1.754 2.034c-17.526 17.745-18.4 30.021-7.411 50.089 10.864 19.844-22.887 28.412-29.312 44.513-8.302 20.805 11.919 39.709-2.274 59.909-10.638 16.361-37.241 20.086-43.595 39.227-7.802 23.503 12.958 37.22 21.357 55.144l.627 1.355c-25.698.543-52.304.189-78.054.258-11.752.032-35.203.671-46.177-.573-8.031-8.294 27.774-32.543 25.859-47.086-3.213-24.399-25.64-25.571-41.317-39.482-22.432-19.904-2.064-27.359-4.018-51.469-1.744-21.517-17.731-21.024-30.041-31.967-18.489-16.434 6.622-35.989 3.525-55.071-1.584-9.759-7.017-20.995-14.374-27.146zM1561.4 659.59c4.84 4.436 10.86 15.714 19.65 20.74 40.93 23.388 118.27 19.15 163.38 13.838 26.61-3.134 45.92-14.659 60.17-34.83 2.14 15.057 2.94 35.162 2.01 49.976-2.8 44.863-11.85 62.823-43.91 91.807-10.18 9.19-17.21 16.055-23.53 28.465l-.64 1.297-.95-.125c-4.79-53.164-94.85-71.373-110.9.469-12.09-25.682-26.17-28.606-43.77-50.192-27.76-34.047-26.01-79.934-21.51-121.445"/><path fill="#fcfcfb" d="M1748.16 721.884c10.59-.859 19.93 6.92 20.99 17.496 1.07 10.576-6.53 20.06-17.08 21.333a19.52 19.52 0 0 1-18.1-7.87 19.53 19.53 0 0 1-1.98-19.637 19.52 19.52 0 0 1 16.17-11.322m-137.73.882c10.12-2.282 20.2 3.969 22.66 14.049s-3.62 20.27-13.66 22.9a19.01 19.01 0 0 1-18.49-5.179 19.015 19.015 0 0 1 9.49-31.77m67.27 1.537c27.36-1.264 30.64 22.252 10.61 33.096-28.75.753-30.06-24.612-10.61-33.096"/><path fill="#536068" d="M1629.01 1247.7c40.01-.1 80.53.57 120.42.04.35 39.68-.38 79.6-.31 119.35.05 25.25 1.04 51.13.85 76.16-39.26 1.22-80.68.23-120.02-.23-.69-17.51-.18-38.18-1.05-54.68.07-2.43.09-4.87.06-7.3z"/><path fill="#fcfcfb" d="M1726.3 1259.84c3.03-.05 4.97-.41 7.59 1.07 1.27 4.94.85 34.16.86 41.42l.4 78.93-8.99-2.94zm-16.31.09c4.48.05 4.77-.65 8.14 1.25 1.31 5.87.78 30.75.77 38.36l-.07 78.36c-3.03-.03-5.12.36-7.51-1.36-1.2-7.17-.59-31.67-.61-40.47q-.09-38.085-.72-76.14m-15.89-.05c3.17-.09 5.15-.47 8 .89 1.18 6.03.76 28.6.77 36.09l.08 75.93c-4-1.36-5.09-1.48-8.3-4.04-.98-8.33-.43-28.19-.44-37.52zm-48.84-.04c3.04-.03 5-.34 7.75.94 1.46 12.55 2.33 99.81-.91 106.45-1.7.54-3.49.96-5.22 1.41-2.4-3.37-1.63-96.1-1.62-108.8m32.68-.09c3.57.04 5.71-.39 8.17 1.5 1.06 8.39.58 27.43.58 36.54l.06 65.47-8.52-5.89zm-16.13.09c1.88-.03 6.99-.79 8.52.69.75.73.36 86.96.41 96.21-1.89.19-4.02.39-5.75.7-.78.14-2.45-.02-2.46-.38-.61-19.08-.73-82.84-.72-97.22m-2.55 162.96c1.87.69 6.8 5.12 8.86 6.71 3.6-2 6.51-3.91 10.01-6.11 3.47 2.07 6.66 4.22 10.04 6.43 2.71-1.82 5.21-3.8 7.87-5.66l1.37-.97 1.33.74c3.67 2.02 4.24 2.69 7.61 5.03l.77.54c5.02-3.41 10.81-9.12 15.46-2.69 4.95 6.85 12.43-2.9 13.91-2.14 5.89 3.07-3.66 15.23-11.31 10.41l-1.36-.92c-12.17-8.32-11.74 10.07-24.01-2.95-1.54-1.63-6.41 3.95-10.29 4.55-2.8.41-5.64-.42-7.79-2.26-1.42-1.23-3.18-3.64-5.14-1.35-8.15 10.14-15.21-4.42-19.11-1.25-12.38 10.05-20.2-3.91-10.96-3.72 9.38.19 5.74 1.69 12.74-4.39"/><path fill="#536068" d="M430.762 1255.92c33.393 17.73 71 41.43 103.571 57.38-7.138 15.63-22.302 38.79-31.717 54.11a4599 4599 0 0 0-47.367 79.36c-6.007 10.25-13.957 22.43-19.366 32.65-10.174-7.26-21.14-12.97-31.795-19.44-23.667-14.35-49.981-28.36-72.888-43.71 16.525-28.46 32.827-55.47 51.319-82.67 9.583-14.1 19.426-33.34 29.756-46.62l-1.706-1.08c5.683-5.48 6.033-9.58 9.723-14.23l2.188.87c3.148-5.86 5.622-10.51 8.282-16.62"/><path fill="#cecdd1" d="M410.569 1285.9c5.683-5.48 6.033-9.58 9.723-14.23l2.188.87c-3.106 4.86-6.397 10.13-10.205 14.44z"/><path fill="#fcfcfb" d="M456.161 1282.4c2.771 1.44 3.4 1.5 5.372 3.94-1.052 6.01-56.794 96.33-64.676 109.29-2.851-1.45-4.518-2.18-5.418-5.13 5.761-11.26 16.006-27.06 22.817-38.24a3101 3101 0 0 0 41.905-69.86m11.652 6.1c3.684 1.77 3.517 1.04 5.602 3.94-2.71 6.47-18.622 32.6-22.874 39.47-13.206 21.34-26.434 45.47-40.166 66.18-3.67-.74-4.203-.12-5.897-2.37 4.18-9.24 17.511-30.11 23.179-39.48a3686 3686 0 0 0 40.156-67.74m-22.679-12.05c2.644 1.3 2.862 1.54 5.189 3.4-.222 2.29-59.132 99.62-64.159 107.39-2.697-1.87-3.47-2.09-5.203-4.88 2.325-6.03 12.376-20.35 16.04-26.79 14.955-26.28 33.604-52.92 48.133-79.12m34.301 17.93c.39.24 6.373 3.36 5.627 4.66-14.966 26.01-30.529 51.77-46.015 77.5-3.981 6.61-8.717 15.08-13.589 20.87-.869-.09-5.647-.16-6.205-1.08.902-4.98 53.493-88.7 60.182-101.95m-45.425-23.34c1.528.82 2.781 1.78 4.215 2.78.614 4.16-8.055 16.44-10.834 20.74-18.039 27.89-34.024 57.05-51.842 85.06-2.575-1.29-2.495-1.15-4.398-3.27 1.902-8.81 54.275-90.84 62.859-105.31m56.602 30.23c1.327.58 5.74 2.11 6.118 3.77.611 2.7-49.74 83.65-55.503 91.06-1.366.01-5.376.51-6.347-.65-.005-.1 50.778-85.08 55.732-94.18m22.37 13.12q2.375 1.05 4.63 2.34c.699.41 1.733 1 1.938 1.83-.594 1.9-7.966 13.4-9.467 15.81-15.299 24.47-29.088 50.41-45.228 74.33-.455.49-.902 1.1-1.462 1.48-.284.19-.717.37-1.052.17-.477-.27-.747-.96-.946-1.42s-.365-.93-.563-1.39c-.293-.68-.477-.9-.666-1.55-.68-2.36 47.713-81.24 52.816-91.6m-10.99-6.89c1.434.65 5.312 1.9 5.829 3.58.838 2.74-46.928 80.2-52.076 88.47-1.534-.75-4.616-2.1-5.267-3.83-.27-.72 47.011-80.38 51.514-88.22m-156.624 99.79c4.235 1.32 8.297 5.75 10.639 5.18 9.121-2.2 9.507 10.88 15.325 8.13 4.938-2.33 8.906 6.13 13.623 7.65 3.736 1.2 10.642 3.77 11.831 7.78.685 2.57 1.56 4.27 4.186 3.86 8.398-1.34 8.694 3.21 14.05 7.98.859.77 3.007.15 3.835-.41 6.93-2.76 7.396 9.13 13.483 10.17 5.249.89.445 4.63-1.685 5.82-1.412-.94-11.994-9.95-10.611-9.56-6.838-1.97-7.181 5.63-14.66-7.7-.709-1.26-5.681-.58-8.381-.99-7.415-1.12-4.92-8.97-11.555-11.25-1.453-.52-4.373 4.16-5.973.8-1.676-3.51-3.531-1.98-5.413-4.85-2.802-6.94-7.272 1.1-13.104-4.38-2.169-.92-1.423-6.66-2.298-6.94-7.603-2.39-13.881 6.41-13.292-11.29"/><path fill="#536068" d="M981.901 323.313c-6.2-5.859-11.713-10.787-15.533-18.118-22.29-42.769 15.02-93.789 61.522-92.577 18.49.482 32.42 2.282 46.69 16.21 12.51 12.616 18.35 32.312 18.32 49.822-.04 19.164-7.91 32.719-20.31 46.477-.96 28.771-11.08 24.905-36.36 25.853l-1.28 2.675c-5.96.039-12.49.341-18.36-.375l-.67-2.359c-26.638-1.135-34.527 2.044-34.019-27.608"/><path fill="#f1eeec" d="M1015.92 350.921q10.155-.087 20.31.059l-1.28 2.675c-5.96.039-12.49.341-18.36-.375z"/><path fill="#fcfcfb" d="M993.504 265.116c28.866-.079 33.156 37.92 4.998 45.741-28.803-.78-33.503-36.434-4.998-45.741m60.626 1.983c17.18-.86 22.97 5.854 27.13 21.818-3.1 11.875-4.57 15.97-16.14 21.576-23.96 3.707-39.06-25.498-10.99-43.394m-27.27 31.191c7.29 1.71 20.74 26.874 19.14 33.744-2.97 12.755-8.77-5.349-11.2-.671-1.37 2.63-5.29 4.486-7.77 5.091-4.81-4.733-2.58-3.193-5.59-8.033-1.97.489-4.09 10.869-10.09 6.37-9.4-7.047 10.15-28.483 15.51-36.501"/><path fill="#536068" d="M1507.88 1318.61c33.49-18.34 68.69-40.18 102.19-59.43 13.36 25.79 18.39 21 16.82 53.36-7.76-11.87-12.49-25.54-21.67-36.93-2.78-.54-1.34-.48-4.65 1.37-.88 10.69 29.36 41.88 25.75 58.32-4.98.38-24.66-45.91-33.67-53.1-1.83.52-4.31 2.25-4.2 2.62 4.56 15.51 40.87 63.88 37.28 78.03l-1.11-.22c-6.68-10.43-38.75-72.12-44.92-73.82-2.94 1.67-1.77.54-3.47 3.67.16 4.52 44.86 79.67 50.22 88.23l2.51.33c.03 2.43.01 4.87-.06 7.3l-2.62-.27-1.74.09c-10.18-11.25-49.5-88.1-55.41-91.25-3.68 1.73-3.58.97-5.33 3.85 3.66 7.53 10.42 18.23 14.79 25.64l26.51 45.08c7.51 12.71 15.06 22.1 19.03 36.56 2.32 8.47-.16 36.01 3.35 38.51 1.42.12 3.46.11 4.73.67.25.98-1.5 1.45-2.36 1.9-11.1 2.75-7.01-1.16-15.37 8.76-1.39 1.65-3.33 0-5.65 5.32.82 3.97-.08 2.35 2.55 5.17 5.64-.46 11.2-12.47 12.61-12.09 8.74 2.35 11.97-1.99 20.54-8.24 7.59-.29 15.42-.35 23.03-.51-15.11 13.41-42.94 24.51-61.14 36.29-5.25-7.53-9.82-16.57-14.82-24.39-29.04-45.44-53.81-96.22-83.72-140.82"/><path fill="#f1eeec" d="m1626.45 1380.71 2.51.33c.03 2.43.01 4.87-.06 7.3l-2.62-.27c.37-3.48.44-3.9.17-7.36"/><path fill="#565b56" d="M1627.48 1446.55c1.42.12 3.46.11 4.73.67.25.98-1.5 1.45-2.36 1.9z"/><path fill="#fcfcfb" d="M1557.14 1303.15c.48.45.88.85 1.25 1.4 5.16 7.71 57.01 96.71 56.64 97.9-.29.9-1.14 1.39-1.96 1.73-.33.14-.68.25-1 .41-.48.23-.95.48-1.43.72-5.23-5.38-60.23-96.4-59.95-97.77.32-1.54 3.51-2.79 4.66-3.41zm-25.54 14.56c3.2.88 17.89 28.12 20.5 32.61 12.54 21.62 25.25 43.14 38.12 64.57-1.03 3.66-1.21 5.09-3.39 8.28-12.67-20.58-25.11-41.3-37.31-62.16-7.15-11.96-16.6-26.71-22.81-38.85.7-2.4 2.18-2.61 4.89-4.45m13.04-7.74c3.94 4.49 11.91 20.03 15.53 26.03 10.4 17.26 20.13 34.89 31.09 51.86 3.23 5 7.56 12.08 9.73 17.51.15.6-1.82 1.93-2.59 2.37l-3.6 2.03c-1.96-2.03-10.16-17.63-12.43-21.59-9.23-16.09-18.7-32.04-28.43-47.83-5-8.1-10.97-17.28-14.93-25.74-.5-1.05 5.15-4.32 5.63-4.64"/><path fill="#536068" d="M306.9 1244.18c36.189 2.05 79.097 1.49 115.839 2.04.173 9.16.294 16.62-2.447 25.45-3.69 4.65-4.04 8.75-9.723 14.23-.369-6.55 1.98-25.15-1.917-28.62l-3.161.3c-7.122 7.38 3.159 36.74-7.019 42.88-5.85-7.72 4.182-43.53-7.344-43.65-6.016 4.72 4.929 51.63-8.748 70.25.181-8.34 1.235-65.97-.338-69.72-3.539-.61-1.908-.86-5.075.71-3.719 5.61-1.676 19.81-1.655 27.21l-.102 54.2c-2.585 3.23-4.483 5.02-7.476 7.92l.096-5.62.408-54.49c.043-6.81 1.634-26.66-2.485-30.9l-2.072.42c-1.339 1.48-2.859 3.39-2.949 5.57-1.332 32.4 3.338 66.52-2.35 98.42-2.714 15.23-39.606 58.36-37.365 68.72 4.103 1.96 15.235.23 19.441-1.4 8.685 4.58 17.43 9.05 26.234 13.4-14.116 1.53-45.26.4-60.52.21z"/><path fill="#fcfcfb" d="M332.327 1256.56c3.186-.02 3.614.07 6.771.67 1.279 3.34 1.125 98.16.508 107.92-3.306 1.13-3.586 1.87-6.416 1.17-1.362-11.09-.957-30.31-.955-41.97zm14.023-.5c3.802.34 4.164-.29 6.643 1.69 1.064 8.48.528 27.17.538 36.55l.074 67.01c-2.873.11-4.371.46-6.937-.84-.89-4.58-.457-26.28-.446-32.34zm-27.769-.42c3.552.47 4.77-.1 6.458 1.93.473 10.13 1.182 106.53-.344 109.6l-4.222-1.27c-.453-.51-.907-1.03-1.36-1.55-1.07-24.6-.596-87.96-.532-108.71"/><path fill="#536068" d="M194.177 1312.32c14.131-6.72 29.463-16.46 43.27-24.24 19.82-11.16 39.828-21.93 59.244-33.75 7.171 18.41 6.544 19.93 6.211 39.43-4.713-5.83-11.685-24.04-18.538-20.52-.247 4.64 16.849 28.06 18.685 37.65-.661 2.45.179 12.97-3.516 4.31-6.521-11.35-13.131-22.97-19.075-34.67-1.181-2.33-3.916-3.15-6.412-1.91-.46 6.98 24.335 45.51 28.593 54.45.026 1.51.862 9.71-1.108 9.93-1.104-.49-1.501-1.76-1.86-2.83-10.435-15.38-18.608-36.39-28.679-52.28-1.815-2.87-3.469-3.91-6.478-4.29-.733 1.21-1.639 2.37-.833 3.99 11.931 24.04 27.275 46.6 38.64 70.93.886 1.9.649 8.44.589 10.76-13.47-20.78-31.508-58.11-45.98-79.44-.579-.85-1.878-.11-3.246.29-3.79 4.55 2.515 10.73 5.473 15.93a2678 2678 0 0 0 25.429 44.17c7.014 12.07 18.536 27.25 17.035 41.15-2.729-2.77-9.413-15.63-11.72-19.75l-26.965-47.3c-4.832-8.67-9.995-18.28-15.144-26.81-1.322-2.19-1.843-1.83-3.879-2.15l-2.644 1.95c-.108 3.29 7.534 14.95 9.605 18.59a2757 2757 0 0 0 35.841 62.55c1.753 2.97 14.5 24.04 15.061 26.33 1.725 12.82.153 27.09-.141 39.96-.207 9.05-7.529 10.45-9.152 15.01l.95 1.78c5.121.62 23.845-14.36 33.811-14.35 5.194.01 11.779-.42 17.344-.12-9 6.74-43.612 22.77-55.624 28.73-32.788-52.62-62.67-110.58-94.787-163.48"/><path fill="#5e6672" d="M302.639 1333.07c.026 1.51.862 9.71-1.108 9.93-1.104-.49-1.501-1.76-1.86-2.83 2.108-1.9 1.98-2.39 2.509-5.19zm.41-22.18c-.661 2.45.179 12.97-3.516 4.31 2.162-1.86 2.065-1.84 3.516-4.31"/><path fill="#fcfcfb" d="M224.258 1305.81c2.854 3.02 16.671 27.95 19.327 32.82 12.851 23.55 27.809 47.7 39.972 71.47-.21 2.99-.858 2.62-3.618 5.41-2.779-3.14-10.563-17.36-12.846-21.67-14.667-27.64-33.159-55.26-46.906-83.19.437-2.89.986-2.39 4.071-4.84m8.916-5.52 2.167.85c4.319 5.5 60.604 104.5 60.819 106.24l-2.504 2.46c-.41-.09-2.504-.51-2.625-.7-21.152-33.5-40.736-70.28-60.496-104.88-.497-.88 1.701-2.87 2.639-3.97m-20.061 12.17c3.73 2.06 54.53 93.02 61.431 104.61-.153 3.24-.723 2.71-3.695 5.84-6.156-8.39-61.183-105.27-61.37-107.4z"/><path fill="#536068" d="M1016.59 353.28c5.87.716 12.4.414 18.36.375-6.04 61.704.35 106.963 38.18 156.53-26.43 14.762-59.12 19.096-86.215 2.942 34.915-24.057 4.357-44.705-25.84-10.431-16.488-9.102-28.899-18.487-40.878-32.805 76.654-18.918 70.424-112.178 82.833-115.593 5.19 6.205 4.14 30.693 3.37 38.718-1.93 20.251-7.246 38.787-18.815 55.661l1.005 2.321c17.87-22.295 23.81-47.294 26.56-75.303.66-6.682.5-14.562 1.22-20.65z"/><path fill="#aeb0b6" d="M978.984 461.392c2.967-4.617 5.23-8.381 8.601-12.715l1.005 2.321c-2.131 3.776-6.423 7.284-9.606 10.394"/><path fill="#536068" d="M1754.84 1265.57c10.71 2.52 36.61 18.32 48.13 24.69l48.69 26.41c-16.5 26.35-34.99 56.74-50.23 83.88-9.41 16.93-19.08 33.72-28.99 50.36-4.84 8.2-12.28 21.44-17.9 28.75-15.56-9.48-43.41-24.13-56.49-33.56 17.08 2.7 39.08.84 56.77 1.08 0-3.43-.78-54.43.85-56.29 6.78-7.72 52.91-82.59 51.07-86.7-3.63-2.48-1.79-2.17-5.51-1.81-2.98 2.39-41.44 70.8-46.32 79.55-.01-2.36-.12-11.17.79-13.45 9.69-24.16 27.73-46.21 39.11-69.89l-1.11-1.83-3.98-1.72c-3.24 2.17-29.15 47.28-35.06 55.82-.12-5.9-.65-9.34 1.79-14.67l.79-1.75c4.11-8.94 25.51-39.25 23.79-44.17-8.33-2.21-21.47 25.93-26.76 33.28.18-5.07.08-7.43 1.33-12.45 1.89-7.62 14.86-21.05 13.32-26.97l-3.66-2.83c-3.44.86-6.23 8-7.86 11.31l-2.46-.49z"/><path fill="#fcfcfb" d="M1826.03 1315.42c1.3.7 6.28 2.81 6.72 4.23-.93 3.86-46.86 79.81-52.29 88.95-2.13 2.68-3.53-3.28-4.81-5.77 16.09-27.89 35.52-59.61 50.38-87.41m-11.84-6.96c.17.1 5.81 3.06 5.4 3.96-10.52 23.32-26.36 44.62-38.78 67.15-3.32 6.02-6.98 12.16-10.57 18.04-1.29-.6-5.72-4.08-5.11-5.18 15.39-28.15 32.32-56.45 49.06-83.97"/><path fill="#536068" d="M1033.38 781.821c-5.54-18.299-11.46-35.276-19.03-53.231-11.43-28.208-70.806-81.65-13.58-97.959 16.23-4.181 34.57-5.084 50.94-4.103 59.62 3.572 45.03 27.267 17.88 62.289-15.01 19.367-30.92 58.754-33.5 83.557l-.14 1.406c0 1.499.02 11.395-.78 12.281-1.42.475-1.68-3.605-1.79-4.24"/><path fill="#aeb0b6" d="M1035.95 773.78c0 1.499.02 11.395-.78 12.281-1.42.475-1.68-3.605-1.79-4.24 2.16-.538 1.9-5.452 2.57-8.041"/><path fill="#536068" d="M924.245 1158.05c-14.321-11.17-14.029-16.81-12.494-33.02 2.335-24.67 42.943-27.92 34.15-2.59-4.545 3.95-15.129.48-18.915 8.25-16.462 33.74 48.996 26.53 65.555 21.12-9.165-13.48 5.167-9.33 15.839-12.9 9.2-18.88 12.34-10.58 28.88-10.01 3.79-.12 11.8-1.81 10.97 3.57-.96 6.18 4.01 20.45 8.06 24.73 4.7 9.34 4.53 11.52-4.49 17l-2.33.57c-1.55 4.81-8.71 10.51-11.81 14.67-6.41 3.08-10.73 2.73-17.64 1.77-25.955-.64-52.324.17-78.404-.36-14.718.57-31.807.31-46.668.23l-.423-2.07 3.677.77c8.36-8.31 18.271-21.95 26.043-31.73"/><path fill="#d62120" d="M1008.38 1138.91c9.2-18.88 12.34-10.58 28.88-10.01 3.79-.12 11.8-1.81 10.97 3.57-.96 6.18 4.01 20.45 8.06 24.73 4.7 9.34 4.53 11.52-4.49 17l-2.33.57c-1.55 4.81-8.71 10.51-11.81 14.67-6.41 3.08-10.73 2.73-17.64 1.77l-.02-1.56c-3.26-3.34-4.24-4.66-6.84-8.61-.39-1.49-.79-3.05-1.23-4.52l-1.33-4.2-1.34-4.2c-2.25-12.4-11.063-12.09-2.37-23.7 4.32-.56 3.13-2.53 1.49-5.51"/><path fill="#dc2324" d="M1014.27 1166.79c9.34 5.6 12.1 7.97 23.65 6.8 7.13 12.19-9.1 15.57-17.92 16.06-3.26-3.34-4.24-4.66-6.84-8.61-.39-1.49-.79-3.05-1.23-4.52l-1.33-4.2-1.34-4.2c1.71-.49 3.29-.9 5.01-1.33"/><path fill="#5a1716" d="m1012.91 1145.24 1.11 1.08c.24 6.2-.95 22.09 8.4 22.94 4.35-2.45-9.44-13.55-1.26-17.68.25-.13.41-.78.23-1.16-1.18-.49-4.36 1.5-4.55-1.48 1.21-1.54 3.18-.37 4.13-.8 6.1-2.77 12.06 4.23 6.51 2.87-5.7-1.4-3.4 2.82-2.34 6.35 3.8 5.63-5.6 5.07 1.76 11.18 3.81 3.16 5.85 3.47 10.6 2.53.72-.18 3.82-.47 4.11.48-.56.78-2.75 1.61-3.69 2.04-11.55 1.17-14.31-1.2-23.65-6.8-2.24-5.35-3.45-15.84-1.36-21.55m36.56 29.53c-2.48-3.23-9.82-22.15-8.77-25.02l.69.01c1.53 1.23 1.87 3.26 2.37 5.26a70.6 70.6 0 0 0 7.1 17.64c.32.52.63 1.03.94 1.54z"/><path fill="#5a1716" d="M1028.35 1141.57c5.48 4.49-8.99 1.77-14.33 4.75l-1.11-1.08c8.25-3.91 5.54-2.61 15.44-3.67m5.36 10.5c3.77-1.17 4.75 5.77 5.18 8.42-.46.68 1.95 6.51.4 6.34-7.9-.86-8.42-2.56-10.17-9.03-1.71-1.25-1.1-2.34.82-2.13 5.55.63 2.47 6.15 3.24 6.56 5.88 2.86 2.67-2.96 2.82-4.28.51-4.36-4.46-3.58-2.29-5.88"/><path fill="#5a1716" d="M1031.53 1136.99c12.73 2.66 8.69 6.21 18.67 13.86 1.33 1.02.74.86 1.35 1.58l-.05-.13-1.01.37c-10.27-2.08-6.63-8.62-16.01-12.63-3.95-1.17-11.12-1.84-15.72-2.73 3.61-.11 9.59.32 12.77-.32m-23.15 1.92c1.64 2.98 2.83 4.95-1.49 5.51-8.693 11.61.12 11.3 2.37 23.7l1.34 4.2 1.33 4.2c.44 1.47.84 3.03 1.23 4.52-1.74-.46-3.51-.65-5.16-1.38-2.73-1.2-4.86-2.08-7.31-3.81 2.09-5.15.31-8.19 3.19-13.31l.71-1.39c-1.41-3.21-2.05-8.51-5.728-6-1.476-2.97-1.275-2.09-4.129-2.9l-2.192-.44c-9.165-13.48 5.167-9.33 15.839-12.9"/><path fill="#dc2324" d="M1008.38 1138.91c1.64 2.98 2.83 4.95-1.49 5.51-6.48.08-7.641 3.38-12.157 7.83l-2.192-.44c-9.165-13.48 5.167-9.33 15.839-12.9m-3.79 22.24.52 1.63c1.25 3.85 6.27 14.33 2.89 16.88-2.73-1.2-4.86-2.08-7.31-3.81 2.09-5.15.31-8.19 3.19-13.31z"/><path fill="#d62120" d="M998.862 1155.15c3.678-2.51 4.318 2.79 5.728 6l-.71 1.39c-2.88 5.12-1.1 8.16-3.19 13.31-3.338-2.97-4.05-4.39-6.728-7.92-1.137-2.75-1.09-3.06-1.513-6.05 2.394-2.29 4.183-4.29 6.413-6.73"/><path fill="#090908" d="M937.039 1158.85c14.02 6.12 22.903 10.21 38.731 7.76 3.714-.57 10.56-3.7 13.371-3.49 3.048.22.239.46 3.308-1.24.423 2.99.376 3.3 1.513 6.05-.552-.44-3.095-3.24-3.393-3.06-9.081 5.43-20.807 5.52-31.074 4.38-10.03-1.12-14.84-4.42-22.456-10.4"/><path fill="#5e6672" d="m894.525 1189.01 3.677.77c9.767 1.66 32.244-2.14 43.414 1.07-14.718.57-31.807.31-46.668.23z"/><path fill="#536068" d="M1038.23 1737.51c-4.21-9.77-5.8-20.47-5.11-31.07.3-4.57 7.06-.69 8.82-.04 21.14 4.07 38.66 3.25 59.96.41.28 21 2.13 37.26-21.4 44.95l.89 1.51c4.67-.35 18.72.33 24.25.58 19.43.89 32.28.6 51.38-2.87.29 14.41.9 30.67-8.89 42.46-14.62 17.61-45.45 20.08-62.29 4.21-12.78-12.05-13.53-27.39-14.16-43.63-17.82-.01-22.9-2.1-33.45-16.51"/><path fill="#898b94" d="M1081.39 1753.27c-.88.21-5.11 1.37-5.75.03.6-1.54 3.47-1.44 4.86-1.54z"/><path fill="#fcfcfb" d="M1112.44 1775.45c4.29 2.45 5 5.8 7.94 9.2 6.26 7.22 2.77 7.27-4.38 7.07-6.35-1.92-20.28 5.49-3.56-16.27m-20-8.17a7.44 7.44 0 0 1 7.66-.15 7.41 7.41 0 0 1 3.72 6.7 7.44 7.44 0 0 1-4.17 6.43 7.43 7.43 0 0 1-9.75-3.07c-1.92-3.46-.81-7.81 2.54-9.91m36.61.16a7.2 7.2 0 0 1 9.23 4.03 7.19 7.19 0 0 1-3.83 9.31 7.198 7.198 0 1 1-5.4-13.34m-61.43-41.12c3.1 1.43 13.05 11 4.74 14.42-15.2 1-12.43-2.31-4.74-14.42m12.57-6.16c2.06-.64 4.31-.13 5.88 1.35a5.966 5.966 0 0 1-2.51 10.11 5.975 5.975 0 0 1-3.37-11.46m-27.55.99c3.05-1.12 6.43.45 7.53 3.51s-.5 6.43-3.57 7.51a5.853 5.853 0 0 1-7.44-3.55 5.845 5.845 0 0 1 3.48-7.47"/><path fill="#aeb0b6" d="M1112.79 1770.19c.15 0 .3 0 .45-.01.23.31.11.08.32.89-.57-.02-.39.04-.63-.1-.14-.3-.07-.08-.14-.78"/><path fill="#536068" d="M885.792 1719.44c2.715.43 5.595 1.07 8.214 1.43a243 243 0 0 0 55.496 1.3c11.286-1.05 22.01-3.05 32.516-7.41.028 11.51 1.195 30.46-5.61 40.66-1.005 1.51-4.914.85-6.408.77l-.657 1.86c-1.223 2.29-1.269 2.16-1.515 4.71-.466.83-1.108 1.48-1.737 2.22-.383 4.13.381 21.56-.065 22.36-1.167.64-6.757-1.11-7.701.3-2.262 3.77.53 5.2-2.835 9.03-2.309 2.64-1.589 6.2 3.089 4.63 4.855-1.62 8.625 4.3 10.775-2.65l1.657-.63c3.198 4.49 6.055 9.41 8.771 14.2-13.881 8.24-24.022 7.55-38.372-.65-10.735-6.14-15.791-17.16-18.878-28.37-.641 1.05-.446 1.26-1.156 1.44-.841-1.79.116-1.99-1.745-2.62-30.242-12.62-32.355-33.23-33.839-62.58"/><path fill="#536068" d="M922.532 1783.2c-.195-4.88-.339-8.96-1.181-13.77-.739-4.22-1.86-6.51 2.536-7.13l1.834-.31c5.513 1.45 8.853 1.16 14.603 1.41 7.772 1.18 22.142-.96 25.767 1.58-.383 4.13.381 21.56-.065 22.36-1.167.64-6.757-1.11-7.701.3-2.262 3.77.53 5.2-2.835 9.03-2.309 2.64-1.589 6.2 3.089 4.63 4.855-1.62 8.625 4.3 10.775-2.65l1.657-.63c3.198 4.49 6.055 9.41 8.771 14.2-13.881 8.24-24.022 7.55-38.372-.65-10.735-6.14-15.791-17.16-18.878-28.37"/><path fill="#fcfcfb" d="M941.476 1778.9c9.556-.3 17.263 2.39 8.727 12-9.186-.06-16.331-2.82-8.727-12m-16.801-19.57c5.649-6.31 7.136-10.11 11.741-16.9 2.241 7.35 2.126 12.44 6.769 18.65-1.242 1.51-1.081 1.36-2.861 2.32-5.75-.25-9.09.04-14.603-1.41-.362-1.33-.337-1.5-1.046-2.66"/><path fill="#f1eeec" d="M943.185 1761.08c6.206-.29 11.587 2.05 18.66-.33 4.41-1.49 2.201-5.12 6.632-4.68l1.523.12-.657 1.86c-1.223 2.29-1.269 2.16-1.515 4.71-.466.83-1.108 1.48-1.737 2.22-3.625-2.54-17.995-.4-25.767-1.58 1.78-.96 1.619-.81 2.861-2.32m-23.554 20.94c-.386-3.21-1.162-19.08-.032-21.39 1.035-.51 3.71-.91 5.076-1.3.709 1.16.684 1.33 1.046 2.66l-1.834.31c-4.396.62-3.275 2.91-2.536 7.13.842 4.81.986 8.89 1.181 13.77-.641 1.05-.446 1.26-1.156 1.44-.841-1.79.116-1.99-1.745-2.62"/><path fill="#fcfcfb" d="M952.239 1736.87c11.914 2.53 12.814 12.79 1.69 17.14l-1.688-.49c-12.716-3.57-10.588-11.49-.002-16.65m-41.1 3.26c11.572-.95 19.079 3.96 9.061 13.99-10.617-.12-21.054-4.61-9.061-13.99"/><path fill="#536068" d="M890.931 1193.72c90.311.56 182.279-.3 272.219 1.03-.18 5.67-.23 12-.59 17.59-12.5-.61-25-.41-37.52-.35l.44 2c-5.86.01-11.72-.02-17.58-.1l-.63-2.07c-15.96-1.12-38.64-.43-55.01-.43l-94.701-.16c-2.579.56-6.542.53-8.32 1.86-6.039 1.22-13.239.91-19.47.83l-.347-2.11c-10.576-.02-28.358.42-38.284-.5z"/><path fill="#cecdd1" d="M929.422 1211.81c8.85-.22 19.525-.82 28.137-.58-2.579.56-6.542.53-8.32 1.86-6.039 1.22-13.239.91-19.47.83z"/><path fill="#f1eeec" d="M1107.27 1211.82c5.92-.04 11.85.01 17.77.17l.44 2c-5.86.01-11.72-.02-17.58-.1z"/><path fill="#536068" d="M961.749 1632.95c2.407 2.35 4.276 12.38 4.952 16.05 2.759 14.99 3.689 32.3-7.191 44.03-18.211 19.64-43.717 21.88-64.821 7.02-11.003-10.72-15.046-25.4-18.76-40.16 31.632-4.12 58.222-9.25 85.82-26.94"/><path fill="#fcfcfb" d="M927.663 1672.85c1.852 2.26 3.418 5.34 6.59 6.82 2.619 1.23 8.602 6.02 5.392 9.62-1.426 1.59-5.556.34-7.405-.11-3.834-2.99-3.372 9.21-8.646 1.46-2.631-3.86 2.328-13.73 4.069-17.79m14.342-12.05c12.122.81 14.139 8.27 4.293 14.53-11.63-1.87-14.445-7.41-4.293-14.53m-33.926 9.22c11.836 1.35 12.266 9.72 2.206 14.32-12.97-1.34-11.828-7.9-2.206-14.32"/><path fill="#536068" d="M1051.98 351.486c1.42 1.365 1.84 1.856 2.18 3.949 7.72 47.029 22.06 99.208 69.99 120.141-7.08 5.911-13.22 10.62-20.68 16.068-5.67 4.084-10.75 7.375-16.67 11.106-20.12-15.087-35.72-36.35-42.34-60.714-6.87-25.272-5.67-67.581 7.52-90.55M897.142 1214.23l28.863-.27c-.111 55.2-4.2 113.68-9.922 168.63-1.105 10.6-4.097 25.6-13.838 31.31-31.273 1.58-11.557-19.28-7.642-32.02 15.488-50.41 16.233-116.4 2.539-167.65m405.218-353.28c9.25-.492 10.88.843 18.9 5.087-11.44 5.93-18.68 16.522-23.71 28.078-13.83 31.752-13.77 64.963-1.58 97.014l-14.09-.083c-7.68-1.006-11.74-1.853-19.27-3.775-19.53-42.77-3.69-103.827 39.75-126.321m-174.19 353.27 28.83-.2c-2.34 7.2-4.2 14.55-5.56 22-8.77 47.51-7.61 129.29 20.19 169.48-.58 1.21-1.17 2.32-2.04 3.35-3.11 3.67-7.36 5.23-12.07 5.54-3.89.25-7.15-.64-10.02-3.36-16.5-15.62-19.51-166.51-19.33-196.81m-131.134 419.44c23.924 7.02 59.834 9.57 84.064 3.64-.18 16.77-.17 28.79-10.2 43.14-4.73 5.34-9.54 9.3-16.9 10.52-46.31 7.67-57.484-14.47-56.964-57.3"/><path fill="#fcfcfb" d="M1038.01 1658.53c2.29 2.33 9.22 15.16 7.94 18.41-1.03 2.61-5.05 2.22-7.42.82l-1.28-.73c-2.85-2.23-1.81 2.42-5.73.57a3.16 3.16 0 0 1-1.71-2.11c-.38-1.71 6.7-11.65 8.2-16.96m16.28-4.32c4.01-.7 7.82 1.99 8.49 6.01.67 4.01-2.06 7.8-6.08 8.43-3.97.62-7.7-2.07-8.36-6.03s2-7.72 5.95-8.41m-36.52-.26c10.88.28 16.59 3.8 7.38 12.98-10.7.41-16.47-4.63-7.38-12.98"/><path fill="#536068" d="M969.343 1758.05c8.907 1.98 11.423 4.16 21.53 4.41 20.707.5 39.707 2.38 60.157-2.06-.05 18.28-.57 36.01-16.53 48.1-13.45 10.2-34.769 8.44-49.654 2.9l-1.131-1.36c-12.449-14.37-15.145-29.01-15.887-47.28.246-2.55.292-2.42 1.515-4.71"/><path fill="#fcfcfb" d="M1008.6 1782.73c.93.94 9.38 14.39 9.42 15.14-1 2.02-3.99 1.89-5.89 1.82-18.284 2.61-8.63-4.89-3.53-16.96m15.28-6.31c9.31 2.27 15.18 7.5 5.65 14.46-9.15-.12-13.97-6.04-6.9-13.16zm-34.764 1.97a6.81 6.81 0 0 1 6.836-.52 6.8 6.8 0 0 1 3.801 5.71 6.78 6.78 0 0 1-3.107 6.11 6.784 6.784 0 0 1-9.325-1.95 6.784 6.784 0 0 1 1.795-9.35"/><path fill="#536068" d="m1028.82 1875.98.07-1.98c.06-2.58-.8-5.6 2.55-5.17 23.35 2.99 46.59 6.27 70.06 2.09 3.07-.55 6.12-.99 9.25-1.28.62 33.22-11 60.3-51.22 53.08-22.44-4.03-27.03-20.12-29.9-40.48-.13-2.53-.35-3.75-.81-6.26"/><path fill="#fcfcfb" d="M1068.83 1891.42c2.38 1.07 15.88 20.6 2.02 17.05l-1.61-.39c-2.2-1.45-6.54 2.62-8.02-2.1-1.04-3.31 5.64-10.88 7.61-14.56m-19.7-6.37a7.38 7.38 0 0 1 10.77 7.1 7.41 7.41 0 0 1-4.27 6.15c-3.64 1.67-7.96.14-9.72-3.46a7.38 7.38 0 0 1 3.22-9.79m34.75.69c7.78 1.1 14.98 4.61 7.04 11.95l-1.21 1.16c-10.64.27-14.21-5.36-5.83-13.11"/><path fill="#536068" d="M894.99 1817.76c21.569 1.77 42.767 3.68 64.501 3.27 9.244-.17 15.049-3.83 15.629 7.46.786 15.3 2.711 21.79-7.698 34.11-15.403 13.23-34.915 13.69-52.16 3.08-17.414-10.71-19.533-29.04-20.272-47.92"/><path fill="#fcfcfb" d="M918.193 1832.8c11.101.37 14.84 6.27 5.321 13.82-2.771.2-5.063.55-7.495-1.15a6.37 6.37 0 0 1-2.723-4.48c-.431-3.34 2.868-6.08 4.897-8.19m34.846-.22c10.256 2.2 14.411 6.76 6.074 14.58-8.984-.52-15.825-5.9-7.392-13.37zm-13.677 7.29c.738 1.59 6.91 14.2 6.596 15.16-2.038 6.21-6.188 1.3-8.419-1.15-1.444 1.71-3.694 5.9-7.782.46-.717-.96 7.26-10.79 8.976-13.48z"/><path fill="#536068" d="M1089.84 1674.72c22.5 5.58 57.85 7.3 80.42 2.66l1.9-.36c-.35 16.33.06 27.78-10.3 40.94-18.41 17.47-34.14 14.72-56.03 6.82-.65-6.72-.73-14.57-1.06-21.46-4.6.09-8.68.42-13.43.45-1.49-11.61-1.84-17.03-1.5-29.05"/><path fill="#fcfcfb" d="M1130.27 1699.52c6.46 1.93 14.17 22.16.34 15.24l-1.35-.63c-1.97.75-5.2 4.06-6.5 2.4-2.66-3.38 6.28-15.41 7.51-17.01m14.35-6.73c10.66.83 14.89 5.05 6.41 13.22-8.87-1.42-15.7-5.53-6.41-13.22m-33.63.18c10.31-.79 13.87 2.24 7.08 11.16-9.62.18-14.92-2.42-7.08-11.16"/><path fill="#536068" d="M953.678 1876.9c20.533 2.1 43.06 3.27 63.852.39 3.72-.52 4.41-1.26 9.25-1.65l2.04.34c.46 2.51.68 3.73.81 6.26-2.78 5.38.45 7.28-2.14 10.48-3.5 31.89-34.259 42.86-60.145 24.93-11.624-8.06-13.093-27.4-13.667-40.75"/><path fill="#f1eeec" d="m1026.78 1875.64 2.04.34c.46 2.51.68 3.73.81 6.26-2.78 5.38.45 7.28-2.14 10.48-.68-3.76-.44-12.43-.71-17.08"/><path fill="#fcfcfb" d="M1007.19 1889.9c7.78 1.02 7.85 9.27 1.87 12.65l-1.56.95c-10.077-4.83-13.229-10.08-.31-13.6m-15.961 6.66c2.386 2.5 7.987 8.57 7.19 12.5a2.98 2.98 0 0 1-1.364 1.95c-1.923 1.17-4.272.26-6.249-.24-1.285-.15-6.466 2.19-6.566-.79-.121-3.63 4.919-10.29 6.989-13.42m-18.659-5.2a6.22 6.22 0 0 1 6.596-.38 6.204 6.204 0 0 1-.637 11.17 6.2 6.2 0 0 1-7.789-2.74 6.2 6.2 0 0 1 1.83-8.05"/><path fill="#536068" d="M1096.14 1808.9c25.4.84 46.66 5.53 72.61-.49.02 14.51.03 26.75-9.19 38.67-4.94 4.78-11.15 9.97-18.07 10.83-39.06 4.85-46.6-18.17-45.35-49.01"/><path fill="#fcfcfb" d="M1130.52 1827.55c2.69 2.35 6.55 11.69 8.39 15.48 1.31 2.68-7.63.97-7.73.95-1.96-1.62-10.89 2.07-6.78-3.52 3.99-5.43 4.02-6.85 6.12-12.91m12.41-3.07a6.308 6.308 0 0 1 7.48 10.16c-2.81 2.09-6.78 1.5-8.85-1.32a6.3 6.3 0 0 1 1.37-8.84m-30.78-.51c8.16.06 15.63.68 9.24 10.93-7.69-.35-15.6-2.31-9.24-10.93"/><path fill="#536068" d="M1067.39 350.816c3.67 3.451 11.77 25.651 14.65 31.562 15.65 32.221 34.45 52.246 71.38 53.286-2.83 5.582-7.15 12.107-10.53 17.523-2.06 3.586-4.33 7.082-6.54 10.582-58.69-6.744-71.57-62.407-68.96-112.953m-11.1 806.384c19.71 6.09 56 9.11 76.26 3.2 8.24 10.02 13.96 17.55 21.52 28.25l-2.39 2.46c-14.62-.16-107.49 1.28-114.02-1.67 3.1-4.16 10.26-9.86 11.81-14.67l2.33-.57c9.02-5.48 9.19-7.66 4.49-17M735.129 860.9c34.837-1.867 57.259 69.957 53.503 97.486-.133.975-6.033 1.15-6.222 1.165-8.388.277-14.355-.031-22.653-.873l-.455-1.362c-6.271-16.056-5.678-33.508-8.197-50.32-.216-4.114-1.322-9.601-1.913-13.504-1.755-11.59-10.577-21.701-20.803-26.929-.124-.063-.095-.299-.036-.409 1.175-2.19 4.792-4.025 6.776-5.254"/><path fill="#536068" d="M728.879 872.784c7.518 3.962 13.846 12.627 16.27 20.7l1.433 4.634c-5.65 4.482-12.004 10.034-18.12 14.81-10.947 8.549-10.521 13.843-14.075 25.95-.262.893-11.454 5.765-11.377-.816.021-1.809-2.259-12.932-2.898-16.734-4.334 2.916-8.252 5.557-12.501 8.622-7.804 7.018-1.94 9.715-4.546 14.566-11.048 20.567-10.097-14.693-10.023-21.115 3.456-5.671 19.429-31.545 24.478-34.259 10.146-5.452 20.493-9.352 31.359-16.358m259.33-521.207c1.585 1.77 1.995 2.261 1.912 5.301-.82 30.281-12.761 63.649-32.731 86.394-11.891 13.542-31.221 14.104-47.518 14.952l-4.855-7.059c-3.04-4.936-5.715-10.138-8.44-15.26 40.821 5.4 65.341-20.645 79.448-56.142 3.174-7.988 7.201-21.528 12.184-28.186M983.685 1692.8c14.505.79 28.755 2.69 43.375 2.45 2.3-.04 23.51-.55 23.99.74 1.64 4.44-5.43 5.07-8.26 7.96l-.85 2.45c-1.76-.65-8.52-4.53-8.82.04-.69 10.6.9 21.3 5.11 31.07l-1.47 1.62c-1.57 4.46-7.77 4.67-12.26 4.91-10.57.57-20.48-1.79-28.42-9.15-13.226-12.25-12.059-25.68-12.395-42.09"/><path fill="#fcfcfb" d="M1030.46 1727.37c-.09.09-.19.17-.28.25-.42.38-1.3 1.35-2 1.72-.89.48-1.61.52-2.56.13-1.06-.43-2.09-.97-3.18-1.32-.98-.3-1.83.06-2.6.63-.57.41-1.2 1.03-1.86 1.3-.58.24-.9.2-1.47.02-2.26-2.34 1.79-21.15 11.78-11.2l1.18 1.14c.18 2.82.54 4.57.99 7.33"/><path fill="#f1eeec" d="M1030.27 1712.67c-.12-2.22-1.06-9.47 2.65-10.41 2.41-.61 6.03-.41 8.29.85l1.58.84-.85 2.45c-1.76-.65-8.52-4.53-8.82.04-.69 10.6.9 21.3 5.11 31.07l-1.47 1.62c-3.01-4.77-3.61-6.75-5.23-11.99l-1.07.23c-.45-2.76-.81-4.51-.99-7.33.4-2.61.58-4.74.8-7.37"/><path fill="#898b94" d="M1030.27 1712.67c.57 4.35 1.07 10.04 1.26 14.47l-1.07.23c-.45-2.76-.81-4.51-.99-7.33.4-2.61.58-4.74.8-7.37"/><path fill="#fcfcfb" d="M1003.69 1706.76c7.56.6 15.96 5.01 7.63 11.64l-2.35 1.86c-7.39-1.19-14.135-5.27-6.71-12.13z"/><path fill="#536068" d="M1317.6 872.646c6.35.673 30.6 12.838 34 18.732 6.87 11.943 16.33 22.505 23.48 33.901-.3 4.667-1.14 32.136-9.28 21.89-2.11-2.656.12-11.67.4-15.071-2.36-3.019-3.81-4.874-6.41-7.74-10.39-9.107-15.02-11.553-10.61 7.622 2.11 9.137-1.79 9.199-10.17 7.901-2.2-.341-1.94-14.424-3.18-16.368-1.64-5.208-5.5-8.164-10.6-10.85-7.29-3.336-12.99-9.012-19.81-12.536l-3.37-1.725c3.29-8.071 7.63-18.425 14.09-24.356zM929.769 1213.92c6.231.08 13.431.39 19.47-.83-.386 13.45-.915 26.91-.582 40.36.377 15.23 7.04 77.7.476 88.07-2.387 3.78-5.812 6.54-10.309 7.29-3.217.53-5.008-.45-7.498-2.33-4.268-8.28 4.081-16.37 4.429-27.45.906-28.79-8.822-78.2-5.986-105.11m52.234-581.576-.41 1.693c-29.609 22.784 7.388 60.922 19.897 82.786 3.85 6.722 5.87 10.718 8.96 17.868a224 224 0 0 0-26.901-25.906c-7.106-5.992-13.473-12.56-20.537-18.288-15.253-12.367-28.065-19.339-45.109-28.188 18.151-12.715 42.16-25.72 64.1-29.965m-94.819 573.226c-6.807-5.65-12.217-10.4-16.495-18.99-13.317-27.01-9.799-67.56 18.128-84.03 8.543-5.03 20.593.43 22.922 8.23 2.871 9.6-18.104 7.27-22.755 21.06-7.424 22.01-3.167 36.79 5.541 57.17l.423 2.07c-3.038 0-3.367-.06-6.294.6-2.985 3.97-1.794 8.49-1.47 13.89m268.756-16.52c4.38-9.95 7.04-14.65 9.37-24.53 2.89-12.2.02-44.35-16.32-45.41-17.19.46-4.31-22.68 11.45-15.85 15.53 6.74 23.21 17.64 26.85 34.21 6.05 27.5-2.56 47.6-20.32 67.67.16-11.9 3.36-14.24-7.82-14.11zm-48.04 24.84c5.86.08 11.72.11 17.58.1 3.63 17.77-3.7 82.26-5.08 102.54-.78 11.5 7.83 18.91 5.22 28.74-7.6 8.16-17.06 1.77-18.5-8.39-3.84-27.24.63-57.71 1.65-85.02.55-12.66.26-25.35-.87-37.97m-16.26-582.347c16.28 3.633 41.95 20.023 54.41 30.954-18.85 9.419-37.58 20.033-54.57 32.593l-8.98 6.673c-9 7.409-18.6 14.463-27.78 22.007 12.4-23.771 38.77-53.764 44.3-76.618-1.43-5.75-1.95-9.547-6.1-14.14zm-50.13 1193.927c.64 2.66 1.4 5.41 2.09 8.08l-2.54 1.74c-.35 10.56-.22 14.46-7.53 23.24-12.76 15.35-31.32 14.92-45.952 2.3-9.879-8.51-9.043-22.05-9.401-34.09 30.403 3.4 32.673 2.93 62.003-.04z"/><path fill="#f1eeec" d="M1041.51 1825.47c.64 2.66 1.4 5.41 2.09 8.08l-2.54 1.74c-.23-2.97-.54-5.64-.88-8.59z"/><path fill="#fcfcfb" d="M1007.72 1843.32c.63.19 1.26.37 1.9.54 5.5 1.44 5.64 6.31 5.46 11.35-.08 2.06-2.62 2.22-4.02 1.47-.21-.12-2.4-.86-2.4-.86-2.85-1.03-1.95 1.45-4.12 1.4-1.67-1.71 2.24-11.78 3.18-13.9m-12.646-3.87a5.25 5.25 0 0 1 6.896 2.17 5.25 5.25 0 0 1-1.79 7 5.254 5.254 0 1 1-5.106-9.17m22.066.7c6.65-.53 14.26-1.78 9.88 6.95-7.25 5.19-8.01 1.26-9.88-6.95"/><path fill="#536068" d="M1039.49 1808.55c7.83.85 13.94 1.67 23.17 2.32 3.57.26 24.97-.75 29.11.7.58.2 1.57 7.79 1.09 8.97-.24 2.47-6.95 2.37-8.39 2.3-3.51-.17-3.35 7.46-1.41 7.93 7.84 1.89 7.37-.03 10.34-3.33l.12-.02c.96 3.28 4.44 16.35 2.47 17.98-17.29 14.41-43.27 9.26-51.45-9.73-.31-.71-.62-1.42-.94-2.12-.69-2.67-1.45-5.42-2.09-8.08-.75-5.87-1.45-11.02-2.02-16.92"/><path fill="#fcfcfb" d="M1072.44 1826.53c8.25 7.37 6.28 22.87.12 10.54-12.29 14.44-2.14-6.93-.12-10.54m-15.31-3.41c2.36-1.38 5.4-.72 6.96 1.54a5.236 5.236 0 0 1-1.01 7.05 5.23 5.23 0 0 1-5.42.72 5.26 5.26 0 0 1-3.11-4.49c-.11-1.96.88-3.82 2.58-4.82"/><path fill="#536068" d="M1298.64 906.372c7.72 7.678 9.42 24.595 14.33 32.131 12.57 19.287 15.19 26.237-1.36 46.229-9.69 8.365-9.26 7.907-13.25-4.331-3.81-11.698-4.22-23.252-4.52-35.401-.34-13.737 2.42-25.272 4.8-38.628"/><path fill="#c76110" d="M1104.51 1542.45c3.07 0 6.72 0 9.73.14.03 3.68.57 27.2-.03 27.75-6.16 5.61-6.22-4.34-6.2-7.79-.92-2.89-.94-3-2.45-5.59-5.26 18.67-7.23 19.95-13.9 1.91l-3.04 1.08c.25 4.17 2.25 12.69-3.61 11.42-.35-.07-1.43-.14-1.7-.67-.82-6.15-.26-22.73-.24-28.26 1.71.04 9.08-.23 9.57.91 1.79 4.19 4.51 13.76 5.97 18.2 1.87-6.4 3.83-12.77 5.9-19.1"/><path fill="#e8c2a5" d="M1105.56 1556.96c.22-1.23.49-4.8 1.81-5.2.84.85.68 4.81.68 5.75 0 1.68-.02 3.36-.04 5.04-.92-2.89-.94-3-2.45-5.59"/><path fill="#f1eeec" d="M1088.62 1559.95c.06-.93.07-4.49.69-5.35 1.04-.48 2.17 3.8 2.35 4.27z"/><path fill="#c76110" d="M1810.52 557.093c-1.95-.46-5.43-.481-5.3-3.012.4-7.272-.93-19.669.73-26.119.07-.239 8.32-3.069 9.28 3.024.18 1.132 5.12 13.361 5.78 14.979l.43-1.157c1.83-4.831 3.51-12.123 5.81-16.577.37-.502 1.72-.793 2.25-.655.51.134 6.07-.256 6.11.775.11 3.656 3.13 26.313.67 27.853-6.72.404-5.35-1.555-5.33-7.753-.61-3.674-.81-5.09-1.89-8.588-7.79 25.49-9.35 20.428-16.24.745-1.91 8.023.68 11.179-2.3 16.485"/><path fill="#e8c2a5" d="M1810.52 557.093c.32-2.418-.4-19.963 1.94-18.409l-.32.23.63.596c.02.366.03.732.05 1.098-1.91 8.023.68 11.179-2.3 16.485m18.54-17.23c.25-1.02.24-2.185 1.32-2.3 1.15 1.016.61 9.428.57 10.888-.61-3.674-.81-5.09-1.89-8.588"/><path fill="#c76110" d="M918.303 1552.34c-.22 2.65 1.429 25.58-7.107 17.56-.648-.61-.02-23.81.76-26.22.221-1.56 9.028-1.53 9.476-.31 2.102 5.72 3.866 11.89 5.746 17.77 2.13-5.96 3.193-12.59 5.743-17.99.302-.64 9.492-1.02 9.73 1.12.618 5.54.198 12.39.397 17.82.149 4.07 1.233 13.51-5.624 7.78-1.029-.86-.279-10.49-.164-11.91q-1.384-.96-2.76-1.95c-.998 3.14-3.452 13.54-6.101 14.86-.745.37-1.601.43-2.39.18-2.869-.93-6.582-15.29-7.706-18.71"/><path fill="#f1eeec" d="M934.5 1556.01c1.514-5.01 2.356-5.1 2.656.47l.104 1.48q-1.384-.96-2.76-1.95"/><path fill="#c76110" d="M922.033 133.088c5.48-.032 16.587-1.103 19.854 3.855 4.594 6.97-.336 10.363-3.904 14.185 4.373 6.054 10.542 9.6 2.65 11.912l-1.785.619c-3.587-3.884-6.78-9.897-9.737-14.577-.061 1.763.012 9.974-.385 11.907.016 2.158-6.007 1.234-6.154.635-1.161-4.713-.583-24.819-.539-28.536"/><path fill="#f1eeec" d="M929.578 139.83a3.838 3.838 0 1 1 5.676 5.168 3.838 3.838 0 0 1-5.676-5.168"/><path fill="#c76110" d="M512.964 1144.78c.576.03 1.151.07 1.727.09 1.12.04 3.654-.22 4.701.58.925.7.503 24.66.379 27.61-.024.58-.368 2.38-.851 2.64-1.066.56-2.776.44-3.885.06-3.589-1.24-6.706.32-10.434.88-1.787-1.11-3.725-2.1-5.013-3.81-1.942-2.6-2.579-6.22-1.943-9.33.565-2.75 2.001-4.88 4.408-6.29 4.917-3.45 10.05-.03 10.39-.83.987-2.34.516-8.44.521-11.6"/><path fill="#fcfcfb" d="M507.715 1159.32c5.451 2.9 8.213 7.21 3.038 12.46l-1.339 1.41c-4.742-3.76-7.4-6.76-2.801-12.44z"/><path fill="#c76110" d="M974.42 130.748c11.256 1.222 4.594 2.264 6.896 11.751.349 1.437 6.818-1.251 10.43.925 5.917 3.566 6.201 9.951 2.877 15.561l-.744 1.308c-10.71 5.391-9.211-.588-13.679 1.224-9.891 4.01-5.814-22.256-5.78-30.769"/><path fill="#fcfcfb" d="M984.202 147.617a4.917 4.917 0 1 1 2.059 9.614 4.917 4.917 0 0 1-2.059-9.614"/><path fill="#c76110" d="M401.311 1144.5c.642.09 6.234.52 6.28 1.07.804 9.67.395 20.08.015 29.81-.09 2.29-7.224-1.4-7.962-.07-1.076 1.05-5.88 1.48-7.538 1.56-6.914-5.31-9.11-12.48-1.748-19.5 3.319-3.16 8.996-.26 10.791-.95.47-.81.156-10.16.162-11.92"/><path fill="#fcfcfb" d="M395.531 1160.32c7.474 2.13 7.648 6.5 2.925 12.36-4.912-2.42-7.66-5.52-3.904-10.83z"/><path fill="#c76110" d="M1612.31 535.606c7.61.825 3.66-.621 7.29 2.636 1.33.179 5.19-3.869 9.41-2.005 8.43 3.727 7.84 16.85-1.19 20.282l-1.59.638-1.66-.557c-.9-.289-4.1-1.45-4.93-1.441-2.2 1.227 1.69 8.935-3.08 9.863-7.06 1.373-4.18-23.333-4.25-29.416"/><path fill="#fcfcfb" d="M1622.21 541.427a5.01 5.01 0 0 1 5.03.89 5.02 5.02 0 0 1 1.63 4.835 5.01 5.01 0 0 1-3.46 3.752 5.01 5.01 0 0 1-6.18-3.193 5.01 5.01 0 0 1 2.98-6.284"/><path fill="#c76110" d="M1058.94 1540.51c3.01.4 6.37-.25 5.99 3.01-.44 3.76.81 26.44-.85 28.09 2.41-.56-16.69.42-15.18.36-4.56-3.36-6.97-4.98-6.39-11.33a9.4 9.4 0 0 1 3.94-6.79c5.66-3.99 10.26-.02 12.15-1.02.55-1.51.33-10.22.34-12.32"/><path fill="#fcfcfb" d="M1051.47 1557.68a5.07 5.07 0 0 1 6.97 1.43c1.55 2.3.96 5.41-1.32 6.99a5.05 5.05 0 0 1-5.09.39 5.04 5.04 0 0 1-2.85-4.24c-.12-1.83.76-3.57 2.29-4.57"/><path fill="#c76110" d="M226.038 527.25c6.469-.196 19.941-2.308 22.288 5.756 2.411 8.278-6.418 10.941-12.045 12.401-2.311-.301-2.975-.519-3.26 2.018-.249 2.206 1.604 7.991-1.944 8.376-1.737.188-5.012.299-4.953-2.269.195-8.755.031-17.527-.086-26.282"/><path fill="#fcfcfb" d="M233.292 532.376c6.281.723 8.809-.125 7.016 6.678q-1.066.138-2.129.295c-6.313.974-4.83-1.095-4.887-6.973"/><path fill="#c76110" d="M1846.75 536.175c7.07-.538 9.29-.22 16.3.315.02 5.998.24 12.096.18 18.056-.04 3.298-5.22 1.63-6.56 1.226-3-.508-14.4 5.778-14.99-9.78-.14-3.549.93-6.271 3.76-8.656z"/><path fill="#fcfcfb" d="M1849.32 540.478c8.84.425 9.47 3.039 6.25 12.102-8.12-1.39-9.14-4.326-6.25-12.102"/><path fill="#c76110" d="M1125.73 1551.96c4.61-.02 7.58 1.48 11.28.1 6.55-2.46 3.29 11.44 4.34 14.95 1.79 6-1.37 4.85-6.09 4.62-3-.45-6.18 1-8.26.42-12.27-3.39-8.81-14.4-1.27-20.09"/><path fill="#fcfcfb" d="M1127.98 1557.6a4.943 4.943 0 0 1 6.59 2.03c1.29 2.35.47 5.3-1.84 6.66-1.56.91-3.49.9-5.04-.02a4.96 4.96 0 0 1-2.41-4.42c.05-1.8 1.09-3.43 2.7-4.25"/><path fill="#c76110" d="M279.794 1146.11c3.966-.21 7.793-.97 11.731.88 1.786.84 4.756 3.37 3.092 5.83-2.046 3.03-5.73-.94-9.611-.56a9.28 9.28 0 0 0-6.536 3.59c-1.653 2.12-2.056 4.5-1.679 7.16a8 8 0 0 0 3.555 5.63c4.293 2.78 8.913.55 13.615-.14 9.192 15.29-31.462 8.75-24.101-10.5 2.859-7.47 2.841-7.83 9.934-11.89m178.827 9.95c-1.147.03 16.687.58 15.784.35-.664-.62 4.487 21.57-1.73 19.16l-.989-.37c-4.212-.1-4.912 1.19-8.038 1.32-11.001.48-11.933-13.14-5.995-19.41z"/><path fill="#fcfcfb" d="M462.407 1160.5c8.152.46 7.747 3.97 5.131 11.1-8.037-.97-8.487-4.23-5.131-11.1"/><path fill="#c76110" d="M952.868 1552c4.183-.19 6.748-1.12 9.703 1.85.665.66 6.783-5.4 6.839 1.17-.293 1.05.384 5.86.19 6.48-1.306 4.16 4.768 10.43-1.685 9.19-6.749-.35-18.212 5.26-20.083-7.7-.562-3.89 1.143-7.13 3.953-9.88z"/><path fill="#fcfcfb" d="M956.175 1557.69a4.98 4.98 0 0 1 6.861 1.72 4.986 4.986 0 0 1-1.769 6.85 4.98 4.98 0 0 1-6.8-1.76 4.983 4.983 0 0 1 1.708-6.81"/><path fill="#c76110" d="M402.367 536.229c5.665-2.29 12.113.447 14.401 6.113 2.288 5.665-.452 12.112-6.118 14.398-5.663 2.284-12.106-.453-14.393-6.116s.449-12.106 6.11-14.395"/><path fill="#fcfcfb" d="M403.885 542.678a4.827 4.827 0 1 1 4.563 8.447 4.828 4.828 0 0 1-4.563-8.447"/><path fill="#c76110" d="M1674.94 535.755c3.94.451 5.86 1.709 9.42.782 2.57-.396 5.24.436 4.83 3.441-1.37 10.124 5.97 18.294-6.96 15.326-12.73 5.848-20.55-11.087-7.29-19.549"/><path fill="#fcfcfb" d="M1676.6 540.39c7.42 2.137 7.99 5.612 4.78 12.184-7.65-1.852-8.49-5.144-4.78-12.184"/><path fill="#c76110" d="M1043.93 142.924c16.6-1.487 21.4 11.129 10.75 18.841l-1.45 1.099c-1.58.09-3.16.147-4.75.171-3.43.028-6.67-.737-9.08-3.431a9.88 9.88 0 0 1-2.4-7.611c.47-4.713 3.4-6.563 6.93-9.069"/><path fill="#fcfcfb" d="M1046.74 148.519a4.82 4.82 0 0 1 4.91.535 4.85 4.85 0 0 1 1.87 4.576 4.83 4.83 0 0 1-3.14 3.819 4.817 4.817 0 0 1-6.1-2.719 4.816 4.816 0 0 1 2.46-6.211"/><path fill="#c76110" d="M954.903 142.362c5.654-2.097 11.942.753 14.092 6.388 2.149 5.635-.643 11.949-6.257 14.151-5.689 2.231-12.105-.607-14.283-6.316s.718-12.098 6.448-14.223"/><path fill="#fcfcfb" d="M956.124 148.653a4.92 4.92 0 0 1 7.662 4.41 4.922 4.922 0 1 1-7.662-4.41"/><path fill="#c76110" d="M438.262 1145.06c3.141.13 9.669-.05 10.904 3.85 1.993 6.29-6.481 2.66-10.166 3.13a8 8 0 0 0-5.406 3.15c-3.54 4.71-1.521 10.67 2.96 13.77 4.802 3.32 9.168-.52 12.847.46l1.897.53c-9.091 22.69-46.583-12.35-13.036-24.89M1521.87 526.186c21.37-2.657 13.88 8.855 9.47 7.419-4.45-1.449-8.7-1.404-9.95 2.29-4.11 12.14.74 16.676 12.76 13.372 6.9-.063 1.85 9.051-7.14 7.989-16.63-1.966-19.07-20.399-6.57-29.953zm-1252.139 9.951c17.369-1.187 22.305 11.349 9.313 19.85-15.737 1.165-21.291-10.453-10.705-18.73z"/><path fill="#fcfcfb" d="M272.564 541.61a4.89 4.89 0 1 1 4.284 8.794 4.89 4.89 0 0 1-4.284-8.794"/><path fill="#c76110" d="M1548.66 536.147c5.71-1.91 11.88 1.168 13.79 6.874s-1.17 11.878-6.88 13.785c-5.7 1.907-11.87-1.171-13.78-6.875s1.17-11.875 6.87-13.784"/><path fill="#fcfcfb" d="M1550.94 541.704c2.57-.671 5.2.862 5.89 3.431a4.84 4.84 0 0 1-3.39 5.917 4.845 4.845 0 0 1-5.96-3.415 4.843 4.843 0 0 1 3.46-5.933"/><path fill="#c76110" d="M1096.71 133.169c3.79-.351 7.47-.879 11.27.084 1.15.142 4.07 2.155 2.8 3.629-2.35 2.736-9.73.051-11.26 4.078-.47 2.18 2.62 3.554 4.02 3.86 5.65 1.228 10.33 5.591 8.19 11.657-1.36 3.856-4.75 5.224-8.3 6.743-3.24-.194-11.42-.377-12.67-4.544 1.11-4.218 7.93-1.812 10.12-1.724l1.33.086.04-.051c11.63-6.592-22.42-7.785-6.8-22.587zM849.058 1539.69c12.723 1.51 2.252 9.23 6.591 13.61 2.399.48 3.66-3.48 8.354-1.34a7.14 7.14 0 0 1 3.729 4.05c.602 1.68.976 13.62.002 14.32-4.234 3.04-6.872.56-6.261-4.1-.163-2.85.837-9-2.793-8.98-8.47.04 1.893 18.46-9.573 13.73-.666-.27-1.094-28.06-.049-31.29M1759.75 535.923c5.63-1.027 11.08 2.553 12.37 8.132s-2.03 11.188-7.54 12.74a10.73 10.73 0 0 1-10.63-2.882 10.71 10.71 0 0 1-2.48-10.731 10.71 10.71 0 0 1 8.28-7.259"/><path fill="#fcfcfb" d="M1760.48 541.688a4.68 4.68 0 0 1 5.55 3.603 4.678 4.678 0 0 1-9.15 1.939 4.68 4.68 0 0 1 3.6-5.542"/><path fill="#c76110" d="M469.697 526.736c1.179.114 5.565.199 6.36.813.392 1.206-9.174 26.716-11.148 28.053-6.241 4.228-9.281-10.09-11.246-13.865-1.118-2.628-11.158-17.816 1.759-13.538 1.069.354 5.935 15.171 7.403 18.925 1.985-6.065 3.885-12.906 6.231-18.743zM994.075 1540.49c.749.05 6.245.08 6.365.62 1.06 4.48.54 13.21.54 17.85 3.36-2.98 7.76-8.47 13.24-6.59.77 1.62.19 2.44-1.19 3.54q-3.045 2.37-6 4.86c2.48 2.78 4.66 5.22 7.25 7.91 4.58 3.92-4.41 2.89-6 2.03-2.33-1.5-3.62-5.14-6.26-5.94-2.662 2.52 1.25 9.28-7.16 6.16-.927-.34-.691-28.25-.785-30.44m26.795-1384.138c-1.74 11.484-22.609 8.046-19.99-5.374 2.77-14.215 25.25-9.726 19.88 2.961-.06.78.05 1.631.11 2.413"/><path fill="#f1eeec" d="M1016.13 153.76c1.6.09 3.04.138 4.63.179-.06.78.05 1.631.11 2.413l-1.25.293c-7.92 1.795-6.65 5.198-12.62-2.149 3.4-.461 5.72-.558 9.13-.736"/><path fill="#d4680f" d="M1007 154.496c1.93-8.013 3.55-9.363 9.13-.736-3.41.178-5.73.275-9.13.736"/><path fill="#c76110" d="M208.105 1144.72c13.881.11 2.947 7.12 7.495 12.32 3.816 1.34 14.141-9.61 12.529 13.95-.281 4.1-1.039 5.39-5.614 3.92-1.131-.37-.885-8.39-.909-9.15.255-2.15.921-5.33-4.191-4.8-6 .63 2.422 20.49-8.84 13.81-.328-.19-.436-26.77-.47-30.05"/><path fill="#d4680f" d="M1456.15 556.938c-1.66-.403-5.48-.526-5.4-2.86.34-3.058-1.35-27.47-.1-28.296 8.5-5.641 5.89 8.844 5.78 10.469l1.18.525c.85.37 1.52.169 2.17-.191 12.15-5.343 11.36 17.027 9.76 18.225-9.83 7.355-3.76-11.266-7.06-12.751-7.86-3.546-5 9.076-6.33 14.879"/><path fill="#c76110" d="M1456.15 556.938c-1.66-.403-5.48-.526-5.4-2.86.34-3.058-1.35-27.47-.1-28.296 8.5-5.641 5.89 8.844 5.78 10.469-1.06 1.573-.53 18.223-.28 20.687M163.888 524.745c1.413.125 4.181-.021 5.726.826 2.067.927-.591 11.762 1.394 11.47 3.355-.495 10.324-3.038 11.832 2.509.812 2.986.978 12.106-.008 15.397-.382 1.274-4.265 1.54-5.103.326-1.297-2.018-.736-6.03-.821-8.514.142-1.468.651-6.399-2.834-5.895-8.35 1.632 2.39 19.584-9.365 14.365-1.157-.514-.748-26.953-.821-30.484M904.11 156.179c-1.99 4.419-3.276 6.584-8.605 6.773-15.661.558-16.02-20.761-.509-20.52 6.647.103 10.379 4.844 9.691 11.416z"/><path fill="#f1eeec" d="M899.771 153.944q2.459-.035 4.916-.096l-.577 2.331c-5.551-.183-12.594 4.982-12.936-1.73 3.367-.375 5.156-.476 8.597-.505"/><path fill="#d4680f" d="M898.318 148.908c.515 2.542.558 2.711 1.453 5.036-3.441.029-5.23.13-8.597.505-.375-2.275-.311-2.791-1.229-4.828l1.306.13c3.76.411 3.678.585 7.067-.843"/><path fill="#fcfcfb" d="M889.945 149.621c3.071-3.054 5.052-4.157 8.373-.713-3.389 1.428-3.307 1.254-7.067.843z"/><path fill="#c76110" d="M859.389 130.887c6.796.409 7.733-.294 6.701 7.558-1.411 11.021 5.331-.1 11.389 5.6 2.717 2.556 2.715 16.406 1.313 17.862-1.439 1.495-5.633 1.954-5.57-2.658-.038-2.341 1.805-13.517-4.952-11.391-5.079 2.22-.154 13.568-5.156 14.468-4.63.833-3.194-9.008-3.25-11.299-.166-6.77-.168-13.414-.475-20.14M1888.47 524.355c.7.142 5.12.801 5.23 1.29 1.14 5.28.6 13.364.59 18.821 1.61-1.718 6.24-7.743 7.85-7.943 11.57-1.442-.17 7.134-1.01 8.002 3.36 5.145 3.05 4.952 7.05 9.428 1.26 3.208-1.13 1.664-3.73 2.182-2.93 1.942-10.57-13.793-10.12-5.136.28 5.346-1.25 6.268-6.23 4.346-.78-.304.17-28.688.37-30.99M1038.02 1567.33c-5.49 7.67-18.77 5.8-20.04-2.81-3.27-22.28 31.2-9.34 19.15-.23.16.86.63 2.22.89 3.04"/><path fill="#f1eeec" d="M1038.02 1567.33c-4.61-.64-9.97.56-13.27-1.51l.65-1.27-.92.27.08-.17c2.54-1.56 9.71-.64 12.57-.36.16.86.63 2.22.89 3.04"/><path fill="#fcfcfb" d="M1027.63 1555.6c3.69 1.87 5.21 1.96 2.57 5.39-.81-.23-1.61-.44-2.42-.63-4.47-1.04-2.57-2.4-.15-4.76"/><path fill="#c76110" d="M577.791 550.923c-1.252 7.091-13.896 6.541-16.511 2.773-13-18.73 20.012-26.769 17.127-6.225l-2.18.494z"/><path fill="#d4680f" d="M565.003 548.387c.422-3.037-.136-8.282 3.976-7.884 7.889.762.85 5.552 6.04 6.427l3.388.541-2.18.494c-4.731-.062-6.564-.106-11.224.422"/><path fill="#f1eeec" d="M565.003 548.387c4.66-.528 6.493-.484 11.224-.422l1.564 2.958c-4.926.211-10.949 2.842-12.788-2.536"/><path fill="#c76110" d="M367.815 1155.95c7.733-.59 14.483.08 14.786 10.55.082 2.84-15.122-.68-14.136 3 1.078 4.03 7.991 1.78 10.447 1.34 2.108.66 2.573 1.98.703 3.29-12.786 8.91-26.642-6.84-13.328-16.96z"/><path fill="#fcfcfb" d="M368.097 1163.92c1.064-4.5 5.508-5.55 7.103.14.532 3.98-4.72 3.27-8.007 2.74l-.15-.22c.412-1.19.638-1.23 1.054-2.66"/><path fill="#d4680f" d="M368.097 1163.92c2.368.01 4.736.06 7.103.14.532 3.98-4.72 3.27-8.007 2.74l-.15-.22c.412-1.19.638-1.23 1.054-2.66"/><path fill="#c76110" d="M330.294 534.92c5.826.715 12.639 3.148 12.567 11.653-.03 3.579-14.05-.643-14.698 2.576 1.54 3.428 8.817 2.123 11.501 2.013 3.058 14.544-35.698-1.234-9.37-16.242"/><path fill="#fcfcfb" d="M329.122 539.825c4.265.14 5.466-.355 6.939 3.963-3.258-.005-7.208 1.375-6.991-2.591z"/><path fill="#c76110" d="M1190.49 1564.13c.13.19.98 1.3 1.02 1.41 1.44 4.36 11.7.02 12.42 1.9 2.51 6.51-25.67 9.36-18.2-10.52 1.74-4.66 10.1-7.32 14.84-4.06 5.57 5.02 8.7 10.81-.98 11.12-4.09-.21-5.03-.22-9.1.15"/><path fill="#d4680f" d="M1191.39 1559.51c2.52.3 3.87.37 6.43.43.58 1.35 1.17 2.7 1.77 4.04-4.09-.21-5.03-.22-9.1.15.35-1.61.68-2.97.9-4.62"/><path fill="#fcfcfb" d="M1191.39 1559.51c.28-3.18 5.73-6.29 6.43.43-2.56-.06-3.91-.13-6.43-.43"/><path fill="#c76110" d="M194.815 535.938c5.171-.005 9.691-.642 12.717 4.487 7.156 12.129-11.269 4.778-12.347 8.612 1.341 5.053 8.652 1.791 11.426 1.078 1.593 1.824 1.389 3.257-.769 4.704-12.423 8.328-24.962-8.542-12.58-17.67z"/><path fill="#fcfcfb" d="M197.654 539.322c3.822 1.909 5.509 2.233 2.529 5.747-5.511-1.761-6.035-1.314-2.529-5.747"/><path fill="#c76110" d="M1481.89 535.82c5.58.304 14.33 1.369 13.01 10.297-.49 3.33-11.47.866-12.96 2.319-2.27 2.226 3.37 4.124 5.08 2.974.23-.149 5.11-1.05 5.75-1.166.93 1.738 1.23 3.445-.85 4.586-14.32 7.833-25.65-9.067-10.03-19.01"/><path fill="#fcfcfb" d="m1482.39 539.488 1.04.195c3.99.711 4.59.968 3.98 5.023-.84-.16-1.69-.307-2.54-.44-4.01-.595-3.85-1.137-2.48-4.778"/><path fill="#c76110" d="M483.62 547.03c.101.336.376 1.069.442 1.476.861 5.348 12.631.723 12.501 3.108-.334 6.123-10.403 5.659-14.089 3.415-8.33-4.451-6.869-18.133 3.027-19.428 2.259-.295 7.165.085 8.604 1.91 5.254 6.662 5.217 9.286-2.088 10.312-3.639-.667-4.671-.69-8.397-.793"/><path fill="#d4680f" d="M484.962 542.982c1.747.041 3.859-.201 5.627-.341.452 1.956.836 3.262 1.428 5.182-3.639-.667-4.671-.69-8.397-.793-1.561-2.097-.647-2.154 1.342-4.048"/><path fill="#fcfcfb" d="M484.962 542.982c-1.437-3.836 5.424-4.446 5.627-.341-1.768.14-3.88.382-5.627.341"/><path fill="#c76110" d="M1712.98 536.024c10.12 1.026 7.63 2.321 11.65 12.493 1.29-3.507 2.52-7.823 4.49-10.935.97-1.538 5.2-1.21 6.08.033.14 1.834-6.92 16.335-8.11 18.942-7.3 16.037-20.72 7.223-7.48 2.19 4.16-1.584-5.8-17.43-6.63-22.723M242.349 1154.8c5.111 1.15 10.508 2.86 11.284 8.82.463 3.55-.039 3.84-3.631 3.83-2.757-.01-6.469-.74-9.093.05-.328.15-.717.67-.67 1.02.468 3.41 4.522 3.46 7.156 2.95l4.388-.85c.528 8.5-14.048 6.48-17.499.76a10.63 10.63 0 0 1-1.069-8.4c1.319-4.38 5.413-6.32 9.134-8.18"/><path fill="#fcfcfb" d="M241.969 1158.55c3.937 1.32 5.166.84 4.252 4.91-4.792-.75-6.5.09-4.252-4.91"/><path fill="#c76110" d="M183.003 1146.23c6.118.14 16.632-.73 21.575.55 2.382 2.68.301 7.85-4.065 5.93-5.559-2.44-3.392 13.49-3.398 16.54-.006 2.87.961 5.62-2.121 6.08-6.439.97-4.108-2.8-4.572-6.89-.523-4.61.938-11.22-.959-15.25-.488-.98-4.906.62-5.803-.58-1.097-1.36-.628-4.85-.657-6.38M834.102 133.128c4.686-.031 27.534-2.65 21.916 4.361-1.679 2.095-6.391 1.766-6.657 2.797-.906 3.501-.477 11.158-.493 14.964.01 3.045 1.545 7.802-4.987 6.816-4.642-.7-.13-21.114-2.857-21.859-5.829-1.592-5.423 2.345-6.922-7.079m44.571 1430.562c7.215 8.74 9.728.27 13.149 3.07 3.287 8.22-25.46 8.07-17.881-9.75 6.68-15.7 31.919 6.6 13.611 5.98-4.162.01-4.82-.01-8.879.7"/><path fill="#d4680f" d="M878.673 1563.69c.365-6.83 6.732-14.23 8.879-.7-4.162.01-4.82-.01-8.879.7"/><path fill="#c76110" d="M159.372 526.669c1.621-.291 1.422.335 1.684 1.748 1.398 7.531-5.834 3.885-6.951 4.897-3.158 3.938.354 16.913-1.51 21.603-.404 1.018-6.028 3.165-6.44-1.752.019-5.325.767-14.713-.625-19.434-.452-1.535-6.756 1.969-6.555-2.716.135-3.144-.049-4.179 3.53-4.075a204 204 0 0 0 16.867-.271M823.191 1542.96c6.825-.06 14.547-.44 21.195.17.906 1.14 1.063 4.3.004 5.32-1.22 1.19-5.409-.03-5.79 1-1.352 3.65-.629 14.2-.637 17.8.007.93.045 3.43-.797 3.95-12.268 7.58-1.689-23.38-8.136-21.75-4.743 1.2-4.778-1.13-5.443-4.75zM1445.16 526.705c1.97.369 1.2.704 1.36 2.066.74 6.504-4.12 3.617-5.96 4.53-4.09 2.084.26 19.281-2.12 22.029-1.15 1.327-6.07 1.899-5.85-3.08.02-15.649 3.45-19.899-7.76-19.701-.81.015-2.24-5.768 2.67-5.538 4.67.218 12.82.016 17.66-.306m-280.7 1031.985c1.62-3.44 1.28-4.52 4.66-6.35 3.31-1.77 12.85-1.17 11.52 4.11-.64 2.51-7.77-2.23-9.07.61l.08.66c.38.25 20.31 6.68 4.84 14.21-2.23 1.08-8.37.42-10.84-1.77-2.56-6 .03-4.03.83-5.53-1.02-3.08-1.46-1.03-2.02-5.94"/><path fill="#f1eeec" d="M1164.46 1558.69c4.02 6.16 9.39 5 10.24 7.71l-.04.05.07.53c-6.89 1.93-7.47-4.46-9.08 3.18-2.56-6 .03-4.03.83-5.53-1.02-3.08-1.46-1.03-2.02-5.94"/><path fill="#c76110" d="m502.201 535.965 1.625.215c1.725.252 4.974 1.033 6.632.544 13.959-4.115 10.325 7.986 10.747 16.846.131 2.764-4.011 3.01-5.227 1.881-1.465-1.359-.876-7.798-.896-9.699.105-3.907-1.72-6.356-5.118-3.705-3.639 2.84 2.824 18.327-7.243 13.181-1.081-.553-.561-17.182-.52-19.263m639.239-393.681c.8.132 5.06.608 5.36 1.023 1.87 2.958.22 7.962.95 11.698.51 2.625 2.42 3.188 4.73 2.085 3.7-1.643.94-11.323 2.43-13.034 2.4-2.764 6.03-1.458 5.99 2.694-.01 2.154.48 12.649-.81 13.245-22.82 10.604-19.24-8.387-18.65-17.711m457.25 406.366c-19.85-10.64 12.08-18.399 7.34-7.652-1.01.784-1.85 1.509-2.81 2.339l1.41.888c11.67 7.07-3.71 17.012-11.65 10.783-1.53-1.204-2.49-4.433.74-4.603 1.7-.566 3.3-1.072 4.97-1.755"/><path fill="#f1eeec" d="M1603.22 543.337c-2.6-.359-3.04-.176-5-1.557l.23-.324-.09-.016c1.61-1.766 5.44-.662 7.67-.442-1.01.784-1.85 1.509-2.81 2.339m-4.53 5.313c.97.211 1.82.343 2.73.753l.27 1.254.09.023v.06c-2.32 1.637-5.38.166-8.06-.335 1.7-.566 3.3-1.072 4.97-1.755"/><path fill="#c76110" d="M300.134 1155.33c.693.16 4.6.74 5.29 1.52 1.914 2.28-1.103 12.63 1.897 13.8 12.295 4.84-.615-19.57 11.17-13.79.681.33.587 3.18.601 3.89-.029 3.43.798 11.6-2.115 13.16-19.646 10.52-17.473-10.23-16.843-18.58M1781.75 524.878c3.49.06 9.61-.984 7.09 4.583-.22 1.649-5.9 2.231-4.25 4.56 2.63 3.706 8.27 4.51.89 7.655-1.05.45-.57 10.909-.57 14.56-12.06-.667-4.57-4.192-7.05-13.703-.38-1.453-8.15-3.597-1.43-5.867 1.97-.664 2.98-8.047 5.32-11.788M1221.46 1559.62c14.27 15.23-18.27 16.07-12.57 7.47 3.45-1.17 5.46.85 9.21.4 3.13-2.45-10.8-3.97-9.08-9.94 1.98-6.87 11.5-8.84 15.17-2.28l.8 1.37c-1.66 1.19-2.05 1.54-3.53 2.98"/><path fill="#f1eeec" d="M1221.46 1559.62c-1.8-.26-4.51-.47-5.4-2.36.34-2.06 5.38-.33 6.94-.45l1.99-.17c-1.66 1.19-2.05 1.54-3.53 2.98"/><path fill="#c76110" d="m537.262 1164.13.956.99c10.76 10.91-15.491 16.27-12.971 5.48 1.533-2.52 9.622 4.2 8.428-.96-.092-.4-13.947-4.98-7.682-11.65 3.156-3.35 14.256-6.1 13.022 3.06-.6 1.02-1.184 2.05-1.753 3.08"/><path fill="#f1eeec" d="M537.262 1164.13c-1.202-.46-4.922-1.55-5.488-2.78.163-1.74 4.617-.61 5.429-.48l1.812.18c-.6 1.02-1.184 2.05-1.753 3.08"/><path fill="#c76110" d="M977.498 1562.72c-11.898-10.9 14.427-14.67 10.677-6.04-2.495.94-2.82 1.12-5.163 2.54 22.128 10.93-11.194 18.29-8.198 8.12 1.545-2.14 1.659-2.25 2.684-4.62"/><path fill="#f1eeec" d="M977.498 1562.72c11.095 4.41 2.309 3.92-2.684 4.62 1.545-2.14 1.659-2.25 2.684-4.62m5.514-3.5c-1.333-.33-1.595-.29-2.451-1.29.434-1.04 1.94-1.13 2.973-1.15l4.641-.1c-2.495.94-2.82 1.12-5.163 2.54"/><path fill="#c76110" d="M429.804 523.482c16.003 3.882-7.345 8.143 3.886 13.472 2.785 1.321-3.301 5.894-2.917 4.785-1.385 3.994-.666 10.571-.937 15.141-10.495-2.291-3.738-4.651-6.039-14.317-.933-1.154-6.538-4.393-2.201-6.351 6.621-2.989-.292-5.491 8.208-12.73m641.186-393.164c2.6.566 7.09 1.044 5.46 4.907-.53.729-7.28 4.267-4.25 6.269 3.7 2.451 6.98 4.791.56 7.01-1.18.409-.61 11.658-.61 14.545-.77-.143-4.06-.606-4.65-.964-3.26-1.978-.2-9.86-1.75-13.074-.65-1.351-2.89-.721-3.69-1.931-.63-1.066-.25-3.443 1.11-3.72 1.61-.33 2.85-.976 2.75-2.813-.18-2.991.74-6.177 3-8.259zM375.21 544.116c16.925 11.071-12.058 18.015-11.913 7.965 3.232-2.88 9.114 1.404 9.461-1.073.331-2.37-6.222-4.017-7.835-6.507-3.831-5.914 4.983-11.026 10.18-8.687 3.074 1.358 2.209 2.884.946 5.231z"/><path fill="#f1eeec" d="M375.21 544.116c-6.793-2.819-5.799-4.382.839-3.071z"/><path fill="#c76110" d="M350.255 1155.03c2.758.64 6.927 1.07 6.958 4.82-1.165 1.28-12.204.71-8.713 2.04 10.913 4.16 14.583 10.78 1.629 15.04-2.214-.43-5.368-.58-7.281-1.69-1.064-.62-1.5-3.16-.455-3.92 1.765-1.28 4.729.51 6.653.42.809-.04 1.334.03 1.961-.51.866-3.24-21.316-9.42-.752-16.2M1871.27 535.955l2.12-.171c3.18-.278 8.08-.683 9.09 3.241-.6 1.749-3.21 2.053-3.94 1.639-1.64-1.255-6.44.462-3.07 1.835 9.39 3.825 11.19 10.035 2.04 14.843-2.19-.207-13.33-.739-9.01-6.699.26-.359 10.3 1.508 13 1.884-8.42-5.055-18.34-6.69-10.23-16.572M1150.23 1551.92c2.27.04 7.09-.41 8.82.87 3.28 2.59 1.91 5.03-2.04 4.13-1.1-.25-3.47-1.07-4.12.3 1.29 2.84 17.77 6.6 4.38 15.08-3.68-.18-12.78 1.22-12.44-3.89 2.2-3.19 7.12-.1 9.68-.94 1.35-.44-.91-2.68-1.78-2.9-1.44-.76-3.45-1.57-4.61-2.77-3.59-3.69-.42-7.37 2.11-9.88m767.03-1015.792c1.52.045 9.09-.35 9.56 1.859 1.74 4.065-13.97.916-5.4 5.564 5.31 2.884 10.51 9.074 2.6 12.999l-1.33.703c-7.91-.732-18.04-4.637-6.7-5.864.89-.095 4.72 1.669 5.34-.218-.54-1.656-17.34-9.385-4.07-15.043m-723.55-394.133c1.97-.075 13.63-1.235 9.37 4.104-1.24 1.553-5.41-.476-6.09.741-1.71 3.023 6.32 3.95 7.3 5.863 3.15 4.835-.1 8.037-3.92 10.769-3.14-.366-11.7-.259-10.33-5.603 1.04-4.023 6.69 1.852 8.87-.563-.54-4.403-14.3-3.283-5.2-15.311M292.919 530.669c11.975 1.54.471 3.667 8.461 5.697.467.126.843.473 1.006.929.266.726.008 3.196-.234 3.219-4.553.424-5.426 5.248-4.009 8.976 1.249 3.287 4.52-.955 5.312 6.497-3.081.574-6.184 1.442-9.138-.746-5.689-4.213 1.291-12.843-5.805-15.231-1.103-1.318-.34-2.97 1.019-3.291 2.748-.649 2.959-4.22 3.388-6.05m22.041 11.692c-5.646 6.516 6.241 11.846 3.459 12.772-17.561 5.849-5.472-13.477-13.42-14.698-3.342-.513 2.449-3.954 2.124-6.432-.51-3.888 6.323-6.216 6.922 1.082 1.383.533 4.16 1.086 4.903 2.482a2.48 2.48 0 0 1 .168 1.913c-.558 1.708-2.729 2.243-4.156 2.881"/><path fill="#c76110" d="M314.045 535.085c1.383.533 4.16 1.086 4.903 2.482a2.48 2.48 0 0 1 .168 1.913c-.558 1.708-2.729 2.243-4.156 2.881-.706-3.299-.814-3.892-.915-7.276m-61.674-10.677c1.057.148 6.243.351 6.298 1.561.437 9.677.318 20.84.205 30.426-.634-.12-6.186-.729-6.273-1.695-.853-9.545-.642-20.67-.23-30.292m292.261 11.521c2.694.075 6.252-.255 8.769 1.075 1.087.675 1.523 2.523.378 3.262-2.702 1.712-5.518-.999-8.225 1.797-3.499 3.614-2.016 10.249 3.945 9.168 3.509-.636 4.271-.241 6.749 2.02-12.589 10.679-27.944-6.006-11.616-17.322m622.108-404.455c.34.043 5.8.396 5.85 1.055.86 9.801.34 20.582.42 30.536-.01-.004-2.27-.514-2.28-.502-.09.135-3.8-.626-3.9-1.245-1.05-6.259-.21-24.049-.09-29.844m534.87 404.655c3.08-.062 9.12-1.312 9.79 2.693-1.22 3.156-15.45.173-8.5 11.723.65 1.084 5.9.324 9.25 1.742-7.11 12.837-28.69-5.172-10.54-16.158M1178.78 130.61c.57.078 5.48.429 5.59 1.143 1.29 8.636.6 22.175.67 30.881-.54-.071-5.73-.412-5.79-1.058-.84-9.918-.4-20.886-.47-30.966m-55.29 24.54c-.53 5 .45 8.893-6.4 6.527-1.35-.466-.81-18.838-.87-21.45-.09-3.936-1.29-7.833 2.91-8.681 5.39 2.477 2.8 11.441 3.57 18.519.31 1.688.57 3.383.79 5.085M358.519 534.774c5.049 5.808 1.027 6.176-2.84 7.806-8.577 3.616 4.862 11.668-8.64 14.313-.288-4.193-1.183-16.94.616-20.553 1.016-2.042 4.875.491 5.396 1.689.331.762 4.457-2.59 5.468-3.255m1293.561.74c2.68.491 6.2 1.859 8.28 1.172.95-.31 2.16-.845 3.22-.678.82.13 1.52.646 1.89 1.387 3.14 6.171-6.81 2.329-7.27 8.388-.04 2.714.49 7.366-.61 9.537-.58 1.165-4.86.816-5.11.005-1.06-3.349-.45-16.987-.4-19.811M325.449 1155.3c7.686 1.61 3.206 2.02 6.166 3.42 2.192-.21 8.257-8.01 7.253 2.29-.148 1.52-4.967.98-7.94 3.21.002 1.42.577 10.42-.696 11.28-8.197 5.49-5.392-15.06-4.783-20.2m156.387.5c3.241.57 6.25 2.11 9.163.28.779-.49 2.95-.24 3.771.28a2.7 2.7 0 0 1 1.238 2.08c.391 5.95-6.266-.53-8.456 6.81-.037 1.57-.002 8.68-.436 9.21-7.982 9.64-5.3-16.36-5.28-18.66"/><path fill="#c76110" d="m1122.7 150.065 1.35-1.474c2.84-3.164 5.17-6.462 9.76-6.256.87.039 2.09.267 1.81 1.627-.95 2.389-4.75 5.361-6.62 7.18 1.54 1.952 8.02 9.061 7.89 10.365-3.66 5.204-11.8-5.883-13.4-6.357a97 97 0 0 0-.79-5.085m452.05 387.158c14.11-4.866 12.69 5.946 12.27 14.775-.19 3.958-1.18 5.577-5.7 3.3-3.35-4.766 4.65-16.405-6.67-13.036-.21-2.321-.14-2.657.1-5.039"/><path fill="#c76110" d="M1574.65 542.262c-.04 4.305-.06 8.993-.48 13.224-.13 1.352-5.64 1.369-5.81.88-1.65-4.786-.43-12.3-.32-17.379.07-2.955 5.05-2.145 6.71-1.764-.24 2.382-.31 2.718-.1 5.039m64.74-6.714c.76.136 5.97.685 6.09 1.524.82 5.689.39 13.807.22 19.591-.8-.161-5.38-.809-5.54-1.311-1.6-4.961-.82-14.463-.77-19.804m-1112.681.107c.483.066 5.496.453 5.655 1.057 1.341 5.082.614 14.127.64 19.432-7.658-.683-6.102.575-6.241-8.143-.065-4.087-.044-8.255-.054-12.346m1.693-9.013a3.763 3.763 0 1 1 3.78 6.508 3.763 3.763 0 0 1-3.78-6.508m1111.638 1.048a3.65 3.65 0 0 1 3.47-1.285 3.67 3.67 0 0 1 2.81 2.402 3.66 3.66 0 0 1-.73 3.625 3.657 3.657 0 0 1-5.1.343 3.645 3.645 0 0 1-.45-5.085"/><path fill="#536068" d="M325.036 1419.9c4.297 1.12 5.784 1.56 8.576 4.76-6.763.54-6.721 1.74-8.576-4.76"/><path fill="#565b56" d="M307.356 1445.47c1.007-.15 7.66-1.32 8.029-.13-.205.36-.026.14-.733.69q-1.306.405-2.6.84c-2.88 1.01-4.564 2.11-4.696-1.4"/><path fill="#898b94" d="M969.354 1798.65c-.662-.91-3.928-4.74-2.709-6.05 1.374-.38 3.691 4.37 4.366 5.42zm184.716-610 1.87.4 3.21 1.98c-2.49.04-4.98.07-7.47.08z"/><path fill="#cecdd1" d="M246.643 615.288c-5.256-1.888-3.887-5.172 1.892-.731z"/><path fill="#aeb0b6" d="M490.094 615.553c3.959-2.17 5.558-1.848 1.754 2.034z"/><path fill="#5e6672" d="m1754.94 1292.12 2.46.49c-.42.58-1.46 2.28-1.98 2.67l-.19-.09c-.41-1.08-.28-1.82-.29-3.07"/><metadata><recraft-signature>{&quot;signed_by&quot;: &quot;recraft&quot;, &quot;signature_b64&quot;: &quot;2DpZzmuRik28HxQTBHM0g3newhxpMFQSSEASLrdJ7K+BCw6WvsOoBtnVUE0ZaOW4A9dkNP7QTYHty42wp4sLBw==&quot;, &quot;signing_algo&quot;: &quot;Ed25519&quot;, &quot;generation_timestamp&quot;: 1777253898, &quot;identifier&quot;: &quot;9f69fe62-1195-4988-bda9-8aca9c374615&quot;}</recraft-signature></metadata></svg>