<svg xmlns="http://www.w3.org/2000/svg" width="1024" height="1024" preserveAspectRatio="none" style="display:block" viewBox="0 0 2048 2048"><path fill="#080809" d="M989.911 239.013c7.24-107.288 85.459-182.938 192.109-190.657-.09 22.89-.98 52.025.01 74.422-39.98 6.972-69.6 21.361-94.91 55.048-9.9 13.165-21.44 43.453-23.28 59.785-4.24 37.82-2.92 80.622-2.92 119.008l-1.08 175.141-.81 69.897c-.13 11.248.3 27.471-.48 38.283l175.53-.03-2.35 221.278c-.12 11.254-1.81 81.255.18 87.134 3.07 1.515 4.74.692 8.76.41 21.04-5.461 49.71 1.606 69.47 9.368 30.96 14.404 44.81 26.522 65.37 53.16a147.57 147.57 0 0 1 21.4 110.38c-3.25 15.66-14.45 45.64-26.19 56.53-6.59 9.38-17.5 19.46-26.45 26.64-15.24 12.34-20.62 13.84-37.71 21.08-5.97 2.08-12.17 4.2-18.43 5.24-6.26 1.3-12.67 2.89-19.04 3.12-13.06 3.82-32.02-2.68-39.96-.98-.82 2.35-.71 1.13-.23 3.68 11.27-.99 35.45-1.93 46.65 3.5 2.4 1.17 1.88 16.36 2.21 20.05 1.78 19.83-6.55 33.56-19.57 48.35 5.35.11 13.34-.57 18.89-.87 30.23 1.11 58.77 3.84 87.87 12.89 5.65 1.76 12.05 3.78 17.75 5.2 13.23 8.48 34.47 14.53 46.95 24.33 5.63 5.99 32.54 22.93 39.27 30.95.63.12 1.26.23 1.9.35 3.74 5.15 5.8 7.78 10.14 12.45l7.03-2.41c21.96-7.67 24.5 10.8 38.4 16.64l1.29-1.92c6.61 1.12 8.47 1.35 15.04 1.7l1.45 1.98c4.69-.1 9.9.62 14.7 1.02 1.4 60.46 3.69 37.21-37.86 40.02 1.39 4.38 2.03 6.04 4.11 10.12 23.94-.38 37.16-.32 61.16 3.63 10.79 11.85 16.52 28.98 16.01 45-.37 11.41-6.36 24.74-4.81 36.48.96 7.29 9.75 22.93 2.57 28.87-8.91 7.37-34.51 3.56-45.61 1.6.26 3.45.59 6.66.48 10.12 6.5.45 16.26.4 21.61 3.85 1.26 2.75 1.72 3.95 3.53 6.47 5.55-.18 5.75-1.18 9.32-5.31 13.22-1.31 52.42-6.55 66.98-1.22 2.36.86 2.93 7.47 3.22 10.31l2.07.88 1-.47c24.59-12.55 34.71-.49 58.92 1.7 12.98 1.17 28.47-4.06 41.5-.63 10.64 2.11 9.41 17.22 10.52 25.67 2.73 20.9 3.09 40.1-4.78 60.06-4.25 10.76-15.79 7.34-25.21 7.28 1.29 6.98 1.88 12.22 2.56 19.3.13 13.99-.96 25.89-2.77 39.76-.64 4.54-.95 6.95-2.17 11.32-1.39 2.53-3.17 8.62-4.54 11.93-3.26 7.7-7.05 15.17-11.35 22.35-2.33 3.95-8.5 11.39-9.1 14.59-8.73 6.44-15.71 15.77-24.35 22.15-41.73 30.83-85.43 34.91-132.96 17.22-6.87-3.25-11.84-4.7-18.22-9.62-11.65-5.33-28.37-22.19-36.95-31.94-4.2-.02-8.39-.07-12.58-.15-16.52 1.11-35.11 4.21-51.54 1.94-77.99 43.91-118.54 55.65-208.74 45.71-.02 3.95.51 7.11-1.09 10.39-12.21 1.68-29.1-.25-41.71.99-.67 1.07-.67 1.68.26 2.8 7.2 8.66-8.29 15.52-13.85 8.74-2.07-2.51-4.99-4.75-6.93-7.3-2.65-3.5-3.36-4.71-7.31-6.19-25.07 1.94-54.97-1.91-79.68 1.31-45.06 73.94-127.169 123.59-215.096 118.88 4.788-37.6 11.873-77.59 17.4-115.5-16.57-.74-43.42.77-60.638-.91-1.034-.69-2.068-1.38-3.101-2.06-9.206-.81-25.266-.11-35.438-.39a282 282 0 0 1-74.889-12.43c-25.366-7.68-50.135-20.27-72.597-34.25-5.073-3.15-13.403-9.33-19.023-9.7 1.276-.4 2.102-.58 3.446-.9l2.515-3.12c-12.981-12-24.502-19.8-37.118-33.83-54.84-60.99-68.455-124-66.838-202.05l-1.217 4.26c-1.174-.38-1.413-1.57-2.385-3.19l-1.875-.23c-17.503-1.53-8.316-61.16-6.473-73.26 1.235-8.11.477-17.81 2.926-25.54 9.01-9.23 23.888-9.79 36.638-11.94.714-4.29 7.387-14.02 9.897-18.32-4.515-10.39-.126-14.58 4.764-24.49 3.567-7.23 6.417-14.06 10.568-21.05 7.091-.15 13.27-.04 20.3 1.14 2.978-1.02 9.323-7.92 11.793-10.42 6.422-3.96 19.823-15.19 26.744-20.31 13.383-9.9 23.134-15.84 37.345-23.98-.068 0 47.222-18.61 49.98-19.81-9.26-1.51-34.771-6.15-43.418-5.52-21.724 1.64-43.919 4.87-65.707 4.62-12.612-.15-21.288-6.96-22.904-19.49-1.28-9.93 1.783-19.16.992-28.83-.895-10.92-7.02-20.87-4.795-32.32 1.663-9.95 5.478-14.79 13.303-20.67 11.587-1.43 62.976-3.42 72.314-.48 27.199 8.59 30.772 17.28 64.21 16.1l-4.561-2.3c-.358-.03-.716-.06-1.074-.08-28.51-6.43-55.678-26.59-71.499-49.84a176 176 0 0 1-3.07-4.56c-10.711-20.15-17.219-34.66-18.737-58.32-.848-11.55.884-20.06 1.958-31.07.749-2.99 1.622-5.93 2.157-8.97.912-2.77 1.861-5.54 2.846-8.29a117.5 117.5 0 0 1 60.091-66.16c33.755-15.793 65.911-16.817 100.635-4.24 6.233 2.59 11.144 5.23 17.1 8.39 1.2-43.639.372-85.652.111-129.103l-1.805-246.488 171.988 1.134c-.77-35.08.505-74.104.656-109.302l.657-211.713c-13.392-21.28-31.515-64.905-47.263-82.973-3.916-4.492-52.137-25.412-60.234-29.06l9.931-27.483c13.739 9.237 29.537 18.576 43.657 27.716-3.198-23.426-6.142-43.698-6.954-67.345l25.366.656c-.083 8.306-.528 34.028 1.108 40.585 4.126 16.536 21.876 43.518 30.921 58.98z"/><path fill="#da8436" d="M1058.21 673.034c-.18-9.084-.52-24.214.34-33.094l175.53-.03-2.35 221.278c-.12 11.254-1.81 81.255.18 87.134 3.07 1.515 4.74.692 8.76.41 21.04-5.461 49.71 1.606 69.47 9.368 30.96 14.404 44.81 26.522 65.37 53.16a147.57 147.57 0 0 1 21.4 110.38c-3.25 15.66-14.45 45.64-26.19 56.53-6.59 9.38-17.5 19.46-26.45 26.64-15.24 12.34-20.62 13.84-37.71 21.08-5.97 2.08-12.17 4.2-18.43 5.24-6.26 1.3-12.67 2.89-19.04 3.12-13.06 3.82-32.02-2.68-39.96-.98-.82 2.35-.71 1.13-.23 3.68 11.27-.99 35.45-1.93 46.65 3.5 2.4 1.17 1.88 16.36 2.21 20.05 1.78 19.83-6.55 33.56-19.57 48.35 5.35.11 13.34-.57 18.89-.87 30.23 1.11 58.77 3.84 87.87 12.89 5.65 1.76 12.05 3.78 17.75 5.2 13.23 8.48 34.47 14.53 46.95 24.33 5.63 5.99 32.54 22.93 39.27 30.95.63.12 1.26.23 1.9.35 3.74 5.15 5.8 7.78 10.14 12.45l7.03-2.41c21.96-7.67 24.5 10.8 38.4 16.64l1.29-1.92c6.61 1.12 8.47 1.35 15.04 1.7l1.45 1.98c4.69-.1 9.9.62 14.7 1.02 1.4 60.46 3.69 37.21-37.86 40.02 1.39 4.38 2.03 6.04 4.11 10.12 23.94-.38 37.16-.32 61.16 3.63 10.79 11.85 16.52 28.98 16.01 45-.37 11.41-6.36 24.74-4.81 36.48.96 7.29 9.75 22.93 2.57 28.87-8.91 7.37-34.51 3.56-45.61 1.6.26 3.45.59 6.66.48 10.12 6.5.45 16.26.4 21.61 3.85 1.26 2.75 1.72 3.95 3.53 6.47 5.55-.18 5.75-1.18 9.32-5.31 13.22-1.31 52.42-6.55 66.98-1.22 2.36.86 2.93 7.47 3.22 10.31l2.07.88 1-.47c24.59-12.55 34.71-.49 58.92 1.7 12.98 1.17 28.47-4.06 41.5-.63 10.64 2.11 9.41 17.22 10.52 25.67 2.73 20.9 3.09 40.1-4.78 60.06-4.25 10.76-15.79 7.34-25.21 7.28 1.29 6.98 1.88 12.22 2.56 19.3.13 13.99-.96 25.89-2.77 39.76-.64 4.54-.95 6.95-2.17 11.32-1.39 2.53-3.17 8.62-4.54 11.93-3.26 7.7-7.05 15.17-11.35 22.35-2.33 3.95-8.5 11.39-9.1 14.59-8.73 6.44-15.71 15.77-24.35 22.15-41.73 30.83-85.43 34.91-132.96 17.22-6.87-3.25-11.84-4.7-18.22-9.62-11.65-5.33-28.37-22.19-36.95-31.94-4.2-.02-8.39-.07-12.58-.15-16.52 1.11-35.11 4.21-51.54 1.94-77.99 43.91-118.54 55.65-208.74 45.71-.02 3.95.51 7.11-1.09 10.39-12.21 1.68-29.1-.25-41.71.99-.67 1.07-.67 1.68.26 2.8 7.2 8.66-8.29 15.52-13.85 8.74-2.07-2.51-4.99-4.75-6.93-7.3-2.65-3.5-3.36-4.71-7.31-6.19-25.07 1.94-54.97-1.91-79.68 1.31 1.57-2.9 3.93-7.78 5.81-10.29 25.47-51.37 22.5-88.2 22.77-143.44l-.15-6.27q.435-78.735 1.98-157.47l-.04-5.11c1.14-31.26 1.04-64.17 1.38-95.55-27.02-15.92-44.43-36.79-56.07-66.01l-2.32-5.95c-1.32-3.37-3.45-10.09-3.57-13.66-1.71-47.82.03-96.72.8-144.49l.17-3.07c.99-17.91.5-39.78.66-57.98l1.18-88.54c-.09-5.35.18-11.43.3-16.84 1.62-50.86 1.31-105.198 1.43-156.132l-.17-3.452c1.35-21.946.83-48.755 1.01-70.949l1.24-99.361c.02-8.918-.16-17.988.8-26.84z"/><path fill="#fefefc" d="M1053.48 1056.22c37.01-6.79 55.41 17.23 75.61 42.7 21.92 27.63 56.93 45.14 91.88 30.49l-.14 5c1.18 53.64.2 110.31.33 164.26-44.7 3.73-77.61-12.83-109-42.68-14.13-13.43-40.94-33.92-60.82-36.41.99-17.91.5-39.78.66-57.98l1.18-88.54c-.09-5.35.18-11.43.3-16.84"/><path fill="#d78537" d="M1053.48 1056.22c37.01-6.79 55.41 17.23 75.61 42.7 21.92 27.63 56.93 45.14 91.88 30.49l-.14 5c-30.91 11.43-66.83-.4-87.42-24.5-14.89-17.42-48.09-62.4-76.88-49.3-3.27 3.56-2.88 7.42-3.35 12.45-.09-5.35.18-11.43.3-16.84"/><path fill="#fefefc" d="M1054.91 900.088c40.61-11.416 51.49 3.994 77.48 31.735 24.71 26.371 53.91 41.205 90.33 32.389-.83 27.047-1.35 54.098-1.59 81.158-.09 27.27.55 57.01-.16 84.04-34.95 14.65-69.96-2.86-91.88-30.49-20.2-25.47-38.6-49.49-75.61-42.7 1.62-50.86 1.31-105.198 1.43-156.132"/><path fill="#fefefc" d="M1056.99 726.326c37.54-8.712 49.34 2.807 70.81 31.238 27.55 36.477 51.29 52.199 96.32 38.723a5861 5861 0 0 0-1.44 164.009c-95 17.367-95.81-95.263-167.94-63.66 1.35-21.946.83-48.755 1.01-70.949zm-5.82 496.324c25.33 5.24 53.95 33.39 73.55 49.77a135.45 135.45 0 0 0 96.35 30.92c-.2 46.09-.01 92.18.55 138.26-113.25 19.43-89.59-60.75-167.68-60.8-1.32-3.37-3.45-10.09-3.57-13.66-1.71-47.82.03-96.72.8-144.49"/><path fill="#fefefc" d="m1058.87 648.924 166.43.217q-1.02 71.367-1.05 142.741c-19.3 6.093-35.7 9.209-54.7-.932-47.98-25.596-45.52-84.649-111.92-69.308.08-6.677.45-15.664.16-22.156l.42-26.452c.64-8.316.63-15.801.66-24.11m52.12 904.496c47.56 31.34 50.85 39.3 110.88 40.58-.46 52.32.41 103.77.21 155.73-32.93 1.24-61.45-2.23-89.75-21.25-4.9-3.29-19.49-15.8-23.32-17.59q.435-78.735 1.98-157.47"/><path fill="#fefefc" d="M1056.26 1386.75c23.25-6.85 52.19 19.55 65.36 35.4 23.36 28.15 66.45 29.47 99.92 23.68-1.2 46.76-.32 96.73-.27 143.68-34.82.27-54.75-2.83-83.7-23.48-6.89-4.92-19.69-14.26-26.62-17.72 1.14-31.26 1.04-64.17 1.38-95.55-27.02-15.92-44.43-36.79-56.07-66.01m52.9 330.41c.38.13.76.27 1.14.41 36.51 29.19 64.17 37.52 111.71 36.51l-.09 106.65c-8.52.03-18.06.29-26.48-.37-2.85 3.74-3.18 6.1-7.35 11.17-.67 1.07-.67 1.68.26 2.8 7.2 8.66-8.29 15.52-13.85 8.74-2.07-2.51-4.99-4.75-6.93-7.3-2.65-3.5-3.36-4.71-7.31-6.19-25.07 1.94-54.97-1.91-79.68 1.31 1.57-2.9 3.93-7.78 5.81-10.29 25.47-51.37 22.5-88.2 22.77-143.44"/><path fill="#a7161c" d="M1153.59 1860.14c-10.23-17.5-10.78-45.35 1.43-62.15 8.52-11.7 21.59-15.1 33.11-5.52 17.11 14.23 15.81 49.61 7.31 67.89-2.85 3.74-3.18 6.1-7.35 11.17-.67 1.07-.67 1.68.26 2.8 7.2 8.66-8.29 15.52-13.85 8.74-2.07-2.51-4.99-4.75-6.93-7.3-2.65-3.5-3.36-4.71-7.31-6.19-1.67-2.58-4.67-7.29-6.67-9.44"/><path fill="#fefefc" d="M1171.63 1791.87c28.97 2.49 36.3 60.65 6.38 73.77-2.61-.17-6.91-.32-9.29-1.1-18.98-6.25-20.56-36.49-15.31-52.17 3.62-10.83 9.01-15.66 18.22-20.5"/><path fill="#a7161c" d="M1171.71 1794.81c24.14-.13 33.96 56.56 4.47 68.48-31.59-5.03-28.87-53.11-6.15-67.41z"/><path fill="#d78537" d="M1153.59 1860.14c2 2.15 5 6.86 6.67 9.44-25.07 1.94-54.97-1.91-79.68 1.31 1.57-2.9 3.93-7.78 5.81-10.29 16.8.73 50.77.59 67.2-.46"/><path fill="#394c5f" d="M1525.12 1461.3c23.94-.38 37.16-.32 61.16 3.63 10.79 11.85 16.52 28.98 16.01 45-.37 11.41-6.36 24.74-4.81 36.48.96 7.29 9.75 22.93 2.57 28.87-8.91 7.37-34.51 3.56-45.61 1.6-.93-4.3-1.22-11.01-1.58-15.53-2.77-35.04-12.99-68.05-27.74-100.05m137.53 140.21c24.59-12.55 34.71-.49 58.92 1.7 12.98 1.17 28.47-4.06 41.5-.63 10.64 2.11 9.41 17.22 10.52 25.67 2.73 20.9 3.09 40.1-4.78 60.06-4.25 10.76-15.79 7.34-25.21 7.28-2.83-6.88-4.68-14.86-8.14-22.94-9.54-22.72-26.37-42.69-46.64-56.61-7.93-5.45-18.61-8.56-26.17-14.53"/><path fill="#3e4a53" d="M1240.67 948.732c21.04-5.461 49.71 1.606 69.47 9.368 30.96 14.404 44.81 26.522 65.37 53.16a147.57 147.57 0 0 1 21.4 110.38c-3.25 15.66-14.45 45.64-26.19 56.53-6.59 9.38-17.5 19.46-26.45 26.64-15.24 12.34-20.62 13.84-37.71 21.08-5.97 2.08-12.17 4.2-18.43 5.24-2.27-1.01-3.73-1.68-5.91-2.86-17.71 2.8-33.99 2.39-51.72-.3-2.2-3.82-2.06-2.02-1.75-5.52 3.61-1.34 19.45 2.33 24.34 2.28 4.4-.06 10.62 1.08 14.92.59 48.87-5.53 87.8-32.7 109.5-76.47 43.47-87.68-26.1-193.103-122.77-191.368-8.07.144-15.68 2.056-23.79 2.265l-1.39-1.653.46-1.733c2.78-2.111 5.29-2.266 8.74-2.979z"/><path fill="#d78537" d="m1370.95 1013.1 4.56-1.84a147.57 147.57 0 0 1 21.4 110.38c-3.25 15.66-14.45 45.64-26.19 56.53-.41.29-7.07 5.11-7.35 5.22-.28-2.74 3.98-3.15 2-5.6 37.36-55.11 40.92-107.41 5.58-164.69"/><path fill="#da8436" d="M1310.14 958.1c30.96 14.404 44.81 26.522 65.37 53.16l-4.56 1.84c-16.13-20.826-39.89-43.033-65.08-51.926zm30.07 243.97c8.11-6.88 15.12-11.49 21.73-20.62 1.15-1.57 1.85-2.7 3.43-3.66 1.98 2.45-2.28 2.86-2 5.6.28-.11 6.94-4.93 7.35-5.22-6.59 9.38-17.5 19.46-26.45 26.64-15.24 12.34-20.62 13.84-37.71 21.08-.63-.18-3.58-.81-4.18-1.31l-.02-.18c.9-.86 3.2-.79 3.73-1.84-.01-.5.03-.17-.34-.92 3.88-2.25 8.5-3.8 12.67-5.83 8.05-3.91 14.45-8.85 21.79-13.74"/><path fill="#d78537" d="M1240.67 948.732c21.04-5.461 49.71 1.606 69.47 9.368l-4.27 3.074-.28-.097c-23.94-8.59-41.77-9.633-66.83-7.695zm41.55 279.538c7.29-2.19 16.23-4.81 23.53-6.63.37.75.33.42.34.92-.53 1.05-2.83.98-3.73 1.84l.02.18c.6.5 3.55 1.13 4.18 1.31-5.97 2.08-12.17 4.2-18.43 5.24-2.27-1.01-3.73-1.68-5.91-2.86"/><path fill="#3e4a53" d="M1486.95 1771.19c.94-3.89.3-3.74 2.64-6.32.52.45 10.49 23.08 12.63 26.91 22.48 40.27 69.98 67.35 116.29 63.52 113.5-9.39 163.26-152.15 73.37-225.76-40.34-33.04-91.72-31.27-137.32-11.88l-1.26-1.46c1.64-3.99 6.59-6.12 10.7-7.65 63.9-23.76 136.19-2.68 165.89 61.65 39.72 86.04-18.23 183.83-112.76 189.73-20.92 1.3-38.89-3.12-58.92-10.33l.71 4.61c-6.87-3.25-11.84-4.7-18.22-9.62-11.65-5.33-28.37-22.19-36.95-31.94-4.2-.02-8.39-.07-12.58-.15 2.91-.44 9.21-.18 12.47-.18-8.79-14.11-13.51-24.02-18.71-39.89.59-.33 1.5-.79 2.02-1.24"/><path fill="#d78537" d="M1486.95 1771.19c2.3 4.41 3.66 8.99 5.97 13.76a133.1 133.1 0 0 0 30.68 40.86c3.02 2.68 19.71 15.34 19.76 15.38.41 2.05.78 2.76 2.83 3.76-.02.16-.05.33-.08.49-2.72-.72-2.51-.94-5.41-.85-11.65-5.33-28.37-22.19-36.95-31.94-4.2-.02-8.39-.07-12.58-.15 2.91-.44 9.21-.18 12.47-.18-8.79-14.11-13.51-24.02-18.71-39.89.59-.33 1.5-.79 2.02-1.24"/><path fill="#da8436" d="M1543.36 1841.19c3.54 2.02 11.86 6.48 14.85 8.41l.71 4.61c-6.87-3.25-11.84-4.7-18.22-9.62 2.9-.09 2.69.13 5.41.85.03-.16.06-.33.08-.49-2.05-1-2.42-1.71-2.83-3.76"/><path fill="#394c5f" d="M1228.9 1236.95c11.27-.99 35.45-1.93 46.65 3.5 2.4 1.17 1.88 16.36 2.21 20.05 1.78 19.83-6.55 33.56-19.57 48.35-4.89 3.64-22.38 4.86-29.04 5.44.05-25.78-.03-51.56-.25-77.34m252.06 157.2 7.03-2.41c21.96-7.67 24.5 10.8 38.4 16.64l1.29-1.92c6.61 1.12 8.47 1.35 15.04 1.7l1.45 1.98c4.69-.1 9.9.62 14.7 1.02 1.4 60.46 3.69 37.21-37.86 40.02-2.2-1.83-16.73-25.86-19.8-30.46-4.57-6.85-17.44-20.76-20.25-26.57"/><path fill="#9ea6b1" d="M1527.68 1406.46c6.61 1.12 8.47 1.35 15.04 1.7l1.45 1.98c-4.82-.4-13.46-.91-17.78-1.76z"/><path fill="#394c5f" d="M1439.63 1814.44c6.01-6.71 19.27-16.01 26.66-23.58 2.53-2.6 17.16-17.36 18.64-18.43 5.2 15.87 9.92 25.78 18.71 39.89-3.26 0-9.56-.26-12.47.18-16.52 1.11-35.11 4.21-51.54 1.94M1554.92 1587c6.5.45 16.26.4 21.61 3.85 1.26 2.75 1.72 3.95 3.53 6.47 5.55-.18 5.75-1.18 9.32-5.31 13.22-1.31 52.42-6.55 66.98-1.22 2.36.86 2.93 7.47 3.22 10.31-4.51.28-16.13-3.58-22.04-4.04-35.9-2.83-52.13-2.45-83.67 12.41.55-7.41.76-15.03 1.05-22.47"/><path fill="#394c5f" d="M1271.1 1314.4c36.04-3.21 78 5.57 111.93 18.28 61.13 22.7 113.81 76.96 140.38 135.8 31.28 69.28 35.94 150.14 6.58 220.64-18.55 44.52-52.92 91.82-93.15 119.15-53.6 36.41-118.68 55.14-183.38 48.06-7.61-.85-14.2.68-21.58-2.23-2.46-2.95-1.67-2.06-1.83-6.85l-.04-31.77c34.67 5.42 67.74 8.13 102.53.09 129.29-29.89 202.42-154.78 174.19-283.03a232.03 232.03 0 0 0-103.26-145.62c-49.84-31.8-116.7-44-174.46-31.41.17-11.75.23-23.5.2-35.26 12.71-2.68 28.99-4.53 41.89-5.85"/><path fill="#da8436" d="M1347.55 1824.55c2.14-1 4.66-.75 6.57.66 1.91 1.4 2.9 3.73 2.59 6.07a6.48 6.48 0 0 1-4.09 5.19c-3.26 1.27-6.94-.29-8.31-3.5a6.49 6.49 0 0 1 3.24-8.42m155.46-357.28a6.35 6.35 0 0 1 6.41-.35 6.33 6.33 0 0 1 3.41 5.44 6.332 6.332 0 0 1-11.69 3.55 6.33 6.33 0 0 1 1.87-8.64m-142.16-126.61a6.17 6.17 0 0 1 7.11 4.77 6.18 6.18 0 0 1-4.49 7.3c-2.2.57-4.53-.11-6.07-1.77a6.18 6.18 0 0 1-1.34-6.18 6.16 6.16 0 0 1 4.79-4.12m140.86 357.98c2.76-1.81 6.46-1.05 8.3 1.69 1.83 2.75 1.12 6.46-1.61 8.32a6.023 6.023 0 0 1-9.41-4.6 6.01 6.01 0 0 1 2.72-5.41"/><path fill="#394c5f" d="M1590.23 1611.2a211 211 0 0 1 49.99-.33l-9.68 68.82c12.53 2.48 33.78 5.57 46.18 6.83.67-15.81 4.38-41.04 5.81-58.01 22.27 15.77 37.8 41.52 45.93 67.22-15.3-3.53-35.32-6.47-51.21-9.34-2.53 15.53-4.31 33.83-6.42 49.77 20.61 3.39 41.27 6.51 61.97 9.34-3.22 17.12-9.2 33.61-17.72 48.81-15.32-3.26-33.26-6-48.84-8.85-1.75 14.2-2.68 36.86-6.22 49.71-3.45 12.52-39.51 15.73-51.31 15.99 1.42-22.13 5.81-51.17 8.75-73.76-14.42-2.47-29.54-4.09-44.15-6.37-3.84 19.29-7.07 48.14-9.96 68.29-2.3-1.06-4.57-2.19-6.79-3.39-33.02-18.08-51.94-42.55-62.68-78.37 12.2 2.29 72.76 14.05 78.63 11.58 2.03-14.27 4-33.18 7.14-46.84-14.55-.83-40.73-5.57-55.12-8.52 8.1-17.45 12.59-29.47 18.53-47.71 12.83 3.11 28.68 5.35 41.87 7.53.26-17.84 3.94-43.52 5.3-62.4"/><path fill="#da8436" d="M1624.15 1728.68c13.45 2.94 33.12 6.65 46.68 7.48-1.6 15.92-2.8 33.65-4.95 49.25-13.91-1.95-34.57-3.8-47.67-7.21 2.82-14.25 5.14-35.12 5.94-49.52m-38.84-55.19c13.86 1.4 30.27 4.36 44.13 6.75-1.25 9.16-3.32 18.62-4.31 27.76l-1.97 18.75c-2.1 1.67-16.16-1.16-19.68-1.6-7.62-.91-15.21-2.03-22.77-3.38 1.63-16.23 3.77-31.8 4.6-48.28"/><path fill="#394c5f" d="M1488.42 1499.01c1.61.52 2.38 2.62 2.89 4.01 22.54 61.42 19.9 121.03-5.06 180.84-28.01-14.2-65.12-29.35-94.56-42.54-20.32-9.36-40.76-18.46-61.31-27.31 4.82-17.35 5.66-26.06-.47-43.05 51.83-20.07 105.47-50.78 158.51-71.95m-160.77 120.43 92.4 41.86c17.22 7.7 47.06 20.1 62.38 29.35-13.33 30.2-41.16 60.06-67.09 80.2-25.33 18.98-47.02 27.07-76.55 36.8-2.15-7.04-3.95-14.52-5.72-21.69-11.65-47.32-25.66-93.9-38.37-140.95 16.66-6.57 22.93-10.69 32.95-25.57m32.12-248c10.66 5.17 19.16 8.28 29.8 14.5 48.15 28.17 73.82 57.71 97.45 106.57-30.67 12.25-59.91 26.66-89.7 40.87a4251 4251 0 0 1-69.73 31.89c-7.88-10.88-13.84-15.19-25.35-21.44 18.68-57.63 37.85-115.1 57.53-172.39m-86.19-14.01c26.7-1.93 54.18 4.04 79.59 11.63a5713 5713 0 0 1-53.31 163.38l-2.98 9.05c-14.48-3.85-22.04-4.38-36.27.3-6.43-25.45-11.6-58.79-16.71-85.06-5.99-30.77-13.8-63.42-14.93-94.39 14.81-3.4 29.49-3.97 44.61-4.91m-9.48 286.28c10.01 3.19 13.54 3.37 23.84 2.61 16.46 52.91 30.11 109.11 45.23 162.75-11.44 2.35-20.11 3.47-31.63 4.78-27.97 1.22-44.64.25-71.7-4.6-.1-17.41-2.58-85.17 2.74-98.51 5.99-15.01 23.84-47.62 31.05-65.81z"/><path fill="#394c5f" d="M1275.43 1545.61c25.92-3.01 49.39 15.53 52.45 41.44 3.07 25.92-15.42 49.42-41.33 52.55-25.98 3.13-49.57-15.43-52.65-41.42s15.53-49.54 41.53-52.57m69.75-544.85c12.49 5.69 30.34 43.71 34.87 56.5a5058 5058 0 0 1-75.19 16.47c-10.59 2.27-23.92 4.35-34.56 5.78 6.78-8.45 23.39-24.3 31.55-32.57 14.83-15.02 29.28-30.42 43.33-46.18m-81.34 116.66c5.88 1.96 9.67 6.62 13.34 11.49 17.16 22.78 35.88 44.23 54.2 66.04-5.41 3.68-11.07 6.99-16.94 9.89-13.61 7.18-27.99 10.5-43.02 13-.65-13.56-10.6-93.99-8.18-99.12zm11.18-11.38c16.78 1.48 44.73 11.28 62.54 15.65l4 .99c12.56 3.08 23.52 6.07 35.82 9.98-4.86 12.13-7.46 18.64-14.75 29.81-3.98 4.92-7.77 9.73-11.89 14.58-5.48-5.47-15.9-15.52-20.84-20.54-8.92-9.09-52.8-42.47-54.88-50.47m-47.13-1.08c.69-23.24-3.48-32.16 23.1-37.29 9.37 3.15 14.59 4.91 19.08 14.33 8.15 17.09-3.25 35.85-22.56 34.59-4.35-.28-7.49-2.63-11.4-2.09l-1.23.57c-2.18.91-4.33 1.86-6.46 2.85-1.08-5-.96-7.77-.53-12.96"/><path fill="#d78537" d="M1227.89 1104.96c7.01 3.43 4.11 1.11 8.22 9.54l-1.23.57c-2.18.91-4.33 1.86-6.46 2.85-1.08-5-.96-7.77-.53-12.96m22.87-21.62c7.92 7.48 7.86 14.13-3.64 16.68-.75-.42-1.5-.83-2.26-1.23-4.54-2.35-6.49-5.71-3-9.77 3.62-4.21 4.23.3 8.9-5.68"/><path fill="#394c5f" d="M1278.49 965.647c11.19 1.954 19.91 4.86 30.51 8.584a3975 3975 0 0 1-39.18 72.279c-5.21 9.39-6.82 12.4-13.87 20.5 1.05-5.9 2.25-11.76 3.71-17.58 1.46-5.96 2.84-11.94 4.13-17.94l2.01-9.5 1.99-10c.48-2.3.96-4.69 1.48-6.98l2.5-11.026 1.1-4.996c.62-2.885 1.33-5.649 1.97-8.504l.91-4.007c.88-3.736 1.69-7.124 2.74-10.83m-48.65 480.583c-.52-3.38-2.11-25.39.46-27.16 1.25.46.73 3.66.62 4.56a4566 4566 0 0 0 23.15 121.11c-13.1 9.34-15.55 13.28-23.99 26.73.01-40.19.84-85.24-.24-125.24"/><path fill="#9d643d" d="M1229.84 1446.23c-.52-3.38-2.11-25.39.46-27.16 1.25.46.73 3.66.62 4.56-1.7 8.14-.74 14.18-1.08 22.6"/><path fill="#394c5f" d="M1379.13 1076.36c2.4-.15 1.25-.31 3.42.9 3.03 6.58 1.55 22.17 1.23 30.06a2433 2433 0 0 1-84.26-11.64c-8.15-1.37-17.14-2.12-25.41-2.98 32.29-6.42 71.95-11.2 105.02-16.34m-149.16-109.226c8.45-1.746 12.49-2.201 21.17-3.142-.35 7.014-1.07 13.938-1.56 21.006-1.7 24.642-2.52 49.342-3.64 74.022-.16 3.59-1.77 5.36-5.4 5.49-1.11-.04-9.46-15.71-9.99-16.81-.75-1.91-1.04-4.65-1.49-6.8 1.77-17 1.01-55.716.91-73.766m-.76 645.646c2.29 2.08 3.62 5.32 5.08 8.08 5.91 11.14 13.49 15.47 23.71 21.84l-16.86 34.77c-3.46 6.98-7.19 13.83-11.19 20.52-.21-27.19 1.06-58.6-.74-85.21m19.37-488.9c3.15 3.46-.41 82.91-.54 93.61-5.32-.63-10.56-1.37-15.83-2.38-5.95-1.12-2.83-6.57-2.4-12.11 2.01-26.41 15.23-53.47 18.77-79.12m65.53-146.66c5.96 3.27 9.68 5.575 15.32 9.261-7.72 12.198-20.54 27.369-29.88 38.699-8.71 10.56-21.24 27.91-30.62 37.02l-2.12 2.51c1.38-5.36 3.61-8.39 6.32-13.1 14.11-24.49 26.77-49.97 40.98-74.39m-36.16 122.05c7.04-.58 34.67 3.77 42.95 4.94 20.56 3.02 41.18 5.63 61.85 7.83-.66 4.45-1.63 9.08-2.48 13.52-.91 1.42-.23.81-2.34 1.39-13.56-3.82-92.69-23.3-99.98-27.68m-7.62 15.52c9.83 3.34 64.59 54.75 75.43 65.49.3.29.5.76.37 1.19-.44 1.39-2.79 3.13-3.8 4.02-2.14 1.98-4.25 3.94-6.58 5.7-15.54-19.34-32.52-37.94-47.87-57.64-4.13-5.3-12.71-12.92-17.55-18.76m-13.12-150.905c5.52.064 10.09.169 15.57.509-3.75 16.886-7.39 33.695-11.05 50.596l-2.95 13.49-1.01 4.51-1 4.49c-.96 4.3-1.68 9.25-2.91 13.35-1.96-3.28-1.29-3.6-1.8-7.76l-.15-1.16c-.64-21.27 4.49-55.384 5.3-78.025m-2 193.625c-.25-8.29-.54-25.73-.07-34.68.02-.33.2-.33.47-.39 2.06 1.29 2.53 20.24 2.63 23.85 2.64 4.83 6.76 63.29 7.08 72.15-4.66.35-6.63.15-11.28-.06.05-13.91.01-47.77 1.17-60.87"/><path fill="#3e4a53" d="M1255.21 1157.51c-.25-8.29-.54-25.73-.07-34.68.02-.33.2-.33.47-.39 2.06 1.29 2.53 20.24 2.63 23.85-1.6-3.41-.83-2.82-1.49-4.79-1.08 0-.99 6.14-1.03 7-.14 3.11-.19 5.9-.51 9.01m78.52-167.33c2.82 2.1 5.46 4.354 8.11 6.664-9.75 9.926-18.94 20.266-28.56 30.296-10.32 10.75-21.76 21.32-31.79 32.28l-2.53-1.08c15.95-16.67 40.39-49.13 54.77-68.16m46.23 73.09 1.18.8c1.28 3.6 1.19 1.86.58 5.39-4.91 3.24-91.29 14.96-100.49 16.13l-1.32-.01-.28-1.03c1.58-.95 89.33-18.75 100.33-21.28"/><path fill="#394c5f" d="M1238.19 1119.19c8.6 3.82 4.44 6.13 2.38 15.19-1.51 6.65-3.75 13.44-5.35 20.14l-.97 4.01c-.99 4.09-1.92 8.05-2.98 12.13-.4.68-.71 1.41-1.6 1.27-1.04-1.43-.25-7.38-.42-9.46-1.36-16.99 1.15-24.48 7.42-39.65z"/><path fill="#d78537" d="M1229.06 1040.9c.45 2.15.74 4.89 1.49 6.8-.7 3.76-1.09 7.35-.22 11.15 7.78 10.82-.59 11.76-1.26 9.64-.88-7.89-3.72-21.01-.01-27.59"/><path fill="#3e4a53" d="M1229.07 1068.49c.54-3.21.78-6.43 1.26-9.64 7.78 10.82-.59 11.76-1.26 9.64"/><path fill="#5c584d" d="M1269.34 1068.3c3.34-3.27 6.34-6.65 9.62-9.96l2.53 1.08c-3.49 3.93-8.59 9.37-13.53 11.09.48-.81.85-1.46 1.38-2.21"/><path fill="#3e4a53" d="m1251.91 1041.91.15 1.16c.51 4.16-.16 4.48 1.8 7.76-.01 1.66-.88 9.87-2.77 9.32-1.16-2 .34-15.51.82-18.24m-23.49 76.01c2.13-.99 4.28-1.94 6.46-2.85-.96 2.13-3.72 9.2-4.87 10.44l-.41-.01c-.77-.86-.73-5.61-1.18-7.58"/><path fill="#da8436" d="m1266.81 1064.71 2.12-2.51.41 6.1c-.53.75-.9 1.4-1.38 2.21-3.48-2.44-3.27-2.28-1.15-5.8M816.355 639.869l171.988 1.134-.09 9.453a8342 8342 0 0 1-1.353 177.856c-6.069-3.948-13.858-8.695-19.196-13.312-3.536-16.948-4.969-35.262-7.707-52.585a214 214 0 0 0-24.857 1.366l2.478 11.2c1.84 4.337 1.808 5.169 2.426 9.95-33.656-33.52-68.588-61.608-114.136-29.512l.105 110.426c.022 8.281.993 42.33.14 49.014-.638 5.775-1.636 14.732.666 20.019l.004 132.892c-.022 8.14.286 47.38-.592 52.42-.786 2.32-.576 1.09.855 4.26l-.017 130.89c-.04 20.93-.985 50.84.198 71.16l.358 5.37c-1.118 5.35-.624 18.51-.722 24.43-.294 17.75.604 36.33-.061 54.03-4.472 3.9-1.151 29.83-1.329 37.21-.425 17.58.816 36.35.038 53.99-.06 1.36.542 1.41 1.491 2.1 1.014 27.63.498 62.34.102 90.33-.288 2.48-.959 4.74.202 6.81 1.51 30.92.002 64.69.555 95.95.118 6.69.245 38.59-.596 42.74-1.097 6.55-.547 8.8.465 15.37 18.749-10.99 44.786-15.91 64.284-4.02-1.734 29.99.907 59.73-4.065 89.5-1.308 7.84-2.209 15.86-3.477 23.74-.519 3.29-1.011 6.99-1.628 10.22-16.57-.74-43.42.77-60.638-.91-1.034-.69-2.068-1.38-3.101-2.06-9.206-.81-25.266-.11-35.438-.39a282 282 0 0 1-74.889-12.43c-25.366-7.68-50.135-20.27-72.597-34.25-5.073-3.15-13.403-9.33-19.023-9.7 1.276-.4 2.102-.58 3.446-.9l2.515-3.12c-12.981-12-24.502-19.8-37.118-33.83-54.84-60.99-68.455-124-66.838-202.05l-1.217 4.26c-1.174-.38-1.413-1.57-2.385-3.19l-1.875-.23c-17.503-1.53-8.316-61.16-6.473-73.26 1.235-8.11.477-17.81 2.926-25.54 9.01-9.23 23.888-9.79 36.638-11.94.714-4.29 7.387-14.02 9.897-18.32-4.515-10.39-.126-14.58 4.764-24.49 3.567-7.23 6.417-14.06 10.568-21.05 7.091-.15 13.27-.04 20.3 1.14 2.978-1.02 9.323-7.92 11.793-10.42 6.422-3.96 19.823-15.19 26.744-20.31 13.383-9.9 23.134-15.84 37.345-23.98-.068 0 47.222-18.61 49.98-19.81-9.26-1.51-34.771-6.15-43.418-5.52-21.724 1.64-43.919 4.87-65.707 4.62-12.612-.15-21.288-6.96-22.904-19.49-1.28-9.93 1.783-19.16.992-28.83-.895-10.92-7.02-20.87-4.795-32.32 1.663-9.95 5.478-14.79 13.303-20.67 11.587-1.43 62.976-3.42 72.314-.48 27.199 8.59 30.772 17.28 64.21 16.1l-4.561-2.3c-.358-.03-.716-.06-1.074-.08-28.51-6.43-55.678-26.59-71.499-49.84a176 176 0 0 1-3.07-4.56c-10.711-20.15-17.219-34.66-18.737-58.32-.848-11.55.884-20.06 1.958-31.07.749-2.99 1.622-5.93 2.157-8.97.912-2.77 1.861-5.54 2.846-8.29a117.5 117.5 0 0 1 60.091-66.16c33.755-15.793 65.911-16.817 100.635-4.24 6.233 2.59 11.144 5.23 17.1 8.39 1.2-43.639.372-85.652.111-129.103z"/><path fill="#394c5f" d="M595.679 1225.28c11.587-1.43 62.976-3.42 72.314-.48 27.199 8.59 30.772 17.28 64.21 16.1 13.872-.44 29.801 2.49 44.312.71 1.105-.13 1.601-.1 2.644.01 8.612.4 31.835 1.07 39.38-.29 1.027 7.54.69 19.78.747 27.64.125 17.44-.182 34.75.394 52.21-22.36-1.32-41.272-1.74-63.748.46-7.941.77-31.407 6.14-37.724 5.85-9.26-1.51-34.771-6.15-43.418-5.52-21.724 1.64-43.919 4.87-65.707 4.62-12.612-.15-21.288-6.96-22.904-19.49-1.28-9.93 1.783-19.16.992-28.83-.895-10.92-7.02-20.87-4.795-32.32 1.663-9.95 5.478-14.79 13.303-20.67"/><path fill="#fefefc" d="M824.839 648.837c52.258.001 111.507-.268 163.414 1.619a8342 8342 0 0 1-1.353 177.856c-6.069-3.948-13.858-8.695-19.196-13.312-3.536-16.948-4.969-35.262-7.707-52.585a214 214 0 0 0-24.857 1.366l2.478 11.2c-3.408-1.909-9.253-6.879-12.417-9.603-32.58-28.044-60.689-40.462-99.829-15.415a4748 4748 0 0 1-.533-101.126m2.931 1105.993c18.749-10.99 44.786-15.91 64.284-4.02-1.734 29.99.907 59.73-4.065 89.5-1.308 7.84-2.209 15.86-3.477 23.74-18.428.5-38.732.1-57.313.12-.001-36.45.189-72.9.571-109.34"/><path fill="#3e4a53" d="m519.203 1574.63.321-1.33c1.352-5.83 1.619-15.43 2.702-21.8 1.497-8.8 3.573-17.33 5.893-25.93a268.8 268.8 0 0 1 115.221-155.79c52.433-33.89 111.863-46.32 173.679-40.36.88.08 1.984.77 2.774 1.21l-.462 1.54c-5.221 2.19-16.777.6-22.835.44-13.978-.42-27.967.2-41.854 1.84-91.861 11.37-176.572 74.52-211.633 160.6a271.16 271.16 0 0 0 .66 206.35c46.474 108.93 157.822 167.54 274.332 159.8.879-.06 2.667 2.83 3.054 3.53-.615 2.76-.686 4.03-1.91 6.57-9.206-.81-25.266-.11-35.438-.39a282 282 0 0 1-74.889-12.43c-25.366-7.68-50.135-20.27-72.597-34.25-5.073-3.15-13.403-9.33-19.023-9.7 1.276-.4 2.102-.58 3.446-.9l2.515-3.12c-12.981-12-24.502-19.8-37.118-33.83-54.84-60.99-68.455-124-66.838-202.05"/><path fill="#d78537" d="M623.159 1810.51c10.456 6.37 20.442 13.74 31.176 19.94 4.828 2.8 9.728 4.65 15.753 7.51 46.101 21.84 98.972 32.22 149.831 27.17.378-.14.757-.27 1.136-.4-.615 2.76-.686 4.03-1.91 6.57-9.206-.81-25.266-.11-35.438-.39a282 282 0 0 1-74.889-12.43c-25.366-7.68-50.135-20.27-72.597-34.25-5.073-3.15-13.403-9.33-19.023-9.7 1.276-.4 2.102-.58 3.446-.9z"/><path fill="#3e4a53" d="M637.377 1085.76c.912-2.77 1.861-5.54 2.846-8.29a117.5 117.5 0 0 1 60.091-66.16c33.755-15.793 65.911-16.817 100.635-4.24l1.172 5.28c6.18 2.75 17.453 5.53 16.245 13.1-8.103-1.75-19.201-9.37-27.668-11.92-62.412-18.754-132.114 18.02-146.47 83.7a106 106 0 0 0 14.713 80.73c30.774 47.37 84.379 67.2 137.944 48.47 4.41-1.55 19.879-10.04 22.068-10.2l1.277 1.47c-2.393 9.9-23.103 14.3-31.945 16.69 2.367 1.15 2.214 1.17 2.506 3.76-2.201.47-4.419.87-6.649 1.19-2.66.81-2.632.79-4.983 2.28-1.043-.11-1.539-.14-2.644-.01-14.511 1.78-30.44-1.15-44.312-.71l-4.561-2.3c-.358-.03-.716-.06-1.074-.08-28.51-6.43-55.678-26.59-71.499-49.84a176 176 0 0 1-3.07-4.56c-10.711-20.15-17.219-34.66-18.737-58.32-.848-11.55.884-20.06 1.958-31.07.749-2.99 1.622-5.93 2.157-8.97"/><path fill="#d78537" d="M637.377 1085.76c.912-2.77 1.861-5.54 2.846-8.29a117.5 117.5 0 0 1 60.091-66.16c33.755-15.793 65.911-16.817 100.635-4.24l1.172 5.28c-22.448-6.97-41.927-10.93-65.49-6.73-44.459 7.93-81.309 37.09-95.103 80.64a89 89 0 0 0-1.572 5.62c-1.699-2.75-1.677-3.02-2.579-6.12m20.169 98.99c.226.2.451.4.677.61 13.225 17.27 28.642 33.35 48.859 42.31 8.242 3.65 16.005 5.74 24.687 7.75-1.48 1.07-2.698 2.03-4.127 3.18-.358-.03-.716-.06-1.074-.08-28.51-6.43-55.678-26.59-71.499-49.84z"/><path fill="#da8436" d="m636.927 1124.77 2.182 16.23c1.952 13.62 9.496 29.44 16.88 40.96l1.557 2.79-2.477 3.93a176 176 0 0 1-3.07-4.56c-10.711-20.15-17.219-34.66-18.737-58.32 1.261 1.89 2.493 4 2.152 6.43l.164.12.116-.12-.141-1.93.005.46c.226-3.11.27-3.16 1.369-5.99m94.842 110.65c21.246 3.83 23.423 2.3 43.196 1.69 4.268.56 5.184 1.15 9.177 2.23-2.66.81-2.632.79-4.983 2.28-1.043-.11-1.539-.14-2.644-.01-14.511 1.78-30.44-1.15-44.312-.71l-4.561-2.3c1.429-1.15 2.647-2.11 4.127-3.18"/><path fill="#d78537" d="M635.22 1094.73c.749-2.99 1.622-5.93 2.157-8.97.902 3.1.88 3.37 2.579 6.12-.133 3.13-.441 4.22-1.12 7.3-.075 2.96-1.553 23.31-1.909 25.59-1.099 2.83-1.143 2.88-1.369 5.99l-.005-.46.141 1.93-.116.12-.164-.12c.341-2.43-.891-4.54-2.152-6.43-.848-11.55.884-20.06 1.958-31.07m139.745 142.38c4.514-.82 8.874-1.87 13.32-2.72 2.367 1.15 2.214 1.17 2.506 3.76-2.201.47-4.419.87-6.649 1.19-3.993-1.08-4.909-1.67-9.177-2.23"/><path fill="#394c5f" d="M513.726 1575.47c-17.503-1.53-8.316-61.16-6.473-73.26 1.235-8.11.477-17.81 2.926-25.54 9.01-9.23 23.888-9.79 36.638-11.94-13.69 29.87-25.401 58.21-29.071 91.24-.478 4.3-2.082 16-4.02 19.5m58.32-174.6c7.091-.15 13.27-.04 20.3 1.14-3.631 5.05-10.213 11.24-14.829 17.1-6.703 8.5-13.991 19.4-20.803 27.3-4.515-10.39-.126-14.58 4.764-24.49 3.567-7.23 6.417-14.06 10.568-21.05"/><path fill="#fefefc" d="M790.791 1238.15c11.311-3.04 16.95-5.33 27.297-10.53.067 4.72.034 9 .451 13.71-7.545 1.36-30.768.69-39.38.29 2.351-1.49 2.323-1.47 4.983-2.28 2.23-.32 4.448-.72 6.649-1.19"/><path fill="#394c5f" d="M590.267 1501.55c1.108.59 2.102 1.05 3.231 1.58 20.132 11.16 41.121 20.5 61.898 30.42a4072 4072 0 0 1 59.203 29.23c13.14 6.49 28.065 13.13 40.498 20.58l-110.926-17.11c-11.797-1.8-56.821-10.45-64.941-7.73l-.691 2.62c5.015 4.54 25.74 5.75 33.049 6.87l83.426 13.22c8.12 1.25 52.777 6.6 54.98 11.84-3.302 3.63-34.086 5.58-41.144 6.47l-86.762 11.2c-14.082 1.79-28.499 3.73-42.641 5.27-2.612.29-3.601 1.19-4.835 3.02l.712 3.86c2.566 1.66 24.565-2.34 29.539-2.99l136.662-17.57c3.8-.47 8.048-2.01 8.776 1.3.198.89.831 2.98-.039 3.35-43.388 18.02-91.655 31.71-135.974 47.76-9.83 3.56-25.687 7.7-29.879 10.56.059 2.8.386 2.8 1.887 5.27.781.23 1.562.45 2.344.67 6.616-2.97 15.39-5.85 22.049-8.11l116.529-39.62c6.444-2.16 18.271-6.14 25.272-8.42 1.562-.51 2.813 1.92 3.924 3.43-2.391 2.11-26.924 16.53-31.299 19.16l-85.961 52.3c-5.468 3.26-34.743 19.14-36.287 21.9.772 3.43-.036 2.05 2.234 4.41 8.33.38 135.115-83.21 158.045-92.61-33.264 43.17-71.882 82.81-106.042 125.35-3.216 4.01-7.448 8.29-10.183 12.56-.81 1.34-1.914 2.45-2.87 3.68-30.991-28.12-51.861-60.22-65.449-100.02a215.3 215.3 0 0 1 11.665-163.7m3.038-5.35c27.153-51.31 72.773-91.93 128.619-108.76 35.753-10.77 61.526-11.1 97.746-7.93-.303 33.34-.276 66.68.081 100.01.037 14.26.867 34.55-1.223 48.43-.553 3.67-8.266 20.57-10.135 25.43l-8.87-3.35c2.331-19.01 11.045-159.76 7.681-166.68-3.971-.45-2.517-1.08-4.978.8-5.069 52.29-4.597 107.32-8.507 159.86-.22 2.96-.535 3.89-2.574 5.79-.916.01-5.14.5-5.507-.47-7.519-19.8-36.288-156.81-43.729-163.1l-2.478.29c-2.013 4.91 11.406 52.22 13.376 60.09l26.119 105.78-8.256 3.73c-22.797-46.24-51.213-90.09-75.5-135.55-1.211-2.27-3.176-3.79-5.333-5.02-3.132 0-1.792-.55-4.253 1.16.487 6.14 9.91 17.9 14.16 25.85 20.812 38.94 45.888 77.23 64.562 117.15-.25.66-.501 1.31-.751 1.97-5.462 2.81-8.103-1.36-12.183-5.15-4.949-4.59-9.76-9.2-14.79-13.72a4354 4354 0 0 1-71.095-64.65c-3.857-3.62-29.045-29.16-32.21-28.97-6.068 7.25 29.876 36.19 36.373 42.08l61.672 55.69c4.653 4.21 25.098 20.72 23.469 25.98-4.365.31-15.437-5.56-19.748-7.82-44.899-23.51-92.122-43.8-137.095-66.95-2.837 1.81-2.61 1.97-4.45 4.96-1.129-.53-2.123-.99-3.231-1.58l.48-.91c.984-1.89 1.326-2.72 2.558-4.44"/><path fill="#3e4a53" d="M593.305 1496.2c2.053 1.97 2.017 1.02 4.643 1.97-2.837 1.81-2.61 1.97-4.45 4.96-1.129-.53-2.123-.99-3.231-1.58l.48-.91c.984-1.89 1.326-2.72 2.558-4.44"/><path fill="#394c5f" d="m651.427 1765.98.815-.81c6.035-6.11 11.984-13.47 17.457-20.14 25.805-31.43 53.472-61.24 78.9-92.98 4.168-5.2 14.012-19.02 20.386-19.44l1.454 1.58c-.711 3.48-9.989 15.99-12.236 20.29-10.544 20.15-21.522 39.88-32.918 59.57a2466 2466 0 0 0-26.929 47.66c-2.93 5.27-13.535 21.15-11.741 25.89 3.505 1.93 1.799 1.78 5.175 1.19 10.886-17.58 79.455-148.85 86.773-151.41l3.323 1c1.839 4.02-10.529 42.19-12.417 49.04l-27.773 101.72c-1.941 7-6.743 14.18 1.761 15.38 3.192-2.97 30.861-110.03 35.108-125.83 3.017-11.22 5.316-24.68 10.022-35.27.926-2.09 1.539-2.59 3.352-3.83l2.203.4c6.1 8.86 5.521 117.31 7.654 135.13.847 7.08-.722 37.5 4.548 39.34 1.455-.71 2.379-.74 2.576-2.11 1.271-8.82.171-24.15-.104-33.12q-1.312-48.81-3.282-97.59c-.327-6.85-2.835-39.27-1.373-42.39l2.344-.94c2.478 1.86 11.999 28.78 12.384 33.21 1.535 17.67.81 37.79.785 55.66l.354 89.64c-61.866 7.96-121.332-10.65-170.958-47.63.886-1.3 1.36-1.99 2.357-3.21"/><path fill="#394c5f" d="M780.352 1352.44c11.109-.44 27.823.57 38.826 1.64l.091 16.23c-21.972-1.84-40.112-2.05-62.097.8-126.326 16.37-213.598 134.68-194.68 260.82a229 229 0 0 0 91.367 150.74c43.938 31.98 109.125 51.47 163.348 42.94 1.643.26.789-.07 2.368 1.41.69 5.95-.082 11.89-.557 17.9-15.665.28-34.302.68-49.747-.67a258.82 258.82 0 0 1-147.733-63c-20.797-18.44-32.913-36.25-47.053-59.79-66.245-110.25-30.451-255.76 74.461-327.47 41.173-28.15 81.25-39.3 131.406-41.55m-25.981-286.74c29.962-5.26 58.514 14.77 63.78 44.73s-14.748 58.52-44.707 63.79c-29.971 5.28-58.543-14.75-63.811-44.72s14.764-58.54 44.738-63.8"/><path fill="#da8436" d="M759.391 1082.65c20.343-2.84 39.128 11.37 41.935 31.72 2.807 20.34-11.428 39.11-31.779 41.89-20.31 2.77-39.029-11.43-41.83-31.74-2.802-20.3 11.372-39.04 31.674-41.87"/><path fill="#394c5f" d="M760.028 1088.83c16.738-2.54 32.433 8.77 35.312 25.46 2.879 16.68-8.116 32.6-24.737 35.82a31.1 31.1 0 0 1-29.668-10.47 31.09 31.09 0 0 1-5.351-31 31.1 31.1 0 0 1 24.444-19.81"/><path fill="#394c5f" d="M754.021 1038.38c25.932-2.18 46.523 7.02 65.693 23.87l-.564 29.97c-47.659-73.62-140.499-12.45-109.907 53.23a61.94 61.94 0 0 0 35.122 32.18c16.956 6.14 31.868 4.04 47.9-3.41 14.279-7.86 18.877-13.76 26.748-27.46l.107 30.99c-34.387 26.85-72.317 35.37-109.5 7.25a81.9 81.9 0 0 1-31.997-54.9 79.17 79.17 0 0 1 16.588-59.33c15.726-19.87 35.012-29.5 59.81-32.39"/><path fill="#394c5f" d="M744.573 1017.34a110.8 110.8 0 0 1 75.191 19.21l-.65 16.39c-20.451-16.74-48.153-24.65-74.284-19.64a93.2 93.2 0 0 0-60.03 39.61c-12.953 19.17-17.043 42.09-12.388 64.67a89 89 0 0 0 38.891 56.6c20.815 13.44 45.346 17.06 69.388 11.85 17.352-5.25 24.48-9.56 39.31-20.09l-.136 21.26a115.7 115.7 0 0 1-43.86 16.89c-26.45 4.48-58.777-1.64-80.189-17.82-79.982-60.46-49.902-174.01 48.757-188.93m46.262 540.92c12.861.26 18.338 3.66 28.18 11.08l.18 14.08c-.723-1.14-1.739-2.55-2.35-3.68-10.839-19.98-42.923-18.62-50.406 3.62-2.04 6.06-2.574 14.66-1.149 20.63 3.721 15.59 20.688 23.13 35.071 20.03 5.758-1.8 10.499-3.82 14.375-8.65.444-.55 2.825-4.44 3.929-4.04 1.012 1.33 1.165 9.1-.186 10.76-12.345 16.59-45.01 13.15-55.298-4.11-15.54-26.07-1.67-54.78 27.654-59.72"/><path fill="#394c5f" d="M786.92 1579.12c21.939-2.34 33.365 14.51 13.941 31.39-20.156 4.58-32.991-18.94-13.941-31.39"/><path fill="#da8436" d="M791.499 1588.77a7.77 7.77 0 0 1 7.826.87 7.747 7.747 0 0 1-1.894 13.43 7.74 7.74 0 0 1-9.905-4.27 7.744 7.744 0 0 1 3.973-10.03"/><path fill="#3e4a53" d="M818.832 1548.92c2.614 3.19-.256 9.4-2.468 12.33-4.283-5.12-1.227-6.54 2.468-12.33m-174.781 216.35c.956-1.23 2.06-2.34 2.87-3.68 1.52 1.56 2.964 2.88 4.506 4.39-.997 1.22-1.471 1.91-2.357 3.21-1.628-1.11-3.424-2.67-5.019-3.92"/><path fill="#5c584d" d="M814.275 1635.57c3.298-.87 5.018 6.69 6.035 9.68-2.987-2.18-5.635-5.96-6.035-9.68"/><path fill="#fefefc" d="M826.819 934.878c17.972-10.323 33.5-17.035 54.871-11.272 31.139 8.396 52.388 34.866 76.046 54.747 8.894 7.474 19.764 13.391 30.242 18.429-1.524 64.648-.846 130.818-1.616 195.748l-.065 5.12c-82.309-.3-66.445-109.04-159.211-73.2-1.431-3.17-1.641-1.94-.855-4.26.878-5.04.57-44.28.592-52.42z"/><path fill="#d78537" d="M826.231 1120.19c100.3-34.1 81.387 76.37 160.131 72.34l-.065 5.12c-82.309-.3-66.445-109.04-159.211-73.2-1.431-3.17-1.641-1.94-.855-4.26"/><path fill="#fefefc" d="M827.086 1124.45c92.766-35.84 76.902 72.9 159.211 73.2-.164 51.57-.738 105.62-12.419 155.79-1.091 4.69-2.805 10.46-3.346 15.08l-1.821 4.68c-35.889-26.66-95.954-73.84-141.086-41.33l-.358-5.37c-1.183-20.32-.238-50.23-.198-71.16z"/><path fill="#d78537" d="M827.267 1326.5c56.659-30.68 98.863 15.43 143.265 42.02l-1.821 4.68c-35.889-26.66-95.954-73.84-141.086-41.33z"/><path fill="#fefefc" d="M825.908 755.419c45.548-32.096 80.48-4.008 114.136 29.512.725 7.254 1.576 14.74 1.992 21.996-11.746-9.08-23.049-19.281-34.161-29.16-3.48 7.616-7.898 16.658-10.702 24.41 21.585 14.387 45.663 29.911 65.177 46.985 4.1 3.586 23.66 40.753 24.884 46.994 1.446 7.377.939 27.332.909 36.079q-.015 28.949-.373 57.895l.208 6.652c-10.478-5.038-21.348-10.955-30.242-18.429-23.658-19.881-44.907-46.351-76.046-54.747-21.371-5.763-36.899.949-54.871 11.272-2.302-5.287-1.304-14.244-.666-20.019.853-6.684-.118-40.733-.14-49.014z"/><path fill="#d78537" d="M826.153 914.859q.444 7.261.608 14.534c26.146-11.653 37.686-15.568 65.712-6.73 33.952 10.706 66.675 62.26 95.297 67.467l.208 6.652c-10.478-5.038-21.348-10.955-30.242-18.429-23.658-19.881-44.907-46.351-76.046-54.747-21.371-5.763-36.899.949-54.871 11.272-2.302-5.287-1.304-14.244-.666-20.019"/><path fill="#fefefc" d="M827.625 1331.87c45.132-32.51 105.197 14.67 141.086 41.33-12.731 32.23-30.343 64.58-63.795 79.03a125 125 0 0 1-8.157 3.1l-.419 21.8c.084 2.2.054 3.87-.017 6.05-20.331-14.13-48.615-12.63-69.063.54.006 4.95.356 15.49-.218 19.91-.949-.69-1.551-.74-1.491-2.1.778-17.64-.463-36.41-.038-53.99.178-7.38-3.143-33.31 1.329-37.21.665-17.7-.233-36.28.061-54.03.098-5.92-.396-19.08.722-24.43"/><path fill="#d78537" d="M827.042 1503.63c-.949-.69-1.551-.74-1.491-2.1.778-17.64-.463-36.41-.038-53.99.178-7.38-3.143-33.31 1.329-37.21 1.334 15.91.099 50.61.33 68.37 23.289-11.8 45.276-14.31 69.168-1.57.084 2.2.054 3.87-.017 6.05-20.331-14.13-48.615-12.63-69.063.54.006 4.95.356 15.49-.218 19.91"/><path fill="#fefefc" d="M827.346 1600.77c2.972-5.87 20.713-10.61 27.157-11.72 14.575-2.51 27.213.58 39.888 7.99-2.234 48.03-1.945 99.31-2.194 147.61-.003 2.12-.051 4.03-.143 6.16-19.498-11.89-45.535-6.97-64.284 4.02-1.012-6.57-1.562-8.82-.465-15.37.841-4.15.714-36.05.596-42.74-.553-31.26.955-65.03-.555-95.95"/><path fill="#d78537" d="M827.305 1739.46c.202 2.59-.021 6.64 1.078 8.87.571.28 2.779-.87 3.189-1.06 16.205-7.55 30.904-9.56 48.42-6.14 4.161.82 8.244 2 12.205 3.52-.003 2.12-.051 4.03-.143 6.16-19.498-11.89-45.535-6.97-64.284 4.02-1.012-6.57-1.562-8.82-.465-15.37"/><path fill="#fefefc" d="M827.26 1483.72c20.448-13.17 48.732-14.67 69.063-.54a2414 2414 0 0 0-1.547 89.54c.296 6.94.489 17.41-.385 24.32-12.675-7.41-25.313-10.5-39.888-7.99-6.444 1.11-24.185 5.85-27.157 11.72-1.161-2.07-.49-4.33-.202-6.81.396-27.99.912-62.7-.102-90.33.574-4.42.224-14.96.218-19.91"/><path fill="#d78537" d="M894.776 1572.72c.296 6.94.489 17.41-.385 24.32-12.675-7.41-25.313-10.5-39.888-7.99-6.444 1.11-24.185 5.85-27.157 11.72-1.161-2.07-.49-4.33-.202-6.81 3.768-.88 7.124-3.05 10.742-4.49 19.618-7.84 36.973-6.79 56.185 1.22.186-5.88.146-12.18.705-17.97"/><path fill="#fefefc" d="m986.188 241.064 3.723-2.051c-.187 1.344-.345 5.127-1.169 6.05l-.182.061c-1.044-.624-1.8-2.954-2.372-4.06"/><path fill="#6e849c" d="M1048.51 1061.98c-.01-1.75.8-4.73 1.94-5.9l.14-.02c.55.44 1.35 48.17-.3 50.71-.38 19.31-.14 47.51-1.59 65.9-.6 7.67-17.62 42.67-22.1 52.73a559 559 0 0 0-18.37 47.6c-8.14 25.05-19.504 61.5-24.555 86.66-21.101 105.09-24.929 229.29 1.154 333.58-4.234-2.34-7.795-4.83-12.501-5.44-8.089 3.17-24.674 58.37-28.07 68.48-24.445 72.77-39.815 152.23-38.502 229.18-13.709 1.55-23.479 2.3-37.447 1.64 6.834-54.57 18.8-110.17 24.331-165.14 1.777-17.66.749-37.07 1.065-54.86.266-14.95 1.271-29.84 1.11-44.75 5.479-5.68 8.19-11.46 12.543-17.38 47.309-64.31 16.947-130.39-7.928-196.07-1.664-4.4-.235-42.65-.228-51.04l13.353-6.31c2.71 40.34 13.138 68.63 34.082 12.1 5.164-13.94 5.425-34.35 4.753-49.14 20.979-36.68 26.454-58.03 32.029-99.83-.182-1.01-.194-.86.303-1.79l.584-7.01c-.182-1.2-.328-1.63.399-2.56l.532-9.64c-.426-2.43-1.011-3.47.489-5.42 2.018-26.26 1.541-60.28 4.691-86.09 1.031-8.45 18.783-38.23 23.473-48.35a664 664 0 0 0 34.62-91.84"/><path fill="#394c5f" d="M1048.51 1061.98c-.01-1.75.8-4.73 1.94-5.9l.14-.02c.55.44 1.35 48.17-.3 50.71-1.42-8.37 1.59-38.58-1.78-44.79"/><path fill="#3e4a53" d="M985.237 1293.68c-.426-2.43-1.011-3.47.489-5.42.29 2.27.606 3.4-.489 5.42m-.931 12.2c-.182-1.2-.328-1.63.399-2.56.159 1.39.269 1.38-.399 2.56"/><path fill="#6e849c" d="M1046.59 1188.08c1.18-3.01 2.23-4.28 2.55-.18-1.29 29 .07 28.65-11.86 56.47-6.67 15.54-14.49 45.23-17.75 62.32-10.32 54.12-10.66 111.32-11.63 166.32-.41 59.19-3.87 121.15 17.93 177.44 7.73 19.94 19.87 40.55 28.87 60.05 3.39 7.34 11.73 20.9 11.85 28.7.8 53.57-42.5 112.38-12.02 163.84a219 219 0 0 1-56.584 48.61c13.074-61.63 18.604-168.02 4.094-230.18-2.346-10.07-11.337-20.37-13.571-27.51-8.866-28.34-13.694-64.78-16.269-93.99a797.7 797.7 0 0 1 45.72-345.81c8.69-23.34 18.64-43.37 28.67-66.08"/><path fill="#6c7b8f" d="M1046.59 1188.08c1.18-3.01 2.23-4.28 2.55-.18z"/><path fill="#6e849c" d="M1047.45 1224.63c1.73 5.33 1.03 28.38.83 34.89-.86 23.68-1.31 47.38-1.35 71.08-.12 22.52-1.88 35.33 6.7 56.71-3.75 12.2-5.93 34.99-6.91 48.16a493.64 493.64 0 0 0 31.27 215.76c7.22 18.67 18.19 32.87 26.78 50.31 3.13 6.34 1.24 24.55 1.41 32.51.87 40.81.2 81.65-18.96 118.91-4.32 8.6-22.97 44.32-31.37 47.28-28.65-44.83 16.63-115.66 13.3-163.49-.54-7.74-12.65-28.45-16.43-36.29-5.7-11.83-11.82-24.26-17.6-36.1-29.57-60.63-24.93-130.53-24.13-196.19.65-53.12 2-108.12 11.31-160.61 5.03-28.07 15.51-56 25.15-82.93M992.7 232.313a194 194 0 0 1 40.89-104.848c38.82-48.816 86.15-70.16 146.8-76.828-.29 7.357.14 14.421-.83 21.775-3.6-.823-6.51-1.168-10.2-.53-40.79 7.055-90.33 27.902-115.29 62.189-11.19 15.196-23.39 37.71-20.06 57.363 4.1 17.189 11.83 13.237 20.79 2.418 30.55-36.897 67.07-70.68 113.86-84.898 3.1-.945 7.33-2.527 10.11-.967l.36 3.821c.72 3.162 2.07 6.38.14 9.168-77.26 11.471-119.82 69.67-120.43 145.902.75 30.055.07 61.111.36 91.241.08 8.494.53 40.654-1.03 47.435l-.22 12.043c-18.71-18.651-38.7-69.617-25.22-94.914 7.78-4.479 13.39-8.547 16.48-17.677a22.93 22.93 0 0 0-1.24-17.948c-4.69-9.097-12.2-11.813-21.11-14.578-12.21 2.923-21.89 9.629-23.62 22.981a23.63 23.63 0 0 0 5.38 18.276c5.99 6.978 11.54 7.944 19.87 8.823-10.9 30.492 7.71 75.683 28.95 98.323.38 22.715.07 45.97.35 68.854-25.97-39.546-45.46-92.492-57.57-137.852-1.74-9.751-7.429-23.882-7.62-33.695-.518-26.612-1.386-55.924-.316-82.413-.418-1.759-.781-2.013.416-3.464"/><path fill="#394c5f" d="M1058.84 266.878c.75 30.055.07 61.111.36 91.241.08 8.494.53 40.654-1.03 47.435-1.18-17.209-.15-48.598-.23-67.033-.09-18.65-.97-54.629.9-71.643m120.29-155.07c.72 3.162 2.07 6.38.14 9.168-.38-3.833-.34-5.36-.14-9.168"/><path fill="#3e4a53" d="M992.284 235.777c-.418-1.759-.781-2.013.416-3.464.265 1.911.446 1.878-.416 3.464"/><path fill="#6e849c" d="M972.523 1689.87c6.842 2.86 12.06 6.4 16.599 12.32 33.598 43.81 14.418 195.41 6.409 250.6-5.359 3.65-12.596 7.39-18.412 10.57 2.043-16.09 10.96-65.25-4.58-76.67-11.159-8.2-20.131 12.57-23.84 20.88-6.971 22.98-6.33 44.89-2.48 68.5-14.66 4.55-22.503 6.69-37.83 8.5-2.395-74.28 17.704-169.46 42.153-239.02 5.971-16.99 12.785-40.53 21.981-55.68m83.337-1106.745c.32 18.703 1.76 46.243-.73 64.374-6.9 50.084-14.54 98.106-15.06 149.009a882 882 0 0 0 3.23 76.424c1.27 15.222 7.73 37.731 5.42 48.869-8.64 41.655-29.56 83.039-58.787 113.759q-.089-20.925.277-41.851c-.538-4.113-.414-27.35-.27-32.202.505-16.933-.823-38.605.414-55.045l.108-1.814.967-.742c6.031 5.386 13.341 26.216 16.691 27.932l.63-1.147c-1.85-7.303-39.713-78.885-45.424-84.467-9.256-9.048-50.642-36.636-63.579-45.225 3.495-7.132 5.639-11.743 8.323-19.17l13.063 10.823c1.223.747 1.22.629 1.996 1.678l2.318 1.857c2.092 1.561 3.446 2.412 5.15 4.373l2.294 1.921c1.574.977 2.152 1.259 3.271 2.738l11.298 10.49-.241-.837-.387-1.397c-2.006-7.097-2.306-9.121-3.155-16.392-.469-.864-.448-.762-.343-1.742-.908-10.463-2.283-19.247-3.932-29.567 6.719-.487 12.698-.893 19.431-.972 1.149 12.98 3.945 39.447 7.221 51.437 7.925 8.245 29.039 21.086 40.006 30.851 14.8-42.154 18.99-75.431 12.88-119.792-1.43-10.361-2.69-22.55-5.6-32.532 16.86-30.865 34.95-77.33 42.52-111.641"/><path fill="#3e4a53" d="M990.354 906.462c.993 6.352 1.103 84.293-.144 87.247-.538-4.113-.414-27.35-.27-32.202.505-16.933-.823-38.605.414-55.045m-64.907-110.275c2.092 1.561 3.446 2.412 5.15 4.373-1.806-.797-2.599-1.447-3.88-2.937zm7.444 6.294c1.574.977 2.152 1.259 3.271 2.738-1.968-.682-2.101-.949-3.271-2.738"/><path fill="#6e849c" d="M1054.67 1393.62c1.21 1.03 18.78 29.06 22.48 33.8-8.75 16.91-21.04 62.91-1.96 79.8 1.43 1.26 5.72.85 7.24-.2 17.46-12.1 15.77-39.57 21.23-56.43 3.07.87 2.89.98 5.33 3.12 1.76 4.52-1.16 154.19-1.61 171.04l-1.46 71.81c-8.6-13.74-15.36-24.93-22.15-39.96-32.89-72.8-44.51-185-29.1-262.98M992.162 380.088a177 177 0 0 1-.178-4.549c-.092-4.921-.396-41.077.786-42.316l.091.015.453.611-.022-.385c.622 1.588.506 1.292.641 3.224 10.537 45.496 35.157 119.616 63.497 157.085-.07 10.124.21 68.398-.74 73.668-9.01 50.01-38.46 118.187-66.116 159.608q.398-31.128.453-62.259c27.303-38.596 47.953-78.661 43.223-128.323-4.25-44.651-31.92-87.039-41.449-130.668-1.305-5.977-.713-19.322-.639-25.711"/><path fill="#59616f" d="M992.162 380.088a177 177 0 0 1-.178-4.549c-.092-4.921-.396-41.077.786-42.316l.091.015.453.611-.022-.385c.622 1.588.506 1.292.641 3.224-2.408 12.431.037 29.678-1.771 43.4"/><path fill="#6e849c" d="M1175.16 74.416c2.47.508 1.76.277 3.96 1.336 2.15 6.477 1.2 20.321.97 27.775-43.91 9.898-79.06 35.089-109.71 67.874-7.42 7.942-18.82 24.328-27.71 29.33-16.12-12.935 2.95-49.744 12.57-62.81 28.63-38.9 73.77-56.086 119.92-63.505"/><path fill="#080809" d="M1142.96 92.346c2.52-.046 11.29 1.342 8.79 5.057-5.1 7.574-37.01 35.547-47.33 26.125-1.88-1.711-20.87 21.769-23.24 23.653-3.01 2.768-5.58 4.976-9.01 7.468-33.44 10.716 14.88-55.237 70.79-62.303"/><path fill="#6e849c" d="M1142.42 95.28c20.73-2.036-25.58 27.732-30.46 27.785-8.71.095-1.9-7.875-4.28-9.588 1.45.004-28.1 31.092-30.72 33.612-10.17 8.179-18.02 7.333-9.68-4.478 17.74-25.106 45.09-42.264 75.14-47.332m-90.51 895.808-.09 21.563c.43 7.01.98 24.3-.67 30.76-1.32 7.95-6.27 21.88-8.88 29.93-13.87 42.68-30.03 78.88-50.939 118.32-.224.48-1.592 4.48-2.891 3.83 2.411-11.81-.564-28.38 1.345-41.02-.743-5.3-.155-20.26-.038-25.87.275-12.68.372-25.37.292-38.06 30.441-32.28 43.051-61.25 61.871-99.453"/><path fill="#6c7b8f" d="M991.331 1191.66c-.224.48-1.592 4.48-2.891 3.83 2.411-11.81-.564-28.38 1.345-41.02.974 8.37-.281 32.52 1.546 37.19"/><path fill="#394c5f" d="M1051.15 1043.41c-.42-8.11-.19-22.64.67-30.76.43 7.01.98 24.3-.67 30.76"/><path fill="#6e849c" d="M992.153 434.04c-.12-2.906-.624-14.309.522-16.305l.473.126c.73 1.028.617 1.235.655 2.498 25.727 77.391 60.507 121.459 18.097 206.61-6.18 12.414-13.171 22.284-21.226 33.636q.5-19.044.604-38.094c12.212-16.839 21.832-34.106 24.752-55.059.89-6.375 1.71-22.804-7.85-22.16-9.017 5.276-12.38 16.717-16.116 26.159-.972-20.679-.273-43.646-.129-64.505.166-24.112-.346-48.91.218-72.906"/><path fill="#59616f" d="M992.153 434.04c-.12-2.906-.624-14.309.522-16.305l.473.126c.73 1.028.617 1.235.655 2.498-1.075 5.273-1 8.424-1.65 13.681"/><path fill="#6e849c" d="m931.053 145.61.819-1.946c4.634-.742 14.945-.148 20.047.005-.541 47.135-2.534 42.183 24.032 84.987 2.858 4.606 11.149 18.193 11.901 23.378 2.653 18.286 1.79 43.194 1.781 61.889-6.569-11.803-37.797-73.149-44.077-78.099-13.851-10.918-43.201-20.913-60.222-29.182 2.621-8.497 4.538-13.911 7.981-22.086 15.521 9.592 32.904 19.863 47.792 30.15-5.156-18.634-7.864-41.754-9.36-61.108-1.695-2.06-.835-5.033-.694-7.988"/><path fill="#394c5f" d="M931.053 145.61c.794 3.512 1.281 4.527.694 7.988-1.695-2.06-.835-5.033-.694-7.988"/><path fill="#6e849c" d="M897.752 1513.66c14.952 36.66 32.325 81.97 32.172 121.94-.111 28.71-18.998 60.44-35.063 83.1l.269-74.64c-.498-7.34-.902-15.32.761-22.49 1.861-35.9.785-71.89 1.861-107.91"/><path fill="#394c5f" d="M895.13 1644.06c-.498-7.34-.902-15.32.761-22.49.384 6.99.204 15.56-.761 22.49"/><path fill="#6e849c" d="M990.61 731.572c6.674-10.819 13.62-22.501 20.59-33.037 12.02 52.048 10.13 93.177-6.5 143.791l-15.865-12.361c.05-5.556-.083-12.51.221-17.941-.164-3.252-1.108-11.417.66-13.772-.547-12.81.107-27.891.398-40.887-.283-5.247-.467-20.96.496-25.793"/><path fill="#3e4a53" d="M990.61 731.572c.808 6.985.625 18.776-.496 25.793-.283-5.247-.467-20.96.496-25.793"/><path fill="#6c7b8f" d="M989.056 812.024c-.164-3.252-1.108-11.417.66-13.772.83 4.194-.107 9.463-.66 13.772"/><path fill="#6e849c" d="m1049.75 928.97 2.24 3.249c.09 10.016 1.46 43.783-.92 51.264-10.67 33.437-39.65 78.367-61.049 103.917l-.096-48.5c32.105-33.28 48.735-65.307 59.825-109.93m-84.679 958.69c7.417.91 11.402 4.11 12.109 11.83 1.751 19.15.51 44.75-3.006 63.49l-.362 1.99c-6.244 2.72-11.049 4.97-17.565 7.46-.178.06-.356.13-.534.19l-1.197.4c-.574.2-5.378 2.08-5.666.5-4.68-25.76-5.036-67.43 16.221-85.86"/><path fill="#080809" d="M960.955 1916.47c14.902 2.05 9.998 24.32 1.959 32.46-14.227-3.21-9.067-24.29-1.959-32.46"/><path fill="#6e849c" d="M962.264 1918.63c8.802 5.39 4.891 20.6-.172 27.6-8.917-5.3-4.496-20.79.172-27.6M1053.38 679c.23-4.485 1.42-8.76 2.47-13.113.19 8.634.88 21.488-.7 29.657l-1.3 104.017c.18 3.337 1.09 8.776-.59 11.2-.4 34.279-.05 66.316-1.65 100.768-12.15-68.176-11.25-164.652 1.77-232.529"/><path fill="#394c5f" d="M1053.38 679c.23-4.485 1.42-8.76 2.47-13.113.19 8.634.88 21.488-.7 29.657-.42-5.928.61-12.227-1.77-16.544m-.12 131.761c-.55-4.457-.14-6.855.59-11.2.18 3.337 1.09 8.776-.59 11.2"/><path fill="#6e849c" d="M1094.07 1443.38c8.48 6.39 6.21 5.2 5.1 16.12-1.37 11.76-3.76 22.37-9.14 33.02-8.12 16.08-15.35 18.08-20.32-.99-5.04-19.37 1.84-42.41 8.34-60.61.9-2.51 6.36 4.07 7.07 4.77.92.52.93.45 1.4 1.35 2.31 1.83 4.2 3.43 6.4 5.4.7.44.79.38 1.15.94"/><path fill="#080809" d="M1081.53 1453.32c13.34 1.07 4.99 20.78-.15 27.34-12.01-3.07-5.16-20.49.15-27.34"/><path fill="#6e849c" d="M1083.38 1456.65c4.46 5.08-.2 16.1-3.25 21.05-5.36-6.28-1.53-15.52 3.25-21.05M1021.3 277.659c11.07-3.075 22.56 3.283 25.83 14.294 3.28 11.01-2.87 22.615-13.82 26.09a21.08 21.08 0 0 1-20.77-4.696 21.09 21.09 0 0 1-6.07-20.406 21.09 21.09 0 0 1 14.83-15.282"/><path fill="#080809" d="m1011.55 294.63.8-1.859c7.43-18.16 39.66-7.935 26.83 12.782-6.36 10.273-14.08 9.382-22.88 2.514-.53-.374-.52-.5-.98-1.155-2.54-4.17-2.52-4.34-3.86-9.124-.67-1.418-.47-1.686.09-3.158"/><path fill="#59616f" d="M1011.55 294.63c.35 1.56.23 1.434-.09 3.158-.67-1.418-.47-1.686.09-3.158"/><path fill="#fefefc" d="M1022.82 286.103c21.15-.942 23.49 14.178 7.95 23.745-16.05-.046-25.34-15.186-7.95-23.745"/><path fill="#6e849c" d="M947.728 1419.85c7.473 8.43-11.546 85.63-25.064 70.5l-.942-1.03c-4.861-12.31-5.804-26.15-6.513-39.27l.512-.33a112.8 112.8 0 0 0 32.007-29.87m61.462-873.146c15.19 10.999-6.81 55.296-15.467 67.801-.477.556-1.484 2.186-2.401 1.384-.86-2.571.414-18.254-.178-22.144-2.249-14.784 6.678-36.814 18.046-47.041"/><path fill="#080809" d="M1007.22 564.561c1.23 1.352 2.22 1.894 1.52 3.697-2.66 6.78-5.14 13.404-8.05 20.094-4.717-5.036 3.73-18.879 6.53-23.791"/><path fill="#59616f" d="M1049.75 928.97c.26-1.998.37-4.017.83-5.982l-.15.684.86-1.757-.14-.183.24-.119c.84.367.59 9.309.6 10.606z"/><path fill="#da8436" d="M515.601 1575.7c.972 1.62 1.211 2.81 2.385 3.19l1.217-4.26c-1.617 78.05 11.998 141.06 66.838 202.05 12.616 14.03 24.137 21.83 37.118 33.83l-2.515 3.12c-1.344.32-2.17.5-3.446.9-13.606.87-62.839 1.67-74.894-.86-25.698 24.59-46.913 42.52-83.137 47.84-26.702 4.64-48.139.23-73.148-8.58-6.792-2.58-12.283-5.42-18.182-9.61-6.583-2.51-21.281-15.56-26.555-20.58l-1.25-1.17c-2.738-3.25-5.475-6.69-7.801-10.24l-1.318-1.13c-12.581-1.4-33.902 1.62-44.596-.43-7.183-9.57 3.103-22.72.314-36.76-6.668-33.58-12.624-43.63 19.986-60.21.138-2.63.223-1.67-.603-4.2-7.37-1.27-14.713-2.7-22.024-4.28-1.801-.37-3.719-.8-5.504-1.15l-5.001-1.02c-27.496-5.55-29.065-17.72-19.823-40.16 2.175-5.27-.023-15.14 3.211-19.58 6.775-9.32 24.934-9.55 35.124-15.26 1.886-1.09 16.075.77 19.19.91 12.804.54 23.615-2.35 36.135 0l2.092-1.8c-2.382-3.29-3.41-5.41-5.333-8.97 2.996-7.16 4.385-10.49 6.347-17.98 15.479-7.02 19.64-3.57 36.077-4.11 9.978-.33 9.637-5.23 20.426.51 8.894-2.62 32.762-4.02 41.707-1.92 7.311.31 11.104 1.55 17.957 2.84 9.135 1.72 16.834 6.92 25.075 8.98 6.641-3.24 14.908-6.16 22.197-7.34 1.248-2.8 1.141-17.23 1.734-22.57"/><path fill="#394c5f" d="M449.517 1610.86c27.619 5.41 35.856 8.43 59.495 25.2-3.216 6.17-3.583 7.56-5.281 14.16 4.887.99 9.792 2.06 14.719 2.8 1.279 6.85 3.167 12.15.094 18.3-5.609 4.85-13.416.52-19.693-1.71-1.931 5.81-4.104 11.69-5.281 17.67 7.788 1.88 11.212 3.15 18.698 6.15 1.492-4.69 3.732-14.36 7.664-16.44 4.611 2.05 9.501 11.27 10.657 15.92 2.214 8.91 13.43 28.03 14.302 35.71.339.77.386.73.987 1.39-2.454 7.23-2.272 10.32-3.767 17.36-1.172 5.84-2.242 11.81-3.964 17.51-8.169-2.42-12.698-3.89-20.46-7.27-1.434 6.18-2.752 11.94-4.546 18.04 6.329 2.24 12.66 4.36 18.788 7.11l5.269-17.37c4.556 1.45 7.803 2.52 12.532 3.49-4.291 8.46-6.128 16.03-16.58 16.75-3.864 5.64-3.83 10.6-6.684 16.7-6.764-3.15-11.794-5.09-18.841-7.62-1.718 6.39-3.674 13.05-4.809 19.52l-.695.18c-5.882-2.86-12.25-4.71-18.48-6.73-1.365 5.65-3.021 11.82-3.96 17.5l.034.97-1.697.73-2.379-1.51-15.731-6.8-.147-.38-1.619-.73c-7.685-3.41-9.35-4.15-17.562-6.27l4.065-17.53c-5.807-2.64-11.741-5-17.78-7.06l-.528-.22c-6.534-2.91-10.757-3.07-17.913-7.03l-.768-1.11c1.265-6.6 2.198-11.28 3.925-17.81-5.762-2.49-11.559-4.73-17.363-7.1l.154-.77c.93-5.17 2.868-11.71 4.68-16.67l-1.304-1.7c-6.194-2.52-10.936-3.13-17.733-6.42l-.618-1.14c-.175-.02-17.374-5.76-18.774-6.2-1.24 6-3.013 11.95-4.58 17.9l.716 1.9c-1.57 5.35-4.397 11.24-6.306 17.63l-.87.49c-6.852-2.24-10.744-3.75-17.308-6.73-2.575 5.97-3.387 9-5.076 15.24-1.937-5.57-5.448-12.94-4.114-18.13 3.436-1.57 3.746-.55 8.524.68 1.297-5.87 3.04-12.21 4.544-18.08-7.032-1.32-8.972-1.24-16.034-1.08.711-7.22 2.032-16.9 4.072-23.82l16.992 6.5c1.317-5.68 2.777-11.42 4.169-17.09-5.312-1.68-11.084-3.96-16.357-5.9 2.435-6.81 5.48-13.43 8.405-20.05 4.132 2.12 9.262 4.14 13.596 5.98.906-4.73 5.178-16.75 4.653-19.88-3.165-2.74-5.086-.96-8.931-3.01 1.89-5.09 10.219-11.92 14.412-15.54 5.644 2.51 12.09 5.15 17.835 7.42l.994 2.08 1.581-.47c5.758 1.07 12.556 3.72 18.007 5.9 1.25-5.46 2.442-13.26 4.609-18.18 7.308 2.39 12.303 4.22 19.363 7.23 1.287-4.84 3.638-15.04 6.318-18.76 5.921 1.9 11.808 3.91 17.656 6.02 1.062-6.67 1.787-11.05 2.024-17.82"/><path fill="#da8436" d="M365.217 1701.65c5.822 2.46 13.474 5.33 19.494 7.24-2.111 5.74-4.169 11.73-5.314 17.74-.175-.02-17.374-5.76-18.774-6.2-1.24 6-3.013 11.95-4.58 17.9-.607-.28-1.214-.56-1.821-.83a196 196 0 0 0-17.065-6.35c1.434-6.27 2.946-11.7 4.618-17.89 6.091 2.64 12.374 4.85 18.526 7.41 1.392-6.54 3.027-12.61 4.916-19.02m66.396 66.3c5.411 2.34 8.93 3.9 14.773 5.39 1.308.6 1.873.9 3.106 1.61-1.632 6.2-2.928 12.48-4.162 18.77 5.34 2.5 10.843 4.64 16.471 6.4.579.17 1.158.35 1.736.52-.819 3.17-1.59 6.15-2.267 9.37-.584 2.71-1.087 5.44-1.509 8.18l-1.619-.73c-7.685-3.41-9.35-4.15-17.562-6.27l4.065-17.53c-5.807-2.64-11.741-5-17.78-7.06l-.528-.22c1.08-6.83 2.865-11.9 5.276-18.43m10.187-38.59c5.977 2.87 11.148 4.38 16.93 6.89l1.358.7c-1.673 6.03-3.049 11.97-4.517 18.04 6.593 2.42 12.348 5 19.233 6.9-1.989 6.25-3.638 11.88-5.259 18.24-6.454-2.79-10.798-4.66-17.465-7.04-.5-.61-1-1.21-1.5-1.81 1.949-3.56 3.887-12.03 5.103-16.2-5.942-2.52-11.295-4.44-16.995-6.81l-.809-1.3c.551-2.85 1.189-5.68 1.836-8.5l1.29-5.47zm-23.914 12.68c5.045 1.43 14.127 4.37 18.743 6.47l.183.78c-1.623 5.89-3.032 11.91-4.67 17.82l-18.835-7.69c1.607-5.71 3.273-11.61 4.579-17.38m-56.756-104.6c5.644 2.51 12.09 5.15 17.835 7.42l.994 2.08c-1.561 4.65-3.43 10.58-4.748 15.26-6.076-2.15-12.275-3.93-18.435-5.82.692-2.23 2.872-9.66 3.243-11.88zm104.833 79.85c7.129 3.43 11.048 5.2 18.63 7.59l-4.68 17.71c-7.697-3.49-10.643-4.22-18.064-6.96l-.217-.79c.491-3.47 3.245-13.24 4.331-17.55m62.247 4.46c6.037 2.79 10.885 4.44 16.681 6.87.339.77.386.73.987 1.39-2.454 7.23-2.272 10.32-3.767 17.36-9.346-4.91-9.198-5.06-19.17-8.62 2.146-6.32 3.468-10.64 5.269-17m-52.507-40.85c5.246 2.21 12.223 5.76 17.867 6.38-.252 4.27-2.802 13.85-3.974 18.28-5.451-2.28-10.059-4.33-15.832-5.81l-1.856-.52c1.266-5.93 2.682-12.4 3.795-18.33m-71.581 35.16c6.336 3.37 11.733 5.16 18.387 7.81-1.999 5.5-4.028 11.05-5.755 16.64-4.906-1.57-10.729-3.91-15.71-5.68l-.367-2.18c.15-5.04 2.222-11.57 3.445-16.59"/><path fill="#394c5f" d="M446.386 1773.34c1.636-.89 2.472-1.31 4.194-2.06.5.6 1 1.2 1.5 1.81l-2.588 1.86c-1.233-.71-1.798-1.01-3.106-1.61"/><path fill="#9d643d" d="m400.677 1732.65.367 2.18-1.992 1.06-1.304-1.7z"/><path fill="#3e4a53" d="m475.639 1825.37 4.042-.19.034.97-1.697.73z"/><path fill="#da8436" d="M399.738 1652.55c5.928 2.44 11.932 4.67 17.917 6.97-1.533 6.19-2.832 12.23-4.176 18.44-6.543-2.73-12.199-4.94-18.874-7.29a247 247 0 0 1-4.902 17.86c-2.127.14-12.828-3.95-15.628-4.9l-3.502-1.19c1.886-5.96 3.697-11.99 5.721-17.91 6.022 2.25 11.917 3.8 17.973 6.04 1.375-5.31 3.768-12.73 5.471-18.02m84.998-9.47c7.258 2.32 11.742 4.24 18.598 7.12-.763 2.59-1.479 5.2-2.146 7.82l-.511 1.96c-.706 2.62-1.498 4.98-2.293 7.55-5.87-2.08-10.316-3.46-16.472-4.49l-1.556.18-1.659-2.09.733-.86c1.204-6.4 2.913-11.19 5.306-17.19"/><path fill="#d78537" d="m478.697 1661.13.733-.86c1.31.96 1.356 1.27 2.482 2.77l-1.556.18z"/><path fill="#da8436" d="M389.591 1689.8c5.481 2.15 13.641 5.18 19.245 7.11l-.324 1.2c-1.334 5.07-3.337 11.5-5.005 16.52-5.973-1.79-12.227-4.4-18.115-6.53 1.19-6.46 2.627-11.95 4.199-18.3m72.713-34.53c4.898 1.77 11.951 3.64 16.393 5.86l1.659 2.09c-1.884 5.68-3.56 10.81-4.973 16.64-7.276-2.84-10.841-4.13-18.626-6.17l-.508-.39c1.415-5.26 4.185-12.57 6.055-18.03m-10.128 36.99c6.469 2.15 12.817 4.65 19.277 6.81a134 134 0 0 0-5.36 17.73c-4.927-1.99-8.425-3.27-13.609-4.62l-5.569-1.46c1.969-6.34 3.54-12.09 5.261-18.46m-28.816-50.55a354 354 0 0 0 16.444 5.88l2.596 1.36c-1.759 5.55-3.597 11.93-5.272 17.58-6.429-2.61-12.023-4.56-18.453-6.93.689-2.44 1.478-5.17 2.082-7.62l.976-4c.53-2.2 1.026-4.09 1.627-6.27m46.969 139.81c6.625 3.38 11.42 4.52 18.329 6.89-1.601 6.24-3.21 12.42-5.395 18.49-5.308-1.9-12.832-5.13-18.069-7.55 1.778-5.91 3.371-11.92 5.135-17.83m-56.757-102.67c6.896 2.82 11.916 4.23 18.974 6.25l-.362 1.46c-1.506 5.83-2.738 11.55-3.828 17.46-5.943-2.33-13.205-5.37-19.155-7.82 1.347-5.68 3.271-11.72 4.371-17.35m-61.931-2.19c6.076 1.98 12.657 3.63 18.837 5.31l-.373 1.19a133 133 0 0 0-2.879 10.35l-1.716 7.14c-6.392-3.18-12.186-4.76-18.95-6.69l4.53-15.43zm138.704 30.47c4.175 1.66 14.494 5.94 18.523 5.32l.349.61c-2.14 4.63-3.923 13.11-5.123 18.19-7.277-3.15-11.886-4.91-19.571-7.17 2.134-5.8 3.846-11.18 5.822-16.95m-61.91-2.78.628.3c6.307 3.08 11.126 4.41 17.665 6.52-2.654 6.64-4.171 10.88-5.327 17.85-6.878-2.37-12.021-4.23-19.134-6.36 2.319-6.49 4.076-11.83 6.168-18.31m9.563-37.11a272 272 0 0 0 18.251 6.06l.508.39c-2.332 6.32-3.963 10.67-6.11 17.12-6.205-2.5-11.975-4.46-18.333-6.55 1.909-6.26 3.708-11.03 5.684-17.02m41.724 76.25c7.13 3.89 10.255 4.44 17.878 6.68-.913 4.37-2.475 15.55-3.934 18.75-5.901-3.1-12.188-5.32-18.431-7.62 1.563-5.91 3.269-11.82 4.487-17.81"/><path fill="#da8436" d="m513.409 1696.02.919.25c7.093 1.91 9.735 2.46 16.706 5.43-1.147 6.05-2.662 11.47-4.038 17.45-6.202-2.05-11.686-3.62-17.779-6.09l-.349-.61c.694-6.18 2.408-10.59 4.541-16.43m-19.4 73.35c6.617 3.34 11.502 4.74 18.349 7-1.635 5.93-2.875 12-4.508 17.86-6.032-2.63-10.573-4.88-17.06-6.58l-1.79-.51c1.919-6.06 3.461-11.63 5.009-17.77m-46.535-139.21c6.185 2.27 12.532 3.7 18.57 5.78-1.986 5.26-2.988 12.7-4.067 18.24-5.994-2.24-11.646-4.89-17.837-6.4l-.393-1.57c.849-4.77 2.027-9.46 3.247-14.14zm56.939 102.22c6.257 2.84 11.491 4.68 18.171 6.59-1.925 6.19-3.608 11.86-5.287 18.14-6.105-3.01-12.081-5.27-18.268-7.96 1.879-5.68 3.596-11.07 5.384-16.77m-32.607-112.69c4.287 1.8 11.693 4.86 15.825 6.43-1.053 5.49-2.457 11.37-3.704 16.84-6.026-2.6-12.327-4.58-17.883-7.02 2.26-5.03 3.958-10.96 5.762-16.25"/><path fill="#3e4a53" d="M439.804 1647.59c2.137-.34 2.201-.19 3.943-1.38l.393 1.57-1.74 1.17z"/><path fill="#3e4a53" d="M406.931 1595.71c8.894-2.62 32.762-4.02 41.707-1.92 7.311.31 11.104 1.55 17.957 2.84 9.135 1.72 16.834 6.92 25.075 8.98l.602.87c-2.292.77-2.574.85-4.604 1.94 12.291 7.39 23.76 13.8 30.766 26.64-16.729-12.5-28.728-22.84-49.099-28.8-49.277-14.41-99.302 4.03-129.266 45.34a129.94 129.94 0 0 0-23.563 99.03 125.48 125.48 0 0 0 51.24 82.14c43.458 30.35 107.117 28.67 146.792-6.44 24.685-21.84 36.469-41.97 43.839-74.06l2.2.86c3.696 18.84-18.88 48.38-28.52 62.73-.231 3.74-13.316 15.36-17.026 18.97 7.602-5.07 24.885-22.86 28.317-24.51l-1.044 3.35c-25.698 24.59-46.913 42.52-83.137 47.84-26.702 4.64-48.139.23-73.148-8.58-6.792-2.58-12.283-5.42-18.182-9.61-6.583-2.51-21.281-15.56-26.555-20.58l-1.25-1.17c-2.738-3.25-5.475-6.69-7.801-10.24l-1.318-1.13c-12.581-1.4-33.902 1.62-44.596-.43-7.183-9.57 3.103-22.72.314-36.76-6.668-33.58-12.624-43.63 19.986-60.21.138-2.63.223-1.67-.603-4.2-7.37-1.27-14.713-2.7-22.024-4.28-1.801-.37-3.719-.8-5.504-1.15l-5.001-1.02c-27.496-5.55-29.065-17.72-19.823-40.16 2.175-5.27-.023-15.14 3.211-19.58 6.775-9.32 24.934-9.55 35.124-15.26 1.886-1.09 16.075.77 19.19.91 12.804.54 23.615-2.35 36.135 0l2.092-1.8c-2.382-3.29-3.41-5.41-5.333-8.97 2.996-7.16 4.385-10.49 6.347-17.98 15.479-7.02 19.64-3.57 36.077-4.11 9.978-.33 9.637-5.23 20.426.51"/><path fill="#394c5f" d="M306.014 1708.6c-7.37-1.27-14.713-2.7-22.024-4.28-1.801-.37-3.719-.8-5.504-1.15l-5.001-1.02c-27.496-5.55-29.065-17.72-19.823-40.16 2.175-5.27-.023-15.14 3.211-19.58 6.775-9.32 24.934-9.55 35.124-15.26 1.886-1.09 16.075.77 19.19.91 12.804.54 23.615-2.35 36.135 0-4.538 5.35-9.879 10.64-13.96 16.28-12.215 16.91-21.882 36.49-25.471 57.16-.468 2.69-.708 4.69-1.877 7.1m24.899 101.6c-12.581-1.4-33.902 1.62-44.596-.43-7.183-9.57 3.103-22.72.314-36.76-6.668-33.58-12.624-43.63 19.986-60.21.598 7.08-.419 13.59-.491 20.7-.209 20.72 5.919 40.85 15.231 59.2 2.156 4.25 8.725 13.46 9.556 17.5"/><path fill="#da8436" d="m349.414 1626.26.956.07 2.264 4.36a136.48 136.48 0 0 0-41.739 97.23c-.425 32.85 11.164 59.67 29.865 86.01-2.974-1.42-3.63-2.53-7.028-2.53l-1.501-.07-1.318-1.13c-.831-4.04-7.4-13.25-9.556-17.5-9.312-18.35-15.44-38.48-15.231-59.2.072-7.11 1.089-13.62.491-20.7.138-2.63.223-1.67-.603-4.2 1.169-2.41 1.409-4.41 1.877-7.1 3.589-20.67 13.256-40.25 25.471-57.16 4.081-5.64 9.422-10.93 13.96-16.28z"/><path fill="#394c5f" d="M350.428 1599.31c15.479-7.02 19.64-3.57 36.077-4.11 9.978-.33 9.637-5.23 20.426.51-3.331 1.34-4.089 1.53-7.393 2.48-21.007 6.05-32.776 15.61-49.168 28.14l-.956-.07c-2.382-3.29-3.41-5.41-5.333-8.97 2.996-7.16 4.385-10.49 6.347-17.98"/><path fill="#d78537" d="M532.057 1815.86c-.231 3.74-13.316 15.36-17.026 18.97 7.602-5.07 24.885-22.86 28.317-24.51l-1.044 3.35c-25.698 24.59-46.913 42.52-83.137 47.84-26.702 4.64-48.139.23-73.148-8.58l.834-4.37c14.243 4.96 23.255 7.37 38.504 8.39 3.645.24 17.965.63 21.057 1.18 25.534-2.06 45.494-9.17 66.586-24.76 5.747-4.25 12.096-11.83 17.787-16.48zm-125.126-220.15c8.894-2.62 32.762-4.02 41.707-1.92 3.491 1.95 11.249 2.7 7.656 4.54-39.269-1.84-72.119 2.81-102.303 31.07l-1.357 1.29-2.264-4.36c16.392-12.53 28.161-22.09 49.168-28.14 3.304-.95 4.062-1.14 7.393-2.48m-66.899 225.86 5.189-2.23c8.235 9.23 14.887 13.06 24.413 20.15-.797-.02-3.447-.34-4.145.03-.037.11-.073.22-.109.32 1.382 2.17 1.983.51 2.457 3.48-6.583-2.51-21.281-15.56-26.555-20.58z"/><path fill="#da8436" d="M448.638 1593.79c7.311.31 11.104 1.55 17.957 2.84 9.135 1.72 16.834 6.92 25.075 8.98l.602.87c-2.292.77-2.574.85-4.604 1.94-9.379-3.92-17.39-7.82-27.696-9.31-1.818-.26-2.047-.11-3.678-.78 3.593-1.84-4.165-2.59-7.656-4.54m-80.801 249.53c-.474-2.97-1.075-1.31-2.457-3.48.036-.1.072-.21.109-.32.698-.37 3.348-.05 4.145-.03.882.35 15.534 8.11 17.219 9.07l-.834 4.37c-6.792-2.58-12.283-5.42-18.182-9.61m-35.606-31.99 1.501.07c3.398 0 4.054 1.11 7.028 2.53 1.585 1.82 3.019 3.46 4.461 5.41l-5.189 2.23c-2.738-3.25-5.475-6.69-7.801-10.24"/><path fill="#394c5f" d="M360.623 1720.43c1.4.44 18.599 6.18 18.774 6.2l.618 1.14c6.797 3.29 11.539 3.9 17.733 6.42l1.304 1.7c-1.812 4.96-3.75 11.5-4.68 16.67l-.154.77c5.804 2.37 11.601 4.61 17.363 7.1-1.727 6.53-2.66 11.21-3.925 17.81l.768 1.11c7.156 3.96 11.379 4.12 17.913 7.03l.528.22a195 195 0 0 1 17.78 7.06l-4.065 17.53c8.212 2.12 9.877 2.86 17.562 6.27l1.619.73.147.38c-2.33 5.73-3.228 11.2-4.513 17.25-5.781-1.63-13.338-3.54-18.869-5.47 1.078-6.62 2.047-11.78 3.605-18.3-6.411-2.24-11.988-4.2-18.222-6.89-1.366 6.03-2.753 12.83-4.334 18.73-5.444-1.93-14.16-4.77-19.135-7.09-1.617 5.32-4.16 12.84-5.416 18.07l.024 2.42c-7.665-3.54-11.944-5.96-18.761-10.8l4.129-16.88c-7.661-2.65-11.294-4.19-18.552-7.81l-2.31 12.72c-11.836-9.77-22.735-29.5-28.249-43.72l16.62 5.25c.924-5.98 2.332-11.79 3.658-17.7l.87-.49c1.909-6.39 4.736-12.28 6.306-17.63l-.716-1.9c1.567-5.95 3.34-11.9 4.58-17.9"/><path fill="#da8436" d="M369.738 1763.79c6.476 2.9 11.846 4.97 18.161 7.7l.73.31-4.669 18.18c-6.553-3.29-12.34-5.35-19.115-8.03-1.435 6.42-3.276 12.49-4.635 18.71-5.066.18-13.599-5.34-17.942-7.97l1.233-3.68c1.364-4.1 2.354-8.01 3.357-12.19 5.947 2.59 11.625 4.31 17.853 6.07 2.12-6.57 3.414-12.49 5.027-19.1m13.782 26.61c5.29 2.25 10.834 4.65 16.476 5.69.672.59 1.344 1.19 2.016 1.79-1.339 5.77-2.318 12-3.53 17.88a507 507 0 0 0-18.355-7.4c1.199-5.72 2.358-12.19 3.393-17.96m-3.505-62.63c6.797 3.29 11.539 3.9 17.733 6.42l1.304 1.7c-1.812 4.96-3.75 11.5-4.68 16.67-5.792-3.13-13.024-5.57-19.377-7.42 1.69-5.6 3.182-11.91 5.02-17.37m28.409 51.58c7.156 3.96 11.379 4.12 17.913 7.03l.528.22c-2.012 5.85-2.991 12.29-4.66 18.36-5.378-1.94-11.78-5.17-17.171-6.64q-.482-1.425-.935-2.85c2.376-5.48 3.4-10.23 4.325-16.12"/><path fill="#da8436" d="M356.759 1740.23c5.735 1.88 11.448 3.8 17.232 5.52a182 182 0 0 0-3.179 13.24l-.771 3.39-.303 1.41c-6.461-1.95-12.809-4.01-19.285-5.93 1.909-6.39 4.736-12.28 6.306-17.63m37.459 13.1c5.804 2.37 11.601 4.61 17.363 7.1-1.727 6.53-2.66 11.21-3.925 17.81l-1.352-.63c-6.536-3.14-11.282-4.43-18.086-6.74 2.015-5.74 3.958-11.91 6-17.54"/><path fill="#394c5f" d="M399.996 1796.09c1.591-.31 2.467-.51 4.103-.62q.453 1.425.935 2.85l-3.022-.44c-.672-.6-1.344-1.2-2.016-1.79m143.352 14.23c8.585-7 19.733-38.9 23.176-49.77 20.899 26.6 32.422 32.2 54.12 53.08-1.344.32-2.17.5-3.446.9-13.606.87-62.839 1.67-74.894-.86zM361.13 1637.44c11.075-11.89 28.198-21.17 43.888-25.2 3.109 9.4 2.353 11.87-.862 21.95-2.167 4.92-3.359 12.72-4.609 18.18-5.451-2.18-12.249-4.83-18.007-5.9l-1.581.47-.994-2.08c-5.745-2.27-12.191-4.91-17.835-7.42"/><path fill="#da8436" d="M381.377 1643.55c.412-6.31 2.125-9.96 2.284-17.43 6.714 2.78 14.137 5.26 20.495 8.07-2.167 4.92-3.359 12.72-4.609 18.18-5.451-2.18-12.249-4.83-18.007-5.9l-1.581.47-.994-2.08z"/><path fill="#9d643d" d="m381.377 1643.55.163 2.92-1.581.47-.994-2.08z"/><path fill="#394c5f" d="M417.054 1823.73c7.914 2.79 11.908 4.37 19.579 7.51l-.659 1.73c-2.539 6.44-2.274 8.78-3.419 14.89l-14.063-2.57c-2.09-.37-4.839-.55-7.006-.75l2.928-1.69c1.349-5.05 1.664-13.4 2.64-19.12m74.616-218.12c6.641-3.24 14.908-6.16 22.197-7.34.532 7.46.678 16.3 1.13 24.12-7.591-6.82-13.367-11.42-22.725-15.91zm54.208 124.4c5.063 5.93 6.958 13.08 11.593 19.58l-5.323.81c-3.372-.92-6.712-1.96-10.037-3.03 1.495-7.04 1.313-10.13 3.767-17.36m-67.86 96.87 1.697-.73c4.849 2.86 8.994 4.28 14.055 6.52-5.444 2.6-11.14 5.57-16.686 8.26.552-5.11.774-8.92.934-14.05m24.798-12.65.767.29c3.91 1.53 7.635 2.38 11.687 3.41-6.391 5.2-9.634 7.12-16.72 11.4 1.819-5.39 3.13-9.22 3.571-14.92z"/><path fill="#3e4a53" d="M393.024 1834.87c7.366 3.35 13.519 5.8 21.39 7.98l-2.928 1.69c-7.295-2.8-11.009-3.16-18.438-7.25z"/><path fill="#d78537" d="M557.471 1749.59c1.491 1.32 1.835 1.91 3.106 3.54l-2.2-.86c-1.492-.81-2.635-1.16-4.308-1.47l-1.921-.4z"/><path fill="#394c5f" d="M406.203 1612.57c7.645-3.44 18.507-4.25 26.834-4.69-1.136 4.45-2.372 9.5-3.061 13.99-5.979-.06-19.855-3.74-23.773-9.3"/><path fill="#3e4a53" d="M455.032 1836.2c4.954 2.01 10.649 4.2 15.48 6.28-.272.48-2.174 1.37-2.698 1.63-5.713 1.31-8.969 1.82-14.645 2.67.583-3.53 1.167-7.07 1.863-10.58"/><path fill="#394c5f" d="M398.681 1464.43c4.892.09 9.782.28 14.667.56 19.784 1.1 56.931 3.9 72.208 17.54 6.739 6.01 2.405 31.94 3.519 41.1 2.792 15.53 6.029 24.12 4.927 40.32-2.253 33.14-39.189 19.21-60.497 21.21-13.076 1.23-27.306-.21-40.541.06-13.901.27-21.984 1.16-36.717-.13-21.022-1.25-38.699 3.3-59.254-1.21-6.689-1.47-19.335-.31-25.089-4-3.42-8.37-10.479-43.55-13.511-52.86-3.127-9.6 13.357-46.7 19.975-54.12 2.569-2.89 6.881-6.56 11.38-6.27 11.205-1.43 27.816 5.23 38.068 4.82 14.917-.61 32.36-1.77 47.208-3.49 8.098-.93 14.649-2.78 23.657-3.53m1218.919-7.27c16.94-2.21 35.31 3.97 51.45 6.5 10.81 1.7 27.78-3.24 37.98-1.78 27.57 3.96 38.77 17.22 67.22 2.85 16.81-8.49 37.07 11.34 49.83 19.32 23.7 14.82 14.33 19.46 10.77 42.47-.6 18.46 14.53 22.35 2.18 45.54-12.76 18.11-31.16 8.89-49.59 7.27-12.99-1.15-26.44.21-39.34-.43-19.37-.98-38.48-2.58-57.94-1.85-8.57-.66-22.24 2.95-30.37 1.69-9.28-1.44-39.85-3.25-42.96-13.04-3.35-10.56-6.63-24.85-7.98-36.12-.89-7.36 5.68-21.29 6.18-29.12 1.74-11.58-1.2-34.4 2.57-43.3M191.382 1702.57c16.215-1.69 39.036 1.59 54.713 2.92 29.403 2.5 22.16 21.14 23.375 41.18.47 7.77 10.153 23.13 10.417 32.3.245 8.53 2.369 23.64-2.9 31.19-13.505 9.27-41.668 4.48-56.487 4.86-24.643.64-47.971.65-71.95.5-19.896-.44-41.354 2.48-60.892-.97-27.52-4.85-23.39-27.74-18.37-47.86-3.788-11.54-10.2-29.55-4.281-40.78 4.733-8.98 28.658-17.74 38.221-18.55 9.593-.81 20.128-.18 29.756-.83l57.221-3.88zm1468.878-363.34c6.16-.18 13.41 1.63 19.71 2.34 15.27 1.73 31.2 1.27 45.65 7.22 4.13 1.7 6.14 4.55 7.49 8.78 1.95 6.12 3.21 12.5 5.04 18.79 6.32 21.77 11.37 37.49.6 59.36-10.41 21.14-31.27 6.84-49.69 7.6-13.76.56-22.11 3.39-35.09 7.58-5.28.6-14.03.45-19.4.09-11.75-.78-45.13 4.18-52.7-3.46-5.44-5.51-14.91-33.76-14.45-40.63 1.62-23.85 59.56-11.45 75.92-19.79 14.9-7.24 3.97-36.26 16.92-47.88m-383.18-31.25c-.31-10.18 8.99-43.87 16.19-49.83 9.66-8 65.41-3.42 80.66-2.46 6.25-.15 18.27 12.61 22.82 13.15 18.76 2.24 36.36 3.92 54.8 7.92 24.61 5.34 25.97 7.96 21.38 33.54-2.57 14.34-10.84 12.11-23.25 13.63-21.45.41-45.63 3.43-66.98 2.14-5.7-1.42-12.1-3.44-17.75-5.2-29.1-9.05-57.64-11.78-87.87-12.89m-806.318 34.68c21.044-6.15 42.391-3.61 63.927-3.7 26.076-.12 54.155-2.46 80.08-1.19 13.437.66 40.408 5.93 53.459 9.53-14.211 8.14-23.962 14.08-37.345 23.98-6.921 5.12-20.322 16.35-26.744 20.31-3.703.48-7.417.87-11.138 1.18-25.622 1.95-50.611-.25-74.726-7.64-6.981-2.14-28.968 3.27-35.249-4.06-8.439-9.86-11.871-26.03-12.264-38.41m1275.398 372.23c44.48-.32 89.51-.65 134.01-4.57 17.21-1.51 18.58 3.87 18.62 20.11-.14 30-6.51 36.73-35.78 35.52-5.17-.21-16.15 4.59-22.06 4.53-29.2-.34-69.58-8.39-97.56-15.83 1.81-13.87 2.9-25.77 2.77-39.76M467.472 1391.06c14.939-.6 46.738 2.49 60.66 7.64 2.157.8 17.514 43.74 18.604 48.14-5.857 24.18-23.261 20.27-43.799 18.04-25.87-2.85-45.581 6.27-70.609-5.41-4.488-6.13-6.574-10.53-9.873-17.27 3.313-4.94 5.941-13.6 9.064-16.99 6.439-6.98 15.371-12.83 22.374-19.56 4.918-4.73 8.483-10.37 13.579-14.59m-95.344-53.02c8.754-1.32 60.831 2.69 72.094 3.97 9.724 1.1 11.524 8.49 16.748 16.72.251 10.4-1.667 28.72-7.391 37.69-4.593 7.2-9.219 8.29-17.029 9.88-20.142 1.78-40.896 7.55-60.913 8.84-18.307 1.18-18.996-16.1-19.455-29.3-.331-9.5-1.13-18.13-.888-27.69 5.324-7.9 9.254-14.28 16.834-20.11m1507.392 431.34c14.55-.19 39.92-1.41 53.04-.42 19.78 1.49 16.51 8.97 41.22 7.3 5.95 7.3 10.37 15.97 13.58 24.79-1.04 4.3-2.4 7.93-3.86 12.08-23.59-.47-41.04 3.86-61.91 3.6-24.62-.89-46.8-2.89-71.34-5.74-7.73-.89-20.19 1.42-27.11.53-2.78-.33-5.42-1.42-7.62-3.14-2.88-2.21-3.27-3.13-3.55-6.11 3.67-5.28 13.32-5.09 19.37-6.91 4.9-1.47 8.11-9.74 10.42-14.35 14.23-6.99 22.16-10.28 37.76-11.63M218.126 1635.23c5.984-.26 15.23.95 20.357 4.23 4.446 2.84 7.5 7.42 8.425 12.62 1.931 10.66-4.637 24.88-10.474 33.6-10.68 15.95-33.964 8.88-49.786 8.2-3.245-.14-10.81 1.15-14.406 1.74-4.322.49-11.577 1.37-15.717-.4-15.305-6.54-20.253-31.41-13.419-45.27 1.715-3.48 6.797-8.17 10.84-8.64 21.766-2.55 42.839-.31 64.18-6.08"/><path fill="#394c5f" d="M1419.09 1219.43c7.86-.15 47.03-.84 51.52 1.24a9.72 9.72 0 0 1 5.18 5.87c1.62 5.19 6.49 13.87 6.96 17.48 4.03 30.95-13.23 29.08-31.55 27.41-11.16-1.34-17.46.04-29.21-4.11-5.5-1.95-19.18.34-25.84-3.83-7.08-4.43-12.74-27.65-7.47-34.78 7.4-8.07 20.17-8.66 30.41-9.28m18.93 115.43c13.96-.48 25.23 2.74 39.47 3.72 16.48 1.13 45.07-11.59 59.65-1.95 8.39 5.54-.81 24.64-3.75 31.32-1.57 3.58-.78 11.55-5.28 14.19-16.02 8.58-40.66-.26-57.29-.44-.64-.12-1.27-.23-1.9-.35-6.73-8.02-33.64-24.96-39.27-30.95 2.58-5.59 4.63-10.63 8.37-15.54m134.27 2.54c10.14-1.72 23.29-.08 33.71.49 7.28 1.11 28.45-4.09 30.96 6.09 7.18 29.06 8.54 34.79-23.96 34.4l-49 2.88c-3.75.22-19.87.25-18.88-7.27 4.56-34.8-7.33-32.87 27.17-36.59m357.7 375.99c13.65-.88 44.13-2.41 44.89 17.1-.2 5.44 4.05 13.96 3.28 19.01-2.64 17.42-6.8 19.25-21.84 17.97-8.5-.98-16.31-3.07-24.83-4.29-6.97-.67-20.05.65-24.22-6.8-5.39-10.1-1.06-19.12 1.09-28.24 3.27-13.9 5.71-13.35 21.63-14.75m-188.77 52.58c16.7 1.36 37.6.71 53.4 5.77.8 3.78 1.53 10.6 2.4 13.76 1.73 6.22 4.9 6.48 5.68 13.99 1.59 15.21.12 17.66-15.2 15.66-11.89-1.55-26.72-2.61-39-2-11.82.78-19.97 2.13-32.27 1.69.6-3.2 6.77-10.64 9.1-14.59 4.3-7.18 8.09-14.65 11.35-22.35 1.37-3.31 3.15-9.4 4.54-11.93M186.753 1595.41c16.057-3.04 21.306 3.63 17.346 17.6-.854 3.01-.888 13.76-2.564 15.66-5.026 5.66-22.579 4.53-29.534 4.5-1.161-.02-11.575 2.93-12.351 3.15-7.849 1.39-11.735 2.52-17.297-4.62-4.929-6.34-.536-25.2 3.247-30.51 5.721-8.02 25.924-2.27 34.403-5.1.307-.11 5.836-.58 6.75-.68m48.49-3.01c11.551.61 21.505.66 32.985.92 8.6 6.1 9.18 7.55 8.835 18.69-.212 6.84-3.963 15.99-11.416 17.47-4.363.86-9.857.9-14.546 1.49-11.451.47-38.274 6.52-39.402-10.46-1.389-20.92 5.197-25.99 23.544-28.11m152.117-147.83c-6.834.69-12.686.13-19.752.42-12.562.53-23.608-4.14-16.394-18.38 7.489-12.48 21.175-5.27 32.791-5.88 9.802-.52 27.401-7.21 36.403-2.63 6.567 3.35-.274 25.36-8.391 24.99-5.977-.26-10.98-.44-17.349.8l-.909 2.49-3.612-.87c-1.032-.4-1.722-.64-2.787-.94"/><path fill="#9ea6b1" d="M387.36 1444.57c3.034-.82 4.116-.62 7.308-.68l-.909 2.49-3.612-.87c-1.032-.4-1.722-.64-2.787-.94"/><path fill="#394c5f" d="M302.626 1595.3c7.464-.17 15.028.02 22.469-.09 27.184-.43 20.295 15.88-.394 22.56-12.138 1.04-49.072 6.82-38.593-15.17 1.824-3.82 12.782-6.58 16.518-7.3m1066.604-369.89c3.12-.53 11.44-.06 11.56 4.05.62 19.36-23.53 18.97-35.55 20.21-13.7 1.08-14.64-5.4-9.77-16.91 3.46-8.16 26.55-6.52 33.76-7.35m185.81 163.95c15.55 16.19 2.5 17.08-12.32 18.8-6.57-.35-8.43-.58-15.04-1.7-19.34-18.54 18.28-15.99 27.36-17.1m-1009.091 5.83c18.101-1.11 17.274-.21 16.403 18.36-3.096 3.61-5.332 5.93-8.789 9.14-9.104 1.99-12.823 1.24-14.406-9.2-1.736-11.46-4.124-13.39 6.792-18.3m752.771-164.34c8.09.25 46.51 3.63 18.46 14.21-7.05 1.78-10.6 1.75-17.7 1.69-3.88-2.2-6.56-3.84-10.26-6.38 3.13-3.29 6.27-6.34 9.5-9.52m-908.573 214.66 3.612.87c3.385-.3 24.595-.12 25.945 3.92 5.505 16.47-39.541 10.56-29.557-4.79m1423.563 331.52c1.43-.02 20.94-.22 21.32-.08.91.34 1.6 1.08 1.88 2.01.92 3.01-.94 6.82-2.42 9.32l-.96 1.69c-7.39.16-30.13-.56-19.82-12.94"/><metadata><recraft-signature>{&quot;signed_by&quot;: &quot;recraft&quot;, &quot;signature_b64&quot;: &quot;T04PTEb5NWMmTRk6Q9dKBr8kvWY7tf2wP+2y4s0AejJwbG24ZADWjirtyXn6qETz0gyto9rLZs/jc1axNaSIAA==&quot;, &quot;signing_algo&quot;: &quot;Ed25519&quot;, &quot;generation_timestamp&quot;: 1777253917, &quot;identifier&quot;: &quot;75a26ef9-fb85-4b0f-8418-e1c68c5295b0&quot;}</recraft-signature></metadata></svg>