<svg xmlns="http://www.w3.org/2000/svg" width="1024" height="1024" preserveAspectRatio="none" style="display:block" viewBox="0 0 2048 2048"><path fill="#38454e" d="M1032.04 767.847c-.6-23.222 8.51-59.893 13.78-82.741 10.95-47.414 51.96-113.274 110.26-96.875a71.52 71.52 0 0 1 43.22 34.379c13.92 24.864 12.35 58.894 4.96 85.483 2.62-.102 4.4-.469 6.96-.764 35.71-11.244 82.52-15.383 117.34 1.493 14.25 6.903 26.93 19.966 31.69 35.27 11 35.324-14.02 62.013-38.3 83.494 18.6 6.988 39.55 14.039 58.02 23.78 29.51 15.556 78.63 50.735 66.26 90.731-3.67 11.86-20.6 24.724-32.73 28.847 1.29 2.24 2.58 3.825 3.08 6.388 2.63 2.949 4 4.836 6.03 8.163 18.63 24.905 45.95 61.665 62.65 87.645-139.92-42.38-358.65-121.626-449.83 43.64-16.45-.02-36.025.42-52.19-.34-6.835-11.02-15.272-26.07-23.582-35.79-77.822-90.978-218.202-45.46-314.539-22.09l3.429 2.08c81.443-15.87 213.776-40.29 285.536 8.59 14.251 9.71 24.297 22.09 35.43 35.04l-2.712 1.67-5.828-3.92c-3.676-2.25-6.53-4.3-9.938-6.91-83.577-55.55-254.18-20.19-348.084-6.77l3.726 2.18c23.755-3.28 49.425-5.23 73.375-7.2 84.907-7.01 175.154-14.1 255.875 18.94 5.758 2.35 17.409 8.7 22.446 9.79 4.641 4.69-.475 3.11-4.69 2.93-133.285-3.14-272.606-.67-406.376-.72l.771-28.73c17.985-26.91 40.178-56.63 59.019-83.63l1.243 2.43c-11.362 24.62-26.037 48.43-36.754 71.69 94.382-28.67 183.97-89.498 287.415-70.48 29.574 5.44 50.921 11.98 76.55 27.86l-.15-3.04c-74.215-52.204-163.468-45.19-249.148-38.786-26.46 1.978-91.879 7.576-103-24.049-20.178-57.383 58.039-93.426 99.002-110.898-37.231-36.023-36.699-83.159 10.935-110.953 35.051-20.451 83.612-20.389 122.277-10.101-37.435 2.056-92.447 7.93-106.91 51.064-21.272 63.443 69.179 84.337 112.231 101.778 71.92 29.136 132.271 64.098 167.28 137.735l2.376.45c-17.43-76.887-60.775-148.181-110.408-208.164-40.449-48.883-118.074-142.547-60.066-205.068a59.4 59.4 0 0 1 42.449-19.419c49.345-1.075 90.902 54.634 106.186 95.669 30.07 80.736 44.644 179.423 46.744 264.636 3.28 4.32-1.67 61.446 2.19 68.756 10.48-31.259 23.81-67.173 39.62-96.09 18.87-34.531 39.55-68.495 57.98-103.47 21.55-39.999 42.37-71.221 54.48-116.007 12.77-47.238-21.62-122.766-77.76-82.964-35.07 24.86-50.97 100.122-57.34 143.697z"/><path fill="#fff" d="M1203.21 711.274c.42-1.163.7-1.984 1.05-3.181 2.62-.102 4.4-.469 6.96-.764 3.3 1.737 6.21 1.292 10.01 1.783 35.44.712 92.27 8.155 89.81 55.356-2.56 49.043-66.39 76.381-102.03 98.498-62.89 39.015-129.01 90.539-168.82 153.584l-1.33-2.78c32.99-65.766 73.33-128.537 111.04-191.62 21.8-36.47 41.98-69.422 53.31-110.876"/><path fill="#5c6269" d="M1203.21 711.274c.42-1.163.7-1.984 1.05-3.181 2.62-.102 4.4-.469 6.96-.764 3.3 1.737 6.21 1.292 10.01 1.783-4.32.664-13.14 1.611-18.02 2.162"/><path fill="#fff" d="m1411.83 971.586 1.67-.642c1.29 2.24 2.58 3.825 3.08 6.388 2.63 2.949 4 4.836 6.03 8.163l-1.08 1.908c8.46 14.347 27.17 49.577 34.32 64.697-109.55-39.15-231.79-85.774-345.31-31.75-11.8 5.62-25.19 13.42-35 22.09l-1.99-1.83a235.2 235.2 0 0 1 74.17-46.882c40.82-16.021 103.83-22.469 147.77-19.752 41.17 2.545 75.65 9.789 116.34-2.39"/><path fill="#5c6269" d="M1416.58 977.332c2.63 2.949 4 4.836 6.03 8.163l-1.08 1.908a64 64 0 0 1-4.95-10.071"/><path fill="#bdbfc2" d="m1411.83 971.586 1.67-.642c1.29 2.24 2.58 3.825 3.08 6.388-2.37-1.197-3.04-3.257-4.75-5.746"/><path fill="#fff" d="M634.358 1072.27c71.475-13.38 173.431-35.16 243.428-19.67a170.2 170.2 0 0 1 58.387 25.09c2.165 1.47 4.291 2.99 6.375 4.57l-2.908 2.54c-74.611-40.6-177.034-24.89-258.072-16.12-14.834 1.6-31.534 3.1-46.122 5.83z"/><path fill="#d4d6d7" d="M942.548 1082.26c4.926 3.79 15.959 13.56 20.144 17.95l-1.718 1.81c-3.676-2.25-6.53-4.3-9.938-6.91l1.628-1.05c-3.976-3.36-8.822-6.18-13.024-9.26z"/><path fill="#5c6269" d="M952.664 1094.06c4.539 3.31 4.771 4.12 10.028 6.15l-1.718 1.81c-3.676-2.25-6.53-4.3-9.938-6.91z"/><path fill="#d4d6d7" d="M1015.35 954.254c3.28 4.32-1.67 61.446 2.19 68.756-.28 1.3-.53 2.61-.77 3.92l-2.03-.49c2-22.07-.37-49.929.61-72.186"/><path fill="#a1a5a8" d="M635.446 1074.51c-8.606 1.62-24.806 4.64-33.183 5.17l-.391-.28-.065.03c1.375-2.04 23.183-5.9 27.2-6.48 1.778-.27 3.562-.5 5.351-.68zm-28.768 16.01c-6.474 1.05-19.57 1-26.669 2.28-.907.16-7.082 1.04-7.224.44.235-.52.291-.43 1.156-.74l1.577-.56c2.954-1.08 2.987-.62 5.973-1.12a231 231 0 0 1 21.461-2.48z"/><path fill="#bdbfc2" d="M1056.06 1060.88c4.79-6.88 10.85-15.13 17.49-20.27l1.99 1.83c-6.56 5.97-13.18 12.93-19.48 18.44m-17.2-47.11 1.33 2.78c-2.42 4.67-8.08 15.97-11.15 19.55l-1.19 1.46c3.17-7.59 6.95-16.69 11.01-23.79"/><path fill="#a1a5a8" d="M648.548 1060.64c-1.705.3-20.764 2.82-21.082 2.64l-.043-.25c1.047-1.26 15.827-4.26 17.696-4.47z"/><path fill="#808389" d="M990.445 1026.6c1.19 2.29 4.937 14.67 4.028 16.66-.706-.63-5.856-15.19-6.404-17.11z"/><path fill="#bdbfc2" d="M935.402 1030.36c6.62 4.88 9.23 7.78 14.706 13.51-2.899-1.89-5.294-3.75-8.093-5.71l-3.898-2.69c-1.087-.73-1.581-1.19-2.565-2.07z"/><path fill="#808389" d="m1014.74 1026.44 2.03.49c-.35 1.63-1.36 8.55-3.07 9.26l-.15-.17c-.23-1.62-.24-.92-.12-2.1l.02.44c.41-2.87.55-5.1 1.29-7.92"/><path fill="#38454e" d="M953.684 1114.98c1.738-1.52 2.59-1.82 4.69-2.93 4.641 4.69-.475 3.11-4.69 2.93"/><path fill="#fff" d="M1000.41 987.289a324.6 324.6 0 0 0-40.715-101.522c-32.25-51.865-118.422-138.671-125.045-196.584-1.677-14.66.465-31.421 10.241-43.048 6.351-7.554 15.431-11.673 25.184-12.45 20.854-1.663 41.924 8.586 57.191 22.117a120.1 120.1 0 0 1 25.414 31.883c36.725 67.538 45.341 210.308 49.66 289.524-.88 5.746 1.71 5.323-1.93 10.08M682.841 857.358c28.267 25.695 57.487 34.234 92.457 46.93 79.818 28.979 147.363 56.593 195.421 130.652l-2.599 1.3c-13.364-16.69-40.47-36.548-59.63-45.692-44.556-21.266-95.233-28.973-144.308-28.149-20.704.348-41.473.741-62.183.997-22.695-.106-56.795 1.584-71.568-19.524-10.255-14.651.102-37.929 9.702-50.526 12.264-16.095 25.853-25.712 42.708-35.988m637.659-28.395c29 15.951 96.77 52.381 73.98 93.023-17.28 30.838-78.09 20.396-106.67 20.413-73.36.046-148.22 14.319-204.34 64.961l-1.97-1.84c14.88-15.086 30.79-30.766 47.52-43.791 63.79-49.655 129.21-79.987 191.48-132.766M582.307 1102.29c15.943-2.12 32.095-3.27 48.104-5.2 85.108-10.26 168.489-22.31 253.661-7.61l-3.179 2.61c-42.634 1.45-88.316 5.86-131.198 8.37a2891 2891 0 0 1-127.665 3.67l-2.017.3c-3.573.49-47.227.74-48.337-.13.449-2.07 8.808-1.87 10.631-2.01"/><path fill="#a1a5a8" d="m622.03 1104.13-2.017.3c-3.573.49-47.227.74-48.337-.13.449-2.07 8.808-1.87 10.631-2.01.457 2.97 34.272 1.5 39.723 1.84"/><path fill="#bdbfc2" d="m1081.5 1005.52 1.97 1.84c-5.28 5.69-19.39 20.38-24.71 24.5 6.18-7.92 15.29-19.72 22.74-26.34m-79.16-28.311c1.34 2.97 1.21 23.931 1.07 28.151-.66-4.17-2.71-14.552-3-18.071 3.64-4.757 1.05-4.334 1.93-10.08m-31.621 57.731c1.69 1.75 9.03 12.92 7.577 14.84l-.586.07c-.934-1.12.18-1.59-1.345-2.55-.665-.42-1.617-.29-1.995-.77l.185.17c-1.047-5.81-2.687-5.46-6.435-10.46zm-86.647 54.54c1.809.01 3.571.28 5.376.34l.752 1.18 1.054-.54.071.12h.091c.086 1.71-9.206 1.5-10.523 1.51z"/><path fill="#38454e" d="M1255.16 1064.79c-.64 1.59-.77 1.74-1.73 3.15-5.46 16.94-11.87 60.7-15.57 80.73-3.64 19.68-11.23 55.17-13.26 74.04l1.93.71c2.56-14.54 26.06-128.81 29.7-134.16 1.13 1.84 2.58 4.49 3.79 6.16l11.99 19.54 3.83-1.16c.94 1.85 1.09 2.21 1.85 4.13 3.21 6.04 7.78 11.68 11.01 17.94l.95.84c1.6 2.06 2.3 3.66 5.35 3.91 10.55.86 22.34.59 32.95.62l69.13.04c9.12-.03 19.88-1.19 28.74.38 4.18.75 7.89 2.94 10.43 6.36 3.52 4.74 4.58 11.03 3.62 16.79-.84 5.08-3.43 10.1-7.91 12.88-8.6 5.34-56.43 2.81-69.95 3.67-13.23.84-27.09 2.32-40.05 5.22l10.33 17.54c34.19 3.37 62.21 15.16 84.56 42.27 20.75 24.89 30.77 57 27.85 89.27a114.12 114.12 0 0 1-41.33 76.41c-7.99 6.4-19.2 13.41-28.59 17.62 18.42 1.97 43.26 1.99 60.49 5.5l-1.8 1.98c-3.7-.43-9.89.47-13.84.81-39.51 3.39-79.22 4.58-118.85 6.23-87.7 3.1-175.43 4.84-263.18 5.21-41.006.55-80.078-.61-120.966-1.16a6589 6589 0 0 1-178.372-3.95c-43.617-1.82-87.318-3.01-130.84-6.31-13.009-.99-25.789-1.1-38.833-1.21-35.632 1.45-80.897.2-117.211.2l-195.962-.2c21.223-6.17 131.273 3.57 141.38-2.47l2.299.01c9.712-1.05 16.777-2.97 27.472-3.68l.143-22.99 14.712-.51-.297-84.53c-.053-10.78-.753-35.3.572-45.07l-.651-2.39c-5.381-.15-10.967-.72-16.349-1.17 10.667-4.73 18.156-7.7 27.683-14.44 5.816-1.12 85.535-1.32 92.568.02 5.866 6.5 18.902 10.38 27.337 14.34-6.285.62-12.579 1.17-18.879 1.63 1.298 8.53.702 54.39.692 64.65-.008 9.8.691 60-.555 67.83 4.514.15 10.099.18 14.503.64l.255 22.27c16.026 1.82 29.097 3.53 45.323 1.92 20.497-2.04 41.817-1.73 62.301-3.61-31.704-13.24-54.878-32.33-68.375-64.9a115.77 115.77 0 0 1 .115-89.46 115.9 115.9 0 0 1 63.676-61.6c97.624-38.99 199.042 56.51 155.039 155.25a110.84 110.84 0 0 1-59.151 57.25c3.751 1.9 16.842.79 23.284 1.37 16.805.6 42.178-.69 59.506-1.02 35.632-.79 71.272-1.18 106.913-1.18a14297 14297 0 0 1 187.538.27l138.91 3.08c-31.46-15.92-48.15-32.07-62.91-64.26-15.45 5.32-33.37 12.87-48.86 18.83a5356 5356 0 0 1-74.36 27.76c-16.47-23.13-37.7-48.96-55.47-71.18-5.49-6.5-11.27-13.81-16.69-20.5l-9.65-11.18c-38.963-.35-78.795.24-117.938.14-40.624-71.04-125.885-123.23-207.218-129.21-14.409-1.06-61.742 2.49-70.552-3.08-4.377-2.77-7.181-7.14-8.04-12.24-.956-5.67-.324-11.68 3.378-16.29 3.447-4.28 8.972-6.27 14.259-7 16.144-2.21 46.349 0 64.131-.04l180.138-.08 53.774.01c9.275-.01 21.212.61 30.221-.65 21.244 21.75 55.307 26.78 83.087 14.25 6.26-2.82 16.83-12.67 22.78-13.17l.86 1.36c-.88 3.57-3.3 5.9-5.69 8.79 4.65-.15 24.06-8.11 27.83-11.04-8.96-.51-14.98-1.48-24.33-1.63 3.13-11.13 2.66-9.42 2.9-20.48 16.28-.26 32.57-.28 48.85-.07 6.21.06 17.55-.25 23.19.52 1.26-.36 2.52-.75 3.78-1.15l.67-.6-.39-3.3 3.71-.23c2.88-1.24 3.78-.73 6.36.94 14.56-5.06 42.04-18.17 57.21-24.8l1.8-.33-.5-1.7c7.17-4.41 16.11-8.63 23.78-13.11-5.31-.11-29.84-.02-32.97-2.14l.73.39.62-.75c10.26.57 24 .06 34.37 1.27 9.78-2.42 10.91-4.54 18.92-7.56"/><path fill="#fff" d="M1226.53 1223.42c2.56-14.54 26.06-128.81 29.7-134.16 1.13 1.84 2.58 4.49 3.79 6.16l11.99 19.54 3.83-1.16c.94 1.85 1.09 2.21 1.85 4.13 3.21 6.04 7.78 11.68 11.01 17.94-1.72.97-1.89.86-2.76 2.4 20.6 31.68 39.41 62.8 58.71 95.29 9.37 15.77 19.02 34.63 30.14 48.52-18.8-2.11-38.37-6.62-56.98-10.46-21.5-4.45-46.25-9.24-67.12-16.21l-.69 1.5c25.51 8.13 50.51 17.78 76 25.95 5.5 1.77 11 3.51 16.34 5.72l-142.11 58.48c-27.08 11.25-58.88 25.73-86.18 35.34 6.61-29.37 11.25-59.34 17.26-88.85.97-4.78 2.4-10.8 2.91-15.59l-1.31-.52c-.93-.98-.8-.94-1.85-1.63 2.98-1.56 2.15-1 2.9-4.21 4.34 1.74 17.31-4.31 23.65-6.14-7.88-10.81 1.97-21.69 10.32-28.25 2.43-1.88 4.8-3.82 7.32-5.57 12.39-9.14 12.06-2.84 23.78-3.58 5.44-.34 9.05-.56 12.42 5.47 1.39 3.32 7.68 3.13 11.04 3.77.46-4.62.63-10.22 2.11-14.59z"/><path fill="#f5d3d8" d="M1175.25 1231.64c12.39-9.14 12.06-2.84 23.78-3.58 5.44-.34 9.05-.56 12.42 5.47 1.39 3.32 7.68 3.13 11.04 3.77l1.01 2.06c-.09 3.66-2.6 9.37-2.36 10.07 1.42 4.17 2.42 8.26 3.29 12.67-2.01 6.67-2.58 9.32-6.85 15.24-13.43 18.62-48.17 19.65-57.1-4.14-.41-1.1-1.37-2.89-1.92-4l-.95-3.74c-7.88-10.81 1.97-21.69 10.32-28.25 2.43-1.88 4.8-3.82 7.32-5.57"/><path fill="#a51c1e" d="M1175.25 1231.64c12.39-9.14 12.06-2.84 23.78-3.58 5.44-.34 9.05-.56 12.42 5.47 1.39 3.32 7.68 3.13 11.04 3.77l1.01 2.06c-.09 3.66-2.6 9.37-2.36 10.07 1.42 4.17 2.42 8.26 3.29 12.67-2.01 6.67-2.58 9.32-6.85 15.24-13.43 18.62-48.17 19.65-57.1-4.14-.41-1.1-1.37-2.89-1.92-4l-.95-3.74c-7.88-10.81 1.97-21.69 10.32-28.25 2.09 1.57 2.13 1.82 3.77 3.92-14.13 19.61-1.32 43.81 20.3 42.27 33.52-2.39 31.13-55.07-9.34-49.96-3.38-.28-4.23-.45-7.41-1.8"/><path fill="#bc262e" d="M1175.25 1231.64c3.18 1.35 4.03 1.52 7.41 1.8-5.94 2.52-6.53 3.01-10.96 7.69-1.64-2.1-1.68-2.35-3.77-3.92 2.43-1.88 4.8-3.82 7.32-5.57"/><path fill="#a51c1e" d="M1183.65 1235.96a22.7 22.7 0 0 1 22.22 5.23 22.71 22.71 0 0 1 6.42 21.9 22.68 22.68 0 0 1-15.87 16.4c-11.97 3.38-24.43-3.51-27.93-15.45-3.5-11.93 3.26-24.45 15.16-28.08"/><path fill="#414e56" d="M1133.96 1271.6c4.34 1.74 17.31-4.31 23.65-6.14l.95 3.74c-3.01.95-22.43 7.58-24.34 8.76l-1.31-.52c-.93-.98-.8-.94-1.85-1.63 2.98-1.56 2.15-1 2.9-4.21"/><path fill="#57493e" d="m1272.01 1114.96 3.83-1.16c.94 1.85 1.09 2.21 1.85 4.13 3.21 6.04 7.78 11.68 11.01 17.94-1.72.97-1.89.86-2.76 2.4-4.49-5.16-9.85-17.06-13.93-23.31"/><path fill="#414e56" d="M1222.49 1237.3c.46-4.62.63-10.22 2.11-14.59l1.93.71c-.99 5.3-2.38 10.56-3.03 15.94z"/><path fill="#808389" d="M1250 1256.91c-4.09-1.08-8.11-2.39-12.11-3.75-.33-.11-3.9-1.03-3.21-1.96 1.71-.58 13.91 3.44 16.01 4.21z"/><path fill="#fff" d="M1255.16 1064.79c-.64 1.59-.77 1.74-1.73 3.15-5.46 16.94-11.87 60.7-15.57 80.73-3.64 19.68-11.23 55.17-13.26 74.04-1.48 4.37-1.65 9.97-2.11 14.59-3.36-.64-9.65-.45-11.04-3.77-3.37-6.03-6.98-5.81-12.42-5.47-11.72.74-11.39-5.56-23.78 3.58-2.52 1.75-4.89 3.69-7.32 5.57-8.35 6.56-18.2 17.44-10.32 28.25-6.34 1.83-19.31 7.88-23.65 6.14-54.41-27.83-114.75-51.77-169.334-79.76 11.311-5.19 26.084-10.14 37.944-14.73 18.47-7.37 36.75-15.2 54.83-23.49l.17-1.03c.21-1.25.15-1.28 1.06-2.03 4.65-.15 24.06-8.11 27.83-11.04-8.96-.51-14.98-1.48-24.33-1.63 3.13-11.13 2.66-9.42 2.9-20.48 16.28-.26 32.57-.28 48.85-.07 6.21.06 17.55-.25 23.19.52 1.26-.36 2.52-.75 3.78-1.15l.67-.6-.39-3.3 3.71-.23c2.88-1.24 3.78-.73 6.36.94 14.56-5.06 42.04-18.17 57.21-24.8l1.8-.33-.5-1.7c7.17-4.41 16.11-8.63 23.78-13.11-5.31-.11-29.84-.02-32.97-2.14l.73.39.62-.75c10.26.57 24 .06 34.37 1.27 9.78-2.42 10.91-4.54 18.92-7.56"/><path fill="#ec8a2d" d="M1065.03 1117.41c16.28-.26 32.57-.28 48.85-.07 6.21.06 17.55-.25 23.19.52-2.32 1.5-6.42 3.15-6.95 4.82-10.34 6.25-26.44 11.91-37.77 16.91-1.99-.05-3.89-.09-5.89-.07-8.96-.51-14.98-1.48-24.33-1.63 3.13-11.13 2.66-9.42 2.9-20.48"/><path fill="#bdbfc2" d="M1233.49 1073.58c-5.31-.11-29.84-.02-32.97-2.14l.73.39.62-.75c10.26.57 24 .06 34.37 1.27-2.86 1.6-3.02 1.5-3.99 4.32-1.4 1.39-5.47 3.32-7.6 4.56-4.66 2.67-9.49 5.07-14.44 7.16l-.5-1.7c7.17-4.41 16.11-8.63 23.78-13.11"/><path fill="#808389" d="M1086.46 1139.52c2-.02 3.9.02 5.89.07-11.44 4.92-23.06 10.23-34.95 14.03l.17-1.03c.21-1.25.15-1.28 1.06-2.03 4.65-.15 24.06-8.11 27.83-11.04m168.7-74.73c-.64 1.59-.77 1.74-1.73 3.15-3.69.8-17.58 6.92-21.18 8.73.97-2.82 1.13-2.72 3.99-4.32 9.78-2.42 10.91-4.54 18.92-7.56m-110.32 47.79c2.88-1.24 3.78-.73 6.36.94-3.75 2.26-6.22 3.51-10.38 5.2l.03-2.01.67-.6-.39-3.3z"/><path fill="#d4d6d7" d="M1144.84 1112.58c.55.14 2.1.32 2.41.95l-.07-.01-.13.4c-1.25.94-3.95 1.68-5.53 2.19l-.39-3.3z"/><path fill="#57493e" d="M1137.07 1117.86c1.26-.36 2.52-.75 3.78-1.15l-.03 2.01c-3.11 1.18-7.91 3.68-10.7 3.96.53-1.67 4.63-3.32 6.95-4.82"/><path fill="#fff" d="M983.77 1207.73c24.19 9.31 48.15 21.86 71.63 32.92 25.18 11.85 50.49 23.31 75.66 35.16 1.05.69.92.65 1.85 1.63-12.88 31.3-22 74.53-32.44 107.32-16.04-27.75-34.16-52.59-52.01-79.18zm4.325 52.09c3.993 2.32 32.025 15.67 35.245 15.69.24 2.57-.66 1.75-2.49 4.04 1.8.75 6.35 2.69 7.31 4.1 17.03 25.12 56.85 81.96 67.98 107.84-14.07-10.28-28.56-29.33-41.07-42.12-1.94-1.98-9.64-10.48-11.18-11.53l-2.11 1.61c-5.49-6.5-11.27-13.81-16.69-20.5l1.79-2.03a1139 1139 0 0 1-41.541-52.72c-3.388-1.58.605-1.31 2.756-4.38"/><path fill="#414e56" d="M988.095 1259.82c3.993 2.32 32.025 15.67 35.245 15.69.24 2.57-.66 1.75-2.49 4.04-6.07-2.26-33.408-15.1-35.511-15.35-3.388-1.58.605-1.31 2.756-4.38"/><path fill="#0f1213" d="M1026.88 1316.92c5.24 7.07 11.42 14.07 17.01 20.92l-2.11 1.61c-5.49-6.5-11.27-13.81-16.69-20.5z"/><path fill="#38454e" d="M452.38 1259.55c5.816-1.12 85.535-1.32 92.568.02 5.866 6.5 18.902 10.38 27.337 14.34-6.285.62-12.579 1.17-18.879 1.63-24.986 1.56-51.618-.21-76.774.41-11.419.28-24.277.04-35.586-.79-5.381-.15-10.967-.72-16.349-1.17 10.667-4.73 18.156-7.7 27.683-14.44"/><path fill="#fff" d="M973.616 1252.24c9.062-3.61 16.904-7.88 25.554-11.58l1.68-.73a972 972 0 0 1 22.49 35.58c-3.22-.02-31.252-13.37-35.245-15.69-4.83-2.52-9.605-5.12-14.479-7.58"/><path fill="#5c6269" d="m396.796 1434.32 2.299.01c10.454 6.5 146.331-4.11 169.494 2.46-35.632 1.45-80.897.2-117.211.2l-195.962-.2c21.223-6.17 131.273 3.57 141.38-2.47"/><path fill="#bdbfc2" d="M441.046 1275.16c11.309.83 24.167 1.07 35.586.79 25.156-.62 51.788 1.15 76.774-.41 1.298 8.53.702 54.39.692 64.65-.008 9.8.691 60-.555 67.83-1.076-5.12-.531-32.31-.523-39.5l-.017-90.65c-33.648.53-78.1 1.1-111.306-.32z"/><path fill="#d4d6d7" d="M767.229 1425.78c3.751 1.9 16.842.79 23.284 1.37-3.079.36-25.628 1.63-26.745.24.326-1.32 2.43-1.45 3.461-1.61"/><path fill="#fff" d="M710.161 1217.42c1.354-.17 3.906-.78 5.103.31 1.86 1.7.812 71.59.774 80.27-.002.51.038 1.02.002 1.53-.1 1.41-.78 2.56-1.925 3.39-.785.57-1.732.89-2.704.72-2.182-.4-14.203-19.73-16.444-22.85-10.348-17.72-20.018-31.17-29.972-50.16 16.65-8.05 27.108-11.12 45.166-13.21m10.924-.63c14.847.8 32.408 5.65 45.663 12.57l1.733.92 1.618.83c-9.327 16.23-19.335 32.22-28.706 48.5-4.068 7.45-8.417 14.87-12.758 22.14-2.145 3.59-7.501.48-7.509.23-.952-28.24-.428-56.84-.041-85.19m-97.874 54.76c18.984 12.94 43.022 22.54 62.182 35.65 8.572 5.86 23.935 12.63 4.146 12.93l-77.689-.12c.688-19.36 3.501-30.8 11.361-48.46m-10.833 52.83c11.438-.45 69.758-.39 85.383 1.6.19.02 1.727 3.18 1.156 3.68-3.786 3.28-21.511 12.83-25.395 15.01-15.077 8.57-30.131 18.19-45.748 25.76l-1.828.9c-8.405-15.3-12.644-29.51-13.568-46.95m715.652 15.4c.03.01 2.09.63 2.09.62.04-.07 3.77.81 3.81 1.26 1.21 15.72 1.26 70.67 1.21 83.29-11.87-.68-24.09-1.87-35.59-4.98l-12.51-3.86c12.62-24.93 27.89-51.41 40.99-76.33m11.15-.28c.8.09 4.87.53 4.91.58 9.06 12.6 37.43 57.74 43.82 68.05-4.64 2.63-7.65 4.34-12.52 6.67-11.97 5.84-22.21 8.34-35.38 9.97-.29-26.51-1.79-59.54-.83-85.27m-602.126-15.23c27.036-.67 59.381-.77 86.269-.15-.727 15.8-2.979 23.94-8.289 38.58-.313.63-3.184 7.77-4.667 7.06-24.446-11.62-47.955-25.67-71.406-39.25-1.734-1.01-1.715-4.57-1.907-6.24m583.416 10.64c.39.2 4.03 2.24 3.52 3.13-14.17 24.53-27.08 51.43-41.35 76.04-6.84-4.22-12.13-6.55-18.28-12.1-7.1-6.22-12.55-11.14-18.19-18.71 25.3-16.47 48.53-32.77 74.3-48.36m-610.726 6.53 6.109 1.68c.567 27 .443 54.74.226 81.89-6.897-.67-13.798-1.37-20.6-2.71a86 86 0 0 1-11.701-3.05c-5.615-1.9-10.026-3.94-15.372-6.32 11.507-21.12 28.697-51.47 41.338-71.49m100.116-69.22c7.987 8.6 12.791 34.91 13.556 46.81-23.268.19-45.436.55-68.71.07-2.687-.02-13.809.77-16.586-.97-.279-.18-.623-2.42-.295-2.64 22.17-14.8 48.36-30.6 72.035-43.27m-74.764 63.36c7.222 1.87 35.233 18.29 43.21 23.04 7.185 4.28 23.527 12.12 29.969 16.17-4.628 6.83-9.14 13.14-14.979 19.02-7.396 6.51-11.807 10.05-20.387 15.23-14.161-21.91-25.775-46.58-41.262-67.96-.698-.96 3.137-5.11 3.449-5.5m-74.966-101.59c1.315.86 31.086 50.97 35.194 56.77 19.493 27.49 5.949 19.34-13.34 8.12-18.443-9.7-37.391-21.53-56.027-31.56 7.672-12.2 22.167-25.48 34.173-33.33m61.236 107.44c5.099.73 4.776-.3 7.668 3.92 14.5 21.16 25.623 44.64 38.953 66.42-3.069 1.43-6.18 2.76-9.263 4.17-14.401 5.48-22.204 7.41-37.753 9.1-.076-24.31-.905-59.95.395-83.61m-19.378-7.45c1.035.91 3.444 3.44 3.072 4.07-8.923 15.29-33.176 59.74-40.774 72.12-5.158-3.77-11.267-8.17-16.035-12.38-6.641-6.01-12.973-12.41-17.943-19.91l-1.033-1.51c20.371-12.96 51.335-30.09 72.713-42.39m-204.947 24.39c-36.723-.51-33.085-53.62.957-52.2 7.993.4 15.465 4.08 20.649 10.18 3.851 4.54 5.236 8.9 4.727 14.77l-.267 1.18c4.1 13.71-11.764 26-24.861 25.84z"/><path fill="#414e56" d="M523.107 1332.3c-10.118 2.72-13.798-4.5.267-1.18zm-26.066 26.07c-1.981-14.58 3.703-10.45 1.205-.23z"/><path fill="#313439" d="M496.287 1307.64c1.74 4.52 1.285 16.74 1.387 22.16 2.074 3.23 4.181 3.87 3.664 7.74-9.033-.89-7.031-.34-6.378-9.04.547-7.28-1.163-13.72 1.327-20.86m-22.144 23.44c4.897.11 7.087-1.04 6.179 4.48l-1.235-.2c-3.137-.49-6.642-.47-4.944-4.28"/><path fill="#414e56" d="M483.444 1342.77c1.7 1.9 1.511 2.08-.325 3.81-3.401.6-1.312-1.22.325-3.81"/><path fill="#5c6269" d="m480.529 1314.87.309.19c2.002 1.26 2.815 1.41 3.1 3.77-1.988.7-2.186-.86-2.804-2.57z"/><path fill="#535552" d="M512.637 1345.21c.192-.11 1.403-.82 1.658-.89-.156.23-.942.81-1.407 1.19-.344.22-.688.45-1.032.67.26-.32.52-.65.781-.97"/><path fill="#fff" d="M774.209 1234.47c13.149 8.47 24.766 19.22 33.015 32.59-17.099 11.14-35.896 20.38-52.851 31.46-5.514 3.1-11.553 6.99-16.877 10.51-3.084 2.97-7.344-.64-5.081-4.25 14.31-22.87 27.362-47.64 41.794-70.31m576.801 96.9c21.59 13.2 49.45 25.52 70.53 38.86-.27.43-.53.87-.8 1.3-4.09 6.92-8.84 13.43-14.18 19.44-4.96 5.24-9.01 9.4-14.39 14.25-10.14-14.27-18.62-30.09-28.61-44.52-5.24-7.56-10.19-15.52-15.08-23.29-.74-1.17 2.09-5.26 2.53-6.04m24.56-9.9c17.7-.56 38.02-.92 55.72-.61-.22 6.53-.29 9.25-1.14 15.64-1.36 9.65-3.42 19.18-6.16 28.52-1.81-.73-3.61-1.49-5.4-2.26-.88-.38-1.76-.75-2.63-1.13-9.3-4.83-18.23-11.11-27.9-15.89-11.02-5.52-21.96-11.59-33.04-16.94-1.94-.93.17-5.43.82-5.84 3.5-2.21 15.86-1.38 19.73-1.49m44.44-44.57c5.16 3.27 10.55 31.64 11.5 38.15-23.29.48-46.43 1.38-69.76 1.6-1.58.06-3.06.25-4.62.01-.41.16-1.7-.99-1.12-1.36 11.92-7.47 26.69-11.68 39.99-16.28 4.13-1.42-3.6-5.76-2.61-6.6 7.06-6.03 18.73-11.42 26.62-15.52m-105.84 50.18c.93.75 2.31 1.77 2.47 3.08.05.49-.12 1.02-.5 1.34-4.79 4.14-71.65 47.57-72.65 47.41-1.01-.16-1.62-1.58-2.04-2.27-3.08-5.76-5.93-10.71-8.79-16.61 26.15-10.43 56.05-21.51 81.51-32.95m77.17-86.64c9.65 7.27 20.27 20.8 26.91 30.94-6.8 4.1-13.8 7.87-20.96 11.3-1.52.53-7.62 2.32-8.58 2.96l.03-.07c-5.6-6.08-9.18-10.39-13.3-17.67l-.86-1.48.73-.93c5.91-7.48 10.71-16.91 16.03-25.05m-50.55-22.91c16 2.07 32.63 10.35 46.05 19.05l-9.24 15.76c-2.06 3.98-3.67 6.81-6.03 10.6-10.47-12.79-21.34-30.55-30.29-44.65z"/><path fill="#38454e" d="M329.821 1158.39c.492.89 1.018 1.03 2.018 1.68l1.586-.09c5.803-.43 4.061 10.37 4.182 14.46 6.838 10.75 15.531 17.32 17.215 31.57 1.969 16.65.312 33.4 1.225 50.04-.687 1.86-.895 1.9-2.287 3.54 7.002 3.85 17.109 9.95 24.024 12.96 7.467 3.17-6.584 2.68-7.063 2.68-2.595.27-4.414.49-7.047.56l-.682 2.13.101 82.41c-.007 14.86-.453 33.01.388 47.59 4.888.46 9.741 1 14.648 1.15.027 7.25-.12 15.35.152 22.52 5.163.81 13.52 2.36 18.515 2.73-10.107 6.04-120.157-3.7-141.38 2.47-23.177.94-52.247.14-75.801.14l-148.28.1-6.617-2.07c9.3-1.69 18.65-3.09 28.039-4.2l.374-22.65 14.82-.05c-.11-43.52.113-87.04.666-130.55l-.541-1.67c-2.392-.65-13.945-1.51-16.926-1.77 7.932-4.53 20.2-9.44 29.076-14.08l.024-3.13c-1.184-1.31-2.154-2.33-2.088-4.33.669-20.14-3.603-44.82 8.153-62.28 4.312-6.41 9.16-10.94 14.013-16.53-.353-4.64-.982-8.7-1.137-13.3 2.581-.46 6.752-.06 8.252-1.55 6.319-1.27 33.709-1.46 39.618 0 2.256 1.51 4.273.95 7.101 1.59-.049 4.18-.027 8.35.064 12.53 7.879 10.86 17.03 21.96 18.014 36.01.961 13.7 1.371 34.02.796 47.65a197 197 0 0 0-1.66 3.15c10.013 6.01 17.626 9.92 28.061 15.07-6.058.29-12.727.47-18.719.92l-.611 2.06q-.112 65.01.816 130.02l14.31.06-.003 22.79c23.175 3.17 19.143 3.78 41.258.21l-.008-22.6 14.609-.08c.309-27.26.394-54.51.256-81.77-.044-15.24-.555-33.7.154-48.68-.812-1.35-1.497-1.62-2.825-2.71-4.335-.08-9.118-.44-13.486-.68 9.296-5.02 16.929-8.49 26.397-14.08l-.394-4.01c-.836-5.87-.659-11.13-.633-17.03.122-27.25-1.802-44.77 22.391-62.54.037-8.09-3.316-17.01 5.037-16.49a99 99 0 0 0 3.277-1.47c3.734-.56 35.226-.97 38.558-.4"/><path fill="#38454e" d="M107.443 1158.87c6.319-1.27 33.709-1.46 39.618 0 2.256 1.51 4.273.95 7.101 1.59-.049 4.18-.027 8.35.064 12.53 7.879 10.86 17.03 21.96 18.014 36.01.961 13.7 1.371 34.02.796 47.65a197 197 0 0 0-1.66 3.15c-8.273-1.17-83.996-1.55-91.15.19l.024-3.13c-1.184-1.31-2.154-2.33-2.088-4.33.669-20.14-3.603-44.82 8.153-62.28 4.312-6.41 9.16-10.94 14.013-16.53-.353-4.64-.982-8.7-1.137-13.3 2.581-.46 6.752-.06 8.252-1.55"/><path fill="#bdbfc2" d="M173.036 1256.65a197 197 0 0 0-1.66 3.15c-8.273-1.17-83.996-1.55-91.15.19l.024-3.13c10.29-1.07 22.801-.58 33.25-.66 19.613-.17 39.118.02 58.721.44zm-65.593-97.78c6.319-1.27 33.709-1.46 39.618 0 2.256 1.51 4.273.95 7.101 1.59-6.697.66-48.124.42-54.97-.04 2.58-.46 6.751-.06 8.251-1.55"/><path fill="#d4d6d7" d="M124.544 1225.47c5.039 2.8 19.43 21.64 22.698 28.01-9.639-9.64-12.429-14.13-20.849-23.77-4.485-1.03-14.592 19.18-18.277 19.79-1.334-2.38 14.144-21.11 16.428-24.03"/><path fill="#38454e" d="M329.821 1158.39c.492.89 1.018 1.03 2.018 1.68l1.586-.09c5.803-.43 4.061 10.37 4.182 14.46 6.838 10.75 15.531 17.32 17.215 31.57 1.969 16.65.312 33.4 1.225 50.04-.687 1.86-.895 1.9-2.287 3.54-6.895-1.36-87.015-1.1-92.175.74l-.394-4.01c-.836-5.87-.659-11.13-.633-17.03.122-27.25-1.802-44.77 22.391-62.54.037-8.09-3.316-17.01 5.037-16.49a99 99 0 0 0 3.277-1.47c3.734-.56 35.226-.97 38.558-.4"/><path fill="#bdbfc2" d="M261.191 1256.32c29.873-.14 65.617.78 94.856-.27-.687 1.86-.895 1.9-2.287 3.54-6.895-1.36-87.015-1.1-92.175.74zm68.63-97.93c.492.89 1.018 1.03 2.018 1.68-5.063 1.6-37.949 1.1-43.853.19a99 99 0 0 0 3.277-1.47c3.734-.56 35.226-.97 38.558-.4"/><path fill="#d4d6d7" d="M307.884 1225.68c2.288 1.52 19.366 21.73 18.959 22.84-2.7 1.73-16.072-16.6-18.655-19.42-8.401 9.1-12.257 14.89-21.612 23.72 4.299-7.54 15.287-20.25 21.308-27.14"/><path fill="#38454e" d="M261.585 1260.33c5.16-1.84 85.28-2.1 92.175-.74 7.002 3.85 17.109 9.95 24.024 12.96 7.467 3.17-6.584 2.68-7.063 2.68-2.595.27-4.414.49-7.047.56l-.682 2.13c-34.972.07-77.058 1.19-111.493-.12-.812-1.35-1.497-1.62-2.825-2.71-4.335-.08-9.118-.44-13.486-.68 9.296-5.02 16.929-8.49 26.397-14.08"/><path fill="#d4d6d7" d="M248.674 1275.09c37.969 1.41 76.97.38 115 .7l-.682 2.13c-34.972.07-77.058 1.19-111.493-.12-.812-1.35-1.497-1.62-2.825-2.71"/><path fill="#414e56" d="M377.784 1272.55c7.467 3.17-6.584 2.68-7.063 2.68 2.556-1.18 4.449-1.69 7.063-2.68"/><path fill="#38454e" d="M80.226 1259.99c7.154-1.74 82.877-1.36 91.15-.19 10.013 6.01 17.626 9.92 28.061 15.07-6.058.29-12.727.47-18.719.92l-.611 2.06c-35.342.49-76.312.79-111.49-.34l-.541-1.67c-2.392-.65-13.945-1.51-16.926-1.77 7.932-4.53 20.2-9.44 29.076-14.08"/><path fill="#bdbfc2" d="m68.076 1275.84 112.642-.05-.611 2.06c-35.342.49-76.312.79-111.49-.34z"/><path fill="#fff" d="M306.04 1358.83c-15.868-.61-26.312-13.09-24.896-28.83 2.23-24.78 33.23-32.69 48.055-13.12 12.433 16.41-.231 43.11-21.147 41.61z"/><path fill="#414e56" d="M306.04 1358.83c1.202-16.53 4.199-11.01 2.012-.34z"/><path fill="#313439" d="M305.734 1308.39c5.947 4.3-.964 18.2 3.726 23.82 2.237 2.68 2.487 1.99 2.002 5.44-9.81-.49-7.343-.88-6.574-9.65.581-6.63-.411-12.77.846-19.61m-22.59 21.72c2.513.18 5.884-.04 6.85 2.85l.398 1.06c-4.159-.52-6.064.17-7.248-3.91m38.495 1.14c2.877.12 5.843-.7 7.056 2-2.702 1.13-3.463.67-5.755-1.06z"/><path fill="#5c6269" d="M322.702 1313.83c2.186 2.81-.706 3.4-3.307 5.37-2.606-2.5.832-3.65 3.307-5.37"/><path fill="#38454e" d="M289.388 1313.83c2.741.93 4.906.94 4.551 4-2.061.59-2.427-.55-3.498-2.33zm32.058 31.13c.898-.26 1.702-.62 2.615-.54l.143.24c-.215.57-.627.82-1.104 1.28-1.386.66-3.297 1.32-1.654-.98"/><path fill="#5c6269" d="M292.755 1345.5c.725-.18 1.135-.44 1.777-.26l.077.13c-.193.58-1.332 1.01-1.74 1.22-.508.07-1.351.54-1.619.02.269-.62.894-.8 1.505-1.11"/><path fill="#fff" d="M124.2 1307.56c3.65-1.35 6.14-.8 9.786.7 26.12 10.71 19.629 49.78-8.96 49.91l-2.303-.1c-28.987-1.43-34.155-41.02-7.23-50.26 3.153-1.08 3.727-1.04 6.63.34z"/><path fill="#313439" d="M124.2 1307.56c1.477 9.21-1.002 19.04 1.807 25.92.299.73 1.616 2.33 1.389 3.23-1.924 1.35-6.822.81-6.461-2.66.85-8.19.106-17.84 1.188-25.9zm-1.477 50.51c.282-13.24 2.976-13.19 2.303.1z"/><path fill="#5c6269" d="M101.248 1330.04c11.159-3.34 5.232 8.3-1.09 2.01-.387-.85-.967-1.5-.797-2.33.602-.16 1.333.18 1.887.32"/><path fill="#414e56" d="M146.412 1329.97c6.607.37-.359 3.28-2.416 4.55-4.567-2.79-5.152-3.27.534-4.15z"/><path fill="#5c6269" d="M108.579 1343.68a2.35 2.35 0 0 1 2.23-1.04 2.352 2.352 0 0 1 1.474 3.93 2.36 2.36 0 0 1-3.186.27 2.36 2.36 0 0 1-.518-3.16"/><path fill="#38454e" d="M136.647 1345.61a2.26 2.26 0 0 1 2.062-1.38 2.26 2.26 0 0 1 2.099 1.33 2.28 2.28 0 0 1-.378 2.46c-.742.82-1.971.99-2.908.4a2.28 2.28 0 0 1-.875-2.81"/><path fill="#5c6269" d="M139.415 1313.72c2.494 2.44-.724 4.08-2.839 6.44-2.514-1.69 1.417-4.79 2.839-6.44"/><path fill="#38454e" d="M1722.1 1158.87c5.74-1.39 33.57-1.28 38.99.08 3.79 2.78 8.02-1.25 7.56 4.82.61 8.55-.11 11.44 5.84 18.24 17.92 20.5 10.67 47.9 13.34 72.51.12 1.11-.88 2.09-1.54 2.82l-.41 2.52c5.36 2.94 23.96 12.35 27.44 15.22-6.54 1.64-14.93.3-17.79 1.95l.25 130.87 15.54.04c.03 7.11-.13 15.28.18 22.29 20.12 5.71 21.22 3.1 40.63 1.52l-.12-23.6 14.92-.75.08-130.43c-2.87-1.43-12.16-1.17-16-1.29l-.79-1.34c1.14-.79 2.12-1.48 3.31-2.2 7.78-3.19 15.57-7.83 22.68-12.28 8.62-2.46 64.54.27 78.21-1.06 17.57-.13 20.73 7.33 36.28 12.91l-2.02 3.02 3.04.57c-3.1.17-11.56.37-13.81 1.67.07 40.99-1.05 90.38 1.06 130.79 4.62.08 9.46.09 14.06.3l-.19 22.4c8.49 1.07 14.74 2.13 23.12 3.91 3.44.52 4.53.22 7.18 2.05-4.2.94-57.19.78-64.05.62-45.06-1.06-93.81 1.39-138.46-.18-3.83.22-9.62.01-13.61-.01-12.15-1.28-31.18-.85-43.74-.86l-71.23.03c-8.41.01-30.38.52-37.41-.91 5.41-2.4 8.44-2.89 14.13-4.1l.34-22.97 14.8-.12c.94-28.7.29-57.93.56-86.61.08-8.47-.72-37.89.75-44.04l-.26-2.26c-6.55.05-13.39-.39-19.95-.7 10.63-4.99 21.4-11.38 31.37-15.83-1.3-1.03-2.1-1.71-3.5-2.56-.58-2.32-.73-3.22-.68-5.6.61-30.63-4.96-50.85 20.28-73.87 1.4-1.28 1.4-2.5 1.36-4.22-2.16-17.99.73-8.75 8.26-13.36"/><path fill="#38454e" d="M1722.1 1158.87c5.74-1.39 33.57-1.28 38.99.08 3.79 2.78 8.02-1.25 7.56 4.82.61 8.55-.11 11.44 5.84 18.24 17.92 20.5 10.67 47.9 13.34 72.51.12 1.11-.88 2.09-1.54 2.82l-.41 2.52c-8.34-2.25-59.77-.1-71.88-.89-4.58-.3-12.9.67-17.62-.49-1.3-1.03-2.1-1.71-3.5-2.56-.58-2.32-.73-3.22-.68-5.6.61-30.63-4.96-50.85 20.28-73.87 1.4-1.28 1.4-2.5 1.36-4.22-2.16-17.99.73-8.75 8.26-13.36"/><path fill="#bdbfc2" d="M1692.88 1255.92c16.91 1.36 36.13-.64 53.19.31 12.48.69 28.22-1.18 40.22 1.11l-.41 2.52c-8.34-2.25-59.77-.1-71.88-.89-4.58-.3-12.9.67-17.62-.49-1.3-1.03-2.1-1.71-3.5-2.56"/><path fill="#a1a5a8" d="M1722.1 1158.87c5.74-1.39 33.57-1.28 38.99.08 3.79 2.78 8.02-1.25 7.56 4.82-.16-.31-.33-.61-.48-.91-.08-.15-.14-.31-.21-.45-.35-.7-.73-1.1-1.5-1.28-3.75-.89-50.4-.93-51.85.47-1.1 1.07-.67 9.07-.77 10.63-2.16-17.99.73-8.75 8.26-13.36"/><path fill="#d4d6d7" d="M1738 1225.62c7.45 7.04 14.6 15.11 20.6 23.39.31.43-.26.83-.61.69-4.31-1.7-13.99-14.83-16.09-17.56-.82-.67-2.12-2.33-3.28-2.29-2.56 1.9-10.25 14.33-13.15 17.1-.61.58-2.37 1.8-3 .76 5.31-7.21 10.78-14.39 15.53-22.09"/><path fill="#38454e" d="M1696.38 1258.48c4.72 1.16 13.04.19 17.62.49 12.11.79 63.54-1.36 71.88.89 5.36 2.94 23.96 12.35 27.44 15.22-6.54 1.64-14.93.3-17.79 1.95-9.03 2.19-97.33 1.41-110.31.24l-.26-2.26c-6.55.05-13.39-.39-19.95-.7 10.63-4.99 21.4-11.38 31.37-15.83"/><path fill="#a1a5a8" d="M1684.96 1275.01c42.79.39 85.58.41 128.36.07-6.54 1.64-14.93.3-17.79 1.95-9.03 2.19-97.33 1.41-110.31.24z"/><path fill="#38454e" d="M1954.42 1258.8c17.57-.13 20.73 7.33 36.28 12.91l-2.02 3.02 3.04.57c-3.1.17-11.56.37-13.81 1.67-6.21 1.75-104.05 1.53-110.9 0-2.87-1.43-12.16-1.17-16-1.29l-.79-1.34c1.14-.79 2.12-1.48 3.31-2.2 7.78-3.19 15.57-7.83 22.68-12.28 8.62-2.46 64.54.27 78.21-1.06"/><path fill="#a1a5a8" d="m1853.53 1272.14 2.12 2.89c41.82-.18 91.91 1.81 133.03-.3l3.04.57c-3.1.17-11.56.37-13.81 1.67-6.21 1.75-104.05 1.53-110.9 0-2.87-1.43-12.16-1.17-16-1.29l-.79-1.34c1.14-.79 2.12-1.48 3.31-2.2"/><path fill="#414e56" d="m1853.53 1272.14 2.12 2.89c-1.88-.21-3.57-.4-5.43-.69 1.14-.79 2.12-1.48 3.31-2.2"/><path fill="#5c6269" d="M2015.96 1434.37c3.44.52 4.53.22 7.18 2.05-4.2.94-57.19.78-64.05.62-45.06-1.06-93.81 1.39-138.46-.18 27.1-6.93 183.6 4.48 195.33-2.49"/><path fill="#fff" d="M1896.28 1329.52c2.7-14.29 10.62-20.51 24.35-23.28l3.31.88c14.73-.78 21.96 10.74 25.94 22.96.29 2.18.7 2.9-.08 4.76-3.05 12.66-11.99 25.87-26.78 23.54l-.94-.06c-4.18-.23-6.61-.37-10.6-2.23a28.02 28.02 0 0 1-14.41-15.82c-.13-.39-.26-.77-.4-1.15l-.61-1.71c.09-3.17-.12-4.66.22-7.89"/><path fill="#414e56" d="m1921.23 1309.04 1.72.85c-.1 4.48-1.48 21.19 1.29 23.52 4.93 4.17-6.36 6.18-5.09.14 1.81-8.6.17-15.76 2.08-24.51"/><path fill="#535552" d="M1949.88 1330.08c.29 2.18.7 2.9-.08 4.76-2.85-3.84-9.51-1.06-10.28-4.12.56-1.8 6.74.88 10.36-.64"/><path fill="#414e56" d="M1898.44 1328.95c7.63 2.35 6.6 3.55-.02 5.89-.08-2.29-.1-3.59.02-5.89"/><path fill="#d4d6d7" d="M1896.06 1337.41c.09-3.17-.12-4.66.22-7.89l2.16-.57c-.12 2.3-.1 3.6-.02 5.89-1.83.55-1.69.8-2.36 2.57"/><path fill="#5c6269" d="M1922.08 1358.32c-.37-1.64-1.61-6.03-.61-7.67.17-.27.45-.47.77-.52 1.67-.32 1.2 2.5 1.13 3.34l-.35 4.91z"/><path fill="#d4d6d7" d="m1920.63 1306.24 3.31.88-.99 2.77-1.72-.85z"/><path fill="#535552" d="M1937.61 1345.41c3.34-1.36 1.62 1.18.72 3.1-3.54.44-2.55-1.33-.72-3.1"/><path fill="#38454e" d="M1908.02 1345.36c1.63.94.94 1.41-.28 2.48-2.14-.99-1.87-1.09.28-2.48"/><path fill="#fff" d="m1737.58 1306.42 2.74.48c5.37.34 10.76 1.24 14.78 5.07.87.37 1.75.75 2.62 1.12 5.55 5.79 6.25 7.33 8.25 15.05.15.61.3 1.23.45 1.85-1.81 15.91-8.15 28.01-26.35 28.11l-1.89.03c-32.51-.87-31.34-46.38-4.19-51.1z"/><path fill="#38454e" d="m1737.68 1309.66 2.37-.74c.11 2.88-.66 22.86 1.3 24.47 7.16 5.88-5.17 4.18-4.86 2.44 1.02-5.81-.1-22.06 1.19-26.17"/><path fill="#414e56" d="M1765.97 1328.14c.15.61.3 1.23.45 1.85-10.58 7.09-13.95 1.47-6.93-.21 2.53-.61 3.77 1.52 6.48-1.64"/><path fill="#5c6269" d="M1738.18 1358.13c-.04-13.76 1.99-12.34 1.89-.03z"/><path fill="#38454e" d="M1754.24 1312.94c.78 1.18 1.54 2.36 2.3 3.55-5.76 4.68-5.42 3.75-2.67-2.66z"/><path fill="#d4d6d7" d="M1755.1 1311.97c.87.37 1.75.75 2.62 1.12-.44 1.19-.79 2.2-1.18 3.4-.76-1.19-1.52-2.37-2.3-3.55z"/><path fill="#bdbfc2" d="m1737.58 1306.42 2.74.48-.27 2.02-2.37.74z"/><path fill="#5c6269" d="M1725.99 1342.6c2.11 2.07 1.72 5.87-2.8 4.64-.52-.15-2.24-.29-2.38-.98.09-.21 4.31-2.91 5.18-3.66"/><path fill="#38454e" d="M1718.5 1331.72c2.49-1.49 3.12-.72 4.85 1.32-3.72.79-5.42 2.27-4.85-1.32"/><path fill="#535552" d="M1754.22 1345.32c.66-.44 1.31-1.1 2.05-.52.22.94-.26 1.24-.94 1.98-.31.63-.46 1.39-1.19 1.57-1.16-.5-.17-2.39.08-3.03"/><path fill="#38454e" d="M1723.54 1315.83c1.99-1.66 2.56-1.75 2.25 1.1-1.53.89-1.82.35-2.25-1.1m-210.02-57.06c8.25.58 20.32.1 28.98.09l52.69-.08c4.96 2.57 23.81 10.81 25.19 15.04-2.29 1.73-4.96 1.22-8.02 1.18l-5.04 1.2c-1.14 3.18-.14 3.08-.27 6.22-1.1 40.39-.29 84.65-.15 125.32l15.22.34.26 23.36c8.34.66 13.26 1.43 21.51 3.03l10.75.64c7.03 1.43 29 .92 37.41.91l71.23-.03c12.56.01 31.59-.42 43.74.86-12.7.76-32.17.17-45.21.17l-88.41-.02c-74.1-.02-150.36 1.03-224.25-.17l.67-1.64 6.01-.77c9.11-1.96 14.7-3.02 23.92-3.94l-.23-22.38 16.55-.07c.03-28.15-.16-56.29-.55-84.44-.11-11.83-.92-34.86.39-45.77l.95-2.68c-6.63-.17-12.38-.72-18.97-1.35 10.29-5.38 25.02-14.91 35.63-15.02"/><path fill="#38454e" d="M1513.52 1258.77c8.25.58 20.32.1 28.98.09l52.69-.08c4.96 2.57 23.81 10.81 25.19 15.04-2.29 1.73-4.96 1.22-8.02 1.18l-5.04 1.2c-1.14 3.18-.14 3.08-.27 6.22l-1.18-3.83c-2.55-1.34-98.43-.67-109.96-.77l.95-2.68c-6.63-.17-12.38-.72-18.97-1.35 10.29-5.38 25.02-14.91 35.63-15.02"/><path fill="#a1a5a8" d="M1496.86 1275.14c38.5.46 77 .42 115.5-.14l-5.04 1.2c-1.14 3.18-.14 3.08-.27 6.22l-1.18-3.83c-2.55-1.34-98.43-.67-109.96-.77z"/><path fill="#5c6269" d="m1449.82 1435.19 6.01-.77c4.13 2.92 36.64 1.96 43.3 1.97l75.67-.08 44.53-.12c5.56-.02 20.59.75 24.56-1.72l10.75.64c7.03 1.43 29 .92 37.41.91l71.23-.03c12.56.01 31.59-.42 43.74.86-12.7.76-32.17.17-45.21.17l-88.41-.02c-74.1-.02-150.36 1.03-224.25-.17z"/><path fill="#fff" d="M1524.33 1331.16c2.43-12.33 10.38-27.02 25.15-24.46l1.81-.1c6.83-.67 12.38 2.38 17.45 6.6 3.98 4.05 10.92 12.74 6.6 18.44l-.12 1.28c.8.75 1.64 1.33 1.42 2.54-3.15 17.2-10.79 19.88-25.26 23.6l-1.97-.65c-13.31-2.26-24.7-8.45-24.37-23.72z"/><path fill="#38454e" d="M1551.29 1306.6c-.07 5.31-1.59 23.61 1.8 26.3 6.78 5.38-7.8 5.89-6.18.16 2.12-7.56 1.24-18.75 2.57-26.36z"/><path fill="#414e56" d="M1527.33 1331.46c8.12-1.8 10.86 4.49-.45 2.86z"/><path fill="#313439" d="M1575.22 1332.92c-12.14.58-11.25-4.75.12-1.28z"/><path fill="#414e56" d="M1549.41 1358.41c.47-9.58 3.32-8.95 2.14-.65l-.17 1.3z"/><path fill="#313439" d="M1563.2 1317.9c-.92-3.42 2.6-3.68 5.54-4.7-1.57 1.96-2.91 4.47-5.54 4.7"/><path fill="#d4d6d7" d="m1524.33 1331.16 3 .3-.45 2.86-1.84.37z"/><path fill="#5c6269" d="M1535.63 1343.3c1.04-.7 2.45-.5 3.26.46.82.95.8 2.37-.05 3.29-.65.71-1.65.98-2.57.7a2.49 2.49 0 0 1-1.73-2.02c-.14-.95.28-1.9 1.09-2.43"/><path fill="#535552" d="M1533.88 1313.99c2.63 1.77 3.4 1.81 3.42 4.84-2.39-.38-2.68-2.75-3.42-4.84"/><path fill="#38454e" d="M1051.14 1101.55c50.45-64.87 132.1-70.93 208.03-63.41 65.69 5.62 157.23 22.32 221.16 37.46 4.1 6.92 7.83 10.7 13.18 16.74-.22 7.05-.59 14.58-.57 21.59l-145.23-.5c-20.23-.01-52.77-1.12-71.87.37l-3.83 1.16-11.99-19.54c-1.21-1.67-2.66-4.32-3.79-6.16-3.64 5.35-27.14 119.62-29.7 134.16l-1.93-.71c2.03-18.87 9.62-54.36 13.26-74.04 3.7-20.03 10.11-63.79 15.57-80.73.96-1.41 1.09-1.56 1.73-3.15 1.14 2.32 1.03 4.13 1.09 6.65 2.47 1.9 32.89 3.29 39.08 3.74 35.19 2.66 70.31 6.08 105.35 10.23 13.49 1.52 38.19 3.58 50.82 6.06l2.04-2.1c-61.3-9.17-116.68-20.75-179.54-28.15-47.68-5.45-96.33-5.79-142.43 8.49-5.22 1.62-20.82 6.26-25.22 8.64l-2.12-1.25c55.89-24.17 108.18-28.16 168.08-21.41 44.59 4.28 89.04 9.92 133.28 16.91 11.56 1.83 36.78 5.28 47.16 7.94l.04-2.22c-86.27-17.57-151.11-31.65-240.28-37.12-60.62 2.49-116.76 13.96-159.34 61.05z"/><path fill="#fff" d="M1258.48 1083.95c-1.59-3.28-2.33-3.62-2.09-6.89 4.38-1.66 176.23 19.62 198.2 23.31-5.04 3.55-13.45 2.26-20.09 1.84-5.67-.41-11.36-.43-17.03-.07-27.8.44-57.2-2.77-85.16-2.81-20.78-.03-42.12-.8-62.82-2.21-2.64-.18-3.71-1.98-5.42-3.74-2.13.12-2.36.73-4.05 2.04-1.21-1.67-2.66-4.32-3.79-6.16.88-1.21 1.47-2.33 1.84-3.79z"/><path fill="#414e56" d="M1258.48 1083.95c1.68 2.22 5.06 6.73 5.59 9.43-2.13.12-2.36.73-4.05 2.04-1.21-1.67-2.66-4.32-3.79-6.16.88-1.21 1.47-2.33 1.84-3.79z"/><path fill="#bdbfc2" d="M1454.59 1100.37c4.65-.23 16.82 2.1 22.15 2.85-9.28.83-49.8.51-59.27-1.08 5.67-.36 11.36-.34 17.03.07 6.64.42 15.05 1.71 20.09-1.84"/><path fill="#a1a5a8" d="M1453.54 1089.37c2.66.21 19.87 2.22 20.78 4.09-.72.62-20.94-1.65-22.82-1.99zm-.75-11.05c8.78 1.02 11.58 2.66 19.57 5.41-6.43-.94-13.2-2.04-19.61-3.19z"/><path fill="#38454e" d="M1533.42 1116.97c6.53 1.3 32.97 1.15 39.36.07.51 11.82.29 29.43.02 41.41 1.14 2.01 2.85 1.69 5.13 2.15 4.41-.22 1.15 9.23 3.15 13.4 3.22 6.71 8.11 11.02 11.57 17.62 9.59 18.34 5.98 42.47 5.86 62.47 0 .32-3.03 2.49-3.27 2.68l-.05 2.01-52.69.08c-8.66.01-20.73.49-28.98-.09-3.51-2.08-4.94-1.58-9.01-2.42l-.93-.2c-.82-10.78-.14-24.06-.1-35 .1-22.36 6.62-31.87 22.2-46.42-.08-3.26-1.28-12.37 1.15-14.2 2.54-.39 5.22.03 6.43-2.16-.24-12.1-.55-29.67.16-41.4"/><path fill="#414e56" d="M1533.42 1116.97c6.53 1.3 32.97 1.15 39.36.07.51 11.82.29 29.43.02 41.41-4.12-.54-34.27-.31-39.54-.08-.24-12.1-.55-29.67.16-41.4"/><path fill="#fff" d="M1550.1 1123.12c.69.1 5.51.46 5.65 1.21 1.35 7.51.66 20.79.43 28.16-.53-.07-5.3-.44-5.42-1.08-1.43-7.59-.69-20.74-.66-28.29m-10.17.26c8.45.97 5.7.5 6.12 10.14.27 6.23-.02 12.83-.03 19.1-7.56-1.03-5.92-.09-6.11-8.48-.17-6.88-.01-13.86.02-20.76m20.49-.14c.75.1 5.35.33 5.5 1.06 1.43 7.05.5 20.72.31 27.54-1.03.12-4.67.59-4.99-.29-1.65-4.6-.84-24.52-.82-28.31"/><path fill="#d4d6d7" d="M1503.58 1256.15c10.25-.51 86.35-1 91.66.62l-.05 2.01-52.69.08c-8.66.01-20.73.49-28.98-.09-3.51-2.08-4.94-1.58-9.01-2.42z"/><path fill="#bdbfc2" d="M1533.26 1158.37c5.27-.23 35.42-.46 39.54.08 1.14 2.01 2.85 1.69 5.13 2.15-17.15-.27-33.64.86-51.1-.07 2.54-.39 5.22.03 6.43-2.16"/><path fill="#d4d6d7" d="M1550.61 1226.58c5.16 1.66 11.3 13.19 16.11 16.74.6.45 5.01 4.84 3.58 5.77-3.3-.97-13.61-13.96-16.73-17.46-5.19-5.31-14.93 16.01-19.26 16.13-1.09-2.67 13.91-18.51 16.3-21.18"/><path fill="#38454e" d="M480.448 1117.2c7.386.57 31.954 1.22 38.895-.38 1.233 9.52-.484 36.55.596 42.51.697.49 5.627.68 7.152.96-.076 4.73-.158 8.76-.501 13.5 7.464 10.15 16.661 21.71 17.671 34.71.837 10.76 1.749 37.84.318 47.84.192 1.04.265 2.16.369 3.23-7.033-1.34-86.752-1.14-92.568-.02l-2.331-2.73c.037-33.18-6.619-56.98 21.812-79.87.13-2.26.46-15.31 1.566-16.42 1.451.05 2.91.23 4.359.38l2.506-1.69c-.288-5.29-.778-37.74.156-42.02"/><path fill="#414e56" d="M480.448 1117.2c7.386.57 31.954 1.22 38.895-.38 1.233 9.52-.484 36.55.596 42.51.697.49 5.627.68 7.152.96-7.641 1.14-40.223.95-49.305.62l2.506-1.69c-.288-5.29-.778-37.74.156-42.02"/><path fill="#bdbfc2" d="M519.343 1116.82c1.233 9.52-.484 36.55.596 42.51.697.49 5.627.68 7.152.96-7.641 1.14-40.223.95-49.305.62l2.506-1.69c4.423-1.2 32.51-.95 38.67-1 .027-12.17-.619-29.88.381-41.4"/><path fill="#fff" d="M498.462 1123.33c8.527 2.97 2.491 9.52 4.188 17.96.646 3.21.248 8.73-1.866 11.58-2.143-.78-5.16-1.23-4.736-3.86.734-4.55-1.678-21.89 1.513-24.8zm-11.768.53c.516.1 4.628.77 4.732 1.32 1.343 7.07.712 20.21.539 27.11-.398-.07-4.415-.54-4.514-1.11-1.338-7.71-.785-19.5-.757-27.32m20.355.16c.968.19 4.559.64 4.725 1.31 1.192 4.87.587 22.52.459 26.7-.488-.11-4.572-.79-4.662-1.33-1.138-6.81-.597-20.02-.522-26.68"/><path fill="#bdbfc2" d="M450.049 1256.82c28.54-1.48 65.928-2.03 94.53-.48.192 1.04.265 2.16.369 3.23-7.033-1.34-86.752-1.14-92.568-.02zm47.206-31.09c5.964 5.84 11.086 12.22 16.087 18.89.399.53 4.6 5.93 3.174 6.74-1.053-.6-15.497-18.92-17.7-21.51-3.818-2.43-13.627 19.54-19.871 19.2a8 8 0 0 1-.204-.31c5.872-7.46 12.61-15.43 18.514-23.01"/><path fill="#38454e" d="M1896 1160.84c11.44.88 43.32.35 55.06-.14-.13 4.99-.18 9.18-.07 14.16l6.92 8.7c15.73 19.64 11.91 48.75 11.26 72.95-4.06 1.03-14.58-.1-14.75 2.29-13.67 1.33-69.59-1.4-78.21 1.06l.09-2.97c-2.28-4.26-1.41-9.06-1.45-13.9-.23-29.82-2.69-45.35 21.21-67.33z"/><path fill="#bdbfc2" d="M1876.3 1256.89c14.63-1.71 39.13-.36 54.58-.63 9.26-.15 30.28-.62 38.29.25-4.06 1.03-14.58-.1-14.75 2.29-13.67 1.33-69.59-1.4-78.21 1.06zm45.52-30.5c3.21 1.36 19 21.48 18.41 23.01-1.91 1.41-15.71-17.71-17.23-19.68-4.57 2.65-13.17 16.49-17.71 18.86-5.32 2.78 16.29-21.9 16.53-22.19"/><path fill="#ec8a2d" d="M538.207 1117.13c44.981-.47 90.542 1.43 135.567 1.68l276.577.03c.903 4.86 4.208 12.93 4.118 16.42l-1.716.18c-96.671-1.18-194.904-.23-291.703-.23l-78.767.7c-9.542.06-64.268 5.67-44.076-18.78m739.483.8c47.66.3 95.33.25 142.99-.16l46.23-.54c7.44-.11 14.94-.42 22.42-.33 9.54.12 16.07 9.5 7.92 16.9-1.47 1.35-3.74 2.14-5.73 2.35-16.22.59-33.39.42-49.56.52l-111.4.21c-7.83-.05-35.3-1.14-40.91-.17l-.95-.84c-3.23-6.26-7.8-11.9-11.01-17.94"/><path fill="#414e56" d="m1937.39 1085.68.27 1.32 1.1.2c6.74 1.09 4.29 11.27 5.08 17.95 2.02 1 4.24 1.22 6.43 1.7 3.05 8.07-1.44 8.05-7.14 8.65-.01.46-.01.93-.02 1.4-.24 13.73-.24 27.45 0 41.18 2.57 1.32 5.16 1.95 7.95 2.62-11.74.49-43.62 1.02-55.06.14 2.63-.37 6.83.4 7.09-2.29 1.03-10.34-1.68-30.23.62-39.45l.45-1.33c.21-.93.39-1.67.53-2.59-13.87-.96-9.56-8-3.81-8.36l1.86-.14-.36-1.7c.89-6.81-1.94-16.71 5-17.13l1.42-.11-.31-1.84c8.22.28 20.67.26 28.9-.22"/><path fill="#38454e" d="m1937.39 1085.68.27 1.32 1.1.2c6.74 1.09 4.29 11.27 5.08 17.95 2.02 1 4.24 1.22 6.43 1.7 3.05 8.07-1.44 8.05-7.14 8.65-4.75-.65-33.29-.73-38.44-.32-13.87-.96-9.56-8-3.81-8.36l1.86-.14-.36-1.7c.89-6.81-1.94-16.71 5-17.13l1.42-.11-.31-1.84c8.22.28 20.67.26 28.9-.22"/><path fill="#38454e" d="M1902.38 1104.98c5.53-.75 37.12-1.1 41.46.17 2.02 1 4.24 1.22 6.43 1.7 3.05 8.07-1.44 8.05-7.14 8.65-4.75-.65-33.29-.73-38.44-.32-13.87-.96-9.56-8-3.81-8.36l1.86-.14z"/><path fill="#a1a5a8" d="M1902.38 1104.98c5.53-.75 37.12-1.1 41.46.17 2.02 1 4.24 1.22 6.43 1.7-10.61.29-37.67.9-47.53-.17z"/><path fill="#d4d6d7" d="m1937.39 1085.68.27 1.32c-6.08 1.43-22.61 1.51-28.86.74l-.31-1.84c8.22.28 20.67.26 28.9-.22"/><path fill="#bdbfc2" d="M1896 1160.84c2.63-.37 6.83.4 7.09-2.29 1.03-10.34-1.68-30.23.62-39.45 1.07 11.08.11 24.7.09 35.96-.01 3.73.9 2.87 4.65 3.6 7.75-1.12 20.41-.35 28.9-.7 2.01.1 3.76.13 5.76.12 2.57 1.32 5.16 1.95 7.95 2.62-11.74.49-43.62 1.02-55.06.14"/><path fill="#fff" d="M1911.06 1153.23c-.81-3.71-1.59-27.43-.61-28.53 8.34-9.3 5.47 25.93 5.55 27.37-2.04.74-2.69.73-4.94 1.16"/><path fill="#a1a5a8" d="M1904.69 1115.18c5.15-.41 33.69-.33 38.44.32-.01.46-.01.93-.02 1.4l-.75.11c-10.17 1.66-27.54.39-38.2.76.21-.93.39-1.67.53-2.59"/><path fill="#5c6269" d="M1916 1152.07c.57 1.62.52 2.51.69 4.21 3.59 1.57 13.85-.97 20.66 1.68-8.49.35-21.15-.42-28.9.7 1.32-1.72 3.43-3.35 2.61-5.43 2.25-.43 2.9-.42 4.94-1.16"/><path fill="#fff" d="M1920.1 1122.72c.65.1 5.92.42 6.06 1.18 1.29 6.98.57 21.65.21 28.55-.57-.07-5.68-.39-5.83-1.1-1.6-7.16-.95-21.53-.44-28.63m12.52-.32c.25.09 3.76 1.03 3.79 1.86.36 8.94.91 21.13-.55 29.84-.68-.38-4.48-2.15-4.47-3.22.04-6.78-1.83-22.91 1.23-28.48"/><path fill="#414e56" d="M1755.6 1085.26c.16.89.77 1.58 1.3 2.36 5.78 2.25 4.09 12.13 4.11 17.67 2.04 1.11 4.63 1.07 7.04 1.5-.11 2.82-.22 5.32-.15 8.15l-1.37 1.33c-4.01 3.82-3.92-.2-5.23 6.96-.66 11.5.05 24.03-.21 35.72-5.42-1.36-33.25-1.47-38.99-.08-.26-14.02-.29-28.04-.09-42.05-1.64-.89-2.59-1.3-4.32-2.03-5.5.55-3.71-3.61-3.89-8.37 9.83-1.3 5.65 1.39 6.71-8.67.56-3.43 1.36-6.56 1.8-9.93 1.2-.52 2.28-.99 3.52-1.45 6.91-.59 26.28.51 29.77-1.11"/><path fill="#38454e" d="M1755.6 1085.26c.16.89.77 1.58 1.3 2.36 5.78 2.25 4.09 12.13 4.11 17.67 2.04 1.11 4.63 1.07 7.04 1.5-.11 2.82-.22 5.32-.15 8.15l-1.37 1.33c-4.01 3.82-3.92-.2-5.23 6.96-.02-.23-.36-4.65-.65-4.71-10.19-2.14-27.87 1.55-37.58-1.41l-1.06-.29c-1.64-.89-2.59-1.3-4.32-2.03-5.5.55-3.71-3.61-3.89-8.37 9.83-1.3 5.65 1.39 6.71-8.67.56-3.43 1.36-6.56 1.8-9.93 1.2-.52 2.28-.99 3.52-1.45 6.91-.59 26.28.51 29.77-1.11"/><path fill="#38454e" d="M1713.8 1106.42c9.83-1.3 5.65 1.39 6.71-8.67.12.76.66 6.5 1.23 6.6 11.76 2.24 27.65-1.21 39.27.94 2.04 1.11 4.63 1.07 7.04 1.5-.11 2.82-.22 5.32-.15 8.15l-1.37 1.33c-4.01 3.82-3.92-.2-5.23 6.96-.02-.23-.36-4.65-.65-4.71-10.19-2.14-27.87 1.55-37.58-1.41l-1.06-.29c-1.64-.89-2.59-1.3-4.32-2.03-5.5.55-3.71-3.61-3.89-8.37"/><path fill="#a1a5a8" d="M1713.8 1106.42c9.83-1.3 5.65 1.39 6.71-8.67.12.76.66 6.5 1.23 6.6 11.76 2.24 27.65-1.21 39.27.94 2.04 1.11 4.63 1.07 7.04 1.5-11.93.77-44.3 1.45-54.25-.37"/><path fill="#d4d6d7" d="M1717.69 1114.79c11.28 1.52 32.64 1.55 44.31.18 2.77-.32 2.91-.2 5.9-.03l-1.37 1.33c-4.01 3.82-3.92-.2-5.23 6.96-.02-.23-.36-4.65-.65-4.71-10.19-2.14-27.87 1.55-37.58-1.41l-1.06-.29c-1.64-.89-2.59-1.3-4.32-2.03"/><path fill="#bdbfc2" d="M1755.6 1085.26c.16.89.77 1.58 1.3 2.36-8.22.91-26.06.72-34.59.2 1.2-.52 2.28-.99 3.52-1.45 6.91-.59 26.28.51 29.77-1.11"/><path fill="#fff" d="M1737.64 1123.44c.65.08 5.97.3 6.05 1.2.65 7.69 1.12 20.59-.76 27.76-.97-.05-3.94-.04-4.34-.77-2.21-4.1-1.07-24.11-.95-28.19m-9.24-.25c1.11.25 5.29.71 5.24 2.34-.24 7.95 1.75 18.83-1.77 25.91-.7-.17-3.55-.54-3.76-1.44-1.75-7.33-1.03-19.58.29-26.81m20.54.24c.46.06 5.38.44 5.46 1.03.99 7.63.65 19.86.22 27.4-8.45-.51-5.32-8.6-5.74-14.82-.29-4.2.06-9.31.06-13.61"/><path fill="#414e56" d="M295.907 1085.72c8.785.34 19.431.03 28.452.07l1.217 1.51c5.677.36 4.718 12.08 5.916 17.87l-.237 1.53 1.871.09c5.238.18 7.777 7.61-2.01 9.13l-1.142 2.17c-.38 13.36.438 26.83-.153 40.3-3.332-.57-34.824-.16-38.558.4-.825-11.32-.583-29.88-.403-41.67-1.505-1.07-2.778-1.22-4.577-1.61l-1.662-.47c-1.86-4.95-1.141-8.12 4.296-8.13l1.908-.03-.603-1.99c-.076-4.03-1.069-16.99 4.368-17.62z"/><path fill="#38454e" d="M295.907 1085.72c8.785.34 19.431.03 28.452.07l1.217 1.51c5.677.36 4.718 12.08 5.916 17.87l-.237 1.53 1.871.09c5.238.18 7.777 7.61-2.01 9.13l-1.142 2.17c-9.994-.61-30.332.82-39.114-.97-1.505-1.07-2.778-1.22-4.577-1.61l-1.662-.47c-1.86-4.95-1.141-8.12 4.296-8.13l1.908-.03-.603-1.99c-.076-4.03-1.069-16.99 4.368-17.62z"/><path fill="#38454e" d="m331.255 1106.7 1.871.09c5.238.18 7.777 7.61-2.01 9.13l-1.142 2.17c-9.994-.61-30.332.82-39.114-.97-1.505-1.07-2.778-1.22-4.577-1.61l-1.662-.47c-1.86-4.95-1.141-8.12 4.296-8.13l1.908-.03c7.953 1.33 32.58 1.15 40.43-.18"/><path fill="#bdbfc2" d="m284.621 1115.04 46.495.88-1.142 2.17c-9.994-.61-30.332.82-39.114-.97-1.505-1.07-2.778-1.22-4.577-1.61zm5.601-10.15c13.373.15 28.046-.25 41.27.28l-.237 1.53c-7.85 1.33-32.477 1.51-40.43.18z"/><path fill="#d4d6d7" d="M295.907 1085.72c8.785.34 19.431.03 28.452.07l1.217 1.51c-5.707.99-25.383 1.1-30.986-.03z"/><path fill="#fff" d="M307.379 1123.5c7.969.92 6.873-.96 6.776 7.85-.078 7.08.006 14.22-.202 21.32-1.988-.45-3.977-.89-5.965-1.34-1.485-8.1-.657-19.45-.609-27.83m-9.753-.36c.458.12 4.96 1.04 5.047 1.53 1.33 7.56.618 19.99.356 27.43-.481-.06-4.248-.34-4.364-.84-1.538-6.62-1.028-21.76-1.039-28.12m20.813.12c.32.07 4.561.79 4.623 1.47.816 8.92.468 19.14.301 28.19-.638-.19-1.279-.38-1.921-.55-.628-.17-2.511-.67-2.681-1.23-1.355-4.44-.6-23.97-.322-27.88"/><path fill="#ec8a2d" d="M955.98 1120.28c32.825 2.37 69.86-3.15 102.68 2.07 5.73.91-8.74 19.26-10.35 21.04-19.48 14.39-48.312 15.58-70.293 5.35-11.874-5.53-18.04-16.44-22.037-28.46"/><path fill="#38454e" d="M1057.98 1111.54c47.19-28.68 88.73-26.53 141.57-24.42 3.68-.05 6.46-.12 10.16-.43l.5 1.7-1.8.33c-15.17 6.63-42.65 19.74-57.21 24.8-2.58-1.67-3.48-2.18-6.36-.94l-3.71.23c-16.68 0-67.49-.92-80.85 1.69z"/><path fill="#808389" d="m1209.71 1086.69.5 1.7-1.8.33c-3.02-.53-5.84-.98-8.86-1.6 3.68-.05 6.46-.12 10.16-.43"/><path fill="#414e56" d="M108.011 1115.31c4.71-.55 32.431-.4 38.076-.2l.787 2.46c.054 14.04-.095 27.12.187 41.3-5.909-1.46-33.299-1.27-39.618 0-.569-6.79-.984-35.67.753-41.54.214-1.14.293-1.04-.185-2.02"/><path fill="#a1a5a8" d="M108.011 1115.31c4.71-.55 32.431-.4 38.076-.2l.787 2.46c-9.028.11-30.319 1-38.678-.24.214-1.14.293-1.04-.185-2.02"/><path fill="#fff" d="M123.741 1123.27c.633.08 5.849.27 5.947 1.08.949 7.84.402 19.31.288 27.13-.548.02-5.498.62-5.628-.13-1.374-8-.671-20.13-.607-28.08m10.867-.02c7.272 1.05 5.182 1 5.352 9.11.131 6.28.153 13.17-.408 19.39-.547-.08-4.74-.43-4.833-1.38-.805-8.26-.578-18.93-.111-27.12m-20.149-.03c6.738 1.69 4.254 1.99 4.587 10.03.243 5.88.107 12.71-.551 18.52-.745-.17-3.94-.73-4.04-1.32-.991-5.84-.646-22.1.004-27.23"/><path fill="#38454e" d="M1567.6 1085.22c.23 1.05.47 1.39.94 2.41 6.63 1.34 5.06 10.34 5.64 17.13 1.94 1.47 3.98 1.27 6.48 1.67l-.1 3.6c-.18 4.66-2.03 4.68-6.12 5.63-.96.46-.94.57-1.66 1.38-6.39 1.08-32.83 1.23-39.36-.07-2.18-2.34-7.79.49-6.63-3.12.05-2.54.08-5.08.09-7.61.9-.13 3.71-.29 4.4-.91.09-.31-.26-3.72-.08-5.19 1.08-5.2.5-12.05 6.18-12.38l1.43-.11.17-1.61c5.29.05 25.03.68 28.62-.82"/><path fill="#38454e" d="M1526.88 1106.24c.9-.13 3.71-.29 4.4-.91.09-.31-.26-3.72-.08-5.19.1.31.93 3.73 1.56 3.81 12.45 1.62 29.27-1.41 41.42.81 1.94 1.47 3.98 1.27 6.48 1.67l-.1 3.6c-.18 4.66-2.03 4.68-6.12 5.63-.96.46-.94.57-1.66 1.38-6.39 1.08-32.83 1.23-39.36-.07-2.18-2.34-7.79.49-6.63-3.12.05-2.54.08-5.08.09-7.61"/><path fill="#a1a5a8" d="M1526.88 1106.24c.9-.13 3.71-.29 4.4-.91.09-.31-.26-3.72-.08-5.19.1.31.93 3.73 1.56 3.81 12.45 1.62 29.27-1.41 41.42.81 1.94 1.47 3.98 1.27 6.48 1.67-10.66.92-43.22.99-53.78-.19m6.54 10.73c-2.18-2.34-7.79.49-6.63-3.12 4.68 3.04 38.6-.21 47.65 1.81-.96.46-.94.57-1.66 1.38-6.39 1.08-32.83 1.23-39.36-.07m34.18-31.75c.23 1.05.47 1.39.94 2.41-6.44.92-23.3 1.14-29.73.02l.17-1.61c5.29.05 25.03.68 28.62-.82"/><path fill="#38454e" d="M485.076 1086.06q15.034.15 30.066-.18l.221 1.73c8.156 1.65 5.409 8.58 5.413 16.64 1.168 2.52 4.093 1.63 7.14 2.15-.456 3.16.202 7.37-2.876 8.53-2.149.55-4.013.51-5.697 1.89-6.941 1.6-31.509.95-38.895.38l-.513-2.16c-7.163-1.5-7.773-.48-7.118-8.16 2.311-.46 4.302-.56 6.422-1.63-.164-7.85-2.166-15.06 5.469-17.46z"/><path fill="#38454e" d="M479.239 1105.25c6.372-1.53 33.385-.94 41.537-1 1.168 2.52 4.093 1.63 7.14 2.15-.456 3.16.202 7.37-2.876 8.53-2.149.55-4.013.51-5.697 1.89-6.941 1.6-31.509.95-38.895.38l-.513-2.16c-7.163-1.5-7.773-.48-7.118-8.16 2.311-.46 4.302-.56 6.422-1.63"/><path fill="#bdbfc2" d="M479.239 1105.25c6.372-1.53 33.385-.94 41.537-1 1.168 2.52 4.093 1.63 7.14 2.15-15.283.94-39.524 1.03-55.099.48 2.311-.46 4.302-.56 6.422-1.63m.696 9.79c14.609-.32 30.333-.06 45.105-.11-2.149.55-4.013.51-5.697 1.89-6.941 1.6-31.509.95-38.895.38zm5.141-28.98q15.034.15 30.066-.18l.221 1.73c-6.462 1.11-23.942 1.22-30.655.18z"/><path fill="#414e56" d="M499.145 982.622c.893.449 1.417.655 2.401 1.05 3.207 2.011 4.347 2.352 6.041 5.765-.519 5.485-9.979 7.381-3.872 17.253 3.676 5.94-1.632 13.97-.869 20.36 1.182 16.69 10.772 44.08 12.296 58.83q-15.032.33-30.066.18c2.02-16.98 10.489-41.21 12.092-59.48.616-7.02-4.415-14.56-.88-20.46 1.475-2.45 1.589-3.34 2.276-6.11-.733-6.268-4.797-5.2-5.783-11.175 1.523-3.535 3.124-4.102 6.364-6.213"/><path fill="#38454e" d="m1921.42 982.251 2.34.438c2.74 2.022 5.15 3.197 6.13 6.303-.24 5.8-6.23 8.139-5.05 12.628 2.39 9.16 5.6 9.69.23 18.99 3.16 21.86 7.27 43.57 12.32 65.07-8.23.48-20.68.5-28.9.22.49-11.47 10.3-42.89 11.12-56.12.42-6.78-2.3-12.88-1.95-21.11 8.18-12.419-1.25-11.532-1.69-19.339 1.07-3.539 2.73-4.561 5.45-7.08m-1612.183 1.172c1.182-.872 1.052-.895 2.301-1.359l7.745 7.588-7.985 9.344c8.418 18.644.053 12.394 2.589 31.074 2.491 18.35 7.665 37.39 10.472 55.72-9.021-.04-19.667.27-28.452-.07a690 690 0 0 0 12.842-64.53c-1.991-4.01-4.897-8.21-2.448-12.42 5.41-9.294-2.252-14.028-2.699-19.61 1.367-3.552 2.376-3.771 5.635-5.737M107.503 1088.51c3.217-.69 4.992.38 5.064-2.71 9.169 1.33 20.22-.68 29.427 1.02 1.51 1.17 2.247 1.51 3.95 2.47.42.5.839 1 1.258 1.49.61 3.42 1.053 14.85 1.074 14.91.656.42 4.708 1.1 5.866 1.39 1.883 8.85-.579 7.69-8.055 8.03-5.645-.2-33.366-.35-38.076.2-12.183-1.05-11.533-8.31-2.709-8.53.698-.56 1.395-1.11 2.093-1.67-.371-6.07-.262-10.53.108-16.6"/><path fill="#38454e" d="M105.302 1106.78c16.468 1.88 32.496.33 48.84.3 1.883 8.85-.579 7.69-8.055 8.03-5.645-.2-33.366-.35-38.076.2-12.183-1.05-11.533-8.31-2.709-8.53"/><path fill="#a1a5a8" d="M147.202 1090.78c.61 3.42 1.053 14.85 1.074 14.91.656.42 4.708 1.1 5.866 1.39-16.344.03-32.372 1.58-48.84-.3.698-.56 1.395-1.11 2.093-1.67 6.497-.74 32.169-.06 39.787-.02-.162-5.21-.272-9.06.02-14.31m-39.699-2.27c3.217-.69 4.992.38 5.064-2.71 9.169 1.33 20.22-.68 29.427 1.02 1.51 1.17 2.247 1.51 3.95 2.47-12.56-.95-25.808.28-38.441-.78"/><path fill="#38454e" d="m126.368 1000.85 2.378.69c4.756 9.37 5.778 7.33 1.847 17.29-2.276 5.77 4.292 35.59 5.603 42.16l.928 4.5c1.656 7.32 2.819 14.02 4.87 21.33-9.207-1.7-20.258.31-29.427-1.02.904-8.37 3.63-15.69 5.17-23.81 2.574-13.59 6.056-27.51 7.934-41.18-5.125-10.12-5.151-9.18.697-19.96m1428.562 1.92c4.88 6.47 5.75 9.29 1.45 16.55-1.33 2.24 2.69 23.17 3.38 26.69l4.39 23.48c.96 5.29 2.1 10.53 3.45 15.73-3.59 1.5-23.33.87-28.62.82.08-2.62.08-2.97.73-5.56 1.12-4.31 2.15-8.64 3.08-12.99 2.44-11.76 8.04-35.68 8.25-47.97.06-3.75-6.27-6.45-.43-14l.97-1.31c1.19-.48 2.17-.88 3.35-1.44m184.12 2.2c1.78.07 3.02.16 4.8.03l.83 1.42c5.63 9.43-2.12 9.29-1.48 16.57.09.97.82 4.99.98 6l.98 6c.19 1.01.39 2.01.59 3.02l1.38 7.98c.2 1.01.41 2.01.62 3.02l1.47 7.48 1.98 9.5 3.06 14c.39 1.74.89 3.54 1.34 5.27-3.49 1.62-22.86.52-29.77 1.11.97-3.98 2.1-7.87 2.98-11.88l.99-4.5 2-9.5 1.99-9.5 2.02-10c1.36-6.75 2.43-13.55 3.76-20.31-2.82-5.92-7.32-10.43-.52-15.71"/><path fill="#414e56" d="m125.981 982.702 2.25-.264c2.267 2.448 4.704 4.354 7.18 7.004-2.197 3.172-4.885 6.521-6.839 9.583l.174 2.515-2.378-.69c-.311-.982-.406-1.26-.579-2.256-6.422-7.4-8.572-9.863.192-15.892"/><path fill="#5c6269" d="M125.789 998.594c1.292.14 1.567.168 2.783.431l.174 2.515-2.378-.69c-.311-.982-.406-1.26-.579-2.256"/><path fill="#38454e" d="m1553.75 982.979 1.02.27c3.64 3.546 13.12 6.852 1.12 13.166-1.77.166-2.21.109-3.72.563-11.94-6.485-3.36-9.776 1.58-13.999"/><path fill="#414e56" d="M1740.67 982.605c.9-.094.91.006 1.91.287 6.93 6.823 8.41 7.166-.47 14.377l-2.19.711c-7.94-8.496-7.92-7.749-.49-14.266z"/><path fill="#a1a5a8" d="M1032.16 795.845c-.25 7.943-3.41 39.626-2.47 45.182l-.21.381c-.87-4.128-1.05-36.119.29-39.042.84-2.158 1.63-4.332 2.39-6.521"/><path fill="#38454e" d="m1032.04 767.847 2.48.329c-.62 4.71-2.67 23.498-2.36 27.669-.76 2.189-1.55 4.363-2.39 6.521.23-3.9.3-7.729.51-11.629-.16-1.878-.36-1.913.48-3.503.24-7.588.26-11.729 1.28-19.387"/><path fill="#808389" d="M1030.28 790.737c-.16-1.878-.36-1.913.48-3.503.4 1.767.68 2.011-.48 3.503"/><path fill="#a1a5a8" d="M1740.67 982.605c-.27-1.732-1.64-33.456 2.13-23.255.28.731.04 21.342-.22 23.542-1-.281-1.01-.381-1.91-.287"/><path fill="#808389" d="M499.145 982.622c-.112-3.219-1.17-24.212 1.42-25.664 1.682 1.62.877 22.793.981 26.714-.984-.395-1.508-.601-2.401-1.05m1422.275-.371c-.81-6.844-.54-17.563.07-24.47.04-.453 1.45-.872 1.51-.248.8 8.315.22 16.707.76 25.156zm-1795.439.451c.208-6.227-.037-12.56.237-18.715l.102-2.022c.035-.808-.274-4.878 1.578-4.481 1.128 1.78.509 21.364.333 24.954zm183.256.721c-.053-8.059.686-16.347.693-24.444.001-1.141 2.216-1.034 2.066 1.52-.407 6.969.198 14.659-.458 21.565-1.249.464-1.119.487-2.301 1.359"/><path fill="#5c6269" d="M1553.75 982.979c-.86-3.337-2.14-23.632.18-25.064 1.88.375 1.02 22.163.84 25.334z"/><path fill="#bdbfc2" d="M1106.35 1078.35c-3.7 1.4-8.33 3.1-11.9 4.55l-5.46 2.18c-1.72.72-9.08 4.26-10.6 3.28.32-1.2 23.24-10.45 25.84-11.26z"/><path fill="#d4d6d7" d="M1435.27 1435.19c5.34-.35 9.25-.2 14.55 0l-.67 1.64c-5.02.14-10.73.41-15.68.34z"/><path fill="#5c6269" d="M1053.17 1102.25c-3.36 3.79-7.01 7.72-9.91 11.85-.56.8-.98 2.54-2.08 1.8-.32-2.31 8.09-12.68 9.96-14.35z"/><path fill="#414e56" d="M1552.17 996.978c1.51-.454 1.95-.397 3.72-.563-.87 2.707-.76 3.415-.96 6.355-1.18.56-2.16.96-3.35 1.44.5-3.06.54-4.15.59-7.232m189.94.291.16 1.856c.13 2.425.61 3.675 1.58 5.875-1.78.13-3.02.04-4.8-.03.94-3.11.79-3.7.87-6.99zM969.514 1104.27c2.064 2.64 2.233 2.95 4.726 5.15l-1.459.73c-1.997-1.42-3.989-2.77-5.979-4.21zm90.766 10.23c-1.79.25-3.59.45-5.39.6-.56.04-1.86.21-2.02-.51 1.02-1.45 3.56-2.3 5.11-3.05z"/><path fill="#5c6269" d="M607.098 1001.9c6.388-9.257 5.605-5.662 1.243 2.43zM31.335 1437.03c-1.562.01-8.938.44-9.876-.77.286-1.12 2.34-1.15 3.26-1.3z"/><path fill="#414e56" d="m1990.7 1271.71 2.81 1.72c.58.36.61.38.9.91-.09.95-2.06.85-2.69.96l-3.04-.57z"/><path fill="#a1a5a8" d="M974.24 1109.42c4.549 3.92 4.056 6.95-1.459.73z"/><metadata><recraft-signature>{&quot;signed_by&quot;: &quot;recraft&quot;, &quot;signature_b64&quot;: &quot;DCHBbzL+w4jj4/bUhRSQ4VQd8bMt+mDwdLl6l8RwJx0iIGPNjhx5LKDj0DNkT3GcSkrZ6Z5nlmrd/ELiLKMNCQ==&quot;, &quot;signing_algo&quot;: &quot;Ed25519&quot;, &quot;generation_timestamp&quot;: 1777253934, &quot;identifier&quot;: &quot;485cd792-b986-4421-a25d-1323c76eaf3f&quot;}</recraft-signature></metadata></svg>