<svg xmlns="http://www.w3.org/2000/svg" width="1024" height="1024" preserveAspectRatio="none" style="display:block" viewBox="0 0 2048 2048"><defs><linearGradient id="d" x1="273.988" x2="275.012" y1="1346.48" y2="1357.52" gradientUnits="userSpaceOnUse"><stop class="stop0" offset="0" stop-color="#5c7c96"/><stop class="stop1" offset="1" stop-color="#7f8ba4"/></linearGradient><linearGradient id="c" x1="869.571" x2="852.38" y1="997.567" y2="996.359" gradientUnits="userSpaceOnUse"><stop class="stop0" offset="0" stop-color="#14201d"/><stop class="stop1" offset="1" stop-color="#0c1923"/></linearGradient><linearGradient id="b" x1="926.774" x2="932.226" y1="767.928" y2="725.072" gradientUnits="userSpaceOnUse"><stop class="stop0" offset="0" stop-color="#53555f"/><stop class="stop1" offset="1" stop-color="#858284"/></linearGradient><linearGradient id="a" x1="956.955" x2="952.667" y1="810.721" y2="789.442" gradientUnits="userSpaceOnUse"><stop class="stop0" offset="0" stop-color="#a87e68"/><stop class="stop1" offset="1" stop-color="#566d7e"/></linearGradient></defs><path fill="#be8f5b" d="M1202.51 180.662c25.78-11.637 58.3-13.864 83.17 1.289-15.26 32.757-11.6 88.498-11.59 125.27l.11 128.151c.49 94.165-1.63 192.039.81 285.717a424 424 0 0 1 26.87 1.287c-.17 4.113-.24 8.978-.68 13.002-7.82 6.146-17.25 14.346-8.26 25.055 10.13 12.055 26.24 18.424 38.3 29.006-.98 15.338-.52 34.022-.12 49.482 30.42 1.568 61.97-2.188 85.12 21.023 4.34 4.352 9.49 16.079 13.3 18.267l1.56-.896c.13-5.679-2.69-10.479-1.49-14.328 2.68-1.102 1.28-.907 4.31.024l2.89.792c1.52 5.539 1.08 8.422 2.01 13.883 18.39-.017 37.35 9.256 40.67-12.072l2.73.117c3.54 4.578-.47 14.272 2.31 15.681 9.63 4.88 19.02 8.935 28.46 14.346 3.23-4.354 6.03-8.67 10.15-12.141 2.16.117 1.6-.076 3.58.627.95 5.74-2.21 9.33-5.4 14.549 6.65 5.799 19.25 17.285 25.24 23.273 4.58-4.525 8.13-10.65 13.16-5.651l2.42 2.447c-.89 3.73-6.28 7.851-9.33 10.738 5.8 11.577 11.62 24.011 16.07 36.17 6.52-2.239 10.41-4.756 16.39-1.841 3.14 7.077-8.11 9.346-13.12 11.053 2.26 10.255 4.25 19.348 5.85 29.778 4.87-.3 18.91-.16 22.76-1.64 7.23-2.76 18.8-15.904 28.69-6.295 8.45 8.195 10.06 49.385-9.92 46.305-10.19-1.48-14.79-6.4-22.72 1.51-20.95 18.35-39.26 37.7-60.24 56.34l-1.79-.7c-4.52 2.68-67.4 1.72-79.39 1.75-59.25-.21-118.5.12-177.74 1-3.72 2.99-18.83.9-24.32 1.61-46.17 1.04-95.16.45-141.41.42l-261.909-.12a14522 14522 0 0 1-204.504 1.01c-7.252-.02-49.967.58-54.286-.95-6.944-.44-14.277-1.1-21.176-.68-4.607.87-4.366.95-8.709-.69-1.322-1.52-14.894-9.48-17.892-11.38-16.138-10.23-27.932-16.78-41.124-30.82-13.03-.32-28.86 1.48-43.198 1.34-.634-8.76-.601-16.88-.367-25.64 13.121-.51 27.268-.45 40.472-.62 1.38-14.67 2.105-30.33 2.964-45.062-5.221-1.916-20.34-5.547-20.077-12.415 5.513-3.615 16.685.689 22.636 2.348 4.768-14.743 11.112-27.164 18.495-40.649-4.979-3.491-18.262-10.561-12.977-18.162 1.051-1.513 1.223-.985 3.135-1.231 5.069 2.11 10.656 8.086 15.213 11.884 10.041-11.586 21.26-23.46 33.592-32.596-3.194-4.249-7.338-8.532-7.677-13.538 1.736-3.969 1.795-3.014 6.202-5.853 2.901 4.678 6.087 8.876 9.338 13.308 13.425-7.282 25.683-12.524 39.75-18.161-1.163-3.577-4.411-11.319-3.915-14.398l2.383-.877 3.283-.495c1.858-.707 1.166-.481 3.324-.333 2.153 2.593 2.969 9.551 3.741 13.217 14.737-3.974 30.266-5.107 45.45-5.462-.104-6.385-1.464-14.717 4.802-18.403l1.35.446c4.931 5.427 3.558 10.34 3.213 17.826 15.146 1.402 26.248 3.827 40.515 8.898q.345-1.344.707-2.683c1.45-5.373 1.311-7.254 5.996-9.946 7.302 2.384 3.73 12.559 2.521 18.08 7.695-.552 12.335-1.462 19.963-3-.338-12.29-.013-24.242-.502-36.787-9.72 1.655-15.295 2.764-24.693 5.541l-.2-14.265c43.025-8.866 88.005-19.398 130.931-29.03q.267-21.686-.298-43.366c-8.561-.021-18.623.132-27.209-.407-2.458-.155-2.758-1.489-4.206-3.469.112-7.63 10.134-10.435 16.471-11.753 27.157-5.643 54.511-14.136 81.605-19.292 10.952-2.084 32.852-.125 44.898.325l68.829 2.305.34-251.992-.1-94.494c-.04-38.046 1.93-77.697-10.33-114.135-6.67-19.815 81.69-17.762 76.88-3.688-6.53 19.102-7.86 34.126-8.42 54.654-.93 33.695-.27 67.11-.26 100.65l.54 176.864c.42 47.987-2.09 102.025.14 149.601 25.14-.233 76.24.861 100.42 4.038l-.27 14.438c-.2 2.335-.01 2.374.62 4.818 34.13-19.623.55-30.606 1.53-44.454 4.56-5.986 17.15-4.478 24.02-4.403l.06-272.111.05-116.035c.18-53.132 2.64-100.525-11.49-152.144"/><path fill="#617386" d="M1015.98 1024c7.45-32.12 10.99-66.378 17.47-98.798 3.14-15.689 4.75-33.921 10.37-48.865 22.2-58.975 76.22-49.341 126.4-45.283l78.78 5.985q41.475 2.462 82.98 4.461c34.43 1.806 71.81-2.729 90.17 31.255 1.37 2.548 4.76 7.008 6.95 8.817l.48 1.354c-.06 2.251.28 2.396.99 4.693l2.18 7.295c.71 5.667 2.67 11.418 3.45 17.163 2.04 13.317 4.15 28.747 7.06 41.86 4.01 18.09 8.72 34.919 11.58 53.403-6.2 4.05-168.65 7.35-188.63 7.96z"/><path fill="#be8f5b" d="M1250.28 846.621c39.03-3.953 73.87 24.515 77.78 63.555 3.9 39.041-24.61 73.843-63.66 77.698-38.97 3.848-73.7-24.602-77.6-63.573-3.89-38.971 24.51-73.734 63.48-77.68"/><path fill="#617386" d="M1196.29 887.156c30.44-51.201 94.52-52.474 122.94 1.254.7 1.134.79 1.217 1.27 2.386 13.8 33.219-3.98 76.743-36.24 89.674-56.51 22.66-111.05-31.905-90.07-88.933.74-1.707 1.17-2.739 2.1-4.381"/><path fill="#be8f5b" d="M1318.53 892.178c-4.99 12.252-17.56 1.282-1.67-3.597.42 1.119 1.15 2.531 1.67 3.597"/><path fill="#d19f66" d="M1198.32 888.56a3.835 3.835 0 0 1 4.44.2 3.85 3.85 0 0 1 1.28 4.262 3.85 3.85 0 0 1-3.61 2.607 3.83 3.83 0 0 1-3.64-2.545 3.83 3.83 0 0 1 1.53-4.524"/><path fill="#7d7b7d" d="M1194.19 891.537c.74-1.707 1.17-2.739 2.1-4.381l2.03 1.404a3.83 3.83 0 0 0-1.53 4.524c-1.22-.85-1.24-.978-2.6-1.547"/><path fill="#8a775e" d="M1319.23 888.41c.7 1.134.79 1.217 1.27 2.386-1.12.396-.99.438-1.97 1.382-.52-1.066-1.25-2.478-1.67-3.597z"/><path fill="#617386" d="M1310.79 924.616c-15.37 62.887-94.16 57.915-106.65 3.774a50.02 50.02 0 0 1 6.85-38.822c27.84-42.467 89.94-31.585 99.72 20.307.67 4.317.48 10.442.08 14.741"/><path fill="#be8f5b" d="M1310.79 924.616c-15.37 62.887-94.16 57.915-106.65 3.774a50.02 50.02 0 0 1 6.85-38.822c27.84-42.467 89.94-31.585 99.72 20.307l-3.18 1.09c-3.31-26.836-27.01-46.413-53.98-44.59-26.98 1.823-47.83 24.411-47.49 51.448s21.75 49.095 48.76 50.242c27.02 1.147 50.22-19.018 52.85-45.929.69.602 2.4 2.275 3.12 2.48"/><path fill="#d19f66" d="M1310.71 909.875c.67 4.317.48 10.442.08 14.741-.72-.205-2.43-1.878-3.12-2.48a51.5 51.5 0 0 0-.14-11.171z"/><path fill="#be8f5b" d="M1229.57 857.63c6.66 2.75 5.64 5.379.76 8.919-3.26-2.001-9.34-3.827-3.78-7.132z"/><path fill="#d19f66" d="M1282.19 859.646c7.14-.223 10.31.185 7.04 7.623-4.2-.642-9.41-1.027-7.42-6.497z"/><path fill="#be8f5b" d="M1315.78 934.231c6.11 2.219 3.31 5.583.73 10.785-6.61-4.41-5.23-4.109-.73-10.785m-84.23 33.383c4.71 2.25 4.86 4.446 1.24 8.215l-1.3 1.424c-6.24-4.306-5.47-4.416.06-9.639"/><path fill="#d19f66" d="M1198.47 935.359c2-.513 4.05.654 4.63 2.637a3.828 3.828 0 0 1-6.29 3.867 3.85 3.85 0 0 1-1.1-3.746 3.84 3.84 0 0 1 2.76-2.758m86.92 32.782a3.81 3.81 0 0 1 4.26 2.094 3.82 3.82 0 0 1-1.09 4.615 3.804 3.804 0 0 1-6.11-3.589 3.79 3.79 0 0 1 2.94-3.12"/><path fill="#0b1c26" d="M1016.57 1058.51c91.37-1.09 188.7-6.01 280.17-9.67l303.17-10.8c-17.31 15.93-34.01 32.54-51.28 48.52-4.77 4.42-9.6 8.79-13.85 13.72-4.52 2.68-67.4 1.72-79.39 1.75-59.25-.21-118.5.12-177.74 1-5.01-.76-24.3-.33-30.11-.29l-58.16.32c-69.28.02-143.06-1.13-212.069.51 16.015-14.5 28.749-26.07 39.259-45.06M736.009 839.373c58.682-14.926 117.211-26.086 176.641-39.28 53.757-11.934 111.14-27.603 165.75-35.686 16.97-2.511 54.05.703 72.38 1.652 5.71 1.153 9.49.746 15.16 1.679-1.43 1.931-1.23 2.209-3.37 3.019 1.87.189 3.74.334 5.62.435-1.25 5.545-1.25 6.675-1.05 12.387l-1.08.755c.16 8.048.66 27.101-.06 34.553-.56.941-1.14 1.876-1.72 2.805 4.46.982 3.01 1.115 4.63 5.523-21.01-.164-45.17-3.513-65.1-1.452-11.06 1.143-35.54 7.455-46.17 11.44-5.09 1.906-11.07 9.146-19.64 10.792l-238.047 44.863-62.381 11.792c-12.565 2.31-30.292 5.019-42.22 8.449 4.011-7.069 10.876-19.927 16.313-25.286l189.333-36.419 69.422-12.937c12.047-2.251 30.32-5.364 41.66-8.422-1.8-.3-3.5-.593-5.32-.803l-12.888 2.589c-.596-7.905-.644-19.798-.558-27.818-6.999 3.779-10.892 2.783-18.749 3.893l-1.775-1.296c-.221 9.403-.631 19.566-.577 28.909l-22.049 4.275-.326-29.397c-4.817.817-17.065 2.516-20.801 4.379.401.827.805 1.889 1.431 2.523.05-.133.467-1.23.536-1.461 2.532 9.592-1.072 24.234 2.725 26.737-1.67.436-2.766.574-4.464.825-6.812 1.685-13.467 2.971-20.346 4.332-5.405-.064-13.37 2.033-19.307 2.738-.331-3.706-1.402-22.729-.864-26.135l-1.695-1.382c-2.261 5.732-.456 21.796.052 28.756-6.521 1.519-18.429 5.572-25.002 3.343-1.475-.5-1.468-4.486-1.551-6.046-.322-.528-.547-.922-.978-1.312-.591.98-.452 4.82-.523 6.173-2.855 3.107-6.191 3.398-10.379 4.434-2.215.879-6.211 1.339-8.774 1.916a1317 1317 0 0 0-17.042 3.527c-3.924-.152-16.742 3.048-21.968 3.762-6.319 1.63-12.308 2.795-18.701 4.059-6.768.852-12.968 2.6-19.619 3.584l-2.336.367-14.155 2.916c.028-11.916.359-24.917-.544-36.723-2.857-2.707-5.724-2.293-9.524-2.326"/><path fill="url(#a)" d="M736.009 839.373c58.682-14.926 117.211-26.086 176.641-39.28 53.757-11.934 111.14-27.603 165.75-35.686 16.97-2.511 54.05.703 72.38 1.652 5.71 1.153 9.49.746 15.16 1.679-1.43 1.931-1.23 2.209-3.37 3.019-21.9-.129-66.81-4.681-85.85-2.362-14.8 1.801-54.14 11.758-70.6 15.336a9399 9399 0 0 0-165.86 36.854c-14.651 3.254-86.918 16.101-94.045 20.081l-.682 1.033c-2.857-2.707-5.724-2.293-9.524-2.326"/><path fill="#617386" d="M1114.06 781.897c8.77.141 13.63.55 22.22 1.247.67 11.968.56 22.912.82 34.791-8.64-1.128-14.42-1.094-23.2-.896zm-29.63-.73c8.39-.318 13.91-.392 22.34.008.5 11.96.19 23.9.59 35.814-8.42-1.426-14.1-.602-22.33-2.092-.6-9.449-.6-23.987-.6-33.73"/><path fill="#d19f66" d="M1054.2 790.424c7.83-2.281 15.6-4.176 23.47-6.594.37 11.782.5 22.847 1.08 34.694-6.3-.043-18.93-.417-24.64.508-.38-9.072-.17-19.501.09-28.608"/><path fill="#617386" d="M1144.53 783.715c6.5.199 15.2.691 21.53.619.16 8.048.66 27.101-.06 34.553-6.27-1.54-15.59-1.382-21.89-.776.3-11.449.17-22.922.42-34.396m-333.195 53.851c1.765-.81 1.895-.596 4.098-.961l6.438-1.109c.132 10.027.189 18.247.985 28.238-3.924-.152-16.742 3.048-21.968 3.762-.329-5.461-2.021-22.798-.895-27.396 4.071-1.952 6.877-2.062 11.342-2.534"/><path fill="#7d7b7d" d="M799.993 840.1c4.071-1.952 6.877-2.062 11.342-2.534l1.485 1.052c.077-.138-11.127 3.395-11.204 3.4-.696-.352-1.201-1.315-1.623-1.918"/><path fill="#617386" d="M760.073 848.583c6.988-1.606 13.957-3.046 21.029-4.272l1.085 27.244c-6.768.852-12.968 2.6-19.619 3.584l-2.336.367q-.183-13.461-.159-26.923m79.095-17.006c7.296-.937 13.816-2.084 21.019-3.296.103 4.462.834 17.303.365 20.715-.322-.528-.547-.922-.978-1.312-.591.98-.452 4.82-.523 6.173-2.855 3.107-6.191 3.398-10.379 4.434-2.215.879-6.211 1.339-8.774 1.916-.142-9.604-.594-19.059-.73-28.63"/><path fill="#718498" d="M859.051 853.857c-2.855 3.107-6.191 3.398-10.379 4.434 2.512-6.713 3.189-5.72 10.379-4.434"/><path fill="#617386" d="M905.895 819.928c3.927-2.176 1.328 22.193 2.472 24.079-.486-.801.552 3.715.552 3.715-5.405-.064-13.37 2.033-19.307 2.738-.331-3.706-1.402-22.729-.864-26.135 4.803-.218 13.009-1.646 17.147-4.397"/><path fill="#be8f5b" d="m1006.5 800.513 1.28-.221c5.02-.827 10.02-1.966 15.03-2.884.17 7.325-.3 21.589.9 28.076l.42 2.499-6.62 1.13c-1.82.31-3.58.738-5.43.922-1.8-.3-3.5-.593-5.32-.803 0-9.574-.09-19.147-.26-28.719m23.63-4.751c6.09-1.181 9.54-1.921 15.6-3.433.07 4.77-.43 26.863 1.32 29.811l.78 1.619c-5.5.676-10.92 1.836-16.37 2.776l-.84-2.281c.24-9.225-.22-19.223-.49-28.492"/><path fill="#9f7b55" d="M1085.03 814.897c8.23 1.49 13.91.666 22.33 2.092q3.27.075 6.54.05c8.78-.198 14.56-.232 23.2.896 2.38.088 4.63.167 7.01.176 6.3-.606 15.62-.764 21.89.776-.56.941-1.14 1.876-1.72 2.805-25.56-2.513-52.63-.853-78.21-3.941-.58-.071-.79-1.298-.85-1.735z"/><path fill="#718498" d="M929.037 814.766c.401.827.805 1.889 1.431 2.523.05-.133.467-1.23.536-1.461 2.532 9.592-1.072 24.234 2.725 26.737-1.67.436-2.766.574-4.464.825-.089-9.42-.295-19.244-.228-28.624"/><path fill="#9f7b55" d="M1054.11 819.032c5.71-.925 18.34-.551 24.64-.508-10.14 1.682-20.86 3.347-30.92 5.235l-.78-1.619c3.19-1.029 4.66-.829 7.06-3.108"/><path fill="#7d7b7d" d="M972.79 806.6c3.6-1.368 17.388-4.441 20.524-2.597-6.999 3.779-10.892 2.783-18.749 3.893zm-85.737 16.343c3.937-1.661 14.462-2.956 18.842-3.015-4.138 2.751-12.344 4.179-17.147 4.397z"/><path fill="#9f7b55" d="M1023.71 825.484c2.36-.452 4.54-.868 6.91-1.23l.84 2.281c-2.48.456-4.86.948-7.33 1.448z"/><path fill="#0b1c26" d="M509.988 1066.05c10.396.79 28.037-.83 38.996-1.53l56.39-3.32 263.014-17.09 77.785-5.35c15.023-1.09 37.991-3.47 52.239-2.66 5.978 3.88 18.308 11.48 14.898 19.45-6.62 2.41-72.142 6.65-83.256 7.49l-251.883 17.86a5544 5544 0 0 0-83.457 6.03c-13.758 1.02-32.83 1.48-45.667 4.36 15.201 1.21 35.573-.86 51.2-2.05l72.354-5.35 224.457-15.66c38.333-2.86 77.796-6.67 116.032-8.92-6.71 14.61-26.587 32.4-38.766 43.81l-253.16.83c-32.452-.21-64.906.01-97.353.65-8.345.17-25.377-.3-32.59.4-6.944-.44-14.277-1.1-21.176-.68-18.093-8.16-44.053-26.84-60.057-38.27"/><path fill="#617386" d="M1194.04 731.893c29.62.338 70.39-2.977 99.12.273.21 1.086.95 1.366 1.84 1.991l2.19.476c-2.02 1.619-3.84 3.335-5.89 4.895-19.67 29.508 34.66 38.275 38.04 54.842-1.75 9.173-.94 34.56-.72 44.426-11.22-1.797-46.1-2.57-59.44-3.293-32.75-2.021-65.48-4.4-98.18-7.136.14-10.746.55-29.125-1.1-39.37l.09-1.925c.08-2.283-.18-3.616 1.13-5.412 17.28-5.7 50.98-25.131 27.62-45.111l-1.4-1.256z"/><path fill="#0b1c26" d="M1197.34 735.293c3.94.349 11.81 3.448 13.05 8.088 7.2 27.012-19.76 35.868-40.49 45.616l.09-1.925c.08-2.283-.18-3.616 1.13-5.412 17.28-5.7 50.98-25.131 27.62-45.111zm90.58 2.167c1.13.68 2.26 1.37 3.38 2.068-19.67 29.508 34.66 38.275 38.04 54.842-8.6-3.04-29.09-17.864-36.79-23.454-11.35-8.23-14.39-22.764-4.63-33.456"/><path fill="#0b1c26" d="m1295 734.157 2.19.476c-2.02 1.619-3.84 3.335-5.89 4.895-1.12-.698-2.25-1.388-3.38-2.068 2.53-1.352 4.45-2.208 7.08-3.303M736.009 839.373q-2.593.75-5.203 1.442c-4.233 1.113-5.837 1.81-9.777-.508l.117-1.508c9.565-7.268 100.737-24.327 120.446-28.444a9305 9305 0 0 0 104.186-23.01c42.154-9.287 85.562-19.058 127.802-28.249 7.93-1.724 33.79 1.334 43.41 1.838 16.86.883 37.26.067 53.71 1.89l2.01 1.439c1.09.765.87.157 1.72 1.108-.04.02-20.69.324-23.65.688-18.33-.949-55.41-4.163-72.38-1.652-54.61 8.083-111.993 23.752-165.75 35.686-59.43 13.194-117.959 24.354-176.641 39.28"/><path fill="#be8f5b" d="M1545.59 931.417c8.74 13.857 12.67 23.985 18.2 39.407-29.71 9.454-56.92 15.925-85.37 29.097-1.14.419-2.27.829-3.4 1.249-3.98 1.39-7.93 2.86-11.86 4.39l-.42-2a685 685 0 0 0 32.45-14.118c-1.58-2.686-2.25-4.422-4.22-6.946 1.32-7.28-.46-5.618 6.38-11.135a2186 2186 0 0 0 48.24-39.944"/><path fill="#f9f6f5" d="M1544.86 936.878c5.04 4.49 12.53 24.733 14.82 31.357-15.51 6.068-37.08 11.807-53.46 16.725-10.16 3.228-8.17 4.009-12.34-5.159 16.96-15.047 32.7-29.152 50.98-42.923"/><path fill="#1e2322" d="m1433.92 863.011 2.89.792c1.52 5.539 1.08 8.422 2.01 13.883 18.39-.017 37.35 9.256 40.67-12.072l2.73.117c3.54 4.578-.47 14.272 2.31 15.681 9.63 4.88 19.02 8.935 28.46 14.346 3.23-4.354 6.03-8.67 10.15-12.141 2.16.117 1.6-.076 3.58.627-17.38 26.876-32.7 55.847-49.39 81.358l-2.11.118-.8-1.34c1.82-4.381 6.89-9.439 10.04-14.95 9.37-16.373 18.68-32.793 28-49.197-12.18-6.998-20.06-10.272-33.33-14.976-2.31 11.036-12.3 69.701-15.81 74.986-1.48-13.317 11.24-59.365 13.31-75.995-12.56-2.099-24.73-4.569-37.39-2.061 1.5 12.165 9.53 65.292 8.26 73.301l-1.11-.46c-3.02-10.692-5.64-34.554-6.99-45.757l-3.2 2.806c-.78-5.745-2.74-11.496-3.45-17.163l-2.18-7.295c-.71-2.297-1.05-2.442-.99-4.693l-.48-1.354 1.45-1.856c2.89.237 1.95.587 4.26-.491 1.43-5.506-2.89-10.644-.89-16.214"/><path fill="#d19f66" d="m1429.58 882.926 1.68-.142c3.17-.541 3.86-1.023 4.99 1.886 1.59 8.296 2.07 16.34 3.15 24.601l-3.2 2.806c-.78-5.745-2.74-11.496-3.45-17.163l-2.18-7.295c-.71-2.297-1.05-2.442-.99-4.693"/><path fill="#1e2322" d="M1546.56 922.066c4.58-4.525 8.13-10.65 13.16-5.651-2.52 5.962-5.88 9.045-10.51 13.585 7.07 11.121 12.99 26.574 17.96 38.977 4.18-1.082 12.48-3.717 16.23-2.643-2.64 3.185-10.78 5.564-15 7.034 1.97 7.684 5.91 23.16 4.78 30.912-3.59-7.083-5.37-22.208-7.63-30.476-11.64 3.34-58.27 15.782-66.4 20.84l-1.15 2.417c-3.85-1.499-12.61 2.863-16.28 4.779-1.2-.65-2.13-1.21-3.3-1.919 28.45-13.172 55.66-19.643 85.37-29.097-5.53-15.422-9.46-25.55-18.2-39.407a2186 2186 0 0 1-48.24 39.944c-6.84 5.517-5.06 3.855-6.38 11.135-.74-.772-1.42-1.458-2.13-2.269 1.62-2.679.99-1.256.69-5.164 16.5-15.709 37.64-29.914 53.39-45.841l.1-1.459 2.55-2.455c.35-1.108.68-2.12.99-3.242"/><path fill="#7f6648" d="M1546.56 922.066c4.58-4.525 8.13-10.65 13.16-5.651-14.1 4.505-8.54 10.092-16.8 12.807l.1-1.459 2.55-2.455c.35-1.108.68-2.12.99-3.242"/><path fill="#0b1c26" d="M1194.04 731.893c-1.22-2.956-1.19-2.727-.75-5.895 4.53-4.404 98.98-4.068 104.92.505.28 2.54.4 3.829.39 6.376l-1.41 1.754-2.19-.476c-.89-.625-1.63-.905-1.84-1.991-28.73-3.25-69.5.065-99.12-.273"/><path fill="#718498" d="M1293.16 732.166c2.68.034 2.8.094 5.44.713l-1.41 1.754-2.19-.476c-.89-.625-1.63-.905-1.84-1.991"/><path fill="#617386" d="M993.314 804.003c-.086 8.02-.038 19.913.558 27.818-6.069.303-14.59 2.514-20.592 3.954 1.448-10.376 1.749-17.281 1.285-27.879 7.857-1.11 11.75-.114 18.749-3.893"/><path fill="#f9f6f5" d="M1135.21 749.769c15.41-.492 35.42.418 50.72 2.284q.165 5.393-.03 10.784l-1.46.835c-4.95-4.759-8.88-2.81-16.61-4.399-7.76 1.416-15.27 1.319-23.14-.165-4.21-.245-6.28-.229-10.41-1.18.59-3.164.72-4.93.93-8.159"/><path fill="#d19f66" d="M1144.69 759.108c6.57-.237 14.32.585 20.42-.641.97-.195.31-4.784 1.2-5.223 2.59-1.277 1.54 5.599 1.52 6.029-7.76 1.416-15.27 1.319-23.14-.165"/><path fill="#617386" d="M931.004 815.828c2.921-.955 9.439-1.755 11.563-2.946 7.588-4.257 4.909 20.066 4.933 26.658-4.538 1.246-9.122 2.273-13.771 3.025-3.797-2.503-.193-17.145-2.725-26.737"/><path fill="#f9f6f5" d="M1103.34 756.534c-3.19.592-10.65.122-13.93-.884-.59-.181-1.48-7.359-.31-7.411 14.39-.634 29.79.193 44.31.96l1.8.57c-.21 3.229-.34 4.995-.93 8.159l-1.86-.248c-6.32.521-19.99.361-26.17-.625z"/><path fill="#afa7a1" d="m1133.41 749.199 1.8.57c-.21 3.229-.34 4.995-.93 8.159l-1.86-.248q.45-4.245.99-8.481"/><path fill="#d19f66" d="M1103.34 756.534c1.34-9.005 2.43-7.494 2.91.521z"/><path fill="#0b1c26" d="M1456.75 961.13c6.12 1.797 10.36 4.404 16.22 5.772 14.18 3.31-.09 15.659-3.4 19.582-3.63.026-3.71.456-6.49-1.7.87-2.249 7.32-15.651 6.3-16.755-4.65-1.482-8.65 22.74-13.76 24.951-5.26-4.394 5.89-21.918.89-31.082zm1.39 42.62.65-.93c1.69-2.47 5.45-7.02 8.26-8.124 8.2-3.211 14.72-9.395 21.79-14.469.71.811 1.39 1.497 2.13 2.269 1.97 2.524 2.64 4.26 4.22 6.946a685 685 0 0 1-32.45 14.118c-1.53.02-3.07.09-4.6.19M611.572 860.613c2.208 3.423 4.22 14.302 5.639 18.794 5.952 18.832 11.036 38.098 16.266 57.152.329 1.2 4.358 11.963.759 10.901-1.35-.398-2.657-6.445-3.058-7.458-2.733-12.068-6.519-24.108-9.923-36.02-1.904-7.03-4.335-13.485-6.053-20.479.146-3.927-2.061-6.563-3.071-10.02-.844-2.89-.984-6.534-2.548-9.207-.997-1.703-1.008-1.363-1.294-3.168z"/><path fill="#1e2322" d="M1481.72 1001.84c3.67-1.916 12.43-6.278 16.28-4.779.74 3.839.82 5.079 1.1 8.999-5.21.99-38.05 3.19-41.74.56.25-.96.51-1.92.78-2.87 1.53-.1 3.07-.17 4.6-.19l.42 2c3.93-1.53 7.88-3 11.86-4.39 1.13-.42 2.26-.83 3.4-1.249 1.17.709 2.1 1.269 3.3 1.919"/><path fill="#0b1c26" d="M1481.72 1001.84c3.67-1.916 12.43-6.278 16.28-4.779.74 3.839.82 5.079 1.1 8.999-9.44-.79-12.23 2.79-17.38-4.22"/><path fill="#8a775e" d="M1458.14 1003.75c1.53-.1 3.07-.17 4.6-.19l.42 2c-2.29 1.33-3.09.96-5.8 1.06.25-.96.51-1.92.78-2.87"/><path fill="#1a2e3b" d="M1170.7 762.824c4.93.506 8.64 1.514 13.32 1.852l.07 3.991c-1.31 1.548-1.57 1.786-3.09 3.173-3.84-.066-7.41-.115-11.26-.04l-1.55-.608c-1.88-.101-3.75-.246-5.62-.435 2.14-.81 1.94-1.088 3.37-3.019-5.67-.933-9.45-.526-15.16-1.679 2.96-.364 23.61-.668 23.65-.688-.85-.951-.63-.343-1.72-1.108z"/><path fill="#9f7b55" d="M1165.94 767.738c6.67.315 11.43.912 18.15.929-1.31 1.548-1.57 1.786-3.09 3.173-3.84-.066-7.41-.115-11.26-.04l-1.55-.608c-1.88-.101-3.75-.246-5.62-.435 2.14-.81 1.94-1.088 3.37-3.019"/><path fill="#1e2322" d="M1543.02 927.763c-.61-.624-36.88-34.791-21.15-24.579 5.43 3.529 18.57 16.846 23.7 22.124z"/><path fill="#0b1c26" d="M1449.11 958.807c2.57.751 5.18 1.357 7.64 2.323l-.24.768c-.47.73-2.64 15.282-3.64 19.105-2.19-7.213-3.71-13.597-5.5-20.868z"/><path fill="#1e2322" d="m1166.06 784.334 1.08-.755c.91 3.788 1.76 38.445 1.77 43.636-1.62-4.408-.17-4.541-4.63-5.523.58-.929 1.16-1.864 1.72-2.805.72-7.452.22-26.505.06-34.553"/><path fill="#f9f6f5" d="M1169.74 771.8c3.85-.075 7.42-.026 11.26.04l1.21 1.563c-4.4 2.864-7.21 4.737-11.09 8.257-2.37-3.603-1.34-5.454-1.38-9.86"/><path fill="#1e2322" d="M1453.12 1003.56c2.62-5.346 6.96-13.723 9.96-18.776 2.78 2.156 2.86 1.726 6.49 1.7-4.87 6.033-10.78 11.816-16.45 17.076"/><path fill="#f8f0e9" d="m1184.44 763.672 1.46-.835c.07.45.24 2.238.69 2.609.51.072.53-.091 1.13-.455-.2 2.335-.01 2.374.62 4.818-1.9 1.385-4.06 2.435-6.13 3.594l-1.21-1.563c1.52-1.387 1.78-1.625 3.09-3.173l-.07-3.991z"/><path fill="#7f6648" d="m1446.39 955.028 1.11.46 1.61 3.319-1.74 1.328c-.42-2.384-.14-2.735-.98-5.107"/><path fill="#0b1c26" d="M657.775 921.634c10.503-.949 19.823-2.835 30.073-4.762 101.942-19.162 203.891-38.395 305.779-57.861 14.343-2.739 28.873-5.899 43.363-7.492-20.87 25.235-31.29 60.707-43.317 91.746-1.356-.728-1.376-.821-2.809-1.104-12.383-.286-39.553 4.151-51.215 7.494-31.687 31.983-20.774 72.015-27.891 81.185l-2.659-.15c-2.561-13.4 4.179-57.697 13.895-69.18 3.001-3.548 5.15-6.705 8.591-10.223-18.647 1.636-33.86 3.995-52.323 7.123l-4.502 3.818c-1.776-.614-1.961-.719-3.697-1.558-9.516.076-47.015 3.683-55.446 7.009-2.837-1.043-2.765-1.405-5.345.228-12.599.697-39.542 4.267-52.274 6.826-10.299 12.199-14.147 20.017-18.723 35.477-2.138 7.23-1.411 28.48-3.844 31.24-4.037.21-2.511.88-5.089-1.09.273-25.73 3.603-43.764 19.931-64.503-12.06 1.126-41.508 3.941-51.875 7.876l-.957 1.036c-8.159 8.985-8.826 13.079-13.37 23.811-3.465 8.18-2.288 34.37-7.071 37.13l-3.234-.25c-2.071-2.54-2.23-3.97-1.699-7.56 3.24-21.92 5.674-35.85 18.189-54.072-12.913.662-33.921 2.372-46.073 6.566-3.624-.905-3.412-.953-7.186-.344-1.561-.964-.843-.317-2.028-2.071 6.918-23.555 14.65-43.396 22.806-66.345"/><path fill="#d19f66" d="M963.909 895.421c12.541-1.324 10.146 3.918 9.607 15.792-.662 14.581 4.071 16.569-8.307 19.042-2.099-.019-11.84.916-11.959-3.239-.274-9.609-.898-20.598.194-30.077.145-1.256 9.41-1.433 10.465-1.518"/><path fill="#0b1c26" d="M966.765 898.406c1.026.061 3.03.224 3.139 1.613.37 4.723 1.094 21.873-.351 25.468-2.198 1.612-7.54 1.523-10.333 1.719-5.286-4.694-3.047-20.946-2.559-27.594.059-.812 8.984-1.122 10.104-1.206"/><path fill="#d19f66" d="M919.354 899.372c6.096-.305 11.855-.42 17.959-.51.355 4.886 2.581 31.866-1.527 33.92-6.477.219-11.846.323-18.324.107-.4-5.419-2.21-31.387 1.892-33.517"/><path fill="#0b1c26" d="M922.376 902.385c2.124-.113 10.905-.833 11.434-.004 1.597 2.505 1.871 24.723-.155 27.386q-6.416.27-12.838.246c.01-5.03-1.206-25.287 1.559-27.628"/><path fill="#d19f66" d="M870.226 907.43c5.874-.432 11.411-.454 17.296-.521.384 4.729 1.969 29.425-.739 32.072-6.861 1.153-10.663 1.256-17.624 1.471-.126-5.668-1.132-29.984 1.067-33.022"/><path fill="#0b1c26" d="M872.009 910.177c4.351-.162 8.326-.278 12.69-.242.172 5.678.673 20.912.014 26.067-5.41.97-7.26 1.052-12.679 1.374-.037-8.985-.143-18.237-.025-27.199"/><path fill="#d19f66" d="M709.984 935.301c15.861-.551 21.527-3.719 19.995 15.212-.376 4.65.868 10.553-.6 15.069-7.055.425-11.821.859-18.8 1.58-.045-10.612-.824-21.466-.595-31.861"/><path fill="#0b1c26" d="M713.582 938.277a227 227 0 0 1 12.43-.196c.263 8.018.175 15.975.185 23.997-2.193.332-10.941 1.739-11.617.387-.898-1.794-.909-21.375-.998-24.188"/><path fill="#d19f66" d="M740.976 931.367a249 249 0 0 1 17.72-.798c1.441 9.474 2.319 21.618-.307 30.892-17.462 2.946-18.022 1.773-17.478-15.108.158-4.886-.108-10.05.065-14.986"/><path fill="#0b1c26" d="M750.005 933.033c.599.032 6.084-.175 6.29 1.299.967 6.943.812 15.247.185 22.25-.101 1.129-4.457 2.739-5.014 2.986-10.155-1.574-6.288-4.063-6.856-15.069-.486-9.406-2.169-9.611 5.395-11.466"/><path fill="#d19f66" d="M826.213 917.377c13.379-.164 8.711 5.165 9.534 18.124.823 12.965 1.005 11.349-9.994 11.786-3.489.29-5.234.242-8.711.15-.032-5.134-.709-23.554.644-28.719.258-.985 7.067-1.206 8.527-1.341"/><path fill="#0b1c26" d="M820.132 920.217c2.208-.079 10.328-.75 11.4.597 2.018 2.537 1.226 19.897 1.138 23.163-2.509.12-11.495.92-12.059-.446-.9-2.182-.542-20.243-.479-23.314"/><path fill="#d19f66" d="M785.344 921.37c13.999-.41 16.976-2.031 16.497 13.972-.115 3.863 1.701 14.409-1.952 15.312-5.611.502-10.236 1.164-15.989 1.514-.158-4.772-1.48-28.515 1.444-30.798"/><path fill="#0b1c26" d="M786.153 924.217c11.6-.192 13.047-1.984 12.716 10.784-.112 4.296.254 8.401-.234 12.795-4.348.508-7.87.909-12.262 1.136a824 824 0 0 1-.22-24.715"/><path fill="#617386" d="M1010.49 1040.67c-2.76-1.31-2.68-1.21-4.89-3.3l.91-1.01c6.76-1.56 25.52-1.79 33.47-2.1l74.83-2.67 363.45-12.73c10.83-.44 124.72-5.09 128.51-3.66 1.73 3.2 1.13 2.41.61 6.81-1.15 3.17-.14 9.61-.48 13.77-56.03.85-110.93 3.96-166.7 5.89l-264.2 9.06-104.29 3.43c-9.44.33-47.38 3.23-54.04 1.17-.74-2.15-.92-2.55-1.35-4.77-.28-3.35-3.68-7.01-5.83-9.89"/><path fill="#0b1c26" d="M1010.49 1040.67c-2.76-1.31-2.68-1.21-4.89-3.3l.91-1.01c6.76-1.56 25.52-1.79 33.47-2.1l74.83-2.67 363.45-12.73c10.83-.44 124.72-5.09 128.51-3.66 1.73 3.2 1.13 2.41.61 6.81-2.43-.05-4.14-.06-6.6.08-96.4 2.33-192.78 5.42-289.14 9.25-18.29.64-37.42 2.21-55.47 2.65-37.67.37-75.34 1.19-113 2.48-13.15.43-41.88.83-53.69 2.42-26.21-.28-52.89 1.7-78.99 1.78"/><path fill="#0b1c26" d="M1600.78 1022.09c2.46-.14 4.17-.13 6.6-.08-1.15 3.17-.14 9.61-.48 13.77-56.03.85-110.93 3.96-166.7 5.89l-264.2 9.06-104.29 3.43c-9.44.33-47.38 3.23-54.04 1.17-.74-2.15-.92-2.55-1.35-4.77 47.62-2.1 97.58-2.95 145.45-4.5l233.96-8.28 132.28-4.88c19.43-.69 49.8-2.72 68.44-1.79 5.28-1.87 4.24-3.09 4.33-9.02"/><path fill="#1a2e3b" d="M1600.78 1022.09c2.46-.14 4.17-.13 6.6-.08-1.15 3.17-.14 9.61-.48 13.77-.21-2.33-.78-7.73-2.74-8.9-4.91 3.25 1.24 5.32-7.71 4.23 5.28-1.87 4.24-3.09 4.33-9.02"/><path fill="#53657e" d="M1089.48 1038.89c11.81-1.59 40.54-1.99 53.69-2.42 37.66-1.29 75.33-2.11 113-2.48-7.62 4.11-30.37 2.44-40.41 2.46l.3.49c9.53.04 24.04-.34 33.17.52-8.61.49-23.73-.48-31.16.55-21.23 2.94-40.73 2.43-62.06 2.34-12.26-.06-24.88 1.12-37.16.91-9.84-.1-19.55-1.88-29.37-2.37"/><path fill="#0b1c26" d="M821.77 757.654c-1.117-.32-.446 0-1.551-1.6.218-1.376.12-3.028 1.106-3.326 28.002-8.471 69.038-17.795 96.83-23.727 17.646.445 37.561.728 55.07 1.883 10.02.661 52.975-.757 56.655 4.49l-.97 3.736.04 27.03c-5.06 1.359-10.93 2.796-15.87 4.324l-1.84.297c-6.25.902-14.247 2.478-20.32 4.113l-6.861 1.421c-6.973 1.552-14.228 2.854-21.256 4.258-1.946.452-5.025 1.055-6.813 1.682-7.241 1.894-16.556 4.028-23.9 5.322-26.51 4.982-53.296 12.234-81.003 17.271-.082-13.687.247-31.114-.876-44.441-5.965-.445-11.539-.437-17.489-1.131z"/><path fill="#0b1c26" d="M821.77 757.654c-1.117-.32-.446 0-1.551-1.6.218-1.376.12-3.028 1.106-3.326 28.002-8.471 69.038-17.795 96.83-23.727 17.646.445 37.561.728 55.07 1.883 10.02.661 52.975-.757 56.655 4.49l-.97 3.736c-19.54.213-39.089-.093-58.617-.916-10.939-.422-37.3-2.071-46.918-.573-23.436 3.649-48.865 12.942-72.657 17.084-1.461 3.349-3.842 3.992-.507 5.682-5.965-.445-11.539-.437-17.489-1.131z"/><path fill="url(#b)" d="M821.77 757.654c34.978-11.006 77.985-22.119 114.699-23.858 27.838-1.318 66.501 5.701 93.411 1.578l-.97 3.736c-19.54.213-39.089-.093-58.617-.916-10.939-.422-37.3-2.071-46.918-.573-23.436 3.649-48.865 12.942-72.657 17.084-1.461 3.349-3.842 3.992-.507 5.682-5.965-.445-11.539-.437-17.489-1.131z"/><path fill="#1a2e3b" d="m832.722 759.256 1.075-.504c3.56-1.711 12.888-3.396 16.921-4.047-1.461 3.349-3.842 3.992-.507 5.682-5.965-.445-11.539-.437-17.489-1.131"/><path fill="#617386" d="M930.985 751.918c8.777-.338 15.989-.592 24.811-.432l.194 30.749c-7.241 1.894-16.556 4.028-23.9 5.322-.291-11.826-.937-23.971-1.105-35.639m31.531-.397 21.387.515.156 24.259c-6.973 1.552-14.228 2.854-21.256 4.258a844 844 0 0 0-.287-29.032"/><path fill="#718498" d="M991.241 752.429c7.16.317 14.569.299 21.759.429l.08 17.606-1.84.297c-6.25.902-14.247 2.478-20.32 4.113z"/><path fill="#be8f5b" d="M859.628 776.182c-1.087-12.198 1.278-8.33 14.474-11.731 1.092 10.065 1.235 20.66 1.752 30.872-4.835 1.099-9.547 2.376-14.432 3.326-2.724-2.2-1.529-16.171-1.7-20.491z"/><path fill="#d19f66" d="M859.628 776.182c.238-1.479.766-5.872 1.093-7.036l.317-.067c1.557 1.189.481 26.267.384 29.57-2.724-2.2-1.529-16.171-1.7-20.491z"/><path fill="#be8f5b" d="M896.828 759.362c1.387 3.81 1.431 23.957 1.932 29.999-4.813 1.302-9.774 2.557-14.526 4.006-2.271-2.181-2.177-25.461-2.305-30.774 4.985-1.002 9.962-2.292 14.899-3.231"/><path fill="#d19f66" d="M905.214 765.403c-.894-12.114.236-9.227 12.274-11.535l1.867-.343c.761 6.744.733 12.613.927 19.352.237 14.644.419 10.144-14.622 14.632-.395-7.641-.585-14.458-.446-22.106"/><path fill="#9f7b55" d="M905.214 765.403c.45 1.689 1.012 5.709 1.68 7.274.287.675 2.951.014 3.111-.235 3.628-1.197 6.674-.524 10.277.435.237 14.644.419 10.144-14.622 14.632-.395-7.641-.585-14.458-.446-22.106"/><path fill="#617386" d="m1065.78 835.902 3.16.552c-.76 3.103-4.79 5.913-7.36 8.303a78 78 0 0 0-20.66 32.326c-4.86 14.518-6.91 31.681-9.86 46.753-6.45 32.826-10.69 67.689-17.83 100.174-11.5.19-22.986.98-34.407 2.36-3.334-.8-2.275.15-3.804-2.26-.05-10.69 9.382-47.451 13.996-59.235 13.835-35.336 25.935-85.872 51.815-113.647 4.89-5.249 18.96-12.272 24.95-15.326"/><path fill="#0b1c26" d="M1233.03 546.04c-.51-2.695-.39-1.966-1.99-4.484l.14-.347c.57-.323 2.27-.64 2.8-.604 4.22.279 14.24-5.262 7.5 3.524 4.61-.374 8.15.536 12.51-1.11 1.99.643 3.18-.408 5.38-.96l-.12-.83 2.21.359c4.86.752 6.62 1.992 10.51 4.813-.66 10.212 1.85 89.4-1.89 91.802-14.77-11.131-38.02-4.056-53.13 2.271l-.2-22.886c-1.29-5.035-1.57-65.339-.09-69.279 2.16-.376 2.66.112 3.18-2.075 1.62-1.372 2.39-2.305 4.55-2.342l1.44-.048c3.27-3.934 3.17-.193 7.2 2.196"/><path fill="#8a775e" d="M1225.83 543.844c3.27-3.934 3.17-.193 7.2 2.196-2.12 1.096-2.09 1.282-4.35 1.298-1.62.256-4.3.708-5.68 1.555-.97.594-5.67 1.253-5.7 1.702-1.3 22.145.44 44.805-.55 66.993-1.29-5.035-1.57-65.339-.09-69.279 2.16-.376 2.66.112 3.18-2.075 1.62-1.372 2.39-2.305 4.55-2.342z"/><path fill="#1e2322" d="M1225.83 543.844c3.27-3.934 3.17-.193 7.2 2.196-2.12 1.096-2.09 1.282-4.35 1.298-.21-1.397-.72-1.991-1.86-2.786zm-5.99 2.39c1.62-1.372 2.39-2.305 4.55-2.342l1.44-.048c-.81 4.06-1.3 2.727-5.99 2.39m13.19-.194c-.51-2.695-.39-1.966-1.99-4.484l.14-.347c.57-.323 2.27-.64 2.8-.604 4.22.279 14.24-5.262 7.5 3.524-3.37.418-6.35-.19-8.45 1.911m28.43-4.452c4.86.752 6.62 1.992 10.51 4.813l-3.05 2.224c-3.25-3.629-2.87-3.896-7.64-3.124.3-1.998.48-2.122.18-3.913"/><path fill="#7f6648" d="M1261.28 545.501c4.77-.772 4.39-.505 7.64 3.124.33.646.22.381.35.823-.84.764-6.92-3.183-7.99-3.947"/><path fill="#7d7b7d" d="m1259.25 541.229 2.21.359c.3 1.791.12 1.915-.18 3.913-1.37-1.304-1.26-1.525-1.91-3.442z"/><path fill="#0b1c26" d="M1250.05 254.243c4.35-.45 4.72-.695 8.3 1.398.07-.063 13.37-1.503 12.83 4.645-1.77 2.32-1.8-1.36-5.26-.123 1.99 2.017.94 1.133 4.44 1.822 3.16 4.467 1.2 79.996.68 90.289-8.09-2.627-14.7-4.108-23.26-4.284-6.19-.128-23.06 1.967-27.08 5.841-.77 2.001-1.29 3.4-2.26 5.305-2.69-3.393-1.74-49.682-1.66-57.813.08-7.092-1.09-29.271-.57-35.811 5.97-2.622 11.69-5.181 18.19-5.777-7.7-5.589 2.29-4.847 6.03-4.783l1.12-.044c4.23-1.099 4.01-1.102 8.5-.665"/><path fill="#1e2322" d="M1258.35 255.641c.07-.063 13.37-1.503 12.83 4.645-1.77 2.32-1.8-1.36-5.26-.123-1.04-.903-1.55-1.2-2.76-2-.81.978-.67.843-2.04.967-2.27.299-4.25.563-6.51.982 1.7-1.756 2.55-2.412 3.74-4.471"/><path fill="#8a775e" d="M1261.12 259.13c-.09-.9-.26-1.133.08-1.561.69.111 1.28.343 1.96.594-.81.978-.67.843-2.04.967"/><path fill="#423c32" d="M1234.4 259.735c-7.7-5.589 2.29-4.847 6.03-4.783-1.13 4.767-1.14 4.163-6.03 4.783"/><path fill="#1e2322" d="M1241.55 254.908c4.23-1.099 4.01-1.102 8.5-.665l-.43.934c-1.84.768-1.58.805-2.68 2.725-4.04.691-3.49.676-5.39-2.994"/><path fill="#8a775e" d="M1258.35 255.641c-1.19 2.059-2.04 2.715-3.74 4.471-3.45-4.168-1.6-3.514 3.74-4.471m-8.73-.464c.27.603.81 1.434.64 2.134-.54.538-2.66.515-3.32.591 1.1-1.92.84-1.957 2.68-2.725"/><path fill="#0b1c26" d="M1239.22 444.499c1.41-.133 7.04-.827 8.21-.077.24.153.4.396.45.672.09.492-.36 2.015-.59 2.435-.68 1.253 1.59 1.962 2.13 1.189.91-1.313-.12-4.59 2.6-4.382.81.061 1.64.547 2.22 1.191.07.587.17.522-.14 1.024-.18.299-.69.833-.87 1.069-.11.144-.45.63-.37.881.12.33 1.07.551 1.09.559l1.12-.529c2.53-6.773 8.99-1.975 15.12.329.46.713.93 1.427 1.39 2.14.4 27.441.2 65.776.26 92.004-18.27-6.538-35.76-9.407-53.18 2.028l1.18 1.202c-.52 2.187-1.02 1.699-3.18 2.075-.86-9.199-.28-94.587 1.81-98.218l2.02 2.082 1.4-.008 1.11-3.788c4.43-.423 6.2-3.728 6.98 1.36l1.31 1.615c2.8-4.188-2.73-3.718 1.61-5.201 6.1-2.085 3.45.377 3.97 3.094l.3 1.504 1.54-1.827-.67-2.665z"/><path fill="#1e2322" d="M1239.22 444.499c1.41-.133 7.04-.827 8.21-.077.24.153.4.396.45.672.09.492-.36 2.015-.59 2.435-.68 1.253 1.59 1.962 2.13 1.189.91-1.313-.12-4.59 2.6-4.382.81.061 1.64.547 2.22 1.191.07.587.17.522-.14 1.024-.18.299-.69.833-.87 1.069-.11.144-.45.63-.37.881.12.33 1.07.551 1.09.559-3.94 1.902-6.09 1.533-10.11.03-.6-.793-1.17-1.283-.96-2.28z"/><path fill="#8a775e" d="M1242.88 446.81c1.83.519 1.61.189.96 2.28-.6-.793-1.17-1.283-.96-2.28"/><path fill="#1e2322" d="M1255.07 448.531c2.53-6.773 8.99-1.975 15.12.329l-.48 1.556c-4.11.578-3.71-1.833-5.79-.03l-3.92-.44c-.63-.265-1.57-.623-2.15-.993z"/><path fill="#8a775e" d="M1257.85 448.953c.15-.3.52-1.348 1.02-1.52.16-.054.27-.042.4.06.51.402.57 1.592.66 2.076.02.126.04.251.07.377-.63-.265-1.57-.623-2.15-.993"/><path fill="#1e2322" d="M1231.29 451.352c2.8-4.188-2.73-3.718 1.61-5.201 6.1-2.085 3.45.377 3.97 3.094l.3 1.504c-2.88 1.506-2.92 1.759-5.88.603m-8.29-2.975c4.43-.423 6.2-3.728 6.98 1.36-4.69 3.338-3.4 2.613-6.98-1.36"/><path fill="#8a775e" d="M1263.92 450.386c2.08-1.803 1.68.608 5.79.03-.35 4.826-5.16 1.676-5.79-.03"/><path fill="#0b1c26" d="M1235.52 351.893c2.43-2.471 10.58-3.143 12.53-1.525.07.271-.79 2.078-.97 2.837 1.05.556 12.9 2.069 13.63 1.7 2.71-5.022 3.42-3.246 8.67-1.31l1.01.362c2.07 1.6.88 21.913.9 26.137l.41 67.168c-23.55-8.576-32.39-5.89-55.38 1.54-.37-23.88.25-47.91-.07-71.803-.07-5.63-.33-11.595 1.12-16.956.15-.549 2.09-.631 2.3-.612.02.044.98-.236 1.01-.246 1.76-5.672 8.32-10.044 10.01-3.163 3.26-1.073.83-1.74 1.49-3.862.59-.563 1.25-.537 2.03-.428z"/><path fill="#1e2322" d="M1235.52 351.893c2.43-2.471 10.58-3.143 12.53-1.525.07.271-.79 2.078-.97 2.837-4.66 1.644-5.23.197-10.41 1.744-.66-.726-.89-2.091-1.15-3.056m25.19 3.012c2.71-5.022 3.42-3.246 8.67-1.31l1.01.362c-3.45 7.028-4.33 4.617-9.68.948m-40.03 4.28c1.76-5.672 8.32-10.044 10.01-3.163l-1.09.375c-3.48 1.223-4.24 1.901-7.83 2.573z"/><path fill="#0b1c26" d="m1047.86 323.047 1.82-.304c12.88-2.338 22.57 1.082 34.84 4.396l-.17 1.144-.54 4.338c1.75 28.085-.79 60.647.5 88.589-11.38-4.765-25.33-7.103-37.41-4.05-1.27.04-1.2-.067-2.21.418-1.45.824-2.57 1.622-4.22 1.668-.23.007-1.7.058-1.86.205-.7.625-5.88.124-5.95-.372-1.95-14.376.69-74.562-1.48-84.874.39-4.114 2.63-4.852 1.54-7.241 4.26-1.817 8.54-2.723 13.12-3.446z"/><path fill="#7f6648" d="m1047.86 323.047 1.82-.304c12.88-2.338 22.57 1.082 34.84 4.396l-.17 1.144-.54 4.338-6.94-.43c-1.42-1.161-.6-.517-2.54-1.952l-1.51-.141-2.62-.276-3.01-.915c-4.25-1.021-.94-4.977-4.6-4.222-1.81 2.986.97 2.034-2.66 4.264-1.86.382-3.73.751-5.6 1.107-5.2-9.207-1.61-5.251-6.19.979-.49-.823-.92-1.219-1.6-1.997-.24-1.767-.57-3.75-.7-5.52z"/><path fill="#1e2322" d="M1076.87 332.191c1.41-7.286-.14-3.097 7.48-3.908l-.54 4.338z"/><path fill="#0b1c26" d="M1054.33 330.056c.84-2.031 1.39-5.032 2.89-6.305 3.27.524 1.52 2.041 2.71 5.198-1.86.382-3.73.751-5.6 1.107"/><path fill="#1e2322" d="m1045.84 323.518 2.02-.471c1.55 4.004.9 3.622.28 7.988-.49-.823-.92-1.219-1.6-1.997-.24-1.767-.57-3.75-.7-5.52m26.98 6.58-.35-1.116c-1.75-5.361 6.65-2.938 1.86 1.257zm-5.63-1.191.31-1.388c.69-3.613 3.56-2.954 2.93.688-.09.537-.17 1.075-.23 1.615z"/><path fill="#7f6648" d="M1032.72 326.964c4.26-1.817 8.54-2.723 13.12-3.446.13 1.77.46 3.753.7 5.52-6.03 2.173-4.22-.156-7.51.387-.13.445.05.833-.12 1.289-1.5 1.235-5.74 2.865-7.73 3.491.39-4.114 2.63-4.852 1.54-7.241"/><path fill="#0b1c26" d="M1032.44 607.259c15.07-8.409 36.5-7.418 51.78.257l.03 5.31c.83 8.55 1.01 85.637-.15 87.346-.9.429-.88.337-1.96.25-8.39-6.213-35.14-9.727-42.25-2.517-4.26.17-4.82.391-6.84 4.32l-1.01-.281.04-90.92c.05-1.666.02-2.143.36-3.765"/><path fill="#9f7b55" d="M1032.44 607.259c15.07-8.409 36.5-7.418 51.78.257l.03 5.31c-2.45-.326-3.17-.322-5.5-1.065-4.81-4.284-1.74-1.772-6.94-2.729l-1.05-.653c-4.28-.882-4.59-.257-8.82-1.763-1.51.874-2.66 1.258-4.28 1.905l-2.23-.795-1.51.122-3.51.499-3.21-.138c-.76.887-1.13 1.506-2.04 2.073-5.13-2.766-2.28-5.528-8-3.105l.46 1.008c4.88.638.89 4.769-5.54 2.839.05-1.666.02-2.143.36-3.765"/><path fill="#1e2322" d="m1071.81 609.032-.13-1.507c-.08-.687-.12-1.312.11-1.973 1.31-1.07 6.56.782 7.52 2.103.38.521.51 1.176.38 1.802-.11.499-.71 1.772-.94 2.304-4.81-4.284-1.74-1.772-6.94-2.729m-9.87-2.416c.94-4.322 10.49-4.538 8.82 1.763-4.28-.882-4.59-.257-8.82-1.763m-16.78 3.666c-1.32-4.436-3.5-7.534 3.75-5.711-1.12 1.522-3.21 1.849-1.71 3.638-.76.887-1.13 1.506-2.04 2.073m10.27-2.556c.22-6.816 6.85-7.24 2.23.795z"/><path fill="#0b1c26" d="M1050.41 608.347c-1.45-6.188 3.12-6.853 3.51-.499z"/><path fill="#1e2322" d="m1037.16 607.177.46 1.008c-4.13 3.728-6.39 1.478-.46-1.008"/><path fill="#0b1c26" d="M1238.09 174.419c15.67-1.067 30.25 2.114 44.74 7.726-11.57 22.398-9.84 48.263-11.47 72.836-8.78-1.359-15.47-2.67-24.44-3.034-10.82.462-21.39 2.86-30.95 8.055-.43-28.167-3.14-50.859-10.65-77.778 12.63-5.058 19.21-6.496 32.77-7.805M1046.9 417.16c12.08-3.053 26.03-.715 37.41 4.05q-.045 2.802-.15 5.603c.73 30.927.12 57.659-.17 88.268l-.9-.003-1.55-1.539c-14.39-8.037-34.69-5.902-49.54.057.05-10.789-.67-87.853 1.54-91.887l.9-.108c2.27 4.072 1.67 5.332 6.23 3.05-5.98-.809-2.82-3.3.38-5.08.98.299 1.91 1.895 2.93 1.063 1.17-.956 1.81-1.797.71-3.056 1.01-.485.94-.378 2.21-.418"/><path fill="#7f6648" d="M1046.9 417.16c12.08-3.053 26.03-.715 37.41 4.05q-.045 2.802-.15 5.603c-2.38.14-2.44-.017-4.99-.697l-1.72-1.686-1.08.798c-1.19-.775.28-3.007.88-3.771-.55-1.442-4.43-2.674-4.26.486.09 1.64-.68 4.647-2.14 1.444l-2.88-.327-1.64.087-2.8-.166c.37-.013-11.52.212-10.92.33l-4.1.13c-2.5.087-4.43 1.088-7.84 1.21-5.98-.809-2.82-3.3.38-5.08.98.299 1.91 1.895 2.93 1.063 1.17-.956 1.81-1.797.71-3.056 1.01-.485.94-.378 2.21-.418"/><path fill="#1e2322" d="M1044.69 417.578c1.01-.485.94-.378 2.21-.418 1.98 5.854 9.1-2.93 5.71 6.151l-4.1.13c-2.5.087-4.43 1.088-7.84 1.21-5.98-.809-2.82-3.3.38-5.08.98.299 1.91 1.895 2.93 1.063 1.17-.956 1.81-1.797.71-3.056m32.76 6.852.02-1.267c-.05-3.523 4.61-1.208 5.33-.442-.02.279-3.18 2.936-3.63 3.395zm-13.92-1.449c-.11-2.017-.99-4.205 1.38-5.092 3.04.426 1.77 3.101 1.42 5.258zm4.44.079-.22-1.538c-.45-2.872 3.49-4.706 3.1 1.865z"/><path fill="#0b1c26" d="M1044.31 515.669c9.84-.533 3.56-8.354 8.78-5.439.57 1.045 0 2.153.12 3.275.68-.375 1.35-.751 2.03-1.126l3.47.726c3.11 1.067 4.93 1.888 8.16 2.647.7-1.562.81-4.226 1.76-4.705 3.8 1.255 8.96 2.665 12.91 2.492l1.55 1.539.9.003c.05 1.382.07 2.765.09 4.148-.13 18.057.23 36.378.16 54.488-.04 10.43-.54 23.752-.02 33.799-15.28-7.675-36.71-8.666-51.78-.257-.9-6.34-.52-14.119-.46-20.647.24-21.967-.62-44.116.31-66.034.01-.042 4.05-2.496 4.71-3.033-.03-2.66 1.23-3.908 1.91-.804l3.54-.466z"/><path fill="#1e2322" d="M1066.87 515.752c.7-1.562.81-4.226 1.76-4.705 3.8 1.255 8.96 2.665 12.91 2.492l1.55 1.539-1.25.841c-2.01 1.43-4.07.666-6.65 1.031l-1.73-.352c-1.34.026-1.45.213-2.26-.439-1.39-.064-3.02-.024-4.33-.407"/><path fill="#8a775e" d="M1071.2 516.159c.22-.847-.07-1.655.81-1.937.89.474 1.05 1.416 1.45 2.376-1.34.026-1.45.213-2.26-.439m12.79-1.078c.05 1.382.07 2.765.09 4.148-4.93-.056-5.48.66-8.89-2.279 2.58-.365 4.64.399 6.65-1.031l1.25-.841z"/><path fill="#9f7b55" d="M1037 517.545c-.03-2.66 1.23-3.908 1.91-.804-.77.731-.7.596-1.91.804"/><path fill="#0b1c26" d="M1238.17 635.92c3.68-1.595 21.25-1.622 23.82 1.018.22.883-1.12 2.902-1.54 4.018.99.53.98.346 2.28-.028-.4-6.194 2.07-3.496 7.35-2.725.47 1.874.92 3.754 1.34 5.64.81 25.387.66 51.388.54 76.829-19.53-1.4-35.75-.236-54.9.412-.09-10.997-1.26-69.807.9-75.16-.12-2.784-.75-3.732 2-4.821 5.86-2.323 10.77-4.034 16.99-5.256z"/><path fill="#1e2322" d="m1236.95 635.847 1.22.073c.57 1.519.67 2.391.98 3.997l-1.25.199c-1.79 1.57-2.16 1.447-4.61 1.736l-1.41.491c-1.98.988-5.96 2.046-8.2 2.198l-3.5 1.048-2.22.335c-.12-2.784-.75-3.732 2-4.821 5.86-2.323 10.77-4.034 16.99-5.256"/><path fill="#9f7b55" d="M1220.18 645.589c-1.95-3.3 1.05-3.249 3.5-1.048z"/><path fill="#7f6648" d="m1236.95 635.847 1.22.073c.57 1.519.67 2.391.98 3.997l-1.25.199c-2.05-1.801-1.8-1.751-.95-4.269"/><path fill="#8a775e" d="M1231.88 642.343c-3.38-2.63 1.99-5.713 1.41-.491z"/><path fill="#0b1c26" d="M1238.17 635.92c3.68-1.595 21.25-1.622 23.82 1.018.22.883-1.12 2.902-1.54 4.018-4.68-.158-1.74-1.67-9.08-1.218l-.99.204-1.56-.364c-1.71-1.188-3.87-2.651-5.94-1.369-1.45 1.229-1.8 2.031-3.73 1.708-.31-1.606-.41-2.478-.98-3.997"/><path fill="#8a775e" d="M1250.38 639.942c.14-1.237.08-1.883.65-2.874l.17-.074c.37.564.18 1.531.17 2.744z"/><path fill="#1e2322" d="M1262.73 640.928c-.4-6.194 2.07-3.496 7.35-2.725.47 1.874.92 3.754 1.34 5.64l-3.29-.969c-.18-.356-.34-.799-.7-.96-.22.162-.45.324-.68.486a203 203 0 0 1-4.02-1.472"/><path fill="#8a775e" d="M1242.88 638.209c2.07-1.282 4.23.181 5.94 1.369-3.21-.136-5.1 1.18-5.94-1.369m23.87 4.191c.23-.162.46-.324.68-.486.36.161.52.604.7.96-.3.157-.61.315-.91.472-.25-.353-.09-.091-.47-.946"/><path fill="#0b1c26" d="M1019.42 263.507c26.55-8.864 47.97-11.212 74.13.144-3.22 9.334-5.42 16.855-6.53 26.853l-1.5 13.493c-.67 6.047-1.35 17.215-1 23.142-12.27-3.314-21.96-6.734-34.84-4.396l-1.82.304-2.02.471c-4.58.723-8.86 1.629-13.12 3.446-.55-.446-1.7-1.168-1.79-1.964-2.27-19.085-3.24-43.912-11.51-61.493m-35.923 681.998c4.518-.041.05 5.021-.971 7.005-12.086 23.484-16.063 48.36-17.833 74.35-14.996.78-29.971 1.9-44.915 3.37-3.901-.62-3.211-2.56-3.04-6.22 1.176-25.322 5.653-54.306 24.879-72.196 3.784-.967 8.055-2.089 11.89-2.683l5.499-.89c8.354-1.317 16.069-2.061 24.491-2.736m622.183 59.095 1.62-.41c1.11 2.46 1.16 5.53-.72 7.58-13.89 2.65-51.6 2.15-68.1 2.66l-137.3 4.94-261.52 8.67-94.66 3.39c-16.68.62-36.36 2.04-52.799 1.72-1.735-1.75-1.697-1.59-2.537-3.89 4.823-2.99 57.726-3.73 66.266-4l99.96-3.61c115.3-3.11 230.58-7.14 345.82-12.11a12911 12911 0 0 1 54.63-2.16c10.5-.39 40.66.02 49.34-2.78m-681.749-50.077c.491.386.349.202.521.533-.027.705-.775 1.682-1.193 2.167-7.186 8.342-9.856 17.306-12.186 27.786-3.416 15.371-4.921 30.091-5.337 45.831-12.789.27-34.812 1.33-47.429 2.88-2.886-1.97-.748-13.69-.399-17.22 1.858-18.844 6.811-40.392 20.395-53.872 14.913-4.164 30.246-6.511 45.628-8.105m115.959-256.618c7.11-7.21 33.86-3.696 42.25 2.517.47 1.363.54 1.297 1.62 2.315l.96.916c-1.52 12.073-.27 37.932-.09 51.021-18.36 2.532-35.11 6.087-52.92 11.053 0-18.45.88-40.951.26-58.86.01-1.641.04-3.282.07-4.923l1.01.281c2.02-3.929 2.58-4.15 6.84-4.32"/><path fill="#7f6648" d="M1039.89 697.905c7.11-7.21 33.86-3.696 42.25 2.517.47 1.363.54 1.297 1.62 2.315l.96.916c-4.78 1.301-9.14.955-13.21-2.355-.91-.343-1.82-.751-2.77-.926-.86-.089-9.27.063-10.16.244l-2.6.128c-2.81 1.216-2.01.548-4.97.678-6.74.295-12.83 3.888-19.04 5.445.01-1.641.04-3.282.07-4.923l1.01.281c2.02-3.929 2.58-4.15 6.84-4.32"/><path fill="#1e2322" d="M1055.98 700.744c-.1-.354-.42-1.271-.38-1.349.51-1.159-9.74 1.087-1.72-2.733 4.28-2.04 5.73-.696 4.7 3.954zm12.76-.372c-2.93-4.515-4.27-.704-7.06-3.012-.31-1.136 7.29-3.983 9.83 3.938-.91-.343-1.82-.751-2.77-.926"/><path fill="#1e1918" d="m1033.05 702.225 1.13-.376c1.18-.508 1.87-1.011 3.11-.562-1.08 2.923-1.5 2.272-4.24.938"/><path fill="#1e2322" d="M1039.89 697.905c2 .937 2.72.731 1.84 2.591-.56.455-.63.711-1.17.678-.47-.4-.61-2.825-.67-3.269m7.65.681c.41-.208 1.47-.97 2.11-.73l-.04.147c-.6.562-.82.543-1.75.948-.96.22-1.59.497-2.51.282l-.05-.118c.65-.464 1.44-.412 2.24-.529"/><path fill="#0b1c26" d="m862.887 964.592.508.67c.011-.187-10.649 17.709-12.304 26.251-2.758 14.247-3.903 27.807-3.889 42.457-12.914 1.66-35.639 2.73-49.176 3.22-3.101-2.94.065-20.59.9-25.2 2.948-16.282 6.544-30.954 19.215-42.397 14.638-3.037 29.844-4.017 44.746-5.001m-71.377 8.02c1.592-.184 8.815-1.39 10.014-.241-.013.241-6.551 11.081-7.451 13.166-7.466 17.293-8.215 33.703-8.111 52.353-10.3.48-28.698 1.46-38.725 2.69-.499.06-7.684.95-7.767-.21-1.63-22.9 4.614-45.585 19.775-62.975 10.795-2.36 21.754-2.713 32.265-4.783m187.149 55.858c3.053-.42 2.848-.38 5.828.47 2.681 2.72 2.175 1.19 2.641 4.35-3.401 1.8-438.136 30.36-472.813 30.82-3.865-.02-5.129-.58-8.765-1.64l-.345-.98c6.652-1.87 29.7-3.21 37.995-3.89 31.738-2.59 63.506-4.82 95.296-6.68zm-238.204-49.06c5.037-1.226 3.425 1.118 1.447 4.03-12.121 17.84-13.929 37.47-14.166 58.35-13.702 1.12-27.339 1.83-40.958 3.43-.373-.04-3.527-.16-3.564-.86-1.048-19.91 3.158-44.564 17.268-58.865 7.719-1.837 17.095-3.631 25.02-4.434z"/><path fill="#f9f6f5" d="M568.172 908.048c.966.78 1.238.991 1.981 1.954 13.154 17.03 23.809 36.05 36.257 53.357 1.015 1.413.819.18 1.285 1.147-6.918 8.242-7.631 9.523-12.118 19.052l-1.105-.746a224 224 0 0 1-9.823-6.922c-7.657-5.766-15.203-11.54-22.821-17.348a474 474 0 0 0-9.915-7.359c-4.897-3.61-10.077-7.624-14.968-11.341 9.362-13.05 18.314-22.229 31.227-31.794"/><path fill="#0b1c26" d="M678.519 987.394c1.065-.181 5.11-1.022 5.969.077.067.522-.575 1.65-.85 2.07-10.798 16.549-13.293 37.069-13.734 56.359-11.432 1.35-21.902 1.47-33.144 2.3-.459.05-8.229 1.1-8.346.17-1.837-14.46 1.476-31.65 8.575-44.52 2.505-4.544 5.574-7.624 9.098-11.18 5.6-1.636 11.622-2.83 17.419-3.531z"/><path fill="#f9f6f5" d="M531.761 947.717c19.246 14.85 45.398 31.528 62.857 47.331-3.803 3.934-10.071 12.782-14.861 12.822a1103 1103 0 0 1-65.311-21.451c5.525-16.899 7.869-23.343 17.315-38.702"/><path fill="#0b1c26" d="M582.456 1012.41c7.953-9.97 12.355-15.075 26.551-16.599 8.161-.877 14.071-2.576 21.38-4.135.973 1.295-1.643 5.193-2.305 6.328-9.608 16.446-9.842 33.436-12.099 51.666-13.929.56-27.59 1.78-41.317 2.41.658-7.48 7.014-35.14 6.334-38.3zm-60.692 26.04c12.104-1.27 39.122-.34 51.7-.11-.776 4.83-1.259 9.52-1.796 14.38-16.091.39-43.072 3.28-59.546 5.04-17.072.88-34.16 2.81-51.224 3.13l-.071-21.38c20.316-.05 40.631-.41 60.937-1.06"/><path fill="#f9f6f5" d="M511.568 995.321c19.191 4.759 47.565 17.119 67.163 22.489-1.493 5.99-3.053 11.98-4.501 17.98-20.292 1.03-42.946-2.18-65.321.18-.094-15.78-.167-25.02 2.659-40.649m99.084-108.315c2.267.452 2.405 1.029 3.11 3.526 3.493 12.363 8.249 25.506 11.118 37.981l.799 3.499c1.441 6.26 2.787 11.648 4.868 17.775-4.238 2.885-10.313 5.159-15.733 8.849a124 124 0 0 1-6.692-9.246 978 978 0 0 1-21.87-31.549c-3.041-4.524-7.416-9.484-9.707-14.214l-.602-1.199c10.499-6.026 23.064-12.158 34.709-15.422m36.126-8.607c4.942-.591 11.011-.477 16.049-.503.153 13.009.036 26.579-1.167 39.482-.081.877-3.494.8-3.648.891-7.334 4.34-7.439 21.712-13.261 28.783-.788.957-2.774.613-3.934.596-7.35-19.836-13.579-44.2-18.966-64.803 8.744-1.911 16.07-3.246 24.927-4.446"/><path fill="#0b1c26" d="M569.936 898.389c10.832-6.58 30.489-16.078 42.41-18.969l.791 1.717-1.138-1.71.404 2.413c-8.899 7.589-32.642 9.159-37.95 19.689-.805 8.206 7.468 13.329 10.924 19.836 3.531 6.65 26.448 34.867 24.196 40.007-2.261-.87-33.715-49.955-40.293-57.374-12.87 7.578-28.291 23.688-36.296 36.231 15.656 12.543 48.227 38.093 64.554 47.393a388 388 0 0 1-.205 7.47l-1.45-4.024c-19.02-15.037-47.246-33.237-65.277-48.361-8.422 15.214-15.352 29.114-20.879 45.814 10.095 2.866 66.006 19.999 72.729 23.889l-1.456 1.37-1.79.95c-6.746-1.55-21.239-6.91-28.452-9.41-13.273-4.62-28.706-9.484-41.535-14.786-4.098 19.856-1.436 29.266-3.943 45.766l-1.436.69-1.372-1.94c-.201-15.2.197-30.77 3.494-45.669-3.751-1.263-17.953-5.411-19.322-8.765 6.306.193 13.88 2.884 20.129 4.753 5.641-16.895 11.374-29.623 20.704-44.724-5.066-4.011-10.559-7.712-13.936-13.134l.315-1.163c6.348 2.243 10.36 6.696 15.408 11.246 11.527-14.59 23.083-25.213 37.117-36.993-3.894-4.915-6.034-7.176-7.457-13.216l1.09-.552c4.223 2.497 6.983 7.385 9.922 11.556"/><path fill="#f9f6f5" d="M1516.1 907.444c5.67 2.404 17.89 15.538 23.32 20.633a883 883 0 0 1-42.29 35.737c-3.6 2.976-7.02 5.683-10.6 8.737-2.01-1.584-4.4-3.426-6.32-5.048 12.37-18.034 22.22-40.075 35.89-60.059m-73.33-23.391c11.31.145 19.27 1.38 30.2 2.254-5.37 20.376-8.18 40.28-12.08 60.91-.72 3.814-.24 14.266-7.24 10.172-.54-1.391 2.2-1.838.13-3.814-1.89-1.807-2.46-3.595-2.87-6.062-.76-4.693-1.18-9.328-1.95-14.014-.69-7.281-2.29-14.712-2.86-22.002-.71-9.065-2.57-18.491-3.33-27.444m39.25 5.549c8.2 4.05 14.26 5.139 23 10.389l2.69 1.608c-8.75 15.873-17.77 33.5-27.98 48.391-.93 1.345-8.01 12.914-8.08 12.969-1.63-.15-7.31-1.831-4.76-5.478 4.43-6.338 7.54-29.611 8.92-36.993l.98-5c.34-1.809.65-3.226 1-5.001l1.04-5.001c1.08-5.29 2.04-10.604 3.19-15.884m79.99 88.625c3.25 1.68 5.36 21.411 6.17 25.903-20.09.4-40.33 1.34-60.43 1.97-10.34-.5-3.69-10.021-5.22-9.426 17.86-6.944 40.8-14.004 59.48-18.447m-888.584-99.359c13.063.417 23.297 2.593 35.759 5.8-4.367 7.297-9.018 14.259-13.563 21.894-1.253 2.085-2.075 4.345-3.256 6.464-7.05 1.644-12.083 2.647-19.26 3.663-.049-11.689.904-26.848.32-37.821"/><path fill="#0b1c26" d="M1616.58 997.204c16.62-.444 14.2 4.716 14.75 19.636.4 10.59 2.55 16.44-6.43 23.09-1.86-.03-16.44.73-15.87-3.2.02-.13 1.02-3.23 1.15-4.25 1.46-10.74-.19-22.18 1.27-32.807.18-1.334 4.36-2.254 5.13-2.469m-948.521-145.56c3.4 3.552 2.041 13.505 1.942 19.167 17.662 2.207 29.456 5.079 46.541 8.135 1.587-5.27 1.812-6.623 4.577-11.232l.907.663c.708 5.411-.769 16.318-8.574 14.474-15.321-3.618-27.944-7.431-43.822-8.237.347 7.947.249 16.306.277 24.296-.033 3.951-.101 16.459-2.238 19.378-4.088-9.298-1.367-32.001-1.485-44.24-20.027.37-27.515 3.085-46.32 5.213l-1.392-1.172c8.039-6.284 37.401-7.677 47.765-6.308.203-5.878.085-14.846 1.822-20.137m322.805 90.517c1.433.283 1.453.376 2.809 1.104-7.635 26.347-18.146 51.731-21.439 79.245-.311 2.59-1.173 6.61-4.323 3.49-1.476-1.47.78-17.1 1.043-19.5 2.06-15.687 6.314-31.342 12.315-45.905 2.568-6.234 6.546-12.372 9.595-18.434m-378.515 23.361c11.09-8.054 11.647-10.809 26.671-14.558 6.976-1.742 4.514 3.782 2.523 5.671-1.126.06-.866-2.928-2.579-3.323-2.243 1.905 3.719 12.406-1.652 18.902-1.419.458-3.538-4.032-3.99-4.898-.958-2.01-4.081-10.778-6.609-10.41-2.016 1.682 7.94 16.358 9.63 19.087-.516 1.706-1.972 7.358-2.781 8.558-1.043.202-1.648-2.735-1.988-3.226-4.51-6.503-11.948-12.676-19.225-15.803m197.923 2.385c2.58-1.633 2.508-1.271 5.345-.228-19.548 20.657-20.31 42.891-22.087 69.521-.413.99-4.939.83-4.967.25-1.052-21.31 3.059-46.282 15.863-64.035 1.679-2.329 3.731-2.976 5.031-4.519z"/><path fill="url(#c)" d="M871.063 960.67c1.736.839 1.921.944 3.697 1.558-13.868 17.375-17.867 32.118-19.653 54.272-.204 2.53-.461 15.21-1.587 16.8-.334.47-.859.76-1.432.8-.396.02-1.676-.3-1.708-.71-2.082-26.44 1.729-54.093 20.683-72.72"/><path fill="#0b1c26" d="M636.997 990.05c3.774-.609 3.562-.561 7.186.344-7.952 8.093-11.929 14.536-14.985 25.626l-.52 1.96c-2.86 10.48-3.548 19.32-4.493 29.94-.072.8-1.447 1.74-2.113 2.03-6.314-1.04-1.769-21.24-.714-25.93l.889-4c1.845-7.97 6.21-22.368 13.226-27.576 1.655-1.229 2.151-.538 1.524-2.394"/><path fill="#1e2322" d="M602.764 976.511c3.745-5.042 4.558-6.778 9.585-10.989 5.186 8.778 14.314 11.507 18.538 19.452 3.011 5.661-5.016 2.1-6.591 1.285-7.164-2.775-13.925-6.711-21.532-9.748"/><path fill="#0b1c26" d="M597.538 987.622c1.261-2.378 2.317-4.897 3.93-7.055l.949.342c9.597 3.566 18.903 6.039 27.698 9.514-7.648.73-17.218 1.955-24.698.98-3.656-.476-3.879 1.231-8.084 3.689q.138-3.734.205-7.47m886.262-13.869c2.19 2.177 5.72 3.991 2.68 6.284-4.83 3.656-9.82 6.623-14.75 10.061-1.18.586-.72.452-1.84.541-.42-1.359 12.28-15.169 13.91-16.886m-229.81-430.734c-.41-.579-.7-1.447-1.5-1.468-10.71 2.089-12.53-4.377 6.76-.322l.12.83c-2.2.552-3.39 1.603-5.38.96"/><path fill="#1e1918" d="M1224.67 258.257c3.26 2.884-4.2 3.445-6.46 4.121-3.65-3.23 2.82-3.118 6.46-4.121"/><path fill="#1e2322" d="M1055.24 512.379c.12-1.098.16-1.995 1.26-2.558.49-.256 1.06-.3 1.58-.122 1.68.572 1 2.213.63 3.406z"/><path fill="#8a775e" d="M1042.45 516.275c-2.06-2.695 3.52-5.518 1.86-.606z"/><path fill="#1e1918" d="m1259.7 352.167.5.073c.01.145.01.29.02.435l-.69.005c-.06-.23-.06-.074.17-.513"/><path fill="#718498" d="m1534.78 1100.28 1.79.7c-.75.9-2.15 2.48-2.76 3.38 3.43 1.36 6.84 2.8 10.21 4.31.74-.73 1.41-3.04.97-3.02 10.41-.55 53.07-2.83 60.79.57l.42 1.42c-5 3.84-18.73 2.3-25.24 2.24-11.75-.1-23.51-.06-35.27.13 12.4 8.01 25.14 12.43 36.73 19.57-7.61.36-29.58-.84-31.45 8.57-2.45 12.28 25.62 27.58 19.82 38.46-7.56 4.92-54.45 3.38-66.26 3.5-36.09.71-72.19 1.02-108.29.93-10.4-.02-72.32-1.22-74.99 1.24l.79 1.85c6.89 1.33 29.58.59 38.1.57l71.52.14c5.98.02 21.89-.52 26.74.69-.68 2.12-1.29 4.12-2.09 6.2l1.03.55c.48 4.76.24 5.79 2.15 9.98l-2.65 1.16c8.41 9.18 32.57 1.89 33.11 12.54-6.75 9.96-44.39 6.04-56.59 5.92-13.99 61.55-.47 94.43-82.85 87.94-4.56-.36-11.73-.21-16.48-.28-.15 11.38.59 54.2-2.87 62.21-7.3 5.06-27.44 8.55-37.5 11.3 5.62 2.97 12.09 4.78 11.96 11.69-3.71 5.86-20.27 9.6-27.34 11.66 3.52 6.29 6.96 10.43 11.39 16.09-6.9 14.42-18.78 27.19-23.94 41.43 6.26.26 12.66.7 18.93 1.06-5.98 11.32-17.69 30.79-24.61 41.45-10.94-9.35-34.45-25.86-34.99-40.41 3.45-3.79 4.04-.2 6.79-2.91-6.73-10.23-12.17-17.89-17.4-28.91l9.49-24.48c-7.66-2.68-20.92-5.42-24.32-11.5.13-7.01 5.63-10.96 10.68-16.11-8.93-2.29-19.91-3.93-29.07-5.38-1.61-14.02-1.9-32.68-2.5-47.12-19.51-1.01-46.39-1.36-65.9-.32-33.93 1.81-53.5-2.7-86.29-9.54l-75.137-15.48-120.365-25.43c-26.487-5.59-58.758-11.8-84.398-18.61l-.368-12.51c-8.878-1.15-19.594-2.25-28.143-4.34-.349-8.09-.01-17.57.084-25.77 31.127 4.12 63.514 9.79 94.667 14.71l136.455 21.23c28.665 4.51 64.165 10.75 92.415 13.98-.23-2.65-5.56-3.35-6.22-4.5-2.68-4.73-5.98-9.63-9.09-14a1873 1873 0 0 1-41.561-60.64c-6.748-10.19-21.658-33.82-29.366-41.68-31.292-4.27-63.318-7.05-95.121-11.52-41.841-5.1-83.897-10.22-125.878-13.95-12.105-1.08-67.223-9.57-74.468-3.95-.345 1.15-1.026 4.05-2.12 4.24-12.39 2.19-89.632-4.04-95.805-.41l.023 1.91c5.866 3.71 87.325 4.39 98.79 4.78a651 651 0 0 0 14.1 35.02c-11.144-.06-87.701.71-91.554-2.56-1.125-3.14-1.014-2.92-.056-6.16.671-.73 1.342-1.45 2.014-2.18 10.358-3.34 65.803 3.31 69.701-4.11-2.408-6.77-16.721-5.21-22.489-6.57-23.809-5.61-93.192-1.59-111.867-11.28l.251-1c9.117-1.96 30.829-14.36 36.35-21.55.675-1.2 1.431-2.64 2.191-3.75l1.761-.04c4.343 1.64 4.102 1.56 8.709.69 6.899-.42 14.232.24 21.176.68 4.319 1.53 47.034.93 54.286.95 68.169.14 136.339-.19 204.504-1.01l261.909.12c46.25.03 95.24.62 141.41-.42 5.49-.71 20.6 1.38 24.32-1.61 59.24-.88 118.49-1.21 177.74-1 11.99-.03 74.87.93 79.39-1.75"/><path fill="#afa7a1" d="m1534.78 1100.28 1.79.7c-.75.9-2.15 2.48-2.76 3.38l-280.48.28c5.49-.71 20.6 1.38 24.32-1.61 59.24-.88 118.49-1.21 177.74-1 11.99-.03 74.87.93 79.39-1.75"/><path fill="#f8f0e9" d="M1456.84 1203.42c-.92-4.84-1.56-6.45-.53-11.69l1.03.55c.48 4.76.24 5.79 2.15 9.98z"/><path fill="#f9f6f5" d="M1017.65 1121.34c6.2-1.26 44.87-.54 53.75-.51l127.63.39 222.78-.35 65.12.17c10.78.05 21.87.08 32.67.29 3.35.06 3.59 1.08 5.51 3.22-21.45 1.97-66.09.69-88.48.66l-166.42.01-171.71-.12-51.22-.18c-7.28-.03-20.97.33-27.4-.48zm76.88 87.95c9.53-1.03 30.31-.37 40.77-.32l78.32.19 117.04-.04c8.36.02 45.14-.42 51.73.75l1.35 2.81c-9.56.65-24.93.23-35 .24l-65.1.06-138.31-.01c-5.94-.01-45.85.36-49.55-.71zm-65.09-62.85c7.51-1.35 49.53-.45 59.08-.4l122.95.03 70.39-.06c9.12-.01 19.08-.23 28.21-.11 2.93.04 2.89.99 4.4 3.05-6.32 1.47-69.47 1.13-80.35 1.03-66.99-.59-135.53 1.11-202.38-.52zm335.14 2.83c13.2-.94 141.8-1.42 147.8.33l1.38 3.17c-39.42 1.7-105.36-.76-147.23-.16-1.08.02-1.33-1.76-1.95-3.34m-137.05 85c19.49-1.95 51.04.42 71.58-.46 6.56-.28 45.27-.08 49.47.84l1.39 3.37c-11.77.39-116.83 1-121.24-.74zm-1.41-61.78c7.63-.04 47.29-.75 52.03.06l.95 1.99-.93 1.79c-4.69 1.68-52.47.42-60.67.37-10.66-.12-47.06 1.35-54.21-2.53 4.28-2.21 54.56-1.64 62.83-1.68m-185.07-.04c9.83-1 21.9-.51 32.01-.53 21.38-.05 42.98-.43 64.33.14.71.02 1.52 1.69 1.73 2.12l.58 1.11c-5.74 1.15-12.16.86-18.04.85-26.19-.07-52.45.55-78.61-.14-.57-.01-1.22-1.23-1.32-1.69-.23-.62-.45-1.24-.68-1.86"/><path fill="#be8f5b" d="M1628.41 1555.49c19.99-.42 68.58 2.08 85.38 14.98 6.15 4.72 4.01 29.38 4.09 39.1-5.7 5.75-11.27 7.69-18.6 11.06-1.75 45.95.96 93.3-.63 138.46-19.7.39-41.08-.01-60.9-.04-11.81.04-55.83.46-65.22-1.72-4.21-5.74-2.45-122.4-2.49-136.29-10-3.48-13.61-4.67-21.91-11.38-.16-9.43-2.33-33.5 3.27-38.45 15.42-13.63 57.75-15.02 77.01-15.72"/><path fill="#0b1c26" d="M1573.07 1621.95c35.93 10.35 87.82 9.51 123.79-.55-1.13 42.26.18 88.15-.02 130.85l-.2 3.14c-3.13 1.51-111.57.95-124.19.67-.37-7.2-.15-15.34-.07-22.59.42-37.1-.47-74.46.69-111.52"/><path fill="#0b1c26" d="M1550.96 1581.19c.33-2.75.05-2.35-.65-5.03 10.85-24.06 134.46-20.43 155.59-7.2 7.4 4.64 8.11 3.5 9.66 12.11l-.49 28.41c-36.18 23.99-126.8 22.2-164.03-.37-.73-8.55-.87-19.4-.08-27.92"/><path fill="#617386" d="M1550.96 1581.19c.33-2.75.05-2.35-.65-5.03 10.85-24.06 134.46-20.43 155.59-7.2 7.4 4.64 8.11 3.5 9.66 12.11-28.39 19.29-137.05 19.06-164.6.12"/><path fill="#718498" d="M679.272 1162.78c-3.879-6.6-17.343-35.84-18.534-42.76l.869-1.45c9.73-1.26 34.861 2.24 45.78 3.35 25.863 2.62 51.831 5.89 77.74 8.32 4.682 23.96 34.154 55.25 46.239 77.48 8.802 16.19 50.41 25.07 67.55 20.22 44.515-8.03-14.538-68.95-28.423-87.34l49.967 5.79c8.982.95 26.068 2.26 34.222 4.02 10.178 13.14 22.565 32.75 32.131 46.96a2556 2556 0 0 0 45.187 65.21c-98.29-13.52-196.655-31.02-294.82-45.85-10.858-1.65-49.354-9.39-56.883-8.46-4.902.42-9.913-1.05-13.824-1.04-6.018.02-7.056-3.96-3.94-8.23 1.25-1.72 7.853-.82 9.886-.93 8.155-10.11 10.313-12.43 4.154-24.94.451-2.06.117-2.76 1.634-3.3 17.448-6.28 92.598.99 104.346-4.8l-.193-.93c-7.182-1.67-26.027-1.01-34.488-1.09-22.794-.22-45.794.32-68.6-.23"/><path fill="#718498" d="M672.419 1198.07c3.207 4.82 3.804 6.25 7.878 10.2-4.902.42-9.913-1.05-13.824-1.04-6.018.02-7.056-3.96-3.94-8.23 1.25-1.72 7.853-.82 9.886-.93"/><path fill="#be8f5b" d="M1102.71 1453.42c16-1.26 75.1-2.5 88.16 15.88 1.97 2.77 1.17 22.95-.13 26.96-1.66 5.1-9.65 8.07-14.66 10.47.43 37.07.41 78.41-.48 115.38-11.95.47-23.9.72-35.85.73-24.64.1-46.32-.29-70.91-1.13-2.16-30.78-.57-82.9-.67-115.08-6.93-2.73-11.64-4.36-17.95-8.34-.53-12.4.26-20.59.89-32.81 14.31-8.04 35.58-10.79 51.6-12.06"/><path fill="#0b1c26" d="M1070.33 1507.2c34.62 8.14 68.91 8.73 103.57-.01l.02 109.06-.52 2.65c-3.06 1.91-21.27 1.09-25.88 1.09-25.49-.12-50.99-.02-76.48.28-.79-37.69-1.02-75.38-.71-113.07"/><path fill="#0b1c26" d="M1052.06 1473.73c2.67 1.27 5.38 2.45 8.14 3.52 30.87 11.96 98.3 10.42 128.82-3.18.17 6.91 1.54 18.94-2.24 24.27-33.25 18.67-99.88 15.25-134.18-1.57-.48-7.04-.4-15.87-.54-23.04"/><path fill="#617386" d="M1116.96 1455.45c14.11-.35 63.92 1 70.19 13.96l-.8 2.21c-9.41 8.49-48.05 11.3-61.71 11.56-12.89.1-63.36-1.71-70.65-13.21 1.09-12.37 52.13-14.11 62.97-14.52"/><path fill="#be8f5b" d="M769.745 1355.47c18.284-.64 46.766.58 61.018 13.09-.553 8.71-.304 17.48-.194 26.22-3.376 1.99-7.889 4.02-11.49 5.76-.147 12.98 1.045 89.63-2.484 94.71-8.803 3.23-31.277 2.04-41.503 1.95-15.882-.03-31.762-.34-47.634-.94.477-31.76.43-63.53-.143-95.3-7.477-2.17-10.093-3.08-16.083-8 .764-7.84.344-18.01.24-26.05 17.117-11.12 38.236-10.47 58.273-11.44"/><path fill="#0b1c26" d="M729.946 1401.93a213.7 213.7 0 0 0 66.557 3.23c6.87-.7 12.894-1.89 19.642-3.44l-.092 89.5c-.07.42-.29 1.99-.532 2.01-14.719 1.43-73.489.9-85.174.63-1.129-29.22-.052-62.29-.401-91.93"/><path fill="#0b1c26" d="M714.811 1373.39c-.327-6.49 2.389-8.03 8.507-10.14 20.59-7.11 85.817-9.06 102.592 4.67l.472 1.87c-5.864 8.61-31.066 7.04-37.658 11.1 13.435.03 26.748-2.56 39.192-7.63l.24 19.93c-29.187 16.57-83.33 12.9-113.599.27-.171-7.31-.28-12.8.254-20.07"/><path fill="#617386" d="M714.811 1373.39c-.327-6.49 2.389-8.03 8.507-10.14 20.59-7.11 85.817-9.06 102.592 4.67l.472 1.87c-5.864 8.61-31.066 7.04-37.658 11.1-.469.3-.805.55-1.399.62-20.648 2.23-54.937 1.08-72.514-8.12"/><path fill="#be8f5b" d="M453.247 1305.44c17.807-12.88 72.635-12.93 91.889-2.91l3.838 1.33c3.795 2.74 1.548 19.09 1.245 24.36-2.956 1.77-6.607 3.6-9.69 5.26-.871 25.44-.54 51.79-.452 77.28-20.92 1.04-51.77.6-72.855-.06-1.098-23.43.148-53.55-.075-77.91-18.768-3.49-14.703-10.44-13.9-27.35"/><path fill="#0b1c26" d="M548.082 1311.08c1.545 4.09.873 11.33.83 16.05l-1.502.69c-24.773 11.99-66.375 10.14-91.37-.62-.053-5.6-.038-10.62.206-16.21 25.134 7.34 68.082 12.55 91.836.09"/><path fill="#617386" d="M456.246 1310.99c-.562-6.22-.145-6.54 6.759-8.51 19.398-5.56 41.097-5.77 60.991-3.47 7.567.88 13.788 3.16 21.14 3.52l3.838 1.33c-.439 2.48-.59 4.73-.892 7.22-23.754 12.46-66.702 7.25-91.836-.09"/><path fill="#0b1c26" d="M536.295 1334.16c.313.05 1.421.21 1.438.46 1.082 15.55.04 61.1.323 74.81-22.516-1.03-47.458.42-68.826-.73-.801-21.67-.505-51.92.117-73.75 25.948 5.31 41.659 4.64 66.948-.79"/><path fill="#718498" d="M842.329 1285.28c48.416 7.74 111.604 22.54 160.091 33.05.94 10.22 1.75 22.51 3.44 32.47l-22.045-.14c-51.35-1.5-99.463-15.45-149.972-23.57-5.592-.9-10.372-2.48-13.592-7.19-.677-3.17-.968-3.16.071-6.15 4.643-1.6 16.552-1.91 22.167-2.32-.261-8.05-.897-18.31-.16-26.15"/><path fill="#9f7b55" d="M234.143 1246.32c30.187-6.24 45.151-6.12 74.839 1.5 3.976 5.17 1.482 13.57 1.605 20.11.068 3.58-6.762.34-6.397 8.55.85 19.14-2.113 42.8.209 61.53.355.37.616.52.733.94-1.577 1.31-2.153-1.43-3.142 2.89-.116.17-1.283 2.07-1.668 2.05-6.301-.32-40.435 1.58-42.833-.02-.625-1.29 2.75-1.6 3.5-1.61 4.222-.09 8.442-.24 12.659-.48-4.074-1.28-15.73-1.43-15.41-1.24l.072-.13-.045.12c2.526-.84 10.28-.17 10.718-.99l-.07-.17c-.513-.35-.102-.13-1.627-.65-8.41-.15-17.519.13-25.857-.12-5.14-.15-2.539-14.3-2.532-18.1l-.004-47c-1.953-.74-8.435-2.53-8.879-4.47-1.471-6.47-4.522-18.24 2.569-21.87z"/><path fill="#617386" d="M234.143 1246.32c30.187-6.24 45.151-6.12 74.839 1.5-.386 2.95-.293 3.48-.045 6.51-18.383 7.85-47.903 6.43-67.434 3.66-11.061-1.57-9.245-9.98-10.014 7.06-.005-7.67-1.081-9.98 1.942-16.98z"/><path fill="#0b1c26" d="M308.937 1254.33c1.379 3.81.617 8.21.429 12.42-13.969 7.83-73.861 13.67-77.877-1.7.769-17.04-1.047-8.63 10.014-7.06 19.531 2.77 49.051 4.19 67.434-3.66"/><path fill="#f8f0e9" d="M304.399 1338.01c.355.37.616.52.733.94-1.577 1.31-2.153-1.43-3.142 2.89-.116.17-1.283 2.07-1.668 2.05-6.301-.32-40.435 1.58-42.833-.02-.625-1.29 2.75-1.6 3.5-1.61 4.222-.09 8.442-.24 12.659-.48-4.074-1.28-15.73-1.43-15.41-1.24l.072-.13-.045.12c2.526-.84 10.28-.17 10.718-.99l-.07-.17c-.513-.35-.102-.13-1.627-.65 4.06-1.24 30.669-.63 37.113-.71"/><path fill="#53657e" d="M273.648 1341.78c7.913.48 21.158-1.88 28.342.06-.116.17-1.283 2.07-1.668 2.05-6.301-.32-40.435 1.58-42.833-.02-.625-1.29 2.75-1.6 3.5-1.61 4.222-.09 8.442-.24 12.659-.48"/><path fill="#0b1c26" d="M241.537 1274.4c21.53 4.13 38.669 3.36 60.13-.67l.03 61.83c-9.999 1.5-48.771.87-60.698.48-.064-8.49-.456-56.17.538-61.64"/><path fill="#718498" d="M786.403 1129.97c24.381 3.83 53.219 6.28 78.304 9.51 11.589 13.33 45.664 54 48.141 72.46.461 3.43-1.971 6.29-4.256 8.66-19.898 9.98-53.278 5.18-70.816-10.22-3.41-3-10.96-16.21-13.988-20.68-13.31-19.66-27.739-37.94-37.385-59.73m219.207 188.74c30.4 7.71 63.57 13.97 94.82 13.45.2 3.82.01 8.41-.05 12.29-11.2 14.96-21.34 24.28-31.98 41.26l10.23 3.46c-2.83 12.57-6.95 19.72-12.62 31.09l-9.47 20.76-13.91.22c-8.07-13.85-20.6-37.25-25.87-51.92l15.88-3.84c-4.08-8.94-17.82-28.46-23.98-37.62 4.8-.63 9.91-1.05 14.75-1.54-4.89-.98-9.8-1.9-14.72-2.74-.63-8.56-1.84-16.4-3.08-24.87"/><path fill="#afa7a1" d="M1321.4 765.369c-1.14.277-10.38 2.311-10.71.907-1.51-6.419-.43-15.531-.25-22.277.14-5.197-.17-10.432.62-15.506-.11-2.974.58-6.774 1.9-9.49 2.55-5.247 8.66-8.729 14.25-5.604 7.04 3.777 4.37 12.491 5.14 18.65.19 1.568 9.71-.275 5.69 5.837l-.66 1.546c-2.28 4.922-.59 19.646.13 25.626-6-.169-10.11-.239-16.11.311"/><path fill="#d22429" d="M1323.08 739.135c1.22-.189 14.41-1.4 14.96-1.249l-.66 1.546c-2.28 4.922-.59 19.646.13 25.626-6-.169-10.11-.239-16.11.311l-.8-.66c1.5-9.835 2.51-15.389 2.48-25.574"/><path fill="#f9f6f5" d="M1320.6 764.709c-2.13.358-5.61 1.081-7.69 1.249-2.08-2.424-.42-19.396-1.09-23.5-.74-4.447 9.05-3.447 11.26-3.323.03 10.185-.98 15.739-2.48 25.574"/><path fill="#f9f6f5" d="M1320.28 713.874c11.07 1.143 9.8 7.752 9.62 17.183-.08 4.256-4.15-.638-10.31 5.852-7.54 9.18-12.93-11.991-.64-21.913z"/><path fill="#718498" d="M1457.34 1192.28c24.37-4.86 72.65.63 99.05-.11 1.01-.02 2.55 3.3 2.66 4.33 1.4 12.97-53.51 3.23-62.77 6.15-3.8 1.19-33.57.12-36.79-.39-1.91-4.19-1.67-5.22-2.15-9.98m-1168.638-72.01c22.492-.09 227.421-1.66 234.614 1.14l1.195 3.4c-14.379 1.34-232.16.55-233.504.06-.615-.22-1.142-.64-1.713-.96zM1598 1121.33c.35-.05.71-.09 1.07-.13 23.75-.54 48.72-.46 72.37-.54 25.9-.12 51.79-.07 77.69.14 6.37.04 27.84-1.33 31.67 1.7l-.03 3.05c-54.38 1.61-110.33-1.29-164.9.32-3.77.11-12.79.27-16-.67zm-995.811 55.09c10.282-.39 67.131-2.55 72.729 2.07 1.3 1.08 3.137 2.67 3.213 4.52.043 1.03-.542 1.47-1.235 2.14-22.783 1.93-51.804.81-74.701-.34-2.517-.12-1.556-6.23-.006-8.39m958.341 651.7c15.04-.45 120.86-1.24 125.11 1.5l.06 4.16c-13.76.27-119.95 1.28-124.5-1.77zm30.05-63.96c7.72-.98 114.22-.71 118.02.5l1.53 3.35c-5.87 2.17-104 1.8-116.49 1.01-2.45-1.54-1.79-1.52-3.06-4.86m1.93 113.85c29.02 0 72.62-.41 102.91.56.67.46 1.35.92 2.03 1.38l.72 4.16c-25.92.6-52.38-.91-78.36-.23-7.78.2-17.1.47-24.71-.53-2.93-2.12-1.75-.68-2.59-5.34"/><path fill="#53657e" d="M1545.42 1780.34c7.91-1.31 142.99-.84 146.73.17l1.59 2.78c-2.88.46-5.79.57-8.7.59l-93.81.1c-12.94 0-27.38.25-40.39-.37-3.04-.14-3.34-1.22-5.42-3.27"/><path fill="#718498" d="M1554.67 1808.95c26.34.02 78.61-.37 107.25.36l1.35 1.17.07 3.49c-13.51.06-104.45 1.88-108.92-1.27zm-503.19-168.73c11.85-.41 120.58-.71 123.23 1.36v3.42c-25.54-.56-51.09-.8-76.64-.71-7.12.05-42.15 1.41-45.72-.52zm-562.245-467.74c31.092-.22 62.201.26 93.29.44 3.499.02 6.577 2.41 2.225 4.54-31.646.43-65.288.67-96.651-1-2.212-.12.656-3.53 1.136-3.98m1146.395-30.16c31.03-.35 65.3-.65 96.34.76.88.04 1.29 3.17 1.39 3.68-30.5 2.55-66.44-.86-97.2.08-.71.02-.53-4.41-.53-4.52"/><path fill="#617386" d="M481.235 1139.51c6.639-.12 25.782-1.33 30.48.9l.672 2.49.494-1.35-.978 1.51c-16.122 2.07-61.466.84-79.404.81-5.862.1-26.43 1.46-29.931-1.77l1.048-1.34c3.569-1.72 68.603-1.19 77.619-1.25"/><path fill="#718498" d="m1063.21 1686.47 70.33.08c9.82.02 21.18-.18 31 .55 2.82.21 2.66 1.05 4.08 3.23-1.04.26-2.03.55-3.11.59-12.74.54-25.52.26-38.27.18-20.79-.13-41.58-.4-62.37-.34-.56-.42-1.13-.83-1.69-1.25zm23.57-59.52q33.15.195 66.3.03c10.64-.01 21.33-.11 31.95.18 1.83.05.96 2.87.82 4.1-32.31.72-65.28.42-97.55.14-.75 0-1.13-2.67-1.23-3.15zm518.25 223.29c23.11-2.25 52.65.76 76.16.22.97-.03 1.72 4.89 1.8 5.28-7.77.25-15.86.02-23.69-.11-17.35-.3-35.02.28-52.27-.75-.94-.05-1.88-4.19-2-4.64m50.13-59.87c23.24.11 54.59.15 78.45.94.55.02.95 2.46 1.02 2.98l.29 1.7c-10.89.2-65.58.26-79.4-.69-.73-.05-.46-3.5-.36-4.93"/><path fill="#53657e" d="M371.169 1104.41c13.789-1.49 31.333.17 45.609-.32 17.878-.62 36.691.31 54.632.02 1.044-.01 2.146 2.81 2.398 3.33-6.131 1.11-12.736.66-19.027.62-27.228-.18-54.563.18-81.747-.14-.838-.01-1.716-3.08-1.865-3.51"/><path fill="#617386" d="M1134.24 1667.52c1.77-.03 11.62-.73 12.75.43 2.15 2.2-.32 4.13-3 4.11-24.17-.19-48.33-.14-72.49-.11-2.71-.01-10.44.51-12.51-.43-2.11-.96-.6-3.78 2.54-3.79 24.12-.1 48.6.5 72.71-.21m-418.516-156.13c31.91-.65 64.28.34 96.2-.05.886-.01 1.452 2.88 1.574 3.34-21.052 1.35-72.806-.41-96.235-.03-.797.01-1.384-2.68-1.539-3.26m374.096 214.84c17.46-1.02 63.58.22 82.81.13.81 0 1.43 2.7 1.61 3.38-26.11 2.11-56.87-.48-83.21.15-.65.02-1.16-3.41-1.21-3.66"/><path fill="url(#d)" d="M282.966 1355.37c-9.546-6.06-47.586 1.24-48.532-4.73 1.107-2.53 8.007-1.37 10.564-1.34 22.179.09 44.351.75 66.497 1.96 9.368.48 1.926 4.61 2.863 4.56-9.253.46-20.258.23-29.637.21z"/><path fill="#718498" d="M1685.17 1104.35c16.05-.29 32.26.09 48.33.08 5.82-.01 14.13-2.3 15.03 3.76l.26 1.59c-19.21-.14-43.29-.17-62.77-.86-1.02-.04-.85-3.99-.85-4.57"/><path fill="#617386" d="M722.626 1540.41c26.878-2 58.721-.24 85.703.09 1.458.01-.41 2.7-.578 2.91-23.772.71-48.048-.57-71.883.09-3.059.09-9.651.41-12.333.03-.702-.62-.795-2.43-.909-3.12m773.604 214.08c19.51-.05 41.07-.47 60.64-.1.94.02 2.94 3.6-.84 4.55-20.65-.1-41.46.36-62.05-.16-1.55-.04-2.45-3.24 2.25-4.29"/><path fill="#718498" d="M1102.12 1702.47c20.15.1 40.45-.16 60.53.14.73.01.79 3 .79 3.38l.05 1.49c-19.91.16-40.08-.48-60.02-.18-2.66.03-1.63-3.34-1.35-4.83m-380.625-174.01c22.902-.65 47.24.14 70.198-.15.862-.01 1.421 4.26 1.484 4.62-13.004.03-55.456-.55-70.782-1.3-.661-.03-.851-2.24-.9-3.17"/><path fill="#617386" d="M593.99 1145c-22.627-.06-47.363.92-69.631-1.05-.776-.29-.004-2.17.328-2.23 15.627-2.69 57.194-.12 70.457.45 1.187 1.85.58 1.67-1.154 2.83m153.158 431.43c14.531-1.5 51.736.11 68.218-.26.679-.01 1.826 2.4 1.988 2.69-11.781 3.99-53.8-.21-68.69.96-.534.04-1.448-3.19-1.516-3.39"/><path fill="#718498" d="M1717 1754.17c17.2-.05 34.49.05 51.68.33 3.39.06 2.55 2.77 2.15 5.08-14.36.34-28.91-.51-43.33-.34-8.65.11-9.98 2.13-10.5-5.07"/><path fill="#617386" d="M1141.5 1654.15c16.14-1.45 34.11.38 50.5-.15 7.09-.23 12.73-2.47 14.63 3.82-19.86 1.78-43.45-.88-63.6-.01-.72.03-1.45-3.36-1.53-3.66"/><path fill="#718498" d="M557.384 1107.42c-18.718.72-38.356.99-57.049.25-.373-.02-2.021-2.07-.642-2.93 2.863-1.79 7.046-.57 10.283-.94 15.496.84 34.445-2.23 49.599-.13-.76 1.11-1.516 2.55-2.191 3.75m1219.456-2.1c5.09-.39 10.43-.45 15.54-.32 10.26.26 20.8-.56 30.97.3.65.05 1.82 4.28 1.89 4.5-5.02.51-10.21.49-15.46.34-10.15-.31-21.02.51-31.12-.42-.54-.05-1.21-2.45-1.32-2.83z"/><path fill="#617386" d="M747.66 1555.24c14.252-1.17 29.931.03 44.371-.26 7.23-.15 13.496-2.44 15.758 3.86-19.21.7-39.415 0-58.659-.12-.929-.01-1.361-2.98-1.47-3.48"/><path fill="#53657e" d="M748.806 1501.36c5.184-.41 10.621-.44 15.883-.4 18.325.14 36.888-.52 55.156.37.892.05 1.429 1.82 1.62 2.46l.414 1.28c-5.855-.25-11.493-.83-17.378-.9-17.968-.24-35.977.08-53.93-.07-.951-.01-1.305-1.13-1.486-1.8z"/><path fill="#718498" d="M1003.76 1621.4c11.97-1.45 26.07-.23 38.34-.56 7.76-.21 12.75-2.54 15.05 4.11-2.56.5-13.24 1.16-15.45.58-6.36-1.64-34.94 2.69-37.28-2.73zm588.48-478.89c3.1-.02 16.69-.44 17.63.12 11.96 7.17-22.9 4.81-25.62 4.81-3.92 0-20.46 2.09-20.34-2.36.12-4.33 23.97-2.48 28.33-2.57M503.745 1450.5c8.568-.06 18.908-.62 27.29.56.685.1.691 2.34-.068 2.42-11.221 1.12-24.073.54-35.5.52-5.177 0-29.537 1.76-31.304-2.26 2.429-1.88 34.694-1.19 39.582-1.24"/><path fill="#53657e" d="M471.235 1423.53c7.999-.18 63.322-1.87 65.638.67l-.054.31c-1.81 1.2-13.326.75-16.358.79-7.104.51-60.42 2.15-62.643.5-.085-3.38 10.701-2.2 13.417-2.27"/><path fill="#718498" d="M1625.49 1104.21c13.26-.28 28.15-.38 41.39.32 1.02.05 1.84 4.24 1.97 4.75-13.43.31-28.76.28-42.19-.3-.79-.04-.97-2.74-1.01-3.18z"/><path fill="#53657e" d="M1586.85 1176.41c5.71-.76 11.15-.64 16.9-.49 11.5.32 23.15-.3 34.61.22.45.03 1.09 1.7 1.22 2.06l.58 1.43c-4.94.67-9.36.54-14.37.43-12.04-.27-24.21.41-36.21.05-1.25-.04-2.39-3-2.73-3.7"/><path fill="#617386" d="M786.165 1518.28c8.366-.45 44.366-.11 54.322 1.16.459.06.237 2.21.216 2.57-14.403-.09-28.807-.09-43.21.02-8.114.09-10.169 4.99-11.103-2.16z"/><path fill="#53657e" d="M233.156 1104.45c7.049-.34 15.852-.7 23.902-.13 5.524.39 25.753-2.31 29.346 1.44-.091-.09 1.078 2.09.965 1.87-5.662.7-11.358.53-17.061.41-11.836-.29-23.864.44-35.65-.25-.393-.02-.922-1.65-1.023-1.97z"/><path fill="#718498" d="M1640.21 1908.37c6.55-.77 17.43-.93 24.13-.43 7.69.57 14.45-3.15 15.94 3.94-8.83 2.4-27.01.27-36.75.66-1.26.05-2.32-1.89-2.73-2.86z"/><path fill="#617386" d="M482.098 1479.33c9.926-1.52 41.873-.41 53.268-.13.758.02 1.401 1.95 1.612 2.44-8.746 1.04-43.271.56-53.804.1-.496-.02-.943-1.94-1.076-2.41m-20.492-40.87c4.902-.35 9.682-.4 14.642-.37 14.873.11 29.907-.41 44.733.03.697.02 1.21 2.08 1.345 2.48-8.926.85-18.665.32-27.701.4-10.3.1-20.795.11-31.072-.22-1.187-.03-1.583-1.51-1.947-2.32"/><path fill="#53657e" d="M237.985 1370.39c8.864-.88 18.736-.25 27.708-.42 9.166-.18 18.58-.03 27.749.06 1.243.01 1.67 1.76 1.998 2.57-13.349 1.34-41.471.03-55.818.21-.773.01-1.394-1.84-1.637-2.42"/><path fill="#617386" d="M306.84 1104.28c11.194-1.61 27.845.16 39.503-.07.521-.01 1 1.66 1.109 2.1l.467 1.75c-12.747.44-25.714-.13-38.476.32-.947.04-1.741-2.04-1.972-2.62z"/><path fill="#718498" d="M530.022 1461.68c2.783.74.351 3.84.646 3.82-12.996.84-28.372.45-41.385.39-6.768-6.98 35.029-3.82 40.739-4.21"/><path fill="#53657e" d="M673.025 1494.49c10.276-1.14 21.635-.23 32.07-.46 3.631-.08 14.272-1.26 15.968 1.86l.541.95c-6.302.67-45.267 2.11-47.742-1.28zm-187.04-78.97c14.086-.5 28.272-.29 42.371-.49 2.381-.04 12.807-1.39 9.38 3.05-17.239.08-34.585.05-51.806-.18-2.029-.03-2.054-1.4.055-2.38"/><path fill="#617386" d="M517.233 1428.5c13.4-.54 27.52-.38 40.9.4 2.909.17.86 2.15-1.329 2.85-13.96.23-29.516.41-43.295-.65-.476-.03-.191-1.35.178-1.68.868-.78 2.596-.79 3.546-.92"/><path fill="#53657e" d="M1196.23 1622.49c6.71-.12 13.18-.16 20.29-.04 2.51.05 17.22-.95 19.55 1.16.74.67-.38 1.94-2.03 2.32-6.53-.04-32.63.18-40.74.06-.17-.01-.49-.58-.23-1.07.72-1.37 1.93-1.88 3.16-2.43"/><path fill="#718498" d="M1633.24 1951.46c5.27.07 17.46-.18 23.1.31.77.07.88 2.63.89 3.46l.05 1.62c-3.25.13-33.16 3.56-24.04-5.39m-489-201.95c3.29-.04 10.59-.77 13.57.67.79.38.7 1.88-.15 2.51-3.31 2.42-11.88 1.56-15.6 1.56-2.08.03-11.27.33-12.05-.21-8.7-6.13 10.98-4.44 12.32-4.47zm-718.745-340.2c3.877-.28 29.444-.88 34.66.27.476.1.302 2.2.283 2.7-4.647.91-33.294 2.67-34.612-1.9z"/><path fill="#53657e" d="M285.286 1360.68c-.087.46-.435 3.43-1.383 3.39-5.755-.26-42.715.97-44.932-.69.067-1.61 2.84-1.68 4.027-1.72 13.223-.46 27.149-.78 40.354-.45zm-31.402 35.73c4.572-.54 9.557-.72 14.143-.54 11.258.43 23.333-.93 34.347.44.351.04.211 1.91.211 1.95-13.737.42-32.764.34-46.941.27-.648-.01-1.511-1.71-1.76-2.12"/><path fill="#718498" d="M546.965 1409.41c5.269-.84 29.859-3.06 32.005 2.29-6.57 2.79-21.447.65-28.948 1.17-.957.07-1.86-1.55-2.291-2.26z"/><path fill="#53657e" d="M829.995 1495.42c7.132-.85 28.204-.93 36.347-.2.421.04.729 2.43.711 2.34-8.51.56-26.511.53-35.831.1-.682-.03-1.079-1.78-1.227-2.24"/><path fill="#617386" d="M1121.04 1785.34c4.99-.23 21.44-2.76 22.04 2.85l.19 1.57c-3.4.08-17.93.63-21.61-.72-.74-.27-.62-2.97-.62-3.7"/><path fill="#53657e" d="M307.916 1335.37c5.153-.11 27.018-2.59 26.652 3.64-4.996.01-28.326 2.61-26.652-3.64"/><path fill="#718498" d="M777.31 1596.44c6.501-1.23 18.145-.77 25.098-.72.76.01 2.139 2.23 2.596 2.86-5.567 1.05-24.137 2.65-27.694-2.14M1650.67 1928c9.21 0 14.52-2.96 16.07 5.91-10.45.2-15.05 3.61-16.07-5.91"/><path fill="#617386" d="M260.585 1381.5c6.109-.72 31.162-1.83 36.344 1.03-6.468 1.41-30.201 1.83-36.344-1.03"/><path fill="#53657e" d="M207.989 1336.46c4.803-.86 25.504-2.43 28.403 1.37-5.274 1.3-23.226 1.76-28.403-1.37"/><path fill="#617386" d="M507.899 1494.39c3.072-.27 14.82-.9 18.357.09.603.17.771 3.04.796 3.25-5.099 0-17.47 1.6-19.153-3.34"/><path fill="#718498" d="M1134.46 1766.05c6.42-.26 14.01-2.98 13.25 4.16-7.14.2-12.24 2.98-13.25-4.16"/><path fill="#53657e" d="M771.421 1626.49c4.508-.82 15.779-2.68 18.893 1.31-5.079 1.68-14.612 2.47-18.893-1.31m-493.186-218c.556-.01 20.844-1.09 15.422 3.08-2.612-.07-15.525.43-16.281-.4a1.4 1.4 0 0 1-.355-1c.045-.69.817-1.28 1.214-1.68"/><path fill="#617386" d="M284.8 1430.11c1.54 6.11-7.065 3.88-11.501 3.84-.688-5.76 6.726-3.68 11.501-3.84"/><path fill="#53657e" d="M503.44 1518.45c4.242-.49 13.33-2.91 14.379 2.14-4.312.41-12.867 2.39-14.379-2.14"/><path fill="#718498" d="M595.144 1142.17c5.942-.03 11.632.7 17.54 1.26-7.183.78-11.304 1.53-18.694 1.57 1.734-1.16 2.341-.98 1.154-2.83"/><path fill="#617386" d="M510.27 1505.34c4.234-.16 9.021-1.61 9.632 3.25l-3.887.34c-4.054.31-5.579.59-5.745-3.59m283.176 103.9c1.046.19.889.09 1.754.6.465 3.69-5.512 3.49-7.957 3.84-5.483-4.68 2.689-4.03 6.203-4.44"/><path fill="#718498" d="M279.084 1419.38c4.423-.82 7.577-2.23 10.411 1.54-3.73 1.07-6.206 2.08-9.348-.64z"/><path fill="#f8f0e9" d="m282.966 1355.37 1.755.66c.199 1.55.387 3.09.565 4.65l-1.934.53c-.162-1.95-.29-3.89-.386-5.84"/><metadata><recraft-signature>{&quot;signed_by&quot;: &quot;recraft&quot;, &quot;signature_b64&quot;: &quot;cznJ5Ry1BEIW9vly2RiEoFKStnyK7N3/VNrCUil+kvGqXZb6uxd1SidWSaOrnQ1lMQxXd+IzIp/0cu0npu4sAw==&quot;, &quot;signing_algo&quot;: &quot;Ed25519&quot;, &quot;generation_timestamp&quot;: 1777235099, &quot;identifier&quot;: &quot;cfd1c2dd-72d8-4c7a-86f4-66af7074af97&quot;}</recraft-signature></metadata></svg>