<svg xmlns="http://www.w3.org/2000/svg" width="1024" height="1024" preserveAspectRatio="none" style="display:block" viewBox="0 0 2048 2048"><path fill="#273641" d="M895.669 0h28.88c19.185 18.679 40.846 32.733 63.234 47.136 5.875 3.78 20.387 12.201 23.087 18.257-10.55 7.117-107.76-13.953-127.053-16.359l-3.262.504-1.086-1.536c-.729-14.285 9.454-35.71 16.2-48.002"/><path fill="#c3732b" d="M883.817 49.034c29.76-14.697 95.386 8.047 127.053 16.359-10.55 7.117-107.76-13.953-127.053-16.359"/><path fill="#273641" d="M1125.63 0h27.68c9.97 16.693 14.57 31.057 17.45 50.421-1.55-.515-6.55-2.063-7.8-2.628-32.2 6.595-64.1 12.945-96.83 16.388-5.83.613-18.17 2.812-23.1 3.063l-2.42.46c-2.85-2.466-2-1.002-3-4.294 2.82-5.3 19.81-12.873 25.79-16.578 22.5-13.94 42.24-29.748 62.23-46.832"/><path fill="#c3732b" d="M1043.03 67.244c3.91-3.367 16.4-6.816 21.9-8.486 25.55-7.763 73.1-20.901 98.03-10.965-32.2 6.595-64.1 12.945-96.83 16.388-5.83.613-18.17 2.812-23.1 3.063"/><path fill="#273641" d="M1040.9 1990.79c24.6-.55 98.61 8.8 121.3 17.27 3.64-.73 4.52-1.46 7.68-.42 1.43 8.28-7.48 31.66-10.81 40.36h-44.55a537 537 0 0 0-41.54-30.32c-5.39-3.56-34.15-20.41-35.79-23.54 1.79-3.02.58-1.97 3.71-3.35"/><path fill="#c3732b" d="M1040.9 1990.79c24.6-.55 98.61 8.8 121.3 17.27-33.32 9.54-60.98.94-93.23-8.22-7.85-2.23-21.35-5.03-28.07-9.05"/><path fill="#273641" d="M884.915 2008.12c32.044 11.67 84.107-5.58 116.685-15.5 3.15 2 3.57 1.74 4.61 5.15-28.409 17.76-46.252 28-71.785 50.23h-44.548c-3.495-8.85-12.682-31.74-11.492-40.29 2.597-1.04 3.207-.29 6.53.41M1034.91 0h37.2c-9.17 11.397-36.37 44.72-41.17 56.475-3.01.08-4.18-.69-5.06-3.432.46-13.986 6.07-38.992 9.03-53.043"/><path fill="#c3732b" d="M1034.91 0h9.63c-2.83 10.08-13.6 45.607-18.66 53.043.46-13.986 6.07-38.992 9.03-53.043"/><path fill="#273641" d="M979.995 0h35.595c1.91 17.067 6.65 35.877 6.73 52.977-.85 2.142-3.55 5.41-5.64 2.928-4.15-11.78-29.219-42.42-36.685-55.905"/><path fill="#c3732b" d="M1006.19 0h9.4c1.91 17.067 6.65 35.877 6.73 52.977-8.22-11.08-12.89-39.117-16.13-52.977M884.915 2008.12c32.553-5.03 64.907-14.62 97.992-16.34 7.325-.38 14.638-.76 21.963-1.09-1.21.65-2.11 1.19-3.27 1.93-32.578 9.92-84.641 27.17-116.685 15.5"/><path fill="#273641" d="m1028.01 2001.13 1.5-.2c2.45-.38 3.48-.19 4.54 2.18l.51 1.88c.97 4.02 27.08 37.05 31.7 41.81l.65 1.2h-31.35c-.81-2.85-1.64-5.62-2.3-8.53l-1.12-4.98c-1.06-4.92-7.05-29.81-5-32.29z"/><path fill="#c3732b" d="M1035.56 2048c-.81-2.85-1.64-5.62-2.3-8.53l-1.12-4.98c-1.06-4.92-7.05-29.81-5-32.29l.87-1.07c2.07 5.2 4.05 9.27 6.01 14.74 1.88 6.37 3.69 13.01 5.68 19.29.54 3.87 2.07 8.85 2.98 12.84z"/><path fill="#b96b27" d="M1034.02 2015.87c1.88 6.37 3.69 13.01 5.68 19.29-.88-.83-2.67-2.59-3.58-3.38-1.67-.96-2.78-3.05-2-5.11 2.09-5.52-3.73-2.38-.76-9.23z"/><path fill="#273641" d="M1012.95 2006.78c7.34-.6 3.47.36 4.79 6.4-.94 6.07-9.26 28.1-12.02 34.82h-23.57c6.338-8.84 23.51-33.86 30.8-41.22"/><path fill="#b96b27" d="M1072.11 0h12.96c-9.88 11.353-42.64 49.86-54.13 56.475 4.8-11.755 32-45.078 41.17-56.475M966.849 0h13.146c7.466 13.485 32.535 44.126 36.685 55.905-10.77-7.372-40.537-44.6-49.831-55.905"/><path fill="#c3732b" d="M1034.05 2003.11c7.77 5.6 27.44 26.41 34.38 34.18 3.38 3.86 6.35 7.07 9.97 10.71h-11.49l-.65-1.2c-4.62-4.76-30.73-37.79-31.7-41.81zM971.689 2048c5.754-8.38 33.791-39.93 41.771-44.59l-.51 3.37c-7.29 7.36-24.462 32.38-30.8 41.22z"/><path fill="#c3732b" d="M1013.46 2003.41c4.12-3.22 3.1-2.81 8.41-1.13-.01 13.48-5.13 31.83-7.31 45.72h-8.84c2.76-6.72 11.08-28.75 12.02-34.82-1.32-6.04 2.55-7-4.79-6.4z"/><path fill="#303332" d="M1013.46 2003.41c4.12-3.22 3.1-2.81 8.41-1.13-1.46 3.46-2.82 7.34-4.13 10.9-1.32-6.04 2.55-7-4.79-6.4zm-8.59-12.72c6.89.72 7.67 3.25 1.34 7.08-1.04-3.41-1.46-3.15-4.61-5.15 1.16-.74 2.06-1.28 3.27-1.93"/><path fill="#273641" d="M1010.97 399.448c7.27-6.708 4.7-7.245 11.95-3.642 2.85 8.976-18.87 93.357-21.82 111.589.7 2.698 1.37 5.399 2.18 8.064-18.805-2.066-30.895-4.235-48.588-10.976a1392 1392 0 0 0-6.361 27.269c6.635 17.497 11.788 44.449 16.349 63.447a2020.6 2020.6 0 0 1 48.2 317.991c1.29 17.767 3.65 41.813 4.2 59.051l.48 3.167c-2.32 2.489-11.2 5.332-15.97 8.403l-6.972-7.683c-6.937-5.059-28.959-27.818-37.045-35.373-70.118-65.513-130.874-138.589-179.576-221.443-7.216-12.276-20.821-34.628-25.8-47.048-10.806-12.982-63.091-57.232-78.583-65.151 61.355-46.051 119.614-74.863 194.935-91.635 31.085-6.921 54.39-10.799 86.475-11.227-9.572-4.785-14.456-7.471-22.679-14.184 8.046-4.428 11.759-7.114 18.228-13.303 6.268-19.177 44.772-62.995 60.397-77.316"/><path fill="#c3732b" d="M948.331 531.752c6.635 17.497 11.788 44.449 16.349 63.447a2020.6 2020.6 0 0 1 48.2 317.991c1.29 17.767 3.65 41.813 4.2 59.051-3.73-6.424-10.35-29.54-12.94-37.711l-18.857-57.788c-44.865-136.107-73.148-199.266-36.952-344.99M752.197 672.264c10.756 8.38 32.257 31.452 42.626 42.356a1440 1440 0 0 1 106.579 127.04c20.448 27.804 40.504 59.002 60.533 87.325 5.461 7.722 29.902 41.304 32.683 47.143-6.937-5.059-28.959-27.818-37.045-35.373-70.118-65.513-130.874-138.589-179.576-221.443-7.216-12.276-20.821-34.628-25.8-47.048m270.723-276.458c2.85 8.976-18.87 93.357-21.82 111.589-11.535-26.941 10.15-79.297 18.6-106.584 1.03-1.943 1.98-3.202 3.22-5.005m-72.347 80.958c6.268-19.177 44.772-62.995 60.397-77.316l1.19 3.021c-9.59 8.106-14.827 17.784-21.732 27.28-9.221 12.682-28.075 37.67-39.855 47.015"/><path fill="#514534" d="M1010.97 399.448c7.27-6.708 4.7-7.245 11.95-3.642-1.24 1.803-2.19 3.062-3.22 5.005-3.46-1.48-4.05-.044-7.54 1.658z"/><path fill="#273641" d="M1026.65 396.75c7.75-3.871 4.36-3.492 9.81 1.424 16.79 17.226 53.46 58.313 63.3 78.674 5.42 5.904 11.02 9.453 16.42 14.672-5.88 3.989-11.59 7.895-17.62 11.647 14.8 1.893 30.6 3.399 45.18 5.98 88.71 15.702 157.54 44.204 229.7 97.265-28.02 17.656-50.12 38.876-73.67 61.811-43.98 91.498-105.29 170.507-177.39 241.331-19.89 19.546-54.42 47.758-71.13 67.174-1.8 4.169-.4 3.033-3.44 4.812-4.37-.353-11.44-4.047-16.37-5.962q.84-5.527 1.77-11.043c-.31-7.534 1.19-19.275 1.86-27.145l4.22-50.558c1.4-16.585 2.9-33.12 4.38-49.694 9.4-104.962 32.48-206.718 56.27-309.066-.87-5.764-3.83-16.373-5.26-22.632-16.14 6.595-31.35 9.658-48.66 11.385 1.38-3.778 2.09-7.373 2.99-11.282-5.17-12.864-23.29-98.519-22.36-108.793"/><path fill="#c3732b" d="M1099.94 528.072c4.45 14.667 7.35 36.591 9.82 51.869 17.86 110.441-18.16 205.374-52.17 308.124-6.56 19.821-19.79 56.994-24.38 76.47-.31-7.534 1.19-19.275 1.86-27.145l4.22-50.558c1.4-16.585 2.9-33.12 4.38-49.694 9.4-104.962 32.48-206.718 56.27-309.066m-48.69 448.656c1.96-6.963 13.65-19.73 18.17-26.855 56.53-89.119 120.75-172.334 195.28-247.179 7.15-7.182 27.84-29.606 35.07-34.471-43.98 91.498-105.29 170.507-177.39 241.331-19.89 19.546-54.42 47.758-71.13 67.174m-24.6-579.978c7.75-3.871 4.36-3.492 9.81 1.424.31 1.237.63 2.475.95 3.712-1.88 1.586-3.31 2.951-5.08 4.603 8.59 24.917 23.36 74.078 16.68 99.054-5.17-12.864-23.29-98.519-22.36-108.793"/><path fill="#303332" d="M1026.65 396.75c7.75-3.871 4.36-3.492 9.81 1.424.31 1.237.63 2.475.95 3.712-1.88 1.586-3.31 2.951-5.08 4.603-1.05-4.794-2.06-6.942-5.68-9.739"/><path fill="#c3732b" d="M1036.46 398.174c16.79 17.226 53.46 58.313 63.3 78.674-6.79-3.778-35.25-37.383-41.18-45.105l-2.78-3.649c-5.88-7.801-13.55-17.937-18.39-26.208-.32-1.237-.64-2.475-.95-3.712"/><path fill="#273641" d="m994.8 1067.95 4.403-5.6c7.817 3.62 11.687 5.15 20.097 7.41l-2.4 10.22c-1.31 34.76-5.95 69.77-9.8 104.33-10.688 95.93-26.733 191.38-49.117 285.28-3.771 15.83-8.663 31.82-12.035 47.63 2.111 5.36 5.898 19.81 8.299 26.87a484.97 484.97 0 0 1-280.68-103.01c21.343-14.19 55.983-42.41 73.565-61.43 2.298-5.82 5.879-11.64 8.746-17.18 53.41-103.1 129.341-191.44 213.408-270.73 8.399-7.92 16.686-16.2 25.514-23.79"/><path fill="#c3732b" d="M945.948 1517.22c-3.547-6.95-7.994-32.11-9.251-40.81-18.045-124.88 26.849-249.85 68.183-365.69 3.58-10.02 7.3-21.3 12.02-30.74-1.31 34.76-5.95 69.77-9.8 104.33-10.688 95.93-26.733 191.38-49.117 285.28-3.771 15.83-8.663 31.82-12.035 47.63m-198.816-137.57c2.298-5.82 5.879-11.64 8.746-17.18 53.41-103.1 129.341-191.44 213.408-270.73 8.399-7.92 16.686-16.2 25.514-23.79-10.056 16.73-26.805 37.79-38.02 55.07-28.241 43.51-55.163 86.88-87.817 127.3-25.44 31.49-53.722 60.99-82.109 89.87-7.56 7.69-33.103 34.91-39.722 39.46"/><path fill="#273641" d="M1033.29 1078.06c-1.22-2.8-2.6-4.85-1.94-7.68 2.56-2.96 9.92-5.66 14.75-8.46l7.09 9.13c12 8.52 31.81 30.11 43.04 41.03 48.84 47.48 98.35 101.97 137.68 157.48 12.79 18.07 59.46 89.04 64.87 108.35 12.62 14.83 59.54 53.9 75.78 64.41-85.3 63.47-161.31 96.71-268.82 102.02-2.06 1.62-8.01 1.02-11.26 1.36-.62-.04-.95-.02-1.56-.21l1-1.66c2.04-8.62 6.71-20.5 9.3-30.39-7.42-16.5-17.91-60.66-22-78.68a1785 1785 0 0 1-33.46-190c-5.71-47.44-8.33-95.89-13.01-143.48-.75-7.63-1.25-15.55-1.46-23.22"/><path fill="#c3732b" d="M1033.29 1078.06c7.48 19.5 14.19 40.16 20.24 60.18 13.31 44.03 31 87.8 42.78 132.2a511.96 511.96 0 0 1 6.91 243c-7.42-16.5-17.91-60.66-22-78.68a1785 1785 0 0 1-33.46-190c-5.71-47.44-8.33-95.89-13.01-143.48-.75-7.63-1.25-15.55-1.46-23.22m19.9-7.01c12 8.52 31.81 30.11 43.04 41.03 48.84 47.48 98.35 101.97 137.68 157.48 12.79 18.07 59.46 89.04 64.87 108.35-9.76-7.59-23.64-24.19-32.98-33.57-66.2-66.47-119.2-144.67-175.56-219.34-8.86-11.74-31.22-41.31-37.05-53.95"/><path fill="#f1f1eb" d="M1093.92 1543.83c4.14.33 7.76.29 11.82.51-2.06 1.62-8.01 1.02-11.26 1.36-.62-.04-.95-.02-1.56-.21z"/><path fill="#273641" d="m977.261 1030.05 2.199-.21c1.78 2.05 5.141 15.61 7.586 20.96-29.85 16.9-61.693 39.21-90.541 58.2-40.622 26.74-83.803 55.85-121.868 86.11a1046 1046 0 0 0-82.678 74.32c-34.719 34.4-65.807 65.75-81.131 113.23-76.457-93.83-113.575-174.32-127.055-295.54 15.297 6.46 32.647 11.18 48.926 14.82 15.207-7 50.109-15.43 66.712-20.18 97.182-27.79 196.064-42.52 296.86-48.42 25.56-1.5 55.43-3.63 80.99-3.29"/><path fill="#c3732b" d="M532.699 1101.94c15.207-7 50.109-15.43 66.712-20.18 97.182-27.79 196.064-42.52 296.86-48.42 25.56-1.5 55.43-3.63 80.99-3.29-24.793 7.61-49.125 16.78-73.676 24.4-102.475 31.78-211.999 66.99-320.55 55.41-11.831-1.26-39.717-4.5-50.336-7.92"/><path fill="#273641" d="M1438.87 669.321c72.82 89.51 113.24 177.715 125.34 292.927-15.74-8.121-34.93-14.271-51.99-19.177-29.69 8.569-62.08 20.55-91.69 27.887-92.91 23.021-189.35 38.732-285.04 42.992-14.46.65-38.26 1.78-52.55.96-3.75.2-13.93 2.14-14.88-1.73-1.11-6.11-2.92-9.27-6.11-14.477 26.1-20.109 57.6-39.302 84.82-58.387a2140 2140 0 0 0 150.29-114.813c49.14-41.048 114.63-97.107 141.81-156.182"/><path fill="#c3732b" d="M1079.31 1010.59c4.15-2.09 21.33-6.17 26.8-7.81l69.7-21.161c95.82-29.761 179.54-61.386 281.85-49.367 16.14 1.895 40.01 4.816 54.56 10.819-29.69 8.569-62.08 20.55-91.69 27.887-92.91 23.021-189.35 38.732-285.04 42.992-14.46.65-38.26 1.78-52.55.96-3.75.2-13.93 2.14-14.88-1.73 3.99-1.41 7.06-1.96 11.25-2.59"/><path fill="#c3732b" d="M1068.06 1013.18c3.99-1.41 7.06-1.96 11.25-2.59.56.44.77.45.93.97-.43 1.07-2.37.13-3.04.86 1.2 2.08 4.22-1.91 5.74 2.49-3.75.2-13.93 2.14-14.88-1.73"/><path fill="#273641" d="M1069.37 1030.8c2.43.68 4.9 1.44 7.32 2.16 124.57.18 246.28 13.82 366.24 48.19 16.14 4.62 54.97 15.48 70.38 22.3 18.71-4.89 33.21-9.55 51.47-15.74-2.7 21.16-5.5 42.66-10.17 63.48-19.71 87.88-61.34 161.82-116.69 231.82-21.76-47.29-37.87-65.3-72.63-102.57-62.56-67.06-134.27-118.99-210.09-169.79-31.48-21.09-62.31-42.85-94.44-62.95 4.49-6.72 5.55-9.41 8.61-16.9"/><path fill="#c3732b" d="M1076.69 1032.96c124.57.18 246.28 13.82 366.24 48.19 16.14 4.62 54.97 15.48 70.38 22.3-127.38 30.4-222.25-6.37-341.64-42.18-18.55-5.75-37.16-11.32-55.82-16.71-8.19-2.3-32.61-8.46-39.16-11.6"/><path fill="#273641" d="M483.591 960.355c9.405-103.023 59.397-212.171 125.664-290.904 26.247 68.489 141.711 165.476 201.478 207.793 20.491 14.508 47.496 32.378 68.76 47.112a3024 3024 0 0 0 75.259 50.858c10.054 6.64 23.285 15.965 33.303 21.963-2.427 5.213-5.377 10.523-5.342 16.333-1.048 3.37-.099 2.08-2.786 4.12-9.459 1.74-65.437-2.88-77.6-3.57-85.498-4.92-167.987-17.604-251.276-37.443-37.903-9.028-77.609-25.093-114.133-33.742-22.047 5.958-32.367 8.654-53.327 17.48"/><path fill="#c3732b" d="M536.918 942.875c10.211-4.081 29.868-6.584 40.951-8.133 129.884-18.158 257.252 35.604 379.496 71.708 8.019 2.37 17.626 4.32 25.348 7.06-1.048 3.37-.099 2.08-2.786 4.12-9.459 1.74-65.437-2.88-77.6-3.57-85.498-4.92-167.987-17.604-251.276-37.443-37.903-9.028-77.609-25.093-114.133-33.742"/><path fill="#273641" d="M1047.38 1858.27c-1.32-4.12-2.04-3.9-.92-7.12 8.88-3.48 31.19 5.44 39.77 9.19a133.4 133.4 0 0 1 28.77 16.95c-4.27 3.4-8.43 6.92-12.48 10.57-9.64 21.26-49.73 69.28-68.41 83.99-1.16 1.33-2.28 2.73-3.58 3.91-4.17-1.2-2.85.01-4.81-2.88.35-11.03 3.89-26.01 5.75-37.14 4.39-26.14 10.28-51.62 15.91-77.47"/><path fill="#c3732b" d="M1047.38 1858.27c14.66 36.95-23.43 104.54-16.85 117.49-4.17-1.2-2.85.01-4.81-2.88.35-11.03 3.89-26.01 5.75-37.14 4.39-26.14 10.28-51.62 15.91-77.47m-13.27 113.58c3.59-6.95 8.03-11.38 11.68-17.47 12.52-20.91 26.06-37.63 43.69-54.45 4.44-4.24 7.88-8.67 13.04-12.07-9.64 21.26-49.73 69.28-68.41 83.99"/><path fill="#273641" d="M933.673 270.915c24.611-18.453 41.016-23.08 70.547-27.256l-2.26 9.028c4.73 20.133 21.93 94.306 19.32 111.616.08 2.455.11 1.626-.64 4.063l-1.91.307c-3.89-2.567-4.15-3.277-6.99-7.145l-.46-.273c-13.143-7.621-54.385-60.908-60.039-76.072-4.984-5.935-11.184-10.029-17.568-14.268"/><path fill="#c3732b" d="M1001.96 252.687c4.73 20.133 21.93 94.306 19.32 111.616-10.22-24.872-29.477-85.83-19.32-111.616"/><path fill="#b96b27" d="M951.241 285.183c18.358 14.754 50.509 55.183 60.499 76.345l-.46-.273c-13.143-7.621-54.385-60.908-60.039-76.072"/><path fill="#273641" d="M1027.42 1682.02c6.25-1.74 5.94-.29 9.84 5.02 8.28 5.81 40.55 43.28 45.45 51.74 5.73 7.27 12.68 18.29 17.98 26.22q6.675 6.945 13.53 13.71c-25.2 17.3-37.16 21.45-67.52 26l1.13-9.72c-6.37-18.65-22.55-94.57-20.41-112.97"/><path fill="#c3732b" d="M1027.42 1682.02c11.62 27.17 26.68 83.66 20.41 112.97-6.37-18.65-22.55-94.57-20.41-112.97m9.84 5.02c8.28 5.81 40.55 43.28 45.45 51.74l.35 1.82c.41 1.84.27 3.01-.19 4.83-.16.64-.31 1.28-.45 1.93-9.83-11.51-40.6-46.79-45.16-60.32"/><path fill="#c3732b" d="M1082.71 1738.78c5.73 7.27 12.68 18.29 17.98 26.22-5.5-3.16-13.99-12.62-18.27-17.64.14-.65.29-1.29.45-1.93.46-1.82.6-2.99.19-4.83z"/><path fill="#273641" d="M1010.68 1687.98c5.19-5.94 4.83-7.7 12.55-5.48.27 14.62-17.29 99.85-22.4 113.6.68 3.12 1.08 4.08.62 7.3-14.285 4.5-54.384-17.41-66.528-25.43 3.99-3.23 8.409-7.61 12.209-11.19 5.059-13.3 51.191-70.12 63.549-78.8"/><path fill="#c3732b" d="M1023.23 1682.5c.27 14.62-17.29 99.85-22.4 113.6-9.669-34.12 10.63-81.65 22.4-113.6m-76.099 84.28c5.059-13.3 51.191-70.12 63.549-78.8-6.24 14.22-50.482 70.02-63.072 78.48z"/><path fill="#273641" d="M1048.23 252.928c-.75-4.315-1.44-3.954.12-7.077 15.28-5.809 53.83 16.04 66.14 25.413-3.75 3.373-8.32 7.269-11.83 10.779-9.67 19.523-50.49 68.218-67.61 81.603-2.12 1.778-4.38 3.901-6.79 5.164-.69-.175-1.46-.86-2.12-1.335-1.61-14.724 18.13-94.006 22.09-114.547"/><path fill="#b96b27" d="M1048.23 252.928c15.25 33.881-24.12 105.131-19.97 115.882-.69-.175-1.46-.86-2.12-1.335-1.61-14.724 18.13-94.006 22.09-114.547"/><path fill="#c3732b" d="m1035.05 363.646.37-1.185c3.75-12.378 55.49-72.903 67.24-80.418-9.67 19.523-50.49 68.218-67.61 81.603"/><path fill="#273641" d="M932.544 1558.55c22.714-15.55 45.05-22.13 72.216-26.01-1.82 4.4-3.83 8.18-3.88 12.86 11.22 40.69 14.82 68.64 23.03 108-.31.92-.87 1.25-1.66 2.03l-1.63-.19c-1.54.42-3.05.71-4.61 1.04l-1.54-1.48c-17.785-19.23-54.213-59.48-64.562-82.44-5.447-6.13-10.619-9.41-17.364-13.81"/><path fill="#c3732b" d="M1020.62 1655.24c-8.54-34.13-27.764-76.32-19.74-109.84 11.22 40.69 14.82 68.64 23.03 108-.31.92-.87 1.25-1.66 2.03z"/><path fill="#b96b27" d="M949.908 1572.36c12.133 7.42 62.692 68.19 64.382 81.21l.18 1.23c-17.785-19.23-54.213-59.48-64.562-82.44"/><path fill="#273641" d="M1003.43 1850.15c-.59 2.63-2.19 7.34-3.02 10.1 9.96 31.73 17.3 77.76 20.91 110.63-1.26-1.84-2.68-3.55-3.61-5.59-1.49 2.06-1.69 2-3.85 3.45l.44 4.12c-17.509-18.87-52.824-56.62-63.177-79.75l-.849-1.85c-5.202-6.27-10.705-9.13-17.643-13.05 21.378-16.34 43.892-25.87 70.799-28.06"/><path fill="#c3732b" d="M1000.41 1860.25c9.96 31.73 17.3 77.76 20.91 110.63-1.26-1.84-2.68-3.55-3.61-5.59-9.63-25.12-23.883-79.15-17.3-105.04"/><path fill="#b96b27" d="M950.274 1891.26c9.631 7.28 59.746 67.54 63.586 77.48l.44 4.12c-17.509-18.87-52.824-56.62-63.177-79.75z"/><path fill="#273641" d="m1048.54 1541.07-2.71-7.87c14.38 1.59 34.24 5.08 47.09 12.29.61.19.94.17 1.56.21 7.92 4.25 15.11 7.99 22.22 13.53-5.12 3.31-9.45 5.82-13.9 10.03-7.14 14.03-56.76 78.18-68.76 84.76l-.98.56c-2.13 2-1.2 1.58-3.76 2.5-.57-1.06-.89-1.56-1.3-2.66a454 454 0 0 1-.24-9.05c6.66-36.13 12.63-68.24 20.78-104.3"/><path fill="#c3732b" d="M1048.54 1541.07c9.28 25.23-10.85 88.04-20.54 113.35a454 454 0 0 1-.24-9.05c6.66-36.13 12.63-68.24 20.78-104.3m-15.48 113.51c6.78-17.08 54.48-74.47 69.74-85.32-7.14 14.03-56.76 78.18-68.76 84.76z"/><path fill="#273641" d="M1039.86 384.338c55.19-1.555 75.65 9.933 125.26 16.053 2.15-.553 2.25-.514 4.49-.523 6.3 13.765-20.25 58.438-29.05 70.097-19.93-36.286-100.48-76.327-103.29-82.626z"/><path fill="#b96b27" d="M1039.86 384.338c55.19-1.555 75.65 9.933 125.26 16.053-44.23 11.014-82.06-3.857-125.26-16.053"/><path fill="#273641" d="M1027.76 84.079c3.11-5.655 7.33 1.69 10.33 4.226 13.99 11.06 56.28 61.493 63.69 77.43 5.02 5.449 7.38 7.488 13.2 12.144-25.46 17.509-37.43 22.124-67.91 26.674.36-2.847.9-6.334 1.07-9.131-5.85-29.149-19.99-82.554-20.38-111.343"/><path fill="#c3732b" d="M1027.76 84.079c3.11-5.655 7.33 1.69 10.33 4.226.14 2.17.28 2.991.69 5.169-2.96-.613-3.79-1.147-6.35.176l.29 1.339c6.94 31.567 24.51 65.455 15.42 100.433-5.85-29.149-19.99-82.554-20.38-111.343"/><path fill="#303332" d="M1027.76 84.079c3.11-5.655 7.33 1.69 10.33 4.226.14 2.17.28 2.991.69 5.169-2.96-.613-3.79-1.147-6.35.176-1.82-4.22-2.17-5.604-4.67-9.571"/><path fill="#c3732b" d="M1038.09 88.305c13.99 11.06 56.28 61.493 63.69 77.43-12.71-8.518-39.51-43.061-49.38-56.116-2.6-3.44-10.81-13.988-13.62-16.145-.41-2.178-.55-3-.69-5.169"/><path fill="#273641" d="M1012.28 85.606c4.02-3.154 3.91-5.181 8.97-4.671 4.66 11.662-15.05 96.679-20.4 112.33.21 1.78 1.65 7.361 2.13 9.385-27.887-3.641-45.348-8.536-67.743-25.764 4.646-4.334 9.3-8.897 13.9-13.302 5.458-12.965 51.973-68.57 63.143-77.978"/><path fill="#c3732b" d="M1012.28 85.606c4.02-3.154 3.91-5.181 8.97-4.671 4.66 11.662-15.05 96.679-20.4 112.33-6.091-19.936.82-50.923 7.08-70.216 2.35-7.244 6.65-18.177 8.32-25.138l.4-1.708c-.79-4.633.98-4.191-3.14-6.336l-1.66-1.05c.14-1.095.26-2.12.43-3.211"/><path fill="#303332" d="M1012.28 85.606c4.02-3.154 3.91-5.181 8.97-4.671-1.26 6.61-2.06 9.1-4.6 15.268-.79-4.633.98-4.191-3.14-6.336l-1.66-1.05c.14-1.095.26-2.12.43-3.211"/><path fill="#b96b27" d="M1012.28 85.606c-.17 1.091-.29 2.116-.43 3.21-13.738 19.414-43.762 61.065-62.713 74.768 5.458-12.965 51.973-68.57 63.143-77.978"/><path fill="#273641" d="M910.666 290.916c22.373 37.393 64.433 57.291 99.264 81.341 1.76 1.212 1.88 1.961 2.35 3.845-21.374 8.37-103.156-12.717-127.541-17.197l-3.875 1.015c-1.289-1.294-1.855-1.349-1.578-3.924 2.271-21.171 16.78-50.544 31.38-65.08"/><path fill="#c3732b" d="M884.739 358.905c22.984-11.883 72.955 1.944 96.664 8.724 8.343 2.386 20.947 5.239 29.047 7.871l1.83.602c-21.374 8.37-103.156-12.717-127.541-17.197"/><path fill="#273641" d="M886.694 401.936c29.52-6.472 57.557-13.755 87.885-16.05 11.548-.874 24.81-3.473 36.301-2.517.11 2.475.84 3.922-1.44 5.576-32.956 23.892-79.015 44.983-99.399 81.776-17.14-19.819-29.245-44.591-31.611-70.893z"/><path fill="#b96b27" d="M886.694 401.936c29.52-6.472 57.557-13.755 87.885-16.05 11.548-.874 24.81-3.473 36.301-2.517-28.233 8.056-99.265 31.574-124.186 18.567"/><path fill="#273641" d="M1040.63 72.108c18.02-4.451 99.91 11.06 120.85 15.946 2.15-.104 7.84-1.185 10.23-1.57-5.5 28.857-14.12 47.927-33.32 70.509-18.7-35.002-69.5-59.653-100.67-80.93l-.15-1.735z"/><path fill="#c3732b" d="M1040.63 72.108c18.02-4.451 99.91 11.06 120.85 15.946-37.03 12.822-84.49-4.808-120.85-15.946"/><path fill="#273641" d="m1040.87 377.051-2.2-1.604c.04-2.601.28-3.084 2.7-4.8 32.83-23.237 75.81-44.827 97.55-79.422 15.55 19.057 27.47 39.918 31.45 65.04.51 3.19.43 2.959-.91 4.62l-2.23-1.112c-23.98 3.316-108.75 20.713-126.36 17.278"/><path fill="#c3732b" d="M1040.87 377.051c26.92-9.223 101.8-31.967 126.36-17.278-23.98 3.316-108.75 20.713-126.36 17.278"/><path fill="#273641" d="M909.89 1579.05c12.928 31.23 71.362 61.79 98.38 80.21 4.22 2.88 3.46 3.16 2.69 6.2-6.03 1.23-24.773.38-29.634-1.35-27.678-.04-74.221-15.76-100.486-15.39l-1.798-.72c-1.124-21.19 17.346-52.97 30.848-68.95"/><path fill="#c3732b" d="M880.84 1648.72c40.243-9.97 62.778-2.61 102.118 9.29a347 347 0 0 0 19.062 4.7c3.75.64 5.46 1.21 8.94 2.75-6.03 1.23-24.773.38-29.634-1.35-27.678-.04-74.221-15.76-100.486-15.39"/><path fill="#b96b27" d="M982.958 1658.01a347 347 0 0 0 19.062 4.7c3.75.64 5.46 1.21 8.94 2.75-6.03 1.23-24.773.38-29.634-1.35 3.31-3.04 17.132 1.96 15.907-1.01-3.667-1.69-12.593-.62-14.275-5.09"/><path fill="#273641" d="M909.266 1898.1c20.728 35.23 61.432 54.98 94.314 77.15 3.99 2.7 9.02 4.93 6.54 10.04-4.95.92-9.29.54-14.225-.08-28.196-3.53-56.489-7.28-84.167-13.83-8.898-2.11-17.152-4.15-26.269-4.79l-4.223.94c-1.598-1.1-1.832-.85-1.836-2.6-.052-21.01 14.596-47.01 26.264-62.25 1.171-1.55 2.372-3.08 3.602-4.58"/><path fill="#c3732b" d="M885.459 1966.59c38.253-10.31 58.607-.14 95.848 9.94 4.884 1.33 25.353 7.08 28.813 8.76-4.95.92-9.29.54-14.225-.08-28.196-3.53-56.489-7.28-84.167-13.83-8.898-2.11-17.152-4.15-26.269-4.79"/><path fill="#273641" d="M1139.21 1897.61c18.12 24.67 27.4 41.08 31.69 72.02l-9.51-3.8c-22.38 6.57-101.77 20.87-123.18 18.77-2.38-6.84 4.09-7.63 10.37-11.45 32.07-19.47 70.64-43.12 90.63-75.54"/><path fill="#c3732b" d="M1038.21 1984.6c3.38-1.53 16.41-4.54 21.3-6.04 29.59-9.14 71.22-21.86 101.88-12.73-22.38 6.57-101.77 20.87-123.18 18.77"/><path fill="#273641" d="M1039.76 1665.2c-1.93-.85-1.22-.48-2.7-2.25 3.66-8.01 83-46.06 102.61-84.32q3.6 4.86 7.02 9.84c8.51 12.5 25.82 45.85 23.09 60.54l-1.47.78-3.45-1.16c-7.97.28-28.26 4.92-37.72 6.58a951 951 0 0 1-64.26 8.69c-5.51.56-18.39 2.11-23.12 1.3"/><path fill="#c3732b" d="M1039.76 1665.2c5.28-3.39 56.79-16.12 65.99-18.23 12.53-2.87 47.84-5.96 59.11 1.66-7.97.28-28.26 4.92-37.72 6.58a951 951 0 0 1-64.26 8.69c-5.51.56-18.39 2.11-23.12 1.3"/><path fill="#273641" d="M1038.2 1671.03c23.79-.38 103.72 10.85 124.62 19.01l6.49-1.95 1.05.6c1.22 5.29-1.44 10.95-2.82 16.02-5.4 19.82-15.22 35.42-28.25 51.2-18.29-28.8-46.13-44.81-74.26-62.75-6.1-3.89-24.6-13.11-27.88-18.14z"/><path fill="#c3732b" d="M1038.2 1671.03c23.79-.38 103.72 10.85 124.62 19.01-34.42 10.85-90.96-6.98-124.62-19.01"/><path fill="#273641" d="M1007.57 1671.12c3.2 1.71 1.93.47 3.51 4.22-4.2 6.11-27.559 17.55-34.909 22.68-23.757 16.56-49.954 33.75-65.923 58.27-10.969-11.69-35.047-51.46-30.55-66.64 2.224-.85 1.404-.7 3.9-.58a1223 1223 0 0 1 85.323-13.59c10.992-1.45 27.964-4.13 38.649-4.36"/><path fill="#c3732b" d="M883.598 1689.07a1223 1223 0 0 1 85.323-13.59c10.992-1.45 27.964-4.13 38.649-4.36-33.767 10.8-89.693 31.24-123.972 17.95"/><path fill="#273641" d="M884.843 88.015C917.3 82.813 972.397 70.74 1004.34 71.89c4.58-.109 2.84-.88 5.88 1.223-.37 7.394-27.282 20.092-33.863 24.21-23.234 14.535-51.089 34.254-65.724 57.735-11.358-11.516-34.579-50.876-30.87-66.354l1.618-1.276z"/><path fill="#c3732b" d="M884.843 88.015C917.3 82.813 972.397 70.74 1004.34 71.89c-30.807 10.835-88.243 28.861-119.497 16.126"/><path fill="#dc3c2a" d="M1023.32 998.665c13.73-.649 25.37 9.985 25.97 23.715s-10.08 25.33-23.81 25.88c-13.66.55-25.19-10.06-25.79-23.72-.596-13.66 9.97-25.229 23.63-25.875m.7-937.87a8.33 8.33 0 0 1 9.08 7.097 8.326 8.326 0 0 1-6.7 9.377 8.32 8.32 0 0 1-8.01-2.937 8.35 8.35 0 0 1-1.23-8.45 8.34 8.34 0 0 1 6.86-5.087"/><path fill="#cf331c" d="M1016.75 378.624c2.83-4.406 6.94-9.164 12.44-4.892a9.17 9.17 0 0 1 3.55 6.268c.15 1.458-.09 3.092-.24 4.549-8.61 8.741-14.79 5.859-15.75-5.925"/><path fill="#dc3c2a" d="M1032.5 384.549c-8.61 8.741-14.79 5.859-15.75-5.925l.74 1.155c1.53 2.588 10.9 3.474 15.01 4.77M1022.38 1980.5a7.947 7.947 0 0 1 9.56 5.67c1.11 4.17-1.33 8.47-5.48 9.66-2.76.8-5.73.04-7.77-1.98a7.93 7.93 0 0 1-2.06-7.76 7.92 7.92 0 0 1 5.75-5.59m1.72-319.73a7.825 7.825 0 0 1 8.64 6.75 7.817 7.817 0 0 1-6.6 8.76c-2.8.42-5.6-.7-7.34-2.94a7.81 7.81 0 0 1-1.03-7.84c1.1-2.6 3.52-4.41 6.33-4.73"/><path fill="#514534" d="M1017.71 1965.29c.93 2.04 2.35 3.75 3.61 5.59 1.16 6.16-3.65 4.87-7.02 1.98l-.44-4.12c2.16-1.45 2.36-1.39 3.85-3.45"/><path fill="#f1f1eb" d="M1023.91 1653.4c2.21-2.66 2.55-3.03 3.33-6.25l.52-1.78c.05 3.02.13 6.04.24 9.05.41 1.1.73 1.6 1.3 2.66-2.84-.57-4.97-.08-7.05-1.65.79-.78 1.35-1.11 1.66-2.03"/><metadata><recraft-signature>{&quot;signed_by&quot;: &quot;recraft&quot;, &quot;signature_b64&quot;: &quot;C9fg+KlAgflTASk3wZS84RXd9/Ci5UwjondWNZEJYGDaM4dzDf5Czw82pm5DVrWIe9ZKoDSP4du7YFtx4YQWBw==&quot;, &quot;signing_algo&quot;: &quot;Ed25519&quot;, &quot;generation_timestamp&quot;: 1777235905, &quot;identifier&quot;: &quot;3cb99c90-f997-430c-a062-cd9712fab4c1&quot;}</recraft-signature></metadata></svg>