<svg xmlns="http://www.w3.org/2000/svg" width="1024" height="1024" preserveAspectRatio="none" style="display:block" viewBox="0 0 2048 2048"><defs><linearGradient id="e" x1="261.101" x2="268.71" y1="236.766" y2="225.062" gradientUnits="userSpaceOnUse"><stop class="stop0" offset="0" stop-color="#5b666e"/><stop class="stop1" offset="1" stop-color="#7a818b"/></linearGradient><linearGradient id="d" x1="125.895" x2="241.674" y1="341.12" y2="195.768" gradientUnits="userSpaceOnUse"><stop class="stop0" offset="0" stop-color="#5a636e"/><stop class="stop1" offset="1" stop-color="#707881"/></linearGradient><linearGradient id="c" x1="1733.42" x2="1909.83" y1="236.294" y2="230.737" gradientUnits="userSpaceOnUse"><stop class="stop0" offset="0" stop-color="#3e4856"/><stop class="stop1" offset="1" stop-color="#646f79"/></linearGradient><linearGradient id="b" x1="1238.25" x2="1243.74" y1="228.011" y2="227.976" gradientUnits="userSpaceOnUse"><stop class="stop0" offset="0" stop-color="#5a6472"/><stop class="stop1" offset="1" stop-color="#858e92"/></linearGradient><linearGradient id="a" x1="1379.7" x2="1535.63" y1="244.112" y2="101.651" gradientUnits="userSpaceOnUse"><stop class="stop0" offset="0" stop-color="#646b73"/><stop class="stop1" offset="1" stop-color="#778187"/></linearGradient></defs><path fill="#69767f" d="M738.131 1113.1c31.412 7.54 73.961 20.28 105.913 23.36 59.562 5.75 123.286 13.6 182.656 17.13 50.63 3.01 108.78-5.1 159.33-10.55 94.64-10.56 192.86-14.36 281.62-52.02 50.77-21.54 77.21-90.36 137.01-92.29 125.08-4.048 151.93 112.84 158.8 209.38-18.32 11.08-25.96 11.49-46.8 14.39-6.75-20.69-7.81-41.62-16.25-63.7-22.44-58.7-90.08-92.1-145.09-53.19-9.29 6.57-20.73 26.63-23.25 37.77-9.77 43.31-5.13 90.07-10.42 134.21-14.52 103.65-25.53 208.29-46.51 310.87-27.15 128.89-58.43 220.22-193.46 267.12-114.02 39.6-221.73 46.53-341.685 36.77-33.256-2.7-64.516-5.46-97.209-12.87a400 400 0 0 1-69.389-23.06c-51.721-22.8-92.936-50.49-127.27-96.86-13.183-17.8-21.177-38.46-29.572-58.77-34.33-83.03-50.215-173.04-62.091-261.79a1800 1800 0 0 1-13.079-119.65c-4.53-64.22-3.872-138.62-26.221-199.89-4.398-12.63-15.489-28.91-28.92-32.87-63.79-18.81-114.55 43.52-133.242 97.21-4.814 13.83-7.032 25.96-11.951 38.1l-.527 1.28c-19.665-1.36-30.518-6.22-48.257-14.7 5.778-20.39 7.315-45.95 12.119-66.8 10.139-41.55 38.435-100.73 75.813-124.01 49.405-30.764 109.289-22.444 151.778 15.89 17.14 15.47 38.484 35.01 58.645 44.54 37.64 17.77 82.666 22.81 123.182 31.52 2.071.41 4.142.82 6.214 1.24 2.958.59 5.963.92 8.98.98 1.661.03 7.304 1 9.133 1.26"/><path fill="#fff" d="M445.286 1018.62c2.705-.8 5.904-.45 8.721-.26 10.57.84 43.668 12.88 50.016 20.46 4.514 1.99 6.238 3.59 10.137 6.36 23.973 13.09 40.569 39.01 65.678 49.9 50.346 21.85 104.106 33.13 157.915 42.64 13.967 2.46 28.256 6.68 42.25 9.51 30.09 5.9 60.331 10.99 90.691 15.28 22.561 3.02 46.083 3.79 68.868 6.43 40.074 4.64 79.678 9.24 120.118 7.74 25.15-.99 50.26-3.03 75.24-6.12 24.05-3.11 47.64-7.27 71.87-9.85 60.4-6.62 122.26-10.58 181.26-25.95 22.69-5.92 47.71-17.38 70.96-23.71 15.98-4.35 46.54-26.57 58.45-37.92 22.58-21.52 33.68-34.49 64.33-44.43l1.38-.24c44.51-22.18 83.44-5.8 113.58 30.22l-4.21-.08c-5.48-1.64-9.01-3.35-15.08-2.65-4.89.41-1.28-8.74-3.03-13.23-5.52-14.18-19.46-3.99-27.02 3.14-10.83 10.2-22.57 5.2-21.22 20.34-18.04.86-34.11 1.51-51.44 7.64a83.95 83.95 0 0 0-49.78 47.35c-7.88 19.36-13.32 77.59-17.31 102.26-15.5 95.99-24.62 194.16-42.25 289.95-10.35 56.27-23.03 128.32-47.02 179.8-27.07 58.51-71.75 106-134.84 125.82-83.65 26.29-170.62 37.08-258.08 38.83-91.622 3-185.168-4.84-269.433-43.41-36-16.48-48.312-37.42-76.148-64.3-12.823-12.39-27.765-35.96-35.636-52.14-25.641-52.74-37.689-111.17-48.43-168.43-13.079-65.51-22.38-129.11-26.757-195.77-1.569-23.9-5.705-49.54-8.28-73.64-5.223-51.13-4.639-97.18-21.092-146.84-17.92-54.08-70.45-57-117.231-40.44-34.068 12.07-54.842 35.36-74.515 64.96-12.451 18.74-15.752 33.82-22.09 55.24-.545 1.85-.938 1.87-2.583 2.47l-3.253-1.62c-1.67-2.47-1.985-3.99-1.82-6.98 2.831-51.08 21.425-105.75 60.701-139.93l3.152-3.44c11.835-14.89 44.589-24.05 63.231-24.96"/><path fill="#cd8432" d="M382.055 1043.58c10.5-.4 6.075 3.03 12.319 8.66 5.888 5.31 17.049 9.68 16.89 19.18-5.766 13.94-38.664 8.17-47.478 15.43-1.732 6.3 3.822 8.64 8.608 11.77-9.28 15.79-16.919 18.34-31.843 27.88.697 10.2-.466 28.94-12.978 31.99l-1.706-1.21c-.798-5.04 2.219-8.04 5.216-12.16l.98-1.34c-.951-8.61-2.366-18.38 2.501-24.99 2.846-3.87 22.085-10.67 19.461-16.22-8.708-18.42-2.769-28.92 18.752-31.04 4.946-.48 16.604.96 21.331-3.83-6.249-6.94-17.13-2.96-15.205-20.68zm68.867-23.29c11.111 7.57-5.37 10.59 9.312 24.53l1.397 1.38c2.434.67 8.257 1.38 9.497 2.63 2.331 2.57 1.816 8.26-2.566 8.23-13.306-.11-27.392-4.84-28.869-20.06-.665-6.87.963-11.73 6.216-16.27 2.194.13 2.64-.08 5.013-.44m1130.868 8.41 1.38-.24c10.04 2.42 7.15 10.8 3.58 18.62l1.23.96-1.79 2.76-1.74.61c-3.2 5.24-25.29 23.08-31.15 12.98-2.49-4.29 6.67-7.49 9.48-8.73 10.47-4.6 15.13-16.71 19.01-26.96"/><path fill="#eed9bc" d="m1586.75 1047.08 1.23.96-1.79 2.76-1.74.61c.78-1.61 1.41-2.77 2.3-4.33"/><path fill="#cd8432" d="M504.023 1038.82c4.514 1.99 6.238 3.59 10.137 6.36 2.962 3.76 16.996 17.43 16.084 22.32-.948 5.08-6.461 7.85-10.653 2.19-5.478-7.4-15.316-15.32-19.713-24.13-.667-1.25 3.643-6.13 4.145-6.74m1083.957 9.22c7.07-2.6 12.08-4.1 15.72-11.19 1.62-3.15 4.67-11.82 7.96-12.32 9.77-1.47 5.43 13.9 1.61 17.98-5.98 6.35-9.29 11.2-18.27 12.53-4.85.52-6.4-.24-8.81-4.24z"/><path fill="#f5f1f4" d="M445.286 1018.62c2.705-.8 5.904-.45 8.721-.26-1.735.74-1.685.67-3.085 1.93-2.373.36-2.819.57-5.013.44-.208-.7-.416-1.41-.623-2.11"/><path fill="#cd8432" d="M562.633 1104.31c11.227 2.93 11.513 12.06 22.599 15.76 12.57 4.19 26.588-.73 38.49 4.42 7.11 3.08 11.44 15.34 19.808 16.14 18.495 1.75 32.571-6.28 52.033-1.85 17.43 3.95 25.274 19.51 41.64 21.25 16.417 1.76 42.61-5.85 58.541-.93 24.231 7.49 37.36 25.67 65.385 28.89 23.01 2.65 28.546-7.98 48.364-8.75 15.41-.59 34.903 14.27 50.9 14.68 12.042.31 26.892-8.52 37.613-9.05 18.364-.92 29.004 9.21 49.534 9.56 25.25.44 33.12-15.6 55.99-13.39 5.53.54 16.25 6.36 22.06 7.82 16.6 4.18 27.8-12.15 45.98-15.5 31.22-5.75 57.26 12.2 86.49 6.39 8.68-2.61 17.15-9.07 24.92-13.38 10.68-5.93 22.01-9.04 34.01-6.39 11.34 2.5 21.08 8.82 32.99 7.84 10.51-.86 19.86-9.33 29.84-11.96 10.87-2.86 21.72.89 32.63-.92 9.13-1.72 20.55-10.16 30.51-13.46 12.59-4.19 19.84-3.33 32.83-4.22 2.22-.16 11.35-3.48 14.44-4.31 4.46-1.19 8.05-3.05 12.95-1.63 2.31 2.71 1.64 1.13 1.65 5.03-1.9 3.15-3.42 3.75-6.51 5.71-19.82 9.58-29 4.94-48.3 10.84-9.08 2.77-21.09 13.44-32.18 15.22-11.51 1.83-21.16-.52-32.39 2.36-10.55 2.71-22.95 16.41-33.25 16.89-18.43.87-27.3-11.79-49.26-9.36-21.03 2.34-36.2 16.02-56.01 18.32-20.5 2.37-42.9-9.71-64.06-8.35-17.59 1.13-27.57 15.06-43.86 17.63-14.27 2.25-27.62-8-41.67-10.29-19.71-3.21-23.26 11.63-42.06 14.56-24.56 3.83-37.08-10.03-54.28-11.81-10.267-1.07-24.952 10.64-44.234 9.5-21.112-1.25-34.851-15.18-48.262-16.28-15.387-1.25-24.614 12.31-48.581 8.91-30.634-4.34-40.8-18.43-67.254-28.41-13.96-5.27-40.459 4.79-57.968 1.69-19.8-3.51-26.205-18.38-44.458-23.14-14.442-3.76-30.382 1.25-44.897 1.06-13.105-.18-19.386-8.04-27.445-16.78-11.561-.01-22.706 1.97-33.895-2.54-12.262-4.94-27.241-12.04-21.373-27.77m28.269 199c6.808.99 10.969 12.51 15.569 17.23 2.214 2.28 5.269 3.78 8.031 5.28 6.896.03 13.997-.56 20.771.95 11.774 2.62 20.714 11.89 32.32 13.88 23.479 4.04 42.719-12.2 72.008 1.38 8.138 3.78 13.278 12.3 21.31 16.36 14.29 7.24 42.309-5.35 59.713-4.52 12.359.58 22.521 8.33 34.524 9.4 10.594.96 19.773-6.26 30.324-6.4 12.295-.16 21.686 8.42 33.427 10.05 13.636 1.9 27.192-3.01 40.953-.98 14.162 2.08 26.878 11.04 41.128 11.91 28.26 1.72 54.26-15.17 82.23-16.9 23.84-1.47 43.54 14.08 67.35 14.4 23.01.31 40.67-15.16 62.88-17.3 20.02-1.92 35.26 12.64 54.31 12.13 12.8-.35 24.11-8.65 36.24-11.84 12.71-3.35 26.11.62 39.04-1.48 10.7-1.75 19.64-8.58 30.78-9.79 21.6-2.35 45.03 7.14 66.37 1.94 13.93-3.4 17.48-22.71 28.37-26.04 2.67 1.01 2.64 1.39 4.13 3.87.34 3.32-.83 5.77-2.02 8.78-27.99 45.84-51.87 21.34-91.15 22.25-13.08.3-22.98 13.94-36.47 15.2-11.66 1.08-24.76-3.73-36.02-2.09-14.31 2.09-24.44 10.55-40 9.55-12.51-.81-20.76-5.23-32.36-8.89-25.01-7.9-45.96 6.42-68.31 15.76-28.65 11.97-50.51-10.28-77.91-10.86-26.15-.56-48.01 16.8-76.77 15.96-23.289-.67-31.784-10.96-53.196-14.35-12.556-1.99-29.063 2.02-42.054.38-9.594-1.21-21.526-9.01-30.797-8.69-9.183.32-20.467 8.1-30.592 7.25-14.591-1.22-23.186-10.72-38.533-11.04-16.932-.36-34.728 6.82-51.311 4.54-15.433-2.13-33.128-16.56-49.22-18.56-11.371-1.41-24.917 4.16-37.272 3.93-18.952-.36-26.584-10.09-42.275-15.62-7.041-2.48-19.325-.33-28.696-5.41-10.32-5.59-13.913-9.62-18.353-21.08-1.679-4.34-.49-6.78 1.531-10.54m-17.858-124.74c11.061.79 11.676 10.08 21.621 14.46 8.379 3.69 20.275 2.98 27.605 8.38 4.344 3.19 11.272 15.12 17.087 16.2 16.61 3.09 27.524-2.83 46.013 1.45 17.745 4.12 27.216 18.55 42.769 20.51 4.539-.12 11.92-2.62 15.873-4.41 26.191-11.84 51.062-9.58 76.614 2.83 10.893 5.29 23.798 15.03 35.908 16.64 11.728 1.55 24.669-7.77 36.536-7.45 17.963.92 26.156 15.76 46.107 16.91 19.776 1.14 33.519-10.2 51.667-10.91 20.876-.82 39.846 10.98 61.526 12.1 25.94 1.34 43.16-17.17 68.52-12.22 5.98 1.17 16.3 5.03 22.17 7.34 22.13 8.67 36.47-8.48 59.39-10.95 21.28-2.3 36.54 6.03 56.86 5.29 11.47-.42 25.32-8.31 36.93-10.49 11.92-2.24 25.62-.14 37.44-3.42 11.18-3.11 22.03-9.26 33.58-11.34 14.02-2.51 26.36 3.41 40.5 3.27 15.12-.15 20.16-9.18 33.13-13.54 6.96-2.35 18.76-.13 26.24-2.88 10.29-3.79 12.19-25.29 21.65-29.95 3.46.61 1.98-.15 4.47 2.57 1.14 3.44.54 5.36.04 8.95-10.16 29.49-20.57 32.85-50.02 31.79-39.86 24.28-33.58 7.64-73.15 10.91-5.36.44-27.78 9.97-35.46 12.22-14.79 4.32-27.45 2.36-41.85 5.13-9.22 1.78-18.84 7.91-29.44 8.91-20.56 1.94-36.68-7.11-57.57-3.69-14.72 2.4-28.47 14.63-41.76 15.47-19.42 1.25-35.77-12.94-56.43-11.29-20.01 1.61-35.07 12.1-55.07 11.39-22.53-.8-42.58-14.28-64.974-14.79-18.649-.43-30.478 11.41-50.072 10.36-17.697-.95-28.656-12.93-44.49-14.55-13.341-.62-25.102 8.76-38.584 6.99-12.665-1.7-22.426-10.8-33.105-17.01-17.712-10.29-38.838-16.81-59.02-9.95-11.526 3.92-23.057 11.27-35.478 11.46-14.367.21-25.003-12.63-38.47-15.71-11.196-2.66-22.059-1.17-33.383-1-21.018.74-27.489-9.69-41.567-23.25-14.791-1.77-35.598-9.77-42.403-25.42-1.091-2.51.834-5.08 2.05-7.31m872.386 321.04 3.58.4c1.02 1.09 1.64 1.29 1.7 2.91.31 7.58-10.36 18.86-15.72 23.84-12.06 11.22-30.11 20.14-45.74 24.99-8.13 2.53-16.85 4.39-24.67 7.74-10.82 4.63-19.35 11.85-31.22 14.3-19.63 4.06-35.7-7-54.5-5.77-16.45 1.08-29.07 14.77-46.2 14.42-16.22-.34-30.28-8.67-47.13-7.36-23.17 1.81-33.66 16.14-52.03 19.76-18.15 3.58-36.88-8.8-55.33-8.38-16.02.36-29.24 12.29-45.49 11.75-22.98-.75-46.087-17.76-66.081-17.67-13.355.05-22.892 12.14-36.107 13.58-14.913 1.63-26.336-8.49-40.689-9.04-16.065-.62-30.576 8.37-47.108 6.84-19.904-1.85-32.289-18.02-51.021-21.71-15.809-3.11-40.275 7.96-61.842 6.92-27.172-1.31-34.169-13.82-53.841-17.66-9.975-1.95-19.44 2.84-29.375 2.44-13.335-.53-25.717-11.1-34.483-20.41-1.434-2.73-2.59-4.35-2.12-7.42 7.08-4.23 24.537 12.35 32.11 15.42 7.866 3.2 25.057-3.94 34.277-4.3l1.499-.05c11.471 6.03 18.793 15.07 32.461 17.39 26.297 4.46 51.912-8.08 77.674-4.93 19.187 2.35 32.279 16.4 50.322 20.07 16.976 3.44 33.781-8.96 51.32-7.42 14.344 1.27 24.821 13.54 39.377 13.46 17.083-.09 24.543-18.07 42.295-16.83 18.946 1.34 36.472 14.82 55.322 17.79 18.54 2.92 33.96-12.63 52.1-13.74 17.96-1.09 33.18 11.23 50.8 9.96 15.8-1.14 31.4-14.66 47.99-17.96 21.26-4.24 41.62 6.94 62.63 4.38 16.9-2.05 26.35-18.48 44.51-18.25 14.72.18 27.37 9.01 41.8 10.73 20.25 2.43 22.56-5.72 37.86-12.75 7.23-3.32 16.29-2.06 24.02-5.17 24.19-9.74 37.64-26.62 57.05-42.27"/><path fill="#cd8432" d="M596.633 1351.35c6.408 2.7 10.47 10.24 16.59 13.8 8.201 4.77 18.428 3.15 26.882 7.43 8.73 4.43 12.94 14.35 22.782 17.35 16.085 4.91 33.827-7.02 50.781-5.06 19.552 2.26 30.175 21.53 49.231 23.89 17.181 2.12 31.496-12.27 49.102-11.8 12.345.32 19.374 12.66 31.154 14.02 15.483 1.78 27.734-9.85 42.84-9.38 16.57.51 30.39 11.2 46.584 13.56 18.323 2.68 33.064-9.2 50.849-8.24 17.922.96 32.552 12.6 50.642 12.8 25.44.29 58.03-16.28 78.41-12.17 6.28 1.26 12.29 4.37 18.23 6.72 19.47 7.71 32.04 3.46 50.25-4.42 13.53-5.86 28.8-12.06 43.54-6.85 6.16 2.18 11.88 5.6 18.03 7.82 22.41 8.1 39.82-10.82 60.89-12.99 9.05-.93 18.21 4.13 27.25 1.62 8.93-2.48 16.26-9.05 24.75-12.67 12.43-5.31 18.83-1.92 30.46 2.57 13.2 5.09 24.88-.97 36.83-6.18 5.74 1.29 11.33 3.31 17.27 3.49 20.76.64 17.61-10.54 30.27-21.98 1.89-1.71 2.05-1.92 4.5-1.81.38.51.88.95 1.15 1.54 1.41 3.02.14 4.78-1.05 7.46-5.26 7.46-11.38 16.13-19.35 20.9-9.74 5.83-23.78.62-34.84 3.23-8.71 2.06-16.23 8.57-25.6 7.9-8.11-.57-14.15-6.79-21.76-8.68-14.17-3.52-22.21 7.54-33.01 13.93-13.59 8.03-27.46-.85-41.77 2.15-13.87 2.9-23.76 13.13-38.8 14.19-18.52 1.3-31.42-12.56-49.04-11.96-19.44.66-36.37 13.46-55.54 16.33-20.73 3.09-33.31-9.69-51.16-9.03-10.27.39-18.99 6.35-28.62 9.15-13.61 3.96-30.57 4.83-44.68 4.14-18.49-.91-33.787-12.06-51.366-16.31l-1.364-.32c-12.274 3.37-23.667 9.67-36.415 11.4-20.999 2.86-36.614-12.38-56.568-11.88-14.579.36-26.224 11.23-41.517 8.05-13.628-2.83-23.166-15.71-37.656-15.67-15.788.04-27.773 13.91-44.524 11.43-18.179-2.69-30.942-19.2-49.946-21.39-12.114-1.4-23.779 2.27-35.814 2.77-17.722.72-27.313-9.02-39.294-20.14-9.069-1.57-17.626-2.94-25.837-7.36-6.013-3.24-15.222-9.4-16.401-16.84-.491-3.1.967-4.16 2.655-6.51"/><path fill="#cd8432" d="M1464.4 1396.7c1.79-.01 3.36-.14 5.05.54 1.29.52 1.16 1.31 1.59 2.52-.41 2.52-.99 4.51-2.19 6.79-2.83 5.41-6.9 10.36-10.98 14.88-22.84 25.3-48.91 6.76-76.43 12.28-15.91 3.19-24.81 19.13-41.16 21.79-16.85 2.75-33.02-6.1-49.99-4.53-14.19 1.31-25.08 12.94-39.19 15.57-20.15 3.75-36.97-7.7-56.11-6.93-18.08.72-39.84 14.61-61.97 15.4-16.03.56-30.01-9.12-45.8-10.02-15.56-.88-30.04 7.95-45.77 8.26-17.17.34-31.74-9.12-48.446-10.82-18.5-1.88-38.056 5.2-56.597 6.51-9.46.67-21.121 1.89-30.35-.29-4.049-.95-7.791-2.9-11.543-4.64-16.969-7.89-22.723-7.03-40.162-1.41-25.945 8.37-27.027-7.17-47.639-8.73-20.12-1.52-40.939 8.67-61.343 9.12-18.298.41-25.068-13.98-40.004-15.85-8.054-1.01-16.326.77-24.116 2.63-30.017 7.15-43.891 6.43-71.78-7.89-2.771-1.32-4.625-2.79-5.684-5.78-.655-1.85-.498-1.17.514-3.13 9.082-3.12 21.973 7.09 31.765 8.15 23.912 2.59 46.813-11.8 70.537-7.06 13.41 2.68 20.317 17.8 33.867 19.07 22.76 2.13 44.234-12.07 67.201-10.97 12.095.58 20.581 10.32 32.101 11.89 11.679 1.59 24.225-7.75 36.746-7.25 14.744.59 26.779 11.79 41.945 12.27 26.665.85 49.869-9.38 72.901-9.13 16.037.18 30.227 10.19 46.357 9.95 17.23-.26 32.94-10.08 50.26-10 20.96.1 39.38 10.93 61.12 7.72 16.5-2.43 30.58-14.14 47.09-14.92 15.2-.73 28.9 8.19 44.05 8.63 17.66.51 32.58-12.6 50.23-14.23 16.46-1.51 31.21 8.24 47.82 5.78 18.55-2.74 29.27-21.04 48.49-23.14 15.67-1.72 30.99 5.77 46.31 3.98 13.81-1.61 23.43-16.84 31.31-27.01m-895.329-265.19c6.223 5.18 6.429 12.28 13.821 17.6 9.425 6.79 23.379 4.77 31.999 9.05 11.541 5.73 16.496 18.65 32.157 19.89 11.256.89 29.892-3.66 39.841.11 15.101 5.62 30.112 19.08 47.374 18.52 22.032-.72 35.691-11.27 58.871-4.34 9.567 2.85 20.758 3.24 30.23 9.33 10.921 7.02 19.641 17.78 32.432 21.08 15.65 3.57 29.885-9.33 45.25-8.27 17.626 1.23 26.946 15.87 45.634 18.23 26.349 3.32 45.821-10.06 71.88-10.59 18.37-.37 31.89 10 49.25 9.39 17.3-.61 31.2-10.65 49.37-13.53 22.72-3.61 35.92 7.14 56.46 7 14.02-.1 31.59-15.21 47.37-13.73 11.44 1.08 18.44 6.16 29.02 9.64 11.98 3.93 18.25-2.54 28.23-7.94 9.99-6.06 20.83-2.07 31.1 1.25 9.09 2.94 15.12-.75 22.71-5.71 7.73-5.05 16.68-11.55 25.66-14.03 16.08-4.42 32.78 1.73 49.26-.44 14.05-1.84 21.64-13.29 34.76-17.24 11.49-3.38 23.73 1.89 34.9-2.98 9.4-4.11 19.45-24.19 26.74-28.17l1.34.83c.54 3.41-.97 5.26-2.62 8.4-6.91 12.6-12.61 24.84-26.26 31.21-8.89 4.14-17.74-.4-25.47 1.74-13.71 3.8-25.39 16.3-40.5 17.12-14.33 1.44-29.68-2.79-43.33-1.18-15.67 1.84-28.02 19.41-44.41 22.36-11.49 2.06-20.38-4.75-30.72-3.44-13.02 1.65-21.77 12.03-36.12 10.91-12.09-.93-24.75-8.79-36.41-8.14-15.55.86-29.45 14.45-46.08 13.39-19.02-1.22-35.12-10.2-54.82-9.2-18.61.95-29.8 10.18-48.49 13.01-19.5 2.94-35.94-8.76-52.03-8.47-23.402.42-42.164 10.2-67.4 8.8-23.075-1.28-31.372-13.36-51.084-16.63-8.962-1.49-28.559 9.52-41.347 7.43-21.932-3.58-34.248-22.88-56.743-27.91-8.249-1.84-19.814-5.94-28.373-5.8-15.365.24-26.553 8.72-42.733 6.87-15.77-.47-33.424-19.38-48.076-20.01-15.763-.67-29.905 5.68-46.575.12-11.296-3.76-16.707-10.64-26.75-15.74-9.31-4.73-23.555-4.9-31.934-13-3.1-3.03-11.709-14.71-11.386-19.27.268-3.76 1.679-4.93 4.002-7.52m13.712 127.01c11.099 2.62 15.158 18.83 26.745 23.41 16.267 5.77 31.88.26 48.822 4.89 17.518 4.79 31.391 22.6 48.349 26.57 6.522 1.53 19.362-1.58 26.83-.45 10.702 1.62 20.534 6.21 31.322 5.78 11.137-1.29 18.756-7.94 31.267-5.87 15.321 2.53 27.514 14.45 43.224 15.17 9.836.45 18.778-6.61 28.862-7.22 13.801-.83 28.961 6.42 42.265 6.89 16.527.59 28.284-3.86 45.687-2.67 22.108 1.52 36.156 19.83 55.014 20.04 23.62.27 45.71-19.7 71.04-20.78 25.24-1.07 33.75 17.05 58.48 17.08 19.4.02 27.09-11.09 44.3-16.29 13.88-4.2 29.28 4.33 41.99 3.89 18.18-.62 29.48-13.66 49.45-14.1 21.7-.47 29.36 9.07 48.22 13.21 10.05 2.22 25.4-10.76 37.27-11.92 12.3-1.21 21.7 4.89 33.03 3.83 11.61-1.08 20.97-12.98 31.86-16.66 9.26-3.09 15.49.84 24.92-3.12 11.84-4.98 19.37-16.07 31.25-20.57 2.11-.8 2.63-.02 4.19 1.05.92 3.65.54 4.2-.49 7.75-4.33 5.44-22.49 21.34-29.35 24.49-7.21 3.31-19.42-.19-27.06 1.25-9.47 1.78-17.67 9.86-26.92 12.75-13.96 4.37-28.1.57-42.33 3.23-10.17 1.91-23.08 12.31-32.93 11.07-22.39-2.84-31.68-18.25-57.71-14.01-17.25 2.81-26 14.82-43.95 14.77-13.42-.03-29.6-6.57-42.23-3.38-16.53 4.18-26.41 15.04-44.97 15.26-23.59.27-36.3-18.74-59.34-16.99-25.59 1.95-41.99 20.92-68.4 19.63-22.188-1.09-34.117-15.45-55.379-18.63-14.634-2.2-27.145 5.26-41.186 4.74-15.166-.56-31.457-9.71-46.971-8.35-11.062.97-20.002 6.31-31.875 5.85-17.008-.65-28.38-15.83-44.798-16.03-3.226-.04-14.558 3.05-17.772 4.25-15.499 5.76-28.554-3.36-42.177-5.2-13.19-1.79-18.415 3.26-33.785-4-15.077-7.12-20.915-17.4-37.519-21.11-18.412-4.11-40.995 3.37-57.844-5.98-8.092-4.48-20.28-16.15-22.489-25.63-.753-3.23 1.265-5.1 3.088-7.89m852.617 280.12c2.94.19 4.02.49 6.29 2.37 1 1.91 1.57 3.35 1.29 5.55-1.56 12.61-14.23 25.38-24.03 32.59-3.64-.82-7.23-1.96-10.94-1.02-8.65 2.19-15.56 9.92-24 13.11-9.55 3.61-19.75 1.16-29.31 6.19-11.63 6.11-18 18.21-32.13 20.4-18.29 2.83-34.15-10.57-52.59-9.57-21.12 1.14-35.71 19.07-56.88 20.74-20.44 1.61-35.87-10.73-55.22-12.32-18.74-1.54-33.02 13.59-51.66 13.72-17.31.13-32.62-16.17-49.13-13.22-12.66 2.26-26.6 15.88-43.14 20.38-12.19-2.99-22.979-10.53-35.444-12.34-23.447-3.4-43.372 13.21-66.247 12.73-13.133-.27-24.237-9.46-37.726-7.64-18.536 2.49-31.455 12.77-52.057 11.53-21.785-1.32-29.368-21.06-48.025-22.61-10.446-.87-19.406 5.08-29.547 5.62-19.286 1.03-33.415-16.32-50.852-21.44-15.336-4.5-31.827.58-47.109-4.55-9.69-3.25-18.77-9.7-26.215-16.59-1.477-1.98-2.909-3.88-3.359-6.39-.45-2.52.187-4.42 1.504-6.47 8.733-.05 17.724 13.31 26.694 16.34 18.175 6.13 38.065-.61 56.088 5.89 12.4 4.46 23.615 15.03 36.903 16.64 10.59 1.28 20.502-4.8 30.978-5.46 15.723-1 22.629 8.84 33.061 18.29 22.644 20.51 44.362 2.67 67.9-3.19 21.863-5.44 26.365 8.8 44.086 8.87 24 .1 51.48-20.05 75.106-11.63 9.217 3.28 18.471 9.85 28.641 8.72 14.94-1.67 24.47-15.32 40.76-15.85 19.55-.64 35.96 13.08 51.35 11.75 17.61-1.53 27.49-19.89 46.09-19.99 19.63-.11 35.06 15.43 54.45 13.71 21.07-1.87 34.29-20.01 56.35-20.79 20.28-.71 34.19 13.9 51.19 12.63 14.46-1.08 23.75-13.93 36.45-19.35 8.27-3.53 17.43-3.26 25.82-6.06 5.73-1.91 10.47-7.3 15.78-10.19 6.66-3.62 14.72-4.16 21.09-8.5 7.86-5.35 11.18-14.77 17.11-21.86.21-.25.42-.49.63-.74"/><path fill="#cd8432" d="M574.857 1201.48c11.55 1.99 15.579 26.03 26.619 31.44 10.094 4.94 18.467 2.44 28.275 6.32 9.102 3.61 16.827 17.21 26.801 19.5 14.243 3.28 29.734-2.88 43.62 4.45 5.235 2.76 11.877 9.56 16.083 12.09 18.856 11.38 43.823-6.43 67.791-1.41 20.254 4.25 28.379 15.58 46.742 18.94 13.428 2.45 31.635-7.38 45.703-6.07 17.533 1.63 32.927 13.93 51.155 12.17 16.363-1.58 29.908-10.75 47.232-10.79 22.233-.05 33.862 18.98 55.782 19.73 18.44.64 28.75-14.34 45.81-15.16 18.03-.86 34.88 5.81 52.96 7.65 18.01 1.84 31.14-5.2 48.06-6.25 10.5-.65 24.19 5.93 36.43 4.56 18.43-2.05 27.57-14.07 46.37-16.13 22.07-2.41 43.92 6.49 65.59 1.71 12.24-2.7 24.9-16.49 36.68-18.27 10.43-1.59 21.44 7.79 33.75 5.25 13.46-2.78 19.04-11.46 32.1-14.73 11.04-2.76 19.91 5.78 29.99 1.65 6.27-2.58 12.67-15.16 19.83-16.58l1.57 1.34c.85 4.58 1.07 2.41-.71 6.74-4.5 6.99-9.93 14.78-17.56 18.47-10.25 4.95-22.72-.86-31.42 1.24-15.55 3.75-25.1 13.16-42.69 12.68-10.48-.29-20.35-8.18-29.31-5.7-14.37 3.97-24.44 18.01-40.7 18.91-18.79 1.03-41.09-7.51-59.72-3.76-17.6 3.55-31.95 17.4-51.48 18.77-10.63.74-20.66-4.75-28.23-4.67-17.5.2-30.92 5.12-49.56 3.34-15.75-1.51-35.29-9.66-50.03-7.02-10.69 1.91-22.43 12.61-34.44 16.73-27.47 9.44-41.79-13.15-66.598-15.18-16.995-1.39-31.922 10.69-50.842 10.12-17.411-.53-32.485-11.86-47.26-12.62-19.189-.97-30.886 9.45-53.005 4.3-16.509-3.85-26.652-16.22-41.277-19.03-16.888-3.26-36.399 6.71-55.039 4.8-19.048-1.96-24.452-12.26-40.51-17.67-8.032-2.71-24.904 1.86-34.765-2.04-11.39-4.5-16.29-14.22-26.428-19.6-9.635-5.1-21.494-3.93-32.018-9.24-13.103-6.62-18.933-19.03-23.417-32.27-1.333-3.94.222-5.41 2.066-8.71m844.033 450.07c1.38.28 2.3.75 3.55 1.37l.67 2.5c-1.63 6.14-7.38 11.62-11.49 16.38-7.17 8.33-14.09 17.23-24.38 21.89-16.13 7.31-35.77 3.18-52.76 8.43-15.58 4.8-25.55 17.66-42.63 20.38-20.42 3.27-40.98-2.49-61.16 3.78-15.26 4.74-25.4 20.15-41.56 22.17-20.83 2.62-46.58-6.72-69.45-1.77-16.96 3.68-31.4 17.4-48.91 18.34-22.06 1.19-39.61-15.62-62.25-13.3-19.756 2.02-35.648 15.53-56.181 14.87-17.489-.55-31.161-11.77-47.954-14.29-18.679-2.81-34.166 11.19-52.383 10.34-17.615-.82-31.531-13.76-48.509-16.05-5.422-.73-11.143.14-16.566.54-35.904 2.66-30.325-15.65-51.528-22.4-7.06-2.24-14.497-2.18-21.819-2.57-20.798-1.08-36.955-6.82-52.929-20.56-2.105-1.75-4.404-3.82-6.117-5.95-1.53-1.91-1.499-3.44-1.377-5.75l1.497-1.13c9.638-.07 17.327 8.29 26.401 10.79 17.956 4.96 38.343 5.75 55.36 13.04 12.766 5.47 20.511 18.6 34.485 21.99 13.873 3.37 27.888-3.89 41.986-.81 12.505 2.73 22.928 10.92 36.081 11.94 19.319 1.51 36.213-11.22 57.057-8.54 16.823 2.15 30.812 14.49 47.644 15.53 21.393 1.33 36.992-18.91 61.372-18.21 17.01.49 31.03 10.53 47.48 13.37 26.39 4.55 34.27-9.1 56.33-12.8 22.41-3.77 45.88 2.67 68.67-1.73 18.98-3.65 33.82-18.26 52.81-23.08 16.47-4.17 31.55 2.51 47.73.39 17.75-2.33 30.18-15.11 46.61-20.26 15.68-4.92 32.94-2.13 48.37-8.23 13.92-5.51 22.46-21.38 34.77-29.89.36-.25.72-.48 1.08-.72m44.57-228.16c2.58 1.61 3.34 1.71 4.48 4.62-.61 8.74-9.76 18.17-15.71 24.21-13.9 14.08-30.68 21.8-50.63 21.47-10.89-.18-20.99-.88-31.65 2.21-18.96 5.51-36.93 18.83-56.61 21.33-15.72 2-30.7-4.72-46.55-1.61-15.92 3.13-30.23 12.51-46.79 13.13-18.53.69-34.75-13.44-53.04-11.28-15.7 1.85-26.74 16.04-43.22 15.85-13.06-.15-24.16-9.03-37.24-9.95-16.26-1.14-30.16 7.41-45.8 9.01-20.04 2.05-39.04-9.89-59.267-9.5-23.218.44-44.638 11.65-68.322 9.92-17.065-1.24-29.227-13.05-45.15-15.7-14.809-2.47-29.285 4.9-44.394 1.58-11.5-2.54-19.393-12.31-31.816-12.99-16.827-.93-27.476 12.43-43.301 13.25-12.992.66-22.178-10.15-34.483-11.86-14.221-1.98-26.615 6.1-40.756 6.04-25.779-.1-44.852-9.29-62.68-27.14-2.058-2.58-4.728-5.36-5.271-8.71-.425-2.63.223-4.79 1.702-6.95l2.325-.31c5.032 2.67 8.405 8.34 12.157 12.55 30.752 34.5 58.047 5.87 89.657 10.54 13.805 2.04 23.308 15.35 37.323 15.81 14.044.46 23.892-11.77 37.739-13.16 19.08-1.92 26.874 11.37 43.248 12.95 12.675 1.21 24.327-6.7 37.006-5.35 16.873 1.79 26.478 17.17 45.728 17.85 25.044.9 48.821-9.62 73.758-10.07 16.667-.31 32.347 7.09 49.117 7.04 18.06-.05 34.59-9.3 52.86-7.96 12.37.91 23.94 8.16 36.24 7.96 16.57-.26 30-12.7 47.35-11.93 15.97.72 30.13 10.22 46.23 10.72 18.53.57 36.27-10.56 54.45-13.53 12.79-2.09 26-.43 38.86-2.17 18.86-2.55 36.48-10.44 55.06-14.12 12.41-2.45 25.3-1.48 37.78-3.81 4.67-.84 9.23-2.18 13.62-3.98 18.27-7.64 31.64-22.9 45.99-35.96"/><path fill="#cd8432" d="M1369.56 1743.96c.28.01.56.01.84.03 3.19.32 4.48 1.14 6.41 3.5-.14 3.46-.98 5.04-3.48 7.47-7.74 7.51-24.05 17.87-34.63 19.64-6.12 1.02-13.19.5-19.42.49-13.41 7.33-22.65 19.97-36.94 26.37-19.2 8.59-34.2 1.21-52.65 4.93-20.92 4.22-37.93 18.83-60.25 19.69-18.3.7-35.35-7.77-54.06-4.6-16.26 2.76-29.59 17-45.45 17.7-19.68.88-37.66-11.04-58.19-9.03-14.926 1.45-26.599 15.33-41.185 14.99-17.253-.39-30.613-14.44-48.132-14.64-19.11-.22-35.043 12.92-55.188 10.87-24.697-2.51-34.163-25.58-52.181-28.13-9.604-1.36-19.77 2.55-29.514 2.53-21.161-.05-29.387-20.38-45.599-29.78-14.419-8.37-25.438-5.06-39.057-18.62-2.988-2.95-6.498-6.04-8.902-9.48-1.496-2.15-2.63-4.47-2.228-7.12 8.808-2.14 18.182 11.28 26.096 14.38 10.133 3.97 21.102 1.18 31.246 6.78 9.121 5.03 15.271 14.27 24.216 19.63 15.608 9.36 32.809 2.09 48.924 7.53 17.175 5.8 26.423 24.54 45.835 26.1 21.998 1.75 41.378-15.29 64.27-9.73 10.177 2.47 18.616 8.73 28.293 12.32 21.996 8.17 36.136-10.05 56.806-11.78 19.4-1.63 36.52 11.64 55.04 9.99 16.4-1.45 29.33-15.16 45.83-17.95 19.58-3.3 39.39 3.74 59.2.92 18.09-2.57 30.23-15.6 47.08-20.73 16.12-4.91 33.33 2.17 49.87-1.41 13.73-2.97 23.12-13.05 35.5-18.66 10.25-4.65 21.69-4.05 32.14-7.9 10.13-3.73 18.5-11.32 28.35-15.81.37-.17.74-.33 1.11-.49m58.87-132.23c.94.32 2.27.73 3.11 1.21 2.53 1.45 2.98 2.43 3.96 4.97-.96 10.21-11.83 22.63-18.77 29.83-33.58 34.77-45.93 7.52-79.06 13.74-17.83 3.35-32.27 16.17-50.26 20.01-15.78 3.36-31.93-2.7-47.24 1.89-12.27 3.67-21.94 14-34.88 15.8-20.73 2.9-38.89-12.13-58.66-7.82-19.13 4.17-31.46 22.54-51.69 24.53-19.78 1.94-40.22-8.47-60.51-8.61-18.59-.14-35.507 9.73-54.164 9.98-18.591.26-35.751-8.46-54.292-8.94-18.943-.49-35.458 11.19-54.476 11.54-20.72.38-36.38-12.28-55.958-14.52-10.382-1.19-18.862 5.64-28.98 5.52-11.849-.15-19.197-8.57-26.714-16.52-9.614.01-19.268 1.54-28.923 1.7-10.96-6.34-16.447-17.18-28.499-22.87-8.378 1.23-16.769 3.77-25.294 3.64-11.884-.18-18.769-6.08-26.656-14.05-2.968-3.46-6.269-6.83-6.755-11.55-.283-2.75.307-4.8 2.018-6.95l2.34-.21c5.011 2.76 7.443 8.63 11.734 12.42 10.211 9.03 24.927 4.53 37.139 3.65 26.862-1.93 21.321 16.03 38.078 23.22 9.396 4.03 21.889-2.23 30.437 3.09 2.97 1.85 5.412 4.7 8.096 6.93 12.381 10.33 27.7.24 41.882 1.64 17.344 1.71 32.578 12.02 50.452 12.17 29.059.24 47.938-17.44 79.281-6.68 11.807 4.05 23.348 11.49 36.293 10.41 21.511-1.79 38.921-18.13 61.061-18.53 19.54-.35 38.09 10.7 57.57 8.16 18.85-2.46 30.72-19.83 49.41-23.51 19.84-3.91 37.88 10.29 58.19 7.97 14.16-1.62 24.34-12.78 38.01-15.59 11.37-2.34 23.34-.04 34.85-1.15 17.02-1.63 30.27-10.9 45.94-16.49 4.57-1.63 9.25-2.82 14.09-3.33 16.02-1.7 32.03 3.42 47.81 1.68 20.95-2.31 27.68-23.69 39.37-37.62.21-.25.44-.51.66-.76m28.57-155.07c.39.05.78.05 1.15.14 2.69.66 3.03 1.03 4.45 3.25.04 1.52-.07 2.81-.62 4.26-3.08 7.99-9.82 15.17-15.28 21.7-13.38 15.97-28.06 26.4-49.43 27.85-9.14.61-18.62.44-27.58 2.55-13.44 3.17-25.16 10.41-39.18 11.92-8.22.89-16.23-.61-24.33-1.8-28.21-4.16-35.43 1.6-59.89 12.22-34.18 14.85-44.49-5.98-73.54-4.01-18.79 1.28-33.89 15.4-53.45 15.21-12.81-.13-24.2-6.48-35.89-10.89-18.62-7.03-26.48 2.47-42.67 9.31-23.27 9.82-28.25-3.38-47.052-10.2-16.099-5.84-29.961 3.08-43.923 9.78-43.757 21.01-42.157-12.01-70.395-13.31-17.485-.81-30.969 12.22-49.333 7.73-13.357-3.27-21.708-17.8-35.347-19.07-8.831-.82-17.313 1.21-25.585 4.05-27.647 9.48-39.334 5.35-65.606-3.91-8.371 1.41-16.649 4.76-24.823 7.12-6.315-1.45-12.376-3.85-18.463-6.04-4.017 1.47-8.117 3.03-12.303 3.94-11.143 2.43-19.5-3.13-28.465-8.78-5.915-3.95-9.693-8.38-12.14-15.09.359-1.11.264-2.13 1.478-2.56 7.896-2.83 15.654 6.62 21.906 9.73 9.288 4.6 20.073 1.17 29.242-1.77 3.042 1.69 6.092 3.44 9.224 4.96 11.093 5.36 20.02-.67 30.468-4.26 1.649.28 3.277.62 4.915.96 11.298 2.37 20.273 11.02 31.903 12.33 22.007 2.47 39.626-14.68 60.543-12.86 13.793 1.21 21.644 15.84 36.043 17.11 17.904 1.58 33.404-10.83 52.079-6.55 15.683 3.6 26.252 17.9 42.564 19.83 22.168 2.61 40.85-14.05 62.942-14.15 12.498-.05 22.158 9.51 34.348 10.93 17.56 2.04 30.63-11.02 47.19-11.14 18.93-.13 36.16 11.04 55.76 9.67 17.67-1.24 34.13-11.11 51.71-11.71 16.26-.55 29.73 8.67 46.77 6.3 22.16-3.08 42.77-15.18 65.11-16.51 9.42-.57 19.16 1.3 28.55 2.08 22.73 1.87 27.6-6.56 46.49-12.24 10.16-3.06 20.84-.6 31.16-2.62 26.75-5.24 39.2-28.64 58.27-44.62.34-.28.69-.56 1.03-.84"/><path fill="#cd8432" d="m1430.2 1585.64 4 2.23c1.17 2.4 1.68 3.61 1.07 6.28-1.61 7.01-7.44 15.28-13.5 19.12-6.46 4.08-16.17.58-23.03-.94-10.5 7.21-17.85 17.15-29.9 22.33-12.68-1.97-28.03-4.75-40.42.07-12.55 4.89-19.79 16.46-34.5 18.47-14.13 1.92-27.16-7.24-41.55-3.3-13.33 3.65-22.59 13.23-37.14 14.7-20.94 2.12-38.17-7.77-55.46-6.25-15.55 1.37-28.53 12.55-44.51 13.58-16.8 1.09-31.56-10.61-48.63-7.33-16.94 3.25-29.65 17.28-47.18 19.13-20.209 2.13-37.323-12.26-56.947-12.37-14.787-.09-26.858 10.54-41.316 12.3-15.934 1.94-27.398-10.06-42.576-10.16-14.424-.1-25.695 11.34-39.853 12.78-25.359 2.58-31.776-17.77-50.148-24.73-11.444-4.34-26.263-.87-38.453-3.08-15.018-2.73-26.863-13.18-41.202-17.24-28.615-8.11-36.365 10.33-69.378-15.66-3.847-3.05-9.433-6.52-10.35-11.63l1.501-.96c13.424 1.1 22.491 13.11 35.503 16.25 13.247 3.2 26.548-.55 39.784 1.56 15.728 2.5 27.692 13.8 42.911 17.85 13.909 3.7 28.984.14 42.512 4.45 14.763 4.72 24.118 18.5 40.598 19.66 16.616 1.16 29.14-13.21 45.452-14.07 13.719-.73 24.316 9.78 37.689 11.18 17.561 1.82 30.134-11.73 46.77-11.77 18.932-.04 35.986 11.94 55.453 10.92 17.11-.89 31.78-11.63 49.17-12.83 16.4-1.14 31.53 8.7 47.43 6.14 6.98-1.12 12.56-4.4 18.48-7.99 28.28-17.14 34.88-11.02 64.52-4.19 33.5 7.71 33.84-10.06 58.41-13.48 13.6-1.9 27.31 4.44 40.59 1.85 12.28-2.4 22.27-13.34 34.89-16.57 12.29-3.14 28.97.84 39.75-3.56 9-3.67 14.12-14.47 22.57-19.64.33-.2.67-.4 1.01-.6 8.64.09 17.22.82 25.89.78 3.72-4.03 6.84-8.85 10.09-13.28m-18.59 91.21c2.31-.21 4.49-.59 6.7.34 1.54.65 1.53 1.67 2.14 3.09-.24 2.93-1.03 5.02-2.47 7.59-8.08 14.43-34.57 43.57-50.12 50.53-14.41 6.45-26.15.03-40.44 2.55-15.26 2.7-27.65 14.34-42.64 18.32-17.43 4.63-36.22.31-53.73 4.95-17.06 4.53-29.88 18.71-47.26 22.05-21.07 4.05-44.33-1.51-66.24 1.8-18.16 2.74-33.88 15.14-52.24 15.58-16.87.41-31.58-9.38-48.27-10.55-18.747-1.3-33.244 11.06-51.39 12.25-20.877 1.37-37.876-15.14-56.583-13.18-8.912.94-16.923 5.79-25.539 7.84-21.658 5.16-30.893-11.4-49.48-15.35-9.597-2.04-19.807.02-29.548-1.72-8.088-1.44-14.955-7.58-23.108-8.78-7.606-1.13-15.525 2.03-23.067-.49-14.226-4.74-21.666-17.39-34.209-24.04-9.098-4.82-19.33-3.43-28.822-6.42-3.913-1.23-7.765-3.8-11.296-5.87-3.528-2.43-7.169-4.93-8.997-8.89.014-2.68-.21-2.77 1.577-4.72 7.87-.88 16.257 8.22 23.781 10.59 10.593 3.33 21.753.46 32.146 5.65 10.919 5.46 17.455 17.45 29.795 20.62 7.406 1.9 15.288.36 22.754 1.61 6.934 1.16 13.265 5.88 20.284 6.55 8.425.8 17.272-.63 25.582 1.27 14.242 3.25 25.326 15.16 40.143 16.21 16.5 1.18 31.548-10.1 48.36-7.94 14.872 1.91 26.01 13.17 41.549 13.75 18.539.69 33.974-11.57 52.148-11.74 18.51-.17 34.67 13.91 52.34 12.11 19.18-1.94 38.07-17.49 59.28-20.9 9.01-1.45 18.64-2.01 27.75-1.29 12.77 1 26.8 5.78 39.48 2.62 11.6-2.89 20.64-12.31 31.95-16.2 20.36-7 42.59-5.17 62.99-11.13 14.4-4.21 25.79-15.51 40.36-18.86 7.92-1.82 16.29.17 24.35-.28 25.82-1.44 44.2-32.34 59.99-49.52m121.87-596.09c12.04 1.03 3.7 11.3-.88 15.53-6.52 6-15.22 7.56-21.62 12.18-13.13 9.48-11.69 13.73-28.45 13.12l-1.09-.37c-5.61-1.81-10.14-8.42-2.96-12.34.31-.17 11.09.18 12.59.2 2.69-1.95 11.82-10.41 12.95-10.89 10.68-4.55 19.89-11.76 29.46-17.43m-946.45 315.46c3.738 1.11 6.872 3.35 10.568 4.45 5.627 1.66 12.079 1.47 17.911 2.14 4.774.54 9.234 1.77 13.482 4.09 4.441 2.43 16.707 9.99 17.788 15.12.374 1.78-.438 3.13-1.289 4.63-8.849-3.3-17.447-7.8-26.502-10.42-8.099-2.35-17.292-1.37-24.978-5.23-2.751-1.38-9.14-5.25-9.911-8.52-.33-1.4.34-2.73 1.148-3.83.205-.28.451-.52.656-.8.39-.54.751-1.09 1.127-1.63m-171.272-370.25c1.717 2.44 1.724 10.04 2.671 13.73 2.028 11.98 15.328 9.97 21.91 14.78 9.484 6.93.367 9.2-4.952 10.07-9.151-1.05-26.438-5.38-29.054-16.14-3.061-12.6-3.057-18.53 9.425-22.44m1223.262-4.41c4.52.1 7.88.1 9.4 5.17 5.59 18.65-18.88 25.65-30.4 29.94-3.79.15-8.83-1.28-8.63-4.71.35-6.09 20.5-10.46 22.3-19.13.52-2.53 4.8-8.55 6.12-9.93zm-80.68 19.2c8.52 1.57-.03 10.51-2.68 13.91-8.93 11.43-22.63 22.77-35.2 30.05-.94-.8-1.95-1.57-2.7-2.58-.96-1.27-1.09-2.7-.74-4.22.46-1.98 36.92-34.38 41.32-37.16m-1089.074-17.5c5.911 2.64 7.503 3.08 9.782 9.22 4.83 13 16.067 18.21 25.656 26.72.604.54.17 2.02.006 2.66l-.265 1.13c-11.234 3.28-18.467-1.9-26.536-10.45-7.949-8.42-9.525-17.95-8.643-29.28"/><path fill="#fff" d="M1626.19 1066.2c-1.35-15.14 10.39-10.14 21.22-20.34 7.56-7.13 21.5-17.32 27.02-3.14 1.75 4.49-1.86 13.64 3.03 13.23 6.07-.7 9.6 1.01 15.08 2.65l4.21.08c3.34 3.8 5.87 7.05 8.31 11.42l.68 1.21c4.53 9.27 8.87 18.16 12.98 27.65l2.15 5.1c6 12.98 29.14 79.58 18.79 88.73-3.2.17-6.18-1.27-7.14-4.53-15.67-53.29-40.56-104.64-97.67-121.68-2.89-.08-5.77-.21-8.66-.38"/><path fill="#cd8432" d="M1626.19 1066.2c-1.35-15.14 10.39-10.14 21.22-20.34 7.56-7.13 21.5-17.32 27.02-3.14 1.75 4.49-1.86 13.64 3.03 13.23 6.07-.7 9.6 1.01 15.08 2.65l4.21.08c3.34 3.8 5.87 7.05 8.31 11.42l.68 1.21-2.51.64c-.13 3.55-2.14 16.45-1.05 18.47 2.53 4.73 8.64 3.02 13.56 7.75 1.27 2.55 2.44 4.92 3.54 7.53-.04 3.59.08 6.91-3.3 9.36-6.16 4.57-10.75-7.12-13.34-8.7-17.48-10.71-17.54-14.39-12.78-34.05-8.85 1.8-13.27 2.2-22.37.96-11.79-1.62-9.91-7.36-10.5-17.67-8.44 4.5-12.72 6.64-21.35 10.61l-.79.37c-2.89-.08-5.77-.21-8.66-.38"/><path fill="#f5f1f4" d="M1696.75 1058.68c3.34 3.8 5.87 7.05 8.31 11.42l.68 1.21-2.51.64c-3.55-7-4.47-8.62-10.69-13.35z"/><path fill="#cd8432" d="m1714.54 1118.39.84.32c8.32 3.07 16.18 20.7 15.24 28.26-12.28-.28-10.18-6.45-15.54-16.98-1.9-3.72-1.38-7.75-.54-11.6"/><path fill="#fff" d="m1388.21 63.057 13.75 3.122c-1.96 14.82-4.28 30.384-7.56 44.988 9.89 5.53 13.52 21.626 25.63 17.148 12.69-4.691 23.35-20.601 39.72-11.689 21.17 14.865 25.72 20.01 48.34.485 9.29-8.01 28.29-5.924 41.15-6.25-3 21.847-4.43 49.325-5.42 71.588-2.5 56.309-11.65 115.639-12.86 171.716l-20-1.164c-20.81.666-50.61-.921-71.87-1.364l-127.48-2.364c-10.77-.218-66.91.488-72.97-1.671l-.65-2.537c4.41-20.984-1.7-62.852.73-83.972 2.84-24.748-4.02-139.125 1.8-152.089l1.47-.342 1.15 2.041 19.48-1.019c10.71 4.702 16.4 18.908 31.12 12.97 10.05-4.056 18.31-12.424 29.65-7.308 11.97 5.27 19.45 13.384 33.6 7.836 14.51-5.692 13.84-9.525 29.97-11.311.5-16.269.92-32.54 1.25-48.814"/><path fill="url(#a)" d="m1388.21 63.057 13.75 3.122c-1.96 14.82-4.28 30.384-7.56 44.988 9.89 5.53 13.52 21.626 25.63 17.148 12.69-4.691 23.35-20.601 39.72-11.689 21.17 14.865 25.72 20.01 48.34.485 9.29-8.01 28.29-5.924 41.15-6.25-3 21.847-4.43 49.325-5.42 71.588-2.5 56.309-11.65 115.639-12.86 171.716l-20-1.164c2.82-2.179 5.97-2.255 9.59-2.86 6.79-.113 7.39-2.128 7.89-8.891l8.98-135.507c1.14-15.215 8.22-77.82 6.06-89.023-23.9-9.816-34.71 10.955-53.68 16.79-13.86 5.755-29.65-16.349-40.71-14.445-31.82 5.477-25.25 31.695-54.98-4.732-1.01 4.317-2.36 12.096-4.65 15.472l-2.24-.016c-2.58-4.88 1.31-9.531-2.25-12.851-11.46-.3-16.04 6.772-26.01 10.613-15.94 6.142-23.74-2.388-36.86-8.207-7.12-2.948-15.77.673-22 4.217-20.84 11.861-26.04-5.976-40.96-10.847a99 99 0 0 1 3.48-3.03c10.71 4.702 16.4 18.908 31.12 12.97 10.05-4.056 18.31-12.424 29.65-7.308 11.97 5.27 19.45 13.384 33.6 7.836 14.51-5.692 13.84-9.525 29.97-11.311.5-16.269.92-32.54 1.25-48.814"/><path fill="url(#b)" d="M1237.99 345.065c4.41-20.984-1.7-62.852.73-83.972 2.84-24.748-4.02-139.125 1.8-152.089l1.47-.342 1.15 2.041c-.79 1.556-.48 2.014-.12 3.684.61 16.263.05 32.834.31 49.118 1 60.356-.89 120.917-1.35 181.231z"/><path fill="#4e5660" d="M1241.98 344.736c29.6 1.929 70.05 1.434 100.27 1.856 59.44.836 118.87 2.019 178.3 3.549-3.62.605-6.77.681-9.59 2.86-20.81.666-50.61-.921-71.87-1.364l-127.48-2.364c-10.77-.218-66.91.488-72.97-1.671l-.65-2.537zm1.16-234.033 19.48-1.019a99 99 0 0 0-3.48 3.03c-6.27.454-9.85.595-16.12 1.673-.36-1.67-.67-2.128.12-3.684"/><path fill="#69767f" d="M1364.56 200.995c2.29-4.523 3.88-8.177 8.6-10.384l1.18 1.061c-.1 3.379-.19 4.721-.69 8.046 7.1 1.796 20.5-.923 23.6 2.741-7.04 2.62-20.52 2.592-28.14 2.575-4.5 8.823-10.68 20.264-11.83 30.004l.76 1.137c7.11-4.175 12.61-17.332 19.42-17.777 1.97 2.701 3.74 5.164 5.58 7.954 3.68-1.725 11.99-8.128 14.07-8.555.27 1.618.33 2.21.48 3.914 2.67-1.109 2.84-1.411 5.16-3.224l2.25-.069c1.79 1.941 2.48 2.843 4.01 4.998 5.72-.998 11.11-4.604 14.73-4.476 4.5 3.534 1.39 13.979.17 18.988 12.55-12.907 10.85-16.804 19.37-31.674-3.54.62-7.22 1.807-10.23.236 1.6-4.042 8.36-4.345 12.31-4.952 2.7-4.501 3.69-8.008 9.72-7.998.66 3.488-.63 4.001-1.64 7.43 4.48 2.116 15.6-.473 24.28 1.893-3.67 2.598-22.18 3.251-27.57 3.297-3.26 6.252-12.93 23.209-10.98 29.95 8.91 3.044 7.22-13.11 14.15-16.52 2.83 3.118-.25 11.996-1.15 16.433l1.06.528c8.42-6.876 10.41-16.472 18.62-17.752 3.98 1.641 3.77 2.066 6.11 6.693 5.06-1.448 7.01-2.706 11.58-5.174 2.52 1.5 1.42.558 2.9 3.318 3.89-1.481 7.27-3.346 10.96-2.508 1.07 3.619-2.45 11.161-3.96 14.994 5.31-3.659 11.27-8.117 17.07-10.801-4.13 6.291-12.2 17.648-20.78 14.411-2.02-4.145-1.91-5.082-.22-9.878q.795-2.238 1.65-4.454c-2.19 2.141-6.45 6.031-7.97 8.461-2.66 4.263-1.67 5.509-6.67 8.289l-1.82-.513c-1.86-6.201 4.4-9.423.8-12.301-5.15-.236-3.85-.921-7.62 1.365-.35 3.246-.92 5-.73 8.242-2.47 3.04-4.26 4.595-8.28 4.458-3.06-1.894-5.95-4.236-9.67-3.112-4.14 1.248-9.07-.977-12.64 1.622-2 1.457-2.5 1.478-5.01 1.397-3.21-1.044-3.84-3.898-6.43-6.886-2.31 2.483-4.06 5.179-7.19 5.652-4.02-.819-2.55-.125-5.59-3.995-4.04.309-4.37 2.846-9.94 4.876-3.59-.371-2.15.344-4.64-1.869-1.48-6.22 3.81-10.139.71-15.223l-2.43-.514c-6.37 2.863-11.41 11.6-15.94 17.038-1.37-1.155.15-6.42-.53-11.018l-1.5-.558c-5.89 2.948-6.56 14.596-14.86 12.648-7.69-10.338-8.73 4.404-16.69-2.651-1.75-5.614.5-12.762 1.87-18.507-.91-.797-1.61-1.407-2.45-2.237 5.25-4.359 6.32-7.196 9.38-13.288-3.58.174-7.32.892-10.1-1.064 2.15-3.781 9.22-4.149 13.34-4.717"/><path fill="#fff" d="M1469.51 236.78c-10.17 1.269-5.69-8.324.75-7.404z"/><path fill="#737b81" d="M1470.26 229.376c1.78.862 1.93 1.113 3.62 1.325-.35 3.246-.92 5-.73 8.242-1.69-1.44-1.6-1.503-3.64-2.163z"/><path fill="#fff" d="M1418.58 222.804c3.85 5.035-3.19 9.616-6.85 12.811-3.5-3.287 4.42-10.658 6.85-12.811m-44.48 3.732c4.75 3.384.64 7.083-2.13 10.865-3.93-3.428-.43-7.35 2.13-10.865"/><path fill="#cacbce" d="M1469.11 223.176c.3-.16 1.71-1.192 2.05-.392-.09.589-.51.792-.99 1.223-.53.254-1.75 1.078-2.48.757l-.04-.158c.29-.679.82-.914 1.46-1.43"/><path fill="#69767f" d="M1290.46 176.352c11.32 1.856 1.15 6.448 2.86 9.216 2.03.374 24.37-13.078 27.17 1.59 3.63 19.095-16.27 29.491-31.07 34.965 3.81 5.429 29.09 27.05 17.58 24.912-.09-.016-12.98-11.119-14.8-12.605-7.01-7.052-7.61-8.144-12.39-16.366-4.75 9.672-7.75 19.153-12.04 28.658-.38.85-3.66.038-3.58-1.291.82-14.232 12.81-38.01 18.73-50.461-1.76.978-12.41 8.066-13.92 5.051.06-1.509 2.99-2.946 4.4-3.886 8.82-5.886 11.81-11.228 17.06-19.783"/><path fill="#fff" d="M1310.05 184.975c7.72 1.954 5.36 6.414 2.31 13.278-4.22 9.515-16.73 14.787-26.16 17.972-3.11-.6-5.42-1.375-4.12-4.615 6.16-15.297 11.98-22.014 27.97-26.635"/><path fill="#69767f" d="M1346.99 225.919c-.08 3.031.05 6.737-.25 9.59-.23 2.15-.72 5.185-2.7 6.399-3.6 2.118-6.4 3.59-10.54 3.063-3.55-.452-2.74-5.381-5.89-3.853-12.95 6.268-19.72-4.027-13.53-15.559 2.16-4.013 6.83-8.694 11.38-9.855 2.18-.536 5.53-.139 5.85 2.765.11 3.337-2.7 7.086-4.86 9.436-.84 1.699-8.96 5.357-9.17 6.349-.85 3.894 4.58 3.792 6.73 2.868 5.05-1.955 10.95-6.392 14.8-10.099 1.33-1.289-3.48-6.252-3.02-8.521.68-3.417 5.83-6.439 9.24-5.768 2.48.487 3.1 3.147.34 3.917-4.91 1.499-4.89 3.106-2.01 6.718l1.2 1.569c1.4.168 1.3.109 2.43.981"/><path fill="#fff" d="M1339.83 231.935c2.41 3.068-.86 5.843-2.91 8.184-4.06-3.895-1.02-4.627 2.91-8.184"/><path fill="#f5f1f4" d="M1323.41 221.739c1.02 3.676-.5 4.022-3.41 6.532-.77-2.708.07-3.041 2.13-5.161z"/><path fill="#202431" d="M1397.82 268.942c4.66-.08 13.5-.988 17.55 1.473 3.38 2.055 5.19 6.625 2.7 10.113-4.45 6.245 5.22 1.171 1.9 14.534-6.91 5.999-10.79 5.495-19.94 4.3l-1.89-.237z"/><path fill="#fff" d="M1403.45 286.007c9.23-.076 12.14-1.953 11.24 7.897-11.45 2.405-10.67 2.033-11.24-7.897m-.65-12.307c4.84-.084 10.36-1.425 11.24 4.636l.34 1.818c-7.68 1.634-10.86 3.229-11.38-4.606z"/><path fill="#202431" d="M1345.78 268.581c.64.086 5.42.333 5.72 1.263 3.17 9.647 7.99 19.032 11.27 28.413-.24.166-.49.332-.73.498-6.22 2.427-5.16-4.771-8.91-6.032-3.49.052-7.57-.137-11.12.367-2.24.319-1.63 4.604-2.95 5.404-12.04 7.287 5.49-27.266 6.72-29.913"/><path fill="#fff" d="M1347.84 276.798c2.36 2.481 5.2 8.662 2.62 12.007-9.56-1.667-7.18-1.665-2.62-12.007"/><path fill="#202431" d="M1278.85 268.834c4.7-.056 13.45-.794 17.17 2.18 6.98 5.583 5.1 15.99-4.49 17.137-2.08.313-5.64.466-7.43 1.278-.65 4.148 1.12 9.2-3.27 10.402-3.84-1.823-2-25.651-1.98-30.997"/><path fill="#fff" d="m1284.02 272.919 1.71.158c7.36.62 10.32 1.581 8.3 9.464-11.71 2.64-10.46 2.491-10.01-9.622"/><path fill="#202431" d="M1362.73 268.682c10.21.709 6.76.295 12.98 9.55l1.81 2.692c1.26-1.722 7.69-11.322 8.09-11.469 10.17-3.645-.29 9.44-1.41 11.123-1.94 2.79-3.52 4.46-4.12 7.914-.67 2.114 1.55 10.533-2.18 10.983-4.99.603-3.12-9.331-3.12-12.739-3.85-6.226-7.9-12.041-12.05-18.054m110.23.298c.3.061 4.37.66 4.45 1.303.93 7.587.38 16.752.46 24.568 8.14.095 13.9-2.864 15.91 4.691-6.05.759-14.73.632-20.99.648-.05-10.404 0-20.807.17-31.21m-27.03-.941c.33.083 4.45.948 4.49 1.356.75 7.329.2 18.285.19 25.591 4.99.081 11.79-1.969 13.57 3.009l.46 1.211c-5.76 1.113-12.84.717-18.84.73z"/><path fill="#0e1019" d="M1309.48 296.063c.37-4.603-2.45-32.533 4.8-26.164.56 7.738.31 17.056.34 24.942 2.93-.001 11.15-.478 13.36.829l.41 1.299c-1.63 2.79-17.83 4.959-18.91-.906"/><path fill="#202431" d="M1309.48 296.063c-.02-.002 3.01.595 3.08.374 2.31-7.227.31-18.67 1.72-26.538.56 7.738.31 17.056.34 24.942 2.93-.001 11.15-.478 13.36.829l.41 1.299c-1.63 2.79-17.83 4.959-18.91-.906m120.51-28.013c.89.195 4.59.79 4.64 1.344.59 7.128.4 25.001.37 31.288-.43-.106-4.22-.875-4.3-1.257-1.44-7.857-.77-23.589-.71-31.375"/><path fill="#737b81" d="M1458.37 207.606c3.57 2.485 3.75 4.166 1.02 7.716l-1.15 1.541c-4.4-3.473-3.08-4.606.13-9.257m-106.43 12.458c.84.83 1.54 1.44 2.45 2.237-2.43 1.358-4.8 3.049-7.4 3.618-1.13-.872-1.03-.813-2.43-.981 2.98-1.745 4.6-2.885 7.38-4.874"/><path fill="#fff" d="M1013.75 108.633c2.58 1.062 6.01 2.459 8.13 3.913 7.14 4.907 15.79 18.851 26.01 13.471 10.64-5.607 17.64-15.438 31.4-9.792 12.65 5.19 22.55 16.132 38.25 8.931 16.52-7.577 29.17-26.985 50.96-19.958.71 6.852-.39 20.408-.66 27.786l-1.69 51.525-6.11 167.614c-6.98-.131-16.53-.033-23.2-1.043-18.35 1.193-52.37-.684-71.84-1.097l-127.902-2.299c-23.425-.431-52.039-1.784-74.973-.949 1.441-57.145-1.342-115.481-.82-172.726.199-21.794.351-45.579-.746-67.256 7.401-.796 11.423-.8 18.912-.653 13.707 8.742 22.199 23.851 40.688 15.696 6.974-3.076 15.474-7.316 22.737-8.905 8.342 2.316 18.442 8.112 27.452 10.604 10.963 3.033 24.128-8.883 34.272-14.78.47 3.239-1.14 3.186.29 4.869.65 2.422 1.57 14.402 4.1 14.068 4.65-.612 4.06-11.022 4.13-14.327.11-2.41.06-2.442.61-4.692"/><path fill="#4e5660" d="M860.559 106.753c7.401-.796 11.423-.8 18.912-.653 13.707 8.742 22.199 23.851 40.688 15.696 6.974-3.076 15.474-7.316 22.737-8.905 8.342 2.316 18.442 8.112 27.452 10.604 10.963 3.033 24.128-8.883 34.272-14.78.47 3.239-1.14 3.186.29 4.869-35.446 23.717-29.102 12.187-63.639 3.422-14.7 6.394-22.618 15.253-39.691 8.947-13.948-5.151-19.017-19.008-34.458-16.519-3.701 2.581-2.235 25.001-2.197 30.23l.155 47.678c.143 50.087-.911 105.655.819 155.399l186.951 3.333q35.4.35 70.8 1.228c8.15.192 24.95.085 32.43 1.103-8.05 2.098-14.24-.329-19.24 2.675-18.35 1.193-52.37-.684-71.84-1.097l-127.902-2.299c-23.425-.431-52.039-1.784-74.973-.949 1.441-57.145-1.342-115.481-.82-172.726.199-21.794.351-45.579-.746-67.256"/><path fill="#737b81" d="M1013.75 108.633c2.58 1.062 6.01 2.459 8.13 3.913 7.14 4.907 15.79 18.851 26.01 13.471 10.64-5.607 17.64-15.438 31.4-9.792 12.65 5.19 22.55 16.132 38.25 8.931 16.52-7.577 29.17-26.985 50.96-19.958.71 6.852-.39 20.408-.66 27.786l-1.69 51.525-6.11 167.614c-6.98-.131-16.53-.033-23.2-1.043 5-3.004 11.19-.577 19.24-2.675 1.12-48.026 2.73-96.04 4.82-144.034 1.26-31.511 1.92-63.409 3.87-94.847-23.25.685-24.04 7.471-42.98 18.378-18.35 10.565-34.2-4.111-50.91-9.614-8.81 3.043-12.39 6.397-20.04 11.139-15.92 9.875-25.83-13.899-37.7-16.102.11-2.41.06-2.442.61-4.692"/><path fill="#69767f" d="M921.451 174.42c7.702 1.102 3.207 5.286.659 12.094 7.161-3.687 23.102-14.933 28.275-.511 1.367 3.812-1.034 9.869-3.064 13.219-7.448 12.288-15.655 17.531-29.099 20.906 8.859 12.372 16.41 17.544 24.677 28.543-7.27-4.435-11.065-8.027-19.029-10.968-6.02-6.884-9.636-13.205-15.284-20.217-2.168 4.792-10.082 27.063-13.251 27.874-7.726-2.646 12.134-40.087 13.789-46.875l-.251-.261c-.492-.111-1.125-.044-1.558.196-4.59 2.573-12.865 2.195-4.434-3.62 7.573-5.222 13.552-12.878 18.57-20.38"/><path fill="#fff" d="M937.551 184.14c19.715 4.256-8.31 26.173-19.17 29.296-14.493.35-4.161-4.877-.487-17.014 1.541-5.088 14.102-10.838 19.657-12.282"/><path fill="#69767f" d="M993.605 199.827c3.024-5.544 2.401-7.676 8.185-9.403 3.98 1.674.29 6.511-.94 9.309.8-.029 32.53-2.597 26.56 1.857-2.78 2.07-19.13 1.447-23.41 2.52-1.45.25-4.66.436-5.751.531-3.033 6.297-15.116 25.134-12.369 29.371 6.267 9.67 11.829-20.752 21.69-16.274 4.64 2.109 6.39 7.646 10.55 6.64 3.32-2.803 4.77-10.52 11.98-7.382 12.38 5.394-1.92 9.579-6.9 12.218-1.08 1.599-6.44 12.337-7.87 10.458-1.32-1.729 2.13-8.97.77-10.067-7.44-6.169-9.84 19.089-18.92 11.218-4.764-4.129-.566-2.526-6.12-.321-17.468 6.935-8.276-17.927-7.464-20.638-1.551-.218-2.97-.412-4.533-.575l1.399-1.148c7.574-6.11 5.49-3.461 11.129-13.038-20.484 1.4-9.873-3.291 2.014-5.276"/><path fill="#fff" d="M1005.61 222.718c1.02 6.108-.95 8.836-4.68 13.6-1.65-6.38.18-8.705 4.68-13.6"/><path fill="#cacbce" d="M1027.56 220.612c.43-.115 1.71-.737 2.23-.179l-.04.181c-.48.583-.86.611-1.65.92-1.02.226-1.07.476-1.62.111.11-.486.74-.78 1.08-1.033"/><path fill="#69767f" d="M1074.47 200.629c2.91-4.69 3.59-9.026 8.93-9.98l.82.687c.76 2.883-2.12 7.207-3.27 9.747 1.64-.118 39.04-3.326 22.08 2.566-.43.149-21.21.973-24.16 1.26-4.06 7.703-8.21 15.296-12.13 23.071-1.45 2.877.66 8.238 1.96 8.109 6.25-.418 7.21-14.239 10.97-16.419 4.45-2.578 3.43 3.736 2.41 5.881-.97 2.03-1.94 6.379-2.7 8.574-1.5 3.174.05 3.123-3.34 4.823-5.01-1.222-4.07 2.682-8.55 2.871-3.85.163-5.01-5.006-6.63-7.161-.78-1.035-4.78 5.275-6 6.16-.68.489-1.54.646-2.34.428-2.88-.761-4.16-4.061-5.73-6.232-19.76 14.058-14.81.015-8.92-13.028 3.31-1.316 11.7-5.843 15.4-3.384 4.51 3.005-2.08 8.812-.93 12.386 2.31 7.182 9.92-8.406 10.96-9.993 2.27-4.095 5.15-8.993 7.15-13.128 1.86-3.849-7.98.04-10.38-3.133-.39-2.699 12.35-3.757 14.4-4.105"/><path fill="#fff" d="M1047.16 222.626c5.24 2.267-5.25 9.792-7.18 11.322-3.94-3.131 4.7-9.41 7.18-11.322"/><path fill="#69767f" d="M952.807 226.784c-1.801 1.554-3.545 2.819-5.142 4.63-.954 1.082-2.202 4.098-.51 5.044 1.432.8 4.578-.256 6.036-.992 4.762-2.404 12.511-5.726 15.781-9.967.208-.598-.45-1.72-.889-2.041-5.494-4.02.877-11.256 5.367-12.563 1.132-.329 2.036.551 2.018 1.607-.046 2.839-3.723 4.289-4.193 7.026-.289 1.681.961 3.042 1.875 4.264 1.115.805 1.635 1.282 2.699 2.218-1.869 6.189 1.858 9.428-3.25 15.289-3.329 3.819-9.438 4.895-13.315.989-2.17-3.116-3.032-1.956-6.702-.93-22.476 6.28-8.373-32.659 4.445-25.574 3.158 1.745 2.537 4.274.13 6.526a136 136 0 0 1-4.35 4.474"/><path fill="#737b81" d="M952.807 226.784c-1.85-.666-5.096-.757-4.248-3.273l.231.16c.306.631.966 1.948 1.641.914l-.768-1.095c.122-1.46 2.03-3.409 3.356-3.891.95.322 3.316 2.137 4.138 2.711a136 136 0 0 1-4.35 4.474"/><path fill="#f5f1f4" d="M967.732 232.881c3.177 2.961-1.413 5.09-4.028 5.703l-1.727.433c-2.102-2.36 3.781-4.817 5.755-6.136"/><path fill="#202431" d="M1026.69 267.86c6.15.025 18-1.955 20.43 6.12 1.92 6.42-4.45 7.004-.88 10.166 3.81 3.379 3.09 6.128 1.79 10.903-7.76 5.268-11.38 3.705-21.14 3.429 0-10.207-.07-20.412-.2-30.618"/><path fill="#fff" d="M1032.19 284.844c8.02.122 11.53-1.119 10.03 8.347-11.03 1.368-10.08 1.847-10.03-8.347m-.03-12.679c7.85.538 10.63-.055 9.19 8.263-9.9.963-9.54 1.421-9.19-8.263"/><path fill="#202431" d="M976.014 266.887c.089.012 4.406.424 4.499.583 4.608 7.884 6.721 17.391 10.854 25.915 1.708 3.524 1.98 5.187-3.527 4.033-2.318-.486-.467-4.492-4.089-5.931-1.51.046-13.923-1.028-13.805 2.482.925 3.809-6.26 3.496-5.931 2.045 1.62-7.143 9.537-22.376 11.999-29.127"/><path fill="#fff" d="M978.355 274.764c1.285 1.948 5.719 10.541 3.078 12.525l-.795.644c-3.68-.736-8.231.017-6.186-4.564z"/><path fill="#737b81" d="M1079.38 234.125c4.71 6.103 13.07-9.814 14.92-12.868 2.36-3.891 9.98-5.961 11.87-2.442 2.84 5.294-2.07 11.525 10.64 2.331l-.4 1.875c-.54 2.762-.95 3.813-2.59 6.161.05.008-2.7-.404-2.84-.505-3.02-2.114-9.28 1.184-8.7 4.838 1.15 4.974-1.71 7.471-6.84 8.701-4.07.977-6.52-4.909-7.45-4.886-3.88.093-6.39 7.092-11.95 1.618 3.39-1.7 1.84-1.649 3.34-4.823"/><path fill="#fff" d="M1097.01 227.458c3.46 2.769 1 6.09-.83 9.709-3.46-3.629-1.52-5.374.83-9.709"/><path fill="#202431" d="M910.166 266.7c3.123-.085 14.223-.499 16.125.9 11.661 8.579 3.728 16.061-6.267 18.322-3.44-.001-4.213-.186-4.23 3.063-.017 3.074.841 10.02-3.941 7.78-1.708-.801-1.253-11.135-1.259-12.265-.034-6.03-.241-11.857-.428-17.8"/><path fill="#fff" d="M915.99 270.986c7.636.482 11.537.18 9.074 8.983-10.482 2.198-9.292 1.484-9.074-8.983"/><path fill="#69767f" d="M1116.81 221.146c3.51-4.784 5.25 1.229 6.08 1.487 2.09-.559 5.44-5.78 8.22-3.806 4.64 3.302 1.21 12.584.64 16.035 1.53-1.541 9.41-11.277 11.47-9.248 1.63 6.222-23.9 28.231-16.18 2.876l1.29-4.376c-4.32 3.818-8.84 7.331-11.68 12.484-1.6 2.92-3.46 6.082-7.02 3.914-1.32-.806 3.54-10.026 4.19-11.33 1.64-2.348 2.05-3.399 2.59-6.161z"/><path fill="#202431" d="M1073.89 267.153c.23.059 4.74 1.034 4.79 1.348 1.16 7.377.52 17.135.57 24.759 6.55.013 13.68-2.521 13.49 4.9-6.97.105-12.46.249-19.38.692.85-9.717.51-21.73.53-31.699m26.64.32c.7.172 4.83.942 4.93 1.638.93 6.419.35 18.389.41 24.676 3.3.036 12.32-1.449 13.26 2.35l.46 1.587c-6.21.397-12.49.386-18.73.464.05-9.699-.53-21.584-.33-30.715m-159.894-1.23c.477.157 3.466.998 3.55 1.32 1.569 5.982.954 18.936 1.243 25.296 6.239.007 12.949-2.595 13.302 4.111-5.931.458-11.879.684-17.828.677-.078-7.775-1.045-24.498-.267-31.404m64.354 20.626c-2.81-4.512-8.602-12.853-10.747-17.862-.081-.24.122-.769.376-.879 5.901-2.55 8.191 7.295 11.311 10.441.34.471.67.943 1 1.414-.02.379 1.68 6.994 1.84 7.374.77 2.539 1.74 10.156-1.37 11.238-3.72-.706-2.38-8.706-2.41-11.726m52.82-19.737c.07.018 4.64 1.036 4.68 1.515.8 9.448.75 20.726.32 30.294-.88-.181-3.8-.664-4.05-1.495-1.54-5.186-.95-25.236-.95-30.314"/><path fill="#202431" d="M1006.93 279.983c1.86-2.759 6.15-11.725 8.5-12.036.17-.023 2.96-.11 3.42.376.16.172.41.46.3.688-2.44 4.946-7.9 13.889-10.38 18.346-.16-.38-1.86-6.995-1.84-7.374"/><path fill="#737b81" d="M979.063 219.289c1.563.163 2.982.357 4.533.575-3.323 2.303-4.713 3.694-7.747 6.146-1.064-.936-1.584-1.413-2.699-2.218 1.998-1.473 3.939-3.191 5.913-4.503m106.647-9.59a2.919 2.919 0 0 1 4.84 1.814 2.93 2.93 0 0 1-1.23 2.759c-1.27.881-3 .624-3.96-.587a2.927 2.927 0 0 1 .35-3.986"/><path fill="#fff" d="m644.209 62.4 14.573 3.745a1009 1009 0 0 1-9.629 42.542c15.434 2.124 13.792 10.311 26.356 13.959 9.39 2.727 23.43-8.414 32.899-9.211 20.79-3.665 30.137 21.119 47.276 8.054 3.81-2.904 5.634-5.691 7.812-9.92 6.15-11.937 21.383-11.051 33.52-12.42a14329 14329 0 0 0-8.215 248.991c-4.922-.261-10.926-.413-15.721-1.064q-94.389.31-188.77-.91c-25.488-.205-61.904 1.118-86.131-.544-1.377-5.011-1.49-49.159-1.611-57.114l-1.557-101.29c-.255-26.521-.012-58.179-1.928-84.395 9.644-.033 15.952-.598 23.991 5.763 6.499 5.142 11.304 10.1 19.789 11.946 13.598 2.959 21.964-10.821 34.594-12.326 17.812-2.186 25.164 16.648 42.057 12.22 9.275-2.431 18.029-8.998 27.463-12.563a3734 3734 0 0 0 3.232-45.464"/><path fill="#69767f" d="m644.209 62.4 14.573 3.745a1009 1009 0 0 1-9.629 42.542c15.434 2.124 13.792 10.311 26.356 13.959 9.39 2.727 23.43-8.414 32.899-9.211 20.79-3.665 30.137 21.119 47.276 8.054 3.81-2.904 5.634-5.691 7.812-9.92 6.15-11.937 21.383-11.051 33.52-12.42a14329 14329 0 0 0-8.215 248.991c-4.922-.261-10.926-.413-15.721-1.064l6.176-3.26 4.02-.375c1.473-1.819 1.172-.85 1.26-2.81l8.636-235.692c-26.681-3.442-21.955 11.862-39.02 22.911-13.597 8.803-29.405-12.345-44.626-10.583-13.126 1.534-20.352 11.443-34.416 9.794-10.231-1.199-19.036-19.192-27.655-11.988-.543 3.459-.634 4.281-1.77 7.706-3.245 1.969-1.614 1.658-4.889 1.708-2.303-3.964.611-5.019-1.519-9.983-5.536-.385-17.745 10.958-32.203 10.675-18.069-.355-20.55-14.66-36.567-11.995-13.704 3.68-16.236 10.731-31.765 11.348-13.596.54-31.548-24.576-40.937-16.064-.238 6.565-.049 12.596.127 19.151 1.655 61.625 1.957 123.314 3.146 184.953.191 9.868-.399 19.768.469 29.611 2.808 1.552 6.647 1.104 10.011 1.076-3.438.528-11.075.976-13.379 2.363-1.377-5.011-1.49-49.159-1.611-57.114l-1.557-101.29c-.255-26.521-.012-58.179-1.928-84.395 9.644-.033 15.952-.598 23.991 5.763 6.499 5.142 11.304 10.1 19.789 11.946 13.598 2.959 21.964-10.821 34.594-12.326 17.812-2.186 25.164 16.648 42.057 12.22 9.275-2.431 18.029-8.998 27.463-12.563a3734 3734 0 0 0 3.232-45.464"/><path fill="#4e5660" d="m511.558 343.259 203.422-.104c21.454.08 42.814.823 64.276.661l-6.176 3.26q-94.389.31-188.77-.91c-25.488-.205-61.904 1.118-86.131-.544 2.304-1.387 9.941-1.835 13.379-2.363"/><path fill="#69767f" d="M536.081 217.973c-1.805 4.025-9.828 25.532-11.656 25.915-13.435 2.822 9.449-32.534 8.104-37.657-.247-.939 5.564-11.161 3.961-11.854-.99.193-8.627 5.243-9.181 1.111-.034-.252.98-1.021 1.122-1.136 4.119-3.314 8.37-6.794 11.898-10.74 2.598-2.783 5.678-12.106 10.063-11.617 3.007 2.561-.138 8.143-1.013 11.434 22.597-11.353 37.808-7.969 21.539 20.588-4.866 8.542-16.565 12.275-26.319 13.652 8.832 9.601 11.405 13.281 21.961 21.015q1.111 1.08 2.197 2.187c-9.221 6.466-25.429-16.931-32.676-22.898"/><path fill="#fff" d="M564.738 181.89c10.045.187 7.17 6.25 3.298 14.112-5.049 10.251-12.353 13.401-22.789 16.106-.53-.02-6.176.116-6.006-1.688.55-5.856 4.251-13.114 6.921-18.314 7.48-4.842 10.348-6.765 18.576-10.216"/><path fill="#69767f" d="M703.125 195.564c2.204-3.218 4.565-7.541 7.852-9.283l2.357.403c1.498 5.282-3.351 5.823-.874 9.166 5.302-.39 19.827-2.21 23.525.261l-.446 1.251c-6.558 2.178-20.224 2.401-27.448 2.774-4.03 9.171-10.726 20.923-10.647 30.408l.921 1.052c7.502-2.823 8.311-15.537 14.765-16.965 1.825 4.597-3.206 11.825-2.112 15.826l1.261.35c9.655-5.771 10.209-17.069 19.274-17.689 3.107 1.697 3.488 3.054 5.227 6.135 7.302.357 20.019-6.717 25.137-1.451-.044 5.149-1.29 8.332-2.723 13.249 3.05-2.961 6.063-6.328 9.734-8.325l.983.639c-1.843 5.211-8.224 15.799-14.833 13.044-2.728-4.748-2.165-5.864-.788-11.042q.493-1.844 1.023-3.678c-7.352 4.93-10.426 13.395-15.068 15.441l-1.69-.491c-.062-6.068 3.299-7.549 2.622-12.51-9.329-.086-8.738 10.355-14.781 13.675-3.092-.018-3.076.59-5.013-.919-11.92-9.281-22.507 8.63-31.351-6.14-3.602 2.473-5.321 5.091-9.067 5.354-2.909-1.093-2.683-1.143-4.631-3.638-4.36.838-4.019 4.193-9.714 4.868-6.107-3.101-4.785-8.124-2.563-13.329 1.117-1.522 1.276-1.618 2.006-3.311 4.027-3.755 6.896-7.031 12.532-6.928 7.445 4.312 4.393 12 2.853 18.932 11.54-11.081 13.289-17.23 19.507-31.92-3.448.445-6.828 1.433-9.692-.1 2.613-3.287 7.69-4.046 11.862-5.109"/><path fill="#fff" d="M676.402 218.623c4.479 3.731-3.94 9.424-6.937 11.572-2.701-4.318 3.855-9.123 6.937-11.572m51.148 3.951c3.469 3.114-1.281 7.304-3.664 10.273-3.352-4.42-.018-7.428 3.664-10.273"/><path fill="#69767f" d="m622.045 196.755.879-1.612c6.806-12.742 14.29-15.966 6.267 1.668 3.384-.299 24.699-2.488 25.691.466-.418 2.239-24.326 3.677-28.313 3.964-3.04 7.387-9.858 18.115-10.564 23.751a216 216 0 0 0-1.01 9.628c.387-.437 13.372-15.99 13.199-15.596-.948-3.861-2.333-3.772 5.384-5.651 2.775-.676 5.397 5.471 7.394 5.712 4.083.493 9.559-3.376 12.664-5.874 2.831-1.565 2.141 2.642 3.324 2.774 2.723.306 4.587-3.088 7.302-.881l2.029 1.541c-.19 1.461-.19 2.577-.228 4.044-.73 1.693-.889 1.789-2.006 3.311l-1.428-2.119c-7.591-.376-12.366 5.397-13.617 12.637-.578 3.35-5.132 3.888-6.081 1.002-.846-2.857 3.534-9.609 2.825-11.366-.489-.238-.55-.252-1.214 0-3.751 1.166-5.438 3.438-7.065 6.734-1.572 3.184-4.647 6.841-8.046 7.662-4.49 1.086-4.51-2.195-6.987-4.264-.653-.545-2.929 2.276-3.063 2.362-1.231 1.219-3.072 2.214-4.847 2.188-5.197-.076-5.235-6.337-4.893-9.835l.812-7.594c-1.824 1.26-6.932 4.132-8.058 5.643-.776 1.04 2.521 5.988.692 8.891-2.247 3.567-9.746 6.849-13.454 4.412-2.923-1.92-1.186-5.86-6.645-2.502-4.388 2.445-6.96 2.264-11.927 1.982a92 92 0 0 1-1.937-3.106c.717.022 4.206.639 4.325.608.174-.237.428-.863.547-1.254 6.647-1.633 16.36-5.668 21.287-10.434.812-.787-3.579-9.65.383-12.922 2.152-1.778 3.492-4.666 7.246-5.039 3.288 3.459-6.319 8.527-2.503 13.27 4.739 1.356 17.337-12.197 18.394-17.139.814-3.806-7.026.378-8.21-1.07-3.213-3.93 9.404-5.728 11.452-5.992"/><path fill="#cacbce" d="M666.291 216.645c-.19 1.461-.19 2.577-.228 4.044-.73 1.693-.889 1.789-2.006 3.311l-1.428-2.119c2.102-2.257 2.181-2.577 3.662-5.236"/><path fill="#fff" d="M631.628 222.546c5.329 3.237 1.42 6.581-1.659 10.334-5.313-1.37-.017-8.011 1.659-10.334m-36.477 7.852c2.836 2.064 2.997 2.753.41 5.279l-1.402 1.424c-2.223-2.78-2.291-2.755.083-5.507z"/><path fill="#202431" d="M659.928 264.99c4.932-.05 12.878-1.048 17.282 1.732 2.883 1.819 5.259 7.283 2.633 10.248-2.496 2.818-1.484 2.377.661 4.905 2.305 2.715 1.498 7.04 1.19 10.19-6.734 5.294-12.381 3.69-21.261 3.552-.131-10.413-.639-20.125-.505-30.627"/><path fill="#fff" d="M665.594 281.93c7.518.371 11.224-.649 10.984 7.72-11.447 3.67-10.679 1.667-10.984-7.72m-.165-12.614c7.467.566 10.673-.409 9.317 8.168-10.306.573-9.466 1.739-9.317-8.168"/><path fill="#202431" d="M543.211 266.532c4.647-.012 14.171-.784 17.857 2.307 5.978 5.013 4.628 16.951-4.929 16.77-15.765 1.611-4.044 4.778-8.314 10.765-6.923 9.705-4.586-27.02-4.614-29.842"/><path fill="#fff" d="M550.077 271.99a5.423 5.423 0 1 1 6.771 8.471 5.423 5.423 0 0 1-6.771-8.471"/><path fill="#202431" d="M611.79 264.432c1.812.955 3.067 1.351 4.179 4.045a2785 2785 0 0 1 10.53 25.926c.313.782-4.147 1.348-5.177.641-1.872-1.285-1.331-3.94-2.417-5.118-1.421-1.54-6.484-1.12-8.434-1.236-10.508 1.028-4.554 5.067-8.507 7.074-9.765 4.957 1.696-15.028 2.388-17.149 1.826-5.595 3.46-10.326 7.438-14.183"/><path fill="#fff" d="M611.812 273.708c2.574 2.535 5.536 8.571 2.629 11.914-7.464-1.239-7.787-.144-4.501-7.626z"/><path fill="#202431" d="M626.214 264.597c8.292 1.114 9.127 6.142 13.378 13.384 2.699-3.915 5.543-8.301 7.976-11.894 1.201-1.775 5.984-1.394 5.283.838-.644 2.049-6.067 9.806-6.967 11.23-5.258 7.911-3.644 5.085-3.894 14.868-.114 4.457-5.669 3.875-4.588-3.285 1.117-7.401-7.787-17.578-11.188-25.141"/><path fill="#626c76" d="M568.227 237.089c-1.761-6.694 2.817-20.12 8.141-22.712 12.72-6.196 16.483 5.496 2.169 13.133-2.652 1.415-4.632 1.47-4.584 4.974l.043 3.597c-.119.391-.373 1.017-.547 1.254-.119.031-3.608-.586-4.325-.608z"/><path fill="#cacbce" d="M580.515 217.39c2.826 1.424 2.07 1.801-.291 3.902l-1.358 1.413c-3.455-.461.367-3.654 1.649-5.315"/><path fill="#202431" d="M732.75 265.026c.01.002 4.627.978 4.68 1.315 1.127 7.225.53 16.689.641 24.214 8.044.181 11.734-2.485 13.891 4.606-6.48.497-12.488.486-18.965.443q-.24-15.288-.247-30.578m-158.739 1.05c.92.205 4.558.791 4.641 1.348.76 5.116.386 20.008.404 24.604 6.815.024 12.17-2.378 14.551 3.885-6.725.768-12.666.75-19.436.909-.081-10.213-.213-20.542-.16-30.746m133.368-1.839c.454.121 4.094.932 4.15 1.375.925 7.349.425 18.037.446 25.303 4.458.014 11.81-1.752 13.372 2.778l.449 1.214c-6.244.408-12.539.411-18.806.531.056-8.87-.373-22.852.389-31.201m-16.955.014c.014.003 2.022.422 2.036.417.161-.053 3.127.551 3.183.839 1.083 5.54.509 26.714.456 31.321-6.091-1.71-5.176-1.373-4.926-8.917.268-8.105-.436-15.651-.749-23.66"/><path fill="#69767f" d="M715.646 204.158a2.814 2.814 0 1 1 1.917 5.292 2.814 2.814 0 0 1-1.917-5.292"/><path fill="#fff" d="M1758.16 63.688c4.57 1.414 9.88 2.59 14.57 3.756-1.31 7.06-10.64 41.311-9.33 44.809 12.79 3.946 9.39 6.079 17.79 14.447 11.07 11.017 26.66-7.314 35.56-8.148 14.7-1.38 26.44 13.573 42.04 9.802 17.94-4.335 19.34-19.217 39-18.509l1.26.057c1.72.065 2.85.034 4.57-.033l1.9-2.111 1.54.483c3.08 8.074-6.63 223.639-6.72 247.469a2903 2903 0 0 0-98.91-2.792c-14.21-.174-50.17-.067-63.45-1.724-8.81.618-25.05-.149-34.39-.191-32.04-.141-64.6-2.157-96.63-1.31.05-28.954.9-57.407 1.3-86.322.25-26.954-.57-66.059 1.75-91.807 0-5.124-.03-10.403.14-15.51-.71-14.33-.23-33.094-.25-47.794 5.72 1.901 13.82 3.043 18.34 5.356 1.95.999 8.63 7.314 11.07 8.997 17.57 12.111 26.47-9.591 42.26-8.014 13.09 1.308 23.25 13.728 37.28 11.718 15.74-2.256 18.1-11.364 35.31-13.506l1.35-.157c.8-16.326 1.69-32.649 2.65-48.966"/><path fill="#69767f" d="M1758.16 63.688c4.57 1.414 9.88 2.59 14.57 3.756-1.31 7.06-10.64 41.311-9.33 44.809 12.79 3.946 9.39 6.079 17.79 14.447 11.07 11.017 26.66-7.314 35.56-8.148 14.7-1.38 26.44 13.573 42.04 9.802 17.94-4.335 19.34-19.217 39-18.509l1.26.057c-1.19.999-2.19 1.906-3.34 2.951-19.37 5.605-19.9 14.714-36.82 20.125-11.85 3.79-27.14-9.221-38.71-9.811-12.93-.66-26.12 16.965-39.92 8.336-6.26-3.916-6.53-13.948-17.26-14.689-4.61 3.193-1.84 10.015-5.14 14.196l-2.33.136c-3.84-4.597.85-8.964-1.61-13.792-13-.734-21.36 12.587-35.5 13.58-16.38 1.15-25.27-11.122-39.96-11.745-10.41-.442-19.81 14.126-32.28 10.6-16.64-4.703-13.69-12.932-32.09-16.113-.07 4.469.11 13.423-.94 17.368-3.54 1.154-2.38 20.053-3 25.01-.71-14.33-.23-33.094-.25-47.794 5.72 1.901 13.82 3.043 18.34 5.356 1.95.999 8.63 7.314 11.07 8.997 17.57 12.111 26.47-9.591 42.26-8.014 13.09 1.308 23.25 13.728 37.28 11.718 15.74-2.256 18.1-11.364 35.31-13.506l1.35-.157c.8-16.326 1.69-32.649 2.65-48.966"/><path fill="url(#c)" d="m1903.62 109.869 1.9-2.111 1.54.483c3.08 8.074-6.63 223.639-6.72 247.469a2903 2903 0 0 0-98.91-2.792c-14.21-.174-50.17-.067-63.45-1.724l-.72-1.629c-3.11-.825-4.45-.994-7.58-1.419 12.17-.363 25.03.214 37.24.375 43.14.566 86.21 2.121 129.36 2.494 1.32-20.344 1.51-45.895 2.17-66.718q1.545-52.77 3.63-105.519c.64-21.33.78-43.257 2.36-64.485.05-1.838-.32-2.615-.82-4.424"/><path fill="#4e5660" d="m1608.26 263.371 1.36-3.459.93.757c.55 5.468-.3 21.349 1.15 24.063.22 20.391.16 40.784-.19 61.173 38.87.448 79.39.667 118.17 2.241 3.13.425 4.47.594 7.58 1.419l.72 1.629c-8.81.618-25.05-.149-34.39-.191-32.04-.141-64.6-2.157-96.63-1.31.05-28.954.9-57.407 1.3-86.322"/><path fill="#626c76" d="M1612.91 162.994c.88 27.996-.15 57.76-.82 85.83-.27 11.144.18 25.311-.39 35.908-1.45-2.714-.6-18.595-1.15-24.063l-.93-.757-1.36 3.459c.25-26.954-.57-66.059 1.75-91.807 1-4.129.4-5.144 2.9-8.57"/><path fill="#323b3f" d="M1610.15 156.054c.62-4.957-.54-23.856 3-25.01 0 9.55.28 22.623-.24 31.95-2.5 3.426-1.9 4.441-2.9 8.57 0-5.124-.03-10.403.14-15.51"/><path fill="#4e5660" d="M1899.05 109.902c1.72.065 2.85.034 4.57-.033.5 1.809.87 2.586.82 4.424-3.12-.548-5.56-1.104-8.73-1.44 1.15-1.045 2.15-1.952 3.34-2.951"/><path fill="#626c76" d="M1719.73 209.452c6.39-5.602 9.31-6.59 16.92-9.768.11-.046 3.56-6.721 6.46-8.607l.82.334c1.45 2.543 1.35 6.605 1.55 9.701 9.12 1.13 17.29.072 28.6 1.643-11.76 2.133-21.84 2.531-33.74 3.295-3.15 5.933-12.55 23.012-11.06 29.7 5.72-.043 8.01-11.485 13.6-15.019 6.44-4.074 8.21 2.293 14.94 3.335 4.78.741 3.59-1.396 8.23-4.443 5.72-.23 8.14-.112 12.49 3.684 5.82-2.266 11.27-5.029 17.05-1.837 1.87 3.997.17 7.739-1.17 12.029l.72 1.247 2.13-.609c6-5.503 12.71-17.898 15.06-25.61-1.8-1.908-6.09-1.489-9.68-1.865l-.04-1.416c3.87-2.739 9.9-2.728 14.59-2.901 2.64.312 3.32.057 6.03-.35 5.06-.25 21.66-1.626 25.1.552l-.16.959c-5.37 1.613-21.66 2.305-27.88 2.789-2.69 6.287-11.01 23.378-9.75 29.418l1.62.401c9.55-5.6 4.57-9.094 11.69-15.914l2.92.404-.93-1.501-.82.261c5.14 4.165-3.4 9.667-.54 16.898 8.15-1.165 9.37-18.694 19.99-17.078l1.17 1.462c7.33 8.923 23.55-6.029 29.34 4.114.17 4.444-1.87 7.035-4.07 11.04 1.4-1.097 2.81-2.179 4.24-3.245 2.26-1.667 5.75-4.497 8.3-4.095-1.91 5.911-8.29 11.813-14.18 13.788-6.26-1.196-3.39-10.608-2.2-14.941-4.17 4.095-11.22 12.961-15.18 15.138-2.33-1.878 1.46-7.46-.91-13.01l-2.43-.341c-8.39 4.837-4.64 21.336-18.53 10.634-1.95-1.505-17.43 3.307-23.17 2.751-3.42-2.638-2.43-2.051-4.39-6.545-14.26 11.031-8.63 2.206-15.68 2.441-2.88 2.315-3.57 3.112-7.11 4.389-12.55-1.299-2.57-7.292-3.94-14.411-3.51-1.571-5.34-.58-9.65.005-2.87 5.289-3.78 13.188-9.35 14.433-2.84-3.554 2.17-7.812-.23-13.15-7.88-1.475-2.86 9.811-14.09 14.178-3.57-.612-3.92-2.074-6.96-5.143-3.6 2.435-4.9 3.699-9.02 4.651-6.23-2.451-2.51-11.152-1.68-15.983.71-4.133-2.49-1.02-4.73-4.44 2-2.318 4.18-3.047 6.95-4.392l6.31-11.466z"/><path fill="#fff" d="M1789.91 223.911c3.49 3.899-5.68 10.308-8.24 12.3-3.84-3.072 5.56-10.551 8.24-12.3m-43.83 1.652c2.83 5.222-.41 8.418-4.16 12.296-2.27-5.581.29-7.902 4.16-12.296m93.15.951c3.53 3.049.27 6.201-1.85 9.876-3.21-2.93-.1-6.81 1.85-9.876"/><path fill="#69767f" d="M1653.47 188.968c2.42-3.238 5.42-7.521 8.17-10.364 3.17-3.274 6.89-.15 5.32 4.412l1.05 2.109c15.73-6.719 31.29-7.622 21.35 15.139-5.32 12.201-17.35 17.257-29.22 21.751l2.05 2.901c2.3 3.265 28.76 26.719 13.97 20.738-7.55-3.052-19.52-19.042-25.26-25.372-1.42 2.612-13.34 37.433-16.12 24.292-.58-2.77 15.58-41.824 17.75-47.308-1.7 1.002-6.88 4.614-8.6 3.882-1.84-.781 8.27-10.754 9.54-12.18"/><path fill="#737b81" d="M1652.53 197.266c-1.7 1.002-6.88 4.614-8.6 3.882-1.84-.781 8.27-10.754 9.54-12.18l.12 2.028c.2 2.636.01 3.839-1.06 6.27"/><path fill="#cacbce" d="m1666.96 183.016 1.05 2.109c-.89.728-4.28 3.913-5.39 3.924l-.16-.309.3.002.03-1.157c1.16-1.965 2.46-3.068 4.17-4.569"/><path fill="#fff" d="M1676.4 187.08c5.88-.671 11.62-1.65 8.82 6.435-4.44 12.783-13.32 17.575-24.9 22.76-3.04 1.933-4.57 1.479-6.58-1.792-.95-1.544 3.15-9.655 3.8-11.21 3.39-8.166 10.95-13.059 18.86-16.193"/><path fill="#69767f" d="M1713.05 212.538c-.06-.019 1.62.53 1.5.457 5.91 3.471-5.12 7.522 2.44 12.975.83.605 1.16 10.215.38 12.179-1.3 3.277-4.47 6.559-7.84 8.053-7.95 3.516-7.88-4.15-9.04-5.115-2.1.188-4.61 2.705-6.99 2.875-18.17 1.294-9.3-16.087-3.67-23.515 10.16-9.325 17.12.027 8.16 2.72-.88.267-3.51-.325-2.89 1.72l.43.182c1.01-.198 1.57-1.064 2.54-1.357.54.136.31-.002.69.416.41 4.22-8.57 7.914-9.89 10.918-4.47 10.226 21.52-5.284 21.56-5.691.74-9.452-4.93-7.162 2.62-16.817"/><path fill="#fff" d="M1710.73 232.924c3.03 3.02-.11 5.642-3.27 6.349l-1.71.424c-2.55-2.35 1.95-4.234 4.19-6.103z"/><path fill="#202431" d="M1768.97 269.134c6.7.01 18.54-2.064 20.48 7.271 1.13 5.429-3.66 6.356-1.25 8.325 4.27 3.483 3.11 7.329 2.23 11.983-6.95 4.828-13.03 3.134-21.48 3-.05-10.193-.04-20.386.02-30.579"/><path fill="#fff" d="M1774.13 286.87c9.63.024 11.74-1.939 10.95 8.127-11.43.02-10.9 2.042-10.95-8.127m0-13.132c7.56.365 10.96-.865 9.62 7.888-10.28.793-9.5 1.676-9.62-7.888"/><path fill="#202431" d="M1651.18 269.525c9.18-.865 28.26-.657 19.41 15.708-2.2 4.071-10.29 1.734-13.34 3.161-.84 1.157-.74 8.753-1.22 11.68-7.1-.875-4.55-1.744-4.79-9.571-.21-6.936.08-14.012-.06-20.978"/><path fill="#202431" d="m1651.18 269.525 1.85.39c1.37.279 2.93.061 4.18.782.28.469.13.461-.06 1.251-.53 4.687-.47 7.261-.31 11.992-1.43 7.178-1.7 8.023-.81 16.134-7.1-.875-4.55-1.744-4.79-9.571-.21-6.936.08-14.012-.06-20.978"/><path fill="#fff" d="M1657.15 271.948c3.73 1.237 15.9 4.113 7.24 10.786-.97.749-4.71.98-6.03 1.078l-1.52.128c-.16-4.731-.22-7.305.31-11.992"/><path fill="#202431" d="M1719.27 268.245c7.46 3.592 8.44 19.659 13.39 26.924 2.27 1.513.28 6.004-1.94 4.28-8.1-6.279.13-5.657-11.76-6.269-1.57.093-6.74-.576-6.86 2.3-.16 3.717-3.85 6.445-6.68 3.829-.55-1.77 12.2-28.278 13.85-31.064"/><path fill="#fff" d="M1719.48 278.632c2.66 2.415 5.35 7.669 2.94 11.081-7.82-1.262-7.74-.364-4.21-8.184z"/><path fill="#202431" d="M1736.1 269.422c8.99.411 7.19 4.242 12.24 12.726l.79-1.131c1.29-1.827 6.84-10.417 7.97-10.776 9.84-3.144.76 7.145.2 7.978l-.86 1.245-.69 1.017c-1.37 1.93-5 5.966-4.79 7.519 2.22 16.446-7.22 16.709-5.99.017.01-.205-7.88-16.213-8.87-18.595m81.7-.977c5.83 1.811 3.98 2.201 4.15 8.927.15 5.899-.07 11.951-.05 17.876 5.5.078 14.8-2.195 13.75 4.57-6.3.08-12.61.124-18.92.131.02-5.846-1.24-28.037 1.07-31.504m-136.14-.196c6.58 2.074 4.1 2.516 4.45 10.219.25 5.392-.02 11.145 0 16.589 5.08.037 13.16-2.156 14.31 3.202l.4 1.737q-9.825.176-19.65.029c.03-7.902-.18-24.815.49-31.776"/><path fill="#0e1019" d="m1843.87 268.272 4.35 1.603c.25 8.288-.05 17.26-.02 25.756 6.55.064 12.41-2.147 14.56 3.901-6.25.514-13.26.358-19.59.369.14-10.553.67-21.129.7-31.629"/><path fill="#202431" d="M1800.81 268.248c.29.082 4.37.967 4.43 1.628.96 9.706.63 21.008.6 30.892-7.43-1.831-4.7-3.843-5.07-12.079-.3-6.62-.02-13.779.04-20.441"/><path fill="#737b81" d="M1817.2 202.345c1.79-4.515 2.71-10.385 8.37-9.775 1.91 2.659-1.07 6.798-2.34 9.425-2.71.407-3.39.662-6.03.35m10.76 7.175a2.94 2.94 0 0 1 3.48 2.317 2.94 2.94 0 0 1-2.34 3.462 2.95 2.95 0 0 1-3.44-2.327 2.95 2.95 0 0 1 2.3-3.452"/><path fill="#fff" d="m279.059 62.602 14.776 4.033c-2.187 7.777-12.377 39.807-9.998 45.398 15.27 5.223 15.427 24.006 33.005 16.087 8.76-3.946 13.278-9.027 23.22-11.889l1.342-.399.81-.225c11.493 4.753 33.831 16.438 44.134 9.912 18.61-11.789 18.433-15.431 43.393-14.984-3.522 78.644-8.057 161.806-9.672 240.07-3.79-.245-7.987-.419-11.729-.787-31.313.389-67.132-1.195-98.781-2.034-42.155.319-85.218-2.061-127.465-2.35-18.793-.128-37.759-1.394-56.582-.779l5.931-231.827.749-3.867c3.854-2.131 10.669-.167 16.619-.272 10.013 7.152 19.116 18.496 32.869 16.607 9.867-1.355 17.642-8.497 28.029-8.407 10.502.09 24.792 12.179 34.702 9.125 16.631-5.125 10.319-10.986 30.413-14.479 1.256-15.278 2.291-33.99 4.235-48.933"/><path fill="#69767f" d="m279.059 62.602 14.776 4.033c-2.187 7.777-12.377 39.807-9.998 45.398 15.27 5.223 15.427 24.006 33.005 16.087 8.76-3.946 13.278-9.027 23.22-11.889l1.342-.399.81-.225c11.493 4.753 33.831 16.438 44.134 9.912 18.61-11.789 18.433-15.431 43.393-14.984-3.522 78.644-8.057 161.806-9.672 240.07-3.79-.245-7.987-.419-11.729-.787 3.831-1.499 5.626-.567 9.375-1.829l-1.207-.862c-1.526-9.483.526-43.658 1.012-55.76 2.377-59.134 5.584-118.11 7.723-177.297-18.831-.413-18.143 3.99-33.266 13.478-17.746 11.134-30.848-1.213-47.46-5.874-8.912-2.501-14.464 4.019-21.594 8.021-24.147 13.552-27.012-9.931-40.904-13.13-4.234 2.971-1.41 8.546-6.566 13.413l-1.991-.229c-1.609-4.906 1.861-7.171.114-12.53-8.455-4.473-16.072 8.714-23.544 12.162-15.079 6.958-26.616-7.42-42.254-7.585-13.285-.14-17.086 6.664-27.636 7.987-11.274 1.414-24.735-9.922-32.879-16.509-4.068-.389-7.227-.971-11.257-1.708l-1.774-1.262-2.789 2.524.749-3.867c3.854-2.131 10.669-.167 16.619-.272 10.013 7.152 19.116 18.496 32.869 16.607 9.867-1.355 17.642-8.497 28.029-8.407 10.502.09 24.792 12.179 34.702 9.125 16.631-5.125 10.319-10.986 30.413-14.479 1.256-15.278 2.291-33.99 4.235-48.933"/><path fill="url(#d)" d="m131.443 112.828 2.789-2.524 1.774 1.262-6.835 229.343c39.27-.171 79.035.507 118.285 1.759 17.966.573 55.704-.039 72.749 2.137-3.42.148-17.768.052-19.321 1.178 3.552 1.167 4.919 1.294 8.675 1.801-42.155.319-85.218-2.061-127.465-2.35-18.793-.128-37.759-1.394-56.582-.779z"/><path fill="#4e5660" d="M320.205 344.805q31.343.014 62.673.877c8.289.178 26.09.107 33.63 1.445l1.207.862c-3.749 1.262-5.544.33-9.375 1.829-31.313.389-67.132-1.195-98.781-2.034-3.756-.507-5.123-.634-8.675-1.801 1.553-1.126 15.901-1.03 19.321-1.178"/><path fill="#626c76" d="M339.304 200.119c2.727-4.58 2.904-6.71 7.099-8.637l2.16.467c2.657 4.969-2.221 4.425.739 7.708 5.67.565 20.349-.459 22.979 1.66-5.442 2.865-21.307 2.537-27.992 2.513-3.215 6.671-12.767 24.511-12.121 30.576l.807 1.159c5.9.524 8.631-13.784 14.087-16.998l1.623.55c.645 6.611-3.99 12.095-2.29 15.012 10.699 1.49 9.501-15.701 19.627-17.589 4.65 1.652 5.456 3.927 7.572 8.289 2.971-1.536 8.152-4.738 11.163-4.633l1.634 2.115c3.509-1.117 7.52-2.926 10.936-2.126 2.865 4.306.779 8.874-.524 13.579 3.335-2.96 6.078-6.185 10.253-7.001l.944 1.22c-2.218 5.712-10.737 12.202-16.838 11.696-2.946-5.596 2.21-11.182-.164-14.357-7.65 4.054-8.51 16.222-16.455 15.36-.618-5.326 3.584-6.846 2.326-11.815-3.283-1.703-1.504-1.127-5.783-.963-5.418 4.73-2.923 12.158-11.048 14.238-7.169-2.638-3.822-6.369-8.498-4.28-4.936 2.206-2.647 2.87-7.717 2.73l-4.068-2.96c-5.664 2.023-2.228 3.58-8.378 4.114-3.916-2.17-3.966-2.928-5.813-7.656-3.958 1.575-3.121 4.555-7.503 5.447-2.937-.896-2.773-.769-5.096-2.756-5.603 1.189-8.759 3.757-13.454 3.319-4.822-5.026 1.279-9.452-.957-15.6-7.643-2.893-12.318 15.23-19.033 14.89-.534-5.627 3.02-7.015 1.79-11.955-4.583-1.795-6.945 2.837-8.813 6.287-1.046 4.01-1.113 4.207-3.954 7.317-2.921-1.275-5.677-2.621-7.998-4.857l-.921-.849c-1.544-1.488-1.314-1.24-1.783-3.347 1.982-3.649 4.377-6.831 6.801-10.188 2.172-3.023 7.893-11.125 10.406-3.274 2.265 2.64 2.206 3.035 5.62 3.899 6.98-1.85 4.93-6.025 11.137-7.028l.973 1.105-.223 3c2.811-.684 3.439-.799 6.049-1.973 2.111 1.772 2.697 2.091 4.294 4.288 5.544-2.832 9.317-5.568 15.495-3.712 3.721 4.609 1.611 9.031.442 14.573l.111-.595 1.292-.054-1.28 1.01.225-1.894 2.023-.226c8.57-10.646 9.894-13.663 16.034-25.791-4.104.771-6.045 1.854-9.496.537.971-4.221 7.786-4.778 11.559-5.544"/><path fill="url(#e)" d="M264.643 221.798c1.553.454 1.551.548 3.034 1.458l1.544 1.83 1.715 5.062a120 120 0 0 0 1.562 3.574c-1.046 4.01-1.113 4.207-3.954 7.317-2.921-1.275-5.677-2.621-7.998-4.857l-.921-.849c-1.544-1.488-1.314-1.24-1.783-3.347 1.982-3.649 4.377-6.831 6.801-10.188"/><path fill="#fff" d="M270.936 230.148c-4.245 8.888-9.868-1.994-3.259-6.892l1.544 1.83z"/><path fill="#737b81" d="M264.643 221.798c2.172-3.023 7.893-11.125 10.406-3.274-2.484 1.886-3.938 4.072-5.828 6.562l-1.544-1.83c-1.483-.91-1.481-1.004-3.034-1.458"/><path fill="#fff" d="M312.528 221.621c5.582 2.546-4.001 9.73-6.619 12.074-4.206-2.219 4.709-10.178 6.619-12.074m49.064 7.089 2.973-.865c-2.746 14.766-7.893 6.682-2.973.865"/><path fill="#f5f1f4" d="M363.052 225.563c1.217-4.965 4.021-4.277 2.193.286z"/><path fill="#9fa5aa" d="m363.052 225.563 2.193.286-.68 1.996-2.973.865z"/><path fill="#69767f" d="M174.708 189.401c2.235-3.47 9.47-15.857 13.936-14.104 2.058 2.982-1.264 7.969-2.549 11.351 9.811-5.493 33.619-17.785 28.2 7.939-1.863 8.84-13.868 16.159-20.036 21.659-2.512 2.156-7.37 3.001-10.619 4.057 3.89 5.022 7.896 9.263 12.034 13.772 1.106 2.14 8.835 6.629 8.329 8.93-.462 2.102-5.804.133-6.801-.561-9.387-6.528-15.706-15.527-23.695-23.522-.872 1.967-12.411 35.336-16.193 23.379-.113-.357 17.017-43.217 18.54-46.918-.405-2.426-.231-3.624-1.146-5.982"/><path fill="#fff" d="M204.06 182.75c6.245 2.226 5.341 5.553 3.315 10.871-4.334 11.378-16.486 16.888-27.022 21.001-8.613.07-1.773-5.757-.295-12.555 2.282-10.491 15.061-15.515 24.002-19.317"/><path fill="#69767f" d="M249.099 221.456c-2.855.069-3.742 1.367-5.993 3.069-3.296 2.38-1.829 5.1-2.196 8.977-.52 5.487-5.578 11.186-11.458 10.376-2.743-.378-3.85-2.841-5.128-4.814-.205-.317-2.261.383-2.451.583-2.893 1.56-5.968 2.976-9.357 2.669-2.4-.192-3.904-1.037-5.525-2.842-1.726-1.923-1.55-6.708-1.013-8.999 1.137-4.852 6.781-12.882 11.048-15.576 1.138-.734 2.568-.786 3.8-.391 3.241 1.039 4.441 3.957 3.162 7.051-1.49 3.605-4.558 6.532-8.255 7.893-1.766.65-3.374 1.236-4.177 3.036-.373.779-.846 2.212-.399 2.936.3.488 1.627 1.347 2.05 1.431 5.462 1.085 12.302-6.053 17.369-7.71.897-.293 3.101-1.171 3.452-1.393 2.018-1.27-3.571-5.542-1.649-10.609.912-3.135 2.983-5.887 5.727-7.668.998-.647 2.034.646 2.226 1.468.429 1.842-.762 3.773-1.791 5.14-1.317 1.748-1.63 3.827-.823 5.865.107.267.256.719.622.782 1.883.433 7.735-4.34 9.068-5.261 1.577 2.022 2.493 1.722 1.691 3.987"/><path fill="#fff" d="M233.365 232.71c1.644 1.749 1.808 2.542-.249 4.17-4.956.2-2.41-1.361.249-4.17"/><path fill="#cacbce" d="M218.569 219.884c1.641 2.745-.338 3.43-2.367 5.731-2.37-1.585 1.111-4.343 2.367-5.731"/><path fill="#202431" d="M292.957 266.074c6.108.001 16.612-1.338 19.469 5.697 2.755 6.785-5.234 6.762 1.536 12.254 1.868 1.516-.117 7.51-.821 9.694-8.127 4.306-10.156 2.806-20.256 2.821-.002-9.962-.214-20.552.072-30.466"/><path fill="#fff" d="M297.988 283.858c8.103.043 12.199-1.834 10.169 7.31-10.446 1.027-9.966 1.891-10.169-7.31m.971-12.005a4.708 4.708 0 1 1 7 6.298 4.708 4.708 0 0 1-7-6.298"/><path fill="#626c76" d="m260.413 197.738.076.085c.109-.09 1.231-1.585 1.539-2.302 1.4-3.26 5.59-7.605 7.858-2.519.472 1.059-2.709 4.254-2.392 5.732 1.626 1.855 20.883-1.705 24.019 1.31.303.291.612 1.184.129 1.553-8.98 1.417-18.262 1.585-27.387 2.468-.638 1.106-24.079 42.366-6.413 27.921.469 2.107.239 1.859 1.783 3.347l.921.849c2.321 2.236 5.077 3.582 7.998 4.857-2.39-.17-6.196.074-8.013-2.056-.123-.076-1.791-2.621-2.524-2.366-2.555.887-4.99 4.857-8.481 3.405-5.842-2.431-1.886-14.405-.427-18.566.802-2.265-.114-1.965-1.691-3.987 6.623-3.904 5.779-5.584 9.47-12.827-23.203.164-7.569-4.135 3.535-6.904"/><path fill="#202431" d="M178.939 265.185c7.326.005 25.7-.746 19.667 14.497-1.438 3.634-6.813 4.673-10.313 5.531-7.591-1.062-2.862 6.051-4.467 8.289-7.711 10.75-4.997-25.135-4.887-28.317"/><path fill="#fff" d="M184.093 269.573c6.107.775 11.775.527 10.234 8.032l-.267 1.435c-11.329 2.112-10.077 1.427-9.967-9.467"/><path fill="#202431" d="M244.51 266.335c3.379.502 5.014-.264 6.211 3.168 2.958 8.482 7.148 16.853 9.88 25.275.028.413-.776 1.021-.991 1.116-4.334 1.919-5.281-4.173-6.932-6.849-3.516.029-8.78-.226-12.042.404-1.797 1.394-1.723 6.613-5.143 6.185-4.449-.558-1.891-4.407-.572-7.151 3.515-7.309 6.698-14.544 9.589-22.148"/><path fill="#fff" d="M246.516 274.803c3.024 3.109 4.838 7.741 1.55 11.223-7.87-2.245-5.265-2.824-1.55-11.223"/><path fill="#202431" d="M261.609 266.459c8.279.397 7.643 4.504 12.239 11.96 1.072-1.637 8.616-16.769 12.656-10.936-.012.847-6.288 10.37-7.308 12.032l-.716 1.264c-3.407 2.766.015 14.031-2.917 15.091-6.627 2.396-2.582-7.317-4.012-10.686-2.773-6.532-6.791-12.218-9.942-18.725m77.007-1.232c.265.087 3.824 1.114 3.877 1.421 1.2 6.888.588 17.852.611 24.727 8.161-.021 11.57-2.684 12.906 4.61q-8.93.202-17.861.258c.002-7.682-.509-24.052.467-31.016m-129.879.025c6.336 2.352 4.438 2.309 4.696 9.866.18 5.295.007 10.754.045 16.06 6.848.008 12.725-2.59 13.46 4.33q-9.265.362-18.537.329c.067-8.557-.349-22.713.336-30.585m156.641-.071c6.031 2.513 3.513 3.505 3.898 10.698.278 5.19.015 10.726.088 15.973 6.375-.047 13.692-2.933 13.328 4.155q-9.221.02-18.438.292c.484-8.758-.312-23.921 1.124-31.118m-41.861.027c.331.108 3.957 1.085 3.991 1.651.523 8.795.955 22.314-.025 30.9-.198-.064-4.004-1.059-4.055-1.501-.916-7.982-1.126-23.498.089-31.05"/><path fill="#626c76" d="M174.708 189.401c.915 2.358.741 3.556 1.146 5.982l-.863.608c-1.048.75-2.518 1.885-3.72 2.37-12.536 5.061 1.601-7.075 3.437-8.96m176.142 16.984c4.537 1.753 3.315 2.704 3.052 7.588-4.419-2.809-4.32-2.423-3.052-7.588"/><path fill="#69767f" d="M798.431 774.84c28.675-10.983 47.794-26.904 81.85-12.997 20.119 8.216 38.143 34.914 45.354 54.701 11.553 31.706 4.23 67.39-9.871 97.101-3.522 7.42-6.269 11.612-12.324 17.386-8.368 8.653-25.19 9.888-34.052 16.18-14.937 10.606-18.821 21.672-37.878 28.838-42.636 16.033-98.739-22.833-112.588-62.376-8.758-25.005-8.723-59.533 4.219-83.195 11.619-22.75 23.897-29.653 46.452-39.615 6.356-2.807 13.221-6.307 18.295-11.031 3.791 5.821 6.021 12.762 10.445 17.822.944 1.08 4.888-.373 5.427-2.39 1.809-6.763-3.253-13.948-5.329-20.424"/><path fill="#202431" d="M748.926 884.241c.692.182 4.488.91 4.575 1.873 1.188 13.89-.13 25.593 6.955 38.446 7.448 13.513 15.47 20.966 29.677 26.915 8.131 3.404 9.364 2.423 5.595 9.318a118 118 0 0 1-14.178-5.364c-5.959-2.764-12.536-7.152-17.152-11.827-12.514-12.674-23.74-42.42-15.472-59.361m86.166-111.905c32.592-2.642 53.578 23.895 59.184 53.174.932 4.869.265 7.13-4.614 7.915-8.535-29.699-17.773-51.529-54.17-54.385-10.481-.822-14.706-5.135-.4-6.704"/><path fill="#202431" d="M772.555 911.213c7.238 2.199 7.023 7.2 11.787 14.494a56.4 56.4 0 0 0 11.943 12.998c7.594 5.992 23.88 9.333 23.338 16.9-18.555 1.07-51.786-24.978-47.068-44.392m40.768-121.734c6.832 2.293 4.679 5.787 1.288 11.158-5.886 9.322-14.295 11.261-24.348 13.266l-.58-.233c-8.318-3.255-1.512-8.253 4.293-8.783 9.6-.875 13.72-7.726 18.728-14.576z"/><path fill="#69767f" d="M1306.43 794.494c13.77 1.487 27.3-1.249 41.12 1.9 10 1.902 21.57 12.569 25.99 21.807 29.29 61.196-7.01 121.588-63.25 150.273-17.2 8.774-33.12 12.771-52.31 9.09-6.89-1.321-13.17-5.014-20.02-6.541-6.91-2.341-16.04-3.283-22.75-5.725-43.69-15.914-52.59-79.755-39.16-118.192 8.75-25.048 27.17-51.396 50.43-63.356 22.63-11.633 47.42-3.45 69.46 4.117-.03 5.851-.85 14.46 2.72 19.48 1.09 1.524 4.21.427 4.76-1.294 1.16-3.625 2.19-7.821 3.01-11.559"/><path fill="#202431" d="M1220.49 804.851c15.33.025-3.02 10.362-4.16 11.504-20.39 20.445-17.89 51.46-20.63 77.603-2.91-.923-6.42-1.744-6.53-5.453-.88-28.484 2.64-70.207 31.32-83.654m14.44 123.416c10.32 3.786 7.33 20.872 21.56 10.716 17.25-12.314 3.31 25.941-18.86 4.162-1.41-2.069-5.21 2.487-8.11 3.979-7.76 3.993-24.22-10.65-13.22-15.595 3.28.471 2.96 6.538 6.61 8.51 7.72 4.172 6.33-4.915 10.83-10.225z"/><path fill="#202431" d="M1207.85 853.427c8.96 3.041 5.39 3.439 2.92 13.079-3.38 13.187-1.51 24.975-2.87 37.669-.92-.286-4.89-1.233-5.33-2.463-3.97-11.306-.73-37.908 5.28-48.285m69.27-46.478c13.22 4.618 22.09 6.005 36.37 2.793 2.92-.657 11.63-4.154 7.48 3.225-13.94 7.998-34.86 9.515-43.85-6.018"/><path fill="#69767f" d="M1067.13 556.701c27.89 8.143 20.09 11.305 6.41 22.415-8.73 7.082-14.48 29.065-15.68 40.731 10.3.809 20.54 2.228 30.67 4.25 49 10.149 59.53 43.642 50.25 89.876-5.17 25.727-24.81 48.181-47.15 61.215-14.13 8.242-40.81 20.197-58.23 17.45-11.11-3.325-22.31-1.216-33.948-2.433-44.722-4.675-57.333-66.117-52.875-102.605a80.14 80.14 0 0 1 30.026-53.948c21.989-17.199 42.707-18.486 69.467-15.342-.1-5.856-.28-8.739.82-14.612.77-18.928 5.59-34.445 20.24-46.997"/><path fill="#202431" d="M1067.13 556.701c27.89 8.143 20.09 11.305 6.41 22.415-8.73 7.082-14.48 29.065-15.68 40.731.28 5.354.2 10.72-.23 16.064-.66 2.405-.7 2.627-3.13 3.209-9.02-13.619-6.95-20.165-7.61-35.422.77-18.928 5.59-34.445 20.24-46.997"/><path fill="#202431" d="M1059.07 640.937c3.96-1.503 7-2.64 9.39-6.34 2.37-3.678 5.94 1.881 5.34 3.39-3.47 8.75-16.09 11.244-24.31 8.901-2.61-.744-6.15-4.001-2.05-4.898 2.29-.397 5.28-.326 7.84-.714 1.32-.141 2.46-.263 3.79-.339"/><path fill="#626c76" d="M1054.5 639.12c2.43-.582 2.47-.804 3.13-3.209.5 2.074.77 3.005 1.44 5.026-1.33.076-2.47.198-3.79.339z"/><path fill="#202431" d="m986.353 716.51 2.49.499c2.939.558 3.238 4.61 3.52 6.972.94 8.696 6.141 15.254 12.047 21.34 5.1 5.255 7.83 5.522 5.85 12.67-14.51-4.798-30.537-27.591-23.907-41.481m59.957 43.996c5.59 2.194 3.51 7.544.96 11.746-2.88 4.717-16.54-.768-17.75-.139-9.28 4.791-10.11 6.649-18.42-1.328-5.64-12.987 4.12-4.532 9.96-1.36 3.38-2.294 6.44-4.73 9.72-7.155 3.82 2.566 5.51 3.629 9.59 5.94 2.01-2.39 3.44-4.422 5.33-6.904zm-75.551-34.074c2.945 1.396 3.557 1.78 4.516 4.977l.509 1.593c4.382 13.959 11.13 19.029 21.898 27.453.517.405-1.635 3.921-1.962 4.581l-1.6-.502c-10.34-3.139-17.239-12.316-21.59-21.807-1.789-3.902-7.529-11.567-3.12-15.132z"/><path fill="#69767f" d="M1032.92 839.82c.83-15.743 7.05-28.363 15.42-41.315 5.83 2.418 11 4.654 16.65 7.536-2.79 4.321-6.6 7.823-9.44 12.107-6.97 10.51-11.03 22.806-13.01 35.193 10.8-.83 20.66-4.132 32-4.214 38.7-.282 58.69 38.588 57.43 72.866-1.15 35.177-23.49 61.447-46.59 85.597-16.36 17.11-40.03 12.54-62.05 12.15-41.073-.71-85.564-44.654-84.141-86.556.847-24.94 10.276-55.786 28.58-74.012 11.703-11.263 49.481-6.475 64.171-5.366-.01-5.664-.12-8.299.98-13.986"/><path fill="#202431" d="M1032.92 839.82c.83-15.743 7.05-28.363 15.42-41.315 5.83 2.418 11 4.654 16.65 7.536-2.79 4.321-6.6 7.823-9.44 12.107-6.97 10.51-11.03 22.806-13.01 35.193-.66 4.79-.6 9.452-.82 14.301-2.54.171-2.68.207-5.04.778-5.52-6.919-3.4-19.395-3.76-28.6"/><path fill="#202431" d="M1046.51 868.265c.72-.254 4.42-1.245 5.38-1.654 3.37-1.437 16.7-5.962 9.35 2.976-4.94 5.99-16.42 8.482-23.74 8.492-8.29 1.213-27.06-13.787-12.57-11.719 2.06.294 8.7 2.371 10.97 2.925l.78-.865c2.36-.571 2.5-.607 5.04-.778z"/><path fill="#4e5660" d="M1036.68 868.42c2.36-.571 2.5-.607 5.04-.778l4.79.623c-4.94 1.06-6.02 2.498-10.61 1.02z"/><path fill="#202431" d="M965.711 889.339c.704.336 3.943 1.821 4.081 2.787-.357 5.998-4.539 12.252-5.72 18.893-2.368 13.321-2.151 26.25.829 39.493 1.755 7.799 3.683 8.172.178 15.256-6.427-2.269-6.691-8.502-7.991-14.783-3.635-17.578-3.339-42.455 6.394-58.095zm3.798 42.868c9.748 2.835 5.745 17.097 11.793 25.672 2.426 3.439 7.392 11.923 6.149 16.034l-.415 1.429c-3.885-.846-3.653-1.459-6.235-4.692-9.056-11.34-13.627-23.689-11.292-38.443"/><path fill="#69767f" d="M1425.31 964.803q5.79.943 11.55 2.041c5.81 1.11 11.55 2.307 17.14 4.132 23.36 7.058 51.28 26.075 54.14 52.644 5.65 57.71-65.63 66.33-107.4 76.21-24.33 5.75-62.81 18.85-88.75 18.41-8.06-.14-11.75-23.45-13.35-30.35-5.64-24.34-3.91-48.58 3.16-72.55 5.93-20.754 19.51-41.447 38.86-51.991 26.02-13.66 49.53-7.018 75.87.922-1.58 7.673-3.15 13.339-.07 21.055l.39.998c.82-.137 1.53.164 2.38.372 4.02-7.151 3.55-13.89 6.08-21.893"/><path fill="#202431" d="M1422.37 988.812c1.76-.477 9.68-3.417 9.67-.882-.07 11.16-23.59 7.627-29.04 3.043-3.09-2.598-10.11-6.75-7.89-10.139 2.08-1.058 15.56 6.459 20.49 7.951 2.28.04 4.51-.004 6.77.027"/><path fill="#626c76" d="M1416.85 986.324c.82-.137 1.53.164 2.38.372.41 1.741 1.46 1.533 3.14 2.116-2.26-.031-4.49.013-6.77-.027z"/><path fill="#202431" d="M1334.11 1005.5c8.05 3.66 2.7 7.59-1.26 12.93-13.2 17.71-16.83 38.41-13.53 60.02.57 3.76 2.95 6.89.62 9.82l-.72.93c-7.41-1.64-7.33-8.4-8.17-15.7-3.12-27.13 5.57-47.66 23.06-68"/><path fill="#202431" d="M1344.1 1022.46c6.78 2.84 1.19 8.23-1.36 13.02-7.31 13.74-9.26 27.18-6.92 42.53.64 4.21 2.62 8.26-.66 11.09l-1.35 1.21c-4.13-3.9-4.88-5.28-5.77-11.3-3.08-20.76 1.39-41.11 16.06-56.55"/><path fill="#69767f" d="M1057.61 1140.61c-22.74-39.38-13.03-91.54 24.53-118.99 27.54-20.13 61.95-11.74 92.9-6.18.99 5.3 1.32 8.35 3.52 13.34 1.74-.44 3.47-.91 5.19-1.42.65-3.29 1.12-7.69 2.28-10.7.84.05 1.68.13 2.51.22 28.24 3.23 55.34 5.67 73.78 29.73 16.48 21.51 20.47 51.07 17.41 77.26-22.51-.28-44.59 4.19-66.91 6.95-47.67 5.89-107.84 14.68-155.21 9.79"/><path fill="#202431" d="M1184.03 1030.5c1.9-.09 20.19-2.61 16.08 2.94-5.36 7.24-28.34 6.32-35.32 1.9-7.93-5.01-10.36-11.03.52-6.79 3.09 1.2 9.33 1.67 13.14 1.99l.11-1.76c1.74-.44 3.47-.91 5.19-1.42z"/><path fill="#626c76" d="m1183.75 1027.36.28 3.14c-1.86.04-3.72.05-5.58.04l.11-1.76c1.74-.44 3.47-.91 5.19-1.42"/><path fill="#202431" d="M1108.02 1085.38c5.31 1.88 6.22 11.44 7.4 16.99 3.73 17.43 29.4 10.9 20.68 25.12-16.41-3.26-39.4-23.88-28.08-42.11m-18.88-1.23c12.76 3.27.07 17.64 13.27 27.15 4.13 2.97 7.35 7.59 5.09 12.93-15.46-3.83-24.98-24.33-19-38.54z"/><path fill="#69767f" d="M902.7 1008c2.016 3.03 7.65 27.76 13.145 19.46.466-.7-1.347-14.23-1.534-16.57 22.623.8 40.462-5.93 62.211 3.76 16.582 7.38 29.748 21.97 36.028 38.96 7.28 19.73 7.29 53.45-1.41 72.95-1.89 4.22-8.28 13.93-12.999 14.94-4.85 1.03-13.863 1.26-19.61.7-28.221-2.72-41.74-4.66-71.267-8.37-33.927-4.27-80.561-5.55-113.343-16.82-1.649-.56-3.937-7.44-4.218-9.58-2.992-22.81 1.281-46 14.501-64.92 15.703-23.02 40.902-33.57 68.203-33.99 7.641-.11 23.365 1 30.293-.52"/><path fill="#202431" d="M957.034 1019.9c24.627 2.91 43.616 31.33 39.225 54.67-8.922-1.64-4.918-2.4-7.068-12.08-3.016-13.57-9.906-24.41-22.193-31.3-7.039-3.94-10.844-3.62-9.964-11.29m-106.019 61.46c5.125 2.98 6.128 14.81 8.25 20.6 4.5 12.28 22.451 8.7 17.646 18.34l-.656 1.36c-18.704-3-35.957-23.49-25.24-40.3"/><path fill="#202431" d="M949.841 1032.86c19.052.13 35.429 18.87 30.139 36.68l-.42 1.51c-10.05-.27-3.277-18.88-15.11-26-8.147-4.91-14.301-3.16-14.609-12.19m-117.576 34.4c5.83 2.65 5.033 2.73 4.263 8.99-1.36 11.07.544 23.64 5.998 33.47 1.274 2.3-.281 4.14-1.497 5.94-12.974-6.29-15.881-36.08-9.537-47.03zm51.703-37.44c13.695 1.96 22.343 6.44 37.04 3.38 6.527-1.36 18.014-7.49 14.775 2.64-15.555 6.51-41.273 10.9-51.815-6.02"/><path fill="#69767f" d="M655.375 961.827c26.071-5.487 54.696-14.392 78.809 1.931 35.347 23.927 43.667 75.702 30.973 114.222-5.334 16.18-8.531 27.73-25.898 34.06l-1.084.41-.044.65c-1.829-.26-7.472-1.23-9.133-1.26a51 51 0 0 1-8.98-.98c-2.072-.42-4.143-.83-6.214-1.24l.129-2.14c-30.435-6.5-104.271-28.78-126.507-47.52-9.673-8.16-17.176-19.22-18.049-32.15-.918-13.6 5.957-26.58 14.597-36.639 16.414-19.107 39.115-26.539 63.571-28.483.794 2.788 2.265 12.914 5.394 12.325 6.853-1.289 3.024-9.02 2.436-13.186"/><path fill="#9fa5aa" d="M713.933 1107.48c7.546.46 17.65 4.99 24.242 4.97l-.044.65c-1.829-.26-7.472-1.23-9.133-1.26a51 51 0 0 1-8.98-.98c-2.072-.42-4.143-.83-6.214-1.24z"/><path fill="#202431" d="M713.081 975.554c7.855.504 11.086 2.729 15.623 9.714 16.909 26.032 21.879 52.052 12.174 81.582-8.537 2.75-4.487-8.97-3.885-12.85 3.818-24.64-3.603-55.727-23.025-72.53-1.604-1.388-1.001-4.129-.887-5.916"/><path fill="#202431" d="M686.172 978.375c7.473-.714 11.752-.649 18.308 3.641 8.863 5.8 23.179 26.604 15.847 36.724-4.48-1.24-4.605-1.29-5.973-5.86-3.642-12.05-9.004-23.198-22.07-26.729-3.096-.836-11.814-4.007-6.112-7.776m-17.75-2.351c12.337-2.364 1.666 13.696-25.81 10.761-1.129-.613-11.793-6.743-3.593-6.179 11.302.778 18.937-1.507 29.403-4.582"/><path fill="#a61620" d="M1112.43 812.979c-6.17-4.701-12.84-10.025-12.77-18.478.11-13.622 13.22-30.448 27.85-29.559 7.37.449 11.03-6.349 19-7.175 5.62-.581 9.61.716 14.52 3.745 5.58 3.557 5.57 14.703 6.67 20.609-.95.341-1.85.614-2.81.915l-1.61.09q-1.545.564-3.12 1.091c6 10.394 5.5 14.117 2.1 25.033-2.95 2.843-5.79 5.396-9.39 7.448-6.31 3.604-9.34 10.405-14.82 2.287l-.71-3.142c-1.18.447-2.36.92-3.52 1.418-1.51.805-3.04 1.589-4.58 2.351-10.26-1.496-10.89.216-19.91-5.778z"/><path fill="#a61620" d="M1112.43 812.979c-6.17-4.701-12.84-10.025-12.77-18.478.11-13.622 13.22-30.448 27.85-29.559 7.37.449 11.03-6.349 19-7.175 5.62-.581 9.61.716 14.52 3.745 5.58 3.557 5.57 14.703 6.67 20.609-.95.341-1.85.614-2.81.915l-1.61.09c-6.83-4.118-9.67-7.685-18.28-7.84-20-.36-31.48 4.122-33 25.713-.3 4.188.68 8.01.43 11.98"/><path fill="#a61620" d="M1150.25 779.062c5.08 1.817 5.53 2.43 9.91 5.155 6 10.394 5.5 14.117 2.1 25.033-2.95 2.843-5.79 5.396-9.39 7.448-6.31 3.604-9.34 10.405-14.82 2.287 11.67-8.759 16.7-20.453 9.69-33.866 1.7-2.508 1.69-3.096 2.51-6.057"/><path fill="#f5f1f4" d="M1112.43 812.979c.25-3.97-.73-7.792-.43-11.98 1.52-21.591 13-26.073 33-25.713 8.61.155 11.45 3.722 18.28 7.84q-1.545.564-3.12 1.091c-4.38-2.725-4.83-3.338-9.91-5.155-.82 2.961-.81 3.549-2.51 6.057 7.01 13.413 1.98 25.107-9.69 33.866l-.71-3.142c15.13-12.818 14.45-33.187-6.85-35.808-13.35-1.643-20.6 26.325-12.14 34.383 2.24 2.14 12.39 2.634 15.47 2.843-1.51.805-3.04 1.589-4.58 2.351-10.26-1.496-10.89.216-19.91-5.778z"/><path fill="#a61620" d="M1134.04 777.141c4.89.459 12.16 1.634 16.21 1.921-.82 2.961-.81 3.549-2.51 6.057-5.51-5.131-6.96-4.451-13.7-7.978"/><path fill="#f5f1f4" d="M1135.5 788.224c7.77 4.411 6.72 12.275.49 14.719-9.5 3.734-13.71-13.996-1.53-15.758z"/><path fill="#a61620" d="m1134.46 787.185 1.04 1.039c1.94 8.631 1.94 17.329-5.04 7.108-.68-.991 2.56-4.515 3.26-6.255z"/><path fill="#202431" d="m1340.55 718.177 1.4.973c5.93 4.01 12.01 9.655 17.12 14.655-5.29 2.633-11.19 4.951-16.08 8.336-10.21 7.062-19.3 17.603-26.68 27.482-5.18 6.936-7.16 16.782-9.88 24.871-.82 3.738-1.85 7.934-3.01 11.559-.55 1.721-3.67 2.818-4.76 1.294-3.57-5.02-2.75-13.629-2.72-19.48 5.86-26.047 16.15-57.15 42.9-68.919zm-552.662 61.655c-8.775-14.315-25.652-24.074-41.395-28.79-8.191-2.454-10.305.718-12.662-8.53-2.233-8.762 2.636-16.214 11.184-18.307 4.991-1.222 15.716 7.173 19.516 9.843 16.329 11.889 25.627 22.162 33.9 40.792 2.076 6.476 7.138 13.661 5.329 20.424-.539 2.017-4.483 3.47-5.427 2.39-4.424-5.06-6.654-12.001-10.445-17.822m628.642 184.439c2.73-10.746 5.95-20.595 10.18-30.865 6.22-15.059 14.28-28.358 28.55-37.085 8.13-4.976 10.77-1.226 17.48 4.254 1.41 1.145 6.85 5.957 4.59 8.707-3.35 2.974-9.16 4.799-12.93 7.481-18.57 11.374-30.73 25.112-38.05 45.671-.34.79-.69 1.58-1.04 2.369-2.53 8.003-2.06 14.742-6.08 21.893-.85-.208-1.56-.509-2.38-.372l-.39-.998c-3.08-7.716-1.51-13.382.07-21.055M902.7 1008c-6.47-13.438-12.802-23.156-24.297-32.822-5.198-4.371-23.236-10.482-8.831-13.881 7.582-1.789 15.693-5.753 23.023-8.679 9.21 14.682 14.938 31.188 19.196 47.902l2.173 8.88.347 1.49c.187 2.34 2 15.87 1.534 16.57-5.495 8.3-11.129-16.43-13.145-19.46m237.17-46.779c6.27-7.294 12.05-14.926 21.61-6.2 16.68 15.221 26.42 39.054 24.55 61.639-1.16 3.01-1.63 7.41-2.28 10.7-1.72.51-3.45.98-5.19 1.42-2.2-4.99-2.53-8.04-3.52-13.34-3.18-18.383-9.37-29.747-22.49-43.588-3.46-3.649-7.98-6.136-11.98-9.973z"/><path fill="#a61620" d="m1168.13 784.516 2.53.482c11.46 2.618 12.63 20.72 10.23 29.492-3.47 12.672-9.78 22.81-20.51 30.179-4.02 2.84-17.33 8.313-23.15 3.217-.97-.846 2.12-3.891 2.18-4.143 5.23-6.51 7.61-14.028 10.76-21.551 8.67-5.408 14.92-7.03 17.45-17.78 2.05-8.686-.78-10.914-1.14-17.741.78-.914 1.03-1.183 1.65-2.155"/><path fill="#202431" d="M610.939 898.558c23.678 10.724 36.587 40.16 44.436 63.269.588 4.166 4.417 11.897-2.436 13.186-3.129.589-4.6-9.537-5.394-12.325-14.084-29.394-20.307-33.701-47.123-50.234 3.865-6.395 5.421-8.403 10.517-13.896"/><path fill="#a61620" d="M1144.29 828.218c-4.95 10.162-11.5 21.618-25.55 16.169-9.42-3.657-17.83-17.55-25.09-24.817-1.28-1.273 1.89-11.154 5.17-11.041 3.67-.337 7.05 3.332 10.51 5.305 9.02 5.994 9.65 4.282 19.91 5.778 5.54 2.701 9.21 5.762 15.05 8.606"/><path fill="#69767f" d="M1003.47 62.049c4.59-.056 9.17-.075 13.75-.056-.46 13.383-1.52 33.66-3.47 46.64-.55 2.25-.5 2.282-.61 4.692-.07 3.305.52 13.715-4.13 14.327-2.53.334-3.45-11.646-4.1-14.068-1.43-1.683.18-1.63-.29-4.869.99-4.512-.94-39.095-1.15-46.666"/><path fill="#fff" d="M1167.7 782.121c-.18 1.221-.08 1.129.43 2.395-.62.972-.87 1.241-1.65 2.155-.67-1.919-.62-2.137-1.59-3.635.96-.301 1.86-.574 2.81-.915"/><metadata><recraft-signature>{&quot;signed_by&quot;: &quot;recraft&quot;, &quot;signature_b64&quot;: &quot;f1wxjoPH3FFQMUSY6F3lzXJbjjZSmmN5pyVzq6jtZHjTaz6W0t4LAvwVRS/fiGuLlu2V6hj3gOHAay530aryDQ==&quot;, &quot;signing_algo&quot;: &quot;Ed25519&quot;, &quot;generation_timestamp&quot;: 1777254331, &quot;identifier&quot;: &quot;c163a172-d673-4a3d-8f6a-b3c0cf7f4925&quot;}</recraft-signature></metadata></svg>