<svg xmlns="http://www.w3.org/2000/svg" width="1024" height="1024" preserveAspectRatio="none" style="display:block" viewBox="0 0 2048 2048"><defs><linearGradient id="b" x1="1117.16" x2="1108.3" y1="822.123" y2="852.722" gradientUnits="userSpaceOnUse"><stop class="stop0" offset="0"/><stop class="stop1" offset="1" stop-color="#1d1009"/></linearGradient><linearGradient id="a" x1="1064.81" x2="1058.83" y1="819.699" y2="849.025" gradientUnits="userSpaceOnUse"><stop class="stop0" offset="0" stop-color="#020000"/><stop class="stop1" offset="1" stop-color="#20130d"/></linearGradient></defs><path fill="#130e0c" d="M1009.56 101.447c10.4-.543 21.98-.275 32.39.095 145.6 5.182 297.95 71.997 371.12 203.715a300 300 0 0 1 37.84 149.319c-.56 36.437-7.59 66.036-15.67 101.355a1984 1984 0 0 1-29.93 114.317c-34.69 119.537-75.69 235.215-109.82 355.272 5.42-6.63 10.83-13.15 16.95-19.38 53.08-54.006 150.01-84.928 220.72-49.011 24.53 12.459 46.79 38.606 54.62 65.131a95.25 95.25 0 0 1-8.23 73.39 89.5 89.5 0 0 1-53.68 42.61c-45.56 12.58-87.15-13.41-99.45-58.35-35.85 36-39.26 105.79-38.28 153.86 1.39 11.02-1.75 34.12.9 44.26 6.92 26.48 11.42 34.64 9.7 63.27-5.7 94.95-54.4 189.75-124.92 252.75l214.79.01c-26.86-29.41-21.47-62.62-21.45-100.55-10.11-4.07-18.73-12.39-14.19-25.03 2.44-6.77 9.96-8.69 16.38-10.76-3.34-4.77-3.79-6.91-4.25-12.77l-.09-1.19c-8.04-4.36-17.01-9.07-15.51-19.7l.5-3.63c1.68-12.25-22.73-7.46-8.77-37.94-12.93-11.52-17.04-23.68-4.59-37.72a62 62 0 0 1-2.82-5.75c-8.55-19.5 1.99-18.53 10.09-33.49 1.1-2.03-2.37-11.83.24-16.38 5.19-9.01 8.16-8.66 16.02-11.45 8.82-13.21 1.72-12.37 20.02-18.11 5.15-11.83 9.96-14.11 21.85-16.78l11 3.1c10.32-14.09 22.62-16.18 36.04-5.01 7.04-3.4 9.09-4.3 16.66-6.18 12.77 2.76 14.94 4.55 23.13 14.09 26.95 1.9 6.51 15.16 27.4 18.51 6.11.98 7.86 10.88 10.53 14.83.98 1.46 5.35 3.4 6.95 4.39 15.82 6.78 5.98 26.36 7.95 29.46 6.09 9.61 7.3 4.08 11.7 19.89-1.99 9.7-4.13 11.96-7.36 19.4-.64 1.48 7.1 8.51 4.94 17.92-2.22 9.66-8.39 9.69-10.66 18.61-.47 1.84 2.44 7.47 2.32 10.53-.29 7.3-6.6 12.38-11.68 16.9 1.83 7.32.73 10.39-2.59 17.4-1.96 4.14-5.93 3.98-10.66 5.5-3.82 4.2-2.03 3.89-2.65 9.47.05-.47-3.38 5.05-3.85 6.05 1.48.32 2.95.65 4.42 1.02 22.06 5.54 15.45 26.89-1.48 35.58-.97 38.63 6.54 73.84-24.39 103.52a77.1 77.1 0 0 1-37.08 19.57c-24.06 5.18-94.86 4.1-122.5 3.91-61.48-.42-124.97.74-186.37-.41-10.72 6.16-23.3 17.02-35.53 24.54 43.01 9.08 76.47 25.24 107.28 56.59 15.67-22.33 50.25-54.72 81.61-55.11 9.17-.11-2.8 50.91-4.72 57.64 12.57-6.56 66.08-28.15 76.46-19.37 1.49 10.44-15.77 46.84-20.83 57.3 3.86-.49 7.73-.94 11.6-1.36 56.55-6.31 116.15-8.76 161.7 31.49 29.96 26.47 39.74 55.88 43.9 94.11 13.36-.13 24.63 5.17 24.25 20.75-.32 12.94-8.5 20.56-17.51 28.72l87.2-.22c-29.12-32.06-29.5-58.64-29.77-98.92l-.48-54.07c-17.07-6.23-27.19-21.36-16.82-38.2 6.73-10.93 17.6-8.7 25.71-11.27-3.53-7.34-5.47-8.95-4.26-15.91-1.14-2.35-10.9-5.15-14.11-7-11.53-2.93-8.79-25.31-10.96-26.78-11.92-8.06-22.58-14.99-10.32-35-18.04-11.88-22.98-28.72-11.66-47.62-17.99-20.11-17.08-39.5 6.46-54.1-13.15-24.12-4.39-37.18 18.07-48.69-4-25.82 10.36-34.35 33.38-37.4 4.83-22.54 14.09-28.76 36.67-25.66 14.66-25.25 36.96-28.45 59.18-10.11 18.15-19.58 40.53-10.06 53.6 9.6 21.46-8.28 35.68 4.85 40.33 25.13 22.72 5.4 35.68 12.35 33.23 38.32 21.86 9.77 32.85 25.9 18.19 48.21 22.14 15.55 26.69 33.95 7 54.16 1.8 3.36 3.76 6.88 4.87 10.53 8.25 26.86-16.12 30.11-16.45 38.03-.2 4.98 3.64 10.76 3.42 16.24-.48 11.91-11.27 12.52-15.06 21.57-2.43 5.78.04 12.87-3.26 18.25-4.09 6.68-14.09 9.01-21.14 10.85.99 9-.14 9.41-3.88 18.04 20.02-1.15 35.15 13.71 26.52 34.24-3.79 9.03-11.66 12.05-20.42 14.78l.5 64.2c.2 36.82-6.05 64.6-32.58 91.73-37.2 38.03-88.12 34.53-136.96 34.62l-97.62-.13-262.6-.06-945.5.37-157.859-.1c-36.767-.04-98.152 2.08-131.669-6.44a107.1 107.1 0 0 1-48.382-27.76c-32.169-31.89-33.612-62.68-33.587-104.11l-.04-52.33c-20.116-7.71-30.02-26.6-11.962-43.72 4.641-4.4 14.978-3.46 19.267-6.74-3.548-6.76-2.926-8.48-2.876-16.08-16.858-5.35-24.66-12.17-23.356-31.02-12.133-7.21-13.666-9.92-16.363-23.1 1.907-6.73 2.424-7.82 5.764-13.83-21.203-11.28-23.663-28.18-12.763-48.05-17.838-18.93-15.542-40.01 6.631-53.69-12.994-20.62-5.226-40.25 17.676-47.71-2.785-27.97 9.833-34.44 33.798-38.81-2.096-21.26 17.919-32.72 38.018-26.73 3.931 1.18 25.722-39.08 55.924-7.92 20.299-15.78 45.409-16.53 57.093 9.47 21.887-2.05 32.275 3.2 37.251 25.05 22.763 4.26 37.539 11.48 34.231 37.1 2.801 6.72 41.675 16.62 17.564 48.89 21.016 14.83 29.169 34.15 8.378 54.07 11.163 21.47 5.228 34.25-12.833 48 1.128 1.67 3.086 4.97 3.58 6.71 6.466 22.81-6.606 17.81-14.304 32.46-1.464 2.79.598 12.43-2.121 16.67-4.607 7.19-14.821 9.97-22.367 12.17.604 13.69-1.7 8.04-3.692 17.63 11.941 2.24 23.009 3.53 27.343 16.77 5.679 17.35-7.111 27.62-21.111 32.56q.372 26.61.367 53.22c.089 42.03-1.535 65.96-30.588 99.65l627.296-.22c12.11-26.14 30.566-46.35 56.649-59.16a124.4 124.4 0 0 1 94.233-6.01c34.23 11.93 55.82 33.18 71.41 65.29 37.33-.07 77.91-.86 114.9.74 3.78-4.52 6.08-5.92 10.75-9.39a185 185 0 0 1-7.97-4.28c-14.71-8.41-19.19-20.14-23.28-35.33 19.9-33.77 18.37-50.81 49.89-81.52-23.08.71-48.24-.05-71.58-.14l-127.08-.21-395.253.18c.945-21.28 12.714-47.67 24.841-64.91 32.542-46.27 78.51-68.07 132.594-77.96-43.026-25.3-24.156-22.07-77.142-21.92l-163.78-.17c-28.908-.07-85.146 1.38-111.31-4.76a78.6 78.6 0 0 1-37.708-20.99c-27.215-27.46-21.598-65.09-21.7-101.93-8.072-2.74-19.675-11.97-15.446-21.65 3.588-8.2 10.504-11.29 18.227-14.47-.722-1.62-5.629-14.53-4.385-13.69-12.628-8.62-15.09-8.52-14.785-24.54-4.156-5.1-9.239-6.52-10.524-13.81-.952-5.4 3.716-15.42.429-18.82-10.537-10.9-12.831-15.51-4.136-31.28-13.883-20.03-8.08-22.84 3.303-39.17.389-.56-4.61-15.13-1.033-21.17 4.365-7.37 7.806-6.68 14.263-11.9 7.407-8.19 1.797-10.8 15.168-16.86 2.641-6.79 4.207-10.16 9.436-16.04 3.028-4.94 18.229-.63 21.267-2.97 13.66-10.53 22.36-20.87 39.705-3.91 17.426-13.12 27.941-11.42 41.983 4.66 12.042-.19 18.005 2.34 21.909 14.06 4.946 2.73 11.227 4.96 12.958 10.08 3.136 9.28 9.955 6.68 15.976 13.07 5.55 5.89 2.488 13.1 2.327 20.22.879 2.91 8.15 9.62 10.275 11.26 7.694 5.92-1.025 25.1-1.028 25.09 6.707 19.02 13.237 22.18-4.422 39.44 3.727 5.6 9.338 17.39 3.958 21.92-13.25 11.17-8.4 13.53-9.832 28.09-.588 5.98-11.268 10.29-17.037 13.28-1.293 4.68-2.851 8.5-2.209 13.22 12.537 4.59 21.124 9.54 14.77 25.65-2.53 6.42-8.12 8.48-14.444 10.48-2.891 44.52 7.662 63.55-21.185 100.41l219.96-.2c-70.986-59.26-120.472-161.78-125.114-254.02-1.581-31.42 3.974-39.36 12.224-67.8 1.406-4.85.267-37.92.152-45.4-.415-26.96 1.377-56.96-1.296-83.54-.88-9.23-2.812-18.33-5.76-27.12-6.7-19.34-16.536-30.67-34.776-39.64-14.743 68.1-92.516 85.12-140.292 38.11-38.954-38.33-32.633-101.97 5.599-138.265 25.281-23.998 59.051-35.649 93.78-34.551 68.775 1.524 123.747 29.458 171.172 78.516a5768 5768 0 0 0-59.623-190.029c-26.577-80.923-53.876-161.682-73.629-244.566-9.291-40.026-20.737-79.575-22.728-120.795-5.648-116.912 58.32-220.831 153.936-283.748 79.388-52.239 161.463-74.75 255.195-79.635"/><path fill="#78859c" d="M922.733 801.423c75.12 3.356 150.217 9.916 225.397 12.56 19.66.691 39.54 1.319 59.1 3.279-10.46 52.36-24.61 105.128-36.66 157.28-14.16 61.348-27.09 123.168-43.04 184.028-.5 3.22-.47 3.37-1.71 6.35-3.87 1.97-37.18-.76-44.18-1.15l-231.088-14.78c5.791-22.06 11.384-55.98 16.051-79l34.493-165.95c6.157-29.964 14.044-74.298 21.637-102.617"/><path fill="#130e0c" d="M879.479 1095.02c19.827.27 31.16 1.26 42.489 18.47.019 5.59-.069 29.1-7.175 30.35-14.362-1.49-29.594-1.78-44.216-3.41 2.168-15.15 6.198-30.32 8.902-45.41"/><path fill="#e19656" d="m883.535 1100.93 3.339.2c11.64.76 31.747 3.06 29.515 22.35-.42 3.64-.707 13.14-4.636 14.18-11.568-.79-23.254-1.15-35.099-1.94 2.473-11.15 5.146-23.52 6.881-34.79"/><path fill="#130e0c" d="M937.441 814.831c17.633.442 32.215 1.313 49.709 2.165-1.133 4.816-2.108 9.722-3.34 14.5l-.42 1.575c-2.276 8.704-3.284 11.139-10.411 16.8l-2.988 2.371c-14.655 10.24-23.067 6.718-41.496 5.579.429-1.914.97-3.94 1.354-5.833l.955-4.501 1.021-4.503 1.998-8.999c1.339-6.241 2.792-12.852 3.618-19.154"/><path fill="#e19656" d="M942.418 820.168c12.619.558 24.926.791 37.497 1.832-3.082 13.056-1.682 16.914-12.414 25.603-14.82 7.499-15.757 5.764-32.625 5.413a412 412 0 0 0 2.825-11.551l2.017-8.978c.577-2.67 1.059-5.715 1.703-8.318z"/><path fill="#130e0c" d="M1095.46 1113.14c10.02-.79 20.37-.11 30.32 1.17-3.08 14.06-6.38 26.43-8.44 40.85-5.86-.03-11.73-.17-17.59-.43-11.01-1.02-21.74-.81-32.65-1.94 2.62-20.79 7.04-32.7 28.36-39.65"/><path fill="#e19656" d="M1098.71 1118.13c8.29-.77 12.41-.46 20.76-.04-1.25 4.1-2.33 8.24-3.25 12.42-1.37 6.38-2.66 12.78-3.86 19.19-6.26-.59-12.31-.67-18.59-.83l-20.73-1.4.54-2.04c4.04-16.14 8.9-22.41 25.13-27.3"/><path fill="#130e0c" d="M1144.8 825.867c14.26.24 33.46 1.472 47.87 2.712-.94 5.194-2.18 10.297-3.37 15.435l-1.05 4.503q-1.74 8.15-3.72 16.248c-1.58 4.005-12.37 1.324-16.53 1.194-16.93-.529-21.18-4.645-27.52-19.706 1.17-7.03 2.42-13.528 4.32-20.386"/><path fill="#e19656" d="M1149.56 831.093c12.01.902 24.48 1.587 36.32 2.549l-.11.531c-.14.61-.27 1.22-.41 1.831l-1.08 5.009c-1.39 6.209-2.74 12.432-4.02 18.666-1.72 3.7-18.03.523-21.84.018-14.24-10.964-13.13-12.568-8.86-28.604"/><path fill="#130e0c" d="M889.451 1046.83c10.411 1.28 21.344 1.97 31.535 3.53-1.403 9.77-5.133 29.64-7.833 38.97-10.359 0-22.182-.41-32.572-.8a433 433 0 0 0 3.264-15.04c1.645-8.03 3.027-17.05 5.15-24.88z"/><path fill="#e19656" d="M893.53 1052.87c6.613.28 14.593 1.15 21.211 1.94-2.032 9.68-3.821 19.83-6.096 29.38-7.251-.33-13.847-1-21.183-1.23 2.222-9.67 4.539-20.31 6.068-30.09"/><path fill="#130e0c" d="M918.78 909.034c4.814.139 6.263.424 10.723.892l20.922 2.119c-1.987 11.316-5.341 28.025-8.856 38.879-11.58-1.433-20.523-2.2-32.171-1.81 2.677-13.251 6.192-26.915 9.382-40.08"/><path fill="#e19656" d="M922.938 914.864c7.46 1.152 13.489 1.946 21 2.385l-.604 2.427a273 273 0 0 0-3.121 12.839c-.862 4.105-1.498 8.23-2.82 12.221-6.891-.697-14.318-1.519-21.18-1.892 2.419-9.394 4.4-18.756 6.725-27.98"/><path fill="#130e0c" d="M898.623 1001.85c10.373.39 21.504 1.69 31.972 2.32-1.596 8.72-3.386 16.74-5.318 25.35l-1.021 4.49-1.919 8.72c-10.625-.16-21.269-1.38-31.908-2.05 2.373-12.97 5.542-25.92 8.194-38.83"/><path fill="#e19656" d="M902.677 1007.07c7.024.83 14.065 1.51 21.118 2.05l-1.613 8.39c-1.267 6.47-2.719 13.46-3.705 19.95-7.977-.53-13.938-1-21.909-1.9 1.557-6.15 3.097-12.32 4.243-18.57z"/><path fill="#130e0c" d="m908.564 955.26 30.989 2.722c-1.122 10.488-3.368 18.786-5.404 29.038l-.928 4.498c-.628 3.032-.48 2.735-1.632 5.54-11.69-1.152-19.993-1.948-31.83-2.235.317-1.231.699-2.619.977-3.836l2.523-10.973c1.934-8.226 3.759-16.446 5.305-24.754"/><path fill="#e19656" d="M912.894 960.843a305 305 0 0 1 20.842 2.441c-.823 3.908-1.78 7.837-2.566 11.727l-.929 4.499-1.068 5.001a153 153 0 0 1-1.11 5.046l-.433 1.871c-7.43-.555-14.032-1.293-21.439-2.066 2.391-9.624 4.384-19.015 6.703-28.519"/><path fill="#130e0c" d="M927.814 862.978c9.87.878 21.893 1.576 31.469 2.73-.768 5.631-1.697 9.786-2.969 15.305l-1.045 4.507c-1.12 4.985-2.106 9.995-3.19 14.987l-.801 4.37c-12.433-1.407-18.891-1.837-31.237-2.162a749 749 0 0 1 7.773-39.737"/><path fill="#e19656" d="M931.834 868.891c7.023.231 14.01.933 21.005 1.681l-.11.551-4.53 21.389a109 109 0 0 1-1.426 6.225c-6.843-.993-13.615-1.542-20.517-1.832.528-2.431 1.02-4.96 1.529-7.417l1.959-9.499c.767-3.69 1.374-7.399 2.09-11.098"/><path fill="#130e0c" d="M992.325 816.998c14.205.471 30.475 1.465 44.765 2.316l-.73 4.688c-1.05 6.839-3.03 15.631-4.58 22.515-5.14.768-36.165-1.478-43.243-1.942.923-9.255 2.432-18.383 3.788-27.577"/><path fill="#e19656" d="m996.859 823.022 34.661 1.39c-.37 1.385-.8 2.801-1.16 4.173l-3.08 11.998c-3.54 1.383-27.27-.519-32.634-.66a245 245 0 0 1 2.213-16.901"/><path fill="url(#a)" d="M1043.17 819.674c13.87.383 29.03 1.913 43.17 2.498a586 586 0 0 1-4.21 26.914c-6.22.141-36.81.372-42.52-2.328-2.32-1.093 2.64-23.392 3.56-27.084"/><path fill="#e19656" d="M1048.02 825.135c11.06 1.014 20.74 1.758 31.84 1.97-.94 5.561-1.68 11.155-2.62 16.698-10.04-.437-22.1-.593-31.85-1.443.84-5.717 1.62-11.543 2.63-17.225"/><path fill="url(#b)" d="M1093.47 822.867c14.67.47 29.16 1.778 44.05 2.357-.92 11.597-1.57 16.103-5.78 27.159-12.69.095-30.79-1.344-43.51-2.804 2.57-9.471 3.9-16.942 5.24-26.712"/><path fill="#e19656" d="M1097.75 828.557c11.1.77 22.86 1.326 33.98 1.807-1 6.434-1.75 9.895-3.4 16.157-3.11.771-27.21-1.422-32.84-1.629.71-5.399 1.48-10.949 2.26-16.335"/><path fill="#130e0c" d="M929.7 1117.16c13.432.96 26.908 1.49 40.059 2.43-.71 8.91-2.281 18.96-5.053 27.45-9.217-.1-30.267-1.58-40.077-2.5.53-6.44 1.999-20.04 4.471-25.89z"/><path fill="#e19656" d="M933.374 1122.9c9.934.42 20.75 1.44 30.784 2.08-1.104 5.36-1.979 10.78-3.183 16.12a660 660 0 0 1-30.46-2.2c1.207-5.49 2.196-10.37 2.859-16"/><path fill="#130e0c" d="M976.354 1120.86c14.391.24 27.946 1.74 42.316 2.34-1.33 7.54-3.27 18.08-5.66 25.26l-.52 1.63a1409 1409 0 0 0-41.735-2.35c3.284-9.99 3.942-16.71 5.599-26.88"/><path fill="#e19656" d="M980.866 1126.48c8.433.78 22.954 1.26 31.674 1.64-1.28 5.42-2.23 10.73-3.45 16.13l-30.864-1.55c.892-5.41 1.677-10.83 2.64-16.22"/><path fill="#130e0c" d="M1023.95 1123.46c10.86.51 31.12 1.31 41.39 2.74-1.02 8.04-2.56 18.62-4.72 26.4-11.88-.46-30.51-1.6-42.11-2.82 2.14-9.37 3.71-16.88 5.44-26.32"/><path fill="#e19656" d="M1028.36 1128.94c10.48.69 20.69 1.7 31.27 2.15-1.09 5.47-2.23 10.61-3.07 16.17q-15.66-.69-31.26-2.1c.95-5.41 2.07-10.81 3.06-16.22"/><path fill="#130e0c" d="M1123.9 990.495a508 508 0 0 0 30.83 2.514c-1.71 7.551-3.75 15.021-5.48 22.511l-.94 4.03c-.62 2.78-1.2 4.98-1.92 7.72-9.22-.36-20.58-.9-29.78-1.65.8-6.44 1.8-11.33 3.2-17.63l.99-4.5c.96-4.5 2.03-8.557 3.1-12.995"/><path fill="#e19656" d="M1128.44 996.87c7.02.165 12.96.796 19.91 1.251-2.09 7.799-4 15.649-6.06 23.459-1.98.72-15.68-.59-19.1-.74 1.89-8.06 3.46-15.93 5.25-23.97"/><path fill="#130e0c" d="M1114.85 1031.68c9.09.45 21.04 1 29.92 1.87-1.37 6.22-2.99 11.9-4.46 18l-.97 4.01c-1.03 4.34-2.15 8.92-3.11 13.25-2.09.56-24.26-1.81-28.88-1.95 1.27-8.52 2.65-13.95 4.49-22.37l.88-4.01.63-2.91z"/><path fill="#e19656" d="M1119.26 1037.99c6.5.12 12.08.61 18.54 1.04-1.91 8.29-3.85 15.84-5.68 24.26l-18.55-2.36c1.97-7.56 3.46-15.53 5.69-22.94"/><path fill="#130e0c" d="M1152.99 870.772c10.19.349 19.8 1.034 29.94 1.458-.07.324-.13.648-.2.973l-.39 1.802c-1.14 5.717-2.69 11.337-4.03 17.009l-1.06 4.5c-.81 3.547-1.37 6.732-2.08 10.269-3.52.995-28.64-.55-28.92-3.091-.6-5.416 5.17-27.158 6.74-32.92"/><path fill="#e19656" d="M1157.49 876.005c6.64.84 11.98 1.023 18.61 1.392a680 680 0 0 0-5.95 24.696c-6.45-.753-12.48-.949-18.8-1.735l1.83-7.341.99-4.002c1.08-4.295 2.29-8.73 3.32-13.01"/><path fill="#130e0c" d="M1134.53 949.794a341 341 0 0 0 30.3 2.366c-3.22 12.039-6.25 22.454-8.89 34.655-9.91-.798-19.57-1.259-29.6-2.108 2.12-11.788 5.99-23.174 8.19-34.913"/><path fill="#e19656" d="M1138.55 956.082c7.14.624 12.75.836 19.89 1.01-2 5.891-3.72 11.872-5.16 17.923-.54 2.235-.94 3.856-1.58 6.075-6.28-.356-12.39-.922-18.71-1.265 2.17-7.914 4.14-15.651 5.56-23.743"/><path fill="#130e0c" d="M1105.15 1072.88c7.84.09 15.28.45 23.06 1.61 7.12.99 6.36 4.09 4.87 10.01-2.04 8.09-3.72 16.53-6.12 24.5l-30.14-2.12 1.96-8.89c1.78-8.17 3.83-17.18 6.37-25.11"/><path fill="#e19656" d="M1108.77 1078.01c6.86.57 12.33.97 19.23 1.29-1.7 8.57-3.53 16.51-5.55 25-7.38-.95-12.43-1.24-19.72-1.81.88-3.5 1.62-6.98 2.47-10.47q.75-3.015 1.47-6.03c.67-2.87 1.32-5.15 2.1-7.98"/><path fill="#130e0c" d="M1143.6 910.779c8.03.58 21.83 2.038 29.9 3.044l-1.74 7.666c-1.93 8.493-3.94 17.083-5.93 25.563-7.59-1.327-22.19-1.958-30.04-2.321l2.92-12.269c1.7-7.204 3.58-14.395 4.89-21.683"/><path fill="#e19656" d="M1148.07 916.831c6.63.258 12.61.937 19.19 1.36-2.2 7.709-3.68 15.152-5.52 22.901-6.38-.594-12.79-1.174-19.12-2.078 1.12-3.983 2.15-7.993 3.08-12.027.79-3.386 1.52-6.789 2.37-10.156"/><path fill="#78859c" d="M789.726 1072.85c-2.419-4.93-6.745-14.26-9.862-18.42-17.995-23.98-21.838-50.45-30.268-78.848a6495 6495 0 0 0-30.345-96.61c-30.879-96.346-63.675-189.274-88.247-287.774-23.669-94.883-41.844-170.196 2.794-264.365 45.076-95.093 123.81-153.68 220.788-189.362a499.78 499.78 0 0 1 378.794 14.94c86.83 40.387 160.38 106.49 193.8 198.099a296.9 296.9 0 0 1 16.24 129.188c-3.2 34.504-15.21 81.412-23.85 115.31-28.23 110.857-65.68 221.07-100.9 330.026a1476 1476 0 0 0-20.9 70.44c-3.17 11.566-7.25 28.606-10.94 39.606-2.05 6.09-12.01 20.96-15.75 29.15l-.58 1.29c-.39.62-1.86 3.65-2.8 3.61-.56-1.35.3-8.8.42-10.79 2.32-84.816 41.43-209.789 66.87-291.112a5979 5979 0 0 0 38.9-131.772c17.02-61.262 33.48-124.41 29.67-188.465-11.18-187.955-199.6-297.578-371.94-300.748-180.376-3.318-384.23 117.31-383.789 316.675.218 98.361 40.978 202.051 68.947 295.614 19.959 65.363 41.611 129.884 56.927 196.05 6.815 29.441 17.663 81.038 17.517 110.768 1.234 2.66 2.276 18.52-1.496 7.5"/><path fill="#7a8197" d="M791.222 1065.35c1.234 2.66 2.276 18.52-1.496 7.5 2.121-3.94.292-3.08 1.496-7.5m476.898-7.01 2.38 7.18c-.39.62-1.86 3.65-2.8 3.61-.56-1.35.3-8.8.42-10.79"/><path fill="#78859c" d="M875.248 1646.42c9.561-1 27.657-.6 37.469-.58l63.106.13c60.847-.01 122.697-.6 183.487.79 58.98 1.35 110.75 15.88 152.22 60.26-14.76 27.38-19.14 43.35-23.62 73.48-49.85 1.65-106.41.2-156.62.02l-435.229.03c3.19-24.69 17.64-52.08 34.279-70.32 39.419-43.19 88.016-60.42 144.908-63.81m930.772-246.16c16.97-2.16 23.35 1.33 34.15 13.8 18.42-21.58 38.73-17.34 50.25 7.97 23.7-8.7 38.03-1.5 37.36 24.89 22.36-.49 42.04 10.96 31.27 35.5 25.98 7.36 36.81 22.21 18.56 45.06 24.9 14.87 30.73 32.8 7.54 52.8 15.7 20.29 8.27 36.12-13.64 45.81 20.57 26.6-1.12 25.61-8.81 36.84-4.66 6.79 14.96 19.81-24.46 28.57l2.97 11.71c-4.72 7.29-8.79 10.68-18.14 11.08-17.66.74-35.67.06-53.39-.2-1.27-42.68 1.34-88.32.02-131.27-.54-17.45.63-35.18-.93-52.73-1.47-3.85-2.75-6.74-5.38-9.99a30.3 30.3 0 0 0-21.91-11.24c-12.89-.62-28.04 7.51-30.17 21.63-1.83 12.11-1.09 24.07-1.19 36.28-.08 9.17.03 18.41.05 27.61l-.07 119.76-62.26.07c-13.88-11.97-6-20.04-11.2-22.84-14.4-7.78-26.79-2.57-18.52-30.26-22.43-6.74-23.42-17.34-11.54-35.33-23.57-10.66-26.04-24.79-12.06-45.56-22.6-20.13-19.44-38.61 7.76-51.62-17.94-24.04-10.35-36.25 16.26-46.74-8.47-27.64 8.54-35.11 32.84-34.83-.65-11.84 1.75-25.26 15.5-26.78 2.01-.89 14.88 2.56 15.7 1.72 10.66-10.9 7.87-15.32 23.44-21.71m-1594.055 16.3c7.743-12.77 18.086-20.82 34.141-14.89 10.714 3.96 14.463 11.12 19.021 20.86.687-.21 1.376-.42 2.067-.62 35.598-10.23 29.634 22.88 33.493 23.7 18.377 3.89 47.043 10.54 28.374 36.37 26.155 8.07 40.188 21.33 19.655 45.66 23.488 13.75 34.594 33.11 8.134 51.66 14.934 23.65 9.009 32.72-12.593 47.65 21.475 22.7.257 24.2-8.873 35.16-1.384 3.74-.173 5.96.843 9.65 3.748 13.6-15.415 17.21-25.67 19.55.624 3.26 1.295 6.59 1.215 9.93-.099 4.06-1.689 7.29-4.684 10.01-6.297 5.7-54.759 2.88-65.367 2.81-2.644-53.54 1.251-109.99-.553-163.8-.368-10.98.503-15.85-3.734-26.42-6.026-9.11-14.049-14.38-25.176-14.77a29.9 29.9 0 0 0-22.57 9.01c-3.677 3.75-6.82 9.42-7.157 14.61-1.164 17.93-.817 37.72-.912 55.68-.319 41.89-.269 83.79.148 125.68l-63.272.1c-9.044-8.15-8.837-10.22-6.215-21.77q-2.457-.555-4.901-1.17c-18.36-4.58-22.974-11.71-17.632-29.31-1.49-.6-2.962-1.25-4.41-1.94-18.683-8.89-13.943-19.7-5.885-34.37l-3.85-1.91c-22.418-11.12-21.744-24.28-10.09-43.89-20.595-20.5-18.185-40.12 9.593-51.04-6.91-8.93-14.506-17.17-8.495-29.74 4.567-9.55 13.96-13.14 23.47-16.26-1.86-7.97-3.523-16.11.426-24.07 5.865-11.82 20.369-9.31 30.341-12.5 6.595-7.45-2.665-41.07 38.557-23.47 4.893-14.25 11.114-20.22 26.108-22.37 14.157.73 18.371 5.52 26.453 16.22m977.955-238.44c9.26 2.22 19.71 3.42 29.41 5.89 38.44 9.77 75.43 21.44 108.26 44.46 35.15 24.66 57.04 44.71 65.17 87.54l-652.685-.23c-26.115.29-52.234.05-78.339-.72 14.636-69.78 74.964-104.24 138.675-122.93-.774 9.21-1.361 16.41-1.267 25.72 8.832 17.08 21.079 15.28 38.02 15.29.102 8.65-1.12 37.67.736 42.71 6.12 5.19 18.696-9.84 23.304-14.47 8.75 7.93 17.899 11.69 26.674 20.81.615-14.15.174-31.1.16-45.46 24.143.71 52.464 3.55 76.935 5.16 69.017 4.55 138.837 11.51 207.867 15.49 4.95-26.12 11.37-53.17 17.08-79.26m-50.37-993.787c51.88-4.482 82.31 57.793 71.84 102.027-7.23 30.527-20.16 49.182-37.25 75.004-34.15 51.556-52.49 111.605-66.14 171.35-17.27 79.785-28.49 164.154-30.01 245.939l.03 26.515a1335 1335 0 0 0-49.44-3.3l.21-216.694.08-99.281c.04-29.025-.51-61.851 2.69-90.53 7-62.583 31.4-201.091 107.99-211.03m-239.057-.119q3.059-.155 6.122-.195c18.332-.189 33.38 8.93 46.006 21.513 82.729 82.453 70.279 275.809 70.179 385.086l.01 210.563c-11.97-.424-36.158-1.111-47.195-2.744-2.261-2.926-1.483-2.673-1.621-7.286-.565-125.076-19.618-270.491-71.479-385.704-19.053-42.327-52.425-72.9-62.352-119.446-9.266-43.445 14.424-93.514 60.33-101.787"/><path fill="#78859c" d="M756.708 293.381c30.315-3.823 71.302 20.053 91.811 40.45 12.057 11.991 26.541 32.65 34.827 47.961 65.37 120.783 83.677 281.149 84.839 416.415a3956 3956 0 0 0-48.434-2.562c-2.47-.071-3.17-.238-5.627-.632-4.114-4.046-3.385-15.291-4.083-21.317a821 821 0 0 0-6.202-43.555 725 725 0 0 0-16.964-73.69c-25.568-89.629-65.464-163.403-135.101-224.15-20.548-17.926-42.153-49.969-45.006-77.663-3.771-36.597 13.817-56.956 49.94-61.257m523.332-.077c34.91-4.043 66.87 14.796 64.64 53.955-2.86 50.183-40.71 81.069-74.09 112.445-84.75 79.67-127.23 227.119-131.7 338.545l-.57 9.966c-16.54-1.645-37.06-2.302-54.04-3.309-1.76-53.476 4.33-117.814 11.81-170.901 13.3-94.434 34.03-198.093 88.74-278.182 21.34-31.228 57.78-55.933 95.21-62.519m164.08 1455.416c24.13-2.55 44.88-5.93 69.44-5.91 43.21-.53 78.09 10.61 109.79 39.62 34.64 31.7 51.71 107.83 14.19 143.16a55.04 55.04 0 0 1-25.55 13.51c-15.6 3.59-45.12 2.53-62.31 2.49-25.93.07-51.86-.11-77.78-.54 7.04-17.17 8.68-16.08 23.19-25.2l-.13-1.77c-13.66-6.91-24.66 17.58-27.92 26.91l-14.66-.06c2.24-6.94 4.86-14.15 9.95-19.51 2.33-2.44 5.02-4.57 6.72-7.36l-.84-1.1c-16.11-2.34-13.96 22.62-24.29 28.15-3.92.27-2.3.77-5.31-.7-.28-2.04-.04-3.45.64-5.36 3.37-9.37 10.26-16.72 18.56-22 34.27-21.78 67.02-2.3 80.3-8.27 1.1-3.36-1.89-4.73-5.01-6.19-50.19-23.46-70.11-85.37-3.11-102.74 4.81-1.24 20.44-1 22.84-5.69-3.16-3.51-8.74-2.24-12.88-1.76-17.95 2.2-38.41 8.3-49 24.52-23.41 35.83-1.33 61.68 26 81.47l-2.82 3.15c-35.93-5.1-72.25 4.81-81.81 44.1-44.27.21-92.79.84-136.89-.53 7.25-28.37 27.91-23.9 31.21-28.95-5.11-8.27-27.5 4.93-30.92 13.31-2.53 6.18-4.15 8.57-6.19 15.5l-23.77-.1c3.17-8.08 5.43-13.68 12.17-19.8 3.03-2.76 5.62-3.44 7.63-6.81l-2.04-.98c-14.27 1.47-19.56 15.22-22.84 27.43l-12.9-.23c20.94-55.35 86.4-36.71 131.39-36.96 14.11-.07 29.01-7.85 35.11-20.86 2.45-5.23 7.43-17.53 4.36-22.99-1.3.15-3.06.54-3.34 2.16-7.46 42.56-39.49 38.38-75.84 33.74 40.65-16.17 53.09-47.83 29.15-85.81 35.68-12.77 54.85-30.14 75.51-61.04"/><path fill="#78859c" d="M1357.41 577.133c9.96-.56 15.55 1.549 23.92 5.926-28.65 123.289-76.75 243.353-103.97 367.274-10.04 45.706-15.14 88.277-16.77 134.947-.24 6.64-9.13 23.69-10.36 31.07-7.16 22.89-9.41 43.05-11.05 66.8-13.85-4.49-33.67-8.63-47.95-10.9 6.98-23.71 13.39-56.13 18.75-80.53l22.32-98.329 13.46-59.73c1.96-8.711 6.56-27.273 7-35.513-3.2-3.037-4.37-.223-9.84-2.792-1.7-5.339 3.97-5.609 1.51-11.676-3.1-2.515-5.93-1.925-10.08-1.935l3.64-15.094-11.91-.962 3.14-16.153c-4.98-.362-9.63-.928-14.58-1.521l-46.92 200.335-17.42 76.15c-4.68 20.21-9.98 40.85-13.75 61.2l-10.9-1.43c-99.2-7.28-205.534-15.76-304.609-20.33.121 17.74-3.1 34.22-2.685 51.26.16 6.54 12.467.46 19.417 5.16.265 3.82.627 2.06-1.182 5.48-6.374 3.63-28.039.03-29.07-5.75-2.654-14.87.651-51.82 2.692-66.28 37.796.12 80.316 3.49 118.272 5.83l203.155 12.57c1.35-12.94 13.1-57.27 16.52-72.76a9798 9798 0 0 1 47.21-203.803c2.54-10.398 18.7-75.446 17.8-82.759-3-.921-3.38-.679-5.37-2.946-3.56-12.474 20.45-72.845 26.35-86.767 22.8-53.852 67.49-123.955 123.26-146.042m-703.183-93.296a233 233 0 0 1-.49-15.437c.535-82.72 28.173-146.344 86.378-204.992C811.708 191.27 927.617 151.419 1028 152.078c101.14.665 218.09 42.608 288.9 116.437 58.54 61.042 82.2 127.266 81.2 210.802l-2.84.972c-7.7-41.907-42.23-56.828-81.54-49.28-1.42.274-2.84.563-4.25.865 22.88-29.098 44.4-56.948 40.89-95.987-3.33-36.979-40.8-53.342-73.42-47.925-23.64 3.925-54.21 19.512-71.63 35.459 14.23-32.557 19.4-59.018 7.03-93.365-12.31-36.05-55.68-64.046-92.92-46.514-54.25 25.544-73.9 103.142-85.63 157.3-1.95 9.005-6.04 41.714-8.33 46.866-2.32-8.223-2.4-16.786-3.77-25.397-9.02-56.639-23.763-116.105-63.449-159.559-37.004-40.517-89.722-28.263-114.816 17.767-18.68 34.266-11.673 70.313 4.225 104.559-27.184-22.64-56.844-40.059-93.463-37.486-37.726 2.65-57.588 31.906-52.772 68.151 4.203 31.63 21.626 54.144 41.965 77.382-19.974-5.778-37.677-7.33-56.804 3.043a58.36 58.36 0 0 0-28.57 35.328c-.905 3.156-2.114 8.345-2.375 11.51zm25.387 94.343c12.692-1.072 25.115 2.33 35.544 9.719 81.291 57.598 125.542 154.367 145.811 249.366 4.562 21.385 2.371 31.594-2.378 52.594-3.188 14.095-6.001 28.886-8.931 42.994a11760 11760 0 0 1-32.371 154.447c-2.126 12.39-5.555 27.02-8.131 39.52-1.627-7.07-8.904-25.09-9.126-30.37-6.617-157.09-71.599-303.44-112.438-453.365-3.757-13.795-15.783-48.336-16.327-60.842 1.973-2.653 5.008-3.034 8.347-4.063"/><path fill="#78859c" d="M1332.02 434.366c3.15.036 8.5.392 11.6.853a53.98 53.98 0 0 1 35.95 21.484c23.91 33.041 3.97 75.566-20.99 101.627-17.02 17.77-31.96 26.791-48.97 42.466a297 297 0 0 0-33.59 37.414c-35.13 46.123-65.65 114.374-75.66 171.434l-.26.447c-1.84.997-49.82-1.319-56.24-1.508 1.32-98.293 41.63-239.987 104.76-316.398 22.12-26.771 47.56-54.161 83.4-57.819m-620.843-.059c19.154-2.027 38.545 6.136 52.598 18.805 92.889 83.741 131.677 222.883 142.287 342.735a379 379 0 0 1-28.377 2.215c-2.044 14.734-6.262 29.569-8.646 44.679l-2.699-9.905c-14.546-56.789-30.688-109.988-63.521-159.592a387 387 0 0 0-54.441-66.425c-11.289-10.992-21.862-18.053-33.75-27.928-23.509-19.892-48.403-46.751-52.809-78.575-4.767-34.43 15.4-60.915 49.358-66.009m818.843 804.863c6.48.23 7.99.95 14.03 3.22 1.96 2.28 4.25 5.38 6.16 7.8 18.65-18.77 22.22-8.3 36.74 4.78 2.5 2.25 7-1.06 11.42.47 3.68 3.96 2.81 10.05 2.64 15.3q1.35-.06 2.7-.09c12.35-.26 16.89 2.65 15.65 15.56 17.51 3.69 26.37 15.87 12.07 30.2l3.13 1.92c17.22 10.38 18.21 23.99 2.11 36.1 14.97 14.64 9.95 22.22-4.79 34.08 9.59 14.93 6.25 18.64-7.83 26.85 8.11 23.32-3.6 16.38-14.89 25.28-1.49 3.3-.05 4.24.31 7.17 1.6 12.82-22.27 10.53-30.08 10.75-5.47.15-12.08-.06-17.8-.1-.71-32.48.19-65.14.18-97.63 0-16.35 3.29-29.48-8.43-42.23-13.25-8.29-32.37-3.7-33.85 13.42-1.19 13.77-.38 29.21-.32 43.16.19 27.67.18 55.34-.05 83.01l-40.21.04c-10.03-8-9.64-7.81-5.74-19.75l-11.42-2.35c-10.16-8.85-8.86-11.33-4.03-22.61-1.55-.76-3.08-1.56-4.6-2.4-14.89-8.33-12.91-17.22-4.74-29.48-16.72-12.99-18.95-22.13-3.9-37.68-14.86-14.17-7.78-26.69 7.91-35.14-11.03-16.86-1.36-24.22 15.35-25.81-1.97-20.29 4.09-12.91 14.59-15.7 10.04-7.97 4.05-30.36 31.98-13.67 5.15-8.2 7.1-10.46 15.71-14.47m-1003.448.02c18.173 5.33 11.274 10.97 20.101 15.6 2.824-.21 8.184-2.49 10.083-2.05 8.402 1.98 6.984 9.49 8.672 14.56 1.243 3.73 10.871 1.27 14.977 8.02.58 7.68.093 8.68 8.022 9.87 13.304 2 8.991 13.41 6.955 22.83 2.184 4.88 8.46 4.99 11.195 8.58 9.173 7.34-3.231 25.51-2.262 27.29 7.603 13.91 18.24 19.68-5.218 35.79 11.076 15.65 11.37 23.02-6.903 32.11 14.528 23.42-4.777 21.25-14.316 28.31-.838 3.61.462 13.91-2.601 15.17-11.233 4.61-34.001 2.87-46.305 2.81-1.055-35.97.19-71.99-.481-108.53-.332-18.08-.289-39.31-27.841-33.98-6.004 1.16-9.952 8.19-12.459 13.37-1.518 13.76-.616 38.79-.515 53.52.1 25.21 0 50.43-.3 75.64-13.577.2-27.155.33-40.733.38-2.404-2.82-4.919-6.57-7.102-9.63 4.352-15.84-5.943-8.8-13.809-17.07-2.668-6.32-1.503-7.8.897-14.48-11.999-7.7-18.27-16.41-7.866-28.97-12.328-9.71-20.733-19.57-6.737-33.39-13.023-16.42-13.874-24.8 4.445-37.21-15.504-30.7 5.888-23.65 13.005-32.7-1.302-11.61 1.424-11.07 11.395-13.31 2.296-.52 3.449-9.11 4.281-11.74 4.096-12.95 16.984-8.94 25.701-3.55 8.401-18.05 24.353-23.7 35.463-4.24 7.341-7.71 9.965-10.76 20.256-13m1208.548 548.79c46.59-.38 93.17-.4 139.76-.06 20.68.12 42.01.04 62.73.44 3.1.06 2.64.23 4.16 2.04-.02.8-.12 4.49-.26 4.78-4.76 9.46-41.42-1.19-50.22 5.06l-.2 2.16c4.39 4.02 42.78-1.12 49.95 2.97 2.34 17.74-18.69 5.57-28.24 11.14l.17 1.59c5.76 3.98 20.54 2.17 28.85 2.19.23 14.86-.12 26.49-2.04 41.33a104.55 104.55 0 0 1-27.08 51.84 104.94 104.94 0 0 1-74.49 32.01c-26.28.31-53.84-12.21-72.23-30.66-36.15-36.27-30.97-80.08-30.86-126.83m-1628.239-.15c20.603-.49 200.542-.56 205.602 1.63 2.692 2.85 2.005 1.24 2.442 4.87-.386.85-1.515 3.41-2.269 3.64-11.256 3.54-40.162-2.45-50.334 1.91l-.516 1.44c10.795 4.96 45.155-.54 52.465 5.1-.075 3.92.584 4.67-1.199 7.46-8.176 1.89-24.831-2.06-29.269 3.62l.457 2.22c2.193 1.34 25.069.32 29.826.28.146 14.1-.115 24.45-1.784 38.43-10.964 48.42-48.743 86.8-100.269 86.84a104.85 104.85 0 0 1-74.627-30.9c-35.686-36.15-30.637-79.87-30.525-126.54M1447.12 948.589c10.73-.962 19.4-1.048 30.15-.666 56.84 2.02 112.91 47.72 108.08 108.767a85.84 85.84 0 0 1-30.78 59.71c-16.47 13.74-36.4 20.65-57.86 18.69a75.6 75.6 0 0 1-50.97-27.2c-15.06-18.58-21.28-50.99.25-69.01 17.98-15.04 44.31-2.57 42.81 20.85-.55 8.67-14.87 13.17-21.69 17.5-5.85 19.3 41.22 44.45 67.45 11.43a59.52 59.52 0 0 0 12.28-43.73c-2.83-22.24-12.99-37.08-30.31-50.464a97.8 97.8 0 0 0-41.45-13.151c-63.09-5.653-133.14 29.315-164.08 85.025-23.11 41.59-17.88 88.75-21.63 134.07-14.37-5.94-29.59-10.9-44.33-15.82 1.75-43.21 12.39-80.1 31.73-118.57 33.85-67.336 95.81-108.681 170.35-117.431m-878.571-.201c6.78-.696 13.601-.909 20.411-.637a228.44 228.44 0 0 1 157.932 71.879c26.212 28.41 41.766 61.48 53.623 97.87 8.368 25.68 2.544 42.21 1.564 68.3-11.684 3.37-20.74 6.29-32.153 10.49-.069-26.62.679-54.84-4.422-80.97-17.185-88.02-122.953-148.328-208.508-129.701-20.181 7.318-35.361 17.441-45.521 37.001-14.166 27.26-5.924 65.87 23.385 79.44a37 37 0 0 0 29.739.85c12.524-5.2 17.343-14.65 21.928-26.24-9.446-2.39-20.594-6.18-22.879-16.62-4.697-21.44 22.788-35.14 38.972-23.38 24.885 18.08 21.148 46.7 4.856 68.7a74.65 74.65 0 0 1-49.47 29.15c-45.467 6.27-86.889-30.11-92.025-74.79a93.24 93.24 0 0 1 20.083-68.819c20.983-26.049 49.766-39.08 82.485-42.523m460.481 372.932c23.01.58 47.78.2 70.89.17-.08 29.48-.03 60.73-1.64 90.13a1484.5 1484.5 0 0 1-25.35 200.6l-5.35 28.41-38.69-.18zm429.57 368c2.98-.32 1.58-.65 4.31.55 1 6.52-17.04 44.56-21.25 51.6-20.79 34.75-44.48 54.44-83.12 64.86 5.72 7.33 10.45 13.33 13.58 22.18a47.98 47.98 0 0 1-2.33 36.81c-11.63 23.52-41.94 29.07-65.17 30.4-9.56.54-18.98 3.78-27.99 6.9-10.06-1.51-23.72-3.1-25.99-15.23 4.24-6.9 8.69-8.49 11.72-16.98-.92-8.32-13.82-5.48-20.37-5.15 22.4-51.41 32.46-77.87 89.74-92.88-1.89 5.36-4.62 10.98-2.4 16.22 5.35-3.31 13.1-29.79 20.06-39.12 27.1-36.32 66.12-52.54 109.21-60.16"/><path fill="#130e0c" d="M1447.32 1702.35c1.17.06.4-.08 2.07 1.09-.65 4.48-4.72 13.98-6.89 18.12-25.63 48.83-49.42 64.85-98.94 81.81-.59-.74-2.35-3.06-2.29-3.9 3.7-54.78 56.43-90.18 106.05-97.12"/><path fill="#78859c" d="M1438.99 1709.16c3-.11 3.21-.01 1.7 3.24-13.72 29.42-33.96 56.67-63.17 72.11-8.98 4.75-18.79 7.53-28.17 11.3-9.19 1.29 8.85-32.63 10.86-35.81 17.55-27.87 47.66-43.26 78.78-50.84"/><path fill="#130e0c" d="M1313.14 1828.28c7.93-.21 11.15-.02 7.39 8.27-5.14 11.34-14.18 6.89-24.41 10.84-11.15 7.28-9.01 1.33-3.76-7.77 4.08-7.06 12.97-10.04 20.78-11.34"/><path fill="#78859c" d="m875.041 1321.19 72.386.19c.05 41.03-1.628 92.58 1.934 132.41 5.252 58.72 21.315 128.96 36.221 186.32l-35.811.11a669.9 669.9 0 0 1-74.73-319.03m78.486-.02 69.473.2-.08 319.06-30.642-.17c-6.887-22.07-12.97-49.62-17.834-72.31-8.841-41.26-17.57-86.14-19.929-128.34-2.157-38.58-1.209-79.67-.988-118.44m152.303.17 69.99-.02c.51 110.16-17.77 192.46-59.42 294.43-3.49 8.35-7.18 16.62-11.06 24.79l-32.05-.11a1496.5 1496.5 0 0 0 31.38-236.43c1.25-26.63.79-55.77 1.16-82.66m200.52.15 20.92-.04c-.48 77.66-26.67 162.73-69.28 227.61a413.4 413.4 0 0 1-70.14 81.76c-2.95 2.68-10.32 9.96-13.61 10.64l-24.63-1.1c11.05-12.21 26.91-38.52 35.27-53.13a541.44 541.44 0 0 0 73.81-265.63z"/><path fill="#78859c" d="M1181.95 1321.26q34.815-.18 69.63.45c4.19 69.6-21.23 159.48-50.78 221.72-12.59 26.53-27.13 51.04-42.92 75.73-5.26 8.07-9.56 13.83-15.44 21.43-10.05-.04-20.1-.13-30.15-.3 33.51-72.86 57.82-154.38 65.9-234.28 2.89-28.59 3.19-56.07 3.76-84.75m-380.327-.15 67.326.01c-.146 21.39-1.25 38.86.529 60.71 7.18 88.15 34.811 178.64 73.276 257.89-3.804.69-21.426.46-26.278.48-12.522-13.43-24.74-30.97-34.826-46.43a498.2 498.2 0 0 1-80.027-272.66m645.907-333.74c50.7-6.564 100.72 19.65 92.65 76.05-4.36 30.46-46.16 53.07-66.96 17.86 13.65-5.63 27.04-17.11 20.36-33.55-8.51-19.63-25.8-21.81-44.13-22.67-50.83-2.39-81.31 23.93-97.93 70.68-12.78 37.08-11.96 92.74-12.42 132.87-13.34-9.82-28.42-18.42-43.26-25.7 1.56-51.51-1.57-109.55 32-150.7 32.07-39.31 70.35-58.444 119.69-64.84"/><path fill="#78859c" d="m724.747 1321.4 70.443-.24a512.77 512.77 0 0 0 83.521 279.66c9.44 14.32 19.36 25.75 29.69 39.18-6.619.17-13.902.02-20.58.03-7.467-4.89-18.369-14.61-25.16-20.87a436.92 436.92 0 0 1-137.914-297.76m-440.451 600.69c126.934-1.13 253.873-1.48 380.81-1.04 80.533.03 169.491-1.53 249.659.86-3.281 9.63-4.873 15.9-7.129 25.81-28.187.16-60.056.91-88.078.03-17.165.71-39.118.08-56.78.06l-108.076-.1-300.995.22c-38.716.07-78.114-.81-116.638-.24l10.589-3.31c15.791-5.8 23.411-11.65 36.638-22.29"/><path fill="#616574" d="m237.069 1947.69 10.589-3.31c2.267 2.11 1.548 2.12 5.34 2.19 17.147.31 34.685.27 51.814.31l105.094-.08 299.821-.05 71.781-.04c7.135-.01 32.488-.39 38.05 1.04-17.165.71-39.118.08-56.78.06l-108.076-.1-300.995.22c-38.716.07-78.114-.81-116.638-.24"/><path fill="#e19656" d="M1021.75 1850.43c27.44-2.23 55.39 7.12 77.22 23.59a113.15 113.15 0 0 1 43.04 73.56q-53.13-.39-106.26-.15l-121.967-.31c10.93-56.66 50.153-92.5 107.967-96.69"/><path fill="#78859c" d="M576.708 988.41q4.132-.343 8.28-.383c48.497-.182 98.802 19.583 133.082 53.903 48.488 48.54 45.673 93.91 45.94 156.45a211.3 211.3 0 0 0-43.379 22.95c-.259-35.07 2.062-76.69-4.534-110.12-7.872-25.84-14.497-43.71-37.098-62.06-25.834-20.97-61.76-25.04-94.023-22.66-9.619 1.14-17.197 5.85-22.717 13.56-13.31 18.61-1.135 30.82 14.324 41.28-.025 11.77-12.551 16.25-22.543 17.46a33.34 33.34 0 0 1-24.934-6.87c-33.301-26.24-18.257-79.95 17.253-95.652 11.516-5.093 17.808-6.648 30.349-7.858m84.432 332.55 57.412.77c10.035 119.73 53.61 224.87 143.659 304.92 4.669 4.15 11.188 8.33 15.24 12.48l-.709 1.19q-9.78.615-19.533 1.59c-28.802-14.61-67.044-44.6-89.494-68-64.274-67-107.5-159.39-106.575-252.95m672.15.51 59.5.48c.54 12.39-1.29 37.51-3.49 50.11-18.91 108.02-76.8 189.73-162.89 253.58-10.56 8.09-16.83 12.64-28.81 18.22-4.59-.77-9.19-1.47-13.8-2.08 7.52-6.12 14.79-12.54 21.78-19.26 80.74-76.99 125.01-190.31 127.71-301.05M900.891 802.585c4.605-.499 10.474-.584 15.194-.785-4.515 28.988-14.231 68.702-20.185 98.37-16.727 83.35-35.102 165.25-51.116 248.85l-19.284-.43-14.753-.48c25.548-113.38 47.185-230.341 71.879-344.18 5.371-.698 12.692-.986 18.265-1.345m571.939 712.545 91.26-.06c9.03.01 35.86-.51 42.9.95 1.43 2.82.92 1.33.58 4.98-7.03 5.39-18.93-1.02-26.49 2.05l-.73 1.85c4.34 5.98 20.47-.51 27.45 5.21l-.37 2.1c-5.85 2.48-12.88-1.73-16.97 2.24l.46 2.03c4.24 3.36 11.05 2.42 17.25 2.6.06 9.18-.66 14.02-2.77 22.74-22.77 62.13-95.37 68.79-125.96 8.86-8.37-16.39-6.73-37.35-6.61-55.55m-1031.771-.24 83.049.07c14.6.03 35.257-.54 49.423.75 1.959 2.95 1.316 1.29 1.257 5.38-3.464 3.67-22.069-2.06-27.836 2.38 2.507 7.77 21.532 1.3 27.743 4.71 1.011 3.19 1.247 1.78-.041 4.44-5.244-.14-12.289-.85-17.015.7l-.611 1.61c3.749 5.02 12.524 3.43 18.873 3.48-.368 8.45-.756 14.29-2.333 22.51-10.432 29.23-33.617 51.01-65.959 51.08a64.1 64.1 0 0 1-46.27-19.78c-22.603-23.21-20.446-47.58-20.28-77.33"/><path fill="#fff" d="M205.334 1515.14c13.622-.84 27.865 3.26 29.11 19.28 1.444 18.57.688 37.92.766 56.61l.37 123-16.626.02-31.355.09c-.818-24.48-2.621-173.91 1.987-185.14 3.069-7.49 8.697-10.72 15.748-13.86"/><path fill="#78859c" d="M607.072 1031.92c27.463-.57 56.328 9.46 75.848 29.03 40.31 40.41 32.106 111.23 31.906 164.13-8.839 7.17-13.773 11.46-21.948 19.39-7.669 7.55-12.413 14.23-18.572 23.01.735-24.12-.112-48.78-.16-72.98-.095-48.6 3.191-101.55-48.041-125.01-.152-17.75-6.858-26.17-19.033-37.57"/><path fill="#fff" d="M1833.18 1515.14c15.11-1.12 28.64 4.07 29.86 20.58 1.37 18.72.83 38.81.87 57.57l-.03 120.54-15.05.02-32.7.06c-.53-22.2-2.23-176.24 1.58-185.34 2.88-6.86 9-10.53 15.47-13.43"/><path fill="#78859c" d="M1431.33 1031.31c5.06-.63 11.89-.34 17.11-.29-17.6 11.13-21.59 21.42-22.69 41.45-51.24 51.99-42.83 131.08-43.81 198.75l-8.13-10.77c-7.34-9.46-19.05-20.06-28.94-26.77.55-73.04-6.85-186.92 86.46-202.37M102.869 1719.4c23.872-.61 48.182.54 72.108.55 17.844.02 137.666-2.15 147.832 1.32 4.967 1.69 9.331 5.8 11.627 10.48 2.045 4.16 2.452 8.74.668 13.06-2.775 6.72-8.197 9.59-14.655 12.11l-141.511-.03c-24.607-.01-48.926.11-73.784-.3-14.748-.25-23.909-14.75-16.812-28.15 2.665-5.03 9.09-7.81 14.527-9.04m1624.131.84c8.49-.8 25.42-.31 34.54-.31l63.7.02 81.3-.01c14.23-.01 32.33-.82 46.27 1.27 9.35 1.4 13.39 16.1 10.2 23.96-2.6 6.42-5.94 8.24-12.07 11.47-8.57.79-26.55.16-36.02.18l-76.47.07h-71.35c-8.22-.01-31.32.37-38.36-1.01-5.02-.95-9.4-3.98-12.05-8.34-7.13-11.83-.29-21.51 10.31-27.3m-336.64-67.22 2.56.19c6.54 7.33-5.03 46.84-8.17 56.33-24.11 17.33-38.35 29.83-50.59 56.88-12.57 1.6-24.52 6.5-35.99 11.59l-2.78.88-.93-1.39c2.63-21.01 6.98-38 16.71-57.12a134.6 134.6 0 0 1 79.19-67.36"/><path fill="#fff" d="M1535.09 1319.98c7.68-.64 19.32 2.42 19.97 11.68 2.28 32.59.52 65.71 1.12 98.4.15 8.68.22 18.48-.43 27.1-2.81 1.74-3.63 1.1-7.5 1.17l-23.29-.04-.38-85.42c-.03-13.14-.7-29.54.82-42.56.52-4.42 6.24-8.02 9.69-10.33"/><path fill="#78859c" d="M555.592 1599.04c18.406 1.37 46.711-.03 65.945.25 54.576.78 110.828-1.32 165.315.56 6.172 5.44 13.248 10.66 19.81 15.7l-21.258.24-156.234-.21c-31.758-.08-66.417.29-97.911-.97 10.444-5.17 15.231-8.37 24.333-15.57"/><path fill="#7a8197" d="M1241.72 901.291c1.45.39 2.02.694 3.4 1.284 1.92 10.015-68.52 302.815-77.32 349.485-90.27-9.96-184.894-11.68-274.609-20.96-2.714-.05-1.779.08-4.339-.81-1.528-2.95-1.409-1.48-.573-4.53 4.283-2.94 22.639-.43 28.976.03l54.266 3.86c63.879 4.27 127.729 8.92 191.559 13.96 14.42-68.45 31.6-137.94 47.15-206.42l19.96-87.903c3.29-14.304 7.34-34.201 11.53-47.996"/><path fill="#78859c" d="M1268.56 1599.11c61.12.79 122.44-.5 183.58-.01 14.25.11 28.37-.18 42.62.65 7.71 5.82 12.43 9.37 21.32 13.08l-1.7 2.5c-19-.92-51.43.29-71.39.25l-193.04-.32z"/><path fill="#fff" d="M503.775 1320.07c7.383.01 17.646 1.82 18.526 11.23 1.297 13.85.73 28.76.724 42.76l.055 84.02-13.33.16-16.421.03q.416-35.82.279-71.64c-.176-17.23-1.267-38.42.492-55.48.527-5.11 5.616-8.51 9.675-11.08"/><path fill="#78859c" d="M497.745 1463.5c14.343.11 83.047-2.92 90.095 2.35 2.761 2.07 4.046 5.31 4.284 8.67.236 3.32-.798 6.09-3.059 8.55-7.98 8.69-51.512 4.94-64.565 4.86l-56.586.26c-11.897.05-53.055 4.66-38.702-19.57 4.606-7.77 58.212-5.07 68.533-5.12m1150.735 459.66c34.44-2.86 81.55-1.5 116.6-1.19 16.04 12.18 23.1 17.2 42.31 24.18.6.1 1.7.11 2.15.65.66.79-1.07 1.12-1.44 1.14-3.85.22-7.72.09-11.57-.06l-140.35-.02c-9.77-1.25-42.16.55-47.03-2.22 18.69-4.17 26.03-8.9 39.33-22.48"/><path fill="#616574" d="M1807.39 1946.15c.6.1 1.7.11 2.15.65.66.79-1.07 1.12-1.44 1.14-3.85.22-7.72.09-11.57-.06 4.38-.58 6.53-.62 10.86-1.73"/><path fill="#78859c" d="M1471.27 1463.3c38.18 1.44 105.52-.98 145.08 1.5 8.27.52 12.71 18.39-4.26 23.1-20.54-.21-139.55 2.41-148.45-2.15-3.12-1.59-5.34-4.36-6.15-7.77-.78-3.26.36-7.59 2.5-10.12 2.94-3.47 7.08-3.93 11.28-4.56"/><path fill="#7a8197" d="m1219.34 853.505 2.09 1.572c2.15 5.886-72.35 321.903-80.08 355.273l-192.885-13.13c-38.136-2.86-81.188-7.94-118.432-8.42-3.614-.99-2.285-.01-4.448-2.51l.384-1.48c2.124-1.71 4.779-2.16 7.474-2.04 101.463 4.33 203.717 16.01 305.017 19.8 2.84-9.35 5.42-22.84 7.72-32.67 5.84-24.2 11.34-48.49 16.49-72.85 10.87-50.44 24.19-102.181 35.71-152.689 5.96-26.117 13.68-66.25 20.96-90.856"/><path fill="#e19656" d="m106.923 1761.97 138.226.73 43.048.13c5.13 0 22.968-1.32 25.487 1.89l-.528 4.29c-7.548 4.07-55.376-1.28-61.884 1.33-.46 2.96-.624 1.49 1.299 4.4l3.179.37c9.965.01 49.944-.49 57.38 1.28 1.359 3.16 1.096 1.53.59 5.11-.57.47-1.139.95-1.709 1.43-56.309-.92-154.243-.85-205.109-.84zm1628.127.13c48.1.74 96.62.1 144.7.56 9.57.09 54.65-.82 60.55 1.18 1.06 2.37.71 2.72.43 5.4-6.24 2.88-52.58-1.82-60.57 2.39l-.05 1.89c2.97 2.16 3.21 1.43 7.64 1.69 9.56.07 50.74-1.76 54.77 4.51-2.71 4.97-21.81 3.08-27.5 3.02l-44.31-.4-135.65-.04z"/><path fill="#7a8197" d="M1233.54 886.185c1.83.555 2.5.856 4.25 1.593.93 3.38-19.04 84.831-20.96 93.208l-58.67 256.274c-23.43-.26-55.21-4.17-79.47-5.59-62.02-3.63-125.476-10.1-187.464-12.89-3.019-.83-2.956-1.54-3.402-4.12l1.486-1.99c2.078-.85 2.787-1.13 5.131-.96 55.189 3.97 110.499 7.68 165.689 11.49l55.11 3.82c11.3.79 28.1 1.54 38.78 4.08 4.81-24.33 11.82-51.4 17.38-75.83l41.98-182.696c6.67-28.84 14.05-57.415 20.16-86.389"/><path fill="#7a8197" d="m1225.74 870.378 3.88 1.492c2.75 5.793-64.29 274.42-68.2 300.85-1.03 6.94-10.16 40.8-11.83 51.59-84.63-8.28-172.692-10.87-257.556-18.28-2.242-.21-1.177.12-3.038-1.49-.64-3.99-1.046-2.27.686-5.44 3.215-1.62 15.066.25 19.323.58l50.69 3.8 185.485 13.25c19.93-75.16 36.51-154.98 54.06-230.921 8.65-37.429 19.25-78.256 26.5-115.431"/><path fill="#78859c" d="M1141.15 1921.86c20.92-.52 41.85-.75 62.79-.68 14.96-.04 31.27-.54 46.02 1.4-3.59 7.55-8.18 15.46-6.7 23.61l-1.15 1.95c-28.42-1.17-65.01-.18-94.11-.2-1.04-11.29-2.97-15.47-6.85-26.08"/><path fill="#f2393b" d="M845.34 1194.93c12.298.34 25.264 1.16 37.63 1.69-1.794 21.33-.805 50.93-.663 72.81-3.951-3.14-7.611-6.31-11.671-9.43-3.369-2.93-6.112-5.21-9.393-8.31-6.633 8.58-9.666 10.85-17.997 17.97-.513-28.96.469-46.4 2.094-74.73"/><path fill="#e19656" d="m1472.65 1493.03 91.01-.03c9.61 0 37.42-.53 45.56 1.24.28 4.23-.41 9.33-.16 14.51-4.94 3.02-119.87.77-136.28.63z"/><path fill="#2c1a16" d="M1609.22 1494.24c.28 4.23-.41 9.33-.16 14.51-2.34-8.82-1.99-4.64-10.86-5.64-9.91-.22-20.96.21-30.71-.27-1.97.05-1.77-4.45-.88-4.54 12.87-1.25 26.91.36 39.94-.43 1.44-.09 2.36-3 2.67-3.63"/><path fill="#e19656" d="m441 1493.07 88.497-.03c10.711 0 39.715-.59 48.773.98-.312 2.97-2.009 13.76-2.928 16.1l-134.374-1.13z"/><path fill="#2c1a16" d="M578.27 1494.02c-.312 2.97-2.009 13.76-2.928 16.1.018.11-.412-2.28-.336-2.24.035.01-.11-3.49-.476-3.56-11.046-2.23-27.376.11-39.004-1.15-.883-.1-1.387-1.59-1.344-1.53-.375-.56.186-2.76.478-2.87 9.153-3.19 29.987.47 40.723-1.12 1.074-.16 2.786-3.47 2.887-3.63"/><path fill="#7a8197" d="M826.196 1169.85c87.198 5.21 174.364 10.95 261.494 17.23 6.02.42 46.13 2.53 48.03 4.34l-1.18 5.56c-21.92.09-61.84-3.99-85.14-5.62l-160.318-10.65c-15.796-1-43.941-2.74-61.108-3.96-.504-.44-1.007-.88-1.511-1.31z"/><path fill="#78859c" d="m1392.61 513.93 2.07 3.526c-3.37 21.035-7.15 39.812-11.5 60.614-12.67-6.299-15.62-6.185-29.76-6.033 18.07-18.232 30.59-33.336 39.19-58.107m271.76 1358.13c27.57.4 23.5 26.09 3.81 39.25-2.57 1.16-6.95 3.11-9.68 3.65l-5.87 1.14c9.07-19.18 8-24.61 11.74-44.04M658.783 523.374l2.952-2.332c7.924 20.06 21.78 37.191 37.245 51.949-11.481-1.542-19.393-.493-30.517 1.944-3.683-15.424-7.27-35.827-9.68-51.561"/><path fill="#444646" d="M1243.26 1946.19c27.08-1.3 66.8.08 94.67.13l178.22-.08c24.78.02 69.65 1.36 93-.6 4.87 2.77 37.26.97 47.03 2.22-9.75.87-33.14.17-43.67.17l-87.78-.07-282.62.18z"/><path fill="#7a8197" d="M825.338 1193.83c12.478.61 14.658-2.71 13.524 8.05-9.193-.69-14.159 2.57-13.605-6.24zm-2.303 13c11.298-.14 14.216-3.03 16.124 6.34-11.049.27-14.342 3.15-16.124-6.34"/><path fill="#616574" d="m1395.26 480.289 2.84-.972c.08 7.823-1.81 30.828-3.42 38.139l-2.07-3.526c1.93-13.916 4.25-18.672 2.65-33.641m-736.477 43.085c-.714-2.641-3.421-16.971-2.149-18.417.439.146 4.71 14.906 5.101 16.085z"/><path fill="#7a8197" d="M1516.95 1894.39c.89.6 3.14 1.72 3.29 3.03-.83 1.04-5.07.25-6.11.12z"/><path fill="#444646" d="m654.227 483.837 1.404-.831c.112 1.111.533 2.873-.567 3.622-1.017-.272-.772-2.063-.837-2.791"/><path fill="#7a8197" d="M1516.08 1612.83c1.15.47 1.33.46 2.22 1.22.12.36.14.23.04.43-.99.71-2.8.66-3.96.85z"/><metadata><recraft-signature>{&quot;signed_by&quot;: &quot;recraft&quot;, &quot;signature_b64&quot;: &quot;FL+dwXAFQV7nv9vYAJvrjj8gaEMCuYvSLncWxoQbWsAudBdR7NoxOV/nm2EUXRgC9rnsqASUIBrpmojlg32jCQ==&quot;, &quot;signing_algo&quot;: &quot;Ed25519&quot;, &quot;generation_timestamp&quot;: 1777254211, &quot;identifier&quot;: &quot;47e9afa0-45bb-4fbf-9984-5ee5fad911b2&quot;}</recraft-signature></metadata></svg>