<svg xmlns="http://www.w3.org/2000/svg" width="1024" height="1024" preserveAspectRatio="none" style="display:block" viewBox="0 0 2048 2048"><defs><linearGradient id="a" x1="1485.23" x2="1454.16" y1="1129.62" y2="1138.71" gradientUnits="userSpaceOnUse"><stop class="stop0" offset="0" stop-color="#c1964f"/><stop class="stop1" offset="1" stop-color="#e7a758"/></linearGradient></defs><path fill="#fdfdfd" d="M729.59 748.502c28.52-43.268 55.46-77.529 98.62-108.259 29.317-20.873 78.051-44.789 115.037-38.3 9.2.763 16.507 1.583 24.887 6.045 3.767 5.799 4.881 8.145 7.674 14.476-16.703 11.024-34.422 24.841-47.946 39.671-36.457 39.978-63.381 96.948-74.163 149.587a354 354 0 0 0-2.734 14.508c2.6-4.309 8.975-33.18 11.48-40.576 16.066-47.435 42.217-97.731 80.408-130.476 2.648-4.111 32.927-28.009 36.832-23.609 9.708 23.567 26.685 32.487 51.845 25.682 3.2-.867 6.55-2.996 9.79-3.17.21 4.99-1.28 1.923-1.52 4.87-.38 4.794 2.37 13.052 3.93 17.358l1.3 1.63 2.36-.762-.58.657c-.15 2.179.14 1.181-.8 3.015 10.82 14.116 19.63 8.574 34.04 12.235 1.37.348 6.48 5.8 9.17 5.541 8.88 1.783 17.98 1.398 26.87 2.127-19.9 28.104-35.22 57.231-38.66 92.457.23 2.167.96 2.582 2.3 4.309 3.97-12.281 10.65-39.959 19.66-48.617l1.21-1.193c21.06-42.93 43.92-57.6 88.02-73.67 4.97 26.316-5.43 37.872-22.66 55.631-6.18.471-11.82-1.451-17.78-3.135 4.37 4.66 5.32 6.341 11.12 9.134-34.46 62.277-33.93 128.889-14.61 195.943a343.2 343.2 0 0 0 162.18 202.679c10.58 5.75 21.2 11.44 31.85 17.07l2.98-.15c10.78 4.41 23.11 8.27 34.24 11.91 61.52 20.11 122.07 42.22 183.88 61.47l93.84 28.48c33.26 9.95 71.61 21.59 105.58 27.4 98.89 16.94 192.59 4.79 284.53-33.79 1.43-.58 2.84-1.19 4.23-1.84V2048H0v-655.05c58.266.45 92.532-2.03 149.576-15.05a671.4 671.4 0 0 0 359.252-218.99c52.321-61.82 88.417-124.19 123.086-196.994 24.97-49.808 38.71-104.109 64.215-153.547 4.689-9.089 9.796-22.123 15.305-30.42 3.836-8.977 10.57-21.979 15.977-30.287z"/><path fill="#455765" d="M729.59 748.502c28.52-43.268 55.46-77.529 98.62-108.259 29.317-20.873 78.051-44.789 115.037-38.3 9.2.763 16.507 1.583 24.887 6.045 3.767 5.799 4.881 8.145 7.674 14.476-16.703 11.024-34.422 24.841-47.946 39.671-36.457 39.978-63.381 96.948-74.163 149.587a354 354 0 0 0-2.734 14.508c2.6-4.309 8.975-33.18 11.48-40.576 16.066-47.435 42.217-97.731 80.408-130.476 2.648-4.111 32.927-28.009 36.832-23.609 9.708 23.567 26.685 32.487 51.845 25.682 3.2-.867 6.55-2.996 9.79-3.17.21 4.99-1.28 1.923-1.52 4.87-.38 4.794 2.37 13.052 3.93 17.358l1.3 1.63 2.36-.762-.58.657c-.15 2.179.14 1.181-.8 3.015 10.82 14.116 19.63 8.574 34.04 12.235 1.37.348 6.48 5.8 9.17 5.541 8.88 1.783 17.98 1.398 26.87 2.127-19.9 28.104-35.22 57.231-38.66 92.457.23 2.167.96 2.582 2.3 4.309 3.97-12.281 10.65-39.959 19.66-48.617l1.21-1.193c21.06-42.93 43.92-57.6 88.02-73.67 4.97 26.316-5.43 37.872-22.66 55.631-6.18.471-11.82-1.451-17.78-3.135 4.37 4.66 5.32 6.341 11.12 9.134-34.46 62.277-33.93 128.889-14.61 195.943a343.2 343.2 0 0 0 162.18 202.679c10.58 5.75 21.2 11.44 31.85 17.07l2.98-.15c10.78 4.41 23.11 8.27 34.24 11.91 61.52 20.11 122.07 42.22 183.88 61.47l93.84 28.48c33.26 9.95 71.61 21.59 105.58 27.4 98.89 16.94 192.59 4.79 284.53-33.79 1.43-.58 2.84-1.19 4.23-1.84v268.88c-48.6-3.05-99.52-9.44-145.31-26.4-48.35-17.91-97.21-42.14-143.15-65.54a8065 8065 0 0 1-163.4-85.95c-53.2-29.02-104.13-58.84-162.47-75.61 1.07 4.2 2.25 8.23 3.97 12.22 18.31 42.34 115.81 103.48 157.61 125.38 27.17 14.23 54.5 25.86 83.18 36.68l-.66 2.11c-13.94-3.09-29.67-5.75-43.19-9.56-73.87-20.85-156.08-55.97-215.87-104.42a401 401 0 0 1-44.18-41.24c-10.7-11.76-19.92-26.19-31.65-36.07-8.3-7-22.4-3.68-23.02 8.56-1.06 20.95 15.68 40.98 27.7 56.65 55.86 68.1 140.79 126.12 224.24 153.68l-4.41 3.05a399.5 399.5 0 0 1-163.46-60.41c-39.24-24.86-76.33-55.58-110.86-86.59-17.66-15.86-31.08-33.64-51.5-47.35-13.82-9.28-27.22-16.98-44.12-19.69-3.53-.56-6.75.17-9.62 2.21-4.18 3-7.33 11.05-7.25 16.01.61 39.94 54.1 94.2 78.66 121.52 62.51 69.51 143.45 123.02 228.48 160.58l-4.2 1.9c-115.49-25.86-230.15-57.96-316.89-143.26-27.42-26.96-48.81-56.56-75.73-83.38-14.53-14.47-37.34-25.23-56.16-12.56-17.89 11.53-20.5 38.59-28.46 57.44-17.987 42.58-43.408 84.1-81.236 111.79-23.661 16.61-66.475 33.8-93.333 45.11-28.817 12.14-91.324 30.9-122.231 31.56q-4.349-.585-8.713-1.02c65.124-28.51 137.064-64.21 183.968-120.31 16.381-19.59 47.712-73.92 19.795-99.32-4.044-3.68-14.162-5.7-19.796-5.21-40.932 3.57-61.678 41.47-88.939 66.58a401 401 0 0 1-59.99 44.77c-53.675 32.38-107.434 49.6-168.475 60.91-3.444-.64-3.451-.51-6.446-2.18 13.109-5.61 28.475-10.89 41.332-17.16 49.026-23.9 101.255-53.54 139.506-92.97 14.917-16.26 39.704-46.18 39.111-69.78-.578-23.01-30.122-13.74-42.152-6.49-26.849 16.18-43.01 39.8-67.022 59.23-64.562 52.24-141.502 78.31-222.332 92.28l-1.829-1.92c44.84-18.69 85.963-41.58 127.499-67.44 30.763-19.15 71.423-40.25 87.603-75.13 2.733-5.89 4.77-20.84-4.059-22.61-27.207-5.57-49.978 19.24-69.034 34.38a709 709 0 0 1-53.787 38.24c-58.422 36.83-118.743 63.92-179.684 95-105.608 53.85-192.31 120.1-316.498 123.21-4.089-.39-6.019.35-9.428-1.77 105.451-21.1 200.38-87.86 290.293-143.49 57.648-35.66 117.749-66.45 175.742-101.15 20.696-12.38 52.502-37.81 67.932-55.46-69.298 9.67-119.338 47.97-178.097 81.36-93.823 53.32-189.794 109.21-295.27 135.9-31.131 7.88-59.03 11.39-90.71 14.35v-131.99c58.266.45 92.532-2.03 149.576-15.05a671.4 671.4 0 0 0 359.252-218.99c52.321-61.82 88.417-124.19 123.086-196.994 24.97-49.808 38.71-104.109 64.215-153.547 4.689-9.089 9.796-22.123 15.305-30.42 3.836-8.977 10.57-21.979 15.977-30.287z"/><path fill="#d99f54" d="M729.59 748.502c28.52-43.268 55.46-77.529 98.62-108.259 29.317-20.873 78.051-44.789 115.037-38.3-138.222 10.853-203.938 166.122-246.085 279.394-12.559 33.75-23.11 67.324-37.561 100.557-99.133 234.236-319.695 394.426-573.108 416.236-26.194 2.18-60.302 3.89-86.493 2.09v-7.27c58.266.45 92.532-2.03 149.576-15.05a671.4 671.4 0 0 0 359.252-218.99c52.321-61.82 88.417-124.19 123.086-196.994 24.97-49.808 38.71-104.109 64.215-153.547 4.689-9.089 9.796-22.123 15.305-30.42 3.836-8.977 10.57-21.979 15.977-30.287z"/><path fill="#efe6d8" d="M711.434 777.949c3.836-8.977 10.57-21.979 15.977-30.287l2.179.84c-3.407 5.945-14.485 25.599-18.156 29.447"/><path fill="#d99f54" d="M942.853 655.178c5.646 4.329-11.152 7.99-7.021 12.981-20.499 26.683-36.677 51.576-47.426 84.021-48.589 146.668 9.321 309.58 131.664 401.27 54.27 40.67 114.44 66.76 179.22 85.84-14.86.49-37.62-4.84-52.32-7.6-74.15-13.91-147.929-47.88-203.246-99.8-63.562-59.66-96.573-139.347-98.092-226.176-.41-23.399-.227-56.908 5.333-79.484 2.6-4.309 8.975-33.18 11.48-40.576 16.066-47.435 42.217-97.731 80.408-130.476"/><path fill="#fdfdfd" d="M2048 1459.07c-12.11-.18-24.08-1.69-36.06-2.61-99.39-7.6-192.69-46.18-278.66-94.76-10.37-5.86-25.07-13.19-33.57-21.26 109.18 44.69 230.28 70.84 348.29 52.74z"/><path fill="#d99f54" d="m1338.72 1151.36 2.98-.15c10.78 4.41 23.11 8.27 34.24 11.91 61.52 20.11 122.07 42.22 183.88 61.47l93.84 28.48c33.26 9.95 71.61 21.59 105.58 27.4 98.89 16.94 192.59 4.79 284.53-33.79 1.43-.58 2.84-1.19 4.23-1.84v26.25c-29.2 13.08-67.65 22.91-99.15 27.44a556.2 556.2 0 0 1-164.4-2.28 750 750 0 0 1-65.65-13.96c-20.35-5.44-41.81-12.88-62.12-19a4242 4242 0 0 1-220.02-71.22c-19.87-6.98-82.41-29.08-97.94-40.71m-262.14-333.239c3.58-6.341 4.09-20.913 6.09-23.359l.14.076c.96 5.076-3.79 12.22-1.1 20.557-.31 16.816-1.54 33.261.18 50.09 15.86 155.835 130.77 278.995 273.61 331.965l-.96 2.14c-182.86-50.78-288.29-183.59-280.31-375.824 1.44-2.375 1.21-3.547 2.35-5.645"/><path fill="#fdfdfd" d="m207.095 1429.09.832 1.9c-51.797 18.47-103.192 35.53-157.084 47.15-15.04 3.24-35.526 7.7-50.843 9.23v-38.01c57.05-.24 152.868-2.04 207.095-20.27"/><path fill="#d99f54" d="m1043.73 676.309 1.3 1.63 2.36-.762-.58.657c-.15 2.179.14 1.181-.8 3.015-2 .926-5.31 6.405-6.87 8.442-106.501 138.553-37.49 382.519 123.74 445.899l-1.16 2.48c-77.57-26.03-131.89-91.19-160.31-165.924-35.33-92.924-29.061-221.012 42.32-295.437"/><path fill="#e4ad5c" d="M1079.73 797.518c3.97-12.281 10.65-39.959 19.66-48.617l1.21-1.193c-1.71 6.258-4.7 11.706-7.03 17.769-6.28 16.343-9.38 32.678-11.86 49.918-2.69-8.337 2.06-15.481 1.1-20.557l-.14-.076c-2 2.446-2.51 17.018-6.09 23.359.59-7.374 2.04-13.438 3.15-20.603m-136.877-142.34c2.648-4.111 32.927-28.009 36.832-23.609-11.245 8.499-22.562 15.237-32.576 25.569-1.745 1.801-9.897 10.184-11.277 11.021-4.131-4.991 12.667-8.652 7.021-12.981"/><path fill="#efe6d8" d="M1074.23 823.766c.19-6.339 1.32-24.908 3.2-30.557.23 2.167.96 2.582 2.3 4.309-1.11 7.165-2.56 13.229-3.15 20.603-1.14 2.098-.91 3.27-2.35 5.645"/><path fill="#ca9853" d="M1162.88 1135.19c3.33 1.01 6.77 2.39 10.14 3.52l-5.58.5c-2.45-.84-3.19-1.1-5.72-1.54z"/><path fill="#a3885f" d="M1355.5 1197.45c4.51.99 8.85 2.75 13.18 4.33-6.18-.71-8.25-1.12-14.14-2.19z"/><path fill="#97999d" d="M207.095 1429.09c4.659-1.69 7.6-2.4 12.424-3.56-4.488 2.29-6.695 3.76-11.592 5.46z"/><path fill="#8d7d62" d="M1173.02 1138.71c1.03.2 1.79.33 2.76.76l.38.79.6.11.05.05c-1.51 1.37-7.53-.74-9.37-1.21z"/><path fill="#d99f54" d="m841.249 708.776 1.834 2.21c-91.126 130.039-172.663 404.644-11.93 514.644a240 240 0 0 0 22.213 13.23l-1.906 1.54c-27.113-10.48-52.803-26.7-71.075-49.52-52.438-65.5-54.671-136.84-47.412-214.899l-2.862.021c-44.553 113.148-102.102 195.258-204.086 262.208l-.733-2.06c104.618-83.11 171.845-177.5 211.518-305.98 25.276-81.857 48.516-154.535 104.439-221.394"/><path fill="#706b5e" d="M730.111 976.002c.7-2.211 1.711-5.104 2.602-7.246l-.327.689 1.193-1.772c.881 1.108-.408 6.755-.606 8.308z"/><path fill="#d99f54" d="m814.241 870.977 3.225.023c-4.497 19.845-5.801 41.805-7.03 62.081-4.162 68.669 4.879 135.939 42.301 195.419 31.387 49.89 81.991 86.2 138.283 103.55l-.916 2.54c-61.812-8.85-117.752-54.62-149.573-106.61-40.637-66.41-46.181-147.407-34.252-222.76 1.749-11.05 5.344-23.25 7.962-34.243"/><path fill="#a3885f" d="M814.241 870.977c.7-1.884 4.208-14.743 5.142-15.052 1.197 1.048-1.56 13.166-1.917 15.075z"/><path fill="#ca9853" d="M841.249 708.776c3.407-4.176 8.295-9.356 12.117-13.155-3.982 6.704-5.281 9.298-10.283 15.365zM991.02 1232.05c2.147.71 4.336 1.26 6.495 1.94l1.459.45c1.876.61 4.276 1.72 6.146 2.5-3.96-.59-11.375-1.31-15.016-2.35z"/><path fill="#a3885f" d="M853.366 1238.86c.981.45 5.535 2.17 5.693 3.46-1.03.83-6.463-1.49-7.599-1.92zm-327.341-.65c-6.21 3.43-5.732 1.33-.733-2.06z"/><path fill="#455765" d="M1345.99 1891.47c12.3-11.49 30.71-36.47 40.66-50.31 62.12-86.46 96.3-191.11 173.24-266.94 33.29-33.76 75.96-64.82 123.3-74.27 21.44-4.28 47.07-9.09 69.13-9.39 24.58-.34 46.75 5.84 64.55 23.77 30.24-2.97 51.01 3.16 66.77 30.97 27.35 7.01 42.9 30.95 43.91 58.34.32 8.7-.76 19.87-6.93 26.52l-.57-1.05c-2.02-3.79-3.17-4.59-6.02-7.92-.56 3.65-.58 3.74-2.04 7.11-2.73-2.57-9.16-9.3-12.76-10.19-1.26 6.1-3.23 9.85-5.82 15.43 10.96 10.07 14.57 19.37 16.89 33.48l-6.26 1.82c-.29-1.6-.63-3.25-.87-4.85-1.27-7.95-5-15.3-10.66-21.02-7.7-7.7-8.44 1.02-10.39-8.55-3.72-4.17-16.72-3.37-19.63-3.55-8.24-.51-4.57 2.54-7.09 8.05-4.04-.19-5.94 4.44-10.46 6.48-7.09 3.19-15.05 1.8-22.15 2.58-6.78-2.53-9.76-10.48-13.21-16.46-.21-3.77.59-2.43-1.43-4.73-4.35 1.16-14.54 14.16-19.07 18.47 4.16.77 5.09.19 7.66 2.57-2 5.81-14.32 12.17-19.67 18.72-30.52 37.39-27.27 93.34-6.55 134.68 49.79 99.32 174.26 135.8 277.48 133.69V2048H0v-93.46c83.162-33.19 133.923-109.35 171.652-186.62 27.429-56.17 49.308-123.64 110.522-151.51 22.28-10.14 40.556-10.61 63.053-2.07 6.759 37.73 34.578 49.53 68.304 33.18.209 8.13.424 12.61 5.626 18.76 12.61 14.82 25.955 7.27 30.31 11.68-2.185 11.68-9.4 25.24-12.534 37.73-9.679 38.58.937 85.03 22.979 117.67 34.171 50.61 90.005 77.44 148.609 88.34 10.947 2.04 23.632 3.62 34.802 3.39 12.132-9.28 26.702-17.21 39.143-26.62 11.747-8.87 22.645-20 34.382-28.23a491 491 0 0 0 64.455-86.07c32.098-53.31 57.011-111.11 94.176-161.6 34.188-46.44 76.783-85.25 131.701-105.46 51.39-18.9 110.4-26.64 161.9-3.86 23.13 10.24 45.45 31.05 54.28 55.12 39.2 11.34 50.95 48.73 48.04 85.77 2.32 2.88 4.78 1.09 3.39 5.23 12.29 35.83-13.41 75.79-50.85 80.15l-3.95-1.98c19.2-6.21 32.05-27.21 27.4-47.1-1.63-6.95-4.13-11.11-7.64-17.15-4.73 26.35-37.48 50.75-62.97 34.17-1.49-.97-2.4-1.21-2.73-2.85 5.23-1.59 12.01 1.34 17.25-.44 21.65-7.36 28.5-52.45-6.7-35.67 6.12-13.09 11.7-15.94 18.01-32.8l-2.12-3.22c-4.17 12.29-8.51 21.72-21.79 25.96-9.67 3.27-16.62-.93-24.86-4.48l-1.53-.08-1.03-1.4c-1.64-2.24-1.52-2.35-3.93-3.64l-.21-.33-2.83-.67c-2.02 1.88-7.53 7.35-8.32 9.76 4.6 2.06 6.28 3.57 10.4 5.99l.81 2.46c-22.86 15.21-36.57 35.13-41.39 62.6-20.91 119.32 93.57 185.38 197.23 193.58 14.5-7.52 29.14-20.82 42.95-30.76"/><path fill="#455765" d="M1203.42 2048c8.58-2.02 17.47-3.27 26.18-5.31 21.62-5.04 42.7-12.16 62.95-21.26 82.68-36.85 147.36-112.34 186.35-192.51 34.5-72.96 53.75-153.17 116.32-209.29 36.87-33.07 88.61-53.26 137.73-35.82 12.05 4.28 16.54 11.91 21.16 22.93-3.85 7.11-8.41 14.7-6.36 22.96 4.8 19.39 26.61 18.86 41.33 15.56 4.16.77 5.09.19 7.66 2.57-2 5.81-14.32 12.17-19.67 18.72-30.52 37.39-27.27 93.34-6.55 134.68 49.79 99.32 174.26 135.8 277.48 133.69V2048z"/><path fill="#d99f54" d="M2048 2009.81c-4 1.33-8.01 2.61-12.04 3.85-93.44 28.5-196.25 14.64-281.82-31.36-60.24-31.83-113.71-79.02-134.6-145.89-27.69-88.64 12.93-214.26 109.24-241.58-9.09 5.14-19.04 10.67-27.24 16.9-81.19 61.71-89.05 194.54-26.03 271.71 37 45.31 84.67 78.66 138.54 99.4 77.63 29.9 157.2 34.79 233.95.42z"/><path fill="#d99f54" d="M1948.41 1957.85c-15.81 3.58-39.27 4.18-55.23 2.95-111.22-8.66-206.53-114.93-197.65-227.09 3.02-38.15 21.53-80.01 51.14-104.9-4.16 8.14-12.79 19.65-18.02 28.45a181.1 181.1 0 0 0-24.81 91.8c.09 92.45 71.16 175.05 158.58 199.32 25.93 7.2 50.49 7.73 77.03 7.44 4.47.21 7.46-1.52 8.96 2.03m-566.17 51.71c5.54-4.72 12.49-8 18.64-11.95 6.96-4.45 13.47-9.33 19.81-14.63 52.34-43.44 73.46-96.04 95.61-157.94 5.66-15.79 18.3-50.82 27.94-63.7-29.71 77.98-53.91 183.69 28.46 238.22l-3.95 1.71c-47.96-21.91-62.08-72.95-59.28-122.02-.6-4.35-.05-4.82-1.99-8.43-23.52 57.09-54.84 109.62-114.9 134.81-3.4 1.43-6.85 2.74-10.34 3.93"/><path fill="#706b5e" d="M1507.48 1870.82c.9-3.51 3.21-9.48 4.52-12.91-1.17 8.13-1.68 13.37-2.53 21.34-.6-4.35-.05-4.82-1.99-8.43"/><path fill="#d99f54" d="m1611.41 1648.31 1.13 2.12c-66.69 100.29-89.06 316.36 58.69 356.61l-4.12 2.7c-16.72-2.69-32.7-8.8-46.94-17.96-66.81-43.38-74.34-136.6-62.12-208.23 8.5-49.89 25.58-93 53.36-135.24"/><path fill="#a3885f" d="M1939.45 1955.82c6.54-1.26 20.09-1.64 26.91-1.75-4.65 1.2-13.42 3.7-17.95 3.78-1.5-3.55-4.49-1.82-8.96-2.03"/><path fill="#706b5e" d="M1611.41 1648.31c6.43-15.26 14.33-14.13 1.13 2.12z"/><path fill="#ca9853" d="M1671.23 2007.04c4.66 1.66 8.09 2.44 12.77 4.53l-15-1.52c-.81-.07-1.08-.15-1.89-.31zm-98.53-7.48c1.01.52 4.05 1.75 4.49 3.03-.52 1.5-7.18-.98-8.44-1.32z"/><path fill="#d99f54" d="M1643.84 1540.68c45.52-12.24 84.17-17.09 127.67 7.75 18.63 10.65 39.67 27.59 45.73 49.45 2.69 14.89-3.7 31.17 12.1 40.83 8.19 5.01 15.54.2 19.27-7.73 13.03-27.68-5.09-56.05-26.33-72.58l1.05-2.77c27.89 15.57 38.91 40 36.25 71.11 12.67-1.85 18.61-.83 29.97 4.72 7.5-20.99 4.11-43.78-10.61-60.84l1.51-2.13c10.15 9.41 16.38 19.82 19.64 33.39-.53 5.76-.19 10.36-.86 16.23-1.26 6.1-3.23 9.85-5.82 15.43 10.96 10.07 14.57 19.37 16.89 33.48l-6.26 1.82c-.29-1.6-.63-3.25-.87-4.85-1.27-7.95-5-15.3-10.66-21.02-7.7-7.7-8.44 1.02-10.39-8.55-3.72-4.17-16.72-3.37-19.63-3.55-8.24-.51-4.57 2.54-7.09 8.05-4.04-.19-5.94 4.44-10.46 6.48-7.09 3.19-15.05 1.8-22.15 2.58-6.78-2.53-9.76-10.48-13.21-16.46-.21-3.77.59-2.43-1.43-4.73-4.35 1.16-14.54 14.16-19.07 18.47-14.72 3.3-36.53 3.83-41.33-15.56-2.05-8.26 2.51-15.85 6.36-22.96-4.62-11.02-9.11-18.65-21.16-22.93-49.12-17.44-100.86 2.75-137.73 35.82-62.57 56.12-81.82 136.33-116.32 209.29-38.99 80.17-103.67 155.66-186.35 192.51a344 344 0 0 1-62.95 21.26c-8.71 2.04-17.6 3.29-26.18 5.31h-15.69c8.48-3.52 24.29-6.98 33.72-10.05 13.52-4.39 24.29-8.84 37.12-14.45 104.73-45.82 167.43-129.62 214.37-231.19 20.88-45.17 36.18-90.63 64.44-132.41 30.72-45.42 68.8-83.53 124.67-94.93 27.54-5.62 60.38-2.78 84.66 12.66 11.29 7.18 20.31 20.58 18.01 34.7-1.12 4.96-6.33 9.62-4.69 15.08 3.25 10.84 15.56 13.64 25.37 10.26 9.23-3.18 12.76-8.11 16.93-16.55 4.04-8.19 6.67-16.96 3.24-26.05-8.53-20.4-34.51-38.62-53.76-47.39-28.2-12.84-54.69-14.65-84.89-9.88-6.34 1.01-16.14 2.58-21.77 4.68zm-555.47-3.52c24.5 9.71 48.96 26.53 60.2 51.26 4.67 10.27 8.71 33.52 3.63 43.6-.06 2.81-.21 5.43.03 8.22-1.11 1.44-1.54 1.75-2.13 3.26-.98 3-.88 2.79-2.96 5.01l-2.83-.67c-2.02 1.88-7.53 7.35-8.32 9.76-22.01 2.25-31.64-6.98-38.15-27.25l-1.4.52c-8.5 3.1-15.51 4.31-24.27.6-12.03-5.1-15.54-18.22-22.59-26.09-13.35-14.95-46.39-10.04-63.432-4.15-53.727 18.59-91.815 72.03-115.649 121.58-16.054 33.37-27.923 65.77-45.903 98.77a391.5 391.5 0 0 1-213.399 183.88c-26.329 9.15-72.914 20.27-100.811 20.62-4.323-.28-12.445 1.52-13.494-1.78 15.454-1.63 34.374-5.73 49.413-9.29 119.593-28.28 211.606-115.66 269.732-221.11 20.11-35.21 34.731-73.63 55.377-108.55 15.856-25.96 32.952-46.71 56.058-67.02 30.767-27.05 99.168-54.37 132.298-17.11 5.08 5.72 8.14 16.67 16.08 21.03 5.24 2.88 13.29 2.3 19.11.91 34.77-15.07 1.49-43.56-16.56-51.45-34-14.86-75.47-14.51-108.909-2.32l-1.838-1.72c38.327-13.61 78.167-18.39 116.267-.31 24.18 11.48 45.54 32.47 23.46 58.36 1.39 8.59 2.78 16.04 10.59 21.52 3.68 2.63 8.27 3.63 12.71 2.76 9.97-1.91 13.2-10.21 16.62-18.43 10.7-39.28-24.16-80.11-59.16-92.62z"/><path fill="#eff2f4" d="M1144.31 1647.84c.94-2.23 1.6-4.87 3.09-6.81.6-.79 1.69-.1 1.89.63.27.61.54 1.22.81 1.84-.98 3-.88 2.79-2.96 5.01z"/><path fill="#d99f54" d="M1345.99 1891.47c-6.09 8.54-22.28 23.08-30.56 30.43-71.68 63.68-166.84 96.34-259.92 112.62-44.83 7.84-80.294 10.23-125.495 10.4-4.693-.56-4.66.25-8.143-2.71 16.26-.26 43.724-3.9 60.59-5.98 93.798-11.54 188.698-34.84 271.408-81.85 16.19-9.2 34.78-20.32 49.17-32.15 14.5-7.52 29.14-20.82 42.95-30.76m-702.667 33.62c12.132-9.28 26.702-17.21 39.143-26.62 11.747-8.87 22.645-20 34.382-28.23-5.654 8.91-19.528 20.6-27.848 27.95a420.66 420.66 0 0 1-187.842 93.74 507.6 507.6 0 0 1-76.355 10.47c-1.309-.58-1.389-.87-2.597-2.03 62.806-6.24 169.59-37.47 221.117-75.28m522.387-370.74c19.49 13.92 35.28 32.26 38.01 56.98-1.81.27-2.62 17.39-3.23 21.15-4.17 12.29-8.51 21.72-21.79 25.96 2.46-2.54 2.77-2.28 3.3-5.7 32.7-25.52 11.45-78.94-18.04-96.96zm48.79 38.2c19.14 8.09 34.74 20.13 38.67 41.94.42 2.26.87 4.52 1.33 6.77 2.61 1.41 4.39.89 5.53 3.88-1.66 2.55-1.56 2.45-2.34 5.5-1.08-.59-4.78-2.87-5.18-2.25-1.38 2.17-7.88 11.9-9.34 13.97 2.8-14.55 6.79-16.83 1.61-33.34-5.22-16.69-15.83-26.77-30.9-34.75z"/><path fill="#ca9853" d="M1260.03 1645.14c7.39 4.79 5.23 4.31 10.31 11.13.33-.97.42-.97 1.06-2.13 2.32 2.88 4.78 1.09 3.39 5.23-1.05 4.99-.82 5.26-.86 10.41-.91 3.07-1.42 9.27-2.97 11.66-6.91 10.51-1.62-7.67-2.27-9.93-2.99-10.34-2.59-14.52-11-20.87.78-3.05.68-2.95 2.34-5.5"/><path fill="#eff2f4" d="M1270.34 1656.27c.33-.97.42-.97 1.06-2.13 2.32 2.88 4.78 1.09 3.39 5.23-1.05 4.99-.82 5.26-.86 10.41-8.14-10.06-4.04-3.65-3.59-13.51"/><path fill="#ca9853" d="M1152.23 1640.24c1.74 3.88 6.6 10.95 6.71 11.28 10 4.08 12.55 4.99 23.06 1.22-.53 3.42-.84 3.16-3.3 5.7-9.67 3.27-16.62-.93-24.86-4.48l-1.53-.08-1.03-1.4c-1.64-2.24-1.52-2.35-3.93-3.64l-.21-.33c2.08-2.22 1.98-2.01 2.96-5.01.59-1.51 1.02-1.82 2.13-3.26m747.86-38.36c.43 2.04.74 10.04 1.5 10.48 5.34 3.09 7.84 4.46 12.44 8.83-.56 3.65-.58 3.74-2.04 7.11-2.73-2.57-9.16-9.3-12.76-10.19.67-5.87.33-10.47.86-16.23"/><path fill="#a3885f" d="M930.015 2044.92c-3.918.18-35.235.37-36.437-.56 1.145-1.92 25.118-2.44 28.294-2.15 3.483 2.96 3.45 2.15 8.143 2.71m-455.025-18.86c5.901-.56 16.339-2.01 21.902-1.76 1.049 3.3 9.171 1.5 13.494 1.78-8.944 1.79-26.487 1.48-35.396-.02"/><path fill="#efe6d8" d="M1200.49 1632.48c.61-3.76 1.42-20.88 3.23-21.15 1.03 12.26.6 13.06-1.11 24.37z"/><path fill="#8d7d62" d="M1163.96 1555.78c-2.06-1.36-18.99-10.88-19.06-11.2l.23-.21.43.39.63-.32-.25.53.57-.44c7.54 2.79 12.68 4.96 19.2 9.82z"/><path fill="#a3885f" d="M1822.28 1558.4c-1.78-.96-17.14-8.08-17.12-8.06l.06-.11c3.33-1.18 15.09 3.82 18.11 5.4z"/><path fill="#8d7d62" d="M424.803 2002.4c-1.852.7-15.104 1.53-17.572 1.12l-.037-.08.077-.19-.037-.05c1.096-1.59 12.861-2.56 14.972-2.83 1.208 1.16 1.288 1.45 2.597 2.03"/><path fill="#706b5e" d="M1088.14 1538.95c-1.03-.31-14.49-4.35-13.41-6.1 3.11-.34 10.8 2.8 13.64 4.31z"/><path fill="#8d7d62" d="M969.491 1569.39c-1.75.5-13.046 4.67-13.707 3.96-.39-1.87 10.031-5.44 11.869-5.68z"/><path fill="#ca9853" d="M1865.1 1559.08c5.31 2.82 10.67 5.59 15.35 9.41l-1.51 2.13c-4.6-3.99-9.14-7.68-13.84-11.54"/><path fill="#8d7d62" d="M1213.88 1594.27c-6.97-3.41-4.56-4.43.62-1.72zm431.27-51.79c-5.77 1.28-8.11-.3-1.31-1.8z"/><path fill="#d99f54" d="M298.825 1648.38c-.493 1.88-.959 3.76-1.4 5.65-8.028 10.71-17.173 22.38-23.474 34.17-21.832 40.85-30.59 86.47-24.284 132.42 11.981 87.3 88.716 133.21 163.688 162.71l2.164.78c.617.22 1.234.43 1.852.65.103-.15 2.52 1.37 1.838 1.67-2.84 1.28-7.556-.74-10.761-.34-1.1.15-2.523-.43-3.23-.8-.854-.02-1.709-.05-2.564-.08-103.959-11.3-191.37-88.35-178.006-199.11 6.914-57.3 29.16-100.99 74.177-137.72"/><path fill="#ca9853" d="m413.355 1983.33 2.164.78c.617.22 1.234.43 1.852.65.103-.15 2.52 1.37 1.838 1.67-2.84 1.28-7.556-.74-10.761-.34-1.1.15-2.523-.43-3.23-.8 3.18-.48 4.363 1.01 6.907-1.01z"/><path fill="#d99f54" d="m1043.49 1617.84 1.09.37.26 1.09c-43.26 22.99-70.178 64.91-76.94 112.86-14.988 106.26 67.41 189.37 161.54 221.35 21.17 7.2 41.22 10.42 62.97 13.56-5.38.69-11.34 1.14-16.79 1.66a280.8 280.8 0 0 1-95.92-19.98c-52.33-21.51-93.367-56.05-115.952-108.81-33.01-77.11-2.116-189.45 79.742-222.1m-100.445 34.58 1.191 1.98c-19.394 32.7-32.051 64.91-46.445 100.06-20.127 49.15-40.485 99.31-26.866 153.49 8.363 33.28 28.696 55.88 57.989 72.93 3.865 2.24 7.751 4.45 11.659 6.62-44.099-10.35-71.108-42.86-79.236-87.03-4.162-22.62-1.93-40.55 1.978-63.1l-3.499-1.09c-35.462 67.59-90.086 133.09-158.653 168.85l-1.562-1.35c88.591-55.41 137.392-126.17 178.663-221.35 20.949-48.32 34.343-86.95 64.781-130.01"/><path fill="#586169" d="M865.652 1824.37c-.706 4.18-1.565 8.78-2.337 13l-3.499-1.09c2.218-4.16 3.826-7.69 5.836-11.91"/><path fill="#d99f54" d="m203.808 1783.44 1.431.76c-15.374 50.25-23.054 96.17 2.282 145.48 14.961 29.12 44.42 53.15 75.862 62.5q4.253 1.26 8.553 2.34l-3.941 2.02c-64.662-7.46-100.626-65.95-104.375-126.8-3.156-4.14 1.64-14.31-1.958-19.72-29.672 56.39-68.983 112.28-129.7 138.12 15.484-11.19 27.028-18.76 41.784-31.27 57.69-48.91 79.313-107.78 110.062-173.43"/><path fill="#586169" d="M181.662 1850.02c.865-2.44 2.248-4.67 3.432-6.97-1.176 10.75-.926 16.31-1.474 26.69-3.156-4.14 1.64-14.31-1.958-19.72"/><path fill="#d99f54" d="M1194.42 1926.57c-46.7-10.69-79.71-29.2-114.36-63.42-54.76-54.09-63.99-146.1-7.56-202.51 3.89-3.89 13.92-12.43 19.37-12.27-3.07 5.06-10.1 9.67-14.22 14.38-38.93 44.41-45.69 108.22-16.91 159.76 28.69 51.37 81 85.38 136.06 101.87zm-780.541-263.62.776 1.54c-.532 1.7-23.396 26.6-27.857 34.47-55.019 97.04 13.632 195.81 111.03 225.01 5.267 1.58 29.267 6.93 33.331 9.19l-2.87.23a619 619 0 0 1-18.635-3.2c-50.8-9.73-96.627-34.61-125.949-78.2a145.28 145.28 0 0 1-22.211-110.36c6.632-33.13 24.319-60 52.385-78.68"/><path fill="#d99f54" d="M451.049 1955.59c-36.096-8.44-62.645-17.27-91.411-41.96-36.559-31.38-56.932-71.56-60.176-119.64-2.875-42.59 8.49-88.3 36.702-121.04-34.957 62.84-43.915 127.79-7.538 193.53 25.712 46.46 71.114 73.18 121.344 86.91zm466.536-165.36 1.869 3.72c-11.213 80.61 17.967 155.59 101.866 178.42-1.68 1.11-2.34 1.57-4.2 2.41q-2.64-.495-5.28-1.05c-86.613-18.61-111.571-105.45-94.255-183.5"/><path fill="#ca9853" d="M1021.32 1972.37c3.19.46 5.06 1.14 8.12 2.01 1.9.56 3.8 1.14 5.68 1.76-6.02-.26-12.02-.6-18-1.36 1.86-.84 2.52-1.3 4.2-2.41"/><path fill="#8d7d62" d="M449.97 1953.39c1.574.1 12.651 1 13.195 2.97-.723.87-10.529-.46-12.116-.77z"/><path fill="#a3885f" d="M921.384 1776.2c-.42 7.18-.615 10.52-1.93 17.75l-1.869-3.72c.792-4.7 2.4-9.47 3.799-14.03"/><path fill="#ca9853" d="M298.825 1648.38c1.34-1.14 3.091-2.75 4.507-3.66l1.221.21.212-.46.048.09-.062-.32c.472.19.32.07.526.31.271 1.54-6.588 8.2-7.852 9.48.441-1.89.907-3.77 1.4-5.65"/><path fill="#a3885f" d="M686.299 2012.87c4.694-3.9 7.836-6.07 13.302-9.09l1.562 1.35c-4.195 2.81-10.233 5.48-14.864 7.74"/><path fill="#8d7d62" d="M943.045 1652.42c.674-1.28 4.417-7.71 6.102-7.06 1.02 1.27-4.03 7.85-4.911 9.04z"/><path fill="#a3885f" d="M291.936 1994.52c1.55.24 5.833.3 6.307 1.98-.908 1.39-8.724.37-10.248.04z"/><path fill="#ca9853" d="M1196.8 1924.38c1.79.55 5.33.97 6.49 2.4l-.06.39c-1.02.75-7.33-.38-8.81-.6z"/><path fill="#706b5e" d="M203.808 1783.44c.308-1.44.754-4.46 2.557-4.57.832 1.08-.769 4.33-1.126 5.33z"/><path fill="#455765" d="M0 1884.84c83.795-53.89 116.755-111.06 163.157-195.25 41.286-74.9 104.025-139.33 189.196-160.31 54.141-13.34 123.833-9.41 173.265 19.45 18.008 10.51 34.357 27.04 44.616 45.22 2.306 4.08 9.793 19.85 11.541 22 13.476 16.63 20.368 19.65 25.758 41.65a74.98 74.98 0 0 1-8.986 57.3c-11.784 19.2-28.714 30.72-50.348 35.94-2.948-.44-2.726-.41-5.217-2.18 22.452-11.32 36.261-38.55 14.959-57.86 4-10.88 3.96-15.45 3.265-26.55-2.174.42-4.11.76-6.311 1.08a61 61 0 0 1-14.953 44.71c-12.91 15-30.952 21.28-47.776 8.49l1.966-2.94c21.882 7.67 35.394-14.97 28.9-34.1-3.352-9.87-7.244-12.19-15.918-16.41-7.3 16.23-15.808 30.26-34.522 34.99-6.046 1.53-18.723 4.54-24.116 1.55l.065-.98c3.649-2.59 7.354-5.24 10.867-8 6.055-4.77 16.224-20.96 9.651-27.78-5.435-1.69-22.085 2.41-27.586 4.37-9.727 2.66-13.071-1.64-22.316-2.95-5.202-6.15-5.417-10.63-5.626-18.76-33.726 16.35-61.545 4.55-68.304-33.18-22.497-8.54-40.773-8.07-63.053 2.07-61.214 27.87-83.093 95.34-110.522 151.51-37.729 77.27-88.49 153.43-171.652 186.62z"/><path fill="#d99f54" d="M329.688 1564.09c11.8-.28 20.332-.21 31.793 1.32 30.897 4.14 67.316 29.22 67.892 63.16.335 19.7-22.783 30.28 12.1 40.66-9.727 2.66-13.071-1.64-22.316-2.95-5.202-6.15-5.417-10.63-5.626-18.76-33.726 16.35-61.545 4.55-68.304-33.18-22.497-8.54-40.773-8.07-63.053 2.07-61.214 27.87-83.093 95.34-110.522 151.51-37.729 77.27-88.49 153.43-171.652 186.62v-19.86c103.053-45.37 154.663-177.24 206.272-268.19 26.459-46.63 97.13-93.8 149.408-59.22 1.037 9.54 2.089 16.55 8.288 24.58a32.63 32.63 0 0 0 22.33 12.58c8.959 1.06 32.435-2.98 33.741-14.94 1.093-10-7.237-25.69-14.181-33.34-20.416-22.51-47.901-27.65-77.041-29.26.025-1.69-.153-1.6.871-2.8m191.212 49.24c17.85 6.69 27.873 13.98 41.366 27.43 22.251 22.19 27.33 38.18 24.349 69-1.933-3.69-1.24-8.28-2.474-13.03-3.443-22.04-11.38-32.34-25.714-48.82 1.199 5.96 2.062 10.18 2.779 16.34-2.174.42-4.11.76-6.311 1.08-.793-1.94-.692-2.09-1.124-4.31-2.824-14.49-11.519-27.34-21.708-37.73-3.619-3.69-7.377-6.52-11.163-9.96"/><path fill="#a3885f" d="M313.565 1567.16c5.602-1.24 10.566-2.02 16.123-3.07-1.024 1.2-.846 1.11-.871 2.8-6.149.77-9.126.68-15.252.27m270.576 129.57c1.234 4.75.541 9.34 2.474 13.03l-.275 1.5c-.198 1.14-.242 3.53-1.665 3.91-1.143-.66-.551-16.07-.534-18.44"/><path fill="#d99f54" d="M452.679 1576.22c20.72 4.67 36.442 16.8 40.531 38.14 1.124 5.87.603 11.65 2.332 17.31 4.267 10.69 4.703 22.17 1.099 33.23-3.773 14.17-2.434-6.59-2.393-8.49-.75-5.74-1.382-9.59-2.927-15.23-2.669 5.78-5.303 11.73-9.66 16.5-1.331 1.45-6.661 2.88-7.712 1.65-.172-1.26 6.037-9.42 7.214-12.34 10.793-26.74 3.569-56.41-26.436-66.55z"/><path fill="#e4ad5c" d="M494.248 1656.41c.887 3.44.731 5.41 2.393 8.49-3.773 14.17-2.434-6.59-2.393-8.49"/><path fill="#ca9853" d="M447.951 1575.81c1.579.09 3.156.23 4.728.41l2.048 4.22c-2.776-1.09-5.521-1.92-8.34-2.95z"/><path fill="#8d7d62" d="M446.387 1577.49c-10.529-1.33-5.615-3.23 1.564-1.68z"/><path fill="#455765" d="M1899.23 1618.11c3.6.89 10.03 7.62 12.76 10.19 1.46-3.37 1.48-3.46 2.04-7.11 2.85 3.33 4 4.13 6.02 7.92l.57 1.05c-.49 7.12 5.86 7.21 5.51 13.83-.1 2.01 1.18 5.4 3.57 5.66.51-9.73-.53-13.05-3.3-22.69 4.24 4.63 8.48 9.02 11.68 14.48 15.92 27.17 11.79 68.13-11.92 89.71-9.49 8.63-17.55 11.81-29.67 15.14 11.87-8.87 22.91-17.66 25.45-33.27 1.85-11.38-3.73-21.11-13.41-26.74.65-6.28 1.49-13.01 1.77-19.26-2.32-14.11-5.93-23.41-16.89-33.48 2.59-5.58 4.56-9.33 5.82-15.43"/><path fill="#e4ad5c" d="M1914.03 1621.19c2.85 3.33 4 4.13 6.02 7.92l.57 1.05c-.49 7.12 5.86 7.21 5.51 13.83-.1 2.01 1.18 5.4 3.57 5.66-.88 9.67-2.94 16.48-5.99 25.57.65-23.18 3.6-29.15-11.72-46.92 1.46-3.37 1.48-3.46 2.04-7.11"/><path fill="#455765" d="M1855.4 1638.92c2.52-5.51-1.15-8.56 7.09-8.05 2.91.18 15.91-.62 19.63 3.55 1.95 9.57 2.69.85 10.39 8.55a38.53 38.53 0 0 1 10.66 21.02c.24 1.6.58 3.25.87 4.85.09 5.08.05 9.19-.88 14.17-6.08 32.49-35.84 48.19-64.52 32.06 9.03.19 16.77 1.63 24.53-3.8 20.01-14.01 18.56-36.93 6-55.01l-.64-.22c-12.83-4.46-14.57-3.29-13.13-17.12m-711.09 8.92 2.83.67.21.33c2.41 1.29 2.29 1.4 3.93 3.64l1.03 1.4 1.53.08c7.7 10.14 12.46 16.76 22.34 24.57l-7.7-1.51c-8.56-1.7-11.62-5.59-17.76-10.17l-3.52-.8-.81-2.46c-4.12-2.42-5.8-3.93-10.4-5.99.79-2.41 6.3-7.88 8.32-9.76"/><path fill="#fdfdfd" d="m1144.31 1647.84 2.83.67.21.33c1.3 7.54-3.38 4.44.85 14.27l-1.81.48c-4.12-2.42-5.8-3.93-10.4-5.99.79-2.41 6.3-7.88 8.32-9.76"/><path fill="#eff2f4" d="M1148.2 1663.11c.89 1.24 1.68 2.47 2.52 3.74l-3.52-.8-.81-2.46z"/><path fill="#455765" d="M1809.58 1631.52c3.45 5.98 6.43 13.93 13.21 16.46 2.76 5.48 2.72 9.42 6.53 14.74l2.52 3.52c.38.5.76 1.01 1.14 1.52l1.12 1.54c-21.35-5.38-28-16.05-24.52-37.78"/><path fill="#737980" d="M8.838 1595.95c5.54-.64 16.32-2.17 21.272-2.52 3.41 2.12 5.339 1.38 9.428 1.77-5.536.9-25.703 2.45-30.7.75M1571.8 1464.21c2.89.41 13.25 3.65 16.77 4.63-6.6-.29-14.68-.75-21.18-1.58zm-1010.916 42.15c2.995 1.67 3.002 1.54 6.446 2.18-5.274.84-12.107 1.62-17.514 2.36 3.343-1.59 7.47-3.83 11.068-4.54"/><path fill="#586169" d="M1487.72 1553.54c3.21 1.12 6.25 3.08 9.28 4.74-4.39-.97-9.08-1.98-13.48-2.84zm-944.738 195.12c2.491 1.77 2.269 1.74 5.217 2.18-1.592.17-9.472 1.51-10.457.54.387-1.23 4.078-2.34 5.24-2.72"/><path fill="#97999d" d="M1223.94 1739.52c-1.79.28-8.81 1.27-10.06-.17.27-1.62 4.66-1.68 6.11-1.81z"/><path fill="#586169" d="M700.767 1561.12q4.364.435 8.713 1.02c-1.6.31-10.85 1.65-11.894.99-.024-.12-.048-.25-.071-.38.743-.93 2.138-1.3 3.252-1.63"/><path fill="#97999d" d="m447.498 1469.55 1.829 1.92c-1.129.2-6.808 1.28-7.483.81l-.003-.15c.626-1.11 4.461-2.19 5.657-2.58m1230.932-35.05c1.59.35 4.56.86 5.73 1.99-.21 1.11-5.78.21-6.39.12z"/><path fill="#586169" d="M492.166 1718.53c-.642-.6-2.5-2-2.614-3.03.898-1.04 3.365-.16 4.58.09z"/><path fill="#455765" d="M1046.22 426.252c79.74 1.521 159.03 22.691 214.76 83.38 31.3 34.085 84.83 114.47 42.38 158.599-12.27 12.765-31.52 4.888-42.1-6.4 4.85-57.287-18.53-107.421-74.4-128.65-2.13.668-2 .78-3.84 2.313 19.1 8.595 37.15 19.216 47.95 37.876 7.63 12.844 14.37 26.357 20.77 39.844 1.5 3.155 1.17 13.058 1.57 16.94 4.3 41.205-11.68 84.428-50.95 103.586-5.19.924-27.61 4.396-29.33-1.968-2.37-.735-4.71-1.362-7.07-2.103 17.23-17.759 27.63-29.315 22.66-55.631-44.1 16.07-66.96 30.74-88.02 73.67l-1.21 1.193c-9.01 8.658-15.69 36.336-19.66 48.617-1.34-1.727-2.07-2.142-2.3-4.309 3.44-35.226 18.76-64.353 38.66-92.457-8.89-.729-17.99-.344-26.87-2.127-2.69.259-7.8-5.193-9.17-5.541-14.41-3.661-23.22 1.881-34.04-12.235.94-1.834.65-.836.8-3.015l.58-.657-2.36.762-1.3-1.63c-1.56-4.306-4.31-12.564-3.93-17.358.24-2.947 1.73.12 1.52-4.87-3.24.174-6.59 2.303-9.79 3.17-25.16 6.805-42.137-2.115-51.845-25.682-3.905-4.4-34.184 19.498-36.832 23.609-38.191 32.745-64.342 83.041-80.408 130.476-2.505 7.396-8.88 36.267-11.48 40.576q1.215-7.283 2.734-14.508c10.782-52.639 37.706-109.609 74.163-149.587 13.524-14.83 31.243-28.647 47.946-39.671-2.793-6.331-3.907-8.677-7.674-14.476-8.38-4.462-15.687-5.282-24.887-6.045-36.986-6.489-85.72 17.427-115.037 38.3-43.16 30.73-70.1 64.991-98.62 108.259l-2.179-.84c-5.407 8.308-12.141 21.31-15.977 30.287-5.509 8.297-10.616 21.331-15.305 30.42-25.505 49.438-39.245 103.739-64.215 153.547-34.669 72.804-70.765 135.174-123.086 196.994a671.4 671.4 0 0 1-359.252 218.99c-57.044 13.02-91.31 15.5-149.576 15.05v-207.96c56.984-28.71 59.304-85.07 92.178-132.83 21.722-31.56 59.8-50.12 90.861-16.96-10.709 4.54-22.074 12.21-25.253 23.96-15.826 58.52 40.52 97.64 92.153 96.98 7.055-3.02 14.357-9.33 20.816-14.06 14.239-13.57 26.99-26.95 37.908-43.47 25.714-38.77 35.381-86.44 73.513-116.238 33.95-26.529 81.745-31.808 110.639 4.724 3.851.87 6.598 1.363 10.118 2.975 22.006 10.079 9.627 24.809 12.445 32.729 3.707 3.79 7.599 8.07 5.766 13.74-1.827 5.65-5.23 18.37-12.974 16.03 6.787-10.85 5.753-17.11-5.152-23.74l-1.16-.7c-.487 1.32-.894 2.43-1.293 3.78-.473 7.41-1.621 21.98-11.528 22.82-.853-2.08-.906-2.84-.22-5.17 2.696-9.13-6.08-13.78-13.521-19.49-1.377 1.77-2.482 3.04-4.008 4.68-3.18 2.24-3.384 2.11-7.019 3.08-3.008-.35-5.477-.78-8.572-1.04l-5.78-1.44c-23.497 12.03-25.027 38.41-18.1 61.11 6.749 22.12 23.706 38.3 44.119 48.49 63.566-74.7 100.138-157.011 132.961-248.747 36.823-102.916 67.434-216.223 133.315-305.438 68.419-92.651 152.46-147.026 266.548-163.889 13.58-.261 22.99-1.395 37.46-.624"/><path fill="#fdfdfd" d="M1046.27 510.894c31.14 10.736 56.71 30.979 71 60.839 20.93 43.724 18.48 101.08-32.52 120.456 23.18 5.397 43.06 4.115 63.8-8.576 12.87-7.877 22.67-18.504 26.21-33.662a67.5 67.5 0 0 0 1.65-10.578c-4.38-2.043-14.28-5.819-15.19-10.972 4.83-.538 7.61 1.294 11.77 3.69 3.34 6.348 5.4 7.265 9.99 12.417 12.04 13.533 14.06 29.558 15.36 46.767-3.47 16.992-9.04 31.472-25.31 40.497-2.37-.735-4.71-1.362-7.07-2.103 17.23-17.759 27.63-29.315 22.66-55.631-44.1 16.07-66.96 30.74-88.02 73.67l-1.21 1.193c-9.01 8.658-15.69 36.336-19.66 48.617-1.34-1.727-2.07-2.142-2.3-4.309 3.44-35.226 18.76-64.353 38.66-92.457-8.89-.729-17.99-.344-26.87-2.127-2.69.259-7.8-5.193-9.17-5.541-14.41-3.661-23.22 1.881-34.04-12.235.94-1.834.65-.836.8-3.015l.58-.657-2.36.762-1.3-1.63c-1.56-4.306-4.31-12.564-3.93-17.358.24-2.947 1.73.12 1.52-4.87-3.24.174-6.59 2.303-9.79 3.17-25.16 6.805-42.137-2.115-51.845-25.682-3.905-4.4-34.184 19.498-36.832 23.609-38.191 32.745-64.342 83.041-80.408 130.476-2.505 7.396-8.88 36.267-11.48 40.576q1.215-7.283 2.734-14.508c10.782-52.639 37.706-109.609 74.163-149.587 13.524-14.83 31.243-28.647 47.946-39.671-2.793-6.331-3.907-8.677-7.674-14.476-8.38-4.462-15.687-5.282-24.887-6.045-36.986-6.489-85.72 17.427-115.037 38.3-43.16 30.73-70.1 64.991-98.62 108.259l-2.179-.84c29.526-46.714 58.899-87.298 105.921-118.098 29.989-19.643 60.942-34.956 97.099-38.203 21.032-1.889 42.986 3.828 52.062 24.47 14.717 33.47 30.827 43.937 62.967 21.195 9-5.366 9.29-14.978 7.65-24.543-3.38-19.836-16.5-40.566-32.48-52.729a114.8 114.8 0 0 0-40.648-20.489c-2.863-.8-7.342-2.219-10.117-2.214-18.638-4.33-35.29-2.513-53.926.525-5.56.906-14.767 2.677-20.083 1.983 36.966-12.184 73.558-14.29 109.294 3.563 31.3 15.433 56.57 47.054 55.47 83.072-.5 16.385-24.68 42.56-3.68 53.001 18.34 9.125 41.95-1.177 52.39-17.441 6.36-15.848 9.64-26.823 8.94-44.274a114.06 114.06 0 0 0-35.44-77.095c-7-6.75-15.72-12.711-22.99-19.515l-.69-.659c-4.2-2.664-9.55-4.998-14.1-7.166z"/><path fill="#e4ad5c" d="M1059.15 520.211c42.62 19.909 78.32 83.784 57.87 130.284-1.96 4.458-4.22 7.881-7.69 11.259 6.36-15.848 9.64-26.823 8.94-44.274a114.06 114.06 0 0 0-35.44-77.095c-7-6.75-15.72-12.711-22.99-19.515z"/><path fill="#d99f54" d="M414.968 1036.75c-3.903 20.7-8.215 39.51-2.305 60.35 7.546 26.62 25.979 46.67 51.57 56.74 4.109-2.81 8.135-5.53 12.106-8.55-13.086 15.49-26.669 28.01-41.51 41.58-60.473 55.32-137.397 109.5-215.619 136.17-59.178 20.18-157.556 27.13-219.21 17.67v-7.64a624 624 0 0 0 73.873.27c115.041-5.48 209.775-43.56 302.615-110.81 28.773-20.84 58.342-40.89 84.229-65.56a78.9 78.9 0 0 1-47.133-39.12c-14.147-27.29-10.397-53.98 1.384-81.1"/><path fill="#d99f54" d="M215.126 1204.15c54.922-12.42 93.115-57.13 114.834-106.56 18.011-39.15 27.617-82.47 76.896-89.55 33.037-4.74 40.081 27.18 60.607 23.94l1.222-.21c.924 1.65 1.099 1.6 2.603 2.98-3.18 2.24-3.384 2.11-7.019 3.08-3.008-.35-5.477-.78-8.572-1.04l-5.78-1.44c-5.139-3.05-8.918-7.02-13.398-10.56-25.35-20.06-62.543-1.04-75.888 25-35.937 70.1-51.559 134.74-139.493 155.64-1.707.41-3.418.79-5.135 1.15zM0 1215.57c26.924-5.42 51.32-7.55 78.783-4.96 57.252 5.4 111.935 28.63 169.154 35.07 17.832 2 33.523 1.31 51.303-.1 1.334.58 1.353.81 2.576 2-71.285 17.43-136.738-18-207.3-28.66-39.532-5.97-54.585-5.86-94.516-1.61zm895.856-676.011c5.316.694 14.523-1.077 20.083-1.983 18.636-3.038 35.288-4.855 53.926-.525-4.127 2.453-4.064 1.685-8.937 2.666a154 154 0 0 0-6.693-.404c-57.591-2.079-114.606 31.938-155.683 69.869 18.617-30.427 63.662-59.613 97.304-69.623"/><path fill="#e4ad5c" d="M969.865 537.051c2.775-.005 7.254 1.414 10.117 2.214a114.8 114.8 0 0 1 40.648 20.489c15.98 12.163 29.1 32.893 32.48 52.729 1.64 9.565 1.35 19.177-7.65 24.543 7.73-18.292 3.32-33.735-6.64-50.426-17.41-29.176-45.774-41.448-77.892-46.883 4.873-.981 4.81-.213 8.937-2.666"/><path fill="#d99f54" d="M0 1279.93c24.595 1.2 44.2 16.24 68.014 20.84 5.21 1.01 10.232 1.61 15.467 2.4-40.182 5.1-47.777-9.29-83.481-19.02z"/><path fill="#ca9853" d="M249.939 1156.14c7.055-3.02 14.357-9.33 20.816-14.06-3.921 6.47-13.389 13.29-19.681 17.63-27.691 19.11-57.551 33.09-91.189 36.72l-.968-.22c-2.937-.62-3.09-.51-5.654-1.8 31.052-2.91 70.725-20.36 96.676-38.27"/><path fill="#d99f54" d="M1172.99 632.091c23.68 10.529 30 35.6 25.35 59.184-1.3-17.209-3.32-33.234-15.36-46.767-4.59-5.152-6.65-6.069-9.99-12.417M500.565 1031.91c-2.154-.53-6.778.74-6.221-1.09 2.423-7.95 6.326-9.79 1.623-19.28-3.15-6.35-6.568-5.46-11.587-8.89-.12-.09.019-.15.027-.2 3.34-1.42 10.803 1.13 13.276 4.16 5.611 6.88 4.585 13.46 4.175 21.52-.487 1.32-.894 2.43-1.293 3.78m-31.88-.14c5.554-8.68 5.833-14.11-.219-21.83-4.835-6.16 7.496.3 6.878 3.95 3.143 8.84.855 8.25-.048 16.18-1.377 1.77-2.482 3.04-4.008 4.68-1.504-1.38-1.679-1.33-2.603-2.98"/><path fill="#efe6d8" d="M1146.6 524.2c12.03.484 29.4 3.673 40.26 8.981-2.13.668-2 .78-3.84 2.313-3.16-.297-10.49-4.655-15.01-5.242-6.83-.888-14.76-4.011-21.41-6.052"/><path fill="#a3885f" d="M159.885 1196.43c-2.328.32-16.871 1.49-17.925-.07.531-2.05 8.983-1.8 11.303-1.95 2.564 1.29 2.717 1.18 5.654 1.8z"/><path fill="#ca9853" d="M299.24 1245.58c2.348-.86 9.702-1.14 12.701-1.46-3.758 1.58-6.228 2.47-10.125 3.46-1.223-1.19-1.242-1.42-2.576-2"/><path fill="#efe6d8" d="M1045.05 513.045c-1.36-.578-4.91-1.811-5.47-3.42 1.21-1.109 5.39.808 6.69 1.269z"/><path fill="#a3885f" d="M216.003 1206.58c-.393-.04-5.572-.12-5.488-1.13.858-1.02 3.383-1.15 4.611-1.3z"/><path fill="#d99f54" d="m107.89 1058.4 2.116 1.4c-.566.47-1.123.95-1.671 1.43-24.07 21.43-35.362 67.86-11.65 93.12 21.584 23 52.483 24.39 81.566 26.03-41.451 8.75-96.134-5.2-100.435-56.1-2.18-25.82 9.484-50.05 30.074-65.88m-88.667 189.03c65.085-9.85 52.753 57.78 145.341 25.64-15.89 11.54-34.389 18.4-54.301 15.54-34.601-4.96-49.63-40.21-87.123-39.3a64 64 0 0 1-3.917-1.88m334.178-157.12 1.946 1.97-.121.36c-14.234 40.95 28.74 78.32 64.795 85.19 3.244.62 6.2 1.8 9.387 2.74-20.775-.58-36.912-2.74-54.34-15.09-24.708-17.51-33.272-47.65-21.667-75.17"/><path fill="#d99f54" d="m139.962 1051.75 1.329 1.59c-6.787 15.57-6.851 44.79-.236 60.86 10.997 26.72 29.716 36.04 54.201 46.75-57.374-9.08-77.445-58.08-55.294-109.2m246.24 40.23c.183-.66-.102-1.72.782-1.73 1.451 1.38.869 6.71.825 8.39 1.447 23.41 11.618 42.93 31.569 55.72 10.016 6.42 19.764 8.81 30.336 13.64-30.644-2.35-52.969-14.14-62.435-45.55-3.626-12.04-1.67-18.64-1.077-30.47"/><path fill="#8d7d62" d="M386.202 1091.98c.183-.66-.102-1.72.782-1.73 1.451 1.38.869 6.71.825 8.39-.968-2.95-1.282-3.65-1.607-6.66"/><path fill="#d99f54" d="m379.069 1058.16 2.098 1.84c-16.473 35.06-8.378 61.19 10.513 92.06-29.426-20.51-30.495-65.16-12.611-93.9m-270.665 45.7c2.428 3.96 1.421 6.54 2.285 11.23 4.664 29.61 18.062 37.93 42.158 51.81-14.869-3.62-25.487-7.41-35.498-20.23-7.828-10.03-11.782-26.3-9.624-38.85z"/><path fill="#8d7d62" d="M108.404 1103.86c.973-4.76 1.825-8.88 5.059-12.36-.068 2.02-1.74 6.23-2.014 8.72-.552 5.02-.437 9.84-.76 14.87-.864-4.69.143-7.27-2.285-11.23"/><path fill="#ca9853" d="M361.887 1076.84c-2.187 5.62-4.172 9.97-6.54 15.44l-1.946-1.97c1.397-4.04 5.918-9.85 8.486-13.47"/><path fill="#a3885f" d="M9.28 1250.22c4.683-1.66 4.879-1.99 9.943-2.79 1.415.74 2.462 1.23 3.917 1.88-3.496.97-9.988.81-13.86.91"/><path fill="#ca9853" d="M379.069 1058.16c2.303-3.17 4.951-5.95 7.498-8.97-1.789 3.63-3.478 7.25-5.4 10.81z"/><path fill="#8d7d62" d="M139.962 1051.75c.304-.83 1.884-6.23 3.403-5.82.809 1.13-1.66 6.29-2.074 7.41z"/><path fill="#a3885f" d="M107.89 1058.4c5.09-2.87 8.707-3.55 2.116 1.4z"/><path fill="#455765" d="M1341.7 1151.21c28.1-10.99 69.75-52.48 85-78.29 26.3-44.55 45.06-82.367 94.11-106.482 33.95-16.691 85.44-12.957 102.82 25.149 12.62 5.952 21.96 18.343 5.58 27.303l.97 1.9c5.23.64 10.08 4.19 8.09 10.01-4.21 12.28-12.49 17.16-23.78 21.15 8.27-9.32 11.75-17.5 1.27-27.96l-.47-.02c-9.64 12.02-9.1 10.55-24.04 11.37-.33-.92-.62-1.73-.9-2.67l-2.31.39c-3.15 0-6.17 1.02-9.15 2.08-2.91.02-11.67-2.4-15.18-3.18-5.83 7.05-10.36 13.58-12.91 22.48-19.81 69.16 53.12 106.95 109.49 109.91 5.63-.08 12.1-.03 17.65-.32 16.27-16.03 27.79-27.91 40.52-47.28 9.3-14.37 17.99-29.13 26.06-44.23 21.05-39.88 35.6-73.842 76.09-99.13 36.46-22.779 83.74-25.466 108.81 14.422 35 9.637 43.04 50.698 9.2 67.698-3.28-.78-3.6-.72-6.53-2.24 13.79-6.52 14-14.34 3.57-25.05-7.23 8.59-16.45 11.14-25.09 2.92-.61-2.12-.51-2.05-1.56-3.86l-1.92-.98-.54.97c-1.22 2.56-1.69 3.5-3.28 5.83l-2.3-1.88c-4.18 1.84-8.85 4.03-13.11 5.52-27.56 13.03-26.09 53.24-13.21 75.82 30.07 52.7 103.55 62.8 156.48 48.82 6.78-5.13 11.37-9.36 16.87-15.75v99.21c-1.39.65-2.8 1.26-4.23 1.84-91.94 38.58-185.64 50.73-284.53 33.79-33.97-5.81-72.32-17.45-105.58-27.4l-93.84-28.48c-61.81-19.25-122.36-41.36-183.88-61.47-11.13-3.64-23.46-7.5-34.24-11.91"/><path fill="#d99f54" d="M2048 1145.63v8.8c-15.28 16.25-31.42 33.01-49.72 45.91-90.33 63.69-213.61 79.7-319.28 49.32l3.55-2.14c48.15 11.08 109.9 11.32 158.49 4.02 57.76-8.69 116.79-33.01 164.1-67.21 6.92-5 21.03-16.21 25.99-22.95 6.78-5.13 11.37-9.36 16.87-15.75m-424.76 78.96c60.98-10.61 97.14-48.58 122.88-102.65 16.96-35.25 31.33-83.46 64.69-106.09 25.94-17.585 61.2-21.687 76.17 8.91 1.57 3.23 4.18 3.84 7.53 4.4 4.27-1.04 5.6-2.93 8.97-6.04 1.11.79 1.93 1.47 2.98 2.33l.63.85-.54.97c-1.22 2.56-1.69 3.5-3.28 5.83l-2.3-1.88c-4.18 1.84-8.85 4.03-13.11 5.52-12.79-8.29-12.33-22.05-27.83-24.49-59.86-9.4-84.05 60.79-101.94 103.28-25.29 60.09-64.67 102.79-131.26 110.83z"/><path fill="#eff2f4" d="M1900.97 1031.22c1.82-2.15 3-3.14 5.58-3.95-1.22 2.56-1.69 3.5-3.28 5.83z"/><path fill="#d99f54" d="M1396.44 1161.84c11.4-11.11 19.59-19.45 28.27-33.14 23.61-37.25 30.88-87.62 66.95-115.52 8.64-6.68 17.25-10.05 27.77-11.26 31.43-3.625 32.35 21.5 54.68 27.73 3.16.46 7.59-.78 9.5-3.23 5.58-7.17 3.83-14.27-2.36-19.91l.58-1.87c13.24 7.09 11.14 16.34 6.21 28.42-3.15 0-6.17 1.02-9.15 2.08-2.91.02-11.67-2.4-15.18-3.18-9.75-4.92-23.55-19.89-32.72-21.53-57.79-10.33-76.29 89.09-101.88 123.21-11.28 15.04-18.11 20.24-32.67 28.2m263.85 2.51c5.63-.08 12.1-.03 17.65-.32-30.93 30.13-67.33 46.67-110.39 49.12-4.6-.31-6.78.53-10.57-1.87 37.48-1.8 85.2-20.36 112.94-45.57-1.96-1.24-6.93-1.18-9.63-1.36m248.72-137.07c19.39 15.38 33.94-11.28 18.41-23.7-1.24-.99-.29-.32-1.06-1.17 2.86-3.073 16.33 8.23 9.3 25.81-7.23 8.59-16.45 11.14-25.09 2.92-.61-2.12-.51-2.05-1.56-3.86"/><path fill="#e4ad5c" d="m1610.74 1020.02 1.07.63c1.58.89 2.4 1.86 3.48 3.32-9.64 12.02-9.1 10.55-24.04 11.37-.33-.92-.62-1.73-.9-2.67 12.56-3.85 14.69 2.45 20.39-12.65"/><path fill="#d99f54" d="M1903.48 1023.12c.02-6.03-.42-10.23-4.65-14.88-1.37-1.51-4.69-3.48-5.52-4.74 1-1.16 7.4 2.46 8.18 3.48 5.86 7.73 9.55 10.46 4.97 18.47-1.05-.86-1.87-1.54-2.98-2.33m-293.62-15.31c1.84.65 3.55 1.18 5.4 1.73.76 8.74 1.47 5.86.5 14.45l-.47-.02c-1.08-1.46-1.9-2.43-3.48-3.32l-1.07-.63c.16-5.8.47-6.54-.88-12.21"/><path fill="#ca9853" d="M1651.39 1242.17c10.73 1.36 20.56 3.54 31.16 5.35l-3.55 2.14-1.07-.22c-8.89-1.82-17.94-4.43-26.54-7.27"/><path fill="#8d7d62" d="M1567.55 1213.15c-3.27.6-24.03 2.08-24.21-1.55.6-.54 12.3-.41 13.64-.32 3.79 2.4 5.97 1.56 10.57 1.87"/><path fill="#ca9853" d="M1609.86 1007.81c-5.89-11.641 2.68-7.23 5.4 1.73-1.85-.55-3.56-1.08-5.4-1.73"/><path fill="#8d7d62" d="M1626.83 1226.36c-.86.12-10.28 1.83-9.43-.56.35-.98 4.89-1.12 5.84-1.21z"/><path fill="#efe6d8" d="m1629.21 1018.89.97 1.9c-9.91 1.04-9.91-2.71-.97-1.9"/><path fill="#8d7d62" d="M1581.25 1006.51c-.89-.11-5.11-.17-5.58-1.19.49-2.03 5-.88 6.16-.68z"/><path fill="#d99f54" d="M1789.82 1071.88c-.21 3.74-3.03 9.09-3.97 12.77-14.41 56.26 35.32 98.81 86.48 107.96 6.65 1.19 25.16 3.01 29.02 4.71l-.27 1.31-3.07 1.11c-55.57 3.71-116.37-18.84-119.58-83.52-.85-17.07.94-30.01 11.39-44.34m69.49-31.89 2.07.85c-9.98 17.98-13.71 43.48-7.68 63.31 9.67 31.8 33.73 50.2 63.42 61.97l-.2 2.46c-33.02-6.21-62.17-32.17-69.36-65.42a83.93 83.93 0 0 1 11.75-63.17m-338.8 11.64 2.5.39c-11.15 52.72 18.64 109.58 73.38 120.37l1.32.25c-1.42.79-2.13 1.2-3.52 1.86-59.06-5.38-87.72-69.57-73.68-122.87m-32.13 28.54 2.12 2.42c-3.58 15.98-4.15 40.35.66 55.98 8.92 28.99 24.64 37.66 48.49 50.89-1.01-.2-2.02-.42-3.04-.63-33.67-7.2-48.87-29.88-52.76-62.82-1.94-16.41 1.15-29.95 4.53-45.84"/><path fill="url(#a)" d="M1472.69 1079.02c1.3 1.27-6.35 14.74-7.53 17.52-10.29 24.26-10.21 60.57 13.82 76.82 4.27 2.89 9.82 4.99 13.49 8.13l-1.69.72c-48.17-12.6-45.8-71.18-18.09-103.19"/><path fill="#d99f54" d="m1822.66 1038.94.59 1.29c-13.03 20.57-17.67 40.55-15.95 64.71 1.38 19.33 9.12 30.35 19.09 46.31l-1.32 1.14c-1-.84-1.98-1.71-2.93-2.61-29.24-27.96-26.3-82.71.52-110.84m9.75 56.21c.79-4.52 1.63-7.27 2.99-11.65-.52 9.1-.37 16.68-.5 25.62.26 3.26.65 5.64 1.19 8.87 3 17.88 13.34 33.69 28.5 43.61 2.01 1.33 3.03 1.86 5.15 2.89l-1.8 2.27c-31.69-11.36-39.93-40.92-35.53-71.61"/><path fill="#a3885f" d="M1832.41 1095.15c.79-4.52 1.63-7.27 2.99-11.65-.52 9.1-.37 16.68-.5 25.62-1.27-5.24-.14-10.03-2.49-13.97"/><path fill="#d99f54" d="M1501.53 1126.79c-.31-2.16-1.33-8.39.26-10.19l.42-.03c.79 1.43.66 1.37.73 3.16l1.03 3.76c7.58 26.81 14.36 32.64 37.11 46.38-12.78-3.12-23.74-7.03-31.15-19.31a59.4 59.4 0 0 1-7.16-18.03c-.45-2.03-.84-3.66-1.24-5.74"/><path fill="#a3885f" d="M1501.53 1126.79c-.31-2.16-1.33-8.39.26-10.19l.42-.03c.79 1.43.66 1.37.73 3.16-.45 2.36-.92 4.71-1.41 7.06m415.59 39.33 1.69.49c.24.06.48.13.71.19l4.89 1.45c.86.27 4.37 1.05 4.75 2.14-1.15 1.21-10.4-1.18-12.24-1.81z"/><path fill="#8d7d62" d="M1524.05 1042.23c.33-1.2 1.95-5.86 2.51-6.71 6.77-10.39-.48 6.91-1.19 8.85z"/><path fill="#ca9853" d="m1524.05 1042.23 1.32 2.14c-1 2.77-1.44 4.96-2.36 7.65l-2.5-.39c1.13-3.43 2.2-6.05 3.54-9.4"/><path fill="#8d7d62" d="M1597.71 1172.64c10.83.94 2.45 3.48-3.52 1.86 1.39-.66 2.1-1.07 3.52-1.86"/><path fill="#a3885f" d="M1859.31 1039.99c3.15-5.45 8.16-6.77 2.07.85zm-370.93 40.18c.41-1.26 1.54-5.92 2.9-6.2.48 1.03-.56 7.18-.78 8.62z"/><path fill="#ca9853" d="m1869.74 1164.49 1.28 1.06c.57.45 1.3.95 1.38 1.74-.5.89-3.76-.36-4.46-.53z"/><path fill="#455765" d="M0 1135.79c50.89-52.67 63.089-141.034 136.721-172.218 30.279-12.823 74.202-8.278 87.983 25.896 3.459 1.475 6.517 2.662 10.229 5.126 20.458 13.586-3.483 22.786 5.896 40.886 2.601 5.03-8.179 27.31-17.887 27.25 1.682-14.51 16.855-14.69-6.628-32.97-3.591 5.42-7.432 12.53-13.25 15.27-6.872-.14-9.113.29-14.578-3.71-.832-1.27-4.228-4.8-5.447-6.12-31.061-33.16-69.139-14.6-90.86 16.96C59.303 1099.92 56.983 1156.28 0 1184.99z"/><path fill="#d99f54" d="M0 1177.2c46.58-29.08 55.008-79.36 81.966-123.73 20.476-33.7 63.225-63.311 99.685-30.89 6.058 5.38 15.256 16.94 23.99 14.91 10.667-6.82 6.7-19.2 2.519-27.9l1.195-1c5.8 3.3 7.713 15.08 6.959 21.17-3.591 5.42-7.432 12.53-13.25 15.27-6.872-.14-9.113.29-14.578-3.71-.832-1.27-4.228-4.8-5.447-6.12-31.061-33.16-69.139-14.6-90.86 16.96C59.303 1099.92 56.983 1156.28 0 1184.99z"/><path fill="#b92525" d="m1025.41 344.439 3.18-.321c.19.265.38.529.58.794 2.99 4.094 10.9 4.515 12.8 9.045.72 1.726-3.8.64-4.05.063-.04-.114-1.08-.409-1.41-.487-1.8 1.174-3.35 5.439-2.18 7.147 2.05 2.996 3.13-1.51 6.04-1.216 8.06.817 5.34 10.724 2.05 15.457-.09 1.794-.3 3.398-.52 5.17.28 13.513 3.14 32.077 4.32 46.161-14.47-.771-23.88.363-37.46.624.81-17.818 4.57-35.557 5.23-52.999l.13-.411c1.88-2.079 2.05-2.408 3.56-4.869.28.494.77 1.535 1.26 2.002.49-2.164.74-4.37 1.92-6.285-.97-2.292-.37-1.524-.39-3.624-1.72-12.422-4.47-5.814-7.8-7.414.29-1.449 10.58-7.217 12.74-8.837"/><path fill="#eff2f4" d="M1026.11 364.195c3.04.147 3.62-.09 6.71-.618 3.1 2.431 3 4.115 3.22 8.142-3.94.238-4.23.027-8.21-.548-.75.114-1.51.228-2.26.343.23-2.452.33-4.862.54-7.319"/><path fill="#c73030" d="M1026.11 364.195c3.04.147 3.62-.09 6.71-.618-3.04 3.183-2.85 3.408-4.99 7.594-.75.114-1.51.228-2.26.343.23-2.452.33-4.862.54-7.319"/><path fill="#eff2f4" d="m1020.86 364.314 5.25-.119c-.21 2.457-.31 4.867-.54 7.319-3.71.205-3.51.457-6.63-.915.49-2.164.74-4.37 1.92-6.285m17.57 4.617c-.06-1.553-.38-4.891 2.17-4.864 2.11 1.236 1.68 8.681 1.82 10.854-.09 1.794-.3 3.398-.52 5.17-1.26-7.276-.34-4.593-3.47-11.16"/><path fill="#e4ad5c" d="M1148.18 726.534c5.96 1.684 11.6 3.606 17.78 3.135 2.36.741 4.7 1.368 7.07 2.103 1.72 6.364 24.14 2.892 29.33 1.968-15.42 7.725-27.24 6.76-43.06 1.928-5.8-2.793-6.75-4.474-11.12-9.134"/><path fill="#455765" d="M203.064 1045.03c.367 6.16.515 10.76-3.205 15.98-.972 1.37-6.775 7.38-8.438 5.79-.131-.72.201-1.22.505-1.8 6.97-13.34-.478-13.18-6.44-22.84-.05-.08.137-.43.295-.56.786-.62 1.773-.37 2.705-.28 5.465 4 7.706 3.57 14.578 3.71m1704.026-18.73 1.92.98c1.05 1.81.95 1.74 1.56 3.86-2.19 5.7-4.28 13.4-1.82 18.94.14.33.22.9.22 1.28-.8 1.17-3.68-.72-4.38-1.55-4.43-5.26-3.54-10.89-1.32-16.71 1.59-2.33 2.06-3.27 3.28-5.83zm-319.05 6.76 2.31-.39c.28.94.57 1.75.9 2.67 1.27 12.08.23 12.25-4.65 21.19-1.82-2.81 4.99-7.76-7.71-21.39 2.98-1.06 6-2.08 9.15-2.08"/><path fill="#c73030" d="M1020.47 360.69c.02 2.1-.58 1.332.39 3.624-1.18 1.915-1.43 4.121-1.92 6.285-.49-.467-.98-1.508-1.26-2.002-1.51 2.461-1.68 2.79-3.56 4.869l-.13.411c-5.74-1.043-4.6-8.353-3.64-12.787.28-1.303 7.48-.118 10.12-.4"/><path fill="#eff2f4" d="M1014.12 373.466c-5.16-12.245 3-13.184 3.56-4.869-1.51 2.461-1.68 2.79-3.56 4.869"/><path fill="#455765" d="M455.697 1036.79c3.095.26 5.564.69 8.572 1.04-.079 1.54-.178 10.42-2.634 10.49.531.3-4.813-9.99-5.938-11.53"/><path fill="#586169" d="M1938.62 1055.51c-8 2.11-16.97-.68-6.53-2.24 2.93 1.52 3.25 1.46 6.53 2.24"/><path fill="#c73030" d="M1025.41 344.439c-.52-7.414 1.95-8.589 3.18-.321z"/><path fill="#455765" d="M1311.54 565.699c87.31 28.76 150.98 169.723 75.4 242.951-8.31 8.044-19.3 12.291-30.54 14.517 34.93-26.855 29.94-92.153-14.17-82.491 1.54 2.305 13.44 6.135 17.88 11.314 16.86 19.642 14.35 41.722-2.74 59.395-1.14-4.227-5.39-11.944-9.9-12.982-1.34 5.654 4.11 13.651 2.57 22.872-2.81 15.806-11.46 30.811-24.02 41.119-21.77 17.874-61.29 24.039-81.07-.119-3.28-4.01-4.59-7.964-3.86-13.218 3.07 5.228 7.21 10.175 13.57 10.429 27.15 1.085 49.73-22.199 52.83-48.302.63-5.262 1.15-15.699-1.83-19.585l-1.95.452c-3.74 4.095-6.04 9.158-8.69 14.098l-1.52-.955c.96-20.411 25.58-36.812 35.67-52.014 7.81-11.761 9.45-28.889 5.7-42.37-4.18-15.064-8.77-19.936-21.48-27.555 15.88 16.6 20.14 33.432 9.81 55.515-2.59 5.523-6.25 8.284-10.85 12.01 1.13-16.673-3.45-26.34-19.25-32.64-3.36.663-3.29.533-6.11 2.287 45.53 16.158 7.71 71.352-21.41 82.61-22.4 8.658-53.59 7.445-61.07-20.136l3.74.653c31.67 25.459 71.53-37.204 52-50.537-8.43-.749-14.84 6.008-18.01 13.16l-1.79-.615c3.14-11.552 41.34-43.288 17.93-51.309-6.57 1.511-9.33 6.199-13.62 11.401 5.37-12.262 9.7-21.071 13.88-33.939 12.8 9.608 24.3 14.636 40.29 8.257a46.6 46.6 0 0 0 25.66-25.693c12.05-29.166-1.59-61.937-13.05-88.58"/><path fill="#eff2f4" d="M1286.99 720.427c-.82-.141-4.41-.373-4.57-1.45 1.07-1.71 8.72-.914 10.68-.837-3.36.663-3.29.533-6.11 2.287"/><path fill="#586169" d="M1204.51 782.901c-.43-1.747-.81-3.177-.51-4.965.11-.091.21-.183.32-.274.77.165 2.92 4.336 3.38 5.041l.55.851z"/><path fill="#737980" d="M1242.24 746.177c-.45.971-1.38 3.748-2.36 4.172l-.3-.201c-.28-1.202.52-3.331.87-4.586z"/><metadata><recraft-signature>{&quot;signed_by&quot;: &quot;recraft&quot;, &quot;signature_b64&quot;: &quot;8y0nkGnAbFPw0qELARqlXuyFXDxyAuDrxXGZ90AEBZ2JsHvuZUgW1QeVPfBeENoKF9pfuujQbzLHF0EpJGbJBQ==&quot;, &quot;signing_algo&quot;: &quot;Ed25519&quot;, &quot;generation_timestamp&quot;: 1777235602, &quot;identifier&quot;: &quot;1b7cc318-aa95-474a-82c0-8ed6189a67d9&quot;}</recraft-signature></metadata></svg>